<?xml version="1.0" encoding="utf-8"?>
<!-- Generator: Adobe Illustrator 17.1.0, SVG Export Plug-In . SVG Version: 6.00 Build 0)  -->
<!DOCTYPE svg PUBLIC "-//W3C//DTD SVG 1.1//EN" "http://www.w3.org/Graphics/SVG/1.1/DTD/svg11.dtd">
<svg version="1.1" id="Calque_1" xmlns="http://www.w3.org/2000/svg" xmlns:xlink="http://www.w3.org/1999/xlink" x="0px" y="0px"
	 viewBox="0 0 595.3 841.9" enable-background="new 0 0 595.3 841.9" xml:space="preserve">
<g id="Calque_2" display="none">
	
		<image display="inline" overflow="visible" enable-background="new    " width="1366" height="769" xlink:href="BE4886E4.jpg"  transform="matrix(0.9997 0 0 0.9997 -330.7753 25.5185)">
	</image>
</g>
<g id="Calque_1_1_" display="none">
	<rect x="127.4" y="294.5" display="inline" fill="#CF9783" width="33.1" height="36.8"/>
	<rect x="127.4" y="337.8" display="inline" fill="#C57A69" width="33.1" height="36.8"/>
	<rect x="127.4" y="247.7" display="inline" fill="#DBBBA7" width="33.1" height="36.8"/>
	<rect x="127.4" y="384.2" display="inline" fill="#B9574C" width="33.1" height="36.8"/>
	
		<linearGradient id="SVGID_1_" gradientUnits="userSpaceOnUse" x1="269.0347" y1="452.1864" x2="485.1347" y2="452.1864" gradientTransform="matrix(0 1 1 0 -75.1339 12.674)">
		<stop  offset="0" style="stop-color:#DCBEAB"/>
		<stop  offset="1" style="stop-color:#AB3333"/>
	</linearGradient>
	
		<rect x="310.4" y="281.7" display="inline" fill="url(#SVGID_1_)" stroke="#000000" stroke-miterlimit="10" width="133.3" height="216.1"/>
	<rect x="127.4" y="439" display="inline" fill="#AD3436" width="33.1" height="36.8"/>
</g>
<path fill="#AD3436" stroke="#6C6C6C" stroke-miterlimit="10" d="M0,0"/>
<path fill="#AD3436" stroke="#6C6C6C" stroke-miterlimit="10" d="M0,0"/>
<path fill="#AD3436" stroke="#6C6C6C" stroke-miterlimit="10" d="M0,0"/>
<path fill="#AD3436" stroke="#6C6C6C" stroke-miterlimit="10" d="M0,0"/>
<path fill="#AD3436" stroke="#6C6C6C" stroke-miterlimit="10" d="M0,0"/>
<path fill="#AD3436" stroke="#6C6C6C" stroke-miterlimit="10" d="M0,0"/>
<path fill="#AD3436" stroke="#6C6C6C" stroke-miterlimit="10" d="M0,0"/>
<path fill="#AD3436" stroke="#6C6C6C" stroke-miterlimit="10" d="M0,0"/>
<path fill="#AD3436" stroke="#6C6C6C" stroke-miterlimit="10" d="M0,0"/>
<path fill="#AD3436" stroke="#6C6C6C" stroke-miterlimit="10" d="M0,0"/>
<path fill="none" stroke="#6C6C6C" stroke-width="6" d="M375,653.3l-30.9-1.5l-30.6-4.6l-30-7.6L254.4,629l-28-13.4l-26.5-16.1
	l-24.8-18.7l-22.9-21.1l-20.8-23.3L113,511.1l-15.9-26.9l-13.2-28.4l-10.4-29.6l-7.5-30.5l-4.5-31.1l-1.5-31.4l1.5-31.4l4.5-31.1
	l7.5-30.5l10.4-29.6l13.2-28.4l15.9-26.9l18.4-25.2l20.8-23.3L175.1,86l24.8-18.7l26.5-16.1l28-13.4l29.1-10.6l30-7.6l30.6-4.6
	l30.9-1.5"/>
<path fill="none" stroke="#6C6C6C" stroke-width="6" d="M375,653.3l-29.5-1.5l-29.2-4.6l-28.6-7.6L259.9,629l-26.7-13.4l-25.3-16.1
	l-23.7-18.7l-21.9-21.1l-19.8-23.3L125,511.1l-15.2-26.9l-12.6-28.4l-9.9-29.6l-7.2-30.5l-4.3-31.1l-1.4-31.4l1.4-31.4l4.3-31.1
	l7.2-30.5l9.9-29.6l12.6-28.4l15.2-26.9l17.6-25.2l19.8-23.3L184.2,86l23.7-18.7l25.3-16.1l26.7-13.4l27.8-10.6l28.6-7.6l29.2-4.6
	l29.5-1.5"/>
<path fill="none" stroke="#6C6C6C" stroke-width="6" d="M375,653.3l-27.2-1.5l-26.9-4.6l-26.4-7.6L268.9,629l-24.6-13.4L221,599.4
	l-21.8-18.7L179,559.6l-18.3-23.3l-16.2-25.2l-14-26.9L119,455.8l-9.2-29.6l-6.6-30.5l-4-31.1l-1.3-31.4l1.3-31.4l4-31.1l6.6-30.5
	l9.2-29.6l11.6-28.4l14-26.9l16.2-25.2l18.3-23.3L199.2,86L221,67.3l23.3-16.1l24.6-13.4l25.6-10.6l26.4-7.6l26.9-4.6l27.2-1.5"/>
<path fill="none" stroke="#6C6C6C" stroke-width="6" d="M375,653.3l-24-1.5l-23.8-4.6l-23.3-7.6L281.2,629l-21.7-13.4l-20.6-16.1
	l-19.3-18.7l-17.8-21.1l-16.2-23.3l-14.3-25.2l-12.4-26.9l-10.3-28.4l-8.1-29.6l-5.8-30.5l-3.5-31.1l-1.2-31.4L131,302l3.5-31.1
	l5.8-30.5l8.1-29.6l10.3-28.4l12.4-26.9l14.3-25.2l16.2-23.3L219.5,86l19.3-18.7l20.6-16.1l21.7-13.4l22.6-10.6l23.3-7.6l23.8-4.6
	l24-1.5"/>
<path fill="none" stroke="#6C6C6C" stroke-width="6" d="M375,653.3l-20.2-1.5l-20-4.6l-19.6-7.6l-19-10.6L278,615.5l-17.3-16.1
	l-16.2-18.7l-15-21.1L216,536.3l-12-25.2l-10.4-26.9l-8.6-28.4l-6.8-29.6l-4.9-30.5l-3-31.1l-1-31.4l1-31.4l3-31.1l4.9-30.5
	l6.8-29.6l8.6-28.4l10.4-26.9l12-25.2l13.6-23.3l15-21.1l16.2-18.7L278,51.1l18.2-13.4l19-10.6l19.6-7.6l20-4.6l20.2-1.5"/>
<path fill="none" stroke="#6C6C6C" stroke-width="6" d="M375,653.3l-15.7-1.5l-15.5-4.6l-15.2-7.6L313.8,629l-14.2-13.4l-13.5-16.1
	l-12.6-18.7l-11.6-21.1l-10.5-23.3l-9.4-25.2l-8.1-26.9l-6.7-28.4l-5.3-29.6l-3.8-30.5l-2.3-31.1l-0.8-31.4l0.8-31.4l2.3-31.1
	l3.8-30.5l5.3-29.6l6.7-28.4l8.1-26.9l9.4-25.2l10.5-23.3L273.5,86l12.6-18.7l13.5-16.1l14.2-13.4l14.8-10.6l15.2-7.6l15.5-4.6
	l15.7-1.5"/>
<path fill="none" stroke="#6C6C6C" stroke-width="6" d="M375,653.3l-10.7-1.5l-10.6-4.6l-10.4-7.6L333.1,629l-9.7-13.4l-9.2-16.1
	l-8.6-18.7l-8-21.1L284,511.1l-10.1-55.3l-6.2-60l-2.1-62.4l2.1-62.4l6.2-60l10.1-55.3l13.6-48.5l8-21.1l8.6-18.7l9.2-16.1l9.7-13.4
	l10.1-10.6l10.4-7.6l10.6-4.6l10.7-1.5"/>
<path fill="none" stroke="#6C6C6C" stroke-width="6" d="M375,653.3l-5.4-1.5l-5.4-4.6l-5.3-7.6l-5.1-10.6l-9.6-29.6l-8.4-39.8
	l-6.9-48.5l-5.1-55.3l-3.2-60l-1.1-62.4l1.1-62.4l3.2-60l5.1-55.3l6.9-48.5l8.4-39.8l9.6-29.6l5.1-10.6l5.3-7.6l5.4-4.6l5.4-1.5"/>
<path fill="none" stroke="#6C6C6C" stroke-width="6" d="M375,653.3V629v-69.4V455.8V333.3V210.9V107.1V37.7V13.3"/>
<path fill="none" stroke="#6C6C6C" stroke-width="6" d="M375,653.3l5.4-1.5l5.4-4.6l5.3-7.6l5.1-10.6l9.6-29.6l8.4-39.8l6.9-48.5
	l5.1-55.3l3.2-60l1.1-62.4l-1.1-62.4l-3.2-60l-5.1-55.3l-6.9-48.5l-8.4-39.8l-9.6-29.6l-5.1-10.6l-5.3-7.6l-5.4-4.6l-5.4-1.5"/>
<path fill="none" stroke="#6C6C6C" stroke-width="6" d="M375,653.3l10.7-1.5l10.6-4.6l10.4-7.6l10.1-10.6l9.7-13.4l9.2-16.1
	l8.6-18.7l8-21.1l13.6-48.5l10.1-55.3l6.2-60l2.1-62.4l-2.1-62.4l-6.2-60L466,155.6l-13.6-48.5l-8-21.1l-8.6-18.7l-9.2-16.1
	l-9.7-13.4l-10.1-10.6l-10.4-7.6l-10.6-4.6L375,13.3"/>
<path fill="none" stroke="#6C6C6C" stroke-width="6" d="M375,653.3l15.7-1.5l15.5-4.6l15.2-7.6l14.8-10.6l14.2-13.4l13.5-16.1
	l12.6-18.7l11.6-21.1l10.5-23.3l9.4-25.2l8.1-26.9l6.7-28.4l5.3-29.6l3.8-30.5l2.3-31.1l0.8-31.4l-0.8-31.4l-2.3-31.1l-3.8-30.5
	l-5.3-29.6l-6.7-28.4l-8.1-26.9l-9.4-25.2l-10.5-23.3L476.5,86l-12.6-18.7l-13.5-16.1l-14.2-13.4l-14.8-10.6l-15.2-7.6l-15.5-4.6
	L375,13.3"/>
<path fill="none" stroke="#6C6C6C" stroke-width="6" d="M375,653.3l20.2-1.5l20-4.6l19.6-7.6l19-10.6l18.2-13.4l17.3-16.1l16.2-18.7
	l15-21.1l13.6-23.3l12-25.2l10.4-26.9l8.6-28.4l6.8-29.6l4.9-30.5l3-31.1l1-31.4l-1-31.4l-3-31.1l-4.9-30.5l-6.8-29.6l-8.6-28.4
	L546,155.6l-12-25.2l-13.6-23.3l-15-21.1l-16.2-18.7l-17.3-16.1l-18.2-13.4l-19-10.6l-19.6-7.6l-20-4.6L375,13.3"/>
<path fill="none" stroke="#6C6C6C" stroke-width="6" d="M375,653.3l24-1.5l23.8-4.6l23.3-7.6l22.6-10.6l21.7-13.4l20.6-16.1
	l19.3-18.7l17.8-21.1l16.2-23.3l14.3-25.2l12.4-26.9l10.3-28.4l8.1-29.6l5.8-30.5l3.5-31.1l1.2-31.4l-1.2-31.4l-3.5-31.1l-5.8-30.5
	l-8.1-29.6l-10.3-28.4l-12.4-26.9l-14.3-25.2l-16.2-23.3L530.5,86l-19.3-18.7l-20.6-16.1l-21.7-13.4l-22.6-10.6l-23.3-7.6L399,14.9
	l-24-1.5"/>
<path fill="none" stroke="#6C6C6C" stroke-width="6" d="M375,653.3l27.2-1.5l26.9-4.6l26.4-7.6L481,629l24.6-13.4l23.3-16.1
	l21.8-18.7l20.2-21.1l18.3-23.3l16.2-25.2l14-26.9l11.6-28.4l9.2-29.6l6.6-30.5l4-31.1l1.3-31.4l-1.3-31.4l-4-31.1l-6.6-30.5
	l-9.2-29.6l-11.6-28.4l-14-26.9l-16.2-25.2l-18.3-23.3L550.8,86l-21.8-18.7l-23.3-16.1L481,37.7l-25.6-10.6l-26.4-7.6l-26.9-4.6
	L375,13.3"/>
<path fill="none" stroke="#6C6C6C" stroke-width="6" d="M375,653.3l29.5-1.5l29.2-4.6l28.6-7.6l27.8-10.6l26.7-13.4l25.3-16.1
	l23.7-18.7l21.9-21.1l19.8-23.3l17.6-25.2l15.2-26.9l12.6-28.4l9.9-29.6l7.2-30.5l4.3-31.1l1.4-31.4l-1.4-31.4l-4.3-31.1l-7.2-30.5
	l-9.9-29.6l-12.6-28.4L625,155.6l-17.6-25.2l-19.8-23.3L565.7,86L542,67.3l-25.3-16.1l-26.7-13.4l-27.8-10.6l-28.6-7.6l-29.2-4.6
	L375,13.3"/>
<path fill="none" stroke="#6C6C6C" stroke-width="6" d="M375,653.3l30.9-1.5l30.6-4.6l30-7.6l29.1-10.6l28-13.4l26.5-16.1l24.8-18.7
	l22.9-21.1l20.8-23.3l18.4-25.2l15.9-26.9l13.2-28.4l10.4-29.6l7.5-30.5l4.5-31.1l1.5-31.4l-1.5-31.4l-4.5-31.1l-7.5-30.5
	l-10.4-29.6l-13.2-28.4L637,155.6l-18.4-25.2l-20.8-23.3L574.9,86l-24.8-18.7l-26.5-16.1l-28-13.4l-29.1-10.6l-30-7.6l-30.6-4.6
	L375,13.3"/>
<path fill="none" stroke="#6C6C6C" stroke-width="6" d="M0,0"/>
<path fill="none" stroke="#6C6C6C" stroke-width="6" d="M0,0"/>
<path fill="none" stroke="#6C6C6C" stroke-width="6" d="M0,0"/>
<path fill="none" stroke="#6C6C6C" stroke-width="6" d="M0,0"/>
<path fill="none" stroke="#6C6C6C" stroke-width="6" d="M0,0"/>
<path fill="none" stroke="#6C6C6C" stroke-width="6" d="M0,0"/>
<path fill="none" stroke="#6C6C6C" stroke-width="6" d="M0,0"/>
<path fill="none" stroke="#6C6C6C" stroke-width="6" d="M0,0"/>
<path fill="none" stroke="#6C6C6C" stroke-width="6" d="M0,0"/>
<path id="total" fill="none" stroke="#6C6C6C" stroke-width="6" d="M55,333.3h0.3h0.9h1.5h2.1h2.7h3.3h3.9h4.5h5.1H85h6.2h6.7h7.2
	h7.8h8.3h8.7h9.2h9.7h10.1h10.5h10.9h11.3h11.6H215h12.2h12.5h12.8h13h13.2h13.4h13.6h13.7h13.8h13.9H361h14h14h13.9h13.9h13.8h13.7
	h13.6h13.4h13.2h13h12.8h12.5H535h11.9h11.6h11.3h10.9h10.5h10.1h9.7h9.2h8.7h8.3h7.8h7.2h6.7h6.2h5.6h5.1h4.5h3.9h3.3h2.7h2.1h1.5
	h0.9l0.3,0"/>
</svg>
