<?xml version="1.0" encoding="utf-8"?>
<!-- Generator: Adobe Illustrator 16.0.0, SVG Export Plug-In . SVG Version: 6.00 Build 0)  -->
<!DOCTYPE svg PUBLIC "-//W3C//DTD SVG 1.1//EN" "http://www.w3.org/Graphics/SVG/1.1/DTD/svg11.dtd">
<svg version="1.1" id="Calque_1" xmlns="http://www.w3.org/2000/svg" xmlns:xlink="http://www.w3.org/1999/xlink" x="0px" y="0px"
	 width="765.654px" height="520.029px" viewBox="0 0 765.654 520.029" enable-background="new 0 0 765.654 520.029"
	 xml:space="preserve">
<rect x="0.502" y="0.937" fill="#FFFFFF" stroke="#000000" stroke-miterlimit="10" width="765.151" height="519.092"/>
<g id="secteurs" centrex="383.078" centrey="260.482">
	<path id="sect7" fill="#DDDDDD" d="M360.764,287.747l-36.583,36.583c9.35,8.629,20.596,15.234,33.045,19.11l13.396-49.996
		C367.018,292.081,363.693,290.147,360.764,287.747z"/>
	<path id="sect2" fill="#DDDDDD" d="M416.039,248.027l49.996-13.396c-3.876-12.45-10.48-23.695-19.109-33.045l-36.582,36.583
		C412.743,241.098,414.676,244.422,416.039,248.027z"/>
	<path id="sect8" fill="#DDDDDD" d="M350.117,272.938l-49.995,13.396c3.875,12.45,10.481,23.696,19.11,33.045l36.582-36.583
		C353.414,279.868,351.48,276.543,350.117,272.938z"/>
	<path id="sect10" fill="#DDDDDD" d="M355.814,238.168l-36.583-36.583c-8.629,9.35-15.234,20.595-19.11,33.046l49.996,13.396
		C351.48,244.422,353.414,241.097,355.814,238.168z"/>
	<path id="sect9" fill="#DDDDDD" d="M347.845,260.482c0-1.939,0.162-3.839,0.464-5.692l-49.991-13.395
		c-1.377,6.143-2.109,12.529-2.109,19.087c0,6.559,0.731,12.945,2.109,19.088l49.991-13.396
		C348.007,264.322,347.845,262.421,347.845,260.482z"/>
	<path id="sect11" fill="#DDDDDD" d="M370.624,227.521l-13.396-49.996c-12.45,3.875-23.696,10.481-33.046,19.11l36.583,36.583
		C363.693,230.818,367.018,228.884,370.624,227.521z"/>
	<path id="sect0" fill="#DDDDDD" d="M383.078,225.249c1.939,0,3.84,0.163,5.693,0.464l13.396-49.99
		c-6.144-1.378-12.53-2.109-19.089-2.109s-12.944,0.731-19.087,2.109l13.396,49.991C379.24,225.412,381.139,225.249,383.078,225.249
		z"/>
	<path id="sect3" fill="#DDDDDD" d="M418.312,260.482c0,1.939-0.164,3.839-0.465,5.693l49.99,13.395
		c1.378-6.143,2.109-12.53,2.109-19.088s-0.731-12.945-2.109-19.087l-49.99,13.395C418.148,256.644,418.312,258.543,418.312,260.482
		z"/>
	<path id="sect5" fill="#BBBBBB" d="M395.535,293.443l13.396,49.996c12.45-3.876,23.695-10.481,33.045-19.11l-36.583-36.583
		C402.463,290.147,399.139,292.08,395.535,293.443z"/>
	<path id="sect6" fill="#DDDDDD" d="M383.078,295.716c-1.938,0-3.838-0.163-5.691-0.464l-13.396,49.991
		c6.143,1.377,12.528,2.109,19.087,2.109s12.945-0.731,19.089-2.109l-13.396-49.99C386.917,295.553,385.017,295.716,383.078,295.716
		z"/>
	<path id="sect1" fill="#DDDDDD" d="M405.392,233.218l36.583-36.583c-9.35-8.629-20.595-15.234-33.045-19.11l-13.396,49.996
		C399.139,228.885,402.463,230.818,405.392,233.218z"/>
	<path id="sect4" fill="#CDCCCC" d="M410.342,282.796l36.583,36.583c8.629-9.35,15.233-20.595,19.109-33.045l-49.996-13.396
		C414.675,276.543,412.743,279.868,410.342,282.796z"/>
</g>
<circle id="centre" fill="#FFFFFF" cx="383.078" cy="260.482" r="117.677"/>
</svg>
