<?xml version="1.0" encoding="utf-8" standalone="no"?>
<!-- Creator: ESRI ArcMap 10.0.0.2414 -->
<!DOCTYPE svg PUBLIC "-//W3C//DTD SVG 1.1//EN"  "http://www.w3.org/Graphics/SVG/1.1/DTD/svg11.dtd">
<svg width="355.936584242pt" height="741.1872776pt" viewBox="119.782887879 45.48194658 355.936584242 741.1872776" enable-background="new 119.782887879 45.48194658 355.936584242 741.1872776"
	version="1.1" xmlns="http://www.w3.org/2000/svg" xmlns:xlink="http://www.w3.org/1999/xlink" >
	<g id="Couches">
		<g id="cont_2">
			<path clip-path="url(#SVG_CP_2)" fill="none" stroke="#999999" stroke-width="0.96012" stroke-miterlimit="10" stroke-linecap="round" stroke-linejoin="round" d="
				M251.07186,369.87942L250.83183,369.87942L251.07186,369.87942L251.07186,369.87942"/>
			<path clip-path="url(#SVG_CP_2)" fill="none" stroke="#999999" stroke-width="0.96012" stroke-miterlimit="10" stroke-linecap="round" stroke-linejoin="round" d="
				M247.95147,392.68185L247.95147,392.20179L248.1915,392.20179L248.1915,392.44182L247.95147,392.44182L247.95147,392.68185"/>
			<path clip-path="url(#SVG_CP_2)" fill="none" stroke="#999999" stroke-width="0.96012" stroke-miterlimit="10" stroke-linecap="round" stroke-linejoin="round" d="
				M286.35634,427.9656L286.35634,427.72558L286.59637,427.72558L286.59637,427.9656L286.35634,427.9656"/>
			<path clip-path="url(#SVG_CP_2)" fill="none" stroke="#999999" stroke-width="0.96012" stroke-miterlimit="10" stroke-linecap="round" stroke-linejoin="round" d="
				M286.35634,428.20563L286.35634,427.9656L286.35634,428.20563L286.35634,428.20563"/>
			<path clip-path="url(#SVG_CP_2)" fill="none" stroke="#999999" stroke-width="0.96012" stroke-miterlimit="10" stroke-linecap="round" stroke-linejoin="round" d="
				M286.11631,428.20563L286.35634,428.20563L286.11631,428.20563"/>
			<path clip-path="url(#SVG_CP_2)" fill="none" stroke="#999999" stroke-width="0.96012" stroke-miterlimit="10" stroke-linecap="round" stroke-linejoin="round" d="
				M285.87628,428.44566L285.87628,428.20563L286.11631,428.20563L286.11631,428.44566L285.87628,428.44566"/>
			<path clip-path="url(#SVG_CP_2)" fill="none" stroke="#999999" stroke-width="0.96012" stroke-miterlimit="10" stroke-linecap="round" stroke-linejoin="round" d="
				M285.87628,428.44566L285.87628,428.44566"/>
			<path clip-path="url(#SVG_CP_2)" fill="none" stroke="#999999" stroke-width="0.96012" stroke-miterlimit="10" stroke-linecap="round" stroke-linejoin="round" d="
				M285.63625,428.68568L285.63625,428.44566L285.87628,428.44566L285.87628,428.68568L285.63625,428.68568"/>
			<path clip-path="url(#SVG_CP_2)" fill="none" stroke="#999999" stroke-width="0.96012" stroke-miterlimit="10" stroke-linecap="round" stroke-linejoin="round" d="
				M285.63625,428.92571L285.63625,428.68568L285.63625,428.92571L285.63625,428.92571"/>
			<path clip-path="url(#SVG_CP_2)" fill="none" stroke="#999999" stroke-width="0.96012" stroke-miterlimit="10" stroke-linecap="round" stroke-linejoin="round" d="
				M285.39622,428.92571L285.63625,428.92571L285.39622,428.92571"/>
			<path clip-path="url(#SVG_CP_2)" fill="none" stroke="#999999" stroke-width="0.96012" stroke-miterlimit="10" stroke-linecap="round" stroke-linejoin="round" d="
				M285.39622,429.16573L285.39622,428.92571L285.39622,429.16573L285.39622,429.16573"/>
			<path clip-path="url(#SVG_CP_2)" fill="none" stroke="#999999" stroke-width="0.96012" stroke-miterlimit="10" stroke-linecap="round" stroke-linejoin="round" d="
				M285.15619,429.16573L285.39622,429.16573L285.15619,429.16573"/>
			<path clip-path="url(#SVG_CP_2)" fill="none" stroke="#999999" stroke-width="0.96012" stroke-miterlimit="10" stroke-linecap="round" stroke-linejoin="round" d="
				M284.91616,429.40576L284.91616,429.16573L285.15619,429.16573L285.15619,429.40576L284.91616,429.40576"/>
			<path clip-path="url(#SVG_CP_2)" fill="none" stroke="#999999" stroke-width="0.96012" stroke-miterlimit="10" stroke-linecap="round" stroke-linejoin="round" d="
				M284.91616,429.40576L284.91616,429.40576"/>
			<path clip-path="url(#SVG_CP_2)" fill="none" stroke="#999999" stroke-width="0.96012" stroke-miterlimit="10" stroke-linecap="round" stroke-linejoin="round" d="
				M284.67613,429.64578L284.67613,429.40576L284.91616,429.40576L284.91616,429.64578L284.67613,429.64578"/>
			<path clip-path="url(#SVG_CP_2)" fill="none" stroke="#999999" stroke-width="0.96012" stroke-miterlimit="10" stroke-linecap="round" stroke-linejoin="round" d="
				M284.67613,429.88581L284.67613,429.64578L284.67613,429.88581L284.67613,429.88581"/>
			<path clip-path="url(#SVG_CP_2)" fill="none" stroke="#999999" stroke-width="0.96012" stroke-miterlimit="10" stroke-linecap="round" stroke-linejoin="round" d="
				M284.4361,429.88581L284.67613,429.88581L284.4361,429.88581"/>
			<path clip-path="url(#SVG_CP_2)" fill="none" stroke="#999999" stroke-width="0.96012" stroke-miterlimit="10" stroke-linecap="round" stroke-linejoin="round" d="
				M284.19607,430.12584L284.19607,429.88581L284.4361,429.88581L284.4361,430.12584L284.19607,430.12584"/>
			<path clip-path="url(#SVG_CP_2)" fill="none" stroke="#999999" stroke-width="0.96012" stroke-miterlimit="10" stroke-linecap="round" stroke-linejoin="round" d="
				M284.19607,430.12584L284.19607,430.12584"/>
			<path clip-path="url(#SVG_CP_2)" fill="none" stroke="#999999" stroke-width="0.96012" stroke-miterlimit="10" stroke-linecap="round" stroke-linejoin="round" d="
				M283.95604,430.36586L283.95604,430.12584L284.19607,430.12584L284.19607,430.36586L283.95604,430.36586"/>
			<path clip-path="url(#SVG_CP_2)" fill="none" stroke="#999999" stroke-width="0.96012" stroke-miterlimit="10" stroke-linecap="round" stroke-linejoin="round" d="
				M283.95604,430.60589L283.95604,430.36586L283.95604,430.60589L283.95604,430.60589"/>
			<path clip-path="url(#SVG_CP_2)" fill="none" stroke="#999999" stroke-width="0.96012" stroke-miterlimit="10" stroke-linecap="round" stroke-linejoin="round" d="
				M283.716,430.60589L283.95604,430.60589L283.716,430.60589"/>
			<path clip-path="url(#SVG_CP_2)" fill="none" stroke="#999999" stroke-width="0.96012" stroke-miterlimit="10" stroke-linecap="round" stroke-linejoin="round" d="
				M248.91159,390.76164L248.67156,390.76164L248.67156,391.00167L248.67156,391.24169L248.43153,391.24169L248.1915,391.24169L
				248.1915,391.48172L247.95147,391.48172L247.95147,391.72174L247.95147,392.20179L247.71144,392.20179L247.71144,392.68185L247.71144,392.92187
				L247.47141,392.92187L247.47141,393.1619L247.23137,393.1619L247.23137,393.40192L246.99134,393.40192L246.99134,393.64195L246.75131,393.64195
				L246.75131,393.88197L246.51128,393.88197L246.51128,394.122L246.27125,394.122L246.27125,395.0821L246.03122,395.0821L246.03122,395.32213
				L246.03122,395.56215L245.79119,395.56215L245.55116,395.56215L245.55116,395.80218L245.31113,395.80218L245.31113,396.0422L
				245.31113,396.28223L245.0711,396.28223L244.83107,396.28223L244.83107,396.52225L244.59104,396.52225L244.59104,396.76228L244.35101,396.76228
				L244.35101,397.00231L244.35101,397.24233L244.11098,397.24233L243.87095,397.24233L243.87095,397.48236L243.63092,397.48236
				L243.63092,397.72238L243.63092,397.96241L243.39089,397.96241L243.15086,397.96241L243.15086,398.20243L242.91083,398.20243
				L242.91083,398.68248L242.91083,399.16254L242.6708,399.16254L242.6708,399.64259L242.6708,400.36266L242.43077,400.36266L242.43077,401.32277
				L242.19074,401.32277L242.19074,402.28287L242.19074,412.12392L241.9507,412.12392L241.9507,412.36394L241.71067,412.36394L241.47064,412.36394
				L241.47064,412.60397L241.23061,412.60397L241.23061,412.84399L241.23061,413.08402L240.99058,413.08402L240.99058,413.32404
				L240.75055,413.32404L240.51052,413.32404L240.51052,413.56407L240.51052,413.8041L240.27049,413.8041L240.27049,414.04412L240.03046,414.04412
				L239.79043,414.04412L239.79043,414.28415L239.5504,414.28415L239.5504,414.52417L239.5504,414.7642L239.31037,414.7642L239.31037,415.00422
				L239.07034,415.00422L238.83031,415.00422L238.83031,415.24425L238.83031,415.48427L238.59028,415.48427L238.59028,415.7243L
				238.35025,415.7243L238.11022,415.7243L238.11022,415.96433L237.87019,415.96433L237.87019,416.20435L237.87019,416.44438L237.63016,416.44438
				L237.63016,416.6844L237.39013,416.6844L237.1501,416.6844L237.1501,416.92443L237.1501,417.16445L236.91007,417.16445L236.91007,417.40448
				L236.67003,417.40448L236.43,417.40448L236.43,417.64451L236.18997,417.64451L236.18997,417.88453L236.18997,418.12456L235.94994,418.12456
				L235.94994,418.36458L235.70991,418.36458L235.46988,418.36458L235.46988,418.60461L235.46988,418.84463L235.22985,418.84463
				L235.22985,419.08466L234.98982,419.08466L234.74979,419.08466L234.74979,419.32468L234.50976,419.32468L234.50976,419.56471
				L234.50976,419.80474L234.26973,419.80474L234.26973,420.04476L234.0297,420.04476L233.78967,420.04476L233.78967,420.28479L
				233.78967,420.52481L233.54964,420.52481L233.54964,420.76484L233.30961,420.76484L233.06958,420.76484L233.06958,421.00486L
				232.82955,421.00486L232.82955,421.24489L232.82955,421.48491L232.58952,421.48491L232.58952,421.72494L232.34949,421.72494L
				232.10946,421.72494L232.10946,421.96497L232.10946,422.20499L231.86943,422.20499L231.86943,422.44502L231.62939,422.44502L
				231.38936,422.44502L231.38936,422.68504L231.14933,422.68504L231.14933,422.92507L231.14933,423.16509L230.9093,423.16509L230.9093,423.40512
				L230.66927,423.40512L230.42924,423.40512L230.42924,423.64514L230.42924,423.88517L230.18921,423.88517L230.18921,424.1252L
				229.94918,424.1252L229.70915,424.1252L229.70915,424.36522L229.46912,424.36522L229.46912,424.60525L229.46912,424.84527L229.22909,424.84527
				L229.22909,425.0853L228.98906,425.0853L228.74903,425.0853L228.74903,425.32532L228.74903,425.56535L228.509,425.56535L228.509,425.80537
				L228.26897,425.80537L228.02894,425.80537L228.02894,426.0454L228.02894,426.28543L227.78891,426.28543L227.78891,426.52545L
				227.78891,426.76548L227.54888,426.76548L227.54888,427.24553L227.30885,427.24553L227.30885,427.48555L227.06882,427.48555L
				227.06882,427.72558L226.82879,427.72558L226.82879,428.20563L226.82879,428.44566L226.58876,428.44566L226.34872,428.44566L
				226.34872,428.92571L226.34872,429.16573L226.10869,429.16573L226.10869,429.40576L225.86866,429.40576L225.86866,429.88581L
				225.62863,429.88581L225.62863,430.12584L225.3886,430.12584L225.3886,430.60589L225.14857,430.60589L225.14857,430.84591L225.14857,431.08594
				L224.90854,431.08594L224.90854,431.32596L224.66851,431.32596L224.66851,431.56599L224.66851,431.80601L224.42848,431.80601
				L224.42848,432.04604L224.42848,432.28607L224.18845,432.28607L224.18845,432.52609L224.18845,432.76612L223.94842,432.76612
				L223.94842,433.00614L223.70839,433.00614L223.70839,433.24617L223.70839,433.48619L223.46836,433.48619L223.46836,433.72622
				L223.46836,433.96624L223.22833,433.96624L223.22833,434.20627L222.9883,434.20627L222.9883,434.4463L222.9883,434.68632L222.74827,434.68632
				L222.74827,434.92635L222.74827,435.16637L222.50824,435.16637L222.50824,435.4064L222.26821,435.4064L222.26821,435.64642L222.26821,435.88645
				L222.02818,435.88645L222.02818,436.12647L221.78815,436.12647L221.78815,436.60653L221.78815,436.84655L221.54812,436.84655
				L221.54812,437.08658L221.30809,437.08658L221.30809,437.3266L221.30809,437.56663L221.06805,437.56663L221.06805,437.80665L
				220.82802,437.80665L220.82802,438.2867L220.58799,438.2867L220.58799,438.52673L220.34796,438.52673L220.34796,439.00678L220.10793,439.00678
				L220.10793,439.24681L220.10793,439.48683L219.8679,439.48683L219.8679,439.72686L219.62787,439.72686L219.62787,439.96688L219.62787,440.20691
				L219.38784,440.20691L219.38784,440.44693L219.38784,440.68696L219.14781,440.68696L219.14781,440.92699L218.90778,440.92699
				L218.90778,441.16701L218.90778,441.40704L218.66775,441.40704L218.66775,441.64706L218.42772,441.64706L218.42772,441.88709
				L217.94766,441.88709L217.94766,441.64706L217.70763,441.64706L217.70763,441.40704L217.70763,441.64706L217.22757,441.64706
				L216.98754,441.64706L216.98754,441.88709L216.74751,441.88709L216.50748,441.88709L216.50748,442.12711L216.02742,442.12711
				L216.02742,442.36714L215.78738,442.36714L215.54735,442.36714L215.54735,442.60717L215.30732,442.60717L215.06729,442.60717
				L215.06729,442.84719L214.58723,442.84719L214.58723,443.08722L214.3472,443.08722L214.10717,443.08722L214.10717,443.32724L
				213.86714,443.32724L213.62711,443.32724L213.62711,443.56727L213.38708,443.56727L212.90702,443.56727L212.90702,443.80729L
				212.66699,443.80729L212.66699,444.04732L212.18693,444.04732L212.18693,444.28734L211.9469,444.28734L211.70687,444.28734L211.70687,444.52737
				L211.46684,444.52737L211.46684,444.7674L210.98678,444.7674L210.98678,444.52737L210.98678,444.28734L210.74674,444.28734L210.74674,444.04732
				L210.50671,444.04732L210.50671,443.80729L210.50671,443.56727L210.74674,443.56727L210.74674,443.32724L210.98678,443.32724
				L210.98678,443.08722L211.22681,443.08722L211.46684,443.08722L211.46684,442.84719L211.70687,442.84719L211.70687,442.60717
				L211.9469,442.60717L211.9469,442.36714L212.18693,442.36714L212.42696,442.36714L212.42696,442.12711L212.66699,442.12711L212.66699,441.88709
				L212.90702,441.88709L212.90702,441.64706L212.66699,441.64706L212.66699,441.40704L212.42696,441.40704L212.18693,441.40704
				L212.18693,441.16701L212.18693,440.92699L211.9469,440.92699L211.9469,440.68696L211.70687,440.68696L211.70687,440.44693L211.46684,440.44693
				L211.46684,440.20691L211.22681,440.20691L210.98678,440.20691L210.98678,439.96688L210.74674,439.96688L210.74674,439.72686
				L210.50671,439.72686L210.50671,439.48683L210.26668,439.48683L210.26668,439.24681L210.02665,439.24681L210.02665,439.00678
				L209.78662,439.00678L209.54659,439.00678L209.54659,439.24681L209.30656,439.24681L209.06653,439.24681L209.06653,439.00678
				L208.8265,439.00678L208.8265,439.24681L208.58647,439.24681L208.58647,439.48683L208.58647,439.72686L208.34644,439.72686L208.34644,439.96688
				L208.10641,439.96688L208.10641,439.72686L207.86638,439.72686L207.86638,439.48683L207.62635,439.48683L207.14629,439.48683
				L207.14629,439.24681L206.90626,439.24681L206.90626,439.00678L206.66623,439.00678L206.18617,439.00678L206.18617,438.76676
				L205.94614,438.76676L205.94614,438.52673L205.70611,438.52673L205.46607,438.52673L205.46607,438.2867L205.22604,438.2867L204.98601,438.2867
				L204.98601,438.04668L204.74598,438.04668L204.74598,437.80665L204.50595,437.80665L204.26592,437.80665L204.26592,437.56663
				L203.78586,437.56663L203.78586,437.3266L203.54583,437.3266L203.3058,437.3266L203.3058,437.08658L203.06577,437.08658L203.06577,436.84655
				L202.82574,436.84655L202.82574,436.60653L202.34568,436.60653L202.34568,436.84655L202.10565,436.84655L202.10565,437.08658
				L201.86562,437.08658L201.86562,437.3266L201.62559,437.3266L201.62559,437.56663L201.38556,437.56663L201.14553,437.56663L201.14553,437.80665
				L200.9055,437.80665L200.9055,438.04668L200.42544,438.04668L200.42544,438.2867L200.1854,438.2867L200.1854,438.52673L199.94537,438.52673
				L199.94537,438.76676L199.70534,438.76676L199.70534,439.00678L199.46531,439.00678L199.22528,439.00678L199.22528,439.24681
				L198.98525,439.24681L198.98525,439.48683L198.74522,439.48683L198.50519,439.48683L198.50519,439.24681L198.74522,439.24681
				L198.74522,439.00678L198.74522,438.52673L198.98525,438.52673L198.98525,438.04668L199.22528,438.04668L199.22528,437.56663
				L199.22528,437.3266L199.46531,437.3266L199.46531,436.84655L199.46531,436.60653L199.70534,436.60653L199.70534,436.3665L199.94537,436.3665
				L199.94537,436.12647L199.94537,435.64642L200.1854,435.64642L200.1854,435.4064L200.1854,435.16637L200.42544,435.16637L200.42544,434.92635
				L200.42544,434.4463L200.66547,434.4463L200.9055,434.4463L200.9055,434.20627L200.9055,433.96624L201.14553,433.96624L201.14553,433.48619
				L201.38556,433.48619L201.38556,433.24617L201.62559,433.24617L201.62559,432.76612L201.62559,432.52609L201.86562,432.52609
				L201.86562,432.28607L201.62559,432.28607L201.86562,432.28607L201.86562,431.80601L201.86562,431.56599L202.10565,431.56599
				L202.10565,431.32596L202.34568,431.32596L202.34568,431.08594L202.58571,431.08594L202.82574,431.08594L202.82574,430.84591
				L203.06577,430.84591L203.06577,431.08594L203.54583,431.08594L203.78586,431.08594L203.78586,431.32596L204.26592,431.32596
				L204.26592,431.56599L204.50595,431.56599L204.98601,431.56599L204.98601,431.80601L205.22604,431.80601L205.22604,431.56599
				L205.46607,431.56599L205.70611,431.56599L205.70611,431.32596L205.94614,431.32596L205.94614,431.08594L206.18617,431.08594
				L206.18617,430.84591L206.66623,430.84591L207.14629,430.84591L207.14629,430.60589L207.62635,430.60589L207.86638,430.60589
				L207.86638,430.36586L208.10641,430.36586L208.10641,430.12584L208.58647,430.12584L208.8265,430.12584L208.8265,429.88581L209.06653,429.88581
				L209.06653,429.64578L209.30656,429.64578L209.30656,429.40576L209.30656,429.16573L209.54659,429.16573L209.54659,428.92571
				L209.78662,428.92571L210.02665,428.92571L210.02665,428.44566L210.26668,428.44566L210.26668,428.20563L210.50671,428.20563
				L210.50671,427.9656L210.74674,427.9656L210.74674,427.72558L210.98678,427.72558L210.98678,427.48555L211.22681,427.48555L211.22681,427.24553
				L210.98678,427.24553L210.98678,425.32532L210.98678,424.60525L210.74674,424.60525L210.74674,424.1252L210.50671,424.1252L210.50671,423.16509
				L210.50671,422.20499L210.26668,422.20499L210.26668,421.72494L210.26668,421.24489L210.02665,421.24489L210.02665,421.00486
				L210.02665,420.28479L209.78662,420.28479L209.78662,419.80474L209.54659,419.80474L209.54659,419.08466L209.54659,418.60461
				L209.30656,418.60461L209.30656,417.64451L209.30656,417.16445L209.06653,417.16445L209.06653,416.6844L208.8265,416.6844L208.8265,416.44438
				L208.8265,415.96433L208.58647,415.96433L208.58647,415.00422L208.58647,411.88389L208.58647,409.96369L208.58647,409.72366L
				208.34644,409.72366L208.34644,409.48364L208.34644,409.24361L208.10641,409.24361L208.10641,409.00358L207.86638,409.00358L
				207.86638,408.76356L207.62635,408.76356L207.62635,408.28351L207.38632,408.28351L207.38632,408.04348L207.14629,408.04348L
				207.14629,407.80346L207.14629,407.56343L206.90626,407.56343L206.90626,407.32341L206.66623,407.32341L206.66623,407.08338L
				206.4262,407.08338L206.18617,407.08338L206.18617,406.84335L205.94614,406.84335L205.94614,406.60333L205.94614,406.3633L205.70611,406.3633
				L205.70611,406.12328L205.46607,406.12328L205.46607,403.24297L205.70611,403.24297L205.70611,403.00294L205.94614,403.00294
				L205.94614,402.76292L205.94614,402.52289L206.18617,402.52289L206.18617,402.28287L206.18617,402.04284L206.4262,402.04284L
				206.4262,401.80282L206.66623,401.80282L206.66623,401.56279L206.66623,401.32277L206.90626,401.32277L206.90626,400.84271L206.90626,400.36266
				L207.14629,400.36266L207.14629,399.64259L207.14629,399.16254L207.14629,398.44246L206.90626,398.44246L206.90626,396.28223
				L207.14629,396.28223L207.14629,395.80218L207.14629,395.56215L207.38632,395.56215L207.38632,395.32213L207.62635,395.32213
				L207.62635,395.0821L207.86638,395.0821L208.34644,395.0821L208.34644,394.84208L208.58647,394.84208L208.58647,394.60205L208.8265,394.60205
				L208.8265,394.36202L209.06653,394.36202L209.06653,394.122L209.30656,394.122L209.54659,394.122L209.54659,393.88197L209.78662,393.88197
				L210.02665,393.88197L210.02665,393.64195L210.26668,393.64195L210.26668,393.40192L210.50671,393.40192L210.50671,393.1619L
				210.98678,393.1619L211.22681,393.1619L211.22681,392.92187L211.46684,392.92187L211.46684,392.44182L211.70687,392.44182L211.70687,392.20179
				L211.9469,392.20179L211.9469,391.96177L212.18693,391.96177L212.18693,391.72174L212.42696,391.72174L212.42696,391.48172L212.66699,391.48172
				L212.66699,391.24169L212.90702,391.24169L212.90702,391.00167L213.14705,391.00167L213.14705,390.76164L213.38708,390.76164
				L213.38708,390.52161L213.62711,390.52161L213.62711,390.28159L214.10717,390.28159L214.10717,390.04156L214.58723,390.04156
				L215.06729,390.04156L215.06729,389.80154L215.30732,389.80154L215.30732,389.56151L215.54735,389.56151L215.54735,389.32149
				L215.78738,389.32149L215.78738,389.08146L216.02742,389.08146L216.02742,388.84144L216.26745,388.84144L216.26745,388.60141
				L216.50748,388.60141L216.50748,388.36138L216.74751,388.36138L216.74751,388.12136L216.98754,388.12136L216.98754,387.88133
				L217.22757,387.88133L217.22757,387.64131L217.4676,387.64131L217.4676,387.40128L217.70763,387.40128L217.70763,387.16126L217.94766,387.16126
				L217.94766,386.68121L218.18769,386.68121L218.18769,386.20115L218.42772,386.20115L218.42772,385.96113L218.42772,385.7211L
				218.66775,385.7211L218.66775,385.48108L218.66775,385.00103L218.90778,385.00103L218.90778,384.761L218.90778,384.52098L219.14781,384.52098
				L219.14781,384.28095L219.38784,384.28095L219.38784,384.04092L219.38784,383.8009L219.62787,383.8009L219.62787,383.32085L219.62787,383.08082
				L219.8679,383.08082L219.8679,382.8408L220.10793,382.8408L220.10793,382.60077L220.10793,382.36075L220.34796,382.36075L220.34796,382.12072
				L220.34796,381.64067L220.58799,381.64067L220.58799,381.40064L220.58799,381.16062L220.82802,381.16062L220.82802,380.92059
				L221.06805,380.92059L221.06805,380.68057L221.06805,380.44054L221.30809,380.44054L221.30809,379.96049L221.30809,379.72046
				L221.54812,379.72046L221.54812,379.24041L221.30809,379.24041L221.30809,379.00039L221.30809,378.76036L221.06805,378.76036
				L221.06805,378.28031L221.06805,378.04028L220.82802,378.04028L220.82802,377.56023L220.58799,377.56023L220.58799,377.08018
				L220.34796,377.08018L220.34796,376.60013L220.34796,376.12008L220.10793,376.12008L220.10793,375.64003L220.10793,375.15998
				L219.8679,375.15998L219.8679,374.91995L219.62787,374.91995L219.62787,374.67993L219.62787,374.4399L219.38784,374.4399L219.38784,374.19988
				L219.14781,374.19988L219.14781,373.95985L218.90778,373.95985L218.90778,373.71982L218.66775,373.71982L218.66775,373.23977
				L218.42772,373.23977L218.42772,372.99975L218.18769,372.99975L217.94766,372.99975L217.94766,372.75972L217.70763,372.75972
				L217.70763,372.5197L217.70763,372.27967L217.4676,372.27967L217.22757,372.27967L217.22757,372.03965L216.98754,372.03965L216.98754,371.79962
				L216.98754,371.55959L216.74751,371.55959L216.74751,371.31957L216.50748,371.31957L216.26745,371.31957L216.26745,371.07954
				L216.26745,370.83952L216.02742,370.83952L216.02742,370.59949L215.78738,370.59949L215.78738,370.35947L215.54735,370.35947
				L215.54735,370.11944L215.30732,370.11944L215.30732,369.87942L215.30732,369.63939L215.06729,369.63939L215.06729,369.39936
				L214.82726,369.39936L214.58723,369.39936L214.58723,369.15934L214.58723,368.91931L214.3472,368.91931L214.3472,368.67929L214.10717,368.67929
				L214.10717,368.43926L213.86714,368.43926L213.86714,368.19924L213.62711,368.19924L213.62711,367.95921L213.38708,367.95921
				L213.38708,367.71918L213.38708,367.47916L213.14705,367.47916L213.14705,367.23913L212.90702,367.23913L212.90702,366.99911
				L212.66699,366.99911L212.66699,366.75908L212.66699,366.51906L212.42696,366.51906L212.18693,366.51906L212.18693,366.27903
				L212.18693,366.03901L211.9469,366.03901L211.9469,365.79898L211.9469,365.55895L211.70687,365.55895L211.70687,365.31893L211.46684,365.31893
				L211.46684,364.83888L211.22681,364.83888L211.22681,364.59885L210.98678,364.59885L210.98678,364.35883L210.74674,364.35883
				L210.74674,363.87878L210.50671,363.87878L210.50671,363.63875L210.26668,363.63875L210.26668,363.39872L210.02665,363.39872
				L210.02665,363.1587L210.02665,362.91867L209.78662,362.91867L209.78662,362.67865L209.54659,362.67865L209.54659,362.43862L
				209.54659,362.1986L209.30656,362.1986L209.30656,361.95857L209.30656,361.71855L209.06653,361.71855L209.06653,361.47852L208.8265,361.47852
				L208.8265,361.23849L208.8265,360.51842L208.58647,360.51842L208.58647,359.79834L208.58647,359.55832L208.34644,359.55832L208.34644,357.63811
				L208.58647,357.63811L208.58647,357.15806L208.58647,356.91803L208.8265,356.91803L208.8265,356.67801L208.8265,356.43798L209.06653,356.43798
				L209.06653,356.19796L209.30656,356.19796L209.30656,355.95793L209.30656,355.71791L209.54659,355.71791L209.54659,355.47788
				L209.54659,355.23785L209.78662,355.23785L210.02665,355.23785L210.02665,355.47788L210.02665,355.71791L210.26668,355.71791
				L210.26668,355.95793L210.50671,355.95793L210.50671,355.71791L210.98678,355.71791L210.98678,355.95793L210.74674,355.95793
				L210.74674,356.19796L210.50671,356.19796L210.50671,356.43798L210.74674,356.43798L210.74674,356.91803L210.98678,356.91803
				L210.98678,357.15806L210.98678,357.39809L211.22681,357.39809L211.22681,357.87814L211.22681,358.11816L211.46684,358.11816
				L211.70687,358.11816L211.70687,358.35819L211.70687,358.59821L211.9469,358.59821L211.9469,358.83824L212.18693,358.83824L212.18693,359.31829
				L212.42696,359.31829L212.42696,359.55832L212.66699,359.55832L212.66699,359.79834L212.90702,359.79834L212.90702,360.27839
				L213.14705,360.27839L213.14705,362.1986L213.38708,362.1986L213.38708,362.43862L213.38708,362.67865L213.62711,362.67865L213.62711,362.91867
				L213.62711,363.1587L213.86714,363.1587L213.86714,363.39872L213.86714,363.63875L214.10717,363.63875L214.3472,363.63875L214.3472,363.87878
				L214.3472,364.1188L214.58723,364.1188L214.58723,364.35883L214.82726,364.35883L214.82726,364.59885L215.06729,364.59885L215.06729,364.83888
				L215.30732,364.83888L215.30732,365.0789L215.54735,365.0789L215.54735,365.31893L215.78738,365.31893L215.78738,365.55895L216.02742,365.55895
				L216.02742,365.79898L216.26745,365.79898L216.26745,366.03901L216.50748,366.03901L216.50748,366.27903L216.74751,366.27903
				L216.74751,366.51906L216.98754,366.51906L216.98754,366.75908L216.98754,366.99911L217.22757,366.99911L217.22757,367.23913
				L217.4676,367.23913L217.4676,367.47916L217.70763,367.47916L217.70763,367.71918L217.94766,367.71918L217.94766,367.95921L218.18769,367.95921
				L218.18769,368.19924L218.42772,368.19924L218.42772,368.43926L218.66775,368.43926L218.66775,368.67929L218.66775,368.91931
				L218.90778,368.91931L218.90778,369.15934L219.14781,369.15934L219.14781,369.39936L219.38784,369.39936L219.38784,368.91931
				L219.62787,368.91931L219.38784,368.91931L219.38784,368.67929L219.38784,367.95921L219.62787,367.95921L219.62787,367.71918
				L219.8679,367.71918L219.8679,367.47916L220.10793,367.47916L220.10793,367.23913L220.34796,367.23913L220.34796,366.99911L220.58799,366.99911
				L220.58799,366.75908L220.58799,366.51906L220.82802,366.51906L221.06805,366.51906L221.06805,366.27903L221.30809,366.27903
				L221.30809,365.79898L221.30809,365.55895L221.54812,365.55895L221.78815,365.55895L221.78815,365.31893L222.02818,365.31893
				L222.02818,365.0789L222.02818,364.83888L222.26821,364.83888L222.26821,364.59885L222.50824,364.59885L222.74827,364.59885L
				222.74827,364.35883L222.9883,364.35883L222.9883,364.1188L222.9883,363.87878L223.22833,363.87878L223.46836,363.87878L223.46836,363.63875
				L223.70839,363.63875L223.70839,363.39872L223.70839,363.1587L223.94842,363.1587L224.18845,363.1587L224.18845,362.91867L224.42848,362.91867
				L224.42848,362.67865L224.66851,362.67865L224.66851,362.43862L224.66851,362.1986L224.90854,362.1986L225.14857,362.1986L225.14857,361.71855
				L225.3886,361.71855L225.3886,361.95857"/>
			<path clip-path="url(#SVG_CP_2)" fill="none" stroke="#999999" stroke-width="0.96012" stroke-miterlimit="10" stroke-linecap="round" stroke-linejoin="round" d="
				M225.3886,361.95857L225.3886,362.1986L225.62863,362.1986L225.86866,362.1986L225.86866,362.43862L225.86866,362.67865L226.10869,362.67865
				L226.10869,362.91867L226.34872,362.91867L226.58876,362.91867L226.58876,363.1587L226.82879,363.1587L226.82879,363.39872L227.06882,363.39872
				L227.06882,363.63875L227.30885,363.63875L227.54888,363.63875L227.54888,363.87878L227.78891,363.87878L227.78891,364.1188L
				228.02894,364.1188L228.02894,364.35883L228.509,364.35883L228.509,364.59885L228.74903,364.59885L228.74903,364.83888L229.22909,364.83888
				L229.22909,365.0789L229.22909,365.31893L229.46912,365.31893L229.70915,365.31893L229.70915,365.55895L229.94918,365.55895L
				229.94918,365.79898L230.18921,365.79898L230.18921,366.03901L230.42924,366.03901L230.42924,366.27903L230.66927,366.27903L
				230.9093,366.27903L230.9093,366.51906L231.14933,366.51906L231.14933,366.75908L231.38936,366.75908L231.38936,366.99911L231.62939,366.99911
				L231.86943,366.99911L231.86943,367.23913L232.10946,367.23913L232.10946,367.47916L232.34949,367.47916L232.34949,367.71918
				L232.58952,367.71918L232.82955,367.71918L232.82955,367.95921L233.06958,367.95921L233.06958,368.19924L233.30961,368.19924
				L233.54964,368.19924L233.54964,368.43926L233.78967,368.43926L233.78967,368.67929L234.26973,368.67929L234.26973,368.91931
				L234.50976,368.91931L234.50976,369.15934L234.74979,369.15934L234.74979,369.39936L234.98982,369.39936L235.22985,369.39936
				L235.22985,369.63939L235.46988,369.63939L235.70991,369.63939L235.70991,369.87942L235.94994,369.87942L236.18997,369.87942
				L236.18997,370.11944L236.43,370.11944L236.43,370.35947L237.1501,370.35947L237.63016,370.35947L237.63016,370.59949L238.35025,370.59949
				L238.59028,370.59949L244.59104,370.59949L244.59104,370.35947L247.95147,370.35947L248.91159,370.35947L248.91159,370.11944
				L249.87171,370.11944L249.87171,369.87942L250.5918,369.87942L250.5918,370.11944L250.35177,370.11944L250.35177,370.35947L250.11174,370.35947
				L249.87171,370.35947L249.87171,370.59949L249.63168,370.59949L249.39165,370.59949L249.39165,370.83952L249.15162,370.83952
				L249.15162,371.07954L248.91159,371.07954L248.67156,371.07954L248.67156,371.31957L248.43153,371.31957L248.1915,371.31957L
				248.1915,371.55959L247.95147,371.55959L247.71144,371.55959L247.71144,371.79962L247.23137,371.79962L247.23137,372.03965L246.99134,372.03965
				L246.99134,372.27967L246.51128,372.27967L246.27125,372.27967L246.27125,372.5197L246.03122,372.5197L246.03122,372.75972L245.79119,372.75972
				L245.55116,372.75972L245.55116,372.99975L245.31113,372.99975L244.83107,372.99975L244.83107,373.23977L244.59104,373.23977
				L244.35101,373.23977L244.35101,373.4798L243.87095,373.4798L243.87095,373.71982L243.63092,373.71982L243.15086,373.71982L243.15086,373.95985
				L242.91083,373.95985L242.6708,373.95985L242.6708,374.19988L242.19074,374.19988L242.19074,374.4399L241.9507,374.4399L241.47064,374.4399
				L241.47064,374.67993L241.23061,374.67993L240.99058,374.67993L240.99058,374.91995L240.75055,374.91995L240.27049,374.91995
				L240.27049,375.15998L240.03046,375.15998L240.03046,375.4L239.79043,375.4L239.79043,375.64003L239.5504,375.64003L239.5504,375.88005
				L239.79043,375.88005L239.79043,376.12008L239.79043,376.36011L240.03046,376.36011L240.03046,376.60013L240.27049,376.60013
				L240.27049,377.08018L240.27049,377.32021L240.51052,377.32021L240.51052,377.80026L240.51052,378.04028L240.75055,378.04028
				L240.75055,378.28031L240.99058,378.28031L240.99058,378.52034L240.99058,378.76036L241.23061,378.76036L241.23061,379.24041
				L241.23061,379.48044L241.47064,379.48044L241.47064,379.72046L241.47064,379.96049L241.71067,379.96049L241.71067,380.44054
				L241.9507,380.44054L241.9507,380.68057L241.9507,380.92059L242.19074,380.92059L242.19074,381.40064L242.19074,381.64067L242.43077,381.64067
				L242.43077,381.88069L242.6708,381.88069L242.6708,382.12072L242.43077,382.12072L242.43077,382.8408L242.19074,382.8408L242.19074,383.08082
				L242.19074,383.32085L241.9507,383.32085L241.9507,383.56087L241.71067,383.56087L241.71067,383.8009L241.47064,383.8009L241.23061,383.8009
				L241.23061,384.04092L240.99058,384.04092L240.99058,384.28095L240.99058,384.52098L240.51052,384.52098L240.51052,384.761L240.27049,384.761
				L240.27049,385.00103L240.03046,385.00103L239.79043,385.00103L239.79043,385.24105L239.5504,385.24105L239.5504,385.48108L239.79043,385.48108
				L240.27049,385.48108L240.27049,385.7211L240.51052,385.7211L240.51052,385.96113L240.99058,385.96113L240.99058,386.20115L241.23061,386.20115
				L241.47064,386.20115L241.47064,386.44118L241.9507,386.44118L241.9507,386.68121L242.19074,386.68121L242.19074,386.92123L242.6708,386.92123
				L242.6708,387.16126L242.91083,387.16126L243.15086,387.16126L243.15086,387.40128L243.63092,387.40128L243.63092,387.64131L
				243.87095,387.64131L243.87095,387.88133L244.11098,387.88133L244.35101,387.88133L244.35101,388.12136L244.59104,388.12136L
				244.83107,388.12136L244.83107,388.36138L245.31113,388.36138L245.31113,388.60141L245.55116,388.60141L245.55116,388.84144L
				245.79119,388.84144L246.03122,388.84144L246.03122,389.08146L246.27125,389.08146L246.51128,389.08146L246.51128,389.32149L
				246.75131,389.32149L246.75131,389.56151L246.99134,389.56151L247.23137,389.56151L247.23137,389.80154L247.47141,389.80154L
				247.71144,389.80154L247.71144,390.04156L247.95147,390.04156L248.1915,390.04156L248.1915,390.28159L248.43153,390.28159L248.43153,390.52161
				L248.67156,390.52161L248.91159,390.52161L248.91159,390.76164"/>
			<path clip-path="url(#SVG_CP_2)" fill="none" stroke="#999999" stroke-width="0.96012" stroke-miterlimit="10" stroke-linecap="round" stroke-linejoin="round" d="
				M208.8265,407.56343L209.06653,407.56343L209.06653,407.32341L209.30656,407.32341L209.30656,407.08338L209.54659,407.08338L
				209.54659,406.84335L209.78662,406.84335L209.78662,406.60333L210.02665,406.60333L210.02665,406.3633L210.26668,406.3633L210.50671,406.3633
				L210.50671,406.12328L210.50671,405.88325L210.74674,405.88325L210.98678,405.88325L210.98678,405.64323L210.98678,405.4032L
				211.22681,405.4032L211.22681,404.92315L211.46684,404.92315L211.70687,404.92315L211.70687,404.68312L211.70687,404.4431L211.9469,404.4431
				L211.9469,404.20307L211.9469,403.96305L212.18693,403.96305L212.18693,403.72302L212.42696,403.72302L212.42696,403.483L212.66699,403.483
				L212.66699,402.76292L212.66699,402.04284L212.90702,402.04284L212.90702,401.32277L212.90702,400.60269L213.14705,400.60269
				L213.14705,400.12264L213.38708,400.12264L213.38708,398.68248L213.14705,398.68248L213.14705,398.20243L213.38708,398.20243
				L213.38708,397.96241L213.14705,397.96241L213.14705,396.28223L212.90702,396.28223L212.90702,395.56215L213.14705,395.56215
				L213.14705,395.0821L213.38708,395.0821L213.38708,394.84208L213.38708,394.60205L213.62711,394.60205L213.62711,394.122L213.86714,394.122
				L213.86714,393.88197L213.86714,393.40192L214.10717,393.40192L214.10717,393.1619L214.3472,393.1619L214.3472,392.92187L214.58723,392.92187
				L214.58723,392.68185L214.58723,392.44182L214.82726,392.44182L214.82726,391.72174L214.58723,391.72174L214.58723,391.96177
				L214.3472,391.96177L214.3472,392.20179L214.10717,392.20179L214.10717,392.44182L213.86714,392.44182L213.86714,392.68185L213.86714,392.92187
				L213.62711,392.92187L213.62711,393.1619L213.38708,393.1619L213.38708,393.40192L213.14705,393.40192L212.90702,393.40192L212.90702,393.64195
				L212.90702,393.88197L212.66699,393.88197L212.66699,394.122L212.18693,394.122L211.9469,394.122L211.9469,394.36202L211.70687,394.36202
				L211.70687,394.60205L211.46684,394.60205L211.22681,394.60205L211.22681,394.84208L210.98678,394.84208L210.98678,395.0821L
				210.50671,395.0821L210.50671,395.32213L210.26668,395.32213L210.26668,395.56215L210.02665,395.56215L210.02665,395.80218L209.54659,395.80218
				L209.54659,396.0422L209.30656,396.0422L209.30656,396.28223L209.06653,396.28223L208.8265,396.28223L208.8265,396.52225L208.8265,396.76228
				L208.58647,396.76228L208.58647,397.00231L208.58647,397.24233L208.34644,397.24233L208.34644,397.48236L208.10641,397.48236
				L208.10641,398.92251L208.34644,398.92251L208.34644,400.84271L208.10641,400.84271L207.86638,400.84271L207.86638,401.56279
				L207.86638,402.28287L207.62635,402.28287L207.62635,402.52289L207.62635,403.00294L207.38632,403.00294L207.14629,403.00294
				L207.14629,403.24297L206.90626,403.24297L206.90626,403.483L206.66623,403.483L206.66623,403.72302L206.4262,403.72302L206.4262,403.96305
				L206.18617,403.96305L206.18617,404.92315L206.4262,404.92315L206.4262,405.4032L206.66623,405.4032L206.66623,405.88325L206.66623,406.12328
				L206.90626,406.12328L206.90626,406.3633L207.14629,406.3633L207.14629,406.60333L207.14629,406.84335L207.38632,406.84335L207.38632,407.08338
				L207.62635,407.08338L207.86638,407.08338L207.86638,407.32341L208.34644,407.32341L208.58647,407.32341L208.58647,407.56343
				L208.8265,407.56343"/>
			<path clip-path="url(#SVG_CP_2)" fill="none" stroke="#999999" stroke-width="0.96012" stroke-miterlimit="10" stroke-linecap="round" stroke-linejoin="round" d="
				M228.02894,426.28543L228.02894,426.0454L228.26897,426.0454L228.509,426.0454L228.509,425.80537L228.74903,425.80537L228.74903,425.56535
				L228.98906,425.56535L228.98906,425.32532L229.22909,425.32532L229.22909,425.0853L229.46912,425.0853L229.46912,424.84527L229.70915,424.84527
				L229.70915,424.60525L229.70915,424.36522L229.94918,424.36522L229.94918,424.1252L230.18921,424.1252L230.18921,423.88517L230.42924,423.88517
				L230.42924,423.64514L230.66927,423.64514L230.66927,423.40512L230.9093,423.40512L230.9093,423.16509L231.14933,423.16509L231.14933,422.92507
				L231.38936,422.92507L231.38936,422.68504L231.62939,422.68504L231.62939,422.44502L231.86943,422.44502L231.86943,422.20499
				L232.10946,422.20499L232.10946,421.96497L232.34949,421.96497L232.34949,421.72494L232.58952,421.72494L232.58952,421.48491
				L232.82955,421.48491L232.82955,421.24489L233.06958,421.24489L233.06958,421.00486L233.30961,421.00486L233.30961,420.76484
				L233.54964,420.76484L233.54964,420.52481L233.78967,420.52481L233.78967,420.28479L234.0297,420.28479L234.0297,420.04476L234.26973,420.04476
				L234.26973,419.80474L234.50976,419.80474L234.50976,419.56471L234.74979,419.56471L234.74979,419.32468L234.98982,419.32468
				L234.98982,419.08466L235.22985,419.08466L235.22985,418.84463L235.46988,418.84463L235.46988,418.60461L235.70991,418.60461
				L235.70991,418.36458L235.94994,418.36458L235.94994,418.12456L236.18997,418.12456L236.18997,417.88453L236.43,417.88453L236.43,417.64451
				L236.67003,417.64451L236.67003,417.40448L236.91007,417.40448L236.91007,417.16445L237.1501,417.16445L237.1501,416.92443L237.39013,416.92443
				L237.39013,416.6844L237.63016,416.6844L237.63016,416.44438L237.87019,416.44438L237.87019,416.20435L238.11022,416.20435L238.11022,415.96433
				L238.35025,415.96433L238.35025,415.7243L238.59028,415.7243L238.59028,415.48427L238.83031,415.48427L238.83031,415.24425L239.07034,415.24425
				L239.07034,415.00422L239.31037,415.00422L239.31037,414.7642L239.5504,414.7642L239.5504,414.52417L239.79043,414.52417L239.79043,414.28415
				L240.03046,414.28415L240.03046,414.04412L240.27049,414.04412L240.27049,413.8041L240.51052,413.8041L240.51052,413.56407L240.75055,413.56407
				L240.75055,413.32404L240.99058,413.32404L240.99058,413.08402L241.23061,413.08402L241.23061,412.84399L241.47064,412.84399
				L241.47064,412.60397L241.71067,412.60397L241.71067,412.36394L241.9507,412.36394L241.9507,412.12392L242.19074,412.12392L242.19074,411.88389
				L242.43077,411.88389L242.43077,411.64387L242.6708,411.64387L242.6708,411.40384L242.91083,411.40384L242.91083,411.16381L243.15086,411.16381
				L243.15086,410.92379L243.39089,410.92379L243.39089,410.68376L243.63092,410.68376L243.63092,408.52353L243.63092,408.28351
				L243.87095,408.28351L243.87095,408.04348L243.87095,407.56343L244.11098,407.56343L244.11098,407.32341L244.35101,407.32341
				L244.35101,407.08338L244.59104,407.08338L244.59104,406.84335L244.83107,406.84335L244.83107,399.88261L245.0711,399.88261L
				245.0711,399.64259L245.31113,399.64259L245.31113,399.40256L245.55116,399.40256L245.55116,399.16254L245.79119,399.16254L245.79119,398.92251
				L246.03122,398.92251L246.03122,398.68248L246.27125,398.68248L246.27125,398.44246L246.51128,398.44246L246.51128,394.122L246.75131,394.122
				L246.75131,393.88197L246.99134,393.88197L246.99134,393.64195L247.23137,393.64195L247.23137,393.40192L247.47141,393.40192
				L247.47141,393.1619L247.71144,393.1619L247.71144,392.92187L247.95147,392.92187L247.95147,392.68185L248.1915,392.68185L248.1915,392.44182
				L248.43153,392.44182L248.43153,392.20179L248.67156,392.20179L248.67156,391.96177L248.91159,391.96177L248.91159,391.72174
				L248.91159,390.76164L249.15162,390.76164L249.39165,390.76164L249.39165,391.00167L249.63168,391.00167L249.63168,391.24169
				L249.87171,391.24169L250.35177,391.24169L250.35177,391.48172L250.5918,391.48172L250.5918,391.72174L251.07186,391.72174L251.31189,391.72174
				L251.31189,391.96177L251.55192,391.96177L251.55192,392.20179L251.79195,392.20179L252.03198,392.20179L252.03198,392.44182
				L252.27201,392.44182L252.51205,392.44182L252.51205,392.68185L252.75208,392.68185L252.75208,392.92187L252.99211,392.92187
				L253.23214,392.92187L253.23214,393.1619L253.47217,393.1619L253.7122,393.1619L253.7122,393.40192L253.95223,393.40192L254.43229,393.40192
				L254.43229,393.64195L254.67232,393.64195L254.67232,393.88197L254.91235,393.88197L254.91235,394.122L255.39241,394.122L255.63244,394.122
				L255.63244,394.36202L255.87247,394.36202L255.87247,394.60205L256.1125,394.60205L256.35253,394.60205L256.35253,394.84208L
				256.59256,394.84208L256.83259,394.84208L256.83259,395.0821L257.07262,395.0821L257.31265,395.0821L257.31265,395.32213L257.55268,395.32213
				L257.55268,395.56215L257.79272,395.56215L258.03275,395.56215L258.03275,395.80218L258.27278,395.80218L258.75284,395.80218
				L258.75284,396.0422L258.99287,396.0422L258.99287,396.28223L259.47293,396.28223L259.47293,396.52225L259.71296,396.52225L259.95299,396.52225
				L259.95299,396.76228L260.19302,396.76228L260.43305,396.76228L260.43305,397.00231L260.67308,397.00231L260.67308,397.24233
				L260.91311,397.24233L261.15314,397.24233L261.15314,397.48236L261.39317,397.48236L261.39317,397.72238L261.6332,397.72238L
				261.6332,397.96241L262.11326,397.96241L262.11326,398.20243L262.35329,398.20243L262.59332,398.20243L262.59332,398.44246L262.83335,398.44246
				L263.07339,398.44246L263.07339,398.68248L263.31342,398.68248L263.31342,398.92251L263.55345,398.92251L263.79348,398.92251
				L263.79348,399.16254L264.03351,399.16254L264.03351,399.40256L264.51357,399.40256L264.51357,399.64259L264.7536,399.64259L
				264.7536,399.88261L265.23366,399.88261L265.23366,400.12264L265.47369,400.12264L265.47369,400.36266L265.71372,400.36266L265.95375,400.36266
				L265.95375,400.60269L266.19378,400.60269L266.43381,400.60269L266.43381,400.84271L266.91387,400.84271L266.91387,401.08274
				L266.91387,401.32277L267.1539,401.32277L267.39393,401.32277L267.39393,401.56279L267.63396,401.56279L267.87399,401.56279L
				267.87399,401.80282L268.11402,401.80282L268.11402,402.04284L268.59409,402.04284L268.59409,402.28287L268.83412,402.28287L
				268.83412,402.52289L269.07415,402.52289L269.31418,402.52289L269.31418,402.76292L269.55421,402.76292L269.55421,403.00294L
				269.79424,403.00294L269.79424,403.24297L270.03427,403.24297L270.2743,403.24297L270.2743,403.483L270.51433,403.483L270.51433,403.72302
				L270.75436,403.72302L270.75436,403.96305L270.99439,403.96305L271.23442,403.96305L271.23442,404.20307L271.47445,404.20307
				L271.47445,404.4431L271.71448,404.4431L271.71448,404.68312L271.95451,404.68312L271.95451,404.92315L272.19454,404.92315L272.43457,404.92315
				L272.43457,405.16318L272.43457,405.4032L272.91463,405.4032L272.91463,405.64323L273.15466,405.64323L273.15466,405.88325L273.63473,405.88325
				L273.63473,406.12328L273.87476,406.12328L273.87476,406.3633L274.11479,406.3633L274.11479,406.60333L274.35482,406.60333L274.35482,406.84335
				L274.59485,406.84335L274.59485,407.08338L274.83488,407.08338L274.83488,407.32341L275.31494,407.32341L275.31494,407.56343
				L275.55497,407.56343L275.55497,407.80346L275.55497,408.04348L275.795,408.04348L275.795,408.28351L276.03503,408.28351L276.27506,408.28351
				L276.27506,408.52353L276.27506,408.76356L276.51509,408.76356L276.51509,409.00358L276.75512,409.00358L276.99515,409.00358
				L276.99515,409.24361L277.23518,409.24361L277.23518,409.48364L277.23518,409.72366L277.47521,409.72366L277.47521,409.96369
				L277.71524,409.96369L277.71524,410.20371L277.95527,410.20371L277.95527,410.44374L278.1953,410.44374L278.1953,410.68376L278.43533,410.68376
				L278.43533,410.92379L278.67537,410.92379L278.67537,411.16381L278.67537,411.40384L278.9154,411.40384L278.9154,411.64387L279.15543,411.64387
				L279.15543,411.88389L279.39546,411.88389L279.39546,412.12392L279.63549,412.12392L279.63549,412.36394L279.87552,412.36394
				L279.87552,412.60397L280.11555,412.60397L280.11555,412.84399L280.35558,412.84399L280.35558,413.08402L280.59561,413.08402
				L280.59561,413.32404L280.83564,413.32404L280.83564,413.56407L280.83564,413.8041L281.07567,413.8041L281.07567,414.04412L281.3157,414.04412
				L281.3157,414.28415L281.55573,414.28415L281.55573,414.52417L281.79576,414.52417L281.79576,414.7642L282.03579,414.7642L282.03579,415.00422
				L282.27582,415.00422L282.27582,415.24425L282.27582,415.48427L282.51585,415.48427L282.51585,415.7243L282.75588,415.7243L282.99591,415.7243
				L282.99591,415.96433L282.99591,415.7243L283.23594,415.7243L283.716,415.7243L283.716,415.48427L283.95604,415.48427L284.19607,415.48427
				L284.19607,415.24425L284.4361,415.24425L284.4361,415.00422L284.67613,415.00422L284.91616,415.00422L284.91616,414.7642L285.15619,414.7642
				L285.39622,414.7642L285.39622,414.52417L285.63625,414.52417L285.63625,414.28415L285.87628,414.28415L286.11631,414.28415L
				286.11631,414.04412L286.35634,414.04412L286.59637,414.04412L286.59637,413.8041L287.07643,413.8041L287.31646,413.8041L287.31646,413.56407
				L287.31646,413.32404L287.55649,413.32404L288.03655,413.32404L288.03655,413.08402L288.27658,413.08402L288.51661,413.08402
				L288.51661,412.84399L288.75664,412.84399L288.75664,412.60397L288.99668,412.60397L289.23671,412.60397L289.23671,412.36394
				L289.47674,412.36394L289.71677,412.36394L289.71677,412.12392L289.9568,412.12392L290.43686,412.12392L290.43686,411.88389L
				290.43686,411.64387L290.67689,411.64387L290.91692,411.64387L290.91692,411.40384L291.39698,411.40384L291.63701,411.40384L
				291.63701,411.16381L291.87704,411.16381L291.87704,410.92379L292.11707,410.92379L292.3571,410.92379L292.3571,410.68376L292.59713,410.68376
				L292.83716,410.68376L292.83716,410.44374L293.07719,410.44374L293.31722,410.44374L293.31722,410.20371L293.55725,410.20371
				L293.55725,409.96369L293.79728,409.96369L294.03731,409.96369L294.03731,409.72366L294.27735,409.72366L294.75741,409.72366
				L294.75741,409.48364L294.75741,409.24361L294.99744,409.24361L295.4775,409.24361L295.4775,409.00358L295.71753,409.00358L295.95756,409.00358
				L295.95756,408.76356L296.19759,408.76356L296.43762,408.76356L296.43762,408.52353L296.67765,408.52353L296.67765,408.28351
				L296.91768,408.28351L297.15771,408.28351L297.15771,408.04348L297.39774,408.04348L297.63777,408.04348L297.63777,407.80346
				L297.8778,407.80346L297.8778,407.56343L298.11783,407.56343L298.35786,407.56343L298.35786,407.32341L298.83792,407.32341L299.07795,407.32341
				L299.07795,407.08338L299.31798,407.08338L299.31798,406.84335L299.79805,406.84335L299.79805,406.60333L300.03808,406.60333
				L300.27811,406.60333L300.27811,406.3633L300.51814,406.3633L300.75817,406.3633L300.75817,406.12328L300.9982,406.12328L300.9982,405.88325
				L300.9982,406.3633L300.75817,406.3633L300.75817,406.60333L300.75817,407.08338L300.51814,407.08338L300.51814,407.32341L300.27811,407.32341
				L300.27811,407.56343L300.03808,407.56343L300.03808,408.04348L299.79805,408.04348L299.79805,408.28351L299.55802,408.28351
				L299.55802,408.76356L299.31798,408.76356L299.31798,409.24361L299.31798,409.48364L299.07795,409.48364L299.07795,409.72366
				L299.07795,409.96369L298.83792,409.96369L298.83792,410.20371L298.59789,410.20371L298.59789,410.44374L298.35786,410.44374
				L298.35786,410.68376L298.11783,410.68376L298.11783,410.92379L298.11783,411.16381L297.8778,411.16381L297.8778,411.40384L297.63777,411.40384
				L297.63777,411.64387L297.39774,411.64387L297.39774,411.88389L297.39774,412.12392L297.15771,412.12392L297.15771,412.36394
				L296.91768,412.36394L296.91768,412.60397L296.67765,412.60397L296.67765,412.84399L296.43762,412.84399L296.43762,413.08402
				L296.43762,413.32404L296.19759,413.32404L295.95756,413.32404L295.95756,413.8041L295.71753,413.8041L295.71753,414.04412L295.4775,414.04412
				L295.4775,414.28415L295.23747,414.28415L295.23747,414.7642L294.99744,414.7642L294.99744,415.00422L294.75741,415.00422L294.75741,415.24425
				L294.51738,415.24425L294.51738,415.48427L294.27735,415.48427L294.27735,415.7243L294.03731,415.7243L294.03731,415.96433L294.03731,416.20435
				L293.79728,416.20435L293.79728,416.44438L293.79728,416.6844L293.55725,416.6844L293.31722,416.6844L293.31722,417.16445L293.31722,417.40448
				L293.07719,417.40448L293.07719,417.64451L292.83716,417.64451L292.83716,417.88453L292.59713,417.88453L292.59713,418.12456
				L292.59713,418.36458L292.3571,418.36458L292.3571,418.84463L292.11707,418.84463L292.11707,419.08466L291.87704,419.08466L291.87704,419.32468
				L291.63701,419.32468L291.63701,419.56471L291.63701,419.80474L291.39698,419.80474L291.39698,420.04476L291.15695,420.04476
				L291.15695,421.72494L291.39698,421.72494L291.39698,422.44502L291.39698,423.16509L291.63701,423.16509L291.63701,423.88517
				L291.63701,424.36522L291.87704,424.36522L291.87704,424.60525L291.63701,424.60525L291.63701,425.56535L291.63701,425.80537
				L291.63701,426.0454L291.39698,426.0454L291.39698,426.28543L290.91692,426.28543L290.91692,426.52545L290.67689,426.52545L290.43686,426.52545
				L290.43686,426.76548L289.9568,426.76548L289.47674,426.76548L289.47674,427.0055L289.23671,427.0055L289.23671,427.24553L288.75664,427.24553
				L288.51661,427.24553L288.51661,427.48555L288.03655,427.48555L287.55649,427.48555L287.55649,427.72558L287.07643,427.72558
				L286.59637,427.72558L286.35634,427.72558L286.11631,427.72558L286.11631,427.9656L285.87628,427.9656L285.87628,428.20563L285.63625,428.20563
				L285.63625,428.44566L285.39622,428.44566L285.39622,428.68568L285.39622,428.92571L285.15619,428.92571L284.91616,428.92571
				L284.91616,429.16573L284.67613,429.16573L284.67613,429.40576L284.4361,429.40576L284.4361,429.64578L284.19607,429.64578L284.19607,429.88581
				L283.95604,429.88581L283.95604,430.12584L283.716,430.12584L283.716,430.36586L283.716,430.60589L283.716,430.84591L283.47597,430.84591
				L283.47597,431.08594L283.23594,431.08594L283.23594,431.32596L282.99591,431.32596L282.99591,431.56599L282.75588,431.56599
				L282.75588,431.80601L282.51585,431.80601L282.51585,432.04604L282.27582,432.04604L282.27582,432.28607L282.03579,432.28607
				L282.03579,432.52609L281.79576,432.52609L281.79576,432.76612L281.55573,432.76612L281.55573,433.00614L281.3157,433.00614L
				281.3157,433.24617L281.07567,433.24617L281.07567,433.48619L280.83564,433.48619L280.83564,433.72622L280.59561,433.72622L280.59561,433.96624
				L280.35558,433.96624L280.35558,434.20627L280.11555,434.20627L280.11555,434.4463L279.87552,434.4463L279.87552,434.68632L279.63549,434.68632
				L279.63549,434.92635L279.39546,434.92635L279.39546,435.16637L279.15543,435.16637L279.15543,435.4064L278.9154,435.4064L278.9154,435.64642
				L278.9154,435.88645L278.67537,435.88645L278.67537,436.12647L278.67537,436.60653L278.43533,436.60653L278.43533,436.84655L
				278.1953,436.84655L278.1953,437.3266L278.1953,437.80665L277.95527,437.80665L277.95527,438.04668L277.95527,438.52673L277.71524,438.52673
				L277.71524,438.76676L277.47521,438.76676L277.47521,439.24681L277.23518,439.24681L277.23518,439.48683L276.99515,439.48683
				L276.99515,439.72686L276.99515,439.96688L276.75512,439.96688L276.75512,440.20691L276.51509,440.20691L276.51509,440.68696
				L276.27506,440.68696L276.27506,440.92699L276.03503,440.92699L275.795,440.92699L275.795,441.40704L275.55497,441.40704L275.55497,441.64706
				L275.55497,441.88709L275.31494,441.88709L275.31494,442.12711L275.07491,442.12711L275.07491,442.36714L274.83488,442.36714
				L274.83488,442.60717L274.59485,442.60717L274.59485,442.84719L274.59485,443.08722L274.35482,443.08722L274.11479,443.08722
				L274.11479,443.32724L274.11479,443.56727L273.87476,443.56727L273.87476,443.80729L273.63473,443.80729L273.63473,444.04732
				L273.3947,444.04732L273.3947,444.28734L273.15466,444.28734L273.15466,444.52737L273.15466,444.7674L272.91463,444.7674L272.91463,445.00742
				L272.6746,445.00742L272.6746,445.24745L272.43457,445.24745L272.43457,445.48747L272.19454,445.48747L272.19454,445.7275L271.95451,445.7275
				L271.95451,445.96752L271.71448,445.96752L271.71448,446.20755L271.47445,446.20755L271.47445,446.44757L271.47445,446.6876L
				271.23442,446.6876L271.23442,446.92763L270.99439,446.92763L270.75436,446.92763L270.75436,447.16765L270.75436,447.40768L270.51433,447.40768
				L270.51433,447.6477L270.2743,447.6477L270.2743,447.88773L270.03427,447.88773L270.03427,448.12775L269.79424,448.12775L269.79424,448.36778
				L269.55421,448.36778L269.55421,448.6078L269.31418,448.6078L269.07415,448.6078L269.07415,448.84783L269.07415,449.08786L268.83412,449.08786
				L268.83412,449.32788L268.59409,449.32788L268.59409,449.56791L268.35406,449.56791L268.35406,449.80793L268.11402,449.80793
				L268.11402,450.04796L267.87399,450.04796L267.87399,450.28798L267.63396,450.28798L267.39393,450.28798L267.39393,450.52801
				L267.39393,450.76803L267.1539,450.76803L267.1539,451.00806L266.91387,451.00806L266.91387,451.24809L266.67384,451.24809L266.67384,451.48811
				L266.43381,451.48811L266.43381,451.72814L266.19378,451.72814L266.19378,451.96816L265.95375,451.96816L265.71372,451.96816
				L265.71372,452.20819L265.71372,452.44821L265.47369,452.44821L265.47369,452.68824L265.23366,452.68824L265.23366,452.92826
				L264.99363,452.92826L264.99363,453.16829L264.7536,453.16829L264.7536,453.40832L264.51357,453.40832L264.51357,453.64834L264.27354,453.64834
				L264.03351,453.64834L264.03351,453.88837L264.03351,454.12839L263.79348,454.12839L263.79348,454.36842L263.55345,454.36842
				L263.31342,454.36842L263.31342,454.60844L263.31342,454.84847L263.07339,454.84847L263.07339,455.0885L262.83335,455.0885L262.83335,455.32852
				L262.59332,455.32852L262.59332,455.56855L262.35329,455.56855L262.35329,455.80857L262.11326,455.80857L262.11326,456.0486L
				262.11326,456.28862L261.87323,456.28862L261.87323,456.52865L261.6332,456.52865L261.6332,456.76867L261.39317,456.76867L261.39317,457.0087
				L261.15314,457.0087L261.15314,457.24873L260.91311,457.24873L260.91311,457.48875L260.67308,457.48875L260.67308,457.72878L
				260.43305,457.72878L260.43305,457.9688L260.19302,457.9688L260.19302,458.20883L259.95299,458.20883L259.95299,458.44885L259.71296,458.44885
				L259.71296,458.68888L259.47293,458.68888L259.47293,458.9289L259.2329,458.9289L259.2329,459.16893L258.99287,459.16893L258.99287,459.40896
				L258.75284,459.40896L258.75284,459.64898L258.51281,459.64898L258.51281,459.88901L258.27278,459.88901L258.27278,460.12903
				L258.03275,460.12903L258.03275,460.36906L257.79272,460.36906L257.79272,460.60908L257.55268,460.60908L257.55268,460.84911
				L257.31265,460.84911L257.31265,461.08913L257.07262,461.08913L257.07262,461.32916L256.83259,461.32916L256.83259,461.56919
				L256.59256,461.56919L256.59256,461.80921L256.35253,461.80921L256.35253,462.04924L256.1125,462.04924L256.1125,462.28926L255.87247,462.28926
				L255.87247,462.52929L255.63244,462.52929L255.63244,462.76931L255.39241,462.76931L255.39241,463.00934L255.15238,463.00934
				L255.15238,463.24936L254.91235,463.24936L254.91235,463.48939L254.67232,463.48939L254.67232,463.72942L254.43229,463.72942
				L254.43229,463.96944L254.19226,463.96944L254.19226,464.20947L253.95223,464.20947L253.95223,464.44949L253.7122,464.44949L
				253.7122,464.68952L253.47217,464.68952L253.47217,464.92954L253.23214,464.92954L253.23214,465.16957L252.99211,465.16957L252.99211,465.40959
				L252.75208,465.40959L252.75208,465.64962L252.51205,465.64962L252.51205,465.88965L252.27201,465.88965L252.27201,466.12967
				L252.03198,466.12967L252.03198,466.3697L251.79195,466.3697L251.79195,466.60972L251.55192,466.60972L251.55192,466.84975L251.31189,466.84975
				L251.31189,467.08977L251.07186,467.08977L251.07186,467.3298L250.83183,467.3298L250.83183,467.56983L250.5918,467.56983L250.5918,467.80985
				L250.35177,467.80985L250.35177,468.04988L250.11174,468.04988L250.11174,468.2899L249.87171,468.2899L249.87171,468.52993L249.63168,468.52993
				L249.63168,468.76995L249.39165,468.76995L249.39165,469.25L249.15162,469.25L249.15162,469.49003L248.91159,469.49003L248.91159,469.97008
				L248.91159,470.21011L248.67156,470.21011L248.67156,470.45013L248.1915,470.45013L248.1915,469.97008L248.1915,469.73006L247.95147,469.73006
				L247.95147,469.49003L247.95147,469.25L247.71144,469.25L247.71144,468.76995L247.71144,468.52993L247.47141,468.52993L247.47141,468.2899
				L247.23137,468.2899L247.23137,468.04988L247.23137,467.56983L246.99134,467.56983L246.99134,467.3298L246.99134,467.08977L246.75131,467.08977
				L246.75131,466.84975L246.51128,466.84975L246.51128,466.60972L246.51128,466.12967L246.27125,466.12967L246.27125,465.88965
				L246.27125,465.64962L246.03122,465.64962L246.03122,465.40959L246.03122,464.92954L245.79119,464.92954L245.79119,464.68952
				L245.55116,464.68952L245.55116,464.44949L245.55116,464.20947L245.31113,464.20947L245.31113,463.72942L245.31113,463.48939
				L245.0711,463.48939L245.0711,463.24936L244.83107,463.24936L244.83107,463.00934L244.83107,462.76931L244.59104,462.76931L244.59104,462.28926
				L244.59104,462.04924L244.35101,462.04924L244.35101,461.80921L244.35101,461.56919L244.11098,461.56919L244.11098,461.08913
				L243.87095,461.08913L243.87095,460.84911L243.87095,460.60908L243.63092,460.60908"/>
			<path clip-path="url(#SVG_CP_2)" fill="none" stroke="#999999" stroke-width="0.96012" stroke-miterlimit="10" stroke-linecap="round" stroke-linejoin="round" d="
				M243.63092,460.60908L243.63092,460.36906L243.63092,460.12903L243.39089,460.12903L243.39089,459.64898L243.15086,459.64898
				L243.15086,459.40896L243.15086,459.16893L242.91083,459.16893L242.91083,458.68888L242.91083,458.44885L242.6708,458.44885L
				242.6708,458.20883L242.6708,457.9688L242.43077,457.9688L242.43077,457.72878L242.19074,457.72878L242.19074,457.24873L242.19074,457.0087
				L241.9507,457.0087L241.9507,456.76867L241.9507,456.52865L241.71067,456.52865L241.71067,456.0486L241.47064,456.0486L241.47064,455.80857
				L241.47064,455.56855L241.23061,455.56855L241.23061,455.32852L241.23061,454.84847L240.99058,454.84847L240.99058,454.60844
				L240.99058,454.36842L240.75055,454.36842L240.75055,454.12839L240.51052,454.12839L240.51052,453.64834L240.51052,453.40832
				L240.27049,453.40832L240.27049,453.16829L240.27049,452.68824L240.03046,452.68824L240.03046,452.44821L239.79043,452.44821
				L239.79043,452.20819L239.79043,451.72814L239.5504,451.72814L239.5504,451.48811L239.5504,451.24809L239.31037,451.24809L239.31037,451.00806
				L239.31037,450.76803L239.07034,450.76803L239.07034,450.28798L238.83031,450.28798L238.83031,450.04796L238.83031,449.80793
				L238.59028,449.80793L238.59028,449.32788L238.59028,449.08786L238.35025,449.08786L238.35025,448.6078L238.11022,448.6078L238.11022,448.36778
				L238.11022,448.12775L237.87019,448.12775L237.87019,447.88773L237.87019,447.6477L237.63016,447.6477L237.63016,447.16765L237.63016,446.92763
				L237.39013,446.92763L237.39013,446.6876L237.1501,446.6876L237.1501,446.44757L237.1501,445.96752L236.91007,445.96752L236.91007,445.7275
				L236.91007,445.24745L236.67003,445.24745L236.67003,445.00742L236.43,445.00742L236.43,444.7674L236.43,444.52737L236.18997,444.52737
				L236.18997,444.04732L236.18997,443.80729L235.94994,443.80729L235.94994,443.56727L235.94994,443.32724L235.70991,443.32724
				L235.70991,443.08722L235.46988,443.08722L235.46988,442.60717L235.46988,442.36714L235.22985,442.36714L235.22985,441.88709
				L235.22985,441.64706L234.98982,441.64706L234.98982,441.40704L234.74979,441.40704L234.74979,440.92699L234.74979,440.68696
				L234.50976,440.68696L234.50976,440.44693L234.50976,440.20691L234.26973,440.20691L234.26973,439.96688L234.26973,439.48683
				L234.0297,439.48683L234.0297,439.24681L233.78967,439.24681L233.78967,439.00678L233.78967,438.52673L233.54964,438.52673L233.54964,438.2867
				L233.54964,437.80665L233.30961,437.80665L233.30961,437.56663L233.06958,437.56663L233.06958,437.3266L233.06958,437.08658L
				232.82955,437.08658L232.82955,436.84655L232.82955,436.3665L232.58952,436.3665L232.58952,436.12647L232.58952,435.88645L232.34949,435.88645
				L232.34949,435.64642L232.10946,435.64642L232.10946,435.16637L232.10946,434.92635L231.86943,434.92635L231.86943,434.68632
				L231.86943,434.4463L231.62939,434.4463L231.62939,433.96624L231.38936,433.96624L231.38936,433.72622L231.38936,433.48619L231.14933,433.48619
				L231.14933,433.24617L231.14933,432.76612L230.9093,432.76612L230.9093,432.52609L230.9093,432.28607L230.66927,432.28607L230.66927,431.80601
				L230.42924,431.80601L230.42924,431.56599L230.42924,431.32596L230.18921,431.32596L230.18921,431.08594L230.18921,430.84591
				L229.94918,430.84591L229.94918,430.60589L229.70915,430.60589L229.70915,430.12584L229.70915,429.88581L229.46912,429.88581
				L229.46912,429.40576L229.46912,429.16573L229.22909,429.16573L229.22909,428.92571L229.22909,428.68568L228.98906,428.68568
				L228.98906,428.44566L228.74903,428.44566L228.74903,428.20563L228.74903,427.72558L228.509,427.72558L228.509,427.48555L228.509,427.24553
				L228.26897,427.24553L228.26897,426.76548L228.02894,426.76548L228.02894,426.52545L228.02894,426.28543"/>
			<path clip-path="url(#SVG_CP_2)" fill="none" stroke="#999999" stroke-width="0.96012" stroke-miterlimit="10" stroke-linecap="round" stroke-linejoin="round" d="
				M281.55573,430.84591L282.03579,430.84591L282.03579,430.60589L282.27582,430.60589L282.75588,430.60589L282.75588,430.12584
				L282.99591,430.12584L282.99591,429.88581L283.23594,429.88581L283.23594,429.64578L283.23594,429.40576L283.47597,429.40576
				L283.716,429.40576L283.716,429.16573L283.95604,429.16573L283.95604,428.92571L284.19607,428.92571L284.19607,428.68568L284.19607,428.44566
				L284.4361,428.44566L284.67613,428.44566L284.67613,428.20563L284.91616,428.20563L284.91616,427.9656L284.91616,427.72558L285.15619,427.72558
				L285.39622,427.72558L285.39622,427.48555L285.63625,427.48555L285.63625,427.24553L285.39622,427.24553L285.39622,427.0055L
				285.39622,426.76548L284.91616,426.76548L284.91616,427.0055L284.67613,427.0055L284.67613,427.24553L284.4361,427.24553L284.4361,427.48555
				L284.19607,427.48555L284.19607,427.72558L283.95604,427.72558L283.95604,427.9656L283.716,427.9656L283.716,428.20563L283.47597,428.20563
				L283.47597,428.44566L283.23594,428.44566L283.23594,428.68568L282.99591,428.68568L282.99591,428.92571L282.75588,428.92571
				L282.75588,429.16573L282.51585,429.16573L282.51585,429.40576L282.27582,429.40576L282.27582,429.64578L282.03579,429.64578
				L282.03579,429.88581L281.79576,429.88581L281.79576,430.12584L281.55573,430.12584L281.55573,430.36586L281.3157,430.36586L
				281.3157,430.60589L281.07567,430.60589L281.07567,430.84591L281.55573,430.84591"/>
		</g>
</g></svg>