<?xml version="1.0" encoding="utf-8" standalone="no"?>
<!-- Creator: ESRI ArcMap 10.0.0.2414 -->
<!DOCTYPE svg PUBLIC "-//W3C//DTD SVG 1.1//EN"  "http://www.w3.org/Graphics/SVG/1.1/DTD/svg11.dtd">
<svg width="190.75639158pt" height="741.1872776pt" viewBox="202.37298421 45.48194658 190.75639158 741.1872776" enable-background="new 202.37298421 45.48194658 190.75639158 741.1872776"
	version="1.1" xmlns="http://www.w3.org/2000/svg" xmlns:xlink="http://www.w3.org/1999/xlink" >
	<g id="Couches">
		<g id="cont_2">
			<path clip-path="url(#SVG_CP_2)" fill="none" stroke="#999999" stroke-width="0.96012" stroke-miterlimit="10" stroke-linecap="round" stroke-linejoin="round" d="
				M258.03275,310.83312L258.03275,310.5931L258.27278,310.5931L258.27278,310.35307L258.51281,310.35307L258.51281,310.11305L258.99287,310.11305
				L258.99287,309.87302L259.47293,309.87302L259.47293,309.633L259.71296,309.633L259.71296,309.15294L260.19302,309.15294L260.19302,308.91292
				L260.67308,308.91292L260.67308,308.67289L261.15314,308.67289L261.15314,308.43287L261.39317,308.43287L261.39317,308.19284
				L261.6332,308.19284L261.6332,307.95282L262.35329,307.95282L262.35329,307.47277L262.59332,307.47277L262.59332,307.23274L263.07339,307.23274
				L263.07339,306.99271L263.31342,306.99271L263.31342,306.75269L263.79348,306.75269L263.79348,306.51266L264.27354,306.51266
				L264.27354,306.03261L264.51357,306.03261L264.51357,305.79259L264.99363,305.79259L264.99363,305.55256L265.47369,305.55256
				L265.47369,305.31253L265.71372,305.31253L265.71372,305.07251L266.19378,305.07251L266.19378,304.83248L266.43381,304.83248
				L266.43381,304.35243L267.1539,304.35243L267.1539,304.11241L267.39393,304.11241L267.39393,303.87238L267.63396,303.87238L267.63396,303.63236
				L268.11402,303.63236L268.11402,303.39233L268.59409,303.39233L268.59409,303.1523L269.07415,303.1523L269.07415,302.67225L269.31418,302.67225
				L269.31418,302.43223L269.55421,302.43223L269.55421,302.1922L270.2743,302.1922L270.2743,301.95218L270.51433,301.95218L270.51433,301.71215
				L270.99439,301.71215L270.99439,301.2321L271.23442,301.2321L271.23442,300.99207L271.71448,300.99207L271.71448,300.75205L272.19454,300.75205
				L272.19454,300.51202L272.43457,300.51202L272.43457,300.272L272.91463,300.272L272.91463,300.03197L273.3947,300.03197L273.3947,299.55192
				L273.63473,299.55192L273.63473,299.3119L273.87476,299.3119L273.87476,299.07187L274.11479,299.07187L274.11479,298.83184L274.35482,298.83184
				L274.35482,298.59182L275.07491,298.59182L275.07491,298.35179L275.31494,298.35179L275.31494,297.87174L275.55497,297.87174
				L275.55497,297.63172L275.795,297.63172L275.795,297.39169L276.03503,297.39169L276.03503,297.15167L276.51509,297.15167L276.51509,296.91164
				L276.75512,296.91164L276.75512,296.67161L276.99515,296.67161L276.99515,296.19156L277.47521,296.19156L277.47521,295.95154
				L277.71524,295.95154L277.71524,295.71151L278.1953,295.71151L278.1953,295.47149L278.43533,295.47149L278.43533,295.23146L278.67537,295.23146
				L278.67537,294.75141L278.9154,294.75141L278.9154,294.51138L279.15543,294.51138L279.15543,294.27136L279.87552,294.27136L279.87552,294.03133
				L280.11555,294.03133L280.11555,293.79131L280.35558,293.79131L280.35558,293.55128L280.59561,293.55128L280.59561,293.07123
				L280.83564,293.07123L280.83564,292.8312L281.3157,292.8312L281.3157,292.59118L281.55573,292.59118L281.55573,292.35115L282.03579,292.35115
				L282.03579,292.11113L282.27582,292.11113L282.27582,291.8711L282.51585,291.8711L282.51585,291.39105L282.99591,291.39105L282.99591,291.15103
				L283.23594,291.15103L283.23594,290.911L283.47597,290.911L283.47597,290.67097L283.716,290.67097L283.716,290.43095L283.95604,290.43095
				L283.95604,289.9509L284.19607,289.9509L284.19607,289.71087L284.67613,289.71087L284.67613,289.47085L284.91616,289.47085L284.91616,289.23082
				L285.15619,289.23082L285.15619,288.9908L285.39622,288.9908L285.39622,288.75077L285.63625,288.75077L285.63625,288.27072L285.87628,288.27072
				L285.87628,288.03069L286.35634,288.03069L286.35634,287.79067L286.59637,287.79067L286.59637,287.55064L286.8364,287.55064L
				286.8364,287.31062L287.07643,287.31062L287.07643,287.07059L287.31646,287.07059L287.31646,286.59054L287.79652,286.59054L287.79652,286.35051
				L288.03655,286.35051L288.03655,286.11049L288.27658,286.11049L288.27658,285.87046L288.51661,285.87046L288.51661,285.63044
				L288.75664,285.63044L288.75664,285.15039L288.99668,285.15039L288.99668,284.91036L289.47674,284.91036L289.47674,284.67034
				L289.71677,284.67034L289.71677,284.43031L289.9568,284.43031L289.9568,284.19028L290.19683,284.19028L290.19683,283.95026L290.43686,283.95026
				L290.43686,283.47021L290.67689,283.47021L290.67689,283.23018L291.15695,283.23018L291.15695,282.99016L291.39698,282.99016
				L291.39698,282.75013L291.63701,282.75013L291.63701,282.51011L291.87704,282.51011L291.87704,282.27008L292.11707,282.27008
				L292.11707,281.79003L292.59713,281.79003L292.59713,281.55L292.83716,281.55L292.83716,279.6298L292.59713,279.6298L292.59713,277.46957
				L292.11707,277.46957L292.11707,275.30934L291.87704,275.30934L291.87704,273.14911L291.63701,273.14911L291.63701,271.46893
				L291.87704,271.46893L291.87704,270.50883L292.11707,270.50883L292.11707,269.54872L292.59713,269.54872L292.59713,268.58862
				L292.83716,268.58862L292.83716,267.86854L293.07719,267.86854L293.07719,266.66842L293.31722,266.66842L293.31722,265.70831
				L293.55725,265.70831L293.55725,264.74821L293.79728,264.74821L293.79728,263.78811L294.27735,263.78811L294.27735,263.30806
				L294.51738,263.30806L294.51738,262.58798L294.75741,262.58798L294.75741,262.10793L294.99744,262.10793L294.99744,261.62788
				L295.23747,261.62788L295.23747,260.9078L295.4775,260.9078L295.4775,260.42775L295.95756,260.42775L295.95756,259.9477L296.19759,259.9477
				L296.19759,259.22762L296.43762,259.22762L296.43762,258.74757L296.67765,258.74757L296.67765,258.26752L296.91768,258.26752
				L296.91768,257.54744L297.39774,257.54744L297.39774,257.06739L297.63777,257.06739L297.63777,256.58734L297.8778,256.58734L
				297.8778,255.86727L298.11783,255.86727L298.11783,255.62724L298.35786,255.62724L298.35786,255.14719L298.59789,255.14719L298.59789,254.66714
				L299.07795,254.66714L299.07795,254.18709L299.31798,254.18709L299.31798,253.94706L299.55802,253.94706L299.55802,253.46701
				L299.79805,253.46701L299.79805,252.98696L300.03808,252.98696L300.03808,252.74693L300.27811,252.74693L300.27811,252.26688
				L300.75817,252.26688L300.75817,252.02686L300.9982,252.02686L300.9982,251.30678L301.23823,251.30678L301.23823,251.06675L301.47826,251.06675
				L301.47826,250.5867L301.71829,250.5867L301.71829,250.34668L302.19835,250.34668L302.19835,250.10665L301.71829,250.10665L301.71829,249.6266
				L300.9982,249.6266L300.9982,249.38658L297.39774,249.38658L297.39774,249.6266L293.79728,249.6266L293.79728,250.10665L291.63701,250.10665
				L291.63701,249.38658L291.39698,249.38658L291.39698,249.14655L291.15695,249.14655L291.15695,248.90652L290.67689,248.90652
				L290.67689,248.6665L290.43686,248.6665L290.43686,248.18645L290.19683,248.18645L290.19683,247.94642L289.9568,247.94642L289.9568,247.7064
				L289.71677,247.7064L289.71677,247.22635L289.47674,247.22635L289.47674,246.98632L288.99668,246.98632L288.99668,246.50627L
				288.51661,246.50627L288.51661,246.26624L288.03655,246.26624L288.03655,246.02622L287.79652,246.02622L287.79652,245.78619L
				287.07643,245.78619L287.07643,245.54617L286.59637,245.54617L286.59637,245.30614L286.35634,245.30614L286.35634,244.82609L
				285.87628,244.82609L285.87628,242.18581L285.63625,242.18581L285.63625,241.70576L285.15619,241.70576L285.15619,241.46573L
				284.67613,241.46573L284.67613,240.74565L284.91616,240.74565L284.91616,240.02558L285.39622,240.02558L285.39622,239.78555L
				285.63625,239.78555L285.63625,239.54553L286.35634,239.54553L286.35634,239.3055L286.8364,239.3055L286.8364,239.06548L287.79652,239.06548
				L287.79652,236.90525L287.31646,236.90525L287.31646,236.66522L286.8364,236.66522L286.8364,236.42519L286.59637,236.42519L286.59637,236.18517
				L285.87628,236.18517L285.87628,235.94514L285.63625,235.94514L285.63625,235.70512L285.39622,235.70512L285.39622,235.22507
				L284.91616,235.22507L284.91616,234.98504L284.67613,234.98504L284.67613,234.74502L283.95604,234.74502L283.95604,234.50499
				L283.716,234.50499L283.716,234.26496L283.23594,234.26496L283.23594,233.78491L282.99591,233.78491L282.99591,233.54489L282.27582,233.54489
				L282.27582,233.30486L282.03579,233.30486L282.03579,233.06484L281.55573,233.06484L281.55573,232.82481L281.3157,232.82481L
				281.3157,232.58478L280.59561,232.58478L280.59561,232.10473L280.35558,232.10473L280.35558,231.86471L279.87552,231.86471L279.87552,231.62468
				L279.39546,231.62468L279.39546,231.38466L278.9154,231.38466L278.9154,231.14463L278.67537,231.14463L278.67537,230.90461L278.43533,230.90461
				L278.43533,230.42455L278.1953,230.42455L278.1953,230.18453L277.71524,230.18453L277.71524,229.9445L277.47521,229.9445L277.47521,229.70448
				L277.23518,229.70448L277.23518,228.9844L276.99515,228.9844L276.99515,228.74438L276.75512,228.74438L276.75512,228.50435L276.51509,228.50435
				L276.51509,228.26432L276.03503,228.26432L276.03503,227.78427L275.795,227.78427L275.795,227.30422L276.51509,227.30422L276.51509,227.78427
				L277.47521,227.78427L277.47521,228.0243L278.1953,228.0243L278.1953,228.26432L279.39546,228.26432L279.39546,228.50435L280.83564,228.50435
				L280.83564,228.74438L283.47597,228.74438L283.47597,228.9844L284.91616,228.9844L284.91616,229.46445L285.39622,229.46445L285.39622,229.70448
				L286.35634,229.70448L286.35634,229.9445L289.47674,229.9445L289.47674,230.18453L291.87704,230.18453L291.87704,230.42455L292.59713,230.42455
				L292.59713,230.90461L292.83716,230.90461L292.83716,231.38466L293.07719,231.38466L293.07719,231.62468L293.31722,231.62468
				L293.31722,232.10473L293.55725,232.10473L293.55725,232.58478L293.79728,232.58478L293.79728,233.06484L294.27735,233.06484
				L294.27735,233.30486L294.51738,233.30486L294.51738,233.78491L294.75741,233.78491L294.75741,234.26496L294.99744,234.26496
				L294.99744,234.74502L295.23747,234.74502L295.23747,235.22507L295.4775,235.22507L295.4775,235.94514L295.95756,235.94514L295.95756,236.66522
				L296.19759,236.66522L296.19759,236.90525L296.43762,236.90525L296.43762,237.3853L296.67765,237.3853L296.67765,237.62532L296.91768,237.62532
				L296.91768,237.86535L297.39774,237.86535L297.39774,238.10537L297.63777,238.10537L297.63777,238.58542L297.8778,238.58542L
				297.8778,239.3055L298.11783,239.3055L298.11783,240.02558L298.59789,240.02558L298.59789,240.50563L302.19835,240.50563L302.19835,240.74565
				L302.43838,240.74565L302.43838,240.50563L304.59865,240.50563L304.59865,240.02558L306.75893,240.02558L306.75893,239.78555
				L308.67917,239.78555L308.67917,239.54553L309.15923,239.54553L309.15923,239.78555L309.63929,239.78555L309.63929,239.54553
				L309.87933,239.54553L309.87933,239.78555L312.75969,239.78555L312.75969,240.02558L313.47978,240.02558L313.47978,240.50563
				L313.95984,240.50563L313.95984,240.74565L314.19987,240.74565L314.19987,240.98568L314.4399,240.98568L314.4399,241.22571L314.67993,241.22571
				L314.67993,241.46573L315.16,241.46573L315.16,241.70576L315.40003,241.70576L315.40003,242.18581L315.88009,242.18581L315.88009,242.42583
				L316.12012,242.42583L316.12012,242.66586L316.36015,242.66586L316.36015,242.90588L316.84021,242.90588L316.84021,243.14591
				L317.08024,243.14591L317.08024,243.38594L317.32027,243.38594L317.32027,243.86599L317.5603,243.86599L317.5603,244.10601L317.80033,244.10601
				L317.80033,244.34604L318.28039,244.34604L318.28039,244.58606L318.52042,244.58606L318.52042,244.82609L318.76045,244.82609
				L318.76045,245.30614L319.00048,245.30614L319.00048,245.54617L319.24051,245.54617L319.24051,245.78619L319.48054,245.78619
				L319.48054,246.02622L319.9606,246.02622L319.9606,246.26624L320.20063,246.26624L320.20063,246.50627L320.44067,246.50627L320.44067,247.46637
				L320.6807,247.46637L320.6807,248.18645L320.92073,248.18645L320.92073,249.14655L321.16076,249.14655L321.16076,250.10665L321.64082,250.10665
				L321.64082,258.9876L321.16076,258.9876L321.16076,263.78811L320.92073,263.78811L320.92073,267.86854L320.6807,267.86854L320.6807,270.50883
				L320.44067,270.50883L320.44067,271.94898L320.20063,271.94898L320.20063,276.50947L320.44067,276.50947L320.44067,278.42967
				L320.6807,278.42967L320.6807,280.10985L320.92073,280.10985L320.92073,283.23018L320.6807,283.23018L320.6807,284.19028L320.44067,284.19028
				L320.44067,284.91036L320.20063,284.91036L320.20063,285.87046L319.9606,285.87046L319.9606,287.31062L319.48054,287.31062L319.48054,288.75077
				L319.24051,288.75077L319.24051,290.43095L319.00048,290.43095L319.00048,292.11113L318.76045,292.11113L318.76045,293.79131
				L318.52042,293.79131L318.52042,295.47149L318.28039,295.47149L318.28039,297.39169L317.80033,297.39169L317.80033,298.83184
				L317.5603,298.83184L317.5603,299.55192L317.32027,299.55192L317.32027,300.75205L317.08024,300.75205L317.08024,301.2321L316.84021,301.2321
				L316.84021,301.95218L316.36015,301.95218L316.36015,302.43223L316.12012,302.43223L316.12012,302.67225L315.88009,302.67225
				L315.88009,303.39233L315.64006,303.39233L315.64006,303.87238L315.40003,303.87238L315.40003,304.11241L315.16,304.11241L315.16,304.83248
				L314.67993,304.83248L314.67993,305.31253L314.4399,305.31253L314.4399,305.79259L314.19987,305.79259L314.19987,307.47277L313.95984,307.47277
				L313.95984,308.67289L313.71981,308.67289L313.71981,309.87302L313.47978,309.87302L313.47978,310.35307L312.99972,310.35307
				L312.99972,310.83312L312.75969,310.83312L312.75969,311.79323L312.51966,311.79323L312.51966,312.75333L312.27963,312.75333
				L312.27963,313.4734L312.0396,313.4734L312.0396,313.95346L311.55954,313.95346L311.55954,314.67353L311.31951,314.67353L311.31951,315.15358
				L311.07948,315.15358L311.07948,315.63363L310.83945,315.63363L310.83945,316.83376L310.59942,316.83376L310.59942,317.55384
				L310.35939,317.55384L310.35939,318.03389L309.87933,318.03389L309.87933,318.27392L309.63929,318.27392L309.63929,318.75397
				L309.39926,318.75397L309.39926,319.47404L309.15923,319.47404L309.15923,319.71407L308.9192,319.71407L308.9192,320.19412L308.67917,320.19412
				L308.67917,320.43415L308.19911,320.43415L308.19911,320.9142L307.95908,320.9142L307.95908,321.39425L307.71905,321.39425L307.71905,321.8743
				L307.47902,321.8743L307.47902,322.11433L307.23899,322.11433L307.23899,322.59438L306.75893,322.59438L306.75893,323.07443L
				306.5189,323.07443L306.5189,323.55448L306.27887,323.55448L306.27887,324.27456L306.03884,324.27456L306.03884,326.91484L305.79881,326.91484
				L305.79881,330.99527L305.55878,330.99527L305.55878,332.1954L305.07872,332.1954L305.07872,333.1555L304.83869,333.1555L304.83869,333.87558
				L304.59865,333.87558L304.59865,334.59566L304.35862,334.59566L304.35862,335.31573L304.11859,335.31573L304.11859,343.4766L
				303.87856,343.4766L303.87856,344.91676L303.3985,344.91676L303.3985,344.19668L303.15847,344.19668L303.15847,343.4766L302.91844,343.4766
				L302.91844,342.75652L302.67841,342.75652L302.67841,342.03645L302.43838,342.03645L302.43838,341.31637L302.19835,341.31637
				L302.19835,340.59629L301.71829,340.59629L301.71829,340.11624L301.47826,340.11624L301.47826,339.15614L301.23823,339.15614
				L301.23823,338.67609L300.9982,338.67609L300.9982,337.71599L300.75817,337.71599L300.75817,336.99591L300.27811,336.99591L300.27811,336.03581
				L300.03808,336.03581L300.03808,335.55576L299.79805,335.55576L299.79805,334.59566L299.55802,334.59566L299.55802,333.87558
				L299.31798,333.87558L299.31798,332.91548L299.07795,332.91548L299.07795,332.43543L298.59789,332.43543L298.59789,331.47532
				L298.35786,331.47532L298.35786,330.75525L298.11783,330.75525L298.11783,329.79514L297.8778,329.79514L297.8778,329.07507L297.63777,329.07507
				L297.63777,327.63491L297.39774,327.63491L297.39774,325.95473L296.91768,325.95473L296.91768,324.27456L296.67765,324.27456
				L296.67765,322.59438L296.43762,322.59438L296.43762,320.9142L296.19759,320.9142L296.19759,317.79386L295.95756,317.79386L295.95756,314.43351
				L295.4775,314.43351L295.4775,310.83312L295.23747,310.83312L295.23747,307.95282L294.99744,307.95282L294.99744,308.19284L294.27735,308.19284
				L294.27735,308.43287L293.07719,308.43287L293.07719,308.19284L292.59713,308.19284L292.59713,307.95282L291.87704,307.95282
				L291.87704,307.47277L291.39698,307.47277L291.39698,307.23274L290.67689,307.23274L290.67689,306.99271L290.19683,306.99271
				L290.19683,306.75269L289.71677,306.75269L289.71677,306.51266L289.47674,306.51266L289.47674,306.03261L289.71677,306.03261
				L289.71677,305.55256L289.9568,305.55256L289.9568,304.83248L290.19683,304.83248L290.19683,303.87238L290.43686,303.87238L290.43686,303.39233
				L290.67689,303.39233L290.67689,302.43223L291.15695,302.43223L291.15695,301.71215L291.39698,301.71215L291.39698,300.75205
				L291.63701,300.75205L291.63701,300.51202L295.4775,300.51202L295.4775,295.71151L295.23747,295.71151L295.23747,294.03133L294.99744,294.03133
				L294.99744,292.35115L294.75741,292.35115L294.75741,290.67097L294.51738,290.67097L294.51738,288.9908L294.27735,288.9908L294.27735,287.31062
				L293.79728,287.31062L293.79728,285.87046L293.55725,285.87046L293.55725,284.19028L293.31722,284.19028L293.31722,283.23018
				L293.07719,283.23018L293.07719,283.95026L292.83716,283.95026L292.83716,284.19028L292.59713,284.19028L292.59713,284.43031
				L292.11707,284.43031L292.11707,284.67034L291.87704,284.67034L291.87704,284.91036L291.63701,284.91036L291.63701,285.15039
				L291.39698,285.15039L291.39698,285.63044L291.15695,285.63044L291.15695,285.87046L290.67689,285.87046L290.67689,286.11049
				L290.43686,286.11049L290.43686,286.35051L290.19683,286.35051L290.19683,287.07059L289.9568,287.07059L289.9568,287.31062L289.71677,287.31062
				L289.71677,287.55064L289.47674,287.55064L289.47674,287.79067L288.99668,287.79067L288.99668,288.03069L288.75664,288.03069
				L288.75664,288.27072L288.51661,288.27072L288.51661,288.75077L288.27658,288.75077L288.27658,288.9908L288.03655,288.9908L288.03655,289.23082
				L287.79652,289.23082L287.79652,289.47085L287.31646,289.47085L287.31646,289.71087L287.07643,289.71087L287.07643,289.9509L
				286.8364,289.9509L286.8364,290.43095L286.35634,290.43095L286.35634,290.67097L285.87628,290.67097L285.87628,290.911L285.63625,290.911
				L285.63625,291.15103L285.39622,291.15103L285.39622,291.39105L285.15619,291.39105L285.15619,291.8711L284.91616,291.8711L284.91616,292.11113
				L284.19607,292.11113L284.19607,292.35115L283.95604,292.35115L283.95604,292.59118L283.716,292.59118L283.716,292.8312L283.47597,292.8312
				L283.47597,293.07123L283.23594,293.07123L283.23594,293.55128L282.51585,293.55128L282.51585,293.79131L282.27582,293.79131
				L282.27582,294.03133L282.03579,294.03133L282.03579,294.27136L281.79576,294.27136L281.79576,294.51138L281.55573,294.51138
				L281.55573,294.75141L281.3157,294.75141L281.3157,295.23146L280.59561,295.23146L280.59561,295.47149L280.35558,295.47149L280.35558,295.71151
				L280.11555,295.71151L280.11555,295.95154L279.87552,295.95154L279.87552,296.19156L279.39546,296.19156L279.39546,296.67161
				L278.9154,296.67161L278.9154,296.91164L278.67537,296.91164L278.67537,297.15167L278.43533,297.15167L278.43533,297.39169L278.1953,297.39169
				L278.1953,297.63172L277.71524,297.63172L277.71524,297.87174L277.23518,297.87174L277.23518,298.35179L276.99515,298.35179L
				276.99515,298.59182L276.75512,298.59182L276.75512,298.83184L276.51509,298.83184L276.51509,299.07187L276.03503,299.07187L
				276.03503,299.3119L275.795,299.3119L275.795,299.55192L275.31494,299.55192L275.31494,300.03197L275.07491,300.03197L275.07491,300.272
				L274.59485,300.272L274.59485,300.51202L274.35482,300.51202L274.35482,300.75205L274.11479,300.75205L274.11479,300.99207L273.63473,300.99207
				L273.63473,301.2321L273.3947,301.2321L273.3947,301.71215L272.91463,301.71215L272.91463,301.95218L272.6746,301.95218L272.6746,302.1922
				L272.19454,302.1922L272.19454,302.43223L271.95451,302.43223L271.95451,302.67225L271.71448,302.67225L271.71448,303.1523L270.99439,303.1523
				L270.99439,303.39233L270.75436,303.39233L270.75436,303.63236L270.2743,303.63236L270.2743,303.87238L269.79424,303.87238L269.79424,304.11241
				L269.55421,304.11241L269.55421,304.35243L269.07415,304.35243L269.07415,304.83248L268.83412,304.83248L268.83412,305.07251
				L268.11402,305.07251L268.11402,305.31253L267.87399,305.31253L267.87399,305.55256L267.63396,305.55256L267.63396,305.79259
				L267.1539,305.79259L267.1539,306.03261L266.91387,306.03261L266.91387,306.51266L266.19378,306.51266L266.19378,306.75269L265.95375,306.75269
				L265.95375,306.99271L265.71372,306.99271L265.71372,307.23274L264.99363,307.23274L264.99363,307.47277L264.7536,307.47277L
				264.7536,307.95282L264.27354,307.95282L264.27354,308.19284L264.03351,308.19284L264.03351,308.43287L263.31342,308.43287L263.31342,308.67289
				L263.07339,308.67289L263.07339,308.91292L262.59332,308.91292L262.59332,309.15294L262.35329,309.15294L262.35329,309.633L261.6332,309.633
				L261.6332,309.87302L261.39317,309.87302L261.39317,310.11305L260.91311,310.11305L260.91311,310.35307L260.67308,310.35307L
				260.67308,310.5931L259.95299,310.5931L259.95299,310.83312L259.71296,310.83312L259.71296,311.31317L259.2329,311.31317L259.2329,311.5532
				L258.99287,311.5532L258.99287,311.79323L258.51281,311.79323L258.51281,311.31317L258.27278,311.31317L258.27278,310.83312L
				258.03275,310.83312"/>
			<path clip-path="url(#SVG_CP_2)" fill="none" stroke="#999999" stroke-width="0.96012" stroke-miterlimit="10" stroke-linecap="round" stroke-linejoin="round" d="
				M258.03275,310.83312L258.03275,311.79323L258.27278,311.79323L258.27278,312.03325L258.03275,312.03325L258.03275,312.27328
				L257.55268,312.27328L257.55268,312.75333L257.31265,312.75333L257.31265,312.99335L256.83259,312.99335L256.83259,313.23338
				L256.35253,313.23338L256.35253,313.4734L256.1125,313.4734L256.1125,313.71343L255.87247,313.71343L255.87247,313.95346L255.15238,313.95346
				L255.15238,314.43351L254.91235,314.43351L254.91235,314.67353L254.67232,314.67353L254.67232,314.91356L254.19226,314.91356
				L254.19226,315.15358L253.7122,315.15358L253.7122,315.39361L253.47217,315.39361L253.47217,315.63363L252.99211,315.63363L252.99211,316.11369
				L252.75208,316.11369L252.75208,316.35371L252.51205,316.35371L252.51205,316.59374L251.79195,316.59374L251.79195,317.07379
				L252.03198,317.07379L252.03198,317.55384L252.51205,317.55384L252.51205,318.51394L252.03198,318.51394L252.03198,319.9541L
				251.79195,319.9541L251.79195,321.39425L251.55192,321.39425L251.55192,322.8344L251.31189,322.8344L251.31189,324.51458L251.07186,324.51458
				L251.07186,325.95473L250.83183,325.95473L250.83183,327.87494L251.07186,327.87494L251.07186,329.07507L251.31189,329.07507
				L251.31189,330.51522L251.55192,330.51522L251.55192,331.71535L251.79195,331.71535L251.79195,332.91548L252.03198,332.91548
				L252.03198,334.35563L252.51205,334.35563L252.51205,335.79578L252.75208,335.79578L252.75208,336.99591L252.99211,336.99591
				L252.99211,338.43606L253.23214,338.43606L253.23214,339.63619L253.47217,339.63619L253.47217,340.83632L253.7122,340.83632L
				253.7122,342.27647L254.19226,342.27647L254.19226,343.4766L254.43229,343.4766L254.43229,344.4367L254.67232,344.4367L254.67232,345.39681
				L254.91235,345.39681L254.91235,346.59693L255.15238,346.59693L255.15238,347.55704L255.63244,347.55704L255.63244,348.75716
				L255.87247,348.75716L255.87247,349.95729L256.1125,349.95729L256.1125,350.67737L256.35253,350.67737L256.35253,351.8775L256.59256,351.8775
				L256.59256,353.07762L256.83259,353.07762L256.83259,354.03773L257.31265,354.03773L257.31265,354.99783L257.55268,354.99783
				L257.55268,355.23785L264.7536,355.23785L264.7536,355.47788L272.43457,355.47788L272.43457,355.71791L272.19454,355.71791L272.19454,358.11816
				L271.95451,358.11816L271.95451,360.27839L271.71448,360.27839L271.71448,362.1986L271.23442,362.1986L271.23442,361.95857L270.99439,361.95857
				L270.99439,361.71855L270.75436,361.71855L270.75436,361.47852L270.2743,361.47852L270.2743,361.23849L269.79424,361.23849L269.79424,360.99847
				L269.55421,360.99847L269.55421,360.51842L269.31418,360.51842L269.31418,360.27839L268.83412,360.27839L268.83412,360.03837
				L268.59409,360.03837L268.59409,359.79834L268.11402,359.79834L268.11402,359.55832L265.71372,359.55832L265.71372,359.79834
				L264.7536,359.79834L264.7536,360.03837L264.27354,360.03837L264.27354,360.99847L263.79348,360.99847L263.79348,361.23849L263.07339,361.23849
				L263.07339,361.47852L262.35329,361.47852L262.35329,361.71855L260.91311,361.71855L260.91311,361.95857L258.99287,361.95857
				L258.99287,361.71855L258.27278,361.71855L258.27278,361.47852L257.31265,361.47852L257.31265,361.23849L256.1125,361.23849L
				256.1125,360.99847L254.67232,360.99847L254.67232,360.51842L253.23214,360.51842L253.23214,360.27839L252.51205,360.27839L252.51205,360.03837
				L251.79195,360.03837L251.79195,359.79834L251.31189,359.79834L251.31189,359.55832L250.83183,359.55832L250.83183,359.31829
				L249.87171,359.31829L249.87171,358.83824L248.91159,358.83824L248.91159,358.59821L248.43153,358.59821L248.43153,358.35819
				L247.95147,358.35819L247.95147,358.11816L247.23137,358.11816L247.23137,357.87814L246.75131,357.87814L246.75131,357.39809
				L246.03122,357.39809L246.03122,357.15806L245.31113,357.15806L245.31113,356.91803L243.87095,356.91803L243.87095,356.67801
				L243.39089,356.67801L243.39089,356.43798L242.43077,356.43798L242.43077,356.19796L241.9507,356.19796L241.9507,355.71791L241.47064,355.71791
				L241.47064,355.47788L241.23061,355.47788L241.23061,355.23785L240.51052,355.23785L240.51052,354.99783L240.27049,354.99783
				L240.27049,354.7578L239.79043,354.7578L239.79043,354.51778L239.31037,354.51778L239.31037,354.03773L238.83031,354.03773L238.83031,353.7977
				L238.59028,353.7977L238.59028,353.55768L238.35025,353.55768L238.35025,353.31765L238.11022,353.31765L238.11022,353.07762L
				237.39013,353.07762L237.39013,352.59757L237.1501,352.59757L237.1501,352.35755L236.91007,352.35755L236.91007,352.11752L236.67003,352.11752
				L236.67003,351.8775L235.94994,351.8775L235.94994,351.63747L235.70991,351.63747L235.70991,351.39745L235.46988,351.39745L235.46988,350.91739
				L235.22985,350.91739L235.22985,350.67737L234.74979,350.67737L234.74979,350.43734L234.26973,350.43734L234.26973,350.19732
				L234.0297,350.19732L234.0297,349.95729L233.78967,349.95729L233.78967,349.71727L233.54964,349.71727L233.54964,349.23722L232.82955,349.23722
				L232.82955,348.99719L232.58952,348.99719L232.58952,348.75716L232.34949,348.75716L232.34949,348.51714L232.10946,348.51714
				L232.10946,348.27711L231.62939,348.27711L231.62939,347.79706L231.14933,347.79706L231.14933,347.55704L230.9093,347.55704L
				230.9093,347.31701L230.66927,347.31701L230.66927,347.07699L230.18921,347.07699L230.18921,346.83696L229.94918,346.83696L229.94918,346.59693
				L229.46912,346.59693L229.46912,346.11688L228.509,346.11688L228.509,345.87686L227.30885,345.87686L227.30885,345.63683L226.34872,345.63683
				L226.34872,345.39681L225.62863,345.39681L225.62863,345.15678L224.66851,345.15678L224.66851,344.91676L224.18845,344.91676
				L224.18845,344.4367L223.70839,344.4367L223.70839,344.19668L222.74827,344.19668L222.74827,343.95665L222.26821,343.95665L222.26821,343.71663
				L221.54812,343.71663L221.54812,343.4766L220.82802,343.4766L220.82802,342.99655L220.34796,342.99655L220.34796,342.75652L219.62787,342.75652
				L219.62787,342.5165L219.38784,342.5165L219.38784,342.75652L219.14781,342.75652L219.14781,342.5165L217.70763,342.5165L217.70763,342.27647
				L217.22757,342.27647L217.22757,342.03645L216.74751,342.03645L216.74751,341.31637L216.50748,341.31637L216.50748,340.83632
				L216.26745,340.83632L216.26745,340.35627L216.02742,340.35627L216.02742,339.63619L215.78738,339.63619L215.78738,338.91612
				L215.54735,338.91612L215.54735,332.67545L215.78738,332.67545L215.78738,325.71471L216.02742,325.71471L216.02742,324.27456
				L216.26745,324.27456L216.26745,322.59438L216.50748,322.59438L216.50748,321.63427L216.74751,321.63427L216.74751,320.43415
				L217.22757,320.43415L217.22757,319.71407L217.4676,319.71407L217.4676,318.51394L217.70763,318.51394L217.70763,315.15358L217.4676,315.15358
				L217.4676,307.95282L217.22757,307.95282L217.22757,300.75205L217.4676,300.75205L217.4676,281.55L217.70763,281.55L217.70763,279.38977
				L217.94766,279.38977L217.94766,279.14975L218.18769,279.14975L218.18769,278.6697L218.42772,278.6697L218.42772,278.18964L219.38784,278.18964
				L219.38784,277.94962L219.62787,277.94962L219.62787,277.70959L219.8679,277.70959L219.8679,276.74949L220.34796,276.74949L220.34796,276.02941
				L220.58799,276.02941L220.58799,275.06931L220.82802,275.06931L220.82802,271.70895L220.58799,271.70895L220.58799,269.06867
				L220.34796,269.06867L220.34796,267.38849L220.58799,267.38849L220.58799,268.10857L220.82802,268.10857L220.82802,268.58862
				L221.06805,268.58862L221.06805,269.06867L221.30809,269.06867L221.30809,269.78875L221.54812,269.78875L221.54812,270.2688L
				222.02818,270.2688L222.02818,270.98888L222.26821,270.98888L222.26821,271.46893L222.50824,271.46893L222.50824,272.18901L222.74827,272.18901
				L222.74827,272.90908L222.9883,272.90908L222.9883,273.38913L223.22833,273.38913L223.22833,273.86918L223.70839,273.86918L223.70839,274.58926
				L223.94842,274.58926L223.94842,275.06931L224.18845,275.06931L224.18845,275.54936L224.42848,275.54936L224.42848,276.26944
				L224.66851,276.26944L224.66851,276.74949L225.14857,276.74949L225.14857,277.46957L225.3886,277.46957L225.3886,277.94962L225.62863,277.94962
				L225.62863,278.42967L225.86866,278.42967L225.86866,278.6697L226.10869,278.6697L226.10869,279.38977L226.34872,279.38977L226.34872,279.86982
				L226.82879,279.86982L226.82879,280.34987L227.06882,280.34987L227.06882,281.06995L227.30885,281.06995L227.30885,281.30998
				L227.54888,281.30998L227.54888,281.79003L227.78891,281.79003L227.78891,282.51011L228.02894,282.51011L228.02894,282.99016
				L228.509,282.99016L228.509,283.47021L228.74903,283.47021L228.74903,283.95026L228.98906,283.95026L228.98906,284.43031L229.22909,284.43031
				L229.22909,284.91036L229.46912,284.91036L229.46912,285.63044L229.94918,285.63044L229.94918,286.11049L230.18921,286.11049
				L230.18921,286.59054L230.42924,286.59054L230.42924,287.31062L230.66927,287.31062L230.66927,287.79067L230.9093,287.79067L
				230.9093,288.27072L231.14933,288.27072L231.14933,288.9908L231.62939,288.9908L231.62939,289.47085L231.86943,289.47085L231.86943,289.9509
				L232.10946,289.9509L232.10946,290.67097L232.34949,290.67097L232.34949,291.15103L232.58952,291.15103L232.58952,291.8711L232.82955,291.8711
				L232.82955,292.35115L233.30961,292.35115L233.30961,292.8312L233.54964,292.8312L233.54964,293.55128L233.78967,293.55128L233.78967,294.03133
				L234.0297,294.03133L234.0297,294.51138L234.26973,294.51138L234.26973,295.23146L234.74979,295.23146L234.74979,295.47149L234.98982,295.47149
				L234.98982,295.95154L235.22985,295.95154L235.22985,296.67161L235.46988,296.67161L235.46988,297.15167L235.70991,297.15167
				L235.70991,297.63172L235.94994,297.63172L235.94994,298.35179L236.43,298.35179L236.43,298.83184L236.67003,298.83184L236.67003,299.3119
				L236.91007,299.3119L236.91007,300.03197L237.1501,300.03197L237.1501,300.51202L237.39013,300.51202L237.39013,300.99207L237.63016,300.99207
				L237.63016,301.71215L238.11022,301.71215L238.11022,302.1922L238.35025,302.1922L238.35025,302.67225L238.59028,302.67225L238.59028,303.39233
				L238.83031,303.39233L238.83031,303.87238L239.07034,303.87238L239.07034,304.35243L239.31037,304.35243L239.31037,305.07251
				L239.79043,305.07251L239.79043,305.55256L240.03046,305.55256L240.03046,305.79259L240.27049,305.79259L240.27049,306.51266
				L240.51052,306.51266L240.51052,306.75269L240.75055,306.75269L240.75055,307.23274L241.23061,307.23274L241.23061,307.47277
				L241.47064,307.47277L241.47064,308.19284L241.71067,308.19284L241.71067,308.43287L241.9507,308.43287L241.9507,308.91292L242.19074,308.91292
				L242.19074,309.15294L242.43077,309.15294L242.43077,309.87302L242.91083,309.87302L242.91083,310.11305L243.15086,310.11305
				L243.15086,310.5931L243.39089,310.5931L243.39089,310.83312L243.63092,310.83312L243.63092,311.31317L243.87095,311.31317L243.87095,311.5532
				L244.59104,311.5532L244.59104,311.79323L245.0711,311.79323L245.0711,312.03325L245.31113,312.03325L245.31113,312.27328L246.03122,312.27328
				L246.03122,312.75333L246.27125,312.75333L246.27125,312.99335L246.75131,312.99335L246.75131,313.23338L246.99134,313.23338
				L246.99134,313.4734L249.39165,313.4734L249.39165,313.71343L249.63168,313.71343L249.63168,313.95346L249.87171,313.95346L249.87171,314.43351
				L250.11174,314.43351L250.11174,314.67353L250.35177,314.67353L250.35177,314.91356L250.83183,314.91356L250.83183,315.15358
				L251.07186,315.15358L251.07186,315.39361L251.31189,315.39361L251.31189,315.15358L251.79195,315.15358L251.79195,314.91356
				L252.03198,314.91356L252.03198,314.67353L252.75208,314.67353L252.75208,314.43351L252.99211,314.43351L252.99211,313.95346
				L253.47217,313.95346L253.47217,313.71343L253.7122,313.71343L253.7122,313.4734L254.43229,313.4734L254.43229,313.23338L254.67232,313.23338
				L254.67232,312.99335L254.91235,312.99335L254.91235,312.75333L255.63244,312.75333L255.63244,312.27328L255.87247,312.27328
				L255.87247,312.03325L256.35253,312.03325L256.35253,311.79323L256.59256,311.79323L256.59256,311.5532L256.83259,311.5532L256.83259,311.31317
				L257.55268,311.31317L257.55268,310.83312L258.03275,310.83312"/>
		</g>
</g></svg>