<?xml version="1.0" encoding="utf-8" standalone="no"?>
<!-- Creator: ESRI ArcMap 10.0.0.2414 -->
<!DOCTYPE svg PUBLIC "-//W3C//DTD SVG 1.1//EN"  "http://www.w3.org/Graphics/SVG/1.1/DTD/svg11.dtd">
<svg width="524.0420768pt" height="529.243576665pt" viewBox="32.15712744 156.507346667 524.0420768 529.243576665" enable-background="new 32.15712744 156.507346667 524.0420768 529.243576665"
	version="1.1" xmlns="http://www.w3.org/2000/svg" xmlns:xlink="http://www.w3.org/1999/xlink" >
	<g id="Couches">
		<g id="cont_2">
			<path clip-path="url(#SVG_CP_2)" fill="none" stroke="#999999" stroke-width="0.96012" stroke-miterlimit="10" stroke-linecap="round" stroke-linejoin="round" d="
				M417.41297,611.10512L417.41297,611.34515L417.653,611.34515L417.89303,611.34515L417.89303,611.58517L418.13306,611.58517L418.13306,611.8252
				L418.37309,611.8252L418.37309,612.06522L418.61312,612.06522L418.61312,612.30525L418.61312,612.7853L418.61312,613.02533L418.61312,613.26535
				L418.37309,613.26535L418.37309,613.50538L418.37309,613.7454L418.13306,613.7454L418.13306,613.98543L418.13306,614.22545L417.89303,614.22545
				L417.89303,614.46548L417.653,614.46548L417.653,614.7055L417.653,614.94553L417.41297,614.94553L417.41297,615.18556L417.41297,615.42558
				L417.17294,615.42558L417.17294,615.66561L416.93291,615.66561L416.93291,615.90563L416.93291,616.14566L416.69288,616.14566
				L416.69288,616.38568L416.45285,616.38568L416.45285,616.62571L416.45285,616.86573L416.21282,616.86573L416.21282,617.10576
				L416.21282,618.78594L415.97279,618.78594L415.97279,619.02596L415.73276,619.02596L415.73276,619.26599L415.49273,619.26599
				L415.49273,619.50602L415.2527,619.50602L415.2527,619.74604L415.01267,619.74604L415.01267,619.98607L414.77264,619.98607L414.77264,620.22609
				L414.53261,620.22609L414.53261,620.46612L414.29258,620.46612L414.29258,620.70614L414.05254,620.70614L414.05254,620.94617
				L413.81251,620.94617L413.81251,621.18619L413.57248,621.18619L413.57248,621.42622L413.33245,621.42622L413.33245,621.66625
				L413.09242,621.66625L413.09242,621.90627L412.85239,621.90627L412.85239,622.1463L412.61236,622.1463L412.61236,622.38632L412.37233,622.38632
				L412.37233,622.62635L412.1323,622.62635L412.1323,622.86637L411.89227,622.86637L411.89227,623.1064L411.89227,623.34642L411.65224,623.34642
				L411.65224,623.58645L411.41221,623.58645L411.41221,623.82648L411.17218,623.82648L411.17218,624.0665L411.17218,624.30653L
				410.93215,624.30653L410.93215,624.54655L410.69212,624.54655L410.69212,624.78658L410.45209,624.78658L410.45209,625.0266L410.21206,625.0266
				L410.21206,625.26663L409.97203,625.26663L409.97203,625.50666L409.97203,625.74668L409.732,625.74668L409.732,625.98671L409.49197,625.98671
				L409.49197,626.22673L409.25194,626.22673L409.25194,626.94681L409.01191,626.94681L409.01191,627.18683L408.77187,627.18683
				L408.77187,627.42686L408.53184,627.42686L408.53184,627.66689L408.29181,627.66689L408.29181,627.90691L408.05178,627.90691
				L408.05178,628.14694L407.81175,628.14694L407.81175,628.38696L407.57172,628.38696L407.57172,628.62699L407.57172,628.86701
				L407.33169,628.86701L407.33169,629.10704L407.09166,629.10704L407.09166,629.34706L406.85163,629.34706L406.85163,629.58709
				L406.6116,629.58709L406.6116,629.82712L406.37157,629.82712L406.37157,630.06714L406.37157,630.30717L406.13154,630.30717L406.13154,630.54719
				L405.89151,630.54719L405.89151,630.78722L405.65148,630.78722L405.41145,630.78722L405.41145,631.02724L405.41145,631.26727
				L405.17142,631.26727L405.17142,631.50729L404.93139,631.50729L404.93139,631.74732L404.69136,631.74732L404.69136,631.98735
				L404.45133,631.98735L404.45133,632.22737L404.2113,632.22737L404.2113,632.4674L403.97127,632.4674L403.97127,632.70742L403.97127,632.94745
				L403.73124,632.94745L403.73124,633.18747L403.4912,633.18747L403.4912,633.4275L403.25117,633.4275L403.25117,633.66752L403.01114,633.66752
				L403.01114,633.90755L402.77111,633.90755L402.77111,634.14758L402.77111,634.3876L402.53108,634.3876L402.29105,634.3876L402.29105,634.62763
				L402.05102,634.62763L402.05102,634.86765L401.81099,634.86765L401.81099,635.10768L401.57096,635.10768L401.57096,635.3477L
				401.57096,635.58773L401.33093,635.58773L401.33093,635.82775L401.0909,635.82775L401.0909,636.06778L400.85087,636.06778L400.85087,636.30781
				L400.61084,636.30781L400.61084,636.54783L400.37081,636.54783L400.37081,636.78786L400.13078,636.78786L400.13078,637.02788
				L399.89075,637.02788L399.89075,637.26791L399.65072,637.26791L399.65072,637.50793L399.41069,637.50793L399.41069,637.74796
				L399.41069,637.98799L399.17066,637.98799L399.17066,638.22801L398.93063,638.22801L398.93063,638.46804L398.6906,638.46804L
				398.6906,638.70806L398.45057,638.70806L398.45057,638.94809L398.21053,638.94809L398.21053,639.18811L397.9705,639.18811L397.9705,639.42814
				L397.73047,639.42814L397.73047,639.66816L397.49044,639.66816L397.49044,639.90819L397.25041,639.90819L397.25041,640.14822
				L397.01038,640.14822L397.01038,640.38824L397.01038,640.62827L396.77035,640.62827L396.53032,640.62827L396.53032,640.86829
				L396.53032,641.10832L396.29029,641.10832L396.29029,641.34834L396.05026,641.34834L396.05026,641.58837L395.81023,641.58837
				L395.81023,641.82839L395.5702,641.82839L395.5702,642.06842L395.33017,642.06842L395.33017,642.30845L395.09014,642.30845L395.09014,642.54847
				L395.09014,642.7885L394.85011,642.7885L394.85011,643.02852L394.61008,643.02852L394.37005,643.02852L394.37005,643.26855L394.13002,643.26855
				L394.13002,643.50857L394.13002,643.7486L393.88999,643.7486L393.88999,643.98862L393.64996,643.98862L393.64996,644.22865L393.40993,644.22865
				L393.40993,644.46868L393.16989,644.46868L393.16989,644.7087L392.92986,644.7087L392.92986,644.94873L392.92986,645.18875L392.68983,645.18875
				L392.68983,645.42878L392.4498,645.42878L392.20977,645.42878L392.20977,645.6688L392.20977,645.90883L391.96974,645.90883L391.96974,646.14885
				L391.72971,646.14885L391.72971,646.38888L391.48968,646.38888L391.48968,646.62891L391.24965,646.62891L391.24965,646.86893
				L391.00962,646.86893L391.00962,647.10896L390.76959,647.10896L390.76959,647.34898L390.52956,647.34898L390.52956,647.58901
				L390.52956,647.82903L390.28953,647.82903L390.28953,648.06906L390.0495,648.06906L390.0495,648.30908L389.80947,648.30908L389.80947,648.54911
				L389.56944,648.54911L389.56944,648.78914L389.32941,648.78914L389.32941,649.02916L389.08938,649.02916L389.08938,649.26919
				L388.84935,649.26919L388.84935,649.50921L388.84935,649.74924L388.60932,649.74924L388.60932,649.98926L388.36929,649.98926
				L388.36929,650.22929L388.12926,650.22929L388.12926,650.46932L387.88922,650.46932L387.88922,650.70934L387.64919,650.70934
				L387.64919,650.94937L387.40916,650.94937L387.40916,651.18939L387.16913,651.18939L387.16913,651.42942L386.9291,651.42942L
				386.9291,651.66944L386.68907,651.66944L386.68907,651.90947L386.68907,652.14949L386.44904,652.14949L386.44904,652.38952L386.20901,652.38952
				L386.20901,652.62955L385.96898,652.62955L385.96898,652.86957L385.72895,652.86957L385.72895,653.1096L385.48892,653.1096L385.48892,653.34962
				L385.24889,653.34962L385.24889,653.58965L385.24889,653.82967L385.00886,653.82967L385.00886,654.0697L384.76883,654.0697L384.5288,654.0697
				L384.5288,654.30972L384.5288,654.54975L384.28877,654.54975L384.28877,654.78978L384.04874,654.78978L384.04874,655.0298L384.04874,655.26983
				L383.80871,655.26983L383.56868,655.26983L383.56868,655.50985L383.32865,655.50985L383.32865,655.74988L383.32865,655.9899L
				383.08862,655.9899L383.08862,656.22993L382.84859,656.22993L382.84859,656.46995L382.60855,656.46995L382.60855,656.70998L382.36852,656.70998
				L382.36852,656.95001L382.36852,657.91011L382.36852,659.35026L382.60855,659.35026L382.60855,660.55039L382.60855,661.75052
				L382.84859,661.75052L382.84859,662.71062L382.84859,663.91075L383.08862,663.91075L383.08862,665.3509L383.08862,666.79105L
				383.08862,668.47123L383.32865,668.47123L383.32865,669.43134L383.32865,670.39144L383.56868,670.39144L383.56868,671.35154L
				383.56868,672.07162L383.80871,672.07162L383.80871,672.31164L384.04874,672.31164L384.28877,672.31164L384.28877,672.55167L
				384.5288,672.55167L384.76883,672.55167L384.76883,672.79169L385.00886,672.79169L385.00886,673.03172L385.24889,673.03172L385.24889,673.27174
				L385.48892,673.27174L385.48892,673.51177L385.72895,673.51177L385.72895,673.7518L385.72895,673.99182L384.76883,673.99182L
				384.76883,673.7518L384.5288,673.7518L384.5288,673.51177L384.28877,673.51177L384.04874,673.51177L384.04874,673.27174L383.80871,673.27174
				L383.80871,673.03172L383.56868,673.03172L383.32865,673.03172L383.32865,672.79169L383.08862,672.79169L383.08862,672.55167
				L382.84859,672.55167L382.84859,672.31164L382.60855,672.31164L382.60855,672.07162L382.60855,671.83159L382.36852,671.83159
				L382.36852,671.59157L382.36852,671.35154L382.12849,671.35154L382.12849,671.11151L382.12849,670.63146L381.88846,670.63146
				L381.88846,670.15141L381.88846,669.67136L381.88846,669.19131L381.64843,669.19131L381.64843,668.71126L381.64843,668.23121
				L381.4084,668.23121L381.4084,667.03108L381.4084,666.311L381.16837,666.311L381.16837,665.3509L381.16837,664.3908L380.92834,664.3908
				L380.92834,663.91075L380.92834,663.4307L380.68831,663.4307L380.68831,662.95065L380.68831,662.47059L380.68831,662.23057L380.44828,662.23057
				L380.44828,661.75052L380.44828,661.27047L380.20825,661.27047L380.20825,661.03044L380.20825,660.79041L379.96822,660.79041
				L379.96822,660.55039L379.72819,660.55039L379.72819,660.31036L379.72819,660.07034L379.48816,660.07034L379.24813,660.07034
				L379.24813,659.83031L379.24813,659.35026L379.0081,659.35026L379.0081,659.11024L379.0081,658.87021L378.76807,658.87021L378.76807,658.63018
				L378.76807,658.39016L378.52804,658.39016L378.52804,658.15013L378.52804,657.67008L378.28801,657.67008L378.28801,657.43006
				L378.28801,657.19003L378.28801,656.95001L378.04798,656.95001L378.04798,656.22993L378.04798,655.50985L377.80795,655.50985
				L377.80795,655.26983L377.80795,655.0298L377.56791,655.0298L377.56791,654.78978L377.32788,654.78978L377.32788,654.54975L377.08785,654.54975
				L377.08785,654.30972L377.08785,654.0697L376.84782,654.0697L376.84782,653.82967L376.84782,653.58965L376.60779,653.58965L376.60779,653.34962
				L376.60779,653.1096L376.36776,653.1096L376.36776,652.86957L376.12773,652.86957L376.12773,652.62955L376.12773,652.38952L375.8877,652.38952
				L375.8877,652.14949L375.8877,651.90947L375.8877,651.66944L375.64767,651.66944L375.64767,651.42942L375.64767,651.18939L375.40764,651.18939
				L375.40764,650.94937L375.40764,650.70934L375.16761,650.70934L375.16761,650.46932L374.92758,650.46932L374.92758,650.22929
				L374.92758,649.98926L374.68755,649.98926L374.68755,649.50921L374.68755,649.26919L374.68755,649.02916L374.44752,649.02916
				L374.44752,648.78914L374.44752,648.54911L374.20749,648.54911L374.20749,648.30908L374.20749,648.06906L373.96746,648.06906
				L373.96746,647.82903L373.96746,647.58901L373.72743,647.58901L373.72743,647.10896L373.72743,646.86893L373.4874,646.86893L
				373.4874,646.62891L373.4874,646.14885L373.24737,646.14885L373.24737,645.90883L373.24737,645.18875L373.24737,643.98862L373.4874,643.98862
				L373.4874,643.02852L373.4874,642.7885L373.72743,642.7885L373.72743,642.06842L373.72743,641.82839L373.96746,641.82839L373.96746,641.58837
				L374.20749,641.58837L374.20749,641.34834L374.20749,641.10832L374.44752,641.10832L374.44752,640.86829L374.44752,640.14822
				L374.68755,640.14822L374.68755,639.90819L374.68755,639.42814L374.68755,639.18811L374.92758,639.18811L374.92758,638.94809
				L374.92758,638.70806L375.16761,638.70806L375.16761,638.46804L375.16761,638.22801L375.40764,638.22801L375.40764,637.74796
				L375.40764,637.50793L375.64767,637.50793L375.64767,637.26791L375.64767,636.78786L375.8877,636.78786L375.8877,635.82775L375.8877,635.3477
				L375.8877,634.14758L376.12773,634.14758L376.12773,632.94745L376.12773,631.98735L376.36776,631.98735L376.36776,630.78722L
				376.36776,630.30717L376.60779,630.30717L376.60779,629.34706L376.60779,628.86701L376.84782,628.86701L376.84782,628.38696L
				376.84782,627.90691L377.08785,627.90691L377.08785,627.66689L377.08785,627.18683L377.08785,626.94681L377.32788,626.94681L
				377.32788,626.46676L377.32788,625.98671L377.56791,625.98671L377.56791,625.50666L377.56791,625.26663L377.80795,625.26663L
				377.80795,624.78658L377.80795,624.54655L378.04798,624.54655L378.04798,624.0665L378.04798,623.82648L378.28801,623.82648L378.28801,623.34642
				L378.28801,623.1064L378.28801,622.86637L378.52804,622.86637L378.52804,622.38632L378.52804,622.1463L378.76807,622.1463L378.76807,621.90627
				L378.76807,621.66625L379.0081,621.66625L379.0081,621.42622L379.0081,620.94617L379.24813,620.94617L379.24813,620.70614L379.24813,620.46612
				L379.48816,620.46612L379.48816,621.18619L379.48816,622.38632L379.48816,623.58645L379.72819,623.58645L379.72819,624.78658
				L379.72819,626.22673L379.96822,626.22673L379.96822,627.42686L379.96822,628.62699L380.20825,628.62699L380.20825,629.82712
				L380.20825,631.02724L380.44828,631.02724L380.44828,632.22737L380.44828,633.4275L380.68831,633.4275L380.68831,634.62763L380.68831,635.82775
				L380.68831,637.26791L380.92834,637.26791L380.92834,637.98799L380.92834,637.74796L381.16837,637.74796L381.4084,637.74796L
				381.4084,637.50793L381.64843,637.50793L381.64843,637.26791L381.88846,637.26791L381.88846,637.02788L382.12849,637.02788L382.36852,637.02788
				L382.36852,636.78786L382.60855,636.78786L382.84859,636.78786L382.84859,636.54783L383.08862,636.54783L383.08862,636.30781
				L383.32865,636.30781L383.32865,636.06778L383.56868,636.06778L383.80871,636.06778L383.80871,635.82775L384.04874,635.82775
				L384.04874,635.58773L384.28877,635.58773L384.5288,635.58773L384.5288,635.3477L384.76883,635.3477L385.00886,635.3477L385.00886,635.10768
				L385.24889,635.10768L385.24889,634.86765L385.48892,634.86765L385.48892,634.62763L385.72895,634.62763L385.72895,634.3876L
				385.96898,634.3876L386.20901,634.3876L386.44904,634.3876L386.44904,634.14758L386.68907,634.14758L386.68907,633.90755L386.9291,633.90755
				L386.9291,633.66752L387.16913,633.66752L387.40916,633.66752L387.40916,633.4275L387.64919,633.4275L387.64919,633.18747L387.88922,633.18747
				L387.88922,632.94745L387.88922,632.4674L388.12926,632.4674L388.12926,632.22737L388.12926,631.98735L388.12926,631.74732L388.36929,631.74732
				L388.36929,631.50729L388.36929,631.26727L388.60932,631.26727L388.60932,631.02724L388.60932,630.78722L388.84935,630.78722
				L388.84935,630.54719L388.84935,630.30717L389.08938,630.30717L389.08938,630.06714L389.08938,629.82712L389.32941,629.82712
				L389.32941,629.58709L389.32941,629.34706L389.56944,629.34706L389.56944,629.10704L389.80947,629.10704L389.80947,628.86701
				L389.80947,628.62699L390.0495,628.62699L390.0495,628.38696L390.28953,628.38696L390.28953,628.14694L390.28953,627.90691L390.52956,627.90691
				L390.52956,627.66689L390.52956,627.42686L390.52956,627.18683L390.76959,627.18683L390.76959,626.94681L391.00962,626.94681
				L391.00962,626.70678L391.00962,626.46676L391.24965,626.46676L391.24965,626.22673L391.24965,625.98671L391.48968,625.98671
				L391.48968,625.74668L391.72971,625.74668L391.72971,625.50666L391.72971,625.26663L391.96974,625.26663L391.96974,625.0266L
				391.96974,624.78658L392.20977,624.78658L392.20977,624.54655L392.4498,624.54655L392.4498,624.30653L392.4498,624.0665L392.68983,624.0665
				L392.68983,623.82648L392.68983,623.58645L392.92986,623.58645L392.92986,623.34642L392.92986,623.1064L393.16989,623.1064L393.16989,622.86637
				L393.16989,622.62635L393.40993,622.62635L393.40993,622.38632L393.40993,622.1463L393.64996,622.1463L393.64996,621.90627L393.88999,621.90627
				L393.88999,621.66625L393.88999,621.42622L394.13002,621.42622L394.13002,621.18619L394.13002,620.94617L394.37005,620.94617
				L394.37005,620.70614L394.61008,620.70614L394.61008,620.46612L394.61008,620.22609L394.85011,620.22609L394.85011,619.98607
				L394.85011,619.74604L395.09014,619.74604L395.09014,619.50602L395.33017,619.50602L395.33017,619.26599L395.33017,619.02596
				L395.33017,618.78594L395.5702,618.78594L395.5702,618.54591L395.81023,618.54591L395.81023,618.30589L395.81023,618.06586L396.05026,618.06586
				L396.05026,617.82584L396.29029,617.82584L396.29029,617.58581L396.29029,617.34579L396.53032,617.34579L396.53032,617.10576
				L396.53032,616.86573L396.77035,616.86573L396.77035,616.62571L396.77035,616.38568L397.01038,616.38568L397.01038,616.14566
				L397.25041,616.14566L397.25041,615.90563L397.25041,615.66561L397.49044,615.66561L397.49044,615.42558L397.49044,615.18556
				L397.73047,615.18556L397.73047,614.94553L397.73047,614.7055L397.9705,614.7055L397.9705,614.46548L397.73047,614.46548L397.73047,614.22545
				L397.49044,614.22545L397.49044,613.98543L397.25041,613.98543L397.25041,613.7454L397.01038,613.7454L397.01038,613.50538L396.77035,613.50538
				L396.77035,613.26535L396.53032,613.26535L396.53032,613.02533L396.29029,613.02533L396.29029,612.7853L396.05026,612.7853L396.05026,612.54527
				L395.81023,612.54527L395.81023,612.30525L395.5702,612.30525L395.5702,612.06522L395.33017,612.06522L395.33017,611.8252L395.09014,611.8252
				L395.09014,611.58517L394.85011,611.58517L394.85011,611.34515L394.61008,611.34515L394.61008,611.10512L394.37005,611.10512
				L394.37005,610.86509L394.13002,610.86509L394.13002,610.62507L393.88999,610.62507L393.88999,610.38504L393.64996,610.38504
				L393.64996,610.14502L393.40993,610.14502L393.16989,610.14502L393.16989,609.90499L392.92986,609.90499L392.92986,609.66497
				L392.92986,609.42494L392.68983,609.42494L392.68983,609.18492L392.4498,609.18492L392.4498,608.94489L392.4498,608.70486L392.68983,608.70486
				L392.68983,608.46484L392.68983,608.22481L392.92986,608.22481L392.92986,607.98479L392.92986,607.74476L392.92986,607.50474
				L393.16989,607.50474L393.16989,607.26471L393.16989,607.02469L393.40993,607.02469L393.40993,606.54463L393.40993,606.30461
				L393.64996,606.30461L393.88999,606.30461L393.88999,606.54463L393.88999,606.78466L394.13002,606.78466L394.13002,607.02469
				L394.13002,607.26471L394.37005,607.26471L394.37005,607.50474L394.37005,607.74476L394.61008,607.74476L394.61008,607.98479
				L394.85011,607.98479L394.85011,608.22481L394.85011,608.46484L395.09014,608.46484L395.09014,608.70486L395.5702,608.70486L
				396.29029,608.70486L396.53032,608.70486L397.25041,608.70486L397.25041,608.94489L397.9705,608.94489L397.9705,608.70486L398.21053,608.70486
				L398.21053,608.46484L398.21053,607.74476L398.45057,607.74476L398.45057,607.26471L398.45057,606.78466L398.6906,606.78466L
				398.6906,606.30461L398.6906,605.34451L398.93063,605.34451L398.93063,605.10448L398.6906,605.10448L398.6906,604.62443L398.6906,604.3844
				L398.45057,604.3844L398.45057,603.90435L398.6906,603.90435L398.6906,604.14438L398.93063,604.14438L398.93063,604.3844L399.17066,604.3844
				L399.17066,604.62443L399.41069,604.62443L399.41069,604.86446L399.65072,604.86446L399.65072,605.10448L399.89075,605.10448
				L400.13078,605.10448L400.13078,605.34451L400.37081,605.34451L400.37081,605.58453L400.61084,605.58453L400.61084,605.82456
				L400.85087,605.82456L400.85087,606.06458L401.0909,606.06458L401.33093,606.06458L401.33093,606.30461L401.57096,606.30461L
				401.57096,606.54463L401.81099,606.54463L401.81099,603.90435L401.81099,601.5041L402.05102,601.5041L402.05102,600.30397L402.29105,600.30397
				L402.53108,600.30397L402.53108,600.54399L402.77111,600.54399L402.77111,600.78402L402.77111,601.02405L403.01114,601.02405
				L403.01114,601.26407L403.25117,601.26407L403.4912,601.26407L403.4912,601.5041L403.73124,601.5041L403.97127,601.5041L403.97127,601.74412
				L404.2113,601.74412L404.2113,601.98415L404.2113,602.22417L404.45133,602.22417L404.69136,602.22417L404.69136,602.4642L404.93139,602.4642
				L404.93139,602.70423L405.17142,602.70423L405.17142,602.4642L405.17142,602.22417L405.17142,601.98415L405.41145,601.98415L
				405.41145,601.74412L405.41145,601.5041L405.41145,601.26407L405.17142,601.26407L405.17142,600.30397L404.93139,600.30397L404.93139,600.06394
				L404.93139,599.82392L404.69136,599.82392L404.69136,599.58389L404.45133,599.58389L404.45133,599.34387L404.2113,599.34387L
				404.2113,599.10384L403.97127,599.10384L403.73124,599.10384L403.73124,598.86382L403.4912,598.86382L403.4912,598.62379L403.25117,598.62379
				L403.25117,598.38376L402.29105,598.38376L402.53108,598.38376L402.53108,598.14374L402.77111,598.14374L402.53108,598.14374
				L402.53108,597.66369L402.77111,597.66369L402.77111,597.42366L403.01114,597.42366L403.01114,597.66369L403.4912,597.66369L
				403.97127,597.66369L403.97127,597.90371L404.69136,597.90371L405.17142,597.90371L405.65148,597.90371L405.65148,598.14374L
				406.13154,598.14374L406.6116,598.14374L406.6116,598.38376L407.09166,598.38376L407.33169,598.38376L407.33169,598.62379L407.57172,598.62379
				L407.57172,598.86382L407.81175,598.86382L407.81175,599.10384L408.05178,599.10384L408.29181,599.10384L408.29181,599.34387
				L408.05178,599.34387L408.05178,599.58389L408.05178,599.82392L407.81175,599.82392L407.81175,600.06394L407.81175,600.30397
				L407.57172,600.30397L407.57172,600.54399L407.57172,600.78402L407.57172,601.26407L407.81175,601.26407L407.81175,601.5041L
				408.05178,601.5041L408.29181,601.5041L408.53184,601.5041L408.53184,601.74412L408.77187,601.74412L409.01191,601.74412L409.01191,601.98415
				L409.25194,601.98415L409.49197,601.98415L409.49197,602.22417L409.732,602.22417L409.97203,602.22417L409.97203,601.98415L409.97203,601.74412
				L410.21206,601.74412L410.21206,601.5041L410.45209,601.5041L410.69212,601.5041L410.69212,601.26407L410.93215,601.26407L410.93215,601.02405
				L411.17218,601.02405L411.41221,601.02405L411.41221,600.78402L411.65224,600.78402L411.65224,600.54399L411.89227,600.54399
				L411.89227,600.78402"/>
			<path clip-path="url(#SVG_CP_2)" fill="none" stroke="#999999" stroke-width="0.96012" stroke-miterlimit="10" stroke-linecap="round" stroke-linejoin="round" d="
				M411.89227,600.78402L412.1323,600.78402L412.1323,601.02405L412.37233,601.02405L412.37233,601.26407L412.37233,601.5041L412.61236,601.5041
				L412.61236,601.74412L412.61236,601.98415L412.85239,601.98415L412.85239,602.22417L412.85239,602.4642L413.09242,602.4642L413.09242,602.70423
				L413.33245,602.70423L413.33245,602.94425L413.33245,603.18428L413.57248,603.18428L413.57248,603.4243L413.57248,603.66433L
				413.81251,603.66433L413.81251,603.90435L413.81251,604.14438L414.05254,604.14438L414.05254,604.3844L414.29258,604.3844L414.29258,604.62443
				L414.05254,604.62443L414.05254,605.10448L414.05254,605.34451L414.29258,605.34451L414.29258,605.58453L414.29258,605.82456
				L414.53261,605.82456L414.53261,606.30461L414.29258,606.30461L414.29258,606.54463L414.05254,606.54463L413.81251,606.54463
				L413.81251,606.78466L413.57248,606.78466L413.33245,606.78466L413.33245,607.02469L413.09242,607.02469L412.85239,607.02469
				L412.85239,607.26471L413.09242,607.26471L413.09242,607.50474L413.09242,607.74476L413.33245,607.74476L413.33245,607.98479
				L413.33245,608.22481L413.57248,608.22481L413.57248,608.46484L413.57248,608.70486L413.57248,608.94489L413.81251,608.94489
				L413.81251,609.18492L413.81251,609.42494L414.05254,609.42494L414.05254,609.66497L414.05254,609.90499L414.29258,609.90499
				L414.29258,610.14502L414.29258,610.38504L414.53261,610.38504L414.53261,610.62507L414.77264,610.62507L414.77264,610.86509
				L415.01267,610.86509L415.01267,611.10512L415.01267,611.34515L415.2527,611.34515L416.69288,611.34515L417.17294,611.34515L
				417.17294,611.10512L417.41297,611.10512"/>
			<path clip-path="url(#SVG_CP_2)" fill="none" stroke="#999999" stroke-width="0.96012" stroke-miterlimit="10" stroke-linecap="round" stroke-linejoin="round" d="
				M409.25194,626.94681L409.25194,626.70678L409.49197,626.70678L409.49197,626.46676L409.732,626.46676L409.732,626.22673L409.97203,626.22673
				L409.97203,625.98671L410.21206,625.98671L410.21206,625.74668L410.45209,625.74668L410.45209,625.50666L410.69212,625.50666
				L410.69212,625.26663L410.93215,625.26663L410.93215,625.0266L411.17218,625.0266L411.17218,624.78658L411.41221,624.78658L411.41221,624.54655
				L411.65224,624.54655L411.65224,624.30653L411.89227,624.30653L411.89227,624.0665L412.1323,624.0665L412.1323,623.82648L412.37233,623.82648
				L412.37233,623.58645L412.61236,623.58645L412.61236,623.34642L412.61236,623.1064L412.85239,623.1064L412.85239,622.86637L413.09242,622.86637
				L413.09242,622.62635L413.33245,622.62635L413.33245,622.38632L413.57248,622.38632L413.57248,622.1463L413.57248,621.90627L
				413.81251,621.90627L413.81251,621.66625L414.05254,621.66625L414.05254,621.42622L414.29258,621.42622L414.29258,621.18619L
				414.29258,620.94617L414.53261,620.94617L414.77264,620.94617L414.77264,620.70614L414.77264,620.46612L415.01267,620.46612L
				415.01267,620.22609L415.01267,619.98607L415.2527,619.98607L415.2527,619.74604L415.49273,619.74604L415.49273,619.50602L415.73276,619.50602
				L415.73276,619.26599L415.97279,619.26599L415.97279,619.02596L415.97279,618.78594L416.21282,618.78594L416.21282,618.54591
				L416.45285,618.54591L416.45285,618.30589L416.45285,618.06586L416.69288,618.06586L416.69288,617.82584L416.93291,617.82584
				L416.93291,617.58581L417.17294,617.58581L417.17294,617.34579L417.17294,617.10576L417.41297,617.10576L417.41297,616.86573
				L417.41297,616.62571L417.653,616.62571L417.653,616.38568L417.89303,616.38568L417.89303,616.14566L418.13306,616.14566L418.13306,615.90563
				L418.13306,615.66561L418.37309,615.66561L418.37309,615.42558L418.61312,615.42558L418.61312,615.18556L418.61312,614.94553
				L418.85315,614.94553L418.85315,612.30525L418.61312,612.30525L418.61312,612.06522L418.37309,612.06522L418.37309,611.8252L
				418.13306,611.8252L418.13306,611.58517L417.89303,611.58517L417.89303,611.34515L417.653,611.34515L417.653,611.10512L417.41297,611.10512
				L417.41297,610.86509L417.41297,610.62507L417.17294,610.62507L417.17294,610.38504L416.93291,610.38504L416.93291,610.14502
				L416.69288,610.14502L416.69288,609.90499L416.45285,609.90499L416.45285,609.66497L416.45285,609.42494L416.21282,609.42494
				L416.21282,609.18492L416.21282,608.94489L415.97279,608.94489L415.97279,608.70486L415.73276,608.70486L415.73276,608.46484
				L415.97279,608.46484L415.97279,608.22481L416.21282,608.22481L416.21282,607.98479L416.21282,607.74476L416.45285,607.74476
				L416.45285,607.50474L416.69288,607.50474L416.69288,607.26471L416.69288,607.02469L416.93291,607.02469L416.93291,606.78466
				L417.17294,606.78466L417.17294,606.54463L417.17294,606.30461L417.41297,606.30461L417.41297,606.06458L417.653,606.06458L417.653,605.82456
				L417.653,605.58453L417.89303,605.58453L417.89303,605.34451L417.653,605.34451L417.653,605.10448L417.41297,605.10448L417.41297,604.86446
				L417.17294,604.86446L417.17294,604.62443L416.93291,604.62443L416.93291,604.3844L416.69288,604.3844L416.69288,604.14438L416.45285,604.14438
				L416.45285,603.90435L416.21282,603.90435L415.97279,603.90435L415.97279,603.66433L415.97279,603.4243L416.21282,603.4243L416.21282,603.18428
				L416.21282,602.94425L416.45285,602.94425L416.45285,602.70423L416.69288,602.70423L416.69288,602.4642L416.93291,602.4642L416.93291,602.22417
				L417.17294,602.22417L417.17294,601.98415L417.17294,601.74412L417.41297,601.74412L417.41297,601.5041L417.41297,601.26407L
				417.41297,601.02405L417.17294,601.02405L417.17294,600.78402L416.93291,600.78402L416.93291,600.54399L416.69288,600.54399L
				416.69288,600.30397L416.45285,600.30397L416.45285,600.06394L416.21282,600.06394L416.21282,599.82392L416.21282,599.58389L
				415.97279,599.58389L415.97279,599.34387L415.73276,599.34387L415.97279,599.34387L415.97279,599.10384L416.21282,599.10384L
				416.21282,598.86382L416.45285,598.86382L416.45285,598.62379L416.69288,598.62379L416.69288,598.38376L416.93291,598.38376L
				416.93291,598.14374L417.17294,598.14374L417.17294,597.90371L417.41297,597.90371L417.41297,597.66369L417.653,597.66369L417.653,597.42366
				L417.653,597.18364L417.89303,597.18364L417.89303,596.94361L417.89303,596.70359L418.13306,596.70359L418.13306,596.46356L418.37309,596.46356
				L418.37309,596.22353L418.37309,595.98351L418.61312,595.98351L418.61312,595.74348L418.61312,595.50346L418.61312,595.26343
				L418.85315,595.26343L418.85315,595.02341L419.09318,595.02341L419.09318,594.78338L419.09318,594.54336L419.33322,594.54336
				L419.33322,594.30333L419.57325,594.30333L419.57325,594.54336L419.81328,594.54336L419.81328,594.78338L420.05331,594.78338
				L420.05331,595.02341L420.29334,595.02341L420.29334,595.26343L420.53337,595.26343L420.7734,595.26343L420.7734,595.50346L421.01343,595.50346
				L421.01343,595.74348L421.01343,595.50346L421.25346,595.50346L421.25346,595.26343L421.73352,595.26343L422.21358,595.26343
				L422.45361,595.26343L422.45361,595.50346L422.93367,595.50346L425.33398,595.50346L425.33398,595.74348L425.09395,595.74348
				L425.09395,595.98351L425.33398,595.98351L425.33398,596.46356L425.09395,596.46356L425.09395,596.70359L425.09395,596.94361
				L425.09395,597.18364L425.33398,597.18364L425.57401,597.18364L425.57401,597.42366L425.81404,597.42366L425.81404,597.66369
				L426.05407,597.66369L426.05407,597.90371L426.2941,597.90371L426.53413,597.90371L426.53413,598.14374L426.77416,598.14374L
				427.01419,598.14374L427.01419,598.38376L427.25422,598.38376L427.25422,598.62379L427.49425,598.62379L427.49425,598.86382L
				427.73428,598.86382L427.97431,598.86382L427.97431,599.10384L428.21434,599.10384L428.45437,599.10384L428.45437,599.34387L
				428.6944,599.34387L428.6944,599.58389L428.93443,599.58389L428.93443,599.82392L429.17446,599.82392L429.41449,599.82392L429.41449,600.06394
				L429.65452,600.06394L429.65452,600.30397L429.89456,600.30397L430.13459,600.30397L430.13459,600.54399L430.37462,600.54399
				L430.37462,600.78402L430.61465,600.78402L430.85468,600.78402L430.85468,601.02405L431.09471,601.02405L431.09471,601.26407
				L430.85468,601.26407L430.61465,601.26407L430.61465,601.5041L430.37462,601.5041L430.13459,601.5041L429.89456,601.5041L429.89456,601.74412
				L429.65452,601.74412L429.65452,601.98415L429.89456,601.98415L429.89456,602.22417L429.89456,602.4642L430.13459,602.4642L430.13459,602.70423
				L430.37462,602.70423L430.37462,602.94425L430.37462,603.18428L430.61465,603.18428L430.61465,603.4243L430.61465,603.66433L
				430.85468,603.66433L430.85468,603.90435L430.85468,604.14438L430.61465,604.14438L430.61465,604.3844L430.37462,604.3844L430.13459,604.3844
				L430.13459,604.62443L429.89456,604.62443L429.65452,604.62443L429.65452,604.86446L429.41449,604.86446L429.17446,604.86446
				L429.17446,605.10448L428.93443,605.10448L428.6944,605.10448L428.45437,605.10448L428.45437,605.34451L428.21434,605.34451L
				427.97431,605.34451L427.97431,605.58453L427.73428,605.58453L427.49425,605.58453L427.49425,605.82456L427.25422,605.82456L
				427.01419,605.82456L427.01419,606.06458L426.77416,606.06458L426.53413,606.06458L426.53413,606.30461L426.2941,606.30461L426.05407,606.30461
				L425.81404,606.30461L425.81404,606.54463L425.57401,606.54463L425.33398,606.54463L425.33398,606.78466L425.09395,606.78466
				L425.33398,606.78466L425.33398,607.02469L425.33398,607.26471L425.57401,607.26471L425.57401,607.50474L425.81404,607.50474
				L425.81404,607.74476L425.81404,607.98479L425.81404,608.22481L426.05407,608.22481L426.05407,608.46484L426.05407,608.70486
				L426.2941,608.70486L426.2941,608.94489L426.53413,608.94489L426.53413,609.18492L426.53413,609.42494L426.77416,609.42494L426.77416,609.66497
				L426.77416,609.90499L427.01419,609.90499L427.01419,610.14502L427.01419,610.38504L427.25422,610.38504L427.25422,610.86509
				L427.25422,611.10512L427.49425,611.10512L427.49425,611.34515L427.49425,611.58517L427.73428,611.58517L427.73428,611.8252L
				427.73428,612.06522L427.97431,612.06522L427.97431,612.54527L428.21434,612.54527L428.21434,613.02533L428.21434,613.26535L
				428.45437,613.26535L428.45437,613.50538L428.45437,613.7454L428.45437,613.98543L428.6944,613.98543L428.6944,614.22545L428.6944,614.7055
				L428.93443,614.7055L429.41449,614.7055L429.41449,614.46548L429.65452,614.46548L429.65452,614.22545L429.89456,614.22545L430.13459,614.22545
				L430.13459,613.98543L430.37462,613.98543L430.37462,613.7454L430.61465,613.7454L430.85468,613.7454L430.85468,613.50538L431.09471,613.50538
				L431.09471,613.26535L431.33474,613.26535L431.57477,613.26535L431.57477,613.02533L431.8148,613.02533L432.05483,613.02533L
				432.05483,612.7853L432.29486,612.7853L432.29486,612.54527L432.53489,612.54527L432.53489,612.7853L433.01495,612.7853L433.25498,612.7853
				L433.25498,613.02533L433.49501,613.02533L433.49501,613.26535L433.73504,613.26535L433.73504,613.50538L433.97507,613.50538
				L434.2151,613.50538L434.2151,613.7454L434.45513,613.7454L434.45513,613.98543L434.69516,613.98543L434.69516,614.22545L434.69516,614.46548
				L434.9352,614.46548L434.9352,614.7055L435.17523,614.7055L435.17523,614.94553L435.41526,614.94553L435.41526,615.18556L435.65529,615.18556
				L435.65529,615.42558L435.65529,615.66561L435.65529,615.90563L435.89532,615.90563L435.89532,616.14566L436.13535,616.14566
				L436.13535,616.38568L436.13535,616.62571L436.37538,616.62571L436.37538,616.86573L436.61541,616.86573L436.61541,617.10576
				L436.61541,617.34579L436.85544,617.34579L436.85544,617.58581L436.61541,617.58581L436.61541,617.82584L436.37538,617.82584
				L436.13535,617.82584L436.13535,618.06586L435.89532,618.06586L435.65529,618.06586L435.65529,618.30589L435.41526,618.30589
				L435.41526,618.54591L435.17523,618.54591L434.9352,618.54591L434.69516,618.54591L434.69516,618.78594L434.45513,618.78594L
				434.45513,619.02596L434.45513,619.26599L434.69516,619.26599L434.69516,619.50602L434.69516,619.74604L434.9352,619.74604L434.9352,619.98607
				L434.9352,620.22609L435.17523,620.22609L435.17523,620.70614L435.17523,620.94617L435.41526,620.94617L435.41526,621.18619L
				435.65529,621.18619L435.65529,621.42622L435.65529,621.66625L435.89532,621.66625L435.89532,621.90627L435.89532,622.1463L436.13535,622.1463
				L436.13535,622.38632L436.37538,622.38632L436.37538,622.62635L436.61541,622.62635L436.61541,622.86637L436.61541,623.1064L
				436.85544,623.1064L436.85544,623.34642L436.85544,623.58645L437.09547,623.58645L437.09547,623.82648L437.3355,623.82648L437.3355,624.0665
				L437.57553,624.0665L437.57553,624.30653L437.81556,624.30653L438.53565,624.30653L438.53565,624.54655L439.25574,624.54655L
				439.97583,624.54655L439.97583,624.78658L440.69593,624.78658L441.65605,624.78658L442.37614,624.78658L442.37614,625.0266L443.09623,625.0266
				L443.81632,625.0266L443.81632,625.26663L445.73657,625.26663L445.73657,625.0266L447.17675,625.0266L447.17675,625.26663L446.93672,625.26663
				L446.69669,625.26663L446.69669,625.50666L446.45666,625.50666L446.45666,625.74668L446.21663,625.74668L445.73657,625.74668
				L445.73657,625.98671L445.49654,625.98671L445.2565,625.98671L445.01647,625.98671L445.01647,626.22673L444.77644,626.22673L
				444.53641,626.22673L444.53641,626.46676L444.29638,626.46676L444.05635,626.46676L444.05635,626.70678L443.81632,626.70678L
				443.57629,626.70678L443.57629,626.94681L443.57629,627.18683L443.33626,627.18683L443.33626,627.42686L443.09623,627.42686L
				443.09623,627.90691L443.09623,628.14694L443.09623,628.38696L442.8562,628.38696L442.8562,628.62699L442.61617,628.62699L442.61617,628.86701
				L442.61617,629.10704L442.37614,629.10704L442.37614,629.34706L442.37614,629.58709L442.13611,629.58709L442.13611,629.82712
				L442.13611,630.06714L441.89608,630.06714L441.89608,630.54719L441.89608,630.78722L441.65605,630.78722L441.65605,631.02724
				L441.41602,631.02724L441.17599,631.02724L441.17599,631.26727L440.93596,631.26727L440.93596,631.50729L440.93596,631.74732
				L440.69593,631.74732L440.69593,631.98735L440.4559,631.98735L440.4559,632.22737L440.21587,632.22737L440.21587,632.4674L439.97583,632.4674
				L439.97583,632.70742L439.7358,632.70742L439.7358,632.94745L439.49577,632.94745L439.49577,633.18747L439.25574,633.18747L439.25574,633.4275
				L439.01571,633.4275L439.01571,633.66752L438.77568,633.66752L438.77568,633.90755L438.53565,633.90755L438.53565,634.14758L
				438.29562,634.14758L438.05559,634.14758L438.05559,634.3876L437.81556,634.3876L437.81556,634.62763L437.57553,634.62763L437.57553,634.86765
				L437.3355,634.86765L436.85544,634.86765L436.85544,635.10768L436.61541,635.10768L436.61541,635.3477L436.37538,635.3477L435.89532,635.3477
				L435.89532,635.58773L435.65529,635.58773L435.41526,635.58773L435.17523,635.58773L435.17523,635.82775L434.9352,635.82775L
				434.69516,635.82775L434.69516,636.06778L434.45513,636.06778L434.45513,636.30781L433.97507,636.30781L433.73504,636.30781L
				433.73504,636.54783L433.49501,636.54783L433.25498,636.54783L433.25498,636.78786L432.77492,636.78786L432.53489,636.78786L
				432.53489,637.02788L432.29486,637.02788L432.05483,637.02788L431.8148,637.02788L431.8148,637.26791L431.57477,637.26791L431.57477,637.50793
				L431.33474,637.50793L431.09471,637.50793L431.09471,637.74796L430.85468,637.74796L430.61465,637.74796L430.61465,637.98799
				L430.37462,637.98799L430.13459,637.98799L430.13459,638.22801L429.89456,638.22801L429.65452,638.22801L429.41449,638.22801
				L429.41449,638.46804L429.17446,638.46804L429.17446,638.70806L428.93443,638.70806L428.6944,638.70806L428.6944,638.94809L428.45437,638.94809
				L427.97431,638.94809L427.97431,639.18811L427.73428,639.18811L427.73428,639.42814L427.49425,639.42814L427.25422,639.42814
				L427.01419,639.42814L427.01419,639.66816L427.01419,639.90819L426.77416,639.90819L426.77416,640.14822L426.53413,640.14822
				L426.53413,640.38824L426.2941,640.38824L426.05407,640.38824L426.05407,640.62827L425.81404,640.62827L425.81404,640.86829L
				425.57401,640.86829L425.33398,640.86829L425.33398,641.10832L424.85392,641.10832L424.61389,641.10832L424.61389,641.34834L
				424.61389,641.58837L424.37385,641.58837L424.37385,641.82839L424.37385,642.06842L424.13382,642.06842L423.89379,642.06842L
				423.89379,642.30845L423.89379,642.54847L423.65376,642.54847L423.65376,642.7885L423.65376,643.02852L423.41373,643.02852L423.41373,643.26855
				L423.41373,643.50857L423.1737,643.50857L423.1737,643.7486L422.93367,643.7486L422.93367,643.98862L422.69364,643.98862L422.69364,644.22865
				L422.45361,644.22865L422.45361,644.46868L422.21358,644.46868L422.21358,644.7087L422.21358,644.94873L421.97355,644.94873L
				421.97355,645.18875L421.73352,645.18875L421.73352,645.42878L421.49349,645.42878L421.49349,645.6688L421.25346,645.6688L421.25346,645.90883
				L421.01343,645.90883L421.01343,646.14885L420.7734,646.14885L420.7734,646.38888L420.7734,646.62891L420.53337,646.62891L420.29334,646.62891
				L420.29334,646.86893L420.05331,646.86893L420.05331,647.10896L420.05331,647.34898L419.81328,647.34898L419.81328,647.58901
				L419.81328,647.82903L419.57325,647.82903L419.57325,648.06906L419.57325,648.30908L419.33322,648.30908L419.33322,648.54911
				L419.33322,648.78914L419.09318,648.78914L419.09318,649.02916L419.09318,649.50921L418.85315,649.50921L418.85315,650.22929
				L419.09318,650.22929L419.09318,650.46932L419.33322,650.46932L419.33322,650.70934L419.33322,650.94937L419.57325,650.94937
				L419.57325,651.18939L419.57325,652.14949L419.81328,652.14949L419.81328,652.86957L419.81328,653.82967L419.81328,654.0697L
				419.57325,654.0697L419.57325,654.30972L419.57325,654.54975L419.33322,654.54975L419.33322,654.78978L419.09318,654.78978L419.09318,655.0298
				L418.85315,655.0298L418.85315,655.26983L418.61312,655.26983L418.61312,655.50985L418.61312,655.74988L418.37309,655.74988L
				418.37309,655.9899L418.13306,655.9899L418.13306,656.22993L417.89303,656.22993L417.89303,656.46995L417.653,656.46995L417.653,656.70998
				L417.41297,656.70998L417.41297,656.95001L417.41297,657.19003L417.17294,657.19003L417.17294,657.43006L416.93291,657.43006
				L416.93291,657.67008L416.69288,657.67008L416.45285,657.67008L416.45285,657.91011L416.21282,657.91011L416.21282,658.39016
				L416.21282,658.63018L416.45285,658.63018L416.45285,658.87021L416.69288,658.87021L416.69288,659.11024L416.69288,659.35026
				L416.93291,659.35026L416.93291,659.59029L416.93291,659.83031L417.17294,659.83031L417.17294,660.07034L417.41297,660.07034
				L417.41297,660.31036L417.41297,660.55039L417.41297,661.03044L417.653,661.03044L417.653,661.27047L417.653,661.51049L417.89303,661.51049
				L417.89303,661.75052L417.89303,662.47059L417.89303,662.71062L417.653,662.71062L417.653,662.95065L417.41297,662.95065L417.41297,663.19067
				L417.41297,663.4307L417.17294,663.4307L416.93291,663.4307L416.93291,663.67072L416.69288,663.67072L416.45285,663.67072L416.45285,663.91075
				L416.21282,663.91075L415.73276,663.91075L415.73276,664.15077L415.49273,664.15077L415.49273,664.3908L415.01267,664.3908L415.01267,664.63082
				L414.77264,664.63082L414.77264,664.87085L414.53261,664.87085L414.29258,664.87085L414.29258,665.11088L413.81251,665.11088
				L413.33245,665.11088L412.85239,665.11088L412.85239,665.3509L412.61236,665.3509L412.61236,665.59093L412.37233,665.59093L412.37233,665.83095
				L412.1323,665.83095L411.89227,665.83095L411.89227,666.07098L411.65224,666.07098L411.41221,666.07098L411.41221,666.311L411.17218,666.311
				L411.17218,666.55103L410.93215,666.55103L410.69212,666.55103L410.69212,666.79105L410.45209,666.79105L410.45209,667.03108
				L410.21206,667.03108L410.21206,667.27111L409.97203,667.27111L409.732,667.27111L409.732,667.51113L409.49197,667.51113L409.49197,667.75116
				L409.25194,667.75116L409.25194,667.99118L409.01191,667.99118L408.77187,667.99118L408.77187,668.23121L408.53184,668.23121
				L408.53184,668.47123L408.29181,668.47123L408.29181,668.71126L408.05178,668.71126L407.81175,668.71126L407.81175,668.95128
				L407.57172,668.95128L407.57172,669.19131L407.33169,669.19131L407.33169,669.43134L407.33169,669.67136L407.09166,669.67136
				L407.09166,669.91139L406.85163,669.91139L406.85163,670.15141L406.6116,670.15141L406.6116,670.39144L406.37157,670.39144L406.37157,670.63146
				L406.37157,670.87149L406.13154,670.87149L406.13154,671.11151L405.89151,671.11151L405.89151,671.35154L405.89151,671.59157
				L405.65148,671.59157L405.41145,671.59157L405.41145,671.83159L405.17142,671.83159L404.93139,671.83159L404.93139,672.07162
				L404.69136,672.07162L404.2113,672.07162L404.2113,672.31164L403.97127,672.31164L403.73124,672.31164L403.25117,672.31164L403.25117,672.55167
				L402.77111,672.55167L401.81099,672.55167L401.81099,672.79169L400.85087,672.79169L400.85087,672.55167L400.13078,672.55167
				L400.13078,672.79169L399.89075,672.79169L398.21053,672.79169L398.21053,673.03172L398.21053,672.79169L397.73047,672.79169
				L397.73047,673.03172L397.25041,673.03172L396.53032,673.03172L396.53032,673.27174L395.5702,673.27174L395.5702,673.03172L392.92986,673.03172
				L392.92986,673.27174L391.96974,673.27174L391.24965,673.27174L391.24965,673.51177L390.76959,673.51177L390.52956,673.51177
				L390.28953,673.51177L390.28953,673.7518L390.0495,673.7518L389.56944,673.7518L389.56944,673.99182L385.96898,673.99182L385.96898,673.7518
				L386.20901,673.7518L386.68907,673.7518L386.68907,673.51177L386.9291,673.51177L387.16913,673.51177L387.40916,673.51177L387.40916,673.27174
				L389.08938,673.27174L389.08938,673.03172L389.32941,673.03172L389.32941,672.79169L389.56944,672.79169L389.56944,672.55167
				L389.80947,672.55167L390.0495,672.55167L390.0495,672.31164L390.28953,672.31164L390.52956,672.31164L390.76959,672.31164L390.76959,672.07162
				L391.00962,672.07162L391.24965,672.07162L391.24965,671.83159L391.72971,671.83159L392.20977,671.83159L392.20977,671.59157
				L392.92986,671.59157L393.40993,671.59157L393.40993,671.35154L394.13002,671.35154L394.61008,671.35154L394.61008,671.11151
				L395.33017,671.11151L395.81023,671.11151L396.53032,671.11151L396.53032,670.87149L397.01038,670.87149L397.73047,670.87149
				L397.73047,670.63146L398.21053,670.63146L398.6906,670.63146L398.6906,670.39144L399.41069,670.39144L399.89075,670.39144L399.89075,670.15141
				L400.61084,670.15141L401.0909,670.15141L401.0909,669.91139L401.57096,669.91139L402.29105,669.91139L403.01114,669.91139L403.01114,669.67136
				L403.25117,669.67136L403.4912,669.67136L403.4912,669.43134L403.73124,669.43134L403.97127,669.43134L403.97127,669.19131L404.2113,669.19131
				L404.2113,668.95128L404.45133,668.95128L404.45133,668.71126L404.69136,668.71126L404.93139,668.71126L404.93139,668.47123L
				405.17142,668.47123L405.17142,668.23121L405.41145,668.23121L405.41145,667.99118L405.65148,667.99118L405.89151,667.99118L
				405.89151,667.75116L406.13154,667.75116L406.13154,667.51113L406.37157,667.51113L406.6116,667.51113L406.6116,667.27111L406.85163,667.27111
				L406.85163,667.03108L407.09166,667.03108L407.09166,666.79105L407.33169,666.79105L407.57172,666.79105L407.57172,666.55103
				L407.57172,666.311L407.81175,666.311L408.05178,666.311L408.05178,666.07098L408.29181,666.07098L408.53184,666.07098L408.53184,665.83095
				L408.77187,665.83095"/>
			<path clip-path="url(#SVG_CP_2)" fill="none" stroke="#999999" stroke-width="0.96012" stroke-miterlimit="10" stroke-linecap="round" stroke-linejoin="round" d="
				M408.77187,665.83095L408.77187,665.59093L409.01191,665.59093L409.01191,665.3509L409.25194,665.3509L409.49197,665.3509L409.49197,665.11088
				L409.732,665.11088L409.97203,665.11088L409.97203,664.87085L410.21206,664.87085L410.21206,664.63082L410.69212,664.63082L410.93215,664.63082
				L410.93215,664.3908L411.17218,664.3908L411.65224,664.3908L411.65224,664.15077L412.1323,664.15077L412.61236,664.15077L412.61236,663.91075
				L413.33245,663.91075L414.05254,663.91075L414.77264,663.91075L414.77264,663.67072L415.2527,663.67072L415.73276,663.67072L
				415.73276,663.4307L416.21282,663.4307L416.21282,663.19067L416.45285,663.19067L416.69288,663.19067L416.69288,662.95065L416.93291,662.95065
				L416.93291,662.71062L417.17294,662.71062L417.17294,662.47059L417.17294,662.23057L416.93291,662.23057L416.93291,661.99054
				L416.69288,661.99054L416.69288,661.51049L416.45285,661.51049L416.45285,661.27047L416.45285,661.03044L416.21282,661.03044
				L416.21282,660.79041L415.97279,660.79041L415.97279,660.55039L415.97279,660.31036L415.73276,660.31036L415.73276,660.07034
				L415.49273,660.07034L415.49273,659.83031L415.2527,659.83031L415.2527,659.59029L415.01267,659.59029L415.01267,659.35026L415.01267,659.11024
				L414.77264,659.11024L414.29258,659.11024L414.05254,659.11024L413.81251,659.11024L413.81251,658.87021L413.57248,658.87021
				L413.57248,658.63018L413.57248,658.39016L413.57248,658.15013L413.33245,658.15013L413.33245,657.91011L413.33245,657.67008
				L413.09242,657.67008L413.09242,657.43006L412.85239,657.43006L412.85239,657.19003L412.85239,656.95001L412.61236,656.95001
				L412.61236,656.70998L412.85239,656.70998L412.85239,656.46995L412.85239,656.22993L413.09242,656.22993L413.09242,655.9899L
				413.33245,655.9899L413.33245,655.74988L413.57248,655.74988L413.57248,655.50985L413.81251,655.50985L413.81251,655.0298L413.81251,655.26983
				L414.05254,655.26983L414.29258,655.26983L414.29258,655.50985L414.53261,655.50985L414.53261,655.74988L414.53261,655.9899L
				414.77264,655.9899L414.77264,656.22993L415.01267,656.22993L415.01267,656.46995L415.2527,656.46995L415.2527,655.74988L415.2527,655.26983
				L415.01267,655.26983L415.01267,654.54975L415.01267,654.0697L415.01267,653.82967L414.77264,653.82967L414.77264,653.58965L
				414.29258,653.58965L413.81251,653.58965L413.81251,653.34962L413.57248,653.34962L413.57248,653.1096L413.33245,653.1096L413.33245,652.86957
				L413.09242,652.86957L413.09242,652.62955L413.09242,652.14949L412.85239,652.14949L412.85239,651.90947L412.85239,651.66944
				L412.61236,651.66944L412.61236,651.42942L412.37233,651.42942L412.61236,651.42942L412.61236,651.18939L412.85239,651.18939
				L412.85239,650.94937L413.09242,650.94937L413.33245,650.94937L413.33245,650.70934L413.57248,650.70934L413.57248,650.46932
				L414.05254,650.46932L414.29258,650.46932L414.53261,650.46932L414.53261,650.22929L414.77264,650.22929L415.01267,650.22929
				L415.01267,649.98926L415.01267,649.74924L415.2527,649.74924L415.49273,649.74924L415.49273,649.50921L415.49273,649.26919L
				415.73276,649.26919L415.73276,649.02916L415.73276,648.78914L415.97279,648.78914L415.97279,648.30908L415.97279,647.82903L
				416.21282,647.82903L416.21282,647.34898L416.21282,646.38888L416.21282,645.90883L416.45285,645.90883L416.45285,645.42878L
				416.69288,645.42878L416.69288,645.18875L416.69288,644.94873L416.93291,644.94873L416.93291,644.7087L417.17294,644.7087L417.17294,644.46868
				L417.17294,644.22865L417.41297,644.22865L417.41297,643.98862L417.653,643.98862L417.653,643.7486L417.89303,643.7486L417.89303,643.50857
				L418.13306,643.50857L418.13306,643.26855L418.13306,643.02852L418.37309,643.02852L418.61312,643.02852L418.61312,642.7885L
				418.61312,642.54847L418.85315,642.54847L418.85315,642.30845L418.85315,642.06842L419.09318,642.06842L419.09318,641.82839L
				419.33322,641.82839L419.33322,641.58837L419.33322,641.34834L419.57325,641.34834L419.57325,641.10832L419.57325,639.90819L
				419.57325,639.42814L419.33322,639.42814L419.33322,639.18811L419.33322,638.94809L419.09318,638.94809L419.09318,638.46804L
				419.09318,638.22801L418.85315,638.22801L418.85315,637.98799L418.85315,637.74796L418.61312,637.74796L418.61312,637.50793L
				418.61312,636.06778L418.61312,635.82775L418.85315,635.82775L418.85315,635.58773L419.09318,635.58773L419.09318,635.3477L419.09318,635.10768
				L419.33322,635.10768L419.33322,634.86765L419.57325,634.86765L419.57325,634.62763L419.57325,634.3876L419.81328,634.3876L419.81328,634.14758
				L420.05331,634.14758L420.05331,633.90755L420.05331,633.66752L420.05331,633.4275L419.81328,633.4275L419.81328,633.18747L419.57325,633.18747
				L417.41297,633.18747L417.17294,633.18747L417.17294,632.94745L416.93291,632.94745L416.93291,632.70742L416.93291,632.4674L
				416.69288,632.4674L416.69288,632.22737L416.45285,632.22737L416.45285,631.98735L416.21282,631.98735L415.97279,631.98735L415.97279,631.74732
				L415.73276,631.74732L415.2527,631.74732L415.2527,631.50729L414.05254,631.50729L413.81251,631.50729L413.81251,631.26727L413.57248,631.26727
				L413.33245,631.26727L413.33245,631.02724L413.09242,631.02724L413.09242,630.78722L412.85239,630.78722L412.61236,630.78722
				L412.61236,630.54719L412.37233,630.54719L412.37233,630.30717L412.1323,630.30717L411.89227,630.30717L411.89227,630.06714L
				411.89227,629.10704L411.65224,629.10704L411.65224,628.38696L411.65224,628.14694L411.41221,628.14694L411.41221,627.90691L
				411.41221,627.66689L411.17218,627.66689L411.17218,627.42686L410.45209,627.42686L410.21206,627.42686L410.21206,627.18683L
				409.97203,627.18683L409.732,627.18683L409.49197,627.18683L409.49197,626.94681L409.25194,626.94681"/>
		</g>
</g></svg>