<?xml version="1.0" encoding="utf-8" standalone="no"?>
<!-- Creator: ESRI ArcMap 10.0.0.2414 -->
<!DOCTYPE svg PUBLIC "-//W3C//DTD SVG 1.1//EN"  "http://www.w3.org/Graphics/SVG/1.1/DTD/svg11.dtd">
<svg width="524.0420768pt" height="394.529660411pt" viewBox="32.15712744 223.864304795 524.0420768 394.529660411" enable-background="new 32.15712744 223.864304795 524.0420768 394.529660411"
	version="1.1" xmlns="http://www.w3.org/2000/svg" xmlns:xlink="http://www.w3.org/1999/xlink" >
	<g id="Couches">
		<g id="cont_1">
			<clipPath id="SVG_CP_2">
				<path d="M574.39289,21.36228L21.36271,21.36228L21.36271,821.36753L574.39289,821.36753L574.39289,21.36228z"/>
			</clipPath>
			<path clip-path="url(#SVG_CP_2)" fill="none" stroke="#999999" stroke-width="0.96012" stroke-miterlimit="10" stroke-linecap="round" stroke-linejoin="round" d="
				M48.00609,294.99144L46.56591,294.99144L46.56591,233.30486L61.4478,233.30486L61.4478,234.74502L60.00762,234.74502L60.00762,236.18517
				L57.12725,236.18517L57.12725,237.86535L55.44704,237.86535L55.44704,240.74565L54.00685,240.74565L54.00685,245.30614L52.56667,245.30614
				L52.56667,257.30742L54.00685,257.30742L54.00685,261.86791L55.44704,261.86791L55.44704,267.86854L57.12725,267.86854L57.12725,272.42903
				L58.56743,272.42903L58.56743,276.98952L57.12725,276.98952L57.12725,279.86982L55.44704,279.86982L55.44704,282.99016L54.00685,282.99016
				L54.00685,284.43031L52.56667,284.43031L52.56667,287.55064L51.12649,287.55064L51.12649,290.43095L49.44628,290.43095L49.44628,291.8711
				L48.00609,291.8711L48.00609,294.99144"/>
			<path clip-path="url(#SVG_CP_2)" fill="none" stroke="#999999" stroke-width="0.96012" stroke-miterlimit="10" stroke-linecap="round" stroke-linejoin="round" d="
				M287.31646,368.67929L287.31646,367.23913L288.99668,367.23913L288.99668,368.67929L287.31646,368.67929"/>
			<path clip-path="url(#SVG_CP_2)" fill="none" stroke="#999999" stroke-width="0.96012" stroke-miterlimit="10" stroke-linecap="round" stroke-linejoin="round" d="
				M209.06653,293.55128L206.18617,293.55128L206.18617,294.99144L204.50595,294.99144L204.50595,296.43159L203.06577,296.43159
				L203.06577,297.87174L201.62559,297.87174L201.62559,299.55192L200.1854,299.55192L200.1854,300.99207L198.50519,300.99207L198.50519,302.43223
				L197.06501,302.43223L197.06501,304.11241L195.62483,304.11241L195.62483,305.55256L193.94461,305.55256L193.94461,306.99271
				L192.50443,306.99271L192.50443,308.43287L191.06425,308.43287L191.06425,310.11305L189.62406,310.11305L189.62406,311.5532L
				187.94385,311.5532L187.94385,312.99335L186.50367,312.99335L186.50367,314.43351L181.94309,314.43351L181.94309,316.11369L180.50291,316.11369
				L180.50291,317.55384L179.06272,317.55384L179.06272,318.99399L177.38251,318.99399L177.38251,320.67417L175.94233,320.67417
				L175.94233,322.11433L174.50215,322.11433L174.50215,323.55448L173.06196,323.55448L173.06196,324.99463L171.38175,324.99463
				L171.38175,326.67481L169.94157,326.67481L169.94157,324.99463L168.50138,324.99463L168.50138,322.11433L165.38099,322.11433
				L165.38099,320.67417L162.50062,320.67417L162.50062,318.99399L159.38023,318.99399L159.38023,317.55384L156.49986,317.55384
				L156.49986,316.11369L153.37946,316.11369L153.37946,314.43351L150.4991,314.43351L150.4991,312.99335L148.81889,312.99335L148.81889,310.11305
				L147.3787,310.11305L147.3787,306.99271L145.93852,306.99271L145.93852,302.43223L144.25831,302.43223L144.25831,299.55192L142.81812,299.55192
				L142.81812,296.43159L141.37794,296.43159L141.37794,291.8711L139.93776,291.8711L139.93776,290.43095L138.25755,290.43095L138.25755,288.9908
				L135.37718,288.9908L135.37718,287.55064L133.937,287.55064L133.937,285.87046L130.8166,285.87046L130.8166,284.43031L126.25602,284.43031
				L126.25602,282.99016L121.69544,282.99016L121.69544,281.30998L117.3749,281.30998L117.3749,278.42967L115.69468,278.42967L115.69468,275.30934
				L114.2545,275.30934L114.2545,270.98888L112.81432,270.98888L112.81432,267.86854L111.1341,267.86854L111.1341,261.86791L109.69392,261.86791
				L109.69392,255.86727L108.25374,255.86727L108.25374,254.42711L106.81356,254.42711L106.81356,252.74693L105.13334,252.74693
				L105.13334,251.30678L103.69316,251.30678L103.69316,249.86663L102.25298,249.86663L102.25298,246.74629L99.13258,246.74629L
				99.13258,245.30614L97.6924,245.30614L97.6924,243.86599L96.25222,243.86599L96.25222,242.18581L93.13182,242.18581L93.13182,240.74565
				L91.69164,240.74565L91.69164,239.3055L90.25145,239.3055L90.25145,237.86535L87.13106,237.86535L87.13106,236.18517L84.25069,236.18517
				L84.25069,234.74502L82.57048,234.74502L82.57048,233.30486L549.42972,233.30486L549.42972,564.54016L547.98954,564.54016L547.98954,556.85934
				L546.30933,556.85934L546.30933,553.97903L540.30857,553.97903L540.30857,552.53888L532.86762,552.53888L532.86762,550.8587L
				531.42744,550.8587L531.42744,549.41855L529.74723,549.41855L529.74723,547.97839L528.30704,547.97839L528.30704,546.29821L526.86686,546.29821
				L526.86686,544.85806L525.18665,544.85806L525.18665,543.41791L523.74647,543.41791L523.74647,541.97775L522.30628,541.97775
				L522.30628,540.29758L520.8661,540.29758L520.8661,538.85742L519.18589,538.85742L519.18589,537.41727L517.7457,537.41727L517.7457,535.97711
				L516.30552,535.97711L516.30552,534.29694L514.86534,534.29694L514.86534,532.85678L513.18513,532.85678L513.18513,531.41663
				L511.74494,531.41663L511.74494,529.73645L510.30476,529.73645L510.30476,528.2963L508.62455,528.2963L508.62455,526.85614L507.18436,526.85614
				L507.18436,525.41599L505.74418,525.41599L505.74418,523.73581L504.304,523.73581L504.304,522.29566L502.62378,522.29566L502.62378,520.8555
				L501.1836,520.8555L501.1836,519.41535L499.74342,519.41535L499.74342,517.73517L498.30324,517.73517L498.30324,516.29502L496.62302,516.29502
				L496.62302,514.85486L495.18284,514.85486L495.18284,513.17468L493.74266,513.17468L493.74266,511.73453L492.06244,511.73453
				L492.06244,510.29438L490.62226,510.29438L490.62226,508.85422L489.18208,508.85422L489.18208,507.17405L487.7419,507.17405L
				487.7419,504.29374L486.06168,504.29374L486.06168,502.85359L484.6215,502.85359L484.6215,501.17341L483.18132,501.17341L483.18132,499.73325
				L481.74113,499.73325L481.74113,498.2931L480.06092,498.2931L480.06092,496.61292L478.62074,496.61292L478.62074,493.73261L477.18056,493.73261
				L477.18056,492.29246L475.50034,492.29246L475.50034,490.61228L474.06016,490.61228L474.06016,487.73197L472.61998,487.73197
				L472.61998,484.61164L471.17979,484.61164L471.17979,483.17149L469.49958,483.17149L469.49958,480.05116L468.0594,480.05116L
				468.0594,477.17085L466.61922,477.17085L466.61922,475.73069L465.17903,475.73069L465.17903,472.61036L463.49882,472.61036L463.49882,468.04988
				L462.05864,468.04988L462.05864,463.48939L460.61845,463.48939L460.61845,460.60908L458.93824,460.60908L458.93824,456.0486L
				457.49806,456.0486L457.49806,451.48811L456.05788,451.48811L456.05788,446.92763L454.61769,446.92763L454.61769,445.48747L456.05788,445.48747
				L456.05788,444.04732L458.93824,444.04732L458.93824,442.60717L460.61845,442.60717L460.61845,440.92699L463.49882,440.92699
				L463.49882,439.48683L465.17903,439.48683L465.17903,438.04668L468.0594,438.04668L468.0594,436.60653L471.17979,436.60653L471.17979,434.92635
				L472.61998,434.92635L472.61998,433.48619L475.50034,433.48619L475.50034,432.04604L477.18056,432.04604L477.18056,430.36586
				L480.06092,430.36586L480.06092,428.92571L481.74113,428.92571L481.74113,427.48555L484.6215,427.48555L484.6215,426.0454L487.7419,426.0454
				L487.7419,424.36522L489.18208,424.36522L489.18208,422.92507L492.06244,422.92507L492.06244,421.48491L493.74266,421.48491L
				493.74266,420.04476L496.62302,420.04476L496.62302,416.92443L495.18284,416.92443L495.18284,413.8041L492.06244,413.8041L492.06244,415.48427
				L490.62226,415.48427L490.62226,416.92443L489.18208,416.92443L489.18208,418.36458L486.06168,418.36458L486.06168,420.04476
				L484.6215,420.04476L484.6215,421.48491L481.74113,421.48491L481.74113,422.92507L480.06092,422.92507L480.06092,424.36522L478.62074,424.36522
				L478.62074,426.0454L475.50034,426.0454L475.50034,427.48555L474.06016,427.48555L474.06016,428.92571L471.17979,428.92571L471.17979,430.36586
				L469.49958,430.36586L469.49958,432.04604L466.61922,432.04604L466.61922,433.48619L465.17903,433.48619L465.17903,434.92635
				L463.49882,434.92635L463.49882,436.60653L460.61845,436.60653L460.61845,438.04668L458.93824,438.04668L458.93824,439.48683
				L456.05788,439.48683L456.05788,440.92699L454.61769,440.92699L454.61769,442.60717L451.4973,442.60717L451.4973,440.92699L450.05711,440.92699
				L450.05711,439.48683L448.61693,439.48683L448.61693,436.60653L446.93672,436.60653L446.93672,434.92635L445.49654,434.92635
				L445.49654,433.48619L444.05635,433.48619L444.05635,432.04604L442.37614,432.04604L442.37614,430.36586L440.93596,430.36586
				L440.93596,427.48555L439.49577,427.48555L439.49577,426.0454L438.05559,426.0454L438.05559,424.36522L436.37538,424.36522L436.37538,422.92507
				L434.9352,422.92507L434.9352,420.04476L433.49501,420.04476L433.49501,418.36458L432.05483,418.36458L432.05483,416.92443L430.37462,416.92443
				L430.37462,415.48427L428.93443,415.48427L428.93443,413.8041L427.49425,413.8041L427.49425,410.92379L425.81404,410.92379L425.81404,409.48364
				L424.37385,409.48364L424.37385,407.80346L422.93367,407.80346L422.93367,406.3633L421.49349,406.3633L421.49349,403.483L419.81328,403.483
				L419.81328,401.80282L418.37309,401.80282L418.37309,400.36266L416.93291,400.36266L416.93291,398.92251L415.49273,398.92251
				L415.49273,395.80218L413.81251,395.80218L413.81251,394.36202L412.37233,394.36202L412.37233,392.92187L410.93215,392.92187
				L410.93215,391.24169L409.25194,391.24169L409.25194,389.80154L407.81175,389.80154L407.81175,386.92123L406.37157,386.92123
				L406.37157,385.24105L404.93139,385.24105L404.93139,383.8009L403.25117,383.8009L403.25117,382.36075L401.81099,382.36075L401.81099,379.24041
				L400.37081,379.24041L400.37081,377.80026L398.93063,377.80026L398.93063,376.36011L397.25041,376.36011L397.25041,374.67993
				L395.81023,374.67993L395.81023,371.79962L394.37005,371.79962L394.37005,370.35947L392.68983,370.35947L392.68983,368.67929
				L391.24965,368.67929L391.24965,367.23913L389.80947,367.23913L389.80947,365.79898L388.36929,365.79898L388.36929,362.67865
				L386.68907,362.67865L386.68907,361.23849L385.24889,361.23849L385.24889,359.79834L383.80871,359.79834L383.80871,358.11816
				L382.36852,358.11816L382.36852,355.23785L380.68831,355.23785L380.68831,353.7977L379.24813,353.7977L379.24813,352.11752L377.80795,352.11752
				L377.80795,350.67737L376.12773,350.67737L376.12773,347.55704L374.68755,347.55704L374.68755,346.11688L371.80718,346.11688
				L371.80718,349.23722L370.12697,349.23722L370.12697,350.67737L368.68679,350.67737L368.68679,352.11752L367.24661,352.11752
				L367.24661,353.7977L365.80642,353.7977L365.80642,355.23785L364.12621,355.23785L364.12621,358.11816L362.68603,358.11816L362.68603,359.79834
				L361.24584,359.79834L361.24584,361.23849L359.56563,361.23849L359.56563,362.67865L358.12545,362.67865L358.12545,364.1188L
				356.68526,364.1188L356.68526,365.79898L355.24508,365.79898L355.24508,367.23913L353.56487,367.23913L353.56487,365.79898L352.12469,365.79898
				L352.12469,364.1188L350.6845,364.1188L350.6845,362.67865L352.12469,362.67865L352.12469,359.79834L353.56487,359.79834L353.56487,356.67801
				L355.24508,356.67801L355.24508,353.7977L356.68526,353.7977L356.68526,350.67737L358.12545,350.67737L358.12545,347.55704L359.56563,347.55704
				L359.56563,343.23658L361.24584,343.23658L361.24584,340.11624L362.68603,340.11624L362.68603,337.23594L364.12621,337.23594
				L364.12621,334.1156L365.80642,334.1156L365.80642,330.99527L367.24661,330.99527L367.24661,329.55512L365.80642,329.55512L365.80642,328.11496
				L364.12621,328.11496L364.12621,326.67481L362.68603,326.67481L362.68603,324.99463L361.24584,324.99463L361.24584,323.55448
				L358.12545,323.55448L358.12545,322.11433L356.68526,322.11433L356.68526,320.67417L355.24508,320.67417L355.24508,318.99399
				L352.12469,318.99399L352.12469,317.55384L350.6845,317.55384L350.6845,316.11369L347.56411,316.11369L347.56411,314.43351L346.12392,314.43351
				L346.12392,312.99335L343.00353,312.99335L343.00353,311.5532L338.68298,311.5532L338.68298,310.11305L335.56258,310.11305L335.56258,308.43287
				L332.68222,308.43287L332.68222,306.99271L328.12164,306.99271L328.12164,305.55256L323.56106,305.55256L323.56106,304.11241
				L317.5603,304.11241L317.5603,302.43223L312.99972,302.43223L312.99972,300.99207L308.43914,300.99207L308.43914,299.55192L303.87856,299.55192
				L303.87856,297.87174L294.99744,297.87174L294.99744,296.43159L296.43762,296.43159L296.43762,293.55128L297.8778,293.55128L
				297.8778,290.43095L287.31646,290.43095L287.31646,291.8711L272.43457,291.8711L272.43457,293.55128L231.62939,293.55128L231.62939,291.8711
				L222.74827,291.8711L222.74827,290.43095L221.06805,290.43095L221.06805,288.9908L218.18769,288.9908L218.18769,287.55064L216.74751,287.55064
				L216.74751,285.87046L215.06729,285.87046L215.06729,284.43031L213.62711,284.43031L213.62711,282.99016L212.18693,282.99016
				L212.18693,291.8711L209.06653,291.8711L209.06653,293.55128"/>
			<path clip-path="url(#SVG_CP_2)" fill="none" stroke="#999999" stroke-width="0.96012" stroke-miterlimit="10" stroke-linecap="round" stroke-linejoin="round" d="
				M171.38175,326.67481L175.94233,326.67481L175.94233,324.99463L177.38251,324.99463L177.38251,323.55448L179.06272,323.55448
				L179.06272,322.11433L180.50291,322.11433L180.50291,320.67417L181.94309,320.67417L181.94309,318.99399L183.6233,318.99399L
				183.6233,317.55384L185.06349,317.55384L185.06349,316.11369L186.50367,316.11369L186.50367,314.43351L189.62406,314.43351L189.62406,312.99335
				L191.06425,312.99335L191.06425,311.5532L192.50443,311.5532L192.50443,310.11305L193.94461,310.11305L193.94461,308.43287L195.62483,308.43287
				L195.62483,306.99271L197.06501,306.99271L197.06501,305.55256L198.50519,305.55256L198.50519,304.11241L200.1854,304.11241L
				200.1854,302.43223L201.62559,302.43223L201.62559,300.99207L203.06577,300.99207L203.06577,299.55192L204.50595,299.55192L204.50595,297.87174
				L206.18617,297.87174L206.18617,296.43159L207.62635,296.43159L207.62635,294.99144L209.06653,294.99144L209.06653,293.55128
				L213.62711,293.55128L213.62711,296.43159L215.06729,296.43159L215.06729,297.87174L216.74751,297.87174L216.74751,300.99207
				L218.18769,300.99207L218.18769,304.11241L219.62787,304.11241L219.62787,305.55256L221.06805,305.55256L221.06805,310.11305
				L222.74827,310.11305L222.74827,314.43351L224.18845,314.43351L224.18845,318.99399L225.62863,318.99399L225.62863,322.11433
				L227.06882,322.11433L227.06882,324.99463L228.74903,324.99463L228.74903,326.67481L230.18921,326.67481L230.18921,328.11496
				L231.62939,328.11496L231.62939,330.99527L233.30961,330.99527L233.30961,332.67545L234.74979,332.67545L234.74979,334.1156L
				236.18997,334.1156L236.18997,337.23594L237.63016,337.23594L237.63016,340.11624L239.31037,340.11624L239.31037,343.23658L240.75055,343.23658
				L240.75055,344.67673L242.19074,344.67673L242.19074,346.11688L243.63092,346.11688L243.63092,349.23722L245.31113,349.23722
				L245.31113,350.67737L246.75131,350.67737L246.75131,352.11752L248.1915,352.11752L248.1915,353.7977L249.87171,353.7977L249.87171,356.67801
				L251.31189,356.67801L251.31189,355.23785L254.19226,355.23785L254.19226,353.7977L255.87247,353.7977L255.87247,352.11752L258.75284,352.11752
				L258.75284,350.67737L260.19302,350.67737L260.19302,349.23722L275.31494,349.23722L275.31494,350.67737L278.43533,350.67737
				L278.43533,352.11752L279.87552,352.11752L279.87552,353.7977L281.3157,353.7977L281.3157,359.79834L282.99591,359.79834L282.99591,368.67929
				L287.31646,368.67929L287.31646,373.23977L285.87628,373.23977L285.87628,377.80026L284.4361,377.80026L284.4361,382.36075L282.99591,382.36075
				L282.99591,385.24105L279.87552,385.24105L279.87552,386.92123L276.75512,386.92123L276.75512,385.24105L275.31494,385.24105
				L275.31494,383.8009L273.87476,383.8009L273.87476,380.68057L272.43457,380.68057L272.43457,379.24041L270.75436,379.24041L270.75436,376.36011
				L269.31418,376.36011L269.31418,364.1188L267.87399,364.1188L267.87399,362.67865L266.43381,362.67865L266.43381,359.79834L261.87323,359.79834
				L261.87323,361.23849L258.75284,361.23849L258.75284,362.67865L254.19226,362.67865L254.19226,364.1188L251.31189,364.1188L251.31189,365.79898
				L248.1915,365.79898L248.1915,367.23913L245.31113,367.23913L245.31113,368.67929L240.75055,368.67929L240.75055,370.35947L249.87171,370.35947
				L249.87171,371.79962L257.31265,371.79962L257.31265,373.23977L260.19302,373.23977L260.19302,374.67993L261.87323,374.67993
				L261.87323,376.36011L263.31342,376.36011L263.31342,377.80026L264.7536,377.80026L264.7536,379.24041L266.43381,379.24041L266.43381,380.68057
				L267.87399,380.68057L267.87399,383.8009L269.31418,383.8009L269.31418,385.24105L270.75436,385.24105L270.75436,386.92123L272.43457,386.92123
				L272.43457,389.80154L273.87476,389.80154L273.87476,391.24169L275.31494,391.24169L275.31494,394.36202L276.75512,394.36202
				L276.75512,395.80218L278.43533,395.80218L278.43533,398.92251L279.87552,398.92251L279.87552,400.36266L281.3157,400.36266L
				281.3157,401.80282L282.99591,401.80282L282.99591,404.92315L284.4361,404.92315L284.4361,406.3633L285.87628,406.3633L285.87628,409.48364
				L287.31646,409.48364L287.31646,410.92379L288.99668,410.92379L288.99668,413.8041L290.43686,413.8041L290.43686,415.48427L293.31722,415.48427
				L293.31722,416.92443L294.99744,416.92443L294.99744,418.36458L296.43762,418.36458L296.43762,420.04476L299.55802,420.04476
				L299.55802,421.48491L300.9982,421.48491L300.9982,422.92507L302.43838,422.92507L302.43838,424.36522L303.87856,424.36522L303.87856,426.0454
				L305.55878,426.0454L305.55878,427.48555L306.99896,427.48555L306.99896,428.92571L309.87933,428.92571L309.87933,430.36586L
				312.99972,430.36586L312.99972,432.04604L316.12012,432.04604L316.12012,433.48619L319.00048,433.48619L319.00048,434.92635L
				322.12088,434.92635L322.12088,436.60653L325.00124,436.60653L325.00124,438.04668L328.12164,438.04668L328.12164,439.48683L
				331.00201,439.48683L331.00201,440.92699L334.1224,440.92699L334.1224,442.60717L335.56258,442.60717L335.56258,444.04732L338.68298,444.04732
				L338.68298,445.48747L341.56335,445.48747L341.56335,446.92763L344.68374,446.92763L344.68374,450.04796L346.12392,450.04796
				L346.12392,451.48811L347.56411,451.48811L347.56411,453.16829L349.24432,453.16829L349.24432,454.60844L350.6845,454.60844L
				350.6845,456.0486L352.12469,456.0486L352.12469,457.48875L353.56487,457.48875L353.56487,459.16893L355.24508,459.16893L355.24508,460.60908
				L356.68526,460.60908L356.68526,462.04924L358.12545,462.04924L358.12545,463.48939L359.56563,463.48939L359.56563,466.60972
				L361.24584,466.60972L361.24584,469.73006L362.68603,469.73006L362.68603,472.61036L364.12621,472.61036L364.12621,475.73069
				L365.80642,475.73069L365.80642,478.611L367.24661,478.611L367.24661,481.73133L368.68679,481.73133L368.68679,484.61164L370.12697,484.61164
				L370.12697,487.73197L371.80718,487.73197L371.80718,490.61228L373.24737,490.61228L373.24737,493.73261L374.68755,493.73261
				L374.68755,498.2931L376.12773,498.2931L376.12773,501.17341L377.80795,501.17341L377.80795,505.73389L379.24813,505.73389L379.24813,510.29438
				L380.68831,510.29438L380.68831,513.17468L382.36852,513.17468L382.36852,517.73517L383.80871,517.73517L383.80871,520.8555L
				385.24889,520.8555L385.24889,523.73581L386.68907,523.73581L386.68907,525.41599L388.36929,525.41599L388.36929,528.2963L389.80947,528.2963
				L389.80947,531.41663L391.24965,531.41663L391.24965,534.29694L392.68983,534.29694L392.68983,535.97711L394.37005,535.97711
				L394.37005,538.85742L395.81023,538.85742L395.81023,541.97775L397.25041,541.97775L397.25041,543.41791L398.93063,543.41791
				L398.93063,544.85806L400.37081,544.85806L400.37081,546.29821L401.81099,546.29821L401.81099,547.97839L403.25117,547.97839
				L403.25117,549.41855L404.93139,549.41855L404.93139,550.8587L406.37157,550.8587L406.37157,552.53888L407.81175,552.53888L407.81175,553.97903
				L409.25194,553.97903L409.25194,555.41919L410.93215,555.41919L410.93215,556.85934L412.37233,556.85934L412.37233,558.53952
				L415.49273,558.53952L415.49273,559.97967L416.93291,559.97967L416.93291,561.41983L418.37309,561.41983L418.37309,562.85998
				L419.81328,562.85998L419.81328,564.54016L421.49349,564.54016L421.49349,565.98031L422.93367,565.98031L422.93367,567.42047
				L425.81404,567.42047L425.81404,569.10064L427.49425,569.10064L427.49425,570.5408L428.93443,570.5408L428.93443,571.98095L430.37462,571.98095
				L430.37462,573.4211L433.49501,573.4211L433.49501,575.10128L434.9352,575.10128L434.9352,576.54144L436.37538,576.54144L436.37538,577.98159
				L438.05559,577.98159L438.05559,579.42174L440.93596,579.42174L440.93596,581.10192L442.37614,581.10192L442.37614,582.54208
				L444.05635,582.54208L444.05635,583.98223L445.49654,583.98223L445.49654,585.66241L448.61693,585.66241L448.61693,587.10256
				L450.05711,587.10256L450.05711,588.54272L451.4973,588.54272L451.4973,589.98287L452.93748,589.98287L452.93748,591.66305L456.05788,591.66305
				L456.05788,593.1032L458.93824,593.1032L458.93824,594.54336L460.61845,594.54336L460.61845,595.98351L463.49882,595.98351L463.49882,597.66369
				L466.61922,597.66369L466.61922,599.10384L471.17979,599.10384L471.17979,600.54399L477.18056,600.54399L477.18056,602.22417
				L481.74113,602.22417L481.74113,603.66433L487.7419,603.66433L487.7419,605.10448L493.74266,605.10448L493.74266,606.54463L498.30324,606.54463
				L498.30324,608.22481L504.304,608.22481L504.304,609.66497L46.56591,609.66497L46.56591,317.55384L48.00609,317.55384L48.00609,326.67481
				L49.44628,326.67481L49.44628,328.11496L51.12649,328.11496L51.12649,330.99527L52.56667,330.99527L52.56667,332.67545L54.00685,332.67545
				L54.00685,334.1156L55.44704,334.1156L55.44704,335.55576L57.12725,335.55576L57.12725,337.23594L60.00762,337.23594L60.00762,338.67609
				L61.4478,338.67609L61.4478,340.11624L66.00838,340.11624L66.00838,341.5564L78.0099,341.5564L78.0099,340.11624L85.69087,340.11624
				L85.69087,338.67609L90.25145,338.67609L90.25145,337.23594L91.69164,337.23594L91.69164,338.67609L94.572,338.67609L94.572,340.11624
				L96.25222,340.11624L96.25222,341.5564L97.6924,341.5564L97.6924,343.23658L99.13258,343.23658L99.13258,344.67673L102.25298,344.67673
				L102.25298,346.11688L103.69316,346.11688L103.69316,347.55704L105.13334,347.55704L105.13334,349.23722L108.25374,349.23722
				L108.25374,350.67737L112.81432,350.67737L112.81432,352.11752L117.3749,352.11752L117.3749,353.7977L132.25678,353.7977L132.25678,352.11752
				L133.937,352.11752L133.937,353.7977L136.81736,353.7977L136.81736,355.23785L138.25755,355.23785L138.25755,356.67801L141.37794,356.67801
				L141.37794,358.11816L144.25831,358.11816L144.25831,359.79834L147.3787,359.79834L147.3787,361.23849L151.93928,361.23849L151.93928,362.67865
				L163.94081,362.67865L163.94081,361.23849L167.0612,361.23849L167.0612,359.79834L168.50138,359.79834L168.50138,358.11816L169.94157,358.11816
				L169.94157,356.67801L171.38175,356.67801L171.38175,353.7977L173.06196,353.7977L173.06196,349.23722L174.50215,349.23722L174.50215,335.55576
				L173.06196,335.55576L173.06196,329.55512L171.38175,329.55512L171.38175,326.67481"/>
			<path clip-path="url(#SVG_CP_2)" fill="none" stroke="#999999" stroke-width="0.96012" stroke-miterlimit="10" stroke-linecap="round" stroke-linejoin="round" d="
				M549.42972,609.66497L507.18436,609.66497L507.18436,608.22481L505.74418,608.22481L505.74418,605.10448L507.18436,605.10448
				L507.18436,603.66433L514.86534,603.66433L514.86534,602.22417L522.30628,602.22417L522.30628,600.54399L529.74723,600.54399
				L529.74723,599.10384L537.4282,599.10384L537.4282,597.66369L543.42896,597.66369L543.42896,595.98351L544.86915,595.98351L544.86915,588.54272
				L546.30933,588.54272L546.30933,579.42174L547.98954,579.42174L547.98954,570.5408L549.42972,570.5408L549.42972,609.66497"/>
		</g>
</g></svg>