<?xml version="1.0" encoding="utf-8" standalone="no"?>
<!-- Creator: ESRI ArcMap 10.0.0.2414 -->
<!DOCTYPE svg PUBLIC "-//W3C//DTD SVG 1.1//EN"  "http://www.w3.org/Graphics/SVG/1.1/DTD/svg11.dtd">
<svg width="524.0420768pt" height="552.409963834pt" viewBox="32.15712744 144.924153083 524.0420768 552.409963834" enable-background="new 32.15712744 144.924153083 524.0420768 552.409963834"
	version="1.1" xmlns="http://www.w3.org/2000/svg" xmlns:xlink="http://www.w3.org/1999/xlink" >
	<g id="Couches">
		<g id="reservoirs">
			<clipPath id="SVG_CP_2">
				<path d="M574.39289,21.36228L21.36271,21.36228L21.36271,821.36753L574.39289,821.36753L574.39289,21.36228z"/>
			</clipPath>
			<path clip-path="url(#SVG_CP_2)" fill-opacity="0.2" fill="#2f4493" fill-rule="evenodd" stroke="#2f4493" stroke-width="1" stra="1.44018" stroke-miterlimit="10" stroke-linecap="round" stroke-linejoin="round" d="
				M516.54555,429.64578L531.18741,437.3266L537.66823,441.40704L549.18969,448.12775L546.0693,451.48811L537.66823,459.64898L531.18741,466.12967
				L524.22653,472.61036L519.42592,477.17085L514.86534,472.37034L512.70506,474.05052L512.70506,474.77059L498.06321,484.37162
				L496.62302,485.09169L485.58162,498.53312L484.6215,500.93338L483.42135,501.41343L479.58086,503.81369L473.82013,507.41407L
				467.57934,511.01445L457.49806,515.09489L442.61617,521.57558L425.81404,528.53632L416.69288,532.13671L411.89227,534.77699L
				410.45209,532.85678L405.17142,535.49706L404.45133,534.29694L397.49044,538.13734L399.89075,541.97775L394.61008,545.09809L
				398.6906,551.8188L391.24965,556.61931L386.44904,559.49962L384.5288,559.97967L379.96822,565.50026L375.8877,564.78018L373.24737,563.82008
				L371.08709,562.61995L367.9667,559.01957L362.446,564.06011L364.36624,565.98031L363.40612,566.70039L364.8463,568.38057L363.40612,569.5807
				L365.80642,572.461L368.44676,570.06075L371.32712,572.94105L367.24661,591.66305L366.28648,592.62315L368.68679,598.62379L369.64691,601.02405
				L365.56639,603.18428L361.7259,605.34451L355.00505,610.38504L347.80414,602.94425L342.52347,607.26471L342.04341,606.78466L
				332.20216,613.98543L315.40003,620.22609L299.31798,633.4275L287.07643,620.22609L286.59637,620.70614L286.35634,624.78658L282.03579,628.86701
				L286.35634,632.4674L276.51509,642.06842L252.27201,663.4307L247.95147,664.87085L245.55116,665.59093L242.43077,666.311L240.27049,666.311
				L239.5504,662.71062L237.39013,663.4307L238.11022,666.311L235.94994,666.79105L230.18921,667.51113L226.58876,667.99118L226.58876,667.51113
				L224.18845,668.23121L227.06882,674.7119L230.9093,682.15269L228.98906,681.91267L226.58876,681.67264L224.42848,681.67264L221.78815,681.91267
				L216.02742,682.87277L207.14629,684.31292L203.06577,684.79297L198.98525,685.033L195.14476,684.79297L190.10413,684.0729L186.7437,683.35282
				L183.38327,682.39272L179.06272,680.71254L176.42239,679.27238L174.50215,678.31228L168.50138,675.43198L157.45998,669.91139
				L159.38023,665.3509L164.18084,666.55103L164.6609,665.83095L163.46074,664.63082L161.78053,663.67072L159.86029,662.47059L159.62026,661.75052
				L159.1402,658.87021L158.66013,656.22993L158.4201,654.30972L158.18007,652.62955L156.73989,653.82967L151.93928,657.67008L145.21843,663.19067
				L143.77825,662.23057L132.49681,655.74988L128.89636,653.58965L126.25602,652.14949L124.57581,650.94937L122.1755,649.26919L
				120.25526,647.58901L120.01523,647.34898L114.73456,642.06842L117.3749,638.22801L117.13487,636.78786L114.97459,635.82775L112.33426,639.66816
				L111.1341,638.70806L108.7338,637.26791L94.09194,628.86701L85.93091,625.0266L80.65024,622.62635L87.85115,609.90499L88.57124,608.70486
				L88.33121,607.98479L88.09118,607.26471L87.37109,605.82456L87.13106,604.14438L86.89103,602.94425L86.41097,600.78402L86.17094,599.10384
				L85.93091,597.90371L84.49072,595.02341L83.5306,593.34323L82.81051,590.94297L82.09042,588.06266L81.37033,585.66241L80.4102,583.50218
				L80.17017,583.26215L78.97002,581.58197L78.24993,579.66177L77.76987,577.74157L76.56972,573.4211L76.08966,570.06075L75.6096,568.14054
				L74.40944,565.02021L72.96926,563.34003L72.24917,562.1399L71.52908,560.93977L74.40944,559.97967L74.40944,558.29949L74.16941,557.09937
				L74.16941,556.85934L75.84963,557.33939L76.32969,555.41919L77.52984,553.49898L82.57048,548.9385L82.09042,548.21842L81.1303,547.01829
				L81.61036,546.53824L86.17094,543.41791L84.01066,541.73773L82.81051,542.93786L80.89027,540.29758L78.97002,541.97775L77.04978,539.81752
				L78.97002,539.09745L78.48996,537.89732L79.93014,537.17724L79.21005,535.49706L79.69011,533.81688L79.93014,532.37673L80.17017,531.65665
				L80.17017,530.2165L79.93014,529.97648L79.93014,529.73645L80.17017,529.49642L80.17017,529.01637L79.21005,526.37609L78.0099,523.25576
				L77.52984,521.81561L77.28981,520.37545L77.28981,519.41535L77.52984,518.69527L77.76987,517.9752L78.0099,517.73517L78.24993,517.73517
				L79.69011,517.01509L81.37033,516.05499L83.29057,515.09489L83.5306,515.09489L85.93091,513.41471L86.89103,512.69463L87.37109,512.45461
				L89.29133,511.25448L94.572,509.33428L95.05206,508.85422L96.49225,508.37417L100.57276,506.93402L104.89331,505.25384L108.97383,503.81369
				L112.57429,502.61356L116.41477,501.65346L119.29514,500.93338L124.33578,499.01318L127.21614,498.05307L128.89636,497.57302
				L129.85648,497.333L131.53669,497.09297L133.21691,497.09297L134.65709,502.61356L139.69773,501.41343L140.17779,503.57366L144.9784,501.89348
				L143.05815,497.09297L145.45846,495.89284L148.57886,501.41343L149.77901,503.57366L155.05968,501.65346L154.81965,500.69335
				L154.81965,500.45333L156.25983,499.97328L156.97992,499.49323L154.33959,492.53249L154.57962,492.29246L157.45998,491.57238
				L159.86029,490.61228L161.5405,489.8922L162.98068,489.17213L165.38099,487.0119L166.58114,487.972L168.26135,486.53185L169.70154,485.81177
				L173.06196,490.85231L177.38251,488.45205L174.02208,483.17149L177.62254,480.77123L179.06272,482.93146L184.82346,479.5711L
				185.30352,480.29118L192.50443,476.21075L195.3848,481.25128L195.62483,481.25128L197.7851,484.85167L204.50595,497.81305L206.18617,498.05307
				L207.38632,495.41279L210.26668,497.333L212.18693,493.25256L208.34644,490.85231L205.46607,488.69208L207.38632,487.49195L205.94614,483.89156
				L205.70611,483.17149L205.46607,481.97136L204.98601,480.77123L205.46607,479.5711L206.18617,479.5711L208.8265,478.85103L207.14629,473.81049
				L206.66623,472.13031L207.38632,471.65026L205.22604,467.08977L211.9469,463.72942L213.14705,465.88965L215.30732,464.92954L
				218.18769,463.48939L218.66775,463.24936L219.8679,465.64962L231.14933,460.36906L228.509,453.88837L244.35101,448.12775L241.71067,440.44693
				L243.87095,440.44693L246.51128,440.44693L247.95147,440.68696L250.83183,440.92699L253.23214,440.92699L255.63244,440.44693
				L258.75284,439.24681L259.71296,439.00678L264.03351,438.76676L266.91387,437.56663L269.79424,436.12647L272.43457,435.16637
				L277.95527,433.24617L282.51585,430.12584L285.39622,428.68568L288.75664,428.20563L294.99744,440.68696L295.71753,440.20691
				L304.11859,436.12647L307.23899,442.84719L310.35939,447.40768L300.75817,451.48811L299.79805,451.96816L306.99896,466.84975
				L316.12012,462.28926L317.08024,461.80921L319.48054,461.32916L324.52118,460.84911L324.28115,465.40959L326.68146,467.80985
				L333.64234,474.77059L337.96289,478.611L338.44295,478.85103L343.24356,484.13159L347.56411,489.8922L347.32408,489.8922L346.36396,491.09233
				L346.84402,491.57238L349.96441,495.65282L359.56563,486.05179L372.52728,474.29054L379.48816,468.76995L383.08862,465.88965
				L387.16913,461.08913L392.92986,455.0885L393.16989,451.48811L393.88999,449.56791L396.05026,446.6876L397.49044,444.7674L398.6906,443.32724
				L401.33093,438.52673L403.01114,434.92635L402.29105,433.72622L401.81099,433.00614L403.25117,430.84591L405.89151,428.44566
				L407.09166,427.24553L407.57172,426.28543L409.01191,425.56535L411.17218,427.0055L414.05254,423.16509L424.37385,431.56599L
				428.45437,427.0055L438.53565,436.60653L442.8562,432.04604L446.93672,435.64642L450.53717,430.84591L443.81632,425.0853L445.01647,423.40512
				L447.65681,420.28479L450.05711,418.36458L453.17751,416.6844L455.09775,415.96433L454.85772,415.7243L464.21891,405.88325L468.0594,401.32277
				L486.06168,412.36394L493.50263,416.44438L497.58315,419.08466L503.34388,422.20499L512.70506,427.48555L516.54555,429.64578
				L516.54555,429.64578z"/>
			<path clip-path="url(#SVG_CP_2)" fill-opacity="0.2" fill="#2f4493" fill-rule="evenodd" stroke="#2f4493" stroke-width="1" stra="1.44018" stroke-miterlimit="10" stroke-linecap="round" stroke-linejoin="round" d="
				M181.94309,174.25857L186.26364,177.3789L188.18388,179.29911L188.90397,180.97929L188.90397,182.65946L197.30504,188.18005L
				204.26592,191.78044L207.62635,191.30039L210.26668,192.26049L214.10717,194.18069L222.26821,199.70128L229.46912,206.422L239.31037,216.50307
				L259.2329,234.98504L259.95299,235.94514L262.11326,238.10537L266.91387,243.62596L284.19607,261.14783L284.19607,262.10793L
				287.07643,263.54808L288.51661,264.26816L291.63701,266.66842L296.19759,270.74885L300.27811,274.10921L291.39698,281.79003L
				284.91616,289.23082L283.47597,290.911L284.67613,293.79131L284.91616,296.19156L286.11631,298.35179L291.15695,302.67225L311.79957,318.27392
				L297.39774,334.59566L293.31722,341.07635L291.15695,338.91612L288.75664,342.75652L284.19607,338.67609L279.39546,343.71663
				L275.795,340.11624L271.23442,351.39745L268.59409,356.67801L264.51357,359.07826L258.51281,366.03901L253.95223,369.15934L251.07186,370.11944
				L243.15086,368.91931L241.71067,367.23913L240.51052,365.31893L237.87019,361.23849L234.26973,363.1587L225.14857,371.07954L
				223.22833,370.83952L222.26821,372.03965L221.54812,373.23977L221.54812,375.64003L222.50824,376.12008L224.42848,377.80026L
				225.14857,377.80026L226.58876,378.04028L227.30885,379.00039L228.74903,380.44054L229.46912,381.40064L231.86943,381.64067L
				232.34949,383.8009L217.4676,394.84208L212.42696,398.20243L204.26592,400.36266L202.10565,401.08274L202.58571,402.28287L197.30504,406.12328
				L195.62483,404.68312L193.22452,401.80282L193.22452,401.56279L192.74446,399.64259L190.82422,397.96241L187.94385,397.96241
				L185.06349,395.56215L181.94309,394.36202L180.50291,393.64195L176.18236,393.1619L174.02208,395.80218L182.90321,401.80282L
				175.94233,408.76356L176.42239,410.20371L172.34187,413.56407L172.34187,414.28415L171.14172,414.7642L171.62178,417.88453L168.98144,420.28479
				L168.50138,418.60461L165.14096,419.80474L165.14096,417.16445L163.22071,414.7642L162.02056,415.24425L160.10032,412.12392L
				160.82041,411.40384L154.81965,405.16318L152.65937,407.56343L147.3787,413.32404L148.33883,414.52417L148.33883,414.7642L148.09879,414.7642
				L145.69849,417.88453L144.73837,419.08466L142.33806,418.84463L140.65785,417.88453L139.4577,416.92443L138.01752,416.20435L
				137.29742,415.00422L136.57733,413.8041L136.57733,413.56407L136.09727,412.84399L135.85724,412.36394L135.13715,411.64387L135.13715,411.40384
				L134.17703,411.40384L133.69697,410.92379L132.73685,409.96369L132.25678,409.96369L131.77672,410.68376L130.33654,411.16381
				L129.13639,410.44374L126.25602,409.24361L123.13563,408.76356L121.45541,409.00358L117.13487,406.84335L116.89483,405.64323
				L115.93471,404.68312L114.73456,404.20307L113.77444,403.96305L112.81432,401.08274L110.41401,401.80282L110.41401,401.08274
				L108.97383,401.56279L107.29362,401.80282L106.81356,401.08274L103.2131,402.28287L102.97307,403.00294L102.73304,403.96305L
				102.01295,404.68312L100.81279,405.16318L99.85267,404.20307L90.49148,394.122L87.61112,389.80154L86.17094,385.96113L85.93091,385.24105
				L83.77063,379.72046L81.1303,374.4399L79.45008,370.59949L76.56972,342.75652L77.28981,341.31637L78.97002,337.71599L80.89027,334.1156
				L81.1303,333.87558L86.17094,330.75525L87.61112,330.51522L97.93243,327.87494L68.64871,301.71215L65.76835,298.59182L69.84886,295.95154
				L74.16941,292.11113L78.0099,289.47085L67.20853,272.66906L52.8067,257.06739L51.36652,255.38721L50.16637,252.02686L46.56591,246.98632
				L51.36652,243.62596L58.56743,238.10537L65.28829,232.58478L63.60807,227.30422L68.40868,225.38402L72.96926,223.94386L77.52984,222.74374
				L83.5306,220.82353L80.17017,203.54169L88.81127,197.061L94.81203,192.50051L98.41249,190.10026L100.0927,189.14016L98.89255,188.18005
				L93.13182,182.65946L97.6924,176.17877L101.77292,170.41816L102.97307,169.45806L104.17322,171.13824L107.53365,171.85831L108.25374,170.41816
				L112.09423,171.61829L114.01447,170.17813L114.49453,168.0179L113.77444,165.37762L116.41477,162.73734L118.33502,163.93747L
				128.65633,174.4986L133.45694,172.81842L136.3373,171.61829L149.05892,166.57775L149.77901,162.97737L151.45922,157.45678L159.86029,161.29719
				L171.38175,167.0578L178.34263,171.13824L181.94309,174.25857z"/>
		</g>
</g></svg>