<?xml version="1.0" encoding="utf-8" standalone="no"?>
<!-- Creator: ESRI ArcMap 10.0.0.2414 -->
<!DOCTYPE svg PUBLIC "-//W3C//DTD SVG 1.1//EN"  "http://www.w3.org/Graphics/SVG/1.1/DTD/svg11.dtd">
<svg width="524.0420768pt" height="266.613422209pt" viewBox="32.15712744 287.822423896 524.0420768 266.613422209" enable-background="new 32.15712744 287.822423896 524.0420768 266.613422209"
	version="1.1" xmlns="http://www.w3.org/2000/svg" xmlns:xlink="http://www.w3.org/1999/xlink" >
	<g id="Couches">
		<g id="cont_2">
			<path clip-path="url(#SVG_CP_2)" fill="none" stroke="#999999" stroke-width="0.96012" stroke-miterlimit="10" stroke-linecap="round" stroke-linejoin="round" d="
				M212.18693,416.6844L211.46684,416.6844L211.46684,414.7642L212.18693,414.7642L212.18693,416.6844"/>
			<path clip-path="url(#SVG_CP_2)" fill="none" stroke="#999999" stroke-width="0.96012" stroke-miterlimit="10" stroke-linecap="round" stroke-linejoin="round" d="
				M351.40459,548.45844L292.3571,548.45844L292.3571,547.97839L291.15695,547.97839L291.15695,547.25832L290.43686,547.25832L290.43686,546.53824
				L289.71677,546.53824L289.71677,545.33811L288.99668,545.33811L288.99668,544.61804L288.51661,544.61804L288.51661,543.89796
				L287.79652,543.89796L287.79652,543.17788L287.07643,543.17788L287.07643,541.97775L285.87628,541.97775L285.87628,540.5376L
				285.15619,540.5376L285.15619,540.05755L284.4361,540.05755L284.4361,538.6174L283.716,538.6174L283.716,537.89732L283.23594,537.89732
				L283.23594,536.69719L282.51585,536.69719L282.51585,535.97711L281.79576,535.97711L281.79576,535.25704L281.07567,535.25704
				L281.07567,534.05691L280.59561,534.05691L280.59561,532.61676L279.87552,532.61676L279.87552,531.41663L279.15543,531.41663
				L279.15543,530.69655L278.43533,530.69655L278.43533,529.2564L277.95527,529.2564L277.95527,528.05627L277.23518,528.05627L277.23518,526.61612
				L276.51509,526.61612L276.51509,525.41599L275.795,525.41599L275.795,523.97584L275.07491,523.97584L275.07491,522.77571L274.59485,522.77571
				L274.59485,521.33555L273.87476,521.33555L273.87476,520.13543L273.15466,520.13543L273.15466,518.69527L272.43457,518.69527
				L272.43457,517.49515L271.95451,517.49515L271.95451,516.77507L271.23442,516.77507L271.23442,516.05499L270.51433,516.05499
				L270.51433,514.85486L269.79424,514.85486L269.79424,513.41471L269.31418,513.41471L269.31418,512.21458L268.59409,512.21458
				L268.59409,510.05435L267.87399,510.05435L267.87399,508.85422L267.1539,508.85422L267.1539,506.69399L266.67384,506.69399L266.67384,505.49387
				L265.95375,505.49387L265.95375,503.57366L265.23366,503.57366L265.23366,502.13351L264.51357,502.13351L264.51357,500.93338
				L264.03351,500.93338L264.03351,498.77315L263.31342,498.77315L263.31342,497.57302L262.59332,497.57302L262.59332,495.41279
				L261.87323,495.41279L261.87323,494.21266L261.15314,494.21266L261.15314,492.77251L260.67308,492.77251L260.67308,490.85231
				L259.95299,490.85231L259.95299,488.9321L259.2329,488.9321L259.2329,487.0119L258.51281,487.0119L258.51281,485.57174L258.03275,485.57174
				L258.03275,484.37162L257.31265,484.37162L257.31265,482.21139L256.59256,482.21139L256.59256,481.01126L255.87247,481.01126
				L255.87247,479.5711L255.39241,479.5711L255.39241,478.85103L254.67232,478.85103L254.67232,477.6509L253.95223,477.6509L253.95223,476.93082
				L253.23214,476.93082L253.23214,475.73069L252.75208,475.73069L252.75208,473.57046L252.03198,473.57046L252.03198,472.37034
				L251.31189,472.37034L251.31189,470.45013L250.5918,470.45013L250.5918,469.00998L250.11174,469.00998L250.11174,467.80985L249.39165,467.80985
				L249.39165,466.3697L248.67156,466.3697L248.67156,464.92954L247.95147,464.92954L247.95147,464.44949L247.23137,464.44949L247.23137,463.00934
				L246.75131,463.00934L246.75131,461.80921L246.03122,461.80921L246.03122,460.36906L245.31113,460.36906L245.31113,459.16893
				L244.59104,459.16893L244.59104,457.72878L244.11098,457.72878L244.11098,455.80857L243.39089,455.80857L243.39089,454.36842
				L242.6708,454.36842L242.6708,453.16829L241.9507,453.16829L241.9507,451.00806L241.47064,451.00806L241.47064,448.36778L240.75055,448.36778
				L240.75055,445.7275L240.03046,445.7275L240.03046,445.24745L239.31037,445.24745L239.31037,443.80729L238.83031,443.80729L238.83031,442.60717
				L238.11022,442.60717L238.11022,441.16701L237.39013,441.16701L237.39013,439.96688L236.67003,439.96688L236.67003,438.52673
				L236.18997,438.52673L236.18997,437.08658L233.30961,437.08658L233.30961,436.60653L232.10946,436.60653L232.10946,435.88645
				L231.38936,435.88645L231.38936,435.16637L230.18921,435.16637L230.18921,434.4463L229.46912,434.4463L229.46912,433.96624L228.74903,433.96624
				L228.74903,432.52609L228.02894,432.52609L228.02894,431.80601L227.54888,431.80601L227.54888,430.60589L226.82879,430.60589
				L226.82879,429.88581L226.10869,429.88581L226.10869,429.16573L225.3886,429.16573L225.3886,428.68568L224.18845,428.68568L224.18845,427.9656
				L222.74827,427.9656L222.74827,427.24553L220.82802,427.24553L220.82802,426.52545L220.10793,426.52545L220.10793,426.0454L218.90778,426.0454
				L218.90778,425.32532L216.74751,425.32532L216.74751,424.60525L215.54735,424.60525L215.54735,423.88517L214.82726,423.88517
				L214.82726,423.16509L214.10717,423.16509L214.10717,422.68504L213.62711,422.68504L213.62711,421.96497L212.90702,421.96497
				L212.90702,421.24489L216.74751,421.24489L216.74751,421.96497L222.26821,421.96497L222.26821,422.68504L227.54888,422.68504
				L227.54888,423.16509L232.82955,423.16509L232.82955,423.88517L238.11022,423.88517L238.11022,424.60525L243.39089,424.60525
				L243.39089,425.32532L248.67156,425.32532L248.67156,426.0454L254.67232,426.0454L254.67232,426.52545L259.95299,426.52545L259.95299,427.24553
				L265.23366,427.24553L265.23366,427.9656L270.51433,427.9656L270.51433,428.68568L280.59561,428.68568L280.59561,427.9656L288.51661,427.9656
				L288.51661,427.24553L293.07719,427.24553L293.07719,426.52545L298.35786,426.52545L298.35786,426.0454L303.63853,426.0454L303.63853,425.32532
				L308.9192,425.32532L308.9192,424.60525L314.19987,424.60525L314.19987,423.88517L319.00048,423.88517L319.00048,423.16509L324.28115,423.16509
				L324.28115,422.68504L329.56182,422.68504L329.56182,421.96497L334.84249,421.96497L334.84249,421.24489L340.12316,421.24489
				L340.12316,420.52481L389.08938,420.52481L389.08938,420.04476L401.0909,420.04476L401.0909,419.32468L413.09242,419.32468L413.09242,418.60461
				L425.09395,418.60461L425.09395,417.88453L457.49806,417.88453L457.49806,417.40448L491.34235,417.40448L491.34235,476.93082
				L487.98193,476.93082L487.98193,477.6509L486.54174,477.6509L486.54174,478.37098L485.34159,478.37098L485.34159,478.85103L483.42135,478.85103
				L483.42135,479.5711L481.98117,479.5711L481.98117,480.29118L480.78101,480.29118L480.78101,481.01126L480.06092,481.01126L480.06092,481.73133
				L478.62074,481.73133L478.62074,482.21139L477.90065,482.21139L477.90065,482.93146L477.42059,482.93146L477.42059,483.65154
				L476.7005,483.65154L476.7005,484.37162L475.9804,484.37162L475.9804,484.85167L475.26031,484.85167L475.26031,485.57174L474.78025,485.57174
				L474.78025,486.29182L474.06016,486.29182L474.06016,487.49195L473.34007,487.49195L473.34007,489.65218L472.61998,489.65218
				L472.61998,490.85231L471.41983,490.85231L471.41983,490.13223L470.69973,490.13223L470.69973,489.65218L469.49958,489.65218
				L469.49958,488.9321L468.77949,488.9321L468.77949,488.21202L466.13915,488.21202L466.13915,488.9321L463.97888,488.9321L463.97888,489.65218
				L462.05864,489.65218L462.05864,490.13223L460.85848,490.13223L460.85848,490.85231L458.69821,490.85231L458.69821,491.57238
				L456.77797,491.57238L456.77797,492.29246L455.57781,492.29246L455.57781,492.77251L454.13763,492.77251L454.13763,493.49259
				L452.93748,493.49259L452.93748,494.21266L451.4973,494.21266L451.4973,494.93274L450.77721,494.93274L450.77721,495.41279L449.57705,495.41279
				L449.57705,496.13287L448.13687,496.13287L448.13687,496.85295L446.21663,496.85295L446.21663,497.57302L444.77644,497.57302
				L444.77644,498.2931L443.57629,498.2931L443.57629,498.77315L442.13611,498.77315L442.13611,499.49323L440.93596,499.49323L440.93596,500.2133
				L439.49577,500.2133L439.49577,500.93338L438.29562,500.93338L438.29562,501.41343L436.85544,501.41343L436.85544,502.13351L
				435.65529,502.13351L435.65529,502.85359L434.2151,502.85359L434.2151,503.57366L433.01495,503.57366L433.01495,504.05371L431.57477,504.05371
				L431.57477,504.77379L430.37462,504.77379L430.37462,505.49387L428.93443,505.49387L428.93443,506.21394L427.01419,506.21394
				L427.01419,506.69399L425.57401,506.69399L425.57401,507.41407L424.37385,507.41407L424.37385,508.13415L422.93367,508.13415
				L422.93367,508.85422L421.73352,508.85422L421.73352,509.33428L420.29334,509.33428L420.29334,510.05435L419.09318,510.05435
				L419.09318,510.77443L417.653,510.77443L417.653,511.49451L415.73276,511.49451L415.73276,512.21458L414.29258,512.21458L414.29258,512.69463
				L413.09242,512.69463L413.09242,513.41471L411.65224,513.41471L411.65224,514.13479L409.732,514.13479L409.732,514.85486L408.53184,514.85486
				L408.53184,515.33492L407.09166,515.33492L407.09166,516.05499L405.17142,516.05499L405.17142,516.77507L403.73124,516.77507
				L403.73124,517.49515L402.53108,517.49515L402.53108,517.9752L401.0909,517.9752L401.0909,518.69527L399.17066,518.69527L399.17066,519.41535
				L397.73047,519.41535L397.73047,520.13543L396.53032,520.13543L396.53032,520.61548L394.61008,520.61548L394.61008,521.33555
				L393.16989,521.33555L393.16989,522.05563L391.72971,522.05563L391.72971,522.77571L390.52956,522.77571L390.52956,523.25576
				L389.80947,523.25576L389.80947,523.97584L389.08938,523.97584L389.08938,524.69591L388.60932,524.69591L388.60932,525.41599
				L387.88922,525.41599L387.88922,526.13607L387.16913,526.13607L387.16913,526.61612L386.44904,526.61612L386.44904,527.33619
				L385.96898,527.33619L385.96898,528.77635L385.24889,528.77635L385.24889,529.2564L384.5288,529.2564L384.5288,529.97648L383.80871,529.97648
				L383.80871,530.69655L383.32865,530.69655L383.32865,531.41663L382.60855,531.41663L382.60855,531.89668L381.88846,531.89668
				L381.88846,532.61676L381.16837,532.61676L381.16837,533.33683L379.96822,533.33683L379.96822,534.05691L372.52728,534.05691
				L372.52728,533.33683L368.68679,533.33683L368.68679,534.05691L366.04645,534.05691L366.04645,534.53696L364.12621,534.53696
				L364.12621,535.25704L362.68603,535.25704L362.68603,535.97711L361.96594,535.97711L361.96594,536.69719L361.24584,536.69719
				L361.24584,537.17724L360.04569,537.17724L360.04569,537.89732L359.3256,537.89732L359.3256,538.6174L358.60551,538.6174L358.60551,539.33747
				L358.12545,539.33747L358.12545,540.05755L357.40536,540.05755L357.40536,540.5376L356.68526,540.5376L356.68526,541.97775L355.96517,541.97775
				L355.96517,542.69783L355.48511,542.69783L355.48511,543.17788L354.76502,543.17788L354.76502,544.61804L354.04493,544.61804
				L354.04493,545.33811L353.32484,545.33811L353.32484,546.53824L352.84478,546.53824L352.84478,547.25832L352.12469,547.25832
				L352.12469,547.97839L351.40459,547.97839L351.40459,548.45844"/>
			<path clip-path="url(#SVG_CP_2)" fill="none" stroke="#999999" stroke-width="0.96012" stroke-miterlimit="10" stroke-linecap="round" stroke-linejoin="round" d="
				M529.02714,548.45844L352.84478,548.45844L352.84478,547.97839L354.76502,547.97839L354.76502,547.25832L356.68526,547.25832
				L356.68526,546.53824L359.3256,546.53824L359.3256,545.81816L361.24584,545.81816L361.24584,545.33811L363.40612,545.33811L363.40612,544.61804
				L365.32636,544.61804L365.32636,543.89796L367.9667,543.89796L367.9667,543.17788L369.88694,543.17788L369.88694,542.69783L372.04721,542.69783
				L372.04721,541.97775L373.96746,541.97775L373.96746,541.25768L376.60779,541.25768L376.60779,540.5376L378.52804,540.5376L378.52804,540.05755
				L380.68831,540.05755L380.68831,539.33747L382.60855,539.33747L382.60855,538.6174L385.24889,538.6174L385.24889,537.89732L387.16913,537.89732
				L387.16913,537.17724L389.08938,537.17724L389.08938,536.69719L391.24965,536.69719L391.24965,535.97711L393.88999,535.97711
				L393.88999,535.25704L395.81023,535.25704L395.81023,534.53696L397.73047,534.53696L397.73047,534.05691L400.37081,534.05691
				L400.37081,533.33683L402.53108,533.33683L402.53108,532.61676L404.45133,532.61676L404.45133,531.89668L406.37157,531.89668
				L406.37157,531.41663L409.01191,531.41663L409.01191,530.69655L411.17218,530.69655L411.17218,529.97648L413.09242,529.97648
				L413.09242,529.2564L415.01267,529.2564L415.01267,528.77635L417.653,528.77635L417.653,528.05627L419.57325,528.05627L419.57325,527.33619
				L421.73352,527.33619L421.73352,526.61612L423.65376,526.61612L423.65376,526.13607L426.2941,526.13607L426.2941,525.41599L428.21434,525.41599
				L428.21434,524.69591L430.37462,524.69591L430.37462,523.97584L432.29486,523.97584L432.29486,523.25576L434.9352,523.25576L
				434.9352,522.77571L436.85544,522.77571L436.85544,522.05563L439.01571,522.05563L439.01571,521.33555L441.65605,521.33555L441.65605,520.61548
				L442.13611,520.61548L442.13611,520.13543L441.65605,520.13543L441.65605,517.9752L440.93596,517.9752L440.93596,516.77507L440.21587,516.77507
				L440.21587,514.85486L439.49577,514.85486L439.49577,511.49451L440.21587,511.49451L440.21587,510.05435L440.93596,510.05435
				L440.93596,509.33428L442.13611,509.33428L442.13611,508.85422L442.8562,508.85422L442.8562,508.13415L444.29638,508.13415L444.29638,507.41407
				L445.49654,507.41407L445.49654,506.69399L446.93672,506.69399L446.93672,506.21394L448.85696,506.21394L448.85696,505.49387
				L450.77721,505.49387L450.77721,504.77379L452.93748,504.77379L452.93748,504.05371L454.85772,504.05371L454.85772,503.57366
				L456.77797,503.57366L456.77797,502.85359L458.69821,502.85359L458.69821,502.13351L460.85848,502.13351L460.85848,501.41343
				L462.05864,501.41343L462.05864,500.93338L463.97888,500.93338L463.97888,500.2133L466.85925,500.2133L466.85925,499.49323L469.97964,499.49323
				L469.97964,498.77315L473.34007,498.77315L473.34007,498.2931L475.9804,498.2931L475.9804,497.57302L477.42059,497.57302L477.42059,498.2931
				L481.98117,498.2931L481.98117,499.49323L482.70126,499.49323L482.70126,500.2133L483.42135,500.2133L483.42135,500.93338L483.90141,500.93338
				L483.90141,501.41343L485.34159,501.41343L485.34159,502.13351L486.54174,502.13351L486.54174,502.85359L487.26184,502.85359
				L487.26184,502.13351L489.18208,502.13351L489.18208,501.41343L490.62226,501.41343L490.62226,500.93338L492.54251,500.93338
				L492.54251,500.2133L494.70278,500.2133L494.70278,499.49323L496.62302,499.49323L496.62302,498.77315L498.54327,498.77315L498.54327,498.2931
				L500.46351,498.2931L500.46351,497.57302L502.62378,497.57302L502.62378,496.85295L504.54403,496.85295L504.54403,496.13287L
				507.18436,496.13287L507.18436,495.41279L509.10461,495.41279L509.10461,494.93274L511.74494,494.93274L511.74494,494.21266L
				520.38604,494.21266L520.38604,494.93274L523.02637,494.93274L523.02637,495.41279L525.66671,495.41279L525.66671,496.13287L
				527.10689,496.13287L527.10689,495.41279L530.94738,495.41279L530.94738,494.93274L531.66747,494.93274L531.66747,494.21266L
				532.38756,494.21266L532.38756,493.49259L533.58771,493.49259L533.58771,492.77251L534.30781,492.77251L534.30781,492.29246L
				535.0279,492.29246L535.0279,491.57238L535.74799,491.57238L535.74799,490.85231L536.46808,490.85231L536.46808,490.13223L537.66823,490.13223
				L537.66823,489.65218L538.38832,489.65218L538.38832,488.9321L539.10841,488.9321L539.10841,488.21202L539.58848,488.21202L539.58848,487.49195
				L540.30857,487.49195L540.30857,487.0119L541.74875,487.0119L541.74875,486.29182L542.22881,486.29182L542.22881,485.57174L542.9489,485.57174
				L542.9489,484.85167L543.66899,484.85167L543.66899,484.37162L544.38909,484.37162L544.38909,483.65154L544.86915,483.65154L
				544.86915,482.93146L546.30933,482.93146L546.30933,482.21139L547.02942,482.21139L547.02942,481.73133L547.50948,481.73133L
				547.50948,481.01126L548.22957,481.01126L548.22957,480.29118L548.94966,480.29118L548.94966,479.5711L539.10841,479.5711L539.10841,478.85103
				L535.0279,478.85103L535.0279,478.37098L530.94738,478.37098L530.94738,477.6509L525.18665,477.6509L525.18665,476.93082L519.66595,476.93082
				L519.66595,476.21075L509.10461,476.21075L509.10461,476.93082L491.82241,476.93082L491.82241,417.40448L494.70278,417.40448
				L494.70278,416.6844L493.98269,416.6844L493.98269,415.96433L492.54251,415.96433L492.54251,415.24425L491.82241,415.24425L491.82241,414.7642
				L491.34235,414.7642L491.34235,414.04412L489.90217,414.04412L489.90217,413.32404L489.18208,413.32404L489.18208,412.60397L
				487.98193,412.60397L487.98193,412.12392L487.26184,412.12392L487.26184,411.40384L486.54174,411.40384L486.54174,410.68376L
				485.34159,410.68376L485.34159,409.96369L484.6215,409.96369L484.6215,409.24361L483.90141,409.24361L483.90141,408.76356L482.70126,408.76356
				L482.70126,408.04348L481.98117,408.04348L481.98117,407.32341L480.78101,407.32341L480.78101,406.60333L480.06092,406.60333
				L480.06092,406.12328L479.34083,406.12328L479.34083,405.4032L477.90065,405.4032L477.90065,404.68312L477.42059,404.68312L477.42059,403.96305
				L476.7005,403.96305L476.7005,403.483L475.26031,403.483L475.26031,402.76292L474.78025,402.76292L474.78025,402.04284L473.34007,402.04284
				L473.34007,401.32277L472.61998,401.32277L472.61998,400.84271L472.13992,400.84271L472.13992,400.12264L470.69973,400.12264
				L470.69973,399.40256L469.97964,399.40256L469.97964,398.68248L469.49958,398.68248L469.49958,398.20243L468.0594,398.20243L
				468.0594,397.48236L467.33931,397.48236L467.33931,396.76228L466.13915,396.76228L466.13915,396.0422L465.41906,396.0422L465.41906,395.56215
				L464.69897,395.56215L464.69897,394.84208L463.49882,394.84208L463.49882,394.122L462.77873,394.122L462.77873,393.40192L462.05864,393.40192
				L462.05864,392.68185L460.85848,392.68185L460.85848,392.20179L460.13839,392.20179L460.13839,391.48172L458.69821,391.48172
				L458.69821,390.76164L458.21815,390.76164L458.21815,390.04156L457.49806,390.04156L457.49806,389.56151L456.05788,389.56151
				L456.05788,388.84144L455.57781,388.84144L455.57781,388.12136L454.13763,388.12136L454.13763,387.40128L453.41754,387.40128
				L453.41754,386.92123L452.93748,386.92123L452.93748,386.20115L451.4973,386.20115L451.4973,385.48108L450.77721,385.48108L450.77721,384.761
				L449.57705,384.761L449.57705,384.28095L448.85696,384.28095L448.85696,383.56087L447.41678,383.56087L447.41678,382.8408L446.93672,382.8408
				L446.93672,382.12072L446.21663,382.12072L446.21663,381.64067L444.77644,381.64067L444.77644,380.92059L444.29638,380.92059
				L444.29638,380.20051L442.8562,380.20051L442.8562,379.48044L442.13611,379.48044L442.13611,378.76036L440.93596,378.76036L440.93596,378.28031
				L440.21587,378.28031L440.21587,377.56023L439.01571,377.56023L439.01571,376.84016L438.29562,376.84016L438.29562,376.12008
				L437.57553,376.12008L437.57553,375.64003L436.37538,375.64003L436.37538,374.91995L435.65529,374.91995L435.65529,374.19988
				L434.2151,374.19988L434.2151,373.4798L433.49501,373.4798L433.49501,372.99975L432.29486,372.99975L432.29486,372.27967L431.57477,372.27967
				L431.57477,371.55959L430.85468,371.55959L430.85468,370.83952L429.65452,370.83952L429.65452,370.35947L428.93443,370.35947
				L428.93443,369.63939L427.73428,369.63939L427.73428,368.91931L427.01419,368.91931L427.01419,368.19924L425.57401,368.19924
				L425.57401,367.71918L425.09395,367.71918L425.09395,366.99911L424.37385,366.99911L424.37385,366.27903L422.93367,366.27903
				L422.93367,365.55895L422.45361,365.55895L422.45361,364.83888L421.01343,364.83888L421.01343,364.35883L420.29334,364.35883
				L420.29334,363.63875L419.57325,363.63875L419.57325,362.91867L418.37309,362.91867L418.37309,362.1986L417.653,362.1986L417.653,361.71855
				L416.45285,361.71855L416.45285,360.99847L415.73276,360.99847L415.73276,360.27839L415.01267,360.27839L415.01267,359.55832
				L413.81251,359.55832L413.81251,359.07826L413.09242,359.07826L413.09242,358.35819L411.65224,358.35819L411.65224,357.63811
				L411.17218,357.63811L411.17218,356.91803L409.732,356.91803L409.732,356.43798L409.01191,356.43798L409.01191,355.71791L408.53184,355.71791
				L408.53184,354.99783L407.09166,354.99783L407.09166,354.27775L406.37157,354.27775L406.37157,353.7977L405.17142,353.7977L405.17142,353.07762
				L404.45133,353.07762L404.45133,352.35755L403.73124,352.35755L403.73124,351.63747L402.53108,351.63747L402.53108,350.91739
				L401.81099,350.91739L401.81099,350.43734L400.37081,350.43734L400.37081,349.71727L399.89075,349.71727L399.89075,348.99719
				L399.17066,348.99719L399.17066,348.27711L397.73047,348.27711L397.73047,347.79706L397.25041,347.79706L397.25041,347.07699
				L395.81023,347.07699L395.81023,346.35691L395.09014,346.35691L395.09014,345.63683L394.61008,345.63683L394.61008,345.15678
				L393.16989,345.15678L393.16989,344.4367L392.4498,344.4367L392.4498,343.71663L391.24965,343.71663L391.24965,342.99655L390.52956,342.99655
				L390.52956,342.5165L389.80947,342.5165L389.80947,341.79642L388.60932,341.79642L388.60932,341.07635L387.88922,341.07635L387.88922,340.35627
				L387.16913,340.35627L387.16913,339.87622L385.96898,339.87622L385.96898,339.15614L385.24889,339.15614L385.24889,338.43606
				L384.5288,338.43606L384.5288,337.71599L383.80871,337.71599L383.80871,336.99591L382.60855,336.99591L382.60855,336.51586L381.88846,336.51586
				L381.88846,335.79578L381.16837,335.79578L381.16837,335.07571L379.96822,335.07571L379.96822,334.35563L379.24813,334.35563
				L379.24813,333.87558L378.52804,333.87558L378.52804,333.1555L377.32788,333.1555L377.32788,332.43543L376.60779,332.43543L376.60779,331.71535
				L375.8877,331.71535L375.8877,331.2353L374.68755,331.2353L374.68755,330.51522L373.96746,330.51522L373.96746,329.79514L373.24737,329.79514
				L373.24737,329.07507L372.52728,329.07507L372.52728,328.59502L371.32712,328.59502L371.32712,327.87494L370.60703,327.87494
				L370.60703,327.15486L369.88694,327.15486L369.88694,326.43479L368.68679,326.43479L368.68679,325.95473L367.9667,325.95473L
				367.9667,325.23466L367.24661,325.23466L367.24661,324.51458L366.04645,324.51458L366.04645,323.7945L365.32636,323.7945L365.32636,323.07443
				L364.60627,323.07443L364.60627,322.59438L366.04645,322.59438L366.04645,323.07443L368.68679,323.07443L368.68679,323.7945L
				370.60703,323.7945L370.60703,324.51458L372.04721,324.51458L372.04721,325.23466L373.96746,325.23466L373.96746,325.95473L375.8877,325.95473
				L375.8877,326.43479L377.32788,326.43479L377.32788,327.15486L379.24813,327.15486L379.24813,327.87494L379.96822,327.87494L
				379.96822,327.15486L380.68831,327.15486L380.68831,326.43479L381.16837,326.43479L381.16837,325.95473L381.88846,325.95473L
				381.88846,325.23466L383.32865,325.23466L383.32865,324.51458L383.80871,324.51458L383.80871,323.7945L384.5288,323.7945L384.5288,323.07443
				L385.24889,323.07443L385.24889,322.59438L387.16913,322.59438L387.16913,321.8743L389.08938,321.8743L389.08938,321.15422L390.52956,321.15422
				L390.52956,320.43415L393.16989,320.43415L393.16989,319.9541L394.61008,319.9541L394.61008,319.23402L395.81023,319.23402L395.81023,318.51394
				L399.17066,318.51394L399.17066,317.79386L401.0909,317.79386L401.0909,317.31381L413.09242,317.31381L413.09242,317.79386L428.21434,317.79386
				L428.21434,318.51394L431.57477,318.51394L431.57477,319.23402L433.01495,319.23402L433.01495,319.9541L434.2151,319.9541L434.2151,320.43415
				L435.65529,320.43415L435.65529,321.8743L434.9352,321.8743L434.9352,324.51458L436.37538,324.51458L436.37538,325.95473L436.85544,325.95473
				L436.85544,326.43479L437.57553,326.43479L437.57553,327.15486L438.29562,327.15486L438.29562,327.87494L439.01571,327.87494
				L439.01571,328.59502L439.49577,328.59502L439.49577,329.07507L450.77721,329.07507L450.77721,328.59502L451.4973,328.59502L
				451.4973,326.43479L452.21739,326.43479L452.21739,325.95473L453.41754,325.95473L453.41754,325.23466L454.13763,325.23466L454.13763,325.95473
				L454.85772,325.95473L454.85772,325.23466L456.77797,325.23466L456.77797,324.51458L462.05864,324.51458L462.05864,325.23466
				L463.49882,325.23466L463.49882,325.95473L464.69897,325.95473L464.69897,326.43479L466.85925,326.43479L466.85925,327.15486
				L469.49958,327.15486L469.49958,327.87494L471.41983,327.87494L471.41983,328.59502L474.06016,328.59502L474.06016,329.07507
				L475.26031,329.07507L475.26031,329.79514L477.42059,329.79514L477.42059,330.51522L478.62074,330.51522L478.62074,331.2353L
				480.06092,331.2353L480.06092,331.71535L480.78101,331.71535L480.78101,332.43543L481.26107,332.43543L481.26107,333.1555L480.78101,333.1555
				L480.78101,335.79578L481.26107,335.79578L481.26107,336.51586L481.98117,336.51586L481.98117,337.71599L482.70126,337.71599
				L482.70126,339.87622L483.42135,339.87622L483.42135,341.07635L483.90141,341.07635L483.90141,342.5165L484.6215,342.5165L484.6215,345.63683
				L485.34159,345.63683L485.34159,347.07699L486.06168,347.07699L486.06168,347.79706L486.54174,347.79706L486.54174,348.27711
				L487.26184,348.27711L487.26184,349.71727L487.98193,349.71727L487.98193,350.43734L489.18208,350.43734L489.18208,350.91739
				L489.90217,350.91739L489.90217,351.63747L491.34235,351.63747L491.34235,352.35755L492.54251,352.35755L492.54251,353.07762
				L493.98269,353.07762L493.98269,353.7977L495.90293,353.7977L495.90293,354.27775L499.26336,354.27775L499.26336,354.99783L503.82394,354.99783
				L503.82394,355.71791L505.26412,355.71791L505.26412,356.43798L505.74418,356.43798L505.74418,356.91803L507.18436,356.91803
				L507.18436,357.63811L508.62455,357.63811L508.62455,358.35819L510.54479,358.35819L510.54479,359.07826L512.46503,359.07826
				L512.46503,359.55832L517.02561,359.55832L517.02561,360.27839L520.38604,360.27839L520.38604,360.99847L522.54631,360.99847
				L522.54631,361.71855L524.46656,361.71855L524.46656,362.1986L527.82698,362.1986L527.82698,362.91867L530.46732,362.91867L530.46732,363.63875
				L533.10765,363.63875L533.10765,364.35883L535.0279,364.35883L535.0279,364.83888L536.46808,364.83888L536.46808,365.55895L537.66823,365.55895
				L537.66823,366.27903L539.10841,366.27903L539.10841,366.99911L539.58848,366.99911L539.58848,367.71918L541.02866,367.71918
				L541.02866,368.19924L542.22881,368.19924L542.22881,368.91931L543.66899,368.91931L543.66899,369.63939L544.38909,369.63939
				L544.38909,370.35947L544.86915,370.35947L544.86915,370.83952L546.30933,370.83952L546.30933,371.55959L547.02942,371.55959
				L547.02942,372.27967L547.50948,372.27967L547.50948,372.99975L549.66976,372.99975L549.66976,538.6174L548.94966,538.6174L548.94966,540.05755
				L548.22957,540.05755L548.22957,540.5376L546.30933,540.5376L546.30933,541.25768L544.86915,541.25768L544.86915,541.97775L543.66899,541.97775
				L543.66899,542.69783L541.74875,542.69783L541.74875,543.17788L540.30857,543.17788L540.30857,543.89796L538.38832,543.89796
				L538.38832,544.61804L536.94814,544.61804L536.94814,545.33811L535.0279,545.33811L535.0279,545.81816L533.58771,545.81816L533.58771,546.53824
				L532.38756,546.53824L532.38756,547.25832L530.46732,547.25832L530.46732,547.97839L529.02714,547.97839L529.02714,548.45844
				"/>
		</g>
</g></svg>