<?xml version="1.0" encoding="utf-8" standalone="no"?>
<!-- Creator: ESRI ArcMap 10.0.0.2414 -->
<!DOCTYPE svg PUBLIC "-//W3C//DTD SVG 1.1//EN"  "http://www.w3.org/Graphics/SVG/1.1/DTD/svg11.dtd">
<svg width="524.0420768pt" height="225.5293107pt" viewBox="32.15712744 308.36447965 524.0420768 225.5293107" enable-background="new 32.15712744 308.36447965 524.0420768 225.5293107"
	version="1.1" xmlns="http://www.w3.org/2000/svg" xmlns:xlink="http://www.w3.org/1999/xlink" >
	<g id="Couches">
		<g id="cont_2">
			<path clip-path="url(#SVG_CP_2)" fill="none" stroke="#999999" stroke-width="0.96012" stroke-miterlimit="10" stroke-linecap="round" stroke-linejoin="round" d="
				M49.20624,495.17277L49.20624,494.93274L48.96621,494.93274L48.96621,494.21266L48.96621,493.73261L48.96621,493.25256L48.96621,492.77251
				L48.96621,492.53249L48.96621,491.33236L48.96621,491.09233L48.96621,490.85231L49.20624,490.85231L49.20624,490.61228L49.20624,490.13223
				L49.20624,489.65218L48.96621,489.65218L48.96621,489.41215L48.96621,489.17213L48.96621,488.9321L48.72618,488.9321L48.72618,488.69208
				L48.72618,488.45205L48.48615,488.45205L48.48615,488.21202L48.48615,487.73197L48.48615,487.49195L48.24612,487.49195L48.24612,487.0119
				L48.24612,486.53185L48.24612,486.29182L48.24612,485.81177L48.00609,485.81177L48.00609,485.57174L48.00609,485.09169L48.00609,484.61164
				L48.00609,484.37162L47.76606,484.37162L47.76606,483.89156L47.76606,483.65154L47.76606,483.17149L47.76606,483.41151L48.00609,483.41151
				L48.00609,483.65154L48.00609,483.89156L48.00609,484.13159L48.24612,484.13159L48.24612,484.37162L48.24612,484.61164L48.24612,484.85167
				L48.48615,484.85167L48.48615,485.09169L48.48615,485.33172L48.48615,485.57174L48.72618,485.57174L48.72618,485.81177L48.72618,486.05179
				L48.72618,486.29182L48.96621,486.29182L48.96621,486.53185L48.96621,486.77187L48.96621,487.0119L49.20624,487.0119L49.20624,487.25192
				L49.20624,487.49195L49.20624,487.73197L49.44628,487.73197L49.44628,487.972L49.44628,488.21202L49.44628,488.45205L49.68631,488.45205
				L49.68631,488.69208L49.68631,488.9321L49.68631,489.17213L49.92634,489.17213L49.92634,489.41215L49.92634,489.65218L49.92634,489.8922
				L50.16637,489.8922L50.16637,490.37225L49.92634,490.37225L49.92634,490.85231L49.92634,491.33236L49.92634,491.57238L49.92634,492.05243
				L49.68631,492.05243L49.68631,492.29246L49.68631,492.77251L49.68631,493.01254L49.68631,493.25256L49.44628,493.25256L49.44628,493.73261
				L49.44628,493.97264L49.44628,494.45269L49.44628,494.69272L49.20624,494.69272L49.20624,494.93274L49.20624,495.17277"/>
			<path clip-path="url(#SVG_CP_2)" fill="none" stroke="#999999" stroke-width="0.96012" stroke-miterlimit="10" stroke-linecap="round" stroke-linejoin="round" d="
				M182.18312,495.65282L182.18312,495.41279L181.94309,495.41279L182.18312,495.41279L182.18312,495.65282L182.18312,495.65282
				"/>
			<path clip-path="url(#SVG_CP_2)" fill="none" stroke="#999999" stroke-width="0.96012" stroke-miterlimit="10" stroke-linecap="round" stroke-linejoin="round" d="
				M182.66318,496.13287L182.66318,495.89284L182.90321,495.89284L182.90321,496.13287L182.66318,496.13287"/>
			<path clip-path="url(#SVG_CP_2)" fill="none" stroke="#999999" stroke-width="0.96012" stroke-miterlimit="10" stroke-linecap="round" stroke-linejoin="round" d="
				M70.56896,502.85359L69.60883,502.85359L69.12877,502.85359L69.12877,502.61356L68.88874,502.61356L68.88874,502.37353L68.64871,502.37353
				L68.64871,501.89348L68.64871,501.65346L68.40868,501.65346L68.40868,501.41343L68.16865,501.41343L68.16865,499.49323L68.16865,499.2532
				L67.92862,499.2532L67.92862,499.01318L67.92862,498.77315L67.92862,498.53312L67.68859,498.53312L67.68859,498.2931L67.68859,498.05307
				L67.68859,496.85295L67.68859,496.61292L67.44856,496.61292L67.44856,496.37289L67.44856,496.13287L67.44856,495.65282L67.20853,495.65282
				L67.20853,495.41279L67.20853,495.17277L67.20853,494.93274L66.9685,494.93274L66.9685,494.69272L66.9685,494.45269L66.9685,494.21266
				L66.72847,494.21266L66.72847,493.97264L66.48844,493.97264L66.48844,493.73261L66.24841,493.73261L66.24841,493.49259L66.24841,493.01254
				L66.24841,492.77251L66.24841,492.53249L66.00838,492.53249L66.00838,492.29246L66.00838,492.05243L65.76835,492.05243L65.76835,491.81241
				L65.52832,491.81241L65.52832,491.57238L65.28829,491.57238L65.28829,491.33236L65.04826,491.33236L65.04826,491.09233L64.80822,491.09233
				L64.80822,490.85231L64.32816,490.85231L62.64795,490.85231L62.64795,490.37225L62.64795,489.8922L62.88798,489.8922L62.88798,488.9321
				L62.88798,487.49195L62.88798,486.77187L62.88798,486.05179L63.12801,486.05179L63.12801,485.33172L63.12801,484.85167L63.12801,484.37162
				L63.12801,484.13159L63.12801,483.89156L63.12801,483.65154L62.88798,483.65154L62.88798,483.41151L62.88798,483.17149L62.88798,482.93146
				L62.88798,482.69144L62.64795,482.69144L62.64795,482.45141L62.64795,482.21139L62.64795,481.97136L62.64795,481.73133L62.40792,481.73133
				L62.40792,481.49131L62.40792,481.25128L62.40792,481.01126L62.16789,481.01126L62.16789,480.77123L62.16789,480.53121L62.16789,480.29118
				L62.16789,480.05116L61.92786,480.05116L61.92786,479.81113L61.92786,479.5711L61.92786,479.33108L61.92786,479.09105L61.68783,479.09105
				L61.68783,478.85103L61.68783,478.611L61.68783,478.37098L61.68783,478.13095L61.4478,478.13095L61.4478,477.89092L61.4478,477.6509
				L61.4478,477.41087L61.4478,477.17085L61.20777,477.17085L61.20777,476.93082L61.20777,476.6908L61.20777,476.45077L60.96774,476.45077
				L60.96774,476.21075L60.96774,475.97072L60.96774,475.73069L60.96774,475.49067L60.72771,475.49067L60.72771,475.25064L60.72771,475.01062
				L60.72771,474.77059L60.72771,474.53057L60.48768,474.53057L60.48768,474.29054L60.48768,474.05052L60.48768,473.81049L60.24765,473.81049
				L60.24765,473.57046L60.24765,473.33044L60.24765,473.09041L60.24765,472.85039L60.00762,472.85039L60.00762,472.61036L60.00762,472.13031
				L60.00762,471.89029L59.76759,471.89029L59.76759,471.65026L59.76759,471.41023L59.76759,471.17021L59.76759,470.93018L59.52755,470.93018
				L59.52755,470.69016L59.52755,470.45013L59.76759,470.45013L59.76759,470.69016L60.00762,470.69016L60.00762,470.93018L60.24765,470.93018
				L60.48768,470.93018L60.48768,471.17021L60.72771,471.17021L60.72771,471.41023L60.96774,471.41023L60.96774,471.65026L61.20777,471.65026
				L61.4478,471.65026L61.4478,471.89029L61.68783,471.89029L61.68783,472.13031L61.92786,472.13031L61.92786,472.37034L61.92786,472.61036
				L62.16789,472.61036L62.16789,472.85039L62.40792,472.85039L62.40792,473.09041L62.40792,473.33044L62.64795,473.33044L62.64795,473.57046
				L62.88798,473.57046L62.88798,473.81049L62.88798,474.05052L63.12801,474.05052L63.12801,474.29054L63.12801,474.53057L63.36804,474.53057
				L63.36804,474.77059L63.36804,475.01062L63.60807,475.01062L63.60807,475.25064L63.8481,475.25064L63.8481,475.49067L63.8481,475.73069
				L64.08813,475.73069L64.08813,475.97072L64.08813,476.21075L64.32816,476.21075L64.32816,476.45077L64.32816,476.6908L64.56819,476.6908
				L64.56819,476.93082L64.80822,476.93082L64.80822,477.17085L65.04826,477.17085L65.04826,477.41087L65.04826,477.6509L65.28829,477.6509
				L65.28829,477.89092L65.28829,478.13095L65.52832,478.13095L65.52832,478.37098L65.76835,478.37098L65.76835,478.611L65.76835,478.85103
				L66.00838,478.85103L66.00838,479.09105L66.24841,479.09105L66.24841,479.33108L66.24841,479.5711L66.24841,479.81113L66.48844,479.81113
				L66.48844,480.05116L66.48844,480.29118L66.72847,480.29118L66.72847,480.53121L66.72847,480.77123L66.72847,481.25128L66.72847,481.49131
				L66.72847,481.73133L66.9685,481.73133L66.9685,481.97136L67.20853,481.97136L67.68859,481.97136L67.92862,481.97136L68.16865,481.97136
				L68.16865,482.21139L68.64871,482.21139L69.12877,482.21139L69.12877,482.45141L69.12877,482.21139L69.60883,482.21139L71.04902,482.21139
				L71.28905,482.21139L71.28905,482.45141L71.52908,482.45141L76.08966,482.45141L77.04978,482.45141L77.28981,482.45141L77.28981,482.69144
				L77.76987,482.69144L78.0099,482.69144L78.48996,482.69144L78.48996,482.93146L78.72999,482.93146L78.97002,482.93146L79.45008,482.93146
				L79.69011,482.93146L79.69011,483.17149L79.93014,483.17149L80.17017,483.17149L80.4102,483.17149L80.65024,483.17149L80.65024,483.41151
				L80.89027,483.41151L81.37033,483.41151L81.61036,483.41151L81.61036,483.65154L81.85039,483.65154L82.09042,483.65154L82.33045,483.65154
				L82.57048,483.65154L82.57048,483.89156L82.81051,483.89156L83.05054,483.89156L83.29057,483.89156L83.29057,484.13159L83.5306,484.13159
				L83.77063,484.13159L83.77063,484.37162L84.01066,484.37162L84.25069,484.37162L84.25069,484.61164L84.49072,484.61164L84.73075,484.61164
				L84.73075,484.85167L84.97078,484.85167L85.21081,484.85167L85.21081,485.09169L85.45084,485.09169L85.69087,485.09169L85.69087,485.33172
				L85.93091,485.33172L86.17094,485.33172L86.17094,485.57174L86.41097,485.57174L86.651,485.57174L86.651,485.81177L86.89103,485.81177
				L87.13106,485.81177L87.13106,486.05179L87.37109,486.05179L87.37109,486.29182L87.61112,486.29182L87.85115,486.29182L87.85115,486.53185
				L88.09118,486.53185L88.33121,486.53185L88.33121,486.77187L88.57124,486.77187L88.57124,487.0119L88.81127,487.0119L88.81127,487.25192
				L89.0513,487.25192L89.0513,487.49195L89.29133,487.49195L89.29133,487.73197L89.53136,487.73197L89.53136,487.972L89.77139,487.972
				L89.77139,488.21202L90.01142,488.21202L90.01142,488.45205L90.25145,488.45205L90.49148,488.45205L90.49148,488.69208L90.73151,488.69208
				L90.73151,488.9321L90.97155,488.9321L90.97155,489.17213L91.21158,489.17213L91.21158,489.41215L91.45161,489.41215L91.45161,489.65218
				L91.69164,489.65218L91.69164,489.8922L91.93167,489.8922L91.93167,490.13223L91.93167,490.37225L92.1717,490.37225L92.41173,490.37225
				L92.41173,490.61228L92.65176,490.61228L92.65176,490.85231L92.89179,490.85231L92.89179,491.09233L93.13182,491.09233L93.13182,491.33236
				L93.37185,491.33236L93.37185,491.57238L93.61188,491.57238L93.61188,491.81241L93.85191,491.81241L93.85191,492.05243L93.85191,492.29246
				L94.09194,492.29246L94.33197,492.29246L94.33197,492.53249L94.572,492.53249L94.572,492.77251L94.81203,492.77251L94.81203,493.01254
				L94.81203,493.25256L95.05206,493.25256L95.05206,493.49259L95.29209,493.49259L96.01218,493.49259L96.49225,493.49259L96.49225,493.73261
				L97.21234,493.73261L97.21234,493.49259L97.93243,493.49259L97.93243,493.73261L98.41249,493.73261L98.65252,493.73261L98.89255,493.73261
				L98.89255,493.49259L99.13258,493.49259L100.57276,493.49259L102.49301,493.49259L103.45313,493.49259L103.45313,493.25256L103.93319,493.25256
				L104.89331,493.25256L105.6134,493.25256L106.09346,493.25256L106.33349,493.25256L107.05359,493.25256L107.53365,493.25256L
				107.77368,493.25256L107.77368,493.49259L108.25374,493.49259L108.49377,493.49259L108.7338,493.49259L108.97383,493.49259L109.21386,493.49259
				L109.21386,493.73261L109.69392,493.73261L109.69392,493.49259L109.93395,493.49259L110.41401,493.49259L110.89407,493.49259
				L111.1341,493.49259L111.8542,493.49259L112.09423,493.49259L112.33426,493.49259L112.33426,493.73261L113.05435,493.73261L113.05435,493.49259
				L114.2545,493.49259L114.2545,493.73261L114.73456,493.73261L115.45465,493.73261L115.45465,493.49259L115.93471,493.49259L116.17474,493.49259
				L116.17474,493.25256L116.41477,493.25256L116.6548,493.25256L116.89483,493.25256L116.89483,493.01254L117.13487,493.01254L
				117.13487,492.77251L117.3749,492.77251L117.3749,492.53249L117.61493,492.53249L117.85496,492.53249L118.09499,492.53249L118.09499,492.29246
				L118.33502,492.29246L118.57505,492.29246L118.57505,492.05243L118.81508,492.05243L119.05511,492.05243L119.29514,492.05243
				L119.29514,491.81241L119.53517,491.81241L120.01523,491.81241L120.49529,491.81241L120.73532,491.81241L120.73532,491.57238
				L120.97535,491.57238L120.97535,491.33236L121.21538,491.33236L122.8956,491.33236L123.13563,491.33236L123.37566,491.33236L
				123.37566,491.09233L123.61569,491.09233L123.85572,491.09233L123.85572,490.85231L124.09575,490.85231L124.33578,490.85231L
				124.33578,490.61228L124.57581,490.61228L124.81584,490.61228L125.2959,490.61228L125.2959,490.37225L126.73608,490.37225L126.97611,490.37225
				L127.21614,490.37225L127.45618,490.37225L127.45618,490.13223L127.69621,490.13223L127.69621,489.8922L127.93624,489.8922L128.4163,489.8922
				L128.65633,489.8922L128.89636,489.8922L128.89636,489.65218L129.37642,489.65218L129.85648,489.65218L130.09651,489.65218L130.33654,489.65218
				L130.33654,489.41215L130.57657,489.41215L130.8166,489.41215L131.05663,489.41215L131.05663,489.17213L131.29666,489.17213L
				131.77672,489.17213L132.01675,489.17213L132.25678,489.17213L132.25678,488.9321L132.73685,488.9321L132.97688,488.9321L132.97688,488.69208
				L133.21691,488.69208L133.21691,488.45205L133.45694,488.45205L133.69697,488.45205L133.69697,488.21202L133.937,488.21202L134.17703,488.21202
				L134.17703,487.972L134.41706,487.972L134.65709,487.972L134.65709,487.73197L134.89712,487.73197L135.13715,487.73197L135.37718,487.73197
				L135.37718,487.49195L135.61721,487.49195L135.85724,487.49195L136.09727,487.49195L136.3373,487.49195L136.57733,487.49195L
				136.57733,487.25192L136.81736,487.25192L137.05739,487.25192L137.05739,487.0119L137.29742,487.0119L137.53745,487.0119L137.53745,486.77187
				L137.77748,486.77187L138.01752,486.77187L138.01752,486.53185L138.25755,486.53185L138.25755,486.29182L138.49758,486.29182
				L138.73761,486.29182L138.73761,486.05179L138.97764,486.05179L139.21767,486.05179L139.21767,485.81177L139.4577,485.81177L
				139.69773,485.81177L139.93776,485.81177L139.93776,485.57174L140.17779,485.57174L140.41782,485.57174L140.41782,485.33172L
				140.65785,485.33172L140.89788,485.33172L140.89788,485.09169L141.13791,485.09169L141.37794,485.09169L141.61797,485.09169L
				141.61797,484.85167L141.858,484.85167L141.858,484.61164L142.09803,484.61164L142.09803,484.37162L142.33806,484.37162L142.33806,484.13159
				L142.57809,484.13159L142.57809,483.89156L142.81812,483.89156L142.81812,483.65154L143.05815,483.65154L143.05815,483.41151
				L143.29819,483.41151L143.53822,483.41151L143.53822,483.17149L143.77825,483.17149L143.77825,482.93146L144.01828,482.93146
				L144.01828,482.69144L144.25831,482.69144L144.49834,482.69144L144.49834,482.45141L144.73837,482.45141L144.73837,482.21139
				L144.9784,482.21139L144.9784,481.97136L145.21843,481.97136L145.45846,481.97136L145.45846,481.73133L145.69849,481.73133L145.93852,481.73133
				L145.93852,481.49131L146.17855,481.49131L146.17855,481.25128L146.41858,481.25128L146.65861,481.25128L146.65861,481.01126
				L146.89864,481.01126L146.89864,480.77123L147.13867,480.77123L147.3787,480.77123L147.3787,480.53121L147.61873,480.53121L147.61873,480.29118
				L147.85876,480.29118L147.85876,480.05116L148.09879,480.05116L148.33883,480.05116L148.33883,479.81113L148.57886,479.81113
				L148.81889,479.81113L148.81889,479.5711L149.05892,479.5711L149.29895,479.5711L149.29895,479.33108L149.77901,479.33108L150.01904,479.33108
				L150.25907,479.33108L150.4991,479.33108L150.4991,479.09105L150.73913,479.09105L150.97916,479.09105L151.21919,479.09105L151.45922,479.09105
				L151.45922,478.85103L151.69925,478.85103L151.93928,478.85103L152.17931,478.85103L152.41934,478.85103L152.41934,478.611L152.8994,478.611
				L153.13943,478.611L153.6195,478.611L153.6195,478.37098L153.85953,478.37098L154.33959,478.37098L154.57962,478.37098L155.05968,478.37098
				L155.05968,478.13095L155.53974,478.13095L155.77977,478.13095L156.0198,478.13095L156.0198,477.89092L156.49986,477.89092L156.97992,477.89092
				L157.45998,477.89092L157.94004,477.89092L157.94004,477.6509L158.18007,477.6509L158.4201,477.6509L159.62026,477.6509L160.34035,477.6509
				L160.58038,477.6509L160.58038,477.41087L160.82041,477.41087L160.82041,477.17085L161.06044,477.17085L161.30047,477.17085L
				161.30047,476.93082L161.5405,476.93082L161.78053,476.93082L162.50062,476.93082L162.74065,476.93082L162.74065,477.17085L162.98068,477.17085
				L163.94081,477.17085L163.94081,477.41087L164.18084,477.41087L164.18084,477.6509L164.42087,477.6509L164.42087,477.89092L164.42087,478.13095
				L164.6609,478.13095L164.6609,478.37098L164.90093,478.37098L165.14096,478.37098L165.38099,478.37098L165.38099,478.611L165.62102,478.611
				L165.62102,478.85103L165.86105,478.85103L166.10108,478.85103L166.10108,479.09105L166.34111,479.09105L166.58114,479.09105
				L166.58114,479.33108L167.0612,479.33108L167.30123,479.33108L167.54126,479.33108L167.54126,479.5711L168.02132,479.5711L168.02132,479.33108
				L168.26135,479.33108L168.74141,479.33108L169.70154,479.33108L169.94157,479.33108L170.1816,479.33108L170.1816,479.09105L170.66166,479.09105
				L173.30199,479.09105L173.54202,479.09105L173.54202,478.85103L174.50215,478.85103L174.74218,478.85103L175.22224,478.85103
				L175.94233,478.85103L175.94233,478.611L176.18236,478.611L176.18236,478.37098L176.42239,478.37098L178.1026,478.37098L178.34263,478.37098
				L178.34263,478.13095L178.58266,478.13095L178.82269,478.13095L178.82269,477.89092L179.06272,477.89092L179.30275,477.89092
				L179.30275,477.6509L179.54278,477.6509L179.78282,477.6509L179.78282,477.41087L180.02285,477.41087L180.26288,477.41087L180.50291,477.41087
				L180.50291,477.17085L180.74294,477.17085L180.98297,477.17085L181.223,477.17085L181.46303,477.17085L181.46303,476.93082L181.70306,476.93082
				L181.94309,476.93082L182.18312,476.93082L182.18312,476.6908L182.42315,476.6908L183.14324,476.6908L183.38327,476.6908L184.10336,476.6908
				L184.10336,476.93082L184.58342,476.93082L184.58342,476.6908L185.06349,476.6908L185.30352,476.6908L185.54355,476.6908L185.78358,476.6908
				L185.78358,476.45077L186.02361,476.45077L186.26364,476.45077L186.50367,476.45077L186.50367,476.21075L187.94385,476.21075
				L188.18388,476.21075L188.18388,475.97072L188.42391,475.97072L188.90397,475.97072L190.10413,475.97072L190.10413,475.73069
				L192.50443,475.73069L193.22452,475.73069L193.70458,475.73069L194.18464,475.73069L194.42467,475.73069L194.90473,475.73069
				L195.14476,475.73069L195.3848,475.73069L195.3848,475.49067L195.3848,475.73069L195.62483,475.73069L195.62483,475.49067L196.34492,475.49067
				L196.58495,475.49067L197.30504,475.49067L198.02513,475.49067L198.50519,475.49067L198.98525,475.49067L200.66547,475.49067
				L200.66547,475.73069L200.9055,475.73069L201.14553,475.73069L201.38556,475.73069L202.10565,475.73069L202.34568,475.73069L
				202.34568,475.49067L202.58571,475.49067L202.82574,475.49067L203.06577,475.49067L203.06577,475.25064L203.3058,475.25064L203.54583,475.25064
				L203.54583,475.01062L203.78586,475.01062L204.02589,475.01062L204.26592,475.01062L204.74598,475.01062L204.74598,475.25064
				L205.22604,475.25064L205.46607,475.25064L205.70611,475.25064L206.18617,475.25064L206.18617,475.49067L206.4262,475.49067L
				206.90626,475.49067L207.14629,475.49067L207.38632,475.49067L207.38632,475.25064L207.62635,475.25064L207.86638,475.25064L
				207.86638,475.01062L208.10641,475.01062L208.10641,474.77059L208.34644,474.77059L208.58647,474.77059L208.58647,474.53057L
				208.8265,474.53057L209.06653,474.53057L209.06653,474.29054L209.30656,474.29054L209.30656,474.05052L209.54659,474.05052L209.78662,474.05052
				L209.78662,473.81049L210.02665,473.81049L210.26668,473.81049L210.26668,473.57046L210.50671,473.57046L210.74674,473.57046
				L210.74674,473.33044L210.98678,473.33044L211.22681,473.33044L211.46684,473.33044L211.46684,473.09041L211.70687,473.09041
				L211.70687,473.33044L211.46684,473.33044L211.46684,473.57046L211.22681,473.57046L211.22681,473.81049L210.98678,473.81049
				L210.98678,474.05052L210.98678,474.29054L210.74674,474.29054L210.74674,474.53057L210.50671,474.53057L210.50671,474.77059
				L210.26668,474.77059L210.26668,475.01062L210.02665,475.01062L210.02665,475.25064L209.78662,475.25064L209.78662,475.49067
				L209.54659,475.49067L209.54659,475.73069L209.54659,475.97072L209.30656,475.97072L209.30656,476.21075L209.06653,476.21075
				L209.06653,476.45077L208.8265,476.45077L208.8265,476.6908L208.58647,476.6908L208.58647,476.93082L208.34644,476.93082L208.34644,477.17085
				L208.34644,477.41087L208.10641,477.41087L208.10641,477.6509L207.86638,477.6509L207.86638,477.89092L207.62635,477.89092L207.62635,478.13095
				L207.38632,478.13095L207.38632,478.37098L207.38632,478.611L207.14629,478.611L207.38632,478.611L207.38632,479.33108L207.38632,479.81113
				L207.38632,480.77123L207.38632,481.25128L207.62635,481.25128L207.62635,481.49131L207.62635,481.25128L207.86638,481.25128
				L208.10641,481.25128L208.10641,481.01126L208.34644,481.01126L208.34644,480.77123L208.58647,480.77123L208.8265,480.77123L
				208.8265,480.53121L209.06653,480.53121L209.30656,480.53121L209.30656,480.29118L209.54659,480.29118L209.54659,480.05116L209.78662,480.05116
				L209.78662,480.29118L209.78662,480.53121L209.78662,480.77123L210.02665,480.77123L210.02665,481.01126L210.02665,481.25128
				L210.02665,481.49131L210.02665,481.73133L210.26668,481.73133L210.26668,481.97136L210.26668,482.21139L210.26668,482.45141
				L210.26668,482.69144L210.50671,482.69144L210.50671,482.93146L210.50671,483.17149L210.50671,483.65154L210.74674,483.65154
				L210.50671,483.65154L210.50671,483.89156L210.26668,483.89156L210.02665,483.89156L210.02665,484.13159L209.78662,484.13159
				L209.78662,484.37162L209.54659,484.37162L209.54659,484.61164L209.30656,484.61164L209.06653,484.61164L209.06653,484.85167
				L208.8265,484.85167L208.58647,484.85167L208.58647,485.09169L208.34644,485.09169L208.34644,485.33172L208.10641,485.33172L
				207.86638,485.33172L207.86638,485.57174L207.86638,485.81177L207.86638,486.29182L207.86638,486.77187L207.86638,487.0119L208.10641,487.0119
				L208.10641,487.49195L208.10641,487.972L208.10641,488.45205L208.10641,488.69208L208.10641,488.9321L207.86638,488.9321L207.86638,489.17213
				L207.62635,489.17213L207.62635,489.65218L207.86638,489.65218L207.86638,490.37225L207.62635,490.37225L207.62635,490.61228
				L207.62635,490.85231L207.38632,490.85231L207.38632,491.09233L207.14629,491.09233L207.14629,491.33236L207.14629,491.57238
				L206.90626,491.57238L206.90626,491.81241L195.62483,491.81241L195.62483,492.05243L195.3848,492.05243L195.3848,492.29246L195.14476,492.29246
				L195.14476,492.53249L194.90473,492.53249L194.90473,492.77251L194.6647,492.77251L194.6647,493.01254L194.42467,493.01254L194.42467,493.25256
				L194.18464,493.25256L194.18464,493.49259L193.94461,493.49259L193.94461,493.73261L193.70458,493.73261L193.70458,493.97264
				L193.46455,493.97264L193.46455,494.21266L193.22452,494.21266L193.22452,494.45269L192.98449,494.45269L192.98449,494.69272
				L192.74446,494.69272L192.74446,494.93274L192.50443,494.93274L192.50443,495.17277L192.2644,495.17277L192.2644,495.41279L192.02437,495.41279
				L192.02437,495.65282L191.78434,495.65282L191.78434,495.89284L191.54431,495.89284L191.54431,496.13287L183.14324,496.13287
				L183.14324,495.89284L182.90321,495.89284L182.66318,495.89284L182.66318,495.65282L182.42315,495.65282L182.42315,495.41279
				L182.18312,495.41279L181.94309,495.41279L181.94309,495.17277L181.70306,495.17277L181.46303,495.17277L181.46303,494.93274
				L181.223,494.93274L180.98297,494.93274L180.98297,494.69272L180.74294,494.69272L180.50291,494.69272L180.50291,494.45269L180.26288,494.45269
				L180.26288,494.21266L180.02285,494.21266L179.78282,494.21266L179.78282,493.97264L179.54278,493.97264L179.54278,493.73261
				L179.30275,493.73261L179.06272,493.73261L179.06272,493.49259L178.82269,493.49259L178.58266,493.49259L178.58266,493.25256
				L178.34263,493.25256L178.34263,493.01254L178.1026,493.01254L177.86257,493.01254L177.86257,492.77251L177.62254,492.77251L
				177.62254,492.53249L177.38251,492.53249L177.38251,492.29246L177.14248,492.29246L176.90245,492.29246L176.90245,492.05243L
				176.66242,492.05243L176.66242,491.81241L176.42239,491.81241L176.18236,491.81241L176.18236,491.57238L175.94233,491.57238L
				174.26211,491.57238L174.26211,491.33236L174.02208,491.33236L174.02208,491.09233L173.54202,491.09233L173.54202,490.85231L
				173.30199,490.85231L173.30199,490.61228L173.06196,490.61228L172.82193,490.61228"/>
			<path clip-path="url(#SVG_CP_2)" fill="none" stroke="#999999" stroke-width="0.96012" stroke-miterlimit="10" stroke-linecap="round" stroke-linejoin="round" d="
				M172.82193,490.61228L172.82193,490.37225L172.5819,490.37225L172.5819,490.13223L172.34187,490.13223L172.34187,489.8922L172.10184,489.8922
				L172.10184,489.65218L171.86181,489.65218L171.62178,489.65218L171.62178,489.41215L171.38175,489.41215L171.38175,489.17213
				L171.14172,489.17213L171.14172,488.9321L170.90169,488.9321L170.90169,488.69208L170.66166,488.69208L170.66166,488.45205L170.42163,488.45205
				L170.42163,488.21202L170.1816,488.21202L170.1816,487.972L169.94157,487.972L169.94157,487.73197L169.70154,487.73197L169.22148,487.73197
				L168.98144,487.73197L168.98144,487.49195L168.74141,487.49195L168.74141,487.25192L168.50138,487.25192L168.50138,487.0119L
				168.26135,487.0119L168.26135,486.77187L168.02132,486.77187L168.02132,486.53185L167.78129,486.53185L167.78129,486.29182L167.54126,486.29182
				L167.54126,486.05179L167.30123,486.05179L167.30123,485.81177L167.0612,485.81177L167.0612,485.57174L166.34111,485.57174L166.10108,485.57174
				L166.10108,485.33172L165.86105,485.33172L165.62102,485.33172L165.62102,485.09169L154.09956,485.09169L154.09956,485.33172
				L153.85953,485.33172L153.6195,485.33172L153.37946,485.33172L153.37946,485.57174L153.13943,485.57174L152.8994,485.57174L152.8994,485.81177
				L152.65937,485.81177L152.41934,485.81177L152.17931,485.81177L152.17931,486.05179L151.93928,486.05179L151.69925,486.05179
				L151.69925,486.29182L151.45922,486.29182L151.21919,486.29182L151.21919,486.53185L150.97916,486.53185L150.73913,486.53185
				L150.4991,486.53185L150.4991,486.77187L150.25907,486.77187L150.01904,486.77187L150.01904,487.0119L149.77901,487.0119L149.53898,487.0119
				L149.05892,487.0119L149.05892,487.25192L148.81889,487.25192L148.81889,487.49195L148.57886,487.49195L148.57886,487.73197L
				148.33883,487.73197L148.33883,487.972L148.33883,488.21202L148.09879,488.21202L148.09879,488.45205L147.85876,488.45205L147.85876,488.69208
				L147.61873,488.69208L147.61873,488.9321L147.3787,488.9321L147.13867,488.9321L147.13867,489.17213L146.89864,489.17213L146.89864,489.41215
				L146.65861,489.41215L146.65861,489.65218L146.41858,489.65218L146.41858,489.8922L146.17855,489.8922L146.17855,490.13223L146.17855,490.37225
				L145.93852,490.37225L145.93852,490.61228L145.69849,490.61228L145.69849,490.85231L145.45846,490.85231L145.21843,490.85231
				L145.21843,491.09233L144.9784,491.09233L144.9784,491.33236L144.73837,491.33236L144.73837,491.57238L144.49834,491.57238L144.49834,491.81241
				L144.25831,491.81241L144.25831,492.05243L144.25831,492.29246L144.01828,492.29246L144.01828,492.53249L143.77825,492.53249
				L143.77825,492.77251L143.53822,492.77251L143.29819,492.77251L143.29819,493.01254L143.05815,493.01254L143.05815,493.25256
				L142.09803,493.25256L142.09803,493.49259L141.858,493.49259L141.61797,493.49259L141.61797,493.73261L141.37794,493.73261L141.37794,493.97264
				L141.13791,493.97264L141.13791,494.21266L140.89788,494.21266L140.89788,494.45269L140.65785,494.45269L140.65785,494.69272
				L140.41782,494.69272L140.41782,494.93274L140.17779,494.93274L140.17779,495.17277L139.93776,495.17277L139.69773,495.17277
				L137.05739,495.17277L136.81736,495.17277L136.81736,495.41279L136.57733,495.41279L136.3373,495.41279L136.09727,495.41279L
				135.85724,495.41279L135.85724,495.65282L135.61721,495.65282L135.37718,495.65282L135.13715,495.65282L135.13715,495.89284L
				134.89712,495.89284L134.41706,495.89284L134.17703,495.89284L134.17703,496.13287L133.69697,496.13287L133.45694,496.13287L
				132.97688,496.13287L132.73685,496.13287L132.73685,496.37289L132.25678,496.37289L132.01675,496.37289L131.77672,496.37289L
				131.29666,496.37289L131.29666,496.61292L130.8166,496.61292L130.57657,496.61292L130.33654,496.61292L129.85648,496.61292L129.85648,496.85295
				L129.61645,496.85295L129.37642,496.85295L129.13639,496.85295L129.13639,497.09297L128.89636,497.09297L128.65633,497.09297
				L128.4163,497.09297L128.17627,497.09297L128.17627,497.333L127.93624,497.333L127.69621,497.333L127.45618,497.333L127.21614,497.333
				L127.21614,497.57302L126.97611,497.57302L126.73608,497.57302L126.25602,497.57302L126.25602,497.81305L126.01599,497.81305
				L125.05587,497.81305L125.05587,498.05307L124.57581,498.05307L124.33578,498.05307L124.33578,498.2931L124.09575,498.2931L123.85572,498.2931
				L123.61569,498.2931L123.13563,498.2931L123.13563,498.53312L122.8956,498.53312L122.65557,498.53312L122.41554,498.53312L122.1755,498.53312
				L122.1755,498.77315L121.69544,498.77315L121.45541,498.77315L121.21538,498.77315L120.97535,498.77315L120.97535,499.01318L
				120.49529,499.01318L120.25526,499.01318L120.01523,499.01318L119.53517,499.01318L119.53517,499.2532L119.29514,499.2532L119.05511,499.2532
				L118.81508,499.2532L118.57505,499.2532L118.57505,499.49323L118.33502,499.49323L117.85496,499.49323L117.61493,499.49323L117.3749,499.49323
				L117.3749,499.73325L117.13487,499.73325L117.13487,499.97328L116.89483,499.97328L116.89483,500.2133L116.6548,500.2133L116.6548,500.45333
				L115.69468,500.45333L115.69468,500.69335L115.45465,500.69335L114.73456,500.69335L114.01447,500.69335L111.61416,500.69335
				L111.61416,500.93338L111.37413,500.93338L111.1341,500.93338L110.65404,500.93338L110.41401,500.93338L110.41401,501.17341L
				110.17398,501.17341L109.93395,501.17341L109.21386,501.17341L108.49377,501.17341L108.49377,501.41343L101.77292,501.41343L
				101.77292,501.17341L101.53289,501.17341L101.29285,501.17341L101.29285,500.93338L101.05282,500.93338L100.81279,500.93338L
				100.81279,500.69335L100.57276,500.69335L100.33273,500.69335L100.0927,500.69335L100.0927,500.45333L99.85267,500.45333L99.61264,500.45333
				L99.61264,500.2133L99.37261,500.2133L99.13258,500.2133L90.49148,500.2133L90.25145,500.2133L90.25145,500.45333L81.61036,500.45333
				L81.61036,500.2133L81.37033,500.2133L81.37033,499.97328L81.1303,499.97328L81.1303,499.73325L74.8895,499.73325L74.40944,499.73325
				L74.40944,499.97328L74.16941,499.97328L74.16941,500.2133L73.92938,500.2133L73.92938,500.45333L73.68935,500.45333L73.68935,500.69335
				L73.44932,500.69335L73.44932,500.93338L73.20929,500.93338L73.20929,501.17341L72.96926,501.17341L72.96926,501.41343L72.72923,501.41343
				L72.72923,501.65346L72.4892,501.65346L72.4892,501.89348L72.24917,501.89348L72.24917,502.13351L72.00914,502.13351L71.76911,502.13351
				L71.76911,502.37353L71.52908,502.37353L71.28905,502.37353L71.28905,502.61356L71.04902,502.61356L70.80899,502.61356L70.80899,502.85359
				L70.56896,502.85359"/>
			<path clip-path="url(#SVG_CP_2)" fill="none" stroke="#999999" stroke-width="0.96012" stroke-miterlimit="10" stroke-linecap="round" stroke-linejoin="round" d="
				M64.80822,490.85231L64.80822,491.09233L64.80822,491.33236L65.04826,491.33236L65.04826,491.57238L65.28829,491.57238L65.28829,491.81241
				L65.52832,491.81241L65.52832,492.05243L65.52832,492.29246L65.76835,492.29246L65.76835,492.53249L65.76835,493.25256L66.00838,493.25256
				L66.00838,493.49259L66.00838,493.73261L66.24841,493.73261L66.24841,493.97264L66.24841,494.21266L66.24841,494.45269L66.48844,494.45269
				L66.48844,494.69272L66.48844,496.13287L66.48844,496.37289L66.72847,496.37289L66.72847,496.61292L66.72847,496.85295L66.72847,497.09297
				L66.72847,497.333L66.9685,497.333L66.9685,497.57302L66.9685,497.81305L66.9685,498.05307L66.9685,498.53312L67.20853,498.53312
				L67.20853,498.77315L67.20853,499.01318L67.20853,499.2532L67.20853,499.49323L67.44856,499.49323L67.44856,499.73325L67.44856,499.97328
				L67.44856,500.2133L67.44856,500.45333L67.68859,500.45333L67.68859,500.93338L67.92862,500.93338L67.92862,501.17341L68.16865,501.17341
				L68.16865,501.41343L68.16865,501.89348L68.40868,501.89348L68.40868,502.13351L68.64871,502.13351L68.64871,502.37353L68.88874,502.37353
				L68.88874,502.61356L69.12877,502.61356L69.12877,502.85359L69.3688,502.85359L70.56896,502.85359L71.04902,502.85359L71.04902,502.61356
				L71.28905,502.61356L71.52908,502.61356L71.52908,502.37353L71.76911,502.37353L71.76911,502.13351L72.00914,502.13351L72.24917,502.13351
				L72.24917,501.89348L72.4892,501.89348L72.4892,501.65346L72.72923,501.65346L72.72923,501.41343L72.96926,501.41343L72.96926,501.17341
				L73.20929,501.17341L73.20929,500.93338L73.44932,500.93338L73.44932,500.69335L73.68935,500.69335L73.68935,500.45333L74.16941,500.45333
				L74.40944,500.45333L74.40944,500.2133L74.64947,500.2133L74.64947,499.97328L76.32969,499.97328L76.32969,499.73325L80.65024,499.73325
				L80.65024,499.97328L80.89027,499.97328L80.89027,500.2133L81.1303,500.2133L81.1303,500.45333L91.93167,500.45333L93.13182,500.45333
				L93.13182,500.2133L94.09194,500.2133L95.29209,500.2133L96.25222,500.2133L99.37261,500.2133L99.37261,500.45333L99.61264,500.45333
				L99.61264,500.69335L99.85267,500.69335L100.33273,500.69335L100.57276,500.69335L100.57276,500.93338L100.81279,500.93338L100.81279,501.17341
				L101.53289,501.17341L101.53289,501.41343L113.05435,501.41343L113.29438,501.41343L113.29438,501.17341L113.53441,501.17341
				L113.53441,500.93338L113.77444,500.93338L114.01447,500.93338L114.01447,500.69335L114.73456,500.69335L115.45465,500.69335
				L116.17474,500.69335L116.41477,500.69335L116.41477,500.45333L116.6548,500.45333L116.89483,500.45333L117.13487,500.45333L
				117.3749,500.45333L117.3749,500.2133L117.85496,500.2133L118.09499,500.2133L118.57505,500.2133L118.57505,499.97328L118.81508,499.97328
				L119.05511,499.97328L119.29514,499.97328L119.29514,499.73325L119.53517,499.73325L119.7752,499.73325L120.01523,499.73325L
				120.25526,499.73325L120.25526,499.49323L120.49529,499.49323L120.73532,499.49323L120.97535,499.49323L121.21538,499.49323L
				121.21538,499.2532L121.45541,499.2532L121.69544,499.2532L122.1755,499.2532L122.41554,499.2532L122.41554,499.01318L122.65557,499.01318
				L122.8956,499.01318L123.13563,499.01318L123.37566,499.01318L123.37566,498.77315L123.85572,498.77315L124.09575,498.77315L
				124.33578,498.77315L124.57581,498.77315L124.57581,498.53312L124.81584,498.53312L124.81584,498.2931L125.05587,498.2931L125.05587,498.05307
				L126.01599,498.05307L126.01599,497.81305L126.49605,497.81305L126.73608,497.81305L126.73608,497.57302L128.17627,497.57302
				L128.4163,497.57302L128.4163,497.333L128.65633,497.333L128.65633,497.09297L131.53669,497.09297L131.77672,497.09297L132.01675,497.09297
				L132.01675,496.85295L132.25678,496.85295L132.49681,496.85295L132.73685,496.85295L132.97688,496.85295L132.97688,496.61292
				L133.45694,496.61292L133.937,496.61292L134.41706,496.61292L134.65709,496.61292L134.65709,496.37289L134.89712,496.37289L135.13715,496.37289
				L135.37718,496.37289L135.37718,496.13287L135.61721,496.13287L136.09727,496.13287L136.3373,496.13287L136.57733,496.13287L
				136.57733,495.89284L136.81736,495.89284L137.05739,495.89284L137.05739,495.65282L137.77748,495.65282L138.25755,495.65282L
				138.49758,495.65282L138.73761,495.65282L138.73761,495.41279L138.97764,495.41279L139.21767,495.41279L139.69773,495.41279L
				139.93776,495.41279L139.93776,495.17277L140.17779,495.17277L140.17779,494.93274L140.65785,494.93274L140.89788,494.93274L
				141.13791,494.93274L141.13791,494.69272L141.37794,494.69272L141.61797,494.69272L141.61797,494.45269L141.858,494.45269L142.09803,494.45269
				L142.09803,494.21266L142.33806,494.21266L142.33806,493.97264L142.57809,493.97264L142.57809,493.73261L142.81812,493.73261
				L142.81812,493.49259L143.05815,493.49259L143.05815,493.25256L143.29819,493.25256L143.29819,493.01254L143.53822,493.01254
				L143.53822,492.77251L143.77825,492.77251L143.77825,492.53249L144.01828,492.53249L144.01828,492.29246L144.25831,492.29246
				L144.25831,492.05243L144.49834,492.05243L144.49834,491.81241L144.73837,491.81241L144.9784,491.81241L144.9784,491.57238L145.21843,491.57238
				L145.21843,491.33236L145.45846,491.33236L145.69849,491.33236L145.69849,491.09233L145.93852,491.09233L145.93852,490.85231
				L146.17855,490.85231L146.41858,490.85231L146.41858,490.61228L146.65861,490.61228L146.65861,490.37225L146.89864,490.37225
				L146.89864,490.13223L147.13867,490.13223L147.13867,489.8922L147.3787,489.8922L147.61873,489.8922L147.61873,489.65218L147.85876,489.65218
				L147.85876,489.41215L148.09879,489.41215L148.33883,489.41215L148.33883,489.17213L148.57886,489.17213L148.57886,488.9321L
				148.81889,488.9321L148.81889,488.69208L149.05892,488.69208L149.29895,488.69208L149.29895,488.45205L149.53898,488.45205L149.53898,488.21202
				L149.77901,488.21202L149.77901,487.972L150.01904,487.972L150.01904,487.73197L150.25907,487.73197L150.4991,487.73197L150.4991,487.49195
				L150.73913,487.49195L150.97916,487.49195L150.97916,487.25192L151.21919,487.25192L151.45922,487.25192L151.45922,487.0119L
				151.69925,487.0119L151.93928,487.0119L151.93928,486.77187L152.17931,486.77187L152.41934,486.77187L152.41934,486.53185L152.65937,486.53185
				L152.8994,486.53185L153.13943,486.53185L153.13943,486.29182L153.37946,486.29182L153.37946,486.05179L153.6195,486.05179L153.6195,485.81177
				L153.85953,485.81177L154.09956,485.81177L154.09956,485.57174L154.33959,485.57174L154.33959,485.33172L154.57962,485.33172
				L154.81965,485.33172L165.62102,485.33172L165.86105,485.33172L165.86105,485.57174L166.10108,485.57174L166.34111,485.57174
				L166.34111,485.81177L166.58114,485.81177L166.58114,486.05179L166.82117,486.05179L166.82117,486.29182L167.0612,486.29182L
				167.30123,486.29182L167.30123,486.53185L167.54126,486.53185L167.54126,486.77187L167.78129,486.77187L167.78129,487.0119L168.02132,487.0119
				L168.26135,487.0119L168.26135,487.25192L168.50138,487.25192L168.74141,487.25192L168.74141,487.49195L168.98144,487.49195L
				168.98144,487.73197L169.22148,487.73197L169.46151,487.73197L169.46151,487.972L169.46151,488.21202L169.70154,488.21202L169.94157,488.21202
				L169.94157,488.45205L170.1816,488.45205L170.1816,488.69208L170.42163,488.69208L170.42163,488.9321L170.66166,488.9321L170.90169,488.9321
				L170.90169,489.17213L171.14172,489.17213L171.14172,489.41215L171.38175,489.41215L171.62178,489.41215L171.62178,489.65218
				L171.86181,489.65218L171.86181,489.8922L172.10184,489.8922L172.10184,490.13223L172.34187,490.13223L172.34187,490.37225L172.5819,490.37225
				L172.5819,490.61228L172.82193,490.61228L173.06196,490.61228L173.06196,490.85231L173.30199,490.85231L173.30199,491.09233L
				173.54202,491.09233L173.78205,491.09233L173.78205,491.33236L174.02208,491.33236L174.26211,491.33236L174.26211,491.57238L
				174.50215,491.57238L174.50215,491.81241L174.74218,491.81241L174.98221,491.81241L174.98221,492.05243L175.22224,492.05243L
				175.22224,492.29246L175.46227,492.29246L175.7023,492.29246L175.7023,492.53249L175.94233,492.53249L176.18236,492.53249L176.18236,492.77251
				L176.42239,492.77251L176.42239,493.01254L176.66242,493.01254L176.90245,493.01254L176.90245,493.25256L177.14248,493.25256
				L177.38251,493.25256L177.38251,493.49259L177.62254,493.49259L177.86257,493.49259L177.86257,493.73261L178.1026,493.73261L
				178.1026,493.97264L178.34263,493.97264L178.58266,493.97264L178.58266,494.21266L178.82269,494.21266L179.06272,494.21266L179.30275,494.21266
				L179.30275,494.45269L179.54278,494.45269L179.54278,494.69272L179.78282,494.69272L180.02285,494.69272L180.02285,494.93274
				L180.26288,494.93274L180.50291,494.93274L180.50291,495.17277L180.74294,495.17277L180.74294,495.41279L180.98297,495.41279
				L181.223,495.41279L181.223,495.65282L182.18312,495.65282L182.18312,495.89284L182.42315,495.89284L182.66318,495.89284L182.66318,496.13287
				L191.54431,496.13287L191.78434,496.13287L191.78434,495.89284L191.78434,495.65282L192.02437,495.65282L192.02437,495.41279
				L192.2644,495.41279L192.2644,495.17277L192.50443,495.17277L192.50443,494.93274L192.74446,494.93274L192.98449,494.93274L192.98449,494.69272
				L193.22452,494.69272L193.22452,494.45269L193.46455,494.45269L193.46455,494.21266L193.70458,494.21266L193.70458,493.97264
				L193.70458,493.73261L193.94461,493.73261L193.94461,493.49259L194.18464,493.49259L194.18464,493.25256L194.42467,493.25256
				L194.42467,493.01254L194.6647,493.01254L194.6647,492.77251L194.90473,492.77251L195.14476,492.77251L195.14476,492.53249L195.3848,492.53249
				L195.3848,492.29246L195.62483,492.29246L195.62483,492.05243L195.62483,491.81241L206.90626,491.81241L206.90626,492.05243L
				207.14629,492.05243L207.14629,492.29246L207.14629,492.53249L207.38632,492.53249L207.38632,492.77251L207.62635,492.77251L
				207.62635,493.01254L207.86638,493.01254L207.86638,493.25256L208.10641,493.25256L208.10641,493.49259L208.10641,493.73261L
				208.34644,493.73261L208.34644,493.97264L208.58647,493.97264L208.58647,494.21266L208.8265,494.21266L208.8265,494.45269L209.06653,494.45269
				L209.06653,494.69272L209.30656,494.69272L209.30656,494.93274L209.30656,495.17277L209.54659,495.17277L209.54659,495.41279
				L209.78662,495.41279L209.78662,495.65282L210.02665,495.65282L210.02665,495.89284L210.02665,496.13287L210.26668,496.13287
				L210.26668,496.37289L210.50671,496.37289L210.50671,496.61292L210.50671,496.85295L210.74674,496.85295L210.74674,497.09297
				L210.74674,497.333L210.74674,497.57302L210.74674,497.81305L210.98678,497.81305L210.98678,498.05307L210.98678,498.2931L210.98678,498.53312
				L210.98678,498.77315L211.22681,498.77315L211.22681,499.01318L211.22681,499.2532L211.22681,499.49323L211.46684,499.49323L
				211.46684,499.73325L211.46684,499.97328L211.46684,500.2133L211.46684,500.45333L211.70687,500.45333L211.70687,500.69335L211.70687,500.93338
				L211.70687,501.17341L211.70687,501.41343L211.9469,501.41343L211.9469,501.65346L211.9469,501.89348L212.18693,501.89348L212.18693,502.13351
				L212.42696,502.13351L212.66699,502.13351L212.66699,502.37353L212.90702,502.37353L213.14705,502.37353L213.14705,502.61356
				L213.38708,502.61356L213.62711,502.61356L213.62711,502.85359L213.86714,502.85359L213.86714,503.09361L214.10717,503.09361
				L214.3472,503.09361L214.3472,503.33364L214.58723,503.33364L214.82726,503.33364L214.82726,503.57366L215.06729,503.57366L215.06729,503.81369
				L215.30732,503.81369L215.54735,503.81369L215.54735,504.05371L215.78738,504.05371L215.78738,504.29374L216.02742,504.29374
				L216.26745,504.29374L216.26745,504.53376L216.50748,504.53376L216.74751,504.53376L216.74751,504.77379L216.98754,504.77379
				L217.22757,504.77379L217.22757,505.01382L217.4676,505.01382L217.4676,505.25384L217.70763,505.25384L217.70763,505.49387L217.70763,505.73389
				L217.94766,505.73389L217.94766,505.97392L218.18769,505.97392L218.18769,506.21394L217.94766,506.21394L217.94766,506.45397
				L217.70763,506.45397L217.4676,506.45397L217.22757,506.45397L216.74751,506.45397L216.74751,506.69399L216.50748,506.69399L
				216.26745,506.69399L216.02742,506.69399L216.02742,506.93402L215.78738,506.93402L215.54735,506.93402L215.30732,506.93402L
				215.30732,507.17405L215.06729,507.17405L214.82726,507.17405L214.82726,507.41407L214.58723,507.41407L214.3472,507.41407L214.10717,507.41407
				L214.10717,507.6541L213.86714,507.6541L213.86714,507.89412L213.62711,507.89412L213.62711,508.13415L213.38708,508.13415L213.14705,508.13415
				L213.14705,508.37417L212.90702,508.37417L212.66699,508.37417L212.42696,508.37417L212.42696,508.6142L212.18693,508.6142L212.18693,508.85422
				L211.9469,508.85422L211.70687,508.85422L211.70687,509.09425L211.46684,509.09425L211.22681,509.09425L211.22681,509.33428L
				210.98678,509.33428L210.98678,509.5743L210.74674,509.5743L209.78662,509.5743L209.78662,509.81433L209.54659,509.81433L209.54659,510.05435
				L209.30656,510.05435L209.06653,510.05435L209.06653,510.29438L208.8265,510.29438L208.8265,510.5344L208.58647,510.5344L208.34644,510.5344
				L208.34644,510.77443L208.10641,510.77443L207.86638,510.77443L207.86638,511.01445L207.62635,511.01445L207.38632,511.01445
				L207.38632,511.25448L207.14629,511.25448L207.14629,511.49451L206.90626,511.49451L206.66623,511.49451L206.66623,511.73453
				L206.4262,511.73453L206.4262,511.97456L206.18617,511.97456L205.94614,511.97456L205.94614,512.21458L205.70611,512.21458L205.46607,512.21458
				L205.46607,512.45461L205.22604,512.45461L205.22604,512.69463L204.98601,512.69463L204.74598,512.69463L204.74598,512.93466
				L204.50595,512.93466L204.26592,512.93466L204.26592,513.17468L204.02589,513.17468L203.78586,513.17468L203.78586,513.41471
				L203.54583,513.41471L203.3058,513.41471L203.3058,513.65474L203.06577,513.65474L203.06577,513.89476L202.82574,513.89476L202.58571,513.89476
				L202.34568,513.89476L202.34568,514.13479L202.10565,514.13479L201.86562,514.13479L201.86562,514.37481L201.62559,514.37481
				L201.62559,514.61484L201.38556,514.61484L201.14553,514.61484L201.14553,514.85486L200.9055,514.85486L200.66547,514.85486L
				200.66547,515.09489L200.42544,515.09489L200.1854,515.09489L200.1854,515.33492L199.94537,515.33492L199.70534,515.33492L199.70534,515.57494
				L199.46531,515.57494L199.22528,515.57494L198.98525,515.57494L198.74522,515.57494L198.50519,515.57494L198.26516,515.57494
				L198.26516,515.33492L198.02513,515.33492L198.02513,515.09489L197.7851,515.09489L197.7851,514.85486L197.54507,514.85486L197.30504,514.85486
				L197.30504,514.61484L197.06501,514.61484L197.06501,514.37481L196.82498,514.37481L196.82498,514.13479L196.58495,514.13479
				L196.34492,514.13479L196.34492,513.89476L196.10489,513.89476L196.10489,513.65474L196.10489,513.41471L195.86486,513.41471
				L195.62483,513.41471L195.62483,513.17468L195.3848,513.17468L195.3848,512.93466L195.14476,512.93466L195.14476,512.69463L194.90473,512.69463
				L194.90473,512.45461L194.6647,512.45461L194.42467,512.45461L194.42467,512.21458L194.42467,511.97456L194.18464,511.97456L
				193.94461,511.97456L193.94461,511.73453L193.94461,511.49451L193.70458,511.49451L193.70458,511.25448L193.46455,511.25448L
				193.46455,511.01445L193.22452,511.01445L193.22452,510.77443L192.98449,510.77443L192.98449,510.5344L192.74446,510.5344L192.50443,510.5344
				L192.50443,510.29438L192.50443,510.05435L192.2644,510.05435L192.2644,509.81433L192.2644,509.5743L192.02437,509.5743L192.02437,509.33428
				L191.78434,509.33428L191.78434,509.09425L191.54431,509.09425L191.54431,508.85422L191.54431,508.6142L191.30428,508.6142L191.30428,508.37417
				L191.06425,508.37417L191.06425,508.13415L190.82422,508.13415L190.82422,507.89412L190.58419,507.89412L190.58419,507.6541L
				190.34416,507.6541L190.34416,507.41407L190.10413,507.41407L190.10413,507.17405L189.86409,507.17405L189.62406,507.17405L189.38403,507.17405
				L189.38403,506.93402L189.144,506.93402L188.90397,506.93402L188.42391,506.93402L188.42391,506.69399L188.18388,506.69399L187.94385,506.69399
				L187.70382,506.69399L187.70382,506.45397L187.46379,506.45397L187.46379,506.21394L187.22376,506.21394L186.98373,506.21394
				L186.98373,505.97392L186.7437,505.97392L186.50367,505.97392L186.50367,505.73389L186.26364,505.73389L186.02361,505.73389L
				186.02361,505.49387L185.54355,505.49387L185.30352,505.49387L185.06349,505.49387L185.06349,505.25384L184.82346,505.25384L
				184.58342,505.25384L184.58342,505.01382L184.34339,505.01382L184.10336,505.01382L184.10336,504.77379L183.86333,504.77379L
				183.6233,504.77379L183.6233,504.53376L183.38327,504.53376L183.14324,504.53376L183.14324,504.29374L182.90321,504.29374L182.66318,504.29374
				L182.66318,504.05371L182.42315,504.05371L182.18312,504.05371L182.18312,503.81369L181.94309,503.81369L181.94309,503.57366
				L181.70306,503.57366L181.70306,503.33364L181.46303,503.33364L181.223,503.33364L181.223,503.09361L180.98297,503.09361L180.74294,503.09361
				L180.74294,502.85359L180.50291,502.85359L180.50291,502.61356L180.26288,502.61356L180.02285,502.61356L180.02285,502.37353
				L179.78282,502.37353L179.78282,502.13351L179.54278,502.13351L179.30275,502.13351L179.30275,501.89348L179.06272,501.89348
				L178.82269,501.89348L178.82269,501.65346L178.58266,501.65346L178.58266,501.41343L178.34263,501.41343L178.1026,501.41343L
				178.1026,501.17341L177.86257,501.17341L177.62254,501.17341L177.62254,500.93338L177.38251,500.93338L177.14248,500.93338L177.14248,500.69335
				L176.90245,500.69335L176.66242,500.69335L176.66242,500.45333L176.42239,500.45333L176.42239,500.2133L176.18236,500.2133L175.94233,500.2133
				L175.94233,499.97328L175.7023,499.97328L175.7023,499.73325L175.46227,499.73325L175.22224,499.73325L175.22224,499.49323L174.98221,499.49323
				L174.74218,499.49323L174.74218,499.2532L174.50215,499.2532L174.50215,499.01318L174.26211,499.01318L174.02208,499.01318L174.02208,498.77315
				L173.78205,498.77315L173.54202,498.77315L173.54202,498.53312L173.30199,498.53312L173.30199,498.2931L173.06196,498.2931L172.82193,498.2931
				L172.82193,498.05307L172.5819,498.05307L172.5819,497.81305L172.34187,497.81305L172.10184,497.81305L172.10184,497.57302L171.86181,497.57302
				L171.86181,497.333L171.62178,497.333L171.38175,497.333L171.38175,497.09297L171.14172,497.09297L171.14172,496.85295L170.90169,496.85295
				L170.90169,496.61292L170.66166,496.61292L170.66166,496.37289L170.42163,496.37289L170.42163,496.13287L170.1816,496.13287L
				170.1816,495.89284L169.94157,495.89284L169.94157,495.65282L169.70154,495.65282L169.70154,495.41279L169.46151,495.41279L169.46151,495.17277
				L169.22148,495.17277L168.98144,495.17277L168.50138,495.17277L165.86105,495.17277L165.86105,494.93274L165.62102,494.93274
				L165.38099,494.93274L165.14096,494.93274L165.14096,494.69272L164.90093,494.69272L164.6609,494.69272L164.42087,494.69272L
				164.42087,494.45269L164.18084,494.45269L163.94081,494.45269L163.94081,494.21266L163.70077,494.21266L163.46074,494.21266L
				163.46074,493.97264L163.22071,493.97264L162.98068,493.97264L162.98068,493.73261L162.74065,493.73261L162.50062,493.73261L
				162.50062,493.49259L162.26059,493.49259L162.26059,493.25256L162.02056,493.25256L162.02056,493.01254L161.78053,493.01254L
				161.5405,493.01254L161.5405,492.77251L161.30047,492.77251L161.06044,492.77251L161.06044,492.53249L160.82041,492.53249L160.58038,492.53249
				L160.58038,492.29246L160.10032,492.29246L157.45998,492.29246L157.21995,492.29246L157.21995,492.05243L156.97992,492.05243
				L156.73989,492.05243L156.73989,491.81241L156.49986,491.81241L156.49986,492.05243L156.25983,492.05243L156.0198,492.05243L
				156.0198,492.29246L155.77977,492.29246L155.77977,492.53249L155.53974,492.53249L155.29971,492.53249L155.29971,492.77251L155.05968,492.77251
				L154.81965,492.77251L154.81965,493.01254L154.57962,493.01254L154.33959,493.01254L154.33959,493.25256L154.09956,493.25256
				L154.09956,493.49259L153.85953,493.49259L153.6195,493.49259L153.6195,493.73261L153.37946,493.73261L153.37946,493.97264L153.13943,493.97264
				L153.13943,494.21266L152.8994,494.21266L152.8994,494.45269L152.65937,494.45269L152.41934,494.45269L152.17931,494.45269L151.93928,494.45269
				L151.93928,494.69272L151.69925,494.69272L151.45922,494.69272L151.45922,494.93274L151.21919,494.93274L151.21919,495.17277
				L151.21919,495.41279L150.97916,495.41279L150.73913,495.41279L150.73913,495.65282L150.25907,495.65282L150.01904,495.65282
				L149.77901,495.65282L149.77901,495.89284L149.53898,495.89284L149.29895,495.89284L149.29895,496.13287L149.05892,496.13287
				L148.81889,496.13287L148.81889,496.37289L148.57886,496.37289L148.57886,496.61292L148.33883,496.61292L148.09879,496.61292
				L148.09879,496.85295L148.09879,497.09297L147.85876,497.09297L147.85876,497.333L147.61873,497.333L147.61873,497.57302L147.3787,497.57302
				L147.3787,497.81305L147.13867,497.81305L146.89864,497.81305L146.89864,498.05307L146.65861,498.05307L146.65861,498.2931L146.41858,498.2931
				L146.41858,498.53312L146.17855,498.53312L145.93852,498.53312L145.69849,498.53312L145.69849,498.77315L145.45846,498.77315
				L145.21843,498.77315L144.9784,498.77315L144.9784,499.01318L144.73837,499.01318L144.73837,499.2532L144.49834,499.2532L144.25831,499.2532
				L144.25831,499.49323"/>
			<path clip-path="url(#SVG_CP_2)" fill="none" stroke="#999999" stroke-width="0.96012" stroke-miterlimit="10" stroke-linecap="round" stroke-linejoin="round" d="
				M144.25831,499.49323L144.01828,499.49323L143.77825,499.49323L143.53822,499.49323L143.53822,499.73325L143.29819,499.73325
				L143.05815,499.73325L142.81812,499.73325L142.81812,499.97328L142.57809,499.97328L142.57809,500.2133L142.33806,500.2133L142.09803,500.2133
				L142.09803,500.45333L141.858,500.45333L141.61797,500.45333L141.37794,500.45333L141.13791,500.45333L141.13791,500.69335L140.89788,500.69335
				L140.65785,500.69335L140.41782,500.69335L140.17779,500.69335L140.17779,500.93338L139.93776,500.93338L139.69773,500.93338
				L139.4577,500.93338L139.21767,500.93338L139.21767,501.17341L138.97764,501.17341L138.73761,501.17341L138.73761,501.41343L
				138.49758,501.41343L138.25755,501.41343L138.01752,501.41343L138.01752,501.65346L137.77748,501.65346L137.53745,501.65346L
				137.53745,501.89348L137.29742,501.89348L137.29742,502.13351L137.05739,502.13351L136.81736,502.13351L136.81736,502.37353L
				136.57733,502.37353L136.3373,502.37353L136.09727,502.37353L135.85724,502.37353L135.85724,502.61356L135.61721,502.61356L135.37718,502.61356
				L135.13715,502.61356L135.13715,502.85359L134.89712,502.85359L134.65709,502.85359L134.65709,503.09361L134.41706,503.09361
				L134.17703,503.09361L133.937,503.09361L133.21691,503.09361L133.21691,503.33364L132.49681,503.33364L132.01675,503.33364L131.53669,503.33364
				L131.05663,503.33364L131.05663,503.57366L130.8166,503.57366L130.57657,503.57366L130.33654,503.57366L130.33654,503.81369L
				130.09651,503.81369L128.4163,503.81369L126.97611,503.81369L126.97611,504.05371L126.73608,504.05371L126.49605,504.05371L126.49605,504.29374
				L126.25602,504.29374L126.01599,504.29374L125.77596,504.29374L125.77596,504.53376L125.53593,504.53376L125.2959,504.53376L
				125.05587,504.53376L125.05587,504.77379L124.81584,504.77379L124.57581,504.77379L124.33578,504.77379L124.09575,504.77379L
				124.09575,505.01382L123.85572,505.01382L123.61569,505.01382L123.37566,505.01382L123.37566,505.25384L123.13563,505.25384L
				122.65557,505.25384L122.41554,505.25384L122.1755,505.25384L122.1755,505.49387L121.69544,505.49387L121.45541,505.49387L121.21538,505.49387
				L121.21538,505.73389L120.73532,505.73389L120.49529,505.73389L120.25526,505.73389L120.25526,505.97392L119.7752,505.97392L
				119.53517,505.97392L119.05511,505.97392L118.81508,505.97392L118.81508,506.21394L118.57505,506.21394L118.33502,506.21394L
				118.33502,506.45397L118.09499,506.45397L117.85496,506.45397L117.61493,506.45397L117.61493,506.69399L117.3749,506.69399L117.13487,506.69399
				L116.89483,506.69399L116.89483,506.93402L116.41477,506.93402L116.17474,506.93402L116.17474,507.17405L115.93471,507.17405
				L115.45465,507.17405L114.97459,507.17405L114.49453,507.17405L114.01447,507.17405L114.01447,507.41407L113.53441,507.41407
				L112.81432,507.41407L112.09423,507.41407L111.61416,507.41407L111.61416,507.6541L111.37413,507.6541L111.1341,507.6541L110.65404,507.6541
				L110.65404,507.89412L109.69392,507.89412L109.45389,507.89412L107.77368,507.89412L107.77368,507.6541L107.53365,507.6541L106.33349,507.6541
				L103.2131,507.6541L103.2131,507.41407L102.73304,507.41407L102.25298,507.41407L102.01295,507.41407L101.05282,507.41407L99.13258,507.41407
				L98.41249,507.41407L98.41249,507.17405L97.93243,507.17405L96.25222,507.17405L95.77215,507.17405L95.77215,507.41407L94.81203,507.41407
				L94.81203,507.17405L94.572,507.17405L94.33197,507.17405L93.85191,507.17405L93.61188,507.17405L93.37185,507.17405L93.13182,507.17405
				L92.65176,507.17405L92.41173,507.17405L91.93167,507.17405L91.93167,507.41407L91.45161,507.41407L90.49148,507.41407L89.77139,507.41407
				L89.53136,507.41407L89.0513,507.41407L88.81127,507.41407L88.33121,507.41407L88.33121,507.6541L87.85115,507.6541L85.21081,507.6541
				L84.73075,507.6541L84.49072,507.6541L84.01066,507.6541L84.01066,507.89412L83.77063,507.89412L83.5306,507.89412L83.29057,507.89412
				L83.29057,508.13415L83.05054,508.13415L82.81051,508.13415L82.57048,508.13415L82.57048,508.37417L82.33045,508.37417L82.09042,508.37417
				L81.85039,508.37417L81.85039,508.6142L81.61036,508.6142L81.37033,508.6142L81.1303,508.6142L81.1303,508.85422L80.89027,508.85422
				L80.65024,508.85422L80.4102,508.85422L80.4102,509.09425L80.17017,509.09425L79.93014,509.09425L79.69011,509.09425L79.45008,509.09425
				L79.45008,509.33428L79.21005,509.33428L78.97002,509.33428L78.72999,509.33428L78.72999,509.5743L78.48996,509.5743L78.24993,509.5743
				L78.24993,509.81433L78.0099,509.81433L78.0099,510.05435L77.76987,510.05435L77.76987,510.29438L77.52984,510.29438L77.28981,510.29438
				L77.28981,510.5344L77.04978,510.5344L77.04978,510.77443L76.80975,510.77443L76.56972,510.77443L76.56972,511.01445L76.32969,511.01445
				L76.08966,511.01445L76.08966,511.25448L75.84963,511.25448L75.84963,511.49451L75.6096,511.49451L75.36957,511.49451L75.36957,511.73453
				L75.12953,511.73453L75.12953,511.97456L74.8895,511.97456L74.64947,511.97456L74.64947,512.21458L74.40944,512.21458L74.16941,512.21458
				L73.92938,512.21458L73.92938,512.45461L73.68935,512.45461L73.44932,512.45461L73.44932,512.69463L73.20929,512.69463L73.20929,512.45461
				L72.96926,512.45461L72.72923,512.45461L72.4892,512.45461L72.4892,512.21458L72.24917,512.21458L72.00914,512.21458L72.00914,511.97456
				L71.76911,511.97456L71.52908,511.97456L71.28905,511.97456L71.04902,511.97456L71.04902,511.73453L70.80899,511.73453L70.56896,511.73453
				L70.56896,511.49451L70.32893,511.49451L70.08889,511.49451L69.84886,511.49451L69.84886,511.25448L69.60883,511.25448L69.3688,511.25448
				L69.3688,511.01445L69.12877,511.01445L68.88874,511.01445L68.64871,511.01445L68.64871,510.77443L68.40868,510.77443L68.16865,510.77443
				L67.92862,510.77443L67.44856,510.77443L67.44856,510.5344L66.9685,510.5344L66.72847,510.5344L66.48844,510.5344L66.48844,510.29438
				L64.80822,510.29438L64.32816,510.29438L63.60807,510.29438L63.36804,510.29438L62.64795,510.29438L61.68783,510.29438L61.4478,510.29438
				L61.4478,510.05435L61.20777,510.05435L60.96774,510.05435L60.96774,509.81433L60.72771,509.81433L60.72771,509.5743L60.48768,509.5743
				L60.24765,509.5743L60.24765,509.33428L60.24765,509.5743L60.00762,509.5743L60.00762,509.33428L59.76759,509.33428L59.76759,509.09425
				L59.52755,509.09425L58.80746,509.09425L58.56743,509.09425L58.56743,508.85422L58.3274,508.85422L58.3274,508.6142L58.08737,508.6142
				L58.08737,508.37417L58.08737,508.13415L57.84734,508.13415L57.60731,508.13415L57.60731,507.89412L57.36728,507.89412L57.36728,507.6541
				L57.36728,507.41407L57.12725,507.41407L57.12725,507.17405L57.12725,506.93402L56.88722,506.93402L56.88722,506.69399L56.88722,506.45397
				L56.88722,505.49387L56.88722,505.25384L56.64719,505.25384L56.64719,505.01382L56.64719,504.77379L56.40716,504.77379L56.40716,504.53376
				L56.40716,504.29374L56.40716,504.05371L56.16713,504.05371L56.16713,503.81369L56.16713,503.57366L56.16713,503.33364L55.9271,503.33364
				L55.9271,502.85359L55.9271,502.37353L55.9271,500.93338L55.9271,500.69335L55.68707,500.69335L55.68707,500.45333L55.68707,500.2133
				L55.44704,500.2133L55.44704,499.97328L55.44704,499.73325L55.20701,499.73325L55.20701,499.49323L55.20701,499.2532L55.20701,499.01318
				L54.96698,499.01318L54.96698,498.77315L54.96698,498.53312L54.72695,498.53312L54.72695,497.81305L54.72695,497.57302L54.48692,497.57302
				L54.48692,497.333L54.24688,497.333L54.24688,497.09297L54.00685,497.09297L54.00685,496.85295L53.76682,496.85295L53.76682,496.61292
				L53.52679,496.61292L53.52679,496.37289L53.04673,496.37289L53.04673,496.61292L52.08661,496.61292L51.60655,496.61292L51.60655,496.37289
				L51.36652,496.37289L51.36652,496.13287L51.12649,496.13287L50.88646,496.13287L50.88646,495.89284L50.64643,495.89284L50.4064,495.89284
				L50.16637,495.89284L50.16637,495.65282L49.92634,495.65282L49.68631,495.65282L49.44628,495.65282L50.4064,495.65282L50.4064,495.41279
				L51.60655,495.41279L51.60655,495.65282L51.84658,495.65282L51.84658,495.41279L51.84658,495.17277L51.84658,494.69272L51.84658,494.45269
				L52.08661,494.45269L52.08661,493.97264L52.08661,493.73261L52.32664,493.73261L52.32664,493.97264L52.56667,493.97264L52.8067,493.97264
				L52.8067,494.21266L53.04673,494.21266L53.28676,494.21266L53.28676,494.45269L53.52679,494.45269L53.76682,494.45269L53.76682,494.69272
				L54.00685,494.69272L54.24688,494.69272L54.24688,494.93274L54.48692,494.93274L54.72695,494.93274L54.72695,495.17277L54.96698,495.17277
				L55.20701,495.17277L55.20701,495.41279L55.44704,495.41279L55.68707,495.41279L55.68707,495.65282L55.9271,495.65282L56.16713,495.65282
				L56.16713,495.89284L56.40716,495.89284L56.64719,495.89284L56.64719,496.13287L56.88722,496.13287L57.12725,496.13287L57.12725,496.37289
				L57.36728,496.37289L57.60731,496.37289L57.60731,496.61292L57.84734,496.61292L58.08737,496.61292L58.08737,496.85295L58.3274,496.85295
				L58.56743,496.85295L58.80746,496.85295L58.80746,497.09297L59.04749,497.09297L59.28752,497.09297L59.28752,497.333L59.52755,497.333
				L59.76759,497.333L59.76759,497.57302L60.00762,497.57302L60.24765,497.57302L60.48768,497.57302L60.48768,497.81305L60.48768,497.57302
				L60.72771,497.57302L60.72771,497.333L60.72771,497.09297L60.72771,496.85295L60.96774,496.85295L60.96774,496.61292L60.96774,496.37289
				L61.20777,496.37289L61.20777,496.13287L61.20777,495.89284L61.20777,495.65282L61.4478,495.65282L61.4478,495.41279L61.4478,495.17277
				L61.4478,494.93274L61.68783,494.93274L61.68783,494.69272L61.68783,494.45269L61.68783,494.21266L61.92786,494.21266L61.92786,493.97264
				L61.92786,493.73261L61.92786,493.49259L62.16789,493.49259L62.16789,493.25256L62.16789,493.01254L62.16789,492.77251L62.16789,492.53249
				L62.40792,492.53249L62.40792,492.29246L62.40792,491.81241L62.40792,491.57238L62.64795,491.57238L62.64795,491.33236L62.64795,491.09233
				L64.56819,491.09233L64.56819,490.85231L64.80822,490.85231"/>
		</g>
</g></svg>