<?xml version="1.0" encoding="utf-8" standalone="no"?>
<!-- Creator: ESRI ArcMap 10.0.0.2414 -->
<!DOCTYPE svg PUBLIC "-//W3C//DTD SVG 1.1//EN"  "http://www.w3.org/Graphics/SVG/1.1/DTD/svg11.dtd">
<svg width="524.0420768pt" height="338.062468474pt" viewBox="32.15712744 252.097900763 524.0420768 338.062468474" enable-background="new 32.15712744 252.097900763 524.0420768 338.062468474"
	version="1.1" xmlns="http://www.w3.org/2000/svg" xmlns:xlink="http://www.w3.org/1999/xlink" >
	<g id="Couches">
		<g id="cont_2">
			<path clip-path="url(#SVG_CP_2)" fill="none" stroke="#999999" stroke-width="0.96012" stroke-miterlimit="10" stroke-linecap="round" stroke-linejoin="round" d="
				M408.05178,288.9908L408.05178,288.75077L407.81175,288.75077L407.81175,288.51074L407.57172,288.51074L407.57172,288.27072L
				407.33169,288.27072L407.33169,288.03069L407.09166,288.03069L407.09166,287.79067L406.85163,287.79067L406.85163,287.55064L
				406.6116,287.55064L406.6116,287.31062L406.37157,287.31062L406.37157,287.07059L406.13154,287.07059L406.13154,286.83057L405.89151,286.83057
				L405.89151,286.59054L405.65148,286.59054L405.65148,286.35051L405.41145,286.35051L405.41145,286.11049L405.17142,286.11049
				L405.17142,285.87046L404.93139,285.87046L404.93139,285.63044L404.69136,285.63044L404.69136,285.39041L404.45133,285.39041
				L404.45133,285.15039L404.2113,285.15039L404.2113,284.91036L403.97127,284.91036L403.97127,284.67034L403.73124,284.67034L403.73124,284.43031
				L403.4912,284.43031L403.4912,284.19028L403.25117,284.19028L403.25117,283.95026L403.01114,283.95026L402.53108,283.95026L402.53108,283.71023
				L402.05102,283.71023L401.81099,283.71023L401.81099,283.47021L401.57096,283.47021L401.57096,283.23018L401.33093,283.23018
				L401.0909,283.23018L401.0909,282.99016L400.85087,282.99016L401.0909,282.99016L401.0909,282.75013L401.0909,282.51011L401.33093,282.51011
				L401.33093,282.27008L401.33093,282.03005L401.57096,282.03005L401.57096,281.79003L401.57096,281.55L401.81099,281.55L401.81099,281.30998
				L402.05102,281.30998L402.05102,281.06995L402.05102,280.82993L402.29105,280.82993L402.53108,280.82993L402.53108,280.5899L
				402.53108,280.34987L402.53108,278.6697L402.77111,278.6697L402.77111,276.98952L402.77111,275.30934L402.77111,274.10921L402.53108,274.10921
				L402.53108,273.86918L402.29105,273.86918L402.05102,273.86918L402.05102,274.10921L402.05102,274.58926L402.05102,275.06931
				L401.81099,275.06931L401.81099,275.30934L401.81099,275.78939L401.81099,276.02941L401.57096,276.02941L401.57096,276.50947
				L401.57096,276.98952L401.57096,277.22954L401.33093,277.22954L401.33093,277.70959L401.33093,277.94962L401.33093,278.42967
				L401.0909,278.42967L401.0909,278.6697L401.0909,279.14975L401.0909,279.38977L400.85087,279.38977L400.85087,279.6298L400.85087,280.10985
				L400.61084,280.10985L400.61084,280.34987L400.61084,280.5899L400.37081,280.5899L400.37081,280.82993L400.13078,280.82993L400.13078,281.06995
				L400.13078,281.30998L399.89075,281.30998L399.89075,281.55L399.65072,281.55L399.65072,281.79003L399.41069,281.79003L399.41069,282.03005
				L399.41069,282.27008L399.65072,282.27008L399.65072,282.75013L399.65072,282.99016L400.85087,282.99016L401.0909,282.99016L
				401.0909,283.23018L401.33093,283.23018L401.33093,283.47021L401.33093,283.71023L401.57096,283.71023L401.57096,283.95026L401.81099,283.95026
				L403.01114,283.95026L403.01114,284.19028L403.25117,284.19028L403.25117,284.43031L403.4912,284.43031L403.4912,284.67034L403.73124,284.67034
				L403.73124,284.91036L403.97127,284.91036L404.2113,284.91036L404.2113,285.15039L404.2113,285.39041L404.45133,285.39041L404.45133,285.63044
				L404.69136,285.63044L404.69136,285.87046L404.93139,285.87046L404.93139,286.11049L405.17142,286.11049L405.17142,286.35051
				L405.41145,286.35051L405.41145,286.59054L405.65148,286.59054L405.89151,286.59054L405.89151,286.83057L406.13154,286.83057
				L406.13154,287.07059L406.13154,287.31062L406.37157,287.31062L406.37157,287.55064L406.6116,287.55064L406.6116,287.79067L406.85163,287.79067
				L406.85163,288.03069L407.09166,288.03069L407.09166,288.27072L407.33169,288.27072L407.33169,288.51074L407.57172,288.51074
				L407.81175,288.51074L407.81175,288.75077L407.81175,288.9908L408.05178,288.9908L408.05178,289.23082L407.81175,289.23082L407.81175,289.47085
				L407.57172,289.47085L407.57172,289.71087L407.33169,289.71087L407.33169,289.9509L407.09166,289.9509L407.09166,290.19092L407.09166,290.43095
				L406.85163,290.43095L406.85163,290.67097L406.6116,290.67097L406.6116,290.911L406.37157,290.911L406.37157,291.15103L406.37157,291.39105
				L406.13154,291.39105L406.13154,291.63108L405.89151,291.63108L405.89151,291.8711L405.65148,291.8711L405.65148,292.11113L405.41145,292.11113
				L405.41145,292.35115L405.17142,292.35115L405.17142,292.59118L404.93139,292.59118L404.93139,292.8312L404.93139,293.07123L
				404.69136,293.07123L404.69136,293.31126L404.45133,293.31126L404.45133,293.55128L404.2113,293.55128L404.2113,293.79131L403.97127,293.79131
				L403.97127,294.03133L403.73124,294.03133L403.73124,294.27136L403.4912,294.27136L403.4912,294.51138L403.4912,294.75141L403.25117,294.75141
				L403.25117,294.99144L403.01114,294.99144L403.01114,295.23146L402.77111,295.23146L402.77111,295.47149L402.53108,295.47149
				L402.53108,295.71151L402.53108,295.95154L402.29105,295.95154L402.29105,296.19156L402.05102,296.19156L402.05102,296.43159
				L401.81099,296.43159L401.81099,296.67161L401.57096,296.67161L401.57096,296.91164L401.33093,296.91164L401.33093,297.15167
				L401.0909,297.15167L401.0909,297.39169L400.85087,297.39169L400.85087,297.63172L400.85087,297.87174L400.61084,297.87174L400.61084,298.11177
				L400.37081,298.11177L400.13078,298.11177L399.89075,298.11177L399.89075,298.35179L399.65072,298.35179L399.65072,298.59182
				L399.41069,298.59182L399.17066,298.59182L399.17066,298.83184L398.93063,298.83184L398.6906,298.83184L398.6906,299.07187L398.45057,299.07187
				L398.21053,299.07187L398.21053,299.3119L397.9705,299.3119L397.9705,299.55192L397.73047,299.55192L397.73047,299.79195L397.49044,299.79195
				L397.49044,300.03197L397.25041,300.03197L397.25041,300.272L397.25041,300.51202L397.01038,300.51202L397.01038,300.75205L397.25041,300.75205
				L397.25041,300.99207L397.49044,300.99207L397.49044,301.2321L397.73047,301.2321L397.73047,301.47213L397.9705,301.47213L397.9705,301.71215
				L397.9705,301.95218L397.73047,301.95218L397.73047,302.1922L397.73047,302.43223L397.49044,302.43223L397.49044,302.67225L397.25041,302.67225
				L397.25041,302.91228L397.01038,302.91228L397.01038,302.67225L396.77035,302.67225L396.77035,302.43223L396.53032,302.43223
				L396.53032,302.1922L396.29029,302.1922L396.29029,301.95218L396.05026,301.95218L396.05026,301.71215L395.81023,301.71215L395.81023,301.47213
				L394.61008,301.47213L393.64996,301.47213L393.16989,301.47213L393.16989,301.71215L392.92986,301.71215L392.68983,301.71215
				L392.68983,301.95218L392.4498,301.95218L392.4498,302.1922L392.20977,302.1922L392.20977,302.43223L391.96974,302.43223L391.72971,302.43223
				L391.72971,302.67225L391.48968,302.67225L391.48968,302.91228L391.24965,302.91228L391.24965,303.1523L391.00962,303.1523L390.76959,303.1523
				L390.52956,303.1523L390.52956,303.39233L390.28953,303.39233L390.0495,303.39233L390.0495,303.63236L389.80947,303.63236L389.56944,303.63236
				L389.32941,303.63236L389.32941,303.87238L389.56944,303.87238L389.56944,304.11241L389.56944,304.35243L389.80947,304.35243
				L389.80947,304.59246L389.56944,304.59246L389.56944,304.83248L389.32941,304.83248L389.08938,304.83248L389.08938,305.07251
				L388.84935,305.07251L388.60932,305.07251L388.60932,305.31253L388.60932,305.07251L388.60932,304.83248L388.36929,304.83248
				L388.36929,304.59246L388.36929,304.35243L388.12926,304.35243L388.12926,304.59246L387.88922,304.59246L387.88922,304.83248
				L387.64919,304.83248L387.40916,304.83248L387.40916,305.07251L387.16913,305.07251L387.16913,305.31253L386.9291,305.31253L
				386.9291,305.55256L386.68907,305.55256L386.68907,305.79259L386.44904,305.79259L386.44904,306.03261L386.20901,306.03261L386.20901,306.27264
				L386.20901,306.51266L385.96898,306.51266L385.96898,306.75269L385.96898,306.51266L385.96898,306.27264L385.96898,306.03261
				L385.96898,305.55256L385.96898,305.07251L385.72895,305.07251L385.72895,304.83248L385.72895,304.35243L385.48892,304.35243
				L385.48892,304.11241L385.48892,303.87238L385.24889,303.87238L385.24889,303.63236L385.48892,303.63236L385.24889,303.63236
				L385.24889,303.39233L385.48892,303.39233L385.48892,302.91228L385.24889,302.91228L385.24889,302.67225L385.48892,302.67225
				L385.48892,302.43223L385.48892,302.1922L385.48892,301.95218L385.72895,301.95218L385.72895,301.71215L385.72895,301.47213L
				385.96898,301.47213L385.96898,301.2321L385.96898,300.99207L385.96898,300.75205L386.20901,300.75205L386.20901,300.51202L386.20901,300.272
				L386.20901,300.03197L386.44904,300.03197L386.44904,299.79195L386.44904,299.55192L386.68907,299.55192L386.68907,299.3119L
				386.68907,299.07187L386.68907,298.83184L386.9291,298.83184L386.9291,298.59182L386.9291,298.35179L386.9291,298.11177L387.16913,298.11177
				L387.16913,297.39169L387.16913,295.47149L387.16913,294.03133L387.16913,293.31126L387.16913,292.8312L387.40916,292.8312L387.40916,292.35115
				L387.40916,292.11113L387.40916,291.63108L387.64919,291.63108L387.64919,291.39105L387.64919,291.15103L387.64919,290.67097
				L387.88922,290.67097L387.88922,290.43095L387.88922,290.19092L387.88922,288.9908L388.12926,288.9908L388.12926,288.03069L388.12926,286.83057
				L388.12926,286.11049L388.12926,285.87046L388.36929,285.87046L388.36929,285.63044L388.36929,285.15039L388.36929,284.91036
				L388.60932,284.91036L388.60932,284.43031L388.60932,284.19028L388.60932,283.95026L388.84935,283.95026L388.84935,283.71023
				L389.08938,283.71023L389.08938,283.47021L389.08938,283.23018L389.32941,283.23018L389.32941,282.99016L389.32941,282.75013
				L389.56944,282.75013L389.56944,282.51011L389.80947,282.51011L389.80947,282.27008L390.0495,282.27008L390.0495,282.03005L390.28953,282.03005
				L390.28953,281.79003L390.28953,281.55L390.52956,281.55L390.52956,281.30998L390.76959,281.30998L390.76959,281.06995L391.00962,281.06995
				L391.00962,280.82993L391.00962,280.5899L391.24965,280.5899L391.24965,280.34987L391.48968,280.34987L391.48968,280.10985L391.48968,279.86982
				L391.72971,279.86982L391.72971,279.6298L391.96974,279.6298L391.96974,279.38977L391.96974,279.14975L392.20977,279.14975L392.20977,278.90972
				L392.20977,278.6697L392.4498,278.6697L392.4498,278.42967L392.4498,278.18964L392.68983,278.18964L392.68983,277.94962L392.68983,277.70959
				L392.92986,277.70959L392.92986,277.46957L392.92986,277.22954L393.16989,277.22954L393.16989,276.50947L393.16989,275.78939
				L393.16989,275.30934L393.40993,275.30934L393.40993,275.06931L393.64996,275.06931L393.64996,274.82929L393.88999,274.82929
				L393.88999,274.58926L393.88999,273.86918L393.88999,273.38913L394.13002,273.38913L394.13002,273.14911L394.13002,272.90908
				L394.13002,272.42903L394.37005,272.42903L394.37005,272.18901L394.37005,271.94898L394.37005,271.70895L394.61008,271.70895
				L394.61008,271.46893L394.61008,271.2289L394.61008,270.98888L394.85011,270.98888L394.85011,270.74885L394.85011,270.50883L
				394.85011,270.2688L395.09014,270.2688L395.09014,270.02877L395.09014,269.78875L395.33017,269.78875L395.33017,269.54872L395.33017,269.3087
				L395.33017,269.06867L395.5702,269.06867L395.5702,268.82865L395.81023,268.82865L395.81023,268.58862L396.05026,268.58862L396.05026,268.3486
				L396.05026,268.10857L396.29029,268.10857L396.29029,267.86854L396.53032,267.86854L396.77035,267.86854L396.77035,267.62852
				L397.01038,267.62852L397.01038,267.38849L397.25041,267.38849L397.49044,267.38849L397.49044,267.14847L397.49044,266.90844
				L397.73047,266.90844L397.73047,266.66842L397.73047,266.42839L397.9705,266.42839L397.9705,266.18837L398.21053,266.18837L398.45057,266.18837
				L398.93063,266.18837L398.93063,265.94834L399.17066,265.94834L399.17066,265.70831L399.41069,265.70831L399.65072,265.70831
				L399.65072,265.46829L399.65072,265.22826L399.89075,265.22826L399.89075,264.98824L399.89075,264.74821L399.89075,264.50819
				L400.13078,264.50819L400.13078,264.26816L400.37081,264.26816L400.37081,264.02814L400.85087,264.02814L401.0909,264.02814L
				401.33093,264.02814L401.33093,263.78811L401.57096,263.78811L401.81099,263.78811L402.05102,263.78811L402.05102,263.54808L
				402.29105,263.54808L402.53108,263.54808L402.53108,263.78811L402.53108,264.02814L402.77111,264.02814L403.01114,264.02814L
				403.01114,264.26816L403.25117,264.26816L403.25117,264.50819L403.4912,264.50819L403.73124,264.50819L403.73124,264.74821L403.97127,264.74821
				L404.2113,264.74821L404.45133,264.74821L404.45133,264.98824L404.69136,264.98824L404.93139,264.98824L404.93139,265.22826L
				405.17142,265.22826L405.41145,265.22826L405.89151,265.22826L405.89151,265.46829L406.13154,265.46829L406.37157,265.46829L
				406.6116,265.46829L406.6116,265.70831L407.09166,265.70831L408.29181,265.70831L409.25194,265.70831L409.25194,265.94834L409.732,265.94834
				L409.97203,265.94834L409.97203,266.18837L410.21206,266.18837L410.69212,266.18837L410.93215,266.18837L410.93215,266.42839
				L411.17218,266.42839L411.41221,266.42839L411.65224,266.42839L411.65224,266.66842L411.89227,266.66842L412.1323,266.66842L
				412.37233,266.66842L412.37233,266.90844L412.61236,266.90844L412.85239,266.90844L413.09242,266.90844L413.09242,267.14847L
				413.33245,267.14847L413.57248,267.14847L413.57248,267.38849L413.81251,267.38849L414.05254,267.38849L414.05254,267.62852L
				414.29258,267.62852L414.53261,267.62852L414.53261,267.86854L414.77264,267.86854L415.01267,267.86854L415.2527,267.86854L415.2527,268.10857
				L415.49273,268.10857L415.73276,268.10857L415.73276,268.3486L415.97279,268.3486L416.21282,268.3486L416.21282,268.58862L416.45285,268.58862
				L416.69288,268.58862L416.69288,268.82865L416.93291,268.82865L416.93291,269.06867L417.17294,269.06867L418.61312,269.06867
				L420.05331,269.06867L420.05331,269.3087L420.53337,269.3087L421.49349,269.3087L421.97355,269.3087L421.97355,269.54872L422.45361,269.54872
				L422.69364,269.54872L422.69364,269.78875L422.93367,269.78875L423.41373,269.78875L423.41373,270.02877L423.65376,270.02877
				L423.89379,270.02877L423.89379,270.2688L424.13382,270.2688L424.13382,270.50883L424.37385,270.50883L424.61389,270.50883L424.61389,270.74885
				L424.85392,270.74885L424.85392,270.98888L425.09395,270.98888L425.09395,271.2289L425.33398,271.2289L425.33398,271.46893L425.57401,271.46893
				L425.57401,271.70895L425.81404,271.70895L425.81404,271.94898L426.05407,271.94898L426.05407,272.18901L426.2941,272.18901L
				426.53413,272.18901L426.53413,272.42903L426.2941,272.42903L426.05407,272.42903L425.57401,272.42903L425.57401,272.18901L425.33398,272.18901
				L425.09395,272.18901L424.85392,272.18901L424.85392,272.42903L424.85392,272.66906L424.61389,272.66906L424.61389,272.90908
				L424.61389,273.14911L424.37385,273.14911L424.37385,273.38913L424.37385,273.62916L424.13382,273.62916L424.13382,273.86918
				L424.13382,274.10921L423.89379,274.10921L423.89379,274.34924L424.13382,274.34924L424.37385,274.34924L424.61389,274.34924
				L424.61389,274.58926L424.85392,274.58926L425.09395,274.58926L425.09395,274.82929L425.33398,274.82929L425.57401,274.82929
				L425.81404,274.82929L425.81404,275.06931L425.57401,275.06931L425.57401,275.30934L425.57401,275.54936L425.33398,275.54936
				L425.33398,275.78939L425.33398,276.02941L425.09395,276.02941L424.85392,276.02941L424.85392,275.78939L424.61389,275.78939
				L424.37385,275.78939L424.37385,275.54936L424.13382,275.54936L423.89379,275.54936L423.65376,275.54936L423.65376,275.30934
				L423.41373,275.30934L423.41373,275.54936L423.41373,275.78939L423.1737,275.78939L423.1737,276.02941L423.1737,276.26944L422.93367,276.26944
				L422.93367,276.50947L422.93367,276.74949L422.93367,276.98952L422.69364,276.98952L422.69364,277.22954L422.69364,277.46957
				L422.45361,277.46957L422.45361,277.70959L422.45361,277.94962L422.45361,278.42967L422.21358,278.42967L422.21358,278.6697L
				422.21358,278.90972L421.97355,278.90972L421.97355,279.14975L421.97355,279.38977L421.97355,279.6298L421.73352,279.6298L421.73352,279.86982
				L421.73352,280.10985L421.97355,280.10985L421.97355,280.34987L422.21358,280.34987L422.45361,280.34987L422.93367,280.34987
				L422.93367,280.5899L423.1737,280.5899L423.41373,280.5899L423.65376,280.5899L423.65376,280.82993L423.41373,280.82993L423.41373,281.06995
				L423.41373,281.30998L423.41373,281.55L423.1737,281.55L423.1737,281.79003L423.1737,282.03005L422.93367,282.03005L422.93367,282.27008
				L422.93367,282.51011L422.69364,282.51011L422.21358,282.51011L421.97355,282.51011L421.97355,282.27008L421.73352,282.27008
				L421.25346,282.27008L421.01343,282.27008L421.01343,282.03005L420.53337,282.03005L420.53337,281.55L420.7734,281.55L420.7734,281.30998
				L420.53337,281.30998L420.29334,281.30998L420.29334,281.06995L420.05331,281.06995L420.05331,280.82993L420.05331,280.5899L
				420.05331,280.34987L419.57325,280.34987L419.57325,280.10985L419.33322,280.10985L419.09318,280.10985L418.85315,280.10985L
				418.85315,279.86982L418.61312,279.86982L418.61312,279.6298L418.37309,279.6298L418.13306,279.6298L417.89303,279.6298L417.89303,279.38977
				L417.653,279.38977L417.41297,279.38977L417.17294,279.38977L417.17294,279.14975L416.93291,279.14975L416.69288,279.14975L416.45285,279.14975
				L416.45285,279.38977L416.21282,279.38977L416.21282,279.6298L415.97279,279.6298L415.97279,279.86982L415.73276,279.86982L415.73276,280.10985
				L415.49273,280.10985L415.49273,280.34987L415.49273,280.5899L415.2527,280.5899L415.2527,280.82993L415.01267,280.82993L415.01267,281.06995
				L414.77264,281.06995L414.77264,281.30998L414.53261,281.30998L414.53261,281.55L414.29258,281.55L414.29258,281.79003L414.05254,281.79003
				L414.05254,282.03005L414.05254,282.27008L413.81251,282.27008L413.81251,282.51011L413.57248,282.51011L413.57248,282.75013
				L413.33245,282.75013L413.33245,282.99016L413.09242,282.99016L413.09242,283.23018L412.85239,283.23018L412.85239,283.47021
				L412.85239,283.71023L412.61236,283.71023L412.37233,283.71023L412.37233,283.95026L412.37233,284.19028L412.1323,284.19028L
				412.1323,284.43031L412.37233,284.43031L412.61236,284.43031L412.85239,284.43031L412.85239,284.67034L413.09242,284.67034L413.33245,284.67034
				L413.33245,284.91036L413.57248,284.91036L413.81251,284.91036L414.05254,284.91036L414.05254,285.15039L414.29258,285.15039
				L414.29258,285.39041L414.53261,285.39041L414.77264,285.39041L415.01267,285.39041L415.01267,285.63044L415.01267,285.87046
				L414.77264,285.87046L414.77264,286.11049L414.53261,286.11049L414.53261,286.35051L414.53261,286.59054L414.29258,286.59054
				L414.29258,286.83057L414.05254,286.83057L414.05254,287.07059L414.05254,287.31062L413.81251,287.31062L413.81251,287.55064
				L413.81251,287.79067L413.57248,287.79067L413.57248,287.55064L413.33245,287.55064L413.09242,287.55064L413.09242,287.31062
				L412.85239,287.31062L412.61236,287.31062L412.37233,287.31062L412.37233,287.07059L412.1323,287.07059L411.89227,287.07059L
				411.89227,286.83057L411.65224,286.83057L411.41221,286.83057L411.41221,286.59054L411.17218,286.59054L410.93215,286.59054L
				410.69212,286.59054L410.69212,286.35051L410.45209,286.35051L410.21206,286.35051L410.21206,286.59054L409.97203,286.59054L
				409.97203,286.83057L409.732,286.83057L409.732,287.07059L409.732,287.31062L409.49197,287.31062L409.49197,287.55064L409.25194,287.55064
				L409.25194,287.79067L409.01191,287.79067L409.01191,288.03069L408.77187,288.03069L408.77187,288.27072L408.53184,288.27072
				L408.53184,288.51074L408.29181,288.51074L408.29181,288.75077L408.29181,288.9908L408.05178,288.9908"/>
		</g>
</g></svg>