<?xml version="1.0" encoding="utf-8" standalone="no"?>
<!-- Creator: ESRI ArcMap 10.0.0.2414 -->
<!DOCTYPE svg PUBLIC "-//W3C//DTD SVG 1.1//EN"  "http://www.w3.org/Graphics/SVG/1.1/DTD/svg11.dtd">
<svg width="524.0420768pt" height="223.898418117pt" viewBox="32.15712744 309.179925941 524.0420768 223.898418117" enable-background="new 32.15712744 309.179925941 524.0420768 223.898418117"
	version="1.1" xmlns="http://www.w3.org/2000/svg" xmlns:xlink="http://www.w3.org/1999/xlink" >
	<g id="Couches">
		<g id="cont_2">
			<path clip-path="url(#SVG_CP_2)" fill="none" stroke="#999999" stroke-width="0.96012" stroke-miterlimit="10" stroke-linecap="round" stroke-linejoin="round" d="
				M117.85496,370.83952L117.61493,370.83952L117.85496,370.83952L117.85496,370.83952"/>
			<path clip-path="url(#SVG_CP_2)" fill="none" stroke="#999999" stroke-width="0.96012" stroke-miterlimit="10" stroke-linecap="round" stroke-linejoin="round" d="
				M117.85496,370.83952L117.85496,370.83952"/>
			<path clip-path="url(#SVG_CP_2)" fill="none" stroke="#999999" stroke-width="0.96012" stroke-miterlimit="10" stroke-linecap="round" stroke-linejoin="round" d="
				M118.09499,371.07954L117.85496,371.07954L117.85496,370.83952L118.09499,370.83952L118.09499,371.07954"/>
			<path clip-path="url(#SVG_CP_2)" fill="none" stroke="#999999" stroke-width="0.96012" stroke-miterlimit="10" stroke-linecap="round" stroke-linejoin="round" d="
				M118.09499,371.07954L118.09499,371.07954"/>
			<path clip-path="url(#SVG_CP_2)" fill="none" stroke="#999999" stroke-width="0.96012" stroke-miterlimit="10" stroke-linecap="round" stroke-linejoin="round" d="
				M118.33502,371.31957L118.09499,371.31957L118.09499,371.07954L118.33502,371.07954L118.33502,371.31957"/>
			<path clip-path="url(#SVG_CP_2)" fill="none" stroke="#999999" stroke-width="0.96012" stroke-miterlimit="10" stroke-linecap="round" stroke-linejoin="round" d="
				M118.33502,371.31957L118.33502,371.31957"/>
			<path clip-path="url(#SVG_CP_2)" fill="none" stroke="#999999" stroke-width="0.96012" stroke-miterlimit="10" stroke-linecap="round" stroke-linejoin="round" d="
				M118.33502,371.31957L118.33502,371.31957"/>
			<path clip-path="url(#SVG_CP_2)" fill="none" stroke="#999999" stroke-width="0.96012" stroke-miterlimit="10" stroke-linecap="round" stroke-linejoin="round" d="
				M118.57505,371.55959L118.33502,371.55959L118.33502,371.31957L118.57505,371.31957L118.57505,371.55959"/>
			<path clip-path="url(#SVG_CP_2)" fill="none" stroke="#999999" stroke-width="0.96012" stroke-miterlimit="10" stroke-linecap="round" stroke-linejoin="round" d="
				M118.57505,371.55959L118.57505,371.55959"/>
			<path clip-path="url(#SVG_CP_2)" fill="none" stroke="#999999" stroke-width="0.96012" stroke-miterlimit="10" stroke-linecap="round" stroke-linejoin="round" d="
				M118.81508,371.79962L118.57505,371.79962L118.57505,371.55959L118.81508,371.55959L118.81508,371.79962"/>
			<path clip-path="url(#SVG_CP_2)" fill="none" stroke="#999999" stroke-width="0.96012" stroke-miterlimit="10" stroke-linecap="round" stroke-linejoin="round" d="
				M118.81508,371.79962L118.81508,371.79962"/>
			<path clip-path="url(#SVG_CP_2)" fill="none" stroke="#999999" stroke-width="0.96012" stroke-miterlimit="10" stroke-linecap="round" stroke-linejoin="round" d="
				M119.05511,372.03965L118.81508,372.03965L118.81508,371.79962L119.05511,371.79962L119.05511,372.03965"/>
			<path clip-path="url(#SVG_CP_2)" fill="none" stroke="#999999" stroke-width="0.96012" stroke-miterlimit="10" stroke-linecap="round" stroke-linejoin="round" d="
				M119.05511,372.03965L119.05511,372.03965"/>
			<path clip-path="url(#SVG_CP_2)" fill="none" stroke="#999999" stroke-width="0.96012" stroke-miterlimit="10" stroke-linecap="round" stroke-linejoin="round" d="
				M119.05511,372.03965L119.05511,372.03965"/>
			<path clip-path="url(#SVG_CP_2)" fill="none" stroke="#999999" stroke-width="0.96012" stroke-miterlimit="10" stroke-linecap="round" stroke-linejoin="round" d="
				M119.29514,372.27967L119.05511,372.27967L119.05511,372.03965L119.29514,372.03965L119.29514,372.27967"/>
			<path clip-path="url(#SVG_CP_2)" fill="none" stroke="#999999" stroke-width="0.96012" stroke-miterlimit="10" stroke-linecap="round" stroke-linejoin="round" d="
				M119.29514,372.27967L119.29514,372.27967"/>
			<path clip-path="url(#SVG_CP_2)" fill="none" stroke="#999999" stroke-width="0.96012" stroke-miterlimit="10" stroke-linecap="round" stroke-linejoin="round" d="
				M119.53517,372.5197L119.29514,372.5197L119.29514,372.27967L119.53517,372.27967L119.53517,372.5197"/>
			<path clip-path="url(#SVG_CP_2)" fill="none" stroke="#999999" stroke-width="0.96012" stroke-miterlimit="10" stroke-linecap="round" stroke-linejoin="round" d="
				M119.53517,372.5197L119.53517,372.5197"/>
			<path clip-path="url(#SVG_CP_2)" fill="none" stroke="#999999" stroke-width="0.96012" stroke-miterlimit="10" stroke-linecap="round" stroke-linejoin="round" d="
				M119.53517,372.5197L119.53517,372.5197"/>
			<path clip-path="url(#SVG_CP_2)" fill="none" stroke="#999999" stroke-width="0.96012" stroke-miterlimit="10" stroke-linecap="round" stroke-linejoin="round" d="
				M119.7752,372.75972L119.53517,372.75972L119.53517,372.5197L119.7752,372.5197L119.7752,372.75972"/>
			<path clip-path="url(#SVG_CP_2)" fill="none" stroke="#999999" stroke-width="0.96012" stroke-miterlimit="10" stroke-linecap="round" stroke-linejoin="round" d="
				M119.7752,372.75972L119.7752,372.75972"/>
			<path clip-path="url(#SVG_CP_2)" fill="none" stroke="#999999" stroke-width="0.96012" stroke-miterlimit="10" stroke-linecap="round" stroke-linejoin="round" d="
				M120.01523,372.99975L119.7752,372.99975L119.7752,372.75972L120.01523,372.75972L120.01523,372.99975"/>
			<path clip-path="url(#SVG_CP_2)" fill="none" stroke="#999999" stroke-width="0.96012" stroke-miterlimit="10" stroke-linecap="round" stroke-linejoin="round" d="
				M120.01523,372.99975L120.01523,372.99975"/>
			<path clip-path="url(#SVG_CP_2)" fill="none" stroke="#999999" stroke-width="0.96012" stroke-miterlimit="10" stroke-linecap="round" stroke-linejoin="round" d="
				M120.25526,373.23977L120.01523,373.23977L120.01523,372.99975L120.25526,372.99975L120.25526,373.23977"/>
			<path clip-path="url(#SVG_CP_2)" fill="none" stroke="#999999" stroke-width="0.96012" stroke-miterlimit="10" stroke-linecap="round" stroke-linejoin="round" d="
				M120.25526,373.23977L120.25526,373.23977"/>
			<path clip-path="url(#SVG_CP_2)" fill="none" stroke="#999999" stroke-width="0.96012" stroke-miterlimit="10" stroke-linecap="round" stroke-linejoin="round" d="
				M120.25526,373.23977L120.25526,373.23977"/>
			<path clip-path="url(#SVG_CP_2)" fill="none" stroke="#999999" stroke-width="0.96012" stroke-miterlimit="10" stroke-linecap="round" stroke-linejoin="round" d="
				M120.49529,373.4798L120.25526,373.4798L120.25526,373.23977L120.49529,373.23977L120.49529,373.4798"/>
			<path clip-path="url(#SVG_CP_2)" fill="none" stroke="#999999" stroke-width="0.96012" stroke-miterlimit="10" stroke-linecap="round" stroke-linejoin="round" d="
				M120.49529,373.4798L120.49529,373.4798"/>
			<path clip-path="url(#SVG_CP_2)" fill="none" stroke="#999999" stroke-width="0.96012" stroke-miterlimit="10" stroke-linecap="round" stroke-linejoin="round" d="
				M120.73532,373.71982L120.49529,373.71982L120.49529,373.4798L120.73532,373.4798L120.73532,373.71982"/>
			<path clip-path="url(#SVG_CP_2)" fill="none" stroke="#999999" stroke-width="0.96012" stroke-miterlimit="10" stroke-linecap="round" stroke-linejoin="round" d="
				M120.73532,373.71982L120.73532,373.71982"/>
			<path clip-path="url(#SVG_CP_2)" fill="none" stroke="#999999" stroke-width="0.96012" stroke-miterlimit="10" stroke-linecap="round" stroke-linejoin="round" d="
				M120.73532,373.71982L120.73532,373.71982"/>
			<path clip-path="url(#SVG_CP_2)" fill="none" stroke="#999999" stroke-width="0.96012" stroke-miterlimit="10" stroke-linecap="round" stroke-linejoin="round" d="
				M120.97535,373.95985L120.73532,373.95985L120.73532,373.71982L120.97535,373.71982L120.97535,373.95985"/>
			<path clip-path="url(#SVG_CP_2)" fill="none" stroke="#999999" stroke-width="0.96012" stroke-miterlimit="10" stroke-linecap="round" stroke-linejoin="round" d="
				M120.97535,373.95985L120.97535,373.95985"/>
			<path clip-path="url(#SVG_CP_2)" fill="none" stroke="#999999" stroke-width="0.96012" stroke-miterlimit="10" stroke-linecap="round" stroke-linejoin="round" d="
				M121.21538,374.19988L120.97535,374.19988L120.97535,373.95985L121.21538,373.95985L121.21538,374.19988"/>
			<path clip-path="url(#SVG_CP_2)" fill="none" stroke="#999999" stroke-width="0.96012" stroke-miterlimit="10" stroke-linecap="round" stroke-linejoin="round" d="
				M121.21538,374.19988L121.21538,374.19988"/>
			<path clip-path="url(#SVG_CP_2)" fill="none" stroke="#999999" stroke-width="0.96012" stroke-miterlimit="10" stroke-linecap="round" stroke-linejoin="round" d="
				M121.45541,374.4399L121.21538,374.4399L121.21538,374.19988L121.45541,374.19988L121.45541,374.4399"/>
			<path clip-path="url(#SVG_CP_2)" fill="none" stroke="#999999" stroke-width="0.96012" stroke-miterlimit="10" stroke-linecap="round" stroke-linejoin="round" d="
				M121.45541,374.4399L121.45541,374.4399"/>
			<path clip-path="url(#SVG_CP_2)" fill="none" stroke="#999999" stroke-width="0.96012" stroke-miterlimit="10" stroke-linecap="round" stroke-linejoin="round" d="
				M121.45541,374.4399L121.45541,374.4399"/>
			<path clip-path="url(#SVG_CP_2)" fill="none" stroke="#999999" stroke-width="0.96012" stroke-miterlimit="10" stroke-linecap="round" stroke-linejoin="round" d="
				M121.69544,374.67993L121.45541,374.67993L121.45541,374.4399L121.69544,374.4399L121.69544,374.67993"/>
			<path clip-path="url(#SVG_CP_2)" fill="none" stroke="#999999" stroke-width="0.96012" stroke-miterlimit="10" stroke-linecap="round" stroke-linejoin="round" d="
				M121.69544,374.67993L121.69544,374.67993"/>
			<path clip-path="url(#SVG_CP_2)" fill="none" stroke="#999999" stroke-width="0.96012" stroke-miterlimit="10" stroke-linecap="round" stroke-linejoin="round" d="
				M121.93547,374.91995L121.69544,374.91995L121.69544,374.67993L121.93547,374.67993L121.93547,374.91995"/>
			<path clip-path="url(#SVG_CP_2)" fill="none" stroke="#999999" stroke-width="0.96012" stroke-miterlimit="10" stroke-linecap="round" stroke-linejoin="round" d="
				M121.93547,374.91995L121.93547,374.91995"/>
			<path clip-path="url(#SVG_CP_2)" fill="none" stroke="#999999" stroke-width="0.96012" stroke-miterlimit="10" stroke-linecap="round" stroke-linejoin="round" d="
				M121.93547,375.15998L121.93547,374.91995L121.93547,375.15998"/>
			<path clip-path="url(#SVG_CP_2)" fill="none" stroke="#999999" stroke-width="0.96012" stroke-miterlimit="10" stroke-linecap="round" stroke-linejoin="round" d="
				M122.1755,375.15998L121.93547,375.15998L122.1755,375.15998L122.1755,375.15998"/>
			<path clip-path="url(#SVG_CP_2)" fill="none" stroke="#999999" stroke-width="0.96012" stroke-miterlimit="10" stroke-linecap="round" stroke-linejoin="round" d="
				M122.1755,375.15998L122.1755,375.15998"/>
			<path clip-path="url(#SVG_CP_2)" fill="none" stroke="#999999" stroke-width="0.96012" stroke-miterlimit="10" stroke-linecap="round" stroke-linejoin="round" d="
				M122.41554,375.4L122.1755,375.4L122.1755,375.15998L122.41554,375.15998L122.41554,375.4"/>
			<path clip-path="url(#SVG_CP_2)" fill="none" stroke="#999999" stroke-width="0.96012" stroke-miterlimit="10" stroke-linecap="round" stroke-linejoin="round" d="
				M122.41554,375.4L122.41554,375.4"/>
			<path clip-path="url(#SVG_CP_2)" fill="none" stroke="#999999" stroke-width="0.96012" stroke-miterlimit="10" stroke-linecap="round" stroke-linejoin="round" d="
				M122.65557,375.64003L122.41554,375.64003L122.41554,375.4L122.65557,375.4L122.65557,375.64003"/>
			<path clip-path="url(#SVG_CP_2)" fill="none" stroke="#999999" stroke-width="0.96012" stroke-miterlimit="10" stroke-linecap="round" stroke-linejoin="round" d="
				M122.65557,375.64003L122.65557,375.64003"/>
			<path clip-path="url(#SVG_CP_2)" fill="none" stroke="#999999" stroke-width="0.96012" stroke-miterlimit="10" stroke-linecap="round" stroke-linejoin="round" d="
				M122.65557,375.64003L122.65557,375.64003"/>
			<path clip-path="url(#SVG_CP_2)" fill="none" stroke="#999999" stroke-width="0.96012" stroke-miterlimit="10" stroke-linecap="round" stroke-linejoin="round" d="
				M122.8956,375.88005L122.65557,375.88005L122.65557,375.64003L122.8956,375.64003L122.8956,375.88005"/>
			<path clip-path="url(#SVG_CP_2)" fill="none" stroke="#999999" stroke-width="0.96012" stroke-miterlimit="10" stroke-linecap="round" stroke-linejoin="round" d="
				M122.8956,375.88005L122.8956,375.88005"/>
			<path clip-path="url(#SVG_CP_2)" fill="none" stroke="#999999" stroke-width="0.96012" stroke-miterlimit="10" stroke-linecap="round" stroke-linejoin="round" d="
				M123.13563,376.12008L122.8956,376.12008L122.8956,375.88005L123.13563,375.88005L123.13563,376.12008"/>
			<path clip-path="url(#SVG_CP_2)" fill="none" stroke="#999999" stroke-width="0.96012" stroke-miterlimit="10" stroke-linecap="round" stroke-linejoin="round" d="
				M123.13563,376.12008L123.13563,376.12008"/>
			<path clip-path="url(#SVG_CP_2)" fill="none" stroke="#999999" stroke-width="0.96012" stroke-miterlimit="10" stroke-linecap="round" stroke-linejoin="round" d="
				M123.37566,376.36011L123.13563,376.36011L123.13563,376.12008L123.37566,376.12008L123.37566,376.36011"/>
			<path clip-path="url(#SVG_CP_2)" fill="none" stroke="#999999" stroke-width="0.96012" stroke-miterlimit="10" stroke-linecap="round" stroke-linejoin="round" d="
				M123.37566,376.36011L123.37566,376.36011"/>
			<path clip-path="url(#SVG_CP_2)" fill="none" stroke="#999999" stroke-width="0.96012" stroke-miterlimit="10" stroke-linecap="round" stroke-linejoin="round" d="
				M123.37566,376.36011L123.37566,376.36011"/>
			<path clip-path="url(#SVG_CP_2)" fill="none" stroke="#999999" stroke-width="0.96012" stroke-miterlimit="10" stroke-linecap="round" stroke-linejoin="round" d="
				M123.61569,376.60013L123.37566,376.60013L123.37566,376.36011L123.61569,376.36011L123.61569,376.60013"/>
			<path clip-path="url(#SVG_CP_2)" fill="none" stroke="#999999" stroke-width="0.96012" stroke-miterlimit="10" stroke-linecap="round" stroke-linejoin="round" d="
				M123.61569,376.60013L123.61569,376.60013"/>
			<path clip-path="url(#SVG_CP_2)" fill="none" stroke="#999999" stroke-width="0.96012" stroke-miterlimit="10" stroke-linecap="round" stroke-linejoin="round" d="
				M123.85572,376.84016L123.61569,376.84016L123.61569,376.60013L123.85572,376.60013L123.85572,376.84016"/>
			<path clip-path="url(#SVG_CP_2)" fill="none" stroke="#999999" stroke-width="0.96012" stroke-miterlimit="10" stroke-linecap="round" stroke-linejoin="round" d="
				M123.85572,376.84016L123.85572,376.84016"/>
			<path clip-path="url(#SVG_CP_2)" fill="none" stroke="#999999" stroke-width="0.96012" stroke-miterlimit="10" stroke-linecap="round" stroke-linejoin="round" d="
				M123.85572,376.84016L123.85572,376.84016"/>
			<path clip-path="url(#SVG_CP_2)" fill="none" stroke="#999999" stroke-width="0.96012" stroke-miterlimit="10" stroke-linecap="round" stroke-linejoin="round" d="
				M124.09575,377.08018L123.85572,377.08018L123.85572,376.84016L124.09575,376.84016L124.09575,377.08018"/>
			<path clip-path="url(#SVG_CP_2)" fill="none" stroke="#999999" stroke-width="0.96012" stroke-miterlimit="10" stroke-linecap="round" stroke-linejoin="round" d="
				M124.09575,377.08018L124.09575,377.08018"/>
			<path clip-path="url(#SVG_CP_2)" fill="none" stroke="#999999" stroke-width="0.96012" stroke-miterlimit="10" stroke-linecap="round" stroke-linejoin="round" d="
				M124.33578,377.32021L124.09575,377.32021L124.09575,377.08018L124.33578,377.08018L124.33578,377.32021"/>
			<path clip-path="url(#SVG_CP_2)" fill="none" stroke="#999999" stroke-width="0.96012" stroke-miterlimit="10" stroke-linecap="round" stroke-linejoin="round" d="
				M124.33578,377.32021L124.33578,377.32021"/>
			<path clip-path="url(#SVG_CP_2)" fill="none" stroke="#999999" stroke-width="0.96012" stroke-miterlimit="10" stroke-linecap="round" stroke-linejoin="round" d="
				M124.57581,377.56023L124.33578,377.56023L124.33578,377.32021L124.57581,377.32021L124.57581,377.56023"/>
			<path clip-path="url(#SVG_CP_2)" fill="none" stroke="#999999" stroke-width="0.96012" stroke-miterlimit="10" stroke-linecap="round" stroke-linejoin="round" d="
				M138.25755,391.48172L138.25755,391.24169L138.01752,391.24169L138.01752,391.00167L137.77748,391.00167L137.77748,390.76164
				L137.53745,390.76164L137.53745,390.52161L137.29742,390.52161L137.29742,390.28159L137.05739,390.28159L137.05739,390.04156
				L136.81736,390.04156L136.81736,389.80154L136.57733,389.80154L136.57733,389.56151L136.3373,389.56151L136.3373,389.32149L136.09727,389.32149
				L136.09727,389.08146L135.85724,389.08146L135.85724,388.84144L135.61721,388.84144L135.61721,388.60141L135.37718,388.60141
				L135.37718,388.36138L135.13715,388.36138L135.13715,388.12136L134.89712,388.12136L134.89712,387.88133L134.65709,387.88133
				L134.65709,387.64131L134.41706,387.64131L134.41706,387.40128L134.17703,387.40128L134.17703,387.16126L133.937,387.16126L133.937,386.92123
				L133.69697,386.92123L133.69697,386.68121L133.45694,386.68121L133.45694,386.44118L133.21691,386.44118L133.21691,386.20115
				L132.97688,386.20115L132.97688,385.96113L132.73685,385.96113L132.73685,385.7211L132.49681,385.7211L132.49681,385.48108L132.25678,385.48108
				L132.25678,385.24105L132.01675,385.24105L132.01675,385.00103L131.77672,385.00103L131.77672,384.761L131.53669,384.761L131.53669,384.52098
				L131.29666,384.52098L131.29666,384.28095L131.05663,384.28095L131.05663,384.04092L130.8166,384.04092L130.8166,383.8009L130.57657,383.8009
				L130.57657,383.56087L130.33654,383.56087L130.33654,383.32085L130.09651,383.32085L130.09651,383.08082L129.85648,383.08082
				L129.85648,382.8408L129.61645,382.8408L129.61645,382.60077L129.37642,382.60077L129.37642,382.36075L129.13639,382.36075L129.13639,382.12072
				L128.89636,382.12072L128.89636,381.88069L128.65633,381.88069L128.65633,381.64067L128.4163,381.64067L128.4163,381.40064L128.17627,381.40064
				L128.17627,381.16062L127.93624,381.16062L127.93624,380.92059L127.69621,380.92059L127.69621,380.68057L127.45618,380.68057
				L127.45618,380.44054L127.21614,380.44054L127.21614,380.20051L126.97611,380.20051L126.97611,379.96049L126.73608,379.96049
				L126.73608,379.72046L126.49605,379.72046L126.49605,379.48044L126.25602,379.48044L126.25602,379.24041L126.01599,379.24041
				L126.01599,379.00039L125.77596,379.00039L125.77596,378.76036L125.53593,378.76036L125.53593,378.52034L125.2959,378.52034L
				125.2959,378.28031L125.05587,378.28031L125.05587,378.04028L124.81584,378.04028L124.81584,377.80026L124.57581,377.80026L124.57581,377.56023
				L124.81584,377.56023L124.81584,377.80026L125.05587,377.80026L125.05587,378.04028L125.2959,378.04028L125.2959,378.28031L125.53593,378.28031
				L125.53593,378.52034L125.77596,378.52034L125.77596,378.76036L126.01599,378.76036L126.01599,379.00039L126.25602,379.00039
				L126.25602,379.24041L126.49605,379.24041L126.49605,379.48044L126.73608,379.48044L126.73608,379.72046L126.97611,379.72046
				L126.97611,379.96049L127.21614,379.96049L127.21614,380.20051L127.45618,380.20051L127.45618,380.44054L127.69621,380.44054
				L127.69621,380.68057L127.93624,380.68057L127.93624,380.92059L128.17627,380.92059L128.17627,381.16062L128.4163,381.16062L
				128.4163,381.40064L128.65633,381.40064L128.65633,381.64067L128.89636,381.64067L128.89636,381.88069L129.13639,381.88069L129.13639,382.12072
				L129.37642,382.12072L129.37642,382.36075L129.61645,382.36075L129.61645,382.60077L129.85648,382.60077L129.85648,382.8408L
				130.09651,382.8408L130.09651,383.08082L130.33654,383.08082L130.33654,383.32085L130.57657,383.32085L130.57657,383.56087L130.8166,383.56087
				L130.8166,383.8009L131.05663,383.8009L131.05663,384.04092L131.29666,384.04092L131.29666,384.28095L131.53669,384.28095L131.53669,384.52098
				L131.77672,384.52098L131.77672,384.761L132.01675,384.761L132.01675,385.00103L132.25678,385.00103L132.25678,385.24105L132.49681,385.24105
				L132.49681,385.48108L132.73685,385.48108L132.73685,385.7211L132.97688,385.7211L132.97688,385.96113L133.21691,385.96113L133.21691,386.20115
				L133.45694,386.20115L133.45694,386.44118L133.69697,386.44118L133.69697,386.68121L133.937,386.68121L133.937,386.92123L134.17703,386.92123
				L134.17703,387.16126L134.41706,387.16126L134.41706,387.40128L134.65709,387.40128L134.65709,387.64131L134.89712,387.64131
				L134.89712,387.88133L135.13715,387.88133L135.13715,388.12136L135.37718,388.12136L135.37718,388.36138L135.61721,388.36138
				L135.61721,388.60141L135.85724,388.60141L135.85724,388.84144L136.09727,388.84144L136.09727,389.08146L136.3373,389.08146L
				136.3373,389.32149L136.57733,389.32149L136.57733,389.56151L136.81736,389.56151L136.81736,389.80154L137.05739,389.80154L137.05739,390.04156
				L137.29742,390.04156L137.29742,390.28159L137.53745,390.28159L137.53745,390.52161L137.77748,390.52161L137.77748,390.76164
				L138.01752,390.76164L138.01752,391.00167L138.25755,391.00167L138.25755,391.24169L138.49758,391.24169L138.49758,391.48172
				L138.25755,391.48172"/>
			<path clip-path="url(#SVG_CP_2)" fill="none" stroke="#999999" stroke-width="0.96012" stroke-miterlimit="10" stroke-linecap="round" stroke-linejoin="round" d="
				M171.14172,397.96241L170.90169,397.96241L170.90169,397.72238L170.66166,397.72238L170.66166,397.48236L170.42163,397.48236
				L170.42163,397.24233L170.1816,397.24233L170.1816,397.00231L169.94157,397.00231L169.94157,396.76228L169.70154,396.76228L169.70154,396.52225
				L169.46151,396.52225L169.46151,396.28223L169.22148,396.28223L169.22148,396.0422L168.98144,396.0422L168.98144,395.80218L168.74141,395.80218
				L168.74141,395.56215L168.50138,395.56215L168.50138,395.32213L168.26135,395.32213L168.26135,395.0821L168.02132,395.0821L168.02132,394.84208
				L167.78129,394.84208L167.78129,394.60205L167.54126,394.60205L167.54126,394.36202L167.30123,394.36202L167.30123,394.122L167.0612,394.122
				L167.0612,393.88197L166.82117,393.88197L166.82117,393.64195L166.58114,393.64195L166.58114,393.40192L166.34111,393.40192L
				166.34111,393.1619L166.10108,393.1619L164.90093,393.1619L164.90093,392.92187L164.6609,392.92187L164.6609,392.68185L163.46074,392.68185
				L162.98068,392.68185L162.98068,392.44182L162.74065,392.44182L162.74065,392.20179L162.50062,392.20179L162.50062,391.96177
				L162.26059,391.96177L162.26059,391.72174L162.02056,391.72174L162.02056,391.48172L161.78053,391.48172L161.30047,391.48172
				L161.30047,391.24169L153.85953,391.24169L150.97916,391.24169L150.73913,391.24169L150.73913,391.48172L150.4991,391.48172L
				150.01904,391.48172L150.01904,391.72174L141.858,391.72174L141.858,391.48172L139.69773,391.48172L138.73761,391.48172L138.73761,391.24169
				L138.49758,391.24169L138.49758,391.00167L138.25755,391.00167L138.01752,391.00167L138.01752,390.76164L138.01752,390.52161
				L137.77748,390.52161L137.53745,390.52161L137.53745,390.28159L137.53745,390.04156L137.29742,390.04156L137.29742,389.80154
				L137.05739,389.80154L136.81736,389.80154L136.81736,389.56151L136.81736,389.32149L136.57733,389.32149L136.3373,389.32149L
				136.3373,389.08146L136.3373,388.84144L136.09727,388.84144L136.09727,388.60141L135.85724,388.60141L135.61721,388.60141L135.61721,388.36138
				L135.61721,388.12136L135.37718,388.12136L135.13715,388.12136L135.13715,387.88133L134.89712,387.88133L134.89712,387.64131
				L134.89712,387.40128L134.65709,387.40128L134.41706,387.40128L134.41706,387.16126L134.41706,386.92123L134.17703,386.92123
				L134.17703,386.68121L133.937,386.68121L133.69697,386.68121L133.69697,386.44118L133.69697,386.20115L133.45694,386.20115L133.21691,386.20115
				L133.21691,385.96113L133.21691,385.7211L132.97688,385.7211L132.97688,385.48108L132.73685,385.48108L132.49681,385.48108L132.49681,385.24105
				L132.49681,385.00103L132.25678,385.00103L132.01675,385.00103L132.01675,384.761L132.01675,384.52098L131.77672,384.52098L131.77672,384.28095
				L131.53669,384.28095L131.29666,384.28095L131.29666,384.04092L131.29666,383.8009L131.05663,383.8009L130.8166,383.8009L130.8166,383.56087
				L130.57657,383.56087L130.57657,383.32085L130.57657,383.08082L130.33654,383.08082L130.09651,383.08082L130.09651,382.8408L
				130.09651,382.60077L129.85648,382.60077L129.85648,382.36075L129.61645,382.36075L129.37642,382.36075L129.37642,382.12072L
				129.37642,381.88069L129.13639,381.88069L128.89636,381.88069L128.89636,381.64067L128.89636,381.40064L128.65633,381.40064L
				128.65633,381.16062L128.4163,381.16062L128.17627,381.16062L128.17627,380.92059L128.17627,380.68057L127.93624,380.68057L127.69621,380.68057
				L127.69621,380.44054L127.69621,380.20051L127.45618,380.20051L127.45618,379.96049L127.21614,379.96049L126.97611,379.96049
				L126.97611,379.72046L126.97611,379.48044L126.73608,379.48044L126.49605,379.48044L126.49605,379.24041L126.25602,379.24041
				L126.25602,379.00039L126.25602,378.76036L126.01599,378.76036L125.77596,378.76036L125.77596,378.52034L125.77596,378.28031
				L125.53593,378.28031L125.53593,378.04028L125.2959,378.04028L125.05587,378.04028L125.05587,377.80026L125.05587,377.56023L
				124.81584,377.56023L124.57581,377.56023L124.57581,377.32021L124.57581,377.08018L124.33578,377.08018L124.33578,376.84016L
				124.09575,376.84016L123.85572,376.84016L123.85572,376.60013L123.85572,376.36011L123.61569,376.36011L123.37566,376.36011L
				123.37566,376.12008L123.13563,376.12008L123.13563,375.88005L122.8956,375.88005L122.8956,375.64003L122.65557,375.64003L122.65557,375.4
				L122.41554,375.4L122.41554,375.15998L122.1755,375.15998L122.1755,374.91995L121.93547,374.91995L121.93547,374.67993L121.69544,374.67993
				L121.69544,374.4399L121.45541,374.4399L121.45541,374.19988L121.21538,374.19988L121.21538,373.95985L120.97535,373.95985L120.97535,373.71982
				L120.73532,373.71982L120.73532,373.4798L120.49529,373.4798L120.49529,373.23977L120.25526,373.23977L120.25526,372.99975L120.01523,372.99975
				L120.01523,372.75972L119.7752,372.75972L119.7752,372.5197L119.53517,372.5197L119.53517,372.27967L119.29514,372.27967L119.29514,372.03965
				L119.05511,372.03965L119.05511,371.79962L118.81508,371.79962L118.81508,371.55959L118.57505,371.55959L118.57505,371.31957
				L118.33502,371.31957L118.33502,371.07954L118.09499,371.07954L118.09499,370.83952L117.85496,370.83952L117.85496,370.59949
				L117.13487,370.59949L116.89483,370.59949L116.89483,370.35947L116.6548,370.35947L116.41477,370.35947L116.41477,370.11944L
				116.17474,370.11944L115.93471,370.11944L115.93471,369.87942L115.69468,369.87942L115.69468,369.63939L115.45465,369.63939L
				115.21462,369.63939L115.21462,369.39936L114.97459,369.39936L114.73456,369.39936L114.73456,369.15934L114.49453,369.15934L
				114.49453,368.91931L114.2545,368.91931L114.01447,368.91931L114.01447,368.67929L113.05435,368.67929L112.81432,368.67929L112.81432,368.43926
				L112.57429,368.43926L112.33426,368.43926L112.33426,368.19924L112.09423,368.19924L111.8542,368.19924L111.8542,367.95921L111.61416,367.95921
				L111.37413,367.95921L111.37413,367.71918L111.1341,367.71918L110.89407,367.71918L110.65404,367.71918L110.65404,367.47916L
				110.41401,367.47916L110.41401,367.23913L110.17398,367.23913L109.93395,367.23913L109.93395,366.99911L109.69392,366.99911L
				109.45389,366.99911L109.45389,366.75908L109.21386,366.75908L109.21386,366.51906L108.97383,366.51906L108.97383,366.27903L
				108.7338,366.27903L108.7338,366.03901L108.49377,366.03901L108.49377,365.79898L108.25374,365.79898L108.01371,365.79898L107.77368,365.79898
				L107.77368,365.55895L107.53365,365.55895L107.53365,365.31893L107.29362,365.31893L107.05359,365.31893L107.05359,365.0789L
				106.81356,365.0789L106.57352,365.0789L106.57352,364.83888L106.33349,364.83888L106.09346,364.83888L106.09346,364.59885L105.85343,364.59885
				L105.6134,364.59885L105.37337,364.59885L105.37337,364.35883L105.13334,364.35883L105.13334,364.1188L104.89331,364.1188L104.89331,363.87878
				L104.65328,363.87878L104.41325,363.87878L104.41325,363.63875L104.17322,363.63875L104.17322,363.39872L103.93319,363.39872
				L103.93319,363.1587L103.69316,363.1587L103.45313,363.1587L103.45313,362.91867L103.2131,362.91867L102.97307,362.91867L102.97307,362.67865
				L102.49301,362.67865L102.25298,362.67865L102.25298,362.43862L102.01295,362.43862L102.01295,362.1986L101.77292,362.1986L101.53289,362.1986
				L101.29285,362.1986L101.29285,361.95857L101.05282,361.95857L100.81279,361.95857L100.81279,361.71855L100.57276,361.71855L
				100.57276,361.47852L100.33273,361.47852L100.0927,361.47852L99.85267,361.47852L99.85267,361.23849L99.61264,361.23849L99.37261,361.23849
				L99.37261,360.99847L99.13258,360.99847L99.13258,360.75844L98.89255,360.75844L98.65252,360.75844L98.65252,360.51842L98.41249,360.51842
				L98.41249,360.27839L98.17246,360.27839L97.93243,360.27839L97.93243,360.03837L97.6924,360.03837L97.6924,359.79834L97.45237,359.79834
				L97.45237,359.55832L97.21234,359.55832L96.97231,359.55832L96.73228,359.55832L96.73228,359.31829L96.49225,359.31829L96.49225,359.07826
				L96.25222,359.07826L96.25222,358.83824L96.01218,358.83824L95.77215,358.83824L95.77215,358.59821L95.53212,358.59821L95.29209,358.59821
				L95.29209,358.35819L95.05206,358.35819L94.81203,358.35819L94.81203,358.11816L94.572,358.11816L94.33197,358.11816L94.33197,357.87814
				L93.85191,357.87814L93.61188,357.87814L93.13182,357.87814L93.13182,357.63811L90.73151,357.63811L90.73151,357.87814L90.01142,357.87814
				L89.53136,357.87814L88.81127,357.87814L88.81127,358.11816L88.33121,358.11816L87.85115,358.11816L87.85115,358.35819L87.13106,358.35819
				L86.651,358.35819L86.17094,358.35819L86.17094,358.59821L85.45084,358.59821L84.97078,358.59821L84.97078,358.83824L84.49072,358.83824
				L83.77063,358.83824L83.77063,359.07826L83.29057,359.07826L82.81051,359.07826L82.33045,359.07826L82.33045,359.31829L81.85039,359.31829
				L81.37033,359.31829L81.37033,359.55832L80.65024,359.55832L80.17017,359.55832L79.45008,359.55832L79.45008,359.79834L78.97002,359.79834
				L78.48996,359.79834L78.48996,360.03837L78.0099,360.03837L77.52984,360.03837L77.52984,360.27839L77.04978,360.27839L76.56972,360.27839
				L76.08966,360.27839L76.08966,360.51842L75.6096,360.51842L75.12953,360.51842L75.12953,360.75844L74.64947,360.75844L73.92938,360.75844
				L73.20929,360.75844L73.20929,360.99847L72.4892,360.99847L71.76911,360.99847L71.76911,361.23849L71.04902,361.23849L70.32893,361.23849
				L70.32893,361.47852L69.60883,361.47852L69.3688,361.47852L69.12877,361.47852L69.3688,361.47852L69.60883,361.47852L69.60883,361.23849
				L69.84886,361.23849L69.84886,360.99847L70.32893,360.99847L70.32893,360.75844L70.56896,360.75844L70.80899,360.75844L71.04902,360.75844
				L71.04902,360.51842L71.28905,360.51842L71.76911,360.51842L71.76911,360.27839L72.00914,360.27839L72.4892,360.27839L72.4892,360.03837
				L72.72923,360.03837L72.96926,360.03837L72.96926,359.79834L73.20929,359.79834L73.20929,359.55832L73.68935,359.55832L73.92938,359.55832
				L73.92938,359.31829L74.16941,359.31829L74.40944,359.31829L74.40944,359.07826L74.64947,359.07826L75.12953,359.07826L75.12953,358.83824
				L75.36957,358.83824L75.36957,358.59821L75.6096,358.59821L75.84963,358.59821L75.84963,358.35819L76.08966,358.35819L76.32969,358.35819
				L76.32969,358.11816L76.56972,358.11816L76.80975,358.11816L76.80975,357.87814L77.04978,357.87814L77.28981,357.87814L77.52984,357.87814
				L77.52984,357.63811L77.76987,357.63811L78.0099,357.63811L78.0099,357.39809L78.24993,357.39809L78.24993,357.15806L78.48996,357.15806
				L78.97002,357.15806L78.97002,356.91803L79.45008,356.91803L79.45008,356.67801L79.93014,356.67801L80.17017,356.67801L80.17017,356.43798
				L80.65024,356.43798L80.65024,356.19796L81.1303,356.19796L81.37033,356.19796L81.37033,355.95793L81.61036,355.95793L82.09042,355.95793
				L82.33045,355.95793L82.33045,355.71791L82.57048,355.71791L82.81051,355.71791L82.81051,355.47788L83.05054,355.47788L83.29057,355.47788
				L83.29057,355.23785L83.77063,355.23785L84.01066,355.23785L84.49072,355.23785L84.49072,354.99783L84.73075,354.99783L84.97078,354.99783
				L84.97078,354.7578L85.45084,354.7578L85.93091,354.7578L85.93091,354.51778L86.17094,354.51778L86.17094,354.27775L86.41097,354.27775
				L86.651,354.27775L86.651,354.03773L86.89103,354.03773L87.37109,354.03773L87.37109,353.7977L87.61112,353.7977L88.09118,353.7977
				L88.09118,353.55768L88.33121,353.55768L88.81127,353.55768L89.29133,353.55768L89.29133,353.31765L89.77139,353.31765L91.21158,353.31765
				L91.21158,353.07762L91.45161,353.07762L91.93167,353.07762L91.93167,352.8376L92.41173,352.8376L94.09194,352.8376L94.572,352.8376
				L94.572,353.07762L94.81203,353.07762L95.29209,353.07762L95.29209,353.31765L95.77215,353.31765L96.25222,353.31765L96.25222,353.55768
				L96.49225,353.55768L96.97231,353.55768L97.45237,353.55768L97.45237,353.7977L97.93243,353.7977L98.41249,353.7977L98.41249,354.03773
				L98.65252,354.03773L99.13258,354.03773L99.37261,354.03773L99.37261,354.27775L99.85267,354.27775L101.29285,354.27775L101.29285,354.51778
				L101.77292,354.51778L102.01295,354.51778L102.01295,354.7578L102.49301,354.7578L102.97307,354.7578L102.97307,354.99783L103.69316,354.99783
				L104.17322,354.99783L104.17322,355.23785L104.65328,355.23785L105.13334,355.23785L105.37337,355.23785L105.37337,355.47788
				L105.6134,355.47788L105.6134,355.71791L106.09346,355.71791L106.57352,355.71791L106.57352,355.95793L107.05359,355.95793L107.77368,355.95793
				L108.01371,355.95793L108.01371,356.19796L108.7338,356.19796L109.21386,356.19796L109.21386,356.43798L110.41401,356.43798L
				110.65404,356.43798L110.65404,356.67801L110.89407,356.67801L111.1341,356.67801L111.1341,356.91803L111.61416,356.91803L111.61416,357.15806
				L111.8542,357.15806L112.09423,357.15806L112.09423,357.39809L112.33426,357.39809L112.81432,357.39809L112.81432,357.63811L
				113.05435,357.63811L113.77444,357.63811L113.77444,357.87814L114.01447,357.87814L114.49453,357.87814L114.97459,357.87814L
				114.97459,358.11816L115.45465,358.11816L115.93471,358.11816L115.93471,358.35819L116.17474,358.35819L116.41477,358.35819L
				116.89483,358.35819L117.13487,358.35819L117.61493,358.35819L117.85496,358.35819L118.81508,358.35819L119.05511,358.35819L
				120.01523,358.35819L120.01523,358.59821L120.49529,358.59821L120.97535,358.59821L120.97535,358.83824L121.45541,358.83824L
				122.1755,358.83824L122.1755,359.07826L122.65557,359.07826L123.13563,359.07826L123.13563,359.31829L123.37566,359.31829L123.37566,359.55832
				L123.61569,359.55832L123.85572,359.55832L123.85572,359.79834L124.09575,359.79834L124.09575,360.03837L124.33578,360.03837
				L124.33578,360.27839L124.57581,360.27839L124.57581,360.51842L124.81584,360.51842L125.05587,360.51842L125.05587,360.75844
				L125.2959,360.75844L125.53593,360.75844L125.53593,360.99847L125.77596,360.99847L125.77596,361.23849L126.01599,361.23849L
				126.01599,361.47852L126.25602,361.47852L126.49605,361.47852L126.49605,361.71855L126.73608,361.71855L126.73608,361.95857L
				126.97611,361.95857L126.97611,362.1986L127.21614,362.1986L127.21614,362.43862L127.45618,362.43862L127.45618,362.67865L127.69621,362.67865
				L127.69621,362.91867L127.93624,362.91867L127.93624,363.1587L128.17627,363.1587L128.17627,363.39872L128.4163,363.39872L128.4163,363.63875
				L128.65633,363.63875L128.65633,363.87878L128.89636,363.87878L128.89636,364.1188L129.13639,364.1188L129.13639,364.35883L129.13639,364.59885
				L129.37642,364.59885L129.37642,364.83888L129.37642,365.0789L129.61645,365.0789L129.61645,365.31893L129.61645,365.55895L129.85648,365.55895
				L129.85648,365.79898L129.85648,366.03901L130.09651,366.03901L130.09651,366.27903L130.09651,366.51906L130.33654,366.51906
				L130.33654,366.75908L130.57657,366.75908L130.57657,366.99911L130.8166,366.99911L130.8166,367.23913L131.05663,367.23913L131.05663,367.47916
				L131.29666,367.47916L131.29666,367.71918L131.53669,367.71918L131.77672,367.71918L131.77672,367.95921L131.77672,368.19924
				L132.01675,368.19924L132.01675,368.43926L132.25678,368.43926L132.25678,368.67929L132.49681,368.67929L132.49681,368.91931
				L132.49681,369.15934L132.73685,369.15934L132.97688,369.15934L132.97688,369.39936L133.21691,369.39936L133.21691,369.63939
				L133.45694,369.63939L133.45694,369.87942L133.45694,370.11944L133.69697,370.11944L133.69697,370.35947L133.937,370.35947L133.937,370.59949
				L134.17703,370.59949L134.17703,370.83952L134.41706,370.83952L134.41706,371.07954L134.65709,371.07954L134.65709,371.31957
				L134.89712,371.31957L135.13715,371.31957L135.13715,371.55959L135.37718,371.55959L135.37718,371.79962L135.61721,371.79962
				L135.61721,372.03965L135.85724,372.03965L135.85724,372.27967L136.09727,372.27967L136.09727,372.5197L136.3373,372.5197L136.57733,372.5197
				L136.57733,372.75972L136.81736,372.75972L136.81736,372.99975L137.05739,372.99975L137.05739,373.23977L137.29742,373.23977
				L137.29742,373.4798L137.53745,373.4798L137.53745,373.71982L137.77748,373.71982L138.01752,373.71982L138.01752,373.95985L138.25755,373.95985
				L138.25755,374.19988L138.49758,374.19988L138.73761,374.19988L138.73761,374.4399L138.97764,374.4399L139.21767,374.4399L139.21767,374.67993
				L139.4577,374.67993L139.69773,374.67993L139.69773,374.91995L139.93776,374.91995L140.17779,374.91995L140.17779,375.15998L
				140.41782,375.15998L140.65785,375.15998L140.65785,375.4L140.89788,375.4L140.89788,375.64003L141.13791,375.64003L141.37794,375.64003
				L141.37794,375.88005L141.61797,375.88005L141.858,375.88005L141.858,376.12008L141.858,376.36011L142.09803,376.36011L142.33806,376.36011
				L142.33806,376.60013L142.57809,376.60013L142.81812,376.60013L142.81812,376.84016L143.05815,376.84016L143.05815,377.08018
				L143.29819,377.08018L143.53822,377.08018L143.53822,377.32021L143.77825,377.32021L143.77825,377.56023L144.01828,377.56023
				L144.25831,377.56023L144.73837,377.56023L144.73837,377.80026L144.9784,377.80026L144.9784,377.56023L145.45846,377.56023L145.69849,377.56023
				L145.93852,377.56023L146.65861,377.56023L147.61873,377.56023L148.57886,377.56023L148.57886,377.80026L148.81889,377.80026
				L148.81889,377.56023L149.05892,377.56023L149.05892,377.80026L150.4991,377.80026L150.73913,377.80026L150.97916,377.80026L
				151.93928,377.80026L151.93928,378.04028L152.41934,378.04028L152.41934,377.80026L152.8994,377.80026L152.8994,377.56023L153.37946,377.56023
				L153.37946,377.32021L153.6195,377.32021L153.6195,377.08018L153.6195,376.84016L153.85953,376.84016L154.09956,376.84016L154.09956,376.60013
				L154.09956,376.36011L154.33959,376.36011L154.33959,376.12008L154.57962,376.12008L154.57962,375.88005L154.81965,375.88005
				L154.81965,375.64003L155.05968,375.64003L155.05968,375.4L155.29971,375.4L155.29971,375.15998L155.53974,375.15998L155.53974,374.91995
				L155.77977,374.91995L155.77977,374.67993L156.0198,374.67993L156.0198,373.71982L156.0198,373.4798L156.0198,373.23977L156.25983,373.23977
				L156.25983,372.99975L156.49986,372.99975L156.49986,372.75972L156.73989,372.75972L156.73989,372.5197L156.97992,372.5197L157.21995,372.5197
				L157.45998,372.5197L157.45998,372.27967L157.70001,372.27967L157.94004,372.27967L157.94004,372.03965L158.4201,372.03965L158.4201,371.79962
				L158.66013,371.79962L158.90017,371.79962L158.90017,371.55959L159.1402,371.55959L159.1402,371.31957L159.38023,371.31957L159.62026,371.31957
				L159.62026,371.07954L159.86029,371.07954L159.86029,370.83952L160.10032,370.83952L160.10032,370.59949L160.34035,370.59949
				L160.34035,370.35947L160.34035,370.11944L160.58038,370.11944L160.82041,370.11944L160.82041,369.87942L161.06044,369.87942
				L161.30047,369.87942L161.30047,369.63939L161.5405,369.63939L161.5405,369.39936L161.78053,369.39936L162.02056,369.39936L162.02056,369.15934
				L162.26059,369.15934L162.26059,368.91931L162.50062,368.91931L162.74065,368.91931L162.74065,368.67929L162.98068,368.67929
				L163.46074,368.67929L163.46074,368.43926L163.70077,368.43926L163.70077,368.19924L163.94081,368.19924L164.18084,368.19924
				L164.42087,368.19924L164.42087,367.95921L164.6609,367.95921L164.6609,367.71918L165.14096,367.71918L165.38099,367.71918L165.62102,367.71918
				L165.62102,367.47916L165.86105,367.47916L166.10108,367.47916L166.10108,367.23913L166.34111,367.23913L166.58114,367.23913
				L166.58114,366.99911L167.30123,366.99911L168.02132,366.99911L170.90169,366.99911L171.14172,366.99911L171.38175,366.99911
				L171.38175,367.23913L171.62178,367.23913L171.86181,367.23913L171.86181,367.47916L172.10184,367.47916L172.34187,367.47916
				L172.34187,367.71918L173.06196,367.71918L173.30199,367.71918L173.78205,367.71918L173.78205,367.95921L174.02208,367.95921
				L174.02208,368.19924L174.50215,368.19924L174.74218,368.19924L174.74218,368.43926L174.98221,368.43926L175.22224,368.43926
				L175.22224,368.67929L175.46227,368.67929L175.46227,368.91931L175.7023,368.91931L175.94233,368.91931L175.94233,369.15934L
				176.18236,369.15934L176.18236,369.39936L176.18236,369.63939L176.18236,370.11944L176.42239,370.11944L176.42239,370.83952L
				176.66242,370.83952L176.66242,371.07954L176.90245,371.07954L177.14248,371.07954L177.14248,371.31957L177.38251,371.31957L
				177.62254,371.31957L177.62254,371.55959L177.86257,371.55959L178.1026,371.55959L178.1026,371.79962L178.34263,371.79962L178.34263,372.03965
				L178.58266,372.03965L178.82269,372.03965L179.78282,372.03965L179.78282,372.27967L180.02285,372.27967L180.26288,372.27967
				L180.26288,372.5197L180.50291,372.5197L180.74294,372.5197L180.74294,372.75972L180.98297,372.75972L180.98297,372.99975L181.223,372.99975
				L181.223,373.23977L181.223,373.71982L181.46303,373.71982L181.46303,373.95985L181.70306,373.95985L181.70306,374.19988L181.70306,374.4399
				L181.94309,374.4399L181.94309,374.67993L182.18312,374.67993L182.18312,374.91995L182.42315,374.91995L182.42315,375.15998L
				182.42315,375.4L182.66318,375.4L182.66318,375.64003L182.90321,375.64003L182.90321,375.88005L183.14324,375.88005L183.14324,376.12008
				L183.14324,376.36011L183.38327,376.36011L183.38327,376.60013L183.6233,376.60013L183.6233,376.84016L183.86333,376.84016L183.86333,377.08018
				L184.10336,377.08018L184.10336,377.32021L184.10336,377.56023L184.34339,377.56023L184.34339,377.80026L184.58342,377.80026
				L184.58342,378.04028"/>
			<path clip-path="url(#SVG_CP_2)" fill="none" stroke="#999999" stroke-width="0.96012" stroke-miterlimit="10" stroke-linecap="round" stroke-linejoin="round" d="
				M184.58342,378.04028L184.82346,378.04028L184.82346,378.28031L185.06349,378.28031L185.06349,378.52034L185.06349,378.76036
				L185.30352,378.76036L185.54355,378.76036L185.54355,379.00039L185.54355,379.24041L185.78358,379.24041L185.78358,379.48044
				L186.02361,379.48044L186.02361,379.72046L186.26364,379.72046L186.26364,379.96049L186.50367,379.96049L186.50367,380.20051
				L186.7437,380.20051L186.7437,380.44054L186.7437,380.68057L186.98373,380.68057L186.98373,380.92059L187.22376,380.92059L187.22376,381.16062
				L187.46379,381.16062L187.46379,381.40064L187.46379,381.88069L187.70382,381.88069L187.70382,382.8408L187.70382,383.08082L
				187.94385,383.08082L187.94385,383.32085L188.18388,383.32085L188.18388,383.56087L188.18388,383.8009L188.42391,383.8009L188.42391,384.04092
				L188.42391,384.28095L188.66394,384.28095L188.66394,385.7211L188.42391,385.7211L188.42391,385.96113L188.42391,386.20115L188.18388,386.20115
				L188.18388,386.44118L188.18388,386.68121L187.94385,386.68121L187.70382,386.68121L187.70382,386.92123L187.70382,387.40128
				L187.46379,387.40128L187.46379,387.88133L187.46379,388.12136L187.22376,388.12136L187.22376,388.36138L186.98373,388.36138
				L186.98373,388.60141L186.98373,388.84144L186.7437,388.84144L186.7437,389.08146L186.7437,389.32149L186.50367,389.32149L186.50367,389.56151
				L186.26364,389.56151L186.26364,389.80154L186.26364,390.04156L186.26364,390.28159L186.02361,390.28159L186.02361,390.52161
				L186.02361,390.76164L185.78358,390.76164L185.78358,391.00167L185.54355,391.00167L185.54355,391.24169L185.54355,391.72174
				L185.78358,391.72174L185.78358,392.20179L185.78358,392.68185L186.02361,392.68185L186.02361,392.92187L186.02361,393.1619L
				186.26364,393.1619L186.26364,393.40192L186.26364,393.64195L186.50367,393.64195L186.50367,394.60205L186.50367,395.56215L186.7437,395.56215
				L186.7437,396.0422L186.7437,396.28223L186.98373,396.28223L186.98373,396.52225L187.22376,396.52225L187.46379,396.52225L187.46379,396.76228
				L187.70382,396.76228L187.70382,397.00231L187.94385,397.00231L187.94385,397.24233L188.18388,397.24233L188.18388,397.48236
				L188.18388,397.72238L188.42391,397.72238L188.42391,397.96241L188.42391,398.20243L188.66394,398.20243L188.66394,398.44246
				L188.66394,398.68248L188.66394,399.16254L188.90397,399.16254L188.90397,399.40256L189.144,399.40256L189.144,399.64259L189.144,399.88261
				L189.38403,399.88261L189.38403,400.12264L189.38403,400.36266L189.62406,400.36266L189.62406,400.60269L189.62406,400.84271
				L189.86409,400.84271L189.86409,401.08274L189.86409,401.32277L189.86409,401.56279L190.10413,401.56279L190.10413,401.80282
				L190.10413,402.04284L190.34416,402.04284L190.34416,402.28287L190.58419,402.28287L190.58419,402.52289L190.58419,402.76292
				L190.58419,403.00294L190.82422,403.00294L190.82422,403.24297L190.82422,403.483L191.06425,403.483L191.06425,403.72302L190.82422,403.72302
				L190.58419,403.72302L190.58419,403.483L190.34416,403.483L190.10413,403.483L189.86409,403.483L189.86409,403.24297L189.38403,403.24297
				L189.38403,403.00294L189.144,403.00294L189.144,402.76292L188.90397,402.76292L188.66394,402.76292L188.42391,402.76292L188.42391,402.52289
				L188.18388,402.52289L187.94385,402.52289L187.94385,402.28287L187.70382,402.28287L187.46379,402.28287L187.46379,402.04284
				L186.98373,402.04284L186.7437,402.04284L186.7437,401.80282L186.50367,401.80282L186.50367,401.56279L186.26364,401.56279L186.02361,401.56279
				L185.78358,401.56279L185.78358,401.32277L185.54355,401.32277L185.30352,401.32277L185.30352,401.08274L185.06349,401.08274
				L185.06349,400.84271L184.82346,400.84271L184.58342,400.84271L184.34339,400.84271L184.34339,400.60269L184.10336,400.60269
				L183.86333,400.60269L183.86333,400.36266L183.6233,400.36266L183.38327,400.36266L183.14324,400.36266L183.14324,400.12264L
				182.90321,400.12264L182.90321,399.88261L182.66318,399.88261L182.42315,399.88261L182.42315,399.64259L182.18312,399.64259L
				182.18312,399.16254L182.18312,398.92251L181.94309,398.92251L181.94309,398.44246L181.94309,398.20243L181.94309,397.96241L
				181.70306,397.96241L181.70306,397.48236L181.70306,397.00231L181.46303,397.00231L181.46303,396.76228L181.46303,396.52225L
				181.223,396.52225L181.223,396.28223L181.223,396.0422L181.223,395.80218L180.98297,395.80218L180.98297,395.56215L180.98297,395.32213
				L180.74294,395.32213L180.74294,395.0821L180.74294,394.84208L180.74294,394.60205L180.50291,394.60205L180.50291,394.36202L
				180.50291,394.122L180.26288,394.122L180.26288,393.88197L180.26288,392.68185L180.02285,392.68185L180.02285,392.44182L180.26288,392.44182
				L180.26288,392.20179L180.26288,391.96177L180.50291,391.96177L180.50291,391.72174L180.50291,391.48172L180.74294,391.48172
				L180.74294,391.00167L180.74294,390.76164L181.223,390.76164L181.223,390.52161L181.223,390.28159L181.46303,390.28159L181.46303,390.04156
				L181.46303,389.80154L181.70306,389.80154L181.70306,389.56151L181.70306,389.32149L181.94309,389.32149L181.94309,389.08146
				L181.94309,388.84144L181.94309,388.60141L182.18312,388.60141L182.18312,388.36138L182.18312,388.12136L182.42315,388.12136
				L182.42315,387.64131L182.42315,387.40128L182.66318,387.40128L182.66318,387.16126L182.90321,387.16126L182.90321,386.92123
				L182.90321,386.68121L183.14324,386.68121L183.14324,386.44118L183.14324,386.20115L183.14324,385.96113L183.38327,385.96113
				L183.38327,385.7211L183.38327,385.48108L183.6233,385.48108L183.38327,385.48108L183.14324,385.48108L183.14324,385.24105L182.90321,385.24105
				L182.66318,385.24105L182.66318,385.00103L182.42315,385.00103L182.18312,385.00103L181.94309,385.00103L181.94309,384.761L181.70306,384.761
				L181.70306,384.52098L181.46303,384.52098L181.223,384.52098L181.223,384.28095L180.98297,384.28095L180.74294,384.28095L180.74294,384.04092
				L180.26288,384.04092L180.02285,384.04092L180.02285,383.8009L179.78282,383.8009L179.54278,383.8009L179.54278,383.56087L179.30275,383.56087
				L179.30275,384.04092L179.30275,385.48108L179.06272,385.48108L179.06272,386.68121L179.06272,387.64131L178.82269,387.64131
				L178.82269,388.12136L178.82269,389.08146L178.82269,389.80154L178.58266,389.80154L178.58266,390.52161L178.58266,391.00167
				L178.34263,391.00167L178.34263,391.72174L178.34263,392.20179L178.1026,392.20179L178.1026,392.44182L178.1026,392.68185L178.1026,392.92187
				L177.86257,392.92187L177.86257,393.1619L177.62254,393.1619L177.62254,393.40192L177.62254,393.64195L177.62254,393.88197L177.38251,393.88197
				L177.38251,394.122L177.38251,394.36202L177.14248,394.36202L177.14248,394.60205L177.14248,394.84208L176.90245,394.84208L176.90245,395.0821
				L176.90245,395.32213L176.90245,395.56215L176.66242,395.56215L176.66242,395.80218L176.66242,396.0422L176.42239,396.0422L176.42239,396.28223
				L175.94233,396.28223L175.94233,396.0422L175.7023,396.0422L175.22224,396.0422L174.98221,396.0422L174.98221,395.80218L174.50215,395.80218
				L174.50215,396.0422L174.50215,396.76228L174.50215,397.48236L174.74218,397.48236L174.74218,397.96241L174.50215,397.96241L
				174.02208,397.96241L174.02208,397.72238L173.78205,397.72238L173.06196,397.72238L172.5819,397.72238L172.5819,397.96241L171.86181,397.96241
				L171.14172,397.96241"/>
			<path clip-path="url(#SVG_CP_2)" fill="none" stroke="#999999" stroke-width="0.96012" stroke-miterlimit="10" stroke-linecap="round" stroke-linejoin="round" d="
				M104.65328,363.87878L104.65328,364.1188L104.89331,364.1188L104.89331,364.35883L105.13334,364.35883L105.37337,364.35883L105.37337,364.59885
				L105.6134,364.59885L105.85343,364.59885L105.85343,364.83888L106.09346,364.83888L106.09346,365.0789L106.33349,365.0789L106.57352,365.0789
				L106.57352,365.31893L106.81356,365.31893L107.05359,365.31893L107.05359,365.55895L107.29362,365.55895L107.29362,365.79898
				L107.53365,365.79898L107.77368,365.79898L107.77368,366.03901L108.01371,366.03901L108.01371,366.27903L108.25374,366.27903
				L108.49377,366.27903L108.49377,366.51906L108.7338,366.51906L108.97383,366.51906L108.97383,366.75908L109.21386,366.75908L
				109.21386,366.99911L109.45389,366.99911L109.69392,366.99911L109.69392,367.23913L109.93395,367.23913L110.17398,367.23913L
				110.17398,367.47916L110.41401,367.47916L110.41401,367.71918L110.65404,367.71918L110.89407,367.71918L110.89407,367.95921L
				111.1341,367.95921L111.61416,367.95921L111.61416,368.19924L111.8542,368.19924L112.09423,368.19924L112.09423,368.43926L112.33426,368.43926
				L112.57429,368.43926L112.57429,368.67929L112.81432,368.67929L112.81432,368.91931L113.05435,368.91931L113.29438,368.91931
				L113.53441,368.91931L113.53441,369.15934L113.77444,369.15934L114.01447,369.15934L114.01447,369.39936L114.2545,369.39936L
				114.49453,369.39936L114.73456,369.39936L114.73456,369.63939L114.97459,369.63939L115.21462,369.63939L115.21462,369.87942L
				115.45465,369.87942L115.45465,370.11944L115.93471,370.11944L116.17474,370.11944L116.17474,370.35947L116.41477,370.35947L
				116.6548,370.35947L116.6548,370.59949L116.89483,370.59949L117.13487,370.59949L117.13487,370.83952L117.3749,370.83952L117.61493,370.83952
				L117.85496,370.83952L117.85496,371.07954L118.09499,371.07954L118.09499,371.31957L118.33502,371.31957L118.33502,371.55959
				L118.57505,371.55959L118.57505,371.79962L118.81508,371.79962L118.81508,372.03965L119.05511,372.03965L119.05511,372.27967
				L119.29514,372.27967L119.29514,372.5197L119.53517,372.5197L119.53517,372.75972L119.7752,372.75972L119.7752,372.99975L120.01523,372.99975
				L120.01523,373.23977L120.25526,373.23977L120.25526,373.4798L120.49529,373.4798L120.49529,373.71982L120.73532,373.71982L120.73532,373.95985
				L120.97535,373.95985L120.97535,374.19988L121.21538,374.19988L121.21538,374.4399L121.45541,374.4399L121.45541,374.67993L121.69544,374.67993
				L121.69544,374.91995L121.93547,374.91995L121.93547,375.15998L122.1755,375.15998L122.1755,375.4L122.41554,375.4L122.41554,375.64003
				L122.65557,375.64003L122.65557,375.88005L122.8956,375.88005L122.8956,376.12008L123.13563,376.12008L123.13563,376.36011L123.37566,376.36011
				L123.37566,376.60013L123.61569,376.60013L123.61569,376.84016L123.85572,376.84016L123.85572,377.08018L124.09575,377.08018
				L124.09575,377.32021L124.33578,377.32021L124.33578,377.56023L124.57581,377.56023L124.57581,377.80026L124.81584,377.80026
				L124.81584,378.04028L125.05587,378.04028L125.05587,378.28031L125.2959,378.28031L125.2959,378.52034L125.53593,378.52034L125.53593,378.76036
				L125.77596,378.76036L125.77596,379.00039L126.01599,379.00039L126.01599,379.24041L126.25602,379.24041L126.25602,379.48044
				L126.49605,379.48044L126.49605,379.72046L126.73608,379.72046L126.73608,379.96049L126.97611,379.96049L126.97611,380.20051
				L127.21614,380.20051L127.21614,380.44054L127.45618,380.44054L127.45618,380.68057L127.69621,380.68057L127.69621,380.92059
				L127.93624,380.92059L127.93624,381.16062L128.17627,381.16062L128.17627,381.40064L128.4163,381.40064L128.4163,381.64067L128.65633,381.64067
				L128.65633,381.88069L128.89636,381.88069L128.89636,382.12072L129.13639,382.12072L129.13639,382.36075L129.37642,382.36075
				L129.37642,382.60077L129.61645,382.60077L129.61645,382.8408L129.85648,382.8408L129.85648,383.08082L130.09651,383.08082L130.09651,383.32085
				L130.33654,383.32085L130.33654,383.56087L130.57657,383.56087L130.57657,383.8009L130.8166,383.8009L130.8166,384.04092L131.05663,384.04092
				L131.05663,384.28095L131.29666,384.28095L131.29666,384.52098L131.53669,384.52098L131.53669,384.761L131.77672,384.761L131.77672,385.00103
				L132.01675,385.00103L132.01675,385.24105L132.25678,385.24105L132.25678,385.48108L132.49681,385.48108L132.49681,385.7211L
				132.73685,385.7211L132.73685,385.96113L132.97688,385.96113L132.97688,386.20115L133.21691,386.20115L133.21691,386.44118L133.45694,386.44118
				L133.45694,386.68121L133.69697,386.68121L133.69697,386.92123L133.937,386.92123L133.937,387.16126L134.17703,387.16126L134.17703,387.40128
				L134.41706,387.40128L134.41706,387.64131L134.65709,387.64131L134.65709,387.88133L134.89712,387.88133L134.89712,388.12136
				L135.13715,388.12136L135.13715,388.36138L135.37718,388.36138L135.37718,388.60141L135.61721,388.60141L135.61721,388.84144
				L135.85724,388.84144L135.85724,389.08146L136.09727,389.08146L136.09727,389.32149L136.3373,389.32149L136.3373,389.56151L136.57733,389.56151
				L136.57733,389.80154L136.81736,389.80154L136.81736,390.04156L137.05739,390.04156L137.05739,390.28159L137.29742,390.28159
				L137.29742,390.52161L137.53745,390.52161L137.53745,390.76164L137.77748,390.76164L137.77748,391.00167L138.01752,391.00167
				L138.01752,391.24169L138.25755,391.24169L138.25755,391.48172L138.49758,391.48172L138.49758,391.72174L152.17931,391.72174
				L152.65937,391.72174L152.65937,391.48172L152.8994,391.48172L153.37946,391.48172L153.37946,391.24169L153.85953,391.24169L
				153.85953,391.48172L161.30047,391.48172L161.30047,391.72174L161.5405,391.72174L161.5405,391.96177L161.78053,391.96177L162.26059,391.96177
				L162.26059,392.20179L162.50062,392.20179L162.50062,392.44182L162.74065,392.44182L162.74065,392.68185L162.98068,392.68185
				L163.46074,392.68185L163.46074,392.92187L163.70077,392.92187L164.6609,392.92187L164.6609,393.1619L164.90093,393.1619L164.90093,393.40192
				L166.34111,393.40192L166.58114,393.40192L166.58114,393.64195L166.82117,393.64195L166.82117,393.88197L167.0612,393.88197L
				167.0612,394.122L167.30123,394.122L167.30123,394.36202L167.54126,394.36202L167.54126,394.60205L167.78129,394.60205L167.78129,394.84208
				L168.02132,394.84208L168.02132,395.0821L168.26135,395.0821L168.26135,395.32213L168.50138,395.32213L168.50138,395.56215L168.74141,395.56215
				L168.74141,395.80218L168.98144,395.80218L168.98144,396.0422L169.22148,396.0422L169.22148,396.28223L169.46151,396.28223L169.46151,396.52225
				L169.46151,396.76228L169.70154,396.76228L169.94157,396.76228L169.94157,397.00231L170.1816,397.00231L170.1816,397.24233L170.42163,397.24233
				L170.42163,397.48236L170.66166,397.48236L170.66166,397.72238L170.90169,397.72238L170.90169,397.96241L171.14172,397.96241
				L171.14172,398.20243L171.14172,398.44246L171.38175,398.44246L171.38175,398.68248L171.38175,399.16254L171.62178,399.16254
				L171.62178,399.40256L171.86181,399.40256L171.86181,399.64259L171.86181,400.12264L172.10184,400.12264L172.10184,400.36266
				L172.10184,400.60269L172.10184,401.32277L172.10184,401.56279L171.86181,401.56279L171.86181,401.80282L171.62178,401.80282
				L171.62178,402.04284L171.38175,402.04284L171.38175,402.28287L171.14172,402.28287L171.14172,402.52289L170.90169,402.52289
				L170.90169,402.76292L171.14172,402.76292L171.14172,403.00294L171.38175,403.00294L171.38175,403.24297L171.62178,403.24297
				L171.62178,403.483L171.86181,403.483L171.86181,403.72302L172.10184,403.72302L172.10184,403.96305L172.34187,403.96305L172.34187,404.4431
				L172.10184,404.4431L172.10184,404.68312L172.10184,404.92315L171.86181,404.92315L171.62178,404.92315L171.62178,405.16318L
				171.38175,405.16318L171.38175,405.88325L171.62178,405.88325L171.86181,405.88325L171.86181,406.12328L172.10184,406.12328L
				172.10184,406.3633L172.34187,406.3633L172.34187,406.60333L172.34187,407.08338L172.5819,407.08338L172.5819,407.56343L172.5819,407.80346
				L172.82193,407.80346L172.82193,408.04348L172.82193,408.28351L173.06196,408.28351L173.06196,408.52353L173.06196,409.00358
				L173.30199,409.00358L173.30199,409.24361L173.30199,409.48364L173.30199,409.72366L173.54202,409.72366L173.54202,409.96369
				L173.54202,410.20371L173.78205,410.20371L173.78205,410.44374L173.78205,410.68376L173.78205,410.92379L174.02208,410.92379
				L174.02208,411.16381L174.02208,411.40384L174.26211,411.40384L174.26211,411.64387L174.26211,412.12392L174.50215,412.12392
				L174.50215,412.60397L174.74218,412.60397L174.74218,412.84399L174.74218,413.32404L174.98221,413.32404L174.98221,413.56407
				L175.22224,413.56407L175.22224,413.8041L175.22224,414.04412L175.22224,414.28415L175.46227,414.28415L175.46227,414.52417L
				175.46227,414.7642L175.7023,414.7642L175.7023,415.00422L175.7023,415.24425L175.7023,415.48427L175.46227,415.48427L174.98221,415.48427
				L174.98221,415.7243L174.26211,415.7243L173.54202,415.7243L173.06196,415.7243L173.06196,415.96433L172.5819,415.96433L172.5819,415.00422
				L172.5819,414.04412L172.34187,414.04412L172.34187,413.32404L172.34187,413.08402L172.10184,413.08402L172.10184,412.84399L
				172.10184,412.60397L171.86181,412.60397L171.86181,411.64387L171.86181,410.44374L171.62178,410.44374L171.62178,410.20371L
				171.38175,410.20371L171.38175,411.16381L171.14172,411.16381L171.14172,411.64387L171.14172,411.88389L170.90169,411.88389L
				170.90169,412.12392L170.66166,412.12392L170.66166,412.36394L170.42163,412.36394L170.42163,412.60397L170.1816,412.60397L170.1816,412.36394
				L169.70154,412.36394L169.22148,412.36394L169.22148,412.12392L168.74141,412.12392L168.74141,412.60397L168.74141,413.08402
				L168.50138,413.08402L168.50138,413.56407L168.50138,414.28415L168.26135,414.28415L168.26135,414.7642L168.26135,415.00422L
				168.26135,415.24425L168.02132,415.24425L168.02132,415.48427L167.78129,415.48427L167.78129,415.7243L167.78129,415.96433L167.54126,415.96433
				L167.54126,416.20435L167.54126,416.44438L167.30123,416.44438L167.30123,416.6844L167.30123,416.92443L167.0612,416.92443L167.0612,417.16445
				L166.82117,417.16445L166.82117,417.40448L166.82117,417.64451L166.58114,417.64451L166.58114,417.88453L166.34111,417.88453
				L166.34111,418.12456L166.10108,418.12456L165.86105,418.12456L165.86105,418.36458L165.62102,418.36458L165.62102,418.60461
				L165.38099,418.60461L165.38099,418.84463L165.14096,418.84463L165.14096,419.08466L164.90093,419.08466L164.90093,419.32468
				L164.6609,419.32468L164.6609,419.56471L164.42087,419.56471L164.42087,419.80474L164.18084,419.80474L163.94081,419.80474L163.94081,420.04476
				L163.70077,420.04476L163.70077,420.28479L163.46074,420.28479L163.46074,420.52481L163.46074,420.76484L163.22071,420.76484
				L163.22071,421.00486L162.98068,421.00486L162.98068,421.24489L162.74065,421.24489L162.74065,421.48491L162.74065,421.72494
				L162.50062,421.72494L162.50062,421.96497L162.50062,422.20499L162.26059,422.20499L162.26059,422.44502L162.26059,422.68504
				L162.26059,423.16509L162.02056,423.16509L162.02056,423.40512L162.02056,423.88517L161.78053,423.88517L161.78053,424.1252L
				161.78053,424.60525L161.5405,424.60525L161.5405,425.0853L161.5405,425.56535L161.5405,425.80537L161.30047,425.80537L161.30047,426.28543
				L161.30047,426.76548L161.06044,426.76548L161.06044,427.24553L161.06044,427.48555L160.82041,427.48555L160.82041,428.20563
				L160.82041,428.44566L160.82041,428.92571L160.58038,428.92571L160.58038,429.40576L160.58038,429.88581L160.34035,429.88581
				L160.34035,430.12584L160.34035,430.60589L160.34035,431.08594L160.10032,431.08594L160.10032,431.56599L160.10032,432.04604
				L159.86029,432.04604L159.86029,432.52609L159.86029,432.76612L159.62026,432.76612L159.62026,433.24617L159.62026,433.72622
				L159.62026,433.96624L159.38023,433.96624L159.38023,434.4463L159.38023,434.92635L159.1402,434.92635L159.1402,435.16637L159.1402,435.4064
				L159.1402,435.88645L158.90017,435.88645L158.90017,436.3665L158.90017,436.60653L158.66013,436.60653L158.66013,437.08658L158.66013,437.3266
				L158.4201,437.3266L158.4201,437.80665L158.4201,438.04668L158.4201,438.52673L158.18007,438.52673L158.18007,438.76676L158.18007,439.24681
				L157.94004,439.24681L157.94004,439.48683L157.70001,439.48683L157.70001,439.24681L157.45998,439.24681L157.21995,439.24681
				L157.21995,439.00678L157.21995,438.76676L156.97992,438.76676L156.73989,438.76676L156.73989,438.52673L156.49986,438.52673
				L156.49986,438.2867L156.25983,438.2867L156.25983,438.04668L156.0198,438.04668L155.77977,438.04668L155.77977,437.80665L155.53974,437.80665
				L155.53974,437.56663L155.29971,437.56663L155.29971,437.3266L155.05968,437.3266L155.05968,437.08658L154.81965,437.08658L154.81965,436.84655
				L154.57962,436.84655L154.33959,436.84655L154.33959,436.60653L154.09956,436.60653L154.09956,436.3665L153.85953,436.3665L153.85953,436.12647
				L153.6195,436.12647L153.6195,435.88645L153.37946,435.88645L153.13943,435.88645L153.13943,435.64642L152.8994,435.64642L152.8994,435.4064
				L152.65937,435.4064L152.65937,435.16637L152.41934,435.16637L152.17931,435.16637L152.17931,434.92635L151.93928,434.92635L
				151.93928,434.68632L151.69925,434.68632L151.69925,434.4463L151.45922,434.4463L151.45922,434.20627L151.21919,434.20627L150.97916,434.20627
				L150.97916,433.96624L150.73913,433.96624L150.73913,433.72622L150.4991,433.72622L150.4991,433.48619L150.25907,433.48619L150.25907,433.24617
				L150.01904,433.24617L150.01904,433.00614L149.77901,433.00614L149.53898,433.00614L149.53898,432.76612L149.29895,432.76612
				L149.29895,432.52609L149.05892,432.52609L148.81889,432.52609L148.81889,432.28607L148.57886,432.28607L148.57886,432.04604
				L148.33883,432.04604L148.33883,431.80601L148.09879,431.80601L147.85876,431.80601L147.85876,431.56599L147.61873,431.56599
				L147.61873,431.32596L147.3787,431.32596L147.3787,431.08594L147.13867,431.08594L147.13867,430.84591L146.89864,430.84591L146.89864,430.60589
				L146.65861,430.60589L146.65861,430.36586L146.41858,430.36586L146.41858,430.12584L146.17855,430.12584L146.17855,429.88581
				L145.93852,429.88581L145.69849,429.88581L145.69849,429.64578L145.69849,429.40576L145.45846,429.40576L145.45846,429.16573
				L145.21843,429.16573L145.21843,428.92571L144.9784,428.92571L144.9784,428.68568L144.73837,428.68568L144.49834,428.68568L144.49834,428.44566
				L144.25831,428.44566L144.25831,428.20563L143.77825,428.20563L143.53822,428.20563L143.05815,428.20563L143.05815,428.44566
				L142.09803,428.44566L142.09803,428.20563L141.858,428.20563L141.37794,428.20563L141.37794,427.9656L141.13791,427.9656L141.13791,427.72558
				L140.89788,427.72558L140.65785,427.72558L140.65785,427.48555L140.41782,427.48555L140.17779,427.48555L139.93776,427.48555
				L139.93776,427.24553L139.69773,427.24553L139.69773,427.0055L139.4577,427.0055L139.21767,427.0055L139.21767,426.76548L138.97764,426.76548
				L138.73761,426.76548L138.73761,426.52545L138.73761,426.28543L138.49758,426.28543L138.49758,426.0454L138.25755,426.0454L138.25755,425.80537
				L138.01752,425.80537L138.01752,425.56535L138.01752,425.32532L137.77748,425.32532L137.77748,425.0853L137.53745,425.0853L137.53745,424.84527
				L137.29742,424.84527L137.29742,424.60525L137.29742,424.36522L137.05739,424.36522L136.81736,424.36522L136.81736,424.1252L
				136.81736,423.88517L136.57733,423.88517L136.57733,423.64514L136.3373,423.64514L136.3373,423.40512L136.09727,423.40512L136.09727,423.16509
				L135.85724,423.16509L135.85724,422.92507L135.61721,422.92507L135.61721,422.68504L135.37718,422.68504L135.37718,422.44502
				L135.13715,422.44502L135.13715,422.20499L134.89712,422.20499L134.89712,421.96497L134.89712,421.72494L134.65709,421.72494
				L134.65709,421.48491L134.65709,421.24489L134.41706,421.24489L134.41706,421.00486L134.41706,420.76484L134.41706,420.52481
				L134.17703,420.52481L134.17703,420.28479L134.17703,420.04476L133.937,420.04476L133.69697,420.04476L133.69697,419.80474L133.69697,419.56471
				L133.45694,419.56471L133.21691,419.56471L133.21691,419.32468L133.21691,419.08466L132.97688,419.08466L132.97688,418.84463
				L132.73685,418.84463L132.49681,418.84463L132.49681,418.60461L132.49681,418.36458L132.49681,418.12456L132.25678,418.12456
				L132.01675,418.12456L132.01675,417.88453L132.01675,417.64451L131.77672,417.64451L131.77672,417.40448L131.53669,417.40448
				L131.53669,417.16445L131.29666,417.16445L131.29666,416.92443L131.05663,416.92443L131.05663,416.6844L130.8166,416.6844L130.8166,416.44438
				L130.57657,416.44438L130.57657,416.20435L130.33654,416.20435L130.33654,415.96433L130.09651,415.96433L130.09651,415.7243L
				129.85648,415.7243L129.85648,415.48427L129.61645,415.48427L129.61645,415.24425L129.37642,415.24425L129.37642,414.7642L129.13639,414.7642
				L129.13639,414.52417L128.89636,414.52417L128.89636,414.28415L128.89636,414.04412L128.89636,413.8041L128.65633,413.8041L128.65633,413.56407
				L128.65633,413.32404L128.4163,413.32404L128.4163,413.08402L128.4163,412.84399L128.17627,412.84399L128.17627,412.60397L128.17627,412.36394
				L127.93624,412.36394L127.93624,411.88389L127.93624,411.64387L127.69621,411.64387L127.69621,411.40384L127.69621,411.16381
				L127.69621,410.92379L127.45618,410.92379L127.45618,410.68376L127.45618,410.44374L127.21614,410.44374L127.21614,410.20371
				L127.21614,409.96369L126.97611,409.96369L126.97611,409.48364L126.97611,409.24361L126.97611,408.76356L126.97611,408.28351
				L126.73608,408.28351L126.73608,408.04348L126.73608,407.56343L126.49605,407.56343L126.49605,407.08338L126.25602,407.08338
				L126.25602,406.84335L126.25602,406.60333L126.25602,406.3633L126.01599,406.3633L126.01599,405.88325L125.77596,405.88325L125.77596,405.64323
				L125.53593,405.64323L125.53593,405.4032L125.2959,405.4032L125.2959,405.16318L125.05587,405.16318L124.81584,405.16318L124.81584,404.92315
				L124.57581,404.92315L124.57581,404.68312L124.33578,404.68312L124.09575,404.68312L124.09575,404.4431L123.85572,404.4431L123.85572,404.20307
				L123.85572,403.96305L123.61569,403.96305L123.37566,403.96305L123.37566,403.72302L123.13563,403.72302L123.13563,403.483L122.8956,403.483
				L122.8956,403.24297L122.65557,403.24297L122.65557,403.00294L122.65557,402.76292L122.65557,402.52289L122.41554,402.52289L
				122.41554,402.28287L122.41554,402.04284L122.1755,402.04284L122.1755,401.80282L122.1755,401.56279L121.93547,401.56279L121.69544,401.56279
				L121.69544,401.32277L121.45541,401.32277L121.45541,401.08274L121.45541,400.84271L121.21538,400.84271L121.21538,400.60269
				L120.97535,400.60269L120.97535,400.12264L120.97535,399.88261L120.73532,399.88261L120.73532,399.64259L120.73532,399.40256
				L120.49529,399.40256L120.49529,399.16254L120.25526,399.16254L120.25526,398.92251L120.25526,398.68248L120.01523,398.68248
				L120.01523,398.44246L119.7752,398.44246L119.7752,398.20243L119.7752,397.96241L119.53517,397.96241L119.53517,397.72238L119.53517,397.48236
				L119.29514,397.48236L119.29514,397.24233L119.05511,397.24233L118.81508,397.24233L118.81508,397.00231L118.57505,397.00231
				L118.57505,396.76228L118.33502,396.76228L118.09499,396.76228L118.09499,396.52225L117.85496,396.52225L117.61493,396.52225
				L117.61493,396.28223L117.3749,396.28223L117.3749,396.0422L117.13487,396.0422L116.89483,396.0422L116.41477,396.0422L116.41477,395.80218
				L116.17474,395.80218L116.17474,395.56215L115.93471,395.56215L115.69468,395.56215L115.69468,395.32213L115.45465,395.32213
				L115.21462,395.32213L114.73456,395.32213L114.73456,395.0821L114.49453,395.0821L114.2545,395.0821L114.2545,394.84208L114.01447,394.84208
				L113.77444,394.84208L113.53441,394.84208L113.53441,394.60205L113.29438,394.60205L113.05435,394.60205L113.05435,394.36202
				L112.81432,394.36202L112.81432,394.122L112.57429,394.122L112.33426,394.122L112.09423,394.122L112.09423,393.88197L111.61416,393.88197
				L110.89407,393.88197L110.89407,393.64195L110.17398,393.64195L109.69392,393.64195L109.21386,393.64195L109.21386,393.40192
				L108.49377,393.40192L108.25374,393.40192L108.25374,393.1619L107.77368,393.1619L107.29362,393.1619L107.29362,392.92187L106.57352,392.92187
				L106.09346,392.92187L105.37337,392.92187L105.37337,392.68185L104.89331,392.68185L104.41325,392.68185L104.41325,392.44182
				L104.17322,392.44182L103.2131,392.44182L102.73304,392.44182L102.73304,392.20179L102.49301,392.20179L102.25298,392.20179L
				102.25298,391.96177L102.01295,391.96177L101.77292,391.96177L101.77292,391.72174L101.53289,391.72174L101.53289,391.96177L
				100.33273,391.96177L98.89255,391.96177L97.93243,391.96177L96.73228,391.96177L96.73228,392.20179L95.77215,392.20179L95.29209,392.20179
				L95.29209,392.44182L94.81203,392.44182L94.33197,392.44182L91.93167,392.44182L91.21158,392.44182L90.49148,392.44182L90.49148,392.20179
				L90.01142,392.20179L88.09118,392.20179L88.09118,391.96177L87.85115,391.96177L87.37109,391.96177L85.45084,391.96177L85.45084,392.20179
				L84.49072,392.20179L84.49072,391.96177L84.49072,392.20179L84.25069,392.20179L84.25069,391.96177L84.01066,391.96177L83.77063,391.96177
				L83.29057,391.96177L83.29057,392.20179L83.05054,392.20179L82.81051,392.20179L82.81051,392.44182L82.57048,392.44182L82.33045,392.44182
				L81.85039,392.44182L81.85039,392.68185L81.61036,392.68185L81.37033,392.68185L81.37033,392.92187L80.89027,392.92187L80.4102,392.92187
				L79.93014,392.92187"/>
			<path clip-path="url(#SVG_CP_2)" fill="none" stroke="#999999" stroke-width="0.96012" stroke-miterlimit="10" stroke-linecap="round" stroke-linejoin="round" d="
				M79.93014,392.92187L79.93014,393.1619L79.45008,393.1619L78.72999,393.1619L78.72999,393.40192L78.0099,393.40192L77.76987,393.40192
				L77.52984,393.40192L77.52984,393.1619L77.28981,393.1619L77.04978,393.1619L77.04978,392.92187L76.80975,392.92187L76.80975,392.68185
				L76.56972,392.68185L76.32969,392.68185L76.32969,392.44182L76.32969,392.68185L76.32969,392.44182L75.36957,392.44182L75.6096,392.44182
				L75.84963,392.44182L75.84963,392.20179L76.08966,392.20179L76.08966,391.96177L76.32969,391.96177L76.32969,391.72174L76.56972,391.72174
				L76.56972,391.96177L76.80975,391.96177L76.80975,392.20179L77.04978,392.20179L77.04978,392.44182L77.28981,392.44182L77.52984,392.44182
				L77.52984,392.68185L78.0099,392.68185L78.24993,392.68185L78.24993,392.44182L78.48996,392.44182L78.72999,392.44182L78.97002,392.44182
				L78.97002,392.20179L79.21005,392.20179L79.21005,391.96177L79.45008,391.96177L79.69011,391.96177L79.69011,391.72174L79.93014,391.72174
				L80.17017,391.72174L80.17017,391.48172L80.4102,391.48172L80.4102,391.24169L80.65024,391.24169L80.65024,391.00167L80.89027,391.00167
				L80.89027,390.76164L81.1303,390.76164L81.1303,390.52161L81.37033,390.52161L81.61036,390.52161L81.85039,390.52161L81.85039,390.28159
				L82.09042,390.28159L82.33045,390.28159L82.33045,390.04156L82.57048,390.04156L82.57048,389.80154L82.57048,389.56151L82.81051,389.56151
				L82.81051,389.08146L82.57048,389.08146L82.57048,388.84144L82.57048,388.12136L82.57048,387.64131L82.81051,387.64131L82.81051,387.40128
				L83.05054,387.40128L83.29057,387.40128L83.77063,387.40128L83.77063,387.16126L84.25069,387.16126L84.25069,386.92123L84.49072,386.92123
				L84.73075,386.92123L84.73075,386.68121L84.97078,386.68121L85.45084,386.68121L85.69087,386.68121L85.69087,386.44118L85.93091,386.44118
				L86.17094,386.44118L86.17094,386.20115L86.651,386.20115L86.89103,386.20115L86.89103,385.96113L86.89103,385.7211L86.651,385.7211
				L86.651,385.48108L86.41097,385.48108L86.17094,385.48108L86.17094,385.24105L86.17094,385.00103L85.93091,385.00103L85.93091,384.761
				L85.69087,384.761L85.69087,384.52098L85.69087,384.28095L85.45084,384.28095L85.69087,384.28095L85.69087,384.04092L85.93091,384.04092
				L85.93091,383.8009L86.17094,383.8009L86.17094,383.56087L86.41097,383.56087L86.651,383.56087L86.651,383.32085L86.89103,383.32085
				L86.89103,383.08082L87.13106,383.08082L87.13106,382.8408L86.89103,382.8408L86.89103,382.60077L86.89103,382.36075L86.651,382.36075
				L86.89103,382.36075L86.89103,382.12072L87.13106,382.12072L87.13106,381.88069L87.37109,381.88069L87.61112,381.88069L87.61112,381.64067
				L87.85115,381.64067L87.85115,381.40064L88.09118,381.40064L88.09118,381.16062L88.33121,381.16062L88.57124,381.16062L88.57124,380.92059
				L88.81127,380.92059L88.81127,380.68057L89.0513,380.68057L89.29133,380.68057L89.29133,380.44054L89.53136,380.44054L89.53136,380.20051
				L89.77139,380.20051L89.77139,379.96049L90.01142,379.96049L90.25145,379.96049L90.25145,379.72046L90.01142,379.72046L90.01142,379.48044
				L90.01142,379.00039L90.01142,378.76036L90.25145,378.76036L90.49148,378.76036L90.49148,378.52034L90.73151,378.52034L90.97155,378.52034
				L90.97155,378.28031L91.21158,378.28031L91.21158,378.04028L91.45161,378.04028L91.69164,378.04028L91.69164,377.80026L91.93167,377.80026
				L91.93167,377.56023L92.1717,377.56023L92.1717,377.80026L92.41173,377.80026L92.41173,378.04028L92.65176,378.04028L92.89179,378.04028
				L93.13182,378.04028L93.13182,377.80026L93.13182,378.04028L93.61188,378.04028L94.09194,378.04028L94.33197,378.04028L94.572,378.04028
				L94.572,377.80026L94.572,377.56023L94.81203,377.56023L94.81203,377.32021L94.81203,377.08018L95.05206,377.08018L95.05206,376.84016
				L95.29209,376.84016L95.29209,376.60013L95.53212,376.60013L95.53212,376.36011L95.29209,376.36011L95.05206,376.36011L95.05206,376.12008
				L94.81203,376.12008L94.81203,375.88005L94.81203,375.64003L94.572,375.64003L94.81203,375.64003L94.81203,375.4L95.05206,375.4
				L95.05206,375.15998L95.29209,375.15998L95.53212,375.15998L95.77215,375.15998L96.01218,375.15998L96.01218,375.4L96.25222,375.4
				L96.25222,375.15998L96.97231,375.15998L97.45237,375.15998L97.45237,374.91995L97.6924,374.91995L97.93243,374.91995L97.93243,374.67993
				L97.93243,374.4399L98.17246,374.4399L98.41249,374.4399L98.41249,374.19988L98.65252,374.19988L98.65252,373.95985L98.89255,373.95985
				L98.89255,373.4798L98.89255,372.99975L99.13258,372.99975L99.13258,372.27967L99.13258,372.03965L99.37261,372.03965L99.37261,371.79962
				L99.61264,371.79962L99.61264,371.55959L99.85267,371.55959L99.85267,371.31957L99.61264,371.31957L99.37261,371.31957L99.37261,371.07954
				L99.13258,371.07954L99.13258,370.83952L99.13258,370.59949L99.13258,370.35947L99.37261,370.35947L99.61264,370.35947L99.85267,370.35947
				L99.85267,370.59949L100.33273,370.59949L100.57276,370.59949L100.57276,370.35947L100.57276,370.11944L100.81279,370.11944L
				100.81279,369.63939L100.81279,369.39936L101.05282,369.39936L101.05282,369.15934L101.05282,368.91931L101.29285,368.91931L
				101.29285,368.67929L101.29285,368.43926L101.53289,368.43926L101.53289,368.19924L101.53289,367.95921L101.77292,367.95921L
				101.77292,367.71918L101.77292,367.47916L101.77292,367.23913L102.01295,367.23913L102.01295,366.99911L102.25298,366.99911L
				102.25298,366.51906L102.25298,366.27903L102.49301,366.27903L102.49301,366.03901L102.49301,365.79898L102.73304,365.79898L
				102.73304,365.55895L102.73304,365.31893L102.97307,365.31893L102.97307,365.0789L102.97307,364.83888L102.97307,364.59885L103.2131,364.59885
				L103.2131,364.35883L103.2131,364.1188L103.45313,364.1188L103.45313,363.87878L103.45313,363.63875L103.45313,363.39872L103.69316,363.39872
				L103.93319,363.39872L103.93319,363.63875L104.17322,363.63875L104.17322,363.87878L104.41325,363.87878L104.65328,363.87878
				"/>
		</g>
</g></svg>