<?xml version="1.0" encoding="utf-8" standalone="no"?>
<!-- Creator: ESRI ArcMap 10.0.0.2414 -->
<!DOCTYPE svg PUBLIC "-//W3C//DTD SVG 1.1//EN"  "http://www.w3.org/Graphics/SVG/1.1/DTD/svg11.dtd">
<svg width="524.0420768pt" height="364.837551415pt" viewBox="32.15712744 238.710359292 524.0420768 364.837551415" enable-background="new 32.15712744 238.710359292 524.0420768 364.837551415"
	version="1.1" xmlns="http://www.w3.org/2000/svg" xmlns:xlink="http://www.w3.org/1999/xlink" >
	<g id="Couches">
		<g id="reservoirs">
			<clipPath id="SVG_CP_2">
				<path d="M574.39289,21.36228L21.36271,21.36228L21.36271,821.36753L574.39289,821.36753L574.39289,21.36228z"/>
			</clipPath>
			<path clip-path="url(#SVG_CP_2)" fill-opacity="0.2" fill="#2f4493" fill-rule="evenodd" stroke="#2f4493" stroke-width="1" stra="1.44018" stroke-miterlimit="10" stroke-linecap="round" stroke-linejoin="round" d="
				M374.92758,417.88453L375.64767,418.12456L376.60779,417.64451L377.08785,418.12456L377.80795,418.84463L380.20825,417.40448
				L380.44828,418.36458L382.36852,422.20499L380.44828,423.16509L379.96822,424.36522L380.20825,425.0853L380.68831,427.24553L
				379.24813,427.9656L379.24813,429.64578L379.96822,431.08594L380.68831,431.08594L381.16837,432.52609L382.84859,432.52609L383.56868,434.4463
				L382.12849,434.92635L382.60855,435.88645L382.60855,437.3266L382.84859,438.52673L382.84859,439.96688L381.88846,439.96688L
				380.68831,440.20691L379.48816,440.44693L378.52804,440.68696L378.76807,442.60717L379.48816,443.08722L380.44828,443.32724L
				381.88846,443.80729L385.24889,442.12711L385.72895,442.12711L386.20901,442.12711L386.9291,442.36714L387.40916,442.60717L387.40916,443.08722
				L387.16913,443.80729L386.9291,444.7674L386.44904,445.96752L385.96898,446.6876L385.48892,447.16765L384.5288,447.6477L384.76883,448.12775
				L385.24889,449.32788L385.96898,451.00806L382.84859,452.20819L384.28877,455.80857L387.40916,454.36842L388.60932,457.24873
				L391.24965,456.52865L391.72971,456.52865L391.96974,456.52865L392.4498,457.24873L406.13154,451.24809L407.81175,450.04796L
				408.53184,449.80793L409.25194,449.56791L409.732,449.32788L413.57248,447.6477L413.81251,447.40768L414.29258,447.16765L414.53261,447.16765
				L414.77264,447.16765L415.2527,447.16765L416.21282,446.92763L417.17294,446.44757L417.41297,446.44757L418.61312,446.20755L
				419.57325,447.6477L420.29334,447.16765L421.97355,448.84783L419.81328,450.52801L426.53413,462.76931L426.53413,463.00934L426.2941,463.24936
				L426.2941,463.48939L426.53413,464.44949L427.01419,465.64962L428.21434,468.04988L428.45437,469.00998L432.05483,476.21075L
				423.65376,482.93146L421.97355,484.13159L419.57325,485.57174L417.17294,486.53185L413.09242,487.73197L401.81099,490.37225L
				400.13078,490.37225L397.49044,489.41215L393.16989,488.69208L390.52956,488.21202L386.44904,487.73197L385.48892,487.49195L
				384.04874,487.0119L382.36852,486.53185L379.48816,485.81177L376.84782,485.57174L375.40764,485.33172L367.72667,486.53185L360.52575,487.25192
				L354.76502,489.8922L351.64463,492.53249L351.16456,494.45269L350.6845,495.17277L349.96441,496.85295L350.20444,497.57302L350.20444,499.01318
				L349.00429,501.41343L348.52423,502.13351L347.80414,503.81369L347.32408,505.01382L347.08405,506.69399L347.56411,510.77443
				L348.04417,512.69463L348.04417,514.37481L348.04417,516.05499L347.32408,518.9353L346.36396,523.97584L345.88389,523.73581L
				341.32332,521.33555L336.76274,519.8954L334.60246,521.09553L330.76198,523.49578L326.44143,525.89604L324.28115,527.33619L319.72057,530.2165
				L314.4399,533.33683L309.39926,536.21714L303.3985,540.05755L295.95756,544.37801L288.51661,548.69847L282.03579,552.53888L281.3157,553.01893
				L280.59561,553.01893L279.87552,553.01893L278.43533,553.01893L275.795,553.97903L275.07491,554.21906L272.91463,554.45908L271.23442,554.45908
				L270.03427,554.69911L269.07415,554.69911L267.63396,551.8188L261.39317,553.97903L260.43305,554.45908L258.75284,554.93914L
				257.07262,555.41919L255.63244,555.89924L254.43229,556.61931L251.31189,556.61931L250.11174,556.13926L248.67156,554.69911L
				246.51128,555.17916L245.0711,555.41919L243.63092,555.65921L241.9507,555.89924L239.31037,556.13926L240.03046,558.29949L238.11022,559.49962
				L235.70991,559.97967L233.78967,560.2197L231.38936,560.2197L231.38936,560.93977L227.06882,559.49962L226.58876,559.73965L224.90854,559.49962
				L222.02818,559.97967L221.54812,558.29949L219.62787,558.53952L219.62787,559.01957L218.66775,559.2596L219.14781,561.65985L
				218.42772,561.89988L218.90778,564.54016L217.4676,564.54016L214.58723,565.74029L213.38708,565.98031L206.18617,568.38057L198.98525,572.22098
				L196.10489,574.62123L192.50443,577.50154L185.78358,582.06203L184.82346,582.30205L178.82269,585.66241L176.90245,586.86254
				L174.02208,588.06266L171.14172,589.02277L171.86181,593.34323L162.74065,594.78338L156.25983,595.02341L152.8994,595.50346L
				152.41934,594.78338L151.21919,593.82328L150.01904,593.34323L148.09879,593.34323L143.53822,593.58325L140.17779,593.1032L138.73761,592.62315
				L136.3373,591.183L133.937,590.46292L131.53669,589.74284L129.37642,588.54272L122.8956,585.42238L120.73532,584.46228L118.81508,583.50218
				L117.61493,582.54208L115.45465,580.8619L113.29438,579.42174L111.1341,577.26151L108.7338,574.86126L105.85343,571.98095L103.93319,571.02085
				L96.25222,555.17916L95.53212,553.73901L94.33197,551.33875L93.13182,548.21842L91.93167,545.81816L90.97155,544.13798L89.53136,542.69783
				L87.85115,541.01765L85.21081,539.33747L82.57048,537.89732L81.1303,536.93722L78.97002,535.97711L77.28981,534.77699L77.04978,534.53696
				L74.16941,531.1766L72.72923,529.49642L71.28905,528.05627L70.08889,527.33619L68.88874,526.37609L67.44856,525.17596L66.48844,524.21586
				L65.52832,523.01573L64.32816,521.09553L62.88798,519.17532L61.4478,518.21522L60.24765,517.25512L59.52755,517.01509L58.56743,517.01509
				L57.84734,517.01509L55.9271,517.49515L54.00685,517.9752L53.04673,515.81497L49.20624,509.09425L52.32664,507.6541L50.4064,506.21394
				L48.24612,504.77379L46.56591,503.33364L46.80594,502.61356L47.52603,501.65346L47.76606,500.69335L48.48615,499.73325L48.48615,498.2931
				L49.44628,497.81305L50.88646,497.81305L51.36652,498.05307L52.56667,497.81305L50.88646,495.17277L57.12725,492.05243L58.80746,495.17277
				L62.40792,495.17277L64.56819,495.41279L68.64871,494.93274L68.88874,495.17277L69.3688,496.61292L69.3688,497.81305L69.3688,498.53312
				L69.84886,499.01318L71.28905,499.01318L72.96926,499.01318L74.8895,499.2532L77.76987,499.49323L75.6096,491.57238L75.6096,490.37225
				L76.08966,489.41215L81.37033,487.49195L81.85039,489.65218L85.21081,488.69208L88.09118,487.73197L88.33121,485.09169L90.01142,485.33172
				L91.69164,485.81177L100.81279,484.85167L102.01295,485.81177L103.93319,488.45205L106.57352,492.05243L110.17398,497.57302L
				115.93471,494.93274L128.89636,488.69208L121.45541,508.37417L118.33502,515.81497L121.93547,517.01509L121.21538,518.9353L115.93471,532.61676
				L120.97535,534.77699L121.45541,534.29694L125.05587,525.65601L127.45618,532.85678L128.89636,535.97711L130.8166,538.6174L136.57733,548.21842
				L137.53745,548.69847L138.25755,548.69847L138.73761,548.69847L139.21767,548.45844L139.69773,548.69847L140.65785,549.17852
				L142.57809,550.37865L145.69849,548.9385L146.41858,548.45844L148.09879,547.97839L150.01904,547.49834L151.93928,547.25832L
				154.33959,547.25832L158.18007,547.49834L170.1816,548.21842L171.38175,547.97839L175.46227,545.81816L176.66242,548.45844L179.30275,553.25896
				L179.78282,553.01893L181.70306,556.37929L184.10336,555.65921L183.38327,553.73901L186.50367,552.05883L187.94385,551.33875
				L187.22376,549.65857L189.86409,548.21842L187.46379,544.85806L189.144,543.89796L187.94385,542.69783L190.58419,541.01765L191.54431,540.29758
				L193.46455,538.6174L193.94461,538.37737L195.14476,537.89732L195.86486,537.41727L195.14476,536.21714L197.7851,534.53696L199.94537,533.33683
				L201.86562,531.89668L202.34568,533.09681L203.06577,534.77699L204.26592,536.69719L206.4262,539.09745L206.66623,539.5775L206.18617,540.29758
				L207.62635,541.4977L208.10641,541.25768L213.62711,537.41727L215.54735,536.45717L217.22757,535.97711L219.38784,535.01701L
				217.94766,529.97648L215.30732,530.45653L214.82726,527.81625L218.18769,526.85614L217.22757,523.73581L218.90778,523.01573L
				220.34796,522.53568L221.30809,522.05563L222.02818,521.81561L222.9883,521.33555L223.70839,521.33555L224.66851,521.33555L225.3886,521.33555
				L224.42848,519.17532L228.74903,515.81497L226.58876,513.17468L229.22909,511.01445L232.10946,508.6142L235.70991,505.49387L
				238.59028,503.33364L240.03046,502.13351L240.27049,502.37353L240.75055,502.13351L242.6708,500.93338L243.39089,500.45333L244.59104,499.2532
				L248.1915,496.85295L248.91159,496.37289L252.51205,493.97264L254.91235,492.29246L256.1125,491.33236L258.99287,488.69208L261.87323,485.81177
				L264.7536,483.17149L267.63396,480.53121L271.23442,477.17085L272.43457,476.45077L274.35482,474.77059L280.35558,469.97008L
				283.716,467.08977L286.59637,464.92954L289.71677,463.00934L291.87704,461.80921L294.27735,460.36906L296.19759,463.72942L297.63777,462.76931
				L299.07795,464.92954L301.71829,463.24936L303.87856,466.12967L299.07795,469.49003L301.47826,472.37034L305.55878,469.49003
				L305.07872,471.17021L304.35862,473.09041L303.87856,474.29054L303.87856,475.97072L305.07872,478.85103L305.31875,479.81113
				L305.79881,480.53121L306.75893,480.29118L307.71905,479.81113L311.07948,478.13095L312.99972,477.41087L314.19987,476.6908L
				316.36015,474.77059L317.5603,473.57046L318.52042,472.37034L318.76045,471.89029L319.72057,470.69016L320.92073,469.00998L321.64082,467.56983
				L323.081,465.88965L322.60094,462.28926L320.92073,460.12903L321.16076,459.88901L321.16076,458.9289L320.6807,457.72878L320.44067,457.0087
				L320.20063,456.0486L320.44067,455.32852L319.9606,454.12839L319.9606,453.64834L320.20063,453.16829L320.6807,452.20819L319.9606,451.24809
				L322.84097,449.80793L321.64082,445.48747L324.76121,444.28734L327.40155,443.56727L330.04188,442.84719L332.20216,442.36714
				L335.56258,441.40704L337.96289,440.44693L341.08328,438.76676L343.72362,437.3266L343.96365,433.48619L353.8049,430.36586L355.96517,429.64578
				L356.2052,429.88581L357.64539,429.40576L361.24584,428.20563L362.446,427.72558L366.04645,425.0853L366.28648,424.60525L366.76654,423.64514
				L367.48664,423.16509L369.16685,420.28479L369.64691,419.80474L369.64691,419.56471L370.12697,418.84463L370.60703,418.60461
				L370.84706,417.88453L371.56715,417.16445L372.04721,416.44438L372.76731,416.20435L373.24737,416.44438L373.96746,416.6844L
				374.44752,417.16445L374.92758,417.88453z"/>
			<path clip-path="url(#SVG_CP_2)" fill-opacity="0.2" fill="#2f4493" fill-rule="evenodd" stroke="#2f4493" stroke-width="1" stra="1.44018" stroke-miterlimit="10" stroke-linecap="round" stroke-linejoin="round" d="
				M482.94129,273.62916L488.70202,278.90972L489.66214,279.86982L490.62226,280.82993L491.34235,281.79003L491.82241,282.51011
				L492.78254,283.47021L493.74266,284.43031L496.86305,286.59054L503.10385,290.911L504.54403,292.11113L505.74418,292.59118L506.22424,293.07123
				L507.66442,293.55128L509.34464,294.27136L511.50491,295.23146L515.82546,296.91164L517.7457,297.63172L520.62607,298.83184L
				524.94662,300.272L527.34692,301.2321L531.18741,302.43223L535.50796,303.39233L536.70811,303.39233L538.14829,303.63236L539.82851,303.63236
				L541.74875,303.1523L542.9489,302.67225L543.66899,302.43223L544.62912,302.91228L545.58924,303.1523L546.54936,303.63236L547.98954,304.59246
				L549.18969,307.47277L543.66899,309.87302L533.58771,314.19348L527.34692,316.83376L525.90674,317.55384L517.02561,321.39425
				L500.70354,328.35499L497.10308,329.79514L496.14296,328.11496L495.90293,327.39489L494.94281,326.67481L493.74266,325.95473
				L492.30248,324.75461L491.34235,323.7945L490.1422,322.59438L489.18208,321.15422L487.98193,319.23402L487.0218,318.03389L486.06168,317.07379
				L485.58162,316.35371L485.10156,316.11369L484.38147,315.87366L483.66138,316.11369L482.46123,316.35371L480.54098,316.83376
				L477.90065,318.03389L475.26031,318.75397L474.54022,318.75397L474.06016,318.03389L473.10004,317.07379L472.37995,316.59374
				L471.17979,316.35371L470.21967,316.59374L468.77949,316.83376L468.77949,317.07379L468.0594,317.31381L467.09928,317.79386L
				465.89912,318.75397L465.17903,319.23402L464.45894,319.9541L463.01876,320.19412L458.93824,321.39425L457.25803,322.11433L455.57781,322.8344
				L452.45742,324.27456L448.13687,326.19476L442.37614,328.83504L434.45513,332.1954L427.01419,335.55576L421.01343,338.19604L
				418.13306,339.39617L417.89303,339.39617L417.653,339.39617L415.01267,335.79578L411.41221,330.75525L406.13154,323.7945L402.77111,319.47404
				L395.33017,309.15294L385.96898,296.43159L387.88922,294.51138L373.96746,276.02941L373.4874,275.78939L372.04721,276.74949L
				369.16685,277.46957L367.9667,277.46957L366.28648,277.46957L360.52575,278.42967L355.24508,267.62852L356.68526,267.38849L357.40536,266.90844
				L358.36548,266.66842L359.08557,266.18837L360.28572,265.46829L361.48587,264.74821L364.12621,262.34796L367.24661,259.70768
				L367.9667,259.22762L368.68679,258.50755L369.16685,258.0275L369.88694,257.54744L371.80718,256.58734L373.24737,256.10729L375.40764,255.14719
				L376.12773,254.90716L377.08785,254.18709L378.04798,253.22698L378.52804,252.74693L379.0081,252.26688L379.48816,252.26688L
				380.20825,252.02686L381.64843,252.02686L383.32865,251.78683L386.44904,251.54681L387.16913,251.54681L389.80947,251.30678L
				393.64996,250.82673L394.61008,250.82673L395.5702,250.82673L396.53032,250.5867L397.25041,250.5867L399.17066,250.34668L401.0909,250.10665
				L402.53108,249.86663L404.45133,249.6266L406.85163,249.38658L409.49197,249.14655L412.1323,248.90652L415.49273,248.6665L416.45285,248.42647
				L417.653,248.42647L418.37309,248.18645L419.81328,247.7064L420.53337,246.98632L427.01419,247.22635L430.61465,247.22635L435.65529,247.46637
				L440.69593,247.94642L443.09623,247.94642L447.41678,248.42647L455.33778,249.14655L459.17827,249.38658L466.61922,249.86663
				L471.65986,250.34668L479.34083,251.30678L484.6215,252.02686L481.74113,261.14783L479.34083,269.06867L479.34083,269.54872L
				479.58086,270.02877L482.94129,273.62916z"/>
		</g>
</g></svg>