<?xml version="1.0" encoding="utf-8" standalone="no"?>
<!-- Creator: ESRI ArcMap 10.0.0.2414 -->
<!DOCTYPE svg PUBLIC "-//W3C//DTD SVG 1.1//EN"  "http://www.w3.org/Graphics/SVG/1.1/DTD/svg11.dtd">
<svg width="524.0420768pt" height="247.535168898pt" viewBox="32.15712744 297.361550551 524.0420768 247.535168898" enable-background="new 32.15712744 297.361550551 524.0420768 247.535168898"
	version="1.1" xmlns="http://www.w3.org/2000/svg" xmlns:xlink="http://www.w3.org/1999/xlink" >
	<g id="Couches">
		<g id="reservoirs">
			<path clip-path="url(#SVG_CP_2)" fill-opacity="0.2" fill="#07866D" fill-rule="evenodd" stroke="none" stroke-width="" stra="1.44018" stroke-miterlimit="10" stroke-linecap="round" stroke-linejoin="round" d="
				M242.43077,502.37353L242.6708,502.61356L244.35101,502.61356L244.59104,502.61356L245.0711,503.33364L245.31113,503.81369L245.55116,505.01382
				L245.55116,505.25384L243.87095,505.73389L243.87095,505.97392L243.63092,506.21394L242.43077,507.41407L242.43077,507.6541L
				241.9507,507.89412L240.99058,508.13415L240.27049,507.89412L238.83031,507.6541L237.63016,507.41407L235.70991,507.6541L234.26973,507.89412
				L232.82955,508.13415L230.18921,508.6142L228.509,509.09425L227.06882,508.85422L225.3886,508.6142L225.3886,508.37417L225.3886,507.89412
				L226.10869,507.41407L228.26897,507.17405L229.70915,506.21394L233.54964,505.49387L237.63016,502.85359L239.5504,502.61356L
				240.27049,502.13351L241.23061,501.65346L241.71067,501.89348L241.9507,502.13351L242.43077,502.37353z"/>
			<path clip-path="url(#SVG_CP_2)" fill-opacity="0.2" fill="#07866D" fill-rule="evenodd" stroke="none" d="M374.44752,460.12903L373.24737,459.88901
				L372.04721,466.12967L371.56715,469.00998L371.56715,470.21011L371.32712,471.65026L371.08709,472.85039L370.84706,473.81049
				L370.60703,473.81049L370.60703,474.05052L370.367,474.53057L369.64691,475.01062L369.16685,475.49067L368.20673,476.21075L367.00657,476.93082
				L366.28648,477.41087L365.56639,478.13095L365.32636,478.37098L365.08633,478.611L364.8463,478.85103L364.36624,479.33108L363.88618,480.05116
				L363.40612,480.77123L362.68603,481.73133L362.446,482.69144L362.20597,483.41151L361.96594,483.89156L361.7259,484.37162L361.7259,484.61164
				L361.7259,485.57174L361.96594,487.0119L362.20597,488.21202L362.68603,489.41215L362.92606,490.37225L363.64615,491.81241L365.80642,497.09297
				L366.52651,498.77315L366.76654,499.73325L366.76654,500.93338L367.24661,504.29374L367.72667,506.93402L367.72667,507.89412
				L367.72667,508.85422L367.72667,509.33428L367.72667,510.29438L367.48664,511.49451L367.24661,512.69463L367.00657,513.65474
				L366.76654,514.85486L366.52651,515.81497L366.28648,517.25512L366.04645,518.69527L365.56639,520.37545L365.32636,521.81561
				L365.08633,523.01573L364.60627,523.97584L364.60627,524.45589L363.88618,525.41599L362.92606,526.85614L361.96594,528.2963L
				361.24584,529.49642L360.76578,530.93658L360.52575,531.65665L360.28572,532.61676L359.80566,534.05691L359.56563,535.73709L
				359.3256,536.93722L359.3256,537.89732L356.44523,537.41727L352.84478,536.69719L352.60475,538.85742L352.60475,539.33747L349.72438,538.85742
				L349.24432,538.85742L343.72362,537.65729L343.24356,537.41727L339.40307,536.93722L334.60246,535.97711L327.16152,534.53696
				L325.00124,532.85678L324.04112,532.13671L321.16076,529.49642L321.16076,532.37673L321.16076,533.57686L314.91996,534.53696
				L308.19911,535.49706L297.8778,536.93722L296.19759,533.09681L294.27735,528.2963L287.55649,527.09617L284.67613,526.37609L284.19607,524.45589
				L284.19607,523.49578L281.07567,516.77507L280.83564,515.81497L280.11555,515.81497L278.9154,515.57494L277.47521,515.09489L
				276.27506,514.37481L273.63473,512.69463L272.19454,511.73453L271.71448,511.49451L270.2743,511.01445L268.11402,510.05435L267.39393,509.33428
				L268.11402,506.93402L268.83412,503.81369L264.7536,500.69335L263.79348,500.2133L263.07339,499.49323L262.59332,499.01318L261.87323,498.77315
				L259.47293,497.57302L258.99287,497.333L255.87247,496.13287L255.63244,494.93274L249.87171,494.69272L236.91007,494.69272L236.91007,484.85167
				L227.30885,485.09169L227.54888,486.05179L227.54888,486.29182L217.22757,486.29182L216.74751,486.05179L216.50748,485.81177
				L216.74751,480.77123L216.74751,476.21075L216.74751,466.60972L216.26745,462.52929L214.10717,462.76931L214.58723,465.64962
				L214.10717,465.40959L214.10717,468.52993L204.50595,466.60972L200.9055,465.88965L193.46455,464.68952L193.94461,461.08913L
				193.94461,460.36906L188.42391,457.9688L180.98297,454.60844L172.82193,451.48811L167.30123,448.84783L166.10108,448.36778L156.97992,444.7674
				L157.70001,443.32724L157.45998,443.32724L155.53974,442.36714L155.77977,441.64706L157.21995,439.48683L156.49986,439.00678
				L154.57962,437.80665L152.8994,440.44693L152.41934,441.40704L152.17931,441.88709L154.09956,443.56727L152.8994,445.48747L151.45922,446.6876
				L150.25907,447.40768L150.01904,447.40768L150.01904,447.6477L149.53898,447.6477L147.85876,447.88773L147.13867,448.12775L146.65861,448.12775
				L145.69849,448.84783L145.21843,449.32788L144.9784,449.56791L144.9784,449.80793L144.73837,450.04796L140.89788,449.32788L136.3373,448.6078
				L136.3373,448.84783L135.61721,453.64834L144.25831,456.0486L144.73837,456.28862L144.73837,456.76867L144.49834,457.72878L144.25831,459.16893
				L143.77825,460.36906L142.81812,462.04924L141.858,463.96944L140.89788,465.88965L139.69773,467.56983L138.97764,469.73006L138.73761,469.73006
				L138.49758,469.49003L137.53745,468.76995L137.05739,469.49003L136.57733,469.97008L135.61721,471.17021L135.37718,471.65026
				L136.3373,472.13031L137.29742,472.85039L137.53745,473.09041L137.05739,474.53057L136.81736,474.53057L136.3373,474.29054L135.85724,473.09041
				L135.61721,472.85039L135.37718,472.85039L134.65709,472.37034L133.45694,471.65026L132.49681,471.41023L131.77672,471.41023
				L131.05663,471.41023L130.8166,471.41023L130.33654,471.41023L129.61645,470.93018L128.65633,470.69016L127.21614,470.21011L
				126.73608,470.21011L126.01599,469.73006L125.05587,468.76995L113.53441,463.00934L113.05435,463.00934L97.45237,455.32852L94.572,458.44885
				L90.97155,456.28862L86.41097,457.9688L81.85039,459.40896L79.93014,460.12903L75.84963,457.48875L73.20929,462.28926L69.12877,458.68888
				L68.40868,459.88901L67.68859,460.84911L67.68859,460.60908L65.04826,463.48939L56.16713,457.72878L52.08661,463.24936L51.84658,458.68888
				L51.36652,449.32788L51.12649,446.6876L50.88646,438.76676L50.64643,431.56599L51.12649,429.16573L50.4064,428.20563L50.4064,424.60525
				L49.92634,421.96497L49.68631,418.84463L48.96621,413.08402L47.52603,402.76292L47.04597,398.20243L46.56591,394.84208L46.56591,393.1619
				L46.56591,391.48172L46.80594,389.56151L47.76606,386.20115L48.24612,383.56087L49.44628,383.56087L49.68631,385.96113L54.96698,386.68121
				L55.20701,385.00103L57.36728,385.7211L57.36728,385.00103L58.56743,385.24105L58.80746,380.92059L60.48768,381.16062L63.36804,382.8408
				L64.08813,380.68057L64.80822,380.68057L65.04826,380.68057L65.28829,380.20051L67.44856,381.16062L67.92862,381.16062L68.88874,381.16062
				L70.08889,380.92059L70.56896,383.08082L73.44932,382.12072L73.20929,381.40064L73.44932,381.16062L73.68935,381.16062L76.80975,380.20051
				L76.80975,379.96049L79.45008,380.68057L78.72999,382.36075L78.24993,383.56087L80.17017,384.52098L80.89027,382.60077L81.37033,381.40064
				L82.81051,381.88069L83.05054,382.12072L82.57048,382.60077L82.33045,382.8408L82.09042,383.32085L81.85039,383.8009L83.05054,384.52098
				L83.5306,383.56087L82.81051,383.08082L83.5306,382.12072L84.97078,382.60077L88.57124,383.56087L93.85191,384.28095L95.29209,384.52098
				L97.6924,385.00103L101.53289,385.00103L105.13334,383.8009L108.25374,382.8408L111.61416,381.64067L114.97459,380.68057L119.7752,379.48044
				L121.45541,379.48044L125.77596,381.88069L126.97611,381.88069L128.17627,381.64067L131.77672,380.20051L132.49681,379.96049
				L133.21691,380.20051L134.89712,379.72046L135.37718,379.48044L135.13715,378.28031L134.65709,378.28031L133.937,377.80026L133.21691,377.56023
				L132.49681,376.12008L131.77672,374.4399L131.77672,372.99975L131.77672,372.5197L132.01675,372.03965L132.73685,370.35947L133.937,368.43926
				L134.89712,367.23913L137.05739,364.35883L140.17779,360.99847L141.858,359.31829L144.49834,357.39809L147.13867,355.95793L147.85876,355.47788
				L150.01904,354.27775L150.25907,354.27775L153.13943,353.07762L156.97992,349.95729L160.82041,347.31701L163.94081,345.15678
				L167.30123,342.75652L168.02132,342.5165L168.50138,342.75652L169.46151,342.99655L169.94157,343.4766L172.82193,345.39681L175.7023,347.07699
				L179.54278,349.47724L180.26288,348.51714L180.50291,348.51714L181.46303,348.27711L182.42315,348.03709L182.90321,347.55704
				L183.38327,347.07699L184.10336,346.35691L185.06349,344.91676L187.22376,342.03645L188.42391,340.83632L189.144,340.11624L190.34416,339.15614
				L191.06425,338.67609L191.54431,338.43606L195.86486,334.59566L197.54507,332.91548L198.02513,332.43543L198.98525,331.47532
				L199.46531,330.27519L201.62559,326.67481L202.58571,325.47468L203.54583,324.03453L204.50595,322.35435L204.98601,321.63427
				L205.22604,321.39425L205.94614,320.67417L208.34644,318.99399L210.98678,317.31381L214.82726,314.19348L215.78738,313.4734L
				219.14781,311.5532L220.58799,311.07315L222.26821,310.35307L223.22833,309.39297L223.70839,308.67289L224.42848,308.91292L225.62863,307.71279
				L227.54888,305.79259L228.98906,304.11241L229.46912,303.39233L229.70915,303.1523L229.94918,303.1523L230.18921,303.39233L230.66927,303.87238
				L230.66927,304.35243L231.38936,305.55256L231.86943,306.51266L232.58952,307.95282L233.06958,307.71279L233.78967,310.11305
				L235.22985,313.4734L236.67003,317.79386L237.39013,319.9541L237.87019,322.11433L238.59028,324.27456L238.83031,324.75461L239.31037,325.47468
				L240.03046,325.95473L241.71067,327.39489L243.39089,328.35499L244.35101,328.59502L245.55116,329.31509L246.27125,330.27519
				L247.23137,331.2353L250.83183,335.55576L251.31189,336.27583L252.03198,337.71599L252.27201,338.67609L252.51205,339.39617L
				252.51205,340.59629L252.75208,342.03645L252.99211,343.23658L253.23214,344.4367L253.47217,345.15678L253.95223,345.63683L255.15238,345.63683
				L256.59256,345.63683L257.79272,345.63683L258.75284,345.87686L260.19302,346.11688L261.15314,346.59693L262.35329,347.07699
				L263.79348,347.79706L264.7536,348.27711L265.95375,348.75716L266.91387,348.99719L269.07415,349.71727L270.51433,349.95729L
				272.19454,350.19732L273.63473,350.43734L277.71524,350.91739L278.1953,350.91739L279.15543,350.43734L282.51585,348.99719L283.95604,348.03709
				L284.91616,347.79706L286.11631,347.07699L286.59637,346.59693L287.31646,346.35691L288.51661,345.15678L289.9568,343.71663L
				289.9568,343.4766L291.39698,341.79642L291.87704,342.99655L292.3571,343.71663L294.51738,342.5165L293.31722,340.59629L293.07719,340.35627
				L293.31722,340.35627L294.51738,339.39617L296.91768,337.95601L298.11783,337.47596L299.31798,336.99591L299.55802,336.99591
				L300.03808,336.99591L300.51814,336.99591L300.75817,337.47596L300.9982,337.95601L301.23823,337.47596L301.71829,336.75589L
				301.95832,336.27583L303.3985,334.35563L305.55878,331.71535L306.27887,330.51522L308.9192,326.91484L309.15923,326.43479L310.83945,324.03453
				L311.55954,324.75461L312.75969,326.19476L313.95984,326.43479L315.64006,326.67481L318.28039,327.15486L318.76045,326.91484
				L318.52042,326.91484L324.28115,318.99399L328.12164,313.95346L327.88161,313.95346L327.88161,313.4734L329.56182,313.4734L330.52194,313.4734
				L331.48207,313.71343L332.44219,313.71343L335.08252,313.4734L336.52271,313.23338L337.00277,312.99335L337.72286,312.75333L
				338.20292,312.03325L338.68298,311.5532L339.40307,310.11305L340.12316,308.91292L340.84325,308.43287L341.56335,307.71279L343.00353,306.75269
				L345.64386,305.55256L347.08405,305.07251L349.00429,304.35243L349.72438,304.11241L350.6845,304.11241L351.40459,304.35243L
				356.68526,304.83248L365.80642,306.51266L367.24661,306.75269L371.32712,306.99271L375.16761,307.23274L378.76807,307.95282L
				381.16837,308.67289L382.84859,309.15294L385.00886,309.633L387.16913,310.11305L388.36929,310.11305L389.32941,310.35307L389.80947,310.5931
				L390.76959,310.5931L391.48968,310.5931L392.4498,310.5931L393.16989,310.5931L393.40993,310.5931L394.61008,310.83312L394.85011,311.07315
				L395.5702,311.31317L396.53032,311.5532L397.73047,311.79323L399.17066,312.03325L401.33093,312.5133L402.77111,312.99335L403.97127,313.23338
				L405.17142,313.4734L409.25194,313.95346L411.41221,314.43351L412.37233,314.43351L414.53261,314.91356L415.49273,314.91356L
				416.45285,315.15358L416.93291,315.39361L417.17294,315.39361L419.81328,315.87366L423.65376,315.39361L427.97431,314.19348L
				430.61465,313.95346L435.41526,312.5133L436.37538,312.5133L437.81556,312.27328L438.53565,312.03325L439.01571,312.03325L439.49577,311.79323
				L441.65605,311.5532L442.8562,311.5532L443.81632,311.31317L444.53641,311.5532L445.49654,311.79323L445.9766,312.03325L447.41678,312.5133
				L448.85696,312.99335L449.57705,313.4734L450.05711,313.71343L453.65757,315.63363L454.37766,315.87366L456.05788,316.83376L
				456.53794,316.83376L459.4183,317.79386L463.49882,318.99399L469.97964,320.67417L470.21967,320.67417L474.06016,321.8743L477.90065,323.31445
				L488.70202,326.67481L489.66214,326.91484L493.2626,329.07507L499.74342,333.87558L500.22348,334.59566L502.38375,336.27583L
				504.06397,336.99591L506.46427,337.95601L512.225,340.35627L517.98573,342.75652L521.34616,343.23658L524.46656,343.71663L523.2664,347.07699
				L523.9865,347.55704L520.38604,357.15806L521.58619,357.63811L520.38604,361.71855L520.62607,362.1986L523.02637,360.99847L525.42668,359.55832
				L527.34692,358.11816L529.98726,356.67801L532.14753,355.95793L534.78787,358.11816L534.54784,358.11816L537.18817,360.03837
				L540.06854,355.47788L541.74875,356.67801L547.26945,360.75844L549.18969,362.1986L547.02942,364.83888L544.38909,367.47916L
				541.50872,371.55959L539.10841,375.88005L538.14829,378.04028L538.38832,380.20051L539.10841,380.20051L538.14829,388.36138L
				540.5486,388.36138L543.66899,388.60141L545.34921,388.84144L543.42896,399.16254L544.86915,399.40256L542.9489,408.04348L544.38909,408.52353
				L543.90902,410.92379L543.66899,411.40384L543.18893,411.16381L538.14829,409.24361L533.82774,408.52353L532.62759,414.7642L
				530.46732,414.52417L528.06701,425.0853L524.94662,424.60525L519.90598,427.48555L518.94586,427.24553L518.70583,428.92571L517.02561,428.68568
				L514.14525,428.44566L511.02485,427.9656L509.58467,427.72558L508.62455,429.40576L507.66442,430.84591L507.90446,432.28607L
				508.86458,439.24681L508.62455,439.72686L508.38452,440.68696L507.90446,440.92699L502.14372,436.12647L500.94357,438.04668L
				498.54327,436.3665L492.06244,432.28607L492.06244,431.56599L490.86229,430.60589L490.1422,431.32596L484.6215,426.52545L483.90141,426.28543
				L481.98117,426.28543L481.98117,425.56535L478.62074,425.56535L478.38071,427.0055L477.90065,427.48555L475.26031,431.80601L
				468.29943,425.56535L466.37919,427.48555L465.17903,426.28543L463.97888,427.72558L462.05864,426.0454L460.37842,427.72558L459.65833,428.68568
				L459.17827,429.64578L458.45818,429.40576L457.49806,428.44566L455.81785,429.88581L453.41754,425.80537L449.33702,428.92571
				L447.89684,429.64578L447.65681,430.60589L445.01647,433.48619L444.77644,433.96624L444.29638,433.96624L443.09623,433.72622
				L441.89608,433.00614L440.69593,432.52609L440.4559,433.96624L440.4559,434.68632L440.21587,434.68632L439.97583,434.4463L439.01571,434.20627
				L434.45513,431.32596L432.53489,430.36586L427.97431,428.44566L427.73428,429.40576L427.25422,432.04604L426.53413,433.48619
				L426.05407,434.68632L425.09395,436.12647L424.13382,436.60653L423.1737,437.56663L422.93367,437.80665L422.21358,439.00678L
				420.53337,441.16701L419.33322,442.84719L416.21282,445.7275L413.81251,447.6477L410.93215,450.52801L410.21206,451.24809L409.732,451.48811
				L407.57172,453.64834L406.6116,455.0885L405.89151,456.28862L405.17142,455.80857L405.41145,455.32852L406.6116,454.12839L408.77187,451.72814
				L411.17218,449.08786L415.01267,445.7275L419.09318,442.12711L420.29334,440.68696L421.49349,438.52673L422.21358,437.3266L422.21358,437.08658
				L422.93367,436.12647L422.69364,435.64642L423.1737,434.68632L423.65376,434.20627L424.13382,433.96624L425.09395,431.80601L
				425.09395,431.08594L425.33398,430.60589L425.57401,429.88581L425.81404,427.72558L426.2941,427.0055L427.01419,426.76548L427.25422,426.0454
				L427.25422,425.32532L427.25422,423.64514L427.73428,422.92507L428.45437,422.20499L428.93443,420.52481L427.01419,419.56471
				L427.49425,418.36458L427.01419,418.36458L426.53413,417.64451L426.77416,416.6844L427.25422,416.20435L427.49425,415.96433L
				427.73428,415.96433L427.97431,415.96433L428.45437,415.96433L429.65452,415.00422L423.1737,409.96369L427.01419,406.60333L431.57477,405.4032
				L430.61465,403.96305L431.57477,403.24297L427.73428,397.48236L427.49425,396.76228L430.37462,396.52225L430.85468,396.52225
				L432.77492,396.0422L434.69516,394.60205L433.97507,393.88197L433.97507,393.64195L430.61465,389.56151L428.45437,391.48172L
				427.01419,390.04156L428.21434,386.92123L424.13382,386.20115L424.85392,382.60077L423.65376,382.36075L419.57325,384.04092L
				412.1323,378.52034L409.49197,376.60013L400.13078,373.71982L400.37081,372.99975L399.65072,372.5197L397.49044,372.03965L391.96974,369.39936
				L389.32941,373.23977L387.40916,372.75972L385.00886,371.79962L383.80871,371.55959L391.24965,374.4399L390.52956,380.20051L
				395.33017,381.40064L394.85011,385.96113L394.85011,386.44118L396.77035,386.44118L397.73047,386.68121L396.53032,392.44182L
				395.81023,392.68185L395.5702,393.64195L386.44904,391.00167L385.96898,392.92187L385.72895,393.88197L392.4498,399.40256L392.4498,399.88261
				L391.96974,401.08274L392.20977,402.04284L391.48968,403.24297L390.76959,404.4431L390.52956,404.92315L390.0495,406.12328L388.60932,407.80346
				L386.20901,406.3633L384.04874,409.24361L382.12849,412.12392L381.64843,412.60397L383.56868,414.04412L383.56868,414.28415L
				383.80871,414.28415L382.84859,415.00422L382.60855,414.52417L380.68831,415.96433L379.24813,415.48427L379.0081,415.96433L378.04798,417.16445
				L378.52804,417.88453L378.76807,418.36458L378.28801,418.84463L377.56791,419.32468L377.08785,420.28479L376.84782,420.52481
				L377.80795,421.00486L378.76807,421.72494L381.4084,423.88517L381.4084,424.1252L380.68831,426.0454L380.44828,427.0055L382.84859,427.48555
				L385.24889,428.68568L386.20901,427.72558L387.16913,425.0853L388.36929,423.40512L388.36929,422.44502L391.00962,420.04476L
				390.0495,419.32468L391.72971,417.88453L392.20977,418.36458L393.40993,417.88453L395.5702,421.96497L396.05026,422.92507L396.05026,423.88517
				L396.05026,424.84527L395.81023,425.56535L395.5702,426.52545L395.09014,427.48555L394.85011,428.20563L394.37005,429.16573L
				393.88999,429.88581L393.40993,430.84591L393.16989,431.56599L391.72971,431.56599L390.76959,432.76612L392.20977,435.4064L393.16989,435.16637
				L393.88999,437.08658L395.09014,436.60653L395.33017,437.56663L395.5702,438.52673L395.5702,439.96688L395.5702,441.16701L395.81023,442.60717
				L395.81023,443.32724L395.5702,444.28734L395.09014,446.20755L394.61008,447.16765L392.68983,445.96752L392.4498,447.16765L394.37005,447.88773
				L393.64996,450.28798L393.16989,451.72814L391.00962,458.44885L391.00962,458.68888L390.76959,458.68888L389.32941,458.9289L
				389.08938,458.9289L385.00886,459.16893L382.36852,459.40896L381.64843,459.40896L381.64843,459.64898L381.16837,459.64898L375.40764,459.88901
				L374.44752,460.12903zM174.98221,407.56343L175.22224,405.88325L175.22224,405.4032L175.46227,404.68312L175.7023,403.483L176.18236,402.04284
				L176.90245,400.60269L177.86257,399.40256L178.1026,398.92251L178.82269,397.96241L180.02285,395.80218L180.50291,395.32213L
				180.50291,395.0821L180.26288,394.84208L179.78282,394.84208L180.02285,394.36202L181.223,390.76164L180.26288,390.28159L177.86257,391.96177
				L177.62254,394.122L173.78205,393.88197L171.62178,393.88197L170.90169,393.88197L170.66166,394.84208L170.66166,397.24233L171.38175,398.44246
				L172.10184,399.88261L172.10184,402.52289L171.38175,402.52289L171.14172,403.483L169.46151,403.483L169.22148,403.483L168.50138,403.24297
				L167.78129,402.76292L167.54126,402.76292L166.58114,402.04284L165.86105,400.84271L165.38099,400.36266L164.6609,399.40256L
				163.94081,397.96241L163.46074,398.20243L162.74065,398.68248L163.70077,401.32277L164.90093,403.00294L166.10108,402.76292L
				166.58114,403.24297L167.30123,403.00294L168.98144,403.72302L168.98144,405.16318L170.66166,406.84335L171.86181,407.08338L
				174.26211,407.32341L174.98221,407.56343zM163.94081,391.24169L163.70077,389.32149L164.42087,388.12136L164.42087,387.88133
				L164.18084,387.64131L162.50062,386.20115L160.82041,385.48108L162.02056,382.36075L159.86029,381.64067L158.90017,384.52098
				L158.4201,385.00103L157.94004,384.761L156.49986,386.68121L156.0198,386.92123L155.77977,386.68121L155.53974,386.44118L154.33959,384.28095
				L153.13943,382.12072L156.73989,382.60077L157.21995,382.36075L157.45998,381.40064L158.4201,379.72046L159.86029,376.36011L
				161.06044,376.84016L163.46074,378.04028L163.70077,376.84016L161.5405,375.88005L162.02056,374.4399L160.10032,373.95985L159.86029,373.4798
				L158.90017,372.99975L158.18007,372.75972L157.70001,373.95985L155.77977,373.4798L156.0198,372.75972L155.53974,372.5197L155.77977,372.03965
				L156.0198,371.31957L156.73989,370.35947L156.97992,369.39936L155.77977,367.47916L156.25983,366.75908L156.73989,365.31893L
				154.57962,365.0789L153.6195,367.95921L154.81965,367.71918L154.09956,368.67929L152.65937,370.83952L152.41934,371.31957L152.17931,372.03965
				L151.93928,373.71982L151.93928,376.36011L151.93928,377.56023L152.17931,379.72046L152.41934,380.92059L152.65937,381.64067
				L153.37946,383.08082L153.85953,384.28095L154.09956,384.761L152.8994,385.48108L153.85953,387.88133L155.05968,387.16126L155.29971,386.92123
				L156.0198,386.92123L158.4201,387.40128L160.82041,387.64131L162.74065,388.60141L163.46074,389.32149L163.46074,390.04156L163.94081,391.24169
				L163.70077,392.20179L163.94081,393.1619L164.42087,394.122L164.90093,394.122L167.0612,393.88197L167.0612,393.1619L166.82117,391.24169
				L163.94081,391.24169zM193.22452,364.83888L192.74446,366.03901L192.2644,365.79898L191.06425,368.67929L190.82422,369.15934
				L193.70458,369.63939L194.6647,369.87942L194.90473,369.63939L196.34492,365.0789L196.82498,363.87878L197.30504,362.91867L198.26516,361.23849
				L198.98525,360.03837L199.46531,359.55832L199.70534,358.83824L199.22528,358.59821L197.7851,357.87814L197.30504,357.63811L
				195.62483,357.15806L193.70458,356.43798L193.46455,356.43798L192.98449,358.83824L195.86486,359.79834L195.3848,361.47852L195.3848,361.95857
				L192.2644,361.95857L191.30428,363.87878L190.82422,364.35883L192.50443,364.59885L193.22452,364.83888zM354.28496,361.71855
				L354.76502,363.87878L356.68526,363.39872L356.44523,364.59885L355.96517,366.51906L354.28496,366.27903L354.28496,366.03901
				L350.20444,367.71918L352.60475,372.03965L353.56487,373.4798L353.08481,373.71982L352.84478,373.71982L352.60475,373.95985L
				351.88466,373.95985L351.16456,373.95985L350.6845,373.95985L349.96441,374.19988L350.20444,375.88005L353.08481,377.80026L352.84478,378.28031
				L353.32484,378.76036L355.24508,380.20051L355.72514,379.48044L356.44523,379.72046L357.40536,379.72046L359.56563,380.68057
				L360.52575,379.96049L361.00581,380.44054L361.24584,380.92059L361.96594,380.68057L360.76578,378.52034L360.04569,378.76036
				L359.80566,379.00039L358.84554,378.76036L356.9253,378.52034L357.40536,377.56023L356.9253,377.32021L356.44523,376.60013L356.44523,376.84016
				L355.96517,376.12008L356.2052,375.88005L355.72514,375.64003L355.48511,375.15998L354.28496,375.88005L354.28496,375.15998L
				354.28496,373.95985L354.76502,372.99975L355.00505,372.03965L358.36548,372.5197L358.36548,371.79962L359.08557,369.87942L359.08557,369.63939
				L357.88542,369.15934L357.88542,366.99911L356.2052,366.75908L357.16533,361.95857L359.08557,362.67865L359.08557,362.1986L359.80566,362.1986
				L360.76578,359.31829L360.28572,358.83824L360.04569,358.35819L359.80566,357.15806L359.56563,355.95793L358.12545,356.19796
				L357.88542,355.95793L357.88542,356.19796L357.40536,359.07826L357.16533,361.23849L354.28496,361.71855zM380.68831,370.59949
				L381.16837,370.59949L380.92834,370.35947L380.68831,370.59949zM186.02361,381.16062L184.58342,380.44054L181.94309,380.44054
				L178.82269,381.40064L177.38251,383.08082L176.90245,383.56087L183.14324,383.56087L183.14324,383.8009L183.38327,384.761L182.90321,385.96113
				L182.42315,385.96113L181.94309,386.20115L181.223,387.40128L182.66318,387.40128L183.38327,386.20115L184.10336,384.761L185.30352,382.12072
				L185.78358,381.40064L186.02361,381.16062zM360.28572,383.56087L360.52575,387.16126L361.24584,387.16126L361.00581,388.36138
				L360.76578,389.32149L359.3256,390.04156L360.28572,390.76164L360.28572,392.20179L360.28572,392.92187L360.28572,393.40192L
				360.04569,393.88197L359.80566,395.80218L358.84554,398.44246L359.80566,399.88261L361.7259,399.40256L362.20597,397.24233L362.446,395.80218
				L362.92606,395.80218L364.12621,395.80218L364.12621,394.60205L364.60627,394.36202L364.60627,391.96177L363.16609,392.20179
				L362.92606,391.24169L363.40612,390.52161L364.12621,388.60141L362.68603,388.36138L363.40612,385.7211L362.92606,385.48108L
				363.16609,384.761L363.88618,385.00103L365.08633,385.24105L365.80642,385.24105L365.56639,383.56087L363.88618,383.32085L363.64615,383.32085
				L363.40612,383.32085L362.20597,382.8408L361.48587,381.40064L361.48587,382.12072L361.7259,383.08082L361.7259,383.32085L361.7259,383.56087
				L360.28572,383.56087zM230.18921,403.24297L229.70915,403.483L229.22909,403.483L228.98906,403.483L228.26897,404.4431L227.78891,404.68312
				L229.46912,405.64323L229.70915,405.4032L230.42924,404.68312L229.94918,404.20307L230.18921,403.24297L231.62939,403.483L232.82955,403.483
				L234.0297,403.24297L235.94994,402.76292L237.87019,402.04284L238.11022,402.04284L238.59028,401.32277L239.07034,400.84271L
				239.31037,400.12264L240.75055,400.36266L241.23061,400.36266L241.47064,399.40256L241.71067,398.44246L239.31037,398.20243L
				239.07034,399.40256L238.11022,398.68248L237.1501,398.68248L237.39013,394.122L234.50976,397.96241L231.62939,401.32277L230.42924,402.76292
				L230.18921,403.24297zM217.22757,405.4032L217.4676,403.72302L216.98754,403.96305L215.30732,404.4431L213.38708,404.92315L210.98678,405.4032
				L211.22681,406.12328L211.22681,407.08338L214.10717,406.12328L216.50748,405.4032L217.22757,405.4032zM193.94461,404.4431L195.3848,403.24297
				L195.14476,403.00294L194.6647,402.28287L194.18464,401.80282L193.94461,401.32277L193.46455,400.36266L192.98449,399.40256L
				192.50443,398.92251L192.02437,398.44246L191.30428,398.20243L190.58419,397.96241L188.90397,397.24233L187.94385,397.00231L
				187.94385,396.76228L186.7437,401.32277L186.7437,402.04284L189.38403,402.28287L189.86409,402.52289L190.82422,402.76292L190.82422,405.16318
				L190.82422,405.88325L193.70458,406.12328L193.94461,404.4431zM190.58419,378.04028L190.34416,378.04028L189.86409,377.32021
				L188.90397,378.04028L187.46379,377.56023L187.22376,378.04028L187.22376,378.52034L186.98373,378.76036L186.7437,379.00039L
				186.98373,379.72046L187.46379,380.20051L187.94385,379.72046L188.90397,379.00039L189.144,379.00039L190.58419,378.04028zM429.65452,420.52481
				L429.65452,421.24489L430.37462,420.76484L429.65452,420.52481z"/>
			<path clip-path="url(#SVG_CP_2)" fill="none" stroke="none" stroke-width="" stra="1.44018" stroke-miterlimit="10" stroke-linecap="round" stroke-linejoin="round" d="
				M374.44752,460.12903L373.24737,459.88901L372.04721,466.12967L371.56715,469.00998L371.56715,470.21011L371.32712,471.65026
				L371.08709,472.85039L370.84706,473.81049L370.60703,473.81049L370.60703,474.05052L370.367,474.53057L369.64691,475.01062L369.16685,475.49067
				L368.20673,476.21075L367.00657,476.93082L366.28648,477.41087L365.56639,478.13095L365.32636,478.37098L365.08633,478.611L364.8463,478.85103
				L364.36624,479.33108L363.88618,480.05116L363.40612,480.77123L362.68603,481.73133L362.446,482.69144L362.20597,483.41151L361.96594,483.89156
				L361.7259,484.37162L361.7259,484.61164L361.7259,485.57174L361.96594,487.0119L362.20597,488.21202L362.68603,489.41215L362.92606,490.37225
				L363.64615,491.81241L365.80642,497.09297L366.52651,498.77315L366.76654,499.73325L366.76654,500.93338L367.24661,504.29374
				L367.72667,506.93402L367.72667,507.89412L367.72667,508.85422L367.72667,509.33428L367.72667,510.29438L367.48664,511.49451
				L367.24661,512.69463L367.00657,513.65474L366.76654,514.85486L366.52651,515.81497L366.28648,517.25512L366.04645,518.69527
				L365.56639,520.37545L365.32636,521.81561L365.08633,523.01573L364.60627,523.97584L364.60627,524.45589L363.88618,525.41599
				L362.92606,526.85614L361.96594,528.2963L361.24584,529.49642L360.76578,530.93658L360.52575,531.65665L360.28572,532.61676L
				359.80566,534.05691L359.56563,535.73709L359.3256,536.93722L359.3256,537.89732L356.44523,537.41727L352.84478,536.69719L352.60475,538.85742
				L352.60475,539.33747L349.72438,538.85742L349.24432,538.85742L343.72362,537.65729L343.24356,537.41727L339.40307,536.93722
				L334.60246,535.97711L327.16152,534.53696L325.00124,532.85678L324.04112,532.13671L321.16076,529.49642L321.16076,532.37673
				L321.16076,533.57686L314.91996,534.53696L308.19911,535.49706L297.8778,536.93722L296.19759,533.09681L294.27735,528.2963L287.55649,527.09617
				L284.67613,526.37609L284.19607,524.45589L284.19607,523.49578L281.07567,516.77507L280.83564,515.81497L280.11555,515.81497
				L278.9154,515.57494L277.47521,515.09489L276.27506,514.37481L273.63473,512.69463L272.19454,511.73453L271.71448,511.49451L
				270.2743,511.01445L268.11402,510.05435L267.39393,509.33428L268.11402,506.93402L268.83412,503.81369L264.7536,500.69335L263.79348,500.2133
				L263.07339,499.49323L262.59332,499.01318L261.87323,498.77315L259.47293,497.57302L258.99287,497.333L255.87247,496.13287L255.63244,494.93274
				L249.87171,494.69272L236.91007,494.69272L236.91007,484.85167L227.30885,485.09169L227.54888,486.05179L227.54888,486.29182
				L217.22757,486.29182L216.74751,486.05179L216.50748,485.81177L216.74751,480.77123L216.74751,476.21075L216.74751,466.60972
				L216.26745,462.52929L214.10717,462.76931L214.58723,465.64962L214.10717,465.40959L214.10717,468.52993L204.50595,466.60972
				L200.9055,465.88965L193.46455,464.68952L193.94461,461.08913L193.94461,460.36906L188.42391,457.9688L180.98297,454.60844L172.82193,451.48811
				L167.30123,448.84783L166.10108,448.36778L156.97992,444.7674L157.70001,443.32724L157.45998,443.32724L155.53974,442.36714L
				155.77977,441.64706L157.21995,439.48683L156.49986,439.00678L154.57962,437.80665L152.8994,440.44693L152.41934,441.40704L152.17931,441.88709
				L154.09956,443.56727L152.8994,445.48747L151.45922,446.6876L150.25907,447.40768L150.01904,447.40768L150.01904,447.6477L149.53898,447.6477
				L147.85876,447.88773L147.13867,448.12775L146.65861,448.12775L145.69849,448.84783L145.21843,449.32788L144.9784,449.56791L
				144.9784,449.80793L144.73837,450.04796L140.89788,449.32788L136.3373,448.6078L136.3373,448.84783L135.61721,453.64834L144.25831,456.0486
				L144.73837,456.28862L144.73837,456.76867L144.49834,457.72878L144.25831,459.16893L143.77825,460.36906L142.81812,462.04924
				L141.858,463.96944L140.89788,465.88965L139.69773,467.56983L138.97764,469.73006L138.73761,469.73006L138.49758,469.49003L137.53745,468.76995
				L137.05739,469.49003L136.57733,469.97008L135.61721,471.17021L135.37718,471.65026L136.3373,472.13031L137.29742,472.85039L
				137.53745,473.09041L137.05739,474.53057L136.81736,474.53057L136.3373,474.29054L135.85724,473.09041L135.61721,472.85039L135.37718,472.85039
				L134.65709,472.37034L133.45694,471.65026L132.49681,471.41023L131.77672,471.41023L131.05663,471.41023L130.8166,471.41023L
				130.33654,471.41023L129.61645,470.93018L128.65633,470.69016L127.21614,470.21011L126.73608,470.21011L126.01599,469.73006L
				125.05587,468.76995L113.53441,463.00934L113.05435,463.00934L97.45237,455.32852L94.572,458.44885L90.97155,456.28862L86.41097,457.9688
				L81.85039,459.40896L79.93014,460.12903L75.84963,457.48875L73.20929,462.28926L69.12877,458.68888L68.40868,459.88901L67.68859,460.84911
				L67.68859,460.60908L65.04826,463.48939L56.16713,457.72878L52.08661,463.24936L51.84658,458.68888L51.36652,449.32788L51.12649,446.6876
				L50.88646,438.76676L50.64643,431.56599L51.12649,429.16573L50.4064,428.20563L50.4064,424.60525L49.92634,421.96497L49.68631,418.84463
				L48.96621,413.08402L47.52603,402.76292L47.04597,398.20243L46.56591,394.84208L46.56591,393.1619L46.56591,391.48172L46.80594,389.56151
				L47.76606,386.20115L48.24612,383.56087L49.44628,383.56087L49.68631,385.96113L54.96698,386.68121L55.20701,385.00103L57.36728,385.7211
				L57.36728,385.00103L58.56743,385.24105L58.80746,380.92059L60.48768,381.16062L63.36804,382.8408L64.08813,380.68057L64.80822,380.68057
				L65.04826,380.68057L65.28829,380.20051L67.44856,381.16062L67.92862,381.16062L68.88874,381.16062L70.08889,380.92059L70.56896,383.08082
				L73.44932,382.12072L73.20929,381.40064L73.44932,381.16062L73.68935,381.16062L76.80975,380.20051L76.80975,379.96049L79.45008,380.68057
				L78.72999,382.36075L78.24993,383.56087L80.17017,384.52098L80.89027,382.60077L81.37033,381.40064L82.81051,381.88069L83.05054,382.12072
				L82.57048,382.60077L82.33045,382.8408L82.09042,383.32085L81.85039,383.8009L83.05054,384.52098L83.5306,383.56087L82.81051,383.08082
				L83.5306,382.12072L84.97078,382.60077L88.57124,383.56087L93.85191,384.28095L95.29209,384.52098L97.6924,385.00103L101.53289,385.00103
				L105.13334,383.8009L108.25374,382.8408L111.61416,381.64067L114.97459,380.68057L119.7752,379.48044L121.45541,379.48044L125.77596,381.88069
				L126.97611,381.88069L128.17627,381.64067L131.77672,380.20051L132.49681,379.96049L133.21691,380.20051L134.89712,379.72046
				L135.37718,379.48044L135.13715,378.28031L134.65709,378.28031L133.937,377.80026L133.21691,377.56023L132.49681,376.12008L131.77672,374.4399
				L131.77672,372.99975L131.77672,372.5197L132.01675,372.03965L132.73685,370.35947L133.937,368.43926L134.89712,367.23913L137.05739,364.35883
				L140.17779,360.99847L141.858,359.31829L144.49834,357.39809L147.13867,355.95793L147.85876,355.47788L150.01904,354.27775L150.25907,354.27775
				L153.13943,353.07762L156.97992,349.95729L160.82041,347.31701L163.94081,345.15678L167.30123,342.75652L168.02132,342.5165L
				168.50138,342.75652L169.46151,342.99655L169.94157,343.4766L172.82193,345.39681L175.7023,347.07699L179.54278,349.47724L180.26288,348.51714
				L180.50291,348.51714L181.46303,348.27711L182.42315,348.03709L182.90321,347.55704L183.38327,347.07699L184.10336,346.35691
				L185.06349,344.91676L187.22376,342.03645L188.42391,340.83632L189.144,340.11624L190.34416,339.15614L191.06425,338.67609L191.54431,338.43606
				L195.86486,334.59566L197.54507,332.91548L198.02513,332.43543L198.98525,331.47532L199.46531,330.27519L201.62559,326.67481
				L202.58571,325.47468L203.54583,324.03453L204.50595,322.35435L204.98601,321.63427L205.22604,321.39425L205.94614,320.67417
				L208.34644,318.99399L210.98678,317.31381L214.82726,314.19348L215.78738,313.4734L219.14781,311.5532L220.58799,311.07315L222.26821,310.35307
				L223.22833,309.39297L223.70839,308.67289L224.42848,308.91292L225.62863,307.71279L227.54888,305.79259L228.98906,304.11241
				L229.46912,303.39233L229.70915,303.1523L229.94918,303.1523L230.18921,303.39233L230.66927,303.87238L230.66927,304.35243L231.38936,305.55256
				L231.86943,306.51266L232.58952,307.95282L233.06958,307.71279L233.78967,310.11305L235.22985,313.4734L236.67003,317.79386L
				237.39013,319.9541L237.87019,322.11433L238.59028,324.27456L238.83031,324.75461L239.31037,325.47468L240.03046,325.95473L241.71067,327.39489
				L243.39089,328.35499L244.35101,328.59502L245.55116,329.31509L246.27125,330.27519L247.23137,331.2353L250.83183,335.55576L
				251.31189,336.27583L252.03198,337.71599L252.27201,338.67609L252.51205,339.39617L252.51205,340.59629L252.75208,342.03645L
				252.99211,343.23658L253.23214,344.4367L253.47217,345.15678L253.95223,345.63683L255.15238,345.63683L256.59256,345.63683L257.79272,345.63683
				L258.75284,345.87686L260.19302,346.11688L261.15314,346.59693L262.35329,347.07699L263.79348,347.79706L264.7536,348.27711L
				265.95375,348.75716L266.91387,348.99719L269.07415,349.71727L270.51433,349.95729L272.19454,350.19732L273.63473,350.43734L
				277.71524,350.91739L278.1953,350.91739L279.15543,350.43734L282.51585,348.99719L283.95604,348.03709L284.91616,347.79706L286.11631,347.07699
				L286.59637,346.59693L287.31646,346.35691L288.51661,345.15678L289.9568,343.71663L289.9568,343.4766L291.39698,341.79642L291.87704,342.99655
				L292.3571,343.71663L294.51738,342.5165L293.31722,340.59629L293.07719,340.35627L293.31722,340.35627L294.51738,339.39617L296.91768,337.95601
				L298.11783,337.47596L299.31798,336.99591L299.55802,336.99591L300.03808,336.99591L300.51814,336.99591L300.75817,337.47596
				L300.9982,337.95601L301.23823,337.47596L301.71829,336.75589L301.95832,336.27583L303.3985,334.35563L305.55878,331.71535L306.27887,330.51522
				L308.9192,326.91484L309.15923,326.43479L310.83945,324.03453L311.55954,324.75461L312.75969,326.19476L313.95984,326.43479L
				315.64006,326.67481L318.28039,327.15486L318.76045,326.91484L318.52042,326.91484L324.28115,318.99399L328.12164,313.95346L
				327.88161,313.95346L327.88161,313.4734L329.56182,313.4734L330.52194,313.4734L331.48207,313.71343L332.44219,313.71343L335.08252,313.4734
				L336.52271,313.23338L337.00277,312.99335L337.72286,312.75333L338.20292,312.03325L338.68298,311.5532L339.40307,310.11305L
				340.12316,308.91292L340.84325,308.43287L341.56335,307.71279L343.00353,306.75269L345.64386,305.55256L347.08405,305.07251L
				349.00429,304.35243L349.72438,304.11241L350.6845,304.11241L351.40459,304.35243L356.68526,304.83248L365.80642,306.51266L367.24661,306.75269
				L371.32712,306.99271L375.16761,307.23274L378.76807,307.95282L381.16837,308.67289L382.84859,309.15294L385.00886,309.633L387.16913,310.11305
				L388.36929,310.11305L389.32941,310.35307L389.80947,310.5931L390.76959,310.5931L391.48968,310.5931L392.4498,310.5931L393.16989,310.5931
				L393.40993,310.5931L394.61008,310.83312L394.85011,311.07315L395.5702,311.31317L396.53032,311.5532L397.73047,311.79323L399.17066,312.03325
				L401.33093,312.5133L402.77111,312.99335L403.97127,313.23338L405.17142,313.4734L409.25194,313.95346L411.41221,314.43351L412.37233,314.43351
				L414.53261,314.91356L415.49273,314.91356L416.45285,315.15358L416.93291,315.39361L417.17294,315.39361L419.81328,315.87366
				L423.65376,315.39361L427.97431,314.19348L430.61465,313.95346L435.41526,312.5133L436.37538,312.5133L437.81556,312.27328L438.53565,312.03325
				L439.01571,312.03325L439.49577,311.79323L441.65605,311.5532L442.8562,311.5532L443.81632,311.31317L444.53641,311.5532L445.49654,311.79323
				L445.9766,312.03325L447.41678,312.5133L448.85696,312.99335L449.57705,313.4734L450.05711,313.71343L453.65757,315.63363L454.37766,315.87366
				L456.05788,316.83376L456.53794,316.83376L459.4183,317.79386L463.49882,318.99399L469.97964,320.67417L470.21967,320.67417L
				474.06016,321.8743L477.90065,323.31445L488.70202,326.67481L489.66214,326.91484L493.2626,329.07507L499.74342,333.87558L500.22348,334.59566
				L502.38375,336.27583L504.06397,336.99591L506.46427,337.95601L512.225,340.35627L517.98573,342.75652L521.34616,343.23658L524.46656,343.71663
				L523.2664,347.07699L523.9865,347.55704L520.38604,357.15806L521.58619,357.63811L520.38604,361.71855L520.62607,362.1986L523.02637,360.99847
				L525.42668,359.55832L527.34692,358.11816L529.98726,356.67801L532.14753,355.95793L534.78787,358.11816L534.54784,358.11816
				L537.18817,360.03837L540.06854,355.47788L541.74875,356.67801L547.26945,360.75844L549.18969,362.1986L547.02942,364.83888L
				544.38909,367.47916L541.50872,371.55959L539.10841,375.88005L538.14829,378.04028L538.38832,380.20051L539.10841,380.20051L
				538.14829,388.36138L540.5486,388.36138L543.66899,388.60141L545.34921,388.84144L543.42896,399.16254L544.86915,399.40256L542.9489,408.04348
				L544.38909,408.52353L543.90902,410.92379L543.66899,411.40384L543.18893,411.16381L538.14829,409.24361L533.82774,408.52353
				L532.62759,414.7642L530.46732,414.52417L528.06701,425.0853L524.94662,424.60525L519.90598,427.48555L518.94586,427.24553L518.70583,428.92571
				L517.02561,428.68568L514.14525,428.44566L511.02485,427.9656L509.58467,427.72558L508.62455,429.40576L507.66442,430.84591L
				507.90446,432.28607L508.86458,439.24681L508.62455,439.72686L508.38452,440.68696L507.90446,440.92699L502.14372,436.12647L
				500.94357,438.04668L498.54327,436.3665L492.06244,432.28607L492.06244,431.56599L490.86229,430.60589L490.1422,431.32596L484.6215,426.52545
				L483.90141,426.28543L481.98117,426.28543L481.98117,425.56535L478.62074,425.56535L478.38071,427.0055L477.90065,427.48555L
				475.26031,431.80601L468.29943,425.56535L466.37919,427.48555L465.17903,426.28543L463.97888,427.72558L462.05864,426.0454L460.37842,427.72558
				L459.65833,428.68568L459.17827,429.64578L458.45818,429.40576L457.49806,428.44566L455.81785,429.88581L453.41754,425.80537
				L449.33702,428.92571L447.89684,429.64578L447.65681,430.60589L445.01647,433.48619L444.77644,433.96624L444.29638,433.96624
				L443.09623,433.72622L441.89608,433.00614L440.69593,432.52609L440.4559,433.96624L440.4559,434.68632L440.21587,434.68632L439.97583,434.4463
				L439.01571,434.20627L434.45513,431.32596L432.53489,430.36586L427.97431,428.44566L427.73428,429.40576L427.25422,432.04604
				L426.53413,433.48619L426.05407,434.68632L425.09395,436.12647L424.13382,436.60653L423.1737,437.56663L422.93367,437.80665L
				422.21358,439.00678L420.53337,441.16701L419.33322,442.84719L416.21282,445.7275L413.81251,447.6477L410.93215,450.52801L410.21206,451.24809
				L409.732,451.48811L407.57172,453.64834L406.6116,455.0885L405.89151,456.28862L405.17142,455.80857L405.41145,455.32852L406.6116,454.12839
				L408.77187,451.72814L411.17218,449.08786L415.01267,445.7275L419.09318,442.12711L420.29334,440.68696L421.49349,438.52673L
				422.21358,437.3266L422.21358,437.08658L422.93367,436.12647L422.69364,435.64642L423.1737,434.68632L423.65376,434.20627L424.13382,433.96624
				L425.09395,431.80601L425.09395,431.08594L425.33398,430.60589L425.57401,429.88581L425.81404,427.72558L426.2941,427.0055L427.01419,426.76548
				L427.25422,426.0454L427.25422,425.32532L427.25422,423.64514L427.73428,422.92507L428.45437,422.20499L428.93443,420.52481L
				427.01419,419.56471L427.49425,418.36458L427.01419,418.36458L426.53413,417.64451L426.77416,416.6844L427.25422,416.20435L427.49425,415.96433
				L427.73428,415.96433L427.97431,415.96433L428.45437,415.96433L429.65452,415.00422L423.1737,409.96369L427.01419,406.60333L
				431.57477,405.4032L430.61465,403.96305L431.57477,403.24297L427.73428,397.48236L427.49425,396.76228L430.37462,396.52225L430.85468,396.52225
				L432.77492,396.0422L434.69516,394.60205L433.97507,393.88197L433.97507,393.64195L430.61465,389.56151L428.45437,391.48172L
				427.01419,390.04156L428.21434,386.92123L424.13382,386.20115L424.85392,382.60077L423.65376,382.36075L419.57325,384.04092L
				412.1323,378.52034L409.49197,376.60013L400.13078,373.71982L400.37081,372.99975L399.65072,372.5197L397.49044,372.03965L391.96974,369.39936
				L389.32941,373.23977L387.40916,372.75972L385.00886,371.79962L383.80871,371.55959L391.24965,374.4399L390.52956,380.20051L
				395.33017,381.40064L394.85011,385.96113L394.85011,386.44118L396.77035,386.44118L397.73047,386.68121L396.53032,392.44182L
				395.81023,392.68185L395.5702,393.64195L386.44904,391.00167L385.96898,392.92187L385.72895,393.88197L392.4498,399.40256L392.4498,399.88261
				L391.96974,401.08274L392.20977,402.04284L391.48968,403.24297L390.76959,404.4431L390.52956,404.92315L390.0495,406.12328L388.60932,407.80346
				L386.20901,406.3633L384.04874,409.24361L382.12849,412.12392L381.64843,412.60397L383.56868,414.04412L383.56868,414.28415L
				383.80871,414.28415L382.84859,415.00422L382.60855,414.52417L380.68831,415.96433L379.24813,415.48427L379.0081,415.96433L378.04798,417.16445
				L378.52804,417.88453L378.76807,418.36458L378.28801,418.84463L377.56791,419.32468L377.08785,420.28479L376.84782,420.52481
				L377.80795,421.00486L378.76807,421.72494L381.4084,423.88517L381.4084,424.1252L380.68831,426.0454L380.44828,427.0055L382.84859,427.48555
				L385.24889,428.68568L386.20901,427.72558L387.16913,425.0853L388.36929,423.40512L388.36929,422.44502L391.00962,420.04476L
				390.0495,419.32468L391.72971,417.88453L392.20977,418.36458L393.40993,417.88453L395.5702,421.96497L396.05026,422.92507L396.05026,423.88517
				L396.05026,424.84527L395.81023,425.56535L395.5702,426.52545L395.09014,427.48555L394.85011,428.20563L394.37005,429.16573L
				393.88999,429.88581L393.40993,430.84591L393.16989,431.56599L391.72971,431.56599L390.76959,432.76612L392.20977,435.4064L393.16989,435.16637
				L393.88999,437.08658L395.09014,436.60653L395.33017,437.56663L395.5702,438.52673L395.5702,439.96688L395.5702,441.16701L395.81023,442.60717
				L395.81023,443.32724L395.5702,444.28734L395.09014,446.20755L394.61008,447.16765L392.68983,445.96752L392.4498,447.16765L394.37005,447.88773
				L393.64996,450.28798L393.16989,451.72814L391.00962,458.44885L391.00962,458.68888L390.76959,458.68888L389.32941,458.9289L
				389.08938,458.9289L385.00886,459.16893L382.36852,459.40896L381.64843,459.40896L381.64843,459.64898L381.16837,459.64898L375.40764,459.88901
				L374.44752,460.12903"/>
			<path clip-path="url(#SVG_CP_2)" fill="none" stroke="none" stroke-width="" stra="1.44018" stroke-miterlimit="10" stroke-linecap="round" stroke-linejoin="round" d="
				M174.98221,407.56343L175.22224,405.88325L175.22224,405.4032L175.46227,404.68312L175.7023,403.483L176.18236,402.04284L176.90245,400.60269
				L177.86257,399.40256L178.1026,398.92251L178.82269,397.96241L180.02285,395.80218L180.50291,395.32213L180.50291,395.0821L180.26288,394.84208
				L179.78282,394.84208L180.02285,394.36202L181.223,390.76164L180.26288,390.28159L177.86257,391.96177L177.62254,394.122L173.78205,393.88197
				L171.62178,393.88197L170.90169,393.88197L170.66166,394.84208L170.66166,397.24233L171.38175,398.44246L172.10184,399.88261
				L172.10184,402.52289L171.38175,402.52289L171.14172,403.483L169.46151,403.483L169.22148,403.483L168.50138,403.24297L167.78129,402.76292
				L167.54126,402.76292L166.58114,402.04284L165.86105,400.84271L165.38099,400.36266L164.6609,399.40256L163.94081,397.96241L
				163.46074,398.20243L162.74065,398.68248L163.70077,401.32277L164.90093,403.00294L166.10108,402.76292L166.58114,403.24297L
				167.30123,403.00294L168.98144,403.72302L168.98144,405.16318L170.66166,406.84335L171.86181,407.08338L174.26211,407.32341L
				174.98221,407.56343"/>
			<path clip-path="url(#SVG_CP_2)" fill="none" stroke="none" stroke-width="" stra="1.44018" stroke-miterlimit="10" stroke-linecap="round" stroke-linejoin="round" d="
				M163.94081,391.24169L163.70077,389.32149L164.42087,388.12136L164.42087,387.88133L164.18084,387.64131L162.50062,386.20115
				L160.82041,385.48108L162.02056,382.36075L159.86029,381.64067L158.90017,384.52098L158.4201,385.00103L157.94004,384.761L156.49986,386.68121
				L156.0198,386.92123L155.77977,386.68121L155.53974,386.44118L154.33959,384.28095L153.13943,382.12072L156.73989,382.60077L
				157.21995,382.36075L157.45998,381.40064L158.4201,379.72046L159.86029,376.36011L161.06044,376.84016L163.46074,378.04028L163.70077,376.84016
				L161.5405,375.88005L162.02056,374.4399L160.10032,373.95985L159.86029,373.4798L158.90017,372.99975L158.18007,372.75972L157.70001,373.95985
				L155.77977,373.4798L156.0198,372.75972L155.53974,372.5197L155.77977,372.03965L156.0198,371.31957L156.73989,370.35947L156.97992,369.39936
				L155.77977,367.47916L156.25983,366.75908L156.73989,365.31893L154.57962,365.0789L153.6195,367.95921L154.81965,367.71918L154.09956,368.67929
				L152.65937,370.83952L152.41934,371.31957L152.17931,372.03965L151.93928,373.71982L151.93928,376.36011L151.93928,377.56023
				L152.17931,379.72046L152.41934,380.92059L152.65937,381.64067L153.37946,383.08082L153.85953,384.28095L154.09956,384.761L152.8994,385.48108
				L153.85953,387.88133L155.05968,387.16126L155.29971,386.92123L156.0198,386.92123L158.4201,387.40128L160.82041,387.64131L162.74065,388.60141
				L163.46074,389.32149L163.46074,390.04156L163.94081,391.24169L163.70077,392.20179L163.94081,393.1619L164.42087,394.122L164.90093,394.122
				L167.0612,393.88197L167.0612,393.1619L166.82117,391.24169L163.94081,391.24169"/>
			<path clip-path="url(#SVG_CP_2)" fill="none" stroke="none" stroke-width="" stra="1.44018" stroke-miterlimit="10" stroke-linecap="round" stroke-linejoin="round" d="
				M193.22452,364.83888L192.74446,366.03901L192.2644,365.79898L191.06425,368.67929L190.82422,369.15934L193.70458,369.63939L
				194.6647,369.87942L194.90473,369.63939L196.34492,365.0789L196.82498,363.87878L197.30504,362.91867L198.26516,361.23849L198.98525,360.03837
				L199.46531,359.55832L199.70534,358.83824L199.22528,358.59821L197.7851,357.87814L197.30504,357.63811L195.62483,357.15806L
				193.70458,356.43798L193.46455,356.43798L192.98449,358.83824L195.86486,359.79834L195.3848,361.47852L195.3848,361.95857L192.2644,361.95857
				L191.30428,363.87878L190.82422,364.35883L192.50443,364.59885L193.22452,364.83888"/>
			<path clip-path="url(#SVG_CP_2)" fill="none" stroke="none" stroke-width="" stra="1.44018" stroke-miterlimit="10" stroke-linecap="round" stroke-linejoin="round" d="
				M354.28496,361.71855L354.76502,363.87878L356.68526,363.39872L356.44523,364.59885L355.96517,366.51906L354.28496,366.27903
				L354.28496,366.03901L350.20444,367.71918L352.60475,372.03965L353.56487,373.4798L353.08481,373.71982L352.84478,373.71982L
				352.60475,373.95985L351.88466,373.95985L351.16456,373.95985L350.6845,373.95985L349.96441,374.19988L350.20444,375.88005L353.08481,377.80026
				L352.84478,378.28031L353.32484,378.76036L355.24508,380.20051L355.72514,379.48044L356.44523,379.72046L357.40536,379.72046
				L359.56563,380.68057L360.52575,379.96049L361.00581,380.44054L361.24584,380.92059L361.96594,380.68057L360.76578,378.52034
				L360.04569,378.76036L359.80566,379.00039L358.84554,378.76036L356.9253,378.52034L357.40536,377.56023L356.9253,377.32021L356.44523,376.60013
				L356.44523,376.84016L355.96517,376.12008L356.2052,375.88005L355.72514,375.64003L355.48511,375.15998L354.28496,375.88005L
				354.28496,375.15998L354.28496,373.95985L354.76502,372.99975L355.00505,372.03965L358.36548,372.5197L358.36548,371.79962L359.08557,369.87942
				L359.08557,369.63939L357.88542,369.15934L357.88542,366.99911L356.2052,366.75908L357.16533,361.95857L359.08557,362.67865L
				359.08557,362.1986L359.80566,362.1986L360.76578,359.31829L360.28572,358.83824L360.04569,358.35819L359.80566,357.15806L359.56563,355.95793
				L358.12545,356.19796L357.88542,355.95793L357.88542,356.19796L357.40536,359.07826L357.16533,361.23849L354.28496,361.71855
				"/>
			<path clip-path="url(#SVG_CP_2)" fill="none" stroke="none" stroke-width="" stra="1.44018" stroke-miterlimit="10" stroke-linecap="round" stroke-linejoin="round" d="
				M380.68831,370.59949L381.16837,370.59949L380.92834,370.35947L380.68831,370.59949"/>
			<path clip-path="url(#SVG_CP_2)" fill="none" stroke="none" stroke-width="" stra="1.44018" stroke-miterlimit="10" stroke-linecap="round" stroke-linejoin="round" d="
				M186.02361,381.16062L184.58342,380.44054L181.94309,380.44054L178.82269,381.40064L177.38251,383.08082L176.90245,383.56087
				L183.14324,383.56087L183.14324,383.8009L183.38327,384.761L182.90321,385.96113L182.42315,385.96113L181.94309,386.20115L181.223,387.40128
				L182.66318,387.40128L183.38327,386.20115L184.10336,384.761L185.30352,382.12072L185.78358,381.40064L186.02361,381.16062"/>
			<path clip-path="url(#SVG_CP_2)" fill="none" stroke="none" stroke-width="" stra="1.44018" stroke-miterlimit="10" stroke-linecap="round" stroke-linejoin="round" d="
				M360.28572,383.56087L360.52575,387.16126L361.24584,387.16126L361.00581,388.36138L360.76578,389.32149L359.3256,390.04156L
				360.28572,390.76164L360.28572,392.20179L360.28572,392.92187L360.28572,393.40192L360.04569,393.88197L359.80566,395.80218L
				358.84554,398.44246L359.80566,399.88261L361.7259,399.40256L362.20597,397.24233L362.446,395.80218L362.92606,395.80218L364.12621,395.80218
				L364.12621,394.60205L364.60627,394.36202L364.60627,391.96177L363.16609,392.20179L362.92606,391.24169L363.40612,390.52161
				L364.12621,388.60141L362.68603,388.36138L363.40612,385.7211L362.92606,385.48108L363.16609,384.761L363.88618,385.00103L365.08633,385.24105
				L365.80642,385.24105L365.56639,383.56087L363.88618,383.32085L363.64615,383.32085L363.40612,383.32085L362.20597,382.8408L
				361.48587,381.40064L361.48587,382.12072L361.7259,383.08082L361.7259,383.32085L361.7259,383.56087L360.28572,383.56087"/>
			<path clip-path="url(#SVG_CP_2)" fill="none" stroke="none" stroke-width="" stra="1.44018" stroke-miterlimit="10" stroke-linecap="round" stroke-linejoin="round" d="
				M230.18921,403.24297L229.70915,403.483L229.22909,403.483L228.98906,403.483L228.26897,404.4431L227.78891,404.68312L229.46912,405.64323
				L229.70915,405.4032L230.42924,404.68312L229.94918,404.20307L230.18921,403.24297L231.62939,403.483L232.82955,403.483L234.0297,403.24297
				L235.94994,402.76292L237.87019,402.04284L238.11022,402.04284L238.59028,401.32277L239.07034,400.84271L239.31037,400.12264
				L240.75055,400.36266L241.23061,400.36266L241.47064,399.40256L241.71067,398.44246L239.31037,398.20243L239.07034,399.40256
				L238.11022,398.68248L237.1501,398.68248L237.39013,394.122L234.50976,397.96241L231.62939,401.32277L230.42924,402.76292L230.18921,403.24297
				"/>
			<path clip-path="url(#SVG_CP_2)" fill="none" stroke="none" stroke-width="" stra="1.44018" stroke-miterlimit="10" stroke-linecap="round" stroke-linejoin="round" d="
				M217.22757,405.4032L217.4676,403.72302L216.98754,403.96305L215.30732,404.4431L213.38708,404.92315L210.98678,405.4032L211.22681,406.12328
				L211.22681,407.08338L214.10717,406.12328L216.50748,405.4032L217.22757,405.4032"/>
			<path clip-path="url(#SVG_CP_2)" fill="none" stroke="none" stroke-width="" stra="1.44018" stroke-miterlimit="10" stroke-linecap="round" stroke-linejoin="round" d="
				M193.94461,404.4431L195.3848,403.24297L195.14476,403.00294L194.6647,402.28287L194.18464,401.80282L193.94461,401.32277L193.46455,400.36266
				L192.98449,399.40256L192.50443,398.92251L192.02437,398.44246L191.30428,398.20243L190.58419,397.96241L188.90397,397.24233
				L187.94385,397.00231L187.94385,396.76228L186.7437,401.32277L186.7437,402.04284L189.38403,402.28287L189.86409,402.52289L190.82422,402.76292
				L190.82422,405.16318L190.82422,405.88325L193.70458,406.12328L193.94461,404.4431"/>
			<path clip-path="url(#SVG_CP_2)" fill="none" stroke="none" stroke-width="" stra="1.44018" stroke-miterlimit="10" stroke-linecap="round" stroke-linejoin="round" d="
				M190.58419,378.04028L190.34416,378.04028L189.86409,377.32021L188.90397,378.04028L187.46379,377.56023L187.22376,378.04028
				L187.22376,378.52034L186.98373,378.76036L186.7437,379.00039L186.98373,379.72046L187.46379,380.20051L187.94385,379.72046L
				188.90397,379.00039L189.144,379.00039L190.58419,378.04028"/>
			<path clip-path="url(#SVG_CP_2)" fill="none" stroke="none" stroke-width="" stra="1.44018" stroke-miterlimit="10" stroke-linecap="round" stroke-linejoin="round" d="
				M429.65452,420.52481L429.65452,421.24489L430.37462,420.76484L429.65452,420.52481"/>
		</g>
</g></svg>