<?xml version="1.0" encoding="utf-8" standalone="no"?>
<!-- Creator: ESRI ArcMap 10.0.0.2414 -->
<!DOCTYPE svg PUBLIC "-//W3C//DTD SVG 1.1//EN"  "http://www.w3.org/Graphics/SVG/1.1/DTD/svg11.dtd">
<svg width="524.0420768pt" height="339.457857042pt" viewBox="32.15712744 251.400206479 524.0420768 339.457857042" enable-background="new 32.15712744 251.400206479 524.0420768 339.457857042"
	version="1.1" xmlns="http://www.w3.org/2000/svg" xmlns:xlink="http://www.w3.org/1999/xlink" >
	<g id="Couches">
		<g id="reservoirs">
			<path clip-path="url(#SVG_CP_2)" fill-opacity="0.2" fill="#07866D" fill-rule="evenodd" stroke="none" stroke-width="" stra="1.44018" stroke-miterlimit="10" stroke-linecap="round" stroke-linejoin="round" d="
				M508.38452,457.72878L510.06473,466.12967L510.54479,470.93018L510.06473,475.49067L508.86458,479.33108L504.54403,482.21139
				L498.7833,464.44949L498.06321,461.32916L476.7005,462.76931L481.74113,451.00806L485.34159,441.16701L488.46199,409.72366L489.18208,406.84335
				L490.38223,403.96305L492.30248,398.92251L492.78254,395.56215L492.78254,391.24169L493.74266,381.16062L495.42287,373.95985
				L495.90293,371.31957L494.94281,364.35883L494.22272,354.03773L493.50263,340.83632L514.62531,342.75652L534.30781,358.11816
				L549.18969,370.83952L524.70659,388.12136L516.30552,396.28223L519.42592,403.24297L517.98573,404.92315L516.54555,405.88325
				L515.58543,407.80346L512.225,420.76484L508.86458,439.48683L511.26488,445.24745L513.66519,448.12775L511.26488,451.00806L508.62455,455.80857
				L508.38452,457.72878z"/>
			<path clip-path="url(#SVG_CP_2)" fill-opacity="0.2" fill="#07866D" fill-rule="evenodd" stroke="none" stroke-width="" stra="1.44018" stroke-miterlimit="10" stroke-linecap="round" stroke-linejoin="round" d="
				M222.02818,275.06931L228.509,283.47021L231.62939,282.27008L240.03046,276.74949L240.99058,278.90972L240.99058,279.14975L242.91083,285.15039
				L246.51128,283.71023L246.75131,283.71023L246.99134,284.43031L247.95147,286.83057L247.23137,287.31062L242.19074,288.9908L
				242.19074,292.8312L244.35101,292.8312L245.31113,292.8312L245.79119,297.15167L243.39089,297.63172L240.75055,298.35179L240.75055,300.51202
				L241.71067,306.03261L242.6708,308.43287L242.91083,310.35307L238.35025,311.5532L239.07034,314.19348L243.39089,312.75333L243.87095,314.67353
				L245.31113,313.95346L245.31113,319.9541L246.27125,320.67417L246.27125,320.9142L246.75131,327.87494L248.43153,327.87494L251.07186,327.87494
				L251.55192,325.47468L254.19226,322.59438L252.51205,321.15422L250.83183,320.67417L251.07186,318.75397L251.31189,316.11369
				L252.27201,312.5133L253.47217,312.75333L254.43229,310.11305L256.59256,311.5532L260.91311,314.67353L264.7536,310.11305L261.87323,307.95282
				L260.43305,306.99271L264.27354,302.67225L265.95375,300.51202L264.7536,299.3119L267.87399,296.43159L271.47445,293.55128L274.83488,296.91164
				L275.795,296.19156L274.35482,294.75141L274.35482,294.51138L273.15466,294.03133L273.3947,294.03133L277.95527,289.71087L276.03503,288.27072
				L275.795,284.91036L273.15466,282.03005L273.3947,280.82993L274.11479,279.6298L276.51509,275.54936L278.1953,273.38913L278.9154,272.42903
				L281.3157,276.26944L283.47597,280.10985L287.55649,278.42967L287.55649,279.86982L288.03655,280.82993L289.23671,280.82993L
				289.47674,278.6697L289.47674,275.30934L289.47674,272.42903L289.47674,272.18901L294.75741,269.06867L295.4775,270.50883L297.15771,269.78875
				L300.9982,277.70959L300.27811,277.94962L302.19835,280.82993L300.9982,281.06995L300.75817,285.87046L300.27811,289.47085L300.75817,292.59118
				L302.19835,297.39169L303.15847,300.272L308.67917,297.87174L309.87933,301.47213L308.67917,301.95218L307.23899,302.1922L305.07872,303.39233
				L302.67841,303.63236L299.79805,306.75269L298.83792,307.71279L300.9982,312.03325L298.83792,314.43351L295.95756,317.31381L
				294.27735,318.75397L295.23747,320.67417L296.91768,326.19476L301.71829,323.55448L302.67841,325.71471L306.03884,330.03517L
				300.9982,333.1555L299.79805,333.87558L300.03808,335.31573L294.75741,337.47596L291.15695,338.91612L288.51661,340.11624L287.31646,340.59629
				L287.07643,340.59629L281.3157,340.35627L273.3947,338.91612L267.63396,337.47596L265.47369,336.51586L262.35329,335.07571L260.19302,334.83568
				L259.2329,334.59566L256.83259,334.35563L255.87247,335.07571L254.19226,336.27583L252.51205,338.19604L251.07186,339.87622L
				249.87171,341.07635L249.15162,342.03645L248.67156,342.75652L247.95147,343.95665L247.47141,345.63683L246.99134,346.83696L
				246.75131,348.27711L246.03122,350.43734L245.55116,353.55768L245.0711,354.7578L243.39089,357.63811L242.19074,359.31829L241.23061,361.71855
				L240.27049,363.63875L239.79043,364.83888L239.07034,365.79898L237.1501,366.99911L236.67003,368.91931L234.98982,374.19988L
				232.10946,382.60077L231.62939,384.04092L231.14933,385.00103L230.42924,386.44118L229.70915,387.64131L228.98906,389.08146L
				227.78891,391.72174L225.86866,396.52225L224.66851,399.88261L223.94842,401.56279L223.46836,404.20307L222.9883,405.64323L222.50824,407.80346
				L222.26821,409.00358L222.26821,410.92379L222.26821,411.64387L222.26821,414.04412L222.50824,416.6844L222.74827,419.32468L
				222.74827,421.00486L222.74827,421.96497L222.9883,424.36522L222.9883,426.52545L222.9883,429.40576L222.9883,431.80601L222.9883,434.4463
				L222.50824,436.60653L222.02818,438.52673L221.54812,440.20691L220.34796,443.32724L219.38784,445.48747L218.42772,447.88773
				L216.98754,452.44821L215.54735,457.0087L213.86714,459.88901L212.90702,462.28926L211.70687,464.92954L210.98678,467.3298L210.02665,470.21011
				L206.90626,482.93146L205.70611,482.45141L195.86486,479.5711L195.14476,483.89156L194.6647,487.972L184.34339,486.05179L175.46227,487.25192
				L174.98221,482.93146L174.74218,481.25128L174.50215,480.05116L176.90245,472.37034L172.82193,466.60972L173.78205,462.76931
				L172.5819,462.04924L167.0612,459.16893L166.58114,460.60908L164.6609,466.84975L169.70154,470.69016L170.66166,471.17021L170.66166,471.41023
				L170.66166,471.65026L168.50138,477.89092L168.26135,478.611L168.26135,480.29118L168.26135,480.53121L162.26059,481.49131L162.98068,486.05179
				L163.22071,488.9321L163.70077,512.69463L159.62026,514.85486L154.57962,516.53504L148.33883,518.9353L139.93776,522.29566L138.49758,519.17532
				L125.2959,517.9752L123.85572,520.13543L125.53593,522.29566L128.17627,525.65601L133.937,533.09681L129.13639,537.41727L126.25602,540.05755
				L123.37566,543.17788L121.93547,545.57814L119.29514,547.01829L116.17474,550.13862L114.73456,553.01893L112.09423,558.05947
				L109.69392,562.85998L106.81356,567.42047L103.2131,571.98095L98.65252,576.30141L95.29209,579.66177L93.85191,578.22162L87.13106,570.5408
				L81.1303,575.34131L71.04902,583.26215L65.04826,572.461L62.16789,566.94041L47.286,550.8587L49.92634,547.25832L46.56591,543.41791
				L46.56591,543.17788L48.48615,541.01765L50.4064,539.09745L53.04673,537.17724L56.16713,534.53696L57.60731,533.57686L59.04749,532.61676
				L62.40792,529.73645L65.76835,527.09617L70.08889,523.25576L74.16941,519.41535L75.36957,517.49515L76.56972,515.57494L79.45008,510.29438
				L80.89027,507.17405L81.61036,504.53376L82.81051,500.45333L83.5306,494.93274L83.5306,489.65218L83.29057,486.77187L82.81051,483.17149
				L82.09042,478.37098L81.85039,475.97072L81.61036,473.81049L81.61036,473.09041L81.61036,471.65026L81.85039,469.73006L82.09042,468.52993
				L83.29057,464.44949L86.17094,459.40896L88.33121,455.56855L90.49148,451.96816L93.13182,447.40768L101.29285,430.36586L104.89331,423.40512
				L106.09346,421.24489L107.05359,419.80474L108.7338,417.64451L112.33426,413.32404L117.3749,409.00358L120.25526,406.12328L122.8956,403.96305
				L126.49605,400.60269L129.37642,397.48236L131.77672,394.36202L132.73685,392.92187L134.17703,390.76164L136.57733,386.44118
				L138.49758,381.16062L139.69773,378.52034L140.89788,374.91995L142.81812,369.87942L143.29819,368.91931L158.66013,370.59949
				L159.86029,370.83952L164.18084,369.15934L165.38099,368.43926L169.46151,365.55895L171.38175,364.35883L177.62254,369.87942
				L180.02285,367.23913L185.78358,361.23849L181.70306,357.39809L179.06272,354.99783L180.74294,352.8376L190.58419,344.67673L
				195.86486,340.35627L201.38556,335.79578L196.10489,329.31509L185.78358,336.27583L182.66318,338.43606L174.98221,331.47532L
				170.42163,327.15486L173.78205,320.43415L174.02208,318.51394L173.78205,316.35371L173.30199,315.39361L172.82193,313.71343L
				172.34187,311.07315L172.82193,308.91292L174.74218,306.51266L176.42239,305.07251L178.34263,303.87238L179.78282,302.91228L
				181.94309,300.51202L182.66318,297.15167L183.6233,294.27136L183.38327,290.19092L182.42315,286.35051L182.42315,284.43031L182.42315,283.23018
				L183.86333,280.10985L184.34339,278.90972L189.86409,268.82865L193.94461,267.38849L195.14476,266.90844L196.58495,266.18837
				L199.22528,265.22826L206.90626,263.30806L210.74674,262.10793L215.30732,260.9078L218.66775,259.9477L221.06805,259.22762L222.9883,259.22762
				L224.90854,259.22762L226.34872,259.22762L228.98906,260.42775L233.30961,265.46829L234.50976,266.90844L233.54964,267.38849
				L231.86943,267.86854L229.94918,268.58862L228.02894,270.02877L226.34872,271.46893L222.02818,275.06931z"/>
		</g>
</g></svg>