<?xml version="1.0" encoding="utf-8" standalone="no"?>
<!-- Creator: ESRI ArcMap 10.0.0.2414 -->
<!DOCTYPE svg PUBLIC "-//W3C//DTD SVG 1.1//EN"  "http://www.w3.org/Graphics/SVG/1.1/DTD/svg11.dtd">
<svg width="524.0420768pt" height="266.613422209pt" viewBox="32.15712744 287.822423896 524.0420768 266.613422209" enable-background="new 32.15712744 287.822423896 524.0420768 266.613422209"
	version="1.1" xmlns="http://www.w3.org/2000/svg" xmlns:xlink="http://www.w3.org/1999/xlink" >
	<g id="Couches">
		<g id="reservoirs">
			<clipPath id="SVG_CP_2">
				<path d="M574.39289,21.36228L21.36271,21.36228L21.36271,821.36753L574.39289,821.36753L574.39289,21.36228z"/>
			</clipPath>
			<path clip-path="url(#SVG_CP_2)" fill-opacity="0.2" fill="#2f4493" fill-rule="evenodd" stroke="#2f4493" stroke-width="1" stra="1.44018" stroke-miterlimit="10" stroke-linecap="round" stroke-linejoin="round" d="
				M519.42592,476.6908L531.18741,478.13095L542.22881,479.81113L549.18969,480.05116L540.06854,487.73197L531.18741,495.17277L
				526.3868,495.89284L518.94586,494.21266L513.18513,494.21266L506.94433,495.89284L500.46351,498.05307L495.18284,499.73325L486.78177,502.61356
				L484.14144,501.41343L481.5011,498.2931L476.7005,497.81305L464.69897,500.2133L455.09775,503.81369L445.73657,506.69399L440.4559,510.29438
				L439.25574,512.93466L442.13611,520.8555L351.40459,548.45844L357.64539,539.81752L363.40612,535.01701L369.64691,533.33683L
				378.28801,534.29694L380.92834,533.09681L384.04874,529.97648L387.64919,526.13607L391.24965,522.53568L398.21053,519.41535L
				419.09318,510.5344L450.29714,495.41279L456.53794,491.81241L467.81937,487.972L472.37995,491.09233L474.06016,486.77187L480.30095,480.77123
				L488.22196,477.17085L495.6629,477.17085L506.7043,476.93082L513.66519,476.21075L519.42592,476.6908z"/>
			<path clip-path="url(#SVG_CP_2)" fill-opacity="0.2" fill="#2f4493" fill-rule="evenodd" stroke="#2f4493" stroke-width="1" stra="1.44018" stroke-miterlimit="10" stroke-linecap="round" stroke-linejoin="round" d="
				M337.00277,302.67225L365.08633,323.31445L391.24965,343.23658L427.97431,369.39936L456.05788,389.08146L494.94281,417.16445
				L429.89456,418.12456L388.12926,420.28479L341.56335,420.76484L293.31722,427.0055L287.31646,427.72558L274.35482,428.68568L
				210.98678,420.76484L212.18693,415.00422L201.86562,409.48364L155.29971,401.80282L140.89788,398.92251L141.37794,396.76228L
				143.05815,386.92123L141.13791,386.68121L132.49681,385.24105L132.97688,377.32021L113.53441,374.4399L111.61416,378.52034L97.6924,375.4
				L97.45237,380.68057L90.49148,378.28031L91.45161,370.83952L87.85115,369.87942L69.3688,367.71918L68.88874,363.1587L60.96774,362.43862
				L47.52603,362.67865L47.52603,358.83824L46.56591,329.31509L84.97078,318.99399L100.81279,315.87366L112.81432,317.55384L128.17627,319.9541
				L138.97764,321.39425L139.69773,312.27328L147.3787,312.75333L147.3787,310.35307L147.61873,305.31253L176.18236,303.39233L215.06729,300.51202
				L258.27278,298.35179L325.24127,294.03133L337.00277,302.67225z"/>
		</g>
</g></svg>