<?xml version="1.0" encoding="utf-8" standalone="no"?>
<!-- Creator: ESRI ArcMap 10.0.0.2414 -->
<!DOCTYPE svg PUBLIC "-//W3C//DTD SVG 1.1//EN"  "http://www.w3.org/Graphics/SVG/1.1/DTD/svg11.dtd">
<svg width="524.0420768pt" height="428.377337592pt" viewBox="32.15712744 206.940466204 524.0420768 428.377337592" enable-background="new 32.15712744 206.940466204 524.0420768 428.377337592"
	version="1.1" xmlns="http://www.w3.org/2000/svg" xmlns:xlink="http://www.w3.org/1999/xlink" >
	<g id="Couches">
		<g id="reservoirs">
			<clipPath id="SVG_CP_2">
				<path d="M574.39289,21.36228L21.36271,21.36228L21.36271,821.36753L574.39289,821.36753L574.39289,21.36228z"/>
			</clipPath>
			<path clip-path="url(#SVG_CP_2)" fill-opacity="0.2" fill="#2f4493" fill-rule="evenodd" stroke="#2f4493" stroke-width="1" stra="1.44018" stroke-miterlimit="10" stroke-linecap="round" stroke-linejoin="round" d="
				M265.95375,428.92571L268.11402,429.88581L269.79424,428.92571L278.43533,436.12647L282.03579,439.24681L287.55649,443.08722
				L289.23671,445.96752L292.83716,449.80793L299.31798,455.56855L300.75817,453.40832L303.15847,453.64834L303.3985,453.64834L
				305.31875,455.32852L310.59942,459.16893L313.71981,461.80921L322.12088,471.65026L330.28191,481.49131L333.40231,486.05179L
				337.72286,492.05243L344.68374,503.09361L352.36472,516.05499L357.64539,526.13607L363.88618,537.65729L368.92682,541.4977L371.56715,543.89796
				L372.28724,545.09809L374.20749,548.9385L375.8877,558.05947L378.52804,564.54016L381.64843,568.62059L383.56868,577.50154L401.33093,617.82584
				L400.85087,617.82584L403.4912,622.86637L394.13002,622.62635L386.44904,619.74604L375.8877,618.78594L368.44676,614.7055L364.60627,600.54399
				L350.6845,594.0633L344.92377,592.1431L343.48359,591.66305L337.2428,591.42302L332.92225,591.90307L330.52194,592.86318L322.60094,599.82392
				L313.23975,605.34451L299.31798,613.26535L298.83792,613.50538L295.4775,614.94553L277.95527,622.62635L265.23366,625.74668L
				266.91387,621.90627L266.91387,621.66625L264.51357,614.94553L260.19302,612.7853L258.03275,612.06522L263.55345,599.82392L262.35329,601.02405
				L253.47217,597.42366L249.63168,601.74412L248.67156,603.66433L240.27049,618.30589L236.43,612.7853L235.46988,611.34515L229.22909,610.38504
				L222.26821,611.8252L213.38708,563.58006L217.4676,562.37993L217.4676,558.29949L222.9883,557.57942L222.02818,553.01893L223.70839,552.77891
				L223.94842,550.8587L214.3472,553.01893L214.10717,551.8188L210.98678,551.8188L204.02589,521.81561L215.06729,529.73645L213.14705,531.41663
				L219.38784,535.97711L214.58723,540.77763L215.30732,542.69783L221.54812,543.17788L226.58876,536.69719L228.74903,537.17724
				L230.18921,536.93722L242.43077,538.13734L246.03122,539.33747L249.15162,541.25768L249.15162,541.4977L250.35177,541.73773L
				250.5918,541.97775L252.27201,543.65793L253.95223,544.85806L255.87247,546.05819L267.87399,553.97903L272.19454,557.09937L272.43457,557.09937
				L278.1953,560.93977L283.47597,564.06011L283.716,564.30013L286.59637,566.22034L286.8364,567.42047L312.27963,581.58197L318.28039,584.22226
				L321.88085,584.22226L324.28115,583.26215L332.68222,579.9018L345.88389,574.38121L350.20444,576.54144L352.84478,576.30141L
				355.24508,579.18172L357.64539,580.14182L365.32636,581.822L370.367,577.74157L367.24661,569.34067L369.64691,564.54016L372.04721,566.22034
				L371.08709,564.78018L368.20673,560.69975L362.20597,559.01957L360.04569,554.69911L360.52575,550.8587L360.04569,547.49834L
				359.3256,545.81816L335.32255,514.61484L325.24127,522.77571L323.081,523.97584L321.64082,524.21586L319.72057,524.21586L320.20063,523.01573
				L322.60094,516.53504L326.44143,507.6541L330.28191,509.09425L339.88313,508.37417L337.72286,500.2133L334.84249,495.65282L327.16152,486.29182
				L321.64082,480.29118L319.24051,477.17085L314.67993,480.77123L317.08024,483.89156L313.71981,486.77187L302.67841,474.29054
				L297.39774,468.2899L294.51738,471.17021L293.31722,470.21011L288.99668,466.84975L291.15695,463.72942L293.31722,461.32916L
				295.95756,458.68888L294.27735,456.76867L287.07643,451.48811L280.11555,461.56919L262.11326,457.48875L246.51128,454.12839L
				262.11326,433.48619L265.95375,428.92571z"/>
			<path clip-path="url(#SVG_CP_2)" fill-opacity="0.2" fill="#2f4493" fill-rule="evenodd" stroke="#2f4493" stroke-width="1" stra="1.44018" stroke-miterlimit="10" stroke-linecap="round" stroke-linejoin="round" d="
				M179.30275,294.03133L177.14248,297.39169L173.30199,301.2321L171.86181,300.99207L158.4201,297.15167L147.13867,313.71343L152.17931,321.39425
				L152.8994,324.75461L155.53974,326.19476L156.97992,326.91484L158.4201,325.23466L165.38099,317.79386L167.30123,317.07379L169.22148,314.91356
				L171.14172,311.5532L171.38175,307.95282L180.74294,296.43159L181.94309,294.99144L183.6233,292.59118L182.66318,289.71087L180.26288,288.51074
				L172.34187,286.83057L167.54126,285.87046L166.58114,284.67034L171.86181,284.19028L174.26211,283.95026L183.6233,282.51011L
				189.86409,282.27008L204.02589,282.75013L233.78967,284.91036L238.11022,285.87046L243.39089,287.31062L262.35329,294.99144L
				261.6332,296.19156L260.19302,298.83184L264.27354,300.99207L267.39393,301.71215L268.59409,299.79195L278.67537,304.59246L279.15543,306.99271
				L289.9568,310.35307L305.55878,329.79514L300.9982,334.59566L290.91692,343.71663L293.07719,345.63683L298.11783,347.07699L302.91844,348.03709
				L305.31875,350.43734L306.75893,353.07762L317.32027,344.4367L329.32179,351.8775L323.081,362.67865L347.08405,375.64003L349.00429,378.28031
				L354.28496,383.56087L354.28496,383.8009L353.08481,391.48172L352.84478,398.68248L354.04493,398.44246L354.52499,398.44246L
				355.00505,398.44246L357.64539,398.92251L361.48587,398.20243L369.16685,397.00231L369.40688,401.08274L380.44828,400.36266L
				382.36852,399.88261L382.84859,397.72238L412.61236,412.60397L437.3355,424.1252L465.65909,437.80665L498.7833,453.88837L541.74875,475.01062
				L538.62835,486.53185L549.18969,490.85231L545.34921,501.65346L543.42896,508.13415L542.22881,508.13415L540.5486,511.73453L
				539.58848,517.01509L535.0279,514.85486L530.94738,514.13479L516.06549,511.73453L510.30476,510.05435L507.42439,509.81433L500.22348,508.85422
				L496.14296,506.93402L491.10232,505.49387L482.46123,506.21394L475.74037,507.41407L471.41983,506.93402L460.85848,504.53376
				L460.61845,504.29374L455.81785,502.85359L448.3769,500.2133L438.53565,496.13287L428.45437,492.29246L426.53413,492.05243L422.45361,490.85231
				L418.85315,490.13223L415.2527,493.25256L409.732,494.69272L409.732,495.65282L399.17066,495.89284L400.37081,506.21394L394.61008,507.41407
				L392.68983,507.6541L381.64843,508.6142L374.68755,491.81241L352.60475,491.57238L337.48283,470.69016L343.24356,459.88901L344.20368,457.48875
				L338.68298,458.20883L333.64234,458.9289L325.72134,455.32852L321.64082,453.16829L324.28115,446.92763L323.56106,442.84719L
				323.80109,439.96688L326.92149,439.24681L328.84173,437.80665L332.68222,434.92635L332.92225,429.88581L331.96213,421.48491L
				330.76198,415.96433L326.2014,417.40448L326.44143,416.92443L325.00124,415.7243L324.76121,415.96433L324.52118,415.48427L322.60094,414.28415
				L321.16076,413.32404L319.00048,412.12392L317.08024,410.92379L314.91996,409.72366L310.83945,407.32341L311.31951,407.08338
				L309.63929,405.88325L294.27735,408.28351L292.3571,409.00358L288.99668,409.72366L284.4361,410.44374L280.11555,411.16381L275.07491,411.64387
				L271.71448,411.88389L266.91387,412.36394L264.03351,411.16381L261.6332,414.28415L258.27278,413.32404L256.83259,414.28415L
				258.99287,416.6844L256.59256,419.56471L247.95147,431.08594L229.46912,456.28862L229.22909,456.28862L222.26821,465.16957L213.38708,464.44949
				L212.18693,465.64962L206.4262,473.57046L198.26516,483.17149L193.46455,491.81241L183.14324,467.3298L176.66242,450.76803L173.06196,441.64706
				L168.98144,431.80601L165.14096,422.20499L158.18007,407.32341L152.41934,394.84208L139.4577,369.15934L133.69697,358.83824L
				121.69544,337.47596L114.2545,325.47468L98.65252,300.75205L90.25145,289.23082L81.61036,276.98952L72.72923,264.98824L68.64871,259.46765
				L64.56819,253.70704L57.60731,244.58606L53.76682,239.78555L46.56591,232.10473L59.52755,230.42455L80.89027,226.82417L83.05054,225.38402
				L85.45084,223.46381L87.13106,222.26369L87.85115,216.7431L102.01295,225.62404L96.25222,233.54489L98.17246,237.3853L101.29285,243.62596
				L104.17322,247.94642L111.61416,253.70704L119.53517,260.18773L130.8166,267.62852L138.25755,272.90908L146.89864,278.90972L
				152.8994,282.03005L159.38023,284.43031L162.26059,284.67034L163.46074,285.39041L165.38099,286.83057L169.70154,287.55064L176.90245,289.71087
				L179.30275,290.911L180.02285,292.35115L179.30275,294.03133L179.30275,294.03133z"/>
		</g>
</g></svg>