<?xml version="1.0" encoding="utf-8" standalone="no"?>
<!-- Creator: ESRI ArcMap 10.0.0.2414 -->
<!DOCTYPE svg PUBLIC "-//W3C//DTD SVG 1.1//EN"  "http://www.w3.org/Graphics/SVG/1.1/DTD/svg11.dtd">
<svg width="524.0420768pt" height="301.610015754pt" viewBox="32.15712744 270.324127123 524.0420768 301.610015754" enable-background="new 32.15712744 270.324127123 524.0420768 301.610015754"
	version="1.1" xmlns="http://www.w3.org/2000/svg" xmlns:xlink="http://www.w3.org/1999/xlink" >
	<g id="Couches">
		<g id="cont_2">
			<path clip-path="url(#SVG_CP_2)" fill="none" stroke="#999999" stroke-width="0.96012" stroke-miterlimit="10" stroke-linecap="round" stroke-linejoin="round" d="
				M109.45389,393.88197L109.21386,393.88197L109.21386,393.64195L108.01371,393.64195L108.01371,393.40192L106.57352,393.40192
				L106.57352,392.92187L105.37337,392.92187L105.37337,392.68185L104.17322,392.68185L104.17322,392.20179L102.97307,392.20179
				L102.97307,391.96177L101.77292,391.96177L101.77292,391.48172L100.57276,391.48172L100.57276,391.24169L99.37261,391.24169L
				99.37261,391.00167L98.17246,391.00167L98.17246,390.52161L96.73228,390.52161L96.73228,390.28159L95.77215,390.28159L95.77215,389.80154
				L94.33197,389.80154L94.33197,389.56151L93.37185,389.56151L93.37185,389.08146L91.93167,389.08146L91.93167,388.84144L90.97155,388.84144
				L90.97155,388.60141L89.53136,388.60141L89.53136,388.12136L88.57124,388.12136L88.57124,387.88133L87.13106,387.88133L87.13106,387.40128
				L85.69087,387.40128L85.69087,387.16126L84.73075,387.16126L84.73075,386.68121L83.29057,386.68121L83.29057,386.44118L82.33045,386.44118
				L82.33045,386.20115L80.89027,386.20115L80.89027,385.7211L79.93014,385.7211L79.93014,385.48108L78.48996,385.48108L78.48996,385.00103
				L77.52984,385.00103L77.52984,384.761L76.08966,384.761L76.08966,384.28095L74.64947,384.28095L74.64947,384.04092L73.68935,384.04092
				L73.68935,383.56087L72.24917,383.56087L72.24917,383.32085L71.28905,383.32085L71.28905,383.08082L69.84886,383.08082L69.84886,382.60077
				L68.88874,382.60077L68.88874,382.36075L67.44856,382.36075L67.44856,381.88069L66.48844,381.88069L66.48844,381.64067L65.04826,381.64067
				L65.04826,381.16062L63.60807,381.16062L63.60807,380.92059L64.08813,380.92059L64.08813,380.68057L76.80975,380.68057L76.80975,380.92059
				L78.48996,380.92059L78.48996,381.16062L79.93014,381.16062L79.93014,381.64067L80.89027,381.64067L80.89027,381.88069L82.33045,381.88069
				L82.33045,382.36075L83.29057,382.36075L83.29057,382.60077L84.25069,382.60077L84.25069,383.08082L85.45084,383.08082L85.45084,383.32085
				L86.41097,383.32085L86.41097,383.56087L87.37109,383.56087L87.37109,384.04092L88.57124,384.04092L88.57124,384.28095L89.53136,384.28095
				L89.53136,384.761L90.49148,384.761L90.49148,385.00103L91.45161,385.00103L91.45161,385.48108L92.65176,385.48108L92.65176,385.7211
				L93.61188,385.7211L93.61188,386.20115L94.33197,386.20115L94.33197,386.44118L95.77215,386.44118L95.77215,386.68121L96.25222,386.68121
				L96.25222,387.16126L97.6924,387.16126L97.6924,387.40128L98.41249,387.40128L98.41249,387.88133L99.37261,387.88133L99.37261,388.12136
				L100.57276,388.12136L100.57276,388.60141L101.77292,388.60141L101.77292,388.84144L102.49301,388.84144L102.49301,389.08146
				L103.93319,389.08146L103.93319,389.56151L104.65328,389.56151L104.65328,389.80154L105.6134,389.80154L105.6134,390.28159L107.05359,390.28159
				L107.05359,389.80154L107.77368,389.80154L107.77368,389.56151L108.49377,389.56151L108.49377,389.08146L108.7338,389.08146L
				108.7338,388.84144L109.21386,388.84144L109.21386,390.28159L109.45389,390.28159L109.45389,393.88197"/>
			<path clip-path="url(#SVG_CP_2)" fill="none" stroke="#999999" stroke-width="0.96012" stroke-miterlimit="10" stroke-linecap="round" stroke-linejoin="round" d="
				M76.08966,464.44949L76.32969,464.44949L76.32969,464.20947L76.80975,464.20947L76.80975,463.72942L77.04978,463.72942L77.04978,463.48939
				L77.52984,463.48939L77.52984,463.00934L77.76987,463.00934L77.76987,462.76931L78.24993,462.76931L78.24993,462.52929L78.48996,462.52929
				L78.48996,462.04924L78.72999,462.04924L78.72999,461.80921L79.21005,461.80921L79.21005,461.32916L79.45008,461.32916L79.45008,461.08913
				L79.93014,461.08913L79.93014,460.60908L80.17017,460.60908L80.17017,460.36906L80.65024,460.36906L80.65024,460.12903L80.89027,460.12903
				L80.89027,459.64898L81.1303,459.64898L81.1303,459.40896L81.61036,459.40896L81.61036,458.9289L81.85039,458.9289L81.85039,448.36778
				L82.33045,448.36778L82.33045,447.40768L83.05054,447.40768L83.05054,447.6477L83.5306,447.6477L83.5306,447.40768L84.01066,447.40768
				L84.01066,446.6876L84.25069,446.6876L84.25069,446.20755L84.73075,446.20755L84.73075,445.96752L84.97078,445.96752L84.97078,445.48747
				L85.45084,445.48747L85.45084,445.00742L85.69087,445.00742L85.69087,444.52737L86.17094,444.52737L86.17094,444.28734L86.41097,444.28734
				L86.41097,443.80729L86.651,443.80729L86.651,443.56727L87.13106,443.56727L87.13106,442.84719L87.85115,442.84719L87.85115,443.08722
				L88.57124,443.08722L88.57124,443.56727L88.81127,443.56727L88.81127,443.08722L89.0513,443.08722L89.0513,442.84719L89.53136,442.84719
				L89.53136,442.60717L89.77139,442.60717L89.77139,442.12711L90.25145,442.12711L90.25145,441.88709L90.49148,441.88709L90.49148,441.40704
				L90.97155,441.40704L90.97155,441.16701L91.21158,441.16701L91.21158,440.68696L91.45161,440.68696L91.45161,440.44693L91.93167,440.44693
				L91.93167,439.72686L92.1717,439.72686L92.1717,439.48683L92.65176,439.48683L92.65176,439.00678L92.89179,439.00678L92.89179,438.76676
				L93.37185,438.76676L93.37185,438.2867L93.61188,438.2867L93.61188,438.04668L93.85191,438.04668L93.85191,437.56663L94.572,437.56663
				L94.572,437.3266L95.05206,437.3266L95.05206,437.08658L95.29209,437.08658L95.29209,436.60653L95.77215,436.60653L95.77215,436.3665
				L96.25222,436.3665L96.25222,435.88645L96.73228,435.88645L96.73228,435.64642L96.97231,435.64642L96.97231,435.16637L97.45237,435.16637
				L97.45237,434.92635L98.17246,434.92635L98.17246,434.68632L98.41249,434.68632L98.41249,434.20627L98.89255,434.20627L98.89255,433.96624
				L99.37261,433.96624L99.37261,433.48619L99.85267,433.48619L99.85267,433.24617L100.0927,433.24617L100.0927,432.76612L100.57276,432.76612
				L100.57276,432.52609L101.29285,432.52609L101.29285,432.28607L101.53289,432.28607L101.53289,431.80601L101.77292,431.80601
				L101.77292,431.56599L102.25298,431.56599L102.25298,431.08594L102.97307,431.08594L102.97307,430.84591L103.93319,430.84591
				L103.93319,430.36586L104.89331,430.36586L104.89331,430.12584L106.09346,430.12584L106.09346,429.64578L107.05359,429.64578
				L107.05359,429.40576L108.01371,429.40576L108.01371,429.16573L109.21386,429.16573L109.21386,428.68568L110.17398,428.68568
				L110.17398,428.44566L111.1341,428.44566L111.1341,427.9656L112.09423,427.9656L112.09423,427.72558L113.29438,427.72558L113.29438,427.24553
				L114.2545,427.24553L114.2545,427.0055L115.21462,427.0055L115.21462,426.76548L116.41477,426.76548L116.41477,426.28543L117.3749,426.28543
				L117.3749,426.0454L118.33502,426.0454L118.33502,425.56535L119.29514,425.56535L119.29514,425.32532L120.49529,425.32532L120.49529,424.84527
				L121.45541,424.84527L121.45541,424.60525L122.41554,424.60525L122.41554,424.36522L123.13563,424.36522L123.13563,423.88517
				L124.33578,423.88517L124.33578,423.64514L125.2959,423.64514L125.2959,423.16509L126.25602,423.16509L126.25602,422.92507L127.21614,422.92507
				L127.21614,422.44502L128.4163,422.44502L128.4163,422.20499L129.37642,422.20499L129.37642,421.96497L130.33654,421.96497L130.33654,421.48491
				L131.53669,421.48491L131.53669,421.24489L132.49681,421.24489L132.49681,420.76484L133.45694,420.76484L133.45694,420.52481
				L134.65709,420.52481L134.65709,420.04476L135.61721,420.04476L135.61721,419.80474L136.57733,419.80474L136.57733,419.32468
				L137.53745,419.32468L137.53745,419.08466L138.73761,419.08466L138.73761,418.84463L139.4577,418.84463L139.4577,418.36458L140.41782,418.36458
				L140.41782,418.12456L141.37794,418.12456L141.37794,417.64451L142.57809,417.64451L142.57809,417.40448L143.53822,417.40448
				L143.53822,416.92443L144.49834,416.92443L144.49834,416.6844L144.9784,416.6844L144.9784,417.40448L144.49834,417.40448L144.49834,418.36458
				L144.25831,418.36458L144.25831,419.32468L143.77825,419.32468L143.77825,420.04476L143.53822,420.04476L143.53822,420.76484
				L143.05815,420.76484L143.05815,421.48491L142.81812,421.48491L142.81812,422.20499L142.57809,422.20499L142.57809,425.56535
				L142.09803,425.56535L142.09803,429.64578L141.858,429.64578L141.858,430.84591L141.37794,430.84591L141.37794,431.80601L141.13791,431.80601
				L141.13791,432.76612L140.65785,432.76612L140.65785,433.96624L140.41782,433.96624L140.41782,434.92635L139.93776,434.92635
				L139.93776,435.88645L139.69773,435.88645L139.69773,437.08658L139.4577,437.08658L139.4577,438.04668L138.97764,438.04668L138.97764,438.76676
				L138.73761,438.76676L138.73761,439.48683L138.25755,439.48683L138.25755,440.44693L138.01752,440.44693L138.01752,441.40704
				L137.53745,441.40704L137.53745,442.12711L137.29742,442.12711L137.29742,443.08722L137.05739,443.08722L137.05739,445.24745
				L136.57733,445.24745L136.57733,447.88773L136.3373,447.88773L136.3373,450.04796L135.85724,450.04796L135.85724,452.20819L135.61721,452.20819
				L135.61721,453.88837L135.13715,453.88837L135.13715,456.28862L134.89712,456.28862L134.89712,457.9688L134.65709,457.9688L134.65709,459.40896
				L134.17703,459.40896L134.17703,462.52929L133.937,462.52929L133.937,464.20947L133.45694,464.20947L133.45694,488.21202L133.21691,488.21202
				L133.21691,491.33236L132.73685,491.33236L132.73685,492.77251L132.49681,492.77251L132.49681,493.97264L132.25678,493.97264
				L132.25678,495.17277L132.49681,495.17277L132.49681,495.89284L132.73685,495.89284L132.73685,496.37289L133.21691,496.37289
				L133.21691,497.09297L133.45694,497.09297L133.45694,497.81305L133.937,497.81305L133.937,498.53312L134.17703,498.53312L134.17703,499.2532
				L134.65709,499.2532L134.65709,499.97328L134.89712,499.97328L134.89712,500.2133L135.13715,500.2133L135.13715,500.93338L135.61721,500.93338
				L135.61721,501.65346L135.85724,501.65346L135.85724,503.81369L136.3373,503.81369L136.3373,504.77379L136.57733,504.77379L136.57733,506.21394
				L137.05739,506.21394L137.05739,506.69399L137.29742,506.69399L137.29742,507.89412L137.05739,507.89412L137.05739,508.13415
				L136.57733,508.13415L136.57733,509.09425L135.85724,509.09425L135.85724,508.85422L135.13715,508.85422L135.13715,508.6142L
				134.89712,508.6142L134.89712,508.13415L134.17703,508.13415L134.17703,507.89412L133.45694,507.89412L133.45694,507.41407L133.21691,507.41407
				L133.21691,507.17405L132.49681,507.17405L132.49681,506.69399L132.25678,506.69399L132.25678,506.45397L131.53669,506.45397
				L131.53669,506.21394L130.8166,506.21394L130.8166,505.73389L130.33654,505.73389L130.33654,505.49387L129.61645,505.49387L129.61645,505.01382
				L129.37642,505.01382L129.37642,504.77379L128.65633,504.77379L128.65633,504.29374L127.93624,504.29374L127.93624,504.05371
				L127.69621,504.05371L127.69621,503.81369L126.97611,503.81369L126.97611,503.33364L126.25602,503.33364L126.25602,503.09361
				L126.01599,503.09361L126.01599,502.61356L125.2959,502.61356L125.2959,502.37353L124.81584,502.37353L124.81584,501.89348L124.33578,501.89348
				L124.33578,501.65346L123.61569,501.65346L123.61569,501.41343L123.13563,501.41343L123.13563,500.93338L122.41554,500.93338
				L122.41554,500.69335L122.1755,500.69335L122.1755,500.2133L121.45541,500.2133L121.45541,499.97328L120.73532,499.97328L120.73532,499.49323
				L120.49529,499.49323L120.49529,499.2532L119.7752,499.2532L119.7752,498.77315L119.29514,498.77315L119.29514,498.53312L118.81508,498.53312
				L118.81508,498.2931L118.09499,498.2931L118.09499,497.81305L117.61493,497.81305L117.61493,497.57302L116.89483,497.57302L116.89483,497.09297
				L116.41477,497.09297L116.41477,496.85295L115.93471,496.85295L115.93471,496.37289L115.21462,496.37289L115.21462,496.13287
				L114.97459,496.13287L114.97459,495.89284L114.2545,495.89284L114.2545,495.41279L113.53441,495.41279L113.53441,495.17277L113.29438,495.17277
				L113.29438,494.69272L112.57429,494.69272L112.57429,494.45269L112.09423,494.45269L112.09423,493.97264L111.61416,493.97264
				L111.61416,493.73261L110.89407,493.73261L110.89407,493.49259L110.41401,493.49259L110.41401,493.01254L109.69392,493.01254
				L109.69392,492.77251L109.45389,492.77251L109.45389,492.29246L108.7338,492.29246L108.7338,492.05243L108.01371,492.05243L108.01371,491.57238
				L107.77368,491.57238L107.77368,491.33236L107.05359,491.33236L107.05359,491.09233L106.33349,491.09233L106.33349,490.61228
				L106.09346,490.61228L106.09346,490.37225L105.37337,490.37225L105.37337,489.8922L104.89331,489.8922L104.89331,489.65218L104.17322,489.65218
				L104.17322,489.17213L103.69316,489.17213L103.69316,488.9321L103.2131,488.9321L103.2131,488.69208L102.49301,488.69208L102.49301,488.21202
				L102.25298,488.21202L102.25298,487.972L101.53289,487.972L101.53289,487.49195L100.81279,487.49195L100.81279,487.25192L100.57276,487.25192
				L100.57276,486.77187L99.85267,486.77187L99.85267,486.53185L99.37261,486.53185L99.37261,486.05179L98.89255,486.05179L98.89255,485.81177
				L98.17246,485.81177L98.17246,485.57174L97.6924,485.57174L97.6924,485.09169L96.97231,485.09169L96.97231,484.85167L96.25222,484.85167
				L96.25222,484.37162L96.01218,484.37162L96.01218,484.13159L95.29209,484.13159L95.29209,483.65154L95.05206,483.65154L95.05206,483.41151
				L94.33197,483.41151L94.33197,483.17149L93.61188,483.17149L93.61188,482.69144L93.37185,482.69144L93.37185,482.45141L92.65176,482.45141
				L92.65176,481.97136L92.1717,481.97136L92.1717,481.73133L91.45161,481.73133L91.45161,481.25128L90.97155,481.25128L90.97155,481.01126
				L90.49148,481.01126L90.49148,480.77123L89.77139,480.77123L89.77139,480.29118L89.53136,480.29118L89.53136,480.05116L88.81127,480.05116
				L88.81127,479.5711L88.09118,479.5711L88.09118,479.33108L87.85115,479.33108L87.85115,478.85103L87.13106,478.85103L87.13106,478.611
				L86.41097,478.611L86.41097,478.37098L86.17094,478.37098L86.17094,477.89092L85.45084,477.89092L85.45084,477.6509L84.97078,477.6509
				L84.97078,477.17085L84.25069,477.17085L84.25069,476.93082L83.5306,476.93082L83.5306,476.45077L83.29057,476.45077L83.29057,476.21075
				L82.57048,476.21075L82.57048,475.73069L82.33045,475.73069L82.33045,475.49067L81.61036,475.49067L81.61036,475.25064L80.89027,475.25064
				L80.89027,474.77059L80.65024,474.77059L80.65024,474.53057L79.93014,474.53057L79.93014,474.05052L79.21005,474.05052L79.21005,473.81049
				L78.72999,473.81049L78.72999,473.33044L78.24993,473.33044L78.24993,473.09041L77.76987,473.09041L77.76987,472.85039L77.04978,472.85039
				L77.04978,472.37034L76.32969,472.37034L76.32969,472.13031L76.08966,472.13031L76.08966,471.65026L75.36957,471.65026L75.36957,471.41023
				L75.12953,471.41023L75.12953,470.69016L75.36957,470.69016L75.36957,469.00998L75.84963,469.00998L75.84963,468.52993L76.08966,468.52993
				L76.08966,464.44949"/>
			<path clip-path="url(#SVG_CP_2)" fill="none" stroke="#999999" stroke-width="0.96012" stroke-miterlimit="10" stroke-linecap="round" stroke-linejoin="round" d="
				M82.33045,447.40768L81.85039,447.40768L81.85039,448.36778L81.61036,448.36778L81.61036,448.6078L81.1303,448.6078L81.1303,449.08786
				L80.89027,449.08786L80.89027,449.32788L80.65024,449.32788L80.65024,449.80793L80.17017,449.80793L80.17017,450.04796L79.93014,450.04796
				L79.93014,450.28798L79.45008,450.28798L79.45008,450.76803L79.21005,450.76803L79.21005,451.00806L78.72999,451.00806L78.72999,451.48811
				L78.48996,451.48811L78.48996,451.72814L78.24993,451.72814L78.24993,452.20819L77.76987,452.20819L77.76987,452.44821L77.52984,452.44821
				L77.52984,452.68824L77.04978,452.68824L77.04978,453.16829L76.80975,453.16829L76.80975,453.40832L76.32969,453.40832L76.32969,453.88837
				L76.08966,453.88837L76.08966,464.44949L75.84963,464.44949L75.84963,464.92954L75.36957,464.92954L75.36957,465.16957L75.12953,465.16957
				L75.12953,469.97008L74.64947,469.97008L74.64947,470.93018L73.20929,470.93018L73.20929,471.41023L72.24917,471.41023L72.24917,471.65026
				L71.28905,471.65026L71.28905,472.13031L70.80899,472.13031L70.80899,472.37034L70.56896,472.37034L70.56896,473.09041L70.32893,473.09041
				L70.32893,473.81049L69.84886,473.81049L69.84886,474.53057L69.60883,474.53057L69.60883,475.25064L69.12877,475.25064L69.12877,475.73069
				L68.88874,475.73069L68.88874,476.45077L68.40868,476.45077L68.40868,476.93082L68.16865,476.93082L68.16865,477.6509L67.92862,477.6509
				L67.92862,478.37098L67.44856,478.37098L67.44856,478.85103L67.20853,478.85103L67.20853,479.5711L66.72847,479.5711L66.72847,480.29118
				L66.48844,480.29118L66.48844,481.01126L66.00838,481.01126L66.00838,481.73133L65.76835,481.73133L65.76835,482.45141L65.52832,482.45141
				L65.52832,483.17149L65.04826,483.17149L65.04826,483.41151L64.80822,483.41151L64.80822,484.13159L64.32816,484.13159L64.32816,484.85167
				L64.08813,484.85167L64.08813,485.57174L63.60807,485.57174L63.60807,486.05179L63.36804,486.05179L63.36804,486.77187L63.12801,486.77187
				L63.12801,487.49195L62.64795,487.49195L62.64795,488.21202L62.40792,488.21202L62.40792,488.9321L61.92786,488.9321L61.92786,489.65218
				L61.68783,489.65218L61.68783,489.8922L61.20777,489.8922L61.20777,491.09233L60.96774,491.09233L60.96774,491.57238L60.48768,491.57238
				L60.48768,492.29246L60.24765,492.29246L60.24765,493.01254L60.00762,493.01254L60.00762,493.73261L59.52755,493.73261L59.52755,494.45269
				L59.28752,494.45269L59.28752,495.17277L58.80746,495.17277L58.80746,495.89284L58.56743,495.89284L58.56743,496.37289L58.08737,496.37289
				L58.08737,497.09297L57.84734,497.09297L57.84734,497.81305L57.60731,497.81305L57.60731,498.53312L57.12725,498.53312L57.12725,499.2532
				L56.88722,499.2532L56.88722,499.97328L56.40716,499.97328L56.40716,500.69335L56.16713,500.69335L56.16713,501.41343L55.68707,501.41343
				L55.68707,501.89348L55.44704,501.89348L55.44704,502.61356L55.20701,502.61356L55.20701,503.33364L54.72695,503.33364L54.72695,504.05371
				L54.48692,504.05371L54.48692,504.77379L54.00685,504.77379L54.00685,505.49387L53.76682,505.49387L53.76682,506.21394L53.28676,506.21394
				L53.28676,507.17405L53.04673,507.17405L53.04673,507.89412L52.8067,507.89412L52.8067,508.6142L52.32664,508.6142L52.32664,509.09425
				L52.08661,509.09425L52.08661,509.81433L51.60655,509.81433L51.60655,510.5344L51.36652,510.5344L51.36652,511.25448L50.88646,511.25448
				L50.88646,511.97456L50.64643,511.97456L50.64643,512.69463L50.16637,512.69463L50.16637,513.41471L49.92634,513.41471L49.92634,514.13479
				L49.68631,514.13479L49.68631,514.61484L49.20624,514.61484L49.20624,515.33492L48.96621,515.33492L48.96621,516.05499L48.48615,516.05499
				L48.48615,516.77507L48.24612,516.77507L48.24612,517.49515L47.76606,517.49515L47.76606,518.21522L47.52603,518.21522L47.52603,518.9353
				L47.286,518.9353L47.286,519.41535L46.80594,519.41535L46.80594,520.13543L46.56591,520.13543L46.56591,517.49515L46.80594,517.49515
				L46.80594,513.65474L47.286,513.65474L47.286,500.2133L46.80594,500.2133L46.80594,499.2532L46.56591,499.2532L46.56591,397.00231
				L46.80594,397.00231L46.80594,396.0422L47.286,396.0422L47.286,394.60205L47.52603,394.60205L47.52603,393.64195L47.76606,393.64195
				L47.76606,392.92187L48.24612,392.92187L48.24612,391.96177L48.48615,391.96177L48.48615,391.00167L48.96621,391.00167L48.96621,389.80154
				L49.20624,389.80154L49.20624,388.84144L49.68631,388.84144L49.68631,388.12136L49.92634,388.12136L49.92634,391.96177L50.16637,391.96177
				L50.16637,393.88197L50.64643,393.88197L50.64643,395.80218L50.88646,395.80218L50.88646,397.72238L51.36652,397.72238L51.36652,399.88261
				L51.60655,399.88261L51.60655,401.56279L52.08661,401.56279L52.08661,403.72302L52.32664,403.72302L52.32664,405.64323L52.8067,405.64323
				L52.8067,408.04348L53.04673,408.04348L53.04673,410.44374L53.28676,410.44374L53.28676,413.32404L53.76682,413.32404L53.76682,415.7243
				L54.00685,415.7243L54.00685,418.12456L54.48692,418.12456L54.48692,420.52481L54.72695,420.52481L54.72695,422.92507L55.20701,422.92507
				L55.20701,424.84527L55.44704,424.84527L55.44704,425.32532L55.68707,425.32532L55.68707,425.56535L56.16713,425.56535L56.16713,426.0454
				L56.88722,426.0454L56.88722,426.28543L57.12725,426.28543L57.12725,426.76548L57.60731,426.76548L57.60731,427.0055L57.84734,427.0055
				L57.84734,427.24553L58.08737,427.24553L58.08737,427.72558L58.56743,427.72558L58.56743,427.9656L58.80746,427.9656L58.80746,428.44566
				L59.52755,428.44566L59.52755,428.68568L60.00762,428.68568L60.00762,429.16573L60.24765,429.16573L60.24765,429.40576L60.48768,429.40576
				L60.48768,429.64578L60.96774,429.64578L60.96774,430.12584L61.20777,430.12584L61.20777,430.36586L61.68783,430.36586L61.68783,430.84591
				L61.92786,430.84591L61.92786,431.08594L62.64795,431.08594L62.64795,431.56599L63.12801,431.56599L63.12801,431.80601L63.36804,431.80601
				L63.36804,432.28607L63.60807,432.28607L63.60807,432.52609L64.08813,432.52609L64.08813,432.76612L64.32816,432.76612L64.32816,433.24617
				L64.80822,433.24617L64.80822,433.48619L65.52832,433.48619L65.52832,433.96624L65.76835,433.96624L65.76835,434.20627L66.00838,434.20627
				L66.00838,434.68632L66.48844,434.68632L66.48844,434.92635L66.72847,434.92635L66.72847,435.16637L67.20853,435.16637L67.20853,435.64642
				L67.44856,435.64642L67.44856,435.88645L67.92862,435.88645L67.92862,436.3665L68.40868,436.3665L68.40868,436.60653L68.88874,436.60653
				L68.88874,437.08658L69.12877,437.08658L69.12877,437.3266L69.60883,437.3266L69.60883,437.56663L69.84886,437.56663L69.84886,438.04668
				L70.32893,438.04668L70.32893,438.2867L70.56896,438.2867L70.56896,438.76676L71.28905,438.76676L71.28905,439.00678L71.52908,439.00678
				L71.52908,439.48683L72.00914,439.48683L72.00914,439.72686L72.24917,439.72686L72.24917,439.96688L72.72923,439.96688L72.72923,440.44693
				L72.96926,440.44693L72.96926,440.68696L73.20929,440.68696L73.20929,441.16701L73.68935,441.16701L73.68935,441.40704L74.40944,441.40704
				L74.40944,441.88709L74.64947,441.88709L74.64947,442.12711L75.12953,442.12711L75.12953,442.60717L75.36957,442.60717L75.36957,442.84719
				L75.84963,442.84719L75.84963,443.08722L76.08966,443.08722L76.08966,443.56727L76.80975,443.56727L76.80975,443.80729L77.52984,443.80729
				L77.52984,444.28734L77.76987,444.28734L77.76987,444.52737L78.48996,444.52737L78.48996,445.00742L79.21005,445.00742L79.21005,445.24745
				L79.45008,445.24745L79.45008,445.48747L80.17017,445.48747L80.17017,445.96752L80.89027,445.96752L80.89027,446.20755L81.1303,446.20755
				L81.1303,446.6876L81.85039,446.6876L81.85039,446.92763L82.33045,446.92763L82.33045,447.40768"/>
			<path clip-path="url(#SVG_CP_2)" fill="none" stroke="#999999" stroke-width="0.96012" stroke-miterlimit="10" stroke-linecap="round" stroke-linejoin="round" d="
				M46.80594,521.33555L46.56591,521.33555L46.56591,520.8555L46.80594,520.8555L46.80594,521.33555"/>
		</g>
</g></svg>