<?xml version="1.0" encoding="utf-8" standalone="no"?>
<!-- Creator: ESRI ArcMap 10.0.0.2414 -->
<!DOCTYPE svg PUBLIC "-//W3C//DTD SVG 1.1//EN"  "http://www.w3.org/Graphics/SVG/1.1/DTD/svg11.dtd">
<svg width="524.0420768pt" height="301.610015754pt" viewBox="32.15712744 270.324127123 524.0420768 301.610015754" enable-background="new 32.15712744 270.324127123 524.0420768 301.610015754"
	version="1.1" xmlns="http://www.w3.org/2000/svg" xmlns:xlink="http://www.w3.org/1999/xlink" >
	<g id="Couches">
		<g id="reservoirs">
			<path clip-path="url(#SVG_CP_2)" fill-opacity="0.2" fill="#07866D" fill-rule="evenodd" stroke="none" stroke-width="" stra="1.44018" stroke-miterlimit="10" stroke-linecap="round" stroke-linejoin="round" d="
				M108.7338,550.37865L91.69164,558.05947L77.76987,565.26024L73.20929,554.21906L65.28829,557.33939L46.56591,520.61548L61.4478,490.13223
				L71.04902,471.89029L74.40944,470.93018L147.13867,516.05499L152.65937,520.13543L157.94004,526.37609L120.01523,546.77827L114.01447,548.21842
				L108.7338,550.37865z"/>
			<path clip-path="url(#SVG_CP_2)" fill-opacity="0.2" fill="#07866D" fill-rule="evenodd" stroke="none" stroke-width="" stra="1.44018" stroke-miterlimit="10" stroke-linecap="round" stroke-linejoin="round" d="
				M258.27278,277.22954L263.31342,300.272L269.31418,295.95154L280.35558,290.43095L279.87552,287.07059L293.31722,282.51011L296.19759,297.15167
				L305.07872,295.71151L299.79805,282.75013L300.03808,280.5899L320.44067,282.03005L324.04112,298.11177L339.6431,296.19156L342.28344,303.63236
				L348.2842,301.71215L376.60779,289.47085L376.60779,288.03069L373.96746,283.71023L384.04874,281.30998L392.92986,302.67225L
				400.61084,299.79195L406.6116,297.87174L409.732,295.95154L421.73352,288.51074L423.89379,292.11113L431.09471,305.31253L446.45666,295.71151
				L459.89836,286.83057L466.85925,301.95218L483.42135,290.911L490.62226,310.5931L498.06321,329.55512L501.66366,340.11624L505.26412,341.31637
				L508.38452,342.27647L509.10461,344.4367L508.86458,346.35691L508.38452,348.75716L508.62455,352.8376L509.10461,354.03773L511.02485,355.71791
				L512.94509,356.19796L515.10537,355.23785L517.02561,354.99783L519.18589,356.19796L523.02637,358.11816L531.42744,362.43862
				L538.14829,366.51906L544.86915,370.11944L548.70963,372.5197L548.94966,372.75972L549.18969,372.99975L548.70963,375.4L548.4696,375.4
				L541.26869,405.4032L528.54707,401.32277L526.62683,400.60269L522.30628,399.16254L515.10537,397.24233L511.74494,396.52225L
				506.22424,395.32213L496.14296,392.92187L494.94281,393.1619L448.13687,394.60205L447.17675,375.64003L445.9766,374.67993L441.65605,351.15742
				L440.21587,351.8775L438.77568,352.35755L434.9352,354.03773L427.25422,358.11816L417.41297,363.87878L401.0909,374.4399L391.24965,380.92059
				L388.84935,382.60077L387.64919,385.24105L386.44904,386.68121L382.60855,389.56151L372.52728,370.11944L347.80414,382.36075
				L341.08328,365.79898L328.12164,373.95985L314.91996,381.88069L300.03808,390.04156L296.91768,383.56087L277.95527,394.36202
				L274.83488,389.32149L246.27125,408.04348L206.66623,397.00231L203.3058,396.52225L202.10565,397.72238L198.26516,398.92251L
				194.6647,399.64259L187.70382,401.80282L175.46227,407.08338L169.46151,409.48364L161.06044,411.40384L150.01904,415.00422L119.05511,425.56535
				L102.49301,431.08594L93.85191,438.04668L88.57124,443.56727L87.37109,442.84719L83.5306,447.6477L76.08966,443.32724L55.20701,424.84527
				L52.32664,404.68312L49.68631,390.28159L49.68631,387.88133L49.20624,384.52098L49.20624,378.28031L50.16637,377.32021L109.45389,393.88197
				L108.97383,383.8009L108.01371,376.84016L108.25374,376.84016L108.7338,376.60013L110.41401,377.80026L112.81432,378.28031L134.89712,373.95985
				L137.05739,373.71982L137.53745,372.5197L134.89712,355.95793L136.09727,354.7578L139.4577,353.55768L145.45846,351.63747L147.85876,351.8775
				L153.6195,353.55768L154.81965,354.03773L157.45998,356.19796L162.26059,360.75844L165.38099,364.59885L169.22148,370.59949L
				171.62178,372.75972L177.14248,375.88005L192.74446,365.79898L208.10641,356.43798L215.78738,352.11752L243.63092,333.63555L
				232.58952,303.87238L251.79195,296.19156L247.23137,279.14975L258.27278,277.22954z"/>
		</g>
</g></svg>