<?xml version="1.0" encoding="utf-8" standalone="no"?>
<!-- Creator: ESRI ArcMap 10.0.0.2414 -->
<!DOCTYPE svg PUBLIC "-//W3C//DTD SVG 1.1//EN"  "http://www.w3.org/Graphics/SVG/1.1/DTD/svg11.dtd">
<svg width="524.0420768pt" height="152.316149636pt" viewBox="32.15712744 344.971060182 524.0420768 152.316149636" enable-background="new 32.15712744 344.971060182 524.0420768 152.316149636"
	version="1.1" xmlns="http://www.w3.org/2000/svg" xmlns:xlink="http://www.w3.org/1999/xlink" >
	<g id="Couches">
		<g id="reservoirs">
			<clipPath id="SVG_CP_2">
				<path d="M574.39289,21.36228L21.36271,21.36228L21.36271,821.36753L574.39289,821.36753L574.39289,21.36228z"/>
			</clipPath>
			<path clip-path="url(#SVG_CP_2)" fill-opacity="0.2" fill="#2f4493" fill-rule="evenodd" stroke="#2f4493" stroke-width="1" stra="1.44018" stroke-miterlimit="10" stroke-linecap="round" stroke-linejoin="round" d="
				M162.02056,354.99783L168.50138,357.15806L174.02208,358.83824L180.50291,361.23849L181.223,363.63875L172.10184,359.55832L163.46074,356.19796
				L157.70001,356.67801L139.69773,361.47852L137.29742,361.71855L130.09651,363.63875L126.01599,363.87878L123.85572,366.99911
				L119.53517,368.91931L117.61493,370.83952L112.81432,372.03965L104.41325,374.4399L99.37261,375.15998L95.77215,376.12008L94.09194,374.67993
				L90.97155,374.4399L85.45084,376.36011L82.33045,373.95985L76.32969,376.12008L72.72923,379.72046L69.84886,378.28031L67.44856,379.24041
				L65.28829,378.28031L62.16789,376.84016L60.72771,379.48044L55.9271,379.72046L52.56667,382.12072L48.00609,381.88069L47.76606,382.36075
				L46.56591,381.40064L50.64643,380.44054L54.48692,378.76036L57.60731,378.28031L60.24765,377.56023L61.68783,375.15998L67.20853,377.08018
				L71.76911,374.67993L75.6096,373.95985L82.57048,371.79962L85.69087,373.95985L92.1717,373.4798L95.77215,375.15998L102.97307,373.71982
				L112.09423,371.07954L117.13487,369.15934L120.25526,367.95921L121.45541,367.23913L122.8956,366.27903L123.85572,365.31893L
				124.33578,363.39872L125.53593,362.91867L134.17703,361.23849L140.41782,359.79834L141.61797,359.31829L152.65937,356.19796L
				162.02056,354.99783z"/>
			<path clip-path="url(#SVG_CP_2)" fill-opacity="0.2" fill="#2f4493" fill-rule="evenodd" stroke="none" d="M329.32179,379.72046L329.32179,379.48044
				L329.32179,379.72046L330.76198,379.72046L330.28191,380.44054L332.44219,380.20051L331.96213,380.92059L330.28191,383.08082
				L330.04188,383.32085L330.76198,383.8009L331.00201,383.8009L330.52194,385.00103L330.28191,385.96113L329.80185,387.64131L329.56182,388.36138
				L329.32179,388.84144L329.32179,389.56151L329.32179,390.04156L329.32179,391.24169L329.32179,391.72174L329.32179,392.92187
				L329.08176,393.88197L328.84173,394.60205L328.84173,396.0422L328.36167,396.52225L328.12164,397.24233L327.88161,397.72238L
				327.88161,397.96241L326.92149,400.12264L326.2014,401.80282L325.96137,402.04284L325.72134,403.00294L325.48131,403.483L324.76121,404.20307
				L324.04112,404.92315L323.56106,405.4032L323.081,405.88325L322.60094,406.84335L322.36091,407.56343L322.12088,408.04348L321.88085,408.52353
				L321.64082,408.76356L321.64082,409.24361L320.92073,409.96369L320.44067,410.68376L320.20063,411.16381L319.72057,412.12392
				L318.76045,413.08402L318.52042,413.32404L318.28039,413.08402L317.08024,414.04412L316.60018,414.52417L316.12012,415.00422
				L314.4399,415.48427L311.07948,416.6844L310.83945,415.24425L309.87933,415.24425L309.63929,414.7642L308.67917,414.7642L308.43914,410.20371
				L309.63929,409.96369L307.95908,402.76292L307.71905,403.00294L307.47902,403.00294L307.47902,403.24297L306.27887,403.483L305.31875,403.24297
				L303.87856,403.24297L303.63853,405.4032L303.63853,408.28351L300.75817,408.52353L300.75817,411.40384L300.51814,411.64387L
				299.79805,412.60397L299.31798,412.84399L298.59789,412.84399L298.11783,413.08402L296.67765,413.32404L295.4775,413.32404L293.79728,413.56407
				L293.31722,413.56407L293.07719,413.56407L292.3571,414.04412L291.63701,414.52417L290.91692,414.7642L290.19683,413.08402L289.71677,411.88389
				L287.79652,409.24361L287.31646,409.24361L287.31646,409.72366L287.31646,411.16381L287.07643,412.12392L286.8364,411.88389L
				286.59637,412.36394L283.23594,412.12392L283.23594,410.44374L282.75588,410.44374L281.79576,413.08402L280.11555,411.88389L
				280.11555,411.64387L279.39546,411.16381L279.15543,410.92379L279.15543,411.40384L278.67537,411.40384L277.95527,411.64387L
				277.23518,411.40384L276.99515,411.16381L275.55497,410.20371L275.07491,409.72366L274.83488,409.00358L274.59485,409.00358L
				274.59485,408.28351L274.59485,408.04348L272.6746,408.04348L272.91463,407.32341L271.71448,407.32341L271.71448,407.08338L271.23442,407.08338
				L270.99439,407.32341L270.99439,408.04348L270.2743,409.24361L270.03427,410.20371L270.03427,410.68376L269.79424,411.16381L
				269.79424,411.64387L266.67384,413.32404L266.43381,413.08402L261.87323,412.60397L260.43305,412.36394L257.55268,410.68376L
				255.63244,409.48364L251.55192,406.84335L249.15162,405.88325L247.23137,405.64323L246.99134,403.24297L246.75131,402.28287L
				245.79119,401.08274L243.39089,398.20243L242.19074,397.00231L240.03046,396.28223L236.18997,396.76228L235.22985,396.76228L
				234.98982,397.00231L232.58952,399.40256L232.34949,400.84271L231.38936,400.84271L231.38936,401.80282L232.10946,402.04284L
				231.86943,403.483L232.10946,404.20307L231.86943,406.12328L231.62939,407.80346L231.62939,408.04348L228.26897,406.12328L227.54888,405.64323
				L226.58876,405.64323L225.86866,405.64323L225.62863,405.64323L225.62863,407.08338L226.10869,407.80346L225.62863,408.28351
				L224.42848,408.28351L224.18845,408.76356L224.90854,409.48364L222.9883,412.60397L223.46836,413.32404L223.22833,414.04412L
				222.9883,416.20435L220.58799,414.52417L219.38784,416.92443L219.38784,418.12456L218.66775,420.52481L217.70763,422.68504L216.50748,422.20499
				L216.26745,423.40512L215.78738,423.16509L215.54735,423.40512L214.3472,422.92507L213.62711,420.04476L214.3472,420.04476L214.3472,419.56471
				L213.38708,419.32468L212.90702,422.44502L213.38708,425.56535L214.58723,425.56535L214.82726,427.24553L214.3472,427.48555L
				211.70687,427.72558L211.70687,427.9656L216.02742,427.48555L216.26745,429.88581L216.50748,432.04604L216.74751,434.20627L208.10641,435.64642
				L202.34568,436.60653L202.82574,438.76676L202.58571,438.76676L202.58571,439.00678L200.1854,439.24681L197.54507,439.48683L
				192.98449,441.16701L192.74446,440.92699L192.98449,439.00678L192.74446,438.76676L191.78434,438.76676L191.78434,438.2867L191.54431,438.2867
				L191.54431,437.3266L190.34416,437.08658L189.62406,437.56663L189.62406,437.08658L188.90397,437.08658L188.66394,433.96624L
				188.42391,433.48619L188.42391,432.76612L188.90397,431.56599L188.90397,430.84591L189.62406,429.88581L189.86409,426.28543L
				189.86409,426.0454L190.10413,426.0454L190.10413,425.80537L190.10413,425.32532L188.18388,422.92507L187.46379,421.48491L187.46379,420.76484
				L188.90397,420.04476L188.66394,419.56471L187.46379,419.56471L187.70382,418.36458L189.144,416.44438L189.144,415.96433L188.66394,413.8041
				L187.22376,407.80346L186.26364,404.68312L185.78358,403.72302L185.30352,403.00294L184.10336,402.04284L183.6233,401.80282L
				184.10336,401.32277L183.6233,400.60269L183.38327,400.36266L183.14324,400.12264L181.94309,397.96241L185.54355,396.52225L186.98373,395.80218
				L187.22376,395.56215L186.98373,395.0821L186.7437,394.60205L186.7437,394.36202L186.50367,393.64195L183.86333,395.0821L180.74294,397.96241
				L180.26288,397.72238L180.02285,397.48236L179.30275,397.24233L178.58266,397.00231L177.86257,397.24233L177.86257,397.72238
				L177.62254,397.96241L178.1026,398.20243L178.1026,398.44246L177.38251,398.92251L176.66242,398.68248L175.94233,400.84271L175.7023,401.32277
				L175.46227,402.04284L175.46227,402.52289L175.46227,402.76292L175.22224,403.483L174.74218,405.16318L174.26211,407.08338L174.02208,407.08338
				L173.78205,407.32341L172.10184,406.84335L171.86181,406.84335L171.62178,407.08338L171.38175,407.80346L170.66166,409.48364
				L170.42163,409.24361L170.1816,409.96369L169.70154,411.16381L169.46151,412.36394L169.22148,412.60397L168.98144,412.84399L
				168.98144,413.08402L169.22148,413.32404L169.22148,413.8041L169.22148,414.52417L168.98144,414.7642L167.30123,414.7642L167.0612,414.7642
				L166.10108,414.7642L165.38099,415.00422L164.90093,415.00422L164.90093,415.24425L164.6609,415.24425L164.42087,415.24425L163.22071,415.96433
				L162.50062,416.44438L162.26059,416.6844L161.78053,417.16445L161.5405,417.64451L161.30047,417.88453L160.82041,418.36458L160.58038,418.84463
				L160.58038,419.08466L160.10032,419.08466L159.86029,419.32468L159.1402,419.80474L158.90017,420.04476L158.4201,419.32468L157.94004,418.60461
				L157.45998,418.84463L156.97992,419.32468L156.49986,419.56471L155.77977,419.80474L155.29971,419.80474L154.57962,419.80474
				L154.81965,420.28479L153.6195,420.52481L152.65937,420.76484L152.65937,421.00486L153.13943,421.72494L153.13943,421.96497L
				153.37946,422.44502L153.13943,422.44502L153.13943,422.92507L153.6195,424.84527L153.37946,425.0853L153.6195,425.32532L153.13943,425.56535
				L152.65937,425.80537L152.41934,426.28543L151.45922,426.76548L150.4991,427.48555L151.21919,428.92571L150.73913,429.16573L
				150.73913,429.64578L150.4991,429.88581L150.25907,429.88581L150.01904,429.88581L149.29895,429.40576L148.57886,428.92571L148.09879,428.68568
				L145.93852,428.68568L144.25831,427.9656L142.81812,427.24553L140.89788,426.76548L139.4577,426.28543L139.4577,426.0454L138.97764,426.0454
				L138.25755,425.32532L137.53745,424.1252L136.3373,423.16509L136.09727,422.20499L133.937,420.52481L134.17703,420.04476L133.937,419.80474
				L134.41706,419.32468L134.41706,418.60461L134.41706,418.36458L132.97688,419.08466L131.77672,416.92443L131.05663,415.48427
				L130.8166,414.7642L130.33654,413.56407L130.09651,412.84399L129.61645,412.60397L128.4163,409.96369L127.69621,407.32341L127.69621,405.88325
				L127.45618,405.4032L127.45618,403.96305L127.69621,402.52289L127.69621,402.04284L127.69621,400.12264L128.17627,398.44246L
				128.89636,395.56215L129.37642,392.68185L129.37642,392.44182L129.37642,392.20179L129.13639,391.72174L129.37642,390.76164L
				129.37642,390.04156L129.13639,389.08146L128.89636,388.60141L128.89636,387.40128L128.4163,386.92123L127.93624,385.96113L127.45618,385.48108
				L127.93624,384.761L128.65633,384.28095L128.89636,384.04092L129.61645,383.8009L130.09651,383.32085L130.33654,383.08082L130.33654,383.32085
				L130.57657,383.8009L130.57657,384.28095L131.53669,383.56087L131.53669,383.8009L131.77672,383.56087L132.49681,382.60077L131.77672,381.40064
				L131.53669,381.40064L131.53669,381.16062L132.01675,380.44054L132.25678,380.44054L132.49681,380.20051L133.69697,379.48044
				L134.65709,379.00039L134.89712,379.00039L135.13715,379.00039L136.3373,378.52034L136.81736,379.00039L137.05739,379.00039L
				138.97764,378.52034L139.4577,379.48044L139.93776,379.48044L140.65785,379.48044L141.858,379.24041L143.53822,378.76036L144.73837,378.52034
				L145.21843,378.04028L145.69849,377.56023L146.89864,376.84016L147.61873,376.60013L148.57886,376.12008L149.77901,375.64003
				L150.73913,375.64003L150.97916,375.64003L151.93928,375.4L151.69925,375.4L151.93928,375.4L152.17931,375.4L152.17931,375.15998
				L153.37946,374.91995L155.29971,374.91995L156.0198,374.67993L161.06044,374.67993L163.46074,376.84016L163.70077,377.08018L
				162.50062,377.56023L162.26059,377.80026L161.30047,378.52034L160.10032,379.00039L159.1402,379.72046L158.18007,379.48044L157.70001,379.96049
				L157.70001,380.44054L158.18007,381.40064L158.4201,381.40064L160.10032,381.40064L162.50062,381.40064L164.18084,381.40064L
				164.6609,381.40064L168.74141,378.76036L168.50138,378.28031L166.58114,375.4L168.98144,375.15998L168.74141,375.15998L170.1816,374.91995
				L170.66166,374.91995L173.30199,374.4399L174.50215,374.19988L176.66242,373.71982L176.90245,373.71982L178.1026,373.71982L180.02285,373.71982
				L180.50291,373.71982L181.223,373.71982L181.46303,373.71982L181.94309,373.71982L182.90321,373.4798L184.58342,373.23977L184.82346,373.23977
				L185.78358,373.23977L186.02361,374.91995L187.22376,374.91995L187.46379,374.91995L187.94385,373.95985L188.42391,372.99975
				L188.90397,372.5197L189.38403,373.4798L190.58419,373.23977L190.34416,372.27967L193.22452,371.07954L194.6647,370.35947L194.90473,370.11944
				L195.3848,369.63939L195.62483,369.63939L195.86486,369.15934L195.86486,368.91931L196.34492,368.67929L197.06501,368.43926L
				197.06501,368.19924L199.70534,366.51906L200.66547,366.03901L201.38556,365.79898L201.86562,365.79898L203.3058,365.31893L203.78586,365.31893
				L204.26592,365.0789L205.22604,364.83888L205.70611,364.83888L205.94614,364.59885L206.4262,364.59885L206.66623,364.35883L206.90626,364.35883
				L212.18693,363.1587L212.42696,362.91867L215.30732,361.95857L215.54735,361.95857L215.78738,361.71855L216.74751,361.47852L
				216.98754,361.23849L217.4676,360.99847L217.94766,360.75844L219.38784,360.27839L219.62787,360.27839L220.10793,360.03837L220.34796,360.03837
				L222.74827,358.59821L224.18845,358.35819L229.70915,356.67801L235.22985,354.51778L235.46988,354.27775L235.94994,355.71791
				L237.87019,355.47788L238.83031,354.99783L240.27049,354.27775L239.5504,352.8376L243.63092,351.39745L244.35101,351.39745L248.43153,350.67737
				L248.91159,350.67737L250.83183,351.63747L251.31189,351.39745L251.31189,351.8775L251.79195,352.11752L252.03198,353.7977L252.03198,354.27775
				L252.03198,354.51778L252.99211,357.15806L258.51281,355.71791L261.15314,355.23785L263.07339,354.7578L263.07339,354.99783L
				263.07339,358.59821L263.07339,359.31829L263.07339,361.23849L264.7536,361.23849L264.99363,360.03837L264.99363,358.11816L264.99363,357.63811
				L264.99363,357.15806L266.91387,356.43798L268.35406,355.95793L268.35406,354.03773L271.95451,352.8376L273.15466,354.27775L
				276.75512,352.8376L278.1953,352.11752L278.43533,352.11752L277.95527,351.39745L277.47521,350.43734L282.75588,348.99719L283.47597,348.99719
				L283.716,349.71727L286.59637,348.75716L286.59637,348.99719L284.67613,350.67737L285.15619,350.67737L285.15619,351.39745L286.8364,351.39745
				L287.07643,353.07762L286.8364,354.03773L286.11631,355.23785L285.63625,356.19796L285.63625,356.91803L284.4361,359.55832L284.19607,360.51842
				L282.75588,363.1587L282.03579,363.87878L282.27582,364.35883L284.4361,363.87878L284.67613,363.39872L284.91616,362.43862L285.15619,361.47852
				L285.39622,361.71855L286.11631,361.47852L286.8364,365.31893L289.23671,365.0789L289.47674,364.59885L289.71677,363.1587L290.19683,362.67865
				L290.43686,362.43862L291.15695,361.95857L289.23671,357.63811L288.99668,357.15806L289.47674,354.7578L289.23671,353.07762L
				288.75664,352.11752L288.51661,351.63747L288.27658,351.15742L288.27658,349.71727L289.23671,349.23722L290.43686,348.75716L
				290.91692,349.23722L292.3571,348.51714L294.03731,348.51714L295.71753,349.47724L297.39774,351.15742L299.31798,351.63747L300.9982,351.8775
				L303.63853,350.91739L303.63853,357.15806L306.75893,356.91803L306.03884,357.87814L305.55878,358.59821L305.79881,359.07826
				L306.03884,359.55832L306.5189,359.55832L307.71905,359.07826L308.19911,359.31829L307.47902,360.03837L306.75893,360.27839L
				306.27887,360.51842L306.75893,360.99847L307.23899,361.47852L306.5189,363.39872L307.23899,364.1188L307.47902,364.1188L307.47902,364.35883
				L307.71905,364.59885L307.47902,364.83888L307.23899,367.23913L306.5189,367.47916L306.27887,367.71918L306.27887,368.19924L
				307.47902,368.19924L307.47902,368.91931L306.75893,368.91931L306.5189,371.79962L306.27887,372.03965L306.27887,372.27967L306.03884,372.5197
				L305.31875,375.88005L305.31875,376.12008L305.07872,377.08018L305.07872,377.80026L304.83869,378.76036L305.07872,380.44054
				L305.07872,382.60077L305.07872,382.8408L305.79881,385.00103L308.43914,382.60077L310.11936,382.36075L326.68146,379.72046L
				327.64158,379.48044L329.32179,379.48044L328.84173,377.08018L327.64158,377.08018L327.64158,376.84016L326.68146,373.4798L313.47978,379.72046
				L308.67917,380.92059L308.19911,379.96049L307.95908,378.76036L309.15923,378.52034L309.39926,377.32021L309.39926,375.15998
				L308.43914,374.91995L308.9192,371.79962L309.39926,368.67929L309.15923,366.03901L309.39926,365.0789L310.59942,361.47852L310.83945,360.75844
				L311.07948,360.03837L311.31951,359.31829L311.31951,358.83824L311.31951,358.11816L311.79957,357.15806L312.51966,355.95793
				L313.71981,355.23785L315.64006,353.55768L318.52042,351.8775L321.88085,349.47724L324.76121,350.43734L325.72134,351.15742L
				328.12164,353.31765L331.00201,353.7977L332.44219,354.51778L333.88237,355.23785L336.52271,356.91803L338.20292,358.11816L338.92301,357.63811
				L339.88313,357.87814L343.48359,358.35819L346.84402,357.87814L347.80414,358.35819L352.36472,359.07826L353.32484,358.83824
				L356.68526,358.35819L360.04569,359.07826L362.446,360.03837L364.8463,360.75844L368.92682,360.75844L371.56715,360.99847L374.68755,362.67865
				L377.80795,363.63875L380.68831,364.59885L383.32865,365.55895L386.44904,365.79898L389.56944,365.55895L391.72971,366.27903
				L394.37005,367.23913L398.21053,368.43926L400.37081,368.43926L401.0909,369.15934L401.57096,369.87942L402.77111,371.55959L
				403.97127,373.71982L406.37157,375.4L407.81175,376.12008L409.25194,376.60013L411.17218,377.08018L414.77264,377.56023L415.2527,377.56023
				L416.21282,378.04028L417.89303,379.24041L419.57325,380.68057L422.69364,383.8009L423.41373,384.52098L424.13382,385.7211L424.37385,386.68121
				L424.37385,387.40128L424.61389,390.04156L424.37385,391.48172L424.37385,391.72174L424.85392,392.20179L423.41373,393.1619L
				423.1737,393.1619L422.93367,393.1619L422.45361,392.92187L421.25346,393.88197L421.25346,394.122L419.57325,394.84208L420.29334,396.28223
				L420.05331,396.76228L418.37309,399.16254L419.81328,400.36266L422.21358,397.48236L423.65376,398.92251L425.09395,397.24233
				L427.25422,399.88261L427.97431,400.84271L425.09395,403.96305L425.57401,404.4431L426.05407,404.20307L426.77416,403.483L427.01419,403.483
				L427.49425,404.20307L428.45437,403.483L429.17446,404.20307L431.8148,401.80282L432.05483,402.28287L433.25498,403.72302L434.2151,404.68312
				L432.29486,406.84335L431.8148,407.08338L433.01495,408.04348L433.73504,407.56343L434.69516,408.28351L433.97507,409.24361L
				435.41526,410.20371L435.89532,410.44374L436.37538,410.20371L437.57553,409.96369L439.01571,411.64387L435.41526,414.28415L
				436.13535,415.00422L439.25574,419.56471L442.13611,417.64451L443.09623,418.84463L445.73657,417.16445L445.9766,417.40448L446.69669,418.12456
				L446.69669,418.36458L444.53641,419.56471L446.69669,422.20499L446.69669,422.44502L447.41678,421.96497L447.65681,421.96497
				L448.13687,421.96497L448.3769,422.44502L448.61693,422.20499L449.09699,422.68504L449.33702,422.20499L450.77721,421.24489L
				451.97736,422.20499L452.45742,421.24489L453.65757,421.72494L453.8976,421.96497L454.61769,422.44502L453.65757,423.40512L454.85772,424.60525
				L455.09775,424.36522L456.05788,423.40512L456.29791,423.40512L457.25803,424.60525L457.25803,424.84527L457.97812,426.28543
				L454.85772,429.16573L455.33778,429.88581L456.53794,431.08594L457.018,432.04604L457.25803,431.80601L457.73809,431.32596L458.45818,432.04604
				L458.69821,431.80601L458.93824,431.80601L459.89836,430.84591L460.37842,430.60589L461.81861,434.20627L460.61845,434.92635
				L461.09852,435.4064L461.57858,435.64642L462.05864,435.4064L462.29867,435.64642L462.5387,435.64642L463.01876,436.3665L463.49882,437.08658
				L463.73885,437.3266L463.73885,437.56663L464.21891,437.80665L465.17903,438.52673L465.41906,438.76676L464.45894,439.96688L
				464.939,440.20691L465.41906,440.68696L465.89912,441.16701L466.13915,441.16701L466.13915,441.40704L466.37919,441.40704L466.37919,441.88709
				L466.85925,442.12711L467.09928,442.36714L467.81937,442.12711L471.41983,445.24745L473.82013,447.16765L473.82013,447.40768
				L474.06016,447.88773L475.02028,448.84783L473.82013,450.52801L473.5801,451.00806L473.34007,452.92826L473.34007,453.64834L
				473.82013,456.28862L474.54022,458.68888L474.78025,459.40896L475.02028,460.12903L475.26031,460.60908L475.26031,460.84911L
				475.26031,461.56919L475.74037,462.28926L475.9804,461.80921L477.18056,462.76931L480.78101,459.40896L480.30095,460.12903L480.06092,460.60908
				L480.30095,460.84911L480.54098,461.08913L480.78101,461.32916L481.26107,462.04924L482.2212,463.00934L482.70126,463.24936L
				484.6215,464.20947L485.58162,464.92954L489.42211,468.04988L490.62226,468.52993L493.02257,469.73006L493.98269,469.73006L494.70278,469.97008
				L496.14296,469.97008L497.34311,470.45013L498.06321,470.69016L499.02333,470.45013L499.50339,470.45013L500.22348,470.21011
				L500.70354,470.21011L500.94357,470.45013L501.66366,470.69016L503.10385,471.65026L505.50415,472.61036L505.50415,472.37034
				L505.50415,472.13031L505.50415,471.89029L505.02409,471.89029L505.50415,470.69016L505.02409,470.45013L504.54403,470.21011
				L504.304,469.97008L503.82394,469.73006L503.58391,469.73006L503.10385,469.25L502.86382,469.25L502.62378,469.00998L502.14372,468.76995
				L501.90369,468.76995L501.66366,468.52993L501.1836,468.04988L500.94357,468.04988L500.70354,467.80985L500.22348,467.56983L
				499.98345,467.3298L499.74342,467.3298L499.02333,466.84975L499.02333,465.40959L498.54327,463.24936L499.02333,463.48939L499.02333,463.00934
				L499.02333,462.76931L499.26336,462.28926L499.26336,461.56919L499.50339,461.56919L499.26336,459.88901L500.46351,460.12903
				L500.70354,459.88901L502.38375,460.12903L503.10385,460.12903L503.34388,460.36906L504.78406,460.36906L506.7043,460.12903L
				506.94433,460.12903L507.42439,460.36906L507.66442,460.36906L508.86458,460.12903L512.225,462.04924L512.225,463.72942L512.70506,463.24936
				L512.94509,463.96944L513.42516,465.88965L513.90522,466.12967L514.62531,466.84975L516.54555,468.04988L517.26564,468.2899L
				517.50567,468.2899L517.98573,468.2899L518.22576,468.52993L518.4658,468.76995L518.94586,468.76995L518.94586,469.00998L519.18589,469.00998
				L519.42592,469.00998L519.90598,469.25L520.38604,469.49003L520.8661,469.49003L521.10613,469.49003L521.58619,469.73006L522.06625,469.97008
				L522.54631,470.45013L522.78634,470.69016L523.2664,470.93018L523.2664,471.17021L523.74647,471.41023L524.22653,471.89029L525.18665,472.85039
				L527.34692,474.53057L527.58695,474.77059L527.82698,475.01062L528.06701,475.25064L528.06701,475.49067L528.30704,475.49067
				L528.54707,475.73069L528.78711,475.49067L529.74723,475.01062L529.98726,474.77059L530.46732,474.29054L530.94738,474.77059
				L531.18741,475.01062L531.42744,475.01062L531.66747,475.25064L532.38756,474.05052L533.34768,473.57046L533.82774,473.33044
				L534.30781,472.85039L534.30781,472.61036L535.98802,473.33044L536.22805,472.85039L536.22805,472.61036L537.66823,472.85039
				L538.86838,473.09041L540.06854,473.57046L541.02866,473.81049L541.74875,474.05052L542.22881,474.29054L543.42896,474.53057
				L544.86915,474.77059L546.30933,474.77059L546.30933,474.53057L547.26945,474.53057L547.74951,474.53057L548.22957,474.77059
				L548.4696,474.53057L548.70963,474.53057L548.94966,474.53057L548.22957,475.49067L548.22957,475.73069L548.22957,475.49067L
				548.22957,475.73069L548.4696,475.73069L548.94966,476.6908L549.18969,477.89092L546.54936,479.09105L544.86915,480.05116L538.86838,485.09169
				L537.90826,484.61164L537.66823,484.61164L537.18817,485.09169L536.94814,485.33172L535.74799,486.05179L534.78787,485.57174
				L533.82774,485.33172L530.70735,491.09233L529.02714,492.53249L528.06701,493.49259L519.42592,493.73261L521.58619,491.57238
				L520.38604,491.33236L519.18589,491.33236L517.26564,491.57238L516.06549,491.57238L514.86534,491.09233L511.50491,493.97264
				L510.78482,493.01254L510.06473,493.01254L506.94433,493.97264L501.42363,493.49259L501.42363,493.01254L500.94357,492.77251
				L500.22348,493.25256L499.98345,493.25256L498.7833,493.01254L498.7833,492.77251L497.58315,493.25256L497.34311,493.49259L496.62302,492.53249
				L495.90293,492.29246L495.42287,492.05243L494.70278,491.57238L493.74266,491.09233L493.2626,490.61228L490.86229,490.37225L
				489.18208,489.8922L486.30171,488.9321L480.78101,487.49195L479.58086,487.49195L476.22043,487.73197L476.22043,487.49195L475.9804,487.25192
				L475.50034,486.29182L475.26031,485.09169L475.02028,484.37162L470.21967,485.09169L469.01952,484.61164L467.09928,483.41151
				L466.85925,486.05179L466.85925,487.49195L465.89912,487.73197L465.41906,487.49195L465.17903,487.0119L464.69897,486.29182L
				464.69897,485.81177L465.17903,485.09169L466.13915,483.41151L467.57934,479.81113L467.57934,479.5711L467.33931,479.5711L467.81937,478.13095
				L468.29943,476.93082L467.09928,479.33108L466.61922,480.53121L465.17903,484.13159L463.97888,478.85103L462.5387,474.05052L
				459.89836,471.65026L460.37842,471.17021L459.65833,470.21011L459.4183,469.49003L457.49806,468.04988L456.53794,469.00998L455.57781,468.2899
				L455.09775,468.52993L451.97736,466.12967L450.53717,464.44949L449.57705,463.00934L449.09699,462.04924L447.89684,460.84911
				L446.93672,459.88901L445.2565,458.68888L444.53641,458.20883L442.8562,457.0087L439.7358,454.84847L438.77568,453.64834L437.81556,452.92826
				L435.41526,451.24809L431.8148,448.84783L428.45437,445.96752L427.25422,446.44757L426.53413,446.20755L425.33398,447.16765L
				423.89379,445.24745L421.01343,442.60717L418.61312,439.96688L419.57325,439.24681L418.85315,438.76676L418.85315,438.2867L419.09318,437.56663
				L417.89303,436.12647L418.37309,435.4064L419.81328,436.3665L420.29334,436.3665L420.53337,435.88645L420.29334,435.4064L419.33322,434.68632
				L419.09318,434.4463L418.37309,433.96624L418.13306,433.96624L417.653,434.92635L417.41297,434.92635L417.17294,435.4064L416.93291,435.16637
				L416.45285,434.4463L415.73276,434.20627L415.01267,433.72622L414.77264,433.48619L414.53261,433.24617L413.81251,432.76612L
				413.33245,432.04604L413.33245,431.80601L413.33245,431.32596L413.57248,430.60589L412.85239,430.84591L412.61236,430.60589L
				409.49197,427.9656L409.25194,427.48555L408.53184,427.0055L406.6116,425.56535L407.09166,425.0853L407.33169,424.84527L406.37157,423.16509
				L405.41145,422.68504L404.93139,421.96497L404.2113,421.72494L403.73124,421.48491L403.4912,421.24489L402.77111,421.00486L401.81099,421.00486
				L401.33093,421.72494L401.0909,421.72494L400.37081,421.48491L398.6906,421.00486L397.73047,421.00486L397.25041,421.00486L397.25041,420.52481
				L397.01038,420.52481L397.25041,420.28479L397.49044,420.04476L397.49044,419.80474L394.61008,420.04476L394.37005,420.52481
				L391.96974,420.52481L390.76959,420.76484L389.80947,421.24489L388.60932,421.48491L386.20901,421.48491L384.76883,421.72494
				L384.5288,421.72494L384.04874,420.76484L383.80871,420.52481L386.44904,419.56471L385.96898,416.92443L385.00886,417.16445L
				384.28877,415.7243L382.60855,413.8041L383.08862,413.32404L379.24813,409.48364L379.72819,407.80346L380.44828,406.12328L381.64843,402.76292
				L381.88846,402.76292L382.60855,403.483L383.08862,402.28287L384.5288,398.68248L385.96898,395.56215L387.40916,395.80218L388.84935,396.52225
				L389.80947,397.00231L391.00962,397.72238L392.20977,398.44246L393.16989,401.56279L393.64996,401.56279L394.13002,401.80282
				L392.20977,403.72302L393.16989,404.68312L392.68983,405.16318L393.16989,405.88325L396.29029,403.72302L396.77035,404.68312
				L394.61008,406.60333L394.85011,407.08338L395.81023,409.00358L397.25041,410.92379L396.05026,411.88389L396.77035,412.84399
				L398.21053,411.64387L399.89075,409.96369L399.89075,409.72366L399.65072,409.00358L400.13078,408.52353L400.61084,408.52353
				L401.0909,408.04348L401.57096,407.32341L401.81099,407.08338L401.57096,406.60333L400.85087,404.92315L400.13078,403.96305L
				398.6906,404.4431L397.73047,402.52289L398.6906,401.32277L398.45057,399.88261L398.21053,399.16254L397.73047,399.16254L397.25041,399.40256
				L396.77035,398.68248L396.29029,398.68248L396.29029,397.96241L395.5702,399.16254L394.37005,397.96241L394.13002,397.24233L
				393.40993,396.52225L392.4498,396.0422L391.72971,395.80218L391.00962,395.56215L389.56944,394.60205L388.84935,394.122L387.88922,393.64195
				L386.68907,393.40192L385.96898,393.40192L384.76883,393.1619L383.80871,392.68185L383.32865,392.44182L382.84859,391.24169L
				382.60855,390.04156L382.36852,388.84144L382.12849,388.60141L382.84859,388.36138L388.60932,388.60141L389.32941,388.60141L
				389.56944,387.88133L387.64919,387.88133L387.40916,387.16126L386.44904,386.44118L382.60855,384.761L382.60855,387.40128L381.4084,387.16126
				L381.64843,387.64131L380.20825,387.40128L379.96822,387.64131L379.72819,387.40128L379.24813,387.40128L379.24813,388.84144
				L378.52804,388.84144L378.52804,389.80154L379.0081,389.80154L380.44828,389.80154L380.44828,390.28159L380.44828,391.24169L
				379.72819,391.96177L380.20825,392.68185L380.44828,393.64195L380.68831,394.36202L379.72819,397.00231L378.76807,398.68248L
				376.84782,402.04284L376.36776,401.80282L375.64767,401.32277L374.68755,400.84271L373.72743,402.76292L377.32788,405.64323L
				374.68755,407.80346L373.00734,409.24361L367.24661,402.76292L362.446,409.48364L358.36548,404.92315L352.36472,404.92315L352.12469,401.80282
				L349.24432,402.04284L349.00429,400.36266L348.76426,398.20243L348.04417,396.0422L348.04417,395.32213L346.12392,393.1619L345.64386,392.20179
				L345.40383,391.00167L345.1638,389.08146L344.68374,388.36138L343.96365,387.64131L344.44371,385.00103L344.68374,382.12072L
				344.68374,381.40064L344.44371,381.40064L343.48359,381.16062L343.24356,380.92059L343.00353,380.68057L340.36319,380.44054L
				340.36319,380.20051L340.12316,379.96049L334.1224,379.24041L333.64234,379.72046L332.44219,379.72046L331.96213,379.48044L329.32179,379.72046
				zM305.07872,386.20115L304.35862,383.08082L304.35862,383.32085L301.95832,384.52098L301.71829,384.04092L300.75817,384.761L
				303.15847,388.36138L304.59865,386.68121L305.07872,386.20115zM133.937,384.04092L133.21691,383.56087L132.49681,382.8408L132.97688,384.52098
				L133.21691,385.00103L133.69697,384.52098L133.937,384.04092zM154.09956,418.12456L154.33959,419.56471L155.53974,419.32468L
				155.05968,417.64451L154.57962,417.88453L154.09956,418.12456z"/>
			<path clip-path="url(#SVG_CP_2)" fill="none" stroke="#2f4493" stroke-width="1" stra="1.44018" stroke-miterlimit="10" stroke-linecap="round" stroke-linejoin="round" d="
				M329.32179,379.72046L329.32179,379.48044L329.32179,379.72046L330.76198,379.72046L330.28191,380.44054L332.44219,380.20051
				L331.96213,380.92059L330.28191,383.08082L330.04188,383.32085L330.76198,383.8009L331.00201,383.8009L330.52194,385.00103L330.28191,385.96113
				L329.80185,387.64131L329.56182,388.36138L329.32179,388.84144L329.32179,389.56151L329.32179,390.04156L329.32179,391.24169
				L329.32179,391.72174L329.32179,392.92187L329.08176,393.88197L328.84173,394.60205L328.84173,396.0422L328.36167,396.52225L
				328.12164,397.24233L327.88161,397.72238L327.88161,397.96241L326.92149,400.12264L326.2014,401.80282L325.96137,402.04284L325.72134,403.00294
				L325.48131,403.483L324.76121,404.20307L324.04112,404.92315L323.56106,405.4032L323.081,405.88325L322.60094,406.84335L322.36091,407.56343
				L322.12088,408.04348L321.88085,408.52353L321.64082,408.76356L321.64082,409.24361L320.92073,409.96369L320.44067,410.68376
				L320.20063,411.16381L319.72057,412.12392L318.76045,413.08402L318.52042,413.32404L318.28039,413.08402L317.08024,414.04412
				L316.60018,414.52417L316.12012,415.00422L314.4399,415.48427L311.07948,416.6844L310.83945,415.24425L309.87933,415.24425L309.63929,414.7642
				L308.67917,414.7642L308.43914,410.20371L309.63929,409.96369L307.95908,402.76292L307.71905,403.00294L307.47902,403.00294L
				307.47902,403.24297L306.27887,403.483L305.31875,403.24297L303.87856,403.24297L303.63853,405.4032L303.63853,408.28351L300.75817,408.52353
				L300.75817,411.40384L300.51814,411.64387L299.79805,412.60397L299.31798,412.84399L298.59789,412.84399L298.11783,413.08402
				L296.67765,413.32404L295.4775,413.32404L293.79728,413.56407L293.31722,413.56407L293.07719,413.56407L292.3571,414.04412L291.63701,414.52417
				L290.91692,414.7642L290.19683,413.08402L289.71677,411.88389L287.79652,409.24361L287.31646,409.24361L287.31646,409.72366L
				287.31646,411.16381L287.07643,412.12392L286.8364,411.88389L286.59637,412.36394L283.23594,412.12392L283.23594,410.44374L282.75588,410.44374
				L281.79576,413.08402L280.11555,411.88389L280.11555,411.64387L279.39546,411.16381L279.15543,410.92379L279.15543,411.40384
				L278.67537,411.40384L277.95527,411.64387L277.23518,411.40384L276.99515,411.16381L275.55497,410.20371L275.07491,409.72366
				L274.83488,409.00358L274.59485,409.00358L274.59485,408.28351L274.59485,408.04348L272.6746,408.04348L272.91463,407.32341L
				271.71448,407.32341L271.71448,407.08338L271.23442,407.08338L270.99439,407.32341L270.99439,408.04348L270.2743,409.24361L270.03427,410.20371
				L270.03427,410.68376L269.79424,411.16381L269.79424,411.64387L266.67384,413.32404L266.43381,413.08402L261.87323,412.60397
				L260.43305,412.36394L257.55268,410.68376L255.63244,409.48364L251.55192,406.84335L249.15162,405.88325L247.23137,405.64323
				L246.99134,403.24297L246.75131,402.28287L245.79119,401.08274L243.39089,398.20243L242.19074,397.00231L240.03046,396.28223
				L236.18997,396.76228L235.22985,396.76228L234.98982,397.00231L232.58952,399.40256L232.34949,400.84271L231.38936,400.84271
				L231.38936,401.80282L232.10946,402.04284L231.86943,403.483L232.10946,404.20307L231.86943,406.12328L231.62939,407.80346L231.62939,408.04348
				L228.26897,406.12328L227.54888,405.64323L226.58876,405.64323L225.86866,405.64323L225.62863,405.64323L225.62863,407.08338
				L226.10869,407.80346L225.62863,408.28351L224.42848,408.28351L224.18845,408.76356L224.90854,409.48364L222.9883,412.60397L
				223.46836,413.32404L223.22833,414.04412L222.9883,416.20435L220.58799,414.52417L219.38784,416.92443L219.38784,418.12456L218.66775,420.52481
				L217.70763,422.68504L216.50748,422.20499L216.26745,423.40512L215.78738,423.16509L215.54735,423.40512L214.3472,422.92507L
				213.62711,420.04476L214.3472,420.04476L214.3472,419.56471L213.38708,419.32468L212.90702,422.44502L213.38708,425.56535L214.58723,425.56535
				L214.82726,427.24553L214.3472,427.48555L211.70687,427.72558L211.70687,427.9656L216.02742,427.48555L216.26745,429.88581L216.50748,432.04604
				L216.74751,434.20627L208.10641,435.64642L202.34568,436.60653L202.82574,438.76676L202.58571,438.76676L202.58571,439.00678
				L200.1854,439.24681L197.54507,439.48683L192.98449,441.16701L192.74446,440.92699L192.98449,439.00678L192.74446,438.76676L
				191.78434,438.76676L191.78434,438.2867L191.54431,438.2867L191.54431,437.3266L190.34416,437.08658L189.62406,437.56663L189.62406,437.08658
				L188.90397,437.08658L188.66394,433.96624L188.42391,433.48619L188.42391,432.76612L188.90397,431.56599L188.90397,430.84591
				L189.62406,429.88581L189.86409,426.28543L189.86409,426.0454L190.10413,426.0454L190.10413,425.80537L190.10413,425.32532L188.18388,422.92507
				L187.46379,421.48491L187.46379,420.76484L188.90397,420.04476L188.66394,419.56471L187.46379,419.56471L187.70382,418.36458
				L189.144,416.44438L189.144,415.96433L188.66394,413.8041L187.22376,407.80346L186.26364,404.68312L185.78358,403.72302L185.30352,403.00294
				L184.10336,402.04284L183.6233,401.80282L184.10336,401.32277L183.6233,400.60269L183.38327,400.36266L183.14324,400.12264L181.94309,397.96241
				L185.54355,396.52225L186.98373,395.80218L187.22376,395.56215L186.98373,395.0821L186.7437,394.60205L186.7437,394.36202L186.50367,393.64195
				L183.86333,395.0821L180.74294,397.96241L180.26288,397.72238L180.02285,397.48236L179.30275,397.24233L178.58266,397.00231L
				177.86257,397.24233L177.86257,397.72238L177.62254,397.96241L178.1026,398.20243L178.1026,398.44246L177.38251,398.92251L176.66242,398.68248
				L175.94233,400.84271L175.7023,401.32277L175.46227,402.04284L175.46227,402.52289L175.46227,402.76292L175.22224,403.483L174.74218,405.16318
				L174.26211,407.08338L174.02208,407.08338L173.78205,407.32341L172.10184,406.84335L171.86181,406.84335L171.62178,407.08338
				L171.38175,407.80346L170.66166,409.48364L170.42163,409.24361L170.1816,409.96369L169.70154,411.16381L169.46151,412.36394L
				169.22148,412.60397L168.98144,412.84399L168.98144,413.08402L169.22148,413.32404L169.22148,413.8041L169.22148,414.52417L168.98144,414.7642
				L167.30123,414.7642L167.0612,414.7642L166.10108,414.7642L165.38099,415.00422L164.90093,415.00422L164.90093,415.24425L164.6609,415.24425
				L164.42087,415.24425L163.22071,415.96433L162.50062,416.44438L162.26059,416.6844L161.78053,417.16445L161.5405,417.64451L161.30047,417.88453
				L160.82041,418.36458L160.58038,418.84463L160.58038,419.08466L160.10032,419.08466L159.86029,419.32468L159.1402,419.80474L
				158.90017,420.04476L158.4201,419.32468L157.94004,418.60461L157.45998,418.84463L156.97992,419.32468L156.49986,419.56471L155.77977,419.80474
				L155.29971,419.80474L154.57962,419.80474L154.81965,420.28479L153.6195,420.52481L152.65937,420.76484L152.65937,421.00486L
				153.13943,421.72494L153.13943,421.96497L153.37946,422.44502L153.13943,422.44502L153.13943,422.92507L153.6195,424.84527L153.37946,425.0853
				L153.6195,425.32532L153.13943,425.56535L152.65937,425.80537L152.41934,426.28543L151.45922,426.76548L150.4991,427.48555L151.21919,428.92571
				L150.73913,429.16573L150.73913,429.64578L150.4991,429.88581L150.25907,429.88581L150.01904,429.88581L149.29895,429.40576L
				148.57886,428.92571L148.09879,428.68568L145.93852,428.68568L144.25831,427.9656L142.81812,427.24553L140.89788,426.76548L139.4577,426.28543
				L139.4577,426.0454L138.97764,426.0454L138.25755,425.32532L137.53745,424.1252L136.3373,423.16509L136.09727,422.20499L133.937,420.52481
				L134.17703,420.04476L133.937,419.80474L134.41706,419.32468L134.41706,418.60461L134.41706,418.36458L132.97688,419.08466L131.77672,416.92443
				L131.05663,415.48427L130.8166,414.7642L130.33654,413.56407L130.09651,412.84399L129.61645,412.60397L128.4163,409.96369L127.69621,407.32341
				L127.69621,405.88325L127.45618,405.4032L127.45618,403.96305L127.69621,402.52289L127.69621,402.04284L127.69621,400.12264L
				128.17627,398.44246L128.89636,395.56215L129.37642,392.68185L129.37642,392.44182L129.37642,392.20179L129.13639,391.72174L
				129.37642,390.76164L129.37642,390.04156L129.13639,389.08146L128.89636,388.60141L128.89636,387.40128L128.4163,386.92123L127.93624,385.96113
				L127.45618,385.48108L127.93624,384.761L128.65633,384.28095L128.89636,384.04092L129.61645,383.8009L130.09651,383.32085L130.33654,383.08082
				L130.33654,383.32085L130.57657,383.8009L130.57657,384.28095L131.53669,383.56087L131.53669,383.8009L131.77672,383.56087L132.49681,382.60077
				L131.77672,381.40064L131.53669,381.40064L131.53669,381.16062L132.01675,380.44054L132.25678,380.44054L132.49681,380.20051
				L133.69697,379.48044L134.65709,379.00039L134.89712,379.00039L135.13715,379.00039L136.3373,378.52034L136.81736,379.00039L
				137.05739,379.00039L138.97764,378.52034L139.4577,379.48044L139.93776,379.48044L140.65785,379.48044L141.858,379.24041L143.53822,378.76036
				L144.73837,378.52034L145.21843,378.04028L145.69849,377.56023L146.89864,376.84016L147.61873,376.60013L148.57886,376.12008
				L149.77901,375.64003L150.73913,375.64003L150.97916,375.64003L151.93928,375.4L151.69925,375.4L151.93928,375.4L152.17931,375.4
				L152.17931,375.15998L153.37946,374.91995L155.29971,374.91995L156.0198,374.67993L161.06044,374.67993L163.46074,376.84016L
				163.70077,377.08018L162.50062,377.56023L162.26059,377.80026L161.30047,378.52034L160.10032,379.00039L159.1402,379.72046L158.18007,379.48044
				L157.70001,379.96049L157.70001,380.44054L158.18007,381.40064L158.4201,381.40064L160.10032,381.40064L162.50062,381.40064L
				164.18084,381.40064L164.6609,381.40064L168.74141,378.76036L168.50138,378.28031L166.58114,375.4L168.98144,375.15998L168.74141,375.15998
				L170.1816,374.91995L170.66166,374.91995L173.30199,374.4399L174.50215,374.19988L176.66242,373.71982L176.90245,373.71982L178.1026,373.71982
				L180.02285,373.71982L180.50291,373.71982L181.223,373.71982L181.46303,373.71982L181.94309,373.71982L182.90321,373.4798L184.58342,373.23977
				L184.82346,373.23977L185.78358,373.23977L186.02361,374.91995L187.22376,374.91995L187.46379,374.91995L187.94385,373.95985
				L188.42391,372.99975L188.90397,372.5197L189.38403,373.4798L190.58419,373.23977L190.34416,372.27967L193.22452,371.07954L194.6647,370.35947
				L194.90473,370.11944L195.3848,369.63939L195.62483,369.63939L195.86486,369.15934L195.86486,368.91931L196.34492,368.67929L
				197.06501,368.43926L197.06501,368.19924L199.70534,366.51906L200.66547,366.03901L201.38556,365.79898L201.86562,365.79898L
				203.3058,365.31893L203.78586,365.31893L204.26592,365.0789L205.22604,364.83888L205.70611,364.83888L205.94614,364.59885L206.4262,364.59885
				L206.66623,364.35883L206.90626,364.35883L212.18693,363.1587L212.42696,362.91867L215.30732,361.95857L215.54735,361.95857L
				215.78738,361.71855L216.74751,361.47852L216.98754,361.23849L217.4676,360.99847L217.94766,360.75844L219.38784,360.27839L219.62787,360.27839
				L220.10793,360.03837L220.34796,360.03837L222.74827,358.59821L224.18845,358.35819L229.70915,356.67801L235.22985,354.51778
				L235.46988,354.27775L235.94994,355.71791L237.87019,355.47788L238.83031,354.99783L240.27049,354.27775L239.5504,352.8376L243.63092,351.39745
				L244.35101,351.39745L248.43153,350.67737L248.91159,350.67737L250.83183,351.63747L251.31189,351.39745L251.31189,351.8775L
				251.79195,352.11752L252.03198,353.7977L252.03198,354.27775L252.03198,354.51778L252.99211,357.15806L258.51281,355.71791L261.15314,355.23785
				L263.07339,354.7578L263.07339,354.99783L263.07339,358.59821L263.07339,359.31829L263.07339,361.23849L264.7536,361.23849L264.99363,360.03837
				L264.99363,358.11816L264.99363,357.63811L264.99363,357.15806L266.91387,356.43798L268.35406,355.95793L268.35406,354.03773
				L271.95451,352.8376L273.15466,354.27775L276.75512,352.8376L278.1953,352.11752L278.43533,352.11752L277.95527,351.39745L277.47521,350.43734
				L282.75588,348.99719L283.47597,348.99719L283.716,349.71727L286.59637,348.75716L286.59637,348.99719L284.67613,350.67737L285.15619,350.67737
				L285.15619,351.39745L286.8364,351.39745L287.07643,353.07762L286.8364,354.03773L286.11631,355.23785L285.63625,356.19796L285.63625,356.91803
				L284.4361,359.55832L284.19607,360.51842L282.75588,363.1587L282.03579,363.87878L282.27582,364.35883L284.4361,363.87878L284.67613,363.39872
				L284.91616,362.43862L285.15619,361.47852L285.39622,361.71855L286.11631,361.47852L286.8364,365.31893L289.23671,365.0789L289.47674,364.59885
				L289.71677,363.1587L290.19683,362.67865L290.43686,362.43862L291.15695,361.95857L289.23671,357.63811L288.99668,357.15806L
				289.47674,354.7578L289.23671,353.07762L288.75664,352.11752L288.51661,351.63747L288.27658,351.15742L288.27658,349.71727L289.23671,349.23722
				L290.43686,348.75716L290.91692,349.23722L292.3571,348.51714L294.03731,348.51714L295.71753,349.47724L297.39774,351.15742L
				299.31798,351.63747L300.9982,351.8775L303.63853,350.91739L303.63853,357.15806L306.75893,356.91803L306.03884,357.87814L305.55878,358.59821
				L305.79881,359.07826L306.03884,359.55832L306.5189,359.55832L307.71905,359.07826L308.19911,359.31829L307.47902,360.03837L
				306.75893,360.27839L306.27887,360.51842L306.75893,360.99847L307.23899,361.47852L306.5189,363.39872L307.23899,364.1188L307.47902,364.1188
				L307.47902,364.35883L307.71905,364.59885L307.47902,364.83888L307.23899,367.23913L306.5189,367.47916L306.27887,367.71918L
				306.27887,368.19924L307.47902,368.19924L307.47902,368.91931L306.75893,368.91931L306.5189,371.79962L306.27887,372.03965L306.27887,372.27967
				L306.03884,372.5197L305.31875,375.88005L305.31875,376.12008L305.07872,377.08018L305.07872,377.80026L304.83869,378.76036L
				305.07872,380.44054L305.07872,382.60077L305.07872,382.8408L305.79881,385.00103L308.43914,382.60077L310.11936,382.36075L326.68146,379.72046
				L327.64158,379.48044L329.32179,379.48044L328.84173,377.08018L327.64158,377.08018L327.64158,376.84016L326.68146,373.4798L
				313.47978,379.72046L308.67917,380.92059L308.19911,379.96049L307.95908,378.76036L309.15923,378.52034L309.39926,377.32021L
				309.39926,375.15998L308.43914,374.91995L308.9192,371.79962L309.39926,368.67929L309.15923,366.03901L309.39926,365.0789L310.59942,361.47852
				L310.83945,360.75844L311.07948,360.03837L311.31951,359.31829L311.31951,358.83824L311.31951,358.11816L311.79957,357.15806
				L312.51966,355.95793L313.71981,355.23785L315.64006,353.55768L318.52042,351.8775L321.88085,349.47724L324.76121,350.43734L
				325.72134,351.15742L328.12164,353.31765L331.00201,353.7977L332.44219,354.51778L333.88237,355.23785L336.52271,356.91803L338.20292,358.11816
				L338.92301,357.63811L339.88313,357.87814L343.48359,358.35819L346.84402,357.87814L347.80414,358.35819L352.36472,359.07826
				L353.32484,358.83824L356.68526,358.35819L360.04569,359.07826L362.446,360.03837L364.8463,360.75844L368.92682,360.75844L371.56715,360.99847
				L374.68755,362.67865L377.80795,363.63875L380.68831,364.59885L383.32865,365.55895L386.44904,365.79898L389.56944,365.55895
				L391.72971,366.27903L394.37005,367.23913L398.21053,368.43926L400.37081,368.43926L401.0909,369.15934L401.57096,369.87942L
				402.77111,371.55959L403.97127,373.71982L406.37157,375.4L407.81175,376.12008L409.25194,376.60013L411.17218,377.08018L414.77264,377.56023
				L415.2527,377.56023L416.21282,378.04028L417.89303,379.24041L419.57325,380.68057L422.69364,383.8009L423.41373,384.52098L424.13382,385.7211
				L424.37385,386.68121L424.37385,387.40128L424.61389,390.04156L424.37385,391.48172L424.37385,391.72174L424.85392,392.20179
				L423.41373,393.1619L423.1737,393.1619L422.93367,393.1619L422.45361,392.92187L421.25346,393.88197L421.25346,394.122L419.57325,394.84208
				L420.29334,396.28223L420.05331,396.76228L418.37309,399.16254L419.81328,400.36266L422.21358,397.48236L423.65376,398.92251
				L425.09395,397.24233L427.25422,399.88261L427.97431,400.84271L425.09395,403.96305L425.57401,404.4431L426.05407,404.20307L
				426.77416,403.483L427.01419,403.483L427.49425,404.20307L428.45437,403.483L429.17446,404.20307L431.8148,401.80282L432.05483,402.28287
				L433.25498,403.72302L434.2151,404.68312L432.29486,406.84335L431.8148,407.08338L433.01495,408.04348L433.73504,407.56343L434.69516,408.28351
				L433.97507,409.24361L435.41526,410.20371L435.89532,410.44374L436.37538,410.20371L437.57553,409.96369L439.01571,411.64387
				L435.41526,414.28415L436.13535,415.00422L439.25574,419.56471L442.13611,417.64451L443.09623,418.84463L445.73657,417.16445
				L445.9766,417.40448L446.69669,418.12456L446.69669,418.36458L444.53641,419.56471L446.69669,422.20499L446.69669,422.44502L
				447.41678,421.96497L447.65681,421.96497L448.13687,421.96497L448.3769,422.44502L448.61693,422.20499L449.09699,422.68504L449.33702,422.20499
				L450.77721,421.24489L451.97736,422.20499L452.45742,421.24489L453.65757,421.72494L453.8976,421.96497L454.61769,422.44502L
				453.65757,423.40512L454.85772,424.60525L455.09775,424.36522L456.05788,423.40512L456.29791,423.40512L457.25803,424.60525L
				457.25803,424.84527L457.97812,426.28543L454.85772,429.16573L455.33778,429.88581L456.53794,431.08594L457.018,432.04604L457.25803,431.80601
				L457.73809,431.32596L458.45818,432.04604L458.69821,431.80601L458.93824,431.80601L459.89836,430.84591L460.37842,430.60589
				L461.81861,434.20627L460.61845,434.92635L461.09852,435.4064L461.57858,435.64642L462.05864,435.4064L462.29867,435.64642L462.5387,435.64642
				L463.01876,436.3665L463.49882,437.08658L463.73885,437.3266L463.73885,437.56663L464.21891,437.80665L465.17903,438.52673L465.41906,438.76676
				L464.45894,439.96688L464.939,440.20691L465.41906,440.68696L465.89912,441.16701L466.13915,441.16701L466.13915,441.40704L466.37919,441.40704
				L466.37919,441.88709L466.85925,442.12711L467.09928,442.36714L467.81937,442.12711L471.41983,445.24745L473.82013,447.16765
				L473.82013,447.40768L474.06016,447.88773L475.02028,448.84783L473.82013,450.52801L473.5801,451.00806L473.34007,452.92826L
				473.34007,453.64834L473.82013,456.28862L474.54022,458.68888L474.78025,459.40896L475.02028,460.12903L475.26031,460.60908L
				475.26031,460.84911L475.26031,461.56919L475.74037,462.28926L475.9804,461.80921L477.18056,462.76931L480.78101,459.40896L480.30095,460.12903
				L480.06092,460.60908L480.30095,460.84911L480.54098,461.08913L480.78101,461.32916L481.26107,462.04924L482.2212,463.00934L
				482.70126,463.24936L484.6215,464.20947L485.58162,464.92954L489.42211,468.04988L490.62226,468.52993L493.02257,469.73006L493.98269,469.73006
				L494.70278,469.97008L496.14296,469.97008L497.34311,470.45013L498.06321,470.69016L499.02333,470.45013L499.50339,470.45013
				L500.22348,470.21011L500.70354,470.21011L500.94357,470.45013L501.66366,470.69016L503.10385,471.65026L505.50415,472.61036
				L505.50415,472.37034L505.50415,472.13031L505.50415,471.89029L505.02409,471.89029L505.50415,470.69016L505.02409,470.45013
				L504.54403,470.21011L504.304,469.97008L503.82394,469.73006L503.58391,469.73006L503.10385,469.25L502.86382,469.25L502.62378,469.00998
				L502.14372,468.76995L501.90369,468.76995L501.66366,468.52993L501.1836,468.04988L500.94357,468.04988L500.70354,467.80985L
				500.22348,467.56983L499.98345,467.3298L499.74342,467.3298L499.02333,466.84975L499.02333,465.40959L498.54327,463.24936L499.02333,463.48939
				L499.02333,463.00934L499.02333,462.76931L499.26336,462.28926L499.26336,461.56919L499.50339,461.56919L499.26336,459.88901
				L500.46351,460.12903L500.70354,459.88901L502.38375,460.12903L503.10385,460.12903L503.34388,460.36906L504.78406,460.36906
				L506.7043,460.12903L506.94433,460.12903L507.42439,460.36906L507.66442,460.36906L508.86458,460.12903L512.225,462.04924L512.225,463.72942
				L512.70506,463.24936L512.94509,463.96944L513.42516,465.88965L513.90522,466.12967L514.62531,466.84975L516.54555,468.04988
				L517.26564,468.2899L517.50567,468.2899L517.98573,468.2899L518.22576,468.52993L518.4658,468.76995L518.94586,468.76995L518.94586,469.00998
				L519.18589,469.00998L519.42592,469.00998L519.90598,469.25L520.38604,469.49003L520.8661,469.49003L521.10613,469.49003L521.58619,469.73006
				L522.06625,469.97008L522.54631,470.45013L522.78634,470.69016L523.2664,470.93018L523.2664,471.17021L523.74647,471.41023L524.22653,471.89029
				L525.18665,472.85039L527.34692,474.53057L527.58695,474.77059L527.82698,475.01062L528.06701,475.25064L528.06701,475.49067
				L528.30704,475.49067L528.54707,475.73069L528.78711,475.49067L529.74723,475.01062L529.98726,474.77059L530.46732,474.29054
				L530.94738,474.77059L531.18741,475.01062L531.42744,475.01062L531.66747,475.25064L532.38756,474.05052L533.34768,473.57046
				L533.82774,473.33044L534.30781,472.85039L534.30781,472.61036L535.98802,473.33044L536.22805,472.85039L536.22805,472.61036
				L537.66823,472.85039L538.86838,473.09041L540.06854,473.57046L541.02866,473.81049L541.74875,474.05052L542.22881,474.29054
				L543.42896,474.53057L544.86915,474.77059L546.30933,474.77059L546.30933,474.53057L547.26945,474.53057L547.74951,474.53057
				L548.22957,474.77059L548.4696,474.53057L548.70963,474.53057L548.94966,474.53057L548.22957,475.49067L548.22957,475.73069L
				548.22957,475.49067L548.22957,475.73069L548.4696,475.73069L548.94966,476.6908L549.18969,477.89092L546.54936,479.09105L544.86915,480.05116
				L538.86838,485.09169L537.90826,484.61164L537.66823,484.61164L537.18817,485.09169L536.94814,485.33172L535.74799,486.05179
				"/>
			<path clip-path="url(#SVG_CP_2)" fill="none" stroke="#2f4493" stroke-width="1" stra="1.44018" stroke-miterlimit="10" stroke-linecap="round" stroke-linejoin="round" d="
				M535.74799,486.05179L534.78787,485.57174L533.82774,485.33172L530.70735,491.09233L529.02714,492.53249L528.06701,493.49259
				L519.42592,493.73261L521.58619,491.57238L520.38604,491.33236L519.18589,491.33236L517.26564,491.57238L516.06549,491.57238
				L514.86534,491.09233L511.50491,493.97264L510.78482,493.01254L510.06473,493.01254L506.94433,493.97264L501.42363,493.49259
				L501.42363,493.01254L500.94357,492.77251L500.22348,493.25256L499.98345,493.25256L498.7833,493.01254L498.7833,492.77251L497.58315,493.25256
				L497.34311,493.49259L496.62302,492.53249L495.90293,492.29246L495.42287,492.05243L494.70278,491.57238L493.74266,491.09233
				L493.2626,490.61228L490.86229,490.37225L489.18208,489.8922L486.30171,488.9321L480.78101,487.49195L479.58086,487.49195L476.22043,487.73197
				L476.22043,487.49195L475.9804,487.25192L475.50034,486.29182L475.26031,485.09169L475.02028,484.37162L470.21967,485.09169L
				469.01952,484.61164L467.09928,483.41151L466.85925,486.05179L466.85925,487.49195L465.89912,487.73197L465.41906,487.49195L
				465.17903,487.0119L464.69897,486.29182L464.69897,485.81177L465.17903,485.09169L466.13915,483.41151L467.57934,479.81113L467.57934,479.5711
				L467.33931,479.5711L467.81937,478.13095L468.29943,476.93082L467.09928,479.33108L466.61922,480.53121L465.17903,484.13159L
				463.97888,478.85103L462.5387,474.05052L459.89836,471.65026L460.37842,471.17021L459.65833,470.21011L459.4183,469.49003L457.49806,468.04988
				L456.53794,469.00998L455.57781,468.2899L455.09775,468.52993L451.97736,466.12967L450.53717,464.44949L449.57705,463.00934L
				449.09699,462.04924L447.89684,460.84911L446.93672,459.88901L445.2565,458.68888L444.53641,458.20883L442.8562,457.0087L439.7358,454.84847
				L438.77568,453.64834L437.81556,452.92826L435.41526,451.24809L431.8148,448.84783L428.45437,445.96752L427.25422,446.44757L
				426.53413,446.20755L425.33398,447.16765L423.89379,445.24745L421.01343,442.60717L418.61312,439.96688L419.57325,439.24681L
				418.85315,438.76676L418.85315,438.2867L419.09318,437.56663L417.89303,436.12647L418.37309,435.4064L419.81328,436.3665L420.29334,436.3665
				L420.53337,435.88645L420.29334,435.4064L419.33322,434.68632L419.09318,434.4463L418.37309,433.96624L418.13306,433.96624L417.653,434.92635
				L417.41297,434.92635L417.17294,435.4064L416.93291,435.16637L416.45285,434.4463L415.73276,434.20627L415.01267,433.72622L414.77264,433.48619
				L414.53261,433.24617L413.81251,432.76612L413.33245,432.04604L413.33245,431.80601L413.33245,431.32596L413.57248,430.60589
				L412.85239,430.84591L412.61236,430.60589L409.49197,427.9656L409.25194,427.48555L408.53184,427.0055L406.6116,425.56535L407.09166,425.0853
				L407.33169,424.84527L406.37157,423.16509L405.41145,422.68504L404.93139,421.96497L404.2113,421.72494L403.73124,421.48491L
				403.4912,421.24489L402.77111,421.00486L401.81099,421.00486L401.33093,421.72494L401.0909,421.72494L400.37081,421.48491L398.6906,421.00486
				L397.73047,421.00486L397.25041,421.00486L397.25041,420.52481L397.01038,420.52481L397.25041,420.28479L397.49044,420.04476
				L397.49044,419.80474L394.61008,420.04476L394.37005,420.52481L391.96974,420.52481L390.76959,420.76484L389.80947,421.24489
				L388.60932,421.48491L386.20901,421.48491L384.76883,421.72494L384.5288,421.72494L384.04874,420.76484L383.80871,420.52481L
				386.44904,419.56471L385.96898,416.92443L385.00886,417.16445L384.28877,415.7243L382.60855,413.8041L383.08862,413.32404L379.24813,409.48364
				L379.72819,407.80346L380.44828,406.12328L381.64843,402.76292L381.88846,402.76292L382.60855,403.483L383.08862,402.28287L384.5288,398.68248
				L385.96898,395.56215L387.40916,395.80218L388.84935,396.52225L389.80947,397.00231L391.00962,397.72238L392.20977,398.44246
				L393.16989,401.56279L393.64996,401.56279L394.13002,401.80282L392.20977,403.72302L393.16989,404.68312L392.68983,405.16318
				L393.16989,405.88325L396.29029,403.72302L396.77035,404.68312L394.61008,406.60333L394.85011,407.08338L395.81023,409.00358
				L397.25041,410.92379L396.05026,411.88389L396.77035,412.84399L398.21053,411.64387L399.89075,409.96369L399.89075,409.72366
				L399.65072,409.00358L400.13078,408.52353L400.61084,408.52353L401.0909,408.04348L401.57096,407.32341L401.81099,407.08338L
				401.57096,406.60333L400.85087,404.92315L400.13078,403.96305L398.6906,404.4431L397.73047,402.52289L398.6906,401.32277L398.45057,399.88261
				L398.21053,399.16254L397.73047,399.16254L397.25041,399.40256L396.77035,398.68248L396.29029,398.68248L396.29029,397.96241
				L395.5702,399.16254L394.37005,397.96241L394.13002,397.24233L393.40993,396.52225L392.4498,396.0422L391.72971,395.80218L391.00962,395.56215
				L389.56944,394.60205L388.84935,394.122L387.88922,393.64195L386.68907,393.40192L385.96898,393.40192L384.76883,393.1619L383.80871,392.68185
				L383.32865,392.44182L382.84859,391.24169L382.60855,390.04156L382.36852,388.84144L382.12849,388.60141L382.84859,388.36138
				L388.60932,388.60141L389.32941,388.60141L389.56944,387.88133L387.64919,387.88133L387.40916,387.16126L386.44904,386.44118
				L382.60855,384.761L382.60855,387.40128L381.4084,387.16126L381.64843,387.64131L380.20825,387.40128L379.96822,387.64131L379.72819,387.40128
				L379.24813,387.40128L379.24813,388.84144L378.52804,388.84144L378.52804,389.80154L379.0081,389.80154L380.44828,389.80154L
				380.44828,390.28159L380.44828,391.24169L379.72819,391.96177L380.20825,392.68185L380.44828,393.64195L380.68831,394.36202L
				379.72819,397.00231L378.76807,398.68248L376.84782,402.04284L376.36776,401.80282L375.64767,401.32277L374.68755,400.84271L
				373.72743,402.76292L377.32788,405.64323L374.68755,407.80346L373.00734,409.24361L367.24661,402.76292L362.446,409.48364L358.36548,404.92315
				L352.36472,404.92315L352.12469,401.80282L349.24432,402.04284L349.00429,400.36266L348.76426,398.20243L348.04417,396.0422L
				348.04417,395.32213L346.12392,393.1619L345.64386,392.20179L345.40383,391.00167L345.1638,389.08146L344.68374,388.36138L343.96365,387.64131
				L344.44371,385.00103L344.68374,382.12072L344.68374,381.40064L344.44371,381.40064L343.48359,381.16062L343.24356,380.92059
				L343.00353,380.68057L340.36319,380.44054L340.36319,380.20051L340.12316,379.96049L334.1224,379.24041L333.64234,379.72046L
				332.44219,379.72046L331.96213,379.48044L329.32179,379.72046"/>
			<path clip-path="url(#SVG_CP_2)" fill="none" stroke="#2f4493" stroke-width="1" stra="1.44018" stroke-miterlimit="10" stroke-linecap="round" stroke-linejoin="round" d="
				M305.07872,386.20115L304.35862,383.08082L304.35862,383.32085L301.95832,384.52098L301.71829,384.04092L300.75817,384.761L303.15847,388.36138
				L304.59865,386.68121L305.07872,386.20115"/>
			<path clip-path="url(#SVG_CP_2)" fill="none" stroke="#2f4493" stroke-width="1" stra="1.44018" stroke-miterlimit="10" stroke-linecap="round" stroke-linejoin="round" d="
				M133.937,384.04092L133.21691,383.56087L132.49681,382.8408L132.97688,384.52098L133.21691,385.00103L133.69697,384.52098L133.937,384.04092
				"/>
			<path clip-path="url(#SVG_CP_2)" fill="none" stroke="#2f4493" stroke-width="1" stra="1.44018" stroke-miterlimit="10" stroke-linecap="round" stroke-linejoin="round" d="
				M154.09956,418.12456L154.33959,419.56471L155.53974,419.32468L155.05968,417.64451L154.57962,417.88453L154.09956,418.12456
				"/>
		</g>
</g></svg>