<?xml version="1.0" encoding="utf-8" standalone="no"?>
<!-- Creator: ESRI ArcMap 10.0.0.2414 -->
<!DOCTYPE svg PUBLIC "-//W3C//DTD SVG 1.1//EN"  "http://www.w3.org/Graphics/SVG/1.1/DTD/svg11.dtd">
<svg width="524.0420768pt" height="472.865677225pt" viewBox="32.15712744 184.696296388 524.0420768 472.865677225" enable-background="new 32.15712744 184.696296388 524.0420768 472.865677225"
	version="1.1" xmlns="http://www.w3.org/2000/svg" xmlns:xlink="http://www.w3.org/1999/xlink" >
	<g id="Couches">
		<g id="reservoirs">
			<path clip-path="url(#SVG_CP_2)" fill-opacity="0.2" fill="#07866D" fill-rule="evenodd" stroke="none" stroke-width="" stra="1.44018" stroke-miterlimit="10" stroke-linecap="round" stroke-linejoin="round" d="
				M115.69468,340.11624L121.21538,344.91676L123.85572,342.99655L125.05587,338.91612L128.17627,329.55512L133.21691,332.91548
				L136.09727,334.83568L138.01752,336.03581L138.97764,337.23594L139.4577,338.91612L138.49758,340.59629L139.69773,341.79642L
				141.61797,340.83632L143.05815,341.07635L144.25831,342.5165L144.01828,343.4766L143.29819,344.4367L142.33806,345.39681L142.81812,346.35691
				L142.81812,347.07699L143.77825,348.27711L144.49834,349.23722L145.69849,347.55704L147.61873,349.71727L146.89864,350.43734
				L145.93852,350.91739L144.9784,351.8775L144.25831,352.8376L146.17855,355.47788L147.13867,354.99783L147.85876,354.99783L148.81889,355.71791
				L149.05892,356.43798L149.77901,357.63811L150.01904,357.63811L150.01904,358.59821L150.73913,358.59821L150.97916,358.83824
				L151.21919,359.07826L151.69925,359.79834L151.69925,360.51842L151.69925,360.75844L152.65937,361.71855L153.13943,361.95857
				L153.13943,362.1986L152.65937,362.1986L151.69925,362.67865L149.53898,364.35883L148.33883,365.0789L147.13867,366.03901L147.13867,366.99911
				L146.17855,368.19924L146.17855,369.15934L145.93852,369.39936L145.21843,370.59949L146.65861,372.03965L149.05892,373.95985
				L150.97916,375.88005L152.41934,377.32021L153.37946,378.52034L153.37946,378.76036L153.13943,379.72046L148.33883,385.96113
				L151.45922,388.12136L155.05968,390.52161L155.77977,391.48172L155.29971,392.20179L148.81889,401.08274L146.17855,405.4032L
				143.29819,412.12392L142.33806,415.00422L143.53822,412.84399L145.69849,413.32404L152.8994,401.32277L154.57962,403.72302L159.62026,398.92251
				L166.82117,388.36138L170.1816,390.28159L169.94157,390.28159L169.46151,391.96177L170.90169,393.1619L172.82193,394.84208L170.42163,398.20243
				L174.26211,401.08274L172.34187,404.20307L175.22224,405.88325L174.50215,407.08338L177.14248,410.20371L175.22224,411.64387
				L176.18236,412.12392L173.54202,415.48427L170.42163,420.28479L165.62102,427.24553L164.90093,428.44566L165.86105,429.40576
				L160.58038,433.72622L159.1402,432.28607L156.97992,429.16573L158.90017,427.48555L158.4201,427.24553L158.18007,427.0055L157.94004,426.76548
				L157.94004,426.52545L157.94004,425.80537L152.41934,429.88581L148.57886,432.76612L148.33883,433.00614L146.89864,433.72622
				L145.93852,431.56599L144.9784,428.44566L144.49834,424.1252L144.25831,422.92507L142.57809,417.88453L142.33806,416.20435L141.858,417.40448
				L142.57809,420.28479L143.29819,422.68504L142.33806,423.64514L140.65785,424.60525L139.21767,424.1252L138.49758,424.1252L136.81736,424.84527
				L135.85724,426.0454L135.61721,426.28543L134.17703,425.32532L132.73685,427.0055L136.09727,431.56599L137.77748,435.4064L139.4577,436.84655
				L139.4577,437.08658L142.09803,440.92699L143.53822,444.04732L142.57809,444.7674L140.41782,446.20755L139.4577,444.7674L137.05739,445.96752
				L134.65709,446.92763L133.21691,444.52737L128.4163,446.44757L129.85648,451.24809L128.89636,452.20819L124.81584,453.40832L
				121.21538,451.96816L118.81508,449.56791L117.3749,448.36778L113.77444,451.72814L112.57429,450.04796L107.53365,455.0885L104.41325,458.44885
				L101.29285,460.84911L97.45237,464.68952L97.21234,465.88965L95.53212,465.88965L93.85191,464.92954L86.41097,460.84911L88.09118,458.68888
				L82.57048,455.0885L85.45084,450.04796L84.97078,449.56791L79.69011,448.84783L75.36957,447.6477L72.24917,446.44757L70.56896,445.24745
				L72.00914,438.04668L71.52908,438.04668L58.3274,434.4463L55.44704,439.00678L47.76606,434.68632L48.72618,432.52609L46.56591,431.08594
				L50.88646,426.76548L52.32664,425.80537L54.24688,424.60525L58.3274,420.28479L60.00762,419.08466L60.96774,418.84463L62.40792,419.08466
				L70.56896,420.52481L71.28905,414.04412L65.52832,412.12392L69.84886,403.24297L74.64947,403.24297L75.84963,399.88261L73.68935,396.0422
				L74.8895,391.48172L78.48996,381.88069L78.24993,381.64067L82.09042,372.5197L85.93091,376.60013L89.29133,372.5197L88.33121,371.31957
				L90.73151,369.15934L91.21158,365.55895L94.572,362.67865L93.85191,361.71855L98.65252,356.67801L102.97307,360.27839L106.81356,357.39809
				L95.29209,345.63683L96.97231,342.03645L101.05282,333.1555L103.45313,328.59502L103.45313,328.35499L103.69316,328.35499L104.41325,328.35499
				L105.85343,329.79514L107.05359,330.99527L115.69468,340.11624z"/>
			<path clip-path="url(#SVG_CP_2)" fill-opacity="0.2" fill="#07866D" fill-rule="evenodd" stroke="none" stroke-width="" stra="1.44018" stroke-miterlimit="10" stroke-linecap="round" stroke-linejoin="round" d="
				M390.52956,195.38082L397.9705,206.422L410.21206,203.06164L414.53261,200.66138L416.69288,204.02174L420.29334,202.82161L419.09318,200.42136
				L425.33398,197.30103L426.2941,197.78108L425.81404,199.46126L426.53413,201.14143L428.6944,203.30166L424.61389,206.66202L427.25422,211.22251
				L422.45361,212.18261L427.01419,219.14335L427.73428,221.30358L424.37385,223.70384L407.57172,231.86471L404.69136,228.74438
				L396.29029,232.10473L401.0909,236.66522L391.00962,243.38594L391.24965,245.06611L384.5288,247.94642L390.0495,257.78747L393.16989,255.86727
				L394.61008,257.78747L396.53032,260.9078L401.81099,257.78747L402.29105,257.30742L401.81099,256.34732L397.25041,249.86663L
				402.29105,244.82609L404.45133,243.86599L404.45133,244.10601L409.732,255.38721L412.37233,253.46701L413.09242,251.54681L414.77264,261.86791
				L416.93291,261.86791L418.85315,260.18773L419.09318,259.9477L421.01343,259.46765L424.13382,258.50755L422.93367,254.18709L
				421.73352,249.14655L426.05407,247.7064L424.13382,241.22571L432.05483,238.58542L435.17523,245.30614L440.21587,243.86599L453.17751,239.78555
				L453.17751,235.70512L465.17903,233.30486L466.61922,236.90525L475.26031,235.46509L481.26107,244.10601L485.82165,249.86663
				L479.34083,252.98696L478.62074,253.46701L463.97888,259.46765L463.73885,260.42775L467.57934,269.3087L477.18056,264.98824L
				483.42135,262.10793L489.18208,272.18901L481.26107,276.26944L482.70126,278.6697L480.30095,280.10985L478.38071,281.06995L481.98117,286.83057
				L483.18132,286.11049L492.54251,281.06995L495.6629,279.6298L496.86305,281.06995L497.34311,282.99016L497.58315,283.71023L497.58315,286.35051
				L498.54327,287.07059L499.50339,287.55064L495.42287,290.67097L494.22272,291.63108L495.18284,294.27136L497.34311,293.07123
				L505.26412,289.23082L511.02485,296.43159L504.06397,299.79195L502.62378,300.51202L503.58391,302.1922L507.90446,309.633L511.26488,314.19348
				L509.8247,314.67353L503.82394,317.31381L500.22348,313.23338L493.98269,316.35371L496.86305,321.63427L496.62302,321.63427L
				495.42287,322.35435L496.86305,324.27456L501.90369,322.35435L508.38452,318.75397L511.26488,322.8344L514.62531,320.9142L514.86534,320.67417
				L517.50567,325.95473L519.18589,329.07507L519.18589,329.31509L524.22653,341.5564L533.58771,336.51586L546.54936,328.59502L
				548.22957,334.59566L548.22957,336.03581L530.46732,344.4367L531.66747,348.75716L540.5486,345.87686L541.98878,348.75716L548.4696,347.07699
				L547.98954,351.15742L541.98878,353.07762L537.66823,358.35819L533.58771,368.19924L530.70735,373.4798L526.14677,377.56023L
				528.30704,383.56087L520.62607,385.7211L523.02637,390.76164L515.10537,393.1619L508.38452,379.00039L507.66442,377.32021L502.38375,379.24041
				L507.18436,390.28159L502.62378,391.96177L504.304,397.24233L500.46351,398.44246L491.34235,399.16254L485.10156,399.64259L482.94129,399.40256
				L480.78101,398.20243L473.82013,398.68248L448.3769,400.60269L445.73657,401.32277L428.93443,415.00422L418.37309,423.16509L
				411.17218,428.44566L414.53261,429.88581L435.89532,439.48683L464.939,451.24809L498.30324,464.44949L512.46503,468.52993L511.50491,470.69016
				L508.38452,478.13095L498.54327,482.69144L496.86305,484.37162L498.30324,491.33236L500.46351,501.17341L504.304,506.21394L507.90446,504.05371
				L511.74494,503.81369L512.225,502.37353L517.50567,502.13351L518.22576,503.57366L520.14601,503.09361L522.30628,503.09361L522.54631,505.49387
				L527.58695,505.73389L528.30704,511.73453L528.54707,513.89476L530.70735,513.89476L545.34921,513.65474L547.50948,528.05627
				L548.22957,533.33683L548.94966,538.6174L549.18969,547.01829L546.78939,572.22098L545.58924,572.70103L544.38909,572.94105L
				543.18893,572.461L541.50872,572.94105L530.46732,578.46164L529.74723,577.74157L521.58619,577.74157L519.18589,575.10128L519.90598,574.38121
				L518.94586,571.98095L514.62531,571.74093L505.02409,567.90052L506.22424,558.05947L500.70354,557.81944L500.94357,548.9385L
				505.50415,546.53824L511.26488,543.89796L513.42516,543.41791L519.18589,541.01765L514.14525,535.01701L513.18513,534.05691L
				510.78482,530.93658L509.58467,531.1766L494.94281,532.61676L486.30171,533.33683L478.62074,534.05691L478.62074,540.5376L483.42135,551.09873
				L483.90141,552.05883L481.5011,553.25896L474.54022,556.37929L475.9804,559.97967L476.22043,560.93977L476.46046,560.93977L473.82013,562.1399
				L472.61998,562.37993L471.65986,562.85998L453.8976,566.46036L437.3355,570.06075L427.97431,573.4211L427.25422,574.14118L421.49349,580.62187
				L421.25346,581.58197L419.81328,594.0633L415.73276,605.10448L413.57248,611.8252L413.57248,618.30589L414.29258,622.1463L415.97279,623.34642
				L419.33322,626.22673L419.81328,627.66689L419.81328,630.30717L419.09318,631.26727L418.13306,632.22737L415.01267,633.66752
				L411.41221,633.66752L412.37233,639.66816L412.61236,645.6688L409.01191,644.7087L409.49197,645.6688L406.13154,646.62891L403.97127,647.10896
				L403.97127,643.7486L403.25117,638.46804L398.21053,638.94809L393.16989,639.42814L390.0495,638.94809L390.0495,634.62763L389.56944,629.34706
				L387.64919,623.82648L386.20901,618.54591L385.72895,615.18556L385.72895,612.7853L385.72895,601.98415L390.28953,601.98415L
				389.80947,597.42366L392.20977,596.94361L399.41069,597.42366L398.93063,593.34323L393.64996,591.90307L392.4498,591.66305L392.68983,588.54272
				L392.92986,584.70231L386.20901,585.18236L385.96898,585.18236L385.96898,584.46228L385.72895,576.78146L381.16837,576.78146
				L380.92834,576.78146L381.16837,574.86126L381.4084,571.74093L381.64843,566.22034L381.88846,566.22034L387.88922,566.70039L
				387.64919,560.93977L384.76883,560.69975L381.64843,560.45972L381.4084,554.93914L380.68831,542.21778L391.48968,540.77763L391.24965,536.69719
				L389.32941,536.69719L386.20901,537.65729L386.20901,535.97711L379.24813,536.69719L379.72819,546.77827L361.48587,544.85806
				L361.96594,547.73837L370.60703,550.37865L370.84706,550.61867L371.56715,555.65921L370.12697,555.89924L368.68679,556.13926
				L368.68679,558.77954L370.60703,559.01957L374.68755,559.2596L374.92758,560.69975L375.64767,565.74029L375.64767,574.14118L
				374.68755,574.62123L373.00734,575.10128L373.00734,579.18172L373.24737,584.70231L373.24737,585.66241L369.64691,585.66241L
				369.40688,587.82264L370.84706,588.06266L371.08709,590.2229L371.80718,594.54336L371.56715,594.54336L367.48664,594.30333L366.76654,597.66369
				L365.08633,599.82392L360.76578,600.30397L359.56563,607.98479L359.08557,610.62507L358.12545,617.58581L355.00505,617.10576
				L352.12469,615.90563L351.16456,614.22545L351.88466,612.54527L352.84478,608.46484L352.60475,599.10384L351.64463,599.10384
				L350.20444,602.22417L342.52347,601.98415L343.00353,608.22481L337.72286,608.22481L326.44143,608.22481L325.24127,607.02469
				L325.00124,606.78466L323.80109,602.22417L320.44067,590.70295L319.72057,588.30269L318.76045,585.42238L317.5603,585.42238L
				317.80033,586.62251L310.59942,587.58261L310.59942,591.183L311.07948,597.42366L313.71981,609.18492L295.95756,609.42494L287.55649,610.38504
				L284.19607,610.38504L282.27582,610.86509L281.79576,611.8252L276.99515,613.26535L261.15314,615.42558L246.75131,615.18556L
				233.06958,617.10576L228.02894,619.02596L227.78891,615.90563L231.38936,613.98543L230.9093,612.54527L232.34949,609.42494L230.18921,599.82392
				L233.06958,598.62379L232.82955,595.02341L231.14933,589.02277L228.74903,586.14246L226.34872,583.7422L223.94842,584.70231L
				217.94766,587.34259L216.98754,583.50218L214.82726,574.62123L214.10717,569.34067L213.14705,564.06011L213.14705,559.2596L212.42696,557.09937
				L210.98678,556.61931L208.8265,557.09937L207.86638,558.53952L206.90626,560.69975L203.3058,565.02021L201.38556,566.94041L198.50519,568.86062
				L196.10489,568.62059L193.94461,568.38057L190.82422,567.18044L188.90397,565.50026L186.02361,564.30013L181.223,563.82008L177.14248,563.34003
				L173.06196,564.30013L168.02132,568.14054L163.70077,568.38057L161.5405,566.70039L160.10032,567.18044L156.49986,568.38057L
				156.25983,568.38057L153.6195,569.82072L152.41934,570.06075L148.57886,571.5009L139.21767,574.14118L139.69773,595.74348L140.17779,599.10384
				L137.77748,599.34387L135.61721,599.10384L132.01675,599.10384L129.85648,598.86382L128.17627,598.38376L115.21462,595.02341
				L105.6134,589.02277L101.53289,586.14246L98.41249,583.98223L98.17246,583.50218L97.45237,582.06203L95.05206,577.74157L87.61112,577.26151
				L84.49072,580.38185L80.89027,576.78146L79.69011,574.14118L78.97002,571.98095L77.28981,568.62059L82.09042,565.50026L81.37033,562.85998
				L84.25069,559.01957L87.61112,555.89924L90.01142,555.89924L91.93167,556.85934L100.57276,550.13862L106.57352,546.05819L111.61416,541.73773
				L113.53441,538.85742L116.6548,533.57686L108.97383,530.2165L105.85343,528.77635L106.57352,527.09617L99.13258,524.93594L95.77215,533.81688
				L92.89179,542.21778L88.81127,539.5775L73.20929,529.97648L64.08813,525.17596L65.52832,519.17532L67.92862,520.8555L76.08966,513.65474
				L74.64947,512.45461L78.48996,508.6142L89.53136,515.57494L102.01295,502.37353L113.29438,489.41215L116.17474,486.05179L121.69544,491.09233
				L119.7752,494.21266L114.73456,499.49323L118.09499,501.89348L108.97383,512.69463L112.33426,515.33492L117.61493,518.21522L
				119.29514,519.17532L123.13563,513.41471L123.85572,514.13479L125.77596,512.45461L127.45618,509.81433L125.53593,507.89412L
				126.73608,506.69399L129.85648,504.05371L132.01675,505.73389L135.61721,508.85422L138.01752,506.45397L143.05815,511.25448L
				148.09879,506.45397L155.53974,513.65474L159.62026,507.6541L151.45922,501.41343L154.57962,497.333L148.33883,493.01254L150.4991,490.37225
				L147.13867,487.49195L145.21843,485.81177L136.57733,494.21266L134.41706,493.01254L133.937,491.33236L137.77748,487.0119L146.41858,477.41087
				L150.97916,472.85039L157.70001,465.64962L159.38023,465.16957L161.30047,466.12967L165.38099,469.49003L168.02132,471.65026
				L173.06196,475.49067L182.42315,465.16957L182.66318,463.00934L186.50367,457.24873L184.10336,455.80857L183.14324,453.88837
				L182.90321,451.48811L181.94309,446.6876L181.94309,442.84719L182.66318,439.00678L184.10336,435.16637L186.26364,433.00614L
				189.38403,431.80601L190.10413,431.56599L192.2644,430.36586L193.94461,428.92571L196.58495,429.16573L197.7851,431.32596L198.50519,433.96624
				L200.9055,432.28607L203.3058,436.60653L200.66547,439.24681L207.38632,445.96752L210.02665,442.12711L218.42772,461.32916L225.62863,456.52865
				L214.58723,430.84591L207.38632,434.92635L204.98601,430.12584L234.98982,413.56407L241.9507,425.56535L248.1915,421.96497L257.31265,439.00678
				L272.91463,433.96624L271.71448,427.48555L265.95375,427.24553L264.51357,421.48491L253.95223,421.96497L252.51205,415.00422
				L256.59256,414.7642L255.39241,406.60333L264.51357,408.28351L261.87323,395.56215L254.91235,395.56215L255.63244,400.84271L
				253.47217,405.16318L246.03122,403.00294L246.75131,401.80282L244.59104,397.72238L242.6708,394.60205L243.39089,393.64195L239.07034,388.84144
				L235.70991,392.20179L234.98982,391.48172L231.38936,388.12136L226.10869,383.56087L219.14781,393.40192L214.58723,399.16254
				L201.38556,409.72366L200.1854,407.80346L198.02513,404.4431L187.22376,385.7211L192.74446,379.96049L184.34339,372.03965L185.54355,370.35947
				L188.90397,364.83888L189.62406,363.63875L178.1026,348.51714L181.223,342.5165L177.14248,340.59629L155.29971,330.51522L112.81432,312.75333
				L111.61416,312.27328L113.05435,311.31317L113.77444,310.83312L119.29514,306.51266L120.25526,306.03261L120.97535,304.11241
				L119.7752,300.03197L122.65557,298.59182L124.57581,296.67161L126.49605,294.51138L123.61569,288.51074L131.05663,272.90908L
				138.01752,257.06739L142.57809,265.22826L147.13867,272.66906L161.78053,295.71151L163.94081,297.63172L164.6609,296.19156L167.78129,292.35115
				L171.62178,282.75013L172.34187,281.30998L182.90321,282.27008L186.98373,282.51011L191.06425,282.99016L192.74446,278.6697L
				193.46455,276.74949L182.42315,275.78939L180.74294,273.14911L180.98297,270.98888L175.94233,269.54872L176.90245,266.90844L
				186.98373,268.10857L192.2644,244.58606L193.94461,239.54553L201.14553,239.78555L201.86562,242.90588L207.14629,245.06611L207.14629,244.10601
				L210.02665,243.86599L211.22681,239.3055L217.70763,238.58542L216.02742,242.66586L221.06805,242.18581L221.78815,241.46573L
				222.9883,241.22571L223.46836,242.66586L221.06805,251.54681L230.42924,249.6266L235.70991,249.6266L247.95147,249.38658L247.95147,253.46701
				L249.39165,253.46701L251.31189,259.70768L252.27201,259.9477L252.75208,263.54808L258.27278,261.62788L256.59256,249.38658L
				260.91311,249.86663L266.91387,249.86663L268.83412,257.30742L272.19454,256.82737L273.15466,259.22762L278.43533,258.0275L282.03579,255.38721
				L287.55649,254.42711L288.51661,258.26752L300.03808,256.34732L303.15847,264.50819L308.43914,264.02814L306.75893,255.14719
				L311.31951,253.94706L321.40079,251.54681L327.16152,270.2688L331.00201,269.78875L330.76198,267.86854L333.16228,266.42839L
				329.08176,241.22571L341.56335,239.06548L344.20368,239.3055L346.12392,240.2656L347.08405,230.90461L347.32408,223.22379L354.28496,221.54361
				L354.04493,210.50243L364.36624,207.62212L361.96594,203.78172L374.44752,200.66138L382.60855,197.30103L390.52956,195.38082
				z"/>
		</g>
</g></svg>