<?xml version="1.0" encoding="utf-8" standalone="no"?>
<!-- Creator: ESRI ArcMap 10.0.0.2414 -->
<!DOCTYPE svg PUBLIC "-//W3C//DTD SVG 1.1//EN"  "http://www.w3.org/Graphics/SVG/1.1/DTD/svg11.dtd">
<svg width="344.414305448pt" height="741.1872776pt" viewBox="125.544027276 45.48194658 344.414305448 741.1872776" enable-background="new 125.544027276 45.48194658 344.414305448 741.1872776"
	version="1.1" xmlns="http://www.w3.org/2000/svg" xmlns:xlink="http://www.w3.org/1999/xlink" >
	<g id="Couches">
		<g id="cont_2">
			<path clip-path="url(#SVG_CP_2)" fill="none" stroke="#999999" stroke-width="0.96012" stroke-miterlimit="10" stroke-linecap="round" stroke-linejoin="round" d="
				M261.15314,372.99975L261.39317,372.99975L261.39317,372.75972L261.6332,372.75972L261.6332,373.23977L261.39317,373.23977L261.15314,373.23977
				L261.15314,372.99975"/>
			<path clip-path="url(#SVG_CP_2)" fill="none" stroke="#999999" stroke-width="0.96012" stroke-miterlimit="10" stroke-linecap="round" stroke-linejoin="round" d="
				M266.91387,314.67353L266.67384,314.67353L266.67384,314.91356L266.43381,314.91356L266.43381,315.15358L266.43381,315.39361
				L266.19378,315.39361L266.19378,315.63363L265.95375,315.63363L265.95375,315.87366L265.71372,315.87366L265.47369,315.87366
				L265.47369,316.11369L265.23366,316.11369L265.23366,316.35371L264.99363,316.35371L264.99363,316.59374L264.7536,316.59374L
				264.7536,316.83376L264.7536,317.07379L264.51357,317.07379L264.51357,317.31381L264.27354,317.31381L264.27354,317.55384L264.03351,317.55384
				L263.79348,317.55384L263.79348,317.79386L263.55345,317.79386L263.55345,318.03389L263.31342,318.03389L263.31342,318.27392
				L263.07339,318.27392L263.07339,318.51394L263.07339,318.75397L262.83335,318.75397L262.83335,318.99399L262.59332,318.99399
				L262.59332,319.23402L262.35329,319.23402L262.35329,319.47404L262.11326,319.47404L261.87323,319.47404L261.87323,319.71407
				L261.6332,319.71407L261.6332,372.5197L261.39317,372.5197L261.39317,372.75972L261.15314,372.75972L261.15314,372.99975L261.15314,373.23977
				L260.91311,373.23977L260.67308,373.23977L260.67308,373.4798L260.43305,373.4798L260.43305,375.4L260.19302,375.4L260.19302,378.52034
				L259.95299,378.52034L259.71296,378.52034L259.71296,380.68057L259.47293,380.68057L259.47293,382.60077L259.47293,382.8408L
				259.2329,382.8408L259.2329,383.8009L258.99287,383.8009L258.99287,384.04092L258.75284,384.04092L258.75284,384.28095L258.51281,384.28095
				L258.51281,384.52098L258.27278,384.52098L258.27278,384.761L258.03275,384.761L258.03275,385.00103L257.79272,385.00103L257.79272,385.24105
				L257.79272,385.48108L257.55268,385.48108L257.55268,385.7211L257.31265,385.7211L257.31265,385.96113L257.07262,385.96113L257.07262,386.20115
				L256.83259,386.20115L256.83259,386.44118L256.59256,386.44118L256.59256,386.68121L256.35253,386.68121L256.35253,386.92123
				L256.1125,386.92123L256.1125,504.77379L255.87247,504.77379L255.87247,505.01382L255.39241,505.01382L255.39241,505.25384L255.15238,505.25384
				L254.67232,505.25384L254.67232,505.49387L254.19226,505.49387L254.19226,505.73389L254.19226,505.97392L253.7122,505.97392L
				253.7122,506.21394L253.47217,506.21394L253.47217,506.45397L252.99211,506.45397L252.99211,506.69399L252.75208,506.69399L252.75208,506.93402
				L252.51205,506.93402L252.27201,506.93402L252.27201,507.17405L251.79195,507.17405L251.79195,507.41407L251.31189,507.41407
				L251.31189,507.6541L251.07186,507.6541L251.07186,507.89412L250.83183,507.89412L250.83183,508.13415L250.5918,508.13415L250.5918,508.37417
				L250.11174,508.37417L250.11174,508.6142L249.87171,508.6142L249.39165,508.6142L249.39165,508.85422L249.15162,508.85422L249.15162,509.09425
				L248.91159,509.09425L248.91159,509.33428L248.43153,509.33428L248.43153,509.5743L248.1915,509.5743L248.1915,509.81433L247.95147,509.81433
				L247.95147,510.05435L247.47141,510.05435L247.47141,510.29438L247.23137,510.29438L247.23137,510.5344L246.99134,510.5344L246.99134,510.77443
				L246.75131,510.77443L246.75131,511.01445L246.27125,511.01445L246.27125,511.25448L246.03122,511.25448L246.03122,511.49451
				L245.79119,511.49451L245.79119,511.73453L245.55116,511.73453L245.55116,511.97456L245.31113,511.97456L245.31113,512.21458
				L245.0711,512.21458L244.83107,512.21458L244.83107,512.45461L244.35101,512.45461L244.35101,512.69463L243.87095,512.69463L
				243.87095,512.93466L243.63092,512.93466L243.63092,513.17468L243.39089,513.17468L243.39089,513.41471L242.91083,513.41471L
				242.91083,513.65474L242.43077,513.65474L242.43077,513.89476L242.19074,513.89476L241.9507,513.89476L241.9507,514.13479L241.47064,514.13479
				L241.47064,514.37481L240.99058,514.37481L240.99058,514.61484L240.75055,514.61484L240.75055,514.85486L240.27049,514.85486
				L240.27049,515.09489L240.03046,515.09489L240.03046,515.33492L239.79043,515.33492L239.79043,515.57494L239.31037,515.57494
				L238.83031,515.57494L238.83031,515.81497L238.59028,515.81497L238.59028,516.05499L238.35025,516.05499L238.35025,516.29502
				L237.87019,516.29502L237.87019,516.53504L237.39013,516.53504L237.39013,516.77507L237.1501,516.77507L237.1501,517.01509L236.91007,517.01509
				L236.91007,517.25512L236.43,517.25512L236.43,517.49515L236.18997,517.49515L235.70991,517.49515L235.70991,517.73517L235.22985,517.73517
				L235.22985,517.9752L234.98982,517.9752L234.98982,518.21522L234.74979,518.21522L234.74979,518.45525L234.26973,518.45525L234.26973,518.69527
				L233.78967,518.69527L233.78967,518.9353L233.54964,518.9353L233.54964,519.17532L233.30961,519.17532L232.82955,519.17532L232.82955,519.41535
				L232.34949,519.41535L232.34949,519.65538L232.10946,519.65538L232.10946,519.8954L231.62939,519.8954L231.62939,520.13543L231.38936,520.13543
				L231.38936,520.37545L231.14933,520.37545L231.14933,520.61548L230.66927,520.61548L230.66927,520.8555L230.18921,520.8555L229.94918,520.8555
				L229.94918,521.09553L229.70915,521.09553L229.70915,521.33555L229.22909,521.33555L229.22909,521.57558L228.74903,521.57558
				L228.74903,521.81561L228.509,521.81561L228.509,522.05563L228.26897,522.05563L228.26897,522.29566L227.78891,522.29566L227.78891,522.53568
				L227.30885,522.53568L227.06882,522.53568L227.06882,522.77571L226.58876,522.77571L226.58876,523.01573L226.34872,523.01573
				L226.34872,523.25576L225.86866,523.25576L225.86866,523.49578L225.3886,523.49578L225.3886,523.73581L224.90854,523.73581L224.90854,523.97584
				L224.66851,523.97584L224.66851,524.21586L224.18845,524.21586L224.18845,524.45589L223.46836,524.45589L222.9883,524.45589L
				222.9883,524.69591L222.74827,524.69591L222.74827,524.93594L222.26821,524.93594L222.26821,525.17596L221.78815,525.17596L221.78815,525.41599
				L221.30809,525.41599L221.30809,525.65601L221.06805,525.65601L221.06805,525.89604L220.58799,525.89604L220.58799,526.13607
				L220.10793,526.13607L219.62787,526.13607L219.62787,526.37609L219.38784,526.37609L219.38784,526.61612L218.90778,526.61612
				L218.90778,526.85614L218.42772,526.85614L218.42772,527.09617L217.94766,527.09617L217.94766,527.33619L217.70763,527.33619
				L217.70763,527.57622L217.22757,527.57622L217.22757,527.81625L216.98754,527.81625L216.98754,527.57622L216.74751,527.57622
				L216.74751,527.09617L216.50748,527.09617L216.50748,526.61612L216.26745,526.61612L216.26745,526.13607L216.02742,526.13607
				L216.02742,525.65601L216.02742,525.17596L215.78738,525.17596L215.78738,524.69591L215.54735,524.69591L215.54735,524.45589
				L215.30732,524.45589L215.30732,523.97584L215.06729,523.97584L215.06729,523.49578L214.82726,523.49578L214.82726,523.01573
				L214.58723,523.01573L214.58723,522.53568L214.3472,522.53568L214.3472,522.05563L214.3472,521.57558L214.10717,521.57558L214.10717,521.09553
				L213.86714,521.09553L213.86714,520.8555L213.62711,520.8555L213.62711,520.37545L213.38708,520.37545L213.38708,519.8954L213.14705,519.8954
				L213.14705,519.41535L212.90702,519.41535L212.90702,519.17532L212.66699,519.17532L212.66699,518.69527L212.66699,517.9752L
				212.42696,517.9752L212.42696,517.49515L212.18693,517.49515L212.18693,517.25512L211.9469,517.25512L211.9469,516.77507L211.70687,516.77507
				L211.70687,516.29502L211.46684,516.29502L211.46684,515.81497L211.22681,515.81497L211.22681,515.57494L210.98678,515.57494
				L210.98678,515.09489L210.74674,515.09489L210.74674,514.61484L210.74674,514.37481L210.50671,514.37481L210.50671,514.85486
				L210.26668,514.85486L210.26668,515.33492L210.02665,515.33492L210.02665,515.57494L209.78662,515.57494L209.78662,515.81497
				L209.54659,515.81497L209.54659,516.05499L209.30656,516.05499L209.30656,516.53504L209.06653,516.53504L209.06653,517.01509
				L209.06653,517.25512L208.8265,517.25512L208.8265,517.49515L208.58647,517.49515L208.58647,517.73517L208.34644,517.73517L208.34644,518.21522
				L208.10641,518.21522L208.10641,518.69527L207.86638,518.69527L207.86638,518.9353L207.62635,518.9353L207.62635,519.17532L207.38632,519.17532
				L207.38632,519.41535L207.38632,519.8954L207.14629,519.8954L207.14629,520.37545L206.90626,520.37545L206.90626,520.61548L206.66623,520.61548
				L206.66623,520.8555L206.4262,520.8555L206.4262,521.09553L206.18617,521.09553L206.18617,521.57558L205.94614,521.57558L205.94614,522.05563
				L205.70611,522.05563L205.70611,522.29566L205.70611,522.53568L205.46607,522.53568L205.46607,522.77571L205.22604,522.77571
				L205.22604,523.25576L204.98601,523.25576L204.98601,523.73581L204.74598,523.73581L204.74598,523.97584L204.50595,523.97584
				L204.50595,524.45589L204.26592,524.45589L204.26592,523.73581L204.02589,523.73581L204.02589,522.77571L203.78586,522.77571
				L203.78586,521.57558L203.78586,520.8555L203.54583,520.8555L203.54583,519.8954L203.3058,519.8954L203.3058,518.9353L203.06577,518.9353
				L203.06577,518.21522L202.82574,518.21522L202.82574,517.73517L202.58571,517.73517L202.58571,517.25512L202.34568,517.25512
				L202.34568,516.77507L202.10565,516.77507L202.10565,515.81497L202.10565,515.33492L201.86562,515.33492L201.86562,514.61484
				L201.62559,514.61484L201.62559,513.89476L201.38556,513.89476L201.38556,513.65474L201.14553,513.65474L201.14553,512.93466
				L200.9055,512.93466L200.9055,512.45461L200.66547,512.45461L200.66547,512.21458L200.42544,512.21458L200.42544,511.97456L200.1854,511.97456
				L200.1854,511.73453L199.94537,511.73453L199.94537,511.49451L199.70534,511.49451L199.70534,511.25448L199.46531,511.25448L
				199.46531,511.01445L199.22528,511.01445L199.22528,510.77443L198.98525,510.77443L198.98525,510.5344L198.74522,510.5344L198.74522,510.29438
				L198.50519,510.29438L198.50519,510.05435L198.26516,510.05435L198.26516,509.81433L198.02513,509.81433L198.02513,509.5743L
				197.7851,509.5743L197.7851,509.33428L197.54507,509.33428L197.54507,508.6142L197.30504,508.6142L197.06501,508.6142L197.06501,508.13415
				L197.06501,507.6541L196.82498,507.6541L196.82498,507.17405L196.58495,507.17405L196.58495,506.93402L196.34492,506.93402L196.34492,506.21394
				L196.10489,506.21394L196.10489,505.73389L195.86486,505.73389L195.86486,505.25384L195.62483,505.25384L195.62483,504.77379
				L195.3848,504.77379L195.3848,504.29374L195.14476,504.29374L195.14476,503.57366L195.14476,503.33364L194.90473,503.33364L194.90473,502.85359
				L194.6647,502.85359L194.6647,502.37353L194.42467,502.37353L194.42467,501.65346L194.18464,501.65346L194.18464,501.41343L193.94461,501.41343
				L193.94461,501.17341L193.70458,501.17341L193.70458,500.69335L193.46455,500.69335L193.46455,499.97328L193.46455,499.01318
				L193.22452,499.01318L193.22452,498.53312L192.98449,498.53312L192.98449,498.05307L192.74446,498.05307L192.74446,497.333L192.50443,497.333
				L192.50443,496.85295L192.2644,496.85295L192.2644,496.37289L192.02437,496.37289L192.02437,408.04348L192.2644,408.04348L192.2644,406.84335
				L192.50443,406.84335L192.50443,406.12328L192.74446,406.12328L192.74446,405.4032L192.98449,405.4032L192.98449,404.92315L193.22452,404.92315
				L193.22452,404.4431L193.46455,404.4431L193.46455,403.72302L193.46455,403.24297L193.70458,403.24297L193.70458,402.76292L193.94461,402.76292
				L193.94461,402.52289L194.18464,402.52289L194.18464,402.04284L194.42467,402.04284L194.42467,401.56279L194.6647,401.56279L
				194.6647,401.08274L194.90473,401.08274L194.90473,400.60269L195.14476,400.60269L195.14476,400.12264L195.14476,399.64259L195.3848,399.64259
				L195.3848,399.40256L195.62483,399.40256L195.62483,398.92251L195.86486,398.92251L195.86486,398.44246L196.10489,398.44246L
				196.10489,397.96241L196.34492,397.96241L196.34492,397.48236L196.58495,397.48236L196.82498,397.48236L196.82498,397.00231L
				197.06501,397.00231L197.06501,396.52225L197.06501,396.0422L197.30504,396.0422L197.30504,395.80218L197.54507,395.80218L197.54507,395.56215
				L197.7851,395.56215L197.7851,395.0821L198.02513,395.0821L198.02513,394.60205L198.26516,394.60205L198.26516,394.122L198.50519,394.122
				L198.50519,393.88197L198.74522,393.88197L198.74522,393.40192L198.74522,392.92187L198.98525,392.92187L198.98525,392.44182
				L199.22528,392.44182L199.22528,392.20179L199.46531,392.20179L199.46531,391.96177L199.70534,391.96177L199.70534,391.48172
				L199.94537,391.48172L199.94537,391.00167L200.1854,391.00167L200.1854,390.52161L200.42544,390.52161L200.42544,390.04156L200.66547,390.04156
				L200.66547,389.80154L200.9055,389.80154L200.9055,389.32149L201.14553,389.32149L201.14553,388.84144L201.38556,388.84144L201.38556,388.60141
				L201.62559,388.60141L201.62559,388.12136L201.86562,388.12136L201.86562,387.64131L202.10565,387.64131L202.10565,387.16126
				L202.34568,387.16126L202.34568,386.68121L202.58571,386.68121L202.58571,386.44118L202.82574,386.44118L202.82574,385.96113
				L203.06577,385.96113L203.06577,385.7211L203.3058,385.7211L203.3058,385.48108L203.54583,385.48108L203.54583,385.00103L203.78586,385.00103
				L203.78586,384.761L203.78586,384.52098L204.26592,384.52098L204.26592,384.28095L204.50595,384.28095L204.50595,384.04092L205.22604,384.04092
				L205.22604,383.8009L205.70611,383.8009L205.70611,383.56087L205.94614,383.56087L206.4262,383.56087L206.4262,383.32085L206.90626,383.32085
				L206.90626,383.08082L207.62635,383.08082L207.62635,382.8408L208.58647,382.8408L208.58647,382.60077L209.06653,382.60077L209.06653,382.36075
				L209.54659,382.36075L209.54659,382.12072L209.78662,382.12072L209.78662,381.88069L210.02665,381.88069L210.26668,381.88069
				L210.26668,381.64067L210.74674,381.64067L210.74674,381.40064L210.74674,381.16062L210.98678,381.16062L210.98678,380.92059
				L211.22681,380.92059L211.22681,380.68057L211.46684,380.68057L211.46684,380.44054L211.70687,380.44054L211.70687,380.20051
				L211.9469,380.20051L211.9469,379.72046L212.18693,379.72046L212.18693,378.52034L212.42696,378.52034L212.42696,377.32021L212.66699,377.32021
				L212.66699,375.88005L212.66699,374.67993L212.66699,373.71982L212.42696,373.71982L212.42696,373.23977L212.18693,373.23977
				L212.18693,372.27967L211.9469,372.27967L211.9469,371.55959L211.70687,371.55959L211.70687,370.83952L211.46684,370.83952L211.46684,369.63939
				L211.22681,369.63939L211.22681,367.23913L210.98678,367.23913L210.98678,366.75908L210.74674,366.75908L210.74674,365.0789L
				210.98678,365.0789L210.98678,364.35883L211.22681,364.35883L211.22681,363.39872L211.46684,363.39872L211.46684,362.67865L211.70687,362.67865
				L211.70687,361.71855L211.9469,361.71855L211.9469,360.99847L212.18693,360.99847L212.18693,360.03837L212.42696,360.03837L212.42696,359.31829
				L212.66699,359.31829L212.66699,358.83824L212.66699,358.11816L212.90702,358.11816L212.90702,357.63811L213.14705,357.63811
				L213.14705,357.15806L213.38708,357.15806L213.38708,355.95793L213.62711,355.95793L213.62711,354.7578L213.86714,354.7578L213.86714,354.03773
				L214.10717,354.03773L214.10717,353.31765L214.3472,353.31765L214.3472,352.59757L214.3472,352.11752L214.58723,352.11752L214.58723,351.63747
				L214.82726,351.63747L214.82726,350.91739L215.06729,350.91739L215.06729,350.67737L215.30732,350.67737L215.30732,350.43734
				L215.54735,350.43734L215.54735,350.19732L215.78738,350.19732L215.78738,349.71727L216.02742,349.71727L216.02742,349.23722
				L216.02742,348.99719L216.26745,348.99719L216.26745,348.51714L216.50748,348.51714L216.50748,348.03709L216.74751,348.03709
				L216.74751,347.55704L216.98754,347.55704L216.98754,347.07699L217.22757,347.07699L217.22757,346.59693L217.4676,346.59693L
				217.4676,346.11688L217.70763,346.11688L217.70763,345.63683L217.70763,345.39681L217.94766,345.39681L217.94766,344.67673L218.18769,344.67673
				L218.18769,344.19668L218.42772,344.19668L218.42772,343.71663L218.66775,343.71663L218.66775,343.23658L218.90778,343.23658
				L218.90778,342.75652L219.14781,342.75652L219.14781,342.27647L219.38784,342.27647L219.38784,342.03645L219.62787,342.03645
				L219.62787,341.31637L219.62787,340.59629L219.8679,340.59629L219.8679,340.35627L220.10793,340.35627L220.10793,339.63619L220.34796,339.63619
				L220.34796,339.15614L220.58799,339.15614L220.58799,338.43606L220.82802,338.43606L220.82802,338.19604L221.06805,338.19604
				L221.06805,337.47596L221.30809,337.47596L221.30809,336.99591L221.30809,336.51586L221.54812,336.51586L221.54812,335.07571
				L221.78815,335.07571L221.78815,334.59566L222.02818,334.59566L222.02818,333.87558L222.26821,333.87558L222.26821,333.39553
				L222.50824,333.39553L222.50824,332.43543L222.74827,332.43543L222.74827,331.71535L222.9883,331.71535L222.9883,330.99527L222.9883,330.51522
				L223.22833,330.51522L223.22833,319.47404L223.46836,319.47404L223.46836,318.75397L223.70839,318.75397L223.70839,318.27392
				L223.94842,318.27392L223.94842,317.55384L224.18845,317.55384L224.18845,317.07379L224.42848,317.07379L224.42848,316.35371
				L224.66851,316.35371L224.66851,315.87366L224.66851,315.15358L224.90854,315.15358L224.90854,314.43351L225.14857,314.43351
				L225.14857,313.95346L225.3886,313.95346L225.3886,313.23338L225.62863,313.23338L225.62863,312.75333L225.86866,312.75333L225.86866,312.27328
				L226.10869,312.27328L226.10869,311.5532L226.34872,311.5532L226.34872,311.07315L226.58876,311.07315L226.58876,310.5931L226.58876,310.11305
				L226.82879,310.11305L226.82879,309.39297L227.06882,309.39297L227.06882,308.91292L227.30885,308.91292L227.30885,308.19284
				L227.54888,308.19284L227.54888,307.71279L227.78891,307.71279L227.78891,307.23274L228.02894,307.23274L228.02894,306.75269
				L228.26897,306.75269L228.26897,306.03261L228.26897,305.55256L228.509,305.55256L228.509,305.07251L228.74903,305.07251L228.74903,304.59246
				L228.98906,304.59246L228.98906,303.87238L229.22909,303.87238L229.22909,303.39233L229.46912,303.39233L229.46912,301.47213
				L229.70915,301.47213L229.70915,300.75205L229.94918,300.75205L229.94918,300.03197L229.94918,299.55192L230.18921,299.55192
				L230.18921,298.83184L230.42924,298.83184L230.42924,297.87174L230.66927,297.87174L230.66927,297.39169L230.9093,297.39169L
				230.9093,296.91164L231.14933,296.91164L231.14933,296.19156L231.38936,296.19156L231.38936,295.47149L231.62939,295.47149L231.62939,294.99144
				L231.62939,294.03133L231.86943,294.03133L231.86943,293.55128L232.10946,293.55128L232.10946,293.07123L232.34949,293.07123
				L232.34949,292.35115L232.58952,292.35115L232.58952,291.8711L232.82955,291.8711L232.82955,291.39105L233.06958,291.39105L233.06958,290.67097
				L233.30961,290.67097L233.30961,289.9509L233.30961,289.71087L233.54964,289.71087L233.54964,289.23082L233.78967,289.23082L
				233.78967,288.27072L234.0297,288.27072L234.0297,288.03069L234.26973,288.03069L234.26973,287.55064L234.50976,287.55064L234.50976,287.07059
				L234.74979,287.07059L234.74979,286.35051L234.98982,286.35051L234.98982,285.87046L235.22985,285.87046L235.22985,285.39041
				L235.22985,284.91036L235.46988,284.91036L235.46988,284.67034L235.70991,284.67034L235.70991,284.43031L235.94994,284.43031
				L235.94994,283.47021L236.18997,283.47021L236.18997,282.99016L236.43,282.99016L236.43,282.75013L236.67003,282.75013L236.67003,282.03005
				L236.91007,282.03005L236.91007,281.79003L236.91007,281.30998L237.1501,281.30998L237.1501,281.06995L237.39013,281.06995L237.39013,280.5899
				L237.63016,280.5899L237.63016,280.34987L237.87019,280.34987L237.87019,279.86982L238.11022,279.86982L238.11022,279.38977L
				238.35025,279.38977L238.35025,279.14975L238.59028,279.14975L238.59028,278.6697L238.59028,278.18964L238.83031,278.18964L238.83031,277.70959
				L239.31037,277.70959L239.31037,278.18964L239.5504,278.18964L239.5504,278.6697L239.79043,278.6697L239.79043,278.90972L240.03046,278.90972
				L240.03046,279.38977L240.27049,279.38977L240.27049,279.6298L240.27049,279.86982L240.51052,279.86982L240.51052,280.10985L
				240.75055,280.10985L240.75055,280.5899L240.99058,280.5899L240.99058,280.82993L241.23061,280.82993L241.23061,281.30998L241.47064,281.30998
				L241.71067,281.30998L241.71067,281.55L241.9507,281.55L241.9507,282.03005L242.19074,282.03005L242.19074,282.27008L242.19074,282.75013
				L242.43077,282.75013L242.43077,282.99016L242.6708,282.99016L242.91083,282.99016L242.91083,283.47021L243.15086,283.47021L
				243.15086,283.71023L243.39089,283.71023L243.39089,284.19028L243.63092,284.19028L243.63092,284.43031L243.87095,284.43031L
				243.87095,284.67034L243.87095,284.91036L244.11098,284.91036L244.11098,285.15039L244.35101,285.15039L244.35101,285.39041L
				244.59104,285.39041L244.59104,285.87046L244.83107,285.87046L244.83107,286.11049L245.0711,286.11049L245.0711,286.35051L245.31113,286.35051
				L245.31113,286.11049L245.55116,286.11049L245.55116,285.87046L245.79119,285.87046L245.79119,285.63044L246.03122,285.63044
				L246.03122,285.39041L246.51128,285.39041L246.51128,285.15039L246.75131,285.15039L246.75131,284.91036L246.99134,284.91036
				L246.99134,284.67034L247.23137,284.67034L247.47141,284.67034L247.47141,284.43031L247.95147,284.43031L247.95147,284.19028
				L248.1915,284.19028L248.1915,283.95026L248.43153,283.95026L248.43153,283.71023L248.91159,283.71023L248.91159,283.47021L249.15162,283.47021
				L249.15162,283.23018L249.15162,282.99016L249.63168,282.99016L249.87171,282.99016L249.87171,282.75013L250.5918,282.75013L
				250.5918,282.99016L250.83183,282.99016L250.83183,283.47021L250.83183,283.71023L250.35177,283.71023L250.35177,283.95026L250.11174,283.95026
				L250.11174,284.19028L249.87171,284.19028L249.87171,284.43031"/>
			<path clip-path="url(#SVG_CP_2)" fill="none" stroke="#999999" stroke-width="0.96012" stroke-miterlimit="10" stroke-linecap="round" stroke-linejoin="round" d="
				M249.87171,284.43031L249.39165,284.43031L249.39165,284.67034L249.15162,284.67034L248.91159,284.67034L248.91159,284.91036
				L248.67156,284.91036L248.67156,285.15039L248.43153,285.15039L248.43153,285.39041L248.1915,285.39041L248.1915,285.63044L248.43153,285.63044
				L248.43153,286.11049L248.67156,286.11049L248.67156,286.35051L248.91159,286.35051L248.91159,286.59054L249.15162,286.59054
				L249.15162,287.07059L249.15162,287.55064L249.39165,287.55064L249.39165,288.03069L249.63168,288.03069L249.63168,288.27072
				L249.87171,288.27072L249.87171,288.75077L250.11174,288.75077L250.11174,289.23082L250.35177,289.23082L250.35177,289.71087
				L249.87171,289.71087L249.87171,289.9509L249.63168,289.9509L249.15162,289.9509L249.15162,290.19092L248.91159,290.19092L248.91159,290.43095
				L248.67156,290.43095L248.67156,290.67097L248.1915,290.67097L248.1915,290.911L247.95147,290.911L247.95147,291.15103L247.71144,291.15103
				L247.71144,291.39105L247.95147,291.39105L247.95147,291.63108L248.1915,291.63108L248.1915,292.11113L248.43153,292.11113L248.43153,292.35115
				L248.67156,292.35115L248.67156,292.8312L248.91159,292.8312L248.91159,293.31126L249.15162,293.31126L249.15162,293.55128L249.15162,293.79131
				L249.39165,293.79131L249.39165,294.27136L249.63168,294.27136L249.63168,294.75141L249.87171,294.75141L249.87171,294.99144
				L250.11174,294.99144L250.11174,295.23146L250.35177,295.23146L250.35177,295.71151L250.5918,295.71151L250.5918,295.95154L250.83183,295.95154
				L250.83183,296.43159L250.83183,296.91164L251.07186,296.91164L251.07186,297.15167L251.31189,297.15167L251.31189,297.39169
				L251.55192,297.39169L251.55192,297.87174L251.79195,297.87174L251.79195,298.35179L252.03198,298.35179L252.03198,298.59182
				L252.27201,298.59182L252.27201,298.83184L252.51205,298.83184L252.51205,299.3119L252.51205,299.55192L252.75208,299.55192L
				252.75208,299.79195L252.99211,299.79195L252.99211,300.272L253.23214,300.272L253.47217,300.272L253.47217,300.75205L253.7122,300.75205
				L253.7122,300.99207L253.95223,300.99207L253.95223,301.2321L254.19226,301.2321L254.19226,301.71215L254.19226,301.95218L254.43229,301.95218
				L254.67232,301.95218L254.67232,302.43223L254.91235,302.43223L254.91235,302.67225L255.15238,302.67225L255.15238,302.91228
				L255.39241,302.91228L255.39241,303.1523L255.63244,303.1523L255.63244,303.39233L255.87247,303.39233L255.87247,303.87238L256.1125,303.87238
				L256.1125,304.11241L256.35253,304.11241L256.35253,304.35243L256.83259,304.35243L256.83259,304.59246L257.07262,304.59246L
				257.07262,304.83248L257.31265,304.83248L257.31265,305.07251L257.79272,305.07251L257.79272,305.31253L258.03275,305.31253L
				258.03275,305.55256L258.51281,305.55256L259.2329,305.55256L259.2329,305.79259L259.47293,305.79259L259.47293,306.03261L259.95299,306.03261
				L259.95299,306.27264L260.43305,306.27264L260.43305,306.51266L260.91311,306.51266L260.91311,306.75269L261.15314,306.75269
				L261.15314,306.99271L261.6332,306.99271L261.6332,307.23274L261.87323,307.23274L262.35329,307.23274L262.35329,307.47277L262.59332,307.47277
				L262.59332,307.71279L262.83335,307.71279L262.83335,307.95282L263.07339,307.95282L263.07339,308.19284L263.31342,308.19284
				L263.31342,308.43287L263.55345,308.43287L263.55345,308.67289L263.79348,308.67289L263.79348,308.91292L264.03351,308.91292
				L264.03351,309.15294L264.27354,309.15294L264.27354,309.633L264.51357,309.633L264.51357,310.11305L264.7536,310.11305L264.7536,310.5931
				L264.7536,310.83312L264.99363,310.83312L264.99363,311.31317L265.23366,311.31317L265.23366,312.03325L265.47369,312.03325L
				265.47369,312.5133L265.71372,312.5133L265.71372,312.75333L265.95375,312.75333L265.95375,313.23338L266.19378,313.23338L266.19378,313.71343
				L266.43381,313.71343L266.43381,314.19348L266.67384,314.19348L266.67384,314.43351L266.91387,314.43351L266.91387,314.67353
				"/>
			<path clip-path="url(#SVG_CP_2)" fill="none" stroke="#999999" stroke-width="0.96012" stroke-miterlimit="10" stroke-linecap="round" stroke-linejoin="round" d="
				M202.34568,491.09233L202.34568,490.13223L202.10565,490.13223L202.10565,489.65218L202.10565,488.9321L201.86562,488.9321L201.86562,488.45205
				L201.62559,488.45205L201.62559,487.972L201.38556,487.972L201.38556,487.25192L201.14553,487.25192L201.14553,486.77187L200.9055,486.77187
				L200.9055,488.21202L201.14553,488.21202L201.14553,489.17213L201.38556,489.17213L201.38556,489.65218L201.62559,489.65218L
				201.62559,490.13223L201.86562,490.13223L201.86562,490.61228L202.10565,490.61228L202.10565,490.85231L202.10565,491.09233L
				202.34568,491.09233"/>
			<path clip-path="url(#SVG_CP_2)" fill="none" stroke="#999999" stroke-width="0.96012" stroke-miterlimit="10" stroke-linecap="round" stroke-linejoin="round" d="
				M256.1125,504.77379L256.35253,504.77379L256.35253,386.92123L256.59256,386.92123L256.59256,386.68121L256.83259,386.68121L
				256.83259,386.44118L257.07262,386.44118L257.07262,386.20115L257.31265,386.20115L257.31265,385.96113L257.55268,385.96113L
				257.55268,385.7211L257.79272,385.7211L257.79272,385.48108L258.03275,385.48108L258.03275,385.24105L258.27278,385.24105L258.27278,385.00103
				L258.51281,385.00103L258.51281,384.761L258.75284,384.761L258.75284,384.52098L258.99287,384.52098L258.99287,384.28095L259.2329,384.28095
				L259.2329,383.8009L259.47293,383.8009L259.47293,383.56087L259.47293,382.60077L259.71296,382.60077L259.71296,380.68057L259.95299,380.68057
				L259.95299,380.44054L260.19302,380.44054L260.19302,378.52034L260.43305,378.52034L260.43305,378.28031L260.67308,378.28031
				L260.67308,375.15998L260.91311,375.15998L260.91311,374.91995L261.15314,374.91995L261.15314,374.67993L261.39317,374.67993
				L261.39317,374.4399L261.6332,374.4399L261.6332,374.19988L261.87323,374.19988L261.87323,321.15422L262.11326,321.15422L262.11326,319.9541
				L262.35329,319.9541L262.35329,319.47404L262.59332,319.47404L262.59332,319.23402L262.83335,319.23402L262.83335,318.99399L
				263.07339,318.99399L263.07339,318.75397L263.07339,318.51394L263.31342,318.51394L263.31342,318.27392L263.55345,318.27392L
				263.55345,318.03389L263.79348,318.03389L263.79348,317.79386L264.03351,317.79386L264.03351,317.55384L264.27354,317.55384L
				264.51357,317.55384L264.51357,317.31381L264.7536,317.31381L264.7536,317.07379L264.7536,316.83376L264.99363,316.83376L264.99363,316.59374
				L265.23366,316.59374L265.23366,316.35371L265.47369,316.35371L265.47369,316.11369L265.71372,316.11369L265.71372,315.87366
				L265.95375,315.87366L266.19378,315.87366L266.19378,315.63363L266.43381,315.63363L266.43381,315.39361L266.43381,315.15358
				L266.67384,315.15358L266.67384,314.91356L266.91387,314.91356L266.91387,314.67353L267.39393,314.67353L267.39393,314.43351
				L267.63396,314.43351L267.63396,314.19348L267.87399,314.19348L268.11402,314.19348L268.11402,313.95346L268.35406,313.95346
				L268.35406,313.71343L268.83412,313.71343L268.83412,313.4734L269.07415,313.4734L269.07415,313.23338L269.31418,313.23338L269.31418,312.99335
				L269.79424,312.99335L269.79424,312.75333L269.79424,312.5133L270.2743,312.5133L270.51433,312.5133L270.51433,312.27328L270.99439,312.27328
				L270.99439,312.03325L271.23442,312.03325L271.23442,311.79323L271.47445,311.79323L271.47445,311.5532L271.71448,311.5532L271.71448,311.31317
				L271.95451,311.31317L271.95451,311.07315L272.43457,311.07315L272.43457,310.83312L272.6746,310.83312L272.91463,310.83312L
				272.91463,310.5931L273.3947,310.5931L273.3947,310.35307L273.3947,310.11305L273.87476,310.11305L273.87476,309.87302L274.11479,309.87302
				L274.11479,309.633L274.35482,309.633L274.35482,309.39297L274.83488,309.39297L274.83488,309.15294L275.07491,309.15294L275.07491,308.91292
				L275.31494,308.91292L275.55497,308.91292L275.55497,308.67289L276.03503,308.67289L276.03503,308.43287L276.27506,308.43287
				L276.27506,308.19284L276.51509,308.19284L276.51509,307.95282L276.75512,307.95282L276.75512,307.71279L276.99515,307.71279
				L276.99515,307.47277L277.47521,307.47277L277.47521,307.23274L277.71524,307.23274L277.95527,307.23274L277.95527,306.99271
				L278.43533,306.99271L278.43533,306.75269L278.67537,306.75269L278.67537,306.51266L278.9154,306.51266L278.9154,306.27264L279.15543,306.27264
				L279.15543,306.03261L279.39546,306.03261L279.39546,305.79259L279.87552,305.79259L279.87552,305.55256L280.11555,305.55256
				L280.35558,305.55256L280.35558,305.31253L280.59561,305.31253L280.59561,305.07251L281.07567,305.07251L281.07567,304.83248
				L281.3157,304.83248L281.3157,304.59246L281.55573,304.59246L281.55573,304.35243L282.03579,304.35243L282.03579,304.11241L282.03579,303.87238
				L282.51585,303.87238L282.75588,303.87238L282.75588,303.63236L282.99591,303.63236L282.99591,303.39233L283.47597,303.39233
				L283.47597,303.1523L283.716,303.1523L283.716,302.91228L283.95604,302.91228L283.95604,302.67225L284.19607,302.67225L284.19607,302.43223
				L284.4361,302.43223L284.4361,302.1922L284.91616,302.1922L284.91616,301.95218L285.15619,301.95218L285.63625,301.95218L285.63625,301.71215
				L285.63625,301.47213L286.11631,301.47213L286.11631,301.2321L286.35634,301.2321L286.35634,300.99207L286.59637,300.99207L286.59637,300.75205
				L287.07643,300.75205L287.07643,300.51202L287.31646,300.51202L287.31646,300.272L287.55649,300.272L287.79652,300.272L287.79652,300.03197
				L288.03655,300.03197L288.03655,299.79195L288.51661,299.79195L288.51661,299.55192L288.75664,299.55192L288.75664,299.3119L
				288.99668,299.3119L288.99668,299.07187L289.23671,299.07187L289.23671,298.83184L289.47674,298.83184L289.47674,298.59182L289.9568,298.59182
				L290.19683,298.59182L290.19683,298.35179L290.67689,298.35179L290.67689,298.11177L290.67689,297.87174L291.15695,297.87174
				L291.15695,297.63172L291.39698,297.63172L291.39698,297.39169L291.63701,297.39169L291.63701,297.15167L292.11707,297.15167
				L292.11707,296.91164L292.3571,296.91164L292.59713,296.91164L292.59713,296.67161L292.83716,296.67161L292.83716,296.43159L
				293.07719,296.43159L293.07719,296.19156L293.55725,296.19156L293.55725,295.95154L293.79728,295.95154L293.79728,295.71151L
				294.27735,295.71151L294.27735,295.47149L294.27735,295.23146L294.75741,295.23146L294.75741,294.99144L294.99744,294.99144L
				295.23747,294.99144L295.23747,294.75141L295.71753,294.75141L295.71753,294.51138L295.95756,294.51138L295.95756,294.27136L
				296.19759,294.27136L296.19759,294.03133L296.43762,294.03133L296.43762,293.79131L296.67765,293.79131L296.67765,293.55128L
				297.15771,293.55128L297.15771,293.31126L297.39774,293.31126L297.63777,293.31126L297.63777,293.07123L297.8778,293.07123L297.8778,292.8312
				L298.11783,292.8312L298.11783,292.59118L298.59789,292.59118L298.59789,292.35115L298.83792,292.35115L298.83792,292.11113L
				299.31798,292.11113L299.31798,291.8711L299.31798,291.63108L299.79805,291.63108L300.03808,291.63108L300.03808,291.39105L300.27811,291.39105
				L300.27811,291.15103L300.75817,291.15103L300.75817,290.911L300.9982,290.911L300.9982,290.43095L300.75817,290.43095L300.75817,289.9509
				L300.51814,289.9509L300.27811,289.9509L300.27811,289.71087L300.03808,289.71087L300.03808,289.23082L299.79805,289.23082L299.79805,288.9908
				L299.55802,288.9908L299.55802,288.75077L299.31798,288.75077L299.31798,288.51074L299.31798,288.03069L299.07795,288.03069L
				298.83792,288.03069L298.83792,287.79067L298.59789,287.79067L298.59789,287.55064L298.35786,287.55064L298.35786,287.07059L
				298.11783,287.07059L298.11783,286.83057L297.8778,286.83057L297.8778,286.59054L297.63777,286.59054L297.63777,286.35051L297.63777,286.11049
				L297.39774,286.11049L297.39774,285.87046L297.15771,285.87046L297.15771,285.63044L296.91768,285.63044L296.91768,285.15039
				L296.67765,285.15039L296.67765,284.91036L296.43762,284.91036L296.43762,284.67034L296.19759,284.67034L295.95756,284.67034
				L295.95756,284.19028L295.95756,283.95026L295.71753,283.95026L295.71753,283.71023L295.4775,283.71023L295.4775,283.23018L295.23747,283.23018
				L295.23747,282.99016L294.99744,282.99016L294.75741,282.99016L294.75741,282.75013L294.51738,282.75013L294.51738,282.27008
				L294.27735,282.27008L294.27735,282.03005L294.27735,281.79003L294.03731,281.79003L294.03731,281.30998L293.79728,281.30998
				L293.55725,281.30998L293.55725,281.06995L293.31722,281.06995L293.31722,280.82993L293.07719,280.82993L293.07719,280.34987
				L292.83716,280.34987L292.83716,280.10985L292.59713,280.10985L292.59713,279.86982L292.59713,279.6298L292.3571,279.6298L292.3571,279.38977
				L292.11707,279.38977L292.11707,279.14975L291.87704,279.14975L291.87704,278.90972L291.63701,278.90972L291.63701,278.42967
				L291.39698,278.42967L291.39698,278.18964L291.15695,278.18964L291.15695,277.94962L290.91692,277.94962L290.91692,277.70959
				L290.67689,277.70959L290.67689,277.46957L290.67689,277.22954L290.43686,277.22954L290.43686,276.98952L290.19683,276.98952
				L290.19683,276.74949L289.9568,276.74949L289.9568,276.26944L289.71677,276.26944L289.71677,276.02941L289.47674,276.02941L289.23671,276.02941
				L289.23671,275.54936L288.99668,275.54936L288.99668,275.30934L288.99668,275.06931L288.75664,275.06931L288.75664,274.82929
				L288.51661,274.82929L288.51661,274.34924L288.27658,274.34924L288.03655,274.34924L288.03655,274.10921L287.79652,274.10921
				L287.79652,273.86918L287.55649,273.86918L287.55649,273.38913L287.31646,273.38913L287.31646,273.14911L287.31646,272.90908
				L287.55649,272.90908L287.55649,273.14911L287.79652,273.14911L287.79652,273.38913L288.03655,273.38913L288.03655,273.62916
				L288.51661,273.62916L288.51661,273.86918L288.75664,273.86918L288.75664,274.10921L288.99668,274.10921L288.99668,274.34924
				L289.47674,274.34924L289.47674,274.58926L289.9568,274.58926L289.9568,274.82929L290.19683,274.82929L290.19683,275.06931L290.67689,275.06931
				L290.67689,275.30934L290.67689,275.54936L290.91692,275.54936L290.91692,275.78939L291.39698,275.78939L291.39698,276.02941
				L291.63701,276.02941L291.87704,276.02941L291.87704,276.26944L292.3571,276.26944L292.3571,276.50947L292.59713,276.50947L292.59713,276.74949
				L292.83716,276.74949L292.83716,276.98952L293.31722,276.98952L293.31722,277.22954L293.79728,277.22954L293.79728,277.46957
				L294.27735,277.46957L294.27735,277.70959L294.51738,277.70959L294.75741,277.70959L294.75741,277.94962L294.99744,277.94962
				L294.99744,278.18964L295.4775,278.18964L295.4775,278.42967L295.71753,278.42967L295.71753,278.6697L295.95756,278.6697L295.95756,278.90972
				L296.19759,278.90972L296.19759,279.14975L296.43762,279.14975L296.43762,279.38977L296.91768,279.38977L297.15771,279.38977
				L297.15771,279.6298L297.39774,279.6298L297.39774,279.86982L297.63777,279.86982L297.63777,280.10985L298.11783,280.10985L298.11783,280.34987
				L298.35786,280.34987L298.35786,280.5899L298.59789,280.5899L298.59789,280.82993L299.07795,280.82993L299.07795,281.06995L299.31798,281.06995
				L299.31798,281.30998L299.79805,281.30998L299.79805,281.55L300.03808,281.55L300.03808,281.79003L300.27811,281.79003L300.27811,282.03005
				L300.75817,282.03005L300.75817,282.27008L300.9982,282.27008L300.9982,282.51011L301.23823,282.51011L301.23823,282.75013L301.47826,282.75013
				L301.47826,282.99016L301.71829,282.99016L302.19835,282.99016L302.19835,283.23018L302.43838,283.23018L302.43838,283.47021
				L302.91844,283.47021L302.91844,283.71023L302.91844,283.95026L303.15847,283.95026L303.15847,284.19028L303.63853,284.19028
				L303.63853,284.43031L303.87856,284.43031L303.87856,284.67034L304.35862,284.67034L304.59865,284.67034L304.59865,284.91036
				L304.59865,285.15039L304.83869,285.15039L304.83869,285.39041L305.07872,285.39041L305.07872,285.63044L305.31875,285.63044
				L305.31875,285.87046L305.55878,285.87046L305.55878,286.11049L305.79881,286.11049L305.79881,286.35051L306.27887,286.35051
				L306.27887,286.59054L306.5189,286.59054L306.5189,286.83057L306.75893,286.83057L306.75893,287.07059L306.99896,287.07059L306.99896,287.31062
				L307.23899,287.31062L307.23899,287.55064L307.47902,287.55064L307.47902,287.79067L307.71905,287.79067L307.71905,288.03069
				L307.95908,288.03069L308.19911,288.03069L308.19911,288.27072L308.19911,288.51074L308.43914,288.51074L308.43914,288.75077
				L308.67917,288.75077L308.67917,288.9908L308.9192,288.9908L308.9192,289.23082L309.15923,289.23082L309.15923,289.47085L309.39926,289.47085
				L309.39926,289.71087L309.63929,289.71087L309.63929,289.9509L309.87933,289.9509L309.87933,290.19092L310.11936,290.19092L310.11936,290.43095
				L310.35939,290.43095L310.35939,290.67097L310.59942,290.67097L310.59942,291.39105L310.83945,291.39105L310.83945,291.8711L
				311.07948,291.8711L311.07948,292.59118L311.31951,292.59118L311.31951,293.31126L311.55954,293.31126L311.55954,294.51138L311.55954,295.23146
				L311.79957,295.23146L311.79957,296.43159L312.0396,296.43159L312.0396,298.11177L312.27963,298.11177L312.27963,301.2321L312.0396,301.2321
				L312.0396,301.71215L312.27963,301.71215L312.27963,302.67225L312.51966,302.67225L312.51966,304.11241L312.27963,304.11241L
				312.27963,304.83248L312.0396,304.83248L312.0396,305.31253L311.79957,305.31253L311.79957,306.75269L311.55954,306.75269L311.55954,307.95282
				L311.79957,307.95282L311.79957,308.91292L312.0396,308.91292L312.0396,309.633L312.27963,309.633L312.27963,309.87302L312.51966,309.87302
				L312.51966,310.11305L312.75969,310.11305L312.75969,310.5931L312.99972,310.5931L312.99972,312.27328L312.75969,312.27328L312.75969,312.5133
				L312.99972,312.5133L312.99972,313.23338L313.23975,313.23338L313.23975,313.4734L313.23975,314.19348L313.47978,314.19348L313.47978,314.67353
				L313.71981,314.67353L313.71981,315.15358L313.95984,315.15358L313.95984,315.87366L314.19987,315.87366L314.19987,316.59374
				L314.4399,316.59374L314.4399,317.55384L314.67993,317.55384L314.67993,318.27392L314.91996,318.27392L314.91996,318.99399L315.16,318.99399
				L315.16,320.19412L315.16,321.15422L315.40003,321.15422L315.40003,322.11433L315.64006,322.11433L315.64006,324.27456L315.40003,324.27456
				L315.40003,324.99463L315.64006,324.99463L315.64006,326.67481L315.88009,326.67481L315.88009,327.39489L316.12012,327.39489
				L316.12012,327.87494L316.36015,327.87494L316.36015,328.35499L316.60018,328.35499L316.60018,329.07507L316.84021,329.07507
				L316.84021,329.55512L316.84021,330.03517L317.08024,330.03517L317.08024,330.27519L317.32027,330.27519L317.32027,330.99527
				L317.5603,330.99527L317.5603,331.47532L317.80033,331.47532L317.80033,331.71535L318.04036,331.71535L318.04036,332.1954L318.28039,332.1954
				L318.28039,332.67545L318.52042,332.67545L318.52042,332.91548L318.52042,333.39553L318.76045,333.39553L318.76045,333.87558
				L319.00048,333.87558L319.00048,334.83568L319.24051,334.83568L319.24051,335.07571L319.48054,335.07571L319.48054,335.55576
				L319.72057,335.55576L319.72057,336.27583L319.9606,336.27583L319.9606,336.75589L320.20063,336.75589L320.20063,338.19604L319.9606,338.19604
				L319.9606,339.15614L319.72057,339.15614L319.72057,340.11624L319.48054,340.11624L319.48054,342.03645L319.24051,342.03645L
				319.48054,342.03645L319.48054,342.27647L319.24051,342.27647L319.24051,343.71663L319.48054,343.71663L319.48054,343.95665L
				319.72057,343.95665L319.72057,344.19668L319.9606,344.19668L319.9606,344.4367L320.20063,344.4367L320.20063,344.67673L320.20063,345.15678
				L320.44067,345.15678L320.44067,345.39681L320.6807,345.39681L320.92073,345.39681L320.92073,346.11688L321.16076,346.11688L
				321.16076,347.07699L321.40079,347.07699L321.40079,347.31701L321.64082,347.31701L321.64082,347.79706L321.88085,347.79706L
				321.88085,348.51714L322.12088,348.51714L322.12088,349.23722L322.12088,349.71727L322.36091,349.71727L322.36091,350.67737L
				322.60094,350.67737L322.60094,351.39745L322.84097,351.39745L322.84097,351.8775L323.081,351.8775L323.081,352.8376L323.32103,352.8376
				L323.32103,353.31765L323.56106,353.31765L323.56106,354.03773L323.80109,354.03773L323.80109,354.51778L323.80109,355.23785
				L324.04112,355.23785L324.04112,391.00167L323.80109,391.00167L323.80109,393.64195L323.80109,395.32213L323.80109,396.28223
				L324.04112,396.28223L324.04112,411.40384L324.28115,411.40384L324.28115,411.64387L324.52118,411.64387L324.52118,412.12392
				L325.00124,412.12392L325.00124,412.36394L325.24127,412.36394L325.24127,412.60397L325.48131,412.60397L325.48131,412.84399
				L325.48131,413.08402L325.72134,413.08402L325.96137,413.08402L325.96137,413.32404L326.2014,413.32404L326.2014,413.56407L326.68146,413.56407
				L326.68146,413.8041L326.92149,413.8041L326.92149,414.04412L327.16152,414.04412L327.16152,414.28415L327.16152,414.52417L327.40155,414.52417
				L327.40155,414.7642L327.64158,414.7642L327.64158,415.00422L327.88161,415.00422L328.36167,415.00422L328.36167,415.24425L328.6017,415.24425
				L328.6017,415.48427L328.84173,415.48427L328.84173,415.7243L328.84173,415.96433L329.08176,415.96433L329.08176,416.20435L329.32179,416.20435
				L329.32179,416.44438L329.80185,416.44438L329.80185,416.6844L330.04188,416.6844L330.28191,416.6844L330.28191,416.92443L330.52194,416.92443
				L330.52194,417.16445L330.76198,417.16445L330.76198,417.40448L330.76198,417.64451L331.00201,417.64451L331.00201,417.88453
				L331.24204,417.88453L331.24204,418.12456L331.7221,418.12456L331.7221,418.36458L331.96213,418.36458L331.96213,418.60461L332.44219,418.60461
				L332.44219,418.84463L332.44219,419.08466L332.68222,419.08466L332.68222,419.32468L332.92225,419.32468L332.92225,419.56471
				L333.16228,419.56471L333.16228,419.80474L333.40231,419.80474L333.40231,420.04476L333.64234,420.04476L333.88237,420.04476
				L333.88237,420.28479L334.1224,420.28479L334.1224,420.76484L334.36243,420.76484L334.36243,421.00486L334.60246,421.00486L334.60246,421.24489
				L334.84249,421.24489L334.84249,421.48491L335.32255,421.48491L335.32255,421.72494L335.56258,421.72494L335.56258,421.96497
				L335.80261,421.96497L335.80261,422.20499L336.04265,422.20499L336.04265,422.44502L336.28268,422.44502L336.28268,422.68504
				L336.52271,422.68504L336.52271,422.92507L336.76274,422.92507L336.76274,423.16509L337.00277,423.16509L337.00277,423.40512
				L337.2428,423.40512L337.2428,423.64514L337.48283,423.64514L337.72286,423.64514L337.72286,423.88517L337.72286,424.1252L337.96289,424.1252
				L337.96289,424.36522L338.20292,424.36522L338.20292,424.60525L338.68298,424.60525L338.68298,425.0853L338.92301,425.0853L338.92301,425.32532
				L339.40307,425.32532L339.40307,425.80537L339.88313,425.80537L339.88313,426.0454L340.12316,426.0454L340.12316,426.28543L340.36319,426.28543
				L340.36319,426.52545L340.60322,426.52545L340.60322,426.76548L340.84325,426.76548L340.84325,427.0055L341.08328,427.0055L341.08328,427.24553
				L341.32332,427.24553L341.32332,427.48555L341.56335,427.48555L341.56335,427.72558L341.80338,427.72558L341.80338,427.9656L
				342.04341,427.9656L342.04341,428.20563L342.28344,428.20563L342.28344,428.44566L342.52347,428.44566L342.52347,428.68568L342.7635,428.68568
				L342.7635,428.92571L343.24356,428.92571L343.24356,429.16573L343.48359,429.16573L343.48359,429.64578L343.96365,429.64578L
				343.96365,429.88581L344.20368,429.88581L344.20368,430.12584L344.44371,430.12584L344.44371,430.36586L344.68374,430.36586L
				344.68374,430.60589L344.92377,430.60589L344.92377,430.84591L345.1638,430.84591L345.1638,431.08594L345.40383,431.08594L345.40383,431.32596
				L345.64386,431.32596L345.64386,431.56599L345.88389,431.56599L345.88389,431.80601L346.12392,431.80601L346.12392,432.04604
				L346.36396,432.04604L346.36396,432.28607L346.60399,432.28607L346.60399,432.52609L346.84402,432.52609L346.84402,432.76612
				L347.08405,432.76612L347.08405,433.00614L347.32408,433.00614L347.32408,433.24617L347.56411,433.24617L347.56411,433.48619
				L347.80414,433.48619L347.80414,433.72622L348.04417,433.72622L348.04417,433.96624L348.2842,433.96624L348.2842,434.20627L348.52423,434.20627
				L348.52423,434.4463L348.76426,434.4463L348.76426,434.68632L349.00429,434.68632L349.00429,434.92635L349.24432,434.92635L349.24432,435.16637
				L349.48435,435.16637L349.48435,435.4064L349.72438,435.4064L349.72438,435.64642L349.72438,435.88645L349.96441,435.88645L349.96441,436.12647
				L350.20444,436.12647L350.20444,436.3665L350.44447,436.3665L350.44447,436.84655L350.6845,436.84655L350.6845,437.08658L350.92453,437.08658
				L350.92453,437.3266L351.16456,437.3266L351.16456,437.56663L351.40459,437.56663L351.40459,437.80665L351.64463,437.80665L351.64463,438.04668
				L351.64463,438.2867L351.88466,438.2867L351.88466,438.52673L352.12469,438.52673L352.12469,438.76676L352.36472,438.76676L352.36472,439.24681
				L352.60475,439.24681L352.84478,439.24681L352.84478,439.48683L353.08481,439.48683L353.08481,439.72686L353.32484,439.72686
				L353.32484,440.20691L353.32484,440.44693L353.56487,440.44693L353.56487,440.68696L353.8049,440.68696L353.8049,440.92699L354.04493,440.92699
				L354.04493,441.16701L354.28496,441.16701L354.28496,441.40704L354.52499,441.40704L354.52499,441.88709L354.76502,441.88709
				L354.76502,442.12711L355.00505,442.12711L355.00505,442.60717L355.24508,442.60717L355.24508,443.08722L355.48511,443.08722
				L355.48511,443.32724L355.72514,443.32724L355.72514,443.80729L355.96517,443.80729L355.96517,444.28734L356.2052,444.28734L
				356.2052,444.52737L356.44523,444.52737L356.44523,445.00742L356.68526,445.00742L356.68526,445.48747L356.68526,445.96752L356.9253,445.96752
				L356.9253,446.20755L357.16533,446.20755L357.16533,446.6876L357.40536,446.6876L357.40536,447.16765L357.64539,447.16765L357.64539,447.6477
				L357.88542,447.6477L357.88542,447.88773L358.12545,447.88773L358.12545,448.36778L358.36548,448.36778L358.36548,448.84783L
				358.36548,449.08786L358.60551,449.08786L358.60551,449.56791L358.84554,449.56791L358.84554,449.80793L359.08557,449.80793L
				359.08557,450.28798L359.3256,450.28798L359.3256,450.76803L359.56563,450.76803L359.56563,451.00806L359.80566,451.00806L359.80566,451.48811
				L360.04569,451.48811L360.04569,451.72814L360.28572,451.72814L360.28572,452.20819L360.28572,452.68824L360.52575,452.68824
				"/>
			<path clip-path="url(#SVG_CP_2)" fill="none" stroke="#999999" stroke-width="0.96012" stroke-miterlimit="10" stroke-linecap="round" stroke-linejoin="round" d="
				M360.52575,452.68824L360.52575,453.16829L360.76578,453.16829L360.76578,453.64834L361.00581,453.64834L361.00581,454.12839
				L361.24584,454.12839L361.24584,457.9688L361.00581,457.9688L361.00581,458.44885L360.76578,458.44885L360.76578,459.88901L360.52575,459.88901
				L360.52575,460.36906L360.28572,460.36906L360.28572,461.08913L360.28572,462.76931L360.04569,462.76931L360.04569,464.92954
				L359.80566,464.92954L359.80566,465.64962L359.56563,465.64962L359.56563,466.3697L359.3256,466.3697L359.3256,470.45013L359.56563,470.45013
				L359.56563,471.89029L359.80566,471.89029L359.80566,472.85039L360.04569,472.85039L360.04569,474.05052L360.28572,474.05052
				L360.28572,474.53057L360.28572,475.25064L360.52575,475.25064L360.52575,477.6509L360.76578,477.6509L360.76578,487.972L360.52575,487.972
				L360.52575,488.9321L360.28572,488.9321L360.28572,490.37225L360.28572,491.33236L360.04569,491.33236L360.04569,493.01254L359.80566,493.01254
				L359.80566,495.41279L359.56563,495.41279L359.56563,497.333L359.3256,497.333L359.3256,499.2532L359.08557,499.2532L359.08557,502.61356
				L359.3256,502.61356L359.3256,505.25384L359.56563,505.25384L359.56563,506.21394L359.80566,506.21394L359.80566,506.93402L360.04569,506.93402
				L360.04569,507.89412L360.28572,507.89412L360.28572,508.37417L360.04569,508.37417L360.04569,509.33428L359.80566,509.33428
				L359.80566,510.5344L359.56563,510.5344L359.56563,511.01445L359.3256,511.01445L359.3256,511.49451L359.08557,511.49451L359.08557,512.21458
				L358.84554,512.21458L358.84554,512.69463L358.60551,512.69463L358.60551,513.17468L358.36548,513.17468L358.36548,513.89476
				L358.36548,514.13479L358.12545,514.13479L358.12545,514.61484L357.88542,514.61484L357.88542,515.09489L357.64539,515.09489
				L357.64539,515.57494L357.40536,515.57494L357.40536,516.05499L357.16533,516.05499L357.16533,516.53504L356.9253,516.53504L
				356.9253,517.01509L356.68526,517.01509L356.68526,517.49515L356.68526,517.73517L356.44523,517.73517L356.44523,520.8555L356.2052,520.8555
				L356.2052,521.81561L355.96517,521.81561L355.96517,521.57558L355.72514,521.57558L355.72514,520.8555L355.48511,520.8555L355.48511,520.37545
				L355.24508,520.37545L355.24508,519.65538L355.00505,519.65538L355.00505,519.17532L355.00505,518.45525L354.76502,518.45525
				L354.76502,517.73517L354.52499,517.73517L354.52499,517.25512L354.28496,517.25512L354.28496,516.53504L354.04493,516.53504
				L354.04493,515.57494L353.8049,515.57494L353.8049,515.09489L353.56487,515.09489L353.56487,514.61484L352.84478,514.61484L352.84478,514.85486
				L351.88466,514.85486L351.88466,515.09489L351.16456,515.09489L351.16456,515.33492L350.20444,515.33492L350.20444,515.57494
				L349.72438,515.57494L348.76426,515.57494L348.76426,515.81497L348.04417,515.81497L348.04417,516.05499L347.80414,516.05499
				L347.80414,516.53504L348.04417,516.53504L348.04417,517.49515L348.04417,518.21522L348.2842,518.21522L348.2842,519.17532L348.52423,519.17532
				L348.52423,519.65538L348.76426,519.65538L348.76426,519.8954L348.2842,519.8954L348.2842,520.13543L347.32408,520.13543L347.32408,520.37545
				L346.36396,520.37545L346.36396,520.61548L345.64386,520.61548L345.64386,520.8555L344.68374,520.8555L343.96365,520.8555L343.96365,521.09553
				L342.7635,521.09553L342.7635,521.33555L342.04341,521.33555L342.04341,521.57558L341.08328,521.57558L341.08328,521.81561L340.36319,521.81561
				L340.36319,522.05563L339.40307,522.05563L339.40307,522.29566L338.44295,522.29566L338.44295,522.53568L337.72286,522.53568
				L336.76274,522.53568L336.76274,522.77571L336.52271,522.77571L336.52271,523.49578L336.76274,523.49578L336.76274,524.45589
				L336.04265,524.45589L336.04265,524.69591L335.08252,524.69591L335.08252,524.93594L334.1224,524.93594L334.1224,525.17596L333.16228,525.17596
				L333.16228,525.41599L332.20216,525.41599L332.20216,525.65601L331.00201,525.65601L331.00201,525.89604L330.04188,525.89604
				L330.04188,526.13607L329.80185,526.13607L329.80185,526.37609L329.56182,526.37609L329.56182,526.61612L329.32179,526.61612
				L329.32179,527.09617L329.08176,527.09617L329.08176,527.57622L328.84173,527.57622L328.84173,527.81625L328.84173,528.05627
				L328.6017,528.05627L328.6017,528.53632L328.36167,528.53632L328.36167,529.01637L328.12164,529.01637L328.12164,529.49642L327.88161,529.49642
				L327.64158,529.49642L327.64158,529.97648L327.40155,529.97648L327.40155,530.45653L327.16152,530.45653L327.16152,530.93658
				L327.16152,531.1766L326.92149,531.1766L326.92149,531.41663L326.68146,531.41663L326.68146,531.89668L326.44143,531.89668L326.44143,532.13671
				L326.2014,532.13671L326.2014,532.61676L325.96137,532.61676L325.96137,533.09681L325.72134,533.09681L325.72134,533.33683L325.24127,533.33683
				L325.24127,533.09681L325.00124,533.09681L324.76121,533.09681L324.76121,532.85678L324.52118,532.85678L324.52118,532.61676
				L324.28115,532.61676L324.28115,532.37673L324.04112,532.37673L324.04112,532.13671L323.80109,532.13671L323.80109,534.29694
				L323.56106,534.29694L323.56106,534.05691L322.84097,534.05691L322.84097,533.81688L322.36091,533.81688L322.36091,533.57686
				L321.88085,533.57686L321.88085,533.33683L321.40079,533.33683L321.40079,533.09681L320.6807,533.09681L320.20063,533.09681L
				320.20063,532.85678L319.72057,532.85678L319.72057,532.61676L319.24051,532.61676L319.24051,532.37673L318.52042,532.37673L
				318.52042,532.13671L318.28039,532.13671L318.28039,531.89668L317.5603,531.89668L317.5603,531.65665L317.08024,531.65665L317.08024,531.41663
				L316.60018,531.41663L316.60018,531.1766L316.12012,531.1766L315.40003,531.1766L315.40003,530.93658L315.16,530.93658L315.16,530.69655
				L314.4399,530.69655L314.4399,530.45653L313.95984,530.45653L313.95984,530.2165L313.23975,530.2165L313.23975,529.97648L312.99972,529.97648
				L312.99972,529.73645L312.27963,529.73645L312.27963,529.49642L311.79957,529.49642L311.31951,529.49642L311.31951,529.2564L
				310.83945,529.2564L310.83945,529.01637L310.11936,529.01637L310.11936,528.77635L309.87933,528.77635L309.87933,528.53632L309.15923,528.53632
				L309.15923,528.2963L308.67917,528.2963L308.67917,528.05627L308.19911,528.05627L308.19911,527.81625L307.71905,527.81625L306.99896,527.81625
				L306.99896,527.57622L306.27887,527.57622L306.27887,527.33619L306.03884,527.33619L306.03884,527.09617L305.31875,527.09617
				L305.31875,526.85614L304.83869,526.85614L304.83869,526.61612L304.35862,526.61612L304.35862,526.37609L303.87856,526.37609
				L303.87856,526.13607L303.15847,526.13607L302.91844,526.13607L302.91844,525.89604L302.19835,525.89604L302.19835,525.65601
				L301.71829,525.65601L301.71829,525.41599L301.23823,525.41599L301.23823,525.17596L300.75817,525.17596L300.75817,524.93594
				L300.03808,524.93594L300.03808,524.69591L299.55802,524.69591L299.55802,524.45589L299.31798,524.45589L299.31798,525.89604
				L299.31798,527.33619L299.55802,527.33619L299.55802,528.77635L299.79805,528.77635L299.79805,530.2165L300.03808,530.2165L300.03808,531.89668
				L300.27811,531.89668L300.27811,532.13671L298.83792,532.13671L298.83792,531.89668L298.59789,531.89668L298.59789,532.13671
				L297.15771,532.13671L297.15771,532.37673L295.95756,532.37673L295.95756,532.61676L295.71753,532.61676L295.71753,532.37673
				L295.4775,532.37673L295.4775,531.41663L295.23747,531.41663L295.23747,530.93658L294.99744,530.93658L294.99744,529.97648L294.75741,529.97648
				L294.75741,529.2564L294.51738,529.2564L294.51738,528.2963L294.27735,528.2963L294.27735,527.57622L294.27735,526.61612L294.03731,526.61612
				L294.03731,525.89604L293.79728,525.89604L293.79728,524.93594L293.55725,524.93594L293.55725,524.21586L293.31722,524.21586
				L293.31722,523.25576L293.07719,523.25576L293.07719,522.53568L292.83716,522.53568L292.83716,521.81561L292.59713,521.81561
				L292.59713,520.8555L292.59713,520.13543L292.3571,520.13543L292.3571,519.17532L292.11707,519.17532L292.11707,518.45525L291.87704,518.45525
				L291.87704,517.49515L291.63701,517.49515L291.63701,516.77507L291.39698,516.77507L291.39698,515.81497L291.15695,515.81497
				L291.15695,515.09489L290.91692,515.09489L290.91692,514.13479L290.67689,514.13479L290.67689,513.41471L290.67689,512.45461
				L290.43686,512.45461L290.43686,511.97456L290.19683,511.97456L290.19683,511.01445L289.9568,511.01445L289.9568,510.29438L289.71677,510.29438
				L289.71677,510.5344L288.99668,510.5344L288.51661,510.5344L288.51661,510.77443L287.79652,510.77443L287.79652,511.01445L287.31646,511.01445
				L287.31646,511.25448L286.8364,511.25448L286.8364,511.49451L286.11631,511.49451L286.11631,511.73453L285.63625,511.73453L285.63625,511.97456
				L284.91616,511.97456L284.91616,512.21458L284.4361,512.21458L283.716,512.21458L283.716,512.45461L283.23594,512.45461L283.23594,512.69463
				L282.51585,512.69463L282.51585,512.93466L282.03579,512.93466L282.03579,513.17468L281.3157,513.17468L281.3157,513.41471L280.83564,513.41471
				L280.83564,513.65474L280.35558,513.65474L280.35558,513.89476L279.63549,513.89476L278.9154,513.89476L278.9154,514.13479L278.43533,514.13479
				L278.43533,514.37481L277.95527,514.37481L277.95527,514.61484L277.23518,514.61484L277.23518,514.85486L276.75512,514.85486
				L276.75512,515.09489L276.03503,515.09489L276.03503,515.33492L275.31494,515.33492L275.31494,515.57494L275.07491,515.57494
				L274.35482,515.57494L274.35482,515.81497L273.63473,515.81497L273.63473,516.05499L273.15466,516.05499L273.15466,516.29502
				L272.43457,516.29502L272.43457,516.53504L271.95451,516.53504L271.95451,516.77507L271.47445,516.77507L271.47445,517.01509
				L270.75436,517.01509L270.75436,517.25512L270.03427,517.25512L270.03427,517.49515L269.55421,517.49515L269.07415,517.49515
				L269.07415,517.73517L268.35406,517.73517L268.35406,517.9752L267.87399,517.9752L267.87399,518.21522L267.1539,518.21522L267.1539,518.45525
				L266.43381,518.45525L266.43381,518.69527L265.95375,518.69527L265.95375,518.9353L265.47369,518.9353L265.47369,519.17532L264.7536,519.17532
				L264.27354,519.17532L264.27354,519.41535L263.55345,519.41535L263.55345,519.65538L263.07339,519.65538L263.07339,519.8954L
				262.59332,519.8954L262.59332,520.13543L261.87323,520.13543L261.87323,520.37545L261.15314,520.37545L261.15314,520.61548L260.67308,520.61548
				L260.67308,520.8555L259.95299,520.8555L259.95299,520.61548L259.71296,520.61548L259.71296,519.65538L259.47293,519.65538L259.47293,518.69527
				L259.47293,517.73517L259.2329,517.73517L259.2329,517.01509L258.99287,517.01509L258.99287,516.05499L258.75284,516.05499L258.75284,515.33492
				L258.51281,515.33492L258.51281,514.37481L258.27278,514.37481L258.27278,513.41471L258.03275,513.41471L258.03275,512.45461
				L257.79272,512.45461L257.79272,511.73453L257.79272,510.77443L257.55268,510.77443L257.55268,510.05435L257.31265,510.05435
				L257.31265,509.09425L257.07262,509.09425L257.07262,508.13415L256.83259,508.13415L256.83259,507.17405L256.59256,507.17405
				L256.59256,506.45397L256.35253,506.45397L256.35253,505.49387L256.1125,505.49387L256.1125,504.77379"/>
		</g>
</g></svg>