<?xml version="1.0" encoding="utf-8" standalone="no"?>
<!-- Creator: ESRI ArcMap 10.0.0.2414 -->
<!DOCTYPE svg PUBLIC "-//W3C//DTD SVG 1.1//EN"  "http://www.w3.org/Graphics/SVG/1.1/DTD/svg11.dtd">
<svg width="524.0420768pt" height="436.527518632pt" viewBox="32.15712744 202.865375684 524.0420768 436.527518632" enable-background="new 32.15712744 202.865375684 524.0420768 436.527518632"
	version="1.1" xmlns="http://www.w3.org/2000/svg" xmlns:xlink="http://www.w3.org/1999/xlink" >
	<g id="Couches">
		<g id="reservoirs">
			<path clip-path="url(#SVG_CP_2)" fill-opacity="0.2" fill="#07866D" fill-rule="evenodd" stroke="none" stroke-width="" stra="1.44018" stroke-miterlimit="10" stroke-linecap="round" stroke-linejoin="round" d="
				M284.67613,455.56855L286.59637,456.0486L288.51661,455.80857L293.79728,456.0486L294.27735,456.28862L294.51738,456.52865L295.95756,458.20883
				L293.79728,468.52993L290.19683,480.29118L289.47674,482.93146L289.23671,486.77187L288.99668,488.69208L288.51661,493.25256
				L288.03655,500.69335L287.31646,508.85422L287.55649,513.65474L288.03655,516.05499L287.31646,517.49515L283.47597,520.8555L
				282.27582,535.49706L283.23594,544.85806L281.3157,552.05883L282.27582,559.49962L280.11555,564.06011L279.63549,569.34067L287.79652,592.38313
				L292.83716,589.74284L298.83792,607.98479L301.23823,613.02533L305.07872,621.90627L297.39774,629.58709L288.75664,606.30461
				L271.95451,556.61931L272.6746,548.69847L234.26973,562.37993L227.06882,565.74029L226.82879,565.50026L226.58876,565.50026L
				226.58876,565.98031L225.86866,565.98031L225.62863,565.98031L222.50824,559.73965L218.90778,553.73901L210.74674,556.13926L
				208.58647,556.85934L206.4262,557.57942L204.74598,558.05947L204.50595,557.09937L204.98601,556.85934L204.98601,556.61931L204.02589,553.01893
				L203.54583,553.25896L196.10489,554.93914L195.86486,553.73901L181.94309,557.09937L177.86257,558.05947L169.22148,560.2197L
				168.98144,559.97967L168.98144,559.73965L168.98144,559.01957L167.0612,548.69847L166.34111,545.09809L165.38099,542.45781L158.66013,542.45781
				L153.85953,542.69783L150.01904,544.37801L144.49834,546.53824L142.81812,546.05819L139.93776,547.25832L138.01752,549.17852
				L135.13715,551.09873L130.09651,554.93914L127.21614,557.09937L123.37566,559.01957L119.7752,562.37993L111.1341,566.70039L104.17322,570.06075
				L102.01295,565.50026L97.21234,567.90052L90.97155,568.86062L87.61112,566.94041L85.21081,568.38057L83.5306,568.62059L80.17017,569.82072
				L77.28981,569.10064L74.8895,566.46036L73.20929,564.54016L71.52908,561.41983L70.32893,559.49962L68.64871,559.2596L63.12801,562.37993
				L59.04749,564.54016L55.44704,565.50026L53.76682,565.74029L50.4064,563.82008L48.48615,561.65985L46.56591,558.29949L47.04597,557.33939
				L49.44628,557.09937L52.56667,557.57942L54.24688,557.09937L55.9271,555.89924L56.40716,554.93914L56.64719,553.73901L57.60731,552.53888
				L58.56743,552.29885L59.76759,552.05883L61.92786,552.05883L65.28829,550.61867L67.44856,548.69847L69.84886,546.53824L71.04902,544.37801
				L70.56896,542.21778L63.8481,528.05627L64.32816,527.81625L64.08813,527.57622L64.32816,527.33619L64.08813,526.85614L65.52832,525.65601
				L75.36957,532.61676L76.32969,536.69719L79.93014,539.33747L81.1303,535.73709L80.89027,533.33683L86.17094,527.57622L88.33121,525.65601
				L90.49148,523.73581L89.53136,522.53568L86.651,521.33555L85.21081,520.13543L85.21081,517.73517L88.57124,514.13479L90.73151,511.73453
				L95.77215,500.93338L97.21234,497.81305L99.61264,498.2931L98.65252,500.93338L104.89331,503.81369L110.89407,506.45397L114.97459,507.89412
				L114.73456,510.05435L114.49453,512.69463L114.49453,514.37481L117.13487,514.37481L130.09651,512.45461L136.57733,511.97456
				L139.93776,521.09553L150.4991,525.41599L153.13943,526.37609L156.25983,524.69591L156.25983,524.45589L156.0198,515.57494L156.0198,515.09489
				L155.77977,511.01445L164.90093,503.09361L167.30123,501.89348L171.62178,500.2133L174.50215,500.2133L176.90245,500.45333L179.06272,501.41343
				L180.74294,502.61356L182.66318,504.29374L184.10336,506.21394L188.18388,504.77379L189.86409,504.29374L191.54431,503.57366
				L192.50443,501.89348L194.18464,500.93338L194.42467,500.93338L194.90473,500.69335L198.50519,500.2133L201.38556,499.97328L
				203.06577,499.01318L208.10641,496.13287L211.46684,494.21266L222.9883,486.77187L225.14857,483.41151L224.66851,481.73133L223.94842,478.37098
				L218.66775,472.37034L225.3886,470.21011L237.63016,466.84975L242.19074,467.56983L241.9507,468.76995L242.91083,469.97008L246.03122,470.69016
				L248.1915,468.76995L248.67156,464.20947L248.1915,463.48939L249.87171,462.52929L251.07186,462.28926L252.99211,461.80921L255.15238,461.08913
				L259.47293,460.12903L265.95375,459.16893L279.39546,456.52865L282.99591,455.56855L284.67613,455.56855z"/>
			<path clip-path="url(#SVG_CP_2)" fill-opacity="0.2" fill="#07866D" fill-rule="evenodd" stroke="none" stroke-width="" stra="1.44018" stroke-miterlimit="10" stroke-linecap="round" stroke-linejoin="round" d="
				M432.77492,212.90269L434.69516,213.62276L436.13535,212.90269L443.57629,219.14335L446.45666,221.54361L451.25727,224.90397
				L452.69745,227.30422L455.81785,230.42455L461.09852,235.46509L462.5387,233.78491L464.45894,233.78491L464.69897,233.78491L
				466.37919,235.22507L470.69973,238.3454L473.34007,240.74565L480.54098,249.14655L487.26184,257.30742L490.1422,261.14783L493.74266,266.18837
				L499.50339,275.54936L506.22424,286.59054L510.54479,294.99144L515.82546,304.83248L520.14601,308.19284L522.30628,310.11305
				L522.78634,311.07315L524.46656,314.43351L525.90674,322.11433L528.06701,327.63491L530.70735,331.2353L532.38756,338.43606L
				547.26945,372.75972L549.18969,377.08018L541.26869,376.84016L535.0279,374.4399L525.90674,373.4798L519.66595,370.11944L516.54555,358.11816
				L504.54403,352.59757L499.74342,350.91739L498.54327,350.43734L493.2626,350.43734L489.66214,350.91739L487.7419,351.63747L480.78101,357.39809
				L472.86001,362.1986L461.09852,368.91931L460.85848,368.91931L457.97812,370.35947L443.09623,376.84016L432.29486,379.48044L
				433.73504,376.12008L433.73504,375.88005L431.8148,370.35947L427.97431,368.43926L426.2941,367.71918L431.09471,357.39809L429.89456,358.59821
				L422.45361,355.47788L419.33322,359.07826L418.37309,360.75844L411.17218,372.99975L408.05178,368.43926L407.33169,366.99911
				L401.81099,366.27903L396.05026,367.47916L388.60932,326.67481L391.96974,325.71471L391.96974,322.35435L396.77035,321.63427
				L395.81023,317.79386L397.25041,317.79386L397.25041,316.11369L389.32941,318.03389L389.08938,316.83376L386.44904,316.83376
				L380.44828,291.39105L389.80947,298.11177L388.12926,299.79195L393.40993,303.63236L389.32941,307.47277L390.28953,309.15294
				L395.33017,309.39297L399.65072,304.11241L401.33093,304.35243L402.77111,304.35243L413.09242,305.31253L416.21282,306.27264
				L418.85315,307.95282L419.81328,308.43287L420.05331,308.43287L421.49349,309.87302L422.93367,310.83312L424.37385,312.03325
				L434.45513,318.75397L438.29562,321.15422L438.53565,321.39425L443.33626,324.51458L447.89684,327.15486L447.89684,327.39489
				L450.53717,329.07507L450.77721,330.03517L472.13992,342.03645L477.18056,344.19668L480.30095,344.19668L482.46123,343.4766L
				489.42211,340.59629L500.70354,335.79578L504.304,337.71599L506.46427,337.71599L508.38452,340.11624L510.54479,340.83632L517.02561,342.27647
				L521.10613,338.91612L518.70583,331.71535L520.8661,327.63491L522.54631,329.07507L521.82622,327.87494L519.42592,324.27456L
				514.38528,323.07443L512.70506,319.23402L512.94509,315.87366L512.70506,313.23338L511.98497,311.79323L491.58238,285.39041L
				482.94129,292.35115L481.26107,293.31126L480.06092,293.55128L478.38071,293.55128L478.86077,292.35115L480.78101,286.83057L
				484.14144,279.38977L487.26184,280.5899L495.42287,280.10985L493.74266,273.14911L491.10232,269.3087L484.86153,261.38785L480.06092,256.34732
				L478.14068,253.70704L474.30019,256.82737L476.22043,259.22762L473.34007,261.62788L463.97888,251.30678L459.4183,246.26624L
				457.018,248.42647L456.05788,247.7064L452.45742,244.82609L454.37766,242.42583L456.29791,240.2656L458.45818,238.10537L457.018,236.42519
				L450.77721,231.86471L444.77644,240.50563L429.65452,236.90525L416.69288,234.26496L429.65452,216.7431L432.77492,212.90269z
				"/>
		</g>
</g></svg>