<?xml version="1.0" encoding="utf-8" standalone="no"?>
<!-- Creator: ESRI ArcMap 10.0.0.2414 -->
<!DOCTYPE svg PUBLIC "-//W3C//DTD SVG 1.1//EN"  "http://www.w3.org/Graphics/SVG/1.1/DTD/svg11.dtd">
<svg width="524.0420768pt" height="529.243576665pt" viewBox="32.15712744 156.507346667 524.0420768 529.243576665" enable-background="new 32.15712744 156.507346667 524.0420768 529.243576665"
	version="1.1" xmlns="http://www.w3.org/2000/svg" xmlns:xlink="http://www.w3.org/1999/xlink" >
	<g id="Couches">
		<g id="reservoirs">
			<clipPath id="SVG_CP_2">
				<path d="M574.39289,21.36228L21.36271,21.36228L21.36271,821.36753L574.39289,821.36753L574.39289,21.36228z"/>
			</clipPath>
			<path clip-path="url(#SVG_CP_2)" fill-opacity="0.2" fill="#2f4493" fill-rule="evenodd" stroke="#2f4493" stroke-width="1" stra="1.44018" stroke-miterlimit="10" stroke-linecap="round" stroke-linejoin="round" d="
				M410.45209,627.42686L410.45209,627.66689L411.17218,627.42686L411.41221,627.90691L411.65224,628.38696L411.65224,628.86701
				L411.89227,629.58709L411.89227,630.06714L413.09242,631.02724L413.81251,631.50729L414.29258,631.50729L415.01267,631.50729
				L415.49273,631.74732L416.21282,631.98735L416.69288,632.4674L417.17294,633.18747L417.41297,633.18747L417.89303,633.18747L
				418.37309,633.18747L419.09318,633.18747L419.81328,633.4275L420.05331,633.66752L420.29334,633.66752L419.81328,634.3876L418.85315,635.82775
				L418.61312,636.30781L418.61312,637.02788L418.61312,637.50793L419.09318,638.46804L419.33322,639.42814L419.57325,640.38824
				L419.57325,641.10832L419.33322,641.58837L418.85315,642.30845L418.61312,642.7885L417.653,643.7486L416.69288,644.94873L416.45285,645.42878
				L416.21282,646.14885L416.21282,647.10896L416.21282,647.58901L415.73276,649.02916L415.49273,649.50921L415.2527,649.74924L
				415.01267,649.98926L414.29258,650.46932L413.09242,650.94937L412.61236,651.42942L412.85239,651.66944L413.09242,652.38952L
				413.57248,653.34962L415.01267,653.82967L415.49273,656.46995L415.2527,656.46995L413.81251,655.0298L413.81251,655.50985L412.85239,656.46995
				L412.61236,656.95001L413.09242,657.67008L414.05254,659.11024L414.77264,659.11024L416.45285,661.27047L416.69288,661.75052
				L417.17294,662.47059L416.93291,662.95065L416.21282,663.19067L415.73276,663.4307L415.01267,663.67072L413.81251,663.91075L
				412.61236,664.15077L411.41221,664.3908L410.21206,664.63082L409.25194,665.3509L406.37157,667.51113L404.2113,668.95128L403.73124,669.43134
				L403.01114,669.67136L402.29105,669.91139L398.45057,670.63146L391.48968,671.83159L391.00962,672.07162L389.80947,672.55167
				L388.84935,673.27174L387.64919,673.27174L385.96898,673.99182L385.24889,673.03172L383.56868,672.07162L383.32865,668.23121
				L382.84859,663.67072L382.60855,660.07034L382.36852,656.95001L385.48892,653.34962L385.96898,652.86957L387.40916,651.18939
				L391.48968,646.62891L397.25041,640.14822L401.0909,635.82775L405.65148,630.78722L409.25194,626.94681L410.45209,627.42686z
				"/>
			<path clip-path="url(#SVG_CP_2)" fill-opacity="0.2" fill="#2f4493" fill-rule="evenodd" stroke="none" d="M68.64871,201.14143L69.3688,201.14143
				L69.3688,200.90141L74.40944,201.62149L74.64947,201.62149L76.56972,202.10154L75.6096,207.86215L73.20929,211.46253L76.80975,213.38274
				L76.80975,213.62276L72.96926,226.10409L73.68935,226.34412L73.20929,228.26432L72.24917,228.0243L71.76911,230.18453L74.40944,231.38466
				L73.20929,237.14527L76.32969,237.3853L77.76987,237.86535L80.65024,240.02558L81.1303,240.02558L81.1303,243.14591L84.97078,243.38594
				L89.53136,247.7064L93.13182,249.38658L95.05206,250.10665L100.33273,248.6665L98.41249,254.90716L95.77215,254.66714L98.17246,255.14719
				L98.17246,255.86727L98.65252,255.86727L99.61264,258.9876L98.89255,258.74757L99.13258,259.22762L99.13258,260.42775L83.5306,258.50755
				L83.5306,261.62788L83.5306,262.82801L86.651,262.34796L87.37109,266.18837L89.29133,269.54872L90.97155,270.74885L91.21158,271.46893
				L78.97002,270.50883L78.48996,270.98888L78.0099,270.98888L77.04978,271.94898L74.16941,273.86918L70.56896,275.78939L69.12877,277.70959
				L68.40868,279.38977L68.64871,281.30998L69.12877,282.51011L71.52908,286.59054L72.24917,287.31062L76.32969,286.83057L77.76987,286.59054
				L77.52984,285.87046L77.52984,285.63044L77.76987,285.63044L78.24993,285.63044L78.48996,285.63044L79.21005,286.35051L81.37033,287.79067
				L81.61036,288.03069L81.85039,288.51074L82.33045,288.51074L82.33045,289.9509L82.57048,289.9509L83.5306,289.71087L85.93091,289.23082
				L91.69164,288.03069L93.61188,287.79067L94.33197,288.03069L94.33197,288.27072L94.572,289.23082L94.81203,290.19092L95.53212,291.8711
				L94.572,292.35115L94.81203,292.8312L95.77215,292.35115L96.01218,292.35115L96.25222,292.8312L96.97231,293.79131L94.81203,294.99144
				L95.53212,296.19156L94.81203,296.91164L95.53212,298.11177L96.25222,299.55192L96.01218,300.03197L95.29209,300.75205L96.01218,301.71215
				L95.53212,301.95218L95.05206,302.1922L93.85191,303.63236L92.1717,306.27264L92.89179,306.27264L94.33197,306.75269L94.33197,306.99271
				L94.33197,308.19284L94.33197,309.87302L90.97155,310.35307L91.21158,311.31317L91.93167,312.03325L92.89179,313.23338L94.572,315.15358
				L95.05206,315.63363L95.05206,316.11369L95.29209,316.59374L95.53212,316.83376L95.53212,317.55384L94.572,317.79386L93.37185,318.27392
				L92.1717,319.23402L91.45161,320.19412L94.09194,322.35435L93.61188,323.7945L92.1717,323.7945L91.69164,323.7945L88.09118,323.31445
				L86.651,321.63427L84.49072,319.23402L82.57048,317.07379L81.85039,315.87366L81.85039,316.35371L79.21005,317.31381L79.45008,318.51394
				L80.17017,320.67417L80.4102,320.9142L80.89027,321.15422L81.37033,321.63427L81.61036,322.35435L82.09042,323.07443L82.33045,323.7945
				L82.81051,324.03453L82.81051,324.27456L82.09042,324.51458L82.57048,326.67481L82.33045,326.67481L82.81051,328.11496L84.49072,327.15486
				L85.45084,326.91484L86.17094,326.43479L88.09118,325.95473L88.09118,328.11496L89.77139,328.11496L90.25145,330.03517L91.69164,330.03517
				L91.21158,334.59566L91.45161,335.31573L91.45161,335.55576L91.45161,336.03581L89.53136,340.11624L89.29133,340.35627L89.53136,340.59629
				L89.29133,341.31637L88.57124,341.79642L87.37109,343.23658L86.41097,344.19668L86.41097,344.91676L87.13106,344.91676L87.13106,345.39681
				L87.37109,346.35691L88.33121,347.79706L88.57124,348.27711L88.81127,349.23722L89.77139,350.67737L90.25145,352.11752L90.97155,355.23785
				L90.73151,355.23785L90.73151,355.71791L90.73151,356.19796L90.73151,356.43798L91.45161,358.59821L92.89179,362.1986L93.37185,364.1188
				L93.61188,365.0789L92.89179,365.31893L92.1717,365.31893L92.1717,366.03901L91.69164,366.51906L91.93167,366.99911L91.93167,367.23913
				L91.69164,367.47916L92.65176,367.95921L92.65176,369.39936L91.21158,370.11944L91.69164,371.55959L93.37185,371.31957L93.61188,373.71982
				L95.05206,373.4798L95.05206,374.19988L95.05206,374.4399L94.572,376.60013L95.77215,377.80026L95.29209,379.24041L95.05206,380.68057
				L95.05206,381.40064L94.81203,382.12072L94.81203,383.32085L94.572,384.04092L94.33197,385.7211L94.33197,387.16126L94.33197,387.64131
				L94.33197,387.88133L95.05206,387.64131L96.01218,391.72174L98.17246,391.24169L98.41249,391.72174L99.13258,391.72174L99.37261,391.72174
				L100.0927,391.24169L100.81279,391.24169L101.29285,390.52161L101.77292,390.04156L105.13334,389.08146L105.85343,389.08146L
				107.05359,389.32149L107.53365,389.32149L108.49377,388.60141L111.1341,388.12136L111.61416,388.60141L112.57429,388.60141L113.53441,388.36138
				L114.49453,387.40128L114.97459,389.32149L114.73456,390.04156L113.77444,390.76164L114.2545,392.92187L113.77444,393.40192L
				114.01447,393.88197L119.7752,391.72174L120.49529,392.44182L120.97535,392.44182L121.45541,392.68185L121.93547,393.1619L122.65557,393.88197
				L126.01599,392.44182L130.09651,391.48172L131.05663,390.04156L130.33654,387.64131L138.73761,373.95985L140.89788,370.35947
				L141.37794,369.87942L141.61797,371.07954L141.858,371.79962L146.41858,377.80026L148.57886,380.92059L151.45922,378.28031L151.93928,376.60013
				L146.41858,367.23913L151.93928,364.1188L151.45922,363.39872L151.21919,363.39872L150.73913,361.71855L146.65861,359.07826L
				141.37794,356.19796L141.13791,355.95793L140.65785,354.7578L139.69773,354.27775L138.73761,354.03773L137.77748,354.7578L137.53745,355.71791
				L136.3373,355.23785L134.41706,353.55768L132.97688,351.63747L132.73685,350.67737L129.13639,346.59693L132.25678,346.35691L
				132.01675,344.4367L132.97688,343.71663L132.97688,342.99655L129.85648,341.79642L128.65633,339.87622L128.17627,338.67609L128.17627,337.47596
				L128.4163,336.75589L127.21614,335.55576L126.01599,336.75589L126.01599,337.95601L124.81584,338.19604L126.01599,342.27647L
				127.21614,349.71727L126.49605,350.67737L122.41554,346.59693L122.8956,345.87686L120.49529,343.4766L120.73532,342.75652L121.45541,342.03645
				L120.01523,341.31637L119.53517,341.07635L119.05511,340.59629L117.85496,338.91612L116.41477,336.51586L118.09499,336.03581
				L117.13487,334.1156L115.21462,329.79514L116.89483,329.07507L116.17474,327.63491L117.13487,326.67481L117.13487,323.31445L
				121.45541,321.63427L120.97535,320.19412L123.61569,316.11369L118.57505,312.03325L119.05511,311.31317L121.21538,308.67289L
				128.65633,300.03197L130.57657,298.35179L131.77672,297.15167L133.21691,296.67161L135.37718,295.95154L137.05739,295.71151L
				136.3373,291.15103L133.937,283.47021L131.77672,277.94962L129.85648,272.66906L133.69697,269.78875L133.45694,260.66778L132.73685,256.58734
				L132.25678,253.22698L134.41706,252.02686L140.89788,253.94706L146.89864,258.26752L147.3787,258.74757L149.77901,256.34732L
				148.33883,253.70704L147.85876,250.34668L147.3787,246.74629L147.85876,246.26624L150.01904,244.34604L150.73913,244.10601L152.17931,243.62596
				L153.13943,243.38594L154.09956,243.86599L157.21995,242.66586L158.90017,240.02558L157.70001,235.70512L157.45998,233.06484
				L157.21995,231.14463L157.21995,230.90461L158.66013,228.50435L159.38023,227.78427L160.34035,226.82417L163.46074,224.66394
				L165.38099,224.18389L165.62102,224.18389L169.94157,223.70384L171.38175,223.46381L172.5819,226.10409L173.54202,230.42455L
				174.02208,232.58478L176.90245,238.3454L178.1026,239.54553L178.82269,240.2656L182.66318,242.66586L183.38327,242.90588L186.7437,244.10601
				L188.90397,245.06611L185.06349,253.94706L189.62406,256.82737L195.62483,265.94834L193.22452,267.62852L194.18464,268.3486L
				196.58495,269.3087L198.74522,274.34924L200.1854,276.02941L201.38556,276.74949L200.1854,279.86982L201.86562,281.79003L204.50595,277.22954
				L205.46607,278.42967L206.90626,277.22954L207.62635,278.42967L210.26668,279.86982L209.54659,283.71023L208.8265,287.07059L
				206.66623,290.43095L208.58647,291.8711L214.10717,293.55128L217.70763,295.71151L221.54812,286.83057L222.02818,285.39041L222.26821,283.23018
				L222.50824,283.23018L226.58876,282.27008L227.54888,281.55L230.18921,281.06995L231.38936,281.55L231.38936,282.99016L231.86943,283.95026
				L232.58952,286.35051L234.98982,288.9908L237.87019,287.55064L240.75055,287.79067L241.71067,285.15039L244.35101,286.11049L
				246.75131,287.31062L248.91159,288.27072L249.63168,288.9908L250.11174,289.9509L249.39165,293.07123L249.15162,295.23146L249.87171,299.55192
				L249.87171,301.47213L248.1915,307.71279L247.71144,308.67289L247.71144,309.87302L247.71144,310.83312L248.91159,315.15358L
				249.15162,316.83376L248.1915,316.83376L246.03122,316.59374L244.35101,316.11369L243.63092,315.87366L241.9507,319.71407L242.43077,319.71407
				L243.39089,319.47404L245.55116,319.71407L247.47141,319.9541L249.15162,320.19412L248.91159,332.1954L248.91159,333.39553L248.1915,335.31573
				L247.71144,336.75589L247.23137,337.71599L246.99134,339.87622L247.71144,342.5165L248.1915,345.39681L246.27125,345.87686L244.59104,346.35691
				L243.63092,347.31701L242.91083,348.51714L242.19074,348.75716L240.27049,347.31701L239.07034,346.83696L237.39013,346.35691
				L235.94994,346.11688L234.98982,345.63683L234.26973,343.4766L233.78967,342.5165L232.58952,341.07635L231.14933,340.83632L228.98906,341.07635
				L228.26897,341.07635L227.30885,340.59629L226.82879,340.11624L219.8679,333.1555L215.78738,330.75525L214.3472,329.31509L217.22757,324.99463
				L213.86714,323.31445L214.58723,320.43415L214.10717,317.07379L212.42696,316.11369L210.50671,315.63363L209.30656,315.63363
				L204.74598,318.51394L205.70611,319.9541L201.86562,324.99463L197.7851,323.55448L197.30504,324.75461L195.14476,329.79514L195.86486,331.47532
				L196.34492,332.67545L196.82498,334.59566L199.46531,338.91612L198.50519,340.35627L195.86486,344.67673L194.6647,344.4367L189.62406,343.4766
				L185.54355,350.67737L182.18312,353.55768L182.18312,354.99783L183.6233,358.83824L190.10413,363.63875L188.90397,365.55895L
				186.7437,365.31893L185.78358,365.31893L180.74294,364.35883L179.54278,364.35883L179.30275,364.83888L183.38327,372.5197L189.38403,383.8009
				L186.50367,386.92123L183.14324,383.56087L181.46303,385.24105L179.54278,383.56087L176.18236,383.8009L163.70077,393.40192L
				162.74065,393.88197L158.4201,399.40256L156.49986,403.483L155.77977,407.56343L158.66013,408.04348L159.1402,410.44374L161.5405,415.00422
				L163.22071,414.7642L163.70077,405.4032L166.10108,410.68376L167.54126,414.04412L169.46151,413.32404L170.1816,415.00422L168.02132,415.96433
				L168.26135,418.36458L168.02132,418.84463L168.98144,420.04476L169.70154,420.52481L171.86181,421.72494L172.5819,421.48491L
				172.82193,420.76484L173.06196,420.76484L173.30199,420.04476L176.90245,420.76484L176.90245,421.96497L176.90245,423.16509L
				176.90245,424.60525L178.1026,429.64578L184.82346,431.08594L185.78358,431.08594L186.7437,431.32596L187.94385,431.56599L188.66394,431.32596
				L189.86409,431.32596L191.78434,429.40576L194.18464,427.0055L194.6647,426.28543L193.94461,425.56535L192.50443,424.36522L192.74446,423.88517
				L192.98449,422.92507L192.98449,421.96497L193.46455,422.20499L193.70458,422.20499L193.46455,422.44502L194.90473,422.92507
				L195.3848,421.96497L195.86486,421.96497L196.58495,421.24489L197.06501,421.48491L197.54507,421.24489L198.98525,420.28479L
				200.42544,421.72494L202.34568,419.80474L202.82574,420.28479L203.54583,419.32468L205.46607,417.40448L207.14629,416.20435L
				209.30656,418.36458L214.58723,415.24425L209.54659,411.16381L211.70687,408.76356L213.38708,409.72366L216.74751,407.08338L
				221.06805,410.44374L222.26821,411.64387L224.66851,412.12392L224.42848,410.68376L226.10869,410.20371L226.58876,409.96369L
				227.54888,408.52353L228.02894,407.80346L228.74903,407.80346L229.94918,406.84335L231.38936,407.56343L232.34949,407.80346L
				233.54964,406.12328L234.26973,404.92315L234.50976,404.68312L235.70991,403.483L236.91007,403.00294L237.87019,402.52289L240.75055,400.36266
				L246.75131,400.60269L247.71144,399.64259L250.83183,399.64259L252.03198,399.88261L252.03198,399.64259L252.99211,397.48236
				L253.95223,397.24233L255.39241,397.00231L258.51281,397.00231L260.91311,396.76228L263.07339,396.76228L265.71372,396.52225
				L265.95375,396.52225L269.31418,394.122L270.99439,392.20179L272.6746,390.04156L275.31494,386.20115L275.55497,383.8009L275.31494,379.24041
				L275.07491,376.84016L274.83488,375.88005L273.63473,374.4399L272.19454,373.95985L267.1539,376.36011L265.47369,372.99975L265.71372,371.31957
				L266.19378,370.35947L266.91387,368.43926L264.27354,368.19924L261.87323,366.03901L261.6332,362.91867L261.15314,360.99847L
				260.43305,358.11816L261.6332,357.63811L264.7536,355.95793L267.1539,354.99783L270.03427,354.7578L273.87476,353.7977L275.31494,353.07762
				L275.55497,352.11752L277.47521,350.91739L279.15543,351.15742L284.4361,351.15742L287.07643,351.8775L294.75741,349.47724L297.15771,348.27711
				L298.59789,349.95729L300.03808,352.59757L303.63853,354.51778L300.51814,357.15806L300.51814,357.63811L295.71753,359.07826
				L294.75741,360.75844L295.23747,362.1986L296.67765,366.51906L297.39774,369.87942L297.63777,373.71982L300.27811,373.95985L
				305.79881,372.27967L309.87933,371.07954L311.07948,370.83952L311.31951,371.31957L316.36015,369.63939L317.80033,368.91931L
				318.52042,368.43926L319.9606,370.83952L322.12088,372.27967L322.12088,373.95985L325.00124,380.68057L324.28115,380.68057L324.76121,382.8408
				L322.60094,383.56087L323.32103,386.44118L323.80109,388.60141L325.48131,391.96177L328.36167,391.72174L330.04188,391.48172
				L336.28268,390.28159L343.96365,392.92187L343.72362,395.56215L343.48359,397.24233L343.00353,399.16254L343.00353,401.08274
				L341.56335,401.80282L340.36319,402.04284L340.36319,403.00294L343.48359,403.00294L344.20368,403.483L345.64386,404.4431L346.84402,404.68312
				L349.72438,404.92315L352.60475,405.16318L355.96517,406.60333L358.12545,407.80346L358.84554,408.52353L360.04569,409.96369
				L362.92606,414.04412L363.64615,414.7642L365.32636,417.64451L366.04645,419.32468L364.8463,419.80474L363.64615,420.28479L363.40612,421.24489
				L363.16609,423.40512L362.20597,426.28543L361.00581,428.44566L360.04569,430.12584L357.88542,432.52609L354.04493,435.64642
				L350.92453,437.80665L350.20444,438.2867L344.44371,443.08722L344.68374,443.32724L344.68374,443.56727L337.96289,450.52801L
				337.72286,451.00806L329.08176,461.56919L327.88161,462.52929L327.40155,464.20947L327.40155,464.92954L327.64158,465.16957L
				325.00124,466.60972L324.28115,466.12967L323.32103,464.68952L321.88085,464.68952L320.20063,465.88965L319.00048,467.3298L318.04036,467.80985
				L316.60018,467.80985L316.12012,467.56983L314.4399,469.73006L311.55954,471.41023L310.59942,471.65026L310.35939,472.37034L
				310.35939,472.61036L309.63929,473.81049L309.39926,474.29054L309.15923,474.77059L309.63929,475.49067L308.19911,476.93082L
				307.95908,477.41087L307.47902,477.41087L304.83869,478.85103L303.63853,476.21075L301.95832,476.21075L302.67841,476.93082L
				301.71829,477.89092L300.75817,477.89092L299.55802,476.45077L298.35786,476.93082L298.59789,478.611L295.95756,479.33108L293.79728,479.81113
				L293.55725,479.33108L292.59713,478.85103L289.23671,479.81113L288.51661,480.29118L288.51661,481.01126L289.71677,481.73133
				L289.9568,481.97136L289.47674,483.65154L288.51661,483.89156L287.55649,483.17149L286.59637,483.89156L288.75664,486.05179L
				287.55649,486.77187L287.79652,487.0119L286.8364,487.25192L284.67613,487.73197L284.4361,485.81177L282.51585,486.29182L282.51585,486.05179
				L282.03579,486.05179L281.55573,485.33172L280.59561,485.33172L279.63549,485.81177L279.39546,486.05179L278.9154,486.53185L
				276.99515,488.9321L275.31494,491.33236L275.31494,491.81241L274.35482,492.29246L273.3947,493.25256L272.43457,493.73261L271.71448,494.45269
				L270.75436,494.69272L270.03427,494.93274L269.07415,495.17277L268.35406,495.65282L267.87399,496.13287L266.91387,497.333L267.87399,499.01318
				L268.35406,499.97328L265.47369,501.65346L264.51357,500.69335L264.7536,500.45333L263.79348,498.53312L263.55345,498.77315L
				262.83335,500.2133L262.11326,499.73325L260.19302,501.17341L260.19302,501.65346L259.95299,501.65346L260.91311,504.29374L263.07339,503.09361
				L263.79348,504.05371L262.11326,505.49387L260.67308,506.69399L257.55268,509.09425L256.35253,507.6541L253.95223,508.6142L251.79195,509.81433
				L251.31189,510.77443L248.43153,511.73453L249.39165,512.93466L250.83183,512.45461L250.11174,513.89476L250.83183,514.61484
				L250.5918,515.33492L250.11174,515.57494L250.11174,516.29502L239.5504,522.53568L239.5504,523.25576L239.79043,523.97584L238.83031,523.97584
				L237.87019,524.93594L236.43,526.13607L236.43,526.85614L234.74979,528.05627L237.87019,530.2165L238.83031,530.93658L239.31037,531.41663
				L239.5504,531.41663L240.27049,531.1766L241.47064,530.69655L244.11098,529.97648L245.79119,529.49642L247.95147,528.77635L248.1915,528.77635
				L248.43153,529.2564L252.27201,527.81625L252.03198,527.57622L253.95223,526.37609L254.91235,525.41599L255.15238,525.41599L
				255.63244,525.17596L261.6332,538.85742L262.35329,538.37737L262.83335,539.33747L264.51357,537.89732L265.71372,537.17724L266.43381,536.69719
				L269.07415,535.25704L271.23442,534.29694L272.6746,533.57686L273.3947,533.09681L274.59485,532.85678L275.31494,532.85678L276.03503,532.61676
				L277.23518,535.97711L281.79576,535.01701L282.27582,533.81688L282.27582,535.01701L284.4361,534.77699L285.39622,533.81688L
				287.79652,533.33683L288.75664,533.09681L293.07719,532.13671L293.07719,532.61676L294.03731,532.37673L295.23747,532.61676L
				294.99744,533.33683L295.71753,539.81752L296.43762,539.33747L298.83792,538.13734L298.83792,538.37737L299.55802,537.89732L
				302.43838,535.25704L304.35862,534.77699L304.35862,534.53696L305.31875,533.81688L312.27963,528.77635L315.88009,526.37609L
				318.28039,525.41599L320.44067,524.93594L321.64082,524.69591L322.12088,523.97584L322.60094,523.25576L321.88085,519.8954L322.36091,519.17532
				L323.32103,518.45525L324.28115,517.73517L324.52118,517.9752L325.24127,518.21522L325.48131,520.37545L327.64158,519.8954L330.52194,518.9353
				L331.00201,518.9353L329.32179,514.61484L328.84173,513.41471L334.84249,509.81433L334.84249,508.6142L335.32255,507.41407L343.00353,508.13415
				L349.96441,508.85422L357.40536,508.6142L357.40536,505.01382L358.60551,502.37353L365.08633,503.57366L364.8463,505.73389L367.00657,505.73389
				L368.20673,521.33555L369.88694,521.33555L371.08709,521.33555L371.80718,521.33555L371.56715,513.17468L380.20825,513.17468
				L380.68831,510.5344L379.96822,504.53376L380.44828,503.81369L382.12849,505.49387L386.44904,509.5743L388.84935,509.81433L390.28953,510.05435
				L393.64996,510.29438L397.73047,509.09425L397.9705,506.45397L405.89151,507.89412L411.65224,509.33428L410.93215,510.29438L
				408.29181,513.89476L409.732,516.77507L409.97203,517.01509L411.17218,519.41535L413.33245,524.45589L413.81251,525.41599L414.29258,526.85614
				L419.33322,533.09681L419.57325,533.09681L430.13459,536.45717L432.29486,534.77699L434.2151,534.77699L437.81556,535.01701L
				443.09623,533.33683L445.01647,532.85678L446.69669,532.13671L447.65681,531.89668L450.53717,528.2963L456.77797,525.65601L458.21815,524.93594
				L458.21815,526.13607L458.45818,527.81625L458.69821,529.49642L458.93824,531.89668L458.93824,534.05691L458.93824,536.93722
				L458.93824,539.09745L458.93824,540.05755L458.93824,542.93786L459.65833,542.69783L460.37842,542.69783L460.37842,541.25768
				L460.37842,538.6174L460.13839,536.69719L460.13839,533.81688L460.13839,532.37673L460.13839,529.73645L459.89836,527.33619L
				459.4183,524.69591L461.81861,524.45589L462.5387,524.45589L462.77873,524.69591L463.25879,524.93594L464.69897,523.73581L466.85925,522.29566
				L466.85925,522.05563L471.41983,517.9752L474.54022,513.89476L478.38071,508.37417L480.54098,507.89412L481.74113,508.6142L486.78177,516.05499
				L490.38223,522.77571L492.06244,522.05563L498.30324,529.97648L500.70354,532.61676L504.78406,529.01637L507.90446,523.25576
				L510.30476,524.45589L511.74494,522.05563L518.70583,526.85614L523.9865,530.2165L525.90674,531.41663L527.58695,532.61676L530.22729,533.57686
				L530.46732,533.81688L534.54784,536.45717L537.18817,538.13734L538.62835,538.85742L541.74875,540.77763L541.98878,540.77763
				L542.9489,542.93786L543.90902,545.57814L543.42896,548.21842L542.22881,552.77891L545.82927,560.2197L539.82851,561.41983L541.50872,566.94041
				L542.70887,569.82072L540.30857,571.98095L541.98878,576.54144L541.74875,576.54144L541.98878,577.02149L542.70887,578.70167
				L543.18893,580.8619L543.90902,582.30205L549.18969,591.183L548.4696,591.66305L543.18893,594.30333L540.78863,595.02341L541.26869,596.22353
				L537.90826,598.62379L536.46808,599.82392L536.22805,599.82392L535.0279,600.78402L530.22729,603.90435L525.90674,605.10448L
				517.26564,604.14438L514.86534,613.7454L511.26488,611.8252L503.82394,608.46484L502.38375,608.70486L500.94357,608.70486L496.38299,607.26471
				L493.74266,607.26471L493.02257,608.46484L489.66214,615.66561L486.78177,621.18619L484.86153,620.70614L484.14144,620.22609
				L484.14144,619.74604L483.90141,617.82584L482.94129,616.86573L482.2212,616.14566L481.26107,615.42558L479.34083,613.26535L
				480.78101,611.10512L477.90065,610.14502L477.18056,611.10512L475.50034,610.14502L474.54022,609.66497L472.86001,609.42494L
				471.17979,608.70486L470.69973,608.22481L469.97964,607.74476L467.33931,607.02469L464.21891,606.06458L463.73885,606.06458L
				462.5387,607.26471L460.85848,609.66497L457.97812,612.7853L458.45818,609.42494L458.93824,606.06458L459.4183,603.90435L459.4183,603.18428
				L456.77797,605.10448L456.05788,604.62443L456.05788,604.86446L455.57781,607.74476L455.09775,610.38504L453.41754,613.26535
				L453.17751,614.94553L452.69745,616.62571L452.45742,619.26599L451.97736,621.42622L450.29714,623.1064L450.05711,624.78658L
				449.09699,625.0266L444.05635,625.26663L437.57553,624.30653L436.13535,622.1463L435.41526,621.18619L434.45513,618.78594L436.85544,617.58581
				L436.61541,617.10576L435.65529,615.42558L434.69516,613.98543L433.49501,613.02533L432.29486,612.54527L429.89456,614.22545
				L429.17446,614.7055L428.93443,614.7055L427.25422,610.62507L425.09395,606.78466L426.2941,606.30461L428.93443,605.10448L430.85468,604.14438
				L430.61465,603.4243L429.65452,601.74412L429.89456,601.74412L431.09471,601.26407L428.45437,599.34387L425.09395,596.94361L
				425.33398,595.98351L425.09395,595.98351L425.33398,595.74348L425.09395,595.50346L422.93367,595.50346L421.25346,595.02341L
				421.01343,595.74348L419.33322,594.30333L417.653,597.42366L415.73276,599.34387L415.97279,599.58389L417.41297,601.26407L417.653,601.5041
				L415.73276,603.66433L417.89303,605.58453L417.41297,606.30461L415.73276,608.70486L417.41297,611.10512L416.21282,611.34515
				L415.2527,611.34515L415.01267,611.10512L414.53261,610.62507L412.85239,607.26471L414.53261,606.30461L414.05254,604.86446L
				414.29258,604.3844L411.89227,600.54399L410.21206,601.5041L409.732,602.22417L407.33169,601.26407L408.29181,599.10384L407.09166,598.38376
				L402.77111,597.42366L402.05102,599.58389L401.81099,606.54463L395.5702,601.5041L392.4498,609.18492L397.9705,614.46548L393.64996,621.90627
				L389.08938,629.82712L388.12926,631.98735L387.64919,633.4275L380.92834,637.98799L379.24813,620.46612L379.0081,616.62571L379.0081,616.14566
				L378.52804,615.66561L378.28801,615.18556L377.56791,614.94553L376.60779,614.7055L376.36776,615.66561L375.8877,617.58581L375.40764,618.78594
				L374.44752,620.22609L373.72743,621.66625L372.52728,623.58645L370.367,625.98671L367.24661,629.34706L363.88618,632.70742L361.7259,635.58773
				L360.04569,637.98799L359.80566,638.46804L359.56563,638.70806L359.08557,638.70806L358.60551,638.70806L358.12545,637.98799
				L356.9253,637.02788L355.72514,635.58773L354.76502,634.14758L352.84478,631.50729L354.28496,630.54719L354.04493,630.06714L
				353.8049,629.58709L352.36472,630.78722L352.12469,630.30717L351.88466,629.82712L351.88466,629.10704L352.12469,628.62699L352.36472,627.90691
				L352.60475,627.42686L352.60475,626.70678L353.32484,625.26663L354.04493,624.0665L354.52499,624.54655L355.48511,623.82648L
				354.76502,623.34642L355.48511,622.1463L357.16533,620.22609L357.40536,619.74604L357.64539,619.50602L357.88542,618.78594L357.40536,618.54591
				L354.04493,616.62571L353.32484,616.14566L352.12469,617.58581L350.92453,618.30589L351.64463,619.26599L349.96441,619.98607
				L349.96441,620.22609L348.2842,622.1463L349.24432,622.86637L350.92453,624.0665L349.24432,625.74668L348.76426,625.50666L347.80414,626.46676
				L350.20444,627.42686L349.24432,628.62699L350.44447,629.82712L349.48435,629.58709L347.08405,630.06714L345.40383,629.82712
				L344.20368,629.10704L343.48359,628.86701L341.80338,631.02724L341.32332,631.50729L341.08328,632.4674L339.16304,636.06778L
				336.28268,634.14758L335.56258,633.66752L332.44219,635.58773L331.96213,636.06778L329.80185,637.98799L328.12164,636.06778L
				327.88161,635.58773L325.48131,637.98799L323.56106,640.14822L326.44143,636.54783L323.081,639.42814L321.16076,641.34834L319.00048,643.50857
				L317.5603,645.42878L319.24051,647.58901L320.92073,650.22929L310.11936,655.9899L308.9192,657.19003L306.99896,657.91011L305.07872,658.15013
				L305.07872,659.59029L302.91844,659.11024L300.9982,658.87021L298.83792,658.39016L297.39774,657.91011L297.63777,657.19003L
				295.95756,656.95001L296.19759,655.26983L291.63701,653.82967L291.15695,652.86957L289.23671,649.98926L284.67613,643.98862L
				279.15543,638.46804L280.59561,635.3477L282.27582,631.74732L282.75588,628.38696L281.55573,618.30589L279.87552,613.26535L279.39546,611.34515
				L278.43533,611.58517L271.71448,611.58517L270.51433,611.34515L270.2743,611.34515L268.35406,610.86509L265.95375,610.14502L
				265.23366,609.90499L263.55345,610.14502L262.11326,608.22481L262.11326,606.54463L262.11326,605.82456L262.35329,605.34451L
				262.11326,605.10448L261.87323,602.94425L259.2329,600.30397L258.27278,599.10384L257.07262,599.82392L252.27201,592.86318L254.19226,586.86254
				L254.43229,585.90243L256.35253,582.06203L256.1125,582.06203L255.63244,582.54208L255.15238,583.26215L254.19226,583.02213L
				253.95223,582.30205L253.47217,582.30205L253.47217,581.58197L253.23214,581.34195L252.27201,581.10192L250.5918,581.10192L249.15162,581.34195
				L248.43153,581.34195L246.99134,581.34195L246.75131,581.34195L246.75131,581.10192L246.51128,581.10192L245.79119,576.06139
				L245.31113,572.461L245.0711,570.5408L245.0711,570.06075L244.59104,567.42047L245.55116,566.46036L248.91159,562.61995L249.39165,561.89988
				L249.87171,560.2197L249.39165,559.97967L247.47141,558.77954L246.03122,558.29949L244.11098,558.29949L242.19074,558.05947L
				240.51052,558.29949L239.5504,558.53952L238.59028,558.77954L238.11022,557.09937L236.67003,557.57942L236.91007,554.69911L237.39013,553.01893
				L238.35025,553.25896L239.07034,549.41855L239.07034,549.17852L238.59028,548.69847L238.11022,548.45844L237.63016,548.21842
				L236.67003,547.97839L235.70991,547.73837L235.94994,547.25832L235.22985,547.25832L234.26973,547.25832L233.06958,547.25832
				L232.82955,547.25832L232.82955,547.49834L232.10946,547.49834L231.86943,547.97839L231.86943,549.65857L230.42924,551.57878
				L224.66851,556.61931L223.70839,557.81944L223.46836,557.81944L222.50824,557.09937L221.30809,556.61931L218.42772,555.17916
				L217.22757,554.45908L216.26745,553.97903L215.78738,553.97903L212.18693,553.01893L211.46684,552.29885L210.50671,551.57878
				L208.10641,551.57878L206.66623,552.05883L204.26592,553.25896L202.82574,553.73901L202.10565,553.97903L202.58571,555.41919
				L200.66547,556.37929L199.94537,555.65921L198.74522,554.21906L196.58495,555.17916L194.42467,556.13926L191.06425,557.33939
				L190.34416,557.81944L189.62406,558.05947L189.144,559.01957L186.50367,559.97967L185.78358,560.2197L184.58342,560.93977L184.34339,561.1798
				L183.14324,562.37993L180.74294,563.82008L179.78282,564.30013L177.86257,564.78018L176.66242,565.98031L174.74218,566.22034
				L172.34187,566.22034L170.90169,566.94041L168.50138,566.94041L167.54126,567.18044L166.58114,567.42047L158.90017,569.82072
				L153.85953,571.26087L154.33959,570.5408L156.49986,569.10064L156.25983,567.66049L157.21995,567.18044L157.21995,566.46036L
				156.49986,566.46036L152.17931,566.70039L150.73913,567.66049L148.09879,571.26087L147.85876,572.461L146.89864,572.461L146.41858,572.70103
				L145.69849,573.66113L143.53822,573.66113L143.29819,573.4211L139.21767,572.70103L136.81736,573.18108L134.89712,573.66113L
				132.25678,573.4211L130.33654,573.18108L129.13639,573.18108L126.01599,571.98095L125.2959,571.98095L123.85572,571.5009L124.33578,573.90116
				L125.53593,574.38121L125.53593,577.26151L123.85572,577.26151L123.61569,579.9018L123.61569,580.62187L125.2959,580.62187L126.49605,580.62187
				L126.97611,579.42174L128.89636,578.46164L128.89636,577.74157L130.09651,577.26151L130.57657,578.46164L132.49681,577.98159
				L132.73685,579.18172L131.05663,580.38185L130.8166,580.8619L125.77596,580.62187L118.81508,581.34195L119.05511,580.14182L119.53517,578.22162
				L119.53517,577.74157L119.7752,577.74157L119.53517,576.30141L119.53517,575.58133L121.69544,571.02085L121.69544,570.78082L
				121.21538,570.30077L120.97535,569.10064L119.53517,566.94041L117.85496,565.74029L114.97459,564.78018L114.97459,565.26024L
				114.97459,565.74029L113.77444,566.22034L113.53441,568.38057L112.57429,569.5807L112.81432,575.10128L112.09423,575.10128L90.01142,575.82136
				L87.85115,576.54144L87.85115,575.82136L73.68935,576.30141L73.20929,574.62123L73.20929,574.38121L71.76911,569.10064L71.76911,568.62059
				L71.04902,565.50026L70.80899,562.61995L70.08889,557.81944L70.56896,550.37865L70.80899,545.33811L70.80899,541.97775L70.56896,538.37737
				L70.08889,534.77699L69.60883,527.81625L69.12877,522.05563L67.20853,513.65474L66.24841,511.01445L65.04826,506.45397L65.28829,499.49323
				L65.76835,491.33236L66.00838,481.01126L65.04826,472.37034L64.56819,467.80985L63.36804,462.52929L61.92786,454.12839L60.96774,448.36778
				L59.76759,442.60717L59.52755,438.04668L58.80746,432.28607L58.3274,428.20563L57.84734,423.64514L57.84734,415.48427L57.84734,411.16381
				L58.08737,410.68376L59.28752,408.04348L59.52755,407.80346L59.76759,406.84335L60.72771,403.483L62.40792,395.80218L63.12801,393.40192
				L63.36804,391.96177L63.12801,390.28159L62.88798,388.12136L62.16789,386.20115L61.20777,384.28095L60.48768,381.88069L60.00762,380.20051
				L59.76759,376.84016L59.28752,369.39936L58.3274,365.31893L57.36728,361.95857L56.16713,357.39809L54.72695,352.11752L54.72695,350.91739
				L54.72695,349.47724L54.96698,347.07699L55.20701,344.4367L56.40716,342.99655L56.40716,341.07635L56.40716,340.83632L56.88722,336.03581
				L57.12725,333.87558L56.88722,332.91548L55.44704,326.43479L54.00685,319.71407L52.8067,313.23338L52.32664,311.07315L52.08661,308.91292
				L52.32664,307.95282L52.56667,306.03261L52.8067,302.1922L53.28676,300.75205L53.28676,300.51202L53.28676,300.272L54.48692,295.95154
				L54.96698,293.55128L55.20701,292.59118L55.44704,289.71087L55.44704,288.9908L55.44704,288.75077L55.20701,284.67034L54.48692,281.30998
				L53.52679,278.42967L53.28676,277.70959L52.8067,276.50947L52.08661,275.54936L50.4064,272.66906L50.4064,272.18901L50.16637,271.70895
				L50.16637,267.38849L49.68631,264.02814L46.56591,246.98632L46.80594,241.46573L46.80594,241.22571L47.04597,240.74565L47.04597,240.2656
				L48.72618,236.90525L49.92634,233.30486L50.64643,230.18453L50.88646,226.10409L50.64643,221.06356L50.16637,216.7431L49.20624,213.62276
				L47.286,206.90205L47.52603,206.18197L47.76606,205.22187L48.24612,204.02174L49.20624,201.62149L49.44628,200.90141L50.4064,199.70128
				L51.12649,198.0211L51.36652,196.82097L51.60655,194.90077L51.60655,190.82033L51.60655,189.62021L51.36652,187.21995L51.12649,184.09962
				L51.12649,182.65946L51.36652,181.93939L51.36652,181.45934L51.84658,180.01918L52.08661,179.29911L53.04673,175.69872L53.52679,174.97865
				L53.52679,174.25857L53.76682,172.81842L53.76682,171.37826L54.00685,169.69808L54.00685,168.49796L55.44704,168.73798L71.28905,171.37826
				L79.45008,174.25857L78.97002,175.21867L80.4102,175.69872L80.65024,175.69872L79.93014,176.89885L78.0099,179.53913L76.08966,182.65946
				L74.64947,184.09962L71.04902,189.38018L70.56896,190.10026L69.3688,191.54041L72.72923,192.50051L68.64871,201.14143zM93.37185,398.68248
				L93.85191,399.16254L94.09194,397.72238L94.09194,397.48236L94.572,397.00231L94.33197,393.40192L94.33197,392.68185L93.13182,389.56151
				L92.1717,387.88133L91.93167,387.64131L90.73151,387.64131L91.45161,389.08146L92.1717,392.20179L92.41173,396.0422L93.13182,398.20243
				L93.37185,398.68248zM127.21614,392.92187L127.93624,394.60205L128.17627,393.88197L127.21614,392.92187zM157.45998,386.68121
				L162.74065,393.40192L163.46074,392.68185L158.66013,386.20115L157.45998,386.68121zM323.32103,461.80921L325.24127,462.76931
				L325.72134,462.76931L325.72134,460.60908L324.04112,460.60908L323.32103,461.80921zM171.62178,347.79706L171.38175,346.83696
				L171.14172,348.03709L163.70077,354.27775L165.38099,356.67801L164.18084,358.35819L165.38099,359.31829L164.42087,360.51842
				L166.34111,361.95857L168.98144,358.83824L167.30123,357.39809L171.62178,352.35755L169.46151,350.43734L171.62178,347.79706
				z"/>
			<path clip-path="url(#SVG_CP_2)" fill="none" stroke="#2f4493" stroke-width="1" stra="1.44018" stroke-miterlimit="10" stroke-linecap="round" stroke-linejoin="round" d="
				M68.64871,201.14143L69.3688,201.14143L69.3688,200.90141L74.40944,201.62149L74.64947,201.62149L76.56972,202.10154L75.6096,207.86215
				L73.20929,211.46253L76.80975,213.38274L76.80975,213.62276L72.96926,226.10409L73.68935,226.34412L73.20929,228.26432L72.24917,228.0243
				L71.76911,230.18453L74.40944,231.38466L73.20929,237.14527L76.32969,237.3853L77.76987,237.86535L80.65024,240.02558L81.1303,240.02558
				L81.1303,243.14591L84.97078,243.38594L89.53136,247.7064L93.13182,249.38658L95.05206,250.10665L100.33273,248.6665L98.41249,254.90716
				L95.77215,254.66714L98.17246,255.14719L98.17246,255.86727L98.65252,255.86727L99.61264,258.9876L98.89255,258.74757L99.13258,259.22762
				L99.13258,260.42775L83.5306,258.50755L83.5306,261.62788L83.5306,262.82801L86.651,262.34796L87.37109,266.18837L89.29133,269.54872
				L90.97155,270.74885L91.21158,271.46893L78.97002,270.50883L78.48996,270.98888L78.0099,270.98888L77.04978,271.94898L74.16941,273.86918
				L70.56896,275.78939L69.12877,277.70959L68.40868,279.38977L68.64871,281.30998L69.12877,282.51011L71.52908,286.59054L72.24917,287.31062
				L76.32969,286.83057L77.76987,286.59054L77.52984,285.87046L77.52984,285.63044L77.76987,285.63044L78.24993,285.63044L78.48996,285.63044
				L79.21005,286.35051L81.37033,287.79067L81.61036,288.03069L81.85039,288.51074L82.33045,288.51074L82.33045,289.9509L82.57048,289.9509
				L83.5306,289.71087L85.93091,289.23082L91.69164,288.03069L93.61188,287.79067L94.33197,288.03069L94.33197,288.27072L94.572,289.23082
				L94.81203,290.19092L95.53212,291.8711L94.572,292.35115L94.81203,292.8312L95.77215,292.35115L96.01218,292.35115L96.25222,292.8312
				L96.97231,293.79131L94.81203,294.99144L95.53212,296.19156L94.81203,296.91164L95.53212,298.11177L96.25222,299.55192L96.01218,300.03197
				L95.29209,300.75205L96.01218,301.71215L95.53212,301.95218L95.05206,302.1922L93.85191,303.63236L92.1717,306.27264L92.89179,306.27264
				L94.33197,306.75269L94.33197,306.99271L94.33197,308.19284L94.33197,309.87302L90.97155,310.35307L91.21158,311.31317L91.93167,312.03325
				L92.89179,313.23338L94.572,315.15358L95.05206,315.63363L95.05206,316.11369L95.29209,316.59374L95.53212,316.83376L95.53212,317.55384
				L94.572,317.79386L93.37185,318.27392L92.1717,319.23402L91.45161,320.19412L94.09194,322.35435L93.61188,323.7945L92.1717,323.7945
				L91.69164,323.7945L88.09118,323.31445L86.651,321.63427L84.49072,319.23402L82.57048,317.07379L81.85039,315.87366L81.85039,316.35371
				L79.21005,317.31381L79.45008,318.51394L80.17017,320.67417L80.4102,320.9142L80.89027,321.15422L81.37033,321.63427L81.61036,322.35435
				L82.09042,323.07443L82.33045,323.7945L82.81051,324.03453L82.81051,324.27456L82.09042,324.51458L82.57048,326.67481L82.33045,326.67481
				L82.81051,328.11496L84.49072,327.15486L85.45084,326.91484L86.17094,326.43479L88.09118,325.95473L88.09118,328.11496L89.77139,328.11496
				L90.25145,330.03517L91.69164,330.03517L91.21158,334.59566L91.45161,335.31573L91.45161,335.55576L91.45161,336.03581L89.53136,340.11624
				L89.29133,340.35627L89.53136,340.59629L89.29133,341.31637L88.57124,341.79642L87.37109,343.23658L86.41097,344.19668L86.41097,344.91676
				L87.13106,344.91676L87.13106,345.39681L87.37109,346.35691L88.33121,347.79706L88.57124,348.27711L88.81127,349.23722L89.77139,350.67737
				L90.25145,352.11752L90.97155,355.23785L90.73151,355.23785L90.73151,355.71791L90.73151,356.19796L90.73151,356.43798L91.45161,358.59821
				L92.89179,362.1986L93.37185,364.1188L93.61188,365.0789L92.89179,365.31893L92.1717,365.31893L92.1717,366.03901L91.69164,366.51906
				L91.93167,366.99911L91.93167,367.23913L91.69164,367.47916L92.65176,367.95921L92.65176,369.39936L91.21158,370.11944L91.69164,371.55959
				L93.37185,371.31957L93.61188,373.71982L95.05206,373.4798L95.05206,374.19988L95.05206,374.4399L94.572,376.60013L95.77215,377.80026
				L95.29209,379.24041L95.05206,380.68057L95.05206,381.40064L94.81203,382.12072L94.81203,383.32085L94.572,384.04092L94.33197,385.7211
				L94.33197,387.16126L94.33197,387.64131L94.33197,387.88133L95.05206,387.64131L96.01218,391.72174L98.17246,391.24169L98.41249,391.72174
				L99.13258,391.72174L99.37261,391.72174L100.0927,391.24169L100.81279,391.24169L101.29285,390.52161L101.77292,390.04156L105.13334,389.08146
				L105.85343,389.08146L107.05359,389.32149L107.53365,389.32149L108.49377,388.60141L111.1341,388.12136L111.61416,388.60141L
				112.57429,388.60141L113.53441,388.36138L114.49453,387.40128L114.97459,389.32149L114.73456,390.04156L113.77444,390.76164L
				114.2545,392.92187L113.77444,393.40192L114.01447,393.88197L119.7752,391.72174L120.49529,392.44182L120.97535,392.44182L121.45541,392.68185
				L121.93547,393.1619L122.65557,393.88197L126.01599,392.44182L130.09651,391.48172L131.05663,390.04156L130.33654,387.64131L
				138.73761,373.95985L140.89788,370.35947L141.37794,369.87942L141.61797,371.07954L141.858,371.79962L146.41858,377.80026L148.57886,380.92059
				L151.45922,378.28031L151.93928,376.60013L146.41858,367.23913L151.93928,364.1188L151.45922,363.39872L151.21919,363.39872L
				150.73913,361.71855L146.65861,359.07826L141.37794,356.19796L141.13791,355.95793L140.65785,354.7578L139.69773,354.27775L138.73761,354.03773
				L137.77748,354.7578L137.53745,355.71791L136.3373,355.23785L134.41706,353.55768L132.97688,351.63747L132.73685,350.67737L129.13639,346.59693
				L132.25678,346.35691L132.01675,344.4367L132.97688,343.71663L132.97688,342.99655L129.85648,341.79642L128.65633,339.87622L
				128.17627,338.67609L128.17627,337.47596L128.4163,336.75589L127.21614,335.55576L126.01599,336.75589L126.01599,337.95601L124.81584,338.19604
				L126.01599,342.27647L127.21614,349.71727L126.49605,350.67737L122.41554,346.59693L122.8956,345.87686L120.49529,343.4766L120.73532,342.75652
				L121.45541,342.03645L120.01523,341.31637L119.53517,341.07635L119.05511,340.59629L117.85496,338.91612L116.41477,336.51586
				L118.09499,336.03581L117.13487,334.1156L115.21462,329.79514L116.89483,329.07507L116.17474,327.63491L117.13487,326.67481L
				117.13487,323.31445L121.45541,321.63427L120.97535,320.19412L123.61569,316.11369L118.57505,312.03325L119.05511,311.31317L
				121.21538,308.67289L128.65633,300.03197L130.57657,298.35179L131.77672,297.15167L133.21691,296.67161L135.37718,295.95154L
				137.05739,295.71151L136.3373,291.15103L133.937,283.47021L131.77672,277.94962L129.85648,272.66906L133.69697,269.78875L133.45694,260.66778
				L132.73685,256.58734L132.25678,253.22698L134.41706,252.02686L140.89788,253.94706L146.89864,258.26752L147.3787,258.74757L
				149.77901,256.34732L148.33883,253.70704L147.85876,250.34668L147.3787,246.74629L147.85876,246.26624L150.01904,244.34604L150.73913,244.10601
				L152.17931,243.62596L153.13943,243.38594L154.09956,243.86599L157.21995,242.66586L158.90017,240.02558L157.70001,235.70512
				L157.45998,233.06484L157.21995,231.14463L157.21995,230.90461L158.66013,228.50435L159.38023,227.78427L160.34035,226.82417
				L163.46074,224.66394L165.38099,224.18389L165.62102,224.18389L169.94157,223.70384L171.38175,223.46381L172.5819,226.10409L
				173.54202,230.42455L174.02208,232.58478L176.90245,238.3454L178.1026,239.54553L178.82269,240.2656L182.66318,242.66586L183.38327,242.90588
				L186.7437,244.10601L188.90397,245.06611L185.06349,253.94706L189.62406,256.82737L195.62483,265.94834L193.22452,267.62852L
				194.18464,268.3486L196.58495,269.3087L198.74522,274.34924L200.1854,276.02941L201.38556,276.74949L200.1854,279.86982L201.86562,281.79003
				L204.50595,277.22954L205.46607,278.42967L206.90626,277.22954L207.62635,278.42967L210.26668,279.86982L209.54659,283.71023
				L208.8265,287.07059L206.66623,290.43095L208.58647,291.8711L214.10717,293.55128L217.70763,295.71151L221.54812,286.83057L222.02818,285.39041
				L222.26821,283.23018L222.50824,283.23018L226.58876,282.27008L227.54888,281.55L230.18921,281.06995L231.38936,281.55L231.38936,282.99016
				L231.86943,283.95026L232.58952,286.35051L234.98982,288.9908L237.87019,287.55064L240.75055,287.79067L241.71067,285.15039L
				244.35101,286.11049L246.75131,287.31062L248.91159,288.27072L249.63168,288.9908L250.11174,289.9509L249.39165,293.07123L249.15162,295.23146
				L249.87171,299.55192L249.87171,301.47213L248.1915,307.71279L247.71144,308.67289L247.71144,309.87302L247.71144,310.83312L
				248.91159,315.15358L249.15162,316.83376L248.1915,316.83376L246.03122,316.59374L244.35101,316.11369L243.63092,315.87366L241.9507,319.71407
				L242.43077,319.71407L243.39089,319.47404L245.55116,319.71407L247.47141,319.9541L249.15162,320.19412L248.91159,332.1954L248.91159,333.39553
				L248.1915,335.31573L247.71144,336.75589L247.23137,337.71599L246.99134,339.87622L247.71144,342.5165L248.1915,345.39681L246.27125,345.87686
				L244.59104,346.35691L243.63092,347.31701L242.91083,348.51714L242.19074,348.75716L240.27049,347.31701L239.07034,346.83696
				L237.39013,346.35691L235.94994,346.11688L234.98982,345.63683L234.26973,343.4766L233.78967,342.5165L232.58952,341.07635L231.14933,340.83632
				L228.98906,341.07635L228.26897,341.07635L227.30885,340.59629L226.82879,340.11624L219.8679,333.1555L215.78738,330.75525L214.3472,329.31509
				L217.22757,324.99463L213.86714,323.31445L214.58723,320.43415L214.10717,317.07379L212.42696,316.11369L210.50671,315.63363
				L209.30656,315.63363L204.74598,318.51394L205.70611,319.9541L201.86562,324.99463L197.7851,323.55448L197.30504,324.75461L195.14476,329.79514
				L195.86486,331.47532L196.34492,332.67545L196.82498,334.59566L199.46531,338.91612L198.50519,340.35627L195.86486,344.67673
				L194.6647,344.4367L189.62406,343.4766L185.54355,350.67737L182.18312,353.55768L182.18312,354.99783L183.6233,358.83824L190.10413,363.63875
				L188.90397,365.55895L186.7437,365.31893L185.78358,365.31893L180.74294,364.35883L179.54278,364.35883L179.30275,364.83888L
				183.38327,372.5197L189.38403,383.8009L186.50367,386.92123L183.14324,383.56087L181.46303,385.24105L179.54278,383.56087L176.18236,383.8009
				L163.70077,393.40192L162.74065,393.88197L158.4201,399.40256L156.49986,403.483L155.77977,407.56343L158.66013,408.04348L159.1402,410.44374
				L161.5405,415.00422L163.22071,414.7642L163.70077,405.4032L166.10108,410.68376L167.54126,414.04412L169.46151,413.32404L170.1816,415.00422
				L168.02132,415.96433L168.26135,418.36458L168.02132,418.84463L168.98144,420.04476L169.70154,420.52481L171.86181,421.72494
				L172.5819,421.48491L172.82193,420.76484L173.06196,420.76484L173.30199,420.04476L176.90245,420.76484L176.90245,421.96497L
				176.90245,423.16509L176.90245,424.60525L178.1026,429.64578L184.82346,431.08594L185.78358,431.08594L186.7437,431.32596L187.94385,431.56599
				L188.66394,431.32596L189.86409,431.32596L191.78434,429.40576L194.18464,427.0055L194.6647,426.28543L193.94461,425.56535L192.50443,424.36522
				L192.74446,423.88517L192.98449,422.92507L192.98449,421.96497L193.46455,422.20499L193.70458,422.20499L193.46455,422.44502
				L194.90473,422.92507L195.3848,421.96497L195.86486,421.96497L196.58495,421.24489L197.06501,421.48491L197.54507,421.24489L
				198.98525,420.28479L200.42544,421.72494L202.34568,419.80474L202.82574,420.28479L203.54583,419.32468L205.46607,417.40448L
				207.14629,416.20435L209.30656,418.36458L214.58723,415.24425L209.54659,411.16381L211.70687,408.76356L213.38708,409.72366L
				216.74751,407.08338L221.06805,410.44374L222.26821,411.64387L224.66851,412.12392L224.42848,410.68376L226.10869,410.20371L
				226.58876,409.96369L227.54888,408.52353L228.02894,407.80346L228.74903,407.80346L229.94918,406.84335L231.38936,407.56343L
				232.34949,407.80346L233.54964,406.12328L234.26973,404.92315L234.50976,404.68312L235.70991,403.483L236.91007,403.00294L237.87019,402.52289
				L240.75055,400.36266L246.75131,400.60269L247.71144,399.64259L250.83183,399.64259L252.03198,399.88261L252.03198,399.64259
				L252.99211,397.48236L253.95223,397.24233L255.39241,397.00231L258.51281,397.00231L260.91311,396.76228L263.07339,396.76228
				L265.71372,396.52225L265.95375,396.52225L269.31418,394.122L270.99439,392.20179L272.6746,390.04156L275.31494,386.20115L275.55497,383.8009
				L275.31494,379.24041L275.07491,376.84016L274.83488,375.88005L273.63473,374.4399L272.19454,373.95985L267.1539,376.36011L265.47369,372.99975
				L265.71372,371.31957L266.19378,370.35947L266.91387,368.43926L264.27354,368.19924L261.87323,366.03901L261.6332,362.91867L
				261.15314,360.99847L260.43305,358.11816L261.6332,357.63811L264.7536,355.95793L267.1539,354.99783L270.03427,354.7578L273.87476,353.7977
				L275.31494,353.07762L275.55497,352.11752L277.47521,350.91739L279.15543,351.15742L284.4361,351.15742L287.07643,351.8775L294.75741,349.47724
				L297.15771,348.27711L298.59789,349.95729L300.03808,352.59757L303.63853,354.51778L300.51814,357.15806L300.51814,357.63811
				L295.71753,359.07826L294.75741,360.75844L295.23747,362.1986L296.67765,366.51906L297.39774,369.87942L297.63777,373.71982L
				300.27811,373.95985L305.79881,372.27967L309.87933,371.07954L311.07948,370.83952L311.31951,371.31957L316.36015,369.63939L
				317.80033,368.91931L318.52042,368.43926L319.9606,370.83952L322.12088,372.27967L322.12088,373.95985L325.00124,380.68057L324.28115,380.68057
				L324.76121,382.8408L322.60094,383.56087L323.32103,386.44118L323.80109,388.60141L325.48131,391.96177L328.36167,391.72174L
				330.04188,391.48172L336.28268,390.28159L343.96365,392.92187L343.72362,395.56215L343.48359,397.24233L343.00353,399.16254L
				343.00353,401.08274L341.56335,401.80282L340.36319,402.04284L340.36319,403.00294L343.48359,403.00294L344.20368,403.483L345.64386,404.4431
				L346.84402,404.68312L349.72438,404.92315L352.60475,405.16318L355.96517,406.60333L358.12545,407.80346L358.84554,408.52353
				L360.04569,409.96369L362.92606,414.04412L363.64615,414.7642L365.32636,417.64451L366.04645,419.32468L364.8463,419.80474L363.64615,420.28479
				L363.40612,421.24489L363.16609,423.40512L362.20597,426.28543L361.00581,428.44566L360.04569,430.12584L357.88542,432.52609
				L354.04493,435.64642L350.92453,437.80665L350.20444,438.2867L344.44371,443.08722L344.68374,443.32724L344.68374,443.56727L
				337.96289,450.52801L337.72286,451.00806L329.08176,461.56919L327.88161,462.52929L327.40155,464.20947L327.40155,464.92954L
				327.64158,465.16957L325.00124,466.60972L324.28115,466.12967L323.32103,464.68952L321.88085,464.68952L320.20063,465.88965L
				319.00048,467.3298L318.04036,467.80985L316.60018,467.80985L316.12012,467.56983L314.4399,469.73006L311.55954,471.41023L310.59942,471.65026
				L310.35939,472.37034L310.35939,472.61036L309.63929,473.81049L309.39926,474.29054L309.15923,474.77059L309.63929,475.49067
				L308.19911,476.93082L307.95908,477.41087L307.47902,477.41087L304.83869,478.85103L303.63853,476.21075L301.95832,476.21075
				L302.67841,476.93082L301.71829,477.89092L300.75817,477.89092L299.55802,476.45077L298.35786,476.93082L298.59789,478.611L295.95756,479.33108
				L293.79728,479.81113L293.55725,479.33108L292.59713,478.85103L289.23671,479.81113L288.51661,480.29118L288.51661,481.01126
				L289.71677,481.73133L289.9568,481.97136L289.47674,483.65154L288.51661,483.89156L287.55649,483.17149L286.59637,483.89156L
				288.75664,486.05179L287.55649,486.77187L287.79652,487.0119L286.8364,487.25192L284.67613,487.73197L284.4361,485.81177L282.51585,486.29182
				L282.51585,486.05179L282.03579,486.05179L281.55573,485.33172L280.59561,485.33172L279.63549,485.81177L279.39546,486.05179
				L278.9154,486.53185L276.99515,488.9321L275.31494,491.33236L275.31494,491.81241L274.35482,492.29246L273.3947,493.25256L272.43457,493.73261
				L271.71448,494.45269L270.75436,494.69272L270.03427,494.93274L269.07415,495.17277L268.35406,495.65282L267.87399,496.13287
				L266.91387,497.333L267.87399,499.01318L268.35406,499.97328L265.47369,501.65346L264.51357,500.69335L264.7536,500.45333L263.79348,498.53312
				L263.55345,498.77315L262.83335,500.2133L262.11326,499.73325L260.19302,501.17341L260.19302,501.65346L259.95299,501.65346L
				260.91311,504.29374L263.07339,503.09361L263.79348,504.05371L262.11326,505.49387L260.67308,506.69399L257.55268,509.09425L
				256.35253,507.6541L253.95223,508.6142L251.79195,509.81433L251.31189,510.77443L248.43153,511.73453L249.39165,512.93466L250.83183,512.45461
				L250.11174,513.89476L250.83183,514.61484L250.5918,515.33492L250.11174,515.57494L250.11174,516.29502L239.5504,522.53568L239.5504,523.25576
				L239.79043,523.97584L238.83031,523.97584L237.87019,524.93594L236.43,526.13607L236.43,526.85614L234.74979,528.05627L237.87019,530.2165
				L238.83031,530.93658L239.31037,531.41663L239.5504,531.41663L240.27049,531.1766L241.47064,530.69655L244.11098,529.97648L245.79119,529.49642
				L247.95147,528.77635L248.1915,528.77635L248.43153,529.2564L252.27201,527.81625L252.03198,527.57622L253.95223,526.37609L254.91235,525.41599
				L255.15238,525.41599L255.63244,525.17596L261.6332,538.85742L262.35329,538.37737L262.83335,539.33747L264.51357,537.89732L
				265.71372,537.17724L266.43381,536.69719L269.07415,535.25704L271.23442,534.29694L272.6746,533.57686L273.3947,533.09681L274.59485,532.85678
				L275.31494,532.85678L276.03503,532.61676L277.23518,535.97711L281.79576,535.01701L282.27582,533.81688L282.27582,535.01701
				L284.4361,534.77699L285.39622,533.81688L287.79652,533.33683L288.75664,533.09681L293.07719,532.13671L293.07719,532.61676L
				294.03731,532.37673L295.23747,532.61676L294.99744,533.33683L295.71753,539.81752L296.43762,539.33747L298.83792,538.13734L
				298.83792,538.37737L299.55802,537.89732L302.43838,535.25704L304.35862,534.77699L304.35862,534.53696L305.31875,533.81688L
				312.27963,528.77635L315.88009,526.37609L318.28039,525.41599L320.44067,524.93594L321.64082,524.69591L322.12088,523.97584L
				322.60094,523.25576L321.88085,519.8954L322.36091,519.17532L323.32103,518.45525L324.28115,517.73517L324.52118,517.9752L325.24127,518.21522
				L325.48131,520.37545L327.64158,519.8954L330.52194,518.9353L331.00201,518.9353L329.32179,514.61484L328.84173,513.41471L334.84249,509.81433
				L334.84249,508.6142L335.32255,507.41407L343.00353,508.13415L349.96441,508.85422L357.40536,508.6142L357.40536,505.01382L358.60551,502.37353
				L365.08633,503.57366L364.8463,505.73389L367.00657,505.73389L368.20673,521.33555L369.88694,521.33555L371.08709,521.33555L
				371.80718,521.33555L371.56715,513.17468L380.20825,513.17468L380.68831,510.5344L379.96822,504.53376L380.44828,503.81369L382.12849,505.49387
				L386.44904,509.5743L388.84935,509.81433L390.28953,510.05435L393.64996,510.29438L397.73047,509.09425L397.9705,506.45397L405.89151,507.89412
				L411.65224,509.33428L410.93215,510.29438L408.29181,513.89476L409.732,516.77507L409.97203,517.01509L411.17218,519.41535L413.33245,524.45589
				L413.81251,525.41599L414.29258,526.85614L419.33322,533.09681L419.57325,533.09681L430.13459,536.45717L432.29486,534.77699
				L434.2151,534.77699L437.81556,535.01701L443.09623,533.33683L445.01647,532.85678L446.69669,532.13671L447.65681,531.89668L
				450.53717,528.2963L456.77797,525.65601L458.21815,524.93594L458.21815,526.13607L458.45818,527.81625L458.69821,529.49642L458.93824,531.89668
				L458.93824,534.05691L458.93824,536.93722L458.93824,539.09745L458.93824,540.05755L458.93824,542.93786L459.65833,542.69783
				L460.37842,542.69783L460.37842,541.25768L460.37842,538.6174L460.13839,536.69719L460.13839,533.81688L460.13839,532.37673L
				460.13839,529.73645L459.89836,527.33619L459.4183,524.69591L461.81861,524.45589L462.5387,524.45589L462.77873,524.69591L463.25879,524.93594
				L464.69897,523.73581L466.85925,522.29566L466.85925,522.05563L471.41983,517.9752L474.54022,513.89476L478.38071,508.37417L
				480.54098,507.89412L481.74113,508.6142L486.78177,516.05499L490.38223,522.77571L492.06244,522.05563L498.30324,529.97648L500.70354,532.61676
				L504.78406,529.01637L507.90446,523.25576L510.30476,524.45589L511.74494,522.05563L518.70583,526.85614L523.9865,530.2165L525.90674,531.41663
				L527.58695,532.61676L530.22729,533.57686L530.46732,533.81688L534.54784,536.45717L537.18817,538.13734L538.62835,538.85742
				L541.74875,540.77763L541.98878,540.77763L542.9489,542.93786L543.90902,545.57814L543.42896,548.21842L542.22881,552.77891L
				545.82927,560.2197L539.82851,561.41983L541.50872,566.94041L542.70887,569.82072L540.30857,571.98095L541.98878,576.54144L541.74875,576.54144
				L541.98878,577.02149L542.70887,578.70167L543.18893,580.8619L543.90902,582.30205L549.18969,591.183L548.4696,591.66305L543.18893,594.30333
				L540.78863,595.02341L541.26869,596.22353L537.90826,598.62379L536.46808,599.82392L536.22805,599.82392L535.0279,600.78402L
				530.22729,603.90435L525.90674,605.10448L517.26564,604.14438L514.86534,613.7454L511.26488,611.8252L503.82394,608.46484L502.38375,608.70486
				L500.94357,608.70486L496.38299,607.26471L493.74266,607.26471L493.02257,608.46484L489.66214,615.66561L486.78177,621.18619
				L484.86153,620.70614L484.14144,620.22609L484.14144,619.74604L483.90141,617.82584L482.94129,616.86573L482.2212,616.14566L
				481.26107,615.42558L479.34083,613.26535L480.78101,611.10512L477.90065,610.14502L477.18056,611.10512L475.50034,610.14502"/>
			<path clip-path="url(#SVG_CP_2)" fill="none" stroke="#2f4493" stroke-width="1" stra="1.44018" stroke-miterlimit="10" stroke-linecap="round" stroke-linejoin="round" d="
				M475.50034,610.14502L474.54022,609.66497L472.86001,609.42494L471.17979,608.70486L470.69973,608.22481L469.97964,607.74476
				L467.33931,607.02469L464.21891,606.06458L463.73885,606.06458L462.5387,607.26471L460.85848,609.66497L457.97812,612.7853L458.45818,609.42494
				L458.93824,606.06458L459.4183,603.90435L459.4183,603.18428L456.77797,605.10448L456.05788,604.62443L456.05788,604.86446L455.57781,607.74476
				L455.09775,610.38504L453.41754,613.26535L453.17751,614.94553L452.69745,616.62571L452.45742,619.26599L451.97736,621.42622
				L450.29714,623.1064L450.05711,624.78658L449.09699,625.0266L444.05635,625.26663L437.57553,624.30653L436.13535,622.1463L435.41526,621.18619
				L434.45513,618.78594L436.85544,617.58581L436.61541,617.10576L435.65529,615.42558L434.69516,613.98543L433.49501,613.02533
				L432.29486,612.54527L429.89456,614.22545L429.17446,614.7055L428.93443,614.7055L427.25422,610.62507L425.09395,606.78466L426.2941,606.30461
				L428.93443,605.10448L430.85468,604.14438L430.61465,603.4243L429.65452,601.74412L429.89456,601.74412L431.09471,601.26407L
				428.45437,599.34387L425.09395,596.94361L425.33398,595.98351L425.09395,595.98351L425.33398,595.74348L425.09395,595.50346L
				422.93367,595.50346L421.25346,595.02341L421.01343,595.74348L419.33322,594.30333L417.653,597.42366L415.73276,599.34387L415.97279,599.58389
				L417.41297,601.26407L417.653,601.5041L415.73276,603.66433L417.89303,605.58453L417.41297,606.30461L415.73276,608.70486L417.41297,611.10512
				L416.21282,611.34515L415.2527,611.34515L415.01267,611.10512L414.53261,610.62507L412.85239,607.26471L414.53261,606.30461L
				414.05254,604.86446L414.29258,604.3844L411.89227,600.54399L410.21206,601.5041L409.732,602.22417L407.33169,601.26407L408.29181,599.10384
				L407.09166,598.38376L402.77111,597.42366L402.05102,599.58389L401.81099,606.54463L395.5702,601.5041L392.4498,609.18492L397.9705,614.46548
				L393.64996,621.90627L389.08938,629.82712L388.12926,631.98735L387.64919,633.4275L380.92834,637.98799L379.24813,620.46612L
				379.0081,616.62571L379.0081,616.14566L378.52804,615.66561L378.28801,615.18556L377.56791,614.94553L376.60779,614.7055L376.36776,615.66561
				L375.8877,617.58581L375.40764,618.78594L374.44752,620.22609L373.72743,621.66625L372.52728,623.58645L370.367,625.98671L367.24661,629.34706
				L363.88618,632.70742L361.7259,635.58773L360.04569,637.98799L359.80566,638.46804L359.56563,638.70806L359.08557,638.70806L
				358.60551,638.70806L358.12545,637.98799L356.9253,637.02788L355.72514,635.58773L354.76502,634.14758L352.84478,631.50729L354.28496,630.54719
				L354.04493,630.06714L353.8049,629.58709L352.36472,630.78722L352.12469,630.30717L351.88466,629.82712L351.88466,629.10704L
				352.12469,628.62699L352.36472,627.90691L352.60475,627.42686L352.60475,626.70678L353.32484,625.26663L354.04493,624.0665L354.52499,624.54655
				L355.48511,623.82648L354.76502,623.34642L355.48511,622.1463L357.16533,620.22609L357.40536,619.74604L357.64539,619.50602L
				357.88542,618.78594L357.40536,618.54591L354.04493,616.62571L353.32484,616.14566L352.12469,617.58581L350.92453,618.30589L
				351.64463,619.26599L349.96441,619.98607L349.96441,620.22609L348.2842,622.1463L349.24432,622.86637L350.92453,624.0665L349.24432,625.74668
				L348.76426,625.50666L347.80414,626.46676L350.20444,627.42686L349.24432,628.62699L350.44447,629.82712L349.48435,629.58709
				L347.08405,630.06714L345.40383,629.82712L344.20368,629.10704L343.48359,628.86701L341.80338,631.02724L341.32332,631.50729
				L341.08328,632.4674L339.16304,636.06778L336.28268,634.14758L335.56258,633.66752L332.44219,635.58773L331.96213,636.06778L
				329.80185,637.98799L328.12164,636.06778L327.88161,635.58773L325.48131,637.98799L323.56106,640.14822L326.44143,636.54783L
				323.081,639.42814L321.16076,641.34834L319.00048,643.50857L317.5603,645.42878L319.24051,647.58901L320.92073,650.22929L310.11936,655.9899
				L308.9192,657.19003L306.99896,657.91011L305.07872,658.15013L305.07872,659.59029L302.91844,659.11024L300.9982,658.87021L298.83792,658.39016
				L297.39774,657.91011L297.63777,657.19003L295.95756,656.95001L296.19759,655.26983L291.63701,653.82967L291.15695,652.86957
				L289.23671,649.98926L284.67613,643.98862L279.15543,638.46804L280.59561,635.3477L282.27582,631.74732L282.75588,628.38696L
				281.55573,618.30589L279.87552,613.26535L279.39546,611.34515L278.43533,611.58517L271.71448,611.58517L270.51433,611.34515L
				270.2743,611.34515L268.35406,610.86509L265.95375,610.14502L265.23366,609.90499L263.55345,610.14502L262.11326,608.22481L262.11326,606.54463
				L262.11326,605.82456L262.35329,605.34451L262.11326,605.10448L261.87323,602.94425L259.2329,600.30397L258.27278,599.10384L
				257.07262,599.82392L252.27201,592.86318L254.19226,586.86254L254.43229,585.90243L256.35253,582.06203L256.1125,582.06203L255.63244,582.54208
				L255.15238,583.26215L254.19226,583.02213L253.95223,582.30205L253.47217,582.30205L253.47217,581.58197L253.23214,581.34195
				L252.27201,581.10192L250.5918,581.10192L249.15162,581.34195L248.43153,581.34195L246.99134,581.34195L246.75131,581.34195L
				246.75131,581.10192L246.51128,581.10192L245.79119,576.06139L245.31113,572.461L245.0711,570.5408L245.0711,570.06075L244.59104,567.42047
				L245.55116,566.46036L248.91159,562.61995L249.39165,561.89988L249.87171,560.2197L249.39165,559.97967L247.47141,558.77954L
				246.03122,558.29949L244.11098,558.29949L242.19074,558.05947L240.51052,558.29949L239.5504,558.53952L238.59028,558.77954L238.11022,557.09937
				L236.67003,557.57942L236.91007,554.69911L237.39013,553.01893L238.35025,553.25896L239.07034,549.41855L239.07034,549.17852
				L238.59028,548.69847L238.11022,548.45844L237.63016,548.21842L236.67003,547.97839L235.70991,547.73837L235.94994,547.25832
				L235.22985,547.25832L234.26973,547.25832L233.06958,547.25832L232.82955,547.25832L232.82955,547.49834L232.10946,547.49834
				L231.86943,547.97839L231.86943,549.65857L230.42924,551.57878L224.66851,556.61931L223.70839,557.81944L223.46836,557.81944
				L222.50824,557.09937L221.30809,556.61931L218.42772,555.17916L217.22757,554.45908L216.26745,553.97903L215.78738,553.97903
				L212.18693,553.01893L211.46684,552.29885L210.50671,551.57878L208.10641,551.57878L206.66623,552.05883L204.26592,553.25896
				L202.82574,553.73901L202.10565,553.97903L202.58571,555.41919L200.66547,556.37929L199.94537,555.65921L198.74522,554.21906
				L196.58495,555.17916L194.42467,556.13926L191.06425,557.33939L190.34416,557.81944L189.62406,558.05947L189.144,559.01957L186.50367,559.97967
				L185.78358,560.2197L184.58342,560.93977L184.34339,561.1798L183.14324,562.37993L180.74294,563.82008L179.78282,564.30013L177.86257,564.78018
				L176.66242,565.98031L174.74218,566.22034L172.34187,566.22034L170.90169,566.94041L168.50138,566.94041L167.54126,567.18044
				L166.58114,567.42047L158.90017,569.82072L153.85953,571.26087L154.33959,570.5408L156.49986,569.10064L156.25983,567.66049L
				157.21995,567.18044L157.21995,566.46036L156.49986,566.46036L152.17931,566.70039L150.73913,567.66049L148.09879,571.26087L
				147.85876,572.461L146.89864,572.461L146.41858,572.70103L145.69849,573.66113L143.53822,573.66113L143.29819,573.4211L139.21767,572.70103
				L136.81736,573.18108L134.89712,573.66113L132.25678,573.4211L130.33654,573.18108L129.13639,573.18108L126.01599,571.98095L
				125.2959,571.98095L123.85572,571.5009L124.33578,573.90116L125.53593,574.38121L125.53593,577.26151L123.85572,577.26151L123.61569,579.9018
				L123.61569,580.62187L125.2959,580.62187L126.49605,580.62187L126.97611,579.42174L128.89636,578.46164L128.89636,577.74157L
				130.09651,577.26151L130.57657,578.46164L132.49681,577.98159L132.73685,579.18172L131.05663,580.38185L130.8166,580.8619L125.77596,580.62187
				L118.81508,581.34195L119.05511,580.14182L119.53517,578.22162L119.53517,577.74157L119.7752,577.74157L119.53517,576.30141L
				119.53517,575.58133L121.69544,571.02085L121.69544,570.78082L121.21538,570.30077L120.97535,569.10064L119.53517,566.94041L
				117.85496,565.74029L114.97459,564.78018L114.97459,565.26024L114.97459,565.74029L113.77444,566.22034L113.53441,568.38057L
				112.57429,569.5807L112.81432,575.10128L112.09423,575.10128L90.01142,575.82136L87.85115,576.54144L87.85115,575.82136L73.68935,576.30141
				L73.20929,574.62123L73.20929,574.38121L71.76911,569.10064L71.76911,568.62059L71.04902,565.50026L70.80899,562.61995L70.08889,557.81944
				L70.56896,550.37865L70.80899,545.33811L70.80899,541.97775L70.56896,538.37737L70.08889,534.77699L69.60883,527.81625L69.12877,522.05563
				L67.20853,513.65474L66.24841,511.01445L65.04826,506.45397L65.28829,499.49323L65.76835,491.33236L66.00838,481.01126L65.04826,472.37034
				L64.56819,467.80985L63.36804,462.52929L61.92786,454.12839L60.96774,448.36778L59.76759,442.60717L59.52755,438.04668L58.80746,432.28607
				L58.3274,428.20563L57.84734,423.64514L57.84734,415.48427L57.84734,411.16381L58.08737,410.68376L59.28752,408.04348L59.52755,407.80346
				L59.76759,406.84335L60.72771,403.483L62.40792,395.80218L63.12801,393.40192L63.36804,391.96177L63.12801,390.28159L62.88798,388.12136
				L62.16789,386.20115L61.20777,384.28095L60.48768,381.88069L60.00762,380.20051L59.76759,376.84016L59.28752,369.39936L58.3274,365.31893
				L57.36728,361.95857L56.16713,357.39809L54.72695,352.11752L54.72695,350.91739L54.72695,349.47724L54.96698,347.07699L55.20701,344.4367
				L56.40716,342.99655L56.40716,341.07635L56.40716,340.83632L56.88722,336.03581L57.12725,333.87558L56.88722,332.91548L55.44704,326.43479
				L54.00685,319.71407L52.8067,313.23338L52.32664,311.07315L52.08661,308.91292L52.32664,307.95282L52.56667,306.03261L52.8067,302.1922
				L53.28676,300.75205L53.28676,300.51202L53.28676,300.272L54.48692,295.95154L54.96698,293.55128L55.20701,292.59118L55.44704,289.71087
				L55.44704,288.9908L55.44704,288.75077L55.20701,284.67034L54.48692,281.30998L53.52679,278.42967L53.28676,277.70959L52.8067,276.50947
				L52.08661,275.54936L50.4064,272.66906L50.4064,272.18901L50.16637,271.70895L50.16637,267.38849L49.68631,264.02814L46.56591,246.98632
				L46.80594,241.46573L46.80594,241.22571L47.04597,240.74565L47.04597,240.2656L48.72618,236.90525L49.92634,233.30486L50.64643,230.18453
				L50.88646,226.10409L50.64643,221.06356L50.16637,216.7431L49.20624,213.62276L47.286,206.90205L47.52603,206.18197L47.76606,205.22187
				L48.24612,204.02174L49.20624,201.62149L49.44628,200.90141L50.4064,199.70128L51.12649,198.0211L51.36652,196.82097L51.60655,194.90077
				L51.60655,190.82033L51.60655,189.62021L51.36652,187.21995L51.12649,184.09962L51.12649,182.65946L51.36652,181.93939L51.36652,181.45934
				L51.84658,180.01918L52.08661,179.29911L53.04673,175.69872L53.52679,174.97865L53.52679,174.25857L53.76682,172.81842L53.76682,171.37826
				L54.00685,169.69808L54.00685,168.49796L55.44704,168.73798L71.28905,171.37826L79.45008,174.25857L78.97002,175.21867L80.4102,175.69872
				L80.65024,175.69872L79.93014,176.89885L78.0099,179.53913L76.08966,182.65946L74.64947,184.09962L71.04902,189.38018L70.56896,190.10026
				L69.3688,191.54041L72.72923,192.50051L68.64871,201.14143"/>
			<path clip-path="url(#SVG_CP_2)" fill="none" stroke="#2f4493" stroke-width="1" stra="1.44018" stroke-miterlimit="10" stroke-linecap="round" stroke-linejoin="round" d="
				M93.37185,398.68248L93.85191,399.16254L94.09194,397.72238L94.09194,397.48236L94.572,397.00231L94.33197,393.40192L94.33197,392.68185
				L93.13182,389.56151L92.1717,387.88133L91.93167,387.64131L90.73151,387.64131L91.45161,389.08146L92.1717,392.20179L92.41173,396.0422
				L93.13182,398.20243L93.37185,398.68248"/>
			<path clip-path="url(#SVG_CP_2)" fill="none" stroke="#2f4493" stroke-width="1" stra="1.44018" stroke-miterlimit="10" stroke-linecap="round" stroke-linejoin="round" d="
				M127.21614,392.92187L127.93624,394.60205L128.17627,393.88197L127.21614,392.92187"/>
			<path clip-path="url(#SVG_CP_2)" fill="none" stroke="#2f4493" stroke-width="1" stra="1.44018" stroke-miterlimit="10" stroke-linecap="round" stroke-linejoin="round" d="
				M157.45998,386.68121L162.74065,393.40192L163.46074,392.68185L158.66013,386.20115L157.45998,386.68121"/>
			<path clip-path="url(#SVG_CP_2)" fill="none" stroke="#2f4493" stroke-width="1" stra="1.44018" stroke-miterlimit="10" stroke-linecap="round" stroke-linejoin="round" d="
				M323.32103,461.80921L325.24127,462.76931L325.72134,462.76931L325.72134,460.60908L324.04112,460.60908L323.32103,461.80921
				"/>
			<path clip-path="url(#SVG_CP_2)" fill="none" stroke="#2f4493" stroke-width="1" stra="1.44018" stroke-miterlimit="10" stroke-linecap="round" stroke-linejoin="round" d="
				M171.62178,347.79706L171.38175,346.83696L171.14172,348.03709L163.70077,354.27775L165.38099,356.67801L164.18084,358.35819
				L165.38099,359.31829L164.42087,360.51842L166.34111,361.95857L168.98144,358.83824L167.30123,357.39809L171.62178,352.35755
				L169.46151,350.43734L171.62178,347.79706"/>
		</g>
</g></svg>