<?xml version="1.0" encoding="utf-8" standalone="no"?>
<!-- Creator: ESRI ArcMap 10.0.0.2414 -->
<!DOCTYPE svg PUBLIC "-//W3C//DTD SVG 1.1//EN"  "http://www.w3.org/Graphics/SVG/1.1/DTD/svg11.dtd">
<svg width="524.0420768pt" height="726.212708286pt" viewBox="32.15712744 58.022780857 524.0420768 726.212708286" enable-background="new 32.15712744 58.022780857 524.0420768 726.212708286"
	version="1.1" xmlns="http://www.w3.org/2000/svg" xmlns:xlink="http://www.w3.org/1999/xlink" >
	<g id="Couches">
		<g id="reservoirs">
			<path clip-path="url(#SVG_CP_2)" fill-opacity="0.2" fill="#07866D" fill-rule="evenodd" stroke="none" stroke-width="" stra="1.44018" stroke-miterlimit="10" stroke-linecap="round" stroke-linejoin="round" d="
				M512.46503,568.38057L522.78634,572.461L530.22729,569.82072L537.18817,569.5807L536.46808,572.70103L535.74799,576.78146L535.98802,582.54208
				L536.46808,587.34259L536.70811,590.46292L536.94814,597.18364L539.82851,601.98415L540.30857,604.14438L541.98878,613.02533
				L543.90902,622.86637L545.34921,634.14758L545.82927,641.10832L545.10918,650.94937L542.70887,673.03172L542.22881,678.79233
				L542.22881,686.23313L542.22881,693.91394L545.34921,709.99566L547.50948,721.27686L547.74951,723.91714L547.98954,725.3573L
				549.18969,729.91778L544.86915,732.79809L539.34845,736.15845L529.74723,742.87916L523.50643,746.9596L516.54555,738.79873L505.98421,744.55934
				L501.66366,746.9596L494.46275,751.04003L493.2626,747.67967L486.54174,752.24016L484.86153,755.60052L484.14144,756.56062L483.42135,763.28134
				L481.26107,764.72149L474.78025,766.64169L468.29943,767.84182L465.89912,768.08185L458.21815,766.88172L454.13763,761.84118
				L451.25727,763.28134L444.05635,759.44093L437.57553,758.2408L433.01495,758.2408L425.33398,758.48082L421.97355,754.16036L421.73352,753.68031
				L417.89303,744.31932L415.01267,743.11919L413.09242,745.03939L407.81175,745.51944L406.13154,746.9596L402.77111,747.19962L
				399.41069,748.63978L397.9705,747.67967L383.08862,751.76011L383.32865,753.20026L372.52728,757.76075L365.56639,760.88108L361.7259,753.44029
				L358.84554,750.55998L353.8049,745.51944L352.36472,744.31932L345.64386,739.27878L340.60322,735.43837L338.92301,733.99822L
				338.68298,733.75819L337.96289,733.03811L337.72286,731.59796L338.44295,730.63786L339.6431,729.43773L341.56335,728.71765L350.6845,726.07737
				L356.68526,724.87724L361.00581,723.67712L368.44676,721.75691L370.84706,720.55678L373.96746,722.71701L377.56791,721.75691
				L382.60855,719.11663L391.96974,714.07609L391.72971,712.63594L391.72971,711.19579L387.40916,695.59412L396.05026,692.71382
				L385.72895,667.99118L392.20977,665.11088L387.16913,651.18939L385.96898,646.38888L386.9291,644.7087L391.72971,639.90819L392.92986,638.46804
				L391.72971,635.3477L389.80947,629.58709L391.48968,629.34706L391.72971,629.10704L393.88999,629.10704L396.05026,629.10704L
				399.17066,627.42686L400.85087,627.42686L405.65148,621.66625L407.33169,617.34579L407.57172,600.54399L415.97279,595.02341L
				428.93443,587.10256L433.49501,583.98223L458.69821,575.34131L467.33931,572.461L475.26031,569.5807L488.46199,565.50026L502.62378,560.69975
				L507.90446,557.57942L512.46503,568.38057z"/>
			<path clip-path="url(#SVG_CP_2)" fill-opacity="0.2" fill="#07866D" fill-rule="evenodd" stroke="none" stroke-width="" stra="1.44018" stroke-miterlimit="10" stroke-linecap="round" stroke-linejoin="round" d="
				M66.48844,74.40793L72.72923,74.88798L76.32969,74.64796L80.65024,75.12801L90.73151,77.04821L101.77292,79.44847L105.13334,80.40857
				L110.65404,82.32877L113.77444,83.76893L132.25678,90.00959L162.50062,96.73031L182.18312,102.49092L181.94309,106.09131L181.70306,108.01151
				L182.18312,109.93171L183.6233,111.85192L184.82346,112.81202L190.34416,116.65243L196.82498,120.73287L198.98525,122.8931L199.46531,124.8133
				L198.74522,130.09386L198.26516,138.49476L197.54507,161.05716L196.58495,167.29783L194.42467,172.09834L191.54431,176.17877
				L189.144,180.01918L173.78205,208.10218L172.34187,210.98248L171.86181,212.90269L171.86181,215.06292L182.42315,248.42647L186.50367,261.14783
				L189.86409,271.94898L204.98601,320.43415L206.18617,324.99463L206.66623,326.43479L206.66623,328.35499L206.4262,330.27519L
				203.06577,336.99591L190.58419,359.31829L188.90397,355.47788L187.46379,352.11752L177.62254,354.27775L175.94233,362.91867L
				158.4201,358.35819L162.50062,352.35755L159.86029,344.19668L159.86029,340.35627L161.30047,332.1954L157.45998,313.4734L155.77977,307.23274
				L146.65861,290.67097L132.97688,266.66842L132.25678,264.50819L133.45694,263.30806L134.65709,262.34796L132.97688,256.58734
				L131.77672,253.46701L125.77596,247.94642L119.53517,246.02622L108.49377,245.78619L101.53289,246.26624L94.81203,248.18645L
				92.89179,250.10665L89.29133,253.94706L87.37109,256.10729L85.69087,258.26752L84.01066,260.9078L81.61036,265.94834L78.0099,276.26944
				L72.00914,286.59054L58.56743,277.70959L62.64795,273.62916L64.56819,269.06867L69.60883,251.06675L71.28905,246.02622L72.72923,243.86599
				L74.8895,241.70576L77.04978,239.54553L64.80822,234.02494L72.00914,217.22315L46.56591,206.66202L60.48768,180.01918L67.92862,183.85959
				L67.68859,186.97993L69.60883,188.6601L71.28905,190.58031L72.4892,191.06036L73.92938,191.06036L75.12953,190.34028L76.56972,189.38018
				L78.48996,188.18005L79.69011,187.21995L82.33045,183.13952L90.25145,170.41816L100.0927,174.4986L105.37337,168.73798L107.53365,165.61765
				L109.69392,160.57711L111.1341,155.53657L115.45465,144.97545L113.05435,142.81522L113.29438,137.53466L102.73304,132.49412L
				92.41173,126.25345L81.61036,132.97417L76.32969,130.09386L72.72923,127.93363L68.40868,125.05333L57.36728,115.69233L58.08737,110.17174
				L58.3274,107.05141L59.76759,100.33069L62.88798,85.68913L66.48844,74.40793z"/>
		</g>
</g></svg>