<?xml version="1.0" encoding="utf-8" standalone="no"?>
<!-- Creator: ESRI ArcMap 10.0.0.2414 -->
<!DOCTYPE svg PUBLIC "-//W3C//DTD SVG 1.1//EN"  "http://www.w3.org/Graphics/SVG/1.1/DTD/svg11.dtd">
<svg width="524.0420768pt" height="422.084414694pt" viewBox="32.15712744 210.086927653 524.0420768 422.084414694" enable-background="new 32.15712744 210.086927653 524.0420768 422.084414694"
	version="1.1" xmlns="http://www.w3.org/2000/svg" xmlns:xlink="http://www.w3.org/1999/xlink" >
	<g id="Couches">
		<g id="reservoirs">
			<clipPath id="SVG_CP_2">
				<path d="M574.39289,21.36228L21.36271,21.36228L21.36271,821.36753L574.39289,821.36753L574.39289,21.36228z"/>
			</clipPath>
			<path clip-path="url(#SVG_CP_2)" fill-opacity="0.2" fill="#2f4493" fill-rule="evenodd" stroke="#2f4493" stroke-width="1" stra="1.44018" stroke-miterlimit="10" stroke-linecap="round" stroke-linejoin="round" d="
				M145.69849,474.05052L148.57886,478.611L138.73761,486.29182L133.45694,500.2133L132.25678,506.93402L131.77672,508.85422L131.77672,511.49451
				L131.53669,512.69463L130.33654,516.05499L129.37642,525.17596L126.73608,524.45589L126.01599,526.85614L124.57581,534.53696
				L123.85572,538.13734L122.1755,540.77763L120.49529,547.25832L119.7752,551.09873L119.05511,554.21906L118.81508,554.93914L122.8956,559.49962
				L131.05663,561.1798L135.37718,554.45908L144.49834,559.49962L147.61873,564.06011L154.09956,576.54144L153.85953,583.26215L
				157.21995,588.78274L160.10032,586.62251L166.10108,581.10192L171.62178,575.10128L183.6233,580.38185L162.98068,600.30397L160.58038,601.74412
				L158.18007,600.54399L151.45922,593.34323L144.01828,600.06394L125.53593,573.66113L117.85496,578.22162L114.49453,574.86126
				L106.33349,574.62123L95.53212,585.66241L83.77063,591.42302L82.09042,592.86318L80.4102,595.26343L78.72999,598.38376L77.28981,603.90435
				L68.88874,611.10512L49.20624,622.86637L48.24612,619.74604L46.56591,613.50538L56.16713,601.98415L66.00838,588.54272L72.00914,584.22226
				L71.52908,582.30205L82.33045,567.18044L97.93243,556.61931L106.09346,565.74029L111.37413,560.93977L106.81356,557.09937L102.01295,553.01893
				L96.25222,544.37801L95.29209,543.89796L102.49301,526.13607L107.53365,517.25512L113.05435,515.33492L120.49529,517.01509L123.85572,510.5344
				L120.01523,506.45397L116.6548,503.33364L112.09423,504.05371L111.37413,503.33364L110.17398,503.81369L103.69316,511.49451L
				104.89331,506.21394L106.33349,503.81369L107.53365,500.45333L108.01371,498.05307L114.01447,491.09233L114.97459,484.85167L
				115.69468,474.77059L116.6548,474.53057L117.61493,474.29054L118.57505,474.77059L120.73532,476.21075L122.8956,472.37034L124.57581,469.49003
				L125.53593,468.52993L126.25602,467.80985L127.69621,466.84975L130.33654,466.3697L133.45694,465.88965L136.81736,465.40959L
				138.49758,465.16957L139.69773,464.20947L140.89788,466.3697L143.29819,469.49003L145.69849,474.05052z"/>
			<path clip-path="url(#SVG_CP_2)" fill-opacity="0.2" fill="#2f4493" fill-rule="evenodd" stroke="#2f4493" stroke-width="1" stra="1.44018" stroke-miterlimit="10" stroke-linecap="round" stroke-linejoin="round" d="
				M434.69516,219.6234L438.53565,221.30358L439.25574,220.58351L442.37614,221.54361L443.09623,222.74374L443.81632,223.94386L
				445.2565,225.62404L445.2565,226.34412L444.05635,226.82417L444.53641,229.70448L449.09699,229.22443L448.85696,225.62404L451.25727,225.38402
				L458.69821,225.14399L469.01952,227.0642L473.10004,228.0243L476.94053,229.46445L482.70126,232.34476L486.06168,234.50499L488.22196,235.70512
				L492.06244,238.82545L493.02257,239.06548L493.50263,239.3055L496.86305,238.58542L497.82318,238.58542L500.22348,238.82545L
				502.14372,238.3454L503.34388,238.58542L503.34388,239.3055L503.10385,239.78555L502.86382,240.2656L502.38375,240.74565L499.50339,241.94578
				L499.02333,242.90588L498.7833,243.38594L498.54327,244.10601L497.10308,248.6665L499.02333,249.86663L499.02333,249.38658L501.1836,244.82609
				L502.38375,245.06611L501.90369,245.78619L502.86382,246.50627L500.70354,250.34668L502.14372,251.78683L502.86382,250.10665
				L504.06397,250.34668L505.74418,250.34668L505.50415,251.78683L505.26412,252.50691L505.02409,253.46701L505.50415,253.70704
				L505.26412,255.86727L503.58391,255.38721L503.10385,257.30742L505.74418,258.0275L505.74418,260.66778L504.78406,260.42775L
				504.06397,260.42775L503.58391,260.42775L502.62378,260.42775L502.14372,260.9078L502.14372,262.34796L502.14372,263.30806L503.58391,263.54808
				L505.26412,263.78811L507.66442,263.30806L507.42439,262.82801L507.18436,261.38785L507.66442,261.14783L508.14449,261.86791
				L509.34464,264.26816L513.42516,261.86791L515.82546,259.9477L516.30552,259.70768L516.30552,259.22762L517.02561,258.74757L
				516.78558,257.30742L520.8661,255.38721L521.10613,254.66714L520.8661,253.70704L523.74647,253.70704L523.50643,252.02686L526.86686,252.26688
				L526.62683,253.22698L528.54707,253.70704L529.02714,252.26688L531.18741,252.50691L530.94738,254.42711L530.70735,255.86727
				L531.18741,255.86727L532.38756,256.10729L532.38756,256.58734L535.98802,258.0275L535.74799,258.50755L535.74799,259.22762L
				535.98802,259.70768L537.90826,261.38785L538.38832,260.66778L539.10841,261.14783L537.90826,262.58798L536.70811,266.42839L
				537.18817,267.86854L537.4282,268.3486L537.90826,268.82865L538.86838,268.82865L539.82851,268.10857L543.42896,270.98888L544.14905,269.3087
				L544.62912,269.78875L544.86915,269.3087L548.70963,272.18901L547.50948,274.34924L548.22957,274.82929L547.50948,276.26944L
				549.18969,277.22954L548.4696,279.6298L547.98954,280.10985L547.02942,280.5899L545.10918,280.34987L544.14905,282.51011L547.02942,283.95026
				L547.02942,284.19028L545.82927,287.55064L541.74875,297.39169L538.38832,295.47149L537.18817,297.39169L540.5486,299.79195L
				539.10841,303.63236L538.62835,306.03261L538.38832,308.19284L538.14829,309.87302L538.14829,311.5532L537.90826,314.43351L536.46808,320.19412
				L536.70811,322.8344L537.18817,324.51458L537.4282,326.67481L537.66823,329.07507L537.4282,332.91548L536.46808,333.1555L532.38756,333.39553
				L528.30704,334.59566L525.18665,324.03453L522.54631,313.4734L511.02485,316.11369L511.74494,314.67353L512.46503,311.5532L513.42516,306.75269
				L513.90522,303.1523L515.10537,302.91228L517.7457,298.83184L517.50567,298.83184L519.42592,296.91164L517.7457,295.95154L518.94586,294.27136
				L518.94586,294.03133L520.14601,292.59118L519.66595,292.11113L518.70583,290.911L517.50567,292.11113L517.02561,292.11113L516.54555,291.8711
				L515.3454,291.39105L515.58543,293.07123L516.06549,293.79131L516.30552,293.79131L514.86534,294.99144L516.06549,298.35179L
				514.62531,300.272L513.66519,301.47213L510.30476,304.83248L507.18436,307.95282L506.22424,309.15294L505.26412,310.35307L504.06397,312.27328
				L503.34388,313.95346L501.1836,317.79386L500.46351,318.99399L499.98345,319.71407L498.54327,320.9142L497.34311,321.8743L496.62302,322.35435
				L495.6629,323.07443L493.98269,324.27456L492.06244,325.47468L489.42211,327.63491L488.46199,328.11496L483.42135,329.31509L
				481.74113,329.55512L480.54098,329.79514L479.1008,330.51522L477.18056,331.71535L475.26031,333.1555L473.5801,335.07571L472.13992,336.51586
				L470.4597,338.19604L470.21967,338.67609L469.49958,339.63619L468.53946,340.83632L468.29943,339.87622L468.0594,339.87622L468.0594,338.43606
				L467.57934,338.43606L467.09928,335.79578L468.29943,331.95537L469.25955,329.79514L469.97964,327.63491L468.29943,324.51458
				L466.61922,320.43415L463.25879,320.67417L459.17827,320.9142L455.09775,321.15422L450.53717,321.39425L450.05711,318.27392L
				446.93672,318.27392L446.93672,316.83376L447.89684,311.31317L450.29714,312.03325L450.53717,313.4734L451.4973,313.4734L451.4973,312.99335
				L451.25727,311.31317L450.29714,311.07315L450.53717,309.15294L448.61693,308.67289L449.33702,304.83248L450.29714,301.95218
				L452.21739,298.59182L453.65757,295.47149L456.29791,290.911L456.77797,290.19092L456.77797,289.9509L457.97812,288.51074L459.17827,286.83057
				L461.57858,283.95026L463.97888,280.34987L465.65909,277.46957L466.13915,276.74949L468.29943,273.14911L469.49958,272.18901
				L470.93976,270.74885L471.17979,270.02877L471.17979,268.82865L470.93976,268.10857L469.49958,265.46829L469.49958,264.74821
				L469.73961,263.78811L469.97964,262.58798L469.73961,261.38785L469.49958,261.14783L469.49958,256.58734L469.25955,252.74693
				L466.13915,252.50691L465.89912,252.26688L465.41906,259.46765L465.41906,259.9477L464.45894,259.9477L464.21891,262.58798L461.33855,262.58798
				L460.85848,266.18837L458.45818,266.18837L454.61769,266.66842L452.21739,267.14847L448.3769,267.14847L447.17675,266.66842L
				445.73657,264.26816L444.53641,263.78811L442.8562,264.26816L440.69593,265.22826L437.81556,266.42839L432.77492,267.38849L429.41449,267.86854
				L425.57401,268.10857L419.33322,269.54872L418.85315,266.18837L418.37309,263.06803L417.653,260.9078L417.17294,256.10729L419.33322,255.62724
				L419.33322,254.18709L419.33322,252.26688L416.93291,252.26688L417.41297,248.90652L418.13306,247.22635L420.05331,244.58606
				L420.29334,244.58606L421.01343,243.62596L422.21358,242.90588L423.41373,241.46573L424.85392,240.2656L425.81404,240.2656L426.05407,240.2656
				L426.2941,242.66586L426.53413,244.58606L426.77416,245.30614L428.6944,245.54617L429.17446,245.30614L431.09471,245.30614L431.57477,240.74565
				L433.25498,239.54553L433.25498,238.58542L431.8148,238.58542L430.13459,238.58542L428.45437,238.58542L428.45437,238.3454L428.45437,237.86535
				L428.6944,235.46509L430.85468,235.46509L433.49501,235.46509L433.73504,233.30486L433.73504,229.70448L431.09471,228.74438L
				432.53489,226.10409L433.25498,222.98376L432.53489,222.74374L432.77492,220.58351L434.69516,219.6234z"/>
		</g>
</g></svg>