<?xml version="1.0" encoding="utf-8" standalone="no"?>
<!-- Creator: ESRI ArcMap 10.0.0.2414 -->
<!DOCTYPE svg PUBLIC "-//W3C//DTD SVG 1.1//EN"  "http://www.w3.org/Graphics/SVG/1.1/DTD/svg11.dtd">
<svg width="524.0420768pt" height="229.223824817pt" viewBox="32.15712744 306.517222591 524.0420768 229.223824817" enable-background="new 32.15712744 306.517222591 524.0420768 229.223824817"
	version="1.1" xmlns="http://www.w3.org/2000/svg" xmlns:xlink="http://www.w3.org/1999/xlink" >
	<g id="Couches">
		<g id="cont_2">
			<path clip-path="url(#SVG_CP_2)" fill="none" stroke="#999999" stroke-width="0.96012" stroke-miterlimit="10" stroke-linecap="round" stroke-linejoin="round" d="
				M76.08966,430.36586L76.56972,430.36586L76.56972,430.60589L76.32969,430.60589L76.32969,430.84591L75.6096,430.84591L75.6096,430.60589
				L76.08966,430.60589L76.08966,430.36586"/>
			<path clip-path="url(#SVG_CP_2)" fill="none" stroke="#999999" stroke-width="0.96012" stroke-miterlimit="10" stroke-linecap="round" stroke-linejoin="round" d="
				M95.77215,428.92571L78.97002,428.92571L78.97002,429.16573L78.48996,429.16573L78.48996,429.40576L76.56972,429.40576L76.56972,429.64578
				L76.32969,429.64578L76.32969,429.88581L76.08966,429.88581L76.08966,430.36586L74.16941,430.36586L74.16941,430.60589L73.92938,430.60589
				L73.92938,430.84591L73.44932,430.84591L73.44932,431.08594L73.20929,431.08594L73.20929,431.32596L72.96926,431.32596L72.96926,431.56599
				L72.72923,431.56599L72.72923,431.80601L54.48692,431.80601L54.48692,431.56599L53.04673,431.56599L53.04673,431.32596L52.08661,431.32596
				L52.08661,431.08594L50.88646,431.08594L50.88646,430.84591L49.20624,430.84591L49.20624,431.08594L48.72618,431.08594L48.72618,431.32596
				L48.24612,431.32596L48.24612,431.56599L47.76606,431.56599L47.76606,431.80601L47.286,431.80601L47.286,433.24617L47.04597,433.24617
				L47.04597,435.16637L46.80594,435.16637L46.80594,436.84655L46.56591,436.84655L46.56591,408.04348L46.80594,408.04348L46.80594,407.80346
				L47.04597,407.80346L47.04597,407.32341L47.286,407.32341L47.286,407.08338L47.52603,407.08338L47.52603,406.84335L47.76606,406.84335
				L47.76606,406.60333L48.00609,406.60333L48.00609,406.3633L48.24612,406.3633L48.24612,406.12328L48.48615,406.12328L48.48615,405.88325
				L48.72618,405.88325L48.72618,405.64323L48.96621,405.64323L48.96621,405.4032L49.20624,405.4032L49.20624,405.16318L49.68631,405.16318
				L49.68631,404.92315L49.92634,404.92315L49.92634,404.68312L50.16637,404.68312L50.16637,404.4431L50.64643,404.4431L50.64643,404.20307
				L51.12649,404.20307L51.12649,403.96305L51.36652,403.96305L51.36652,403.483L51.84658,403.483L51.84658,403.24297L52.08661,403.24297
				L52.08661,403.00294L52.8067,403.00294L52.8067,402.76292L53.04673,402.76292L53.04673,402.52289L54.00685,402.52289L54.00685,402.28287
				L54.24688,402.28287L54.24688,402.04284L54.48692,402.04284L54.48692,401.80282L54.72695,401.80282L54.72695,401.56279L54.96698,401.56279
				L54.96698,401.32277L55.20701,401.32277L55.20701,401.08274L55.44704,401.08274L55.44704,400.84271L55.68707,400.84271L55.68707,400.60269
				L55.9271,400.60269L55.9271,400.36266L56.16713,400.36266L56.16713,400.12264L56.40716,400.12264L56.40716,399.64259L56.64719,399.64259
				L56.64719,399.40256L57.12725,399.40256L57.12725,399.16254L57.36728,399.16254L57.36728,398.92251L57.60731,398.92251L57.60731,398.68248
				L58.08737,398.68248L58.08737,398.44246L58.3274,398.44246L58.3274,398.20243L58.56743,398.20243L58.56743,397.96241L58.80746,397.96241
				L58.80746,397.48236L59.04749,397.48236L59.04749,397.24233L59.28752,397.24233L59.28752,397.00231L59.52755,397.00231L59.52755,396.76228
				L60.00762,396.76228L60.00762,396.28223L60.24765,396.28223L60.24765,395.80218L60.48768,395.80218L60.48768,395.56215L60.96774,395.56215
				L60.96774,395.32213L61.4478,395.32213L61.4478,395.0821L61.68783,395.0821L61.68783,394.84208L61.92786,394.84208L61.92786,394.60205
				L62.16789,394.60205L62.16789,394.122L62.40792,394.122L62.40792,393.88197L62.64795,393.88197L62.64795,393.64195L62.88798,393.64195
				L62.88798,393.40192L63.36804,393.40192L63.36804,393.1619L63.60807,393.1619L63.60807,392.92187L63.8481,392.92187L63.8481,392.68185
				L64.08813,392.68185L64.08813,392.20179L64.32816,392.20179L64.32816,391.96177L65.04826,391.96177L65.04826,391.72174L65.28829,391.72174
				L65.28829,391.48172L65.76835,391.48172L65.76835,391.24169L66.00838,391.24169L66.00838,391.00167L66.24841,391.00167L66.24841,390.76164
				L66.48844,390.76164L66.48844,390.52161L66.72847,390.52161L66.72847,390.28159L66.9685,390.28159L66.9685,390.04156L67.20853,390.04156
				L67.20853,389.80154L67.44856,389.80154L67.44856,389.32149L67.68859,389.32149L67.68859,388.84144L67.92862,388.84144L67.92862,388.36138
				L68.16865,388.36138L68.16865,387.88133L68.64871,387.88133L68.64871,387.16126L68.88874,387.16126L68.88874,386.68121L69.12877,386.68121
				L69.12877,386.20115L69.3688,386.20115L69.3688,385.7211L69.60883,385.7211L69.60883,385.48108L69.84886,385.48108L69.84886,385.00103
				L70.08889,385.00103L70.08889,384.52098L70.32893,384.52098L70.32893,384.28095L70.56896,384.28095L70.56896,384.04092L70.80899,384.04092
				L70.80899,383.8009L71.04902,383.8009L71.04902,383.56087L71.28905,383.56087L71.28905,383.32085L71.52908,383.32085L71.52908,383.08082
				L71.76911,383.08082L71.76911,382.8408L72.00914,382.8408L72.00914,382.60077L72.4892,382.60077L72.4892,382.36075L72.72923,382.36075
				L72.72923,382.12072L73.20929,382.12072L73.20929,381.88069L73.68935,381.88069L73.68935,381.64067L73.92938,381.64067L73.92938,381.40064
				L74.40944,381.40064L74.40944,381.16062L74.64947,381.16062L74.64947,380.68057L74.8895,380.68057L74.8895,380.44054L75.36957,380.44054
				L75.36957,380.20051L75.6096,380.20051L75.6096,379.96049L76.32969,379.96049L76.32969,379.72046L76.80975,379.72046L76.80975,379.48044
				L77.28981,379.48044L77.28981,379.24041L77.52984,379.24041L77.52984,379.00039L77.76987,379.00039L77.76987,378.76036L78.24993,378.76036
				L78.24993,378.52034L78.72999,378.52034L78.72999,378.28031L79.21005,378.28031L79.21005,378.04028L79.45008,378.04028L79.45008,377.80026
				L79.93014,377.80026L79.93014,377.56023L80.4102,377.56023L80.4102,377.08018L80.89027,377.08018L80.89027,376.84016L81.37033,376.84016
				L81.37033,376.60013L82.09042,376.60013L82.09042,376.36011L82.57048,376.36011L82.57048,376.12008L82.81051,376.12008L82.81051,375.88005
				L83.05054,375.88005L83.05054,375.64003L83.77063,375.64003L83.77063,375.4L84.01066,375.4L84.01066,375.15998L84.49072,375.15998
				L84.49072,374.91995L84.97078,374.91995L84.97078,374.67993L85.45084,374.67993L85.45084,374.19988L85.69087,374.19988L85.69087,373.95985
				L85.93091,373.95985L85.93091,373.71982L86.17094,373.71982L86.17094,373.23977L86.41097,373.23977L86.41097,372.99975L86.651,372.99975
				L86.651,372.75972L86.89103,372.75972L86.89103,372.5197L87.13106,372.5197L87.13106,372.27967L87.61112,372.27967L87.61112,372.03965
				L87.85115,372.03965L87.85115,371.79962L88.09118,371.79962L88.09118,371.55959L88.33121,371.55959L88.33121,371.07954L88.57124,371.07954
				L88.57124,370.83952L88.81127,370.83952L88.81127,370.59949L89.0513,370.59949L89.0513,370.35947L89.29133,370.35947L89.29133,370.11944
				L89.53136,370.11944L89.53136,369.87942L89.77139,369.87942L89.77139,369.39936L90.01142,369.39936L90.01142,369.15934L90.25145,369.15934
				L90.25145,368.67929L90.49148,368.67929L90.49148,368.43926L90.73151,368.43926L90.73151,368.19924L91.21158,368.19924L91.21158,367.95921
				L91.45161,367.95921L91.45161,367.47916L91.69164,367.47916L91.69164,367.23913L91.93167,367.23913L91.93167,366.99911L92.41173,366.99911
				L92.41173,366.75908L93.13182,366.75908L93.13182,366.51906L93.61188,366.51906L93.61188,366.27903L95.77215,366.27903L95.77215,366.51906
				L95.29209,366.51906L95.29209,366.75908L94.572,366.75908L94.572,366.99911L94.33197,366.99911L94.33197,367.71918L94.572,367.71918
				L94.572,369.39936L95.05206,369.39936L95.05206,371.07954L95.29209,371.07954L95.29209,372.75972L95.53212,372.75972L95.53212,374.4399
				L95.77215,374.4399L95.77215,376.12008L96.01218,376.12008L96.01218,377.80026L96.25222,377.80026L96.25222,379.48044L96.49225,379.48044
				L96.49225,381.16062L96.73228,381.16062L96.73228,382.8408L96.97231,382.8408L96.97231,384.28095L97.21234,384.28095L97.21234,386.20115
				L97.45237,386.20115L97.45237,387.64131L97.6924,387.64131L97.6924,389.56151L97.93243,389.56151L97.93243,391.00167L98.17246,391.00167
				L98.17246,392.92187L98.41249,392.92187L98.41249,394.36202L98.89255,394.36202L98.89255,396.28223L99.13258,396.28223L99.13258,397.72238
				L99.37261,397.72238L99.37261,399.40256L99.61264,399.40256L99.61264,401.08274L99.85267,401.08274L99.85267,402.76292L100.0927,402.76292
				L100.0927,404.4431L100.33273,404.4431L100.33273,406.12328L100.57276,406.12328L100.57276,407.80346L100.81279,407.80346L100.81279,409.48364
				L101.05282,409.48364L101.05282,410.92379L101.29285,410.92379L101.29285,412.84399L101.53289,412.84399L101.53289,414.28415
				L101.77292,414.28415L101.77292,414.52417L101.53289,414.52417L101.53289,416.92443L101.29285,416.92443L101.29285,419.56471
				L101.05282,419.56471L101.05282,421.72494L100.81279,421.72494L100.81279,424.1252L100.57276,424.1252L100.57276,426.76548L100.33273,426.76548
				L100.33273,428.68568L95.77215,428.68568L95.77215,428.92571"/>
			<path clip-path="url(#SVG_CP_2)" fill="none" stroke="#999999" stroke-width="0.96012" stroke-miterlimit="10" stroke-linecap="round" stroke-linejoin="round" d="
				M78.48996,429.40576L78.97002,429.40576L78.97002,429.16573L95.77215,429.16573L95.77215,428.92571L100.57276,428.92571L100.57276,429.16573
				L100.81279,429.16573L100.81279,429.40576L101.05282,429.40576L101.05282,429.88581L101.29285,429.88581L101.29285,430.36586
				L101.53289,430.36586L101.53289,430.60589L101.77292,430.60589L101.77292,430.84591L102.01295,430.84591L102.01295,431.08594
				L102.25298,431.08594L102.25298,431.32596L102.73304,431.32596L102.73304,431.56599L102.97307,431.56599L102.97307,431.80601
				L103.2131,431.80601L103.2131,432.04604L103.45313,432.04604L103.45313,432.52609L103.69316,432.52609L103.69316,432.76612L103.93319,432.76612
				L103.93319,433.00614L104.17322,433.00614L104.17322,433.24617L104.41325,433.24617L104.41325,433.48619L104.65328,433.48619
				L104.65328,433.72622L104.89331,433.72622L104.89331,434.20627L105.13334,434.20627L105.13334,434.4463L105.37337,434.4463L105.37337,434.92635
				L105.6134,434.92635L105.6134,435.16637L105.85343,435.16637L105.85343,435.4064L106.09346,435.4064L106.09346,435.64642L106.57352,435.64642
				L106.57352,435.88645L106.81356,435.88645L106.81356,436.12647L107.05359,436.12647L107.05359,436.3665L107.29362,436.3665L107.29362,436.60653
				L107.53365,436.60653L107.53365,436.84655L107.77368,436.84655L107.77368,437.3266L108.01371,437.3266L108.01371,437.56663L108.25374,437.56663
				L108.25374,438.04668L108.49377,438.04668L108.49377,438.2867L108.7338,438.2867L108.7338,438.52673L109.45389,438.52673L109.45389,438.76676
				L111.1341,438.76676L111.1341,439.00678L112.57429,439.00678L112.57429,439.24681L114.01447,439.24681L114.01447,439.48683L115.45465,439.48683
				L115.45465,439.72686L116.89483,439.72686L116.89483,439.96688L118.33502,439.96688L118.33502,440.20691L119.7752,440.20691L
				119.7752,440.44693L121.69544,440.44693L121.69544,440.68696L125.53593,440.68696L125.53593,440.92699L129.13639,440.92699L129.13639,441.16701
				L133.69697,441.16701L133.69697,440.92699L137.05739,440.92699L137.05739,440.68696L140.17779,440.68696L140.17779,440.44693
				L146.17855,440.44693L146.17855,440.68696L149.77901,440.68696L149.77901,440.92699L153.37946,440.92699L153.37946,441.16701
				L156.97992,441.16701L156.97992,441.40704L160.58038,441.40704L160.58038,441.88709L163.70077,441.88709L163.70077,441.40704
				L164.42087,441.40704L164.42087,441.16701L165.38099,441.16701L165.38099,440.92699L166.34111,440.92699L166.34111,441.16701
				L166.10108,441.16701L166.10108,441.40704L165.86105,441.40704L165.86105,441.88709L165.62102,441.88709L165.62102,442.36714
				L165.38099,442.36714L165.38099,442.60717L165.14096,442.60717L165.14096,442.84719L164.6609,442.84719L164.6609,443.08722L164.42087,443.08722
				L164.42087,443.32724L164.18084,443.32724L164.18084,443.56727L163.94081,443.56727L163.94081,443.80729L163.70077,443.80729
				L163.70077,444.04732L163.46074,444.04732L163.46074,444.28734L162.74065,444.28734L162.74065,444.52737L162.50062,444.52737
				L162.50062,444.7674L162.02056,444.7674L162.02056,445.00742L161.5405,445.00742L161.5405,445.24745L160.82041,445.24745L160.82041,445.7275
				L160.58038,445.7275L160.58038,446.20755L160.34035,446.20755L160.34035,446.6876L160.10032,446.6876L160.10032,446.92763L159.86029,446.92763
				L159.86029,447.16765L159.38023,447.16765L159.38023,447.40768L158.66013,447.40768L158.66013,447.6477L158.18007,447.6477L158.18007,447.88773
				L157.70001,447.88773L157.70001,448.12775L157.21995,448.12775L157.21995,448.36778L156.97992,448.36778L156.97992,448.6078L
				156.49986,448.6078L156.49986,448.84783L156.25983,448.84783L156.25983,449.32788L155.77977,449.32788L155.77977,449.56791L155.05968,449.56791
				L155.05968,449.80793L154.57962,449.80793L154.57962,450.04796L154.33959,450.04796L154.33959,450.28798L153.6195,450.28798L
				153.6195,450.52801L153.37946,450.52801L153.37946,450.76803L152.8994,450.76803L152.8994,451.00806L152.17931,451.00806L152.17931,451.24809
				L151.45922,451.24809L151.45922,451.48811L150.25907,451.48811L150.25907,451.72814L149.29895,451.72814L149.29895,451.96816
				L148.81889,451.96816L148.81889,452.20819L148.57886,452.20819L148.57886,452.44821L148.09879,452.44821L148.09879,452.68824
				L147.3787,452.68824L147.3787,453.16829L147.13867,453.16829L147.13867,453.64834L146.89864,453.64834L146.89864,453.88837L146.65861,453.88837
				L146.65861,454.12839L146.41858,454.12839L146.41858,454.36842L146.17855,454.36842L146.17855,454.84847L145.93852,454.84847
				L145.93852,455.0885L145.69849,455.0885L145.69849,455.32852L145.45846,455.32852L145.45846,455.56855L145.21843,455.56855L145.21843,455.80857
				L144.9784,455.80857L144.9784,456.0486L144.49834,456.0486L144.49834,456.28862L143.29819,456.28862L143.29819,456.52865L143.05815,456.52865
				L143.05815,456.28862L142.81812,456.28862L142.81812,456.52865L140.89788,456.52865L140.89788,456.28862L139.69773,456.28862
				L139.69773,456.52865L139.4577,456.52865L139.4577,456.28862L139.21767,456.28862L139.21767,456.52865L138.73761,456.52865L138.73761,456.28862
				L138.25755,456.28862L138.25755,456.52865L137.77748,456.52865L137.77748,457.0087L137.05739,457.0087L137.05739,457.24873L132.01675,457.24873
				L132.01675,457.0087L129.37642,457.0087L129.37642,456.52865L129.13639,456.52865L129.13639,457.0087L128.4163,457.0087L128.4163,457.24873
				L127.93624,457.24873L127.93624,457.48875L127.21614,457.48875L127.21614,457.72878L126.49605,457.72878L126.49605,457.9688L
				125.77596,457.9688L125.77596,458.20883L123.85572,458.20883L123.85572,458.44885L123.37566,458.44885L123.37566,458.20883L121.21538,458.20883
				L121.21538,457.9688L120.97535,457.9688L120.97535,458.20883L120.73532,458.20883L120.73532,457.9688L119.05511,457.9688L119.05511,457.72878
				L118.33502,457.72878L118.33502,457.9688L117.3749,457.9688L117.3749,458.20883L116.6548,458.20883L116.6548,458.44885L116.17474,458.44885
				L116.17474,458.68888L115.69468,458.68888L115.69468,458.9289L115.45465,458.9289L115.45465,459.16893L114.97459,459.16893L114.97459,459.40896
				L114.73456,459.40896L114.73456,459.64898L114.49453,459.64898L114.49453,459.88901L114.01447,459.88901L114.01447,460.12903
				L113.29438,460.12903L113.29438,460.36906L113.05435,460.36906L113.05435,460.84911L112.81432,460.84911L112.81432,461.08913
				L112.57429,461.08913L112.57429,461.32916L112.33426,461.32916L112.33426,461.56919L112.09423,461.56919L112.09423,461.80921
				L111.8542,461.80921L111.8542,462.04924L111.61416,462.04924L111.61416,462.28926L111.37413,462.28926L111.37413,462.52929L111.1341,462.52929
				L111.1341,462.76931L110.89407,462.76931L110.89407,463.00934L110.65404,463.00934L110.65404,463.24936L110.17398,463.24936L
				110.17398,463.48939L109.21386,463.48939L109.21386,463.72942L108.7338,463.72942L108.7338,463.96944L108.25374,463.96944L108.25374,464.44949
				L107.77368,464.44949L107.77368,464.68952L107.29362,464.68952L107.29362,464.92954L106.81356,464.92954L106.81356,465.16957
				L106.09346,465.16957L106.09346,465.40959L105.37337,465.40959L105.37337,465.64962L104.89331,465.64962L104.89331,465.88965
				L104.41325,465.88965L104.41325,466.12967L103.93319,466.12967L103.93319,466.3697L103.45313,466.3697L103.45313,466.60972L102.97307,466.60972
				L102.97307,466.84975L102.01295,466.84975L102.01295,467.08977L101.53289,467.08977L101.53289,467.3298L101.05282,467.3298L101.05282,467.56983
				L100.57276,467.56983L100.57276,467.80985L100.0927,467.80985L100.0927,468.2899L99.61264,468.2899L99.61264,468.52993L99.13258,468.52993
				L99.13258,468.76995L98.17246,468.76995L98.17246,469.00998L97.6924,469.00998L97.6924,469.25L97.21234,469.25L97.21234,469.49003
				L96.73228,469.49003L96.73228,469.73006L96.01218,469.73006L96.01218,469.97008L95.53212,469.97008L95.53212,470.21011L94.572,470.21011
				L94.572,470.45013L94.09194,470.45013L94.09194,470.69016L93.61188,470.69016L93.61188,470.93018L92.89179,470.93018L92.89179,471.17021
				L92.1717,471.17021L92.1717,471.41023L91.45161,471.41023L91.45161,471.65026L90.49148,471.65026L90.49148,472.13031L89.77139,472.13031
				L89.77139,472.37034L89.0513,472.37034L89.0513,472.61036L86.41097,472.61036L86.41097,472.85039L83.05054,472.85039L83.05054,473.09041
				L81.1303,473.09041L81.1303,472.85039L80.89027,472.85039L80.89027,473.09041L80.4102,473.09041L80.4102,472.85039L78.0099,472.85039
				L78.0099,473.09041L77.04978,473.09041L77.04978,472.85039L73.92938,472.85039L73.92938,472.61036L72.4892,472.61036L72.4892,472.37034
				L70.80899,472.37034L70.80899,472.13031L69.60883,472.13031L69.60883,472.37034L69.12877,472.37034L69.12877,472.61036L68.16865,472.61036
				L68.16865,472.85039L67.44856,472.85039L67.44856,472.61036L66.72847,472.61036L66.72847,472.37034L66.24841,472.37034L66.24841,472.13031
				L64.32816,472.13031L64.32816,472.37034L63.8481,472.37034L63.8481,472.61036L63.60807,472.61036L63.60807,472.85039L63.36804,472.85039
				L63.36804,473.09041L62.88798,473.09041L62.88798,473.33044L62.16789,473.33044L62.16789,473.57046L61.68783,473.57046L61.68783,473.81049
				L61.4478,473.81049L61.4478,473.57046L57.60731,473.57046L57.60731,473.33044L56.64719,473.33044L56.64719,473.09041L56.40716,473.09041
				L56.40716,472.85039L56.16713,472.85039L56.16713,472.61036L55.9271,472.61036L55.9271,472.37034L54.96698,472.37034L54.96698,472.13031
				L54.24688,472.13031L54.24688,471.65026L53.04673,471.65026L53.04673,471.41023L51.84658,471.41023L51.84658,471.65026L51.36652,471.65026
				L51.36652,471.41023L50.88646,471.41023L50.88646,471.17021L50.4064,471.17021L50.4064,470.45013L50.16637,470.45013L50.16637,469.97008
				L49.92634,469.97008L49.92634,469.73006L49.20624,469.73006L49.20624,469.49003L48.96621,469.49003L48.96621,469.00998L48.72618,469.00998
				L48.72618,468.76995L48.48615,468.76995L48.48615,468.52993L48.24612,468.52993L48.24612,468.2899L48.00609,468.2899L48.00609,467.80985
				L47.76606,467.80985L47.76606,467.56983L47.52603,467.56983L47.52603,467.3298L47.286,467.3298L47.286,466.84975L47.04597,466.84975
				L47.04597,466.3697L47.286,466.3697L47.286,465.88965L47.04597,465.88965L47.04597,465.40959L46.80594,465.40959L46.80594,464.68952
				L46.56591,464.68952L46.56591,438.04668L47.04597,438.04668L47.04597,438.2867L47.76606,438.2867L47.76606,438.52673L48.48615,438.52673
				L48.48615,438.76676L49.92634,438.76676L49.92634,438.52673L51.60655,438.52673L51.60655,438.2867L53.04673,438.2867L53.04673,438.04668
				L54.00685,438.04668L54.00685,436.84655L54.24688,436.84655L54.24688,436.12647L54.48692,436.12647L54.48692,435.16637L54.72695,435.16637
				L54.72695,434.4463L54.96698,434.4463L54.96698,433.24617L55.20701,433.24617L55.20701,432.28607L55.44704,432.28607L55.44704,432.04604
				L75.12953,432.04604L75.12953,431.80601L75.36957,431.80601L75.36957,431.56599L75.6096,431.56599L75.6096,431.32596L76.08966,431.32596
				L76.08966,431.08594L77.28981,431.08594L77.28981,430.84591L77.52984,430.84591L77.52984,430.60589L77.76987,430.60589L77.76987,430.36586
				L78.0099,430.36586L78.0099,429.88581L78.24993,429.88581L78.24993,429.64578L78.48996,429.64578L78.48996,429.40576"/>
		</g>
</g></svg>