<?xml version="1.0" encoding="utf-8" standalone="no"?>
<!-- Creator: ESRI ArcMap 10.0.0.2414 -->
<!DOCTYPE svg PUBLIC "-//W3C//DTD SVG 1.1//EN"  "http://www.w3.org/Graphics/SVG/1.1/DTD/svg11.dtd">
<svg width="524.0420768pt" height="428.377337592pt" viewBox="32.15712744 206.940466204 524.0420768 428.377337592" enable-background="new 32.15712744 206.940466204 524.0420768 428.377337592"
	version="1.1" xmlns="http://www.w3.org/2000/svg" xmlns:xlink="http://www.w3.org/1999/xlink" >
	<g id="Couches">
		<g id="cont_2">
			<path clip-path="url(#SVG_CP_2)" fill="none" stroke="#999999" stroke-width="0.96012" stroke-miterlimit="10" stroke-linecap="round" stroke-linejoin="round" d="
				M373.96746,401.08274L369.40688,401.08274L369.40688,397.96241L368.92682,397.96241L368.92682,397.24233L367.00657,397.24233
				L367.00657,397.48236L364.36624,397.48236L364.36624,397.96241L361.7259,397.96241L361.7259,398.20243L360.04569,398.20243L360.04569,398.68248
				L358.12545,398.68248L358.12545,399.16254L356.9253,399.16254L356.9253,398.68248L355.48511,398.68248L355.48511,398.20243L353.56487,398.20243
				L353.56487,398.68248L352.84478,398.68248L352.84478,394.36202L353.08481,394.36202L353.08481,389.80154L353.56487,389.80154
				L353.56487,387.40128L354.04493,387.40128L354.04493,384.761L354.28496,384.761L354.28496,383.56087L354.04493,383.56087L354.04493,383.32085
				L353.56487,383.32085L353.56487,382.8408L353.08481,382.8408L353.08481,382.60077L352.84478,382.60077L352.84478,382.12072L352.36472,382.12072
				L352.36472,381.64067L351.88466,381.64067L351.88466,381.40064L351.64463,381.40064L351.64463,380.92059L351.16456,380.92059
				L351.16456,380.44054L350.92453,380.44054L350.92453,380.20051L350.44447,380.20051L350.44447,379.72046L349.96441,379.72046
				L349.96441,379.48044L349.72438,379.48044L349.72438,379.00039L349.24432,379.00039L349.24432,378.28031L349.00429,378.28031
				L349.00429,377.80026L348.52423,377.80026L348.52423,377.56023L348.04417,377.56023L348.04417,376.60013L347.80414,376.60013
				L347.80414,376.36011L347.32408,376.36011L347.32408,375.88005L347.08405,375.88005L347.08405,375.64003L346.60399,375.64003
				L346.60399,375.15998L345.88389,375.15998L345.88389,374.67993L345.1638,374.67993L345.1638,374.4399L344.68374,374.4399L344.68374,373.95985
				L343.96365,373.95985L343.96365,373.71982L343.00353,373.71982L343.00353,373.23977L342.28344,373.23977L342.28344,372.75972
				L341.56335,372.75972L341.56335,372.5197L340.84325,372.5197L340.84325,372.03965L340.12316,372.03965L340.12316,371.55959L339.16304,371.55959
				L339.16304,371.31957L338.92301,371.31957L338.92301,370.83952L338.20292,370.83952L338.20292,370.59949L337.2428,370.59949L
				337.2428,370.11944L336.52271,370.11944L336.52271,369.63939L335.80261,369.63939L335.80261,369.39936L335.08252,369.39936L335.08252,368.91931
				L334.1224,368.91931L334.1224,368.67929L333.88237,368.67929L333.88237,368.19924L333.16228,368.19924L333.16228,367.71918L332.20216,367.71918
				L332.20216,367.47916L331.48207,367.47916L331.48207,366.99911L330.76198,366.99911L330.76198,366.75908L330.04188,366.75908
				L330.04188,366.27903L329.32179,366.27903L329.32179,365.79898L328.36167,365.79898L328.36167,365.55895L328.12164,365.55895
				L328.12164,365.0789L327.40155,365.0789L327.40155,364.83888L326.44143,364.83888L326.44143,364.35883L325.72134,364.35883L325.72134,363.87878
				L325.00124,363.87878L325.00124,363.63875L324.28115,363.63875L324.28115,363.1587L323.32103,363.1587L323.32103,362.67865L323.081,362.67865
				L323.081,362.43862L323.32103,362.43862L323.32103,361.71855L323.80109,361.71855L323.80109,360.75844L324.28115,360.75844L324.28115,360.51842
				L324.52118,360.51842L324.52118,359.79834L325.00124,359.79834L325.00124,358.83824L325.24127,358.83824L325.24127,358.11816
				L325.72134,358.11816L325.72134,357.87814L326.2014,357.87814L326.2014,356.91803L326.44143,356.91803L326.44143,356.19796L326.92149,356.19796
				L326.92149,355.95793L327.40155,355.95793L327.40155,354.99783L327.64158,354.99783L327.64158,354.27775L328.12164,354.27775
				L328.12164,353.7977L328.36167,353.7977L328.36167,353.07762L328.84173,353.07762L328.84173,352.35755L329.32179,352.35755L329.32179,351.63747
				L328.84173,351.63747L328.84173,351.15742L328.12164,351.15742L328.12164,350.91739L327.40155,350.91739L327.40155,350.43734
				L326.92149,350.43734L326.92149,349.95729L326.2014,349.95729L326.2014,349.71727L325.24127,349.71727L325.24127,349.23722L325.00124,349.23722
				L325.00124,348.99719L324.28115,348.99719L324.28115,348.51714L323.32103,348.51714L323.32103,348.03709L323.081,348.03709L323.081,347.79706
				L322.36091,347.79706L322.36091,347.31701L321.40079,347.31701L321.40079,346.83696L321.16076,346.83696L321.16076,346.59693
				L320.44067,346.59693L320.44067,346.11688L319.48054,346.11688L319.48054,345.87686L319.24051,345.87686L319.24051,345.39681
				L318.52042,345.39681L318.52042,344.91676L318.04036,344.91676L318.04036,344.67673L316.84021,344.67673L316.84021,344.91676
				L316.36015,344.91676L316.36015,345.39681L316.12012,345.39681L316.12012,345.87686L315.40003,345.87686L315.40003,346.11688
				L314.91996,346.11688L314.91996,346.59693L314.4399,346.59693L314.4399,346.83696L314.19987,346.83696L314.19987,347.31701L313.47978,347.31701
				L313.47978,347.79706L312.99972,347.79706L312.99972,348.03709L312.51966,348.03709L312.51966,348.51714L312.27963,348.51714
				L312.27963,348.99719L311.55954,348.99719L311.55954,349.23722L311.07948,349.23722L311.07948,349.71727L310.59942,349.71727
				L310.59942,349.95729L310.35939,349.95729L310.35939,350.43734L309.63929,350.43734L309.63929,350.91739L309.15923,350.91739
				L309.15923,351.15742L308.67917,351.15742L308.67917,351.63747L308.43914,351.63747L308.43914,351.8775L307.47902,351.8775L307.47902,352.35755
				L307.23899,352.35755L307.23899,352.8376L306.75893,352.8376L306.75893,353.07762L306.5189,353.07762L306.5189,352.35755L306.03884,352.35755
				L306.03884,351.63747L305.55878,351.63747L305.55878,350.91739L305.31875,350.91739L305.31875,350.43734L304.83869,350.43734
				L304.83869,349.95729L304.59865,349.95729L304.59865,349.23722L304.11859,349.23722L304.11859,348.99719L303.63853,348.99719
				L303.63853,348.51714L303.3985,348.51714L303.3985,348.03709L302.19835,348.03709L302.19835,347.79706L300.27811,347.79706L300.27811,347.31701
				L298.35786,347.31701L298.35786,346.83696L296.67765,346.83696L296.67765,346.59693L295.71753,346.59693L295.71753,346.11688
				L294.51738,346.11688L294.51738,345.87686L293.31722,345.87686L293.31722,345.39681L292.83716,345.39681L292.83716,344.91676
				L292.11707,344.91676L292.11707,344.67673L291.63701,344.67673L291.63701,344.19668L291.39698,344.19668L291.39698,343.95665
				L290.91692,343.95665L290.91692,343.4766L291.39698,343.4766L291.39698,342.99655L291.63701,342.99655L291.63701,342.75652L292.11707,342.75652
				L292.11707,342.27647L292.59713,342.27647L292.59713,342.03645L292.83716,342.03645L292.83716,341.5564L293.31722,341.5564L293.31722,341.07635
				L294.03731,341.07635L294.03731,340.83632L294.51738,340.83632L294.51738,340.35627L294.75741,340.35627L294.75741,340.11624
				L295.23747,340.11624L295.23747,339.63619L295.71753,339.63619L295.71753,339.15614L295.95756,339.15614L295.95756,338.91612
				L296.43762,338.91612L296.43762,338.43606L296.67765,338.43606L296.67765,337.95601L297.15771,337.95601L297.15771,337.71599
				L297.63777,337.71599L297.63777,337.23594L298.35786,337.23594L298.35786,336.99591L298.59789,336.99591L298.59789,336.51586
				L299.07795,336.51586L299.07795,336.03581L299.55802,336.03581L299.55802,336.99591L299.07795,336.99591L299.07795,337.71599
				L298.59789,337.71599L298.59789,338.43606L298.35786,338.43606L298.35786,339.15614L297.8778,339.15614L297.8778,342.03645L298.35786,342.03645
				L298.35786,342.75652L298.59789,342.75652L298.59789,342.99655L299.79805,342.99655L299.79805,343.4766L300.9982,343.4766L300.9982,343.95665
				L301.71829,343.95665L301.71829,344.19668L303.3985,344.19668L303.3985,344.67673L304.11859,344.67673L304.11859,344.91676L305.31875,344.91676
				L305.31875,345.39681L305.55878,345.39681L305.55878,345.87686L306.5189,345.87686L306.5189,346.11688L307.23899,346.11688L307.23899,346.59693
				L308.43914,346.59693L308.43914,346.11688L309.15923,346.11688L309.15923,345.87686L309.87933,345.87686L309.87933,345.39681
				L310.59942,345.39681L310.59942,344.91676L311.55954,344.91676L311.55954,344.67673L312.27963,344.67673L312.27963,344.19668
				L312.99972,344.19668L312.99972,343.95665L313.71981,343.95665L313.71981,343.4766L314.4399,343.4766L314.4399,342.99655L317.5603,342.99655
				L317.5603,343.4766L318.52042,343.4766L318.52042,343.95665L319.24051,343.95665L319.24051,344.19668L319.9606,344.19668L319.9606,344.67673
				L320.6807,344.67673L320.6807,344.91676L321.40079,344.91676L321.40079,345.39681L322.36091,345.39681L322.36091,345.87686L323.081,345.87686
				L323.081,346.11688L323.80109,346.11688L323.80109,346.59693L324.52118,346.59693L324.52118,346.83696L325.24127,346.83696L325.24127,347.31701
				L326.2014,347.31701L326.2014,347.79706L326.92149,347.79706L326.92149,348.03709L327.40155,348.03709L327.40155,348.51714L327.64158,348.51714
				L327.64158,349.23722L328.12164,349.23722L328.12164,349.71727L328.36167,349.71727L328.36167,349.95729L328.84173,349.95729
				L328.84173,350.43734L329.32179,350.43734L329.32179,350.91739L329.56182,350.91739L329.56182,351.63747L330.04188,351.63747
				L330.04188,356.67801L329.56182,356.67801L329.56182,360.51842L330.04188,360.51842L330.04188,360.75844L330.28191,360.75844
				L330.28191,361.23849L331.24204,361.23849L331.24204,361.71855L331.96213,361.71855L331.96213,361.95857L332.68222,361.95857
				L332.68222,362.43862L333.40231,362.43862L333.40231,362.67865L334.1224,362.67865L334.1224,363.1587L334.60246,363.1587L334.60246,363.63875
				L335.32255,363.63875L335.32255,363.87878L336.28268,363.87878L336.28268,364.35883L336.52271,364.35883L336.52271,364.83888
				L337.2428,364.83888L337.2428,365.0789L338.20292,365.0789L338.20292,365.55895L338.44295,365.55895L338.44295,365.79898L339.16304,365.79898
				L339.16304,366.27903L339.6431,366.27903L339.6431,366.75908L340.36319,366.75908L340.36319,366.99911L341.08328,366.99911L341.08328,367.47916
				L341.56335,367.47916L341.56335,367.71918L342.04341,367.71918L342.04341,368.19924L342.28344,368.19924L342.28344,368.67929
				L342.7635,368.67929L342.7635,368.91931L343.48359,368.91931L343.48359,369.39936L343.96365,369.39936L343.96365,369.63939L344.20368,369.63939
				L344.20368,370.11944L344.68374,370.11944L344.68374,370.59949L345.40383,370.59949L345.40383,370.83952L345.88389,370.83952
				L345.88389,371.31957L346.60399,371.31957L346.60399,371.55959L347.08405,371.55959L347.08405,372.03965L347.80414,372.03965
				L347.80414,372.5197L348.52423,372.5197L348.52423,372.75972L349.24432,372.75972L349.24432,373.23977L349.72438,373.23977L349.72438,373.71982
				L349.96441,373.71982L349.96441,373.95985L350.44447,373.95985L350.44447,374.4399L350.92453,374.4399L350.92453,374.67993L351.16456,374.67993
				L351.16456,375.64003L351.64463,375.64003L351.64463,375.88005L351.88466,375.88005L351.88466,376.36011L352.36472,376.36011
				L352.36472,376.60013L352.84478,376.60013L352.84478,377.08018L353.08481,377.08018L353.08481,377.56023L353.56487,377.56023
				L353.56487,377.80026L354.04493,377.80026L354.04493,378.28031L354.28496,378.28031L354.28496,378.52034L354.76502,378.52034
				L354.76502,379.00039L355.00505,379.00039L355.00505,379.48044L355.48511,379.48044L355.48511,379.72046L355.96517,379.72046
				L355.96517,380.20051L356.2052,380.20051L356.2052,380.44054L356.68526,380.44054L356.68526,380.92059L356.9253,380.92059L356.9253,381.64067
				L357.40536,381.64067L357.40536,382.60077L357.88542,382.60077L357.88542,382.8408L358.12545,382.8408L358.12545,383.56087L358.60551,383.56087
				L358.60551,384.52098L358.84554,384.52098L358.84554,385.96113L359.3256,385.96113L359.3256,386.68121L359.80566,386.68121L359.80566,388.60141
				L360.04569,388.60141L360.04569,390.28159L360.52575,390.28159L360.52575,391.48172L361.24584,391.48172L361.24584,391.72174
				L361.7259,391.72174L361.7259,392.20179L362.446,392.20179L362.446,392.44182L363.16609,392.44182L363.16609,392.92187L363.88618,392.92187
				L363.88618,393.40192L364.8463,393.40192L364.8463,393.64195L365.80642,393.64195L365.80642,394.122L366.76654,394.122L366.76654,394.36202
				L367.00657,394.36202L367.00657,394.84208L368.68679,394.84208L368.68679,395.32213L368.92682,395.32213L368.92682,395.56215
				L369.88694,395.56215L369.88694,396.0422L370.12697,396.0422L370.12697,396.28223L370.60703,396.28223L370.60703,397.24233L370.84706,397.24233
				L370.84706,397.96241L371.32712,397.96241L371.32712,398.68248L371.80718,398.68248L371.80718,399.16254L372.04721,399.16254
				L372.04721,399.40256L372.76731,399.40256L372.76731,399.88261L373.72743,399.88261L373.72743,400.36266L374.68755,400.36266
				L374.68755,400.60269L373.96746,400.60269L373.96746,401.08274"/>
			<path clip-path="url(#SVG_CP_2)" fill="none" stroke="#999999" stroke-width="0.96012" stroke-miterlimit="10" stroke-linecap="round" stroke-linejoin="round" d="
				M371.32712,565.50026L371.80718,565.50026L371.80718,565.98031L371.32712,565.98031L371.32712,565.50026"/>
			<path clip-path="url(#SVG_CP_2)" fill="none" stroke="#999999" stroke-width="0.96012" stroke-miterlimit="10" stroke-linecap="round" stroke-linejoin="round" d="
				M367.72667,579.42174L367.72667,579.18172L367.48664,579.18172L367.48664,576.78146L367.00657,576.78146L367.00657,576.30141
				L366.76654,576.30141L366.76654,576.06139L366.28648,576.06139L366.28648,575.10128L365.80642,575.10128L365.80642,574.86126
				L365.56639,574.86126L365.56639,574.38121L365.08633,574.38121L365.08633,574.14118L364.8463,574.14118L364.8463,573.18108L364.36624,573.18108
				L364.36624,572.94105L363.88618,572.94105L363.88618,572.22098L363.64615,572.22098L363.64615,571.26087L363.16609,571.26087
				L363.16609,570.5408L362.92606,570.5408L362.92606,570.30077L362.446,570.30077L362.446,569.82072L361.96594,569.82072L361.96594,569.34067
				L361.7259,569.34067L361.7259,568.14054L361.24584,568.14054L361.24584,567.18044L361.00581,567.18044L361.00581,566.22034L360.52575,566.22034
				L360.52575,565.98031L359.80566,565.98031L359.80566,565.50026L358.84554,565.50026L358.84554,565.26024L358.12545,565.26024
				L358.12545,564.78018L357.40536,564.78018L357.40536,564.30013L356.68526,564.30013L356.68526,564.06011L356.2052,564.06011L
				356.2052,563.34003L355.96517,563.34003L355.96517,562.85998L355.48511,562.85998L355.48511,562.37993L355.00505,562.37993L355.00505,562.1399
				L354.76502,562.1399L354.76502,561.65985L354.28496,561.65985L354.28496,561.41983L354.04493,561.41983L354.04493,560.93977L
				353.56487,560.93977L353.56487,560.45972L353.08481,560.45972L353.08481,559.73965L352.84478,559.73965L352.84478,559.2596L352.36472,559.2596
				L352.36472,559.01957L351.88466,559.01957L351.88466,558.53952L351.64463,558.53952L351.64463,558.29949L351.16456,558.29949
				L351.16456,557.81944L350.92453,557.81944L350.92453,557.33939L350.44447,557.33939L350.44447,556.61931L349.96441,556.61931
				L349.96441,556.37929L349.72438,556.37929L349.72438,555.89924L349.24432,555.89924L349.24432,555.41919L349.00429,555.41919
				L349.00429,554.69911L348.52423,554.69911L348.52423,554.45908L348.04417,554.45908L348.04417,553.49898L347.80414,553.49898
				L347.80414,552.77891L347.32408,552.77891L347.32408,551.57878L347.08405,551.57878L347.08405,551.33875L346.60399,551.33875
				L346.60399,550.8587L346.12392,550.8587L346.12392,550.37865L345.40383,550.37865L345.40383,550.13862L345.1638,550.13862L345.1638,549.65857
				L344.68374,549.65857L344.68374,549.41855L344.20368,549.41855L344.20368,548.45844L343.96365,548.45844L343.96365,548.21842
				L343.00353,548.21842L343.00353,547.49834L342.7635,547.49834L342.7635,547.01829L342.28344,547.01829L342.28344,546.53824L342.04341,546.53824
				L342.04341,545.81816L341.56335,545.81816L341.56335,545.09809L341.08328,545.09809L341.08328,544.61804L340.84325,544.61804
				L340.84325,543.89796L340.36319,543.89796L340.36319,543.65793L340.12316,543.65793L340.12316,542.69783L339.6431,542.69783L
				339.6431,542.45781L339.16304,542.45781L339.16304,541.97775L338.92301,541.97775L338.92301,541.4977L338.20292,541.4977L338.20292,541.25768
				L337.72286,541.25768L337.72286,540.77763L337.2428,540.77763L337.2428,540.5376L337.00277,540.5376L337.00277,540.05755L336.52271,540.05755
				L336.52271,539.5775L336.28268,539.5775L336.28268,539.33747L335.80261,539.33747L335.80261,538.85742L335.32255,538.85742L335.32255,538.6174
				L335.08252,538.6174L335.08252,538.13734L334.60246,538.13734L334.60246,537.65729L333.88237,537.65729L333.88237,537.41727L
				333.40231,537.41727L333.40231,536.93722L333.16228,536.93722L333.16228,536.69719L332.68222,536.69719L332.68222,536.21714L
				330.28191,536.21714L330.28191,535.73709L322.60094,535.73709L322.60094,535.49706L321.16076,535.49706L321.16076,535.01701L
				320.44067,535.01701L320.44067,534.53696L319.48054,534.53696L319.48054,534.29694L318.76045,534.29694L318.76045,533.81688L
				317.5603,533.81688L317.5603,533.57686L316.84021,533.57686L316.84021,533.09681L316.12012,533.09681L316.12012,532.61676L314.91996,532.61676
				L314.91996,532.37673L314.19987,532.37673L314.19987,531.89668L313.47978,531.89668L313.47978,531.65665L312.51966,531.65665
				L312.51966,530.69655L312.27963,530.69655L312.27963,529.97648L311.79957,529.97648L311.79957,529.2564L311.55954,529.2564L311.55954,528.77635
				L311.07948,528.77635L311.07948,528.05627L310.59942,528.05627L310.59942,527.81625L310.35939,527.81625L310.35939,527.33619
				L309.87933,527.33619L309.87933,526.85614L309.63929,526.85614L309.63929,526.13607L309.15923,526.13607L309.15923,525.41599
				L308.67917,525.41599L308.67917,524.21586L308.43914,524.21586L308.43914,523.01573L307.95908,523.01573L307.95908,521.09553
				L307.47902,521.09553L307.47902,516.77507L307.23899,516.77507L307.23899,513.41471L306.75893,513.41471L306.75893,510.77443
				L306.5189,510.77443L306.5189,506.45397L306.03884,506.45397L306.03884,504.53376L305.55878,504.53376L305.55878,504.05371L305.31875,504.05371
				L305.31875,503.81369L304.83869,503.81369L304.83869,503.33364L304.11859,503.33364L304.11859,503.09361L303.63853,503.09361
				L303.63853,502.61356L303.3985,502.61356L303.3985,502.13351L302.91844,502.13351L302.91844,501.89348L302.67841,501.89348L302.67841,501.41343
				L302.19835,501.41343L302.19835,501.17341L301.71829,501.17341L301.71829,500.69335L301.47826,500.69335L301.47826,500.2133L
				300.9982,500.2133L300.9982,499.97328L300.27811,499.97328L300.27811,499.49323L299.79805,499.49323L299.79805,499.01318L299.55802,499.01318
				L299.55802,498.2931L299.07795,498.2931L299.07795,498.05307L298.59789,498.05307L298.59789,497.09297L298.35786,497.09297L298.35786,496.37289
				L297.8778,496.37289L297.8778,496.13287L297.63777,496.13287L297.63777,495.65282L297.15771,495.65282L297.15771,494.93274L296.67765,494.93274
				L296.67765,494.45269L296.43762,494.45269L296.43762,493.73261L295.95756,493.73261L295.95756,493.25256L295.71753,493.25256
				L295.71753,493.01254L295.23747,493.01254L295.23747,492.53249L294.75741,492.53249L294.75741,492.29246L294.03731,492.29246
				L294.03731,491.81241L293.79728,491.81241L293.79728,491.33236L293.31722,491.33236L293.31722,491.09233L292.83716,491.09233
				L292.83716,490.61228L292.11707,490.61228L292.11707,490.13223L291.63701,490.13223L291.63701,489.8922L291.39698,489.8922L291.39698,489.41215
				L290.91692,489.41215L290.91692,489.17213L290.67689,489.17213L290.67689,488.69208L289.71677,488.69208L289.71677,488.21202
				L289.47674,488.21202L289.47674,487.972L288.75664,487.972L288.75664,487.49195L287.79652,487.49195L287.79652,487.25192L287.55649,487.25192
				L287.55649,486.77187L286.8364,486.77187L286.8364,486.29182L286.35634,486.29182L286.35634,486.05179L285.87628,486.05179L285.87628,485.57174
				L285.63625,485.57174L285.63625,485.33172L285.15619,485.33172L285.15619,484.85167L284.91616,484.85167L284.91616,484.37162
				L283.95604,484.37162L283.95604,484.13159L282.75588,484.13159L282.75588,483.65154L282.03579,483.65154L282.03579,483.17149
				L281.3157,483.17149L281.3157,482.93146L280.83564,482.93146L280.83564,482.21139L280.11555,482.21139L280.11555,481.73133L279.87552,481.73133
				L279.87552,481.25128L279.39546,481.25128L279.39546,481.01126L278.9154,481.01126L278.9154,480.53121L278.67537,480.53121L278.67537,480.29118
				L278.1953,480.29118L278.1953,479.81113L277.47521,479.81113L277.47521,479.33108L276.99515,479.33108L276.99515,478.611L276.75512,478.611
				L276.75512,477.89092L276.27506,477.89092L276.27506,477.41087L276.03503,477.41087L276.03503,477.17085L275.55497,477.17085
				L275.55497,476.6908L275.07491,476.6908L275.07491,476.45077L274.83488,476.45077L274.83488,475.97072L274.35482,475.97072L274.35482,476.45077
				L271.23442,476.45077L271.23442,476.6908L270.51433,476.6908L270.51433,477.17085L269.07415,477.17085L269.07415,477.41087L267.87399,477.41087
				L267.87399,477.89092L266.67384,477.89092L266.67384,478.37098L265.95375,478.37098L265.95375,478.611L264.7536,478.611L264.7536,479.09105
				L264.03351,479.09105L264.03351,479.33108L262.83335,479.33108L262.83335,479.81113L262.11326,479.81113L262.11326,480.29118
				L260.43305,480.29118L260.43305,480.53121L260.19302,480.53121L260.19302,481.01126L258.99287,481.01126L258.99287,481.25128
				L258.03275,481.25128L258.03275,481.73133L257.07262,481.73133L257.07262,482.21139L255.39241,482.21139L255.39241,482.45141
				L254.19226,482.45141L254.19226,482.93146L253.23214,482.93146L253.23214,483.17149L252.27201,483.17149L252.27201,483.65154
				L251.31189,483.65154L251.31189,484.13159L250.11174,484.13159L250.11174,484.37162L249.15162,484.37162L249.15162,484.85167
				L247.71144,484.85167L247.71144,485.33172L246.51128,485.33172L246.51128,485.57174L245.79119,485.57174L245.79119,486.05179
				L245.0711,486.05179L245.0711,486.29182L244.35101,486.29182L244.35101,486.77187L241.9507,486.77187L241.9507,487.25192L235.46988,487.25192
				L235.46988,486.77187L233.54964,486.77187L233.54964,486.29182L232.58952,486.29182L232.58952,486.05179L223.46836,486.05179
				L223.46836,486.29182L223.70839,486.29182L223.70839,487.25192L224.18845,487.25192L224.18845,487.972L224.66851,487.972L224.66851,488.69208
				L224.90854,488.69208L224.90854,489.8922L225.3886,489.8922L225.3886,491.09233L225.62863,491.09233L225.62863,491.33236L226.10869,491.33236
				L226.10869,492.53249L226.58876,492.53249L226.58876,493.01254L226.82879,493.01254L226.82879,493.73261L227.30885,493.73261
				L227.30885,494.93274L227.54888,494.93274L227.54888,496.13287L228.02894,496.13287L228.02894,498.05307L228.509,498.05307L228.509,498.77315
				L228.74903,498.77315L228.74903,499.97328L229.22909,499.97328L229.22909,500.2133L228.74903,500.2133L228.74903,503.09361L229.22909,503.09361
				L229.22909,504.05371L229.46912,504.05371L229.46912,506.45397L229.94918,506.45397L229.94918,509.5743L230.42924,509.5743L230.42924,510.29438
				L230.66927,510.29438L230.66927,511.49451L230.42924,511.49451L230.42924,512.21458L230.66927,512.21458L230.66927,515.33492
				L230.42924,515.33492L230.42924,517.73517L230.66927,517.73517L230.66927,518.9353L231.14933,518.9353L231.14933,519.65538L231.38936,519.65538
				L231.38936,520.37545L231.86943,520.37545L231.86943,521.57558L232.34949,521.57558L232.34949,522.29566L232.58952,522.29566
				L232.58952,522.77571L233.06958,522.77571L233.06958,523.49578L233.54964,523.49578L233.54964,523.73581L233.78967,523.73581
				L233.78967,524.69591L234.26973,524.69591L234.26973,525.41599L234.50976,525.41599L234.50976,526.61612L234.98982,526.61612
				L234.98982,527.33619L235.46988,527.33619L235.46988,528.05627L235.70991,528.05627L235.70991,528.77635L236.18997,528.77635
				L236.18997,529.2564L236.43,529.2564L236.43,530.45653L236.91007,530.45653L236.91007,530.69655L237.39013,530.69655L237.39013,531.65665
				L237.63016,531.65665L237.63016,533.81688L238.11022,533.81688L238.11022,537.65729L236.18997,537.65729L236.18997,537.41727
				L231.86943,537.41727L231.86943,536.93722L228.74903,536.93722L228.74903,537.41727L228.509,537.41727L228.509,536.93722L226.58876,536.93722
				L226.58876,537.41727L226.10869,537.41727L226.10869,537.65729L225.62863,537.65729L225.62863,538.13734L225.3886,538.13734L
				225.3886,538.6174L224.90854,538.6174L224.90854,538.85742L224.66851,538.85742L224.66851,539.5775L224.18845,539.5775L224.18845,540.05755
				L223.70839,540.05755L223.70839,540.5376L223.46836,540.5376L223.46836,540.77763L222.9883,540.77763L222.9883,541.4977L222.50824,541.4977
				L222.50824,541.97775L222.26821,541.97775L222.26821,542.45781L221.78815,542.45781L221.78815,542.69783L221.54812,542.69783
				L221.54812,543.17788L219.62787,543.17788L219.62787,542.69783L215.30732,542.69783L215.30732,541.97775L214.82726,541.97775
				L214.82726,541.25768L214.58723,541.25768L214.58723,540.77763L214.82726,540.77763L214.82726,540.5376L215.30732,540.5376L215.30732,540.05755
				L215.54735,540.05755L215.54735,539.5775L216.02742,539.5775L216.02742,539.33747L216.50748,539.33747L216.50748,538.85742L216.74751,538.85742
				L216.74751,538.6174L217.22757,538.6174L217.22757,538.13734L217.70763,538.13734L217.70763,537.65729L217.94766,537.65729L217.94766,537.41727
				L218.42772,537.41727L218.42772,536.93722L218.66775,536.93722L218.66775,536.69719L219.14781,536.69719L219.14781,535.73709
				L218.66775,535.73709L218.66775,535.49706L217.94766,535.49706L217.94766,535.01701L217.70763,535.01701L217.70763,534.53696
				L217.22757,534.53696L217.22757,534.29694L216.50748,534.29694L216.50748,533.81688L216.02742,533.81688L216.02742,533.57686
				L215.54735,533.57686L215.54735,533.09681L214.82726,533.09681L214.82726,532.61676L214.58723,532.61676L214.58723,532.37673
				L213.62711,532.37673L213.62711,531.89668L213.38708,531.89668L213.38708,531.1766L213.62711,531.1766L213.62711,530.69655L214.10717,530.69655
				L214.10717,530.45653L214.58723,530.45653L214.58723,529.97648L214.82726,529.97648L214.82726,529.2564L214.10717,529.2564L214.10717,528.77635
				L213.62711,528.77635L213.62711,528.53632L212.90702,528.53632L212.90702,528.05627L212.66699,528.05627L212.66699,527.81625
				L212.18693,527.81625L212.18693,527.33619L211.46684,527.33619L211.46684,526.85614L210.98678,526.85614L210.98678,526.61612
				L210.74674,526.61612L210.74674,526.13607L209.78662,526.13607L209.78662,525.65601L209.54659,525.65601L209.54659,525.41599
				L208.8265,525.41599L208.8265,524.93594L208.34644,524.93594L208.34644,524.69591L207.86638,524.69591L207.86638,524.21586L207.14629,524.21586
				L207.14629,523.73581L206.66623,523.73581L206.66623,523.49578L205.94614,523.49578L205.94614,523.01573L205.70611,523.01573
				L205.70611,522.77571L205.22604,522.77571L205.22604,522.29566L204.50595,522.29566L204.50595,521.81561L204.02589,521.81561
				L204.02589,523.01573L204.50595,523.01573L204.50595,524.69591L204.74598,524.69591L204.74598,526.13607L205.22604,526.13607
				L205.22604,527.81625L205.70611,527.81625L205.70611,529.73645L205.94614,529.73645L205.94614,531.1766L206.4262,531.1766L206.4262,532.61676
				L206.66623,532.61676L206.66623,534.29694L207.14629,534.29694L207.14629,536.21714L207.62635,536.21714L207.62635,537.65729
				L207.86638,537.65729L207.86638,539.33747L208.34644,539.33747L208.34644,541.25768L208.8265,541.25768L208.8265,542.69783L209.06653,542.69783
				L209.06653,544.37801L209.54659,544.37801L209.54659,545.81816L209.78662,545.81816L209.78662,547.73837L210.26668,547.73837
				L210.26668,549.41855L210.74674,549.41855L210.74674,550.8587L210.98678,550.8587L210.98678,551.57878L214.10717,551.57878L214.10717,552.77891
				L214.58723,552.77891L214.58723,553.25896L214.82726,553.25896L214.82726,552.77891L216.50748,552.77891L216.50748,552.53888
				L217.94766,552.53888L217.94766,552.05883L219.8679,552.05883L219.8679,551.57878L221.54812,551.57878L221.54812,551.33875L222.9883,551.33875
				L222.9883,550.8587L223.70839,550.8587L223.70839,552.05883L223.46836,552.05883L223.46836,551.57878L222.9883,551.57878L222.9883,552.05883
				L222.26821,552.05883L222.26821,552.77891L221.78815,552.77891L221.78815,553.25896L222.26821,553.25896L222.26821,553.49898
				L221.06805,553.49898L221.06805,553.25896L219.8679,553.25896L219.8679,553.49898L219.14781,553.49898L219.14781,553.97903L218.42772,553.97903
				L218.42772,554.45908L217.70763,554.45908L217.70763,554.69911L216.74751,554.69911L216.74751,555.17916L216.02742,555.17916
				L216.02742,555.41919L215.30732,555.41919L215.30732,555.89924L213.62711,555.89924L213.62711,556.37929L211.46684,556.37929
				L211.46684,556.61931L210.98678,556.61931L210.98678,556.37929L206.66623,556.37929L206.66623,555.89924L205.94614,555.89924
				L205.94614,555.41919L205.70611,555.41919L205.70611,555.17916L204.74598,555.17916L204.74598,554.69911L204.02589,554.69911
				L204.02589,554.45908L202.82574,554.45908L202.82574,553.97903L202.10565,553.97903L202.10565,553.49898L201.86562,553.49898
				L201.86562,553.25896L201.38556,553.25896L201.38556,552.77891L200.9055,552.77891L200.9055,552.53888L200.66547,552.53888L200.66547,552.05883
				L200.1854,552.05883L200.1854,551.57878L199.94537,551.57878L199.94537,551.33875L199.46531,551.33875L199.46531,550.37865L198.98525,550.37865
				L198.98525,550.13862L198.74522,550.13862L198.74522,549.65857L198.26516,549.65857L198.26516,548.9385L197.7851,548.9385L197.7851,548.45844
				L197.54507,548.45844L197.54507,548.21842L197.06501,548.21842L197.06501,547.49834L196.82498,547.49834L196.82498,547.01829
				L196.34492,547.01829L196.34492,546.53824L195.86486,546.53824L195.86486,546.29821L195.62483,546.29821L195.62483,545.57814
				L195.14476,545.57814L195.14476,545.09809L194.90473,545.09809L194.90473,544.61804L194.42467,544.61804L194.42467,544.37801
				L193.94461,544.37801L193.94461,543.65793L193.70458,543.65793L193.70458,543.17788L193.22452,543.17788L193.22452,542.69783
				L192.98449,542.69783L192.98449,542.45781L192.50443,542.45781L192.50443,541.4977L192.02437,541.4977L192.02437,541.25768L191.78434,541.25768
				L191.78434,540.77763L191.30428,540.77763L191.30428,540.5376L191.06425,540.5376L191.06425,540.05755L190.58419,540.05755L190.58419,539.5775
				L190.10413,539.5775L190.10413,538.85742L189.86409,538.85742L189.86409,538.6174L189.38403,538.6174L189.38403,538.13734L188.90397,538.13734
				L188.90397,537.65729L188.66394,537.65729L188.66394,536.93722L188.18388,536.93722L188.18388,536.69719L187.94385,536.69719
				L187.94385,536.21714L187.46379,536.21714L187.46379,535.73709L186.98373,535.73709L186.98373,535.49706L186.7437,535.49706L
				186.7437,534.53696L186.26364,534.53696L186.26364,534.29694L186.02361,534.29694L186.02361,533.81688L185.54355,533.81688L185.54355,533.57686
				L185.06349,533.57686L185.06349,533.09681L184.82346,533.09681L184.82346,532.61676L184.34339,532.61676L184.34339,531.89668
				L184.10336,531.89668L184.10336,531.65665L183.6233,531.65665L183.6233,531.1766L183.14324,531.1766L183.14324,530.69655L182.90321,530.69655
				L182.90321,530.45653L182.42315,530.45653L182.42315,529.97648L182.18312,529.97648L182.18312,529.73645L181.70306,529.73645
				L181.70306,528.77635L181.223,528.77635L181.223,528.53632L180.98297,528.53632L180.98297,528.05627L180.50291,528.05627L180.50291,527.81625
				L180.02285,527.81625L180.02285,527.33619L179.78282,527.33619L179.78282,526.85614L179.30275,526.85614L179.30275,526.13607
				L179.06272,526.13607L179.06272,525.65601L178.58266,525.65601L178.58266,525.41599L178.1026,525.41599L178.1026,524.93594L177.86257,524.93594
				L177.86257,524.69591L177.38251,524.69591L177.38251,523.73581L177.14248,523.73581L177.14248,523.49578L176.66242,523.49578
				L176.66242,523.01573L176.18236,523.01573L176.18236,522.77571L175.94233,522.77571L175.94233,521.57558L175.46227,521.57558
				L175.46227,519.17532L175.22224,519.17532L175.22224,517.73517L174.74218,517.73517L174.74218,516.53504L174.26211,516.53504
				L174.26211,515.81497L174.02208,515.81497L174.02208,514.61484L173.54202,514.61484L173.54202,513.41471L173.30199,513.41471
				L173.30199,512.69463L172.82193,512.69463L172.82193,511.49451L172.34187,511.49451L172.34187,509.5743L172.10184,509.5743L172.10184,490.13223
				L172.34187,490.13223L172.34187,489.17213L172.82193,489.17213L172.82193,487.972L173.30199,487.972L173.30199,487.25192L173.54202,487.25192
				L173.54202,486.05179L174.02208,486.05179L174.02208,484.37162L174.26211,484.37162L174.26211,481.73133L174.74218,481.73133
				L174.74218,479.09105L175.22224,479.09105L175.22224,476.45077L175.46227,476.45077L175.46227,473.57046L175.94233,473.57046
				L175.94233,470.45013L176.18236,470.45013L176.18236,467.56983L176.66242,467.56983L176.66242,462.76931L177.14248,462.76931
				L177.14248,459.40896L177.38251,459.40896L177.38251,458.68888L177.86257,458.68888L177.86257,457.48875L178.1026,457.48875L
				178.1026,456.28862L179.06272,456.28862L179.06272,457.0087L179.30275,457.0087L179.30275,458.20883L179.78282,458.20883L179.78282,458.9289
				L180.02285,458.9289L180.02285,460.12903L180.50291,460.12903L180.50291,460.84911L180.98297,460.84911L180.98297,462.04924L
				181.223,462.04924L181.223,462.76931L181.70306,462.76931L181.70306,463.96944L182.18312,463.96944L182.18312,464.68952L182.42315,464.68952
				L182.42315,465.88965L182.90321,465.88965L182.90321,466.60972L183.14324,466.60972L183.14324,467.80985L183.6233,467.80985L
				183.6233,468.52993L184.10336,468.52993L184.10336,469.49003L184.34339,469.49003L184.34339,470.45013L184.82346,470.45013L184.82346,471.41023
				L185.06349,471.41023L185.06349,472.37034L185.54355,472.37034L185.54355,473.33044L186.02361,473.33044L186.02361,474.05052
				L186.26364,474.05052L186.26364,475.25064L186.7437,475.25064L186.7437,475.97072L186.98373,475.97072L186.98373,476.6908L187.46379,476.6908
				L187.46379,477.89092L187.94385,477.89092L187.94385,478.611L188.18388,478.611L188.18388,479.33108L188.66394,479.33108L188.66394,480.53121
				L188.90397,480.53121L188.90397,481.25128L189.38403,481.25128L189.38403,482.21139L189.86409,482.21139L189.86409,483.17149
				L190.10413,483.17149L190.10413,484.13159L190.58419,484.13159L190.58419,485.33172L191.06425,485.33172L191.06425,486.05179
				L191.30428,486.05179L191.30428,486.77187L191.78434,486.77187L191.78434,487.972L192.02437,487.972L192.02437,488.69208L192.50443,488.69208
				L192.50443,489.41215L192.98449,489.41215L192.98449,490.61228L193.22452,490.61228L193.22452,491.33236L193.94461,491.33236
				L193.94461,490.61228L194.42467,490.61228L194.42467,489.8922L194.90473,489.8922L194.90473,489.17213L195.14476,489.17213L195.14476,488.21202
				L195.62483,488.21202L195.62483,487.972"/>
			<path clip-path="url(#SVG_CP_2)" fill="none" stroke="#999999" stroke-width="0.96012" stroke-miterlimit="10" stroke-linecap="round" stroke-linejoin="round" d="
				M195.62483,487.972L195.86486,487.972L195.86486,487.25192L196.34492,487.25192L196.34492,486.29182L196.82498,486.29182L196.82498,485.57174
				L197.06501,485.57174L197.06501,484.85167L197.54507,484.85167L197.54507,484.37162L197.7851,484.37162L197.7851,483.65154L198.26516,483.65154
				L198.26516,482.93146L198.74522,482.93146L198.74522,482.45141L198.98525,482.45141L198.98525,482.21139L199.46531,482.21139
				L199.46531,481.73133L199.94537,481.73133L199.94537,481.01126L200.1854,481.01126L200.1854,480.53121L200.66547,480.53121L200.66547,480.29118
				L200.9055,480.29118L200.9055,479.81113L201.38556,479.81113L201.38556,479.33108L201.86562,479.33108L201.86562,478.611L202.10565,478.611
				L202.10565,478.37098L202.58571,478.37098L202.58571,477.89092L202.82574,477.89092L202.82574,477.41087L203.3058,477.41087L
				203.3058,477.17085L203.78586,477.17085L203.78586,476.6908L204.02589,476.6908L204.02589,475.97072L204.50595,475.97072L204.50595,475.49067
				L204.74598,475.49067L204.74598,475.25064L205.22604,475.25064L205.22604,474.77059L205.70611,474.77059L205.70611,474.29054
				L205.94614,474.29054L205.94614,473.57046L206.4262,473.57046L206.4262,473.33044L206.66623,473.33044L206.66623,472.85039L207.14629,472.85039
				L207.14629,472.37034L207.62635,472.37034L207.62635,471.65026L207.86638,471.65026L207.86638,471.41023L208.34644,471.41023
				L208.34644,470.45013L208.8265,470.45013L208.8265,470.21011L209.06653,470.21011L209.06653,469.73006L209.54659,469.73006L209.54659,469.00998
				L209.78662,469.00998L209.78662,468.52993L210.26668,468.52993L210.26668,468.2899L210.74674,468.2899L210.74674,467.56983L210.98678,467.56983
				L210.98678,467.08977L211.46684,467.08977L211.46684,466.60972L211.70687,466.60972L211.70687,465.88965L212.18693,465.88965
				L212.18693,465.40959L212.66699,465.40959L212.66699,465.16957L212.90702,465.16957L212.90702,464.68952L213.38708,464.68952
				L213.38708,464.44949L214.58723,464.44949L214.58723,464.68952L220.34796,464.68952L220.34796,465.16957L222.26821,465.16957
				L222.26821,464.68952L222.50824,464.68952L222.50824,464.44949L222.9883,464.44949L222.9883,463.96944L223.46836,463.96944L223.46836,463.48939
				L223.70839,463.48939L223.70839,462.76931L224.18845,462.76931L224.18845,462.52929L224.66851,462.52929L224.66851,462.04924
				L224.90854,462.04924L224.90854,461.56919L225.3886,461.56919L225.3886,460.84911L225.62863,460.84911L225.62863,460.60908L226.10869,460.60908
				L226.10869,460.12903L226.58876,460.12903L226.58876,459.64898L226.82879,459.64898L226.82879,458.9289L227.30885,458.9289L227.30885,458.68888
				L227.54888,458.68888L227.54888,458.20883L228.02894,458.20883L228.02894,457.72878L228.509,457.72878L228.509,457.0087L228.74903,457.0087
				L228.74903,456.52865L229.22909,456.52865L229.22909,456.28862L229.94918,456.28862L229.94918,455.56855L230.42924,455.56855
				L230.42924,455.0885L230.66927,455.0885L230.66927,454.60844L231.14933,454.60844L231.14933,453.88837L231.38936,453.88837L231.38936,453.64834
				L231.86943,453.64834L231.86943,452.68824L232.34949,452.68824L232.34949,452.44821L232.58952,452.44821L232.58952,451.96816
				L233.06958,451.96816L233.06958,451.24809L233.54964,451.24809L233.54964,450.76803L233.78967,450.76803L233.78967,450.52801
				L234.26973,450.52801L234.26973,449.80793L234.50976,449.80793L234.50976,449.32788L234.98982,449.32788L234.98982,448.6078L
				235.46988,448.6078L235.46988,448.12775L235.70991,448.12775L235.70991,447.6477L236.18997,447.6477L236.18997,446.92763L236.43,446.92763
				L236.43,446.6876L236.91007,446.6876L236.91007,446.20755L237.39013,446.20755L237.39013,445.48747L237.63016,445.48747L237.63016,445.00742
				L238.11022,445.00742L238.11022,444.28734L238.35025,444.28734L238.35025,443.80729L238.83031,443.80729L238.83031,443.56727
				L239.31037,443.56727L239.31037,442.84719L239.5504,442.84719L239.5504,442.36714L240.03046,442.36714L240.03046,441.88709L240.27049,441.88709
				L240.27049,441.16701L240.75055,441.16701L240.75055,440.68696L241.23061,440.68696L241.23061,440.44693L241.47064,440.44693
				L241.47064,439.72686L241.9507,439.72686L241.9507,439.24681L242.43077,439.24681L242.43077,438.52673L242.6708,438.52673L242.6708,438.04668
				L243.15086,438.04668L243.15086,437.80665L243.39089,437.80665L243.39089,436.84655L243.87095,436.84655L243.87095,436.60653
				L244.35101,436.60653L244.35101,436.12647L244.59104,436.12647L244.59104,435.4064L245.0711,435.4064L245.0711,434.92635L245.31113,434.92635
				L245.31113,434.20627L245.79119,434.20627L245.79119,433.96624L246.27125,433.96624L246.27125,433.48619L246.51128,433.48619
				L246.51128,432.76612L246.99134,432.76612L246.99134,432.28607L247.23137,432.28607L247.23137,431.80601L247.71144,431.80601
				L247.71144,431.08594L248.1915,431.08594L248.1915,430.84591L248.43153,430.84591L248.43153,429.88581L248.91159,429.88581L248.91159,429.64578
				L249.15162,429.64578L249.15162,429.16573L249.63168,429.16573L249.63168,428.44566L250.11174,428.44566L250.11174,427.9656L
				250.35177,427.9656L250.35177,427.72558L250.83183,427.72558L250.83183,427.0055L251.31189,427.0055L251.31189,426.52545L251.55192,426.52545
				L251.55192,426.0454L252.03198,426.0454L252.03198,425.32532L252.27201,425.32532L252.27201,425.0853L252.75208,425.0853L252.75208,424.60525
				L253.23214,424.60525L253.23214,423.88517L253.47217,423.88517L253.47217,423.40512L253.95223,423.40512L253.95223,422.92507
				L254.19226,422.92507L254.19226,422.20499L254.67232,422.20499L254.67232,421.96497L255.15238,421.96497L255.15238,421.00486
				L255.39241,421.00486L255.39241,420.76484L255.87247,420.76484L255.87247,420.28479L256.1125,420.28479L256.1125,419.56471L256.59256,419.56471
				L256.59256,419.08466L257.07262,419.08466L257.07262,418.84463L257.31265,418.84463L257.31265,418.36458L257.79272,418.36458
				L257.79272,417.64451L258.03275,417.64451L258.03275,417.16445L258.51281,417.16445L258.51281,416.92443L258.99287,416.92443
				L258.99287,416.44438L258.51281,416.44438L258.51281,416.20435L258.03275,416.20435L258.03275,415.7243L257.79272,415.7243L257.79272,415.00422
				L257.31265,415.00422L257.31265,414.52417L257.07262,414.52417L257.07262,414.04412L257.31265,414.04412L257.31265,413.8041L
				257.79272,413.8041L257.79272,413.32404L259.71296,413.32404L259.71296,413.8041L260.91311,413.8041L260.91311,414.04412L262.11326,414.04412
				L262.11326,413.8041L262.35329,413.8041L262.35329,413.08402L262.83335,413.08402L262.83335,412.60397L263.07339,412.60397L263.07339,412.12392
				L263.55345,412.12392L263.55345,411.40384L264.03351,411.40384L264.03351,411.16381L264.27354,411.16381L264.27354,411.40384
				L264.99363,411.40384L264.99363,411.88389L266.19378,411.88389L266.19378,412.12392L270.03427,412.12392L270.03427,411.88389
				L276.03503,411.88389L276.03503,411.40384L278.67537,411.40384L278.67537,411.16381L281.3157,411.16381L281.3157,410.68376L283.716,410.68376
				L283.716,410.20371L286.35634,410.20371L286.35634,409.96369L288.99668,409.96369L288.99668,409.48364L290.91692,409.48364L290.91692,409.24361
				L292.83716,409.24361L292.83716,408.76356L293.79728,408.76356L293.79728,408.28351L294.75741,408.28351L294.75741,408.04348
				L297.15771,408.04348L297.15771,407.56343L299.79805,407.56343L299.79805,407.32341L302.67841,407.32341L302.67841,406.84335
				L304.83869,406.84335L304.83869,406.3633L307.47902,406.3633L307.47902,406.12328L309.87933,406.12328L309.87933,406.3633L310.59942,406.3633
				L310.59942,406.84335L311.07948,406.84335L311.07948,407.56343L311.79957,407.56343L311.79957,408.04348L312.51966,408.04348
				L312.51966,408.28351L312.99972,408.28351L312.99972,408.76356L313.71981,408.76356L313.71981,409.24361L314.4399,409.24361L
				314.4399,409.48364L314.91996,409.48364L314.91996,409.96369L315.64006,409.96369L315.64006,410.20371L316.36015,410.20371L316.36015,410.68376
				L316.84021,410.68376L316.84021,411.16381L317.5603,411.16381L317.5603,411.40384L318.52042,411.40384L318.52042,411.88389L318.76045,411.88389
				L318.76045,412.12392L319.48054,412.12392L319.48054,412.60397L320.44067,412.60397L320.44067,413.08402L321.16076,413.08402
				L321.16076,413.32404L321.40079,413.32404L321.40079,413.8041L322.36091,413.8041L322.36091,414.04412L323.081,414.04412L323.081,414.52417
				L323.32103,414.52417L323.32103,415.00422L324.28115,415.00422L324.28115,415.24425L324.52118,415.24425L324.52118,415.7243L
				325.00124,415.7243L325.00124,416.20435L325.72134,416.20435L325.72134,416.44438L326.2014,416.44438L326.2014,416.92443L326.44143,416.92443
				L326.44143,417.16445L327.40155,417.16445L327.40155,416.92443L328.36167,416.92443L328.36167,416.44438L329.56182,416.44438
				L329.56182,416.20435L330.76198,416.20435L330.76198,416.44438L331.24204,416.44438L331.24204,418.36458L331.48207,418.36458
				L331.48207,420.04476L331.96213,420.04476L331.96213,421.96497L332.20216,421.96497L332.20216,425.80537L332.68222,425.80537
				L332.68222,429.64578L333.16228,429.64578L333.16228,431.56599L332.68222,431.56599L332.68222,434.92635L332.20216,434.92635
				L332.20216,435.4064L331.96213,435.4064L331.96213,435.88645L331.48207,435.88645L331.48207,436.12647L330.76198,436.12647L330.76198,436.60653
				L330.28191,436.60653L330.28191,436.84655L330.04188,436.84655L330.04188,437.3266L329.56182,437.3266L329.56182,437.80665L328.84173,437.80665
				L328.84173,438.04668L328.36167,438.04668L328.36167,438.52673L327.64158,438.52673L327.64158,438.76676L327.40155,438.76676
				L327.40155,439.24681L326.2014,439.24681L326.2014,439.72686L324.52118,439.72686L324.52118,439.96688L323.80109,439.96688L323.80109,442.36714
				L323.32103,442.36714L323.32103,443.08722L323.80109,443.08722L323.80109,445.00742L324.28115,445.00742L324.28115,447.6477L
				323.80109,447.6477L323.80109,448.6078L323.32103,448.6078L323.32103,449.32788L323.081,449.32788L323.081,450.04796L322.60094,450.04796
				L322.60094,451.24809L322.36091,451.24809L322.36091,451.96816L321.88085,451.96816L321.88085,452.68824L321.40079,452.68824
				L321.40079,453.16829L321.88085,453.16829L321.88085,453.64834L322.60094,453.64834L322.60094,453.88837L323.32103,453.88837
				L323.32103,454.36842L324.28115,454.36842L324.28115,454.60844L325.00124,454.60844L325.00124,455.0885L325.72134,455.0885L325.72134,455.56855
				L326.44143,455.56855L326.44143,455.80857L327.40155,455.80857L327.40155,456.28862L328.36167,456.28862L328.36167,456.52865
				L329.32179,456.52865L329.32179,457.0087L330.04188,457.0087L330.04188,457.48875L330.76198,457.48875L330.76198,457.72878L331.48207,457.72878
				L331.48207,458.20883L332.68222,458.20883L332.68222,458.68888L333.40231,458.68888L333.40231,458.9289L334.1224,458.9289L334.1224,458.68888
				L337.00277,458.68888L337.00277,458.20883L339.6431,458.20883L339.6431,457.72878L342.7635,457.72878L342.7635,457.48875L344.20368,457.48875
				L344.20368,457.72878L343.96365,457.72878L343.96365,458.9289L343.48359,458.9289L343.48359,459.64898L343.00353,459.64898L343.00353,460.60908
				L342.7635,460.60908L342.7635,461.32916L342.28344,461.32916L342.28344,462.04924L342.04341,462.04924L342.04341,462.76931L341.56335,462.76931
				L341.56335,463.48939L341.08328,463.48939L341.08328,463.96944L340.84325,463.96944L340.84325,464.68952L340.36319,464.68952
				L340.36319,465.40959L340.12316,465.40959L340.12316,466.3697L339.6431,466.3697L339.6431,467.08977L339.16304,467.08977L339.16304,467.80985
				L338.92301,467.80985L338.92301,468.2899L338.44295,468.2899L338.44295,469.00998L338.20292,469.00998L338.20292,469.73006L337.72286,469.73006
				L337.72286,470.45013L337.2428,470.45013L337.2428,470.93018L337.72286,470.93018L337.72286,471.41023L338.20292,471.41023L338.20292,472.13031
				L338.44295,472.13031L338.44295,472.37034L338.92301,472.37034L338.92301,472.85039L339.16304,472.85039L339.16304,473.57046
				L339.6431,473.57046L339.6431,474.05052L340.12316,474.05052L340.12316,474.77059L340.36319,474.77059L340.36319,475.25064L340.84325,475.25064
				L340.84325,475.49067L341.08328,475.49067L341.08328,476.45077L341.56335,476.45077L341.56335,476.6908L342.04341,476.6908L342.04341,477.17085
				L342.28344,477.17085L342.28344,477.89092L342.7635,477.89092L342.7635,478.37098L343.00353,478.37098L343.00353,479.09105L343.48359,479.09105
				L343.48359,479.33108L343.96365,479.33108L343.96365,479.81113L344.20368,479.81113L344.20368,480.53121L344.68374,480.53121
				L344.68374,481.25128L344.20368,481.25128L344.20368,481.73133L343.96365,481.73133L343.96365,482.21139L343.48359,482.21139
				L343.48359,482.45141L343.00353,482.45141L343.00353,482.93146L342.7635,482.93146L342.7635,483.17149L342.28344,483.17149L342.28344,483.65154
				L342.04341,483.65154L342.04341,484.13159L341.56335,484.13159L341.56335,484.37162L341.08328,484.37162L341.08328,484.85167
				L340.84325,484.85167L340.84325,485.33172L340.36319,485.33172L340.36319,485.57174L340.12316,485.57174L340.12316,486.05179
				L339.6431,486.05179L339.6431,486.29182L339.16304,486.29182L339.16304,486.77187L338.92301,486.77187L338.92301,487.25192L338.44295,487.25192
				L338.44295,487.49195L338.20292,487.49195L338.20292,487.972L337.72286,487.972L337.72286,488.21202L337.2428,488.21202L337.2428,488.69208
				L337.00277,488.69208L337.00277,489.17213L336.52271,489.17213L336.52271,489.41215L335.80261,489.41215L335.80261,489.17213
				L335.32255,489.17213L335.32255,488.21202L335.08252,488.21202L335.08252,487.972L334.60246,487.972L334.60246,487.49195L334.1224,487.49195
				L334.1224,486.77187L333.88237,486.77187L333.88237,486.29182L333.40231,486.29182L333.40231,485.57174L333.16228,485.57174L
				333.16228,485.33172L332.68222,485.33172L332.68222,484.85167L332.20216,484.85167L332.20216,484.13159L331.96213,484.13159L
				331.96213,483.65154L331.48207,483.65154L331.48207,483.17149L331.24204,483.17149L331.24204,482.45141L330.76198,482.45141L
				330.76198,482.21139L330.28191,482.21139L330.28191,481.73133L330.04188,481.73133L330.04188,481.01126L329.56182,481.01126L
				329.56182,480.53121L329.32179,480.53121L329.32179,480.29118L328.84173,480.29118L328.84173,479.81113L328.36167,479.81113L
				328.36167,479.09105L328.12164,479.09105L328.12164,478.611L327.64158,478.611L327.64158,478.37098L327.40155,478.37098L327.40155,477.89092
				L326.92149,477.89092L326.92149,477.17085L326.44143,477.17085L326.44143,476.6908L326.2014,476.6908L326.2014,476.45077L325.72134,476.45077
				L325.72134,475.97072L325.24127,475.97072L325.24127,475.25064L325.00124,475.25064L325.00124,474.77059L324.52118,474.77059
				L324.52118,474.29054L324.28115,474.29054L324.28115,474.05052L323.80109,474.05052L323.80109,473.33044L323.32103,473.33044
				L323.32103,472.85039L323.081,472.85039L323.081,472.37034L322.60094,472.37034L322.60094,472.13031L322.36091,472.13031L322.36091,471.41023
				L321.88085,471.41023L321.88085,470.93018L321.40079,470.93018L321.40079,470.45013L321.16076,470.45013L321.16076,470.21011
				L320.6807,470.21011L320.6807,469.73006L320.44067,469.73006L320.44067,469.49003L319.9606,469.49003L319.9606,469.00998L319.48054,469.00998
				L319.48054,468.2899L319.24051,468.2899L319.24051,467.80985L318.76045,467.80985L318.76045,467.56983L318.52042,467.56983L318.52042,467.08977
				L318.04036,467.08977L318.04036,466.60972L317.5603,466.60972L317.5603,466.3697L317.32027,466.3697L317.32027,465.40959L316.84021,465.40959
				L316.84021,465.16957L316.36015,465.16957L316.36015,464.68952L316.12012,464.68952L316.12012,464.44949L315.64006,464.44949
				L315.64006,463.96944L315.40003,463.96944L315.40003,463.48939L314.91996,463.48939L314.91996,462.76931L314.4399,462.76931L
				314.4399,462.52929L314.19987,462.52929L314.19987,462.04924L313.71981,462.04924L313.71981,461.56919L313.47978,461.56919L313.47978,461.32916
				L312.99972,461.32916L312.99972,460.84911L312.27963,460.84911L312.27963,460.60908L311.79957,460.60908L311.79957,460.12903
				L311.55954,460.12903L311.55954,459.64898L311.07948,459.64898L311.07948,459.40896L310.59942,459.40896L310.59942,458.9289L
				310.35939,458.9289L310.35939,458.68888L309.63929,458.68888L309.63929,458.20883L309.15923,458.20883L309.15923,457.72878L308.67917,457.72878
				L308.67917,457.48875L307.95908,457.48875L307.95908,457.0087L307.47902,457.0087L307.47902,456.52865L306.75893,456.52865L306.75893,456.28862
				L306.5189,456.28862L306.5189,455.80857L306.03884,455.80857L306.03884,455.56855L305.31875,455.56855L305.31875,455.0885L304.83869,455.0885
				L304.83869,454.60844L304.59865,454.60844L304.59865,454.36842L304.11859,454.36842L304.11859,453.88837L303.3985,453.88837L
				303.3985,453.64834L300.51814,453.64834L300.51814,453.88837L300.27811,453.88837L300.27811,454.36842L299.79805,454.36842L299.79805,455.0885
				L299.55802,455.0885L299.55802,455.56855L299.07795,455.56855L299.07795,455.0885L298.35786,455.0885L298.35786,454.60844L297.8778,454.60844
				L297.8778,454.36842L297.63777,454.36842L297.63777,453.88837L297.15771,453.88837L297.15771,453.64834L296.67765,453.64834L
				296.67765,453.16829L296.43762,453.16829L296.43762,452.68824L295.95756,452.68824L295.95756,452.44821L295.71753,452.44821L
				295.71753,451.96816L295.23747,451.96816L295.23747,451.72814L294.75741,451.72814L294.75741,451.24809L294.51738,451.24809L
				294.51738,450.76803L293.79728,450.76803L293.79728,450.52801L293.31722,450.52801L293.31722,450.04796L292.83716,450.04796L
				292.83716,449.80793L292.59713,449.80793L292.59713,449.32788L292.11707,449.32788L292.11707,448.84783L291.63701,448.84783L
				291.63701,448.6078L291.39698,448.6078L291.39698,448.12775L290.91692,448.12775L290.91692,447.40768L290.67689,447.40768L290.67689,446.92763
				L290.19683,446.92763L290.19683,446.6876L289.71677,446.6876L289.71677,446.20755L289.47674,446.20755L289.47674,445.7275L288.99668,445.7275
				L288.99668,445.00742L288.75664,445.00742L288.75664,444.7674L288.27658,444.7674L288.27658,443.80729L287.79652,443.80729L287.79652,443.08722
				L287.55649,443.08722L287.55649,442.84719L286.8364,442.84719L286.8364,442.36714L286.35634,442.36714L286.35634,441.88709L285.63625,441.88709
				L285.63625,441.64706L285.15619,441.64706L285.15619,441.16701L284.91616,441.16701L284.91616,440.68696L283.95604,440.68696
				L283.95604,440.44693L283.716,440.44693L283.716,439.96688L282.75588,439.96688L282.75588,439.72686L282.51585,439.72686L282.51585,439.24681
				L281.79576,439.24681L281.79576,438.76676L281.3157,438.76676L281.3157,438.52673L280.83564,438.52673L280.83564,438.04668L280.59561,438.04668
				L280.59561,437.80665L280.11555,437.80665L280.11555,437.3266L279.87552,437.3266L279.87552,436.84655L278.9154,436.84655L278.9154,436.60653
				L278.67537,436.60653L278.67537,436.12647L278.1953,436.12647L278.1953,435.88645L277.95527,435.88645L277.95527,435.4064L277.47521,435.4064
				L277.47521,434.92635L276.75512,434.92635L276.75512,434.68632L276.27506,434.68632L276.27506,434.20627L276.03503,434.20627
				L276.03503,433.96624L275.55497,433.96624L275.55497,433.48619L275.07491,433.48619L275.07491,433.00614L274.83488,433.00614
				L274.83488,432.76612L273.87476,432.76612L273.87476,432.28607L273.63473,432.28607L273.63473,431.80601L273.15466,431.80601
				L273.15466,431.56599L272.91463,431.56599L272.91463,431.08594L272.43457,431.08594L272.43457,430.84591L271.71448,430.84591
				L271.71448,430.36586L271.23442,430.36586L271.23442,429.88581L270.99439,429.88581L270.99439,429.64578L270.51433,429.64578
				L270.51433,429.16573L270.03427,429.16573L270.03427,428.92571L269.31418,428.92571L269.31418,429.16573L269.07415,429.16573
				L269.07415,429.64578L268.11402,429.64578L268.11402,429.88581L267.87399,429.88581L267.87399,429.64578L267.1539,429.64578L
				267.1539,429.16573L266.19378,429.16573L266.19378,428.92571L265.95375,428.92571L265.95375,429.16573L265.47369,429.16573L265.47369,429.64578
				L264.99363,429.64578L264.99363,429.88581L264.7536,429.88581L264.7536,430.36586L264.27354,430.36586L264.27354,430.84591L264.03351,430.84591
				L264.03351,431.56599L263.55345,431.56599L263.55345,431.80601L263.07339,431.80601L263.07339,432.28607L262.83335,432.28607
				L262.83335,432.76612L262.35329,432.76612L262.35329,433.48619L262.11326,433.48619L262.11326,433.96624L261.6332,433.96624L
				261.6332,434.20627L261.15314,434.20627L261.15314,434.92635L260.91311,434.92635L260.91311,435.4064L260.43305,435.4064L260.43305,435.88645
				L260.19302,435.88645L260.19302,436.60653L259.71296,436.60653L259.71296,436.84655L259.2329,436.84655L259.2329,437.3266L258.99287,437.3266
				L258.99287,438.04668L258.51281,438.04668L258.51281,438.52673L258.03275,438.52673L258.03275,438.76676L257.79272,438.76676
				L257.79272,439.72686L257.31265,439.72686L257.31265,439.96688L257.07262,439.96688L257.07262,440.44693L256.59256,440.44693
				L256.59256,441.16701L256.1125,441.16701L256.1125,441.64706L255.87247,441.64706L255.87247,441.88709L255.39241,441.88709L255.39241,442.84719
				L255.15238,442.84719L255.15238,443.08722L254.67232,443.08722L254.67232,443.56727L254.19226,443.56727L254.19226,444.28734
				L253.95223,444.28734L253.95223,444.7674L253.47217,444.7674L253.47217,445.00742L253.23214,445.00742L253.23214,445.7275L252.75208,445.7275
				L252.75208,446.20755L252.27201,446.20755L252.27201,446.6876L252.03198,446.6876L252.03198,447.40768L251.55192,447.40768L251.55192,447.6477
				L251.31189,447.6477L251.31189,448.12775L250.83183,448.12775"/>
			<path clip-path="url(#SVG_CP_2)" fill="none" stroke="#999999" stroke-width="0.96012" stroke-miterlimit="10" stroke-linecap="round" stroke-linejoin="round" d="
				M250.83183,448.12775L250.83183,448.84783L250.35177,448.84783L250.35177,449.32788L250.11174,449.32788L250.11174,449.80793
				L249.63168,449.80793L249.63168,450.52801L249.15162,450.52801L249.15162,450.76803L248.91159,450.76803L248.91159,451.24809
				L248.43153,451.24809L248.43153,451.96816L248.1915,451.96816L248.1915,452.44821L247.71144,452.44821L247.71144,452.68824L247.23137,452.68824
				L247.23137,453.64834L246.99134,453.64834L246.99134,453.88837L246.51128,453.88837L246.51128,454.36842L248.43153,454.36842
				L248.43153,454.60844L250.11174,454.60844L250.11174,455.0885L252.03198,455.0885L252.03198,455.56855L253.95223,455.56855L253.95223,455.80857
				L255.39241,455.80857L255.39241,456.28862L257.31265,456.28862L257.31265,456.52865L259.2329,456.52865L259.2329,457.0087L260.91311,457.0087
				L260.91311,457.48875L262.83335,457.48875L262.83335,457.72878L264.27354,457.72878L264.27354,458.20883L266.19378,458.20883
				L266.19378,458.68888L267.87399,458.68888L267.87399,458.9289L269.31418,458.9289L269.31418,459.40896L271.23442,459.40896L271.23442,459.64898
				L272.91463,459.64898L272.91463,460.12903L274.35482,460.12903L274.35482,460.60908L276.27506,460.60908L276.27506,460.84911
				L277.95527,460.84911L277.95527,461.32916L279.39546,461.32916L279.39546,461.56919L280.11555,461.56919L280.11555,461.32916
				L280.59561,461.32916L280.59561,460.60908L280.83564,460.60908L280.83564,460.12903L281.3157,460.12903L281.3157,459.40896L281.79576,459.40896
				L281.79576,458.9289L282.03579,458.9289L282.03579,458.20883L282.51585,458.20883L282.51585,457.72878L282.75588,457.72878L282.75588,457.0087
				L283.23594,457.0087L283.23594,456.52865L283.716,456.52865L283.716,456.28862L283.95604,456.28862L283.95604,455.56855L284.4361,455.56855
				L284.4361,455.0885L284.91616,455.0885L284.91616,454.36842L285.15619,454.36842L285.15619,453.88837L285.63625,453.88837L285.63625,453.16829
				L285.87628,453.16829L285.87628,452.68824L286.35634,452.68824L286.35634,451.96816L286.8364,451.96816L286.8364,451.72814L287.55649,451.72814
				L287.55649,451.96816L288.27658,451.96816L288.27658,452.44821L288.75664,452.44821L288.75664,452.68824L288.99668,452.68824
				L288.99668,453.16829L289.71677,453.16829L289.71677,453.64834L290.19683,453.64834L290.19683,453.88837L290.91692,453.88837
				L290.91692,454.36842L291.39698,454.36842L291.39698,454.60844L291.63701,454.60844L291.63701,455.0885L292.59713,455.0885L292.59713,455.56855
				L292.83716,455.56855L292.83716,455.80857L293.79728,455.80857L293.79728,456.28862L294.03731,456.28862L294.03731,456.52865
				L294.51738,456.52865L294.51738,457.0087L294.75741,457.0087L294.75741,457.48875L295.23747,457.48875L295.23747,457.72878L295.71753,457.72878
				L295.71753,458.68888L295.95756,458.68888L295.95756,458.9289L295.71753,458.9289L295.71753,459.40896L295.23747,459.40896L295.23747,459.64898
				L294.75741,459.64898L294.75741,460.12903L294.51738,460.12903L294.51738,460.60908L294.03731,460.60908L294.03731,460.84911
				L293.79728,460.84911L293.79728,461.32916L293.31722,461.32916L293.31722,461.56919L292.83716,461.56919L292.83716,462.04924
				L292.59713,462.04924L292.59713,462.52929L292.11707,462.52929L292.11707,462.76931L291.63701,462.76931L291.63701,463.24936
				L291.39698,463.24936L291.39698,463.96944L290.91692,463.96944L290.91692,464.44949L290.67689,464.44949L290.67689,464.68952
				L290.19683,464.68952L290.19683,465.16957L289.71677,465.16957L289.71677,465.88965L289.47674,465.88965L289.47674,466.3697L
				288.99668,466.3697L288.99668,467.08977L289.47674,467.08977L289.47674,467.56983L290.19683,467.56983L290.19683,467.80985L290.67689,467.80985
				L290.67689,468.2899L290.91692,468.2899L290.91692,468.52993L291.63701,468.52993L291.63701,469.00998L292.11707,469.00998L292.11707,469.49003
				L292.59713,469.49003L292.59713,469.73006L292.83716,469.73006L292.83716,470.21011L293.79728,470.21011L293.79728,470.45013
				L294.03731,470.45013L294.03731,470.93018L294.75741,470.93018L294.75741,470.45013L295.23747,470.45013L295.23747,470.21011
				L295.71753,470.21011L295.71753,469.73006L295.95756,469.73006L295.95756,469.49003L296.43762,469.49003L296.43762,469.00998
				L296.67765,469.00998L296.67765,468.52993L297.15771,468.52993L297.15771,468.2899L297.63777,468.2899L297.63777,468.52993L297.8778,468.52993
				L297.8778,469.49003L298.35786,469.49003L298.35786,469.73006L298.59789,469.73006L298.59789,470.21011L299.07795,470.21011L
				299.07795,470.45013L299.55802,470.45013L299.55802,470.93018L299.79805,470.93018L299.79805,471.41023L300.27811,471.41023L
				300.27811,471.65026L300.51814,471.65026L300.51814,472.13031L300.9982,472.13031L300.9982,472.85039L301.47826,472.85039L301.47826,473.33044
				L301.71829,473.33044L301.71829,473.57046L302.19835,473.57046L302.19835,474.05052L302.67841,474.05052L302.67841,474.29054
				L302.91844,474.29054L302.91844,474.77059L303.3985,474.77059L303.3985,475.25064L303.63853,475.25064L303.63853,475.49067L304.11859,475.49067
				L304.11859,476.45077L304.59865,476.45077L304.59865,476.6908L304.83869,476.6908L304.83869,477.17085L305.31875,477.17085L305.31875,477.41087
				L305.55878,477.41087L305.55878,477.89092L306.03884,477.89092L306.03884,478.37098L306.5189,478.37098L306.5189,478.611L306.75893,478.611
				L306.75893,479.09105L307.23899,479.09105L307.23899,479.81113L307.47902,479.81113L307.47902,480.29118L307.95908,480.29118
				L307.95908,480.53121L308.43914,480.53121L308.43914,481.01126L308.67917,481.01126L308.67917,481.25128L309.15923,481.25128
				L309.15923,481.73133L309.63929,481.73133L309.63929,482.21139L309.87933,482.21139L309.87933,482.45141L310.35939,482.45141
				L310.35939,483.17149L310.59942,483.17149L310.59942,483.65154L311.07948,483.65154L311.07948,484.13159L311.55954,484.13159
				L311.55954,484.37162L311.79957,484.37162L311.79957,484.85167L312.27963,484.85167L312.27963,485.33172L312.51966,485.33172
				L312.51966,485.57174L312.99972,485.57174L312.99972,486.29182L313.47978,486.29182L313.47978,486.77187L313.71981,486.77187
				L313.71981,486.29182L314.19987,486.29182L314.19987,486.05179L314.4399,486.05179L314.4399,485.57174L315.40003,485.57174L315.40003,485.33172
				L315.64006,485.33172L315.64006,484.85167L316.12012,484.85167L316.12012,484.37162L316.36015,484.37162L316.36015,484.13159
				L317.32027,484.13159L317.32027,483.65154L316.84021,483.65154L316.84021,483.17149L316.36015,483.17149L316.36015,482.45141
				L316.12012,482.45141L316.12012,482.21139L315.64006,482.21139L315.64006,481.73133L315.40003,481.73133L315.40003,481.25128
				L314.91996,481.25128L314.91996,480.53121L315.40003,480.53121L315.40003,480.29118L315.64006,480.29118L315.64006,479.81113
				L316.36015,479.81113L316.36015,479.33108L316.84021,479.33108L316.84021,479.09105L317.32027,479.09105L317.32027,478.611L317.5603,478.611
				L317.5603,478.37098L318.52042,478.37098L318.52042,477.89092L318.76045,477.89092L318.76045,477.41087L319.48054,477.41087L
				319.48054,477.89092L319.9606,477.89092L319.9606,478.37098L320.44067,478.37098L320.44067,479.09105L320.6807,479.09105L320.6807,479.33108
				L321.16076,479.33108L321.16076,479.81113L321.40079,479.81113L321.40079,480.29118L321.88085,480.29118L321.88085,480.53121
				L322.36091,480.53121L322.36091,481.01126L322.60094,481.01126L322.60094,481.73133L323.081,481.73133L323.081,482.21139L323.32103,482.21139
				L323.32103,482.45141L323.80109,482.45141L323.80109,482.93146L324.28115,482.93146L324.28115,483.17149L324.52118,483.17149
				L324.52118,483.65154L325.00124,483.65154L325.00124,484.13159L325.24127,484.13159L325.24127,484.37162L325.72134,484.37162
				L325.72134,484.85167L326.2014,484.85167L326.2014,485.33172L326.44143,485.33172L326.44143,485.57174L326.92149,485.57174L326.92149,486.05179
				L327.40155,486.05179L327.40155,486.29182L327.64158,486.29182L327.64158,487.25192L328.12164,487.25192L328.12164,487.49195
				L328.36167,487.49195L328.36167,487.972L328.84173,487.972L328.84173,488.21202L329.32179,488.21202L329.32179,489.17213L329.56182,489.17213
				L329.56182,489.41215L330.04188,489.41215L330.04188,489.8922L330.28191,489.8922L330.28191,490.13223L330.76198,490.13223L330.76198,491.09233
				L331.24204,491.09233L331.24204,491.33236L331.48207,491.33236L331.48207,491.81241L331.96213,491.81241L331.96213,492.29246
				L332.20216,492.29246L332.20216,493.01254L332.68222,493.01254L332.68222,493.25256L333.16228,493.25256L333.16228,493.73261
				L333.40231,493.73261L333.40231,494.21266L333.88237,494.21266L333.88237,494.93274L334.1224,494.93274L334.1224,495.17277L334.60246,495.17277
				L334.60246,495.65282L335.08252,495.65282L335.08252,496.37289L335.32255,496.37289L335.32255,496.85295L335.80261,496.85295
				L335.80261,497.57302L336.28268,497.57302L336.28268,498.05307L336.52271,498.05307L336.52271,498.77315L337.00277,498.77315
				L337.00277,499.01318L337.2428,499.01318L337.2428,499.97328L337.72286,499.97328L337.72286,500.69335L338.20292,500.69335L338.20292,502.13351
				L338.44295,502.13351L338.44295,503.81369L338.92301,503.81369L338.92301,505.25384L339.16304,505.25384L339.16304,506.93402
				L339.6431,506.93402L339.6431,507.89412L340.12316,507.89412L340.12316,508.37417L336.28268,508.37417L336.28268,508.85422L331.48207,508.85422
				L331.48207,509.09425L330.04188,509.09425L330.04188,508.85422L328.84173,508.85422L328.84173,508.37417L328.12164,508.37417
				L328.12164,507.89412L326.92149,507.89412L326.92149,507.6541L326.2014,507.6541L326.2014,508.37417L325.72134,508.37417L325.72134,509.5743
				L325.24127,509.5743L325.24127,510.29438L325.00124,510.29438L325.00124,511.49451L324.52118,511.49451L324.52118,512.21458L
				324.28115,512.21458L324.28115,512.93466L323.80109,512.93466L323.80109,514.13479L323.32103,514.13479L323.32103,514.85486L
				323.081,514.85486L323.081,515.81497L322.60094,515.81497L322.60094,516.77507L322.36091,516.77507L322.36091,517.73517L321.88085,517.73517
				L321.88085,518.9353L321.40079,518.9353L321.40079,519.8954L321.16076,519.8954L321.16076,520.8555L320.6807,520.8555L320.6807,521.81561
				L320.44067,521.81561L320.44067,522.77571L319.9606,522.77571L319.9606,523.73581L319.48054,523.73581L319.48054,524.21586L323.081,524.21586
				L323.081,523.73581L323.80109,523.73581L323.80109,523.49578L324.28115,523.49578L324.28115,523.01573L325.00124,523.01573L325.00124,522.77571
				L325.24127,522.77571L325.24127,522.29566L326.2014,522.29566L326.2014,521.81561L326.44143,521.81561L326.44143,521.57558L326.92149,521.57558
				L326.92149,521.09553L327.40155,521.09553L327.40155,520.8555L328.12164,520.8555L328.12164,520.37545L328.36167,520.37545L328.36167,519.8954
				L328.84173,519.8954L328.84173,519.65538L329.56182,519.65538L329.56182,519.17532L330.04188,519.17532L330.04188,518.9353L330.28191,518.9353
				L330.28191,518.45525L330.76198,518.45525L330.76198,517.9752L331.48207,517.9752L331.48207,517.73517L331.96213,517.73517L331.96213,517.25512
				L332.20216,517.25512L332.20216,516.77507L332.68222,516.77507L332.68222,516.53504L333.40231,516.53504L333.40231,516.05499
				L333.88237,516.05499L333.88237,515.81497L334.1224,515.81497L334.1224,515.33492L335.08252,515.33492L335.08252,514.85486L335.80261,514.85486
				L335.80261,515.33492L336.28268,515.33492L336.28268,516.05499L336.52271,516.05499L336.52271,516.53504L337.00277,516.53504
				L337.00277,516.77507L337.2428,516.77507L337.2428,517.73517L337.72286,517.73517L337.72286,517.9752L338.20292,517.9752L338.20292,518.45525
				L338.44295,518.45525L338.44295,519.17532L338.92301,519.17532L338.92301,519.65538L339.16304,519.65538L339.16304,519.8954L
				339.6431,519.8954L339.6431,520.37545L340.12316,520.37545L340.12316,521.09553L340.36319,521.09553L340.36319,521.57558L340.84325,521.57558
				L340.84325,521.81561L341.08328,521.81561L341.08328,522.77571L341.56335,522.77571L341.56335,523.01573L342.04341,523.01573
				L342.04341,523.49578L342.28344,523.49578L342.28344,524.21586L342.7635,524.21586L342.7635,524.69591L343.00353,524.69591L343.00353,524.93594
				L343.48359,524.93594L343.48359,525.41599L343.96365,525.41599L343.96365,526.13607L344.20368,526.13607L344.20368,526.61612
				L344.68374,526.61612L344.68374,526.85614L345.1638,526.85614L345.1638,527.81625L345.40383,527.81625L345.40383,528.05627L345.88389,528.05627
				L345.88389,528.53632L346.12392,528.53632L346.12392,529.2564L346.60399,529.2564L346.60399,529.73645L347.08405,529.73645L347.08405,529.97648
				L347.32408,529.97648L347.32408,530.69655L347.80414,530.69655L347.80414,531.1766L348.04417,531.1766L348.04417,531.65665L348.52423,531.65665
				L348.52423,531.89668L349.00429,531.89668L349.00429,532.61676L349.24432,532.61676L349.24432,533.09681L349.72438,533.09681
				L349.72438,533.57686L349.96441,533.57686L349.96441,534.29694L350.44447,534.29694L350.44447,534.53696L350.92453,534.53696
				L350.92453,535.01701L351.16456,535.01701L351.16456,535.73709L351.64463,535.73709L351.64463,536.21714L351.88466,536.21714
				L351.88466,536.69719L352.36472,536.69719L352.36472,536.93722L352.84478,536.93722L352.84478,537.65729L353.08481,537.65729
				L353.08481,538.13734L353.56487,538.13734L353.56487,538.6174L354.04493,538.6174L354.04493,539.33747L354.28496,539.33747L354.28496,539.5775
				L354.76502,539.5775L354.76502,540.05755L355.00505,540.05755L355.00505,540.77763L355.48511,540.77763L355.48511,541.25768L
				355.96517,541.25768L355.96517,541.4977L356.2052,541.4977L356.2052,542.45781L356.68526,542.45781L356.68526,542.69783L356.9253,542.69783
				L356.9253,543.17788L357.40536,543.17788L357.40536,543.65793L357.88542,543.65793L357.88542,544.37801L358.12545,544.37801L
				358.12545,544.61804L358.60551,544.61804L358.60551,545.09809L358.84554,545.09809L358.84554,545.81816L359.3256,545.81816L359.3256,546.29821
				L359.80566,546.29821L359.80566,547.01829L360.04569,547.01829L360.04569,548.9385L360.52575,548.9385L360.52575,552.53888L360.04569,552.53888
				L360.04569,555.17916L360.52575,555.17916L360.52575,555.89924L361.00581,555.89924L361.00581,556.61931L361.24584,556.61931
				L361.24584,557.33939L361.7259,557.33939L361.7259,558.53952L361.96594,558.53952L361.96594,559.01957L362.446,559.01957L362.446,559.2596
				L363.88618,559.2596L363.88618,559.73965L365.56639,559.73965L365.56639,560.2197L367.00657,560.2197L367.00657,560.45972L368.20673,560.45972
				L368.20673,560.93977L368.68679,560.93977L368.68679,561.41983L368.92682,561.41983L368.92682,562.1399L369.40688,562.1399L369.40688,562.37993
				L369.88694,562.37993L369.88694,563.34003L370.12697,563.34003L370.12697,563.58006L370.60703,563.58006L370.60703,564.30013
				L370.84706,564.30013L370.84706,564.78018L371.32712,564.78018L371.32712,565.50026L370.84706,565.50026L370.84706,565.26024
				L370.12697,565.26024L370.12697,564.78018L369.40688,564.78018L369.40688,565.50026L368.92682,565.50026L368.92682,566.22034
				L368.68679,566.22034L368.68679,567.18044L368.20673,567.18044L368.20673,567.90052L367.72667,567.90052L367.72667,568.62059
				L367.48664,568.62059L367.48664,570.5408L367.72667,570.5408L367.72667,571.74093L368.20673,571.74093L368.20673,572.461L368.68679,572.461
				L368.68679,573.66113L368.92682,573.66113L368.92682,574.86126L369.40688,574.86126L369.40688,576.06139L369.88694,576.06139
				L369.88694,577.02149L370.12697,577.02149L370.12697,577.98159L369.88694,577.98159L369.88694,578.22162L369.40688,578.22162
				L369.40688,578.70167L368.92682,578.70167L368.92682,579.18172L368.68679,579.18172L368.68679,579.42174L367.72667,579.42174
				"/>
			<path clip-path="url(#SVG_CP_2)" fill="none" stroke="#999999" stroke-width="0.96012" stroke-miterlimit="10" stroke-linecap="round" stroke-linejoin="round" d="
				M367.72667,579.42174L367.72667,579.9018L367.48664,579.9018L367.48664,579.42174L367.72667,579.42174"/>
			<path clip-path="url(#SVG_CP_2)" fill="none" stroke="#999999" stroke-width="0.96012" stroke-miterlimit="10" stroke-linecap="round" stroke-linejoin="round" d="
				M336.52271,489.41215L337.00277,489.41215L337.00277,489.17213L337.2428,489.17213L337.2428,488.69208L337.72286,488.69208L337.72286,488.21202
				L338.20292,488.21202L338.20292,487.972L338.44295,487.972L338.44295,487.49195L338.92301,487.49195L338.92301,487.25192L339.16304,487.25192
				L339.16304,486.77187L339.6431,486.77187L339.6431,486.29182L340.12316,486.29182L340.12316,486.05179L340.36319,486.05179L340.36319,485.57174
				L340.84325,485.57174L340.84325,485.33172L341.08328,485.33172L341.08328,484.85167L341.56335,484.85167L341.56335,484.37162
				L342.04341,484.37162L342.04341,484.13159L342.28344,484.13159L342.28344,483.65154L342.7635,483.65154L342.7635,483.17149L343.00353,483.17149
				L343.00353,482.93146L343.48359,482.93146L343.48359,482.45141L343.96365,482.45141L343.96365,482.21139L344.20368,482.21139
				L344.20368,481.73133L344.68374,481.73133L344.68374,481.25128L345.1638,481.25128L345.1638,481.73133L345.40383,481.73133L345.40383,482.21139
				L345.88389,482.21139L345.88389,482.45141L346.12392,482.45141L346.12392,483.17149L346.60399,483.17149L346.60399,483.65154
				L347.08405,483.65154L347.08405,484.13159L347.32408,484.13159L347.32408,484.85167L347.80414,484.85167L347.80414,485.33172
				L348.04417,485.33172L348.04417,486.05179L348.52423,486.05179L348.52423,486.29182L349.00429,486.29182L349.00429,486.77187
				L349.24432,486.77187L349.24432,487.49195L349.72438,487.49195L349.72438,487.972L349.96441,487.972L349.96441,488.21202L350.44447,488.21202
				L350.44447,489.17213L350.92453,489.17213L350.92453,489.41215L351.16456,489.41215L351.16456,490.13223L351.64463,490.13223
				L351.64463,490.61228L351.88466,490.61228L351.88466,491.09233L352.36472,491.09233L352.36472,491.81241L374.68755,491.81241
				L374.68755,492.53249L375.16761,492.53249L375.16761,493.73261L375.64767,493.73261L375.64767,494.45269L375.8877,494.45269L
				375.8877,495.17277L376.36776,495.17277L376.36776,496.37289L376.60779,496.37289L376.60779,497.09297L377.08785,497.09297L377.08785,498.05307
				L377.56791,498.05307L377.56791,499.01318L377.80795,499.01318L377.80795,499.97328L378.28801,499.97328L378.28801,500.69335
				L378.76807,500.69335L378.76807,501.89348L379.0081,501.89348L379.0081,502.61356L379.48816,502.61356L379.48816,503.81369L379.72819,503.81369
				L379.72819,504.53376L380.20825,504.53376L380.20825,505.25384L380.68831,505.25384L380.68831,506.45397L380.92834,506.45397
				L380.92834,507.17405L381.4084,507.17405L381.4084,507.89412L381.64843,507.89412L381.64843,508.85422L382.12849,508.85422L382.12849,508.37417
				L385.96898,508.37417L385.96898,507.89412L390.28953,507.89412L390.28953,507.6541L394.13002,507.6541L394.13002,507.17405L396.53032,507.17405
				L396.53032,506.93402L398.45057,506.93402L398.45057,506.45397L400.37081,506.45397L400.37081,504.53376L399.89075,504.53376
				L399.89075,501.41343L399.41069,501.41343L399.41069,498.05307L399.17066,498.05307L399.17066,495.65282L409.97203,495.65282
				L409.97203,495.17277L409.49197,495.17277L409.49197,494.45269L411.17218,494.45269L411.17218,494.21266L412.61236,494.21266
				L412.61236,493.73261L414.29258,493.73261L414.29258,493.25256L415.2527,493.25256L415.2527,493.01254L415.73276,493.01254L415.73276,492.53249
				L416.21282,492.53249L416.21282,492.29246L416.45285,492.29246L416.45285,491.81241L417.17294,491.81241L417.17294,491.33236
				L417.653,491.33236L417.653,491.09233L418.13306,491.09233L418.13306,490.61228L418.37309,490.61228L418.37309,490.13223L419.09318,490.13223
				L419.09318,490.61228L418.85315,490.61228L418.85315,491.81241L418.37309,491.81241L418.37309,493.25256L418.13306,493.25256
				L418.13306,495.65282L417.653,495.65282L417.653,496.37289L417.17294,496.37289L417.17294,497.57302L416.93291,497.57302L416.93291,498.2931
				L416.45285,498.2931L416.45285,499.49323L416.21282,499.49323L416.21282,499.97328L415.73276,499.97328L415.73276,500.69335L
				415.2527,500.69335L415.2527,501.41343L415.01267,501.41343L415.01267,502.61356L414.53261,502.61356L414.53261,503.33364L414.29258,503.33364
				L414.29258,504.53376L413.81251,504.53376L413.81251,505.25384L413.33245,505.25384L413.33245,506.45397L413.09242,506.45397
				L413.09242,519.17532L412.61236,519.17532L412.61236,520.37545L412.37233,520.37545L412.37233,521.81561L411.89227,521.81561
				L411.89227,522.77571L411.41221,522.77571L411.41221,524.21586L411.17218,524.21586L411.17218,525.41599L410.69212,525.41599
				L410.69212,526.85614L410.21206,526.85614L410.21206,528.05627L409.97203,528.05627L409.97203,529.73645L409.49197,529.73645
				L409.49197,530.69655L409.25194,530.69655L409.25194,532.37673L408.77187,532.37673L408.77187,533.57686L408.29181,533.57686
				L408.29181,534.53696L408.05178,534.53696L408.05178,535.73709L407.57172,535.73709L407.57172,537.41727L407.33169,537.41727
				L407.33169,538.6174L406.85163,538.6174L406.85163,539.5775L406.37157,539.5775L406.37157,540.77763L406.13154,540.77763L406.13154,542.45781
				L405.65148,542.45781L405.65148,543.17788L405.41145,543.17788L405.41145,544.37801L404.93139,544.37801L404.93139,545.57814
				L404.45133,545.57814L404.45133,546.29821L404.2113,546.29821L404.2113,547.01829L403.73124,547.01829L403.73124,547.73837L403.4912,547.73837
				L403.4912,548.45844L403.01114,548.45844L403.01114,549.41855L402.53108,549.41855L402.53108,549.65857L402.29105,549.65857L
				402.29105,550.13862L401.33093,550.13862L401.33093,550.37865L401.0909,550.37865L401.0909,550.8587L400.61084,550.8587L400.61084,551.33875
				L400.37081,551.33875L400.37081,551.57878L399.89075,551.57878L399.89075,552.05883L399.41069,552.05883L399.41069,552.53888
				L399.17066,552.53888L399.17066,552.77891L398.6906,552.77891L398.6906,553.49898L398.45057,553.49898L398.45057,554.45908L397.9705,554.45908
				L397.9705,555.17916L397.49044,555.17916L397.49044,556.37929L397.25041,556.37929L397.25041,557.09937L396.77035,557.09937L
				396.77035,557.81944L396.53032,557.81944L396.53032,559.01957L396.05026,559.01957L396.05026,559.73965L395.5702,559.73965L395.5702,560.93977
				L395.33017,560.93977L395.33017,561.65985L394.85011,561.65985L394.85011,562.37993L394.37005,562.37993L394.37005,563.34003
				L394.13002,563.34003L394.13002,564.30013L393.64996,564.30013L393.64996,565.26024L393.40993,565.26024L393.40993,565.98031
				L392.92986,565.98031L392.92986,567.18044L392.4498,567.18044L392.4498,567.90052L392.20977,567.90052L392.20977,568.62059L391.72971,568.62059
				L391.72971,569.34067L391.48968,569.34067L391.48968,570.30077L391.00962,570.30077L391.00962,571.02085L390.52956,571.02085
				L390.52956,571.26087L390.28953,571.26087L390.28953,572.22098L389.80947,572.22098L389.80947,572.461L389.56944,572.461L389.56944,573.18108
				L389.08938,573.18108L389.08938,574.38121L388.60932,574.38121L388.60932,574.86126L388.36929,574.86126L388.36929,575.58133
				L387.88922,575.58133L387.88922,576.30141L387.64919,576.30141L387.64919,576.78146L387.16913,576.78146L387.16913,581.10192
				L386.68907,581.10192L386.68907,582.06203L386.44904,582.06203L386.44904,583.26215L385.96898,583.26215L385.96898,582.54208
				L385.48892,582.54208L385.48892,581.822L385.24889,581.822L385.24889,581.10192L384.76883,581.10192L384.76883,579.9018L384.5288,579.9018
				L384.5288,579.18172L384.04874,579.18172L384.04874,578.22162L383.56868,578.22162L383.56868,577.02149L383.32865,577.02149L
				383.32865,575.10128L382.84859,575.10128L382.84859,573.66113L382.60855,573.66113L382.60855,572.22098L382.12849,572.22098L
				382.12849,570.30077L381.64843,570.30077L381.64843,568.62059L381.4084,568.62059L381.4084,568.14054L380.92834,568.14054L380.92834,567.42047
				L380.68831,567.42047L380.68831,567.18044L380.20825,567.18044L380.20825,566.70039L379.72819,566.70039L379.72819,565.98031
				L379.48816,565.98031L379.48816,565.50026L379.0081,565.50026L379.0081,565.26024L378.76807,565.26024L378.76807,564.30013L378.28801,564.30013
				L378.28801,563.58006L377.80795,563.58006L377.80795,562.37993L377.56791,562.37993L377.56791,561.65985L377.08785,561.65985
				L377.08785,560.45972L376.60779,560.45972L376.60779,559.73965L376.36776,559.73965L376.36776,558.53952L375.8877,558.53952L
				375.8877,557.33939L375.64767,557.33939L375.64767,555.17916L375.16761,555.17916L375.16761,553.25896L374.68755,553.25896L374.68755,550.8587
				L374.44752,550.8587L374.44752,548.9385L373.96746,548.9385L373.96746,548.21842L373.72743,548.21842L373.72743,547.49834L373.24737,547.49834
				L373.24737,546.53824L372.76731,546.53824L372.76731,546.29821L372.52728,546.29821L372.52728,545.57814L372.04721,545.57814
				L372.04721,544.61804L371.80718,544.61804L371.80718,543.89796L371.32712,543.89796L371.32712,543.65793L370.84706,543.65793
				L370.84706,543.17788L370.60703,543.17788L370.60703,542.69783L370.12697,542.69783L370.12697,542.45781L369.88694,542.45781
				L369.88694,541.97775L369.40688,541.97775L369.40688,541.4977L368.92682,541.4977L368.92682,541.25768L368.20673,541.25768L368.20673,540.77763
				L367.72667,540.77763L367.72667,540.5376L367.48664,540.5376L367.48664,540.05755L366.76654,540.05755L366.76654,539.5775L366.28648,539.5775
				L366.28648,539.33747L365.80642,539.33747L365.80642,538.85742L365.08633,538.85742L365.08633,538.6174L364.8463,538.6174L364.8463,538.13734
				L364.36624,538.13734L364.36624,537.65729L363.88618,537.65729L363.88618,537.41727L363.64615,537.41727L363.64615,536.69719
				L363.16609,536.69719L363.16609,535.73709L362.92606,535.73709L362.92606,535.49706L362.446,535.49706L362.446,534.53696L361.96594,534.53696
				L361.96594,533.81688L361.7259,533.81688L361.7259,533.09681L361.24584,533.09681L361.24584,532.37673L361.00581,532.37673L361.00581,531.65665
				L360.52575,531.65665L360.52575,530.69655L360.04569,530.69655L360.04569,529.97648L359.80566,529.97648L359.80566,529.73645
				L359.3256,529.73645L359.3256,528.77635L358.84554,528.77635L358.84554,528.05627L358.60551,528.05627L358.60551,527.33619L358.12545,527.33619
				L358.12545,526.61612L357.88542,526.61612L357.88542,525.65601L357.40536,525.65601L357.40536,524.93594L356.9253,524.93594L
				356.9253,524.21586L356.68526,524.21586L356.68526,523.73581L356.2052,523.73581L356.2052,523.01573L355.96517,523.01573L355.96517,522.29566
				L355.48511,522.29566L355.48511,521.57558L355.00505,521.57558L355.00505,520.8555L354.76502,520.8555L354.76502,519.8954L354.28496,519.8954
				L354.28496,519.17532L354.04493,519.17532L354.04493,518.45525L353.56487,518.45525L353.56487,517.73517L353.08481,517.73517
				L353.08481,516.77507L352.84478,516.77507L352.84478,516.53504L352.36472,516.53504L352.36472,515.81497L351.88466,515.81497
				L351.88466,514.85486L351.64463,514.85486L351.64463,514.13479L351.16456,514.13479L351.16456,513.89476L350.92453,513.89476
				L350.92453,512.93466L350.44447,512.93466L350.44447,512.21458L349.96441,512.21458L349.96441,511.97456L349.72438,511.97456
				L349.72438,511.01445L349.24432,511.01445L349.24432,510.29438L349.00429,510.29438L349.00429,510.05435L348.52423,510.05435
				L348.52423,509.09425L348.04417,509.09425L348.04417,508.37417L347.80414,508.37417L347.80414,507.89412L347.32408,507.89412
				L347.32408,507.17405L347.08405,507.17405L347.08405,506.45397L346.60399,506.45397L346.60399,505.97392L346.12392,505.97392
				L346.12392,505.25384L345.88389,505.25384L345.88389,504.53376L345.40383,504.53376L345.40383,504.05371L345.1638,504.05371L
				345.1638,503.33364L344.68374,503.33364L344.68374,502.61356L344.20368,502.61356L344.20368,502.13351L343.96365,502.13351L343.96365,501.41343
				L343.48359,501.41343L343.48359,501.17341L343.00353,501.17341L343.00353,500.2133L342.7635,500.2133L342.7635,499.49323L342.28344,499.49323
				L342.28344,499.01318L342.04341,499.01318L342.04341,498.2931L341.56335,498.2931L341.56335,498.05307L341.08328,498.05307L341.08328,497.09297
				L340.84325,497.09297L340.84325,496.37289L340.36319,496.37289L340.36319,496.13287L340.12316,496.13287L340.12316,495.17277
				L339.6431,495.17277L339.6431,494.93274L339.16304,494.93274L339.16304,494.21266L338.92301,494.21266L338.92301,493.25256L338.44295,493.25256
				L338.44295,493.01254L338.20292,493.01254L338.20292,492.29246L337.72286,492.29246L337.72286,491.81241L337.2428,491.81241L
				337.2428,491.09233L337.00277,491.09233L337.00277,490.61228L336.52271,490.61228L336.52271,490.13223L336.28268,490.13223L336.28268,489.8922
				L336.52271,489.8922L336.52271,489.41215"/>
		</g>
</g></svg>