<?xml version="1.0" encoding="utf-8" standalone="no"?>
<!-- Creator: ESRI ArcMap 10.0.0.2414 -->
<!DOCTYPE svg PUBLIC "-//W3C//DTD SVG 1.1//EN"  "http://www.w3.org/Graphics/SVG/1.1/DTD/svg11.dtd">
<svg width="524.0420768pt" height="223.898418117pt" viewBox="32.15712744 309.179925941 524.0420768 223.898418117" enable-background="new 32.15712744 309.179925941 524.0420768 223.898418117"
	version="1.1" xmlns="http://www.w3.org/2000/svg" xmlns:xlink="http://www.w3.org/1999/xlink" >
	<g id="Couches">
		<g id="reservoirs">
			<path clip-path="url(#SVG_CP_2)" fill-opacity="0.2" fill="#07866D" fill-rule="evenodd" stroke="none" stroke-width="" stra="1.44018" stroke-miterlimit="10" stroke-linecap="round" stroke-linejoin="round" d="
				M100.81279,369.87942L100.57276,370.59949L100.33273,370.59949L100.0927,370.59949L99.37261,370.35947L98.89255,370.83952L99.37261,371.07954
				L99.85267,371.31957L99.37261,372.03965L99.13258,372.27967L98.89255,373.95985L98.17246,374.4399L97.45237,375.15998L96.25222,375.4
				L95.53212,374.91995L94.572,375.64003L95.53212,376.36011L94.33197,378.28031L93.13182,377.80026L92.65176,378.04028L92.1717,377.56023
				L91.93167,377.80026L90.97155,378.28031L90.01142,379.00039L90.01142,379.48044L90.25145,379.72046L87.85115,381.64067L86.651,382.36075
				L87.13106,382.8408L87.13106,383.08082L86.89103,383.32085L85.45084,384.28095L85.69087,384.52098L86.41097,385.24105L86.89103,385.96113
				L86.651,386.20115L86.41097,386.20115L86.41097,386.44118L84.73075,386.92123L82.81051,387.40128L82.33045,387.64131L82.57048,388.84144
				L82.81051,389.08146L82.81051,389.56151L82.57048,390.04156L81.85039,390.28159L81.37033,390.52161L80.17017,391.48172L78.0099,392.68185
				L77.76987,392.68185L76.56972,391.72174L75.36957,392.44182L75.12953,392.68185L75.12953,393.88197L73.68935,395.56215L74.16941,396.0422
				L74.16941,396.28223L74.16941,396.52225L74.16941,396.76228L74.16941,397.24233L75.12953,397.96241L74.16941,399.16254L73.44932,398.68248
				L72.96926,399.16254L72.96926,399.40256L72.72923,399.64259L72.24917,399.88261L72.24917,399.64259L72.00914,399.64259L71.76911,399.88261
				L69.3688,400.84271L69.12877,400.84271L69.3688,400.84271L69.12877,401.08274L71.04902,403.24297L70.32893,404.68312L70.56896,404.68312
				L69.84886,405.88325L69.12877,406.84335L69.12877,407.08338L69.12877,407.32341L68.88874,407.32341L68.88874,407.56343L68.40868,407.08338
				L66.24841,405.88325L66.48844,405.64323L62.64795,403.96305L57.60731,402.04284L53.04673,398.92251L52.32664,398.68248L52.32664,398.44246
				L51.36652,397.96241L49.44628,397.00231L48.00609,395.56215L47.286,395.0821L47.52603,395.0821L47.76606,393.88197L48.00609,393.1619
				L47.76606,391.72174L47.52603,389.08146L46.80594,386.20115L46.56591,383.8009L46.56591,382.36075L46.80594,381.64067L47.286,380.92059
				L48.24612,379.96049L50.16637,378.52034L51.84658,377.32021L53.04673,376.12008L54.48692,374.67993L55.68707,372.99975L56.88722,370.83952
				L57.84734,369.15934L58.80746,367.47916L60.00762,366.27903L61.68783,364.83888L64.08813,363.63875L66.24841,362.43862L68.40868,361.71855
				L70.08889,361.23849L72.4892,360.99847L74.8895,360.75844L76.32969,360.27839L78.24993,360.03837L80.89027,359.55832L85.69087,358.59821
				L87.61112,358.11816L90.01142,357.87814L91.45161,357.63811L92.41173,357.63811L93.37185,357.63811L94.572,358.11816L96.25222,358.83824
				L97.45237,359.79834L99.61264,361.23849L102.25298,362.43862L103.69316,363.1587L103.45313,363.63875L102.97307,365.31893L102.01295,367.23913
				L100.81279,369.87942z"/>
			<path clip-path="url(#SVG_CP_2)" fill-opacity="0.2" fill="#07866D" fill-rule="evenodd" stroke="none" stroke-width="" stra="1.44018" stroke-miterlimit="10" stroke-linecap="round" stroke-linejoin="round" d="
				M316.84021,479.5711L315.40003,479.09105L314.91996,478.85103L313.95984,478.13095L313.47978,477.89092L311.55954,477.41087L
				312.27963,476.21075L313.23975,475.25064L310.35939,472.61036L309.39926,473.81049L306.75893,477.41087L307.95908,478.13095L
				309.15923,478.37098L310.35939,478.85103L310.35939,479.33108L312.27963,479.5711L312.75969,479.81113L313.47978,479.81113L314.19987,480.05116
				L314.91996,479.81113L315.40003,479.33108L316.84021,479.5711L320.20063,480.53121L320.92073,480.53121L320.20063,484.37162L
				320.92073,486.05179L320.6807,487.25192L320.44067,487.25192L319.72057,489.41215L319.00048,490.85231L318.04036,490.61228L317.32027,492.53249
				L314.67993,490.13223L313.95984,492.29246L313.71981,493.01254L311.31951,497.333L312.27963,497.81305L309.87933,500.45333L308.19911,499.49323
				L302.43838,496.37289L301.47826,497.81305L299.79805,499.49323L299.55802,499.49323L298.83792,499.2532L297.8778,498.77315L297.15771,498.2931
				L296.43762,497.81305L295.95756,497.333L295.4775,498.05307L293.31722,499.2532L291.87704,499.97328L292.11707,500.69335L293.31722,502.61356
				L292.59713,502.61356L291.87704,502.85359L291.63701,502.85359L291.15695,502.85359L290.19683,502.61356L289.71677,502.37353
				L288.75664,502.37353L288.27658,502.37353L287.79652,502.61356L287.07643,503.33364L286.11631,504.29374L284.91616,503.09361
				L284.19607,502.85359L283.47597,503.81369L283.95604,504.77379L283.23594,505.01382L281.79576,505.01382L280.11555,506.45397
				L278.9154,507.6541L275.55497,510.05435L268.35406,513.17468L260.91311,516.29502L245.79119,513.65474L231.86943,511.01445L218.66775,509.09425
				L208.10641,507.17405L202.10565,506.21394L186.98373,503.57366L180.02285,502.37353L175.22224,501.65346L175.46227,499.2532L
				175.7023,495.41279L175.94233,493.97264L175.22224,493.73261L175.22224,491.81241L174.26211,492.05243L173.30199,492.05243L173.06196,492.05243
				L172.82193,492.05243L172.82193,491.57238L172.5819,490.13223L171.86181,489.8922L171.14172,489.8922L169.70154,489.8922L169.46151,491.57238
				L166.10108,490.85231L165.86105,489.8922L165.86105,486.53185L166.34111,484.13159L167.30123,484.13159L167.30123,483.41151L
				167.0612,480.05116L166.82117,478.85103L166.58114,478.13095L165.38099,478.37098L165.38099,479.33108L165.86105,480.29118L166.10108,483.17149
				L164.18084,483.41151L163.70077,483.65154L159.86029,484.37162L159.1402,481.49131L157.45998,481.73133L157.21995,480.77123L
				155.29971,481.25128L154.81965,479.81113L154.33959,480.05116L153.37946,480.29118L153.13943,479.5711L154.09956,479.33108L154.57962,479.33108
				L153.6195,477.89092L152.65937,478.37098L152.65937,478.13095L151.93928,476.45077L151.69925,475.01062L151.21919,473.33044L
				151.21919,473.09041L150.97916,470.21011L150.97916,468.2899L150.73913,467.3298L150.25907,465.88965L149.77901,465.16957L148.81889,463.00934
				L148.57886,462.28926L148.57886,461.56919L148.57886,460.36906L148.81889,459.40896L149.05892,458.68888L149.53898,458.20883
				L149.77901,457.48875L150.4991,457.0087L151.21919,456.28862L151.93928,455.80857L152.41934,455.32852L153.13943,454.84847L153.37946,454.36842
				L153.85953,453.88837L154.33959,453.40832L154.57962,452.68824L154.81965,451.96816L156.0198,447.16765L157.21995,442.12711L
				158.66013,437.3266L159.62026,433.24617L161.06044,427.72558L161.5405,424.84527L162.26059,422.68504L162.50062,421.72494L163.46074,420.52481
				L163.94081,420.04476L164.6609,419.32468L165.38099,418.84463L165.86105,418.36458L166.34111,417.88453L166.58114,417.64451L
				167.30123,416.92443L168.26135,414.7642L168.74141,412.12392L170.42163,412.60397L171.14172,411.64387L171.38175,410.20371L171.62178,410.20371
				L171.86181,412.60397L172.10184,412.84399L172.34187,413.32404L172.34187,413.8041L172.5819,414.52417L172.5819,415.48427L172.5819,415.96433
				L174.98221,415.48427L175.94233,415.48427L175.22224,414.04412L174.50215,412.60397L173.30199,409.48364L172.5819,407.32341L
				172.34187,406.3633L171.86181,406.12328L171.38175,405.64323L171.38175,405.4032L171.62178,404.92315L172.10184,404.68312L172.34187,404.20307
				L170.90169,402.76292L172.10184,401.56279L172.34187,400.84271L171.62178,399.40256L171.14172,397.96241L171.86181,397.96241
				L173.54202,397.48236L174.74218,397.96241L174.50215,395.80218L176.42239,396.28223L177.62254,393.40192L178.34263,392.20179
				L178.58266,391.24169L178.82269,389.32149L178.82269,388.36138L179.06272,387.16126L179.06272,385.7211L179.30275,383.56087L
				183.6233,385.48108L182.42315,387.88133L181.223,390.76164L180.74294,390.76164L180.50291,391.48172L180.26288,392.44182L180.26288,393.88197
				L180.98297,395.56215L181.46303,396.76228L182.42315,399.88261L183.14324,400.12264L186.26364,401.56279L189.38403,403.00294
				L190.58419,403.72302L193.22452,404.68312L197.30504,402.76292L200.66547,400.60269L202.34568,399.40256L205.70611,396.76228
				L208.58647,397.00231L212.42696,396.52225L212.66699,398.20243L214.10717,400.60269L214.10717,404.20307L215.06729,407.32341
				L220.58799,407.56343L222.26821,407.56343L223.70839,407.56343L226.34872,407.80346L229.22909,405.4032L229.22909,405.16318L
				229.46912,403.483L229.70915,402.28287L224.90854,398.20243L220.82802,392.68185L217.94766,387.40128L216.50748,384.761L217.22757,380.44054
				L217.22757,379.72046L217.4676,375.15998L218.42772,372.5197L218.90778,371.55959L219.14781,370.59949L220.58799,367.23913L225.62863,362.91867
				L227.30885,362.43862L230.66927,362.43862L233.30961,362.67865L236.43,363.1587L245.0711,364.35883L251.79195,365.0789L252.27201,369.87942
				L252.27201,370.59949L252.51205,374.4399L255.39241,374.4399L257.79272,374.4399L260.43305,374.19988L260.43305,373.95985L262.35329,374.4399
				L262.83335,373.71982L266.43381,373.71982L266.91387,373.71982L266.91387,371.31957L267.39393,371.31957L268.11402,371.07954
				L270.51433,370.83952L272.6746,370.59949L272.6746,371.07954L272.91463,371.79962L273.63473,370.83952L274.11479,370.59949L275.795,369.87942
				L276.99515,369.87942L277.47521,369.63939L279.87552,368.91931L281.07567,368.19924L283.47597,367.23913L284.4361,366.99911L
				284.91616,368.43926L285.15619,369.15934L286.8364,374.19988L286.8364,376.60013L282.03579,377.56023L282.27582,378.76036L286.59637,377.80026
				L286.11631,379.48044L285.15619,380.20051L287.07643,389.80154L289.9568,387.16126L291.39698,387.16126L292.3571,389.08146L295.71753,386.68121
				L296.43762,386.20115L299.55802,386.44118L300.27811,386.44118L300.27811,387.16126L300.9982,388.12136L301.23823,387.64131L
				301.71829,387.40128L300.75817,386.20115L300.9982,385.48108L304.35862,384.28095L308.19911,382.60077L310.59942,381.64067L313.95984,380.20051
				L318.76045,378.76036L320.44067,379.00039L321.64082,376.60013L322.84097,373.4798L325.96137,367.23913L331.24204,372.27967L
				332.44219,370.35947L334.60246,368.43926L336.76274,367.71918L342.52347,368.91931L343.72362,368.91931L343.96365,365.31893L
				347.08405,366.27903L352.12469,368.19924L359.56563,371.79962L360.76578,373.23977L361.48587,373.95985L371.08709,367.71918L
				372.04721,370.11944L372.04721,371.31957L372.28724,371.79962L371.80718,374.19988L370.60703,379.00039L370.12697,380.92059L
				370.12697,383.8009L370.12697,385.24105L369.88694,387.16126L368.92682,389.56151L366.04645,389.80154L366.76654,393.1619L367.24661,393.64195
				L367.9667,393.64195L369.16685,393.40192L369.40688,394.84208L369.40688,395.0821L369.40688,396.28223L369.40688,397.72238L369.88694,397.48236
				L369.88694,396.0422L373.00734,395.80218L373.00734,394.60205L373.00734,394.36202L369.88694,394.60205L369.16685,391.24169L
				371.08709,390.76164L371.08709,389.56151L369.40688,389.80154L370.12697,386.92123L370.60703,384.52098L370.367,382.36075L370.60703,380.92059
				L370.84706,379.72046L372.04721,375.15998L372.52728,372.5197L372.52728,371.07954L372.28724,370.59949L371.56715,367.47916L
				370.12697,362.91867L369.16685,359.79834L368.68679,358.59821L368.44676,357.63811L368.20673,357.39809L367.9667,355.95793L367.9667,354.03773
				L367.48664,352.11752L366.52651,348.03709L366.52651,347.31701L372.28724,346.11688L379.48816,344.4367L380.44828,344.91676L
				381.4084,344.91676L387.16913,345.15678L387.40916,341.07635L387.64919,340.59629L388.12926,336.51586L388.36929,330.51522L394.85011,331.47532
				L395.5702,331.47532L395.5702,330.27519L398.45057,330.51522L397.9705,328.83504L398.21053,328.59502L397.25041,328.59502L397.49044,328.11496
				L396.05026,327.63491L396.05026,326.91484L396.53032,325.71471L396.29029,323.31445L396.29029,320.19412L397.01038,319.9541L
				398.21053,320.19412L398.45057,319.47404L397.01038,319.23402L397.73047,314.43351L399.17066,314.67353L399.65072,315.63363L
				400.85087,316.59374L401.0909,320.9142L403.73124,321.15422L403.25117,324.27456L403.01114,326.67481L402.77111,328.59502L402.29105,330.51522
				L402.05102,332.1954L404.2113,332.67545L404.2113,334.59566L404.69136,334.35563L406.6116,335.31573L407.09166,338.91612L406.6116,344.67673
				L408.05178,344.67673L409.49197,348.27711L409.49197,353.55768L409.25194,358.35819L408.77187,358.59821L401.0909,361.23849L
				402.05102,364.83888L402.77111,366.99911L403.01114,367.95921L403.4912,367.95921L409.732,366.99911L409.97203,368.67929L421.73352,366.51906
				L422.93367,368.91931L423.89379,370.35947L426.53413,374.19988L419.81328,375.4L420.7734,376.60013L421.49349,378.28031L421.73352,378.52034
				L428.6944,377.32021L429.89456,378.76036L430.85468,380.44054L428.45437,380.68057L428.6944,383.32085L430.61465,382.8408L432.53489,382.60077
				L434.9352,385.7211L435.41526,386.92123L436.13535,388.60141L437.57553,394.60205L438.53565,399.40256L439.7358,399.16254L440.21587,398.92251
				L439.97583,397.72238L439.7358,397.48236L439.7358,397.24233L443.81632,394.60205L443.57629,393.88197L442.37614,393.1619L441.17599,392.44182
				L442.8562,391.24169L444.77644,389.80154L448.61693,387.16126L452.45742,384.04092L453.41754,383.08082L455.81785,381.40064L
				458.93824,378.28031L460.61845,376.12008L463.97888,372.03965L465.89912,369.87942L468.0594,366.27903L470.93976,362.67865L472.13992,360.99847
				L472.37995,360.75844L472.37995,360.51842L476.94053,359.31829L476.46046,358.35819L475.9804,355.23785L475.74037,354.03773L
				475.26031,350.91739L475.9804,350.91739L476.46046,347.55704L477.90065,343.23658L486.78177,343.71663L487.98193,343.71663L489.42211,341.07635
				L491.34235,342.75652L492.30248,343.23658L492.78254,343.71663L493.2626,343.95665L494.46275,344.4367L495.6629,344.4367L496.86305,344.4367
				L498.30324,344.67673L499.50339,344.91676L498.06321,354.27775L497.82318,354.51778L499.98345,354.7578L499.02333,361.95857L
				498.7833,365.31893L499.02333,370.83952L499.02333,371.79962L499.26336,375.88005L497.82318,378.76036L497.58315,379.00039L496.38299,380.44054
				L493.50263,384.04092L493.02257,384.761L492.54251,385.00103L486.54174,392.68185L495.42287,412.84399L495.90293,417.16445L496.38299,417.16445
				L496.38299,420.04476L500.70354,415.48427L503.58391,413.8041L510.06473,411.64387L521.34616,410.44374L532.62759,410.92379L
				538.86838,410.44374L540.30857,410.68376L540.06854,412.12392L539.58848,414.04412L538.38832,419.80474L537.4282,424.84527L536.94814,430.12584
				L536.22805,435.4064L535.98802,439.00678L536.46808,440.92699L536.46808,441.64706L535.50796,443.56727L535.0279,444.28734L534.06778,446.20755
				L532.62759,448.84783L530.46732,451.72814L530.46732,454.60844L531.18741,456.28862L531.9075,458.20883L532.86762,458.9289L533.34768,459.16893
				L534.54784,459.40896L538.38832,459.40896L539.34845,460.12903L540.30857,461.08913L542.70887,462.04924L546.54936,466.84975
				L546.54936,468.76995L547.74951,469.00998L547.74951,469.97008L547.98954,471.89029L549.18969,472.13031L549.18969,475.73069
				L548.94966,476.6908L547.74951,481.73133L547.26945,484.61164L547.02942,485.57174L546.78939,488.45205L546.0693,491.33236L541.98878,492.05243
				L538.38832,492.53249L538.14829,492.53249L535.98802,492.77251L536.46808,495.65282L535.98802,495.65282L535.74799,495.89284
				L537.4282,506.69399L539.58848,508.13415L538.62835,508.37417L537.4282,508.85422L535.0279,509.5743L532.86762,510.05435L530.22729,511.01445
				L527.82698,511.97456L526.14677,512.69463L523.9865,513.65474L523.2664,514.13479L521.82622,514.85486L520.38604,516.53504L517.50567,518.9353
				L515.58543,520.13543L513.42516,520.8555L511.74494,521.81561L509.10461,523.25576L506.7043,525.17596L505.26412,526.13607L505.02409,526.37609
				L503.58391,527.81625L503.34388,528.05627L502.86382,528.05627L499.98345,525.65601L497.82318,524.45589L496.38299,523.49578
				L494.94281,522.29566L493.74266,521.57558L492.06244,521.09553L490.86229,520.37545L487.98193,519.41535L485.82165,518.69527
				L483.18132,518.21522L481.98117,518.21522L481.5011,517.9752L481.5011,517.49515L481.5011,516.05499L480.78101,513.65474L480.30095,510.77443
				L478.86077,508.37417L478.38071,507.17405L477.42059,505.73389L476.94053,505.25384L476.46046,504.05371L475.74037,502.85359
				L475.74037,502.37353L474.06016,501.89348L472.86001,501.65346L471.17979,501.17341L470.21967,500.93338L469.01952,500.45333
				L467.81937,499.97328L466.85925,499.73325L466.13915,499.49323L465.41906,499.01318L465.41906,498.53312L465.17903,497.57302
				L465.41906,496.61292L465.65909,495.65282L465.89912,494.93274L466.13915,493.73261L465.89912,492.53249L465.89912,491.81241
				L465.41906,491.33236L464.69897,490.61228L463.25879,489.41215L462.05864,488.21202L461.09852,487.25192L460.61845,486.29182
				L459.89836,485.09169L458.21815,481.49131L456.77797,478.13095L456.29791,476.93082L454.85772,473.33044L454.61769,471.89029
				L454.37766,470.45013L454.13763,469.25L454.13763,468.76995L453.8976,468.04988L453.65757,466.60972L453.65757,465.64962L452.45742,464.92954
				L451.4973,464.68952L450.53717,464.20947L449.57705,464.20947L447.41678,463.96944L444.77644,463.96944L442.8562,463.96944L440.93596,463.72942
				L439.97583,463.48939L438.53565,463.00934L437.09547,462.04924L435.89532,461.32916L434.69516,460.60908L435.41526,458.44885
				L436.13535,456.76867L437.09547,455.0885L438.05559,451.48811L438.53565,447.88773L439.01571,444.7674L439.49577,442.36714L439.49577,441.16701
				L439.25574,439.72686L439.01571,438.76676L438.77568,437.56663L438.53565,436.3665L438.53565,435.64642L438.53565,434.68632L
				438.77568,433.00614L439.49577,429.16573L439.97583,426.0454L440.93596,423.16509L441.41602,422.20499L442.13611,421.48491L442.8562,420.52481
				L443.09623,420.04476L443.57629,419.56471L444.29638,418.12456L444.53641,417.16445L444.77644,415.96433L444.77644,415.48427
				L444.77644,415.24425L445.01647,413.56407L445.01647,412.36394L445.01647,410.92379L444.29638,410.68376L442.61617,410.68376
				L433.73504,409.48364L430.13459,409.48364L428.6944,410.20371L428.45437,410.20371L427.25422,410.44374L426.2941,410.68376L426.05407,410.44374
				L425.33398,409.72366L423.89379,409.72366L420.05331,410.44374L418.61312,411.64387L418.61312,413.08402L415.97279,413.8041L
				415.2527,413.8041L413.57248,413.56407L412.85239,413.8041L411.17218,414.04412L411.17218,413.08402L410.69212,413.08402L410.21206,413.08402
				L407.81175,412.84399L404.93139,412.84399L403.97127,413.08402L402.29105,413.32404L400.61084,413.32404L398.6906,412.84399L
				397.73047,413.32404L396.77035,413.8041L396.53032,414.04412L395.09014,414.28415L393.16989,414.04412L390.76959,413.56407L387.88922,412.84399
				L385.72895,412.60397L381.4084,411.88389L379.72819,411.64387L379.24813,411.88389L378.76807,412.12392L379.0081,412.84399L379.0081,414.52417
				L379.24813,415.48427L379.72819,417.16445L379.96822,419.80474L380.20825,422.68504L380.20825,426.76548L379.72819,429.88581
				L378.76807,431.80601L377.80795,433.00614L376.36776,434.20627L374.92758,435.64642L373.96746,436.84655L372.52728,439.00678
				L370.84706,441.40704L369.16685,443.56727L367.48664,445.7275L366.04645,447.88773L365.08633,449.56791L363.16609,455.32852L
				361.48587,456.28862L358.60551,457.48875L355.00505,458.9289L354.04493,457.48875L353.32484,457.72878L351.64463,454.36842L349.96441,455.32852
				L352.12469,459.88901L350.44447,460.84911L347.56411,461.56919L344.44371,461.80921L343.48359,462.04924L342.04341,461.56919
				L341.56335,461.80921L334.1224,464.44949L329.32179,466.84975L326.92149,468.52993L325.24127,470.21011L322.12088,472.61036L
				321.64082,472.61036L321.16076,473.09041L320.6807,473.33044L320.20063,474.29054L320.20063,474.77059L320.20063,475.97072L320.20063,476.6908
				L321.16076,477.6509L321.40079,477.89092L322.12088,477.89092L321.64082,480.05116L319.9606,480.05116L319.24051,480.05116L318.04036,479.81113
				L316.84021,479.5711z"/>
		</g>
</g></svg>