<?xml version="1.0" encoding="utf-8" standalone="no"?>
<!-- Creator: ESRI ArcMap 10.0.0.2414 -->
<!DOCTYPE svg PUBLIC "-//W3C//DTD SVG 1.1//EN"  "http://www.w3.org/Graphics/SVG/1.1/DTD/svg11.dtd">
<svg width="524.0420768pt" height="185.936928486pt" viewBox="32.15712744 328.160670757 524.0420768 185.936928486" enable-background="new 32.15712744 328.160670757 524.0420768 185.936928486"
	version="1.1" xmlns="http://www.w3.org/2000/svg" xmlns:xlink="http://www.w3.org/1999/xlink" >
	<g id="Couches">
		<g id="cont_2">
			<path clip-path="url(#SVG_CP_2)" fill="none" stroke="#999999" stroke-width="0.96012" stroke-miterlimit="10" stroke-linecap="round" stroke-linejoin="round" d="
				M231.14933,432.28607L231.14933,432.04604L230.9093,432.04604L230.9093,431.80601L230.66927,431.80601L230.66927,431.56599L229.70915,431.56599
				L229.70915,431.32596L229.46912,431.32596L229.46912,431.08594L229.22909,431.08594L229.22909,430.84591L228.98906,430.84591
				L228.98906,430.60589L228.74903,430.60589L228.74903,430.36586L228.509,430.36586L228.509,430.12584L228.26897,430.12584L228.26897,429.88581
				L228.02894,429.88581L228.02894,429.64578L227.78891,429.64578L227.78891,429.40576L227.54888,429.40576L227.54888,429.16573
				L227.30885,429.16573L227.30885,428.92571L227.06882,428.92571L227.06882,428.68568L226.82879,428.68568L226.82879,428.44566
				L226.58876,428.44566L226.58876,428.20563L226.34872,428.20563L226.34872,427.9656L226.10869,427.9656L226.10869,427.72558L225.86866,427.72558
				L225.62863,427.72558L225.62863,427.48555L225.3886,427.48555L225.3886,427.24553L225.14857,427.24553L225.14857,427.0055L224.90854,427.0055
				L224.90854,426.76548L224.66851,426.76548L224.66851,426.52545L224.66851,426.28543L224.42848,426.28543L224.42848,426.0454L
				224.18845,426.0454L224.18845,425.80537L223.94842,425.80537L223.94842,425.56535L223.70839,425.56535L223.46836,425.56535L223.46836,425.32532
				L223.22833,425.32532L223.22833,425.0853L180.02285,425.0853L180.02285,424.84527L179.78282,424.84527L179.54278,424.84527L179.54278,424.60525
				L179.30275,424.60525L179.30275,424.36522L179.06272,424.36522L179.06272,424.1252L178.82269,424.1252L178.82269,423.88517L178.58266,423.88517
				L178.58266,423.64514L178.34263,423.64514L178.34263,423.40512L134.65709,423.40512L134.41706,423.40512L134.41706,423.16509
				L134.17703,423.16509L134.17703,422.92507L133.937,422.92507L133.937,422.68504L133.69697,422.68504L133.69697,422.44502L133.45694,422.44502
				L133.45694,422.20499L133.21691,422.20499L133.21691,421.96497L132.97688,421.96497L132.97688,421.72494L132.97688,421.48491
				L132.97688,421.00486L133.21691,421.00486L133.21691,420.28479L133.21691,419.80474L133.45694,419.80474L133.45694,419.56471
				L133.21691,419.56471L133.21691,419.32468L132.97688,419.32468L132.97688,419.08466L132.73685,419.08466L132.73685,418.84463
				L132.73685,418.60461L132.49681,418.60461L132.49681,418.36458L132.25678,418.36458L132.25678,418.12456L132.25678,417.88453
				L132.01675,417.88453L132.01675,417.64451L132.01675,417.40448L131.77672,417.40448L131.77672,417.16445L131.53669,417.16445
				L131.53669,416.92443L131.29666,416.92443L131.29666,416.6844L131.05663,416.6844L131.05663,416.44438L131.05663,416.20435L130.8166,416.20435
				L130.8166,415.7243L131.05663,415.7243L131.05663,415.48427L131.29666,415.48427L131.53669,415.48427L131.53669,415.24425L131.77672,415.24425
				L132.01675,415.24425L132.01675,415.00422L132.25678,415.00422L132.49681,415.00422L132.49681,414.7642L132.73685,414.7642L132.73685,414.52417
				L132.97688,414.52417L133.21691,414.52417L133.21691,414.28415L133.45694,414.28415L133.69697,414.28415L133.69697,414.04412
				L133.937,414.04412L133.937,413.8041L134.17703,413.8041L134.41706,413.8041L134.41706,413.56407L133.937,413.56407L132.49681,413.56407
				L132.49681,413.8041L132.25678,413.8041L132.25678,412.84399L132.49681,412.84399L132.49681,412.60397L132.73685,412.60397L132.97688,412.60397
				L132.97688,412.36394L134.41706,412.36394L134.89712,412.36394L134.89712,412.12392L135.13715,412.12392L135.13715,411.88389
				L135.13715,411.64387L135.37718,411.64387L135.37718,411.16381L135.13715,411.16381L135.13715,410.92379L134.89712,410.92379
				L134.89712,411.16381L134.65709,411.16381L134.17703,411.16381L134.17703,411.40384L133.69697,411.40384L133.45694,411.40384
				L132.97688,411.40384L132.97688,411.16381L132.97688,410.92379L133.21691,410.92379L133.21691,410.68376L133.45694,410.68376
				L133.45694,410.44374L133.45694,409.72366L133.45694,409.48364L132.97688,409.48364L132.49681,409.48364L132.49681,409.72366
				L132.01675,409.72366L132.01675,409.96369L131.29666,409.96369L130.8166,409.96369L130.57657,409.96369L130.57657,409.72366L
				130.57657,409.48364L130.33654,409.48364L130.09651,409.48364L130.09651,409.24361L129.85648,409.24361L129.85648,409.48364L
				129.37642,409.48364L128.89636,409.48364L128.89636,409.72366L128.4163,409.72366L128.4163,409.96369L127.69621,409.96369L126.97611,409.96369
				L126.97611,410.20371L126.25602,410.20371L125.53593,410.20371L125.53593,410.44374L124.57581,410.44374L123.85572,410.44374
				L123.85572,410.68376L123.85572,410.44374L122.1755,410.44374L120.73532,410.44374L120.73532,410.20371L119.53517,410.20371L
				118.33502,410.20371L118.33502,409.96369L117.85496,409.96369L117.3749,409.96369L117.3749,409.72366L116.89483,409.72366L116.89483,409.48364
				L116.41477,409.48364L115.93471,409.48364L115.93471,409.24361L116.6548,409.24361L117.13487,409.24361L117.13487,409.00358L
				118.57505,409.00358L119.53517,409.00358L119.53517,408.76356L120.01523,408.76356L120.01523,408.52353L120.25526,408.52353L
				120.25526,408.28351L120.49529,408.28351L120.49529,408.04348L120.73532,408.04348L120.73532,407.80346L120.73532,407.56343L
				120.97535,407.56343L120.97535,407.32341L121.21538,407.32341L121.21538,407.08338L121.21538,406.84335L121.45541,406.84335L
				121.45541,406.60333L121.45541,406.3633L121.69544,406.3633L121.69544,406.12328L121.93547,406.12328L121.93547,405.88325L122.1755,405.88325
				L122.1755,405.64323L122.1755,405.4032L122.41554,405.4032L122.41554,405.16318L122.41554,404.92315L122.65557,404.92315L122.65557,404.68312
				L122.8956,404.68312L122.8956,404.4431L123.13563,404.4431L123.13563,404.20307L123.37566,404.20307L123.37566,403.96305L123.61569,403.96305
				L123.61569,403.72302L123.85572,403.72302L123.85572,403.24297L124.09575,403.24297L124.09575,403.00294L124.33578,403.00294
				L124.33578,402.76292L124.57581,402.76292L124.57581,402.52289L124.57581,402.28287L124.81584,402.28287L124.81584,402.04284
				L125.05587,402.04284L125.2959,402.04284L125.2959,401.80282L125.53593,401.80282L125.53593,401.56279L125.77596,401.56279L125.77596,401.32277
				L126.01599,401.32277L126.01599,401.08274L126.25602,401.08274L126.25602,400.84271L126.49605,400.84271L126.49605,400.60269
				L126.73608,400.60269L126.73608,400.36266L126.97611,400.36266L126.97611,400.12264L127.21614,400.12264L127.45618,400.12264
				L127.45618,399.88261L127.69621,399.88261L127.69621,399.64259L127.69621,399.40256L127.93624,399.40256L127.93624,399.16254
				L128.17627,399.16254L128.17627,398.92251L128.17627,398.68248L128.4163,398.68248L128.4163,398.44246L128.4163,398.20243L128.65633,398.20243
				L128.65633,397.96241L128.65633,397.72238L128.89636,397.72238L128.89636,397.48236L128.89636,397.00231L129.13639,397.00231
				L129.13639,396.76228L129.13639,396.52225L129.37642,396.52225L129.37642,396.28223L129.61645,396.28223L129.61645,396.0422L
				129.61645,395.80218L129.85648,395.80218L129.85648,395.56215L129.85648,395.32213L130.09651,395.32213L130.09651,395.0821L130.33654,395.0821
				L130.33654,394.84208L130.57657,394.84208L130.57657,394.60205L130.8166,394.60205L130.8166,394.36202L131.05663,394.36202L131.05663,394.122
				L131.29666,394.122L131.29666,393.88197L131.53669,393.88197L131.53669,393.64195L131.77672,393.64195L131.77672,393.40192L132.01675,393.40192
				L132.01675,393.1619L132.25678,393.1619L132.25678,392.92187L132.25678,392.68185L132.49681,392.68185L132.49681,392.44182L132.49681,391.96177
				L132.73685,391.96177L132.73685,391.48172L132.97688,391.48172L132.97688,391.24169L133.21691,391.24169L133.21691,391.00167
				L133.45694,391.00167L133.45694,390.76164L133.45694,390.52161L133.937,390.52161L133.937,390.28159L134.17703,390.28159L134.17703,390.04156
				L134.41706,390.04156L134.41706,389.80154L134.65709,389.80154L134.65709,389.56151L134.89712,389.56151L134.89712,389.32149
				L135.13715,389.32149L135.37718,389.32149L135.37718,389.08146L135.61721,389.08146L135.61721,388.84144L135.85724,388.84144
				L135.85724,388.60141L136.09727,388.60141L136.09727,388.36138L136.3373,388.36138L136.57733,388.36138L136.57733,388.12136L
				136.81736,388.12136L136.81736,387.88133L137.05739,387.88133L137.05739,387.64131L137.29742,387.64131L137.53745,387.64131L
				137.53745,387.40128L138.01752,387.40128L138.01752,387.16126L138.25755,387.16126L138.49758,387.16126L138.49758,386.92123L
				138.73761,386.92123L138.97764,386.92123L138.97764,386.68121L139.21767,386.68121L139.21767,386.44118L139.4577,386.44118L139.93776,386.44118
				L139.93776,386.20115L140.17779,386.20115L140.65785,386.20115L140.65785,385.96113L140.89788,385.96113L141.13791,385.96113
				L141.13791,385.7211L141.37794,385.7211L141.858,385.7211L141.858,385.48108L142.09803,385.48108L142.09803,385.24105L142.33806,385.24105
				L142.33806,385.00103L142.57809,385.00103L142.57809,384.761L142.81812,384.761L142.81812,384.52098L143.05815,384.52098L143.05815,384.28095
				L143.29819,384.28095L143.29819,384.04092L143.53822,384.04092L143.53822,383.8009L143.77825,383.8009L143.77825,383.56087L144.01828,383.56087
				L144.01828,383.32085L144.25831,383.32085L144.25831,383.08082L144.49834,383.08082L144.49834,382.8408L144.73837,382.8408L144.73837,382.60077
				L144.9784,382.60077L144.9784,382.36075L145.21843,382.36075L145.21843,382.12072L145.45846,382.12072L145.45846,381.88069L145.69849,381.88069
				L145.69849,381.64067L145.93852,381.64067L145.93852,381.40064L146.17855,381.40064L146.17855,381.16062L146.41858,381.16062
				L146.41858,380.92059L146.65861,380.92059L146.65861,380.68057L146.89864,380.68057L146.89864,380.44054L147.13867,380.44054
				L147.13867,380.20051L147.3787,380.20051L147.3787,379.96049L147.61873,379.96049L147.61873,379.72046L147.85876,379.72046L147.85876,379.48044
				L148.09879,379.48044L148.09879,379.24041L148.33883,379.24041L148.33883,379.00039L148.57886,379.00039L148.57886,378.76036
				L148.81889,378.76036L148.81889,378.52034L149.05892,378.52034L149.05892,378.28031L149.29895,378.28031L149.29895,378.04028
				L149.53898,378.04028L149.53898,377.80026L149.77901,377.80026L149.77901,377.56023L150.01904,377.56023L150.01904,377.32021
				L150.25907,377.32021L150.25907,377.08018L150.4991,377.08018L150.4991,376.84016L150.73913,376.84016L150.73913,376.60013L150.97916,376.60013
				L150.97916,376.36011L151.21919,376.36011L151.45922,376.36011L151.45922,376.12008L151.45922,375.88005L151.69925,375.88005
				L151.69925,375.64003L151.93928,375.64003L151.93928,375.4L152.17931,375.4L152.17931,375.15998L152.41934,375.15998L152.65937,375.15998
				L152.65937,374.91995L152.8994,374.91995L152.8994,374.67993L153.13943,374.67993L153.37946,374.67993L153.37946,374.4399L153.6195,374.4399
				L153.6195,374.19988L153.85953,374.19988L153.85953,373.95985L154.09956,373.95985L154.09956,373.71982L154.33959,373.71982L
				154.57962,373.71982L154.57962,373.4798L154.81965,373.4798L155.05968,373.4798L155.05968,373.23977L155.29971,373.23977L155.29971,372.99975
				L155.53974,372.99975L155.53974,372.75972L155.77977,372.75972L155.77977,372.5197L156.0198,372.5197L156.0198,372.27967L156.25983,372.27967
				L156.25983,372.03965L156.49986,372.03965L156.49986,371.79962L156.73989,371.79962L156.73989,371.55959L156.97992,371.55959
				L156.97992,371.31957L157.21995,371.31957L157.45998,371.31957L157.45998,371.07954L157.70001,371.07954L157.70001,370.83952
				L157.94004,370.83952L157.94004,370.59949L158.4201,370.59949L158.4201,370.35947L158.90017,370.35947L159.1402,370.35947L159.1402,370.11944
				L159.38023,370.11944L159.62026,370.11944L159.62026,369.87942L159.86029,369.87942L159.86029,369.63939L160.10032,369.63939
				L160.34035,369.63939L160.34035,369.39936L160.58038,369.39936L161.30047,369.39936L161.30047,369.15934L161.5405,369.15934L
				161.5405,369.39936L161.78053,369.39936L161.78053,369.15934L162.26059,369.15934L168.50138,369.15934L168.50138,368.91931L168.74141,368.91931
				L169.22148,368.91931L169.22148,368.67929L169.70154,368.67929L170.1816,368.67929L170.1816,368.43926L171.14172,368.43926L171.14172,368.67929
				L171.62178,368.67929L172.34187,368.67929L172.5819,368.67929L172.5819,368.43926L172.82193,368.43926L173.30199,368.43926L173.30199,368.19924
				L173.78205,368.19924L174.02208,368.19924L174.02208,367.95921L174.50215,367.95921L174.98221,367.95921L174.98221,367.71918
				L175.7023,367.71918L175.7023,367.47916L175.94233,367.47916L175.94233,367.23913L176.18236,367.23913L176.42239,367.23913L176.42239,366.99911
				L176.66242,366.99911L176.90245,366.99911L176.90245,366.75908L177.14248,366.75908L177.38251,366.75908L177.38251,366.51906
				L179.54278,366.51906L180.02285,366.51906L180.02285,366.27903L181.94309,366.27903L182.66318,366.27903L182.66318,366.03901
				L184.10336,366.03901L185.06349,366.03901L185.06349,365.79898L185.54355,365.79898L185.54355,365.55895L187.46379,365.55895
				L198.98525,365.55895L200.1854,365.55895L200.1854,365.79898L200.9055,365.79898L200.9055,366.03901L201.86562,366.03901L203.3058,366.03901
				L203.3058,366.27903L204.02589,366.27903L204.74598,366.27903L204.74598,366.51906L205.70611,366.51906L206.18617,366.51906L
				206.18617,366.75908L207.38632,366.75908L207.38632,366.51906L207.86638,366.51906L208.8265,366.51906L209.30656,366.51906L209.30656,366.75908
				L209.54659,366.75908L209.54659,366.99911L209.78662,366.99911L210.02665,366.99911L210.02665,367.23913L210.26668,367.23913
				L210.26668,367.47916L210.50671,367.47916L210.50671,367.71918L210.74674,367.71918L210.74674,367.95921L210.98678,367.95921
				L210.98678,368.19924L211.22681,368.19924L211.46684,368.19924L211.46684,368.43926L211.70687,368.43926L211.70687,368.67929
				L211.9469,368.67929L211.9469,368.91931L212.18693,368.91931L212.42696,368.91931L212.42696,369.15934L212.66699,369.15934L212.66699,369.39936
				L212.90702,369.39936L213.14705,369.39936L213.14705,369.63939L213.62711,369.63939L213.62711,369.87942L213.62711,370.11944
				L213.86714,370.11944L214.10717,370.11944L214.10717,370.35947L221.78815,370.35947L222.02818,370.35947L222.02818,370.59949
				L222.50824,370.59949L222.9883,370.59949L222.9883,370.83952L223.46836,370.83952L223.70839,370.83952L223.70839,371.07954L223.94842,371.07954
				L224.18845,371.07954L224.18845,371.31957L224.42848,371.31957L224.66851,371.31957L224.66851,371.55959L225.14857,371.55959
				L225.14857,371.31957L225.3886,371.31957L225.3886,371.07954L225.62863,371.07954L226.10869,371.07954L226.10869,370.83952L226.58876,370.83952
				L231.14933,370.83952L231.38936,370.83952L231.38936,371.07954L231.62939,371.07954L232.10946,371.07954L232.10946,371.31957
				L233.06958,371.31957L233.30961,371.31957L233.30961,371.55959L233.54964,371.55959L233.78967,371.55959L233.78967,371.79962
				L234.0297,371.79962L234.0297,372.03965L234.0297,372.27967L234.26973,372.27967L234.50976,372.27967L234.50976,372.5197L234.50976,372.75972
				L234.74979,372.75972L234.74979,372.99975L234.98982,372.99975L234.98982,373.23977L235.22985,373.23977L235.22985,373.4798L
				235.46988,373.4798L235.70991,373.4798L235.70991,373.71982L235.94994,373.71982L235.94994,373.95985L236.18997,373.95985L236.43,373.95985
				L236.43,374.19988L236.67003,374.19988L236.67003,374.4399L236.91007,374.4399L236.91007,374.67993L237.1501,374.67993L237.39013,374.67993
				L237.39013,374.91995L237.63016,374.91995L237.63016,375.15998L237.87019,375.15998L237.87019,375.4L238.11022,375.4L238.11022,375.64003
				L238.35025,375.64003L238.59028,375.64003L238.59028,375.88005L238.83031,375.88005L238.83031,376.12008L239.07034,376.12008
				L239.07034,376.36011L239.31037,376.36011L239.31037,376.60013L239.5504,376.60013L239.79043,376.60013L239.79043,376.84016L
				240.03046,376.84016L240.03046,377.08018L240.27049,377.08018L240.27049,377.32021L240.75055,377.32021L240.99058,377.32021L
				240.99058,377.56023L241.23061,377.56023L241.23061,377.80026L241.47064,377.80026L241.47064,378.04028L241.71067,378.04028L
				241.9507,378.04028L241.9507,378.28031L241.9507,378.52034L242.19074,378.52034L242.43077,378.52034L242.43077,378.76036L242.91083,378.76036
				L242.91083,379.00039L243.15086,379.00039L243.15086,379.24041L243.39089,379.24041L243.39089,379.48044L243.63092,379.48044
				L243.87095,379.48044L243.87095,379.72046L244.11098,379.72046L244.11098,379.96049L244.35101,379.96049L244.35101,380.20051
				L244.59104,380.20051L244.83107,380.20051L244.83107,380.44054L245.0711,380.44054L245.0711,380.68057L245.31113,380.68057L245.31113,380.92059
				L245.55116,380.92059L245.55116,381.16062L245.79119,381.16062L245.79119,381.40064L246.03122,381.40064L246.03122,381.64067
				L246.27125,381.64067L246.51128,381.64067L246.51128,381.88069L246.75131,381.88069L246.75131,382.12072L246.99134,382.12072
				L246.99134,382.36075L247.23137,382.36075L247.23137,382.60077L247.47141,382.60077L247.47141,382.8408L247.71144,382.8408L247.71144,383.08082
				L247.95147,383.08082L247.95147,383.32085L248.1915,383.32085L248.1915,383.56087L248.43153,383.56087L248.43153,383.8009L248.67156,383.8009
				L248.67156,384.04092L248.91159,384.04092L249.15162,384.04092L249.15162,384.28095L249.39165,384.28095L249.63168,384.28095
				L249.63168,384.52098L249.63168,384.761L249.87171,384.761L249.87171,385.00103L250.11174,385.00103L250.11174,385.24105L250.35177,385.24105
				L250.5918,385.24105L250.5918,385.48108L250.83183,385.48108L251.07186,385.48108L251.07186,385.7211L251.31189,385.7211L251.31189,385.96113
				L251.55192,385.96113L251.79195,385.96113L251.79195,386.20115L252.03198,386.20115L252.03198,386.44118L252.27201,386.44118
				L252.51205,386.44118L252.51205,386.68121L252.75208,386.68121L252.75208,386.92123L252.99211,386.92123L252.99211,387.16126
				L253.23214,387.16126L253.47217,387.16126L253.47217,387.40128L253.7122,387.40128L253.7122,387.64131L253.95223,387.64131L253.95223,387.88133
				L254.19226,387.88133L254.19226,388.12136L254.43229,388.12136L254.43229,388.36138L254.67232,388.36138L254.67232,388.60141
				L254.91235,388.60141L254.91235,388.84144L254.91235,389.08146L255.15238,389.08146L255.39241,389.08146L255.39241,389.32149
				L255.63244,389.32149L255.63244,389.56151L255.63244,389.80154L255.87247,389.80154L255.87247,390.04156L256.1125,390.04156L
				256.1125,390.28159L256.35253,390.28159L256.35253,390.52161L256.59256,390.52161L256.59256,390.76164L256.83259,390.76164L256.83259,391.00167
				L256.83259,391.24169L257.07262,391.24169L257.07262,391.48172L257.31265,391.48172L257.31265,391.72174L257.55268,391.72174
				L257.55268,391.96177L257.79272,391.96177L257.79272,392.20179L257.79272,392.44182L258.03275,392.44182L258.03275,392.68185
				L258.51281,392.68185L258.75284,392.68185L258.75284,392.92187L258.99287,392.92187L258.99287,393.1619L259.2329,393.1619L259.71296,393.1619
				L259.71296,393.40192L259.95299,393.40192L260.19302,393.40192L260.19302,393.64195L260.67308,393.64195L260.91311,393.64195
				L260.91311,393.88197L261.15314,393.88197L261.15314,394.122L261.39317,394.122L261.6332,394.122L261.6332,394.36202L261.87323,394.36202
				L261.87323,394.60205L262.11326,394.60205L262.11326,394.84208L262.35329,394.84208L262.59332,394.84208L262.59332,395.0821L
				262.59332,395.32213L262.83335,395.32213L263.07339,395.32213L263.07339,395.56215L266.43381,395.56215L268.83412,395.56215L
				270.2743,395.56215L270.2743,395.80218L270.75436,395.80218L270.99439,395.80218L270.99439,396.0422L271.23442,396.0422L271.47445,396.0422
				L271.47445,396.28223L271.95451,396.28223L272.43457,396.28223L272.43457,396.52225L272.6746,396.52225L272.91463,396.52225L
				272.91463,396.76228L273.15466,396.76228L272.6746,396.76228L272.6746,397.00231L272.43457,397.00231L271.95451,397.00231L271.95451,397.24233
				L271.71448,397.24233L271.71448,397.48236L271.23442,397.48236L270.99439,397.48236L270.99439,397.72238L270.75436,397.72238
				L270.2743,397.72238L270.2743,397.96241L270.03427,397.96241L269.55421,397.96241L269.55421,398.20243L269.31418,398.20243L268.83412,398.20243
				L268.83412,398.44246L268.59409,398.44246L268.11402,398.44246L268.11402,398.68248L267.87399,398.68248L267.39393,398.68248
				L267.39393,398.92251L267.1539,398.92251L266.91387,398.92251L266.91387,399.16254L266.67384,399.16254L266.19378,399.16254L
				266.19378,399.40256L265.95375,399.40256L265.95375,399.64259L265.47369,399.64259L265.23366,399.64259L265.23366,399.88261L
				264.99363,399.88261L264.51357,399.88261L264.51357,400.12264L264.27354,400.12264L264.03351,400.12264L264.03351,400.36266L
				263.79348,400.36266L263.31342,400.36266L263.31342,400.60269L263.07339,400.60269L262.83335,400.60269L262.83335,400.84271L
				262.35329,400.84271L262.11326,400.84271L262.11326,401.08274L261.87323,401.08274L261.6332,401.08274L261.6332,401.32277L261.15314,401.32277
				L261.15314,401.56279L260.91311,401.56279L260.91311,401.80282L260.67308,401.80282L260.43305,401.80282L260.43305,402.04284
				L260.19302,402.04284L259.95299,402.04284L259.95299,402.28287L259.71296,402.28287L259.47293,402.28287L259.47293,402.52289
				L259.2329,402.52289L258.99287,402.52289L258.99287,402.76292L258.75284,402.76292L258.75284,403.00294L258.51281,403.00294L
				258.27278,403.00294L258.27278,403.24297L258.03275,403.24297L258.03275,403.483L257.79272,403.483L257.79272,403.72302L257.55268,403.72302
				L257.31265,403.72302L257.31265,403.96305L257.07262,403.96305L256.83259,403.96305L256.83259,404.20307L256.59256,404.20307
				L256.35253,404.20307L256.35253,404.4431L256.1125,404.4431L255.87247,404.4431"/>
			<path clip-path="url(#SVG_CP_2)" fill="none" stroke="#999999" stroke-width="0.96012" stroke-miterlimit="10" stroke-linecap="round" stroke-linejoin="round" d="
				M255.87247,404.4431L255.87247,404.68312L255.63244,404.68312L255.39241,404.68312L255.39241,404.92315L255.15238,404.92315L
				254.91235,404.92315L254.91235,405.16318L254.67232,405.16318L254.43229,405.16318L254.43229,405.4032L254.19226,405.4032L254.19226,405.64323
				L253.95223,405.64323L253.95223,405.88325L253.95223,406.84335L253.7122,406.84335L253.7122,407.08338L253.95223,407.08338L253.95223,407.56343
				L253.95223,408.04348L254.19226,408.04348L254.19226,408.52353L254.19226,409.00358L254.43229,409.00358L254.43229,409.24361
				L254.43229,409.48364L254.67232,409.48364L254.67232,409.96369L254.67232,410.20371L254.91235,410.20371L254.91235,410.44374
				L254.91235,410.68376L255.15238,410.68376L255.15238,411.16381L255.39241,411.16381L255.39241,411.40384L255.39241,411.64387
				L255.63244,411.64387L255.63244,412.12392L255.63244,412.60397L255.63244,413.32404L255.63244,414.28415L255.63244,414.7642L
				255.39241,414.7642L255.39241,415.24425L255.39241,415.7243L255.15238,415.7243L255.15238,416.20435L254.91235,416.20435L254.91235,416.44438
				L255.15238,416.44438L255.15238,416.92443L255.39241,416.92443L255.39241,417.16445L255.39241,417.40448L255.63244,417.40448
				L255.63244,417.64451L255.15238,417.64451L254.91235,417.64451L254.91235,417.88453L254.67232,417.88453L254.67232,418.36458
				L254.67232,418.60461L254.91235,418.60461L254.67232,418.60461L254.67232,418.84463L254.43229,418.84463L253.95223,418.84463
				L253.95223,419.08466L253.7122,419.08466L253.7122,419.32468L253.95223,419.32468L253.95223,419.56471L254.19226,419.56471L254.19226,419.80474
				L254.43229,419.80474L254.43229,420.04476L254.67232,420.04476L254.67232,420.28479L254.67232,420.52481L254.91235,420.52481
				L254.91235,420.28479L255.15238,420.28479L255.15238,420.04476L255.39241,420.04476L255.63244,420.04476L255.63244,419.80474
				L255.87247,419.80474L255.87247,419.56471L256.1125,419.56471L256.1125,419.80474L256.35253,419.80474L256.35253,420.04476L256.59256,420.04476
				L256.59256,420.52481L256.83259,420.52481L256.83259,420.76484L257.07262,420.76484L257.07262,421.00486L257.31265,421.00486
				L257.55268,421.00486L257.55268,420.76484L257.79272,420.76484L257.79272,420.52481L258.03275,420.52481L258.27278,420.52481
				L258.27278,420.76484L258.51281,420.76484L258.51281,421.00486L258.75284,421.00486L258.75284,421.24489L258.99287,421.24489
				L259.2329,421.24489L259.2329,421.48491L258.99287,421.48491L258.99287,421.72494L258.75284,421.72494L258.75284,421.96497L258.51281,421.96497
				L258.27278,421.96497L258.27278,422.20499L258.03275,422.20499L258.03275,422.44502L257.79272,422.44502L257.79272,422.68504
				L257.55268,422.68504L257.31265,422.68504L257.31265,422.92507L257.07262,422.92507L256.83259,422.92507L256.83259,423.16509
				L256.59256,423.16509L256.59256,423.40512L256.35253,423.40512L256.1125,423.40512L256.1125,423.64514L256.35253,423.64514L256.35253,423.88517
				L256.59256,423.88517L256.59256,424.1252L256.59256,424.36522L256.83259,424.36522L256.83259,424.60525L257.07262,424.60525L
				257.07262,424.84527L256.83259,424.84527L256.83259,425.0853L256.59256,425.0853L256.59256,425.32532L256.35253,425.32532L256.35253,425.56535
				L256.1125,425.56535L256.1125,425.80537L255.87247,425.80537L255.87247,426.0454L255.63244,426.0454L255.63244,426.28543L255.39241,426.28543
				L255.39241,426.52545L255.15238,426.52545L255.15238,426.76548L254.91235,426.76548L254.91235,427.0055L254.67232,427.0055L254.67232,427.24553
				L254.43229,427.24553L254.43229,427.48555L254.19226,427.48555L253.95223,427.48555L253.95223,427.72558L253.95223,427.9656L
				253.7122,427.9656L253.7122,428.20563L253.7122,428.44566L253.47217,428.44566L253.47217,428.92571L253.23214,428.92571L253.23214,429.16573
				L253.23214,429.40576L252.99211,429.40576L252.99211,429.88581L252.75208,429.88581L252.75208,430.12584L252.75208,429.88581
				L252.03198,429.88581L252.03198,431.56599L252.03198,431.80601L251.79195,431.80601L251.31189,431.80601L251.31189,432.04604
				L250.83183,432.04604L250.5918,432.04604L250.5918,432.28607L231.14933,432.28607"/>
			<path clip-path="url(#SVG_CP_2)" fill="none" stroke="#999999" stroke-width="0.96012" stroke-miterlimit="10" stroke-linecap="round" stroke-linejoin="round" d="
				M186.02361,381.16062L186.02361,380.92059L186.26364,380.92059L186.50367,380.92059L186.50367,380.68057L186.7437,380.68057L
				186.98373,380.68057L186.98373,380.44054L187.22376,380.44054L187.22376,380.20051L187.46379,380.20051L187.94385,380.20051L
				187.94385,379.96049L188.18388,379.96049L188.42391,379.96049L188.42391,379.72046L188.66394,379.72046L188.90397,379.72046L
				188.90397,379.48044L189.144,379.48044L189.62406,379.48044L189.62406,379.24041L189.86409,379.24041L189.86409,379.48044L191.78434,379.48044
				L191.78434,379.24041L192.02437,379.24041L192.02437,379.48044L193.94461,379.48044L198.74522,379.48044L199.70534,379.48044
				L199.70534,379.24041L204.74598,379.24041L209.54659,379.24041L209.54659,379.00039L209.54659,378.28031L209.30656,378.28031
				L209.30656,377.80026L209.30656,377.56023L209.06653,377.56023L209.06653,377.32021L208.8265,377.32021L208.8265,377.08018L208.58647,377.08018
				L208.58647,376.84016L208.34644,376.84016L208.10641,376.84016L208.10641,376.60013L207.86638,376.60013L207.62635,376.60013
				L207.62635,376.36011L207.38632,376.36011L207.14629,376.36011L207.14629,376.12008L206.90626,376.12008L206.90626,375.88005
				L206.66623,375.88005L206.4262,375.88005L206.4262,375.64003L206.18617,375.64003L205.94614,375.64003L205.94614,375.4L205.70611,375.4
				L205.46607,375.4L205.46607,375.15998L205.22604,375.15998L205.22604,374.91995L204.98601,374.91995L204.98601,375.15998L203.54583,375.15998
				L203.54583,374.91995L201.86562,374.91995L200.9055,374.91995L200.9055,374.67993L199.22528,374.67993L199.22528,374.91995L198.98525,374.91995
				L198.50519,374.91995L198.50519,375.15998L198.02513,375.15998L197.54507,375.15998L197.54507,375.4L197.06501,375.4L196.34492,375.4
				L196.34492,375.64003L195.62483,375.64003L192.2644,375.64003L192.2644,375.88005L191.78434,375.88005L191.06425,375.88005L191.06425,376.12008
				L190.34416,376.12008L190.34416,376.36011L189.38403,376.36011L188.42391,376.36011L188.42391,376.60013L187.94385,376.60013
				L187.94385,376.84016L187.70382,376.84016L187.70382,377.08018L187.46379,377.08018L187.22376,377.08018L187.22376,377.32021
				L186.98373,377.32021L186.98373,377.56023L186.50367,377.56023L186.50367,377.80026L186.26364,377.80026L186.26364,378.04028
				L185.78358,378.04028L185.78358,378.28031L185.54355,378.28031L185.54355,378.52034L185.30352,378.52034L185.30352,378.76036
				L185.06349,378.76036L184.82346,378.76036L184.82346,379.00039L184.58342,379.00039L184.58342,379.24041L184.34339,379.24041
				L184.10336,379.24041L184.10336,379.48044L183.6233,379.48044L183.6233,379.72046L183.38327,379.72046L183.38327,379.96049L183.14324,379.96049
				L182.90321,379.96049L182.90321,380.20051L183.14324,380.20051L183.38327,380.20051L183.38327,380.44054L183.6233,380.44054L
				183.6233,380.68057L184.10336,380.68057L184.58342,380.68057L184.58342,380.92059L185.06349,380.92059L185.54355,380.92059L185.54355,381.16062
				L186.02361,381.16062"/>
			<path clip-path="url(#SVG_CP_2)" fill="none" stroke="#999999" stroke-width="0.96012" stroke-miterlimit="10" stroke-linecap="round" stroke-linejoin="round" d="
				M132.97688,421.72494L132.97688,421.96497L133.21691,421.96497L133.21691,422.20499L133.45694,422.20499L133.45694,422.44502
				L133.45694,422.68504L133.69697,422.68504L133.937,422.68504L133.937,422.92507L134.17703,422.92507L134.17703,423.16509L134.41706,423.16509
				L134.41706,423.40512L134.65709,423.40512L134.65709,423.64514L176.90245,423.64514L177.14248,423.64514L177.14248,423.88517
				L177.38251,423.88517L177.38251,424.1252L178.82269,424.1252L179.06272,424.1252L179.06272,424.36522L179.06272,424.60525L179.30275,424.60525
				L179.30275,424.84527L179.54278,424.84527L179.54278,425.0853L179.78282,425.0853L180.02285,425.0853L180.02285,425.32532L210.26668,425.32532
				L210.26668,425.56535L210.50671,425.56535L210.50671,425.80537L210.74674,425.80537L210.74674,426.0454L210.98678,426.0454L210.98678,426.28543
				L211.22681,426.28543L211.46684,426.28543L211.46684,426.52545L211.46684,426.76548L211.70687,426.76548L211.70687,427.0055L
				211.9469,427.0055L211.9469,427.24553L212.18693,427.24553L212.18693,427.48555L212.42696,427.48555L212.42696,427.72558L212.66699,427.72558
				L212.66699,427.9656L226.10869,427.9656L226.10869,428.20563L226.34872,428.20563L226.34872,428.44566L226.58876,428.44566L226.58876,428.68568
				L226.82879,428.68568L226.82879,428.92571L227.06882,428.92571L227.06882,429.16573L227.30885,429.16573L227.30885,429.40576
				L227.54888,429.40576L227.54888,429.64578L227.78891,429.64578L227.78891,429.88581L228.02894,429.88581L228.02894,430.12584
				L228.26897,430.12584L228.26897,430.36586L228.509,430.36586L228.509,430.60589L228.74903,430.60589L228.74903,430.84591L228.98906,430.84591
				L228.98906,431.08594L229.22909,431.08594L229.22909,431.32596L229.46912,431.32596L229.46912,431.56599L229.70915,431.56599
				L229.70915,431.80601L229.94918,431.80601L230.18921,431.80601L230.18921,432.04604L230.42924,432.04604L230.42924,432.28607
				L231.14933,432.28607L250.11174,432.28607L250.11174,432.52609L250.35177,432.52609L250.35177,432.76612L250.35177,433.00614
				L250.5918,433.00614L250.5918,433.24617L250.83183,433.24617L250.83183,433.48619L250.83183,433.72622L251.07186,433.72622L251.31189,433.72622
				L251.31189,433.96624L251.31189,434.20627L251.55192,434.20627L251.55192,434.4463L251.79195,434.4463L251.79195,434.68632L252.03198,434.68632
				L252.03198,434.92635L252.03198,435.16637L252.27201,435.16637L252.27201,435.64642L252.27201,435.88645L252.51205,435.88645
				L252.51205,436.12647L252.51205,436.60653L252.75208,436.60653L252.75208,436.84655L252.75208,437.3266L252.99211,437.3266L252.99211,438.04668
				L253.23214,438.04668L253.23214,438.52673L253.23214,439.48683L253.47217,439.48683L253.47217,439.96688L253.47217,440.68696
				L253.7122,440.68696L253.7122,441.40704L253.7122,441.88709L253.95223,441.88709L253.95223,442.36714L253.95223,442.84719L254.19226,442.84719
				L254.19226,443.56727L254.19226,443.80729L254.43229,443.80729L254.43229,444.28734L254.43229,444.52737L254.67232,444.52737
				L254.67232,444.7674L254.67232,445.24745L254.91235,445.24745L254.91235,445.7275L255.15238,445.7275L255.39241,445.7275L255.39241,445.96752
				L255.39241,446.20755L255.63244,446.20755L255.63244,446.44757L255.87247,446.44757L255.87247,446.6876L255.87247,446.92763L
				256.1125,446.92763L256.1125,447.16765L256.1125,447.40768L256.35253,447.40768L256.35253,447.6477L256.35253,448.12775L256.59256,448.12775
				L256.59256,448.6078L256.59256,449.08786L256.83259,449.08786L256.83259,449.56791L256.83259,450.04796L257.07262,450.04796L
				257.07262,450.52801L257.07262,451.00806L257.31265,451.00806L257.31265,451.48811L257.55268,451.48811L257.55268,451.96816L
				257.55268,452.20819L257.79272,452.20819L257.79272,452.44821L257.79272,452.68824L258.03275,452.68824L258.03275,453.16829L
				258.03275,453.40832L258.27278,453.40832L258.27278,453.64834L258.27278,453.88837L258.51281,453.88837L258.51281,454.12839L
				258.51281,454.36842L258.75284,454.36842L258.75284,454.60844L258.75284,454.84847L258.99287,454.84847L258.99287,455.0885L258.99287,455.32852
				L259.2329,455.32852L259.2329,455.80857L259.2329,456.28862L259.47293,456.28862L259.47293,457.0087L259.71296,457.0087L259.71296,457.72878
				L259.71296,458.44885L259.95299,458.44885L259.95299,459.16893L259.95299,459.64898L260.19302,459.64898L260.19302,460.36906
				L260.19302,460.84911L260.43305,460.84911L260.43305,461.08913L260.43305,461.32916L260.67308,461.32916L260.67308,461.56919
				L260.67308,461.80921L260.91311,461.80921L260.91311,462.52929L260.67308,462.52929L260.67308,462.76931L260.67308,463.00934
				L260.43305,463.00934L260.43305,463.24936L260.19302,463.24936L260.19302,463.48939L260.19302,463.72942L259.95299,463.72942
				L259.95299,463.96944L259.95299,464.20947L259.71296,464.20947L259.71296,464.44949L259.71296,464.68952L259.47293,464.68952
				L259.47293,464.92954L259.2329,464.92954L259.2329,465.16957L259.2329,465.40959L258.99287,465.40959L258.99287,465.64962L258.75284,465.64962
				L258.75284,465.88965L258.75284,466.12967L258.51281,466.12967L258.51281,466.3697L258.51281,466.60972L258.27278,466.60972L
				258.27278,466.84975L258.27278,467.08977L258.03275,467.08977L258.03275,467.3298L258.03275,467.56983L257.79272,467.56983L257.79272,467.80985
				L257.79272,468.04988L257.55268,468.04988L257.55268,468.2899L257.31265,468.2899L257.31265,468.76995L257.07262,468.76995L257.07262,469.00998
				L256.83259,469.00998L256.83259,469.25L256.83259,469.49003L256.59256,469.49003L256.59256,469.73006L256.59256,469.97008L256.35253,469.97008
				L256.35253,470.21011L256.35253,470.45013L256.1125,470.45013L256.1125,470.69016L256.1125,470.93018L255.87247,470.93018L255.87247,471.17021
				L256.1125,471.17021L256.35253,471.17021L256.35253,471.41023L256.83259,471.41023L257.07262,471.41023L257.07262,471.65026L
				257.31265,471.65026L257.55268,471.65026L257.55268,471.89029L258.03275,471.89029L258.27278,471.89029L258.27278,472.13031L
				258.51281,472.13031L258.75284,472.13031L258.75284,472.37034L258.99287,472.37034L259.2329,472.37034L259.2329,472.61036L259.71296,472.61036
				L259.71296,472.85039L259.95299,472.85039L260.19302,472.85039L260.19302,473.09041L260.43305,473.09041L260.67308,473.09041
				L260.67308,473.33044L260.91311,473.33044L261.15314,473.33044L261.15314,473.57046L261.6332,473.57046L261.87323,473.57046L
				261.87323,473.81049L262.11326,473.81049L262.35329,473.81049L262.35329,474.05052L262.59332,474.05052L262.83335,474.05052L
				262.83335,474.29054L263.07339,474.29054L262.59332,474.29054L262.59332,474.53057L262.11326,474.53057L261.6332,474.53057L261.6332,474.77059
				L260.91311,474.77059L260.91311,475.01062L260.43305,475.01062L259.95299,475.01062L259.95299,475.25064L259.71296,475.25064
				L259.71296,475.49067L259.2329,475.49067L258.99287,475.49067L258.99287,475.73069L258.75284,475.73069L258.27278,475.73069L
				258.27278,475.97072L258.03275,475.97072L257.79272,475.97072L257.79272,476.21075L257.55268,476.21075L257.07262,476.21075L
				257.07262,476.45077L256.83259,476.45077L256.59256,476.45077L256.59256,476.6908L256.1125,476.6908L255.87247,476.6908L255.87247,476.93082
				L255.63244,476.93082L255.63244,477.17085L255.39241,477.17085L254.91235,477.17085L254.91235,477.41087L254.67232,477.41087
				L254.43229,477.41087L254.43229,477.6509L254.19226,477.6509L253.95223,477.6509L253.95223,477.89092L253.7122,477.89092L253.47217,477.89092
				L253.47217,478.13095L252.99211,478.13095L252.75208,478.13095L252.75208,478.37098L252.51205,478.37098L252.03198,478.37098
				L252.03198,478.611L251.79195,478.611L251.55192,478.611L251.55192,478.85103L251.31189,478.85103L251.31189,479.09105L250.83183,479.09105
				L250.5918,479.09105L250.5918,479.33108L250.35177,479.33108L250.11174,479.33108L250.11174,479.5711L249.63168,479.5711L249.39165,479.5711
				L249.39165,479.81113L249.15162,479.81113L248.67156,479.81113L248.67156,480.05116L248.43153,480.05116L248.1915,480.05116L
				248.1915,480.29118L247.95147,480.29118L247.47141,480.29118L247.47141,480.53121L247.23137,480.53121L246.99134,480.53121L246.99134,480.77123
				L246.51128,480.77123L246.27125,480.77123L246.27125,481.01126L245.79119,481.01126L245.79119,481.25128L245.55116,481.25128
				L244.83107,481.25128L244.83107,481.49131L216.02742,481.49131L216.02742,481.25128L212.18693,481.25128L211.46684,481.25128
				L211.46684,481.01126L210.74674,481.01126L210.74674,480.77123L210.26668,480.77123L209.78662,480.77123L209.78662,480.53121
				L209.30656,480.53121L208.8265,480.53121L208.8265,480.29118L208.34644,480.29118L207.86638,480.29118L207.86638,480.05116L207.38632,480.05116
				L206.90626,480.05116L206.90626,479.81113L206.4262,479.81113L205.94614,479.81113L205.94614,479.5711L205.46607,479.5711L204.74598,479.5711
				L204.74598,479.33108L204.26592,479.33108L203.06577,479.33108L203.06577,479.09105L201.86562,479.09105L201.38556,479.09105
				L201.38556,478.85103L200.9055,478.85103L200.9055,478.611L200.1854,478.611L199.70534,478.611L199.70534,478.37098L199.46531,478.37098
				L199.22528,478.37098L199.22528,478.13095L198.74522,478.13095L197.7851,478.13095L197.7851,477.89092L197.54507,477.89092L197.30504,477.89092
				L197.30504,477.6509L197.06501,477.6509L196.58495,477.6509L196.58495,477.41087L196.34492,477.41087L196.10489,477.41087L196.10489,477.17085
				L195.62483,477.17085L195.3848,477.17085L195.3848,476.93082L195.14476,476.93082L195.14476,476.6908L193.22452,476.6908L192.50443,476.6908
				L191.78434,476.6908L190.82422,476.6908L190.82422,476.45077L189.62406,476.45077L189.144,476.45077L189.144,476.21075L187.46379,476.21075
				L186.98373,476.21075L186.7437,476.21075L186.7437,476.45077L186.50367,476.45077L186.26364,476.45077L186.26364,476.6908L186.02361,476.6908
				L186.02361,476.93082L185.78358,476.93082L185.78358,477.17085L185.54355,477.17085L185.30352,477.17085L185.30352,477.41087
				L185.06349,477.41087L184.82346,477.41087L184.82346,477.6509L184.58342,477.6509L184.34339,477.6509L184.34339,477.89092L183.86333,477.89092
				L182.90321,477.89092L182.66318,477.89092L182.66318,477.6509L182.18312,477.6509L181.94309,477.6509L181.94309,477.41087L181.70306,477.41087
				L181.223,477.41087L181.223,477.17085L180.98297,477.17085L180.74294,477.17085L180.74294,476.93082L180.50291,476.93082L180.50291,476.6908
				L180.26288,476.6908L179.78282,476.6908L179.78282,476.45077L179.54278,476.45077L179.30275,476.45077L179.30275,476.21075L178.82269,476.21075
				L178.58266,476.21075L178.58266,475.97072L178.34263,475.97072L178.1026,475.97072L178.1026,475.73069L177.86257,475.73069L176.66242,475.73069
				L176.66242,475.49067L176.18236,475.49067L175.7023,475.49067L175.7023,475.25064L175.46227,475.25064L174.98221,475.25064L174.98221,475.01062
				L174.74218,475.01062L174.50215,475.01062L174.50215,474.77059L174.26211,474.77059L174.26211,474.53057L174.02208,474.53057
				L173.54202,474.53057L173.54202,474.29054L173.30199,474.29054L173.06196,474.29054L173.06196,474.05052L172.5819,474.05052L
				172.34187,474.05052L172.34187,473.81049L172.10184,473.81049L171.86181,473.81049L171.86181,473.57046L171.62178,473.57046L
				171.14172,473.57046L171.14172,473.33044L170.90169,473.33044L170.66166,473.33044L170.66166,473.09041L170.42163,473.09041L
				170.1816,473.09041L170.1816,472.85039L169.94157,472.85039L169.70154,472.85039L169.70154,472.61036L169.46151,472.61036L169.46151,472.37034
				L169.22148,472.37034L168.98144,472.37034L168.98144,472.13031L168.74141,472.13031L168.50138,472.13031L168.50138,471.89029
				L168.26135,471.89029L167.78129,471.89029L167.78129,471.65026L167.54126,471.65026L167.30123,471.65026L167.30123,471.41023
				L167.0612,471.41023L166.82117,471.41023L166.82117,471.17021L166.58114,471.17021L166.34111,471.17021L166.34111,470.93018L
				166.10108,470.93018L166.10108,470.69016L165.86105,470.69016L165.86105,470.45013L165.62102,470.45013L165.62102,470.21011L
				165.38099,470.21011L165.38099,469.97008L165.38099,469.73006L165.14096,469.73006L165.14096,469.49003L164.90093,469.49003L
				164.90093,469.25L164.90093,469.00998L164.6609,469.00998L164.6609,468.76995L164.6609,468.2899L164.42087,468.2899L164.42087,468.04988
				L164.18084,468.04988L164.18084,467.80985L164.18084,467.56983L163.94081,467.56983L163.94081,467.3298L163.70077,467.3298L163.70077,467.08977
				L163.46074,467.08977L163.46074,466.84975L163.46074,466.60972L163.22071,466.60972L163.22071,466.3697L163.22071,466.12967L
				162.98068,466.12967L162.98068,465.88965L162.74065,465.88965L162.74065,465.64962L162.50062,465.64962L162.50062,465.40959L
				162.26059,465.40959L162.02056,465.40959L162.02056,465.16957L161.78053,465.16957L161.5405,465.16957L161.5405,464.92954L161.30047,464.92954
				L161.30047,464.68952L161.06044,464.68952L160.82041,464.68952L160.82041,464.44949L160.58038,464.44949L160.58038,464.20947
				L160.34035,464.20947L160.34035,463.96944L160.10032,463.96944L160.10032,463.72942L159.86029,463.72942L159.86029,463.48939
				L159.86029,463.24936L159.62026,463.24936L159.62026,463.00934L159.38023,463.00934L159.38023,462.76931L159.1402,462.76931L
				159.1402,462.52929L158.90017,462.52929L158.90017,462.28926L158.90017,462.04924L158.66013,462.04924L158.66013,461.80921L158.4201,461.80921
				L158.4201,461.56919L158.18007,461.56919L158.18007,461.32916L157.94004,461.32916L157.94004,461.08913L157.94004,460.84911L
				157.70001,460.84911L157.70001,460.60908L157.45998,460.60908L157.45998,460.36906L157.21995,460.36906L157.21995,460.12903L
				156.97992,460.12903L156.97992,459.88901L156.97992,459.64898L156.73989,459.64898L156.49986,459.64898L156.49986,459.40896L
				156.25983,459.40896L156.25983,459.16893L156.0198,459.16893L156.0198,458.9289L155.77977,458.9289L155.53974,458.9289L155.53974,458.68888
				L155.29971,458.68888L155.29971,458.44885L155.05968,458.44885L155.05968,458.20883L154.81965,458.20883L154.81965,457.9688L
				154.57962,457.9688L154.57962,457.72878L154.33959,457.72878L154.33959,457.48875L154.09956,457.48875L154.09956,457.24873L153.85953,457.24873
				L153.85953,457.0087L153.6195,457.0087L153.6195,456.76867L153.37946,456.76867L153.37946,456.52865L153.13943,456.52865L153.13943,456.28862
				L152.8994,456.28862L152.8994,456.0486L152.65937,456.0486L152.65937,455.80857L152.41934,455.80857L152.41934,455.56855L152.17931,455.56855
				L152.17931,455.32852L151.93928,455.32852L151.93928,455.0885L151.69925,455.0885L151.69925,454.84847L151.45922,454.84847L151.45922,454.60844
				L151.21919,454.60844L151.21919,454.36842L150.97916,454.36842L150.97916,454.12839L150.73913,454.12839L150.73913,453.88837
				L150.73913,453.64834L150.4991,453.64834L150.4991,453.40832L150.25907,453.40832L150.01904,453.40832L150.01904,453.16829L149.77901,453.16829
				L149.77901,452.92826L149.53898,452.92826L149.53898,452.68824L149.53898,452.44821L149.29895,452.44821L149.29895,452.20819
				L149.05892,452.20819L149.05892,451.96816L148.81889,451.96816L148.81889,451.72814L148.57886,451.72814L148.57886,451.48811
				L148.33883,451.48811L148.33883,451.24809L148.09879,451.24809L148.09879,451.00806L147.61873,451.00806L147.13867,451.00806
				L147.13867,450.76803L146.89864,450.76803L146.65861,450.76803L146.65861,450.52801L146.41858,450.52801L146.17855,450.52801
				L146.17855,450.28798L145.93852,450.28798L145.69849,450.28798L145.69849,450.04796L145.45846,450.04796L145.21843,450.04796
				L145.21843,449.80793L144.9784,449.80793L144.9784,449.56791L144.73837,449.56791L144.73837,449.32788L144.49834,449.32788L144.25831,449.32788
				L144.25831,449.08786L143.77825,449.08786L143.77825,448.84783L143.53822,448.84783L143.53822,448.6078L143.29819,448.6078L143.05815,448.6078
				L143.05815,448.36778L142.81812,448.36778L142.57809,448.36778L142.57809,448.12775L142.33806,448.12775L141.858,448.12775L141.858,447.88773
				L141.61797,447.88773L141.37794,447.88773L141.37794,447.6477L141.13791,447.6477L140.89788,447.6477L140.89788,447.40768L140.65785,447.40768
				L140.65785,447.16765L140.17779,447.16765L139.93776,447.16765L139.93776,446.92763L139.69773,446.92763L139.21767,446.92763
				L139.21767,446.6876L138.97764,446.6876L138.73761,446.6876L138.73761,446.44757L138.49758,446.44757L138.49758,446.20755L138.25755,446.20755
				L138.01752,446.20755L138.01752,445.96752L137.77748,445.96752L137.53745,445.96752L137.53745,445.7275L137.29742,445.7275L137.05739,445.7275
				L137.05739,445.48747L136.81736,445.48747L136.81736,445.24745L136.57733,445.24745L136.57733,445.00742L136.3373,445.00742L
				136.09727,445.00742L136.09727,444.7674L135.85724,444.7674L135.61721,444.7674L135.61721,444.52737L135.37718,444.52737L135.13715,444.52737
				L135.13715,444.28734L134.89712,444.28734L134.89712,444.04732L134.65709,444.04732L134.41706,444.04732L134.41706,443.80729
				L134.17703,443.80729L133.937,443.80729L133.937,443.56727L133.69697,443.56727L133.69697,443.08722L133.45694,443.08722L133.21691,443.08722
				L133.21691,442.84719L133.21691,442.60717L132.97688,442.60717L132.97688,442.36714L132.73685,442.36714L132.73685,442.12711
				L132.49681,442.12711L132.49681,441.88709L132.25678,441.88709L132.25678,441.64706L132.25678,441.40704L132.01675,441.40704
				L132.01675,441.16701L132.01675,440.92699L131.77672,440.92699L131.77672,440.68696L131.77672,440.44693L131.53669,440.44693
				L131.53669,440.20691L131.29666,440.20691L131.29666,439.96688L131.29666,439.72686L131.05663,439.72686L131.05663,439.48683
				L130.8166,439.48683L130.8166,439.24681L130.8166,439.00678L130.57657,439.00678L130.57657,438.76676L130.57657,438.52673L130.33654,438.52673
				L130.33654,438.2867L130.33654,438.04668L130.09651,438.04668L130.09651,437.80665L129.85648,437.80665L129.85648,437.56663L
				129.85648,437.3266L129.61645,437.3266L129.61645,437.08658L129.37642,437.08658L129.37642,436.84655L129.13639,436.84655L128.89636,436.84655
				L128.89636,436.60653L128.65633,436.60653L128.65633,436.3665L128.4163,436.3665L128.4163,436.12647L128.17627,436.12647L128.17627,435.88645
				L127.93624,435.88645L127.93624,435.64642L127.69621,435.64642L127.69621,435.4064L127.45618,435.4064L127.45618,435.16637L127.45618,434.92635
				L127.21614,434.92635L127.21614,434.68632L126.97611,434.68632L126.97611,434.4463L126.73608,434.4463L126.49605,434.4463L126.49605,434.20627
				L126.25602,434.20627L126.01599,434.20627L126.01599,433.96624L125.53593,433.96624L125.2959,433.96624L125.2959,433.72622L125.05587,433.72622
				L124.81584,433.72622L124.81584,433.48619L124.33578,433.48619L124.09575,433.48619L124.09575,433.24617L123.85572,433.24617
				L123.61569,433.24617L123.61569,433.00614L123.37566,433.00614L123.37566,432.76612L123.13563,432.76612L123.13563,432.52609
				L122.8956,432.52609L122.65557,432.52609L122.65557,432.28607L122.41554,432.28607L122.1755,432.28607L122.1755,432.04604L121.93547,432.04604
				L121.69544,432.04604L121.69544,431.80601L121.45541,431.80601L121.21538,431.80601L121.21538,431.56599L120.97535,431.56599
				L120.73532,431.56599L120.73532,431.32596L120.49529,431.32596L120.49529,431.08594L120.25526,431.08594L120.01523,431.08594
				L120.01523,430.84591L120.01523,430.60589L119.7752,430.60589L119.7752,430.36586L119.53517,430.36586L119.29514,430.36586L119.29514,430.12584
				L119.05511,430.12584L118.81508,430.12584L118.81508,429.88581L117.85496,429.88581L116.89483,429.88581L116.89483,429.64578
				L116.6548,429.64578L116.41477,429.64578L116.41477,429.40576L116.17474,429.40576L115.93471,429.40576L115.93471,429.16573L
				115.45465,429.16573L115.21462,429.16573L115.21462,428.92571L114.97459,428.92571L114.49453,428.92571L114.49453,428.68568L
				114.2545,428.68568L114.2545,428.44566L114.01447,428.44566L113.77444,428.44566L113.77444,428.20563L113.53441,428.20563L113.05435,428.20563
				L113.05435,427.9656L112.81432,427.9656L112.33426,427.9656L112.33426,427.72558L112.09423,427.72558L111.8542,427.72558L111.8542,427.48555
				L111.61416,427.48555L111.1341,427.48555L111.1341,427.24553L110.89407,427.24553L110.17398,427.24553L110.17398,427.0055L109.93395,427.0055
				L110.17398,427.0055L110.17398,426.76548L110.41401,426.76548L110.41401,426.52545L110.65404,426.52545L110.65404,426.28543L
				111.1341,426.28543L111.61416,426.28543L111.61416,426.0454L112.09423,426.0454L112.81432,426.0454L112.81432,425.80537L113.05435,425.80537
				L113.53441,425.80537L113.53441,425.56535L114.01447,425.56535L114.49453,425.56535L114.49453,425.32532L115.21462,425.32532
				L115.69468,425.32532L115.69468,425.0853L115.93471,425.0853L116.41477,425.0853L116.41477,424.84527L117.13487,424.84527L117.61493,424.84527
				L117.61493,424.60525L118.09499,424.60525L118.57505,424.60525L118.57505,424.36522L119.05511,424.36522L119.05511,424.1252L
				119.53517,424.1252L120.01523,424.1252L120.01523,423.88517L120.49529,423.88517L120.97535,423.88517L120.97535,423.64514L121.45541,423.64514
				L121.93547,423.64514L121.93547,423.40512L122.41554,423.40512L123.13563,423.40512L123.13563,423.16509L123.85572,423.16509
				L124.57581,423.16509L124.57581,422.92507L125.77596,422.92507L126.73608,422.92507L126.73608,422.68504L127.69621,422.68504
				L128.65633,422.68504L128.65633,422.44502L129.85648,422.44502L129.85648,422.20499L130.8166,422.20499L131.77672,422.20499L
				131.77672,421.96497L132.49681,421.96497L132.73685,421.96497L132.73685,421.72494L132.97688,421.72494"/>
		</g>
</g></svg>