<?xml version="1.0" encoding="utf-8" standalone="no"?>
<!-- Creator: ESRI ArcMap 10.0.0.2414 -->
<!DOCTYPE svg PUBLIC "-//W3C//DTD SVG 1.1//EN"  "http://www.w3.org/Graphics/SVG/1.1/DTD/svg11.dtd">
<svg width="524.0420768pt" height="438.256965874pt" viewBox="32.15712744 202.000652063 524.0420768 438.256965874" enable-background="new 32.15712744 202.000652063 524.0420768 438.256965874"
	version="1.1" xmlns="http://www.w3.org/2000/svg" xmlns:xlink="http://www.w3.org/1999/xlink" >
	<g id="Couches">
		<g id="cont_2">
			<path clip-path="url(#SVG_CP_2)" fill="none" stroke="#999999" stroke-width="0.96012" stroke-miterlimit="10" stroke-linecap="round" stroke-linejoin="round" d="
				M185.06349,319.47404L185.06349,319.9541L184.58342,319.9541L184.58342,319.47404L185.06349,319.47404"/>
			<path clip-path="url(#SVG_CP_2)" fill="none" stroke="#999999" stroke-width="0.96012" stroke-miterlimit="10" stroke-linecap="round" stroke-linejoin="round" d="
				M332.68222,324.75461L331.96213,324.75461L331.96213,324.51458L332.20216,324.51458L332.20216,324.03453L333.16228,324.03453
				L333.16228,324.51458L332.68222,324.51458L332.68222,324.75461"/>
			<path clip-path="url(#SVG_CP_2)" fill="none" stroke="#999999" stroke-width="0.96012" stroke-miterlimit="10" stroke-linecap="round" stroke-linejoin="round" d="
				M279.15543,363.39872L278.67537,363.39872L278.67537,362.67865L278.43533,362.67865L278.43533,362.1986L277.95527,362.1986L277.95527,361.95857
				L277.71524,361.95857L277.71524,361.23849L276.03503,361.23849L276.03503,360.75844L274.11479,360.75844L274.11479,360.27839
				L272.19454,360.27839L272.19454,360.03837L270.2743,360.03837L270.2743,359.55832L268.35406,359.55832L268.35406,359.31829L266.43381,359.31829
				L266.43381,358.83824L264.51357,358.83824L264.51357,358.59821L262.59332,358.59821L262.59332,358.11816L261.87323,358.11816
				L261.87323,355.47788L262.35329,355.47788L262.35329,352.8376L262.59332,352.8376L262.59332,344.4367L262.35329,344.4367L262.35329,343.95665
				L261.87323,343.95665L261.87323,343.4766L261.15314,343.4766L261.15314,343.23658L260.67308,343.23658L260.67308,342.75652L260.43305,342.75652
				L260.43305,342.5165L259.95299,342.5165L259.95299,342.03645L259.2329,342.03645L259.2329,341.5564L258.75284,341.5564L258.75284,341.31637
				L258.51281,341.31637L258.51281,340.83632L258.03275,340.83632L258.03275,340.59629L257.31265,340.59629L257.31265,340.11624
				L256.83259,340.11624L256.83259,339.63619L256.59256,339.63619L256.59256,339.39617L256.1125,339.39617L256.1125,339.63619L253.95223,339.63619
				L253.95223,340.11624L252.03198,340.11624L252.03198,340.59629L249.63168,340.59629L249.63168,340.83632L247.71144,340.83632
				L247.71144,341.31637L245.0711,341.31637L245.0711,341.5564L241.23061,341.5564L241.23061,342.03645L239.79043,342.03645L239.79043,342.5165
				L239.07034,342.5165L239.07034,342.75652L238.11022,342.75652L238.11022,343.23658L237.39013,343.23658L237.39013,343.4766L236.67003,343.4766
				L236.67003,343.95665L235.46988,343.95665L235.46988,342.75652L235.22985,342.75652L235.22985,342.03645L234.74979,342.03645
				L234.74979,340.83632L234.26973,340.83632L234.26973,339.63619L234.0297,339.63619L234.0297,338.91612L233.54964,338.91612L233.54964,337.71599
				L233.30961,337.71599L233.30961,336.99591L232.82955,336.99591L232.82955,335.79578L232.34949,335.79578L232.34949,335.07571
				L232.10946,335.07571L232.10946,334.1156L231.62939,334.1156L231.62939,333.1555L231.38936,333.1555L231.38936,332.1954L230.9093,332.1954
				L230.9093,331.2353L230.42924,331.2353L230.42924,330.27519L230.18921,330.27519L230.18921,329.31509L229.70915,329.31509L229.70915,328.35499
				L229.46912,328.35499L229.46912,327.39489L228.98906,327.39489L228.98906,326.43479L228.509,326.43479L228.509,325.23466L228.26897,325.23466
				L228.26897,324.51458L227.78891,324.51458L227.78891,323.31445L227.54888,323.31445L227.54888,322.59438L227.06882,322.59438
				L227.06882,322.11433L226.82879,322.11433L226.82879,321.63427L225.86866,321.63427L225.86866,321.39425L225.62863,321.39425
				L225.62863,320.9142L224.90854,320.9142L224.90854,321.39425L224.42848,321.39425L224.42848,321.63427L223.94842,321.63427L223.94842,322.11433
				L223.70839,322.11433L223.70839,322.59438L223.22833,322.59438L223.22833,322.8344L222.9883,322.8344L222.9883,323.31445L222.50824,323.31445
				L222.50824,323.55448L222.02818,323.55448L222.02818,324.03453L221.78815,324.03453L221.78815,324.51458L221.30809,324.51458
				L221.30809,324.75461L221.06805,324.75461L221.06805,325.23466L220.58799,325.23466L220.58799,325.47468L220.10793,325.47468
				L220.10793,325.95473L219.8679,325.95473L219.8679,326.43479L219.14781,326.43479L219.14781,326.67481L218.66775,326.67481L218.66775,327.15486
				L218.18769,327.15486L218.18769,327.39489L217.94766,327.39489L217.94766,327.87494L217.4676,327.87494L217.4676,328.35499L217.22757,328.35499
				L217.22757,328.59502L216.74751,328.59502L216.74751,329.07507L216.26745,329.07507L216.26745,329.31509L216.02742,329.31509
				L216.02742,329.79514L215.54735,329.79514L215.54735,330.27519L215.30732,330.27519L215.30732,330.51522L214.82726,330.51522
				L214.82726,330.99527L214.58723,330.99527L214.58723,331.2353L214.10717,331.2353L214.10717,331.71535L213.62711,331.71535L213.62711,332.1954
				L212.90702,332.1954L212.90702,332.43543L212.66699,332.43543L212.66699,332.91548L212.18693,332.91548L212.18693,333.1555L211.70687,333.1555
				L211.70687,333.63555L211.46684,333.63555L211.46684,334.1156L210.98678,334.1156L210.98678,334.35563L210.74674,334.35563L210.74674,334.83568
				L210.26668,334.83568L210.26668,335.07571L209.78662,335.07571L209.78662,335.55576L209.54659,335.55576L209.54659,335.79578
				L209.06653,335.79578L209.06653,336.27583L208.8265,336.27583L208.8265,336.75589L208.34644,336.75589L208.34644,336.99591L207.86638,336.99591
				L207.86638,337.47596L207.62635,337.47596L207.62635,337.71599L206.90626,337.71599L206.90626,337.47596L205.94614,337.47596
				L205.94614,336.99591L205.22604,336.99591L205.22604,336.75589L204.50595,336.75589L204.50595,336.27583L204.02589,336.27583
				L204.02589,335.79578L203.78586,335.79578L203.78586,335.55576L203.3058,335.55576L203.3058,335.07571L203.06577,335.07571L203.06577,334.83568
				L202.58571,334.83568L202.58571,334.1156L202.34568,334.1156L202.34568,333.63555L201.86562,333.63555L201.86562,333.1555L201.38556,333.1555
				L201.38556,332.91548L201.14553,332.91548L201.14553,332.1954L200.66547,332.1954L200.66547,331.2353L200.42544,331.2353L200.42544,330.27519
				L199.94537,330.27519L199.94537,329.07507L199.46531,329.07507L199.46531,327.87494L199.22528,327.87494L199.22528,326.67481
				L198.74522,326.67481L198.74522,325.47468L198.50519,325.47468L198.50519,324.51458L198.02513,324.51458L198.02513,323.31445
				L197.54507,323.31445L197.54507,322.59438L198.02513,322.59438L198.02513,321.39425L198.50519,321.39425L198.50519,320.19412
				L198.74522,320.19412L198.74522,318.75397L199.22528,318.75397L199.22528,318.27392L199.94537,318.27392L199.94537,318.03389
				L200.42544,318.03389L200.42544,317.55384L200.66547,317.55384L200.66547,317.07379L201.14553,317.07379L201.14553,313.71343
				L200.42544,313.71343L200.42544,314.19348L199.46531,314.19348L199.46531,314.43351L198.50519,314.43351L198.50519,314.91356
				L197.30504,314.91356L197.30504,315.15358L196.58495,315.15358L196.58495,315.63363L195.3848,315.63363L195.3848,316.11369L194.18464,316.11369
				L194.18464,316.35371L193.46455,316.35371L193.46455,316.83376L192.2644,316.83376L192.2644,317.07379L191.06425,317.07379L191.06425,317.55384
				L190.34416,317.55384L190.34416,318.03389L189.144,318.03389L189.144,318.27392L188.18388,318.27392L188.18388,318.75397L187.22376,318.75397
				L187.22376,318.99399L186.26364,318.99399L186.26364,319.47404L185.06349,319.47404L185.06349,318.75397L185.30352,318.75397
				L185.30352,318.27392L185.78358,318.27392L185.78358,318.03389L186.26364,318.03389L186.26364,317.55384L186.50367,317.55384
				L186.50367,317.07379L186.98373,317.07379L186.98373,316.83376L187.22376,316.83376L187.22376,316.35371L187.70382,316.35371
				L187.70382,316.11369L188.18388,316.11369L188.18388,315.63363L188.42391,315.63363L188.42391,315.15358L189.144,315.15358L189.144,314.91356
				L189.62406,314.91356L189.62406,314.43351L189.86409,314.43351L189.86409,314.19348L190.34416,314.19348L190.34416,313.71343
				L191.06425,313.71343L191.06425,313.23338L191.54431,313.23338L191.54431,312.99335L191.78434,312.99335L191.78434,312.5133L
				192.74446,312.5133L192.74446,312.27328L192.98449,312.27328L192.98449,311.79323L193.70458,311.79323L193.70458,311.31317L194.18464,311.31317
				L194.18464,311.07315L194.90473,311.07315L194.90473,310.5931L195.3848,310.5931L195.3848,310.35307L196.10489,310.35307L196.10489,309.87302
				L196.82498,309.87302L196.82498,309.39297L197.30504,309.39297L197.30504,309.15294L197.54507,309.15294L197.54507,308.67289
				L198.02513,308.67289L198.02513,307.71279L198.50519,307.71279L198.50519,306.75269L198.74522,306.75269L198.74522,306.03261
				L199.46531,306.03261L199.46531,305.31253L199.94537,305.31253L199.94537,304.59246L200.42544,304.59246L200.42544,304.11241
				L200.66547,304.11241L200.66547,303.39233L201.14553,303.39233L201.14553,302.91228L201.86562,302.91228L201.86562,302.67225
				L202.34568,302.67225L202.34568,302.1922L202.58571,302.1922L202.58571,301.95218L203.3058,301.95218L203.3058,301.47213L204.50595,301.47213
				L204.50595,300.99207L205.22604,300.99207L205.22604,300.75205L205.94614,300.75205L205.94614,300.272L206.90626,300.272L206.90626,300.03197
				L207.62635,300.03197L207.62635,299.55192L208.8265,299.55192L208.8265,299.07187L209.54659,299.07187L209.54659,298.83184L210.26668,298.83184
				L210.26668,298.35179L212.18693,298.35179L212.18693,298.11177L212.66699,298.11177L212.66699,298.35179L216.26745,298.35179
				L216.26745,298.83184L219.14781,298.83184L219.14781,298.35179L219.8679,298.35179L219.8679,298.11177L220.10793,298.11177L220.10793,297.63172
				L220.58799,297.63172L220.58799,297.15167L221.30809,297.15167L221.30809,296.91164L221.78815,296.91164L221.78815,296.43159
				L222.02818,296.43159L222.02818,296.19156L222.50824,296.19156L222.50824,295.71151L222.9883,295.71151L222.9883,295.47149L223.70839,295.47149
				L223.70839,294.99144L223.94842,294.99144L223.94842,294.51138L224.42848,294.51138L224.42848,294.27136L225.14857,294.27136
				L225.14857,293.79131L225.86866,293.79131L225.86866,293.55128L226.82879,293.55128L226.82879,293.07123L227.54888,293.07123
				L227.54888,292.59118L228.509,292.59118L228.509,292.35115L229.70915,292.35115L229.70915,291.8711L230.9093,291.8711L230.9093,291.63108
				L231.62939,291.63108L231.62939,291.15103L232.82955,291.15103L232.82955,290.67097L234.0297,290.67097L234.0297,290.43095L235.22985,290.43095
				L235.22985,289.9509L235.94994,289.9509L235.94994,289.71087L237.1501,289.71087L237.1501,289.23082L238.11022,289.23082L238.11022,288.75077
				L239.07034,288.75077L239.07034,288.51074L239.31037,288.51074L239.31037,288.03069L240.03046,288.03069L240.03046,287.79067
				L240.99058,287.79067L240.99058,287.31062L241.23061,287.31062L241.23061,286.83057L241.9507,286.83057L241.9507,286.59054L242.6708,286.59054
				L242.6708,286.11049L243.63092,286.11049L243.63092,285.87046L244.35101,285.87046L244.35101,285.39041L245.0711,285.39041L245.0711,284.91036
				L245.79119,284.91036L245.79119,284.67034L246.51128,284.67034L246.51128,284.19028L247.47141,284.19028L247.47141,283.95026
				L249.39165,283.95026L249.39165,283.47021L252.27201,283.47021L252.27201,282.99016L253.47217,282.99016L253.47217,282.75013
				L253.95223,282.75013L253.95223,282.27008L254.19226,282.27008L254.19226,282.03005L254.67232,282.03005L254.67232,281.55L254.91235,281.55
				L254.91235,281.30998L255.87247,281.30998L255.87247,280.82993L256.1125,280.82993L256.1125,280.34987L256.83259,280.34987L256.83259,280.10985
				L257.79272,280.10985L257.79272,279.6298L258.51281,279.6298L258.51281,279.38977L258.75284,279.38977L258.75284,278.90972L259.71296,278.90972
				L259.71296,278.42967L260.43305,278.42967L260.43305,278.18964L260.67308,278.18964L260.67308,277.70959L261.6332,277.70959L
				261.6332,277.46957L262.35329,277.46957L262.35329,276.98952L262.59332,276.98952L262.59332,276.50947L263.55345,276.50947L263.55345,276.26944
				L263.79348,276.26944L263.79348,275.78939L264.51357,275.78939L264.51357,275.54936L265.47369,275.54936L265.47369,275.06931
				L265.71372,275.06931L265.71372,274.58926L266.43381,274.58926L266.43381,274.34924L266.91387,274.34924L266.91387,273.86918
				L267.63396,273.86918L267.63396,273.62916L268.35406,273.62916L268.35406,273.14911L268.83412,273.14911L268.83412,272.66906
				L269.55421,272.66906L269.55421,272.42903L270.03427,272.42903L270.03427,271.94898L270.75436,271.94898L270.75436,271.70895
				L271.47445,271.70895L271.47445,271.2289L272.19454,271.2289L272.19454,270.74885L272.91463,270.74885L272.91463,270.50883L273.87476,270.50883
				L273.87476,270.02877L274.83488,270.02877L274.83488,269.78875L275.795,269.78875L275.795,269.3087L276.75512,269.3087L276.75512,269.06867
				L277.71524,269.06867L277.71524,268.58862L278.67537,268.58862L278.67537,268.10857L279.63549,268.10857L279.63549,267.86854
				L280.59561,267.86854L280.59561,267.38849L282.51585,267.38849L282.51585,267.14847L283.716,267.14847L283.716,266.66842L285.63625,266.66842
				L285.63625,266.18837L286.8364,266.18837L286.8364,265.94834L290.19683,265.94834L290.19683,265.46829L290.91692,265.46829L290.91692,265.22826
				L292.11707,265.22826L292.11707,264.74821L292.83716,264.74821L292.83716,264.26816L294.03731,264.26816L294.03731,264.02814
				L294.75741,264.02814L294.75741,263.54808L295.95756,263.54808L295.95756,263.30806L296.67765,263.30806L296.67765,262.82801
				L297.8778,262.82801L297.8778,262.34796L298.59789,262.34796L298.59789,262.10793L299.31798,262.10793L299.31798,261.62788L300.51814,261.62788
				L300.51814,261.38785L301.23823,261.38785L301.23823,260.9078L302.43838,260.9078L302.43838,260.42775L303.15847,260.42775L303.15847,260.18773
				L304.35862,260.18773L304.35862,259.70768L305.07872,259.70768L305.07872,259.46765L306.27887,259.46765L306.27887,258.9876L
				306.99896,258.9876L306.99896,258.50755L308.19911,258.50755L308.19911,258.26752L308.9192,258.26752L308.9192,257.78747L310.11936,257.78747
				L310.11936,257.54744L310.83945,257.54744L310.83945,257.06739L311.55954,257.06739L311.55954,256.82737L312.75969,256.82737
				L312.75969,256.34732L313.47978,256.34732L313.47978,255.86727L314.67993,255.86727L314.67993,255.62724L315.40003,255.62724
				L315.40003,255.14719L316.60018,255.14719L316.60018,254.90716L317.32027,254.90716L317.32027,254.42711L318.52042,254.42711
				L318.52042,253.94706L319.24051,253.94706L319.24051,253.70704L320.44067,253.70704L320.44067,253.22698L321.16076,253.22698
				L321.16076,252.98696L322.36091,252.98696L322.36091,252.50691L323.081,252.50691L323.081,252.02686L324.28115,252.02686L324.28115,251.78683
				L325.00124,251.78683L325.00124,251.30678L326.2014,251.30678L326.2014,251.06675L327.40155,251.06675L327.40155,250.5867L328.12164,250.5867
				L328.12164,250.10665L329.32179,250.10665L329.32179,249.86663L330.04188,249.86663L330.04188,250.10665L331.24204,250.10665
				L331.24204,250.5867L332.20216,250.5867L332.20216,251.06675L333.16228,251.06675L333.16228,251.30678L341.56335,251.30678L341.56335,251.78683
				L344.44371,251.78683L344.44371,252.02686L346.36396,252.02686L346.36396,252.50691L349.24432,252.50691L349.24432,252.98696
				L350.6845,252.98696L350.6845,253.22698L351.40459,253.22698L351.40459,253.70704L352.12469,253.70704L352.12469,253.94706L353.32484,253.94706
				L353.32484,254.42711L354.04493,254.42711L354.04493,254.90716L357.64539,254.90716L357.64539,255.14719L358.60551,255.14719
				L358.60551,255.62724L359.56563,255.62724L359.56563,255.14719L360.52575,255.14719L360.52575,254.90716L361.7259,254.90716L
				361.7259,254.42711L363.40612,254.42711L363.40612,253.94706L364.12621,253.94706L364.12621,253.70704L365.56639,253.70704L365.56639,253.22698
				L366.76654,253.22698L366.76654,252.98696L368.68679,252.98696L368.68679,252.50691L371.80718,252.50691L371.80718,252.02686
				L373.72743,252.02686L373.72743,251.78683L374.44752,251.78683L374.44752,251.30678L374.68755,251.30678L374.68755,251.06675
				L375.64767,251.06675L375.64767,250.5867L376.36776,250.5867L376.36776,250.10665L377.56791,250.10665L377.56791,249.86663L378.52804,249.86663
				L378.52804,249.38658L379.72819,249.38658L379.72819,249.14655L380.92834,249.14655L380.92834,248.6665L381.64843,248.6665L381.64843,248.18645
				L382.84859,248.18645L382.84859,247.94642L384.76883,247.94642L384.76883,247.46637L386.20901,247.46637L386.20901,247.94642
				L388.60932,247.94642L388.60932,248.18645L389.32941,248.18645L389.32941,248.6665L389.80947,248.6665L389.80947,249.14655L390.52956,249.14655
				L390.52956,249.38658L391.24965,249.38658L391.24965,249.86663L391.72971,249.86663L391.72971,250.10665L392.4498,250.10665L
				392.4498,250.5867L393.16989,250.5867L393.16989,251.06675L393.64996,251.06675L393.64996,251.30678L395.33017,251.30678L395.33017,251.06675
				L396.29029,251.06675L396.29029,250.5867L397.01038,250.5867L397.01038,250.10665L397.73047,250.10665L397.73047,249.86663L398.45057,249.86663
				L398.45057,249.38658L398.93063,249.38658L398.93063,249.14655L399.65072,249.14655L399.65072,249.38658L399.17066,249.38658
				L399.17066,250.10665L398.93063,250.10665L398.93063,251.30678L398.45057,251.30678L398.45057,252.50691L398.21053,252.50691
				L398.21053,252.98696L397.73047,252.98696L397.73047,253.70704L397.25041,253.70704L397.25041,253.94706L397.01038,253.94706
				L397.01038,254.90716L396.53032,254.90716L396.53032,255.14719L396.29029,255.14719L396.29029,255.86727L395.81023,255.86727
				L395.81023,256.34732L395.33017,256.34732L395.33017,256.82737L394.61008,256.82737L394.61008,256.34732L393.88999,256.34732
				L393.88999,255.86727L393.64996,255.86727L393.64996,255.62724L393.16989,255.62724L393.16989,255.14719L392.68983,255.14719
				L392.68983,254.90716L391.96974,254.90716L391.96974,254.42711L391.72971,254.42711L391.72971,253.94706L391.24965,253.94706
				L391.24965,253.70704L390.76959,253.70704L390.76959,253.22698L390.0495,253.22698L390.0495,252.98696L389.80947,252.98696L389.80947,252.50691
				L389.32941,252.50691L389.32941,252.02686L388.84935,252.02686L388.84935,251.78683L388.12926,251.78683L388.12926,251.30678
				L387.88922,251.30678L387.88922,251.06675L387.40916,251.06675L387.40916,250.5867L386.9291,250.5867L386.9291,250.10665L386.20901,250.10665
				L386.20901,249.86663L385.96898,249.86663L385.96898,249.38658L385.48892,249.38658L385.48892,249.86663L384.76883,249.86663
				L384.76883,250.10665L384.28877,250.10665L384.28877,250.5867L384.04874,250.5867L384.04874,251.06675L383.56868,251.06675L383.56868,251.30678
				L382.84859,251.30678L382.84859,251.78683L382.36852,251.78683L382.36852,252.02686L382.12849,252.02686L382.12849,252.50691
				L381.64843,252.50691L381.64843,252.98696L380.92834,252.98696L380.92834,253.22698L380.44828,253.22698L380.44828,253.70704
				L380.20825,253.70704L380.20825,253.94706L379.72819,253.94706L379.72819,254.42711L379.48816,254.42711L379.48816,254.90716
				L380.20825,254.90716L380.20825,255.14719L380.44828,255.14719L380.44828,255.62724L380.92834,255.62724L380.92834,255.86727
				L381.4084,255.86727L381.4084,256.34732L382.12849,256.34732L382.12849,256.82737L382.36852,256.82737L382.36852,257.06739L382.84859,257.06739
				L382.84859,257.54744L382.36852,257.54744L382.36852,257.78747L381.64843,257.78747L381.64843,258.26752L381.4084,258.26752L
				381.4084,258.50755L380.44828,258.50755L380.44828,258.9876L380.20825,258.9876L380.20825,259.46765L379.72819,259.46765L379.72819,259.70768
				L379.0081,259.70768L379.0081,260.18773L378.52804,260.18773L378.52804,260.42775L378.28801,260.42775L378.28801,260.9078L377.56791,260.9078
				L377.56791,261.38785L377.08785,261.38785L377.08785,261.62788L376.36776,261.62788L376.36776,262.10793L375.8877,262.10793L
				375.8877,262.34796L375.64767,262.34796L375.64767,262.10793L375.16761,262.10793L375.16761,261.62788L374.68755,261.62788L374.68755,261.38785
				L374.44752,261.38785L374.44752,260.9078L373.96746,260.9078L373.96746,260.42775L373.72743,260.42775L373.72743,260.18773L373.24737,260.18773
				L373.24737,259.70768L372.76731,259.70768L372.76731,259.46765L372.04721,259.46765L372.04721,259.70768L371.32712,259.70768
				L371.32712,260.18773L370.84706,260.18773L370.84706,260.42775L370.60703,260.42775L370.60703,260.9078L370.12697,260.9078L370.12697,261.38785
				L369.40688,261.38785L369.40688,261.62788L369.16685,261.62788L369.16685,262.10793L368.68679,262.10793L368.68679,262.34796
				L367.9667,262.34796L367.9667,262.82801L367.48664,262.82801L367.48664,263.30806L367.24661,263.30806L367.24661,263.54808L366.76654,263.54808
				L366.76654,264.02814L366.28648,264.02814L366.28648,265.22826L366.04645,265.22826L366.04645,266.18837L365.56639,266.18837
				L365.56639,267.38849L365.32636,267.38849L365.32636,267.14847L364.36624,267.14847L364.36624,266.66842L363.64615,266.66842
				L363.64615,266.18837L362.92606,266.18837L362.92606,266.66842L362.446,266.66842L362.446,267.14847L362.20597,267.14847L362.20597,267.86854
				L361.7259,267.86854L361.7259,268.10857L361.48587,268.10857L361.48587,268.58862L361.00581,268.58862L361.00581,269.3087L360.52575,269.3087
				L360.52575,269.78875L360.28572,269.78875L360.28572,270.02877L359.80566,270.02877L359.80566,270.74885L359.56563,270.74885
				L359.56563,271.2289L359.08557,271.2289L359.08557,271.70895L358.60551,271.70895L358.60551,271.94898L358.36548,271.94898L358.36548,272.66906
				L357.16533,272.66906L357.16533,272.42903L355.72514,272.42903L355.72514,271.94898L354.04493,271.94898L354.04493,271.70895
				L352.60475,271.70895L352.60475,271.2289L351.16456,271.2289L351.16456,270.74885L350.6845,270.74885L350.6845,289.71087L351.16456,289.71087
				L351.16456,307.95282L350.6845,307.95282L350.6845,308.43287L350.20444,308.43287L350.20444,308.67289L349.96441,308.67289L349.96441,309.15294
				L349.48435,309.15294L349.48435,309.39297L349.24432,309.39297L349.24432,309.87302L348.76426,309.87302L348.76426,310.35307
				L348.2842,310.35307L348.2842,310.5931L348.04417,310.5931L348.04417,311.07315L347.56411,311.07315L347.56411,311.31317L347.32408,311.31317
				L347.32408,311.79323L346.84402,311.79323L346.84402,312.27328L346.36396,312.27328L346.36396,312.5133L346.12392,312.5133L346.12392,312.99335
				L345.64386,312.99335L345.64386,313.23338L345.40383,313.23338L345.40383,313.71343L344.92377,313.71343"/>
			<path clip-path="url(#SVG_CP_2)" fill="none" stroke="#999999" stroke-width="0.96012" stroke-miterlimit="10" stroke-linecap="round" stroke-linejoin="round" d="
				M344.92377,313.71343L344.92377,314.19348L344.44371,314.19348L344.44371,314.43351L344.20368,314.43351L344.20368,314.91356
				L343.72362,314.91356L343.72362,315.15358L341.56335,315.15358L341.56335,315.63363L340.36319,315.63363L340.36319,316.11369
				L339.88313,316.11369L339.88313,316.35371L339.6431,316.35371L339.6431,316.83376L339.16304,316.83376L339.16304,317.07379L338.92301,317.07379
				L338.92301,317.55384L338.44295,317.55384L338.44295,318.03389L337.96289,318.03389L337.96289,318.27392L337.72286,318.27392
				L337.72286,318.75397L337.2428,318.75397L337.2428,318.99399L337.00277,318.99399L337.00277,319.47404L336.52271,319.47404L336.52271,319.9541
				L336.04265,319.9541L336.04265,320.19412L335.80261,320.19412L335.80261,320.67417L335.32255,320.67417L335.32255,320.9142L335.08252,320.9142
				L335.08252,321.39425L334.60246,321.39425L334.60246,321.63427L334.1224,321.63427L334.1224,322.11433L333.88237,322.11433L333.88237,322.59438
				L333.40231,322.59438L333.40231,322.8344L333.16228,322.8344L333.16228,323.31445L332.68222,323.31445L332.68222,323.55448L332.20216,323.55448
				L332.20216,324.03453L331.24204,324.03453L331.24204,324.51458L330.76198,324.51458L330.76198,324.75461L330.52194,324.75461
				L330.52194,325.23466L330.04188,325.23466L330.04188,325.47468L329.56182,325.47468L329.56182,325.95473L329.32179,325.95473
				L329.32179,326.43479L328.84173,326.43479L328.84173,326.67481L328.6017,326.67481L328.6017,327.15486L327.40155,327.15486L327.40155,327.39489
				L326.92149,327.39489L326.92149,327.87494L326.68146,327.87494L326.68146,328.35499L326.2014,328.35499L326.2014,328.59502L325.72134,328.59502
				L325.72134,329.07507L325.48131,329.07507L325.48131,329.31509L325.00124,329.31509L325.00124,329.79514L324.76121,329.79514
				L324.76121,330.27519L324.28115,330.27519L324.28115,330.51522L323.80109,330.51522L323.80109,330.99527L323.56106,330.99527
				L323.56106,331.2353L323.081,331.2353L323.081,331.71535L322.84097,331.71535L322.84097,332.1954L322.36091,332.1954L322.36091,332.43543
				L321.88085,332.43543L321.88085,332.91548L321.64082,332.91548L321.64082,333.1555L321.16076,333.1555L321.16076,333.63555L320.92073,333.63555
				L320.92073,334.1156L320.44067,334.1156L320.44067,334.35563L319.9606,334.35563L319.9606,334.83568L319.72057,334.83568L319.72057,335.07571
				L319.24051,335.07571L319.24051,335.55576L319.00048,335.55576L319.00048,335.79578L318.52042,335.79578L318.52042,336.27583
				L318.28039,336.27583L318.28039,336.75589L317.80033,336.75589L317.80033,336.99591L317.32027,336.99591L317.32027,337.47596
				L317.08024,337.47596L317.08024,337.71599L316.60018,337.71599L316.60018,338.19604L316.36015,338.19604L316.36015,338.67609
				L315.88009,338.67609L315.88009,338.91612L315.40003,338.91612L315.40003,339.39617L315.16,339.39617L315.16,339.63619L314.67993,339.63619
				L314.67993,340.11624L314.4399,340.11624L314.4399,340.59629L313.95984,340.59629L313.95984,340.83632L313.47978,340.83632L313.47978,341.31637
				L313.23975,341.31637L313.23975,341.5564L312.75969,341.5564L312.75969,342.03645L306.27887,342.03645L306.27887,342.5165L305.79881,342.5165
				L305.79881,342.75652L303.63853,342.75652L303.63853,343.23658L299.31798,343.23658L299.31798,343.4766L299.07795,343.4766L299.07795,343.95665
				L298.59789,343.95665L298.59789,344.4367L298.35786,344.4367L298.35786,344.67673L297.8778,344.67673L297.8778,345.15678L297.39774,345.15678
				L297.39774,345.39681L297.15771,345.39681L297.15771,345.87686L296.67765,345.87686L296.67765,346.35691L296.43762,346.35691
				L296.43762,346.59693L295.95756,346.59693L295.95756,347.07699L295.4775,347.07699L295.4775,347.31701L295.23747,347.31701L295.23747,347.79706
				L294.75741,347.79706L294.75741,348.03709L294.51738,348.03709L294.51738,348.51714L294.03731,348.51714L294.03731,348.99719
				L293.55725,348.99719L293.55725,349.23722L293.31722,349.23722L293.31722,349.71727L292.83716,349.71727L292.83716,349.95729
				L292.59713,349.95729L292.59713,350.43734L292.11707,350.43734L292.11707,350.91739L291.87704,350.91739L291.87704,351.15742
				L291.39698,351.15742L291.39698,351.63747L290.91692,351.63747L290.91692,351.8775L290.67689,351.8775L290.67689,352.35755L290.19683,352.35755
				L290.19683,352.8376L289.9568,352.8376L289.9568,353.07762L289.47674,353.07762L289.47674,353.55768L288.99668,353.55768L288.99668,353.7977
				L288.75664,353.7977L288.75664,354.27775L288.27658,354.27775L288.27658,354.7578L288.03655,354.7578L288.03655,354.99783L287.55649,354.99783
				L287.55649,355.47788L287.07643,355.47788L287.07643,355.71791L286.8364,355.71791L286.8364,356.19796L286.35634,356.19796L286.35634,356.67801
				L285.63625,356.67801L285.63625,356.91803L285.15619,356.91803L285.15619,357.39809L284.91616,357.39809L284.91616,357.63811
				L284.4361,357.63811L284.4361,358.11816L284.19607,358.11816L284.19607,358.59821L283.716,358.59821L283.716,358.83824L283.23594,358.83824
				L283.23594,359.31829L282.99591,359.31829L282.99591,359.55832L282.51585,359.55832L282.51585,360.03837L282.27582,360.03837
				L282.27582,360.27839L281.79576,360.27839L281.79576,360.75844L281.3157,360.75844L281.3157,361.23849L281.07567,361.23849L281.07567,361.47852
				L280.59561,361.47852L280.59561,361.95857L280.35558,361.95857L280.35558,362.1986L279.87552,362.1986L279.87552,362.67865L279.63549,362.67865
				L279.63549,363.1587L279.15543,363.1587L279.15543,363.39872"/>
			<path clip-path="url(#SVG_CP_2)" fill="none" stroke="#999999" stroke-width="0.96012" stroke-miterlimit="10" stroke-linecap="round" stroke-linejoin="round" d="
				M256.1125,459.88901L255.87247,459.88901L255.87247,457.48875L256.1125,457.48875L256.1125,457.24873L256.59256,457.24873L256.59256,456.76867
				L256.83259,456.76867L256.83259,456.52865L256.59256,456.52865L256.59256,455.56855L256.83259,455.56855L256.83259,454.60844
				L257.31265,454.60844L257.31265,452.20819L257.79272,452.20819L257.79272,450.76803L258.03275,450.76803L258.03275,448.84783
				L258.51281,448.84783L258.51281,446.92763L258.75284,446.92763L258.75284,445.24745L259.2329,445.24745L259.2329,443.80729L259.71296,443.80729
				L259.71296,442.60717L259.95299,442.60717L259.95299,440.68696L260.43305,440.68696L260.43305,438.76676L260.67308,438.76676
				L260.67308,437.56663L261.15314,437.56663L261.15314,434.92635L261.6332,434.92635L261.6332,433.48619L261.87323,433.48619L261.87323,431.56599
				L262.35329,431.56599L262.35329,429.16573L262.59332,429.16573L262.59332,428.20563L263.07339,428.20563L263.07339,427.0055L
				263.55345,427.0055L263.55345,425.80537L263.79348,425.80537L263.79348,425.0853L264.27354,425.0853L264.27354,423.88517L264.51357,423.88517
				L264.51357,423.16509L264.99363,423.16509L264.99363,422.44502L265.47369,422.44502L265.47369,421.96497L265.71372,421.96497
				L265.71372,421.72494L266.19378,421.72494L266.19378,421.24489L266.43381,421.24489L266.43381,419.80474L266.19378,419.80474
				L266.19378,419.32468L265.71372,419.32468L265.71372,418.60461L265.47369,418.60461L265.47369,418.12456L264.99363,418.12456
				L264.99363,417.40448L264.51357,417.40448L264.51357,416.6844L264.27354,416.6844L264.27354,415.96433L263.79348,415.96433L263.79348,415.48427
				L263.55345,415.48427L263.55345,414.7642L263.07339,414.7642L263.07339,414.04412L262.59332,414.04412L262.59332,413.08402L262.35329,413.08402
				L262.35329,412.36394L261.87323,412.36394L261.87323,412.12392L261.6332,412.12392L261.6332,411.64387L260.67308,411.64387L260.67308,411.40384
				L259.71296,411.40384L259.71296,410.92379L258.75284,410.92379L258.75284,410.44374L258.03275,410.44374L258.03275,410.20371
				L256.83259,410.20371L256.83259,409.72366L256.1125,409.72366L256.1125,409.48364L255.39241,409.48364L255.39241,409.00358L254.91235,409.00358
				L254.91235,408.52353L254.67232,408.52353L254.67232,408.28351L254.19226,408.28351L254.19226,407.80346L253.95223,407.80346
				L253.95223,407.56343L253.47217,407.56343L253.47217,407.08338L253.23214,407.08338L253.23214,406.60333L252.27201,406.60333
				L252.27201,405.88325L251.55192,405.88325L251.55192,405.64323L251.31189,405.64323L251.31189,405.16318L250.83183,405.16318
				L250.83183,404.68312L250.35177,404.68312L250.35177,404.4431L250.11174,404.4431L250.11174,403.96305L249.63168,403.96305L249.63168,403.72302
				L249.39165,403.72302L249.39165,403.24297L248.91159,403.24297L248.91159,402.76292L248.43153,402.76292L248.43153,402.52289
				L248.1915,402.52289L248.1915,402.04284L247.47141,402.04284L247.47141,401.32277L246.99134,401.32277L246.99134,400.84271L246.51128,400.84271
				L246.51128,400.60269L245.79119,400.60269L245.79119,399.88261L245.0711,399.88261L245.0711,398.92251L244.35101,398.92251L244.35101,398.20243
				L243.87095,398.20243L243.87095,397.96241L243.63092,397.96241L243.63092,397.48236L242.6708,397.48236L242.6708,397.24233L241.71067,397.24233
				L241.71067,396.76228L241.23061,396.76228L241.23061,396.28223L240.99058,396.28223L240.99058,395.32213L240.51052,395.32213
				L240.51052,394.36202L240.03046,394.36202L240.03046,394.122L239.79043,394.122L239.79043,393.40192L239.31037,393.40192L239.31037,392.44182
				L239.07034,392.44182L239.07034,392.20179L238.59028,392.20179L238.59028,391.00167L238.11022,391.00167L238.11022,390.52161
				L237.87019,390.52161L237.87019,389.80154L237.39013,389.80154L237.39013,389.08146L237.1501,389.08146L237.1501,388.60141L236.67003,388.60141
				L236.67003,387.64131L236.18997,387.64131L236.18997,387.16126L235.94994,387.16126L235.94994,386.68121L235.46988,386.68121
				L235.46988,385.7211L235.22985,385.7211L235.22985,385.24105L234.74979,385.24105L234.74979,384.52098L234.26973,384.52098L234.26973,383.8009
				L234.0297,383.8009L234.0297,383.32085L233.54964,383.32085L233.54964,382.60077L233.30961,382.60077L233.30961,381.88069L232.82955,381.88069
				L232.82955,381.40064L232.34949,381.40064L232.34949,380.68057L232.10946,380.68057L232.10946,379.96049L231.62939,379.96049
				L231.62939,379.48044L231.38936,379.48044L231.38936,378.76036L230.9093,378.76036L230.9093,378.28031L230.42924,378.28031L230.42924,377.56023
				L230.18921,377.56023L230.18921,376.84016L229.70915,376.84016L229.70915,376.36011L229.46912,376.36011L229.46912,376.12008
				L228.98906,376.12008L228.98906,375.4L228.509,375.4L228.509,374.91995L228.26897,374.91995L228.26897,374.4399L227.78891,374.4399
				L227.78891,374.19988L227.54888,374.19988L227.54888,373.71982L227.06882,373.71982L227.06882,373.4798L226.82879,373.4798L226.82879,372.99975
				L226.34872,372.99975L226.34872,372.75972L225.86866,372.75972L225.86866,372.27967L225.62863,372.27967L225.62863,371.79962
				L224.90854,371.79962L224.90854,371.55959L224.42848,371.55959L224.42848,371.07954L223.94842,371.07954L223.94842,370.83952
				L223.70839,370.83952L223.70839,370.35947L223.22833,370.35947L223.22833,369.87942L222.9883,369.87942L222.9883,369.15934L222.50824,369.15934
				L222.50824,368.91931L222.02818,368.91931L222.02818,368.43926L221.06805,368.43926L221.06805,367.95921L220.10793,367.95921
				L220.10793,367.71918L219.8679,367.71918L219.8679,367.23913L218.66775,367.23913L218.66775,366.99911L217.94766,366.99911L217.94766,366.51906
				L217.4676,366.51906L217.4676,366.03901L211.70687,366.03901L211.70687,365.79898L210.26668,365.79898L210.26668,365.31893L208.34644,365.31893
				L208.34644,365.0789L207.62635,365.0789L207.62635,364.59885L206.90626,364.59885L206.90626,364.1188L205.94614,364.1188L205.94614,363.87878
				L204.02589,363.87878L204.02589,363.39872L200.42544,363.39872L200.42544,363.1587L199.94537,363.1587L199.94537,363.39872L199.22528,363.39872
				L199.22528,363.1587L198.74522,363.1587L198.74522,362.67865L200.42544,362.67865L200.42544,362.1986L202.34568,362.1986L202.34568,361.95857
				L212.66699,361.95857L212.66699,360.27839L212.90702,360.27839L212.90702,359.55832L217.94766,359.55832L217.94766,359.31829
				L220.10793,359.31829L220.10793,358.83824L222.9883,358.83824L222.9883,358.59821L225.14857,358.59821L225.14857,358.11816L225.86866,358.11816
				L225.86866,358.59821L226.34872,358.59821L226.34872,358.83824L226.82879,358.83824L226.82879,359.31829L227.06882,359.31829
				L227.06882,359.55832L227.54888,359.55832L227.54888,360.03837L227.78891,360.03837L227.78891,360.27839L228.26897,360.27839
				L228.26897,360.75844L228.509,360.75844L228.509,361.23849L228.98906,361.23849L228.98906,361.47852L229.46912,361.47852L229.46912,361.95857
				L229.70915,361.95857L229.70915,362.1986L230.18921,362.1986L230.18921,362.67865L230.42924,362.67865L230.42924,363.39872L230.9093,363.39872
				L230.9093,363.87878L231.38936,363.87878L231.38936,364.1188L231.62939,364.1188L231.62939,364.59885L232.10946,364.59885L232.10946,365.0789
				L232.34949,365.0789L232.34949,365.31893L232.82955,365.31893L232.82955,365.79898L233.30961,365.79898L233.30961,366.03901L
				233.54964,366.03901L233.54964,366.51906L234.0297,366.51906L234.0297,366.99911L234.26973,366.99911L234.26973,367.23913L234.74979,367.23913
				L234.74979,367.71918L235.22985,367.71918L235.22985,367.95921L235.46988,367.95921L235.46988,368.43926L235.94994,368.43926
				L235.94994,368.91931L236.18997,368.91931L236.18997,369.15934L236.67003,369.15934L236.67003,369.63939L237.1501,369.63939L
				237.1501,369.87942L237.39013,369.87942L237.39013,370.35947L237.87019,370.35947L237.87019,370.83952L238.11022,370.83952L238.11022,371.07954
				L238.59028,371.07954L238.59028,371.79962L239.07034,371.79962L239.07034,372.27967L239.31037,372.27967L239.31037,372.75972
				L239.79043,372.75972L239.79043,373.4798L240.03046,373.4798L240.03046,373.71982L240.51052,373.71982L240.51052,374.19988L240.99058,374.19988
				L240.99058,374.91995L241.23061,374.91995L241.23061,375.4L241.71067,375.4L241.71067,375.64003L241.9507,375.64003L241.9507,376.12008
				L242.43077,376.12008L242.43077,376.84016L242.6708,376.84016L242.6708,377.32021L243.15086,377.32021L243.15086,377.56023L243.63092,377.56023
				L243.63092,378.28031L243.87095,378.28031L243.87095,378.76036L244.35101,378.76036L244.35101,379.24041L244.59104,379.24041
				L244.59104,379.96049L245.0711,379.96049L245.0711,380.20051L245.55116,380.20051L245.55116,380.68057L245.79119,380.68057L245.79119,381.16062
				L246.27125,381.16062L246.27125,381.88069L246.51128,381.88069L246.51128,382.12072L246.99134,382.12072L246.99134,382.60077
				L247.47141,382.60077L247.47141,383.32085L247.71144,383.32085L247.71144,383.8009L248.1915,383.8009L248.1915,384.04092L248.43153,384.04092
				L248.43153,385.00103L248.91159,385.00103L248.91159,385.24105L249.39165,385.24105L249.39165,385.96113L249.63168,385.96113
				L249.63168,386.68121L250.11174,386.68121L250.11174,387.64131L250.35177,387.64131L250.35177,388.36138L250.83183,388.36138
				L250.83183,389.08146L251.31189,389.08146L251.31189,389.80154L251.55192,389.80154L251.55192,390.52161L252.03198,390.52161
				L252.03198,391.48172L252.27201,391.48172L252.27201,392.20179L252.75208,392.20179L252.75208,392.92187L253.23214,392.92187
				L253.23214,393.40192L253.47217,393.40192L253.47217,393.64195L253.95223,393.64195L253.95223,394.36202L254.19226,394.36202
				L254.19226,394.84208L254.67232,394.84208L254.67232,395.32213L254.91235,395.32213L254.91235,396.0422L255.39241,396.0422L255.39241,396.28223
				L255.87247,396.28223L255.87247,396.76228L256.1125,396.76228L256.1125,397.48236L256.59256,397.48236L256.59256,397.96241L256.83259,397.96241
				L256.83259,398.20243L257.31265,398.20243L257.31265,398.92251L257.79272,398.92251L257.79272,399.40256L258.03275,399.40256
				L258.03275,399.88261L258.51281,399.88261L258.51281,400.60269L258.75284,400.60269L258.75284,400.84271L259.2329,400.84271L
				259.2329,401.32277L259.71296,401.32277L259.71296,402.04284L259.95299,402.04284L259.95299,402.52289L260.43305,402.52289L260.43305,403.24297
				L260.67308,403.24297L260.67308,403.72302L261.15314,403.72302L261.15314,403.96305L261.6332,403.96305L261.6332,403.72302L261.87323,403.72302
				L261.87323,403.24297L262.59332,403.24297L262.59332,402.76292L263.55345,402.76292L263.55345,402.52289L263.79348,402.52289
				L263.79348,402.04284L264.51357,402.04284L264.51357,401.80282L264.99363,401.80282L264.99363,402.76292L265.47369,402.76292
				L265.47369,403.96305L265.71372,403.96305L265.71372,404.68312L266.19378,404.68312L266.19378,405.64323L266.43381,405.64323
				L266.43381,406.3633L266.91387,406.3633L266.91387,406.60333L267.1539,406.60333L267.1539,407.56343L267.63396,407.56343L267.63396,408.28351
				L268.11402,408.28351L268.11402,409.00358L268.35406,409.00358L268.35406,409.72366L268.83412,409.72366L268.83412,410.44374
				L269.07415,410.44374L269.07415,410.92379L269.55421,410.92379L269.55421,411.64387L270.03427,411.64387L270.03427,412.36394
				L270.2743,412.36394L270.2743,413.08402L270.75436,413.08402L270.75436,414.04412L270.99439,414.04412L270.99439,414.28415L271.47445,414.28415
				L271.47445,415.00422L271.95451,415.00422L271.95451,415.96433L275.795,415.96433L275.795,415.48427L279.87552,415.48427L279.87552,415.00422
				L282.27582,415.00422L282.27582,415.48427L281.79576,415.48427L281.79576,415.96433L281.3157,415.96433L281.3157,416.6844L281.07567,416.6844
				L281.07567,417.40448L280.59561,417.40448L280.59561,417.88453L280.35558,417.88453L280.35558,418.60461L279.87552,418.60461
				L279.87552,419.80474L279.63549,419.80474L279.63549,420.52481L279.15543,420.52481L279.15543,421.72494L278.67537,421.72494
				L278.67537,422.68504L278.43533,422.68504L278.43533,423.64514L277.95527,423.64514L277.95527,424.60525L277.71524,424.60525
				L277.71524,425.32532L277.23518,425.32532L277.23518,426.52545L276.75512,426.52545L276.75512,427.24553L275.795,427.24553L275.795,427.0055
				L274.59485,427.0055L274.59485,426.52545L273.3947,426.52545L273.3947,426.28543L272.19454,426.28543L272.19454,425.80537L270.99439,425.80537
				L270.99439,425.32532L270.03427,425.32532L270.03427,425.80537L269.55421,425.80537L269.55421,427.0055L269.07415,427.0055L269.07415,427.72558
				L268.83412,427.72558L268.83412,428.92571L268.35406,428.92571L268.35406,430.12584L268.11402,430.12584L268.11402,431.08594
				L267.63396,431.08594L267.63396,432.04604L267.1539,432.04604L267.1539,433.00614L266.91387,433.00614L266.91387,434.20627L266.43381,434.20627
				L266.43381,435.4064L266.19378,435.4064L266.19378,436.60653L265.71372,436.60653L265.71372,437.3266L265.47369,437.3266L265.47369,438.52673
				L264.99363,438.52673L264.99363,439.24681L264.51357,439.24681L264.51357,439.96688L264.27354,439.96688L264.27354,441.16701
				L263.79348,441.16701L263.79348,441.88709L263.55345,441.88709L263.55345,442.60717L263.07339,442.60717L263.07339,443.80729
				L262.59332,443.80729L262.59332,444.52737L262.35329,444.52737L262.35329,445.24745L261.87323,445.24745L261.87323,446.44757
				L261.6332,446.44757L261.6332,447.16765L261.15314,447.16765L261.15314,448.36778L260.67308,448.36778L260.67308,449.08786L260.43305,449.08786
				L260.43305,450.04796L259.95299,450.04796L259.95299,451.00806L259.71296,451.00806L259.71296,451.72814L259.2329,451.72814L
				259.2329,452.68824L258.75284,452.68824L258.75284,453.64834L258.51281,453.64834L258.51281,454.60844L258.03275,454.60844L258.03275,455.32852
				L257.79272,455.32852L257.79272,456.52865L257.31265,456.52865L257.31265,457.24873L256.83259,457.24873L256.83259,457.9688L
				256.59256,457.9688L256.59256,459.16893L256.1125,459.16893L256.1125,459.88901"/>
			<path clip-path="url(#SVG_CP_2)" fill="none" stroke="#999999" stroke-width="0.96012" stroke-miterlimit="10" stroke-linecap="round" stroke-linejoin="round" d="
				M279.15543,363.39872L279.87552,363.39872L279.87552,363.1587L280.35558,363.1587L280.35558,362.67865L280.59561,362.67865L280.59561,362.1986
				L281.07567,362.1986L281.07567,361.95857L281.3157,361.95857L281.3157,361.47852L281.79576,361.47852L281.79576,361.23849L282.27582,361.23849
				L282.27582,360.75844L282.51585,360.75844L282.51585,360.27839L282.99591,360.27839L282.99591,360.03837L283.23594,360.03837
				L283.23594,359.55832L283.716,359.55832L283.716,359.31829L284.19607,359.31829L284.19607,358.83824L284.4361,358.83824L284.4361,358.59821
				L284.91616,358.59821L284.91616,358.11816L285.15619,358.11816L285.15619,357.63811L285.63625,357.63811L285.63625,357.39809
				L286.11631,357.39809L286.11631,356.91803L286.35634,356.91803L286.35634,356.67801L286.8364,356.67801L286.8364,356.19796L287.07643,356.19796
				L287.07643,355.71791L287.55649,355.71791L287.55649,355.47788L288.03655,355.47788L288.03655,354.99783L288.27658,354.99783
				L288.27658,354.7578L288.75664,354.7578L288.75664,354.27775L288.99668,354.27775L288.99668,353.7977L289.47674,353.7977L289.47674,353.55768
				L289.9568,353.55768L289.9568,353.07762L290.19683,353.07762L290.19683,352.8376L290.67689,352.8376L290.67689,352.35755L290.91692,352.35755
				L290.91692,351.8775L291.39698,351.8775L291.39698,351.63747L291.87704,351.63747L291.87704,351.15742L292.11707,351.15742L292.11707,350.91739
				L292.59713,350.91739L292.59713,350.43734L292.83716,350.43734L292.83716,349.95729L293.31722,349.95729L293.31722,349.71727
				L293.55725,349.71727L293.55725,349.23722L294.03731,349.23722L294.03731,348.99719L294.51738,348.99719L294.51738,348.51714
				L294.75741,348.51714L294.75741,348.03709L295.23747,348.03709L295.23747,347.79706L295.4775,347.79706L295.4775,347.31701L295.95756,347.31701
				L295.95756,347.07699L300.27811,347.07699L300.27811,346.59693L300.51814,346.59693L300.51814,346.35691L300.9982,346.35691L
				300.9982,345.87686L301.23823,345.87686L301.23823,345.39681L301.71829,345.39681L301.71829,345.15678L302.19835,345.15678L302.19835,344.67673
				L302.43838,344.67673L302.43838,344.4367L302.91844,344.4367L302.91844,343.95665L303.15847,343.95665L303.15847,343.4766L303.63853,343.4766
				L303.63853,343.23658L312.0396,343.23658L312.0396,342.75652L312.51966,342.75652L312.51966,342.5165L312.75969,342.5165L312.75969,342.03645
				L313.23975,342.03645L313.23975,341.5564L313.47978,341.5564L313.47978,341.31637L313.95984,341.31637L313.95984,340.83632L314.4399,340.83632
				L314.4399,340.59629L314.67993,340.59629L314.67993,340.11624L315.16,340.11624L315.16,339.63619L315.40003,339.63619L315.40003,339.39617
				L315.88009,339.39617L315.88009,338.91612L316.36015,338.91612L316.36015,338.67609L316.60018,338.67609L316.60018,338.19604
				L317.08024,338.19604L317.08024,337.71599L317.32027,337.71599L317.32027,337.47596L317.80033,337.47596L317.80033,336.99591
				L318.28039,336.99591L318.28039,336.75589L318.52042,336.75589L318.52042,336.27583L319.00048,336.27583L319.00048,335.79578
				L319.24051,335.79578L319.24051,335.55576L319.72057,335.55576L319.72057,335.07571L319.9606,335.07571L319.9606,334.83568L320.44067,334.83568
				L320.44067,334.35563L320.92073,334.35563L320.92073,334.1156L321.16076,334.1156L321.16076,333.63555L321.64082,333.63555L321.64082,333.1555
				L321.88085,333.1555L321.88085,332.91548L322.36091,332.91548L322.36091,332.43543L322.84097,332.43543L322.84097,332.1954L323.081,332.1954
				L323.081,331.71535L323.56106,331.71535L323.56106,331.2353L323.80109,331.2353L323.80109,330.99527L324.28115,330.99527L324.28115,330.51522
				L324.76121,330.51522L324.76121,330.27519L325.72134,330.27519L325.72134,329.79514L326.2014,329.79514L326.2014,329.31509L326.68146,329.31509
				L326.68146,329.07507L326.92149,329.07507L326.92149,328.59502L327.40155,328.59502L327.40155,328.35499L327.64158,328.35499
				L327.64158,327.87494L328.12164,327.87494L328.12164,327.39489L328.6017,327.39489L328.6017,327.15486L330.76198,327.15486L330.76198,326.67481
				L331.24204,326.67481L331.24204,326.43479L331.48207,326.43479L331.48207,325.95473L331.96213,325.95473L331.96213,325.47468
				L332.20216,325.47468L332.20216,325.23466L332.68222,325.23466L332.68222,324.75461L334.60246,324.75461L334.60246,324.51458
				L335.08252,324.51458L335.08252,324.03453L335.32255,324.03453L335.32255,323.55448L335.80261,323.55448L335.80261,323.31445
				L336.04265,323.31445L336.04265,322.8344L336.52271,322.8344L336.52271,322.59438L337.00277,322.59438L337.00277,322.11433L337.2428,322.11433
				L337.2428,321.63427L337.72286,321.63427L337.72286,321.39425L337.96289,321.39425L337.96289,320.9142L338.44295,320.9142L338.44295,320.67417
				L338.92301,320.67417L338.92301,320.19412L339.16304,320.19412L339.16304,319.9541L339.6431,319.9541L339.6431,319.47404L339.88313,319.47404
				L339.88313,318.99399L340.36319,318.99399L340.36319,318.75397L340.84325,318.75397L340.84325,318.27392L341.08328,318.27392
				L341.08328,318.03389L341.56335,318.03389L341.56335,317.55384L341.80338,317.55384L341.80338,317.07379L342.28344,317.07379
				L342.28344,316.83376L342.7635,316.83376L342.7635,316.35371L343.00353,316.35371L343.00353,316.11369L343.48359,316.11369L343.48359,315.63363
				L343.72362,315.63363L343.72362,315.15358L344.20368,315.15358L344.20368,314.91356L344.44371,314.91356L344.44371,314.43351
				L344.92377,314.43351L344.92377,314.19348L345.40383,314.19348L345.40383,313.71343L345.64386,313.71343L345.64386,313.23338
				L346.12392,313.23338L346.12392,312.99335L346.36396,312.99335L346.36396,312.5133L346.84402,312.5133L346.84402,312.27328L347.32408,312.27328
				L347.32408,311.79323L347.56411,311.79323L347.56411,311.31317L348.04417,311.31317L348.04417,311.07315L348.2842,311.07315L
				348.2842,310.5931L348.76426,310.5931L348.76426,310.35307L349.24432,310.35307L349.24432,309.87302L349.48435,309.87302L349.48435,309.39297
				L349.96441,309.39297L349.96441,309.15294L350.20444,309.15294L350.20444,308.67289L350.6845,308.67289L350.6845,308.43287L351.16456,308.43287
				L351.16456,307.95282L351.40459,307.95282L351.40459,307.71279L354.04493,307.71279L354.04493,307.95282L362.20597,307.95282
				L362.20597,307.71279L367.9667,307.71279L367.9667,307.23274L373.24737,307.23274L373.24737,306.75269L377.56791,306.75269L377.56791,306.51266
				L381.4084,306.51266L381.4084,306.03261L385.00886,306.03261L385.00886,305.79259L388.84935,305.79259L388.84935,305.31253L393.16989,305.31253
				L393.16989,304.83248L397.01038,304.83248L397.01038,304.59246L401.0909,304.59246L401.0909,304.11241L405.89151,304.11241L405.89151,303.87238
				L410.69212,303.87238L410.69212,303.39233L412.37233,303.39233L412.37233,302.91228L413.81251,302.91228L413.81251,302.67225
				L415.2527,302.67225L415.2527,302.1922L416.45285,302.1922L416.45285,301.95218L418.13306,301.95218L418.13306,301.47213L419.09318,301.47213
				L419.09318,300.99207L420.7734,300.99207L420.7734,300.75205L421.73352,300.75205L421.73352,300.272L422.93367,300.272L422.93367,300.03197
				L424.13382,300.03197L424.13382,299.55192L425.33398,299.55192L425.33398,299.07187L426.77416,299.07187L426.77416,298.83184
				L427.97431,298.83184L427.97431,298.35179L429.17446,298.35179L429.17446,298.11177L430.61465,298.11177L430.61465,297.63172
				L431.8148,297.63172L431.8148,297.15167L433.01495,297.15167L433.01495,296.91164L433.73504,296.91164L433.73504,297.15167L433.25498,297.15167
				L433.25498,297.63172L432.53489,297.63172L432.53489,298.35179L432.29486,298.35179L432.29486,298.83184L431.8148,298.83184L
				431.8148,299.07187L431.33474,299.07187L431.33474,299.55192L431.09471,299.55192L431.09471,300.03197L430.61465,300.03197L430.61465,300.272
				L430.37462,300.272L430.37462,300.75205L429.89456,300.75205L429.89456,300.99207L429.41449,300.99207L429.41449,301.47213L429.17446,301.47213
				L429.17446,301.95218L428.6944,301.95218L428.6944,302.67225L428.45437,302.67225L428.45437,302.91228L427.97431,302.91228L427.97431,303.87238
				L427.49425,303.87238L427.49425,304.11241L427.25422,304.11241L427.25422,304.59246L426.77416,304.59246L426.77416,304.83248
				L426.53413,304.83248L426.53413,305.31253L426.05407,305.31253L426.05407,306.03261L425.57401,306.03261L425.57401,306.51266
				L425.33398,306.51266L425.33398,307.23274L424.85392,307.23274L424.85392,307.95282L424.61389,307.95282L424.61389,308.67289
				L424.13382,308.67289L424.13382,309.39297L423.65376,309.39297L423.65376,310.5931L423.41373,310.5931L423.41373,311.31317L422.93367,311.31317
				L422.93367,311.79323L422.69364,311.79323L422.69364,312.5133L422.21358,312.5133L422.21358,313.23338L421.73352,313.23338L421.73352,314.19348
				L421.49349,314.19348L421.49349,314.91356L421.01343,314.91356L421.01343,315.63363L420.7734,315.63363L420.7734,316.35371L420.29334,316.35371
				L420.29334,317.07379L420.05331,317.07379L420.05331,318.03389L419.57325,318.03389L419.57325,318.75397L419.09318,318.75397
				L419.09318,319.47404L418.85315,319.47404L418.85315,320.19412L418.37309,320.19412L418.37309,320.9142L418.13306,320.9142L418.13306,321.39425
				L417.653,321.39425L417.653,322.11433L417.17294,322.11433L417.17294,323.31445L416.93291,323.31445L416.93291,323.55448L416.45285,323.55448
				L416.45285,324.51458L416.21282,324.51458L416.21282,325.23466L415.73276,325.23466L415.73276,325.95473L415.2527,325.95473L
				415.2527,326.67481L415.01267,326.67481L415.01267,327.39489L414.53261,327.39489L414.53261,329.07507L414.29258,329.07507L414.29258,330.51522
				L413.81251,330.51522L413.81251,332.1954L413.33245,332.1954L413.33245,333.63555L413.09242,333.63555L413.09242,334.83568L412.61236,334.83568
				L412.61236,335.79578L412.37233,335.79578L412.37233,336.99591L411.89227,336.99591L411.89227,337.71599L411.41221,337.71599
				L411.41221,338.91612L411.17218,338.91612L411.17218,340.11624L410.69212,340.11624L410.69212,340.83632L410.45209,340.83632
				L410.45209,341.5564L409.97203,341.5564L409.97203,342.75652L409.49197,342.75652L409.49197,343.95665L409.25194,343.95665L409.25194,344.67673
				L408.77187,344.67673L408.77187,345.87686L408.53184,345.87686L408.53184,347.07699L408.05178,347.07699L408.05178,347.79706
				L407.81175,347.79706L407.81175,349.71727L407.33169,349.71727L407.33169,351.15742L406.85163,351.15742L406.85163,352.35755
				L406.6116,352.35755L406.6116,353.07762L406.13154,353.07762L406.13154,354.27775L405.89151,354.27775L405.89151,354.99783L405.41145,354.99783
				L405.41145,355.71791L404.93139,355.71791L404.93139,356.91803L404.69136,356.91803L404.69136,357.63811L404.2113,357.63811L
				404.2113,358.83824L403.97127,358.83824L403.97127,359.55832L403.4912,359.55832L403.4912,360.75844L403.01114,360.75844L403.01114,361.47852
				L402.77111,361.47852L402.77111,362.67865L402.29105,362.67865L402.29105,363.39872L402.05102,363.39872L402.05102,364.1188L
				401.57096,364.1188L401.57096,365.79898L401.0909,365.79898L401.0909,366.51906L400.85087,366.51906L400.85087,367.71918L400.37081,367.71918
				L400.37081,368.43926L400.13078,368.43926L400.13078,369.87942L399.65072,369.87942L399.65072,371.07954L399.17066,371.07954
				L399.17066,372.27967L398.93063,372.27967L398.93063,373.71982L398.45057,373.71982L398.45057,374.19988L398.21053,374.19988
				L398.21053,374.4399L397.73047,374.4399L397.73047,375.4L397.25041,375.4L397.25041,375.64003L397.01038,375.64003L397.01038,376.12008
				L396.53032,376.12008L396.53032,376.36011L396.29029,376.36011L396.29029,376.84016L395.81023,376.84016L395.81023,377.32021
				L395.33017,377.32021L395.33017,378.04028L395.09014,378.04028L395.09014,378.28031L394.61008,378.28031L394.61008,379.24041
				L394.37005,379.24041L394.37005,379.48044L393.88999,379.48044L393.88999,379.96049L393.64996,379.96049L393.64996,380.20051
				L393.16989,380.20051L393.16989,380.68057L392.68983,380.68057L392.68983,381.16062L392.4498,381.16062L392.4498,381.40064L391.96974,381.40064
				L391.96974,382.12072L391.72971,382.12072L391.72971,383.08082L391.24965,383.08082L391.24965,383.8009L390.76959,383.8009L390.76959,384.04092
				L390.52956,384.04092L390.52956,385.00103L390.0495,385.00103L390.0495,385.24105L389.32941,385.24105L389.32941,385.7211L388.84935,385.7211
				L388.84935,385.96113L388.12926,385.96113L388.12926,386.44118L387.40916,386.44118L387.40916,385.96113L386.9291,385.96113L
				386.9291,386.44118L384.76883,386.44118L384.76883,387.16126L384.28877,387.16126L384.28877,387.64131L384.04874,387.64131L384.04874,387.88133
				L383.56868,387.88133L383.56868,388.36138L383.08862,388.36138L383.08862,388.60141L382.84859,388.60141L382.84859,389.08146
				L382.12849,389.08146L382.12849,389.56151L381.64843,389.56151L381.64843,389.80154L381.4084,389.80154L381.4084,390.28159L380.44828,390.28159
				L380.44828,391.00167L380.20825,391.00167L380.20825,391.48172L379.72819,391.48172L379.72819,391.72174L379.48816,391.72174
				L379.48816,392.20179L379.0081,392.20179L379.0081,392.44182L378.52804,392.44182L378.52804,393.40192L378.28801,393.40192L378.28801,393.64195
				L377.80795,393.64195L377.80795,394.122L377.56791,394.122L377.56791,394.36202L377.08785,394.36202L377.08785,394.84208L376.60779,394.84208
				L376.60779,395.32213L375.8877,395.32213L375.8877,395.56215L375.64767,395.56215L375.64767,396.0422L375.16761,396.0422L375.16761,396.28223
				L374.68755,396.28223L374.68755,396.76228L374.44752,396.76228L374.44752,397.24233L373.72743,397.24233L373.72743,397.48236
				L373.24737,397.48236L373.24737,397.96241L372.52728,397.96241L372.52728,398.20243L371.80718,398.20243L371.80718,398.68248
				L370.84706,398.68248L370.84706,398.92251L370.12697,398.92251L370.12697,399.40256L369.40688,399.40256L369.40688,399.88261
				L369.16685,399.88261L369.16685,400.12264L368.20673,400.12264L368.20673,400.60269L367.9667,400.60269L367.9667,400.84271L367.24661,400.84271
				L367.24661,401.32277L366.28648,401.32277L366.28648,401.80282L366.04645,401.80282L366.04645,402.04284L365.56639,402.04284
				L365.56639,402.52289L365.32636,402.52289L365.32636,402.76292L364.8463,402.76292L364.8463,403.24297L364.36624,403.24297L364.36624,403.96305
				L364.12621,403.96305L364.12621,404.4431L363.64615,404.4431L363.64615,404.68312L363.40612,404.68312L363.40612,405.16318L362.92606,405.16318
				L362.92606,405.64323L362.446,405.64323L362.446,405.88325L362.20597,405.88325L362.20597,406.60333L361.7259,406.60333L361.7259,407.08338
				L361.48587,407.08338L361.48587,407.56343L361.00581,407.56343L361.00581,407.80346L360.52575,407.80346L360.52575,408.52353
				L360.28572,408.52353L360.28572,409.00358L359.80566,409.00358L359.80566,409.48364L359.56563,409.48364L359.56563,409.72366
				L358.60551,409.72366L358.60551,410.44374L357.88542,410.44374L357.88542,410.92379L357.64539,410.92379L357.64539,411.40384
				L356.9253,411.40384L356.9253,411.64387L356.44523,411.64387L356.44523,412.12392L355.96517,412.12392L355.96517,412.36394L355.72514,412.36394
				L355.72514,412.84399L355.24508,412.84399L355.24508,413.08402L355.00505,413.08402L355.00505,413.56407L354.04493,413.56407
				L354.04493,414.04412L353.8049,414.04412L353.8049,414.28415L353.32484,414.28415L353.32484,414.7642L353.08481,414.7642L353.08481,415.00422
				L352.60475,415.00422L352.60475,415.48427L352.12469,415.48427L352.12469,415.96433L351.40459,415.96433L351.40459,416.20435
				L351.16456,416.20435L351.16456,416.6844L350.6845,416.6844L350.6845,416.92443L349.96441,416.92443L349.96441,417.40448L349.48435,417.40448
				L349.48435,417.88453L349.24432,417.88453L349.24432,418.12456L348.2842,418.12456L348.2842,418.60461L348.04417,418.60461L348.04417,418.84463
				L347.56411,418.84463L347.56411,419.32468L346.84402,419.32468L346.84402,419.80474L346.12392,419.80474L346.12392,420.04476
				L345.40383,420.04476L345.40383,420.52481L344.44371,420.52481L344.44371,420.76484L343.72362,420.76484L343.72362,421.24489
				L343.48359,421.24489L343.48359,421.72494L343.00353,421.72494L343.00353,421.96497L342.7635,421.96497L342.7635,422.44502L342.28344,422.44502
				L342.28344,422.68504L341.80338,422.68504L341.80338,423.16509L341.56335,423.16509L341.56335,423.64514L341.08328,423.64514
				L341.08328,423.88517L340.84325,423.88517L340.84325,424.36522L340.36319,424.36522L340.36319,424.60525L339.88313,424.60525
				L339.88313,425.0853L339.6431,425.0853L339.6431,425.32532L339.16304,425.32532L339.16304,425.80537L338.92301,425.80537L338.92301,426.28543
				L338.44295,426.28543L338.44295,426.52545L337.96289,426.52545L337.96289,427.0055L337.72286,427.0055L337.72286,427.24553L337.2428,427.24553
				L337.2428,427.72558L337.00277,427.72558L337.00277,428.20563L336.52271,428.20563L336.52271,428.44566L336.04265,428.44566L
				336.04265,428.92571L335.32255,428.92571L335.32255,429.16573L334.60246,429.16573L334.60246,429.64578L333.88237,429.64578L
				333.88237,430.12584L333.40231,430.12584L333.40231,430.36586L333.16228,430.36586L333.16228,430.84591L332.68222,430.84591L
				332.68222,431.08594L331.96213,431.08594L331.96213,432.28607L331.48207,432.28607L331.48207,433.00614L331.24204,433.00614L
				331.24204,433.96624L330.76198,433.96624L330.76198,434.68632L330.52194,434.68632L330.52194,435.4064L330.04188,435.4064L330.04188,435.88645
				L329.56182,435.88645L329.56182,436.60653L329.32179,436.60653L329.32179,437.3266L328.84173,437.3266L328.84173,438.04668L328.6017,438.04668
				L328.6017,438.52673L328.12164,438.52673L328.12164,439.24681L327.64158,439.24681L327.64158,439.96688L327.40155,439.96688L
				327.40155,440.68696L326.92149,440.68696L326.92149,441.16701L326.68146,441.16701L326.68146,441.40704L326.2014,441.40704L326.2014,441.88709
				L325.72134,441.88709L325.72134,442.36714L325.48131,442.36714L325.48131,443.08722L325.00124,443.08722L325.00124,443.32724
				L324.76121,443.32724L324.76121,443.80729L324.28115,443.80729L324.28115,444.52737L323.80109,444.52737L323.80109,445.00742
				L323.56106,445.00742L323.56106,445.24745L323.081,445.24745L323.081,445.7275L322.84097,445.7275L322.84097,446.44757L322.36091,446.44757
				L322.36091,446.92763L321.88085,446.92763L321.88085,447.16765L321.16076,447.16765L321.16076,447.6477L319.9606,447.6477L319.9606,448.12775
				L319.24051,448.12775L319.24051,448.36778L319.00048,448.36778L319.00048,449.08786L318.52042,449.08786L318.52042,449.56791
				L318.28039,449.56791L318.28039,450.04796L317.80033,450.04796L317.80033,450.76803L317.32027,450.76803L317.32027,451.00806
				L317.08024,451.00806L317.08024,451.48811L316.60018,451.48811L316.60018,452.20819L316.36015,452.20819L316.36015,452.68824
				L315.88009,452.68824L315.88009,452.92826L315.40003,452.92826L315.40003,453.40832L315.16,453.40832L315.16,453.64834L314.67993,453.64834
				L314.67993,454.12839L314.4399,454.12839L314.4399,454.60844L313.95984,454.60844L313.95984,454.84847L313.47978,454.84847L313.47978,455.32852
				L313.23975,455.32852L313.23975,455.56855L312.75969,455.56855L312.75969,456.0486L311.55954,456.0486L311.55954,456.52865L310.83945,456.52865
				L310.83945,456.76867L309.63929,456.76867L309.63929,457.24873L307.71905,457.24873L307.71905,457.48875L306.27887,457.48875
				L306.27887,457.9688L304.11859,457.9688L304.11859,458.44885L302.19835,458.44885L302.19835,458.68888L300.9982,458.68888L300.9982,459.16893
				L300.27811,459.16893L300.27811,459.40896L299.31798,459.40896L299.31798,459.88901L298.59789,459.88901L298.59789,460.36906
				L297.39774,460.36906L297.39774,460.60908L296.67765,460.60908L296.67765,461.08913L295.4775,461.08913L295.4775,461.32916L294.75741,461.32916
				L294.75741,461.80921L293.55725,461.80921L293.55725,462.28926L292.83716,462.28926L292.83716,462.52929L291.87704,462.52929
				L291.87704,463.00934L290.91692,463.00934L290.91692,463.24936L289.9568,463.24936L289.9568,463.72942L288.03655,463.72942L288.03655,463.96944
				L284.4361,463.96944L284.4361,463.72942L283.23594,463.72942L283.23594,463.24936L282.51585,463.24936L282.51585,463.00934L281.3157,463.00934
				L281.3157,462.52929L280.59561,462.52929L280.59561,462.28926L279.87552,462.28926L279.87552,461.80921L279.15543,461.80921L
				279.15543,461.08913L278.67537,461.08913L278.67537,460.60908L278.43533,460.60908L278.43533,459.40896L277.95527,459.40896L
				277.95527,459.16893L276.75512,459.16893L276.75512,458.68888L275.795,458.68888L275.795,458.44885L274.59485,458.44885L274.59485,457.9688
				L274.11479,457.9688L274.11479,458.44885L273.87476,458.44885L273.87476,458.68888L273.3947,458.68888L273.3947,459.16893L272.91463,459.16893
				L272.91463,459.40896L272.6746,459.40896L272.6746,459.88901L272.19454,459.88901L272.19454,460.60908L271.95451,460.60908L271.95451,461.32916
				L271.47445,461.32916L271.47445,462.28926L270.99439,462.28926L270.99439,462.52929L270.75436,462.52929L270.75436,463.00934
				L270.2743,463.00934L270.2743,463.24936L270.03427,463.24936L270.03427,463.72942L269.55421,463.72942L269.55421,463.96944L269.07415,463.96944
				L269.07415,464.92954L268.83412,464.92954L268.83412,465.16957L268.35406,465.16957L268.35406,465.64962L268.11402,465.64962
				L268.11402,464.92954L268.35406,464.92954L268.35406,463.96944L268.83412,463.96944L268.83412,463.72942L269.07415,463.72942
				L269.07415,463.00934L269.55421,463.00934L269.55421,462.28926L270.03427,462.28926L270.03427,459.40896L270.2743,459.40896L
				270.2743,456.0486L270.75436,456.0486L270.75436,454.12839L270.99439,454.12839L270.99439,453.64834L271.95451,453.64834"/>
			<path clip-path="url(#SVG_CP_2)" fill="none" stroke="#999999" stroke-width="0.96012" stroke-miterlimit="10" stroke-linecap="round" stroke-linejoin="round" d="
				M271.95451,453.64834L271.95451,453.40832L272.91463,453.40832L272.91463,452.92826L274.59485,452.92826L274.59485,453.40832
				L275.31494,453.40832L275.31494,453.64834L275.795,453.64834L275.795,454.12839L276.03503,454.12839L276.03503,454.60844L276.51509,454.60844
				L276.51509,454.84847L276.75512,454.84847L276.75512,455.32852L277.23518,455.32852L277.23518,456.0486L277.71524,456.0486L277.71524,456.52865
				L277.95527,456.52865L277.95527,456.76867L278.43533,456.76867L278.43533,457.48875L278.67537,457.48875L278.67537,457.9688L
				279.15543,457.9688L279.15543,458.68888L279.63549,458.68888L279.63549,459.40896L279.87552,459.40896L279.87552,459.88901L280.35558,459.88901
				L280.35558,460.60908L280.59561,460.60908L280.59561,461.08913L281.07567,461.08913L281.07567,461.32916L281.3157,461.32916L
				281.3157,461.80921L282.51585,461.80921L282.51585,462.28926L283.716,462.28926L283.716,462.52929L284.4361,462.52929L284.4361,463.00934
				L284.91616,463.00934L284.91616,463.24936L285.63625,463.24936L285.63625,463.00934L286.35634,463.00934L286.35634,462.52929
				L287.55649,462.52929L287.55649,462.28926L288.27658,462.28926L288.27658,461.80921L289.47674,461.80921L289.47674,461.32916
				L290.19683,461.32916L290.19683,461.08913L291.39698,461.08913L291.39698,460.60908L292.11707,460.60908L292.11707,460.36906
				L292.83716,460.36906L292.83716,459.88901L294.03731,459.88901L294.03731,459.40896L294.75741,459.40896L294.75741,459.16893
				L295.95756,459.16893L295.95756,458.68888L296.67765,458.68888L296.67765,458.44885L297.39774,458.44885L297.39774,457.9688L
				298.59789,457.9688L298.59789,457.48875L299.31798,457.48875L299.31798,457.24873L300.27811,457.24873L300.27811,456.76867L301.23823,456.76867
				L301.23823,456.52865L302.19835,456.52865L302.19835,456.0486L303.15847,456.0486L303.15847,455.56855L303.63853,455.56855L303.63853,455.32852
				L304.35862,455.32852L304.35862,454.84847L304.83869,454.84847L304.83869,454.60844L305.55878,454.60844L305.55878,454.12839
				L305.79881,454.12839L305.79881,453.64834L306.27887,453.64834L306.27887,453.40832L306.99896,453.40832L306.99896,451.48811
				L307.47902,451.48811L307.47902,451.00806L307.71905,451.00806L307.71905,450.28798L308.19911,450.28798L308.19911,449.56791
				L308.67917,449.56791L308.67917,449.08786L308.9192,449.08786L308.9192,448.36778L309.39926,448.36778L309.39926,447.6477L309.63929,447.6477
				L309.63929,446.92763L310.11936,446.92763L310.11936,445.24745L310.59942,445.24745L310.59942,444.28734L310.83945,444.28734
				L310.83945,443.08722L310.59942,443.08722L310.59942,442.60717L310.83945,442.60717L310.83945,441.40704L311.31951,441.40704
				L311.31951,440.68696L311.55954,440.68696L311.55954,440.44693L311.31951,440.44693L311.31951,439.48683L310.83945,439.48683
				L310.83945,438.04668L310.59942,438.04668L310.59942,436.12647L310.11936,436.12647L310.11936,434.20627L309.63929,434.20627
				L309.63929,433.00614L309.39926,433.00614L309.39926,431.56599L308.9192,431.56599L308.9192,428.20563L308.67917,428.20563L308.67917,426.52545
				L308.19911,426.52545L308.19911,425.0853L307.71905,425.0853L307.71905,423.64514L307.47902,423.64514L307.47902,421.96497L306.99896,421.96497
				L306.99896,420.52481L306.75893,420.52481L306.75893,419.32468L306.27887,419.32468L306.27887,417.88453L305.79881,417.88453
				L305.79881,416.20435L305.55878,416.20435L305.55878,414.7642L305.07872,414.7642L305.07872,413.56407L304.83869,413.56407L304.83869,413.08402
				L304.35862,413.08402L304.35862,412.84399L303.63853,412.84399L303.63853,412.36394L302.91844,412.36394L302.91844,412.12392
				L302.19835,412.12392L302.19835,411.64387L301.71829,411.64387L301.71829,411.40384L300.9982,411.40384L300.9982,410.92379L300.27811,410.92379
				L300.27811,410.44374L299.79805,410.44374L299.79805,410.20371L299.07795,410.20371L299.07795,409.72366L298.35786,409.72366
				L298.35786,409.48364L297.8778,409.48364L297.8778,409.00358L297.15771,409.00358L297.15771,408.52353L296.43762,408.52353L296.43762,408.28351
				L295.4775,408.28351L295.4775,407.80346L295.23747,407.80346L295.23747,407.56343L294.51738,407.56343L294.51738,407.08338L293.55725,407.08338
				L293.55725,406.60333L293.31722,406.60333L293.31722,406.3633L292.59713,406.3633L292.59713,405.88325L291.87704,405.88325L291.87704,405.64323
				L290.91692,405.64323L290.91692,405.16318L290.67689,405.16318L290.67689,404.68312L289.9568,404.68312L289.9568,404.4431L288.99668,404.4431
				L288.99668,403.96305L288.75664,403.96305L288.75664,403.72302L288.03655,403.72302L288.03655,403.24297L287.07643,403.24297
				L287.07643,402.76292L286.35634,402.76292L286.35634,402.52289L286.11631,402.52289L286.11631,402.04284L285.15619,402.04284
				L285.15619,401.80282L284.4361,401.80282L284.4361,401.32277L283.716,401.32277L283.716,400.84271L282.99591,400.84271L282.99591,400.60269
				L282.27582,400.60269L282.27582,400.12264L281.3157,400.12264L281.3157,399.88261L280.59561,399.88261L280.59561,399.40256L279.87552,399.40256
				L279.87552,398.92251L279.15543,398.92251L279.15543,398.68248L278.43533,398.68248L278.43533,398.20243L277.71524,398.20243
				L277.71524,397.96241L276.75512,397.96241L276.75512,397.48236L276.03503,397.48236L276.03503,397.24233L275.31494,397.24233
				L275.31494,394.122L275.795,394.122L275.795,390.52161L276.03503,390.52161L276.03503,387.16126L276.51509,387.16126L276.51509,383.8009
				L276.75512,383.8009L276.75512,380.20051L277.23518,380.20051L277.23518,378.76036L277.71524,378.76036L277.71524,377.32021L
				277.95527,377.32021L277.95527,375.4L278.43533,375.4L278.43533,371.07954L278.67537,371.07954L278.67537,366.51906L279.15543,366.51906
				L279.15543,363.39872"/>
		</g>
</g></svg>