<?xml version="1.0" encoding="utf-8" standalone="no"?>
<!-- Creator: ESRI ArcMap 10.0.0.2414 -->
<!DOCTYPE svg PUBLIC "-//W3C//DTD SVG 1.1//EN"  "http://www.w3.org/Graphics/SVG/1.1/DTD/svg11.dtd">
<svg width="182.530412915pt" height="741.1872776pt" viewBox="206.485973542 45.48194658 182.530412915 741.1872776" enable-background="new 206.485973542 45.48194658 182.530412915 741.1872776"
	version="1.1" xmlns="http://www.w3.org/2000/svg" xmlns:xlink="http://www.w3.org/1999/xlink" >
	<g id="Couches">
		<g id="reservoirs">
			<clipPath id="SVG_CP_2">
				<path d="M574.39289,21.36228L21.36271,21.36228L21.36271,821.36753L574.39289,821.36753L574.39289,21.36228z"/>
			</clipPath>
			<path clip-path="url(#SVG_CP_2)" fill-opacity="0.2" fill="#2f4493" fill-rule="evenodd" stroke="#2f4493" stroke-width="1" stra="1.44018" stroke-miterlimit="10" stroke-linecap="round" stroke-linejoin="round" d="
				M378.04798,748.39975L378.28801,752.00013L378.76807,759.44093L379.0081,761.60116L379.0081,771.92226L379.0081,774.80256L379.96822,777.68287
				L382.60855,784.88364L380.92834,780.8032L378.28801,781.04323L365.56639,768.80192L362.20597,766.88172L363.88618,765.20154L
				369.40688,765.92162L370.367,757.2807L371.80718,746.9596L365.80642,742.87916L366.04645,739.5188L366.76654,733.27814L363.16609,733.27814
				L359.80566,733.27814L358.36548,738.79873L363.16609,739.99886L357.16533,750.07993L355.48511,750.80001L349.72438,753.44029
				L348.2842,757.76075L343.24356,759.44093L343.24356,759.2009L337.96289,749.59988L330.52194,737.11855L324.76121,726.3174L324.76121,726.07737
				L323.56106,717.19643L321.40079,709.27558L319.48054,706.6353L317.80033,704.23504L310.11936,690.31356L337.96289,692.47379L
				344.20368,688.15333L367.24661,691.03364L364.36624,708.5555L367.72667,717.19643L367.48664,740.47891L370.84706,744.79937L378.04798,748.39975
				z"/>
			<path clip-path="url(#SVG_CP_2)" fill-opacity="0.2" fill="#2f4493" fill-rule="evenodd" stroke="#2f4493" stroke-width="1" stra="1.44018" stroke-miterlimit="10" stroke-linecap="round" stroke-linejoin="round" d="
				M262.83335,85.92916L267.63396,88.56944L269.79424,87.84936L270.99439,103.45102L272.91463,114.01215L277.47521,126.49348L284.19607,143.05524
				L287.79652,155.05652L289.47674,163.21739L293.07719,177.13888L298.11783,188.42008L301.23823,203.06164L301.71829,209.54233
				L300.9982,222.50371L289.71677,222.98376L283.95604,224.42392L282.99591,224.90397L284.4361,227.30422L284.4361,230.42455L279.87552,237.62532
				L282.03579,239.3055L285.15619,238.58542L288.75664,238.82545L293.07719,239.78555L294.51738,240.02558L297.63777,238.10537L
				298.83792,237.3853L300.75817,234.02494L302.19835,234.26496L307.71905,237.3853L310.35939,238.82545L311.79957,239.54553L316.36015,240.98568
				L328.6017,244.58606L331.24204,245.54617L333.16228,248.42647L333.88237,252.02686L335.08252,261.14783L335.08252,267.14847L
				335.32255,272.66906L335.08252,283.23018L336.76274,291.39105L347.32408,302.91228L357.88542,313.4734L361.48587,319.47404L363.64615,340.59629
				L366.28648,358.83824L371.32712,380.20051L372.52728,387.64131L372.76731,394.122L371.08709,409.72366L369.40688,424.84527L367.24661,438.52673
				L367.48664,443.56727L367.9667,452.68824L367.72667,463.48939L368.92682,473.33044L369.40688,493.49259L369.16685,497.81305L
				369.40688,503.09361L370.60703,511.73453L384.5288,540.5376L386.9291,549.8986L386.9291,556.61931L386.44904,566.46036L386.44904,572.70103
				L385.96898,580.8619L386.9291,587.58261L386.44904,590.2229L375.40764,603.90435L372.76731,606.54463L353.08481,605.58453L341.56335,633.18747
				L337.96289,655.50985L339.6431,657.19003L341.32332,658.87021L354.28496,663.4307L369.88694,665.59093L373.00734,671.11151L343.24356,664.15077
				L338.20292,663.4307L333.16228,661.99054L326.68146,657.91011L322.12088,654.30972L321.64082,650.46932L319.9606,644.22865L319.24051,639.90819
				L316.84021,639.90819L305.79881,640.38824L303.15847,637.98799L301.95832,636.06778L300.9982,635.58773L287.07643,636.30781L
				284.19607,636.54783L283.47597,627.66689L282.75588,619.74604L282.03579,612.06522L282.03579,611.58517L286.8364,612.06522L294.75741,612.7853
				L298.83792,622.38632L292.59713,622.62635L291.39698,623.82648L291.87704,627.42686L300.03808,626.46676L306.03884,621.90627
				L300.9982,608.46484L302.91844,597.66369L303.3985,594.30333L308.67917,594.54336L314.4399,594.78338L318.52042,594.30333L322.36091,595.26343
				L324.52118,595.74348L328.36167,596.46356L329.08176,592.38313L329.08176,588.78274L335.08252,591.183L336.04265,591.90307L341.08328,596.94361
				L344.92377,599.58389L349.00429,600.30397L352.36472,599.34387L350.92453,593.1032L349.00429,584.94233L343.00353,584.46228L
				342.04341,583.98223L338.92301,582.30205L326.92149,575.34131L325.48131,574.62123L324.28115,573.90116L321.88085,576.06139L
				313.95984,571.74093L307.23899,568.14054L307.23899,561.65985L299.79805,561.65985L298.35786,561.65985L296.91768,561.65985L
				291.15695,561.1798L289.71677,567.66049L288.75664,571.5009L285.87628,571.5009L282.27582,571.5009L281.79576,573.4211L281.07567,577.02149
				L273.63473,576.78146L275.55497,562.85998L273.87476,561.65985L276.51509,559.2596L280.35558,558.77954L289.47674,557.33939L
				288.99668,553.73901L289.47674,553.73901L289.71677,553.49898L290.43686,554.21906L292.59713,553.97903L300.9982,551.57878L300.75817,549.8986
				L300.75817,547.97839L299.07795,544.61804L296.43762,540.5376L295.71753,537.41727L288.51661,539.09745L284.91616,540.05755L
				282.51585,541.01765L279.39546,542.21778L271.23442,543.41791L271.71448,542.21778L266.19378,542.45781L259.47293,543.65793L
				258.27278,543.89796L257.07262,544.13798L257.07262,543.89796L256.59256,537.41727L255.15238,536.21714L248.43153,541.25768L
				247.71144,537.65729L241.23061,539.09745L235.70991,526.85614L229.46912,513.65474L225.3886,505.49387L219.8679,496.13287L213.62711,486.53185
				L210.02665,478.13095L208.8265,468.52993L210.26668,464.68952L212.42696,460.12903L213.86714,455.56855L215.30732,451.00806L
				219.8679,438.52673L223.46836,423.16509L223.22833,413.56407L222.74827,397.96241L221.54812,389.56151L221.54812,376.60013L222.9883,365.31893
				L225.14857,350.43734L226.34872,331.2353L227.06882,312.99335L224.18845,293.31126L221.54812,276.74949L219.8679,260.18773L219.38784,247.22635
				L218.90778,228.0243L219.8679,225.86407L224.42848,215.54297L223.70839,212.18261L221.78815,202.34156L221.78815,202.10154L223.46836,189.86023
				L226.58876,176.4188L226.10869,165.1376L239.31037,166.0977L241.47064,148.33581L241.71067,146.4156L240.51052,146.17558L238.59028,146.17558
				L223.46836,145.69553L222.26821,140.65499L219.38784,130.33389L215.30732,111.13184L217.4676,99.85064L216.74751,98.89054L224.66851,92.8899
				L234.0297,86.64923L242.43077,80.64859L250.35177,73.92788L257.07262,68.40729L260.91311,64.80691L267.63396,57.60614L270.2743,74.40793
				L270.2743,78.72839L265.47369,78.96842L263.79348,83.28888L262.83335,85.92916zM275.31494,411.16381L274.83488,421.24489L278.67537,421.24489
				L279.39546,427.72558L279.63549,430.12584L274.11479,434.20627L270.75436,435.4064L272.91463,441.88709L274.35482,446.44757L
				276.75512,453.88837L281.55573,451.24809L282.51585,457.24873L282.75588,460.12903L276.75512,462.52929L276.99515,470.93018L
				268.11402,471.89029L267.63396,482.21139L267.63396,489.8922L267.39393,500.2133L276.99515,500.69335L275.55497,512.21458L291.15695,512.93466
				L300.75817,510.05435L299.55802,491.81241L290.19683,475.73069L299.31798,472.13031L300.03808,467.08977L300.51814,463.00934
				L285.87628,458.68888L282.27582,435.64642L282.75588,433.00614L287.79652,432.76612L288.75664,433.24617L293.31722,435.64642
				L316.60018,443.32724L316.84021,435.16637L301.71829,429.64578L297.39774,427.9656L291.63701,424.1252L287.79652,425.32532L285.87628,426.0454
				L281.79576,425.32532L279.87552,420.04476L281.3157,412.60397L275.31494,411.16381z"/>
		</g>
</g></svg>