<?xml version="1.0" encoding="utf-8" standalone="no"?>
<!-- Creator: ESRI ArcMap 10.0.0.2414 -->
<!DOCTYPE svg PUBLIC "-//W3C//DTD SVG 1.1//EN"  "http://www.w3.org/Graphics/SVG/1.1/DTD/svg11.dtd">
<svg width="524.0420768pt" height="250.499602629pt" viewBox="32.15712744 295.879333685 524.0420768 250.499602629" enable-background="new 32.15712744 295.879333685 524.0420768 250.499602629"
	version="1.1" xmlns="http://www.w3.org/2000/svg" xmlns:xlink="http://www.w3.org/1999/xlink" >
	<g id="Couches">
		<g id="cont_1">
			<clipPath id="SVG_CP_2">
				<path d="M574.39289,21.36228L21.36271,21.36228L21.36271,821.36753L574.39289,821.36753L574.39289,21.36228z"/>
			</clipPath>
			<path clip-path="url(#SVG_CP_2)" fill="none" stroke="#999999" stroke-width="0.96012" stroke-miterlimit="10" stroke-linecap="round" stroke-linejoin="round" d="
				M549.66976,540.77763L46.56591,540.77763L46.56591,342.27647L47.04597,342.27647L47.04597,342.75652L47.52603,342.75652L47.52603,343.4766
				L48.00609,343.4766L48.00609,343.95665L48.48615,343.95665L48.48615,344.91676L48.96621,344.91676L48.96621,345.39681L49.44628,345.39681
				L49.44628,345.87686L50.16637,345.87686L50.16637,346.35691L50.64643,346.35691L50.64643,346.83696L51.12649,346.83696L51.12649,348.03709
				L51.60655,348.03709L51.60655,348.51714L52.08661,348.51714L52.08661,348.99719L52.56667,348.99719L52.56667,349.47724L53.04673,349.47724
				L53.04673,349.95729L53.52679,349.95729L53.52679,350.91739L54.00685,350.91739L54.00685,351.39745L54.72695,351.39745L54.72695,352.11752
				L55.20701,352.11752L55.20701,352.59757L55.68707,352.59757L55.68707,353.07762L56.16713,353.07762L56.16713,353.55768L56.64719,353.55768
				L56.64719,354.51778L57.12725,354.51778L57.12725,354.99783L57.60731,354.99783L57.60731,355.47788L58.08737,355.47788L58.08737,355.95793
				L58.56743,355.95793L58.56743,356.67801L59.28752,356.67801L59.28752,357.15806L59.76759,357.15806L59.76759,357.63811L60.24765,357.63811
				L60.24765,358.11816L60.72771,358.11816L60.72771,358.59821L61.20777,358.59821L61.20777,359.07826L61.68783,359.07826L61.68783,359.55832
				L62.16789,359.55832L62.16789,360.03837L62.64795,360.03837L62.64795,360.51842L63.36804,360.51842L63.36804,361.23849L63.8481,361.23849
				L63.8481,361.71855L64.32816,361.71855L64.32816,362.1986L64.80822,362.1986L64.80822,363.1587L65.28829,363.1587L65.28829,363.63875
				L65.76835,363.63875L65.76835,364.1188L66.24841,364.1188L66.24841,364.59885L66.72847,364.59885L66.72847,365.31893L67.20853,365.31893
				L67.20853,365.79898L67.92862,365.79898L67.92862,366.27903L68.40868,366.27903L68.40868,366.75908L68.88874,366.75908L68.88874,367.23913
				L69.3688,367.23913L69.3688,367.71918L69.84886,367.71918L69.84886,368.19924L70.32893,368.19924L70.32893,368.67929L70.80899,368.67929
				L70.80899,369.15934L71.76911,369.15934L71.76911,369.87942L72.96926,369.87942L72.96926,370.35947L74.40944,370.35947L74.40944,370.83952
				L75.36957,370.83952L75.36957,373.23977L75.84963,373.23977L75.84963,374.91995L76.56972,374.91995L76.56972,375.88005L77.04978,375.88005
				L77.04978,376.84016L77.52984,376.84016L77.52984,377.80026L78.0099,377.80026L78.0099,379.00039L78.48996,379.00039L78.48996,379.96049
				L78.97002,379.96049L78.97002,380.92059L79.45008,380.92059L79.45008,381.88069L79.93014,381.88069L79.93014,383.08082L80.4102,383.08082
				L80.4102,384.04092L81.1303,384.04092L81.1303,385.00103L81.61036,385.00103L81.61036,385.96113L82.09042,385.96113L82.09042,386.92123
				L82.57048,386.92123L82.57048,388.12136L83.05054,388.12136L83.05054,388.60141L83.5306,388.60141L83.5306,389.56151L84.01066,389.56151
				L84.01066,390.52161L84.49072,390.52161L84.49072,391.00167L84.97078,391.00167L84.97078,391.72174L85.69087,391.72174L85.69087,392.20179
				L86.17094,392.20179L86.17094,393.1619L87.13106,393.1619L87.13106,392.68185L88.09118,392.68185L88.09118,392.20179L89.77139,392.20179
				L89.77139,393.1619L90.25145,393.1619L90.25145,394.60205L89.77139,394.60205L89.77139,395.0821L89.0513,395.0821L89.0513,395.56215
				L88.57124,395.56215L88.57124,396.28223L88.09118,396.28223L88.09118,398.20243L88.57124,398.20243L88.57124,399.16254L89.0513,399.16254
				L89.0513,400.84271L91.21158,400.84271L91.21158,400.12264L92.65176,400.12264L92.65176,399.64259L94.33197,399.64259L94.33197,399.16254
				L97.21234,399.16254L97.21234,398.68248L101.77292,398.68248L101.77292,398.20243L102.97307,398.20243L102.97307,396.76228L103.45313,396.76228
				L103.45313,393.64195L103.93319,393.64195L103.93319,391.72174L106.81356,391.72174L106.81356,391.00167L119.53517,391.00167
				L119.53517,390.52161L120.73532,390.52161L120.73532,390.04156L121.21538,390.04156L121.21538,389.56151L122.1755,389.56151L
				122.1755,389.08146L123.13563,389.08146L123.13563,388.60141L124.09575,388.60141L124.09575,388.12136L125.2959,388.12136L125.2959,387.64131
				L125.77596,387.64131L125.77596,386.92123L126.73608,386.92123L126.73608,386.44118L127.69621,386.44118L127.69621,385.96113
				L128.65633,385.96113L128.65633,385.48108L129.13639,385.48108L129.13639,385.00103L130.33654,385.00103L130.33654,384.52098
				L131.29666,384.52098L131.29666,384.04092L132.25678,384.04092L132.25678,383.56087L133.21691,383.56087L133.21691,383.08082
				L133.937,383.08082L133.937,382.36075L134.41706,382.36075L134.41706,381.88069L134.89712,381.88069L134.89712,381.40064L135.37718,381.40064
				L135.37718,380.92059L135.85724,380.92059L135.85724,380.44054L136.3373,380.44054L136.3373,379.96049L136.81736,379.96049L136.81736,379.48044
				L137.29742,379.48044L137.29742,379.00039L137.77748,379.00039L137.77748,378.52034L138.49758,378.52034L138.49758,377.80026
				L138.97764,377.80026L138.97764,377.32021L139.4577,377.32021L139.4577,376.84016L139.93776,376.84016L139.93776,376.36011L140.41782,376.36011
				L140.41782,375.88005L140.89788,375.88005L140.89788,375.4L141.37794,375.4L141.37794,374.91995L141.858,374.91995L141.858,373.23977
				L142.33806,373.23977L142.33806,372.27967L143.05815,372.27967L143.05815,371.31957L143.53822,371.31957L143.53822,370.35947
				L144.01828,370.35947L144.01828,368.19924L144.49834,368.19924L144.49834,366.75908L144.9784,366.75908L144.9784,365.31893L145.45846,365.31893
				L145.45846,363.1587L145.93852,363.1587L145.93852,359.07826L146.41858,359.07826L146.41858,358.11816L147.13867,358.11816L147.13867,357.15806
				L147.61873,357.15806L147.61873,355.95793L148.09879,355.95793L148.09879,354.99783L148.57886,354.99783L148.57886,364.59885
				L149.05892,364.59885L149.05892,366.27903L150.4991,366.27903L150.4991,366.75908L152.17931,366.75908L152.17931,367.23913L153.6195,367.23913
				L153.6195,366.75908L154.09956,366.75908L154.09956,363.63875L270.2743,363.63875L270.2743,364.1188L426.77416,364.1188L426.77416,365.79898
				L427.25422,365.79898L427.25422,367.23913L427.73428,367.23913L427.73428,368.67929L428.21434,368.67929L428.21434,370.35947
				L428.6944,370.35947L428.6944,371.31957L429.41449,371.31957L429.41449,372.75972L429.89456,372.75972L429.89456,373.71982L430.37462,373.71982
				L430.37462,374.91995L430.85468,374.91995L430.85468,376.36011L431.33474,376.36011L431.33474,377.32021L431.8148,377.32021L
				431.8148,378.52034L432.29486,378.52034L432.29486,379.48044L432.77492,379.48044L432.77492,380.92059L433.25498,380.92059L433.25498,381.88069
				L433.97507,381.88069L433.97507,383.08082L434.45513,383.08082L434.45513,384.52098L434.9352,384.52098L434.9352,385.48108L435.41526,385.48108
				L435.41526,386.44118L435.89532,386.44118L435.89532,387.64131L436.37538,387.64131L436.37538,389.08146L436.85544,389.08146
				L436.85544,390.04156L437.3355,390.04156L437.3355,395.0821L437.81556,395.0821L437.81556,405.4032L437.3355,405.4032L437.3355,406.84335
				L436.85544,406.84335L436.85544,408.28351L436.37538,408.28351L436.37538,409.96369L435.89532,409.96369L435.89532,411.88389
				L435.41526,411.88389L435.41526,413.32404L434.9352,413.32404L434.9352,415.00422L434.45513,415.00422L434.45513,416.44438L433.97507,416.44438
				L433.97507,417.88453L433.25498,417.88453L433.25498,419.56471L432.77492,419.56471L432.77492,421.00486L432.29486,421.00486
				L432.29486,422.68504L431.8148,422.68504L431.8148,424.60525L431.33474,424.60525L431.33474,426.0454L430.85468,426.0454L430.85468,428.20563
				L430.37462,428.20563L430.37462,429.64578L429.89456,429.64578L429.89456,431.08594L429.41449,431.08594L429.41449,433.24617
				L428.6944,433.24617L428.6944,434.68632L428.21434,434.68632L428.21434,436.3665L427.73428,436.3665L427.73428,438.2867L427.25422,438.2867
				L427.25422,439.72686L427.73428,439.72686L427.73428,440.44693L429.41449,440.44693L429.41449,440.92699L430.85468,440.92699
				L430.85468,441.40704L432.29486,441.40704L432.29486,441.88709L433.97507,441.88709L433.97507,442.36714L435.41526,442.36714
				L435.41526,442.84719L436.85544,442.84719L436.85544,443.32724L439.01571,443.32724L439.01571,443.80729L440.4559,443.80729L
				440.4559,444.28734L441.89608,444.28734L441.89608,445.00742L443.57629,445.00742L443.57629,445.48747L445.01647,445.48747L445.01647,445.96752
				L446.45666,445.96752L446.45666,446.44757L447.65681,446.44757L447.65681,449.08786L447.17675,449.08786L447.17675,451.00806
				L446.45666,451.00806L446.45666,452.44821L445.9766,452.44821L445.9766,454.60844L445.49654,454.60844L445.49654,456.0486L445.01647,456.0486
				L445.01647,457.48875L444.53641,457.48875L444.53641,459.16893L444.05635,459.16893L444.05635,461.08913L443.57629,461.08913
				L443.57629,462.76931L443.09623,462.76931L443.09623,464.20947L442.61617,464.20947L442.61617,465.64962L441.89608,465.64962
				L441.89608,467.80985L441.41602,467.80985L441.41602,469.25L440.93596,469.25L440.93596,470.69016L440.4559,470.69016L440.4559,472.37034
				L439.97583,472.37034L439.97583,473.81049L439.49577,473.81049L439.49577,475.49067L439.01571,475.49067L439.01571,476.93082
				L438.53565,476.93082L438.53565,478.37098L437.81556,478.37098L437.81556,480.53121L437.3355,480.53121L437.3355,481.97136L436.85544,481.97136
				L436.85544,483.41151L436.37538,483.41151L436.37538,485.09169L435.89532,485.09169L435.89532,486.53185L435.41526,486.53185
				L435.41526,487.972L434.9352,487.972L434.9352,489.65218L434.45513,489.65218L434.45513,491.09233L433.97507,491.09233L433.97507,492.53249
				L433.25498,492.53249L433.25498,494.21266L432.77492,494.21266L432.77492,495.65282L432.29486,495.65282L432.29486,497.09297
				L431.8148,497.09297L431.8148,499.2532L431.33474,499.2532L431.33474,500.69335L430.85468,500.69335L430.85468,502.37353L430.37462,502.37353
				L430.37462,503.81369L429.89456,503.81369L429.89456,505.25384L429.41449,505.25384L429.41449,506.93402L428.6944,506.93402L
				428.6944,509.33428L428.21434,509.33428L428.21434,512.45461L427.73428,512.45461L427.73428,514.85486L427.25422,514.85486L427.25422,517.49515
				L426.77416,517.49515L426.77416,520.13543L426.2941,520.13543L426.2941,523.01573L425.81404,523.01573L425.81404,525.65601L425.33398,525.65601
				L425.33398,528.05627L424.61389,528.05627L424.61389,531.1766L424.13382,531.1766L424.13382,533.81688L423.65376,533.81688L423.65376,536.21714
				L423.1737,536.21714L423.1737,539.33747L422.69364,539.33747L422.69364,540.29758L423.65376,540.29758L423.65376,539.81752L424.13382,539.81752
				L424.13382,539.33747L424.61389,539.33747L424.61389,538.85742L425.33398,538.85742L425.33398,538.37737L425.81404,538.37737
				L425.81404,537.89732L426.77416,537.89732L426.77416,537.41727L427.25422,537.41727L427.25422,536.69719L427.73428,536.69719
				L427.73428,536.21714L428.21434,536.21714L428.21434,535.73709L428.6944,535.73709L428.6944,535.25704L429.89456,535.25704L429.89456,534.77699
				L430.37462,534.77699L430.37462,534.29694L430.85468,534.29694L430.85468,533.81688L431.33474,533.81688L431.33474,533.33683
				L431.8148,533.33683L431.8148,532.85678L432.77492,532.85678L432.77492,532.13671L433.25498,532.13671L433.25498,531.65665L433.97507,531.65665
				L433.97507,531.1766L434.45513,531.1766L434.45513,530.69655L434.9352,530.69655L434.9352,530.2165L435.89532,530.2165L435.89532,529.73645
				L436.37538,529.73645L436.37538,529.2564L436.85544,529.2564L436.85544,528.77635L437.3355,528.77635L437.3355,528.05627L437.81556,528.05627
				L437.81556,527.57622L439.01571,527.57622L439.01571,527.09617L439.49577,527.09617L439.49577,526.61612L439.97583,526.61612
				L439.97583,526.13607L440.4559,526.13607L440.4559,525.65601L440.93596,525.65601L440.93596,525.17596L440.4559,525.17596L440.4559,524.69591
				L439.97583,524.69591L439.97583,524.21586L439.49577,524.21586L439.49577,523.49578L439.01571,523.49578L439.01571,523.01573
				L438.53565,523.01573L438.53565,522.53568L437.81556,522.53568L437.81556,522.05563L436.85544,522.05563L436.85544,521.57558
				L436.37538,521.57558L436.37538,521.09553L435.89532,521.09553L435.89532,520.61548L435.41526,520.61548L435.41526,520.13543
				L434.9352,520.13543L434.9352,518.9353L435.41526,518.9353L435.41526,518.45525L435.89532,518.45525L435.89532,517.9752L436.37538,517.9752
				L436.37538,517.49515L437.3355,517.49515L437.3355,517.01509L437.81556,517.01509L437.81556,516.53504L438.53565,516.53504L438.53565,516.05499
				L439.01571,516.05499L439.01571,515.57494L439.97583,515.57494L439.97583,514.85486L440.4559,514.85486L440.4559,515.57494L440.93596,515.57494
				L440.93596,516.05499L441.89608,516.05499L441.89608,516.53504L442.61617,516.53504L442.61617,517.01509L443.09623,517.01509
				L443.09623,517.49515L443.57629,517.49515L443.57629,517.9752L444.05635,517.9752L444.05635,518.45525L444.53641,518.45525L444.53641,518.9353
				L445.01647,518.9353L445.01647,519.65538L445.49654,519.65538L445.49654,520.13543L445.9766,520.13543L445.9766,520.61548L446.45666,520.61548
				L446.45666,520.13543L447.17675,520.13543L447.17675,519.65538L447.65681,519.65538L447.65681,518.9353L448.13687,518.9353L448.13687,518.45525
				L448.61693,518.45525L448.61693,517.9752L449.57705,517.9752L449.57705,517.49515L450.05711,517.49515L450.05711,516.53504L449.57705,516.53504
				L449.57705,516.05499L449.09699,516.05499L449.09699,514.85486L448.61693,514.85486L448.61693,514.37481L448.13687,514.37481
				L448.13687,513.89476L448.61693,513.89476L448.61693,512.93466L449.09699,512.93466L449.09699,512.45461L448.13687,512.45461
				L448.13687,511.97456L447.65681,511.97456L447.65681,511.49451L447.17675,511.49451L447.17675,511.01445L445.9766,511.01445L
				445.9766,510.29438L445.49654,510.29438L445.49654,509.81433L445.01647,509.81433L445.01647,509.33428L445.49654,509.33428L445.49654,508.85422
				L445.9766,508.85422L445.9766,508.37417L446.45666,508.37417L446.45666,507.41407L445.9766,507.41407L445.9766,506.93402L445.49654,506.93402
				L445.49654,506.45397L445.01647,506.45397L445.01647,505.73389L444.53641,505.73389L444.53641,504.77379L445.49654,504.77379
				L445.49654,504.29374L446.45666,504.29374L446.45666,503.33364L445.9766,503.33364L445.9766,502.85359L445.49654,502.85359L445.49654,502.37353
				L445.01647,502.37353L445.01647,501.65346L444.53641,501.65346L444.53641,501.17341L444.05635,501.17341L444.05635,500.69335
				L443.57629,500.69335L443.57629,500.2133L443.09623,500.2133L443.09623,499.73325L442.61617,499.73325L442.61617,499.2532L443.09623,499.2532
				L443.09623,498.77315L443.57629,498.77315L443.57629,498.2931L444.05635,498.2931L444.05635,497.81305L444.53641,497.81305L444.53641,497.09297
				L445.01647,497.09297L445.01647,496.61292L445.49654,496.61292L445.49654,496.13287L445.9766,496.13287L445.9766,495.65282L446.45666,495.65282
				L446.45666,495.17277L447.17675,495.17277L447.17675,494.69272L448.13687,494.69272L448.13687,494.21266L448.61693,494.21266
				L448.61693,493.73261L449.09699,493.73261L449.09699,493.25256L449.57705,493.25256L449.57705,492.53249L450.05711,492.53249
				L450.05711,492.05243L450.53717,492.05243L450.53717,491.57238L451.01724,491.57238L451.01724,491.09233L451.73733,491.09233
				L451.73733,490.61228L452.21739,490.61228L452.21739,490.13223L452.69745,490.13223L452.69745,489.65218L453.17751,489.65218
				L453.17751,489.17213L453.65757,489.17213L453.65757,488.69208L455.81785,488.69208L455.81785,489.17213L457.73809,489.17213
				L457.73809,489.65218L459.17827,489.65218L459.17827,490.13223L461.81861,490.13223L461.81861,490.61228L462.77873,490.61228
				L462.77873,490.13223L463.25879,490.13223L463.25879,489.65218L463.73885,489.65218L463.73885,489.17213L464.21891,489.17213
				L464.21891,488.69208L464.939,488.69208L464.939,487.972L465.41906,487.972L465.41906,487.0119L465.89912,487.0119L465.89912,486.53185
				L466.37919,486.53185L466.37919,486.05179L467.33931,486.05179L467.33931,485.57174L467.81937,485.57174L467.81937,484.61164
				L468.29943,484.61164L468.29943,483.89156L469.01952,483.89156L469.01952,483.41151L469.49958,483.41151L469.49958,482.93146
				L469.97964,482.93146L469.97964,482.45141L470.4597,482.45141L470.4597,481.97136L470.93976,481.97136L470.93976,481.49131L471.41983,481.49131
				L471.41983,480.53121L471.89989,480.53121L471.89989,480.05116L472.37995,480.05116L472.37995,479.33108L472.86001,479.33108
				L472.86001,478.85103L473.5801,478.85103L473.5801,478.37098L474.06016,478.37098L474.06016,477.89092L474.54022,477.89092L474.54022,477.41087
				L475.02028,477.41087L475.02028,476.93082L475.50034,476.93082L475.50034,475.97072L475.9804,475.97072L475.9804,475.49067L476.46046,475.49067
				L476.46046,474.77059L476.94053,474.77059L476.94053,473.81049L477.42059,473.81049L477.42059,472.85039L478.14068,472.85039
				L478.14068,472.37034L478.62074,472.37034L478.62074,471.41023L479.1008,471.41023L479.1008,470.69016L479.58086,470.69016L479.58086,469.73006
				L480.06092,469.73006L480.06092,469.25L480.54098,469.25L480.54098,469.73006L482.70126,469.73006L482.70126,470.21011L484.14144,470.21011
				L484.14144,470.69016L485.58162,470.69016L485.58162,471.41023L487.7419,471.41023L487.7419,471.89029L489.18208,471.89029L489.18208,472.37034
				L490.62226,472.37034L490.62226,472.85039L493.2626,472.85039L493.2626,472.37034L493.74266,472.37034L493.74266,471.89029L494.22272,471.89029
				L494.22272,471.41023L494.70278,471.41023L494.70278,470.69016L495.18284,470.69016L495.18284,470.21011L495.90293,470.21011
				L495.90293,469.73006L496.38299,469.73006L496.38299,469.25L496.86305,469.25L496.86305,468.76995L497.34311,468.76995L497.34311,468.2899
				L497.82318,468.2899L497.82318,467.80985L498.30324,467.80985L498.30324,467.3298L500.46351,467.3298L500.46351,466.84975L502.38375,466.84975
				L502.38375,466.12967L526.3868,466.12967L526.3868,465.64962L527.82698,465.64962L527.82698,465.16957L528.78711,465.16957L528.78711,464.68952
				L529.26717,464.68952L529.26717,464.20947L529.74723,464.20947L529.74723,463.72942L530.22729,463.72942L530.22729,463.24936
				L531.42744,463.24936L531.42744,462.28926L530.94738,462.28926L530.94738,461.56919L529.26717,461.56919L529.26717,461.08913
				L527.82698,461.08913L527.82698,460.60908L528.30704,460.60908L528.30704,459.64898L528.78711,459.64898L528.78711,458.20883
				L529.26717,458.20883L529.26717,457.0087L530.22729,457.0087L530.22729,457.48875L531.42744,457.48875L531.42744,458.20883L532.38756,458.20883
				L532.38756,458.68888L533.82774,458.68888L533.82774,457.48875L534.30781,457.48875L534.30781,457.0087L533.82774,457.0087L533.82774,455.0885
				L533.34768,455.0885L533.34768,452.92826L532.86762,452.92826L532.86762,451.00806L532.38756,451.00806L532.38756,445.48747L
				532.86762,445.48747L532.86762,443.80729L533.34768,443.80729L533.34768,442.36714L533.82774,442.36714L533.82774,441.40704L
				534.30781,441.40704L534.30781,440.44693L534.78787,440.44693L534.78787,439.24681L535.50796,439.24681L535.50796,438.2867L535.98802,438.2867
				L535.98802,437.3266L536.46808,437.3266L536.46808,435.88645L536.94814,435.88645L536.94814,434.20627L537.4282,434.20627L537.4282,432.28607
				L537.90826,432.28607L537.90826,427.72558L538.38832,427.72558L538.38832,425.56535L538.86838,425.56535L538.86838,423.64514
				L539.58848,423.64514L539.58848,422.68504L540.06854,422.68504L540.06854,421.96497L540.5486,421.96497L540.5486,421.00486L541.02866,421.00486
				L541.02866,420.52481L541.50872,420.52481L541.50872,420.04476L541.98878,420.04476L541.98878,419.56471L542.46884,419.56471
				L542.46884,419.08466L542.9489,419.08466L542.9489,418.60461L543.42896,418.60461L543.42896,417.88453L544.14905,417.88453L544.14905,417.40448
				L544.62912,417.40448L544.62912,416.92443L545.10918,416.92443L545.10918,415.96433L545.58924,415.96433L545.58924,415.48427
				L546.0693,415.48427L546.0693,415.00422L546.54936,415.00422L546.54936,414.04412L547.02942,414.04412L547.02942,413.32404L547.50948,413.32404
				L547.50948,412.84399L547.98954,412.84399L547.98954,412.36394L548.70963,412.36394L548.70963,411.40384L549.18969,411.40384
				L549.18969,410.92379L548.70963,410.92379L548.70963,409.96369L547.98954,409.96369L547.98954,409.48364L547.50948,409.48364
				L547.50948,408.76356L547.02942,408.76356L547.02942,408.28351L546.54936,408.28351L546.54936,407.80346L546.0693,407.80346L
				546.0693,407.32341L545.58924,407.32341L545.58924,406.84335L545.10918,406.84335L545.10918,406.3633L544.62912,406.3633L544.62912,405.88325
				L544.14905,405.88325L544.14905,405.4032L543.42896,405.4032L543.42896,404.92315L542.9489,404.92315L542.9489,404.20307L542.46884,404.20307
				L542.46884,403.24297L542.9489,403.24297L542.9489,402.76292L543.42896,402.76292L543.42896,402.28287L544.14905,402.28287L544.14905,401.32277
				L544.62912,401.32277L544.62912,400.84271L545.10918,400.84271L545.10918,400.12264L544.62912,400.12264L544.62912,399.64259
				L544.14905,399.64259L544.14905,399.16254L543.42896,399.16254L543.42896,398.68248L542.46884,398.68248L542.46884,398.20243
				L541.98878,398.20243L541.98878,397.72238L541.50872,397.72238L541.50872,397.24233L541.02866,397.24233L541.02866,396.76228
				L540.06854,396.76228L540.06854,396.28223L539.58848,396.28223L539.58848,395.56215L538.86838,395.56215L538.86838,395.0821L
				537.90826,395.0821L537.90826,394.60205L537.4282,394.60205"/>
			<path clip-path="url(#SVG_CP_2)" fill="none" stroke="#999999" stroke-width="0.96012" stroke-miterlimit="10" stroke-linecap="round" stroke-linejoin="round" d="
				M537.4282,394.60205L537.4282,394.122L536.94814,394.122L536.94814,393.64195L535.98802,393.64195L535.98802,393.1619L535.50796,393.1619
				L535.50796,392.68185L534.78787,392.68185L534.78787,392.20179L533.82774,392.20179L533.82774,391.72174L533.34768,391.72174
				L533.34768,391.00167L532.86762,391.00167L532.86762,390.52161L532.38756,390.52161L532.38756,390.04156L531.42744,390.04156
				L531.42744,389.56151L530.94738,389.56151L530.94738,389.08146L530.22729,389.08146L530.22729,388.60141L529.26717,388.60141
				L529.26717,388.12136L528.78711,388.12136L528.78711,387.64131L528.30704,387.64131L528.30704,386.92123L527.34692,386.92123
				L527.34692,386.44118L526.86686,386.44118L526.86686,385.96113L526.3868,385.96113L526.3868,385.48108L525.18665,385.48108L525.18665,385.00103
				L524.70659,385.00103L524.70659,384.52098L523.74647,384.52098L523.74647,384.04092L523.2664,384.04092L523.2664,383.56087L522.78634,383.56087
				L522.78634,383.08082L521.58619,383.08082L521.58619,382.36075L521.10613,382.36075L521.10613,381.88069L520.14601,381.88069
				L520.14601,381.40064L519.66595,381.40064L519.66595,380.92059L519.18589,380.92059L519.18589,380.44054L518.22576,380.44054
				L518.22576,379.96049L517.7457,379.96049L517.7457,379.48044L516.54555,379.48044L516.54555,379.00039L516.06549,379.00039L516.06549,378.52034
				L515.10537,378.52034L515.10537,377.80026L514.62531,377.80026L514.62531,377.32021L513.66519,377.32021L513.66519,376.84016
				L513.18513,376.84016L513.18513,376.36011L511.98497,376.36011L511.98497,375.88005L511.50491,375.88005L511.50491,375.4L510.54479,375.4
				L510.54479,374.91995L510.06473,374.91995L510.06473,374.4399L509.10461,374.4399L509.10461,373.71982L508.38452,373.71982L508.38452,373.23977
				L507.42439,373.23977L507.42439,372.75972L506.94433,372.75972L506.94433,372.27967L505.98421,372.27967L505.98421,371.79962
				L505.50415,371.79962L505.50415,371.31957L504.54403,371.31957L504.54403,370.83952L503.82394,370.83952L503.82394,370.35947
				L502.86382,370.35947L502.86382,369.87942L502.38375,369.87942L502.38375,369.15934L501.42363,369.15934L501.42363,368.67929
				L500.94357,368.67929L500.94357,368.19924L499.98345,368.19924L499.98345,367.71918L499.26336,367.71918L499.26336,367.23913
				L498.30324,367.23913L498.30324,366.75908L497.82318,366.75908L497.82318,366.27903L496.86305,366.27903L496.86305,365.79898
				L496.38299,365.79898L496.38299,365.31893L495.18284,365.31893L495.18284,364.59885L494.70278,364.59885L494.70278,364.1188L
				493.74266,364.1188L493.74266,363.63875L493.2626,363.63875L493.2626,363.1587L492.30248,363.1587L492.30248,362.67865L491.82241,362.67865
				L491.82241,362.1986L490.62226,362.1986L490.62226,361.71855L490.1422,361.71855L490.1422,361.23849L489.18208,361.23849L489.18208,360.51842
				L488.70202,360.51842L488.70202,360.03837L487.7419,360.03837L487.7419,359.55832L487.26184,359.55832L487.26184,359.07826L486.06168,359.07826
				L486.06168,358.59821L485.58162,358.59821L485.58162,358.11816L484.6215,358.11816L484.6215,357.63811L484.14144,357.63811L484.14144,357.15806
				L483.18132,357.15806L483.18132,356.67801L482.70126,356.67801L482.70126,355.95793L481.5011,355.95793L481.5011,355.47788L480.54098,355.47788
				L480.54098,354.99783L480.06092,354.99783L480.06092,354.51778L479.1008,354.51778L479.1008,354.03773L478.14068,354.03773L478.14068,353.55768
				L477.42059,353.55768L477.42059,353.07762L476.46046,353.07762L476.46046,352.59757L475.50034,352.59757L475.50034,352.11752
				L475.02028,352.11752L475.02028,351.39745L474.06016,351.39745L474.06016,350.91739L472.86001,350.91739L472.86001,350.43734
				L472.37995,350.43734L472.37995,349.95729L471.41983,349.95729L471.41983,349.47724L470.4597,349.47724L470.4597,348.99719L469.97964,348.99719
				L469.97964,348.51714L469.01952,348.51714L469.01952,348.03709L467.81937,348.03709L467.81937,347.31701L467.33931,347.31701
				L467.33931,346.83696L466.37919,346.83696L466.37919,346.35691L465.41906,346.35691L465.41906,345.87686L464.939,345.87686L464.939,345.39681
				L463.73885,345.39681L463.73885,344.91676L462.77873,344.91676L462.77873,344.4367L462.29867,344.4367L462.29867,343.95665L461.33855,343.95665
				L461.33855,343.4766L460.37842,343.4766L460.37842,342.75652L459.65833,342.75652L459.65833,342.27647L458.69821,342.27647L458.69821,341.79642
				L457.73809,341.79642L457.73809,341.31637L456.77797,341.31637L456.77797,340.83632L456.29791,340.83632L456.29791,340.35627
				L455.09775,340.35627L455.09775,339.87622L454.13763,339.87622L454.13763,339.39617L453.65757,339.39617L453.65757,338.91612
				L452.69745,338.91612L452.69745,339.39617L451.01724,339.39617L451.01724,339.87622L450.05711,339.87622L450.05711,340.35627
				L448.61693,340.35627L448.61693,340.83632L447.17675,340.83632L447.17675,341.31637L445.9766,341.31637L445.9766,341.79642L444.53641,341.79642
				L444.53641,342.27647L443.09623,342.27647L443.09623,342.75652L441.89608,342.75652L441.89608,343.4766L440.4559,343.4766L440.4559,343.95665
				L439.49577,343.95665L439.49577,344.4367L437.81556,344.4367L437.81556,344.91676L436.37538,344.91676L436.37538,345.39681L435.41526,345.39681
				L435.41526,345.87686L433.97507,345.87686L433.97507,346.35691L432.29486,346.35691L432.29486,346.83696L431.33474,346.83696
				L431.33474,347.31701L429.89456,347.31701L429.89456,348.03709L428.6944,348.03709L428.6944,349.47724L428.21434,349.47724L428.21434,353.55768
				L427.73428,353.55768L427.73428,357.15806L427.25422,357.15806L427.25422,360.03837L426.77416,360.03837L426.77416,363.1587L
				426.2941,363.1587L426.2941,363.63875L281.55573,363.63875L281.55573,363.1587L154.09956,363.1587L154.09956,352.11752L153.6195,352.11752
				L153.6195,348.03709L153.13943,348.03709L153.13943,343.95665L152.65937,343.95665L152.65937,339.87622L152.17931,339.87622L
				152.17931,336.27583L151.69925,336.27583L151.69925,332.1954L150.97916,332.1954L150.97916,328.59502L150.4991,328.59502L150.4991,324.51458
				L150.01904,324.51458L150.01904,321.15422L149.53898,321.15422L149.53898,317.07379L149.05892,317.07379L149.05892,313.4734L
				148.57886,313.4734L148.57886,309.39297L148.09879,309.39297L148.09879,305.79259L147.61873,305.79259L147.61873,303.1523L147.13867,303.1523
				L147.13867,302.67225L146.41858,302.67225L146.41858,302.1922L145.93852,302.1922L145.93852,301.71215L144.49834,301.71215L144.49834,302.1922
				L142.33806,302.1922L142.33806,302.67225L140.41782,302.67225L140.41782,303.1523L138.49758,303.1523L138.49758,303.87238L136.3373,303.87238
				L136.3373,304.35243L134.41706,304.35243L134.41706,304.83248L130.33654,304.83248L130.33654,305.31253L125.2959,305.31253L125.2959,305.79259
				L120.73532,305.79259L120.73532,306.27264L118.57505,306.27264L118.57505,306.75269L116.6548,306.75269L116.6548,307.23274L114.49453,307.23274
				L114.49453,307.95282L112.57429,307.95282L112.57429,308.43287L110.41401,308.43287L110.41401,308.91292L108.49377,308.91292
				L108.49377,309.39297L106.33349,309.39297L106.33349,309.87302L104.41325,309.87302L104.41325,310.35307L102.25298,310.35307
				L102.25298,310.83312L100.33273,310.83312L100.33273,311.31317L98.17246,311.31317L98.17246,311.79323L96.25222,311.79323L96.25222,312.5133
				L94.33197,312.5133L94.33197,312.99335L92.1717,312.99335L92.1717,313.4734L90.25145,313.4734L90.25145,313.95346L89.77139,313.95346
				L89.77139,314.43351L89.0513,314.43351L89.0513,315.39361L87.61112,315.39361L87.61112,315.87366L85.69087,315.87366L85.69087,316.35371
				L83.5306,316.35371L83.5306,317.07379L81.61036,317.07379L81.61036,317.55384L79.45008,317.55384L79.45008,318.03389L77.52984,318.03389
				L77.52984,318.51394L75.36957,318.51394L75.36957,318.99399L73.44932,318.99399L73.44932,319.47404L71.28905,319.47404L71.28905,319.9541
				L69.3688,319.9541L69.3688,320.43415L67.20853,320.43415L67.20853,321.15422L65.28829,321.15422L65.28829,321.63427L63.36804,321.63427
				L63.36804,322.11433L61.20777,322.11433L61.20777,322.59438L59.28752,322.59438L59.28752,323.07443L57.12725,323.07443L57.12725,323.55448
				L55.68707,323.55448L55.68707,324.99463L56.16713,324.99463L56.16713,327.15486L56.64719,327.15486L56.64719,329.07507L57.12725,329.07507
				L57.12725,331.2353L57.60731,331.2353L57.60731,331.71535L57.12725,331.71535L57.12725,332.1954L56.64719,332.1954L56.64719,332.67545
				L56.16713,332.67545L56.16713,333.1555L55.68707,333.1555L55.68707,333.63555L55.20701,333.63555L55.20701,334.35563L54.72695,334.35563
				L54.72695,334.83568L54.00685,334.83568L54.00685,335.31573L53.52679,335.31573L53.52679,335.79578L53.04673,335.79578L53.04673,336.27583
				L52.08661,336.27583L52.08661,336.75589L51.60655,336.75589L51.60655,337.23594L51.12649,337.23594L51.12649,337.71599L50.64643,337.71599
				L50.64643,338.19604L50.16637,338.19604L50.16637,338.91612L49.44628,338.91612L49.44628,339.39617L48.96621,339.39617L48.96621,339.87622
				L48.48615,339.87622L48.48615,340.35627L48.00609,340.35627L48.00609,340.83632L47.52603,340.83632L47.52603,341.31637L47.04597,341.31637
				L47.04597,341.79642L46.56591,341.79642L46.56591,301.2321L549.66976,301.2321L549.66976,540.77763"/>
		</g>
</g></svg>