<?xml version="1.0" encoding="utf-8" standalone="no"?>
<!-- Creator: ESRI ArcMap 10.0.0.2414 -->
<!DOCTYPE svg PUBLIC "-//W3C//DTD SVG 1.1//EN"  "http://www.w3.org/Graphics/SVG/1.1/DTD/svg11.dtd">
<svg width="524.0420768pt" height="555.663631913pt" viewBox="32.15712744 143.297319043 524.0420768 555.663631913" enable-background="new 32.15712744 143.297319043 524.0420768 555.663631913"
	version="1.1" xmlns="http://www.w3.org/2000/svg" xmlns:xlink="http://www.w3.org/1999/xlink" >
	<g id="Couches">
		<g id="reservoirs">
			<clipPath id="SVG_CP_2">
				<path d="M574.39289,21.36228L21.36271,21.36228L21.36271,821.36753L574.39289,821.36753L574.39289,21.36228z"/>
			</clipPath>
			<path clip-path="url(#SVG_CP_2)" fill-opacity="0.2" fill="#2f4493" fill-rule="evenodd" stroke="#2f4493" stroke-width="1" stra="1.44018" stroke-miterlimit="10" stroke-linecap="round" stroke-linejoin="round" d="
				M474.06016,548.69847L481.02104,554.21906L486.06168,551.8188L496.38299,559.49962L497.10308,557.81944L498.7833,554.45908L500.94357,550.61867
				L505.74418,555.17916L510.30476,557.57942L511.98497,558.29949L511.74494,560.2197L512.46503,562.1399L512.46503,562.61995L512.46503,562.85998
				L512.225,563.82008L511.98497,563.82008L511.26488,565.26024L511.74494,566.46036L514.14525,568.38057L514.14525,569.34067L515.10537,570.5408
				L516.54555,571.74093L517.50567,571.98095L518.94586,571.74093L519.90598,571.98095L521.34616,572.70103L524.22653,575.82136
				L526.86686,573.4211L527.82698,574.38121L528.30704,575.10128L528.54707,578.46164L529.02714,582.30205L529.02714,582.54208L
				529.02714,588.06266L539.58848,589.26279L547.98954,590.94297L549.18969,590.94297L549.18969,592.86318L547.26945,595.98351L
				545.34921,599.82392L543.18893,603.18428L533.10765,618.06586L533.82774,625.26663L529.5072,629.82712L526.86686,630.06714L524.70659,633.4275
				L519.42592,635.82775L516.78558,636.78786L511.98497,640.86829L507.66442,646.14885L504.54403,651.42942L499.02333,668.23121
				L488.46199,686.47315L473.34007,674.7119L443.09623,656.46995L423.41373,644.46868L408.05178,634.62763L424.61389,616.38568L
				436.13535,603.90435L439.7358,600.30397L450.29714,594.54336L456.05788,592.1431L457.49806,589.02277L458.69821,579.18172L464.69897,563.82008
				L474.06016,548.69847z"/>
			<path clip-path="url(#SVG_CP_2)" fill-opacity="0.2" fill="#2f4493" fill-rule="evenodd" stroke="#2f4493" stroke-width="1" stra="1.44018" stroke-miterlimit="10" stroke-linecap="round" stroke-linejoin="round" d="
				M130.57657,157.93683L137.53745,162.73734L140.65785,156.25665L142.33806,157.45678L145.45846,158.65691L140.89788,165.61765
				L147.61873,169.21803L149.05892,168.25793L150.73913,168.0179L153.6195,165.37762L153.6195,164.41752L154.09956,163.21739L154.81965,162.25729
				L156.97992,161.53721L157.21995,161.53721L158.18007,161.77724L159.62026,162.49732L160.34035,163.21739L162.02056,165.1376L
				168.74141,166.81778L170.66166,166.0977L175.22224,166.0977L177.86257,166.0977L180.02285,167.53785L181.94309,168.25793L183.14324,168.97801
				L183.6233,171.13824L183.86333,173.53849L185.78358,174.25857L187.46379,174.4986L188.66394,173.29847L189.38403,173.29847L194.90473,175.69872
				L196.10489,176.4188L197.7851,177.61893L198.74522,178.339L189.86409,192.50051L187.46379,192.98056L184.34339,193.22059L181.94309,194.18069
				L179.54278,195.14079L177.62254,196.58095L176.18236,198.0211L175.22224,199.22123L174.26211,200.42136L172.10184,203.30166L
				170.1816,204.98184L172.5819,207.3821L174.02208,208.82225L177.38251,204.74182L178.1026,204.02174L182.18312,204.98184L180.98297,206.18197
				L180.50291,207.3821L181.70306,208.3422L177.86257,212.66266L173.30199,220.34348L166.34111,231.14463L162.26059,237.86535L160.58038,240.74565
				L160.34035,240.98568L159.62026,244.34604L159.86029,247.46637L161.06044,250.5867L164.18084,253.22698L166.34111,254.66714L
				180.98297,261.14783L181.46303,265.46829L181.94309,268.3486L171.86181,299.55192L169.46151,301.71215L165.38099,303.1523L175.22224,317.07379
				L175.46227,320.67417L177.38251,320.9142L178.1026,321.15422L178.82269,321.8743L179.54278,322.59438L179.78282,324.51458L179.54278,325.71471
				L182.18312,326.19476L185.54355,326.67481L187.70382,327.87494L191.54431,330.27519L195.14476,332.43543L197.54507,333.39553
				L198.50519,333.39553L200.42544,332.91548L201.38556,332.67545L201.62559,332.67545L201.86562,332.67545L202.82574,333.87558
				L205.46607,335.79578L211.46684,339.87622L218.18769,342.03645L218.90778,342.27647L219.62787,342.99655L221.06805,344.67673
				L221.06805,344.91676L222.02818,346.35691L223.22833,347.79706L224.66851,348.27711L224.90854,348.27711L226.10869,348.51714
				L226.58876,348.03709L228.74903,346.59693L234.50976,341.07635L240.03046,336.27583L239.31037,333.39553L235.46988,327.87494
				L239.07034,327.63491L241.47064,326.19476L244.83107,322.59438L247.23137,321.15422L247.95147,313.95346L247.95147,304.59246
				L251.55192,306.27264L254.43229,309.15294L255.15238,309.87302L253.7122,321.63427L253.7122,326.67481L254.19226,329.07507L254.43229,331.47532
				L255.39241,334.1156L257.55268,339.39617L258.99287,342.75652L261.39317,346.11688L264.51357,349.95729L269.79424,355.47788L
				274.83488,361.23849L275.55497,362.43862L275.795,363.63875L271.95451,364.35883L271.23442,366.03901L269.55421,367.71918L264.99363,370.59949
				L260.67308,372.5197L260.91311,375.15998L261.87323,376.84016L276.51509,372.03965L289.47674,381.64067L298.59789,393.40192L
				311.55954,413.56407L294.99744,422.92507L280.83564,418.12456L279.63549,408.52353L268.11402,390.76164L269.07415,401.32277L
				264.99363,403.96305L264.51357,405.4032L263.07339,408.52353L260.91311,411.64387L257.79272,416.20435L261.87323,422.92507L264.27354,426.76548
				L261.15314,430.36586L244.35101,450.52801L236.67003,461.32916L225.86866,452.68824L221.06805,448.84783L209.54659,437.80665
				L198.26516,430.84591L190.10413,425.80537L187.70382,424.1252L185.78358,422.44502L176.42239,412.36394L141.13791,373.95985L
				138.73761,370.59949L138.25755,368.67929L137.77748,366.75908L137.29742,360.75844L136.81736,355.95793L136.3373,354.27775L135.37718,351.39745
				L132.97688,348.75716L122.8956,337.71599L117.61493,331.95537L114.97459,329.55512L111.37413,327.87494L110.17398,327.87494L
				106.81356,327.63491L99.61264,328.35499L95.29209,328.59502L84.97078,329.07507L83.5306,329.31509L81.1303,329.55512L79.69011,330.03517
				L78.0099,331.2353L74.64947,333.39553L74.16941,333.63555L73.20929,333.87558L72.00914,333.39553L71.04902,333.1555L69.84886,333.39553
				L68.16865,332.1954L63.12801,335.55576L62.40792,334.35563L60.24765,333.63555L56.40716,334.83568L54.72695,335.79578L46.56591,318.51394
				L51.84658,296.43159L53.76682,287.55064L55.68707,277.94962L63.12801,246.98632L64.56819,240.74565L64.80822,239.54553L70.08889,213.86279
				L73.20929,197.54105L74.40944,191.54041L79.69011,166.33773L93.61188,162.25729L108.25374,158.17686L104.65328,164.1775L115.69468,171.85831
				L119.29514,165.61765L120.73532,163.21739L122.8956,159.13696L125.2959,156.01663L128.17627,156.01663L130.57657,157.93683z"/>
		</g>
</g></svg>