<?xml version="1.0" encoding="utf-8" standalone="no"?>
<!-- Creator: ESRI ArcMap 10.0.0.2414 -->
<!DOCTYPE svg PUBLIC "-//W3C//DTD SVG 1.1//EN"  "http://www.w3.org/Graphics/SVG/1.1/DTD/svg11.dtd">
<svg width="524.0420768pt" height="214.04568309pt" viewBox="32.15712744 314.106293455 524.0420768 214.04568309" enable-background="new 32.15712744 314.106293455 524.0420768 214.04568309"
	version="1.1" xmlns="http://www.w3.org/2000/svg" xmlns:xlink="http://www.w3.org/1999/xlink" >
	<g id="Couches">
		<g id="cont_1">
			<clipPath id="SVG_CP_2">
				<path d="M574.39289,21.36228L21.36271,21.36228L21.36271,821.36753L574.39289,821.36753L574.39289,21.36228z"/>
			</clipPath>
			<path clip-path="url(#SVG_CP_2)" fill="none" stroke="#999999" stroke-width="0.96012" stroke-miterlimit="10" stroke-linecap="round" stroke-linejoin="round" d="
				M48.96621,523.49578L46.56591,523.49578L46.56591,488.45205L46.80594,488.45205L46.80594,491.33236L47.04597,491.33236L47.04597,493.97264
				L47.286,493.97264L47.286,496.85295L47.52603,496.85295L47.52603,499.49323L47.76606,499.49323L47.76606,521.81561L48.00609,521.81561
				L48.00609,522.77571L48.24612,522.77571L48.24612,523.25576L48.96621,523.25576L48.96621,523.49578"/>
			<path clip-path="url(#SVG_CP_2)" fill="none" stroke="#999999" stroke-width="0.96012" stroke-miterlimit="10" stroke-linecap="round" stroke-linejoin="round" d="
				M363.16609,388.12136L362.446,388.12136L362.446,388.36138L362.20597,388.36138L362.20597,388.84144L361.96594,388.84144L361.96594,389.08146
				L361.7259,389.08146L361.7259,389.32149L361.48587,389.32149L361.48587,389.56151L361.24584,389.56151L361.24584,389.80154L360.76578,389.80154
				L360.76578,390.04156L360.52575,390.04156L360.52575,390.28159L360.28572,390.28159L360.28572,390.52161L360.04569,390.52161
				L360.04569,390.76164L359.80566,390.76164L359.80566,391.00167L359.56563,391.00167L359.56563,391.24169L359.3256,391.24169L
				359.3256,391.48172L359.08557,391.48172L359.08557,391.72174L358.60551,391.72174L358.60551,391.96177L358.36548,391.96177L358.36548,392.20179
				L358.12545,392.20179L358.12545,392.44182L357.88542,392.44182L357.88542,392.68185L357.64539,392.68185L357.64539,392.92187
				L357.40536,392.92187L357.40536,393.1619L356.9253,393.1619L356.9253,393.40192L356.68526,393.40192L356.68526,393.64195L356.44523,393.64195
				L356.44523,393.88197L356.2052,393.88197L356.2052,394.122L355.72514,394.122L355.72514,394.36202L355.48511,394.36202L355.48511,394.60205
				L355.24508,394.60205L355.24508,395.0821L355.00505,395.0821L355.00505,395.32213L354.52499,395.32213L354.52499,395.56215L354.28496,395.56215
				L354.28496,395.80218L354.04493,395.80218L354.04493,396.0422L353.8049,396.0422L353.8049,396.28223L353.56487,396.28223L353.56487,396.52225
				L353.32484,396.52225L353.32484,396.76228L353.08481,396.76228L353.08481,397.00231L352.60475,397.00231L352.60475,397.24233
				L352.36472,397.24233L352.36472,397.48236L352.12469,397.48236L352.12469,397.72238L351.88466,397.72238L351.88466,397.96241
				L351.64463,397.96241L351.64463,398.20243L351.40459,398.20243L351.40459,398.44246L351.16456,398.44246L351.16456,398.68248
				L350.92453,398.68248L350.92453,398.92251L350.6845,398.92251L350.6845,399.16254L350.44447,399.16254L350.44447,399.40256L350.20444,399.40256
				L350.20444,399.64259L349.96441,399.64259L349.96441,399.88261L349.72438,399.88261L349.72438,400.12264L349.24432,400.12264
				L349.24432,400.36266L349.00429,400.36266L349.00429,400.60269L348.76426,400.60269L348.76426,400.84271L348.52423,400.84271
				L348.52423,401.08274L348.04417,401.08274L348.04417,401.56279L347.80414,401.56279L347.80414,401.80282L347.56411,401.80282
				L347.56411,402.04284L347.32408,402.04284L347.32408,402.28287L347.08405,402.28287L347.08405,402.52289L346.84402,402.52289
				L346.84402,402.76292L346.60399,402.76292L346.60399,403.00294L346.36396,403.00294L346.36396,403.24297L346.12392,403.24297
				L346.12392,403.483L345.88389,403.483L345.88389,403.72302L345.64386,403.72302L345.64386,403.96305L345.40383,403.96305L345.40383,404.20307
				L345.1638,404.20307L345.1638,404.4431L344.92377,404.4431L344.92377,404.68312L344.68374,404.68312L344.68374,404.92315L344.44371,404.92315
				L344.44371,405.16318L344.20368,405.16318L344.20368,405.4032L343.96365,405.4032L343.96365,405.64323L343.72362,405.64323L343.72362,405.88325
				L343.48359,405.88325L343.48359,406.12328L343.24356,406.12328L343.24356,406.3633L343.00353,406.3633L343.00353,406.60333L342.7635,406.60333
				L342.7635,406.84335L342.52347,406.84335L342.52347,407.08338L342.28344,407.08338L342.28344,407.32341L341.80338,407.32341L
				341.80338,407.80346L341.56335,407.80346L341.56335,408.04348L341.32332,408.04348L341.32332,408.28351L341.08328,408.28351L
				341.08328,408.52353L340.84325,408.52353L340.84325,408.76356L340.60322,408.76356L340.60322,409.00358L340.36319,409.00358L
				340.36319,409.24361L340.12316,409.24361L340.12316,409.48364L339.88313,409.48364L339.88313,409.72366L339.6431,409.72366L339.6431,409.96369
				L339.40307,409.96369L339.40307,410.20371L339.16304,410.20371L339.16304,410.44374L338.92301,410.44374L338.92301,410.68376
				L338.68298,410.68376L338.68298,410.92379L338.44295,410.92379L338.44295,411.16381L338.20292,411.16381L338.20292,411.40384
				L337.96289,411.40384L337.96289,411.64387L337.72286,411.64387L337.72286,411.88389L337.48283,411.88389L337.48283,412.12392
				L337.2428,412.12392L337.2428,412.36394L337.00277,412.36394L337.00277,412.60397L336.76274,412.60397L336.76274,412.84399L336.52271,412.84399
				L336.52271,413.08402L336.28268,413.08402L336.28268,413.32404L336.04265,413.32404L336.04265,413.56407L335.56258,413.56407
				L335.56258,414.04412L335.32255,414.04412L335.32255,414.28415L335.08252,414.28415L335.08252,414.52417L334.84249,414.52417
				L334.84249,414.7642L334.60246,414.7642L334.60246,415.00422L334.36243,415.00422L334.36243,415.24425L334.1224,415.24425L334.1224,415.48427
				L333.88237,415.48427L333.88237,415.7243L333.64234,415.7243L333.64234,415.96433L333.40231,415.96433L333.40231,416.20435L333.16228,416.20435
				L333.16228,416.44438L332.68222,416.44438L332.68222,416.6844L332.44219,416.6844L332.44219,416.92443L331.96213,416.92443L331.96213,417.16445
				L331.7221,417.16445L331.7221,417.40448L331.24204,417.40448L331.24204,417.64451L331.00201,417.64451L331.00201,417.88453L330.76198,417.88453
				L330.76198,418.12456L330.28191,418.12456L330.28191,418.36458L330.04188,418.36458L330.04188,418.60461L329.56182,418.60461
				L329.56182,418.84463L329.08176,418.84463L329.08176,419.08466L328.84173,419.08466L328.84173,419.32468L328.36167,419.32468
				L328.36167,419.56471L328.12164,419.56471L328.12164,419.80474L327.64158,419.80474L327.64158,420.04476L327.40155,420.04476
				L327.40155,420.52481L327.16152,420.52481L327.16152,420.76484L326.68146,420.76484L326.68146,421.00486L326.44143,421.00486
				L326.44143,421.24489L325.96137,421.24489L325.96137,421.48491L325.72134,421.48491L325.72134,421.72494L325.24127,421.72494
				L325.24127,421.96497L325.00124,421.96497L325.00124,422.20499L324.76121,422.20499L324.76121,422.44502L324.28115,422.44502
				L324.28115,422.68504L324.04112,422.68504L324.04112,422.92507L323.56106,422.92507L323.56106,423.16509L323.32103,423.16509
				L323.32103,423.40512L322.84097,423.40512L322.84097,423.64514L322.36091,423.64514L322.36091,423.88517L322.12088,423.88517
				L322.12088,424.1252L321.64082,424.1252L321.64082,424.36522L321.40079,424.36522L321.40079,424.60525L321.16076,424.60525L321.16076,424.84527
				L320.6807,424.84527L320.6807,425.0853L320.44067,425.0853L320.44067,425.32532L319.9606,425.32532L319.9606,425.56535L319.72057,425.56535
				L319.72057,425.80537L319.24051,425.80537L319.24051,426.0454L319.00048,426.0454L319.00048,426.28543L318.76045,426.28543L318.76045,426.76548
				L318.28039,426.76548L318.28039,427.0055L318.04036,427.0055L318.04036,427.24553L317.5603,427.24553L317.5603,427.48555L317.32027,427.48555
				L317.32027,427.72558L317.08024,427.72558L317.08024,427.9656L316.36015,427.9656L316.36015,428.20563L316.12012,428.20563L316.12012,428.44566
				L315.64006,428.44566L315.64006,428.68568L315.40003,428.68568L315.40003,428.92571L315.16,428.92571L315.16,429.16573L314.67993,429.16573
				L314.67993,429.40576L314.4399,429.40576L314.4399,429.64578L313.95984,429.64578L313.95984,429.88581L313.71981,429.88581L313.71981,430.12584
				L313.23975,430.12584L313.23975,430.36586L312.99972,430.36586L312.99972,430.60589L312.75969,430.60589L312.75969,430.84591
				L312.27963,430.84591L312.27963,431.08594L312.0396,431.08594L312.0396,431.80601L312.27963,431.80601L312.27963,431.56599L312.51966,431.56599
				L312.51966,432.04604L312.75969,432.04604L312.75969,431.80601L313.23975,431.80601L313.23975,431.56599L313.71981,431.56599
				L313.71981,431.32596L314.19987,431.32596L314.19987,431.08594L314.67993,431.08594L314.67993,430.84591L315.16,430.84591L315.16,430.60589
				L315.64006,430.60589L315.64006,430.36586L316.12012,430.36586L316.12012,430.12584L316.60018,430.12584L316.60018,429.88581
				L317.32027,429.88581L317.32027,429.64578L317.80033,429.64578L317.80033,429.40576L318.28039,429.40576L318.28039,429.16573
				L318.76045,429.16573L318.76045,428.92571L319.24051,428.92571L319.24051,428.68568L319.72057,428.68568L319.72057,428.44566
				L319.9606,428.44566L319.9606,428.20563L320.44067,428.20563L320.44067,427.9656L320.6807,427.9656L320.6807,427.72558L320.92073,427.72558
				L320.92073,427.48555L321.40079,427.48555L321.40079,427.24553L321.64082,427.24553L321.64082,427.0055L322.12088,427.0055L322.12088,426.76548
				L322.36091,426.76548L322.36091,426.28543L322.84097,426.28543L322.84097,426.0454L323.32103,426.0454L323.32103,425.80537L323.56106,425.80537
				L323.56106,425.56535L324.04112,425.56535L324.04112,425.32532L324.28115,425.32532L324.28115,425.0853L324.76121,425.0853L324.76121,424.84527
				L325.00124,424.84527L325.00124,424.60525L325.48131,424.60525L325.48131,424.36522L325.72134,424.36522L325.72134,424.1252L
				325.96137,424.1252L325.96137,423.88517L326.44143,423.88517L326.44143,423.64514L326.68146,423.64514L326.68146,423.40512L327.16152,423.40512
				L327.16152,423.16509L327.40155,423.16509L327.40155,422.92507L327.88161,422.92507L327.88161,422.68504L328.12164,422.68504
				L328.12164,422.44502L328.36167,422.44502L328.36167,422.20499L328.6017,422.20499L328.6017,421.96497L328.84173,421.96497L328.84173,421.72494
				L329.08176,421.72494L329.08176,421.48491L329.56182,421.48491L329.56182,421.24489L329.80185,421.24489L329.80185,421.00486
				L330.04188,421.00486L330.04188,420.76484L330.28191,420.76484L330.28191,420.52481L330.52194,420.52481L330.52194,420.04476
				L330.76198,420.04476L330.76198,419.80474L331.00201,419.80474L331.00201,419.56471L331.24204,419.56471L331.24204,419.32468
				L331.48207,419.32468L331.48207,419.08466L331.7221,419.08466L331.7221,418.84463L331.96213,418.84463L331.96213,418.60461L332.20216,418.60461
				L332.20216,418.36458L332.44219,418.36458L332.44219,418.12456L332.68222,418.12456L332.68222,417.88453L332.92225,417.88453
				L332.92225,417.64451L333.16228,417.64451L333.16228,417.40448L333.40231,417.40448L333.40231,417.16445L333.64234,417.16445
				L333.64234,416.92443L333.88237,416.92443L333.88237,416.6844L334.1224,416.6844L334.1224,416.44438L334.36243,416.44438L334.36243,416.20435
				L334.60246,416.20435L334.60246,415.96433L334.84249,415.96433L334.84249,415.7243L335.08252,415.7243L335.08252,415.48427L335.32255,415.48427
				L335.32255,415.24425L335.56258,415.24425L335.56258,415.00422L336.04265,415.00422L336.04265,414.7642L336.28268,414.7642L336.28268,414.52417
				L336.52271,414.52417L336.52271,414.28415L336.76274,414.28415L336.76274,414.04412L337.00277,414.04412L337.00277,413.56407
				L337.2428,413.56407L337.2428,413.32404L337.48283,413.32404L337.48283,413.08402L337.72286,413.08402L337.72286,412.84399L337.96289,412.84399
				L337.96289,412.60397L338.20292,412.60397L338.20292,412.36394L338.44295,412.36394L338.44295,412.12392L338.68298,412.12392
				L338.68298,411.88389L338.92301,411.88389L338.92301,411.64387L339.16304,411.64387L339.16304,411.40384L339.40307,411.40384
				L339.40307,411.16381L339.6431,411.16381L339.6431,410.92379L339.88313,410.92379L339.88313,410.68376L340.12316,410.68376L340.12316,410.44374
				L340.36319,410.44374L340.36319,410.20371L340.60322,410.20371L340.60322,409.96369L340.84325,409.96369L340.84325,409.72366
				L341.08328,409.72366L341.08328,409.48364L341.32332,409.48364L341.32332,409.24361L341.56335,409.24361L341.56335,409.00358
				L341.80338,409.00358L341.80338,408.76356L342.28344,408.76356L342.28344,408.52353L342.52347,408.52353L342.52347,408.28351
				L342.7635,408.28351L342.7635,408.04348L343.00353,408.04348L343.00353,407.80346L343.24356,407.80346L343.24356,407.32341L343.48359,407.32341
				L343.48359,407.08338L343.72362,407.08338L343.72362,406.84335L343.96365,406.84335L343.96365,406.60333L344.20368,406.60333
				L344.20368,406.3633L344.44371,406.3633L344.44371,406.12328L344.68374,406.12328L344.68374,405.88325L344.92377,405.88325L344.92377,405.64323
				L345.1638,405.64323L345.1638,405.4032L345.40383,405.4032L345.40383,405.16318L345.64386,405.16318L345.64386,404.92315L345.88389,404.92315
				L345.88389,404.68312L346.12392,404.68312L346.12392,404.4431L346.36396,404.4431L346.36396,404.20307L346.60399,404.20307L346.60399,403.96305
				L346.84402,403.96305L346.84402,403.72302L347.08405,403.72302L347.08405,403.483L347.32408,403.483L347.32408,403.24297L347.56411,403.24297
				L347.56411,403.00294L347.80414,403.00294L347.80414,402.76292L348.04417,402.76292L348.04417,402.52289L348.52423,402.52289
				L348.52423,402.28287L348.76426,402.28287L348.76426,402.04284L349.00429,402.04284L349.00429,401.80282L349.24432,401.80282
				L349.24432,401.56279L349.48435,401.56279L349.48435,401.08274L349.72438,401.08274L349.72438,400.84271L349.96441,400.84271
				L349.96441,400.60269L350.20444,400.60269L350.20444,400.36266L350.44447,400.36266L350.44447,400.12264L350.6845,400.12264L
				350.6845,399.88261L350.92453,399.88261L350.92453,399.64259L351.16456,399.64259L351.16456,399.40256L351.40459,399.40256L351.40459,399.16254
				L351.64463,399.16254L351.64463,398.92251L351.88466,398.92251L351.88466,398.68248L352.12469,398.68248L352.12469,398.44246
				L352.36472,398.44246L352.36472,398.20243L352.60475,398.20243L352.60475,397.96241L352.84478,397.96241L352.84478,397.72238
				L353.08481,397.72238L353.08481,397.48236L353.32484,397.48236L353.32484,397.24233L353.56487,397.24233L353.56487,397.00231
				L353.8049,397.00231L353.8049,396.76228L354.04493,396.76228L354.04493,396.52225L354.28496,396.52225L354.28496,396.28223L354.52499,396.28223
				L354.52499,396.0422L355.00505,396.0422L355.00505,395.80218L355.24508,395.80218L355.24508,395.56215L355.48511,395.56215L355.48511,395.32213
				L355.72514,395.32213L355.72514,395.0821L355.96517,395.0821L355.96517,394.60205L356.2052,394.60205L356.2052,394.36202L356.44523,394.36202
				L356.44523,394.122L356.68526,394.122L356.68526,393.88197L356.9253,393.88197L356.9253,393.64195L357.16533,393.64195L357.16533,393.40192
				L357.40536,393.40192L357.40536,393.1619L357.88542,393.1619L357.88542,392.92187L358.12545,392.92187L358.12545,392.68185L358.36548,392.68185
				L358.36548,392.44182L358.60551,392.44182L358.60551,392.20179L358.84554,392.20179L358.84554,391.96177L359.08557,391.96177
				L359.08557,391.72174L359.3256,391.72174L359.3256,391.48172L359.56563,391.48172L359.56563,391.24169L359.80566,391.24169L359.80566,391.00167
				L360.04569,391.00167L360.04569,390.76164L360.28572,390.76164L360.28572,390.52161L360.52575,390.52161L360.52575,390.28159
				L360.76578,390.28159L360.76578,390.04156L361.24584,390.04156L361.24584,389.80154L361.48587,389.80154L361.48587,389.56151
				L361.7259,389.56151L361.7259,389.32149L362.20597,389.32149L362.20597,389.08146L362.68603,389.08146L362.68603,388.84144L362.92606,388.84144
				L362.92606,388.36138L363.16609,388.36138L363.16609,388.12136L363.64615,388.12136L363.64615,387.88133L363.88618,387.88133
				L363.88618,387.64131L364.36624,387.64131L364.36624,387.40128L364.8463,387.40128L364.8463,387.16126L365.08633,387.16126L365.08633,386.92123
				L365.56639,386.92123L365.56639,386.68121L366.04645,386.68121L366.04645,386.44118L366.28648,386.44118L366.28648,386.20115
				L366.76654,386.20115L366.76654,385.96113L367.48664,385.96113L367.48664,385.7211L367.72667,385.7211L367.72667,385.48108L367.9667,385.48108
				L367.9667,385.24105L368.44676,385.24105L368.44676,385.00103L368.68679,385.00103L368.68679,384.761L369.16685,384.761L369.16685,384.52098
				L369.40688,384.52098L369.40688,384.28095L369.88694,384.28095L369.88694,384.04092L370.12697,384.04092L370.12697,383.8009L
				370.60703,383.8009L370.60703,383.56087L370.84706,383.56087L370.84706,383.32085L371.32712,383.32085L371.32712,383.08082L371.56715,383.08082
				L371.56715,382.8408L407.57172,382.8408L407.57172,386.44118L407.81175,386.44118L407.81175,386.20115L408.29181,386.20115L408.29181,385.96113
				L408.77187,385.96113L408.77187,385.7211L409.25194,385.7211L409.25194,385.48108L409.732,385.48108L409.732,385.24105L410.21206,385.24105
				L410.21206,385.00103L410.69212,385.00103L410.69212,384.761L411.41221,384.761L411.41221,384.52098L412.1323,384.52098L412.1323,384.28095
				L412.61236,384.28095L412.61236,384.04092L413.09242,384.04092L413.09242,383.8009L413.57248,383.8009L413.57248,383.56087L414.05254,383.56087
				L414.05254,383.32085L414.53261,383.32085L414.53261,383.08082L415.01267,383.08082L415.01267,382.8408L415.49273,382.8408L415.49273,382.60077
				L415.97279,382.60077L415.97279,382.12072L416.45285,382.12072L416.45285,381.88069L416.93291,381.88069L416.93291,381.64067
				L417.41297,381.64067L417.41297,381.40064L418.13306,381.40064L418.13306,381.16062L418.61312,381.16062L418.61312,380.92059
				L419.09318,380.92059L419.09318,380.68057L419.57325,380.68057L419.57325,380.44054L420.05331,380.44054L420.05331,380.20051
				L420.53337,380.20051L420.53337,379.96049L421.01343,379.96049L421.01343,379.72046L421.49349,379.72046L421.49349,379.48044
				L421.97355,379.48044L421.97355,379.24041L422.45361,379.24041L422.45361,379.00039L423.1737,379.00039L423.1737,378.76036L423.65376,378.76036
				L423.65376,378.52034L424.37385,378.52034L424.37385,378.28031L424.85392,378.28031L424.85392,378.04028L425.33398,378.04028
				L425.33398,377.80026L425.81404,377.80026L425.81404,377.56023L426.2941,377.56023L426.2941,377.32021L426.77416,377.32021L426.77416,377.08018
				L427.25422,377.08018L427.25422,376.84016L427.73428,376.84016L427.73428,376.60013L428.21434,376.60013L428.21434,376.36011
				L428.6944,376.36011L428.6944,375.88005L429.17446,375.88005L429.17446,375.64003L429.65452,375.64003L429.65452,375.4L430.13459,375.4
				L430.13459,375.15998L430.85468,375.15998L430.85468,374.91995L431.33474,374.91995L431.33474,374.67993L431.8148,374.67993L
				431.8148,374.4399L432.29486,374.4399L432.29486,374.19988L432.77492,374.19988L432.77492,373.95985L433.25498,373.95985L433.25498,373.71982
				L433.73504,373.71982L433.73504,373.4798L434.2151,373.4798L434.2151,373.23977L434.9352,373.23977L434.9352,372.99975L435.41526,372.99975
				L435.41526,372.75972L436.61541,372.75972L436.61541,372.99975L438.53565,372.99975L438.53565,373.23977L440.21587,373.23977
				L440.21587,373.4798L441.89608,373.4798L441.89608,373.71982L443.81632,373.71982L443.81632,373.95985L445.49654,373.95985L445.49654,374.19988
				L447.41678,374.19988L447.41678,374.4399L449.09699,374.4399L449.09699,374.67993L451.01724,374.67993L451.01724,374.91995L452.69745,374.91995
				L452.69745,375.15998L454.37766,375.15998L454.37766,375.4L454.61769,375.4L454.61769,375.15998L455.57781,375.15998L455.57781,374.91995
				L456.53794,374.91995L456.53794,374.67993L457.49806,374.67993L457.49806,374.4399L458.21815,374.4399L458.21815,374.19988L459.17827,374.19988
				L459.17827,373.95985L459.89836,373.95985L459.89836,373.71982L460.85848,373.71982L460.85848,373.4798L461.57858,373.4798L461.57858,373.23977
				L462.77873,373.23977L462.77873,372.99975L463.49882,372.99975L463.49882,372.75972L464.45894,372.75972L464.45894,372.5197L
				465.17903,372.5197L465.17903,372.27967L466.13915,372.27967L466.13915,372.03965L466.85925,372.03965L466.85925,371.79962L467.81937,371.79962
				L467.81937,371.55959L468.77949,371.55959L468.77949,371.31957L469.73961,371.31957L469.73961,371.07954L470.4597,371.07954L
				470.4597,370.83952L471.41983,370.83952L471.41983,370.59949L472.13992,370.59949L472.13992,370.35947L473.10004,370.35947L473.10004,370.11944
				L474.06016,370.11944L474.06016,369.87942L475.02028,369.87942L475.02028,369.39936L475.9804,369.39936L475.9804,369.15934L476.7005,369.15934
				L476.7005,368.91931L477.66062,368.91931L477.66062,368.67929L478.38071,368.67929L478.38071,368.43926L479.34083,368.43926L
				479.34083,368.19924L480.06092,368.19924L480.06092,367.95921L481.26107,367.95921L481.26107,367.71918L481.98117,367.71918L
				481.98117,367.47916L482.94129,367.47916L482.94129,367.23913L483.66138,367.23913L483.66138,366.99911L484.6215,366.99911L484.6215,366.75908
				L485.34159,366.75908L485.34159,366.51906L486.30171,366.51906L486.30171,366.27903L487.0218,366.27903L487.0218,366.03901L488.22196,366.03901
				L488.22196,365.79898L488.94205,365.79898L488.94205,365.55895L489.90217,365.55895L489.90217,365.31893L490.62226,365.31893
				L490.62226,365.0789L491.58238,365.0789L491.58238,364.83888L492.30248,364.83888L492.30248,364.59885L493.2626,364.59885L493.2626,364.35883
				L494.22272,364.35883L494.22272,364.1188L495.18284,364.1188L495.18284,363.87878L495.90293,363.87878L495.90293,363.63875L496.86305,363.63875
				L496.86305,363.1587L497.58315,363.1587L497.58315,362.91867L498.54327,362.91867L498.54327,362.67865L499.26336,362.67865L499.26336,362.43862
				L500.46351,362.43862L500.46351,362.1986L501.1836,362.1986L501.1836,361.95857L502.14372,361.95857L502.14372,361.71855L502.86382,361.71855
				L502.86382,361.47852L503.82394,361.47852L503.82394,361.23849L504.54403,361.23849L504.54403,360.99847L505.50415,360.99847
				L505.50415,360.75844L506.22424,360.75844L506.22424,360.51842L507.42439,360.51842L507.42439,360.27839L508.14449,360.27839
				L508.14449,360.03837L509.10461,360.03837L509.10461,359.79834L509.8247,359.79834L509.8247,359.55832L511.26488,359.55832L511.26488,359.79834
				L511.74494,359.79834L511.74494,360.03837L512.46503,360.03837L512.46503,360.27839L513.18513,360.27839L513.18513,360.51842
				L513.66519,360.51842L513.66519,360.75844L514.38528,360.75844L514.38528,360.99847L514.86534,360.99847L514.86534,361.23849
				L515.3454,361.23849"/>
			<path clip-path="url(#SVG_CP_2)" fill="none" stroke="#999999" stroke-width="0.96012" stroke-miterlimit="10" stroke-linecap="round" stroke-linejoin="round" d="
				M515.3454,361.23849L515.3454,361.47852L515.82546,361.47852L515.82546,361.71855L516.54555,361.71855L516.54555,361.95857L517.02561,361.95857
				L517.02561,362.1986L517.50567,362.1986L517.50567,362.43862L518.22576,362.43862L518.22576,362.67865L518.70583,362.67865L518.70583,362.91867
				L519.42592,362.91867L519.42592,363.1587L519.90598,363.1587L519.90598,363.63875L520.62607,363.63875L520.62607,363.87878L521.10613,363.87878
				L521.10613,364.1188L521.58619,364.1188L521.58619,364.35883L522.30628,364.35883L522.30628,364.59885L522.78634,364.59885L522.78634,364.83888
				L523.2664,364.83888L523.2664,365.0789L523.74647,365.0789L523.74647,365.31893L524.46656,365.31893L524.46656,365.0789L525.90674,365.0789
				L525.90674,364.83888L526.86686,364.83888L526.86686,364.59885L528.06701,364.59885L528.06701,364.35883L529.02714,364.35883
				L529.02714,364.1188L529.98726,364.1188L529.98726,363.87878L531.18741,363.87878L531.18741,363.63875L532.38756,363.63875L532.38756,363.1587
				L533.34768,363.1587L533.34768,362.91867L534.54784,362.91867L534.54784,362.67865L535.50796,362.67865L535.50796,362.43862L
				536.70811,362.43862L536.70811,362.1986L537.66823,362.1986L537.66823,361.95857L538.86838,361.95857L538.86838,361.71855L540.06854,361.71855
				L540.06854,361.47852L541.02866,361.47852L541.02866,361.23849L541.50872,361.23849L541.50872,360.75844L541.74875,360.75844
				L541.74875,359.79834L541.98878,359.79834L541.98878,359.07826L542.22881,359.07826L542.22881,358.11816L542.46884,358.11816
				L542.46884,356.91803L542.70887,356.91803L542.70887,355.95793L542.9489,355.95793L542.9489,354.99783L543.18893,354.99783L543.18893,354.03773
				L543.42896,354.03773L543.42896,353.07762L543.66899,353.07762L543.66899,352.11752L543.90902,352.11752L543.90902,351.15742
				L544.14905,351.15742L544.14905,349.95729L544.62912,349.95729L544.62912,348.99719L544.86915,348.99719L544.86915,348.03709
				L545.10918,348.03709L545.10918,347.07699L545.34921,347.07699L545.34921,346.11688L545.58924,346.11688L545.58924,345.15678
				L545.82927,345.15678L545.82927,343.95665L546.0693,343.95665L546.0693,342.99655L546.30933,342.99655L546.30933,342.03645L546.54936,342.03645
				L546.54936,341.07635L546.78939,341.07635L546.78939,340.11624L547.02942,340.11624L547.02942,339.15614L547.26945,339.15614
				L547.26945,337.95601L547.50948,337.95601L547.50948,336.99591L547.74951,336.99591L547.74951,336.27583L547.98954,336.27583
				L547.98954,335.31573L548.22957,335.31573L548.22957,334.35563L548.4696,334.35563L548.4696,333.39553L548.70963,333.39553L548.70963,332.43543
				L548.94966,332.43543L548.94966,331.2353L549.18969,331.2353L549.18969,523.49578L51.60655,523.49578L51.60655,523.25576L53.52679,523.25576
				L53.52679,523.01573L55.20701,523.01573L55.20701,522.77571L57.12725,522.77571L57.12725,522.53568L59.04749,522.53568L59.04749,522.29566
				L60.72771,522.29566L60.72771,522.05563L62.64795,522.05563L62.64795,521.81561L64.56819,521.81561L64.56819,521.57558L66.48844,521.57558
				L66.48844,521.09553L68.16865,521.09553L68.16865,520.8555L70.08889,520.8555L70.08889,520.61548L72.00914,520.61548L72.00914,520.37545
				L73.92938,520.37545L73.92938,520.13543L75.6096,520.13543L75.6096,519.8954L77.76987,519.8954L77.76987,519.65538L79.45008,519.65538
				L79.45008,519.41535L81.1303,519.41535L81.1303,519.17532L83.29057,519.17532L83.29057,518.9353L84.97078,518.9353L84.97078,518.69527
				L86.89103,518.69527L86.89103,518.45525L88.57124,518.45525L88.57124,518.21522L90.73151,518.21522L90.73151,517.9752L92.41173,517.9752
				L92.41173,517.73517L94.33197,517.73517L94.33197,517.49515L96.25222,517.49515L96.25222,516.77507L96.01218,516.77507L96.01218,515.57494
				L95.77215,515.57494L95.77215,513.89476L96.49225,513.89476L96.49225,513.65474L97.21234,513.65474L97.21234,513.41471L98.17246,513.41471
				L98.17246,513.17468L98.41249,513.17468L98.41249,511.01445L98.17246,511.01445L98.17246,509.81433L99.13258,509.81433L99.13258,509.5743
				L102.25298,509.5743L102.25298,510.77443L104.17322,510.77443L104.17322,510.5344L104.65328,510.5344L104.65328,512.45461L104.89331,512.45461
				L104.89331,514.61484L105.13334,514.61484L105.13334,516.77507L105.37337,516.77507L105.37337,517.01509L106.09346,517.01509
				L106.09346,517.25512L106.33349,517.25512L106.33349,517.01509L106.57352,517.01509L106.57352,516.77507L106.81356,516.77507
				L106.81356,516.53504L107.05359,516.53504L107.05359,516.29502L107.53365,516.29502L107.53365,516.05499L108.7338,516.05499L
				108.7338,515.81497L110.89407,515.81497L110.89407,515.57494L110.65404,515.57494L110.65404,514.37481L110.41401,514.37481L110.41401,513.17468
				L110.17398,513.17468L110.17398,512.21458L109.93395,512.21458L109.93395,511.73453L111.37413,511.73453L111.37413,511.49451
				L113.29438,511.49451L113.29438,511.25448L114.97459,511.25448L114.97459,511.49451L115.45465,511.49451L115.45465,511.73453
				L115.93471,511.73453L115.93471,512.69463L116.17474,512.69463L116.17474,513.41471L116.41477,513.41471L116.41477,515.57494
				L116.6548,515.57494L116.6548,515.33492L117.13487,515.33492L117.13487,514.85486L117.3749,514.85486L117.3749,514.61484L117.85496,514.61484
				L117.85496,514.37481L118.33502,514.37481L118.33502,514.13479L118.81508,514.13479L118.81508,514.37481L119.05511,514.37481
				L119.05511,514.85486L119.29514,514.85486L119.29514,515.33492L119.53517,515.33492L119.53517,515.57494L119.7752,515.57494L
				119.7752,515.81497L120.01523,515.81497L120.01523,516.05499L120.25526,516.05499L120.25526,516.29502L120.49529,516.29502L120.49529,516.53504
				L120.73532,516.53504L120.73532,516.77507L121.21538,516.77507L121.21538,517.01509L121.45541,517.01509L121.45541,517.25512
				L121.69544,517.25512L121.69544,517.49515L121.93547,517.49515L121.93547,517.9752L122.1755,517.9752L122.1755,518.21522L122.41554,518.21522
				L122.41554,518.45525L122.65557,518.45525L122.65557,518.69527L122.8956,518.69527L122.8956,519.17532L123.13563,519.17532L123.13563,519.41535
				L123.37566,519.41535L123.37566,519.65538L123.61569,519.65538L123.61569,519.8954L124.33578,519.8954L124.33578,520.13543L124.57581,520.13543
				L124.57581,520.37545L124.81584,520.37545L124.81584,520.13543L125.05587,520.13543L125.05587,519.8954L125.53593,519.8954L125.53593,519.41535
				L125.2959,519.41535L125.2959,519.17532L125.05587,519.17532L125.05587,518.9353L124.81584,518.9353L124.81584,518.69527L124.57581,518.69527
				L124.57581,518.21522L124.33578,518.21522L124.33578,517.9752L124.09575,517.9752L124.09575,517.73517L123.85572,517.73517L123.85572,517.49515
				L123.61569,517.49515L123.61569,517.01509L124.09575,517.01509L124.09575,516.77507L124.33578,516.77507L124.33578,516.53504
				L124.81584,516.53504L124.81584,516.29502L125.05587,516.29502L125.05587,516.05499L125.53593,516.05499L125.53593,515.81497
				L125.77596,515.81497L125.77596,515.57494L126.25602,515.57494L126.25602,515.33492L126.49605,515.33492L126.49605,514.85486
				L126.97611,514.85486L126.97611,514.61484L127.45618,514.61484L127.45618,514.37481L127.69621,514.37481L127.69621,514.61484
				L127.93624,514.61484L127.93624,514.85486L128.17627,514.85486L128.17627,515.33492L128.4163,515.33492L128.4163,515.81497L128.65633,515.81497
				L128.65633,516.05499L128.89636,516.05499L128.89636,516.29502L129.13639,516.29502L129.13639,516.77507L129.37642,516.77507
				L129.37642,517.01509L129.85648,517.01509L129.85648,517.25512L130.33654,517.25512L130.33654,517.49515L130.57657,517.49515
				L130.57657,517.73517L131.05663,517.73517L131.05663,517.49515L131.29666,517.49515L131.29666,517.25512L131.53669,517.25512
				L131.53669,516.77507L131.77672,516.77507L131.77672,516.29502L132.01675,516.29502L132.01675,515.81497L132.25678,515.81497
				L132.25678,515.57494L132.49681,515.57494L132.49681,514.85486L132.73685,514.85486L132.73685,514.37481L132.97688,514.37481
				L132.97688,514.13479L132.49681,514.13479L132.49681,513.89476L132.25678,513.89476L132.25678,513.65474L132.01675,513.65474
				L132.01675,513.41471L131.77672,513.41471L131.77672,513.17468L131.53669,513.17468L131.53669,512.93466L131.29666,512.93466
				L131.29666,512.69463L131.05663,512.69463L131.05663,512.45461L130.8166,512.45461L130.8166,511.97456L130.57657,511.97456L130.57657,511.73453
				L130.33654,511.73453L130.33654,511.01445L130.09651,511.01445L130.09651,510.29438L130.33654,510.29438L130.33654,510.05435
				L130.57657,510.05435L130.57657,509.81433L130.8166,509.81433L130.8166,509.5743L131.05663,509.5743L131.05663,509.33428L131.29666,509.33428
				L131.29666,509.09425L131.77672,509.09425L131.77672,509.33428L132.01675,509.33428L132.01675,509.5743L132.25678,509.5743L132.25678,509.81433
				L132.49681,509.81433L132.49681,510.05435L132.73685,510.05435L132.73685,510.29438L132.97688,510.29438L132.97688,510.5344L
				133.21691,510.5344L133.21691,510.77443L133.69697,510.77443L133.69697,511.01445L133.937,511.01445L133.937,511.25448L134.17703,511.25448
				L134.17703,511.49451L134.65709,511.49451L134.65709,511.01445L134.89712,511.01445L134.89712,510.5344L135.13715,510.5344L135.13715,510.05435
				L135.37718,510.05435L135.37718,509.5743L135.61721,509.5743L135.61721,509.09425L135.85724,509.09425L135.85724,508.37417L136.09727,508.37417
				L136.09727,507.89412L136.3373,507.89412L136.3373,507.17405L136.09727,507.17405L136.09727,506.93402L135.85724,506.93402L135.85724,506.69399
				L135.61721,506.69399L135.61721,506.45397L135.37718,506.45397L135.37718,506.21394L134.89712,506.21394L134.89712,505.97392
				L134.65709,505.97392L134.65709,505.73389L134.41706,505.73389L134.41706,505.49387L134.17703,505.49387L134.17703,505.25384
				L133.937,505.25384L133.937,505.01382L133.69697,505.01382L133.69697,504.77379L133.21691,504.77379L133.21691,504.53376L132.97688,504.53376
				L132.97688,504.29374L132.73685,504.29374L132.73685,504.05371L132.25678,504.05371L132.25678,503.81369L132.01675,503.81369
				L132.01675,503.57366L131.77672,503.57366L131.77672,503.33364L131.53669,503.33364L131.53669,503.09361L131.29666,503.09361
				L131.29666,502.85359L131.05663,502.85359L131.05663,502.61356L130.8166,502.61356L130.8166,502.13351L130.57657,502.13351L130.57657,501.89348
				L130.33654,501.89348L130.33654,501.65346L130.09651,501.65346L130.09651,501.41343L129.61645,501.41343L129.61645,501.17341
				L129.37642,501.17341L129.37642,500.93338L129.13639,500.93338L129.13639,500.69335L128.89636,500.69335L128.89636,500.45333
				L128.65633,500.45333L128.65633,500.2133L128.4163,500.2133L128.4163,499.97328L128.17627,499.97328L128.17627,499.73325L127.93624,499.73325
				L127.93624,499.49323L130.57657,499.49323L130.57657,499.2532L130.8166,499.2532L130.8166,499.49323L131.29666,499.49323L131.29666,499.73325
				L131.53669,499.73325L131.53669,499.97328L132.01675,499.97328L132.01675,500.2133L132.25678,500.2133L132.25678,500.45333L132.73685,500.45333
				L132.73685,500.69335L132.97688,500.69335L132.97688,500.93338L133.69697,500.93338L133.69697,501.17341L133.937,501.17341L133.937,501.41343
				L134.41706,501.41343L134.41706,501.65346L134.89712,501.65346L134.89712,501.89348L135.13715,501.89348L135.13715,502.13351
				L135.61721,502.13351L135.61721,502.61356L135.85724,502.61356L135.85724,502.85359L136.3373,502.85359L136.3373,503.09361L136.57733,503.09361
				L136.57733,503.33364L137.05739,503.33364L137.05739,503.57366L137.29742,503.57366L137.29742,503.81369L137.77748,503.81369
				L137.77748,504.05371L138.01752,504.05371L138.01752,504.29374L138.73761,504.29374L138.73761,503.81369L138.97764,503.81369
				L138.97764,503.57366L139.21767,503.57366L139.21767,503.09361L139.4577,503.09361L139.4577,502.61356L139.69773,502.61356L139.69773,502.13351
				L140.17779,502.13351L140.17779,501.65346L140.41782,501.65346L140.41782,501.41343L140.65785,501.41343L140.65785,500.93338
				L140.89788,500.93338L140.89788,500.69335L141.13791,500.69335L141.13791,500.2133L141.37794,500.2133L141.37794,500.45333L141.61797,500.45333
				L141.61797,500.69335L141.858,500.69335L141.858,500.93338L142.09803,500.93338L142.09803,501.17341L142.33806,501.17341L142.33806,501.41343
				L142.57809,501.41343L142.57809,501.65346L142.81812,501.65346L142.81812,501.89348L143.05815,501.89348L143.05815,502.13351
				L143.29819,502.13351L143.29819,502.61356L143.53822,502.61356L143.53822,503.09361L143.77825,503.09361L143.77825,503.33364
				L144.01828,503.33364L144.01828,503.57366L144.25831,503.57366L144.25831,503.81369L144.49834,503.81369L144.49834,504.05371
				L144.73837,504.05371L144.73837,504.29374L144.9784,504.29374L144.9784,504.53376L145.21843,504.53376L145.21843,504.77379L145.45846,504.77379
				L145.45846,505.01382L145.69849,505.01382L145.69849,505.25384L145.93852,505.25384L145.93852,505.49387L146.41858,505.49387
				L146.41858,505.73389L146.65861,505.73389L146.65861,505.97392L146.89864,505.97392L146.89864,506.21394L147.13867,506.21394
				L147.13867,506.45397L147.3787,506.45397L147.3787,506.69399L147.61873,506.69399L147.61873,506.93402L147.85876,506.93402L147.85876,507.17405
				L148.09879,507.17405L148.09879,507.41407L148.33883,507.41407L148.33883,507.6541L148.57886,507.6541L148.57886,508.13415L148.81889,508.13415
				L148.81889,508.37417L149.05892,508.37417L149.05892,508.85422L149.29895,508.85422L149.29895,509.09425L149.53898,509.09425
				L149.53898,509.33428L149.77901,509.33428L149.77901,509.5743L150.01904,509.5743L150.01904,509.81433L150.25907,509.81433L150.25907,510.05435
				L150.4991,510.05435L150.4991,510.5344L150.73913,510.5344L150.73913,510.77443L150.97916,510.77443L150.97916,511.01445L151.21919,511.01445
				L151.21919,511.25448L151.45922,511.25448L151.45922,511.49451L151.69925,511.49451L151.69925,511.73453L151.93928,511.73453
				L151.93928,511.97456L152.17931,511.97456L152.17931,512.21458L152.65937,512.21458L152.65937,512.69463L152.8994,512.69463L
				152.8994,512.93466L153.13943,512.93466L153.13943,513.17468L153.37946,513.17468L153.37946,513.41471L153.6195,513.41471L153.6195,513.65474
				L153.85953,513.65474L153.85953,513.89476L154.09956,513.89476L154.09956,514.13479L154.33959,514.13479L154.33959,514.37481
				L154.57962,514.37481L154.57962,514.61484L155.05968,514.61484L155.05968,514.85486L155.53974,514.85486L155.53974,515.33492
				L156.0198,515.33492L156.0198,514.85486L156.25983,514.85486L156.25983,514.61484L157.70001,514.61484L157.70001,514.37481L158.18007,514.37481
				L158.18007,514.13479L159.1402,514.13479L159.1402,514.37481L159.62026,514.37481L159.62026,514.61484L160.10032,514.61484L160.10032,514.85486
				L160.58038,514.85486L160.58038,515.33492L160.82041,515.33492L160.82041,515.57494L161.06044,515.57494L161.06044,515.33492
				L161.30047,515.33492L161.30047,514.85486L161.78053,514.85486L161.78053,514.61484L163.46074,514.61484L163.46074,514.37481
				L166.34111,514.37481L166.34111,514.13479L168.50138,514.13479L168.50138,513.89476L168.98144,513.89476L168.98144,513.65474
				L169.46151,513.65474L169.46151,513.41471L170.1816,513.41471L170.1816,513.17468L170.66166,513.17468L170.66166,512.93466L171.14172,512.93466
				L171.14172,512.69463L171.86181,512.69463L171.86181,512.45461L172.5819,512.45461L172.5819,512.21458L173.06196,512.21458L173.06196,511.97456
				L173.54202,511.97456L173.54202,511.73453L174.26211,511.73453L174.26211,511.49451L174.74218,511.49451L174.74218,511.25448
				L174.98221,511.25448L174.98221,511.01445L175.22224,511.01445L175.22224,510.77443L175.46227,510.77443L175.46227,510.29438
				L175.7023,510.29438L175.7023,510.05435L175.94233,510.05435L175.94233,509.81433L176.18236,509.81433L176.18236,509.5743L176.42239,509.5743
				L176.42239,509.33428L176.66242,509.33428L176.66242,509.09425L176.90245,509.09425L176.90245,508.85422L177.14248,508.85422
				L177.14248,508.37417L177.38251,508.37417L177.38251,508.13415L177.62254,508.13415L177.62254,507.6541L178.1026,507.6541L178.1026,507.41407
				L178.34263,507.41407L178.34263,507.17405L178.58266,507.17405L178.58266,506.93402L178.82269,506.93402L178.82269,506.69399
				L179.06272,506.69399L179.06272,506.45397L179.30275,506.45397L179.30275,506.21394L179.54278,506.21394L179.54278,505.97392
				L179.78282,505.97392L179.78282,505.73389L180.02285,505.73389L180.02285,505.25384L180.26288,505.25384L180.26288,505.01382
				L180.50291,505.01382L180.50291,504.77379L180.74294,504.77379L180.74294,504.53376L180.98297,504.53376L180.98297,504.29374
				L181.223,504.29374L181.223,503.81369L181.46303,503.81369L181.46303,503.33364L181.70306,503.33364L181.70306,502.85359L181.94309,502.85359
				L181.94309,502.13351L182.18312,502.13351L182.18312,501.65346L182.42315,501.65346L182.42315,501.17341L182.66318,501.17341
				L182.66318,500.69335L182.90321,500.69335L182.90321,500.2133L183.14324,500.2133L183.14324,499.73325L183.38327,499.73325L183.38327,499.2532
				L183.6233,499.2532L183.6233,498.77315L183.86333,498.77315L183.86333,498.2931L184.34339,498.2931L184.34339,497.81305L184.58342,497.81305
				L184.58342,497.333L184.82346,497.333L184.82346,496.85295L185.06349,496.85295L185.06349,496.37289L185.30352,496.37289L185.30352,495.65282
				L185.54355,495.65282L185.54355,495.17277L185.78358,495.17277L185.78358,493.25256L185.54355,493.25256L185.54355,492.77251
				L185.30352,492.77251L185.30352,492.29246L185.06349,492.29246L185.06349,491.81241L184.82346,491.81241L184.82346,491.33236
				L184.58342,491.33236L184.58342,491.09233L184.34339,491.09233L184.34339,490.61228L183.86333,490.61228L183.86333,490.37225
				L183.6233,490.37225L183.6233,490.13223L183.38327,490.13223L183.38327,489.8922L183.14324,489.8922L183.14324,489.17213L182.90321,489.17213
				L182.90321,488.9321L182.66318,488.9321L182.66318,488.69208L182.42315,488.69208L182.42315,488.21202L182.18312,488.21202L182.18312,487.972
				L181.94309,487.972L181.94309,487.73197L181.70306,487.73197L181.70306,487.25192L180.50291,487.25192L180.50291,487.0119L179.30275,487.0119
				L179.30275,486.77187L177.62254,486.77187L177.62254,486.53185L176.42239,486.53185L176.42239,486.29182L175.46227,486.29182
				L175.46227,486.05179L174.74218,486.05179L174.74218,485.81177L174.02208,485.81177L174.02208,485.57174L173.30199,485.57174
				L173.30199,485.33172L172.5819,485.33172L172.5819,485.09169L171.86181,485.09169L171.86181,484.85167L170.90169,484.85167L170.90169,484.61164
				L170.42163,484.61164L170.42163,484.37162L169.94157,484.37162L169.94157,484.13159L169.46151,484.13159L169.46151,483.89156
				L168.98144,483.89156L168.98144,483.65154L168.50138,483.65154L168.50138,483.17149L168.02132,483.17149L168.02132,482.93146
				L167.54126,482.93146L167.54126,482.69144L167.0612,482.69144L167.0612,482.45141L166.58114,482.45141L166.58114,482.21139L166.10108,482.21139
				L166.10108,481.97136L165.62102,481.97136L165.62102,481.73133L165.38099,481.73133L165.38099,481.49131L164.6609,481.49131L
				164.6609,481.25128L164.18084,481.25128L164.18084,479.81113L163.94081,479.81113L163.94081,479.33108L163.70077,479.33108L163.70077,479.09105
				L163.46074,479.09105L163.46074,478.611L162.98068,478.611L162.98068,478.37098L162.74065,478.37098L162.74065,478.13095L162.98068,478.13095
				L162.98068,477.89092L163.22071,477.89092L163.22071,477.6509L163.70077,477.6509L163.70077,477.41087L163.94081,477.41087L163.94081,476.93082
				L164.18084,476.93082L164.18084,476.6908L164.42087,476.6908L164.42087,476.45077L164.90093,476.45077L164.90093,476.21075L165.38099,476.21075
				L165.38099,475.97072L165.62102,475.97072L165.62102,475.73069L166.10108,475.73069L166.10108,475.49067L166.34111,475.49067
				L166.34111,475.25064L166.58114,475.25064L166.58114,475.01062L166.82117,475.01062L166.82117,474.77059L167.30123,474.77059
				L167.30123,474.53057L167.54126,474.53057L167.54126,474.29054L167.78129,474.29054L167.78129,474.05052L168.02132,474.05052
				L168.02132,473.81049L168.50138,473.81049L168.50138,473.57046L168.74141,473.57046L168.74141,473.33044L168.98144,473.33044
				L168.98144,473.09041L169.46151,473.09041L169.46151,472.85039L169.70154,472.85039L169.70154,472.61036L169.94157,472.61036
				L169.94157,472.37034L170.1816,472.37034L170.1816,472.13031L170.66166,472.13031L170.66166,471.89029L170.90169,471.89029L170.90169,471.65026
				L171.14172,471.65026L171.14172,471.41023L171.62178,471.41023L171.62178,471.17021L172.10184,471.17021L172.10184,470.93018
				L172.34187,470.93018L172.34187,470.45013L172.5819,470.45013L172.5819,470.21011L173.06196,470.21011L173.06196,469.97008L173.30199,469.97008
				L173.30199,469.73006L173.54202,469.73006L173.54202,469.49003L173.78205,469.49003L173.78205,469.25L174.26211,469.25L174.26211,469.00998
				L174.50215,469.00998L174.50215,468.76995L174.74218,468.76995L174.74218,468.52993L175.22224,468.52993L175.22224,468.2899L
				174.26211,468.2899L174.26211,468.52993L169.46151,468.52993L169.46151,468.76995L167.78129,468.76995L167.78129,469.00998L166.10108,469.00998
				L166.10108,469.25L163.94081,469.25L163.94081,469.49003L162.26059,469.49003L162.26059,469.73006L160.58038,469.73006L160.58038,469.97008
				L158.4201,469.97008L158.4201,470.21011L156.73989,470.21011L156.73989,470.45013L154.81965,470.45013L154.81965,470.93018L153.85953,470.93018
				L153.85953,471.17021L152.8994,471.17021L152.8994,471.41023L151.93928,471.41023L151.93928,471.65026L151.21919,471.65026L151.21919,471.89029
				L150.25907,471.89029L150.25907,472.13031"/>
			<path clip-path="url(#SVG_CP_2)" fill="none" stroke="#999999" stroke-width="0.96012" stroke-miterlimit="10" stroke-linecap="round" stroke-linejoin="round" d="
				M150.25907,472.13031L149.53898,472.13031L149.53898,472.37034L148.81889,472.37034L148.81889,472.61036L148.09879,472.61036
				L148.09879,472.85039L147.13867,472.85039L147.13867,473.09041L146.41858,473.09041L146.41858,473.33044L145.45846,473.33044
				L145.45846,473.57046L144.49834,473.57046L144.49834,473.81049L143.77825,473.81049L143.77825,474.05052L143.05815,474.05052
				L143.05815,474.29054L142.09803,474.29054L142.09803,474.53057L141.37794,474.53057L141.37794,474.77059L140.65785,474.77059
				L140.65785,475.01062L139.4577,475.01062L139.4577,475.25064L138.73761,475.25064L138.73761,475.49067L137.77748,475.49067L137.77748,475.73069
				L136.81736,475.73069L136.81736,475.97072L136.09727,475.97072L136.09727,476.21075L135.37718,476.21075L135.37718,476.45077
				L134.65709,476.45077L134.65709,476.6908L133.937,476.6908L133.937,476.93082L132.97688,476.93082L132.97688,477.41087L132.49681,477.41087
				L132.49681,477.6509L131.77672,477.6509L131.77672,477.89092L131.29666,477.89092L131.29666,478.13095L130.57657,478.13095L130.57657,478.37098
				L129.61645,478.37098L129.61645,478.611L128.17627,478.611L128.17627,478.85103L126.49605,478.85103L126.49605,479.09105L126.25602,479.09105
				L126.25602,478.85103L123.37566,478.85103L123.37566,478.611L122.1755,478.611L122.1755,478.13095L121.93547,478.13095L121.93547,477.6509
				L121.69544,477.6509L121.69544,477.41087L121.45541,477.41087L121.45541,476.6908L121.21538,476.6908L121.21538,476.45077L120.73532,476.45077
				L120.73532,475.97072L120.49529,475.97072L120.49529,475.73069L120.25526,475.73069L120.25526,475.49067L119.7752,475.49067L
				119.7752,475.25064L119.29514,475.25064L119.29514,475.01062L119.05511,475.01062L119.05511,474.77059L118.57505,474.77059L118.57505,474.53057
				L118.09499,474.53057L118.09499,474.29054L117.3749,474.29054L117.3749,474.05052L116.89483,474.05052L116.89483,473.81049L116.17474,473.81049
				L116.17474,473.57046L115.45465,473.57046L115.45465,473.33044L114.97459,473.33044L114.97459,473.09041L114.01447,473.09041
				L114.01447,472.85039L113.29438,472.85039L113.29438,472.61036L112.81432,472.61036L112.81432,472.37034L112.57429,472.37034
				L112.57429,472.13031L112.09423,472.13031L112.09423,471.89029L111.8542,471.89029L111.8542,471.65026L111.37413,471.65026L111.37413,471.41023
				L111.1341,471.41023L111.1341,471.17021L110.65404,471.17021L110.65404,470.93018L110.41401,470.93018L110.41401,470.45013L110.17398,470.45013
				L110.17398,470.21011L109.69392,470.21011L109.69392,469.97008L109.45389,469.97008L109.45389,469.73006L108.97383,469.73006
				L108.97383,469.49003L108.7338,469.49003L108.7338,469.25L108.01371,469.25L108.01371,469.00998L107.77368,469.00998L107.77368,468.76995
				L107.29362,468.76995L107.29362,468.52993L107.05359,468.52993L107.05359,468.2899L106.81356,468.2899L106.81356,468.04988L106.33349,468.04988
				L106.33349,467.80985L106.09346,467.80985L106.09346,467.56983L104.65328,467.56983L104.65328,467.3298L95.05206,467.3298L95.05206,467.08977
				L85.69087,467.08977L85.69087,466.84975L63.36804,466.84975L63.36804,467.08977L49.92634,467.08977L49.92634,467.3298L49.44628,467.3298
				L49.44628,467.56983L48.96621,467.56983L48.96621,467.80985L48.72618,467.80985L48.72618,468.04988L48.24612,468.04988L48.24612,468.2899
				L47.76606,468.2899L47.76606,468.52993L47.52603,468.52993L47.52603,468.76995L47.286,468.76995L47.286,470.93018L47.04597,470.93018
				L47.04597,472.85039L46.80594,472.85039L46.80594,478.85103L46.56591,478.85103L46.56591,318.75397L549.18969,318.75397L549.18969,330.75525
				L548.94966,330.75525L548.94966,330.51522L548.70963,330.51522L548.70963,330.27519L548.22957,330.27519L548.22957,330.03517
				L547.74951,330.03517L547.74951,329.79514L547.50948,329.79514L547.50948,329.55512L547.02942,329.55512L547.02942,329.31509
				L546.54936,329.31509L546.54936,329.07507L546.30933,329.07507L546.30933,328.83504L545.82927,328.83504L545.82927,328.59502
				L545.34921,328.59502L545.34921,328.35499L545.10918,328.35499L545.10918,328.11496L544.62912,328.11496L544.62912,327.87494
				L543.90902,327.87494L543.90902,327.63491L543.66899,327.63491L543.66899,327.39489L543.18893,327.39489L543.18893,327.15486
				L542.70887,327.15486L542.70887,326.91484L542.46884,326.91484L542.46884,326.67481L541.98878,326.67481L541.98878,326.43479
				L541.50872,326.43479L541.50872,326.19476L541.26869,326.19476L541.26869,325.95473L540.78863,325.95473L540.78863,325.71471
				L540.30857,325.71471L540.30857,325.23466L540.06854,325.23466L540.06854,324.99463L539.58848,324.99463L539.58848,324.75461
				L539.10841,324.75461L539.10841,324.51458L538.86838,324.51458L538.86838,324.27456L538.38832,324.27456L538.38832,324.03453
				L537.66823,324.03453L537.66823,323.7945L537.18817,323.7945L537.18817,323.55448L536.94814,323.55448L536.94814,323.31445L536.46808,323.31445
				L536.46808,323.07443L535.98802,323.07443L535.98802,322.8344L535.74799,322.8344L535.74799,322.59438L535.26793,322.59438L535.26793,322.35435
				L534.78787,322.35435L534.78787,322.11433L534.54784,322.11433L534.54784,321.8743L534.06778,321.8743L534.06778,321.63427L533.58771,321.63427
				L533.58771,321.39425L533.34768,321.39425L533.34768,321.15422L532.86762,321.15422L532.86762,320.9142L532.38756,320.9142L532.38756,320.67417
				L532.14753,320.67417L532.14753,320.43415L531.42744,320.43415L531.42744,320.19412L530.94738,320.19412L530.94738,319.9541L
				530.70735,319.9541L530.70735,319.71407L530.22729,319.71407L530.22729,319.47404L529.74723,319.47404L529.74723,318.99399L528.54707,318.99399
				L528.54707,319.47404L527.34692,319.47404L527.34692,319.71407L526.14677,319.71407L526.14677,319.9541L524.46656,319.9541L524.46656,320.19412
				L523.2664,320.19412L523.2664,320.43415L522.06625,320.43415L522.06625,320.67417L520.8661,320.67417L520.8661,320.9142L519.66595,320.9142
				L519.66595,321.15422L518.22576,321.15422L518.22576,321.39425L517.02561,321.39425L517.02561,321.63427L515.82546,321.63427
				L515.82546,321.8743L514.62531,321.8743L514.62531,322.11433L513.18513,322.11433L513.18513,322.35435L511.74494,322.35435L511.74494,322.59438
				L510.54479,322.59438L510.54479,322.8344L509.34464,322.8344L509.34464,323.07443L508.14449,323.07443L508.14449,323.31445L506.94433,323.31445
				L506.94433,323.55448L505.50415,323.55448L505.50415,323.7945L504.06397,323.7945L504.06397,324.03453L502.86382,324.03453L502.86382,324.27456
				L501.66366,324.27456L501.66366,324.51458L500.46351,324.51458L500.46351,324.75461L499.02333,324.75461L499.02333,324.99463
				L497.82318,324.99463L497.82318,325.23466L496.62302,325.23466L496.62302,325.71471L495.42287,325.71471L495.42287,325.95473
				L493.98269,325.95473L493.98269,326.19476L492.54251,326.19476L492.54251,326.43479L491.34235,326.43479L491.34235,326.67481
				L490.1422,326.67481L490.1422,326.91484L488.94205,326.91484L488.94205,327.15486L488.46199,327.15486L488.46199,327.39489L487.98193,327.39489
				L487.98193,327.63491L487.26184,327.63491L487.26184,327.87494L486.78177,327.87494L486.78177,328.11496L486.30171,328.11496
				L486.30171,328.35499L485.82165,328.35499L485.82165,328.59502L485.34159,328.59502L485.34159,328.83504L484.86153,328.83504
				L484.86153,329.07507L484.38147,329.07507L484.38147,329.31509L483.90141,329.31509L483.90141,329.55512L483.42135,329.55512
				L483.42135,329.79514L482.94129,329.79514L482.94129,330.03517L482.46123,330.03517L482.46123,330.27519L481.98117,330.27519
				L481.98117,330.51522L481.5011,330.51522L481.5011,330.75525L480.78101,330.75525L480.78101,330.99527L480.54098,330.99527L480.54098,331.2353
				L480.06092,331.2353L480.06092,331.47532L479.58086,331.47532L479.58086,331.95537L479.1008,331.95537L479.1008,332.1954L478.62074,332.1954
				L478.62074,332.43543L478.14068,332.43543L478.14068,332.67545L477.66062,332.67545L477.66062,332.91548L477.18056,332.91548
				L477.18056,333.1555L476.7005,333.1555L476.7005,333.39553L476.22043,333.39553L476.22043,333.63555L475.74037,333.63555L475.74037,333.87558
				L475.26031,333.87558L475.26031,334.1156L474.54022,334.1156L474.54022,334.35563L474.06016,334.35563L474.06016,334.59566L473.5801,334.59566
				L473.5801,334.83568L473.10004,334.83568L473.10004,335.07571L472.61998,335.07571L472.61998,335.31573L472.13992,335.31573L
				472.13992,335.55576L471.65986,335.55576L471.65986,335.79578L471.17979,335.79578L471.17979,336.03581L470.69973,336.03581L
				470.69973,336.27583L470.21967,336.27583L470.21967,336.51586L469.73961,336.51586L469.73961,336.75589L469.49958,336.75589L
				469.49958,336.99591L469.01952,336.99591L469.01952,337.23594L468.29943,337.23594L468.29943,337.47596L468.0594,337.47596L468.0594,337.23594
				L467.33931,337.23594L467.33931,336.99591L466.61922,336.99591L466.61922,336.75589L465.89912,336.75589L465.89912,336.51586
				L465.41906,336.51586L465.41906,336.27583L464.69897,336.27583L464.69897,336.03581L463.97888,336.03581L463.97888,335.79578
				L463.49882,335.79578L463.49882,335.55576L462.77873,335.55576L462.77873,335.31573L461.81861,335.31573L461.81861,335.07571
				L461.09852,335.07571L461.09852,334.83568L460.61845,334.83568L460.61845,334.59566L459.89836,334.59566L459.89836,334.35563
				L459.17827,334.35563L459.17827,334.1156L458.69821,334.1156L458.69821,333.87558L457.97812,333.87558L457.97812,333.63555L457.25803,333.63555
				L457.25803,333.39553L456.53794,333.39553L456.53794,333.63555L456.29791,333.63555L456.29791,333.87558L456.05788,333.87558
				L456.05788,334.1156L455.33778,334.1156L455.33778,334.35563L455.09775,334.35563L455.09775,334.59566L454.85772,334.59566L454.85772,334.83568
				L454.61769,334.83568L454.61769,335.07571L454.37766,335.07571L454.37766,335.31573L453.8976,335.31573L453.8976,335.55576L453.65757,335.55576
				L453.65757,335.79578L453.41754,335.79578L453.41754,336.03581L453.17751,336.03581L453.17751,336.27583L452.93748,336.27583
				L452.93748,336.51586L452.69745,336.51586L452.69745,336.75589L452.21739,336.75589L452.21739,336.99591L451.97736,336.99591
				L451.97736,337.23594L451.73733,337.23594L451.73733,337.47596L451.4973,337.47596L451.4973,337.71599L451.25727,337.71599L451.25727,337.95601
				L450.77721,337.95601L450.77721,338.43606L450.53717,338.43606L450.53717,338.67609L450.29714,338.67609L450.29714,338.91612
				L450.05711,338.91612L450.05711,339.15614L449.81708,339.15614L449.81708,339.39617L449.09699,339.39617L449.09699,339.63619
				L448.85696,339.63619L448.85696,339.87622L448.61693,339.87622L448.61693,340.11624L448.3769,340.11624L448.3769,340.35627L448.13687,340.35627
				L448.13687,340.59629L447.89684,340.59629L447.89684,340.83632L447.41678,340.83632L447.41678,341.07635L447.17675,341.07635
				L447.17675,341.31637L446.93672,341.31637L446.93672,341.5564L446.69669,341.5564L446.69669,341.79642L446.45666,341.79642L446.45666,342.03645
				L445.9766,342.03645L445.9766,342.27647L445.73657,342.27647L445.73657,342.5165L445.49654,342.5165L445.49654,342.75652L445.2565,342.75652
				L445.2565,342.99655L445.01647,342.99655L445.01647,343.23658L444.53641,343.23658L444.53641,343.4766L444.29638,343.4766L444.29638,343.71663
				L444.05635,343.71663L444.05635,343.95665L443.81632,343.95665L443.81632,344.19668L443.57629,344.19668L443.57629,344.67673
				L443.33626,344.67673L443.33626,344.91676L442.61617,344.91676L442.61617,345.15678L442.37614,345.15678L442.37614,345.39681
				L442.13611,345.39681L442.13611,345.63683L441.89608,345.63683L441.89608,345.87686L441.65605,345.87686L441.65605,346.11688
				L441.17599,346.11688L441.17599,346.35691L440.93596,346.35691L440.93596,346.59693L440.69593,346.59693L440.69593,346.83696
				L440.4559,346.83696L440.4559,347.07699L440.21587,347.07699L440.21587,347.31701L439.7358,347.31701L439.7358,347.55704L439.49577,347.55704
				L439.49577,347.79706L439.25574,347.79706L439.25574,348.03709L439.01571,348.03709L439.01571,348.27711L438.77568,348.27711
				L438.77568,348.51714L438.53565,348.51714L438.53565,348.75716L438.05559,348.75716L438.05559,348.99719L437.81556,348.99719
				L437.81556,349.23722L437.57553,349.23722L437.57553,349.47724L437.3355,349.47724L437.3355,349.71727L437.09547,349.71727L437.09547,349.95729
				L436.37538,349.95729L436.37538,350.19732L436.13535,350.19732L436.13535,350.43734L435.89532,350.43734L435.89532,350.91739
				L435.65529,350.91739L435.65529,351.15742L435.41526,351.15742L435.41526,351.39745L435.17523,351.39745L435.17523,351.63747
				L434.69516,351.63747L434.69516,351.8775L434.45513,351.8775L434.45513,352.11752L434.2151,352.11752L434.2151,352.35755L433.97507,352.35755
				L433.97507,352.59757L433.73504,352.59757L433.73504,352.8376L433.25498,352.8376L433.25498,353.07762L432.53489,353.07762L432.53489,353.31765
				L432.05483,353.31765L432.05483,353.55768L431.33474,353.55768L431.33474,353.7977L430.37462,353.7977L430.37462,354.03773L429.65452,354.03773
				L429.65452,354.27775L428.93443,354.27775L428.93443,354.51778L428.45437,354.51778L428.45437,354.7578L427.73428,354.7578L427.73428,354.99783
				L427.01419,354.99783L427.01419,355.23785L426.2941,355.23785L426.2941,355.47788L425.57401,355.47788L425.57401,355.71791L425.09395,355.71791
				L425.09395,355.95793L424.37385,355.95793L424.37385,356.19796L423.41373,356.19796L423.41373,356.43798L422.69364,356.43798
				L422.69364,356.67801L421.97355,356.67801L421.97355,356.91803L421.49349,356.91803L421.49349,357.39809L420.7734,357.39809L
				420.7734,357.63811L420.05331,357.63811L420.05331,357.87814L419.33322,357.87814L419.33322,358.11816L418.61312,358.11816L418.61312,358.35819
				L418.13306,358.35819L418.13306,358.59821L417.17294,358.59821L417.17294,358.83824L416.45285,358.83824L416.45285,359.07826
				L415.73276,359.07826L415.73276,359.31829L415.01267,359.31829L415.01267,359.55832L414.53261,359.55832L414.53261,359.79834
				L413.81251,359.79834L413.81251,360.03837L413.09242,360.03837L413.09242,360.27839L412.37233,360.27839L412.37233,360.51842
				L411.41221,360.51842L411.41221,360.75844L410.93215,360.75844L410.93215,360.99847L410.21206,360.99847L410.21206,361.23849
				L409.49197,361.23849L409.49197,361.47852L408.77187,361.47852L408.77187,361.71855L408.53184,361.71855L408.53184,363.87878
				L408.29181,363.87878L408.29181,369.39936L408.05178,369.39936L408.05178,375.4L407.81175,375.4L407.81175,381.40064L407.57172,381.40064
				L407.57172,382.60077L368.68679,382.60077L368.68679,382.8408L368.44676,382.8408L368.44676,383.08082L368.20673,383.08082L368.20673,383.32085
				L367.9667,383.32085L367.9667,383.56087L367.72667,383.56087L367.72667,383.8009L367.48664,383.8009L367.48664,384.04092L367.00657,384.04092
				L367.00657,384.28095L366.76654,384.28095L366.76654,384.52098L366.52651,384.52098L366.52651,384.761L366.28648,384.761L366.28648,385.00103
				L366.04645,385.00103L366.04645,385.24105L365.80642,385.24105L365.80642,385.48108L365.56639,385.48108L365.56639,385.7211L
				365.32636,385.7211L365.32636,385.96113L365.08633,385.96113L365.08633,386.20115L364.8463,386.20115L364.8463,386.44118L364.60627,386.44118
				L364.60627,386.68121L364.36624,386.68121L364.36624,386.92123L364.12621,386.92123L364.12621,387.16126L363.88618,387.16126
				L363.88618,387.40128L363.64615,387.40128L363.64615,387.64131L363.40612,387.64131L363.40612,387.88133L363.16609,387.88133
				L363.16609,388.12136"/>
			<path clip-path="url(#SVG_CP_2)" fill="none" stroke="#999999" stroke-width="0.96012" stroke-miterlimit="10" stroke-linecap="round" stroke-linejoin="round" d="
				M278.67537,449.80793L277.95527,449.80793L277.95527,450.04796L276.99515,450.04796L276.99515,450.28798L276.03503,450.28798
				L276.03503,450.52801L275.795,450.52801L275.795,450.76803L275.55497,450.76803L275.55497,451.00806L275.07491,451.00806L275.07491,451.24809
				L274.83488,451.24809L274.83488,451.48811L274.35482,451.48811L274.35482,451.96816L274.11479,451.96816L274.11479,452.20819
				L273.87476,452.20819L273.87476,452.44821L273.3947,452.44821L273.3947,452.68824L273.15466,452.68824L273.15466,452.92826L272.43457,452.92826
				L272.43457,453.16829L272.19454,453.16829L272.19454,453.40832L271.71448,453.40832L271.71448,453.64834L271.47445,453.64834
				L271.47445,453.88837L271.23442,453.88837L271.23442,454.12839L270.75436,454.12839L270.75436,454.36842L270.51433,454.36842
				L270.51433,454.60844L270.03427,454.60844L270.03427,454.84847L269.79424,454.84847L269.79424,455.0885L269.07415,455.0885L269.07415,455.32852
				L268.59409,455.32852L268.59409,455.56855L267.87399,455.56855L267.87399,455.80857L267.1539,455.80857L267.1539,456.0486L266.67384,456.0486
				L266.67384,456.28862L265.71372,456.28862L265.71372,456.52865L265.23366,456.52865L265.23366,456.76867L264.51357,456.76867
				L264.51357,457.0087L264.03351,457.0087L264.03351,457.24873L263.31342,457.24873L263.31342,457.48875L262.83335,457.48875L262.83335,457.72878
				L262.11326,457.72878L262.11326,457.9688L261.39317,457.9688L261.39317,458.44885L260.91311,458.44885L260.91311,458.68888L260.19302,458.68888
				L260.19302,458.9289L259.47293,458.9289L259.47293,459.16893L258.75284,459.16893L258.75284,459.40896L258.03275,459.40896L258.03275,459.64898
				L257.55268,459.64898L257.55268,459.88901L256.83259,459.88901L256.83259,460.12903L256.35253,460.12903L256.35253,460.36906
				L255.63244,460.36906L255.63244,460.60908L254.91235,460.60908L254.91235,460.84911L254.43229,460.84911L254.43229,461.08913
				L253.47217,461.08913L253.47217,461.32916L252.75208,461.32916L252.75208,461.56919L252.27201,461.56919L252.27201,461.80921
				L251.55192,461.80921L251.55192,462.04924L251.07186,462.04924L251.07186,462.28926L250.35177,462.28926L250.35177,462.52929
				L249.63168,462.52929L249.63168,462.76931L249.15162,462.76931L249.15162,463.00934L248.43153,463.00934L248.43153,463.24936
				L247.71144,463.24936L247.71144,463.48939L246.99134,463.48939L246.99134,463.72942L246.27125,463.72942L246.27125,463.96944
				L245.55116,463.96944L245.55116,464.20947L244.83107,464.20947L244.83107,464.68952L244.35101,464.68952L244.35101,464.92954
				L243.63092,464.92954L243.63092,465.16957L242.91083,465.16957L242.91083,465.40959L242.19074,465.40959L242.19074,465.64962
				L241.47064,465.64962L241.47064,465.88965L240.51052,465.88965L240.51052,466.12967L239.79043,466.12967L239.79043,466.3697L
				239.07034,466.3697L239.07034,466.60972L238.35025,466.60972L238.35025,466.84975L237.63016,466.84975L237.63016,467.08977L236.91007,467.08977
				L236.91007,467.3298L236.43,467.3298L236.43,467.56983L235.70991,467.56983L235.70991,467.80985L235.46988,467.80985L235.46988,468.04988
				L234.98982,468.04988L234.98982,468.2899L234.50976,468.2899L234.50976,468.52993L234.0297,468.52993L234.0297,468.76995L235.46988,468.76995
				L235.46988,468.52993L246.99134,468.52993L246.99134,468.2899L247.71144,468.2899L247.71144,468.04988L248.1915,468.04988L248.1915,467.80985
				L248.67156,467.80985L248.67156,467.56983L249.39165,467.56983L249.39165,467.3298L249.87171,467.3298L249.87171,467.08977L250.11174,467.08977
				L250.11174,466.84975L250.35177,466.84975L250.35177,466.60972L250.5918,466.60972L250.5918,466.3697L250.83183,466.3697L250.83183,466.12967
				L251.07186,466.12967L251.07186,465.88965L251.31189,465.88965L251.31189,465.64962L251.55192,465.64962L251.55192,465.40959
				L252.03198,465.40959L252.03198,465.16957L252.27201,465.16957L252.27201,464.92954L252.51205,464.92954L252.51205,464.68952
				L252.75208,464.68952L252.75208,464.20947L252.99211,464.20947L252.99211,463.96944L253.23214,463.96944L253.23214,463.72942
				L253.47217,463.72942L253.47217,463.48939L254.19226,463.48939L254.19226,463.24936L254.43229,463.24936L254.43229,463.00934
				L254.67232,463.00934L254.67232,462.76931L254.91235,462.76931L254.91235,462.52929L255.15238,462.52929L255.15238,462.28926
				L255.39241,462.28926L255.39241,462.04924L255.63244,462.04924L255.63244,461.80921L256.1125,461.80921L256.1125,461.56919L256.35253,461.56919
				L256.35253,461.32916L256.59256,461.32916L256.59256,461.08913L256.83259,461.08913L256.83259,460.84911L257.07262,460.84911
				L257.07262,460.60908L257.31265,460.60908L257.31265,460.36906L257.79272,460.36906L257.79272,460.12903L258.03275,460.12903
				L258.03275,459.88901L260.19302,459.88901L260.19302,459.64898L260.43305,459.64898L260.43305,459.40896L260.67308,459.40896
				L260.67308,459.16893L261.15314,459.16893L261.15314,458.9289L261.87323,458.9289L261.87323,458.68888L262.59332,458.68888L262.59332,458.44885
				L263.07339,458.44885L263.07339,457.9688L263.79348,457.9688L263.79348,457.72878L264.27354,457.72878L264.27354,457.48875L264.99363,457.48875
				L264.99363,457.24873L265.47369,457.24873L265.47369,457.0087L266.43381,457.0087L266.43381,456.76867L267.1539,456.76867L267.1539,456.52865
				L268.83412,456.52865L268.83412,456.28862L269.07415,456.28862L269.07415,456.0486L269.31418,456.0486L269.31418,455.80857L269.55421,455.80857
				L269.55421,455.56855L269.79424,455.56855L269.79424,455.32852L270.03427,455.32852L270.03427,455.0885L270.51433,455.0885L270.51433,454.84847
				L270.99439,454.84847L270.99439,454.60844L271.47445,454.60844L271.47445,454.36842L272.19454,454.36842L272.19454,454.12839
				L272.91463,454.12839L272.91463,453.88837L273.3947,453.88837L273.3947,453.64834L274.11479,453.64834L274.11479,453.40832L274.59485,453.40832
				L274.59485,453.16829L275.07491,453.16829L275.07491,452.92826L275.55497,452.92826L275.55497,452.68824L276.27506,452.68824
				L276.27506,452.44821L276.51509,452.44821L276.51509,452.20819L276.75512,452.20819L276.75512,451.96816L276.99515,451.96816
				L276.99515,451.48811L277.23518,451.48811L277.23518,451.24809L277.47521,451.24809L277.47521,451.00806L277.71524,451.00806
				L277.71524,450.76803L277.95527,450.76803L277.95527,450.52801L278.1953,450.52801L278.1953,450.28798L278.43533,450.28798L278.43533,450.04796
				L278.67537,450.04796L278.67537,449.80793L279.15543,449.80793L279.15543,449.56791L279.87552,449.56791L279.87552,449.32788
				L280.83564,449.32788L280.83564,449.08786L281.55573,449.08786L281.55573,448.84783L282.51585,448.84783L282.51585,448.6078L
				283.23594,448.6078L283.23594,448.36778L283.95604,448.36778L283.95604,448.12775L284.67613,448.12775L284.67613,447.88773L285.39622,447.88773
				L285.39622,447.6477L286.11631,447.6477L286.11631,447.40768L286.8364,447.40768L286.8364,447.16765L287.55649,447.16765L287.55649,446.92763
				L288.27658,446.92763L288.27658,446.6876L288.99668,446.6876L288.99668,446.44757L289.71677,446.44757L289.71677,446.20755L290.19683,446.20755
				L290.19683,445.96752L290.67689,445.96752L290.67689,445.7275L291.15695,445.7275L291.15695,445.24745L290.91692,445.24745L290.91692,445.00742
				L291.15695,445.00742L291.15695,444.7674L290.67689,444.7674L290.67689,444.52737L290.91692,444.52737L290.91692,444.28734L290.43686,444.28734
				L290.43686,444.04732L290.67689,444.04732L290.67689,443.80729L290.19683,443.80729L290.19683,443.56727L290.43686,443.56727
				L290.43686,443.32724L289.9568,443.32724L289.9568,443.08722L290.19683,443.08722L290.19683,442.84719L289.9568,442.84719L289.9568,442.60717
				L290.19683,442.60717L290.19683,442.36714L289.71677,442.36714L289.71677,442.12711L289.9568,442.12711L289.9568,441.88709L289.47674,441.88709
				L289.47674,441.64706L289.71677,441.64706L289.71677,441.40704L289.23671,441.40704L289.23671,441.16701L289.47674,441.16701
				L289.47674,440.92699L288.99668,440.92699L288.99668,440.68696L289.23671,440.68696L289.23671,440.44693L288.99668,440.44693
				L288.99668,440.20691L289.23671,440.20691L289.23671,439.96688L288.51661,439.96688L288.51661,440.20691L288.27658,440.20691
				L288.27658,440.44693L288.03655,440.44693L288.03655,440.68696L287.79652,440.68696L287.79652,440.92699L287.55649,440.92699
				L287.55649,441.16701L287.31646,441.16701L287.31646,441.40704L287.07643,441.40704L287.07643,441.64706L286.8364,441.64706L
				286.8364,441.88709L286.59637,441.88709L286.59637,442.12711L286.35634,442.12711L286.35634,442.36714L286.11631,442.36714L286.11631,442.60717
				L285.87628,442.60717L285.87628,442.84719L285.63625,442.84719L285.63625,443.08722L285.39622,443.08722L285.39622,443.32724
				L284.91616,443.32724L284.91616,443.56727L284.67613,443.56727L284.67613,443.80729L284.4361,443.80729L284.4361,444.04732L284.19607,444.04732
				L284.19607,444.28734L283.95604,444.28734L283.95604,444.52737L283.716,444.52737L283.716,444.7674L283.47597,444.7674L283.47597,445.00742
				L283.23594,445.00742L283.23594,445.24745L282.99591,445.24745L282.99591,445.7275L282.75588,445.7275L282.75588,445.96752L282.51585,445.96752
				L282.51585,446.20755L282.27582,446.20755L282.27582,446.44757L282.03579,446.44757L282.03579,446.6876L281.79576,446.6876L281.79576,446.92763
				L281.55573,446.92763L281.55573,447.16765L281.3157,447.16765L281.3157,447.40768L281.07567,447.40768L281.07567,447.6477L280.83564,447.6477
				L280.83564,447.88773L280.59561,447.88773L280.59561,448.12775L280.35558,448.12775L280.35558,448.36778L280.11555,448.36778
				L280.11555,448.6078L279.87552,448.6078L279.87552,448.84783L279.63549,448.84783L279.63549,449.08786L279.39546,449.08786L279.39546,449.32788
				L279.15543,449.32788L279.15543,449.56791L278.67537,449.56791L278.67537,449.80793"/>
		</g>
</g></svg>