<?xml version="1.0" encoding="utf-8" standalone="no"?>
<!-- Creator: ESRI ArcMap 10.0.0.2414 -->
<!DOCTYPE svg PUBLIC "-//W3C//DTD SVG 1.1//EN"  "http://www.w3.org/Graphics/SVG/1.1/DTD/svg11.dtd">
<svg width="524.0420768pt" height="185.936928486pt" viewBox="32.15712744 328.160670757 524.0420768 185.936928486" enable-background="new 32.15712744 328.160670757 524.0420768 185.936928486"
	version="1.1" xmlns="http://www.w3.org/2000/svg" xmlns:xlink="http://www.w3.org/1999/xlink" >
	<g id="Couches">
		<g id="reservoirs">
			<clipPath id="SVG_CP_2">
				<path d="M574.39289,21.36228L21.36271,21.36228L21.36271,821.36753L574.39289,821.36753L574.39289,21.36228z"/>
			</clipPath>
			<path clip-path="url(#SVG_CP_2)" fill-opacity="0.2" fill="#2f4493" fill-rule="evenodd" stroke="#2f4493" stroke-width="1" stra="1.44018" stroke-miterlimit="10" stroke-linecap="round" stroke-linejoin="round" d="
				M97.6924,398.20243L108.7338,406.60333L115.45465,409.24361L118.33502,409.96369L121.21538,410.44374L123.85572,410.44374L128.4163,409.72366
				L130.09651,409.24361L131.05663,409.96369L132.49681,409.72366L133.21691,409.48364L133.69697,409.72366L133.45694,410.44374
				L132.97688,410.92379L133.21691,411.40384L133.69697,411.40384L134.41706,411.16381L135.13715,410.92379L135.37718,411.40384
				L135.37718,411.64387L134.65709,412.36394L132.97688,412.36394L132.25678,412.84399L132.25678,413.8041L134.65709,413.56407L
				130.8166,415.96433L133.45694,419.80474L132.97688,421.72494L132.49681,421.96497L124.57581,422.92507L122.41554,423.40512L110.65404,426.52545
				L110.17398,426.76548L103.93319,428.92571L98.17246,431.80601L90.49148,435.88645L88.81127,437.56663L86.89103,439.00678L80.65024,444.04732
				L77.04978,446.6876L74.40944,448.84783L71.04902,450.76803L68.64871,451.96816L65.76835,452.44821L64.80822,450.04796L63.60807,448.12775
				L57.36728,450.76803L55.68707,451.72814L53.52679,452.68824L53.04673,452.44821L51.84658,452.44821L50.88646,453.40832L49.92634,452.44821
				L49.92634,451.00806L49.44628,449.32788L46.56591,443.32724L47.52603,442.84719L49.68631,442.60717L50.64643,441.88709L53.28676,439.24681
				L56.16713,436.3665L56.16713,432.28607L56.16713,431.80601L56.16713,430.84591L58.80746,428.44566L60.48768,426.52545L62.16789,424.36522
				L64.32816,421.00486L74.40944,422.20499L74.64947,421.48491L76.32969,419.56471L78.48996,417.64451L79.45008,416.44438L80.65024,415.24425
				L81.61036,413.08402L84.73075,410.44374L85.45084,407.08338L85.45084,406.60333L85.93091,406.3633L86.89103,406.60333L87.61112,406.12328
				L88.09118,405.88325L88.09118,405.4032L87.61112,404.4431L87.85115,402.76292L81.37033,397.96241L83.05054,397.24233L83.05054,396.52225
				L84.01066,396.76228L84.73075,396.52225L86.651,397.96241L87.37109,398.44246L90.25145,398.20243L92.65176,394.84208L97.6924,398.20243
				z"/>
			<path clip-path="url(#SVG_CP_2)" fill-opacity="0.2" fill="#2f4493" fill-rule="evenodd" stroke="#2f4493" stroke-width="1" stra="1.44018" stroke-miterlimit="10" stroke-linecap="round" stroke-linejoin="round" d="
				M528.78711,350.19732L537.90826,354.99783L541.98878,357.63811L549.18969,361.71855L547.26945,363.87878L541.98878,368.91931
				L537.90826,372.99975L533.58771,377.08018L530.46732,379.96049L527.82698,376.84016L526.3868,378.04028L526.3868,378.52034L517.26564,384.52098
				L516.30552,385.00103L509.34464,393.1619L508.62455,394.84208L508.14449,395.0821L505.50415,396.52225L501.90369,398.92251L498.06321,401.08274
				L491.82241,403.72302L482.46123,407.80346L472.13992,412.12392L466.37919,414.28415L463.25879,415.96433L462.29867,414.7642L
				459.17827,416.44438L458.69821,415.7243L454.37766,418.12456L455.81785,420.52481L452.45742,422.44502L454.85772,426.52545L450.29714,429.64578
				L447.41678,431.32596L446.21663,431.80601L443.33626,435.16637L440.69593,434.68632L439.25574,434.20627L437.81556,433.48619
				L435.65529,431.08594L432.29486,434.20627L433.49501,435.64642L433.01495,435.88645L433.73504,437.08658L433.01495,437.80665
				L434.45513,439.48683L435.89532,438.04668L438.05559,439.96688L435.41526,451.48811L434.69516,452.20819L436.37538,455.80857
				L436.85544,457.48875L434.2151,458.68888L431.8148,460.12903L427.49425,463.24936L423.1737,458.68888L419.81328,461.32916L419.57325,461.08913
				L413.57248,465.64962L402.77111,469.49003L392.92986,477.6509L385.00886,469.49003L384.76883,469.73006L384.76883,472.37034L
				382.12849,474.77059L384.76883,477.17085L378.52804,483.17149L363.40612,496.61292L360.52575,497.57302L359.08557,497.81305L
				357.16533,498.2931L355.72514,498.2931L355.24508,496.13287L354.04493,496.37289L354.52499,498.2931L353.08481,498.53312L349.48435,499.01318
				L347.32408,499.49323L347.32408,499.01318L345.88389,499.49323L347.56411,503.57366L349.96441,508.13415L348.76426,508.13415
				L347.32408,507.89412L345.88389,507.89412L344.20368,508.13415L340.60322,508.6142L335.08252,509.5743L332.44219,510.05435L330.04188,510.05435
				L327.64158,509.81433L324.52118,509.33428L322.36091,509.09425L320.20063,508.37417L317.5603,507.17405L315.88009,506.45397L
				314.67993,505.73389L311.07948,504.05371L304.11859,500.45333L305.07872,497.81305L308.19911,498.2931L308.43914,498.05307L307.71905,497.09297
				L306.75893,496.61292L305.55878,495.89284L305.31875,495.41279L305.07872,493.49259L304.83869,492.05243L304.59865,490.85231
				L304.59865,489.8922L303.63853,490.61228L300.51814,493.01254L296.19759,496.37289L295.4775,495.89284L288.51661,491.81241L286.11631,490.37225
				L284.4361,489.41215L283.23594,488.69208L281.79576,487.73197L280.59561,486.53185L277.23518,483.17149L278.9154,480.77123L278.9154,479.81113
				L277.47521,479.33108L275.795,481.73133L275.07491,481.01126L273.63473,480.05116L264.27354,475.01062L259.2329,472.61036L255.87247,470.93018
				L260.43305,463.00934L260.91311,462.28926L260.91311,461.80921L260.67308,461.32916L260.19302,460.60908L259.95299,459.40896
				L259.95299,458.68888L259.47293,457.24873L259.47293,456.28862L259.2329,455.56855L258.27278,453.64834L257.79272,452.68824L
				257.31265,451.00806L256.83259,449.32788L256.35253,447.88773L255.87247,446.44757L255.63244,446.44757L254.91235,445.24745L
				254.43229,444.04732L253.95223,442.84719L253.47217,440.20691L252.99211,438.04668L252.75208,436.84655L252.03198,434.92635L
				251.07186,433.72622L250.5918,433.24617L250.11174,432.28607L252.03198,431.80601L252.03198,430.84591L252.03198,429.88581L252.99211,430.12584
				L253.23214,428.92571L253.95223,427.72558L257.07262,424.84527L256.83259,424.36522L256.1125,423.64514L256.59256,423.40512L
				259.2329,421.48491L258.03275,420.28479L257.31265,421.00486L256.1125,419.56471L254.91235,420.52481L253.7122,419.08466L254.91235,418.60461
				L254.67232,417.88453L255.39241,417.64451L255.15238,416.44438L255.39241,415.48427L255.39241,414.52417L255.63244,414.04412
				L255.63244,413.08402L255.63244,412.84399L255.39241,412.84399L255.63244,412.60397L255.63244,412.36394L255.15238,410.68376
				L254.19226,408.76356L253.95223,408.04348L253.7122,407.08338L253.95223,406.3633L253.95223,405.88325L254.19226,405.4032L254.43229,405.16318
				L255.39241,404.92315L256.35253,404.20307L257.55268,403.72302L257.79272,403.72302L259.2329,402.52289L259.71296,402.28287L
				260.19302,402.04284L261.39317,401.32277L264.51357,399.88261L264.99363,399.88261L265.95375,399.40256L268.35406,398.44246L
				270.99439,397.48236L273.63473,396.52225L276.03503,395.80218L278.1953,395.32213L280.11555,394.84208L283.23594,393.64195L285.15619,392.92187
				L286.11631,392.68185L286.8364,392.44182L287.79652,392.44182L288.75664,392.44182L289.71677,395.80218L292.83716,395.0821L293.07719,396.28223
				L296.19759,395.32213L294.99744,392.44182L296.43762,391.72174L298.35786,395.0821L299.07795,396.52225L302.43838,395.0821L302.43838,394.60205
				L302.19835,394.60205L303.15847,394.122L303.63853,393.88197L302.19835,389.56151L303.87856,388.84144L305.55878,388.36138L306.5189,387.88133
				L307.47902,387.40128L308.9192,385.96113L309.87933,386.68121L310.83945,385.7211L311.55954,385.48108L313.71981,388.60141L316.36015,387.16126
				L314.19987,383.56087L316.60018,382.12072L317.5603,383.56087L321.16076,381.40064L321.40079,381.88069L325.96137,379.24041L
				327.64158,382.60077L327.88161,382.36075L329.32179,384.761L333.40231,392.92187L334.36243,392.92187L335.32255,391.48172L337.2428,392.44182
				L338.44295,390.04156L336.04265,388.36138L334.1224,387.16126L335.32255,386.44118L334.36243,384.04092L334.36243,383.8009L333.88237,382.8408
				L333.88237,382.12072L334.1224,381.40064L334.60246,381.40064L336.04265,380.92059L335.08252,377.80026L334.84249,376.60013L
				335.32255,376.36011L333.88237,373.4798L338.20292,371.55959L338.92301,372.99975L340.12316,372.27967L342.04341,371.31957L342.28344,371.07954
				L343.24356,372.75972L350.20444,369.39936L348.52423,365.31893L358.36548,361.71855L356.68526,356.91803L358.12545,356.91803
				L359.80566,356.91803L360.76578,357.15806L362.446,357.15806L363.88618,357.15806L365.56639,356.91803L367.48664,356.19796L367.9667,355.95793
				L370.84706,355.71791L372.52728,354.99783L374.44752,354.27775L375.8877,353.7977L379.48816,352.59757L382.12849,350.43734L384.04874,349.47724
				L386.20901,349.23722L390.0495,356.91803L390.52956,356.91803L395.81023,354.27775L397.73047,358.35819L399.65072,361.23849L
				393.64996,363.87878L393.16989,364.1188L397.49044,373.4798L403.25117,370.59949L403.97127,370.35947L405.41145,369.87942L408.53184,369.87942
				L408.29181,372.5197L409.97203,373.95985L414.29258,378.52034L416.93291,380.92059L417.17294,381.16062L420.29334,384.28095L
				422.93367,387.88133L422.21358,388.60141L422.69364,389.08146L424.61389,391.48172L430.37462,385.48108L438.53565,378.04028L
				442.8562,374.67993L445.2565,372.75972L447.89684,369.87942L451.4973,366.03901L451.4973,363.87878L451.97736,362.67865L453.41754,360.99847
				L454.37766,359.79834L455.09775,358.83824L456.77797,355.71791L457.73809,353.55768L457.25803,352.8376L456.77797,352.11752L
				457.97812,350.91739L459.4183,349.47724L460.13839,348.75716L460.61845,348.03709L461.33855,347.55704L462.77873,348.51714L464.69897,346.11688
				L470.93976,351.39745L473.5801,348.51714L480.06092,354.51778L482.70126,351.63747L485.10156,353.7977L487.50187,350.91739L483.18132,347.31701
				L483.90141,346.35691L485.58162,344.4367L487.0218,342.99655L489.18208,342.03645L490.1422,341.5564L496.14296,335.31573L498.54327,332.43543
				L509.8247,339.39617L514.38528,342.03645L517.02561,343.4766L520.62607,345.63683L526.3868,348.75716L528.78711,350.19732L528.78711,350.19732
				z"/>
		</g>
</g></svg>