<?xml version="1.0" encoding="utf-8" standalone="no"?>
<!-- Creator: ESRI ArcMap 10.0.0.2414 -->
<!DOCTYPE svg PUBLIC "-//W3C//DTD SVG 1.1//EN"  "http://www.w3.org/Graphics/SVG/1.1/DTD/svg11.dtd">
<svg width="512.251342273pt" height="741.1872776pt" viewBox="41.6255088635 45.48194658 512.251342273 741.1872776" enable-background="new 41.6255088635 45.48194658 512.251342273 741.1872776"
	version="1.1" xmlns="http://www.w3.org/2000/svg" xmlns:xlink="http://www.w3.org/1999/xlink" >
	<g id="Couches">
		<g id="cont_2">
			<path clip-path="url(#SVG_CP_2)" fill="none" stroke="#999999" stroke-width="0.96012" stroke-miterlimit="10" stroke-linecap="round" stroke-linejoin="round" d="
				M255.39241,329.07507L255.39241,328.83504L255.63244,328.83504L255.63244,329.07507L255.39241,329.07507"/>
			<path clip-path="url(#SVG_CP_2)" fill="none" stroke="#999999" stroke-width="0.96012" stroke-miterlimit="10" stroke-linecap="round" stroke-linejoin="round" d="
				M265.47369,341.5564L265.47369,341.07635L265.71372,341.07635L265.71372,341.31637L265.95375,341.31637L265.95375,341.79642L
				265.71372,341.79642L265.71372,341.5564L265.47369,341.5564"/>
			<path clip-path="url(#SVG_CP_2)" fill="none" stroke="#999999" stroke-width="0.96012" stroke-miterlimit="10" stroke-linecap="round" stroke-linejoin="round" d="
				M266.43381,344.4367L266.43381,344.91676L266.19378,344.91676L266.19378,344.4367L266.43381,344.4367"/>
			<path clip-path="url(#SVG_CP_2)" fill="none" stroke="#999999" stroke-width="0.96012" stroke-miterlimit="10" stroke-linecap="round" stroke-linejoin="round" d="
				M267.87399,379.24041L267.87399,372.75972L267.63396,372.75972L267.63396,372.5197L267.39393,372.5197L267.39393,366.27903L267.1539,366.27903
				L267.1539,359.79834L266.91387,359.79834L266.91387,348.03709L266.67384,348.03709L266.67384,344.4367L266.43381,344.4367L266.43381,341.5564
				L266.19378,341.5564L266.19378,341.31637L265.95375,341.31637L265.95375,340.59629L265.71372,340.59629L265.71372,340.35627L
				265.47369,340.35627L265.47369,340.11624L265.23366,340.11624L265.23366,339.87622L264.99363,339.87622L264.99363,339.63619L
				264.7536,339.63619L264.7536,339.39617L264.51357,339.39617L264.51357,339.15614L264.27354,339.15614L264.27354,338.91612L264.03351,338.91612
				L264.03351,338.19604L263.79348,338.19604L263.79348,337.95601L263.55345,337.95601L263.55345,337.71599L263.31342,337.71599
				L263.31342,337.47596L263.07339,337.47596L263.07339,337.23594L262.83335,337.23594L262.83335,336.99591L262.59332,336.99591
				L262.59332,336.75589L262.35329,336.75589L262.35329,336.51586L262.11326,336.51586L262.11326,335.79578L261.87323,335.79578
				L261.87323,335.55576L261.6332,335.55576L261.6332,335.31573L261.39317,335.31573L261.39317,335.07571L261.15314,335.07571L261.15314,334.83568
				L260.91311,334.83568L260.91311,334.59566L260.67308,334.59566L260.67308,334.35563L260.67308,334.1156L260.43305,334.1156L260.43305,333.87558
				L260.19302,333.87558L260.19302,333.63555L259.95299,333.63555L259.95299,333.1555L259.71296,333.1555L259.71296,332.91548L259.47293,332.91548
				L259.47293,332.67545L259.2329,332.67545L259.2329,332.43543L258.99287,332.43543L258.99287,332.1954L258.75284,332.1954L258.75284,331.95537
				L258.51281,331.95537L258.51281,331.71535L258.27278,331.71535L258.27278,331.47532L258.03275,331.47532L258.03275,331.2353L
				257.79272,331.2353L257.79272,330.75525L257.55268,330.75525L257.55268,330.51522L257.31265,330.51522L257.31265,330.27519L257.07262,330.27519
				L257.07262,330.03517L256.83259,330.03517L256.83259,329.79514L256.59256,329.79514L256.59256,329.55512L256.35253,329.55512
				L256.35253,329.31509L256.1125,329.31509L256.1125,329.07507L255.87247,329.07507L255.87247,328.83504L255.63244,328.83504L255.39241,328.83504
				L255.39241,328.59502L255.15238,328.59502L255.15238,328.35499L254.91235,328.35499L254.91235,328.11496L254.67232,328.11496
				L254.67232,327.87494L254.43229,327.87494L254.43229,327.63491L254.19226,327.63491L254.19226,327.39489L253.95223,327.39489
				L253.95223,327.15486L253.7122,327.15486L253.7122,326.91484L253.47217,326.91484L253.47217,326.67481L253.23214,326.67481L253.23214,326.43479
				L252.99211,326.43479L252.99211,326.19476L252.75208,326.19476L252.75208,325.95473L252.51205,325.95473L252.51205,325.71471
				L252.27201,325.71471L252.27201,325.47468L252.03198,325.47468L252.03198,325.23466L251.79195,325.23466L251.79195,324.99463
				L251.55192,324.99463L251.55192,324.75461L251.31189,324.75461L251.31189,318.51394L251.07186,318.51394L251.07186,318.27392
				L250.83183,318.27392L250.83183,318.03389L250.5918,318.03389L250.5918,317.79386L250.35177,317.79386L250.35177,317.55384L250.11174,317.55384
				L250.11174,317.31381L249.87171,317.31381L249.87171,317.07379L249.63168,317.07379L249.63168,316.83376L249.39165,316.83376
				L249.39165,316.59374L249.15162,316.59374L249.15162,316.35371L248.91159,316.35371L248.91159,316.11369L248.67156,316.11369
				L248.67156,315.87366L248.43153,315.87366L248.43153,315.63363L248.1915,315.63363L248.1915,315.39361L247.95147,315.39361L247.95147,315.15358
				L247.71144,315.15358L247.71144,314.91356L247.47141,314.91356L247.47141,314.67353L247.23137,314.67353L247.23137,314.43351
				L246.99134,314.43351L246.99134,314.19348L246.75131,314.19348L246.75131,313.95346L246.51128,313.95346L246.51128,313.71343
				L246.27125,313.71343L246.27125,313.4734L246.03122,313.4734L246.03122,313.23338L245.79119,313.23338L245.79119,312.99335L245.55116,312.99335
				L245.55116,312.75333L245.31113,312.75333L245.31113,312.5133L245.0711,312.5133L245.0711,312.27328L244.83107,312.27328L244.83107,312.03325
				L244.59104,312.03325L244.59104,311.79323L244.35101,311.79323L244.35101,311.5532L244.11098,311.5532L244.11098,311.31317L243.87095,311.31317
				L243.87095,311.07315L243.63092,311.07315L243.63092,310.83312L243.39089,310.83312L243.39089,310.5931L243.15086,310.5931L243.15086,310.35307
				L242.91083,310.35307L242.91083,310.11305L242.6708,310.11305L242.6708,309.87302L242.43077,309.87302L242.43077,309.633L242.19074,309.633
				L242.19074,309.39297L241.9507,309.39297L241.9507,309.15294L241.71067,309.15294L241.71067,308.91292L241.47064,308.91292L241.47064,308.67289
				L241.23061,308.67289L241.23061,308.43287L240.99058,308.43287L240.99058,308.19284L240.75055,308.19284L240.75055,307.95282
				L240.51052,307.95282L240.27049,307.95282L240.27049,307.71279L240.03046,307.71279L240.03046,307.47277L240.51052,307.47277
				L240.51052,307.23274L240.99058,307.23274L240.99058,306.99271L241.23061,306.99271L241.23061,306.75269L241.71067,306.75269
				L241.71067,306.51266L241.9507,306.51266L241.9507,306.27264L242.43077,306.27264L242.43077,306.03261L242.6708,306.03261L242.6708,305.79259
				L243.15086,305.79259L243.15086,305.55256L243.63092,305.55256L243.63092,305.31253L243.87095,305.31253L243.87095,305.07251
				L244.35101,305.07251L244.35101,304.83248L244.59104,304.83248L244.59104,304.59246L245.0711,304.59246L245.0711,304.35243L245.31113,304.35243
				L245.31113,304.11241L245.79119,304.11241L245.79119,303.87238L246.27125,303.87238L246.27125,303.63236L246.51128,303.63236
				L246.51128,303.39233L246.99134,303.39233L246.99134,303.1523L247.47141,303.1523L247.47141,302.91228L247.71144,302.91228L247.71144,302.67225
				L248.1915,302.67225L248.1915,302.43223L248.67156,302.43223L248.67156,302.1922L249.15162,302.1922L249.15162,301.95218L249.63168,301.95218
				L249.63168,301.71215L249.87171,301.71215L249.87171,301.47213L250.35177,301.47213L250.35177,301.2321L250.83183,301.2321L250.83183,300.99207
				L251.31189,300.99207L251.31189,300.75205L251.79195,300.75205L251.79195,300.51202L252.27201,300.51202L252.27201,300.272L252.75208,300.272
				L252.75208,300.03197L253.23214,300.03197L253.23214,299.79195L253.7122,299.79195L253.7122,299.55192L254.19226,299.55192L254.19226,299.3119
				L254.67232,299.3119L254.67232,299.07187L255.39241,299.07187L255.39241,298.83184L255.87247,298.83184L255.87247,298.59182L
				256.59256,298.59182L256.59256,298.35179L257.07262,298.35179L257.07262,298.11177L257.55268,298.11177L257.55268,297.87174L
				258.03275,297.87174L258.03275,297.63172L259.2329,297.63172L259.2329,297.39169L260.19302,297.39169L260.19302,297.15167L260.91311,297.15167
				L260.91311,296.91164L262.11326,296.91164L262.11326,296.67161L263.07339,296.67161L263.07339,296.43159L264.03351,296.43159
				L264.03351,296.19156L265.23366,296.19156L265.23366,295.95154L266.19378,295.95154L266.19378,295.71151L267.1539,295.71151L
				267.1539,295.47149L268.35406,295.47149L268.35406,295.23146L269.31418,295.23146L269.31418,294.99144L270.2743,294.99144L270.2743,294.75141
				L271.23442,294.75141L271.23442,294.51138L272.19454,294.51138L272.19454,294.27136L272.6746,294.27136L272.6746,294.03133L273.15466,294.03133
				L273.15466,293.79131L273.63473,293.79131L273.63473,293.55128L274.11479,293.55128L274.11479,293.31126L274.59485,293.31126
				L274.59485,293.07123L275.31494,293.07123L275.31494,292.8312L275.795,292.8312L275.795,292.59118L276.27506,292.59118L276.27506,292.35115
				L276.75512,292.35115L276.75512,292.11113L277.23518,292.11113L277.23518,291.8711L277.71524,291.8711L277.71524,291.63108L278.1953,291.63108
				L278.1953,291.39105L278.9154,291.39105L278.9154,291.15103L279.39546,291.15103L279.39546,290.911L279.87552,290.911L279.87552,290.67097
				L280.35558,290.67097L280.35558,290.43095L280.83564,290.43095L280.83564,290.19092L281.3157,290.19092L281.3157,289.9509L281.79576,289.9509
				L281.79576,289.71087L282.27582,289.71087L282.27582,289.47085L282.75588,289.47085L282.75588,289.23082L283.23594,289.23082
				L283.23594,288.9908L283.716,288.9908L283.716,288.75077L284.19607,288.75077L284.19607,288.51074L284.91616,288.51074L284.91616,288.27072
				L285.39622,288.27072L285.39622,288.03069L285.87628,288.03069L285.87628,287.79067L286.35634,287.79067L286.35634,287.55064
				L286.8364,287.55064L286.8364,287.31062L287.31646,287.31062L287.79652,287.31062L287.79652,287.07059L288.51661,287.07059L288.51661,286.83057
				L288.99668,286.83057L288.99668,286.59054L289.47674,286.59054L289.47674,286.35051L289.9568,286.35051L289.9568,286.11049L290.43686,286.11049
				L290.43686,285.87046L290.91692,285.87046L290.91692,285.63044L291.39698,285.63044L291.39698,285.39041L291.87704,285.39041
				L291.87704,285.15039L292.3571,285.15039L292.3571,284.91036L292.83716,284.91036L292.83716,284.67034L293.31722,284.67034L293.31722,284.43031
				L293.79728,284.43031L293.79728,284.19028L294.27735,284.19028L294.27735,283.95026L294.75741,283.95026L294.75741,283.71023
				L295.23747,283.71023L295.23747,283.47021L295.71753,283.47021L295.71753,283.23018L296.19759,283.23018L296.19759,282.99016
				L296.67765,282.99016L296.67765,282.75013L297.15771,282.75013L297.15771,282.51011L297.63777,282.51011L297.63777,282.27008
				L298.11783,282.27008L298.11783,282.03005L298.59789,282.03005L298.59789,281.79003L299.07795,281.79003L299.07795,281.55L299.55802,281.55
				L299.55802,281.30998L300.03808,281.30998L300.03808,281.06995L300.51814,281.06995L300.51814,280.82993L300.9982,280.82993L
				300.9982,280.5899L301.47826,280.5899L301.47826,280.34987L301.95832,280.34987L301.95832,280.10985L302.19835,280.10985L302.19835,279.86982
				L302.67841,279.86982L302.67841,279.6298L303.15847,279.6298L303.15847,279.38977L303.63853,279.38977L303.63853,279.14975L304.11859,279.14975
				L304.11859,278.90972L304.59865,278.90972L304.59865,278.6697L305.07872,278.6697L305.07872,278.42967L305.55878,278.42967L305.55878,278.18964
				L306.03884,278.18964L306.03884,277.94962L306.5189,277.94962L306.5189,277.70959L306.99896,277.70959L306.99896,277.46957L307.47902,277.46957
				L307.47902,277.22954L307.71905,277.22954L307.71905,276.98952L308.19911,276.98952L308.19911,276.74949L308.67917,276.74949
				L308.67917,276.50947L308.9192,276.50947L308.9192,276.26944L309.39926,276.26944L309.39926,276.02941L309.63929,276.02941L309.63929,275.78939
				L310.11936,275.78939L310.11936,275.54936L310.59942,275.54936L310.59942,275.30934L310.83945,275.30934L310.83945,275.06931
				L311.31951,275.06931L311.31951,274.82929L311.79957,274.82929L311.79957,274.58926L312.0396,274.58926L312.0396,274.34924L312.51966,274.34924
				L312.51966,274.10921L312.75969,274.10921L312.75969,273.86918L313.23975,273.86918L313.23975,273.62916L313.71981,273.62916
				L313.71981,273.38913L313.95984,273.38913L313.95984,273.14911L314.4399,273.14911L314.4399,272.90908L314.91996,272.90908L314.91996,272.66906
				L315.16,272.66906L315.16,272.42903L315.64006,272.42903L315.64006,272.18901L316.12012,272.18901L316.12012,271.94898L316.36015,271.94898
				L316.36015,271.70895L316.84021,271.70895L316.84021,271.46893L317.08024,271.46893L317.08024,271.2289L317.5603,271.2289L317.5603,270.98888
				L318.04036,270.98888L318.04036,270.74885L318.28039,270.74885L318.28039,270.50883L318.76045,270.50883L318.76045,270.2688L
				319.00048,270.2688L319.00048,270.02877L319.24051,270.02877L319.24051,269.78875L319.72057,269.78875L319.72057,269.54872L319.9606,269.54872
				L319.9606,269.3087L320.20063,269.3087L320.20063,269.06867L320.44067,269.06867L320.44067,268.82865L320.6807,268.82865L320.6807,268.58862
				L320.92073,268.58862L320.92073,268.3486L321.40079,268.3486L321.40079,268.10857L321.64082,268.10857L321.64082,267.86854L321.88085,267.86854
				L321.88085,267.62852L322.12088,267.62852L322.12088,267.38849L322.36091,267.38849L322.36091,267.14847L322.60094,267.14847
				L322.60094,266.90844L322.84097,266.90844L322.84097,266.66842L323.081,266.66842L323.081,266.42839L323.32103,266.42839L323.56106,266.42839
				L323.56106,266.18837L323.80109,266.18837L323.80109,265.94834L324.04112,265.94834L324.04112,265.70831L324.52118,265.70831
				L324.52118,265.46829L324.76121,265.46829L324.76121,265.22826L325.00124,265.22826L325.00124,264.98824L325.24127,264.98824
				L325.24127,264.74821L325.48131,264.74821L325.48131,264.50819L325.72134,264.50819L325.72134,264.26816L326.2014,264.26816L
				326.2014,264.02814L326.44143,264.02814L326.44143,263.78811L326.68146,263.78811L326.68146,263.54808L326.92149,263.54808L326.92149,263.30806
				L327.16152,263.30806L327.16152,263.06803L327.40155,263.06803L327.40155,262.82801L327.88161,262.82801L327.88161,262.58798
				L328.12164,262.58798L328.12164,262.34796L328.36167,262.34796L328.36167,262.10793L328.6017,262.10793L328.6017,261.86791L328.84173,261.86791
				L328.84173,261.62788L329.08176,261.62788L329.08176,262.34796L328.84173,262.34796L328.84173,263.06803L328.6017,263.06803L
				328.6017,263.30806L328.36167,263.30806L328.36167,263.78811L328.12164,263.78811L328.12164,264.02814L327.64158,264.02814L327.64158,264.50819
				L327.40155,264.50819L327.40155,264.74821L327.16152,264.74821L327.16152,264.98824L326.92149,264.98824L326.92149,265.22826
				L326.68146,265.22826L326.68146,265.46829L326.44143,265.46829L326.44143,265.94834L326.2014,265.94834L326.2014,266.18837L325.96137,266.18837
				L325.96137,266.42839L325.72134,266.42839L325.48131,266.42839L325.48131,266.66842L325.24127,266.66842L325.24127,266.90844
				L325.00124,266.90844L325.00124,267.14847L324.76121,267.14847L324.76121,267.38849L324.52118,267.38849L324.52118,267.86854
				L324.04112,267.86854L324.04112,268.3486L323.80109,268.3486L323.80109,268.82865L323.32103,268.82865L323.32103,269.06867L323.081,269.06867
				L323.081,269.3087L322.84097,269.3087L322.84097,269.78875L322.84097,270.02877L322.60094,270.02877L322.60094,270.2688L322.36091,270.2688
				L322.36091,270.50883L322.12088,270.50883L322.12088,270.74885L321.88085,270.74885L321.88085,271.2289L321.64082,271.2289L321.64082,271.46893
				L321.40079,271.46893L321.40079,271.70895L321.16076,271.70895L321.16076,271.94898L320.92073,271.94898L320.92073,272.18901
				L320.6807,272.18901L320.6807,272.66906L320.44067,272.66906L320.44067,272.90908L320.20063,272.90908L320.20063,273.14911L319.9606,273.14911
				L319.9606,273.38913L319.72057,273.38913L319.72057,273.62916L319.48054,273.62916L319.48054,273.86918L319.24051,273.86918L
				319.24051,274.10921L319.00048,274.10921L319.00048,274.34924L318.76045,274.34924L318.76045,274.58926L318.52042,274.58926L
				318.52042,275.06931L318.28039,275.06931L318.28039,275.30934L318.04036,275.30934L318.04036,275.54936L317.80033,275.54936L
				317.80033,275.78939L317.5603,275.78939L317.5603,276.02941L317.32027,276.02941L317.32027,276.26944L317.08024,276.26944L317.08024,279.6298
				L316.84021,279.6298L316.84021,280.10985L317.08024,280.10985L317.08024,281.79003L317.32027,281.79003L317.32027,282.51011L
				317.08024,282.51011L317.08024,283.47021L317.32027,283.47021L317.32027,285.87046L317.5603,285.87046L317.5603,287.31062L317.80033,287.31062
				L317.80033,288.51074L317.5603,288.51074L317.5603,289.71087L317.32027,289.71087L317.32027,296.43159L317.5603,296.43159L317.5603,298.35179
				L317.80033,298.35179L317.80033,304.11241L318.04036,304.11241L318.04036,304.35243L317.80033,304.35243L317.80033,306.51266
				L317.5603,306.51266L317.5603,307.95282L317.32027,307.95282L317.32027,309.87302L317.5603,309.87302L317.5603,314.91356L317.80033,314.91356
				L317.80033,321.15422L317.5603,321.15422L317.5603,323.07443L317.32027,323.07443L317.32027,324.03453L317.08024,324.03453L317.08024,324.51458
				L316.84021,324.51458L316.84021,325.47468L316.60018,325.47468L316.60018,326.19476L316.36015,326.19476L316.36015,326.91484
				L316.12012,326.91484L316.12012,327.63491L315.88009,327.63491L315.88009,328.59502L315.64006,328.59502L315.64006,329.07507
				L315.40003,329.07507L315.40003,329.79514L315.16,329.79514L315.16,330.51522L314.91996,330.51522L314.91996,330.99527L314.67993,330.99527
				L314.67993,331.95537L314.4399,331.95537L314.4399,332.43543L314.19987,332.43543L314.19987,333.39553L313.95984,333.39553L313.95984,334.1156
				L313.71981,334.1156L313.71981,334.83568L313.47978,334.83568L313.47978,335.55576L313.23975,335.55576L313.23975,336.27583L
				312.99972,336.27583L312.99972,336.75589L312.75969,336.75589L312.75969,337.47596L312.51966,337.47596L312.51966,337.95601L
				312.27963,337.95601L312.27963,338.67609L312.0396,338.67609L312.0396,339.15614L311.79957,339.15614L311.79957,339.87622L311.55954,339.87622
				L311.55954,340.59629L311.31951,340.59629L311.31951,341.07635L311.07948,341.07635L311.07948,341.79642L310.83945,341.79642
				L310.83945,342.27647L310.59942,342.27647L310.59942,342.75652L310.35939,342.75652L310.35939,343.23658L310.11936,343.23658
				L310.11936,343.95665L309.87933,343.95665L309.87933,344.4367L309.63929,344.4367L309.63929,344.91676L309.39926,344.91676L309.39926,345.39681
				L309.15923,345.39681L309.15923,346.11688L308.9192,346.11688L308.9192,346.59693L308.67917,346.59693L308.67917,347.07699L308.43914,347.07699
				L308.43914,347.55704L308.19911,347.55704L308.19911,348.03709L307.95908,348.03709L307.95908,348.51714L307.71905,348.51714
				L307.71905,349.23722L307.47902,349.23722L307.47902,349.47724L307.23899,349.47724L307.23899,349.95729L306.99896,349.95729
				L306.99896,350.43734L306.75893,350.43734L306.75893,350.91739L306.5189,350.91739L306.5189,351.39745L306.27887,351.39745L306.27887,352.11752
				L306.03884,352.11752L306.03884,352.59757L305.79881,352.59757L305.79881,353.07762L305.55878,353.07762L305.55878,353.55768
				L305.31875,353.55768L305.31875,354.03773L305.07872,354.03773L305.07872,354.51778L304.83869,354.51778L304.83869,354.99783
				L304.59865,354.99783L304.59865,355.47788L304.35862,355.47788L304.35862,355.95793L304.11859,355.95793L304.11859,356.43798
				L303.87856,356.43798L303.87856,356.67801L303.63853,356.67801L303.63853,357.15806L303.3985,357.15806L303.3985,357.39809L303.15847,357.39809
				L303.15847,357.63811L302.91844,357.63811L302.91844,358.11816L302.67841,358.11816L302.67841,358.35819L302.43838,358.35819
				L302.43838,358.59821L302.19835,358.59821L302.19835,358.83824L302.19835,359.31829L301.95832,359.31829L301.95832,359.55832
				L301.71829,359.55832L301.71829,359.79834L301.47826,359.79834L301.47826,360.03837L301.23823,360.03837L301.23823,360.51842
				L300.9982,360.51842L300.9982,360.75844L300.75817,360.75844L300.75817,360.99847L300.51814,360.99847L300.51814,361.47852L300.27811,361.47852
				L300.27811,361.71855L300.03808,361.71855L300.03808,361.95857L299.79805,361.95857L299.79805,362.43862L299.55802,362.43862
				L299.55802,362.67865L299.31798,362.67865L299.31798,362.91867L299.07795,362.91867L299.07795,363.39872L298.83792,363.39872
				L298.83792,363.63875L298.59789,363.63875L298.59789,363.87878L298.35786,363.87878L298.35786,364.1188L298.11783,364.1188L298.11783,364.59885
				L297.8778,364.59885L297.8778,364.83888L297.63777,364.83888L297.63777,365.0789L297.39774,365.0789L297.39774,365.55895L297.15771,365.55895
				L297.15771,365.79898L296.91768,365.79898L296.91768,366.27903L296.67765,366.27903L296.67765,366.99911L296.43762,366.99911
				L296.43762,367.47916L296.19759,367.47916L296.19759,368.19924L295.95756,368.19924L295.95756,368.67929L295.71753,368.67929
				L295.71753,369.39936L295.4775,369.39936L295.4775,369.87942L295.23747,369.87942L295.23747,370.35947L294.99744,370.35947L294.99744,370.83952
				L294.75741,370.83952L294.75741,371.31957L294.51738,371.31957L294.51738,372.03965L294.27735,372.03965L294.27735,372.5197L
				294.03731,372.5197L294.03731,373.23977L293.79728,373.23977L293.79728,373.71982L293.55725,373.71982L293.55725,374.4399L293.31722,374.4399
				L293.31722,374.91995L293.07719,374.91995L293.07719,375.64003L292.83716,375.64003L292.83716,376.12008L292.59713,376.12008
				L292.59713,376.84016L292.3571,376.84016L292.3571,377.32021L292.11707,377.32021L292.11707,378.04028L291.87704,378.04028L291.87704,378.52034
				L291.63701,378.52034L291.63701,379.00039L291.39698,379.00039L291.39698,379.72046L291.15695,379.72046L291.15695,380.20051
				L290.91692,380.20051L290.91692,380.92059L290.67689,380.92059L290.67689,381.40064L290.43686,381.40064L290.43686,382.12072
				L290.19683,382.12072L290.19683,382.60077L289.9568,382.60077L289.9568,383.08082L289.71677,383.08082L289.71677,383.8009L289.47674,383.8009
				L289.47674,384.28095L289.23671,384.28095L289.23671,385.00103L288.99668,385.00103L288.99668,385.7211L288.75664,385.7211L288.75664,386.20115
				L288.51661,386.20115L288.51661,386.68121L288.27658,386.68121L288.27658,387.40128L288.03655,387.40128L288.03655,387.88133
				L287.79652,387.88133L287.79652,388.36138L287.55649,388.36138L287.55649,389.08146L287.31646,389.08146L287.31646,389.56151
				L287.07643,389.56151L287.07643,390.28159L286.8364,390.28159L286.8364,390.76164L286.59637,390.76164L286.59637,392.20179L286.8364,392.20179
				L286.8364,392.92187L287.07643,392.92187L287.07643,394.122L287.31646,394.122L287.31646,394.84208L287.55649,394.84208L287.55649,395.0821
				L287.79652,395.0821L287.79652,395.32213L288.51661,395.32213L288.51661,395.56215L288.75664,395.56215L288.75664,395.80218L
				288.99668,395.80218L288.99668,396.0422"/>
			<path clip-path="url(#SVG_CP_2)" fill="none" stroke="#999999" stroke-width="0.96012" stroke-miterlimit="10" stroke-linecap="round" stroke-linejoin="round" d="
				M288.99668,396.0422L289.71677,396.0422L289.71677,396.28223L289.9568,396.28223L289.9568,396.52225L290.67689,396.52225L290.67689,396.76228
				L290.91692,396.76228L290.91692,397.00231L291.39698,397.00231L291.39698,397.24233L291.87704,397.24233L291.87704,397.48236
				L292.3571,397.48236L292.3571,397.72238L292.59713,397.72238L292.59713,397.96241L293.07719,397.96241L293.07719,398.20243L293.55725,398.20243
				L293.55725,398.44246L294.03731,398.44246L294.03731,398.68248L294.51738,398.68248L294.51738,398.92251L294.75741,398.92251
				L294.75741,398.68248L295.95756,398.68248L295.95756,398.44246L297.39774,398.44246L297.39774,398.20243L302.43838,398.20243
				L302.43838,397.96241L303.3985,397.96241L303.3985,398.20243L303.63853,398.20243L303.63853,397.96241L303.87856,397.96241L303.87856,398.20243
				L304.59865,398.20243L304.59865,398.44246L305.07872,398.44246L305.07872,398.68248L305.79881,398.68248L305.79881,398.92251
				L306.27887,398.92251L306.27887,399.16254L306.5189,399.16254L306.5189,399.40256L306.75893,399.40256L306.75893,399.64259L306.99896,399.64259
				L306.99896,399.88261L307.23899,399.88261L307.23899,400.12264L307.47902,400.12264L307.47902,400.36266L307.71905,400.36266
				L307.71905,400.84271L307.95908,400.84271L307.95908,401.08274L308.19911,401.08274L308.19911,401.32277L308.43914,401.32277
				L308.43914,401.56279L308.67917,401.56279L308.67917,401.80282L308.9192,401.80282L308.9192,402.04284L309.15923,402.04284L309.15923,402.28287
				L309.39926,402.28287L309.39926,402.52289L309.63929,402.52289L309.63929,402.76292L309.87933,402.76292L309.87933,403.00294
				L310.11936,403.00294L310.11936,403.24297L310.59942,403.24297L310.59942,403.483L311.79957,403.483L311.79957,403.72302L312.75969,403.72302
				L312.75969,403.96305L315.88009,403.96305L315.88009,403.72302L318.28039,403.72302L318.28039,403.483L322.60094,403.483L322.60094,403.72302
				L323.80109,403.72302L323.80109,403.96305L324.76121,403.96305L324.76121,404.20307L324.28115,404.20307L324.28115,404.4431L
				323.80109,404.4431L323.80109,404.68312L323.32103,404.68312L323.32103,404.92315L322.84097,404.92315L322.84097,405.16318L322.36091,405.16318
				L322.36091,405.4032L321.88085,405.4032L321.88085,405.64323L321.16076,405.64323L321.16076,405.88325L320.6807,405.88325L320.6807,406.12328
				L320.20063,406.12328L320.20063,406.3633L319.72057,406.3633L319.72057,406.60333L319.00048,406.60333L319.00048,406.84335L318.52042,406.84335
				L318.52042,407.08338L318.04036,407.08338L318.04036,407.32341L317.32027,407.32341L317.32027,407.56343L316.84021,407.56343
				L316.84021,407.80346L316.36015,407.80346L316.36015,408.04348L315.88009,408.04348L315.88009,408.28351L315.16,408.28351L315.16,408.52353
				L314.67993,408.52353L314.67993,408.76356L314.19987,408.76356L314.19987,409.00358L313.71981,409.00358L313.71981,409.24361
				L312.75969,409.24361L312.75969,409.48364L311.55954,409.48364L311.55954,409.24361L311.31951,409.24361L311.31951,409.00358
				L311.07948,409.00358L311.07948,408.76356L310.83945,408.76356L310.83945,408.52353L310.59942,408.52353L310.59942,408.28351
				L310.35939,408.28351L310.35939,408.04348L309.87933,408.04348L309.87933,407.80346L309.63929,407.80346L309.63929,407.56343
				L309.39926,407.56343L309.39926,407.32341L309.15923,407.32341L309.15923,407.08338L308.9192,407.08338L308.9192,406.84335L308.67917,406.84335
				L308.67917,406.60333L308.43914,406.60333L308.43914,406.3633L308.19911,406.3633L308.19911,406.12328L307.71905,406.12328L307.71905,405.88325
				L307.47902,405.88325L307.47902,405.64323L307.23899,405.64323L307.23899,405.4032L306.99896,405.4032L306.99896,405.16318L306.75893,405.16318
				L306.75893,404.92315L306.5189,404.92315L306.5189,404.68312L306.03884,404.68312L306.03884,404.4431L305.55878,404.4431L305.55878,404.20307
				L305.07872,404.20307L305.07872,403.96305L304.59865,403.96305L304.59865,403.72302L304.35862,403.72302L304.35862,403.483L303.87856,403.483
				L303.87856,403.24297L303.3985,403.24297L303.3985,403.00294L302.91844,403.00294L302.91844,402.76292L299.79805,402.76292L299.79805,403.00294
				L297.8778,403.00294L297.8778,403.24297L297.63777,403.24297L297.63777,403.483L297.15771,403.483L297.15771,403.72302L296.67765,403.72302
				L296.67765,403.96305L296.19759,403.96305L296.19759,404.20307L295.71753,404.20307L295.71753,404.4431L295.23747,404.4431L295.23747,404.68312
				L294.75741,404.68312L294.75741,404.92315L294.27735,404.92315L294.27735,405.16318L293.79728,405.16318L293.79728,405.4032L
				293.31722,405.4032L293.31722,405.64323L292.83716,405.64323L292.83716,405.88325L292.3571,405.88325L292.3571,406.12328L291.87704,406.12328
				L291.87704,406.3633L291.39698,406.3633L291.39698,406.60333L290.91692,406.60333L290.91692,406.84335L290.43686,406.84335L290.43686,407.08338
				L289.9568,407.08338L289.9568,407.32341L289.47674,407.32341L289.47674,407.56343L288.99668,407.56343L288.99668,407.80346L288.51661,407.80346
				L288.51661,408.04348L288.03655,408.04348L288.03655,408.28351L287.79652,408.28351L287.79652,408.52353L287.31646,408.52353
				L287.31646,408.76356L286.8364,408.76356L286.8364,409.00358L286.35634,409.00358L286.35634,409.24361L285.87628,409.24361L285.87628,409.48364
				L285.39622,409.48364L285.39622,409.72366L284.91616,409.72366L284.91616,409.96369L284.4361,409.96369L284.4361,410.20371L283.95604,410.20371
				L283.95604,410.44374L283.47597,410.44374L283.47597,410.68376L282.99591,410.68376L282.99591,410.92379L282.51585,410.92379
				L282.51585,411.16381L282.03579,411.16381L282.03579,411.40384L281.55573,411.40384L281.55573,410.92379L281.3157,410.92379L
				281.3157,410.20371L281.3157,409.72366L281.07567,409.72366L281.07567,409.24361L280.83564,409.24361L280.83564,408.52353L280.59561,408.52353
				L280.59561,408.04348L280.35558,408.04348L280.35558,407.56343L280.11555,407.56343L280.11555,406.84335L279.87552,406.84335
				L279.87552,406.3633L279.63549,406.3633L279.63549,405.88325L279.39546,405.88325L279.39546,405.16318L279.15543,405.16318L279.15543,404.68312
				L278.9154,404.68312L278.9154,404.20307L278.67537,404.20307L278.67537,403.483L278.43533,403.483L278.43533,403.00294L278.1953,403.00294
				L278.1953,402.52289L277.95527,402.52289L277.95527,401.80282L277.71524,401.80282L277.71524,401.32277L277.47521,401.32277L
				277.47521,400.84271L277.23518,400.84271L277.23518,400.36266L276.99515,400.36266L276.99515,399.64259L276.75512,399.64259L
				276.75512,399.16254L276.51509,399.16254L276.51509,398.68248L276.27506,398.68248L276.27506,397.96241L276.03503,397.96241L
				276.03503,397.48236L275.795,397.48236L275.795,397.00231L275.55497,397.00231L275.55497,396.28223L275.31494,396.28223L275.31494,395.80218
				L275.07491,395.80218L275.07491,395.32213L274.83488,395.32213L274.83488,394.60205L274.59485,394.60205L274.59485,394.122L274.35482,394.122
				L274.35482,393.64195L274.11479,393.64195L274.11479,392.92187L273.87476,392.92187L273.87476,392.44182L273.63473,392.44182
				L273.63473,391.96177L273.3947,391.96177L273.3947,391.24169L273.15466,391.24169L273.15466,391.00167L272.91463,391.00167L272.91463,390.52161
				L272.6746,390.52161L272.6746,389.80154L272.43457,389.80154L272.43457,389.32149L272.19454,389.32149L272.19454,388.84144L271.95451,388.84144
				L271.95451,388.12136L271.71448,388.12136L271.71448,387.64131L271.47445,387.64131L271.47445,387.16126L271.23442,387.16126
				L271.23442,386.44118L270.99439,386.44118L270.99439,385.96113L270.75436,385.96113L270.75436,385.48108L270.51433,385.48108
				L270.51433,385.00103L270.2743,385.00103L270.2743,384.28095L270.03427,384.28095L270.03427,383.8009L269.79424,383.8009L269.79424,383.32085
				L269.55421,383.32085L269.55421,382.60077L269.31418,382.60077L269.31418,382.12072L269.07415,382.12072L269.07415,381.64067
				L268.83412,381.64067L268.83412,380.92059L268.59409,380.92059L268.59409,380.44054L268.35406,380.44054L268.35406,379.96049
				L268.11402,379.96049L268.11402,379.24041L267.87399,379.24041"/>
			<path clip-path="url(#SVG_CP_2)" fill="none" stroke="#999999" stroke-width="0.96012" stroke-miterlimit="10" stroke-linecap="round" stroke-linejoin="round" d="
				M240.03046,307.71279L240.03046,307.95282L240.27049,307.95282L240.51052,307.95282L240.51052,308.19284L240.75055,308.19284
				L240.75055,308.43287L240.99058,308.43287L240.99058,308.67289L241.23061,308.67289L241.23061,308.91292L241.47064,308.91292
				L241.47064,309.15294L241.71067,309.15294L241.71067,309.39297L241.9507,309.39297L241.9507,309.633L242.19074,309.633L242.19074,309.87302
				L242.43077,309.87302L242.43077,310.11305L242.6708,310.11305L242.6708,310.35307L242.91083,310.35307L242.91083,310.5931L243.15086,310.5931
				L243.15086,310.83312L243.39089,310.83312L243.39089,311.07315L243.63092,311.07315L243.63092,311.31317L243.87095,311.31317
				L243.87095,311.5532L244.11098,311.5532L244.11098,311.79323L244.35101,311.79323L244.35101,312.03325L244.59104,312.03325L244.59104,312.27328
				L244.83107,312.27328L244.83107,312.5133L245.0711,312.5133L245.0711,312.75333L245.31113,312.75333L245.31113,312.99335L245.55116,312.99335
				L245.55116,313.23338L245.79119,313.23338L245.79119,313.4734L246.03122,313.4734L246.03122,313.71343L246.27125,313.71343L246.27125,313.95346
				L246.51128,313.95346L246.51128,314.19348L246.75131,314.19348L246.75131,314.43351L246.99134,314.43351L246.99134,314.67353
				L247.23137,314.67353L247.23137,314.91356L247.47141,314.91356L247.47141,315.15358L247.71144,315.15358L247.71144,315.39361
				L247.95147,315.39361L247.95147,315.63363L248.1915,315.63363L248.1915,315.87366L248.43153,315.87366L248.43153,316.11369L248.67156,316.11369
				L248.67156,316.35371L248.91159,316.35371L248.91159,316.59374L249.15162,316.59374L249.15162,316.83376L249.39165,316.83376
				L249.39165,317.07379L249.63168,317.07379L249.63168,317.31381L249.87171,317.31381L249.87171,317.55384L250.11174,317.55384
				L250.11174,317.79386L250.35177,317.79386L250.35177,318.03389L250.5918,318.03389L250.5918,318.27392L250.83183,318.27392L250.83183,318.51394
				L251.07186,318.51394L251.07186,324.75461L251.31189,324.75461L251.31189,324.99463L251.55192,324.99463L251.55192,325.23466
				L251.79195,325.23466L251.79195,325.47468L252.03198,325.47468L252.03198,325.71471L252.27201,325.71471L252.27201,325.95473
				L252.51205,325.95473L252.51205,326.19476L252.75208,326.19476L252.75208,326.43479L252.99211,326.43479L252.99211,326.67481
				L253.23214,326.67481L253.23214,326.91484L253.47217,326.91484L253.47217,327.63491L253.7122,327.63491L253.7122,327.87494L253.95223,327.87494
				L253.95223,328.11496L254.19226,328.11496L254.19226,328.35499L254.43229,328.35499L254.43229,328.59502L254.67232,328.59502
				L254.67232,328.83504L254.91235,328.83504L255.15238,328.83504L255.15238,329.07507L255.39241,329.07507L255.39241,329.31509
				L255.63244,329.31509L255.63244,329.55512L255.87247,329.55512L255.87247,329.79514L256.1125,329.79514L256.1125,330.03517L256.35253,330.03517
				L256.35253,330.27519L256.59256,330.27519L256.59256,330.51522L256.83259,330.51522L256.83259,330.75525L257.07262,330.75525
				L257.07262,330.99527L257.31265,330.99527L257.31265,331.2353L257.55268,331.2353L257.55268,331.47532L257.79272,331.47532L257.79272,331.71535
				L258.03275,331.71535L258.03275,331.95537L258.27278,331.95537L258.27278,332.1954L258.51281,332.1954L258.51281,332.43543L258.75284,332.43543
				L258.75284,332.67545L258.99287,332.67545L258.99287,332.91548L259.2329,332.91548L259.2329,333.1555L259.47293,333.1555L259.47293,333.39553
				L259.71296,333.39553L259.71296,333.63555L259.95299,333.63555L259.95299,334.35563L260.19302,334.35563L260.19302,334.59566
				L260.43305,334.59566L260.43305,334.83568L260.67308,334.83568L260.67308,335.07571L260.67308,335.31573L260.91311,335.31573
				L260.91311,335.55576L261.15314,335.55576L261.15314,335.79578L261.39317,335.79578L261.39317,336.03581L261.6332,336.03581L
				261.6332,336.27583L261.87323,336.27583L261.87323,336.51586L262.11326,336.51586L262.11326,337.23594L262.35329,337.23594L262.35329,337.47596
				L262.59332,337.47596L262.59332,337.71599L262.83335,337.71599L262.83335,337.95601L263.07339,337.95601L263.07339,338.19604
				L263.31342,338.19604L263.31342,338.43606L263.55345,338.43606L263.55345,338.67609L263.79348,338.67609L263.79348,338.91612
				L264.03351,338.91612L264.03351,340.35627L264.27354,340.35627L264.27354,340.59629L264.51357,340.59629L264.51357,340.83632
				L264.7536,340.83632L264.7536,341.07635L264.99363,341.07635L264.99363,341.31637L265.23366,341.31637L265.23366,341.5564L265.47369,341.5564
				L265.47369,344.4367L265.71372,344.4367L265.71372,344.67673L265.95375,344.67673L265.95375,347.55704L266.19378,347.55704L266.19378,347.79706
				L266.43381,347.79706L266.43381,359.55832L266.67384,359.55832L266.67384,359.79834L266.91387,359.79834L266.91387,366.27903
				L267.1539,366.27903L267.1539,372.5197L267.39393,372.5197L267.39393,379.00039L267.63396,379.00039L267.63396,379.24041L267.87399,379.24041
				L267.87399,379.72046L267.63396,379.72046L267.63396,379.96049L267.39393,379.96049L267.39393,380.20051L267.1539,380.20051L
				267.1539,380.44054L266.91387,380.44054L266.91387,380.68057L266.67384,380.68057L266.67384,380.92059L266.43381,380.92059L266.43381,381.16062
				L266.19378,381.16062L266.19378,381.40064L265.95375,381.40064L265.95375,381.64067L265.71372,381.64067L265.71372,381.88069
				L265.47369,381.88069L265.47369,382.12072L265.23366,382.12072L265.23366,382.36075L264.99363,382.36075L264.99363,382.60077
				L264.7536,382.60077L264.7536,382.8408L264.51357,382.8408L264.51357,383.08082L264.27354,383.08082L264.27354,383.32085L264.03351,383.32085
				L264.03351,383.56087L263.79348,383.56087L263.79348,383.8009L263.55345,383.8009L263.55345,384.04092L263.31342,384.04092L263.31342,384.28095
				L263.07339,384.28095L263.07339,384.52098L262.83335,384.52098L262.83335,384.761L262.59332,384.761L262.59332,385.00103L262.35329,385.00103
				L262.35329,385.24105L262.11326,385.24105L262.11326,385.48108L261.87323,385.48108L261.87323,385.7211L261.6332,385.7211L261.6332,385.96113
				L261.39317,385.96113L261.39317,386.20115L261.15314,386.20115L261.15314,386.44118L260.91311,386.44118L260.91311,386.68121
				L260.67308,386.68121L260.67308,386.92123L260.67308,387.16126L260.43305,387.16126L260.43305,387.40128L260.19302,387.40128
				L260.19302,387.64131L259.95299,387.64131L259.95299,387.88133L259.71296,387.88133L259.71296,388.12136L259.47293,388.12136
				L259.47293,388.36138L259.2329,388.36138L259.2329,388.84144L258.99287,388.84144L258.99287,389.08146L258.75284,389.08146L258.75284,389.32149
				L258.51281,389.32149L258.51281,389.56151L258.27278,389.56151L258.27278,389.80154L258.03275,389.80154L258.03275,390.04156
				L257.79272,390.04156L257.79272,390.28159L257.55268,390.28159L257.55268,390.52161L257.31265,390.52161L257.31265,390.76164
				L257.07262,390.76164L257.07262,391.00167L256.83259,391.00167L256.59256,391.00167L256.59256,391.24169L256.35253,391.24169
				L256.35253,391.48172L256.1125,391.48172L256.1125,391.72174L255.87247,391.72174L255.87247,391.96177L255.63244,391.96177L255.63244,392.20179
				L255.39241,392.20179L255.39241,392.68185L255.15238,392.68185L255.15238,393.64195L254.91235,393.64195L254.91235,394.36202
				L254.67232,394.36202L254.67232,395.32213L254.43229,395.32213L254.43229,396.28223L254.19226,396.28223L254.19226,397.00231
				L253.95223,397.00231L253.95223,397.96241L253.7122,397.96241L253.7122,398.92251L253.47217,398.92251L253.47217,400.36266L253.23214,400.36266
				L253.23214,403.00294L252.99211,403.00294L252.99211,405.4032L252.75208,405.4032L252.75208,405.64323L252.99211,405.64323L252.99211,410.68376
				L253.23214,410.68376L253.23214,414.7642L253.47217,414.7642L253.47217,417.40448L253.7122,417.40448L253.7122,420.04476L253.95223,420.04476
				L253.95223,422.92507L254.19226,422.92507L254.19226,425.56535L254.43229,425.56535L254.43229,428.20563L254.67232,428.20563
				L254.67232,430.84591L254.91235,430.84591L254.91235,433.24617L255.15238,433.24617L255.15238,435.88645L255.39241,435.88645
				L255.39241,438.52673L255.63244,438.52673L255.63244,441.16701L255.87247,441.16701L255.87247,443.80729L256.1125,443.80729L
				256.1125,446.44757L256.35253,446.44757L256.35253,449.08786L256.59256,449.08786L256.59256,451.00806L256.35253,451.00806L256.35253,450.52801
				L256.1125,450.52801L256.1125,450.28798L255.87247,450.28798L255.87247,449.80793L255.63244,449.80793L255.63244,449.56791L255.39241,449.56791
				L255.39241,449.08786L255.15238,449.08786L255.15238,448.84783L254.91235,448.84783L254.91235,448.36778L254.67232,448.36778
				L254.67232,447.88773L254.43229,447.88773L254.43229,447.6477L254.19226,447.6477L254.19226,447.16765L253.95223,447.16765L253.95223,446.92763
				L253.7122,446.92763L253.7122,446.6876L253.47217,446.6876L253.47217,446.20755L253.23214,446.20755L253.23214,445.96752L252.99211,445.96752
				L252.99211,445.48747L252.75208,445.48747L252.75208,445.24745L252.51205,445.24745L252.51205,444.7674L252.27201,444.7674L252.27201,444.52737
				L252.03198,444.52737L252.03198,444.04732L251.79195,444.04732L251.79195,443.80729L251.55192,443.80729L251.55192,443.32724
				L251.31189,443.32724L251.31189,443.08722L251.07186,443.08722L251.07186,442.60717L250.83183,442.60717L250.83183,442.12711
				L250.5918,442.12711L250.5918,441.88709L250.35177,441.88709L250.35177,441.64706L250.11174,441.64706L250.11174,441.40704L249.87171,441.40704
				L249.87171,440.92699L249.63168,440.92699L249.63168,440.68696L249.39165,440.68696L249.39165,440.20691L249.15162,440.20691
				L249.15162,439.72686L248.91159,439.72686L248.91159,439.48683L248.67156,439.48683L248.67156,439.24681L248.43153,439.24681
				L248.43153,439.00678L248.1915,439.00678L248.1915,438.76676L247.95147,438.76676L247.95147,438.2867L247.71144,438.2867L247.71144,438.04668
				L247.47141,438.04668L247.47141,437.80665L247.23137,437.80665L247.23137,437.56663L246.99134,437.56663L246.99134,437.3266L
				246.75131,437.3266L246.75131,437.08658L246.51128,437.08658L246.51128,436.84655L246.27125,436.84655L246.27125,436.60653L246.03122,436.60653
				L246.03122,436.3665L245.79119,436.3665L245.79119,436.12647L245.55116,436.12647L245.55116,435.64642L245.31113,435.64642L245.31113,435.4064
				L245.0711,435.4064L245.0711,435.16637L244.83107,435.16637L244.83107,434.92635L244.59104,434.92635L244.59104,434.68632L244.35101,434.68632
				L244.35101,434.4463L244.11098,434.4463L244.11098,434.20627L243.87095,434.20627L243.87095,433.96624L243.63092,433.96624L243.63092,433.48619
				L243.39089,433.48619L243.39089,433.24617L243.15086,433.24617L243.15086,433.00614L242.91083,433.00614L242.91083,432.76612
				L242.6708,432.76612L242.6708,432.52609L242.43077,432.52609L242.19074,432.52609L242.19074,432.28607L241.9507,432.28607L241.9507,431.80601
				L241.71067,431.80601L241.71067,431.56599L241.47064,431.56599L241.47064,431.32596L241.23061,431.32596L241.23061,431.08594
				L240.99058,431.08594L240.99058,430.84591L240.75055,430.84591L240.75055,430.36586L240.51052,430.36586L240.51052,430.12584
				L240.27049,430.12584L240.27049,429.88581L240.03046,429.88581L240.03046,429.40576L239.79043,429.40576L239.79043,429.16573
				L239.79043,428.92571L239.5504,428.92571L239.5504,428.68568L239.31037,428.68568L239.31037,428.20563L239.07034,428.20563L239.07034,427.9656
				L238.83031,427.9656L238.83031,427.72558L238.59028,427.72558L238.59028,427.48555L238.35025,427.48555L238.35025,427.0055L238.11022,427.0055
				L238.11022,426.76548L237.87019,426.76548L237.87019,426.52545L237.63016,426.52545L237.63016,426.28543L237.39013,426.28543
				L237.39013,425.80537L237.1501,425.80537L237.1501,425.56535L236.91007,425.56535L236.91007,425.32532L236.67003,425.32532L236.67003,425.0853
				L236.43,425.0853L236.43,424.60525L236.18997,424.60525L236.18997,424.36522L235.94994,424.36522L235.94994,424.1252L235.70991,424.1252
				L235.70991,423.64514L235.46988,423.64514L235.46988,423.40512L235.22985,423.40512L235.22985,423.16509L234.98982,423.16509
				L234.98982,422.92507L234.74979,422.92507L234.74979,422.44502L234.50976,422.44502L234.50976,422.20499L234.26973,422.20499
				L234.26973,421.96497L234.0297,421.96497L234.0297,421.72494L233.78967,421.72494L233.78967,421.24489L233.54964,421.24489L233.54964,421.00486
				L233.30961,421.00486L233.30961,420.52481L233.06958,420.52481L233.06958,420.04476L232.82955,420.04476L232.82955,419.80474
				L232.58952,419.80474L232.58952,419.56471L232.34949,419.56471L232.34949,419.32468L232.10946,419.32468L232.10946,418.84463
				L231.86943,418.84463L231.86943,418.36458L231.62939,418.36458L231.62939,418.12456L231.38936,418.12456L231.38936,417.64451
				L231.14933,417.64451L231.14933,417.40448L230.9093,417.40448L230.9093,416.92443L230.66927,416.92443L230.66927,416.6844L230.42924,416.6844
				L230.42924,416.44438L230.18921,416.44438L230.18921,415.96433L229.94918,415.96433L229.94918,415.7243L229.70915,415.7243L229.70915,415.24425
				L229.46912,415.24425L229.46912,414.7642L229.22909,414.7642L229.22909,414.52417L228.98906,414.52417L228.98906,414.28415L228.74903,414.28415
				L228.74903,413.8041L228.509,413.8041L228.509,413.56407L228.26897,413.56407L228.26897,413.08402L228.02894,413.08402L228.02894,412.84399
				L227.78891,412.84399L227.78891,412.36394L227.54888,412.36394L227.54888,411.88389L227.30885,411.88389L227.06882,411.88389
				L227.06882,411.64387L226.82879,411.64387L226.82879,411.40384L226.58876,411.40384L226.58876,411.16381L226.34872,411.16381
				L226.34872,410.92379L226.10869,410.92379L226.10869,410.68376L225.86866,410.68376L225.86866,410.20371L225.62863,410.20371
				L225.62863,409.96369L225.3886,409.96369L225.3886,409.48364L225.14857,409.48364L225.14857,409.24361L224.90854,409.24361L224.90854,408.76356
				L224.66851,408.76356L224.66851,408.52353L224.42848,408.52353L224.42848,408.04348L224.18845,408.04348L224.18845,407.80346
				L223.94842,407.80346L223.94842,407.32341L223.70839,407.32341L223.70839,407.08338L223.46836,407.08338L223.46836,406.60333
				L223.22833,406.60333L223.22833,406.3633L222.9883,406.3633L222.9883,405.88325L222.74827,405.88325L222.74827,405.4032L222.50824,405.4032
				L222.50824,405.16318L222.26821,405.16318L222.26821,404.68312L222.02818,404.68312L222.02818,404.20307L221.78815,404.20307
				L221.78815,403.72302L221.54812,403.72302L221.54812,403.483L221.30809,403.483L221.30809,403.00294L221.06805,403.00294L221.06805,402.52289
				L220.82802,402.52289L220.82802,402.04284L220.58799,402.04284L220.58799,401.80282L220.34796,401.80282L220.34796,401.32277
				L220.10793,401.32277L220.10793,401.08274L219.8679,401.08274L219.8679,400.60269L219.62787,400.60269L219.62787,400.12264L219.38784,400.12264
				L219.38784,399.64259L219.14781,399.64259L219.14781,399.40256L219.14781,398.92251L218.90778,398.92251L218.90778,398.68248
				L218.66775,398.68248L218.66775,398.20243L218.42772,398.20243L218.42772,397.96241L218.18769,397.96241L218.18769,397.48236
				L217.94766,397.48236L217.94766,397.00231L217.70763,397.00231L217.70763,396.76228L217.4676,396.76228L217.4676,396.28223L217.22757,396.28223
				L217.22757,395.80218L216.98754,395.80218L216.98754,395.0821L216.74751,395.0821L216.74751,394.122L216.50748,394.122L216.50748,392.68185
				L216.74751,392.68185L216.74751,391.96177L216.50748,391.96177L216.50748,391.48172L216.26745,391.48172L216.26745,391.00167
				L216.02742,391.00167L216.02742,390.76164L215.78738,390.76164L215.78738,390.28159L215.54735,390.28159L215.54735,389.80154
				L215.30732,389.80154L215.30732,389.56151L214.82726,389.56151L214.82726,389.32149L214.58723,389.32149L214.58723,388.84144
				L214.10717,388.84144L214.10717,388.60141L213.14705,388.60141L213.14705,388.36138L212.90702,388.36138L212.90702,388.12136
				L212.66699,388.12136L212.66699,387.88133L212.42696,387.88133L212.42696,387.64131L211.9469,387.64131L211.9469,387.40128L211.70687,387.40128
				L211.70687,387.16126L211.46684,387.16126L211.46684,386.92123L211.22681,386.92123L211.22681,386.68121L210.98678,386.68121
				L210.98678,386.44118L210.74674,386.44118L210.74674,386.20115L210.50671,386.20115L210.50671,385.96113L210.26668,385.96113
				L210.26668,385.7211L210.02665,385.7211L210.02665,385.48108L209.78662,385.48108L209.78662,385.24105L209.54659,385.24105L209.54659,385.00103
				L209.30656,385.00103L209.30656,384.761L209.06653,384.761L209.06653,384.52098L208.8265,384.52098L208.8265,384.04092L208.58647,384.04092
				L208.58647,383.8009L208.34644,383.8009L208.34644,383.32085L208.10641,383.32085L208.10641,383.08082L207.86638,383.08082L207.86638,382.60077
				L207.62635,382.60077L207.62635,382.36075L207.38632,382.36075L207.38632,382.12072L207.14629,382.12072L207.14629,381.64067
				L206.90626,381.64067L206.90626,381.40064L206.66623,381.40064L206.66623,380.92059L206.4262,380.92059L206.4262,380.68057L206.18617,380.68057
				L206.18617,380.20051L205.94614,380.20051L205.94614,379.96049L205.70611,379.96049L205.70611,379.72046L205.46607,379.72046
				L205.46607,379.24041L205.22604,379.24041L205.22604,379.00039L204.98601,379.00039L204.98601,378.76036L204.74598,378.76036
				L204.74598,378.28031L204.50595,378.28031L204.50595,377.80026L204.26592,377.80026L204.26592,377.56023L204.02589,377.56023
				L204.02589,377.32021L203.78586,377.32021L203.78586,376.84016L203.54583,376.84016L203.54583,376.36011L203.3058,376.36011L
				203.3058,376.12008L203.06577,376.12008L203.06577,375.64003L202.82574,375.64003L202.82574,375.15998L202.58571,375.15998L202.58571,374.91995
				L202.34568,374.91995L202.34568,374.4399L202.10565,374.4399L202.10565,374.19988L201.86562,374.19988L201.86562,373.71982L201.62559,373.71982
				L201.62559,373.23977L201.38556,373.23977L201.38556,372.99975L201.14553,372.99975L201.14553,372.5197L200.9055,372.5197L200.9055,372.03965
				L200.66547,372.03965L200.66547,371.79962L200.42544,371.79962L200.42544,371.31957L200.1854,371.31957L200.1854,370.83952L199.94537,370.83952
				L199.94537,370.35947L199.70534,370.35947L199.70534,370.11944L199.46531,370.11944L199.46531,369.87942L199.22528,369.87942
				L199.22528,369.39936L198.98525,369.39936L198.98525,368.91931L198.74522,368.91931L198.74522,368.67929L198.50519,368.67929
				L198.50519,368.19924L198.26516,368.19924L198.26516,367.71918L198.26516,367.47916L198.02513,367.47916L198.02513,366.75908
				L197.7851,366.75908L197.7851,366.27903L197.54507,366.27903L197.54507,365.79898L197.30504,365.79898L197.30504,365.31893L197.06501,365.31893
				L197.06501,364.83888L196.82498,364.83888L196.82498,364.35883L196.58495,364.35883L196.58495,363.87878L196.34492,363.87878
				L196.34492,363.39872L196.10489,363.39872L196.10489,362.67865L195.86486,362.67865L195.86486,362.1986L195.62483,362.1986L195.62483,361.47852
				L195.3848,361.47852L195.3848,361.23849L195.14476,361.23849L195.14476,360.27839L194.90473,360.27839L194.90473,359.79834L194.6647,359.79834
				L194.6647,359.07826L194.42467,359.07826L194.42467,358.59821L194.18464,358.59821L194.18464,358.11816L193.94461,358.11816L
				193.94461,357.63811L193.70458,357.63811L193.70458,356.91803L193.46455,356.91803L193.46455,356.19796L193.22452,356.19796L
				193.22452,355.71791L192.98449,355.71791L192.98449,354.99783L192.74446,354.99783L192.74446,354.51778L192.50443,354.51778L
				192.50443,353.7977L192.2644,353.7977L192.2644,352.8376L192.02437,352.8376L192.02437,351.8775L191.78434,351.8775L191.78434,350.43734
				L191.54431,350.43734L191.54431,349.95729L191.30428,349.95729L191.30428,349.47724L191.06425,349.47724L191.06425,348.75716
				L190.82422,348.75716L190.82422,348.27711L190.58419,348.27711L190.58419,347.55704L190.34416,347.55704L190.34416,347.07699
				L190.10413,347.07699L190.10413,346.59693L189.86409,346.59693L189.86409,345.87686L189.62406,345.87686L189.62406,345.39681
				L189.38403,345.39681L189.38403,344.91676L189.144,344.91676L189.144,343.95665L188.90397,343.95665L188.90397,343.23658L188.66394,343.23658
				L188.66394,342.5165L188.42391,342.5165L188.42391,341.79642L188.18388,341.79642L188.18388,340.59629L187.94385,340.59629L187.94385,340.35627
				L187.70382,340.35627L187.70382,339.15614L187.46379,339.15614L187.46379,337.71599L187.22376,337.71599L187.22376,337.23594
				L186.98373,337.23594L186.98373,336.51586L186.7437,336.51586L186.7437,336.27583L186.50367,336.27583L186.50367,336.03581L186.26364,336.03581
				L186.26364,335.55576L186.02361,335.55576L186.02361,335.31573L185.78358,335.31573L185.78358,334.59566L185.54355,334.59566
				L185.54355,334.1156L185.30352,334.1156L185.30352,333.63555L185.06349,333.63555L185.06349,332.67545L184.82346,332.67545L184.82346,331.95537
				L184.58342,331.95537L184.58342,330.99527L184.34339,330.99527L184.34339,330.27519L184.10336,330.27519L184.10336,330.03517
				L184.34339,330.03517L184.34339,329.31509L184.58342,329.31509L184.58342,328.35499L184.82346,328.35499L184.82346,327.87494
				L185.06349,327.87494L185.06349,326.67481L185.30352,326.67481L185.30352,325.47468L185.54355,325.47468L185.54355,324.51458
				L185.78358,324.51458L185.78358,323.7945L186.02361,323.7945L186.02361,323.31445L186.26364,323.31445L186.26364,321.8743L186.50367,321.8743
				L186.50367,321.15422L186.7437,321.15422L186.7437,320.43415L186.98373,320.43415L186.98373,319.9541L187.22376,319.9541L187.22376,319.71407
				L187.46379,319.71407L187.46379,319.23402L187.70382,319.23402L187.70382,318.99399L187.94385,318.99399L187.94385,318.75397
				L188.18388,318.75397L188.18388,318.51394L188.42391,318.51394L188.42391,318.27392"/>
			<path clip-path="url(#SVG_CP_2)" fill="none" stroke="#999999" stroke-width="0.96012" stroke-miterlimit="10" stroke-linecap="round" stroke-linejoin="round" d="
				M188.42391,318.27392L188.66394,318.27392L188.66394,318.03389L188.90397,318.03389L188.90397,317.79386L189.144,317.79386L189.144,317.55384
				L189.38403,317.55384L189.38403,317.31381L189.86409,317.31381L189.86409,317.07379L190.34416,317.07379L190.34416,316.83376
				L190.82422,316.83376L190.82422,316.59374L191.06425,316.59374L191.06425,316.35371L191.30428,316.35371L191.30428,316.11369
				L191.54431,316.11369L191.54431,315.87366L191.78434,315.87366L191.78434,315.63363L192.02437,315.63363L192.02437,315.39361
				L192.2644,315.39361L192.2644,315.15358L192.50443,315.15358L192.50443,314.91356L192.74446,314.91356L192.74446,314.67353L192.98449,314.67353
				L192.98449,314.43351L193.22452,314.43351L193.22452,314.19348L193.46455,314.19348L193.46455,313.95346L193.70458,313.95346
				L193.70458,313.4734L193.94461,313.4734L193.94461,312.75333L194.18464,312.75333L194.18464,312.03325L194.42467,312.03325L194.42467,311.31317
				L194.6647,311.31317L194.6647,310.5931L194.90473,310.5931L194.90473,309.87302L195.14476,309.87302L195.14476,309.633L195.3848,309.633
				L195.3848,309.39297L195.62483,309.39297L195.62483,308.67289L195.86486,308.67289L195.86486,308.43287L196.10489,308.43287L
				196.10489,307.95282L196.34492,307.95282L196.34492,307.71279L196.58495,307.71279L196.58495,307.47277L196.82498,307.47277L
				196.82498,306.99271L197.06501,306.99271L197.06501,306.51266L197.30504,306.51266L197.30504,306.27264L197.54507,306.27264L
				197.54507,306.03261L197.7851,306.03261L197.7851,305.55256L198.02513,305.55256L198.02513,305.07251L198.26516,305.07251L198.26516,304.83248
				L198.26516,304.35243L198.50519,304.35243L198.50519,303.87238L198.74522,303.87238L198.74522,303.63236L198.98525,303.63236
				L198.98525,303.1523L199.22528,303.1523L199.22528,302.67225L199.46531,302.67225L199.46531,302.1922L199.70534,302.1922L199.70534,301.71215
				L199.94537,301.71215L199.94537,301.47213L200.1854,301.47213L200.1854,301.2321L200.42544,301.2321L200.42544,300.75205L200.66547,300.75205
				L200.66547,300.272L200.9055,300.272L200.9055,300.03197L201.14553,300.03197L201.14553,299.79195L201.38556,299.79195L201.38556,299.07187
				L201.62559,299.07187L201.62559,298.83184L201.86562,298.83184L201.86562,298.59182L202.10565,298.59182L202.10565,298.11177
				L202.34568,298.11177L202.34568,297.87174L202.58571,297.87174L202.58571,297.63172L202.34568,297.63172L202.34568,297.15167
				L202.10565,297.15167L202.10565,296.91164L201.86562,296.91164L201.86562,296.43159L201.62559,296.43159L201.62559,296.19156
				L201.38556,296.19156L201.38556,295.71151L201.14553,295.71151L201.14553,295.23146L200.9055,295.23146L200.9055,294.99144L200.66547,294.99144
				L200.66547,294.75141L200.42544,294.75141L200.42544,294.27136L200.1854,294.27136L200.1854,293.79131L199.94537,293.79131L199.94537,293.31126
				L199.70534,293.31126L199.70534,293.07123L199.46531,293.07123L199.46531,292.59118L199.22528,292.59118L199.22528,292.35115
				L198.98525,292.35115L198.98525,291.8711L198.74522,291.8711L198.74522,291.63108L198.50519,291.63108L198.50519,290.911L198.26516,290.911
				L198.26516,290.67097L198.26516,290.19092L198.02513,290.19092L198.02513,289.71087L197.7851,289.71087L197.7851,289.47085L197.54507,289.47085
				L197.54507,288.9908L197.30504,288.9908L197.30504,288.51074L197.06501,288.51074L197.06501,288.03069L196.82498,288.03069L196.82498,287.55064
				L196.58495,287.55064L196.58495,287.31062L196.34492,287.31062L196.34492,286.83057L196.10489,286.83057L196.10489,286.35051
				L195.86486,286.35051L195.86486,285.87046L195.62483,285.87046L195.62483,285.39041L195.3848,285.39041L195.3848,284.91036L195.14476,284.91036
				L195.14476,284.43031L194.90473,284.43031L194.90473,283.95026L194.6647,283.95026L194.6647,283.47021L194.42467,283.47021L194.42467,282.99016
				L194.18464,282.99016L194.18464,282.51011L193.94461,282.51011L193.94461,282.03005L193.70458,282.03005L193.70458,281.55L193.46455,281.55
				L193.46455,281.06995L193.22452,281.06995L193.22452,280.5899L192.98449,280.5899L192.98449,280.10985L192.74446,280.10985L192.74446,279.6298
				L192.50443,279.6298L192.50443,279.14975L192.2644,279.14975L192.2644,278.6697L192.02437,278.6697L192.02437,278.18964L191.78434,278.18964
				L191.78434,277.70959L191.54431,277.70959L191.54431,277.22954L191.30428,277.22954L191.30428,276.50947L191.06425,276.50947
				L191.06425,276.02941L190.82422,276.02941L190.82422,275.54936L190.58419,275.54936L190.58419,274.82929L190.34416,274.82929
				L190.34416,274.34924L190.10413,274.34924L190.10413,273.62916L189.86409,273.62916L189.86409,273.14911L189.62406,273.14911
				L189.62406,272.66906L189.38403,272.66906L189.38403,271.94898L189.144,271.94898L189.144,271.2289L188.90397,271.2289L188.90397,270.50883
				L188.66394,270.50883L188.66394,269.54872L188.42391,269.54872L188.42391,268.82865L188.18388,268.82865L188.18388,267.86854
				L187.94385,267.86854L187.94385,267.14847L187.70382,267.14847L187.70382,266.42839L187.46379,266.42839L187.46379,266.18837
				L187.22376,266.18837L187.22376,265.70831L186.98373,265.70831L186.98373,265.22826L186.7437,265.22826L186.7437,264.74821L186.50367,264.74821
				L186.50367,264.26816L186.26364,264.26816L186.26364,264.02814L186.02361,264.02814L186.02361,263.78811L185.30352,263.78811
				L185.30352,263.54808L185.06349,263.54808L185.06349,263.06803L184.82346,263.06803L184.82346,262.58798L184.58342,262.58798
				L184.58342,261.86791L184.34339,261.86791L184.34339,261.14783L184.10336,261.14783L184.10336,260.42775L183.86333,260.42775
				L183.86333,258.0275L183.6233,258.0275L183.6233,257.54744L183.86333,257.54744L183.86333,257.30742L183.6233,257.30742L183.6233,256.82737
				L183.86333,256.82737L183.86333,256.58734L183.6233,256.58734L183.6233,255.14719L183.38327,255.14719L183.38327,252.98696L183.14324,252.98696
				L183.14324,251.30678L182.90321,251.30678L182.90321,249.38658L183.14324,249.38658L183.14324,250.34668L183.38327,250.34668
				L183.38327,251.06675L183.6233,251.06675L183.6233,251.78683L183.86333,251.78683L183.86333,252.74693L184.10336,252.74693L184.10336,253.46701
				L184.34339,253.46701L184.34339,254.18709L184.58342,254.18709L184.58342,254.90716L184.82346,254.90716L184.82346,255.62724
				L185.06349,255.62724L185.06349,256.34732L185.30352,256.34732L185.30352,257.06739L185.54355,257.06739L185.54355,257.78747
				L185.78358,257.78747L185.78358,258.50755L186.02361,258.50755L186.02361,258.9876L186.26364,258.9876L186.26364,259.70768L186.50367,259.70768
				L186.50367,260.18773L186.7437,260.18773L186.7437,260.9078L186.98373,260.9078L186.98373,261.62788L187.22376,261.62788L187.22376,262.10793
				L187.94385,262.10793L187.94385,261.86791L188.18388,261.86791L188.18388,261.62788L188.42391,261.62788L188.42391,261.38785
				L188.90397,261.38785L188.90397,261.14783L189.144,261.14783L189.144,261.38785L189.38403,261.38785L189.38403,261.62788L189.62406,261.62788
				L189.62406,261.86791L189.86409,261.86791L189.86409,262.10793L190.10413,262.10793L190.10413,262.58798L190.34416,262.58798
				L190.34416,262.82801L190.58419,262.82801L190.58419,263.06803L190.82422,263.06803L190.82422,263.54808L191.06425,263.54808
				L191.06425,263.78811L191.30428,263.78811L191.30428,264.02814L191.54431,264.02814L191.54431,264.26816L191.78434,264.26816
				L191.78434,264.74821L192.02437,264.74821L192.02437,264.98824L192.2644,264.98824L192.2644,265.22826L192.50443,265.22826L192.50443,266.66842
				L192.74446,266.66842L192.74446,267.86854L192.98449,267.86854L192.98449,268.58862L193.22452,268.58862L193.22452,269.06867
				L193.46455,269.06867L193.46455,269.54872L193.70458,269.54872L193.70458,270.02877L193.94461,270.02877L193.94461,270.50883
				L194.18464,270.50883L194.18464,270.74885L194.42467,270.74885L194.42467,271.2289L194.6647,271.2289L194.6647,271.46893L194.90473,271.46893
				L194.90473,271.94898L195.14476,271.94898L195.14476,272.18901L195.3848,272.18901L195.3848,272.66906L195.62483,272.66906L195.62483,272.90908
				L195.86486,272.90908L195.86486,273.38913L196.10489,273.38913L196.10489,273.62916L196.34492,273.62916L196.34492,274.10921
				L196.58495,274.10921L196.58495,274.34924L196.82498,274.34924L196.82498,274.82929L197.06501,274.82929L197.06501,275.06931
				L197.30504,275.06931L197.30504,275.54936L197.54507,275.54936L197.54507,275.78939L197.7851,275.78939L197.7851,276.02941L198.02513,276.02941
				L198.02513,276.50947L198.26516,276.50947L198.26516,276.74949L198.26516,277.22954L198.50519,277.22954L198.50519,277.46957
				L198.74522,277.46957L198.74522,277.94962L198.98525,277.94962L198.98525,278.18964L199.22528,278.18964L199.22528,278.6697L
				199.46531,278.6697L199.46531,278.90972L199.70534,278.90972L199.70534,279.38977L199.94537,279.38977L199.94537,279.6298L200.1854,279.6298
				L200.1854,280.10985L200.42544,280.10985L200.42544,280.34987L200.66547,280.34987L200.66547,280.82993L200.9055,280.82993L200.9055,281.06995
				L201.14553,281.06995L201.14553,281.30998L201.38556,281.30998L201.38556,281.79003L201.62559,281.79003L201.62559,282.03005
				L201.86562,282.03005L201.86562,282.51011L202.10565,282.51011L202.10565,282.75013L202.34568,282.75013L202.34568,283.23018
				L202.58571,283.23018L202.58571,283.47021L202.82574,283.47021L202.82574,283.71023L203.06577,283.71023L203.06577,284.19028
				L203.3058,284.19028L203.3058,284.43031L203.54583,284.43031L203.54583,284.91036L203.78586,284.91036L203.78586,285.15039L204.02589,285.15039
				L204.02589,285.39041L204.26592,285.39041L204.26592,285.87046L204.50595,285.87046L204.50595,286.11049L204.74598,286.11049
				L204.74598,286.35051L204.98601,286.35051L204.98601,286.59054L205.22604,286.59054L205.22604,287.07059L205.46607,287.07059
				L205.46607,287.31062L205.70611,287.31062L205.94614,287.31062L205.94614,287.55064L206.18617,287.55064L206.18617,287.79067
				L206.4262,287.79067L206.4262,288.27072L206.66623,288.27072L206.66623,288.51074L206.90626,288.51074L206.90626,288.75077L207.14629,288.75077
				L207.14629,289.23082L207.38632,289.23082L207.38632,289.47085L207.62635,289.47085L207.62635,289.71087L207.86638,289.71087
				L207.86638,289.9509L208.10641,289.9509L208.10641,290.43095L208.34644,290.43095L208.34644,290.67097L208.58647,290.67097L208.58647,290.911
				L208.8265,290.911L208.8265,291.15103L209.06653,291.15103L209.06653,291.63108L209.30656,291.63108L209.30656,291.8711L209.54659,291.8711
				L209.54659,292.11113L209.78662,292.11113L209.78662,292.35115L210.02665,292.35115L210.02665,292.59118L210.26668,292.59118
				L210.26668,292.8312L210.50671,292.8312L210.50671,293.07123L210.74674,293.07123L210.74674,293.55128L210.98678,293.55128L210.98678,293.79131
				L211.22681,293.79131L211.22681,294.03133L211.46684,294.03133L211.46684,294.27136L211.70687,294.27136L211.70687,294.51138
				L212.18693,294.51138L212.18693,294.75141L212.42696,294.75141L212.42696,294.99144L212.66699,294.99144L212.66699,295.23146
				L212.90702,295.23146L212.90702,295.47149L213.14705,295.47149L213.14705,295.71151L213.38708,295.71151L213.38708,295.95154
				L213.62711,295.95154L213.62711,296.19156L213.86714,296.19156L213.86714,296.43159L214.10717,296.43159L214.10717,296.67161
				L214.3472,296.67161L214.3472,296.91164L214.58723,296.91164L214.58723,297.15167L214.82726,297.15167L214.82726,297.39169L215.30732,297.39169
				L215.30732,297.63172L215.54735,297.63172L215.54735,297.87174L215.78738,297.87174L215.78738,298.11177L216.02742,298.11177
				L216.02742,298.35179L216.26745,298.35179L216.26745,298.59182L216.50748,298.59182L216.50748,298.83184L216.98754,298.83184
				L216.98754,299.07187L217.22757,299.07187L217.22757,299.3119L217.4676,299.3119L217.4676,299.55192L217.70763,299.55192L217.70763,299.79195
				L218.18769,299.79195L218.18769,300.03197L218.42772,300.03197L218.42772,300.272L218.66775,300.272L218.66775,300.51202L218.90778,300.51202
				L218.90778,300.75205L219.14781,300.75205L219.14781,300.99207L219.38784,300.99207L219.38784,301.2321L219.62787,301.2321L219.62787,301.47213
				L220.10793,301.47213L220.10793,301.71215L220.34796,301.71215L220.34796,301.95218L220.58799,301.95218L220.58799,302.1922L
				221.06805,302.1922L221.06805,302.43223L221.30809,302.43223L221.30809,302.67225L221.78815,302.67225L221.78815,302.91228L222.02818,302.91228
				L222.02818,303.1523L222.50824,303.1523L222.50824,303.39233L222.9883,303.39233L222.9883,303.63236L223.22833,303.63236L223.22833,303.87238
				L223.70839,303.87238L223.70839,304.11241L223.94842,304.11241L223.94842,304.35243L224.42848,304.35243L224.42848,304.59246
				L225.14857,304.59246L225.14857,304.83248L225.62863,304.83248L225.62863,305.07251L226.34872,305.07251L226.34872,305.31253
				L226.82879,305.31253L226.82879,305.55256L227.54888,305.55256L227.54888,305.79259L228.02894,305.79259L228.02894,306.03261
				L228.74903,306.03261L228.74903,306.27264L229.46912,306.27264L229.46912,306.51266L230.42924,306.51266L230.42924,306.75269
				L231.38936,306.75269L231.38936,306.99271L232.34949,306.99271L232.34949,307.23274L233.30961,307.23274L233.30961,307.47277
				L234.26973,307.47277L234.26973,307.71279L235.46988,307.71279L235.46988,307.95282L237.1501,307.95282L239.5504,307.95282L239.79043,307.95282
				L239.79043,307.71279L240.03046,307.71279"/>
		</g>
</g></svg>