<?xml version="1.0" encoding="utf-8" standalone="no"?>
<!-- Creator: ESRI ArcMap 10.0.0.2414 -->
<!DOCTYPE svg PUBLIC "-//W3C//DTD SVG 1.1//EN"  "http://www.w3.org/Graphics/SVG/1.1/DTD/svg11.dtd">
<svg width="524.0420768pt" height="464.479846419pt" viewBox="32.15712744 188.889211791 524.0420768 464.479846419" enable-background="new 32.15712744 188.889211791 524.0420768 464.479846419"
	version="1.1" xmlns="http://www.w3.org/2000/svg" xmlns:xlink="http://www.w3.org/1999/xlink" >
	<g id="Couches">
		<g id="reservoirs">
			<path clip-path="url(#SVG_CP_2)" fill-opacity="0.2" fill="#07866D" fill-rule="evenodd" stroke="none" stroke-width="" stra="1.44018" stroke-miterlimit="10" stroke-linecap="round" stroke-linejoin="round" d="
				M145.93852,466.3697L153.37946,473.09041L148.33883,480.53121L146.89864,481.73133L144.73837,484.61164L143.53822,485.57174L
				142.57809,486.53185L142.33806,487.0119L142.33806,487.49195L145.69849,494.45269L145.69849,494.93274L145.45846,495.17277L131.29666,504.77379
				L130.8166,505.73389L130.33654,509.09425L130.09651,510.05435L129.61645,517.49515L129.85648,522.77571L133.937,521.57558L135.13715,521.57558
				L137.05739,521.81561L139.21767,522.05563L131.53669,526.13607L128.4163,527.81625L125.53593,530.2165L127.21614,533.81688L114.73456,541.4977
				L113.05435,539.81752L109.69392,543.17788L104.65328,548.9385L105.13334,553.49898L101.77292,557.33939L106.33349,562.85998L
				106.33349,563.58006L105.37337,564.54016L104.17322,565.02021L102.49301,565.26024L101.53289,565.50026L100.0927,565.98031L98.89255,566.70039
				L95.29209,570.78082L90.97155,573.4211L91.69164,574.38121L97.45237,582.54208L98.41249,583.7422L99.13258,585.18236L99.61264,586.62251
				L100.0927,587.82264L102.01295,588.78274L104.65328,588.78274L108.97383,588.30269L110.17398,587.82264L112.33426,587.10256L
				112.81432,587.10256L112.09423,592.38313L113.53441,596.94361L116.6548,594.78338L123.85572,592.62315L125.2959,591.183L127.93624,592.62315
				L137.77748,587.58261L138.49758,590.70295L141.61797,589.26279L147.13867,588.30269L147.85876,594.30333L148.57886,597.18364
				L151.93928,603.4243L149.29895,607.26471L148.33883,607.98479L146.89864,608.70486L145.93852,609.42494L129.13639,621.90627L
				140.65785,636.54783L139.4577,638.22801L137.53745,641.10832L136.57733,643.02852L129.13639,638.70806L127.93624,638.46804L126.73608,638.94809
				L125.05587,637.98799L124.33578,638.94809L123.61569,638.70806L119.7752,635.3477L118.09499,634.62763L116.41477,637.50793L115.45465,637.74796
				L114.73456,637.74796L112.33426,632.70742L112.33426,631.02724L103.2131,622.38632L101.77292,622.38632L101.05282,622.62635L
				100.33273,623.1064L99.61264,623.34642L98.41249,619.74604L94.81203,620.70614L83.5306,615.66561L80.65024,615.42558L76.80975,613.26535
				L74.16941,611.10512L74.16941,609.90499L71.52908,608.22481L68.64871,606.78466L66.9685,606.30461L66.00838,605.82456L65.28829,604.86446
				L61.92786,602.70423L63.60807,597.42366L62.64795,596.94361L62.16789,597.66369L61.20777,597.18364L58.80746,597.66369L57.36728,599.82392
				L54.48692,598.62379L54.96698,598.14374L54.24688,597.66369L53.28676,597.66369L52.8067,597.66369L52.8067,597.18364L52.32664,596.70359
				L50.64643,596.46356L48.96621,595.74348L46.56591,594.0633L58.56743,581.822L54.96698,578.46164L58.56743,574.38121L60.24765,576.78146
				L62.88798,573.66113L66.72847,574.14118L70.08889,569.34067L80.89027,555.17916L90.01142,544.85806L97.93243,536.45717L112.09423,525.65601
				L115.69468,520.61548L117.61493,517.01509L127.45618,497.81305L132.01675,484.13159L124.33578,480.53121L127.45618,479.81113
				L128.65633,478.85103L130.09651,477.17085L130.57657,475.97072L131.05663,475.01062L135.37718,470.21011L140.41782,469.00998
				L140.89788,469.73006L141.61797,469.73006L142.57809,469.49003L143.77825,468.76995L145.93852,466.3697z"/>
			<path clip-path="url(#SVG_CP_2)" fill-opacity="0.2" fill="#07866D" fill-rule="evenodd" stroke="none" stroke-width="" stra="1.44018" stroke-miterlimit="10" stroke-linecap="round" stroke-linejoin="round" d="
				M537.18817,208.82225L539.34845,216.98312L540.5486,222.26369L542.46884,227.30422L544.62912,230.66458L546.78939,237.3853L546.54936,237.62532
				L544.14905,238.58542L547.02942,243.62596L548.4696,250.10665L548.94966,253.22698L549.18969,255.86727L548.4696,260.42775L546.0693,264.50819
				L543.66899,269.3087L540.5486,268.3486L538.86838,270.2688L536.94814,273.38913L533.10765,271.94898L532.38756,273.14911L531.18741,275.78939
				L532.86762,276.26944L534.06778,277.70959L538.38832,279.6298L539.10841,278.18964L540.30857,278.6697L541.02866,279.14975L541.02866,284.67034
				L540.78863,287.07059L540.5486,288.51074L539.82851,290.19092L536.46808,295.95154L535.98802,295.95154L529.98726,295.95154L
				529.5072,295.95154L522.54631,293.79131L522.30628,291.39105L522.06625,290.43095L519.90598,288.03069L521.34616,276.74949L536.46808,252.50691
				L535.0279,239.06548L534.78787,238.3454L531.9075,232.34476L526.86686,220.34348L523.9865,214.58287L519.18589,211.22251L515.58543,210.26241
				L511.74494,209.78236L509.34464,209.78236L508.62455,209.78236L503.34388,212.18261L494.22272,217.22315L499.02333,229.46445
				L498.54327,229.9445L497.82318,230.42455L496.86305,231.14463L498.54327,236.18517L498.54327,236.42519L495.18284,237.3853L494.46275,234.74502
				L489.66214,237.14527L488.70202,237.14527L487.98193,235.94514L486.78177,230.90461L486.30171,229.46445L485.10156,227.0642L
				484.14144,225.38402L480.06092,218.90333L485.34159,211.22251L492.54251,208.3422L497.82318,204.98184L500.94357,203.54169L504.304,201.62149
				L505.74418,201.14143L507.90446,200.18133L510.06473,199.46126L511.50491,199.46126L512.225,199.46126L517.7457,199.46126L519.90598,199.46126
				L520.62607,199.46126L522.06625,199.70128L524.94662,200.66138L527.10689,202.10154L531.42744,204.50179L532.38756,204.74182
				L533.34768,204.98184L534.06778,205.22187L535.26793,206.18197L537.18817,207.86215L537.18817,208.82225z"/>
		</g>
</g></svg>