<?xml version="1.0" encoding="utf-8" standalone="no"?>
<!-- Creator: ESRI ArcMap 10.0.0.2414 -->
<!DOCTYPE svg PUBLIC "-//W3C//DTD SVG 1.1//EN"  "http://www.w3.org/Graphics/SVG/1.1/DTD/svg11.dtd">
<svg width="386.732610658pt" height="741.1872776pt" viewBox="104.384874671 45.48194658 386.732610658 741.1872776" enable-background="new 104.384874671 45.48194658 386.732610658 741.1872776"
	version="1.1" xmlns="http://www.w3.org/2000/svg" xmlns:xlink="http://www.w3.org/1999/xlink" >
	<g id="Couches">
		<g id="reservoirs">
			<path clip-path="url(#SVG_CP_2)" fill-opacity="0.2" fill="#07866D" fill-rule="evenodd" stroke="none" stroke-width="" stra="1.44018" stroke-miterlimit="10" stroke-linecap="round" stroke-linejoin="round" d="
				M230.9093,556.61931L236.18997,569.82072L239.5504,566.70039L240.99058,567.18044L246.03122,557.81944L249.63168,557.57942L250.83183,557.81944
				L264.03351,560.45972L267.63396,560.93977L283.47597,564.54016L287.55649,563.82008L307.23899,578.94169L305.31875,583.7422L
				301.95832,591.183L309.63929,594.30333L316.84021,584.70231L317.08024,584.70231L321.40079,587.10256L323.081,587.34259L323.081,590.2229
				L323.32103,592.1431L324.04112,593.1032L324.52118,592.86318L328.12164,595.50346L327.40155,596.22353L327.16152,596.94361L327.88161,597.66369
				L330.28191,598.38376L331.24204,596.94361L332.20216,596.70359L334.60246,592.86318L337.2428,594.78338L339.40307,596.22353L
				351.88466,604.86446L358.12545,608.46484L360.52575,609.90499L361.96594,611.10512L362.92606,611.58517L364.12621,612.30525L
				365.08633,612.7853L360.76578,620.70614L356.9253,628.14694L356.68526,629.82712L354.52499,633.66752L352.84478,632.22737L343.48359,631.02724
				L340.60322,633.66752L335.32255,634.86765L331.24204,635.3477L323.80109,637.98799L319.9606,637.98799L316.36015,637.50793L311.55954,636.06778
				L311.31951,638.46804L312.75969,639.90819L315.40003,639.66816L322.36091,639.42814L325.96137,643.02852L327.88161,643.50857
				L331.48207,642.06842L333.88237,640.86829L336.76274,638.70806L339.40307,638.46804L343.72362,639.18811L348.52423,639.42814
				L347.32408,645.90883L347.32408,646.86893L351.16456,647.58901L352.12469,647.82903L352.12469,650.22929L352.12469,651.66944
				L352.36472,652.62955L352.60475,654.0697L351.64463,654.0697L346.60399,655.0298L344.92377,655.50985L344.44371,657.43006L342.28344,658.39016
				L338.44295,659.35026L337.2428,660.79041L334.36243,661.03044L330.52194,659.35026L326.92149,662.47059L338.68298,665.83095L
				349.48435,668.95128L354.04493,669.91139L356.44523,671.11151L363.16609,673.03172L370.12697,674.95192L371.08709,675.43198L
				371.08709,673.51177L370.84706,672.07162L370.367,670.87149L369.88694,669.67136L369.16685,668.47123L368.68679,667.75116L367.9667,667.03108
				L366.28648,665.83095L368.92682,660.55039L370.367,657.19003L372.52728,652.14949L371.08709,651.18939L368.20673,650.70934L359.56563,651.18939
				L358.12545,650.70934L356.9253,650.22929L355.48511,649.50921L354.76502,649.26919L354.76502,649.02916L353.32484,647.34898L
				354.04493,644.94873L354.28496,643.7486L354.76502,642.30845L355.24508,640.62827L357.40536,636.54783L360.52575,629.34706L365.80642,619.98607
				L367.00657,617.10576L368.68679,613.7454L370.60703,609.42494L374.68755,603.4243L377.08785,600.06394L380.68831,601.26407L384.5288,602.4642
				L386.9291,603.4243L389.08938,604.14438L391.96974,605.10448L393.40993,606.06458L396.29029,608.22481L397.49044,609.18492L399.65072,610.14502
				L415.2527,616.86573L418.13306,616.86573L428.21434,616.62571L432.53489,617.10576L437.09547,613.98543L440.4559,611.58517L444.53641,608.22481
				L446.69669,606.78466L448.61693,605.10448L449.09699,604.14438L449.33702,603.4243L450.05711,601.98415L451.25727,600.78402L
				452.45742,599.10384L453.8976,598.14374L456.53794,594.78338L459.4183,591.42302L461.33855,588.54272L464.45894,584.70231L465.65909,582.7821
				L467.33931,580.38185L466.85925,577.74157L468.29943,576.30141L470.21967,578.22162L471.65986,579.18172L471.89989,580.14182
				L473.10004,579.9018L473.82013,580.62187L473.5801,581.58197L474.30019,582.06203L475.74037,582.7821L477.18056,584.46228L479.1008,586.86254
				L483.42135,590.2229L486.78177,596.70359L486.06168,597.42366L476.94053,607.74476L475.26031,606.30461L474.30019,605.10448L
				474.30019,604.86446L472.86001,603.66433L471.89989,603.4243L470.4597,604.14438L467.57934,607.74476L467.09928,607.98479L466.13915,607.98479
				L465.41906,607.98479L465.17903,607.98479L464.21891,607.50474L464.21891,607.02469L464.21891,605.82456L463.49882,604.62443
				L462.5387,604.14438L461.09852,602.70423L459.89836,601.5041L458.45818,603.4243L454.37766,609.42494L455.81785,610.86509L454.37766,611.8252
				L451.97736,613.26535L452.93748,615.66561L453.41754,615.66561L453.8976,616.86573L453.65757,617.34579L455.09775,619.98607L
				455.81785,621.18619L457.018,621.18619L458.93824,619.26599L460.61845,622.86637L457.25803,622.1463L456.29791,624.0665L455.57781,625.74668
				L455.57781,626.22673L452.93748,632.94745L452.21739,635.10768L450.29714,640.38824L450.05711,643.98862L452.45742,648.54911
				L457.25803,652.38952L457.73809,651.90947L458.69821,652.62955L459.4183,652.86957L460.13839,653.1096L461.57858,653.34962L463.97888,656.70998
				L463.73885,657.67008L463.49882,658.15013L462.77873,658.63018L461.81861,659.35026L464.69897,662.95065L466.85925,665.59093
				L474.06016,660.79041L475.26031,659.83031L479.82089,663.67072L479.82089,665.83095L478.62074,666.55103L469.73961,672.07162
				L445.01647,686.9532L450.53717,690.07354L463.01876,701.11471L462.5387,706.15525L440.4559,700.39464L391.48968,686.47315L368.20673,680.23249
				L340.60322,672.79169L335.08252,671.11151L313.23975,665.11088L307.71905,663.4307L306.27887,662.95065L298.83792,660.55039L
				293.31722,658.15013L288.99668,655.9899L283.47597,653.58965L281.79576,653.34962L278.9154,653.34962L280.83564,654.54975L285.87628,657.19003
				L287.31646,658.15013L288.75664,658.87021L290.43686,659.83031L292.59713,660.79041L294.03731,661.51049L296.43762,662.47059
				L300.03808,663.91075L304.35862,665.83095L303.87856,667.03108L296.67765,681.67264L285.63625,703.99502L278.9154,717.19643L
				280.59561,720.07673L274.83488,736.87852L273.15466,742.39911L271.47445,746.71957L270.51433,748.39975L271.71448,753.20026L
				272.91463,756.80065L273.87476,759.2009L273.87476,761.12111L267.87399,770.4821L254.67232,762.08121L252.51205,767.36177L251.07186,772.16228
				L242.6708,767.36177L239.07034,764.96152L234.74979,762.32123L227.30885,758.00077L226.82879,757.2807L226.34872,757.76075L225.62863,759.2009
				L221.06805,769.04195L220.10793,770.72213L219.8679,772.40231L216.74751,776.96279L214.58723,780.08313L213.38708,781.76331L
				209.78662,781.76331L207.86638,784.88364L205.70611,782.00333L203.3058,779.12302L198.98525,774.32251L192.50443,767.12175L187.22376,761.60116
				L184.82346,759.2009L182.18312,756.56062L180.26288,754.64042L178.58266,753.20026L175.94233,751.52008L174.02208,750.07993L
				172.10184,748.63978L170.90169,747.19962L168.02132,743.83926L165.86105,741.43901L164.42087,740.47891L162.74065,739.5188L157.21995,736.87852
				L153.6195,735.19834L151.69925,733.99822L149.77901,732.55806L148.57886,731.83799L147.13867,730.39783L144.9784,728.71765L142.81812,726.55742
				L140.89788,724.63722L138.01752,721.75691L136.3373,720.07673L134.65709,718.39655L132.97688,716.47635L131.77672,714.79617L
				131.05663,713.83607L130.09651,712.63594L127.93624,708.79553L126.97611,706.87533L126.25602,704.7151L125.77596,702.79489L125.53593,701.11471
				L125.53593,700.15461L125.2959,698.47443L125.2959,694.63402L125.05587,690.55359L124.57581,687.19323L123.13563,683.35282L121.69544,680.23249
				L120.49529,678.07226L118.57505,675.672L118.33502,674.95192L118.81508,674.23185L119.05511,673.03172L118.57505,670.87149L118.33502,670.15141
				L117.85496,668.95128L117.61493,668.23121L117.85496,667.27111L118.33502,666.07098L119.53517,664.3908L121.21538,662.23057L
				126.73608,655.0298L130.57657,650.22929L131.05663,649.50921L131.77672,648.54911L132.97688,647.82903L133.937,647.58901L135.61721,647.82903
				L137.29742,647.82903L139.69773,647.58901L143.29819,646.86893L146.65861,646.38888L149.29895,646.14885L151.21919,645.6688L
				153.13943,645.6688L154.33959,645.42878L155.53974,645.42878L157.21995,645.6688L158.66013,645.90883L160.58038,645.90883L162.50062,646.14885
				L164.90093,646.14885L166.34111,646.38888L167.54126,646.62891L168.98144,646.86893L170.66166,647.34898L172.82193,648.06906
				L175.22224,649.02916L180.50291,651.18939L186.50367,653.34962L188.90397,655.0298L189.62406,655.74988L192.50443,660.31036L
				192.98449,661.03044L193.94461,661.51049L194.6647,661.75052L195.86486,661.51049L198.26516,660.79041L200.42544,660.07034L203.3058,658.87021
				L206.4262,656.70998L209.78662,655.74988L213.38708,654.78978L214.82726,654.78978L216.50748,655.0298L218.66775,655.9899L219.8679,656.95001
				L221.30809,657.91011L222.50824,657.91011L223.70839,657.43006L225.62863,656.22993L227.54888,655.0298L229.22909,654.30972L
				231.14933,654.0697L233.06958,654.0697L236.18997,654.30972L238.35025,654.78978L240.99058,656.22993L244.35101,657.43006L246.99134,654.54975
				L247.71144,653.1096L249.39165,652.14949L252.75208,651.66944L259.47293,652.14949L264.51357,652.14949L270.51433,652.38952L
				274.35482,652.38952L271.71448,652.14949L267.87399,651.90947L267.87399,649.74924L267.87399,647.34898L262.83335,647.34898L
				262.83335,648.78914L262.83335,651.66944L255.63244,650.46932L249.87171,650.46932L247.95147,648.30908L237.63016,649.02916L
				222.02818,645.42878L207.14629,642.54847L191.54431,640.38824L183.6233,638.22801L171.14172,634.62763L157.45998,629.10704L142.09803,623.82648
				L139.21767,622.1463L139.69773,621.42622L140.89788,619.50602L139.21767,618.78594L135.61721,616.86573L134.65709,616.38568L
				144.25831,601.5041L146.65861,597.66369L149.53898,593.1032L153.6195,586.62251L156.97992,581.34195L157.45998,580.14182L165.14096,567.42047
				L182.18312,540.05755L192.02437,523.73581L193.22452,521.81561L198.02513,513.89476L218.18769,481.49131L221.54812,477.17085
				L223.46836,473.33044L224.66851,469.97008L225.14857,465.40959L227.54888,464.92954L228.26897,464.92954L228.02894,467.08977
				L228.26897,471.89029L228.509,475.25064L230.18921,481.97136L228.74903,500.2133L227.78891,514.61484L225.3886,543.65793L226.82879,546.53824
				L230.9093,556.61931z"/>
			<path clip-path="url(#SVG_CP_2)" fill-opacity="0.2" fill="#07866D" fill-rule="evenodd" stroke="none" stroke-width="" stra="1.44018" stroke-miterlimit="10" stroke-linecap="round" stroke-linejoin="round" d="
				M221.06805,101.77085L234.74979,125.7734L231.86943,126.97353L232.82955,128.41368L227.54888,132.49412L228.509,134.65435L219.8679,138.49476
				L221.78815,143.05524L213.38708,148.09578L215.06729,151.93619L205.94614,156.49668L198.74522,160.81714L192.02437,167.53785
				L184.34339,162.97737L177.62254,158.89693L171.38175,157.21675L168.50138,156.01663L164.6609,154.8165L160.82041,153.8564L156.25983,153.37634
				L147.61873,154.09642L140.17779,155.29655L135.61721,154.8165L127.69621,152.89629L120.49529,149.53594L108.97383,143.5353L110.89407,132.97417
				L118.33502,123.8532L113.29438,120.25281L115.45465,117.13248L117.61493,113.5321L119.29514,111.37187L130.09651,99.37059L134.17703,101.53082
				L144.9784,107.77148L152.41934,97.93044L153.13943,96.97033L156.73989,94.8101L160.58038,87.36931L165.38099,78.24834L166.34111,76.56816
				L170.42163,72.72775L176.42239,67.68721L184.34339,62.40665L191.06425,59.52634L193.46455,57.60614L209.30656,83.28888L221.06805,101.77085
				z"/>
		</g>
</g></svg>