<?xml version="1.0" encoding="utf-8" standalone="no"?>
<!-- Creator: ESRI ArcMap 10.0.0.2414 -->
<!DOCTYPE svg PUBLIC "-//W3C//DTD SVG 1.1//EN"  "http://www.w3.org/Graphics/SVG/1.1/DTD/svg11.dtd">
<svg width="524.0420768pt" height="247.535168898pt" viewBox="32.15712744 297.361550551 524.0420768 247.535168898" enable-background="new 32.15712744 297.361550551 524.0420768 247.535168898"
	version="1.1" xmlns="http://www.w3.org/2000/svg" xmlns:xlink="http://www.w3.org/1999/xlink" >
	<g id="Couches">
		<g id="cont_2">
			<path clip-path="url(#SVG_CP_2)" fill="none" stroke="#999999" stroke-width="0.96012" stroke-miterlimit="10" stroke-linecap="round" stroke-linejoin="round" d="
				M240.03046,518.9353L238.59028,518.9353L238.35025,518.9353L238.11022,518.9353L236.43,518.9353L236.18997,518.9353L236.18997,518.69527
				L235.94994,518.69527L235.70991,518.69527L235.70991,518.45525L235.46988,518.45525L234.98982,518.45525L234.98982,518.21522
				L234.74979,518.21522L234.74979,517.9752L234.26973,517.9752L234.0297,517.9752L234.0297,517.73517L233.78967,517.73517L233.54964,517.73517
				L233.54964,517.49515L233.30961,517.49515L233.06958,517.49515L233.06958,517.25512L232.82955,517.25512L232.58952,517.25512
				L232.58952,517.01509L232.58952,516.77507L232.34949,516.77507L232.34949,516.29502L232.10946,516.29502L232.10946,516.05499
				L231.86943,516.05499L231.86943,515.81497L231.86943,515.57494L231.62939,515.57494L231.62939,515.33492L231.38936,515.33492
				L231.38936,515.09489L231.14933,515.09489L231.14933,514.85486L230.9093,514.85486L230.66927,514.85486L230.66927,514.61484L
				230.42924,514.61484L230.42924,514.37481L230.18921,514.37481L230.18921,514.13479L229.70915,514.13479L229.46912,514.13479L
				229.46912,513.89476L229.22909,513.89476L228.98906,513.89476L228.98906,513.65474L228.74903,513.65474L228.509,513.65474L228.509,513.41471
				L228.26897,513.41471L228.02894,513.41471L228.02894,513.17468L227.78891,513.17468L227.54888,513.17468L227.54888,512.93466
				L227.06882,512.93466L226.82879,512.93466L226.82879,512.69463L226.58876,512.69463L226.34872,512.69463L226.34872,512.45461
				L225.86866,512.45461L225.3886,512.45461L225.3886,512.21458L225.14857,512.21458L224.90854,512.21458L224.90854,511.97456L224.42848,511.97456
				L224.18845,511.97456L224.18845,511.73453L223.94842,511.73453L223.46836,511.73453L223.46836,511.49451L223.22833,511.49451
				L222.50824,511.49451L222.50824,511.25448L222.26821,511.25448L222.02818,511.25448L222.02818,511.01445L221.78815,511.01445
				L221.78815,510.77443L221.06805,510.77443L220.82802,510.77443L220.82802,510.5344L219.8679,510.5344L219.8679,510.77443L220.10793,510.77443
				L220.34796,510.77443L220.34796,511.25448L220.10793,511.25448L219.62787,511.25448L219.62787,511.49451L219.62787,511.25448
				L219.14781,511.25448L218.90778,511.25448L218.90778,511.01445L218.42772,511.01445L218.42772,510.77443L217.70763,510.77443
				L217.22757,510.77443L217.22757,510.5344L216.74751,510.5344L216.26745,510.5344L216.26745,510.29438L216.02742,510.29438L216.02742,510.05435
				L215.78738,510.05435L215.78738,509.81433L216.02742,509.81433L216.02742,509.5743L216.02742,509.33428L216.02742,508.85422L
				215.78738,508.85422L215.78738,508.6142L215.78738,508.13415L215.54735,508.13415L215.54735,507.17405L215.54735,506.93402L215.54735,506.45397
				L215.54735,506.21394L215.30732,506.21394L215.30732,505.73389L215.30732,503.33364L215.30732,502.61356L215.30732,502.13351
				L215.06729,502.13351L215.06729,501.65346L215.06729,501.41343L214.82726,501.41343L214.82726,500.93338L214.82726,494.21266
				L214.58723,494.21266L214.58723,493.73261L214.58723,493.01254L214.3472,493.01254L214.3472,492.77251L214.58723,492.77251L214.58723,492.53249
				L214.3472,492.53249L214.3472,491.09233L214.3472,489.8922L214.10717,489.8922L214.10717,488.21202L214.3472,488.21202L214.3472,487.73197
				L214.3472,487.25192L214.58723,487.25192L214.58723,486.77187L214.58723,486.53185L214.82726,486.53185L214.82726,486.05179L
				214.82726,485.57174L215.06729,485.57174L215.06729,485.33172L215.06729,485.09169L215.30732,485.09169L215.30732,484.85167L
				215.30732,484.61164L215.54735,484.61164L215.54735,484.37162L215.54735,484.13159L215.78738,484.13159L215.78738,483.89156L
				215.78738,483.65154L216.02742,483.65154L216.02742,483.41151L216.26745,483.41151L216.26745,483.17149L216.26745,482.93146L
				216.50748,482.93146L216.50748,485.33172L216.50748,485.57174L216.50748,486.05179L216.98754,486.05179L216.98754,486.29182L
				219.8679,486.29182L227.54888,486.29182L227.78891,486.29182L227.78891,486.05179L227.54888,486.05179L227.54888,485.81177L227.54888,485.33172
				L227.30885,485.33172L227.30885,485.09169L230.42924,485.09169L230.42924,484.85167L233.78967,484.85167L236.91007,484.85167
				L236.91007,494.69272L240.27049,494.69272L243.63092,494.69272L243.63092,502.61356L242.6708,502.61356L242.43077,502.61356L
				242.43077,502.37353L242.19074,502.37353L242.19074,502.13351L241.9507,502.13351L241.9507,501.89348L241.71067,501.89348L241.23061,501.89348
				L241.23061,501.65346L240.99058,501.65346L240.99058,501.89348L240.75055,501.89348L240.51052,501.89348L240.51052,502.13351
				L240.27049,502.13351L240.03046,502.13351L240.03046,502.37353L239.79043,502.37353L239.79043,502.61356L239.5504,502.61356L
				237.63016,502.61356L237.63016,502.85359L237.39013,502.85359L237.39013,503.09361L237.1501,503.09361L236.91007,503.09361L236.91007,503.33364
				L236.67003,503.33364L236.43,503.33364L236.43,503.57366L236.18997,503.57366L236.18997,503.81369L235.94994,503.81369L235.70991,503.81369
				L235.70991,504.05371L235.46988,504.05371L235.46988,504.29374L235.22985,504.29374L235.22985,504.53376L234.98982,504.53376
				L234.74979,504.53376L234.74979,504.77379L234.50976,504.77379L234.26973,504.77379L234.26973,505.01382L234.0297,505.01382L
				233.78967,505.01382L233.78967,505.25384L233.54964,505.25384L233.54964,505.49387L233.06958,505.49387L232.34949,505.49387L
				232.34949,505.73389L231.62939,505.73389L231.14933,505.73389L231.14933,505.97392L230.42924,505.97392L229.70915,505.97392L
				229.70915,506.21394L229.46912,506.21394L229.22909,506.21394L229.22909,506.45397L228.98906,506.45397L228.98906,506.69399L
				228.74903,506.69399L228.74903,506.93402L228.509,506.93402L228.26897,506.93402L228.26897,507.17405L227.54888,507.17405L226.34872,507.17405
				L226.34872,507.41407L226.10869,507.41407L226.10869,507.6541L225.86866,507.6541L225.62863,507.6541L225.62863,507.89412L225.3886,507.89412
				L225.3886,508.13415L225.3886,508.6142L226.34872,508.6142L226.34872,508.85422L227.54888,508.85422L228.509,508.85422L228.509,509.09425
				L228.74903,509.09425L228.74903,508.85422L229.22909,508.85422L229.70915,508.85422L229.70915,508.6142L230.18921,508.6142L230.66927,508.6142
				L230.66927,508.37417L231.38936,508.37417L232.10946,508.37417L232.10946,508.13415L232.58952,508.13415L233.30961,508.13415
				L233.30961,507.89412L234.0297,507.89412L234.74979,507.89412L234.74979,507.6541L235.46988,507.6541L239.07034,507.6541L239.5504,507.6541
				L239.5504,507.89412L240.03046,507.89412L240.51052,507.89412L240.51052,508.13415L241.47064,508.13415L241.47064,507.89412L
				241.9507,507.89412L242.19074,507.89412L242.19074,507.6541L242.43077,507.6541L242.43077,507.41407L242.6708,507.41407L242.6708,507.17405
				L242.91083,507.17405L242.91083,506.93402L242.91083,506.69399L243.15086,506.69399L243.15086,506.45397L243.39089,506.45397
				L243.39089,506.21394L243.63092,506.21394L243.63092,505.97392L243.63092,505.73389L243.87095,505.73389L244.11098,505.73389
				L244.11098,505.49387L244.59104,505.49387L244.83107,505.49387L244.83107,505.25384L245.31113,505.25384L245.79119,505.25384
				L245.79119,505.01382L245.55116,505.01382L245.55116,504.29374L245.55116,503.57366L245.31113,503.57366L245.31113,503.33364
				L245.0711,503.33364L245.0711,503.09361L244.83107,503.09361L244.83107,502.85359L244.59104,502.85359L244.59104,502.61356L244.35101,502.61356
				L243.87095,502.61356L243.87095,494.69272L250.35177,494.69272L250.35177,494.93274L254.19226,494.93274L255.63244,494.93274
				L255.63244,495.17277L255.63244,495.65282L255.87247,495.65282L255.87247,496.13287L256.1125,496.13287L256.1125,496.37289L256.59256,496.37289
				L256.83259,496.37289L256.83259,496.61292L257.31265,496.61292L257.55268,496.61292L257.55268,496.85295L258.03275,496.85295
				L258.03275,497.09297L258.27278,497.09297L258.75284,497.09297L258.75284,497.333L258.99287,497.333L259.2329,497.333L259.2329,497.57302
				L259.47293,497.57302L259.71296,497.57302L259.71296,497.81305L259.95299,497.81305L260.19302,497.81305L260.19302,498.05307
				L260.43305,498.05307L260.67308,498.05307L260.67308,498.2931L260.91311,498.2931L261.15314,498.2931L261.15314,498.53312L261.39317,498.53312
				L261.6332,498.53312L261.6332,498.77315L261.87323,498.77315L262.11326,498.77315L262.11326,499.01318L262.35329,499.01318L262.59332,499.01318
				L262.59332,499.2532L262.83335,499.2532L262.83335,499.49323L263.07339,499.49323L263.31342,499.49323L263.31342,499.73325L263.55345,499.73325
				L263.55345,499.97328L263.79348,499.97328L264.03351,499.97328L264.03351,500.2133L264.27354,500.2133L264.27354,500.45333L264.51357,500.45333
				L264.51357,500.69335L264.7536,500.69335L264.7536,500.93338L264.99363,500.93338L264.99363,501.17341L265.23366,501.17341L265.47369,501.17341
				L265.47369,501.41343L265.71372,501.41343L265.71372,501.65346L265.95375,501.65346L265.95375,501.89348L266.19378,501.89348
				L266.43381,501.89348L266.43381,502.13351L266.91387,502.13351L266.91387,502.37353L267.1539,502.37353L267.1539,502.61356L267.39393,502.61356
				L267.39393,502.85359L267.63396,502.85359L267.87399,502.85359L267.87399,503.09361L268.11402,503.09361L268.11402,503.33364
				L268.35406,503.33364L268.35406,503.57366L268.59409,503.57366L268.83412,503.57366L268.83412,503.81369L268.83412,504.29374
				L268.83412,504.77379L268.59409,504.77379L268.59409,505.25384L268.59409,505.73389L268.35406,505.73389L268.35406,505.97392
				L268.35406,506.45397L268.11402,506.45397L268.11402,506.93402L268.11402,507.41407L267.87399,507.41407L267.87399,507.89412
				L267.87399,508.37417L267.63396,508.37417L267.63396,508.85422L267.63396,509.33428L267.39393,509.33428L267.39393,509.5743L
				267.63396,509.5743L267.63396,509.81433L267.87399,509.81433L268.11402,509.81433L268.11402,510.05435L268.35406,510.05435L268.35406,510.29438
				L268.59409,510.29438L269.07415,510.29438L269.07415,510.5344L269.31418,510.5344L269.55421,510.5344L269.55421,510.77443L269.79424,510.77443
				L270.2743,510.77443L270.2743,511.01445L270.51433,511.01445L270.51433,511.25448L270.99439,511.25448L271.23442,511.25448L271.23442,511.49451
				L271.71448,511.49451L271.95451,511.49451L271.95451,511.73453L272.19454,511.73453L272.43457,511.73453L272.43457,511.97456
				L272.6746,511.97456L272.91463,511.97456L272.91463,512.21458L273.15466,512.21458L273.15466,512.45461L273.3947,512.45461L273.63473,512.45461
				L273.63473,512.69463L273.87476,512.69463L274.11479,512.69463L274.11479,512.93466L274.35482,512.93466L274.35482,513.17468
				L274.59485,513.17468L274.59485,513.41471L274.83488,513.41471L275.07491,513.41471L275.07491,513.65474L275.31494,513.65474
				L275.31494,513.89476L275.55497,513.89476L275.55497,514.13479L275.795,514.13479L276.03503,514.13479L276.03503,514.37481L276.27506,514.37481
				L276.27506,514.61484L276.51509,514.61484L276.51509,514.85486L276.75512,514.85486L276.99515,514.85486L276.99515,515.09489
				L277.23518,515.09489L277.47521,515.09489L277.47521,515.33492L276.51509,515.33492L276.51509,515.09489L275.795,515.09489L275.795,515.33492
				L275.07491,515.33492L275.07491,515.09489L273.63473,515.09489L272.91463,515.09489L272.43457,515.09489L272.43457,515.33492
				L272.19454,515.33492L271.71448,515.33492L271.71448,515.57494L271.47445,515.57494L270.99439,515.57494L270.99439,515.81497
				L270.75436,515.81497L270.51433,515.81497L270.51433,516.05499L270.03427,516.05499L269.79424,516.05499L269.79424,516.29502
				L269.31418,516.29502L269.07415,516.29502L269.07415,516.53504L268.83412,516.53504L268.35406,516.53504L268.35406,516.77507
				L268.11402,516.77507L267.87399,516.77507L267.87399,517.01509L267.39393,517.01509L266.91387,517.01509L266.91387,517.25512
				L266.67384,517.25512L266.19378,517.25512L266.19378,517.49515L265.95375,517.49515L265.47369,517.49515L265.47369,517.73517
				L265.23366,517.73517L264.7536,517.73517L264.7536,517.9752L264.51357,517.9752L264.03351,517.9752L264.03351,518.21522L263.31342,518.21522
				L263.31342,517.9752L260.91311,517.9752L260.67308,517.9752L260.67308,517.73517L259.95299,517.73517L259.71296,517.73517L258.99287,517.73517
				L258.99287,517.49515L258.51281,517.49515L258.27278,517.49515L258.27278,517.25512L258.03275,517.25512L257.79272,517.25512
				L257.79272,517.01509L257.55268,517.01509L257.07262,517.01509L257.07262,516.77507L256.1125,516.77507L256.1125,517.01509L254.67232,517.01509
				L254.67232,516.77507L252.99211,516.77507L252.51205,516.77507L252.51205,516.53504L251.31189,516.53504L251.07186,516.53504
				L251.07186,516.29502L250.83183,516.29502L250.83183,516.05499L250.5918,516.05499L250.35177,516.05499L250.35177,515.81497L
				250.11174,515.81497L249.87171,515.81497L249.87171,515.57494L249.63168,515.57494L249.63168,515.33492L249.39165,515.33492L
				248.67156,515.33492L248.67156,515.09489L248.1915,515.09489L247.71144,515.09489L247.71144,514.85486L247.47141,514.85486L247.47141,515.09489
				L247.23137,515.09489L246.99134,515.09489L246.99134,515.33492L246.75131,515.33492L246.75131,515.57494L246.51128,515.57494
				L246.51128,515.81497L246.51128,516.05499L246.27125,516.05499L246.27125,516.29502L246.03122,516.29502L246.03122,516.53504
				L245.79119,516.53504L245.79119,516.77507L245.31113,516.77507L245.31113,517.01509L245.0711,517.01509L244.83107,517.01509L
				244.83107,517.25512L244.35101,517.25512L244.11098,517.25512L244.11098,517.49515L243.87095,517.49515L243.63092,517.49515L
				243.63092,517.73517L243.39089,517.73517L242.91083,517.73517L242.91083,517.9752L242.6708,517.9752L242.43077,517.9752L242.43077,518.21522
				L242.19074,518.21522L242.19074,518.45525L241.47064,518.45525L241.23061,518.45525L241.23061,518.69527L240.75055,518.69527
				L240.27049,518.69527L240.27049,518.9353L240.03046,518.9353"/>
		</g>
</g></svg>