<?xml version="1.0" encoding="utf-8" standalone="no"?>
<!-- Creator: ESRI ArcMap 10.0.0.2414 -->
<!DOCTYPE svg PUBLIC "-//W3C//DTD SVG 1.1//EN"  "http://www.w3.org/Graphics/SVG/1.1/DTD/svg11.dtd">
<svg width="524.0420768pt" height="250.499602629pt" viewBox="32.15712744 295.879333685 524.0420768 250.499602629" enable-background="new 32.15712744 295.879333685 524.0420768 250.499602629"
	version="1.1" xmlns="http://www.w3.org/2000/svg" xmlns:xlink="http://www.w3.org/1999/xlink" >
	<g id="Couches">
		<g id="reservoirs">
			<path clip-path="url(#SVG_CP_2)" fill-opacity="0.2" fill="#07866D" fill-rule="evenodd" stroke="none" stroke-width="" stra="1.44018" stroke-miterlimit="10" stroke-linecap="round" stroke-linejoin="round" d="
				M532.86762,452.44821L534.06778,457.0087L534.30781,457.24873L534.06778,457.48875L533.34768,458.9289L529.5072,457.0087L528.06701,461.08913
				L530.70735,461.80921L531.18741,462.28926L531.18741,462.52929L531.42744,462.76931L527.34692,465.88965L502.62378,466.3697L
				498.54327,467.56983L492.78254,473.09041L490.62226,472.61036L480.30095,469.49003L477.90065,472.61036L476.94053,474.77059L
				473.82013,478.13095L470.4597,482.21139L466.85925,486.29182L466.61922,486.05179L462.5387,490.37225L460.61845,490.13223L453.8976,488.21202
				L442.61617,499.49323L446.69669,503.81369L444.29638,505.25384L446.69669,507.6541L445.01647,509.81433L449.09699,512.93466L
				448.13687,514.13479L450.29714,517.01509L446.21663,520.37545L440.21587,514.85486L434.45513,519.41535L441.17599,525.41599L
				422.69364,540.77763L428.93443,506.93402L440.69593,470.69016L446.93672,451.00806L447.17675,450.04796L447.65681,446.44757L
				427.01419,439.96688L432.29486,422.44502L438.05559,404.4431L437.57553,391.00167L428.6944,370.83952L426.2941,363.87878L427.49425,357.15806
				L428.6944,348.03709L453.17751,338.91612L458.69821,342.03645L481.98117,356.19796L509.34464,374.19988L517.98573,379.96049L
				525.18665,385.24105L531.18741,389.56151L540.30857,396.52225L545.10918,400.36266L542.22881,403.72302L549.18969,411.16381L
				542.9489,419.08466L541.98878,419.80474L539.34845,423.16509L537.90826,429.40576L537.90826,430.84591L537.4282,433.48619L536.46808,436.12647
				L536.22805,436.84655L535.26793,439.24681L533.82774,441.64706L532.38756,445.96752L532.14753,449.08786L532.86762,452.44821
				z"/>
			<path clip-path="url(#SVG_CP_2)" fill-opacity="0.2" fill="#07866D" fill-rule="evenodd" stroke="none" stroke-width="" stra="1.44018" stroke-miterlimit="10" stroke-linecap="round" stroke-linejoin="round" d="
				M153.6195,349.95729L154.09956,354.99783L154.33959,360.03837L153.85953,367.47916L152.17931,366.99911L150.4991,366.51906L148.81889,366.03901
				L148.57886,360.27839L148.57886,358.59821L148.33883,354.7578L145.93852,360.27839L145.69849,363.39872L145.21843,365.0789L143.77825,370.11944
				L141.61797,374.91995L132.97688,383.32085L119.29514,391.00167L109.21386,391.24169L103.93319,391.48172L103.2131,395.56215L
				102.73304,398.44246L95.05206,399.16254L89.53136,401.08274L87.85115,396.76228L90.49148,394.122L89.0513,391.72174L86.651,393.1619
				L83.77063,389.56151L79.93014,382.36075L75.84963,374.19988L75.12953,371.07954L70.80899,369.15934L55.9271,353.31765L46.56591,342.03645
				L57.60731,331.71535L55.44704,323.7945L61.4478,322.35435L89.0513,315.39361L89.77139,313.71343L120.25526,306.03261L126.01599,305.55256
				L133.937,304.59246L135.37718,304.35243L145.93852,301.71215L146.89864,303.1523L147.3787,303.39233L149.29895,316.59374L152.41934,340.11624
				L153.6195,349.95729z"/>
		</g>
</g></svg>