<?xml version="1.0" encoding="utf-8" standalone="no"?>
<!-- Creator: ESRI ArcMap 10.0.0.2414 -->
<!DOCTYPE svg PUBLIC "-//W3C//DTD SVG 1.1//EN"  "http://www.w3.org/Graphics/SVG/1.1/DTD/svg11.dtd">
<svg width="524.0420768pt" height="734.032100146pt" viewBox="32.15712744 54.1130849272 524.0420768 734.032100146" enable-background="new 32.15712744 54.1130849272 524.0420768 734.032100146"
	version="1.1" xmlns="http://www.w3.org/2000/svg" xmlns:xlink="http://www.w3.org/1999/xlink" >
	<g id="Couches">
		<g id="reservoirs">
			<path clip-path="url(#SVG_CP_2)" fill-opacity="0.2" fill="#07866D" fill-rule="evenodd" stroke="none" stroke-width="" stra="1.44018" stroke-miterlimit="10" stroke-linecap="round" stroke-linejoin="round" d="
				M529.98726,541.73773L536.22805,552.05883L545.34921,547.01829L549.18969,551.57878L546.0693,558.53952L538.14829,570.5408L532.62759,577.98159
				L520.14601,611.34515L509.34464,637.50793L497.82318,670.87149L477.66062,711.43581L463.73885,729.1977L453.17751,746.71957L
				451.01724,755.84054L448.13687,764.96152L444.29638,771.68223L437.09547,765.44157L436.85544,765.44157L444.05635,749.8399L444.53641,727.75755
				L440.69593,701.35474L433.25498,678.79233L424.37385,669.91139L410.21206,661.75052L400.13078,661.27047L390.76959,631.02724
				L389.08938,625.98671L373.72743,579.66177L357.88542,550.61867L333.88237,517.25512L317.08024,497.09297L313.71981,492.29246
				L301.95832,475.49067L353.08481,455.56855L373.96746,443.32724L380.44828,447.6477L404.69136,463.00934L433.97507,476.45077L
				444.77644,480.53121L460.13839,486.77187L475.9804,492.53249L523.2664,502.61356L526.86686,511.25448L532.14753,529.97648L536.46808,537.17724
				L529.98726,541.73773z"/>
			<path clip-path="url(#SVG_CP_2)" fill-opacity="0.2" fill="#07866D" fill-rule="evenodd" stroke="none" stroke-width="" stra="1.44018" stroke-miterlimit="10" stroke-linecap="round" stroke-linejoin="round" d="
				M96.97231,94.09003L107.77368,112.33197L120.73532,101.05077L132.73685,120.49284L141.13791,114.01215L150.25907,126.49348L169.22148,118.09258
				L171.86181,120.25281L183.6233,130.09386L201.86562,114.73223L204.26592,112.81202L210.74674,116.17238L209.78662,121.93299L
				208.8265,126.73351L204.74598,132.25409L217.22757,142.81522L214.3472,149.53594L214.10717,151.93619L213.14705,159.85704L213.14705,161.77724
				L214.10717,164.65755L216.74751,171.13824L226.82879,183.85959L258.51281,153.8564L253.95223,147.3757L231.62939,136.0945L275.07491,100.81074
				L294.03731,122.17302L305.55878,139.45486L321.16076,160.09706L309.15923,173.05844L318.76045,178.81906L310.35939,190.10026
				L305.31875,196.34092L301.71829,201.14143L296.91768,206.18197L290.43686,211.94259L283.23594,219.38338L277.95527,225.14399
				L270.99439,232.10473L264.7536,239.3055L258.99287,246.02622L256.59256,244.58606L236.91007,228.0243L234.0297,227.54425L230.42924,228.26432
				L211.70687,234.74502L204.98601,236.42519L204.02589,236.42519L203.3058,236.18517L200.42544,234.50499L197.30504,231.38466L
				193.46455,229.70448L189.86409,228.50435L185.06349,227.30422L180.74294,226.34412L174.02208,223.70384L169.22148,220.58351L
				164.90093,217.7032L162.02056,216.7431L159.38023,216.02302L154.57962,213.62276L150.01904,211.46253L144.9784,208.58223L138.97764,205.46189
				L127.69621,197.78108L117.3749,191.06036L112.33426,188.90013L104.41325,186.7399L95.77215,184.8197L92.65176,183.85959L87.13106,180.97929
				L82.57048,177.3789L79.69011,174.4986L77.04978,171.37826L75.36957,168.49796L72.96926,163.93747L70.80899,159.61701L67.20853,155.7766
				L51.60655,139.93491L66.48844,127.93363L53.28676,116.17238L51.36652,118.33261L47.04597,114.4922L48.48615,112.81202L47.286,110.89182
				L46.56591,108.73159L50.16637,107.29143L48.96621,104.89118L52.56667,103.93108L50.64643,99.13056L62.40792,95.29015L63.36804,87.60934
				L66.00838,83.04885L71.52908,75.36803L83.77063,70.80755L96.97231,94.09003z"/>
		</g>
</g></svg>