<?xml version="1.0" encoding="utf-8" standalone="no"?>
<!-- Creator: ESRI ArcMap 10.0.0.2414 -->
<!DOCTYPE svg PUBLIC "-//W3C//DTD SVG 1.1//EN"  "http://www.w3.org/Graphics/SVG/1.1/DTD/svg11.dtd">
<svg width="524.0420768pt" height="339.457857042pt" viewBox="32.15712744 251.400206479 524.0420768 339.457857042" enable-background="new 32.15712744 251.400206479 524.0420768 339.457857042"
	version="1.1" xmlns="http://www.w3.org/2000/svg" xmlns:xlink="http://www.w3.org/1999/xlink" >
	<g id="Couches">
		<g id="cont_2">
			<path clip-path="url(#SVG_CP_2)" fill="none" stroke="#999999" stroke-width="0.96012" stroke-miterlimit="10" stroke-linecap="round" stroke-linejoin="round" d="
				M293.31722,270.2688L293.07719,270.2688L293.07719,270.02877L293.31722,270.02877L293.31722,270.2688"/>
			<path clip-path="url(#SVG_CP_2)" fill="none" stroke="#999999" stroke-width="0.96012" stroke-miterlimit="10" stroke-linecap="round" stroke-linejoin="round" d="
				M275.07491,296.91164L274.83488,296.91164L274.59485,296.91164L274.59485,296.67161L274.35482,296.67161L274.35482,296.43159
				L274.11479,296.43159L274.11479,296.19156L273.87476,296.19156L273.87476,295.95154L273.63473,295.95154L273.63473,295.71151
				L273.63473,295.47149L273.3947,295.47149L273.3947,295.23146L273.15466,295.23146L273.15466,294.99144L272.91463,294.99144L272.91463,294.75141
				L272.6746,294.75141L272.43457,294.75141L272.43457,294.51138L272.19454,294.51138L272.19454,294.27136L271.71448,294.27136L
				271.71448,294.03133L271.47445,294.03133L271.47445,293.79131L271.23442,293.79131L271.23442,294.03133L270.99439,294.03133L
				270.99439,294.27136L270.51433,294.27136L270.51433,294.51138L270.2743,294.51138L270.2743,294.75141L270.03427,294.75141L269.79424,294.75141
				L269.79424,294.99144L269.55421,294.99144L269.55421,294.75141L269.79424,294.75141L269.79424,294.51138L270.03427,294.51138
				L270.03427,294.27136L270.2743,294.27136L270.2743,293.79131L270.51433,293.79131L270.51433,293.55128L270.75436,293.55128L270.75436,293.31126
				L270.99439,293.31126L270.99439,293.07123L271.47445,293.07123L271.47445,292.8312L271.71448,292.8312L271.71448,292.59118L272.19454,292.59118
				L272.43457,292.59118L272.43457,292.35115L272.6746,292.35115L272.6746,292.11113L272.91463,292.11113L272.91463,291.63108L273.15466,291.63108
				L273.15466,291.15103L273.3947,291.15103L273.3947,290.67097L273.63473,290.67097L273.63473,290.43095L273.63473,289.23082L273.63473,288.27072
				L273.3947,288.27072L273.3947,286.83057L273.15466,286.83057L273.15466,284.67034L272.91463,284.67034L272.91463,283.95026L272.6746,283.95026
				L272.6746,283.23018L272.43457,283.23018L272.43457,282.99016L272.19454,282.99016L272.19454,282.03005L271.95451,282.03005L
				271.95451,280.10985L272.19454,280.10985L272.19454,279.6298L272.43457,279.6298L272.43457,279.38977L272.6746,279.38977L272.6746,278.90972
				L272.91463,278.90972L272.91463,278.18964L273.15466,278.18964L273.15466,277.70959L273.3947,277.70959L273.3947,277.46957L273.63473,277.46957
				L273.63473,277.22954L273.87476,277.22954L273.87476,276.98952L274.11479,276.98952L274.11479,276.74949L274.35482,276.74949
				L274.35482,276.26944L274.59485,276.26944L274.59485,276.02941L274.83488,276.02941L274.83488,275.54936L275.07491,275.54936
				L275.07491,275.06931L275.31494,275.06931L275.55497,275.06931L275.55497,274.82929L275.795,274.82929L275.795,274.34924L275.795,273.86918
				L276.03503,273.86918L276.03503,273.62916L276.27506,273.62916L276.27506,273.38913L276.51509,273.38913L276.51509,273.14911
				L276.75512,273.14911L276.75512,272.90908L276.99515,272.90908L276.99515,272.66906L277.23518,272.66906L277.47521,272.66906
				L277.47521,272.42903L277.71524,272.42903L277.71524,272.18901L277.95527,272.18901L277.95527,271.94898L277.95527,271.70895
				L278.43533,271.70895L278.43533,271.46893L279.15543,271.46893L279.15543,271.2289L281.3157,271.2289L281.3157,271.46893L281.55573,271.46893
				L281.55573,271.70895L281.79576,271.70895L281.79576,271.94898L282.03579,271.94898L282.03579,272.18901L282.27582,272.18901
				L282.27582,272.42903L282.51585,272.42903L282.51585,272.66906L282.99591,272.66906L282.99591,272.90908L283.23594,272.90908
				L283.23594,273.14911L283.47597,273.14911L283.47597,273.38913L283.716,273.38913L283.716,273.62916L284.19607,273.62916L284.19607,273.86918
				L284.67613,273.86918L284.67613,274.10921L284.91616,274.10921L284.91616,273.62916L285.15619,273.62916L285.15619,273.14911
				L285.39622,273.14911L285.39622,272.18901L285.63625,272.18901L285.63625,271.2289L285.87628,271.2289L285.87628,270.98888L286.11631,270.98888
				L286.11631,270.74885L286.35634,270.74885L286.35634,270.50883L286.59637,270.50883L286.8364,270.50883L286.8364,270.2688L287.07643,270.2688
				L287.07643,270.50883L291.39698,270.50883L291.39698,270.2688L291.63701,270.2688L291.63701,270.50883L292.11707,270.50883L292.11707,270.2688
				L292.3571,270.2688L292.3571,270.50883L292.59713,270.50883L292.11707,270.50883L292.11707,270.74885L291.63701,270.74885L291.63701,270.98888
				L291.39698,270.98888L291.39698,271.2289L291.15695,271.2289L291.15695,271.46893L290.67689,271.46893L290.67689,271.70895L290.19683,271.70895
				L290.19683,271.94898L289.9568,271.94898L289.9568,272.18901L289.47674,272.18901L289.47674,278.6697L289.23671,278.6697L289.23671,280.34987
				L288.99668,280.34987L288.99668,280.82993L288.51661,280.82993L288.51661,281.06995L288.03655,281.06995L288.03655,280.82993
				L287.79652,280.82993L287.79652,280.10985L287.55649,280.10985L287.55649,278.42967L287.07643,278.42967L287.07643,278.6697L
				286.8364,278.6697L286.8364,278.90972L286.11631,278.90972L286.11631,279.14975L285.63625,279.14975L285.63625,279.38977L285.15619,279.38977
				L284.67613,279.38977L284.67613,279.6298L284.19607,279.6298L284.19607,279.86982L283.716,279.86982L283.716,280.10985L283.23594,280.10985
				L283.23594,279.6298L282.99591,279.6298L282.99591,279.38977L282.75588,279.38977L282.75588,278.90972L282.51585,278.90972L282.51585,278.6697
				L282.51585,278.18964L282.27582,278.18964L282.27582,277.70959L282.03579,277.70959L282.03579,277.22954L281.79576,277.22954
				L281.55573,277.22954L281.55573,276.74949L281.3157,276.74949L281.3157,276.26944L281.07567,276.26944L281.07567,275.78939L280.83564,275.78939
				L280.83564,275.54936L280.59561,275.54936L280.59561,275.06931L280.35558,275.06931L280.35558,274.82929L280.11555,274.82929
				L280.11555,274.58926L280.11555,274.10921L279.87552,274.10921L279.87552,273.62916L279.63549,273.62916L279.63549,273.38913
				L279.39546,273.38913L279.39546,272.90908L279.15543,272.90908L279.15543,272.66906L278.9154,272.66906L278.67537,272.66906L
				278.67537,272.90908L278.43533,272.90908L278.43533,273.14911L278.1953,273.14911L278.1953,273.38913L277.95527,273.38913L277.95527,273.86918
				L277.95527,274.10921L277.71524,274.10921L277.71524,274.34924L277.47521,274.34924L277.47521,274.58926L277.23518,274.58926
				L277.23518,275.06931L276.99515,275.06931L276.75512,275.06931L276.75512,275.30934L276.51509,275.30934L276.51509,275.78939
				L276.27506,275.78939L276.27506,276.02941L276.03503,276.02941L276.03503,276.50947L275.795,276.50947L275.795,276.74949L275.795,277.22954
				L275.55497,277.22954L275.55497,277.46957L275.31494,277.46957L275.31494,277.70959L275.07491,277.70959L275.07491,278.18964
				L274.83488,278.18964L274.83488,278.42967L274.59485,278.42967L274.59485,278.90972L274.35482,278.90972L274.35482,279.14975
				L274.11479,279.14975L274.11479,279.38977L273.87476,279.38977L273.87476,279.86982L273.63473,279.86982L273.63473,280.10985
				L273.63473,280.5899L273.3947,280.5899L273.3947,281.55L273.15466,281.55L273.15466,282.03005L273.3947,282.03005L273.3947,282.27008
				L273.63473,282.27008L273.63473,282.51011L273.63473,282.75013L273.87476,282.75013L273.87476,282.99016L274.11479,282.99016
				L274.11479,283.47021L274.35482,283.47021L274.35482,283.71023L274.59485,283.71023L274.83488,283.71023L274.83488,283.95026
				L275.07491,283.95026L275.07491,284.19028L275.31494,284.19028L275.31494,284.43031L275.55497,284.43031L275.55497,284.67034
				L275.795,284.67034L275.795,285.63044L275.795,288.27072L276.27506,288.27072L276.27506,288.51074L276.51509,288.51074L276.51509,288.75077
				L276.75512,288.75077L276.75512,288.9908L276.99515,288.9908L276.99515,289.23082L277.23518,289.23082L277.23518,289.47085L277.71524,289.47085
				L277.71524,289.71087L277.95527,289.71087L277.95527,289.9509L277.71524,289.9509L277.71524,290.19092L277.47521,290.19092L277.47521,290.43095
				L277.23518,290.43095L276.99515,290.43095L276.99515,290.67097L276.75512,290.67097L276.75512,290.911L276.51509,290.911L276.51509,291.15103
				L276.27506,291.15103L276.27506,291.39105L276.03503,291.39105L276.03503,291.63108L275.795,291.63108L275.795,291.8711L275.55497,291.8711
				L275.55497,292.11113L275.31494,292.11113L275.31494,292.35115L275.07491,292.35115L275.07491,292.59118L274.83488,292.59118
				L274.59485,292.59118L274.59485,292.8312L274.35482,292.8312L274.35482,293.07123L274.11479,293.07123L274.11479,293.31126L273.87476,293.31126
				L273.87476,293.55128L273.63473,293.55128L273.63473,293.79131L273.3947,293.79131L273.3947,294.03133L273.15466,294.03133L273.15466,294.27136
				L273.63473,294.27136L273.63473,294.51138L274.11479,294.51138L274.11479,294.75141L274.59485,294.75141L274.83488,294.75141
				L274.83488,295.23146L275.07491,295.23146L275.07491,295.47149L275.31494,295.47149L275.31494,295.71151L275.55497,295.71151
				L275.55497,295.95154L275.795,295.95154L275.795,296.43159L275.55497,296.43159L275.55497,296.67161L275.31494,296.67161L275.31494,296.91164
				L275.07491,296.91164L275.07491,296.91164"/>
			<path clip-path="url(#SVG_CP_2)" fill="none" stroke="#999999" stroke-width="0.96012" stroke-miterlimit="10" stroke-linecap="round" stroke-linejoin="round" d="
				M265.71372,300.99207L265.71372,300.51202L266.19378,300.51202L266.19378,300.75205L265.95375,300.75205L265.95375,300.99207
				L265.71372,300.99207"/>
			<path clip-path="url(#SVG_CP_2)" fill="none" stroke="#999999" stroke-width="0.96012" stroke-miterlimit="10" stroke-linecap="round" stroke-linejoin="round" d="
				M265.47369,301.2321L265.47369,300.99207L265.71372,300.99207L265.71372,301.2321L265.47369,301.2321"/>
			<path clip-path="url(#SVG_CP_2)" fill="none" stroke="#999999" stroke-width="0.96012" stroke-miterlimit="10" stroke-linecap="round" stroke-linejoin="round" d="
				M265.47369,301.2321L265.47369,301.47213L265.23366,301.47213L265.23366,301.2321L265.47369,301.2321"/>
			<path clip-path="url(#SVG_CP_2)" fill="none" stroke="#999999" stroke-width="0.96012" stroke-miterlimit="10" stroke-linecap="round" stroke-linejoin="round" d="
				M314.19987,337.95601L314.19987,337.71599L313.95984,337.71599L313.95984,337.47596L313.71981,337.47596L313.71981,337.23594
				L313.47978,337.23594L313.47978,336.99591L313.23975,336.99591L313.23975,336.75589L313.23975,336.51586L312.99972,336.51586
				L312.75969,336.51586L312.75969,336.27583L312.51966,336.27583L312.51966,336.03581L312.0396,336.03581L312.0396,335.79578L311.79957,335.79578
				L311.79957,335.55576L311.55954,335.55576L311.55954,335.31573L311.31951,335.31573L311.31951,335.07571L311.07948,335.07571
				L311.07948,334.83568L311.07948,334.59566L310.83945,334.59566L310.83945,334.35563L310.59942,334.35563L310.35939,334.35563
				L310.35939,334.1156L310.11936,334.1156L310.11936,333.87558L309.87933,333.87558L309.87933,333.63555L309.63929,333.63555L309.63929,333.39553
				L309.39926,333.39553L309.39926,333.1555L309.15923,333.1555L309.15923,332.91548L308.9192,332.91548L308.9192,332.67545L308.9192,332.43543
				L308.67917,332.43543L308.67917,332.1954L308.43914,332.1954L308.19911,332.1954L308.19911,331.95537L307.95908,331.95537L307.95908,331.71535
				L307.71905,331.71535L307.71905,331.47532L307.47902,331.47532L307.47902,331.2353L307.23899,331.2353L307.23899,330.99527L306.99896,330.99527
				L306.99896,330.75525L306.75893,330.75525L306.75893,330.51522L306.5189,330.51522L306.5189,330.27519L306.5189,330.03517L306.27887,330.03517
				L306.03884,330.03517L306.03884,329.79514L305.79881,329.79514L305.79881,329.55512L305.55878,329.55512L305.55878,329.31509
				L305.31875,329.31509L305.31875,328.83504L305.07872,328.83504L305.07872,328.59502L304.83869,328.59502L304.83869,328.35499
				L304.59865,328.35499L304.59865,327.87494L304.35862,327.87494L304.35862,327.63491L304.11859,327.63491L304.11859,327.39489
				L303.87856,327.39489L303.87856,326.91484L303.63853,326.91484L303.63853,326.67481L303.3985,326.67481L303.3985,326.43479L303.15847,326.43479
				L303.15847,325.95473L302.91844,325.95473L302.91844,325.71471L302.67841,325.71471L302.67841,325.47468L302.43838,325.47468
				L302.43838,324.99463L302.19835,324.99463L302.19835,324.51458L302.19835,324.03453L301.95832,324.03453L301.95832,323.55448
				L301.23823,323.55448L301.23823,323.7945L300.9982,323.7945L300.9982,324.03453L300.51814,324.03453L300.51814,324.27456L300.03808,324.27456
				L300.03808,324.51458L299.79805,324.51458L299.79805,324.75461L299.55802,324.75461L299.55802,324.99463L299.07795,324.99463
				L299.07795,325.23466L298.59789,325.23466L298.59789,325.47468L298.11783,325.47468L297.8778,325.47468L297.8778,325.71471L297.63777,325.71471
				L297.63777,325.95473L297.15771,325.95473L297.15771,326.19476L296.67765,326.19476L296.67765,325.47468L296.43762,325.47468
				L296.43762,324.51458L296.19759,324.51458L296.19759,323.7945L295.95756,323.7945L295.95756,323.07443L295.71753,323.07443L295.71753,322.35435
				L295.71753,321.39425L295.4775,321.39425L295.4775,320.67417L295.23747,320.67417L295.23747,320.19412L294.99744,320.19412L294.99744,319.9541
				L294.75741,319.9541L294.75741,319.47404L294.51738,319.47404L294.51738,318.99399L294.27735,318.99399L294.27735,318.75397L
				294.51738,318.75397L294.51738,318.51394L294.75741,318.51394L294.75741,318.27392L294.99744,318.27392L294.99744,318.03389L
				295.4775,318.03389L295.4775,317.79386L295.71753,317.79386L295.71753,317.55384L295.71753,317.31381L295.95756,317.31381L295.95756,317.07379
				L296.19759,317.07379L296.19759,316.83376L296.43762,316.83376L296.67765,316.83376L296.67765,316.59374L296.91768,316.59374
				L296.91768,316.35371L297.15771,316.35371L297.15771,316.11369L297.39774,316.11369L297.39774,315.87366L297.63777,315.87366
				L297.63777,315.63363L297.8778,315.63363L297.8778,315.39361L297.8778,315.15358L298.11783,315.15358L298.11783,314.91356L298.59789,314.91356
				L298.59789,314.67353L298.83792,314.67353L299.07795,314.67353L299.07795,314.43351L299.31798,314.43351L299.31798,313.95346
				L299.55802,313.95346L299.55802,313.71343L299.79805,313.71343L299.79805,313.4734L300.03808,313.4734L300.03808,313.23338L300.03808,312.99335
				L300.27811,312.99335L300.27811,312.75333L300.51814,312.75333L300.51814,312.5133L300.75817,312.5133L300.75817,312.27328L300.9982,312.27328
				L300.9982,311.79323L300.75817,311.79323L300.75817,311.31317L300.51814,311.31317L300.51814,310.83312L300.27811,310.83312L
				300.27811,310.35307L300.03808,310.35307L300.03808,310.11305L300.03808,309.87302L299.79805,309.87302L299.79805,309.39297L
				299.55802,309.39297L299.55802,308.91292L299.31798,308.91292L299.31798,308.43287L299.07795,308.43287L299.07795,307.95282L
				298.83792,307.95282L298.83792,307.71279L299.07795,307.71279L299.07795,307.47277L299.31798,307.47277L299.31798,307.23274L
				299.55802,307.23274L299.55802,306.99271L299.79805,306.99271L299.79805,306.75269L300.03808,306.75269L300.03808,306.51266L
				300.03808,306.27264L300.27811,306.27264L300.27811,306.03261L300.51814,306.03261L300.51814,305.79259L300.75817,305.79259L
				300.9982,305.79259L300.9982,305.31253L301.23823,305.31253L301.23823,305.07251L301.47826,305.07251L301.47826,304.83248L301.71829,304.83248
				L301.71829,304.59246L301.95832,304.59246L301.95832,304.35243L302.19835,304.35243L302.19835,304.11241L302.19835,303.87238
				L302.43838,303.87238L302.43838,303.63236L302.91844,303.63236L304.83869,303.63236L304.83869,303.39233L305.55878,303.39233
				L305.55878,303.1523L305.79881,303.1523L305.79881,302.91228L306.27887,302.91228L306.27887,302.67225L306.5189,302.67225L306.5189,302.43223
				L306.99896,302.43223L306.99896,302.1922L308.19911,302.1922L308.19911,301.95218L308.9192,301.95218L308.9192,301.71215L309.39926,301.71215
				L309.39926,301.47213L309.87933,301.47213L309.63929,301.47213L309.63929,300.51202L309.39926,300.51202L309.39926,299.79195
				L309.15923,299.79195L309.15923,299.07187L308.9192,299.07187L308.9192,298.35179L308.9192,297.87174L308.67917,297.87174L308.67917,298.11177
				L308.19911,298.11177L308.19911,298.35179L307.47902,298.35179L307.47902,298.59182L306.99896,298.59182L306.99896,298.83184
				L306.5189,298.83184L306.5189,299.07187L306.03884,299.07187L305.31875,299.07187L305.31875,299.3119L304.59865,299.3119L304.59865,299.55192
				L304.35862,299.55192L304.35862,299.79195L303.63853,299.79195L303.63853,300.03197L302.91844,300.03197L302.91844,299.3119L
				302.67841,299.3119L302.67841,298.83184L302.43838,298.83184L302.43838,298.35179L302.19835,298.35179L302.19835,297.63172L302.19835,296.91164
				L301.95832,296.91164L301.95832,296.19156L301.71829,296.19156L301.71829,295.47149L301.47826,295.47149L301.47826,294.75141
				L301.23823,294.75141L301.23823,294.03133L300.9982,294.03133L300.9982,293.07123L300.75817,293.07123L300.75817,292.35115L300.51814,292.35115
				L300.51814,290.67097L300.27811,290.67097L300.27811,288.03069L300.51814,288.03069L300.51814,286.11049L300.75817,286.11049
				L300.75817,282.99016L300.9982,282.99016L300.9982,281.06995L302.19835,281.06995L302.19835,280.82993L301.95832,280.82993L301.95832,280.34987
				L301.71829,280.34987L301.71829,279.86982L301.47826,279.86982L301.47826,279.6298L301.23823,279.6298L301.23823,279.38977L300.9982,279.38977
				L300.9982,278.90972L300.75817,278.90972L300.75817,278.6697L300.51814,278.6697L300.51814,278.18964L300.27811,278.18964L300.27811,277.94962
				L300.51814,277.94962L300.51814,277.70959L300.9982,277.70959L300.9982,277.46957L300.75817,277.46957L300.75817,277.22954L300.51814,277.22954
				L300.51814,276.50947L300.27811,276.50947L300.27811,276.02941L300.03808,276.02941L300.03808,275.54936L300.03808,275.06931
				L299.79805,275.06931L299.79805,274.82929L299.55802,274.82929L299.55802,274.34924L299.31798,274.34924L299.31798,273.86918
				L299.07795,273.86918L299.07795,273.38913L298.83792,273.38913L298.83792,272.66906L298.59789,272.66906L298.59789,272.42903
				L298.35786,272.42903L298.35786,271.94898L298.11783,271.94898L298.11783,271.46893L297.8778,271.46893L297.8778,270.98888L297.8778,270.50883
				L297.63777,270.50883L297.63777,270.2688L297.39774,270.2688L297.39774,269.78875L296.91768,269.78875L296.91768,270.02877L296.43762,270.02877
				L296.43762,270.2688L295.71753,270.2688L295.71753,270.50883L295.4775,270.50883L295.4775,270.2688L295.23747,270.2688L295.23747,269.54872
				L294.99744,269.54872L294.99744,269.06867L294.75741,269.06867L294.75741,269.3087L294.27735,269.3087L294.27735,269.54872L293.79728,269.54872
				L293.79728,269.78875L293.55725,269.78875L293.55725,270.02877L293.31722,270.02877L293.31722,269.54872L293.55725,269.54872
				L293.55725,269.3087L293.79728,269.3087L293.79728,269.06867L294.03731,269.06867L294.03731,268.58862L294.51738,268.58862L294.51738,268.3486
				L294.75741,268.3486L295.23747,268.3486L295.23747,268.10857L295.71753,268.10857L295.71753,267.86854L296.43762,267.86854L296.43762,267.62852
				L296.67765,267.62852L296.67765,267.38849L296.91768,267.38849L296.91768,267.14847L297.15771,267.14847L297.15771,266.90844
				L297.63777,266.90844L297.63777,266.66842L298.11783,266.66842L298.11783,266.42839L298.59789,266.42839L298.59789,266.18837
				L299.07795,266.18837L299.79805,266.18837L299.79805,265.94834L300.03808,265.94834L300.03808,265.70831L300.75817,265.70831
				L300.75817,265.46829L301.23823,265.46829L301.23823,265.22826L301.71829,265.22826L301.71829,264.98824L303.3985,264.98824L
				303.3985,264.74821L308.43914,264.74821L308.43914,264.50819L313.23975,264.50819L313.23975,264.26816L332.92225,264.26816L332.92225,264.02814
				L333.16228,264.02814L333.64234,264.02814L333.64234,263.78811L333.88237,263.78811L333.88237,263.54808L334.1224,263.54808L
				334.1224,263.30806L334.60246,263.30806L334.60246,263.06803L335.08252,263.06803L335.08252,262.82801L335.32255,262.82801L335.32255,262.58798
				L335.80261,262.58798L335.80261,262.34796L336.28268,262.34796L336.28268,262.10793L337.00277,262.10793L337.00277,261.86791
				L337.48283,261.86791L338.44295,261.86791L338.44295,261.62788L339.6431,261.62788L339.6431,261.38785L340.12316,261.38785L340.12316,261.14783
				L340.60322,261.14783L340.60322,260.9078L341.56335,260.9078L341.56335,260.66778L342.52347,260.66778L342.52347,260.42775L343.00353,260.42775
				L343.00353,260.18773L343.48359,260.18773L343.48359,259.9477L343.96365,259.9477L343.96365,259.70768L344.44371,259.70768L344.44371,259.46765
				L345.1638,259.46765L345.40383,259.46765L345.40383,259.22762L345.64386,259.22762L345.64386,258.9876L435.17523,258.9876L435.17523,259.22762
				L435.65529,259.22762L435.65529,259.46765L436.13535,259.46765L436.61541,259.46765L436.61541,259.70768L437.09547,259.70768
				L437.09547,259.9477L437.81556,259.9477L437.81556,260.18773L438.29562,260.18773L438.29562,260.42775L438.53565,260.42775L438.53565,260.66778
				L439.01571,260.66778L439.01571,260.9078L439.7358,260.9078L439.7358,261.14783L440.21587,261.14783L440.21587,261.38785L440.69593,261.38785
				L440.69593,261.62788L441.17599,261.62788L441.17599,261.86791L441.65605,261.86791L442.37614,261.86791L442.37614,262.10793
				L442.8562,262.10793L442.8562,262.34796L443.33626,262.34796L443.33626,262.58798L444.05635,262.58798L444.05635,262.82801L444.53641,262.82801
				L444.53641,263.06803L445.01647,263.06803L445.01647,263.30806L445.49654,263.30806L445.49654,263.54808L445.9766,263.54808L
				445.9766,263.78811L446.69669,263.78811L446.69669,264.02814L447.17675,264.02814L447.65681,264.02814L447.65681,264.26816L448.13687,264.26816
				L448.13687,264.50819L448.61693,264.50819L448.61693,264.74821L449.33702,264.74821L449.33702,264.98824L449.57705,264.98824
				L449.57705,265.22826L450.29714,265.22826L450.29714,265.46829L450.77721,265.46829L450.77721,265.70831L451.25727,265.70831
				L451.25727,265.94834L451.73733,265.94834L451.73733,266.18837L452.21739,266.18837L452.93748,266.18837L452.93748,266.42839
				L453.41754,266.42839L453.41754,266.66842L453.8976,266.66842L453.8976,266.90844L454.37766,266.90844L454.37766,267.14847L454.85772,267.14847
				L454.85772,267.38849L455.57781,267.38849L455.57781,267.62852L456.05788,267.62852L456.05788,267.86854L456.29791,267.86854
				L456.29791,268.10857L457.018,268.10857L457.018,268.3486L457.49806,268.3486L458.21815,268.3486L458.21815,268.58862L458.45818,268.58862
				L458.45818,268.82865L458.93824,268.82865L458.93824,269.06867L459.65833,269.06867L459.65833,269.3087L460.13839,269.3087L460.13839,269.54872
				L460.61845,269.54872L460.61845,269.78875L461.09852,269.78875L461.09852,270.02877L461.57858,270.02877L461.57858,270.2688L
				462.05864,270.2688L462.05864,270.50883L462.5387,270.50883L462.77873,270.50883L462.77873,270.74885L463.25879,270.74885L463.25879,270.98888
				L463.73885,270.98888L463.73885,271.2289L464.21891,271.2289L464.21891,271.46893L464.69897,271.46893L464.69897,271.70895L464.939,271.70895
				L464.939,271.94898L465.41906,271.94898L465.41906,272.18901L465.89912,272.18901L465.89912,272.42903L466.37919,272.42903L466.37919,272.66906
				L466.85925,272.66906L467.33931,272.66906L467.33931,272.90908L467.57934,272.90908L467.57934,273.14911L468.0594,273.14911L
				468.0594,273.38913L468.29943,273.38913L468.29943,273.62916L468.53946,273.62916L468.53946,273.86918L468.77949,273.86918L468.77949,274.10921
				L469.01952,274.10921L469.01952,274.34924L469.25955,274.34924L469.25955,274.58926L469.49958,274.58926L469.49958,274.82929
				L469.49958,275.06931L469.73961,275.06931L469.97964,275.06931L469.97964,275.30934L470.21967,275.30934L470.21967,275.54936
				L470.4597,275.54936L470.4597,275.78939L470.69973,275.78939L470.69973,276.02941L470.93976,276.02941L470.93976,276.26944L471.17979,276.26944
				L471.17979,276.50947L471.41983,276.50947L471.41983,276.74949L471.65986,276.74949L471.65986,276.98952L471.65986,277.22954
				L471.89989,277.22954L472.13992,277.22954L472.13992,277.46957L472.37995,277.46957L472.37995,277.70959L472.61998,277.70959
				L472.61998,277.94962L472.86001,277.94962L472.86001,278.18964L473.10004,278.18964L473.10004,278.42967L473.34007,278.42967
				L473.34007,278.6697L473.5801,278.6697L473.5801,278.90972L473.82013,278.90972L473.82013,279.14975L473.82013,279.38977L474.06016,279.38977
				L474.30019,279.38977L474.30019,279.6298L474.54022,279.6298L474.54022,279.86982L474.78025,279.86982L474.78025,280.10985L475.02028,280.10985
				L475.02028,280.34987L475.26031,280.34987L475.26031,280.5899L475.50034,280.5899L475.50034,280.82993L475.74037,280.82993L475.74037,281.06995
				L475.9804,281.06995L475.9804,281.30998L475.9804,281.55L476.22043,281.55L476.46046,281.55L476.46046,281.79003L476.7005,281.79003
				L476.7005,282.03005L476.94053,282.03005L476.94053,282.27008L477.18056,282.27008L477.18056,282.51011L477.42059,282.51011L
				477.42059,282.75013L477.66062,282.75013L477.66062,282.99016L477.90065,282.99016L477.90065,283.23018L478.14068,283.23018L
				478.14068,283.47021L478.14068,283.71023L478.38071,283.71023L478.62074,283.71023L478.62074,283.95026L478.86077,283.95026L
				478.86077,284.19028L479.1008,284.19028L479.1008,284.43031L479.34083,284.43031L479.34083,284.67034L479.58086,284.67034L479.58086,284.91036
				L479.82089,284.91036L479.82089,285.15039L480.06092,285.15039L480.06092,285.39041L480.30095,285.39041L480.30095,285.63044
				L480.54098,285.63044L480.54098,285.87046L480.78101,285.87046L480.78101,286.11049L481.02104,286.11049L481.02104,286.35051
				L481.26107,286.35051L481.26107,286.59054L481.5011,286.59054L481.5011,286.83057L481.74113,286.83057L481.74113,287.07059L481.98117,287.07059
				L481.98117,287.31062L482.2212,287.31062L482.2212,287.55064L482.46123,287.55064L482.46123,287.79067L482.70126,287.79067L482.70126,288.03069
				L482.70126,288.27072L482.94129,288.27072L483.18132,288.27072L483.18132,288.51074L483.42135,288.51074L483.42135,288.75077
				L483.66138,288.75077L483.66138,288.9908L483.90141,288.9908L483.90141,289.23082L484.14144,289.23082L484.14144,289.47085L484.38147,289.47085
				L484.38147,289.71087L484.6215,289.71087L484.6215,289.9509L484.86153,289.9509L484.86153,290.19092L484.86153,290.43095L485.10156,290.43095
				L485.58162,290.43095L485.58162,290.67097L486.06168,290.67097L486.06168,290.911L486.54174,290.911L486.54174,291.15103L487.0218,291.15103
				L487.0218,291.39105L487.26184,291.39105L487.26184,291.63108L487.98193,291.63108L487.98193,291.8711L488.22196,291.8711L488.22196,292.11113
				L488.46199,292.11113L488.46199,292.35115L488.70202,292.35115L488.70202,292.59118L488.94205,292.59118L489.18208,292.59118
				L489.18208,292.8312L489.42211,292.8312L489.42211,293.07123L489.90217,293.07123L489.90217,293.31126L490.38223,293.31126L490.38223,293.55128
				L491.10232,293.55128L491.10232,293.79131L491.34235,293.79131L491.34235,294.03133L491.82241,294.03133L491.82241,294.27136
				L492.54251,294.27136L492.54251,294.51138L493.02257,294.51138L493.02257,294.75141L493.74266,294.75141L493.74266,294.99144
				L493.98269,294.99144L493.98269,295.23146L494.22272,295.23146L494.22272,295.47149L494.70278,295.47149L494.70278,295.71151
				L494.94281,295.71151L494.94281,295.95154L495.18284,295.95154L495.18284,296.19156L495.42287,296.19156L495.42287,296.43159
				L495.6629,296.43159L495.6629,296.67161L495.90293,296.67161L495.90293,296.91164L496.14296,296.91164L496.14296,297.15167L496.38299,297.15167
				L496.38299,297.39169L496.62302,297.39169L496.62302,297.63172L496.86305,297.63172L496.86305,298.11177L497.34311,298.11177
				L497.34311,298.59182L497.58315,298.59182L497.58315,298.83184L497.82318,298.83184L497.82318,299.07187L498.06321,299.07187
				L498.06321,299.3119L498.06321,299.55192L498.30324,299.55192L498.30324,299.79195L498.54327,299.79195L498.54327,300.03197L
				498.7833,300.03197L498.7833,300.51202L499.02333,300.51202L499.02333,300.99207L499.26336,300.99207L499.26336,301.47213L499.50339,301.47213
				L499.50339,301.71215L499.74342,301.71215L499.74342,302.1922L499.98345,302.1922L499.98345,302.43223L500.22348,302.43223L500.22348,302.91228
				L500.22348,303.39233L500.46351,303.39233L500.46351,303.63236L500.70354,303.63236L500.70354,303.87238L500.94357,303.87238
				L500.94357,304.35243L501.1836,304.35243L501.1836,304.83248L501.42363,304.83248L501.42363,305.31253L501.66366,305.31253L501.66366,305.79259
				L501.90369,305.79259L501.90369,306.03261L502.14372,306.03261L502.14372,306.51266L502.38375,306.51266L502.38375,306.99271
				L502.38375,307.47277L502.62378,307.47277L502.62378,307.71279L502.86382,307.71279L502.86382,307.95282L503.10385,307.95282
				L503.34388,307.95282L503.34388,308.19284L503.58391,308.19284L503.58391,308.67289L503.82394,308.67289L503.82394,308.91292
				L504.06397,308.91292L504.06397,309.15294L504.54403,309.15294L504.54403,309.39297L504.54403,309.633L504.78406,309.633L504.78406,309.87302
				L505.02409,309.87302L505.02409,310.11305L505.26412,310.11305L505.74418,310.11305L505.74418,310.35307L505.98421,310.35307
				L505.98421,310.5931L506.22424,310.5931L506.22424,310.83312L506.46427,310.83312L506.46427,311.07315L506.7043,311.07315L506.7043,311.31317
				L506.94433,311.31317L506.94433,311.5532L506.94433,311.79323L507.42439,311.79323L507.42439,312.03325L507.66442,312.03325L
				507.66442,312.27328L508.14449,312.27328L508.14449,312.5133L508.38452,312.5133L508.38452,312.75333L508.62455,312.75333L508.62455,312.99335
				L509.10461,312.99335L509.10461,313.23338L509.10461,313.4734L509.58467,313.4734L509.58467,313.71343L509.8247,313.71343L509.8247,313.95346
				L510.06473,313.95346L510.06473,314.19348L510.30476,314.19348L510.30476,314.43351L510.54479,314.43351L510.54479,314.67353
				L510.78482,314.67353L510.78482,314.91356L511.02485,314.91356L511.02485,315.63363L511.26488,315.63363L511.26488,316.11369
				L511.26488,316.59374L511.50491,316.59374L511.50491,316.83376L511.74494,316.83376L511.74494,317.31381L511.98497,317.31381
				L511.98497,317.79386L512.225,317.79386L512.225,318.27392L512.46503,318.27392L512.46503,318.51394L512.70506,318.51394L512.70506,318.99399
				L512.94509,318.99399L513.18513,318.99399L513.18513,319.47404L513.42516,319.47404L513.42516,319.9541L513.42516,320.43415L
				513.66519,320.43415L513.66519,321.15422L513.90522,321.15422L513.90522,321.39425L514.14525,321.39425L514.14525,322.11433L
				514.38528,322.11433L514.38528,322.59438L514.62531,322.59438L514.62531,323.31445L514.86534,323.31445L515.10537,323.31445L
				515.10537,323.7945L515.3454,323.7945L515.3454,324.27456L515.58543,324.27456L515.58543,324.51458L515.58543,324.99463L515.82546,324.99463
				L515.82546,325.47468L516.06549,325.47468L516.30552,325.47468L516.30552,325.71471L516.54555,325.71471L516.54555,326.19476
				L516.78558,326.19476L516.78558,326.43479L517.02561,326.43479L517.02561,326.67481L517.26564,326.67481L517.26564,326.91484
				L517.50567,326.91484L517.50567,327.39489L517.7457,327.39489L517.7457,327.63491L517.7457,327.87494L517.98573,327.87494L517.98573,328.11496
				L518.22576,328.11496L518.22576,328.35499L518.4658,328.35499L518.4658,328.59502L518.70583,328.59502L518.70583,329.07507L518.94586,329.07507
				L518.94586,329.31509L519.18589,329.31509L519.18589,329.55512L519.42592,329.55512L519.42592,329.79514L519.66595,329.79514
				L519.66595,330.03517L519.90598,330.03517L519.90598,330.27519L520.14601,330.27519L520.14601,330.51522L520.14601,330.75525
				L520.38604,330.75525L520.38604,330.99527L520.62607,330.99527L520.62607,331.2353L520.8661,331.2353L520.8661,331.47532L521.10613,331.47532
				L521.10613,331.71535"/>
			<path clip-path="url(#SVG_CP_2)" fill="none" stroke="#999999" stroke-width="0.96012" stroke-miterlimit="10" stroke-linecap="round" stroke-linejoin="round" d="
				M521.10613,331.71535L521.34616,331.71535L521.34616,331.95537L521.58619,331.95537L521.58619,332.1954L521.82622,332.1954L522.06625,332.1954
				L522.06625,332.43543L522.30628,332.43543L522.30628,332.67545L522.30628,332.91548L522.54631,332.91548L522.54631,333.1555L
				522.78634,333.1555L522.78634,333.39553L523.02637,333.39553L523.02637,333.63555L523.2664,333.63555L523.2664,334.1156L523.50643,334.1156
				L523.50643,334.35563L523.74647,334.35563L523.74647,334.83568L523.9865,334.83568L523.9865,335.31573L524.22653,335.31573L524.22653,335.55576
				L524.46656,335.55576L524.46656,335.79578L524.46656,336.27583L524.70659,336.27583L524.70659,336.51586L524.94662,336.51586
				L525.18665,336.51586L525.18665,336.99591L525.42668,336.99591L525.42668,337.23594L525.66671,337.23594L525.66671,337.47596
				L525.90674,337.47596L525.90674,337.71599L526.14677,337.71599L526.14677,338.19604L526.3868,338.19604L526.3868,338.43606L526.62683,338.43606
				L526.62683,338.67609L526.62683,338.91612L526.86686,338.91612L526.86686,339.15614L527.10689,339.15614L527.10689,339.39617
				L527.34692,339.39617L527.34692,339.87622L527.58695,339.87622L527.58695,340.35627L527.82698,340.35627L527.82698,340.59629
				L528.06701,340.59629L528.06701,340.83632L528.30704,340.83632L528.30704,341.07635L528.54707,341.07635L528.54707,341.31637
				L528.78711,341.31637L528.78711,341.5564L528.78711,342.03645L529.02714,342.03645L529.02714,342.27647L529.26717,342.27647L
				529.26717,342.5165L529.5072,342.5165L529.5072,342.99655L529.74723,342.99655L529.74723,343.23658L529.98726,343.23658L529.98726,343.4766
				L530.22729,343.4766L530.22729,343.71663L530.46732,343.71663L530.46732,344.4367L530.70735,344.4367L530.70735,344.91676L530.94738,344.91676
				L530.94738,345.39681L530.94738,345.63683L531.18741,345.63683L531.18741,346.35691L531.42744,346.35691L531.42744,347.07699
				L531.66747,347.07699L531.66747,347.31701L531.9075,347.31701L531.9075,347.79706L532.14753,347.79706L532.14753,348.51714L532.38756,348.51714
				L532.38756,348.99719L532.62759,348.99719L532.62759,349.71727L532.86762,349.71727L532.86762,349.95729L533.10765,349.95729
				L533.10765,350.67737L533.34768,350.67737L533.34768,351.15742L533.34768,351.8775L533.58771,351.8775L533.82774,351.8775L533.82774,352.59757
				L534.06778,352.59757L534.06778,353.31765L534.30781,353.31765L534.30781,353.55768L534.54784,353.55768L534.54784,354.27775
				L534.78787,354.27775L534.78787,354.51778L535.0279,354.51778L535.0279,355.23785L535.26793,355.23785L535.26793,355.95793L535.50796,355.95793
				L535.50796,356.43798L535.50796,356.91803L535.74799,356.91803L535.74799,357.39809L535.98802,357.39809L535.98802,358.11816
				L536.22805,358.11816L536.22805,358.59821L536.46808,358.59821L536.46808,359.55832L536.70811,359.55832L536.70811,360.03837
				L536.46808,360.03837L536.46808,359.79834L535.98802,359.79834L535.98802,359.55832L535.74799,359.55832L535.74799,359.31829
				L535.50796,359.31829L535.50796,359.07826L535.50796,358.83824L535.26793,358.83824L535.26793,358.59821L535.0279,358.59821L
				534.54784,358.59821L534.54784,358.35819L534.30781,358.35819L534.30781,358.11816L534.06778,358.11816L534.06778,357.87814L
				533.82774,357.87814L533.82774,357.63811L533.34768,357.63811L533.34768,357.39809L533.34768,357.15806L533.10765,357.15806L
				533.10765,356.91803L532.86762,356.91803L532.86762,356.67801L532.38756,356.67801L532.38756,356.43798L532.14753,356.43798L
				531.9075,356.43798L531.9075,356.19796L531.42744,356.19796L531.42744,355.95793L531.18741,355.95793L531.18741,355.71791L530.94738,355.71791
				L530.94738,355.47788L530.94738,355.23785L530.46732,355.23785L530.46732,354.99783L530.22729,354.99783L530.22729,354.7578L
				529.98726,354.7578L529.98726,354.51778L529.74723,354.51778L529.74723,354.27775L529.26717,354.27775L529.02714,354.27775L529.02714,354.03773
				L528.78711,354.03773L528.78711,353.7977L528.54707,353.7977L528.54707,353.55768L528.30704,353.55768L528.30704,353.31765L528.06701,353.31765
				L528.06701,353.07762L527.82698,353.07762L527.82698,352.8376L527.34692,352.8376L527.34692,352.59757L527.10689,352.59757L527.10689,352.35755
				L526.86686,352.35755L526.86686,352.11752L526.62683,352.11752L526.62683,351.8775L526.3868,351.8775L526.14677,351.8775L526.14677,351.63747
				L525.90674,351.63747L525.90674,351.39745L525.42668,351.39745L525.42668,351.15742L525.18665,351.15742L525.18665,350.91739
				L524.94662,350.91739L524.94662,350.67737L524.46656,350.67737L524.46656,350.43734L524.46656,350.19732L524.22653,350.19732
				L524.22653,349.95729L523.9865,349.95729L523.9865,349.71727L523.50643,349.71727L523.2664,349.71727L523.2664,349.47724L523.02637,349.47724
				L523.02637,349.23722L522.78634,349.23722L522.78634,348.99719L522.30628,348.99719L522.30628,348.75716L522.30628,348.51714
				L522.06625,348.51714L522.06625,348.27711L521.58619,348.27711L521.58619,348.03709L521.34616,348.03709L521.34616,347.79706
				L521.10613,347.79706L521.10613,347.55704L520.8661,347.55704L520.38604,347.55704L520.38604,347.31701L520.14601,347.31701L
				520.14601,347.07699L520.14601,346.83696L519.66595,346.83696L519.66595,346.59693L519.42592,346.59693L519.42592,346.35691L
				519.18589,346.35691L519.18589,346.11688L518.94586,346.11688L518.94586,345.87686L518.4658,345.87686L518.4658,345.63683L518.22576,345.63683
				L518.22576,345.39681L517.98573,345.39681L517.7457,345.39681L517.7457,345.15678L517.50567,345.15678L517.50567,344.91676L517.26564,344.91676
				L517.26564,344.67673L517.02561,344.67673L517.02561,344.4367L516.54555,344.4367L516.54555,344.19668L516.30552,344.19668L516.30552,343.95665
				L516.06549,343.95665L516.06549,343.71663L515.82546,343.71663L515.82546,343.4766L515.58543,343.4766L515.58543,343.23658L515.3454,343.23658
				L515.10537,343.23658L515.10537,342.99655L514.62531,342.99655L514.62531,342.75652L512.94509,342.75652L512.94509,342.5165L
				510.54479,342.5165L510.54479,342.27647L507.90446,342.27647L507.90446,342.03645L505.50415,342.03645L505.50415,341.79642L503.10385,341.79642
				L503.10385,341.5564L500.70354,341.5564L500.70354,341.31637L498.30324,341.31637L498.30324,341.07635L495.90293,341.07635L493.74266,341.07635
				L493.74266,343.23658L493.74266,343.4766L363.16609,343.4766L363.16609,343.23658L362.92606,343.23658L362.68603,343.23658L362.68603,342.99655
				L362.446,342.99655L362.446,342.75652L362.20597,342.75652L362.20597,342.5165L361.96594,342.5165L361.96594,342.27647L361.7259,342.27647
				L361.7259,342.03645L361.7259,341.79642L361.48587,341.79642L361.48587,341.5564L361.24584,341.5564L361.24584,341.31637L361.00581,341.31637
				L361.00581,341.07635L360.76578,341.07635L360.52575,341.07635L360.52575,340.83632L360.28572,340.83632L360.28572,340.59629
				L360.04569,340.59629L360.04569,340.35627L359.80566,340.35627L359.80566,340.11624L359.56563,340.11624L359.56563,339.87622
				L359.3256,339.87622L359.3256,339.63619L359.3256,339.39617L359.08557,339.39617L359.08557,339.15614L358.84554,339.15614L358.84554,338.91612
				L358.60551,338.91612L358.60551,338.67609L358.36548,338.67609L358.12545,338.67609L358.12545,338.43606L357.88542,338.43606
				L357.88542,338.19604L357.64539,338.19604L357.64539,337.95601L314.19987,337.95601"/>
			<path clip-path="url(#SVG_CP_2)" fill="none" stroke="#999999" stroke-width="0.96012" stroke-miterlimit="10" stroke-linecap="round" stroke-linejoin="round" d="
				M523.50643,389.56151L523.50643,389.32149L523.74647,389.32149L523.74647,389.56151L523.50643,389.56151"/>
			<path clip-path="url(#SVG_CP_2)" fill="none" stroke="#999999" stroke-width="0.96012" stroke-miterlimit="10" stroke-linecap="round" stroke-linejoin="round" d="
				M523.2664,389.80154L523.2664,389.56151L523.50643,389.56151L523.50643,389.80154L523.2664,389.80154"/>
			<path clip-path="url(#SVG_CP_2)" fill="none" stroke="#999999" stroke-width="0.96012" stroke-miterlimit="10" stroke-linecap="round" stroke-linejoin="round" d="
				M523.02637,390.04156L523.02637,389.80154L523.2664,389.80154L523.2664,390.04156L523.02637,390.04156"/>
			<path clip-path="url(#SVG_CP_2)" fill="none" stroke="#999999" stroke-width="0.96012" stroke-miterlimit="10" stroke-linecap="round" stroke-linejoin="round" d="
				M523.02637,390.04156L523.02637,390.52161L522.78634,390.52161L522.78634,390.76164L522.54631,390.76164L522.54631,391.24169
				L522.30628,391.24169L522.30628,391.48172L522.06625,391.48172L522.06625,391.72174L521.82622,391.72174L521.82622,392.20179
				L521.58619,392.20179L521.58619,392.44182L521.34616,392.44182L521.34616,392.92187L521.10613,392.92187L521.10613,393.1619L
				520.8661,393.1619L520.8661,393.40192L520.62607,393.40192L520.62607,393.64195L520.38604,393.64195L520.38604,393.88197L520.14601,393.88197
				L520.14601,394.122L520.14601,394.36202L519.90598,394.36202L519.90598,394.60205L519.66595,394.60205L519.66595,394.84208L519.42592,394.84208
				L519.42592,395.32213L519.18589,395.32213L519.18589,395.56215L518.94586,395.56215L518.94586,396.0422L518.70583,396.0422L518.4658,396.0422
				L518.4658,396.28223L518.22576,396.28223L518.22576,396.52225L517.98573,396.52225L517.98573,397.00231L517.7457,397.00231L517.7457,397.72238
				L517.7457,398.20243L517.50567,398.20243L517.50567,398.44246L517.26564,398.44246L517.26564,398.20243L517.02561,398.20243L
				517.02561,397.48236L516.78558,397.48236L516.78558,397.00231L516.54555,397.00231L516.54555,396.52225L516.30552,396.52225L
				516.30552,396.0422L516.78558,396.0422L517.02561,396.0422L517.02561,395.80218L517.26564,395.80218L517.26564,395.56215L517.50567,395.56215
				L517.50567,395.32213L517.7457,395.32213L517.7457,395.0821L517.7457,394.84208L517.98573,394.84208L517.98573,394.60205L518.22576,394.60205
				L518.22576,394.36202L518.4658,394.36202L518.4658,394.122L518.70583,394.122L518.70583,393.88197L518.94586,393.88197L519.18589,393.88197
				L519.18589,393.64195L519.42592,393.64195L519.42592,393.40192L519.66595,393.40192L519.66595,393.1619L519.90598,393.1619L519.90598,392.92187
				L520.14601,392.92187L520.14601,392.68185L520.14601,392.44182L520.38604,392.44182L520.38604,392.20179L520.62607,392.20179
				L520.62607,391.96177L520.8661,391.96177L520.8661,391.72174L521.10613,391.72174L521.10613,391.48172L521.34616,391.48172L521.58619,391.48172
				L521.58619,391.24169L521.82622,391.24169L521.82622,391.00167L522.30628,391.00167L522.30628,390.76164L522.30628,390.52161
				L522.54631,390.52161L522.54631,390.28159L522.78634,390.28159L522.78634,390.04156L523.02637,390.04156"/>
			<path clip-path="url(#SVG_CP_2)" fill="none" stroke="#999999" stroke-width="0.96012" stroke-miterlimit="10" stroke-linecap="round" stroke-linejoin="round" d="
				M306.27887,330.03517L306.27887,330.27519L306.5189,330.27519L306.5189,330.51522L306.5189,330.75525L306.75893,330.75525L306.75893,330.99527
				L306.99896,330.99527L306.99896,331.2353L307.23899,331.2353L307.23899,331.47532L307.47902,331.47532L307.47902,331.71535L307.71905,331.71535
				L307.71905,331.95537L307.95908,331.95537L307.95908,332.1954L308.19911,332.1954L308.43914,332.1954L308.43914,332.43543L308.67917,332.43543
				L308.67917,332.67545L308.9192,332.67545L308.9192,332.91548L308.9192,333.1555L309.15923,333.1555L309.15923,333.39553L309.39926,333.39553
				L309.39926,333.63555L309.63929,333.63555L309.63929,333.87558L309.87933,333.87558L309.87933,334.1156L310.11936,334.1156L310.11936,334.35563
				L310.35939,334.35563L310.59942,334.35563L310.59942,334.59566L310.83945,334.59566L310.83945,334.83568L311.07948,334.83568
				L311.07948,335.07571L311.07948,335.31573L311.31951,335.31573L311.31951,335.55576L311.55954,335.55576L311.55954,335.79578
				L311.79957,335.79578L311.79957,336.03581L312.0396,336.03581L312.0396,336.27583L312.27963,336.27583L312.27963,336.51586L312.51966,336.51586
				L312.75969,336.51586L312.75969,336.75589L312.99972,336.75589L312.99972,336.99591L313.23975,336.99591L313.23975,337.23594
				L313.23975,337.47596L313.47978,337.47596L313.47978,337.71599L313.71981,337.71599L313.71981,337.95601L314.19987,337.95601
				L314.19987,338.19604L314.4399,338.19604L314.4399,338.43606L314.67993,338.43606L314.67993,338.67609L314.91996,338.67609L315.16,338.67609
				L315.16,338.91612L315.40003,338.91612L315.40003,339.15614L315.40003,339.39617L315.64006,339.39617L315.64006,339.63619L315.88009,339.63619
				L315.88009,339.87622L316.12012,339.87622L316.12012,340.11624L316.36015,340.11624L316.36015,340.35627L316.60018,340.35627
				L316.60018,340.59629L316.84021,340.59629L316.84021,340.83632L317.08024,340.83632L317.08024,341.07635L317.32027,341.07635
				L317.5603,341.07635L317.5603,341.31637L317.5603,341.5564L357.40536,341.5564L357.40536,341.79642L358.60551,341.79642L358.60551,342.03645
				L359.3256,342.03645L359.3256,342.27647L360.04569,342.27647L360.04569,342.5165L360.52575,342.5165L360.52575,342.75652L361.00581,342.75652
				L361.00581,342.99655L361.48587,342.99655L361.48587,343.23658L361.7259,343.23658L361.96594,343.23658L361.96594,343.4766L362.446,343.4766
				L362.446,343.71663L493.74266,343.71663L493.74266,347.55704L493.98269,347.55704L493.98269,351.63747L494.22272,351.63747L494.22272,355.71791
				L494.46275,355.71791L494.46275,359.31829L494.70278,359.31829L494.70278,362.91867L494.94281,362.91867L494.94281,365.31893
				L495.18284,365.31893L495.18284,367.23913L495.42287,367.23913L495.42287,368.67929L495.6629,368.67929L495.6629,370.11944L495.90293,370.11944
				L495.90293,372.5197L495.6629,372.5197L495.6629,373.95985L495.42287,373.95985L495.42287,375.15998L495.18284,375.15998L495.18284,376.12008
				L494.94281,376.12008L494.94281,376.84016L494.70278,376.84016L494.70278,378.04028L494.46275,378.04028L494.46275,378.76036
				L494.22272,378.76036L494.22272,379.72046L493.98269,379.72046L493.98269,380.68057L493.74266,380.68057L493.74266,382.12072
				L493.74266,384.04092L493.50263,384.04092L493.50263,385.96113L493.2626,385.96113L493.2626,387.64131L493.02257,387.64131L493.02257,389.56151
				L492.78254,389.56151L492.78254,396.0422L492.54251,396.0422L492.54251,398.68248L492.30248,398.68248L492.30248,399.40256L492.06244,399.40256
				L492.06244,399.88261L491.82241,399.88261L491.82241,400.36266L491.58238,400.36266L491.58238,400.84271L491.34235,400.84271
				L491.34235,401.32277L491.34235,402.04284L491.10232,402.04284L491.10232,402.52289L490.86229,402.52289L490.86229,402.76292
				L490.62226,402.76292L490.62226,403.483L490.38223,403.483L490.38223,403.96305L490.1422,403.96305L490.1422,404.4431L489.90217,404.4431
				L489.90217,404.92315L489.66214,404.92315L489.66214,405.4032L489.42211,405.4032L489.42211,406.12328L489.18208,406.12328L489.18208,406.60333
				L489.18208,407.32341L488.94205,407.32341L488.94205,408.52353L488.70202,408.52353L488.70202,409.48364L488.46199,409.48364
				L488.46199,411.40384L488.22196,411.40384L488.22196,413.56407L487.98193,413.56407L487.98193,415.7243L487.7419,415.7243L487.7419,417.88453
				L487.50187,417.88453L487.50187,419.80474L487.26184,419.80474L487.26184,421.96497L487.0218,421.96497L487.0218,424.1252L487.0218,426.0454
				L486.78177,426.0454L486.78177,428.20563L486.54174,428.20563L486.54174,430.36586L486.30171,430.36586L486.30171,432.28607L
				486.06168,432.28607L486.06168,434.4463L485.82165,434.4463L485.82165,436.60653L485.58162,436.60653L485.58162,438.76676L485.34159,438.76676
				L485.34159,440.68696L485.10156,440.68696L485.10156,441.64706L484.86153,441.64706L484.86153,442.12711L484.86153,442.84719
				L484.6215,442.84719L484.6215,443.56727L484.38147,443.56727L484.38147,444.28734L484.14144,444.28734L484.14144,444.7674L483.90141,444.7674
				L483.90141,445.48747L483.66138,445.48747L483.66138,446.20755L483.42135,446.20755L483.42135,446.6876L483.18132,446.6876L483.18132,447.16765
				L482.94129,447.16765L482.94129,447.88773L482.70126,447.88773L482.70126,448.6078L482.70126,449.08786L482.46123,449.08786L
				482.46123,449.80793L482.2212,449.80793L482.2212,450.52801L481.98117,450.52801L481.98117,451.00806L481.74113,451.00806L481.74113,451.48811
				L481.5011,451.48811L481.5011,451.96816L481.26107,451.96816L481.26107,452.44821L481.02104,452.44821L481.02104,453.16829L480.78101,453.16829
				L480.78101,453.40832L480.54098,453.40832L480.54098,453.88837L480.54098,454.36842L480.30095,454.36842L480.30095,455.0885L
				480.06092,455.0885L480.06092,455.32852L479.82089,455.32852L479.82089,455.80857L479.58086,455.80857L479.58086,456.28862L479.34083,456.28862
				L479.34083,457.0087L479.1008,457.0087L479.1008,457.48875L478.86077,457.48875L478.86077,457.72878L478.62074,457.72878L478.62074,458.20883
				L478.38071,458.20883L478.38071,458.9289L478.14068,458.9289L478.14068,459.40896L478.14068,459.88901L477.90065,459.88901L477.90065,460.12903
				L477.66062,460.12903L477.66062,460.84911L477.42059,460.84911L477.42059,461.32916L477.18056,461.32916L477.18056,461.80921
				L476.94053,461.80921L476.94053,462.04924L476.7005,462.04924L476.7005,462.76931L477.42059,462.76931L477.42059,462.52929L480.54098,462.52929
				L480.54098,462.28926L483.66138,462.28926L483.66138,462.04924L484.14144,462.04924L484.14144,462.28926L483.90141,462.28926
				L483.90141,462.52929L483.42135,462.52929L483.42135,462.76931L483.18132,462.76931L483.18132,463.00934L482.94129,463.00934
				L482.94129,463.24936L482.46123,463.24936L482.46123,463.48939L481.98117,463.48939L481.98117,463.72942L481.5011,463.72942L
				481.5011,463.96944L481.02104,463.96944L481.02104,464.20947L480.78101,464.20947L480.54098,464.20947L480.54098,464.44949L480.06092,464.44949
				L480.06092,464.68952L479.58086,464.68952L479.58086,464.92954L479.1008,464.92954L479.1008,465.16957L478.86077,465.16957L478.86077,465.40959
				L478.38071,465.40959L478.38071,465.64962L478.14068,465.64962L478.14068,465.88965L477.66062,465.88965L477.66062,466.12967
				L477.18056,466.12967L477.18056,466.3697L476.94053,466.3697L476.7005,466.3697L476.7005,466.60972L475.9804,466.60972L475.9804,466.84975
				L475.50034,466.84975L475.50034,467.08977L474.30019,467.08977L474.30019,467.3298L473.82013,467.3298L473.82013,467.56983L473.34007,467.56983
				L473.34007,467.80985L472.61998,467.80985L472.61998,468.04988L471.89989,468.04988L471.89989,468.2899L462.5387,468.2899L462.5387,468.04988
				L451.73733,468.04988L451.73733,468.2899L446.93672,468.2899L446.93672,468.04988L444.05635,468.04988L444.05635,467.80985L440.93596,467.80985
				L440.93596,467.56983L440.69593,467.56983L440.69593,467.3298L439.97583,467.3298L439.97583,467.08977L439.25574,467.08977L439.25574,466.84975
				L438.53565,466.84975L438.53565,466.60972L438.05559,466.60972L438.05559,466.3697L437.3355,466.3697L436.61541,466.3697L436.61541,466.12967
				L436.13535,466.12967L436.13535,465.88965L435.41526,465.88965L435.41526,465.64962L434.69516,465.64962L434.69516,465.40959
				L434.2151,465.40959L434.2151,465.16957L433.73504,465.16957L433.73504,464.92954L433.01495,464.92954L433.01495,464.68952L432.29486,464.68952
				L432.29486,464.44949L432.05483,464.44949L432.05483,464.20947L430.85468,464.20947L427.97431,464.20947L427.97431,463.96944
				L427.73428,463.96944L427.73428,463.72942L427.01419,463.72942L427.01419,463.48939L426.2941,463.48939L426.2941,463.24936L425.81404,463.24936
				L425.81404,463.00934L425.33398,463.00934L425.33398,462.76931L424.61389,462.76931L424.61389,462.52929L424.37385,462.52929
				L424.37385,462.28926L424.13382,462.28926L424.13382,462.04924L423.89379,462.04924L423.65376,462.04924L423.65376,461.80921
				L423.41373,461.80921L423.41373,461.56919L423.1737,461.56919L423.1737,461.32916L423.1737,461.08913L422.93367,461.08913L422.93367,460.84911
				L422.69364,460.84911L422.69364,460.60908L422.45361,460.60908L422.45361,460.36906L422.21358,460.36906L422.21358,460.12903
				L421.97355,460.12903L421.97355,459.88901L421.73352,459.88901L421.49349,459.88901L421.49349,459.64898L421.25346,459.64898
				L421.25346,459.40896L421.01343,459.40896L421.01343,459.16893L421.01343,458.9289L420.7734,458.9289L420.7734,458.68888L420.53337,458.68888
				L420.53337,458.44885L420.29334,458.44885L420.29334,458.20883L420.05331,458.20883L420.05331,457.9688L419.81328,457.9688L419.81328,457.72878
				L419.57325,457.72878L419.57325,457.48875L419.33322,457.48875L419.09318,457.48875L419.09318,457.24873L418.85315,457.24873
				L418.85315,457.0087L418.85315,456.76867L418.61312,456.76867L418.61312,456.52865L418.37309,456.52865L418.37309,456.28862L
				418.13306,456.28862L418.13306,456.0486L417.89303,456.0486L417.89303,455.80857L417.653,455.80857L417.653,455.56855L417.41297,455.56855
				L417.41297,455.32852L417.17294,455.32852L416.93291,455.32852L416.93291,455.0885L416.69288,455.0885L416.69288,454.84847L416.69288,454.60844
				L416.45285,454.60844L416.45285,454.36842L416.21282,454.36842L416.21282,454.12839L415.97279,454.12839L415.97279,453.88837
				L415.73276,453.88837L415.73276,453.64834L415.49273,453.64834L415.49273,453.40832L415.2527,453.40832L415.2527,453.16829L415.01267,453.16829
				L414.77264,453.16829L414.77264,452.92826L414.53261,452.92826L414.53261,452.68824L414.53261,452.44821L414.29258,452.44821
				L414.29258,452.20819L414.05254,452.20819L414.05254,451.96816L413.81251,451.96816L413.81251,451.72814L413.57248,451.72814
				L413.57248,451.48811L413.33245,451.48811L413.33245,451.24809L413.09242,451.24809L413.09242,451.00806L412.85239,451.00806
				L412.61236,451.00806L412.61236,450.76803L412.37233,450.76803L412.37233,450.52801L412.1323,450.52801L412.1323,450.28798L412.1323,450.04796
				L411.89227,450.04796L411.89227,449.80793L411.65224,449.80793L411.65224,449.56791L411.41221,449.56791L411.41221,449.32788
				L411.17218,449.32788L411.17218,449.08786L410.93215,449.08786L410.93215,448.84783L410.69212,448.84783L410.45209,448.84783
				L410.45209,448.6078L410.21206,448.6078L410.21206,448.36778L409.97203,448.36778L409.97203,448.12775L409.97203,447.88773L409.732,447.88773
				L409.732,447.6477L409.49197,447.6477L409.49197,447.40768L409.25194,447.40768L409.25194,447.16765L409.01191,447.16765L409.01191,446.92763
				L408.77187,446.92763L408.77187,446.6876L408.53184,446.6876L408.29181,446.6876L408.29181,446.44757L408.05178,446.44757L408.05178,446.20755
				L407.81175,446.20755L407.81175,445.96752L407.57172,445.96752L407.57172,445.7275L407.33169,445.7275L407.33169,445.48747L407.09166,445.48747
				L407.09166,445.24745L406.85163,445.24745L406.85163,445.00742L406.6116,445.00742L406.6116,444.7674L406.37157,444.7674L406.37157,444.52737
				L406.13154,444.52737L406.13154,444.28734L405.89151,444.28734L405.65148,444.28734L405.65148,444.04732L405.41145,444.04732
				L405.41145,443.80729L405.17142,443.80729L405.17142,443.56727L404.93139,443.56727L404.93139,443.32724L404.69136,443.32724
				L404.69136,443.08722L404.45133,443.08722L404.45133,442.84719L404.2113,442.84719L404.2113,442.60717L403.97127,442.60717L403.97127,442.36714
				L403.73124,442.36714L403.73124,442.12711L403.4912,442.12711L403.25117,442.12711L403.25117,441.88709L403.01114,441.88709L
				403.01114,441.64706L402.77111,441.64706L402.77111,441.40704L402.29105,441.40704L402.29105,441.16701L402.05102,441.16701L
				402.05102,440.92699L401.81099,440.92699L401.81099,440.68696L401.33093,440.68696L401.33093,440.44693L401.33093,440.20691L
				400.85087,440.20691L400.85087,439.96688L400.61084,439.96688L400.37081,439.96688L400.37081,439.72686L399.89075,439.72686L
				399.89075,439.48683L399.41069,439.48683L399.41069,439.24681L398.93063,439.24681L398.93063,439.00678L398.93063,438.76676L
				398.45057,438.76676L398.45057,438.52673L397.9705,438.52673L397.9705,438.2867L397.73047,438.2867L397.73047,438.04668L397.25041,438.04668
				L397.25041,437.80665L397.01038,437.80665L396.77035,437.80665L396.77035,437.56663L396.53032,437.56663L396.53032,437.3266L
				396.29029,437.3266L396.29029,437.08658L395.81023,437.08658L395.81023,436.84655L395.33017,436.84655L395.33017,436.60653L394.85011,436.60653
				L394.85011,436.3665L394.61008,436.3665L394.61008,436.12647L394.37005,436.12647L394.37005,435.88645L393.88999,435.88645L393.88999,435.64642
				L393.64996,435.64642L393.40993,435.64642L393.40993,435.4064L392.92986,435.4064L392.92986,435.16637L392.68983,435.16637L392.68983,434.92635
				L392.4498,434.92635L392.4498,434.68632L391.96974,434.68632L391.96974,434.4463L391.48968,434.4463L391.48968,434.20627L391.24965,434.20627
				L391.24965,433.96624L390.76959,433.96624L390.76959,433.72622L390.52956,433.72622L390.52956,433.48619L390.28953,433.48619
				L390.0495,433.48619L390.0495,433.24617L389.56944,433.24617L389.56944,433.00614L389.32941,433.00614L389.32941,432.76612L388.84935,432.76612
				L388.84935,432.52609L388.36929,432.52609L388.36929,432.28607L388.12926,432.28607L388.12926,432.04604L387.88922,432.04604
				L387.88922,431.80601L387.40916,431.80601L387.40916,431.56599L387.16913,431.56599L387.16913,431.32596L386.9291,431.32596L
				386.9291,431.08594L386.68907,431.08594L386.20901,431.08594L386.20901,430.84591L385.72895,430.84591L385.72895,430.60589L385.72895,430.36586
				L385.24889,430.36586L385.24889,430.12584L384.76883,430.12584L384.76883,429.88581L384.5288,429.88581L384.5288,429.64578L384.04874,429.64578
				L384.04874,429.40576L383.80871,429.40576L383.80871,429.16573L383.56868,429.16573L383.56868,428.92571L383.32865,428.92571
				L382.84859,428.92571L382.84859,428.68568L382.60855,428.68568L382.60855,428.44566L382.12849,428.44566L382.12849,428.20563
				L381.64843,428.20563L381.64843,427.9656L381.4084,427.9656L381.4084,427.72558L381.16837,427.72558L381.16837,427.48555L380.92834,427.48555
				L380.92834,427.24553L380.68831,427.24553L380.68831,427.0055L380.20825,427.0055L380.20825,426.76548L379.96822,426.76548L379.48816,426.76548
				L379.48816,426.52545L379.24813,426.52545L379.24813,426.28543L379.0081,426.28543L379.0081,426.0454L378.52804,426.0454L378.52804,425.80537
				L378.04798,425.80537L378.04798,425.56535L377.56791,425.56535L377.56791,425.32532L377.32788,425.32532L377.32788,425.0853L
				377.08785,425.0853L377.08785,424.84527L377.08785,424.60525L376.60779,424.60525L376.12773,424.60525L376.12773,424.36522L375.8877,424.36522
				L375.8877,424.1252L375.40764,424.1252L375.40764,423.88517L375.16761,423.88517L375.16761,423.64514L374.92758,423.64514L374.92758,423.40512
				L374.44752,423.40512L374.44752,423.16509L374.20749,423.16509L374.20749,422.92507L373.96746,422.92507L373.96746,422.68504
				L373.72743,422.68504L373.72743,422.44502L373.24737,422.44502L372.76731,422.44502L372.76731,422.20499L372.52728,422.20499
				L372.52728,421.96497L372.28724,421.96497L372.28724,421.72494L371.80718,421.72494L371.80718,421.48491L371.32712,421.48491
				L371.32712,421.24489L371.08709,421.24489L371.08709,421.00486L370.84706,421.00486L370.84706,420.76484L370.60703,420.76484
				L370.60703,420.52481L370.367,420.52481L370.367,420.28479L370.12697,420.28479L369.64691,420.28479L369.64691,420.04476L369.40688,420.04476
				L369.40688,419.80474L368.92682,419.80474L368.92682,419.56471L368.68679,419.56471L368.68679,419.32468L368.20673,419.32468
				L368.20673,419.08466L367.00657,419.08466L367.00657,418.84463L366.52651,418.84463L366.52651,418.60461L366.28648,418.60461
				L366.28648,418.36458L366.04645,418.36458L366.04645,418.12456L365.56639,418.12456L365.56639,417.88453L365.08633,417.88453
				L364.8463,417.88453L364.8463,417.64451L364.36624,417.64451L364.36624,417.40448L363.88618,417.40448L363.88618,417.16445L363.88618,416.92443
				L363.40612,416.92443L363.40612,416.6844L363.16609,416.6844L363.16609,416.44438L362.92606,416.44438L362.92606,416.20435L362.446,416.20435
				L362.446,415.96433L362.20597,415.96433L362.20597,415.7243L361.7259,415.7243L361.48587,415.7243L361.48587,415.48427L361.00581,415.48427
				L361.00581,415.24425L360.52575,415.24425L360.52575,415.00422L360.28572,415.00422L360.28572,414.7642L360.04569,414.7642L360.04569,414.52417
				L359.80566,414.52417L359.80566,414.28415L359.56563,414.28415L359.56563,414.04412L359.08557,414.04412L359.08557,413.8041L
				358.84554,413.8041L358.84554,413.56407L358.60551,413.56407L358.12545,413.56407L358.12545,413.32404L357.64539,413.32404L357.64539,413.08402
				L357.16533,413.08402L357.16533,412.84399L356.9253,412.84399L356.9253,412.60397L356.68526,412.60397L356.68526,412.36394L356.2052,412.36394
				L356.2052,412.12392L355.96517,412.12392L355.96517,411.88389L355.48511,411.88389L355.48511,411.64387L355.24508,411.64387L
				355.24508,411.40384L355.00505,411.40384L354.52499,411.40384L354.52499,411.16381L354.04493,411.16381L354.04493,410.92379L
				353.56487,410.92379L353.56487,410.68376L353.32484,410.68376L353.32484,410.44374L353.08481,410.44374L353.08481,410.20371L
				352.84478,410.20371L352.84478,409.96369L352.60475,409.96369L352.60475,409.72366L352.12469,409.72366L352.12469,409.48364L
				351.88466,409.48364L351.88466,409.24361L351.40459,409.24361L351.16456,409.24361L351.16456,409.00358L350.92453,409.00358L
				350.92453,408.76356L350.6845,408.76356L350.6845,408.52353L350.44447,408.52353L350.44447,408.28351L349.96441,408.28351L349.96441,408.04348
				L349.72438,408.04348L349.72438,407.80346L349.48435,407.80346L349.48435,407.56343L349.24432,407.56343L349.24432,407.32341
				L348.76426,407.32341L348.76426,407.08338L348.52423,407.08338L348.2842,407.08338L348.2842,406.84335L348.04417,406.84335L348.04417,406.60333
				L347.80414,406.60333L347.80414,406.3633L347.56411,406.3633L347.56411,406.12328L347.32408,406.12328L347.32408,405.88325L347.08405,405.88325
				L347.08405,405.64323L346.84402,405.64323L346.84402,405.4032L346.60399,405.4032L346.60399,405.16318L346.36396,405.16318L346.36396,404.92315
				L346.12392,404.92315L346.12392,404.68312L345.64386,404.68312L345.64386,404.4431L345.40383,404.4431L345.40383,404.20307L345.1638,404.20307
				L345.1638,403.96305L344.92377,403.96305L344.92377,403.483L344.68374,403.483L344.68374,403.24297L344.20368,403.24297L344.20368,403.00294
				L343.96365,403.00294L343.96365,402.76292L343.96365,402.52289L343.72362,402.52289L343.48359,402.52289L343.48359,402.28287
				L343.24356,402.28287L343.24356,402.04284L343.00353,402.04284L343.00353,401.80282L342.7635,401.80282L342.7635,401.56279L342.52347,401.56279
				L342.52347,401.32277L342.28344,401.32277L342.28344,401.08274L342.04341,401.08274L342.04341,400.84271L341.80338,400.84271
				L341.80338,400.60269L341.80338,400.36266L341.56335,400.36266L341.32332,400.36266L341.32332,400.12264L341.08328,400.12264
				L341.08328,399.88261L340.84325,399.88261L340.84325,399.64259L340.60322,399.64259L340.60322,399.40256L340.36319,399.40256
				L340.36319,399.16254L340.12316,399.16254L340.12316,398.92251L339.88313,398.92251L339.88313,398.68248L339.6431,398.68248L
				339.6431,398.44246L339.6431,398.20243L339.16304,398.20243L338.68298,398.20243L338.68298,397.96241L337.96289,397.96241L337.96289,397.72238
				L337.72286,397.72238L337.72286,397.48236L337.48283,397.48236L337.48283,397.24233L337.2428,397.24233L337.2428,397.00231L337.00277,397.00231
				L337.00277,396.76228L336.52271,396.76228L336.52271,396.52225L336.04265,396.52225L336.04265,396.28223L335.56258,396.28223
				L335.56258,396.0422L335.32255,396.0422L334.84249,396.0422L334.84249,395.80218L334.36243,395.80218L334.36243,395.56215L333.88237,395.56215
				L333.88237,395.32213L333.64234,395.32213L333.64234,395.0821L333.16228,395.0821L333.16228,394.84208L332.92225,394.84208L332.92225,394.60205
				L332.44219,394.60205L332.44219,394.36202L331.96213,394.36202L331.96213,394.122L331.48207,394.122L331.48207,393.88197L331.24204,393.88197
				L330.76198,393.88197L330.76198,393.64195L330.76198,393.40192L330.28191,393.40192L330.28191,393.1619L329.80185,393.1619L329.80185,392.92187
				L329.32179,392.92187L329.32179,392.68185L328.84173,392.68185L328.84173,392.44182L328.6017,392.44182L328.6017,392.20179L328.6017,391.96177
				L328.12164,391.96177L328.12164,391.72174L327.64158,391.72174L327.64158,391.48172L327.40155,391.48172L327.16152,391.48172
				L327.16152,391.24169L326.68146,391.24169"/>
			<path clip-path="url(#SVG_CP_2)" fill="none" stroke="#999999" stroke-width="0.96012" stroke-miterlimit="10" stroke-linecap="round" stroke-linejoin="round" d="
				M326.68146,391.24169L326.68146,391.00167L326.44143,391.00167L326.44143,390.76164L326.44143,390.52161L326.2014,390.52161L
				326.2014,390.28159L325.96137,390.28159L325.96137,390.04156L325.48131,390.04156L325.48131,389.80154L325.24127,389.80154L325.24127,389.56151
				L324.76121,389.56151L324.76121,389.32149L324.28115,389.32149L324.28115,389.08146L324.04112,389.08146L324.04112,388.84144
				L323.80109,388.84144L323.80109,388.60141L323.56106,388.60141L323.56106,388.36138L323.32103,388.36138L323.32103,388.12136
				L323.081,388.12136L323.081,387.88133L322.60094,387.88133L322.60094,387.64131L322.12088,387.64131L322.12088,387.40128L322.12088,387.16126
				L321.64082,387.16126L321.40079,387.16126L321.40079,386.92123L321.16076,386.92123L321.16076,386.68121L320.92073,386.68121
				L320.92073,386.44118L320.6807,386.44118L320.6807,386.20115L320.44067,386.20115L320.44067,385.96113L320.20063,385.96113L320.20063,385.7211
				L319.9606,385.7211L319.9606,385.48108L319.72057,385.48108L319.72057,385.24105L319.72057,385.00103L319.48054,385.00103L319.24051,385.00103
				L319.24051,384.761L319.00048,384.761L319.00048,384.52098L318.76045,384.52098L318.76045,384.28095L318.52042,384.28095L318.52042,384.04092
				L318.28039,384.04092L318.28039,383.8009L318.04036,383.8009L318.04036,383.56087L317.80033,383.56087L317.80033,383.32085L317.5603,383.32085
				L317.5603,383.08082L317.5603,382.8408L317.32027,382.8408L317.08024,382.8408L317.08024,382.60077L316.84021,382.60077L316.84021,382.36075
				L316.60018,382.36075L316.60018,382.12072L316.36015,382.12072L316.36015,381.88069L316.12012,381.88069L316.12012,381.64067
				L315.88009,381.64067L315.88009,381.40064L315.64006,381.40064L315.64006,381.16062L315.40003,381.16062L315.40003,380.92059
				L315.40003,380.68057L315.16,380.68057L314.91996,380.68057L314.91996,380.44054L314.67993,380.44054L314.67993,380.20051L314.4399,380.20051
				L314.4399,379.96049L314.19987,379.96049L314.19987,379.72046L313.71981,379.72046L313.71981,379.48044L313.47978,379.48044L
				313.47978,379.24041L313.23975,379.24041L313.23975,379.00039L312.99972,379.00039L312.99972,378.76036L312.51966,378.76036L
				312.51966,378.52034L312.27963,378.52034L312.27963,378.28031L312.0396,378.28031L311.79957,378.28031L311.79957,378.04028L311.55954,378.04028
				L311.55954,377.80026L311.07948,377.80026L311.07948,377.56023L311.07948,377.32021L310.83945,377.32021L310.83945,377.08018
				L310.35939,377.08018L310.35939,376.84016L310.11936,376.84016L310.11936,376.60013L309.87933,376.60013L309.87933,376.36011
				L309.63929,376.36011L309.63929,376.12008L309.39926,376.12008L309.15923,376.12008L309.15923,375.88005L308.9192,375.88005L
				308.9192,375.64003L308.9192,375.4L308.67917,375.4L308.67917,375.15998L308.43914,375.15998L308.43914,374.91995L307.95908,374.91995
				L307.95908,374.67993L307.71905,374.67993L307.71905,374.4399L307.47902,374.4399L307.47902,374.19988L306.99896,374.19988L306.99896,373.95985
				L306.5189,373.95985L306.03884,373.95985L306.03884,373.71982L305.55878,373.71982L305.55878,373.4798L305.07872,373.4798L305.07872,373.23977
				L304.59865,373.23977L304.59865,372.99975L304.35862,372.99975L304.35862,372.75972L303.63853,372.75972L303.63853,372.5197L
				303.15847,372.5197L303.15847,372.27967L302.67841,372.27967L302.67841,372.03965L302.19835,372.03965L302.19835,371.79962L301.95832,371.79962
				L301.47826,371.79962L301.47826,371.55959L300.9982,371.55959L300.9982,371.31957L300.75817,371.31957L300.75817,371.07954L300.27811,371.07954
				L300.27811,370.83952L300.03808,370.83952L300.03808,370.59949L299.79805,370.59949L299.79805,370.35947L299.31798,370.35947
				L299.31798,370.11944L299.07795,370.11944L299.07795,369.87942L298.83792,369.87942L298.83792,369.63939L298.59789,369.63939
				L298.11783,369.63939L298.11783,369.39936L297.8778,369.39936L297.8778,369.15934L297.8778,368.91931L297.63777,368.91931L297.63777,368.67929
				L297.39774,368.67929L297.39774,368.43926L297.15771,368.43926L297.15771,368.19924L296.91768,368.19924L296.91768,367.95921
				L296.43762,367.95921L296.43762,367.71918L296.19759,367.71918L296.19759,367.47916L295.71753,367.47916L295.4775,367.47916L
				295.4775,367.23913L294.99744,367.23913L294.99744,366.99911L294.51738,366.99911L294.51738,366.75908L294.03731,366.75908L294.03731,366.51906
				L293.55725,366.51906L293.55725,366.27903L293.31722,366.27903L293.31722,366.03901L293.07719,366.03901L293.07719,365.79898
				L292.59713,365.79898L292.59713,365.55895L292.11707,365.55895L292.11707,365.31893L291.63701,365.31893L291.63701,365.0789L
				291.15695,365.0789L291.15695,364.83888L290.67689,364.83888L290.67689,364.59885L290.19683,364.59885L290.19683,364.35883L289.71677,364.35883
				L289.71677,364.1188L289.23671,364.1188L289.23671,363.87878L288.99668,363.87878L288.99668,363.63875L288.75664,363.63875L288.75664,363.39872
				L288.27658,363.39872L288.27658,363.1587L287.79652,363.1587L287.79652,362.91867L287.31646,362.91867L286.8364,362.91867L286.8364,362.67865
				L286.8364,362.43862L286.59637,362.43862L286.59637,362.1986L286.11631,362.1986L286.11631,361.95857L285.87628,361.95857L285.87628,361.71855
				L285.39622,361.71855L285.39622,361.47852L285.15619,361.47852L285.15619,361.23849L284.91616,361.23849L284.91616,360.99847
				L284.67613,360.99847L284.67613,360.75844L284.4361,360.75844L283.95604,360.75844L283.95604,360.51842L283.716,360.51842L283.716,360.27839
				L283.47597,360.27839L283.47597,360.03837L283.23594,360.03837L283.23594,359.79834L282.99591,359.79834L282.99591,359.55832
				L282.51585,359.55832L282.51585,359.31829L282.51585,359.07826L282.03579,359.07826L282.03579,358.83824L281.79576,358.83824
				L281.79576,358.59821L281.55573,358.59821L281.07567,358.59821L281.07567,358.35819L280.83564,358.35819L280.83564,358.11816
				L280.35558,358.11816L280.35558,357.87814L280.11555,357.87814L280.11555,357.63811L280.11555,357.39809L279.87552,357.39809
				L279.87552,357.15806L279.63549,357.15806L279.63549,356.91803L279.39546,356.91803L279.39546,356.67801L279.15543,356.67801
				L279.15543,356.43798L278.67537,356.43798L278.43533,356.43798L278.43533,356.19796L278.1953,356.19796L278.1953,355.95793L277.95527,355.95793
				L277.95527,355.71791L277.95527,355.47788L277.47521,355.47788L277.47521,355.23785L277.23518,355.23785L277.23518,354.99783
				L276.99515,354.99783L276.99515,354.7578L276.75512,354.7578L276.75512,354.51778L276.51509,354.51778L276.51509,354.27775L276.03503,354.27775
				L275.795,354.27775L275.795,354.03773L275.795,353.7977L275.55497,353.7977L275.55497,353.55768L275.31494,353.55768L275.31494,353.31765
				L274.83488,353.31765L274.83488,353.07762L274.59485,353.07762L274.59485,352.8376L274.35482,352.8376L274.35482,352.59757L274.11479,352.59757
				L274.11479,352.35755L273.87476,352.35755L273.87476,352.11752L273.63473,352.11752L273.63473,351.8775L273.3947,351.8775L273.3947,351.63747
				L273.15466,351.63747L273.15466,351.39745L272.91463,351.39745L272.91463,351.15742L272.6746,351.15742L272.6746,350.91739L272.43457,350.91739
				L272.43457,350.67737L272.19454,350.67737L272.19454,350.43734L271.95451,350.43734L271.95451,350.19732L271.71448,350.19732
				L271.71448,349.95729L271.47445,349.95729L271.47445,349.71727L271.23442,349.71727L271.23442,349.47724L270.99439,349.47724
				L270.99439,349.23722L270.75436,349.23722L270.75436,348.75716L270.51433,348.75716L270.51433,348.51714L270.03427,348.51714
				L270.03427,348.03709L269.79424,348.03709L269.79424,347.79706L269.55421,347.79706L269.55421,347.55704L269.31418,347.55704
				L269.31418,347.31701L269.07415,347.31701L269.07415,347.07699L268.83412,347.07699L268.83412,346.59693L268.59409,346.59693
				L268.59409,346.35691L268.35406,346.35691L268.35406,346.11688L268.11402,346.11688L268.11402,345.63683L267.87399,345.63683
				L267.87399,345.39681L267.63396,345.39681L267.39393,345.39681L267.39393,345.15678L267.1539,345.15678L267.1539,344.91676L266.91387,344.91676
				L266.91387,344.67673L266.91387,344.4367L266.67384,344.4367L266.67384,344.19668L266.43381,344.19668L266.43381,343.95665L266.19378,343.95665
				L266.19378,343.71663L265.95375,343.71663L265.95375,343.4766L265.47369,343.4766L265.47369,343.23658L265.23366,343.23658L264.99363,343.23658
				L264.99363,342.99655L264.7536,342.99655L264.7536,342.75652L264.51357,342.75652L264.51357,342.5165L264.27354,342.5165L264.27354,342.27647
				L264.03351,342.27647L264.03351,342.03645L263.55345,342.03645L263.55345,341.79642L263.31342,341.79642L263.31342,341.5564L
				263.07339,341.5564L263.07339,341.31637L262.59332,341.31637L262.59332,341.07635L262.35329,341.07635L262.35329,340.83632L262.11326,340.83632
				L262.11326,340.59629L261.6332,340.59629L261.6332,340.35627L261.39317,340.35627L261.39317,340.11624L261.15314,340.11624L261.15314,339.87622
				L260.91311,339.87622L260.91311,339.63619L260.43305,339.63619L260.43305,339.39617L260.43305,339.15614L260.19302,339.15614
				L260.19302,338.91612L259.95299,338.91612L259.95299,338.67609L259.71296,338.67609L259.2329,338.67609L259.2329,338.43606L258.99287,338.43606
				L258.99287,338.19604L258.75284,338.19604L258.75284,337.95601L258.27278,337.95601L258.27278,337.71599L258.27278,337.47596
				L258.03275,337.47596L258.03275,337.23594L257.79272,337.23594L257.79272,336.99591L257.55268,336.99591L257.55268,336.75589
				L256.83259,336.75589L256.83259,336.51586L256.35253,336.51586L256.1125,336.51586L256.1125,336.27583L255.63244,336.27583L255.63244,336.03581
				L255.39241,336.03581L255.39241,335.79578L255.15238,335.79578L255.15238,335.55576L255.39241,335.55576L255.39241,335.31573
				L255.63244,335.31573L255.63244,335.07571L255.87247,335.07571L255.87247,334.83568L256.1125,334.83568L256.1125,334.59566L256.59256,334.59566
				L256.59256,334.35563L258.27278,334.35563L258.27278,334.59566L259.71296,334.59566L259.71296,334.83568L261.39317,334.83568
				L261.39317,335.07571L262.59332,335.07571L262.59332,335.31573L263.07339,335.31573L263.07339,335.55576L263.55345,335.55576
				L263.55345,335.79578L264.03351,335.79578L264.03351,336.03581L264.7536,336.03581L264.7536,336.27583L264.99363,336.27583L264.99363,336.51586
				L265.47369,336.51586L265.95375,336.51586L265.95375,336.75589L266.67384,336.75589L266.67384,336.99591L266.91387,336.99591
				L266.91387,337.23594L267.39393,337.23594L267.39393,337.47596L268.11402,337.47596L268.11402,337.71599L269.07415,337.71599
				L269.07415,337.95601L269.79424,337.95601L269.79424,338.19604L270.75436,338.19604L270.75436,338.43606L271.47445,338.43606
				L271.47445,338.67609L272.43457,338.67609L273.63473,338.67609L273.63473,338.91612L274.59485,338.91612L274.59485,339.15614
				L275.795,339.15614L275.795,339.39617L276.99515,339.39617L276.99515,339.63619L277.95527,339.63619L277.95527,339.87622L279.15543,339.87622
				L279.15543,340.11624L280.11555,340.11624L280.11555,340.35627L282.27582,340.35627L282.27582,340.59629L287.79652,340.59629
				L287.79652,340.35627L288.51661,340.35627L288.51661,340.11624L288.99668,340.11624L288.99668,339.87622L289.23671,339.87622
				L289.23671,339.63619L289.71677,339.63619L289.71677,339.39617L290.43686,339.39617L290.43686,339.15614L290.91692,339.15614
				L290.91692,338.91612L291.15695,338.91612L291.15695,338.67609L291.63701,338.67609L292.3571,338.67609L292.3571,338.43606L293.07719,338.43606
				L293.07719,338.19604L293.31722,338.19604L293.31722,337.95601L294.03731,337.95601L294.03731,337.71599L294.75741,337.71599
				L294.75741,337.47596L295.23747,337.47596L295.23747,337.23594L295.71753,337.23594L295.71753,336.99591L296.19759,336.99591
				L296.19759,336.75589L296.67765,336.75589L296.67765,336.51586L297.39774,336.51586L297.8778,336.51586L297.8778,336.27583L298.11783,336.27583
				L298.11783,336.03581L298.83792,336.03581L298.83792,335.79578L299.31798,335.79578L299.31798,335.55576L299.79805,335.55576
				L299.79805,335.31573L300.03808,335.31573L300.03808,334.35563L299.79805,334.35563L299.79805,333.87558L300.03808,333.87558
				L300.03808,333.63555L300.27811,333.63555L300.27811,333.39553L300.51814,333.39553L300.51814,333.1555L300.9982,333.1555L300.9982,332.91548
				L301.47826,332.91548L301.47826,332.67545L301.95832,332.67545L301.95832,332.43543L302.19835,332.43543L302.19835,332.1954L
				302.43838,332.1954L302.91844,332.1954L302.91844,331.95537L303.3985,331.95537L303.3985,331.71535L303.63853,331.71535L303.63853,331.47532
				L304.11859,331.47532L304.11859,331.2353L304.35862,331.2353L304.35862,330.99527L304.59865,330.99527L304.59865,330.75525L305.07872,330.75525
				L305.07872,330.51522L305.55878,330.51522L305.55878,330.27519L306.03884,330.27519L306.03884,330.03517L306.27887,330.03517
				"/>
		</g>
</g></svg>