<?xml version="1.0" encoding="utf-8" standalone="no"?>
<!-- Creator: ESRI ArcMap 10.0.0.2414 -->
<!DOCTYPE svg PUBLIC "-//W3C//DTD SVG 1.1//EN"  "http://www.w3.org/Graphics/SVG/1.1/DTD/svg11.dtd">
<svg width="524.0420768pt" height="395.130717528pt" viewBox="32.15712744 223.563776236 524.0420768 395.130717528" enable-background="new 32.15712744 223.563776236 524.0420768 395.130717528"
	version="1.1" xmlns="http://www.w3.org/2000/svg" xmlns:xlink="http://www.w3.org/1999/xlink" >
	<g id="Couches">
		<g id="reservoirs">
			<clipPath id="SVG_CP_2">
				<path d="M574.39289,21.36228L21.36271,21.36228L21.36271,821.36753L574.39289,821.36753L574.39289,21.36228z"/>
			</clipPath>
			<path clip-path="url(#SVG_CP_2)" fill-opacity="0.2" fill="#2f4493" fill-rule="evenodd" stroke="#2f4493" stroke-width="1" stra="1.44018" stroke-miterlimit="10" stroke-linecap="round" stroke-linejoin="round" d="
				M111.1341,548.9385L104.17322,541.01765L102.25298,539.09745L95.77215,532.13671L87.37109,523.73581L84.01066,521.33555L78.72999,518.69527
				L75.12953,517.25512L71.28905,515.81497L69.12877,515.33492L66.9685,515.09489L63.8481,515.57494L62.40792,515.81497L55.68707,517.01509
				L55.44704,517.01509L54.72695,514.13479L54.72695,512.21458L54.72695,511.25448L55.20701,510.5344L55.68707,509.81433L56.40716,508.13415
				L56.64719,507.17405L56.88722,505.73389L57.36728,499.49323L58.3274,496.61292L59.28752,491.57238L59.76759,487.73197L59.76759,485.09169
				L60.24765,481.01126L61.68783,473.33044L61.92786,469.49003L62.16789,469.25L62.40792,467.80985L62.64795,466.60972L62.88798,465.64962
				L63.36804,465.16957L64.08813,464.44949L68.16865,461.56919L72.72923,458.44885L75.36957,456.52865L79.21005,453.40832L78.24993,450.04796
				L78.48996,448.6078L80.17017,442.36714L81.37033,439.96688L82.57048,438.2867L84.73075,436.3665L86.41097,433.96624L87.85115,431.08594
				L89.29133,427.9656L90.25145,425.32532L91.45161,420.28479L92.89179,415.96433L82.57048,413.8041L73.92938,411.40384L61.68783,408.04348
				L58.08737,408.52353L52.32664,405.4032L56.88722,398.20243L47.52603,394.60205L49.44628,390.76164L46.56591,389.80154L55.9271,376.36011
				L66.24841,381.88069L79.69011,390.28159L89.0513,394.122L90.49148,391.24169L96.01218,388.84144L101.05282,384.28095L110.17398,375.64003
				L128.89636,367.71918L132.49681,367.47916L138.01752,367.71918L142.09803,369.39936L143.77825,372.75972L143.53822,379.48044
				L144.9784,383.56087L147.3787,390.04156L149.53898,391.72174L150.73913,393.64195L149.77901,395.32213L148.33883,396.0422L144.73837,397.48236
				L137.53745,400.60269L134.17703,404.4431L126.97611,415.48427L119.05511,428.44566L118.09499,430.60589L117.61493,431.56599L
				117.13487,434.20627L118.33502,439.48683L118.57505,440.68696L118.81508,442.36714L119.29514,444.28734L120.49529,447.40768L
				126.73608,450.52801L130.33654,450.76803L132.49681,450.04796L138.97764,446.20755L143.05815,439.96688L150.4991,431.32596L154.81965,429.40576
				L159.1402,429.64578L163.46074,431.08594L167.0612,433.96624L172.5819,442.36714L175.7023,446.44757L178.1026,451.48811L179.54278,456.28862
				L178.82269,458.44885L176.90245,461.56919L171.38175,466.12967L168.74141,467.3298L166.10108,467.08977L163.94081,465.64962L
				163.46074,462.28926L162.74065,459.64898L160.58038,457.72878L154.57962,457.0087L151.93928,458.44885L149.29895,460.60908L148.33883,461.80921
				L145.69849,465.40959L141.858,470.69016L131.53669,480.53121L125.2959,487.25192L123.61569,490.13223L123.13563,493.25256L125.05587,496.85295
				L127.69621,498.77315L130.57657,499.01318L135.37718,498.77315L137.77748,497.333L139.21767,495.89284L139.93776,493.25256L140.41782,491.81241
				L143.05815,488.45205L147.13867,485.09169L149.77901,483.89156L152.17931,484.61164L154.81965,487.49195L159.62026,495.41279
				L159.86029,495.41279L163.70077,504.77379L166.58114,511.73453L167.30123,512.69463L171.14172,518.45525L172.10184,518.45525
				L174.26211,516.77507L176.90245,512.93466L179.30275,510.5344L180.74294,508.85422L183.86333,511.97456L186.26364,510.29438L
				187.22376,510.29438L182.66318,507.17405L184.82346,504.77379L185.78358,502.13351L188.42391,492.53249L192.2644,481.25128L194.18464,477.17085
				L196.34492,475.01062L197.7851,475.25064L198.50519,475.49067L199.94537,479.09105L200.9055,482.45141L202.34568,486.29182L204.74598,493.25256
				L207.62635,491.57238L212.18693,487.0119L208.10641,482.93146L207.38632,481.97136L204.98601,482.69144L201.62559,475.01062L
				198.98525,471.41023L195.3848,466.3697L191.54431,461.56919L186.7437,454.84847L186.02361,453.16829L184.82346,450.04796L183.6233,446.6876
				L183.38327,445.96752L182.66318,443.32724L186.50367,441.16701L195.86486,435.88645L198.74522,434.20627L200.1854,433.48619L
				201.62559,435.4064L202.58571,436.3665L203.3058,435.88645L204.50595,435.4064L206.90626,437.3266L208.58647,436.12647L210.02665,434.68632
				L213.14705,436.60653L216.74751,438.2867L220.10793,439.48683L217.94766,441.88709L217.4676,442.36714L219.14781,444.04732L219.62787,443.56727
				L222.02818,440.68696L224.90854,442.84719L228.26897,445.7275L231.14933,448.6078L231.86943,449.80793L233.54964,450.04796L232.10946,451.48811
				L233.30961,452.20819L238.83031,459.40896L240.03046,461.32916L240.99058,462.52929L242.91083,464.92954L245.31113,466.84975
				L247.95147,469.97008L249.39165,471.41023L250.83183,473.33044L253.23214,476.45077L255.87247,480.77123L259.95299,483.41151
				L264.27354,485.33172L266.19378,485.81177L270.03427,489.65218L271.47445,488.21202L277.95527,498.2931L288.03655,516.05499L
				291.39698,521.57558L295.71753,529.01637L313.71981,559.73965L313.71981,559.97967L331.7221,590.94297L325.24127,597.42366L322.36091,600.54399
				L319.72057,603.4243L319.9606,603.4243L319.24051,604.14438L317.08024,608.22481L310.83945,609.66497L306.03884,609.90499L300.27811,609.42494
				L290.19683,607.02469L282.99591,604.14438L279.63549,601.74412L275.795,599.10384L272.19454,598.14374L269.79424,597.66369L268.83412,597.42366
				L264.03351,595.74348L262.59332,594.54336L256.35253,590.70295L252.03198,585.66241L252.27201,580.8619L251.07186,580.14182L
				250.35177,579.66177L249.63168,578.22162L248.91159,576.78146L248.91159,576.54144L248.91159,572.70103L245.79119,572.461L244.35101,572.94105
				L244.11098,574.86126L245.55116,574.86126L245.79119,580.14182L242.19074,580.8619L243.39089,574.14118L240.27049,573.66113L
				239.31037,573.4211L237.39013,580.14182L236.91007,581.34195L235.94994,581.10192L234.26973,580.38185L232.58952,579.42174L231.14933,578.94169
				L230.42924,579.18172L227.30885,582.54208L226.10869,583.02213L224.18845,583.26215L224.90854,581.34195L226.34872,578.46164
				L224.42848,577.74157L222.9883,580.62187L222.02818,582.06203L219.8679,579.42174L218.18769,577.26151L209.06653,564.78018L208.10641,566.46036
				L201.14553,578.94169L198.02513,585.42238L195.3848,587.82264L194.6647,588.30269L193.22452,588.78274L191.06425,584.22226L186.98373,581.10192
				L185.06349,577.50154L173.30199,573.4211L158.66013,567.66049L146.41858,562.61995L145.93852,563.82008L145.69849,564.06011L
				144.01828,563.34003L138.97764,561.1798L139.21767,559.97967L132.73685,556.85934L130.09651,555.89924L130.09651,556.13926L129.37642,555.89924
				L126.25602,554.45908L123.85572,553.01893L121.45541,550.8587L119.05511,550.37865L117.61493,549.17852L116.41477,548.45844L
				113.05435,546.77827L111.1341,548.9385z"/>
			<path clip-path="url(#SVG_CP_2)" fill-opacity="0.2" fill="#2f4493" fill-rule="evenodd" stroke="#2f4493" stroke-width="1" stra="1.44018" stroke-miterlimit="10" stroke-linecap="round" stroke-linejoin="round" d="
				M529.5072,234.98504L531.18741,237.62532L531.18741,238.58542L530.46732,239.54553L528.78711,242.66586L526.62683,241.94578L
				525.42668,243.62596L521.58619,241.46573L521.10613,242.18581L520.14601,244.10601L520.38604,246.02622L521.10613,246.98632L
				520.8661,247.22635L520.38604,248.6665L519.42592,249.14655L517.26564,249.38658L515.82546,250.10665L515.3454,250.82673L515.10537,252.02686
				L515.10537,253.46701L514.62531,255.14719L513.90522,256.82737L513.42516,257.54744L512.94509,257.54744L512.225,257.54744L509.8247,257.30742
				L507.90446,257.30742L505.50415,258.26752L503.58391,258.74757L502.86382,259.9477L504.06397,261.14783L506.94433,262.58798L
				507.18436,264.26816L505.74418,265.22826L504.54403,265.70831L503.10385,266.42839L503.10385,269.78875L505.74418,273.62916L
				508.86458,275.78939L510.06473,274.82929L522.06625,282.03005L522.78634,282.51011L529.02714,272.18901L533.34768,266.66842L
				536.70811,257.54744L545.58924,259.9477L547.98954,261.14783L543.42896,268.10857L549.18969,272.42903L547.26945,275.06931L542.9489,281.30998
				L540.5486,284.43031L536.22805,289.47085L533.58771,292.59118L531.9075,294.99144L530.70735,296.91164L529.74723,299.07187L529.02714,301.47213
				L528.30704,304.59246L527.58695,307.47277L525.66671,310.83312L523.74647,313.95346L519.42592,319.71407L516.30552,323.7945L
				515.10537,324.51458L510.78482,328.35499L507.66442,330.99527L497.10308,341.07635L486.78177,350.67737L483.66138,353.7977L476.94053,362.43862
				L473.34007,365.79898L465.17903,375.15998L457.49806,384.761L456.05788,386.44118L454.85772,388.36138L452.45742,392.68185L450.29714,396.0422
				L448.61693,397.96241L446.21663,400.60269L440.21587,406.60333L438.05559,409.24361L435.65529,413.56407L434.69516,415.00422
				L431.09471,421.00486L427.01419,427.72558L425.57401,429.88581L421.01343,438.04668L420.53337,439.72686L419.57325,442.12711
				L418.37309,445.48747L416.69288,448.36778L415.49273,450.76803L413.09242,454.60844L408.29181,459.16893L405.65148,463.48939
				L405.17142,464.44949L404.45133,464.92954L403.4912,464.92954L402.77111,464.68952L401.57096,463.72942L399.41069,463.24936L
				396.29029,462.76931L393.40993,463.00934L390.0495,463.96944L385.96898,466.12967L383.08862,468.04988L377.80795,473.09041L364.8463,486.05179
				L363.88618,487.0119L362.68603,487.73197L360.28572,487.25192L359.56563,487.972L354.52499,492.29246L351.40459,495.65282L347.80414,496.85295
				L344.20368,494.21266L343.00353,494.45269L340.12316,497.57302L337.2428,501.17341L335.80261,501.89348L334.60246,501.17341L
				331.48207,499.49323L328.12164,498.53312L325.96137,498.2931L321.64082,499.2532L319.48054,499.2532L318.28039,498.05307L316.36015,496.13287
				L316.36015,494.69272L315.64006,493.97264L312.75969,494.21266L311.07948,494.21266L304.35862,493.49259L299.31798,493.73261
				L296.67765,494.69272L294.03731,495.89284L292.11707,497.57302L285.87628,504.29374L283.47597,506.45397L281.55573,503.09361
				L283.23594,501.89348L290.67689,493.73261L296.67765,491.57238L302.67841,489.41215L307.23899,489.8922L309.15923,490.37225L
				310.83945,491.57238L316.60018,487.25192L319.00048,490.85231L319.00048,493.49259L320.20063,496.37289L323.081,496.85295L327.64158,493.01254
				L334.1224,485.33172L339.88313,478.37098L340.84325,477.89092L342.28344,479.81113L343.96365,483.17149L345.1638,482.93146L346.12392,484.85167
				L348.2842,483.65154L348.52423,482.69144L349.48435,481.73133L351.40459,480.53121L352.84478,481.01126L353.32484,480.53121L
				351.64463,479.09105L348.04417,475.01062L348.04417,473.81049L348.52423,472.85039L346.36396,470.93018L353.8049,463.72942L351.16456,461.56919
				L348.2842,459.40896L342.04341,454.36842L339.6431,452.44821L340.84325,451.00806L341.32332,450.28798L344.44371,446.44757L348.04417,441.16701
				L352.60475,435.16637L356.9253,428.68568L356.68526,427.72558L358.84554,424.1252L361.7259,418.84463L362.20597,416.92443L363.40612,415.96433
				L364.8463,415.7243L365.08633,415.00422L365.32636,414.04412L366.28648,413.08402L366.76654,410.92379L374.92758,397.48236L376.12773,396.52225
				L381.4084,387.16126L374.44752,382.8408L378.76807,375.88005L383.32865,368.19924L384.76883,364.83888L386.44904,364.1188L389.56944,362.67865
				L389.80947,362.43862L392.20977,360.51842L394.13002,358.83824L394.85011,358.59821L397.9705,355.47788L400.61084,352.8376L402.53108,350.91739
				L407.09166,346.35691L410.45209,343.71663L414.53261,340.59629L415.2527,340.11624L415.97279,338.43606L416.45285,335.31573L
				416.45285,332.1954L417.17294,330.99527L418.13306,330.51522L419.09318,330.27519L421.73352,329.79514L424.61389,329.31509L427.73428,328.35499
				L430.61465,327.39489L430.37462,331.47532L430.61465,336.03581L430.85468,337.23594L431.57477,337.71599L438.77568,331.95537
				L445.73657,326.43479L444.05635,324.99463L445.01647,324.27456L447.65681,322.11433L449.81708,319.9541L453.17751,322.11433L
				455.09775,319.9541L456.77797,318.75397L458.21815,318.51394L458.93824,318.27392L459.4183,317.79386L463.97888,312.99335L466.85925,309.633
				L465.17903,307.47277L468.29943,304.11241L469.25955,303.1523L474.30019,296.19156L476.22043,292.11113L477.18056,290.911L478.14068,288.9908
				L479.34083,287.79067L479.58086,283.71023L473.5801,280.10985L475.74037,276.26944L477.66062,273.86918L479.34083,272.18901L
				480.54098,269.78875L481.5011,267.38849L482.2212,265.94834L482.70126,264.98824L484.14144,265.70831L488.70202,268.58862L491.34235,269.3087
				L492.30248,268.3486L496.62302,264.26816L498.54327,262.58798L497.34311,260.9078L497.34311,260.66778L497.34311,259.9477L497.34311,258.9876
				L494.94281,257.06739L492.54251,256.10729L493.2626,254.18709L493.74266,252.26688L494.70278,251.78683L497.58315,252.98696L
				499.26336,249.86663L493.98269,246.26624L495.42287,240.2656L497.34311,241.22571L498.30324,241.46573L498.7833,240.74565L499.02333,239.54553
				L501.90369,237.14527L504.06397,238.58542L505.26412,237.62532L510.54479,244.58606L511.74494,244.10601L512.46503,243.62596
				L513.66519,242.42583L515.82546,240.74565L517.7457,236.90525L520.8661,237.3853L522.54631,236.90525L523.74647,234.98504L524.94662,232.58478
				L526.62683,233.30486L528.54707,233.54489L529.5072,234.98504z"/>
		</g>
</g></svg>