<?xml version="1.0" encoding="utf-8" standalone="no"?>
<!-- Creator: ESRI ArcMap 10.0.0.2414 -->
<!DOCTYPE svg PUBLIC "-//W3C//DTD SVG 1.1//EN"  "http://www.w3.org/Graphics/SVG/1.1/DTD/svg11.dtd">
<svg width="524.0420768pt" height="417.925655476pt" viewBox="32.15712744 212.166307262 524.0420768 417.925655476" enable-background="new 32.15712744 212.166307262 524.0420768 417.925655476"
	version="1.1" xmlns="http://www.w3.org/2000/svg" xmlns:xlink="http://www.w3.org/1999/xlink" >
	<g id="Couches">
		<g id="cont_2">
			<path clip-path="url(#SVG_CP_2)" fill="none" stroke="#999999" stroke-width="0.96012" stroke-miterlimit="10" stroke-linecap="round" stroke-linejoin="round" d="
				M109.69392,375.4L109.45389,375.4L109.69392,375.4L109.69392,375.4"/>
			<path clip-path="url(#SVG_CP_2)" fill="none" stroke="#999999" stroke-width="0.96012" stroke-miterlimit="10" stroke-linecap="round" stroke-linejoin="round" d="
				M128.65633,386.92123L128.65633,387.16126L128.65633,387.40128L128.89636,387.40128L128.89636,387.64131L129.13639,387.64131
				L129.13639,416.44438L129.13639,419.08466L129.37642,419.08466L129.37642,420.28479L129.37642,420.52481L129.61645,420.52481
				L129.61645,420.76484L129.85648,420.76484L129.85648,421.00486L129.85648,423.88517L129.85648,424.1252L129.61645,424.1252L129.61645,424.36522
				L129.37642,424.36522L129.37642,424.60525L129.13639,424.60525L129.13639,424.84527L128.89636,424.84527L128.89636,425.0853L
				128.65633,425.0853L128.65633,425.32532L128.4163,425.32532L128.4163,425.56535L128.17627,425.56535L128.17627,425.80537L127.93624,425.80537
				L127.93624,426.0454L127.69621,426.0454L127.69621,426.28543L127.45618,426.28543L127.45618,426.52545L127.21614,426.52545L126.97611,426.52545
				L126.97611,426.76548L126.97611,427.0055L126.73608,427.0055L126.73608,431.08594L126.73608,451.24809L126.49605,451.24809L126.25602,451.24809
				L126.25602,451.48811L126.25602,451.72814L126.01599,451.72814L126.01599,452.68824L125.77596,452.68824L125.77596,452.92826
				L125.53593,452.92826L125.53593,453.16829L125.2959,453.16829L125.2959,453.40832L125.05587,453.40832L125.05587,453.64834L124.81584,453.64834
				L124.81584,453.88837L124.57581,453.88837L124.57581,454.12839L124.33578,454.12839L124.33578,454.36842L124.09575,454.36842
				L124.09575,454.60844L124.09575,455.0885L123.85572,455.0885L123.85572,455.32852L123.61569,455.32852L123.61569,455.56855L123.61569,455.80857
				L123.37566,455.80857L123.37566,456.0486L123.13563,456.0486L123.13563,456.28862L122.8956,456.28862L122.8956,456.52865L122.65557,456.52865
				L122.65557,461.08913L122.65557,461.32916L122.41554,461.32916L122.1755,461.32916L122.1755,461.56919L121.93547,461.56919L121.93547,461.80921
				L121.69544,461.80921L121.69544,462.04924L121.45541,462.04924L121.45541,462.28926L121.21538,462.28926L121.21538,462.52929
				L120.97535,462.52929L121.21538,462.52929L121.21538,462.76931L121.45541,462.76931L121.45541,463.00934L121.45541,463.24936
				L121.69544,463.24936L121.93547,463.24936L121.93547,463.48939L121.93547,463.72942L122.1755,463.72942L122.1755,463.96944L122.41554,463.96944
				L122.41554,464.20947L122.65557,464.20947L122.65557,464.44949L122.65557,464.68952L122.8956,464.68952L122.8956,464.92954L123.13563,464.92954
				L123.13563,465.16957L122.8956,465.16957L122.8956,465.40959L122.8956,465.64962L122.65557,465.64962L122.65557,465.88965L122.41554,465.88965
				L122.1755,465.88965L122.1755,466.12967L122.1755,466.3697L121.93547,466.3697L121.69544,466.3697L121.69544,466.60972L121.45541,466.60972
				L121.21538,466.60972L120.97535,466.60972L120.97535,466.84975L120.73532,466.84975L120.49529,466.84975L120.49529,467.08977
				L120.25526,467.08977L120.01523,467.08977L120.01523,467.3298L119.7752,467.3298L119.7752,467.56983L120.01523,467.56983L120.01523,467.80985
				L120.01523,468.04988L120.01523,468.2899L119.7752,468.2899L119.7752,468.52993L119.53517,468.52993L119.53517,468.76995L119.29514,468.76995
				L119.29514,469.00998L118.81508,469.00998L118.81508,468.76995L118.57505,468.76995L118.57505,468.52993L118.33502,468.52993
				L118.09499,468.52993L118.09499,468.2899L117.85496,468.2899L117.61493,468.2899L117.61493,468.04988L117.3749,468.04988L117.13487,468.04988
				L117.13487,467.80985L116.89483,467.80985L116.6548,467.80985L116.6548,467.56983L116.41477,467.56983L116.41477,467.3298L116.17474,467.3298
				L115.93471,467.3298L115.69468,467.3298L115.69468,467.56983L115.45465,467.56983L115.21462,467.56983L115.21462,467.80985L114.97459,467.80985
				L114.73456,467.80985L114.49453,467.80985L114.49453,468.04988L114.2545,468.04988L114.01447,468.04988L114.01447,468.2899L113.53441,468.2899
				L113.53441,468.52993L113.29438,468.52993L113.05435,468.52993L112.81432,468.52993L112.81432,468.76995L112.57429,468.76995
				L112.57429,469.00998L112.33426,469.00998L112.09423,469.00998L112.09423,469.25L111.8542,469.25L111.8542,469.49003L111.8542,469.73006
				L111.61416,469.73006L111.61416,469.97008L111.37413,469.97008L111.37413,470.21011L111.1341,470.21011L111.1341,470.45013L110.89407,470.45013
				L110.89407,470.69016L110.65404,470.69016L110.65404,470.93018L110.65404,471.17021L110.41401,471.17021L110.17398,471.17021
				L110.17398,471.41023L110.17398,471.65026L109.93395,471.65026L109.93395,471.89029L109.69392,471.89029L109.69392,472.13031
				L109.45389,472.13031L109.45389,472.37034L109.21386,472.37034L109.21386,472.61036L109.21386,472.85039L108.97383,472.85039
				L108.97383,473.09041L108.7338,473.09041L108.7338,473.33044L108.49377,473.33044L108.49377,473.57046L108.25374,473.57046L108.25374,473.81049
				L108.01371,473.81049L108.01371,474.05052L107.77368,474.05052L107.77368,474.29054L107.77368,474.53057L107.53365,474.53057
				L107.53365,474.77059L107.29362,474.77059L107.29362,475.01062L107.05359,475.01062L107.05359,475.25064L106.81356,475.25064
				L106.81356,475.49067L106.81356,475.73069L106.57352,475.73069L106.57352,475.97072L106.33349,475.97072L106.33349,476.21075
				L106.09346,476.21075L106.09346,475.97072L106.09346,475.25064L106.09346,474.77059L106.09346,474.53057L106.33349,474.53057
				L106.33349,474.29054L106.33349,473.81049L106.57352,473.81049L106.57352,473.57046L106.57352,473.09041L106.57352,472.85039
				L106.81356,472.85039L106.81356,472.61036L106.81356,472.37034L106.81356,471.89029L107.05359,471.89029L107.05359,471.65026
				L107.05359,471.41023L107.29362,471.41023L107.29362,471.17021L107.29362,470.93018L107.29362,470.69016L107.53365,470.69016
				L107.53365,470.45013L107.53365,469.97008L107.53365,469.73006L107.77368,469.73006L107.77368,469.49003L107.77368,469.25L108.01371,469.25
				L108.01371,469.00998L108.01371,468.76995L108.25374,468.76995L108.25374,468.52993L108.25374,468.2899L108.49377,468.2899L108.49377,467.80985
				L108.49377,467.3298L108.49377,466.60972L108.7338,466.60972L108.7338,466.3697L108.7338,466.12967L108.7338,465.88965L108.97383,465.88965
				L108.97383,465.64962L108.97383,465.40959L109.21386,465.40959L109.21386,465.16957L109.21386,464.92954L109.21386,464.68952
				L109.45389,464.68952L109.45389,464.44949L109.45389,463.00934L109.45389,461.32916L109.69392,461.32916L109.69392,461.08913
				L109.69392,460.84911L109.93395,460.84911L109.93395,460.60908L109.93395,460.36906L109.93395,460.12903L110.17398,460.12903
				L110.17398,459.88901L110.17398,459.64898L110.17398,459.40896L110.41401,459.40896L110.41401,459.16893L110.65404,459.16893
				L110.65404,458.44885L110.65404,457.24873L110.65404,456.52865L110.65404,456.28862L110.41401,456.28862L110.41401,455.80857
				L110.17398,455.80857L110.17398,455.56855L110.17398,455.32852L110.17398,455.0885L109.93395,455.0885L109.93395,454.84847L109.93395,454.60844
				L109.93395,454.12839L109.69392,454.12839L109.69392,453.88837L109.69392,453.64834L109.45389,453.64834L109.45389,453.40832
				L109.45389,453.16829L109.45389,452.68824L109.21386,452.68824L109.21386,452.44821L109.21386,451.96816L109.21386,451.24809
				L108.97383,451.24809L108.97383,451.00806L108.97383,450.76803L108.7338,450.76803L108.7338,450.52801L108.7338,450.28798L108.7338,450.04796
				L108.49377,450.04796L108.49377,449.80793L108.49377,449.56791L108.25374,449.56791L108.25374,449.32788L108.25374,449.08786
				L108.01371,449.08786L108.01371,448.84783L108.01371,448.6078L107.77368,448.6078L107.77368,448.36778L107.77368,448.12775L107.53365,448.12775
				L107.53365,447.88773L107.53365,447.6477L107.53365,447.16765L107.29362,447.16765L107.29362,446.92763L107.29362,446.6876L107.29362,446.44757
				L107.05359,446.44757L107.05359,446.20755L107.05359,445.96752L106.81356,445.96752L106.81356,445.7275L106.81356,445.24745L
				106.81356,444.52737L106.57352,444.52737L106.57352,444.28734L106.57352,444.04732L106.57352,440.44693L106.33349,440.44693L
				106.33349,439.48683L106.57352,439.48683L106.57352,437.80665L106.57352,437.56663L106.57352,436.3665L106.81356,436.3665L106.57352,436.3665
				L106.81356,436.3665L106.81356,435.4064L106.81356,435.16637L106.81356,433.72622L107.05359,433.72622L107.05359,433.48619L107.05359,431.80601
				L107.05359,431.56599L106.81356,431.56599L106.81356,427.9656L106.81356,427.24553L106.81356,427.0055L106.57352,427.0055L106.57352,426.76548
				L106.57352,426.52545L106.33349,426.52545L106.33349,426.28543L106.09346,426.28543L106.09346,426.0454L106.09346,425.80537L
				106.09346,425.56535L105.85343,425.56535L105.85343,425.32532L105.85343,425.0853L105.6134,425.0853L105.6134,424.84527L105.6134,424.60525
				L105.37337,424.60525L105.37337,424.36522L105.37337,424.1252L105.37337,423.88517L105.13334,423.88517L105.13334,423.64514L
				105.13334,423.40512L105.13334,423.16509L104.89331,423.16509L104.89331,422.92507L104.89331,422.68504L104.65328,422.68504L
				104.65328,422.20499L104.65328,421.72494L104.65328,421.24489L104.65328,420.76484L104.65328,420.28479L104.65328,419.08466L
				104.65328,418.84463L104.41325,418.84463L104.41325,418.60461L104.41325,418.36458L104.17322,418.36458L104.17322,418.12456L
				104.17322,417.88453L103.93319,417.88453L103.93319,417.64451L103.93319,417.40448L103.69316,417.40448L103.69316,417.16445L
				103.69316,416.92443L103.45313,416.92443L103.45313,416.6844L103.45313,416.44438L103.2131,416.44438L103.2131,416.20435L103.2131,415.96433
				L102.97307,415.96433L102.97307,415.7243L102.73304,415.7243L102.73304,415.48427L102.73304,415.24425L102.49301,415.24425L102.49301,415.00422
				L102.49301,414.7642L102.25298,414.7642L102.01295,414.7642L102.01295,414.52417L102.01295,414.28415L101.77292,414.28415L101.77292,414.04412
				L101.77292,413.8041L101.53289,413.8041L101.29285,413.8041L101.29285,413.56407L101.29285,413.32404L101.29285,413.08402L101.05282,413.08402
				L101.05282,412.36394L101.05282,411.64387L100.81279,411.64387L100.81279,411.16381L100.81279,410.20371L100.81279,405.64323
				L100.57276,405.64323L100.57276,400.84271L100.57276,388.84144L100.57276,380.92059L100.81279,380.92059L100.81279,380.44054
				L100.81279,380.20051L101.05282,380.20051L101.05282,380.44054L101.29285,380.44054L101.29285,380.20051L101.53289,380.20051
				L101.77292,380.20051L101.77292,379.96049L102.01295,379.96049L102.01295,380.20051L102.01295,380.44054L102.01295,380.68057
				L102.25298,380.68057L102.25298,381.16062L102.25298,381.40064L102.49301,381.40064L102.49301,381.64067L102.49301,394.60205
				L102.49301,396.52225L102.73304,396.52225L102.73304,397.00231L102.73304,397.48236L102.97307,397.48236L102.97307,399.16254
				L102.97307,399.40256L103.2131,399.40256L103.2131,402.52289L103.2131,403.00294L103.45313,403.00294L103.45313,403.483L103.45313,403.72302
				L103.45313,403.96305L103.69316,403.96305L103.69316,404.4431L103.69316,405.4032L103.93319,405.4032L103.93319,405.64323L103.93319,406.12328
				L103.93319,406.60333L104.17322,406.60333L104.17322,406.84335L104.17322,407.08338L104.17322,407.32341L104.41325,407.32341
				L104.41325,407.56343L104.41325,407.80346L104.65328,407.80346L104.65328,408.04348L104.65328,408.28351L104.65328,408.52353
				L104.89331,408.52353L104.89331,408.76356L104.89331,409.24361L105.13334,409.24361L105.13334,409.48364L105.13334,409.72366
				L105.13334,409.96369L105.37337,409.96369L105.37337,410.20371L105.37337,410.44374L105.6134,410.44374L105.6134,410.68376L105.6134,410.92379
				L105.85343,410.92379L105.85343,411.16381L105.85343,411.40384L106.09346,411.40384L106.09346,411.64387L106.09346,411.40384
				L106.33349,411.40384L106.33349,410.92379L106.57352,410.92379L106.57352,410.68376L106.57352,410.44374L106.81356,410.44374
				L106.81356,409.48364L106.81356,407.08338L107.05359,407.08338L107.05359,405.4032L106.81356,405.4032L106.81356,404.4431L106.81356,404.20307
				L106.81356,403.96305L106.57352,403.96305L106.57352,403.72302L106.57352,403.483L106.57352,403.24297L106.33349,403.24297L106.33349,403.00294
				L106.09346,403.00294L106.09346,402.52289L106.09346,402.28287L105.85343,402.28287L105.85343,402.04284L105.85343,401.80282
				L105.85343,401.56279L105.6134,401.56279L105.6134,401.32277L105.6134,401.08274L105.37337,401.08274L105.37337,400.84271L105.37337,400.36266
				L105.13334,400.36266L105.13334,400.12264L105.13334,399.88261L104.89331,399.88261L104.89331,399.64259L104.89331,398.20243
				L104.89331,397.48236L105.13334,397.48236L105.13334,397.24233L105.13334,397.00231L105.13334,396.76228L105.37337,396.76228
				L105.37337,396.52225L105.37337,396.28223L105.37337,396.0422L105.6134,396.0422L105.6134,395.80218L105.6134,395.56215L105.85343,395.56215
				L105.85343,395.32213L105.85343,395.0821L106.09346,395.0821L106.09346,394.84208L106.09346,394.60205L106.09346,394.36202L106.33349,394.36202
				L106.33349,394.122L106.57352,394.122L106.57352,393.88197L106.57352,393.64195L106.81356,393.64195L106.81356,393.40192L106.81356,393.1619
				L106.81356,392.92187L107.05359,392.92187L107.05359,392.68185L107.05359,392.20179L107.29362,392.20179L107.29362,391.96177
				L107.29362,391.48172L107.29362,391.00167L107.53365,391.00167L107.53365,390.76164L107.29362,390.76164L107.29362,390.04156
				L107.53365,390.04156L107.53365,389.56151L107.53365,389.32149L107.53365,388.60141L107.29362,388.60141L107.53365,388.60141
				L107.53365,388.12136L107.53365,387.16126L107.53365,386.68121L107.77368,386.68121L107.77368,386.44118L107.77368,386.20115
				L107.77368,385.7211L107.77368,385.48108L108.01371,385.48108L108.01371,385.24105L108.01371,384.761L108.01371,384.28095L108.01371,383.8009
				L108.25374,383.8009L108.25374,383.56087L108.25374,383.32085L108.49377,383.32085L108.49377,382.8408L108.49377,382.60077L108.49377,382.12072
				L108.7338,382.12072L108.7338,381.88069L108.7338,381.64067L108.7338,381.40064L108.97383,381.40064L108.97383,380.92059L108.97383,380.68057
				L109.21386,380.68057L109.21386,380.20051L109.21386,379.96049L109.45389,379.96049L109.45389,379.48044L109.45389,379.24041
				L109.45389,379.00039L109.69392,379.00039L109.69392,378.76036L109.69392,378.28031L109.93395,378.28031L109.93395,378.04028
				L109.93395,377.80026L109.93395,377.32021L109.93395,376.84016L109.93395,376.36011L109.69392,376.36011L109.69392,375.88005
				L109.69392,375.64003L109.93395,375.64003L109.93395,375.88005L110.17398,375.88005L110.17398,376.12008L110.17398,376.36011
				L110.41401,376.36011L110.41401,376.60013L110.65404,376.60013L110.65404,376.84016L110.89407,376.84016L110.89407,377.08018
				L110.89407,377.32021L111.1341,377.32021L111.37413,377.32021L111.37413,377.56023L111.37413,377.80026L111.61416,377.80026L
				111.61416,378.04028L111.8542,378.04028L111.8542,378.28031L112.09423,378.28031L112.09423,378.52034L112.09423,378.76036L112.33426,378.76036
				L112.57429,378.76036L112.57429,379.00039L112.57429,379.24041L112.81432,379.24041L112.81432,379.48044L113.05435,379.48044
				L113.05435,379.72046L113.29438,379.72046L113.29438,379.96049L113.53441,379.96049L113.53441,380.20051L113.53441,380.44054
				L113.77444,380.44054L113.77444,380.68057L114.01447,380.68057L114.01447,380.92059L114.2545,380.92059L114.2545,381.16062L114.2545,381.40064
				L114.49453,381.40064L114.73456,381.40064L114.73456,381.64067L114.73456,381.88069L114.97459,381.88069L114.97459,382.12072
				L115.21462,382.12072L115.21462,382.36075L115.45465,382.36075L115.45465,382.60077L115.69468,382.60077L115.69468,382.8408L
				115.93471,382.8408L115.93471,383.08082L115.93471,383.32085L116.17474,383.32085L116.17474,383.56087L116.41477,383.56087L116.41477,383.8009
				L116.6548,383.8009L116.6548,384.04092L116.89483,384.04092L116.89483,384.28095L116.89483,384.52098L117.13487,384.52098L117.13487,384.761
				L117.3749,384.761L117.3749,385.00103L117.61493,385.00103L117.85496,385.00103L117.85496,384.761L118.09499,384.761L118.09499,384.52098
				L118.33502,384.52098L118.57505,384.52098L118.57505,384.28095L118.81508,384.28095L118.81508,384.04092L119.05511,384.04092
				L119.29514,384.04092L119.29514,383.8009L119.53517,383.8009L119.53517,383.56087L119.7752,383.56087L120.01523,383.56087L120.01523,383.32085
				L120.25526,383.32085L120.25526,383.08082L120.49529,383.08082L120.49529,382.8408L120.73532,382.8408L120.97535,382.8408L120.97535,382.60077
				L121.21538,382.60077L121.45541,382.60077L121.45541,382.36075L121.69544,382.36075L121.69544,382.12072L121.93547,382.12072
				L121.93547,381.88069L122.1755,381.88069L122.1755,381.64067L122.41554,381.64067L122.65557,381.64067L122.65557,381.40064L122.8956,381.40064
				L123.13563,381.40064L123.13563,381.16062L123.37566,381.16062L123.37566,380.92059L123.61569,380.92059L123.85572,380.92059
				L123.85572,381.16062L123.85572,381.40064L124.09575,381.40064L124.09575,381.64067L124.33578,381.64067L124.33578,381.88069
				L124.57581,381.88069L124.57581,382.12072L124.81584,382.12072L124.81584,382.36075L124.81584,382.60077L125.05587,382.60077
				L125.05587,382.8408L125.2959,382.8408L125.2959,383.08082L125.53593,383.08082L125.53593,383.32085L125.53593,383.56087L125.77596,383.56087
				L126.01599,383.56087L126.01599,383.8009L126.01599,384.04092L126.25602,384.04092L126.25602,384.28095L126.49605,384.28095L
				126.49605,384.52098L126.73608,384.52098L126.73608,384.761L126.73608,385.00103L126.97611,385.00103L126.97611,385.24105L127.21614,385.24105
				L127.21614,385.48108L127.45618,385.48108L127.45618,385.7211L127.45618,385.96113L127.69621,385.96113L127.69621,386.20115L
				127.93624,386.20115L127.93624,386.44118L128.17627,386.44118L128.17627,386.68121L128.4163,386.68121L128.4163,386.92123L128.65633,386.92123
				"/>
			<path clip-path="url(#SVG_CP_2)" fill="none" stroke="#999999" stroke-width="0.96012" stroke-miterlimit="10" stroke-linecap="round" stroke-linejoin="round" d="
				M122.8956,456.52865L122.8956,456.28862L123.13563,456.28862L123.13563,456.0486L123.37566,456.0486L123.37566,455.80857L123.61569,455.80857
				L123.61569,455.56855L123.61569,455.32852L123.85572,455.32852L124.09575,455.32852L124.09575,455.0885L124.09575,454.60844L
				124.33578,454.60844L124.33578,454.36842L124.57581,454.36842L124.57581,454.12839L124.57581,453.88837L124.81584,453.88837L
				124.81584,453.64834L125.05587,453.64834L125.2959,453.64834L125.2959,453.40832L125.2959,453.16829L125.53593,453.16829L125.53593,452.92826
				L125.77596,452.92826L126.01599,452.92826L126.01599,452.68824L126.01599,452.44821L126.25602,452.44821L126.25602,452.20819
				L126.49605,452.20819L126.49605,451.96816L126.73608,451.96816L126.73608,431.08594L126.73608,427.0055L126.97611,427.0055L126.97611,426.76548
				L127.21614,426.76548L127.21614,426.52545L127.45618,426.52545L127.45618,426.28543L127.69621,426.28543L127.69621,426.0454L
				127.93624,426.0454L127.93624,425.80537L128.17627,425.80537L128.17627,425.56535L128.4163,425.56535L128.4163,425.32532L128.65633,425.32532
				L128.65633,425.0853L128.89636,425.0853L128.89636,424.84527L129.13639,424.84527L129.13639,424.60525L129.37642,424.60525L129.37642,424.36522
				L129.61645,424.36522L129.61645,424.1252L129.85648,424.1252L129.85648,423.88517L130.09651,423.88517L130.09651,421.00486L129.85648,421.00486
				L129.85648,419.56471L129.61645,419.56471L129.61645,419.32468L129.61645,419.08466L129.37642,419.08466L129.37642,418.84463
				L129.37642,416.44438L129.13639,416.44438L129.13639,387.64131L129.13639,387.40128L128.89636,387.40128L128.89636,387.16126
				L128.65633,387.16126L128.65633,386.92123L128.89636,386.92123L128.89636,386.68121L129.13639,386.68121L129.13639,386.44118
				L129.37642,386.44118L129.37642,386.20115L129.61645,386.20115L129.61645,385.96113L129.85648,385.96113L130.09651,385.96113
				L130.09651,385.7211L130.33654,385.7211L130.33654,385.48108L130.57657,385.48108L130.57657,385.24105L130.8166,385.24105L130.8166,385.00103
				L131.05663,385.00103L131.29666,385.00103L131.29666,384.761L131.53669,384.761L131.53669,384.52098L131.77672,384.52098L131.77672,384.28095
				L132.01675,384.28095L132.01675,384.04092L132.25678,384.04092L132.49681,384.04092L132.49681,383.8009L132.73685,383.8009L132.73685,383.56087
				L132.97688,383.56087L132.97688,383.32085L133.21691,383.32085L133.45694,383.32085L133.45694,383.08082L133.45694,382.8408L
				133.69697,382.8408L133.937,382.8408L133.937,382.60077L134.17703,382.60077L134.41706,382.60077L134.65709,382.60077L134.65709,382.8408
				L134.89712,382.8408L135.13715,382.8408L135.13715,383.08082L135.37718,383.08082L135.61721,383.08082L135.61721,383.32085L135.85724,383.32085
				L136.09727,383.32085L136.09727,383.56087L136.3373,383.56087L136.57733,383.56087L136.57733,383.8009L136.81736,383.8009L136.81736,384.04092
				L137.05739,384.04092L137.29742,384.04092L137.29742,384.28095L137.53745,384.28095L137.77748,384.28095L138.01752,384.28095
				L138.01752,384.52098L138.01752,384.761L138.25755,384.761L138.25755,385.00103L138.49758,385.00103L138.49758,385.24105L138.73761,385.24105
				L138.73761,385.48108L138.97764,385.48108L138.97764,385.24105L139.21767,385.24105L139.21767,385.00103L139.4577,385.00103L
				139.4577,384.761L139.4577,384.52098L139.69773,384.52098L139.69773,384.28095L139.93776,384.28095L139.93776,384.04092L139.93776,383.8009
				L140.17779,383.8009L140.17779,383.56087L140.41782,383.56087L140.41782,383.32085L140.41782,383.08082L140.65785,383.08082L
				140.65785,382.8408L140.65785,382.60077L140.89788,382.60077L140.89788,382.36075L141.13791,382.36075L141.13791,382.12072L141.13791,381.88069
				L141.37794,381.88069L141.37794,381.64067L141.37794,381.40064L141.61797,381.40064L141.61797,381.16062L141.61797,380.92059
				L141.37794,380.92059L141.37794,380.68057L141.13791,380.68057L141.13791,380.44054L140.89788,380.44054L140.89788,380.20051
				L140.89788,379.72046L140.89788,379.48044L140.89788,379.24041L140.65785,379.24041L140.65785,379.00039L140.41782,379.00039
				L140.41782,378.76036L140.17779,378.76036L140.17779,378.52034L139.93776,378.52034L139.93776,378.28031L139.69773,378.28031
				L139.93776,378.28031L139.93776,378.04028L140.17779,378.04028L140.17779,377.80026L140.41782,377.80026L140.41782,377.56023
				L140.65785,377.56023L140.65785,377.32021L140.89788,377.32021L140.89788,377.08018L140.89788,376.84016L141.13791,376.84016
				L141.13791,376.60013L141.37794,376.60013L141.37794,376.36011L141.61797,376.36011L141.61797,376.60013L141.858,376.60013L142.09803,376.60013
				L142.09803,376.84016L142.33806,376.84016L142.33806,377.08018L142.57809,377.08018L142.57809,377.32021L142.81812,377.32021
				L142.81812,377.56023L143.05815,377.56023L143.05815,377.80026L143.29819,377.80026L143.29819,378.04028L143.53822,378.04028
				L143.77825,378.04028L143.77825,377.80026L143.77825,377.56023L144.01828,377.56023L144.01828,377.32021L144.01828,377.08018
				L144.25831,377.08018L144.25831,376.84016L144.25831,376.60013L144.49834,376.60013L144.49834,376.36011L144.73837,376.36011
				L144.73837,376.12008L144.73837,375.88005L144.9784,375.88005L144.9784,375.64003L144.9784,375.4L145.21843,375.4L145.21843,375.15998
				L145.21843,374.91995L145.45846,374.91995L145.45846,374.67993L145.45846,374.19988L145.69849,374.19988L145.69849,373.95985
				L145.69849,373.4798L145.93852,373.4798L145.93852,373.23977L146.17855,373.23977L146.17855,372.99975L146.17855,372.75972L146.17855,372.5197
				L146.41858,372.5197L146.41858,372.27967L146.41858,372.03965L146.65861,372.03965L146.65861,371.79962L146.65861,371.55959L
				146.65861,371.31957L146.89864,371.31957L146.89864,371.07954L146.89864,370.83952L146.89864,370.59949L147.13867,370.59949L
				147.13867,370.35947L147.13867,370.11944L147.3787,370.11944L147.3787,369.87942L147.3787,369.63939L147.3787,369.39936L147.61873,369.39936
				L147.61873,369.15934L147.61873,368.91931L147.85876,368.91931L147.85876,368.67929L148.09879,368.67929L148.09879,368.43926
				L148.09879,368.19924L148.33883,368.19924L148.57886,368.19924L148.57886,368.67929L148.81889,368.67929L148.81889,368.91931
				L148.81889,369.15934L149.05892,369.15934L149.05892,369.39936L149.05892,369.87942L149.29895,369.87942L149.29895,370.11944
				L149.29895,370.35947L149.53898,370.35947L149.53898,370.59949L149.53898,370.83952L149.77901,370.83952L149.77901,371.07954
				L150.01904,371.07954L150.01904,371.31957L150.01904,371.55959L150.25907,371.55959L150.25907,371.79962L150.25907,372.03965
				L150.4991,372.03965L150.4991,372.27967L150.4991,372.5197L150.73913,372.5197L150.73913,372.75972L150.97916,372.75972L150.97916,372.99975
				L151.21919,372.99975L151.21919,373.23977L151.45922,373.23977L151.45922,373.4798L151.69925,373.4798L151.69925,373.71982L151.93928,373.71982
				L152.17931,373.71982L152.17931,373.95985L152.41934,373.95985L152.41934,374.19988L152.65937,374.19988L152.65937,374.4399L
				152.8994,374.4399L152.8994,374.67993L153.13943,374.67993L153.13943,374.91995L153.37946,374.91995L153.6195,374.91995L153.6195,375.15998
				L153.85953,375.15998L153.85953,375.4L154.33959,375.4L154.81965,375.4L154.81965,375.64003L155.05968,375.64003L155.05968,375.88005
				L155.53974,375.88005L156.25983,375.88005L156.49986,375.88005L156.49986,376.12008L156.73989,376.12008L156.97992,376.12008
				L156.97992,376.36011L164.18084,376.36011L164.18084,376.12008L163.94081,376.12008L163.94081,375.88005L163.70077,375.88005
				L163.70077,375.64003L163.46074,375.64003L163.46074,375.4L162.98068,375.4L162.74065,375.4L162.74065,375.15998L162.74065,374.91995
				L162.50062,374.91995L162.26059,374.91995L162.26059,374.67993L162.02056,374.67993L162.02056,374.4399L161.78053,374.4399L161.78053,374.19988
				L161.5405,374.19988L161.5405,373.95985L161.30047,373.95985L161.30047,373.71982L161.06044,373.71982L161.06044,373.4798L160.82041,373.4798
				L160.82041,373.23977L160.58038,373.23977L160.58038,372.99975L160.34035,372.99975L160.34035,372.75972L160.10032,372.75972
				L160.10032,372.5197L159.86029,372.5197L159.86029,372.27967L159.62026,372.27967L159.62026,372.03965L159.38023,372.03965L159.38023,371.79962
				L159.1402,371.79962L159.1402,371.55959L158.90017,371.55959L158.90017,371.31957L158.66013,371.31957L158.66013,371.07954L158.4201,371.07954
				L158.4201,370.83952L158.18007,370.83952L158.18007,370.59949L157.94004,370.59949L157.94004,370.35947L157.70001,370.35947L
				157.70001,370.11944L157.45998,370.11944L157.45998,369.87942L157.21995,369.87942L157.21995,369.63939L156.97992,369.63939L
				156.97992,369.39936L156.73989,369.39936L156.73989,369.15934L156.73989,368.91931L156.49986,368.91931L156.25983,368.91931L
				156.25983,368.67929L156.0198,368.67929L156.0198,368.43926L155.77977,368.43926L155.77977,368.19924L155.53974,368.19924L155.53974,367.95921
				L155.29971,367.95921L155.29971,367.71918L155.05968,367.71918L155.05968,367.47916L154.81965,367.47916L154.81965,367.23913
				L154.57962,367.23913L154.57962,366.99911L154.33959,366.99911L154.33959,366.75908L154.09956,366.75908L154.09956,366.51906
				L153.85953,366.51906L153.85953,366.27903L153.6195,366.27903L153.6195,366.03901L153.37946,366.03901L153.37946,365.79898L153.37946,365.55895
				L153.13943,365.55895L152.8994,365.55895L152.8994,365.31893L152.65937,365.31893L152.65937,365.0789L152.41934,365.0789L152.41934,364.83888
				L152.17931,364.83888L152.17931,364.59885L151.93928,364.59885L151.93928,364.35883L151.69925,364.35883L151.69925,364.1188L
				151.93928,364.1188L151.93928,363.87878L152.17931,363.87878L152.17931,363.63875L152.17931,363.39872L152.41934,363.39872L152.41934,363.1587
				L152.41934,362.91867L152.41934,362.67865L152.65937,362.67865L152.65937,362.43862L152.65937,362.1986L152.8994,362.1986L152.8994,361.95857
				L152.8994,361.47852L153.13943,361.47852L153.13943,361.23849L153.37946,361.23849L153.37946,360.99847L153.13943,360.99847L
				152.8994,360.99847L152.8994,360.75844L152.65937,360.75844L152.41934,360.75844L152.8994,360.75844L152.8994,360.51842L153.37946,360.51842
				L153.37946,360.27839L153.6195,360.27839L153.85953,360.27839L153.85953,360.03837L154.09956,360.03837L154.33959,360.03837L
				154.57962,360.03837L154.57962,360.27839L154.81965,360.27839L155.29971,360.27839L155.29971,360.51842L155.53974,360.51842L
				155.77977,360.51842L156.25983,360.51842L156.25983,360.75844L156.49986,360.75844L156.73989,360.75844L156.97992,360.75844L
				156.97992,360.99847L157.21995,360.99847L157.45998,360.99847L157.45998,361.23849L157.70001,361.23849L157.70001,361.47852L
				157.94004,361.47852L158.18007,361.47852L158.18007,361.71855L158.18007,361.95857L158.4201,361.95857L158.4201,362.1986L158.66013,362.1986
				L158.90017,362.1986L158.90017,362.43862L158.90017,362.67865L159.1402,362.67865L159.1402,362.91867L159.38023,362.91867L159.38023,363.1587
				L159.62026,363.1587L159.62026,363.39872L159.86029,363.39872L160.10032,363.39872L160.10032,363.63875L160.10032,363.87878L
				160.34035,363.87878L160.34035,364.1188L160.58038,364.1188L160.82041,364.1188L160.82041,364.35883L160.82041,364.59885L161.06044,364.59885
				L161.06044,364.83888L161.30047,364.83888L161.5405,364.83888L161.5405,365.0789L161.5405,365.31893L161.78053,365.31893L161.78053,365.55895
				L162.02056,365.55895L162.26059,365.55895L162.26059,365.79898L162.26059,366.03901L162.50062,366.03901L162.74065,366.03901
				L162.74065,366.27903L162.74065,366.51906L162.98068,366.51906L162.98068,366.75908L163.22071,366.75908L163.46074,366.75908
				L163.46074,366.99911L163.46074,367.23913L163.70077,367.23913L163.70077,367.47916L163.94081,367.47916L164.18084,367.47916
				L164.18084,367.71918L164.18084,367.95921L164.42087,367.95921L164.42087,368.19924L164.6609,368.19924L164.90093,368.19924L
				164.90093,368.43926L164.90093,368.67929L165.14096,368.67929L165.14096,368.91931L165.38099,368.91931L165.62102,368.91931L
				165.62102,369.15934L165.62102,369.39936L165.86105,369.39936L166.10108,369.39936L166.10108,369.63939L166.10108,369.87942L
				166.34111,369.87942L166.34111,370.11944L166.58114,370.11944L166.82117,370.11944L166.82117,370.35947L166.82117,370.59949L
				167.0612,370.59949L167.0612,370.83952L167.30123,370.83952L167.30123,371.07954L167.54126,371.07954L167.54126,371.31957L167.78129,371.31957
				L167.78129,371.55959L168.02132,371.55959L168.02132,371.79962L168.26135,371.79962L168.26135,372.03965L168.50138,372.03965
				L168.50138,372.27967L168.50138,372.5197L168.74141,372.5197L168.98144,372.5197L168.98144,372.75972L169.22148,372.75972L169.22148,372.99975
				L169.46151,372.99975L169.46151,373.23977L169.70154,373.23977L169.70154,373.4798L169.94157,373.4798L169.94157,373.71982L170.1816,373.71982
				L170.1816,373.95985L170.42163,373.95985L170.42163,374.19988L170.66166,374.19988L170.90169,374.19988L170.90169,374.4399L170.90169,374.67993
				L171.14172,374.67993L171.38175,374.67993L171.38175,374.91995L171.62178,374.91995L171.62178,375.15998L171.86181,375.15998
				L171.86181,375.4L172.10184,375.4L172.10184,375.64003L172.34187,375.64003L172.34187,375.88005L172.5819,375.88005L172.5819,376.12008
				L172.82193,376.12008L172.82193,376.36011L173.06196,376.36011L173.06196,376.60013L173.30199,376.60013L173.30199,376.84016
				L173.54202,376.84016L173.54202,377.08018L173.78205,377.08018L173.78205,377.32021L174.02208,377.32021L174.02208,377.56023
				L174.26211,377.56023L174.26211,377.80026L174.50215,377.80026L174.50215,378.04028L174.74218,378.04028L174.74218,378.28031
				L174.98221,378.28031L174.98221,378.52034L175.22224,378.52034L175.22224,378.76036L175.46227,378.76036L175.46227,379.00039
				L175.7023,379.00039L175.7023,379.24041L175.94233,379.24041L175.94233,379.48044L176.18236,379.48044L176.18236,379.72046L176.42239,379.72046
				L176.42239,379.96049L176.66242,379.96049L176.66242,380.20051L176.90245,380.20051L176.90245,380.44054L177.14248,380.44054
				L177.14248,380.68057L177.38251,380.68057L177.38251,380.92059L177.62254,380.92059L177.62254,381.16062L177.86257,381.16062
				L177.86257,381.40064L178.1026,381.40064L178.1026,381.64067L178.34263,381.64067L178.34263,381.88069L178.58266,381.88069L178.58266,382.12072
				L178.82269,382.12072L178.82269,382.36075L179.06272,382.36075L179.06272,382.60077L179.30275,382.60077L179.30275,382.8408L
				179.54278,382.8408L179.54278,383.08082L179.78282,383.08082L179.78282,383.32085L180.02285,383.32085L180.02285,383.56087L180.26288,383.56087
				L180.26288,383.8009L180.50291,383.8009L180.50291,384.04092L180.74294,384.04092L180.74294,384.28095L180.98297,384.28095L180.98297,384.52098
				L181.223,384.52098L181.223,384.761L181.46303,384.761L181.46303,385.00103L181.70306,385.00103L181.70306,385.24105L181.94309,385.24105
				L181.94309,385.48108L182.18312,385.48108L182.18312,385.7211L182.42315,385.7211L182.42315,385.96113L182.66318,385.96113L182.66318,386.20115
				L182.90321,386.20115L182.90321,386.44118L183.14324,386.44118L183.14324,386.68121L183.38327,386.68121L183.38327,386.92123
				L183.6233,386.92123L183.6233,387.16126L183.86333,387.16126L183.86333,387.40128L184.10336,387.40128L184.10336,387.64131L184.34339,387.64131
				L184.34339,387.88133L184.58342,387.88133L184.58342,388.12136L184.82346,388.12136L184.82346,388.36138L185.06349,388.36138
				L185.06349,388.60141L185.30352,388.60141L185.30352,388.84144L185.54355,388.84144L185.54355,389.08146L185.78358,389.08146
				L185.78358,389.32149L186.02361,389.32149L186.02361,389.56151L186.26364,389.56151L186.26364,389.80154L186.50367,389.80154
				L186.50367,390.04156L186.7437,390.04156L186.7437,390.28159L186.98373,390.28159L186.98373,390.52161L187.22376,390.52161L187.22376,390.76164
				L187.46379,390.76164L187.46379,391.00167L187.70382,391.00167L187.70382,391.24169L187.94385,391.24169L187.94385,391.48172
				L188.18388,391.48172L188.18388,391.72174L188.42391,391.72174L188.42391,391.96177L188.66394,391.96177L188.66394,392.20179
				L188.90397,392.20179L188.90397,392.44182L189.144,392.44182L189.144,392.68185L189.38403,392.68185L189.38403,392.92187L189.62406,392.92187
				L189.62406,393.1619L189.86409,393.1619L189.86409,393.40192L190.10413,393.40192L190.10413,393.64195L190.34416,393.64195L190.34416,393.88197
				L190.58419,393.88197L190.58419,394.122L190.82422,394.122L190.82422,394.36202L191.06425,394.36202L191.06425,394.60205L191.30428,394.60205
				L191.30428,394.84208L191.54431,394.84208L191.54431,395.0821L191.78434,395.0821L191.78434,395.32213L192.02437,395.32213L192.02437,395.56215
				L192.2644,395.56215L192.2644,395.80218L192.50443,395.80218L192.50443,396.0422L192.74446,396.0422L192.74446,396.28223L192.98449,396.28223
				L192.98449,396.52225L193.22452,396.52225L193.22452,396.76228L193.46455,396.76228L193.46455,397.00231L193.70458,397.00231
				L193.70458,397.24233L193.94461,397.24233L193.94461,397.48236L194.18464,397.48236L194.18464,397.72238L194.42467,397.72238
				L194.42467,397.96241L194.6647,397.96241L194.6647,398.20243L194.90473,398.20243L194.90473,398.44246L195.14476,398.44246L195.14476,398.68248
				L195.3848,398.68248L195.3848,398.92251L195.62483,398.92251L195.62483,399.16254L195.86486,399.16254L195.86486,399.40256L196.10489,399.40256
				L196.10489,399.64259L196.34492,399.64259L196.34492,399.88261L196.34492,400.12264L196.58495,400.12264L196.58495,400.36266
				L196.82498,400.36266L197.06501,400.36266L197.06501,400.60269L197.30504,400.60269L197.30504,400.84271L197.54507,400.84271
				L197.54507,401.08274L197.7851,401.08274L197.7851,401.32277L198.02513,401.32277L198.02513,401.56279L198.26516,401.56279L198.26516,401.80282
				L198.50519,401.80282L198.50519,402.04284L198.74522,402.04284L198.74522,402.28287L198.98525,402.28287L198.98525,402.52289
				L199.22528,402.52289L199.22528,402.76292L199.46531,402.76292L199.46531,403.00294L199.70534,403.00294L199.70534,403.24297
				L199.94537,403.24297L199.94537,403.483L200.1854,403.483L200.1854,403.72302L200.42544,403.72302L200.42544,403.96305L200.66547,403.96305
				L200.66547,404.20307L200.9055,404.20307L200.9055,404.4431L201.14553,404.4431L201.14553,404.68312L201.38556,404.68312L201.38556,404.92315
				L201.62559,404.92315L201.62559,405.16318L201.86562,405.16318L201.86562,405.4032L202.10565,405.4032L202.10565,405.64323L202.34568,405.64323
				L202.34568,405.88325L202.58571,405.88325L202.58571,406.12328L202.82574,406.12328L202.82574,406.3633L203.06577,406.3633L203.06577,406.60333
				L203.3058,406.60333L203.3058,406.84335L203.54583,406.84335L203.54583,407.08338L203.78586,407.08338L203.78586,407.32341L204.02589,407.32341
				L204.02589,407.56343L204.26592,407.56343L204.26592,407.80346L204.50595,407.80346L204.50595,408.04348L204.74598,408.04348
				L204.74598,408.28351L204.98601,408.28351L204.98601,408.52353L205.22604,408.52353L205.22604,408.76356L205.46607,408.76356
				L205.46607,409.00358L205.70611,409.00358L205.70611,409.24361L205.94614,409.24361L205.94614,409.48364L206.18617,409.48364
				L206.18617,409.72366L206.4262,409.72366L206.4262,409.96369L206.66623,409.96369L206.66623,410.20371L206.90626,410.20371L206.90626,410.44374
				L207.14629,410.44374L207.14629,410.68376L207.38632,410.68376L207.38632,410.92379L207.62635,410.92379L207.62635,411.16381
				L207.86638,411.16381L207.86638,411.40384L208.10641,411.40384L208.10641,411.64387L208.34644,411.64387L208.34644,411.88389
				L208.58647,411.88389L208.58647,412.12392L208.8265,412.12392L208.8265,412.36394L209.06653,412.36394L209.06653,412.60397L209.30656,412.60397
				L209.30656,412.84399L209.54659,412.84399L209.54659,413.08402L209.78662,413.08402L209.78662,413.32404L210.02665,413.32404
				L210.02665,413.56407L210.26668,413.56407L210.26668,413.8041L210.50671,413.8041L210.50671,414.04412L210.74674,414.04412L210.74674,414.28415
				L210.98678,414.28415L210.98678,414.52417L211.22681,414.52417L211.22681,414.7642L211.46684,414.7642L211.46684,415.00422L211.70687,415.00422
				L211.70687,415.24425L211.9469,415.24425L211.9469,415.48427L212.18693,415.48427L212.18693,415.7243L212.42696,415.7243L212.42696,415.96433
				L212.66699,415.96433L212.66699,416.20435L212.90702,416.20435L212.90702,416.44438L213.14705,416.44438L213.14705,416.6844L
				213.38708,416.6844L213.38708,416.92443L213.62711,416.92443L213.62711,417.16445L213.86714,417.16445L213.86714,417.40448L214.10717,417.40448
				L214.10717,417.64451L214.3472,417.64451L214.3472,417.88453L214.3472,418.12456L214.3472,418.36458L214.58723,418.36458L214.58723,418.60461
				L214.58723,418.84463L214.58723,419.08466L214.82726,419.08466L214.82726,419.32468L214.82726,419.80474L215.06729,419.80474
				L215.06729,420.28479L215.30732,420.28479L215.30732,420.76484L215.30732,421.00486L215.54735,421.00486L215.54735,421.24489
				L215.54735,421.48491L215.78738,421.48491L215.78738,421.72494L215.78738,421.96497L215.78738,422.44502L216.02742,422.44502
				L216.02742,423.16509L216.02742,424.36522L216.02742,425.0853L216.26745,425.0853L216.26745,425.80537L216.26745,426.52545L216.50748,426.52545
				L216.50748,427.0055L216.50748,427.24553L216.26745,427.24553L216.26745,427.0055L216.02742,427.0055L216.02742,426.76548L216.02742,426.52545
				L215.78738,426.52545L215.78738,426.28543L215.78738,426.0454L215.54735,426.0454L215.54735,425.80537L215.30732,425.80537L215.30732,425.56535
				L215.30732,425.32532L215.06729,425.32532"/>
			<path clip-path="url(#SVG_CP_2)" fill="none" stroke="#999999" stroke-width="0.96012" stroke-miterlimit="10" stroke-linecap="round" stroke-linejoin="round" d="
				M215.06729,425.32532L215.06729,425.0853L215.06729,424.84527L214.82726,424.84527L214.82726,424.60525L214.58723,424.60525L
				214.58723,424.36522L214.3472,424.36522L214.3472,424.1252L214.10717,424.1252L213.86714,424.1252L213.86714,424.36522L213.86714,424.60525
				L213.62711,424.60525L213.62711,424.84527L213.38708,424.84527L213.38708,425.0853L213.14705,425.0853L213.14705,425.32532L212.90702,425.32532
				L212.90702,425.56535L212.66699,425.56535L212.66699,425.80537L212.42696,425.80537L212.42696,426.0454L212.18693,426.0454L212.18693,426.28543
				L211.9469,426.28543L211.9469,426.52545L211.70687,426.52545L211.70687,426.76548L211.46684,426.76548L211.46684,427.0055L211.22681,427.0055
				L211.22681,427.24553L210.98678,427.24553L210.98678,427.48555L210.74674,427.48555L210.74674,427.72558L210.50671,427.72558
				L210.50671,427.9656L210.26668,427.9656L210.26668,428.20563L210.02665,428.20563L210.02665,428.44566L209.78662,428.44566L209.78662,428.68568
				L209.54659,428.68568L209.54659,428.92571L209.30656,428.92571L209.30656,429.16573L209.06653,429.16573L209.06653,429.40576
				L208.8265,429.40576L208.8265,429.64578L208.58647,429.64578L208.58647,429.88581L208.34644,429.88581L208.34644,430.12584L208.10641,430.12584
				L208.10641,430.36586L207.86638,430.36586L207.86638,430.60589L207.62635,430.60589L207.62635,430.84591L207.62635,431.08594
				L207.38632,431.08594L207.14629,431.08594L207.14629,431.32596L207.14629,431.56599L206.90626,431.56599L206.66623,431.56599
				L206.66623,431.80601L206.4262,431.80601L206.4262,432.04604L206.4262,432.28607L206.18617,432.28607L205.94614,432.28607L205.94614,432.52609
				L205.70611,432.52609L205.70611,432.76612L205.46607,432.76612L205.46607,433.00614L205.22604,433.00614L205.22604,433.24617
				L204.98601,433.24617L204.98601,433.48619L204.74598,433.48619L204.74598,433.72622L204.50595,433.72622L204.50595,433.96624
				L204.26592,433.96624L204.26592,434.20627L204.02589,434.20627L204.02589,434.4463L203.78586,434.4463L203.78586,434.68632L203.54583,434.68632
				L203.78586,434.68632L203.78586,435.16637L203.78586,435.4064L203.78586,435.88645L204.02589,435.88645L204.02589,436.3665L203.78586,436.3665
				L203.78586,436.60653L203.54583,436.60653L203.54583,436.84655L203.3058,436.84655L203.3058,437.08658L203.06577,437.08658L202.82574,437.08658
				L202.82574,437.3266L202.58571,437.3266L202.58571,437.56663L202.34568,437.56663L202.34568,437.80665L202.10565,437.80665L202.10565,438.04668
				L201.86562,438.04668L201.86562,438.2867L201.62559,438.2867L201.62559,438.52673L201.38556,438.52673L201.38556,438.76676L201.14553,438.76676
				L201.14553,439.00678L200.9055,439.00678L200.66547,439.00678L200.66547,439.24681L200.42544,439.24681L200.42544,439.48683L
				200.1854,439.48683L199.94537,439.48683L199.94537,439.72686L199.70534,439.72686L199.70534,439.96688L199.46531,439.96688L199.46531,440.20691
				L199.22528,440.20691L198.98525,440.20691L198.98525,440.44693L198.74522,440.44693L198.50519,440.44693L198.50519,440.68696
				L198.26516,440.68696L198.26516,440.44693L198.02513,440.44693L197.7851,440.44693L197.7851,440.20691L197.54507,440.20691L197.54507,439.96688
				L197.30504,439.96688L197.30504,439.72686L197.06501,439.72686L197.06501,439.48683L196.82498,439.48683L196.82498,439.24681
				L196.58495,439.24681L196.58495,439.00678L196.34492,439.00678L196.34492,438.76676L196.10489,438.76676L196.10489,438.52673
				L195.86486,438.52673L195.86486,438.2867L195.86486,438.52673L195.62483,438.52673L195.3848,438.52673L195.14476,438.52673L195.14476,438.76676
				L194.90473,438.76676L194.90473,439.00678L194.6647,439.00678L194.42467,439.00678L194.42467,439.24681L193.94461,439.24681L
				193.70458,439.24681L193.70458,439.00678L193.46455,439.00678L193.46455,438.76676L193.46455,438.52673L193.22452,438.52673L
				193.22452,438.2867L193.22452,438.04668L192.98449,438.04668L192.98449,437.80665L192.98449,438.04668L192.74446,438.04668L192.74446,438.2867
				L192.50443,438.2867L192.50443,438.52673L192.2644,438.52673L192.2644,438.76676L192.2644,439.00678L192.02437,439.00678L192.02437,439.24681
				L191.78434,439.24681L191.78434,439.48683L191.54431,439.48683L191.54431,439.72686L191.54431,439.96688L191.30428,439.96688
				L191.30428,440.20691L191.06425,440.20691L191.06425,440.44693L190.82422,440.44693L190.82422,440.68696L190.58419,440.68696
				L190.58419,440.92699L190.58419,441.16701L190.34416,441.16701L190.34416,441.40704L190.10413,441.40704L190.10413,441.64706
				L189.86409,441.64706L189.86409,441.88709L189.86409,442.12711L189.62406,442.12711L189.62406,442.36714L189.38403,442.36714
				L189.38403,442.60717L189.144,442.60717L189.144,442.84719L188.90397,442.84719L188.90397,443.08722L188.66394,443.08722L188.66394,443.32724
				L188.42391,443.32724L188.42391,443.56727L188.18388,443.56727L188.18388,443.80729L187.94385,443.80729L187.94385,444.04732
				L187.70382,444.04732L187.70382,444.28734L187.46379,444.28734L187.22376,444.28734L187.22376,444.52737L186.98373,444.52737
				L186.98373,444.7674L186.7437,444.7674L186.7437,445.00742L186.50367,445.00742L186.50367,445.24745L186.26364,445.24745L186.02361,445.24745
				L186.02361,445.48747L186.02361,445.7275L186.02361,445.96752L186.26364,445.96752L186.26364,446.20755L186.26364,446.44757L
				186.26364,446.6876L186.50367,446.6876L186.50367,446.92763L186.50367,447.16765L186.50367,447.40768L186.7437,447.40768L186.7437,447.6477
				L186.7437,447.88773L186.98373,447.88773L186.98373,448.12775L186.98373,448.36778L186.98373,448.6078L187.22376,448.6078L187.22376,448.84783
				L187.22376,449.08786L187.22376,449.32788L187.46379,449.32788L187.46379,449.56791L187.46379,449.80793L187.70382,449.80793
				L187.70382,450.04796L187.70382,450.28798L187.70382,450.52801L187.94385,450.52801L187.94385,450.76803L187.94385,451.00806
				L187.94385,451.24809L188.18388,451.24809L188.18388,451.48811L188.18388,451.72814L188.42391,451.72814L188.42391,451.96816
				L188.42391,452.20819L188.42391,452.44821L188.66394,452.44821L188.66394,452.68824L188.66394,452.92826L188.90397,452.92826
				L188.90397,453.16829L188.90397,453.40832L188.90397,453.64834L189.144,453.64834L189.144,453.88837L189.144,454.36842L189.38403,454.36842
				L189.38403,454.60844L189.144,454.60844L189.144,454.84847L188.90397,454.84847L188.90397,454.60844L188.90397,454.36842L188.66394,454.36842
				L188.66394,454.12839L188.66394,453.88837L188.42391,453.88837L188.42391,453.64834L188.18388,453.64834L187.94385,453.64834
				L187.94385,453.40832L187.94385,453.16829L187.70382,453.16829L187.70382,452.92826L187.46379,452.92826L187.46379,452.68824
				L187.22376,452.68824L187.22376,452.44821L186.98373,452.44821L186.98373,452.20819L186.7437,452.20819L186.7437,451.96816L186.50367,451.96816
				L186.50367,451.72814L186.50367,451.48811L186.26364,451.48811L186.26364,451.24809L186.02361,451.24809L185.78358,451.24809
				L185.78358,451.00806L185.54355,451.00806L185.30352,451.00806L185.06349,451.00806L185.06349,450.76803L184.82346,450.76803
				L184.58342,450.76803L184.58342,450.52801L184.34339,450.52801L184.34339,451.00806L184.10336,451.00806L184.10336,451.24809
				L184.34339,451.24809L184.10336,451.24809L184.10336,451.72814L184.10336,452.20819L184.10336,452.68824L184.34339,452.68824
				L184.34339,452.92826L184.34339,453.64834L184.58342,453.64834L184.58342,453.88837L184.58342,454.12839L184.58342,454.36842
				L184.82346,454.36842L184.82346,454.60844L184.82346,455.56855L185.06349,455.56855L185.06349,456.28862L185.06349,456.76867
				L185.06349,456.52865L184.82346,456.52865L184.82346,456.28862L184.58342,456.28862L184.58342,456.0486L184.34339,456.0486L184.34339,455.80857
				L184.34339,455.56855L184.10336,455.56855L184.10336,455.32852L183.86333,455.32852L183.86333,455.0885L183.86333,454.84847L
				183.6233,454.84847L183.6233,454.60844L183.6233,454.36842L183.38327,454.36842L183.38327,454.60844L183.14324,454.60844L182.90321,454.60844
				L182.90321,454.36842L182.66318,454.36842L182.66318,454.12839L182.42315,454.12839L182.42315,453.88837L182.42315,453.64834
				L182.18312,453.64834L182.18312,453.40832L181.94309,453.40832L181.94309,453.16829L181.70306,453.16829L181.70306,452.92826
				L181.70306,452.68824L181.46303,452.68824L181.46303,452.44821L181.223,452.44821L181.223,452.20819L181.223,451.96816L180.98297,451.96816
				L180.98297,451.72814L180.74294,451.72814L180.50291,451.72814L180.50291,451.96816L180.26288,451.96816L180.02285,451.96816
				L180.02285,452.20819L179.78282,452.20819L179.78282,452.44821L179.54278,452.44821L179.30275,452.44821L179.30275,452.68824
				L179.06272,452.68824L178.82269,452.68824L178.82269,452.92826L178.58266,452.92826L178.34263,452.92826L178.34263,452.68824
				L178.1026,452.68824L178.1026,452.44821L178.1026,452.20819L177.86257,452.20819L177.86257,451.96816L177.86257,451.72814L177.62254,451.72814
				L177.62254,451.48811L177.62254,451.24809L177.38251,451.24809L177.38251,451.00806L177.14248,451.00806L177.14248,450.76803
				L177.14248,451.00806L176.90245,451.00806L176.66242,451.00806L176.66242,451.24809L176.42239,451.24809L176.18236,451.24809
				L176.18236,451.48811L175.94233,451.48811L175.94233,451.72814L175.7023,451.72814L175.46227,451.72814L175.46227,451.96816L
				175.22224,451.96816L174.98221,451.96816L174.98221,452.20819L174.74218,452.20819L174.50215,452.20819L174.50215,452.44821L
				174.26211,452.44821L174.26211,452.68824L174.02208,452.68824L173.78205,452.68824L173.78205,452.92826L173.54202,452.92826L
				173.54202,453.16829L173.30199,453.16829L173.06196,453.16829L173.06196,453.40832L172.82193,453.40832L172.82193,453.64834L
				172.5819,453.64834L172.34187,453.64834L172.34187,453.88837L172.10184,453.88837L171.86181,453.88837L171.86181,454.12839L171.62178,454.12839
				L171.38175,454.12839L171.38175,454.36842L171.14172,454.36842L170.90169,454.36842L170.90169,454.60844L170.66166,454.60844
				L170.42163,454.60844L170.42163,454.84847L170.1816,454.84847L170.1816,455.0885L169.94157,455.0885L169.70154,455.0885L169.70154,455.32852
				L169.46151,455.32852L169.22148,455.32852L168.98144,455.32852L168.98144,455.56855L168.74141,455.56855L168.74141,455.80857
				L168.50138,455.80857L168.26135,455.80857L168.26135,456.0486L168.02132,456.0486L168.02132,456.28862L167.78129,456.28862L167.54126,456.28862
				L167.54126,456.52865L167.30123,456.52865L167.0612,456.52865L167.0612,456.76867L166.82117,456.76867L166.82117,457.0087L166.58114,457.0087
				L166.34111,457.0087L166.34111,457.24873L166.10108,457.24873L165.86105,457.24873L165.86105,457.48875L165.62102,457.48875L
				165.38099,457.48875L165.38099,457.72878L165.14096,457.72878L164.90093,457.72878L164.90093,457.9688L164.6609,457.9688L164.42087,457.9688
				L164.42087,458.20883L164.18084,458.20883L164.18084,458.44885L163.94081,458.44885L163.70077,458.44885L163.70077,458.68888
				L163.46074,458.68888L163.22071,458.68888L163.22071,458.9289L162.98068,458.9289L162.98068,459.16893L162.74065,459.16893L162.50062,459.16893
				L162.50062,459.40896L162.26059,459.40896L162.26059,459.64898L162.02056,459.64898L161.78053,459.64898L161.78053,459.88901
				L161.5405,459.88901L161.30047,459.88901L161.30047,460.12903L161.06044,460.12903L160.82041,460.12903L160.82041,460.36906L
				161.06044,460.36906L161.06044,460.60908L161.06044,460.84911L161.30047,460.84911L161.30047,461.08913L161.5405,461.08913L161.5405,461.32916
				L161.5405,461.56919L161.78053,461.56919L161.78053,461.80921L161.78053,462.04924L162.02056,462.04924L162.02056,462.28926L
				162.26059,462.28926L162.26059,462.52929L162.02056,462.52929L161.78053,462.52929L161.78053,462.76931L161.5405,462.76931L161.5405,463.00934
				L161.30047,463.00934L161.30047,463.24936L161.06044,463.24936L160.82041,463.24936L160.82041,463.48939L160.82041,463.72942
				L160.58038,463.72942L160.34035,463.72942L160.34035,463.96944L160.10032,463.96944L160.10032,463.72942L159.86029,463.72942
				L159.86029,463.48939L159.62026,463.48939L159.62026,463.24936L159.62026,463.00934L159.38023,463.00934L159.38023,462.76931
				L159.1402,462.76931L159.1402,462.52929L158.90017,462.52929L158.90017,462.28926L158.90017,462.04924L158.66013,462.04924L158.66013,461.80921
				L158.4201,461.80921L158.4201,461.56919L158.18007,461.56919L158.18007,461.80921L157.94004,461.80921L157.70001,461.80921L157.70001,462.04924
				L157.45998,462.04924L157.45998,462.28926L157.21995,462.28926L156.97992,462.28926L156.97992,462.52929L156.97992,462.76931
				L156.97992,463.00934L157.21995,463.00934L157.21995,463.24936L157.45998,463.24936L157.45998,463.48939L157.45998,463.72942
				L157.70001,463.72942L157.70001,463.96944L157.94004,463.96944L157.94004,464.20947L158.18007,464.20947L158.18007,464.44949
				L158.18007,464.68952L157.94004,464.68952L157.70001,464.68952L157.70001,464.92954L157.45998,464.92954L157.45998,465.16957
				L157.21995,465.16957L156.97992,465.16957L156.97992,465.40959L156.73989,465.40959L156.73989,465.64962L156.49986,465.64962
				L156.25983,465.64962L156.0198,465.64962L156.0198,465.88965L155.77977,465.88965L155.53974,465.88965L155.53974,466.12967L155.29971,466.12967
				L155.29971,466.3697L155.05968,466.3697L154.81965,466.3697L154.81965,466.60972L154.57962,466.60972L154.33959,466.60972L154.09956,466.60972
				L154.09956,466.3697L154.09956,466.12967L153.85953,466.12967L153.85953,465.88965L153.6195,465.88965L153.6195,465.64962L153.6195,465.40959
				L153.37946,465.40959L153.37946,465.16957L153.37946,464.92954L153.13943,464.92954L153.13943,464.68952L152.8994,464.68952L
				152.8994,464.92954L152.65937,464.92954L152.41934,464.92954L152.41934,465.16957L152.17931,465.16957L152.17931,465.40959L151.93928,465.40959
				L151.69925,465.40959L151.69925,465.64962L151.45922,465.64962L151.45922,465.88965L151.21919,465.88965L150.97916,465.88965
				L150.73913,465.88965L150.73913,466.12967L150.4991,466.12967L150.4991,466.3697L150.25907,466.3697L150.01904,466.3697L150.01904,466.60972
				L149.77901,466.60972L149.53898,466.60972L149.53898,466.84975L149.29895,466.84975L149.29895,467.08977L149.05892,467.08977
				L148.81889,467.08977L148.81889,467.3298L148.57886,467.3298L148.33883,467.3298L148.33883,467.56983L148.09879,467.56983L148.09879,467.80985
				L147.85876,467.80985L147.61873,467.80985L147.61873,468.04988L147.3787,468.04988L147.13867,468.04988L147.13867,468.2899L146.89864,468.2899
				L146.65861,468.2899L146.65861,468.52993L146.41858,468.52993L146.17855,468.52993L146.17855,468.76995L145.93852,468.76995L
				145.93852,469.00998L145.69849,469.00998L145.45846,469.00998L145.45846,469.25L145.21843,469.25L144.9784,469.25L144.9784,469.49003
				L144.9784,469.73006L144.9784,469.97008L145.21843,469.97008L145.21843,470.21011L145.45846,470.21011L145.45846,470.45013L145.45846,470.69016
				L145.69849,470.69016L145.21843,470.69016L145.21843,470.93018L144.9784,470.93018L144.49834,470.93018L144.49834,470.69016L
				144.25831,470.69016L144.25831,470.45013L144.25831,470.21011L144.25831,469.97008L144.01828,469.97008L143.77825,469.97008L
				143.53822,469.97008L143.53822,470.21011L143.29819,470.21011L143.05815,470.21011L143.05815,470.45013L142.81812,470.45013L
				142.81812,470.69016L142.57809,470.69016L142.33806,470.69016L142.33806,470.93018L142.09803,470.93018L142.09803,471.17021L
				142.33806,471.17021L142.33806,471.41023L142.57809,471.41023L142.57809,471.65026L142.57809,471.89029L142.81812,471.89029L
				142.81812,472.13031L142.81812,472.37034L143.05815,472.37034L143.05815,472.61036L142.81812,472.61036L142.57809,472.61036L
				142.57809,472.85039L142.33806,472.85039L142.33806,473.09041L142.09803,473.09041L142.09803,472.85039L141.858,472.85039L141.858,472.61036
				L141.858,472.37034L141.61797,472.37034L141.61797,472.13031L141.37794,472.13031L141.37794,471.89029L141.37794,471.65026L140.89788,471.65026
				L140.89788,471.89029L140.65785,471.89029L140.41782,471.89029L140.41782,472.13031L140.17779,472.13031L139.93776,472.13031
				L139.93776,472.37034L139.69773,472.37034L139.4577,472.37034L139.4577,472.61036L139.21767,472.61036L138.97764,472.61036L138.97764,472.85039
				L138.73761,472.85039L138.73761,473.09041L138.49758,473.09041L138.25755,473.09041L138.25755,473.33044L138.01752,473.33044
				L138.01752,473.57046L138.01752,473.81049L138.25755,473.81049L138.25755,474.05052L138.25755,474.29054L138.49758,474.29054
				L138.49758,474.53057L138.73761,474.53057L138.73761,474.77059L138.97764,474.77059L138.97764,475.01062L138.97764,475.25064
				L139.21767,475.25064L139.21767,475.49067L138.97764,475.49067L138.97764,475.25064L138.73761,475.25064L138.25755,475.25064
				L138.25755,475.01062L138.25755,474.77059L138.01752,474.77059L137.77748,474.77059L137.77748,474.53057L137.53745,474.53057
				L137.53745,474.29054L137.29742,474.29054L137.29742,474.05052L137.05739,474.05052L137.05739,473.81049L136.81736,473.81049
				L136.81736,473.57046L136.57733,473.57046L136.3373,473.57046L136.09727,473.57046L136.09727,473.81049L135.85724,473.81049L
				135.61721,473.81049L135.61721,474.05052L135.37718,474.05052L135.37718,474.29054L135.13715,474.29054L134.89712,474.29054L
				134.89712,474.53057L134.89712,474.77059L134.65709,474.77059L134.65709,475.73069L134.89712,475.73069L134.89712,476.45077L
				134.65709,476.45077L134.65709,476.21075L134.65709,475.97072L134.41706,475.97072L134.41706,475.73069L134.17703,475.73069L
				134.17703,475.49067L134.17703,475.25064L133.937,475.25064L133.937,475.01062L133.937,474.77059L133.69697,474.77059L133.69697,474.53057
				L133.45694,474.53057L133.45694,474.29054L133.21691,474.29054L133.21691,474.05052L133.45694,474.05052L133.45694,473.81049
				L133.69697,473.81049L133.937,473.81049L133.937,473.57046L134.17703,473.57046L134.17703,473.33044L134.41706,473.33044L134.65709,473.33044
				L134.65709,473.09041L134.89712,473.09041L135.13715,473.09041L135.13715,472.85039L135.37718,472.85039L135.37718,472.61036
				L135.61721,472.61036L135.85724,472.61036L135.85724,472.37034L136.09727,472.37034L136.3373,472.37034L136.3373,472.13031L136.3373,471.89029
				L136.09727,471.89029L136.09727,471.65026L136.09727,471.41023L135.85724,471.41023L135.61721,471.41023L135.61721,471.17021
				L135.61721,470.93018L135.37718,470.93018L135.37718,470.69016L135.37718,470.45013L135.13715,470.45013L134.89712,470.45013
				L134.89712,470.21011L134.89712,469.97008L134.65709,469.97008L134.65709,469.73006L134.41706,469.73006L134.41706,469.49003
				L134.41706,469.25L134.17703,469.25L134.17703,469.00998L133.937,469.00998L133.937,468.76995L133.937,468.52993L133.69697,468.52993
				L133.69697,468.2899L133.45694,468.2899L133.45694,468.04988L133.21691,468.04988L133.21691,467.80985L132.97688,467.80985L132.73685,467.80985
				L132.73685,468.04988L132.49681,468.04988L132.25678,468.04988L132.25678,468.2899L132.01675,468.2899L132.01675,468.52993L131.77672,468.52993
				L131.77672,468.2899L131.53669,468.2899L131.53669,468.04988L131.29666,468.04988L131.29666,467.80985L131.29666,467.56983L131.05663,467.56983
				L131.05663,467.3298L130.8166,467.3298L130.8166,467.08977L130.57657,467.08977L130.57657,466.84975L130.33654,466.84975L130.33654,466.60972
				L130.33654,466.3697L130.09651,466.3697L130.09651,466.12967L130.09651,465.88965L129.85648,465.88965L129.61645,465.88965L129.61645,465.64962
				L129.61645,465.40959L129.37642,465.40959L129.37642,465.16957L129.61645,465.16957L129.61645,464.92954L129.85648,464.92954
				L129.85648,464.68952L130.09651,464.68952L130.33654,464.68952L130.33654,464.44949L130.57657,464.44949L130.57657,463.96944
				L130.33654,463.96944L130.33654,463.72942L130.33654,463.48939L130.09651,463.48939L130.09651,463.24936L129.85648,463.24936
				L129.85648,463.00934L129.61645,463.00934L129.61645,462.76931L129.37642,462.76931L129.37642,463.00934L129.13639,463.00934
				L129.13639,463.24936L128.89636,463.24936L128.65633,463.24936L128.65633,463.48939L128.4163,463.48939L128.4163,463.72942L128.17627,463.72942
				L128.17627,463.96944L127.93624,463.96944L127.93624,464.20947L127.69621,464.20947L127.45618,464.20947L127.45618,464.44949
				L127.21614,464.44949L127.21614,464.68952L126.97611,464.68952L126.73608,464.68952L126.73608,464.92954L126.49605,464.92954
				L126.49605,465.16957L126.25602,465.16957L126.25602,465.40959L126.01599,465.40959L126.01599,465.16957L126.01599,464.92954
				L125.77596,464.92954L125.77596,464.68952L125.53593,464.68952L125.53593,464.44949L125.2959,464.44949L125.2959,464.20947L125.2959,463.96944
				L125.05587,463.96944L125.05587,463.72942L124.81584,463.72942L124.81584,463.48939L124.57581,463.48939L124.57581,463.24936
				L124.57581,463.00934L124.33578,463.00934L124.09575,463.00934L124.09575,462.76931L124.09575,462.52929L123.85572,462.52929
				L123.85572,462.28926L123.61569,462.28926L123.61569,462.04924L123.61569,461.80921L123.37566,461.80921L123.37566,461.56919
				L123.13563,461.56919L123.13563,461.32916L122.8956,461.32916L122.8956,461.08913L122.8956,456.52865"/>
			<path clip-path="url(#SVG_CP_2)" fill="none" stroke="#999999" stroke-width="0.96012" stroke-miterlimit="10" stroke-linecap="round" stroke-linejoin="round" d="
				M160.10032,369.15934L160.34035,369.15934L160.10032,369.15934L160.10032,368.91931L160.10032,368.67929L159.86029,368.67929
				L159.86029,368.43926L159.62026,368.43926L159.62026,368.19924L159.62026,367.95921L159.38023,367.95921L159.38023,367.71918
				L159.1402,367.71918L159.1402,367.47916L158.90017,367.47916L158.90017,367.23913L158.66013,367.23913L158.66013,366.99911L158.4201,366.99911
				L158.4201,366.75908L158.18007,366.75908L158.18007,366.51906L157.94004,366.51906L157.70001,366.51906L157.70001,366.27903L
				157.45998,366.27903L157.45998,366.03901L157.21995,366.03901L157.21995,365.79898L156.97992,365.79898L156.97992,365.55895L
				156.73989,365.55895L156.73989,365.31893L156.25983,365.31893L156.49986,365.31893L156.49986,365.55895L156.73989,365.55895L
				156.73989,365.79898L156.97992,365.79898L156.97992,366.03901L157.21995,366.03901L157.21995,366.27903L157.45998,366.27903L
				157.45998,366.51906L157.70001,366.51906L157.70001,366.75908L157.94004,366.75908L157.94004,366.99911L158.18007,366.99911L
				158.18007,367.23913L158.4201,367.23913L158.4201,367.47916L158.66013,367.47916L158.66013,367.71918L158.90017,367.71918L158.90017,367.95921
				L159.1402,367.95921L159.1402,368.19924L159.38023,368.19924L159.38023,368.43926L159.62026,368.43926L159.62026,368.67929L159.86029,368.67929
				L159.86029,368.91931L160.10032,368.91931L160.10032,369.15934"/>
		</g>
</g></svg>