<?xml version="1.0" encoding="utf-8" standalone="no"?>
<!-- Creator: ESRI ArcMap 10.0.0.2414 -->
<!DOCTYPE svg PUBLIC "-//W3C//DTD SVG 1.1//EN"  "http://www.w3.org/Graphics/SVG/1.1/DTD/svg11.dtd">
<svg width="190.75639158pt" height="741.1872776pt" viewBox="202.37298421 45.48194658 190.75639158 741.1872776" enable-background="new 202.37298421 45.48194658 190.75639158 741.1872776"
	version="1.1" xmlns="http://www.w3.org/2000/svg" xmlns:xlink="http://www.w3.org/1999/xlink" >
	<g id="Couches">
		<g id="reservoirs">
			<clipPath id="SVG_CP_2">
				<path d="M574.39289,21.36228L21.36271,21.36228L21.36271,821.36753L574.39289,821.36753L574.39289,21.36228z"/>
			</clipPath>
			<path clip-path="url(#SVG_CP_2)" fill-opacity="0.2" fill="#2f4493" fill-rule="evenodd" stroke="#2f4493" stroke-width="1" stra="1.44018" stroke-miterlimit="10" stroke-linecap="round" stroke-linejoin="round" d="
				M289.47674,306.51266L293.55725,308.43287L295.23747,307.95282L296.19759,320.43415L297.63777,329.31509L301.47826,339.63619
				L306.99896,353.07762L309.87933,362.67865L311.31951,369.39936L314.19987,380.92059L318.28039,390.04156L320.92073,402.04284
				L321.16076,407.32341L320.6807,417.88453L311.55954,418.36458L306.75893,419.32468L306.03884,420.04476L307.23899,421.96497L
				307.23899,424.36522L303.3985,430.12584L305.31875,431.56599L307.71905,431.08594L310.83945,431.32596L314.19987,432.04604L315.40003,432.28607
				L318.04036,430.60589L319.00048,430.12584L320.44067,427.48555L321.64082,427.72558L326.2014,430.12584L328.36167,431.32596L
				329.56182,432.04604L333.40231,433.00614L343.24356,435.88645L345.40383,436.84655L347.08405,439.00678L347.56411,441.88709L
				348.52423,449.56791L348.52423,454.36842L348.76426,458.9289L348.52423,467.56983L349.96441,474.29054L358.60551,483.65154L367.24661,492.29246
				L370.12697,497.333L371.80718,514.61484L373.96746,529.49642L378.28801,546.77827L379.24813,553.01893L379.24813,558.29949L378.04798,571.02085
				L376.60779,583.50218L374.92758,594.54336L375.16761,598.62379L375.40764,606.06458L375.16761,614.94553L376.12773,622.86637
				L376.60779,639.42814L376.36776,643.02852L376.60779,647.34898L377.56791,654.30972L388.84935,678.07226L390.76959,685.51305
				L391.00962,691.03364L390.52956,699.19451L390.52956,704.23504L390.28953,710.95576L391.00962,716.23632L390.52956,718.63658
				L381.4084,729.67776L381.4084,729.91778L379.48816,731.83799L363.16609,731.11791L353.8049,753.68031L350.92453,771.92226L352.36472,773.36241
				L353.8049,774.80256L364.36624,778.40295L377.08785,780.08313L379.48816,784.88364L355.24508,778.883L351.16456,778.40295L347.08405,777.20282
				L341.56335,773.84246L337.96289,770.96215L337.48283,767.84182L336.04265,762.56126L335.56258,759.2009L333.64234,759.2009L324.52118,759.44093
				L322.36091,757.52072L321.40079,755.84054L320.6807,755.84054L309.39926,756.32059L306.99896,756.32059L306.5189,749.35985L305.79881,742.63914
				L305.31875,736.39847L305.31875,735.91842L309.15923,736.39847L315.64006,737.11855L319.00048,744.79937L313.71981,745.03939
				L312.75969,745.99949L313.23975,748.8798L319.9606,748.15973L324.76121,744.55934L320.6807,733.51816L322.36091,724.63722L322.60094,721.75691
				L326.92149,722.23696L331.7221,722.47699L335.08252,721.75691L338.20292,722.71701L339.88313,722.95704L343.24356,723.67712L
				343.72362,720.31676L343.72362,717.43645L348.52423,719.35666L349.24432,720.07673L353.56487,723.91714L356.68526,726.07737L
				359.80566,726.79745L362.68603,726.07737L361.48587,720.79681L359.80566,714.31612L355.00505,714.07609L354.28496,713.59604L
				351.88466,712.15589L342.04341,706.39527L340.84325,705.6752L339.6431,705.19515L337.72286,706.87533L331.24204,703.51497L325.72134,700.39464
				L325.96137,695.11407L319.72057,695.3541L318.52042,695.3541L317.32027,695.11407L312.75969,694.87405L311.31951,700.15461L310.59942,703.27494
				L308.43914,703.27494L305.31875,703.27494L305.07872,704.95512L304.35862,707.83543L298.35786,707.5954L299.79805,696.3142L298.59789,695.3541
				L300.75817,693.43389L303.87856,692.71382L311.31951,691.75371L311.07948,688.63338L311.31951,688.63338L311.55954,688.63338
				L312.0396,689.11343L313.71981,688.87341L320.6807,686.9532L320.44067,685.75307L320.44067,684.0729L319.24051,681.19259L317.08024,677.83223
				L316.36015,675.43198L310.35939,676.87213L307.47902,677.59221L305.55878,678.31228L303.15847,679.51241L296.43762,680.47251
				L296.67765,679.51241L292.11707,679.51241L286.59637,680.47251L285.63625,680.71254L284.91616,680.95256L284.67613,680.71254
				L284.4361,675.43198L283.23594,674.47187L277.71524,678.55231L276.99515,675.672L271.71448,676.87213L267.1539,666.79105L262.11326,655.9899
				L258.75284,649.26919L254.43229,641.58837L249.39165,633.90755L246.51128,626.94681L245.31113,619.02596L246.51128,616.14566
				L248.1915,612.30525L249.39165,608.46484L250.5918,604.86446L254.43229,594.54336L257.31265,582.06203L257.07262,574.14118L256.59256,561.41983
				L255.63244,554.45908L255.87247,543.89796L256.83259,534.77699L258.75284,522.53568L259.71296,506.93402L260.19302,491.81241
				L258.03275,475.97072L255.63244,462.28926L254.43229,448.84783L253.95223,438.04668L253.47217,422.44502L254.43229,420.76484
				L258.27278,412.12392L257.55268,409.48364L255.87247,401.32277L257.31265,391.24169L259.95299,380.44054L259.47293,371.07954
				L270.2743,371.79962L272.19454,357.15806L272.43457,355.71791L271.23442,355.71791L269.79424,355.47788L257.31265,355.23785L
				256.35253,351.15742L253.95223,342.75652L250.5918,326.91484L252.51205,317.79386L251.79195,316.83376L258.27278,312.03325L265.95375,306.75269
				L272.6746,301.95218L279.15543,296.43159L284.67613,291.8711L288.03655,289.23082L293.31722,283.23018L295.71753,296.91164L295.71753,300.51202
				L291.63701,300.51202L290.19683,304.11241L289.47674,306.51266zM299.79805,572.22098L299.31798,580.62187L302.43838,580.38185
				L303.15847,585.66241L303.15847,587.58261L298.83792,590.94297L298.59789,590.94297L295.95756,592.1431L297.63777,597.18364L
				298.83792,601.02405L300.9982,607.26471L304.83869,604.86446L305.55878,609.90499L305.79881,612.30525L300.75817,614.22545L300.9982,621.18619
				L293.79728,621.66625L293.55725,630.30717L293.31722,636.54783L293.07719,644.94873L300.9982,645.42878L300.03808,654.78978L
				312.75969,655.50985L320.44067,653.1096L319.48054,638.22801L311.79957,625.0266L319.48054,622.1463L319.9606,618.06586L320.20063,614.46548
				L308.43914,611.10512L305.55878,592.1431L305.79881,589.98287L309.87933,589.98287L310.59942,590.2229L314.4399,592.1431L333.64234,598.62379
				L333.64234,591.90307L321.40079,587.10256L317.80033,585.90243L312.99972,582.7821L309.87933,583.7422L308.43914,584.46228L305.07872,583.7422
				L303.3985,579.42174L304.59865,573.4211L299.79805,572.22098z"/>
			<path clip-path="url(#SVG_CP_2)" fill-opacity="0.2" fill="#2f4493" fill-rule="evenodd" stroke="#2f4493" stroke-width="1" stra="1.44018" stroke-miterlimit="10" stroke-linecap="round" stroke-linejoin="round" d="
				M313.95984,99.61062L310.11936,103.69105L308.67917,102.49092L307.47902,101.77085L308.43914,108.01151L306.03884,109.21164L
				301.71829,108.25154L300.51814,110.41177L297.15771,114.01215L296.91768,114.01215L295.23747,115.93235L293.07719,118.09258L
				293.07719,120.49284L294.75741,122.17302L293.55725,125.05333L288.27658,120.73287L287.07643,121.45294L283.716,125.05333L270.03427,137.53466
				L276.27506,144.4954L269.31418,151.45614L267.39393,152.65627L265.47369,153.13632L264.7536,154.57647L264.7536,156.01663L263.79348,157.21675
				L254.43229,166.81778L246.51128,174.4986L238.35025,182.65946L249.87171,194.42072L252.75208,197.30103L260.91311,208.10218L
				269.07415,210.98248L273.15466,224.18389L278.1953,230.66458L287.55649,236.90525L287.79652,238.82545L285.87628,239.54553L284.67613,240.2656
				L284.67613,241.46573L286.11631,242.18581L286.11631,245.06611L288.99668,246.74629L291.87704,250.10665L300.27811,249.38658
				L302.19835,250.10665L297.63777,256.58734L294.03731,263.78811L291.63701,271.94898L292.83716,281.30998L284.19607,289.9509L
				282.75588,291.39105L273.15466,300.03197L262.35329,307.71279L252.51205,314.67353L251.07186,315.39361L249.39165,313.71343L
				247.23137,313.4734L243.39089,311.07315L239.79043,305.55256L233.54964,293.31126L228.98906,284.19028L224.66851,276.26944L218.90778,264.26816
				L212.90702,252.98696L209.54659,246.98632L207.14629,242.18581L205.94614,239.54553L205.70611,237.62532L204.74598,235.22507
				L205.70611,233.54489L210.26668,238.3454L211.22681,239.06548L211.70687,238.10537L211.22681,237.14527L212.18693,235.70512L
				212.42696,235.70512L214.58723,236.42519L215.30732,235.70512L216.50748,234.26496L218.42772,233.30486L219.8679,231.86471L218.66775,228.9844
				L215.78738,230.18453L215.06729,230.42455L213.62711,228.74438L210.74674,225.14399L208.8265,223.46381L207.38632,221.06356L
				208.34644,213.62276L209.78662,201.14143L210.26668,190.58031L211.22681,183.13952L211.70687,172.81842L211.9469,170.65819L212.66699,164.65755
				L215.06729,159.13696L217.22757,155.53657L220.10793,152.89629L224.42848,149.05588L224.90854,149.05588L227.30885,149.29591
				L233.54964,141.85512L238.83031,136.0945L250.35177,124.8133L254.43229,120.01279L265.47369,109.93171L273.15466,101.77085L280.11555,93.85
				L281.55573,91.68977L284.91616,86.88926L286.11631,84.96905L294.75741,78.00831L304.11859,69.60742L315.16,57.60614L315.40003,57.84616
				L328.12164,65.28696L331.24204,67.68721L333.88237,69.84744L328.84173,74.88798L328.36167,75.60806L329.08176,76.32813L333.88237,81.12865
				L323.081,91.20972L313.95984,99.61062z"/>
		</g>
</g></svg>