<?xml version="1.0" encoding="utf-8" standalone="no"?>
<!-- Creator: ESRI ArcMap 10.0.0.2414 -->
<!DOCTYPE svg PUBLIC "-//W3C//DTD SVG 1.1//EN"  "http://www.w3.org/Graphics/SVG/1.1/DTD/svg11.dtd">
<svg width="524.0420768pt" height="229.223824817pt" viewBox="32.15712744 306.517222591 524.0420768 229.223824817" enable-background="new 32.15712744 306.517222591 524.0420768 229.223824817"
	version="1.1" xmlns="http://www.w3.org/2000/svg" xmlns:xlink="http://www.w3.org/1999/xlink" >
	<g id="Couches">
		<g id="cont_1">
			<clipPath id="SVG_CP_2">
				<path d="M574.39289,21.36228L21.36271,21.36228L21.36271,821.36753L574.39289,821.36753L574.39289,21.36228z"/>
			</clipPath>
			<path clip-path="url(#SVG_CP_2)" fill="none" stroke="#999999" stroke-width="0.96012" stroke-miterlimit="10" stroke-linecap="round" stroke-linejoin="round" d="
				M76.08966,430.36586L76.56972,430.36586L76.56972,430.60589L76.32969,430.60589L76.32969,430.84591L75.6096,430.84591L75.6096,430.60589
				L76.08966,430.60589L76.08966,430.36586"/>
			<path clip-path="url(#SVG_CP_2)" fill="none" stroke="#999999" stroke-width="0.96012" stroke-miterlimit="10" stroke-linecap="round" stroke-linejoin="round" d="
				M95.77215,428.92571L78.97002,428.92571L78.97002,429.16573L78.48996,429.16573L78.48996,429.40576L76.56972,429.40576L76.56972,429.64578
				L76.32969,429.64578L76.32969,429.88581L76.08966,429.88581L76.08966,430.36586L74.16941,430.36586L74.16941,430.60589L73.92938,430.60589
				L73.92938,430.84591L73.44932,430.84591L73.44932,431.08594L73.20929,431.08594L73.20929,431.32596L72.96926,431.32596L72.96926,431.56599
				L72.72923,431.56599L72.72923,431.80601L54.48692,431.80601L54.48692,431.56599L53.04673,431.56599L53.04673,431.32596L52.08661,431.32596
				L52.08661,431.08594L50.88646,431.08594L50.88646,430.84591L49.20624,430.84591L49.20624,431.08594L48.72618,431.08594L48.72618,431.32596
				L48.24612,431.32596L48.24612,431.56599L47.76606,431.56599L47.76606,431.80601L47.286,431.80601L47.286,433.24617L47.04597,433.24617
				L47.04597,435.16637L46.80594,435.16637L46.80594,436.84655L46.56591,436.84655L46.56591,311.5532L492.78254,311.5532L492.78254,311.79323
				L493.2626,311.79323L493.2626,312.03325L493.98269,312.03325L493.98269,312.27328L494.46275,312.27328L494.46275,312.5133L494.94281,312.5133
				L494.94281,312.99335L495.6629,312.99335L495.6629,313.23338L496.14296,313.23338L496.14296,313.4734L497.10308,313.4734L497.10308,313.71343
				L497.58315,313.71343L497.58315,313.95346L498.30324,313.95346L498.30324,314.19348L498.7833,314.19348L498.7833,314.43351L499.26336,314.43351
				L499.26336,314.67353L500.22348,314.67353L500.22348,314.91356L500.70354,314.91356L500.70354,315.15358L501.42363,315.15358
				L501.42363,315.39361L501.90369,315.39361L501.90369,315.63363L502.38375,315.63363L502.38375,315.87366L503.10385,315.87366
				L503.10385,316.11369L503.34388,316.11369L503.34388,316.35371L503.58391,316.35371L503.58391,316.83376L504.06397,316.83376
				L504.06397,317.07379L504.304,317.07379L504.304,317.31381L504.54403,317.31381L504.54403,317.55384L505.02409,317.55384L505.02409,317.79386
				L505.50415,317.79386L505.50415,318.03389L505.74418,318.03389L505.74418,318.27392L506.22424,318.27392L506.22424,318.51394
				L506.46427,318.51394L506.46427,318.75397L506.94433,318.75397L506.94433,318.99399L507.18436,318.99399L507.18436,319.23402
				L507.42439,319.23402L507.42439,319.47404L508.14449,319.47404L508.14449,319.71407L508.38452,319.71407L508.38452,319.9541L
				508.86458,319.9541L508.86458,320.19412L509.10461,320.19412L509.10461,320.67417L509.58467,320.67417L509.58467,320.9142L509.8247,320.9142
				L509.8247,321.15422L510.06473,321.15422L510.06473,321.39425L510.54479,321.39425L510.54479,321.63427L510.78482,321.63427L
				510.78482,321.8743L511.02485,321.8743L511.02485,322.11433L511.26488,322.11433L511.26488,322.35435L511.74494,322.35435L511.74494,322.8344
				L512.225,322.8344L512.225,323.07443L512.46503,323.07443L512.46503,323.31445L512.94509,323.31445L512.94509,323.55448L513.18513,323.55448
				L513.18513,323.7945L513.42516,323.7945L513.42516,324.03453L513.66519,324.03453L513.66519,324.51458L513.90522,324.51458L513.90522,324.75461
				L514.14525,324.75461L514.14525,324.99463L514.38528,324.99463L514.38528,325.23466L514.86534,325.23466L514.86534,325.47468
				L515.3454,325.47468L515.3454,325.71471L515.82546,325.71471L515.82546,325.95473L516.06549,325.95473L516.06549,326.19476L516.30552,326.19476
				L516.30552,326.43479L516.54555,326.43479L516.54555,326.67481L517.02561,326.67481L517.02561,326.91484L517.50567,326.91484
				L517.50567,327.15486L517.7457,327.15486L517.7457,327.39489L518.22576,327.39489L518.22576,327.63491L518.4658,327.63491L518.4658,327.87494
				L518.70583,327.87494L518.70583,328.35499L519.18589,328.35499L519.18589,328.59502L519.42592,328.59502L519.42592,328.83504
				L519.66595,328.83504L519.66595,329.07507L519.90598,329.07507L519.90598,329.31509L520.38604,329.31509L520.38604,329.55512
				L520.62607,329.55512L520.62607,329.79514L521.10613,329.79514L521.10613,330.03517L521.34616,330.03517L521.34616,330.27519
				L521.58619,330.27519L521.58619,330.51522L522.06625,330.51522L522.06625,330.75525L522.30628,330.75525L522.30628,330.99527
				L522.54631,330.99527L522.54631,331.2353L523.02637,331.2353L523.02637,331.47532L523.2664,331.47532L523.2664,331.95537L523.50643,331.95537
				L523.50643,332.43543L523.74647,332.43543L523.74647,332.91548L523.9865,332.91548L523.9865,333.63555L524.22653,333.63555L524.22653,334.1156
				L524.46656,334.1156L524.46656,334.83568L524.70659,334.83568L524.70659,335.31573L524.94662,335.31573L524.94662,335.79578L
				525.18665,335.79578L525.18665,336.27583L525.42668,336.27583L525.42668,336.51586L525.66671,336.51586L525.66671,336.75589L
				525.90674,336.75589L525.90674,337.23594L526.3868,337.23594L526.3868,337.47596L526.86686,337.47596L526.86686,337.71599L527.34692,337.71599
				L527.34692,337.95601L527.58695,337.95601L527.58695,338.19604L528.06701,338.19604L528.06701,338.43606L528.30704,338.43606
				L528.30704,338.67609L528.54707,338.67609L528.54707,338.91612L528.78711,338.91612L528.78711,339.15614L529.02714,339.15614
				L529.02714,339.63619L529.26717,339.63619L529.26717,339.87622L529.5072,339.87622L529.5072,340.11624L529.74723,340.11624L529.74723,340.35627
				L529.98726,340.35627L529.98726,340.83632L530.22729,340.83632L530.22729,341.07635L530.70735,341.07635L530.70735,341.31637
				L530.94738,341.31637L530.94738,341.79642L531.18741,341.79642L531.18741,342.03645L531.42744,342.03645L531.42744,342.27647
				L531.66747,342.27647L531.66747,342.5165L532.14753,342.5165L532.14753,342.75652L532.38756,342.75652L532.38756,342.99655L532.62759,342.99655
				L532.62759,343.4766L533.10765,343.4766L533.10765,343.95665L533.34768,343.95665L533.34768,344.4367L533.58771,344.4367L533.58771,344.91676
				L533.82774,344.91676L533.82774,345.63683L534.30781,345.63683L534.30781,346.11688L534.54784,346.11688L534.54784,346.59693
				L534.78787,346.59693L534.78787,347.31701L535.0279,347.31701L535.0279,347.79706L535.26793,347.79706L535.26793,348.03709L535.50796,348.03709
				L535.50796,348.51714L535.74799,348.51714L535.74799,348.75716L535.98802,348.75716L535.98802,348.99719L536.22805,348.99719
				L536.22805,349.23722L536.46808,349.23722L536.46808,349.47724L536.70811,349.47724L536.70811,349.71727L536.94814,349.71727
				L536.94814,349.95729L537.18817,349.95729L537.18817,350.19732L537.4282,350.19732L537.4282,350.43734L537.66823,350.43734L537.66823,350.91739
				L538.14829,350.91739L538.14829,351.15742L538.38832,351.15742L538.38832,351.39745L538.62835,351.39745L538.62835,351.63747
				L538.86838,351.63747L538.86838,351.8775L539.10841,351.8775L539.10841,352.11752L539.34845,352.11752L539.34845,352.35755L539.58848,352.35755
				L539.58848,352.59757L539.82851,352.59757L539.82851,352.8376L540.06854,352.8376L540.06854,353.07762L540.30857,353.07762L540.30857,353.31765
				L540.5486,353.31765L540.5486,353.55768L540.78863,353.55768L540.78863,353.7977L541.02866,353.7977L541.02866,354.03773L541.26869,354.03773
				L541.26869,354.27775L541.50872,354.27775L541.50872,354.7578L541.98878,354.7578L541.98878,354.99783L542.22881,354.99783L542.22881,355.23785
				L542.46884,355.23785L542.46884,355.47788L542.70887,355.47788L542.70887,355.71791L542.9489,355.71791L542.9489,355.95793L543.66899,355.95793
				L543.66899,356.19796L544.14905,356.19796L544.14905,356.43798L544.38909,356.43798L544.38909,356.67801L544.62912,356.67801
				L544.62912,356.91803L544.86915,356.91803L544.86915,357.15806L545.10918,357.15806L545.10918,357.39809L545.82927,357.39809
				L545.82927,357.63811L546.0693,357.63811L546.0693,357.87814L546.30933,357.87814L546.30933,358.11816L546.54936,358.11816L546.54936,358.59821
				L546.78939,358.59821L546.78939,358.83824L547.02942,358.83824L547.02942,359.07826L547.26945,359.07826L547.26945,359.31829
				L547.50948,359.31829L547.50948,359.55832L547.74951,359.55832L547.74951,359.79834L548.22957,359.79834L548.22957,360.03837
				L548.4696,360.03837L548.4696,360.27839L548.70963,360.27839L548.70963,360.51842L548.94966,360.51842L548.94966,360.75844L549.42972,360.75844
				L549.42972,515.09489L548.70963,515.09489L548.70963,514.85486L547.98954,514.85486L547.98954,514.61484L547.50948,514.61484
				L547.50948,514.37481L547.02942,514.37481L547.02942,514.13479L546.54936,514.13479L546.54936,513.89476L546.0693,513.89476L
				546.0693,513.41471L545.34921,513.41471L545.34921,513.17468L544.62912,513.17468L544.62912,512.93466L544.14905,512.93466L544.14905,512.69463
				L543.66899,512.69463L543.66899,512.45461L543.18893,512.45461L543.18893,512.21458L542.70887,512.21458L542.70887,511.97456
				L542.22881,511.97456L542.22881,511.73453L541.50872,511.73453L541.50872,511.49451L541.02866,511.49451L541.02866,511.25448
				L540.5486,511.25448L540.5486,511.01445L540.30857,511.01445L540.30857,510.77443L540.5486,510.77443L540.5486,510.05435L540.78863,510.05435
				L540.78863,508.85422L541.02866,508.85422L541.02866,508.13415L541.26869,508.13415L541.26869,507.6541L540.78863,507.6541L540.78863,507.41407
				L540.06854,507.41407L540.06854,507.17405L539.58848,507.17405L539.58848,506.93402L538.86838,506.93402L538.86838,506.69399
				L538.14829,506.69399L538.14829,506.45397L537.4282,506.45397L537.4282,506.21394L536.70811,506.21394L536.70811,505.73389L535.98802,505.73389
				L535.98802,505.49387L535.50796,505.49387L535.50796,505.25384L534.78787,505.25384L534.78787,505.01382L533.82774,505.01382
				L533.82774,504.77379L533.34768,504.77379L533.34768,504.53376L532.62759,504.53376L532.62759,504.29374L531.9075,504.29374L
				531.9075,504.05371L531.18741,504.05371L531.18741,503.81369L530.70735,503.81369L530.70735,503.57366L529.74723,503.57366L529.74723,503.33364
				L529.02714,503.33364L529.02714,503.09361L528.54707,503.09361L528.54707,502.85359L527.82698,502.85359L527.82698,502.61356
				L527.34692,502.61356L527.34692,502.37353L526.3868,502.37353L526.3868,501.89348L525.66671,501.89348L525.66671,502.37353L525.18665,502.37353
				L525.18665,502.61356L524.70659,502.61356L524.70659,503.09361L524.46656,503.09361L524.46656,503.57366L524.22653,503.57366
				L524.22653,504.05371L523.9865,504.05371L523.9865,504.77379L523.74647,504.77379L523.74647,505.25384L523.50643,505.25384L523.50643,505.73389
				L523.2664,505.73389L523.2664,506.69399L523.02637,506.69399L523.02637,507.17405L522.54631,507.17405L522.54631,507.6541L522.30628,507.6541
				L522.30628,508.37417L521.82622,508.37417L521.82622,508.13415L521.34616,508.13415L521.34616,507.89412L520.8661,507.89412L
				520.8661,507.6541L520.38604,507.6541L520.38604,507.41407L519.90598,507.41407L519.90598,507.17405L519.42592,507.17405L519.42592,506.93402
				L518.70583,506.93402L518.70583,506.69399L518.22576,506.69399L518.22576,506.45397L517.7457,506.45397L517.7457,506.21394L517.26564,506.21394
				L517.26564,505.73389L516.78558,505.73389L516.78558,505.49387L516.30552,505.49387L516.30552,505.25384L515.82546,505.25384
				L515.82546,505.01382L515.3454,505.01382L515.3454,504.77379L514.62531,504.77379L514.62531,504.29374L514.86534,504.29374L514.86534,504.05371
				L515.3454,504.05371L515.3454,503.57366L515.58543,503.57366L515.58543,503.09361L515.82546,503.09361L515.82546,502.85359L516.06549,502.85359
				L516.06549,502.37353L516.30552,502.37353L516.30552,501.65346L516.54555,501.65346L516.54555,501.41343L516.78558,501.41343
				L516.78558,500.93338L517.02561,500.93338L517.02561,500.69335L517.26564,500.69335L517.26564,500.2133L516.78558,500.2133L516.78558,499.97328
				L516.30552,499.97328L516.30552,499.73325L516.06549,499.73325L516.06549,499.49323L515.58543,499.49323L515.58543,499.2532L
				514.86534,499.2532L514.86534,499.01318L514.62531,499.01318L514.62531,498.77315L514.14525,498.77315L514.14525,498.53312L513.90522,498.53312
				L513.90522,498.05307L513.42516,498.05307L513.42516,497.81305L513.18513,497.81305L513.18513,497.57302L512.70506,497.57302
				L512.70506,497.333L512.46503,497.333L512.46503,497.09297L511.98497,497.09297L511.98497,496.85295L511.74494,496.85295L511.74494,496.61292
				L511.02485,496.61292L511.02485,496.37289L510.78482,496.37289L510.78482,496.13287L510.30476,496.13287L510.30476,495.89284
				L510.06473,495.89284L510.06473,495.65282L509.58467,495.65282L509.58467,495.41279L509.34464,495.41279L509.34464,495.17277
				L508.86458,495.17277L508.86458,494.93274L508.62455,494.93274L508.62455,494.45269L508.14449,494.45269L508.14449,494.21266
				L507.90446,494.21266L507.90446,493.97264L507.42439,493.97264L507.42439,493.73261L506.94433,493.73261L506.94433,493.49259
				L506.7043,493.49259L506.7043,493.25256L506.22424,493.25256L506.22424,493.01254L505.98421,493.01254L505.98421,492.77251L505.50415,492.77251
				L505.50415,492.53249L505.26412,492.53249L505.26412,492.29246L504.78406,492.29246L504.78406,492.05243L504.54403,492.05243
				L504.54403,491.81241L504.06397,491.81241L504.06397,491.57238L503.58391,491.57238L503.58391,491.33236L503.10385,491.33236
				L503.10385,491.09233L502.86382,491.09233L502.86382,490.61228L502.62378,490.61228L502.62378,490.37225L502.14372,490.37225
				L502.14372,490.13223L501.90369,490.13223L501.90369,489.8922L501.42363,489.8922L501.42363,489.65218L501.1836,489.65218L501.1836,489.41215
				L500.94357,489.41215L500.94357,489.17213L500.70354,489.17213L500.70354,488.9321L500.46351,488.9321L500.46351,488.69208L499.74342,488.69208
				L499.74342,488.45205L499.50339,488.45205L499.50339,488.21202L499.26336,488.21202L499.26336,487.972L499.02333,487.972L499.02333,487.73197
				L498.7833,487.73197L498.7833,487.49195L498.30324,487.49195L498.30324,487.25192L498.06321,487.25192L498.06321,486.77187L497.82318,486.77187
				L497.82318,486.53185L497.58315,486.53185L497.58315,486.29182L497.34311,486.29182L497.34311,486.05179L497.10308,486.05179
				L497.10308,485.81177L496.86305,485.81177L496.86305,485.57174L496.62302,485.57174L496.62302,485.33172L496.14296,485.33172
				L496.14296,485.09169L495.6629,485.09169L495.6629,484.85167L495.42287,484.85167L495.42287,484.61164L495.18284,484.61164L495.18284,484.37162
				L494.94281,484.37162L494.94281,484.13159L494.70278,484.13159L494.70278,483.89156L494.46275,483.89156L494.46275,483.65154
				L494.22272,483.65154L494.22272,483.41151L493.98269,483.41151L493.98269,482.93146L493.74266,482.93146L493.74266,482.69144
				L493.50263,482.69144L493.50263,482.45141L493.2626,482.45141L493.2626,482.21139L492.78254,482.21139L492.78254,481.97136L492.30248,481.97136
				L492.30248,481.73133L492.06244,481.73133L492.06244,481.49131L491.82241,481.49131L491.82241,481.25128L491.34235,481.25128
				L491.34235,481.01126L491.10232,481.01126L491.10232,480.77123L490.86229,480.77123L490.86229,480.53121L490.62226,480.53121
				L490.62226,480.29118L490.1422,480.29118L490.1422,480.05116L489.90217,480.05116L489.90217,479.81113L489.66214,479.81113L489.66214,479.33108
				L489.42211,479.33108L489.42211,479.09105L488.94205,479.09105L488.94205,478.85103L488.46199,478.85103L488.46199,478.611L488.22196,478.611
				L488.22196,478.37098L487.7419,478.37098L487.7419,478.13095L487.50187,478.13095L487.50187,477.89092L487.26184,477.89092L487.26184,477.6509
				L487.0218,477.6509L487.0218,477.41087L486.54174,477.41087L486.54174,477.17085L486.30171,477.17085L486.30171,476.93082L486.06168,476.93082
				L486.06168,476.6908L485.58162,476.6908L485.58162,476.45077L485.34159,476.45077L485.34159,477.17085L485.10156,477.17085L485.10156,477.6509
				L484.6215,477.6509L484.6215,478.37098L483.90141,478.37098L483.90141,478.13095L483.42135,478.13095L483.42135,477.89092L482.70126,477.89092
				L482.70126,477.6509L482.2212,477.6509L482.2212,477.41087L481.74113,477.41087L481.74113,477.17085L481.26107,477.17085L481.26107,476.93082
				L480.54098,476.93082L480.54098,476.6908L476.22043,476.6908L476.22043,476.45077L475.26031,476.45077L475.26031,476.21075L474.30019,476.21075
				L474.30019,475.97072L473.10004,475.97072L473.10004,475.49067L472.13992,475.49067L472.13992,475.25064L470.93976,475.25064
				L470.93976,475.01062L469.97964,475.01062L469.97964,474.77059L469.01952,474.77059L469.01952,475.25064L468.77949,475.25064
				L468.77949,476.21075L468.53946,476.21075L468.53946,477.17085L468.29943,477.17085L468.29943,476.93082L467.81937,476.93082
				L467.81937,476.6908L467.09928,476.6908L467.09928,476.45077L466.61922,476.45077L466.61922,476.21075L465.65909,476.21075L465.65909,475.97072
				L464.939,475.97072L464.939,475.49067L464.21891,475.49067L464.21891,475.25064L463.73885,475.25064L463.73885,475.01062L463.01876,475.01062
				L463.01876,474.77059L462.05864,474.77059L462.05864,474.53057L461.33855,474.53057L461.33855,474.29054L460.61845,474.29054
				L460.61845,474.05052L460.13839,474.05052L460.13839,473.81049L459.4183,473.81049L459.4183,473.09041L459.65833,473.09041L459.65833,472.61036
				L459.17827,472.61036L459.17827,472.37034L458.69821,472.37034L458.69821,472.13031L457.73809,472.13031L457.73809,471.65026
				L457.25803,471.65026L457.25803,471.41023L456.53794,471.41023L456.53794,471.17021L456.05788,471.17021L456.05788,470.93018
				L455.33778,470.93018L455.33778,470.69016L454.37766,470.69016L454.37766,470.45013L453.8976,470.45013L453.8976,470.21011L453.17751,470.21011
				L453.17751,469.97008L452.69745,469.97008L452.69745,469.73006L451.97736,469.73006L451.97736,469.49003L451.4973,469.49003L
				451.4973,469.25L450.53717,469.25L450.53717,469.00998L450.05711,469.00998L450.05711,468.76995L449.09699,468.76995L449.09699,469.00998
				L448.85696,469.00998L448.85696,469.25L448.61693,469.25L448.61693,469.00998L448.13687,469.00998L448.13687,468.76995L447.41678,468.76995
				L447.41678,468.52993L446.69669,468.52993L446.69669,468.2899L446.21663,468.2899L446.21663,468.76995L445.9766,468.76995L445.9766,469.25
				L445.73657,469.25L445.73657,469.97008L445.49654,469.97008L445.49654,470.45013L445.2565,470.45013L445.2565,470.21011L444.77644,470.21011
				L444.77644,469.97008L444.53641,469.97008L444.53641,469.73006L444.05635,469.73006L444.05635,469.00998L444.29638,469.00998
				L444.29638,468.2899L444.53641,468.2899L444.53641,467.56983L444.77644,467.56983L444.77644,466.84975L445.01647,466.84975L445.01647,466.12967
				L445.2565,466.12967L445.2565,465.88965L444.77644,465.88965L444.77644,465.64962L444.29638,465.64962L444.29638,465.40959L443.57629,465.40959
				L443.57629,465.16957L442.8562,465.16957L442.8562,464.92954L442.37614,464.92954L442.37614,464.68952L441.65605,464.68952L441.65605,464.44949
				L441.17599,464.44949L441.17599,463.48939L441.41602,463.48939L441.41602,462.76931L441.65605,462.76931L441.65605,462.28926
				L441.89608,462.28926L441.89608,461.56919L442.13611,461.56919L442.13611,461.08913L442.37614,461.08913L442.37614,459.88901
				L442.13611,459.88901L442.13611,459.64898L441.89608,459.64898L441.89608,459.40896L441.65605,459.40896L441.65605,459.16893
				L441.41602,459.16893L441.41602,458.9289L441.17599,458.9289L441.17599,458.68888L440.93596,458.68888L440.93596,458.44885L440.69593,458.44885
				L440.69593,458.20883L440.4559,458.20883L440.4559,457.9688L440.21587,457.9688L440.21587,457.72878L439.97583,457.72878L439.97583,457.48875
				L439.7358,457.48875L439.7358,457.24873L439.25574,457.24873L439.25574,457.0087L438.77568,457.0087L438.77568,457.48875L438.53565,457.48875
				L438.53565,457.9688L438.29562,457.9688L438.29562,458.20883L438.05559,458.20883L438.05559,457.9688L437.57553,457.9688L437.57553,457.72878
				L436.85544,457.72878L436.85544,457.48875L437.09547,457.48875L437.09547,457.24873L437.3355,457.24873L437.3355,456.52865L437.57553,456.52865
				L437.57553,456.0486L437.81556,456.0486L437.81556,455.80857L438.05559,455.80857L438.05559,455.0885L437.81556,455.0885L437.81556,454.84847
				L437.57553,454.84847L437.57553,454.36842L437.3355,454.36842L437.3355,453.88837L437.09547,453.88837L437.09547,453.64834L436.85544,453.64834
				L436.85544,453.16829L436.61541,453.16829L436.61541,452.68824L436.37538,452.68824L436.37538,452.44821L436.13535,452.44821
				L436.13535,452.20819L435.41526,452.20819L435.41526,451.96816L434.9352,451.96816L434.9352,451.72814L434.69516,451.72814L434.69516,451.48811
				L434.2151,451.48811L434.2151,451.24809L433.73504,451.24809L433.73504,451.00806L433.25498,451.00806L433.25498,450.76803L432.77492,450.76803
				L432.77492,450.52801L432.53489,450.52801L432.53489,450.28798L432.05483,450.28798L432.05483,450.04796L431.33474,450.04796
				L431.33474,449.80793L430.85468,449.80793L430.85468,449.56791L430.37462,449.56791L430.37462,449.32788L430.13459,449.32788
				L430.13459,448.84783L429.65452,448.84783L429.65452,448.6078L429.17446,448.6078L429.17446,448.36778L428.6944,448.36778L428.6944,448.12775
				L427.97431,448.12775L427.97431,447.88773L427.73428,447.88773L427.73428,447.6477L427.25422,447.6477L427.25422,447.40768L426.77416,447.40768
				L426.77416,447.16765L426.2941,447.16765L426.2941,446.92763L425.81404,446.92763L425.81404,446.6876L425.57401,446.6876L425.57401,446.44757
				L425.09395,446.44757L425.09395,446.20755L424.61389,446.20755L424.61389,445.96752L423.89379,445.96752L423.89379,445.7275L
				423.65376,445.7275L423.65376,445.24745L423.1737,445.24745L423.1737,445.00742L422.69364,445.00742L422.69364,444.7674L422.21358,444.7674
				L422.21358,444.52737L421.73352,444.52737L421.73352,444.28734L421.49349,444.28734L421.49349,444.04732L421.01343,444.04732
				L421.01343,443.80729L420.29334,443.80729"/>
			<path clip-path="url(#SVG_CP_2)" fill="none" stroke="#999999" stroke-width="0.96012" stroke-miterlimit="10" stroke-linecap="round" stroke-linejoin="round" d="
				M420.29334,443.80729L420.29334,443.56727L419.81328,443.56727L419.81328,443.32724L419.33322,443.32724L419.33322,443.08722
				L419.09318,443.08722L419.09318,442.84719L418.61312,442.84719L418.61312,442.60717L418.13306,442.60717L418.13306,442.36714
				L417.653,442.36714L417.653,442.12711L417.17294,442.12711L417.17294,441.88709L416.93291,441.88709L416.93291,441.40704L416.21282,441.40704
				L416.21282,441.16701L415.73276,441.16701L415.73276,440.92699L415.2527,440.92699L415.2527,440.68696L414.77264,440.68696L414.77264,440.44693
				L414.53261,440.44693L414.53261,440.20691L414.05254,440.20691L414.05254,439.96688L413.57248,439.96688L413.57248,439.72686
				L413.09242,439.72686L413.09242,439.48683L412.37233,439.48683L412.37233,439.24681L412.1323,439.24681L412.1323,439.00678L411.65224,439.00678
				L411.65224,438.76676L411.17218,438.76676L411.17218,438.52673L410.69212,438.52673L410.69212,438.2867L410.21206,438.2867L410.21206,438.04668
				L409.97203,438.04668L409.97203,437.56663L409.49197,437.56663L409.49197,437.3266L408.77187,437.3266L408.77187,437.08658L408.29181,437.08658
				L408.29181,436.84655L407.81175,436.84655L407.81175,436.60653L407.33169,436.60653L407.33169,436.3665L406.85163,436.3665L406.85163,436.12647
				L406.37157,436.12647L406.37157,435.88645L405.89151,435.88645L405.89151,435.64642L405.17142,435.64642L405.17142,435.4064L
				404.69136,435.4064L404.69136,435.16637L404.45133,435.16637L404.45133,434.92635L403.97127,434.92635L403.97127,434.68632L403.4912,434.68632
				L403.4912,434.4463L403.01114,434.4463L403.01114,434.20627L402.53108,434.20627L402.53108,433.72622L402.05102,433.72622L402.05102,433.48619
				L401.33093,433.48619L401.33093,433.24617L400.85087,433.24617L400.85087,433.00614L400.37081,433.00614L400.37081,432.76612
				L399.89075,432.76612L399.89075,432.52609L399.41069,432.52609L399.41069,432.28607L398.93063,432.28607L398.93063,432.04604
				L398.45057,432.04604L398.45057,431.80601L397.9705,431.80601L397.9705,431.56599L397.25041,431.56599L397.25041,431.32596L396.77035,431.32596
				L396.77035,431.08594L396.29029,431.08594L396.29029,430.84591L396.05026,430.84591L396.05026,430.60589L395.5702,430.60589L
				395.5702,430.36586L395.09014,430.36586L395.09014,429.88581L394.61008,429.88581L394.61008,429.64578L393.64996,429.64578L393.64996,429.40576
				L393.16989,429.40576L393.16989,429.16573L392.4498,429.16573L392.4498,428.92571L391.96974,428.92571L391.96974,428.68568L391.48968,428.68568
				L391.48968,428.44566L390.76959,428.44566L390.76959,428.20563L390.0495,428.20563L390.0495,427.9656L389.80947,427.9656L389.80947,428.20563
				L389.56944,428.20563L389.56944,428.44566L389.32941,428.44566L389.32941,428.68568L389.08938,428.68568L389.08938,428.92571
				L388.84935,428.92571L388.84935,429.16573L388.60932,429.16573L388.60932,429.40576L388.36929,429.40576L388.36929,429.64578
				L388.12926,429.64578L388.12926,429.88581L387.88922,429.88581L387.88922,430.60589L387.64919,430.60589L387.64919,430.84591
				L387.40916,430.84591L387.40916,431.08594L387.16913,431.08594L387.16913,431.32596L386.9291,431.32596L386.9291,431.56599L386.68907,431.56599
				L386.68907,431.80601L386.20901,431.80601L386.20901,432.04604L385.96898,432.04604L385.96898,432.28607L385.72895,432.28607
				L385.72895,432.52609L385.48892,432.52609L385.48892,432.76612L385.24889,432.76612L385.24889,433.00614L385.00886,433.00614
				L385.00886,433.24617L384.76883,433.24617L384.76883,433.48619L384.5288,433.48619L384.5288,433.72622L384.28877,433.72622L384.28877,434.4463
				L384.04874,434.4463L384.04874,434.68632L383.80871,434.68632L383.80871,434.92635L383.56868,434.92635L383.56868,435.16637L
				383.32865,435.16637L383.32865,435.4064L383.08862,435.4064L383.08862,435.64642L382.84859,435.64642L382.84859,435.88645L382.36852,435.88645
				L382.36852,436.12647L382.12849,436.12647L382.12849,436.3665L381.88846,436.3665L381.88846,436.60653L381.64843,436.60653L381.64843,436.84655
				L381.4084,436.84655L381.4084,437.08658L381.16837,437.08658L381.16837,437.3266L380.92834,437.3266L380.92834,437.56663L380.68831,437.56663
				L380.68831,438.04668L380.44828,438.04668L380.44828,438.52673L380.20825,438.52673L380.20825,438.76676L379.96822,438.76676
				L379.96822,439.00678L379.72819,439.00678L379.72819,439.24681L379.48816,439.24681L379.48816,439.48683L379.24813,439.48683
				L379.24813,439.72686L379.0081,439.72686L379.0081,439.96688L378.52804,439.96688L378.52804,440.20691L378.28801,440.20691L378.28801,440.44693
				L378.04798,440.44693L378.04798,440.68696L377.80795,440.68696L377.80795,440.92699L377.56791,440.92699L377.56791,441.40704
				L377.32788,441.40704L377.32788,441.88709L377.08785,441.88709L377.08785,442.12711L376.84782,442.12711L376.84782,442.60717
				L376.60779,442.60717L376.60779,442.84719L376.36776,442.84719L376.36776,443.08722L376.12773,443.08722L376.12773,443.32724
				L375.8877,443.32724L375.8877,443.80729L375.64767,443.80729L375.64767,444.04732L375.40764,444.04732L375.40764,444.28734L374.92758,444.28734
				L374.92758,444.52737L374.68755,444.52737L374.68755,445.00742L374.44752,445.00742L374.44752,445.24745L374.20749,445.24745
				L374.20749,445.7275L373.96746,445.7275L373.96746,445.96752L373.72743,445.96752L373.72743,446.44757L373.4874,446.44757L373.4874,446.6876
				L373.24737,446.6876L373.24737,446.92763L373.00734,446.92763L373.00734,447.16765L372.76731,447.16765L372.76731,447.6477L372.52728,447.6477
				L372.52728,447.88773L372.28724,447.88773L372.28724,448.12775L372.04721,448.12775L372.04721,448.6078L371.80718,448.6078L371.80718,448.84783
				L371.56715,448.84783L371.56715,449.32788L371.08709,449.32788L371.08709,449.56791L370.84706,449.56791L370.84706,450.04796
				L370.60703,450.04796L370.60703,450.28798L370.367,450.28798L370.367,450.52801L370.12697,450.52801L370.12697,451.00806L369.88694,451.00806
				L369.88694,451.24809L369.64691,451.24809L369.64691,451.48811L369.40688,451.48811L369.40688,451.72814L369.16685,451.72814
				L369.16685,452.20819L368.92682,452.20819L368.92682,452.44821L368.68679,452.44821L368.68679,452.68824L368.44676,452.68824
				L368.44676,453.40832L368.20673,453.40832L368.20673,453.64834L367.9667,453.64834L367.9667,453.88837L367.72667,453.88837L367.72667,454.12839
				L367.24661,454.12839L367.24661,454.60844L367.00657,454.60844L367.00657,454.84847L366.76654,454.84847L366.76654,455.0885L
				366.52651,455.0885L366.52651,455.56855L366.28648,455.56855L366.28648,455.80857L366.04645,455.80857L366.04645,456.0486L365.80642,456.0486
				L365.80642,456.52865L365.56639,456.52865L365.56639,457.0087L365.32636,457.0087L365.32636,457.24873L365.08633,457.24873L365.08633,457.48875
				L364.8463,457.48875L364.8463,457.72878L364.60627,457.72878L364.60627,458.20883L364.36624,458.20883L364.36624,458.44885L364.12621,458.44885
				L364.12621,458.68888L363.88618,458.68888L363.88618,458.9289L363.40612,458.9289L363.40612,459.16893L363.16609,459.16893L363.16609,459.40896
				L362.92606,459.40896L362.92606,459.64898L362.68603,459.64898L362.68603,459.88901L362.446,459.88901L362.446,460.12903L362.20597,460.12903
				L362.20597,460.36906L361.96594,460.36906L361.96594,461.08913L361.7259,461.08913L361.7259,461.32916L361.48587,461.32916L361.48587,461.56919
				L361.24584,461.56919L361.24584,461.80921L361.00581,461.80921L361.00581,462.04924L360.76578,462.04924L360.76578,462.28926
				L360.52575,462.28926L360.52575,462.52929L360.28572,462.52929L360.28572,462.76931L359.80566,462.76931L359.80566,463.00934
				L359.56563,463.00934L359.56563,463.24936L359.3256,463.24936L359.3256,463.48939L359.08557,463.48939L359.08557,463.96944L358.84554,463.96944
				L358.84554,464.44949L358.60551,464.44949L358.60551,464.68952L358.36548,464.68952L358.36548,464.92954L358.12545,464.92954
				L358.12545,465.16957L357.88542,465.16957L357.88542,465.40959L357.64539,465.40959L357.64539,465.64962L357.40536,465.64962
				L357.40536,465.88965L357.16533,465.88965L357.16533,466.12967L356.9253,466.12967L356.9253,466.3697L356.68526,466.3697L356.68526,466.84975
				L356.44523,466.84975L356.44523,467.08977L355.96517,467.08977L355.96517,467.3298L355.72514,467.3298L355.72514,467.56983L355.48511,467.56983
				L355.48511,467.80985L355.24508,467.80985L355.24508,468.2899L355.00505,468.2899L355.00505,468.52993L354.52499,468.52993L354.52499,468.2899
				L354.28496,468.2899L354.28496,467.80985L354.04493,467.80985L354.04493,467.56983L353.8049,467.56983L353.8049,467.3298L353.56487,467.3298
				L353.56487,467.08977L353.08481,467.08977L353.08481,466.84975L353.56487,466.84975L353.56487,466.3697L353.32484,466.3697L353.32484,466.12967
				L352.84478,466.12967L352.84478,465.88965L352.60475,465.88965L352.60475,465.64962L351.88466,465.64962L351.88466,465.40959
				L351.64463,465.40959L351.64463,465.16957L351.40459,465.16957L351.40459,464.92954L350.92453,464.92954L350.92453,464.68952
				L350.6845,464.68952L350.6845,464.44949L350.44447,464.44949L350.44447,463.96944L349.96441,463.96944L349.96441,463.72942L349.72438,463.72942
				L349.72438,463.48939L349.24432,463.48939L349.24432,463.24936L349.00429,463.24936L349.00429,463.00934L348.76426,463.00934
				L348.76426,462.76931L348.04417,462.76931L348.04417,462.52929L347.80414,462.52929L347.80414,462.28926L347.56411,462.28926
				L347.56411,462.04924L347.08405,462.04924L347.08405,461.80921L346.84402,461.80921L346.84402,461.56919L346.36396,461.56919
				L346.36396,461.32916L346.12392,461.32916L346.12392,461.08913L345.88389,461.08913L345.88389,460.84911L345.40383,460.84911
				L345.40383,460.36906L345.1638,460.36906L345.1638,459.88901L344.92377,459.88901L344.92377,459.64898L344.44371,459.64898L344.44371,459.16893
				L344.20368,459.16893L344.20368,458.68888L343.96365,458.68888L343.96365,458.44885L343.72362,458.44885L343.72362,457.9688L
				343.48359,457.9688L343.48359,457.48875L343.24356,457.48875L343.24356,457.0087L343.00353,457.0087L343.00353,456.52865L342.7635,456.52865
				L342.7635,456.0486L342.52347,456.0486L342.52347,455.56855L342.28344,455.56855L342.28344,455.32852L342.04341,455.32852L342.04341,454.84847
				L341.80338,454.84847L341.80338,454.36842L341.56335,454.36842L341.56335,454.12839L341.32332,454.12839L341.32332,453.16829
				L340.84325,453.16829L340.84325,452.20819L340.60322,452.20819L340.60322,451.48811L340.36319,451.48811L340.36319,450.76803
				L340.12316,450.76803L340.12316,449.80793L339.88313,449.80793L339.88313,448.84783L339.6431,448.84783L339.6431,448.12775L339.40307,448.12775
				L339.40307,447.40768L339.16304,447.40768L339.16304,446.44757L338.92301,446.44757L338.92301,445.96752L338.44295,445.96752
				L338.44295,445.7275L336.76274,445.7275L336.76274,445.24745L335.80261,445.24745L335.80261,445.7275L335.56258,445.7275L335.56258,445.96752
				L335.32255,445.96752L335.32255,446.20755L335.08252,446.20755L335.08252,446.6876L334.84249,446.6876L334.84249,446.92763L334.60246,446.92763
				L334.60246,447.16765L334.36243,447.16765L334.36243,447.6477L334.1224,447.6477L334.1224,447.88773L333.88237,447.88773L333.88237,448.12775
				L333.64234,448.12775L333.64234,448.6078L333.16228,448.6078L333.16228,448.84783L332.92225,448.84783L332.92225,449.56791L332.68222,449.56791
				L332.68222,449.80793L332.44219,449.80793L332.44219,450.04796L331.96213,450.04796L331.96213,449.80793L331.7221,449.80793L
				331.7221,449.56791L331.24204,449.56791L331.24204,449.32788L331.00201,449.32788L331.00201,448.84783L330.76198,448.84783L330.76198,448.6078
				L330.28191,448.6078L330.28191,448.36778L330.04188,448.36778L330.04188,448.12775L329.32179,448.12775L329.32179,447.88773L
				329.08176,447.88773L329.08176,446.20755L329.32179,446.20755L329.32179,443.32724L329.80185,443.32724L329.80185,442.12711L
				329.32179,442.12711L329.32179,440.20691L329.08176,440.20691L329.08176,438.52673L328.84173,438.52673L328.84173,436.60653L
				328.6017,436.60653L328.6017,436.3665L328.36167,436.3665L328.36167,436.12647L328.12164,436.12647L328.12164,435.88645L327.88161,435.88645
				L327.88161,435.4064L327.64158,435.4064L327.64158,435.16637L327.40155,435.16637L327.40155,434.92635L327.16152,434.92635L327.16152,434.68632
				L326.92149,434.68632L326.92149,434.4463L326.68146,434.4463L326.68146,434.20627L326.44143,434.20627L326.44143,433.72622L326.2014,433.72622
				L326.2014,433.24617L325.72134,433.24617L325.72134,433.00614L325.48131,433.00614L325.48131,432.76612L325.24127,432.76612L
				325.24127,432.52609L325.00124,432.52609L325.00124,432.28607L324.52118,432.28607L324.52118,432.04604L324.28115,432.04604L
				324.28115,431.80601L323.80109,431.80601L323.80109,431.56599L323.32103,431.56599L323.32103,431.32596L323.081,431.32596L323.081,431.08594
				L322.60094,431.08594L322.60094,430.84591L322.36091,430.84591L322.36091,430.60589L321.64082,430.60589L321.64082,430.36586
				L321.40079,430.36586L321.40079,429.88581L320.92073,429.88581L320.92073,429.64578L320.6807,429.64578L320.6807,429.40576L320.20063,429.40576
				L320.20063,429.16573L319.9606,429.16573L319.9606,428.92571L319.72057,428.92571L319.72057,428.68568L319.24051,428.68568L319.24051,428.44566
				L319.00048,428.44566L319.00048,428.20563L318.76045,428.20563L318.76045,427.9656L318.04036,427.9656L318.04036,427.72558L317.80033,427.72558
				L317.80033,427.48555L317.5603,427.48555L317.5603,427.24553L317.32027,427.24553L317.32027,427.0055L316.84021,427.0055L316.84021,426.76548
				L316.60018,426.76548L316.60018,426.28543L316.36015,426.28543L316.36015,426.0454L315.88009,426.0454L315.88009,425.80537L315.64006,425.80537
				L315.64006,425.56535L315.40003,425.56535L315.40003,425.32532L315.16,425.32532L315.16,425.0853L314.67993,425.0853L314.67993,424.84527
				L314.19987,424.84527L314.19987,424.60525L313.95984,424.60525L313.95984,424.36522L313.71981,424.36522L313.71981,424.1252L
				313.23975,424.1252L313.23975,423.88517L312.99972,423.88517L312.99972,423.64514L312.75969,423.64514L312.75969,423.40512L312.27963,423.40512
				L312.27963,423.16509L312.0396,423.16509L312.0396,422.92507L311.79957,422.92507L311.79957,422.44502L311.55954,422.44502L311.55954,422.20499
				L311.07948,422.20499L311.07948,421.96497L310.83945,421.96497L310.83945,421.72494L310.35939,421.72494L310.35939,421.48491
				L309.87933,421.48491L309.87933,421.24489L309.63929,421.24489L309.63929,421.00486L309.39926,421.00486L309.39926,420.76484
				L309.15923,420.76484L309.15923,420.52481L308.67917,420.52481L308.67917,420.28479L308.43914,420.28479L308.43914,420.04476
				L308.19911,420.04476L308.19911,419.80474L307.71905,419.80474L307.71905,419.56471L307.47902,419.56471L307.47902,419.32468
				L307.23899,419.32468L307.23899,419.08466L306.75893,419.08466L306.75893,418.60461L306.5189,418.60461L306.5189,418.36458L306.75893,418.36458
				L306.75893,418.12456L307.23899,418.12456L307.23899,417.64451L307.47902,417.64451L307.47902,417.40448L307.71905,417.40448
				L307.71905,416.92443L307.95908,416.92443L307.95908,416.6844L308.19911,416.6844L308.19911,416.44438L308.43914,416.44438L308.43914,415.96433
				L308.67917,415.96433L308.67917,415.7243L308.9192,415.7243L308.9192,415.48427L309.15923,415.48427L309.15923,414.7642L309.39926,414.7642
				L309.39926,414.52417L309.63929,414.52417L309.63929,414.04412L309.87933,414.04412L309.87933,413.8041L310.11936,413.8041L310.11936,413.56407
				L310.35939,413.56407L310.35939,413.08402L310.83945,413.08402L310.83945,412.84399L311.07948,412.84399L311.07948,412.36394
				L311.31951,412.36394L311.31951,412.12392L311.55954,412.12392L311.55954,411.88389L311.79957,411.88389L311.79957,411.16381
				L312.0396,411.16381L312.0396,410.92379L312.27963,410.92379L312.27963,410.68376L312.51966,410.68376L312.51966,410.20371L312.75969,410.20371
				L312.75969,409.96369L312.99972,409.96369L312.99972,409.48364L313.23975,409.48364L313.23975,409.24361L313.47978,409.24361
				L313.47978,409.00358L313.71981,409.00358L313.71981,408.52353L313.95984,408.52353L313.95984,408.28351L314.19987,408.28351
				L314.19987,407.80346L314.67993,407.80346L314.67993,407.32341L314.91996,407.32341L314.91996,407.08338L315.16,407.08338L315.16,406.60333
				L315.40003,406.60333L315.40003,406.3633L315.64006,406.3633L315.64006,405.88325L315.88009,405.88325L315.88009,405.64323L316.12012,405.64323
				L316.12012,405.4032L316.36015,405.4032L316.36015,404.92315L316.60018,404.92315L316.60018,404.68312L316.84021,404.68312L316.84021,404.4431
				L317.08024,404.4431L317.08024,403.96305L317.32027,403.96305L317.32027,403.483L317.5603,403.483L317.5603,403.00294L317.80033,403.00294
				L317.80033,402.76292L318.04036,402.76292L318.04036,402.52289L318.52042,402.52289L318.52042,402.04284L318.76045,402.04284
				L318.76045,401.80282L319.00048,401.80282L319.00048,401.32277L319.24051,401.32277L319.24051,401.08274L318.76045,401.08274
				L318.76045,400.84271L318.04036,400.84271L318.04036,400.60269L317.80033,400.60269L317.80033,400.36266L317.32027,400.36266
				L317.32027,400.12264L316.84021,400.12264L316.84021,399.64259L316.36015,399.64259L316.36015,399.40256L316.12012,399.40256
				L316.12012,399.16254L315.64006,399.16254L315.64006,398.92251L315.16,398.92251L315.16,398.68248L314.67993,398.68248L314.67993,398.44246
				L314.19987,398.44246L314.19987,398.20243L313.71981,398.20243L313.71981,397.96241L313.23975,397.96241L313.23975,397.72238
				L312.75969,397.72238L312.75969,397.48236L312.51966,397.48236L312.51966,397.24233L312.0396,397.24233L312.0396,397.00231L311.55954,397.00231
				L311.55954,396.76228L311.07948,396.76228L311.07948,396.52225L310.83945,396.52225L310.83945,396.28223L310.11936,396.28223
				L310.11936,395.80218L309.63929,395.80218L309.63929,395.56215L309.39926,395.56215L309.39926,395.32213L308.9192,395.32213L
				308.9192,395.0821L308.43914,395.0821L308.43914,394.84208L307.95908,394.84208L307.95908,394.60205L307.71905,394.60205L307.71905,394.36202
				L307.23899,394.36202L307.23899,394.122L306.5189,394.122L306.5189,393.88197L306.03884,393.88197L306.03884,393.64195L305.79881,393.64195
				L305.79881,393.40192L305.31875,393.40192L305.31875,393.1619L304.83869,393.1619L304.83869,392.92187L304.35862,392.92187L304.35862,392.68185
				L304.11859,392.68185L304.11859,392.20179L303.63853,392.20179L303.63853,391.96177L302.91844,391.96177L302.91844,391.72174
				L302.43838,391.72174L302.43838,391.48172L302.19835,391.48172L302.19835,391.24169L301.71829,391.24169L301.71829,391.00167
				L301.23823,391.00167L301.23823,390.76164L300.75817,390.76164L300.75817,390.52161L300.51814,390.52161L300.51814,390.28159
				L300.03808,390.28159L300.03808,390.04156L299.55802,390.04156L299.55802,389.80154L298.83792,389.80154L298.83792,389.56151
				L298.59789,389.56151L298.59789,389.32149L298.11783,389.32149L298.11783,389.08146L297.63777,389.08146L297.63777,388.84144
				L297.15771,388.84144L297.15771,388.36138L296.91768,388.36138L296.91768,388.12136L296.43762,388.12136L296.43762,387.88133
				L295.95756,387.88133L295.95756,387.64131L295.23747,387.64131L295.23747,387.40128L294.99744,387.40128L294.99744,387.16126
				L294.51738,387.16126L294.51738,386.92123L294.03731,386.92123L294.03731,386.68121L293.55725,386.68121L293.55725,386.44118
				L293.31722,386.44118L293.31722,386.20115L292.83716,386.20115L292.83716,385.96113L292.3571,385.96113L292.3571,385.7211L291.63701,385.7211
				L291.63701,385.48108L291.39698,385.48108L291.39698,385.24105L290.91692,385.24105L290.91692,385.00103L290.43686,385.00103
				L290.43686,384.52098L289.9568,384.52098L289.9568,384.28095L289.71677,384.28095L289.71677,384.04092L289.23671,384.04092L289.23671,383.8009
				L288.75664,383.8009L288.75664,383.56087L288.27658,383.56087L288.27658,383.32085L287.79652,383.32085L287.79652,383.08082L
				287.31646,383.08082L287.31646,382.8408L286.8364,382.8408L286.8364,382.60077L286.35634,382.60077L286.35634,382.36075L286.11631,382.36075
				L286.11631,382.12072L285.63625,382.12072L285.63625,381.88069L285.15619,381.88069L285.15619,381.64067L284.67613,381.64067
				L284.67613,381.40064L284.4361,381.40064L284.4361,381.16062L283.716,381.16062L283.716,380.68057L283.23594,380.68057L283.23594,380.44054
				L282.75588,380.44054L282.75588,380.20051L282.51585,380.20051L282.51585,379.96049L282.03579,379.96049L282.03579,379.72046
				L281.55573,379.72046L281.55573,379.48044L281.07567,379.48044L281.07567,379.24041L280.83564,379.24041L280.83564,379.00039
				L280.11555,379.00039L280.11555,378.76036L279.63549,378.76036L279.63549,378.52034L279.15543,378.52034L279.15543,378.28031
				L278.9154,378.28031L278.9154,378.04028L278.43533,378.04028L278.43533,377.80026L277.95527,377.80026L277.95527,377.56023L277.71524,377.56023
				L277.71524,377.08018L277.23518,377.08018L277.23518,376.84016L276.51509,376.84016L276.51509,376.60013L276.03503,376.60013
				L276.03503,376.36011L275.795,376.36011L275.795,376.12008L275.31494,376.12008L275.31494,375.88005L274.83488,375.88005L274.83488,375.64003
				L274.59485,375.64003L274.59485,375.4L274.11479,375.4L274.11479,375.15998L273.63473,375.15998L273.63473,374.91995L273.3947,374.91995
				L273.3947,374.67993L272.6746,374.67993L272.6746,374.4399L272.19454,374.4399L272.19454,374.19988L271.95451,374.19988L271.95451,373.95985
				L271.71448,373.95985L271.71448,373.23977L271.47445,373.23977L271.47445,372.99975L271.23442,372.99975L271.23442,372.75972
				L270.99439,372.75972L270.99439,372.27967"/>
			<path clip-path="url(#SVG_CP_2)" fill="none" stroke="#999999" stroke-width="0.96012" stroke-miterlimit="10" stroke-linecap="round" stroke-linejoin="round" d="
				M270.99439,372.27967L270.75436,372.27967L270.75436,372.03965L270.51433,372.03965L270.51433,371.79962L270.2743,371.79962L
				270.2743,371.55959L270.03427,371.55959L270.03427,371.07954L269.79424,371.07954L269.79424,370.83952L269.55421,370.83952L269.55421,370.59949
				L269.31418,370.59949L269.31418,370.35947L268.83412,370.35947L268.83412,369.87942L268.59409,369.87942L268.59409,369.39936
				L268.35406,369.39936L268.35406,369.15934L268.11402,369.15934L268.11402,368.91931L267.87399,368.91931L267.87399,368.43926
				L267.63396,368.43926L267.63396,368.19924L267.39393,368.19924L267.39393,367.95921L267.1539,367.95921L267.1539,367.71918L266.91387,367.71918
				L266.91387,367.23913L266.67384,367.23913L266.67384,366.99911L266.43381,366.99911L266.43381,366.75908L266.19378,366.75908
				L266.19378,366.51906L265.95375,366.51906L265.95375,366.03901L265.71372,366.03901L265.71372,365.55895L265.47369,365.55895
				L265.47369,365.31893L264.99363,365.31893L264.99363,365.0789L264.7536,365.0789L264.7536,364.83888L264.51357,364.83888L264.51357,364.59885
				L264.27354,364.59885L264.27354,364.35883L264.03351,364.35883L264.03351,364.1188L263.79348,364.1188L263.79348,363.87878L263.55345,363.87878
				L263.55345,363.63875L263.07339,363.63875L263.07339,363.39872L262.83335,363.39872L262.83335,363.1587L262.59332,363.1587L262.59332,362.91867
				L262.35329,362.91867L262.35329,362.67865L262.11326,362.67865L262.11326,362.43862L261.6332,362.43862L261.6332,362.1986L261.15314,362.1986
				L261.15314,361.71855L260.91311,361.71855L260.91311,361.47852L260.67308,361.47852L260.67308,361.23849L260.43305,361.23849
				L260.43305,360.99847L259.95299,360.99847L259.95299,360.75844L259.71296,360.75844L259.71296,360.51842L259.47293,360.51842
				L259.47293,360.27839L259.2329,360.27839L259.2329,360.03837L258.99287,360.03837L258.99287,359.79834L258.51281,359.79834L258.51281,359.55832
				L258.27278,359.55832L258.27278,359.31829L258.03275,359.31829L258.03275,359.07826L257.55268,359.07826L257.55268,358.83824
				L257.31265,358.83824L257.31265,358.59821L256.83259,358.59821L256.83259,358.11816L256.59256,358.11816L256.59256,357.87814
				L256.35253,357.87814L256.35253,357.63811L256.1125,357.63811L256.1125,357.39809L255.87247,357.39809L255.87247,357.15806L255.39241,357.15806
				L255.39241,356.91803L255.15238,356.91803L255.15238,356.67801L254.91235,356.67801L254.91235,356.43798L254.67232,356.43798
				L254.67232,356.19796L254.43229,356.19796L254.43229,355.95793L253.7122,355.95793L253.7122,355.71791L253.47217,355.71791L253.47217,355.47788
				L253.23214,355.47788L253.23214,355.23785L252.99211,355.23785L252.99211,354.99783L252.75208,354.99783L252.75208,354.7578L
				252.27201,354.7578L252.27201,354.27775L252.03198,354.27775L252.03198,354.03773L251.79195,354.03773L251.79195,353.7977L251.55192,353.7977
				L251.55192,353.55768L251.31189,353.55768L251.31189,353.31765L250.83183,353.31765L250.83183,353.07762L250.5918,353.07762L
				250.5918,352.8376L250.35177,352.8376L250.35177,352.59757L249.87171,352.59757L249.87171,352.35755L249.39165,352.35755L249.39165,352.11752
				L249.15162,352.11752L249.15162,351.8775L248.91159,351.8775L248.91159,351.63747L248.67156,351.63747L248.67156,351.39745L248.43153,351.39745
				L248.43153,351.15742L247.95147,351.15742L247.95147,350.91739L247.71144,350.91739L247.71144,350.43734L247.47141,350.43734
				L247.47141,350.19732L247.23137,350.19732L247.23137,349.95729L246.99134,349.95729L246.99134,349.71727L246.51128,349.71727
				L246.51128,349.47724L246.03122,349.47724L246.03122,349.23722L245.55116,349.23722L245.55116,348.99719L245.0711,348.99719L
				245.0711,348.75716L244.59104,348.75716L244.59104,348.51714L244.11098,348.51714L244.11098,348.27711L243.63092,348.27711L243.63092,348.03709
				L243.15086,348.03709L243.15086,347.79706L242.43077,347.79706L242.43077,347.55704L241.9507,347.55704L241.9507,347.31701L241.47064,347.31701
				L241.47064,347.07699L240.99058,347.07699L240.99058,346.59693L240.51052,346.59693L240.51052,346.35691L240.03046,346.35691
				L240.03046,346.11688L239.5504,346.11688L239.5504,345.87686L239.07034,345.87686L239.07034,345.63683L238.35025,345.63683L238.35025,345.39681
				L237.87019,345.39681L237.87019,345.15678L237.39013,345.15678L237.39013,344.91676L236.91007,344.91676L236.91007,344.67673
				L236.43,344.67673L236.43,344.4367L235.94994,344.4367L235.94994,344.19668L235.46988,344.19668L235.46988,343.95665L234.74979,343.95665
				L234.74979,343.71663L234.26973,343.71663L234.26973,343.4766L233.78967,343.4766L233.78967,342.99655L233.54964,342.99655L233.54964,342.75652
				L233.06958,342.75652L233.06958,342.5165L232.58952,342.5165L232.58952,342.27647L232.10946,342.27647L232.10946,342.03645L231.62939,342.03645
				L231.62939,341.79642L230.9093,341.79642L230.9093,341.5564L230.42924,341.5564L230.42924,341.31637L229.94918,341.31637L229.94918,341.07635
				L229.46912,341.07635L229.46912,340.83632L228.98906,340.83632L228.98906,340.59629L228.509,340.59629L228.509,340.35627L228.02894,340.35627
				L228.02894,340.11624L227.54888,340.11624L227.54888,339.87622L226.82879,339.87622L226.82879,339.63619L226.34872,339.63619
				L226.34872,339.15614L225.86866,339.15614L225.86866,338.91612L225.3886,338.91612L225.3886,338.67609L224.90854,338.67609L224.90854,338.43606
				L224.42848,338.43606L224.42848,338.19604L223.94842,338.19604L223.94842,337.95601L223.22833,337.95601L223.22833,337.71599
				L222.74827,337.71599L222.74827,337.47596L222.26821,337.47596L222.26821,337.23594L221.78815,337.23594L221.78815,336.99591
				L221.30809,336.99591L221.30809,336.75589L220.82802,336.75589L220.82802,336.51586L220.34796,336.51586L220.34796,336.27583
				L219.62787,336.27583L219.62787,336.03581L219.38784,336.03581L219.38784,335.79578L218.90778,335.79578L218.90778,335.31573
				L218.42772,335.31573L218.42772,335.07571L217.94766,335.07571L217.94766,334.83568L217.4676,334.83568L217.4676,334.59566L216.98754,334.59566
				L216.98754,334.35563L216.50748,334.35563L216.50748,334.1156L215.78738,334.1156L215.78738,333.87558L215.30732,333.87558L215.30732,333.63555
				L214.82726,333.63555L214.82726,333.39553L214.3472,333.39553L214.3472,333.1555L213.86714,333.1555L213.86714,332.91548L213.38708,332.91548
				L213.38708,332.67545L212.90702,332.67545L212.90702,332.43543L212.42696,332.43543L212.42696,332.1954L211.70687,332.1954L211.70687,331.95537
				L211.22681,331.95537L211.22681,331.47532L210.74674,331.47532L210.74674,331.2353L210.26668,331.2353L210.26668,330.99527L209.78662,330.99527
				L209.78662,330.75525L209.30656,330.75525L209.30656,330.51522L208.8265,330.51522L208.8265,330.27519L208.10641,330.27519L208.10641,330.03517
				L207.62635,330.03517L207.62635,329.79514L207.14629,329.79514L207.14629,329.55512L206.66623,329.55512L206.66623,329.31509
				L206.18617,329.31509L206.18617,329.07507L205.70611,329.07507L205.70611,328.83504L205.46607,328.83504L205.46607,328.59502
				L204.98601,328.59502L204.98601,328.35499L204.26592,328.35499L204.26592,327.87494L203.78586,327.87494L203.78586,327.63491
				L203.3058,327.63491L203.3058,327.39489L202.82574,327.39489L202.82574,327.15486L202.34568,327.15486L202.34568,326.91484L201.86562,326.91484
				L201.86562,326.67481L201.38556,326.67481L201.38556,326.43479L200.66547,326.43479L200.66547,326.19476L200.1854,326.19476L
				200.1854,325.95473L199.70534,325.95473L199.70534,325.71471L199.22528,325.71471L199.22528,325.47468L198.74522,325.47468L198.74522,325.23466
				L198.26516,325.23466L198.26516,324.99463L197.7851,324.99463L197.7851,324.75461L197.30504,324.75461L197.30504,324.51458L196.58495,324.51458
				L196.58495,324.03453L196.10489,324.03453L196.10489,323.7945L195.62483,323.7945L195.62483,323.55448L195.14476,323.55448L195.14476,323.31445
				L194.6647,323.31445L194.6647,323.07443L194.18464,323.07443L194.18464,322.8344L193.70458,322.8344L193.70458,322.59438L192.98449,322.59438
				L192.98449,322.35435L192.50443,322.35435L192.50443,322.11433L192.02437,322.11433L192.02437,321.8743L191.54431,321.8743L191.54431,321.63427
				L191.30428,321.63427L191.30428,321.39425L190.82422,321.39425L190.82422,321.15422L190.34416,321.15422L190.34416,320.9142L
				189.86409,320.9142L189.86409,320.67417L189.144,320.67417L189.144,320.19412L188.66394,320.19412L188.66394,319.9541L188.18388,319.9541
				L188.18388,319.71407L187.70382,319.71407L187.70382,319.47404L187.22376,319.47404L187.22376,319.23402L186.7437,319.23402L
				186.7437,318.99399L186.26364,318.99399L186.26364,318.75397L185.54355,318.75397L185.54355,318.51394L185.06349,318.51394L185.06349,318.27392
				L184.58342,318.27392L184.58342,318.03389L184.10336,318.03389L184.10336,317.79386L183.6233,317.79386L183.6233,317.55384L183.14324,317.55384
				L183.14324,317.31381L182.66318,317.31381L182.66318,317.07379L182.18312,317.07379L182.18312,316.83376L181.46303,316.83376
				L181.46303,316.35371L180.98297,316.35371L180.98297,316.11369L180.50291,316.11369L180.50291,315.87366L180.02285,315.87366
				L180.02285,315.63363L179.54278,315.63363L179.54278,315.39361L179.06272,315.39361L179.06272,315.15358L178.58266,315.15358
				L178.58266,314.91356L177.86257,314.91356L177.86257,314.67353L177.38251,314.67353L177.38251,314.43351L176.90245,314.43351
				L176.90245,314.19348L176.66242,314.19348L176.66242,313.95346L176.18236,313.95346L176.18236,313.71343L175.7023,313.71343L
				175.7023,313.4734L175.22224,313.4734L175.22224,313.23338L174.74218,313.23338L174.74218,312.99335L174.02208,312.99335L174.02208,312.5133
				L173.54202,312.5133L173.54202,312.27328L173.06196,312.27328L173.06196,312.03325L172.5819,312.03325L172.5819,311.79323L172.10184,311.79323
				L172.10184,312.03325L171.86181,312.03325L171.86181,312.5133L171.62178,312.5133L171.62178,313.23338L171.38175,313.23338L171.38175,313.71343
				L171.14172,313.71343L171.14172,314.19348L170.90169,314.19348L170.90169,314.43351L170.42163,314.43351L170.42163,314.91356
				L170.1816,314.91356L170.1816,315.39361L169.94157,315.39361L169.94157,315.87366L169.70154,315.87366L169.70154,316.35371L169.46151,316.35371
				L169.46151,317.07379L169.22148,317.07379L169.22148,317.31381L168.98144,317.31381L168.98144,317.79386L168.74141,317.79386
				L168.74141,318.27392L168.50138,318.27392L168.50138,318.75397L168.26135,318.75397L168.26135,319.23402L168.02132,319.23402
				L168.02132,319.71407L167.78129,319.71407L167.78129,319.9541L167.54126,319.9541L167.54126,320.67417L167.30123,320.67417L167.30123,321.15422
				L167.0612,321.15422L167.0612,321.63427L166.58114,321.63427L166.58114,322.11433L166.34111,322.11433L166.34111,322.59438L166.10108,322.59438
				L166.10108,322.8344L165.86105,322.8344L165.86105,323.31445L165.62102,323.31445L165.62102,323.7945L165.38099,323.7945L165.38099,324.51458
				L165.14096,324.51458L165.14096,324.99463L164.90093,324.99463L164.90093,325.47468L164.6609,325.47468L164.6609,325.71471L164.42087,325.71471
				L164.42087,326.19476L164.18084,326.19476L164.18084,326.67481L163.94081,326.67481L163.94081,327.15486L163.70077,327.15486
				L163.70077,327.63491L163.46074,327.63491L163.46074,327.87494L163.22071,327.87494L163.22071,328.59502L162.74065,328.59502
				L162.74065,329.07507L162.50062,329.07507L162.50062,329.55512L162.26059,329.55512L162.26059,330.03517L161.78053,330.03517
				L161.78053,329.79514L161.06044,329.79514L161.06044,329.55512L160.58038,329.55512L160.58038,329.31509L160.10032,329.31509
				L160.10032,329.07507L159.38023,329.07507L159.38023,328.83504L158.66013,328.83504L158.66013,328.59502L157.94004,328.59502
				L157.94004,328.35499L157.45998,328.35499L157.45998,327.87494L156.73989,327.87494L156.73989,327.63491L156.25983,327.63491
				L156.25983,327.39489L155.29971,327.39489L155.29971,327.15486L154.81965,327.15486L154.81965,326.91484L154.33959,326.91484
				L154.33959,326.67481L153.6195,326.67481L153.6195,326.43479L153.13943,326.43479L153.13943,326.19476L152.41934,326.19476L152.41934,325.95473
				L151.93928,325.95473L151.93928,325.71471L150.97916,325.71471L150.97916,325.47468L150.4991,325.47468L150.4991,325.23466L149.77901,325.23466
				L149.77901,324.99463L149.29895,324.99463L149.29895,324.75461L148.81889,324.75461L148.81889,324.51458L148.09879,324.51458
				L148.09879,324.03453L147.3787,324.03453L147.3787,323.7945L146.65861,323.7945L146.65861,323.55448L146.41858,323.55448L146.41858,323.7945
				L145.93852,323.7945L145.93852,324.03453L145.45846,324.03453L145.45846,324.51458L144.9784,324.51458L144.9784,324.75461L144.49834,324.75461
				L144.49834,324.99463L143.53822,324.99463L143.53822,325.23466L143.05815,325.23466L143.05815,325.47468L142.57809,325.47468
				L142.57809,325.71471L142.09803,325.71471L142.09803,325.95473L141.61797,325.95473L141.61797,326.19476L141.13791,326.19476
				L141.13791,326.43479L140.65785,326.43479L140.65785,326.67481L139.93776,326.67481L139.93776,326.91484L139.4577,326.91484L
				139.4577,327.15486L138.97764,327.15486L138.97764,327.39489L138.49758,327.39489L138.49758,327.63491L138.01752,327.63491L138.01752,327.87494
				L137.53745,327.87494L137.53745,328.35499L137.05739,328.35499L137.05739,328.59502L136.3373,328.59502L136.3373,328.83504L136.09727,328.83504
				L136.09727,329.07507L135.61721,329.07507L135.61721,329.31509L135.37718,329.31509L135.37718,329.55512L134.89712,329.55512
				L134.89712,329.79514L134.65709,329.79514L134.65709,330.03517L134.17703,330.03517L134.17703,330.27519L133.937,330.27519L133.937,330.51522
				L133.45694,330.51522L133.45694,330.75525L133.21691,330.75525L133.21691,330.99527L132.97688,330.99527L132.97688,331.2353L
				132.25678,331.2353L132.25678,331.47532L132.01675,331.47532L132.01675,331.95537L131.53669,331.95537L131.53669,332.1954L131.29666,332.1954
				L131.29666,332.43543L130.8166,332.43543L130.8166,332.67545L130.57657,332.67545L130.57657,332.91548L130.09651,332.91548L130.09651,333.1555
				L129.85648,333.1555L129.85648,333.39553L129.37642,333.39553L129.37642,333.63555L129.13639,333.63555L129.13639,333.87558L
				128.4163,333.87558L128.4163,334.1156L128.17627,334.1156L128.17627,334.35563L127.69621,334.35563L127.69621,334.59566L127.45618,334.59566
				L127.45618,334.83568L127.21614,334.83568L127.21614,335.07571L126.73608,335.07571L126.73608,335.31573L126.49605,335.31573
				L126.49605,335.79578L126.01599,335.79578L126.01599,336.03581L125.77596,336.03581L125.77596,336.27583L125.2959,336.27583L
				125.2959,336.51586L124.81584,336.51586L124.81584,336.75589L124.57581,336.75589L124.57581,336.99591L124.09575,336.99591L124.09575,337.23594
				L123.85572,337.23594L123.85572,337.47596L123.61569,337.47596L123.61569,337.71599L123.13563,337.71599L123.13563,337.95601
				L122.8956,337.95601L122.8956,338.19604L122.41554,338.19604L122.41554,338.43606L122.1755,338.43606L122.1755,338.67609L121.93547,338.67609
				L121.93547,338.91612L121.21538,338.91612L121.21538,339.15614L120.97535,339.15614L120.97535,339.63619L120.49529,339.63619
				L120.49529,339.87622L120.25526,339.87622L120.25526,340.11624L120.01523,340.11624L120.01523,340.35627L119.53517,340.35627
				L119.53517,340.59629L119.29514,340.59629L119.29514,340.83632L119.05511,340.83632L119.05511,341.31637L118.81508,341.31637
				L118.81508,341.5564L118.57505,341.5564L118.57505,341.79642L118.33502,341.79642L118.33502,342.03645L118.09499,342.03645L118.09499,342.27647
				L117.85496,342.27647L117.85496,342.5165L117.3749,342.5165L117.3749,342.99655L117.13487,342.99655L117.13487,343.4766L116.89483,343.4766
				L116.89483,343.71663L116.6548,343.71663L116.6548,343.95665L116.41477,343.95665L116.41477,344.19668L116.17474,344.19668L116.17474,344.4367
				L115.93471,344.4367L115.93471,344.67673L115.69468,344.67673L115.69468,345.15678L115.45465,345.15678L115.45465,345.39681L
				115.21462,345.39681L115.21462,345.63683L114.97459,345.63683L114.97459,345.87686L114.73456,345.87686L114.73456,346.11688L
				114.49453,346.11688L114.49453,346.35691L114.2545,346.35691L114.2545,347.07699L114.01447,347.07699L114.01447,347.31701L113.53441,347.31701
				L113.53441,347.55704L113.29438,347.55704L113.29438,347.79706L113.05435,347.79706L113.05435,348.03709L112.81432,348.03709
				L112.81432,348.27711L112.57429,348.27711L112.57429,348.51714L112.33426,348.51714L112.33426,348.99719L112.09423,348.99719
				L112.09423,349.23722L111.8542,349.23722L111.8542,349.47724L111.61416,349.47724L111.61416,349.71727L111.37413,349.71727L111.37413,349.95729
				L111.1341,349.95729L111.1341,350.19732L110.89407,350.19732L110.89407,350.91739L110.65404,350.91739L110.65404,351.15742L110.41401,351.15742
				L110.41401,351.39745L110.17398,351.39745L110.17398,351.63747L109.69392,351.63747L109.69392,351.8775L109.45389,351.8775L109.45389,352.11752
				L109.21386,352.11752L109.21386,352.59757L108.97383,352.59757L108.97383,352.8376L108.7338,352.8376L108.7338,353.07762L108.49377,353.07762
				L108.49377,353.31765L108.25374,353.31765L108.25374,353.55768L108.01371,353.55768L108.01371,353.7977L107.77368,353.7977L107.77368,354.03773
				L107.53365,354.03773L107.53365,354.7578L107.29362,354.7578L107.29362,354.99783L107.05359,354.99783L107.05359,355.23785L106.81356,355.23785
				L106.81356,355.47788L106.57352,355.47788L106.57352,355.71791L106.09346,355.71791L106.09346,355.95793L105.85343,355.95793
				L105.85343,356.43798L105.6134,356.43798L105.6134,356.67801L105.37337,356.67801L105.37337,356.91803L105.13334,356.91803L105.13334,357.15806
				L104.89331,357.15806L104.89331,357.39809L104.65328,357.39809L104.65328,357.63811L104.41325,357.63811L104.41325,358.11816
				L104.17322,358.11816L104.17322,358.59821L103.93319,358.59821L103.93319,358.83824L103.69316,358.83824L103.69316,359.07826
				L103.45313,359.07826L103.45313,359.31829L103.2131,359.31829L103.2131,359.55832L102.97307,359.55832L102.97307,359.79834L102.73304,359.79834
				L102.73304,360.27839L102.25298,360.27839L102.25298,360.51842L102.01295,360.51842L102.01295,360.75844L101.77292,360.75844
				L101.77292,360.99847L101.53289,360.99847L101.53289,361.23849L101.29285,361.23849L101.29285,361.47852L101.05282,361.47852
				L101.05282,362.1986L100.81279,362.1986L100.81279,362.43862L100.57276,362.43862L100.57276,362.67865L100.33273,362.67865L100.33273,362.91867
				L100.0927,362.91867L100.0927,363.1587L99.85267,363.1587L99.85267,363.39872L99.61264,363.39872L99.61264,363.63875L99.37261,363.63875
				L99.37261,364.1188L98.89255,364.1188L98.89255,364.35883L98.41249,364.35883L98.41249,364.59885L97.93243,364.59885L97.93243,364.83888
				L97.45237,364.83888L97.45237,365.0789L97.21234,365.0789L97.21234,365.31893L96.73228,365.31893L96.73228,365.55895L96.49225,365.55895
				L96.49225,366.03901L96.01218,366.03901L96.01218,366.27903L95.77215,366.27903L95.77215,366.51906L95.29209,366.51906L95.29209,366.75908
				L94.572,366.75908L94.572,366.99911L94.33197,366.99911L94.33197,367.71918L94.572,367.71918L94.572,369.39936L95.05206,369.39936
				L95.05206,371.07954L95.29209,371.07954L95.29209,372.75972L95.53212,372.75972L95.53212,374.4399L95.77215,374.4399L95.77215,376.12008
				L96.01218,376.12008L96.01218,377.80026L96.25222,377.80026L96.25222,379.48044L96.49225,379.48044L96.49225,381.16062L96.73228,381.16062
				L96.73228,382.8408L96.97231,382.8408L96.97231,384.28095L97.21234,384.28095L97.21234,386.20115L97.45237,386.20115L97.45237,387.64131
				L97.6924,387.64131L97.6924,389.56151L97.93243,389.56151L97.93243,391.00167L98.17246,391.00167L98.17246,392.92187L98.41249,392.92187
				L98.41249,394.36202L98.89255,394.36202L98.89255,396.28223L99.13258,396.28223L99.13258,397.72238L99.37261,397.72238L99.37261,399.40256
				L99.61264,399.40256L99.61264,401.08274L99.85267,401.08274L99.85267,402.76292L100.0927,402.76292L100.0927,404.4431L100.33273,404.4431
				L100.33273,406.12328L100.57276,406.12328L100.57276,407.80346L100.81279,407.80346L100.81279,409.48364L101.05282,409.48364
				L101.05282,410.92379L101.29285,410.92379L101.29285,412.84399L101.53289,412.84399L101.53289,414.28415L101.77292,414.28415
				L101.77292,414.52417L101.53289,414.52417L101.53289,416.92443L101.29285,416.92443L101.29285,419.56471L101.05282,419.56471
				L101.05282,421.72494L100.81279,421.72494L100.81279,424.1252L100.57276,424.1252L100.57276,426.76548L100.33273,426.76548L100.33273,428.68568
				L95.77215,428.68568L95.77215,428.92571"/>
			<path clip-path="url(#SVG_CP_2)" fill="none" stroke="#999999" stroke-width="0.96012" stroke-miterlimit="10" stroke-linecap="round" stroke-linejoin="round" d="
				M78.48996,429.40576L78.97002,429.40576L78.97002,429.16573L95.77215,429.16573L95.77215,428.92571L100.57276,428.92571L100.57276,429.16573
				L100.81279,429.16573L100.81279,429.40576L101.05282,429.40576L101.05282,429.88581L101.29285,429.88581L101.29285,430.36586
				L101.53289,430.36586L101.53289,430.60589L101.77292,430.60589L101.77292,430.84591L102.01295,430.84591L102.01295,431.08594
				L102.25298,431.08594L102.25298,431.32596L102.73304,431.32596L102.73304,431.56599L102.97307,431.56599L102.97307,431.80601
				L103.2131,431.80601L103.2131,432.04604L103.45313,432.04604L103.45313,432.52609L103.69316,432.52609L103.69316,432.76612L103.93319,432.76612
				L103.93319,433.00614L104.17322,433.00614L104.17322,433.24617L104.41325,433.24617L104.41325,433.48619L104.65328,433.48619
				L104.65328,433.72622L104.89331,433.72622L104.89331,434.20627L105.13334,434.20627L105.13334,434.4463L105.37337,434.4463L105.37337,434.92635
				L105.6134,434.92635L105.6134,435.16637L105.85343,435.16637L105.85343,435.4064L106.09346,435.4064L106.09346,435.64642L106.57352,435.64642
				L106.57352,435.88645L106.81356,435.88645L106.81356,436.12647L107.05359,436.12647L107.05359,436.3665L107.29362,436.3665L107.29362,436.60653
				L107.53365,436.60653L107.53365,436.84655L107.77368,436.84655L107.77368,437.3266L108.01371,437.3266L108.01371,437.56663L108.25374,437.56663
				L108.25374,438.04668L108.49377,438.04668L108.49377,438.2867L108.7338,438.2867L108.7338,438.52673L109.45389,438.52673L109.45389,438.76676
				L111.1341,438.76676L111.1341,439.00678L112.57429,439.00678L112.57429,439.24681L114.01447,439.24681L114.01447,439.48683L115.45465,439.48683
				L115.45465,439.72686L116.89483,439.72686L116.89483,439.96688L118.33502,439.96688L118.33502,440.20691L119.7752,440.20691L
				119.7752,440.44693L121.69544,440.44693L121.69544,440.68696L125.53593,440.68696L125.53593,440.92699L129.13639,440.92699L129.13639,441.16701
				L133.69697,441.16701L133.69697,440.92699L137.05739,440.92699L137.05739,440.68696L140.17779,440.68696L140.17779,440.44693
				L146.17855,440.44693L146.17855,440.68696L149.77901,440.68696L149.77901,440.92699L153.37946,440.92699L153.37946,441.16701
				L156.97992,441.16701L156.97992,441.40704L160.58038,441.40704L160.58038,441.88709L163.70077,441.88709L163.70077,441.40704
				L164.42087,441.40704L164.42087,441.16701L165.38099,441.16701L165.38099,440.92699L166.34111,440.92699L166.34111,440.68696
				L167.54126,440.68696L167.54126,440.44693L168.50138,440.44693L168.50138,440.20691L169.46151,440.20691L169.46151,439.96688
				L170.1816,439.96688L170.1816,439.72686L171.38175,439.72686L171.38175,439.48683L172.34187,439.48683L172.34187,439.24681L173.30199,439.24681
				L173.30199,439.00678L175.22224,439.00678L175.22224,438.76676L177.86257,438.76676L177.86257,438.52673L180.50291,438.52673
				L180.50291,438.2867L181.70306,438.2867L181.70306,438.52673L182.42315,438.52673L182.42315,438.76676L182.90321,438.76676L182.90321,439.00678
				L183.38327,439.00678L183.38327,439.24681L183.86333,439.24681L183.86333,439.48683L184.10336,439.48683L184.10336,439.72686
				L184.58342,439.72686L184.58342,439.96688L185.06349,439.96688L185.06349,440.20691L185.54355,440.20691L185.54355,440.44693
				L186.02361,440.44693L186.02361,440.68696L186.50367,440.68696L186.50367,440.92699L186.98373,440.92699L186.98373,441.16701
				L187.46379,441.16701L187.46379,441.40704L187.70382,441.40704L187.70382,441.88709L188.18388,441.88709L188.18388,442.12711
				L188.66394,442.12711L188.66394,442.36714L189.144,442.36714L189.144,442.84719L189.38403,442.84719L189.38403,443.08722L189.86409,443.08722
				L189.86409,443.56727L190.10413,443.56727L190.10413,444.04732L190.34416,444.04732L190.34416,444.52737L190.58419,444.52737
				L190.58419,445.00742L190.82422,445.00742L190.82422,445.24745L191.06425,445.24745L191.06425,445.96752L191.30428,445.96752
				L191.30428,446.44757L191.54431,446.44757L191.54431,446.92763L191.78434,446.92763L191.78434,447.40768L192.02437,447.40768
				L192.02437,447.6477L192.2644,447.6477L192.2644,448.12775L192.50443,448.12775L192.50443,448.6078L192.74446,448.6078L192.74446,449.32788
				L192.98449,449.32788L192.98449,449.80793L193.46455,449.80793L193.46455,450.04796L193.70458,450.04796L193.70458,450.52801
				L193.94461,450.52801L193.94461,451.00806L194.18464,451.00806L194.18464,451.48811L194.42467,451.48811L194.42467,451.96816
				L194.6647,451.96816L194.6647,452.20819L194.90473,452.20819L194.90473,452.68824L195.14476,452.68824L195.14476,453.40832L195.3848,453.40832
				L195.3848,453.88837L195.62483,453.88837L195.62483,454.36842L195.86486,454.36842L195.86486,454.60844L196.10489,454.60844L
				196.10489,455.0885L196.34492,455.0885L196.34492,455.56855L196.58495,455.56855L196.58495,456.0486L196.82498,456.0486L196.82498,456.52865
				L197.30504,456.52865L197.30504,457.0087L197.54507,457.0087L197.54507,457.48875L197.7851,457.48875L197.7851,457.9688L198.02513,457.9688
				L198.02513,458.68888L198.26516,458.68888L198.26516,459.16893L198.50519,459.16893L198.50519,459.88901L198.74522,459.88901
				L198.74522,460.84911L198.98525,460.84911L198.98525,461.56919L199.22528,461.56919L199.22528,462.28926L199.46531,462.28926
				L199.46531,462.76931L199.70534,462.76931L199.70534,463.48939L199.94537,463.48939L199.94537,464.44949L200.1854,464.44949L
				200.1854,465.16957L200.42544,465.16957L200.42544,465.88965L200.66547,465.88965L200.66547,466.3697L201.14553,466.3697L201.14553,467.08977
				L201.38556,467.08977L201.38556,467.80985L201.62559,467.80985L201.62559,468.2899L201.86562,468.2899L201.86562,468.52993L202.58571,468.52993
				L202.58571,468.76995L203.3058,468.76995L203.3058,469.00998L204.02589,469.00998L204.02589,469.25L204.98601,469.25L204.98601,469.49003
				L205.94614,469.49003L205.94614,469.73006L206.66623,469.73006L206.66623,469.97008L207.38632,469.97008L207.38632,470.21011
				L208.10641,470.21011L208.10641,470.45013L209.06653,470.45013L209.06653,470.69016L209.78662,470.69016L209.78662,470.93018
				L210.50671,470.93018L210.50671,471.17021L211.22681,471.17021L211.22681,471.41023L212.42696,471.41023L212.42696,471.65026
				L213.14705,471.65026L213.14705,472.13031L213.86714,472.13031L213.86714,472.37034L214.58723,472.37034L214.58723,472.61036
				L215.30732,472.61036L215.30732,472.85039L216.26745,472.85039L216.26745,473.09041L216.98754,473.09041L216.98754,473.33044
				L217.94766,473.33044L217.94766,473.57046L218.66775,473.57046L218.66775,473.81049L219.38784,473.81049L219.38784,474.05052
				L220.34796,474.05052L220.34796,474.29054L221.06805,474.29054L221.06805,474.53057L221.78815,474.53057L221.78815,474.77059
				L222.50824,474.77059L222.50824,475.01062L223.46836,475.01062L223.46836,475.25064L224.18845,475.25064L224.18845,475.49067
				L224.42848,475.49067L224.42848,475.97072L224.90854,475.97072L224.90854,476.21075L225.3886,476.21075L225.3886,476.45077L225.86866,476.45077
				L225.86866,476.6908L226.10869,476.6908L226.10869,476.93082L226.58876,476.93082L226.58876,477.17085L227.06882,477.17085L227.06882,477.41087
				L227.78891,477.41087L227.78891,477.6509L228.02894,477.6509L228.02894,477.89092L228.509,477.89092L228.509,478.13095L228.98906,478.13095
				L228.98906,478.37098L229.46912,478.37098L229.46912,478.611L229.70915,478.611L229.70915,478.85103L230.18921,478.85103L230.18921,479.09105
				L230.66927,479.09105L230.66927,479.33108L231.38936,479.33108L231.38936,479.81113L231.62939,479.81113L231.62939,480.05116
				L232.10946,480.05116L232.10946,480.29118L232.58952,480.29118L232.58952,480.53121L233.06958,480.53121L233.06958,480.77123
				L233.30961,480.77123L233.30961,481.01126L233.78967,481.01126L233.78967,481.25128L234.26973,481.25128L234.26973,481.49131
				L234.74979,481.49131L234.74979,481.73133L235.22985,481.73133L235.22985,481.97136L235.70991,481.97136L235.70991,482.21139
				L236.18997,482.21139L236.18997,482.45141L236.67003,482.45141L236.67003,482.69144L236.91007,482.69144L236.91007,482.93146
				L237.39013,482.93146L237.39013,483.41151L237.87019,483.41151L237.87019,483.65154L238.35025,483.65154L238.35025,483.89156
				L238.59028,483.89156L238.59028,484.13159L239.31037,484.13159L239.31037,484.37162L239.79043,484.37162L239.79043,484.61164
				L240.27049,484.61164L240.27049,484.85167L240.51052,484.85167L240.51052,485.09169L240.99058,485.09169L240.99058,485.33172
				L241.47064,485.33172L241.47064,485.57174L241.9507,485.57174L241.9507,485.81177L242.19074,485.81177L242.19074,486.05179L242.91083,486.05179
				L242.91083,486.29182L243.39089,486.29182L243.39089,486.53185L243.87095,486.53185L243.87095,486.77187L244.11098,486.77187
				L244.11098,487.25192L244.59104,487.25192L244.59104,487.49195L245.0711,487.49195L245.0711,487.73197L245.55116,487.73197L245.55116,487.49195
				L246.03122,487.49195L246.03122,487.25192L246.99134,487.25192L246.99134,486.77187L247.47141,486.77187L247.47141,486.53185
				L247.95147,486.53185L247.95147,486.29182L248.43153,486.29182L248.43153,486.05179L248.91159,486.05179L248.91159,485.81177
				L249.63168,485.81177L249.63168,485.57174L250.35177,485.57174L250.35177,485.33172L250.83183,485.33172L250.83183,485.09169
				L251.31189,485.09169L251.31189,484.85167L252.03198,484.85167L252.03198,484.61164L252.51205,484.61164L252.51205,484.37162
				L252.99211,484.37162L252.99211,484.13159L253.47217,484.13159L253.47217,483.89156L254.19226,483.89156L254.19226,483.65154
				L254.91235,483.65154L254.91235,483.41151L255.39241,483.41151L255.39241,482.93146L255.87247,482.93146L255.87247,482.69144
				L256.83259,482.69144L256.83259,482.93146L258.03275,482.93146L258.03275,483.41151L258.99287,483.41151L258.99287,483.65154
				L259.95299,483.65154L259.95299,483.89156L260.91311,483.89156L260.91311,484.13159L262.11326,484.13159L262.11326,484.37162
				L263.07339,484.37162L263.07339,484.61164L264.03351,484.61164L264.03351,484.85167L264.99363,484.85167L264.99363,485.09169
				L266.19378,485.09169L266.19378,485.33172L266.91387,485.33172L266.91387,485.57174L267.39393,485.57174L267.39393,485.81177
				L267.63396,485.81177L267.63396,486.05179L267.87399,486.05179L267.87399,486.29182L268.35406,486.29182L268.35406,486.53185
				L268.59409,486.53185L268.59409,486.77187L268.83412,486.77187L268.83412,487.25192L269.55421,487.25192L269.55421,487.49195
				L269.79424,487.49195L269.79424,487.73197L270.2743,487.73197L270.2743,487.972L270.51433,487.972L270.51433,488.21202L270.75436,488.21202
				L270.75436,488.45205L271.23442,488.45205L271.23442,488.69208L271.47445,488.69208L271.47445,488.9321L271.95451,488.9321L271.95451,489.17213
				L272.19454,489.17213L272.19454,489.41215L272.43457,489.41215L272.43457,489.65218L273.15466,489.65218L273.15466,489.8922L
				273.3947,489.8922L273.3947,490.13223L273.87476,490.13223L273.87476,490.37225L274.11479,490.37225L274.11479,490.61228L274.35482,490.61228
				L274.35482,491.09233L274.83488,491.09233L274.83488,491.33236L275.07491,491.33236L275.07491,491.57238L275.55497,491.57238
				L275.55497,491.81241L275.795,491.81241L275.795,492.05243L276.03503,492.05243L276.03503,492.29246L276.51509,492.29246L276.51509,492.53249
				L276.99515,492.53249L276.99515,492.77251L277.47521,492.77251L277.47521,493.01254L277.71524,493.01254L277.71524,493.25256
				L277.95527,493.25256L277.95527,493.49259L278.43533,493.49259L278.43533,493.73261L278.67537,493.73261L278.67537,493.97264
				L279.15543,493.97264L279.15543,494.21266L279.39546,494.21266L279.39546,494.45269L279.63549,494.45269L279.63549,494.93274
				L280.11555,494.93274L280.11555,495.17277L280.59561,495.17277L280.59561,495.41279L280.83564,495.41279L280.83564,495.65282
				L281.55573,495.65282L281.55573,495.89284L282.51585,495.89284L282.51585,496.13287L283.23594,496.13287L283.23594,496.37289
				L283.95604,496.37289L283.95604,496.61292L285.15619,496.61292L285.15619,496.85295L285.87628,496.85295L285.87628,497.09297
				L286.59637,497.09297L286.59637,497.333L287.55649,497.333L287.55649,497.57302L288.51661,497.57302L288.51661,497.81305L289.23671,497.81305
				L289.23671,498.05307L290.19683,498.05307L290.19683,498.53312L290.91692,498.53312L290.91692,498.77315L291.63701,498.77315
				L291.63701,499.01318L292.83716,499.01318L292.83716,499.2532L293.55725,499.2532L293.55725,499.49323L294.51738,499.49323L294.51738,499.73325
				L295.23747,499.73325L295.23747,499.97328L296.19759,499.97328L296.19759,500.2133L297.15771,500.2133L297.15771,500.45333L297.8778,500.45333
				L297.8778,500.69335L298.59789,500.69335L298.59789,500.93338L299.79805,500.93338L299.79805,501.17341L300.51814,501.17341L
				300.51814,501.41343L301.23823,501.41343L301.23823,501.65346L302.19835,501.65346L302.19835,501.89348L302.91844,501.89348L
				302.91844,502.37353L303.87856,502.37353L303.87856,502.61356L304.83869,502.61356L304.83869,502.85359L305.55878,502.85359L
				305.55878,503.09361L306.27887,503.09361L306.27887,503.33364L307.47902,503.33364L307.47902,503.57366L308.19911,503.57366L
				308.19911,503.81369L308.9192,503.81369L308.9192,504.05371L309.87933,504.05371L309.87933,504.29374L310.83945,504.29374L310.83945,504.53376
				L311.55954,504.53376L311.55954,504.77379L312.51966,504.77379L312.51966,505.01382L313.23975,505.01382L313.23975,505.25384
				L313.95984,505.25384L313.95984,505.49387L315.16,505.49387L315.16,505.73389L315.88009,505.73389L315.88009,506.21394L316.84021,506.21394
				L316.84021,506.45397L317.5603,506.45397L317.5603,506.69399L318.52042,506.69399L318.52042,506.93402L319.48054,506.93402L319.48054,507.17405
				L320.20063,507.17405L320.20063,507.41407L320.92073,507.41407L320.92073,507.6541L321.88085,507.6541L321.88085,507.89412L322.84097,507.89412
				L322.84097,508.13415L323.80109,508.13415L323.80109,508.37417L324.52118,508.37417L324.52118,508.6142L325.48131,508.6142L325.48131,508.85422
				L326.44143,508.85422L326.44143,509.09425L327.40155,509.09425L327.40155,509.33428L328.12164,509.33428L328.12164,509.5743L
				329.08176,509.5743L329.08176,510.05435L330.28191,510.05435L330.28191,510.29438L331.00201,510.29438L331.00201,510.5344L331.96213,510.5344
				L331.96213,510.77443L332.68222,510.77443L332.68222,511.01445L333.88237,511.01445L333.88237,511.25448L334.60246,511.25448
				L334.60246,511.49451L335.56258,511.49451L335.56258,511.73453L336.52271,511.73453L336.52271,511.97456L337.48283,511.97456
				L337.48283,512.21458L338.44295,512.21458L338.44295,512.45461L339.16304,512.45461L339.16304,512.69463L340.12316,512.69463
				L340.12316,512.93466L341.32332,512.93466L341.32332,513.17468L342.04341,513.17468L342.04341,513.41471L343.00353,513.41471
				L343.00353,513.89476L344.20368,513.89476L344.20368,514.13479L345.64386,514.13479L345.64386,514.37481L346.84402,514.37481
				L346.84402,514.61484L347.80414,514.61484L347.80414,514.85486L349.24432,514.85486L349.24432,515.09489L350.44447,515.09489
				L350.44447,515.33492L351.64463,515.33492L351.64463,515.57494L353.08481,515.57494L353.08481,515.81497L354.28496,515.81497
				L354.28496,516.05499L355.48511,516.05499L355.48511,516.29502L356.68526,516.29502L356.68526,516.53504L357.40536,516.53504
				L357.40536,516.77507L357.88542,516.77507L357.88542,517.01509L358.60551,517.01509L358.60551,517.49515L359.3256,517.49515L
				359.3256,517.73517L360.28572,517.73517L360.28572,517.9752L360.76578,517.9752L360.76578,518.21522L361.48587,518.21522L361.48587,518.45525
				L362.20597,518.45525L362.20597,518.69527L362.92606,518.69527L362.92606,518.9353L363.40612,518.9353L363.40612,519.17532L364.36624,519.17532
				L364.36624,519.41535L365.08633,519.41535L365.08633,519.65538L365.80642,519.65538L365.80642,519.8954L366.28648,519.8954L366.28648,520.13543
				L367.00657,520.13543L367.00657,520.37545L367.9667,520.37545L367.9667,520.61548L369.16685,520.61548L369.16685,520.8555L370.12697,520.8555
				L370.12697,521.33555L371.08709,521.33555L371.08709,521.57558L372.52728,521.57558L372.52728,521.81561L373.4874,521.81561L
				373.4874,522.05563L374.44752,522.05563L374.44752,522.29566L376.36776,522.29566L376.36776,522.53568L378.28801,522.53568L378.28801,522.77571
				L381.16837,522.77571L381.16837,523.01573L385.00886,523.01573L385.00886,523.25576L388.84935,523.25576L388.84935,523.49578
				L392.4498,523.49578L392.4498,523.73581L394.85011,523.73581L394.85011,523.97584L395.5702,523.97584L395.5702,524.21586L396.05026,524.21586
				L396.05026,524.45589L396.53032,524.45589L396.53032,524.69591L397.01038,524.69591L397.01038,525.17596L397.9705,525.17596L
				397.9705,525.41599L398.45057,525.41599L398.45057,525.65601L398.93063,525.65601L398.93063,525.89604L399.41069,525.89604L399.41069,526.13607
				L399.89075,526.13607L399.89075,526.37609L400.61084,526.37609L400.61084,526.61612L401.0909,526.61612L401.0909,526.85614L401.81099,526.85614
				L401.81099,527.09617L402.29105,527.09617L402.29105,527.33619L403.01114,527.33619L403.01114,527.57622L403.4912,527.57622L
				403.4912,527.81625L403.97127,527.81625L403.97127,527.57622L404.2113,527.57622L404.2113,527.09617L404.45133,527.09617L404.45133,526.37609
				L404.69136,526.37609L404.69136,525.89604L404.93139,525.89604L404.93139,525.41599L405.17142,525.41599L405.17142,524.69591
				L405.65148,524.69591L405.65148,523.97584L405.89151,523.97584L405.89151,523.49578L406.13154,523.49578L406.13154,523.01573
				L406.37157,523.01573L406.37157,522.53568L406.6116,522.53568L406.6116,521.81561L406.85163,521.81561L406.85163,521.33555L407.09166,521.33555
				L407.09166,520.61548L407.33169,520.61548L407.33169,520.13543L407.57172,520.13543L407.57172,519.41535L407.81175,519.41535
				L407.81175,518.9353L408.05178,518.9353L408.05178,518.45525L408.29181,518.45525L408.29181,517.9752L408.53184,517.9752L408.53184,517.01509
				L408.77187,517.01509L408.77187,516.53504L409.01191,516.53504L409.01191,516.05499L409.49197,516.05499L409.49197,515.57494
				L409.732,515.57494L409.732,514.85486L409.97203,514.85486L409.97203,514.37481L410.21206,514.37481L410.21206,513.89476L410.45209,513.89476
				L410.45209,513.17468L410.69212,513.17468L410.69212,512.45461L410.93215,512.45461L410.93215,511.97456L411.17218,511.97456
				L411.17218,511.49451L411.41221,511.49451L411.41221,511.01445L411.65224,511.01445L411.65224,510.29438L411.89227,510.29438
				L411.89227,509.5743L412.1323,509.5743L412.1323,509.09425L412.37233,509.09425L412.37233,508.85422L411.41221,508.85422L411.41221,508.6142
				L410.69212,508.6142L410.69212,508.37417L409.97203,508.37417L409.97203,508.13415L409.01191,508.13415L409.01191,507.89412L
				408.29181,507.89412L408.29181,507.6541L407.57172,507.6541L407.57172,507.41407L406.6116,507.41407L406.6116,507.17405L405.89151,507.17405
				L405.89151,506.93402L404.93139,506.93402L404.93139,506.69399L404.2113,506.69399L404.2113,506.45397L403.4912,506.45397L403.4912,506.21394
				L402.77111,506.21394L402.77111,505.73389L401.81099,505.73389L401.81099,505.49387L400.85087,505.49387L400.85087,505.25384
				L400.13078,505.25384L400.13078,505.01382L399.41069,505.01382L399.41069,504.77379L398.6906,504.77379L398.6906,504.53376L397.9705,504.53376
				L397.9705,504.29374L396.77035,504.29374L396.77035,504.05371L396.05026,504.05371L396.05026,503.81369L395.5702,503.81369L395.5702,503.33364
				L395.81023,503.33364L395.81023,502.61356L396.05026,502.61356L396.05026,501.65346L396.29029,501.65346L396.29029,500.93338
				L396.53032,500.93338L396.53032,500.2133L396.77035,500.2133L396.77035,499.49323L397.01038,499.49323L397.01038,498.77315L397.25041,498.77315
				L397.25041,498.05307L397.49044,498.05307L397.49044,497.333L397.9705,497.333L397.9705,496.61292L398.21053,496.61292L398.21053,495.89284
				L398.45057,495.89284L398.45057,495.17277L398.6906,495.17277L398.6906,494.21266L398.93063,494.21266L398.93063,493.49259L399.17066,493.49259
				L399.17066,492.77251L399.41069,492.77251L399.41069,492.05243L399.65072,492.05243L399.65072,491.33236L399.89075,491.33236
				L399.89075,490.37225L400.13078,490.37225L400.13078,489.65218L400.37081,489.65218L400.37081,489.17213L402.05102,489.17213
				L402.05102,489.41215L403.25117,489.41215L403.25117,489.65218L404.69136,489.65218L404.69136,489.8922L406.37157,489.8922L406.37157,490.13223
				L407.81175,490.13223L407.81175,490.37225L409.49197,490.37225L409.49197,490.61228L410.45209,490.61228L410.45209,491.09233
				L410.93215,491.09233L410.93215,491.33236L411.65224,491.33236L411.65224,491.57238L412.37233,491.57238L412.37233,491.81241
				L413.33245,491.81241L413.33245,492.05243L413.81251,492.05243L413.81251,492.29246L414.53261,492.29246L414.53261,492.53249
				L415.2527,492.53249L415.2527,492.77251L415.73276,492.77251L415.73276,493.01254L416.45285,493.01254L416.45285,493.25256L417.41297,493.25256
				L417.41297,493.49259L418.13306,493.49259L418.13306,493.73261L418.61312,493.73261L418.61312,493.97264L419.33322,493.97264
				L419.33322,494.21266L420.05331,494.21266L420.05331,494.45269L420.7734,494.45269L420.7734,494.93274L423.41373,494.93274L423.41373,495.17277
				L426.2941,495.17277L426.2941,495.41279L429.17446,495.41279L429.17446,495.65282L431.57477,495.65282L431.57477,495.89284L432.77492,495.89284
				L432.77492,496.13287L433.73504,496.13287L433.73504,496.37289L434.45513,496.37289L434.45513,496.61292L435.41526,496.61292
				L435.41526,496.85295L436.61541,496.85295L436.61541,497.09297L437.3355,497.09297L437.3355,497.333L438.29562,497.333L438.29562,497.57302
				L439.01571,497.57302"/>
			<path clip-path="url(#SVG_CP_2)" fill="none" stroke="#999999" stroke-width="0.96012" stroke-miterlimit="10" stroke-linecap="round" stroke-linejoin="round" d="
				M439.01571,497.57302L439.01571,497.81305L440.21587,497.81305L440.21587,498.05307L441.17599,498.05307L441.17599,498.53312
				L441.89608,498.53312L441.89608,498.77315L442.8562,498.77315L442.8562,499.01318L443.81632,499.01318L443.81632,499.2532L444.77644,499.2532
				L444.77644,499.49323L445.49654,499.49323L445.49654,499.73325L446.45666,499.73325L446.45666,499.97328L447.41678,499.97328
				L447.41678,500.2133L448.3769,500.2133L448.3769,500.45333L449.09699,500.45333L449.09699,500.69335L450.05711,500.69335L450.05711,500.93338
				L451.01724,500.93338L451.01724,501.17341L451.4973,501.17341L451.4973,501.41343L451.73733,501.41343L451.73733,501.65346L452.21739,501.65346
				L452.21739,501.89348L452.69745,501.89348L452.69745,502.37353L453.41754,502.37353L453.41754,502.61356L454.37766,502.61356
				L454.37766,502.85359L455.57781,502.85359L455.57781,503.09361L456.53794,503.09361L456.53794,503.33364L457.49806,503.33364
				L457.49806,503.57366L458.21815,503.57366L458.21815,503.81369L459.17827,503.81369L459.17827,504.05371L459.65833,504.05371
				L459.65833,504.29374L460.13839,504.29374L460.13839,504.53376L460.61845,504.53376L460.61845,504.77379L461.33855,504.77379
				L461.33855,505.01382L461.81861,505.01382L461.81861,505.25384L462.5387,505.25384L462.5387,505.49387L463.25879,505.49387L463.25879,505.73389
				L463.73885,505.73389L463.73885,506.21394L464.21891,506.21394L464.21891,506.45397L464.939,506.45397L464.939,506.69399L465.17903,506.69399
				L465.17903,506.93402L465.41906,506.93402L465.41906,507.17405L465.65909,507.17405L465.65909,507.41407L466.13915,507.41407
				L466.13915,507.6541L466.37919,507.6541L466.37919,507.89412L466.61922,507.89412L466.61922,508.13415L466.85925,508.13415L466.85925,508.37417
				L467.09928,508.37417L467.09928,508.85422L467.33931,508.85422L467.33931,509.09425L467.57934,509.09425L467.57934,509.33428
				L467.81937,509.33428L467.81937,509.5743L468.0594,509.5743L468.0594,510.77443L468.29943,510.77443L468.29943,512.21458L468.53946,512.21458
				L468.53946,514.13479L468.77949,514.13479L468.77949,514.61484L469.01952,514.61484L469.01952,514.85486L469.25955,514.85486
				L469.25955,515.09489L469.49958,515.09489L469.49958,515.33492L469.97964,515.33492L469.97964,515.57494L470.21967,515.57494
				L470.21967,515.81497L470.4597,515.81497L470.4597,516.29502L470.69973,516.29502L470.69973,516.53504L470.93976,516.53504L470.93976,516.77507
				L471.17979,516.77507L471.17979,517.49515L471.41983,517.49515L471.41983,517.9752L471.65986,517.9752L471.65986,518.45525L471.89989,518.45525
				L471.89989,518.9353L472.13992,518.9353L472.13992,519.17532L472.37995,519.17532L472.37995,519.65538L472.61998,519.65538L472.61998,520.13543
				L472.86001,520.13543L472.86001,520.61548L473.10004,520.61548L473.10004,521.33555L473.34007,521.33555L473.34007,521.81561
				L473.82013,521.81561L473.82013,522.29566L474.06016,522.29566L474.06016,522.53568L474.30019,522.53568L474.30019,523.01573
				L474.54022,523.01573L474.54022,523.25576L475.50034,523.25576L475.50034,523.49578L476.22043,523.49578L476.22043,523.73581
				L476.94053,523.73581L476.94053,523.97584L477.90065,523.97584L477.90065,524.21586L478.62074,524.21586L478.62074,524.45589
				L479.58086,524.45589L479.58086,524.69591L480.30095,524.69591L480.30095,525.17596L481.26107,525.17596L481.26107,525.41599
				L481.98117,525.41599L481.98117,525.65601L482.94129,525.65601L482.94129,525.89604L483.66138,525.89604L483.66138,526.13607
				L484.38147,526.13607L484.38147,526.37609L485.34159,526.37609L485.34159,526.61612L486.06168,526.61612L486.06168,526.85614
				L487.0218,526.85614L487.0218,527.09617L487.7419,527.09617L487.7419,527.33619L488.46199,527.33619L488.46199,527.57622L489.42211,527.57622
				L489.42211,527.81625L490.38223,527.81625L490.38223,528.05627L491.10232,528.05627L491.10232,528.2963L492.06244,528.2963L492.06244,528.53632
				L493.02257,528.53632L493.02257,529.01637L493.98269,529.01637L493.98269,529.2564L494.70278,529.2564L494.70278,529.49642L495.6629,529.49642
				L495.6629,529.73645L498.06321,529.73645L498.06321,529.97648L502.62378,529.97648L502.62378,530.2165L506.94433,530.2165L506.94433,530.45653
				L511.74494,530.45653L511.74494,530.69655L46.56591,530.69655L46.56591,438.04668L47.04597,438.04668L47.04597,438.2867L47.76606,438.2867
				L47.76606,438.52673L48.48615,438.52673L48.48615,438.76676L49.92634,438.76676L49.92634,438.52673L51.60655,438.52673L51.60655,438.2867
				L53.04673,438.2867L53.04673,438.04668L54.00685,438.04668L54.00685,436.84655L54.24688,436.84655L54.24688,436.12647L54.48692,436.12647
				L54.48692,435.16637L54.72695,435.16637L54.72695,434.4463L54.96698,434.4463L54.96698,433.24617L55.20701,433.24617L55.20701,432.28607
				L55.44704,432.28607L55.44704,432.04604L75.12953,432.04604L75.12953,431.80601L75.36957,431.80601L75.36957,431.56599L75.6096,431.56599
				L75.6096,431.32596L76.08966,431.32596L76.08966,431.08594L77.28981,431.08594L77.28981,430.84591L77.52984,430.84591L77.52984,430.60589
				L77.76987,430.60589L77.76987,430.36586L78.0099,430.36586L78.0099,429.88581L78.24993,429.88581L78.24993,429.64578L78.48996,429.64578
				L78.48996,429.40576"/>
			<path clip-path="url(#SVG_CP_2)" fill="none" stroke="#999999" stroke-width="0.96012" stroke-miterlimit="10" stroke-linecap="round" stroke-linejoin="round" d="
				M549.42972,530.69655L517.02561,530.69655L517.02561,530.45653L523.2664,530.45653L523.2664,530.2165L529.5072,530.2165L529.5072,529.97648
				L535.98802,529.97648L535.98802,529.73645L542.22881,529.73645L542.22881,529.49642L544.14905,529.49642L544.14905,529.01637
				L544.38909,529.01637L544.38909,528.05627L544.62912,528.05627L544.62912,527.33619L544.86915,527.33619L544.86915,526.61612
				L545.10918,526.61612L545.10918,525.89604L545.34921,525.89604L545.34921,525.17596L545.82927,525.17596L545.82927,524.21586
				L546.0693,524.21586L546.0693,523.73581L546.30933,523.73581L546.30933,523.01573L546.54936,523.01573L546.54936,522.29566L546.78939,522.29566
				L546.78939,521.57558L547.02942,521.57558L547.02942,520.8555L547.26945,520.8555L547.26945,520.13543L547.50948,520.13543L547.50948,519.41535
				L547.74951,519.41535L547.74951,518.9353L547.98954,518.9353L547.98954,518.21522L548.22957,518.21522L548.22957,517.49515L548.4696,517.49515
				L548.4696,516.77507L548.70963,516.77507L548.70963,516.05499L548.94966,516.05499L548.94966,515.33492L549.42972,515.33492L
				549.42972,530.69655"/>
		</g>
</g></svg>