<?xml version="1.0" encoding="utf-8" standalone="no"?>
<!-- Creator: ESRI ArcMap 10.0.0.2414 -->
<!DOCTYPE svg PUBLIC "-//W3C//DTD SVG 1.1//EN"  "http://www.w3.org/Graphics/SVG/1.1/DTD/svg11.dtd">
<svg width="182.530412915pt" height="741.1872776pt" viewBox="206.485973542 45.48194658 182.530412915 741.1872776" enable-background="new 206.485973542 45.48194658 182.530412915 741.1872776"
	version="1.1" xmlns="http://www.w3.org/2000/svg" xmlns:xlink="http://www.w3.org/1999/xlink" >
	<g id="Couches">
		<g id="cont_2">
			<path clip-path="url(#SVG_CP_2)" fill="none" stroke="#999999" stroke-width="0.96012" stroke-miterlimit="10" stroke-linecap="round" stroke-linejoin="round" d="
				M339.16304,595.02341L338.92301,595.02341L338.92301,594.54336L339.16304,594.54336L339.16304,595.02341"/>
			<path clip-path="url(#SVG_CP_2)" fill="none" stroke="#999999" stroke-width="0.96012" stroke-miterlimit="10" stroke-linecap="round" stroke-linejoin="round" d="
				M339.6431,595.26343L339.16304,595.26343L339.16304,595.02341L339.6431,595.02341L339.6431,595.26343"/>
			<path clip-path="url(#SVG_CP_2)" fill="none" stroke="#999999" stroke-width="0.96012" stroke-miterlimit="10" stroke-linecap="round" stroke-linejoin="round" d="
				M339.6431,595.26343L340.36319,595.26343L340.36319,595.50346L340.84325,595.50346L340.84325,595.98351L341.32332,595.98351L
				341.32332,596.22353L342.04341,596.22353L342.04341,596.70359L342.7635,596.70359L342.7635,596.94361L343.48359,596.94361L343.48359,597.42366
				L344.68374,597.42366L344.68374,597.66369L345.1638,597.66369L345.1638,597.90371L345.88389,597.90371L345.88389,598.38376L347.56411,598.38376
				L347.56411,598.62379L349.24432,598.62379L349.24432,599.10384L350.20444,599.10384L350.20444,598.62379L351.88466,598.62379
				L351.88466,598.38376L352.36472,598.38376L352.36472,599.34387L351.40459,599.34387L351.40459,599.82392L349.96441,599.82392
				L349.96441,600.06394L347.08405,600.06394L347.08405,599.82392L345.1638,599.82392L345.1638,599.34387L344.44371,599.34387L344.44371,599.10384
				L343.96365,599.10384L343.96365,598.62379L343.48359,598.62379L343.48359,598.38376L343.00353,598.38376L343.00353,597.90371
				L342.7635,597.90371L342.7635,597.66369L342.04341,597.66369L342.04341,597.42366L341.56335,597.42366L341.56335,596.94361L340.84325,596.94361
				L340.84325,596.70359L340.60322,596.70359L340.60322,596.22353L340.36319,596.22353L340.36319,595.98351L339.88313,595.98351
				L339.88313,595.50346L339.6431,595.50346L339.6431,595.26343"/>
			<path clip-path="url(#SVG_CP_2)" fill="none" stroke="#999999" stroke-width="0.96012" stroke-miterlimit="10" stroke-linecap="round" stroke-linejoin="round" d="
				M353.08481,606.30461L352.60475,606.30461L352.60475,606.06458L353.08481,606.06458L353.08481,606.30461"/>
			<path clip-path="url(#SVG_CP_2)" fill="none" stroke="#999999" stroke-width="0.96012" stroke-miterlimit="10" stroke-linecap="round" stroke-linejoin="round" d="
				M352.36472,607.98479L351.88466,607.98479L351.88466,607.74476L352.36472,607.74476L352.36472,607.98479"/>
			<path clip-path="url(#SVG_CP_2)" fill="none" stroke="#999999" stroke-width="0.96012" stroke-miterlimit="10" stroke-linecap="round" stroke-linejoin="round" d="
				M351.88466,608.70486L351.64463,608.70486L351.64463,608.46484L351.88466,608.46484L351.88466,608.70486"/>
			<path clip-path="url(#SVG_CP_2)" fill="none" stroke="#999999" stroke-width="0.96012" stroke-miterlimit="10" stroke-linecap="round" stroke-linejoin="round" d="
				M351.40459,610.38504L350.92453,610.38504L350.92453,610.14502L351.40459,610.14502L351.40459,610.38504"/>
			<path clip-path="url(#SVG_CP_2)" fill="none" stroke="#999999" stroke-width="0.96012" stroke-miterlimit="10" stroke-linecap="round" stroke-linejoin="round" d="
				M350.6845,612.06522L350.20444,612.06522L350.20444,611.8252L350.6845,611.8252L350.6845,612.06522"/>
			<path clip-path="url(#SVG_CP_2)" fill="none" stroke="#999999" stroke-width="0.96012" stroke-miterlimit="10" stroke-linecap="round" stroke-linejoin="round" d="
				M350.20444,612.7853L349.96441,612.7853L349.96441,612.54527L350.20444,612.54527L350.20444,612.7853"/>
			<path clip-path="url(#SVG_CP_2)" fill="none" stroke="#999999" stroke-width="0.96012" stroke-miterlimit="10" stroke-linecap="round" stroke-linejoin="round" d="
				M349.48435,614.46548L349.24432,614.46548L349.24432,614.22545L349.48435,614.22545L349.48435,614.46548"/>
			<path clip-path="url(#SVG_CP_2)" fill="none" stroke="#999999" stroke-width="0.96012" stroke-miterlimit="10" stroke-linecap="round" stroke-linejoin="round" d="
				M349.00429,616.38568L348.52423,616.38568L348.52423,615.90563L349.00429,615.90563L349.00429,616.38568"/>
			<path clip-path="url(#SVG_CP_2)" fill="none" stroke="#999999" stroke-width="0.96012" stroke-miterlimit="10" stroke-linecap="round" stroke-linejoin="round" d="
				M348.52423,617.10576L348.2842,617.10576L348.2842,616.62571L348.52423,616.62571L348.52423,617.10576"/>
			<path clip-path="url(#SVG_CP_2)" fill="none" stroke="#999999" stroke-width="0.96012" stroke-miterlimit="10" stroke-linecap="round" stroke-linejoin="round" d="
				M347.80414,618.78594L347.56411,618.78594L347.56411,618.30589L347.80414,618.30589L347.80414,618.78594"/>
			<path clip-path="url(#SVG_CP_2)" fill="none" stroke="#999999" stroke-width="0.96012" stroke-miterlimit="10" stroke-linecap="round" stroke-linejoin="round" d="
				M347.08405,620.46612L346.84402,620.46612L346.84402,620.22609L347.08405,620.22609L347.08405,620.46612"/>
			<path clip-path="url(#SVG_CP_2)" fill="none" stroke="#999999" stroke-width="0.96012" stroke-miterlimit="10" stroke-linecap="round" stroke-linejoin="round" d="
				M346.84402,621.18619L346.36396,621.18619L346.36396,620.70614L346.84402,620.70614L346.84402,621.18619"/>
			<path clip-path="url(#SVG_CP_2)" fill="none" stroke="#999999" stroke-width="0.96012" stroke-miterlimit="10" stroke-linecap="round" stroke-linejoin="round" d="
				M346.12392,622.86637L345.88389,622.86637L345.88389,622.62635L346.12392,622.62635L346.12392,622.86637"/>
			<path clip-path="url(#SVG_CP_2)" fill="none" stroke="#999999" stroke-width="0.96012" stroke-miterlimit="10" stroke-linecap="round" stroke-linejoin="round" d="
				M345.40383,624.54655L345.1638,624.54655L345.1638,624.30653L345.40383,624.30653L345.40383,624.54655"/>
			<path clip-path="url(#SVG_CP_2)" fill="none" stroke="#999999" stroke-width="0.96012" stroke-miterlimit="10" stroke-linecap="round" stroke-linejoin="round" d="
				M345.1638,625.26663L344.68374,625.26663L344.68374,625.0266L345.1638,625.0266L345.1638,625.26663"/>
			<path clip-path="url(#SVG_CP_2)" fill="none" stroke="#999999" stroke-width="0.96012" stroke-miterlimit="10" stroke-linecap="round" stroke-linejoin="round" d="
				M344.44371,626.94681L343.96365,626.94681L343.96365,626.70678L344.44371,626.70678L344.44371,626.94681"/>
			<path clip-path="url(#SVG_CP_2)" fill="none" stroke="#999999" stroke-width="0.96012" stroke-miterlimit="10" stroke-linecap="round" stroke-linejoin="round" d="
				M293.07719,627.42686L291.87704,627.42686L291.87704,626.22673L291.63701,626.22673L291.63701,623.1064L291.87704,623.1064L291.87704,622.86637
				L292.3571,622.86637L292.3571,622.62635L298.83792,622.62635L298.83792,621.90627L298.59789,621.90627L298.59789,621.18619L298.11783,621.18619
				L298.11783,620.22609L297.8778,620.22609L297.8778,619.50602L297.39774,619.50602L297.39774,618.78594L297.15771,618.78594L297.15771,617.58581
				L296.67765,617.58581L296.67765,617.10576L296.43762,617.10576L296.43762,616.38568L295.95756,616.38568L295.95756,615.18556
				L295.71753,615.18556L295.71753,614.46548L295.4775,614.46548L295.4775,613.98543L294.99744,613.98543L294.99744,612.7853L294.27735,612.7853
				L294.27735,612.54527L295.4775,612.54527L295.4775,612.06522L295.71753,612.06522L295.71753,612.54527L295.95756,612.54527L295.95756,612.06522
				L297.8778,612.06522L297.8778,612.54527L298.59789,612.54527L298.59789,611.8252L298.83792,611.8252L298.83792,609.42494L299.07795,609.42494
				L299.07795,608.70486L299.55802,608.70486L299.55802,607.98479L299.79805,607.98479L299.79805,607.26471L300.27811,607.26471
				L300.27811,606.54463L300.51814,606.54463L300.51814,606.30461L300.9982,606.30461L300.9982,605.58453L301.23823,605.58453L301.23823,604.86446
				L301.47826,604.86446L301.47826,606.30461L301.23823,606.30461L301.23823,609.42494L301.47826,609.42494L301.47826,610.38504
				L301.95832,610.38504L301.95832,611.58517L302.19835,611.58517L302.19835,612.06522L302.67841,612.06522L302.67841,613.26535
				L302.91844,613.26535L302.91844,614.22545L303.3985,614.22545L303.3985,615.18556L303.63853,615.18556L303.63853,615.90563L304.11859,615.90563
				L304.11859,617.10576L304.35862,617.10576L304.35862,618.06586L304.59865,618.06586L304.59865,619.02596L305.07872,619.02596
				L305.07872,619.74604L305.31875,619.74604L305.31875,620.70614L305.79881,620.70614L305.79881,622.1463L305.31875,622.1463L305.31875,622.62635
				L304.59865,622.62635L304.59865,622.86637L304.35862,622.86637L304.35862,623.1064L304.11859,623.1064L304.11859,623.58645L303.3985,623.58645
				L303.3985,623.82648L302.91844,623.82648L302.91844,624.30653L302.67841,624.30653L302.67841,624.54655L301.95832,624.54655L
				301.95832,625.0266L301.47826,625.0266L301.47826,625.26663L301.23823,625.26663L301.23823,625.74668L300.51814,625.74668L300.51814,625.98671
				L300.27811,625.98671L300.27811,626.22673L298.83792,626.22673L298.83792,626.70678L295.95756,626.70678L295.95756,626.94681
				L293.07719,626.94681L293.07719,627.42686"/>
			<path clip-path="url(#SVG_CP_2)" fill="none" stroke="#999999" stroke-width="0.96012" stroke-miterlimit="10" stroke-linecap="round" stroke-linejoin="round" d="
				M343.72362,628.62699L343.48359,628.62699L343.48359,628.38696L343.72362,628.38696L343.72362,628.62699"/>
			<path clip-path="url(#SVG_CP_2)" fill="none" stroke="#999999" stroke-width="0.96012" stroke-miterlimit="10" stroke-linecap="round" stroke-linejoin="round" d="
				M342.7635,631.26727L342.28344,631.26727L342.28344,630.78722L342.7635,630.78722L342.7635,631.26727"/>
			<path clip-path="url(#SVG_CP_2)" fill="none" stroke="#999999" stroke-width="0.96012" stroke-miterlimit="10" stroke-linecap="round" stroke-linejoin="round" d="
				M342.04341,632.94745L341.56335,632.94745L341.56335,632.4674L342.04341,632.4674L342.04341,632.94745"/>
			<path clip-path="url(#SVG_CP_2)" fill="none" stroke="#999999" stroke-width="0.96012" stroke-miterlimit="10" stroke-linecap="round" stroke-linejoin="round" d="
				M341.56335,634.14758L341.32332,634.14758L341.32332,633.90755L341.56335,633.90755L341.56335,634.14758"/>
			<path clip-path="url(#SVG_CP_2)" fill="none" stroke="#999999" stroke-width="0.96012" stroke-miterlimit="10" stroke-linecap="round" stroke-linejoin="round" d="
				M341.32332,636.30781L340.84325,636.30781L340.84325,636.06778L341.32332,636.06778L341.32332,636.30781"/>
			<path clip-path="url(#SVG_CP_2)" fill="none" stroke="#999999" stroke-width="0.96012" stroke-miterlimit="10" stroke-linecap="round" stroke-linejoin="round" d="
				M340.84325,638.70806L340.60322,638.70806L340.60322,637.98799L340.84325,637.98799L340.84325,638.70806"/>
			<path clip-path="url(#SVG_CP_2)" fill="none" stroke="#999999" stroke-width="0.96012" stroke-miterlimit="10" stroke-linecap="round" stroke-linejoin="round" d="
				M340.60322,640.86829L340.36319,640.86829L340.36319,640.14822L340.60322,640.14822L340.60322,640.86829"/>
			<path clip-path="url(#SVG_CP_2)" fill="none" stroke="#999999" stroke-width="0.96012" stroke-miterlimit="10" stroke-linecap="round" stroke-linejoin="round" d="
				M340.36319,642.7885L339.88313,642.7885L339.88313,642.54847L340.36319,642.54847L340.36319,642.7885"/>
			<path clip-path="url(#SVG_CP_2)" fill="none" stroke="#999999" stroke-width="0.96012" stroke-miterlimit="10" stroke-linecap="round" stroke-linejoin="round" d="
				M339.88313,644.94873L339.6431,644.94873L339.6431,644.7087L339.88313,644.7087L339.88313,644.94873"/>
			<path clip-path="url(#SVG_CP_2)" fill="none" stroke="#999999" stroke-width="0.96012" stroke-miterlimit="10" stroke-linecap="round" stroke-linejoin="round" d="
				M339.6431,647.10896L339.16304,647.10896L339.16304,646.62891L339.6431,646.62891L339.6431,647.10896"/>
			<path clip-path="url(#SVG_CP_2)" fill="none" stroke="#999999" stroke-width="0.96012" stroke-miterlimit="10" stroke-linecap="round" stroke-linejoin="round" d="
				M339.16304,649.02916L338.92301,649.02916L338.92301,648.78914L339.16304,648.78914L339.16304,649.02916"/>
			<path clip-path="url(#SVG_CP_2)" fill="none" stroke="#999999" stroke-width="0.96012" stroke-miterlimit="10" stroke-linecap="round" stroke-linejoin="round" d="
				M338.92301,651.18939L338.44295,651.18939L338.44295,650.94937L338.92301,650.94937L338.92301,651.18939"/>
			<path clip-path="url(#SVG_CP_2)" fill="none" stroke="#999999" stroke-width="0.96012" stroke-miterlimit="10" stroke-linecap="round" stroke-linejoin="round" d="
				M338.44295,653.58965L338.20292,653.58965L338.20292,652.86957L338.44295,652.86957L338.44295,653.58965"/>
			<path clip-path="url(#SVG_CP_2)" fill="none" stroke="#999999" stroke-width="0.96012" stroke-miterlimit="10" stroke-linecap="round" stroke-linejoin="round" d="
				M338.20292,655.74988L337.72286,655.74988L337.72286,655.26983L338.20292,655.26983L338.20292,655.74988"/>
			<path clip-path="url(#SVG_CP_2)" fill="none" stroke="#999999" stroke-width="0.96012" stroke-miterlimit="10" stroke-linecap="round" stroke-linejoin="round" d="
				M338.44295,655.9899L338.20292,655.9899L338.20292,655.74988L338.44295,655.74988L338.44295,655.9899"/>
			<path clip-path="url(#SVG_CP_2)" fill="none" stroke="#999999" stroke-width="0.96012" stroke-miterlimit="10" stroke-linecap="round" stroke-linejoin="round" d="
				M338.92301,656.46995L338.44295,656.46995L338.44295,655.9899L338.92301,655.9899L338.92301,656.46995"/>
			<path clip-path="url(#SVG_CP_2)" fill="none" stroke="#999999" stroke-width="0.96012" stroke-miterlimit="10" stroke-linecap="round" stroke-linejoin="round" d="
				M339.16304,656.70998L338.92301,656.70998L338.92301,656.46995L339.16304,656.46995L339.16304,656.70998"/>
			<path clip-path="url(#SVG_CP_2)" fill="none" stroke="#999999" stroke-width="0.96012" stroke-miterlimit="10" stroke-linecap="round" stroke-linejoin="round" d="
				M339.6431,656.95001L339.16304,656.95001L339.16304,656.70998L339.6431,656.70998L339.6431,656.95001"/>
			<path clip-path="url(#SVG_CP_2)" fill="none" stroke="#999999" stroke-width="0.96012" stroke-miterlimit="10" stroke-linecap="round" stroke-linejoin="round" d="
				M339.88313,657.43006L339.6431,657.43006L339.6431,656.95001L339.88313,656.95001L339.88313,657.43006"/>
			<path clip-path="url(#SVG_CP_2)" fill="none" stroke="#999999" stroke-width="0.96012" stroke-miterlimit="10" stroke-linecap="round" stroke-linejoin="round" d="
				M339.88313,657.43006L340.36319,657.43006L340.36319,657.67008L339.88313,657.67008L339.88313,657.43006"/>
			<path clip-path="url(#SVG_CP_2)" fill="none" stroke="#999999" stroke-width="0.96012" stroke-miterlimit="10" stroke-linecap="round" stroke-linejoin="round" d="
				M366.52651,679.51241L366.76654,679.51241L366.76654,679.03236L367.24661,679.03236L367.24661,678.79233L367.48664,678.79233
				L367.48664,678.55231L367.9667,678.55231L367.9667,678.07226L368.20673,678.07226L368.20673,677.83223L368.44676,677.83223L368.44676,677.35218
				L368.92682,677.35218L368.92682,677.11215L369.16685,677.11215L369.16685,676.6321L369.64691,676.6321L369.64691,676.39208L369.88694,676.39208
				L369.88694,675.91203L370.367,675.91203L370.367,672.31164L370.60703,672.31164L370.60703,671.83159L371.08709,671.83159L371.08709,670.87149
				L372.28724,670.87149L372.28724,671.11151L372.76731,671.11151L372.76731,670.39144L372.28724,670.39144L372.28724,669.91139
				L372.04721,669.91139L372.04721,669.19131L371.56715,669.19131L371.56715,668.47123L371.32712,668.47123L371.32712,667.75116
				L371.08709,667.75116L371.08709,667.03108L370.60703,667.03108L370.60703,666.79105L370.367,666.79105L370.367,666.07098L369.88694,666.07098
				L369.88694,665.59093L371.08709,665.59093L371.08709,666.07098L373.4874,666.07098L373.4874,666.311L375.8877,666.311L375.8877,666.79105
				L378.28801,666.79105L378.28801,667.03108L379.24813,667.03108L379.24813,668.71126L379.72819,668.71126L379.72819,674.7119L
				379.96822,674.7119L379.96822,679.75244L367.9667,679.75244L367.9667,688.39336L367.48664,688.39336L367.48664,690.55359L367.24661,690.55359
				L367.24661,690.79361L366.52651,690.79361L366.52651,679.51241"/>
			<path clip-path="url(#SVG_CP_2)" fill="none" stroke="#999999" stroke-width="0.96012" stroke-miterlimit="10" stroke-linecap="round" stroke-linejoin="round" d="
				M367.24661,692.71382L366.76654,692.71382L366.76654,691.99374L367.24661,691.99374L367.24661,692.71382"/>
			<path clip-path="url(#SVG_CP_2)" fill="none" stroke="#999999" stroke-width="0.96012" stroke-miterlimit="10" stroke-linecap="round" stroke-linejoin="round" d="
				M366.76654,694.394L366.52651,694.394L366.52651,693.91394L366.76654,693.91394L366.76654,694.394"/>
			<path clip-path="url(#SVG_CP_2)" fill="none" stroke="#999999" stroke-width="0.96012" stroke-miterlimit="10" stroke-linecap="round" stroke-linejoin="round" d="
				M366.52651,696.3142L366.04645,696.3142L366.04645,696.07417L366.52651,696.07417L366.52651,696.3142"/>
			<path clip-path="url(#SVG_CP_2)" fill="none" stroke="#999999" stroke-width="0.96012" stroke-miterlimit="10" stroke-linecap="round" stroke-linejoin="round" d="
				M366.04645,698.47443L365.80642,698.47443L365.80642,698.2344L366.04645,698.2344L366.04645,698.47443"/>
			<path clip-path="url(#SVG_CP_2)" fill="none" stroke="#999999" stroke-width="0.96012" stroke-miterlimit="10" stroke-linecap="round" stroke-linejoin="round" d="
				M365.80642,700.63466L365.56639,700.63466L365.56639,700.15461L365.80642,700.15461L365.80642,700.63466"/>
			<path clip-path="url(#SVG_CP_2)" fill="none" stroke="#999999" stroke-width="0.96012" stroke-miterlimit="10" stroke-linecap="round" stroke-linejoin="round" d="
				M365.56639,702.55487L365.08633,702.55487L365.08633,702.31484L365.56639,702.31484L365.56639,702.55487"/>
			<path clip-path="url(#SVG_CP_2)" fill="none" stroke="#999999" stroke-width="0.96012" stroke-miterlimit="10" stroke-linecap="round" stroke-linejoin="round" d="
				M365.08633,704.7151L364.8463,704.7151L364.8463,704.23504L365.08633,704.23504L365.08633,704.7151"/>
			<path clip-path="url(#SVG_CP_2)" fill="none" stroke="#999999" stroke-width="0.96012" stroke-miterlimit="10" stroke-linecap="round" stroke-linejoin="round" d="
				M364.8463,706.6353L364.36624,706.6353L364.36624,706.39527L364.8463,706.39527L364.8463,706.6353"/>
			<path clip-path="url(#SVG_CP_2)" fill="none" stroke="#999999" stroke-width="0.96012" stroke-miterlimit="10" stroke-linecap="round" stroke-linejoin="round" d="
				M364.8463,709.51561L364.36624,709.51561L364.36624,709.27558L364.8463,709.27558L364.8463,709.51561"/>
			<path clip-path="url(#SVG_CP_2)" fill="none" stroke="#999999" stroke-width="0.96012" stroke-miterlimit="10" stroke-linecap="round" stroke-linejoin="round" d="
				M365.56639,711.19579L365.08633,711.19579L365.08633,710.95576L365.56639,710.95576L365.56639,711.19579"/>
			<path clip-path="url(#SVG_CP_2)" fill="none" stroke="#999999" stroke-width="0.96012" stroke-miterlimit="10" stroke-linecap="round" stroke-linejoin="round" d="
				M366.04645,712.87597L365.80642,712.87597L365.80642,712.63594L366.04645,712.63594L366.04645,712.87597"/>
			<path clip-path="url(#SVG_CP_2)" fill="none" stroke="#999999" stroke-width="0.96012" stroke-miterlimit="10" stroke-linecap="round" stroke-linejoin="round" d="
				M366.76654,714.79617L366.52651,714.79617L366.52651,714.31612L366.76654,714.31612L366.76654,714.79617"/>
			<path clip-path="url(#SVG_CP_2)" fill="none" stroke="#999999" stroke-width="0.96012" stroke-miterlimit="10" stroke-linecap="round" stroke-linejoin="round" d="
				M367.24661,715.75627L366.76654,715.75627L366.76654,715.27622L367.24661,715.27622L367.24661,715.75627"/>
			<path clip-path="url(#SVG_CP_2)" fill="none" stroke="#999999" stroke-width="0.96012" stroke-miterlimit="10" stroke-linecap="round" stroke-linejoin="round" d="
				M367.48664,716.47635L367.24661,716.47635L367.24661,715.9963L367.48664,715.9963L367.48664,716.47635"/>
			<path clip-path="url(#SVG_CP_2)" fill="none" stroke="#999999" stroke-width="0.96012" stroke-miterlimit="10" stroke-linecap="round" stroke-linejoin="round" d="
				M367.9667,740.95896L367.48664,740.95896L367.48664,740.47891L367.9667,740.47891L367.9667,740.95896"/>
			<path clip-path="url(#SVG_CP_2)" fill="none" stroke="#999999" stroke-width="0.96012" stroke-miterlimit="10" stroke-linecap="round" stroke-linejoin="round" d="
				M369.16685,742.63914L368.92682,742.63914L368.92682,742.39911L369.16685,742.39911L369.16685,742.63914"/>
			<path clip-path="url(#SVG_CP_2)" fill="none" stroke="#999999" stroke-width="0.96012" stroke-miterlimit="10" stroke-linecap="round" stroke-linejoin="round" d="
				M379.0081,756.80065L378.52804,756.80065L378.52804,752.96024L378.28801,752.96024L378.28801,748.8798L378.52804,748.8798L378.52804,749.11983
				L379.24813,749.11983L379.24813,749.59988L379.96822,749.59988L379.96822,749.8399L380.68831,749.8399L380.68831,750.31996L380.92834,750.31996
				L380.92834,750.55998L380.68831,750.55998L380.68831,752.96024L380.20825,752.96024L380.20825,754.64042L379.96822,754.64042
				L379.96822,755.36049L379.72819,755.36049L379.72819,755.84054L379.24813,755.84054L379.24813,756.56062L379.0081,756.56062L
				379.0081,756.80065"/>
			<path clip-path="url(#SVG_CP_2)" fill="none" stroke="#999999" stroke-width="0.96012" stroke-miterlimit="10" stroke-linecap="round" stroke-linejoin="round" d="
				M370.367,672.31164L369.88694,672.31164L369.88694,673.51177L369.64691,673.51177L369.64691,674.7119L369.16685,674.7119L369.16685,675.672
				L368.92682,675.672L368.92682,676.6321L368.44676,676.6321L368.44676,677.35218L368.20673,677.35218L368.20673,677.83223L367.9667,677.83223
				L367.9667,678.07226L367.48664,678.07226L367.48664,678.55231L367.24661,678.55231L367.24661,678.79233L366.76654,678.79233L
				366.76654,679.03236L366.52651,679.03236L366.52651,679.51241L366.04645,679.51241L366.04645,690.79361L365.56639,690.79361L
				365.56639,690.55359L362.446,690.55359L362.446,690.07354L359.56563,690.07354L359.56563,689.83351L356.9253,689.83351L356.9253,689.59348
				L354.04493,689.59348L354.04493,689.11343L350.92453,689.11343L350.92453,688.87341L348.2842,688.87341L348.2842,688.39336L345.40383,688.39336
				L345.40383,688.15333L343.96365,688.15333L343.96365,688.39336L343.72362,688.39336L343.72362,688.87341L343.00353,688.87341
				L343.00353,689.11343L342.7635,689.11343L342.7635,689.59348L342.04341,689.59348L342.04341,689.83351L341.56335,689.83351L341.56335,690.07354
				L340.84325,690.07354L340.84325,690.55359L340.60322,690.55359L340.60322,690.79361L339.88313,690.79361L339.88313,691.27366
				L339.6431,691.27366L339.6431,691.51369L339.16304,691.51369L339.16304,691.99374L338.44295,691.99374L338.44295,692.23377L338.20292,692.23377
				L338.20292,692.71382L337.48283,692.71382L337.48283,692.23377L332.68222,692.23377L332.68222,691.99374L328.12164,691.99374
				L328.12164,691.51369L323.32103,691.51369L323.32103,691.27366L318.76045,691.27366L318.76045,690.79361L313.95984,690.79361
				L313.95984,690.55359L310.11936,690.55359L310.11936,690.79361L310.59942,690.79361L310.59942,691.51369L310.83945,691.51369
				L310.83945,692.23377L311.31951,692.23377L311.31951,692.95384L311.55954,692.95384L311.55954,693.67392L312.0396,693.67392L
				312.0396,693.91394L312.27963,693.91394L312.27963,694.63402L312.75969,694.63402L312.75969,695.3541L312.99972,695.3541L312.99972,696.07417
				L313.23975,696.07417L313.23975,696.79425L313.71981,696.79425L313.71981,697.03428L313.95984,697.03428L313.95984,697.75435
				L314.4399,697.75435L314.4399,698.47443L314.67993,698.47443L314.67993,699.19451L315.16,699.19451L315.16,699.91458L315.40003,699.91458
				L315.40003,700.15461L315.64006,700.15461L315.64006,700.87469L316.12012,700.87469L316.12012,701.59476L316.36015,701.59476
				L316.36015,702.31484L316.84021,702.31484L316.84021,702.55487L317.08024,702.55487L317.08024,703.27494L317.5603,703.27494L
				317.5603,703.99502L317.80033,703.99502L317.80033,704.7151L318.28039,704.7151L318.28039,704.95512L318.52042,704.95512L318.52042,705.43517
				L318.76045,705.43517L318.76045,706.15525L319.24051,706.15525L319.24051,706.39527L319.48054,706.39527L319.48054,707.11535
				L319.9606,707.11535L319.9606,707.35538L320.20063,707.35538L320.20063,707.83543L320.6807,707.83543L320.6807,708.5555L320.92073,708.5555
				L320.92073,708.79553L321.16076,708.79553L321.16076,709.51561L321.64082,709.51561L321.64082,710.95576L321.88085,710.95576
				L321.88085,711.91586L322.36091,711.91586L322.36091,713.35602L322.60094,713.35602L322.60094,714.79617L323.081,714.79617L323.081,715.75627
				L323.32103,715.75627L323.32103,717.19643L323.80109,717.19643L323.80109,719.59668L324.04112,719.59668L324.04112,721.99694
				L324.28115,721.99694L324.28115,724.63722L324.76121,724.63722L324.76121,726.3174L325.00124,726.3174L325.00124,727.03747L325.48131,727.03747
				L325.48131,727.75755L325.72134,727.75755L325.72134,728.47763L326.2014,728.47763L326.2014,729.1977L326.44143,729.1977L326.44143,729.43773
				L326.68146,729.43773L326.68146,730.15781L327.16152,730.15781L327.16152,730.87788L327.40155,730.87788L327.40155,731.59796
				L327.88161,731.59796L327.88161,732.31804L328.12164,732.31804L328.12164,733.03811L328.6017,733.03811L328.6017,733.27814L328.84173,733.27814
				L328.84173,733.99822L329.32179,733.99822L329.32179,734.71829L329.56182,734.71829L329.56182,735.43837L329.80185,735.43837
				L329.80185,736.15845L330.28191,736.15845L330.28191,736.87852L330.52194,736.87852L330.52194,737.11855L331.00201,737.11855
				L331.00201,737.83863L331.24204,737.83863L331.24204,738.5587L331.7221,738.5587L331.7221,739.27878L331.96213,739.27878L331.96213,739.5188
				L332.20216,739.5188L332.20216,740.23888L332.68222,740.23888L332.68222,740.95896L332.92225,740.95896L332.92225,741.67903L
				333.40231,741.67903L333.40231,741.91906L333.64234,741.91906L333.64234,742.63914L334.1224,742.63914L334.1224,743.35921L334.36243,743.35921
				L334.36243,744.07929L334.84249,744.07929L334.84249,744.31932L335.08252,744.31932L335.08252,745.03939L335.32255,745.03939
				L335.32255,745.75947L335.80261,745.75947L335.80261,745.99949L336.04265,745.99949L336.04265,746.71957L336.52271,746.71957
				L336.52271,747.43965L336.76274,747.43965L336.76274,748.15973L337.2428,748.15973L337.2428,748.63978L337.48283,748.63978L337.48283,749.11983
				L337.72286,749.11983L337.72286,749.8399L338.20292,749.8399L338.20292,750.55998L338.44295,750.55998L338.44295,751.28006L338.92301,751.28006
				L338.92301,751.52008L339.16304,751.52008L339.16304,752.24016L339.6431,752.24016L339.6431,752.96024L339.88313,752.96024L339.88313,753.68031
				L340.36319,753.68031L340.36319,754.40039L340.60322,754.40039L340.60322,754.64042L340.84325,754.64042L340.84325,755.36049
				L341.32332,755.36049L341.32332,756.08057L341.56335,756.08057L341.56335,756.80065L342.04341,756.80065L342.04341,757.52072
				L342.28344,757.52072L342.28344,758.2408L342.7635,758.2408L342.7635,758.48082L343.00353,758.48082L343.00353,759.2009L344.44371,759.2009
				L344.44371,758.96088L345.40383,758.96088L345.40383,758.48082L346.36396,758.48082L346.36396,758.2408L347.56411,758.2408L347.56411,757.76075
				L348.52423,757.76075L348.52423,756.56062L349.00429,756.56062L349.00429,755.36049L349.24432,755.36049L349.24432,754.16036
				L349.48435,754.16036L349.48435,753.44029L349.96441,753.44029L349.96441,752.96024L350.92453,752.96024L350.92453,752.72021
				L351.64463,752.72021L351.64463,752.24016L352.36472,752.24016L352.36472,752.00013L353.32484,752.00013L353.32484,751.52008
				L354.04493,751.52008L354.04493,751.28006L355.00505,751.28006L355.00505,751.04003L355.72514,751.04003L355.72514,750.55998
				L356.44523,750.55998L356.44523,750.31996L357.16533,750.31996L357.16533,749.8399L357.40536,749.8399L357.40536,749.11983L357.88542,749.11983
				L357.88542,748.8798L358.12545,748.8798L358.12545,748.15973L358.60551,748.15973L358.60551,747.43965L358.84554,747.43965L358.84554,747.19962
				L359.3256,747.19962L359.3256,746.47955L359.56563,746.47955L359.56563,745.75947L360.04569,745.75947L360.04569,745.51944L360.28572,745.51944
				L360.28572,744.79937L360.52575,744.79937L360.52575,744.07929L361.00581,744.07929L361.00581,743.59924L361.24584,743.59924
				L361.24584,743.11919L361.7259,743.11919L361.7259,742.39911L361.96594,742.39911L361.96594,741.67903L362.446,741.67903L362.446,741.19898
				L362.68603,741.19898L362.68603,740.47891L362.92606,740.47891L362.92606,739.99886L362.446,739.99886L362.446,739.5188L361.00581,739.5188
				L361.00581,739.27878L359.56563,739.27878L359.56563,738.79873L358.60551,738.79873L358.60551,737.35857L358.84554,737.35857
				L358.84554,736.15845L359.3256,736.15845L359.3256,734.71829L359.56563,734.71829L359.56563,733.27814L366.52651,733.27814L366.52651,736.87852
				L366.04645,736.87852L366.04645,740.23888L365.80642,740.23888L365.80642,743.11919L366.04645,743.11919L366.04645,743.35921
				L366.52651,743.35921L366.52651,743.59924L367.24661,743.59924L367.24661,744.07929L367.48664,744.07929L367.48664,744.31932
				L368.20673,744.31932L368.20673,744.79937L368.44676,744.79937L368.44676,745.03939L369.16685,745.03939L369.16685,745.51944
				L369.64691,745.51944L369.64691,745.75947L370.367,745.75947L370.367,745.99949L370.60703,745.99949L370.60703,746.47955L371.32712,746.47955
				L371.32712,746.71957L371.56715,746.71957L371.56715,749.11983L371.32712,749.11983L371.32712,752.00013L371.08709,752.00013
				L371.08709,754.64042L370.60703,754.64042L370.60703,757.52072L370.367,757.52072L370.367,759.2009L369.64691,759.2009L369.64691,758.96088
				L369.16685,758.96088L369.16685,758.48082L368.92682,758.48082L368.92682,757.76075L368.44676,757.76075L368.44676,757.04067
				L368.20673,757.04067L368.20673,756.56062L367.9667,756.56062L367.9667,756.08057L367.48664,756.08057L367.48664,755.84054L367.24661,755.84054
				L367.24661,755.12047L366.76654,755.12047L366.76654,753.44029L366.52651,753.44029L366.52651,752.96024L366.04645,752.96024
				L366.04645,752.72021L365.80642,752.72021L365.80642,752.00013L365.56639,752.00013L365.56639,751.28006L365.08633,751.28006
				L365.08633,751.04003L364.12621,751.04003L364.12621,751.28006L363.64615,751.28006L363.64615,751.52008L362.92606,751.52008
				L362.92606,752.00013L362.68603,752.00013L362.68603,752.24016L362.446,752.24016L362.446,752.72021L361.96594,752.72021L361.96594,752.96024
				L361.24584,752.96024L361.24584,753.44029L361.00581,753.44029L361.00581,753.68031L360.28572,753.68031L360.28572,754.16036
				L359.56563,754.16036L359.56563,754.40039L358.60551,754.40039L358.60551,754.64042L356.9253,754.64042L356.9253,755.12047L354.52499,755.12047
				L354.52499,755.36049L354.04493,755.36049L354.04493,755.84054L353.8049,755.84054L353.8049,756.80065L353.32484,756.80065L353.32484,757.52072
				L353.08481,757.52072L353.08481,758.48082L352.60475,758.48082L352.60475,758.96088L352.36472,758.96088L352.36472,759.2009L
				351.88466,759.2009L351.88466,759.68095L351.64463,759.68095L351.64463,760.161L351.40459,760.161L351.40459,760.64106L350.92453,760.64106
				L350.92453,760.88108L350.20444,760.88108L350.20444,761.36113L349.96441,761.36113L349.96441,761.60116L349.48435,761.60116
				L349.48435,762.08121L349.24432,762.08121L349.24432,762.32123L348.52423,762.32123L348.52423,762.56126L347.80414,762.56126
				L347.80414,763.04131L347.08405,763.04131L347.08405,763.28134L346.36396,763.28134L346.36396,763.76139L345.40383,763.76139
				L345.40383,764.00141L344.68374,764.00141L344.68374,764.48146L343.00353,764.48146L343.00353,764.72149L342.7635,764.72149L
				342.7635,764.48146L342.04341,764.48146L342.04341,764.00141L340.84325,764.00141L340.84325,763.76139L340.60322,763.76139L340.60322,763.28134
				L339.88313,763.28134L339.88313,763.04131L339.6431,763.04131L339.6431,762.56126L339.16304,762.56126L339.16304,762.32123L338.92301,762.32123
				L338.92301,762.08121L338.44295,762.08121L338.44295,761.60116L338.20292,761.60116L338.20292,761.36113L337.48283,761.36113
				L337.48283,760.88108L337.2428,760.88108L337.2428,760.64106L336.76274,760.64106L336.76274,760.161L336.52271,760.161L336.52271,759.92098
				L336.04265,759.92098L336.04265,759.2009L335.80261,759.2009L335.80261,758.96088L335.32255,758.96088L335.32255,758.48082L335.08252,758.48082
				L335.08252,758.2408L334.84249,758.2408L334.84249,757.76075L334.36243,757.76075L334.36243,757.04067L334.1224,757.04067L334.1224,756.80065
				L333.64234,756.80065L333.64234,756.56062L333.40231,756.56062L333.40231,755.84054L332.92225,755.84054L332.92225,755.36049
				L332.68222,755.36049L332.68222,755.12047L332.20216,755.12047L332.20216,754.64042L331.96213,754.64042L331.96213,754.40039
				L331.7221,754.40039L331.7221,753.68031L331.24204,753.68031L331.24204,753.44029L331.00201,753.44029L331.00201,752.96024L330.52194,752.96024
				L330.52194,752.72021L330.28191,752.72021L330.28191,752.24016L329.80185,752.24016L329.80185,751.52008L329.56182,751.52008
				L329.56182,751.04003L329.32179,751.04003L329.32179,750.31996L328.84173,750.31996L328.84173,749.59988L328.6017,749.59988L
				328.6017,748.8798L328.12164,748.8798L328.12164,748.15973L327.88161,748.15973L327.88161,747.9197L327.40155,747.9197L327.40155,746.71957
				L327.16152,746.71957L327.16152,745.99949L326.44143,745.99949L326.44143,745.51944L326.2014,745.51944L326.2014,745.03939L325.72134,745.03939
				L325.72134,744.79937L325.48131,744.79937L325.48131,744.31932L325.00124,744.31932L325.00124,744.07929L324.76121,744.07929
				L324.76121,743.59924L324.28115,743.59924L324.28115,743.11919L324.04112,743.11919L324.04112,742.63914L323.80109,742.63914
				L323.80109,742.39911L323.32103,742.39911L323.32103,741.91906L323.081,741.91906L323.081,741.19898L322.60094,741.19898L322.60094,740.47891
				L322.36091,740.47891L322.36091,739.99886L321.88085,739.99886L321.88085,739.5188L321.64082,739.5188L321.64082,738.79873L321.16076,738.79873
				L321.16076,738.5587L320.92073,738.5587L320.92073,738.07865L320.6807,738.07865L320.6807,737.83863L320.20063,737.83863L320.20063,737.35857
				L319.9606,737.35857L319.9606,736.87852L319.24051,736.87852L319.24051,736.15845L318.76045,736.15845L318.76045,735.6784L318.52042,735.6784
				L318.52042,735.43837L318.28039,735.43837L318.28039,734.95832L317.80033,734.95832L317.80033,734.71829L317.5603,734.71829L
				317.5603,733.99822L317.08024,733.99822L317.08024,733.75819L316.84021,733.75819L316.84021,733.03811L316.36015,733.03811L316.36015,732.55806
				L316.12012,732.55806L316.12012,732.31804L315.64006,732.31804L315.64006,731.83799L315.40003,731.83799L315.40003,731.59796
				L315.16,731.59796L315.16,731.35793L314.67993,731.35793L314.67993,730.87788L314.4399,730.87788L314.4399,730.63786L313.95984,730.63786
				L313.95984,730.15781L313.71981,730.15781L313.71981,729.91778L313.23975,729.91778L313.23975,729.43773L312.99972,729.43773
				L312.99972,729.1977L312.75969,729.1977L312.75969,728.95768L312.27963,728.95768L312.27963,728.47763L312.0396,728.47763L312.0396,728.2376
				L311.55954,728.2376L311.55954,727.75755L310.83945,727.75755L310.83945,727.51753L310.59942,727.51753L310.59942,727.03747L
				310.11936,727.03747L310.11936,726.79745L309.87933,726.79745L309.87933,726.3174L309.63929,726.3174L309.63929,726.07737L309.15923,726.07737
				L309.15923,725.11727L308.9192,725.11727L308.9192,724.63722L308.43914,724.63722L308.43914,724.39719L308.19911,724.39719L308.19911,723.91714
				L307.71905,723.91714L307.71905,723.43709L307.47902,723.43709L307.47902,722.71701L307.23899,722.71701L307.23899,722.23696
				L306.75893,722.23696L306.75893,721.99694L306.5189,721.99694L306.5189,721.27686L306.03884,721.27686L306.03884,720.79681L305.79881,720.79681
				L305.79881,720.31676L305.07872,720.31676L305.07872,719.83671L304.59865,719.83671L304.59865,719.59668L304.35862,719.59668
				L304.35862,719.11663L303.63853,719.11663L303.63853,718.8766L303.3985,718.8766L303.3985,718.39655L302.91844,718.39655L302.91844,718.15653
				L302.19835,718.15653L302.19835,717.43645L301.95832,717.43645L301.95832,717.19643L301.47826,717.19643L301.47826,716.47635
				L301.23823,716.47635L301.23823,715.9963L300.9982,715.9963L300.9982,715.27622L300.51814,715.27622L300.51814,714.79617L300.27811,714.79617
				L300.27811,714.31612L299.79805,714.31612L299.79805,713.59604L299.55802,713.59604L299.55802,713.35602L299.07795,713.35602
				L299.07795,712.63594L298.83792,712.63594L298.83792,712.39591L298.59789,712.39591L298.59789,711.67584L298.11783,711.67584
				L298.11783,711.19579L297.8778,711.19579L297.8778,710.47571L297.39774,710.47571L297.39774,709.75563L297.15771,709.75563L297.15771,709.27558
				L296.67765,709.27558L296.67765,708.07545L296.43762,708.07545L296.43762,707.35538L295.95756,707.35538L295.95756,706.6353L
				295.71753,706.6353L295.71753,706.39527L295.4775,706.39527L295.4775,706.15525L294.99744,706.15525L294.99744,705.6752L294.75741,705.6752
				L294.75741,705.43517L294.27735,705.43517L294.27735,704.95512L294.03731,704.95512L294.03731,704.23504L293.55725,704.23504
				L293.55725,703.99502L293.31722,703.99502L293.31722,703.27494L293.07719,703.27494L293.07719,702.55487L292.59713,702.55487
				L292.59713,702.31484L292.3571,702.31484L292.3571,701.11471L291.87704,701.11471L291.87704,700.63466L291.63701,700.63466L291.63701,699.43453
				L291.15695,699.43453L291.15695,698.71446L290.91692,698.71446L290.91692,697.75435L290.43686,697.75435L290.43686,696.79425
				L290.19683,696.79425L290.19683,696.07417L289.9568,696.07417L289.9568,695.11407L289.47674,695.11407L289.47674,693.91394L289.23671,693.91394
				L289.23671,692.95384L288.75664,692.95384L288.75664,692.23377L288.51661,692.23377L288.51661,691.27366L288.03655,691.27366
				L288.03655,689.83351L287.79652,689.83351L287.79652,689.59348L287.55649,689.59348L287.55649,689.11343L286.8364,689.11343L
				286.8364,688.87341L286.35634,688.87341L286.35634,688.39336L285.63625,688.39336L285.63625,688.15333L284.91616,688.15333L284.91616,687.67328
				L284.4361,687.67328L284.4361,687.43325L283.716,687.43325L283.716,687.19323L282.99591,687.19323L282.99591,686.71318L282.27582,686.71318
				L282.27582,686.47315L281.55573,686.47315L281.55573,685.9931L281.3157,685.9931L281.3157,685.75307L280.59561,685.75307L280.59561,685.27302
				L279.87552,685.27302L279.87552,685.033L279.39546,685.033L279.39546,684.55295L279.15543,684.55295L279.15543,684.0729L278.9154,684.0729
				L278.9154,683.35282L278.43533,683.35282L278.43533,682.15269L278.1953,682.15269L278.1953,681.67264L277.71524,681.67264L277.71524,680.95256
				L277.47521,680.95256L277.47521,680.23249L276.99515,680.23249L276.99515,679.03236L276.75512,679.03236L276.75512,678.55231
				L276.51509,678.55231L276.51509,677.83223L276.03503,677.83223L276.03503,677.11215L275.795,677.11215L275.795,676.39208L275.31494,676.39208
				L275.31494,675.43198L275.07491,675.43198L275.07491,674.7119L274.59485,674.7119L274.59485,673.99182L274.35482,673.99182L274.35482,673.51177
				L273.87476,673.51177L273.87476,673.03172L273.63473,673.03172L273.63473,672.55167L273.3947,672.55167L273.3947,671.59157L272.91463,671.59157
				L272.91463,670.39144L272.6746,670.39144L272.6746,669.19131L272.19454,669.19131L272.19454,667.99118L271.95451,667.99118L271.95451,667.03108
				L271.47445,667.03108L271.47445,666.79105L271.23442,666.79105L271.23442,665.59093L270.75436,665.59093L270.75436,664.63082
				L270.51433,664.63082L270.51433,663.67072L270.2743,663.67072L270.2743,662.95065L269.79424,662.95065L269.79424,661.99054L269.55421,661.99054
				L269.55421,661.27047L269.07415,661.27047L269.07415,660.07034L268.83412,660.07034L268.83412,659.35026L268.35406,659.35026
				L268.35406,658.39016L268.11402,658.39016L268.11402,651.90947L268.35406,651.90947L268.35406,651.18939L268.83412,651.18939
				L268.83412,650.22929L269.07415,650.22929L269.07415,649.50921L269.55421,649.50921L269.55421,648.78914L269.79424,648.78914
				L269.79424,648.06906L270.2743,648.06906L270.2743,647.10896L270.51433,647.10896L270.51433,644.7087L270.75436,644.7087L270.75436,641.10832
				L271.23442,641.10832L271.23442,639.66816L271.47445,639.66816L271.47445,638.70806L271.95451,638.70806L271.95451,637.98799
				L272.19454,637.98799L272.19454,636.06778L272.6746,636.06778L272.6746,635.58773L272.91463,635.58773L272.91463,634.86765L273.3947,634.86765
				L273.3947,634.62763L273.63473,634.62763L273.63473,634.14758L273.87476,634.14758L273.87476,633.66752L274.35482,633.66752L
				274.35482,633.18747L274.59485,633.18747L274.59485,632.4674L275.07491,632.4674L275.07491,632.22737L275.31494,632.22737L275.31494,631.50729
				L275.795,631.50729L275.795,630.78722L276.03503,630.78722L276.03503,630.06714L276.51509,630.06714L276.51509,629.82712L276.75512,629.82712
				L276.75512,629.10704L276.99515,629.10704L276.99515,628.62699L277.47521,628.62699L277.47521,628.38696L277.71524,628.38696
				L277.71524,627.66689L278.1953,627.66689L278.1953,627.42686L278.43533,627.42686L278.43533,626.70678L278.9154,626.70678L278.9154,625.98671
				L279.15543,625.98671L279.15543,625.74668L279.39546,625.74668L279.39546,625.26663L279.87552,625.26663L279.87552,625.0266L
				280.11555,625.0266L280.11555,624.54655L280.83564,624.54655L280.83564,624.30653L281.55573,624.30653L281.55573,623.82648L282.27582,623.82648
				L282.27582,623.58645L282.51585,623.58645L282.51585,623.1064L282.99591,623.1064L282.99591,623.58645L283.23594,623.58645L283.23594,626.94681
				L283.716,626.94681L283.716,632.22737L283.95604,632.22737L283.95604,636.30781L290.19683,636.30781L290.19683,636.06778L298.11783,636.06778
				L298.11783,635.58773L301.23823,635.58773L301.23823,636.06778L301.95832,636.06778L301.95832,636.30781L302.19835,636.30781
				L302.19835,637.02788L302.67841,637.02788L302.67841,637.26791L302.91844,637.26791L302.91844,637.98799L303.3985,637.98799L
				303.3985,638.46804L304.11859,638.46804L304.11859,638.70806L304.35862,638.70806L304.35862,639.18811L304.59865,639.18811L304.59865,639.42814
				L305.07872,639.42814L305.07872,639.66816L305.31875,639.66816L305.31875,640.14822L305.79881,640.14822L305.79881,640.38824
				L306.5189,640.38824L306.5189,640.14822L315.16,640.14822L315.16,639.66816L319.24051,639.66816L319.24051,640.38824L319.48054,640.38824
				L319.48054,642.7885L319.9606,642.7885L319.9606,644.7087L320.20063,644.7087L320.20063,645.90883L320.6807,645.90883L320.6807,647.34898
				L320.92073,647.34898L320.92073,648.78914L321.16076,648.78914L321.16076,650.22929L321.64082,650.22929L321.64082,652.14949
				L321.88085,652.14949L321.88085,654.30972L322.36091,654.30972L322.36091,654.54975L322.60094,654.54975L322.60094,655.0298L
				323.081,655.0298L323.081,655.26983L323.80109,655.26983"/>
			<path clip-path="url(#SVG_CP_2)" fill="none" stroke="#999999" stroke-width="0.96012" stroke-miterlimit="10" stroke-linecap="round" stroke-linejoin="round" d="
				M323.80109,655.26983L323.80109,655.74988L324.04112,655.74988L324.04112,655.9899L324.28115,655.9899L324.28115,656.46995L324.76121,656.46995
				L324.76121,656.70998L325.48131,656.70998L325.48131,656.95001L325.72134,656.95001L325.72134,657.43006L326.2014,657.43006L
				326.2014,657.67008L326.44143,657.67008L326.44143,658.15013L327.16152,658.15013L327.16152,658.39016L327.40155,658.39016L327.40155,658.87021
				L328.12164,658.87021L328.12164,659.11024L328.84173,659.11024L328.84173,659.35026L329.56182,659.35026L329.56182,659.83031
				L329.80185,659.83031L329.80185,660.07034L330.52194,660.07034L330.52194,660.55039L331.24204,660.55039L331.24204,660.79041
				L331.7221,660.79041L331.7221,661.27047L332.20216,661.27047L332.20216,661.51049L332.92225,661.51049L332.92225,661.99054L333.64234,661.99054
				L333.64234,662.23057L334.84249,662.23057L334.84249,662.47059L336.04265,662.47059L336.04265,662.95065L337.2428,662.95065L
				337.2428,663.19067L338.20292,663.19067L338.20292,663.67072L340.84325,663.67072L340.84325,663.91075L343.48359,663.91075L343.48359,664.3908
				L344.68374,664.3908L344.68374,664.63082L346.12392,664.63082L346.12392,664.87085L347.56411,664.87085L347.56411,665.3509L349.24432,665.3509
				L349.24432,665.59093L350.6845,665.59093L350.6845,666.07098L351.88466,666.07098L351.88466,666.311L353.32484,666.311L353.32484,666.79105
				L354.76502,666.79105L354.76502,667.03108L356.44523,667.03108L356.44523,667.51113L357.88542,667.51113L357.88542,667.75116
				L359.3256,667.75116L359.3256,667.99118L360.52575,667.99118L360.52575,668.47123L361.96594,668.47123L361.96594,668.71126L363.40612,668.71126
				L363.40612,669.19131L365.08633,669.19131L365.08633,669.43134L366.52651,669.43134L366.52651,669.91139L367.9667,669.91139L
				367.9667,670.15141L369.16685,670.15141L369.16685,670.39144L370.60703,670.39144L370.60703,671.11151L370.367,671.11151L370.367,672.31164
				"/>
		</g>
</g></svg>