<?xml version="1.0" encoding="utf-8" standalone="no"?>
<!-- Creator: ESRI ArcMap 10.0.0.2414 -->
<!DOCTYPE svg PUBLIC "-//W3C//DTD SVG 1.1//EN"  "http://www.w3.org/Graphics/SVG/1.1/DTD/svg11.dtd">
<svg width="524.0420768pt" height="297.538603152pt" viewBox="32.15712744 272.359833424 524.0420768 297.538603152" enable-background="new 32.15712744 272.359833424 524.0420768 297.538603152"
	version="1.1" xmlns="http://www.w3.org/2000/svg" xmlns:xlink="http://www.w3.org/1999/xlink" >
	<g id="Couches">
		<g id="cont_2">
			<path clip-path="url(#SVG_CP_2)" fill="none" stroke="#999999" stroke-width="0.96012" stroke-miterlimit="10" stroke-linecap="round" stroke-linejoin="round" d="
				M208.10641,322.11433L204.98601,322.11433L203.06577,322.11433L203.06577,321.8743L206.4262,321.8743L206.4262,322.11433L208.10641,322.11433
				L208.10641,321.8743L208.10641,322.11433"/>
			<path clip-path="url(#SVG_CP_2)" fill="none" stroke="#999999" stroke-width="0.96012" stroke-miterlimit="10" stroke-linecap="round" stroke-linejoin="round" d="
				M159.86029,344.91676L159.86029,344.67673L159.62026,344.67673L159.38023,344.67673L159.38023,344.4367L159.1402,344.4367L159.1402,344.19668
				L158.90017,344.19668L158.66013,344.19668L158.66013,343.95665L158.4201,343.95665L158.4201,343.71663L158.18007,343.71663L157.94004,343.71663
				L157.94004,343.4766L157.45998,343.4766L156.97992,343.4766L156.97992,343.23658L156.49986,343.23658L156.0198,343.23658L156.0198,342.99655
				L155.53974,342.99655L155.53974,342.75652L155.05968,342.75652L154.57962,342.75652L154.57962,342.5165L154.09956,342.5165L153.6195,342.5165
				L153.6195,342.27647L152.8994,342.27647L152.41934,342.27647L152.41934,342.03645L152.17931,342.03645L151.69925,342.03645L151.69925,341.79642
				L151.21919,341.79642L150.73913,341.79642L150.73913,341.5564L150.25907,341.5564L149.77901,341.5564L149.77901,341.31637L149.53898,341.31637
				L149.05892,341.31637L149.05892,341.07635L148.57886,341.07635L148.09879,341.07635L148.09879,340.83632L147.61873,340.83632
				L147.3787,340.83632L147.3787,340.59629L146.89864,340.59629L146.89864,340.35627L146.65861,340.35627L146.17855,340.35627L146.17855,340.11624
				L145.93852,340.11624L145.45846,340.11624L145.45846,339.87622L144.9784,339.87622L144.73837,339.87622L144.73837,339.63619L
				144.25831,339.63619L143.77825,339.63619L143.77825,339.39617L143.53822,339.39617L143.05815,339.39617L143.05815,339.15614L
				142.57809,339.15614L142.33806,339.15614L142.33806,338.91612L141.858,338.91612L141.61797,338.91612L141.61797,338.67609L141.13791,338.67609
				L140.89788,338.67609L140.89788,338.43606L140.41782,338.43606L139.93776,338.43606L139.93776,338.19604L139.4577,338.19604L
				139.21767,338.19604L139.21767,337.95601L138.73761,337.95601L138.73761,337.71599L138.49758,337.71599L138.25755,337.71599L
				138.25755,337.47596L138.01752,337.47596L137.77748,337.47596L137.77748,337.23594L137.53745,337.23594L137.53745,336.99591L
				137.29742,336.99591L137.05739,336.99591L137.05739,336.75589L136.81736,336.75589L136.81736,336.51586L136.57733,336.51586L
				136.3373,336.51586L136.3373,336.27583L136.09727,336.27583L136.09727,336.03581L135.85724,336.03581L135.61721,336.03581L135.61721,335.79578
				L135.37718,335.79578L135.13715,335.79578L135.13715,335.55576L135.13715,335.31573L134.89712,335.31573L134.65709,335.31573
				L134.65709,335.07571L134.41706,335.07571L134.41706,334.83568L134.17703,334.83568L133.937,334.83568L133.937,334.59566L133.69697,334.59566
				L133.69697,334.35563L133.45694,334.35563L133.21691,334.35563L133.21691,334.1156L132.97688,334.1156L132.73685,334.1156L132.73685,333.87558
				L132.49681,333.87558L132.49681,333.63555L132.25678,333.63555L132.01675,333.63555L132.01675,333.39553L131.77672,333.39553
				L131.77672,333.1555L131.53669,333.1555L131.29666,333.1555L131.29666,332.91548L131.05663,332.91548L131.05663,332.67545L130.8166,332.67545
				L130.8166,332.43543L130.33654,332.43543L130.09651,332.43543L130.09651,332.1954L129.85648,332.1954L129.85648,331.95537L129.61645,331.95537
				L129.37642,331.95537L129.37642,331.71535L129.13639,331.71535L129.13639,331.47532L128.89636,331.47532L128.65633,331.47532
				L128.65633,331.2353L128.4163,331.2353L128.17627,331.2353L128.17627,330.99527L127.93624,330.99527L127.69621,330.99527L127.69621,330.75525
				L127.45618,330.75525L127.45618,330.51522L127.21614,330.51522L127.21614,330.27519L126.97611,330.27519L126.73608,330.27519
				L126.73608,330.03517L126.49605,330.03517L126.49605,329.79514L126.25602,329.79514L126.25602,330.03517L126.25602,330.27519
				L126.01599,330.27519L126.01599,330.75525L126.01599,331.2353L125.77596,331.2353L125.77596,331.47532L125.77596,331.95537L125.53593,331.95537
				L125.2959,331.95537L125.2959,330.75525L125.53593,330.75525L125.53593,330.51522L125.77596,330.51522L125.77596,329.79514L125.77596,329.07507
				L126.01599,329.07507L126.01599,328.83504L126.25602,328.83504L127.69621,328.83504L127.69621,328.59502L128.4163,328.59502L
				128.4163,328.83504L128.65633,328.83504L128.89636,328.83504L128.89636,329.07507L129.13639,329.07507L129.85648,329.07507L129.85648,329.31509
				L130.57657,329.31509L131.05663,329.31509L131.05663,329.55512L131.53669,329.55512L132.01675,329.55512L132.01675,329.79514
				L132.49681,329.79514L132.97688,329.79514L132.97688,330.03517L133.45694,330.03517L133.45694,330.27519L133.69697,330.27519
				L133.937,330.27519L133.937,330.51522L134.17703,330.51522L134.17703,330.75525L134.41706,330.75525L134.65709,330.75525L134.65709,330.99527
				L135.13715,330.99527L135.37718,330.99527L135.37718,331.2353L136.09727,331.2353L136.57733,331.2353L136.57733,331.47532L136.81736,331.47532
				L137.05739,331.47532L137.05739,331.71535L137.53745,331.71535L137.77748,331.71535L137.77748,331.95537L138.49758,331.95537
				L138.73761,331.95537L138.73761,332.1954L138.97764,332.1954L139.4577,332.1954L139.4577,332.43543L139.69773,332.43543L140.17779,332.43543
				L140.17779,332.67545L140.65785,332.67545L141.13791,332.67545L141.13791,332.91548L141.61797,332.91548L141.61797,333.1555L
				142.33806,333.1555L143.05815,333.1555L143.05815,333.39553L144.01828,333.39553L144.73837,333.39553L144.73837,333.63555L145.45846,333.63555
				L145.93852,333.63555L145.93852,333.87558L146.65861,333.87558L147.13867,333.87558L147.13867,334.1156L148.33883,334.1156L149.05892,334.1156
				L149.05892,334.35563L149.77901,334.35563L150.4991,334.35563L150.4991,334.59566L151.21919,334.59566L151.69925,334.59566L151.69925,334.83568
				L152.41934,334.83568L153.85953,334.83568L153.85953,334.59566L154.09956,334.59566L154.09956,334.35563L154.33959,334.35563
				L154.33959,334.1156L154.57962,334.1156L154.57962,333.87558L154.81965,333.87558L154.81965,333.63555L155.05968,333.63555L155.05968,333.39553
				L155.05968,333.1555L155.29971,333.1555L155.53974,333.1555L155.53974,332.91548L155.53974,332.67545L155.77977,332.67545L155.77977,332.1954
				L156.0198,332.1954L156.0198,331.95537L156.0198,331.47532L156.25983,331.47532L156.25983,331.2353L156.25983,330.99527L156.49986,330.99527
				L156.49986,330.51522L156.73989,330.51522L156.73989,330.27519L156.73989,329.79514L156.97992,329.79514L156.97992,329.55512
				L157.21995,329.55512L157.21995,329.31509L157.21995,329.07507L157.45998,329.07507L157.45998,328.83504L157.70001,328.83504
				L157.70001,328.59502L157.70001,328.35499L157.94004,328.35499L157.94004,328.11496L158.18007,328.11496L158.18007,327.87494
				L158.4201,327.87494L158.4201,327.63491L158.66013,327.63491L158.66013,327.39489L158.90017,327.39489L158.90017,327.15486L159.1402,327.15486
				L159.1402,326.91484L159.1402,326.67481L159.38023,326.67481L159.38023,326.43479L159.62026,326.43479L159.62026,326.19476L159.86029,326.19476
				L159.86029,325.95473L160.10032,325.95473L160.10032,325.71471L160.34035,325.71471L160.34035,325.47468L160.34035,325.23466
				L160.58038,325.23466L160.58038,324.99463L160.82041,324.99463L160.82041,324.75461L161.06044,324.75461L161.06044,324.51458
				L161.30047,324.51458L161.30047,324.27456L161.5405,324.27456L161.5405,324.03453L161.78053,324.03453L162.02056,324.03453L162.02056,323.7945
				L162.26059,323.7945L162.26059,323.55448L162.26059,323.31445L162.50062,323.31445L162.50062,322.8344L162.74065,322.8344L162.98068,322.8344
				L162.98068,322.59438L164.90093,322.59438L165.38099,322.59438L165.38099,322.8344L165.86105,322.8344L166.34111,322.8344L166.34111,323.07443
				L166.34111,323.31445L166.58114,323.31445L166.82117,323.31445L166.82117,323.55448L167.0612,323.55448L167.0612,323.7945L167.30123,323.7945
				L167.54126,323.7945L167.54126,323.55448L167.78129,323.55448L167.78129,323.31445L168.02132,323.31445L168.02132,323.07443L
				168.26135,323.07443L168.26135,322.8344L168.74141,322.8344L171.86181,322.8344L171.86181,322.59438L173.06196,322.59438L173.54202,322.59438
				L173.54202,322.35435L173.54202,322.11433L173.78205,322.11433L173.78205,321.8743L174.02208,321.8743L174.02208,321.63427L174.26211,321.63427
				L174.26211,321.39425L174.50215,321.39425L174.50215,321.15422L174.74218,321.15422L174.98221,321.15422L174.98221,320.9142L
				175.7023,320.9142L175.7023,321.15422L175.94233,321.15422L175.94233,320.9142L176.18236,320.9142L176.18236,321.15422L176.42239,321.15422
				L176.42239,320.9142L179.54278,320.9142L180.02285,320.9142L180.26288,320.9142L181.223,320.9142L181.223,320.67417L182.18312,320.67417
				L185.78358,320.67417L186.02361,320.67417L186.50367,320.67417L188.90397,320.67417L188.90397,320.9142L189.38403,320.9142L189.38403,320.67417
				L190.34416,320.67417L190.34416,320.9142L191.54431,320.9142L192.50443,320.9142L192.50443,321.15422L193.22452,321.15422L193.94461,321.15422
				L193.94461,321.39425L194.6647,321.39425L195.3848,321.39425L195.3848,321.63427L196.10489,321.63427L196.58495,321.63427L196.58495,321.8743
				L197.06501,321.8743L196.34492,321.8743L192.74446,321.8743L192.74446,321.63427L174.98221,321.63427L174.98221,324.27456L174.02208,324.27456
				L174.02208,324.03453L172.5819,324.03453L171.38175,324.03453L171.38175,323.7945L169.94157,323.7945L168.74141,323.7945L168.74141,324.27456
				L168.50138,324.27456L168.50138,324.99463L168.50138,325.71471L168.26135,325.71471L168.26135,326.19476L168.02132,326.19476
				L168.02132,326.67481L168.02132,327.15486L167.54126,327.15486L167.54126,326.91484L167.0612,326.91484L166.58114,326.91484L
				166.58114,326.67481L166.10108,326.67481L165.38099,326.67481L165.38099,326.43479L165.62102,326.43479L165.62102,324.99463L
				165.86105,324.99463L165.86105,323.55448L165.38099,323.55448L165.38099,323.31445L164.6609,323.31445L164.18084,323.31445L164.18084,323.07443
				L163.46074,323.07443L163.46074,322.8344L163.46074,323.31445L163.22071,323.31445L163.22071,323.7945L162.98068,323.7945L162.98068,324.27456
				L162.98068,324.75461L162.74065,324.75461L162.74065,325.23466L162.74065,325.71471L162.50062,325.71471L162.50062,326.19476
				L162.50062,326.91484L162.26059,326.91484L162.26059,327.39489L162.26059,328.35499L162.02056,328.35499L162.02056,328.83504
				L162.02056,330.27519L161.78053,330.27519L161.78053,331.95537L161.78053,333.1555L161.5405,333.1555L161.5405,333.87558L161.5405,334.59566
				L161.30047,334.59566L161.30047,335.31573L161.30047,336.03581L161.06044,336.03581L161.06044,336.75589L161.06044,337.23594
				L160.82041,337.23594L160.82041,338.43606L160.58038,338.43606L160.58038,339.39617L160.58038,340.11624L160.34035,340.11624
				L160.34035,341.31637L160.34035,342.27647L160.10032,342.27647L160.10032,343.23658L160.10032,344.19668L159.86029,344.19668
				L159.86029,344.91676"/>
			<path clip-path="url(#SVG_CP_2)" fill="none" stroke="#999999" stroke-width="0.96012" stroke-miterlimit="10" stroke-linecap="round" stroke-linejoin="round" d="
				M178.1026,370.59949L176.90245,370.59949L176.90245,368.19924L176.66242,368.19924L176.66242,364.59885L176.66242,362.91867L
				176.42239,362.91867L176.42239,361.47852L176.42239,359.79834L176.18236,359.79834L176.18236,358.59821L175.22224,358.59821L
				174.26211,358.59821L174.26211,358.35819L173.06196,358.35819L172.10184,358.35819L172.10184,358.11816L170.90169,358.11816L
				170.90169,357.87814L169.70154,357.87814L168.74141,357.87814L168.74141,357.63811L167.54126,357.63811L166.58114,357.63811L
				166.58114,357.39809L165.86105,357.39809L164.6609,357.39809L164.6609,357.15806L163.70077,357.15806L162.74065,357.15806L162.74065,356.91803
				L161.78053,356.91803L160.82041,356.91803L160.82041,356.67801L159.86029,356.67801L158.90017,356.67801L158.90017,356.43798
				L157.94004,356.43798L156.97992,356.43798L156.97992,356.19796L156.25983,356.19796L155.29971,356.19796L155.29971,355.95793
				L154.33959,355.95793L153.6195,355.95793L153.6195,355.71791L152.65937,355.71791L152.65937,355.47788L151.21919,355.47788L149.77901,355.47788
				L149.77901,355.23785L148.33883,355.23785L148.33883,352.59757L150.73913,352.59757L156.49986,352.59757L156.49986,352.8376L
				159.38023,352.8376L161.78053,352.8376L161.78053,353.07762L163.94081,353.07762L163.94081,353.31765L168.74141,353.31765L175.22224,353.31765
				L175.22224,353.55768L181.46303,353.55768L185.54355,353.55768L187.46379,353.55768L187.46379,353.31765L188.90397,353.31765
				L189.62406,353.31765L189.62406,353.07762L190.34416,353.07762L190.34416,352.8376L191.30428,352.8376L192.02437,352.8376L192.02437,352.59757
				L192.74446,352.59757L193.70458,352.59757L193.70458,352.35755L194.18464,352.35755L194.6647,352.35755L194.6647,352.11752L194.90473,352.11752
				L195.3848,352.11752L195.3848,351.8775L196.10489,351.8775L196.34492,351.8775L196.34492,351.63747L196.82498,351.63747L197.30504,351.63747
				L197.30504,351.39745L197.7851,351.39745L198.26516,351.39745L198.26516,351.15742L198.74522,351.15742L199.22528,351.15742L
				199.22528,350.91739L199.70534,350.91739L199.94537,350.91739L199.94537,350.67737L200.1854,350.67737L200.1854,350.43734L200.66547,350.43734
				L200.9055,350.43734L200.9055,350.19732L201.14553,350.19732L201.62559,350.19732L201.62559,349.95729L201.86562,349.95729L202.10565,349.95729
				L202.10565,349.71727L202.34568,349.71727L202.82574,349.71727L202.82574,349.47724L203.06577,349.47724L203.3058,349.47724L
				203.3058,349.23722L203.78586,349.23722L204.02589,349.23722L204.02589,348.99719L204.26592,348.99719L204.50595,348.99719L204.50595,348.75716
				L204.98601,348.75716L205.22604,348.75716L205.22604,348.51714L205.46607,348.51714L205.70611,348.51714L205.70611,348.27711
				L206.18617,348.27711L206.4262,348.27711L206.4262,348.03709L206.66623,348.03709L206.66623,347.79706L206.90626,347.79706L207.14629,347.79706
				L207.14629,347.55704L207.38632,347.55704L207.62635,347.55704L207.62635,347.31701L208.10641,347.31701L208.34644,347.31701
				L208.34644,347.07699L208.58647,347.07699L208.8265,347.07699L208.8265,346.83696L209.30656,346.83696L209.54659,346.83696L209.54659,346.59693
				L209.78662,346.59693L210.02665,346.59693L210.02665,346.35691L210.26668,346.35691L210.50671,346.35691L210.50671,346.11688
				L210.98678,346.11688L211.22681,346.11688L211.22681,345.87686L211.46684,345.87686L211.46684,345.63683L211.70687,345.63683
				L211.70687,345.39681L211.9469,345.39681L212.18693,345.39681L212.18693,345.15678L212.42696,345.15678L212.66699,345.15678L
				212.66699,344.91676L212.90702,344.91676L213.14705,344.91676L213.14705,344.67673L213.38708,344.67673L213.62711,344.67673L
				213.62711,344.4367L213.86714,344.4367L214.10717,344.4367L214.10717,344.19668L214.3472,344.19668L214.58723,344.19668L214.58723,343.95665
				L214.82726,343.95665L214.82726,343.71663L215.06729,343.71663L215.30732,343.71663L215.30732,343.4766L215.54735,343.4766L216.02742,343.4766
				L216.02742,343.23658L216.26745,343.23658L216.26745,342.99655L216.50748,342.99655L216.50748,342.75652L216.74751,342.75652
				L216.98754,342.75652L216.98754,342.5165L217.22757,342.5165L217.22757,342.27647L217.4676,342.27647L217.4676,342.03645L217.70763,342.03645
				L217.94766,342.03645L217.94766,341.79642L218.18769,341.79642L218.18769,341.5564L218.42772,341.5564L218.66775,341.5564L218.66775,341.31637
				L218.90778,341.31637L218.90778,341.07635L219.14781,341.07635L219.14781,340.83632L219.38784,340.83632L219.38784,340.59629
				L219.62787,340.59629L219.62787,340.35627L219.8679,340.35627L219.8679,340.11624L220.10793,340.11624L220.34796,340.11624L220.34796,339.87622
				L220.58799,339.87622L220.58799,339.63619L221.06805,339.63619L221.06805,339.39617L221.30809,339.39617L221.30809,339.15614
				L221.54812,339.15614L221.54812,338.91612L221.78815,338.91612L221.78815,338.67609L222.02818,338.67609L222.26821,338.67609
				L222.26821,338.43606L222.50824,338.43606L222.50824,338.19604L222.74827,338.19604L222.74827,337.95601L222.9883,337.95601L
				222.9883,337.71599L223.22833,337.71599L223.22833,337.47596L223.46836,337.47596L223.46836,337.23594L223.70839,337.23594L223.70839,336.99591
				L223.94842,336.99591L223.94842,336.75589L224.18845,336.75589L224.42848,336.75589L224.42848,336.51586L224.66851,336.51586
				L224.66851,336.27583L224.90854,336.27583L224.90854,336.03581L225.14857,336.03581L225.14857,335.79578L225.3886,335.79578L
				225.3886,335.55576L225.62863,335.55576L225.62863,335.31573L225.86866,335.31573L225.86866,335.07571L226.10869,335.07571L226.10869,334.83568
				L226.34872,334.83568L226.34872,334.59566L226.58876,334.59566L226.58876,334.35563L226.82879,334.35563L226.82879,334.1156L
				227.06882,334.1156L227.30885,334.1156L227.30885,333.87558L227.54888,333.87558L227.54888,333.63555L227.78891,333.63555L227.78891,333.39553
				L228.02894,333.39553L228.02894,333.1555L228.26897,333.1555L228.26897,332.91548L228.26897,332.67545L228.509,332.67545L228.74903,332.67545
				L228.74903,332.43543L228.98906,332.43543L228.98906,332.1954L229.22909,332.1954L229.22909,331.95537L229.46912,331.95537L229.46912,331.71535
				L229.70915,331.71535L229.70915,332.43543L229.46912,332.43543L229.46912,332.67545L229.46912,333.1555L229.22909,333.1555L229.22909,333.39553
				L228.98906,333.39553L228.98906,333.63555L228.74903,333.63555L228.74903,333.87558L228.74903,334.1156L228.509,334.1156L228.509,334.35563
				L228.26897,334.35563L228.26897,334.59566L228.02894,334.59566L228.02894,334.83568L227.78891,334.83568L227.78891,335.07571
				L227.78891,335.31573L227.54888,335.31573L227.54888,335.55576L227.54888,335.79578L227.30885,335.79578L227.30885,336.03581
				L227.06882,336.03581L227.06882,336.27583L226.82879,336.27583L226.82879,336.51586L226.82879,336.75589L226.58876,336.75589
				L226.58876,336.99591L226.34872,336.99591L226.34872,337.23594L226.10869,337.23594L226.10869,337.47596L226.10869,337.71599
				L225.86866,337.71599L225.62863,337.71599L225.62863,337.95601L225.62863,338.19604L225.3886,338.19604L225.3886,338.43606L225.14857,338.43606
				L225.14857,338.67609L225.14857,338.91612L224.90854,338.91612L224.90854,339.15614L224.66851,339.15614L224.66851,339.39617
				L224.42848,339.39617L224.42848,339.63619L224.42848,339.87622L224.18845,339.87622L224.18845,340.11624L223.94842,340.11624
				L223.94842,340.35627L223.70839,340.35627L223.70839,340.59629L223.70839,340.83632L223.46836,340.83632L223.22833,340.83632
				L223.22833,341.07635L222.9883,341.07635L222.9883,341.31637L222.9883,341.5564L222.74827,341.5564L222.74827,341.79642L222.50824,341.79642
				L222.50824,342.03645L222.26821,342.03645L222.26821,342.27647L222.02818,342.27647L222.02818,342.99655L222.26821,342.99655
				L222.26821,343.71663L222.26821,344.4367L222.50824,344.4367L222.50824,345.15678L222.50824,345.63683L222.74827,345.63683L222.74827,346.35691
				L222.74827,347.07699L222.9883,347.07699L222.9883,348.03709L222.9883,349.23722L223.22833,349.23722L223.22833,351.15742L223.22833,352.35755
				L223.46836,352.35755L223.46836,353.55768L223.22833,353.55768L223.22833,354.03773L223.46836,354.03773L223.46836,354.27775
				L223.22833,354.27775L223.22833,355.47788L223.46836,355.47788L223.46836,356.19796L223.70839,356.19796L223.70839,359.55832
				L223.46836,359.55832L223.46836,360.27839L223.22833,360.27839L223.22833,360.75844L223.22833,360.99847L222.9883,360.99847L
				222.9883,361.23849L222.9883,361.47852L222.74827,361.47852L222.74827,361.71855L222.50824,361.71855L222.50824,362.1986L222.50824,362.43862
				L222.26821,362.43862L222.26821,362.67865L222.26821,363.1587L222.02818,363.1587L222.02818,363.39872L222.02818,363.87878L221.78815,363.87878
				L221.78815,365.79898L221.78815,366.27903L221.54812,366.27903L221.54812,366.51906L221.54812,366.75908L221.30809,366.75908
				L221.30809,366.99911L221.30809,367.23913L221.06805,367.23913L221.06805,367.47916L221.06805,367.71918L220.82802,367.71918
				L220.58799,367.71918L220.58799,367.95921L220.58799,368.19924L220.34796,368.19924L220.34796,368.67929L220.34796,369.87942
				L220.10793,369.87942L220.10793,370.11944L219.8679,370.11944L219.8679,369.63939L219.8679,369.39936L219.62787,369.39936L219.62787,368.91931
				L219.62787,368.67929L219.38784,368.67929L219.38784,367.95921L219.38784,367.71918L219.14781,367.71918L219.14781,367.23913
				L219.14781,366.99911L218.90778,366.99911L218.90778,366.51906L218.90778,366.27903L218.66775,366.27903L218.66775,365.79898
				L218.66775,365.31893L218.42772,365.31893L218.42772,364.83888L218.18769,364.83888L218.18769,364.59885L218.18769,364.1188L
				217.94766,364.1188L217.94766,363.87878L217.94766,363.39872L217.70763,363.39872L217.70763,362.91867L217.70763,362.43862L217.4676,362.43862
				L217.4676,362.1986L217.4676,361.71855L217.22757,361.71855L217.22757,361.47852L217.22757,360.99847L216.98754,360.99847L216.98754,361.23849
				L216.50748,361.23849L216.26745,361.23849L216.26745,361.47852L216.02742,361.47852L215.54735,361.47852L215.54735,361.71855
				L215.30732,361.71855L214.82726,361.71855L214.82726,361.95857L214.58723,361.95857L214.10717,361.95857L214.10717,362.1986L
				213.86714,362.1986L213.62711,362.1986L213.62711,362.43862L213.14705,362.43862L212.90702,362.43862L212.90702,362.67865L212.66699,362.67865
				L212.42696,362.67865L212.42696,362.91867L212.18693,362.91867L211.9469,362.91867L211.9469,363.1587L211.70687,363.1587L211.70687,363.39872
				L211.46684,363.39872L211.46684,363.63875L211.22681,363.63875L210.74674,363.63875L210.74674,363.87878L210.26668,363.87878
				L209.78662,363.87878L209.78662,364.1188L209.30656,364.1188L208.8265,364.1188L208.8265,364.35883L208.10641,364.35883L208.10641,364.59885
				L207.86638,364.59885L207.62635,364.59885L207.62635,364.83888L206.18617,364.83888L205.70611,364.83888L205.70611,365.0789L
				205.46607,365.0789L204.98601,365.0789L204.98601,365.31893L204.74598,365.31893L204.50595,365.31893L204.50595,365.55895L204.26592,365.55895
				L204.26592,365.79898L204.02589,365.79898L203.78586,365.79898L203.78586,366.03901L203.54583,366.03901L203.54583,366.27903
				L203.3058,366.27903L203.3058,366.51906L203.06577,366.51906L203.06577,366.75908L202.82574,366.75908L202.82574,366.99911L202.58571,366.99911
				L202.58571,366.51906L202.34568,366.51906L202.34568,366.27903L202.34568,365.79898L202.10565,365.79898L202.10565,365.55895
				L201.86562,365.55895L201.86562,365.79898L200.66547,365.79898L199.46531,365.79898L199.46531,366.03901L198.50519,366.03901
				L197.54507,366.03901L197.54507,366.27903L196.58495,366.27903L196.10489,366.27903L196.10489,366.51906L195.3848,366.51906L
				195.14476,366.51906L195.14476,366.75908L194.90473,366.75908L194.90473,366.99911L194.90473,368.91931L195.14476,368.91931L
				195.14476,369.39936L189.86409,369.39936L189.86409,369.63939L189.62406,369.63939L189.62406,369.87942L189.62406,370.11944L
				189.38403,370.11944L189.38403,370.35947L188.66394,370.35947L188.66394,370.11944L187.94385,370.11944L187.22376,370.11944L
				187.22376,369.87942L186.98373,369.87942L186.98373,370.11944L186.7437,370.11944L185.54355,370.11944L185.54355,370.35947L184.58342,370.35947
				L178.1026,370.35947L178.1026,370.59949"/>
			<path clip-path="url(#SVG_CP_2)" fill="none" stroke="#999999" stroke-width="0.96012" stroke-miterlimit="10" stroke-linecap="round" stroke-linejoin="round" d="
				M132.73685,372.5197L132.73685,372.03965L132.49681,372.03965L132.49681,371.79962L132.49681,371.31957L132.25678,371.31957L
				132.25678,370.83952L132.25678,369.15934L132.01675,369.15934L132.01675,368.43926L132.01675,367.95921L131.77672,367.95921L
				131.77672,367.71918L131.77672,367.47916L131.53669,367.47916L131.53669,366.75908L131.53669,366.51906L131.29666,366.51906L
				131.29666,366.27903L131.29666,366.03901L131.05663,366.03901L131.05663,365.55895L131.05663,365.0789L130.8166,365.0789L130.8166,364.59885
				L130.8166,363.63875L130.57657,363.63875L130.57657,362.1986L130.8166,362.1986L130.8166,360.27839L130.57657,360.27839L130.33654,360.27839
				L130.33654,360.03837L130.33654,359.55832L130.09651,359.55832L130.09651,359.31829L130.09651,359.07826L129.85648,359.07826
				L129.85648,358.83824L129.85648,358.59821L129.61645,358.59821L129.61645,358.11816L129.61645,357.87814L129.37642,357.87814
				L129.37642,357.63811L129.37642,357.15806L129.13639,357.15806L129.13639,356.91803L129.13639,356.43798L128.89636,356.43798
				L128.89636,356.19796L128.65633,356.19796L128.65633,355.71791L128.65633,355.47788L128.4163,355.47788L128.4163,355.23785L128.4163,354.7578
				L128.17627,354.7578L128.17627,354.03773L127.93624,354.03773L127.93624,353.55768L127.93624,351.8775L127.69621,351.8775L127.69621,351.15742
				L127.69621,350.67737L127.45618,350.67737L127.45618,350.19732L127.45618,349.71727L127.21614,349.71727L127.21614,349.23722
				L127.21614,348.99719L126.97611,348.99719L126.97611,348.51714L126.97611,348.03709L126.73608,348.03709L126.73608,347.55704
				L126.73608,347.07699L126.49605,347.07699L126.49605,346.59693L126.49605,345.63683L126.49605,344.91676L126.73608,344.91676
				L126.73608,344.67673L126.73608,344.4367L126.97611,344.4367L126.97611,343.95665L126.97611,343.71663L127.21614,343.71663L127.21614,342.99655
				L126.97611,342.99655L126.97611,342.75652L126.97611,342.27647L126.73608,342.27647L126.73608,342.03645L126.73608,341.79642
				L126.49605,341.79642L126.49605,341.5564L126.49605,341.31637L126.25602,341.31637L126.25602,341.07635L126.25602,340.83632L
				126.01599,340.83632L126.01599,340.59629L126.01599,340.11624L125.77596,340.11624L126.01599,340.11624L126.25602,340.11624L
				126.25602,340.35627L126.49605,340.35627L126.73608,340.35627L126.73608,340.59629L126.73608,340.83632L126.97611,340.83632L
				127.21614,340.83632L127.21614,341.07635L127.45618,341.07635L127.69621,341.07635L127.69621,341.31637L127.93624,341.31637L
				127.93624,341.5564L128.4163,341.5564L128.4163,341.79642L128.65633,341.79642L128.89636,341.79642L128.89636,342.03645L129.13639,342.03645
				L129.37642,342.03645L129.37642,342.27647L129.37642,342.5165L129.37642,342.75652L129.13639,342.75652L129.13639,343.23658L
				129.13639,343.4766L129.37642,343.4766L129.37642,343.71663L129.85648,343.71663L130.33654,343.71663L130.33654,343.95665L130.8166,343.95665
				L131.29666,343.95665L131.29666,344.19668L131.53669,344.19668L132.01675,344.19668L132.01675,344.4367L132.49681,344.4367L132.97688,344.4367
				L132.97688,344.67673L133.69697,344.67673L134.17703,344.67673L134.17703,344.91676L134.65709,344.91676L135.13715,344.91676
				L135.13715,345.15678L135.85724,345.15678L136.3373,345.15678L136.3373,345.39681L136.09727,345.39681L135.85724,345.39681L135.85724,345.63683
				L135.61721,345.63683L135.61721,345.87686L135.37718,345.87686L135.13715,345.87686L135.13715,346.11688L134.89712,346.11688
				L134.89712,346.35691L134.65709,346.35691L134.89712,346.35691L134.89712,346.59693L135.13715,346.59693L135.37718,346.59693
				L135.37718,346.83696L135.61721,346.83696L135.85724,346.83696L135.85724,347.07699L136.09727,347.07699L136.3373,347.07699L
				136.3373,347.31701L136.57733,347.31701L136.81736,347.31701L136.81736,347.55704L137.05739,347.55704L137.05739,347.79706L137.29742,347.79706
				L137.53745,347.79706L137.53745,348.03709L137.77748,348.03709L137.77748,348.27711L138.01752,348.27711L138.25755,348.27711
				L138.25755,348.51714L138.49758,348.51714L138.73761,348.51714L138.73761,348.75716L138.97764,348.75716L139.21767,348.75716
				L139.21767,348.99719L139.4577,348.99719L139.4577,349.23722L139.69773,349.23722L139.93776,349.23722L139.93776,349.47724L140.17779,349.47724
				L140.41782,349.47724L140.41782,349.71727L140.65785,349.71727L140.89788,349.71727L140.89788,349.95729L141.13791,349.95729
				L141.37794,349.95729L141.37794,350.19732L141.61797,350.19732L141.61797,350.43734L141.858,350.43734L142.09803,350.43734L142.09803,350.67737
				L142.33806,350.67737L142.33806,350.91739L142.57809,350.91739L142.57809,352.59757L147.85876,352.59757L147.85876,355.23785
				L144.9784,355.23785L144.9784,355.47788L144.49834,355.47788L144.25831,355.47788L144.25831,355.71791L144.01828,355.71791L144.01828,355.95793
				L143.53822,355.95793L143.29819,355.95793L143.29819,356.19796L142.81812,356.19796L142.81812,356.43798L142.57809,356.43798
				L142.57809,356.67801L142.33806,356.67801L142.33806,356.91803L142.09803,356.91803L142.09803,357.15806L141.858,357.15806L141.858,357.39809
				L141.61797,357.39809L141.37794,357.39809L141.37794,357.63811L141.13791,357.63811L141.13791,357.87814L140.89788,357.87814
				L140.89788,358.11816L140.65785,358.11816L140.65785,358.35819L140.41782,358.35819L140.41782,358.59821L140.17779,358.59821
				L139.93776,358.59821L139.93776,358.83824L139.69773,358.83824L139.69773,359.07826L139.4577,359.07826L139.4577,359.31829L139.21767,359.31829
				L139.21767,359.55832L138.97764,359.55832L138.97764,359.79834L138.73761,359.79834L138.49758,359.79834L138.49758,360.03837
				L138.25755,360.03837L138.25755,360.27839L138.01752,360.27839L137.77748,360.27839L137.77748,360.51842L137.77748,360.75844
				L137.53745,360.75844L137.53745,360.99847L137.29742,360.99847L137.05739,360.99847L137.05739,361.23849L136.81736,361.23849
				L136.81736,361.47852L136.81736,361.71855L136.57733,361.71855L136.57733,362.1986L136.57733,362.43862L136.3373,362.43862L136.3373,362.67865
				L136.3373,362.91867L136.09727,362.91867L136.09727,363.39872L136.09727,363.63875L135.85724,363.63875L135.85724,364.1188L135.85724,364.35883
				L135.61721,364.35883L135.61721,364.59885L135.37718,364.59885L135.37718,364.83888L135.37718,365.31893L135.13715,365.31893
				L135.13715,365.55895L135.13715,366.03901L134.89712,366.03901L134.89712,366.27903L134.89712,366.51906L134.65709,366.51906
				L134.65709,366.75908L134.65709,367.23913L134.41706,367.23913L134.41706,367.47916L134.41706,367.71918L134.17703,367.71918
				L134.17703,367.95921L134.17703,368.43926L133.937,368.43926L133.937,368.91931L133.937,369.15934L133.69697,369.15934L133.69697,369.39936
				L133.69697,369.63939L133.45694,369.63939L133.45694,370.11944L133.45694,370.35947L133.21691,370.35947L133.21691,370.83952
				L132.97688,370.83952L132.97688,371.07954L132.97688,371.31957L132.73685,371.31957L132.73685,372.5197"/>
		</g>
</g></svg>