<?xml version="1.0" encoding="utf-8" standalone="no"?>
<!-- Creator: ESRI ArcMap 10.0.0.2414 -->
<!DOCTYPE svg PUBLIC "-//W3C//DTD SVG 1.1//EN"  "http://www.w3.org/Graphics/SVG/1.1/DTD/svg11.dtd">
<svg width="355.936584242pt" height="741.1872776pt" viewBox="119.782887879 45.48194658 355.936584242 741.1872776" enable-background="new 119.782887879 45.48194658 355.936584242 741.1872776"
	version="1.1" xmlns="http://www.w3.org/2000/svg" xmlns:xlink="http://www.w3.org/1999/xlink" >
	<g id="Couches">
		<g id="reservoirs">
			<path clip-path="url(#SVG_CP_2)" fill-opacity="0.2" fill="#07866D" fill-rule="evenodd" stroke="none" stroke-width="" stra="1.44018" stroke-miterlimit="10" stroke-linecap="round" stroke-linejoin="round" d="
				M233.06958,437.3266L241.23061,455.32852L248.1915,469.97008L257.55268,490.61228L264.99363,506.45397L273.87476,525.65601L291.87704,564.54016
				L297.39774,576.54144L301.95832,586.14246L308.43914,600.54399L312.27963,608.22481L315.64006,615.90563L317.32027,619.50602
				L319.9606,625.50666L322.84097,631.26727L325.72134,637.50793L326.2014,638.70806L329.08176,644.7087L331.48207,650.46932L329.56182,658.39016
				L330.52194,666.79105L329.80185,675.19195L326.68146,680.95256L326.2014,683.35282L325.96137,685.033L326.44143,685.9931L326.68146,686.47315
				L328.36167,688.63338L330.28191,690.79361L333.16228,692.47379L335.32255,694.394L341.56335,698.71446L343.00353,701.59476L343.96365,702.55487
				L346.60399,704.95512L350.44447,710.47571L355.96517,714.79617L359.80566,712.63594L363.16609,719.11663L367.48664,727.99758
				L370.84706,735.43837L378.28801,751.52008L382.60855,760.64106L383.80871,763.52136L385.48892,767.6018L378.28801,769.522L373.00734,770.4821
				L366.52651,771.92226L362.68603,771.92226L359.80566,771.68223L359.08557,772.16228L358.84554,771.92226L358.36548,770.72213
				L357.88542,770.00205L357.40536,769.76203L356.68526,769.522L354.76502,769.28198L353.56487,769.522L354.28496,770.4821L353.8049,770.96215
				L352.36472,771.68223L350.6845,771.44221L349.48435,771.68223L349.24432,770.4821L347.80414,770.72213L345.88389,769.04195L341.56335,765.20154
				L341.32332,764.72149L340.84325,765.20154L339.6431,763.04131L334.36243,766.64169L334.1224,767.12175L334.84249,769.76203L335.56258,771.68223
				L336.28268,773.84246L337.00277,776.00269L337.72286,777.44285L337.72286,778.883L325.72134,784.88364L324.76121,783.20346L324.04112,781.76331
				L323.56106,781.76331L323.32103,781.52328L323.32103,781.04323L322.36091,779.8431L321.64082,779.36305L321.40079,778.64297L
				321.40079,777.68287L319.9606,776.00269L319.72057,775.28262L319.24051,774.32251L312.51966,779.8431L307.95908,783.44348L307.23899,783.20346
				L306.03884,783.68351L305.07872,782.24336L306.27887,781.28325L307.23899,780.08313L307.71905,779.60308L307.95908,778.883L308.43914,778.16292
				L308.67917,777.44285L309.87933,776.48274L310.83945,775.28262L308.67917,771.92226L305.07872,773.84246L306.27887,776.72277
				L305.31875,777.20282L301.23823,767.6018L307.47902,763.04131L307.47902,762.08121L306.03884,759.68095L303.15847,755.60052L
				303.15847,755.12047L304.83869,754.40039L304.59865,753.92034L304.11859,752.96024L302.91844,750.80001L303.63853,750.55998L
				305.07872,749.8399L306.99896,748.8798L309.63929,748.39975L309.15923,747.19962L310.35939,745.99949L307.71905,741.19898L301.23823,744.55934
				L300.03808,743.35921L295.71753,736.87852L294.99744,735.43837L291.63701,729.91778L292.59713,729.43773L292.83716,728.95768
				L293.07719,728.47763L292.59713,727.99758L290.19683,725.59732L285.39622,719.35666L282.03579,715.27622L284.4361,712.87597L
				277.95527,704.95512L276.51509,703.75499L274.35482,704.95512L274.11479,704.95512L273.15466,703.51497L272.43457,703.03492L
				273.3947,700.39464L273.63473,700.15461L274.59485,698.71446L275.55497,697.75435L276.27506,697.03428L276.75512,696.79425L278.43533,695.83415
				L278.43533,694.87405L277.23518,690.79361L276.51509,687.67328L275.31494,684.55295L276.51509,683.83287L278.43533,682.87277
				L282.51585,680.47251L285.39622,678.79233L285.39622,678.55231L285.15619,677.83223L284.91616,672.55167L284.91616,671.59157
				L284.67613,667.99118L284.91616,664.3908L286.35634,661.99054L288.03655,659.59029L288.99668,658.39016L289.47674,656.70998L
				289.47674,655.74988L289.9568,653.34962L289.71677,651.18939L289.71677,650.22929L289.71677,648.54911L289.47674,647.34898L290.67689,643.98862
				L291.15695,643.26855L291.15695,641.82839L291.39698,639.90819L290.91692,639.42814L290.43686,639.42814L286.35634,641.10832
				L283.47597,642.30845L279.87552,644.22865L278.1953,644.94873L277.47521,643.98862L276.03503,643.7486L275.31494,643.7486L274.11479,644.46868
				L271.71448,640.86829L268.59409,642.06842L266.67384,638.94809L265.71372,639.42814L265.47369,639.18811L264.27354,639.42814
				L263.79348,638.94809L262.59332,639.66816L257.79272,631.98735L257.79272,630.30717L259.71296,629.58709L255.63244,622.62635
				L252.51205,624.0665L251.07186,624.78658L244.35101,628.62699L240.51052,629.58709L239.79043,628.86701L239.5504,628.38696L236.43,623.82648
				L233.78967,620.46612L232.10946,618.54591L232.58952,618.06586L236.91007,610.62507L235.22985,610.14502L236.18997,609.42494
				L235.46988,608.70486L237.87019,606.06458L237.87019,604.3844L238.35025,603.90435L239.07034,602.94425L237.87019,602.22417L
				234.74979,600.06394L232.10946,598.62379L228.98906,598.14374L224.90854,600.30397L224.18845,600.54399L222.9883,600.78402L220.34796,599.82392
				L217.94766,599.10384L215.54735,598.62379L213.62711,595.50346L213.62711,595.26343L213.14705,593.82328L211.9469,592.1431L211.22681,590.70295
				L210.02665,588.06266L203.06577,592.86318L202.82574,592.86318L201.86562,593.34323L201.14553,593.82328L199.70534,595.02341
				L196.58495,597.18364L193.70458,598.86382L192.98449,597.66369L192.50443,596.94361L191.78434,596.22353L191.06425,597.18364
				L188.90397,599.34387L186.98373,600.78402L184.82346,602.22417L184.34339,602.70423L183.86333,602.22417L183.6233,601.02405L
				182.42315,599.58389L176.18236,603.18428L175.7023,602.70423L175.46227,602.22417L170.1816,606.06458L168.26135,607.50474L163.94081,603.90435
				L163.46074,603.18428L163.46074,602.70423L164.6609,599.82392L165.62102,597.66369L166.10108,596.70359L162.26059,594.30333L
				159.38023,592.62315L155.05968,596.70359L152.41934,593.1032L147.13867,595.98351L146.41858,596.46356L144.01828,597.66369L139.21767,598.14374
				L137.29742,598.14374L128.65633,604.3844L125.2959,599.34387L127.93624,597.90371L126.01599,594.0633L125.77596,593.34323L124.09575,589.98287
				L126.49605,588.78274L125.05587,586.14246L126.97611,585.42238L126.25602,583.98223L133.69697,578.70167L142.57809,573.66113
				L149.05892,571.02085L149.77901,571.98095L152.41934,575.82136L152.8994,576.54144L154.57962,578.94169L156.73989,577.26151L
				154.57962,573.66113L153.85953,572.70103L158.90017,569.5807L159.38023,569.10064L159.1402,568.86062L157.70001,567.18044L158.18007,566.94041
				L157.21995,565.74029L163.46074,560.45972L169.46151,556.13926L170.90169,554.93914L171.62178,554.21906L172.10184,553.73901
				L172.5819,551.8188L172.34187,551.33875L174.50215,548.9385L180.98297,543.41791L178.82269,540.05755L181.70306,537.89732L182.66318,537.41727
				L183.6233,536.93722L184.34339,536.21714L185.54355,535.97711L187.94385,534.53696L191.78434,532.13671L190.82422,529.97648L
				194.18464,528.05627L199.46531,524.93594L197.7851,522.29566L193.46455,513.89476L189.62406,507.17405L188.66394,505.49387L180.74294,508.85422
				L177.86257,501.89348L181.46303,500.2133L177.62254,490.37225L176.66242,490.85231L174.74218,492.05243L173.78205,492.53249L
				171.62178,488.69208L167.30123,490.37225L167.30123,490.85231L164.90093,492.29246L166.58114,495.41279L161.78053,497.81305L
				161.5405,497.57302L161.06044,496.13287L160.10032,494.45269L159.1402,492.53249L158.18007,490.85231L156.49986,489.17213L155.29971,487.972
				L154.81965,487.25192L155.05968,486.77187L155.53974,486.29182L157.45998,484.61164L160.82041,482.21139L163.46074,479.81113
				L166.10108,477.41087L170.1816,472.85039L171.86181,470.69016L173.06196,469.49003L175.22224,467.56983L177.14248,465.64962L
				178.82269,463.72942L180.50291,462.04924L185.54355,455.0885L187.94385,456.28862L190.34416,457.0087L193.70458,456.76867L193.70458,455.56855
				L194.18464,454.84847L194.42467,454.12839L195.62483,450.28798L195.62483,448.84783L195.86486,448.6078L196.34492,447.40768L
				197.30504,444.7674L197.54507,442.60717L197.30504,441.88709L196.58495,441.16701L202.58571,436.60653L203.3058,437.3266L205.70611,438.52673
				L208.34644,439.96688L208.8265,439.00678L209.54659,439.24681L209.78662,439.00678L211.70687,440.68696L212.90702,441.88709L
				210.50671,443.56727L211.22681,444.7674L214.10717,443.32724L217.70763,441.40704L217.94766,441.88709L218.66775,441.64706L220.34796,438.76676
				L220.82802,438.2867L220.82802,438.04668L227.78891,426.28543L233.06958,437.3266z"/>
			<path clip-path="url(#SVG_CP_2)" fill-opacity="0.2" fill="#07866D" fill-rule="evenodd" stroke="none" stroke-width="" stra="1.44018" stroke-miterlimit="10" stroke-linecap="round" stroke-linejoin="round" d="
				M282.03579,57.60614L287.07643,63.8468L291.63701,61.20652L293.07719,62.8867L296.43762,66.96714L298.83792,61.68657L309.63929,68.40729
				L310.35939,68.88734L310.83945,81.36867L310.59942,90.48964L310.83945,92.8899L311.55954,100.09067L312.27963,101.29079L313.71981,102.2509
				L315.16,103.45102L316.36015,105.1312L316.60018,106.33133L317.08024,108.49156L318.04036,112.09195L306.75893,110.41177L305.55878,112.572
				L300.9982,117.85256L302.67841,119.29271L305.31875,120.49284L311.31951,122.65307L311.31951,123.61317L311.79957,124.09322L
				314.19987,133.93427L314.19987,135.37443L313.95984,137.05461L313.23975,137.53466L312.27963,138.25473L311.79957,139.21484L
				311.79957,140.17494L313.23975,141.85512L313.95984,143.29527L314.19987,145.69553L310.35939,147.85576L309.15923,148.09578L
				306.75893,148.33581L304.59865,149.05588L305.55878,150.25601L307.47902,151.69617L310.59942,153.37634L303.3985,159.61701L315.64006,174.73862
				L311.31951,178.57903L310.83945,179.05908L303.63853,193.46062L300.27811,196.82097L295.23747,202.10154L293.55725,203.78172
				L289.9568,207.62212L299.79805,221.06356L287.55649,234.74502L285.87628,236.90525L288.99668,237.3853L294.27735,238.10537L298.11783,239.3055
				L302.91844,240.2656L308.67917,240.50563L312.75969,240.2656L316.36015,240.50563L322.36091,241.70576L324.28115,241.94578L332.20216,241.46573
				L333.88237,241.46573L334.84249,241.70576L333.88237,244.34604L342.7635,244.82609L344.20368,241.94578L352.36472,242.18581L
				352.12469,246.02622L352.12469,247.22635L350.44447,257.78747L354.76502,258.26752L355.24508,257.54744L360.52575,257.30742L
				360.76578,255.38721L363.88618,255.14719L363.40612,253.94706L363.40612,253.46701L363.64615,246.02622L368.20673,245.78619L
				375.16761,245.54617L375.16761,242.42583L379.96822,241.70576L383.56868,241.70576L389.56944,241.22571L391.48968,241.22571L
				398.21053,240.2656L399.89075,240.2656L400.37081,240.2656L403.4912,240.74565L404.93139,241.22571L406.85163,241.70576L407.33169,241.70576
				L408.05178,242.42583L409.97203,243.38594L410.69212,243.86599L414.29258,246.02622L417.41297,247.7064L419.81328,249.14655L
				420.29334,249.38658L422.21358,250.5867L426.53413,255.86727L428.93443,257.54744L428.6944,257.78747L428.21434,258.26752L426.53413,260.42775
				L428.93443,262.34796L430.13459,263.54808L431.33474,262.58798L433.73504,260.42775L434.2151,260.18773L437.3355,262.10793L439.25574,263.78811
				L441.17599,266.66842L444.29638,272.42903L446.21663,274.58926L449.09699,277.70959L449.33702,277.94962L451.73733,281.30998
				L455.09775,287.31062L455.57781,290.43095L457.25803,292.8312L462.5387,299.79195L463.25879,301.47213L464.21891,303.39233L465.65909,305.79259
				L468.29943,309.633L471.65986,314.67353L471.65986,315.15358L468.77949,319.23402L461.57858,329.79514L457.73809,336.03581L445.9766,357.15806
				L439.49577,369.15934L435.65529,375.15998L431.33474,381.64067L427.01419,387.64131L423.41373,392.92187L420.53337,383.8009L
				418.85315,380.92059L414.29258,374.4399L405.41145,380.20051L402.53108,381.16062L399.65072,381.88069L398.21053,381.16062L395.5702,380.92059
				L392.20977,383.56087L391.48968,382.8408L389.56944,380.44054L387.40916,378.04028L387.16913,377.32021L384.5288,379.24041L368.44676,385.7211
				L367.24661,383.56087L369.40688,382.60077L369.16685,380.92059L368.44676,379.48044L367.00657,377.80026L366.28648,378.52034
				L364.8463,379.72046L361.48587,382.60077L359.80566,384.28095L357.64539,382.36075L355.72514,380.44054L350.44447,373.71982L
				342.52347,379.00039L318.28039,394.84208L316.12012,396.28223L314.19987,393.64195L307.95908,397.72238L311.79957,399.40256L
				310.83945,400.12264L304.83869,403.96305L295.4775,409.24361L291.39698,411.40384L287.07643,413.56407L282.99591,415.96433L276.51509,408.52353
				L273.3947,405.88325L269.79424,403.00294L264.27354,399.40256L260.19302,396.76228L247.47141,389.80154L239.5504,385.24105L241.9507,383.32085
				L242.43077,382.60077L242.43077,381.88069L239.5504,375.88005L239.79043,375.4L244.11098,373.4798L245.79119,372.75972L249.39165,370.83952
				L251.07186,369.87942L249.39165,370.11944L247.23137,370.35947L238.35025,370.59949L236.43,370.11944L233.78967,368.67929L230.18921,365.79898
				L226.34872,362.91867L223.94842,360.27839L222.50824,358.35819L219.62787,352.59757L210.26668,355.95793L205.70611,346.83696
				L204.02589,342.99655L201.62559,336.03581L203.78586,335.79578L204.50595,334.35563L204.74598,332.67545L204.02589,330.99527
				L203.3058,325.95473L203.78586,321.63427L199.22528,321.8743L198.74522,323.55448L198.26516,323.55448L197.7851,322.11433L196.82498,317.07379
				L203.06577,315.63363L202.58571,313.4734L202.82574,311.31317L202.34568,309.39297L201.62559,308.91292L198.98525,309.39297L
				198.02513,305.07251L195.14476,306.03261L193.70458,299.07187L193.70458,298.59182L192.74446,295.95154L195.14476,295.23146L
				196.10489,297.39169L196.34492,298.11177L201.14553,295.95154L201.62559,295.71151L200.1854,291.39105L199.22528,291.63108L198.74522,291.63108
				L198.74522,291.39105L198.50519,291.39105L198.74522,290.67097L198.74522,289.9509L198.50519,289.47085L197.30504,289.71087L
				195.3848,290.67097L192.74446,291.39105L192.2644,291.39105L192.02437,290.911L190.58419,287.79067L189.38403,284.43031L189.38403,283.95026
				L189.62406,283.47021L190.82422,282.99016L192.02437,282.75013L192.50443,282.27008L192.74446,282.27008L192.98449,282.27008
				L193.94461,282.03005L194.42467,281.79003L194.6647,281.06995L194.42467,279.14975L194.18464,278.18964L191.78434,274.34924L
				190.10413,272.66906L188.90397,272.18901L188.18388,270.98888L186.7437,267.14847L181.223,258.50755L181.223,258.0275L177.86257,254.42711
				L175.46227,252.02686L173.78205,250.10665L168.98144,239.06548L168.50138,237.3853L169.70154,236.66522L169.70154,235.46509L
				169.22148,234.98504L170.90169,234.26496L170.1816,232.34476L170.66166,232.10473L170.66166,231.62468L169.94157,230.66458L169.22148,229.70448
				L169.46151,228.9844L169.94157,228.50435L170.90169,228.50435L171.86181,228.26432L172.34187,226.82417L173.30199,224.42392L
				172.5819,224.18389L172.82193,222.26369L172.82193,219.38338L172.82193,218.6633L172.82193,217.94322L171.86181,217.46317L171.62178,216.98312
				L171.86181,215.54297L172.10184,214.58287L173.06196,213.38274L173.30199,213.38274L174.02208,213.38274L174.26211,212.18261
				L173.30199,211.70256L169.70154,210.50243L169.46151,205.70192L170.42163,205.46189L170.42163,204.98184L174.02208,204.74182
				L174.74218,205.22187L176.18236,205.94195L178.1026,206.90205L180.02285,207.14207L180.98297,207.86215L182.66318,208.10218L
				183.86333,206.18197L186.7437,204.98184L187.70382,205.46189L190.10413,206.90205L192.02437,207.3821L195.62483,207.14207L197.30504,207.62212
				L198.26516,208.3422L198.98525,209.78236L200.66547,216.50307L201.62559,218.90333L203.06577,221.30358L198.74522,224.42392L
				198.26516,224.90397L198.02513,224.90397L197.30504,225.38402L196.34492,225.86407L195.86486,228.0243L196.82498,229.46445L199.46531,232.58478
				L199.94537,232.34476L206.90626,230.18453L207.38632,231.62468L212.42696,238.10537L214.10717,239.06548L216.02742,239.3055L
				221.54812,238.58542L222.74827,238.3454L224.66851,238.82545L226.58876,239.06548L227.78891,239.06548L227.06882,231.14463L227.54888,230.18453
				L228.02894,229.9445L228.98906,228.50435L229.70915,226.10409L230.18921,223.94386L229.94918,222.26369L228.509,220.82353L227.06882,221.54361
				L224.90854,221.06356L218.66775,218.6633L213.86714,214.34284L213.14705,211.94259L212.90702,210.26241L213.38708,205.46189L
				213.14705,198.50115L211.9469,198.26113L216.74751,196.1009L211.22681,187.7L211.46684,187.45998L223.70839,181.69936L225.3886,180.73926
				L225.86866,180.49923L227.06882,180.01918L228.26897,179.29911L231.14933,177.85895L229.94918,176.4188L227.78891,174.73862L
				225.14857,172.81842L222.50824,170.17813L221.54812,168.73798L220.82802,167.53785L216.74751,164.65755L217.94766,162.73734L
				218.18769,162.49732L223.22833,160.81714L221.54812,156.97673L219.38784,157.21675L219.14781,157.21675L217.4676,156.25665L216.02742,154.8165
				L216.26745,154.33645L216.50748,153.13632L218.18769,148.81586L219.38784,147.3757L224.18845,142.33517L225.14857,141.85512L
				225.62863,141.85512L226.82879,141.61509L227.30885,141.13504L227.06882,138.73478L227.30885,138.73478L228.74903,136.0945L230.18921,134.41432
				L232.58952,131.29399L233.06958,130.09386L233.06958,129.61381L237.63016,125.7734L240.27049,122.8931L241.23061,120.01279L243.39089,114.97225
				L244.35101,112.09195L243.63092,110.17174L242.91083,107.77148L242.6708,104.1711L239.31037,104.1711L242.91083,98.65051L246.27125,98.17046
				L249.87171,96.49028L253.95223,94.8101L252.75208,93.36995L253.47217,92.16982L260.91311,84.72903L264.27354,82.5688L268.59409,79.68849
				L270.03427,78.48836L269.79424,78.48836L265.47369,76.32813L265.95375,75.36803L273.87476,64.08683L275.795,62.16663L279.87552,59.76637
				L282.03579,57.60614z"/>
		</g>
</g></svg>