<?xml version="1.0" encoding="utf-8" standalone="no"?>
<!-- Creator: ESRI ArcMap 10.0.0.2414 -->
<!DOCTYPE svg PUBLIC "-//W3C//DTD SVG 1.1//EN"  "http://www.w3.org/Graphics/SVG/1.1/DTD/svg11.dtd">
<svg width="524.0420768pt" height="250.499602629pt" viewBox="32.15712744 295.879333685 524.0420768 250.499602629" enable-background="new 32.15712744 295.879333685 524.0420768 250.499602629"
	version="1.1" xmlns="http://www.w3.org/2000/svg" xmlns:xlink="http://www.w3.org/1999/xlink" >
	<g id="Couches">
		<g id="cont_2">
			<path clip-path="url(#SVG_CP_2)" fill="none" stroke="#999999" stroke-width="0.96012" stroke-miterlimit="10" stroke-linecap="round" stroke-linejoin="round" d="
				M61.20777,322.11433L61.20777,322.59438L60.72771,322.59438L60.72771,322.11433L61.20777,322.11433"/>
			<path clip-path="url(#SVG_CP_2)" fill="none" stroke="#999999" stroke-width="0.96012" stroke-miterlimit="10" stroke-linecap="round" stroke-linejoin="round" d="
				M56.64719,332.1954L56.64719,330.27519L57.12725,330.27519L57.12725,331.2353L57.60731,331.2353L57.60731,331.71535L57.12725,331.71535
				L57.12725,332.1954L56.64719,332.1954"/>
			<path clip-path="url(#SVG_CP_2)" fill="none" stroke="#999999" stroke-width="0.96012" stroke-miterlimit="10" stroke-linecap="round" stroke-linejoin="round" d="
				M56.16713,332.67545L56.16713,332.1954L56.64719,332.1954L56.64719,332.67545L56.16713,332.67545"/>
			<path clip-path="url(#SVG_CP_2)" fill="none" stroke="#999999" stroke-width="0.96012" stroke-miterlimit="10" stroke-linecap="round" stroke-linejoin="round" d="
				M56.16713,332.67545L56.16713,333.1555L55.68707,333.1555L55.68707,332.67545L56.16713,332.67545"/>
			<path clip-path="url(#SVG_CP_2)" fill="none" stroke="#999999" stroke-width="0.96012" stroke-miterlimit="10" stroke-linecap="round" stroke-linejoin="round" d="
				M55.68707,353.07762L55.20701,353.07762L55.20701,352.59757L55.68707,352.59757L55.68707,353.07762"/>
			<path clip-path="url(#SVG_CP_2)" fill="none" stroke="#999999" stroke-width="0.96012" stroke-miterlimit="10" stroke-linecap="round" stroke-linejoin="round" d="
				M55.68707,353.07762L56.16713,353.07762L56.16713,353.55768L56.64719,353.55768L56.64719,354.51778L57.12725,354.51778L57.12725,354.99783
				L57.60731,354.99783L57.60731,355.47788L58.08737,355.47788L58.08737,355.95793L58.56743,355.95793L58.56743,356.67801L59.28752,356.67801
				L59.28752,357.15806L59.76759,357.15806L59.76759,357.63811L60.24765,357.63811L60.24765,358.11816L60.72771,358.11816L60.72771,358.59821
				L61.20777,358.59821L61.20777,359.07826L61.68783,359.07826L61.68783,359.55832L62.16789,359.55832L62.16789,360.03837L62.64795,360.03837
				L62.64795,360.51842L63.36804,360.51842L63.36804,361.23849L63.8481,361.23849L63.8481,361.71855L64.32816,361.71855L64.32816,362.1986
				L64.80822,362.1986L64.80822,363.1587L65.28829,363.1587L65.28829,363.63875L65.76835,363.63875L65.76835,364.1188L66.24841,364.1188
				L66.24841,364.59885L66.72847,364.59885L66.72847,365.31893L67.20853,365.31893L67.20853,365.79898L67.92862,365.79898L67.92862,366.27903
				L68.40868,366.27903L68.40868,366.75908L68.88874,366.75908L68.88874,367.23913L69.3688,367.23913L69.3688,367.71918L69.84886,367.71918
				L69.84886,368.19924L70.32893,368.19924L70.32893,368.67929L70.80899,368.67929L70.80899,369.15934L71.76911,369.15934L71.76911,369.87942
				L72.96926,369.87942L72.96926,370.35947L74.40944,370.35947L74.40944,370.83952L75.36957,370.83952L75.36957,373.23977L75.84963,373.23977
				L75.84963,374.91995L76.56972,374.91995L76.56972,375.88005L77.04978,375.88005L77.04978,376.84016L77.52984,376.84016L77.52984,377.80026
				L78.0099,377.80026L78.0099,379.00039L78.48996,379.00039L78.48996,379.96049L78.97002,379.96049L78.97002,380.92059L79.45008,380.92059
				L79.45008,381.88069L79.93014,381.88069L79.93014,383.08082L80.4102,383.08082L80.4102,384.04092L81.1303,384.04092L81.1303,385.00103
				L81.61036,385.00103L81.61036,385.96113L82.09042,385.96113L82.09042,386.92123L82.57048,386.92123L82.57048,388.12136L83.05054,388.12136
				L83.05054,388.60141L83.5306,388.60141L83.5306,389.56151L84.01066,389.56151L84.01066,390.52161L84.49072,390.52161L84.49072,391.00167
				L84.97078,391.00167L84.97078,391.72174L85.69087,391.72174L85.69087,392.20179L86.17094,392.20179L86.17094,393.1619L87.13106,393.1619
				L87.13106,392.68185L88.09118,392.68185L88.09118,392.20179L89.77139,392.20179L89.77139,393.1619L90.25145,393.1619L90.25145,394.60205
				L89.77139,394.60205L89.77139,395.0821L89.0513,395.0821L89.0513,395.56215L88.57124,395.56215L88.57124,396.28223L88.09118,396.28223
				L88.09118,398.20243L88.57124,398.20243L88.57124,399.16254L89.0513,399.16254L89.0513,400.84271L91.21158,400.84271L91.21158,400.12264
				L92.65176,400.12264L92.65176,399.64259L94.33197,399.64259L94.33197,399.16254L97.21234,399.16254L97.21234,398.68248L101.77292,398.68248
				L101.77292,398.20243L102.97307,398.20243L102.97307,396.76228L103.45313,396.76228L103.45313,393.64195L103.93319,393.64195
				L103.93319,391.72174L106.81356,391.72174L106.81356,391.00167L119.53517,391.00167L119.53517,390.52161L120.73532,390.52161
				L120.73532,390.04156L121.21538,390.04156L121.21538,389.56151L122.1755,389.56151L122.1755,389.08146L123.13563,389.08146L123.13563,388.60141
				L124.09575,388.60141L124.09575,388.12136L125.2959,388.12136L125.2959,387.64131L125.77596,387.64131L125.77596,386.92123L126.73608,386.92123
				L126.73608,386.44118L127.69621,386.44118L127.69621,385.96113L128.65633,385.96113L128.65633,385.48108L129.13639,385.48108
				L129.13639,385.00103L130.33654,385.00103L130.33654,384.52098L131.29666,384.52098L131.29666,384.04092L132.25678,384.04092
				L132.25678,383.56087L133.21691,383.56087L133.21691,383.08082L133.937,383.08082L133.937,382.36075L134.41706,382.36075L134.41706,381.88069
				L134.89712,381.88069L134.89712,381.40064L135.37718,381.40064L135.37718,380.92059L135.85724,380.92059L135.85724,380.44054
				L136.3373,380.44054L136.3373,379.96049L136.81736,379.96049L136.81736,379.48044L137.29742,379.48044L137.29742,379.00039L137.77748,379.00039
				L137.77748,378.52034L138.49758,378.52034L138.49758,377.80026L138.97764,377.80026L138.97764,377.32021L139.4577,377.32021L
				139.4577,376.84016L139.93776,376.84016L139.93776,376.36011L140.41782,376.36011L140.41782,375.88005L140.89788,375.88005L140.89788,375.4
				L141.37794,375.4L141.37794,374.91995L141.858,374.91995L141.858,373.23977L142.33806,373.23977L142.33806,372.27967L143.05815,372.27967
				L143.05815,371.31957L143.53822,371.31957L143.53822,370.35947L144.01828,370.35947L144.01828,368.19924L144.49834,368.19924
				L144.49834,366.75908L144.9784,366.75908L144.9784,365.31893L145.45846,365.31893L145.45846,363.1587L145.93852,363.1587L145.93852,359.07826
				L146.41858,359.07826L146.41858,358.11816L147.13867,358.11816L147.13867,357.15806L147.61873,357.15806L147.61873,355.95793
				L148.09879,355.95793L148.09879,354.99783L148.57886,354.99783L148.57886,364.59885L149.05892,364.59885L149.05892,366.27903
				L150.4991,366.27903L150.4991,366.75908L152.17931,366.75908L152.17931,367.23913L153.6195,367.23913L153.6195,366.75908L154.09956,366.75908
				L154.09956,363.63875L270.2743,363.63875L270.2743,364.1188L426.77416,364.1188L426.77416,365.79898L427.25422,365.79898L427.25422,367.23913
				L427.73428,367.23913L427.73428,368.67929L428.21434,368.67929L428.21434,370.35947L428.6944,370.35947L428.6944,371.31957L429.41449,371.31957
				L429.41449,372.75972L429.89456,372.75972L429.89456,373.71982L430.37462,373.71982L430.37462,374.91995L430.85468,374.91995
				L430.85468,376.36011L431.33474,376.36011L431.33474,377.32021L431.8148,377.32021L431.8148,378.52034L432.29486,378.52034L432.29486,379.48044
				L432.77492,379.48044L432.77492,380.92059L433.25498,380.92059L433.25498,381.88069L433.97507,381.88069L433.97507,383.08082
				L434.45513,383.08082L434.45513,384.52098L434.9352,384.52098L434.9352,385.48108L435.41526,385.48108L435.41526,386.44118L435.89532,386.44118
				L435.89532,387.64131L436.37538,387.64131L436.37538,389.08146L436.85544,389.08146L436.85544,390.04156L437.3355,390.04156L
				437.3355,395.0821L437.81556,395.0821L437.81556,405.4032L437.3355,405.4032L437.3355,406.84335L436.85544,406.84335L436.85544,408.28351
				L436.37538,408.28351L436.37538,409.96369L435.89532,409.96369L435.89532,411.88389L435.41526,411.88389L435.41526,413.32404
				L434.9352,413.32404L434.9352,415.00422L434.45513,415.00422L434.45513,416.44438L433.97507,416.44438L433.97507,417.88453L433.25498,417.88453
				L433.25498,419.56471L432.77492,419.56471L432.77492,421.00486L432.29486,421.00486L432.29486,422.68504L431.8148,422.68504L
				431.8148,424.60525L431.33474,424.60525L431.33474,426.0454L430.85468,426.0454L430.85468,428.20563L430.37462,428.20563L430.37462,429.64578
				L429.89456,429.64578L429.89456,431.08594L429.41449,431.08594L429.41449,433.24617L428.6944,433.24617L428.6944,434.68632L428.21434,434.68632
				L428.21434,436.3665L427.73428,436.3665L427.73428,438.2867L427.25422,438.2867L427.25422,439.72686L427.73428,439.72686L427.73428,440.44693
				L429.41449,440.44693L429.41449,440.92699L430.85468,440.92699L430.85468,441.40704L432.29486,441.40704L432.29486,441.88709
				L433.97507,441.88709L433.97507,442.36714L435.41526,442.36714L435.41526,442.84719L436.85544,442.84719L436.85544,443.32724
				L439.01571,443.32724L439.01571,443.80729L440.4559,443.80729L440.4559,444.28734L441.89608,444.28734L441.89608,445.00742L443.57629,445.00742
				L443.57629,445.48747L445.01647,445.48747L445.01647,445.96752L446.45666,445.96752L446.45666,446.44757L447.65681,446.44757
				L447.65681,449.08786L447.17675,449.08786L447.17675,451.00806L446.45666,451.00806L446.45666,452.44821L445.9766,452.44821L
				445.9766,454.60844L445.49654,454.60844L445.49654,456.0486L445.01647,456.0486L445.01647,457.48875L444.53641,457.48875L444.53641,459.16893
				L444.05635,459.16893L444.05635,461.08913L443.57629,461.08913L443.57629,462.76931L443.09623,462.76931L443.09623,464.20947
				L442.61617,464.20947L442.61617,465.64962L441.89608,465.64962L441.89608,467.80985L441.41602,467.80985L441.41602,469.25L440.93596,469.25
				L440.93596,470.69016L440.4559,470.69016L440.4559,472.37034L439.97583,472.37034L439.97583,473.81049L439.49577,473.81049L439.49577,475.49067
				L439.01571,475.49067L439.01571,476.93082L438.53565,476.93082L438.53565,478.37098L437.81556,478.37098L437.81556,480.53121
				L437.3355,480.53121L437.3355,481.97136L436.85544,481.97136L436.85544,483.41151L436.37538,483.41151L436.37538,485.09169L435.89532,485.09169
				L435.89532,486.53185L435.41526,486.53185L435.41526,487.972L434.9352,487.972L434.9352,489.65218L434.45513,489.65218L434.45513,491.09233
				L433.97507,491.09233L433.97507,492.53249L433.25498,492.53249L433.25498,494.21266L432.77492,494.21266L432.77492,495.65282
				L432.29486,495.65282L432.29486,497.09297L431.8148,497.09297L431.8148,499.2532L431.33474,499.2532L431.33474,500.69335L430.85468,500.69335
				L430.85468,502.37353L430.37462,502.37353L430.37462,503.81369L429.89456,503.81369L429.89456,505.25384L429.41449,505.25384
				L429.41449,506.93402L428.6944,506.93402L428.6944,509.33428L428.21434,509.33428L428.21434,512.45461L427.73428,512.45461L427.73428,514.85486
				L427.25422,514.85486L427.25422,517.49515L426.77416,517.49515L426.77416,520.13543L426.2941,520.13543L426.2941,523.01573L425.81404,523.01573
				L425.81404,525.65601L425.33398,525.65601L425.33398,528.05627L424.61389,528.05627L424.61389,531.1766L424.13382,531.1766L424.13382,533.81688
				L423.65376,533.81688L423.65376,536.21714L423.1737,536.21714L423.1737,539.33747L422.69364,539.33747L422.69364,540.29758L423.65376,540.29758
				L423.65376,539.81752L424.13382,539.81752L424.13382,539.33747L424.61389,539.33747L424.61389,538.85742L425.33398,538.85742
				L425.33398,538.37737L425.81404,538.37737L425.81404,537.89732L426.77416,537.89732L426.77416,537.41727L427.25422,537.41727
				L427.25422,536.69719L427.73428,536.69719L427.73428,536.21714L428.21434,536.21714L428.21434,535.73709L428.6944,535.73709L
				428.6944,535.25704L429.89456,535.25704L429.89456,534.77699L430.37462,534.77699L430.37462,534.29694L430.85468,534.29694L430.85468,533.81688
				L431.33474,533.81688L431.33474,533.33683L431.8148,533.33683L431.8148,532.85678L432.77492,532.85678L432.77492,532.13671L433.25498,532.13671
				L433.25498,531.65665L433.97507,531.65665L433.97507,531.1766L434.45513,531.1766L434.45513,530.69655L434.9352,530.69655L434.9352,530.2165
				L435.89532,530.2165L435.89532,529.73645L436.37538,529.73645L436.37538,529.2564L436.85544,529.2564L436.85544,528.77635L437.3355,528.77635
				L437.3355,528.05627L437.81556,528.05627L437.81556,527.57622L439.01571,527.57622L439.01571,527.09617L439.49577,527.09617L
				439.49577,526.61612L439.97583,526.61612L439.97583,526.13607L440.4559,526.13607L440.4559,525.65601L440.93596,525.65601L440.93596,525.17596
				L440.4559,525.17596L440.4559,524.69591L439.97583,524.69591L439.97583,524.21586L439.49577,524.21586L439.49577,523.49578L439.01571,523.49578
				L439.01571,523.01573L438.53565,523.01573L438.53565,522.53568L437.81556,522.53568L437.81556,522.05563L436.85544,522.05563
				L436.85544,521.57558L436.37538,521.57558L436.37538,521.09553L435.89532,521.09553L435.89532,520.61548L435.41526,520.61548
				L435.41526,520.13543L434.9352,520.13543L434.9352,518.9353L435.41526,518.9353L435.41526,518.45525L435.89532,518.45525L435.89532,517.9752
				L436.37538,517.9752L436.37538,517.49515L437.3355,517.49515L437.3355,517.01509L437.81556,517.01509L437.81556,516.53504L438.53565,516.53504
				L438.53565,516.05499L439.01571,516.05499L439.01571,515.57494L439.97583,515.57494L439.97583,514.85486L440.4559,514.85486L
				440.4559,515.57494L440.93596,515.57494L440.93596,516.05499L441.89608,516.05499L441.89608,516.53504L442.61617,516.53504L442.61617,517.01509
				L443.09623,517.01509L443.09623,517.49515L443.57629,517.49515L443.57629,517.9752L444.05635,517.9752L444.05635,518.45525L444.53641,518.45525
				L444.53641,518.9353L445.01647,518.9353L445.01647,519.65538L445.49654,519.65538L445.49654,520.13543L445.9766,520.13543L445.9766,520.61548
				L446.45666,520.61548L446.45666,520.13543L447.17675,520.13543L447.17675,519.65538L447.65681,519.65538L447.65681,518.9353L
				448.13687,518.9353L448.13687,518.45525L448.61693,518.45525L448.61693,517.9752L449.57705,517.9752L449.57705,517.49515L450.05711,517.49515
				L450.05711,516.53504L449.57705,516.53504L449.57705,516.05499L449.09699,516.05499L449.09699,514.85486L448.61693,514.85486
				L448.61693,514.37481L448.13687,514.37481L448.13687,513.89476L448.61693,513.89476L448.61693,512.93466L449.09699,512.93466
				L449.09699,512.45461L448.13687,512.45461L448.13687,511.97456L447.65681,511.97456L447.65681,511.49451L447.17675,511.49451
				L447.17675,511.01445L445.9766,511.01445L445.9766,510.29438L445.49654,510.29438L445.49654,509.81433L445.01647,509.81433L445.01647,509.33428
				L445.49654,509.33428L445.49654,508.85422L445.9766,508.85422L445.9766,508.37417L446.45666,508.37417L446.45666,507.41407L445.9766,507.41407
				L445.9766,506.93402L445.49654,506.93402L445.49654,506.45397L445.01647,506.45397L445.01647,505.73389L444.53641,505.73389L
				444.53641,504.77379L445.49654,504.77379L445.49654,504.29374L446.45666,504.29374L446.45666,503.33364L445.9766,503.33364L445.9766,502.85359
				L445.49654,502.85359L445.49654,502.37353L445.01647,502.37353L445.01647,501.65346L444.53641,501.65346L444.53641,501.17341
				L444.05635,501.17341L444.05635,500.69335L443.57629,500.69335L443.57629,500.2133L443.09623,500.2133L443.09623,499.73325L442.61617,499.73325
				L442.61617,499.2532L443.09623,499.2532L443.09623,498.77315L443.57629,498.77315L443.57629,498.2931L444.05635,498.2931L444.05635,497.81305
				L444.53641,497.81305L444.53641,497.09297L445.01647,497.09297L445.01647,496.61292L445.49654,496.61292L445.49654,496.13287
				L445.9766,496.13287L445.9766,495.65282L446.45666,495.65282L446.45666,495.17277L447.17675,495.17277L447.17675,494.69272L448.13687,494.69272
				L448.13687,494.21266L448.61693,494.21266L448.61693,493.73261L449.09699,493.73261L449.09699,493.25256L449.57705,493.25256
				L449.57705,492.53249L450.05711,492.53249L450.05711,492.05243L450.53717,492.05243L450.53717,491.57238L451.01724,491.57238
				L451.01724,491.09233L451.73733,491.09233L451.73733,490.61228L452.21739,490.61228L452.21739,490.13223L452.69745,490.13223
				L452.69745,489.65218L453.17751,489.65218L453.17751,489.17213L453.65757,489.17213L453.65757,488.69208L455.81785,488.69208
				L455.81785,489.17213L457.73809,489.17213L457.73809,489.65218L459.17827,489.65218L459.17827,490.13223L461.81861,490.13223
				L461.81861,490.61228L462.77873,490.61228L462.77873,490.13223L463.25879,490.13223L463.25879,489.65218L463.73885,489.65218
				L463.73885,489.17213L464.21891,489.17213L464.21891,488.69208L464.939,488.69208L464.939,487.972L465.41906,487.972L465.41906,487.0119
				L465.89912,487.0119L465.89912,486.53185L466.37919,486.53185L466.37919,486.05179L467.33931,486.05179L467.33931,485.57174L
				467.81937,485.57174L467.81937,484.61164L468.29943,484.61164L468.29943,483.89156L469.01952,483.89156L469.01952,483.41151L
				469.49958,483.41151L469.49958,482.93146L469.97964,482.93146L469.97964,482.45141L470.4597,482.45141L470.4597,481.97136L470.93976,481.97136
				L470.93976,481.49131L471.41983,481.49131L471.41983,480.53121L471.89989,480.53121L471.89989,480.05116L472.37995,480.05116
				L472.37995,479.33108L472.86001,479.33108L472.86001,478.85103L473.5801,478.85103L473.5801,478.37098L474.06016,478.37098L474.06016,477.89092
				L474.54022,477.89092L474.54022,477.41087L475.02028,477.41087L475.02028,476.93082L475.50034,476.93082L475.50034,475.97072
				L475.9804,475.97072L475.9804,475.49067L476.46046,475.49067L476.46046,474.77059L476.94053,474.77059L476.94053,473.81049L477.42059,473.81049
				L477.42059,472.85039L478.14068,472.85039L478.14068,472.37034L478.62074,472.37034L478.62074,471.41023L479.1008,471.41023L
				479.1008,470.69016L479.58086,470.69016L479.58086,469.73006L480.06092,469.73006L480.06092,469.25L480.54098,469.25L480.54098,469.73006
				L482.70126,469.73006L482.70126,470.21011L484.14144,470.21011L484.14144,470.69016L485.58162,470.69016L485.58162,471.41023
				L487.7419,471.41023L487.7419,471.89029L489.18208,471.89029L489.18208,472.37034L490.62226,472.37034L490.62226,472.85039L493.2626,472.85039
				L493.2626,472.37034L493.74266,472.37034L493.74266,471.89029L494.22272,471.89029L494.22272,471.41023L494.70278,471.41023L
				494.70278,470.69016L495.18284,470.69016L495.18284,470.21011L495.90293,470.21011L495.90293,469.73006L496.38299,469.73006L
				496.38299,469.25L496.86305,469.25L496.86305,468.76995L497.34311,468.76995L497.34311,468.2899L497.82318,468.2899L497.82318,467.80985
				L498.30324,467.80985L498.30324,467.3298L500.46351,467.3298L500.46351,466.84975L502.38375,466.84975L502.38375,466.12967L526.3868,466.12967
				L526.3868,465.64962L527.82698,465.64962L527.82698,465.16957L528.78711,465.16957L528.78711,464.68952L529.26717,464.68952L
				529.26717,464.20947L529.74723,464.20947L529.74723,463.72942L530.22729,463.72942L530.22729,463.24936L531.42744,463.24936L
				531.42744,462.28926L530.94738,462.28926L530.94738,461.56919L529.26717,461.56919L529.26717,461.08913L527.82698,461.08913L
				527.82698,460.60908L528.30704,460.60908L528.30704,459.64898L528.78711,459.64898L528.78711,458.20883L529.26717,458.20883L
				529.26717,457.0087L530.22729,457.0087L530.22729,457.48875L531.42744,457.48875L531.42744,458.20883L532.38756,458.20883L532.38756,458.68888
				L533.82774,458.68888L533.82774,457.48875L534.30781,457.48875L534.30781,457.0087L533.82774,457.0087L533.82774,455.0885L533.34768,455.0885
				L533.34768,452.92826L532.86762,452.92826L532.86762,451.00806L532.38756,451.00806L532.38756,445.48747L532.86762,445.48747
				L532.86762,443.80729L533.34768,443.80729L533.34768,442.36714L533.82774,442.36714L533.82774,441.40704L534.30781,441.40704
				L534.30781,440.44693L534.78787,440.44693L534.78787,439.24681L535.50796,439.24681L535.50796,438.2867L535.98802,438.2867L535.98802,437.3266
				L536.46808,437.3266L536.46808,435.88645L536.94814,435.88645L536.94814,434.20627L537.4282,434.20627L537.4282,432.28607L537.90826,432.28607
				L537.90826,427.72558L538.38832,427.72558L538.38832,425.56535L538.86838,425.56535L538.86838,423.64514L539.58848,423.64514
				L539.58848,422.68504L540.06854,422.68504L540.06854,421.96497L540.5486,421.96497L540.5486,421.00486L541.02866,421.00486L541.02866,420.52481
				L541.50872,420.52481L541.50872,420.04476L541.98878,420.04476L541.98878,419.56471L542.46884,419.56471L542.46884,419.08466
				L542.9489,419.08466L542.9489,418.60461L543.42896,418.60461L543.42896,417.88453L544.14905,417.88453L544.14905,417.40448L544.62912,417.40448
				L544.62912,416.92443L545.10918,416.92443L545.10918,415.96433L545.58924,415.96433L545.58924,415.48427L546.0693,415.48427L
				546.0693,415.00422L546.54936,415.00422L546.54936,414.04412L547.02942,414.04412L547.02942,413.32404L547.50948,413.32404L547.50948,412.84399
				L547.98954,412.84399L547.98954,412.36394L548.70963,412.36394L548.70963,411.40384L549.18969,411.40384L549.18969,410.92379
				L548.70963,410.92379L548.70963,409.96369L547.98954,409.96369L547.98954,409.48364L547.50948,409.48364L547.50948,408.76356
				L547.02942,408.76356L547.02942,408.28351L546.54936,408.28351L546.54936,407.80346L546.0693,407.80346L546.0693,407.32341L545.58924,407.32341
				L545.58924,406.84335L545.10918,406.84335L545.10918,406.3633L544.62912,406.3633L544.62912,405.88325L544.14905,405.88325L544.14905,405.4032
				L543.42896,405.4032L543.42896,404.92315L542.9489,404.92315L542.9489,404.20307L542.46884,404.20307L542.46884,403.24297L542.9489,403.24297
				L542.9489,402.76292L543.42896,402.76292L543.42896,402.28287L544.14905,402.28287L544.14905,401.32277L544.62912,401.32277L
				544.62912,400.84271L545.10918,400.84271L545.10918,400.12264L544.62912,400.12264L544.62912,399.64259L544.14905,399.64259L
				544.14905,399.16254L543.42896,399.16254L543.42896,398.68248L542.46884,398.68248L542.46884,398.20243L541.98878,398.20243L
				541.98878,397.72238L541.50872,397.72238L541.50872,397.24233L541.02866,397.24233L541.02866,396.76228L540.06854,396.76228L
				540.06854,396.28223L539.58848,396.28223L539.58848,395.56215L538.86838,395.56215L538.86838,395.0821L537.90826,395.0821L537.90826,394.60205
				L537.4282,394.60205L537.4282,394.122L536.94814,394.122L536.94814,393.64195L535.98802,393.64195L535.98802,393.1619L535.50796,393.1619
				L535.50796,392.68185L534.78787,392.68185L534.78787,392.20179L533.82774,392.20179L533.82774,391.72174L533.34768,391.72174
				L533.34768,391.00167L532.86762,391.00167L532.86762,390.52161L532.38756,390.52161L532.38756,390.04156L531.42744,390.04156
				L531.42744,389.56151L530.94738,389.56151L530.94738,389.08146L530.22729,389.08146L530.22729,388.60141L529.26717,388.60141
				L529.26717,388.12136L528.78711,388.12136L528.78711,387.64131L528.30704,387.64131L528.30704,386.92123L527.34692,386.92123
				L527.34692,386.44118L526.86686,386.44118L526.86686,385.96113L526.3868,385.96113L526.3868,385.48108L525.18665,385.48108L525.18665,385.00103
				L524.70659,385.00103"/>
			<path clip-path="url(#SVG_CP_2)" fill="none" stroke="#999999" stroke-width="0.96012" stroke-miterlimit="10" stroke-linecap="round" stroke-linejoin="round" d="
				M524.70659,385.00103L524.70659,384.52098L523.74647,384.52098L523.74647,384.04092L523.2664,384.04092L523.2664,383.56087L522.78634,383.56087
				L522.78634,383.08082L521.58619,383.08082L521.58619,382.36075L521.10613,382.36075L521.10613,381.88069L520.14601,381.88069
				L520.14601,381.40064L519.66595,381.40064L519.66595,380.92059L519.18589,380.92059L519.18589,380.44054L518.22576,380.44054
				L518.22576,379.96049L517.7457,379.96049L517.7457,379.48044L516.54555,379.48044L516.54555,379.00039L516.06549,379.00039L516.06549,378.52034
				L515.10537,378.52034L515.10537,377.80026L514.62531,377.80026L514.62531,377.32021L513.66519,377.32021L513.66519,376.84016
				L513.18513,376.84016L513.18513,376.36011L511.98497,376.36011L511.98497,375.88005L511.50491,375.88005L511.50491,375.4L510.54479,375.4
				L510.54479,374.91995L510.06473,374.91995L510.06473,374.4399L509.10461,374.4399L509.10461,373.71982L508.38452,373.71982L508.38452,373.23977
				L507.42439,373.23977L507.42439,372.75972L506.94433,372.75972L506.94433,372.27967L505.98421,372.27967L505.98421,371.79962
				L505.50415,371.79962L505.50415,371.31957L504.54403,371.31957L504.54403,370.83952L503.82394,370.83952L503.82394,370.35947
				L502.86382,370.35947L502.86382,369.87942L502.38375,369.87942L502.38375,369.15934L501.42363,369.15934L501.42363,368.67929
				L500.94357,368.67929L500.94357,368.19924L499.98345,368.19924L499.98345,367.71918L499.26336,367.71918L499.26336,367.23913
				L498.30324,367.23913L498.30324,366.75908L497.82318,366.75908L497.82318,366.27903L496.86305,366.27903L496.86305,365.79898
				L496.38299,365.79898L496.38299,365.31893L495.18284,365.31893L495.18284,364.59885L494.70278,364.59885L494.70278,364.1188L
				493.74266,364.1188L493.74266,363.63875L493.2626,363.63875L493.2626,363.1587L492.30248,363.1587L492.30248,362.67865L491.82241,362.67865
				L491.82241,362.1986L490.62226,362.1986L490.62226,361.71855L490.1422,361.71855L490.1422,361.23849L489.18208,361.23849L489.18208,360.51842
				L488.70202,360.51842L488.70202,360.03837L487.7419,360.03837L487.7419,359.55832L487.26184,359.55832L487.26184,359.07826L486.06168,359.07826
				L486.06168,358.59821L485.58162,358.59821L485.58162,358.11816L484.6215,358.11816L484.6215,357.63811L484.14144,357.63811L484.14144,357.15806
				L483.18132,357.15806L483.18132,356.67801L482.70126,356.67801L482.70126,355.95793L481.5011,355.95793L481.5011,355.47788L480.54098,355.47788
				L480.54098,354.99783L480.06092,354.99783L480.06092,354.51778L479.1008,354.51778L479.1008,354.03773L478.14068,354.03773L478.14068,353.55768
				L477.42059,353.55768L477.42059,353.07762L476.46046,353.07762L476.46046,352.59757L475.50034,352.59757L475.50034,352.11752
				L475.02028,352.11752L475.02028,351.39745L474.06016,351.39745L474.06016,350.91739L472.86001,350.91739L472.86001,350.43734
				L472.37995,350.43734L472.37995,349.95729L471.41983,349.95729L471.41983,349.47724L470.4597,349.47724L470.4597,348.99719L469.97964,348.99719
				L469.97964,348.51714L469.01952,348.51714L469.01952,348.03709L467.81937,348.03709L467.81937,347.31701L467.33931,347.31701
				L467.33931,346.83696L466.37919,346.83696L466.37919,346.35691L465.41906,346.35691L465.41906,345.87686L464.939,345.87686L464.939,345.39681
				L463.73885,345.39681L463.73885,344.91676L462.77873,344.91676L462.77873,344.4367L462.29867,344.4367L462.29867,343.95665L461.33855,343.95665
				L461.33855,343.4766L460.37842,343.4766L460.37842,342.75652L459.65833,342.75652L459.65833,342.27647L458.69821,342.27647L458.69821,341.79642
				L457.73809,341.79642L457.73809,341.31637L456.77797,341.31637L456.77797,340.83632L456.29791,340.83632L456.29791,340.35627
				L455.09775,340.35627L455.09775,339.87622L454.13763,339.87622L454.13763,339.39617L453.65757,339.39617L453.65757,338.91612
				L452.69745,338.91612L452.69745,339.39617L451.01724,339.39617L451.01724,339.87622L450.05711,339.87622L450.05711,340.35627
				L448.61693,340.35627L448.61693,340.83632L447.17675,340.83632L447.17675,341.31637L445.9766,341.31637L445.9766,341.79642L444.53641,341.79642
				L444.53641,342.27647L443.09623,342.27647L443.09623,342.75652L441.89608,342.75652L441.89608,343.4766L440.4559,343.4766L440.4559,343.95665
				L439.49577,343.95665L439.49577,344.4367L437.81556,344.4367L437.81556,344.91676L436.37538,344.91676L436.37538,345.39681L435.41526,345.39681
				L435.41526,345.87686L433.97507,345.87686L433.97507,346.35691L432.29486,346.35691L432.29486,346.83696L431.33474,346.83696
				L431.33474,347.31701L429.89456,347.31701L429.89456,348.03709L428.6944,348.03709L428.6944,349.47724L428.21434,349.47724L428.21434,353.55768
				L427.73428,353.55768L427.73428,357.15806L427.25422,357.15806L427.25422,360.03837L426.77416,360.03837L426.77416,363.1587L
				426.2941,363.1587L426.2941,363.63875L281.55573,363.63875L281.55573,363.1587L154.09956,363.1587L154.09956,352.11752L153.6195,352.11752
				L153.6195,348.03709L153.13943,348.03709L153.13943,343.95665L152.65937,343.95665L152.65937,339.87622L152.17931,339.87622L
				152.17931,336.27583L151.69925,336.27583L151.69925,332.1954L150.97916,332.1954L150.97916,328.59502L150.4991,328.59502L150.4991,324.51458
				L150.01904,324.51458L150.01904,321.15422L149.53898,321.15422L149.53898,317.07379L149.05892,317.07379L149.05892,313.4734L
				148.57886,313.4734L148.57886,309.39297L148.09879,309.39297L148.09879,305.79259L147.61873,305.79259L147.61873,303.1523L147.13867,303.1523
				L147.13867,302.67225L146.41858,302.67225L146.41858,302.1922L145.93852,302.1922L145.93852,301.71215L144.49834,301.71215L144.49834,302.1922
				L142.33806,302.1922L142.33806,302.67225L140.41782,302.67225L140.41782,303.1523L138.49758,303.1523L138.49758,303.87238L136.3373,303.87238
				L136.3373,304.35243L134.41706,304.35243L134.41706,304.83248L130.33654,304.83248L130.33654,305.31253L125.2959,305.31253L125.2959,305.79259
				L120.73532,305.79259L120.73532,306.27264L118.57505,306.27264L118.57505,306.75269L116.6548,306.75269L116.6548,307.23274L114.49453,307.23274
				L114.49453,307.95282L112.57429,307.95282L112.57429,308.43287L110.41401,308.43287L110.41401,308.91292L108.49377,308.91292
				L108.49377,309.39297L106.33349,309.39297L106.33349,309.87302L104.41325,309.87302L104.41325,310.35307L102.25298,310.35307
				L102.25298,310.83312L100.33273,310.83312L100.33273,311.31317L98.17246,311.31317L98.17246,311.79323L96.25222,311.79323L96.25222,312.5133
				L94.33197,312.5133L94.33197,312.99335L92.1717,312.99335L92.1717,313.4734L90.25145,313.4734L90.25145,313.95346L89.77139,313.95346
				L89.77139,314.43351L89.0513,314.43351L89.0513,315.39361L87.61112,315.39361L87.61112,315.87366L85.69087,315.87366L85.69087,316.35371
				L83.5306,316.35371L83.5306,317.07379L81.61036,317.07379L81.61036,317.55384L79.45008,317.55384L79.45008,318.03389L77.52984,318.03389
				L77.52984,318.51394L75.36957,318.51394L75.36957,318.99399L73.44932,318.99399L73.44932,319.47404L71.28905,319.47404L71.28905,319.9541
				L69.3688,319.9541L69.3688,320.43415L67.20853,320.43415L67.20853,321.15422L65.28829,321.15422L65.28829,321.63427L63.36804,321.63427
				L63.36804,322.11433L61.20777,322.11433L61.20777,321.63427L62.16789,321.63427L62.16789,321.15422L62.64795,321.15422L62.64795,320.43415
				L63.36804,320.43415L63.36804,319.9541L63.8481,319.9541L63.8481,319.47404L64.80822,319.47404L64.80822,318.99399L65.76835,318.99399
				L65.76835,318.51394L66.24841,318.51394L66.24841,318.03389L67.20853,318.03389L67.20853,317.55384L68.40868,317.55384L68.40868,317.07379
				L69.3688,317.07379L69.3688,316.35371L69.84886,316.35371L69.84886,315.87366L70.80899,315.87366L70.80899,315.39361L71.28905,315.39361
				L71.28905,314.91356L72.4892,314.91356L72.4892,314.43351L73.44932,314.43351L73.44932,313.95346L74.40944,313.95346L74.40944,313.4734
				L75.36957,313.4734L75.36957,312.99335L76.56972,312.99335L76.56972,312.5133L77.04978,312.5133L77.04978,311.79323L78.48996,311.79323
				L78.48996,311.31317L78.97002,311.31317L78.97002,310.83312L79.93014,310.83312L79.93014,310.35307L81.1303,310.35307L81.1303,309.87302
				L82.09042,309.87302L82.09042,309.39297L82.57048,309.39297L82.57048,308.91292L83.5306,308.91292L83.5306,308.43287L84.01066,308.43287
				L84.01066,307.95282L84.49072,307.95282L84.49072,307.23274L84.97078,307.23274L84.97078,306.75269L85.69087,306.75269L85.69087,306.27264
				L86.651,306.27264L86.651,305.79259L87.13106,305.79259L87.13106,305.31253L87.61112,305.31253L87.61112,304.83248L88.57124,304.83248
				L88.57124,304.35243L89.0513,304.35243L89.0513,303.87238L89.77139,303.87238L89.77139,303.1523L90.73151,303.1523L90.73151,302.67225
				L91.21158,302.67225L91.21158,302.1922L92.1717,302.1922L92.1717,301.71215L93.13182,301.71215L93.13182,301.2321L440.4559,301.2321
				L440.4559,301.71215L441.89608,301.71215L441.89608,302.1922L443.57629,302.1922L443.57629,302.67225L444.53641,302.67225L444.53641,303.1523
				L445.9766,303.1523L445.9766,303.87238L447.17675,303.87238L447.17675,304.35243L448.61693,304.35243L448.61693,304.83248L450.05711,304.83248
				L450.05711,305.31253L451.01724,305.31253L451.01724,305.79259L452.69745,305.79259L452.69745,306.27264L453.65757,306.27264
				L453.65757,306.75269L454.13763,306.75269L454.13763,307.23274L454.61769,307.23274L454.61769,307.95282L455.81785,307.95282
				L455.81785,308.43287L456.29791,308.43287L456.29791,308.91292L456.77797,308.91292L456.77797,309.39297L457.25803,309.39297
				L457.25803,309.87302L457.73809,309.87302L457.73809,310.35307L458.21815,310.35307L458.21815,310.83312L458.69821,310.83312
				L458.69821,311.31317L459.17827,311.31317L459.17827,311.79323L460.85848,311.79323L460.85848,312.5133L462.29867,312.5133L462.29867,312.99335
				L463.25879,312.99335L463.25879,313.4734L464.939,313.4734L464.939,313.95346L465.89912,313.95346L465.89912,314.43351L466.85925,314.43351
				L466.85925,314.91356L468.29943,314.91356L468.29943,315.39361L469.49958,315.39361L469.49958,315.87366L470.93976,315.87366
				L470.93976,316.35371L471.89989,316.35371L471.89989,317.07379L473.5801,317.07379L473.5801,317.55384L474.54022,317.55384L474.54022,318.03389
				L475.50034,318.03389L475.50034,318.51394L476.46046,318.51394L476.46046,318.99399L477.42059,318.99399L477.42059,319.47404
				L478.62074,319.47404L478.62074,319.9541L479.58086,319.9541L479.58086,320.43415L480.06092,320.43415L480.06092,321.15422L480.54098,321.15422
				L480.54098,321.63427L481.02104,321.63427L481.02104,322.11433L481.5011,322.11433L481.5011,322.59438L483.66138,322.59438L483.66138,323.07443
				L486.06168,323.07443L486.06168,322.59438L486.78177,322.59438L486.78177,322.11433L487.26184,322.11433L487.26184,321.63427
				L488.22196,321.63427L488.22196,320.43415L489.18208,320.43415L489.18208,319.9541L490.1422,319.9541L490.1422,319.47404L491.34235,319.47404
				L491.34235,318.51394L492.30248,318.51394L492.30248,318.03389L493.2626,318.03389L493.2626,317.55384L494.22272,317.55384L494.22272,318.03389
				L495.90293,318.03389L495.90293,318.51394L497.34311,318.51394L497.34311,318.99399L498.7833,318.99399L498.7833,319.47404L500.46351,319.47404
				L500.46351,319.9541L501.42363,319.9541L501.42363,320.43415L502.38375,320.43415L502.38375,321.15422L503.34388,321.15422L503.34388,321.63427
				L503.82394,321.63427L503.82394,322.11433L504.54403,322.11433L504.54403,322.59438L505.02409,322.59438L505.02409,323.07443
				L505.50415,323.07443L505.50415,323.55448L505.98421,323.55448L505.98421,324.03453L506.46427,324.03453L506.46427,324.51458
				L506.94433,324.51458L506.94433,324.99463L507.42439,324.99463L507.42439,325.71471L507.90446,325.71471L507.90446,326.19476
				L508.38452,326.19476L508.38452,326.67481L509.10461,326.67481L509.10461,327.15486L509.58467,327.15486L509.58467,327.63491
				L510.06473,327.63491L510.06473,328.11496L510.54479,328.11496L510.54479,328.59502L511.02485,328.59502L511.02485,329.55512
				L511.50491,329.55512L511.50491,330.27519L511.98497,330.27519L511.98497,330.75525L512.46503,330.75525L512.46503,331.2353L
				513.18513,331.2353L513.18513,332.1954L513.66519,332.1954L513.66519,332.67545L514.14525,332.67545L514.14525,333.1555L514.62531,333.1555
				L514.62531,333.63555L515.10537,333.63555L515.10537,334.35563L515.58543,334.35563L515.58543,335.31573L516.06549,335.31573
				L516.06549,335.79578L516.54555,335.79578L516.54555,336.27583L517.02561,336.27583L517.02561,336.75589L517.7457,336.75589L
				517.7457,337.23594L518.22576,337.23594L518.22576,338.19604L518.70583,338.19604L518.70583,339.39617L519.18589,339.39617L519.18589,339.87622
				L519.66595,339.87622L519.66595,340.35627L520.14601,340.35627L520.14601,341.31637L520.62607,341.31637L520.62607,342.27647
				L521.10613,342.27647L521.10613,343.95665L521.58619,343.95665L521.58619,345.39681L522.30628,345.39681L522.30628,346.35691
				L522.78634,346.35691L522.78634,346.83696L523.2664,346.83696L523.2664,347.31701L523.74647,347.31701L523.74647,348.51714L524.22653,348.51714
				L524.22653,349.47724L524.70659,349.47724L524.70659,349.95729L525.18665,349.95729L525.18665,351.39745L525.66671,351.39745
				L525.66671,352.59757L526.3868,352.59757L526.3868,353.55768L526.86686,353.55768L526.86686,354.51778L527.34692,354.51778L527.34692,355.95793
				L527.82698,355.95793L527.82698,357.15806L528.30704,357.15806L528.30704,358.59821L528.78711,358.59821L528.78711,359.55832
				L529.26717,359.55832L529.26717,361.23849L529.74723,361.23849L529.74723,362.1986L530.22729,362.1986L530.22729,363.63875L530.94738,363.63875
				L530.94738,364.1188L531.42744,364.1188L531.42744,365.31893L531.9075,365.31893L531.9075,365.79898L532.38756,365.79898L532.38756,366.75908
				L532.86762,366.75908L532.86762,367.23913L533.34768,367.23913L533.34768,367.71918L533.82774,367.71918L533.82774,368.19924
				L534.30781,368.19924L534.30781,368.67929L534.78787,368.67929L534.78787,369.15934L535.50796,369.15934L535.50796,370.35947
				L535.98802,370.35947L535.98802,370.83952L536.46808,370.83952L536.46808,371.79962L536.94814,371.79962L536.94814,372.75972
				L537.4282,372.75972L537.4282,373.23977L537.90826,373.23977L537.90826,374.4399L538.38832,374.4399L538.38832,374.91995L538.86838,374.91995
				L538.86838,375.4L539.58848,375.4L539.58848,376.36011L540.06854,376.36011L540.06854,376.84016L540.5486,376.84016L540.5486,377.80026
				L541.02866,377.80026L541.02866,378.52034L541.50872,378.52034L541.50872,379.00039L541.98878,379.00039L541.98878,379.48044
				L542.46884,379.48044L542.46884,379.96049L542.9489,379.96049L542.9489,381.40064L543.42896,381.40064L543.42896,381.88069L544.14905,381.88069
				L544.14905,382.36075L544.62912,382.36075L544.62912,383.56087L545.10918,383.56087L545.10918,384.04092L545.58924,384.04092
				L545.58924,385.00103L546.0693,385.00103L546.0693,385.96113L546.54936,385.96113L546.54936,386.92123L547.02942,386.92123L547.02942,387.64131
				L547.50948,387.64131L547.50948,388.60141L547.98954,388.60141L547.98954,389.08146L548.70963,389.08146L548.70963,390.52161
				L549.66976,390.52161L549.66976,428.68568L549.18969,428.68568L549.18969,431.80601L548.70963,431.80601L548.70963,433.72622
				L547.98954,433.72622L547.98954,435.88645L547.50948,435.88645L547.50948,437.3266L547.02942,437.3266L547.02942,438.76676L546.54936,438.76676
				L546.54936,440.44693L546.0693,440.44693L546.0693,441.88709L545.58924,441.88709L545.58924,443.32724L545.10918,443.32724L545.10918,445.48747
				L544.62912,445.48747L544.62912,447.40768L544.14905,447.40768L544.14905,456.52865L543.42896,456.52865L543.42896,459.16893
				L542.9489,459.16893L542.9489,460.60908L542.46884,460.60908L542.46884,461.56919L541.98878,461.56919L541.98878,463.24936L541.50872,463.24936
				L541.50872,464.20947L541.02866,464.20947L541.02866,465.16957L540.5486,465.16957L540.5486,466.12967L540.06854,466.12967L540.06854,467.3298
				L539.58848,467.3298L539.58848,468.2899L538.38832,468.2899L538.38832,468.76995L537.90826,468.76995L537.90826,469.25L537.4282,469.25
				L537.4282,469.73006L536.46808,469.73006L536.46808,470.21011L535.98802,470.21011L535.98802,470.69016L534.78787,470.69016L
				534.78787,471.41023L534.30781,471.41023L534.30781,471.89029L533.34768,471.89029L533.34768,472.37034L532.38756,472.37034L
				532.38756,472.85039L531.42744,472.85039L531.42744,473.33044L529.74723,473.33044L529.74723,473.81049L528.78711,473.81049L
				528.78711,474.29054L527.82698,474.29054L527.82698,474.77059L524.70659,474.77059L524.70659,475.49067L523.2664,475.49067L523.2664,475.97072
				L521.58619,475.97072L521.58619,476.45077L520.14601,476.45077L520.14601,476.93082L517.02561,476.93082L517.02561,477.41087
				L513.66519,477.41087L513.66519,476.93082L510.54479,476.93082L510.54479,477.41087L504.54403,477.41087L504.54403,477.89092
				L503.34388,477.89092L503.34388,478.37098L502.86382,478.37098L502.86382,478.85103L501.90369,478.85103L501.90369,479.33108
				L501.42363,479.33108L501.42363,480.05116L500.94357,480.05116L500.94357,480.53121L499.26336,480.53121L499.26336,481.01126
				L498.30324,481.01126L498.30324,481.49131L497.34311,481.49131L497.34311,481.97136L495.90293,481.97136L495.90293,482.45141
				L494.70278,482.45141L494.70278,482.93146L493.2626,482.93146L493.2626,483.41151L484.6215,483.41151L484.6215,483.89156L484.14144,483.89156
				L484.14144,484.61164L483.66138,484.61164L483.66138,485.09169L483.18132,485.09169L483.18132,485.57174L482.70126,485.57174
				L482.70126,486.53185L482.2212,486.53185L482.2212,487.0119L481.5011,487.0119L481.5011,487.49195L481.02104,487.49195L481.02104,487.972
				L480.54098,487.972L480.54098,488.69208L479.58086,488.69208L479.58086,489.17213L479.1008,489.17213L479.1008,489.65218L478.62074,489.65218
				L478.62074,490.13223L478.14068,490.13223L478.14068,490.61228L477.42059,490.61228L477.42059,491.09233L476.94053,491.09233
				L476.94053,491.57238L476.46046,491.57238L476.46046,492.05243L475.9804,492.05243L475.9804,493.25256L475.50034,493.25256L475.50034,493.73261
				L475.02028,493.73261L475.02028,494.21266L474.06016,494.21266L474.06016,494.69272L473.5801,494.69272L473.5801,495.17277L472.86001,495.17277
				L472.86001,495.65282L472.37995,495.65282L472.37995,496.13287L471.89989,496.13287L471.89989,496.61292L471.41983,496.61292
				L471.41983,497.09297L470.93976,497.09297L470.93976,497.81305L470.4597,497.81305L470.4597,498.2931L469.49958,498.2931L469.49958,498.77315
				L468.29943,498.77315L468.29943,499.2532L467.33931,499.2532L467.33931,499.73325L466.37919,499.73325L466.37919,500.2133L464.939,500.2133
				L464.939,500.69335L463.73885,500.69335L463.73885,501.17341L462.29867,501.17341L462.29867,501.65346L461.33855,501.65346L461.33855,502.37353
				L459.65833,502.37353L459.65833,502.85359L458.21815,502.85359L458.21815,503.33364L456.77797,503.33364L456.77797,503.81369
				L456.29791,503.81369L456.29791,504.29374L455.81785,504.29374L455.81785,504.77379L454.61769,504.77379L454.61769,505.25384
				L454.13763,505.25384L454.13763,506.45397L453.65757,506.45397L453.65757,506.93402L453.17751,506.93402L453.17751,507.89412
				L453.65757,507.89412L453.65757,511.97456L453.17751,511.97456L453.17751,516.05499L452.69745,516.05499L452.69745,517.9752L
				452.21739,517.9752L452.21739,518.9353L451.73733,518.9353L451.73733,519.65538L451.01724,519.65538L451.01724,520.61548L450.53717,520.61548
				L450.53717,521.09553L450.05711,521.09553L450.05711,522.05563L449.09699,522.05563L449.09699,522.53568L448.61693,522.53568
				L448.61693,523.01573L447.65681,523.01573L447.65681,523.49578L447.17675,523.49578L447.17675,524.21586L445.9766,524.21586L
				445.9766,524.69591L445.49654,524.69591L445.49654,525.65601L445.01647,525.65601L445.01647,526.13607L444.53641,526.13607L444.53641,527.09617
				L444.05635,527.09617L444.05635,528.05627L443.57629,528.05627L443.57629,529.2564L443.09623,529.2564L443.09623,529.73645L442.61617,529.73645
				L442.61617,530.69655L441.89608,530.69655L441.89608,531.1766L441.41602,531.1766L441.41602,532.13671L440.93596,532.13671L440.93596,533.33683
				L440.4559,533.33683L440.4559,533.81688L439.97583,533.81688L439.97583,534.29694L439.49577,534.29694L439.49577,535.25704L439.01571,535.25704
				L439.01571,535.73709L438.53565,535.73709L438.53565,536.69719L437.81556,536.69719L437.81556,537.41727L437.3355,537.41727L
				437.3355,538.37737L436.85544,538.37737L436.85544,538.85742L436.37538,538.85742L436.37538,539.81752L435.89532,539.81752L435.89532,540.29758
				L435.41526,540.29758L435.41526,540.77763L364.36624,540.77763L364.36624,540.29758L362.68603,540.29758L362.68603,539.81752
				L362.20597,539.81752L362.20597,539.33747L361.24584,539.33747L361.24584,538.85742L360.76578,538.85742L360.76578,538.37737
				L360.28572,538.37737L360.28572,537.41727L359.80566,537.41727L359.80566,536.69719L359.3256,536.69719L359.3256,535.73709L358.84554,535.73709
				L358.84554,534.77699L358.12545,534.77699L358.12545,534.29694L357.64539,534.29694L357.64539,533.33683L357.16533,533.33683
				L357.16533,532.13671L356.2052,532.13671L356.2052,531.65665L355.24508,531.65665L355.24508,531.1766L353.56487,531.1766L353.56487,530.69655
				L353.08481,530.69655L353.08481,530.2165L352.12469,530.2165L352.12469,529.73645L351.64463,529.73645L351.64463,529.2564L350.6845,529.2564
				L350.6845,528.77635"/>
			<path clip-path="url(#SVG_CP_2)" fill="none" stroke="#999999" stroke-width="0.96012" stroke-miterlimit="10" stroke-linecap="round" stroke-linejoin="round" d="
				M350.6845,528.77635L349.48435,528.77635L349.48435,528.05627L349.00429,528.05627L349.00429,527.57622L347.56411,527.57622L
				347.56411,527.09617L347.08405,527.09617L347.08405,526.61612L345.64386,526.61612L345.64386,526.13607L344.92377,526.13607L
				344.92377,525.65601L344.44371,525.65601L344.44371,525.17596L343.00353,525.17596L343.00353,524.69591L342.52347,524.69591L
				342.52347,524.21586L341.56335,524.21586L341.56335,523.49578L340.36319,523.49578L340.36319,523.01573L339.40307,523.01573L
				339.40307,522.53568L338.92301,522.53568L338.92301,522.05563L337.48283,522.05563L337.48283,521.57558L336.28268,521.57558L
				336.28268,521.09553L335.80261,521.09553L335.80261,521.57558L332.92225,521.57558L332.92225,522.05563L331.24204,522.05563L
				331.24204,521.57558L328.84173,521.57558L328.84173,521.09553L326.68146,521.09553L326.68146,520.61548L325.24127,520.61548L
				325.24127,520.13543L324.28115,520.13543L324.28115,519.65538L323.081,519.65538L323.081,518.9353L322.12088,518.9353L322.12088,518.45525
				L321.64082,518.45525L321.64082,517.9752L321.16076,517.9752L321.16076,517.49515L320.6807,517.49515L320.6807,517.01509L320.20063,517.01509
				L320.20063,516.53504L319.72057,516.53504L319.72057,516.05499L319.24051,516.05499L319.24051,515.57494L318.52042,515.57494
				L318.52042,514.85486L318.04036,514.85486L318.04036,514.37481L317.5603,514.37481L317.5603,513.89476L317.08024,513.89476L317.08024,512.93466
				L316.60018,512.93466L316.60018,512.45461L310.59942,512.45461L310.59942,511.97456L308.9192,511.97456L308.9192,511.49451L308.43914,511.49451
				L308.43914,511.01445L307.95908,511.01445L307.95908,510.29438L306.99896,510.29438L306.99896,509.81433L305.31875,509.81433
				L305.31875,509.33428L304.83869,509.33428L304.83869,508.85422L304.35862,508.85422L304.35862,508.37417L302.91844,508.37417
				L302.91844,507.89412L300.27811,507.89412L300.27811,507.41407L298.35786,507.41407L298.35786,506.93402L297.8778,506.93402L
				297.8778,506.45397L296.67765,506.45397L296.67765,505.73389L294.75741,505.73389L294.75741,505.25384L293.31722,505.25384L293.31722,504.77379
				L292.83716,504.77379L292.83716,504.29374L291.63701,504.29374L291.63701,503.81369L290.19683,503.81369L290.19683,503.33364
				L289.23671,503.33364L289.23671,502.85359L288.27658,502.85359L288.27658,502.37353L287.07643,502.37353L287.07643,501.65346
				L286.59637,501.65346L286.59637,501.17341L285.63625,501.17341L285.63625,500.69335L285.15619,500.69335L285.15619,500.2133L
				284.19607,500.2133L284.19607,499.73325L283.47597,499.73325L283.47597,499.2532L282.51585,499.2532L282.51585,498.77315L282.03579,498.77315
				L282.03579,498.2931L281.07567,498.2931L281.07567,497.81305L280.59561,497.81305L280.59561,497.09297L280.11555,497.09297L280.11555,496.61292
				L278.9154,496.61292L278.9154,496.13287L277.95527,496.13287L277.95527,495.65282L277.47521,495.65282L277.47521,495.17277L276.51509,495.17277
				L276.51509,494.69272L276.03503,494.69272L276.03503,494.21266L275.07491,494.21266L275.07491,493.73261L274.35482,493.73261
				L274.35482,493.25256L273.3947,493.25256L273.3947,492.53249L272.43457,492.53249L272.43457,492.05243L271.95451,492.05243L271.95451,491.57238
				L271.47445,491.57238L271.47445,491.09233L270.2743,491.09233L270.2743,491.57238L268.83412,491.57238L268.83412,491.09233L263.79348,491.09233
				L263.79348,491.57238L258.75284,491.57238L258.75284,492.05243L253.23214,492.05243L253.23214,492.53249L251.07186,492.53249
				L251.07186,492.05243L245.55116,492.05243L245.55116,491.57238L242.91083,491.57238L242.91083,491.09233L241.47064,491.09233
				L241.47064,490.61228L240.03046,490.61228L240.03046,490.13223L236.91007,490.13223L236.91007,489.65218L235.46988,489.65218
				L235.46988,489.17213L233.78967,489.17213L233.78967,488.69208L232.34949,488.69208L232.34949,487.972L230.9093,487.972L230.9093,487.49195
				L229.22909,487.49195L229.22909,487.0119L228.26897,487.0119L228.26897,486.53185L226.82879,486.53185L226.82879,486.05179L225.62863,486.05179
				L225.62863,485.57174L224.66851,485.57174L224.66851,485.09169L223.22833,485.09169L223.22833,484.61164L222.26821,484.61164
				L222.26821,483.89156L221.06805,483.89156L221.06805,483.41151L220.10793,483.41151L220.10793,482.93146L219.14781,482.93146
				L219.14781,482.45141L217.70763,482.45141L217.70763,481.97136L216.50748,481.97136L216.50748,481.49131L215.54735,481.49131
				L215.54735,481.01126L214.58723,481.01126L214.58723,480.53121L213.62711,480.53121L213.62711,480.05116L212.42696,480.05116
				L212.42696,479.33108L211.46684,479.33108L211.46684,478.85103L210.02665,478.85103L210.02665,478.37098L209.06653,478.37098
				L209.06653,477.89092L207.86638,477.89092L207.86638,477.41087L206.90626,477.41087L206.90626,476.93082L205.94614,476.93082
				L205.94614,476.45077L204.98601,476.45077L204.98601,475.97072L203.78586,475.97072L203.78586,475.49067L199.70534,475.49067
				L199.70534,474.77059L198.26516,474.77059L198.26516,474.29054L195.86486,474.29054L195.86486,473.81049L193.22452,473.81049
				L193.22452,473.33044L189.144,473.33044L189.144,472.85039L186.7437,472.85039L186.7437,472.37034L185.06349,472.37034L185.06349,471.89029
				L183.6233,471.89029L183.6233,471.41023L181.94309,471.41023L181.94309,470.69016L180.02285,470.69016L180.02285,470.21011L178.58266,470.21011
				L178.58266,469.73006L176.90245,469.73006L176.90245,469.25L175.46227,469.25L175.46227,468.76995L172.34187,468.76995L172.34187,468.2899
				L170.90169,468.2899L170.90169,467.80985L169.94157,467.80985L169.94157,467.3298L168.26135,467.3298L168.26135,466.84975L166.82117,466.84975
				L166.82117,466.12967L165.38099,466.12967L165.38099,465.64962L163.70077,465.64962L163.70077,465.16957L162.26059,465.16957
				L162.26059,464.68952L160.82041,464.68952L160.82041,464.20947L159.1402,464.20947L159.1402,463.72942L158.18007,463.72942L158.18007,463.24936
				L156.73989,463.24936L156.73989,462.76931L155.53974,462.76931L155.53974,462.28926L154.09956,462.28926L154.09956,461.56919
				L153.13943,461.56919L153.13943,461.08913L151.69925,461.08913L151.69925,460.60908L150.4991,460.60908L150.4991,460.12903L149.05892,460.12903
				L149.05892,459.64898L147.61873,459.64898L147.61873,459.16893L145.93852,459.16893L145.93852,458.68888L144.9784,458.68888L
				144.9784,458.20883L143.53822,458.20883L143.53822,457.48875L142.33806,457.48875L142.33806,457.0087L140.89788,457.0087L140.89788,456.52865
				L139.93776,456.52865L139.93776,456.0486L138.49758,456.0486L138.49758,455.56855L137.29742,455.56855L137.29742,455.0885L135.85724,455.0885
				L135.85724,454.60844L134.89712,454.60844L134.89712,454.12839L133.937,454.12839L133.937,453.64834L132.25678,453.64834L132.25678,452.92826
				L131.29666,452.92826L131.29666,452.44821L130.33654,452.44821L130.33654,451.96816L128.65633,451.96816L128.65633,451.48811
				L127.69621,451.48811L127.69621,451.00806L126.73608,451.00806L126.73608,450.52801L125.77596,450.52801L125.77596,450.04796
				L124.57581,450.04796L124.57581,449.56791L123.61569,449.56791L123.61569,449.08786L122.65557,449.08786L122.65557,448.36778
				L121.69544,448.36778L121.69544,447.88773L120.73532,447.88773L120.73532,447.40768L119.53517,447.40768L119.53517,446.92763
				L118.57505,446.92763L118.57505,446.44757L117.13487,446.44757L117.13487,445.96752L115.93471,445.96752L115.93471,445.48747
				L114.97459,445.48747L114.97459,445.00742L114.01447,445.00742L114.01447,444.28734L113.05435,444.28734L113.05435,443.80729
				L112.09423,443.80729L112.09423,443.32724L111.37413,443.32724L111.37413,442.84719L110.41401,442.84719L110.41401,442.36714
				L109.45389,442.36714L109.45389,441.88709L108.49377,441.88709L108.49377,441.40704L107.53365,441.40704L107.53365,440.92699
				L106.81356,440.92699L106.81356,440.44693L105.85343,440.44693L105.85343,439.72686L104.89331,439.72686L104.89331,439.24681
				L103.93319,439.24681L103.93319,438.76676L103.45313,438.76676L103.45313,438.2867L102.97307,438.2867L102.97307,437.80665L102.25298,437.80665
				L102.25298,436.84655L101.77292,436.84655L101.77292,435.88645L101.29285,435.88645L101.29285,434.68632L100.81279,434.68632
				L100.81279,433.72622L100.33273,433.72622L100.33273,432.28607L99.85267,432.28607L99.85267,431.08594L99.37261,431.08594L99.37261,429.64578
				L98.89255,429.64578L98.89255,428.68568L98.17246,428.68568L98.17246,427.24553L97.6924,427.24553L97.6924,426.0454L97.21234,426.0454
				L97.21234,424.60525L96.73228,424.60525L96.73228,423.64514L96.25222,423.64514L96.25222,422.68504L95.77215,422.68504L95.77215,421.48491
				L95.29209,421.48491L95.29209,421.00486L94.81203,421.00486L94.81203,420.52481L94.33197,420.52481L94.33197,420.04476L93.61188,420.04476
				L93.61188,419.56471L93.13182,419.56471L93.13182,419.08466L92.65176,419.08466L92.65176,418.60461L92.1717,418.60461L92.1717,417.88453
				L91.69164,417.88453L91.69164,417.40448L91.21158,417.40448L91.21158,416.92443L90.73151,416.92443L90.73151,416.44438L90.25145,416.44438
				L90.25145,415.48427L89.0513,415.48427L89.0513,415.00422L88.57124,415.00422L88.57124,414.52417L88.09118,414.52417L88.09118,414.04412
				L87.61112,414.04412L87.61112,413.32404L87.13106,413.32404L87.13106,412.84399L86.651,412.84399L86.651,412.36394L86.17094,412.36394
				L86.17094,411.88389L85.69087,411.88389L85.69087,411.40384L84.97078,411.40384L84.97078,409.96369L84.49072,409.96369L84.49072,408.76356
				L84.01066,408.76356L84.01066,407.32341L83.5306,407.32341L83.5306,406.84335L83.05054,406.84335L83.05054,403.72302L83.5306,403.72302
				L83.5306,403.24297L83.05054,403.24297L83.05054,402.28287L82.57048,402.28287L82.57048,400.84271L82.09042,400.84271L82.09042,399.64259
				L81.61036,399.64259L81.61036,398.68248L81.1303,398.68248L81.1303,397.72238L80.4102,397.72238L80.4102,396.76228L79.93014,396.76228
				L79.93014,396.28223L79.45008,396.28223L79.45008,395.0821L78.97002,395.0821L78.97002,394.60205L78.48996,394.60205L78.48996,393.64195
				L78.0099,393.64195L78.0099,392.68185L77.52984,392.68185L77.52984,391.72174L77.04978,391.72174L77.04978,390.52161L76.56972,390.52161
				L76.56972,390.04156L75.84963,390.04156L75.84963,389.08146L75.36957,389.08146L75.36957,388.12136L74.8895,388.12136L74.8895,386.92123
				L74.40944,386.92123L74.40944,385.48108L73.92938,385.48108L73.92938,384.52098L73.44932,384.52098L73.44932,383.56087L72.96926,383.56087
				L72.96926,382.36075L72.4892,382.36075L72.4892,381.40064L71.76911,381.40064L71.76911,380.44054L71.28905,380.44054L71.28905,379.00039
				L70.80899,379.00039L70.80899,377.80026L70.32893,377.80026L70.32893,377.32021L69.84886,377.32021L69.84886,376.84016L69.3688,376.84016
				L69.3688,376.36011L68.88874,376.36011L68.88874,375.88005L67.92862,375.88005L67.92862,375.4L66.72847,375.4L66.72847,374.91995
				L66.24841,374.91995L66.24841,374.4399L65.76835,374.4399L65.76835,373.71982L65.28829,373.71982L65.28829,372.75972L64.80822,372.75972
				L64.80822,371.79962L64.32816,371.79962L64.32816,371.31957L63.8481,371.31957L63.8481,370.83952L63.36804,370.83952L63.36804,369.87942
				L62.64795,369.87942L62.64795,369.15934L62.16789,369.15934L62.16789,368.19924L61.68783,368.19924L61.68783,367.23913L61.20777,367.23913
				L61.20777,366.75908L60.72771,366.75908L60.72771,365.79898L60.24765,365.79898L60.24765,364.59885L59.76759,364.59885L59.76759,364.1188
				L59.28752,364.1188L59.28752,363.63875L58.56743,363.63875L58.56743,362.1986L58.08737,362.1986L58.08737,360.51842L57.60731,360.51842
				L57.60731,359.07826L57.12725,359.07826L57.12725,357.63811L56.64719,357.63811L56.64719,355.47788L56.16713,355.47788L56.16713,354.03773
				L55.68707,354.03773L55.68707,353.07762"/>
		</g>
</g></svg>