<?xml version="1.0" encoding="utf-8" standalone="no"?>
<!-- Creator: ESRI ArcMap 10.0.0.2414 -->
<!DOCTYPE svg PUBLIC "-//W3C//DTD SVG 1.1//EN"  "http://www.w3.org/Graphics/SVG/1.1/DTD/svg11.dtd">
<svg width="498.274353057pt" height="741.1872776pt" viewBox="48.6140034714 45.48194658 498.274353057 741.1872776" enable-background="new 48.6140034714 45.48194658 498.274353057 741.1872776"
	version="1.1" xmlns="http://www.w3.org/2000/svg" xmlns:xlink="http://www.w3.org/1999/xlink" >
	<g id="Couches">
		<g id="reservoirs">
			<clipPath id="SVG_CP_2">
				<path d="M574.39289,21.36228L21.36271,21.36228L21.36271,821.36753L574.39289,821.36753L574.39289,21.36228z"/>
			</clipPath>
			<path clip-path="url(#SVG_CP_2)" fill-opacity="0.2" fill="#2f4493" fill-rule="evenodd" stroke="#2f4493" stroke-width="1" stra="1.44018" stroke-miterlimit="10" stroke-linecap="round" stroke-linejoin="round" d="
				M528.06701,758.72085L537.4282,768.80192L541.26869,773.36241L539.34845,773.84246L538.38832,771.68223L536.70811,770.00205L
				536.94814,772.16228L533.34768,772.88236L532.86762,768.80192L528.30704,768.80192L528.54707,773.12239L529.26717,775.52264L
				529.26717,776.00269L528.30704,776.24272L526.62683,776.72277L524.70659,776.96279L523.2664,777.44285L521.34616,777.9229L519.90598,778.16292
				L518.4658,778.64297L515.3454,779.36305L512.70506,780.08313L511.50491,780.32315L510.30476,780.56318L509.10461,781.04323L507.18436,781.52328
				L504.304,782.24336L501.42363,782.72341L498.54327,783.68351L498.30324,783.68351L495.6629,784.40359L494.70278,784.64361L493.98269,784.88364
				L493.98269,784.40359L493.98269,783.20346L494.22272,782.96343L494.46275,779.8431L496.62302,766.40167L498.54327,751.76011L
				499.98345,743.11919L508.14449,745.99949L513.18513,748.39975L515.10537,749.35985L522.06625,753.44029L528.06701,758.72085z
				"/>
			<path clip-path="url(#SVG_CP_2)" fill-opacity="0.2" fill="#2f4493" fill-rule="evenodd" stroke="#2f4493" stroke-width="1" stra="1.44018" stroke-miterlimit="10" stroke-linecap="round" stroke-linejoin="round" d="
				M419.09318,80.40857L423.65376,80.64859L427.49425,80.40857L432.77492,79.92852L449.81708,77.28824L460.85848,74.1679L473.5801,69.36739
				L481.98117,65.52698L488.46199,69.84744L487.0218,73.68785L486.30171,76.32813L485.34159,79.68849L484.86153,82.5688L483.90141,85.20908
				L482.2212,88.08939L480.78101,91.68977L479.34083,94.33005L479.34083,94.8101L479.34083,95.77021L479.34083,97.45038L480.78101,100.09067
				L483.18132,103.211L485.82165,107.77148L487.7419,110.41177L489.18208,113.05205L489.90217,115.93235L489.18208,117.13248L489.18208,117.37251
				L487.26184,118.81266L484.38147,121.21292L481.02104,123.13312L478.14068,125.53338L475.50034,126.97353L472.37995,129.37379
				L475.74037,133.45422L479.58086,130.33389L480.54098,129.85384L481.26107,130.81394L482.2212,132.01407L483.90141,134.1743L484.86153,135.85448
				L485.58162,137.29463L486.30171,139.45486L487.0218,142.57519L487.26184,144.97545L487.0218,147.61573L486.54174,149.05588L486.06168,150.97609
				L485.34159,153.13632L485.10156,155.29655L484.6215,157.45678L484.38147,159.85704L484.38147,162.25729L484.38147,164.1775L484.6215,167.77788
				L485.34159,170.17813L486.78177,173.29847L487.26184,174.73862L487.50187,176.17877L487.0218,177.61893L486.30171,180.01918L
				485.34159,182.89949L484.38147,185.53977L482.70126,188.42008L482.2212,189.62021L481.02104,191.54041L478.86077,193.22059L474.30019,196.1009
				L466.85925,200.90141L472.13992,209.06228L473.10004,210.50243L459.89836,217.46317L459.4183,216.50307L455.57781,208.3422L451.73733,211.94259
				L449.09699,214.82289L446.21663,217.46317L444.53641,218.6633L443.09623,219.14335L441.89608,219.38338L441.41602,219.38338L
				433.73504,210.98248L428.6944,214.82289L422.93367,207.3821L417.89303,212.42264L420.05331,214.34284L421.25346,215.78299L421.97355,216.7431
				L422.21358,216.98312L416.93291,219.14335L419.33322,224.18389L418.37309,224.90397L420.53337,229.46445L421.25346,233.78491
				L421.97355,235.22507L422.69364,236.42519L423.41373,237.62532L423.41373,239.54553L423.65376,240.74565L423.65376,241.70576
				L423.89379,242.66586L424.61389,243.86599L427.49425,246.74629L430.13459,249.6266L432.53489,252.50691L434.69516,254.42711L
				438.05559,256.58734L440.4559,258.74757L442.8562,260.18773L444.77644,261.14783L450.29714,262.10793L451.4973,263.30806L453.8976,264.26816
				L455.81785,264.26816L456.29791,264.50819L457.73809,264.50819L460.85848,265.70831L463.25879,266.42839L466.13915,267.62852
				L467.81937,268.3486L470.21967,270.2688L471.17979,271.2289L473.5801,274.34924L475.74037,275.06931L476.22043,276.74949L477.90065,277.94962
				L479.58086,278.6697L478.86077,284.19028L476.22043,282.75013L475.02028,284.19028L474.78025,285.63044L473.82013,287.07059L
				473.34007,288.27072L469.25955,288.03069L468.53946,291.63108L459.4183,298.35179L457.25803,297.63172L457.73809,292.35115L458.93824,290.43095
				L458.45818,288.03069L457.25803,285.15039L456.05788,282.75013L454.61769,280.10985L451.73733,277.46957L445.01647,273.14911
				L442.13611,269.78875L438.53565,266.18837L437.09547,264.98824L436.85544,264.74821L435.17523,261.62788L435.17523,261.38785
				L434.69516,260.9078L434.45513,260.66778L431.33474,257.06739L428.45437,253.70704L425.09395,249.86663L423.89379,250.34668L
				421.73352,248.18645L420.7734,248.6665L421.49349,249.38658L419.57325,250.82673L417.89303,246.74629L417.41297,245.30614L417.41297,242.42583
				L420.05331,241.70576L420.29334,241.70576L421.25346,240.74565L421.49349,239.3055L421.25346,237.3853L421.01343,236.18517L420.05331,234.26496
				L419.09318,234.26496L418.61312,232.10473L417.89303,229.9445L416.69288,227.54425L415.49273,225.14399L413.57248,222.02366L
				412.1323,220.58351L406.6116,218.18325L402.05102,216.02302L398.93063,214.58287L396.05026,213.14271L394.13002,219.86343L389.08938,218.42328
				L383.32865,216.26305L380.44828,215.78299L378.28801,214.82289L376.36776,214.58287L375.16761,212.42264L374.44752,211.22251
				L373.00734,210.26241L371.80718,210.98248L371.56715,211.94259L371.56715,212.90269L365.80642,215.30294L364.12621,214.82289
				L362.20597,214.58287L359.80566,217.46317L360.28572,217.94322L359.3256,218.90333L357.88542,219.6234L357.88542,221.06356L355.48511,221.30358
				L353.8049,221.06356L351.40459,219.38338L350.20444,218.42328L349.00429,216.02302L348.04417,215.54297L347.56411,214.34284L
				347.08405,212.90269L346.60399,211.22251L341.56335,208.10218L339.6431,206.90205L338.68298,205.70192L337.96289,204.50179L336.04265,203.78172
				L334.1224,203.54169L332.68222,202.34156L332.44219,200.90141L331.48207,200.66138L330.28191,201.38146L328.84173,201.86151L
				327.64158,202.58159L325.48131,202.58159L323.80109,203.54169L322.60094,203.54169L322.36091,202.58159L317.80033,202.58159L
				315.16,202.58159L313.23975,202.34156L310.83945,201.14143L310.11936,200.18133L309.39926,199.22123L307.71905,198.74118L305.31875,197.061
				L303.3985,194.66074L303.63853,193.22059L304.35862,191.30039L304.83869,189.86023L306.03884,188.42008L306.99896,187.21995L
				307.71905,186.25985L308.67917,184.57967L303.15847,182.89949L298.35786,181.93939L292.11707,180.97929L288.51661,180.49923L
				286.8364,180.73926L285.39622,182.17941L285.87628,184.8197L286.11631,187.21995L286.11631,188.6601L287.07643,190.58031L287.31646,192.50051
				L287.07643,194.18069L287.07643,194.42072L285.87628,195.62085L284.4361,198.26113L282.99591,199.46126L282.75588,201.14143L
				282.99591,203.06164L284.67613,203.54169L288.27658,203.30166L290.91692,202.58159L293.07719,202.82161L294.51738,203.30166L
				294.99744,204.74182L294.51738,206.18197L294.27735,207.14207L292.59713,208.10218L290.91692,210.50243L291.87704,210.98248L
				294.51738,210.50243L296.91768,210.50243L298.11783,210.74246L298.59789,210.74246L300.75817,211.22251L304.35862,211.46253L
				308.67917,214.34284L308.19911,231.38466L308.67917,242.90588L301.95832,240.02558L298.83792,239.78555L295.4775,238.58542L291.63701,240.74565
				L287.55649,239.54553L281.79576,239.54553L277.71524,239.3055L273.63473,238.58542L269.55421,238.58542L265.95375,238.58542L
				264.27354,237.86535L261.39317,235.22507L258.99287,232.10473L256.83259,230.90461L254.43229,229.46445L249.87171,227.54425L
				244.59104,226.10409L240.99058,225.86407L239.5504,225.38402L238.59028,224.66394L237.1501,220.82353L235.94994,219.14335L234.98982,218.42328
				L234.0297,219.6234L232.58952,220.82353L231.14933,221.54361L227.30885,222.02366L223.70839,222.02366L220.34796,221.54361L217.94766,221.30358
				L215.54735,221.30358L213.62711,222.74374L210.74674,223.94386L209.78662,224.66394L205.22604,230.18453L203.78586,229.22443
				L202.10565,229.70448L209.54659,242.90588L211.46684,246.74629L213.62711,251.06675L215.06729,256.82737L215.78738,259.46765
				L216.26745,261.38785L216.98754,263.06803L215.54735,265.94834L213.38708,268.58862L213.14705,272.66906L213.38708,274.10921
				L213.38708,276.26944L214.10717,280.10985L215.30732,283.71023L216.50748,285.39041L217.22757,288.75077L218.42772,295.23146
				L218.90778,300.75205L219.14781,304.11241L218.42772,306.99271L218.18769,308.91292L216.50748,310.35307L215.54735,309.633L212.42696,308.19284
				L210.74674,306.75269L210.50671,303.63236L201.14553,290.43095L194.90473,297.39169L198.50519,299.3119L201.14553,301.95218L
				204.02589,304.11241L210.50671,308.43287L215.54735,311.5532L215.54735,313.95346L215.30732,318.99399L220.82802,319.47404L221.78815,319.47404
				L222.50824,314.91356L228.509,318.03389L232.10946,319.71407L233.54964,321.15422L234.26973,322.11433L234.50976,323.31445L234.0297,325.71471
				L233.06958,334.1156L232.58952,341.5564L229.94918,357.15806L229.22909,359.55832L228.74903,361.23849L228.02894,362.43862L228.02894,364.59885
				L231.86943,367.95921L232.58952,368.43926L237.1501,371.55959L240.03046,372.75972L242.19074,372.75972L244.35101,371.79962L
				246.75131,370.11944L248.91159,367.47916L250.5918,365.55895L251.55192,372.75972L254.91235,373.4798L255.63244,370.35947L258.03275,365.0789
				L259.71296,362.43862L277.47521,362.43862L283.95604,362.43862L295.23747,362.43862L304.83869,362.91867L311.79957,363.63875
				L317.32027,364.35883L325.72134,366.51906L331.48207,367.95921L338.44295,369.63939L343.00353,371.07954L343.72362,374.19988
				L343.00353,376.36011L343.48359,379.48044L346.12392,379.72046L347.56411,379.96049L349.96441,372.75972L364.36624,376.36011
				L360.04569,387.16126L363.40612,388.36138L364.36624,386.20115L364.60627,385.24105L366.76654,385.7211L367.24661,384.28095L
				370.367,385.24105L370.60703,384.28095L371.32712,380.20051L371.80718,378.04028L379.0081,379.24041L378.28801,381.64067L376.36776,389.80154
				L386.68907,392.68185L388.84935,393.1619L387.16913,398.20243L393.64996,399.88261L391.72971,404.20307L396.29029,406.60333L
				403.25117,409.96369L406.13154,396.0422L408.29181,386.20115L412.85239,388.84144L417.17294,391.48172L418.37309,391.96177L418.61312,393.64195
				L417.89303,396.52225L417.653,397.48236L416.93291,400.84271L416.45285,404.68312L415.49273,409.72366L414.77264,412.60397L413.81251,415.48427
				L412.1323,419.80474L409.97203,422.92507L407.81175,430.60589L407.57172,432.04604L407.09166,433.00614L406.37157,434.20627L
				405.41145,435.88645L403.73124,437.56663L402.29105,438.76676L401.33093,441.16701L400.85087,443.32724L400.85087,445.48747L
				400.85087,446.6876L402.29105,449.32788L374.20749,445.96752L387.40916,452.92826L393.88999,457.0087L396.53032,459.64898L392.20977,463.48939
				L389.80947,466.3697L381.88846,462.28926L379.0081,460.36906L378.04798,462.52929L377.32788,466.3697L376.36776,468.52993L375.8877,469.97008
				L376.60779,472.85039L377.80795,475.97072L379.96822,479.81113L383.56868,486.05179L381.88846,486.53185L378.76807,486.77187
				L376.60779,487.25192L373.72743,488.45205L370.367,489.65218L366.52651,490.85231L364.60627,491.57238L361.00581,493.25256L357.88542,494.93274
				L355.48511,495.65282L342.04341,505.73389L340.36319,507.17405L337.96289,508.85422L335.80261,510.5344L333.64234,511.73453L
				329.80185,514.13479L327.64158,515.57494L326.44143,516.77507L324.52118,518.69527L323.081,520.13543L321.64082,523.01573L319.9606,526.85614
				L317.80033,531.1766L313.47978,536.69719L308.19911,542.93786L302.19835,548.45844L291.39698,557.81944L282.03579,565.98031L
				274.59485,572.22098L269.79424,576.54144L268.59409,578.22162L267.39393,579.66177L266.19378,580.8619L264.51357,583.50218L262.59332,587.10256
				L261.6332,590.2229L260.67308,593.34323L260.19302,594.54336L258.51281,600.06394L257.07262,603.18428L257.07262,603.4243L252.75208,604.14438
				L249.87171,605.82456L247.71144,607.74476L246.03122,609.90499L244.59104,610.14502L245.0711,614.46548L247.47141,615.18556L
				247.71144,616.14566L248.43153,618.54591L247.71144,621.42622L253.23214,621.18619L253.47217,625.0266L244.59104,626.94681L245.55116,629.34706
				L246.03122,631.02724L246.99134,633.18747L247.23137,635.10768L246.27125,636.06778L246.03122,637.74796L243.87095,640.14822
				L243.63092,640.38824L241.47064,640.86829L241.71067,637.50793L236.91007,636.78786L236.18997,637.02788L231.86943,639.18811
				L228.98906,636.78786L228.509,635.3477L227.06882,631.02724L224.66851,632.70742L226.10869,636.54783L225.3886,637.50793L223.70839,637.02788
				L222.74827,637.50793L218.18769,641.58837L216.26745,641.58837L215.06729,641.82839L212.66699,642.30845L211.70687,643.02852
				L210.26668,643.50857L209.54659,645.18875L207.38632,644.7087L206.66623,638.46804L202.82574,638.70806L203.06577,644.94873L
				191.78434,646.62891L190.58419,646.38888L189.38403,645.6688L188.42391,644.94873L188.66394,635.82775L188.42391,630.54719L188.42391,626.94681
				L188.90397,623.58645L189.144,621.66625L189.38403,619.26599L188.90397,615.66561L188.90397,614.7055L188.66394,613.26535L188.42391,610.86509
				L188.18388,609.66497L187.46379,607.74476L185.06349,600.78402L186.26364,598.14374L185.78358,594.54336L185.06349,592.62315
				L183.6233,590.2229L181.70306,588.54272L180.02285,586.86254L177.62254,584.70231L175.94233,583.02213L174.02208,580.62187L172.5819,578.22162
				L171.14172,575.34131L170.1816,573.4211L164.90093,560.69975L162.26059,554.69911L167.78129,551.57878L169.46151,550.61867L167.0612,544.61804
				L164.90093,538.6174L164.18084,535.73709L164.18084,532.37673L159.86029,532.61676L156.49986,532.13671L152.65937,532.61676L
				147.85876,533.09681L146.89864,531.41663L143.77825,525.89604L140.65785,519.17532L137.29742,512.93466L134.17703,507.89412L
				131.29666,503.81369L128.4163,500.45333L125.77596,496.85295L122.41554,493.25256L119.05511,490.37225L115.69468,487.49195L111.1341,483.41151
				L107.53365,480.53121L103.93319,477.41087L102.73304,475.73069L102.25298,474.29054L102.01295,473.09041L102.49301,470.69016
				L103.93319,464.92954L105.13334,458.44885L105.85343,455.0885L107.29362,452.92826L110.17398,451.48811L114.2545,450.28798L118.57505,448.6078
				L122.41554,446.92763L126.73608,444.04732L129.13639,442.60717L131.29666,440.92699L133.69697,439.72686L136.09727,438.76676
				L137.53745,437.80665L140.41782,435.4064L144.01828,431.32596L146.17855,429.16573L147.85876,426.76548L149.53898,424.60525L
				151.21919,422.20499L151.93928,420.76484L153.6195,418.84463L155.05968,417.88453L157.45998,418.12456L168.74141,417.64451L172.34187,416.92443
				L174.98221,415.7243L176.42239,415.24425L177.62254,413.8041L178.82269,411.88389L179.30275,409.48364L179.54278,408.04348L179.54278,406.12328
				L181.94309,406.60333L186.26364,407.32341L187.94385,404.4431L187.46379,401.56279L180.98297,400.60269L179.30275,400.36266L
				179.30275,397.24233L184.10336,397.96241L193.70458,399.64259L194.42467,396.28223L184.34339,394.122L184.58342,392.92187L181.94309,392.68185
				L181.94309,389.32149L179.30275,388.84144L180.02285,385.48108L181.70306,386.20115L182.42315,384.28095L184.58342,385.48108
				L186.98373,384.52098L188.42391,383.8009L189.38403,385.7211L192.98449,384.28095L192.02437,382.36075L189.86409,378.52034L191.06425,377.56023
				L192.2644,376.36011L193.46455,374.91995L194.42467,372.75972L203.54583,377.08018L204.74598,375.15998L206.66623,369.87942L
				209.78662,365.79898L214.58723,367.71918L216.26745,368.19924L215.54735,369.87942L222.9883,372.75972L223.94842,369.15934L223.46836,363.1587
				L222.9883,361.71855L222.02818,360.99847L223.46836,357.39809L219.62787,354.7578L214.58723,352.8376L207.38632,350.67737L209.30656,344.19668
				L201.62559,341.79642L191.54431,338.91612L180.98297,336.03581L177.38251,333.1555L179.06272,322.8344L173.54202,322.35435L173.54202,313.71343
				L171.62178,313.95346L161.5405,315.39361L163.46074,306.03261L160.58038,305.07251L162.74065,293.31126L159.38023,292.59118L
				160.58038,285.63044L159.1402,284.91036L160.10032,279.38977L157.70001,278.90972L154.81965,278.6697L155.29971,276.98952L153.13943,276.02941
				L153.13943,274.82929L155.77977,271.94898L151.69925,268.82865L149.53898,270.2688L141.37794,266.66842L131.29666,262.34796L
				126.49605,260.9078L124.57581,259.46765L128.4163,252.02686L120.97535,248.42647L108.7338,244.34604L108.25374,246.50627L106.81356,247.94642
				L96.73228,245.78619L88.33121,244.34604L88.09118,241.94578L88.57124,238.10537L89.29133,233.30486L89.29133,227.0642L88.81127,226.10409
				L74.40944,222.74374L69.84886,222.02366L56.40716,220.58351L58.08737,206.18197L57.60731,206.18197L56.64719,206.66202L54.48692,194.42072
				L55.44704,184.57967L57.12725,185.53977L56.40716,172.33837L55.9271,163.45742L59.76759,163.93747L60.24765,160.57711L70.32893,163.45742
				L77.28981,153.37634L81.37033,157.6968L93.37185,169.45806L93.37185,167.77788L93.61188,166.81778L94.33197,163.45742L98.17246,163.21739
				L97.6924,162.97737L97.21234,161.29719L97.21234,160.09706L98.41249,158.89693L99.61264,159.37698L99.61264,157.21675L99.13258,156.97673
				L97.45237,155.7766L96.49225,155.05652L95.77215,153.13632L95.29209,152.65627L95.05206,152.41624L94.81203,152.41624L93.61188,146.65563
				L95.53212,145.93555L92.89179,140.65499L94.81203,139.93491L96.25222,140.41496L96.49225,140.41496L97.6924,140.89501L103.45313,156.25665
				L103.93319,156.25665L104.17322,157.21675L104.17322,157.45678L104.65328,158.89693L105.6134,158.41688L105.85343,155.05652L
				106.33349,150.01599L107.05359,147.85576L107.05359,147.61573L107.29362,147.61573L107.29362,147.3757L108.25374,145.69553L110.65404,143.5353
				L111.8542,145.21547L112.57429,146.17558L112.57429,146.4156L113.29438,147.61573L115.69468,147.13568L120.97535,147.13568L125.2959,146.4156
				L128.89636,149.05588L133.45694,147.3757L134.41706,150.49604L146.89864,148.81586L147.85876,152.89629L148.09879,155.7766L148.09879,157.45678
				L148.33883,159.13696L148.09879,160.81714L148.33883,160.81714L148.33883,160.33709L149.29895,160.09706L151.21919,160.09706
				L153.13943,160.57711L154.33959,159.85704L155.77977,162.97737L156.49986,163.69744L157.45998,164.89757L157.21995,165.85767
				L157.70001,167.0578L163.46074,163.45742L174.26211,156.01663L174.26211,155.7766L174.50215,155.7766L174.74218,155.7766L172.5819,150.73606
				L170.42163,151.93619L164.6609,143.05524L162.02056,138.49476L164.42087,135.1344L164.90093,134.41432L170.42163,135.1344L170.66166,132.97417
				L170.90169,132.73414L173.54202,130.33389L176.18236,129.61381L178.1026,129.13376L180.50291,128.17366L182.18312,128.17366L
				200.66547,129.61381L203.06577,120.01279L187.22376,115.69233L184.82346,114.97225L183.86333,114.4922L183.6233,112.81202L183.86333,110.65179
				L184.10336,108.49156L186.7437,101.05077L191.54431,102.49092L193.70458,95.77021L196.58495,95.29015L199.46531,95.29015L201.38556,95.77021
				L206.4262,98.41049L212.18693,101.53082L213.86714,102.73095L219.14781,105.61125L225.62863,108.25154L229.46912,109.45166L231.62939,109.93171
				L237.63016,111.37187L241.71067,112.33197L246.51128,113.5321L251.79195,115.4523L260.91311,118.33261L263.79348,119.53274L269.07415,121.93299
				L271.23442,122.8931L273.3947,124.57328L274.59485,125.29335L276.99515,126.97353L278.9154,128.17366L281.07567,125.53338L284.67613,121.21292
				L285.87628,120.01279L286.11631,119.53274L286.35634,119.77276L288.75664,121.93299L293.79728,116.17238L296.67765,112.572L294.99744,110.17174
				L307.95908,97.21036L303.15847,90.72967L318.04036,77.76829L332.68222,94.09003L334.60246,91.68977L336.28268,89.76957L349.72438,73.92788
				L346.60399,71.76765L357.88542,57.60614L361.7259,59.76637L364.8463,62.16663L366.52651,63.36675L368.20673,65.04693L370.12697,66.72711
				L372.04721,68.64732L373.72743,69.84744L375.64767,70.56752L379.48816,71.52762L385.00886,72.48772L390.52956,74.1679L396.05026,76.32813
				L402.05102,78.72839L406.6116,79.92852L410.45209,80.16854L415.49273,80.16854L419.09318,80.40857zM307.95908,150.25601L307.47902,151.21611
				L313.71981,153.37634L322.12088,157.93683L323.56106,159.61701L324.28115,160.57711L320.92073,163.93747L320.20063,165.61765
				L323.32103,170.17813L325.24127,175.21867L325.24127,177.3789L324.28115,186.49987L318.52042,188.90013L314.4399,188.18005L313.95984,189.38018
				L313.71981,189.38018L313.23975,189.62021L312.27963,189.86023L312.0396,189.86023L310.83945,189.86023L308.67917,189.86023L
				308.19911,192.50051L312.27963,193.70064L320.20063,198.50115L326.68146,198.9812L343.00353,203.30166L356.2052,214.82289L363.64615,212.66266
				L375.64767,205.22187L375.8877,209.3023L378.28801,209.78236L380.20825,211.94259L381.64843,211.70256L382.60855,210.26241L383.32865,208.3422
				L385.24889,208.82225L386.68907,208.10218L386.68907,207.86215L390.52956,207.14207L395.33017,209.54233L398.21053,208.58223
				L401.57096,206.90205L405.65148,204.02174L406.37157,203.30166L402.29105,198.0211L409.49197,193.22059L408.53184,189.62021L
				402.53108,190.10026L395.5702,193.70064L393.64996,194.42072L393.40993,194.66074L380.68831,196.34092L378.04798,195.86087L376.36776,197.78108
				L374.44752,199.46126L373.96746,202.10154L370.12697,202.82161L368.44676,200.90141L365.80642,202.34156L364.60627,202.82161
				L361.00581,199.22123L362.20597,197.54105L361.00581,195.86087L361.24584,194.66074L359.08557,193.22059L357.88542,192.98056
				L356.44523,191.54041L355.48511,191.78044L354.52499,191.30039L353.8049,192.02046L351.40459,194.18069L348.04417,191.78044L
				350.6845,188.6601L346.84402,185.53977L349.48435,180.97929L355.72514,173.05844L351.16456,168.49796L345.1638,175.4587L344.44371,174.4986
				L342.28344,176.65883L335.80261,171.61829L337.96289,168.25793L347.08405,156.25665L337.72286,145.93555L328.36167,156.25665
				L321.88085,144.73542L317.32027,147.13568L312.75969,138.49476L311.07948,139.45486L305.79881,148.81586L307.95908,150.25601
				z"/>
		</g>
</g></svg>