<?xml version="1.0" encoding="utf-8" standalone="no"?>
<!-- Creator: ESRI ArcMap 10.0.0.2414 -->
<!DOCTYPE svg PUBLIC "-//W3C//DTD SVG 1.1//EN"  "http://www.w3.org/Graphics/SVG/1.1/DTD/svg11.dtd">
<svg width="524.0420768pt" height="297.538603152pt" viewBox="32.15712744 272.359833424 524.0420768 297.538603152" enable-background="new 32.15712744 272.359833424 524.0420768 297.538603152"
	version="1.1" xmlns="http://www.w3.org/2000/svg" xmlns:xlink="http://www.w3.org/1999/xlink" >
	<g id="Couches">
		<g id="reservoirs">
			<clipPath id="SVG_CP_2">
				<path d="M574.39289,21.36228L21.36271,21.36228L21.36271,821.36753L574.39289,821.36753L574.39289,21.36228z"/>
			</clipPath>
			<path clip-path="url(#SVG_CP_2)" fill-opacity="0.2" fill="#2f4493" fill-rule="evenodd" stroke="#2f4493" stroke-width="1" stra="1.44018" stroke-miterlimit="10" stroke-linecap="round" stroke-linejoin="round" d="
				M257.55268,502.37353L256.1125,501.65346L255.87247,501.65346L255.15238,501.41343L254.19226,500.69335L253.23214,500.2133L251.07186,499.49323
				L252.03198,498.2931L252.99211,496.85295L249.39165,493.73261L248.43153,495.17277L245.0711,499.49323L246.51128,500.45333L247.95147,500.93338
				L249.63168,501.41343L249.39165,502.13351L251.79195,502.37353L252.03198,502.37353L252.51205,502.61356L253.23214,502.61356
				L254.43229,502.85359L255.15238,502.61356L255.87247,502.13351L257.55268,502.37353L262.11326,503.57366L262.83335,503.57366
				L261.87323,508.6142L262.83335,510.29438L262.35329,511.97456L261.39317,514.61484L260.43305,516.53504L259.2329,516.05499L258.27278,518.69527
				L255.15238,515.57494L253.95223,518.21522L253.7122,519.17532L250.83183,524.45589L252.03198,525.17596L248.91159,528.53632L
				246.75131,527.33619L239.79043,523.25576L238.35025,525.17596L236.43,527.57622L236.18997,527.33619L235.94994,527.33619L234.98982,526.85614
				L234.0297,526.37609L233.06958,525.89604L232.10946,525.41599L231.38936,524.69591L230.66927,525.41599L228.26897,527.09617L
				226.34872,528.05627L226.82879,528.77635L228.02894,531.1766L227.30885,531.41663L226.34872,531.41663L226.10869,531.41663L225.3886,531.41663
				L224.42848,531.41663L223.70839,531.1766L222.50824,530.93658L222.02818,530.93658L221.30809,531.41663L220.34796,532.13671L
				219.14781,533.33683L217.4676,531.65665L216.74751,531.65665L215.78738,532.85678L216.50748,534.05691L215.54735,534.29694L213.86714,534.29694
				L211.70687,535.97711L210.02665,537.65729L205.94614,540.77763L196.82498,544.61804L187.70382,548.45844L168.50138,545.09809
				L150.97916,541.97775L134.65709,539.33747L121.21538,537.17724L113.77444,535.73709L94.81203,532.37673L86.17094,530.93658L79.93014,529.97648
				L80.4102,526.85614L80.65024,522.29566L80.89027,520.37545L79.93014,519.8954L79.93014,517.9752L78.72999,517.9752L77.52984,517.9752
				L77.04978,517.9752L76.80975,517.49515L76.80975,517.25512L76.80975,515.57494L75.84963,515.33492L74.8895,515.33492L72.96926,515.33492
				L72.96926,517.49515L68.64871,516.29502L68.40868,515.33492L68.40868,511.25448L68.64871,508.13415L70.08889,508.13415L70.08889,507.17405
				L69.60883,502.85359L69.3688,501.65346L69.3688,500.69335L67.44856,500.69335L67.68859,502.13351L68.16865,503.09361L68.64871,506.93402
				L66.24841,507.17405L65.52832,507.41407L60.72771,508.37417L60.00762,504.77379L57.84734,505.25384L57.36728,503.81369L55.20701,504.29374
				L54.24688,502.61356L53.76682,502.85359L52.8067,503.09361L52.32664,502.37353L53.52679,502.13351L54.00685,501.89348L52.8067,500.45333
				L51.84658,500.93338L51.60655,500.45333L50.88646,498.2931L50.4064,496.61292L49.92634,494.69272L49.92634,494.21266L49.68631,490.61228
				L49.44628,488.21202L49.20624,487.0119L48.48615,485.09169L48.00609,484.13159L47.04597,481.73133L46.56591,480.53121L46.56591,479.5711
				L46.56591,478.13095L46.80594,477.17085L47.04597,476.21075L47.76606,475.49067L48.24612,474.77059L48.96621,474.05052L49.92634,473.33044
				L50.64643,472.61036L51.36652,472.13031L52.08661,471.41023L52.8067,470.93018L53.28676,470.21011L53.76682,469.49003L54.24688,468.52993
				L54.48692,467.56983L55.9271,461.56919L57.36728,455.32852L59.04749,449.32788L60.48768,444.28734L62.16789,437.3266L62.88798,433.72622
				L63.60807,430.84591L64.08813,429.88581L65.04826,428.44566L66.00838,427.48555L66.72847,426.76548L67.68859,426.0454L68.16865,425.56535
				L68.88874,425.0853L69.3688,424.60525L69.84886,423.64514L71.28905,421.00486L72.00914,417.88453L73.92938,418.36458L74.8895,417.16445
				L75.12953,415.48427L75.6096,415.48427L75.84963,418.36458L76.08966,418.84463L76.32969,419.32468L76.56972,420.04476L76.56972,420.76484
				L76.80975,421.96497L76.80975,422.44502L79.93014,421.96497L80.89027,421.72494L79.93014,420.04476L79.21005,418.12456L77.76987,414.52417
				L76.80975,411.88389L76.32969,410.44374L75.84963,410.20371L75.36957,409.72366L75.36957,409.24361L75.6096,408.76356L76.08966,408.52353
				L76.32969,407.80346L74.64947,405.88325L76.08966,404.4431L76.32969,403.72302L75.6096,401.80282L74.8895,400.12264L75.6096,399.88261
				L78.0099,399.40256L79.45008,400.12264L78.97002,397.24233L81.61036,397.96241L83.05054,394.36202L83.77063,392.92187L84.01066,391.48172
				L84.49072,389.32149L84.49072,387.88133L84.73075,386.44118L84.97078,384.761L85.21081,381.88069L90.49148,384.28095L89.0513,387.40128
				L87.37109,391.00167L86.89103,391.00167L86.651,391.96177L86.17094,392.92187L86.41097,394.84208L87.13106,397.00231L87.85115,398.44246
				L88.81127,402.28287L90.01142,402.76292L93.85191,404.68312L97.6924,406.3633L99.37261,407.08338L102.73304,408.52353L107.77368,405.88325
				L111.8542,403.24297L114.01447,401.80282L118.33502,398.44246L121.93547,398.68248L126.73608,398.20243L126.97611,400.36266L
				128.89636,403.24297L128.65633,407.80346L129.85648,411.64387L137.05739,411.88389L138.97764,412.12392L140.65785,412.12392L
				144.01828,412.36394L147.85876,409.48364L147.85876,408.76356L148.09879,406.84335L148.33883,405.64323L142.33806,400.36266L
				137.29742,393.40192L133.69697,386.92123L131.77672,383.32085L132.73685,378.04028L132.73685,377.08018L132.97688,371.31957L
				134.17703,368.19924L134.65709,366.75908L135.13715,365.55895L136.81736,361.23849L143.29819,355.95793L145.21843,355.23785L
				149.53898,355.47788L152.8994,355.71791L156.73989,356.19796L167.78129,357.63811L176.18236,358.59821L176.66242,364.59885L176.66242,365.79898
				L176.90245,370.59949L180.50291,370.59949L183.6233,370.59949L186.7437,370.11944L186.7437,369.87942L189.38403,370.35947L189.86409,369.39936
				L194.42467,369.39936L195.14476,369.39936L194.90473,366.75908L195.86486,366.51906L196.34492,366.27903L199.46531,365.79898
				L202.10565,365.55895L202.34568,366.27903L202.58571,366.99911L203.54583,366.03901L204.02589,365.79898L206.18617,364.83888
				L207.62635,364.83888L208.34644,364.35883L211.22681,363.63875L212.90702,362.43862L215.78738,361.47852L217.22757,360.99847
				L217.70763,362.91867L217.94766,363.63875L220.10793,370.35947L219.8679,373.23977L214.10717,374.19988L214.3472,375.88005L219.8679,374.67993
				L219.14781,376.60013L217.94766,377.56023L220.34796,389.80154L223.94842,386.44118L225.62863,386.20115L227.06882,388.84144
				L231.14933,385.96113L232.10946,385.24105L235.94994,385.48108L236.91007,385.48108L236.91007,386.44118L237.63016,387.40128
				L238.11022,387.16126L238.59028,386.68121L237.63016,385.24105L237.63016,384.28095L241.9507,382.60077L246.99134,380.68057L
				249.63168,379.48044L253.95223,377.80026L259.95299,375.88005L262.11326,376.12008L263.55345,372.99975L265.23366,369.39936L
				269.07415,361.47852L275.55497,367.71918L277.47521,365.55895L280.11555,362.91867L282.75588,361.95857L289.71677,363.63875L
				291.39698,363.63875L291.63701,359.07826L295.71753,360.27839L301.95832,362.67865L311.07948,367.23913L312.75969,368.91931L
				313.71981,369.87942L325.72134,362.1986L326.68146,365.0789L327.16152,366.51906L327.16152,367.23913L326.44143,370.11944L325.24127,376.12008
				L324.52118,378.52034L324.76121,382.12072L324.52118,384.04092L324.28115,386.44118L323.081,389.32149L319.24051,389.80154L320.20063,394.122
				L320.92073,394.36202L321.88085,394.60205L323.32103,394.36202L323.56106,396.0422L323.56106,396.28223L323.56106,397.72238L
				323.80109,399.64259L324.04112,399.40256L324.04112,397.48236L328.12164,397.24233L328.12164,395.80218L328.12164,395.56215L
				324.28115,395.80218L323.56106,391.72174L323.56106,391.48172L325.72134,391.00167L325.72134,389.56151L323.80109,389.80154L
				324.52118,385.96113L325.00124,383.32085L325.00124,380.44054L325.00124,378.76036L325.24127,377.08018L326.68146,371.31957L
				327.64158,368.19924L327.40155,366.27903L327.16152,365.55895L326.2014,361.71855L324.52118,355.95793L323.32103,352.11752L322.84097,350.67737
				L322.36091,349.47724L322.36091,349.23722L321.88085,347.31701L321.64082,344.91676L321.16076,342.5165L319.9606,337.23594L319.9606,336.51586
				L327.16152,335.07571L336.28268,332.91548L337.48283,333.63555L338.44295,333.39553L346.12392,333.63555L346.12392,328.59502
				L346.60399,328.11496L347.08405,322.8344L347.32408,315.39361L355.48511,316.59374L356.44523,316.59374L356.2052,315.15358L360.04569,315.39361
				L359.56563,313.23338L359.56563,312.99335L358.60551,312.99335L358.60551,312.27328L356.9253,311.79323L356.9253,310.83312L357.40536,309.39297
				L357.40536,306.27264L357.16533,302.1922L358.12545,301.95218L359.80566,302.43223L360.04569,301.47213L358.36548,301.2321L359.3256,294.99144
				L361.00581,295.47149L361.48587,296.91164L363.16609,297.87174L363.16609,303.39233L366.76654,303.63236L366.04645,307.47277
				L365.80642,310.5931L365.32636,312.99335L364.8463,315.39361L364.60627,317.31381L367.48664,318.03389L367.24661,320.43415L367.9667,320.43415
				L370.12697,321.39425L370.84706,325.95473L370.367,333.1555L372.04721,333.1555L373.72743,337.71599L373.72743,344.4367L373.72743,350.19732
				L373.00734,350.67737L363.40612,353.7977L364.36624,358.35819L365.56639,361.23849L365.80642,362.43862L366.28648,362.43862L
				374.20749,360.99847L374.44752,363.1587L389.32941,360.51842L390.76959,363.39872L391.96974,365.55895L395.33017,370.11944L386.68907,371.79962
				L387.88922,373.23977L389.08938,375.4L389.32941,375.64003L398.21053,374.19988L399.41069,375.88005L400.85087,377.80026L397.73047,378.28031
				L398.21053,381.40064L400.61084,381.16062L402.77111,380.68057L405.65148,384.52098L406.6116,385.96113L407.33169,388.12136L
				409.01191,395.56215L410.45209,401.80282L411.65224,401.32277L412.61236,401.08274L412.1323,399.64259L411.89227,399.16254L416.93291,395.80218
				L416.69288,395.0821L415.2527,394.122L413.81251,392.92187L415.73276,391.48172L418.13306,389.80154L418.13306,389.56151L422.93367,386.44118
				L427.97431,382.60077L429.17446,381.16062L432.05483,379.00039L435.89532,375.4L438.05559,372.75972L442.37614,367.47916L444.53641,364.59885
				L447.41678,360.27839L451.01724,355.71791L452.45742,353.55768L452.93748,353.31765L452.93748,353.07762L458.45818,351.39745
				L457.97812,350.19732L457.25803,346.35691L456.77797,344.91676L456.29791,341.07635L457.49806,340.83632L457.73809,336.75589
				L459.89836,331.2353L470.93976,331.95537L472.61998,331.95537L474.06016,328.59502L476.46046,330.51522L477.66062,331.47532L
				478.38071,331.95537L479.1008,332.43543L480.30095,332.67545L482.2212,332.91548L483.66138,332.91548L485.34159,333.1555L486.78177,333.39553
				L484.86153,345.15678L484.86153,345.63683L487.26184,345.87686L486.30171,354.99783L485.82165,359.07826L486.30171,366.03901
				L486.30171,367.23913L486.54174,372.27967L484.6215,376.12008L484.38147,376.12008L482.94129,378.04028L479.34083,382.60077L
				478.62074,383.56087L478.14068,383.8009L470.69973,393.40192L481.74113,418.84463L482.2212,424.1252L482.94129,424.1252L482.94129,427.48555
				L488.46199,421.96497L491.82241,419.80474L499.98345,416.92443L514.14525,415.48427L528.30704,416.20435L536.22805,415.7243L
				537.90826,415.96433L537.66823,417.64451L536.94814,420.28479L535.50796,427.48555L534.30781,433.72622L533.82774,440.44693L
				532.86762,446.92763L532.86762,451.48811L533.10765,453.64834L533.34768,454.84847L531.9075,457.0087L531.42744,457.9688L530.22729,460.60908
				L528.54707,463.72942L525.90674,467.3298L525.66671,467.3298L525.66671,467.56983L525.66671,470.93018L526.3868,473.33044L527.58695,475.49067
				L528.78711,476.21075L529.26717,476.6908L530.70735,477.17085L535.50796,477.17085L536.70811,478.13095L537.90826,479.09105L
				541.02866,480.53121L545.82927,486.29182L545.82927,488.9321L547.26945,489.17213L547.50948,490.37225L547.74951,492.77251L549.18969,493.01254
				L548.94966,497.57302L548.70963,498.77315L547.50948,505.01382L546.78939,508.6142L546.54936,509.81433L546.0693,513.41471L545.34921,517.01509
				L540.30857,517.9752L535.50796,518.45525L532.62759,518.69527L533.10765,522.53568L532.62759,522.77571L532.38756,523.01573L
				534.54784,536.21714L537.18817,538.13734L535.74799,538.6174L534.54784,538.85742L531.42744,539.81752L528.78711,540.77763L525.42668,541.73773
				L522.54631,542.93786L520.38604,543.89796L517.50567,545.09809L516.78558,545.57814L514.86534,546.77827L512.94509,548.69847
				L509.58467,551.8188L506.94433,553.01893L504.304,554.21906L502.14372,555.17916L498.7833,557.09937L495.90293,559.49962L494.22272,560.69975
				L493.74266,560.93977L492.06244,562.85998L491.58238,563.34003L491.10232,563.1L487.50187,560.2197L484.6215,558.77954L482.94129,557.33939
				L481.02104,556.13926L479.58086,555.17916L477.66062,554.21906L475.9804,553.73901L472.37995,552.29885L469.49958,551.33875L
				466.13915,550.8587L464.939,550.61867L464.21891,550.61867L464.21891,549.8986L464.21891,547.97839L463.49882,545.09809L462.5387,541.4977
				L461.09852,538.6174L460.13839,536.93722L458.93824,535.25704L458.69821,534.53696L457.97812,533.09681L457.018,531.65665L457.018,530.93658
				L455.09775,530.2165L453.41754,529.97648L451.4973,529.49642L450.05711,529.2564L448.61693,528.77635L447.17675,528.05627L445.9766,527.81625
				L444.77644,527.33619L444.05635,526.85614L444.05635,526.13607L443.81632,524.93594L444.05635,523.73581L444.53641,522.53568
				L444.77644,521.57558L444.77644,520.13543L444.77644,518.45525L444.53641,517.73517L444.05635,517.01509L443.09623,516.29502
				L441.41602,514.61484L439.7358,513.17468L438.77568,511.97456L438.05559,510.77443L437.3355,509.09425L434.9352,504.77379L433.25498,500.69335
				L432.53489,499.01318L430.85468,494.45269L430.37462,492.77251L430.13459,490.85231L429.89456,489.17213L429.89456,488.69208
				L429.65452,487.73197L429.41449,486.05179L429.41449,484.85167L427.73428,484.13159L426.53413,483.65154L425.33398,483.17149
				L424.13382,482.93146L421.49349,482.93146L418.37309,482.69144L415.73276,482.69144L413.33245,482.45141L412.1323,482.21139L
				410.45209,481.73133L408.53184,480.53121L406.85163,479.5711L405.65148,478.611L406.37157,475.97072L407.33169,473.81049L408.53184,471.41023
				L409.732,467.08977L410.45209,462.76931L410.93215,458.68888L411.41221,455.56855L411.41221,454.12839L411.17218,452.20819L410.93215,451.00806
				L410.69212,449.56791L410.45209,448.12775L410.21206,447.16765L410.45209,445.96752L410.69212,443.80729L411.65224,439.00678
				L412.1323,435.16637L413.33245,431.56599L414.05254,430.60589L414.77264,429.40576L415.73276,428.20563L416.21282,427.48555L
				416.69288,427.0055L417.653,425.32532L417.89303,424.1252L418.13306,422.68504L418.13306,421.96497L418.13306,421.48491L418.37309,419.80474
				L418.61312,418.12456L418.37309,416.44438L417.41297,415.96433L415.49273,415.7243L404.2113,414.52417L399.89075,414.52417L398.21053,415.24425
				L397.73047,415.48427L396.29029,415.7243L394.85011,415.96433L394.61008,415.48427L393.88999,414.7642L391.96974,414.7642L387.16913,415.7243
				L385.48892,417.16445L385.48892,418.84463L382.12849,419.80474L381.16837,419.80474L379.0081,419.80474L378.28801,419.80474L
				376.12773,420.28479L375.8877,418.84463L375.40764,418.84463L374.92758,419.08466L371.80718,418.84463L368.20673,418.60461L367.00657,418.84463
				L364.8463,419.08466L362.68603,419.08466L360.52575,418.60461L359.08557,419.32468L357.88542,420.04476L357.64539,420.04476L
				357.40536,420.28479L355.72514,420.52481L353.56487,420.28479L350.44447,419.56471L346.84402,418.60461L343.96365,418.36458L
				338.68298,417.64451L336.52271,417.16445L336.04265,417.40448L335.32255,417.64451L335.56258,418.84463L335.80261,420.76484L
				336.04265,421.96497L336.52271,423.88517L337.00277,427.48555L337.2428,431.08594L337.00277,436.12647L336.52271,440.20691L335.56258,442.60717
				L334.36243,443.80729L332.20216,445.24745L330.76198,447.16765L329.32179,448.84783L327.64158,451.48811L325.48131,454.36842
				L323.56106,457.24873L321.16076,459.88901L319.24051,462.52929L318.04036,464.68952L315.64006,471.89029L313.71981,473.09041
				L310.11936,474.77059L305.55878,476.45077L304.35862,474.53057L303.3985,474.77059L301.47826,470.93018L299.07795,471.89029L
				301.95832,477.6509L299.79805,478.85103L296.43762,479.81113L292.3571,480.05116L291.15695,480.29118L289.23671,479.81113L288.75664,480.05116
				L279.39546,483.41151L273.3947,486.53185L270.51433,488.45205L268.11402,490.37225L264.51357,493.73261L263.79348,493.73261L
				263.07339,494.21266L262.59332,494.69272L262.11326,495.65282L261.87323,496.37289L261.87323,497.81305L262.11326,498.77315L
				263.07339,499.97328L263.55345,500.2133L264.27354,500.45333L263.55345,503.09361L261.6332,503.09361L260.67308,502.85359L259.2329,502.61356
				L257.55268,502.37353z"/>
			<path clip-path="url(#SVG_CP_2)" fill-opacity="0.2" fill="#2f4493" fill-rule="evenodd" stroke="#2f4493" stroke-width="1" stra="1.44018" stroke-miterlimit="10" stroke-linecap="round" stroke-linejoin="round" d="
				M248.67156,301.95218L254.19226,308.43287L250.5918,311.79323L244.35101,317.55384L240.99058,320.9142L237.1501,324.51458L231.62939,329.55512
				L229.46912,331.95537L226.34872,334.83568L222.74827,337.95601L216.74751,342.75652L210.74674,346.11688L205.46607,348.51714
				L199.70534,350.91739L193.70458,352.59757L188.66394,353.31765L184.58342,353.55768L179.30275,353.55768L169.22148,353.31765
				L165.14096,353.31765L159.62026,352.8376L158.4201,352.8376L157.45998,352.8376L150.25907,352.59757L142.57809,352.59757L142.57809,350.91739
				L134.65709,346.35691L136.3373,345.39681L132.25678,344.4367L128.89636,343.4766L129.37642,342.27647L123.13563,338.43606L126.25602,329.79514
				L131.77672,333.1555L138.49758,337.71599L144.9784,339.87622L148.33883,341.07635L151.93928,342.03645L157.94004,343.4766L159.86029,344.91676
				L160.10032,342.75652L160.82041,338.43606L160.82041,337.47596L161.5405,333.63555L161.78053,331.2353L162.02056,329.55512L162.50062,326.67481
				L163.22071,323.07443L165.86105,323.55448L165.62102,326.67481L167.54126,327.15486L168.02132,327.15486L168.74141,323.55448
				L174.98221,324.27456L174.98221,322.59438L174.98221,321.63427L183.6233,321.63427L188.66394,321.63427L192.2644,321.63427L196.82498,321.8743
				L201.38556,322.11433L208.34644,322.11433L207.86638,320.67417L205.70611,311.79323L205.22604,309.633L210.26668,308.19284L221.30809,301.95218
				L223.94842,306.03261L234.50976,302.91228L235.22985,301.95218L239.31037,298.11177L244.59104,292.59118L250.83183,286.83057
				L253.23214,284.91036L263.07339,279.14975L263.55345,279.86982L261.6332,282.75013L257.07262,288.27072L251.31189,294.27136L
				248.43153,297.63172L245.79119,299.79195L246.99134,300.75205L248.67156,301.95218z"/>
		</g>
</g></svg>