<?xml version="1.0" encoding="utf-8" standalone="no"?>
<!-- Creator: ESRI ArcMap 10.0.0.2414 -->
<!DOCTYPE svg PUBLIC "-//W3C//DTD SVG 1.1//EN"  "http://www.w3.org/Graphics/SVG/1.1/DTD/svg11.dtd">
<svg width="524.0420768pt" height="436.527518632pt" viewBox="32.15712744 202.865375684 524.0420768 436.527518632" enable-background="new 32.15712744 202.865375684 524.0420768 436.527518632"
	version="1.1" xmlns="http://www.w3.org/2000/svg" xmlns:xlink="http://www.w3.org/1999/xlink" >
	<g id="Couches">
		<g id="cont_2">
			<path clip-path="url(#SVG_CP_2)" fill="none" stroke="#999999" stroke-width="0.96012" stroke-miterlimit="10" stroke-linecap="round" stroke-linejoin="round" d="
				M408.05178,305.07251L407.81175,305.07251L407.81175,304.59246L408.05178,304.59246L408.05178,305.07251"/>
			<path clip-path="url(#SVG_CP_2)" fill="none" stroke="#999999" stroke-width="0.96012" stroke-miterlimit="10" stroke-linecap="round" stroke-linejoin="round" d="
				M458.21815,370.35947L458.21815,369.87942L458.45818,369.87942L458.45818,370.35947L458.21815,370.35947"/>
			<path clip-path="url(#SVG_CP_2)" fill="none" stroke="#999999" stroke-width="0.96012" stroke-miterlimit="10" stroke-linecap="round" stroke-linejoin="round" d="
				M457.49806,370.59949L457.49806,370.35947L458.21815,370.35947L458.21815,370.59949L457.49806,370.59949"/>
			<path clip-path="url(#SVG_CP_2)" fill="none" stroke="#999999" stroke-width="0.96012" stroke-miterlimit="10" stroke-linecap="round" stroke-linejoin="round" d="
				M371.80718,389.56151L371.32712,389.56151L371.32712,389.32149L371.56715,389.32149L371.56715,388.84144L372.28724,388.84144
				L372.28724,389.32149L371.80718,389.32149L371.80718,389.56151"/>
			<path clip-path="url(#SVG_CP_2)" fill="none" stroke="#999999" stroke-width="0.96012" stroke-miterlimit="10" stroke-linecap="round" stroke-linejoin="round" d="
				M368.68679,392.44182L366.76654,392.44182L366.76654,392.20179L367.00657,392.20179L367.00657,391.96177L367.24661,391.96177
				L367.24661,391.48172L367.72667,391.48172L367.72667,391.24169L367.9667,391.24169L367.9667,390.76164L369.88694,390.76164L369.88694,391.24169
				L369.64691,391.24169L369.64691,391.48172L369.40688,391.48172L369.40688,391.96177L368.92682,391.96177L368.92682,392.20179
				L368.68679,392.20179L368.68679,392.44182"/>
			<path clip-path="url(#SVG_CP_2)" fill="none" stroke="#999999" stroke-width="0.96012" stroke-miterlimit="10" stroke-linecap="round" stroke-linejoin="round" d="
				M380.68831,291.63108L380.68831,291.15103L380.44828,291.15103L380.44828,291.63108L380.68831,291.63108L380.68831,292.8312L
				381.16837,292.8312L381.16837,294.27136L381.4084,294.27136L381.4084,295.47149L381.64843,295.47149L381.64843,297.15167L382.12849,297.15167
				L382.12849,298.35179L382.36852,298.35179L382.36852,299.79195L382.60855,299.79195L382.60855,300.99207L383.08862,300.99207
				L383.08862,302.67225L383.32865,302.67225L383.32865,303.87238L383.56868,303.87238L383.56868,305.31253L384.04874,305.31253
				L384.04874,306.51266L384.28877,306.51266L384.28877,308.19284L384.5288,308.19284L384.5288,309.633L385.00886,309.633L385.00886,310.83312
				L385.24889,310.83312L385.24889,312.5133L385.72895,312.5133L385.72895,313.71343L385.96898,313.71343L385.96898,315.15358L386.20901,315.15358
				L386.20901,316.35371L386.68907,316.35371L386.68907,316.83376L389.32941,316.83376L389.32941,318.03389L389.56944,318.03389
				L389.56944,317.79386L391.24965,317.79386L391.24965,317.31381L392.4498,317.31381L392.4498,317.07379L393.88999,317.07379L393.88999,316.83376
				L395.09014,316.83376L395.09014,316.35371L396.77035,316.35371L396.77035,316.11369L397.49044,316.11369L397.49044,317.79386
				L395.81023,317.79386L395.81023,318.75397L396.05026,318.75397L396.05026,319.9541L396.29029,319.9541L396.29029,321.39425L396.77035,321.39425
				L396.77035,321.63427L396.29029,321.63427L396.29029,321.8743L393.88999,321.8743L393.88999,322.35435L391.72971,322.35435L391.72971,325.95473
				L390.76959,325.95473L390.76959,326.19476L389.80947,326.19476L389.80947,326.43479L388.60932,326.43479L388.60932,327.39489
				L388.84935,327.39489L388.84935,329.55512L389.32941,329.55512L389.32941,330.99527L389.56944,330.99527L389.56944,333.1555L
				389.80947,333.1555L389.80947,334.59566L390.28953,334.59566L390.28953,336.27583L390.52956,336.27583L390.52956,338.19604L390.76959,338.19604
				L390.76959,339.87622L391.24965,339.87622L391.24965,341.79642L391.48968,341.79642L391.48968,343.4766L391.72971,343.4766L391.72971,345.39681
				L392.20977,345.39681L392.20977,347.07699L392.4498,347.07699L392.4498,348.99719L392.92986,348.99719L392.92986,350.67737L393.16989,350.67737
				L393.16989,352.59757L393.40993,352.59757L393.40993,354.27775L393.88999,354.27775L393.88999,355.95793L394.13002,355.95793
				L394.13002,357.87814L394.37005,357.87814L394.37005,359.55832L394.85011,359.55832L394.85011,361.47852L395.09014,361.47852
				L395.09014,363.1587L395.33017,363.1587L395.33017,365.0789L395.81023,365.0789L395.81023,366.75908L396.05026,366.75908L396.05026,367.23913
				L395.81023,367.23913L395.81023,367.71918L395.33017,367.71918L395.33017,367.95921L395.09014,367.95921L395.09014,368.43926
				L394.85011,368.43926L394.85011,368.67929L394.37005,368.67929L394.37005,368.91931L394.13002,368.91931L394.13002,369.39936
				L393.88999,369.39936L393.88999,369.63939L393.40993,369.63939L393.40993,369.87942L393.16989,369.87942L393.16989,370.35947
				L392.92986,370.35947L392.92986,370.59949L392.4498,370.59949L392.4498,370.83952L392.20977,370.83952L392.20977,371.31957L391.72971,371.31957
				L391.72971,371.55959L391.48968,371.55959L391.48968,372.03965L390.52956,372.03965L390.52956,372.27967L390.28953,372.27967
				L390.28953,372.5197L389.80947,372.5197L389.80947,372.99975L389.56944,372.99975L389.56944,373.23977L389.32941,373.23977L389.32941,373.4798
				L388.84935,373.4798L388.84935,373.95985L388.60932,373.95985L388.60932,374.19988L388.12926,374.19988L388.12926,374.4399L387.88922,374.4399
				L387.88922,374.91995L387.64919,374.91995L387.64919,375.15998L387.16913,375.15998L387.16913,375.64003L386.9291,375.64003L
				386.9291,375.88005L386.68907,375.88005L386.68907,376.12008L386.20901,376.12008L386.20901,376.60013L385.96898,376.60013L385.96898,376.84016
				L385.72895,376.84016L385.72895,377.08018L385.24889,377.08018L385.24889,377.56023L385.00886,377.56023L385.00886,377.80026
				L384.5288,377.80026L384.5288,378.04028L384.28877,378.04028L384.28877,378.52034L384.04874,378.52034L384.04874,378.76036L383.56868,378.76036
				L383.56868,379.00039L383.32865,379.00039L383.32865,379.48044L383.08862,379.48044L383.08862,379.72046L382.60855,379.72046
				L382.60855,380.20051L382.36852,380.20051L382.36852,380.44054L382.12849,380.44054L382.12849,380.68057L381.64843,380.68057
				L381.64843,381.16062L381.4084,381.16062L381.4084,381.40064L381.16837,381.40064L381.16837,381.64067L380.68831,381.64067L380.68831,382.12072
				L380.44828,382.12072L380.44828,382.36075L379.96822,382.36075L379.96822,382.60077L379.72819,382.60077L379.72819,383.08082
				L379.48816,383.08082L379.48816,383.32085L379.0081,383.32085L379.0081,383.8009L378.76807,383.8009L378.76807,384.04092L378.52804,384.04092
				L378.52804,384.28095L377.56791,384.28095L377.56791,384.761L377.08785,384.761L377.08785,385.00103L376.84782,385.00103L376.84782,385.24105
				L376.36776,385.24105L376.36776,385.7211L376.12773,385.7211L376.12773,385.96113L375.8877,385.96113L375.8877,386.20115L375.40764,386.20115
				L375.40764,386.68121L375.16761,386.68121L375.16761,386.92123L373.24737,386.92123L373.24737,387.40128L372.76731,387.40128
				L372.76731,387.64131L372.52728,387.64131L372.52728,387.88133L372.28724,387.88133L372.28724,388.36138L371.80718,388.36138
				L371.80718,388.60141L371.56715,388.60141L371.56715,388.84144L369.64691,388.84144L369.64691,389.32149L369.40688,389.32149
				L369.40688,389.56151L368.92682,389.56151L368.92682,389.80154L368.68679,389.80154L368.68679,390.28159L368.20673,390.28159
				L368.20673,390.52161L367.9667,390.52161L367.9667,390.76164L367.00657,390.76164L367.00657,391.24169L366.76654,391.24169L366.76654,391.48172
				L366.28648,391.48172L366.28648,391.96177L366.04645,391.96177L366.04645,392.20179L365.80642,392.20179L365.80642,392.44182
				L365.32636,392.44182L365.32636,392.92187L365.08633,392.92187L365.08633,393.1619L364.60627,393.1619L364.60627,393.40192L364.36624,393.40192
				L364.36624,393.88197L364.12621,393.88197L364.12621,394.122L363.64615,394.122L363.64615,394.36202L363.40612,394.36202L363.40612,394.84208
				L363.16609,394.84208L363.16609,395.0821L362.68603,395.0821L362.68603,395.56215L362.446,395.56215L362.446,395.80218L362.20597,395.80218
				L362.20597,396.0422L361.7259,396.0422L361.7259,396.52225L361.48587,396.52225L361.48587,396.76228L361.00581,396.76228L361.00581,397.00231
				L360.76578,397.00231L360.76578,397.48236L360.52575,397.48236L360.52575,397.72238L360.04569,397.72238L360.04569,397.96241
				L359.80566,397.96241L359.80566,398.44246L359.08557,398.44246L359.08557,398.68248L358.84554,398.68248L358.84554,399.16254
				L358.60551,399.16254L358.60551,399.40256L358.12545,399.40256L358.12545,399.64259L357.88542,399.64259L357.88542,400.12264
				L357.64539,400.12264L357.64539,400.36266L357.16533,400.36266L357.16533,400.60269L356.9253,400.60269L356.9253,401.08274L356.44523,401.08274
				L356.44523,401.32277L356.2052,401.32277L356.2052,401.56279L355.96517,401.56279L355.96517,402.04284L355.48511,402.04284L355.48511,402.28287
				L355.24508,402.28287L355.24508,402.52289L355.00505,402.52289L355.00505,403.00294L354.52499,403.00294L354.52499,403.24297
				L354.28496,403.24297L354.28496,403.72302L354.04493,403.72302L354.04493,403.96305L353.56487,403.96305L353.56487,404.20307
				L353.32484,404.20307L353.32484,404.68312L352.84478,404.68312L352.84478,404.92315L352.60475,404.92315L352.60475,405.16318
				L352.36472,405.16318L352.36472,405.64323L351.88466,405.64323L351.88466,405.88325L351.64463,405.88325L351.64463,406.12328
				L351.40459,406.12328L351.40459,406.60333L350.92453,406.60333L350.92453,406.84335L350.6845,406.84335L350.6845,407.32341L350.44447,407.32341
				L350.44447,407.56343L349.96441,407.56343L349.96441,407.80346L349.72438,407.80346L349.72438,408.28351L349.24432,408.28351
				L349.24432,408.52353L349.00429,408.52353L349.00429,408.76356L348.76426,408.76356L348.76426,409.24361L348.2842,409.24361L
				348.2842,409.48364L348.04417,409.48364L348.04417,409.72366L347.80414,409.72366L347.80414,410.20371L347.32408,410.20371L347.32408,410.44374
				L347.08405,410.44374L347.08405,410.92379L346.84402,410.92379L346.84402,411.16381L346.36396,411.16381L346.36396,411.40384
				L346.12392,411.40384L346.12392,411.88389L345.88389,411.88389L345.88389,412.12392L345.40383,412.12392L345.40383,412.36394
				L345.1638,412.36394L345.1638,412.84399L344.68374,412.84399L344.68374,413.08402L344.44371,413.08402L344.44371,413.32404L344.20368,413.32404
				L344.20368,413.8041L343.72362,413.8041L343.72362,414.04412L343.48359,414.04412L343.48359,414.28415L343.24356,414.28415L343.24356,414.7642
				L342.7635,414.7642L342.7635,415.00422L342.52347,415.00422L342.52347,415.48427L342.28344,415.48427L342.28344,415.7243L341.80338,415.7243
				L341.80338,415.96433L341.56335,415.96433L341.56335,416.44438L341.08328,416.44438L341.08328,416.6844L340.84325,416.6844L340.84325,416.92443
				L340.60322,416.92443L340.60322,417.40448L340.12316,417.40448L340.12316,417.64451L339.88313,417.64451L339.88313,417.88453
				L339.6431,417.88453L339.6431,418.36458L339.16304,418.36458L339.16304,419.08466L338.92301,419.08466L338.92301,437.80665L338.68298,437.80665
				L338.68298,438.52673L338.20292,438.52673L338.20292,439.00678L337.96289,439.00678L337.96289,439.24681L337.48283,439.24681
				L337.48283,439.48683L337.2428,439.48683L337.2428,451.96816L337.00277,451.96816L337.00277,452.20819L336.52271,452.20819L336.52271,452.68824
				L336.28268,452.68824L336.28268,452.92826L336.04265,452.92826L336.04265,453.16829L335.56258,453.16829L335.56258,453.64834
				L335.32255,453.64834L335.32255,453.88837L335.08252,453.88837L335.08252,454.36842L334.60246,454.36842L334.60246,454.60844
				L334.36243,454.60844L334.36243,454.84847L334.1224,454.84847L334.1224,455.32852L333.64234,455.32852L333.64234,455.56855L333.40231,455.56855
				L333.40231,455.80857L332.92225,455.80857L332.92225,456.28862L332.68222,456.28862L332.68222,456.52865L322.84097,456.52865
				L322.84097,456.76867L307.23899,456.76867L307.23899,457.24873L306.5189,457.24873L306.5189,457.48875L306.27887,457.48875L306.27887,457.9688
				L305.79881,457.9688L305.79881,458.20883L305.31875,458.20883L305.31875,458.44885L304.83869,458.44885L304.83869,458.9289L304.35862,458.9289
				L304.35862,459.16893L303.87856,459.16893L303.87856,459.40896L303.3985,459.40896L303.3985,459.88901L302.91844,459.88901L302.91844,460.12903
				L298.11783,460.12903L298.11783,460.36906L295.4775,460.36906L295.4775,459.40896L295.71753,459.40896L295.71753,457.9688L295.4775,457.9688
				L295.4775,457.48875L295.23747,457.48875L295.23747,457.24873L294.75741,457.24873L294.75741,456.52865L294.51738,456.52865L
				294.51738,456.28862L293.79728,456.28862L293.79728,455.80857L285.63625,455.80857L285.63625,455.56855L282.27582,455.56855L
				282.27582,455.80857L281.3157,455.80857L281.3157,456.28862L280.11555,456.28862L280.11555,456.52865L278.67537,456.52865L278.67537,456.76867
				L277.23518,456.76867L277.23518,457.24873L275.31494,457.24873L275.31494,457.48875L273.63473,457.48875L273.63473,457.9688L
				271.95451,457.9688L271.95451,458.20883L270.03427,458.20883L270.03427,458.44885L268.35406,458.44885L268.35406,458.9289L266.67384,458.9289
				L266.67384,459.16893L264.51357,459.16893L264.51357,459.40896L262.11326,459.40896L262.11326,459.88901L259.95299,459.88901
				L259.95299,460.12903L258.51281,460.12903L258.51281,460.36906L257.31265,460.36906L257.31265,460.84911L255.87247,460.84911
				L255.87247,461.08913L254.67232,461.08913L254.67232,461.32916L253.23214,461.32916L253.23214,461.80921L252.03198,461.80921
				L252.03198,462.04924L250.5918,462.04924L250.5918,462.52929L249.63168,462.52929L249.63168,462.76931L249.15162,462.76931L249.15162,463.00934
				L248.43153,463.00934L248.43153,463.48939L248.1915,463.48939L248.1915,463.72942L248.43153,463.72942L248.43153,463.96944L248.67156,463.96944
				L248.67156,465.40959L248.43153,465.40959L248.43153,468.52993L248.1915,468.52993L248.1915,469.00998L247.71144,469.00998L247.71144,469.25
				L247.47141,469.25L247.47141,469.73006L246.99134,469.73006L246.99134,469.97008L246.75131,469.97008L246.75131,470.21011L246.51128,470.21011
				L246.51128,470.69016L244.83107,470.69016L244.83107,470.21011L243.15086,470.21011L243.15086,469.97008L242.91083,469.97008
				L242.91083,469.73006L242.43077,469.73006L242.43077,469.25L242.19074,469.25L242.19074,467.3298L240.03046,467.3298L240.03046,467.08977
				L236.43,467.08977L236.43,467.3298L234.98982,467.3298L234.98982,467.56983L234.0297,467.56983L234.0297,468.04988L232.82955,468.04988
				L232.82955,468.2899L231.38936,468.2899L231.38936,468.52993L230.42924,468.52993L230.42924,469.00998L229.22909,469.00998L229.22909,469.25
				L227.78891,469.25L227.78891,469.73006L226.58876,469.73006L226.58876,469.97008L225.62863,469.97008L225.62863,470.21011L224.66851,470.21011
				L224.66851,470.69016L223.22833,470.69016L223.22833,470.93018L222.26821,470.93018L222.26821,471.17021L221.30809,471.17021
				L221.30809,471.65026L220.34796,471.65026L220.34796,471.89029L219.38784,471.89029L219.38784,472.13031L218.66775,472.13031
				L218.66775,472.61036L218.90778,472.61036L218.90778,472.85039L219.38784,472.85039L219.38784,473.09041L219.62787,473.09041
				L219.62787,473.81049L219.8679,473.81049L219.8679,474.29054L220.34796,474.29054L220.34796,474.53057L220.58799,474.53057L220.58799,474.77059
				L221.06805,474.77059L221.06805,475.25064L221.30809,475.25064L221.30809,475.49067L221.54812,475.49067L221.54812,475.73069
				L222.02818,475.73069L222.02818,476.45077L222.26821,476.45077L222.26821,476.6908L222.50824,476.6908L222.50824,477.17085L222.9883,477.17085
				L222.9883,477.41087L223.22833,477.41087L223.22833,477.89092L223.46836,477.89092L223.46836,478.13095L223.94842,478.13095L
				223.94842,479.09105L224.18845,479.09105L224.18845,480.29118L224.66851,480.29118L224.66851,481.97136L224.90854,481.97136L
				224.90854,483.89156L224.66851,483.89156L224.66851,484.37162L224.18845,484.37162L224.18845,484.85167L223.94842,484.85167L
				223.94842,485.33172L223.46836,485.33172L223.46836,486.05179L223.22833,486.05179L223.22833,486.29182L222.9883,486.29182L222.9883,487.0119
				L222.26821,487.0119L222.26821,487.25192L222.02818,487.25192L222.02818,487.49195L221.30809,487.49195L221.30809,487.972L221.06805,487.972
				L221.06805,488.21202L220.34796,488.21202L220.34796,488.45205L219.8679,488.45205L219.8679,488.9321L219.38784,488.9321L219.38784,489.17213
				L218.90778,489.17213L218.90778,489.65218L218.42772,489.65218L218.42772,489.8922L217.70763,489.8922L217.70763,490.13223L217.4676,490.13223
				L217.4676,490.61228L216.74751,490.61228L216.74751,490.85231L216.50748,490.85231L216.50748,491.09233L215.78738,491.09233L
				215.78738,491.57238L215.30732,491.57238L215.30732,491.81241L214.82726,491.81241L214.82726,492.05243L214.3472,492.05243L214.3472,492.53249
				L213.86714,492.53249L213.86714,492.77251L213.38708,492.77251L213.38708,493.25256L212.90702,493.25256L212.90702,493.49259
				L212.42696,493.49259L212.42696,493.73261L211.70687,493.73261L211.70687,494.21266L211.46684,494.21266L211.46684,494.45269
				L210.74674,494.45269L210.74674,494.69272L210.26668,494.69272L210.26668,495.17277L209.54659,495.17277L209.54659,495.41279
				L209.30656,495.41279L209.30656,495.65282L208.58647,495.65282L208.58647,496.13287L207.86638,496.13287L207.86638,496.37289
				L207.14629,496.37289L207.14629,496.61292L206.90626,496.61292L206.90626,497.09297L206.18617,497.09297L206.18617,497.333L205.70611,497.333
				L205.70611,497.81305L204.98601,497.81305L204.98601,498.05307L204.26592,498.05307L204.26592,498.2931L204.02589,498.2931L204.02589,498.77315
				L203.3058,498.77315L203.3058,499.01318L202.58571,499.01318L202.58571,499.2532L202.10565,499.2532L202.10565,499.73325L201.62559,499.73325
				L201.62559,499.97328L199.46531,499.97328L199.46531,500.2133L197.06501,500.2133L197.06501,500.69335L195.86486,500.69335L195.86486,500.2133
				L196.34492,500.2133L196.34492,499.97328L196.82498,499.97328L196.82498,499.73325L197.54507,499.73325L197.54507,499.01318L
				197.7851,499.01318L197.7851,498.77315L198.02513,498.77315L198.02513,498.2931L198.50519,498.2931L198.50519,498.05307L198.74522,498.05307
				L198.74522,497.81305L198.98525,497.81305L198.98525,497.333L199.46531,497.333L199.46531,496.61292L199.70534,496.61292L199.70534,496.37289
				L199.94537,496.37289L199.94537,496.13287L200.42544,496.13287L200.42544,495.65282L200.66547,495.65282L200.66547,495.41279
				L201.14553,495.41279L201.14553,494.69272L201.38556,494.69272L201.38556,493.49259L201.62559,493.49259L201.62559,492.05243
				L202.10565,492.05243L202.10565,491.57238L202.34568,491.57238L202.34568,490.85231L202.58571,490.85231L202.58571,490.61228
				L203.3058,490.61228L203.3058,490.13223L204.26592,490.13223L204.26592,489.8922L204.98601,489.8922L204.98601,489.65218L205.70611,489.65218
				L205.70611,489.17213L206.18617,489.17213L206.18617,488.9321L206.90626,488.9321L206.90626,488.45205L207.62635,488.45205L207.62635,488.21202
				L208.10641,488.21202L208.10641,487.972L208.8265,487.972L208.8265,487.49195L209.54659,487.49195L209.54659,487.25192L210.26668,487.25192
				L210.26668,487.0119L210.74674,487.0119L210.74674,486.53185L211.22681,486.53185L211.22681,486.29182L211.70687,486.29182L211.70687,486.05179
				L212.18693,486.05179L212.18693,485.57174L212.42696,485.57174L212.42696,485.33172L212.90702,485.33172L212.90702,484.85167
				L213.14705,484.85167L213.14705,484.61164L213.38708,484.61164L213.38708,483.89156L213.86714,483.89156L213.86714,483.41151
				L214.10717,483.41151L214.10717,482.45141L214.3472,482.45141L214.3472,481.73133L214.82726,481.73133L214.82726,481.49131L215.06729,481.49131
				L215.06729,480.29118L214.82726,480.29118L214.82726,479.33108L214.3472,479.33108L214.3472,478.85103L214.10717,478.85103L214.10717,478.37098
				L213.86714,478.37098L213.86714,477.89092L213.38708,477.89092L213.38708,476.6908L213.14705,476.6908L213.14705,476.21075L212.90702,476.21075
				L212.90702,475.49067L212.42696,475.49067L212.42696,475.25064L212.18693,475.25064L212.18693,474.53057L211.70687,474.53057
				L211.70687,473.57046L211.46684,473.57046L211.46684,472.85039L211.22681,472.85039L211.22681,470.93018L211.46684,470.93018
				L211.46684,469.97008L211.70687,469.97008L211.70687,469.25L212.18693,469.25L212.18693,468.2899L212.42696,468.2899L212.42696,468.04988
				L212.90702,468.04988L212.90702,467.56983L213.14705,467.56983L213.14705,467.3298L213.38708,467.3298L213.38708,467.08977L214.10717,467.08977
				L214.10717,466.60972L214.3472,466.60972L214.3472,466.3697L214.82726,466.3697L214.82726,466.12967L215.30732,466.12967L215.30732,465.64962
				L215.78738,465.64962L215.78738,465.40959L216.50748,465.40959L216.50748,464.92954L216.98754,464.92954L216.98754,464.68952
				L217.4676,464.68952L217.4676,464.44949L217.94766,464.44949L217.94766,463.96944L218.66775,463.96944L218.66775,463.72942L219.38784,463.72942
				L219.38784,463.48939L219.8679,463.48939L219.8679,463.00934L220.34796,463.00934L220.34796,462.76931L221.06805,462.76931L221.06805,462.52929
				L221.54812,462.52929L221.54812,462.04924L222.26821,462.04924L222.26821,461.80921L222.50824,461.80921L222.50824,461.32916
				L223.46836,461.32916L223.46836,461.08913L224.18845,461.08913L224.18845,460.84911L224.66851,460.84911L224.66851,460.36906
				L225.14857,460.36906L225.14857,460.12903L225.86866,460.12903L225.86866,459.88901L226.58876,459.88901L226.58876,459.40896
				L226.82879,459.40896L226.82879,459.16893L227.54888,459.16893L227.54888,458.9289L228.26897,458.9289L228.26897,458.44885L228.509,458.44885
				L228.509,458.20883L229.22909,458.20883L229.22909,457.9688L229.46912,457.9688L229.46912,457.48875L230.18921,457.48875L230.18921,457.24873
				L230.66927,457.24873L230.66927,456.76867L231.14933,456.76867L231.14933,456.52865L231.38936,456.52865L231.38936,455.80857
				L231.62939,455.80857L231.62939,455.56855L232.10946,455.56855L232.10946,455.32852L232.34949,455.32852L232.34949,454.84847
				L232.82955,454.84847L232.82955,454.36842L233.06958,454.36842L233.06958,453.88837L233.30961,453.88837L233.30961,451.96816
				L233.78967,451.96816L233.78967,451.72814L233.30961,451.72814L233.30961,451.24809L233.78967,451.24809L233.78967,451.00806
				L233.30961,451.00806L233.30961,450.76803L233.78967,450.76803L233.78967,446.44757L234.0297,446.44757L234.0297,445.7275L234.26973,445.7275
				L234.26973,445.00742L234.74979,445.00742L234.74979,444.7674L234.98982,444.7674L234.98982,444.52737L235.22985,444.52737L235.22985,444.04732
				L235.94994,444.04732L235.94994,443.80729L236.43,443.80729L236.43,443.56727L236.91007,443.56727L236.91007,443.08722L237.63016,443.08722
				L237.63016,442.84719L237.87019,442.84719L237.87019,442.60717L238.59028,442.60717L238.59028,442.12711L239.31037,442.12711
				L239.31037,441.88709L240.03046,441.88709L240.03046,441.40704L240.51052,441.40704L240.51052,441.16701L241.23061,441.16701
				L241.23061,440.92699L241.9507,440.92699L241.9507,431.32596L242.19074,431.32596L242.19074,428.44566L242.43077,428.44566L242.43077,427.72558
				L242.91083,427.72558L242.91083,426.52545L243.15086,426.52545L243.15086,425.0853L243.39089,425.0853L243.39089,424.1252L243.87095,424.1252
				L243.87095,422.68504"/>
			<path clip-path="url(#SVG_CP_2)" fill="none" stroke="#999999" stroke-width="0.96012" stroke-miterlimit="10" stroke-linecap="round" stroke-linejoin="round" d="
				M243.87095,422.68504L244.11098,422.68504L244.11098,421.48491L244.59104,421.48491L244.59104,420.52481L244.83107,420.52481
				L244.83107,419.32468L245.0711,419.32468L245.0711,418.60461L245.55116,418.60461L245.55116,417.40448L245.79119,417.40448L245.79119,416.44438
				L246.03122,416.44438L246.03122,415.7243L246.51128,415.7243L246.51128,414.7642L246.75131,414.7642L246.75131,413.32404L246.99134,413.32404
				L246.99134,412.36394L247.47141,412.36394L247.47141,411.88389L246.99134,411.88389L246.99134,409.48364L246.75131,409.48364
				L246.75131,409.24361L246.99134,409.24361L246.99134,408.28351L247.47141,408.28351L247.47141,407.32341L247.71144,407.32341
				L247.71144,406.60333L248.1915,406.60333L248.1915,405.64323L248.43153,405.64323L248.43153,404.68312L248.67156,404.68312L248.67156,402.28287
				L249.15162,402.28287L249.15162,401.56279L249.39165,401.56279L249.39165,401.08274L249.63168,401.08274L249.63168,400.60269
				L250.11174,400.60269L250.11174,399.64259L250.35177,399.64259L250.35177,399.40256L250.5918,399.40256L250.5918,398.44246L251.07186,398.44246
				L251.07186,397.72238L251.31189,397.72238L251.31189,397.00231L251.79195,397.00231L251.79195,396.52225L252.03198,396.52225
				L252.03198,396.0422L252.27201,396.0422L252.27201,395.56215L252.75208,395.56215L252.75208,385.7211L252.99211,385.7211L252.99211,383.8009
				L253.23214,383.8009L253.23214,382.12072L252.99211,382.12072L252.99211,381.40064L253.23214,381.40064L253.23214,380.44054L
				253.7122,380.44054L253.7122,379.72046L253.95223,379.72046L253.95223,378.76036L254.19226,378.76036L254.19226,378.04028L254.67232,378.04028
				L254.67232,377.08018L254.91235,377.08018L254.91235,376.60013L255.15238,376.60013L255.15238,375.88005L255.63244,375.88005
				L255.63244,375.64003L255.87247,375.64003L255.87247,375.15998L256.35253,375.15998L256.35253,374.91995L256.59256,374.91995
				L256.59256,374.4399L256.83259,374.4399L256.83259,374.19988L257.31265,374.19988L257.31265,373.95985L257.55268,373.95985L257.55268,373.4798
				L257.79272,373.4798L257.79272,373.23977L258.27278,373.23977L258.27278,372.99975L258.51281,372.99975L258.51281,372.5197L258.75284,372.5197
				L258.75284,372.27967L259.2329,372.27967L259.2329,372.03965L259.47293,372.03965L259.47293,371.55959L259.95299,371.55959L259.95299,370.83952
				L260.19302,370.83952L260.19302,370.59949L260.43305,370.59949L260.43305,370.35947L260.91311,370.35947L260.91311,369.87942
				L261.15314,369.87942L261.15314,369.63939L261.39317,369.63939L261.39317,369.39936L261.87323,369.39936L261.87323,368.91931
				L262.11326,368.91931L262.11326,368.67929L262.35329,368.67929L262.35329,368.43926L262.83335,368.43926L262.83335,367.95921
				L263.55345,367.95921L263.55345,367.71918L263.79348,367.71918L263.79348,367.23913L264.03351,367.23913L264.03351,366.99911
				L264.51357,366.99911L264.51357,366.75908L264.7536,366.75908L264.7536,366.27903L264.99363,366.27903L264.99363,366.03901L265.47369,366.03901
				L265.47369,365.79898L265.95375,365.79898L265.95375,365.31893L266.67384,365.31893L266.67384,365.0789L266.91387,365.0789L266.91387,364.83888
				L267.39393,364.83888L267.39393,364.35883L268.11402,364.35883L268.11402,364.1188L268.59409,364.1188L268.59409,363.87878L269.07415,363.87878
				L269.07415,363.39872L269.55421,363.39872L269.55421,363.1587L270.2743,363.1587L270.2743,362.67865L271.23442,362.67865L271.23442,362.43862
				L271.95451,362.43862L271.95451,362.1986L272.19454,362.1986L272.19454,361.71855L272.91463,361.71855L272.91463,361.47852L276.51509,361.47852
				L276.51509,361.23849L276.75512,361.23849L276.75512,360.51842L277.23518,360.51842L277.23518,359.79834L277.47521,359.79834
				L277.47521,359.55832L277.71524,359.55832L277.71524,358.83824L278.1953,358.83824L278.1953,358.59821L278.43533,358.59821L278.43533,358.11816
				L278.67537,358.11816L278.67537,357.87814L279.15543,357.87814L279.15543,357.15806L279.39546,357.15806L279.39546,356.91803
				L279.87552,356.91803L279.87552,356.19796L280.11555,356.19796L280.11555,355.95793L280.35558,355.95793L280.35558,355.23785
				L280.83564,355.23785L280.83564,354.51778L281.07567,354.51778L281.07567,354.27775L281.3157,354.27775L281.3157,354.03773L281.79576,354.03773
				L281.79576,353.31765L282.03579,353.31765L282.03579,353.07762L282.27582,353.07762L282.27582,352.59757L282.75588,352.59757
				L282.75588,352.35755L282.99591,352.35755L282.99591,352.11752L283.47597,352.11752L283.47597,351.63747L283.716,351.63747L283.716,351.39745
				L283.95604,351.39745L283.95604,350.91739L284.4361,350.91739L284.4361,350.67737L284.67613,350.67737L284.67613,350.43734L284.91616,350.43734
				L284.91616,349.95729L285.39622,349.95729L285.39622,349.71727L285.63625,349.71727L285.63625,349.47724L286.35634,349.47724
				L286.35634,348.99719L286.59637,348.99719L286.59637,348.75716L287.07643,348.75716L287.07643,348.51714L287.31646,348.51714
				L287.31646,348.03709L287.55649,348.03709L287.55649,347.79706L288.03655,347.79706L288.03655,347.31701L288.27658,347.31701
				L288.27658,347.07699L288.51661,347.07699L288.51661,346.83696L288.99668,346.83696L288.99668,346.35691L289.23671,346.35691
				L289.23671,346.11688L289.47674,346.11688L289.47674,345.87686L289.9568,345.87686L289.9568,345.39681L290.19683,345.39681L290.19683,345.15678
				L290.43686,345.15678L290.43686,344.91676L290.91692,344.91676L290.91692,344.4367L291.15695,344.4367L291.15695,344.19668L291.63701,344.19668
				L291.63701,343.71663L291.87704,343.71663L291.87704,343.4766L292.11707,343.4766L292.11707,343.23658L292.59713,343.23658L292.59713,342.75652
				L292.83716,342.75652L292.83716,342.5165L293.07719,342.5165L293.07719,342.27647L293.55725,342.27647L293.55725,341.79642L293.79728,341.79642
				L293.79728,341.5564L294.51738,341.5564L294.51738,341.31637L294.75741,341.31637L294.75741,340.83632L295.4775,340.83632L295.4775,340.59629
				L296.19759,340.59629L296.19759,340.35627L296.67765,340.35627L296.67765,339.87622L297.15771,339.87622L297.15771,339.63619
				L297.39774,339.63619L297.39774,339.15614L297.63777,339.15614L297.63777,338.91612L298.11783,338.91612L298.11783,338.67609
				L298.35786,338.67609L298.35786,338.19604L298.83792,338.19604L298.83792,337.95601L299.07795,337.95601L299.07795,337.71599
				L299.79805,337.71599L299.79805,337.23594L300.03808,337.23594L300.03808,336.99591L300.75817,336.99591L300.75817,335.55576
				L300.9982,335.55576L300.9982,335.31573L301.23823,335.31573L301.23823,335.07571L301.71829,335.07571L301.71829,334.35563L301.95832,334.35563
				L301.95832,333.63555L302.19835,333.63555L302.19835,333.39553L302.67841,333.39553L302.67841,332.67545L302.91844,332.67545
				L302.91844,332.43543L303.3985,332.43543L303.3985,331.95537L303.63853,331.95537L303.63853,331.71535L303.87856,331.71535L303.87856,331.47532
				L304.59865,331.47532L304.59865,330.99527L304.83869,330.99527L304.83869,330.75525L305.31875,330.75525L305.31875,330.51522
				L305.55878,330.51522L305.55878,330.03517L305.79881,330.03517L305.79881,329.79514L306.5189,329.79514L306.5189,329.55512L307.47902,329.55512
				L307.47902,329.07507L308.19911,329.07507L308.19911,328.83504L309.15923,328.83504L309.15923,328.59502L309.87933,328.59502
				L309.87933,328.11496L310.11936,328.11496L310.11936,327.87494L310.59942,327.87494L310.59942,327.39489L310.83945,327.39489
				L310.83945,327.15486L311.07948,327.15486L311.07948,326.91484L311.55954,326.91484L311.55954,326.43479L312.0396,326.43479L
				312.0396,326.19476L312.51966,326.19476L312.51966,325.95473L312.75969,325.95473L312.75969,325.47468L312.99972,325.47468L312.99972,325.23466
				L313.47978,325.23466L313.47978,324.99463L313.71981,324.99463L313.71981,324.51458L314.4399,324.51458L314.4399,324.27456L314.67993,324.27456
				L314.67993,323.7945L315.16,323.7945L315.16,323.55448L315.40003,323.55448L315.40003,323.31445L317.08024,323.31445L317.08024,323.55448
				L317.5603,323.55448L317.5603,323.7945L318.04036,323.7945L318.04036,323.55448L318.76045,323.55448L318.76045,322.8344L319.00048,322.8344
				L319.00048,322.35435L319.24051,322.35435L319.24051,320.9142L319.72057,320.9142L319.72057,319.71407L319.9606,319.71407L319.9606,318.99399
				L320.6807,318.99399L320.6807,318.75397L320.92073,318.75397L320.92073,318.27392L321.16076,318.27392L321.16076,318.03389L322.36091,318.03389
				L322.36091,317.79386L324.52118,317.79386L324.52118,317.31381L324.76121,317.31381L324.76121,317.79386L325.48131,317.79386
				L325.48131,317.31381L326.2014,317.31381L326.2014,317.07379L326.44143,317.07379L326.44143,316.83376L326.92149,316.83376L326.92149,316.35371
				L327.16152,316.35371L327.16152,316.11369L327.40155,316.11369L327.40155,315.63363L327.88161,315.63363L327.88161,315.39361
				L328.36167,315.39361L328.36167,315.15358L329.08176,315.15358L329.08176,314.67353L329.32179,314.67353L329.32179,314.43351
				L329.80185,314.43351L329.80185,314.19348L330.52194,314.19348L330.52194,313.71343L331.00201,313.71343L331.00201,313.4734L
				331.48207,313.4734L331.48207,313.23338L331.7221,313.23338L331.7221,312.75333L331.96213,312.75333L331.96213,312.5133L332.68222,312.5133
				L332.68222,312.03325L332.92225,312.03325L332.92225,311.79323L333.64234,311.79323L333.64234,311.5532L334.1224,311.5532L334.1224,311.07315
				L334.36243,311.07315L334.36243,310.83312L335.08252,310.83312L335.08252,310.5931L335.32255,310.5931L335.32255,310.11305L336.04265,310.11305
				L336.04265,309.87302L336.28268,309.87302L336.28268,309.633L336.52271,309.633L336.52271,309.15294L337.2428,309.15294L337.2428,308.91292
				L337.48283,308.91292L337.48283,308.43287L338.20292,308.43287L338.20292,308.19284L338.92301,308.19284L338.92301,307.95282
				L339.6431,307.95282L339.6431,307.47277L339.88313,307.47277L339.88313,307.23274L340.60322,307.23274L340.60322,306.99271L340.84325,306.99271
				L340.84325,306.51266L341.08328,306.51266L341.08328,306.27264L341.56335,306.27264L341.56335,306.03261L342.52347,306.03261
				L342.52347,305.55256L342.7635,305.55256L342.7635,305.31253L343.24356,305.31253L343.24356,305.07251L343.48359,305.07251L343.48359,304.59246
				L344.20368,304.59246L344.20368,304.35243L344.68374,304.35243L344.68374,303.87238L345.1638,303.87238L345.1638,303.63236L345.40383,303.63236
				L345.40383,303.39233L345.88389,303.39233L345.88389,302.91228L346.36396,302.91228L346.36396,302.67225L347.08405,302.67225
				L347.08405,302.43223L347.32408,302.43223L347.32408,301.95218L347.80414,301.95218L347.80414,301.71215L348.2842,301.71215L
				348.2842,301.47213L348.76426,301.47213L348.76426,300.99207L349.00429,300.99207L349.00429,300.75205L349.24432,300.75205L349.24432,300.272
				L349.96441,300.272L349.96441,300.03197L350.6845,300.03197L350.6845,299.79195L350.92453,299.79195L350.92453,299.3119L351.40459,299.3119
				L351.40459,299.07187L351.88466,299.07187L351.88466,298.83184L352.36472,298.83184L352.36472,298.35179L352.60475,298.35179
				L352.60475,298.11177L353.32484,298.11177L353.32484,297.87174L354.04493,297.87174L354.04493,297.39169L355.00505,297.39169
				L355.00505,297.15167L355.24508,297.15167L355.24508,296.67161L355.48511,296.67161L355.48511,296.43159L355.96517,296.43159
				L355.96517,296.19156L356.9253,296.19156L356.9253,295.71151L357.16533,295.71151L357.16533,295.47149L357.64539,295.47149L357.64539,295.23146
				L357.88542,295.23146L357.88542,294.75141L358.84554,294.75141L358.84554,294.51138L359.08557,294.51138L359.08557,294.27136
				L359.56563,294.27136L359.56563,293.79131L359.80566,293.79131L359.80566,293.55128L360.76578,293.55128L360.76578,293.31126
				L361.00581,293.31126L361.00581,292.8312L361.7259,292.8312L361.7259,292.59118L362.446,292.59118L362.446,292.11113L362.68603,292.11113
				L362.68603,291.8711L363.16609,291.8711L363.16609,291.63108L364.12621,291.63108L364.12621,291.15103L365.08633,291.15103L365.08633,290.911
				L366.04645,290.911L366.04645,290.67097L367.00657,290.67097L367.00657,290.19092L367.72667,290.19092L367.72667,289.9509L368.68679,289.9509
				L368.68679,289.71087L369.64691,289.71087L369.64691,289.23082L370.60703,289.23082L370.60703,288.9908L371.56715,288.9908L371.56715,288.51074
				L372.52728,288.51074L372.52728,288.27072L373.24737,288.27072L373.24737,288.03069L373.96746,288.03069L373.96746,287.55064
				L374.92758,287.55064L374.92758,287.31062L375.40764,287.31062L375.40764,287.07059L381.4084,287.07059L381.4084,287.31062L382.36852,287.31062
				L382.36852,287.55064L383.08862,287.55064L383.08862,288.03069L383.56868,288.03069L383.56868,288.27072L384.28877,288.27072
				L384.28877,288.51074L384.5288,288.51074L384.5288,288.9908L385.24889,288.9908L385.24889,289.71087L385.72895,289.71087L385.72895,289.9509
				L385.96898,289.9509L385.96898,290.19092L386.20901,290.19092L386.20901,290.67097L386.68907,290.67097L386.68907,290.911L387.16913,290.911
				L387.16913,291.15103L387.64919,291.15103L387.64919,291.63108L387.88922,291.63108L387.88922,291.8711L388.12926,291.8711L388.12926,292.11113
				L388.84935,292.11113L388.84935,292.59118L389.32941,292.59118L389.32941,292.8312L389.80947,292.8312L389.80947,293.31126L390.28953,293.31126
				L390.28953,293.55128L390.52956,293.55128L390.52956,293.79131L390.76959,293.79131L390.76959,294.27136L391.48968,294.27136
				L391.48968,294.51138L391.72971,294.51138L391.72971,294.75141L392.20977,294.75141L392.20977,295.23146L392.4498,295.23146L
				392.4498,295.47149L392.92986,295.47149L392.92986,295.71151L393.16989,295.71151L393.16989,296.43159L393.40993,296.43159L393.40993,296.67161
				L393.88999,296.67161L393.88999,297.15167L394.13002,297.15167L394.13002,297.87174L394.37005,297.87174L394.37005,298.11177
				L394.85011,298.11177L394.85011,298.35179L395.09014,298.35179L395.09014,298.83184L395.81023,298.83184L395.81023,299.07187
				L396.05026,299.07187L396.05026,299.79195L396.77035,299.79195L396.77035,300.03197L397.01038,300.03197L397.01038,300.272L397.73047,300.272
				L397.73047,300.75205L399.89075,300.75205L399.89075,300.99207L400.61084,300.99207L400.61084,301.47213L401.33093,301.47213
				L401.33093,301.71215L402.05102,301.71215L402.05102,301.95218L403.01114,301.95218L403.01114,302.43223L403.25117,302.43223
				L403.25117,302.67225L404.2113,302.67225L404.2113,302.91228L405.17142,302.91228L405.17142,303.39233L405.89151,303.39233L405.89151,303.63236
				L406.6116,303.63236L406.6116,303.87238L406.85163,303.87238L406.85163,304.35243L407.57172,304.35243L407.57172,304.59246L404.2113,304.59246
				L404.2113,304.35243L401.57096,304.35243L401.57096,304.59246L401.33093,304.59246L401.33093,304.35243L399.41069,304.35243L
				399.41069,304.59246L398.93063,304.59246L398.93063,305.31253L398.6906,305.31253L398.6906,305.55256L398.45057,305.55256L398.45057,306.03261
				L397.9705,306.03261L397.9705,306.27264L397.73047,306.27264L397.73047,306.51266L397.49044,306.51266L397.49044,307.23274L397.01038,307.23274
				L397.01038,307.47277L396.77035,307.47277L396.77035,307.95282L396.29029,307.95282L396.29029,308.19284L396.05026,308.19284
				L396.05026,308.91292L395.81023,308.91292L395.81023,309.15294L395.33017,309.15294L395.33017,309.633L394.13002,309.633L394.13002,309.15294
				L390.28953,309.15294L390.28953,308.43287L389.80947,308.43287L389.80947,308.19284L389.56944,308.19284L389.56944,307.23274
				L389.80947,307.23274L389.80947,306.99271L390.28953,306.99271L390.28953,306.51266L390.52956,306.51266L390.52956,306.27264
				L390.76959,306.27264L390.76959,306.03261L391.24965,306.03261L391.24965,305.55256L391.48968,305.55256L391.48968,305.31253
				L391.72971,305.31253L391.72971,305.07251L392.20977,305.07251L392.20977,304.59246L392.4498,304.59246L392.4498,304.35243L392.92986,304.35243
				L392.92986,303.87238L393.16989,303.87238L393.16989,303.63236L393.40993,303.63236L393.40993,303.39233L393.16989,303.39233
				L393.16989,302.91228L392.4498,302.91228L392.4498,302.67225L392.20977,302.67225L392.20977,302.43223L391.48968,302.43223L391.48968,301.95218
				L391.24965,301.95218L391.24965,301.71215L390.76959,301.71215L390.76959,301.47213L390.28953,301.47213L390.28953,300.99207
				L389.80947,300.99207L389.80947,300.75205L389.56944,300.75205L389.56944,300.272L388.84935,300.272L388.84935,300.03197L388.60932,300.03197
				L388.60932,299.79195L388.12926,299.79195L388.12926,299.3119L388.60932,299.3119L388.60932,299.07187L388.84935,299.07187L388.84935,298.83184
				L389.32941,298.83184L389.32941,298.35179L389.80947,298.35179L389.80947,298.11177L389.56944,298.11177L389.56944,297.87174
				L389.32941,297.87174L389.32941,297.39169L388.84935,297.39169L388.84935,297.15167L388.12926,297.15167L388.12926,296.67161
				L387.88922,296.67161L387.88922,296.43159L387.16913,296.43159L387.16913,296.19156L386.9291,296.19156L386.9291,295.71151L386.68907,295.71151
				L386.68907,295.47149L385.96898,295.47149L385.96898,295.23146L385.72895,295.23146L385.72895,294.75141L385.24889,294.75141
				L385.24889,294.51138L384.5288,294.51138L384.5288,294.27136L384.28877,294.27136L384.28877,293.79131L383.56868,293.79131L383.56868,293.55128
				L383.32865,293.55128L383.32865,293.31126L383.08862,293.31126L383.08862,292.8312L382.36852,292.8312L382.36852,292.59118L382.12849,292.59118
				L382.12849,292.11113L381.4084,292.11113L381.4084,291.8711L381.16837,291.8711L381.16837,291.63108L380.68831,291.63108"/>
			<path clip-path="url(#SVG_CP_2)" fill="none" stroke="#999999" stroke-width="0.96012" stroke-miterlimit="10" stroke-linecap="round" stroke-linejoin="round" d="
				M263.07339,384.04092L263.07339,383.8009L263.55345,383.8009L263.55345,383.32085L264.03351,383.32085L264.03351,383.08082L264.7536,383.08082
				L264.7536,382.60077L265.47369,382.60077L265.47369,383.08082L265.71372,383.08082L265.71372,382.60077L266.43381,382.60077L
				266.43381,383.08082L268.11402,383.08082L268.11402,383.32085L272.6746,383.32085L272.6746,376.12008L272.91463,376.12008L272.91463,375.64003
				L273.15466,375.64003L273.15466,374.91995L273.63473,374.91995L273.63473,374.19988L266.43381,374.19988L266.43381,373.95985
				L265.71372,373.95985L265.71372,373.4798L264.99363,373.4798L264.99363,373.23977L264.51357,373.23977L264.51357,372.99975L263.07339,372.99975
				L263.07339,373.23977L262.83335,373.23977L262.83335,373.95985L262.35329,373.95985L262.35329,374.91995L262.11326,374.91995
				L262.11326,375.64003L261.87323,375.64003L261.87323,376.60013L261.39317,376.60013L261.39317,377.08018L261.15314,377.08018
				L261.15314,378.04028L260.91311,378.04028L260.91311,380.20051L261.15314,380.20051L261.15314,381.16062L261.87323,381.16062
				L261.87323,381.40064L262.11326,381.40064L262.11326,381.64067L262.35329,381.64067L262.35329,382.60077L262.83335,382.60077
				L262.83335,384.04092L263.07339,384.04092"/>
			<path clip-path="url(#SVG_CP_2)" fill="none" stroke="#999999" stroke-width="0.96012" stroke-miterlimit="10" stroke-linecap="round" stroke-linejoin="round" d="
				M305.79881,458.20883L306.27887,458.20883L306.27887,457.9688L306.5189,457.9688L306.5189,457.48875L322.60094,457.48875L322.60094,457.24873
				L322.84097,457.24873L322.84097,456.76867L332.68222,456.76867L332.68222,456.52865L332.92225,456.52865L332.92225,456.28862
				L333.40231,456.28862L333.40231,455.80857L333.64234,455.80857L333.64234,455.56855L334.1224,455.56855L334.1224,455.32852L334.36243,455.32852
				L334.36243,454.84847L334.60246,454.84847L334.60246,454.60844L335.08252,454.60844L335.08252,454.36842L335.32255,454.36842
				L335.32255,453.88837L335.56258,453.88837L335.56258,453.64834L336.04265,453.64834L336.04265,453.16829L336.28268,453.16829
				L336.28268,452.92826L336.52271,452.92826L336.52271,452.68824L337.00277,452.68824L337.00277,452.20819L337.2428,452.20819L
				337.2428,451.96816L337.48283,451.96816L337.48283,439.96688L337.96289,439.96688L337.96289,439.48683L338.20292,439.48683L338.20292,439.24681
				L338.68298,439.24681L338.68298,439.00678L338.92301,439.00678L338.92301,438.52673L339.16304,438.52673L339.16304,419.08466
				L339.6431,419.08466L339.6431,418.60461L339.88313,418.60461L339.88313,418.36458L340.12316,418.36458L340.12316,417.88453L340.60322,417.88453
				L340.60322,417.64451L340.84325,417.64451L340.84325,417.40448L341.08328,417.40448L341.08328,416.92443L341.56335,416.92443
				L341.56335,416.6844L341.80338,416.6844L341.80338,416.44438L342.28344,416.44438L342.28344,415.96433L342.52347,415.96433L342.52347,415.7243
				L342.7635,415.7243L342.7635,415.00422L343.24356,415.00422L343.24356,414.7642L343.48359,414.7642L343.48359,414.28415L343.72362,414.28415
				L343.72362,414.04412L344.20368,414.04412L344.20368,413.8041L344.44371,413.8041L344.44371,413.32404L344.68374,413.32404L344.68374,413.08402
				L345.1638,413.08402L345.1638,412.84399L345.40383,412.84399L345.40383,412.36394L345.88389,412.36394L345.88389,412.12392L346.12392,412.12392
				L346.12392,411.88389L346.36396,411.88389L346.36396,411.40384L346.84402,411.40384L346.84402,411.16381L347.08405,411.16381
				L347.08405,410.92379L347.32408,410.92379L347.32408,410.44374L347.80414,410.44374L347.80414,410.20371L348.04417,410.20371
				L348.04417,409.72366L348.2842,409.72366L348.2842,409.48364L348.76426,409.48364L348.76426,409.24361L349.00429,409.24361L349.00429,408.76356
				L349.24432,408.76356L349.24432,408.52353L349.72438,408.52353L349.72438,408.28351L349.96441,408.28351L349.96441,407.80346
				L350.44447,407.80346L350.44447,407.56343L350.6845,407.56343L350.6845,407.32341L350.92453,407.32341L350.92453,406.84335L351.40459,406.84335
				L351.40459,406.60333L351.64463,406.60333L351.64463,406.12328L351.88466,406.12328L351.88466,405.88325L352.36472,405.88325
				L352.36472,405.64323L352.60475,405.64323L352.60475,405.16318L352.84478,405.16318L352.84478,404.92315L353.32484,404.92315
				L353.32484,404.68312L353.56487,404.68312L353.56487,404.20307L354.04493,404.20307L354.04493,403.96305L354.28496,403.96305
				L354.28496,403.72302L354.52499,403.72302L354.52499,403.24297L355.00505,403.24297L355.00505,403.00294L355.24508,403.00294
				L355.24508,402.52289L355.48511,402.52289L355.48511,402.28287L355.96517,402.28287L355.96517,402.04284L356.44523,402.04284
				L356.44523,401.56279L356.9253,401.56279L356.9253,401.32277L357.16533,401.32277L357.16533,401.08274L357.64539,401.08274L357.64539,400.60269
				L357.88542,400.60269L357.88542,400.36266L358.12545,400.36266L358.12545,400.12264L358.60551,400.12264L358.60551,399.64259
				L358.84554,399.64259L358.84554,399.40256L359.08557,399.40256L359.08557,399.16254L359.56563,399.16254L359.56563,398.68248
				L359.80566,398.68248L359.80566,398.44246L360.04569,398.44246L360.04569,397.96241L360.52575,397.96241L360.52575,397.72238
				L360.76578,397.72238L360.76578,397.48236L361.00581,397.48236L361.00581,397.00231L361.48587,397.00231L361.48587,396.76228
				L361.7259,396.76228L361.7259,396.52225L362.20597,396.52225L362.20597,396.0422L362.446,396.0422L362.446,395.80218L362.68603,395.80218
				L362.68603,395.56215L363.16609,395.56215L363.16609,395.0821L366.28648,395.0821L366.28648,394.84208L366.76654,394.84208L366.76654,394.36202
				L367.00657,394.36202L367.00657,394.122L367.24661,394.122L367.24661,393.88197L367.72667,393.88197L367.72667,393.40192L367.9667,393.40192
				L367.9667,393.1619L368.20673,393.1619L368.20673,392.92187L368.68679,392.92187L368.68679,392.44182L369.40688,392.44182L369.40688,392.20179
				L369.64691,392.20179L369.64691,391.96177L369.88694,391.96177L369.88694,391.48172L370.367,391.48172L370.367,391.24169L370.60703,391.24169
				L370.60703,390.76164L370.84706,390.76164L370.84706,390.52161L371.32712,390.52161L371.32712,390.28159L371.56715,390.28159
				L371.56715,389.80154L371.80718,389.80154L371.80718,389.56151L372.76731,389.56151L372.76731,389.32149L373.24737,389.32149
				L373.24737,388.84144L373.4874,388.84144L373.4874,388.60141L373.96746,388.60141L373.96746,388.36138L374.20749,388.36138L374.20749,387.88133
				L374.44752,387.88133L374.44752,387.64131L374.92758,387.64131L374.92758,387.40128L375.16761,387.40128L375.16761,386.92123
				L376.12773,386.92123L376.12773,386.68121L376.36776,386.68121L376.36776,386.20115L376.84782,386.20115L376.84782,385.96113
				L377.08785,385.96113L377.08785,385.7211L377.56791,385.7211L377.56791,385.24105L377.80795,385.24105L377.80795,385.00103L378.04798,385.00103
				L378.04798,384.761L378.52804,384.761L378.52804,384.28095L378.76807,384.28095L378.76807,384.04092L379.0081,384.04092L379.0081,383.8009
				L379.48816,383.8009L379.48816,383.32085L379.72819,383.32085L379.72819,383.08082L379.96822,383.08082L379.96822,382.60077L
				380.44828,382.60077L380.44828,382.36075L380.68831,382.36075L380.68831,382.12072L381.16837,382.12072L381.16837,381.64067L
				381.4084,381.64067L381.4084,381.40064L382.36852,381.40064L382.36852,381.16062L382.60855,381.16062L382.60855,380.68057L383.08862,380.68057
				L383.08862,380.44054L383.32865,380.44054L383.32865,380.20051L383.56868,380.20051L383.56868,379.72046L384.04874,379.72046
				L384.04874,379.48044L384.28877,379.48044L384.28877,379.00039L384.5288,379.00039L384.5288,378.76036L385.00886,378.76036L385.00886,378.52034
				L385.24889,378.52034L385.24889,378.04028L385.72895,378.04028L385.72895,377.80026L385.96898,377.80026L385.96898,377.56023
				L386.20901,377.56023L386.20901,377.08018L386.68907,377.08018L386.68907,376.84016L386.9291,376.84016L386.9291,376.60013L387.16913,376.60013
				L387.16913,376.12008L387.64919,376.12008L387.64919,375.88005L387.88922,375.88005L387.88922,375.64003L388.12926,375.64003
				L388.12926,375.15998L388.60932,375.15998L388.60932,374.91995L388.84935,374.91995L388.84935,374.4399L389.32941,374.4399L389.32941,374.19988
				L389.56944,374.19988L389.56944,373.95985L389.80947,373.95985L389.80947,373.4798L390.28953,373.4798L390.28953,373.23977L390.52956,373.23977
				L390.52956,372.99975L390.76959,372.99975L390.76959,372.5197L391.24965,372.5197L391.24965,372.27967L391.48968,372.27967L391.48968,372.03965
				L391.72971,372.03965L391.72971,371.55959L392.20977,371.55959L392.20977,371.31957L392.4498,371.31957L392.4498,370.83952L392.92986,370.83952
				L392.92986,370.59949L393.16989,370.59949L393.16989,370.35947L393.40993,370.35947L393.40993,369.87942L393.88999,369.87942
				L393.88999,369.63939L394.13002,369.63939L394.13002,369.39936L394.37005,369.39936L394.37005,368.91931L394.85011,368.91931
				L394.85011,368.67929L395.09014,368.67929L395.09014,368.43926L395.33017,368.43926L395.33017,367.95921L395.81023,367.95921
				L395.81023,367.71918L396.05026,367.71918L396.05026,367.23913L397.73047,367.23913L397.73047,366.99911L399.41069,366.99911
				L399.41069,366.75908L401.0909,366.75908L401.0909,366.27903L403.25117,366.27903L403.25117,366.75908L405.65148,366.75908L405.65148,366.99911
				L407.09166,366.99911L407.09166,367.23913L407.57172,367.23913L407.57172,367.95921L407.81175,367.95921L407.81175,368.67929
				L408.05178,368.67929L408.05178,368.91931L408.53184,368.91931L408.53184,369.39936L408.77187,369.39936L408.77187,369.87942
				L409.25194,369.87942L409.25194,370.35947L409.49197,370.35947L409.49197,370.59949L409.732,370.59949L409.732,371.31957L410.21206,371.31957
				L410.21206,371.55959L410.45209,371.55959L410.45209,372.27967L410.69212,372.27967L410.69212,372.5197L411.17218,372.5197L411.17218,372.99975
				L411.41221,372.99975L411.41221,372.5197L411.65224,372.5197L411.65224,372.03965L412.1323,372.03965L412.1323,371.31957L412.37233,371.31957
				L412.37233,370.59949L412.85239,370.59949L412.85239,370.35947L413.09242,370.35947L413.09242,369.63939L413.33245,369.63939
				L413.33245,368.91931L413.81251,368.91931L413.81251,368.43926L414.05254,368.43926L414.05254,367.95921L414.29258,367.95921
				L414.29258,367.23913L414.77264,367.23913L414.77264,366.75908L415.01267,366.75908L415.01267,366.03901L415.2527,366.03901L
				415.2527,365.79898L415.73276,365.79898L415.73276,365.0789L415.97279,365.0789L415.97279,364.35883L416.45285,364.35883L416.45285,363.87878
				L416.69288,363.87878L416.69288,363.39872L416.93291,363.39872L416.93291,362.67865L417.41297,362.67865L417.41297,362.1986L
				417.653,362.1986L417.653,361.47852L417.89303,361.47852L417.89303,360.75844L418.37309,360.75844L418.37309,360.51842L418.61312,360.51842
				L418.61312,359.79834L418.85315,359.79834L418.85315,359.07826L419.33322,359.07826L419.33322,358.83824L419.57325,358.83824
				L419.57325,358.59821L419.81328,358.59821L419.81328,358.11816L420.29334,358.11816L420.29334,357.63811L420.53337,357.63811
				L420.53337,357.15806L421.01343,357.15806L421.01343,356.91803L421.25346,356.91803L421.25346,356.67801L421.49349,356.67801
				L421.49349,356.19796L421.97355,356.19796L421.97355,355.95793L422.21358,355.95793L422.21358,355.47788L423.1737,355.47788L
				423.1737,355.95793L424.13382,355.95793L424.13382,356.19796L424.85392,356.19796L424.85392,356.67801L425.57401,356.67801L425.57401,356.91803
				L426.53413,356.91803L426.53413,357.15806L427.01419,357.15806L427.01419,357.63811L428.21434,357.63811L428.21434,357.87814
				L428.6944,357.87814L428.6944,358.11816L429.65452,358.11816L429.65452,358.59821L430.13459,358.59821L430.13459,358.11816L430.37462,358.11816
				L430.37462,357.87814L430.61465,357.87814L430.61465,358.59821L430.37462,358.59821L430.37462,359.07826L430.13459,359.07826
				L430.13459,359.79834L429.65452,359.79834L429.65452,360.51842L429.41449,360.51842L429.41449,361.47852L429.17446,361.47852
				L429.17446,362.1986L428.6944,362.1986L428.6944,362.67865L428.45437,362.67865L428.45437,363.39872L428.21434,363.39872L428.21434,364.1188
				L427.73428,364.1188L427.73428,365.0789L427.49425,365.0789L427.49425,365.79898L427.01419,365.79898L427.01419,366.27903L426.77416,366.27903
				L426.77416,366.99911L426.53413,366.99911L426.53413,367.95921L427.49425,367.95921L427.49425,368.43926L428.45437,368.43926
				L428.45437,368.67929L429.17446,368.67929L429.17446,368.91931L429.65452,368.91931L429.65452,369.39936L430.37462,369.39936
				L430.37462,369.63939L430.61465,369.63939L430.61465,369.87942L431.33474,369.87942L431.33474,370.35947L431.57477,370.35947
				L431.57477,370.59949L432.05483,370.59949L432.05483,371.55959L432.29486,371.55959L432.29486,372.27967L432.77492,372.27967
				L432.77492,373.23977L433.01495,373.23977L433.01495,374.19988L433.25498,374.19988L433.25498,375.15998L433.73504,375.15998
				L433.73504,376.84016L433.25498,376.84016L433.25498,377.56023L433.01495,377.56023L433.01495,378.04028L432.77492,378.04028
				L432.77492,378.76036L432.29486,378.76036L432.29486,379.48044L433.01495,379.48044L433.01495,379.00039L434.2151,379.00039L
				434.2151,378.76036L435.65529,378.76036L435.65529,378.52034L436.85544,378.52034L436.85544,378.04028L438.29562,378.04028L438.29562,377.80026
				L439.49577,377.80026L439.49577,377.56023L440.93596,377.56023L440.93596,377.08018L442.13611,377.08018L442.13611,376.84016
				L443.09623,376.84016L443.09623,376.60013L444.05635,376.60013L444.05635,376.12008L444.77644,376.12008L444.77644,375.88005
				L445.49654,375.88005L445.49654,375.64003L446.45666,375.64003L446.45666,375.15998L446.93672,375.15998L446.93672,374.91995
				L447.65681,374.91995L447.65681,374.4399L448.3769,374.4399L448.3769,374.19988L449.33702,374.19988L449.33702,373.95985L450.05711,373.95985
				L450.05711,373.4798L450.53717,373.4798L450.53717,373.23977L451.73733,373.23977L451.73733,372.99975L452.21739,372.99975L452.21739,372.5197
				L452.93748,372.5197L452.93748,372.27967L453.8976,372.27967L453.8976,372.03965L454.61769,372.03965L454.61769,371.55959L455.09775,371.55959
				L455.09775,371.31957L456.29791,371.31957L456.29791,370.83952L456.77797,370.83952L456.77797,370.59949L457.49806,370.59949
				L457.49806,371.31957L457.25803,371.31957L457.25803,371.55959L456.77797,371.55959L456.77797,372.5197L456.53794,372.5197L456.53794,374.4399
				L456.29791,374.4399L456.29791,376.84016L455.81785,376.84016L455.81785,377.56023L455.57781,377.56023L455.57781,378.76036L
				455.09775,378.76036L455.09775,379.72046L454.85772,379.72046L454.85772,380.44054L454.61769,380.44054L454.61769,381.40064L
				454.13763,381.40064L454.13763,382.12072L453.8976,382.12072L453.8976,383.32085L453.65757,383.32085L453.65757,384.28095L453.17751,384.28095
				L453.17751,385.96113L452.93748,385.96113L452.93748,386.92123L452.69745,386.92123L452.69745,389.80154L452.21739,389.80154
				L452.21739,391.24169L451.97736,391.24169L451.97736,392.92187L451.73733,392.92187L451.73733,394.122L451.25727,394.122L451.25727,394.84208
				L451.01724,394.84208L451.01724,395.56215L450.53717,395.56215L450.53717,396.52225L450.29714,396.52225L450.29714,397.48236
				L450.05711,397.48236L450.05711,398.44246L449.57705,398.44246L449.57705,400.12264L449.33702,400.12264L449.33702,400.60269
				L449.09699,400.60269L449.09699,401.56279L448.61693,401.56279L448.61693,402.28287L448.3769,402.28287L448.3769,403.24297L448.13687,403.24297
				L448.13687,403.96305L447.65681,403.96305L447.65681,404.68312L447.41678,404.68312L447.41678,405.16318L446.93672,405.16318
				L446.93672,405.88325L446.69669,405.88325L446.69669,406.60333L446.45666,406.60333L446.45666,407.56343L445.9766,407.56343L
				445.9766,408.52353L445.73657,408.52353L445.73657,409.72366L445.49654,409.72366L445.49654,410.20371L445.01647,410.20371L445.01647,410.92379
				L444.77644,410.92379L444.77644,411.88389L444.53641,411.88389L444.53641,412.36394L444.05635,412.36394L444.05635,413.32404
				L443.81632,413.32404L443.81632,414.04412L443.33626,414.04412L443.33626,414.7642L443.09623,414.7642L443.09623,415.7243L442.8562,415.7243
				L442.8562,416.44438L442.37614,416.44438L442.37614,416.92443L442.13611,416.92443L442.13611,417.64451L441.89608,417.64451L
				441.89608,418.60461L441.41602,418.60461L441.41602,419.32468L441.17599,419.32468L441.17599,420.04476L440.93596,420.04476L
				440.93596,420.52481L440.4559,420.52481L440.4559,421.24489L440.21587,421.24489L440.21587,421.96497L439.97583,421.96497L439.97583,422.68504
				L439.49577,422.68504L439.49577,423.16509L439.25574,423.16509L439.25574,423.88517L438.77568,423.88517L438.77568,424.84527
				L438.53565,424.84527L438.53565,425.56535L438.29562,425.56535L438.29562,425.80537L437.81556,425.80537L437.81556,426.52545
				L437.57553,426.52545L437.57553,427.24553L437.3355,427.24553L437.3355,427.48555L436.85544,427.48555L436.85544,427.72558L436.61541,427.72558
				L436.61541,428.44566L436.37538,428.44566L436.37538,429.16573L435.89532,429.16573L435.89532,429.40576L435.65529,429.40576
				L435.65529,430.12584L435.17523,430.12584L435.17523,430.36586L434.9352,430.36586L434.9352,431.08594L434.69516,431.08594L434.69516,431.32596
				L434.2151,431.32596L434.2151,431.80601L433.97507,431.80601L433.97507,432.04604L433.73504,432.04604L433.73504,432.28607L433.25498,432.28607
				L433.25498,432.76612L432.77492,432.76612L432.77492,433.00614L432.29486,433.00614L432.29486,433.24617L431.33474,433.24617
				L431.33474,433.72622L430.61465,433.72622L430.61465,433.96624L429.65452,433.96624L429.65452,434.4463L429.17446,434.4463L429.17446,434.68632
				L428.21434,434.68632L428.21434,434.92635L427.49425,434.92635L427.49425,435.4064L426.53413,435.4064L426.53413,435.64642L425.81404,435.64642
				L425.81404,435.88645L425.09395,435.88645L425.09395,436.3665L424.61389,436.3665L424.61389,436.60653L423.89379,436.60653L423.89379,436.84655
				L423.1737,436.84655L423.1737,437.3266L422.45361,437.3266L422.45361,437.56663L421.97355,437.56663L421.97355,437.80665L421.25346,437.80665
				L421.25346,438.2867L420.53337,438.2867L420.53337,438.52673L419.57325,438.52673L419.57325,439.00678L418.85315,439.00678L418.85315,439.24681
				L418.61312,439.24681L418.61312,439.48683L418.37309,439.48683L418.37309,439.96688L417.653,439.96688L417.653,440.44693L417.41297,440.44693
				L417.41297,440.92699L416.93291,440.92699L416.93291,441.40704L416.69288,441.40704L416.69288,442.12711L416.45285,442.12711
				L416.45285,442.60717L415.73276,442.60717L415.73276,442.84719L415.01267,442.84719L415.01267,443.08722L414.77264,443.08722
				L414.77264,443.56727L414.05254,443.56727L414.05254,443.80729L413.33245,443.80729L413.33245,444.04732L413.09242,444.04732
				L413.09242,444.7674L412.85239,444.7674L412.85239,445.48747L412.37233,445.48747L412.37233,446.20755L412.1323,446.20755L412.1323,446.44757
				L411.65224,446.44757L411.65224,447.16765L411.41221,447.16765L411.41221,447.40768L411.17218,447.40768L411.17218,448.12775
				L410.69212,448.12775L410.69212,448.36778L410.45209,448.36778L410.45209,449.08786L410.21206,449.08786L410.21206,449.56791
				L409.732,449.56791L409.732,450.76803L409.49197,450.76803L409.49197,451.24809L409.25194,451.24809L409.25194,452.20819L408.77187,452.20819
				L408.77187,452.68824L408.53184,452.68824L408.53184,453.16829L408.05178,453.16829L408.05178,453.88837L407.81175,453.88837
				L407.81175,454.60844L407.57172,454.60844L407.57172,454.84847L407.09166,454.84847L407.09166,455.32852L406.85163,455.32852
				L406.85163,455.80857L406.6116,455.80857L406.6116,456.28862L406.13154,456.28862L406.13154,456.76867L405.89151,456.76867L405.89151,457.24873
				L405.65148,457.24873L405.65148,457.9688L405.17142,457.9688L405.17142,458.44885L404.93139,458.44885L404.93139,458.9289L404.69136,458.9289
				L404.69136,459.16893L404.2113,459.16893L404.2113,459.40896L403.97127,459.40896L403.97127,460.12903L403.4912,460.12903L403.4912,460.36906
				L403.25117,460.36906L403.25117,460.84911L403.01114,460.84911L403.01114,461.32916L402.53108,461.32916L402.53108,462.04924
				L402.29105,462.04924L402.29105,462.52929L402.05102,462.52929L402.05102,462.76931L401.57096,462.76931L401.57096,463.00934
				L401.0909,463.00934L401.0909,463.48939L400.61084,463.48939L400.61084,463.72942L400.37081,463.72942L400.37081,463.96944L399.89075,463.96944
				L399.89075,464.44949L399.41069,464.44949L399.41069,464.68952L398.6906,464.68952L398.6906,464.92954L397.9705,464.92954L397.9705,465.40959
				L397.49044,465.40959L397.49044,465.64962L396.77035,465.64962L396.77035,466.12967L396.05026,466.12967L396.05026,466.3697L
				395.33017,466.3697L395.33017,466.60972L394.37005,466.60972L394.37005,467.08977L393.88999,467.08977L393.88999,467.3298L393.16989,467.3298
				L393.16989,467.56983L392.4498,467.56983L392.4498,468.04988L391.72971,468.04988L391.72971,468.2899L391.24965,468.2899L391.24965,468.52993
				L390.28953,468.52993L390.28953,469.00998L389.56944,469.00998L389.56944,469.25L388.60932,469.25L388.60932,469.73006L387.64919,469.73006
				L387.64919,469.97008L387.16913,469.97008L387.16913,470.21011L386.68907,470.21011L386.68907,470.69016L385.96898,470.69016
				L385.96898,470.93018L385.24889,470.93018L385.24889,471.17021L385.00886,471.17021L385.00886,471.65026L384.28877,471.65026
				L384.28877,471.89029L383.56868,471.89029L383.56868,472.13031L382.60855,472.13031L382.60855,472.61036L382.12849,472.61036
				L382.12849,472.85039L381.16837,472.85039L381.16837,473.09041L380.44828,473.09041L380.44828,473.57046L379.48816,473.57046
				L379.48816,473.81049L378.76807,473.81049L378.76807,474.29054L378.04798,474.29054L378.04798,474.53057L377.08785,474.53057
				L377.08785,474.77059L376.36776,474.77059L376.36776,475.25064L375.40764,475.25064L375.40764,475.49067L374.92758,475.49067
				L374.92758,475.73069L374.20749,475.73069L374.20749,476.21075L373.24737,476.21075L373.24737,476.45077L372.52728,476.45077
				L372.52728,476.6908L371.56715,476.6908L371.56715,477.17085L370.84706,477.17085L370.84706,477.41087L370.367,477.41087L370.367,477.89092
				L369.40688,477.89092L369.40688,478.13095L368.68679,478.13095L368.68679,478.37098L367.72667,478.37098L367.72667,478.85103
				L367.00657,478.85103L367.00657,479.09105L366.04645,479.09105L366.04645,479.33108L365.32636,479.33108L365.32636,479.81113
				L364.60627,479.81113L364.60627,480.05116L363.64615,480.05116L363.64615,480.29118L363.16609,480.29118L363.16609,480.77123
				L362.20597,480.77123L362.20597,481.01126L361.48587,481.01126L361.48587,481.49131L360.52575,481.49131L360.52575,481.73133
				L359.56563,481.73133L359.56563,481.97136L358.60551,481.97136L358.60551,482.45141L358.12545,482.45141L358.12545,482.69144
				L357.88542,482.69144L357.88542,483.89156L357.64539,483.89156L357.64539,488.45205L357.16533,488.45205L357.16533,492.77251
				L356.9253,492.77251L356.9253,493.73261L356.44523,493.73261"/>
			<path clip-path="url(#SVG_CP_2)" fill="none" stroke="#999999" stroke-width="0.96012" stroke-miterlimit="10" stroke-linecap="round" stroke-linejoin="round" d="
				M356.44523,493.73261L356.44523,495.17277L356.2052,495.17277L356.2052,496.13287L355.96517,496.13287L355.96517,497.09297L355.48511,497.09297
				L355.48511,498.05307L355.24508,498.05307L355.24508,499.01318L355.00505,499.01318L355.00505,499.97328L354.52499,499.97328
				L354.52499,500.69335L354.28496,500.69335L354.28496,501.41343L354.04493,501.41343L354.04493,501.65346L353.56487,501.65346
				L353.56487,501.89348L353.32484,501.89348L353.32484,502.37353L352.84478,502.37353L352.84478,502.61356L352.60475,502.61356
				L352.60475,502.85359L352.36472,502.85359L352.36472,503.33364L351.64463,503.33364L351.64463,503.57366L350.92453,503.57366
				L350.92453,503.81369L350.44447,503.81369L350.44447,504.29374L349.72438,504.29374L349.72438,504.53376L349.00429,504.53376
				L349.00429,505.01382L348.04417,505.01382L348.04417,505.25384L347.32408,505.25384L347.32408,505.49387L344.20368,505.49387
				L344.20368,505.97392L342.28344,505.97392L342.28344,506.21394L340.60322,506.21394L340.60322,506.45397L339.6431,506.45397L
				339.6431,506.93402L337.96289,506.93402L337.96289,506.45397L337.48283,506.45397L337.48283,506.93402L336.52271,506.93402L336.52271,506.45397
				L334.1224,506.45397L334.1224,506.21394L333.40231,506.21394L333.40231,505.97392L332.68222,505.97392L332.68222,505.49387L331.7221,505.49387
				L331.7221,505.25384L331.00201,505.25384L331.00201,505.01382L330.04188,505.01382L330.04188,504.53376L329.32179,504.53376L
				329.32179,504.29374L328.12164,504.29374L328.12164,504.53376L326.44143,504.53376L326.44143,505.01382L324.76121,505.01382L
				324.76121,505.25384L324.28115,505.25384L324.28115,505.01382L322.36091,505.01382L322.36091,504.53376L320.6807,504.53376L320.6807,504.29374
				L319.24051,504.29374L319.24051,503.81369L318.28039,503.81369L318.28039,503.57366L317.5603,503.57366L317.5603,503.33364L317.08024,503.33364
				L317.08024,503.57366L316.36015,503.57366L316.36015,503.81369L315.40003,503.81369L315.40003,504.53376L314.67993,504.53376
				L314.67993,505.01382L313.95984,505.01382L313.95984,505.25384L313.47978,505.25384L313.47978,505.49387L312.99972,505.49387
				L312.99972,505.97392L312.51966,505.97392L312.51966,506.21394L311.79957,506.21394L311.79957,506.45397L311.07948,506.45397
				L311.07948,506.93402L310.83945,506.93402L310.83945,507.17405L310.11936,507.17405L310.11936,507.41407L309.39926,507.41407
				L309.39926,507.89412L308.43914,507.89412L308.43914,508.13415L307.95908,508.13415L307.95908,508.37417L307.23899,508.37417
				L307.23899,508.85422L306.99896,508.85422L306.99896,509.09425L306.27887,509.09425L306.27887,509.5743L305.55878,509.5743L305.55878,509.81433
				L305.31875,509.81433L305.31875,510.05435L304.59865,510.05435L304.59865,510.5344L304.35862,510.5344L304.35862,510.77443L303.87856,510.77443
				L303.87856,511.01445L303.63853,511.01445L303.63853,511.49451L302.91844,511.49451L302.91844,511.73453L302.67841,511.73453
				L302.67841,511.97456L301.95832,511.97456L301.95832,512.45461L301.71829,512.45461L301.71829,512.69463L301.23823,512.69463
				L301.23823,513.17468L300.9982,513.17468L300.9982,513.41471L300.75817,513.41471L300.75817,513.65474L300.27811,513.65474L300.27811,514.13479
				L300.03808,514.13479L300.03808,514.61484L299.31798,514.61484L299.31798,515.09489L299.07795,515.09489L299.07795,515.33492
				L298.35786,515.33492L298.35786,515.57494L297.63777,515.57494L297.63777,516.05499L297.39774,516.05499L297.39774,516.29502
				L296.43762,516.29502L296.43762,516.77507L295.71753,516.77507L295.71753,517.01509L295.23747,517.01509L295.23747,517.25512
				L294.03731,517.25512L294.03731,517.73517L293.07719,517.73517L293.07719,517.9752L292.59713,517.9752L292.59713,518.21522L291.63701,518.21522
				L291.63701,518.69527L290.91692,518.69527L290.91692,518.9353L289.9568,518.9353L289.9568,519.17532L289.23671,519.17532L289.23671,519.65538
				L288.51661,519.65538L288.51661,519.8954L288.27658,519.8954L288.27658,520.13543L287.55649,520.13543L287.55649,520.61548L287.31646,520.61548
				L287.31646,520.8555L285.87628,520.8555L285.87628,521.33555L284.4361,521.33555L284.4361,521.57558L283.95604,521.57558L283.95604,521.81561
				L283.47597,521.81561L283.47597,520.8555L283.716,520.8555L283.716,520.61548L283.95604,520.61548L283.95604,520.13543L284.4361,520.13543
				L284.4361,519.8954L284.67613,519.8954L284.67613,519.65538L284.91616,519.65538L284.91616,519.17532L285.39622,519.17532L285.39622,518.9353
				L285.63625,518.9353L285.63625,518.69527L285.87628,518.69527L285.87628,518.21522L286.59637,518.21522L286.59637,517.9752L287.07643,517.9752
				L287.07643,517.73517L287.31646,517.73517L287.31646,517.01509L287.55649,517.01509L287.55649,516.29502L288.03655,516.29502
				L288.03655,515.09489L287.55649,515.09489L287.55649,512.45461L287.31646,512.45461L287.31646,506.93402L287.55649,506.93402
				L287.55649,503.33364L288.03655,503.33364L288.03655,499.2532L288.27658,499.2532L288.27658,495.65282L288.51661,495.65282L288.51661,491.57238
				L288.99668,491.57238L288.99668,487.49195L289.23671,487.49195L289.23671,484.61164L289.47674,484.61164L289.47674,482.45141
				L289.9568,482.45141L289.9568,481.01126L290.19683,481.01126L290.19683,480.05116L290.43686,480.05116L290.43686,479.09105L290.91692,479.09105
				L290.91692,477.89092L291.15695,477.89092L291.15695,476.6908L291.63701,476.6908L291.63701,475.73069L291.87704,475.73069L291.87704,474.53057
				L292.11707,474.53057L292.11707,473.57046L292.59713,473.57046L292.59713,472.61036L292.83716,472.61036L292.83716,471.65026
				L293.07719,471.65026L293.07719,470.21011L293.55725,470.21011L293.55725,469.25L293.79728,469.25L293.79728,468.04988L294.03731,468.04988
				L294.03731,466.3697L294.51738,466.3697L294.51738,464.68952L294.75741,464.68952L294.75741,463.00934L295.23747,463.00934L295.23747,461.08913
				L295.4775,461.08913L295.4775,460.84911L303.63853,460.84911L303.63853,460.36906L303.87856,460.36906L303.87856,460.12903L304.35862,460.12903
				L304.35862,459.88901L304.59865,459.88901L304.59865,459.40896L304.83869,459.40896L304.83869,459.16893L305.31875,459.16893
				L305.31875,458.9289L305.55878,458.9289L305.55878,458.44885L305.79881,458.44885L305.79881,458.20883"/>
		</g>
</g></svg>