<?xml version="1.0" encoding="utf-8" standalone="no"?>
<!-- Creator: ESRI ArcMap 10.0.0.2414 -->
<!DOCTYPE svg PUBLIC "-//W3C//DTD SVG 1.1//EN"  "http://www.w3.org/Graphics/SVG/1.1/DTD/svg11.dtd">
<svg width="524.0420768pt" height="152.316149636pt" viewBox="32.15712744 344.971060182 524.0420768 152.316149636" enable-background="new 32.15712744 344.971060182 524.0420768 152.316149636"
	version="1.1" xmlns="http://www.w3.org/2000/svg" xmlns:xlink="http://www.w3.org/1999/xlink" >
	<g id="Couches">
		<g id="cont_2">
			<path clip-path="url(#SVG_CP_2)" fill="none" stroke="#999999" stroke-width="0.96012" stroke-miterlimit="10" stroke-linecap="round" stroke-linejoin="round" d="
				M180.26288,363.1587L180.50291,363.1587L180.50291,363.39872L180.74294,363.39872L180.98297,363.39872L181.223,363.39872L181.223,363.1587
				L180.98297,363.1587L180.98297,362.91867L180.98297,362.43862L180.74294,362.43862L180.74294,361.95857L180.74294,361.71855L
				180.74294,361.23849L180.26288,361.23849L180.02285,361.23849L180.02285,360.99847L179.78282,360.99847L179.54278,360.99847L
				179.54278,360.75844L179.30275,360.75844L179.06272,360.75844L178.82269,360.75844L178.82269,360.51842L178.58266,360.51842L
				178.34263,360.51842L178.1026,360.51842L178.1026,360.27839L177.62254,360.27839L177.38251,360.27839L177.38251,360.03837L177.14248,360.03837
				L176.90245,360.03837L176.66242,360.03837L176.66242,359.79834L176.42239,359.79834L176.18236,359.79834L176.18236,359.55832
				L175.94233,359.55832L175.7023,359.55832L175.46227,359.55832L175.46227,359.31829L174.98221,359.31829L174.98221,359.07826L
				174.50215,359.07826L174.26211,359.07826L174.02208,359.07826L174.02208,358.83824L173.78205,358.83824L173.54202,358.83824L
				173.54202,358.59821L173.30199,358.59821L173.06196,358.59821L172.82193,358.59821L172.82193,358.35819L172.34187,358.35819L
				172.10184,358.35819L172.10184,358.11816L171.86181,358.11816L171.62178,358.11816L171.38175,358.11816L171.38175,357.87814L
				171.14172,357.87814L170.66166,357.87814L170.42163,357.87814L170.42163,357.63811L170.1816,357.63811L169.94157,357.63811L169.94157,357.39809
				L169.70154,357.39809L169.22148,357.39809L168.98144,357.39809L168.98144,357.15806L168.74141,357.15806L168.50138,357.15806
				L168.50138,356.91803L168.26135,356.91803L168.02132,356.91803L167.54126,356.91803L167.54126,356.67801L167.30123,356.67801
				L167.0612,356.67801L167.0612,356.43798L166.58114,356.43798L166.34111,356.43798L166.10108,356.43798L166.10108,356.19796L165.86105,356.19796
				L165.62102,356.19796L165.62102,355.95793L165.14096,355.95793L164.90093,355.95793L164.6609,355.95793L164.6609,355.71791L164.42087,355.71791
				L163.94081,355.71791L163.94081,355.47788L163.70077,355.47788L163.46074,355.47788L163.22071,355.47788L163.22071,355.23785
				L162.74065,355.23785L162.50062,355.23785L162.26059,355.23785L162.26059,354.99783L161.5405,354.99783L161.5405,355.23785L161.06044,355.23785
				L160.10032,355.23785L159.62026,355.23785L159.62026,355.47788L158.90017,355.47788L158.18007,355.47788L157.45998,355.47788
				L157.45998,355.71791L156.73989,355.71791L156.0198,355.71791L156.0198,355.95793L155.53974,355.95793L154.81965,355.95793L154.09956,355.95793
				L154.09956,356.19796L153.37946,356.19796L152.65937,356.19796L152.65937,356.43798L152.41934,356.43798L151.93928,356.43798
				L151.69925,356.43798L151.69925,356.67801L151.21919,356.67801L150.97916,356.67801L150.97916,356.91803L150.4991,356.91803L
				150.25907,356.91803L149.77901,356.91803L149.77901,357.15806L149.53898,357.15806L149.05892,357.15806L149.05892,357.39809L
				148.81889,357.39809L148.33883,357.39809L148.09879,357.39809L148.09879,357.63811L147.61873,357.63811L147.3787,357.63811L147.3787,357.87814
				L146.89864,357.87814L146.65861,357.87814L146.17855,357.87814L146.17855,358.11816L145.93852,358.11816L145.45846,358.11816
				L145.21843,358.11816L145.21843,358.35819L144.73837,358.35819L144.49834,358.35819L144.49834,358.59821L144.01828,358.59821
				L143.77825,358.59821L143.29819,358.59821L143.29819,358.83824L142.81812,358.83824L142.57809,358.83824L142.57809,359.07826
				L142.33806,359.07826L141.858,359.07826L141.61797,359.07826L141.61797,359.31829L141.37794,359.31829L141.13791,359.31829L141.13791,359.55832
				L140.89788,359.55832L140.65785,359.55832L140.65785,359.79834L140.41782,359.79834L140.17779,359.79834L140.17779,360.03837
				L139.93776,360.03837L139.4577,360.03837L138.97764,360.03837L138.97764,360.27839L138.49758,360.27839L138.25755,360.27839L
				138.25755,360.51842L137.77748,360.51842L137.53745,360.51842L137.05739,360.51842L137.05739,360.75844L136.57733,360.75844L
				136.3373,360.75844L135.85724,360.75844L135.85724,360.99847L135.37718,360.99847L135.13715,360.99847L135.13715,361.23849L134.65709,361.23849
				L134.17703,361.23849L133.69697,361.23849L133.69697,361.47852L133.21691,361.47852L132.73685,361.47852L132.73685,361.71855
				L132.25678,361.71855L131.77672,361.71855L131.29666,361.71855L131.29666,361.95857L130.8166,361.95857L130.33654,361.95857L
				130.33654,362.1986L129.85648,362.1986L129.37642,362.1986L128.89636,362.1986L128.89636,362.43862L128.17627,362.43862L127.69621,362.43862
				L127.69621,362.67865L127.21614,362.67865L126.73608,362.67865L126.25602,362.67865L126.25602,362.91867L125.77596,362.91867
				L125.2959,362.91867L125.2959,363.1587L125.05587,363.1587L124.81584,363.1587L124.81584,363.39872L124.57581,363.39872L124.33578,363.39872
				L124.33578,363.87878L124.09575,363.87878L124.09575,364.35883L124.09575,364.83888L123.85572,364.83888L123.85572,365.0789L
				123.61569,365.0789L123.61569,365.31893L123.61569,365.55895L123.37566,365.55895L123.37566,365.79898L123.13563,365.79898L123.13563,366.03901
				L122.8956,366.03901L122.8956,366.27903L122.65557,366.27903L122.65557,366.51906L122.41554,366.51906L122.1755,366.51906L122.1755,366.75908
				L121.93547,366.75908L121.93547,366.99911L121.69544,366.99911L121.69544,367.23913L121.45541,367.23913L121.45541,367.47916
				L121.21538,367.47916L120.97535,367.47916L120.97535,367.71918L120.73532,367.71918L120.49529,367.71918L120.49529,367.95921
				L120.25526,367.95921L120.01523,367.95921L120.01523,368.19924L119.53517,368.19924L119.29514,368.19924L119.29514,368.43926
				L119.05511,368.43926L118.81508,368.43926L118.57505,368.43926L118.57505,368.67929L118.33502,368.67929L117.85496,368.67929
				L117.61493,368.67929L117.61493,368.91931L117.3749,368.91931L117.13487,368.91931L117.13487,369.15934L116.89483,369.15934L
				116.6548,369.15934L116.41477,369.15934L116.41477,369.39936L116.17474,369.39936L115.93471,369.39936L115.93471,369.63939L115.69468,369.63939
				L115.45465,369.63939L115.21462,369.63939L115.21462,369.87942L114.97459,369.87942L114.73456,369.87942L114.73456,370.11944
				L114.49453,370.11944L114.2545,370.11944L114.01447,370.11944L114.01447,370.35947L113.77444,370.35947L113.77444,370.59949L
				113.53441,370.59949L113.29438,370.59949L113.05435,370.59949L113.05435,370.83952L112.81432,370.83952L112.57429,370.83952L
				112.57429,371.07954L112.33426,371.07954L112.09423,371.07954L111.8542,371.07954L111.8542,371.31957L111.37413,371.31957L111.1341,371.31957
				L110.89407,371.31957L110.89407,371.55959L110.41401,371.55959L110.17398,371.55959L110.17398,371.79962L109.69392,371.79962
				L109.45389,371.79962L109.21386,371.79962L109.45389,371.79962L109.45389,371.55959L109.69392,371.55959L109.93395,371.55959
				L109.93395,371.31957L110.17398,371.31957L110.17398,371.07954L110.41401,371.07954L110.65404,371.07954L110.65404,370.83952
				L110.89407,370.83952L110.89407,370.59949L111.1341,370.59949L111.1341,370.35947L111.1341,370.11944L111.37413,370.11944L111.37413,369.87942
				L111.61416,369.87942L111.8542,369.87942L111.8542,369.63939L112.09423,369.63939L112.09423,369.39936L112.09423,369.15934L112.33426,369.15934
				L112.57429,369.15934L112.81432,369.15934L112.81432,368.91931L113.05435,368.91931L113.05435,368.67929L113.29438,368.67929
				L113.53441,368.67929L113.53441,368.43926L114.01447,368.43926L114.01447,368.19924L114.2545,368.19924L114.2545,367.95921L114.49453,367.95921
				L114.49453,367.71918L114.73456,367.71918L114.73456,367.47916L114.97459,367.47916L115.21462,367.47916L115.21462,367.23913
				L115.21462,366.99911L115.45465,366.99911L115.69468,366.99911L115.69468,366.75908L115.93471,366.75908L115.93471,366.51906
				L116.17474,366.51906L116.41477,366.51906L116.41477,366.27903L116.6548,366.27903L116.6548,366.03901L116.89483,366.03901L116.89483,365.79898
				L117.13487,365.79898L117.13487,365.55895L117.13487,365.31893L117.3749,365.31893L117.3749,365.0789L117.61493,365.0789L117.85496,365.0789
				L117.85496,364.83888L118.09499,364.83888L118.33502,364.83888L118.33502,364.59885L118.57505,364.59885L118.57505,364.35883
				L118.81508,364.35883L118.81508,364.1188L118.81508,363.87878L119.05511,363.87878L119.05511,363.63875L119.29514,363.63875L
				119.29514,363.39872L119.53517,363.39872L119.7752,363.39872L119.7752,363.1587L120.01523,363.1587L120.01523,362.91867L120.25526,362.91867
				L120.25526,362.67865L120.49529,362.67865L120.49529,362.43862L120.49529,362.1986L120.73532,362.1986L120.73532,361.95857L120.73532,361.71855
				L120.97535,361.71855L120.97535,361.47852L121.21538,361.47852L121.21538,361.23849L121.45541,361.23849L121.45541,360.99847
				L121.45541,360.75844L121.69544,360.75844L121.69544,360.51842L121.93547,360.51842L122.1755,360.51842L122.1755,360.27839L122.41554,360.27839
				L122.65557,360.27839L122.65557,360.03837L122.8956,360.03837L123.13563,360.03837L123.37566,360.03837L123.37566,359.79834L
				123.61569,359.79834L123.61569,359.55832L123.85572,359.55832L124.09575,359.55832L124.33578,359.55832L124.33578,359.31829L
				124.57581,359.31829L124.81584,359.31829L124.81584,359.07826L125.05587,359.07826L125.2959,359.07826L125.2959,358.83824L125.53593,358.83824
				L125.53593,358.59821L125.77596,358.59821L126.01599,358.59821L126.01599,358.35819L126.25602,358.35819L126.49605,358.35819
				L126.49605,358.11816L126.73608,358.11816L126.97611,358.11816L127.21614,358.11816L127.21614,357.87814L127.45618,357.87814
				L127.69621,357.87814L127.93624,357.87814L127.93624,357.63811L128.17627,357.63811L128.4163,357.63811L128.4163,357.39809L128.65633,357.39809
				L129.13639,357.39809L129.37642,357.39809L129.37642,357.15806L129.61645,357.15806L130.09651,357.15806L130.09651,356.91803
				L130.57657,356.91803L131.77672,356.91803L131.77672,356.67801L132.25678,356.67801L132.49681,356.67801L132.49681,356.43798
				L132.97688,356.43798L133.21691,356.43798L134.17703,356.43798L134.17703,356.19796L134.65709,356.19796L134.89712,356.19796
				L134.89712,355.95793L135.85724,355.95793L135.85724,356.19796L136.3373,356.19796L137.77748,356.19796L138.01752,356.19796L
				138.01752,355.95793L138.49758,355.95793L138.73761,355.95793L139.93776,355.95793L139.93776,355.71791L140.17779,355.71791L
				140.41782,355.71791L140.41782,355.47788L140.65785,355.47788L140.89788,355.47788L141.13791,355.47788L141.13791,355.23785L
				141.37794,355.23785L141.61797,355.23785L141.858,355.23785L141.858,354.99783L142.09803,354.99783L142.57809,354.99783L142.57809,354.7578
				L142.81812,354.7578L143.05815,354.7578L143.29819,354.7578L143.29819,354.51778L143.53822,354.51778L143.77825,354.51778L143.77825,354.27775
				L144.25831,354.27775L144.49834,354.27775L144.73837,354.27775L144.73837,354.03773L145.21843,354.03773L145.45846,354.03773
				L145.45846,353.7977L145.69849,353.7977L145.93852,353.7977L146.41858,353.7977L146.41858,353.55768L146.65861,353.55768L146.89864,353.55768
				L146.89864,353.31765L147.13867,353.31765L147.3787,353.31765L147.85876,353.31765L147.85876,353.07762L148.09879,353.07762L
				148.33883,353.07762L148.33883,352.8376L148.57886,352.8376L149.05892,352.8376L149.29895,352.8376L149.29895,352.59757L149.53898,352.59757
				L150.01904,352.59757L150.25907,352.59757L150.25907,352.35755L150.73913,352.35755L151.21919,352.35755L151.21919,352.11752
				L151.69925,352.11752L152.41934,352.11752L152.65937,352.11752L152.65937,351.8775L153.13943,351.8775L153.85953,351.8775L153.85953,351.63747
				L154.57962,351.63747L155.29971,351.63747L155.77977,351.63747L155.77977,351.39745L156.49986,351.39745L156.73989,351.39745
				L157.21995,351.39745L157.21995,351.15742L157.94004,351.15742L158.66013,351.15742L159.1402,351.15742L159.1402,350.91739L159.62026,350.91739
				L159.62026,350.67737L159.86029,350.67737L160.10032,350.67737L160.34035,350.67737L160.34035,350.43734L160.58038,350.43734
				L161.30047,350.43734L161.5405,350.43734L162.26059,350.43734L162.26059,350.67737L162.50062,350.67737L162.98068,350.67737L
				163.22071,350.67737L163.22071,350.91739L163.46074,350.91739L163.70077,350.91739L163.70077,351.15742L163.94081,351.15742L
				164.42087,351.15742L164.6609,351.15742L164.6609,351.39745L164.90093,351.39745L164.90093,351.63747L165.14096,351.63747L165.38099,351.63747
				L165.38099,351.8775L165.62102,351.8775L165.86105,351.8775L165.86105,352.11752L167.0612,352.11752L168.50138,352.11752L168.98144,352.11752
				L168.98144,352.35755L170.66166,352.35755L171.62178,352.35755L171.62178,352.59757L172.10184,352.59757L172.10184,352.35755
				L172.34187,352.35755L172.34187,352.59757L172.5819,352.59757L172.82193,352.59757L173.06196,352.59757L173.06196,352.8376L173.30199,352.8376
				L173.54202,352.8376L173.78205,352.8376L173.78205,353.07762L174.02208,353.07762L174.50215,353.07762L174.74218,353.07762L174.98221,353.07762
				L174.98221,353.31765L175.22224,353.31765L175.46227,353.31765L175.7023,353.31765L175.7023,353.55768L175.94233,353.55768L176.18236,353.55768
				L176.18236,353.7977L176.42239,353.7977L176.66242,353.7977L176.90245,353.7977L176.90245,354.03773L177.14248,354.03773L177.38251,354.03773
				L177.38251,354.27775L177.62254,354.27775L178.1026,354.27775L178.1026,354.51778L178.58266,354.51778L178.58266,354.7578L179.06272,354.7578
				L179.06272,354.99783L179.06272,355.23785L179.30275,355.23785L179.30275,355.47788L179.78282,355.47788L179.78282,355.23785
				L180.02285,355.23785L180.26288,355.23785L180.26288,354.99783L180.50291,354.99783L180.98297,354.99783L180.98297,354.7578L
				181.223,354.7578L181.70306,354.7578L181.70306,354.51778L181.94309,354.51778L182.18312,354.51778L182.18312,354.27775L182.42315,354.27775
				L182.66318,354.27775L182.66318,354.03773L182.90321,354.03773L183.14324,354.03773L183.14324,353.7977L183.38327,353.7977L183.6233,353.7977
				L183.86333,353.7977L183.86333,353.55768L184.10336,353.55768L184.34339,353.55768L184.34339,353.31765L184.82346,353.31765L
				186.02361,353.31765L187.46379,353.31765L187.46379,353.07762L187.70382,353.07762L187.70382,353.31765L188.66394,353.31765L
				189.144,353.31765L189.144,353.55768L189.62406,353.55768L189.86409,353.55768L189.86409,353.7977L190.10413,353.7977L190.34416,353.7977
				L190.58419,353.7977L190.58419,354.03773L190.82422,354.03773L191.06425,354.03773L191.06425,354.27775L191.30428,354.27775L
				191.54431,354.27775L191.78434,354.27775L191.78434,354.51778L192.2644,354.51778L192.2644,354.7578L192.50443,354.7578L192.74446,354.7578
				L192.74446,354.99783L192.98449,354.99783L193.22452,354.99783L193.22452,355.23785L193.46455,355.23785L193.46455,355.47788
				L193.70458,355.47788L193.94461,355.47788L193.94461,355.71791L193.94461,355.95793L194.18464,355.95793L194.42467,355.95793
				L194.42467,356.19796L194.6647,356.19796L194.6647,356.43798L194.90473,356.43798L194.90473,356.67801L195.14476,356.67801L195.3848,356.67801
				L195.3848,356.91803L195.62483,356.91803L195.86486,356.91803L196.10489,356.91803L196.10489,357.15806L196.34492,357.15806L
				196.58495,357.15806L196.58495,357.39809L196.82498,357.39809L197.54507,357.39809L197.7851,357.39809L197.7851,357.63811L198.26516,357.63811
				L198.50519,357.63811L198.50519,357.87814L198.98525,357.87814L199.22528,357.87814L199.70534,357.87814L199.70534,358.11816
				L199.94537,358.11816L200.1854,358.11816L200.42544,358.11816L200.42544,358.35819L200.66547,358.35819L200.9055,358.35819L200.9055,358.59821
				L201.14553,358.59821L201.38556,358.59821L201.62559,358.59821L201.62559,358.83824L201.86562,358.83824L201.86562,359.07826
				L202.34568,359.07826L202.58571,359.07826L202.58571,359.31829L202.82574,359.31829L203.06577,359.31829L203.06577,359.55832
				L203.3058,359.55832L203.54583,359.55832L203.78586,359.55832L203.78586,359.79834L204.02589,359.79834L204.02589,360.03837L
				204.26592,360.03837L204.50595,360.03837L204.74598,360.03837L204.74598,360.27839L204.98601,360.27839L204.98601,360.51842L
				205.22604,360.51842L205.46607,360.51842L205.70611,360.51842L205.70611,360.75844L205.94614,360.75844L206.18617,360.75844L
				206.66623,360.75844L206.66623,360.51842L207.14629,360.51842L208.10641,360.51842L208.58647,360.51842L209.30656,360.51842L
				209.78662,360.51842L209.78662,360.27839L210.74674,360.27839L210.74674,360.51842L211.22681,360.51842L211.46684,360.51842L
				211.70687,360.51842L211.70687,360.75844L211.9469,360.75844L212.18693,360.75844L212.18693,360.99847L212.42696,360.99847L212.66699,360.99847
				L212.66699,361.23849L212.90702,361.23849L213.14705,361.23849L213.14705,361.47852L213.62711,361.47852L213.62711,361.71855
				L214.58723,361.71855L214.58723,361.47852L215.06729,361.47852L215.06729,361.71855L215.06729,361.47852L215.06729,361.71855
				L215.54735,361.71855L215.54735,361.95857L215.06729,361.95857L215.06729,362.1986L214.82726,362.1986L214.58723,362.1986L214.3472,362.1986
				L214.3472,362.43862L214.10717,362.43862L213.86714,362.43862L213.86714,362.67865L213.62711,362.67865L213.14705,362.67865L
				213.14705,362.91867L212.90702,362.91867L212.42696,362.91867L212.42696,363.1587L212.18693,363.1587L211.9469,363.1587L211.46684,363.1587
				L211.46684,363.39872L210.98678,363.39872L210.74674,363.39872L210.50671,363.39872L210.50671,363.63875L210.02665,363.63875
				L209.78662,363.63875L209.78662,363.87878L209.30656,363.87878L208.8265,363.87878L208.58647,363.87878L208.58647,364.1188L208.34644,364.1188
				L207.86638,364.1188L207.86638,364.35883L207.62635,364.35883L207.14629,364.35883L206.4262,364.35883L206.4262,364.59885L205.94614,364.59885
				L205.70611,364.59885L205.70611,364.83888L205.46607,364.83888L205.22604,364.83888L204.74598,364.83888L204.74598,365.0789L
				204.50595,365.0789L204.02589,365.0789L204.02589,365.31893L203.54583,365.31893L203.3058,365.31893L203.06577,365.31893L203.06577,365.55895
				L202.58571,365.55895L202.34568,365.55895L202.34568,365.79898L201.86562,365.79898L201.62559,365.79898L201.38556,365.79898
				L201.38556,366.03901L201.14553,366.03901L200.9055,366.03901L200.42544,366.03901L200.42544,366.27903L200.1854,366.27903L200.1854,366.51906
				L199.94537,366.51906L199.70534,366.51906L199.70534,366.75908L199.46531,366.75908L199.46531,366.99911L199.22528,366.99911
				L198.98525,366.99911L198.98525,367.23913L198.74522,367.23913L198.74522,367.47916L198.50519,367.47916L198.26516,367.47916
				L198.26516,367.71918L198.02513,367.71918L197.7851,367.71918L197.7851,367.95921L197.54507,367.95921L197.30504,367.95921L197.30504,368.19924
				L197.06501,368.19924L197.06501,368.43926L196.82498,368.43926L196.58495,368.43926L196.58495,368.67929L196.34492,368.67929
				L196.10489,368.67929L196.10489,368.91931L196.10489,369.15934L195.86486,369.15934L195.62483,369.15934L195.62483,369.39936
				L195.62483,369.63939L195.3848,369.63939L195.3848,369.87942L195.14476,369.87942L195.14476,370.11944L194.90473,370.11944L194.90473,370.35947
				L194.6647,370.35947L194.42467,370.35947L194.42467,370.59949L194.18464,370.59949L193.94461,370.59949L193.94461,370.83952L
				193.70458,370.83952L193.46455,370.83952L193.46455,371.07954L193.22452,371.07954L192.98449,371.07954L192.74446,371.07954L
				192.74446,371.31957L192.50443,371.31957L192.2644,371.31957L192.02437,371.31957L192.02437,371.55959L191.78434,371.55959L191.54431,371.55959
				L191.54431,371.79962L191.30428,371.79962L191.06425,371.79962L190.82422,371.79962L190.82422,372.03965L190.58419,372.03965
				L190.34416,372.03965L190.34416,372.5197L190.34416,372.75972L190.58419,372.75972L190.58419,373.23977L190.34416,373.23977L
				189.86409,373.23977L189.86409,373.4798L189.62406,373.4798L189.144,373.4798L189.144,373.23977L189.144,372.99975L189.144,372.5197
				L188.90397,372.5197L188.90397,372.75972L188.66394,372.75972L188.42391,372.75972L188.18388,372.75972L188.18388,373.23977L
				188.18388,373.4798L187.94385,373.4798L187.94385,373.71982L187.94385,373.95985L187.70382,373.95985L187.70382,374.19988L187.70382,374.4399
				L187.70382,374.67993L187.46379,374.67993L187.46379,374.91995L186.26364,374.91995L186.02361,374.91995L186.02361,374.67993
				L186.02361,374.19988L185.78358,374.19988L185.78358,373.71982L185.78358,373.23977L185.54355,373.23977L185.06349,373.23977
				L184.10336,373.23977L184.10336,373.4798L183.38327,373.4798L182.66318,373.4798L182.66318,373.71982L182.18312,373.71982L180.50291,373.71982
				L180.50291,372.5197L180.26288,372.5197L180.26288,363.1587"/>
			<path clip-path="url(#SVG_CP_2)" fill="none" stroke="#999999" stroke-width="0.96012" stroke-miterlimit="10" stroke-linecap="round" stroke-linejoin="round" d="
				M133.21691,385.00103L133.21691,384.761L132.97688,384.761L132.97688,384.52098L132.73685,384.52098L132.73685,384.04092L132.73685,383.56087
				L132.73685,383.08082L132.97688,383.08082L132.97688,383.32085L133.21691,383.32085L133.21691,383.56087L133.45694,383.56087
				L133.45694,383.8009L133.69697,383.8009L133.69697,384.04092L133.69697,384.52098L133.45694,384.52098L133.45694,384.761L133.21691,384.761
				L133.21691,385.00103"/>
			<path clip-path="url(#SVG_CP_2)" fill="none" stroke="#999999" stroke-width="0.96012" stroke-miterlimit="10" stroke-linecap="round" stroke-linejoin="round" d="
				M180.26288,363.1587L180.26288,373.23977L180.26288,373.71982L176.66242,373.71982L176.66242,373.95985L175.94233,373.95985L
				175.46227,373.95985L174.98221,373.95985L174.98221,374.19988L174.50215,374.19988L174.02208,374.19988L174.02208,374.4399L173.54202,374.4399
				L172.82193,374.4399L172.34187,374.4399L172.34187,374.67993L171.86181,374.67993L171.38175,374.67993L171.38175,374.91995L171.14172,374.91995
				L170.42163,374.91995L169.70154,374.91995L169.70154,375.15998L168.98144,375.15998L168.98144,375.4L166.58114,375.4L166.58114,375.64003
				L166.82117,375.64003L166.82117,375.88005L167.0612,375.88005L167.0612,376.12008L167.0612,376.36011L167.30123,376.36011L167.30123,376.60013
				L167.54126,376.60013L167.54126,376.84016L167.54126,377.08018L167.78129,377.08018L167.78129,377.32021L168.02132,377.32021
				L168.02132,377.56023L168.02132,377.80026L168.26135,377.80026L168.26135,378.04028L168.50138,378.04028L168.50138,378.28031
				L168.50138,378.52034L168.74141,378.52034L168.98144,378.52034L168.98144,378.76036L168.74141,378.76036L168.50138,378.76036
				L168.50138,379.00039L168.26135,379.00039L168.26135,379.24041L168.02132,379.24041L167.78129,379.24041L167.78129,379.48044
				L167.54126,379.48044L167.54126,379.72046L167.30123,379.72046L167.0612,379.72046L167.0612,379.96049L166.82117,379.96049L166.82117,380.20051
				L166.58114,380.20051L166.34111,380.20051L166.34111,380.44054L166.10108,380.44054L166.10108,380.68057L165.86105,380.68057
				L165.62102,380.68057L165.62102,380.92059L165.38099,380.92059L165.38099,381.16062L165.14096,381.16062L164.90093,381.16062
				L164.90093,381.40064L164.6609,381.40064L158.90017,381.40064L158.18007,381.40064L157.94004,381.40064L157.94004,381.16062L
				157.94004,380.92059L157.70001,380.92059L157.70001,380.68057L157.70001,379.72046L157.94004,379.72046L158.18007,379.72046L
				158.18007,379.48044L158.4201,379.48044L158.4201,379.72046L158.66013,379.72046L159.1402,379.72046L159.1402,379.48044L159.38023,379.48044
				L159.62026,379.48044L159.62026,379.24041L159.86029,379.24041L159.86029,379.00039L160.10032,379.00039L160.34035,379.00039
				L160.34035,378.76036L160.58038,378.76036L160.82041,378.76036L161.06044,378.76036L161.06044,378.52034L161.30047,378.52034
				L161.5405,378.52034L161.5405,378.28031L161.78053,378.28031L161.78053,378.04028L162.02056,378.04028L162.02056,377.80026L162.26059,377.80026
				L162.26059,377.56023L162.50062,377.56023L162.74065,377.56023L162.74065,377.32021L162.98068,377.32021L163.22071,377.32021
				L163.22071,377.08018L163.46074,377.08018L163.70077,377.08018L163.46074,377.08018L163.46074,376.84016L163.22071,376.84016
				L163.22071,376.60013L162.98068,376.60013L162.98068,376.36011L162.74065,376.36011L162.74065,376.12008L162.50062,376.12008
				L162.50062,375.88005L162.26059,375.88005L162.26059,375.64003L162.02056,375.64003L162.02056,375.4L161.78053,375.4L161.78053,375.15998
				L161.5405,375.15998L161.5405,374.91995L161.30047,374.91995L161.30047,374.67993L156.49986,374.67993L156.49986,374.91995L155.53974,374.91995
				L153.13943,374.91995L152.8994,374.91995L152.8994,375.15998L152.41934,375.15998L152.17931,375.15998L152.17931,375.4L151.69925,375.4
				L151.21919,375.4L150.97916,375.4L150.97916,375.64003L150.73913,375.64003L149.77901,375.64003L149.77901,375.88005L149.53898,375.88005
				L149.29895,375.88005L149.05892,375.88005L149.05892,376.12008L148.81889,376.12008L148.57886,376.12008L148.57886,376.36011
				L148.33883,376.36011L148.09879,376.36011L148.09879,376.60013L147.85876,376.60013L147.61873,376.60013L147.3787,376.60013L
				147.3787,376.84016L146.89864,376.84016L146.65861,376.84016L146.65861,377.08018L146.41858,377.08018L146.17855,377.08018L146.17855,377.32021
				L145.93852,377.32021L145.93852,377.56023L145.69849,377.56023L145.45846,377.56023L145.45846,377.80026L145.45846,378.04028
				L145.21843,378.04028L145.21843,378.28031L144.9784,378.28031L144.9784,378.52034L144.73837,378.52034L144.49834,378.52034L144.25831,378.52034
				L144.25831,378.76036L143.77825,378.76036L143.29819,378.76036L143.05815,378.76036L143.05815,379.00039L142.81812,379.00039
				L142.57809,379.00039L142.57809,379.24041L142.33806,379.24041L141.858,379.24041L141.61797,379.24041L141.61797,379.48044L140.65785,379.48044
				L140.41782,379.48044L139.69773,379.48044L139.69773,379.24041L139.4577,379.24041L139.21767,379.24041L139.21767,379.00039L
				139.21767,378.76036L138.97764,378.76036L138.97764,378.52034L138.73761,378.52034L138.73761,378.76036L138.49758,378.76036L
				138.01752,378.76036L137.53745,378.76036L137.53745,379.00039L137.29742,379.00039L136.81736,379.00039L136.81736,378.76036L
				136.57733,378.76036L136.3373,378.76036L136.3373,378.52034L136.09727,378.52034L136.09727,378.76036L135.85724,378.76036L135.37718,378.76036
				L135.13715,378.76036L135.13715,379.00039L134.89712,379.00039L134.41706,379.00039L134.41706,379.24041L134.17703,379.24041
				L133.69697,379.24041L133.45694,379.24041L133.45694,379.48044L133.21691,379.48044L133.21691,379.72046L132.97688,379.72046
				L132.73685,379.72046L132.73685,379.96049L132.49681,379.96049L132.49681,380.20051L132.25678,380.20051L132.25678,380.44054
				L132.01675,380.44054L132.01675,380.68057L131.77672,380.68057L131.77672,380.92059L131.53669,380.92059L131.53669,381.16062
				L131.53669,381.40064L131.77672,381.40064L131.77672,381.64067L131.77672,381.88069L132.01675,381.88069L132.01675,382.12072
				L132.25678,382.12072L132.25678,382.36075L132.49681,382.36075L132.49681,382.60077L132.49681,382.8408L132.25678,382.8408L132.25678,383.08082
				L132.01675,383.08082L132.01675,383.32085L131.77672,383.32085L131.77672,383.56087L131.53669,383.56087L131.53669,383.8009L
				131.29666,383.8009L131.05663,383.8009L131.05663,384.04092L130.8166,384.04092L130.8166,384.28095L130.57657,384.28095L130.57657,383.32085
				L130.33654,383.32085L130.33654,383.08082L130.33654,383.32085L130.09651,383.32085L129.85648,383.32085L129.85648,383.56087
				L129.85648,383.8009L129.61645,383.8009L129.37642,383.8009L129.37642,384.04092L129.13639,384.04092L128.89636,384.04092L128.89636,384.28095
				L128.65633,384.28095L128.65633,384.52098L128.4163,384.52098L128.17627,384.52098L128.17627,384.761L127.93624,384.761L127.93624,385.00103
				L127.69621,385.00103L127.69621,385.24105L127.45618,385.24105L127.45618,385.7211L127.69621,385.7211L127.69621,385.96113L127.93624,385.96113
				L127.93624,386.20115L127.93624,386.44118L128.17627,386.44118L128.17627,386.68121L128.4163,386.68121L128.4163,386.92123L128.65633,386.92123
				L128.65633,387.16126L128.89636,387.16126L128.89636,388.60141L128.89636,388.84144L129.13639,388.84144L129.13639,389.08146
				L129.13639,389.56151L129.37642,389.56151L129.37642,391.24169L129.13639,391.24169L129.13639,391.00167L129.13639,390.76164
				L128.89636,390.76164L128.89636,390.52161L128.89636,390.28159L128.65633,390.28159L128.65633,390.04156L128.4163,390.04156L
				128.4163,389.80154L128.4163,389.56151L128.17627,389.56151L128.17627,389.32149L127.93624,389.32149L127.93624,389.08146L127.45618,389.08146
				L127.21614,389.08146L127.21614,388.84144L126.97611,388.84144L126.73608,388.84144L126.73608,388.60141L126.49605,388.60141
				L126.25602,388.60141L126.25602,388.36138L126.01599,388.36138L125.53593,388.36138L125.53593,388.12136L125.2959,388.12136L
				125.05587,388.12136L124.81584,388.12136L124.81584,387.88133L124.57581,387.88133L124.33578,387.88133L124.33578,387.64131L
				124.09575,387.64131L123.85572,387.64131L123.61569,387.64131L123.61569,387.40128L123.37566,387.40128L123.13563,387.40128L
				123.13563,387.16126L122.8956,387.16126L122.65557,387.16126L122.65557,386.92123L122.41554,386.92123L122.41554,386.68121L122.1755,386.68121
				L121.93547,386.68121L121.93547,386.44118L121.69544,386.44118L121.45541,386.44118L121.45541,386.20115L121.45541,385.96113
				L121.21538,385.96113L120.97535,385.96113L120.73532,385.96113L120.73532,385.7211L120.49529,385.7211L120.25526,385.7211L120.25526,385.48108
				L120.01523,385.48108L119.7752,385.48108L119.7752,385.24105L119.53517,385.24105L119.53517,385.00103L119.29514,385.00103L119.29514,384.761
				L119.29514,384.52098L119.05511,384.52098L118.81508,384.52098L118.81508,384.28095L118.81508,384.04092L118.57505,384.04092
				L118.57505,383.8009L118.33502,383.8009L118.33502,383.56087L118.09499,383.56087L118.09499,383.32085L117.61493,383.32085L117.3749,383.32085
				L117.3749,383.08082L117.13487,383.08082L117.13487,382.8408L116.89483,382.8408L116.6548,382.8408L116.41477,382.8408L116.41477,382.60077
				L116.17474,382.60077L116.17474,382.36075L115.93471,382.36075L115.69468,382.36075L115.69468,382.12072L115.45465,382.12072
				L115.21462,382.12072L115.21462,381.88069L114.97459,381.88069L114.97459,381.64067L114.97459,381.40064L114.73456,381.40064
				L114.73456,381.16062L114.49453,381.16062L114.49453,380.92059L114.2545,380.92059L114.2545,380.68057L114.01447,380.68057L114.01447,380.44054
				L114.01447,380.20051L113.77444,380.20051L113.77444,379.96049L113.53441,379.96049L113.53441,379.72046L113.29438,379.72046
				L113.29438,379.48044L113.29438,379.24041L113.05435,379.24041L113.05435,379.00039L112.81432,379.00039L112.81432,378.76036
				L112.57429,378.76036L112.57429,378.52034L112.33426,378.52034L112.33426,378.28031L112.09423,378.28031L112.09423,378.04028
				L112.09423,377.80026L111.8542,377.80026L111.8542,377.56023L111.61416,377.56023L111.61416,377.32021L111.37413,377.32021L111.37413,377.08018
				L111.37413,376.84016L111.1341,376.84016L111.1341,376.60013L110.89407,376.60013L110.89407,376.36011L110.89407,376.12008L110.65404,376.12008
				L110.41401,376.12008L110.41401,375.88005L110.17398,375.88005L110.17398,375.64003L110.17398,375.4L109.93395,375.4L109.93395,375.15998
				L109.69392,375.15998L109.69392,374.91995L109.45389,374.91995L109.45389,374.67993L109.45389,374.4399L109.21386,374.4399L109.21386,374.19988
				L109.21386,373.95985L108.97383,373.95985L108.7338,373.95985L108.7338,373.71982L108.7338,373.4798L108.49377,373.4798L108.49377,373.23977
				L108.7338,373.23977L108.97383,373.23977L108.97383,372.99975L109.45389,372.99975L109.69392,372.99975L109.69392,372.75972L
				109.93395,372.75972L110.41401,372.75972L110.65404,372.75972L110.65404,372.5197L110.89407,372.5197L111.37413,372.5197L111.37413,372.27967
				L111.61416,372.27967L112.09423,372.27967L112.33426,372.27967L112.33426,372.03965L112.57429,372.03965L113.05435,372.03965
				L113.05435,371.79962L113.53441,371.79962L113.77444,371.79962L114.01447,371.79962L114.01447,371.55959L114.49453,371.55959
				L114.73456,371.55959L114.73456,371.31957L115.21462,371.31957L115.69468,371.31957L115.93471,371.31957L115.93471,371.07954
				L116.17474,371.07954L116.6548,371.07954L116.89483,371.07954L116.89483,370.83952L117.3749,370.83952L117.61493,370.83952L117.61493,370.59949
				L117.85496,370.59949L117.85496,370.35947L118.09499,370.35947L118.09499,370.11944L118.33502,370.11944L118.33502,369.87942
				L118.57505,369.87942L118.57505,369.63939L118.81508,369.63939L118.81508,369.39936L119.05511,369.39936L119.05511,369.15934
				L119.29514,369.15934L119.29514,368.91931L119.53517,368.91931L119.53517,368.67929L119.7752,368.67929L120.01523,368.67929L
				120.25526,368.67929L120.25526,368.43926L120.49529,368.43926L120.73532,368.43926L120.97535,368.43926L120.97535,368.19924L
				121.45541,368.19924L121.45541,367.95921L121.69544,367.95921L121.93547,367.95921L121.93547,367.71918L122.1755,367.71918L122.41554,367.71918
				L122.41554,367.47916L122.65557,367.47916L122.8956,367.47916L123.13563,367.47916L123.13563,367.23913L123.37566,367.23913L
				123.61569,367.23913L123.61569,366.99911L123.85572,366.99911L124.09575,366.99911L124.09575,366.75908L124.09575,366.51906L
				124.33578,366.51906L124.33578,366.27903L124.57581,366.27903L124.57581,366.03901L124.57581,365.79898L124.81584,365.79898L
				124.81584,365.55895L124.81584,365.31893L125.05587,365.31893L125.05587,365.0789L125.2959,365.0789L125.2959,364.83888L125.53593,364.83888
				L125.53593,364.59885L125.53593,364.35883L125.77596,364.35883L125.77596,364.1188L125.77596,363.87878L126.01599,363.87878L
				126.49605,363.87878L127.93624,363.87878L127.93624,363.63875L129.13639,363.63875L130.09651,363.63875L130.09651,363.39872L
				130.57657,363.39872L131.05663,363.39872L131.53669,363.39872L131.53669,363.1587L131.77672,363.1587L132.25678,363.1587L132.49681,363.1587
				L132.49681,362.91867L132.97688,362.91867L133.21691,362.91867L133.21691,362.67865L133.69697,362.67865L134.17703,362.67865
				L134.41706,362.67865L134.41706,362.43862L134.89712,362.43862L135.13715,362.43862L135.13715,362.1986L135.61721,362.1986L136.09727,362.1986
				L136.3373,362.1986L136.3373,361.95857L136.81736,361.95857L137.29742,361.95857L137.29742,361.71855L137.77748,361.71855L138.25755,361.71855
				L138.97764,361.71855L138.97764,361.47852L139.69773,361.47852L140.17779,361.47852L140.17779,361.23849L140.41782,361.23849
				L140.65785,361.23849L141.13791,361.23849L141.13791,360.99847L141.61797,360.99847L141.858,360.99847L141.858,360.75844L142.09803,360.75844
				L142.57809,360.75844L142.81812,360.75844L142.81812,360.51842L143.29819,360.51842L143.53822,360.51842L144.01828,360.51842
				L144.01828,360.27839L144.25831,360.27839L144.73837,360.27839L144.73837,360.03837L144.9784,360.03837L145.45846,360.03837L
				145.69849,360.03837L145.69849,359.79834L145.93852,359.79834L146.41858,359.79834L146.41858,359.55832L146.65861,359.55832L
				147.13867,359.55832L147.3787,359.55832L147.3787,359.31829L147.85876,359.31829L148.09879,359.31829L148.09879,359.07826L148.57886,359.07826
				L148.81889,359.07826L149.05892,359.07826L149.05892,358.83824L149.53898,358.83824L150.01904,358.83824L150.01904,358.59821
				L150.25907,358.59821L150.4991,358.59821L150.97916,358.59821L150.97916,358.35819L151.21919,358.35819L151.69925,358.35819L
				151.69925,358.11816L151.93928,358.11816L152.41934,358.11816L152.65937,358.11816L152.65937,357.87814L153.13943,357.87814L
				153.37946,357.87814L153.85953,357.87814L153.85953,357.63811L154.09956,357.63811L154.33959,357.63811L154.33959,357.39809L
				154.81965,357.39809L155.29971,357.39809L155.53974,357.39809L155.53974,357.15806L155.77977,357.15806L156.25983,357.15806L
				156.25983,356.91803L156.49986,356.91803L156.97992,356.91803L157.21995,356.91803L157.21995,356.67801L157.70001,356.67801L
				158.4201,356.67801L158.4201,356.43798L159.38023,356.43798L160.58038,356.43798L161.5405,356.43798L161.5405,356.19796L162.50062,356.19796
				L163.70077,356.19796L163.94081,356.19796L163.94081,356.43798L164.42087,356.43798L164.42087,356.67801L164.90093,356.67801
				L164.90093,356.91803L165.38099,356.91803L165.62102,356.91803L165.86105,356.91803L165.86105,357.15806L166.10108,357.15806
				L166.34111,357.15806L166.34111,357.39809L166.58114,357.39809L167.0612,357.39809L167.0612,357.63811L167.54126,357.63811L167.54126,357.87814
				L168.02132,357.87814L168.26135,357.87814L168.26135,358.11816L168.50138,358.11816L168.74141,358.11816L168.98144,358.11816
				L168.98144,358.35819L169.22148,358.35819L169.22148,358.59821L169.70154,358.59821L170.1816,358.59821L170.1816,358.83824L170.42163,358.83824
				L170.66166,358.83824L170.66166,359.07826L170.90169,359.07826L171.14172,359.07826L171.38175,359.07826L171.38175,359.31829
				L171.86181,359.31829L171.86181,359.55832L172.34187,359.55832L172.34187,359.79834L172.5819,359.79834L172.82193,359.79834L
				172.82193,360.03837L173.06196,360.03837L173.30199,360.03837L173.54202,360.03837L173.54202,360.27839L173.78205,360.27839L
				174.02208,360.27839L174.02208,360.51842L174.26211,360.51842L174.50215,360.51842L174.50215,360.75844L174.74218,360.75844L
				174.98221,360.75844L175.22224,360.75844L175.22224,360.99847L175.46227,360.99847L175.7023,360.99847L175.7023,361.23849L175.94233,361.23849
				L176.18236,361.23849L176.42239,361.23849L176.42239,361.47852L176.66242,361.47852L176.66242,361.71855L176.90245,361.71855
				L177.14248,361.71855L177.38251,361.71855L177.38251,361.95857L177.62254,361.95857L177.86257,361.95857L177.86257,362.1986L
				178.1026,362.1986L178.34263,362.1986L178.34263,362.43862L178.58266,362.43862L178.82269,362.43862L178.82269,362.67865L179.06272,362.67865
				L179.30275,362.67865L179.54278,362.67865L179.54278,362.91867L179.78282,362.91867L179.78282,363.1587L180.26288,363.1587"/>
			<path clip-path="url(#SVG_CP_2)" fill="none" stroke="#999999" stroke-width="0.96012" stroke-miterlimit="10" stroke-linecap="round" stroke-linejoin="round" d="
				M182.66318,396.28223L182.66318,396.0422L182.90321,396.0422L182.90321,395.80218L183.14324,395.80218L183.14324,395.56215L183.38327,395.56215
				L183.6233,395.56215L183.6233,395.32213L183.86333,395.32213L183.86333,395.0821L184.10336,395.0821L184.34339,395.0821L184.34339,394.84208
				L184.58342,394.84208L184.58342,394.60205L184.82346,394.60205L185.06349,394.60205L185.06349,394.36202L185.30352,394.36202
				L185.54355,394.36202L185.54355,394.122L185.78358,394.122L186.02361,394.122L186.02361,393.88197L186.26364,393.88197L186.50367,393.88197
				L186.50367,394.122L186.7437,394.122L186.7437,394.36202L186.7437,394.60205L186.7437,394.36202L186.50367,394.36202L186.26364,394.36202
				L186.02361,394.36202L185.78358,394.36202L185.78358,394.60205L185.54355,394.60205L185.30352,394.60205L185.30352,394.84208
				L185.06349,394.84208L185.06349,395.0821L184.82346,395.0821L184.58342,395.0821L184.34339,395.0821L184.34339,395.32213L184.10336,395.32213
				L184.10336,395.56215L183.86333,395.56215L183.6233,395.56215L183.6233,395.80218L183.38327,395.80218L183.38327,396.0422L183.14324,396.0422
				L182.90321,396.0422L182.90321,396.28223L182.66318,396.28223"/>
			<path clip-path="url(#SVG_CP_2)" fill="none" stroke="#999999" stroke-width="0.96012" stroke-miterlimit="10" stroke-linecap="round" stroke-linejoin="round" d="
				M182.66318,396.28223L182.66318,396.28223"/>
			<path clip-path="url(#SVG_CP_2)" fill="none" stroke="#999999" stroke-width="0.96012" stroke-miterlimit="10" stroke-linecap="round" stroke-linejoin="round" d="
				M182.18312,396.52225L182.42315,396.52225L182.42315,396.28223L182.66318,396.28223L182.66318,396.52225L182.42315,396.52225
				L182.18312,396.52225"/>
			<path clip-path="url(#SVG_CP_2)" fill="none" stroke="#999999" stroke-width="0.96012" stroke-miterlimit="10" stroke-linecap="round" stroke-linejoin="round" d="
				M182.18312,396.76228L182.18312,396.52225L182.18312,396.76228L182.18312,396.76228"/>
			<path clip-path="url(#SVG_CP_2)" fill="none" stroke="#999999" stroke-width="0.96012" stroke-miterlimit="10" stroke-linecap="round" stroke-linejoin="round" d="
				M181.94309,396.76228L182.18312,396.76228L181.94309,396.76228"/>
			<path clip-path="url(#SVG_CP_2)" fill="none" stroke="#999999" stroke-width="0.96012" stroke-miterlimit="10" stroke-linecap="round" stroke-linejoin="round" d="
				M181.94309,397.00231L181.94309,396.76228L181.94309,397.00231L181.94309,397.00231"/>
			<path clip-path="url(#SVG_CP_2)" fill="none" stroke="#999999" stroke-width="0.96012" stroke-miterlimit="10" stroke-linecap="round" stroke-linejoin="round" d="
				M181.94309,397.00231L181.94309,397.00231"/>
			<path clip-path="url(#SVG_CP_2)" fill="none" stroke="#999999" stroke-width="0.96012" stroke-miterlimit="10" stroke-linecap="round" stroke-linejoin="round" d="
				M181.70306,397.00231L181.70306,397.00231"/>
		</g>
</g></svg>