<?xml version="1.0" encoding="utf-8" standalone="no"?>
<!-- Creator: ESRI ArcMap 10.0.0.2414 -->
<!DOCTYPE svg PUBLIC "-//W3C//DTD SVG 1.1//EN"  "http://www.w3.org/Graphics/SVG/1.1/DTD/svg11.dtd">
<svg width="524.0420768pt" height="705.776598407pt" viewBox="32.15712744 68.2408357965 524.0420768 705.776598407" enable-background="new 32.15712744 68.2408357965 524.0420768 705.776598407"
	version="1.1" xmlns="http://www.w3.org/2000/svg" xmlns:xlink="http://www.w3.org/1999/xlink" >
	<g id="Couches">
		<g id="cont_2">
			<path clip-path="url(#SVG_CP_2)" fill="none" stroke="#999999" stroke-width="0.96012" stroke-miterlimit="10" stroke-linecap="round" stroke-linejoin="round" d="
				M541.74875,736.87852L541.98878,736.87852L541.98878,736.39847L542.22881,736.39847L542.22881,732.07801L541.98878,732.07801
				L541.98878,731.83799L541.74875,731.83799L541.74875,731.59796L541.26869,731.59796L541.26869,731.35793L541.02866,731.35793
				L541.02866,731.11791L540.78863,731.11791L540.78863,730.87788L540.5486,730.87788L540.5486,730.63786L540.30857,730.63786L540.30857,728.2376
				L540.06854,728.2376L540.06854,727.99758L539.82851,727.99758L539.82851,727.75755L539.58848,727.75755L539.58848,727.51753L
				539.34845,727.51753L539.34845,727.2775L539.10841,727.2775L539.10841,727.03747L538.62835,727.03747L538.62835,726.55742L538.38832,726.55742
				L538.38832,726.3174L538.14829,726.3174L538.14829,726.07737L537.90826,726.07737L537.90826,725.83735L538.14829,725.83735L538.14829,725.59732
				L537.90826,725.59732L537.90826,725.11727L537.66823,725.11727L537.66823,724.39719L537.4282,724.39719L537.4282,723.67712L537.18817,723.67712
				L537.18817,723.19706L536.94814,723.19706L536.94814,722.47699L536.70811,722.47699L536.70811,721.99694L536.46808,721.99694
				L536.46808,721.27686L535.98802,721.27686L535.98802,720.79681L535.74799,720.79681L535.74799,720.07673L535.50796,720.07673
				L535.50796,719.59668L535.26793,719.59668L535.26793,719.11663L535.0279,719.11663L535.0279,718.15653L534.78787,718.15653L534.78787,717.67648
				L534.54784,717.67648L534.54784,717.19643L534.30781,717.19643L534.30781,716.71637L534.06778,716.71637L534.06778,716.23632
				L533.82774,716.23632L533.82774,715.51625L533.58771,715.51625L533.58771,714.79617L533.10765,714.79617L533.10765,714.31612
				L532.86762,714.31612L532.86762,713.83607L532.62759,713.83607L532.62759,713.11599L532.38756,713.11599L532.38756,712.63594
				L532.14753,712.63594L532.14753,712.15589L531.9075,712.15589L531.9075,711.67584L531.66747,711.67584L531.66747,710.95576L531.42744,710.95576
				L531.42744,710.23568L531.18741,710.23568L531.18741,709.75563L530.94738,709.75563L530.94738,709.27558L530.46732,709.27558
				L530.46732,708.79553L530.22729,708.79553L530.22729,708.31548L529.98726,708.31548L529.98726,707.35538L529.74723,707.35538
				L529.74723,706.87533L529.5072,706.87533L529.5072,706.39527L529.26717,706.39527L529.26717,705.91522L529.02714,705.91522L529.02714,705.43517
				L528.78711,705.43517L528.78711,704.7151L528.54707,704.7151L528.54707,704.23504L528.30704,704.23504L528.30704,703.51497L527.82698,703.51497
				L527.82698,703.03492L527.58695,703.03492L527.58695,702.31484L527.34692,702.31484L527.34692,701.83479L527.10689,701.83479
				L527.10689,701.35474L526.86686,701.35474L526.86686,700.87469L526.62683,700.87469L526.62683,700.39464L526.3868,700.39464L
				526.3868,699.43453L526.14677,699.43453L526.14677,698.95448L525.90674,698.95448L525.90674,698.47443L525.66671,698.47443L525.66671,697.99438
				L525.42668,697.99438L525.42668,697.51433L524.94662,697.51433L524.94662,696.79425L524.70659,696.79425L524.70659,696.07417
				L524.46656,696.07417L524.46656,695.59412L524.22653,695.59412L524.22653,695.11407L523.9865,695.11407L523.9865,694.63402L523.74647,694.63402
				L523.74647,693.91394L523.50643,693.91394L523.50643,693.43389L523.2664,693.43389L523.2664,692.71382L523.02637,692.71382L523.02637,692.23377
				L522.78634,692.23377L522.78634,691.75371L522.30628,691.75371L522.30628,691.03364L522.06625,691.03364L522.06625,690.55359
				L521.82622,690.55359L521.82622,689.83351L521.58619,689.83351L521.58619,689.35346L521.34616,689.35346L521.34616,688.63338
				L521.10613,688.63338L521.10613,688.15333L520.8661,688.15333L520.8661,687.67328L520.62607,687.67328L520.62607,686.9532L520.38604,686.9532
				L520.38604,686.47315L520.14601,686.47315L520.14601,685.75307L519.66595,685.75307L519.66595,685.27302L519.42592,685.27302
				L519.42592,684.79297L519.18589,684.79297L519.18589,684.0729L518.94586,684.0729L518.94586,683.35282L518.70583,683.35282L518.70583,682.87277
				L518.4658,682.87277L518.4658,682.39272L518.22576,682.39272L518.22576,681.91267L517.98573,681.91267L517.98573,681.19259L517.7457,681.19259
				L517.7457,680.47251L517.50567,680.47251L517.50567,679.99246L517.02561,679.99246L517.02561,679.51241L516.78558,679.51241L
				516.78558,679.03236L516.54555,679.03236L516.54555,678.55231L516.30552,678.55231L516.30552,677.59221L516.06549,677.59221L
				516.06549,677.11215L515.82546,677.11215L515.82546,676.6321L515.58543,676.6321L515.58543,676.15205L515.3454,676.15205L515.3454,675.672
				L515.10537,675.672L515.10537,674.7119L514.86534,674.7119L514.86534,674.23185L514.62531,674.23185L514.62531,673.7518L514.14525,673.7518
				L514.14525,673.27174L513.90522,673.27174L513.90522,672.79169L513.66519,672.79169L513.66519,671.83159L513.42516,671.83159
				L513.42516,671.35154L513.18513,671.35154L513.18513,670.87149L512.94509,670.87149L512.94509,670.39144L512.70506,670.39144
				L512.70506,669.67136L512.46503,669.67136L512.46503,668.95128L512.225,668.95128L512.225,668.47123L511.98497,668.47123L511.98497,667.99118
				L511.50491,667.99118L511.50491,667.51113L511.26488,667.51113L511.26488,666.79105L511.02485,666.79105L511.02485,666.07098
				L510.78482,666.07098L510.78482,665.59093L510.54479,665.59093L510.54479,665.11088L510.30476,665.11088L510.30476,664.3908L
				510.06473,664.3908L510.06473,663.91075L509.8247,663.91075L509.8247,663.4307L509.58467,663.4307L509.58467,662.95065L509.34464,662.95065
				L509.34464,662.47059L508.86458,662.47059L508.86458,661.51049L508.62455,661.51049L508.62455,661.03044L508.38452,661.03044
				L508.38452,660.55039L508.14449,660.55039L508.14449,660.07034L507.90446,660.07034L507.90446,659.59029L507.66442,659.59029
				L507.66442,658.87021L507.42439,658.87021L507.42439,658.39016L507.18436,658.39016L507.18436,657.91011L506.94433,657.91011
				L506.94433,657.19003L506.7043,657.19003L506.7043,656.70998L506.46427,656.70998L506.46427,655.9899L505.98421,655.9899L505.98421,655.50985
				L505.74418,655.50985L505.74418,655.0298L505.50415,655.0298L505.50415,654.54975L505.26412,654.54975L505.26412,654.0697L505.02409,654.0697
				L505.02409,653.34962L504.78406,653.34962L504.78406,652.86957L504.54403,652.86957L504.54403,652.14949L504.304,652.14949L504.304,651.66944
				L504.06397,651.66944L504.06397,651.18939L503.82394,651.18939L503.82394,650.46932L503.34388,650.46932L503.34388,649.98926
				L503.10385,649.98926L503.10385,649.50921L502.86382,649.50921L502.86382,649.02916L502.62378,649.02916L502.62378,648.54911
				L502.38375,648.54911L502.38375,647.58901L502.14372,647.58901L502.14372,647.10896L501.90369,647.10896L501.90369,646.62891
				L501.66366,646.62891L501.66366,646.14885L501.42363,646.14885L501.42363,645.42878L501.1836,645.42878L501.1836,644.94873L500.70354,644.94873
				L500.70354,644.46868L500.46351,644.46868L500.46351,643.98862L500.22348,643.98862L500.22348,643.50857L499.98345,643.50857
				L499.98345,642.54847L499.74342,642.54847L499.74342,642.06842L499.50339,642.06842L499.50339,641.58837L499.26336,641.58837
				L499.26336,641.10832L499.02333,641.10832L499.02333,640.62827L498.7833,640.62827L498.7833,639.90819L498.54327,639.90819L498.54327,639.42814
				L498.06321,639.42814L498.06321,638.94809L497.82318,638.94809L497.82318,638.22801L497.58315,638.22801L497.58315,637.74796
				L497.34311,637.74796L497.34311,637.02788L497.10308,637.02788L497.10308,636.54783L496.86305,636.54783L496.86305,636.06778
				L496.62302,636.06778L496.62302,635.58773L496.38299,635.58773L496.38299,635.10768L496.14296,635.10768L496.14296,634.3876L
				495.90293,634.3876L495.90293,633.90755L495.6629,633.90755L495.6629,633.4275L495.18284,633.4275L495.18284,632.94745L494.94281,632.94745
				L494.94281,632.4674L494.70278,632.4674L494.70278,632.22737L494.46275,632.22737L494.46275,631.50729L494.22272,631.50729L494.22272,631.02724
				L493.98269,631.02724L493.98269,630.54719L493.74266,630.54719L493.74266,630.06714L493.50263,630.06714L493.50263,629.58709
				L493.2626,629.58709L493.2626,628.86701L493.02257,628.86701L493.02257,628.38696L492.54251,628.38696L492.54251,628.14694L492.30248,628.14694
				L492.30248,627.66689L492.06244,627.66689L492.06244,627.18683L491.82241,627.18683L491.82241,626.46676L491.58238,626.46676
				L491.58238,625.98671L491.34235,625.98671L491.34235,625.50666L491.10232,625.50666L491.10232,625.0266L490.86229,625.0266L490.86229,624.78658
				L490.62226,624.78658L490.62226,624.54655L491.58238,624.54655L491.58238,624.78658L492.06244,624.78658L492.06244,625.0266L
				492.54251,625.0266L492.54251,625.26663L493.74266,625.26663L493.74266,625.50666L494.22272,625.50666L494.22272,625.74668L494.70278,625.74668
				L494.70278,625.98671L494.94281,625.98671L494.94281,626.22673L495.6629,626.22673L495.6629,626.46676L496.14296,626.46676L496.14296,626.94681
				L496.38299,626.94681L496.38299,627.18683L496.62302,627.18683L496.62302,627.42686L497.10308,627.42686L497.10308,627.66689
				L497.34311,627.66689L497.34311,627.90691L497.58315,627.90691L497.58315,628.14694L497.82318,628.14694L497.82318,628.38696
				L498.06321,628.38696L498.06321,628.62699L498.54327,628.62699L498.54327,628.86701L498.7833,628.86701L498.7833,629.10704L499.02333,629.10704
				L499.02333,629.58709L499.26336,629.58709L499.26336,629.82712L499.50339,629.82712L499.50339,630.06714L499.74342,630.06714
				L499.74342,630.30717L500.22348,630.30717L500.22348,630.54719L500.46351,630.54719L500.46351,630.78722L500.70354,630.78722
				L500.70354,631.02724L501.1836,631.02724L501.1836,631.26727L501.42363,631.26727L501.42363,631.50729L501.66366,631.50729L501.66366,631.74732
				L501.90369,631.74732L501.90369,632.22737L502.14372,632.22737L502.14372,632.4674L502.38375,632.4674L502.38375,632.70742L502.62378,632.70742
				L502.62378,632.94745L502.86382,632.94745L502.86382,633.18747L503.10385,633.18747L503.10385,633.4275L503.34388,633.4275L503.34388,633.66752
				L504.06397,633.66752L504.06397,633.90755L504.304,633.90755L504.304,634.14758L504.54403,634.14758L504.54403,634.3876L504.78406,634.3876
				L504.78406,634.86765L505.02409,634.86765L505.02409,635.10768L505.26412,635.10768L505.26412,635.3477L505.50415,635.3477L505.50415,635.58773
				L505.74418,635.58773L505.74418,635.82775L505.98421,635.82775L505.98421,636.06778L506.46427,636.06778L506.46427,636.30781
				L506.7043,636.30781L506.7043,636.54783L507.18436,636.54783L507.18436,636.78786L507.42439,636.78786L507.42439,637.02788L507.66442,637.02788
				L507.66442,637.26791L507.90446,637.26791L507.90446,637.74796L508.14449,637.74796L508.14449,637.98799L508.38452,637.98799
				L508.38452,638.46804L508.62455,638.46804L508.62455,638.70806L508.86458,638.70806L508.86458,638.94809L509.34464,638.94809
				L509.34464,639.18811L509.58467,639.18811L509.58467,639.42814L509.8247,639.42814L509.8247,639.66816L510.06473,639.66816L510.06473,639.90819
				L510.30476,639.90819L510.30476,640.38824L510.54479,640.38824L510.54479,640.62827L510.78482,640.62827L510.78482,640.86829
				L511.02485,640.86829L511.02485,641.10832L511.26488,641.10832L511.26488,641.34834L511.50491,641.34834L511.50491,641.58837
				L511.98497,641.58837L511.98497,641.82839L512.46503,641.82839L512.46503,642.06842L512.94509,642.06842L512.94509,642.30845
				L513.42516,642.30845L513.42516,642.54847L513.90522,642.54847L513.90522,643.02852L514.14525,643.02852L514.14525,643.50857
				L514.62531,643.50857L514.62531,643.98862L514.86534,643.98862L514.86534,644.46868L515.10537,644.46868L515.10537,644.94873
				L515.3454,644.94873L515.3454,645.18875L515.58543,645.18875L515.58543,645.90883L515.82546,645.90883L515.82546,646.38888L516.06549,646.38888
				L516.06549,646.62891L516.30552,646.62891L516.30552,647.10896L516.54555,647.10896L516.54555,647.58901L516.78558,647.58901
				L516.78558,647.82903L517.02561,647.82903L517.02561,648.54911L517.50567,648.54911L517.50567,648.78914L517.7457,648.78914L
				517.7457,649.26919L517.98573,649.26919L517.98573,649.50921L518.22576,649.50921L518.22576,649.98926L518.4658,649.98926L518.4658,650.46932
				L518.70583,650.46932L518.70583,650.70934L518.94586,650.70934L518.94586,651.42942L519.18589,651.42942L519.18589,651.66944
				L519.42592,651.66944L519.42592,652.14949L519.66595,652.14949L519.66595,652.38952L520.14601,652.38952L520.14601,652.86957
				L520.38604,652.86957L520.38604,653.1096L520.62607,653.1096L520.62607,653.82967L520.8661,653.82967L520.8661,654.0697L521.10613,654.0697
				L521.10613,654.54975L521.34616,654.54975L521.34616,654.78978L521.58619,654.78978L521.58619,655.0298L521.82622,655.0298L521.82622,655.50985
				L522.30628,655.50985L522.30628,655.74988L522.78634,655.74988L522.78634,656.22993L523.02637,656.22993L523.02637,656.95001
				L523.2664,656.95001L523.2664,657.43006L523.50643,657.43006L523.50643,657.91011L523.74647,657.91011L523.74647,658.39016L523.9865,658.39016
				L523.9865,658.87021L524.22653,658.87021L524.22653,659.59029L524.46656,659.59029L524.46656,660.07034L524.70659,660.07034L
				524.70659,661.03044L524.94662,661.03044L524.94662,661.27047L525.42668,661.27047L525.42668,661.99054L525.66671,661.99054L
				525.66671,662.47059L525.90674,662.47059L525.90674,662.95065L526.14677,662.95065L526.14677,663.67072L526.3868,663.67072L526.3868,664.15077
				L526.62683,664.15077L526.62683,665.11088L526.86686,665.11088L526.86686,665.59093L527.10689,665.59093L527.10689,666.07098
				L527.34692,666.07098L527.34692,666.79105L527.58695,666.79105L527.58695,667.03108L527.82698,667.03108L527.82698,667.75116
				L528.30704,667.75116L528.30704,668.23121L528.54707,668.23121L528.54707,668.71126L528.78711,668.71126L528.78711,669.19131
				L529.02714,669.19131L529.02714,669.67136L529.26717,669.67136L529.26717,670.39144L529.5072,670.39144L529.5072,670.87149L529.74723,670.87149
				L529.74723,671.35154L529.98726,671.35154L529.98726,671.83159L530.22729,671.83159L530.22729,672.31164L530.46732,672.31164
				L530.46732,673.27174L530.94738,673.27174L530.94738,673.7518L531.18741,673.7518L531.18741,674.47187L531.42744,674.47187L531.42744,674.7119
				L531.66747,674.7119L531.66747,675.19195L531.9075,675.19195L531.9075,675.91203L532.14753,675.91203L532.14753,676.15205L532.86762,676.15205
				L532.86762,676.39208L533.58771,676.39208L533.58771,676.6321L534.06778,676.6321L534.06778,677.11215L534.30781,677.11215L534.30781,677.83223
				L534.54784,677.83223L534.54784,678.31228L534.30781,678.31228L534.30781,678.79233L534.54784,678.79233L534.54784,679.27238
				L535.0279,679.27238L535.0279,679.51241L535.26793,679.51241L535.26793,679.75244L536.46808,679.75244L536.46808,679.99246L536.70811,679.99246
				L536.70811,679.75244L537.4282,679.75244L537.4282,679.99246L537.66823,679.99246L537.66823,680.23249L537.90826,680.23249L537.90826,680.47251
				L538.14829,680.47251L538.14829,680.95256L538.38832,680.95256L538.38832,681.43261L538.62835,681.43261L538.62835,681.67264
				L539.10841,681.67264L539.10841,682.15269L539.34845,682.15269L539.34845,682.39272L539.58848,682.39272L539.58848,682.63274
				L539.82851,682.63274L539.82851,683.11279L540.06854,683.11279L540.06854,683.83287L540.30857,683.83287L540.30857,684.31292
				L540.5486,684.31292L540.5486,685.033L540.78863,685.033L540.78863,685.51305L541.02866,685.51305L541.02866,685.9931L541.26869,685.9931
				L541.26869,686.71318L541.74875,686.71318L541.74875,687.43325L541.98878,687.43325L541.98878,687.91331L542.22881,687.91331
				L542.22881,688.63338L542.46884,688.63338L542.46884,689.35346L542.70887,689.35346L542.70887,689.83351L542.9489,689.83351L
				542.9489,690.79361L543.18893,690.79361L543.18893,691.27366L543.42896,691.27366L543.42896,691.99374L543.66899,691.99374L543.66899,692.71382
				L543.90902,692.71382L543.90902,693.43389L544.38909,693.43389L544.38909,694.15397L544.62912,694.15397L544.62912,694.87405
				L544.86915,694.87405L544.86915,695.59412L545.10918,695.59412L545.10918,696.07417L545.34921,696.07417L545.34921,696.55423
				L545.58924,696.55423L545.58924,696.79425L545.82927,696.79425L545.82927,697.2743L546.0693,697.2743L546.0693,697.51433L546.30933,697.51433
				L546.30933,697.75435L546.54936,697.75435L546.54936,697.99438L546.78939,697.99438L546.78939,698.2344L547.26945,698.2344L547.26945,698.47443
				L547.50948,698.47443L547.50948,698.71446L547.74951,698.71446L547.74951,698.95448L547.98954,698.95448L547.98954,699.19451
				L548.22957,699.19451L548.22957,699.43453L548.4696,699.43453L548.4696,699.91458L548.70963,699.91458L548.70963,700.39464L548.94966,700.39464
				L548.94966,700.63466L549.18969,700.63466L549.18969,754.16036L548.94966,754.16036L548.94966,753.68031L548.70963,753.68031
				L548.70963,753.44029L548.4696,753.44029L548.4696,753.20026L548.22957,753.20026L548.22957,752.96024L547.98954,752.96024L547.98954,752.72021
				L547.74951,752.72021L547.74951,752.48019L547.50948,752.48019L547.50948,752.24016L547.26945,752.24016L547.26945,752.00013
				L546.78939,752.00013L546.78939,751.52008L546.54936,751.52008L546.54936,750.80001L546.30933,750.80001L546.30933,750.31996
				L546.0693,750.31996L546.0693,749.8399L545.82927,749.8399L545.82927,749.35985L545.58924,749.35985L545.58924,748.8798L545.34921,748.8798
				L545.34921,748.15973L545.10918,748.15973L545.10918,747.67967L544.86915,747.67967L544.86915,747.19962L544.62912,747.19962
				L544.62912,746.71957L544.38909,746.71957L544.38909,746.23952L543.90902,746.23952L543.90902,745.51944L543.66899,745.51944
				L543.66899,745.03939L543.42896,745.03939L543.42896,744.79937L543.66899,744.79937L543.66899,744.55934L543.90902,744.55934
				L543.90902,744.31932L544.38909,744.31932L544.38909,744.07929L544.86915,744.07929L544.86915,743.83926L545.10918,743.83926
				L545.10918,743.59924L544.86915,743.59924L544.86915,742.87916L544.62912,742.87916L544.62912,742.63914L544.38909,742.63914
				L544.38909,742.15909L543.90902,742.15909L543.90902,741.67903L543.66899,741.67903L543.66899,741.43901L543.42896,741.43901
				L543.42896,740.95896L543.18893,740.95896L543.18893,740.71893L542.9489,740.71893L542.9489,739.99886L542.70887,739.99886L542.70887,739.75883
				L542.46884,739.75883L542.46884,739.27878L542.22881,739.27878L542.22881,739.03875L541.98878,739.03875L541.98878,738.5587L
				541.74875,738.5587L541.74875,738.31868L541.26869,738.31868L541.26869,737.83863L541.74875,737.83863L541.74875,736.87852"/>
			<path clip-path="url(#SVG_CP_2)" fill="none" stroke="#999999" stroke-width="0.96012" stroke-miterlimit="10" stroke-linecap="round" stroke-linejoin="round" d="
				M537.90826,726.07737L537.90826,726.3174L538.14829,726.3174L538.14829,726.55742L538.38832,726.55742L538.38832,727.2775L538.62835,727.2775
				L538.62835,727.75755L539.10841,727.75755L539.10841,728.47763L539.34845,728.47763L539.34845,728.95768L539.58848,728.95768
				L539.58848,729.67776L539.82851,729.67776L539.82851,730.15781L540.06854,730.15781L540.06854,730.63786L540.30857,730.63786
				L540.30857,731.11791L540.5486,731.11791L540.5486,731.35793L540.78863,731.35793L540.78863,731.59796L541.02866,731.59796L541.02866,731.83799
				L541.26869,731.83799L541.26869,732.07801L541.74875,732.07801L541.74875,732.55806L541.98878,732.55806L541.98878,736.39847
				L541.74875,736.39847L541.74875,736.87852L541.26869,736.87852L541.26869,737.11855L541.02866,737.11855L541.02866,738.07865
				L540.06854,738.07865L540.06854,738.31868L539.34845,738.31868L539.34845,738.5587L538.14829,738.5587L538.14829,738.79873L537.4282,738.79873
				L537.4282,739.03875L536.46808,739.03875L536.46808,739.27878L535.50796,739.27878L535.50796,739.5188L534.54784,739.5188L534.54784,739.75883
				L533.82774,739.75883L533.82774,739.99886L532.62759,739.99886L532.62759,740.23888L531.9075,740.23888L531.9075,740.71893L530.94738,740.71893
				L530.94738,740.95896L529.98726,740.95896L529.98726,741.19898L529.02714,741.19898L529.02714,741.43901L528.30704,741.43901
				L528.30704,741.67903L527.58695,741.67903L527.58695,741.91906L527.34692,741.91906L527.34692,742.15909L526.86686,742.15909
				L526.86686,746.47955L527.10689,746.47955L527.10689,747.19962L527.34692,747.19962L527.34692,747.9197L527.58695,747.9197L527.58695,748.8798
				L527.82698,748.8798L527.82698,749.35985L528.30704,749.35985L528.30704,750.07993L528.78711,750.07993L528.78711,749.8399L529.26717,749.8399
				L529.26717,749.59988L529.98726,749.59988L529.98726,749.35985L530.46732,749.35985L530.46732,749.11983L531.18741,749.11983
				L531.18741,748.8798L531.9075,748.8798L531.9075,748.63978L532.38756,748.63978L532.38756,748.15973L532.86762,748.15973L532.86762,747.9197
				L533.82774,747.9197L533.82774,747.67967L534.30781,747.67967L534.30781,747.43965L534.78787,747.43965L534.78787,747.19962L
				535.50796,747.19962L535.50796,746.9596L535.98802,746.9596L535.98802,746.71957L536.70811,746.71957L536.70811,746.47955L537.4282,746.47955
				L537.4282,746.71957L537.66823,746.71957L537.66823,746.9596L537.90826,746.9596L537.90826,747.43965L538.14829,747.43965L538.14829,747.67967
				L538.38832,747.67967L538.38832,748.15973L538.62835,748.15973L538.62835,748.63978L539.10841,748.63978L539.10841,748.8798L
				539.34845,748.8798L539.34845,749.35985L539.58848,749.35985L539.58848,749.59988L539.82851,749.59988L539.82851,750.07993L540.06854,750.07993
				L540.06854,750.31996L540.30857,750.31996L540.30857,750.80001L540.5486,750.80001L540.5486,751.04003L540.78863,751.04003L540.78863,751.52008
				L541.02866,751.52008L541.02866,752.00013L541.74875,752.00013L541.74875,752.24016L541.98878,752.24016L541.98878,752.48019
				L542.22881,752.48019L542.22881,752.72021L542.70887,752.72021L542.70887,752.96024L542.9489,752.96024L542.9489,753.20026L543.18893,753.20026
				L543.18893,753.44029L543.42896,753.44029L543.42896,753.68031L543.90902,753.68031L543.90902,754.16036L544.38909,754.16036
				L544.38909,754.40039L544.62912,754.40039L544.62912,754.64042L545.10918,754.64042L545.10918,754.88044L545.34921,754.88044
				L545.34921,755.12047L545.58924,755.12047L545.58924,755.36049L545.82927,755.36049L545.82927,755.12047L546.78939,755.12047
				L546.78939,754.88044L547.74951,754.88044L547.74951,754.64042L548.4696,754.64042L548.4696,754.40039L549.18969,754.40039L549.18969,758.2408
				L489.90217,758.2408L489.90217,758.00077L489.42211,758.00077L489.42211,757.76075L488.94205,757.76075L488.94205,757.52072L
				488.70202,757.52072L488.70202,757.2807L488.46199,757.2807L488.46199,757.04067L488.22196,757.04067L488.22196,756.80065L487.98193,756.80065
				L487.98193,756.32059L487.7419,756.32059L487.7419,756.08057L487.50187,756.08057L487.50187,755.84054L487.0218,755.84054L487.0218,755.36049
				L486.78177,755.36049L486.78177,755.12047L486.54174,755.12047L486.54174,754.88044L486.30171,754.88044L486.30171,754.64042
				L486.06168,754.64042L486.06168,754.16036L485.82165,754.16036L485.82165,753.68031L485.58162,753.68031L485.58162,753.44029
				L485.34159,753.44029L485.34159,753.20026L485.10156,753.20026L485.10156,752.96024L484.86153,752.96024L484.86153,752.72021
				L484.14144,752.72021L484.14144,752.48019L483.90141,752.48019L483.90141,752.24016L483.42135,752.24016L483.42135,752.00013
				L483.18132,752.00013L483.18132,751.76011L482.94129,751.76011L482.94129,751.52008L482.70126,751.52008L482.70126,751.04003
				L482.46123,751.04003L482.46123,750.80001L482.2212,750.80001L482.2212,750.55998L481.74113,750.55998L481.74113,750.07993L481.5011,750.07993
				L481.5011,749.8399L481.26107,749.8399L481.26107,749.59988L481.02104,749.59988L481.02104,749.35985L480.78101,749.35985L480.78101,749.11983
				L480.54098,749.11983L480.54098,748.63978L480.30095,748.63978L480.30095,748.15973L480.06092,748.15973L480.06092,747.67967
				L479.58086,747.67967L479.58086,747.43965L479.1008,747.43965L479.1008,747.19962L478.62074,747.19962L478.62074,746.9596L478.14068,746.9596
				L478.14068,746.71957L477.66062,746.71957L477.66062,746.47955L477.18056,746.47955L477.18056,746.23952L476.7005,746.23952L
				476.7005,745.99949L475.9804,745.99949L475.9804,745.51944L475.74037,745.51944L475.74037,745.27942L475.50034,745.27942L475.50034,744.79937
				L475.26031,744.79937L475.26031,744.55934L475.02028,744.55934L475.02028,744.31932L474.78025,744.31932L474.78025,744.07929
				L474.54022,744.07929L474.54022,743.83926L474.30019,743.83926L474.30019,743.59924L474.06016,743.59924L474.06016,743.35921
				L473.5801,743.35921L473.5801,742.87916L473.10004,742.87916L473.10004,742.63914L472.86001,742.63914L472.86001,742.39911L472.61998,742.39911
				L472.61998,741.91906L472.37995,741.91906L472.37995,741.43901L472.13992,741.43901L472.13992,741.19898L471.89989,741.19898
				L471.89989,740.95896L471.65986,740.95896L471.65986,740.71893L471.41983,740.71893L471.41983,740.23888L470.93976,740.23888
				L470.93976,739.99886L470.69973,739.99886L470.69973,739.75883L470.4597,739.75883L470.4597,739.5188L470.21967,739.5188L470.21967,739.27878
				L469.73961,739.27878L469.73961,739.03875L469.01952,739.03875L469.01952,738.79873L468.0594,738.79873L468.0594,738.5587L467.33931,738.5587
				L467.33931,738.31868L466.85925,738.31868L466.85925,738.07865L466.13915,738.07865L466.13915,737.83863L465.41906,737.83863
				L465.41906,737.35857L464.939,737.35857L464.939,737.11855L464.45894,737.11855L464.45894,736.87852L463.73885,736.87852L463.73885,736.6385
				L463.25879,736.6385L463.25879,736.39847L462.5387,736.39847L462.5387,736.15845L462.05864,736.15845L462.05864,735.91842L461.81861,735.91842
				L461.81861,735.6784L461.57858,735.6784L461.57858,735.43837L461.09852,735.43837L461.09852,735.19834L460.85848,735.19834L460.85848,734.71829
				L460.61845,734.71829L460.61845,734.47827L460.13839,734.47827L460.13839,734.23824L459.89836,734.23824L459.89836,733.99822
				L459.65833,733.99822L459.65833,733.75819L459.4183,733.75819L459.4183,733.51816L458.93824,733.51816L458.93824,733.27814L458.69821,733.27814
				L458.69821,732.79809L458.45818,732.79809L458.45818,732.55806L458.21815,732.55806L458.21815,731.83799L457.97812,731.83799
				L457.97812,731.59796L457.73809,731.59796L457.73809,731.35793L457.018,731.35793L457.018,730.87788L456.77797,730.87788L456.77797,730.63786
				L456.53794,730.63786L456.53794,730.15781L456.29791,730.15781L456.29791,729.91778L456.05788,729.91778L456.05788,729.67776
				L455.81785,729.67776L455.81785,729.1977L455.57781,729.1977L455.57781,728.71765L455.33778,728.71765L455.33778,728.47763L455.09775,728.47763
				L455.09775,728.2376L454.61769,728.2376L454.61769,727.99758L454.37766,727.99758L454.37766,727.51753L454.13763,727.51753L454.13763,727.2775
				L453.8976,727.2775L453.8976,727.03747L453.65757,727.03747L453.65757,726.55742L453.41754,726.55742L453.41754,726.07737L453.17751,726.07737
				L453.17751,725.83735L452.93748,725.83735L452.93748,725.59732L452.69745,725.59732L452.69745,725.3573L452.45742,725.3573L452.45742,725.11727
				L451.73733,725.11727L451.73733,724.87724L451.4973,724.87724L451.4973,724.63722L451.25727,724.63722L451.25727,724.39719L451.01724,724.39719
				L451.01724,723.67712L450.77721,723.67712L450.77721,723.43709L450.05711,723.43709L450.05711,723.19706L449.09699,723.19706
				L449.09699,722.95704L448.85696,722.95704L448.85696,723.19706L448.61693,723.19706L448.61693,722.95704L447.89684,722.95704
				L447.89684,722.71701L447.41678,722.71701L447.41678,722.95704L445.01647,722.95704L445.01647,723.19706L443.57629,723.19706
				L443.57629,722.95704L444.29638,722.95704L444.29638,722.71701L444.53641,722.71701L444.53641,722.47699L444.77644,722.47699
				L444.77644,722.23696L445.2565,722.23696L445.2565,721.99694L445.49654,721.99694L445.49654,721.75691L445.9766,721.75691L445.9766,721.27686
				L446.21663,721.27686L446.21663,721.03683L446.93672,721.03683L446.93672,720.79681L447.17675,720.79681L447.17675,720.55678
				L447.65681,720.55678L447.65681,720.31676L447.89684,720.31676L447.89684,720.07673L448.3769,720.07673L448.3769,719.83671L448.61693,719.83671
				L448.61693,719.59668L449.09699,719.59668L449.09699,719.35666L449.33702,719.35666L449.33702,719.11663L450.05711,719.11663
				L450.05711,718.8766L450.29714,718.8766L450.29714,718.39655L450.77721,718.39655L450.77721,718.15653L451.01724,718.15653L451.01724,717.9165
				L451.4973,717.9165L451.4973,717.67648L451.73733,717.67648L451.73733,717.9165L451.97736,717.9165L451.97736,718.15653L452.45742,718.15653
				L452.45742,718.8766L452.69745,718.8766L452.69745,719.11663L452.93748,719.11663L452.93748,719.59668L453.17751,719.59668L453.17751,719.83671
				L453.41754,719.83671L453.41754,720.31676L453.65757,720.31676L453.65757,720.55678L453.8976,720.55678L453.8976,721.03683L454.13763,721.03683
				L454.13763,721.27686L454.37766,721.27686L454.37766,720.79681L455.09775,720.79681L455.09775,721.03683L455.33778,721.03683
				L455.33778,721.27686L455.57781,721.27686L455.57781,721.75691L455.81785,721.75691L455.81785,721.99694L456.05788,721.99694
				L456.05788,722.23696L456.29791,722.23696L456.29791,722.47699L456.77797,722.47699L456.77797,722.71701L457.018,722.71701L457.018,722.95704
				L457.25803,722.95704L457.25803,723.19706L457.73809,723.19706L457.73809,723.43709L457.97812,723.43709L457.97812,723.67712
				L458.21815,723.67712L458.21815,723.91714L458.69821,723.91714L458.69821,724.39719L458.93824,724.39719L458.93824,724.63722
				L459.17827,724.63722L459.17827,724.87724L459.4183,724.87724L459.4183,725.11727L459.65833,725.11727L459.65833,725.3573L459.89836,725.3573
				L459.89836,725.59732L460.13839,725.59732L460.13839,725.83735L460.85848,725.83735L460.85848,726.07737L461.09852,726.07737
				L461.09852,726.3174L461.33855,726.3174L461.33855,726.55742L461.57858,726.55742L461.57858,727.03747L461.81861,727.03747L461.81861,727.2775
				L462.05864,727.2775L462.05864,727.51753L462.5387,727.51753L462.5387,727.75755L462.77873,727.75755L462.77873,727.99758L463.25879,727.99758
				L463.25879,728.2376L463.49882,728.2376L463.49882,728.47763L463.73885,728.47763L463.73885,728.71765L463.97888,728.71765L463.97888,728.95768
				L464.21891,728.95768L464.21891,729.1977L464.45894,729.1977L464.45894,729.67776L464.69897,729.67776L464.69897,729.91778L464.939,729.91778
				L464.939,730.15781L465.17903,730.15781L465.17903,730.39783L465.89912,730.39783L465.89912,730.63786L466.13915,730.63786L466.13915,730.87788
				L466.37919,730.87788L466.37919,731.11791L466.61922,731.11791L466.61922,731.35793L466.85925,731.35793L466.85925,731.59796
				L467.09928,731.59796L467.09928,731.83799L468.29943,731.83799L468.29943,731.59796L469.97964,731.59796L469.97964,732.07801
				L470.21967,732.07801L470.21967,733.27814L470.4597,733.27814L470.4597,733.51816L476.22043,733.51816L476.22043,733.27814L476.7005,733.27814
				L476.7005,733.03811L477.18056,733.03811L477.18056,732.79809L477.66062,732.79809L477.66062,732.55806L478.14068,732.55806L
				478.14068,732.07801L478.38071,732.07801L478.38071,731.83799L478.62074,731.83799L478.62074,731.59796L478.86077,731.59796L
				478.86077,731.35793L479.1008,731.35793L479.1008,730.87788L478.86077,730.87788L478.86077,730.63786L478.62074,730.63786L478.62074,730.15781
				L478.38071,730.15781L478.38071,729.67776L478.14068,729.67776L478.14068,729.1977L480.06092,729.1977L480.06092,728.95768L481.02104,728.95768
				L481.02104,729.1977L483.66138,729.1977L483.66138,729.67776L484.38147,729.67776L484.38147,729.91778L485.34159,729.91778L485.34159,730.15781
				L485.58162,730.15781L485.58162,730.39783L486.06168,730.39783L486.06168,730.63786L486.30171,730.63786L486.30171,730.87788
				L486.54174,730.87788L486.54174,731.35793L486.78177,731.35793L486.78177,731.59796L487.0218,731.59796L487.0218,732.55806L487.50187,732.55806
				L487.50187,733.03811L487.7419,733.03811L487.7419,733.75819L487.98193,733.75819L487.98193,734.23824L488.22196,734.23824L488.22196,734.47827
				L488.46199,734.47827L488.46199,734.23824L488.94205,734.23824L488.94205,733.99822L489.18208,733.99822L489.18208,733.75819
				L489.42211,733.75819L489.42211,733.51816L491.34235,733.51816L491.34235,733.75819L493.2626,733.75819L493.2626,733.99822L503.10385,733.99822
				L503.10385,733.75819L504.54403,733.75819L504.54403,733.51816L505.74418,733.51816L505.74418,733.27814L506.94433,733.27814
				L506.94433,733.03811L508.14449,733.03811L508.14449,732.79809L509.58467,732.79809L509.58467,732.55806L510.78482,732.55806
				L510.78482,732.07801L512.225,732.07801L512.225,731.83799L513.18513,731.83799L513.18513,731.59796L514.62531,731.59796L514.62531,731.35793
				L515.82546,731.35793L515.82546,731.11791L517.02561,731.11791L517.02561,730.87788L518.70583,730.87788L518.70583,730.63786
				L520.14601,730.63786L520.14601,730.39783L521.34616,730.39783L521.34616,730.15781L522.78634,730.15781L522.78634,729.91778
				L524.22653,729.91778L524.22653,729.67776L525.42668,729.67776L525.42668,729.1977L526.3868,729.1977L526.3868,728.95768L527.10689,728.95768
				L527.10689,728.71765L528.30704,728.71765L528.30704,728.47763L529.26717,728.47763L529.26717,728.2376L530.22729,728.2376L530.22729,727.99758
				L531.18741,727.99758L531.18741,727.75755L532.14753,727.75755L532.14753,727.51753L533.10765,727.51753L533.10765,727.2775L
				534.06778,727.2775L534.06778,727.03747L535.0279,727.03747L535.0279,726.55742L535.98802,726.55742L535.98802,726.3174L537.18817,726.3174
				L537.18817,726.07737L537.90826,726.07737"/>
		</g>
</g></svg>