<?xml version="1.0" encoding="utf-8" standalone="no"?>
<!-- Creator: ESRI ArcMap 10.0.0.2414 -->
<!DOCTYPE svg PUBLIC "-//W3C//DTD SVG 1.1//EN"  "http://www.w3.org/Graphics/SVG/1.1/DTD/svg11.dtd">
<svg width="381.829529188pt" height="741.1872776pt" viewBox="106.836415406 45.48194658 381.829529188 741.1872776" enable-background="new 106.836415406 45.48194658 381.829529188 741.1872776"
	version="1.1" xmlns="http://www.w3.org/2000/svg" xmlns:xlink="http://www.w3.org/1999/xlink" >
	<g id="Couches">
		<g id="reservoirs">
			<clipPath id="SVG_CP_2">
				<path d="M574.39289,21.36228L21.36271,21.36228L21.36271,821.36753L574.39289,821.36753L574.39289,21.36228z"/>
			</clipPath>
			<path clip-path="url(#SVG_CP_2)" fill-opacity="0.2" fill="#2f4493" fill-rule="evenodd" stroke="#2f4493" stroke-width="1" stra="1.44018" stroke-miterlimit="10" stroke-linecap="round" stroke-linejoin="round" d="
				M228.02894,630.30717L204.50595,687.91331L169.94157,736.15845L164.6609,744.07929L161.06044,756.80065L158.18007,771.92226L
				156.0198,784.88364L145.45846,776.00269L142.09803,772.16228L139.21767,768.32187L126.25602,753.20026L118.57505,738.79873L131.53669,739.5188
				L131.05663,738.79873L127.69621,733.03811L124.57581,733.27814L120.73532,733.27814L120.73532,732.55806L121.93547,721.51689
				L122.1755,714.55614L126.25602,713.11599L131.53669,702.55487L129.37642,701.59476L126.01599,699.67456L127.21614,696.79425L
				129.37642,690.79361L134.41706,687.43325L135.61721,687.91331L136.57733,687.19323L138.73761,689.59348L139.69773,690.55359L
				146.41858,682.39272L148.57886,679.75244L144.01828,679.75244L143.77825,679.51241L140.65785,678.31228L140.89788,678.31228L
				144.49834,674.7119L145.69849,673.27174L145.21843,673.03172L143.77825,672.79169L134.17703,676.87213L127.45618,689.11343L126.97611,689.59348
				L126.01599,691.27366L117.3749,695.11407L115.69468,686.9532L115.45465,683.35282L113.05435,673.99182L116.17474,661.51049L115.69468,658.39016
				L114.49453,654.78978L113.29438,649.26919L112.57429,642.54847L112.57429,631.02724L111.8542,629.58709L111.37413,620.94617L
				113.53441,616.14566L116.17474,612.06522L115.21462,611.10512L127.45618,590.2229L132.01675,586.14246L139.4577,573.4211L141.858,573.4211
				L143.05815,567.90052L143.05815,546.53824L144.25831,534.05691L144.01828,520.8555L148.33883,498.05307L158.4201,466.60972L172.10184,440.20691
				L180.26288,425.56535L183.38327,418.36458L186.26364,395.32213L191.06425,381.40064L200.66547,367.95921L204.50595,342.27647
				L207.38632,332.67545L213.38708,323.55448L222.9883,309.87302L246.99134,279.38977L249.63168,272.18901L255.39241,266.18837L
				255.87247,258.50755L254.19226,249.38658L254.67232,245.54617L256.59256,242.18581L261.6332,240.2656L265.71372,234.98504L266.91387,227.54425
				L264.7536,223.22379L255.15238,219.86343L240.03046,214.82289L233.78967,213.38274L227.06882,211.70256L229.22909,203.54169L
				230.9093,196.1009L230.9093,190.58031L228.26897,183.13952L225.62863,177.85895L242.6708,169.93811L277.23518,156.97673L293.55725,148.57583
				L300.9982,145.4555L308.43914,142.81522L323.081,175.93875L344.20368,229.22443L376.84782,312.5133L378.04798,314.91356L370.12697,331.95537
				L367.9667,343.4766L367.00657,351.15742L364.8463,360.03837L360.28572,366.75908L347.32408,391.24169L335.08252,407.80346L331.7221,414.28415
				L323.80109,429.88581L317.32027,436.3665L309.39926,439.48683L304.83869,440.68696L313.23975,445.96752L305.79881,454.36842L
				289.71677,485.81177L288.99668,494.21266L288.27658,497.57302L282.75588,509.33428L281.07567,513.65474L277.95527,519.41535L
				268.11402,534.05691L261.39317,542.69783L253.23214,562.85998L251.07186,570.5408L247.23137,588.78274L244.59104,596.70359L240.75055,601.02405
				L240.99058,605.82456L228.02894,630.30717z"/>
			<path clip-path="url(#SVG_CP_2)" fill-opacity="0.2" fill="#2f4493" fill-rule="evenodd" stroke="#2f4493" stroke-width="1" stra="1.44018" stroke-miterlimit="10" stroke-linecap="round" stroke-linejoin="round" d="
				M476.46046,70.56752L473.10004,73.44783L465.17903,74.88798L463.01876,74.40793L459.89836,74.64796L455.81785,77.28824L449.81708,84.96905
				L446.69669,98.89054L439.49577,104.65115L432.29486,113.5321L429.65452,120.97289L422.45361,126.97353L424.85392,135.85448L421.73352,141.85512
				L426.05407,146.4156L421.25346,150.01599L427.49425,155.53657L428.93443,158.65691L428.6944,161.29719L431.09471,164.89757L434.2151,162.97737
				L436.85544,165.37762L434.9352,168.49796L434.45513,186.01982L433.49501,210.50243L425.81404,227.54425L415.2527,245.30614L394.61008,280.34987
				L381.16837,307.95282L377.56791,300.03197L368.68679,276.26944L356.68526,248.18645L340.12316,207.14207L323.56106,166.0977L
				313.71981,141.37507L361.48587,127.45358L406.37157,125.05333L414.77264,122.8931L420.29334,124.8133L422.21358,123.8532L426.53413,119.53274
				L429.65452,115.93235L432.05483,112.09195L438.77568,102.2509L442.37614,99.61062L445.2565,96.49028L445.9766,93.60998L446.69669,89.28952
				L448.85696,82.5688L450.77721,80.88862L455.81785,75.60806L459.89836,73.2078L462.29867,73.44783L467.09928,73.2078L473.34007,72.00767
				L475.74037,69.12737L477.66062,63.12673L483.42135,57.60614L484.38147,58.80627L478.14068,65.28696L476.46046,70.56752z"/>
		</g>
</g></svg>