<?xml version="1.0" encoding="utf-8" standalone="no"?>
<!-- Creator: ESRI ArcMap 10.0.0.2414 -->
<!DOCTYPE svg PUBLIC "-//W3C//DTD SVG 1.1//EN"  "http://www.w3.org/Graphics/SVG/1.1/DTD/svg11.dtd">
<svg width="524.0420768pt" height="225.5293107pt" viewBox="32.15712744 308.36447965 524.0420768 225.5293107" enable-background="new 32.15712744 308.36447965 524.0420768 225.5293107"
	version="1.1" xmlns="http://www.w3.org/2000/svg" xmlns:xlink="http://www.w3.org/1999/xlink" >
	<g id="Couches">
		<g id="reservoirs">
			<clipPath id="SVG_CP_2">
				<path d="M574.39289,21.36228L21.36271,21.36228L21.36271,821.36753L574.39289,821.36753L574.39289,21.36228z"/>
			</clipPath>
			<path clip-path="url(#SVG_CP_2)" fill-opacity="0.2" fill="#2f4493" fill-rule="evenodd" stroke="#2f4493" stroke-width="1" stra="1.44018" stroke-miterlimit="10" stroke-linecap="round" stroke-linejoin="round" d="
				M51.60655,442.36714L51.36652,443.08722L51.60655,443.08722L51.36652,443.80729L53.04673,444.28734L53.28676,443.08722L54.24688,443.32724
				L54.24688,442.36714L54.48692,441.64706L55.68707,441.88709L55.68707,442.12711L55.44704,443.32724L55.44704,444.7674L55.20701,448.6078
				L55.44704,451.00806L55.44704,452.68824L55.68707,453.88837L55.9271,454.60844L55.9271,455.80857L56.16713,457.24873L56.40716,458.44885
				L56.64719,459.40896L57.12725,461.08913L57.60731,463.00934L58.08737,464.92954L58.3274,466.12967L59.04749,468.2899L60.00762,472.37034
				L60.96774,475.97072L62.16789,480.05116L62.88798,483.65154L63.12801,484.13159L63.12801,484.37162L63.12801,485.57174L62.88798,487.972
				L62.88798,489.17213L62.64795,489.8922L62.64795,491.09233L62.16789,492.77251L61.68783,494.45269L60.48768,497.81305L57.84734,496.61292
				L54.00685,494.69272L52.08661,493.73261L51.84658,495.65282L51.36652,495.41279L50.88646,495.65282L50.64643,495.65282L49.20624,495.65282
				L49.92634,491.81241L50.16637,490.13223L49.44628,487.73197L48.00609,483.65154L47.76606,483.17149L47.286,481.49131L47.04597,480.53121
				L46.80594,479.33108L46.56591,478.85103L46.56591,477.6509L46.56591,476.93082L46.56591,476.6908L46.56591,475.97072L47.04597,475.97072
				L47.76606,475.97072L47.76606,475.73069L48.72618,475.73069L48.72618,475.25064L48.72618,474.77059L48.72618,472.13031L48.96621,470.45013
				L50.16637,470.45013L50.16637,470.21011L50.4064,469.73006L50.4064,469.00998L50.88646,466.3697L51.60655,462.04924L51.60655,461.32916
				L51.60655,460.60908L53.04673,460.12903L53.04673,459.88901L53.04673,459.64898L53.04673,459.40896L52.8067,459.16893L52.56667,458.20883
				L51.12649,458.68888L51.36652,459.88901L49.44628,460.36906L48.24612,460.60908L48.24612,460.36906L48.24612,457.72878L48.24612,456.28862
				L48.00609,454.36842L47.52603,451.24809L46.80594,451.00806L46.56591,451.00806L46.56591,450.76803L46.56591,450.52801L47.04597,449.56791
				L47.286,449.32788L47.286,448.84783L48.00609,448.12775L48.72618,447.6477L48.96621,447.16765L49.68631,447.16765L50.64643,447.6477
				L50.64643,446.92763L51.12649,446.6876L51.36652,446.20755L51.60655,445.7275L51.36652,445.7275L51.12649,445.48747L51.12649,445.24745
				L51.12649,445.00742L51.12649,444.7674L51.36652,444.04732L51.36652,443.32724L48.72618,442.60717L48.72618,443.32724L47.52603,443.08722
				L47.76606,441.88709L47.76606,441.16701L48.00609,439.72686L49.20624,439.96688L50.4064,440.44693L51.12649,440.68696L52.08661,440.68696
				L52.08661,441.16701L52.08661,441.40704L51.84658,441.64706L51.84658,441.88709L51.60655,442.36714z"/>
			<path clip-path="url(#SVG_CP_2)" fill-opacity="0.2" fill="#2f4493" fill-rule="evenodd" stroke="#2f4493" stroke-width="1" stra="1.44018" stroke-miterlimit="10" stroke-linecap="round" stroke-linejoin="round" d="
				M436.13535,324.27456L433.97507,324.99463L434.45513,326.43479L436.13535,325.95473L436.37538,326.19476L438.29562,325.47468
				L438.29562,325.23466L438.77568,324.75461L438.05559,323.07443L436.13535,324.27456L436.13535,324.03453L436.13535,324.27456
				L434.69516,321.15422L434.69516,320.67417L439.25574,318.99399L439.49577,318.99399L440.69593,321.8743L442.13611,321.15422L
				449.81708,316.35371L454.37766,313.4734L454.85772,313.71343L456.77797,318.03389L459.17827,323.07443L459.65833,324.27456L460.61845,328.11496
				L461.33855,330.99527L461.81861,331.71535L462.29867,331.47532L466.13915,330.27519L470.21967,329.31509L470.69973,330.51522
				L471.65986,330.27519L471.41983,329.07507L474.54022,328.35499L475.50034,330.99527L477.90065,330.27519L477.66062,328.59502
				L479.1008,328.35499L480.78101,327.87494L480.54098,326.91484L482.46123,326.43479L482.70126,327.39489L483.42135,327.39489L
				485.82165,327.15486L485.58162,325.47468L488.94205,324.51458L495.42287,323.07443L502.62378,321.39425L503.58391,321.39425L
				506.94433,321.63427L511.50491,320.9142L512.225,323.7945L516.06549,324.03453L515.58543,322.35435L519.18589,322.35435L524.70659,322.59438
				L531.42744,322.8344L531.9075,324.27456L533.10765,323.7945L534.30781,326.91484L533.10765,327.39489L533.10765,327.63491L532.38756,327.87494
				L532.62759,329.31509L534.30781,329.07507L534.78787,328.83504L535.74799,332.43543L535.0279,332.67545L535.50796,334.35563L
				534.78787,334.35563L534.78787,334.83568L533.34768,335.07571L533.34768,335.31573L531.18741,336.03581L531.66747,337.47596L
				538.38832,335.55576L541.98878,348.27711L543.42896,351.39745L548.22957,362.43862L545.10918,362.67865L548.22957,374.67993L
				547.02942,375.64003L547.74951,377.32021L548.70963,380.44054L549.18969,381.40064L545.58924,382.12072L543.18893,382.12072L
				540.5486,380.92059L538.14829,379.72046L533.58771,380.20051L532.62759,380.20051L531.18741,379.96049L526.86686,381.16062L525.66671,381.64067
				L525.90674,384.28095L523.50643,385.24105L524.94662,391.48172L524.70659,394.36202L524.94662,396.28223L524.22653,399.40256
				L524.94662,404.20307L514.62531,407.56343L508.38452,409.24361L503.10385,411.16381L497.58315,413.56407L496.14296,414.52417
				L494.70278,416.20435L492.78254,418.12456L491.82241,419.08466L491.58238,419.32468L492.78254,421.72494L492.78254,423.64514
				L493.2626,425.0853L494.70278,425.56535L494.70278,427.48555L493.74266,429.40576L493.98269,430.84591L494.22272,433.24617L494.94281,434.4463
				L494.70278,435.4064L495.18284,436.60653L497.58315,437.56663L498.54327,438.52673L497.58315,439.72686L497.34311,440.92699L
				495.6629,442.12711L496.38299,443.56727L495.90293,444.52737L494.94281,446.92763L492.78254,449.08786L493.50263,451.72814L497.34311,450.04796
				L499.02333,452.92826L499.98345,454.36842L498.7833,455.32852L502.38375,459.88901L507.18436,463.24936L499.50339,472.85039L
				500.46351,474.53057L499.98345,475.49067L499.74342,476.45077L501.42363,479.33108L505.26412,484.37162L505.26412,485.81177L
				510.54479,491.81241L512.225,492.53249L514.86534,493.49259L516.54555,495.89284L512.94509,498.53312L514.86534,502.85359L520.14601,500.45333
				L521.34616,500.2133L524.22653,499.97328L526.3868,504.05371L528.54707,506.69399L529.98726,508.6142L527.10689,509.81433L524.22653,511.73453
				L522.54631,512.45461L520.14601,513.41471L515.10537,516.53504L514.62531,515.09489L510.54479,516.53504L507.66442,518.45525
				L508.38452,520.8555L509.34464,523.25576L503.34388,525.65601L502.86382,523.97584L497.34311,525.17596L497.34311,523.25576L
				494.70278,523.49578L494.94281,526.85614L493.02257,526.85614L488.70202,527.33619L483.90141,527.33619L477.42059,524.21586L
				469.73961,521.81561L468.53946,521.33555L465.89912,520.61548L463.25879,519.17532L459.65833,519.8954L454.37766,521.33555L446.69669,523.25576
				L443.81632,524.21586L441.17599,519.41535L439.97583,519.41535L439.25574,516.29502L438.77568,516.53504L436.85544,517.49515
				L434.69516,518.69527L430.37462,519.17532L430.61465,523.73581L432.53489,524.21586L432.53489,525.17596L433.97507,525.17596
				L433.73504,527.09617L428.93443,526.85614L423.41373,526.37609L422.45361,523.73581L420.53337,524.21586L420.29334,525.89604
				L418.37309,525.41599L417.89303,521.33555L416.93291,521.57558L415.2527,518.21522L416.69288,517.73517L416.21282,515.09489L
				411.41221,515.57494L411.17218,516.53504L414.29258,516.77507L414.77264,524.93594L409.49197,523.73581L409.49197,522.53568L
				402.05102,521.09553L398.93063,520.37545L398.6906,518.45525L397.73047,514.85486L395.5702,514.85486L395.5702,516.77507L395.5702,517.73517
				L395.5702,517.9752L395.81023,520.8555L391.24965,521.57558L387.40916,522.05563L387.16913,519.8954L383.08862,519.65538L382.84859,522.53568
				L377.56791,519.8954L382.60855,512.69463L380.68831,509.81433L383.56868,505.01382L377.08785,501.89348L374.20749,499.2532L367.72667,494.69272
				L362.68603,492.29246L362.68603,490.37225L357.40536,491.09233L354.04493,490.13223L354.28496,494.21266L355.96517,495.89284
				L355.96517,497.81305L352.60475,496.85295L349.00429,495.41279L347.56411,495.17277L347.08405,493.49259L344.44371,493.49259
				L342.7635,490.61228L343.00353,488.21202L342.04341,484.37162L341.08328,482.93146L341.56335,479.81113L336.28268,478.611L335.56258,480.77123
				L335.80261,480.77123L337.72286,481.01126L339.88313,485.81177L339.40307,486.29182L339.88313,489.65218L341.56335,489.41215
				L341.56335,493.73261L339.6431,495.17277L339.16304,497.333L335.32255,499.01318L334.1224,494.93274L332.44219,495.65282L330.28191,496.13287
				L332.68222,500.2133L334.36243,500.2133L335.32255,501.89348L332.20216,503.09361L328.36167,504.29374L325.24127,506.45397L322.84097,507.89412
				L318.04036,509.33428L314.67993,510.77443L307.71905,513.89476L303.3985,516.05499L298.83792,517.73517L294.99744,518.45525L
				291.39698,517.9752L290.67689,514.37481L287.79652,513.89476L287.31646,511.49451L285.39622,512.21458L284.91616,511.25448L281.79576,511.25448
				L280.83564,511.25448L279.63549,512.93466L279.39546,512.93466L279.39546,513.89476L279.15543,515.81497L279.15543,516.29502
				L273.87476,519.8954L267.1539,523.49578L264.51357,523.97584L263.07339,524.21586L262.11326,524.45589L261.87323,523.25576L253.23214,524.93594
				L253.23214,525.89604L246.99134,527.57622L242.6708,529.01637L238.83031,527.81625L235.94994,525.41599L237.39013,524.21586L
				231.86943,518.45525L226.10869,514.61484L219.8679,511.49451L222.02818,508.6142L219.38784,507.41407L217.22757,505.01382L211.9469,501.65346
				L210.50671,496.37289L206.90626,491.81241L207.86638,490.37225L207.62635,489.17213L208.10641,488.45205L207.86638,485.57174
				L210.74674,483.65154L209.78662,480.05116L207.62635,481.49131L207.14629,478.611L245.0711,433.48619L249.87171,427.48555L251.55192,425.56535
				L252.03198,425.32532L254.19226,424.36522L256.35253,425.56535L256.83259,424.84527L256.83259,424.60525L256.83259,424.36522
				L258.03275,423.88517L258.99287,422.92507L257.55268,421.00486L258.75284,420.04476L261.15314,423.16509L263.55345,421.24489
				L264.27354,422.20499L263.31342,422.92507L264.99363,425.0853L265.71372,424.60525L266.67384,425.80537L268.11402,427.72558L
				265.95375,428.92571L268.35406,432.52609L270.2743,434.92635L272.19454,433.24617L274.35482,431.80601L273.3947,430.36586L271.47445,431.80601
				L269.55421,429.16573L269.07415,428.68568L269.07415,428.44566L271.23442,427.24553L271.95451,428.20563L272.43457,427.9656L
				271.95451,426.76548L273.15466,426.0454L273.63473,427.0055L274.35482,426.76548L273.87476,425.80537L279.39546,422.68504L280.11555,423.88517
				L282.99591,422.44502L282.03579,421.24489L282.99591,420.52481L284.19607,422.20499L285.63625,421.00486L284.67613,419.56471
				L289.9568,416.44438L292.3571,415.24425L295.71753,413.08402L296.67765,414.7642L298.35786,413.8041L299.79805,415.7243L300.03808,415.48427
				L301.71829,418.12456L304.11859,415.7243L303.3985,413.8041L301.71829,409.48364L302.43838,409.00358L303.3985,408.28351L304.35862,407.32341
				L305.07872,406.3633L305.55878,405.64323L306.5189,404.4431L307.23899,405.4032L308.43914,404.68312L310.11936,406.12328L310.35939,406.3633
				L312.27963,404.92315L314.19987,403.24297L313.95984,402.28287L315.16,400.84271L315.64006,400.36266L317.80033,398.20243L320.44067,395.56215
				L320.92073,394.84208L321.64082,395.56215L322.36091,397.00231L323.081,397.96241L323.32103,398.20243L323.56106,399.40256L324.28115,402.52289
				L324.52118,403.00294L324.76121,403.24297L325.24127,403.72302L325.96137,406.3633L327.64158,411.16381L327.64158,411.64387L
				327.64158,412.12392L327.16152,413.32404L327.88161,414.04412L331.00201,411.88389L333.40231,410.20371L338.68298,406.60333L
				340.36319,405.4032L343.96365,402.76292L344.20368,402.52289L345.40383,402.52289L345.88389,402.52289L345.88389,402.28287L345.88389,401.80282
				L346.36396,401.08274L346.60399,400.60269L349.00429,398.92251L350.92453,397.00231L353.32484,394.60205L353.8049,395.0821L354.52499,394.36202
				L353.8049,393.88197L355.00505,392.20179L356.44523,393.40192L357.88542,391.48172L356.68526,390.28159L357.88542,388.60141L
				358.60551,389.08146L358.84554,388.60141L359.56563,388.84144L359.80566,389.08146L360.52575,388.36138L360.04569,388.12136L
				360.52575,387.64131L359.3256,386.68121L354.52499,383.32085L356.68526,380.92059L355.96517,380.20051L353.56487,382.60077L350.6845,380.68057
				L346.36396,377.80026L342.28344,374.91995L337.72286,371.79962L337.72286,371.31957L337.96289,370.59949L339.16304,371.07954
				L339.6431,370.59949L340.36319,369.15934L338.44295,367.95921L338.68298,366.51906L340.12316,360.03837L340.84325,356.67801L
				341.08328,355.95793L341.32332,355.47788L341.56335,354.99783L341.80338,354.7578L343.24356,353.31765L344.92377,351.8775L345.88389,353.07762
				L346.84402,352.35755L345.88389,351.15742L348.04417,349.47724L348.76426,350.19732L350.20444,348.99719L349.48435,348.03709
				L352.12469,345.87686L353.32484,347.07699L353.8049,346.35691L352.84478,345.15678L354.04493,343.95665L355.72514,345.39681L
				358.36548,342.27647L356.9253,341.07635L357.88542,339.87622L359.08557,340.59629L359.80566,339.63619L358.84554,338.91612L360.04569,337.47596
				L361.00581,338.19604L361.7259,337.47596L360.52575,336.75589L361.48587,335.79578L364.8463,331.95537L368.20673,328.11496L369.16685,328.83504
				L370.12697,327.63491L369.16685,326.91484L369.88694,326.19476L370.60703,325.95473L374.92758,329.79514L377.32788,332.1954L
				379.0081,333.87558L378.76807,334.1156L378.52804,334.35563L378.76807,334.59566L379.0081,334.83568L378.52804,335.07571L379.96822,336.75589
				L380.92834,336.03581L381.16837,335.79578L382.60855,337.23594L381.88846,338.19604L380.68831,338.91612L379.96822,339.39617
				L382.36852,342.75652L385.00886,340.35627L385.72895,339.87622L391.24965,344.67673L395.33017,340.59629L399.89075,335.79578
				L402.29105,338.19604L404.69136,335.79578L404.69136,335.31573L404.45133,335.07571L409.49197,331.47532L408.53184,330.51522
				L418.37309,323.31445L418.37309,326.67481L422.45361,325.23466L427.25422,323.7945L429.17446,323.07443L434.45513,320.9142L436.13535,324.27456
				z"/>
		</g>
</g></svg>