<?xml version="1.0" encoding="utf-8" standalone="no"?>
<!-- Creator: ESRI ArcMap 10.0.0.2414 -->
<!DOCTYPE svg PUBLIC "-//W3C//DTD SVG 1.1//EN"  "http://www.w3.org/Graphics/SVG/1.1/DTD/svg11.dtd">
<svg width="524.0420768pt" height="214.04568309pt" viewBox="32.15712744 314.106293455 524.0420768 214.04568309" enable-background="new 32.15712744 314.106293455 524.0420768 214.04568309"
	version="1.1" xmlns="http://www.w3.org/2000/svg" xmlns:xlink="http://www.w3.org/1999/xlink" >
	<g id="Couches">
		<g id="cont_2">
			<path clip-path="url(#SVG_CP_2)" fill="none" stroke="#999999" stroke-width="0.96012" stroke-miterlimit="10" stroke-linecap="round" stroke-linejoin="round" d="
				M132.49681,477.41087L132.49681,477.6509L132.25678,477.6509L132.25678,477.41087L132.49681,477.41087"/>
			<path clip-path="url(#SVG_CP_2)" fill="none" stroke="#999999" stroke-width="0.96012" stroke-miterlimit="10" stroke-linecap="round" stroke-linejoin="round" d="
				M153.37946,513.41471L153.13943,513.41471L153.13943,513.17468L153.37946,513.17468L153.37946,513.41471"/>
			<path clip-path="url(#SVG_CP_2)" fill="none" stroke="#999999" stroke-width="0.96012" stroke-miterlimit="10" stroke-linecap="round" stroke-linejoin="round" d="
				M153.6195,513.65474L153.37946,513.65474L153.37946,513.41471L153.6195,513.41471L153.6195,513.65474"/>
			<path clip-path="url(#SVG_CP_2)" fill="none" stroke="#999999" stroke-width="0.96012" stroke-miterlimit="10" stroke-linecap="round" stroke-linejoin="round" d="
				M153.6195,513.65474L153.85953,513.65474L153.85953,513.89476L154.09956,513.89476L154.09956,514.13479L154.33959,514.13479L
				154.33959,514.37481L154.57962,514.37481L154.57962,514.61484L155.05968,514.61484L155.05968,514.85486L155.53974,514.85486L
				155.53974,515.33492L156.0198,515.33492L156.0198,514.85486L156.25983,514.85486L156.25983,514.61484L157.70001,514.61484L157.70001,514.37481
				L158.18007,514.37481L158.18007,514.13479L159.1402,514.13479L159.1402,514.37481L159.62026,514.37481L159.62026,514.61484L160.10032,514.61484
				L160.10032,514.85486L160.58038,514.85486L160.58038,515.33492L160.82041,515.33492L160.82041,515.57494L161.06044,515.57494
				L161.06044,515.33492L161.30047,515.33492L161.30047,514.85486L161.78053,514.85486L161.78053,514.61484L163.46074,514.61484
				L163.46074,514.37481L166.34111,514.37481L166.34111,514.13479L168.50138,514.13479L168.50138,513.89476L168.98144,513.89476
				L168.98144,513.65474L169.46151,513.65474L169.46151,513.41471L170.1816,513.41471L170.1816,513.17468L170.66166,513.17468L170.66166,512.93466
				L171.14172,512.93466L171.14172,512.69463L171.86181,512.69463L171.86181,512.45461L172.5819,512.45461L172.5819,512.21458L173.06196,512.21458
				L173.06196,511.97456L173.54202,511.97456L173.54202,511.73453L174.26211,511.73453L174.26211,511.49451L174.74218,511.49451
				L174.74218,511.25448L174.98221,511.25448L174.98221,511.01445L175.22224,511.01445L175.22224,510.77443L175.46227,510.77443
				L175.46227,510.29438L175.7023,510.29438L175.7023,510.05435L175.94233,510.05435L175.94233,509.81433L176.18236,509.81433L176.18236,509.5743
				L176.42239,509.5743L176.42239,509.33428L176.66242,509.33428L176.66242,509.09425L176.90245,509.09425L176.90245,508.85422L
				177.14248,508.85422L177.14248,508.37417L177.38251,508.37417L177.38251,508.13415L177.62254,508.13415L177.62254,507.6541L178.1026,507.6541
				L178.1026,507.41407L178.34263,507.41407L178.34263,507.17405L178.58266,507.17405L178.58266,506.93402L178.82269,506.93402L
				178.82269,506.69399L179.06272,506.69399L179.06272,506.45397L179.30275,506.45397L179.30275,506.21394L179.54278,506.21394L
				179.54278,505.97392L179.78282,505.97392L179.78282,505.73389L180.02285,505.73389L180.02285,505.25384L180.26288,505.25384L
				180.26288,505.01382L180.50291,505.01382L180.50291,504.77379L180.74294,504.77379L180.74294,504.53376L180.98297,504.53376L
				180.98297,504.29374L181.223,504.29374L181.223,503.81369L181.46303,503.81369L181.46303,503.33364L181.70306,503.33364L181.70306,502.85359
				L181.94309,502.85359L181.94309,502.13351L182.18312,502.13351L182.18312,501.65346L182.42315,501.65346L182.42315,501.17341
				L182.66318,501.17341L182.66318,500.69335L182.90321,500.69335L182.90321,500.2133L183.14324,500.2133L183.14324,499.73325L183.38327,499.73325
				L183.38327,499.2532L183.6233,499.2532L183.6233,498.77315L183.86333,498.77315L183.86333,498.2931L184.34339,498.2931L184.34339,497.81305
				L184.58342,497.81305L184.58342,497.333L184.82346,497.333L184.82346,496.85295L185.06349,496.85295L185.06349,496.37289L185.30352,496.37289
				L185.30352,495.65282L185.54355,495.65282L185.54355,495.17277L185.78358,495.17277L185.78358,493.25256L185.54355,493.25256
				L185.54355,492.77251L185.30352,492.77251L185.30352,492.29246L185.06349,492.29246L185.06349,491.81241L184.82346,491.81241
				L184.82346,491.33236L184.58342,491.33236L184.58342,491.09233L184.34339,491.09233L184.34339,490.61228L183.86333,490.61228
				L183.86333,490.37225L183.6233,490.37225L183.6233,490.13223L183.38327,490.13223L183.38327,489.8922L183.14324,489.8922L183.14324,489.17213
				L182.90321,489.17213L182.90321,488.9321L182.66318,488.9321L182.66318,488.69208L182.42315,488.69208L182.42315,488.21202L182.18312,488.21202
				L182.18312,487.972L181.94309,487.972L181.94309,487.73197L181.70306,487.73197L181.70306,487.25192L180.50291,487.25192L180.50291,487.0119
				L179.30275,487.0119L179.30275,486.77187L177.62254,486.77187L177.62254,486.53185L176.42239,486.53185L176.42239,486.29182L
				175.46227,486.29182L175.46227,486.05179L174.74218,486.05179L174.74218,485.81177L174.02208,485.81177L174.02208,485.57174L
				173.30199,485.57174L173.30199,485.33172L172.5819,485.33172L172.5819,485.09169L171.86181,485.09169L171.86181,484.85167L170.90169,484.85167
				L170.90169,484.61164L170.42163,484.61164L170.42163,484.37162L169.94157,484.37162L169.94157,484.13159L169.46151,484.13159
				L169.46151,483.89156L168.98144,483.89156L168.98144,483.65154L168.50138,483.65154L168.50138,483.17149L168.02132,483.17149
				L168.02132,482.93146L167.54126,482.93146L167.54126,482.69144L167.0612,482.69144L167.0612,482.45141L166.58114,482.45141L166.58114,482.21139
				L166.10108,482.21139L166.10108,481.97136L165.62102,481.97136L165.62102,481.73133L165.38099,481.73133L165.38099,481.49131
				L164.6609,481.49131L164.6609,481.25128L164.18084,481.25128L164.18084,479.81113L163.94081,479.81113L163.94081,479.33108L163.70077,479.33108
				L163.70077,479.09105L163.46074,479.09105L163.46074,478.611L162.98068,478.611L162.98068,478.37098L162.74065,478.37098L162.74065,478.13095
				L162.98068,478.13095L162.98068,477.89092L163.22071,477.89092L163.22071,477.6509L163.70077,477.6509L163.70077,477.41087L163.94081,477.41087
				L163.94081,476.93082L164.18084,476.93082L164.18084,476.6908L164.42087,476.6908L164.42087,476.45077L164.90093,476.45077L164.90093,476.21075
				L165.38099,476.21075L165.38099,475.97072L165.62102,475.97072L165.62102,475.73069L166.10108,475.73069L166.10108,475.49067
				L166.34111,475.49067L166.34111,475.25064L166.58114,475.25064L166.58114,475.01062L166.82117,475.01062L166.82117,474.77059
				L167.30123,474.77059L167.30123,474.53057L167.54126,474.53057L167.54126,474.29054L167.78129,474.29054L167.78129,474.05052
				L168.02132,474.05052L168.02132,473.81049L168.50138,473.81049L168.50138,473.57046L168.74141,473.57046L168.74141,473.33044
				L168.98144,473.33044L168.98144,473.09041L169.46151,473.09041L169.46151,472.85039L169.70154,472.85039L169.70154,472.61036
				L169.94157,472.61036L169.94157,472.37034L170.1816,472.37034L170.1816,472.13031L170.66166,472.13031L170.66166,471.89029L170.90169,471.89029
				L170.90169,471.65026L171.14172,471.65026L171.14172,471.41023L171.62178,471.41023L171.62178,471.17021L172.10184,471.17021
				L172.10184,470.93018L172.34187,470.93018L172.34187,470.45013L172.5819,470.45013L172.5819,470.21011L173.06196,470.21011L173.06196,469.97008
				L173.30199,469.97008L173.30199,469.73006L173.54202,469.73006L173.54202,469.49003L173.78205,469.49003L173.78205,469.25L174.26211,469.25
				L174.26211,469.00998L174.50215,469.00998L174.50215,468.76995L174.74218,468.76995L174.74218,468.52993L175.22224,468.52993
				L175.22224,468.2899L174.26211,468.2899L174.26211,468.52993L169.46151,468.52993L169.46151,468.76995L167.78129,468.76995L167.78129,469.00998
				L166.10108,469.00998L166.10108,469.25L163.94081,469.25L163.94081,469.49003L162.26059,469.49003L162.26059,469.73006L160.58038,469.73006
				L160.58038,469.97008L158.4201,469.97008L158.4201,470.21011L156.73989,470.21011L156.73989,470.45013L154.81965,470.45013L154.81965,470.93018
				L153.85953,470.93018L153.85953,471.17021L152.8994,471.17021L152.8994,471.41023L151.93928,471.41023L151.93928,471.65026L151.21919,471.65026
				L151.21919,471.89029L150.25907,471.89029L150.25907,472.13031L149.53898,472.13031L149.53898,472.37034L148.81889,472.37034
				L148.81889,472.61036L148.09879,472.61036L148.09879,472.85039L147.13867,472.85039L147.13867,473.09041L146.41858,473.09041
				L146.41858,473.33044L145.45846,473.33044L145.45846,473.57046L144.49834,473.57046L144.49834,473.81049L143.77825,473.81049
				L143.77825,474.05052L143.05815,474.05052L143.05815,474.29054L142.09803,474.29054L142.09803,474.53057L141.37794,474.53057
				L141.37794,474.77059L140.65785,474.77059L140.65785,475.01062L139.4577,475.01062L139.4577,475.25064L138.73761,475.25064L138.73761,475.49067
				L137.77748,475.49067L137.77748,475.73069L136.81736,475.73069L136.81736,475.97072L136.09727,475.97072L136.09727,476.21075
				L135.37718,476.21075L135.37718,476.45077L134.65709,476.45077L134.65709,476.6908L133.937,476.6908L133.937,476.93082L132.97688,476.93082
				L132.97688,477.41087L132.49681,477.41087L132.49681,476.6908L132.97688,476.6908L132.97688,476.21075L133.21691,476.21075L133.21691,475.97072
				L133.69697,475.97072L133.69697,475.73069L133.937,475.73069L133.937,475.25064L134.17703,475.25064L134.17703,474.77059L134.41706,474.77059
				L134.41706,474.29054L134.65709,474.29054L134.65709,473.57046L134.89712,473.57046L134.89712,472.61036L135.13715,472.61036
				L135.13715,472.13031L135.37718,472.13031L135.37718,471.41023L135.61721,471.41023L135.61721,470.45013L135.85724,470.45013
				L135.85724,469.73006L136.09727,469.73006L136.09727,469.00998L136.3373,469.00998L136.3373,468.2899L136.57733,468.2899L136.57733,467.56983
				L136.81736,467.56983L136.81736,467.3298L137.05739,467.3298L137.05739,467.08977L137.53745,467.08977L137.53745,466.84975L137.77748,466.84975
				L137.77748,466.60972L138.01752,466.60972L138.01752,466.3697L138.49758,466.3697L138.49758,466.12967L138.73761,466.12967L138.73761,465.88965
				L139.21767,465.88965L139.21767,465.64962L139.4577,465.64962L139.4577,465.40959L140.17779,465.40959L140.17779,465.16957L140.65785,465.16957
				L140.65785,464.92954L140.89788,464.92954L140.89788,464.68952L141.37794,464.68952L141.37794,464.20947L141.858,464.20947L141.858,463.96944
				L142.09803,463.96944L142.09803,463.72942L142.57809,463.72942L142.57809,463.48939L143.05815,463.48939L143.05815,463.24936
				L143.29819,463.24936L143.29819,463.00934L143.77825,463.00934L143.77825,462.76931L144.01828,462.76931L144.01828,462.52929
				L144.25831,462.52929L144.25831,462.28926L144.73837,462.28926L144.73837,462.04924L144.9784,462.04924L144.9784,461.80921L145.45846,461.80921
				L145.45846,461.56919L145.93852,461.56919L145.93852,461.32916L146.41858,461.32916L146.41858,461.08913L146.89864,461.08913
				L146.89864,460.84911L147.13867,460.84911L147.13867,460.60908L147.61873,460.60908L147.61873,460.36906L147.85876,460.36906
				L147.85876,460.12903L148.09879,460.12903L148.09879,459.88901L148.57886,459.88901L148.57886,459.64898L149.05892,459.64898
				L149.05892,459.40896L149.29895,459.40896L149.29895,459.16893L149.77901,459.16893L149.77901,458.9289L150.01904,458.9289L150.01904,458.68888
				L150.25907,458.68888L150.25907,458.44885L150.97916,458.44885L150.97916,457.9688L151.21919,457.9688L151.21919,457.72878L151.69925,457.72878
				L151.69925,457.48875L151.93928,457.48875L151.93928,457.24873L152.65937,457.24873L152.65937,457.0087L153.13943,457.0087L153.13943,456.76867
				L153.37946,456.76867L153.37946,456.52865L153.85953,456.52865L153.85953,456.28862L154.33959,456.28862L154.33959,456.0486L
				154.81965,456.0486L154.81965,455.80857L155.29971,455.80857L155.29971,455.56855L155.77977,455.56855L155.77977,455.32852L156.49986,455.32852
				L156.49986,455.0885L156.97992,455.0885L156.97992,454.84847L157.45998,454.84847L157.45998,454.60844L157.94004,454.60844L157.94004,454.36842
				L158.4201,454.36842L158.4201,454.12839L159.1402,454.12839L159.1402,453.88837L159.62026,453.88837L159.62026,453.64834L160.10032,453.64834
				L160.10032,453.40832L160.58038,453.40832L160.58038,453.16829L160.82041,453.16829L160.82041,452.92826L161.30047,452.92826
				L161.30047,452.68824L161.78053,452.68824L161.78053,452.44821L162.26059,452.44821L162.26059,452.20819L162.74065,452.20819
				L162.74065,451.96816L163.46074,451.96816L163.46074,451.48811L163.94081,451.48811L163.94081,451.24809L164.18084,451.24809
				L164.18084,451.00806L164.6609,451.00806L164.6609,450.76803L165.38099,450.76803L165.38099,450.52801L165.86105,450.52801L165.86105,450.28798
				L166.34111,450.28798L166.34111,450.04796L166.82117,450.04796L166.82117,449.80793L167.30123,449.80793L167.30123,449.56791
				L167.78129,449.56791L167.78129,449.32788L168.02132,449.32788L168.02132,449.08786L168.50138,449.08786L168.50138,448.84783
				L169.22148,448.84783L169.22148,448.6078L169.46151,448.6078L169.46151,448.36778L169.94157,448.36778L169.94157,448.12775L170.42163,448.12775
				L170.42163,447.88773L171.14172,447.88773L171.14172,447.6477L171.86181,447.6477L171.86181,447.40768L172.34187,447.40768L172.34187,447.16765
				L172.82193,447.16765L172.82193,446.92763L173.54202,446.92763L173.54202,446.6876L174.02208,446.6876L174.02208,446.44757L174.50215,446.44757
				L174.50215,446.20755L175.22224,446.20755L175.22224,445.96752L175.94233,445.96752L175.94233,445.7275L176.42239,445.7275L176.42239,445.24745
				L176.90245,445.24745L176.90245,445.00742L177.38251,445.00742L177.38251,444.7674L178.34263,444.7674L178.34263,444.52737L178.82269,444.52737
				L178.82269,444.28734L179.30275,444.28734L179.30275,444.04732L180.02285,444.04732L180.02285,443.80729L180.50291,443.80729
				L180.50291,443.56727L181.223,443.56727L181.223,443.32724L181.94309,443.32724L181.94309,443.08722L182.90321,443.08722L182.90321,442.84719
				L183.86333,442.84719L183.86333,442.60717L184.58342,442.60717L184.58342,442.36714L185.30352,442.36714L185.30352,442.12711
				L185.78358,442.12711L185.78358,441.88709L186.50367,441.88709L186.50367,441.64706L187.22376,441.64706L187.22376,441.40704
				L188.18388,441.40704L188.18388,441.16701L190.10413,441.16701L190.10413,440.92699L191.30428,440.92699L191.30428,440.68696
				L192.2644,440.68696L192.2644,440.44693L192.98449,440.44693L192.98449,440.20691L193.70458,440.20691L193.70458,439.96688L194.42467,439.96688
				L194.42467,439.72686L194.90473,439.72686L194.90473,439.48683L195.62483,439.48683L195.62483,439.00678L196.10489,439.00678
				L196.10489,438.76676L197.06501,438.76676L197.06501,438.52673L197.54507,438.52673L197.54507,438.2867L198.02513,438.2867L198.02513,438.04668
				L198.74522,438.04668L198.74522,437.80665L199.22528,437.80665L199.22528,437.56663L199.94537,437.56663L199.94537,437.3266L
				200.42544,437.3266L200.42544,437.08658L201.14553,437.08658L201.14553,436.84655L201.62559,436.84655L201.62559,436.60653L202.34568,436.60653
				L202.34568,436.3665L202.82574,436.3665L202.82574,436.12647L203.54583,436.12647L203.54583,435.88645L204.26592,435.88645L204.26592,435.64642
				L204.74598,435.64642L204.74598,435.4064L205.46607,435.4064L205.46607,435.16637L205.94614,435.16637L205.94614,434.92635L206.4262,434.92635
				L206.4262,434.68632L207.14629,434.68632L207.14629,434.4463L207.62635,434.4463L207.62635,434.20627L208.34644,434.20627L208.34644,433.96624
				L208.8265,433.96624L208.8265,433.72622L209.78662,433.72622L209.78662,433.48619L210.26668,433.48619L210.26668,433.24617L210.98678,433.24617
				L210.98678,433.00614L212.90702,433.00614L212.90702,432.52609L214.10717,432.52609L214.10717,432.28607L215.06729,432.28607
				L215.06729,432.04604L216.26745,432.04604L216.26745,431.80601L216.50748,431.80601L216.50748,432.04604L216.98754,432.04604
				L216.98754,431.80601L217.22757,431.80601L217.22757,432.04604L222.26821,432.04604L222.26821,432.28607L223.46836,432.28607
				L223.46836,432.04604L223.94842,432.04604L223.94842,431.80601L224.66851,431.80601L224.66851,431.56599L225.14857,431.56599
				L225.14857,431.32596L225.62863,431.32596L225.62863,431.08594L226.34872,431.08594L226.34872,430.84591L226.58876,430.84591
				L226.58876,430.60589L227.30885,430.60589L227.30885,430.36586L227.78891,430.36586L227.78891,430.12584L228.509,430.12584L228.509,429.88581
				L228.98906,429.88581L228.98906,429.64578L229.70915,429.64578L229.70915,429.40576L230.18921,429.40576L230.18921,429.16573
				L230.42924,429.16573L230.42924,428.92571L231.14933,428.92571L231.14933,428.68568L231.62939,428.68568L231.62939,428.44566
				L232.10946,428.44566L232.10946,428.20563L232.82955,428.20563L232.82955,427.9656L233.30961,427.9656L233.30961,427.72558L234.0297,427.72558
				L234.0297,427.48555L234.50976,427.48555L234.50976,427.24553L235.46988,427.24553L235.46988,427.0055L235.94994,427.0055L235.94994,426.76548
				L236.67003,426.76548L236.67003,426.28543L237.1501,426.28543L237.1501,426.0454L237.63016,426.0454L237.63016,425.80537L238.11022,425.80537
				L238.11022,425.56535L238.83031,425.56535L238.83031,425.32532L239.07034,425.32532L239.07034,425.0853L239.79043,425.0853L239.79043,424.84527
				L240.27049,424.84527L240.27049,424.60525L241.23061,424.60525L241.23061,424.36522L241.71067,424.36522L241.71067,424.1252L
				241.9507,424.1252L241.9507,423.88517L242.43077,423.88517L242.43077,423.64514L242.91083,423.64514L242.91083,423.40512L243.39089,423.40512
				L243.39089,423.16509L243.63092,423.16509L243.63092,422.92507L244.11098,422.92507L244.11098,422.68504L244.59104,422.68504
				L244.59104,422.44502L244.83107,422.44502L244.83107,422.20499L245.31113,422.20499L245.31113,421.96497L245.79119,421.96497
				L245.79119,421.72494L246.27125,421.72494L246.27125,421.48491L246.75131,421.48491L246.75131,421.24489L247.47141,421.24489
				L247.47141,421.00486L247.95147,421.00486L247.95147,420.76484L248.43153,420.76484L248.43153,420.52481L248.91159,420.52481
				L248.91159,420.04476L249.63168,420.04476L249.63168,419.80474L250.11174,419.80474L250.11174,419.56471L250.83183,419.56471
				L250.83183,419.32468L251.31189,419.32468L251.31189,419.08466L251.79195,419.08466L251.79195,418.84463L252.27201,418.84463
				L252.27201,418.60461L252.75208,418.60461L252.75208,418.36458L253.23214,418.36458L253.23214,418.12456L253.47217,418.12456
				L253.47217,417.88453L253.95223,417.88453L253.95223,417.64451L254.43229,417.64451L254.43229,417.40448L254.67232,417.40448
				L254.67232,417.16445L254.91235,417.16445L254.91235,416.92443L255.15238,416.92443L255.15238,416.6844L255.39241,416.6844L255.39241,416.44438
				L255.87247,416.44438L255.87247,416.20435L256.1125,416.20435L256.1125,415.96433L256.35253,415.96433L256.35253,415.7243L256.83259,415.7243
				L256.83259,415.48427L257.07262,415.48427L257.07262,415.24425L258.51281,415.24425L258.51281,415.00422L259.2329,415.00422L
				259.2329,414.7642L260.43305,414.7642L260.43305,414.52417L261.15314,414.52417L261.15314,414.28415L262.11326,414.28415L262.11326,414.04412
				L262.83335,414.04412L262.83335,413.56407L264.27354,413.56407L264.27354,413.32404L265.23366,413.32404L265.23366,413.08402
				L265.95375,413.08402L265.95375,412.84399L267.1539,412.84399L267.1539,412.60397L268.11402,412.60397L268.11402,412.36394L269.55421,412.36394
				L269.55421,412.12392L270.2743,412.12392L270.2743,411.88389L270.99439,411.88389L270.99439,411.64387L271.71448,411.64387L271.71448,411.40384
				L272.43457,411.40384L272.43457,411.16381L273.15466,411.16381L273.15466,410.92379L273.87476,410.92379L273.87476,410.68376
				L274.35482,410.68376L274.35482,410.44374L274.83488,410.44374L274.83488,410.20371L275.31494,410.20371L275.31494,409.96369
				L275.55497,409.96369L275.55497,409.72366L275.795,409.72366L275.795,409.24361L276.03503,409.24361L276.03503,408.28351L276.27506,408.28351
				L276.27506,407.08338L276.51509,407.08338L276.51509,406.12328L276.75512,406.12328L276.75512,405.4032L276.99515,405.4032L276.99515,404.68312
				L277.23518,404.68312L277.23518,404.20307L277.47521,404.20307L277.47521,403.72302L277.71524,403.72302L277.71524,403.483L277.95527,403.483
				L277.95527,403.00294L278.1953,403.00294L278.1953,402.76292L278.43533,402.76292L278.43533,402.52289L278.67537,402.52289L278.67537,402.04284
				L279.15543,402.04284L279.15543,401.80282L279.39546,401.80282L279.39546,401.56279L279.63549,401.56279L279.63549,400.84271
				L280.35558,400.84271L280.35558,400.60269L280.83564,400.60269L280.83564,400.36266L281.3157,400.36266L281.3157,400.12264L282.03579,400.12264
				L282.03579,399.88261L282.51585,399.88261L282.51585,399.64259L282.75588,399.64259L282.75588,399.40256L283.23594,399.40256
				L283.23594,399.16254L283.716,399.16254L283.716,398.92251L283.95604,398.92251L283.95604,398.68248L284.4361,398.68248L284.4361,398.44246
				L284.91616,398.44246L284.91616,398.20243L285.63625,398.20243L285.63625,397.96241L285.87628,397.96241L285.87628,397.72238
				L286.35634,397.72238L286.35634,397.48236L286.59637,397.48236L286.59637,397.00231L286.8364,397.00231L286.8364,396.76228L287.07643,396.76228
				L287.07643,396.52225L287.31646,396.52225L287.31646,396.0422L287.55649,396.0422L287.55649,395.80218L287.79652,395.80218L287.79652,395.32213
				L288.03655,395.32213L288.03655,395.0821L288.27658,395.0821L288.27658,394.36202L288.51661,394.36202L288.51661,394.122L288.75664,394.122
				L288.75664,393.88197L288.99668,393.88197L288.99668,393.40192L289.23671,393.40192L289.23671,393.1619L289.47674,393.1619L289.47674,392.92187
				L289.71677,392.92187L289.71677,392.44182L289.9568,392.44182L289.9568,392.20179L290.19683,392.20179L290.19683,391.96177L290.43686,391.96177
				L290.43686,391.48172L290.67689,391.48172L290.67689,391.24169L290.91692,391.24169L290.91692,391.00167L291.63701,391.00167
				L291.63701,390.76164L291.87704,390.76164L291.87704,390.52161L292.3571,390.52161L292.3571,390.28159L292.83716,390.28159L292.83716,390.04156
				L293.07719,390.04156L293.07719,389.80154L293.55725,389.80154L293.55725,389.56151L294.03731,389.56151L294.03731,389.32149
				L294.51738,389.32149L294.51738,389.08146L294.75741,389.08146L294.75741,388.84144L295.23747,388.84144L295.23747,388.12136
				L295.4775,388.12136L295.4775,387.88133L295.71753,387.88133"/>
			<path clip-path="url(#SVG_CP_2)" fill="none" stroke="#999999" stroke-width="0.96012" stroke-miterlimit="10" stroke-linecap="round" stroke-linejoin="round" d="
				M295.71753,387.88133L295.71753,387.64131L295.95756,387.64131L295.95756,387.40128L296.19759,387.40128L296.19759,387.16126
				L296.43762,387.16126L296.43762,386.92123L296.67765,386.92123L296.67765,386.68121L296.91768,386.68121L296.91768,386.44118
				L297.15771,386.44118L297.15771,386.20115L297.39774,386.20115L297.39774,385.96113L297.63777,385.96113L297.63777,385.7211L
				298.11783,385.7211L298.11783,385.48108L298.35786,385.48108L298.35786,385.24105L298.59789,385.24105L298.59789,385.00103L298.83792,385.00103
				L298.83792,384.761L299.07795,384.761L299.07795,384.52098L299.55802,384.52098L299.55802,384.28095L299.79805,384.28095L299.79805,384.04092
				L300.03808,384.04092L300.03808,383.8009L300.51814,383.8009L300.51814,383.56087L300.75817,383.56087L300.75817,383.32085L300.9982,383.32085
				L300.9982,383.08082L301.47826,383.08082L301.47826,382.8408L301.95832,382.8408L301.95832,382.60077L302.43838,382.60077L302.43838,382.12072
				L302.91844,382.12072L302.91844,381.88069L303.3985,381.88069L303.3985,381.64067L303.63853,381.64067L303.63853,381.40064L303.87856,381.40064
				L303.87856,381.16062L304.59865,381.16062L304.59865,380.92059L305.07872,380.92059L305.07872,380.68057L305.55878,380.68057
				L305.55878,380.44054L305.79881,380.44054L305.79881,380.20051L306.27887,380.20051L306.27887,379.96049L306.75893,379.96049
				L306.75893,379.72046L307.47902,379.72046L307.47902,379.48044L307.95908,379.48044L307.95908,379.24041L308.67917,379.24041
				L308.67917,379.00039L309.15923,379.00039L309.15923,378.76036L309.63929,378.76036L309.63929,378.52034L310.59942,378.52034
				L310.59942,378.28031L311.07948,378.28031L311.07948,378.04028L311.79957,378.04028L311.79957,377.80026L312.27963,377.80026
				L312.27963,377.56023L312.75969,377.56023L312.75969,377.32021L313.47978,377.32021L313.47978,377.08018L314.4399,377.08018L
				314.4399,376.84016L315.16,376.84016L315.16,376.60013L315.88009,376.60013L315.88009,376.36011L316.60018,376.36011L316.60018,375.88005
				L317.5603,375.88005L317.5603,375.64003L318.28039,375.64003L318.28039,375.4L318.76045,375.4L318.76045,375.15998L319.48054,375.15998
				L319.48054,374.91995L319.9606,374.91995L319.9606,374.67993L320.6807,374.67993L320.6807,374.4399L321.16076,374.4399L321.16076,374.19988
				L321.88085,374.19988L321.88085,373.95985L322.36091,373.95985L322.36091,373.71982L323.32103,373.71982L323.32103,373.4798L
				323.80109,373.4798L323.80109,373.23977L324.52118,373.23977L324.52118,372.99975L325.24127,372.99975L325.24127,372.75972L325.96137,372.75972
				L325.96137,372.5197L326.68146,372.5197L326.68146,372.27967L327.40155,372.27967L327.40155,372.03965L328.12164,372.03965L328.12164,371.79962
				L328.6017,371.79962L328.6017,371.55959L329.08176,371.55959L329.08176,371.31957L329.56182,371.31957L329.56182,371.07954L330.28191,371.07954
				L330.28191,370.83952L330.76198,370.83952L330.76198,370.59949L331.48207,370.59949L331.48207,370.35947L331.96213,370.35947
				L331.96213,370.11944L332.44219,370.11944L332.44219,369.87942L332.92225,369.87942L332.92225,369.39936L333.64234,369.39936
				L333.64234,369.15934L333.88237,369.15934L333.88237,368.91931L334.36243,368.91931L334.36243,368.67929L334.84249,368.67929
				L334.84249,368.43926L335.08252,368.43926L335.08252,368.19924L335.32255,368.19924L335.32255,367.95921L335.56258,367.95921
				L335.56258,367.71918L336.04265,367.71918L336.04265,367.47916L336.28268,367.47916L336.28268,367.23913L336.52271,367.23913
				L336.52271,366.99911L336.76274,366.99911L336.76274,366.75908L337.00277,366.75908L337.00277,366.51906L337.2428,366.51906L
				337.2428,366.27903L337.48283,366.27903L337.48283,366.03901L337.72286,366.03901L337.72286,365.79898L337.96289,365.79898L337.96289,365.55895
				L338.20292,365.55895L338.20292,365.31893L338.44295,365.31893L338.44295,365.0789L338.68298,365.0789L338.68298,364.83888L338.92301,364.83888
				L338.92301,364.59885L339.40307,364.59885L339.40307,364.35883L339.88313,364.35883L339.88313,364.1188L340.36319,364.1188L340.36319,363.87878
				L340.84325,363.87878L340.84325,363.63875L341.32332,363.63875L341.32332,363.1587L341.80338,363.1587L341.80338,362.91867L342.52347,362.91867
				L342.52347,362.67865L343.00353,362.67865L343.00353,362.43862L343.24356,362.43862L343.24356,362.1986L343.72362,362.1986L343.72362,361.95857
				L344.20368,361.95857L344.20368,361.71855L344.68374,361.71855L344.68374,361.47852L345.40383,361.47852L345.40383,361.23849
				L345.88389,361.23849L345.88389,360.99847L346.60399,360.99847L346.60399,360.75844L347.08405,360.75844L347.08405,360.51842
				L347.56411,360.51842L347.56411,360.27839L348.52423,360.27839L348.52423,360.03837L349.00429,360.03837L349.00429,359.79834
				L349.72438,359.79834L349.72438,359.55832L350.20444,359.55832L350.20444,359.31829L350.6845,359.31829L350.6845,359.07826L351.40459,359.07826
				L351.40459,358.83824L351.88466,358.83824L351.88466,358.59821L352.60475,358.59821L352.60475,358.35819L353.08481,358.35819
				L353.08481,358.11816L353.8049,358.11816L353.8049,357.87814L354.28496,357.87814L354.28496,357.63811L355.00505,357.63811L355.00505,357.39809
				L355.72514,357.39809L355.72514,356.91803L356.2052,356.91803L356.2052,356.67801L356.9253,356.67801L356.9253,356.43798L357.64539,356.43798
				L357.64539,356.19796L358.60551,356.19796L358.60551,355.95793L359.08557,355.95793L359.08557,355.71791L360.28572,355.71791
				L360.28572,355.47788L361.96594,355.47788L361.96594,355.23785L362.92606,355.23785L362.92606,354.99783L363.64615,354.99783
				L363.64615,354.7578L364.12621,354.7578L364.12621,354.51778L364.8463,354.51778L364.8463,354.27775L365.32636,354.27775L365.32636,354.03773
				L366.04645,354.03773L366.04645,353.7977L366.76654,353.7977L366.76654,353.55768L367.48664,353.55768L367.48664,353.31765L368.20673,353.31765
				L368.20673,353.07762L368.92682,353.07762L368.92682,352.8376L369.64691,352.8376L369.64691,352.59757L370.12697,352.59757L370.12697,352.35755
				L370.84706,352.35755L370.84706,352.11752L371.32712,352.11752L371.32712,351.8775L371.80718,351.8775L371.80718,351.63747L372.04721,351.63747
				L372.04721,351.39745L372.76731,351.39745L372.76731,351.15742L373.24737,351.15742L373.24737,350.91739L373.96746,350.91739
				L373.96746,350.43734L374.44752,350.43734L374.44752,350.19732L374.92758,350.19732L374.92758,349.95729L375.40764,349.95729
				L375.40764,349.71727L375.8877,349.71727L375.8877,349.47724L376.36776,349.47724L376.36776,349.23722L376.84782,349.23722L376.84782,348.99719
				L377.56791,348.99719L377.56791,348.75716L377.80795,348.75716L377.80795,348.51714L378.28801,348.51714L378.28801,348.27711
				L378.52804,348.27711L378.52804,348.03709L379.0081,348.03709L379.0081,347.79706L379.48816,347.79706L379.48816,347.55704L380.20825,347.55704
				L380.20825,347.31701L380.68831,347.31701L380.68831,347.07699L381.16837,347.07699L381.16837,346.83696L381.64843,346.83696
				L381.64843,346.59693L382.12849,346.59693L382.12849,346.35691L382.60855,346.35691L382.60855,346.11688L383.08862,346.11688
				L383.08862,345.87686L383.56868,345.87686L383.56868,345.63683L384.04874,345.63683L384.04874,345.39681L384.5288,345.39681L
				384.5288,345.15678L385.00886,345.15678L385.00886,344.91676L385.48892,344.91676L385.48892,344.67673L385.96898,344.67673L385.96898,344.19668
				L386.68907,344.19668L386.68907,343.95665L387.16913,343.95665L387.16913,343.71663L387.88922,343.71663L387.88922,343.4766L
				388.36929,343.4766L388.36929,343.23658L389.08938,343.23658L389.08938,342.99655L389.56944,342.99655L389.56944,342.75652L391.72971,342.75652
				L391.72971,342.5165L394.13002,342.5165L394.13002,342.27647L396.53032,342.27647L396.53032,342.03645L399.41069,342.03645L399.41069,341.79642
				L402.05102,341.79642L402.05102,341.5564L405.89151,341.5564L405.89151,341.31637L411.89227,341.31637L411.89227,341.07635L415.2527,341.07635
				L415.2527,340.83632L416.69288,340.83632L416.69288,340.59629L417.17294,340.59629L417.17294,340.83632L424.37385,340.83632L
				424.37385,340.59629L425.33398,340.59629L425.33398,340.35627L427.01419,340.35627L427.01419,340.11624L427.97431,340.11624L
				427.97431,339.87622L429.41449,339.87622L429.41449,340.11624L430.37462,340.11624L430.37462,340.35627L431.57477,340.35627L
				431.57477,340.59629L432.05483,340.59629L432.05483,340.83632L432.29486,340.83632L432.29486,341.07635L432.77492,341.07635L
				432.77492,341.31637L433.25498,341.31637L433.25498,341.5564L433.97507,341.5564L433.97507,341.79642L434.69516,341.79642L434.69516,342.03645
				L434.9352,342.03645L434.9352,342.27647L435.65529,342.27647L435.65529,342.5165L436.37538,342.5165L436.37538,342.75652L437.3355,342.75652
				L437.3355,342.99655L437.81556,342.99655L437.81556,343.23658L438.05559,343.23658L438.05559,343.4766L438.77568,343.4766L438.77568,343.71663
				L439.01571,343.71663L439.01571,343.95665L439.7358,343.95665L439.7358,344.19668L440.4559,344.19668L440.4559,344.67673L441.17599,344.67673
				L441.17599,344.91676L441.89608,344.91676L441.89608,345.15678L442.13611,345.15678L442.13611,345.63683L441.89608,345.63683
				L441.89608,345.87686L441.65605,345.87686L441.65605,346.11688L441.17599,346.11688L441.17599,346.35691L440.93596,346.35691
				L440.93596,346.59693L440.69593,346.59693L440.69593,346.83696L440.4559,346.83696L440.4559,347.07699L440.21587,347.07699L440.21587,347.31701
				L439.7358,347.31701L439.7358,347.55704L439.49577,347.55704L439.49577,347.79706L439.25574,347.79706L439.25574,348.03709L439.01571,348.03709
				L439.01571,348.27711L438.77568,348.27711L438.77568,348.51714L438.53565,348.51714L438.53565,348.75716L438.05559,348.75716
				L438.05559,348.99719L437.81556,348.99719L437.81556,349.23722L437.57553,349.23722L437.57553,349.47724L437.3355,349.47724L
				437.3355,349.71727L437.09547,349.71727L437.09547,349.95729L436.37538,349.95729L436.37538,350.19732L436.13535,350.19732L436.13535,350.43734
				L435.89532,350.43734L435.89532,350.91739L435.65529,350.91739L435.65529,351.15742L435.41526,351.15742L435.41526,351.39745
				L435.17523,351.39745L435.17523,351.63747L434.69516,351.63747L434.69516,351.8775L434.45513,351.8775L434.45513,352.11752L434.2151,352.11752
				L434.2151,352.35755L433.97507,352.35755L433.97507,352.59757L433.73504,352.59757L433.73504,352.8376L433.25498,352.8376L433.25498,353.07762
				L432.53489,353.07762L432.53489,353.31765L432.05483,353.31765L432.05483,353.55768L431.33474,353.55768L431.33474,353.7977L
				430.37462,353.7977L430.37462,354.03773L429.65452,354.03773L429.65452,354.27775L428.93443,354.27775L428.93443,354.51778L428.45437,354.51778
				L428.45437,354.7578L427.73428,354.7578L427.73428,354.99783L427.01419,354.99783L427.01419,355.23785L426.2941,355.23785L426.2941,355.47788
				L425.57401,355.47788L425.57401,355.71791L425.09395,355.71791L425.09395,355.95793L424.37385,355.95793L424.37385,356.19796
				L423.41373,356.19796L423.41373,356.43798L422.69364,356.43798L422.69364,356.67801L421.97355,356.67801L421.97355,356.91803
				L421.49349,356.91803L421.49349,357.39809L420.7734,357.39809L420.7734,357.63811L420.05331,357.63811L420.05331,357.87814L419.33322,357.87814
				L419.33322,358.11816L418.61312,358.11816L418.61312,358.35819L418.13306,358.35819L418.13306,358.59821L417.17294,358.59821
				L417.17294,358.83824L416.45285,358.83824L416.45285,359.07826L415.73276,359.07826L415.73276,359.31829L415.01267,359.31829
				L415.01267,359.55832L414.53261,359.55832L414.53261,359.79834L413.81251,359.79834L413.81251,360.03837L413.09242,360.03837
				L413.09242,360.27839L412.37233,360.27839L412.37233,360.51842L411.41221,360.51842L411.41221,360.75844L410.93215,360.75844
				L410.93215,360.99847L410.21206,360.99847L410.21206,361.23849L409.49197,361.23849L409.49197,361.47852L408.77187,361.47852
				L408.77187,361.71855L408.53184,361.71855L408.53184,363.87878L408.29181,363.87878L408.29181,369.39936L408.05178,369.39936
				L408.05178,375.4L407.81175,375.4L407.81175,381.40064L407.57172,381.40064L407.57172,382.60077L368.68679,382.60077L368.68679,382.8408
				L368.44676,382.8408L368.44676,383.08082L368.20673,383.08082L368.20673,383.32085L367.9667,383.32085L367.9667,383.56087L367.72667,383.56087
				L367.72667,383.8009L367.48664,383.8009L367.48664,384.04092L367.00657,384.04092L367.00657,384.28095L366.76654,384.28095L366.76654,384.52098
				L366.52651,384.52098L366.52651,384.761L366.28648,384.761L366.28648,385.00103L366.04645,385.00103L366.04645,385.24105L365.80642,385.24105
				L365.80642,385.48108L365.56639,385.48108L365.56639,385.7211L365.32636,385.7211L365.32636,385.96113L365.08633,385.96113L365.08633,386.20115
				L364.8463,386.20115L364.8463,386.44118L364.60627,386.44118L364.60627,386.68121L364.36624,386.68121L364.36624,386.92123L364.12621,386.92123
				L364.12621,387.16126L363.88618,387.16126L363.88618,387.40128L363.64615,387.40128L363.64615,387.64131L363.40612,387.64131
				L363.40612,387.88133L363.16609,387.88133L363.16609,388.12136L362.446,388.12136L362.446,388.36138L362.20597,388.36138L362.20597,388.84144
				L361.96594,388.84144L361.96594,389.08146L361.7259,389.08146L361.7259,389.32149L361.48587,389.32149L361.48587,389.56151L361.24584,389.56151
				L361.24584,389.80154L360.76578,389.80154L360.76578,390.04156L360.52575,390.04156L360.52575,390.28159L360.28572,390.28159
				L360.28572,390.52161L360.04569,390.52161L360.04569,390.76164L359.80566,390.76164L359.80566,391.00167L359.56563,391.00167
				L359.56563,391.24169L359.3256,391.24169L359.3256,391.48172L359.08557,391.48172L359.08557,391.72174L358.60551,391.72174L358.60551,391.96177
				L358.36548,391.96177L358.36548,392.20179L358.12545,392.20179L358.12545,392.44182L357.88542,392.44182L357.88542,392.68185
				L357.64539,392.68185L357.64539,392.92187L357.40536,392.92187L357.40536,393.1619L356.9253,393.1619L356.9253,393.40192L356.68526,393.40192
				L356.68526,393.64195L356.44523,393.64195L356.44523,393.88197L356.2052,393.88197L356.2052,394.122L355.72514,394.122L355.72514,394.36202
				L355.48511,394.36202L355.48511,394.60205L355.24508,394.60205L355.24508,395.0821L355.00505,395.0821L355.00505,395.32213L354.52499,395.32213
				L354.52499,395.56215L354.28496,395.56215L354.28496,395.80218L354.04493,395.80218L354.04493,396.0422L353.8049,396.0422L353.8049,396.28223
				L353.56487,396.28223L353.56487,396.52225L353.32484,396.52225L353.32484,396.76228L353.08481,396.76228L353.08481,397.00231
				L352.60475,397.00231L352.60475,397.24233L352.36472,397.24233L352.36472,397.48236L352.12469,397.48236L352.12469,397.72238
				L351.88466,397.72238L351.88466,397.96241L351.64463,397.96241L351.64463,398.20243L351.40459,398.20243L351.40459,398.44246
				L351.16456,398.44246L351.16456,398.68248L350.92453,398.68248L350.92453,398.92251L350.6845,398.92251L350.6845,399.16254L350.44447,399.16254
				L350.44447,399.40256L350.20444,399.40256L350.20444,399.64259L349.96441,399.64259L349.96441,399.88261L349.72438,399.88261
				L349.72438,400.12264L349.24432,400.12264L349.24432,400.36266L349.00429,400.36266L349.00429,400.60269L348.76426,400.60269
				L348.76426,400.84271L348.52423,400.84271L348.52423,401.08274L348.04417,401.08274L348.04417,401.56279L347.80414,401.56279
				L347.80414,401.80282L347.56411,401.80282L347.56411,402.04284L347.32408,402.04284L347.32408,402.28287L347.08405,402.28287
				L347.08405,402.52289L346.84402,402.52289L346.84402,402.76292L346.60399,402.76292L346.60399,403.00294L346.36396,403.00294
				L346.36396,403.24297L346.12392,403.24297L346.12392,403.483L345.88389,403.483L345.88389,403.72302L345.64386,403.72302L345.64386,403.96305
				L345.40383,403.96305L345.40383,404.20307L345.1638,404.20307L345.1638,404.4431L344.92377,404.4431L344.92377,404.68312L344.68374,404.68312
				L344.68374,404.92315L344.44371,404.92315L344.44371,405.16318L344.20368,405.16318L344.20368,405.4032L343.96365,405.4032L343.96365,405.64323
				L343.72362,405.64323L343.72362,405.88325L343.48359,405.88325L343.48359,406.12328L343.24356,406.12328L343.24356,406.3633L
				343.00353,406.3633L343.00353,406.60333L342.7635,406.60333L342.7635,406.84335L342.52347,406.84335L342.52347,407.08338L342.28344,407.08338
				L342.28344,407.32341L341.80338,407.32341L341.80338,407.80346L341.56335,407.80346L341.56335,408.04348L341.32332,408.04348
				L341.32332,408.28351L341.08328,408.28351L341.08328,408.52353L340.84325,408.52353L340.84325,408.76356L340.60322,408.76356
				L340.60322,409.00358L340.36319,409.00358L340.36319,409.24361L340.12316,409.24361L340.12316,409.48364L339.88313,409.48364
				L339.88313,409.72366L339.6431,409.72366L339.6431,409.96369L339.40307,409.96369L339.40307,410.20371L339.16304,410.20371L339.16304,410.44374
				L338.92301,410.44374L338.92301,410.68376L338.68298,410.68376L338.68298,410.92379L338.44295,410.92379L338.44295,411.16381
				L338.20292,411.16381L338.20292,411.40384L337.96289,411.40384L337.96289,411.64387L337.72286,411.64387L337.72286,411.88389
				L337.48283,411.88389L337.48283,412.12392L337.2428,412.12392L337.2428,412.36394L337.00277,412.36394L337.00277,412.60397L336.76274,412.60397
				L336.76274,412.84399L336.52271,412.84399L336.52271,413.08402L336.28268,413.08402L336.28268,413.32404L336.04265,413.32404
				L336.04265,413.56407L335.56258,413.56407L335.56258,414.04412L335.32255,414.04412L335.32255,414.28415L335.08252,414.28415
				L335.08252,414.52417L334.84249,414.52417L334.84249,414.7642L334.60246,414.7642L334.60246,415.00422L334.36243,415.00422L334.36243,415.24425
				L334.1224,415.24425L334.1224,415.48427L333.88237,415.48427L333.88237,415.7243L333.64234,415.7243L333.64234,415.96433L333.40231,415.96433
				L333.40231,416.20435L333.16228,416.20435L333.16228,416.44438L332.68222,416.44438L332.68222,416.6844L332.44219,416.6844L332.44219,416.92443
				L331.96213,416.92443L331.96213,417.16445L331.7221,417.16445L331.7221,417.40448L331.24204,417.40448L331.24204,417.64451L331.00201,417.64451
				L331.00201,417.88453L330.76198,417.88453L330.76198,418.12456L330.28191,418.12456L330.28191,418.36458L330.04188,418.36458
				L330.04188,418.60461L329.56182,418.60461L329.56182,418.84463L329.08176,418.84463L329.08176,419.08466L328.84173,419.08466
				L328.84173,419.32468L328.36167,419.32468L328.36167,419.56471L328.12164,419.56471L328.12164,419.80474L327.64158,419.80474
				L327.64158,420.04476L327.40155,420.04476L327.40155,420.52481L327.16152,420.52481L327.16152,420.76484L326.68146,420.76484
				L326.68146,421.00486L326.44143,421.00486L326.44143,421.24489L325.96137,421.24489L325.96137,421.48491L325.72134,421.48491
				L325.72134,421.72494L325.24127,421.72494L325.24127,421.96497L325.00124,421.96497L325.00124,422.20499L324.76121,422.20499
				L324.76121,422.44502L324.28115,422.44502L324.28115,422.68504L324.04112,422.68504L324.04112,422.92507L323.56106,422.92507
				L323.56106,423.16509L323.32103,423.16509L323.32103,423.40512L322.84097,423.40512L322.84097,423.64514L322.36091,423.64514
				L322.36091,423.88517L322.12088,423.88517L322.12088,424.1252L321.64082,424.1252L321.64082,424.36522L321.40079,424.36522L321.40079,424.60525
				L321.16076,424.60525L321.16076,424.84527L320.6807,424.84527L320.6807,425.0853L320.44067,425.0853L320.44067,425.32532L319.9606,425.32532
				L319.9606,425.56535L319.72057,425.56535L319.72057,425.80537L319.24051,425.80537L319.24051,426.0454L319.00048,426.0454L319.00048,426.28543
				L318.76045,426.28543L318.76045,426.76548L318.28039,426.76548L318.28039,427.0055L318.04036,427.0055L318.04036,427.24553L317.5603,427.24553
				L317.5603,427.48555L317.32027,427.48555L317.32027,427.72558L317.08024,427.72558L317.08024,427.9656L316.36015,427.9656L316.36015,428.20563
				L316.12012,428.20563L316.12012,428.44566L315.64006,428.44566L315.64006,428.68568L315.40003,428.68568L315.40003,428.92571
				L315.16,428.92571L315.16,429.16573L314.67993,429.16573L314.67993,429.40576L314.4399,429.40576L314.4399,429.64578L313.95984,429.64578
				L313.95984,429.88581L313.71981,429.88581L313.71981,430.12584L313.23975,430.12584L313.23975,430.36586L312.99972,430.36586
				L312.99972,430.60589L312.75969,430.60589L312.75969,430.84591L312.27963,430.84591L312.27963,431.08594L312.0396,431.08594L
				312.0396,431.80601L312.27963,431.80601L312.27963,431.56599L312.51966,431.56599L312.51966,432.04604L312.75969,432.04604L312.75969,431.80601
				L313.23975,431.80601L313.23975,431.56599L313.71981,431.56599L313.71981,431.32596L314.19987,431.32596L314.19987,431.08594
				L314.67993,431.08594L314.67993,430.84591L315.16,430.84591L315.16,430.60589L315.64006,430.60589L315.64006,430.36586L316.12012,430.36586
				L316.12012,430.12584L316.60018,430.12584L316.60018,429.88581L317.32027,429.88581L317.32027,429.64578L317.80033,429.64578
				L317.80033,429.40576L318.28039,429.40576L318.28039,429.16573L318.76045,429.16573L318.76045,428.92571L319.24051,428.92571
				L319.24051,428.68568L319.72057,428.68568L319.72057,428.44566L319.9606,428.44566L319.9606,428.20563L320.44067,428.20563L320.44067,427.9656
				L320.6807,427.9656L320.6807,427.72558L320.92073,427.72558L320.92073,427.48555L321.40079,427.48555L321.40079,427.24553L321.64082,427.24553
				L321.64082,427.0055L322.12088,427.0055L322.12088,426.76548L322.36091,426.76548L322.36091,426.28543L322.84097,426.28543L322.84097,426.0454
				L323.32103,426.0454L323.32103,425.80537L323.56106,425.80537L323.56106,425.56535L324.04112,425.56535L324.04112,425.32532"/>
			<path clip-path="url(#SVG_CP_2)" fill="none" stroke="#999999" stroke-width="0.96012" stroke-miterlimit="10" stroke-linecap="round" stroke-linejoin="round" d="
				M324.04112,425.32532L324.28115,425.32532L324.28115,425.0853L324.76121,425.0853L324.76121,424.84527L325.00124,424.84527L325.00124,424.60525
				L325.48131,424.60525L325.48131,424.36522L325.72134,424.36522L325.72134,424.1252L325.96137,424.1252L325.96137,423.88517L326.44143,423.88517
				L326.44143,423.64514L326.68146,423.64514L326.68146,423.40512L327.16152,423.40512L327.16152,423.16509L327.40155,423.16509
				L327.40155,422.92507L327.88161,422.92507L327.88161,422.68504L328.12164,422.68504L328.12164,422.44502L328.36167,422.44502
				L328.36167,422.20499L328.6017,422.20499L328.6017,421.96497L328.84173,421.96497L328.84173,421.72494L329.08176,421.72494L329.08176,421.48491
				L329.56182,421.48491L329.56182,421.24489L329.80185,421.24489L329.80185,421.00486L330.04188,421.00486L330.04188,420.76484
				L330.28191,420.76484L330.28191,420.52481L330.52194,420.52481L330.52194,420.04476L330.76198,420.04476L330.76198,419.80474
				L331.00201,419.80474L331.00201,419.56471L331.24204,419.56471L331.24204,419.32468L331.48207,419.32468L331.48207,419.08466
				L331.7221,419.08466L331.7221,418.84463L331.96213,418.84463L331.96213,418.60461L332.20216,418.60461L332.20216,418.36458L332.44219,418.36458
				L332.44219,418.12456L332.68222,418.12456L332.68222,417.88453L332.92225,417.88453L332.92225,417.64451L333.16228,417.64451
				L333.16228,417.40448L333.40231,417.40448L333.40231,417.16445L333.64234,417.16445L333.64234,416.92443L333.88237,416.92443
				L333.88237,416.6844L334.1224,416.6844L334.1224,416.44438L334.36243,416.44438L334.36243,416.20435L334.60246,416.20435L334.60246,415.96433
				L334.84249,415.96433L334.84249,415.7243L335.08252,415.7243L335.08252,415.48427L335.32255,415.48427L335.32255,415.24425L335.56258,415.24425
				L335.56258,415.00422L336.04265,415.00422L336.04265,414.7642L336.28268,414.7642L336.28268,414.52417L336.52271,414.52417L336.52271,414.28415
				L336.76274,414.28415L336.76274,414.04412L337.00277,414.04412L337.00277,413.56407L337.2428,413.56407L337.2428,413.32404L337.48283,413.32404
				L337.48283,413.08402L337.72286,413.08402L337.72286,412.84399L337.96289,412.84399L337.96289,412.60397L338.20292,412.60397
				L338.20292,412.36394L338.44295,412.36394L338.44295,412.12392L338.68298,412.12392L338.68298,411.88389L338.92301,411.88389
				L338.92301,411.64387L339.16304,411.64387L339.16304,411.40384L339.40307,411.40384L339.40307,411.16381L339.6431,411.16381L
				339.6431,410.92379L339.88313,410.92379L339.88313,410.68376L340.12316,410.68376L340.12316,410.44374L340.36319,410.44374L340.36319,410.20371
				L340.60322,410.20371L340.60322,409.96369L340.84325,409.96369L340.84325,409.72366L341.08328,409.72366L341.08328,409.48364
				L341.32332,409.48364L341.32332,409.24361L341.56335,409.24361L341.56335,409.00358L341.80338,409.00358L341.80338,408.76356
				L342.28344,408.76356L342.28344,408.52353L342.52347,408.52353L342.52347,408.28351L342.7635,408.28351L342.7635,408.04348L343.00353,408.04348
				L343.00353,407.80346L343.24356,407.80346L343.24356,407.32341L343.48359,407.32341L343.48359,407.08338L343.72362,407.08338
				L343.72362,406.84335L343.96365,406.84335L343.96365,406.60333L344.20368,406.60333L344.20368,406.3633L344.44371,406.3633L344.44371,406.12328
				L344.68374,406.12328L344.68374,405.88325L344.92377,405.88325L344.92377,405.64323L345.1638,405.64323L345.1638,405.4032L345.40383,405.4032
				L345.40383,405.16318L345.64386,405.16318L345.64386,404.92315L345.88389,404.92315L345.88389,404.68312L346.12392,404.68312
				L346.12392,404.4431L346.36396,404.4431L346.36396,404.20307L346.60399,404.20307L346.60399,403.96305L346.84402,403.96305L346.84402,403.72302
				L347.08405,403.72302L347.08405,403.483L347.32408,403.483L347.32408,403.24297L347.56411,403.24297L347.56411,403.00294L347.80414,403.00294
				L347.80414,402.76292L348.04417,402.76292L348.04417,402.52289L348.52423,402.52289L348.52423,402.28287L348.76426,402.28287
				L348.76426,402.04284L349.00429,402.04284L349.00429,401.80282L349.24432,401.80282L349.24432,401.56279L349.48435,401.56279
				L349.48435,401.08274L349.72438,401.08274L349.72438,400.84271L349.96441,400.84271L349.96441,400.60269L350.20444,400.60269
				L350.20444,400.36266L350.44447,400.36266L350.44447,400.12264L350.6845,400.12264L350.6845,399.88261L350.92453,399.88261L350.92453,399.64259
				L351.16456,399.64259L351.16456,399.40256L351.40459,399.40256L351.40459,399.16254L351.64463,399.16254L351.64463,398.92251
				L351.88466,398.92251L351.88466,398.68248L352.12469,398.68248L352.12469,398.44246L352.36472,398.44246L352.36472,398.20243
				L352.60475,398.20243L352.60475,397.96241L352.84478,397.96241L352.84478,397.72238L353.08481,397.72238L353.08481,397.48236
				L353.32484,397.48236L353.32484,397.24233L353.56487,397.24233L353.56487,397.00231L353.8049,397.00231L353.8049,396.76228L354.04493,396.76228
				L354.04493,396.52225L354.28496,396.52225L354.28496,396.28223L354.52499,396.28223L354.52499,396.0422L355.00505,396.0422L355.00505,395.80218
				L355.24508,395.80218L355.24508,395.56215L355.48511,395.56215L355.48511,395.32213L355.72514,395.32213L355.72514,395.0821L
				355.96517,395.0821L355.96517,394.60205L356.2052,394.60205L356.2052,394.36202L356.44523,394.36202L356.44523,394.122L356.68526,394.122
				L356.68526,393.88197L356.9253,393.88197L356.9253,393.64195L357.16533,393.64195L357.16533,393.40192L357.40536,393.40192L357.40536,393.1619
				L357.88542,393.1619L357.88542,392.92187L358.12545,392.92187L358.12545,392.68185L358.36548,392.68185L358.36548,392.44182L
				358.60551,392.44182L358.60551,392.20179L358.84554,392.20179L358.84554,391.96177L359.08557,391.96177L359.08557,391.72174L
				359.3256,391.72174L359.3256,391.48172L359.56563,391.48172L359.56563,391.24169L359.80566,391.24169L359.80566,391.00167L360.04569,391.00167
				L360.04569,390.76164L360.28572,390.76164L360.28572,390.52161L360.52575,390.52161L360.52575,390.28159L360.76578,390.28159
				L360.76578,390.04156L361.24584,390.04156L361.24584,389.80154L361.48587,389.80154L361.48587,389.56151L361.7259,389.56151L
				361.7259,389.32149L362.20597,389.32149L362.20597,389.08146L362.68603,389.08146L362.68603,388.84144L362.92606,388.84144L362.92606,388.36138
				L363.16609,388.36138L363.16609,388.12136L363.64615,388.12136L363.64615,387.88133L363.88618,387.88133L363.88618,387.64131
				L364.36624,387.64131L364.36624,387.40128L364.8463,387.40128L364.8463,387.16126L365.08633,387.16126L365.08633,386.92123L365.56639,386.92123
				L365.56639,386.68121L366.04645,386.68121L366.04645,386.44118L366.28648,386.44118L366.28648,386.20115L366.76654,386.20115
				L366.76654,385.96113L367.48664,385.96113L367.48664,385.7211L367.72667,385.7211L367.72667,385.48108L367.9667,385.48108L367.9667,385.24105
				L368.44676,385.24105L368.44676,385.00103L368.68679,385.00103L368.68679,384.761L369.16685,384.761L369.16685,384.52098L369.40688,384.52098
				L369.40688,384.28095L369.88694,384.28095L369.88694,384.04092L370.12697,384.04092L370.12697,383.8009L370.60703,383.8009L370.60703,383.56087
				L370.84706,383.56087L370.84706,383.32085L371.32712,383.32085L371.32712,383.08082L371.56715,383.08082L371.56715,382.8408L
				407.57172,382.8408L407.57172,386.44118L407.81175,386.44118L407.81175,386.20115L408.29181,386.20115L408.29181,385.96113L408.77187,385.96113
				L408.77187,385.7211L409.25194,385.7211L409.25194,385.48108L409.732,385.48108L409.732,385.24105L410.21206,385.24105L410.21206,385.00103
				L410.69212,385.00103L410.69212,384.761L411.41221,384.761L411.41221,384.52098L412.1323,384.52098L412.1323,384.28095L412.61236,384.28095
				L412.61236,384.04092L413.09242,384.04092L413.09242,383.8009L413.57248,383.8009L413.57248,383.56087L414.05254,383.56087L414.05254,383.32085
				L414.53261,383.32085L414.53261,383.08082L415.01267,383.08082L415.01267,382.8408L415.49273,382.8408L415.49273,382.60077L415.97279,382.60077
				L415.97279,382.12072L416.45285,382.12072L416.45285,381.88069L416.93291,381.88069L416.93291,381.64067L417.41297,381.64067
				L417.41297,381.40064L418.13306,381.40064L418.13306,381.16062L418.61312,381.16062L418.61312,380.92059L419.09318,380.92059
				L419.09318,380.68057L419.57325,380.68057L419.57325,380.44054L420.05331,380.44054L420.05331,380.20051L420.53337,380.20051
				L420.53337,379.96049L421.01343,379.96049L421.01343,379.72046L421.49349,379.72046L421.49349,379.48044L421.97355,379.48044
				L421.97355,379.24041L422.45361,379.24041L422.45361,379.00039L423.1737,379.00039L423.1737,378.76036L423.65376,378.76036L423.65376,378.52034
				L424.37385,378.52034L424.37385,378.28031L424.85392,378.28031L424.85392,378.04028L425.33398,378.04028L425.33398,377.80026
				L425.81404,377.80026L425.81404,377.56023L426.2941,377.56023L426.2941,377.32021L426.77416,377.32021L426.77416,377.08018L427.25422,377.08018
				L427.25422,376.84016L427.73428,376.84016L427.73428,376.60013L428.21434,376.60013L428.21434,376.36011L428.6944,376.36011L
				428.6944,375.88005L429.17446,375.88005L429.17446,375.64003L429.65452,375.64003L429.65452,375.4L430.13459,375.4L430.13459,375.15998
				L430.85468,375.15998L430.85468,374.91995L431.33474,374.91995L431.33474,374.67993L431.8148,374.67993L431.8148,374.4399L432.29486,374.4399
				L432.29486,374.19988L432.77492,374.19988L432.77492,373.95985L433.25498,373.95985L433.25498,373.71982L433.73504,373.71982
				L433.73504,373.4798L434.2151,373.4798L434.2151,373.23977L434.9352,373.23977L434.9352,372.99975L435.41526,372.99975L435.41526,372.75972
				L436.61541,372.75972L436.61541,372.99975L438.53565,372.99975L438.53565,373.23977L440.21587,373.23977L440.21587,373.4798L
				441.89608,373.4798L441.89608,373.71982L443.81632,373.71982L443.81632,373.95985L445.49654,373.95985L445.49654,374.19988L446.69669,374.19988
				L446.69669,374.4399L446.21663,374.4399L446.21663,374.67993L445.9766,374.67993L445.9766,374.91995L445.73657,374.91995L445.73657,375.15998
				L445.2565,375.15998L445.2565,375.4L444.77644,375.4L444.77644,375.64003L444.29638,375.64003L444.29638,375.88005L444.05635,375.88005
				L444.05635,376.36011L442.37614,376.36011L442.37614,376.60013L442.13611,376.60013L442.13611,376.84016L441.65605,376.84016
				L441.65605,377.08018L441.41602,377.08018L441.41602,377.32021L441.17599,377.32021L441.17599,377.56023L440.93596,377.56023
				L440.93596,377.80026L440.69593,377.80026L440.69593,378.04028L440.4559,378.04028L440.4559,378.28031L440.21587,378.28031L440.21587,378.52034
				L439.97583,378.52034L439.97583,378.76036L439.49577,378.76036L439.49577,379.00039L439.25574,379.00039L439.25574,379.24041
				L439.01571,379.24041L439.01571,379.48044L438.77568,379.48044L438.77568,379.72046L438.53565,379.72046L438.53565,379.96049
				L438.29562,379.96049L438.29562,380.20051L438.05559,380.20051L438.05559,380.44054L437.57553,380.44054L437.57553,380.92059
				L437.09547,380.92059L437.09547,381.16062L436.61541,381.16062L436.61541,381.40064L436.37538,381.40064L436.37538,381.64067
				L436.13535,381.64067L436.13535,381.88069L435.89532,381.88069L435.89532,382.12072L435.65529,382.12072L435.65529,382.60077
				L435.41526,382.60077L435.41526,383.08082L435.17523,383.08082L435.17523,383.32085L434.9352,383.32085L434.9352,383.8009L434.69516,383.8009
				L434.69516,384.04092L434.45513,384.04092L434.45513,384.28095L434.2151,384.28095L434.2151,384.52098L433.97507,384.52098L433.97507,385.00103
				L433.73504,385.00103L433.73504,385.24105L433.49501,385.24105L433.49501,385.48108L433.25498,385.48108L433.25498,385.96113
				L433.01495,385.96113L433.01495,386.20115L432.77492,386.20115L432.77492,386.44118L432.53489,386.44118L432.53489,386.92123
				L432.29486,386.92123L432.29486,387.16126L432.05483,387.16126L432.05483,387.64131L431.8148,387.64131L431.8148,388.12136L431.57477,388.12136
				L431.57477,389.08146L431.33474,389.08146L431.33474,389.56151L431.09471,389.56151L431.09471,390.04156L430.85468,390.04156
				L430.85468,390.52161L430.37462,390.52161L430.37462,391.00167L430.13459,391.00167L430.13459,391.48172L429.89456,391.48172
				L429.89456,391.96177L429.65452,391.96177L429.65452,392.44182L429.41449,392.44182L429.41449,392.92187L429.17446,392.92187
				L429.17446,393.40192L428.93443,393.40192L428.93443,393.88197L428.6944,393.88197L428.6944,394.36202L428.45437,394.36202L428.45437,395.0821
				L428.21434,395.0821L428.21434,395.80218L427.97431,395.80218L427.97431,396.0422L427.73428,396.0422L427.73428,396.52225L427.49425,396.52225
				L427.49425,396.76228L427.25422,396.76228L427.25422,397.24233L427.01419,397.24233L427.01419,397.48236L426.77416,397.48236
				L426.77416,397.72238L426.53413,397.72238L426.53413,397.96241L426.2941,397.96241L426.2941,398.20243L426.05407,398.20243L426.05407,398.44246
				L425.81404,398.44246L425.81404,398.68248L425.57401,398.68248L425.57401,398.92251L425.33398,398.92251L425.33398,399.16254
				L425.09395,399.16254L425.09395,399.40256L424.85392,399.40256L424.85392,399.64259L424.61389,399.64259L424.61389,399.88261
				L424.37385,399.88261L424.37385,400.12264L423.89379,400.12264L423.89379,400.60269L423.65376,400.60269L423.65376,400.84271
				L423.41373,400.84271L423.41373,401.08274L423.1737,401.08274L423.1737,401.80282L422.93367,401.80282L422.93367,402.28287L422.69364,402.28287
				L422.69364,402.76292L422.45361,402.76292L422.45361,403.00294L422.21358,403.00294L422.21358,403.483L421.97355,403.483L421.97355,403.96305
				L421.73352,403.96305L421.73352,404.4431L421.49349,404.4431L421.49349,404.92315L421.25346,404.92315L421.25346,405.4032L421.01343,405.4032
				L421.01343,405.88325L420.7734,405.88325L420.7734,406.3633L420.53337,406.3633L420.53337,406.84335L420.29334,406.84335L420.29334,407.32341
				L420.05331,407.32341L420.05331,408.04348L419.81328,408.04348L419.81328,408.52353L419.57325,408.52353L419.57325,409.24361
				L419.33322,409.24361L419.33322,409.72366L419.09318,409.72366L419.09318,410.20371L418.85315,410.20371L418.85315,410.92379
				L418.61312,410.92379L418.61312,411.40384L418.37309,411.40384L418.37309,411.88389L418.13306,411.88389L418.13306,412.36394
				L417.653,412.36394L417.653,412.84399L417.41297,412.84399L417.41297,413.32404L417.17294,413.32404L417.17294,413.56407L416.93291,413.56407
				L416.93291,414.28415L416.69288,414.28415L416.69288,414.52417L416.45285,414.52417L416.45285,415.00422L416.21282,415.00422
				L416.21282,415.24425L415.97279,415.24425L415.97279,415.7243L415.73276,415.7243L415.73276,415.96433L415.49273,415.96433L415.49273,416.20435
				L415.2527,416.20435L415.2527,416.6844L415.01267,416.6844L415.01267,416.92443L414.77264,416.92443L414.77264,417.16445L414.53261,417.16445
				L414.53261,417.40448L414.29258,417.40448L414.29258,417.64451L414.05254,417.64451L414.05254,417.88453L413.81251,417.88453
				L413.81251,418.36458L413.57248,418.36458L413.57248,418.60461L413.33245,418.60461L413.33245,418.84463L413.09242,418.84463
				L413.09242,419.08466L412.85239,419.08466L412.85239,419.32468L412.61236,419.32468L412.61236,419.56471L412.37233,419.56471
				L412.37233,419.80474L412.1323,419.80474L412.1323,420.04476L411.89227,420.04476L411.89227,420.52481L411.41221,420.52481L411.41221,420.76484
				L411.17218,420.76484L411.17218,421.00486L410.93215,421.00486L410.93215,421.24489L410.69212,421.24489L410.69212,421.48491
				L410.45209,421.48491L410.45209,421.72494L410.21206,421.72494L410.21206,421.96497L409.97203,421.96497L409.97203,422.44502
				L409.732,422.44502L409.732,422.68504L409.49197,422.68504L409.49197,422.92507L409.25194,422.92507L409.25194,423.16509L409.01191,423.16509
				L409.01191,423.40512L408.77187,423.40512L408.77187,423.88517L408.53184,423.88517L408.53184,424.1252L408.29181,424.1252L408.29181,424.36522
				L408.05178,424.36522L408.05178,424.60525L407.81175,424.60525L407.81175,424.84527L407.57172,424.84527L407.57172,425.0853L
				407.09166,425.0853L407.09166,425.32532L406.85163,425.32532L406.85163,425.56535L406.37157,425.56535L406.37157,425.80537L405.89151,425.80537
				L405.89151,426.0454L405.41145,426.0454L405.41145,426.28543L404.93139,426.28543L404.93139,426.76548L404.45133,426.76548L404.45133,427.0055
				L403.97127,427.0055L403.97127,427.24553L403.4912,427.24553L403.4912,427.48555L403.01114,427.48555L403.01114,427.72558L402.77111,427.72558
				L402.77111,427.9656L402.29105,427.9656L402.29105,428.20563L401.81099,428.20563L401.81099,428.44566L401.57096,428.44566L401.57096,428.68568
				L401.0909,428.68568L401.0909,428.92571L400.61084,428.92571L400.61084,429.16573L400.37081,429.16573L400.37081,429.40576L399.89075,429.40576
				L399.89075,429.64578L399.41069,429.64578L399.41069,429.88581L399.17066,429.88581L399.17066,430.12584L398.6906,430.12584L
				398.6906,430.36586L398.21053,430.36586L398.21053,430.60589L397.73047,430.60589L397.73047,430.84591L397.49044,430.84591L397.49044,431.08594
				L397.01038,431.08594L397.01038,431.32596L396.53032,431.32596L396.53032,431.56599L396.29029,431.56599L396.29029,431.80601
				L395.81023,431.80601L395.81023,432.04604L395.33017,432.04604L395.33017,432.28607L394.85011,432.28607L394.85011,432.52609
				L394.37005,432.52609L394.37005,433.00614L393.88999,433.00614L393.88999,433.24617L393.64996,433.24617L393.64996,433.48619
				L393.16989,433.48619L393.16989,433.72622L392.4498,433.72622L392.4498,433.96624L392.20977,433.96624L392.20977,434.20627L391.72971,434.20627
				L391.72971,434.4463L391.24965,434.4463L391.24965,434.68632L390.76959,434.68632L390.76959,434.92635L390.0495,434.92635L390.0495,435.16637
				L389.56944,435.16637L389.56944,435.4064L388.84935,435.4064L388.84935,435.64642L388.36929,435.64642L388.36929,435.88645L387.88922,435.88645
				L387.88922,436.12647L387.16913,436.12647L387.16913,436.3665L386.68907,436.3665L386.68907,436.60653L385.96898,436.60653L385.96898,436.84655
				L385.24889,436.84655L385.24889,437.08658L385.00886,437.08658L385.00886,437.3266L384.5288,437.3266L384.5288,437.56663L384.28877,437.56663
				L384.28877,437.80665L383.80871,437.80665L383.80871,438.04668L383.32865,438.04668L383.32865,438.2867L383.08862,438.2867L383.08862,438.52673
				L382.84859,438.52673L382.84859,438.76676L382.36852,438.76676L382.36852,439.00678L381.88846,439.00678L381.88846,439.48683
				L381.4084,439.48683L381.4084,439.72686L381.16837,439.72686L381.16837,439.96688L380.68831,439.96688L380.68831,440.20691L380.20825,440.20691
				L380.20825,440.44693L379.24813,440.44693L379.24813,440.68696L378.76807,440.68696L378.76807,440.92699L378.04798,440.92699
				L378.04798,441.16701L377.56791,441.16701L377.56791,441.40704L377.08785,441.40704L377.08785,441.64706L376.60779,441.64706
				L376.60779,441.88709L376.12773,441.88709L376.12773,442.12711L375.64767,442.12711L375.64767,442.36714L375.16761,442.36714
				L375.16761,442.60717L374.92758,442.60717L374.92758,442.84719L374.44752,442.84719L374.44752,443.08722L373.96746,443.08722
				L373.96746,443.32724L373.4874,443.32724L373.4874,443.56727L373.00734,443.56727L373.00734,443.80729L372.52728,443.80729L372.52728,444.04732
				L372.28724,444.04732L372.28724,444.28734L371.80718,444.28734L371.80718,444.52737L371.56715,444.52737L371.56715,444.7674L
				371.08709,444.7674L371.08709,445.00742L370.84706,445.00742L370.84706,445.24745L370.367,445.24745L370.367,445.7275L369.88694,445.7275
				L369.88694,445.96752L369.64691,445.96752L369.64691,446.20755L369.16685,446.20755L369.16685,446.44757L368.68679,446.44757
				L368.68679,446.6876L368.20673,446.6876L368.20673,446.92763L367.72667,446.92763L367.72667,447.16765L367.00657,447.16765L367.00657,447.40768
				L366.28648,447.40768L366.28648,447.6477L365.80642,447.6477L365.80642,447.88773L365.32636,447.88773L365.32636,448.12775L364.8463,448.12775
				L364.8463,448.36778L364.36624,448.36778L364.36624,448.6078L363.64615,448.6078L363.64615,448.84783L363.16609,448.84783L363.16609,449.08786
				L362.68603,449.08786L362.68603,449.32788L362.20597,449.32788L362.20597,449.56791L361.7259,449.56791L361.7259,449.80793L360.76578,449.80793
				L360.76578,450.04796L360.28572,450.04796L360.28572,450.28798L359.80566,450.28798L359.80566,450.52801L359.08557,450.52801
				L359.08557,450.76803L358.60551,450.76803L358.60551,451.00806L358.12545,451.00806L358.12545,451.24809L357.40536,451.24809
				L357.40536,451.48811L356.9253,451.48811L356.9253,451.96816L356.2052,451.96816L356.2052,452.20819L355.72514,452.20819L355.72514,452.44821
				L355.24508,452.44821L355.24508,452.68824L354.28496,452.68824L354.28496,452.92826L353.8049,452.92826L353.8049,453.16829L353.08481,453.16829
				L353.08481,453.40832L352.60475,453.40832L352.60475,453.64834L352.12469,453.64834L352.12469,453.88837L351.40459,453.88837
				L351.40459,454.12839L350.92453,454.12839L350.92453,454.36842L350.20444,454.36842L350.20444,454.60844L349.72438,454.60844
				L349.72438,454.84847L349.00429,454.84847L349.00429,455.0885L348.52423,455.0885L348.52423,455.32852L348.04417,455.32852L348.04417,455.56855
				L347.80414,455.56855L347.80414,455.80857L347.56411,455.80857L347.56411,456.0486L347.32408,456.0486L347.32408,456.28862L347.08405,456.28862
				L347.08405,456.52865L346.84402,456.52865L346.84402,456.76867L346.60399,456.76867L346.60399,457.0087L346.36396,457.0087L346.36396,457.24873
				L346.12392,457.24873L346.12392,457.48875L345.88389,457.48875L345.88389,457.72878L345.64386,457.72878L345.64386,457.9688L
				345.40383,457.9688L345.40383,458.44885L345.1638,458.44885"/>
			<path clip-path="url(#SVG_CP_2)" fill="none" stroke="#999999" stroke-width="0.96012" stroke-miterlimit="10" stroke-linecap="round" stroke-linejoin="round" d="
				M345.1638,458.44885L345.1638,458.68888L344.92377,458.68888L344.92377,458.9289L344.68374,458.9289L344.68374,459.16893L344.44371,459.16893
				L344.44371,459.40896L344.20368,459.40896L344.20368,459.64898L343.96365,459.64898L343.96365,459.88901L343.72362,459.88901
				L343.72362,460.12903L343.48359,460.12903L343.48359,460.36906L343.24356,460.36906L343.24356,460.60908L343.00353,460.60908
				L343.00353,460.84911L342.7635,460.84911L342.7635,461.08913L342.52347,461.08913L342.52347,461.32916L342.28344,461.32916L342.28344,461.56919
				L341.80338,461.56919L341.80338,461.80921L341.56335,461.80921L341.56335,462.04924L341.32332,462.04924L341.32332,462.28926
				L341.08328,462.28926L341.08328,462.52929L340.84325,462.52929L340.84325,462.76931L340.60322,462.76931L340.60322,463.00934
				L340.36319,463.00934L340.36319,463.24936L340.12316,463.24936L340.12316,463.48939L339.88313,463.48939L339.88313,463.72942
				L339.6431,463.72942L339.6431,463.96944L339.40307,463.96944L339.40307,464.20947L339.16304,464.20947L339.16304,464.68952L338.92301,464.68952
				L338.92301,464.92954L338.68298,464.92954L338.68298,465.16957L338.44295,465.16957L338.44295,465.40959L337.96289,465.40959
				L337.96289,465.64962L337.72286,465.64962L337.72286,465.88965L337.48283,465.88965L337.48283,466.12967L337.00277,466.12967
				L337.00277,466.3697L336.76274,466.3697L336.76274,466.60972L336.28268,466.60972L336.28268,466.84975L336.04265,466.84975L336.04265,467.08977
				L335.56258,467.08977L335.56258,467.3298L334.84249,467.3298L334.84249,467.56983L334.36243,467.56983L334.36243,467.80985L333.64234,467.80985
				L333.64234,468.04988L332.92225,468.04988L332.92225,468.2899L332.44219,468.2899L332.44219,468.52993L331.96213,468.52993L331.96213,468.76995
				L331.24204,468.76995L331.24204,469.00998L330.76198,469.00998L330.76198,469.25L330.04188,469.25L330.04188,469.49003L329.56182,469.49003
				L329.56182,469.73006L328.6017,469.73006L328.6017,469.97008L328.12164,469.97008L328.12164,470.21011L327.40155,470.21011L327.40155,470.45013
				L326.92149,470.45013L326.92149,470.93018L326.44143,470.93018L326.44143,471.17021L325.72134,471.17021L325.72134,471.41023
				L325.24127,471.41023L325.24127,471.65026L324.52118,471.65026L324.52118,471.89029L324.04112,471.89029L324.04112,472.13031
				L323.32103,472.13031L323.32103,472.37034L322.60094,472.37034L322.60094,472.61036L320.92073,472.61036L320.92073,472.85039
				L320.20063,472.85039L320.20063,473.09041L319.24051,473.09041L319.24051,473.33044L318.04036,473.33044L318.04036,473.57046
				L315.88009,473.57046L315.88009,473.81049L312.0396,473.81049L312.0396,473.57046L310.11936,473.57046L310.11936,473.33044L306.99896,473.33044
				L306.99896,473.57046L303.3985,473.57046L303.3985,473.81049L300.75817,473.81049L300.75817,474.05052L296.91768,474.05052L296.91768,474.29054
				L296.43762,474.29054L296.43762,474.53057L295.95756,474.53057L295.95756,474.77059L295.23747,474.77059L295.23747,475.01062
				L294.75741,475.01062L294.75741,475.25064L294.27735,475.25064L294.27735,475.49067L293.79728,475.49067L293.79728,475.73069
				L293.55725,475.73069L293.55725,475.97072L293.07719,475.97072L293.07719,476.21075L292.59713,476.21075L292.59713,476.45077
				L292.11707,476.45077L292.11707,476.6908L291.63701,476.6908L291.63701,476.93082L290.91692,476.93082L290.91692,477.41087L290.43686,477.41087
				L290.43686,477.6509L289.71677,477.6509L289.71677,477.89092L289.23671,477.89092L289.23671,478.13095L288.51661,478.13095L288.51661,478.37098
				L288.03655,478.37098L288.03655,478.611L287.55649,478.611L287.55649,478.85103L286.8364,478.85103L286.8364,479.09105L286.35634,479.09105
				L286.35634,479.33108L285.63625,479.33108L285.63625,479.5711L284.91616,479.5711L284.91616,479.81113L284.4361,479.81113L284.4361,480.05116
				L283.716,480.05116L283.716,480.29118L283.23594,480.29118L283.23594,480.53121L282.51585,480.53121L282.51585,480.77123L282.03579,480.77123
				L282.03579,481.01126L281.3157,481.01126L281.3157,481.25128L280.83564,481.25128L280.83564,481.49131L280.35558,481.49131L280.35558,481.73133
				L279.63549,481.73133L279.63549,481.97136L279.15543,481.97136L279.15543,482.21139L278.1953,482.21139L278.1953,482.45141L277.71524,482.45141
				L277.71524,482.69144L277.23518,482.69144L277.23518,482.93146L276.51509,482.93146L276.51509,483.17149L275.795,483.17149L275.795,483.65154
				L274.83488,483.65154L274.83488,483.89156L274.11479,483.89156L274.11479,484.13159L273.15466,484.13159L273.15466,484.37162
				L271.95451,484.37162L271.95451,484.61164L271.23442,484.61164L271.23442,484.85167L270.51433,484.85167L270.51433,485.09169
				L269.79424,485.09169L269.79424,485.33172L269.31418,485.33172L269.31418,485.57174L268.59409,485.57174L268.59409,485.81177
				L267.87399,485.81177L267.87399,486.05179L267.39393,486.05179L267.39393,486.29182L265.47369,486.29182L265.47369,486.53185
				L264.51357,486.53185L264.51357,486.77187L264.03351,486.77187L264.03351,487.0119L263.55345,487.0119L263.55345,487.25192L263.31342,487.25192
				L263.31342,487.49195L263.07339,487.49195L263.07339,487.73197L262.83335,487.73197L262.83335,487.972L262.59332,487.972L262.59332,488.21202
				L262.11326,488.21202L262.11326,488.45205L261.87323,488.45205L261.87323,488.69208L261.39317,488.69208L261.39317,488.9321L
				261.15314,488.9321L261.15314,489.17213L260.67308,489.17213L260.67308,489.41215L260.43305,489.41215L260.43305,489.8922L260.19302,489.8922
				L260.19302,490.13223L259.47293,490.13223L259.47293,490.37225L259.2329,490.37225L259.2329,490.61228L258.75284,490.61228L258.75284,490.85231
				L258.51281,490.85231L258.51281,491.09233L258.27278,491.09233L258.27278,491.33236L257.79272,491.33236L257.79272,491.57238
				L257.55268,491.57238L257.55268,491.81241L257.07262,491.81241L257.07262,492.05243L256.83259,492.05243L256.83259,492.29246
				L256.35253,492.29246L256.35253,492.53249L256.1125,492.53249L256.1125,492.77251L255.63244,492.77251L255.63244,493.01254L255.15238,493.01254
				L255.15238,493.25256L254.67232,493.25256L254.67232,493.49259L254.19226,493.49259L254.19226,493.73261L253.47217,493.73261
				L253.47217,493.97264L252.75208,493.97264L252.75208,494.21266L252.27201,494.21266L252.27201,494.45269L251.79195,494.45269
				L251.79195,494.69272L251.31189,494.69272L251.31189,494.93274L250.5918,494.93274L250.5918,495.17277L250.11174,495.17277L250.11174,495.41279
				L249.63168,495.41279L249.63168,495.65282L248.91159,495.65282L248.91159,495.89284L248.43153,495.89284L248.43153,496.37289
				L247.71144,496.37289L247.71144,496.61292L246.99134,496.61292L246.99134,496.85295L246.27125,496.85295L246.27125,497.09297
				L245.79119,497.09297L245.79119,497.333L245.0711,497.333L245.0711,497.57302L244.59104,497.57302L244.59104,497.81305L243.87095,497.81305
				L243.87095,498.05307L243.39089,498.05307L243.39089,498.2931L242.6708,498.2931L242.6708,498.53312L242.19074,498.53312L242.19074,498.77315
				L241.47064,498.77315L241.47064,499.01318L240.75055,499.01318L240.75055,499.2532L240.03046,499.2532L240.03046,499.49323L239.5504,499.49323
				L239.5504,499.73325L238.83031,499.73325L238.83031,499.97328L238.35025,499.97328L238.35025,500.2133L237.63016,500.2133L237.63016,500.45333
				L237.1501,500.45333L237.1501,500.69335L236.67003,500.69335L236.67003,500.93338L236.43,500.93338L236.43,501.17341L235.94994,501.17341
				L235.94994,501.41343L235.70991,501.41343L235.70991,501.65346L235.46988,501.65346L235.46988,501.89348L234.98982,501.89348
				L234.98982,502.13351L234.50976,502.13351L234.50976,502.61356L234.0297,502.61356L234.0297,502.85359L233.78967,502.85359L233.78967,503.09361
				L233.30961,503.09361L233.30961,503.33364L233.06958,503.33364L233.06958,503.57366L232.58952,503.57366L232.58952,503.81369
				L232.10946,503.81369L232.10946,504.05371L231.38936,504.05371L231.38936,504.29374L230.9093,504.29374L230.9093,504.53376L230.42924,504.53376
				L230.42924,504.77379L229.70915,504.77379L229.70915,505.01382L229.22909,505.01382L229.22909,505.25384L228.509,505.25384L228.509,505.49387
				L227.78891,505.49387L227.78891,505.73389L227.06882,505.73389L227.06882,505.97392L226.58876,505.97392L226.58876,506.21394
				L226.10869,506.21394L226.10869,506.45397L225.3886,506.45397L225.3886,506.69399L224.90854,506.69399L224.90854,506.93402L224.42848,506.93402
				L224.42848,507.17405L223.94842,507.17405L223.94842,507.41407L223.46836,507.41407L223.46836,507.6541L222.9883,507.6541L222.9883,507.89412
				L222.50824,507.89412L222.50824,508.13415L222.26821,508.13415L222.26821,508.37417L221.54812,508.37417L221.54812,508.85422
				L221.06805,508.85422L221.06805,509.09425L220.34796,509.09425L220.34796,509.33428L219.8679,509.33428L219.8679,509.5743L219.38784,509.5743
				L219.38784,509.81433L218.66775,509.81433L218.66775,510.05435L218.18769,510.05435L218.18769,510.29438L217.4676,510.29438L
				217.4676,510.5344L216.98754,510.5344L216.98754,510.77443L216.50748,510.77443L216.50748,511.01445L215.30732,511.01445L215.30732,511.25448
				L214.58723,511.25448L214.58723,511.49451L213.62711,511.49451L213.62711,511.73453L212.66699,511.73453L212.66699,511.97456
				L211.9469,511.97456L211.9469,512.21458L211.22681,512.21458L211.22681,512.45461L210.50671,512.45461L210.50671,512.69463L210.02665,512.69463
				L210.02665,512.93466L209.54659,512.93466L209.54659,513.17468L208.58647,513.17468L208.58647,513.41471L208.10641,513.41471
				L208.10641,513.65474L207.38632,513.65474L207.38632,513.89476L206.90626,513.89476L206.90626,514.13479L205.46607,514.13479
				L205.46607,514.37481L204.26592,514.37481L204.26592,514.61484L202.82574,514.61484L202.82574,514.85486L202.34568,514.85486
				L202.34568,515.33492L201.86562,515.33492L201.86562,515.57494L201.38556,515.57494L201.38556,515.81497L200.66547,515.81497
				L200.66547,516.05499L200.1854,516.05499L200.1854,516.29502L199.70534,516.29502L199.70534,516.53504L198.98525,516.53504L198.98525,516.77507
				L198.26516,516.77507L198.26516,517.01509L197.7851,517.01509L197.7851,517.25512L197.30504,517.25512L197.30504,517.49515L196.34492,517.49515
				L196.34492,517.73517L195.3848,517.73517L195.3848,517.9752L194.42467,517.9752L194.42467,518.21522L192.74446,518.21522L192.74446,517.9752
				L191.54431,517.9752L191.54431,517.73517L191.30428,517.73517L191.30428,517.9752L191.06425,517.9752L191.06425,517.73517L187.94385,517.73517
				L187.94385,517.49515L187.70382,517.49515L187.70382,517.73517L186.50367,517.73517L186.50367,517.9752L185.30352,517.9752L185.30352,518.21522
				L183.86333,518.21522L183.86333,518.45525L182.42315,518.45525L182.42315,518.69527L178.34263,518.69527L178.34263,518.45525
				L173.30199,518.45525L173.30199,518.69527L169.94157,518.69527L169.94157,518.9353L167.78129,518.9353L167.78129,518.69527L167.0612,518.69527
				L167.0612,518.9353L166.58114,518.9353L166.58114,518.69527L165.38099,518.69527L165.38099,518.45525L163.94081,518.45525L163.94081,518.21522
				L162.98068,518.21522L162.98068,517.9752L160.58038,517.9752L160.58038,517.73517L160.10032,517.73517L160.10032,517.49515L159.62026,517.49515
				L159.62026,517.25512L159.38023,517.25512L159.38023,517.01509L158.66013,517.01509L158.66013,516.77507L158.4201,516.77507L
				158.4201,516.53504L157.70001,516.53504L157.70001,516.29502L156.97992,516.29502L156.97992,516.05499L155.77977,516.05499L155.77977,515.81497
				L155.29971,515.81497L155.29971,515.57494L154.57962,515.57494L154.57962,515.33492L154.33959,515.33492L154.33959,514.85486
				L154.09956,514.85486L154.09956,514.37481L153.85953,514.37481L153.85953,514.13479L153.6195,514.13479L153.6195,513.65474"/>
			<path clip-path="url(#SVG_CP_2)" fill="none" stroke="#999999" stroke-width="0.96012" stroke-miterlimit="10" stroke-linecap="round" stroke-linejoin="round" d="
				M278.67537,449.80793L277.95527,449.80793L277.95527,450.04796L276.99515,450.04796L276.99515,450.28798L276.03503,450.28798
				L276.03503,450.52801L275.795,450.52801L275.795,450.76803L275.55497,450.76803L275.55497,451.00806L275.07491,451.00806L275.07491,451.24809
				L274.83488,451.24809L274.83488,451.48811L274.35482,451.48811L274.35482,451.96816L274.11479,451.96816L274.11479,452.20819
				L273.87476,452.20819L273.87476,452.44821L273.3947,452.44821L273.3947,452.68824L273.15466,452.68824L273.15466,452.92826L272.43457,452.92826
				L272.43457,453.16829L272.19454,453.16829L272.19454,453.40832L271.71448,453.40832L271.71448,453.64834L271.47445,453.64834
				L271.47445,453.88837L271.23442,453.88837L271.23442,454.12839L270.75436,454.12839L270.75436,454.36842L270.51433,454.36842
				L270.51433,454.60844L270.03427,454.60844L270.03427,454.84847L269.79424,454.84847L269.79424,455.0885L269.07415,455.0885L269.07415,455.32852
				L268.59409,455.32852L268.59409,455.56855L267.87399,455.56855L267.87399,455.80857L267.1539,455.80857L267.1539,456.0486L266.67384,456.0486
				L266.67384,456.28862L265.71372,456.28862L265.71372,456.52865L265.23366,456.52865L265.23366,456.76867L264.51357,456.76867
				L264.51357,457.0087L264.03351,457.0087L264.03351,457.24873L263.31342,457.24873L263.31342,457.48875L262.83335,457.48875L262.83335,457.72878
				L262.11326,457.72878L262.11326,457.9688L261.39317,457.9688L261.39317,458.44885L260.91311,458.44885L260.91311,458.68888L260.19302,458.68888
				L260.19302,458.9289L259.47293,458.9289L259.47293,459.16893L258.75284,459.16893L258.75284,459.40896L258.03275,459.40896L258.03275,459.64898
				L257.55268,459.64898L257.55268,459.88901L256.83259,459.88901L256.83259,460.12903L256.35253,460.12903L256.35253,460.36906
				L255.63244,460.36906L255.63244,460.60908L254.91235,460.60908L254.91235,460.84911L254.43229,460.84911L254.43229,461.08913
				L253.47217,461.08913L253.47217,461.32916L252.75208,461.32916L252.75208,461.56919L252.27201,461.56919L252.27201,461.80921
				L251.55192,461.80921L251.55192,462.04924L251.07186,462.04924L251.07186,462.28926L250.35177,462.28926L250.35177,462.52929
				L249.63168,462.52929L249.63168,462.76931L249.15162,462.76931L249.15162,463.00934L248.43153,463.00934L248.43153,463.24936
				L247.71144,463.24936L247.71144,463.48939L246.99134,463.48939L246.99134,463.72942L246.27125,463.72942L246.27125,463.96944
				L245.55116,463.96944L245.55116,464.20947L244.83107,464.20947L244.83107,464.68952L244.35101,464.68952L244.35101,464.92954
				L243.63092,464.92954L243.63092,465.16957L242.91083,465.16957L242.91083,465.40959L242.19074,465.40959L242.19074,465.64962
				L241.47064,465.64962L241.47064,465.88965L240.51052,465.88965L240.51052,466.12967L239.79043,466.12967L239.79043,466.3697L
				239.07034,466.3697L239.07034,466.60972L238.35025,466.60972L238.35025,466.84975L237.63016,466.84975L237.63016,467.08977L236.91007,467.08977
				L236.91007,467.3298L236.43,467.3298L236.43,467.56983L235.70991,467.56983L235.70991,467.80985L235.46988,467.80985L235.46988,468.04988
				L234.98982,468.04988L234.98982,468.2899L234.50976,468.2899L234.50976,468.52993L234.0297,468.52993L234.0297,468.76995L235.46988,468.76995
				L235.46988,468.52993L246.99134,468.52993L246.99134,468.2899L247.71144,468.2899L247.71144,468.04988L248.1915,468.04988L248.1915,467.80985
				L248.67156,467.80985L248.67156,467.56983L249.39165,467.56983L249.39165,467.3298L249.87171,467.3298L249.87171,467.08977L250.11174,467.08977
				L250.11174,466.84975L250.35177,466.84975L250.35177,466.60972L250.5918,466.60972L250.5918,466.3697L250.83183,466.3697L250.83183,466.12967
				L251.07186,466.12967L251.07186,465.88965L251.31189,465.88965L251.31189,465.64962L251.55192,465.64962L251.55192,465.40959
				L252.03198,465.40959L252.03198,465.16957L252.27201,465.16957L252.27201,464.92954L252.51205,464.92954L252.51205,464.68952
				L252.75208,464.68952L252.75208,464.20947L252.99211,464.20947L252.99211,463.96944L253.23214,463.96944L253.23214,463.72942
				L253.47217,463.72942L253.47217,463.48939L254.19226,463.48939L254.19226,463.24936L254.43229,463.24936L254.43229,463.00934
				L254.67232,463.00934L254.67232,462.76931L254.91235,462.76931L254.91235,462.52929L255.15238,462.52929L255.15238,462.28926
				L255.39241,462.28926L255.39241,462.04924L255.63244,462.04924L255.63244,461.80921L256.1125,461.80921L256.1125,461.56919L256.35253,461.56919
				L256.35253,461.32916L256.59256,461.32916L256.59256,461.08913L256.83259,461.08913L256.83259,460.84911L257.07262,460.84911
				L257.07262,460.60908L257.31265,460.60908L257.31265,460.36906L257.79272,460.36906L257.79272,460.12903L258.03275,460.12903
				L258.03275,459.88901L260.19302,459.88901L260.19302,459.64898L260.43305,459.64898L260.43305,459.40896L260.67308,459.40896
				L260.67308,459.16893L261.15314,459.16893L261.15314,458.9289L261.87323,458.9289L261.87323,458.68888L262.59332,458.68888L262.59332,458.44885
				L263.07339,458.44885L263.07339,457.9688L263.79348,457.9688L263.79348,457.72878L264.27354,457.72878L264.27354,457.48875L264.99363,457.48875
				L264.99363,457.24873L265.47369,457.24873L265.47369,457.0087L266.43381,457.0087L266.43381,456.76867L267.1539,456.76867L267.1539,456.52865
				L268.83412,456.52865L268.83412,456.28862L269.07415,456.28862L269.07415,456.0486L269.31418,456.0486L269.31418,455.80857L269.55421,455.80857
				L269.55421,455.56855L269.79424,455.56855L269.79424,455.32852L270.03427,455.32852L270.03427,455.0885L270.51433,455.0885L270.51433,454.84847
				L270.99439,454.84847L270.99439,454.60844L271.47445,454.60844L271.47445,454.36842L272.19454,454.36842L272.19454,454.12839
				L272.91463,454.12839L272.91463,453.88837L273.3947,453.88837L273.3947,453.64834L274.11479,453.64834L274.11479,453.40832L274.59485,453.40832
				L274.59485,453.16829L275.07491,453.16829L275.07491,452.92826L275.55497,452.92826L275.55497,452.68824L276.27506,452.68824
				L276.27506,452.44821L276.51509,452.44821L276.51509,452.20819L276.75512,452.20819L276.75512,451.96816L276.99515,451.96816
				L276.99515,451.48811L277.23518,451.48811L277.23518,451.24809L277.47521,451.24809L277.47521,451.00806L277.71524,451.00806
				L277.71524,450.76803L277.95527,450.76803L277.95527,450.52801L278.1953,450.52801L278.1953,450.28798L278.43533,450.28798L278.43533,450.04796
				L278.67537,450.04796L278.67537,449.80793L279.15543,449.80793L279.15543,449.56791L279.87552,449.56791L279.87552,449.32788
				L280.83564,449.32788L280.83564,449.08786L281.55573,449.08786L281.55573,448.84783L282.51585,448.84783L282.51585,448.6078L
				283.23594,448.6078L283.23594,448.36778L283.95604,448.36778L283.95604,448.12775L284.67613,448.12775L284.67613,447.88773L285.39622,447.88773
				L285.39622,447.6477L286.11631,447.6477L286.11631,447.40768L286.8364,447.40768L286.8364,447.16765L287.55649,447.16765L287.55649,446.92763
				L288.27658,446.92763L288.27658,446.6876L288.99668,446.6876L288.99668,446.44757L289.71677,446.44757L289.71677,446.20755L290.19683,446.20755
				L290.19683,445.96752L290.67689,445.96752L290.67689,445.7275L291.15695,445.7275L291.15695,445.24745L290.91692,445.24745L290.91692,445.00742
				L291.15695,445.00742L291.15695,444.7674L290.67689,444.7674L290.67689,444.52737L290.91692,444.52737L290.91692,444.28734L290.43686,444.28734
				L290.43686,444.04732L290.67689,444.04732L290.67689,443.80729L290.19683,443.80729L290.19683,443.56727L290.43686,443.56727
				L290.43686,443.32724L289.9568,443.32724L289.9568,443.08722L290.19683,443.08722L290.19683,442.84719L289.9568,442.84719L289.9568,442.60717
				L290.19683,442.60717L290.19683,442.36714L289.71677,442.36714L289.71677,442.12711L289.9568,442.12711L289.9568,441.88709L289.47674,441.88709
				L289.47674,441.64706L289.71677,441.64706L289.71677,441.40704L289.23671,441.40704L289.23671,441.16701L289.47674,441.16701
				L289.47674,440.92699L288.99668,440.92699L288.99668,440.68696L289.23671,440.68696L289.23671,440.44693L288.99668,440.44693
				L288.99668,440.20691L289.23671,440.20691L289.23671,439.96688L288.51661,439.96688L288.51661,440.20691L288.27658,440.20691
				L288.27658,440.44693L288.03655,440.44693L288.03655,440.68696L287.79652,440.68696L287.79652,440.92699L287.55649,440.92699
				L287.55649,441.16701L287.31646,441.16701L287.31646,441.40704L287.07643,441.40704L287.07643,441.64706L286.8364,441.64706L
				286.8364,441.88709L286.59637,441.88709L286.59637,442.12711L286.35634,442.12711L286.35634,442.36714L286.11631,442.36714L286.11631,442.60717
				L285.87628,442.60717L285.87628,442.84719L285.63625,442.84719L285.63625,443.08722L285.39622,443.08722L285.39622,443.32724
				L284.91616,443.32724L284.91616,443.56727L284.67613,443.56727L284.67613,443.80729L284.4361,443.80729L284.4361,444.04732L284.19607,444.04732
				L284.19607,444.28734L283.95604,444.28734L283.95604,444.52737L283.716,444.52737L283.716,444.7674L283.47597,444.7674L283.47597,445.00742
				L283.23594,445.00742L283.23594,445.24745L282.99591,445.24745L282.99591,445.7275L282.75588,445.7275L282.75588,445.96752L282.51585,445.96752
				L282.51585,446.20755L282.27582,446.20755L282.27582,446.44757L282.03579,446.44757L282.03579,446.6876L281.79576,446.6876L281.79576,446.92763
				L281.55573,446.92763L281.55573,447.16765L281.3157,447.16765L281.3157,447.40768L281.07567,447.40768L281.07567,447.6477L280.83564,447.6477
				L280.83564,447.88773L280.59561,447.88773L280.59561,448.12775L280.35558,448.12775L280.35558,448.36778L280.11555,448.36778
				L280.11555,448.6078L279.87552,448.6078L279.87552,448.84783L279.63549,448.84783L279.63549,449.08786L279.39546,449.08786L279.39546,449.32788
				L279.15543,449.32788L279.15543,449.56791L278.67537,449.56791L278.67537,449.80793"/>
		</g>
</g></svg>