<?xml version="1.0" encoding="utf-8" standalone="no"?>
<!-- Creator: ESRI ArcMap 10.0.0.2414 -->
<!DOCTYPE svg PUBLIC "-//W3C//DTD SVG 1.1//EN"  "http://www.w3.org/Graphics/SVG/1.1/DTD/svg11.dtd">
<svg width="524.0420768pt" height="417.925655476pt" viewBox="32.15712744 212.166307262 524.0420768 417.925655476" enable-background="new 32.15712744 212.166307262 524.0420768 417.925655476"
	version="1.1" xmlns="http://www.w3.org/2000/svg" xmlns:xlink="http://www.w3.org/1999/xlink" >
	<g id="Couches">
		<g id="reservoirs">
			<path clip-path="url(#SVG_CP_2)" fill-opacity="0.2" fill="#07866D" fill-rule="evenodd" stroke="none" stroke-width="" stra="1.44018" stroke-miterlimit="10" stroke-linecap="round" stroke-linejoin="round" d="
				M383.08862,320.19412L379.96822,321.39425L380.68831,323.55448L383.08862,322.59438L383.32865,323.07443L386.44904,322.11433
				L386.20901,321.63427L386.9291,321.15422L385.96898,318.75397L383.08862,320.19412L381.16837,315.63363L381.16837,315.15358L
				387.64919,312.5133L388.12926,312.5133L389.80947,316.83376L391.96974,315.87366L403.25117,308.67289L409.97203,304.59246L410.45209,304.59246
				L413.57248,311.31317L417.17294,318.51394L417.653,320.19412L419.09318,325.95473L420.05331,330.03517L420.7734,331.2353L421.49349,330.99527
				L427.25422,329.31509L433.25498,327.87494L433.73504,329.31509L435.41526,329.07507L434.9352,327.39489L439.7358,326.43479L440.69593,330.27519
				L444.53641,329.07507L444.05635,326.67481L446.21663,326.19476L448.61693,325.47468L448.3769,324.27456L451.25727,323.55448L
				451.4973,324.99463L452.69745,324.75461L452.69745,324.99463L456.05788,324.51458L455.57781,322.11433L460.85848,320.9142L470.21967,318.51394
				L480.78101,316.11369L481.98117,315.87366L487.26184,316.59374L493.98269,315.39361L494.94281,319.47404L500.46351,319.9541L
				499.98345,317.31381L505.02409,317.31381L513.18513,317.79386L523.02637,318.27392L523.9865,320.19412L525.66671,319.71407L527.34692,324.27456
				L525.42668,324.75461L525.66671,325.23466L524.46656,325.47468L524.94662,327.63491L527.34692,327.39489L528.06701,327.15486
				L529.5072,332.43543L528.30704,332.67545L529.02714,335.07571L528.06701,335.31573L528.06701,335.55576L525.90674,336.27583L
				525.90674,336.51586L522.78634,337.47596L523.50643,339.63619L533.10765,336.75589L538.62835,355.47788L540.5486,360.03837L547.74951,376.12008
				L542.9489,376.60013L547.74951,394.36202L546.0693,395.56215L546.78939,398.44246L548.4696,403.00294L549.18969,404.4431L543.66899,405.16318
				L540.5486,405.16318L536.46808,403.483L532.86762,401.80282L526.14677,402.28287L524.94662,402.52289L522.54631,402.04284L516.30552,403.96305
				L514.62531,404.68312L514.86534,408.28351L511.50491,409.96369L513.42516,419.08466L513.42516,423.16509L513.42516,426.0454L
				512.46503,430.60589L513.42516,437.80665L498.30324,442.60717L489.18208,445.24745L481.5011,447.88773L473.5801,451.48811L471.41983,452.92826
				L469.25955,455.56855L466.37919,458.20883L464.939,459.40896L464.45894,459.88901L466.37919,463.24936L466.37919,466.12967L467.09928,468.52993
				L469.25955,469.00998L469.01952,471.89029L467.81937,474.53057L468.0594,476.93082L468.53946,480.29118L469.49958,482.21139L
				469.25955,483.41151L469.73961,485.33172L473.34007,486.77187L474.78025,488.21202L473.5801,489.8922L472.86001,491.57238L470.4597,493.49259
				L471.41983,495.65282L470.69973,496.85295L469.49958,500.45333L466.37919,503.57366L467.33931,507.41407L472.86001,504.77379
				L475.74037,509.09425L476.94053,511.49451L475.26031,512.69463L480.30095,519.41535L487.50187,524.45589L476.22043,538.37737
				L477.66062,540.77763L476.94053,542.45781L476.7005,543.89796L479.1008,547.97839L484.6215,555.17916L484.6215,557.57942L492.54251,566.22034
				L494.94281,567.42047L498.7833,568.86062L501.42363,572.22098L495.90293,576.30141L499.02333,582.54208L506.46427,578.94169L
				508.14449,578.70167L512.46503,578.46164L515.82546,584.22226L518.70583,588.30269L520.8661,591.183L516.78558,592.62315L512.70506,595.50346
				L510.06473,596.46356L506.46427,597.90371L499.02333,602.70423L498.30324,600.30397L492.54251,602.4642L487.98193,605.34451L
				489.18208,609.18492L490.62226,612.30525L481.98117,615.90563L481.26107,613.50538L473.10004,615.42558L472.86001,612.30525L
				469.01952,613.02533L469.49958,617.82584L466.61922,617.82584L460.37842,618.54591L453.17751,618.30589L443.81632,613.98543L
				432.53489,610.38504L430.61465,609.66497L426.77416,608.46484L423.1737,606.54463L417.653,607.50474L409.97203,609.66497L398.6906,612.54527
				L394.37005,613.98543L390.52956,606.78466L388.84935,607.02469L387.64919,602.22417L386.9291,602.70423L384.28877,603.90435L
				380.92834,605.82456L374.92758,606.54463L374.92758,613.02533L378.04798,613.7454L378.04798,615.18556L380.20825,615.42558L379.72819,618.06586
				L372.52728,617.82584L364.36624,617.10576L362.92606,613.02533L360.28572,613.98543L359.80566,616.38568L357.16533,615.90563
				L356.44523,609.66497L355.00505,610.14502L352.60475,605.10448L354.52499,604.3844L354.04493,600.30397L346.84402,601.02405L
				346.36396,602.70423L350.92453,602.94425L351.88466,615.18556L344.20368,613.26535L343.96365,611.34515L333.16228,609.18492L
				328.6017,608.22481L328.12164,605.34451L326.92149,600.06394L323.56106,600.06394L323.80109,603.18428L323.80109,604.3844L323.80109,604.86446
				L323.80109,609.18492L317.08024,609.90499L311.55954,610.62507L311.31951,607.50474L305.07872,607.26471L305.07872,611.34515
				L297.15771,607.50474L304.83869,596.94361L301.71829,592.86318L306.03884,585.66241L296.67765,581.10192L292.11707,577.26151
				L282.51585,570.5408L275.07491,566.94041L275.55497,564.06011L267.63396,565.26024L262.83335,564.06011L263.07339,569.82072L
				265.47369,572.22098L265.47369,575.10128L260.67308,573.66113L255.15238,571.74093L253.23214,571.26087L252.27201,568.86062L
				248.67156,568.86062L246.27125,564.54016L246.27125,560.93977L245.0711,555.17916L243.63092,553.49898L244.11098,548.45844L236.67003,546.77827
				L235.46988,550.13862L235.94994,550.13862L238.83031,550.37865L241.9507,557.33939L241.23061,558.05947L241.9507,563.1L244.35101,562.61995
				L244.35101,569.10064L241.47064,571.26087L240.75055,574.38121L235.22985,577.02149L233.30961,571.02085L230.9093,571.74093L
				227.78891,572.70103L231.38936,578.70167L233.54964,578.46164L234.98982,581.10192L230.42924,582.7821L224.90854,584.46228L220.34796,587.58261
				L216.74751,589.98287L209.78662,591.90307L204.98601,594.0633L194.42467,598.86382L188.18388,601.74412L181.70306,604.3844L175.94233,605.34451
				L170.66166,604.86446L169.46151,599.34387L165.38099,598.86382L164.6609,595.26343L161.78053,596.22353L161.30047,594.78338L
				156.73989,594.78338L155.29971,594.78338L153.37946,597.18364L153.13943,597.42366L152.8994,598.86382L152.65937,601.5041L152.65937,602.22417
				L144.9784,607.50474L135.13715,612.7853L131.05663,613.50538L129.13639,613.98543L127.69621,614.22545L127.21614,612.54527L114.49453,614.7055
				L114.49453,616.14566L105.6134,618.78594L99.13258,620.70614L93.61188,619.02596L89.29133,615.66561L91.21158,613.98543L83.29057,605.34451
				L74.8895,599.58389L65.76835,595.26343L68.88874,590.94297L64.80822,589.02277L61.68783,585.66241L54.00685,580.8619L51.84658,572.94105
				L46.56591,566.46036L48.00609,564.06011L47.76606,562.61995L48.48615,561.65985L48.00609,557.09937L52.08661,554.45908L50.88646,549.17852
				L47.52603,551.09873L47.04597,546.77827L102.49301,480.53121L109.69392,472.13031L112.33426,469.00998L112.81432,468.52993L116.17474,467.3298
				L119.05511,469.00998L120.01523,468.04988L119.7752,467.56983L120.01523,467.08977L121.93547,466.3697L123.13563,465.16957L120.97535,462.52929
				L122.8956,461.08913L126.25602,465.40959L129.61645,462.76931L130.8166,464.20947L129.37642,465.16957L131.77672,468.52993L132.97688,467.56983
				L134.41706,469.49003L136.3373,472.13031L133.21691,474.05052L136.81736,479.33108L139.4577,482.93146L142.57809,480.53121L145.69849,478.37098
				L144.25831,476.21075L141.37794,478.37098L138.49758,474.53057L138.01752,473.57046L138.01752,473.33044L141.13791,471.65026
				L142.09803,473.09041L143.05815,472.37034L142.09803,470.93018L144.01828,469.73006L144.73837,470.93018L145.69849,470.69016
				L144.9784,469.49003L153.13943,464.68952L154.33959,466.60972L158.18007,464.68952L156.73989,462.52929L158.4201,461.56919L160.10032,463.96944
				L162.26059,462.52929L160.82041,460.12903L168.50138,455.80857L172.10184,453.88837L177.14248,450.76803L178.34263,452.92826
				L180.74294,451.72814L182.90321,454.84847L183.38327,454.36842L186.02361,458.20883L189.38403,454.60844L188.18388,451.48811
				L186.02361,445.48747L186.7437,444.7674L188.18388,443.80729L189.62406,442.36714L190.82422,440.68696L191.30428,439.96688L192.98449,437.80665
				L193.70458,439.24681L195.86486,438.2867L198.02513,440.44693L198.50519,440.68696L201.38556,438.52673L204.02589,436.12647L
				203.54583,434.68632L205.46607,432.76612L206.18617,432.28607L209.54659,428.68568L213.38708,424.84527L214.10717,424.1252L215.06729,425.0853
				L216.26745,427.0055L217.22757,428.44566L217.4676,428.92571L217.94766,430.36586L218.90778,435.16637L219.38784,435.88645L219.8679,436.3665
				L220.34796,437.08658L221.30809,440.92699L223.70839,447.88773L223.94842,448.6078L223.94842,449.32788L223.22833,451.00806L
				224.18845,452.20819L228.74903,449.08786L232.34949,446.6876L240.27049,441.16701L242.6708,439.48683L247.71144,435.64642L248.43153,435.16637
				L249.87171,435.16637L250.5918,435.4064L250.5918,434.92635L250.83183,433.96624L251.31189,433.24617L251.55192,432.52609L255.15238,429.88581
				L258.03275,427.0055L261.39317,423.40512L262.35329,424.36522L263.31342,423.40512L262.35329,422.44502L264.27354,420.04476L
				266.19378,421.96497L268.35406,419.08466L266.67384,417.16445L268.35406,414.7642L269.31418,415.48427L269.79424,414.52417L270.75436,415.24425
				L270.75436,415.00422L271.23442,415.48427L271.95451,414.28415L271.71448,414.04412L272.19454,413.32404L270.51433,411.88389
				L263.55345,407.08338L266.67384,403.483L265.23366,402.28287L261.87323,406.12328L257.55268,403.24297L251.31189,398.68248L245.55116,394.60205
				L238.83031,390.04156L238.59028,389.56151L238.83031,388.36138L240.99058,388.84144L241.47064,388.36138L242.43077,386.20115
				L239.5504,384.52098L240.03046,382.36075L242.19074,372.99975L243.15086,367.95921L243.63092,366.75908L243.87095,366.03901L
				244.35101,365.31893L244.59104,365.0789L246.75131,362.91867L249.15162,360.99847L250.5918,362.67865L252.03198,361.47852L250.5918,360.03837
				L253.7122,357.15806L255.15238,358.35819L257.07262,356.67801L255.87247,355.47788L259.71296,352.11752L261.6332,353.55768L262.35329,352.8376
				L260.91311,351.15742L262.59332,349.47724L265.23366,351.39745L269.07415,346.83696L266.91387,344.91676L268.11402,343.4766L
				269.79424,344.4367L271.23442,342.99655L269.79424,341.79642L271.47445,339.87622L272.6746,340.83632L273.87476,339.87622L272.43457,338.67609
				L273.63473,337.23594L278.43533,331.47532L283.47597,325.95473L284.67613,327.15486L286.11631,325.47468L284.91616,324.27456
				L286.11631,323.07443L286.8364,322.8344L293.31722,328.59502L296.91768,331.95537L299.31798,334.35563L298.83792,334.83568L298.59789,335.07571
				L299.07795,335.55576L299.07795,335.79578L298.59789,336.03581L300.75817,338.67609L301.95832,337.71599L302.43838,337.47596
				L304.83869,339.39617L303.3985,340.59629L301.71829,341.79642L300.51814,342.75652L304.35862,347.31701L308.19911,343.95665L
				309.15923,343.23658L317.32027,350.43734L323.081,344.19668L330.04188,337.23594L333.40231,340.83632L336.76274,337.23594L337.00277,336.75589
				L336.76274,336.27583L343.96365,330.75525L342.7635,329.55512L356.9253,318.75397L357.16533,323.7945L362.92606,321.63427L369.88694,319.47404
				L373.00734,318.51394L380.68831,315.63363L383.08862,320.19412z"/>
			<path clip-path="url(#SVG_CP_2)" fill-opacity="0.2" fill="#07866D" fill-rule="evenodd" stroke="none" stroke-width="" stra="1.44018" stroke-miterlimit="10" stroke-linecap="round" stroke-linejoin="round" d="
				M103.93319,223.94386L105.37337,226.10409L106.33349,224.90397L110.89407,228.26432L109.93395,229.46445L112.33426,231.14463
				L111.37413,232.10473L112.09423,232.82481L112.33426,232.10473L113.29438,233.06484L114.73456,230.90461L115.45465,231.38466
				L116.17474,231.62468L116.89483,231.62468L117.85496,231.62468L118.81508,231.38466L122.1755,230.66458L124.09575,230.42455L
				125.77596,230.18453L128.89636,230.18453L129.61645,230.18453L129.37642,236.42519L131.05663,237.14527L131.53669,237.3853L131.77672,237.86535
				L131.77672,238.3454L131.77672,239.3055L131.77672,240.2656L131.29666,241.22571L130.33654,243.62596L129.85648,244.58606L129.85648,245.06611
				L129.37642,246.02622L129.37642,247.22635L129.37642,248.6665L129.61645,249.86663L130.09651,251.06675L130.33654,252.02686L
				130.33654,253.70704L130.09651,255.62724L130.09651,258.0275L130.09651,259.70768L129.85648,260.9078L129.61645,261.86791L131.05663,263.54808
				L131.77672,264.50819L132.01675,265.22826L132.01675,265.70831L132.25678,266.42839L132.97688,267.38849L134.89712,269.06867
				L134.65709,269.06867L133.21691,269.54872L132.25678,270.02877L131.05663,270.74885L130.09651,271.46893L126.49605,275.54936
				L125.77596,276.50947L125.53593,277.46957L125.2959,278.42967L125.53593,278.90972L125.2959,279.6298L124.33578,281.30998L123.37566,282.51011
				L122.65557,282.03005L118.81508,279.38977L116.41477,281.79003L117.3749,282.51011L117.85496,282.75013L118.81508,283.23018L
				120.01523,284.19028L119.05511,284.91036L120.01523,285.87046L118.57505,286.59054L117.61493,287.31062L117.3749,287.79067L117.13487,287.31062
				L116.6548,286.83057L115.45465,288.03069L115.69468,288.27072L116.17474,288.51074L115.45465,289.23082L115.21462,288.51074L
				114.73456,288.03069L114.2545,288.27072L113.29438,289.23082L112.81432,288.75077L111.37413,290.19092L111.8542,290.67097L111.1341,291.15103
				L112.09423,292.11113L111.37413,292.59118L110.65404,292.8312L110.17398,293.31126L109.69392,293.79131L108.7338,294.99144L106.33349,298.11177
				L105.85343,299.07187L104.65328,301.47213L104.41325,301.95218L103.69316,303.1523L102.73304,304.59246L102.01295,306.03261L
				98.41249,303.87238L97.93243,306.51266L99.61264,307.71279L98.89255,308.43287L98.41249,309.15294L97.93243,310.11305L101.05282,312.03325
				L100.57276,313.95346L100.33273,314.91356L100.33273,315.63363L99.85267,316.35371L99.61264,317.31381L98.41249,318.99399L97.6924,319.9541
				L96.97231,321.39425L96.49225,322.59438L95.77215,323.55448L95.05206,324.51458L94.33197,325.47468L94.33197,325.71471L93.85191,326.67481
				L92.89179,329.07507L96.25222,331.47532L100.33273,334.1156L98.17246,336.99591L96.97231,336.51586L96.73228,336.27583L96.49225,336.27583
				L95.53212,335.55576L93.85191,336.75589L93.37185,337.23594L96.73228,339.15614L96.97231,339.15614L98.41249,340.35627L98.89255,341.31637
				L100.0927,340.35627L100.33273,340.83632L100.81279,340.83632L102.97307,343.23658L103.2131,343.4766L106.09346,346.11688L107.29362,347.07699
				L107.53365,346.83696L109.21386,345.15678L109.69392,345.63683L110.65404,346.35691L110.89407,346.59693L112.33426,346.59693
				L114.2545,347.55704L115.45465,348.03709L116.41477,348.03709L119.53517,347.31701L121.69544,347.31701L129.37642,347.55704L
				130.09651,347.55704L131.05663,347.79706L131.29666,344.67673L131.53669,342.99655L131.77672,339.39617L131.77672,338.91612L
				131.53669,338.19604L130.8166,336.03581L131.29666,335.79578L133.21691,336.75589L137.29742,338.91612L138.49758,337.47596L140.41782,338.67609
				L140.65785,338.43606L142.33806,338.67609L142.81812,338.19604L145.93852,340.83632L146.65861,341.5564L152.41934,346.11688L
				152.8994,346.11688L153.37946,346.11688L154.33959,345.87686L154.57962,345.87686L155.05968,345.87686L156.0198,346.59693L157.45998,347.55704
				L157.21995,348.03709L156.49986,348.75716L155.05968,351.63747L154.33959,352.8376L154.09956,353.55768L153.6195,354.51778L153.6195,354.7578
				L153.37946,354.99783L152.65937,354.7578L151.21919,359.79834L152.41934,360.75844L153.37946,360.99847L152.17931,363.87878L
				150.97916,365.31893L150.25907,366.27903L149.05892,367.47916L148.33883,368.19924L147.85876,368.67929L147.61873,369.15934L
				147.13867,370.11944L146.17855,372.99975L145.93852,373.4798L145.45846,374.91995L144.73837,376.36011L143.53822,378.04028L141.61797,376.36011
				L139.93776,378.28031L141.13791,379.48044L140.89788,379.96049L140.89788,380.20051L141.858,381.16062L140.41782,383.32085L138.97764,385.48108
				L137.77748,384.52098L134.17703,382.36075L128.4163,386.92123L123.61569,380.92059L117.61493,385.00103L109.21386,374.91995L
				101.05282,380.44054L98.89255,378.52034L97.21234,377.56023L95.05206,375.88005L99.85267,372.75972L97.45237,370.59949L97.21234,370.35947
				L94.81203,367.47916L92.1717,369.15934L89.77139,370.35947L87.85115,368.19924L78.0099,376.36011L72.24917,365.79898L65.04826,352.11752
				L64.32816,352.35755L64.08813,351.63747L63.60807,351.63747L61.4478,344.67673L63.12801,344.67673L63.36804,332.1954L63.60807,326.67481
				L64.80822,323.31445L66.24841,324.03453L67.68859,324.51458L68.88874,324.75461L70.56896,325.23466L72.00914,325.71471L73.20929,326.19476
				L73.20929,325.47468L73.92938,323.7945L74.40944,323.31445L75.12953,322.59438L76.08966,321.8743L76.80975,321.15422L77.04978,320.19412
				L78.0099,319.23402L78.72999,318.27392L79.45008,317.31381L79.93014,316.83376L80.17017,316.59374L79.93014,316.35371L76.56972,313.71343
				L74.16941,312.03325L75.12953,311.07315L77.04978,311.79323L78.24993,310.83312L79.69011,309.633L81.37033,307.95282L84.25069,305.07251
				L78.0099,298.35179L77.28981,297.39169L76.56972,296.91164L76.08966,296.19156L75.6096,294.99144L75.36957,293.79131L74.64947,292.8312
				L73.44932,291.39105L72.96926,290.67097L72.00914,289.23082L74.8895,287.31062L73.68935,285.63044L70.80899,287.31062L70.08889,286.59054
				L69.3688,286.11049L68.64871,285.87046L67.92862,285.39041L67.44856,284.43031L66.48844,283.71023L65.76835,282.99016L65.28829,282.75013
				L65.04826,282.27008L64.80822,281.06995L64.32816,280.34987L63.60807,279.38977L62.88798,278.90972L62.16789,278.18964L61.20777,276.98952
				L59.76759,275.54936L59.04749,274.82929L58.3274,274.10921L57.12725,273.14911L55.9271,271.94898L55.68707,271.46893L55.68707,270.98888
				L58.56743,265.94834L60.00762,262.82801L60.96774,261.14783L61.92786,258.9876L63.12801,257.06739L63.36804,256.58734L63.36804,255.86727
				L63.12801,255.38721L62.40792,254.18709L58.56743,249.38658L56.40716,246.26624L54.24688,242.42583L53.76682,241.46573L54.96698,240.98568
				L54.24688,239.3055L56.16713,238.58542L59.52755,236.90525L63.8481,234.26496L66.00838,237.86535L68.88874,236.66522L67.92862,234.02494
				L72.96926,234.74502L76.56972,234.74502L80.4102,239.78555L80.65024,240.2656L80.89027,240.74565L89.0513,232.82481L85.69087,229.46445
				L89.53136,226.82417L96.01218,222.26369L98.41249,225.14399L99.61264,224.18389L98.89255,222.98376L100.81279,221.78363L103.45313,222.98376
				L103.93319,223.94386z"/>
		</g>
</g></svg>