<?xml version="1.0" encoding="utf-8" standalone="no"?>
<!-- Creator: ESRI ArcMap 10.0.0.2414 -->
<!DOCTYPE svg PUBLIC "-//W3C//DTD SVG 1.1//EN"  "http://www.w3.org/Graphics/SVG/1.1/DTD/svg11.dtd">
<svg width="524.0420768pt" height="280.300044464pt" viewBox="32.15712744 280.979112768 524.0420768 280.300044464" enable-background="new 32.15712744 280.979112768 524.0420768 280.300044464"
	version="1.1" xmlns="http://www.w3.org/2000/svg" xmlns:xlink="http://www.w3.org/1999/xlink" >
	<g id="Couches">
		<g id="reservoirs">
			<path clip-path="url(#SVG_CP_2)" fill-opacity="0.2" fill="#07866D" fill-rule="evenodd" stroke="none" stroke-width="" stra="1.44018" stroke-miterlimit="10" stroke-linecap="round" stroke-linejoin="round" d="
				M127.45618,376.36011L124.81584,379.24041L128.4163,385.7211L130.33654,390.52161L136.3373,387.40128L137.29742,390.76164L137.53745,391.96177
				L144.49834,382.60077L144.9784,383.08082L145.45846,383.56087L146.17855,384.04092L149.05892,379.72046L153.37946,382.60077L
				150.97916,385.48108L152.65937,386.68121L151.45922,388.12136L152.65937,389.56151L152.8994,389.80154L154.33959,388.36138L155.53974,386.92123
				L158.18007,388.84144L158.66013,388.60141L160.10032,389.80154L163.22071,391.00167L165.62102,392.44182L168.02132,394.122L168.74141,393.40192
				L171.14172,395.80218L169.94157,396.76228L170.90169,397.72238L173.54202,395.0821L174.98221,396.52225L176.42239,395.32213L
				177.38251,397.48236L176.42239,398.20243L177.62254,401.80282L178.82269,401.32277L179.06272,402.52289L179.30275,404.92315L
				179.78282,407.32341L180.02285,409.48364L180.74294,419.80474L180.98297,423.16509L201.14553,421.96497L202.10565,421.96497L
				202.58571,418.12456L202.82574,415.24425L203.06577,415.00422L208.34644,415.24425L209.54659,414.7642L214.58723,417.40448L212.66699,421.96497
				L210.74674,426.0454L206.4262,436.12647L204.50595,440.44693L202.34568,445.24745L199.70534,451.72814L197.06501,458.9289L193.94461,469.97008
				L192.98449,474.53057L191.06425,483.89156L190.10413,492.77251L190.10413,495.17277L189.86409,495.65282L189.62406,498.53312
				L189.62406,508.13415L189.86409,515.09489L190.34416,519.65538L190.58419,523.25576L190.82422,526.85614L191.06425,528.2963L
				188.18388,528.2963L177.14248,528.2963L175.46227,528.2963L157.94004,528.53632L156.25983,526.13607L138.97764,528.05627L135.61721,526.37609
				L135.61721,526.13607L135.85724,526.37609L136.81736,522.53568L137.53745,519.17532L138.01752,516.53504L138.97764,514.37481
				L139.69773,511.49451L139.21767,510.05435L137.77748,509.5743L132.49681,507.89412L129.37642,505.01382L126.01599,498.77315L
				121.93547,491.09233L118.57505,487.972L109.93395,483.41151L105.13334,481.01126L103.45313,480.05116L99.85267,476.45077L99.37261,475.97072
				L93.85191,480.29118L86.41097,486.53185L81.85039,490.61228L80.65024,491.57238L80.4102,492.53249L72.4892,498.2931L71.04902,496.61292
				L69.84886,495.17277L63.36804,487.73197L57.60731,481.01126L64.80822,474.77059L65.52832,474.05052L65.28829,474.05052L50.64643,457.0087
				L46.56591,451.96816L46.80594,450.04796L50.64643,439.72686L56.64719,423.64514L56.88722,422.44502L58.80746,417.40448L59.04749,414.7642
				L59.04749,413.08402L60.24765,412.12392L63.36804,402.04284L65.76835,396.52225L65.52832,391.96177L64.56819,383.56087L65.28829,376.84016
				L67.92862,377.80026L78.48996,365.31893L87.37109,376.36011L93.37185,373.71982L95.05206,378.28031L97.45237,377.08018L99.13258,376.36011
				L98.89255,375.88005L104.89331,373.4798L109.21386,369.39936L120.01523,364.83888L121.21538,365.79898L126.97611,375.64003L127.45618,376.36011
				z"/>
			<path clip-path="url(#SVG_CP_2)" fill-opacity="0.2" fill="#07866D" fill-rule="evenodd" stroke="none" stroke-width="" stra="1.44018" stroke-miterlimit="10" stroke-linecap="round" stroke-linejoin="round" d="
				M489.66214,287.31062L490.62226,291.39105L495.18284,291.15103L495.42287,293.55128L499.50339,293.07123L500.22348,297.87174
				L501.1836,299.3119L502.86382,300.272L504.304,300.51202L504.54403,305.55256L506.94433,305.31253L507.18436,306.27264L507.42439,307.95282
				L507.42439,309.15294L507.18436,310.35307L506.7043,312.99335L504.304,321.8743L502.38375,329.07507L499.74342,338.67609L499.26336,338.43606
				L498.54327,339.87622L499.26336,340.11624L499.50339,340.35627L499.26336,342.5165L498.54327,347.55704L498.30324,349.47724L
				498.30324,351.15742L498.54327,354.03773L505.98421,354.51778L507.90446,354.51778L511.98497,357.15806L517.26564,359.55832L
				521.34616,361.71855L526.62683,364.83888L532.38756,368.67929L540.06854,375.64003L542.22881,372.99975L548.94966,377.56023L
				549.18969,377.56023L549.18969,377.80026L545.82927,385.24105L544.86915,387.40128L543.66899,390.52161L541.74875,395.80218L
				541.02866,398.92251L540.5486,400.84271L539.82851,404.20307L539.82851,407.08338L532.38756,406.12328L531.66747,410.20371L524.22653,408.04348
				L523.9865,406.3633L523.9865,403.72302L524.22653,401.80282L519.42592,406.12328L515.82546,409.48364L515.58543,409.72366L512.94509,411.88389
				L514.14525,413.32404L509.8247,417.16445L503.58391,422.68504L499.98345,425.80537L498.54327,427.24553L492.78254,432.04604L
				488.70202,435.64642L481.74113,441.64706L475.26031,447.40768L473.34007,449.08786L469.01952,452.92826L465.89912,455.80857L
				465.17903,456.0486L455.33778,464.92954L463.73885,474.77059L465.17903,478.85103L465.41906,480.05116L465.89912,481.49131L466.61922,482.69144
				L466.61922,482.93146L467.57934,482.93146L466.85925,479.09105L466.61922,478.37098L466.85925,477.89092L470.69973,482.45141
				L471.41983,482.69144L473.5801,485.57174L482.2212,495.65282L488.22196,501.89348L486.78177,505.25384L485.10156,508.37417L487.98193,510.5344
				L487.26184,512.21458L486.06168,515.81497L487.26184,521.57558L487.50187,526.37609L486.30171,528.53632L483.18132,529.73645
				L481.74113,530.45653L481.02104,531.1766L479.82089,532.85678L466.85925,550.37865L462.29867,555.17916L455.81785,554.21906L
				453.41754,553.97903L382.36852,540.29758L382.60855,539.81752L382.12849,539.81752L379.48816,539.33747L377.32788,539.09745L
				376.60779,539.09745L375.64767,539.09745L375.64767,540.05755L368.68679,539.81752L366.04645,539.5775L361.7259,536.21714L355.96517,534.53696
				L350.6845,534.53696L349.48435,536.45717L345.64386,537.17724L341.56335,539.09745L337.2428,548.45844L334.84249,548.21842L333.40231,547.73837
				L330.52194,547.49834L329.32179,547.25832L329.32179,546.53824L329.32179,545.57814L329.08176,545.57814L329.32179,545.09809
				L329.08176,544.85806L329.08176,544.61804L329.08176,543.89796L329.08176,543.41791L327.16152,543.17788L326.68146,546.53824
				L326.44143,546.77827L316.84021,544.37801L308.67917,542.21778L300.03808,539.81752L296.19759,538.6174L293.31722,536.69719L
				291.39698,535.97711L290.91692,535.49706L289.47674,535.25704L287.55649,535.01701L287.07643,534.77699L285.15619,534.53696L
				284.67613,534.05691L286.59637,529.49642L284.91616,528.2963L281.79576,527.33619L276.27506,525.65601L272.91463,525.65601L271.47445,525.89604
				L264.99363,527.81625L254.67232,531.89668L252.51205,531.89668L233.78967,527.81625L213.38708,525.89604L194.6647,526.37609L
				193.94461,526.85614L192.2644,527.57622L191.06425,519.41535L191.06425,518.69527L190.58419,506.69399L190.82422,495.89284L191.54431,487.25192
				L193.22452,477.89092L194.42467,471.89029L195.86486,465.88965L198.26516,458.20883L200.1854,452.92826L202.34568,448.12775L
				208.10641,436.3665L209.06653,436.84655L217.22757,442.60717L227.30885,441.88709L238.11022,446.20755L249.63168,451.00806L252.99211,452.44821
				L256.83259,453.88837L258.99287,455.0885L263.55345,457.48875L262.83335,459.16893L262.59332,459.88901L262.35329,460.84911L
				258.99287,460.60908L259.2329,466.12967L259.2329,466.84975L259.2329,469.49003L263.55345,469.49003L263.79348,469.49003L271.95451,469.73006
				L271.95451,473.57046L271.95451,474.05052L271.71448,474.77059L274.11479,475.97072L280.83564,479.5711L283.716,484.13159L285.15619,486.29182
				L286.59637,488.45205L287.31646,489.17213L287.07643,489.65218L287.55649,489.8922L292.3571,488.9321L289.9568,495.17277L297.8778,496.61292
				L297.63777,497.333L298.11783,497.57302L301.71829,500.2133L309.87933,505.73389L311.07948,501.17341L311.55954,499.2532L312.51966,494.69272
				L314.91996,496.85295L317.5603,500.45333L317.5603,501.17341L317.32027,501.89348L318.76045,501.65346L319.48054,502.61356L320.44067,503.57366
				L320.92073,504.05371L322.12088,505.01382L324.04112,506.69399L328.6017,510.29438L326.92149,516.05499L330.52194,516.53504L
				331.00201,512.45461L334.36243,515.09489L335.32255,503.33364L335.32255,497.81305L335.08252,492.29246L336.28268,492.77251L
				342.04341,494.45269L345.64386,495.65282L346.36396,495.17277L355.96517,498.77315L357.88542,499.73325L359.56563,496.85295L
				360.04569,495.65282L361.24584,496.61292L363.88618,498.53312L366.04645,496.37289L366.28648,496.13287L366.04645,495.65282L
				366.04645,494.93274L364.8463,493.25256L364.60627,492.77251L363.88618,492.05243L362.68603,490.85231L361.48587,490.13223L362.68603,487.25192
				L363.40612,485.57174L360.76578,484.85167L360.04569,484.61164L360.28572,484.13159L359.56563,484.13159L358.36548,483.65154
				L358.84554,482.21139L357.64539,481.73133L359.08557,477.41087L358.36548,477.17085L359.56563,473.33044L365.56639,474.53057
				L366.28648,470.69016L369.40688,470.21011L372.04721,469.00998L372.28724,471.89029L373.24737,474.53057L373.96746,476.45077
				L378.04798,478.13095L382.84859,478.85103L385.72895,474.05052L392.68983,478.13095L393.88999,475.97072L394.13002,474.05052
				L395.33017,471.65026L397.01038,468.76995L400.13078,465.88965L396.53032,465.40959L394.13002,464.68952L392.68983,464.92954
				L391.96974,465.40959L390.52956,467.56983L385.48892,465.16957L386.68907,462.76931L389.08938,463.72942L392.4498,455.80857L
				393.64996,456.52865L393.88999,455.32852L394.37005,454.36842L402.05102,455.0885L408.53184,455.80857L408.77187,455.32852L409.01191,454.36842
				L409.25194,453.88837L409.732,453.16829L409.49197,445.96752L408.05178,445.00742L404.2113,446.6876L398.45057,448.84783L392.92986,440.68696
				L391.48968,438.52673L388.12926,433.72622L383.08862,438.76676L380.20825,434.68632L375.16761,426.28543L374.20749,424.36522
				L372.76731,421.24489L373.00734,420.04476L373.72743,419.56471L376.36776,421.72494L377.80795,420.52481L379.24813,418.12456
				L385.96898,422.68504L387.88922,423.88517L390.0495,425.0853L394.13002,426.76548L398.21053,428.44566L401.33093,430.12584L406.85163,417.88453
				L407.57172,415.96433L408.29181,413.32404L405.41145,410.92379L406.37157,409.24361L407.33169,403.24297L410.69212,403.72302
				L411.65224,403.00294L415.49273,406.12328L415.97279,405.64323L418.13306,403.483L415.97279,400.60269L417.41297,399.88261L416.45285,398.44246
				L414.53261,395.56215L413.57248,395.80218L411.65224,396.76228L409.01191,398.20243L403.01114,398.92251L402.77111,399.40256
				L402.53108,399.64259L400.37081,398.68248L399.17066,397.96241L397.73047,391.72174L391.96974,394.36202L387.40916,397.72238
				L385.72895,400.84271L381.64843,404.92315L379.24813,407.56343L376.12773,401.80282L372.04721,405.4032L371.08709,404.20307L
				364.8463,394.60205L368.68679,390.76164L365.56639,388.12136L366.04645,387.64131L365.32636,387.16126L368.44676,383.08082L370.84706,385.24105
				L373.00734,382.36075L373.4874,382.60077L374.92758,380.68057L371.80718,378.28031L374.92758,373.71982L377.80795,370.83952L
				381.16837,367.71918L382.60855,366.51906L385.72895,363.87878L388.84935,365.55895L389.32941,365.0789L392.4498,360.27839L390.28953,358.59821
				L393.64996,354.7578L396.53032,349.95729L396.77035,349.23722L397.01038,348.75716L397.9705,347.07699L399.17066,344.91676L400.85087,341.31637
				L402.53108,337.23594L406.85163,325.47468L423.65376,332.67545L425.81404,333.63555L450.53717,334.59566L450.53717,330.75525
				L450.29714,327.39489L450.29714,323.31445L448.13687,308.91292L448.85696,308.19284L449.57705,307.47277L452.21739,305.79259
				L457.97812,301.71215L463.01876,297.63172L475.50034,288.27072L477.18056,288.03069L481.02104,288.51074L484.86153,288.75077
				L486.30171,288.51074L487.26184,288.27072L488.46199,287.79067L489.66214,287.31062z"/>
		</g>
</g></svg>