<?xml version="1.0" encoding="utf-8" standalone="no"?>
<!-- Creator: ESRI ArcMap 10.0.0.2414 -->
<!DOCTYPE svg PUBLIC "-//W3C//DTD SVG 1.1//EN"  "http://www.w3.org/Graphics/SVG/1.1/DTD/svg11.dtd">
<svg width="182.530412915pt" height="741.1872776pt" viewBox="206.485973542 45.48194658 182.530412915 741.1872776" enable-background="new 206.485973542 45.48194658 182.530412915 741.1872776"
	version="1.1" xmlns="http://www.w3.org/2000/svg" xmlns:xlink="http://www.w3.org/1999/xlink" >
	<g id="Couches">
		<g id="cont_1">
			<clipPath id="SVG_CP_2">
				<path d="M574.39289,21.36228L21.36271,21.36228L21.36271,821.36753L574.39289,821.36753L574.39289,21.36228z"/>
			</clipPath>
			<path clip-path="url(#SVG_CP_2)" fill="none" stroke="#999999" stroke-width="0.96012" stroke-miterlimit="10" stroke-linecap="round" stroke-linejoin="round" d="
				M291.15695,513.17468L290.91692,513.17468L290.91692,512.69463L283.23594,512.69463L283.23594,512.45461L276.03503,512.45461
				L276.03503,511.97456L275.795,511.97456L275.795,509.5743L276.03503,509.5743L276.03503,507.17405L276.51509,507.17405L276.51509,504.53376
				L276.75512,504.53376L276.75512,501.65346L276.99515,501.65346L276.99515,500.69335L271.95451,500.69335L271.95451,500.2133L
				267.39393,500.2133L267.39393,488.21202L267.87399,488.21202L267.87399,475.01062L268.11402,475.01062L268.11402,471.65026L270.75436,471.65026
				L270.75436,471.41023L274.59485,471.41023L274.59485,470.93018L276.99515,470.93018L276.99515,469.97008L276.75512,469.97008
				L276.75512,462.28926L277.47521,462.28926L277.47521,462.04924L278.1953,462.04924L278.1953,461.56919L279.15543,461.56919L279.15543,461.32916
				L280.11555,461.32916L280.11555,460.84911L280.83564,460.84911L280.83564,460.60908L282.03579,460.60908L282.03579,460.36906
				L282.99591,460.36906L282.99591,459.88901L282.51585,459.88901L282.51585,457.48875L282.27582,457.48875L282.27582,455.0885L
				282.03579,455.0885L282.03579,452.68824L281.55573,452.68824L281.55573,451.24809L281.3157,451.24809L281.3157,451.72814L280.59561,451.72814
				L280.59561,451.96816L279.87552,451.96816L279.87552,452.44821L279.15543,452.44821L279.15543,452.68824L278.9154,452.68824L
				278.9154,452.92826L278.1953,452.92826L278.1953,453.40832L277.47521,453.40832L277.47521,453.64834L276.75512,453.64834L276.75512,453.40832
				L276.51509,453.40832L276.51509,452.44821L276.03503,452.44821L276.03503,451.24809L275.795,451.24809L275.795,450.28798L275.31494,450.28798
				L275.31494,449.32788L275.07491,449.32788L275.07491,447.88773L274.59485,447.88773L274.59485,446.92763L274.35482,446.92763
				L274.35482,445.7275L273.87476,445.7275L273.87476,444.7674L273.63473,444.7674L273.63473,443.80729L273.3947,443.80729L273.3947,442.60717
				L272.91463,442.60717L272.91463,441.64706L272.6746,441.64706L272.6746,440.68696L272.19454,440.68696L272.19454,439.48683L271.95451,439.48683
				L271.95451,438.52673L271.47445,438.52673L271.47445,437.56663L271.23442,437.56663L271.23442,436.12647L270.75436,436.12647
				L270.75436,435.4064L271.23442,435.4064L271.23442,435.16637L272.19454,435.16637L272.19454,434.68632L273.3947,434.68632L273.3947,434.4463
				L273.87476,434.4463L273.87476,433.96624L274.59485,433.96624L274.59485,433.72622L275.07491,433.72622L275.07491,433.24617L
				275.31494,433.24617L275.31494,433.00614L276.03503,433.00614L276.03503,432.76612L276.51509,432.76612L276.51509,432.28607L
				276.75512,432.28607L276.75512,432.04604L277.47521,432.04604L277.47521,431.56599L277.71524,431.56599L277.71524,431.32596L
				278.1953,431.32596L278.1953,430.84591L278.9154,430.84591L278.9154,430.60589L279.15543,430.60589L279.15543,430.12584L279.39546,430.12584
				L279.39546,426.76548L279.15543,426.76548L279.15543,423.40512L278.9154,423.40512L278.9154,421.24489L275.07491,421.24489L275.07491,415.00422
				L275.31494,415.00422L275.31494,411.16381L276.51509,411.16381L276.51509,411.64387L277.71524,411.64387L277.71524,411.88389
				L279.15543,411.88389L279.15543,412.36394L280.83564,412.36394L280.83564,412.60397L281.3157,412.60397L281.3157,413.56407L280.83564,413.56407
				L280.83564,415.48427L280.59561,415.48427L280.59561,417.16445L280.11555,417.16445L280.11555,419.08466L279.87552,419.08466
				L279.87552,420.52481L280.11555,420.52481L280.11555,421.72494L280.59561,421.72494L280.59561,422.68504L280.83564,422.68504
				L280.83564,423.40512L281.3157,423.40512L281.3157,424.36522L281.55573,424.36522L281.55573,425.32532L283.23594,425.32532L283.23594,425.80537
				L285.39622,425.80537L285.39622,426.0454L286.11631,426.0454L286.11631,425.80537L287.07643,425.80537L287.07643,425.32532L288.03655,425.32532
				L288.03655,425.0853L289.23671,425.0853L289.23671,424.60525L290.19683,424.60525L290.19683,424.36522L291.15695,424.36522L291.15695,424.1252
				L291.87704,424.1252L291.87704,424.36522L292.3571,424.36522L292.3571,424.60525L293.07719,424.60525L293.07719,425.0853L293.31722,425.0853
				L293.31722,425.32532L294.03731,425.32532L294.03731,425.80537L294.27735,425.80537L294.27735,426.0454L294.99744,426.0454L294.99744,426.52545
				L295.4775,426.52545L295.4775,426.76548L295.95756,426.76548L295.95756,427.24553L296.43762,427.24553L296.43762,427.48555L297.15771,427.48555
				L297.15771,427.72558L297.8778,427.72558L297.8778,428.20563L298.83792,428.20563L298.83792,428.44566L299.55802,428.44566L299.55802,428.92571
				L300.51814,428.92571L300.51814,429.16573L301.47826,429.16573L301.47826,429.64578L302.19835,429.64578L302.19835,429.88581
				L303.3985,429.88581L303.3985,430.12584L304.11859,430.12584L304.11859,430.60589L305.07872,430.60589L305.07872,430.84591L306.03884,430.84591
				L306.03884,431.32596L306.75893,431.32596L306.75893,431.56599L307.71905,431.56599L307.71905,432.04604L308.9192,432.04604L
				308.9192,432.28607L309.63929,432.28607L309.63929,432.76612L310.59942,432.76612L310.59942,433.00614L311.55954,433.00614L311.55954,433.24617
				L312.27963,433.24617L312.27963,433.72622L313.23975,433.72622L313.23975,433.96624L314.4399,433.96624L314.4399,434.4463L315.16,434.4463
				L315.16,434.68632L316.12012,434.68632L316.12012,435.16637L316.84021,435.16637L316.84021,443.32724L316.12012,443.32724L316.12012,443.08722
				L315.16,443.08722L315.16,442.60717L313.95984,442.60717L313.95984,442.36714L312.99972,442.36714L312.99972,441.88709L312.0396,441.88709
				L312.0396,441.64706L310.83945,441.64706L310.83945,441.40704L309.87933,441.40704L309.87933,440.92699L308.9192,440.92699L308.9192,440.68696
				L307.71905,440.68696L307.71905,440.20691L306.75893,440.20691L306.75893,439.96688L305.79881,439.96688L305.79881,439.48683
				L304.59865,439.48683L304.59865,439.24681L303.63853,439.24681L303.63853,438.76676L302.67841,438.76676L302.67841,438.52673
				L301.47826,438.52673L301.47826,438.2867L300.51814,438.2867L300.51814,437.80665L299.55802,437.80665L299.55802,437.56663L298.59789,437.56663
				L298.59789,437.08658L297.15771,437.08658L297.15771,436.84655L295.95756,436.84655L295.95756,436.3665L294.99744,436.3665L294.99744,436.12647
				L294.03731,436.12647L294.03731,435.88645L293.07719,435.88645L293.07719,435.4064L292.59713,435.4064L292.59713,435.16637L291.87704,435.16637
				L291.87704,434.68632L291.15695,434.68632L291.15695,434.4463L290.43686,434.4463L290.43686,433.96624L289.9568,433.96624L289.9568,433.72622
				L289.23671,433.72622L289.23671,433.24617L288.51661,433.24617L288.51661,433.00614L287.79652,433.00614L287.79652,432.76612
				L287.07643,432.76612L287.07643,433.00614L282.51585,433.00614L282.51585,434.68632L282.27582,434.68632L282.27582,436.12647
				L282.51585,436.12647L282.51585,438.2867L282.99591,438.2867L282.99591,440.68696L283.23594,440.68696L283.23594,442.60717L283.716,442.60717
				L283.716,445.00742L283.95604,445.00742L283.95604,447.40768L284.4361,447.40768L284.4361,449.56791L284.67613,449.56791L284.67613,451.96816
				L284.91616,451.96816L284.91616,454.12839L285.39622,454.12839L285.39622,456.52865L285.63625,456.52865L285.63625,458.44885
				L286.11631,458.44885L286.11631,458.9289L287.07643,458.9289L287.07643,459.16893L288.03655,459.16893L288.03655,459.64898L289.47674,459.64898
				L289.47674,459.88901L290.43686,459.88901L290.43686,460.36906L291.87704,460.36906L291.87704,460.60908L293.07719,460.60908
				L293.07719,460.84911L294.03731,460.84911L294.03731,461.32916L295.4775,461.32916L295.4775,461.56919L296.43762,461.56919L296.43762,462.04924
				L297.8778,462.04924L297.8778,462.28926L298.83792,462.28926L298.83792,462.76931L300.27811,462.76931L300.27811,463.00934L300.51814,463.00934
				L300.51814,463.96944L300.27811,463.96944L300.27811,466.84975L299.79805,466.84975L299.79805,469.49003L299.55802,469.49003
				L299.55802,472.13031L299.07795,472.13031L299.07795,472.37034L298.59789,472.37034L298.59789,472.61036L297.39774,472.61036
				L297.39774,473.09041L296.67765,473.09041L296.67765,473.33044L295.71753,473.33044L295.71753,473.81049L294.99744,473.81049
				L294.99744,474.05052L294.03731,474.05052L294.03731,474.53057L293.31722,474.53057L293.31722,474.77059L292.3571,474.77059L
				292.3571,475.01062L291.63701,475.01062L291.63701,475.49067L290.43686,475.49067L290.43686,475.73069L290.19683,475.73069L290.19683,476.21075
				L290.43686,476.21075L290.43686,476.93082L290.91692,476.93082L290.91692,477.17085L291.15695,477.17085L291.15695,477.89092
				L291.63701,477.89092L291.63701,478.611L291.87704,478.611L291.87704,479.33108L292.3571,479.33108L292.3571,479.5711L292.59713,479.5711
				L292.59713,480.29118L293.07719,480.29118L293.07719,481.01126L293.31722,481.01126L293.31722,481.25128L293.55725,481.25128
				L293.55725,481.97136L294.03731,481.97136L294.03731,482.69144L294.27735,482.69144L294.27735,483.41151L294.75741,483.41151
				L294.75741,483.65154L294.99744,483.65154L294.99744,484.37162L295.4775,484.37162L295.4775,485.09169L295.71753,485.09169L295.71753,485.57174
				L295.95756,485.57174L295.95756,486.05179L296.43762,486.05179L296.43762,486.77187L296.67765,486.77187L296.67765,487.25192
				L297.15771,487.25192L297.15771,487.972L297.39774,487.972L297.39774,488.69208L297.8778,488.69208L297.8778,489.17213L298.11783,489.17213
				L298.11783,489.65218L298.59789,489.65218L298.59789,490.37225L298.83792,490.37225L298.83792,491.09233L299.07795,491.09233
				L299.07795,491.33236L299.55802,491.33236L299.55802,493.73261L299.79805,493.73261L299.79805,499.73325L300.27811,499.73325
				L300.27811,505.49387L300.51814,505.49387L300.51814,510.05435L300.27811,510.05435L300.27811,510.29438L299.07795,510.29438
				L299.07795,510.77443L297.8778,510.77443L297.8778,511.01445L296.67765,511.01445L296.67765,511.25448L295.71753,511.25448L295.71753,511.73453
				L294.75741,511.73453L294.75741,511.97456L293.31722,511.97456L293.31722,512.45461L292.3571,512.45461L292.3571,512.69463L291.15695,512.69463
				L291.15695,513.17468"/>
			<path clip-path="url(#SVG_CP_2)" fill="none" stroke="#999999" stroke-width="0.96012" stroke-miterlimit="10" stroke-linecap="round" stroke-linejoin="round" d="
				M357.88542,606.06458L357.16533,606.06458L357.16533,605.58453L357.88542,605.58453L357.88542,606.06458"/>
			<path clip-path="url(#SVG_CP_2)" fill="none" stroke="#999999" stroke-width="0.96012" stroke-miterlimit="10" stroke-linecap="round" stroke-linejoin="round" d="
				M353.08481,606.30461L352.60475,606.30461L352.60475,606.06458L353.08481,606.06458L353.08481,606.30461"/>
			<path clip-path="url(#SVG_CP_2)" fill="none" stroke="#999999" stroke-width="0.96012" stroke-miterlimit="10" stroke-linecap="round" stroke-linejoin="round" d="
				M365.80642,606.30461L365.56639,606.30461L365.56639,606.06458L365.80642,606.06458L365.80642,606.30461"/>
			<path clip-path="url(#SVG_CP_2)" fill="none" stroke="#999999" stroke-width="0.96012" stroke-miterlimit="10" stroke-linecap="round" stroke-linejoin="round" d="
				M387.16913,607.26471L383.80871,607.26471L383.80871,607.02469L379.96822,607.02469L379.96822,606.54463L374.20749,606.54463
				L374.20749,606.30461L373.00734,606.30461L373.00734,606.06458L373.4874,606.06458L373.4874,605.58453L373.72743,605.58453L373.72743,605.34451
				L374.20749,605.34451L374.20749,604.86446L374.44752,604.86446L374.44752,604.62443L374.68755,604.62443L374.68755,604.14438
				L375.16761,604.14438L375.16761,603.90435L375.40764,603.90435L375.40764,603.4243L375.8877,603.4243L375.8877,603.18428L376.12773,603.18428
				L376.12773,602.94425L376.60779,602.94425L376.60779,602.22417L376.84782,602.22417L376.84782,601.74412L377.08785,601.74412
				L377.08785,601.5041L377.56791,601.5041L377.56791,601.02405L377.80795,601.02405L377.80795,600.54399L378.28801,600.54399L378.28801,600.06394
				L378.52804,600.06394L378.52804,599.82392L379.0081,599.82392L379.0081,599.34387L379.24813,599.34387L379.24813,598.62379L379.72819,598.62379
				L379.72819,598.38376L379.96822,598.38376L379.96822,597.90371L380.20825,597.90371L380.20825,597.66369L380.68831,597.66369
				L380.68831,597.42366L380.92834,597.42366L380.92834,596.70359L381.4084,596.70359L381.4084,596.22353L381.64843,596.22353L381.64843,595.98351
				L382.12849,595.98351L382.12849,595.50346L382.36852,595.50346L382.36852,595.02341L382.60855,595.02341L382.60855,594.54336
				L383.08862,594.54336L383.08862,594.30333L383.32865,594.30333L383.32865,593.82328L383.80871,593.82328L383.80871,593.1032L
				384.04874,593.1032L384.04874,592.86318L384.5288,592.86318L384.5288,592.38313L384.76883,592.38313L384.76883,592.1431L385.24889,592.1431
				L385.24889,591.90307L385.48892,591.90307L385.48892,591.183L385.72895,591.183L385.72895,590.70295L386.20901,590.70295L386.20901,590.46292
				L386.44904,590.46292L386.44904,588.78274L386.9291,588.78274L386.9291,585.90243L386.44904,585.90243L386.44904,583.50218L386.20901,583.50218
				L386.20901,581.10192L385.72895,581.10192L385.72895,580.8619L386.20901,580.8619L386.20901,575.58133L386.44904,575.58133L386.44904,562.37993
				L386.9291,562.37993L386.9291,549.41855L386.44904,549.41855L386.44904,547.97839L386.20901,547.97839L386.20901,546.53824L385.72895,546.53824
				L385.72895,545.09809L385.48892,545.09809L385.48892,543.89796L385.24889,543.89796L385.24889,542.69783L384.76883,542.69783
				L384.76883,541.4977L384.5288,541.4977L384.5288,540.29758L384.04874,540.29758L384.04874,539.5775L383.80871,539.5775L383.80871,538.6174
				L383.32865,538.6174L383.32865,537.89732L383.08862,537.89732L383.08862,537.17724L382.60855,537.17724L382.60855,536.45717L
				382.36852,536.45717L382.36852,535.97711L382.12849,535.97711L382.12849,535.25704L381.64843,535.25704L381.64843,534.53696L
				381.4084,534.53696L381.4084,533.81688L380.92834,533.81688L380.92834,533.09681L380.68831,533.09681L380.68831,532.37673L380.20825,532.37673
				L380.20825,531.65665L379.96822,531.65665L379.96822,530.93658L379.72819,530.93658L379.72819,529.97648L379.24813,529.97648
				L379.24813,529.2564L379.0081,529.2564L379.0081,528.53632L378.52804,528.53632L378.52804,528.05627L378.28801,528.05627L378.28801,527.33619
				L377.80795,527.33619L377.80795,526.61612L377.56791,526.61612L377.56791,525.89604L377.08785,525.89604L377.08785,525.17596
				L376.84782,525.17596L376.84782,524.45589L376.60779,524.45589L376.60779,523.73581L376.12773,523.73581L376.12773,523.01573
				L375.8877,523.01573L375.8877,522.29566L375.40764,522.29566L375.40764,521.33555L375.16761,521.33555L375.16761,520.61548L374.68755,520.61548
				L374.68755,519.8954L374.44752,519.8954L374.44752,519.41535L374.20749,519.41535L374.20749,518.69527L373.72743,518.69527L373.72743,517.9752
				L373.4874,517.9752L373.4874,517.25512L373.00734,517.25512L373.00734,516.53504L372.76731,516.53504L372.76731,515.81497L372.28724,515.81497
				L372.28724,515.09489L372.04721,515.09489L372.04721,514.37481L371.56715,514.37481L371.56715,513.89476L371.32712,513.89476
				L371.32712,512.69463L371.08709,512.69463L371.08709,511.97456L370.60703,511.97456L370.60703,511.01445L370.367,511.01445L370.367,508.37417
				L369.88694,508.37417L369.88694,505.73389L369.64691,505.73389L369.64691,503.09361L369.16685,503.09361L369.16685,494.45269
				L369.64691,494.45269L369.64691,490.61228L369.16685,490.61228L369.16685,479.5711L368.92682,479.5711L368.92682,472.13031L368.44676,472.13031
				L368.44676,469.25L368.20673,469.25L368.20673,466.84975L367.9667,466.84975L367.9667,463.96944L367.48664,463.96944L367.48664,460.84911
				L367.9667,460.84911L367.9667,448.84783L367.48664,448.84783L367.48664,440.68696L367.24661,440.68696L367.24661,437.80665L367.48664,437.80665
				L367.48664,435.88645L367.9667,435.88645L367.9667,433.72622L368.20673,433.72622L368.20673,431.32596L368.44676,431.32596L368.44676,429.16573
				L368.92682,429.16573L368.92682,426.76548L369.16685,426.76548L369.16685,424.60525L369.64691,424.60525L369.64691,421.72494
				L369.88694,421.72494L369.88694,418.60461L370.367,418.60461L370.367,415.48427L370.60703,415.48427L370.60703,412.36394L371.08709,412.36394
				L371.08709,409.24361L371.32712,409.24361L371.32712,405.64323L371.56715,405.64323L371.56715,402.52289L372.04721,402.52289
				L372.04721,399.16254L372.28724,399.16254L372.28724,395.80218L372.76731,395.80218L372.76731,387.40128L372.28724,387.40128
				L372.28724,385.48108L372.04721,385.48108L372.04721,383.32085L371.56715,383.32085L371.56715,381.16062L371.32712,381.16062
				L371.32712,379.48044L371.08709,379.48044L371.08709,378.04028L370.60703,378.04028L370.60703,376.84016L370.367,376.84016L370.367,375.4
				L369.88694,375.4L369.88694,373.71982L369.64691,373.71982L369.64691,372.27967L369.16685,372.27967L369.16685,370.83952L368.92682,370.83952
				L368.92682,369.39936L368.44676,369.39936L368.44676,368.19924L368.20673,368.19924L368.20673,366.75908L367.9667,366.75908L
				367.9667,365.31893L367.48664,365.31893L367.48664,363.63875L367.24661,363.63875L367.24661,362.1986L366.76654,362.1986L366.76654,360.75844
				L366.52651,360.75844L366.52651,359.55832L366.04645,359.55832L366.04645,357.39809L365.80642,357.39809L365.80642,354.99783
				L365.56639,354.99783L365.56639,352.59757L365.08633,352.59757L365.08633,350.19732L364.8463,350.19732L364.8463,347.79706L364.36624,347.79706
				L364.36624,345.39681L364.12621,345.39681L364.12621,342.99655L363.64615,342.99655L363.64615,340.59629L363.40612,340.59629
				L363.40612,336.99591L362.92606,336.99591L362.92606,333.87558L362.68603,333.87558L362.68603,330.51522L362.446,330.51522L362.446,326.91484
				L361.96594,326.91484L361.96594,324.03453L361.7259,324.03453L361.7259,320.43415L361.24584,320.43415L361.24584,318.99399L361.00581,318.99399
				L361.00581,318.51394L360.52575,318.51394L360.52575,318.03389L360.28572,318.03389L360.28572,317.31381L360.04569,317.31381
				L360.04569,316.59374L359.56563,316.59374L359.56563,315.87366L359.3256,315.87366L359.3256,315.39361L358.84554,315.39361L358.84554,314.91356
				L358.60551,314.91356L358.60551,314.19348L358.12545,314.19348L358.12545,313.4734L357.88542,313.4734L357.88542,313.23338L357.40536,313.23338
				L357.40536,312.99335L357.16533,312.99335L357.16533,312.5133L356.9253,312.5133L356.9253,312.27328L356.44523,312.27328L356.44523,311.79323
				L356.2052,311.79323L356.2052,311.5532L355.72514,311.5532L355.72514,311.07315L355.48511,311.07315L355.48511,310.83312L355.00505,310.83312
				L355.00505,310.35307L354.76502,310.35307L354.76502,310.11305L354.52499,310.11305L354.52499,309.87302L354.04493,309.87302
				L354.04493,309.39297L353.8049,309.39297L353.8049,309.15294L353.32484,309.15294L353.32484,308.67289L353.08481,308.67289L353.08481,308.43287
				L352.60475,308.43287L352.60475,307.95282L352.36472,307.95282L352.36472,307.71279L351.88466,307.71279L351.88466,307.47277
				L351.64463,307.47277L351.64463,306.99271L351.40459,306.99271L351.40459,306.75269L350.92453,306.75269L350.92453,306.27264
				L350.6845,306.27264L350.6845,306.03261L350.20444,306.03261L350.20444,305.55256L349.96441,305.55256L349.96441,305.31253L349.48435,305.31253
				L349.48435,304.83248L349.24432,304.83248L349.24432,304.59246L349.00429,304.59246L349.00429,304.35243L348.52423,304.35243
				L348.52423,303.87238L348.2842,303.87238L348.2842,303.63236L347.80414,303.63236L347.80414,303.1523L347.56411,303.1523L347.56411,302.91228
				L347.08405,302.91228L347.08405,302.43223L346.84402,302.43223L346.84402,302.1922L346.36396,302.1922L346.36396,301.47213L346.12392,301.47213
				L346.12392,301.2321L345.88389,301.2321L345.88389,300.75205L345.40383,300.75205L345.40383,300.51202L345.1638,300.51202L345.1638,300.03197
				L344.68374,300.03197L344.68374,299.79195L344.44371,299.79195L344.44371,299.3119L343.96365,299.3119L343.96365,299.07187L343.72362,299.07187
				L343.72362,298.83184L343.48359,298.83184L343.48359,298.35179L343.00353,298.35179L343.00353,298.11177L342.7635,298.11177L
				342.7635,297.63172L342.28344,297.63172L342.28344,297.39169L342.04341,297.39169L342.04341,296.67161L341.56335,296.67161L341.56335,296.19156
				L341.32332,296.19156L341.32332,295.95154L340.84325,295.95154L340.84325,295.71151L340.60322,295.71151L340.60322,295.23146
				L340.36319,295.23146L340.36319,294.99144L339.88313,294.99144L339.88313,294.51138L339.6431,294.51138L339.6431,294.27136L339.16304,294.27136
				L339.16304,293.79131L338.92301,293.79131L338.92301,293.55128L338.44295,293.55128L338.44295,293.31126L338.20292,293.31126
				L338.20292,292.8312L337.72286,292.8312L337.72286,292.59118L337.48283,292.59118L337.48283,291.8711L337.2428,291.8711L337.2428,291.39105
				L336.76274,291.39105L336.76274,290.67097L336.52271,290.67097L336.52271,288.9908L336.04265,288.9908L336.04265,287.31062L335.80261,287.31062
				L335.80261,285.63044L335.32255,285.63044L335.32255,283.95026L335.08252,283.95026L335.08252,275.30934L335.32255,275.30934
				L335.32255,271.46893L335.08252,271.46893L335.08252,259.9477L334.84249,259.9477L334.84249,257.30742L334.36243,257.30742L334.36243,254.42711
				L334.1224,254.42711L334.1224,252.02686L333.64234,252.02686L333.64234,250.10665L333.40231,250.10665L333.40231,248.42647L332.92225,248.42647
				L332.92225,247.94642L332.68222,247.94642L332.68222,247.22635L332.20216,247.22635L332.20216,246.98632L331.96213,246.98632
				L331.96213,246.50627L331.7221,246.50627L331.7221,246.02622L331.24204,246.02622L331.24204,245.54617L330.52194,245.54617L330.52194,245.30614
				L329.80185,245.30614L329.80185,244.82609L329.32179,244.82609L329.32179,244.58606L328.12164,244.58606L328.12164,244.10601
				L326.68146,244.10601L326.68146,243.86599L325.72134,243.86599L325.72134,243.38594L324.28115,243.38594L324.28115,243.14591
				L323.32103,243.14591L323.32103,242.90588L321.88085,242.90588L321.88085,242.42583L320.92073,242.42583L320.92073,242.18581
				L319.48054,242.18581L319.48054,241.70576L318.52042,241.70576L318.52042,241.46573L317.5603,241.46573L317.5603,240.98568L316.12012,240.98568
				L316.12012,240.74565L315.16,240.74565L315.16,240.2656L313.71981,240.2656L313.71981,240.02558L312.75969,240.02558L312.75969,239.78555
				L311.55954,239.78555L311.55954,239.3055L310.83945,239.3055L310.83945,239.06548L310.59942,239.06548L310.59942,238.58542L309.87933,238.58542
				L309.87933,238.3454L309.15923,238.3454L309.15923,237.86535L308.43914,237.86535L308.43914,237.62532L307.71905,237.62532L307.71905,237.3853
				L307.47902,237.3853L307.47902,236.90525L306.75893,236.90525L306.75893,236.66522L306.03884,236.66522L306.03884,236.18517L
				305.31875,236.18517L305.31875,235.94514L304.59865,235.94514L304.59865,235.46509L304.11859,235.46509L304.11859,235.22507L
				303.3985,235.22507L303.3985,234.74502L302.91844,234.74502L302.91844,234.50499L302.19835,234.50499L302.19835,234.26496L300.51814,234.26496
				L300.51814,234.50499L300.27811,234.50499L300.27811,235.22507L299.79805,235.22507L299.79805,235.94514L299.55802,235.94514
				L299.55802,236.66522L299.07795,236.66522L299.07795,237.3853L298.83792,237.3853L298.83792,237.62532L298.11783,237.62532L298.11783,237.86535
				L297.39774,237.86535L297.39774,238.3454L297.15771,238.3454L297.15771,238.58542L296.43762,238.58542L296.43762,239.06548L295.95756,239.06548
				L295.95756,239.3055L295.4775,239.3055L295.4775,239.78555L294.99744,239.78555L294.99744,240.02558L293.31722,240.02558L293.31722,239.78555
				L291.63701,239.78555L291.63701,239.3055L289.9568,239.3055L289.9568,239.06548L287.79652,239.06548L287.79652,238.58542L283.716,238.58542
				L283.716,239.06548L282.27582,239.06548L282.27582,239.3055L282.03579,239.3055L282.03579,239.06548L281.55573,239.06548L281.55573,238.58542
				L281.3157,238.58542L281.3157,238.3454L280.59561,238.3454L280.59561,237.86535L280.11555,237.86535L280.11555,237.62532L279.87552,237.62532
				L279.87552,237.3853L280.11555,237.3853L280.11555,236.66522L280.59561,236.66522L280.59561,236.18517L280.83564,236.18517L280.83564,235.46509
				L281.3157,235.46509L281.3157,235.22507L281.55573,235.22507L281.55573,234.50499L282.03579,234.50499L282.03579,233.78491L282.27582,233.78491
				L282.27582,233.54489L282.51585,233.54489L282.51585,232.82481L282.99591,232.82481L282.99591,232.34476L283.23594,232.34476
				L283.23594,231.86471L283.716,231.86471L283.716,231.38466L283.95604,231.38466L283.95604,230.66458L284.4361,230.66458L284.4361,226.82417
				L283.95604,226.82417L283.95604,226.34412L283.716,226.34412L283.716,225.86407L283.23594,225.86407L283.23594,225.14399L282.99591,225.14399
				L282.99591,224.90397L283.23594,224.90397L283.23594,224.42392L283.95604,224.42392L283.95604,224.18389L285.39622,224.18389
				L285.39622,223.70384L287.07643,223.70384L287.07643,223.46381L288.51661,223.46381L288.51661,223.22379L291.15695,223.22379
				L291.15695,222.74374L298.83792,222.74374L298.83792,222.50371L300.9982,222.50371L300.9982,221.06356L301.23823,221.06356L301.23823,214.58287
				L301.47826,214.58287L301.47826,205.22187L301.23823,205.22187L301.23823,202.10154L300.9982,202.10154L300.9982,200.42136L300.51814,200.42136
				L300.51814,198.9812L300.27811,198.9812L300.27811,197.30103L299.79805,197.30103L299.79805,195.86087L299.55802,195.86087L299.55802,194.18069
				L299.07795,194.18069L299.07795,192.74054L298.83792,192.74054L298.83792,191.06036L298.59789,191.06036L298.59789,189.62021
				L298.11783,189.62021L298.11783,188.18005L297.8778,188.18005L297.8778,187.45998L297.39774,187.45998L297.39774,186.49987L297.15771,186.49987
				L297.15771,185.7798L296.67765,185.7798L296.67765,185.05972L296.43762,185.05972L296.43762,184.57967L295.95756,184.57967L295.95756,183.37954
				L295.71753,183.37954L295.71753,182.65946L295.4775,182.65946L295.4775,181.93939L294.99744,181.93939L294.99744,181.45934L294.75741,181.45934
				L294.75741,180.25921L294.27735,180.25921L294.27735,179.53913L294.03731,179.53913L294.03731,178.81906L293.55725,178.81906
				L293.55725,178.339L293.31722,178.339L293.31722,177.13888L293.07719,177.13888L293.07719,176.17877L292.59713,176.17877L292.59713,174.73862
				L292.3571,174.73862L292.3571,173.29847L291.87704,173.29847L291.87704,172.09834L291.63701,172.09834L291.63701,170.65819L291.15695,170.65819
				L291.15695,169.69808L290.91692,169.69808L290.91692,168.25793L290.43686,168.25793L290.43686,166.81778L290.19683,166.81778
				L290.19683,165.37762L289.9568,165.37762L289.9568,164.1775L289.47674,164.1775L289.47674,162.73734L289.23671,162.73734L289.23671,161.05716
				L288.75664,161.05716L288.75664,159.37698L288.51661,159.37698L288.51661,157.45678L288.03655,157.45678L288.03655,155.7766L
				287.79652,155.7766L287.79652,154.33645L287.55649,154.33645L287.55649,153.37634L287.07643,153.37634L287.07643,151.93619L286.8364,151.93619
				L286.8364,150.97609L286.35634,150.97609L286.35634,150.01599L286.11631,150.01599L286.11631,148.81586L285.63625,148.81586L
				285.63625,147.85576L285.39622,147.85576L285.39622,146.4156L284.91616,146.4156L284.91616,145.4555L284.67613,145.4555L284.67613,144.4954
				L284.4361,144.4954L284.4361,143.29527L283.95604,143.29527L283.95604,142.33517L283.716,142.33517L283.716,141.61509L283.23594,141.61509
				L283.23594,140.65499L282.99591,140.65499L282.99591,139.93491L282.51585,139.93491L282.51585,138.97481L282.27582,138.97481
				L282.27582,138.25473L282.03579,138.25473L282.03579,137.05461L281.55573,137.05461L281.55573,136.57455L281.3157,136.57455L
				281.3157,135.37443L280.83564,135.37443L280.83564,134.65435L280.59561,134.65435L280.59561,133.69425L280.11555,133.69425L280.11555,132.97417
				L279.87552,132.97417L279.87552,132.01407L279.39546,132.01407L279.39546,131.29399L279.15543,131.29399L279.15543,130.33389
				L278.9154,130.33389L278.9154,129.61381L278.43533,129.61381L278.43533,128.65371L278.1953,128.65371L278.1953,127.93363L277.71524,127.93363
				L277.71524,126.73351L277.47521,126.73351L277.47521,126.01343L276.99515,126.01343L276.99515,125.05333L276.75512,125.05333
				L276.75512,124.09322L276.51509,124.09322L276.51509,123.13312L276.03503,123.13312L276.03503,122.41304L275.795,122.41304L275.795,121.21292
				L275.31494,121.21292L275.31494,120.25281L275.07491,120.25281L275.07491,119.29271L274.59485,119.29271L274.59485,118.57264
				L274.35482,118.57264L274.35482,117.37251L273.87476,117.37251L273.87476,116.41241L273.63473,116.41241L273.63473,115.4523L
				273.3947,115.4523L273.3947,114.73223L272.91463,114.73223L272.91463,113.29207L272.6746,113.29207L272.6746,111.37187L272.19454,111.37187
				L272.19454,109.21164L271.95451,109.21164L271.95451,107.05141L271.47445,107.05141L271.47445,105.1312L271.23442,105.1312L271.23442,102.97097
				L270.75436,102.97097L270.75436,98.89054L270.51433,98.89054L270.51433,94.8101L270.2743,94.8101L270.2743,90.48964L269.79424,90.48964
				L269.79424,87.84936L269.55421,87.84936L269.55421,88.08939L268.35406,88.08939L268.35406,88.56944L267.1539,88.56944L267.1539,88.08939
				L266.43381,88.08939L266.43381,87.84936L265.71372,87.84936L265.71372,87.36931L264.99363,87.36931L264.99363,87.12929L264.27354,87.12929
				L264.27354,86.64923L264.03351,86.64923L264.03351,86.40921L263.31342,86.40921L263.31342,86.16918L262.83335,86.16918L262.83335,84.96905
				L263.31342,84.96905L263.31342,84.24898L263.55345,84.24898L263.55345,83.28888L264.03351,83.28888L264.03351,82.32877L264.27354,82.32877
				L264.27354,81.12865L264.7536,81.12865L264.7536,80.64859L264.99363,80.64859L264.99363,79.44847L265.23366,79.44847L265.23366,78.72839
				L270.51433,78.72839L270.51433,76.80819L270.2743,76.80819L270.2743,72.72775L269.79424,72.72775L269.79424,70.56752L269.55421,70.56752
				L269.55421,68.40729L269.07415,68.40729L269.07415,66.48709L268.83412,66.48709L268.83412,64.32686L268.35406,64.32686L268.35406,62.16663
				L268.11402,62.16663L268.11402,60.24642L267.87399,60.24642L267.87399,58.08619L267.1539,58.08619L267.1539,58.56624L266.67384,58.56624
				L266.67384,58.80627L266.43381,58.80627L266.43381,59.04629L265.95375,59.04629L265.95375,59.52634L265.71372,59.52634L265.71372,59.76637
				L265.23366,59.76637L265.23366,60.24642L264.99363,60.24642L264.99363,60.48645L264.7536,60.48645L264.7536,61.20652L264.27354,61.20652
				L264.27354,61.68657L264.03351,61.68657L264.03351,61.9266L263.55345,61.9266L263.55345,62.16663L263.31342,62.16663L263.31342,62.64668
				L262.83335,62.64668L262.83335,62.8867L262.59332,62.8867L262.59332,63.36675L262.35329,63.36675L262.35329,63.60678L261.87323,63.60678
				L261.87323,64.08683L261.6332,64.08683L261.6332,64.32686L261.15314,64.32686L261.15314,65.04693L260.43305,65.04693L260.43305,65.28696
				L260.19302,65.28696L260.19302,65.76701L259.71296,65.76701L259.71296,66.00703L259.47293,66.00703L259.47293,66.48709L259.2329,66.48709
				L259.2329,66.72711L258.51281,66.72711L258.51281,67.20716L258.03275,67.20716L258.03275,67.44719L257.79272,67.44719L257.79272,67.68721
				L257.31265,67.68721L257.31265,68.16726L257.07262,68.16726L257.07262,68.40729L256.83259,68.40729L256.83259,68.88734L256.1125,68.88734
				L256.1125,69.12737L255.63244,69.12737L255.63244,69.60742L255.39241,69.60742L255.39241,69.84744L254.91235,69.84744L254.91235,70.08747
				L254.67232,70.08747L254.67232,70.56752L253.95223,70.56752L253.95223,70.80755L253.7122,70.80755L253.7122,71.2876L253.23214,71.2876
				L253.23214,71.52762L252.99211,71.52762L252.99211,72.00767L252.51205,72.00767L252.51205,72.2477L252.27201,72.2477L252.27201,72.72775
				L251.55192,72.72775L251.55192,72.96778L251.31189,72.96778L251.31189,73.2078L250.83183,73.2078L250.83183,73.68785L250.5918,73.68785
				L250.5918,73.92788L250.11174,73.92788L250.11174,74.40793L249.39165,74.40793L249.39165,74.64796L249.15162,74.64796L249.15162,75.12801
				L248.67156,75.12801L248.67156,75.36803L248.43153,75.36803L248.43153,75.60806L248.1915,75.60806L248.1915,76.08811L247.71144,76.08811
				L247.71144,76.32813L246.99134,76.32813L246.99134,76.80819L246.75131,76.80819L246.75131,77.04821L246.27125,77.04821L246.27125,77.52826
				L246.03122,77.52826L246.03122,77.76829L245.79119,77.76829L245.79119,78.24834L245.0711,78.24834L245.0711,78.48836L244.59104,78.48836
				L244.59104,78.72839L244.35101,78.72839L244.35101,79.20844L243.87095,79.20844"/>
			<path clip-path="url(#SVG_CP_2)" fill="none" stroke="#999999" stroke-width="0.96012" stroke-miterlimit="10" stroke-linecap="round" stroke-linejoin="round" d="
				M243.87095,79.20844L243.87095,79.44847L243.63092,79.44847L243.63092,79.92852L242.91083,79.92852L242.91083,80.16854L242.6708,80.16854
				L242.6708,80.64859L242.19074,80.64859L242.19074,80.88862L241.9507,80.88862L241.9507,81.12865L241.23061,81.12865L241.23061,81.6087
				L240.75055,81.6087L240.75055,81.84872L240.03046,81.84872L240.03046,82.32877L239.79043,82.32877L239.79043,82.5688L239.5504,82.5688
				L239.5504,83.04885L238.83031,83.04885L238.83031,83.28888L238.35025,83.28888L238.35025,83.76893L237.63016,83.76893L237.63016,84.00895
				L237.39013,84.00895L237.39013,84.24898L237.1501,84.24898L237.1501,84.72903L236.43,84.72903L236.43,84.96905L235.94994,84.96905
				L235.94994,85.44911L235.70991,85.44911L235.70991,85.68913L234.98982,85.68913L234.98982,86.16918L234.50976,86.16918L234.50976,86.40921
				L234.0297,86.40921L234.0297,86.64923L233.54964,86.64923L233.54964,87.12929L232.82955,87.12929L232.82955,87.36931L232.58952,87.36931
				L232.58952,87.84936L231.86943,87.84936L231.86943,88.08939L231.62939,88.08939L231.62939,88.56944L230.9093,88.56944L230.9093,88.80946
				L230.42924,88.80946L230.42924,89.28952L229.70915,89.28952L229.70915,89.52954L229.46912,89.52954L229.46912,89.76957L228.74903,89.76957
				L228.74903,90.24962L228.509,90.24962L228.509,90.48964L227.78891,90.48964L227.78891,90.96969L227.30885,90.96969L227.30885,91.20972
				L226.58876,91.20972L226.58876,91.68977L226.34872,91.68977L226.34872,91.9298L225.62863,91.9298L225.62863,92.40985L225.3886,92.40985
				L225.3886,92.64987L224.66851,92.64987L224.66851,92.8899L224.18845,92.8899L224.18845,93.36995L223.94842,93.36995L223.94842,93.60998
				L223.22833,93.60998L223.22833,94.09003L222.9883,94.09003L222.9883,94.33005L222.50824,94.33005L222.50824,94.8101L221.78815,94.8101
				L221.78815,95.05013L221.54812,95.05013L221.54812,95.29015L221.06805,95.29015L221.06805,95.77021L220.58799,95.77021L220.58799,96.01023
				L220.10793,96.01023L220.10793,96.49028L219.8679,96.49028L219.8679,96.73031L219.14781,96.73031L219.14781,97.21036L218.66775,97.21036
				L218.66775,97.45038L218.42772,97.45038L218.42772,97.93044L217.70763,97.93044L217.70763,98.17046L217.4676,98.17046L217.4676,98.41049
				L216.98754,98.41049L216.98754,98.89054L216.74751,98.89054L216.74751,99.13056L216.98754,99.13056L216.98754,99.61062L217.4676,99.61062
				L217.4676,101.29079L216.98754,101.29079L216.98754,102.97097L216.74751,102.97097L216.74751,105.1312L216.26745,105.1312L216.26745,106.81138
				L216.02742,106.81138L216.02742,108.49156L215.54735,108.49156L215.54735,110.17174L215.30732,110.17174L215.30732,111.85192
				L215.54735,111.85192L215.54735,113.29207L216.02742,113.29207L216.02742,114.97225L216.26745,114.97225L216.26745,116.89246
				L216.74751,116.89246L216.74751,118.09258L216.98754,118.09258L216.98754,120.01279L217.4676,120.01279L217.4676,121.69297L217.70763,121.69297
				L217.70763,123.13312L217.94766,123.13312L217.94766,124.8133L218.42772,124.8133L218.42772,126.01343L218.66775,126.01343L218.66775,127.93363
				L219.14781,127.93363L219.14781,129.61381L219.38784,129.61381L219.38784,131.05397L219.8679,131.05397L219.8679,132.25409L220.10793,132.25409
				L220.10793,133.69425L220.58799,133.69425L220.58799,134.65435L220.82802,134.65435L220.82802,136.0945L221.06805,136.0945L221.06805,137.53466
				L221.54812,137.53466L221.54812,138.97481L221.78815,138.97481L221.78815,139.93491L222.26821,139.93491L222.26821,141.37507
				L222.50824,141.37507L222.50824,142.57519L222.9883,142.57519L222.9883,144.01535L223.22833,144.01535L223.22833,145.21547L223.46836,145.21547
				L223.46836,145.69553L232.58952,145.69553L232.58952,146.17558L241.9507,146.17558L241.9507,147.13568L241.47064,147.13568L241.47064,150.01599
				L241.23061,150.01599L241.23061,152.65627L240.75055,152.65627L240.75055,155.53657L240.51052,155.53657L240.51052,157.93683
				L240.03046,157.93683L240.03046,160.57711L239.79043,160.57711L239.79043,163.45742L239.5504,163.45742L239.5504,166.0977L238.83031,166.0977
				L238.83031,165.85767L234.26973,165.85767L234.26973,165.37762L229.46912,165.37762L229.46912,165.1376L226.34872,165.1376L226.34872,173.77852
				L226.58876,173.77852L226.58876,176.89885L226.34872,176.89885L226.34872,178.339L226.10869,178.339L226.10869,179.53913L225.62863,179.53913
				L225.62863,181.45934L225.3886,181.45934L225.3886,182.65946L224.90854,182.65946L224.90854,184.09962L224.66851,184.09962L224.66851,185.53977
				L224.18845,185.53977L224.18845,186.97993L223.94842,186.97993L223.94842,188.18005L223.46836,188.18005L223.46836,190.10026
				L223.22833,190.10026L223.22833,192.50051L222.9883,192.50051L222.9883,195.14079L222.50824,195.14079L222.50824,197.54105L222.26821,197.54105
				L222.26821,199.94131L221.78815,199.94131L221.78815,203.54169L222.26821,203.54169L222.26821,205.22187L222.50824,205.22187
				L222.50824,206.90205L222.9883,206.90205L222.9883,208.58223L223.22833,208.58223L223.22833,210.26241L223.46836,210.26241L223.46836,212.18261
				L223.94842,212.18261L223.94842,213.86279L224.18845,213.86279L224.18845,215.30294L224.66851,215.30294L224.66851,215.54297
				L224.18845,215.54297L224.18845,216.26305L223.94842,216.26305L223.94842,217.22315L223.46836,217.22315L223.46836,217.94322
				L223.22833,217.94322L223.22833,218.6633L222.9883,218.6633L222.9883,219.38338L222.50824,219.38338L222.50824,220.10345L222.26821,220.10345
				L222.26821,221.06356L221.78815,221.06356L221.78815,221.78363L221.54812,221.78363L221.54812,222.50371L221.06805,222.50371
				L221.06805,223.22379L220.82802,223.22379L220.82802,224.18389L220.58799,224.18389L220.58799,224.90397L220.10793,224.90397
				L220.10793,225.62404L219.8679,225.62404L219.8679,226.34412L219.38784,226.34412L219.38784,227.30422L219.14781,227.30422L219.14781,228.0243
				L218.66775,228.0243L218.66775,230.66458L219.14781,230.66458L219.14781,244.58606L219.38784,244.58606L219.38784,254.42711L
				219.8679,254.42711L219.8679,261.38785L220.10793,261.38785L220.10793,264.98824L220.58799,264.98824L220.58799,268.3486L220.82802,268.3486
				L220.82802,271.70895L221.06805,271.70895L221.06805,275.30934L221.54812,275.30934L221.54812,277.94962L221.78815,277.94962
				L221.78815,280.10985L222.26821,280.10985L222.26821,282.27008L222.50824,282.27008L222.50824,284.19028L222.9883,284.19028L
				222.9883,286.35051L223.22833,286.35051L223.22833,288.27072L223.46836,288.27072L223.46836,290.43095L223.94842,290.43095L223.94842,292.59118
				L224.18845,292.59118L224.18845,294.99144L224.66851,294.99144L224.66851,297.39169L224.90854,297.39169L224.90854,299.79195
				L225.3886,299.79195L225.3886,302.1922L225.62863,302.1922L225.62863,304.59246L226.10869,304.59246L226.10869,306.99271L226.34872,306.99271
				L226.34872,309.87302L226.58876,309.87302L226.58876,312.27328L227.06882,312.27328L227.06882,316.35371L226.58876,316.35371
				L226.58876,326.67481L226.34872,326.67481L226.34872,334.35563L226.10869,334.35563L226.10869,339.87622L225.62863,339.87622
				L225.62863,345.39681L225.3886,345.39681L225.3886,350.43734L224.90854,350.43734L224.90854,352.8376L224.66851,352.8376L224.66851,354.99783
				L224.18845,354.99783L224.18845,357.39809L223.94842,357.39809L223.94842,359.55832L223.46836,359.55832L223.46836,361.95857
				L223.22833,361.95857L223.22833,364.35883L222.9883,364.35883L222.9883,366.75908L222.50824,366.75908L222.50824,369.87942L222.26821,369.87942
				L222.26821,372.5197L221.78815,372.5197L221.78815,375.64003L221.54812,375.64003L221.54812,391.24169L221.78815,391.24169L221.78815,393.64195
				L222.26821,393.64195L222.26821,396.0422L222.50824,396.0422L222.50824,399.88261L222.9883,399.88261L222.9883,410.68376L223.22833,410.68376
				L223.22833,424.60525L222.9883,424.60525L222.9883,426.0454L222.50824,426.0454L222.50824,427.48555L222.26821,427.48555L222.26821,429.16573
				L221.78815,429.16573L221.78815,430.60589L221.54812,430.60589L221.54812,432.28607L221.06805,432.28607L221.06805,433.72622
				L220.82802,433.72622L220.82802,435.16637L220.58799,435.16637L220.58799,436.84655L220.10793,436.84655L220.10793,438.2867L
				219.8679,438.2867L219.8679,439.24681L219.38784,439.24681L219.38784,440.20691L219.14781,440.20691L219.14781,440.92699L218.66775,440.92699
				L218.66775,441.88709L218.42772,441.88709L218.42772,443.08722L217.94766,443.08722L217.94766,444.04732L217.70763,444.04732
				L217.70763,444.7674L217.4676,444.7674L217.4676,445.7275L216.98754,445.7275L216.98754,446.92763L216.74751,446.92763L216.74751,447.88773
				L216.26745,447.88773L216.26745,448.6078L216.02742,448.6078L216.02742,449.56791L215.54735,449.56791L215.54735,450.52801L215.30732,450.52801
				L215.30732,451.72814L215.06729,451.72814L215.06729,452.68824L214.58723,452.68824L214.58723,453.64834L214.3472,453.64834L
				214.3472,454.84847L213.86714,454.84847L213.86714,455.80857L213.62711,455.80857L213.62711,456.76867L213.14705,456.76867L213.14705,457.9688
				L212.90702,457.9688L212.90702,458.9289L212.42696,458.9289L212.42696,459.88901L212.18693,459.88901L212.18693,460.84911L211.9469,460.84911
				L211.9469,461.56919L211.46684,461.56919L211.46684,462.28926L211.22681,462.28926L211.22681,463.48939L210.74674,463.48939L
				210.74674,463.96944L210.50671,463.96944L210.50671,464.68952L210.02665,464.68952L210.02665,465.88965L209.78662,465.88965L
				209.78662,466.60972L209.30656,466.60972L209.30656,467.08977L209.06653,467.08977L209.06653,467.80985L208.8265,467.80985L208.8265,57.36611
				L374.68755,57.36611L374.68755,57.84616L375.16761,57.84616L375.16761,58.56624L375.40764,58.56624L375.40764,59.04629L375.8877,59.04629
				L375.8877,59.76637L376.12773,59.76637L376.12773,60.48645L376.60779,60.48645L376.60779,61.20652L376.84782,61.20652L376.84782,61.68657
				L377.08785,61.68657L377.08785,62.16663L377.56791,62.16663L377.56791,62.64668L377.80795,62.64668L377.80795,63.36675L378.28801,63.36675
				L378.28801,63.60678L378.52804,63.60678L378.52804,64.08683L379.0081,64.08683L379.0081,64.56688L379.24813,64.56688L379.24813,65.04693
				L379.72819,65.04693L379.72819,65.76701L379.96822,65.76701L379.96822,66.00703L380.20825,66.00703L380.20825,66.48709L380.68831,66.48709
				L380.68831,66.72711L380.92834,66.72711L380.92834,67.44719L381.4084,67.44719L381.4084,67.68721L381.64843,67.68721L381.64843,68.16726
				L382.12849,68.16726L382.12849,68.40729L382.36852,68.40729L382.36852,69.12737L382.60855,69.12737L382.60855,69.60742L383.08862,69.60742
				L383.08862,69.84744L383.32865,69.84744L383.32865,70.08747L383.80871,70.08747L383.80871,70.80755L384.04874,70.80755L384.04874,71.2876
				L384.5288,71.2876L384.5288,72.00767L384.76883,72.00767L384.76883,72.2477L385.24889,72.2477L385.24889,72.72775L385.48892,72.72775
				L385.48892,72.96778L385.72895,72.96778L385.72895,73.68785L386.20901,73.68785L386.20901,73.92788L386.44904,73.92788L386.44904,74.40793
				L386.9291,74.40793L386.9291,74.64796L387.16913,74.64796L387.16913,607.26471"/>
			<path clip-path="url(#SVG_CP_2)" fill="none" stroke="#999999" stroke-width="0.96012" stroke-miterlimit="10" stroke-linecap="round" stroke-linejoin="round" d="
				M352.36472,607.98479L351.88466,607.98479L351.88466,607.74476L352.36472,607.74476L352.36472,607.98479"/>
			<path clip-path="url(#SVG_CP_2)" fill="none" stroke="#999999" stroke-width="0.96012" stroke-miterlimit="10" stroke-linecap="round" stroke-linejoin="round" d="
				M351.88466,608.70486L351.64463,608.70486L351.64463,608.46484L351.88466,608.46484L351.88466,608.70486"/>
			<path clip-path="url(#SVG_CP_2)" fill="none" stroke="#999999" stroke-width="0.96012" stroke-miterlimit="10" stroke-linecap="round" stroke-linejoin="round" d="
				M351.40459,610.38504L350.92453,610.38504L350.92453,610.14502L351.40459,610.14502L351.40459,610.38504"/>
			<path clip-path="url(#SVG_CP_2)" fill="none" stroke="#999999" stroke-width="0.96012" stroke-miterlimit="10" stroke-linecap="round" stroke-linejoin="round" d="
				M350.6845,612.06522L350.20444,612.06522L350.20444,611.8252L350.6845,611.8252L350.6845,612.06522"/>
			<path clip-path="url(#SVG_CP_2)" fill="none" stroke="#999999" stroke-width="0.96012" stroke-miterlimit="10" stroke-linecap="round" stroke-linejoin="round" d="
				M350.20444,612.7853L349.96441,612.7853L349.96441,612.54527L350.20444,612.54527L350.20444,612.7853"/>
			<path clip-path="url(#SVG_CP_2)" fill="none" stroke="#999999" stroke-width="0.96012" stroke-miterlimit="10" stroke-linecap="round" stroke-linejoin="round" d="
				M349.48435,614.46548L349.24432,614.46548L349.24432,614.22545L349.48435,614.22545L349.48435,614.46548"/>
			<path clip-path="url(#SVG_CP_2)" fill="none" stroke="#999999" stroke-width="0.96012" stroke-miterlimit="10" stroke-linecap="round" stroke-linejoin="round" d="
				M349.00429,616.38568L348.52423,616.38568L348.52423,615.90563L349.00429,615.90563L349.00429,616.38568"/>
			<path clip-path="url(#SVG_CP_2)" fill="none" stroke="#999999" stroke-width="0.96012" stroke-miterlimit="10" stroke-linecap="round" stroke-linejoin="round" d="
				M348.52423,617.10576L348.2842,617.10576L348.2842,616.62571L348.52423,616.62571L348.52423,617.10576"/>
			<path clip-path="url(#SVG_CP_2)" fill="none" stroke="#999999" stroke-width="0.96012" stroke-miterlimit="10" stroke-linecap="round" stroke-linejoin="round" d="
				M347.80414,618.78594L347.56411,618.78594L347.56411,618.30589L347.80414,618.30589L347.80414,618.78594"/>
			<path clip-path="url(#SVG_CP_2)" fill="none" stroke="#999999" stroke-width="0.96012" stroke-miterlimit="10" stroke-linecap="round" stroke-linejoin="round" d="
				M347.08405,620.46612L346.84402,620.46612L346.84402,620.22609L347.08405,620.22609L347.08405,620.46612"/>
			<path clip-path="url(#SVG_CP_2)" fill="none" stroke="#999999" stroke-width="0.96012" stroke-miterlimit="10" stroke-linecap="round" stroke-linejoin="round" d="
				M346.84402,621.18619L346.36396,621.18619L346.36396,620.70614L346.84402,620.70614L346.84402,621.18619"/>
			<path clip-path="url(#SVG_CP_2)" fill="none" stroke="#999999" stroke-width="0.96012" stroke-miterlimit="10" stroke-linecap="round" stroke-linejoin="round" d="
				M346.12392,622.86637L345.88389,622.86637L345.88389,622.62635L346.12392,622.62635L346.12392,622.86637"/>
			<path clip-path="url(#SVG_CP_2)" fill="none" stroke="#999999" stroke-width="0.96012" stroke-miterlimit="10" stroke-linecap="round" stroke-linejoin="round" d="
				M345.40383,624.54655L345.1638,624.54655L345.1638,624.30653L345.40383,624.30653L345.40383,624.54655"/>
			<path clip-path="url(#SVG_CP_2)" fill="none" stroke="#999999" stroke-width="0.96012" stroke-miterlimit="10" stroke-linecap="round" stroke-linejoin="round" d="
				M345.1638,625.26663L344.68374,625.26663L344.68374,625.0266L345.1638,625.0266L345.1638,625.26663"/>
			<path clip-path="url(#SVG_CP_2)" fill="none" stroke="#999999" stroke-width="0.96012" stroke-miterlimit="10" stroke-linecap="round" stroke-linejoin="round" d="
				M344.44371,626.94681L343.96365,626.94681L343.96365,626.70678L344.44371,626.70678L344.44371,626.94681"/>
			<path clip-path="url(#SVG_CP_2)" fill="none" stroke="#999999" stroke-width="0.96012" stroke-miterlimit="10" stroke-linecap="round" stroke-linejoin="round" d="
				M343.72362,628.62699L343.48359,628.62699L343.48359,628.38696L343.72362,628.38696L343.72362,628.62699"/>
			<path clip-path="url(#SVG_CP_2)" fill="none" stroke="#999999" stroke-width="0.96012" stroke-miterlimit="10" stroke-linecap="round" stroke-linejoin="round" d="
				M342.7635,631.26727L342.28344,631.26727L342.28344,630.78722L342.7635,630.78722L342.7635,631.26727"/>
			<path clip-path="url(#SVG_CP_2)" fill="none" stroke="#999999" stroke-width="0.96012" stroke-miterlimit="10" stroke-linecap="round" stroke-linejoin="round" d="
				M342.04341,632.94745L341.56335,632.94745L341.56335,632.4674L342.04341,632.4674L342.04341,632.94745"/>
			<path clip-path="url(#SVG_CP_2)" fill="none" stroke="#999999" stroke-width="0.96012" stroke-miterlimit="10" stroke-linecap="round" stroke-linejoin="round" d="
				M341.56335,634.14758L341.32332,634.14758L341.32332,633.90755L341.56335,633.90755L341.56335,634.14758"/>
			<path clip-path="url(#SVG_CP_2)" fill="none" stroke="#999999" stroke-width="0.96012" stroke-miterlimit="10" stroke-linecap="round" stroke-linejoin="round" d="
				M341.32332,636.30781L340.84325,636.30781L340.84325,636.06778L341.32332,636.06778L341.32332,636.30781"/>
			<path clip-path="url(#SVG_CP_2)" fill="none" stroke="#999999" stroke-width="0.96012" stroke-miterlimit="10" stroke-linecap="round" stroke-linejoin="round" d="
				M340.84325,638.70806L340.60322,638.70806L340.60322,637.98799L340.84325,637.98799L340.84325,638.70806"/>
			<path clip-path="url(#SVG_CP_2)" fill="none" stroke="#999999" stroke-width="0.96012" stroke-miterlimit="10" stroke-linecap="round" stroke-linejoin="round" d="
				M340.60322,640.86829L340.36319,640.86829L340.36319,640.14822L340.60322,640.14822L340.60322,640.86829"/>
			<path clip-path="url(#SVG_CP_2)" fill="none" stroke="#999999" stroke-width="0.96012" stroke-miterlimit="10" stroke-linecap="round" stroke-linejoin="round" d="
				M340.36319,642.7885L339.88313,642.7885L339.88313,642.54847L340.36319,642.54847L340.36319,642.7885"/>
			<path clip-path="url(#SVG_CP_2)" fill="none" stroke="#999999" stroke-width="0.96012" stroke-miterlimit="10" stroke-linecap="round" stroke-linejoin="round" d="
				M339.88313,644.94873L339.6431,644.94873L339.6431,644.7087L339.88313,644.7087L339.88313,644.94873"/>
			<path clip-path="url(#SVG_CP_2)" fill="none" stroke="#999999" stroke-width="0.96012" stroke-miterlimit="10" stroke-linecap="round" stroke-linejoin="round" d="
				M339.6431,647.10896L339.16304,647.10896L339.16304,646.62891L339.6431,646.62891L339.6431,647.10896"/>
			<path clip-path="url(#SVG_CP_2)" fill="none" stroke="#999999" stroke-width="0.96012" stroke-miterlimit="10" stroke-linecap="round" stroke-linejoin="round" d="
				M339.16304,649.02916L338.92301,649.02916L338.92301,648.78914L339.16304,648.78914L339.16304,649.02916"/>
			<path clip-path="url(#SVG_CP_2)" fill="none" stroke="#999999" stroke-width="0.96012" stroke-miterlimit="10" stroke-linecap="round" stroke-linejoin="round" d="
				M338.92301,651.18939L338.44295,651.18939L338.44295,650.94937L338.92301,650.94937L338.92301,651.18939"/>
			<path clip-path="url(#SVG_CP_2)" fill="none" stroke="#999999" stroke-width="0.96012" stroke-miterlimit="10" stroke-linecap="round" stroke-linejoin="round" d="
				M338.44295,653.58965L338.20292,653.58965L338.20292,652.86957L338.44295,652.86957L338.44295,653.58965"/>
			<path clip-path="url(#SVG_CP_2)" fill="none" stroke="#999999" stroke-width="0.96012" stroke-miterlimit="10" stroke-linecap="round" stroke-linejoin="round" d="
				M338.20292,655.74988L337.72286,655.74988L337.72286,655.26983L338.20292,655.26983L338.20292,655.74988"/>
			<path clip-path="url(#SVG_CP_2)" fill="none" stroke="#999999" stroke-width="0.96012" stroke-miterlimit="10" stroke-linecap="round" stroke-linejoin="round" d="
				M338.44295,655.9899L338.20292,655.9899L338.20292,655.74988L338.44295,655.74988L338.44295,655.9899"/>
			<path clip-path="url(#SVG_CP_2)" fill="none" stroke="#999999" stroke-width="0.96012" stroke-miterlimit="10" stroke-linecap="round" stroke-linejoin="round" d="
				M338.92301,656.46995L338.44295,656.46995L338.44295,655.9899L338.92301,655.9899L338.92301,656.46995"/>
			<path clip-path="url(#SVG_CP_2)" fill="none" stroke="#999999" stroke-width="0.96012" stroke-miterlimit="10" stroke-linecap="round" stroke-linejoin="round" d="
				M339.16304,656.70998L338.92301,656.70998L338.92301,656.46995L339.16304,656.46995L339.16304,656.70998"/>
			<path clip-path="url(#SVG_CP_2)" fill="none" stroke="#999999" stroke-width="0.96012" stroke-miterlimit="10" stroke-linecap="round" stroke-linejoin="round" d="
				M339.6431,656.95001L339.16304,656.95001L339.16304,656.70998L339.6431,656.70998L339.6431,656.95001"/>
			<path clip-path="url(#SVG_CP_2)" fill="none" stroke="#999999" stroke-width="0.96012" stroke-miterlimit="10" stroke-linecap="round" stroke-linejoin="round" d="
				M339.88313,657.43006L339.6431,657.43006L339.6431,656.95001L339.88313,656.95001L339.88313,657.43006"/>
			<path clip-path="url(#SVG_CP_2)" fill="none" stroke="#999999" stroke-width="0.96012" stroke-miterlimit="10" stroke-linecap="round" stroke-linejoin="round" d="
				M339.88313,657.43006L340.36319,657.43006L340.36319,657.67008L339.88313,657.67008L339.88313,657.43006"/>
			<path clip-path="url(#SVG_CP_2)" fill="none" stroke="#999999" stroke-width="0.96012" stroke-miterlimit="10" stroke-linecap="round" stroke-linejoin="round" d="
				M366.52651,679.51241L366.76654,679.51241L366.76654,679.03236L367.24661,679.03236L367.24661,678.79233L367.48664,678.79233
				L367.48664,678.55231L367.9667,678.55231L367.9667,678.07226L368.20673,678.07226L368.20673,677.83223L368.44676,677.83223L368.44676,677.35218
				L368.92682,677.35218L368.92682,677.11215L369.16685,677.11215L369.16685,676.6321L369.64691,676.6321L369.64691,676.39208L369.88694,676.39208
				L369.88694,675.91203L370.367,675.91203L370.367,672.31164L370.60703,672.31164L370.60703,671.83159L371.08709,671.83159L371.08709,670.87149
				L372.28724,670.87149L372.28724,671.11151L372.76731,671.11151L372.76731,670.39144L372.28724,670.39144L372.28724,669.91139
				L372.04721,669.91139L372.04721,669.19131L371.56715,669.19131L371.56715,668.47123L371.32712,668.47123L371.32712,667.75116
				L371.08709,667.75116L371.08709,667.03108L370.60703,667.03108L370.60703,666.79105L370.367,666.79105L370.367,666.07098L369.88694,666.07098
				L369.88694,665.59093L371.08709,665.59093L371.08709,666.07098L373.4874,666.07098L373.4874,666.311L375.8877,666.311L375.8877,666.79105
				L378.28801,666.79105L378.28801,667.03108L379.24813,667.03108L379.24813,668.71126L379.72819,668.71126L379.72819,674.7119L
				379.96822,674.7119L379.96822,679.75244L367.9667,679.75244L367.9667,688.39336L367.48664,688.39336L367.48664,690.55359L367.24661,690.55359
				L367.24661,690.79361L366.52651,690.79361L366.52651,679.51241"/>
			<path clip-path="url(#SVG_CP_2)" fill="none" stroke="#999999" stroke-width="0.96012" stroke-miterlimit="10" stroke-linecap="round" stroke-linejoin="round" d="
				M367.24661,692.71382L366.76654,692.71382L366.76654,691.99374L367.24661,691.99374L367.24661,692.71382"/>
			<path clip-path="url(#SVG_CP_2)" fill="none" stroke="#999999" stroke-width="0.96012" stroke-miterlimit="10" stroke-linecap="round" stroke-linejoin="round" d="
				M366.76654,694.394L366.52651,694.394L366.52651,693.91394L366.76654,693.91394L366.76654,694.394"/>
			<path clip-path="url(#SVG_CP_2)" fill="none" stroke="#999999" stroke-width="0.96012" stroke-miterlimit="10" stroke-linecap="round" stroke-linejoin="round" d="
				M366.52651,696.3142L366.04645,696.3142L366.04645,696.07417L366.52651,696.07417L366.52651,696.3142"/>
			<path clip-path="url(#SVG_CP_2)" fill="none" stroke="#999999" stroke-width="0.96012" stroke-miterlimit="10" stroke-linecap="round" stroke-linejoin="round" d="
				M366.04645,698.47443L365.80642,698.47443L365.80642,698.2344L366.04645,698.2344L366.04645,698.47443"/>
			<path clip-path="url(#SVG_CP_2)" fill="none" stroke="#999999" stroke-width="0.96012" stroke-miterlimit="10" stroke-linecap="round" stroke-linejoin="round" d="
				M365.80642,700.63466L365.56639,700.63466L365.56639,700.15461L365.80642,700.15461L365.80642,700.63466"/>
			<path clip-path="url(#SVG_CP_2)" fill="none" stroke="#999999" stroke-width="0.96012" stroke-miterlimit="10" stroke-linecap="round" stroke-linejoin="round" d="
				M365.56639,702.55487L365.08633,702.55487L365.08633,702.31484L365.56639,702.31484L365.56639,702.55487"/>
			<path clip-path="url(#SVG_CP_2)" fill="none" stroke="#999999" stroke-width="0.96012" stroke-miterlimit="10" stroke-linecap="round" stroke-linejoin="round" d="
				M365.08633,704.7151L364.8463,704.7151L364.8463,704.23504L365.08633,704.23504L365.08633,704.7151"/>
			<path clip-path="url(#SVG_CP_2)" fill="none" stroke="#999999" stroke-width="0.96012" stroke-miterlimit="10" stroke-linecap="round" stroke-linejoin="round" d="
				M364.8463,706.6353L364.36624,706.6353L364.36624,706.39527L364.8463,706.39527L364.8463,706.6353"/>
			<path clip-path="url(#SVG_CP_2)" fill="none" stroke="#999999" stroke-width="0.96012" stroke-miterlimit="10" stroke-linecap="round" stroke-linejoin="round" d="
				M364.8463,709.51561L364.36624,709.51561L364.36624,709.27558L364.8463,709.27558L364.8463,709.51561"/>
			<path clip-path="url(#SVG_CP_2)" fill="none" stroke="#999999" stroke-width="0.96012" stroke-miterlimit="10" stroke-linecap="round" stroke-linejoin="round" d="
				M365.56639,711.19579L365.08633,711.19579L365.08633,710.95576L365.56639,710.95576L365.56639,711.19579"/>
			<path clip-path="url(#SVG_CP_2)" fill="none" stroke="#999999" stroke-width="0.96012" stroke-miterlimit="10" stroke-linecap="round" stroke-linejoin="round" d="
				M366.04645,712.87597L365.80642,712.87597L365.80642,712.63594L366.04645,712.63594L366.04645,712.87597"/>
			<path clip-path="url(#SVG_CP_2)" fill="none" stroke="#999999" stroke-width="0.96012" stroke-miterlimit="10" stroke-linecap="round" stroke-linejoin="round" d="
				M366.76654,714.79617L366.52651,714.79617L366.52651,714.31612L366.76654,714.31612L366.76654,714.79617"/>
			<path clip-path="url(#SVG_CP_2)" fill="none" stroke="#999999" stroke-width="0.96012" stroke-miterlimit="10" stroke-linecap="round" stroke-linejoin="round" d="
				M367.24661,715.75627L366.76654,715.75627L366.76654,715.27622L367.24661,715.27622L367.24661,715.75627"/>
			<path clip-path="url(#SVG_CP_2)" fill="none" stroke="#999999" stroke-width="0.96012" stroke-miterlimit="10" stroke-linecap="round" stroke-linejoin="round" d="
				M367.48664,716.47635L367.24661,716.47635L367.24661,715.9963L367.48664,715.9963L367.48664,716.47635"/>
			<path clip-path="url(#SVG_CP_2)" fill="none" stroke="#999999" stroke-width="0.96012" stroke-miterlimit="10" stroke-linecap="round" stroke-linejoin="round" d="
				M367.9667,740.95896L367.48664,740.95896L367.48664,740.47891L367.9667,740.47891L367.9667,740.95896"/>
			<path clip-path="url(#SVG_CP_2)" fill="none" stroke="#999999" stroke-width="0.96012" stroke-miterlimit="10" stroke-linecap="round" stroke-linejoin="round" d="
				M369.16685,742.63914L368.92682,742.63914L368.92682,742.39911L369.16685,742.39911L369.16685,742.63914"/>
			<path clip-path="url(#SVG_CP_2)" fill="none" stroke="#999999" stroke-width="0.96012" stroke-miterlimit="10" stroke-linecap="round" stroke-linejoin="round" d="
				M379.24813,758.96088L378.52804,758.96088L378.52804,752.96024L378.28801,752.96024L378.28801,748.8798L378.52804,748.8798L378.52804,749.11983
				L379.24813,749.11983L379.24813,749.59988L379.96822,749.59988L379.96822,749.8399L380.68831,749.8399L380.68831,750.31996L380.92834,750.31996
				L380.92834,750.55998L381.64843,750.55998L381.64843,751.04003L382.12849,751.04003L382.12849,751.52008L381.64843,751.52008
				L381.64843,752.24016L381.4084,752.24016L381.4084,753.44029L380.92834,753.44029L380.92834,754.40039L380.68831,754.40039L380.68831,755.12047
				L380.20825,755.12047L380.20825,756.08057L379.96822,756.08057L379.96822,757.04067L379.72819,757.04067L379.72819,757.76075
				L379.24813,757.76075L379.24813,758.96088"/>
			<path clip-path="url(#SVG_CP_2)" fill="none" stroke="#999999" stroke-width="0.96012" stroke-miterlimit="10" stroke-linecap="round" stroke-linejoin="round" d="
				M381.4084,780.56318L380.92834,780.56318L380.92834,779.8431L380.68831,779.8431L380.68831,778.883L380.20825,778.883L380.20825,778.16292
				L379.96822,778.16292L379.96822,777.20282L379.72819,777.20282L379.72819,776.24272L379.24813,776.24272L379.24813,775.04259
				L379.0081,775.04259L379.0081,771.92226L379.72819,771.92226L379.72819,772.40231L380.20825,772.40231L380.20825,772.64233L380.92834,772.64233
				L380.92834,773.12239L381.4084,773.12239L381.4084,773.36241L382.12849,773.36241L382.12849,773.84246L382.36852,773.84246L382.36852,774.08249
				L383.08862,774.08249L383.08862,774.32251L383.80871,774.32251L383.80871,774.80256L384.04874,774.80256L384.04874,775.04259
				L384.5288,775.04259L384.5288,775.52264L384.04874,775.52264L384.04874,776.24272L383.80871,776.24272L383.80871,776.48274L383.32865,776.48274
				L383.32865,777.20282L383.08862,777.20282L383.08862,777.9229L382.60855,777.9229L382.60855,778.16292L382.36852,778.16292L382.36852,778.883
				L382.12849,778.883L382.12849,779.60308L381.64843,779.60308L381.64843,780.32315L381.4084,780.32315L381.4084,780.56318"/>
			<path clip-path="url(#SVG_CP_2)" fill="none" stroke="#999999" stroke-width="0.96012" stroke-miterlimit="10" stroke-linecap="round" stroke-linejoin="round" d="
				M370.367,672.31164L369.88694,672.31164L369.88694,673.51177L369.64691,673.51177L369.64691,674.7119L369.16685,674.7119L369.16685,675.672
				L368.92682,675.672L368.92682,676.6321L368.44676,676.6321L368.44676,677.35218L368.20673,677.35218L368.20673,677.83223L367.9667,677.83223
				L367.9667,678.07226L367.48664,678.07226L367.48664,678.55231L367.24661,678.55231L367.24661,678.79233L366.76654,678.79233L
				366.76654,679.03236L366.52651,679.03236L366.52651,679.51241L366.04645,679.51241L366.04645,690.79361L365.56639,690.79361L
				365.56639,690.55359L362.446,690.55359L362.446,690.07354L359.56563,690.07354L359.56563,689.83351L356.9253,689.83351L356.9253,689.59348
				L354.04493,689.59348L354.04493,689.11343L350.92453,689.11343L350.92453,688.87341L348.2842,688.87341L348.2842,688.39336L345.40383,688.39336
				L345.40383,688.15333L343.96365,688.15333L343.96365,688.39336L343.72362,688.39336L343.72362,688.87341L343.00353,688.87341
				L343.00353,689.11343L342.7635,689.11343L342.7635,689.59348L342.04341,689.59348L342.04341,689.83351L341.56335,689.83351L341.56335,690.07354
				L340.84325,690.07354L340.84325,690.55359L340.60322,690.55359L340.60322,690.79361L339.88313,690.79361L339.88313,691.27366
				L339.6431,691.27366L339.6431,691.51369L339.16304,691.51369L339.16304,691.99374L338.44295,691.99374L338.44295,692.23377L338.20292,692.23377
				L338.20292,692.71382L337.48283,692.71382L337.48283,692.23377L332.68222,692.23377L332.68222,691.99374L328.12164,691.99374
				L328.12164,691.51369L323.32103,691.51369L323.32103,691.27366L318.76045,691.27366L318.76045,690.79361L313.95984,690.79361
				L313.95984,690.55359L310.11936,690.55359L310.11936,690.79361L310.59942,690.79361L310.59942,691.51369L310.83945,691.51369
				L310.83945,692.23377L311.31951,692.23377L311.31951,692.95384L311.55954,692.95384L311.55954,693.67392L312.0396,693.67392L
				312.0396,693.91394L312.27963,693.91394L312.27963,694.63402L312.75969,694.63402L312.75969,695.3541L312.99972,695.3541L312.99972,696.07417
				L313.23975,696.07417L313.23975,696.79425L313.71981,696.79425L313.71981,697.03428L313.95984,697.03428L313.95984,697.75435
				L314.4399,697.75435L314.4399,698.47443L314.67993,698.47443L314.67993,699.19451L315.16,699.19451L315.16,699.91458L315.40003,699.91458
				L315.40003,700.15461L315.64006,700.15461L315.64006,700.87469L316.12012,700.87469L316.12012,701.59476L316.36015,701.59476
				L316.36015,702.31484L316.84021,702.31484L316.84021,702.55487L317.08024,702.55487L317.08024,703.27494L317.5603,703.27494L
				317.5603,703.99502L317.80033,703.99502L317.80033,704.7151L318.28039,704.7151L318.28039,704.95512L318.52042,704.95512L318.52042,705.43517
				L318.76045,705.43517L318.76045,706.15525L319.24051,706.15525L319.24051,706.39527L319.48054,706.39527L319.48054,707.11535
				L319.9606,707.11535L319.9606,707.35538L320.20063,707.35538L320.20063,707.83543L320.6807,707.83543L320.6807,708.5555L320.92073,708.5555
				L320.92073,708.79553L321.16076,708.79553L321.16076,709.51561L321.64082,709.51561L321.64082,710.95576L321.88085,710.95576
				L321.88085,711.91586L322.36091,711.91586L322.36091,713.35602L322.60094,713.35602L322.60094,714.79617L323.081,714.79617L323.081,715.75627
				L323.32103,715.75627L323.32103,717.19643L323.80109,717.19643L323.80109,719.59668L324.04112,719.59668L324.04112,721.99694
				L324.28115,721.99694L324.28115,724.63722L324.76121,724.63722L324.76121,726.3174L325.00124,726.3174L325.00124,727.03747L325.48131,727.03747
				L325.48131,727.75755L325.72134,727.75755L325.72134,728.47763L326.2014,728.47763L326.2014,729.1977L326.44143,729.1977L326.44143,729.43773
				L326.68146,729.43773L326.68146,730.15781L327.16152,730.15781L327.16152,730.87788L327.40155,730.87788L327.40155,731.59796
				L327.88161,731.59796L327.88161,732.31804L328.12164,732.31804L328.12164,733.03811L328.6017,733.03811L328.6017,733.27814L328.84173,733.27814
				L328.84173,733.99822L329.32179,733.99822L329.32179,734.71829L329.56182,734.71829L329.56182,735.43837L329.80185,735.43837
				L329.80185,736.15845L330.28191,736.15845L330.28191,736.87852L330.52194,736.87852L330.52194,737.11855L331.00201,737.11855
				L331.00201,737.83863L331.24204,737.83863L331.24204,738.5587L331.7221,738.5587L331.7221,739.27878L331.96213,739.27878L331.96213,739.5188
				L332.20216,739.5188L332.20216,740.23888L332.68222,740.23888L332.68222,740.95896L332.92225,740.95896L332.92225,741.67903L
				333.40231,741.67903L333.40231,741.91906L333.64234,741.91906L333.64234,742.63914L334.1224,742.63914L334.1224,743.35921L334.36243,743.35921
				L334.36243,744.07929L334.84249,744.07929L334.84249,744.31932L335.08252,744.31932L335.08252,745.03939L335.32255,745.03939
				L335.32255,745.75947L335.80261,745.75947L335.80261,745.99949L336.04265,745.99949L336.04265,746.71957L336.52271,746.71957
				L336.52271,747.43965L336.76274,747.43965L336.76274,748.15973L337.2428,748.15973L337.2428,748.63978L337.48283,748.63978L337.48283,749.11983
				L337.72286,749.11983L337.72286,749.8399L338.20292,749.8399L338.20292,750.55998L338.44295,750.55998L338.44295,751.28006L338.92301,751.28006
				L338.92301,751.52008L339.16304,751.52008L339.16304,752.24016L339.6431,752.24016L339.6431,752.96024L339.88313,752.96024L339.88313,753.68031
				L340.36319,753.68031L340.36319,754.40039L340.60322,754.40039L340.60322,754.64042L340.84325,754.64042L340.84325,755.36049
				L341.32332,755.36049L341.32332,756.08057L341.56335,756.08057L341.56335,756.80065L342.04341,756.80065L342.04341,757.52072
				L342.28344,757.52072L342.28344,758.2408L342.7635,758.2408L342.7635,758.48082L343.00353,758.48082L343.00353,759.2009L344.44371,759.2009
				L344.44371,758.96088L345.40383,758.96088L345.40383,758.48082L346.36396,758.48082L346.36396,758.2408L347.56411,758.2408L347.56411,757.76075
				L348.52423,757.76075L348.52423,756.56062L349.00429,756.56062L349.00429,755.36049L349.24432,755.36049L349.24432,754.16036
				L349.48435,754.16036L349.48435,753.44029L349.96441,753.44029L349.96441,752.96024L350.92453,752.96024L350.92453,752.72021
				L351.64463,752.72021L351.64463,752.24016L352.36472,752.24016L352.36472,752.00013L353.32484,752.00013L353.32484,751.52008
				L354.04493,751.52008L354.04493,751.28006L355.00505,751.28006L355.00505,751.04003L355.72514,751.04003L355.72514,750.55998
				L356.44523,750.55998L356.44523,750.31996L357.16533,750.31996L357.16533,749.8399L357.40536,749.8399L357.40536,749.11983L357.88542,749.11983
				L357.88542,748.8798L358.12545,748.8798L358.12545,748.15973L358.60551,748.15973L358.60551,747.43965L358.84554,747.43965L358.84554,747.19962
				L359.3256,747.19962L359.3256,746.47955L359.56563,746.47955L359.56563,745.75947L360.04569,745.75947L360.04569,745.51944L360.28572,745.51944
				L360.28572,744.79937L360.52575,744.79937L360.52575,744.07929L361.00581,744.07929L361.00581,743.59924L361.24584,743.59924
				L361.24584,743.11919L361.7259,743.11919L361.7259,742.39911L361.96594,742.39911L361.96594,741.67903L362.446,741.67903L362.446,741.19898
				L362.68603,741.19898L362.68603,740.47891L362.92606,740.47891L362.92606,739.99886L362.446,739.99886L362.446,739.5188L361.00581,739.5188
				L361.00581,739.27878L359.56563,739.27878L359.56563,738.79873L358.60551,738.79873L358.60551,737.35857L358.84554,737.35857
				L358.84554,736.15845L359.3256,736.15845L359.3256,734.71829L359.56563,734.71829L359.56563,733.27814L366.52651,733.27814L366.52651,736.87852
				L366.04645,736.87852L366.04645,740.23888L365.80642,740.23888L365.80642,743.11919L366.04645,743.11919L366.04645,743.35921
				L366.52651,743.35921L366.52651,743.59924L367.24661,743.59924L367.24661,744.07929L367.48664,744.07929L367.48664,744.31932
				L368.20673,744.31932L368.20673,744.79937L368.44676,744.79937L368.44676,745.03939L369.16685,745.03939L369.16685,745.51944
				L369.64691,745.51944L369.64691,745.75947L370.367,745.75947L370.367,745.99949L370.60703,745.99949L370.60703,746.47955L371.32712,746.47955
				L371.32712,746.71957L371.56715,746.71957L371.56715,749.11983L371.32712,749.11983L371.32712,752.00013L371.08709,752.00013
				L371.08709,754.64042L370.60703,754.64042L370.60703,757.52072L370.367,757.52072L370.367,759.92098L369.88694,759.92098L369.88694,762.56126
				L369.64691,762.56126L369.64691,765.44157L369.16685,765.44157L369.16685,766.16164L368.92682,766.16164L368.92682,765.68159
				L366.04645,765.68159L366.04645,765.44157L363.64615,765.44157L363.64615,765.68159L363.40612,765.68159L363.40612,766.16164
				L362.92606,766.16164L362.92606,766.40167L362.446,766.40167L362.446,766.88172L361.7259,766.88172L361.7259,766.40167L361.00581,766.40167
				L361.00581,766.16164L360.28572,766.16164L360.28572,765.68159L360.04569,765.68159L360.04569,765.44157L359.3256,765.44157L
				359.3256,765.20154L358.60551,765.20154L358.60551,764.72149L357.88542,764.72149L357.88542,764.48146L355.00505,764.48146L355.00505,764.00141
				L351.64463,764.00141L351.64463,763.76139L347.08405,763.76139L347.08405,764.00141L345.88389,764.00141L345.88389,764.48146
				L344.44371,764.48146L344.44371,764.72149L343.48359,764.72149L343.48359,765.20154L342.04341,765.20154L342.04341,765.44157
				L340.60322,765.44157L340.60322,765.68159L339.16304,765.68159L339.16304,766.16164L338.20292,766.16164L338.20292,766.40167
				L336.76274,766.40167L336.76274,766.88172L335.32255,766.88172L335.32255,767.12175L334.36243,767.12175L334.36243,767.6018L
				332.92225,767.6018L332.92225,767.84182L331.7221,767.84182L331.7221,768.08185L330.28191,768.08185L330.28191,768.5619L329.32179,768.5619
				L329.32179,768.80192L327.88161,768.80192L327.88161,769.28198L326.44143,769.28198L326.44143,769.522L325.72134,769.522L325.72134,770.00205
				L325.00124,770.00205L325.00124,770.24208L324.28115,770.24208L324.28115,770.72213L323.32103,770.72213L323.32103,770.96215
				L322.60094,770.96215L322.60094,771.20218L321.88085,771.20218L321.88085,771.68223L321.16076,771.68223L321.16076,771.92226
				L320.20063,771.92226L320.20063,772.40231L319.48054,772.40231L319.48054,772.64233L318.76045,772.64233L318.76045,773.12239
				L317.80033,773.12239L317.80033,773.36241L317.08024,773.36241L317.08024,773.84246L316.36015,773.84246L316.36015,774.08249
				L315.64006,774.08249L315.64006,774.32251L314.67993,774.32251L314.67993,774.80256L313.95984,774.80256L313.95984,775.04259
				L313.23975,775.04259L313.23975,775.52264L312.75969,775.52264L312.75969,775.76267L311.55954,775.76267L311.55954,776.24272
				L310.83945,776.24272L310.83945,776.48274L310.11936,776.48274L310.11936,776.72277L309.63929,776.72277L309.63929,777.20282
				L308.43914,777.20282L308.43914,777.44285L307.71905,777.44285L307.71905,777.9229L307.23899,777.9229L307.23899,778.16292L306.75893,778.16292
				L306.75893,778.64297L306.03884,778.64297L306.03884,778.883L305.79881,778.883L305.79881,779.36305L305.07872,779.36305L305.07872,779.60308
				L304.35862,779.60308L304.35862,779.8431L304.11859,779.8431L304.11859,780.32315L303.3985,780.32315L303.3985,780.56318L302.91844,780.56318
				L302.91844,781.04323L302.19835,781.04323L302.19835,781.28325L301.95832,781.28325L301.95832,781.76331L301.23823,781.76331
				L301.23823,782.00333L300.51814,782.00333L300.51814,782.24336L300.27811,782.24336L300.27811,782.72341L299.55802,782.72341
				L299.55802,782.96343L299.07795,782.96343L299.07795,783.44348L298.59789,783.44348L298.59789,783.68351L298.11783,783.68351
				L298.11783,784.16356L297.39774,784.16356L297.39774,784.40359L296.67765,784.40359L296.67765,784.88364L272.6746,784.88364L
				272.6746,784.40359L272.19454,784.40359L272.19454,784.16356L271.47445,784.16356L271.47445,783.68351L271.23442,783.68351L271.23442,783.44348
				L270.75436,783.44348L270.75436,782.96343L270.51433,782.96343L270.51433,782.72341L269.79424,782.72341L269.79424,782.24336
				L268.35406,782.24336L268.35406,782.00333L266.67384,782.00333L266.67384,782.24336L266.43381,782.24336L266.43381,782.72341
				L265.95375,782.72341L265.95375,782.96343L265.71372,782.96343L265.71372,783.44348L265.23366,783.44348L265.23366,784.16356
				L264.99363,784.16356L264.99363,784.40359L264.7536,784.40359L264.7536,784.88364L253.7122,784.88364L253.7122,784.40359L252.51205,784.40359
				L252.51205,784.16356L251.31189,784.16356L251.31189,783.68351L249.87171,783.68351L249.87171,783.44348L246.99134,783.44348
				L246.99134,782.96343L243.63092,782.96343L243.63092,782.72341L239.79043,782.72341L239.79043,783.44348L239.5504,783.44348L
				239.5504,784.16356L239.07034,784.16356L239.07034,784.88364L208.8265,784.88364L208.8265,469.49003L209.06653,469.49003L209.06653,472.13031
				L209.30656,472.13031L209.30656,474.53057L209.78662,474.53057L209.78662,476.93082L210.02665,476.93082L210.02665,478.611L210.50671,478.611
				L210.50671,479.33108L210.74674,479.33108L210.74674,480.29118L211.22681,480.29118L211.22681,481.01126L211.46684,481.01126
				L211.46684,481.73133L211.9469,481.73133L211.9469,482.69144L212.18693,482.69144L212.18693,483.41151L212.42696,483.41151L212.42696,484.37162
				L212.90702,484.37162L212.90702,485.09169L213.14705,485.09169L213.14705,485.81177L213.62711,485.81177L213.62711,486.77187
				L213.86714,486.77187L213.86714,487.25192L214.3472,487.25192L214.3472,487.972L214.58723,487.972L214.58723,488.21202L215.06729,488.21202
				L215.06729,488.9321L215.30732,488.9321L215.30732,489.17213L215.54735,489.17213L215.54735,489.8922L216.02742,489.8922L216.02742,490.37225
				L216.26745,490.37225L216.26745,491.09233L216.74751,491.09233L216.74751,491.33236L216.98754,491.33236L216.98754,492.05243
				L217.4676,492.05243L217.4676,492.29246L217.70763,492.29246L217.70763,493.01254L217.94766,493.01254L217.94766,493.49259L218.42772,493.49259
				L218.42772,494.21266L218.66775,494.21266L218.66775,494.45269L219.14781,494.45269L219.14781,495.17277L219.38784,495.17277
				L219.38784,495.41279L219.8679,495.41279L219.8679,496.13287L220.10793,496.13287L220.10793,496.85295L220.58799,496.85295L220.58799,497.57302
				L220.82802,497.57302L220.82802,497.81305L221.06805,497.81305L221.06805,498.53312L221.54812,498.53312L221.54812,499.2532L
				221.78815,499.2532L221.78815,499.97328L222.26821,499.97328L222.26821,500.2133L222.50824,500.2133L222.50824,500.93338L222.9883,500.93338
				L222.9883,501.65346L223.22833,501.65346L223.22833,502.37353L223.46836,502.37353L223.46836,502.85359L223.94842,502.85359L
				223.94842,503.33364L224.18845,503.33364L224.18845,504.05371L224.66851,504.05371L224.66851,504.77379L224.90854,504.77379L
				224.90854,505.25384L225.3886,505.25384L225.3886,505.73389L225.62863,505.73389L225.62863,506.45397L226.10869,506.45397L226.10869,507.17405
				L226.34872,507.17405L226.34872,507.89412L226.58876,507.89412L226.58876,508.6142L227.06882,508.6142L227.06882,509.33428L227.30885,509.33428
				L227.30885,510.05435L227.78891,510.05435L227.78891,510.77443L228.02894,510.77443L228.02894,511.25448L228.509,511.25448L228.509,511.97456
				L228.74903,511.97456L228.74903,512.69463L228.98906,512.69463L228.98906,513.41471L229.46912,513.41471L229.46912,514.13479
				L229.70915,514.13479L229.70915,514.85486L230.18921,514.85486L230.18921,515.57494L230.42924,515.57494L230.42924,516.29502
				L230.9093,516.29502L230.9093,516.77507L231.14933,516.77507L231.14933,517.9752L231.62939,517.9752L231.62939,518.69527L231.86943,518.69527
				L231.86943,519.41535L232.10946,519.41535L232.10946,519.8954L232.58952,519.8954L232.58952,520.61548L232.82955,520.61548L232.82955,521.33555
				L233.30961,521.33555L233.30961,522.05563L233.54964,522.05563L233.54964,522.77571L234.0297,522.77571L234.0297,523.49578L234.26973,523.49578
				L234.26973,524.45589L234.50976,524.45589L234.50976,525.17596L234.98982,525.17596L234.98982,525.89604L235.22985,525.89604
				L235.22985,526.61612L235.70991,526.61612L235.70991,527.33619L235.94994,527.33619L235.94994,528.05627L236.43,528.05627L236.43,529.01637
				L236.67003,529.01637L236.67003,529.73645L237.1501,529.73645L237.1501,530.45653L237.39013,530.45653L237.39013,530.93658L237.63016,530.93658
				L237.63016,531.65665L238.11022,531.65665L238.11022,532.85678L238.35025,532.85678L238.35025,533.57686L238.83031,533.57686
				L238.83031,534.05691L239.07034,534.05691L239.07034,534.77699L239.5504,534.77699L239.5504,535.97711L239.79043,535.97711L239.79043,536.45717
				L240.03046,536.45717L240.03046,537.17724L240.51052,537.17724L240.51052,537.89732L240.75055,537.89732L240.75055,538.6174L
				241.23061,538.6174L241.23061,539.09745L242.19074,539.09745L242.19074,538.6174L243.87095,538.6174L243.87095,538.37737L245.31113,538.37737
				L245.31113,537.89732L246.99134,537.89732L246.99134,537.65729L247.71144,537.65729L247.71144,538.6174L248.1915,538.6174L248.1915,540.29758
				L248.43153,540.29758L248.43153,541.01765L249.15162,541.01765L249.15162,540.77763L249.39165,540.77763L249.39165,540.29758
				L249.87171,540.29758L249.87171,540.05755L250.5918,540.05755L250.5918,539.5775L250.83183,539.5775L250.83183,539.33747L251.31189,539.33747
				L251.31189,539.09745L251.79195,539.09745L251.79195,538.6174L252.27201,538.6174L252.27201,538.37737L252.51205,538.37737L252.51205,537.89732
				L252.99211,537.89732L252.99211,537.65729L253.7122,537.65729L253.7122,537.17724L253.95223,537.17724L253.95223,536.93722L254.19226,536.93722
				L254.19226,536.45717L254.91235,536.45717L254.91235,536.21714L255.39241,536.21714L255.39241,536.45717L255.63244,536.45717
				L255.63244,536.93722L256.1125,536.93722L256.1125,537.17724L256.83259,537.17724L256.83259,541.01765L257.07262,541.01765L257.07262,544.13798
				L257.79272,544.13798L257.79272,543.89796L259.71296,543.89796L259.71296,543.41791L261.6332,543.41791L261.6332,543.17788L263.55345,543.17788
				L263.55345,542.69783L265.71372,542.69783L265.71372,542.45781L271.47445,542.45781L271.47445,543.17788L271.23442,543.17788
				L271.23442,543.41791L272.6746,543.41791L272.6746,543.17788L275.07491,543.17788L275.07491,542.69783L277.47521,542.69783L277.47521,542.45781
				L279.39546,542.45781L279.39546,541.97775L280.59561,541.97775L280.59561,541.73773L281.3157,541.73773L281.3157,541.4977L282.27582,541.4977
				L282.27582,541.01765L282.99591,541.01765L282.99591,540.77763L283.95604,540.77763L283.95604,540.29758L284.67613,540.29758
				L284.67613,540.05755L285.63625,540.05755L285.63625,539.5775L287.07643,539.5775L287.07643,539.33747L288.51661,539.33747L288.51661,539.09745
				L289.9568,539.09745L289.9568,538.6174L291.15695,538.6174L291.15695,538.37737L292.59713,538.37737L292.59713,537.89732L294.03731,537.89732
				L294.03731,537.65729L295.4775,537.65729L295.4775,537.17724L295.71753,537.17724L295.71753,538.37737L295.95756,538.37737L295.95756,539.5775
				L296.43762,539.5775L296.43762,540.77763L296.67765,540.77763L296.67765,541.01765L297.15771,541.01765L297.15771,541.73773L
				297.39774,541.73773L297.39774,541.97775L297.8778,541.97775L297.8778,542.69783L298.11783,542.69783L298.11783,543.41791L298.59789,543.41791
				L298.59789,543.89796L298.83792,543.89796L298.83792,544.61804L299.07795,544.61804L299.07795,545.09809L299.55802,545.09809
				L299.55802,545.81816L299.79805,545.81816L299.79805,546.53824L300.27811,546.53824L300.27811,547.25832L300.51814,547.25832
				L300.51814,548.69847L300.9982,548.69847L300.9982,551.33875L300.51814,551.33875L300.51814,551.8188L299.55802,551.8188L299.55802,552.05883
				L298.11783,552.05883L298.11783,552.53888L297.15771,552.53888L297.15771,552.77891L295.71753,552.77891L295.71753,553.01893
				L294.75741,553.01893L294.75741,553.49898L293.31722,553.49898L293.31722,553.73901L291.63701,553.73901L291.63701,554.21906
				L290.19683,554.21906L290.19683,553.73901L289.9568,553.73901L289.9568,553.49898L289.23671,553.49898L289.23671,555.65921L289.47674,555.65921
				L289.47674,557.33939L288.75664,557.33939L288.75664,557.57942L286.35634,557.57942L286.35634,558.05947L284.4361,558.05947L
				284.4361,558.29949L282.03579,558.29949L282.03579,558.77954L279.87552,558.77954L279.87552,559.01957L277.47521,559.01957L277.47521,559.2596
				L276.51509,559.2596L276.51509,559.73965L276.03503,559.73965L276.03503,559.97967L275.795,559.97967L275.795,560.45972L275.07491,560.45972
				L275.07491,560.69975L274.59485,560.69975L274.59485,561.1798L274.35482,561.1798L274.35482,561.41983L273.87476,561.41983L273.87476,561.65985
				L274.35482,561.65985L274.35482,562.1399L274.59485,562.1399L274.59485,562.37993L275.07491,562.37993L275.07491,562.85998L275.31494,562.85998
				L275.31494,565.26024L275.07491,565.26024L275.07491,567.90052L274.59485,567.90052L274.59485,570.78082L274.35482,570.78082
				L274.35482,573.4211L273.87476,573.4211L273.87476,575.82136L273.63473,575.82136L273.63473,577.02149L281.3157,577.02149L281.3157,575.34131
				L281.55573,575.34131L281.55573,573.4211L282.03579,573.4211L282.03579,571.74093L282.27582,571.74093L282.27582,571.5009L288.75664,571.5009
				L288.75664,570.30077L289.23671,570.30077L289.23671,569.10064L289.47674,569.10064L289.47674,567.18044L289.9568,567.18044L
				289.9568,565.98031L290.19683,565.98031L290.19683,564.54016L290.43686,564.54016L290.43686,562.85998L290.91692,562.85998L290.91692,561.41983
				L291.15695,561.41983L291.15695,561.1798L292.59713,561.1798L292.59713,561.41983L296.67765,561.41983L296.67765,561.65985L304.35862,561.65985
				L304.35862,561.41983L307.23899,561.41983L307.23899,567.90052L307.47902,567.90052"/>
			<path clip-path="url(#SVG_CP_2)" fill="none" stroke="#999999" stroke-width="0.96012" stroke-miterlimit="10" stroke-linecap="round" stroke-linejoin="round" d="
				M307.47902,567.90052L307.47902,568.38057L308.19911,568.38057L308.19911,568.62059L308.9192,568.62059L308.9192,569.10064L309.15923,569.10064
				L309.15923,569.34067L309.87933,569.34067L309.87933,569.82072L310.59942,569.82072L310.59942,570.06075L311.31951,570.06075
				L311.31951,570.30077L312.0396,570.30077L312.0396,570.78082L312.75969,570.78082L312.75969,571.02085L312.99972,571.02085L312.99972,571.5009
				L313.71981,571.5009L313.71981,571.74093L314.4399,571.74093L314.4399,572.22098L315.16,572.22098L315.16,572.461L315.64006,572.461
				L315.64006,572.70103L316.36015,572.70103L316.36015,573.18108L316.84021,573.18108L316.84021,573.4211L317.5603,573.4211L317.5603,573.90116
				L318.28039,573.90116L318.28039,574.14118L318.76045,574.14118L318.76045,574.62123L319.48054,574.62123L319.48054,574.86126
				L320.20063,574.86126L320.20063,575.34131L320.92073,575.34131L320.92073,575.58133L321.16076,575.58133L321.16076,575.82136
				L321.88085,575.82136L321.88085,575.58133L322.60094,575.58133L322.60094,575.34131L323.081,575.34131L323.081,574.86126L323.32103,574.86126
				L323.32103,574.62123L323.80109,574.62123L323.80109,574.14118L324.04112,574.14118L324.04112,573.90116L324.76121,573.90116
				L324.76121,574.14118L325.00124,574.14118L325.00124,574.62123L325.72134,574.62123L325.72134,574.86126L326.44143,574.86126
				L326.44143,575.34131L327.16152,575.34131L327.16152,575.58133L327.40155,575.58133L327.40155,575.82136L328.12164,575.82136
				L328.12164,576.30141L328.84173,576.30141L328.84173,576.54144L329.56182,576.54144L329.56182,577.02149L329.80185,577.02149
				L329.80185,577.26151L330.52194,577.26151L330.52194,577.74157L331.24204,577.74157L331.24204,577.98159L331.96213,577.98159
				L331.96213,578.22162L332.20216,578.22162L332.20216,578.70167L332.92225,578.70167L332.92225,578.94169L333.64234,578.94169
				L333.64234,579.42174L334.1224,579.42174L334.1224,579.66177L334.84249,579.66177L334.84249,580.14182L335.32255,580.14182L335.32255,580.38185
				L336.04265,580.38185L336.04265,580.8619L336.52271,580.8619L336.52271,581.10192L337.2428,581.10192L337.2428,581.34195L337.72286,581.34195
				L337.72286,581.822L338.44295,581.822L338.44295,582.06203L338.92301,582.06203L338.92301,582.54208L339.6431,582.54208L339.6431,582.7821
				L340.36319,582.7821L340.36319,583.26215L340.84325,583.26215L340.84325,583.50218L341.32332,583.50218L341.32332,583.7422L342.04341,583.7422
				L342.04341,584.22226L342.7635,584.22226L342.7635,584.46228L345.1638,584.46228L345.1638,584.94233L349.00429,584.94233L349.00429,585.66241
				L349.24432,585.66241L349.24432,587.34259L349.48435,587.34259L349.48435,588.78274L349.96441,588.78274L349.96441,589.98287
				L350.20444,589.98287L350.20444,591.42302L350.6845,591.42302L350.6845,592.86318L350.92453,592.86318L350.92453,594.30333L351.40459,594.30333
				L351.40459,595.50346L351.64463,595.50346L351.64463,596.94361L351.88466,596.94361L351.88466,598.38376L352.36472,598.38376
				L352.36472,599.34387L351.40459,599.34387L351.40459,599.82392L349.96441,599.82392L349.96441,600.06394L347.08405,600.06394
				L347.08405,599.82392L345.1638,599.82392L345.1638,599.34387L344.44371,599.34387L344.44371,599.10384L343.96365,599.10384L343.96365,598.62379
				L343.48359,598.62379L343.48359,598.38376L343.00353,598.38376L343.00353,597.90371L342.7635,597.90371L342.7635,597.66369L342.04341,597.66369
				L342.04341,597.42366L341.56335,597.42366L341.56335,596.94361L340.84325,596.94361L340.84325,596.70359L340.60322,596.70359
				L340.60322,596.22353L340.36319,596.22353L340.36319,595.98351L339.88313,595.98351L339.88313,595.50346L339.6431,595.50346L
				339.6431,595.26343L339.16304,595.26343L339.16304,595.02341L338.92301,595.02341L338.92301,594.54336L338.44295,594.54336L338.44295,594.30333
				L338.20292,594.30333L338.20292,593.82328L337.72286,593.82328L337.72286,593.58325L337.48283,593.58325L337.48283,593.1032L
				337.2428,593.1032L337.2428,592.86318L336.76274,592.86318L336.76274,592.38313L336.52271,592.38313L336.52271,592.1431L336.04265,592.1431
				L336.04265,591.90307L335.80261,591.90307L335.80261,591.42302L335.32255,591.42302L335.32255,591.183L334.84249,591.183L334.84249,590.70295
				L334.1224,590.70295L334.1224,590.46292L332.92225,590.46292L332.92225,589.98287L332.20216,589.98287L332.20216,589.74284L331.24204,589.74284
				L331.24204,589.50282L330.52194,589.50282L330.52194,589.02277L329.56182,589.02277L329.56182,588.78274L329.32179,588.78274
				L329.32179,593.1032L328.84173,593.1032L328.84173,595.02341L328.6017,595.02341L328.6017,596.22353L326.68146,596.22353L326.68146,595.98351
				L324.76121,595.98351L324.76121,595.50346L323.32103,595.50346L323.32103,595.26343L321.88085,595.26343L321.88085,595.02341
				L320.6807,595.02341L320.6807,594.54336L319.24051,594.54336L319.24051,594.30333L317.5603,594.30333L317.5603,594.54336L315.40003,594.54336
				L315.40003,595.02341L312.0396,595.02341L312.0396,594.54336L305.79881,594.54336L305.79881,594.30333L303.3985,594.30333L303.3985,595.98351
				L302.91844,595.98351L302.91844,597.90371L302.67841,597.90371L302.67841,600.06394L302.19835,600.06394L302.19835,602.22417
				L301.95832,602.22417L301.95832,604.14438L301.47826,604.14438L301.47826,606.30461L301.23823,606.30461L301.23823,609.42494
				L301.47826,609.42494L301.47826,610.38504L301.95832,610.38504L301.95832,611.58517L302.19835,611.58517L302.19835,612.06522
				L302.67841,612.06522L302.67841,613.26535L302.91844,613.26535L302.91844,614.22545L303.3985,614.22545L303.3985,615.18556L303.63853,615.18556
				L303.63853,615.90563L304.11859,615.90563L304.11859,617.10576L304.35862,617.10576L304.35862,618.06586L304.59865,618.06586
				L304.59865,619.02596L305.07872,619.02596L305.07872,619.74604L305.31875,619.74604L305.31875,620.70614L305.79881,620.70614
				L305.79881,622.1463L305.31875,622.1463L305.31875,622.62635L304.59865,622.62635L304.59865,622.86637L304.35862,622.86637L304.35862,623.1064
				L304.11859,623.1064L304.11859,623.58645L303.3985,623.58645L303.3985,623.82648L302.91844,623.82648L302.91844,624.30653L302.67841,624.30653
				L302.67841,624.54655L301.95832,624.54655L301.95832,625.0266L301.47826,625.0266L301.47826,625.26663L301.23823,625.26663L301.23823,625.74668
				L300.51814,625.74668L300.51814,625.98671L300.27811,625.98671L300.27811,626.22673L298.83792,626.22673L298.83792,626.70678
				L295.95756,626.70678L295.95756,626.94681L293.07719,626.94681L293.07719,627.42686L291.87704,627.42686L291.87704,626.22673
				L291.63701,626.22673L291.63701,623.1064L291.87704,623.1064L291.87704,622.86637L292.3571,622.86637L292.3571,622.62635L298.83792,622.62635
				L298.83792,621.90627L298.59789,621.90627L298.59789,621.18619L298.11783,621.18619L298.11783,620.22609L297.8778,620.22609L
				297.8778,619.50602L297.39774,619.50602L297.39774,618.78594L297.15771,618.78594L297.15771,617.58581L296.67765,617.58581L296.67765,617.10576
				L296.43762,617.10576L296.43762,616.38568L295.95756,616.38568L295.95756,615.18556L295.71753,615.18556L295.71753,614.46548
				L295.4775,614.46548L295.4775,613.98543L294.99744,613.98543L294.99744,612.7853L293.55725,612.7853L293.55725,612.54527L290.43686,612.54527
				L290.43686,612.06522L287.07643,612.06522L287.07643,611.8252L283.716,611.8252L283.716,611.58517L282.03579,611.58517L282.03579,611.8252
				L282.27582,611.8252L282.27582,615.90563L282.51585,615.90563L282.51585,620.22609L282.99591,620.22609L282.99591,623.58645L
				283.23594,623.58645L283.23594,626.94681L283.716,626.94681L283.716,632.22737L283.95604,632.22737L283.95604,636.30781L290.19683,636.30781
				L290.19683,636.06778L298.11783,636.06778L298.11783,635.58773L301.23823,635.58773L301.23823,636.06778L301.95832,636.06778
				L301.95832,636.30781L302.19835,636.30781L302.19835,637.02788L302.67841,637.02788L302.67841,637.26791L302.91844,637.26791
				L302.91844,637.98799L303.3985,637.98799L303.3985,638.46804L304.11859,638.46804L304.11859,638.70806L304.35862,638.70806L304.35862,639.18811
				L304.59865,639.18811L304.59865,639.42814L305.07872,639.42814L305.07872,639.66816L305.31875,639.66816L305.31875,640.14822
				L305.79881,640.14822L305.79881,640.38824L306.5189,640.38824L306.5189,640.14822L315.16,640.14822L315.16,639.66816L319.24051,639.66816
				L319.24051,640.38824L319.48054,640.38824L319.48054,642.7885L319.9606,642.7885L319.9606,644.7087L320.20063,644.7087L320.20063,645.90883
				L320.6807,645.90883L320.6807,647.34898L320.92073,647.34898L320.92073,648.78914L321.16076,648.78914L321.16076,650.22929L321.64082,650.22929
				L321.64082,652.14949L321.88085,652.14949L321.88085,654.30972L322.36091,654.30972L322.36091,654.54975L322.60094,654.54975
				L322.60094,655.0298L323.081,655.0298L323.081,655.26983L323.80109,655.26983L323.80109,655.74988L324.04112,655.74988L324.04112,655.9899
				L324.28115,655.9899L324.28115,656.46995L324.76121,656.46995L324.76121,656.70998L325.48131,656.70998L325.48131,656.95001L
				325.72134,656.95001L325.72134,657.43006L326.2014,657.43006L326.2014,657.67008L326.44143,657.67008L326.44143,658.15013L327.16152,658.15013
				L327.16152,658.39016L327.40155,658.39016L327.40155,658.87021L328.12164,658.87021L328.12164,659.11024L328.84173,659.11024
				L328.84173,659.35026L329.56182,659.35026L329.56182,659.83031L329.80185,659.83031L329.80185,660.07034L330.52194,660.07034
				L330.52194,660.55039L331.24204,660.55039L331.24204,660.79041L331.7221,660.79041L331.7221,661.27047L332.20216,661.27047L332.20216,661.51049
				L332.92225,661.51049L332.92225,661.99054L333.64234,661.99054L333.64234,662.23057L334.84249,662.23057L334.84249,662.47059
				L336.04265,662.47059L336.04265,662.95065L337.2428,662.95065L337.2428,663.19067L338.20292,663.19067L338.20292,663.67072L340.84325,663.67072
				L340.84325,663.91075L343.48359,663.91075L343.48359,664.3908L344.68374,664.3908L344.68374,664.63082L346.12392,664.63082L346.12392,664.87085
				L347.56411,664.87085L347.56411,665.3509L349.24432,665.3509L349.24432,665.59093L350.6845,665.59093L350.6845,666.07098L351.88466,666.07098
				L351.88466,666.311L353.32484,666.311L353.32484,666.79105L354.76502,666.79105L354.76502,667.03108L356.44523,667.03108L356.44523,667.51113
				L357.88542,667.51113L357.88542,667.75116L359.3256,667.75116L359.3256,667.99118L360.52575,667.99118L360.52575,668.47123L361.96594,668.47123
				L361.96594,668.71126L363.40612,668.71126L363.40612,669.19131L365.08633,669.19131L365.08633,669.43134L366.52651,669.43134
				L366.52651,669.91139L367.9667,669.91139L367.9667,670.15141L369.16685,670.15141L369.16685,670.39144L370.60703,670.39144L370.60703,671.11151
				L370.367,671.11151L370.367,672.31164"/>
		</g>
</g></svg>