<?xml version="1.0" encoding="utf-8" standalone="no"?>
<!-- Creator: ESRI ArcMap 10.0.0.2414 -->
<!DOCTYPE svg PUBLIC "-//W3C//DTD SVG 1.1//EN"  "http://www.w3.org/Graphics/SVG/1.1/DTD/svg11.dtd">
<svg width="524.0420768pt" height="301.610015754pt" viewBox="32.15712744 270.324127123 524.0420768 301.610015754" enable-background="new 32.15712744 270.324127123 524.0420768 301.610015754"
	version="1.1" xmlns="http://www.w3.org/2000/svg" xmlns:xlink="http://www.w3.org/1999/xlink" >
	<g id="Couches">
		<g id="cont_1">
			<clipPath id="SVG_CP_2">
				<path d="M574.39289,21.36228L21.36271,21.36228L21.36271,821.36753L574.39289,821.36753L574.39289,21.36228z"/>
			</clipPath>
			<path clip-path="url(#SVG_CP_2)" fill="none" stroke="#999999" stroke-width="0.96012" stroke-miterlimit="10" stroke-linecap="round" stroke-linejoin="round" d="
				M82.33045,447.40768L81.85039,447.40768L81.85039,448.36778L81.61036,448.36778L81.61036,448.6078L81.1303,448.6078L81.1303,449.08786
				L80.89027,449.08786L80.89027,449.32788L80.65024,449.32788L80.65024,449.80793L80.17017,449.80793L80.17017,450.04796L79.93014,450.04796
				L79.93014,450.28798L79.45008,450.28798L79.45008,450.76803L79.21005,450.76803L79.21005,451.00806L78.72999,451.00806L78.72999,451.48811
				L78.48996,451.48811L78.48996,451.72814L78.24993,451.72814L78.24993,452.20819L77.76987,452.20819L77.76987,452.44821L77.52984,452.44821
				L77.52984,452.68824L77.04978,452.68824L77.04978,453.16829L76.80975,453.16829L76.80975,453.40832L76.32969,453.40832L76.32969,453.88837
				L76.08966,453.88837L76.08966,464.44949L75.84963,464.44949L75.84963,464.92954L75.36957,464.92954L75.36957,465.16957L75.12953,465.16957
				L75.12953,469.97008L74.64947,469.97008L74.64947,470.93018L73.20929,470.93018L73.20929,471.41023L72.24917,471.41023L72.24917,471.65026
				L71.28905,471.65026L71.28905,472.13031L70.80899,472.13031L70.80899,472.37034L70.56896,472.37034L70.56896,473.09041L70.32893,473.09041
				L70.32893,473.81049L69.84886,473.81049L69.84886,474.53057L69.60883,474.53057L69.60883,475.25064L69.12877,475.25064L69.12877,475.73069
				L68.88874,475.73069L68.88874,476.45077L68.40868,476.45077L68.40868,476.93082L68.16865,476.93082L68.16865,477.6509L67.92862,477.6509
				L67.92862,478.37098L67.44856,478.37098L67.44856,478.85103L67.20853,478.85103L67.20853,479.5711L66.72847,479.5711L66.72847,480.29118
				L66.48844,480.29118L66.48844,481.01126L66.00838,481.01126L66.00838,481.73133L65.76835,481.73133L65.76835,482.45141L65.52832,482.45141
				L65.52832,483.17149L65.04826,483.17149L65.04826,483.41151L64.80822,483.41151L64.80822,484.13159L64.32816,484.13159L64.32816,484.85167
				L64.08813,484.85167L64.08813,485.57174L63.60807,485.57174L63.60807,486.05179L63.36804,486.05179L63.36804,486.77187L63.12801,486.77187
				L63.12801,487.49195L62.64795,487.49195L62.64795,488.21202L62.40792,488.21202L62.40792,488.9321L61.92786,488.9321L61.92786,489.65218
				L61.68783,489.65218L61.68783,489.8922L61.20777,489.8922L61.20777,491.09233L60.96774,491.09233L60.96774,491.57238L60.48768,491.57238
				L60.48768,492.29246L60.24765,492.29246L60.24765,493.01254L60.00762,493.01254L60.00762,493.73261L59.52755,493.73261L59.52755,494.45269
				L59.28752,494.45269L59.28752,495.17277L58.80746,495.17277L58.80746,495.89284L58.56743,495.89284L58.56743,496.37289L58.08737,496.37289
				L58.08737,497.09297L57.84734,497.09297L57.84734,497.81305L57.60731,497.81305L57.60731,498.53312L57.12725,498.53312L57.12725,499.2532
				L56.88722,499.2532L56.88722,499.97328L56.40716,499.97328L56.40716,500.69335L56.16713,500.69335L56.16713,501.41343L55.68707,501.41343
				L55.68707,501.89348L55.44704,501.89348L55.44704,502.61356L55.20701,502.61356L55.20701,503.33364L54.72695,503.33364L54.72695,504.05371
				L54.48692,504.05371L54.48692,504.77379L54.00685,504.77379L54.00685,505.49387L53.76682,505.49387L53.76682,506.21394L53.28676,506.21394
				L53.28676,507.17405L53.04673,507.17405L53.04673,507.89412L52.8067,507.89412L52.8067,508.6142L52.32664,508.6142L52.32664,509.09425
				L52.08661,509.09425L52.08661,509.81433L51.60655,509.81433L51.60655,510.5344L51.36652,510.5344L51.36652,511.25448L50.88646,511.25448
				L50.88646,511.97456L50.64643,511.97456L50.64643,512.69463L50.16637,512.69463L50.16637,513.41471L49.92634,513.41471L49.92634,514.13479
				L49.68631,514.13479L49.68631,514.61484L49.20624,514.61484L49.20624,515.33492L48.96621,515.33492L48.96621,516.05499L48.48615,516.05499
				L48.48615,516.77507L48.24612,516.77507L48.24612,517.49515L47.76606,517.49515L47.76606,518.21522L47.52603,518.21522L47.52603,518.9353
				L47.286,518.9353L47.286,519.41535L46.80594,519.41535L46.80594,520.13543L46.56591,520.13543L46.56591,276.98952L487.50187,276.98952
				L487.50187,282.51011L487.7419,282.51011L487.7419,283.71023L488.22196,283.71023L488.22196,284.19028L488.46199,284.19028L488.46199,285.39041
				L488.70202,285.39041L488.70202,286.35051L489.18208,286.35051L489.18208,287.31062L489.42211,287.31062L489.42211,288.03069
				L489.90217,288.03069L489.90217,288.9908L490.1422,288.9908L490.1422,290.19092L490.62226,290.19092L490.62226,291.15103L490.86229,291.15103
				L490.86229,292.11113L491.10232,292.11113L491.10232,293.31126L491.58238,293.31126L491.58238,294.27136L491.82241,294.27136
				L491.82241,295.23146L492.30248,295.23146L492.30248,296.43159L492.54251,296.43159L492.54251,297.39169L493.02257,297.39169
				L493.02257,298.35179L493.2626,298.35179L493.2626,299.3119L493.50263,299.3119L493.50263,300.03197L493.98269,300.03197L493.98269,301.2321
				L494.22272,301.2321L494.22272,302.1922L494.70278,302.1922L494.70278,303.1523L494.94281,303.1523L494.94281,304.11241L495.42287,304.11241
				L495.42287,305.31253L495.6629,305.31253L495.6629,306.27264L496.14296,306.27264L496.14296,307.23274L496.38299,307.23274L496.38299,308.43287
				L496.62302,308.43287L496.62302,309.39297L497.10308,309.39297L497.10308,310.35307L497.34311,310.35307L497.34311,311.5532L
				497.82318,311.5532L497.82318,312.03325L498.06321,312.03325L498.06321,313.23338L498.54327,313.23338L498.54327,314.19348L498.7833,314.19348
				L498.7833,315.15358L499.02333,315.15358L499.02333,316.35371L499.50339,316.35371L499.50339,317.31381L499.74342,317.31381L
				499.74342,318.27392L500.22348,318.27392L500.22348,319.47404L500.46351,319.47404L500.46351,320.43415L500.94357,320.43415L
				500.94357,321.39425L501.1836,321.39425L501.1836,322.35435L501.42363,322.35435L501.42363,323.55448L501.90369,323.55448L501.90369,324.27456
				L502.14372,324.27456L502.14372,325.23466L502.62378,325.23466L502.62378,326.19476L502.86382,326.19476L502.86382,327.15486
				L503.34388,327.15486L503.34388,328.35499L503.58391,328.35499L503.58391,329.31509L503.82394,329.31509L503.82394,330.27519
				L504.304,330.27519L504.304,331.47532L504.54403,331.47532L504.54403,332.1954L505.02409,332.1954L505.02409,332.43543L505.26412,332.43543
				L505.26412,333.1555L505.74418,333.1555L505.74418,333.87558L505.98421,333.87558L505.98421,334.59566L506.22424,334.59566L506.22424,335.07571
				L506.7043,335.07571L506.7043,335.55576L506.94433,335.55576L506.94433,336.27583L507.42439,336.27583L507.42439,336.99591L507.66442,336.99591
				L507.66442,337.47596L508.14449,337.47596L508.14449,338.19604L508.38452,338.19604L508.38452,338.67609L508.86458,338.67609
				L508.86458,339.39617L509.10461,339.39617L509.10461,340.11624L509.34464,340.11624L509.34464,340.59629L509.8247,340.59629L
				509.8247,341.31637L510.06473,341.31637L510.06473,341.79642L510.54479,341.79642L510.54479,342.5165L510.78482,342.5165L510.78482,342.99655
				L511.26488,342.99655L511.26488,343.71663L511.50491,343.71663L511.50491,344.4367L511.74494,344.4367L511.74494,344.91676L512.225,344.91676
				L512.225,345.39681L512.46503,345.39681L512.46503,346.11688L512.94509,346.11688L512.94509,346.83696L513.18513,346.83696L513.18513,347.55704
				L513.66519,347.55704L513.66519,347.79706L513.90522,347.79706L513.90522,348.51714L514.14525,348.51714L514.14525,349.23722
				L514.62531,349.23722L514.62531,349.95729L514.86534,349.95729L514.86534,350.67737L515.3454,350.67737L515.3454,350.91739L515.58543,350.91739
				L515.58543,351.63747L516.06549,351.63747L516.06549,352.35755L516.30552,352.35755L516.30552,353.07762L517.7457,353.07762L
				517.7457,353.31765L519.18589,353.31765L519.18589,353.7977L520.38604,353.7977L520.38604,354.03773L521.82622,354.03773L521.82622,354.51778
				L523.2664,354.51778L523.2664,354.7578L524.46656,354.7578L524.46656,355.23785L525.90674,355.23785L525.90674,355.47788L526.86686,355.47788
				L526.86686,355.71791L528.30704,355.71791L528.30704,356.19796L529.74723,356.19796L529.74723,356.43798L530.70735,356.43798
				L530.70735,356.91803L531.42744,356.91803L531.42744,357.15806L532.14753,357.15806L532.14753,357.63811L532.86762,357.63811
				L532.86762,357.87814L533.58771,357.87814L533.58771,358.11816L534.30781,358.11816L534.30781,358.59821L534.78787,358.59821
				L534.78787,358.83824L535.50796,358.83824L535.50796,359.31829L536.22805,359.31829L536.22805,359.55832L536.94814,359.55832
				L536.94814,360.03837L537.66823,360.03837L537.66823,360.27839L538.38832,360.27839L538.38832,360.51842L539.10841,360.51842
				L539.10841,360.99847L539.58848,360.99847L539.58848,361.23849L540.30857,361.23849L540.30857,361.71855L541.02866,361.71855
				L541.02866,361.95857L541.74875,361.95857L541.74875,362.43862L542.46884,362.43862L542.46884,362.67865L543.18893,362.67865
				L543.18893,363.1587L543.90902,363.1587L543.90902,363.39872L544.62912,363.39872L544.62912,363.63875L545.10918,363.63875L545.10918,364.1188
				L545.82927,364.1188L545.82927,364.35883L546.54936,364.35883L546.54936,364.83888L547.02942,364.83888L547.02942,365.0789L547.26945,365.0789
				L547.26945,365.55895L547.50948,365.55895L547.50948,365.79898L547.98954,365.79898L547.98954,366.03901L548.22957,366.03901
				L548.22957,366.51906L548.70963,366.51906L548.70963,366.75908L548.94966,366.75908L548.94966,367.23913L549.42972,367.23913
				L549.42972,372.99975L548.94966,372.99975L548.94966,372.75972L548.70963,372.75972L548.70963,372.27967L548.22957,372.27967
				L548.22957,372.03965L547.50948,372.03965L547.50948,371.55959L547.02942,371.55959L547.02942,371.31957L546.30933,371.31957
				L546.30933,370.83952L545.82927,370.83952L545.82927,370.59949L545.10918,370.59949L545.10918,370.35947L544.62912,370.35947
				L544.62912,369.87942L543.90902,369.87942L543.90902,369.63939L543.42896,369.63939L543.42896,369.15934L542.70887,369.15934
				L542.70887,368.91931L542.22881,368.91931L542.22881,368.43926L541.74875,368.43926L541.74875,368.19924L541.02866,368.19924
				L541.02866,367.95921L540.30857,367.95921L540.30857,367.47916L539.58848,367.47916L539.58848,367.23913L539.34845,367.23913
				L539.34845,366.75908L538.62835,366.75908L538.62835,366.51906L537.90826,366.51906L537.90826,366.03901L537.18817,366.03901
				L537.18817,365.79898L536.94814,365.79898L536.94814,365.55895L536.22805,365.55895L536.22805,365.0789L535.50796,365.0789L535.50796,364.83888
				L535.26793,364.83888L535.26793,364.35883L534.54784,364.35883L534.54784,364.1188L533.82774,364.1188L533.82774,363.63875L533.10765,363.63875
				L533.10765,363.39872L532.86762,363.39872L532.86762,363.1587L532.14753,363.1587L532.14753,362.67865L531.42744,362.67865L531.42744,362.43862
				L530.70735,362.43862L530.70735,361.95857L529.98726,361.95857L529.98726,361.71855L529.26717,361.71855L529.26717,361.23849
				L528.78711,361.23849L528.78711,360.99847L528.06701,360.99847L528.06701,360.51842L527.34692,360.51842L527.34692,360.27839
				L526.86686,360.27839L526.86686,360.03837L526.3868,360.03837L526.3868,359.55832L525.66671,359.55832L525.66671,359.31829L524.94662,359.31829
				L524.94662,358.83824L524.22653,358.83824L524.22653,358.59821L523.50643,358.59821L523.50643,358.11816L522.78634,358.11816
				L522.78634,357.87814L522.06625,357.87814L522.06625,357.63811L521.58619,357.63811L521.58619,357.15806L520.8661,357.15806L
				520.8661,356.91803L520.14601,356.91803L520.14601,356.43798L519.42592,356.43798L519.42592,356.19796L518.70583,356.19796L518.70583,355.71791
				L518.4658,355.71791L518.4658,355.47788L517.7457,355.47788L517.7457,355.23785L517.26564,355.23785L517.26564,354.7578L516.54555,354.7578
				L516.54555,355.23785L514.86534,355.23785L514.86534,355.47788L513.90522,355.47788L513.90522,355.71791L513.18513,355.71791
				L513.18513,356.19796L512.46503,356.19796L512.46503,355.71791L510.78482,355.71791L510.78482,355.47788L510.54479,355.47788
				L510.54479,355.23785L510.06473,355.23785L510.06473,354.7578L509.8247,354.7578L509.8247,354.51778L509.34464,354.51778L509.34464,354.03773
				L509.10461,354.03773L509.10461,353.31765L508.86458,353.31765L508.86458,350.67737L508.38452,350.67737L508.38452,347.79706
				L508.86458,347.79706L508.86458,345.39681L509.10461,345.39681L509.10461,343.71663L508.86458,343.71663L508.86458,342.75652
				L508.38452,342.75652L508.38452,342.5165L508.14449,342.5165L508.14449,342.03645L506.94433,342.03645L506.94433,341.79642L505.98421,341.79642
				L505.98421,341.31637L505.02409,341.31637L505.02409,341.07635L504.304,341.07635L504.304,340.59629L503.34388,340.59629L503.34388,340.35627
				L502.14372,340.35627L502.14372,340.11624L501.42363,340.11624L501.42363,338.91612L501.1836,338.91612L501.1836,337.95601L500.94357,337.95601
				L500.94357,336.99591L500.46351,336.99591L500.46351,335.79578L500.22348,335.79578L500.22348,335.07571L499.74342,335.07571
				L499.74342,334.1156L499.50339,334.1156L499.50339,333.1555L499.02333,333.1555L499.02333,332.1954L498.7833,332.1954L498.7833,330.99527
				L498.54327,330.99527L498.54327,330.03517L498.06321,330.03517L498.06321,329.31509L497.82318,329.31509L497.82318,328.35499
				L497.34311,328.35499L497.34311,327.15486L497.10308,327.15486L497.10308,326.67481L496.62302,326.67481L496.62302,325.47468
				L496.38299,325.47468L496.38299,324.75461L496.14296,324.75461L496.14296,323.7945L495.6629,323.7945L495.6629,323.07443L495.42287,323.07443
				L495.42287,322.11433L494.94281,322.11433L494.94281,321.15422L494.70278,321.15422L494.70278,320.43415L494.22272,320.43415
				L494.22272,319.47404L493.98269,319.47404L493.98269,318.75397L493.50263,318.75397L493.50263,317.55384L493.2626,317.55384L
				493.2626,316.83376L493.02257,316.83376L493.02257,315.87366L492.54251,315.87366L492.54251,315.15358L492.30248,315.15358L492.30248,314.19348
				L491.82241,314.19348L491.82241,313.23338L491.58238,313.23338L491.58238,312.5133L491.10232,312.5133L491.10232,311.5532L490.86229,311.5532
				L490.86229,310.83312L490.62226,310.83312L490.62226,309.633L490.1422,309.633L490.1422,308.67289L489.90217,308.67289L489.90217,307.95282
				L489.42211,307.95282L489.42211,306.99271L489.18208,306.99271L489.18208,306.03261L488.70202,306.03261L488.70202,305.31253
				L488.46199,305.31253L488.46199,304.11241L488.22196,304.11241L488.22196,303.1523L487.7419,303.1523L487.7419,302.1922L487.50187,302.1922
				L487.50187,301.47213L487.0218,301.47213L487.0218,300.51202L486.78177,300.51202L486.78177,299.3119L486.30171,299.3119L486.30171,298.83184
				L486.06168,298.83184L486.06168,297.63172L485.82165,297.63172L485.82165,296.67161L485.34159,296.67161L485.34159,295.95154
				L485.10156,295.95154L485.10156,294.99144L484.6215,294.99144L484.6215,293.79131L484.38147,293.79131L484.38147,292.8312L483.90141,292.8312
				L483.90141,292.11113L483.66138,292.11113L483.66138,291.15103L482.70126,291.15103L482.70126,291.39105L482.2212,291.39105L
				482.2212,291.8711L481.5011,291.8711L481.5011,292.11113L481.26107,292.11113L481.26107,292.59118L480.54098,292.59118L480.54098,292.8312
				L480.30095,292.8312L480.30095,293.31126L479.58086,293.31126L479.58086,293.55128L479.1008,293.55128L479.1008,293.79131L478.38071,293.79131
				L478.38071,294.27136L478.14068,294.27136L478.14068,294.51138L477.42059,294.51138L477.42059,294.99144L477.18056,294.99144
				L477.18056,295.23146L476.46046,295.23146L476.46046,295.71151L475.9804,295.71151L475.9804,295.95154L475.50034,295.95154L475.50034,296.43159
				L475.02028,296.43159L475.02028,296.67161L474.30019,296.67161L474.30019,296.91164L474.06016,296.91164L474.06016,297.39169
				L473.34007,297.39169L473.34007,297.63172L473.10004,297.63172L473.10004,298.11177L472.37995,298.11177L472.37995,298.35179
				L471.89989,298.35179L471.89989,298.83184L471.17979,298.83184L471.17979,299.07187L470.93976,299.07187L470.93976,299.3119L
				470.21967,299.3119L470.21967,299.79195L469.97964,299.79195L469.97964,300.03197L469.25955,300.03197L469.25955,300.51202L468.77949,300.51202
				L468.77949,300.75205L468.0594,300.75205L468.0594,301.2321L467.81937,301.2321L467.81937,301.47213L467.09928,301.47213L467.09928,301.71215
				L466.37919,301.71215L466.37919,300.75205L466.13915,300.75205L466.13915,300.03197L465.65909,300.03197L465.65909,299.3119L
				465.41906,299.3119L465.41906,298.83184L465.17903,298.83184L465.17903,297.63172L464.69897,297.63172L464.69897,296.91164L464.45894,296.91164
				L464.45894,296.43159L463.97888,296.43159L463.97888,295.71151L463.73885,295.71151L463.73885,294.99144L463.25879,294.99144
				L463.25879,293.79131L463.01876,293.79131L463.01876,293.31126L462.77873,293.31126L462.77873,292.59118L462.29867,292.59118
				L462.29867,291.8711L462.05864,291.8711L462.05864,291.15103L461.57858,291.15103L461.57858,290.19092L461.33855,290.19092L461.33855,289.47085
				L460.85848,289.47085L460.85848,288.75077L460.61845,288.75077L460.61845,288.03069L460.13839,288.03069L460.13839,287.31062
				L459.89836,287.31062L459.89836,287.07059L459.65833,287.07059L459.65833,287.31062L458.93824,287.31062L458.93824,287.79067
				L458.45818,287.79067L458.45818,288.03069L457.73809,288.03069L457.73809,288.51074L457.49806,288.51074L457.49806,288.75077
				L456.77797,288.75077L456.77797,288.9908L456.53794,288.9908L456.53794,289.47085L455.81785,289.47085L455.81785,289.71087L455.33778,289.71087
				L455.33778,290.19092L454.85772,290.19092L454.85772,290.43095L454.37766,290.43095L454.37766,290.911L453.65757,290.911L453.65757,291.15103
				L453.41754,291.15103L453.41754,291.39105L452.69745,291.39105L452.69745,291.8711L451.97736,291.8711L451.97736,292.11113L451.73733,292.11113
				L451.73733,292.59118L451.01724,292.59118L451.01724,292.8312L450.53717,292.8312L450.53717,293.31126L450.05711,293.31126L450.05711,293.55128
				L449.57705,293.55128L449.57705,293.79131L448.85696,293.79131L448.85696,294.27136L448.61693,294.27136L448.61693,294.51138
				L447.89684,294.51138L447.89684,294.99144L447.41678,294.99144L447.41678,295.23146L446.93672,295.23146L446.93672,295.71151
				L446.45666,295.71151L446.45666,295.95154L445.73657,295.95154L445.73657,296.43159L445.01647,296.43159L445.01647,296.67161
				L444.77644,296.67161L444.77644,296.91164L444.05635,296.91164L444.05635,297.39169L443.81632,297.39169L443.81632,297.63172
				L443.09623,297.63172L443.09623,298.11177L442.37614,298.11177L442.37614,298.35179L442.13611,298.35179L442.13611,298.83184
				L441.41602,298.83184L441.41602,299.07187L440.93596,299.07187L440.93596,299.3119L440.21587,299.3119L440.21587,299.79195L439.7358,299.79195
				L439.7358,300.03197L439.25574,300.03197L439.25574,300.51202L438.53565,300.51202L438.53565,300.75205L438.29562,300.75205L
				438.29562,301.2321L437.57553,301.2321L437.57553,301.47213L437.09547,301.47213L437.09547,301.71215L436.61541,301.71215L436.61541,302.1922
				L435.89532,302.1922L435.89532,302.43223L435.41526,302.43223L435.41526,302.91228L434.69516,302.91228L434.69516,303.1523L434.45513,303.1523
				L434.45513,303.63236L433.73504,303.63236L433.73504,303.87238L433.01495,303.87238L433.01495,304.11241L432.77492,304.11241
				L432.77492,304.59246L432.05483,304.59246L432.05483,304.83248L431.8148,304.83248L431.8148,305.31253L431.09471,305.31253L431.09471,304.59246
				L430.61465,304.59246L430.61465,303.87238L430.37462,303.87238L430.37462,303.63236L429.89456,303.63236L429.89456,302.91228
				L429.65452,302.91228L429.65452,302.1922L429.41449,302.1922L429.41449,301.47213L428.93443,301.47213L428.93443,300.75205L428.6944,300.75205
				L428.6944,300.51202L428.21434,300.51202L428.21434,299.79195L427.97431,299.79195L427.97431,299.07187L427.49425,299.07187L
				427.49425,298.35179L427.25422,298.35179L427.25422,297.63172L426.77416,297.63172L426.77416,297.39169L426.53413,297.39169L
				426.53413,296.67161L426.2941,296.67161L426.2941,295.95154L425.81404,295.95154L425.81404,295.23146L425.57401,295.23146L425.57401,294.51138
				L425.09395,294.51138L425.09395,293.79131L424.85392,293.79131L424.85392,293.55128L424.37385,293.55128L424.37385,292.8312L
				424.13382,292.8312L424.13382,292.11113L423.89379,292.11113L423.89379,291.39105L423.41373,291.39105L423.41373,291.15103L423.1737,291.15103
				L423.1737,290.43095L422.69364,290.43095L422.69364,289.71087L422.45361,289.71087L422.45361,289.47085L421.97355,289.47085L
				421.97355,288.75077L421.01343,288.75077L421.01343,288.9908L420.29334,288.9908L420.29334,289.47085L420.05331,289.47085L420.05331,289.71087
				L419.33322,289.71087L419.33322,290.19092L419.09318,290.19092L419.09318,290.43095L418.37309,290.43095L418.37309,290.911L417.653,290.911
				L417.653,291.15103L417.17294,291.15103L417.17294,291.39105L416.69288,291.39105L416.69288,291.8711L415.97279,291.8711L415.97279,292.11113
				L415.49273,292.11113L415.49273,292.59118L414.77264,292.59118L414.77264,292.8312L414.53261,292.8312L414.53261,293.31126L413.81251,293.31126
				L413.81251,293.55128L413.09242,293.55128L413.09242,293.79131L412.85239,293.79131L412.85239,294.27136L412.1323,294.27136L
				412.1323,294.51138L411.65224,294.51138L411.65224,294.99144L411.17218,294.99144L411.17218,295.23146L410.45209,295.23146L410.45209,295.71151
				L409.97203,295.71151L409.97203,295.95154L409.25194,295.95154L409.25194,296.43159L409.01191,296.43159L409.01191,296.67161
				L408.29181,296.67161L408.29181,296.91164L407.57172,296.91164L407.57172,297.39169L407.33169,297.39169L407.33169,297.63172
				L406.6116,297.63172"/>
			<path clip-path="url(#SVG_CP_2)" fill="none" stroke="#999999" stroke-width="0.96012" stroke-miterlimit="10" stroke-linecap="round" stroke-linejoin="round" d="
				M406.6116,297.63172L406.6116,298.11177L405.65148,298.11177L405.65148,298.35179L404.45133,298.35179L404.45133,298.83184L403.25117,298.83184
				L403.25117,299.07187L402.05102,299.07187L402.05102,299.3119L401.0909,299.3119L401.0909,299.79195L400.13078,299.79195L400.13078,300.03197
				L398.93063,300.03197L398.93063,300.51202L398.45057,300.51202L398.45057,300.75205L397.25041,300.75205L397.25041,301.2321L
				396.29029,301.2321L396.29029,301.47213L395.5702,301.47213L395.5702,301.71215L394.61008,301.71215L394.61008,302.1922L393.64996,302.1922
				L393.64996,302.43223L392.92986,302.43223L392.92986,301.71215L392.4498,301.71215L392.4498,300.75205L392.20977,300.75205L392.20977,300.03197
				L391.72971,300.03197L391.72971,299.3119L391.48968,299.3119L391.48968,298.35179L391.00962,298.35179L391.00962,297.63172L390.76959,297.63172
				L390.76959,296.91164L390.52956,296.91164L390.52956,295.95154L390.0495,295.95154L390.0495,295.23146L389.80947,295.23146L389.80947,294.51138
				L389.32941,294.51138L389.32941,293.55128L389.08938,293.55128L389.08938,292.8312L388.60932,292.8312L388.60932,292.11113L388.36929,292.11113
				L388.36929,291.15103L388.12926,291.15103L388.12926,290.43095L387.64919,290.43095L387.64919,289.71087L387.40916,289.71087
				L387.40916,288.75077L386.9291,288.75077L386.9291,288.03069L386.68907,288.03069L386.68907,287.31062L386.20901,287.31062L386.20901,286.35051
				L385.96898,286.35051L385.96898,285.63044L385.72895,285.63044L385.72895,284.91036L385.24889,284.91036L385.24889,283.95026
				L385.00886,283.95026L385.00886,283.23018L384.5288,283.23018L384.5288,282.27008L384.28877,282.27008L384.28877,281.55L382.84859,281.55
				L382.84859,281.79003L381.16837,281.79003L381.16837,282.27008L379.72819,282.27008L379.72819,282.51011L378.04798,282.51011
				L378.04798,282.99016L376.60779,282.99016L376.60779,283.23018L374.92758,283.23018L374.92758,283.71023L373.96746,283.71023
				L373.96746,283.95026L374.20749,283.95026L374.20749,284.19028L374.68755,284.19028L374.68755,284.91036L374.92758,284.91036
				L374.92758,285.63044L375.40764,285.63044L375.40764,286.35051L375.64767,286.35051L375.64767,286.59054L375.8877,286.59054L
				375.8877,287.31062L376.36776,287.31062L376.36776,288.03069L376.60779,288.03069L376.60779,289.47085L375.8877,289.47085L375.8877,289.71087
				L375.40764,289.71087L375.40764,290.19092L374.68755,290.19092L374.68755,290.43095L373.96746,290.43095L373.96746,290.911L373.00734,290.911
				L373.00734,291.15103L372.28724,291.15103L372.28724,291.39105L371.56715,291.39105L371.56715,291.8711L370.60703,291.8711L370.60703,292.11113
				L369.88694,292.11113L369.88694,292.59118L369.16685,292.59118L369.16685,292.8312L368.44676,292.8312L368.44676,293.31126L367.48664,293.31126
				L367.48664,293.55128L366.76654,293.55128L366.76654,293.79131L366.04645,293.79131L366.04645,294.27136L365.32636,294.27136
				L365.32636,294.51138L364.36624,294.51138L364.36624,294.99144L363.64615,294.99144L363.64615,295.23146L362.92606,295.23146
				L362.92606,295.71151L362.20597,295.71151L362.20597,295.95154L361.24584,295.95154L361.24584,296.43159L360.52575,296.43159
				L360.52575,296.67161L359.80566,296.67161L359.80566,296.91164L358.84554,296.91164L358.84554,297.39169L358.12545,297.39169
				L358.12545,297.63172L357.40536,297.63172L357.40536,298.11177L356.68526,298.11177L356.68526,298.35179L355.72514,298.35179
				L355.72514,298.83184L355.00505,298.83184L355.00505,299.07187L354.28496,299.07187L354.28496,299.3119L353.56487,299.3119L353.56487,299.79195
				L352.60475,299.79195L352.60475,300.03197L351.88466,300.03197L351.88466,300.51202L351.16456,300.51202L351.16456,300.75205
				L350.20444,300.75205L350.20444,301.2321L349.48435,301.2321L349.48435,301.47213L348.76426,301.47213L348.76426,301.71215L347.80414,301.71215
				L347.80414,302.1922L346.84402,302.1922L346.84402,302.43223L345.40383,302.43223L345.40383,302.91228L343.96365,302.91228L343.96365,303.1523
				L343.00353,303.1523L343.00353,303.63236L342.28344,303.63236L342.28344,303.1523L342.04341,303.1523L342.04341,302.1922L341.56335,302.1922
				L341.56335,301.2321L341.32332,301.2321L341.32332,300.03197L340.84325,300.03197L340.84325,299.07187L340.60322,299.07187L340.60322,298.11177
				L340.12316,298.11177L340.12316,296.91164L339.88313,296.91164L339.88313,296.43159L337.48283,296.43159L337.48283,296.67161
				L334.60246,296.67161L334.60246,296.91164L331.96213,296.91164L331.96213,297.39169L329.32179,297.39169L329.32179,297.63172
				L326.92149,297.63172L326.92149,298.11177L324.04112,298.11177L324.04112,297.39169L323.80109,297.39169L323.80109,295.95154
				L323.32103,295.95154L323.32103,294.27136L323.081,294.27136L323.081,292.59118L322.60094,292.59118L322.60094,291.15103L322.36091,291.15103
				L322.36091,289.47085L321.88085,289.47085L321.88085,288.03069L321.64082,288.03069L321.64082,286.35051L321.40079,286.35051
				L321.40079,284.67034L320.92073,284.67034L320.92073,283.23018L320.6807,283.23018L320.6807,281.79003L316.60018,281.79003L316.60018,281.55
				L311.31951,281.55L311.31951,281.06995L306.5189,281.06995L306.5189,280.82993L301.23823,280.82993L301.23823,280.5899L300.03808,280.5899
				L300.03808,283.23018L300.27811,283.23018L300.27811,284.19028L300.75817,284.19028L300.75817,284.91036L300.9982,284.91036L
				300.9982,286.11049L301.23823,286.11049L301.23823,286.59054L301.71829,286.59054L301.71829,287.79067L301.95832,287.79067L301.95832,288.51074
				L302.43838,288.51074L302.43838,289.47085L302.67841,289.47085L302.67841,290.19092L303.15847,290.19092L303.15847,291.15103
				L303.3985,291.15103L303.3985,291.8711L303.87856,291.8711L303.87856,292.8312L304.11859,292.8312L304.11859,293.55128L304.35862,293.55128
				L304.35862,294.51138L304.83869,294.51138L304.83869,295.23146L305.07872,295.23146L305.07872,295.71151L304.35862,295.71151
				L304.35862,295.95154L302.43838,295.95154L302.43838,296.43159L300.27811,296.43159L300.27811,296.67161L298.35786,296.67161
				L298.35786,296.91164L296.19759,296.91164L296.19759,295.95154L295.95756,295.95154L295.95756,294.27136L295.4775,294.27136L
				295.4775,292.59118L295.23747,292.59118L295.23747,290.911L294.75741,290.911L294.75741,288.9908L294.51738,288.9908L294.51738,287.31062
				L294.03731,287.31062L294.03731,285.63044L293.79728,285.63044L293.79728,283.95026L293.55725,283.95026L293.55725,282.51011
				L292.83716,282.51011L292.83716,282.99016L291.63701,282.99016L291.63701,283.23018L290.67689,283.23018L290.67689,283.71023
				L289.71677,283.71023L289.71677,283.95026L288.99668,283.95026L288.99668,284.19028L288.03655,284.19028L288.03655,284.67034
				L286.8364,284.67034L286.8364,284.91036L285.87628,284.91036L285.87628,285.39041L284.91616,285.39041L284.91616,285.63044L283.716,285.63044
				L283.716,286.11049L282.75588,286.11049L282.75588,286.35051L281.79576,286.35051L281.79576,286.59054L280.83564,286.59054L280.83564,287.07059
				L279.63549,287.07059L279.63549,287.31062L280.11555,287.31062L280.11555,288.9908L280.35558,288.9908L280.35558,290.43095L280.11555,290.43095
				L280.11555,290.911L279.39546,290.911L279.39546,291.15103L278.67537,291.15103L278.67537,291.39105L277.95527,291.39105L277.95527,291.8711
				L277.23518,291.8711L277.23518,292.11113L276.51509,292.11113L276.51509,292.59118L275.795,292.59118L275.795,292.8312L275.31494,292.8312
				L275.31494,293.31126L274.59485,293.31126L274.59485,293.55128L273.87476,293.55128L273.87476,293.79131L273.15466,293.79131
				L273.15466,294.27136L272.43457,294.27136L272.43457,294.51138L271.71448,294.51138L271.71448,294.99144L270.99439,294.99144
				L270.99439,295.23146L270.75436,295.23146L270.75436,295.71151L270.03427,295.71151L270.03427,295.95154L269.31418,295.95154
				L269.31418,296.43159L268.59409,296.43159L268.59409,296.67161L268.35406,296.67161L268.35406,296.91164L267.63396,296.91164
				L267.63396,297.39169L267.39393,297.39169L267.39393,297.63172L266.67384,297.63172L266.67384,298.11177L266.19378,298.11177
				L266.19378,298.35179L265.95375,298.35179L265.95375,298.83184L265.23366,298.83184L265.23366,299.07187L264.99363,299.07187
				L264.99363,299.3119L264.27354,299.3119L264.27354,299.79195L263.79348,299.79195L263.79348,300.03197L263.07339,300.03197L263.07339,299.07187
				L262.83335,299.07187L262.83335,297.63172L262.59332,297.63172L262.59332,295.95154L262.11326,295.95154L262.11326,294.51138
				L261.87323,294.51138L261.87323,292.8312L261.39317,292.8312L261.39317,291.15103L261.15314,291.15103L261.15314,289.71087L260.67308,289.71087
				L260.67308,288.03069L260.43305,288.03069L260.43305,286.59054L260.19302,286.59054L260.19302,284.91036L259.71296,284.91036
				L259.71296,283.71023L259.47293,283.71023L259.47293,281.79003L258.99287,281.79003L258.99287,280.5899L258.75284,280.5899L258.75284,278.6697
				L258.27278,278.6697L258.27278,277.46957L256.35253,277.46957L256.35253,277.70959L254.19226,277.70959L254.19226,278.18964L
				252.51205,278.18964L252.51205,278.42967L250.35177,278.42967L250.35177,278.6697L248.43153,278.6697L248.43153,279.14975L247.47141,279.14975
				L247.47141,280.5899L247.71144,280.5899L247.71144,281.55L247.95147,281.55L247.95147,282.99016L248.43153,282.99016L248.43153,284.19028
				L248.67156,284.19028L248.67156,285.39041L249.15162,285.39041L249.15162,286.59054L249.39165,286.59054L249.39165,288.03069
				L249.87171,288.03069L249.87171,288.9908L250.11174,288.9908L250.11174,290.43095L250.35177,290.43095L250.35177,291.8711L250.83183,291.8711
				L250.83183,292.8312L251.07186,292.8312L251.07186,294.27136L251.55192,294.27136L251.55192,295.71151L251.79195,295.71151L251.79195,296.43159
				L251.07186,296.43159L251.07186,296.67161L250.11174,296.67161L250.11174,296.91164L249.39165,296.91164L249.39165,297.39169
				L248.43153,297.39169L248.43153,297.63172L247.71144,297.63172L247.71144,298.11177L246.75131,298.11177L246.75131,298.35179
				L246.03122,298.35179L246.03122,298.83184L245.0711,298.83184L245.0711,299.07187L244.35101,299.07187L244.35101,299.3119L243.15086,299.3119
				L243.15086,299.79195L242.43077,299.79195L242.43077,300.03197L241.47064,300.03197L241.47064,300.51202L240.75055,300.51202
				L240.75055,300.75205L239.79043,300.75205L239.79043,301.2321L239.07034,301.2321L239.07034,301.47213L238.11022,301.47213L238.11022,301.71215
				L237.39013,301.71215L237.39013,302.1922L236.43,302.1922L236.43,302.43223L235.70991,302.43223L235.70991,302.91228L234.74979,302.91228
				L234.74979,303.1523L234.0297,303.1523L234.0297,303.63236L232.82955,303.63236L232.82955,303.87238L232.58952,303.87238L232.58952,304.11241
				L232.82955,304.11241L232.82955,304.83248L233.30961,304.83248L233.30961,306.03261L233.54964,306.03261L233.54964,306.99271
				L234.0297,306.99271L234.0297,307.71279L234.26973,307.71279L234.26973,308.67289L234.74979,308.67289L234.74979,309.633L234.98982,309.633
				L234.98982,310.35307L235.22985,310.35307L235.22985,311.5532L235.70991,311.5532L235.70991,312.5133L235.94994,312.5133L235.94994,313.23338
				L236.43,313.23338L236.43,314.19348L236.67003,314.19348L236.67003,315.15358L237.1501,315.15358L237.1501,315.87366L237.39013,315.87366
				L237.39013,316.83376L237.63016,316.83376L237.63016,318.03389L238.11022,318.03389L238.11022,318.75397L238.35025,318.75397
				L238.35025,319.71407L238.83031,319.71407L238.83031,320.67417L239.07034,320.67417L239.07034,321.39425L239.5504,321.39425L
				239.5504,322.35435L239.79043,322.35435L239.79043,323.55448L240.03046,323.55448L240.03046,324.27456L240.51052,324.27456L240.51052,325.23466
				L240.75055,325.23466L240.75055,326.19476L241.23061,326.19476L241.23061,326.91484L241.47064,326.91484L241.47064,327.87494
				L241.9507,327.87494L241.9507,329.07507L242.19074,329.07507L242.19074,330.03517L242.43077,330.03517L242.43077,330.75525L242.91083,330.75525
				L242.91083,331.71535L243.15086,331.71535L243.15086,332.67545L243.63092,332.67545L243.63092,333.87558L243.15086,333.87558
				L243.15086,334.1156L242.43077,334.1156L242.43077,334.59566L242.19074,334.59566L242.19074,334.83568L241.47064,334.83568L241.47064,335.07571
				L241.23061,335.07571L241.23061,335.55576L240.51052,335.55576L240.51052,335.79578L240.03046,335.79578L240.03046,336.27583
				L239.5504,336.27583L239.5504,336.51586L239.07034,336.51586L239.07034,336.99591L238.35025,336.99591L238.35025,337.23594L238.11022,337.23594
				L238.11022,337.47596L237.39013,337.47596L237.39013,337.95601L237.1501,337.95601L237.1501,338.19604L236.43,338.19604L236.43,338.67609
				L235.94994,338.67609L235.94994,338.91612L235.22985,338.91612L235.22985,339.39617L234.98982,339.39617L234.98982,339.63619
				L234.26973,339.63619L234.26973,340.11624L234.0297,340.11624L234.0297,340.35627L233.30961,340.35627L233.30961,340.59629L232.82955,340.59629
				L232.82955,341.07635L232.10946,341.07635L232.10946,341.31637L231.86943,341.31637L231.86943,341.79642L231.14933,341.79642
				L231.14933,342.03645L230.9093,342.03645L230.9093,342.5165L230.18921,342.5165L230.18921,342.75652L229.70915,342.75652L229.70915,342.99655
				L229.22909,342.99655L229.22909,343.4766L228.74903,343.4766L228.74903,343.71663L228.02894,343.71663L228.02894,344.19668L227.78891,344.19668
				L227.78891,344.4367L227.06882,344.4367L227.06882,344.91676L226.82879,344.91676L226.82879,345.15678L226.10869,345.15678L226.10869,345.39681
				L225.62863,345.39681L225.62863,345.87686L224.90854,345.87686L224.90854,346.11688L224.66851,346.11688L224.66851,346.59693
				L223.94842,346.59693L223.94842,346.83696L223.70839,346.83696L223.70839,347.31701L222.9883,347.31701L222.9883,347.55704L222.50824,347.55704
				L222.50824,347.79706L221.78815,347.79706L221.78815,348.27711L221.54812,348.27711L221.54812,348.51714L220.82802,348.51714
				L220.82802,348.99719L220.58799,348.99719L220.58799,349.23722L219.8679,349.23722L219.8679,349.71727L219.38784,349.71727L219.38784,349.95729
				L218.90778,349.95729L218.90778,350.19732L218.42772,350.19732L218.42772,350.67737L217.70763,350.67737L217.70763,350.91739
				L217.4676,350.91739L217.4676,351.39745L216.74751,351.39745L216.74751,351.63747L216.50748,351.63747L216.50748,352.11752L215.78738,352.11752
				L215.78738,352.35755L215.30732,352.35755L215.30732,352.8376L214.58723,352.8376L214.58723,353.07762L214.10717,353.07762L214.10717,353.31765
				L213.38708,353.31765L213.38708,353.7977L212.66699,353.7977L212.66699,354.03773L211.9469,354.03773L211.9469,354.51778L211.22681,354.51778
				L211.22681,354.7578L210.50671,354.7578L210.50671,355.23785L209.78662,355.23785L209.78662,355.47788L209.54659,355.47788L209.54659,355.71791
				L208.8265,355.71791L208.8265,356.19796L208.10641,356.19796L208.10641,356.43798L207.38632,356.43798L207.38632,356.91803L207.14629,356.91803
				L207.14629,357.15806L206.4262,357.15806L206.4262,357.63811L205.70611,357.63811L205.70611,357.87814L205.46607,357.87814L205.46607,358.11816
				L204.74598,358.11816L204.74598,358.59821L204.02589,358.59821L204.02589,358.83824L203.78586,358.83824L203.78586,359.31829
				L203.06577,359.31829L203.06577,359.55832L202.58571,359.55832L202.58571,360.03837L201.86562,360.03837L201.86562,360.27839
				L201.38556,360.27839L201.38556,360.51842L200.9055,360.51842L200.9055,360.99847L200.1854,360.99847L200.1854,361.23849L199.94537,361.23849
				L199.94537,361.71855L199.22528,361.71855L199.22528,361.95857L198.50519,361.95857L198.50519,362.43862L198.26516,362.43862
				L198.26516,362.67865L197.54507,362.67865L197.54507,363.1587L196.82498,363.1587L196.82498,363.39872L196.34492,363.39872L196.34492,363.63875
				L195.86486,363.63875L195.86486,364.1188L195.3848,364.1188L195.3848,364.35883L194.6647,364.35883L194.6647,364.83888L193.94461,364.83888
				L193.94461,365.0789L193.70458,365.0789L193.70458,365.55895L192.98449,365.55895L192.98449,365.79898L192.74446,365.79898L192.74446,366.03901
				L192.02437,366.03901L192.02437,366.51906L191.30428,366.51906L191.30428,366.75908L191.06425,366.75908L191.06425,367.23913
				L190.34416,367.23913L190.34416,367.47916L189.86409,367.47916L189.86409,367.95921L189.144,367.95921L189.144,368.19924L188.90397,368.19924
				L188.90397,368.43926L188.18388,368.43926L188.18388,368.91931L187.94385,368.91931L187.94385,369.15934L187.22376,369.15934
				L187.22376,369.63939L186.50367,369.63939L186.50367,369.87942L186.02361,369.87942L186.02361,370.35947L185.54355,370.35947
				L185.54355,370.59949L185.06349,370.59949L185.06349,370.83952L184.34339,370.83952L184.34339,371.31957L184.10336,371.31957
				L184.10336,371.55959L183.38327,371.55959L183.38327,372.03965L183.14324,372.03965L183.14324,372.27967L182.42315,372.27967
				L182.42315,372.75972L181.94309,372.75972L181.94309,372.99975L181.223,372.99975L181.223,373.23977L180.74294,373.23977L180.74294,373.71982
				L180.26288,373.71982L180.26288,373.95985L179.54278,373.95985L179.54278,374.4399L179.30275,374.4399L179.30275,374.67993L178.58266,374.67993
				L178.58266,375.15998L178.34263,375.15998L178.34263,375.4L177.62254,375.4L177.62254,375.88005L176.90245,375.88005L176.90245,375.4
				L176.18236,375.4L176.18236,375.15998L175.46227,375.15998L175.46227,374.67993L174.74218,374.67993L174.74218,374.4399L174.02208,374.4399
				L174.02208,373.95985L173.78205,373.95985L173.78205,373.71982L173.06196,373.71982L173.06196,373.23977L172.34187,373.23977
				L172.34187,372.99975L171.62178,372.99975L171.62178,372.75972L171.38175,372.75972L171.38175,372.27967L170.90169,372.27967
				L170.90169,372.03965L170.66166,372.03965L170.66166,371.55959L169.94157,371.55959L169.94157,371.31957L169.70154,371.31957
				L169.70154,370.83952L169.22148,370.83952L169.22148,370.59949L168.98144,370.59949L168.98144,369.87942L168.50138,369.87942
				L168.50138,369.15934L168.26135,369.15934L168.26135,368.91931L168.02132,368.91931L168.02132,368.19924L167.54126,368.19924
				L167.54126,367.95921L167.30123,367.95921L167.30123,367.23913L166.82117,367.23913L166.82117,366.51906L166.58114,366.51906
				L166.58114,366.03901L166.10108,366.03901L166.10108,365.55895L165.86105,365.55895L165.86105,365.0789L165.62102,365.0789L165.62102,364.35883
				L165.14096,364.35883L165.14096,364.1188L164.90093,364.1188L164.90093,363.63875L164.42087,363.63875L164.42087,363.1587L164.18084,363.1587
				L164.18084,362.67865L163.70077,362.67865L163.70077,362.43862L163.46074,362.43862L163.46074,361.95857L162.98068,361.95857
				L162.98068,361.71855L162.74065,361.71855L162.74065,360.99847L162.50062,360.99847L162.50062,360.51842L162.02056,360.51842
				L162.02056,360.27839L161.78053,360.27839L161.78053,360.03837L161.30047,360.03837L161.30047,359.55832L161.06044,359.55832
				L161.06044,359.31829L160.34035,359.31829L160.34035,358.83824L160.10032,358.83824L160.10032,358.59821L159.62026,358.59821
				L159.62026,358.11816L159.38023,358.11816L159.38023,357.87814L158.90017,357.87814L158.90017,357.63811L158.66013,357.63811
				L158.66013,357.15806L158.18007,357.15806L158.18007,356.91803L157.94004,356.91803L157.94004,356.43798L157.70001,356.43798
				L157.70001,356.19796L157.21995,356.19796L157.21995,355.71791L156.97992,355.71791L156.97992,355.47788L156.25983,355.47788
				L156.25983,355.23785L155.77977,355.23785L155.77977,354.7578L155.53974,354.7578L155.53974,354.51778L155.29971,354.51778L155.29971,354.03773
				L154.57962,354.03773L154.57962,353.7977L153.85953,353.7977L153.85953,353.31765L152.65937,353.31765L152.65937,353.07762L151.45922,353.07762
				L151.45922,352.8376L150.25907,352.8376L150.25907,352.35755L149.05892,352.35755L149.05892,352.11752L147.3787,352.11752L147.3787,351.63747
				L144.9784,351.63747L144.9784,352.11752L143.53822,352.11752L143.53822,352.35755L142.57809,352.35755L142.57809,352.8376L141.37794,352.8376
				L141.37794,353.07762L139.93776,353.07762L139.93776,353.31765L138.97764,353.31765L138.97764,353.7977L138.25755,353.7977L138.25755,354.03773
				L137.29742,354.03773L137.29742,354.51778L136.3373,354.51778L136.3373,354.7578L135.85724,354.7578L135.85724,355.23785L135.61721,355.23785
				L135.61721,355.47788L135.13715,355.47788L135.13715,355.71791L134.89712,355.71791L134.89712,357.63811L135.13715,357.63811
				L135.13715,359.55832L135.61721,359.55832L135.61721,361.71855L135.85724,361.71855L135.85724,363.63875L136.3373,363.63875L
				136.3373,365.79898L136.57733,365.79898L136.57733,367.95921L137.05739,367.95921L137.05739,369.87942L137.29742,369.87942L137.29742,372.03965
				L137.53745,372.03965L137.53745,372.99975L137.29742,372.99975L137.29742,373.71982L136.3373,373.71982L136.3373,373.95985L133.937,373.95985
				L133.937,374.4399L132.25678,374.4399L132.25678,374.67993L130.33654,374.67993L130.33654,375.15998L128.65633,375.15998L128.65633,375.4
				L126.73608,375.4L126.73608,375.88005L124.81584,375.88005L124.81584,376.12008L123.13563,376.12008L123.13563,376.36011L121.45541,376.36011
				L121.45541,376.84016L119.29514,376.84016L119.29514,377.08018L117.61493,377.08018L117.61493,377.56023L115.93471,377.56023
				L115.93471,377.80026L114.2545,377.80026L114.2545,378.28031L111.61416,378.28031L111.61416,377.80026L110.17398,377.80026L110.17398,377.56023
				L109.69392,377.56023L109.69392,377.08018L109.21386,377.08018L109.21386,376.84016L108.01371,376.84016L108.01371,378.76036
				L108.49377,378.76036L108.49377,381.16062L108.7338,381.16062L108.7338,383.32085L109.21386,383.32085L109.21386,390.28159"/>
			<path clip-path="url(#SVG_CP_2)" fill="none" stroke="#999999" stroke-width="0.96012" stroke-miterlimit="10" stroke-linecap="round" stroke-linejoin="round" d="
				M109.21386,390.28159L109.45389,390.28159L109.45389,393.88197L109.21386,393.88197L109.21386,393.64195L108.01371,393.64195
				L108.01371,393.40192L106.57352,393.40192L106.57352,392.92187L105.37337,392.92187L105.37337,392.68185L104.17322,392.68185
				L104.17322,392.20179L102.97307,392.20179L102.97307,391.96177L101.77292,391.96177L101.77292,391.48172L100.57276,391.48172
				L100.57276,391.24169L99.37261,391.24169L99.37261,391.00167L98.17246,391.00167L98.17246,390.52161L96.73228,390.52161L96.73228,390.28159
				L95.77215,390.28159L95.77215,389.80154L94.33197,389.80154L94.33197,389.56151L93.37185,389.56151L93.37185,389.08146L91.93167,389.08146
				L91.93167,388.84144L90.97155,388.84144L90.97155,388.60141L89.53136,388.60141L89.53136,388.12136L88.57124,388.12136L88.57124,387.88133
				L87.13106,387.88133L87.13106,387.40128L85.69087,387.40128L85.69087,387.16126L84.73075,387.16126L84.73075,386.68121L83.29057,386.68121
				L83.29057,386.44118L82.33045,386.44118L82.33045,386.20115L80.89027,386.20115L80.89027,385.7211L79.93014,385.7211L79.93014,385.48108
				L78.48996,385.48108L78.48996,385.00103L77.52984,385.00103L77.52984,384.761L76.08966,384.761L76.08966,384.28095L74.64947,384.28095
				L74.64947,384.04092L73.68935,384.04092L73.68935,383.56087L72.24917,383.56087L72.24917,383.32085L71.28905,383.32085L71.28905,383.08082
				L69.84886,383.08082L69.84886,382.60077L68.88874,382.60077L68.88874,382.36075L67.44856,382.36075L67.44856,381.88069L66.48844,381.88069
				L66.48844,381.64067L65.04826,381.64067L65.04826,381.16062L63.60807,381.16062L63.60807,380.92059L62.64795,380.92059L62.64795,380.68057
				L61.20777,380.68057L61.20777,380.20051L60.24765,380.20051L60.24765,379.96049L58.80746,379.96049L58.80746,379.48044L57.84734,379.48044
				L57.84734,379.24041L56.40716,379.24041L56.40716,378.76036L55.20701,378.76036L55.20701,378.52034L54.00685,378.52034L54.00685,378.28031
				L52.8067,378.28031L52.8067,377.80026L51.60655,377.80026L51.60655,377.56023L50.16637,377.56023L50.16637,377.08018L49.92634,377.08018
				L49.92634,377.56023L49.68631,377.56023L49.68631,377.80026L49.20624,377.80026L49.20624,385.48108L49.68631,385.48108L49.68631,387.88133
				L49.92634,387.88133L49.92634,391.96177L50.16637,391.96177L50.16637,393.88197L50.64643,393.88197L50.64643,395.80218L50.88646,395.80218
				L50.88646,397.72238L51.36652,397.72238L51.36652,399.88261L51.60655,399.88261L51.60655,401.56279L52.08661,401.56279L52.08661,403.72302
				L52.32664,403.72302L52.32664,405.64323L52.8067,405.64323L52.8067,408.04348L53.04673,408.04348L53.04673,410.44374L53.28676,410.44374
				L53.28676,413.32404L53.76682,413.32404L53.76682,415.7243L54.00685,415.7243L54.00685,418.12456L54.48692,418.12456L54.48692,420.52481
				L54.72695,420.52481L54.72695,422.92507L55.20701,422.92507L55.20701,424.84527L55.44704,424.84527L55.44704,425.32532L55.68707,425.32532
				L55.68707,425.56535L56.16713,425.56535L56.16713,426.0454L56.88722,426.0454L56.88722,426.28543L57.12725,426.28543L57.12725,426.76548
				L57.60731,426.76548L57.60731,427.0055L57.84734,427.0055L57.84734,427.24553L58.08737,427.24553L58.08737,427.72558L58.56743,427.72558
				L58.56743,427.9656L58.80746,427.9656L58.80746,428.44566L59.52755,428.44566L59.52755,428.68568L60.00762,428.68568L60.00762,429.16573
				L60.24765,429.16573L60.24765,429.40576L60.48768,429.40576L60.48768,429.64578L60.96774,429.64578L60.96774,430.12584L61.20777,430.12584
				L61.20777,430.36586L61.68783,430.36586L61.68783,430.84591L61.92786,430.84591L61.92786,431.08594L62.64795,431.08594L62.64795,431.56599
				L63.12801,431.56599L63.12801,431.80601L63.36804,431.80601L63.36804,432.28607L63.60807,432.28607L63.60807,432.52609L64.08813,432.52609
				L64.08813,432.76612L64.32816,432.76612L64.32816,433.24617L64.80822,433.24617L64.80822,433.48619L65.52832,433.48619L65.52832,433.96624
				L65.76835,433.96624L65.76835,434.20627L66.00838,434.20627L66.00838,434.68632L66.48844,434.68632L66.48844,434.92635L66.72847,434.92635
				L66.72847,435.16637L67.20853,435.16637L67.20853,435.64642L67.44856,435.64642L67.44856,435.88645L67.92862,435.88645L67.92862,436.3665
				L68.40868,436.3665L68.40868,436.60653L68.88874,436.60653L68.88874,437.08658L69.12877,437.08658L69.12877,437.3266L69.60883,437.3266
				L69.60883,437.56663L69.84886,437.56663L69.84886,438.04668L70.32893,438.04668L70.32893,438.2867L70.56896,438.2867L70.56896,438.76676
				L71.28905,438.76676L71.28905,439.00678L71.52908,439.00678L71.52908,439.48683L72.00914,439.48683L72.00914,439.72686L72.24917,439.72686
				L72.24917,439.96688L72.72923,439.96688L72.72923,440.44693L72.96926,440.44693L72.96926,440.68696L73.20929,440.68696L73.20929,441.16701
				L73.68935,441.16701L73.68935,441.40704L74.40944,441.40704L74.40944,441.88709L74.64947,441.88709L74.64947,442.12711L75.12953,442.12711
				L75.12953,442.60717L75.36957,442.60717L75.36957,442.84719L75.84963,442.84719L75.84963,443.08722L76.08966,443.08722L76.08966,443.56727
				L76.80975,443.56727L76.80975,443.80729L77.52984,443.80729L77.52984,444.28734L77.76987,444.28734L77.76987,444.52737L78.48996,444.52737
				L78.48996,445.00742L79.21005,445.00742L79.21005,445.24745L79.45008,445.24745L79.45008,445.48747L80.17017,445.48747L80.17017,445.96752
				L80.89027,445.96752L80.89027,446.20755L81.1303,446.20755L81.1303,446.6876L81.85039,446.6876L81.85039,446.92763L82.33045,446.92763
				L82.33045,447.40768"/>
			<path clip-path="url(#SVG_CP_2)" fill="none" stroke="#999999" stroke-width="0.96012" stroke-miterlimit="10" stroke-linecap="round" stroke-linejoin="round" d="
				M77.76987,565.26024L46.56591,565.26024L46.56591,520.8555L46.80594,520.8555L46.80594,521.57558L47.286,521.57558L47.286,522.29566
				L47.52603,522.29566L47.52603,523.01573L47.76606,523.01573L47.76606,523.73581L48.24612,523.73581L48.24612,524.45589L48.48615,524.45589
				L48.48615,524.93594L48.96621,524.93594L48.96621,525.65601L49.20624,525.65601L49.20624,526.37609L49.68631,526.37609L49.68631,527.09617
				L49.92634,527.09617L49.92634,527.81625L50.16637,527.81625L50.16637,528.53632L50.64643,528.53632L50.64643,529.2564L50.88646,529.2564
				L50.88646,529.73645L51.36652,529.73645L51.36652,530.45653L51.60655,530.45653L51.60655,531.1766L52.08661,531.1766L52.08661,531.89668
				L52.32664,531.89668L52.32664,532.61676L52.8067,532.61676L52.8067,533.33683L53.04673,533.33683L53.04673,534.05691L53.28676,534.05691
				L53.28676,534.77699L53.76682,534.77699L53.76682,535.25704L54.00685,535.25704L54.00685,535.73709L54.48692,535.73709L54.48692,536.45717
				L54.72695,536.45717L54.72695,537.17724L55.20701,537.17724L55.20701,537.65729L55.44704,537.65729L55.44704,538.37737L55.68707,538.37737
				L55.68707,539.09745L56.16713,539.09745L56.16713,539.81752L56.40716,539.81752L56.40716,540.5376L56.88722,540.5376L56.88722,541.25768
				L57.12725,541.25768L57.12725,541.97775L57.60731,541.97775L57.60731,542.45781L57.84734,542.45781L57.84734,543.17788L58.08737,543.17788
				L58.08737,543.89796L58.56743,543.89796L58.56743,544.61804L58.80746,544.61804L58.80746,545.33811L59.28752,545.33811L59.28752,546.05819
				L59.52755,546.05819L59.52755,546.77827L60.00762,546.77827L60.00762,547.49834L60.24765,547.49834L60.24765,547.97839L60.48768,547.97839
				L60.48768,548.69847L60.96774,548.69847L60.96774,549.41855L61.20777,549.41855L61.20777,550.13862L61.68783,550.13862L61.68783,550.8587
				L61.92786,550.8587L61.92786,551.57878L62.40792,551.57878L62.40792,552.29885L62.64795,552.29885L62.64795,552.53888L63.12801,552.53888
				L63.12801,553.25896L63.36804,553.25896L63.36804,553.97903L63.60807,553.97903L63.60807,554.69911L64.08813,554.69911L64.08813,555.17916
				L64.32816,555.17916L64.32816,555.89924L64.80822,555.89924L64.80822,556.61931L65.04826,556.61931L65.04826,557.33939L65.52832,557.33939
				L65.52832,557.09937L66.48844,557.09937L66.48844,556.61931L67.44856,556.61931L67.44856,556.37929L68.16865,556.37929L68.16865,555.89924
				L69.12877,555.89924L69.12877,555.65921L69.84886,555.65921L69.84886,555.17916L70.80899,555.17916L70.80899,554.93914L71.52908,554.93914
				L71.52908,554.69911L72.72923,554.69911L72.72923,554.21906L73.20929,554.21906L73.20929,554.93914L73.68935,554.93914L73.68935,555.65921
				L73.92938,555.65921L73.92938,556.37929L74.40944,556.37929L74.40944,557.33939L74.64947,557.33939L74.64947,558.05947L75.12953,558.05947
				L75.12953,559.01957L75.36957,559.01957L75.36957,559.73965L75.84963,559.73965L75.84963,560.69975L76.08966,560.69975L76.08966,561.41983
				L76.32969,561.41983L76.32969,562.1399L76.80975,562.1399L76.80975,563.1L77.04978,563.1L77.04978,563.82008L77.52984,563.82008
				L77.52984,565.02021L77.76987,565.02021L77.76987,565.26024"/>
			<path clip-path="url(#SVG_CP_2)" fill="none" stroke="#999999" stroke-width="0.96012" stroke-miterlimit="10" stroke-linecap="round" stroke-linejoin="round" d="
				M76.08966,464.44949L76.32969,464.44949L76.32969,464.20947L76.80975,464.20947L76.80975,463.72942L77.04978,463.72942L77.04978,463.48939
				L77.52984,463.48939L77.52984,463.00934L77.76987,463.00934L77.76987,462.76931L78.24993,462.76931L78.24993,462.52929L78.48996,462.52929
				L78.48996,462.04924L78.72999,462.04924L78.72999,461.80921L79.21005,461.80921L79.21005,461.32916L79.45008,461.32916L79.45008,461.08913
				L79.93014,461.08913L79.93014,460.60908L80.17017,460.60908L80.17017,460.36906L80.65024,460.36906L80.65024,460.12903L80.89027,460.12903
				L80.89027,459.64898L81.1303,459.64898L81.1303,459.40896L81.61036,459.40896L81.61036,458.9289L81.85039,458.9289L81.85039,448.36778
				L82.33045,448.36778L82.33045,447.40768L83.05054,447.40768L83.05054,447.6477L83.5306,447.6477L83.5306,447.40768L84.01066,447.40768
				L84.01066,446.6876L84.25069,446.6876L84.25069,446.20755L84.73075,446.20755L84.73075,445.96752L84.97078,445.96752L84.97078,445.48747
				L85.45084,445.48747L85.45084,445.00742L85.69087,445.00742L85.69087,444.52737L86.17094,444.52737L86.17094,444.28734L86.41097,444.28734
				L86.41097,443.80729L86.651,443.80729L86.651,443.56727L87.13106,443.56727L87.13106,442.84719L87.85115,442.84719L87.85115,443.08722
				L88.57124,443.08722L88.57124,443.56727L88.81127,443.56727L88.81127,443.08722L89.0513,443.08722L89.0513,442.84719L89.53136,442.84719
				L89.53136,442.60717L89.77139,442.60717L89.77139,442.12711L90.25145,442.12711L90.25145,441.88709L90.49148,441.88709L90.49148,441.40704
				L90.97155,441.40704L90.97155,441.16701L91.21158,441.16701L91.21158,440.68696L91.45161,440.68696L91.45161,440.44693L91.93167,440.44693
				L91.93167,439.72686L92.1717,439.72686L92.1717,439.48683L92.65176,439.48683L92.65176,439.00678L92.89179,439.00678L92.89179,438.76676
				L93.37185,438.76676L93.37185,438.2867L93.61188,438.2867L93.61188,438.04668L93.85191,438.04668L93.85191,437.56663L94.572,437.56663
				L94.572,437.3266L95.05206,437.3266L95.05206,437.08658L95.29209,437.08658L95.29209,436.60653L95.77215,436.60653L95.77215,436.3665
				L96.25222,436.3665L96.25222,435.88645L96.73228,435.88645L96.73228,435.64642L96.97231,435.64642L96.97231,435.16637L97.45237,435.16637
				L97.45237,434.92635L98.17246,434.92635L98.17246,434.68632L98.41249,434.68632L98.41249,434.20627L98.89255,434.20627L98.89255,433.96624
				L99.37261,433.96624L99.37261,433.48619L99.85267,433.48619L99.85267,433.24617L100.0927,433.24617L100.0927,432.76612L100.57276,432.76612
				L100.57276,432.52609L101.29285,432.52609L101.29285,432.28607L101.53289,432.28607L101.53289,431.80601L101.77292,431.80601
				L101.77292,431.56599L102.25298,431.56599L102.25298,431.08594L102.97307,431.08594L102.97307,430.84591L103.93319,430.84591
				L103.93319,430.36586L104.89331,430.36586L104.89331,430.12584L106.09346,430.12584L106.09346,429.64578L107.05359,429.64578
				L107.05359,429.40576L108.01371,429.40576L108.01371,429.16573L109.21386,429.16573L109.21386,428.68568L110.17398,428.68568
				L110.17398,428.44566L111.1341,428.44566L111.1341,427.9656L112.09423,427.9656L112.09423,427.72558L113.29438,427.72558L113.29438,427.24553
				L114.2545,427.24553L114.2545,427.0055L115.21462,427.0055L115.21462,426.76548L116.41477,426.76548L116.41477,426.28543L117.3749,426.28543
				L117.3749,426.0454L118.33502,426.0454L118.33502,425.56535L119.29514,425.56535L119.29514,425.32532L120.49529,425.32532L120.49529,424.84527
				L121.45541,424.84527L121.45541,424.60525L122.41554,424.60525L122.41554,424.36522L123.13563,424.36522L123.13563,423.88517
				L124.33578,423.88517L124.33578,423.64514L125.2959,423.64514L125.2959,423.16509L126.25602,423.16509L126.25602,422.92507L127.21614,422.92507
				L127.21614,422.44502L128.4163,422.44502L128.4163,422.20499L129.37642,422.20499L129.37642,421.96497L130.33654,421.96497L130.33654,421.48491
				L131.53669,421.48491L131.53669,421.24489L132.49681,421.24489L132.49681,420.76484L133.45694,420.76484L133.45694,420.52481
				L134.65709,420.52481L134.65709,420.04476L135.61721,420.04476L135.61721,419.80474L136.57733,419.80474L136.57733,419.32468
				L137.53745,419.32468L137.53745,419.08466L138.73761,419.08466L138.73761,418.84463L139.4577,418.84463L139.4577,418.36458L140.41782,418.36458
				L140.41782,418.12456L141.37794,418.12456L141.37794,417.64451L142.57809,417.64451L142.57809,417.40448L143.53822,417.40448
				L143.53822,416.92443L144.49834,416.92443L144.49834,416.6844L145.45846,416.6844L145.45846,416.44438L146.65861,416.44438L146.65861,415.96433
				L147.61873,415.96433L147.61873,415.7243L148.57886,415.7243L148.57886,415.24425L149.77901,415.24425L149.77901,415.00422L150.73913,415.00422
				L150.73913,414.52417L151.69925,414.52417L151.69925,414.28415L152.65937,414.28415L152.65937,414.04412L153.85953,414.04412
				L153.85953,413.56407L154.81965,413.56407L154.81965,413.32404L156.25983,413.32404L156.25983,412.84399L157.21995,412.84399
				L157.21995,412.60397L158.18007,412.60397L158.18007,412.12392L159.38023,412.12392L159.38023,411.88389L160.34035,411.88389
				L160.34035,411.64387L161.78053,411.64387L161.78053,411.16381L162.98068,411.16381L162.98068,410.92379L164.42087,410.92379
				L164.42087,410.44374L166.10108,410.44374L166.10108,410.20371L167.54126,410.20371L167.54126,409.72366L169.22148,409.72366
				L169.22148,409.48364L169.94157,409.48364L169.94157,409.24361L170.90169,409.24361L170.90169,408.76356L172.10184,408.76356
				L172.10184,408.52353L172.82193,408.52353L172.82193,408.04348L173.78205,408.04348L173.78205,407.80346L174.50215,407.80346
				L174.50215,407.32341L175.46227,407.32341L175.46227,407.08338L176.18236,407.08338L176.18236,406.60333L176.90245,406.60333
				L176.90245,406.3633L177.86257,406.3633L177.86257,406.12328L178.58266,406.12328L178.58266,405.64323L179.30275,405.64323L179.30275,405.4032
				L180.02285,405.4032L180.02285,404.92315L180.98297,404.92315L180.98297,404.68312L181.70306,404.68312L181.70306,404.20307L
				182.42315,404.20307L182.42315,403.96305L183.14324,403.96305L183.14324,403.72302L184.10336,403.72302L184.10336,403.24297L
				184.82346,403.24297L184.82346,403.00294L185.54355,403.00294L185.54355,402.52289L186.02361,402.52289L186.02361,402.28287L
				187.22376,402.28287L187.22376,401.80282L187.94385,401.80282L187.94385,401.56279L188.90397,401.56279L188.90397,401.32277L
				190.34416,401.32277L190.34416,400.84271L191.30428,400.84271L191.30428,400.60269L192.2644,400.60269L192.2644,400.12264L193.46455,400.12264
				L193.46455,399.88261L194.42467,399.88261L194.42467,399.40256L196.10489,399.40256L196.10489,399.16254L197.7851,399.16254L
				197.7851,398.92251L198.74522,398.92251L198.74522,398.44246L199.94537,398.44246L199.94537,398.20243L200.9055,398.20243L200.9055,397.72238
				L201.86562,397.72238L201.86562,397.48236L202.34568,397.48236L202.34568,397.00231L203.06577,397.00231L203.06577,396.76228
				L203.3058,396.76228L203.3058,396.28223L203.78586,396.28223L203.78586,396.76228L205.70611,396.76228L205.70611,397.00231L207.38632,397.00231
				L207.38632,397.48236L208.58647,397.48236L208.58647,397.72238L209.78662,397.72238L209.78662,398.20243L210.98678,398.20243
				L210.98678,398.44246L212.18693,398.44246L212.18693,398.92251L213.62711,398.92251L213.62711,399.16254L214.58723,399.16254
				L214.58723,399.40256L216.02742,399.40256L216.02742,399.88261L216.98754,399.88261L216.98754,400.12264L218.42772,400.12264
				L218.42772,400.60269L219.8679,400.60269L219.8679,400.84271L220.82802,400.84271L220.82802,401.32277L222.26821,401.32277L222.26821,401.56279
				L223.22833,401.56279L223.22833,401.80282L224.66851,401.80282L224.66851,402.28287L225.62863,402.28287L225.62863,402.52289
				L227.06882,402.52289L227.06882,403.00294L228.509,403.00294L228.509,403.24297L229.46912,403.24297L229.46912,403.72302L230.9093,403.72302
				L230.9093,403.96305L231.86943,403.96305L231.86943,404.20307L233.30961,404.20307L233.30961,404.68312L234.74979,404.68312L
				234.74979,404.92315L235.70991,404.92315L235.70991,405.4032L237.1501,405.4032L237.1501,405.64323L238.11022,405.64323L238.11022,406.12328
				L239.5504,406.12328L239.5504,406.3633L240.75055,406.3633L240.75055,406.60333L241.9507,406.60333L241.9507,407.08338L243.15086,407.08338
				L243.15086,407.32341L244.35101,407.32341L244.35101,407.80346L245.55116,407.80346L245.55116,408.04348L246.75131,408.04348
				L246.75131,407.80346L246.99134,407.80346L246.99134,407.32341L247.71144,407.32341L247.71144,407.08338L247.95147,407.08338
				L247.95147,406.60333L248.67156,406.60333L248.67156,406.3633L249.15162,406.3633L249.15162,406.12328L249.87171,406.12328L249.87171,405.64323
				L250.11174,405.64323L250.11174,405.4032L250.83183,405.4032L250.83183,404.92315L251.07186,404.92315L251.07186,404.68312L251.79195,404.68312
				L251.79195,404.20307L252.27201,404.20307L252.27201,403.96305L252.75208,403.96305L252.75208,403.72302L253.47217,403.72302
				L253.47217,403.24297L253.95223,403.24297L253.95223,403.00294L254.67232,403.00294L254.67232,402.52289L254.91235,402.52289
				L254.91235,402.28287L255.63244,402.28287L255.63244,401.80282L255.87247,401.80282L255.87247,401.56279L256.59256,401.56279
				L256.59256,401.32277L257.07262,401.32277L257.07262,400.84271L257.79272,400.84271L257.79272,400.60269L258.03275,400.60269
				L258.03275,400.12264L258.75284,400.12264L258.75284,399.88261L258.99287,399.88261L258.99287,399.40256L259.71296,399.40256
				L259.71296,399.16254L260.19302,399.16254L260.19302,398.92251L260.67308,398.92251L260.67308,398.44246L261.15314,398.44246
				L261.15314,398.20243L261.87323,398.20243L261.87323,397.72238L262.11326,397.72238L262.11326,397.48236L262.83335,397.48236
				L262.83335,397.00231L263.07339,397.00231L263.07339,396.76228L263.79348,396.76228L263.79348,396.28223L264.27354,396.28223
				L264.27354,396.0422L264.99363,396.0422L264.99363,395.80218L265.23366,395.80218L265.23366,395.32213L265.95375,395.32213L265.95375,395.0821
				L266.19378,395.0821L266.19378,394.60205L266.91387,394.60205L266.91387,394.36202L267.63396,394.36202L267.63396,393.88197L
				268.11402,393.88197L268.11402,393.64195L268.59409,393.64195L268.59409,393.40192L269.07415,393.40192L269.07415,392.92187L
				269.79424,392.92187L269.79424,392.68185L270.03427,392.68185L270.03427,392.20179L270.75436,392.20179L270.75436,391.96177L
				270.99439,391.96177L270.99439,391.48172L271.71448,391.48172L271.71448,391.24169L272.19454,391.24169L272.19454,391.00167L
				272.91463,391.00167L272.91463,390.52161L273.15466,390.52161L273.15466,390.28159L273.87476,390.28159L273.87476,389.80154L
				274.11479,389.80154L274.11479,389.56151L275.31494,389.56151L275.31494,390.28159L275.55497,390.28159L275.55497,391.00167L
				275.795,391.00167L275.795,391.24169L276.27506,391.24169L276.27506,391.96177L276.51509,391.96177L276.51509,392.20179L276.99515,392.20179
				L276.99515,392.92187L277.23518,392.92187L277.23518,393.40192L277.71524,393.40192L277.71524,393.88197L277.95527,393.88197
				L277.95527,394.36202L278.1953,394.36202L278.1953,393.88197L278.9154,393.88197L278.9154,393.64195L279.63549,393.64195L279.63549,393.40192
				L280.35558,393.40192L280.35558,392.92187L280.83564,392.92187L280.83564,392.68185L281.3157,392.68185L281.3157,392.20179L282.03579,392.20179
				L282.03579,391.96177L282.75588,391.96177L282.75588,391.48172L283.23594,391.48172L283.23594,391.24169L283.716,391.24169L283.716,391.00167
				L284.4361,391.00167L284.4361,390.52161L285.15619,390.52161L285.15619,390.28159L285.63625,390.28159L285.63625,389.80154L286.11631,389.80154
				L286.11631,389.56151L286.8364,389.56151L286.8364,389.08146L287.31646,389.08146L287.31646,388.84144L288.03655,388.84144L288.03655,388.60141
				L288.51661,388.60141L288.51661,388.12136L289.23671,388.12136L289.23671,387.88133L289.71677,387.88133L289.71677,387.40128
				L290.43686,387.40128L290.43686,387.16126L291.15695,387.16126L291.15695,386.68121L291.63701,386.68121L291.63701,386.44118
				L292.11707,386.44118L292.11707,386.20115L292.83716,386.20115L292.83716,385.7211L293.55725,385.7211L293.55725,385.48108L294.03731,385.48108
				L294.03731,385.00103L294.51738,385.00103L294.51738,384.761L295.23747,384.761L295.23747,384.28095L295.95756,384.28095L295.95756,384.04092
				L296.43762,384.04092L296.43762,383.56087L296.91768,383.56087L296.91768,384.04092L297.15771,384.04092L297.15771,384.761L297.63777,384.761
				L297.63777,385.48108L297.8778,385.48108L297.8778,386.20115L298.35786,386.20115L298.35786,386.68121L298.59789,386.68121L298.59789,387.40128
				L298.83792,387.40128L298.83792,388.12136L299.31798,388.12136L299.31798,388.84144L299.55802,388.84144L299.55802,389.56151
				L300.03808,389.56151L300.03808,389.80154L300.75817,389.80154L300.75817,389.56151L301.23823,389.56151L301.23823,389.08146
				L301.71829,389.08146L301.71829,388.84144L302.43838,388.84144L302.43838,388.60141L303.15847,388.60141L303.15847,388.12136
				L303.87856,388.12136L303.87856,387.88133L304.35862,387.88133L304.35862,387.40128L305.07872,387.40128L305.07872,387.16126
				L305.55878,387.16126L305.55878,386.68121L306.27887,386.68121L306.27887,386.44118L306.75893,386.44118L306.75893,386.20115
				L307.47902,386.20115L307.47902,385.7211L308.19911,385.7211L308.19911,385.48108L308.9192,385.48108L308.9192,385.00103L309.15923,385.00103
				L309.15923,384.761L309.87933,384.761L309.87933,384.28095L310.59942,384.28095L310.59942,384.04092L311.31951,384.04092L311.31951,383.56087
				L312.0396,383.56087L312.0396,383.32085L312.75969,383.32085L312.75969,383.08082L312.99972,383.08082L312.99972,382.60077L313.71981,382.60077
				L313.71981,382.36075L314.4399,382.36075L314.4399,381.88069L315.16,381.88069L315.16,381.64067L315.88009,381.64067L315.88009,381.16062
				L316.12012,381.16062L316.12012,380.92059L316.84021,380.92059L316.84021,380.68057L317.5603,380.68057L317.5603,380.20051L317.80033,380.20051
				L317.80033,379.96049L318.52042,379.96049L318.52042,379.48044L319.24051,379.48044L319.24051,379.24041L319.9606,379.24041L
				319.9606,378.76036L320.20063,378.76036L320.20063,378.52034L320.92073,378.52034L320.92073,378.28031L321.64082,378.28031L321.64082,377.80026
				L321.88085,377.80026L321.88085,377.56023L322.60094,377.56023L322.60094,377.08018L323.32103,377.08018L323.32103,376.84016
				L323.80109,376.84016L323.80109,376.36011L324.28115,376.36011L324.28115,376.12008L325.00124,376.12008L325.00124,375.88005
				L325.72134,375.88005L325.72134,375.4L326.2014,375.4L326.2014,375.15998L326.92149,375.15998L326.92149,374.67993L327.40155,374.67993
				L327.40155,374.4399L327.88161,374.4399L327.88161,373.95985L328.6017,373.95985L328.6017,373.71982L328.84173,373.71982L328.84173,373.23977
				L329.56182,373.23977L329.56182,372.99975L330.28191,372.99975L330.28191,372.75972L330.52194,372.75972L330.52194,372.27967
				L331.24204,372.27967L331.24204,372.03965L331.7221,372.03965L331.7221,371.55959L332.20216,371.55959L332.20216,371.31957L332.68222,371.31957
				L332.68222,370.83952L333.40231,370.83952L333.40231,370.59949L333.64234,370.59949L333.64234,370.35947L334.36243,370.35947
				L334.36243,369.87942L335.08252,369.87942L335.08252,369.63939L335.32255,369.63939L335.32255,369.15934L336.04265,369.15934
				L336.04265,368.91931L336.52271,368.91931L336.52271,368.43926L337.2428,368.43926L337.2428,368.19924L337.48283,368.19924L337.48283,367.95921
				L338.20292,367.95921L338.20292,367.47916L338.44295,367.47916L338.44295,367.23913L339.16304,367.23913L339.16304,366.75908
				L339.88313,366.75908L339.88313,366.51906L340.12316,366.51906L340.12316,366.03901L340.84325,366.03901L340.84325,365.79898
				L341.32332,365.79898L341.32332,366.51906L341.56335,366.51906L341.56335,367.47916L342.04341,367.47916L342.04341,368.19924
				L342.28344,368.19924L342.28344,369.15934L342.52347,369.15934L342.52347,369.87942L343.00353,369.87942L343.00353,370.83952
				L343.24356,370.83952L343.24356,371.55959L343.72362,371.55959L343.72362,372.75972L343.96365,372.75972L343.96365,373.23977
				L344.44371,373.23977L344.44371,374.4399L344.68374,374.4399L344.68374,375.15998L344.92377,375.15998L344.92377,376.12008L345.40383,376.12008
				L345.40383,376.84016L345.64386,376.84016L345.64386,377.80026L346.12392,377.80026L346.12392,378.52034L346.36396,378.52034
				L346.36396,379.48044L346.84402,379.48044L346.84402,380.20051L347.08405,380.20051L347.08405,381.16062L347.56411,381.16062
				L347.56411,381.88069L347.80414,381.88069L347.80414,382.36075L348.52423,382.36075L348.52423,381.88069L349.24432,381.88069
				L349.24432,381.64067L349.96441,381.64067L349.96441,381.16062L350.44447,381.16062L350.44447,380.92059L351.16456,380.92059
				L351.16456,380.68057L351.88466,380.68057L351.88466,380.20051L352.60475,380.20051L352.60475,379.96049L353.32484,379.96049
				L353.32484,379.48044L354.04493,379.48044L354.04493,379.24041L354.76502,379.24041L354.76502,378.76036L355.24508,378.76036
				L355.24508,378.52034L355.96517,378.52034L355.96517,378.28031L356.68526,378.28031L356.68526,377.80026L357.40536,377.80026
				L357.40536,377.56023L358.12545,377.56023L358.12545,377.08018L358.84554,377.08018L358.84554,376.84016L359.56563,376.84016
				L359.56563,376.36011L360.28572,376.36011L360.28572,376.12008L360.76578,376.12008L360.76578,375.88005L361.48587,375.88005
				L361.48587,375.4L362.20597,375.4L362.20597,375.15998L362.92606,375.15998L362.92606,374.67993L363.64615,374.67993L363.64615,374.4399
				L364.36624,374.4399L364.36624,373.95985L365.08633,373.95985L365.08633,373.71982L365.56639,373.71982L365.56639,373.23977L
				366.28648,373.23977L366.28648,372.99975L367.00657,372.99975L367.00657,372.75972L367.72667,372.75972L367.72667,372.27967L
				368.44676,372.27967L368.44676,372.03965L369.16685,372.03965L369.16685,371.55959L369.88694,371.55959L369.88694,371.31957L
				370.60703,371.31957L370.60703,370.83952L371.08709,370.83952L371.08709,370.59949L371.80718,370.59949L371.80718,370.35947L
				372.52728,370.35947L372.52728,370.59949L373.00734,370.59949L373.00734,371.31957L373.24737,371.31957L373.24737,372.03965L
				373.4874,372.03965L373.4874,372.75972L373.96746,372.75972L373.96746,373.23977L374.20749,373.23977L374.20749,373.95985L374.68755,373.95985
				L374.68755,374.4399L374.92758,374.4399L374.92758,375.15998L375.40764,375.15998L375.40764,375.88005L375.64767,375.88005L375.64767,376.36011
				L375.8877,376.36011L375.8877,377.08018L376.36776,377.08018L376.36776,377.80026L376.60779,377.80026L376.60779,378.52034L377.08785,378.52034
				L377.08785,379.24041L377.32788,379.24041L377.32788,379.96049L377.80795,379.96049L377.80795,380.68057L378.04798,380.68057
				L378.04798,381.16062L378.28801,381.16062L378.28801,381.88069L378.76807,381.88069L378.76807,382.36075L379.0081,382.36075L
				379.0081,383.08082L379.48816,383.08082L379.48816,383.56087L379.72819,383.56087L379.72819,384.28095L380.20825,384.28095L380.20825,385.00103
				L380.44828,385.00103L380.44828,385.7211L380.68831,385.7211L380.68831,386.44118L381.16837,386.44118L381.16837,387.16126L381.4084,387.16126
				L381.4084,387.88133L381.88846,387.88133L381.88846,388.60141L382.12849,388.60141L382.12849,389.08146L382.60855,389.08146L
				382.60855,389.56151L382.84859,389.56151L382.84859,389.08146L383.32865,389.08146L383.32865,388.84144L383.80871,388.84144L
				383.80871,388.60141L384.28877,388.60141L384.28877,388.12136L385.00886,388.12136L385.00886,387.88133L385.24889,387.88133L
				385.24889,387.40128L385.72895,387.40128L385.72895,387.16126L386.20901,387.16126L386.20901,386.68121L386.68907,386.68121L
				386.68907,386.44118L386.9291,386.44118L386.9291,385.7211L387.40916,385.7211L387.40916,385.48108L387.64919,385.48108L387.64919,384.761
				L388.12926,384.761L388.12926,384.04092L388.36929,384.04092L388.36929,383.32085L388.60932,383.32085L388.60932,382.60077L389.08938,382.60077
				L389.08938,382.36075L389.32941,382.36075L389.32941,381.88069L390.0495,381.88069L390.0495,381.64067L390.52956,381.64067L390.52956,381.16062
				L391.00962,381.16062L391.00962,380.92059L391.48968,380.92059L391.48968,380.68057L392.20977,380.68057L392.20977,380.20051
				L392.4498,380.20051L392.4498,379.96049L393.16989,379.96049L393.16989,379.48044L393.64996,379.48044L393.64996,379.24041L394.13002,379.24041
				L394.13002,378.76036L394.61008,378.76036L394.61008,378.52034L395.33017,378.52034L395.33017,378.28031L396.05026,378.28031
				L396.05026,377.80026L396.29029,377.80026L396.29029,377.56023L397.01038,377.56023L397.01038,377.08018L397.25041,377.08018
				L397.25041,376.84016L397.9705,376.84016L397.9705,376.36011L398.45057,376.36011L398.45057,376.12008L398.93063,376.12008L398.93063,375.88005
				L399.41069,375.88005L399.41069,375.4L400.13078,375.4L400.13078,375.15998L400.85087,375.15998L400.85087,374.67993L401.0909,374.67993
				L401.0909,374.4399L401.81099,374.4399L401.81099,373.95985L402.05102,373.95985L402.05102,373.71982L402.77111,373.71982L402.77111,373.23977
				L403.25117,373.23977L403.25117,372.99975L403.73124,372.99975L403.73124,372.75972L404.2113,372.75972L404.2113,372.27967L404.93139,372.27967
				L404.93139,372.03965L405.17142,372.03965L405.17142,371.55959L405.89151,371.55959L405.89151,371.31957L406.37157,371.31957
				L406.37157,370.83952L406.85163,370.83952L406.85163,370.59949L407.57172,370.59949"/>
			<path clip-path="url(#SVG_CP_2)" fill="none" stroke="#999999" stroke-width="0.96012" stroke-miterlimit="10" stroke-linecap="round" stroke-linejoin="round" d="
				M407.57172,370.59949L407.57172,370.35947L408.05178,370.35947L408.05178,369.87942L408.77187,369.87942L408.77187,369.63939
				L409.01191,369.63939L409.01191,369.15934L409.732,369.15934L409.732,368.91931L409.97203,368.91931L409.97203,368.43926L410.69212,368.43926
				L410.69212,368.19924L411.17218,368.19924L411.17218,367.95921L411.65224,367.95921L411.65224,367.47916L412.1323,367.47916L
				412.1323,367.23913L412.85239,367.23913L412.85239,366.75908L413.09242,366.75908L413.09242,366.51906L413.81251,366.51906L413.81251,366.03901
				L414.53261,366.03901L414.53261,365.79898L414.77264,365.79898L414.77264,365.55895L415.49273,365.55895L415.49273,365.0789L
				415.97279,365.0789L415.97279,364.83888L416.69288,364.83888L416.69288,364.35883L416.93291,364.35883L416.93291,364.1188L417.653,364.1188
				L417.653,363.63875L417.89303,363.63875L417.89303,363.39872L418.61312,363.39872L418.61312,363.1587L419.33322,363.1587L419.33322,362.67865
				L420.05331,362.67865L420.05331,362.43862L420.29334,362.43862L420.29334,361.95857L421.01343,361.95857L421.01343,361.71855
				L421.73352,361.71855L421.73352,361.23849L422.45361,361.23849L422.45361,360.99847L422.69364,360.99847L422.69364,360.51842
				L423.41373,360.51842L423.41373,360.27839L424.13382,360.27839L424.13382,360.03837L424.37385,360.03837L424.37385,359.55832
				L425.09395,359.55832L425.09395,359.31829L425.81404,359.31829L425.81404,358.83824L426.53413,358.83824L426.53413,358.59821
				L426.77416,358.59821L426.77416,358.11816L427.49425,358.11816L427.49425,357.87814L428.21434,357.87814L428.21434,357.63811
				L428.93443,357.63811L428.93443,357.15806L429.65452,357.15806L429.65452,356.91803L430.37462,356.91803L430.37462,356.43798
				L430.61465,356.43798L430.61465,356.19796L431.33474,356.19796L431.33474,355.71791L432.05483,355.71791L432.05483,355.47788
				L432.77492,355.47788L432.77492,355.23785L433.49501,355.23785L433.49501,354.7578L434.2151,354.7578L434.2151,354.51778L434.69516,354.51778
				L434.69516,354.03773L435.41526,354.03773L435.41526,353.7977L436.13535,353.7977L436.13535,353.31765L436.85544,353.31765L436.85544,353.07762
				L437.57553,353.07762L437.57553,352.8376L438.29562,352.8376L438.29562,352.35755L439.25574,352.35755L439.25574,352.11752L440.69593,352.11752
				L440.69593,351.63747L441.41602,351.63747L441.41602,351.39745L441.65605,351.39745L441.65605,352.11752L442.13611,352.11752
				L442.13611,353.7977L442.37614,353.7977L442.37614,355.71791L442.61617,355.71791L442.61617,357.63811L443.09623,357.63811L443.09623,359.55832
				L443.33626,359.55832L443.33626,361.23849L443.81632,361.23849L443.81632,363.39872L444.05635,363.39872L444.05635,365.0789L
				444.53641,365.0789L444.53641,367.23913L444.77644,367.23913L444.77644,368.91931L445.01647,368.91931L445.01647,370.83952L445.49654,370.83952
				L445.49654,372.75972L445.73657,372.75972L445.73657,374.67993L446.21663,374.67993L446.21663,375.15998L446.45666,375.15998
				L446.45666,375.4L447.17675,375.4L447.17675,379.48044L447.41678,379.48044L447.41678,385.7211L447.89684,385.7211L447.89684,391.96177
				L448.13687,391.96177L448.13687,394.60205L451.01724,394.60205L451.01724,394.36202L462.77873,394.36202L462.77873,393.88197
				L474.06016,393.88197L474.06016,393.64195L485.34159,393.64195L485.34159,393.40192L494.94281,393.40192L494.94281,392.92187
				L497.34311,392.92187L497.34311,393.40192L498.7833,393.40192L498.7833,393.64195L500.22348,393.64195L500.22348,393.88197L501.42363,393.88197
				L501.42363,394.36202L503.34388,394.36202L503.34388,394.60205L504.54403,394.60205L504.54403,395.0821L505.98421,395.0821L505.98421,395.32213
				L507.66442,395.32213L507.66442,395.80218L509.10461,395.80218L509.10461,396.0422L510.78482,396.0422L510.78482,396.28223L512.225,396.28223
				L512.225,396.76228L513.66519,396.76228L513.66519,397.00231L514.86534,397.00231L514.86534,397.48236L516.54555,397.48236L516.54555,397.72238
				L517.98573,397.72238L517.98573,398.20243L519.42592,398.20243L519.42592,398.44246L520.8661,398.44246L520.8661,398.92251L522.06625,398.92251
				L522.06625,399.16254L523.2664,399.16254L523.2664,399.40256L524.22653,399.40256L524.22653,399.88261L525.18665,399.88261L525.18665,400.12264
				L526.3868,400.12264L526.3868,400.60269L526.86686,400.60269L526.86686,400.84271L528.06701,400.84271L528.06701,401.32277L528.78711,401.32277
				L528.78711,401.56279L529.74723,401.56279L529.74723,401.80282L530.70735,401.80282L530.70735,402.28287L531.9075,402.28287L
				531.9075,402.52289L532.86762,402.52289L532.86762,403.00294L533.82774,403.00294L533.82774,403.24297L534.78787,403.24297L534.78787,403.72302
				L536.22805,403.72302L536.22805,403.96305L537.18817,403.96305L537.18817,404.20307L538.38832,404.20307L538.38832,404.68312
				L539.34845,404.68312L539.34845,404.92315L540.30857,404.92315L540.30857,405.4032L541.50872,405.4032L541.50872,403.96305L541.74875,403.96305
				L541.74875,402.52289L542.22881,402.52289L542.22881,401.32277L542.46884,401.32277L542.46884,399.88261L542.70887,399.88261
				L542.70887,398.44246L543.18893,398.44246L543.18893,397.00231L543.42896,397.00231L543.42896,395.32213L543.90902,395.32213
				L543.90902,393.88197L544.14905,393.88197L544.14905,392.68185L544.62912,392.68185L544.62912,391.24169L544.86915,391.24169
				L544.86915,389.80154L545.10918,389.80154L545.10918,388.60141L545.58924,388.60141L545.58924,387.16126L545.82927,387.16126
				L545.82927,385.7211L546.30933,385.7211L546.30933,384.28095L546.54936,384.28095L546.54936,382.60077L547.02942,382.60077L547.02942,381.16062
				L547.26945,381.16062L547.26945,379.96049L547.50948,379.96049L547.50948,378.52034L547.98954,378.52034L547.98954,377.08018
				L548.22957,377.08018L548.22957,375.88005L548.70963,375.88005L548.70963,375.15998L548.94966,375.15998L548.94966,373.23977
				L549.42972,373.23977L549.42972,400.84271L548.94966,400.84271L548.94966,402.28287L548.70963,402.28287L548.70963,403.24297
				L548.22957,403.24297L548.22957,404.20307L547.98954,404.20307L547.98954,405.4032L547.50948,405.4032L547.50948,406.3633L547.26945,406.3633
				L547.26945,407.80346L547.02942,407.80346L547.02942,408.76356L546.54936,408.76356L546.54936,409.72366L546.30933,409.72366
				L546.30933,410.92379L545.82927,410.92379L545.82927,412.12392L545.58924,412.12392L545.58924,413.32404L545.10918,413.32404
				L545.10918,414.28415L544.86915,414.28415L544.86915,415.24425L544.62912,415.24425L544.62912,416.6844L544.14905,416.6844L544.14905,417.40448
				L543.90902,417.40448L543.90902,418.12456L543.42896,418.12456L543.42896,418.84463L543.18893,418.84463L543.18893,419.80474
				L542.70887,419.80474L542.70887,420.76484L542.46884,420.76484L542.46884,421.96497L542.22881,421.96497L542.22881,422.92507
				L541.74875,422.92507L541.74875,423.64514L541.50872,423.64514L541.50872,424.60525L541.02866,424.60525L541.02866,425.56535
				L540.78863,425.56535L540.78863,426.76548L540.30857,426.76548L540.30857,427.72558L540.06854,427.72558L540.06854,429.16573
				L540.78863,429.16573L540.78863,429.40576L541.02866,429.40576L541.02866,429.64578L541.74875,429.64578L541.74875,430.12584
				L542.46884,430.12584L542.46884,430.36586L543.18893,430.36586L543.18893,430.84591L543.42896,430.84591L543.42896,431.08594
				L544.14905,431.08594L544.14905,431.56599L544.86915,431.56599L544.86915,431.80601L545.58924,431.80601L545.58924,432.28607
				L545.82927,432.28607L545.82927,432.52609L546.54936,432.52609L546.54936,432.76612L547.26945,432.76612L547.26945,433.24617
				L547.98954,433.24617L547.98954,433.48619L548.22957,433.48619L548.22957,433.96624L548.94966,433.96624L548.94966,434.20627
				L549.42972,434.20627L549.42972,453.40832L548.94966,453.40832L548.94966,454.12839L548.70963,454.12839L548.70963,454.84847
				L548.22957,454.84847L548.22957,455.32852L547.98954,455.32852L547.98954,455.80857L547.50948,455.80857L547.50948,456.52865
				L547.26945,456.52865L547.26945,457.24873L547.02942,457.24873L547.02942,457.9688L546.54936,457.9688L546.54936,458.68888L546.30933,458.68888
				L546.30933,459.40896L545.82927,459.40896L545.82927,460.12903L545.58924,460.12903L545.58924,460.60908L545.10918,460.60908
				L545.10918,461.32916L544.86915,461.32916L544.86915,461.80921L544.62912,461.80921L544.62912,462.52929L544.14905,462.52929
				L544.14905,463.00934L543.90902,463.00934L543.90902,463.72942L543.42896,463.72942L543.42896,464.44949L543.18893,464.44949
				L543.18893,465.16957L542.70887,465.16957L542.70887,465.88965L542.46884,465.88965L542.46884,466.60972L542.22881,466.60972
				L542.22881,467.3298L541.74875,467.3298L541.74875,468.2899L541.50872,468.2899L541.50872,469.00998L541.02866,469.00998L541.02866,469.97008
				L540.78863,469.97008L540.78863,470.93018L540.30857,470.93018L540.30857,471.65026L540.06854,471.65026L540.06854,472.85039
				L539.58848,472.85039L539.58848,473.81049L539.34845,473.81049L539.34845,474.77059L539.10841,474.77059L539.10841,475.49067
				L538.62835,475.49067L538.62835,476.93082L539.10841,476.93082L539.10841,477.6509L539.34845,477.6509L539.34845,477.89092L539.58848,477.89092
				L539.58848,478.37098L540.06854,478.37098L540.06854,478.611L540.78863,478.611L540.78863,478.85103L541.02866,478.85103L541.02866,479.33108
				L541.50872,479.33108L541.50872,479.5711L542.22881,479.5711L542.22881,480.05116L542.46884,480.05116L542.46884,480.29118L543.18893,480.29118
				L543.18893,480.77123L543.42896,480.77123L543.42896,481.01126L544.14905,481.01126L544.14905,481.25128L544.62912,481.25128
				L544.62912,481.97136L544.86915,481.97136L544.86915,483.17149L545.10918,483.17149L545.10918,484.37162L545.58924,484.37162
				L545.58924,485.81177L545.82927,485.81177L545.82927,486.77187L546.30933,486.77187L546.30933,497.09297L547.02942,497.09297
				L547.02942,497.57302L547.98954,497.57302L547.98954,497.81305L548.94966,497.81305L548.94966,498.2931L549.42972,498.2931L549.42972,565.26024
				L78.24993,565.26024L78.24993,565.02021L78.72999,565.02021L78.72999,564.54016L79.45008,564.54016L79.45008,564.30013L80.17017,564.30013
				L80.17017,563.82008L80.89027,563.82008L80.89027,563.58006L81.61036,563.58006L81.61036,563.1L82.33045,563.1L82.33045,562.85998
				L82.57048,562.85998L82.57048,562.61995L83.29057,562.61995L83.29057,562.1399L84.01066,562.1399L84.01066,561.89988L84.73075,561.89988
				L84.73075,561.41983L85.45084,561.41983L85.45084,561.1798L86.17094,561.1798L86.17094,560.69975L86.651,560.69975L86.651,560.45972
				L87.37109,560.45972L87.37109,560.2197L88.09118,560.2197L88.09118,559.73965L88.81127,559.73965L88.81127,559.49962L89.53136,559.49962
				L89.53136,559.01957L90.25145,559.01957L90.25145,558.77954L90.49148,558.77954L90.49148,558.29949L91.21158,558.29949L91.21158,558.05947
				L91.93167,558.05947L91.93167,557.81944L92.89179,557.81944L92.89179,557.33939L93.61188,557.33939L93.61188,557.09937L94.33197,557.09937
				L94.33197,556.61931L95.05206,556.61931L95.05206,556.37929L95.77215,556.37929L95.77215,555.89924L96.73228,555.89924L96.73228,555.65921
				L97.45237,555.65921L97.45237,555.17916L98.17246,555.17916L98.17246,554.93914L98.89255,554.93914L98.89255,554.69911L99.37261,554.69911
				L99.37261,554.21906L100.57276,554.21906L100.57276,553.97903L101.29285,553.97903L101.29285,553.49898L101.77292,553.49898L
				101.77292,553.25896L102.49301,553.25896L102.49301,552.77891L103.2131,552.77891L103.2131,552.53888L104.17322,552.53888L104.17322,552.29885
				L104.89331,552.29885L104.89331,551.8188L105.6134,551.8188L105.6134,551.57878L106.33349,551.57878L106.33349,551.09873L107.05359,551.09873
				L107.05359,550.8587L108.01371,550.8587L108.01371,550.37865L108.7338,550.37865L108.7338,550.13862L109.45389,550.13862L109.45389,549.8986
				L110.41401,549.8986L110.41401,549.41855L111.61416,549.41855L111.61416,549.17852L112.09423,549.17852L112.09423,548.69847L
				113.29438,548.69847L113.29438,548.45844L114.01447,548.45844L114.01447,547.97839L115.21462,547.97839L115.21462,547.73837L
				116.6548,547.73837L116.6548,547.49834L118.09499,547.49834L118.09499,547.01829L119.05511,547.01829L119.05511,546.77827L120.01523,546.77827
				L120.01523,546.29821L120.73532,546.29821L120.73532,546.05819L121.45541,546.05819L121.45541,545.57814L122.1755,545.57814L
				122.1755,545.33811L122.8956,545.33811L122.8956,544.85806L123.61569,544.85806L123.61569,544.61804L123.85572,544.61804L123.85572,544.37801
				L124.57581,544.37801L124.57581,543.89796L125.2959,543.89796L125.2959,543.65793L126.01599,543.65793L126.01599,543.17788L126.73608,543.17788
				L126.73608,542.93786L127.21614,542.93786L127.21614,542.45781L127.93624,542.45781L127.93624,542.21778L128.4163,542.21778L
				128.4163,541.97775L129.13639,541.97775L129.13639,541.4977L129.61645,541.4977L129.61645,541.25768L130.33654,541.25768L130.33654,540.77763
				L131.05663,540.77763L131.05663,540.5376L131.77672,540.5376L131.77672,540.05755L132.49681,540.05755L132.49681,539.81752L133.21691,539.81752
				L133.21691,539.5775L133.45694,539.5775L133.45694,539.09745L134.17703,539.09745L134.17703,538.85742L134.89712,538.85742L134.89712,538.37737
				L135.61721,538.37737L135.61721,538.13734L136.3373,538.13734L136.3373,537.65729L137.05739,537.65729L137.05739,537.41727L137.53745,537.41727
				L137.53745,537.17724L138.01752,537.17724L138.01752,536.69719L138.73761,536.69719L138.73761,536.45717L139.4577,536.45717L
				139.4577,535.97711L139.93776,535.97711L139.93776,535.73709L140.65785,535.73709L140.65785,535.25704L141.37794,535.25704L141.37794,535.01701
				L142.09803,535.01701L142.09803,534.77699L142.81812,534.77699L142.81812,534.29694L143.05815,534.29694L143.05815,534.05691
				L143.77825,534.05691L143.77825,533.57686L144.49834,533.57686L144.49834,533.33683L145.21843,533.33683L145.21843,532.85678
				L145.93852,532.85678L145.93852,532.61676L146.65861,532.61676L146.65861,532.13671L147.3787,532.13671L147.3787,531.89668L147.61873,531.89668
				L147.61873,531.65665L148.33883,531.65665L148.33883,531.1766L149.05892,531.1766L149.05892,530.93658L149.77901,530.93658L149.77901,530.45653
				L150.25907,530.45653L150.25907,530.2165L150.97916,530.2165L150.97916,529.73645L151.69925,529.73645L151.69925,529.49642L152.41934,529.49642
				L152.41934,529.2564L152.65937,529.2564L152.65937,528.77635L153.37946,528.77635L153.37946,528.53632L154.09956,528.53632L154.09956,528.05627
				L154.81965,528.05627L154.81965,527.81625L155.53974,527.81625L155.53974,527.33619L156.25983,527.33619L156.25983,527.09617
				L156.97992,527.09617L156.97992,526.85614L157.21995,526.85614L157.21995,526.37609L157.94004,526.37609L157.94004,526.13607
				L157.70001,526.13607L157.70001,525.65601L157.21995,525.65601L157.21995,525.41599L156.97992,525.41599L156.97992,524.69591
				L156.49986,524.69591L156.49986,524.45589L156.25983,524.45589L156.25983,523.97584L155.77977,523.97584L155.77977,523.73581
				L155.53974,523.73581L155.53974,523.25576L155.29971,523.25576L155.29971,522.53568L154.81965,522.53568L154.81965,522.29566
				L154.57962,522.29566L154.57962,521.81561L154.09956,521.81561L154.09956,521.57558L153.85953,521.57558L153.85953,521.33555
				L153.37946,521.33555L153.37946,520.8555L153.13943,520.8555L153.13943,520.13543L152.65937,520.13543L152.65937,519.8954L152.17931,519.8954
				L152.17931,519.41535L151.69925,519.41535L151.69925,519.17532L151.45922,519.17532L151.45922,518.9353L150.73913,518.9353L150.73913,518.45525
				L150.25907,518.45525L150.25907,518.21522L149.77901,518.21522L149.77901,517.73517L149.29895,517.73517L149.29895,517.49515
				L149.05892,517.49515L149.05892,517.01509L148.33883,517.01509L148.33883,516.77507L147.85876,516.77507L147.85876,516.53504
				L147.61873,516.53504L147.61873,516.05499L146.89864,516.05499L146.89864,515.81497L146.65861,515.81497L146.65861,515.33492
				L145.93852,515.33492L145.93852,515.09489L145.21843,515.09489L145.21843,514.61484L144.9784,514.61484L144.9784,514.37481L144.25831,514.37481
				L144.25831,514.13479L143.53822,514.13479L143.53822,513.65474L143.05815,513.65474L143.05815,513.41471L142.57809,513.41471
				L142.57809,512.93466L142.09803,512.93466L142.09803,512.69463L141.37794,512.69463L141.37794,512.21458L140.65785,512.21458
				L140.65785,511.97456L140.41782,511.97456L140.41782,511.73453L139.69773,511.73453L139.69773,511.25448L139.4577,511.25448L
				139.4577,511.01445L138.73761,511.01445L138.73761,510.5344L138.01752,510.5344L138.01752,510.29438L137.53745,510.29438L137.53745,509.81433
				L137.05739,509.81433L137.05739,509.5743L136.57733,509.5743L136.57733,509.09425L135.85724,509.09425L135.85724,508.85422L135.13715,508.85422
				L135.13715,508.6142L134.89712,508.6142L134.89712,508.13415L134.17703,508.13415L134.17703,507.89412L133.45694,507.89412L133.45694,507.41407
				L133.21691,507.41407L133.21691,507.17405L132.49681,507.17405L132.49681,506.69399L132.25678,506.69399L132.25678,506.45397
				L131.53669,506.45397L131.53669,506.21394L130.8166,506.21394L130.8166,505.73389L130.33654,505.73389L130.33654,505.49387L129.61645,505.49387
				L129.61645,505.01382L129.37642,505.01382L129.37642,504.77379L128.65633,504.77379L128.65633,504.29374L127.93624,504.29374
				L127.93624,504.05371L127.69621,504.05371L127.69621,503.81369L126.97611,503.81369L126.97611,503.33364L126.25602,503.33364
				L126.25602,503.09361L126.01599,503.09361L126.01599,502.61356L125.2959,502.61356L125.2959,502.37353L124.81584,502.37353L124.81584,501.89348
				L124.33578,501.89348L124.33578,501.65346L123.61569,501.65346L123.61569,501.41343L123.13563,501.41343L123.13563,500.93338
				L122.41554,500.93338L122.41554,500.69335L122.1755,500.69335L122.1755,500.2133L121.45541,500.2133L121.45541,499.97328L120.73532,499.97328
				L120.73532,499.49323L120.49529,499.49323L120.49529,499.2532L119.7752,499.2532L119.7752,498.77315L119.29514,498.77315L119.29514,498.53312
				L118.81508,498.53312L118.81508,498.2931L118.09499,498.2931L118.09499,497.81305L117.61493,497.81305L117.61493,497.57302L116.89483,497.57302
				L116.89483,497.09297L116.41477,497.09297L116.41477,496.85295L115.93471,496.85295L115.93471,496.37289L115.21462,496.37289
				L115.21462,496.13287L114.97459,496.13287L114.97459,495.89284L114.2545,495.89284L114.2545,495.41279L113.53441,495.41279L113.53441,495.17277
				L113.29438,495.17277L113.29438,494.69272L112.57429,494.69272L112.57429,494.45269L112.09423,494.45269L112.09423,493.97264
				L111.61416,493.97264L111.61416,493.73261L110.89407,493.73261L110.89407,493.49259L110.41401,493.49259L110.41401,493.01254
				L109.69392,493.01254L109.69392,492.77251L109.45389,492.77251L109.45389,492.29246L108.7338,492.29246L108.7338,492.05243L108.01371,492.05243
				L108.01371,491.57238L107.77368,491.57238L107.77368,491.33236L107.05359,491.33236L107.05359,491.09233L106.33349,491.09233
				L106.33349,490.61228L106.09346,490.61228L106.09346,490.37225L105.37337,490.37225L105.37337,489.8922L104.89331,489.8922L104.89331,489.65218
				L104.17322,489.65218L104.17322,489.17213L103.69316,489.17213L103.69316,488.9321L103.2131,488.9321L103.2131,488.69208L102.49301,488.69208
				L102.49301,488.21202L102.25298,488.21202L102.25298,487.972L101.53289,487.972L101.53289,487.49195L100.81279,487.49195L100.81279,487.25192
				L100.57276,487.25192L100.57276,486.77187L99.85267,486.77187L99.85267,486.53185L99.37261,486.53185L99.37261,486.05179L98.89255,486.05179
				L98.89255,485.81177L98.17246,485.81177L98.17246,485.57174L97.6924,485.57174L97.6924,485.09169L96.97231,485.09169L96.97231,484.85167
				L96.25222,484.85167L96.25222,484.37162L96.01218,484.37162L96.01218,484.13159L95.29209,484.13159L95.29209,483.65154L95.05206,483.65154
				L95.05206,483.41151L94.33197,483.41151L94.33197,483.17149L93.61188,483.17149L93.61188,482.69144L93.37185,482.69144L93.37185,482.45141
				L92.65176,482.45141L92.65176,481.97136L92.1717,481.97136L92.1717,481.73133L91.45161,481.73133L91.45161,481.25128L90.97155,481.25128
				L90.97155,481.01126L90.49148,481.01126L90.49148,480.77123L89.77139,480.77123L89.77139,480.29118L89.53136,480.29118L89.53136,480.05116
				L88.81127,480.05116L88.81127,479.5711L88.09118,479.5711L88.09118,479.33108L87.85115,479.33108L87.85115,478.85103L87.13106,478.85103
				L87.13106,478.611L86.41097,478.611L86.41097,478.37098L86.17094,478.37098L86.17094,477.89092L85.45084,477.89092L85.45084,477.6509
				L84.97078,477.6509L84.97078,477.17085L84.25069,477.17085L84.25069,476.93082L83.5306,476.93082L83.5306,476.45077L83.29057,476.45077
				L83.29057,476.21075L82.57048,476.21075L82.57048,475.73069L82.33045,475.73069L82.33045,475.49067L81.61036,475.49067L81.61036,475.25064
				L80.89027,475.25064L80.89027,474.77059L80.65024,474.77059L80.65024,474.53057L79.93014,474.53057L79.93014,474.05052L79.21005,474.05052
				L79.21005,473.81049L78.72999,473.81049L78.72999,473.33044L78.24993,473.33044L78.24993,473.09041L77.76987,473.09041L77.76987,472.85039
				L77.04978,472.85039L77.04978,472.37034L76.32969,472.37034L76.32969,472.13031L76.08966,472.13031L76.08966,471.65026L75.36957,471.65026
				L75.36957,471.41023L75.12953,471.41023L75.12953,470.69016L75.36957,470.69016L75.36957,469.00998L75.84963,469.00998L75.84963,468.52993
				L76.08966,468.52993L76.08966,464.44949"/>
		</g>
</g></svg>