<?xml version="1.0" encoding="utf-8" standalone="no"?>
<!-- Creator: ESRI ArcMap 10.0.0.2414 -->
<!DOCTYPE svg PUBLIC "-//W3C//DTD SVG 1.1//EN"  "http://www.w3.org/Graphics/SVG/1.1/DTD/svg11.dtd">
<svg width="381.829529188pt" height="741.1872776pt" viewBox="106.836415406 45.48194658 381.829529188 741.1872776" enable-background="new 106.836415406 45.48194658 381.829529188 741.1872776"
	version="1.1" xmlns="http://www.w3.org/2000/svg" xmlns:xlink="http://www.w3.org/1999/xlink" >
	<g id="Couches">
		<g id="cont_2">
			<path clip-path="url(#SVG_CP_2)" fill="none" stroke="#999999" stroke-width="0.96012" stroke-miterlimit="10" stroke-linecap="round" stroke-linejoin="round" d="
				M354.28496,253.94706L354.04493,253.94706L354.04493,253.70704L353.56487,253.70704L353.56487,252.74693L353.32484,252.74693
				L353.32484,252.02686L353.08481,252.02686L353.08481,251.54681L352.84478,251.54681L352.84478,250.82673L352.60475,250.82673
				L352.60475,250.10665L352.36472,250.10665L352.36472,249.38658L352.12469,249.38658L352.12469,248.90652L351.88466,248.90652
				L351.88466,248.18645L351.64463,248.18645L351.64463,247.7064L351.40459,247.7064L351.40459,246.74629L351.16456,246.74629L351.16456,246.02622
				L350.92453,246.02622L350.92453,245.54617L350.44447,245.54617L350.44447,244.82609L350.20444,244.82609L350.20444,244.34604
				L349.96441,244.34604L349.96441,243.38594L349.72438,243.38594L349.72438,242.90588L349.48435,242.90588L349.48435,242.18581
				L349.24432,242.18581L349.24432,241.70576L349.00429,241.70576L349.00429,240.74565L348.76426,240.74565L348.76426,240.02558
				L348.52423,240.02558L348.52423,239.54553L348.2842,239.54553L348.2842,238.82545L348.04417,238.82545L348.04417,238.3454L347.56411,238.3454
				L347.56411,237.3853L347.32408,237.3853L347.32408,236.90525L347.08405,236.90525L347.08405,236.18517L346.84402,236.18517L346.84402,235.70512
				L346.60399,235.70512L346.60399,234.74502L346.36396,234.74502L346.36396,234.02494L346.12392,234.02494L346.12392,233.54489
				L345.88389,233.54489L345.88389,232.82481L345.64386,232.82481L345.64386,232.34476L345.40383,232.34476L345.40383,231.38466
				L345.1638,231.38466L345.1638,230.90461L344.92377,230.90461L344.92377,230.18453L344.44371,230.18453L344.44371,229.70448L344.20368,229.70448
				L344.20368,228.74438L343.96365,228.74438L343.96365,228.0243L343.72362,228.0243L343.72362,227.54425L343.48359,227.54425L343.48359,226.82417
				L343.24356,226.82417L343.24356,226.34412L343.00353,226.34412L343.00353,225.38402L342.7635,225.38402L342.7635,224.90397L342.52347,224.90397
				L342.52347,224.18389L342.28344,224.18389L342.28344,223.70384L342.04341,223.70384L342.04341,222.98376L341.80338,222.98376
				L341.80338,222.26369L341.32332,222.26369L341.32332,221.54361L341.08328,221.54361L341.08328,221.06356L340.84325,221.06356
				L340.84325,220.34348L340.60322,220.34348L340.60322,219.6234L340.36319,219.6234L340.36319,218.90333L340.12316,218.90333L340.12316,218.42328
				L339.88313,218.42328L339.88313,217.7032L339.6431,217.7032L339.6431,217.22315L339.40307,217.22315L339.40307,216.26305L339.16304,216.26305
				L339.16304,215.78299L338.92301,215.78299L338.92301,215.06292L338.68298,215.06292L338.68298,214.34284L338.20292,214.34284
				L338.20292,213.86279L337.96289,213.86279L337.96289,212.90269L337.72286,212.90269L337.72286,212.42264L337.48283,212.42264
				L337.48283,211.70256L337.2428,211.70256L337.2428,211.22251L337.00277,211.22251L337.00277,210.26241L336.76274,210.26241L336.76274,209.78236
				L336.52271,209.78236L336.52271,209.06228L336.28268,209.06228L336.28268,208.58223L336.04265,208.58223L336.04265,207.86215
				L335.80261,207.86215L335.80261,207.14207L335.32255,207.14207L335.32255,206.422L335.08252,206.422L335.08252,205.94195L334.84249,205.94195
				L334.84249,205.22187L334.60246,205.22187L334.60246,204.74182L334.36243,204.74182L334.36243,203.78172L334.1224,203.78172L
				334.1224,203.30166L333.88237,203.30166L333.88237,202.58159L333.64234,202.58159L333.64234,202.10154L333.40231,202.10154L333.40231,201.14143
				L333.16228,201.14143L333.16228,200.42136L332.92225,200.42136L332.92225,199.94131L332.68222,199.94131L332.68222,199.22123
				L332.20216,199.22123L332.20216,198.74118L331.96213,198.74118L331.96213,197.78108L331.7221,197.78108L331.7221,197.30103L331.48207,197.30103
				L331.48207,196.58095L331.24204,196.58095L331.24204,196.1009L331.00201,196.1009L331.00201,195.14079L330.76198,195.14079L330.76198,194.66074
				L330.52194,194.66074L330.52194,193.94067L330.28191,193.94067L330.28191,193.46062L330.04188,193.46062L330.04188,192.74054
				L329.80185,192.74054L329.80185,192.02046L329.56182,192.02046L329.56182,191.30039L329.08176,191.30039L329.08176,190.82033
				L328.84173,190.82033L328.84173,190.10026L328.6017,190.10026L328.6017,189.62021L328.36167,189.62021L328.36167,188.6601L328.12164,188.6601
				L328.12164,188.18005L327.88161,188.18005L327.88161,187.45998L327.64158,187.45998L327.64158,186.97993L327.40155,186.97993
				L327.40155,186.01982L327.16152,186.01982L327.16152,185.29975L326.92149,185.29975L326.92149,184.8197L326.68146,184.8197L326.68146,184.09962
				L326.2014,184.09962L326.2014,183.61957L325.96137,183.61957L325.96137,182.65946L325.72134,182.65946L325.72134,182.17941L325.48131,182.17941
				L325.48131,181.45934L325.24127,181.45934L325.24127,180.97929L325.00124,180.97929L325.00124,180.25921L324.76121,180.25921
				L324.76121,179.53913L324.52118,179.53913L324.52118,178.81906L324.28115,178.81906L324.28115,178.339L324.04112,178.339L324.04112,177.61893
				L323.80109,177.61893L323.80109,177.13888L323.56106,177.13888L323.56106,176.17877L323.081,176.17877L323.081,175.69872L322.84097,175.69872
				L322.84097,174.97865L322.60094,174.97865L322.60094,174.4986L322.36091,174.4986L322.36091,173.77852L322.12088,173.77852L322.12088,173.29847
				L321.88085,173.29847L321.88085,172.57839L321.64082,172.57839L321.64082,172.09834L321.40079,172.09834L321.40079,171.61829
				L321.16076,171.61829L321.16076,171.13824L320.92073,171.13824L320.92073,170.17813L320.6807,170.17813L320.6807,169.69808L320.44067,169.69808
				L320.44067,169.21803L319.9606,169.21803L319.9606,168.73798L319.72057,168.73798L319.72057,168.0179L319.48054,168.0179L319.48054,167.29783
				L319.24051,167.29783L319.24051,166.81778L319.00048,166.81778L319.00048,166.0977L318.76045,166.0977L318.76045,165.61765L318.52042,165.61765
				L318.52042,165.1376L318.28039,165.1376L318.28039,164.41752L318.04036,164.41752L318.04036,163.69744L317.80033,163.69744L317.80033,163.21739
				L317.5603,163.21739L317.5603,162.73734L317.32027,162.73734L317.32027,162.25729L316.84021,162.25729L316.84021,161.29719L316.60018,161.29719
				L316.60018,160.81714L316.36015,160.81714L316.36015,160.33709L316.12012,160.33709L316.12012,159.85704L315.88009,159.85704
				L315.88009,159.13696L315.64006,159.13696L315.64006,158.41688L315.40003,158.41688L315.40003,157.93683L315.16,157.93683L315.16,157.21675
				L314.91996,157.21675L314.91996,156.7367L314.67993,156.7367L314.67993,156.25665L314.4399,156.25665L314.4399,155.7766L313.95984,155.7766
				L313.95984,154.8165L313.71981,154.8165L313.71981,154.33645L313.47978,154.33645L313.47978,153.8564L313.23975,153.8564L313.23975,153.37634
				L312.99972,153.37634L312.99972,152.41624L312.75969,152.41624L312.75969,151.93619L312.51966,151.93619L312.51966,151.45614
				L312.27963,151.45614L312.27963,150.97609L312.0396,150.97609L312.0396,150.25601L311.79957,150.25601L311.79957,149.77596L311.55954,149.77596
				L311.55954,149.05588L311.31951,149.05588L311.31951,148.33581L310.83945,148.33581L310.83945,147.85576L310.59942,147.85576
				L310.59942,147.3757L310.35939,147.3757L310.35939,146.89565L310.11936,146.89565L310.11936,145.93555L309.87933,145.93555L309.87933,145.4555
				L309.63929,145.4555L309.63929,144.97545L309.39926,144.97545L309.39926,144.4954L309.15923,144.4954L309.15923,143.77532L308.9192,143.77532
				L308.9192,143.05524L308.67917,143.05524L308.67917,142.81522L307.71905,142.81522L307.71905,143.05524L306.99896,143.05524L
				306.99896,143.29527L306.5189,143.29527L306.5189,143.77532L305.79881,143.77532L305.79881,144.01535L305.07872,144.01535L305.07872,144.25537
				L304.11859,144.25537L304.11859,144.4954L303.63853,144.4954L303.63853,144.73542L302.91844,144.73542L302.91844,144.97545L302.19835,144.97545
				L302.19835,145.21547L301.47826,145.21547L301.47826,145.4555L300.75817,145.4555L300.75817,145.69553L300.27811,145.69553L300.27811,145.93555
				L299.55802,145.93555L299.55802,146.17558L299.07795,146.17558L299.07795,146.65563L298.11783,146.65563L298.11783,146.89565
				L297.63777,146.89565L297.63777,147.13568L296.91768,147.13568L296.91768,147.3757L296.43762,147.3757L296.43762,147.61573L295.95756,147.61573
				L295.95756,147.85576L294.99744,147.85576L294.99744,148.09578L294.51738,148.09578L294.51738,148.33581L293.79728,148.33581
				L293.79728,148.57583L293.31722,148.57583L293.31722,148.81586L292.59713,148.81586L292.59713,149.05588L292.11707,149.05588
				L292.11707,149.29591L291.63701,149.29591L291.63701,149.77596L291.39698,149.77596L291.39698,150.01599L290.91692,150.01599
				L290.91692,150.25601L290.43686,150.25601L290.43686,150.49604L289.9568,150.49604L289.9568,150.73606L289.23671,150.73606L289.23671,150.97609
				L288.75664,150.97609L288.75664,151.21611L288.27658,151.21611L288.27658,151.45614L287.79652,151.45614L287.79652,151.69617
				L287.31646,151.69617L287.31646,151.93619L286.8364,151.93619L286.8364,152.17622L286.11631,152.17622L286.11631,152.41624L285.63625,152.41624
				L285.63625,152.89629L285.15619,152.89629L285.15619,153.13632L284.91616,153.13632L284.91616,153.37634L284.4361,153.37634L
				284.4361,153.61637L283.95604,153.61637L283.95604,153.8564L283.23594,153.8564L283.23594,154.09642L282.75588,154.09642L282.75588,154.33645
				L282.27582,154.33645L282.27582,154.57647L281.79576,154.57647L281.79576,154.8165L281.3157,154.8165L281.3157,155.05652L280.83564,155.05652
				L280.83564,155.29655L280.11555,155.29655L280.11555,155.7766L279.63549,155.7766L279.63549,156.01663L279.15543,156.01663L279.15543,156.25665
				L278.67537,156.25665L278.67537,156.49668L278.43533,156.49668L278.43533,156.7367L277.95527,156.7367L277.95527,156.97673L277.23518,156.97673
				L277.23518,157.21675L276.51509,157.21675L276.51509,157.45678L275.795,157.45678L275.795,157.6968L275.31494,157.6968L275.31494,157.93683
				L274.59485,157.93683L274.59485,158.17686L273.87476,158.17686L273.87476,157.6968L274.11479,157.6968L274.11479,157.21675L274.59485,157.21675
				L274.59485,156.7367L274.83488,156.7367L274.83488,156.49668L275.07491,156.49668L275.07491,156.01663L275.31494,156.01663L275.31494,155.29655
				L275.55497,155.29655L275.55497,155.05652L275.795,155.05652L275.795,154.8165L276.03503,154.8165L276.03503,154.57647L276.27506,154.57647
				L276.27506,154.09642L276.51509,154.09642L276.51509,153.8564L276.75512,153.8564L276.75512,153.61637L276.99515,153.61637L276.99515,153.37634
				L277.23518,153.37634L277.23518,153.13632L277.71524,153.13632L277.71524,152.89629L277.95527,152.89629L277.95527,152.41624
				L278.1953,152.41624L278.1953,151.93619L278.43533,151.93619L278.43533,151.21611L278.67537,151.21611L278.67537,150.49604L278.9154,150.49604
				L278.9154,150.01599L279.15543,150.01599L279.15543,149.05588L279.39546,149.05588L279.39546,148.57583L279.63549,148.57583L
				279.63549,147.85576L279.87552,147.85576L279.87552,147.13568L280.11555,147.13568L280.11555,146.65563L280.35558,146.65563L
				280.35558,145.69553L280.83564,145.69553L280.83564,144.97545L281.07567,144.97545L281.07567,144.25537L281.3157,144.25537L281.3157,143.77532
				L281.55573,143.77532L281.55573,142.81522L281.79576,142.81522L281.79576,142.33517L282.03579,142.33517L282.03579,141.61509
				L282.27582,141.61509L282.27582,141.13504L282.51585,141.13504L282.51585,140.89501L282.75588,140.89501L282.75588,140.65499
				L282.99591,140.65499L282.99591,139.93491L283.23594,139.93491L283.23594,139.69489L283.716,139.69489L283.716,139.45486L283.95604,139.45486
				L283.95604,139.21484L284.19607,139.21484L284.19607,138.97481L284.4361,138.97481L284.4361,138.73478L284.67613,138.73478L284.67613,138.49476
				L284.91616,138.49476L284.91616,138.25473L285.15619,138.25473L285.15619,138.01471L285.39622,138.01471L285.39622,137.53466
				L285.63625,137.53466L285.63625,137.05461L285.87628,137.05461L285.87628,136.81458L286.11631,136.81458L286.11631,136.57455
				L286.35634,136.57455L286.35634,136.33453L286.8364,136.33453L286.8364,136.0945L287.07643,136.0945L287.07643,135.85448L287.31646,135.85448
				L287.31646,135.61445L287.55649,135.61445L287.55649,135.37443L287.79652,135.37443L287.79652,135.1344L288.03655,135.1344L288.03655,134.89437
				L288.27658,134.89437L288.27658,134.65435L288.51661,134.65435L288.51661,134.41432L288.75664,134.41432L288.75664,133.93427
				L288.99668,133.93427L288.99668,133.69425L289.23671,133.69425L289.23671,133.45422L289.47674,133.45422L289.47674,133.2142L
				289.9568,133.2142L289.9568,132.97417L290.19683,132.97417L290.19683,132.73414L290.43686,132.73414L290.43686,132.49412L290.67689,132.49412
				L290.67689,132.25409L290.91692,132.25409L290.91692,132.01407L291.15695,132.01407L291.15695,131.77404L291.39698,131.77404
				L291.39698,131.53402L291.63701,131.53402L291.63701,131.05397L291.87704,131.05397L291.87704,130.81394L292.11707,130.81394
				L292.11707,130.57391L292.59713,130.57391L292.59713,130.33389L293.07719,130.33389L293.07719,130.09386L293.31722,130.09386
				L293.31722,129.85384L293.79728,129.85384L293.79728,129.61381L294.03731,129.61381L294.03731,129.37379L294.27735,129.37379
				L294.27735,129.13376L294.51738,129.13376L294.51738,128.89374L294.75741,128.89374L294.75741,128.65371L294.99744,128.65371
				L294.99744,128.41368L295.23747,128.41368L295.23747,127.93363L295.95756,127.93363L295.95756,127.69361L296.19759,127.69361
				L296.19759,127.45358L296.67765,127.45358L296.67765,127.21356L296.91768,127.21356L296.91768,126.97353L297.39774,126.97353
				L297.39774,126.73351L297.63777,126.73351L297.63777,126.49348L298.11783,126.49348L298.11783,126.25345L298.59789,126.25345
				L298.59789,126.01343L299.31798,126.01343L299.31798,125.7734L300.03808,125.7734L300.03808,125.53338L300.75817,125.53338L300.75817,125.29335
				L301.47826,125.29335L301.47826,124.8133L302.67841,124.8133L302.67841,124.57328L303.3985,124.57328L303.3985,124.33325L304.35862,124.33325
				L304.35862,124.09322L305.07872,124.09322L305.07872,123.8532L305.79881,123.8532L305.79881,123.61317L306.5189,123.61317L306.5189,123.37315
				L306.75893,123.37315L306.75893,123.13312L307.23899,123.13312L307.23899,122.8931L307.71905,122.8931L307.71905,122.65307L308.67917,122.65307
				L308.67917,122.41304L309.15923,122.41304L309.15923,122.17302L310.11936,122.17302L310.11936,121.69297L311.31951,121.69297
				L311.31951,121.45294L312.0396,121.45294L312.0396,121.21292L318.04036,121.21292L318.04036,120.97289L318.52042,120.97289L318.52042,121.21292
				L324.76121,121.21292L324.76121,121.45294L327.64158,121.45294L327.64158,121.69297L329.80185,121.69297L329.80185,122.17302
				L330.28191,122.17302L330.28191,122.41304L330.76198,122.41304L330.76198,122.65307L331.24204,122.65307L331.24204,122.8931L
				331.7221,122.8931L331.7221,123.13312L331.96213,123.13312L331.96213,123.37315L332.68222,123.37315L332.68222,123.61317L333.16228,123.61317
				L333.16228,123.8532L333.64234,123.8532L333.64234,124.09322L334.1224,124.09322L334.1224,124.33325L334.60246,124.33325L334.60246,124.57328
				L334.84249,124.57328L334.84249,124.8133L335.32255,124.8133L335.32255,125.29335L336.04265,125.29335L336.04265,125.53338L336.52271,125.53338
				L336.52271,125.7734L336.76274,125.7734L336.76274,126.01343L337.2428,126.01343L337.2428,126.25345L337.72286,126.25345L337.72286,126.49348
				L337.96289,126.49348L337.96289,126.73351L338.68298,126.73351L338.68298,126.97353L338.92301,126.97353L338.92301,127.21356
				L339.40307,127.21356L339.40307,127.45358L339.6431,127.45358L339.6431,127.69361L340.12316,127.69361L340.12316,127.93363L340.36319,127.93363
				L340.36319,128.41368L340.84325,128.41368L340.84325,128.65371L341.08328,128.65371L341.08328,128.89374L341.32332,128.89374
				L341.32332,129.13376L342.04341,129.13376L342.04341,129.37379L342.52347,129.37379L342.52347,129.61381L343.00353,129.61381
				L343.00353,129.85384L343.48359,129.85384L343.48359,130.09386L344.44371,130.09386L344.44371,130.33389L349.00429,130.33389
				L349.00429,130.57391L349.72438,130.57391L349.72438,130.81394L349.24432,130.81394L349.24432,131.05397L348.52423,131.05397
				L348.52423,131.53402L347.32408,131.53402L347.32408,131.77404L346.60399,131.77404L346.60399,132.01407L345.64386,132.01407
				L345.64386,132.25409L344.92377,132.25409L344.92377,132.49412L343.72362,132.49412L343.72362,132.73414L343.00353,132.73414
				L343.00353,132.97417L342.04341,132.97417L342.04341,133.2142L341.08328,133.2142L341.08328,133.45422L340.36319,133.45422L340.36319,133.69425
				L339.40307,133.69425L339.40307,133.93427L338.68298,133.93427L338.68298,134.41432L337.48283,134.41432L337.48283,134.65435
				L336.76274,134.65435L336.76274,134.89437L335.80261,134.89437L335.80261,135.1344L334.84249,135.1344L334.84249,135.37443L333.88237,135.37443
				L333.88237,135.61445L333.16228,135.61445L333.16228,135.85448L332.20216,135.85448L332.20216,136.0945L331.24204,136.0945L331.24204,136.33453
				L330.52194,136.33453L330.52194,136.57455L329.56182,136.57455L329.56182,136.81458L328.6017,136.81458L328.6017,137.05461L327.64158,137.05461
				L327.64158,137.53466L326.92149,137.53466L326.92149,137.77468L325.72134,137.77468L325.72134,138.01471L325.00124,138.01471
				L325.00124,138.25473L324.28115,138.25473L324.28115,138.49476L323.081,138.49476L323.081,138.73478L322.36091,138.73478L322.36091,138.97481
				L321.40079,138.97481L321.40079,139.21484L320.6807,139.21484L320.6807,139.45486L319.48054,139.45486L319.48054,139.69489L318.76045,139.69489
				L318.76045,139.93491L317.80033,139.93491L317.80033,140.17494L316.84021,140.17494L316.84021,140.65499L316.12012,140.65499
				L316.12012,140.89501L315.16,140.89501L315.16,141.13504L314.4399,141.13504L314.4399,141.37507L313.71981,141.37507L313.71981,142.09514
				L313.95984,142.09514L313.95984,142.57519L314.4399,142.57519L314.4399,143.29527L314.67993,143.29527L314.67993,144.01535L314.91996,144.01535
				L314.91996,144.73542L315.16,144.73542L315.16,145.21547L315.40003,145.21547L315.40003,145.93555L315.64006,145.93555L315.64006,146.89565
				L315.88009,146.89565L315.88009,147.3757L316.12012,147.3757L316.12012,148.09578L316.36015,148.09578L316.36015,148.57583L316.60018,148.57583
				L316.60018,149.29591L316.84021,149.29591L316.84021,150.01599L317.32027,150.01599L317.32027,150.73606L317.5603,150.73606L
				317.5603,151.21611L317.80033,151.21611L317.80033,151.93619L318.04036,151.93619L318.04036,152.41624L318.28039,152.41624L318.28039,153.37634
				L318.52042,153.37634L318.52042,153.8564L318.76045,153.8564L318.76045,154.57647L319.00048,154.57647L319.00048,155.05652L319.24051,155.05652
				L319.24051,156.01663L319.48054,156.01663L319.48054,156.49668L319.72057,156.49668L319.72057,157.21675L319.9606,157.21675L
				319.9606,157.6968L320.44067,157.6968L320.44067,158.41688L320.6807,158.41688L320.6807,159.13696L320.92073,159.13696L320.92073,159.85704
				L321.16076,159.85704L321.16076,160.33709L321.40079,160.33709L321.40079,161.05716L321.64082,161.05716L321.64082,161.53721
				L321.88085,161.53721L321.88085,162.49732L322.12088,162.49732L322.12088,163.21739L322.36091,163.21739L322.36091,163.69744
				L322.60094,163.69744L322.60094,164.41752L322.84097,164.41752L322.84097,165.1376L323.081,165.1376L323.081,165.85767L323.56106,165.85767
				L323.56106,166.33773L323.80109,166.33773L323.80109,167.0578L324.04112,167.0578L324.04112,167.53785L324.28115,167.53785L324.28115,168.49796
				L324.52118,168.49796L324.52118,168.97801L324.76121,168.97801L324.76121,169.45806L325.00124,169.45806L325.00124,170.17813
				L325.24127,170.17813L325.24127,170.65819L325.48131,170.65819L325.48131,171.61829L325.72134,171.61829L325.72134,172.09834
				L325.96137,172.09834L325.96137,172.81842L326.2014,172.81842L326.2014,173.29847L326.68146,173.29847L326.68146,174.25857L326.92149,174.25857
				L326.92149,174.73862L327.16152,174.73862L327.16152,175.4587L327.40155,175.4587L327.40155,175.93875L327.64158,175.93875L327.64158,176.65883
				L327.88161,176.65883L327.88161,177.3789L328.12164,177.3789L328.12164,178.09898L328.36167,178.09898L328.36167,178.57903L328.6017,178.57903
				L328.6017,179.05908L328.84173,179.05908L328.84173,179.77916L329.08176,179.77916L329.08176,180.49923L329.56182,180.49923L
				329.56182,181.21931L329.80185,181.21931L329.80185,181.69936L330.04188,181.69936L330.04188,182.41944L330.28191,182.41944L
				330.28191,182.89949L330.52194,182.89949L330.52194,183.85959L330.76198,183.85959L330.76198,184.33964L331.00201,184.33964L
				331.00201,185.05972L331.24204,185.05972L331.24204,185.53977L331.48207,185.53977L331.48207,186.49987L331.7221,186.49987L331.7221,186.97993
				L331.96213,186.97993L331.96213,187.7L332.20216,187.7L332.20216,188.18005L332.68222,188.18005L332.68222,188.90013L332.92225,188.90013
				L332.92225,189.62021L333.16228,189.62021L333.16228,190.10026L333.40231,190.10026L333.40231,190.82033L333.64234,190.82033
				L333.64234,191.30039L333.88237,191.30039L333.88237,192.02046L334.1224,192.02046L334.1224,192.74054L334.36243,192.74054L334.36243,193.46062
				L334.60246,193.46062L334.60246,193.94067L334.84249,193.94067L334.84249,194.66074L335.08252,194.66074L335.08252,195.14079
				L335.32255,195.14079L335.32255,196.1009L335.80261,196.1009L335.80261,196.58095L336.04265,196.58095L336.04265,197.30103L336.28268,197.30103
				L336.28268,197.78108L336.52271,197.78108L336.52271,198.74118L336.76274,198.74118L336.76274,199.22123L337.00277,199.22123
				L337.00277,199.94131L337.2428,199.94131L337.2428,200.42136L337.48283,200.42136"/>
			<path clip-path="url(#SVG_CP_2)" fill="none" stroke="#999999" stroke-width="0.96012" stroke-miterlimit="10" stroke-linecap="round" stroke-linejoin="round" d="
				M337.48283,200.42136L337.48283,200.90141L337.72286,200.90141L337.72286,201.86151L337.96289,201.86151L337.96289,202.34156
				L338.20292,202.34156L338.20292,203.06164L338.68298,203.06164L338.68298,203.54169L338.92301,203.54169L338.92301,204.26177
				L339.16304,204.26177L339.16304,204.98184L339.40307,204.98184L339.40307,205.70192L339.6431,205.70192L339.6431,206.18197L339.88313,206.18197
				L339.88313,206.90205L340.12316,206.90205L340.12316,207.3821L340.36319,207.3821L340.36319,208.3422L340.60322,208.3422L340.60322,208.82225
				L340.84325,208.82225L340.84325,209.54233L341.08328,209.54233L341.08328,210.02238L341.32332,210.02238L341.32332,210.98248
				L341.80338,210.98248L341.80338,211.46253L342.04341,211.46253L342.04341,211.94259L342.28344,211.94259L342.28344,212.66266
				L342.52347,212.66266L342.52347,213.14271L342.7635,213.14271L342.7635,214.10282L343.00353,214.10282L343.00353,214.58287L343.24356,214.58287
				L343.24356,215.30294L343.48359,215.30294L343.48359,215.78299L343.72362,215.78299L343.72362,216.50307L343.96365,216.50307
				L343.96365,217.22315L344.20368,217.22315L344.20368,217.94322L344.44371,217.94322L344.44371,218.42328L344.92377,218.42328
				L344.92377,219.14335L345.1638,219.14335L345.1638,219.6234L345.40383,219.6234L345.40383,220.58351L345.64386,220.58351L345.64386,221.06356
				L345.88389,221.06356L345.88389,221.78363L346.12392,221.78363L346.12392,222.26369L346.36396,222.26369L346.36396,222.98376
				L346.60399,222.98376L346.60399,223.70384L346.84402,223.70384L346.84402,224.18389L347.08405,224.18389L347.08405,224.90397
				L347.32408,224.90397L347.32408,225.38402L347.56411,225.38402L347.56411,226.34412L348.04417,226.34412L348.04417,226.82417
				L348.2842,226.82417L348.2842,227.54425L348.52423,227.54425L348.52423,228.0243L348.76426,228.0243L348.76426,228.74438L349.00429,228.74438
				L349.00429,229.46445L349.24432,229.46445L349.24432,230.18453L349.48435,230.18453L349.48435,230.66458L349.72438,230.66458
				L349.72438,231.38466L349.96441,231.38466L349.96441,232.10473L350.20444,232.10473L350.20444,232.82481L350.44447,232.82481
				L350.44447,233.30486L350.92453,233.30486L350.92453,233.78491L351.16456,233.78491L351.16456,234.50499L351.40459,234.50499
				L351.40459,235.22507L351.64463,235.22507L351.64463,235.94514L351.88466,235.94514L351.88466,236.42519L352.12469,236.42519
				L352.12469,237.14527L352.36472,237.14527L352.36472,237.62532L352.60475,237.62532L352.60475,238.58542L352.84478,238.58542
				L352.84478,239.06548L353.08481,239.06548L353.08481,239.78555L353.32484,239.78555L353.32484,240.2656L353.56487,240.2656L353.56487,240.98568
				L354.04493,240.98568L354.04493,241.70576L354.28496,241.70576L354.28496,242.42583L354.52499,242.42583L354.52499,242.90588
				L354.76502,242.90588L354.76502,243.62596L355.00505,243.62596L355.00505,244.34604L355.24508,244.34604L355.24508,244.82609
				L355.48511,244.82609L355.48511,245.54617L355.72514,245.54617L355.72514,246.02622L355.96517,246.02622L355.96517,246.74629
				L356.2052,246.74629L356.2052,247.46637L356.44523,247.46637L356.44523,248.18645L356.68526,248.18645L356.68526,248.6665L357.16533,248.6665
				L357.16533,249.38658L357.40536,249.38658L357.40536,249.86663L357.64539,249.86663L357.64539,250.5867L357.40536,250.5867L357.40536,250.82673
				L357.16533,250.82673L357.16533,251.06675L356.68526,251.06675L356.68526,251.30678L356.44523,251.30678L356.44523,251.54681
				L356.2052,251.54681L356.2052,251.78683L355.96517,251.78683L355.96517,252.02686L355.72514,252.02686L355.72514,252.26688L355.48511,252.26688
				L355.48511,252.50691L355.24508,252.50691L355.24508,252.74693L355.00505,252.74693L355.00505,252.98696L354.76502,252.98696
				L354.76502,253.46701L354.52499,253.46701L354.52499,253.70704L354.28496,253.70704L354.28496,253.94706"/>
			<path clip-path="url(#SVG_CP_2)" fill="none" stroke="#999999" stroke-width="0.96012" stroke-miterlimit="10" stroke-linecap="round" stroke-linejoin="round" d="
				M405.41145,262.34796L405.17142,262.34796L405.17142,262.10793L405.41145,262.10793L405.41145,262.34796"/>
			<path clip-path="url(#SVG_CP_2)" fill="none" stroke="#999999" stroke-width="0.96012" stroke-miterlimit="10" stroke-linecap="round" stroke-linejoin="round" d="
				M354.28496,253.94706L354.52499,253.94706L354.52499,253.70704L354.76502,253.70704L354.76502,253.46701L355.00505,253.46701
				L355.00505,252.98696L355.24508,252.98696L355.24508,252.74693L355.48511,252.74693L355.48511,252.50691L355.72514,252.50691
				L355.72514,252.26688L355.96517,252.26688L355.96517,252.02686L356.2052,252.02686L356.2052,251.78683L356.44523,251.78683L356.44523,251.54681
				L356.68526,251.54681L356.68526,251.30678L357.16533,251.30678L357.16533,251.06675L357.40536,251.06675L357.40536,250.82673
				L357.64539,250.82673L357.64539,250.5867L357.88542,250.5867L357.88542,251.30678L358.12545,251.30678L358.12545,251.78683L358.36548,251.78683
				L358.36548,252.26688L358.60551,252.26688L358.60551,252.98696L358.84554,252.98696L358.84554,253.70704L359.08557,253.70704
				L359.08557,254.18709L359.3256,254.18709L359.3256,254.90716L359.56563,254.90716L359.56563,255.38721L360.04569,255.38721L360.04569,255.86727
				L360.28572,255.86727L360.28572,256.82737L360.52575,256.82737L360.52575,257.30742L360.76578,257.30742L360.76578,257.78747
				L361.00581,257.78747L361.00581,258.50755L361.24584,258.50755L361.24584,258.9876L361.48587,258.9876L361.48587,259.9477L361.7259,259.9477
				L361.7259,260.42775L361.96594,260.42775L361.96594,260.9078L362.20597,260.9078L362.20597,261.62788L362.446,261.62788L362.446,262.10793
				L362.68603,262.10793L362.68603,262.82801L363.16609,262.82801L363.16609,263.54808L363.40612,263.54808L363.40612,264.02814
				L363.64615,264.02814L363.64615,264.50819L363.88618,264.50819L363.88618,265.22826L364.12621,265.22826L364.12621,265.94834
				L364.36624,265.94834L364.36624,266.42839L364.60627,266.42839L364.60627,267.14847L364.8463,267.14847L364.8463,267.62852L365.08633,267.62852
				L365.08633,268.10857L365.32636,268.10857L365.32636,269.06867L365.56639,269.06867L365.56639,269.54872L365.80642,269.54872
				L365.80642,270.02877L366.28648,270.02877L366.28648,270.74885L366.52651,270.74885L366.52651,271.2289L366.76654,271.2289L366.76654,272.18901
				L367.00657,272.18901L367.00657,272.66906L367.24661,272.66906L367.24661,273.14911L367.48664,273.14911L367.48664,273.86918
				L367.72667,273.86918L367.72667,274.34924L367.9667,274.34924L367.9667,275.06931L368.20673,275.06931L368.20673,275.78939L368.44676,275.78939
				L368.44676,276.26944L368.68679,276.26944L368.68679,276.98952L368.92682,276.98952L368.92682,277.46957L369.40688,277.46957
				L369.40688,278.42967L369.64691,278.42967L369.64691,279.14975L369.88694,279.14975L369.88694,279.6298L370.12697,279.6298L370.12697,280.34987
				L370.367,280.34987L370.367,281.30998L370.60703,281.30998L370.60703,282.03005L370.84706,282.03005L370.84706,282.51011L371.08709,282.51011
				L371.08709,283.23018L371.32712,283.23018L371.32712,284.19028L371.56715,284.19028L371.56715,284.67034L371.80718,284.67034
				L371.80718,285.39041L372.28724,285.39041L372.28724,286.11049L372.52728,286.11049L372.52728,287.07059L372.76731,287.07059
				L372.76731,287.55064L373.00734,287.55064L373.00734,288.27072L373.24737,288.27072L373.24737,288.9908L373.4874,288.9908L373.4874,289.47085
				L373.72743,289.47085L373.72743,290.43095L373.96746,290.43095L373.96746,291.15103L374.20749,291.15103L374.20749,291.63108
				L374.44752,291.63108L374.44752,292.35115L374.68755,292.35115L374.68755,293.31126L374.92758,293.31126L374.92758,294.03133
				L375.40764,294.03133L375.40764,294.51138L375.64767,294.51138L375.64767,295.23146L375.8877,295.23146L375.8877,295.95154L376.12773,295.95154
				L376.12773,296.67161L376.36776,296.67161L376.36776,297.39169L376.60779,297.39169L376.60779,298.11177L376.84782,298.11177
				L376.84782,298.83184L377.08785,298.83184L377.08785,299.55192L377.32788,299.55192L377.32788,300.272L377.56791,300.272L377.56791,300.75205
				L377.80795,300.75205L377.80795,301.2321L378.04798,301.2321L378.04798,301.71215L378.52804,301.71215L378.52804,302.67225L378.76807,302.67225
				L378.76807,303.1523L379.0081,303.1523L379.0081,303.63236L379.24813,303.63236L379.24813,304.11241L379.48816,304.11241L379.48816,304.59246
				L379.72819,304.59246L379.72819,305.07251L379.96822,305.07251L379.96822,306.03261L380.20825,306.03261L380.20825,306.51266
				L380.44828,306.51266L380.44828,306.99271L380.68831,306.99271L380.68831,307.47277L380.92834,307.47277L380.92834,307.71279
				L381.16837,307.71279L381.16837,307.23274L381.64843,307.23274L381.64843,306.75269L381.88846,306.75269L381.88846,306.27264
				L382.12849,306.27264L382.12849,305.79259L382.36852,305.79259L382.36852,305.07251L382.60855,305.07251L382.60855,304.59246
				L382.84859,304.59246L382.84859,303.87238L383.08862,303.87238L383.08862,303.39233L383.32865,303.39233L383.32865,302.91228
				L383.56868,302.91228L383.56868,302.43223L383.80871,302.43223L383.80871,301.71215L384.04874,301.71215L384.04874,301.2321L
				384.5288,301.2321L384.5288,300.75205L384.76883,300.75205L384.76883,300.272L385.00886,300.272L385.00886,299.79195L385.24889,299.79195
				L385.24889,299.3119L385.48892,299.3119L385.48892,298.59182L385.72895,298.59182L385.72895,298.11177L385.96898,298.11177L385.96898,297.63172
				L386.20901,297.63172L386.20901,297.15167L386.44904,297.15167L386.44904,296.67161L386.68907,296.67161L386.68907,295.95154
				L386.9291,295.95154L386.9291,295.47149L387.16913,295.47149L387.16913,294.99144L387.64919,294.99144L387.64919,294.51138L387.88922,294.51138
				L387.88922,294.03133L388.12926,294.03133L388.12926,293.55128L388.36929,293.55128L388.36929,292.8312L388.60932,292.8312L388.60932,292.35115
				L388.84935,292.35115L388.84935,291.8711L389.08938,291.8711L389.08938,291.39105L389.32941,291.39105L389.32941,290.911L389.56944,290.911
				L389.56944,290.43095L389.80947,290.43095L389.80947,289.71087L390.0495,289.71087L390.0495,289.23082L390.28953,289.23082L390.28953,288.75077
				L390.76959,288.75077L390.76959,288.27072L391.00962,288.27072L391.00962,287.79067L391.24965,287.79067L391.24965,287.31062
				L391.48968,287.31062L391.48968,286.59054L391.72971,286.59054L391.72971,286.11049L391.96974,286.11049L391.96974,285.63044
				L392.20977,285.63044L392.20977,285.15039L392.4498,285.15039L392.4498,284.67034L392.68983,284.67034L392.68983,284.19028L392.92986,284.19028
				L392.92986,283.47021L393.16989,283.47021L393.16989,282.99016L393.64996,282.99016L393.64996,282.27008L393.88999,282.27008
				L393.88999,281.79003L394.13002,281.79003L394.13002,281.30998L394.37005,281.30998L394.37005,280.5899L394.61008,280.5899L394.61008,280.10985
				L394.85011,280.10985L394.85011,279.86982L395.09014,279.86982L395.09014,279.38977L395.33017,279.38977L395.33017,278.90972
				L395.5702,278.90972L395.5702,278.6697L395.81023,278.6697L395.81023,278.18964L396.05026,278.18964L396.05026,277.46957L396.29029,277.46957
				L396.29029,277.22954L396.77035,277.22954L396.77035,276.74949L397.01038,276.74949L397.01038,276.26944L397.25041,276.26944
				L397.25041,275.78939L397.49044,275.78939L397.49044,275.54936L397.73047,275.54936L397.73047,275.06931L397.9705,275.06931L
				397.9705,274.34924L398.21053,274.34924L398.21053,274.10921L398.45057,274.10921L398.45057,273.62916L398.6906,273.62916L398.6906,273.14911
				L398.93063,273.14911L398.93063,272.90908L399.17066,272.90908L399.17066,272.42903L399.41069,272.42903L399.41069,271.94898
				L399.89075,271.94898L399.89075,271.2289L400.13078,271.2289L400.13078,270.98888L400.37081,270.98888L400.37081,270.50883L400.61084,270.50883
				L400.61084,270.02877L400.85087,270.02877L400.85087,269.78875L401.0909,269.78875L401.0909,269.3087L401.33093,269.3087L401.33093,268.82865
				L401.57096,268.82865L401.57096,268.3486L401.81099,268.3486L401.81099,267.86854L402.05102,267.86854L402.05102,267.38849L402.29105,267.38849
				L402.29105,266.90844L402.53108,266.90844L402.53108,266.66842L403.01114,266.66842L403.01114,266.18837L403.25117,266.18837
				L403.25117,265.70831L403.4912,265.70831L403.4912,265.22826L403.73124,265.22826L403.73124,264.74821L403.97127,264.74821L403.97127,264.26816
				L404.2113,264.26816L404.2113,264.02814L404.45133,264.02814L404.45133,263.54808L404.69136,263.54808L404.69136,263.06803L404.93139,263.06803
				L404.93139,262.82801L405.17142,262.82801L405.17142,264.98824L404.93139,264.98824L404.93139,268.82865L404.69136,268.82865
				L404.69136,271.46893L404.45133,271.46893L404.45133,274.58926L404.2113,274.58926L404.2113,278.18964L403.97127,278.18964L403.97127,280.5899
				L403.73124,280.5899L403.73124,284.19028L403.4912,284.19028L403.4912,287.07059L403.25117,287.07059L403.25117,291.39105L403.01114,291.39105
				L403.01114,295.71151L402.53108,295.71151L402.53108,299.55192L402.29105,299.55192L402.29105,303.87238L402.05102,303.87238
				L402.05102,306.99271L401.81099,306.99271L401.81099,312.99335L401.57096,312.99335L401.57096,315.15358L401.33093,315.15358
				L401.33093,315.63363L401.0909,315.63363L401.0909,316.11369L400.85087,316.11369L400.85087,316.59374L400.61084,316.59374L400.61084,317.07379
				L400.37081,317.07379L400.37081,317.79386L400.13078,317.79386L400.13078,318.27392L399.89075,318.27392L399.89075,318.75397
				L399.41069,318.75397L399.41069,319.23402L399.17066,319.23402L399.17066,319.71407L398.93063,319.71407L398.93063,320.19412
				L398.6906,320.19412L398.6906,320.9142L398.45057,320.9142L398.45057,321.15422L398.21053,321.15422L398.21053,321.63427L397.9705,321.63427
				L397.9705,322.11433L397.73047,322.11433L397.73047,322.59438L397.49044,322.59438L397.49044,323.07443L397.25041,323.07443L
				397.25041,323.31445L397.01038,323.31445L397.01038,324.03453L396.77035,324.03453L396.77035,324.27456L396.29029,324.27456L
				396.29029,324.51458L396.05026,324.51458L396.05026,324.75461L395.81023,324.75461L395.81023,324.99463L395.5702,324.99463L395.5702,325.23466
				L395.09014,325.23466L395.09014,325.47468L394.85011,325.47468L394.85011,325.71471L394.61008,325.71471L394.61008,325.95473
				L394.37005,325.95473L394.37005,326.19476L394.13002,326.19476L394.13002,326.43479L393.88999,326.43479L393.88999,326.91484
				L393.64996,326.91484L393.64996,327.15486L393.16989,327.15486L393.16989,327.39489L392.92986,327.39489L392.92986,327.63491
				L392.68983,327.63491L392.68983,327.87494L392.20977,327.87494L392.20977,328.11496L391.96974,328.11496L391.96974,328.35499
				L391.72971,328.35499L391.72971,328.59502L391.48968,328.59502L391.48968,328.83504L391.24965,328.83504L391.24965,329.07507
				L391.00962,329.07507L391.00962,329.31509L390.76959,329.31509L390.76959,329.55512L390.28953,329.55512L390.28953,330.03517
				L390.0495,330.03517L390.0495,330.27519L389.80947,330.27519L389.80947,330.51522L389.56944,330.51522L389.56944,330.75525L389.32941,330.75525
				L389.32941,330.99527L388.84935,330.99527L388.84935,331.2353L388.60932,331.2353L388.60932,331.47532L388.12926,331.47532L388.12926,331.71535
				L387.64919,331.71535L387.64919,331.95537L387.16913,331.95537L387.16913,332.1954L386.68907,332.1954L386.68907,332.43543L386.20901,332.43543
				L386.20901,332.91548L385.96898,332.91548L385.96898,333.1555L385.48892,333.1555L385.48892,333.39553L385.24889,333.39553L385.24889,333.63555
				L385.00886,333.63555L385.00886,334.1156L384.76883,334.1156L384.76883,334.35563L384.5288,334.35563L384.5288,334.83568L384.04874,334.83568
				L384.04874,335.07571L383.80871,335.07571L383.80871,335.31573L383.56868,335.31573L383.56868,335.55576L383.32865,335.55576
				L383.32865,336.03581L383.08862,336.03581L383.08862,336.51586L382.84859,336.51586L382.84859,336.75589L382.60855,336.75589
				L382.60855,336.99591L382.36852,336.99591L382.36852,337.47596L382.12849,337.47596L382.12849,337.71599L381.88846,337.71599
				L381.88846,337.95601L381.64843,337.95601L381.64843,338.19604L381.16837,338.19604L381.16837,338.43606L380.92834,338.43606
				L380.92834,338.67609L380.68831,338.67609L380.68831,339.15614L380.44828,339.15614L380.44828,339.39617L380.20825,339.39617
				L380.20825,339.63619L379.96822,339.63619L379.96822,339.87622L379.72819,339.87622L379.72819,340.11624L379.48816,340.11624
				L379.48816,340.35627L379.24813,340.35627L379.24813,340.59629L379.0081,340.59629L379.0081,340.83632L378.76807,340.83632L378.76807,341.07635
				L378.52804,341.07635L378.52804,341.31637L378.04798,341.31637L378.04798,341.5564L377.80795,341.5564L377.80795,342.03645L377.56791,342.03645
				L377.56791,342.27647L377.32788,342.27647L377.32788,342.5165L377.08785,342.5165L377.08785,342.75652L376.84782,342.75652L376.84782,342.99655
				L376.60779,342.99655L376.60779,343.23658L376.12773,343.23658L376.12773,343.4766L375.8877,343.4766L375.8877,343.71663L375.64767,343.71663
				L375.64767,343.95665L375.40764,343.95665L375.40764,344.19668L374.92758,344.19668L374.92758,344.4367L374.44752,344.4367L374.44752,344.67673
				L374.20749,344.67673L374.20749,345.15678L373.72743,345.15678L373.72743,345.39681L373.4874,345.39681L373.4874,345.63683L373.24737,345.63683
				L373.24737,345.87686L373.00734,345.87686L373.00734,346.11688L372.52728,346.11688L372.52728,346.35691L372.28724,346.35691
				L372.28724,346.59693L371.80718,346.59693L371.80718,346.83696L371.56715,346.83696L371.56715,347.07699L371.08709,347.07699
				L371.08709,347.31701L370.60703,347.31701L370.60703,347.55704L370.367,347.55704L370.367,347.79706L370.12697,347.79706L370.12697,348.27711
				L369.88694,348.27711L369.88694,348.51714L369.64691,348.51714L369.64691,348.75716L369.40688,348.75716L369.40688,348.99719
				L368.92682,348.99719L368.92682,349.23722L368.68679,349.23722L368.68679,349.47724L368.20673,349.47724L368.20673,349.71727
				L367.9667,349.71727L367.9667,349.95729L367.72667,349.95729L367.72667,350.19732L367.48664,350.19732L367.48664,350.43734L367.24661,350.43734
				L367.24661,348.51714L367.48664,348.51714L367.48664,346.11688L367.72667,346.11688L367.72667,343.71663L367.9667,343.71663L
				367.9667,342.27647L368.20673,342.27647L368.20673,340.83632L368.44676,340.83632L368.44676,339.63619L368.68679,339.63619L368.68679,338.19604
				L368.92682,338.19604L368.92682,336.99591L369.40688,336.99591L369.40688,335.55576L369.64691,335.55576L369.64691,334.59566
				L369.88694,334.59566L369.88694,333.39553L370.12697,333.39553L370.12697,331.95537L370.367,331.95537L370.367,331.2353L370.60703,331.2353
				L370.60703,330.75525L370.84706,330.75525L370.84706,330.27519L371.08709,330.27519L371.08709,329.55512L371.32712,329.55512
				L371.32712,329.07507L371.56715,329.07507L371.56715,328.59502L371.80718,328.59502L371.80718,327.87494L372.28724,327.87494
				L372.28724,327.39489L372.52728,327.39489L372.52728,326.91484L372.76731,326.91484L372.76731,326.19476L373.00734,326.19476
				L373.00734,325.71471L373.24737,325.71471L373.24737,325.23466L373.4874,325.23466L373.4874,324.51458L373.72743,324.51458L373.72743,324.03453
				L373.96746,324.03453L373.96746,323.31445L374.20749,323.31445L374.20749,322.8344L374.44752,322.8344L374.44752,322.35435L374.68755,322.35435
				L374.68755,321.63427L374.92758,321.63427L374.92758,321.15422L375.40764,321.15422L375.40764,320.67417L375.64767,320.67417
				L375.64767,319.9541L375.8877,319.9541L375.8877,319.47404L376.12773,319.47404L376.12773,318.99399L376.36776,318.99399L376.36776,318.27392
				L376.60779,318.27392L376.60779,317.79386L376.84782,317.79386L376.84782,317.07379L377.08785,317.07379L377.08785,316.59374
				L377.32788,316.59374L377.32788,316.11369L377.56791,316.11369L377.56791,315.63363L377.80795,315.63363L377.80795,314.67353
				L377.56791,314.67353L377.56791,313.71343L377.32788,313.71343L377.32788,313.23338L377.08785,313.23338L377.08785,312.75333
				L376.84782,312.75333L376.84782,312.03325L376.60779,312.03325L376.60779,311.5532L376.36776,311.5532L376.36776,310.5931L376.12773,310.5931
				L376.12773,310.11305L375.8877,310.11305L375.8877,309.39297L375.64767,309.39297L375.64767,308.91292L375.40764,308.91292L375.40764,307.95282
				L374.92758,307.95282L374.92758,307.23274L374.68755,307.23274L374.68755,306.75269L374.44752,306.75269L374.44752,306.03261
				L374.20749,306.03261L374.20749,305.55256L373.96746,305.55256L373.96746,304.59246L373.72743,304.59246L373.72743,304.11241
				L373.4874,304.11241L373.4874,303.39233L373.24737,303.39233L373.24737,302.91228L373.00734,302.91228L373.00734,301.95218L372.76731,301.95218
				L372.76731,301.2321L372.52728,301.2321L372.52728,300.75205L372.28724,300.75205L372.28724,300.03197L371.80718,300.03197L371.80718,299.55192
				L371.56715,299.55192L371.56715,298.59182L371.32712,298.59182L371.32712,298.11177L371.08709,298.11177L371.08709,297.39169
				L370.84706,297.39169L370.84706,296.91164L370.60703,296.91164L370.60703,295.95154L370.367,295.95154L370.367,295.23146L370.12697,295.23146
				L370.12697,294.75141L369.88694,294.75141L369.88694,294.03133L369.64691,294.03133L369.64691,293.55128L369.40688,293.55128
				L369.40688,292.59118L368.92682,292.59118L368.92682,292.11113L368.68679,292.11113L368.68679,291.39105L368.44676,291.39105
				L368.44676,290.911L368.20673,290.911L368.20673,290.19092L367.9667,290.19092L367.9667,289.23082L367.72667,289.23082L367.72667,288.75077
				L367.48664,288.75077L367.48664,288.03069L367.24661,288.03069L367.24661,287.55064L367.00657,287.55064L367.00657,286.59054
				L366.76654,286.59054L366.76654,286.11049L366.52651,286.11049L366.52651,285.39041L366.28648,285.39041L366.28648,284.91036
				L365.80642,284.91036L365.80642,284.19028L365.56639,284.19028L365.56639,283.23018L365.32636,283.23018L365.32636,282.75013
				L365.08633,282.75013L365.08633,282.03005L364.8463,282.03005L364.8463,281.55L364.60627,281.55L364.60627,280.5899L364.36624,280.5899
				L364.36624,280.10985L364.12621,280.10985L364.12621,279.38977L363.88618,279.38977L363.88618,278.90972L363.64615,278.90972
				L363.64615,278.18964L363.40612,278.18964L363.40612,277.22954L363.16609,277.22954L363.16609,276.74949L362.68603,276.74949
				L362.68603,276.02941L362.446,276.02941L362.446,275.54936L362.20597,275.54936L362.20597,274.58926L361.96594,274.58926L361.96594,274.10921
				L361.7259,274.10921L361.7259,273.38913L361.48587,273.38913L361.48587,272.90908L361.24584,272.90908L361.24584,272.18901L361.00581,272.18901
				L361.00581,271.2289L360.76578,271.2289L360.76578,270.74885L360.52575,270.74885L360.52575,270.02877L360.28572,270.02877L360.28572,269.54872
				L360.04569,269.54872L360.04569,268.82865L359.56563,268.82865L359.56563,268.10857L359.3256,268.10857L359.3256,267.38849L359.08557,267.38849
				L359.08557,266.90844L358.84554,266.90844L358.84554,266.18837L358.60551,266.18837L358.60551,265.22826L358.36548,265.22826
				L358.36548,264.74821L358.12545,264.74821L358.12545,264.02814L357.88542,264.02814L357.88542,263.54808L357.64539,263.54808
				L357.64539,262.82801L357.40536,262.82801L357.40536,262.10793L357.16533,262.10793L357.16533,261.38785L356.68526,261.38785
				L356.68526,260.9078L356.44523,260.9078L356.44523,260.18773L356.2052,260.18773L356.2052,259.22762L355.96517,259.22762L355.96517,258.74757
				L355.72514,258.74757L355.72514,258.0275L355.48511,258.0275L355.48511,257.54744L355.24508,257.54744L355.24508,256.82737L355.00505,256.82737
				L355.00505,256.10729L354.76502,256.10729L354.76502,255.38721L354.52499,255.38721L354.52499,254.90716L354.28496,254.90716
				L354.28496,253.94706"/>
		</g>
</g></svg>