<?xml version="1.0" encoding="utf-8" standalone="no"?>
<!-- Creator: ESRI ArcMap 10.0.0.2414 -->
<!DOCTYPE svg PUBLIC "-//W3C//DTD SVG 1.1//EN"  "http://www.w3.org/Graphics/SVG/1.1/DTD/svg11.dtd">
<svg width="512.251342273pt" height="741.1872776pt" viewBox="41.6255088635 45.48194658 512.251342273 741.1872776" enable-background="new 41.6255088635 45.48194658 512.251342273 741.1872776"
	version="1.1" xmlns="http://www.w3.org/2000/svg" xmlns:xlink="http://www.w3.org/1999/xlink" >
	<g id="Couches">
		<g id="reservoirs">
			<path clip-path="url(#SVG_CP_2)" fill-opacity="0.2" fill="#07866D" fill-rule="evenodd" stroke="none" stroke-width="" stra="1.44018" stroke-miterlimit="10" stroke-linecap="round" stroke-linejoin="round" d="
				M405.41145,383.56087L408.53184,390.76164L409.732,393.1619L410.45209,396.0422L410.69212,397.96241L410.69212,399.40256L410.69212,401.80282
				L409.732,404.92315L409.01191,407.08338L409.732,409.00358L413.57248,415.48427L414.77264,417.88453L418.61312,423.16509L413.57248,425.32532
				L411.17218,427.48555L407.57172,430.60589L403.01114,434.92635L397.49044,440.44693L394.13002,443.80729L391.96974,445.96752
				L390.52956,447.6477L388.84935,449.08786L386.68907,451.24809L383.08862,454.84847L377.32788,460.60908L372.52728,465.88965L
				365.56639,474.53057L362.92606,478.13095L360.52575,481.49131L358.60551,484.85167L356.9253,487.73197L353.32484,493.97264L348.04417,503.33364
				L343.72362,511.25448L338.92301,520.13543L333.64234,529.2564L330.28191,535.49706L327.64158,541.25768L324.76121,541.25768L
				324.04112,541.01765L324.76121,537.65729L320.6807,533.33683L319.9606,531.41663L315.40003,536.21714L314.19987,541.4977L314.4399,544.13798
				L298.59789,547.01829L297.63777,547.25832L295.95756,547.73837L294.27735,548.21842L292.83716,548.9385L291.39698,547.25832L
				289.71677,548.69847L291.15695,550.37865L290.43686,551.09873L289.71677,552.29885L289.23671,553.25896L288.75664,554.93914L
				288.51661,556.37929L288.03655,557.57942L288.03655,558.77954L288.03655,559.73965L288.03655,561.1798L288.27658,562.61995L289.23671,564.30013
				L290.43686,566.70039L291.87704,569.34067L292.59713,571.02085L293.55725,572.70103L294.27735,574.38121L294.75741,576.54144
				L294.99744,577.50154L296.19759,578.94169L296.43762,578.94169L296.43762,581.58197L295.71753,585.18236L294.51738,589.02277
				L293.55725,592.38313L292.83716,594.54336L287.55649,607.98479L281.79576,618.78594L277.47521,626.46676L272.6746,635.10768L
				270.03427,640.14822L263.07339,652.86957L254.91235,667.75116L249.39165,677.83223L244.11098,687.19323L238.83031,696.79425L
				237.39013,699.43453L230.9093,693.91394L226.10869,699.91458L233.54964,706.39527L228.74903,715.51625L222.26821,727.2775L217.70763,735.6784
				L214.82726,741.43901L209.06653,751.76011L208.10641,752.96024L207.38632,754.40039L206.4262,756.08057L204.74598,758.00077L
				202.58571,760.40103L199.46531,763.28134L197.30504,765.20154L194.18464,768.08185L191.54431,770.4821L188.90397,772.64233L186.26364,774.32251
				L181.46303,777.44285L179.06272,779.12302L177.86257,780.56318L176.18236,782.72341L175.46227,784.16356L174.98221,784.88364
				L163.46074,775.52264L161.78053,776.72277L159.1402,777.68287L156.0198,778.40295L152.65937,779.36305L150.4991,780.08313L148.81889,781.52328
				L147.61873,782.72341L136.81736,774.56254L132.73685,771.68223L130.8166,770.00205L130.57657,769.522L130.57657,769.28198L130.57657,769.04195
				L131.05663,768.32187L133.937,764.96152L136.81736,761.84118L139.69773,758.72085L141.858,756.56062L143.77825,754.40039L144.9784,752.96024
				L146.41858,751.52008L147.3787,750.55998L149.29895,749.35985L150.4991,748.39975L151.93928,746.9596L154.09956,745.03939L155.53974,743.35921
				L141.13791,730.15781L130.09651,719.83671L131.77672,692.47379L116.89483,678.79233L130.8166,658.15013L130.33654,632.22737L
				135.13715,626.94681L139.4577,622.38632L141.858,619.74604L143.53822,618.54591L145.21843,617.34579L146.41858,616.38568L143.77825,613.02533
				L139.93776,608.22481L137.77748,605.58453L135.37718,601.98415L133.69697,599.58389L131.05663,596.22353L127.45618,592.62315
				L124.57581,589.98287L120.97535,586.38249L116.89483,582.54208L47.76606,539.33747L58.80746,529.73645L65.28829,523.97584L69.12877,516.77507
				L52.32664,500.93338L58.80746,493.25256L50.64643,482.69144L62.40792,451.48811L64.56819,450.04796L65.52832,449.32788L66.72847,448.84783
				L67.44856,449.08786L68.16865,449.56791L77.04978,446.6876L81.85039,449.32788L168.98144,528.2963L181.46303,539.5775L183.38327,537.17724
				L185.30352,533.33683L187.94385,530.45653L192.98449,523.49578L193.70458,523.25576L196.10489,525.65601L198.02513,527.81625
				L204.02589,521.81561L200.66547,517.01509L206.90626,512.69463L210.98678,510.05435L214.3472,507.41407L217.94766,504.53376L
				218.42772,504.29374L218.66775,504.29374L219.14781,504.77379L224.90854,511.49451L225.62863,512.45461L231.62939,509.5743L228.26897,505.01382
				L228.74903,503.81369L225.3886,499.01318L229.70915,495.65282L234.98982,492.29246L243.63092,488.45205L252.03198,485.33172L
				259.71296,482.21139L270.51433,477.6509L256.83259,452.92826L253.23214,414.28415L252.75208,405.4032L253.47217,399.64259L255.39241,392.44182
				L268.11402,379.48044L281.79576,411.40384L298.35786,403.00294L302.91844,402.76292L306.27887,404.68312L311.79957,409.24361
				L312.99972,409.24361L334.84249,399.64259L338.20292,406.3633L364.60627,397.00231L377.80795,391.72174L379.72819,391.00167L
				380.44828,390.28159L380.68831,389.32149L380.92834,388.36138L380.68831,386.44118L380.68831,385.24105L381.16837,384.04092L
				382.12849,383.32085L383.32865,382.8408L385.00886,386.92123L393.16989,383.32085L391.24965,379.48044L401.81099,374.91995L405.41145,383.56087
				zM319.9606,497.81305L325.96137,511.49451L331.48207,509.81433L333.88237,508.6142L336.04265,507.17405L337.72286,505.73389L
				339.40307,504.29374L340.84325,502.85359L325.96137,467.3298L309.39926,474.29054L319.9606,497.81305z"/>
			<path clip-path="url(#SVG_CP_2)" fill-opacity="0.2" fill="#07866D" fill-rule="evenodd" stroke="none" stroke-width="" stra="1.44018" stroke-miterlimit="10" stroke-linecap="round" stroke-linejoin="round" d="
				M496.86305,57.60614L512.70506,93.12992L518.4658,94.33005L524.46656,93.36995L531.66747,96.25026L547.98954,99.13056L539.10841,100.57072
				L530.46732,101.29079L520.14601,100.81074L509.8247,99.85064L503.58391,99.37059L497.58315,98.41049L495.6629,92.16982L499.02333,83.76893
				L505.26412,92.16982L507.42439,90.72967L495.42287,60.9665L490.38223,64.80691L489.90217,70.32749L480.30095,75.60806L470.4597,73.44783
				L465.65909,78.24834L463.73885,85.68913L467.81937,98.89054L467.81937,108.01151L473.82013,119.77276L479.1008,120.73287L487.7419,142.09514
				L472.61998,146.65563L464.21891,146.65563L451.4973,140.89501L447.65681,155.53657L440.4559,155.7766L419.33322,146.17558L407.81175,163.69744
				L410.69212,166.0977L407.81175,172.57839L403.97127,171.13824L395.5702,178.09898L379.0081,170.41816L368.20673,173.05844L390.52956,212.42264
				L403.73124,205.46189L408.53184,200.42136L423.1737,196.34092L433.97507,187.94003L445.01647,186.49987L444.77644,201.14143L
				428.6944,210.02238L411.17218,220.34348L400.85087,222.50371L390.76959,223.46381L384.28877,221.78363L375.8877,210.02238L367.48664,192.50051
				L363.88618,178.339L357.16533,178.81906L367.9667,201.38146L367.24661,215.06292L364.8463,225.62404L362.446,238.3454L346.84402,251.30678
				L329.56182,261.14783L318.76045,270.50883L307.23899,277.46957L290.67689,285.87046L271.71448,294.51138L257.55268,297.87174
				L257.55268,298.11177L254.67232,299.07187L252.51205,300.272L251.79195,300.51202L249.15162,301.95218L246.51128,303.39233L242.43077,306.03261
				L239.07034,308.19284L235.70991,307.71279L232.82955,307.23274L228.98906,306.27264L224.42848,304.35243L221.54812,302.43223
				L219.14781,300.75205L216.98754,299.07187L214.3472,296.67161L210.98678,293.79131L209.06653,291.63108L206.4262,288.03069L205.22604,286.59054
				L204.02589,285.15039L200.66547,280.34987L197.06501,275.30934L195.86486,273.38913L193.94461,270.50883L192.98449,268.58862
				L192.50443,267.14847L192.50443,265.46829L191.06425,263.54808L189.144,260.9078L187.46379,262.34796L185.78358,258.0275L184.34339,253.46701
				L182.66318,248.6665L182.18312,246.50627L181.223,243.14591L180.26288,240.74565L209.78662,223.46381L206.18617,216.02302L201.62559,207.62212
				L191.54431,213.86279L190.58419,214.58287L183.86333,218.90333L175.94233,223.70384L175.7023,222.02366L175.46227,219.6234L175.22224,217.22315
				L174.98221,215.06292L174.74218,212.18261L174.74218,207.3821L174.98221,200.66138L175.22224,195.62085L175.22224,186.25985L
				175.46227,182.17941L175.46227,178.81906L175.46227,174.73862L175.7023,171.61829L175.7023,170.65819L175.94233,167.53785L176.42239,162.73734
				L191.30428,157.93683L195.62483,156.49668L199.94537,154.57647L202.82574,153.61637L210.74674,150.49604L223.46836,145.21547
				L226.58876,144.01535L230.18921,142.57519L239.5504,139.21484L242.91083,138.01471L248.91159,148.81586L254.91235,145.93555L
				257.79272,151.45614L260.91311,150.01599L265.95375,158.65691L267.87399,164.1775L269.55421,171.85831L270.2743,174.25857L271.23442,175.21867
				L272.6746,175.93875L276.75512,184.33964L277.23518,185.53977L277.47521,188.90013L278.1953,192.02046L279.39546,193.94067L281.07567,196.58095
				L282.75588,198.9812L284.91616,200.18133L288.27658,201.86151L296.67765,198.50115L298.11783,200.42136L336.52271,183.37954L
				357.16533,175.4587L347.08405,152.17622L339.16304,139.93491L334.36243,141.37507L322.12088,147.3757L306.75893,117.85256L328.6017,110.65179
				L342.7635,104.65115L341.32332,112.09195L337.48283,114.4922L337.48283,120.01279L343.00353,125.7734L366.28648,170.89821L376.12773,166.0977
				L392.20977,171.37826L398.93063,170.65819L404.45133,165.37762L415.97279,142.81522L420.7734,144.25537L439.01571,152.41624L
				443.33626,150.25601L448.61693,140.41496L446.69669,138.01471L450.53717,130.81394L469.01952,123.13312L466.85925,115.93235L
				462.05864,116.89246L464.45894,121.21292L454.85772,118.81266L455.57781,111.13184L441.41602,109.69169L441.41602,102.49092L
				447.41678,106.33133L455.57781,105.1312L458.93824,97.93044L453.17751,93.12992L449.09699,79.44847L455.33778,81.84872L467.09928,67.44719
				L471.41983,71.76765L479.82089,71.2876L486.06168,63.8468L489.42211,59.04629L496.86305,57.60614z"/>
		</g>
</g></svg>