<?xml version="1.0" encoding="utf-8" standalone="no"?>
<!-- Creator: ESRI ArcMap 10.0.0.2414 -->
<!DOCTYPE svg PUBLIC "-//W3C//DTD SVG 1.1//EN"  "http://www.w3.org/Graphics/SVG/1.1/DTD/svg11.dtd">
<svg width="524.0420768pt" height="438.256965874pt" viewBox="32.15712744 202.000652063 524.0420768 438.256965874" enable-background="new 32.15712744 202.000652063 524.0420768 438.256965874"
	version="1.1" xmlns="http://www.w3.org/2000/svg" xmlns:xlink="http://www.w3.org/1999/xlink" >
	<g id="Couches">
		<g id="reservoirs">
			<clipPath id="SVG_CP_2">
				<path d="M574.39289,21.36228L21.36271,21.36228L21.36271,821.36753L574.39289,821.36753L574.39289,21.36228z"/>
			</clipPath>
			<path clip-path="url(#SVG_CP_2)" fill-opacity="0.2" fill="#2f4493" fill-rule="evenodd" stroke="#2f4493" stroke-width="1" stra="1.44018" stroke-miterlimit="10" stroke-linecap="round" stroke-linejoin="round" d="
				M199.22528,327.39489L200.66547,331.95537L204.26592,336.27583L207.14629,337.71599L225.14857,320.9142L227.30885,322.59438L
				232.58952,336.03581L234.74979,341.31637L235.70991,344.19668L240.27049,342.03645L246.03122,341.31637L256.35253,339.39617L
				262.59332,344.19668L262.83335,350.91739L261.6332,358.11816L277.47521,361.23849L279.15543,363.63875L278.1953,375.88005L276.99515,380.20051
				L275.07491,397.00231L285.63625,402.04284L305.07872,413.56407L308.67917,427.48555L309.15923,429.16573L308.9192,429.40576L
				309.15923,431.56599L309.63929,433.00614L310.11936,434.68632L310.35939,436.3665L310.83945,439.24681L311.55954,440.44693L311.07948,441.64706
				L310.59942,442.60717L310.83945,443.80729L310.35939,445.00742L310.11936,446.44757L309.39926,447.6477L308.67917,449.08786L
				307.95908,450.28798L307.47902,451.24809L306.99896,452.68824L307.23899,453.16829L303.3985,455.80857L288.75664,461.80921L285.39622,463.24936
				L283.23594,462.04924L281.55573,461.80921L280.35558,460.36906L278.9154,457.9688L276.75512,454.84847L274.11479,452.68824L270.75436,454.12839
				L269.79424,461.80921L265.47369,470.21011L267.63396,475.49067L266.67384,480.29118L266.43381,481.49131L269.55421,482.21139
				L271.71448,478.611L273.87476,475.73069L284.91616,470.21011L286.11631,469.73006L291.63701,473.33044L289.47674,476.45077L293.07719,480.53121
				L290.19683,484.13159L297.8778,489.8922L296.91768,491.57238L295.23747,493.73261L293.79728,494.93274L304.11859,510.05435L313.95984,524.21586
				L316.36015,527.33619L317.32027,526.61612L322.36091,522.53568L345.1638,544.61804L343.72362,546.77827L337.48283,555.65921L
				336.76274,556.61931L322.12088,577.50154L317.5603,581.58197L316.60018,582.06203L314.91996,581.822L312.75969,582.06203L311.55954,582.54208
				L310.59942,583.50218L309.87933,584.46228L304.59865,586.86254L300.9982,589.98287L293.31722,594.0633L287.07643,597.18364L280.11555,588.30269
				L255.39241,557.57942L246.99134,548.45844L245.0711,546.29821L235.94994,535.49706L242.91083,530.45653L245.31113,527.57622L
				237.63016,520.61548L238.83031,519.17532L235.22985,516.53504L232.10946,512.21458L231.38936,511.49451L230.66927,510.29438L
				225.3886,509.5743L226.10869,512.69463L218.90778,513.89476L220.34796,529.2564L195.62483,579.9018L189.86409,591.66305L184.82346,602.4642
				L176.66242,619.26599L171.38175,630.54719L169.22148,627.66689L167.0612,625.26663L164.6609,622.62635L161.5405,619.50602L159.86029,615.90563
				L157.45998,611.10512L154.81965,606.30461L151.45922,601.26407L150.97916,600.06394L147.13867,594.78338L143.29819,590.2229L
				142.33806,589.02277L130.33654,575.82136L128.4163,574.14118L112.57429,561.41983L106.09346,556.37929L95.29209,548.21842L83.05054,536.69719
				L73.68935,525.65601L66.24841,514.13479L56.40716,494.69272L53.52679,487.73197L50.4064,477.17085L48.96621,472.13031L47.04597,463.24936
				L46.56591,454.60844L46.80594,445.7275L47.286,437.08658L48.00609,431.80601L49.20624,421.24489L50.64643,414.04412L52.08661,408.52353
				L54.00685,402.28287L55.20701,398.44246L56.88722,394.84208L57.60731,392.20179L57.60731,389.08146L57.12725,385.96113L56.40716,384.04092
				L55.9271,381.88069L58.56743,378.52034L61.4478,376.60013L64.56819,375.15998L68.40868,375.15998L72.96926,375.64003L76.80975,376.36011
				L80.65024,377.32021L84.01066,378.76036L90.25145,381.64067L90.97155,378.76036L91.21158,378.76036L91.93167,377.56023L92.65176,374.91995
				L91.93167,372.75972L91.21158,371.55959L90.97155,371.07954L90.73151,368.43926L91.69164,367.23913L94.81203,365.79898L97.93243,365.0789
				L100.57276,364.35883L105.37337,362.67865L107.29362,360.75844L109.21386,356.19796L108.97383,353.31765L108.97383,353.07762
				L108.7338,348.51714L110.65404,347.07699L114.01447,344.91676L115.69468,343.71663L116.41477,342.03645L123.37566,328.11496L
				128.65633,325.95473L137.29742,325.47468L137.77748,329.55512L141.858,330.03517L152.17931,331.71535L168.50138,331.71535L169.94157,330.99527
				L171.86181,329.79514L174.50215,329.79514L176.42239,330.27519L184.34339,319.9541L201.14553,313.71343L201.14553,317.07379L
				198.98525,318.75397L197.54507,323.07443L199.22528,327.39489zM225.86866,358.11816L217.22757,359.55832L212.90702,359.55832
				L212.42696,361.95857L204.02589,361.71855L198.26516,362.91867L172.5819,368.19924L162.74065,361.47852L160.58038,364.35883L
				162.74065,366.99911L161.06044,370.83952L171.14172,375.15998L167.78129,383.56087L162.02056,392.44182L156.97992,400.84271L
				155.29971,403.96305L155.29971,404.68312L154.33959,407.08338L153.13943,407.08338L150.73913,410.68376L150.73913,411.88389L
				149.53898,413.56407L147.61873,417.16445L146.65861,418.60461L145.45846,419.80474L143.77825,421.24489L143.05815,422.68504L
				131.29666,419.32468L124.81584,423.40512L130.09651,431.32596L137.77748,431.56599L141.858,433.96624L147.3787,448.36778L144.01828,451.00806
				L154.57962,465.16957L159.86029,461.56919L175.94233,462.28926L180.26288,462.28926L183.86333,462.52929L187.70382,465.40959
				L195.86486,475.97072L202.58571,479.09105L204.74598,475.73069L207.86638,471.89029L250.35177,467.80985L256.1125,459.40896L
				265.47369,437.56663L270.03427,425.32532L276.75512,427.48555L280.11555,418.36458L282.27582,415.00422L272.19454,415.96433L
				265.47369,404.20307L264.7536,401.80282L261.15314,403.96305L252.75208,392.44182L249.15162,385.24105L237.63016,370.35947L225.86866,358.11816
				z"/>
			<path clip-path="url(#SVG_CP_2)" fill-opacity="0.2" fill="#2f4493" fill-rule="evenodd" stroke="#2f4493" stroke-width="1" stra="1.44018" stroke-miterlimit="10" stroke-linecap="round" stroke-linejoin="round" d="
				M480.30095,228.0243L506.7043,243.14591L511.26488,246.02622L512.94509,247.46637L519.42592,253.22698L522.06625,255.86727L518.94586,258.74757
				L516.54555,261.62788L501.1836,258.74757L499.74342,266.18837L524.94662,274.10921L526.62683,266.18837L518.94586,263.30806L
				518.94586,262.82801L519.42592,260.42775L521.10613,258.0275L528.54707,253.22698L537.66823,256.58734L548.70963,258.74757L549.18969,258.74757
				L548.22957,268.58862L548.4696,273.86918L548.94966,283.95026L543.18893,278.42967L534.06778,290.911L547.26945,294.75141L545.34921,300.272
				L543.66899,301.95218L537.90826,295.71151L531.18741,297.87174L519.90598,319.23402L522.54631,321.63427L523.74647,322.8344L
				524.22653,324.51458L524.22653,324.75461L518.22576,333.63555L517.7457,334.1156L510.78482,330.03517L498.7833,321.63427L482.70126,310.5931
				L475.02028,304.59246L472.61998,302.91228L466.13915,298.11177L461.33855,295.95154L455.33778,294.51138L453.65757,294.51138
				L449.81708,294.27136L444.77644,294.75141L444.77644,292.59118L441.89608,289.71087L439.49577,291.39105L440.69593,294.99144
				L437.57553,295.95154L437.09547,295.95154L432.77492,297.15167L427.97431,298.59182L419.81328,301.2321L411.17218,303.63236L
				401.57096,304.35243L391.48968,305.31253L384.76883,306.03261L372.28724,307.23274L361.48587,307.71279L351.16456,307.71279L
				350.6845,270.98888L358.12545,272.90908L363.16609,266.18837L365.32636,267.38849L366.76654,263.54808L368.92682,261.86791L372.52728,259.22762
				L373.24737,259.9477L375.64767,262.58798L382.84859,257.30742L379.48816,254.42711L385.48892,249.38658L392.4498,254.90716L395.09014,257.06739
				L398.45057,252.26688L399.65072,248.6665L406.6116,244.58606L408.53184,246.26624L411.41221,243.14591L412.61236,244.34604L413.81251,242.90588
				L412.61236,241.46573L413.81251,239.78555L412.85239,239.06548L418.13306,236.90525L414.77264,230.42455L414.53261,230.18453
				L422.93367,227.0642L423.1737,227.30422L424.13382,228.74438L427.01419,233.54489L425.57401,234.98504L429.17446,237.86535L435.65529,230.18453
				L440.4559,232.10473L442.8562,228.9844L446.69669,230.42455L449.57705,231.38466L452.45742,225.86407L448.3769,224.18389L445.2565,222.74374
				L448.13687,218.42328L441.89608,214.34284L444.05635,211.94259L445.49654,211.94259L445.9766,211.94259L448.85696,212.66266L
				480.30095,228.0243z"/>
		</g>
</g></svg>