<?xml version="1.0" encoding="utf-8" standalone="no"?>
<!-- Creator: ESRI ArcMap 10.0.0.2414 -->
<!DOCTYPE svg PUBLIC "-//W3C//DTD SVG 1.1//EN"  "http://www.w3.org/Graphics/SVG/1.1/DTD/svg11.dtd">
<svg width="524.0420768pt" height="327.821652068pt" viewBox="32.15712744 257.218308966 524.0420768 327.821652068" enable-background="new 32.15712744 257.218308966 524.0420768 327.821652068"
	version="1.1" xmlns="http://www.w3.org/2000/svg" xmlns:xlink="http://www.w3.org/1999/xlink" >
	<g id="Couches">
		<g id="reservoirs">
			<clipPath id="SVG_CP_2">
				<path d="M574.39289,21.36228L21.36271,21.36228L21.36271,821.36753L574.39289,821.36753L574.39289,21.36228z"/>
			</clipPath>
			<path clip-path="url(#SVG_CP_2)" fill-opacity="0.2" fill="#2f4493" fill-rule="evenodd" stroke="#2f4493" stroke-width="1" stra="1.44018" stroke-miterlimit="10" stroke-linecap="round" stroke-linejoin="round" d="
				M497.82318,404.68312L499.26336,408.76356L499.74342,410.68376L500.94357,413.8041L501.66366,415.7243L504.06397,421.24489L505.02409,423.64514
				L505.50415,425.56535L505.74418,427.24553L505.98421,428.68568L506.22424,429.88581L506.46427,431.80601L506.7043,433.24617L
				506.46427,436.60653L506.22424,439.24681L505.50415,447.6477L505.26412,451.24809L505.02409,453.40832L505.02409,455.32852L505.26412,457.72878
				L505.50415,459.64898L505.74418,463.96944L505.74418,466.84975L505.50415,468.52993L505.02409,470.69016L504.304,474.05052L500.70354,486.53185
				L498.54327,484.61164L494.22272,488.69208L492.78254,489.8922L492.54251,489.8922L491.82241,490.61228L489.90217,493.49259L488.22196,495.89284
				L487.26184,497.333L484.14144,495.41279L480.54098,493.25256L478.14068,492.05243L476.22043,490.85231L474.06016,490.13223L471.41983,489.65218
				L465.41906,488.69208L462.05864,488.21202L460.37842,487.972L459.17827,487.73197L458.21815,487.49195L457.49806,487.0119L449.33702,483.89156
				L446.21663,482.69144L442.37614,481.73133L439.49577,481.49131L437.3355,481.01126L435.65529,480.29118L428.93443,477.89092L
				423.1737,475.49067L422.93367,475.97072L422.21358,477.17085L421.73352,477.89092L420.7734,480.05116L418.85315,481.73133L416.21282,483.41151
				L408.05178,489.65218L406.13154,492.05243L402.53108,498.2931L386.68907,517.25512L381.88846,528.05627L378.04798,537.65729L
				377.32788,537.65729L371.80718,536.21714L370.60703,538.37737L370.12697,539.33747L369.40688,541.25768L368.92682,542.93786L
				373.4874,545.09809L372.52728,547.25832L359.56563,544.37801L356.9253,552.05883L353.56487,551.09873L354.28496,548.69847L351.40459,547.73837
				L352.60475,544.13798L352.84478,544.13798L353.32484,543.65793L353.56487,542.93786L353.08481,542.45781L356.68526,542.93786
				L358.60551,537.65729L359.80566,534.05691L359.56563,533.81688L357.40536,533.57686L356.2052,533.33683L355.24508,534.05691L
				353.56487,533.33683L351.40459,533.09681L349.00429,532.61676L346.36396,532.85678L345.88389,533.09681L346.12392,534.05691L
				346.36396,535.49706L346.36396,537.41727L345.88389,538.85742L345.40383,539.81752L344.92377,541.01765L344.92377,541.73773L
				344.20368,542.45781L343.96365,542.45781L342.52347,545.81816L341.56335,548.45844L340.12316,547.73837L338.68298,551.57878L
				334.60246,550.61867L334.60246,549.8986L335.80261,547.49834L336.76274,544.61804L337.00277,543.65793L332.20216,542.45781L331.7221,542.21778
				L332.68222,540.05755L326.68146,537.65729L324.76121,536.93722L323.32103,541.25768L321.64082,541.01765L317.80033,539.33747
				L317.5603,539.33747L315.40003,538.6174L315.88009,536.93722L316.84021,537.41727L318.04036,534.53696L310.83945,532.61676L305.07872,531.65665
				L300.9982,530.69655L300.9982,531.41663L300.75817,532.13671L300.51814,531.89668L300.27811,531.89668L299.07795,531.1766L298.11783,529.73645
				L295.71753,527.09617L295.4775,527.09617L293.31722,524.69591L289.9568,520.61548L289.47674,520.13543L289.47674,516.05499L289.71677,509.09425
				L289.71677,508.85422L279.15543,506.45397L269.79424,502.61356L269.07415,505.49387L261.87323,502.85359L257.31265,509.09425
				L252.99211,507.17405L257.31265,500.69335L253.47217,498.77315L248.91159,505.73389L247.71144,504.77379L246.99134,503.81369
				L245.55116,501.89348L243.87095,499.2532L242.91083,497.09297L242.19074,495.65282L241.71067,494.21266L240.99058,493.73261L
				239.79043,493.73261L237.1501,493.97264L234.0297,493.97264L231.86943,493.49259L231.14933,493.49259L230.9093,494.69272L230.66927,495.89284
				L229.94918,499.97328L229.22909,504.29374L227.78891,505.49387L226.82879,508.85422L224.42848,514.61484L224.90854,516.53504
				L225.14857,519.8954L224.66851,523.49578L223.94842,525.89604L223.46836,527.57622L222.9883,529.01637L223.94842,531.65665L227.78891,537.65729
				L227.54888,537.89732L225.3886,535.97711L222.74827,533.57686L217.70763,529.01637L215.30732,526.85614L214.82726,529.2564L213.62711,535.49706
				L213.38708,537.65729L212.66699,543.41791L209.54659,548.9385L207.38632,552.77891L205.94614,554.45908L210.50671,560.45972L
				209.06653,563.1L207.86638,565.26024L206.66623,565.50026L204.74598,565.26024L204.26592,565.50026L203.06577,567.66049L202.58571,569.10064
				L200.66547,568.38057L198.26516,568.38057L195.86486,568.38057L194.90473,568.62059L194.18464,571.26087L193.94461,573.18108
				L192.74446,577.74157L181.46303,572.22098L175.7023,569.5807L174.50215,568.86062L163.22071,563.34003L159.1402,561.41983L155.29971,559.49962
				L152.41934,558.05947L150.25907,556.85934L148.57886,556.37929L141.13791,554.45908L125.2959,532.61676L123.61569,531.65665L
				120.01523,529.2564L118.57505,528.77635L117.61493,528.53632L116.17474,528.53632L115.45465,527.81625L114.73456,527.09617L113.05435,524.93594
				L111.61416,525.65601L110.17398,526.61612L109.93395,526.61612L109.45389,526.37609L109.21386,525.65601L107.53365,524.21586
				L105.85343,522.53568L103.69316,520.61548L101.29285,518.21522L99.85267,516.53504L98.41249,515.09489L92.65176,509.5743L102.01295,502.37353
				L104.17322,500.69335L94.33197,488.9321L83.29057,479.81113L61.20777,467.56983L54.24688,458.20883L52.32664,456.28862L46.56591,449.56791
				L48.24612,449.08786L50.16637,448.6078L53.28676,448.84783L57.12725,449.32788L59.28752,449.80793L60.48768,450.28798L55.68707,453.64834
				L57.60731,455.56855L62.64795,451.96816L63.60807,452.44821L65.04826,453.88837L68.64871,457.48875L71.52908,461.08913L73.68935,463.24936
				L74.8895,464.20947L76.32969,464.68952L77.04978,464.92954L78.24993,465.16957L79.45008,465.64962L80.4102,466.3697L81.37033,467.3298
				L83.29057,469.00998L84.73075,470.21011L86.17094,470.93018L88.33121,471.65026L91.45161,472.37034L92.41173,472.61036L92.65176,472.61036
				L93.85191,473.09041L95.05206,474.05052L95.53212,474.29054L96.97231,475.49067L97.6924,475.49067L98.65252,475.49067L104.65328,476.45077
				L107.05359,469.49003L110.41401,467.08977L115.93471,466.12967L116.6548,465.40959L124.33578,458.68888L130.33654,455.56855L
				126.97611,455.32852L126.97611,455.0885L131.77672,452.68824L142.57809,449.80793L143.05815,450.28798L161.5405,470.69016L169.22148,478.85103
				L179.54278,490.61228L180.74294,491.81241L180.98297,491.81241L182.90321,498.77315L180.26288,499.73325L172.82193,501.89348
				L170.42163,502.61356L172.5819,506.93402L174.50215,508.6142L179.78282,510.5344L178.58266,513.89476L177.86257,516.53504L181.223,517.9752
				L184.10336,517.9752L188.66394,513.65474L191.54431,507.17405L188.66394,505.73389L186.26364,504.29374L185.78358,502.85359L
				185.06349,499.49323L184.58342,497.57302L184.10336,495.41279L183.6233,493.73261L183.86333,493.01254L184.58342,490.37225L190.58419,487.49195
				L192.02437,486.29182L194.18464,484.61164L195.14476,483.41151L195.86486,481.97136L196.82498,479.81113L197.7851,478.37098L
				198.50519,477.6509L201.38556,475.01062L203.54583,473.57046L204.98601,473.09041L207.62635,471.41023L210.74674,469.73006L212.90702,468.76995
				L217.70763,466.12967L219.14781,466.84975L221.06805,468.04988L222.50824,468.52993L224.66851,469.00998L226.58876,469.49003
				L227.78891,469.49003L229.70915,469.73006L231.86943,469.97008L233.78967,470.45013L235.70991,470.69016L236.91007,471.41023
				L237.63016,472.13031L238.59028,473.33044L239.07034,474.53057L240.99058,474.53057L240.27049,473.57046L240.27049,472.85039
				L240.27049,470.21011L240.51052,469.00998L240.75055,467.56983L241.23061,465.88965L252.51205,472.85039L254.19226,474.05052
				L257.07262,475.73069L268.83412,482.69144L271.23442,479.09105L272.6746,478.13095L272.91463,478.13095L272.91463,477.89092L
				273.87476,478.37098L276.99515,480.53121L275.31494,482.93146L279.87552,486.05179L275.07491,492.77251L274.83488,493.97264L
				277.23518,494.93274L278.43533,494.93274L282.99591,489.41215L285.87628,492.77251L282.51585,496.13287L281.3157,497.57302L282.75588,499.2532
				L285.63625,496.61292L288.03655,499.73325L291.15695,503.81369L292.3571,502.61356L294.75741,499.73325L298.11783,495.17277L
				300.51814,492.05243L302.67841,489.41215L305.55878,488.45205L308.9192,485.09169L308.67917,481.49131L311.55954,480.05116L315.64006,481.97136
				L318.52042,478.85103L316.36015,477.89092L320.6807,475.25064L324.52118,473.09041L326.2014,472.13031L327.64158,471.17021L329.32179,470.45013
				L330.52194,470.69016L331.96213,471.41023L333.40231,471.89029L335.32255,471.65026L336.28268,471.41023L337.96289,470.69016
				L340.12316,469.25L342.28344,468.04988L345.1638,466.60972L347.32408,465.88965L349.24432,465.16957L350.92453,464.20947L352.36472,463.48939
				L352.84478,462.52929L354.28496,459.16893L354.76502,457.48875L355.48511,456.0486L356.2052,454.84847L356.9253,453.64834L356.9253,453.40832
				L357.16533,453.40832L357.16533,453.16829L357.88542,452.20819L358.60551,451.72814L359.08557,451.24809L362.92606,447.88773
				L363.88618,446.6876L364.60627,445.00742L365.08633,443.32724L366.04645,440.68696L366.52651,439.48683L366.76654,439.24681L
				366.76654,439.00678L367.00657,438.76676L367.48664,438.2867L367.9667,437.80665L368.20673,437.56663L370.367,435.4064L372.76731,433.00614
				L373.72743,432.04604L375.16761,430.84591L377.80795,429.16573L381.4084,426.52545L385.48892,422.68504L388.36929,420.52481L
				391.48968,418.36458L393.64996,416.44438L394.85011,415.7243L396.29029,415.24425L398.45057,414.28415L401.57096,412.84399L404.45133,411.16381
				L405.65148,410.44374L406.6116,409.96369L408.77187,409.48364L411.41221,409.24361L414.05254,409.48364L416.69288,409.48364L
				420.7734,410.20371L424.85392,410.68376L427.25422,411.16381L430.13459,412.12392L433.73504,413.08402L435.65529,413.32404L437.81556,413.32404
				L441.17599,412.36394L450.05711,409.24361L451.4973,408.76356L452.69745,408.52353L454.85772,408.52353L455.81785,408.52353L
				459.17827,408.52353L461.09852,408.28351L463.97888,407.80346L465.41906,407.56343L468.29943,406.84335L475.50034,404.4431L480.78101,403.24297
				L485.82165,402.04284L487.26184,401.80282L488.46199,401.56279L489.42211,401.56279L491.82241,401.80282L493.50263,402.52289
				L496.14296,403.00294L497.34311,403.483L497.82318,404.68312z"/>
			<path clip-path="url(#SVG_CP_2)" fill-opacity="0.2" fill="#2f4493" fill-rule="evenodd" stroke="#2f4493" stroke-width="1" stra="1.44018" stroke-miterlimit="10" stroke-linecap="round" stroke-linejoin="round" d="
				M527.10689,264.74821L528.78711,283.71023L532.14753,297.15167L532.62759,298.35179L534.30781,297.63172L535.50796,300.272L537.4282,306.75269
				L540.30857,312.99335L542.46884,317.31381L545.58924,319.71407L549.18969,322.35435L547.02942,325.95473L544.62912,329.31509
				L542.9489,331.47532L542.22881,332.67545L541.74875,333.1555L540.30857,332.1954L538.86838,331.71535L533.58771,326.91484L529.74723,323.55448
				L525.90674,320.67417L523.50643,319.47404L517.02561,312.75333L510.06473,305.79259L497.10308,293.55128L490.38223,286.11049
				L501.1836,274.10921L503.10385,272.42903L505.98421,272.90908L508.62455,273.86918L509.34464,274.82929L509.8247,274.58926L512.225,275.78939
				L514.38528,275.78939L525.18665,264.74821L527.10689,264.74821z"/>
		</g>
</g></svg>