<?xml version="1.0" encoding="utf-8" standalone="no"?>
<!-- Creator: ESRI ArcMap 10.0.0.2414 -->
<!DOCTYPE svg PUBLIC "-//W3C//DTD SVG 1.1//EN"  "http://www.w3.org/Graphics/SVG/1.1/DTD/svg11.dtd">
<svg width="524.0420768pt" height="552.409963834pt" viewBox="32.15712744 144.924153083 524.0420768 552.409963834" enable-background="new 32.15712744 144.924153083 524.0420768 552.409963834"
	version="1.1" xmlns="http://www.w3.org/2000/svg" xmlns:xlink="http://www.w3.org/1999/xlink" >
	<g id="Couches">
		<g id="cont_2">
			<path clip-path="url(#SVG_CP_2)" fill="none" stroke="#999999" stroke-width="0.96012" stroke-miterlimit="10" stroke-linecap="round" stroke-linejoin="round" d="
				M275.07491,342.03645L275.07491,341.79642L275.31494,341.79642L275.31494,342.03645L275.07491,342.03645"/>
			<path clip-path="url(#SVG_CP_2)" fill="none" stroke="#999999" stroke-width="0.96012" stroke-miterlimit="10" stroke-linecap="round" stroke-linejoin="round" d="
				M121.45541,408.76356L121.21538,408.76356L121.45541,408.76356L121.45541,408.76356"/>
			<path clip-path="url(#SVG_CP_2)" fill="none" stroke="#999999" stroke-width="0.96012" stroke-miterlimit="10" stroke-linecap="round" stroke-linejoin="round" d="
				M241.47064,430.12584L241.47064,427.24553L241.23061,427.24553L241.23061,426.76548L241.23061,426.52545L240.99058,426.52545
				L240.99058,426.28543L240.75055,426.28543L240.75055,426.0454L240.51052,426.0454L240.27049,426.0454L240.27049,425.80537L240.03046,425.80537
				L240.03046,425.56535L240.03046,425.32532L239.79043,425.32532L239.79043,425.0853L239.5504,425.0853L239.5504,424.84527L239.31037,424.84527
				L239.31037,424.60525L239.07034,424.60525L238.83031,424.60525L238.83031,424.36522L238.59028,424.36522L238.59028,424.1252L
				238.59028,423.64514L238.35025,423.64514L238.35025,423.40512L238.11022,423.40512L237.87019,423.40512L237.87019,423.16509L
				237.63016,423.16509L237.63016,422.92507L237.39013,422.92507L237.39013,422.68504L237.1501,422.68504L237.1501,422.44502L237.1501,422.20499
				L236.91007,422.20499L236.91007,421.96497L236.67003,421.96497L236.43,421.96497L236.43,421.72494L236.18997,421.72494L236.18997,421.48491
				L235.94994,421.48491L235.94994,421.24489L235.94994,421.00486L235.70991,421.00486L235.70991,420.76484L235.46988,420.76484
				L235.22985,420.76484L235.22985,420.52481L234.98982,420.52481L234.98982,420.28479L234.74979,420.28479L234.74979,420.04476
				L234.50976,420.04476L234.50976,419.80474L234.50976,419.56471L234.26973,419.56471L234.26973,419.32468L234.0297,419.32468L
				233.78967,419.32468L233.78967,419.08466L233.54964,419.08466L233.54964,418.84463L233.30961,418.84463L233.30961,418.60461L
				233.30961,418.36458L233.06958,418.36458L233.06958,418.12456L232.82955,418.12456L232.82955,417.88453L232.58952,417.88453L
				232.34949,417.88453L232.34949,417.64451L232.10946,417.64451L232.10946,417.40448L231.86943,417.40448L231.86943,417.16445L
				231.86943,416.92443L231.62939,416.92443L231.62939,416.6844L231.38936,416.6844L231.14933,416.6844L231.14933,416.44438L230.9093,416.44438
				L230.9093,416.20435L230.66927,416.20435L230.66927,415.96433L230.66927,415.7243L230.42924,415.7243L230.42924,415.48427L230.18921,415.48427
				L230.18921,415.24425L229.94918,415.24425L229.70915,415.24425L229.70915,415.00422L229.46912,415.00422L229.46912,414.7642L
				229.22909,414.7642L229.22909,414.52417L229.22909,414.28415L228.98906,414.28415L228.98906,414.04412L228.74903,414.04412L228.509,414.04412
				L228.509,413.8041L228.26897,413.8041L228.26897,413.56407L228.02894,413.56407L228.02894,413.32404L228.02894,413.08402L227.78891,413.08402
				L227.78891,412.84399L227.54888,412.84399L227.54888,412.60397L227.30885,412.60397L227.06882,412.60397L227.06882,412.36394
				L226.82879,412.36394L226.82879,412.12392L226.58876,412.12392L226.58876,411.88389L226.58876,411.64387L226.34872,411.64387
				L226.34872,411.40384L226.10869,411.40384L225.86866,411.40384L225.86866,411.16381L225.62863,411.16381L225.62863,410.92379
				L225.3886,410.92379L225.3886,410.68376L225.14857,410.68376L225.14857,410.44374L225.14857,410.20371L224.90854,410.20371L224.90854,409.96369
				L224.66851,409.96369L224.42848,409.96369L224.42848,409.72366L224.18845,409.72366L224.18845,409.48364L223.94842,409.48364
				L223.94842,409.24361L223.94842,409.00358L223.70839,409.00358L223.70839,408.76356L223.46836,408.76356L223.22833,408.76356
				L223.22833,408.52353L222.9883,408.52353L222.9883,408.28351L222.74827,408.28351L222.74827,408.04348L222.50824,408.04348L222.50824,407.56343
				L222.50824,407.32341L222.26821,407.32341L222.02818,407.32341L222.02818,407.08338L221.78815,407.08338L221.78815,406.60333
				L221.54812,406.60333L221.54812,405.16318L221.30809,405.16318L221.30809,404.92315L221.30809,404.68312L221.06805,404.68312
				L220.82802,404.68312L220.82802,404.4431L220.58799,404.4431L220.58799,404.20307L220.34796,404.20307L220.34796,403.96305L220.10793,403.96305
				L220.10793,403.72302L219.8679,403.72302L219.8679,403.483L219.8679,403.24297L219.62787,403.24297L219.38784,403.24297L219.38784,403.00294
				L219.14781,403.00294L219.14781,402.76292L218.90778,402.76292L218.90778,402.52289L218.66775,402.52289L218.66775,402.28287
				L218.66775,402.04284L218.42772,402.04284L218.18769,402.04284L218.18769,401.80282L217.94766,401.80282L217.94766,401.56279
				L217.70763,401.56279L217.70763,401.32277L217.4676,401.32277L217.4676,401.08274L217.22757,401.08274L217.22757,400.84271L217.22757,400.60269
				L216.98754,400.60269L216.74751,400.60269L216.74751,400.36266L216.50748,400.36266L216.50748,400.12264L216.26745,400.12264
				L216.26745,399.88261L216.02742,399.88261L216.02742,399.64259L216.02742,399.40256L215.78738,399.40256L215.54735,399.40256
				L215.54735,399.16254L215.30732,399.16254L215.30732,398.92251L215.06729,398.92251L215.06729,398.68248L214.82726,398.68248
				L214.82726,398.44246L214.58723,398.44246L214.58723,398.20243L214.58723,397.96241L214.3472,397.96241L214.10717,397.96241L
				214.10717,397.72238L213.86714,397.72238L213.86714,397.48236L213.62711,397.48236L213.62711,397.24233L213.86714,397.24233L
				213.86714,397.00231L214.3472,397.00231L214.3472,396.76228L214.58723,396.76228L214.82726,396.76228L214.82726,396.52225L215.30732,396.52225
				L215.30732,396.28223L215.54735,396.28223L215.54735,396.0422L216.02742,396.0422L216.02742,395.80218L216.02742,395.56215L216.50748,395.56215
				L216.50748,395.32213L216.98754,395.32213L217.22757,395.32213L217.22757,395.0821L217.4676,395.0821L217.4676,394.84208L217.70763,394.84208
				L217.70763,394.60205L217.94766,394.60205L217.94766,394.36202L218.42772,394.36202L218.42772,394.122L218.66775,394.122L218.66775,393.88197
				L219.14781,393.88197L219.14781,393.64195L219.38784,393.64195L219.38784,393.40192L219.8679,393.40192L219.8679,393.1619L219.8679,392.92187
				L220.10793,392.92187L220.10793,392.68185L220.58799,392.68185L220.82802,392.68185L220.82802,392.44182L221.06805,392.44182
				L221.06805,392.20179L221.30809,392.20179L221.30809,391.96177L221.54812,391.96177L221.54812,391.72174L221.78815,391.72174
				L221.78815,391.48172L222.26821,391.48172L222.50824,391.48172L222.50824,391.24169L222.50824,391.00167L222.9883,391.00167L
				222.9883,390.76164L223.22833,390.76164L223.22833,390.52161L223.46836,390.52161L223.46836,390.28159L223.94842,390.28159L223.94842,390.04156
				L224.18845,390.04156L224.18845,389.80154L224.66851,389.80154L224.66851,389.56151L224.90854,389.56151L224.90854,389.32149
				L225.14857,389.32149L225.14857,389.08146L225.3886,389.08146L225.3886,388.84144L225.62863,388.84144L225.62863,388.60141L225.86866,388.60141
				L226.34872,388.60141L226.34872,388.36138L226.58876,388.36138L226.58876,388.12136L226.58876,387.88133L227.06882,387.88133
				L227.06882,387.64131L227.30885,387.64131L227.30885,387.40128L227.54888,387.40128L228.02894,387.40128L228.02894,387.16126
				L228.02894,386.92123L228.26897,386.92123L228.26897,386.68121L228.74903,386.68121L228.74903,386.44118L228.98906,386.44118
				L228.98906,386.20115L229.22909,386.20115L229.22909,385.96113L229.46912,385.96113L229.70915,385.96113L229.70915,385.7211L
				229.94918,385.7211L229.94918,385.48108L230.42924,385.48108L230.42924,385.24105L230.66927,385.24105L230.66927,385.00103L230.66927,384.761
				L231.14933,384.761L231.38936,384.761L231.38936,384.52098L231.62939,384.52098L231.62939,384.28095L231.86943,384.28095L231.86943,384.04092
				L232.10946,384.04092L232.10946,382.8408L231.86943,382.8408L231.86943,381.88069L231.86943,381.64067L229.94918,381.64067L229.94918,381.40064
				L229.22909,381.40064L229.22909,381.16062L229.22909,380.68057L228.98906,380.68057L228.74903,380.68057L228.74903,380.44054
				L228.509,380.44054L228.509,380.20051L228.26897,380.20051L228.26897,379.96049L228.02894,379.96049L228.02894,379.48044L227.78891,379.48044
				L227.78891,379.24041L227.54888,379.24041L227.54888,379.00039L227.30885,379.00039L227.30885,378.76036L227.06882,378.76036
				L227.06882,378.28031L226.82879,378.28031L226.82879,378.04028L226.58876,378.04028L224.42848,378.04028L224.42848,377.80026
				L224.18845,377.80026L224.18845,377.56023L223.94842,377.56023L223.94842,377.32021L223.70839,377.32021L223.70839,377.08018
				L223.46836,377.08018L223.46836,376.84016L223.22833,376.84016L223.22833,376.60013L222.9883,376.60013L222.74827,376.60013L
				222.74827,376.36011L222.50824,376.36011L222.50824,376.12008L222.26821,376.12008L222.26821,375.88005L221.78815,375.88005L
				221.78815,375.64003L221.30809,375.64003L221.30809,372.99975L221.54812,372.99975L221.54812,372.75972L221.78815,372.75972L
				221.78815,372.5197L222.02818,372.5197L222.02818,372.27967L222.26821,372.27967L222.26821,372.03965L222.50824,372.03965L222.50824,371.55959
				L222.50824,371.31957L222.74827,371.31957L222.9883,371.31957L222.9883,371.07954L223.22833,371.07954L223.22833,370.83952L224.66851,370.83952
				L224.66851,371.07954L225.14857,371.07954L225.14857,370.83952L225.3886,370.83952L225.3886,370.59949L225.62863,370.59949L225.62863,370.35947
				L226.10869,370.35947L226.10869,370.11944L226.34872,370.11944L226.58876,370.11944L226.58876,369.87942L226.58876,369.63939
				L226.82879,369.63939L226.82879,369.39936L227.06882,369.39936L227.06882,369.15934L227.54888,369.15934L227.54888,368.91931
				L227.78891,368.91931L227.78891,368.67929L228.02894,368.67929L228.02894,368.43926L228.26897,368.43926L228.26897,368.19924
				L228.74903,368.19924L228.74903,367.95921L228.98906,367.95921L228.98906,367.71918L229.22909,367.71918L229.22909,367.47916
				L229.46912,367.47916L229.46912,367.23913L229.94918,367.23913L229.94918,366.99911L230.18921,366.99911L230.18921,366.75908
				L230.42924,366.75908L230.42924,366.51906L230.66927,366.51906L230.66927,366.27903L230.66927,366.03901L230.9093,366.03901L
				231.38936,366.03901L231.38936,365.79898L231.62939,365.79898L231.62939,365.55895L231.86943,365.55895L231.86943,365.31893L
				231.86943,365.0789L232.10946,365.0789L232.10946,364.83888L232.58952,364.83888L232.82955,364.83888L232.82955,364.59885L233.06958,364.59885
				L233.06958,364.35883L233.30961,364.35883L233.30961,364.1188L233.30961,363.87878L233.54964,363.87878L233.54964,363.63875L
				234.0297,363.63875L234.0297,363.39872L234.26973,363.39872L234.50976,363.39872L234.50976,363.1587L234.74979,363.1587L234.74979,362.91867
				L234.98982,362.91867L234.98982,362.67865L235.46988,362.67865L235.46988,362.43862L235.94994,362.43862L235.94994,362.1986L
				235.94994,361.95857L236.43,361.95857L236.91007,361.95857L236.91007,361.71855L237.1501,361.71855L237.1501,361.47852L237.39013,361.47852
				L237.39013,361.23849L237.87019,361.23849L237.87019,361.47852L238.11022,361.47852L238.11022,361.71855L238.35025,361.71855
				L238.35025,361.95857L238.59028,361.95857L238.59028,362.43862L238.59028,362.67865L238.83031,362.67865L238.83031,363.1587L
				239.07034,363.1587L239.07034,363.39872L239.31037,363.39872L239.31037,363.63875L239.5504,363.63875L239.5504,364.1188L239.79043,364.1188
				L239.79043,364.35883L240.03046,364.35883L240.03046,364.83888L240.03046,365.0789L240.27049,365.0789L240.27049,365.31893L240.51052,365.31893
				L240.51052,365.79898L240.75055,365.79898L240.75055,366.03901L240.99058,366.03901L240.99058,366.27903L241.23061,366.27903
				L241.23061,366.75908L241.23061,366.99911L241.47064,366.99911L241.47064,367.47916L241.71067,367.47916L241.9507,367.47916L
				241.9507,367.71918L242.19074,367.71918L242.19074,367.95921L242.43077,367.95921L242.43077,368.19924L242.6708,368.19924L242.6708,368.43926
				L242.6708,368.67929L242.91083,368.67929L243.15086,368.67929L243.15086,368.91931L244.11098,368.91931L244.11098,369.15934L
				245.31113,369.15934L245.31113,369.39936L246.75131,369.39936L246.75131,369.63939L247.95147,369.63939L247.95147,369.87942L
				249.39165,369.87942L249.39165,370.11944L250.5918,370.11944L251.31189,370.11944L251.79195,370.11944L251.79195,369.87942L252.51205,369.87942
				L252.51205,369.63939L252.99211,369.63939L252.99211,369.39936L253.47217,369.39936L253.47217,369.15934L254.19226,369.15934
				L254.19226,368.91931L254.43229,368.91931L254.43229,368.67929L254.67232,368.67929L254.91235,368.67929L254.91235,368.43926
				L255.15238,368.43926L255.15238,368.19924L255.63244,368.19924L255.63244,367.95921L255.87247,367.95921L255.87247,367.71918
				L256.1125,367.71918L256.1125,367.47916L256.35253,367.47916L256.83259,367.47916L256.83259,367.23913L257.07262,367.23913L257.07262,366.99911
				L257.31265,366.99911L257.31265,366.75908L257.55268,366.75908L257.55268,366.51906L258.03275,366.51906L258.03275,366.27903
				L258.27278,366.27903L258.27278,366.03901L258.51281,366.03901L258.51281,365.79898L258.75284,365.79898L258.75284,365.55895
				L258.99287,365.55895L258.99287,365.31893L259.2329,365.31893L259.2329,365.0789L259.47293,365.0789L259.47293,364.83888L259.71296,364.83888
				L259.95299,364.83888L259.95299,364.35883L259.95299,364.1188L260.19302,364.1188L260.19302,363.87878L260.43305,363.87878L260.43305,363.63875
				L260.67308,363.63875L260.67308,363.39872L260.91311,363.39872L261.15314,363.39872L261.15314,362.91867L261.15314,362.67865
				L261.39317,362.67865L261.39317,362.43862L261.6332,362.43862L261.6332,362.1986L261.87323,362.1986L261.87323,361.95857L262.11326,361.95857
				L262.35329,361.95857L262.35329,361.47852L262.59332,361.47852L262.59332,361.23849L262.59332,360.99847L262.83335,360.99847
				L262.83335,360.75844L263.07339,360.75844L263.31342,360.75844L263.31342,360.51842L263.55345,360.51842L263.55345,360.03837
				L263.79348,360.03837L263.79348,359.79834L263.79348,359.55832L264.03351,359.55832L264.03351,359.31829L264.27354,359.31829
				L264.51357,359.31829L264.51357,359.07826L264.7536,359.07826L264.7536,358.83824L265.23366,358.83824L265.23366,358.59821L265.23366,358.35819
				L265.71372,358.35819L265.71372,358.11816L265.95375,358.11816L266.43381,358.11816L266.43381,357.87814L266.67384,357.87814
				L266.67384,357.63811L266.91387,357.63811L266.91387,357.39809L267.39393,357.39809L267.39393,357.15806L267.87399,357.15806
				L267.87399,356.91803L267.87399,356.67801L268.35406,356.67801L268.59409,356.67801L268.59409,356.19796L268.83412,356.19796
				L268.83412,355.71791L269.07415,355.71791L269.07415,355.47788L269.31418,355.47788L269.31418,355.23785L269.31418,354.7578L
				269.55421,354.7578L269.55421,354.27775L269.79424,354.27775L269.79424,354.03773L270.03427,354.03773L270.03427,353.55768L270.2743,353.55768
				L270.2743,353.31765L270.51433,353.31765L270.51433,352.8376L270.51433,352.59757L270.75436,352.59757L270.75436,352.11752L270.99439,352.11752
				L270.99439,351.63747L271.23442,351.63747L271.23442,351.39745L271.47445,351.39745L271.47445,350.91739L271.71448,350.91739
				L271.71448,350.19732L271.95451,350.19732L271.95451,349.95729L271.95451,349.23722L272.19454,349.23722L272.19454,348.75716
				L272.43457,348.75716L272.43457,348.27711L272.6746,348.27711L272.6746,347.79706L272.91463,347.79706L272.91463,347.31701L273.15466,347.31701
				L273.15466,346.59693L273.15466,346.11688L273.3947,346.11688L273.3947,345.63683L273.63473,345.63683L273.63473,345.15678L273.87476,345.15678
				L273.87476,344.67673L274.11479,344.67673L274.11479,344.19668L274.35482,344.19668L274.35482,343.4766L274.59485,343.4766L274.59485,343.23658
				L274.59485,342.5165L274.83488,342.5165L274.83488,342.03645L275.07491,342.03645L275.07491,342.27647L275.31494,342.27647L275.31494,343.95665
				L275.55497,343.95665L275.55497,344.19668L275.795,344.19668L275.795,344.4367L275.795,344.67673L276.03503,344.67673L276.27506,344.67673
				L276.27506,344.91676L276.51509,344.91676L276.51509,345.15678L276.99515,345.15678L276.99515,344.91676L277.23518,344.91676
				L277.23518,344.67673L277.23518,344.4367L277.47521,344.4367L277.47521,344.19668L277.71524,344.19668L277.71524,343.95665L277.95527,343.95665
				L277.95527,343.71663L278.1953,343.71663L278.1953,343.4766L278.43533,343.4766L278.43533,343.23658L278.9154,343.23658L278.9154,343.4766
				L279.15543,343.4766L279.63549,343.4766L279.63549,343.95665L279.87552,343.95665L279.87552,346.83696L279.63549,346.83696L279.63549,347.55704
				L279.87552,347.55704L279.87552,352.59757L279.87552,352.8376L280.11555,352.8376L280.11555,353.07762L280.35558,353.07762L280.35558,353.31765
				L280.59561,353.31765L280.59561,353.7977L280.83564,353.7977L280.83564,354.03773L281.07567,354.03773L281.07567,354.51778L281.3157,354.51778
				L281.3157,354.7578L281.3157,355.23785L281.55573,355.23785L281.55573,355.47788L281.79576,355.47788L281.79576,355.71791L282.03579,355.71791
				L282.03579,356.19796L282.27582,356.19796L282.27582,356.43798L282.51585,356.43798L282.51585,356.67801L282.75588,356.67801
				L282.75588,356.91803L282.99591,356.91803L282.99591,357.15806L283.23594,357.15806L283.23594,357.39809L283.47597,357.39809
				L283.47597,357.63811L283.716,357.63811L283.716,357.87814L283.95604,357.87814L283.95604,358.11816L284.19607,358.11816L284.19607,358.35819
				L284.4361,358.35819L284.4361,358.59821L284.67613,358.59821L284.67613,358.83824L284.91616,358.83824L284.91616,359.07826L285.15619,359.07826
				L285.15619,359.31829L285.15619,359.55832L285.39622,359.55832L285.39622,359.79834L285.63625,359.79834L285.63625,360.03837
				L285.87628,360.03837L285.87628,360.27839L286.11631,360.27839L286.11631,360.51842L286.35634,360.51842L286.35634,360.75844
				L286.59637,360.75844L286.59637,360.99847L286.8364,360.99847L286.8364,361.23849L287.31646,361.23849L287.31646,361.47852L287.55649,361.47852
				L287.55649,361.71855L287.79652,361.71855L287.79652,361.95857L288.03655,361.95857L288.51661,361.95857L288.51661,362.1986L
				288.75664,362.1986L288.75664,362.43862L288.99668,362.43862L288.99668,362.67865L289.23671,362.67865L289.23671,362.91867L289.23671,363.1587
				L289.47674,363.1587L289.47674,363.39872L289.71677,363.39872L289.9568,363.39872L289.9568,363.63875L290.19683,363.63875L290.19683,363.87878
				L290.43686,363.87878L290.43686,364.1188L290.67689,364.1188L290.67689,364.59885L290.91692,364.59885L290.91692,364.83888L291.15695,364.83888
				L291.39698,364.83888L291.39698,365.31893L291.63701,365.31893L291.63701,365.55895L291.87704,365.55895L291.87704,366.03901
				L292.11707,366.03901L292.11707,366.27903L292.3571,366.27903L292.3571,366.75908L292.59713,366.75908L292.59713,366.99911L292.83716,366.99911
				L292.83716,367.23913L293.07719,367.23913L293.07719,367.47916L293.07719,367.71918L293.31722,367.71918L293.31722,367.95921
				L293.55725,367.95921L293.55725,368.43926L293.79728,368.43926L293.79728,368.67929L294.03731,368.67929L294.27735,368.67929
				L294.27735,369.15934L294.51738,369.15934L294.51738,369.39936L294.51738,369.63939L294.75741,369.63939L294.75741,369.87942
				L294.99744,369.87942L294.99744,370.11944L295.23747,370.11944L295.23747,370.35947L295.4775,370.35947L295.4775,370.83952L295.71753,370.83952
				L295.71753,371.31957L295.95756,371.31957L295.95756,371.79962L296.19759,371.79962L296.19759,372.03965L296.43762,372.03965
				L296.43762,372.5197L296.67765,372.5197L296.67765,372.75972L296.91768,372.75972L296.91768,372.99975L297.15771,372.99975L297.15771,373.4798
				L297.15771,373.95985L297.39774,373.95985L297.63777,373.95985L297.63777,374.4399L297.8778,374.4399L297.8778,374.91995L298.11783,374.91995
				L298.11783,375.4L298.35786,375.4L298.35786,375.64003L298.59789,375.64003L298.59789,376.12008L298.59789,376.36011L298.83792,376.36011
				L298.83792,376.84016L299.07795,376.84016L299.07795,377.32021L299.31798,377.32021L299.31798,378.04028L299.55802,378.04028
				L299.55802,380.20051L299.31798,380.20051L299.31798,381.16062L299.55802,381.16062L299.55802,381.64067L299.79805,381.64067
				L299.79805,382.12072L299.79805,382.60077L300.03808,382.60077L300.03808,383.32085L300.27811,383.32085L300.27811,383.8009L
				300.51814,383.8009L300.51814,384.28095L300.75817,384.28095L300.75817,384.761L300.9982,384.761L300.9982,385.48108L301.23823,385.48108
				L301.23823,385.7211L300.9982,385.7211L300.9982,386.68121L300.75817,386.68121L300.75817,388.60141L300.9982,388.60141L300.9982,389.08146
				L301.23823,389.08146L301.23823,391.48172L301.23823,393.88197L301.47826,393.88197L301.47826,397.24233L301.71829,397.24233
				L301.71829,401.08274L301.95832,401.08274L301.95832,401.56279L302.19835,401.56279L302.19835,402.28287L302.43838,402.28287
				L302.43838,403.00294L302.43838,403.483L302.67841,403.483L302.67841,404.20307L302.91844,404.20307L302.91844,404.68312L303.15847,404.68312
				L303.15847,405.16318L303.3985,405.16318L303.3985,405.88325L303.63853,405.88325L303.63853,406.3633L303.87856,406.3633L303.87856,407.08338
				L303.87856,407.56343L304.11859,407.56343L304.11859,408.52353L304.35862,408.52353L304.35862,409.24361L304.59865,409.24361
				L304.59865,409.96369L304.83869,409.96369L304.83869,410.92379L305.07872,410.92379L305.07872,411.64387L305.07872,412.36394
				L305.07872,412.84399L304.83869,412.84399L304.83869,413.32404L304.59865,413.32404L304.59865,414.04412L304.35862,414.04412
				L304.35862,414.28415L304.11859,414.28415L304.11859,415.00422L303.87856,415.00422L303.87856,415.24425L303.87856,415.96433
				L303.63853,415.96433L303.63853,416.44438L303.3985,416.44438L303.3985,416.6844L303.15847,416.6844L303.15847,417.16445L302.91844,417.16445
				L302.91844,417.64451L302.67841,417.64451L302.67841,417.88453L302.43838,417.88453L302.43838,418.60461L302.43838,419.08466
				L302.19835,419.08466L302.19835,419.32468L301.95832,419.32468L301.95832,420.04476L301.71829,420.04476L301.71829,421.72494
				L301.47826,421.72494L301.47826,423.40512"/>
			<path clip-path="url(#SVG_CP_2)" fill="none" stroke="#999999" stroke-width="0.96012" stroke-miterlimit="10" stroke-linecap="round" stroke-linejoin="round" d="
				M301.47826,423.40512L301.23823,423.40512L301.47826,423.40512L301.47826,423.64514L301.71829,423.64514L301.71829,423.88517
				L301.95832,423.88517L301.95832,424.1252L302.19835,424.1252L302.19835,424.36522L302.43838,424.36522L302.43838,424.60525L302.67841,424.60525
				L302.67841,424.84527L302.91844,424.84527L302.91844,425.0853L303.15847,425.0853L303.15847,425.32532L303.3985,425.32532L303.3985,425.56535
				L303.63853,425.56535L303.63853,425.80537L303.87856,425.80537L303.87856,426.0454L303.87856,427.0055L304.11859,427.0055L304.11859,436.12647
				L303.87856,436.12647L303.87856,436.3665L303.63853,436.3665L303.63853,436.60653L303.15847,436.60653L302.43838,436.60653L302.43838,436.84655
				L302.19835,436.84655L302.19835,437.08658L301.71829,437.08658L301.71829,436.84655L301.47826,436.84655L301.47826,436.60653
				L301.23823,436.60653L301.23823,436.3665L300.9982,436.3665L300.9982,436.12647L300.75817,436.12647L300.75817,435.88645L300.51814,435.88645
				L300.51814,435.64642L300.27811,435.64642L300.27811,435.4064L300.03808,435.4064L299.79805,435.4064L299.79805,435.16637L299.79805,434.92635
				L299.55802,434.92635L299.55802,434.68632L299.31798,434.68632L299.31798,434.4463L299.07795,434.4463L299.07795,433.72622L298.83792,433.72622
				L298.83792,433.48619L298.59789,433.48619L298.59789,433.24617L298.59789,433.00614L298.35786,433.00614L298.35786,432.76612
				L298.11783,432.76612L298.11783,432.52609L297.8778,432.52609L297.8778,432.28607L297.63777,432.28607L297.63777,432.76612L297.39774,432.76612
				L297.39774,433.24617L297.15771,433.24617L297.15771,433.96624L297.15771,434.20627L296.91768,434.20627L296.91768,434.92635
				L296.67765,434.92635L296.67765,435.4064L296.43762,435.4064L296.43762,435.64642L296.19759,435.64642L296.19759,436.12647L295.95756,436.12647
				L295.95756,436.60653L295.95756,437.08658L295.95756,438.04668L296.19759,438.04668L296.67765,438.04668L296.67765,438.2867L
				296.91768,438.2867L296.91768,438.52673L297.15771,438.52673L297.15771,438.76676L297.15771,439.00678L297.39774,439.00678L297.39774,439.24681
				L297.63777,439.24681L297.39774,439.24681L297.39774,439.48683L297.15771,439.48683L297.15771,439.72686L296.67765,439.72686
				L296.67765,439.96688L296.19759,439.96688L296.19759,440.20691L295.95756,440.20691L295.95756,440.44693L295.23747,440.44693
				L295.23747,440.68696L294.75741,440.68696L294.75741,440.20691L294.51738,440.20691L294.51738,439.72686L294.51738,439.24681
				L294.27735,439.24681L294.27735,439.00678L294.03731,439.00678L294.03731,438.52673L293.79728,438.52673L293.79728,438.04668
				L293.55725,438.04668L293.55725,437.80665L293.31722,437.80665L293.31722,437.3266L293.07719,437.3266L293.07719,436.84655L293.07719,436.60653
				L292.83716,436.60653L292.83716,436.12647L292.59713,436.12647L292.59713,435.64642L292.3571,435.64642L292.3571,435.4064L292.11707,435.4064
				L292.11707,434.92635L291.87704,434.92635L291.87704,434.4463L291.87704,433.96624L291.63701,433.96624L291.63701,433.72622L
				291.39698,433.72622L291.39698,433.24617L291.15695,433.24617L291.15695,432.76612L290.91692,432.76612L290.91692,432.52609L
				290.67689,432.52609L290.67689,432.04604L290.43686,432.04604L290.43686,431.56599L290.43686,431.32596L290.19683,431.32596L
				290.19683,430.84591L289.9568,430.84591L289.9568,430.36586L289.71677,430.36586L289.71677,429.88581L289.47674,429.88581L289.47674,429.40576
				L289.23671,429.40576L289.23671,428.92571L289.23671,428.68568L288.99668,428.68568L288.99668,428.20563L287.79652,428.20563
				L287.79652,428.44566L286.59637,428.44566L286.59637,428.68568L285.15619,428.68568L284.91616,428.68568L284.91616,428.92571
				L284.4361,428.92571L284.4361,429.16573L283.95604,429.16573L283.95604,429.40576L283.716,429.40576L283.716,429.64578L283.23594,429.64578
				L283.23594,429.88581L282.51585,429.88581L282.51585,430.12584L282.03579,430.12584L282.03579,430.36586L281.79576,430.36586
				L281.79576,430.60589L281.3157,430.60589L281.3157,430.84591L281.3157,431.08594L281.07567,431.08594L281.07567,431.32596L280.59561,431.32596
				L280.35558,431.32596L280.35558,431.56599L280.11555,431.56599L280.11555,431.80601L279.87552,431.80601L279.87552,432.04604
				L279.63549,432.04604L279.63549,432.28607L279.15543,432.28607L279.15543,432.52609L278.9154,432.52609L278.9154,432.76612L278.67537,432.76612
				L278.43533,432.76612L278.43533,433.00614L278.1953,433.00614L278.1953,433.24617L277.95527,433.24617L277.95527,433.48619L277.23518,433.48619
				L277.23518,433.72622L276.75512,433.72622L276.75512,433.96624L276.03503,433.96624L275.55497,433.96624L275.55497,434.20627
				L274.83488,434.20627L274.83488,434.4463L274.59485,434.4463L274.59485,434.68632L273.87476,434.68632L273.87476,434.92635L273.15466,434.92635
				L273.15466,435.16637L272.6746,435.16637L272.6746,435.4064L271.95451,435.4064L271.47445,435.4064L271.47445,435.64642L270.75436,435.64642
				L270.75436,435.88645L270.2743,435.88645L270.2743,436.12647L269.55421,436.12647L269.55421,436.3665L269.31418,436.3665L269.31418,436.60653
				L268.83412,436.60653L268.35406,436.60653L268.35406,436.84655L267.87399,436.84655L267.87399,437.08658L267.63396,437.08658
				L267.63396,437.3266L267.1539,437.3266L267.1539,437.56663L266.67384,437.56663L266.67384,437.80665L266.19378,437.80665L266.19378,438.04668
				L265.47369,438.04668L265.23366,438.04668L265.23366,438.2867L264.51357,438.2867L264.51357,438.52673L264.03351,438.52673L264.03351,438.76676
				L260.91311,438.76676L260.91311,439.00678L259.2329,439.00678L259.2329,439.24681L258.51281,439.24681L258.03275,439.24681L258.03275,439.48683
				L257.55268,439.48683L257.55268,439.72686L257.31265,439.72686L257.31265,439.96688L256.59256,439.96688L256.59256,440.20691
				L256.1125,440.20691L256.1125,440.44693L255.63244,440.44693L255.63244,440.68696L254.67232,440.68696L253.7122,440.68696L253.7122,440.92699
				L250.5918,440.92699L250.5918,440.68696L247.47141,440.68696L246.03122,440.68696L246.03122,440.44693L242.6708,440.44693L242.6708,431.08594
				L242.43077,431.08594L242.43077,430.84591L242.19074,430.84591L242.19074,430.60589L241.9507,430.60589L241.9507,430.36586L241.71067,430.36586
				L241.71067,430.12584L241.47064,430.12584"/>
			<path clip-path="url(#SVG_CP_2)" fill="none" stroke="#999999" stroke-width="0.96012" stroke-miterlimit="10" stroke-linecap="round" stroke-linejoin="round" d="
				M121.45541,408.76356L122.65557,408.76356L123.37566,408.76356L124.33578,408.76356L124.33578,409.00358L125.2959,409.00358L
				125.2959,409.24361L126.49605,409.24361L126.49605,409.48364L126.73608,409.48364L126.73608,409.72366L127.21614,409.72366L127.21614,409.96369
				L127.93624,409.96369L128.17627,409.96369L128.17627,410.20371L128.89636,410.20371L128.89636,410.44374L129.37642,410.44374
				L129.37642,410.68376L129.61645,410.68376L129.61645,410.92379L130.09651,410.92379L130.09651,411.16381L130.8166,411.16381L
				130.8166,410.92379L131.29666,410.92379L131.29666,410.68376L131.77672,410.68376L131.77672,410.44374L132.01675,410.44374L132.01675,410.20371
				L132.01675,409.96369L132.97688,409.96369L132.97688,410.20371L133.21691,410.20371L133.21691,410.44374L133.45694,410.44374
				L133.45694,410.68376L133.45694,410.92379L133.69697,410.92379L133.69697,411.16381L133.937,411.16381L133.937,411.40384L134.17703,411.40384
				L135.13715,411.40384L135.13715,411.64387L135.37718,411.64387L135.37718,411.88389L135.61721,411.88389L135.61721,412.12392
				L135.85724,412.12392L135.85724,412.60397L136.09727,412.60397L136.09727,412.84399L136.09727,413.32404L136.3373,413.32404L
				136.3373,413.56407L136.57733,413.56407L136.57733,414.04412L136.81736,414.04412L136.81736,414.28415L137.05739,414.28415L137.05739,414.7642
				L137.29742,414.7642L137.29742,415.24425L137.53745,415.24425L137.53745,415.7243L137.77748,415.7243L137.77748,415.96433L138.01752,415.96433
				L138.01752,416.44438L138.49758,416.44438L138.49758,416.6844L138.73761,416.6844L139.21767,416.6844L139.21767,416.92443L139.69773,416.92443
				L139.69773,417.16445L139.93776,417.16445L139.93776,417.40448L139.93776,417.64451L140.17779,417.64451L140.17779,417.88453
				L140.65785,417.88453L141.13791,417.88453L141.13791,418.12456L141.37794,418.12456L141.37794,418.36458L141.858,418.36458L141.858,418.60461
				L142.33806,418.60461L142.33806,418.84463L144.01828,418.84463L144.01828,419.08466L144.73837,419.08466L144.73837,418.84463
				L144.9784,418.84463L144.9784,418.60461L145.21843,418.60461L145.21843,418.36458L145.45846,418.36458L145.45846,418.12456L145.45846,417.88453
				L145.69849,417.88453L145.69849,417.64451L145.93852,417.64451L145.93852,417.40448L146.17855,417.40448L146.17855,417.16445
				L146.41858,417.16445L146.41858,416.92443L146.65861,416.92443L146.65861,416.6844L146.65861,416.44438L146.89864,416.44438L
				146.89864,416.20435L147.13867,416.20435L147.13867,415.96433L147.3787,415.96433L147.3787,415.7243L147.61873,415.7243L147.61873,415.24425
				L147.85876,415.24425L148.09879,415.24425L148.09879,415.00422L148.09879,414.7642L148.33883,414.7642L148.33883,414.28415L148.09879,414.28415
				L148.09879,414.04412L147.85876,414.04412L147.85876,413.8041L147.61873,413.8041L147.61873,413.32404L147.3787,413.32404L147.3787,413.08402
				L147.61873,413.08402L147.61873,412.84399L147.85876,412.84399L147.85876,412.60397L148.09879,412.60397L148.09879,412.36394
				L148.33883,412.36394L148.33883,412.12392L148.57886,412.12392L148.57886,411.88389L148.81889,411.88389L148.81889,411.64387
				L149.05892,411.64387L149.05892,411.40384L149.29895,411.40384L149.29895,411.16381L149.29895,410.92379L149.53898,410.92379
				L149.53898,410.68376L149.77901,410.68376L149.77901,410.44374L150.01904,410.44374L150.01904,410.20371L150.25907,410.20371
				L150.25907,409.96369L150.4991,409.96369L150.73913,409.96369L150.73913,409.72366L150.73913,409.48364L150.97916,409.48364L
				150.97916,409.24361L151.21919,409.24361L151.21919,409.00358L151.45922,409.00358L151.45922,408.76356L151.69925,408.76356L
				151.69925,408.52353L151.93928,408.52353L151.93928,408.28351L151.93928,408.04348L152.17931,408.04348L152.17931,407.80346L
				152.41934,407.80346L152.41934,407.56343L152.65937,407.56343L152.65937,407.32341L152.8994,407.32341L153.13943,407.32341L153.13943,407.08338
				L153.37946,407.08338L153.37946,406.84335L153.37946,406.3633L153.6195,406.3633L153.6195,406.12328L153.85953,406.12328L154.09956,406.12328
				L154.09956,405.88325L154.33959,405.88325L154.33959,405.64323L154.57962,405.64323L154.57962,405.4032L154.81965,405.4032L154.81965,405.64323
				L155.05968,405.64323L155.05968,405.88325L155.29971,405.88325L155.29971,406.12328L155.53974,406.12328L155.77977,406.12328
				L155.77977,406.3633L156.0198,406.3633L156.0198,406.60333L156.0198,406.84335L156.25983,406.84335L156.25983,407.08338L156.49986,407.08338
				L156.49986,407.32341L156.73989,407.32341L156.97992,407.32341L156.97992,407.56343L157.21995,407.56343L157.21995,407.80346
				L157.45998,407.80346L157.45998,408.04348L157.45998,408.28351L157.70001,408.28351L157.70001,408.52353L157.94004,408.52353
				L157.94004,408.76356L158.18007,408.76356L158.4201,408.76356L158.4201,409.00358L158.66013,409.00358L158.66013,409.24361L158.66013,409.48364
				L158.90017,409.48364L158.90017,409.72366L159.1402,409.72366L159.1402,409.96369L159.38023,409.96369L159.62026,409.96369L159.62026,410.20371
				L159.86029,410.20371L159.86029,410.44374L160.10032,410.44374L160.10032,410.68376L160.10032,410.92379L160.34035,410.92379
				L160.34035,411.16381L160.58038,411.16381L160.58038,411.40384L160.82041,411.40384L160.82041,411.64387L160.58038,411.64387
				L160.58038,411.88389L160.34035,411.88389L160.34035,412.12392L160.10032,412.12392L160.10032,412.36394L160.34035,412.36394
				L160.34035,412.60397L160.58038,412.60397L160.58038,412.84399L160.82041,412.84399L160.82041,413.32404L161.06044,413.32404
				L161.06044,413.8041L161.30047,413.8041L161.30047,414.04412L161.30047,414.28415L161.5405,414.28415L161.5405,414.52417L161.78053,414.52417
				L161.78053,415.00422L162.02056,415.00422L162.02056,415.24425L162.26059,415.24425L162.74065,415.24425L162.74065,415.00422
				L162.98068,415.00422L162.98068,414.7642L163.46074,414.7642L163.46074,415.00422L163.70077,415.00422L163.70077,415.24425L163.94081,415.24425
				L163.94081,415.48427L163.94081,415.7243L164.18084,415.7243L164.18084,416.20435L164.42087,416.20435L164.42087,416.44438L164.6609,416.44438
				L164.6609,416.6844L164.90093,416.6844L164.90093,416.92443L165.14096,416.92443L165.14096,419.80474L165.38099,419.80474L165.38099,419.56471
				L165.86105,419.56471L165.86105,419.32468L166.58114,419.32468L166.82117,419.32468L166.82117,419.08466L167.54126,419.08466
				L167.54126,418.84463L168.02132,418.84463L168.02132,418.60461L168.50138,418.60461L168.50138,419.08466L168.74141,419.08466
				L168.74141,419.56471L168.98144,419.56471L168.98144,420.28479L169.22148,420.28479L169.22148,420.04476L169.22148,419.80474
				L169.46151,419.80474L169.46151,419.56471L169.70154,419.56471L169.70154,419.32468L169.94157,419.32468L170.1816,419.32468L
				170.1816,419.08466L170.66166,419.08466L170.66166,418.84463L170.66166,418.60461L170.90169,418.60461L170.90169,418.36458L171.14172,418.36458
				L171.14172,418.12456L171.38175,418.12456L171.38175,417.88453L171.62178,417.88453L171.62178,416.6844L171.38175,416.6844L171.38175,415.48427
				L171.14172,415.48427L171.14172,414.7642L171.38175,414.7642L171.38175,414.52417L171.86181,414.52417L171.86181,414.28415L172.34187,414.28415
				L172.34187,413.32404L172.5819,413.32404L172.5819,413.08402L173.06196,413.08402L173.06196,412.84399L173.30199,412.84399L173.30199,412.60397
				L173.78205,412.60397L173.78205,412.36394L174.02208,412.36394L174.02208,412.12392L174.26211,412.12392L174.26211,411.88389
				L174.74218,411.88389L174.74218,411.64387L174.74218,411.40384L174.98221,411.40384L175.46227,411.40384L175.46227,411.16381
				L175.7023,411.16381L175.7023,410.92379L175.94233,410.92379L175.94233,410.68376L176.18236,410.68376L176.18236,410.44374L176.42239,410.44374
				L176.42239,409.96369L176.18236,409.96369L176.18236,409.00358L175.94233,409.00358L175.94233,408.52353L176.18236,408.52353
				L176.18236,408.28351L176.42239,408.28351L176.42239,408.04348L176.66242,408.04348L176.66242,407.80346L176.90245,407.80346
				L176.90245,407.56343L177.14248,407.56343L177.14248,407.32341L177.38251,407.32341L177.38251,407.08338L177.62254,407.08338
				L177.62254,406.84335L177.86257,406.84335L177.86257,406.60333L178.1026,406.60333L178.1026,406.3633L178.34263,406.3633L178.34263,406.12328
				L178.58266,406.12328L178.82269,406.12328L178.82269,405.88325L179.06272,405.88325L179.06272,405.64323L179.30275,405.64323
				L179.30275,405.4032L179.54278,405.4032L179.54278,405.16318L179.78282,405.16318L179.78282,404.92315L180.02285,404.92315L180.02285,404.68312
				L180.26288,404.68312L180.26288,404.4431L180.50291,404.4431L180.50291,404.20307L180.74294,404.20307L180.74294,403.96305L180.98297,403.96305
				L180.98297,403.72302L181.223,403.72302L181.223,403.483L181.223,403.24297L181.46303,403.24297L181.70306,403.24297L181.70306,403.00294
				L181.94309,403.00294L181.94309,402.76292L182.18312,402.76292L182.18312,402.52289L182.42315,402.52289L182.42315,402.28287
				L182.66318,402.28287L182.66318,402.04284L182.66318,401.80282L182.42315,401.80282L182.42315,401.56279L182.18312,401.56279
				L182.18312,401.32277L181.70306,401.32277L181.70306,401.08274L181.46303,401.08274L181.46303,400.84271L181.223,400.84271L181.223,400.60269
				L180.98297,400.60269L180.74294,400.60269L180.74294,400.36266L180.26288,400.36266L180.26288,400.12264L180.02285,400.12264
				L180.02285,399.88261L179.78282,399.88261L179.78282,399.64259L179.54278,399.64259L179.54278,399.40256L179.06272,399.40256
				L178.82269,399.40256L178.82269,399.16254L178.58266,399.16254L178.58266,398.92251L178.34263,398.92251L178.34263,398.68248
				L177.86257,398.68248L177.86257,398.44246L177.62254,398.44246L177.62254,398.20243L177.38251,398.20243L177.38251,397.96241
				L177.14248,397.96241L176.66242,397.96241L176.66242,397.72238L176.42239,397.72238L176.42239,397.48236L175.94233,397.48236
				L175.94233,397.24233L175.94233,397.00231L175.7023,397.00231L175.7023,396.76228L175.22224,396.76228L174.98221,396.76228L174.98221,396.52225
				L174.74218,396.52225L174.74218,396.28223L174.50215,396.28223L174.50215,396.0422L174.02208,396.0422L174.02208,395.56215L174.26211,395.56215
				L174.26211,395.32213L174.50215,395.32213L174.74218,395.32213L174.74218,395.0821L174.74218,394.60205L174.98221,394.60205L
				174.98221,394.36202L175.22224,394.36202L175.22224,394.122L175.46227,394.122L175.7023,394.122L175.7023,393.64195L175.94233,393.64195
				L175.94233,393.40192L175.94233,393.1619L176.66242,393.1619L176.66242,393.40192L178.58266,393.40192L178.58266,393.64195L180.50291,393.64195
				L180.50291,393.88197L180.98297,393.88197L180.98297,394.122L181.223,394.122L181.94309,394.122L181.94309,394.36202L182.42315,394.36202
				L182.42315,394.60205L182.90321,394.60205L182.90321,394.84208L183.38327,394.84208L183.38327,395.0821L183.86333,395.0821L183.86333,395.32213
				L184.34339,395.32213L184.82346,395.32213L184.82346,395.56215L185.30352,395.56215L185.30352,395.80218L185.30352,396.0422L
				185.78358,396.0422L185.78358,396.28223L186.02361,396.28223L186.02361,396.52225L186.26364,396.52225L186.26364,396.76228L186.50367,396.76228
				L186.7437,396.76228L186.7437,397.00231L186.98373,397.00231L186.98373,397.24233L187.22376,397.24233L187.22376,397.48236L187.46379,397.48236
				L187.46379,397.72238L187.94385,397.72238L187.94385,397.96241L190.58419,397.96241L191.06425,397.96241L191.06425,398.20243
				L191.30428,398.20243L191.30428,398.44246L191.54431,398.44246L191.54431,398.68248L191.78434,398.68248L191.78434,398.92251
				L192.02437,398.92251L192.02437,399.16254L192.2644,399.16254L192.2644,399.40256L192.50443,399.40256L192.74446,399.40256L192.74446,400.12264
				L192.98449,400.12264L192.98449,401.08274L193.22452,401.08274L193.22452,402.04284L193.46455,402.04284L193.46455,402.28287
				L193.70458,402.28287L193.70458,402.52289L193.94461,402.52289L193.94461,402.76292L194.18464,402.76292L194.18464,403.24297
				L194.42467,403.24297L194.6647,403.24297L194.6647,403.483L194.6647,403.72302L194.90473,403.72302L194.90473,403.96305L195.14476,403.96305
				L195.14476,404.20307L195.3848,404.20307L195.3848,404.4431L195.62483,404.4431L195.62483,404.68312L195.86486,404.68312L195.86486,404.92315
				L196.10489,404.92315L196.10489,405.16318L196.34492,405.16318L196.34492,405.4032L196.58495,405.4032L196.58495,405.64323L196.82498,405.64323
				L196.82498,405.88325L197.06501,405.88325L197.06501,406.12328L197.30504,406.12328L197.30504,405.88325L197.54507,405.88325
				L197.54507,405.64323L198.02513,405.64323L198.02513,405.4032L198.26516,405.4032L198.26516,405.16318L198.74522,405.16318L198.74522,404.92315
				L198.74522,404.68312L198.98525,404.68312L199.46531,404.68312L199.46531,404.4431L199.70534,404.4431L199.70534,404.20307L199.94537,404.20307
				L199.94537,403.96305L200.1854,403.96305L200.1854,403.72302L200.42544,403.72302L200.42544,403.483L200.9055,403.483L200.9055,403.24297
				L201.14553,403.24297L201.38556,403.24297L201.38556,403.00294L201.62559,403.00294L201.62559,402.76292L201.86562,402.76292
				L201.86562,402.52289L202.10565,402.52289L202.10565,402.28287L202.58571,402.28287L202.58571,401.80282L202.34568,401.80282
				L202.34568,401.32277L202.10565,401.32277L202.10565,401.08274L202.34568,401.08274L202.34568,400.84271L202.82574,400.84271
				L202.82574,400.60269L203.3058,400.60269L204.02589,400.60269L204.02589,400.36266L204.50595,400.36266L204.50595,400.12264L
				205.22604,400.12264L205.22604,399.88261L206.18617,399.88261L206.18617,399.64259L206.90626,399.64259L206.90626,399.40256L
				207.62635,399.40256L208.34644,399.40256L208.34644,399.16254L209.30656,399.16254L209.30656,398.92251L210.02665,398.92251L
				210.02665,398.68248L210.50671,398.68248L210.50671,398.44246L211.46684,398.44246L211.46684,398.20243L212.18693,398.20243L
				212.18693,397.96241L212.66699,397.96241L212.90702,397.96241L212.90702,397.72238L213.38708,397.72238L213.38708,397.48236L
				213.38708,397.96241L213.62711,397.96241L213.62711,398.20243L213.86714,398.20243L213.86714,398.44246L214.10717,398.44246L
				214.10717,398.68248L214.3472,398.68248L214.3472,399.16254L214.58723,399.16254L214.58723,399.40256L214.82726,399.40256L214.82726,399.88261
				L215.06729,399.88261L215.06729,400.12264L215.30732,400.12264L215.30732,400.36266L215.54735,400.36266L215.54735,400.60269
				L215.78738,400.60269L215.78738,400.84271L216.02742,400.84271L216.02742,401.08274L216.02742,401.56279L216.26745,401.56279
				L216.26745,401.80282L216.50748,401.80282L216.50748,402.04284L216.74751,402.04284L216.74751,402.28287L216.98754,402.28287
				L216.98754,402.52289L217.22757,402.52289L217.22757,402.76292L217.22757,403.00294L217.4676,403.00294L217.4676,403.24297L217.70763,403.24297
				L217.94766,403.24297L217.94766,403.483L218.18769,403.483L218.18769,403.72302L218.42772,403.72302L218.42772,403.96305L218.66775,403.96305
				L218.66775,404.20307L218.66775,404.4431L218.90778,404.4431L218.90778,404.68312L219.14781,404.68312L219.38784,404.68312L219.38784,404.92315
				L219.62787,404.92315L219.62787,405.16318L219.8679,405.16318L219.8679,405.4032L219.8679,405.64323L220.10793,405.64323L220.10793,405.88325
				L220.34796,405.88325L220.34796,406.12328L220.58799,406.12328L220.82802,406.12328L220.82802,406.3633L221.06805,406.3633L221.06805,406.60333
				L221.30809,406.60333L221.30809,406.84335L221.30809,407.08338L221.54812,407.08338L221.54812,407.32341L221.78815,407.32341
				L222.02818,407.32341L222.02818,407.56343L222.26821,407.56343L222.26821,407.80346L222.50824,407.80346L222.50824,408.04348
				L222.50824,408.28351L222.74827,408.28351L222.74827,408.52353L222.9883,408.52353L222.9883,408.76356L223.22833,408.76356L223.46836,408.76356
				L223.46836,409.24361L223.70839,409.24361L223.70839,409.48364L223.94842,409.48364L223.94842,409.72366L223.94842,409.96369
				L224.18845,409.96369L224.42848,409.96369L224.42848,410.20371L224.66851,410.20371L224.66851,410.44374L224.90854,410.44374
				L224.90854,410.68376L225.14857,410.68376L225.14857,410.92379L225.14857,411.16381L225.3886,411.16381L225.3886,411.40384L225.62863,411.40384
				L225.86866,411.40384L225.86866,411.64387L226.10869,411.64387L226.10869,411.88389L226.34872,411.88389L226.34872,412.12392
				L226.58876,412.12392L226.58876,412.36394L226.58876,412.60397L226.82879,412.60397L227.06882,412.60397L227.06882,412.84399
				L227.30885,412.84399L227.30885,413.08402L227.54888,413.08402L227.54888,413.32404L227.78891,413.32404L227.78891,413.56407
				L228.02894,413.56407L228.02894,413.8041L228.02894,414.04412L228.26897,414.04412L228.509,414.04412L228.509,414.28415L228.74903,414.28415
				L228.74903,414.52417L228.98906,414.52417L228.98906,414.7642L229.22909,414.7642L229.22909,415.00422L229.22909,415.24425L229.46912,415.24425
				L229.70915,415.24425L229.70915,415.48427L229.94918,415.48427L229.94918,415.7243L230.18921,415.7243L230.18921,415.96433L230.42924,415.96433
				L230.42924,416.20435L230.66927,416.20435L230.66927,416.44438L230.66927,416.6844L230.9093,416.6844L231.14933,416.6844L231.14933,416.92443
				L231.38936,416.92443L231.38936,417.16445L231.62939,417.16445L231.62939,417.40448L231.86943,417.40448L231.86943,417.64451
				L231.86943,417.88453L232.10946,417.88453L232.34949,417.88453L232.34949,418.12456L232.58952,418.12456L232.58952,418.36458
				L232.82955,418.36458L232.82955,418.60461L233.06958,418.60461L233.06958,418.84463L233.30961,418.84463L233.30961,419.08466
				L233.30961,419.32468L233.54964,419.32468L233.78967,419.32468L233.78967,419.56471L234.0297,419.56471L234.0297,419.80474L234.26973,419.80474
				L234.26973,420.04476L234.50976,420.04476L234.50976,420.28479L234.50976,420.52481L234.74979,420.52481L234.74979,420.76484
				L234.98982,420.76484L235.22985,420.76484L235.22985,421.00486L235.46988,421.00486L235.46988,421.24489L235.70991,421.24489
				L235.70991,421.48491L235.94994,421.48491L235.94994,421.72494L235.94994,421.96497L236.18997,421.96497L236.43,421.96497L236.43,422.20499
				L236.67003,422.20499L236.67003,422.44502L236.91007,422.44502L236.91007,422.68504L237.1501,422.68504L237.1501,422.92507L237.1501,423.16509
				L237.39013,423.16509L237.39013,423.40512L237.63016,423.40512L237.87019,423.40512L237.87019,423.64514L238.11022,423.64514
				L238.11022,423.88517L238.35025,423.88517L238.35025,424.1252L238.59028,424.1252L238.59028,424.36522L238.59028,424.60525L238.83031,424.60525
				L239.07034,424.60525L239.07034,424.84527L239.31037,424.84527L239.31037,425.0853L239.5504,425.0853L239.5504,425.32532L239.79043,425.32532
				L239.79043,425.56535L240.03046,425.56535L240.03046,425.80537L240.03046,426.0454L240.27049,426.0454L240.27049,426.28543L240.51052,426.28543
				L240.51052,426.52545L240.75055,426.52545L240.75055,426.76548L240.99058,426.76548L240.99058,427.0055L241.23061,427.0055L241.23061,427.24553
				L241.23061,430.12584L241.47064,430.12584L241.47064,432.28607L241.71067,432.28607L241.71067,432.76612L241.9507,432.76612L
				241.9507,433.00614L242.19074,433.00614L242.19074,433.48619L242.43077,433.48619L242.43077,440.68696L241.71067,440.68696L241.71067,441.16701
				L241.9507,441.16701L241.9507,441.88709L242.19074,441.88709L242.19074,442.12711L242.43077,442.12711L242.43077,442.84719L242.6708,442.84719
				L242.6708,443.32724L242.6708,444.04732L242.91083,444.04732L242.91083,444.52737L243.15086,444.52737L243.15086,445.00742L243.39089,445.00742
				L243.39089,445.7275L243.63092,445.7275L243.63092,446.20755L243.87095,446.20755L243.87095,446.6876L243.87095,447.40768L244.11098,447.40768
				L244.11098,447.88773L244.35101,447.88773L244.35101,448.36778L243.87095,448.36778L243.87095,448.6078L243.39089,448.6078L242.6708,448.6078
				L242.6708,448.84783L242.19074,448.84783L242.19074,449.08786L241.71067,449.08786L241.71067,449.32788L241.23061,449.32788L
				241.23061,449.56791L240.51052,449.56791L240.51052,449.80793L240.03046,449.80793L240.03046,450.04796L239.5504,450.04796L238.83031,450.04796
				L238.83031,450.28798L238.35025,450.28798L238.35025,450.52801L237.63016,450.52801L237.63016,450.76803L237.1501,450.76803L
				237.1501,451.00806L236.67003,451.00806L236.67003,451.24809L235.94994,451.24809L235.46988,451.24809L235.46988,451.48811L234.74979,451.48811
				L234.74979,451.72814L234.50976,451.72814L234.50976,451.96816L233.78967,451.96816L233.78967,452.20819L233.30961,452.20819
				L233.30961,452.44821L232.58952,452.44821L232.58952,452.68824L231.86943,452.68824L231.62939,452.68824L231.62939,452.92826
				L230.9093,452.92826L230.9093,453.16829L230.42924,453.16829L230.42924,453.40832L229.70915,453.40832L229.70915,453.64834L229.22909,453.64834
				L229.22909,453.88837L228.74903,453.88837L228.509,453.88837L228.509,454.12839L228.74903,454.12839L228.74903,454.60844L228.98906,454.60844
				L228.98906,455.32852L229.22909,455.32852L229.22909,455.56855L229.22909,456.28862L229.46912,456.28862L229.46912,456.52865
				L229.70915,456.52865L229.70915,457.24873L229.94918,457.24873L229.94918,457.72878L230.18921,457.72878L230.18921,458.20883
				L230.42924,458.20883L230.42924,458.68888L230.66927,458.68888L230.66927,459.16893L230.66927,459.64898L230.9093,459.64898L
				230.9093,460.36906L231.14933,460.36906L231.14933,460.60908L230.66927,460.60908L230.42924,460.60908L230.42924,460.84911L229.94918,460.84911
				L229.94918,461.08913L229.46912,461.08913L229.46912,461.32916L228.98906,461.32916L228.98906,461.56919L228.509,461.56919L228.509,461.80921
				"/>
			<path clip-path="url(#SVG_CP_2)" fill="none" stroke="#999999" stroke-width="0.96012" stroke-miterlimit="10" stroke-linecap="round" stroke-linejoin="round" d="
				M228.509,461.80921L228.02894,461.80921L228.02894,462.04924L227.78891,462.04924L227.30885,462.04924L227.30885,462.28926L226.82879,462.28926
				L226.82879,462.52929L226.34872,462.52929L226.34872,462.76931L225.86866,462.76931L225.86866,463.00934L225.3886,463.00934L
				225.3886,463.24936L225.14857,463.24936L224.66851,463.24936L224.66851,463.48939L224.18845,463.48939L224.18845,463.72942L223.70839,463.72942
				L223.70839,463.96944L223.22833,463.96944L223.22833,464.20947L222.74827,464.20947L222.74827,464.44949L222.50824,464.44949
				L222.50824,464.68952L222.02818,464.68952L221.54812,464.68952L221.54812,464.92954L221.06805,464.92954L221.06805,465.16957
				L220.58799,465.16957L220.58799,465.40959L220.10793,465.40959L220.10793,465.64962L219.8679,465.64962L219.8679,465.40959L219.8679,464.92954
				L219.62787,464.92954L219.62787,464.68952L219.38784,464.68952L219.38784,464.20947L219.14781,464.20947L219.14781,463.72942
				L218.90778,463.72942L218.90778,463.24936L218.66775,463.24936L218.18769,463.24936L218.18769,463.48939L217.70763,463.48939
				L217.70763,463.72942L217.22757,463.72942L217.22757,463.96944L216.98754,463.96944L216.98754,464.20947L216.50748,464.20947
				L216.50748,464.44949L216.02742,464.44949L216.02742,464.68952L215.78738,464.68952L215.30732,464.68952L215.30732,464.92954
				L214.82726,464.92954L214.82726,465.16957L214.58723,465.16957L214.58723,465.40959L214.10717,465.40959L214.10717,465.64962
				L213.62711,465.64962L213.62711,465.88965L213.38708,465.88965L213.14705,465.88965L212.90702,465.88965L212.90702,465.40959
				L212.66699,465.40959L212.66699,464.92954L212.42696,464.92954L212.42696,464.68952L212.18693,464.68952L212.18693,464.20947
				L211.9469,464.20947L211.9469,463.72942L211.9469,463.96944L211.22681,463.96944L211.22681,464.20947L210.74674,464.20947L210.74674,464.44949
				L210.50671,464.44949L210.50671,464.68952L210.02665,464.68952L209.54659,464.68952L209.54659,464.92954L209.30656,464.92954
				L209.30656,465.16957L208.8265,465.16957L208.8265,465.40959L208.34644,465.40959L208.34644,465.64962L207.86638,465.64962L207.86638,465.88965
				L207.62635,465.88965L207.14629,465.88965L207.14629,466.12967L206.66623,466.12967L206.66623,466.3697L206.4262,466.3697L206.4262,466.60972
				L205.94614,466.60972L205.94614,466.84975L205.46607,466.84975L205.46607,467.08977L205.22604,467.08977L205.22604,467.3298L
				205.46607,467.3298L205.46607,467.80985L205.70611,467.80985L205.70611,468.2899L205.94614,468.2899L205.94614,468.52993L206.18617,468.52993
				L206.18617,469.00998L206.4262,469.00998L206.4262,469.49003L206.66623,469.49003L206.66623,469.97008L206.66623,470.21011L206.90626,470.21011
				L206.90626,470.93018L207.14629,470.93018L207.14629,471.17021L207.38632,471.17021L207.38632,471.65026L207.14629,471.65026
				L207.14629,471.89029L206.66623,471.89029L206.66623,472.13031L206.66623,472.37034L206.66623,472.85039L206.90626,472.85039
				L206.90626,473.57046L207.14629,473.57046L207.14629,474.05052L207.38632,474.05052L207.38632,474.77059L207.62635,474.77059
				L207.62635,475.25064L207.86638,475.25064L207.86638,475.97072L207.86638,476.6908L208.10641,476.6908L208.10641,477.41087L208.34644,477.41087
				L208.34644,477.89092L208.58647,477.89092L208.58647,478.611L208.8265,478.611L208.8265,478.85103L208.34644,478.85103L208.34644,479.09105
				L207.62635,479.09105L207.62635,479.33108L206.90626,479.33108L206.18617,479.33108L206.18617,479.5711L205.46607,479.5711L205.46607,479.81113
				L205.22604,479.81113L205.22604,480.29118L205.22604,481.49131L205.22604,482.21139L205.46607,482.21139L205.46607,482.93146
				L205.70611,482.93146L205.70611,483.41151L205.94614,483.41151L205.94614,484.13159L206.18617,484.13159L206.18617,484.61164
				L206.4262,484.61164L206.4262,485.33172L206.66623,485.33172L206.66623,485.81177L206.66623,486.29182L206.90626,486.29182L206.90626,487.0119
				L207.14629,487.0119L207.14629,487.25192L207.38632,487.25192L207.38632,487.49195L207.14629,487.49195L207.14629,487.73197L
				206.66623,487.73197L206.66623,487.972L206.4262,487.972L206.4262,488.21202L206.18617,488.21202L206.18617,488.45205L205.70611,488.45205
				L205.70611,488.69208L205.94614,488.69208L205.94614,488.9321L206.18617,488.9321L206.18617,489.17213L206.66623,489.17213L206.66623,489.41215
				L206.66623,489.65218L206.90626,489.65218L206.90626,489.8922L207.38632,489.8922L207.62635,489.8922L207.62635,490.13223L207.86638,490.13223
				L207.86638,490.37225L208.10641,490.37225L208.10641,490.61228L208.34644,490.61228L208.34644,490.85231L208.58647,490.85231
				L208.58647,491.09233L209.06653,491.09233L209.06653,491.33236L209.30656,491.33236L209.54659,491.33236L209.54659,491.57238
				L209.78662,491.57238L209.78662,491.81241L210.26668,491.81241L210.26668,492.05243L210.50671,492.05243L210.50671,492.29246
				L210.74674,492.29246L210.74674,492.53249L210.98678,492.53249L211.46684,492.53249L211.46684,492.77251L211.70687,492.77251
				L211.70687,493.01254L211.9469,493.01254L211.9469,493.25256L212.18693,493.25256L212.18693,493.73261L211.9469,493.73261L211.9469,493.97264
				L211.9469,494.45269L211.70687,494.45269L211.70687,494.93274L211.46684,494.93274L211.46684,495.17277L211.22681,495.17277L
				211.22681,495.65282L210.98678,495.65282L210.98678,496.13287L210.74674,496.13287L210.74674,496.61292L210.50671,496.61292L
				210.50671,496.85295L210.50671,497.333L210.26668,497.333L210.26668,497.09297L209.78662,497.09297L209.78662,496.85295L209.54659,496.85295
				L209.54659,496.61292L209.30656,496.61292L209.06653,496.61292L209.06653,496.37289L208.58647,496.37289L208.58647,496.13287
				L208.10641,496.13287L208.10641,495.89284L207.86638,495.89284L207.86638,495.65282L207.62635,495.65282L207.62635,495.41279
				L207.38632,495.41279L207.38632,495.17277L207.62635,495.17277L207.86638,495.17277L207.86638,494.93274L207.86638,494.69272
				L208.10641,494.69272L208.10641,494.21266L208.34644,494.21266L208.34644,493.97264L208.58647,493.97264L208.58647,493.73261
				L208.34644,493.73261L208.34644,493.49259L208.10641,493.49259L208.10641,493.01254L207.86638,493.01254L207.86638,492.77251
				L207.86638,492.53249L207.38632,492.53249L207.14629,492.53249L207.14629,492.29246L206.66623,492.29246L206.66623,492.05243
				L206.66623,491.81241L206.18617,491.81241L206.18617,491.57238L205.70611,491.57238L205.70611,491.33236L205.46607,491.33236
				L205.22604,491.33236L205.22604,491.09233L204.98601,491.09233L204.98601,490.85231L204.74598,490.85231L204.74598,490.61228
				L204.26592,490.61228L204.26592,490.37225L204.02589,490.37225L204.02589,490.13223L204.02589,489.8922L203.78586,489.8922L203.78586,489.65218
				L203.54583,489.65218L203.54583,489.41215L203.3058,489.41215L203.3058,488.9321L203.06577,488.9321L203.06577,488.69208L202.58571,488.69208
				L202.58571,490.61228L202.82574,490.61228L202.82574,494.45269L202.58571,494.45269L202.58571,493.97264L202.34568,493.97264
				L202.34568,493.49259L202.10565,493.49259L202.10565,493.01254L201.86562,493.01254L201.86562,492.53249L201.62559,492.53249
				L201.62559,492.29246L201.38556,492.29246L201.38556,491.81241L201.38556,491.33236L201.14553,491.33236L201.14553,491.09233
				L200.9055,491.09233L200.9055,490.61228L200.66547,490.61228L200.66547,490.13223L200.42544,490.13223L200.42544,489.8922L200.1854,489.8922
				L200.1854,489.65218L199.94537,489.65218L199.94537,489.17213L199.94537,488.69208L199.70534,488.69208L199.70534,488.45205L
				199.46531,488.45205L199.46531,487.972L199.22528,487.972L199.22528,487.49195L198.98525,487.49195L198.98525,487.25192L198.74522,487.25192
				L198.74522,486.77187L198.74522,486.53185L198.50519,486.53185L198.50519,486.05179L198.26516,486.05179L198.26516,485.81177
				L198.02513,485.81177L198.02513,485.33172L197.7851,485.33172L197.7851,484.85167L197.54507,484.85167L197.54507,484.61164L197.30504,484.61164
				L197.30504,484.37162L197.30504,483.89156L197.06501,483.89156L197.06501,483.41151L196.82498,483.41151L196.82498,483.17149
				L196.58495,483.17149L196.58495,482.93146L196.34492,482.93146L196.34492,482.45141L196.10489,482.45141L196.10489,481.97136
				L195.86486,481.97136L195.86486,481.73133L195.86486,481.49131L195.62483,481.49131L195.62483,481.25128L195.3848,481.25128L
				195.3848,481.01126L195.14476,481.01126L195.14476,480.53121L194.90473,480.53121L194.6647,480.53121L194.6647,480.05116L194.6647,479.5711
				L194.42467,479.5711L194.42467,479.33108L194.18464,479.33108L194.18464,478.85103L193.94461,478.85103L193.94461,478.611L193.70458,478.611
				L193.70458,478.13095L193.46455,478.13095L193.46455,477.89092L193.22452,477.89092L193.22452,477.41087L193.22452,477.17085
				L192.98449,477.17085L192.98449,476.6908L192.74446,476.6908L192.74446,476.45077L192.50443,476.45077L192.50443,476.21075L192.02437,476.21075
				L192.02437,476.45077L192.02437,476.6908L191.54431,476.6908L191.06425,476.6908L191.06425,476.93082L190.82422,476.93082L190.82422,477.17085
				L190.58419,477.17085L190.58419,477.41087L190.10413,477.41087L190.10413,477.6509L189.86409,477.6509L189.86409,477.89092L189.38403,477.89092
				L189.144,477.89092L189.144,478.13095L188.90397,478.13095L188.90397,478.37098L188.42391,478.37098L188.42391,478.611L187.94385,478.611
				L187.94385,478.85103L187.94385,479.09105L187.46379,479.09105L187.46379,479.33108L187.22376,479.33108L186.7437,479.33108L
				186.7437,479.5711L186.50367,479.5711L186.50367,479.81113L186.26364,479.81113L186.26364,480.05116L185.78358,480.05116L185.78358,480.29118
				L185.30352,480.29118L185.30352,480.53121L185.30352,480.05116L185.06349,480.05116L185.06349,479.81113L184.82346,479.81113
				L184.82346,479.5711L184.58342,479.5711L184.58342,479.81113L184.10336,479.81113L184.10336,480.05116L183.86333,480.05116L183.86333,480.29118
				L183.6233,480.29118L183.6233,480.53121L183.14324,480.53121L182.66318,480.53121L182.66318,480.77123L182.42315,480.77123L182.42315,481.01126
				L182.18312,481.01126L182.18312,481.25128L181.70306,481.25128L181.70306,481.49131L181.223,481.49131L181.223,481.73133L180.98297,481.73133
				L180.98297,481.97136L180.50291,481.97136L180.26288,481.97136L180.26288,482.21139L180.02285,482.21139L180.02285,482.45141
				L179.54278,482.45141L179.54278,482.69144L179.06272,482.69144L179.06272,482.93146L178.82269,482.93146L178.82269,482.45141
				L178.58266,482.45141L178.58266,482.21139L178.58266,481.97136L178.34263,481.97136L178.34263,481.73133L178.1026,481.73133L
				178.1026,481.25128L177.86257,481.25128L177.86257,481.01126L177.62254,481.01126L177.62254,480.77123L177.38251,480.77123L177.38251,481.01126
				L177.14248,481.01126L177.14248,481.25128L176.66242,481.25128L176.66242,481.49131L176.42239,481.49131L176.42239,481.73133
				L175.94233,481.73133L175.94233,481.97136L175.46227,481.97136L175.46227,482.21139L175.22224,482.21139L175.22224,482.45141
				L174.74218,482.45141L174.74218,482.69144L174.74218,482.93146L174.26211,482.93146L174.26211,483.17149L174.02208,483.17149
				L174.02208,483.41151L174.26211,483.41151L174.26211,483.89156L174.50215,483.89156L174.50215,484.13159L174.74218,484.13159
				L174.74218,484.61164L174.98221,484.61164L174.98221,485.09169L175.22224,485.09169L175.22224,485.33172L175.46227,485.33172
				L175.46227,485.81177L175.7023,485.81177L175.7023,486.05179L175.94233,486.05179L175.94233,486.29182L175.94233,486.77187L176.18236,486.77187
				L176.18236,487.0119L176.42239,487.0119L176.42239,487.25192L176.66242,487.25192L176.66242,487.49195L176.90245,487.49195L176.90245,487.972
				L177.14248,487.972L177.14248,488.45205L177.38251,488.45205L177.38251,488.69208L177.14248,488.69208L176.66242,488.69208L176.66242,488.9321
				L176.42239,488.9321L176.42239,489.17213L175.94233,489.17213L175.94233,489.41215L175.7023,489.41215L175.7023,489.65218L175.22224,489.65218
				L175.22224,489.8922L174.74218,489.8922L174.50215,489.8922L174.50215,490.13223L174.26211,490.13223L174.26211,490.37225L173.78205,490.37225
				L173.78205,490.61228L173.30199,490.61228L173.30199,490.85231L173.06196,490.85231L173.06196,490.61228L172.82193,490.61228
				L172.82193,490.37225L172.5819,490.37225L172.5819,490.13223L172.34187,490.13223L172.34187,489.8922L172.10184,489.8922L172.10184,489.65218
				L172.10184,489.17213L171.86181,489.17213L171.86181,488.9321L171.62178,488.9321L171.62178,488.69208L171.38175,488.69208L171.38175,488.45205
				L171.14172,488.45205L171.14172,487.972L170.90169,487.972L170.90169,487.73197L170.66166,487.73197L170.66166,487.25192L170.42163,487.25192
				L170.42163,486.77187L170.1816,486.77187L170.1816,486.53185L169.94157,486.53185L169.94157,486.05179L169.70154,486.05179L169.70154,485.81177
				L169.22148,485.81177L169.22148,486.05179L168.98144,486.05179L168.98144,486.29182L168.26135,486.29182L168.26135,486.53185
				L168.02132,486.53185L168.02132,486.77187L168.02132,487.0119L167.78129,487.0119L167.78129,487.25192L167.30123,487.25192L167.0612,487.25192
				L167.0612,487.49195L166.82117,487.49195L166.82117,487.73197L166.58114,487.73197L166.58114,487.49195L166.10108,487.49195L
				166.10108,487.25192L165.86105,487.25192L165.38099,487.25192L165.38099,487.0119L165.38099,487.25192L165.14096,487.25192L164.90093,487.25192
				L164.90093,487.49195L164.6609,487.49195L164.6609,487.73197L164.42087,487.73197L164.42087,487.972L164.18084,487.972L164.18084,488.21202
				L163.94081,488.21202L163.94081,488.45205L163.70077,488.45205L163.70077,488.69208L163.46074,488.69208L163.22071,488.69208
				L163.22071,488.9321L162.98068,488.9321L162.98068,489.17213L162.74065,489.17213L162.74065,489.41215L162.50062,489.41215L162.50062,489.65218
				L162.02056,489.65218L162.02056,489.8922L161.30047,489.8922L161.06044,489.8922L161.06044,490.13223L160.34035,490.13223L160.34035,490.37225
				L160.10032,490.37225L160.10032,490.61228L159.38023,490.61228L159.38023,490.85231L158.90017,490.85231L158.90017,491.09233
				L158.4201,491.09233L158.4201,491.33236L157.94004,491.33236L157.45998,491.33236L157.45998,491.57238L156.73989,491.57238L156.73989,491.81241
				L156.0198,491.81241L156.0198,492.05243L155.53974,492.05243L155.53974,492.29246L154.81965,492.29246L154.81965,492.53249L154.57962,492.53249
				L154.57962,492.77251L154.57962,493.49259L154.81965,493.49259L154.81965,493.97264L155.05968,493.97264L155.05968,494.69272
				L155.29971,494.69272L155.29971,495.17277L155.53974,495.17277L155.53974,495.65282L155.77977,495.65282L155.77977,496.37289
				L156.0198,496.37289L156.0198,496.85295L156.0198,497.57302L156.25983,497.57302L156.25983,498.05307L156.49986,498.05307L156.49986,498.77315
				L156.73989,498.77315L156.73989,499.2532L156.97992,499.2532L156.97992,499.49323L156.73989,499.49323L156.73989,499.73325L156.49986,499.73325
				L156.49986,499.97328L156.0198,499.97328L156.0198,500.2133L155.53974,500.2133L155.53974,500.45333L154.81965,500.45333L154.57962,500.45333
				L154.57962,500.93338L154.81965,500.93338L154.81965,501.65346L154.57962,501.65346L154.57962,501.89348L154.09956,501.89348
				L153.37946,501.89348L153.37946,502.13351L153.13943,502.13351L153.13943,502.37353L152.41934,502.37353L152.41934,502.61356
				L151.93928,502.61356L151.93928,502.85359L151.45922,502.85359L151.45922,503.09361L150.73913,503.09361L150.73913,503.33364
				L150.4991,503.33364L149.77901,503.33364L149.77901,503.57366L149.53898,503.57366L149.53898,503.33364L149.29895,503.33364L
				149.29895,502.85359L149.29895,502.61356L149.05892,502.61356L149.05892,502.13351L148.81889,502.13351L148.81889,501.89348L
				148.57886,501.89348L148.57886,501.41343L148.33883,501.41343L148.33883,501.17341L148.09879,501.17341L148.09879,500.69335L
				148.09879,500.45333L147.85876,500.45333L147.85876,499.97328L147.61873,499.97328L147.61873,499.49323L147.3787,499.49323L147.3787,499.2532
				L147.13867,499.2532L147.13867,499.01318L146.89864,499.01318L146.89864,498.53312L146.65861,498.53312L146.65861,498.05307L
				146.65861,497.81305L146.41858,497.81305L146.41858,497.333L146.17855,497.333L146.17855,496.85295L145.93852,496.85295L145.93852,496.61292
				L145.69849,496.61292L145.69849,496.37289L145.45846,496.37289L145.45846,496.13287L145.21843,496.13287L145.21843,496.37289
				L144.49834,496.37289L144.49834,496.61292L144.01828,496.61292L143.53822,496.61292L143.53822,496.85295L143.05815,496.85295
				L143.05815,497.333L143.29819,497.333L143.29819,497.81305L143.53822,497.81305L143.53822,498.2931L143.77825,498.2931L143.77825,499.01318
				L144.01828,499.01318L144.01828,499.49323L144.01828,499.97328L144.25831,499.97328L144.25831,500.45333L144.49834,500.45333
				L144.49834,500.93338L144.73837,500.93338L144.73837,501.65346L144.9784,501.65346L144.9784,501.89348L144.49834,501.89348L144.49834,502.13351
				L144.01828,502.13351L144.01828,502.37353L143.29819,502.37353L143.29819,502.61356L142.57809,502.61356L142.57809,502.85359
				L141.858,502.85359L141.858,503.09361L141.37794,503.09361L141.37794,503.33364L140.65785,503.33364L139.93776,503.33364L139.93776,502.61356
				L139.93776,501.65346L139.69773,501.65346L139.69773,501.41343L139.21767,501.41343L139.21767,501.65346L138.49758,501.65346
				L138.49758,501.89348L137.29742,501.89348L136.57733,501.89348L136.57733,502.13351L135.61721,502.13351L135.61721,502.37353
				L134.65709,502.37353L134.65709,502.13351L134.65709,501.65346L134.41706,501.65346L134.41706,500.93338L134.17703,500.93338
				L134.17703,500.45333L133.937,500.45333L133.937,499.49323L133.69697,499.49323L133.69697,499.01318L133.45694,499.01318L133.45694,498.2931
				L133.45694,497.57302L133.21691,497.57302L133.21691,497.09297L130.33654,497.09297L130.33654,497.333L129.37642,497.333L129.37642,497.57302
				L128.65633,497.57302L128.65633,497.81305L127.93624,497.81305L127.21614,497.81305L127.21614,498.05307L126.73608,498.05307
				L126.73608,498.2931L126.01599,498.2931L126.01599,498.53312L125.53593,498.53312L125.53593,498.77315L125.05587,498.77315L125.05587,499.01318
				L124.33578,499.01318L124.33578,499.2532L124.09575,499.2532L123.37566,499.2532L123.37566,499.49323L122.65557,499.49323L122.65557,499.73325
				L122.1755,499.73325L122.1755,499.97328L121.45541,499.97328L121.45541,500.2133L120.97535,500.2133L120.97535,500.45333L120.49529,500.45333
				L120.01523,500.45333L120.01523,500.69335L119.29514,500.69335L119.29514,500.93338L118.81508,500.93338L118.81508,500.45333
				L118.81508,500.2133L119.05511,500.2133L119.05511,499.73325L119.29514,499.73325L119.29514,499.2532L119.53517,499.2532L119.53517,498.77315
				L119.7752,498.77315L119.7752,498.2931L120.01523,498.2931L120.01523,497.81305L120.01523,497.333L120.25526,497.333L120.25526,496.85295
				L120.49529,496.85295L120.49529,496.37289L120.73532,496.37289L120.73532,495.89284L120.97535,495.89284L120.97535,495.65282
				L121.21538,495.65282L121.21538,495.17277L121.45541,495.17277L121.45541,494.93274L121.45541,494.69272L121.45541,494.21266
				L121.45541,492.53249L121.69544,492.53249L121.69544,491.33236L121.93547,491.33236L121.93547,490.85231L122.1755,490.85231L
				122.1755,490.37225L122.41554,490.37225L122.41554,489.65218L122.65557,489.65218L122.65557,488.9321L122.65557,488.69208L122.8956,488.69208
				L122.8956,487.972L123.13563,487.972L123.13563,487.49195L123.37566,487.49195L123.37566,486.77187L123.61569,486.77187L123.61569,485.81177
				L123.85572,485.81177L123.85572,485.09169L124.09575,485.09169L124.09575,484.37162L124.09575,481.97136L124.09575,480.77123
				L123.85572,480.77123L123.85572,479.81113L123.61569,479.81113L123.61569,478.37098L123.85572,478.37098L123.85572,477.6509L
				124.09575,477.6509L124.09575,477.17085L124.09575,476.6908L124.33578,476.6908L124.33578,474.77059L124.57581,474.77059L124.57581,473.81049
				L124.81584,473.81049L124.81584,472.85039L125.05587,472.85039L125.05587,472.61036L125.2959,472.61036L125.2959,471.89029L125.2959,471.41023
				L125.53593,471.41023L125.53593,471.17021L125.77596,471.17021L125.77596,470.45013L126.01599,470.45013L126.01599,468.76995
				L125.77596,468.76995L125.77596,468.04988L125.53593,468.04988L125.53593,467.3298L125.2959,467.3298L125.2959,467.08977L125.05587,467.08977
				L125.05587,466.60972L124.81584,466.60972L124.81584,465.88965L124.57581,465.88965L124.33578,465.88965L124.33578,465.40959
				L124.09575,465.40959L124.09575,448.36778L124.33578,448.36778L124.33578,447.40768L124.57581,447.40768L124.57581,442.84719
				L124.81584,442.84719L124.81584,441.88709L125.05587,441.88709L125.2959,441.88709L125.2959,441.16701L125.2959,440.92699L125.53593,440.92699
				L125.53593,440.68696L125.77596,440.68696L126.01599,440.68696L126.01599,440.44693L126.25602,440.44693L126.25602,440.20691
				L126.49605,440.20691L126.49605,439.96688L126.25602,439.96688L126.25602,439.00678L126.01599,439.00678L126.01599,438.2867L
				125.77596,438.2867L125.77596,438.04668L125.53593,438.04668L125.53593,437.3266L125.2959,437.3266L125.2959,436.84655L125.2959,433.24617
				L125.2959,432.52609L125.53593,432.52609L125.53593,431.80601L125.2959,431.80601L125.2959,431.32596L125.53593,431.32596L125.53593,428.92571
				L125.77596,428.92571L125.77596,428.44566L126.01599,428.44566L126.01599,427.48555L126.25602,427.48555L126.25602,427.24553
				L126.49605,427.24553L126.49605,426.28543L126.73608,426.28543L126.73608,425.56535L126.73608,424.36522L126.97611,424.36522
				L126.97611,423.40512L127.21614,423.40512L127.21614,420.04476L127.45618,420.04476"/>
			<path clip-path="url(#SVG_CP_2)" fill="none" stroke="#999999" stroke-width="0.96012" stroke-miterlimit="10" stroke-linecap="round" stroke-linejoin="round" d="
				M127.45618,420.04476L127.45618,417.64451L127.21614,417.64451L127.21614,417.40448L127.45618,417.40448L127.45618,414.28415
				L127.21614,414.28415L127.21614,414.04412L126.97611,414.04412L126.97611,413.08402L126.73608,413.08402L126.73608,412.12392
				L126.73608,411.88389L126.25602,411.88389L126.25602,411.64387L126.01599,411.64387L126.01599,411.40384L125.77596,411.40384
				L125.2959,411.40384L125.2959,411.16381L125.05587,411.16381L125.05587,410.92379L124.81584,410.92379L124.81584,410.68376L124.33578,410.68376
				L124.33578,410.44374L124.09575,410.44374L124.09575,410.20371L123.85572,410.20371L123.85572,409.96369L123.37566,409.96369
				L122.8956,409.96369L122.8956,409.72366L122.65557,409.72366L122.65557,409.48364L122.1755,409.48364L122.1755,409.24361L121.69544,409.24361
				L121.69544,409.00358L121.45541,409.00358L121.45541,408.76356"/>
		</g>
</g></svg>