<?xml version="1.0" encoding="utf-8" standalone="no"?>
<!-- Creator: ESRI ArcMap 10.0.0.2414 -->
<!DOCTYPE svg PUBLIC "-//W3C//DTD SVG 1.1//EN"  "http://www.w3.org/Graphics/SVG/1.1/DTD/svg11.dtd">
<svg width="524.0420768pt" height="386.504696799pt" viewBox="32.15712744 227.8767866 524.0420768 386.504696799" enable-background="new 32.15712744 227.8767866 524.0420768 386.504696799"
	version="1.1" xmlns="http://www.w3.org/2000/svg" xmlns:xlink="http://www.w3.org/1999/xlink" >
	<g id="Couches">
		<g id="cont_1">
			<clipPath id="SVG_CP_2">
				<path d="M574.39289,21.36228L21.36271,21.36228L21.36271,821.36753L574.39289,821.36753L574.39289,21.36228z"/>
			</clipPath>
			<path clip-path="url(#SVG_CP_2)" fill="none" stroke="#999999" stroke-width="0.96012" stroke-miterlimit="10" stroke-linecap="round" stroke-linejoin="round" d="
				M408.77187,480.05116L408.77187,479.5711L408.77187,479.33108L408.77187,479.09105L408.77187,478.85103L409.01191,478.85103L
				409.01191,478.611L409.25194,478.611L409.25194,478.37098L409.25194,478.13095L409.49197,478.13095L409.49197,477.89092L409.49197,477.6509
				L409.732,477.6509L409.732,477.41087L409.732,477.17085L409.97203,477.17085L409.97203,476.93082L409.97203,477.17085L409.97203,477.41087
				L409.97203,477.6509L409.97203,478.13095L410.21206,478.13095L410.45209,478.13095L410.69212,478.13095L410.69212,477.89092L
				410.69212,478.13095L410.93215,478.13095L410.93215,477.89092L411.17218,477.89092L411.17218,477.6509L411.41221,477.6509L411.41221,477.41087
				L411.65224,477.41087L411.65224,477.6509L411.41221,477.6509L411.41221,477.89092L411.41221,478.13095L411.41221,478.37098L411.17218,478.37098
				L411.41221,478.37098L411.41221,478.611L411.17218,478.611L411.17218,478.85103L411.17218,479.09105L410.93215,479.09105L410.69212,479.09105
				L410.69212,478.85103L410.69212,478.611L410.45209,478.611L410.21206,478.611L409.97203,478.611L409.97203,478.85103L409.732,478.85103
				L409.732,479.09105L409.49197,479.09105L409.49197,479.33108L409.25194,479.33108L409.01191,479.33108L409.01191,479.5711L408.77187,479.5711
				L408.77187,479.81113L408.77187,480.05116L408.77187,480.05116"/>
			<path clip-path="url(#SVG_CP_2)" fill="none" stroke="#999999" stroke-width="0.96012" stroke-miterlimit="10" stroke-linecap="round" stroke-linejoin="round" d="
				M379.24813,481.25128L378.76807,481.25128L378.76807,481.01126L378.52804,481.01126L378.52804,480.77123L378.76807,480.77123
				L378.76807,480.53121L379.0081,480.53121L379.0081,480.29118L379.0081,480.05116L379.24813,480.05116L379.24813,479.81113L379.0081,479.81113
				L379.0081,479.5711L378.76807,479.5711L378.76807,479.81113L378.52804,479.81113L378.28801,479.81113L378.28801,480.05116L378.28801,480.29118
				L378.28801,480.53121L378.04798,480.53121L377.80795,480.53121L377.56791,480.53121L377.32788,480.53121L377.32788,480.29118
				L377.08785,480.29118L376.84782,480.29118L376.60779,480.29118L376.36776,480.29118L376.60779,480.29118L376.60779,480.05116
				L376.60779,479.81113L376.60779,479.5711L376.36776,479.5711L376.36776,479.33108L376.12773,479.33108L375.8877,479.33108L375.64767,479.33108
				L375.64767,479.09105L375.40764,479.09105L375.16761,479.09105L374.92758,479.09105L374.68755,479.09105L374.68755,478.85103
				L374.44752,478.85103L374.20749,478.85103L374.20749,478.611L373.96746,478.611L373.72743,478.611L373.72743,478.37098L373.4874,478.37098
				L373.4874,478.13095L373.24737,478.13095L373.00734,478.13095L373.00734,477.89092L372.76731,477.89092L372.76731,477.6509L372.52728,477.6509
				L372.52728,477.41087L372.28724,477.41087L372.28724,477.17085L372.04721,477.17085L372.04721,476.93082L371.80718,476.93082
				L371.80718,476.6908L372.04721,476.6908L372.04721,476.93082L372.28724,476.93082L372.52728,476.93082L372.76731,476.93082L373.00734,476.93082
				L373.24737,476.93082L373.4874,476.93082L373.4874,477.17085L373.72743,477.17085L373.96746,477.17085L373.96746,477.41087L374.20749,477.41087
				L374.44752,477.41087L374.68755,477.41087L374.68755,477.6509L374.92758,477.6509L375.16761,477.6509L375.40764,477.6509L375.64767,477.6509
				L375.8877,477.6509L376.12773,477.6509L376.36776,477.6509L376.36776,477.89092L376.60779,477.89092L376.84782,477.89092L376.84782,478.13095
				L377.08785,478.13095L377.08785,478.37098L377.32788,478.37098L377.56791,478.37098L377.80795,478.37098L377.80795,478.611L378.04798,478.611
				L378.28801,478.611L378.28801,478.37098L378.52804,478.37098L378.52804,478.13095L378.52804,477.89092L378.76807,477.89092L378.76807,477.6509
				L379.0081,477.6509L379.0081,477.41087L379.24813,477.41087L379.24813,477.17085L379.48816,477.17085L379.48816,476.93082L379.48816,476.6908
				L379.72819,476.6908L379.72819,476.45077L379.96822,476.45077L379.96822,476.21075L379.96822,475.97072L380.20825,475.97072L
				380.20825,475.73069L380.44828,475.73069L380.44828,475.49067L380.68831,475.49067L380.92834,475.49067L380.92834,475.25064L
				381.16837,475.25064L381.16837,475.01062L381.16837,474.77059L381.16837,474.53057L381.4084,474.53057L381.4084,474.29054L381.64843,474.29054
				L381.64843,474.05052L381.64843,473.81049L381.4084,473.81049L381.88846,473.81049L381.88846,474.29054L381.88846,474.53057L
				381.88846,474.77059L381.64843,474.77059L381.64843,475.01062L381.64843,475.25064L381.4084,475.25064L381.64843,475.25064L381.64843,475.49067
				L381.64843,475.97072L381.88846,475.97072L381.88846,476.21075L382.12849,476.21075L382.12849,476.45077L381.88846,476.45077
				L381.64843,476.45077L381.4084,476.45077L381.4084,476.21075L381.4084,475.97072L381.16837,475.97072L380.92834,475.97072L380.92834,475.73069
				L380.68831,475.73069L380.68831,475.97072L380.68831,476.21075L380.68831,476.45077L380.68831,476.6908L380.68831,476.93082L
				380.92834,476.93082L381.16837,476.93082L381.16837,477.17085L380.92834,477.17085L380.92834,477.41087L380.68831,477.41087L
				380.68831,477.6509L380.92834,477.6509L380.92834,477.41087L381.4084,477.41087L381.4084,477.6509L381.64843,477.6509L381.88846,477.6509
				L381.64843,477.6509L381.64843,477.89092L381.4084,477.89092L381.16837,477.89092L380.92834,477.89092L380.92834,477.6509L380.68831,477.6509
				L380.44828,477.6509L380.44828,477.89092L380.44828,478.13095L380.44828,478.37098L380.44828,478.611L380.44828,478.85103L380.44828,479.09105
				L380.68831,479.09105L380.68831,478.85103L380.92834,478.85103L380.92834,478.611L380.92834,478.37098L381.16837,478.37098L381.16837,478.611
				L381.4084,478.611L381.64843,478.611L381.4084,478.611L381.4084,478.85103L381.4084,479.09105L381.16837,479.09105L381.16837,479.33108
				L381.16837,479.5711L381.4084,479.5711L381.88846,479.5711L381.64843,479.5711L381.64843,479.33108L381.88846,479.33108L381.88846,479.09105
				L382.36852,479.09105L382.60855,479.09105L382.60855,478.85103L382.60855,478.611L382.84859,478.611L382.84859,478.37098L383.08862,478.37098
				L383.32865,478.37098L383.56868,478.37098L383.80871,478.37098L383.80871,478.13095L384.04874,478.13095L384.28877,478.13095
				L384.28877,478.37098L384.5288,478.37098L384.5288,478.611L384.5288,478.85103L384.76883,478.85103L384.76883,478.13095L385.00886,478.13095
				L385.00886,477.89092L385.00886,478.611L385.00886,478.85103L385.00886,479.09105L385.00886,479.33108L384.76883,479.33108L384.5288,479.33108
				L384.28877,479.33108L384.28877,479.5711L384.04874,479.5711L383.80871,479.5711L383.56868,479.5711L383.56868,479.81113L383.32865,479.81113
				L383.08862,479.81113L382.84859,479.81113L382.84859,480.05116L382.84859,480.29118L382.84859,480.05116L382.60855,480.05116
				L382.60855,479.81113L382.60855,480.05116L382.36852,480.05116L382.36852,480.29118L382.12849,480.29118L381.88846,480.29118
				L381.88846,480.05116L381.64843,480.05116L381.64843,479.81113L381.4084,479.81113L381.4084,480.05116L381.4084,480.29118L381.16837,480.29118
				L381.16837,480.05116L381.16837,480.29118L380.92834,480.29118L380.68831,480.29118L380.68831,480.53121L380.44828,480.53121
				L380.44828,480.77123L380.20825,480.77123L379.96822,480.77123L379.96822,480.53121L379.96822,480.29118L379.72819,480.29118
				L379.48816,480.29118L379.48816,480.53121L379.72819,480.53121L379.72819,481.01126L379.24813,481.01126L379.24813,481.25128
				"/>
			<path clip-path="url(#SVG_CP_2)" fill="none" stroke="#999999" stroke-width="0.96012" stroke-miterlimit="10" stroke-linecap="round" stroke-linejoin="round" d="
				M442.13611,491.33236L441.89608,491.33236L441.89608,491.09233L441.65605,491.09233L441.65605,490.61228L441.89608,490.61228
				L441.89608,490.85231L442.13611,490.85231L442.13611,491.09233L442.37614,491.09233L442.37614,491.33236L442.13611,491.33236
				L442.13611,491.33236"/>
			<path clip-path="url(#SVG_CP_2)" fill="none" stroke="#999999" stroke-width="0.96012" stroke-miterlimit="10" stroke-linecap="round" stroke-linejoin="round" d="
				M432.77492,492.29246L432.53489,492.29246L432.53489,492.05243L432.53489,491.81241L432.53489,491.57238L432.53489,491.33236
				L432.77492,491.33236L433.01495,491.33236L433.01495,491.09233L433.01495,491.33236L433.25498,491.33236L433.25498,491.57238
				L433.25498,491.81241L433.25498,492.05243L433.01495,492.05243L433.01495,492.29246L432.77492,492.29246L432.77492,492.29246
				"/>
			<path clip-path="url(#SVG_CP_2)" fill="none" stroke="#999999" stroke-width="0.96012" stroke-miterlimit="10" stroke-linecap="round" stroke-linejoin="round" d="
				M409.01191,518.9353L409.01191,518.69527L409.01191,518.45525L409.01191,518.21522L409.25194,518.21522L409.49197,518.21522L
				409.49197,518.45525L409.49197,518.69527L409.25194,518.69527L409.25194,518.9353L409.01191,518.9353L409.01191,518.9353"/>
			<path clip-path="url(#SVG_CP_2)" fill="none" stroke="#999999" stroke-width="0.96012" stroke-miterlimit="10" stroke-linecap="round" stroke-linejoin="round" d="
				M410.21206,520.8555L409.97203,520.8555L409.97203,520.61548L409.732,520.61548L409.732,520.37545L409.49197,520.37545L409.49197,520.13543
				L409.732,520.13543L409.97203,520.13543L409.97203,519.8954L410.21206,519.8954L410.45209,519.8954L410.45209,519.65538L410.21206,519.65538
				L410.21206,519.41535L410.45209,519.41535L410.69212,519.41535L410.93215,519.41535L410.93215,519.65538L410.93215,519.41535
				L411.17218,519.41535L411.17218,519.65538L411.17218,519.8954L411.41221,519.8954L411.41221,520.13543L411.17218,520.13543L410.93215,520.13543
				L410.93215,520.37545L410.69212,520.37545L410.45209,520.37545L410.45209,520.61548L410.45209,520.8555L410.21206,520.8555L410.21206,520.8555
				"/>
			<path clip-path="url(#SVG_CP_2)" fill="none" stroke="#999999" stroke-width="0.96012" stroke-miterlimit="10" stroke-linecap="round" stroke-linejoin="round" d="
				M384.76883,527.33619L384.76883,527.33619"/>
			<path clip-path="url(#SVG_CP_2)" fill="none" stroke="#999999" stroke-width="0.96012" stroke-miterlimit="10" stroke-linecap="round" stroke-linejoin="round" d="
				M385.00886,527.33619L385.00886,527.33619"/>
			<path clip-path="url(#SVG_CP_2)" fill="none" stroke="#999999" stroke-width="0.96012" stroke-miterlimit="10" stroke-linecap="round" stroke-linejoin="round" d="
				M385.96898,527.57622L385.72895,527.57622L385.48892,527.57622L385.24889,527.57622L385.24889,527.33619L385.00886,527.33619
				L385.24889,527.33619L385.24889,527.57622L385.48892,527.57622L385.72895,527.57622L385.96898,527.57622L385.96898,527.57622
				"/>
			<path clip-path="url(#SVG_CP_2)" fill="none" stroke="#999999" stroke-width="0.96012" stroke-miterlimit="10" stroke-linecap="round" stroke-linejoin="round" d="
				M385.96898,527.57622L385.96898,527.57622"/>
			<path clip-path="url(#SVG_CP_2)" fill="none" stroke="#999999" stroke-width="0.96012" stroke-miterlimit="10" stroke-linecap="round" stroke-linejoin="round" d="
				M385.96898,527.57622L385.96898,527.57622"/>
			<path clip-path="url(#SVG_CP_2)" fill="none" stroke="#999999" stroke-width="0.96012" stroke-miterlimit="10" stroke-linecap="round" stroke-linejoin="round" d="
				M382.36852,516.77507L382.60855,516.77507L382.60855,516.53504L382.84859,516.53504L385.96898,516.53504L385.96898,516.29502
				L386.20901,516.29502L386.20901,516.05499L386.44904,516.05499L386.44904,516.29502L386.68907,516.29502L386.68907,516.05499
				L386.9291,516.05499L386.9291,515.81497L387.16913,515.81497L387.16913,515.57494L387.16913,515.33492L386.9291,515.33492L386.9291,515.57494
				L386.68907,515.57494L386.68907,515.81497L386.44904,515.81497L386.44904,516.05499L386.20901,516.05499L386.20901,516.29502
				L385.96898,516.29502L385.96898,516.53504L383.80871,516.53504L382.84859,516.53504L382.60855,516.53504L382.60855,516.77507
				L382.36852,516.77507L382.12849,516.77507L382.12849,517.01509L382.36852,517.01509L382.36852,517.25512L382.36852,517.49515
				L382.60855,517.49515L382.60855,517.73517L382.36852,517.73517L382.36852,517.49515L382.36852,517.25512L382.36852,517.01509
				L382.12849,517.01509L382.12849,516.77507L381.88846,516.77507L381.64843,516.77507L381.64843,516.53504L381.4084,516.53504L
				381.4084,516.29502L381.4084,516.05499L381.16837,516.05499L381.16837,515.81497L381.16837,515.57494L380.92834,515.57494L380.68831,515.57494
				L380.68831,515.33492L380.44828,515.33492L380.44828,515.09489L380.20825,515.09489L379.96822,515.09489L379.96822,514.85486
				L379.72819,514.85486L379.48816,514.85486L379.48816,514.61484L379.24813,514.61484L379.24813,514.37481L379.0081,514.37481L
				379.0081,514.13479L378.76807,514.13479L378.52804,514.13479L378.52804,513.89476L378.28801,513.89476L378.28801,513.65474L378.04798,513.65474
				L377.80795,513.65474L377.80795,513.41471L377.56791,513.41471L377.56791,513.17468L377.32788,513.17468L377.08785,513.17468
				L377.08785,512.93466L376.84782,512.93466L376.84782,512.69463L376.60779,512.69463L376.36776,512.69463L376.36776,512.45461
				L376.12773,512.45461L375.8877,512.45461L375.8877,512.21458L375.64767,512.21458L375.64767,511.97456L375.40764,511.97456L375.16761,511.97456
				L375.16761,511.73453L374.92758,511.73453L374.92758,511.49451L374.68755,511.49451L374.44752,511.49451L374.44752,511.25448
				L374.20749,511.25448L374.20749,511.01445L373.96746,511.01445L373.72743,511.01445L373.72743,510.77443L373.4874,510.77443L
				373.4874,510.5344L373.24737,510.5344L373.00734,510.5344L373.00734,510.29438L372.76731,510.29438L372.76731,510.05435L372.52728,510.05435
				L372.28724,510.05435L372.28724,509.81433L372.04721,509.81433L372.04721,509.5743L371.80718,509.5743L371.56715,509.5743L371.56715,509.33428
				L371.32712,509.33428L371.32712,509.09425L371.08709,509.09425L370.84706,509.09425L370.84706,508.85422L370.60703,508.85422
				L370.60703,508.6142L370.367,508.6142L370.367,508.37417L370.12697,508.37417L369.88694,508.37417L369.88694,508.13415L369.64691,508.13415
				L369.64691,507.89412L369.40688,507.89412L369.16685,507.89412L369.16685,507.6541L368.92682,507.6541L368.92682,507.41407L368.68679,507.41407
				L368.44676,507.41407L368.44676,507.17405L368.20673,507.17405L368.20673,506.93402L367.9667,506.93402L367.72667,506.93402L
				367.72667,506.69399L367.48664,506.69399L367.48664,506.45397L367.24661,506.45397L367.00657,506.45397L367.00657,506.21394L
				366.76654,506.21394L366.76654,505.97392L366.52651,505.97392L366.28648,505.97392L366.28648,505.73389L366.04645,505.73389L
				366.04645,505.49387L365.80642,505.49387L365.56639,505.49387L365.56639,505.25384L365.32636,505.25384L365.32636,505.01382L
				365.08633,505.01382L364.8463,505.01382L364.8463,504.77379L364.60627,504.77379L364.60627,504.53376L364.36624,504.53376L364.12621,504.53376
				L364.12621,504.29374L363.88618,504.29374L363.88618,504.05371L363.64615,504.05371L363.40612,504.05371L363.40612,503.81369
				L363.16609,503.81369L363.16609,503.57366L362.92606,503.57366L362.68603,503.57366L362.68603,503.33364L362.446,503.33364L362.446,503.09361
				L362.20597,503.09361L361.96594,503.09361L361.96594,502.85359L361.7259,502.85359L361.7259,502.61356L361.48587,502.61356L361.24584,502.61356
				L361.24584,502.37353L361.00581,502.37353L361.00581,502.13351L360.76578,502.13351L360.52575,502.13351L360.52575,501.89348
				L360.28572,501.89348L360.28572,501.65346L360.04569,501.65346L359.80566,501.65346L359.80566,501.41343L359.56563,501.41343
				L359.56563,501.17341L359.3256,501.17341L359.08557,501.17341L359.08557,500.93338L358.84554,500.93338L358.84554,500.69335L
				358.60551,500.69335L358.36548,500.69335L358.36548,500.45333L358.12545,500.45333L358.12545,500.2133L357.88542,500.2133L357.88542,499.97328
				L357.64539,499.97328L357.40536,499.97328L357.40536,499.73325L357.16533,499.73325L357.16533,499.49323L356.9253,499.49323L
				356.68526,499.49323L356.68526,499.2532L356.44523,499.2532L356.44523,499.01318L356.2052,499.01318L355.96517,499.01318L355.96517,498.77315
				L355.72514,498.77315L355.72514,498.53312L355.48511,498.53312L355.24508,498.53312L355.24508,498.2931L355.00505,498.2931L355.00505,498.05307
				L354.76502,498.05307L354.52499,498.05307L354.52499,497.81305L354.28496,497.81305L354.28496,497.57302L354.04493,497.57302
				L353.8049,497.57302L353.8049,497.333L353.56487,497.333L353.32484,497.333L353.32484,497.09297L353.08481,497.09297L353.08481,496.85295
				L352.84478,496.85295L352.60475,496.85295L352.60475,496.61292L352.36472,496.61292L352.36472,496.37289L352.12469,496.37289
				L352.12469,496.13287L351.88466,496.13287L351.64463,496.13287L351.64463,495.89284L351.40459,495.89284L351.40459,495.65282
				L351.16456,495.65282L350.92453,495.65282L350.92453,495.41279L350.6845,495.41279L350.6845,495.17277L350.44447,495.17277L350.44447,495.41279
				L350.44447,495.65282L350.20444,495.65282L350.20444,495.89284L350.20444,496.13287L350.20444,496.37289L349.96441,496.37289
				L349.96441,496.61292L349.96441,496.85295L349.96441,497.09297L349.96441,497.333L349.72438,497.333L349.72438,497.57302L349.72438,497.81305
				L349.72438,498.05307L349.48435,498.05307L349.48435,498.2931L349.48435,498.53312L349.24432,498.53312L349.24432,498.77315L
				349.24432,499.01318L349.00429,499.01318L349.00429,499.2532L349.24432,499.2532L349.00429,499.2532L349.00429,499.49323L349.00429,499.73325
				L348.76426,499.73325L348.76426,499.97328L348.76426,500.2133L348.52423,500.2133L348.52423,500.45333L348.2842,500.45333L348.2842,500.69335
				L348.2842,500.93338L348.04417,500.93338L348.04417,501.17341L347.80414,501.17341L347.80414,501.41343L347.80414,501.65346L
				347.56411,501.65346L347.56411,501.89348L347.32408,501.89348L347.32408,502.13351L347.32408,502.37353L347.32408,502.61356L
				347.08405,502.61356L347.08405,502.37353L346.84402,502.37353L346.84402,502.61356L346.60399,502.61356L346.60399,502.85359L
				346.36396,502.85359L346.36396,503.09361L346.12392,503.09361L346.12392,503.33364L345.88389,503.33364L345.88389,503.57366L
				345.88389,503.33364L345.88389,503.09361L345.88389,502.85359L345.88389,502.61356L345.88389,502.37353L346.12392,502.37353L
				346.12392,502.13351L346.12392,501.89348L346.12392,501.65346L346.12392,501.41343L346.36396,501.41343L346.36396,501.17341L
				346.36396,500.93338L346.36396,500.69335L346.36396,500.45333L346.60399,500.45333L346.60399,500.2133L346.60399,499.97328L346.60399,499.73325
				L346.60399,499.49323L346.60399,499.2532L346.84402,499.2532L346.84402,499.01318L346.84402,498.77315L346.84402,498.53312L347.08405,498.53312
				L347.08405,498.2931L347.08405,498.05307L347.32408,498.05307L347.32408,497.81305L347.32408,497.57302L347.32408,497.333L347.32408,497.09297
				L347.32408,496.85295L347.56411,496.85295L347.56411,496.61292L347.56411,496.37289L347.56411,496.13287L347.80414,496.13287
				L347.80414,495.89284L347.80414,495.65282L347.80414,495.41279L347.80414,495.17277L347.80414,494.93274L348.04417,494.93274
				L348.04417,494.69272L348.04417,494.45269L348.04417,494.21266L348.04417,493.97264L348.04417,493.73261L347.80414,493.73261
				L347.80414,493.49259L348.04417,493.49259L348.04417,493.25256L348.2842,493.25256L348.2842,493.01254L348.2842,492.77251L348.52423,492.77251
				L348.52423,492.53249L348.52423,492.29246L348.76426,492.29246L348.76426,492.05243L349.00429,492.05243L349.00429,491.81241
				L349.24432,491.81241L349.48435,491.81241L349.48435,491.57238L349.72438,491.57238L349.72438,491.33236L349.72438,491.09233
				L349.96441,491.09233L349.96441,490.85231L350.20444,490.85231L350.20444,490.61228L350.20444,490.37225L350.44447,490.37225
				L350.6845,490.37225L350.6845,490.13223L350.92453,490.13223L350.92453,489.8922L351.16456,489.8922L351.16456,489.65218L351.40459,489.65218
				L351.64463,489.65218L351.88466,489.65218L352.12469,489.65218L352.36472,489.65218L352.60475,489.65218L352.84478,489.65218
				L353.08481,489.65218L353.32484,489.65218L353.32484,489.8922L353.56487,489.8922L353.56487,483.17149L353.8049,483.17149L354.28496,483.17149
				L354.52499,483.17149L354.76502,483.17149L354.76502,483.41151L354.76502,483.65154L354.76502,483.89156L354.76502,485.09169
				L354.76502,485.33172L354.76502,485.57174L354.76502,486.29182L354.76502,486.77187L354.76502,487.49195L354.76502,488.21202
				L354.52499,488.21202L354.52499,488.69208L354.52499,488.9321L354.52499,489.17213L354.52499,489.41215L354.52499,489.17213L
				354.76502,489.17213L355.00505,489.17213L355.00505,488.9321L355.24508,488.9321L355.24508,488.69208L355.48511,488.69208L355.48511,488.45205
				L355.72514,488.45205L355.72514,488.21202L355.72514,487.972L355.96517,487.972L355.96517,487.73197L355.96517,487.49195L356.2052,487.49195
				L356.2052,487.25192L356.2052,487.0119L356.2052,486.77187L356.2052,486.53185L356.2052,486.29182L356.2052,486.05179L355.96517,486.05179
				L355.96517,485.81177L355.96517,485.57174L355.72514,485.57174L355.72514,485.33172L355.72514,485.09169L355.48511,485.09169
				L355.48511,484.85167L355.48511,484.37162L355.48511,484.13159L355.24508,484.13159L355.24508,483.89156L355.24508,483.41151
				L355.24508,483.17149L355.48511,483.17149L355.72514,483.17149L355.96517,483.17149L356.2052,483.17149L356.2052,482.93146L356.2052,483.17149
				L356.44523,483.17149L356.68526,483.17149L356.9253,483.17149L356.9253,483.41151L357.16533,483.41151L357.40536,483.41151L357.64539,483.41151
				L357.88542,483.41151L358.12545,483.41151L358.36548,483.41151L358.36548,483.17149L358.60551,483.17149L358.84554,483.17149
				L359.08557,483.17149L359.08557,482.93146L359.3256,482.93146L359.56563,482.93146L359.56563,482.69144L359.80566,482.69144L
				360.04569,482.69144L360.28572,482.69144L360.52575,482.69144L360.52575,482.45141L360.76578,482.45141L361.00581,482.45141L
				361.24584,482.45141L361.48587,482.45141L361.7259,482.45141L361.7259,482.93146L361.7259,483.17149L361.7259,483.41151L361.7259,483.65154
				L361.7259,483.89156L361.48587,483.89156L361.48587,484.13159L361.48587,484.61164L361.48587,484.85167L361.48587,485.09169L
				361.7259,485.09169L361.7259,485.33172L361.7259,485.57174L361.7259,485.81177L361.7259,486.05179L361.7259,486.29182L361.48587,486.29182
				L361.48587,486.53185L361.24584,486.53185L361.24584,486.77187L361.00581,486.77187L360.76578,486.77187L360.76578,487.0119L
				360.76578,487.25192L360.76578,487.49195L360.52575,487.49195L360.52575,487.73197L360.28572,487.73197L360.28572,487.972L360.52575,487.972
				L360.52575,488.21202L360.76578,488.21202L361.00581,488.21202L361.00581,488.45205L361.24584,488.45205L361.24584,488.69208
				L361.00581,488.69208L361.00581,488.9321L360.76578,488.9321L360.76578,489.17213L360.76578,489.41215L360.52575,489.41215L360.52575,489.65218
				L360.28572,489.65218L360.28572,489.8922L360.52575,489.8922L360.52575,490.13223L360.76578,490.13223L360.76578,490.37225L361.00581,490.37225
				L361.24584,490.37225L361.24584,490.61228L361.48587,490.61228L361.48587,490.85231L361.24584,490.85231L361.24584,491.09233
				L361.24584,491.33236L361.48587,491.33236L361.7259,491.33236L361.7259,491.57238L361.96594,491.57238L361.96594,491.81241L362.20597,491.81241
				L362.446,491.81241L362.446,492.05243L362.446,491.81241L362.68603,491.81241L362.92606,491.81241L362.92606,491.57238L363.16609,491.57238
				L363.40612,491.57238L363.40612,491.33236L363.64615,491.33236L363.64615,491.09233L363.64615,490.85231L363.64615,491.09233
				L363.88618,491.09233L363.88618,491.33236L364.12621,491.33236L364.36624,491.33236L364.36624,491.57238L364.60627,491.57238
				L364.60627,491.81241L364.8463,491.81241L364.8463,491.57238L365.08633,491.57238L365.08633,491.33236L365.32636,491.33236L365.32636,491.09233
				L365.32636,490.85231L365.56639,490.85231L365.56639,490.61228L365.80642,490.61228L365.80642,490.37225L366.04645,490.37225
				L366.04645,490.13223L366.04645,489.8922L366.28648,489.8922L366.28648,489.65218L366.52651,489.65218L366.52651,489.41215L366.76654,489.41215
				L366.76654,489.17213L366.76654,488.9321L367.00657,488.9321L367.00657,488.69208L366.76654,488.69208L366.76654,488.45205L366.76654,488.21202
				L366.52651,488.21202L366.52651,487.972L366.52651,487.73197L366.76654,487.73197L366.76654,487.49195L367.00657,487.49195L367.00657,487.25192
				L367.00657,487.0119L367.24661,487.0119L367.24661,486.77187L367.24661,486.53185L367.48664,486.53185L367.48664,486.29182L367.48664,486.05179
				L367.72667,486.05179L367.72667,485.81177L367.72667,485.57174L367.9667,485.57174L367.9667,485.33172L367.9667,485.09169L367.72667,485.09169
				L367.72667,484.85167L367.9667,484.85167L367.9667,484.61164L368.20673,484.61164L368.20673,484.37162L368.20673,484.13159L368.20673,483.89156
				L368.20673,483.65154L368.20673,483.41151L368.68679,483.41151L368.92682,483.41151L369.16685,483.41151L369.64691,483.41151
				L369.88694,483.41151L370.12697,483.41151L370.12697,483.65154L370.367,483.65154L370.60703,483.65154L370.84706,483.65154L370.84706,483.89156
				L371.08709,483.89156L371.32712,483.89156L371.32712,484.13159L371.56715,484.13159L371.80718,484.13159L371.80718,483.89156
				L372.04721,483.89156L372.28724,483.89156L372.52728,483.89156L372.76731,483.89156L372.76731,483.65154L373.00734,483.65154
				L373.00734,483.41151L373.24737,483.41151L373.4874,483.41151L373.72743,483.41151L373.72743,483.65154L373.96746,483.65154L
				374.20749,483.65154L374.44752,483.65154L374.44752,483.89156L374.68755,483.89156L374.68755,484.13159L374.92758,484.13159L
				374.92758,484.37162L375.16761,484.37162L375.16761,484.61164L375.40764,484.61164L375.40764,484.85167L375.64767,484.85167L
				375.8877,484.85167L375.8877,485.09169L376.12773,485.09169L376.36776,485.09169L376.60779,485.09169L376.84782,485.09169L377.08785,485.09169
				L377.32788,485.09169L377.32788,485.33172L377.56791,485.33172L377.80795,485.33172L378.04798,485.33172L378.28801,485.33172
				L378.28801,485.09169L378.52804,485.09169L378.76807,485.09169L378.76807,484.85167L379.0081,484.85167L379.24813,484.85167L
				379.48816,484.85167L379.48816,485.09169L379.96822,485.09169L379.96822,484.85167L380.20825,484.85167L380.68831,484.85167L
				380.92834,484.85167L380.92834,485.09169L380.92834,484.85167L381.16837,484.85167L381.16837,484.61164L380.92834,484.61164L
				380.92834,484.37162L381.16837,484.37162L381.16837,484.13159L381.4084,484.13159L381.4084,483.89156L381.4084,483.65154L381.4084,483.41151
				L381.16837,483.41151L380.92834,483.41151L380.68831,483.41151L380.44828,483.41151L380.44828,483.65154L380.20825,483.65154
				L379.96822,483.65154L379.48816,483.65154L379.0081,483.65154L378.76807,483.65154L378.52804,483.65154L378.52804,483.41151L
				378.52804,483.17149L378.76807,483.17149L378.76807,482.93146L379.0081,482.93146L379.24813,482.93146L379.48816,482.93146L379.72819,482.93146
				L379.96822,482.93146L379.96822,483.17149L380.44828,483.17149L381.16837,483.17149L381.16837,482.69144L381.16837,482.45141
				L381.4084,482.45141L381.4084,482.69144L381.4084,482.45141L381.16837,482.45141L381.16837,482.21139L381.4084,482.21139L381.4084,481.97136
				L381.4084,481.73133L381.16837,481.73133L381.16837,481.97136L380.92834,481.97136L380.68831,481.97136L380.68831,481.73133L
				380.68831,481.49131L380.68831,481.25128L380.68831,481.01126L380.44828,481.01126L380.68831,481.01126L380.92834,481.01126L
				380.92834,480.77123L380.92834,481.01126L380.92834,481.25128L381.16837,481.25128L381.16837,481.49131L381.4084,481.49131L381.4084,481.73133
				L381.64843,481.73133L381.88846,481.73133L382.12849,481.73133L382.36852,481.73133L382.36852,481.97136L382.36852,482.21139
				L382.60855,482.21139L382.36852,482.21139L382.36852,482.45141L382.12849,482.45141L382.36852,482.45141L382.36852,482.69144
				L382.36852,482.93146L382.60855,482.93146L382.60855,483.17149L382.60855,483.41151L382.36852,483.41151L382.60855,483.41151
				L382.60855,483.65154L382.60855,483.89156L382.84859,483.89156L382.60855,483.89156L382.60855,484.13159L382.84859,484.13159
				L382.84859,484.37162L382.84859,484.61164L382.60855,484.61164L382.36852,484.61164L382.36852,484.85167L382.36852,485.09169
				L382.60855,485.09169L382.60855,485.33172L382.36852,485.33172L382.36852,485.57174L382.12849,485.57174L381.88846,485.57174
				L381.88846,485.81177L381.64843,485.81177L381.4084,485.81177L381.64843,485.81177L381.64843,486.05179L381.4084,486.05179L381.16837,486.05179
				L381.16837,486.29182L380.92834,486.29182L380.92834,486.53185L381.16837,486.53185L381.16837,486.77187L380.92834,486.77187
				L380.92834,487.0119L380.68831,487.0119L380.44828,487.0119L380.44828,487.25192L380.20825,487.25192L380.20825,487.49195L380.44828,487.49195
				L380.44828,487.73197L380.68831,487.73197L380.92834,487.73197L380.92834,487.49195L381.16837,487.49195L381.4084,487.49195L
				381.64843,487.49195L381.88846,487.49195L382.12849,487.49195L382.12849,487.25192L382.36852,487.25192L382.60855,487.25192L
				382.60855,487.49195L382.84859,487.49195L383.08862,487.49195L383.32865,487.49195L383.56868,487.49195L383.80871,487.49195L
				384.04874,487.49195L384.04874,487.73197L384.28877,487.73197L384.5288,487.73197L384.76883,487.73197L385.00886,487.73197L385.00886,487.972
				L385.24889,487.972L385.48892,487.972L385.72895,487.972L385.96898,487.972L385.96898,488.21202L386.20901,488.21202L386.44904,488.21202
				L386.68907,488.21202L386.68907,487.972L386.68907,487.73197L386.9291,487.73197L386.9291,487.49195L386.9291,487.25192L386.68907,487.25192
				L386.68907,487.0119L386.68907,486.29182L386.68907,486.05179L386.9291,486.05179L386.9291,485.81177L386.9291,485.57174L386.44904,485.57174
				L386.20901,485.57174L386.20901,485.33172L386.44904,485.33172L386.44904,485.09169L386.68907,485.09169L386.9291,485.09169L
				386.9291,484.85167L387.16913,484.85167L387.16913,485.09169L387.16913,485.33172L387.40916,485.33172L387.64919,485.33172L387.88922,485.33172
				L387.88922,485.57174L387.64919,485.57174L387.64919,485.81177L387.88922,485.81177L387.88922,486.05179L388.12926,486.05179
				L388.12926,486.29182L388.36929,486.29182L388.36929,486.53185L388.60932,486.53185L388.84935,486.53185L388.84935,486.77187
				L389.08938,486.77187L389.08938,487.0119L389.32941,487.0119L389.32941,487.25192L389.56944,487.25192L389.56944,487.49195L389.80947,487.49195
				L389.80947,487.73197L390.0495,487.73197L390.0495,487.972L390.28953,487.972L390.28953,488.21202L390.52956,488.21202L390.52956,488.45205
				L390.76959,488.45205L391.00962,488.45205L391.24965,488.45205L391.24965,488.69208L391.48968,488.69208L391.72971,488.69208
				L391.72971,488.9321L391.96974,488.9321L391.96974,489.17213L392.20977,489.17213L392.4498,489.17213L392.4498,489.41215L392.68983,489.41215
				L392.68983,489.65218L392.92986,489.65218L393.16989,489.65218L393.16989,489.8922L393.40993,489.8922L393.40993,490.13223L393.64996,490.13223
				L393.88999,490.13223L393.88999,490.37225L394.13002,490.37225L394.37005,490.37225L394.61008,490.37225L394.85011,490.37225
				L395.09014,490.37225L395.33017,490.37225L395.5702,490.37225L395.5702,490.61228L395.81023,490.61228L396.05026,490.61228L396.53032,490.61228
				L396.77035,490.61228L397.01038,490.61228L397.01038,490.37225L397.25041,490.37225L397.49044,490.37225L397.49044,490.13223
				L397.73047,490.13223L397.73047,489.8922L397.9705,489.8922L398.21053,489.8922L398.21053,489.65218L398.45057,489.65218L398.6906,489.65218
				L398.93063,489.65218L398.93063,489.41215L399.17066,489.41215L399.41069,489.41215L399.65072,489.41215L399.89075,489.41215
				L400.13078,489.41215L400.37081,489.41215L400.61084,489.41215L400.61084,489.17213L400.85087,489.17213L401.0909,489.17213L
				401.33093,489.17213L401.33093,488.9321L401.57096,488.9321L401.81099,488.9321L401.81099,488.69208L401.57096,488.69208L401.57096,488.45205
				L401.81099,488.45205L401.81099,488.69208L402.05102,488.69208L402.29105,488.69208L402.29105,488.45205L402.53108,488.45205
				L402.77111,488.45205L402.77111,488.21202L403.01114,488.21202L403.25117,488.21202L403.25117,487.972L403.25117,487.73197L403.4912,487.73197
				L403.4912,487.49195L403.25117,487.49195L403.01114,487.49195L403.01114,487.25192L402.77111,487.25192L403.01114,487.25192L
				403.01114,487.0119L403.25117,487.0119L403.4912,487.0119L403.4912,487.25192L403.73124,487.25192L403.73124,487.0119L403.97127,487.0119
				L403.97127,486.77187L403.97127,486.53185L404.2113,486.53185L404.2113,486.29182L404.45133,486.29182L404.45133,486.05179L404.69136,486.05179
				L404.69136,485.81177L404.93139,485.81177L404.93139,485.57174L405.17142,485.57174L405.17142,485.33172L405.41145,485.33172
				L405.41145,485.09169L405.65148,485.09169L405.65148,484.85167"/>
			<path clip-path="url(#SVG_CP_2)" fill="none" stroke="#999999" stroke-width="0.96012" stroke-miterlimit="10" stroke-linecap="round" stroke-linejoin="round" d="
				M405.65148,484.85167L405.65148,484.61164L405.41145,484.61164L405.65148,484.61164L405.65148,484.37162L405.65148,484.13159
				L405.65148,483.89156L405.41145,483.89156L405.41145,483.65154L405.65148,483.65154L406.13154,483.65154L406.13154,483.41151
				L406.37157,483.41151L406.37157,482.93146L406.6116,482.93146L406.6116,482.45141L406.6116,482.21139L406.85163,482.21139L407.09166,482.21139
				L407.33169,482.21139L407.57172,482.21139L407.57172,482.45141L407.57172,482.21139L408.05178,482.21139L408.05178,481.97136
				L408.05178,481.73133L408.05178,481.49131L408.29181,481.49131L408.29181,481.25128L408.29181,481.01126L408.53184,481.01126
				L408.53184,480.77123L408.53184,480.53121L408.53184,480.29118L408.77187,480.29118L408.77187,480.05116L408.77187,480.29118
				L408.77187,480.53121L408.53184,480.53121L408.53184,480.77123L408.77187,480.77123L408.77187,481.01126L408.77187,481.25128
				L409.01191,481.25128L409.01191,481.49131L409.01191,481.73133L409.25194,481.73133L409.49197,481.73133L409.49197,481.97136
				L409.732,481.97136L409.732,482.21139L409.97203,482.21139L410.21206,482.21139L410.45209,482.21139L410.45209,482.45141L410.45209,482.69144
				L410.45209,482.93146L410.21206,482.93146L410.45209,482.93146L410.45209,483.17149L410.45209,483.41151L410.21206,483.41151
				L410.21206,483.65154L410.21206,483.89156L410.21206,484.13159L410.21206,484.37162L409.97203,484.37162L409.97203,484.61164
				L409.97203,484.85167L410.21206,484.85167L410.21206,485.09169L410.45209,485.09169L410.69212,485.09169L410.93215,485.09169
				L410.93215,485.33172L411.17218,485.33172L411.41221,485.33172L411.65224,485.33172L411.65224,485.57174L411.41221,485.57174
				L411.41221,485.81177L411.65224,485.81177L411.65224,486.05179L411.89227,486.05179L412.1323,486.05179L412.37233,486.05179L
				412.61236,486.05179L412.85239,486.05179L412.85239,485.81177L413.09242,485.81177L413.33245,485.81177L413.57248,485.81177L
				413.81251,485.81177L414.05254,485.81177L414.29258,485.81177L414.53261,485.81177L414.77264,485.81177L415.01267,485.81177L
				415.01267,486.05179L415.49273,486.05179L415.49273,485.81177L415.73276,485.81177L416.21282,485.81177L416.45285,485.81177L
				416.93291,485.81177L417.17294,485.81177L417.41297,485.81177L417.653,485.81177L417.89303,485.81177L418.13306,485.81177L418.37309,485.81177
				L418.37309,485.57174L418.61312,485.57174L418.85315,485.57174L419.09318,485.57174L419.33322,485.57174L419.57325,485.57174
				L419.81328,485.57174L419.81328,485.33172L420.05331,485.33172L420.29334,485.33172L420.53337,485.33172L420.7734,485.33172L
				420.7734,485.09169L421.01343,485.09169L421.25346,485.09169L421.49349,485.09169L421.73352,485.09169L421.97355,485.09169L421.97355,484.85167
				L421.97355,485.09169L422.21358,485.09169L422.45361,485.09169L422.69364,485.09169L422.93367,485.09169L423.1737,485.09169L
				423.1737,485.33172L423.41373,485.33172L423.65376,485.33172L423.89379,485.33172L424.13382,485.33172L424.37385,485.33172L424.61389,485.33172
				L424.61389,485.57174L424.85392,485.57174L425.09395,485.57174L425.33398,485.57174L425.57401,485.57174L425.81404,485.57174
				L426.05407,485.57174L426.2941,485.57174L426.2941,485.33172L426.2941,485.09169L426.53413,485.09169L426.53413,484.85167L426.53413,484.61164
				L426.77416,484.61164L427.01419,484.61164L427.01419,484.85167L427.25422,484.85167L427.25422,485.09169L427.49425,485.09169
				L427.49425,485.33172L427.49425,485.57174L427.25422,485.57174L427.25422,485.81177L427.49425,485.81177L427.73428,485.81177
				L427.97431,485.81177L428.21434,485.81177L428.45437,485.81177L428.6944,485.81177L428.93443,485.81177L428.93443,486.05179L
				429.17446,486.05179L429.41449,486.05179L429.65452,486.05179L429.89456,486.05179L430.13459,486.05179L430.37462,486.05179L
				430.61465,486.05179L430.61465,486.29182L430.85468,486.29182L431.09471,486.29182L431.33474,486.29182L431.57477,486.29182L
				431.8148,486.29182L431.8148,486.05179L431.57477,486.05179L431.8148,486.05179L432.05483,486.05179L432.05483,486.29182L432.29486,486.29182
				L432.29486,486.05179L432.53489,486.05179L432.77492,486.05179L432.77492,485.81177L433.01495,485.81177L433.01495,485.57174
				L432.77492,485.57174L432.77492,485.33172L432.77492,485.57174L433.01495,485.57174L433.01495,485.81177L433.25498,485.81177
				L433.25498,486.05179L433.25498,486.29182L433.25498,486.53185L433.25498,486.77187L433.25498,487.0119L433.25498,487.49195L
				433.25498,487.73197L433.49501,487.73197L433.73504,487.73197L433.73504,487.49195L433.97507,487.49195L434.2151,487.49195L434.2151,487.25192
				L434.45513,487.25192L434.45513,487.0119L434.69516,487.0119L434.9352,487.0119L434.9352,486.77187L435.17523,486.77187L435.41526,486.77187
				L435.65529,486.77187L435.65529,487.0119L435.89532,487.0119L436.13535,487.0119L436.37538,487.0119L436.61541,487.0119L436.85544,487.0119
				L436.85544,486.77187L437.09547,486.77187L437.09547,487.0119L436.85544,487.0119L436.85544,487.25192L436.61541,487.25192L436.61541,487.49195
				L436.37538,487.49195L436.37538,487.73197L436.13535,487.73197L436.13535,487.972L435.89532,487.972L435.89532,487.73197L435.65529,487.73197
				L435.41526,487.73197L435.41526,487.49195L435.17523,487.49195L435.17523,487.73197L435.17523,487.972L435.17523,488.21202L434.9352,488.21202
				L434.9352,488.45205L434.9352,488.69208L434.9352,488.9321L434.9352,489.17213L434.9352,489.41215L435.17523,489.41215L435.17523,489.65218
				L435.17523,489.8922L435.41526,489.8922L435.41526,490.13223L435.65529,490.13223L435.65529,490.37225L435.89532,490.37225L435.89532,490.61228
				L435.89532,490.85231L435.65529,490.85231L435.65529,491.09233L435.65529,491.33236L435.41526,491.33236L435.41526,491.57238
				L435.41526,491.81241L435.41526,492.05243L435.17523,492.05243L435.17523,492.29246L435.17523,492.53249L434.9352,492.53249L
				434.9352,492.77251L434.69516,492.77251L434.69516,493.01254L434.69516,493.25256L434.45513,493.25256L434.2151,493.25256L433.97507,493.25256
				L433.97507,493.01254L433.97507,492.77251L433.97507,492.53249L433.97507,492.29246L433.73504,492.29246L433.73504,492.05243
				L433.73504,491.81241L433.49501,491.81241L433.49501,491.57238L433.49501,491.33236L433.49501,490.61228L433.25498,490.61228
				L433.25498,490.85231L433.01495,490.85231L433.25498,490.85231L433.25498,490.61228L433.25498,490.37225L433.01495,490.37225
				L432.77492,490.37225L432.77492,490.61228L432.53489,490.61228L432.29486,490.61228L432.05483,490.61228L431.8148,490.61228L
				431.8148,490.85231L431.57477,490.85231L431.33474,490.85231L431.09471,490.85231L431.09471,491.09233L430.85468,491.09233L430.61465,491.09233
				L430.37462,491.09233L430.13459,491.09233L430.13459,491.33236L429.89456,491.33236L429.65452,491.33236L429.41449,491.33236
				L429.17446,491.33236L429.17446,491.57238L428.93443,491.57238L428.6944,491.57238L428.45437,491.57238L428.45437,491.33236L
				428.21434,491.33236L428.21434,491.09233L427.97431,491.09233L427.97431,490.85231L427.97431,491.09233L427.73428,491.09233L
				427.73428,491.33236L427.49425,491.33236L427.49425,491.57238L427.25422,491.57238L427.25422,491.81241L427.01419,491.81241L
				427.01419,492.05243L426.77416,492.05243L426.53413,492.05243L426.53413,491.81241L426.2941,491.81241L426.2941,492.05243L426.2941,492.29246
				L426.05407,492.29246L426.05407,492.53249L426.05407,492.77251L426.05407,493.01254L425.81404,493.01254L425.81404,493.25256
				L425.81404,493.49259L425.57401,493.49259L425.57401,493.73261L425.57401,493.97264L425.33398,493.97264L425.33398,494.21266
				L425.33398,494.45269L425.09395,494.45269L425.09395,494.69272L425.09395,494.93274L424.85392,494.93274L424.85392,495.17277
				L424.61389,495.17277L424.61389,495.41279L424.37385,495.41279L424.37385,495.65282L424.37385,495.89284L424.13382,495.89284
				L424.13382,496.13287L423.89379,496.13287L423.89379,496.37289L423.65376,496.37289L423.65376,496.61292L423.41373,496.61292
				L423.1737,496.61292L422.93367,496.61292L422.93367,496.85295L422.69364,496.85295L422.45361,496.85295L422.45361,497.09297L
				422.21358,497.09297L421.97355,497.09297L421.97355,497.333L421.73352,497.333L421.49349,497.333L421.49349,497.57302L421.49349,497.81305
				L421.25346,497.81305L421.25346,498.05307L421.01343,498.05307L421.01343,498.2931L420.7734,498.2931L420.7734,498.53312L420.53337,498.53312
				L420.53337,498.77315L420.29334,498.77315L420.29334,499.01318L420.05331,499.01318L419.81328,499.01318L419.81328,499.2532L
				419.81328,499.49323L419.81328,499.73325L419.57325,499.73325L419.57325,499.97328L419.33322,499.97328L419.09318,499.97328L
				419.09318,500.2133L418.85315,500.2133L418.85315,500.45333L418.61312,500.45333L418.61312,500.69335L418.37309,500.69335L418.13306,500.69335
				L418.13306,500.93338L417.89303,500.93338L417.89303,501.17341L417.653,501.17341L417.653,501.41343L417.41297,501.41343L417.41297,501.65346
				L417.17294,501.65346L416.93291,501.65346L416.93291,501.89348L416.69288,501.89348L416.69288,502.13351L416.45285,502.13351
				L416.45285,502.37353L416.21282,502.37353L415.97279,502.37353L415.97279,502.61356L415.73276,502.61356L415.73276,502.85359
				L415.49273,502.85359L415.49273,503.09361L415.2527,503.09361L415.2527,503.33364L415.01267,503.33364L415.01267,503.57366L414.77264,503.57366
				L414.53261,503.57366L414.53261,503.81369L414.29258,503.81369L414.29258,504.05371L414.05254,504.05371L414.05254,504.29374
				L413.81251,504.29374L413.57248,504.29374L413.57248,504.53376L413.33245,504.53376L413.33245,504.77379L413.57248,504.77379
				L413.57248,505.01382L413.33245,505.01382L413.33245,505.25384L413.09242,505.25384L413.09242,505.49387L412.85239,505.49387
				L412.85239,505.73389L412.61236,505.73389L412.61236,505.49387L412.37233,505.49387L412.1323,505.49387L412.1323,505.73389L411.89227,505.73389
				L411.89227,505.97392L411.65224,505.97392L411.65224,506.21394L411.41221,506.21394L411.41221,506.45397L411.17218,506.45397
				L411.17218,506.69399L410.93215,506.69399L410.93215,506.93402L410.69212,506.93402L410.69212,507.17405L410.45209,507.17405
				L410.45209,507.41407L410.21206,507.41407L410.21206,507.6541L409.97203,507.6541L409.97203,507.89412L409.732,507.89412L409.732,508.13415
				L409.49197,508.13415L409.49197,508.37417L409.25194,508.37417L409.01191,508.37417L409.01191,508.6142L408.77187,508.6142L408.77187,508.85422
				L408.53184,508.85422L408.53184,509.09425L408.29181,509.09425L408.29181,509.33428L408.05178,509.33428L408.05178,509.5743L
				407.81175,509.5743L407.81175,509.81433L407.57172,509.81433L407.57172,510.05435L407.33169,510.05435L407.33169,510.29438L407.09166,510.29438
				L407.09166,510.5344L406.85163,510.5344L406.85163,510.77443L406.6116,510.77443L406.6116,511.01445L406.37157,511.01445L406.37157,511.25448
				L406.37157,511.49451L405.41145,511.49451L405.17142,511.49451L405.17142,511.73453L404.93139,511.73453L404.69136,511.73453
				L404.69136,511.97456L404.45133,511.97456L404.45133,512.21458L404.2113,512.21458L404.2113,512.45461L403.97127,512.45461L403.97127,512.69463
				L403.73124,512.69463L403.73124,512.93466L403.97127,512.93466L403.97127,513.17468L404.2113,513.17468L404.2113,513.41471L403.97127,513.41471
				L403.97127,513.65474L403.73124,513.65474L403.73124,513.89476L403.73124,514.13479L403.97127,514.13479L403.97127,513.89476
				L403.97127,514.13479L404.2113,514.13479L404.2113,514.37481L403.97127,514.37481L403.97127,514.61484L403.97127,514.85486L403.97127,515.09489
				L404.2113,515.09489L404.2113,515.33492L404.2113,515.57494L404.2113,515.81497L404.2113,516.05499L404.45133,516.05499L404.45133,516.29502
				L404.45133,516.53504L404.45133,516.77507L404.45133,517.01509L404.45133,517.25512L404.69136,517.25512L404.69136,517.49515
				L404.69136,517.73517L404.69136,517.9752L404.69136,518.21522L404.93139,518.21522L404.93139,518.45525L404.93139,518.69527L
				405.17142,518.69527L405.17142,518.9353L405.17142,519.17532L405.41145,519.17532L405.65148,519.17532L405.65148,518.9353L405.65148,519.17532
				L405.89151,519.17532L405.89151,519.41535L405.89151,519.65538L405.65148,519.65538L405.41145,519.65538L405.17142,519.65538
				L405.17142,519.8954L404.93139,519.8954L404.69136,519.8954L404.45133,519.8954L404.2113,519.8954L403.97127,519.8954L403.73124,519.8954
				L403.4912,519.8954L403.4912,519.65538L403.25117,519.65538L403.01114,519.65538L402.77111,519.65538L402.53108,519.65538L402.53108,519.8954
				L402.29105,519.8954L402.29105,520.13543L402.05102,520.13543L402.05102,520.37545L401.81099,520.37545L401.81099,520.61548L
				401.57096,520.61548L401.33093,520.61548L401.33093,520.8555L401.57096,520.8555L401.57096,521.09553L401.33093,521.09553L401.33093,520.8555
				L401.0909,520.8555L401.0909,521.09553L400.85087,521.09553L400.85087,521.33555L400.61084,521.33555L400.61084,521.57558L400.37081,521.57558
				L400.13078,521.57558L400.13078,521.81561L399.89075,521.81561L399.89075,522.05563L400.13078,522.05563L400.13078,522.29566
				L400.13078,522.53568L399.89075,522.53568L399.89075,522.29566L399.65072,522.29566L399.65072,522.05563L399.41069,522.05563
				L399.41069,522.29566L399.17066,522.29566L398.93063,522.29566L398.93063,522.53568L398.6906,522.53568L398.45057,522.53568L
				398.45057,522.77571L398.21053,522.77571L398.21053,523.01573L398.45057,523.01573L398.45057,523.25576L398.45057,523.49578L
				398.21053,523.49578L397.9705,523.49578L397.9705,523.25576L397.9705,523.01573L397.73047,523.01573L397.73047,523.25576L397.49044,523.25576
				L397.25041,523.25576L397.01038,523.25576L397.01038,523.49578L396.77035,523.49578L396.77035,523.73581L396.53032,523.73581
				L396.29029,523.73581L396.29029,523.97584L396.53032,523.97584L396.53032,524.21586L396.53032,524.45589L396.77035,524.45589
				L396.53032,524.45589L396.53032,524.69591L396.29029,524.69591L396.29029,524.93594L396.05026,524.93594L396.05026,524.69591
				L395.81023,524.69591L395.81023,524.45589L395.5702,524.45589L395.33017,524.45589L395.33017,524.69591L395.33017,524.93594L
				395.33017,525.17596L395.5702,525.17596L395.5702,525.41599L395.81023,525.41599L396.05026,525.41599L396.05026,525.17596L396.29029,525.17596
				L396.29029,525.41599L396.53032,525.41599L396.77035,525.41599L397.01038,525.41599L397.01038,525.65601L397.01038,525.89604
				L397.25041,525.89604L397.25041,526.13607L397.49044,526.13607L397.49044,526.37609L397.73047,526.37609L397.73047,526.61612
				L397.49044,526.61612L397.25041,526.61612L397.25041,526.37609L397.01038,526.37609L397.01038,526.13607L396.77035,526.13607
				L396.53032,526.13607L396.53032,525.89604L396.29029,525.89604L396.29029,525.65601L396.05026,525.65601L395.81023,525.65601
				L395.81023,525.41599L395.5702,525.41599L395.5702,525.65601L395.33017,525.65601L395.09014,525.65601L395.09014,525.89604L394.85011,525.89604
				L394.85011,526.13607L395.09014,526.13607L395.33017,526.13607L395.33017,526.37609L395.33017,526.61612L395.5702,526.61612L
				395.33017,526.61612L395.09014,526.61612L395.09014,526.85614L394.85011,526.85614L394.61008,526.85614L394.61008,527.09617L
				394.37005,527.09617L394.37005,526.85614L394.37005,526.61612L394.61008,526.61612L394.85011,526.61612L394.85011,526.37609L
				394.85011,526.13607L394.85011,525.89604L394.85011,525.65601L394.61008,525.65601L394.61008,525.89604L394.37005,525.89604L
				394.13002,525.89604L394.13002,526.13607L393.88999,526.13607L393.64996,526.13607L393.40993,526.13607L393.40993,525.89604L
				393.16989,525.89604L393.16989,525.65601L393.16989,525.41599L392.92986,525.41599L392.92986,525.65601L392.68983,525.65601L
				392.4498,525.65601L392.4498,525.89604L392.20977,525.89604L391.96974,525.89604L391.96974,526.13607L391.72971,526.13607L391.48968,526.13607
				L391.48968,526.37609L391.48968,526.61612L391.24965,526.61612L391.24965,526.85614L391.24965,527.09617L391.00962,527.09617
				L391.00962,527.33619L391.24965,527.33619L391.24965,527.57622L391.00962,527.57622L391.00962,527.33619L390.76959,527.33619
				L390.52956,527.33619L390.52956,527.09617L390.28953,527.09617L390.28953,526.85614L390.28953,526.61612L390.52956,526.61612
				L390.76959,526.61612L390.52956,526.61612L390.28953,526.61612L390.28953,526.85614L390.0495,526.85614L389.80947,526.85614L
				389.56944,526.85614L389.56944,527.09617L389.32941,527.09617L389.08938,527.09617L389.08938,527.33619L388.84935,527.33619L
				388.60932,527.33619L388.36929,527.33619L388.36929,527.57622L388.12926,527.57622L387.88922,527.57622L387.64919,527.57622L
				387.64919,527.81625L387.40916,527.81625L387.40916,527.57622L387.16913,527.57622L386.9291,527.57622L386.68907,527.57622L386.44904,527.57622
				L386.68907,527.57622L386.44904,527.57622L386.44904,527.33619L386.44904,527.09617L386.44904,526.85614L386.20901,526.85614
				L386.20901,526.61612L386.20901,526.37609L385.96898,526.37609L385.96898,526.13607L385.96898,525.89604L385.96898,525.65601
				L385.72895,525.65601L385.72895,525.41599L385.72895,525.17596L385.48892,525.17596L385.48892,524.93594L385.48892,524.69591
				L385.48892,524.45589L385.24889,524.45589L385.24889,524.21586L385.24889,523.97584L385.00886,523.97584L385.00886,523.73581
				L385.00886,523.49578L385.00886,523.25576L384.76883,523.25576L384.76883,523.01573L384.76883,522.77571L384.76883,522.53568
				L384.5288,522.53568L384.5288,522.29566L384.5288,522.05563L384.28877,522.05563L384.28877,521.81561L384.28877,521.57558L384.04874,521.57558
				L384.04874,521.33555L384.04874,521.09553L384.04874,520.8555L383.80871,520.8555L383.80871,520.61548L383.80871,520.37545L383.80871,520.13543
				L383.56868,520.13543L383.56868,519.8954L383.56868,519.65538L383.32865,519.65538L383.32865,519.41535L383.32865,519.17532L
				383.32865,518.9353L383.08862,518.9353L383.08862,518.69527L383.08862,518.45525L382.84859,518.45525L382.84859,518.21522L382.84859,517.9752
				L382.84859,517.73517L382.60855,517.73517L382.60855,517.49515L382.60855,517.25512L382.36852,517.25512L382.36852,517.01509
				L382.36852,516.77507"/>
			<path clip-path="url(#SVG_CP_2)" fill="none" stroke="#999999" stroke-width="0.96012" stroke-miterlimit="10" stroke-linecap="round" stroke-linejoin="round" d="
				M433.73504,539.5775L433.73504,539.33747L433.49501,539.33747L433.73504,539.33747L433.73504,539.09745L433.97507,539.09745L
				433.97507,539.33747L433.97507,539.09745L434.2151,539.09745L434.2151,539.33747L434.45513,539.33747L434.2151,539.33747L434.2151,539.5775
				L433.97507,539.5775L433.73504,539.5775L433.73504,539.5775"/>
			<path clip-path="url(#SVG_CP_2)" fill="none" stroke="#999999" stroke-width="0.96012" stroke-miterlimit="10" stroke-linecap="round" stroke-linejoin="round" d="
				M397.9705,540.77763L397.9705,540.5376L397.9705,540.29758L397.9705,539.81752L397.9705,539.5775L398.21053,539.5775L398.45057,539.5775
				L398.45057,539.81752L398.6906,539.81752L398.93063,539.81752L398.93063,540.05755L399.17066,540.05755L399.17066,540.29758L
				399.41069,540.29758L399.41069,540.5376L398.6906,540.5376L398.45057,540.5376L398.45057,540.77763L398.21053,540.77763L397.9705,540.77763
				L397.9705,540.77763"/>
			<path clip-path="url(#SVG_CP_2)" fill="none" stroke="#999999" stroke-width="0.96012" stroke-miterlimit="10" stroke-linecap="round" stroke-linejoin="round" d="
				M399.65072,543.65793L399.41069,543.65793L398.45057,543.65793L397.9705,543.65793L397.9705,543.41791L397.73047,543.41791L397.49044,543.41791
				L397.25041,543.41791L397.25041,543.17788L397.01038,543.17788L396.77035,543.17788L396.53032,543.17788L396.29029,543.17788
				L396.05026,543.17788L395.81023,543.17788L395.81023,542.93786L395.5702,542.93786L395.33017,542.93786L395.5702,542.93786L395.5702,542.69783
				L395.5702,542.45781L395.5702,542.21778L395.81023,542.21778L396.05026,542.21778L396.29029,542.21778L396.29029,542.45781L396.53032,542.45781
				L396.77035,542.45781L396.77035,542.21778L397.01038,542.21778L397.01038,541.97775L397.25041,541.97775L397.49044,541.97775
				L397.49044,541.73773L397.73047,541.73773L397.9705,541.73773L398.21053,541.73773L398.21053,541.4977L398.21053,541.73773L398.45057,541.73773
				L398.45057,541.4977L398.6906,541.4977L398.6906,541.25768L398.93063,541.25768L398.93063,541.01765L399.17066,541.01765L399.17066,540.77763
				L399.17066,541.01765L399.17066,541.25768L399.17066,541.4977L399.17066,541.73773L399.17066,541.97775L399.17066,542.21778L
				399.41069,542.21778L399.41069,542.45781L399.65072,542.45781L399.65072,542.69783L399.65072,542.93786L399.89075,542.93786L
				399.89075,543.17788L400.13078,543.17788L400.13078,543.41791L400.37081,543.41791L400.61084,543.41791L400.61084,543.65793L
				400.37081,543.65793L400.37081,543.41791L400.13078,543.41791L399.89075,543.41791L399.89075,543.65793L399.65072,543.65793L
				399.65072,543.65793"/>
			<path clip-path="url(#SVG_CP_2)" fill="none" stroke="#999999" stroke-width="0.96012" stroke-miterlimit="10" stroke-linecap="round" stroke-linejoin="round" d="
				M382.12849,547.97839L382.12849,547.97839"/>
			<path clip-path="url(#SVG_CP_2)" fill="none" stroke="#999999" stroke-width="0.96012" stroke-miterlimit="10" stroke-linecap="round" stroke-linejoin="round" d="
				M382.12849,547.97839L382.12849,548.21842L382.12849,547.97839L382.12849,547.97839"/>
			<path clip-path="url(#SVG_CP_2)" fill="none" stroke="#999999" stroke-width="0.96012" stroke-miterlimit="10" stroke-linecap="round" stroke-linejoin="round" d="
				M382.12849,549.41855L382.12849,549.17852L382.12849,548.9385L382.12849,548.69847L382.12849,549.17852L382.12849,549.41855L
				382.12849,549.41855"/>
			<path clip-path="url(#SVG_CP_2)" fill="none" stroke="#999999" stroke-width="0.96012" stroke-miterlimit="10" stroke-linecap="round" stroke-linejoin="round" d="
				M382.12849,549.41855L382.12849,549.41855"/>
			<path clip-path="url(#SVG_CP_2)" fill="none" stroke="#999999" stroke-width="0.96012" stroke-miterlimit="10" stroke-linecap="round" stroke-linejoin="round" d="
				M382.36852,549.65857L382.12849,549.65857L382.36852,549.65857L382.36852,549.65857"/>
			<path clip-path="url(#SVG_CP_2)" fill="none" stroke="#999999" stroke-width="0.96012" stroke-miterlimit="10" stroke-linecap="round" stroke-linejoin="round" d="
				M382.36852,549.65857L382.36852,549.65857"/>
			<path clip-path="url(#SVG_CP_2)" fill="none" stroke="#999999" stroke-width="0.96012" stroke-miterlimit="10" stroke-linecap="round" stroke-linejoin="round" d="
				M382.36852,549.65857L382.36852,549.8986L382.36852,550.13862L382.36852,549.8986L382.36852,549.65857L382.36852,549.65857"/>
			<path clip-path="url(#SVG_CP_2)" fill="none" stroke="#999999" stroke-width="0.96012" stroke-miterlimit="10" stroke-linecap="round" stroke-linejoin="round" d="
				M382.36852,550.13862L382.36852,550.13862"/>
			<path clip-path="url(#SVG_CP_2)" fill="none" stroke="#999999" stroke-width="0.96012" stroke-miterlimit="10" stroke-linecap="round" stroke-linejoin="round" d="
				M383.32865,555.65921L383.32865,555.65921"/>
			<path clip-path="url(#SVG_CP_2)" fill="none" stroke="#999999" stroke-width="0.96012" stroke-miterlimit="10" stroke-linecap="round" stroke-linejoin="round" d="
				M383.56868,556.13926L383.32865,556.13926L383.32865,555.89924L383.32865,555.65921L383.32865,555.89924L383.56868,555.89924
				L383.56868,556.13926"/>
			<path clip-path="url(#SVG_CP_2)" fill="none" stroke="#999999" stroke-width="0.96012" stroke-miterlimit="10" stroke-linecap="round" stroke-linejoin="round" d="
				M383.56868,556.13926L383.56868,556.13926"/>
			<path clip-path="url(#SVG_CP_2)" fill="none" stroke="#999999" stroke-width="0.96012" stroke-miterlimit="10" stroke-linecap="round" stroke-linejoin="round" d="
				M384.04874,556.61931L384.04874,556.61931"/>
			<path clip-path="url(#SVG_CP_2)" fill="none" stroke="#999999" stroke-width="0.96012" stroke-miterlimit="10" stroke-linecap="round" stroke-linejoin="round" d="
				M384.04874,556.61931L384.04874,556.61931"/>
			<path clip-path="url(#SVG_CP_2)" fill="none" stroke="#999999" stroke-width="0.96012" stroke-miterlimit="10" stroke-linecap="round" stroke-linejoin="round" d="
				M389.08938,556.61931L389.08938,556.61931"/>
			<path clip-path="url(#SVG_CP_2)" fill="none" stroke="#999999" stroke-width="0.96012" stroke-miterlimit="10" stroke-linecap="round" stroke-linejoin="round" d="
				M384.28877,556.61931L384.28877,556.61931"/>
			<path clip-path="url(#SVG_CP_2)" fill="none" stroke="#999999" stroke-width="0.96012" stroke-miterlimit="10" stroke-linecap="round" stroke-linejoin="round" d="
				M389.08938,556.61931L389.08938,556.61931"/>
			<path clip-path="url(#SVG_CP_2)" fill="none" stroke="#999999" stroke-width="0.96012" stroke-miterlimit="10" stroke-linecap="round" stroke-linejoin="round" d="
				M391.48968,556.61931L391.24965,556.61931L391.48968,556.61931L391.48968,556.61931"/>
			<path clip-path="url(#SVG_CP_2)" fill="none" stroke="#999999" stroke-width="0.96012" stroke-miterlimit="10" stroke-linecap="round" stroke-linejoin="round" d="
				M391.48968,556.61931L391.48968,556.85934L391.48968,556.61931"/>
			<path clip-path="url(#SVG_CP_2)" fill="none" stroke="#999999" stroke-width="0.96012" stroke-miterlimit="10" stroke-linecap="round" stroke-linejoin="round" d="
				M400.61084,556.85934L400.37081,556.85934L400.37081,556.61931L400.37081,556.37929L400.37081,556.13926L400.37081,555.89924
				L400.37081,555.65921L400.37081,555.41919L400.37081,554.93914L400.37081,554.69911L400.61084,554.69911L400.61084,554.93914
				L400.61084,555.17916L400.61084,555.41919L400.61084,555.65921L400.61084,555.89924L400.61084,556.37929L400.61084,556.61931
				L400.61084,556.85934L400.61084,556.85934"/>
			<path clip-path="url(#SVG_CP_2)" fill="none" stroke="#999999" stroke-width="0.96012" stroke-miterlimit="10" stroke-linecap="round" stroke-linejoin="round" d="
				M387.64919,557.09937L387.64919,557.09937"/>
			<path clip-path="url(#SVG_CP_2)" fill="none" stroke="#999999" stroke-width="0.96012" stroke-miterlimit="10" stroke-linecap="round" stroke-linejoin="round" d="
				M387.40916,557.09937L387.40916,557.09937"/>
			<path clip-path="url(#SVG_CP_2)" fill="none" stroke="#999999" stroke-width="0.96012" stroke-miterlimit="10" stroke-linecap="round" stroke-linejoin="round" d="
				M393.40993,557.33939L393.40993,557.09937L393.16989,557.09937L392.92986,557.09937L393.16989,557.09937L393.40993,557.09937
				L393.40993,557.33939"/>
			<path clip-path="url(#SVG_CP_2)" fill="none" stroke="#999999" stroke-width="0.96012" stroke-miterlimit="10" stroke-linecap="round" stroke-linejoin="round" d="
				M393.40993,557.33939L393.40993,557.33939"/>
			<path clip-path="url(#SVG_CP_2)" fill="none" stroke="#999999" stroke-width="0.96012" stroke-miterlimit="10" stroke-linecap="round" stroke-linejoin="round" d="
				M385.00886,557.57942L385.00886,557.57942"/>
			<path clip-path="url(#SVG_CP_2)" fill="none" stroke="#999999" stroke-width="0.96012" stroke-miterlimit="10" stroke-linecap="round" stroke-linejoin="round" d="
				M385.00886,557.57942L385.00886,557.57942"/>
			<path clip-path="url(#SVG_CP_2)" fill="none" stroke="#999999" stroke-width="0.96012" stroke-miterlimit="10" stroke-linecap="round" stroke-linejoin="round" d="
				M402.77111,560.2197L402.77111,560.2197"/>
			<path clip-path="url(#SVG_CP_2)" fill="none" stroke="#999999" stroke-width="0.96012" stroke-miterlimit="10" stroke-linecap="round" stroke-linejoin="round" d="
				M402.77111,560.2197L402.77111,560.2197"/>
			<path clip-path="url(#SVG_CP_2)" fill="none" stroke="#999999" stroke-width="0.96012" stroke-miterlimit="10" stroke-linecap="round" stroke-linejoin="round" d="
				M403.01114,560.2197L402.77111,560.2197L403.01114,560.2197L403.01114,560.2197"/>
			<path clip-path="url(#SVG_CP_2)" fill="none" stroke="#999999" stroke-width="0.96012" stroke-miterlimit="10" stroke-linecap="round" stroke-linejoin="round" d="
				M403.01114,560.2197L403.01114,560.2197"/>
			<path clip-path="url(#SVG_CP_2)" fill="none" stroke="#999999" stroke-width="0.96012" stroke-miterlimit="10" stroke-linecap="round" stroke-linejoin="round" d="
				M375.40764,573.18108L375.40764,572.94105L375.16761,572.94105L375.16761,572.70103L375.16761,572.461L374.92758,572.461L374.92758,572.22098
				L374.92758,571.98095L374.92758,571.74093L374.68755,571.74093L374.68755,571.5009L374.68755,571.26087L374.68755,571.02085L
				374.68755,570.78082L374.44752,570.78082L374.44752,570.5408L374.44752,570.30077L374.44752,570.06075L374.20749,570.06075L374.20749,569.82072
				L374.20749,569.5807L374.20749,569.34067L373.96746,569.34067L373.96746,569.10064L373.72743,569.10064L373.72743,568.86062L
				373.4874,568.86062L373.24737,568.86062L373.24737,568.62059L373.00734,568.62059L372.76731,568.62059L372.76731,568.38057L372.52728,568.38057
				L372.52728,568.14054L372.28724,568.14054L372.04721,568.14054L372.04721,567.90052L371.80718,567.90052L371.80718,567.66049
				L371.56715,567.66049L371.32712,567.66049L371.32712,567.42047L371.08709,567.42047L370.84706,567.42047L370.84706,567.18044
				L370.60703,567.18044L370.60703,566.94041L370.367,566.94041L370.12697,566.94041L370.12697,566.70039L369.88694,566.70039L369.88694,566.46036
				L369.64691,566.46036L369.40688,566.46036L369.40688,566.22034L369.16685,566.22034L369.16685,565.98031L368.92682,565.98031
				L368.68679,565.98031L368.68679,565.74029L368.44676,565.74029L368.20673,565.74029L368.20673,565.98031L367.9667,565.98031L
				367.9667,566.22034L367.72667,566.22034L367.72667,565.98031L367.9667,565.98031L367.9667,565.74029L367.9667,565.50026L368.20673,565.50026
				L368.44676,565.50026L368.44676,565.74029L368.68679,565.74029L368.68679,565.98031L368.92682,565.98031L369.16685,565.98031
				L369.16685,566.22034L369.40688,566.22034L369.64691,566.22034L369.64691,566.46036L369.88694,566.46036L369.88694,566.70039
				L370.12697,566.70039L370.367,566.70039L370.367,566.94041L370.60703,566.94041L370.84706,566.94041L370.84706,567.18044L371.08709,567.18044
				L371.08709,567.42047L371.32712,567.42047L371.56715,567.42047L371.56715,567.66049L371.80718,567.66049L371.80718,567.90052
				L372.04721,567.90052L372.28724,567.90052L372.28724,568.14054L372.52728,568.14054L372.76731,568.14054L372.76731,568.38057
				L373.00734,568.38057L373.00734,568.62059L373.24737,568.62059L373.4874,568.62059L373.4874,568.86062L373.72743,568.86062L373.72743,569.10064
				L373.96746,569.10064L374.20749,569.10064L374.20749,569.34067L374.44752,569.34067L374.44752,569.5807L374.44752,569.82072L
				374.44752,570.06075L374.68755,570.06075L374.68755,570.30077L374.68755,570.5408L374.68755,570.78082L374.92758,570.78082L374.92758,571.02085
				L374.92758,571.26087L374.92758,571.5009L375.16761,571.5009L375.16761,571.74093L375.16761,571.98095L375.16761,572.22098L375.16761,572.461
				L375.40764,572.461L375.40764,572.70103L375.40764,572.94105L375.40764,573.18108"/>
			<path clip-path="url(#SVG_CP_2)" fill="none" stroke="#999999" stroke-width="0.96012" stroke-miterlimit="10" stroke-linecap="round" stroke-linejoin="round" d="
				M418.85315,586.86254L418.61312,586.86254L418.37309,586.86254L418.37309,586.62251L418.13306,586.62251L417.89303,586.62251
				L417.89303,586.38249L417.653,586.38249L417.41297,586.38249L417.41297,586.14246L417.17294,586.14246L416.93291,586.14246L416.93291,585.90243
				L416.69288,585.90243L416.45285,585.90243L416.45285,585.66241L416.21282,585.66241L416.21282,585.42238L415.97279,585.42238
				L415.97279,585.18236L415.73276,585.18236L415.49273,585.18236L415.2527,585.18236L415.01267,585.18236L415.01267,585.42238L
				414.77264,585.42238L414.53261,585.42238L414.29258,585.42238L414.29258,585.18236L414.05254,585.18236L414.05254,585.42238L
				413.81251,585.42238L413.57248,585.42238L413.57248,585.66241L413.33245,585.66241L413.09242,585.66241L413.09242,585.90243L
				412.85239,585.90243L412.61236,585.90243L412.1323,585.90243L411.89227,585.90243L411.65224,585.90243L411.41221,585.90243L411.17218,585.90243
				L411.17218,585.66241L410.93215,585.66241L410.93215,585.42238L410.93215,585.18236L410.69212,585.18236L410.69212,584.94233
				L410.45209,584.94233L410.45209,584.70231L410.21206,584.70231L410.21206,584.46228L409.97203,584.46228L409.97203,584.22226
				L409.732,584.22226L409.49197,584.22226L409.49197,583.98223L409.25194,583.98223L409.01191,583.98223L409.01191,584.22226L408.77187,584.22226
				L408.53184,584.22226L408.29181,584.22226L408.29181,584.46228L408.29181,584.70231L408.05178,584.70231L407.81175,584.70231
				L407.57172,584.70231L407.33169,584.70231L407.33169,584.46228L407.09166,584.46228L406.85163,584.46228L406.85163,584.70231
				L406.6116,584.70231L406.6116,584.46228L406.37157,584.46228L406.13154,584.46228L406.13154,584.22226L405.89151,584.22226L405.89151,583.98223
				L405.65148,583.98223L405.65148,583.7422L405.41145,583.7422L405.41145,583.50218L405.65148,583.50218L405.65148,583.26215L405.41145,583.26215
				L405.17142,583.26215L405.17142,583.02213L404.93139,583.02213L404.69136,583.02213L404.45133,583.02213L404.2113,583.02213L
				403.97127,583.02213L403.73124,583.02213L403.4912,583.02213L403.4912,582.7821L403.25117,582.7821L403.25117,582.54208L403.01114,582.54208
				L403.01114,582.30205L402.77111,582.30205L402.77111,582.06203L402.53108,582.06203L402.53108,582.30205L402.29105,582.30205
				L402.29105,582.06203L402.05102,582.06203L402.05102,581.822L402.05102,581.58197L401.81099,581.58197L401.81099,581.34195L401.81099,581.10192
				L401.81099,580.8619L401.57096,580.8619L401.57096,580.62187L401.57096,580.38185L401.57096,580.14182L401.81099,580.14182L401.81099,579.9018
				L401.81099,579.66177L402.05102,579.66177L402.29105,579.66177L402.53108,579.66177L402.53108,579.42174L402.77111,579.42174
				L403.01114,579.42174L403.25117,579.42174L403.25117,579.18172L403.25117,578.94169L403.01114,578.94169L403.01114,578.70167
				L402.77111,578.70167L402.77111,578.46164L402.53108,578.46164L402.29105,578.46164L402.29105,578.22162L402.29105,577.98159
				L402.05102,577.98159L402.05102,577.74157L401.81099,577.74157L401.81099,577.50154L401.81099,577.26151L401.81099,577.02149
				L401.57096,577.02149L401.57096,576.78146L401.57096,576.54144L401.33093,576.54144L401.33093,576.30141L401.33093,576.06139
				L401.0909,576.06139L401.0909,575.82136L401.0909,575.58133L400.85087,575.58133L400.85087,575.34131L400.61084,575.34131L400.61084,575.10128
				L400.37081,575.10128L400.37081,575.34131L400.13078,575.34131L399.89075,575.34131L399.89075,575.10128L399.65072,575.10128
				L399.41069,575.10128L398.6906,575.10128L398.45057,575.10128L398.21053,575.10128L398.21053,575.34131L397.9705,575.34131L397.73047,575.34131
				L397.73047,575.58133L397.49044,575.58133L397.25041,575.58133L397.01038,575.58133L396.77035,575.58133L396.53032,575.58133
				L396.53032,575.34131L396.29029,575.34131L396.05026,575.34131L395.81023,575.34131L395.5702,575.34131L395.33017,575.34131L
				395.33017,575.10128L395.09014,575.10128L394.85011,575.10128L394.61008,575.10128L394.37005,575.10128L394.37005,574.86126L
				394.13002,574.86126L393.88999,574.86126L393.88999,574.62123L393.64996,574.62123L393.40993,574.62123L393.40993,574.38121L
				393.16989,574.38121L392.92986,574.38121L392.92986,574.14118L392.68983,574.14118L392.68983,573.90116L392.4498,573.90116L392.20977,573.90116
				L391.96974,573.90116L391.96974,574.14118L391.72971,574.14118L391.48968,574.14118L391.48968,574.38121L391.24965,574.38121
				L391.24965,574.62123L391.00962,574.62123L391.00962,574.38121L391.24965,574.38121L391.24965,574.14118L391.24965,573.90116
				L391.48968,573.90116L391.48968,573.66113L391.72971,573.66113L391.72971,573.4211L391.96974,573.4211L392.20977,573.4211L392.20977,573.18108
				L392.4498,573.18108L392.68983,573.18108L392.68983,572.94105L392.92986,572.94105L392.92986,572.70103L393.16989,572.70103L
				393.40993,572.70103L393.40993,572.461L393.64996,572.461L393.64996,572.22098L393.88999,572.22098L393.88999,571.98095L393.88999,571.74093
				L393.88999,571.5009L393.88999,571.26087L394.13002,571.26087L394.13002,571.02085L394.13002,570.78082L394.37005,570.78082L
				394.37005,570.5408L394.37005,570.30077L394.61008,570.30077L394.61008,570.06075L394.85011,570.06075L394.85011,569.82072L394.85011,569.5807
				L395.09014,569.5807L395.09014,569.34067L395.09014,569.10064L395.33017,569.10064L395.33017,568.86062L395.33017,568.62059L
				395.5702,568.62059L395.5702,568.38057L395.81023,568.38057L395.81023,568.14054L396.05026,568.14054L396.29029,568.14054L396.53032,568.14054
				L396.77035,568.14054L397.01038,568.14054L397.01038,568.38057L397.25041,568.38057L397.49044,568.38057L397.73047,568.38057
				L397.9705,568.38057L398.45057,568.38057L398.6906,568.38057L399.17066,568.38057L399.89075,568.38057L400.13078,568.38057L400.37081,568.38057
				L400.37081,568.62059L400.61084,568.62059L400.61084,568.38057L400.61084,568.14054L400.85087,568.14054L400.85087,568.38057
				L400.85087,568.62059L401.0909,568.62059L401.0909,568.86062L401.33093,568.86062L401.33093,568.62059L401.33093,568.38057L401.33093,568.14054
				L401.33093,567.90052L401.33093,567.66049L401.33093,567.42047L401.33093,567.18044L401.33093,566.70039L401.33093,566.22034
				L401.33093,565.98031L401.33093,565.74029L401.0909,565.74029L401.0909,565.50026L401.0909,565.26024L401.0909,565.02021L401.0909,564.78018
				L401.0909,564.54016L401.0909,564.30013L401.0909,564.06011L401.0909,563.82008L401.0909,563.58006L401.0909,563.34003L401.0909,563.1
				L400.85087,563.1L400.85087,562.61995L400.85087,562.1399L400.85087,561.89988L400.85087,561.65985L400.85087,561.1798L400.85087,560.93977
				L400.85087,560.69975L400.85087,560.45972L400.85087,560.2197L401.0909,560.2197L401.0909,560.45972L401.0909,560.2197L401.33093,560.2197
				L401.57096,560.2197L401.57096,559.97967L401.57096,560.2197L401.57096,560.45972L401.57096,560.69975L401.57096,560.93977L401.81099,560.93977
				L402.05102,560.93977L402.29105,560.93977L402.53108,560.93977L402.77111,560.93977L403.01114,560.93977L403.25117,560.93977
				L403.25117,560.69975L403.25117,560.93977L403.4912,560.93977L403.4912,561.41983L403.4912,561.65985L403.4912,561.89988L403.73124,561.89988
				L403.73124,562.1399L403.97127,562.1399L403.97127,562.37993L404.2113,562.37993L404.2113,562.61995L404.45133,562.61995L404.69136,562.61995
				L404.69136,562.37993L404.93139,562.37993L405.17142,562.37993L405.41145,562.37993L405.41145,562.1399L405.65148,562.1399L405.89151,562.1399
				L406.13154,562.1399L406.13154,562.37993L406.13154,562.1399L406.13154,562.37993L406.37157,562.37993L406.37157,562.1399L406.6116,562.1399
				L406.85163,562.1399L407.09166,562.1399L407.09166,561.89988L407.33169,561.89988L407.57172,561.89988L407.57172,561.65985L407.81175,561.65985
				L407.81175,561.89988L407.81175,562.1399L407.81175,562.37993L407.81175,562.61995L408.05178,562.61995L407.81175,562.61995L
				407.57172,562.61995L407.57172,562.85998L407.33169,562.85998L407.09166,562.85998L406.85163,562.85998L406.85163,563.1L406.6116,563.1
				L406.6116,563.34003L406.37157,563.34003L406.6116,563.34003L406.6116,563.58006L406.6116,563.82008L406.85163,563.82008L406.85163,564.06011
				L406.85163,564.30013L407.09166,564.30013L407.09166,564.54016L407.09166,565.02021L407.09166,565.50026L407.09166,565.98031
				L407.09166,566.46036L407.09166,566.70039L406.85163,566.70039L406.6116,566.70039L406.37157,566.70039L406.13154,566.70039L
				406.13154,566.94041L405.89151,566.94041L405.65148,566.94041L405.65148,567.18044L405.65148,567.42047L405.41145,567.42047L
				405.41145,567.66049L405.17142,567.66049L405.17142,567.90052L404.93139,567.90052L404.69136,567.90052L404.69136,568.14054L
				404.69136,568.62059L404.93139,568.62059L404.93139,568.38057L405.17142,568.38057L405.17142,568.14054L405.17142,568.38057L
				405.41145,568.38057L405.41145,568.14054L405.65148,568.14054L405.89151,568.14054L406.13154,568.14054L406.37157,568.14054L
				406.6116,568.14054L406.6116,567.90052L406.85163,567.90052L406.85163,568.14054L407.09166,568.14054L407.09166,568.38057L407.33169,568.38057
				L407.33169,568.62059L407.33169,569.34067L407.57172,569.34067L407.81175,569.34067L408.05178,569.34067L408.29181,569.34067
				L408.29181,569.5807L408.53184,569.5807L408.77187,569.5807L409.01191,569.5807L409.25194,569.5807L409.49197,569.5807L409.97203,569.5807
				L410.21206,569.5807L410.45209,569.5807L410.69212,569.5807L410.93215,569.5807L410.93215,569.34067L411.17218,569.34067L411.41221,569.34067
				L411.65224,569.34067L411.65224,569.10064L411.89227,569.10064L412.1323,569.10064L412.37233,569.10064L412.61236,569.10064L
				412.61236,568.86062L412.85239,568.86062L413.09242,568.86062L413.09242,568.62059L413.33245,568.62059L413.33245,568.38057L
				413.33245,568.14054L413.57248,568.14054L413.57248,567.90052L413.57248,568.14054L413.81251,568.14054L413.81251,568.38057L
				414.05254,568.38057L414.05254,568.62059L414.29258,568.62059L414.29258,568.86062L414.29258,569.10064L414.53261,569.10064L
				414.77264,569.10064L415.01267,569.10064L415.01267,568.86062L415.2527,568.86062L415.2527,568.62059L415.2527,568.38057L415.01267,568.38057
				L415.01267,568.14054L415.01267,567.90052L415.01267,567.66049L415.01267,567.42047L415.2527,567.42047L415.2527,567.18044L415.49273,567.18044
				L415.49273,566.94041L415.49273,566.70039L415.73276,566.70039L415.73276,566.46036L415.97279,566.46036L415.97279,566.22034
				L416.21282,566.22034L416.21282,565.98031L416.45285,565.98031L416.45285,565.74029L416.45285,565.50026L416.21282,565.50026
				L416.21282,565.26024L416.21282,565.02021L416.45285,565.02021L416.45285,565.26024L416.45285,565.50026L416.69288,565.50026
				L416.93291,565.50026L416.93291,565.26024L417.17294,565.26024L417.17294,565.02021L417.41297,565.02021L417.653,565.02021L417.653,564.78018
				L417.89303,564.78018L418.13306,564.78018L418.13306,564.54016L418.37309,564.54016L418.61312,564.54016L418.61312,564.30013
				L418.85315,564.30013L418.85315,564.06011L419.09318,564.06011L419.33322,564.06011L419.33322,563.82008L419.57325,563.82008
				L419.57325,563.58006L419.81328,563.58006L420.05331,563.58006L420.05331,563.34003L420.29334,563.34003L420.29334,563.1L420.53337,563.1
				L420.7734,563.1L420.7734,562.85998L421.01343,562.85998L421.25346,562.85998L421.25346,562.61995L421.25346,562.37993L421.49349,562.37993
				L421.49349,562.1399L421.73352,562.1399L421.73352,561.89988L421.97355,561.89988L421.97355,561.65985L421.97355,561.41983L422.21358,561.41983
				L422.45361,561.41983L422.45361,561.1798L422.69364,561.1798L422.69364,560.93977L422.93367,560.93977L422.93367,560.69975L423.1737,560.69975
				L423.1737,560.45972L423.41373,560.45972L423.41373,560.2197L423.65376,560.2197L423.65376,559.97967L423.89379,559.97967L423.89379,559.73965
				L424.13382,559.73965L424.13382,559.49962L424.37385,559.49962L424.37385,559.2596L424.61389,559.2596L424.61389,559.01957L424.85392,559.01957
				L424.85392,558.77954L425.09395,558.77954L425.09395,558.53952L425.09395,558.29949L425.33398,558.29949L425.33398,558.05947
				L425.09395,558.05947L425.09395,557.81944L425.33398,557.81944L425.33398,557.57942L425.57401,557.57942L425.57401,557.33939
				L425.81404,557.33939L426.05407,557.33939L426.05407,557.09937L426.2941,557.09937L426.2941,556.85934L426.2941,556.61931L426.05407,556.61931
				L426.2941,556.61931L426.2941,556.37929L426.53413,556.37929L426.53413,556.13926L426.77416,556.13926L427.01419,556.13926L427.01419,555.89924
				L427.25422,555.89924L427.25422,555.65921L427.49425,555.65921L427.49425,555.41919L427.73428,555.41919L427.73428,555.17916
				L427.73428,554.93914L427.49425,554.93914L427.25422,554.93914L427.25422,554.69911L427.01419,554.69911L427.25422,554.69911
				L427.25422,554.45908L427.49425,554.45908L427.73428,554.45908L427.73428,554.21906L427.97431,554.21906L427.97431,553.97903
				L428.21434,553.97903L428.21434,553.73901L428.21434,553.49898L428.45437,553.49898L428.6944,553.49898L428.6944,553.25896L428.6944,553.01893
				L428.6944,552.77891L428.93443,552.77891L428.93443,552.53888L428.93443,552.29885L429.17446,552.29885L429.17446,552.05883L
				428.93443,552.05883L428.93443,551.8188L428.6944,551.8188L428.6944,551.57878L428.45437,551.57878L428.21434,551.57878L428.21434,551.33875
				L427.97431,551.33875L427.97431,551.09873L427.73428,551.09873L427.73428,550.8587L427.97431,550.8587L428.21434,550.8587L428.21434,550.61867
				L427.97431,550.61867L427.97431,550.37865L428.21434,550.37865L428.21434,550.13862L427.97431,550.13862L427.97431,549.8986L
				427.97431,549.65857L427.73428,549.65857L427.73428,549.41855L427.49425,549.41855L427.49425,549.17852L427.25422,549.17852L
				427.01419,549.17852L427.01419,548.9385L426.77416,548.9385L426.77416,548.69847L426.53413,548.69847L426.53413,548.45844L426.53413,548.69847
				L426.2941,548.69847L426.2941,548.9385L426.05407,548.9385L425.81404,548.9385L425.81404,549.17852L425.57401,549.17852L425.57401,548.9385
				L425.57401,548.69847L425.33398,548.69847L425.33398,548.21842L425.33398,547.97839L425.09395,547.97839L425.09395,547.73837
				L425.33398,547.73837L425.33398,547.49834L425.09395,547.49834L424.85392,547.49834L424.85392,547.25832L424.61389,547.25832
				L424.61389,547.49834L424.37385,547.49834L424.13382,547.49834L424.13382,547.25832L423.89379,547.25832L423.89379,547.01829
				L423.65376,547.01829L423.65376,546.77827L423.65376,546.53824L423.65376,546.29821L423.65376,546.53824L423.89379,546.53824
				L423.89379,546.29821L423.65376,546.29821L423.65376,546.05819L423.65376,545.81816L423.89379,545.81816L423.89379,545.57814
				L424.13382,545.57814L424.13382,545.33811L424.13382,545.09809L424.37385,545.09809L424.61389,545.09809L424.37385,545.09809
				L424.37385,544.85806L424.61389,544.85806L424.61389,544.61804L424.85392,544.61804L425.09395,544.61804L425.09395,544.85806
				L425.33398,544.85806L425.57401,544.85806L425.57401,545.09809L425.33398,545.09809L425.33398,545.33811L425.57401,545.33811
				L425.81404,545.33811L425.81404,545.57814L426.05407,545.57814L426.2941,545.57814L426.53413,545.57814L426.53413,545.81816L
				426.77416,545.81816L427.01419,545.81816L427.01419,546.05819L427.25422,546.05819L427.49425,546.05819L427.49425,546.29821L
				427.73428,546.29821L427.97431,546.29821L428.21434,546.29821L428.21434,546.05819L428.45437,546.05819L428.45437,545.81816L
				428.6944,545.81816L428.6944,545.57814L428.93443,545.57814L428.93443,545.33811L428.93443,545.09809L429.17446,545.09809L429.17446,544.85806
				L429.41449,544.85806L429.41449,544.61804L429.41449,544.37801L429.65452,544.37801L429.65452,544.13798L429.89456,544.13798
				L429.89456,543.89796L430.13459,543.89796L430.13459,543.65793L430.37462,543.65793L430.37462,543.41791L430.61465,543.41791
				L430.85468,543.41791L430.85468,543.17788L431.09471,543.17788L431.33474,543.17788L431.33474,543.41791L431.57477,543.41791
				L431.8148,543.41791L432.05483,543.41791L432.05483,543.65793L432.29486,543.65793L432.29486,543.41791L432.53489,543.41791L
				432.53489,543.17788L432.53489,542.93786L432.53489,542.69783L432.77492,542.69783L432.77492,542.45781L433.01495,542.45781L
				433.01495,542.21778L433.25498,542.21778L433.25498,541.97775L433.49501,541.97775L433.49501,541.73773L433.73504,541.73773L
				433.73504,541.97775L433.73504,542.21778L433.97507,542.21778L433.97507,542.45781L433.97507,542.69783L434.2151,542.69783L434.2151,542.93786
				L434.2151,543.17788L434.45513,543.17788L434.45513,542.93786L434.69516,542.93786L434.69516,542.69783L434.9352,542.69783L434.9352,542.45781
				L435.17523,542.45781L435.17523,542.21778L435.41526,542.21778L435.41526,541.97775L435.65529,541.97775L435.89532,541.97775
				L435.89532,542.21778L436.13535,542.21778L436.13535,541.97775L436.37538,541.97775L436.37538,541.73773L436.61541,541.73773
				L437.09547,541.73773L437.3355,541.73773L437.57553,541.73773L437.57553,541.97775L437.81556,541.97775L438.05559,541.97775L
				438.29562,541.97775L438.29562,542.21778L438.29562,542.45781L438.29562,542.69783L438.05559,542.69783L438.05559,542.93786L
				438.05559,543.17788L437.81556,543.17788L437.81556,543.41791L437.81556,543.65793L438.05559,543.65793L438.05559,543.89796L
				438.29562,543.89796L438.29562,544.13798L438.53565,544.13798L438.53565,544.37801L438.77568,544.37801L438.77568,544.61804L
				439.01571,544.61804L439.25574,544.61804L439.25574,544.37801L439.49577,544.37801L439.49577,544.13798L439.7358,544.13798L439.97583,544.13798
				L439.97583,543.89796L440.21587,543.89796L440.4559,543.89796L440.4559,544.13798L440.4559,544.37801L440.69593,544.37801L440.69593,544.61804
				L440.93596,544.61804L440.93596,544.85806L440.93596,545.09809L441.17599,545.09809L441.17599,545.33811L441.89608,545.33811
				L442.13611,545.33811L442.13611,545.09809L442.37614,545.09809L442.37614,544.85806L442.61617,544.85806L442.8562,544.85806L
				442.8562,544.61804L443.09623,544.61804L443.09623,544.37801L443.33626,544.37801L443.33626,544.13798L443.57629,544.13798L443.57629,543.89796
				L443.81632,543.89796L444.05635,543.89796L444.05635,543.65793L444.29638,543.65793L444.29638,543.41791L444.53641,543.41791
				L444.53641,543.17788L444.77644,543.17788L445.01647,543.17788L445.01647,542.93786L445.01647,543.17788L445.2565,543.17788L
				445.2565,542.93786L445.2565,542.69783L445.2565,542.45781L445.49654,542.45781L445.49654,542.21778L445.49654,541.97775L445.49654,541.73773
				L445.73657,541.73773L445.73657,541.4977L445.73657,541.25768L445.9766,541.25768L446.21663,541.25768L446.21663,541.01765L446.21663,540.5376
				L446.21663,540.29758L445.9766,540.29758L445.9766,540.05755L445.9766,539.81752L445.9766,539.5775L446.21663,539.5775L446.21663,539.33747
				L446.45666,539.33747L446.69669,539.33747L446.93672,539.33747L447.17675,539.33747L447.65681,539.33747L447.65681,539.09745
				L447.89684,539.09745L448.13687,539.09745L448.13687,539.33747L448.3769,539.33747L448.3769,539.5775L448.3769,539.81752L448.3769,540.05755
				L448.61693,540.05755L448.85696,540.05755L448.85696,540.29758L449.09699,540.29758L449.33702,540.29758L449.57705,540.29758
				L449.81708,540.29758L450.05711,540.29758L450.29714,540.29758L450.29714,540.05755L450.29714,539.81752L450.29714,539.5775L
				450.29714,539.33747L450.05711,539.33747L450.05711,539.09745L450.05711,538.85742L450.05711,538.6174L450.05711,538.37737L449.81708,538.37737
				L450.05711,538.37737L450.29714,538.37737L450.29714,538.13734L450.53717,538.13734L450.77721,538.13734L450.77721,537.89732
				L451.01724,537.89732L451.01724,537.65729L451.25727,537.65729L451.25727,537.41727L451.25727,537.17724L451.4973,537.17724L
				451.4973,536.93722L451.4973,536.69719L451.4973,536.45717L451.73733,536.45717L451.73733,536.21714L451.73733,535.97711L451.4973,535.97711
				L451.25727,535.97711L451.25727,535.73709L451.01724,535.73709L451.01724,535.49706L450.77721,535.49706L450.77721,535.01701
				L451.01724,535.01701L451.01724,534.77699L451.25727,534.77699L451.4973,534.77699L451.73733,534.77699L451.73733,535.01701L
				451.97736,535.01701L452.21739,535.01701L452.45742,535.01701L452.69745,535.01701L452.93748,535.01701L452.93748,535.25704L
				453.17751,535.25704L453.41754,535.25704L453.65757,535.25704L453.8976,535.25704L454.13763,535.25704L454.13763,535.49706L454.37766,535.49706
				L454.61769,535.49706L454.85772,535.49706L455.09775,535.49706L455.33778,535.49706L455.57781,535.49706L455.57781,535.73709
				L455.81785,535.73709L456.05788,535.73709L456.05788,535.97711L456.29791,535.97711L456.53794,535.97711L456.53794,535.73709
				L456.77797,535.73709L457.018,535.73709L457.25803,535.73709L457.25803,535.49706L457.49806,535.49706L457.73809,535.49706L457.97812,535.49706
				L458.21815,535.49706L458.21815,535.25704L458.45818,535.25704L458.45818,535.01701L458.45818,534.77699L458.69821,534.77699
				L458.69821,534.53696L458.69821,534.29694L458.93824,534.29694L458.93824,534.05691L459.17827,534.05691L459.17827,533.81688
				L459.17827,534.05691L458.93824,534.05691L458.93824,534.29694L458.69821,534.29694L458.69821,534.53696L458.69821,534.77699
				L458.45818,534.77699L458.45818,535.01701L458.45818,535.25704L458.45818,535.49706L458.21815,535.49706L458.21815,535.73709
				L457.97812,535.73709L457.97812,535.97711L457.73809,535.97711L457.49806,535.97711L457.49806,536.21714L457.25803,536.21714
				L457.25803,535.97711L457.018,535.97711L456.77797,535.97711L456.53794,535.97711L456.05788,535.97711L456.05788,536.21714L456.29791,536.21714
				L456.29791,536.45717"/>
			<path clip-path="url(#SVG_CP_2)" fill="none" stroke="#999999" stroke-width="0.96012" stroke-miterlimit="10" stroke-linecap="round" stroke-linejoin="round" d="
				M456.29791,536.45717L456.29791,536.69719L456.53794,536.69719L456.29791,536.69719L456.29791,536.93722L456.29791,537.17724
				L456.29791,537.41727L456.53794,537.41727L456.53794,537.65729L456.29791,537.65729L456.29791,537.89732L456.53794,537.89732
				L456.53794,538.13734L456.29791,538.13734L456.29791,537.89732L456.05788,537.89732L456.05788,537.65729L456.05788,537.41727
				L455.81785,537.41727L455.81785,537.17724L455.57781,537.17724L455.57781,536.93722L455.57781,536.69719L455.33778,536.69719
				L455.33778,536.45717L455.09775,536.45717L454.61769,536.45717L454.61769,536.69719L454.37766,536.69719L454.37766,536.93722
				L454.13763,536.93722L454.13763,537.17724L453.8976,537.17724L453.65757,537.17724L453.65757,537.41727L453.65757,537.65729L
				453.65757,537.89732L453.41754,537.89732L453.41754,538.13734L453.41754,538.37737L453.17751,538.37737L453.17751,538.6174L453.17751,538.85742
				L452.93748,538.85742L452.93748,539.09745L452.93748,539.33747L452.69745,539.33747L452.69745,539.5775L452.69745,539.81752L
				452.45742,539.81752L452.45742,540.05755L452.21739,540.05755L452.21739,540.29758L452.21739,540.5376L451.97736,540.5376L451.73733,540.5376
				L451.73733,540.77763L451.4973,540.77763L451.4973,541.01765L451.25727,541.01765L451.25727,541.25768L451.01724,541.25768L450.77721,541.25768
				L450.77721,541.4977L450.53717,541.4977L450.29714,541.4977L450.29714,541.73773L450.05711,541.73773L449.81708,541.73773L449.81708,541.97775
				L449.57705,541.97775L449.33702,541.97775L449.33702,542.21778L449.09699,542.21778L448.85696,542.21778L448.85696,542.45781
				L448.61693,542.45781L448.3769,542.45781L448.3769,542.69783L448.13687,542.69783L448.13687,542.93786L448.13687,543.17788L447.89684,543.17788
				L447.89684,543.41791L447.65681,543.41791L447.65681,543.65793L447.65681,543.89796L447.41678,543.89796L447.41678,544.13798
				L447.41678,544.37801L447.17675,544.37801L447.17675,544.61804L447.17675,544.85806L446.93672,544.85806L446.93672,545.09809
				L446.69669,545.09809L446.45666,545.09809L446.45666,545.33811L446.21663,545.33811L445.9766,545.33811L445.73657,545.33811L
				445.73657,545.57814L445.49654,545.57814L445.49654,545.81816L445.2565,545.81816L445.2565,546.05819L445.01647,546.05819L445.01647,546.29821
				L445.01647,546.53824L445.01647,546.77827L444.77644,546.77827L444.77644,547.01829L444.77644,547.25832L444.53641,547.25832
				L444.53641,547.49834L444.29638,547.49834L444.29638,547.73837L444.05635,547.73837L443.81632,547.73837L443.81632,547.97839
				L443.57629,547.97839L443.57629,548.21842L443.33626,548.21842L443.09623,548.21842L443.09623,548.45844L443.09623,548.69847
				L442.8562,548.69847L442.61617,548.69847L442.61617,548.9385L442.37614,548.9385L442.37614,549.17852L442.13611,549.17852L441.89608,549.17852
				L441.89608,549.41855L441.65605,549.41855L441.41602,549.41855L441.41602,549.65857L441.17599,549.65857L440.93596,549.65857
				L440.69593,549.65857L439.97583,549.65857L439.7358,549.65857L439.49577,549.65857L439.25574,549.65857L439.01571,549.65857L
				438.77568,549.65857L438.53565,549.65857L438.29562,549.65857L438.05559,549.65857L437.81556,549.65857L437.81556,549.8986L437.57553,549.8986
				L437.3355,549.8986L437.09547,549.8986L437.09547,550.13862L436.85544,550.13862L436.61541,550.13862L436.37538,550.13862L435.89532,550.13862
				L435.65529,550.13862L435.17523,550.13862L434.9352,550.13862L434.9352,550.37865L434.9352,550.61867L434.9352,550.8587L434.9352,551.57878
				L434.69516,551.57878L434.69516,551.8188L434.9352,551.8188L434.69516,551.8188L434.69516,552.05883L434.69516,552.29885L434.69516,552.53888
				L434.69516,552.77891L434.45513,552.77891L434.45513,553.01893L434.45513,553.25896L434.45513,553.49898L434.69516,553.49898
				L434.69516,553.73901L434.69516,553.97903L434.69516,554.21906L434.9352,554.21906L434.69516,554.21906L434.69516,554.45908L
				434.9352,554.45908L434.69516,554.45908L434.69516,554.69911L434.69516,554.93914L434.69516,555.17916L434.45513,555.17916L434.45513,555.41919
				L434.45513,555.65921L434.2151,555.65921L434.2151,555.89924L433.97507,555.89924L433.73504,555.89924L433.73504,556.13926L433.49501,556.13926
				L433.49501,556.37929L433.49501,556.61931L433.25498,556.61931L433.25498,556.85934L433.25498,557.09937L433.25498,557.33939
				L433.01495,557.33939L433.01495,557.57942L433.01495,557.81944L432.77492,557.81944L432.77492,558.05947L432.77492,558.29949
				L432.53489,558.29949L432.53489,558.53952L432.53489,558.77954L432.53489,559.01957L432.29486,559.01957L432.29486,559.2596L
				432.29486,559.49962L432.05483,559.49962L431.8148,559.49962L431.8148,559.73965L431.8148,559.97967L431.57477,559.97967L431.57477,560.2197
				L431.57477,560.45972L431.33474,560.45972L431.33474,560.69975L431.33474,560.93977L431.09471,560.93977L431.09471,561.1798L
				431.09471,561.41983L430.85468,561.41983L430.85468,561.65985L430.85468,561.89988L430.61465,561.89988L430.61465,562.1399L430.37462,562.1399
				L430.37462,562.37993L430.13459,562.37993L429.89456,562.37993L429.89456,562.61995L429.65452,562.61995L429.65452,562.85998
				L429.65452,563.1L429.41449,563.1L429.17446,563.1L429.17446,563.34003L428.93443,563.34003L428.93443,563.58006L428.6944,563.58006
				L428.6944,563.82008L428.6944,564.06011L428.6944,564.30013L428.6944,564.78018L428.45437,564.78018L428.45437,565.02021L428.45437,565.26024
				L428.45437,565.50026L428.45437,566.22034L428.21434,566.22034L428.21434,566.46036L427.97431,566.46036L427.97431,566.70039
				L427.97431,566.94041L427.97431,567.18044L427.97431,567.42047L427.73428,567.42047L427.73428,567.66049L427.73428,567.90052
				L427.49425,567.90052L427.49425,568.14054L427.25422,568.14054L427.25422,568.62059L427.25422,568.86062L427.25422,569.10064
				L427.25422,569.34067L427.25422,569.5807L427.01419,569.5807L427.25422,569.5807L427.49425,569.5807L427.49425,569.82072L427.73428,569.82072
				L427.97431,569.82072L427.97431,570.06075L428.21434,570.06075L428.45437,570.06075L428.45437,570.30077L428.45437,570.06075
				L428.6944,570.06075L428.93443,570.06075L428.93443,570.30077L429.17446,570.30077L429.41449,570.30077L429.65452,570.30077L
				429.89456,570.30077L429.89456,570.5408L430.13459,570.5408L430.37462,570.5408L430.61465,570.5408L430.61465,570.78082L430.61465,570.5408
				L430.85468,570.5408L430.85468,570.78082L431.09471,570.78082L431.33474,570.78082L431.33474,570.5408L431.57477,570.5408L431.57477,570.30077
				L431.8148,570.30077L432.05483,570.30077L432.05483,570.06075L432.29486,570.06075L432.53489,570.06075L432.77492,570.06075L
				433.01495,570.06075L433.01495,569.82072L433.25498,569.82072L433.49501,569.82072L433.73504,569.82072L433.73504,569.5807L433.97507,569.5807
				L434.2151,569.5807L434.2151,569.34067L434.45513,569.34067L434.69516,569.34067L434.9352,569.34067L435.17523,569.34067L435.41526,569.34067
				L435.65529,569.34067L435.65529,569.5807L435.89532,569.5807L436.13535,569.5807L436.37538,569.5807L436.61541,569.5807L436.61541,569.34067
				L436.85544,569.34067L437.09547,569.34067L437.09547,569.5807L436.85544,569.5807L437.09547,569.5807L437.09547,569.82072L437.09547,570.06075
				L437.09547,570.30077L437.09547,570.5408L436.85544,570.5408L436.85544,570.30077L436.85544,570.5408L436.61541,570.5408L436.61541,570.78082
				L436.37538,570.78082L436.37538,571.02085L436.37538,571.26087L436.13535,571.26087L436.37538,571.26087L436.37538,571.5009L
				436.37538,571.74093L436.37538,571.98095L436.37538,572.22098L436.37538,572.461L436.37538,572.70103L436.37538,572.94105L436.37538,573.18108
				L436.37538,573.4211L436.13535,573.4211L436.13535,573.66113L436.13535,573.90116L436.13535,574.14118L435.89532,574.14118L435.89532,574.38121
				L436.13535,574.38121L435.89532,574.38121L435.89532,574.62123L436.13535,574.62123L436.13535,574.86126L435.89532,574.86126
				L435.89532,575.10128L435.89532,575.34131L435.89532,575.58133L435.65529,575.58133L435.65529,575.82136L435.65529,576.06139
				L435.41526,576.06139L435.41526,576.30141L435.41526,576.54144L435.41526,576.78146L435.17523,576.78146L435.17523,577.02149
				L435.17523,577.26151L434.9352,577.26151L434.9352,577.50154L434.9352,577.74157L434.9352,577.98159L434.9352,578.22162L434.69516,578.22162
				L434.69516,577.98159L434.45513,577.98159L434.2151,577.98159L433.97507,577.98159L433.97507,578.22162L433.73504,578.22162L
				433.49501,578.22162L433.49501,578.46164L433.25498,578.46164L433.25498,578.70167L433.01495,578.70167L432.77492,578.70167L
				432.77492,578.94169L432.53489,578.94169L432.29486,578.94169L432.05483,578.94169L432.05483,579.18172L431.8148,579.18172L431.8148,579.42174
				L431.57477,579.42174L431.33474,579.42174L431.33474,579.66177L431.33474,579.9018L431.09471,579.9018L431.09471,580.14182L430.85468,580.14182
				L430.85468,580.38185L430.61465,580.38185L430.61465,580.62187L430.61465,580.8619L430.37462,580.8619L430.37462,581.10192L430.37462,581.34195
				L430.13459,581.34195L430.13459,581.58197L429.89456,581.58197L429.89456,581.822L429.65452,581.822L429.65452,582.06203L429.41449,582.06203
				L429.17446,582.06203L429.17446,582.30205L428.93443,582.30205L428.93443,582.54208L428.6944,582.54208L428.45437,582.54208L
				428.21434,582.54208L428.21434,582.7821L427.97431,582.7821L427.73428,582.7821L427.73428,583.02213L427.49425,583.02213L427.25422,583.02213
				L427.25422,583.26215L427.01419,583.26215L427.01419,583.50218L426.77416,583.50218L426.77416,583.7422L426.53413,583.7422L426.2941,583.7422
				L426.2941,583.98223L426.05407,583.98223L425.81404,583.98223L425.57401,583.98223L425.33398,583.98223L425.33398,583.7422L425.09395,583.7422
				L424.85392,583.7422L424.85392,583.50218L424.85392,583.26215L424.61389,583.26215L424.61389,583.02213L424.37385,583.02213L
				424.13382,583.02213L423.89379,583.02213L423.89379,583.26215L423.65376,583.26215L423.41373,583.26215L423.1737,583.26215L423.1737,583.50218
				L422.93367,583.50218L422.69364,583.50218L422.45361,583.50218L422.45361,583.7422L422.21358,583.7422L421.97355,583.7422L421.73352,583.7422
				L421.49349,583.7422L421.49349,583.98223L421.25346,583.98223L421.25346,584.22226L421.01343,584.22226L421.01343,584.46228L
				421.01343,584.70231L420.7734,584.70231L420.7734,584.94233L420.53337,584.94233L420.53337,585.18236L420.29334,585.18236L420.29334,585.42238
				L420.05331,585.42238L420.05331,585.66241L420.05331,585.90243L419.81328,585.90243L419.81328,586.14246L419.57325,586.14246
				L419.57325,586.38249L419.57325,586.62251L419.33322,586.62251L419.33322,586.86254L419.09318,586.86254L418.85315,586.86254
				"/>
		</g>
</g></svg>