<?xml version="1.0" encoding="utf-8" standalone="no"?>
<!-- Creator: ESRI ArcMap 10.0.0.2414 -->
<!DOCTYPE svg PUBLIC "-//W3C//DTD SVG 1.1//EN"  "http://www.w3.org/Graphics/SVG/1.1/DTD/svg11.dtd">
<svg width="524.0420768pt" height="391.531530526pt" viewBox="32.15712744 225.363369737 524.0420768 391.531530526" enable-background="new 32.15712744 225.363369737 524.0420768 391.531530526"
	version="1.1" xmlns="http://www.w3.org/2000/svg" xmlns:xlink="http://www.w3.org/1999/xlink" >
	<g id="Couches">
		<g id="reservoirs">
			<path clip-path="url(#SVG_CP_2)" fill-opacity="0.2" fill="#07866D" fill-rule="evenodd" stroke="none" stroke-width="" stra="1.44018" stroke-miterlimit="10" stroke-linecap="round" stroke-linejoin="round" d="
				M87.13106,385.48108L87.13106,387.88133L82.09042,387.88133L78.72999,388.36138L78.24993,390.52161L78.48996,392.92187L78.48996,394.122
				L78.24993,394.84208L78.24993,395.56215L78.24993,397.00231L78.24993,397.96241L78.24993,398.20243L78.0099,398.92251L77.76987,399.88261
				L77.04978,400.36266L73.44932,398.92251L70.08889,397.72238L66.00838,395.80218L63.8481,394.36202L61.92786,393.1619L60.72771,392.44182
				L59.76759,391.72174L58.80746,391.00167L58.3274,390.52161L57.84734,389.80154L56.88722,388.84144L55.20701,386.68121L53.04673,383.08082
				L52.08661,381.16062L51.12649,379.00039L48.00609,372.5197L48.00609,372.27967L46.56591,368.67929L55.68707,364.35883L56.40716,363.63875
				L57.36728,362.43862L66.9685,360.27839L75.84963,357.87814L85.45084,367.23913L86.89103,367.71918L87.61112,367.95921L88.33121,368.43926
				L89.0513,368.91931L89.53136,369.63939L90.01142,370.35947L90.25145,370.83952L90.49148,371.55959L90.97155,372.27967L90.97155,373.23977
				L90.73151,373.95985L90.73151,374.67993L90.25145,375.4L89.77139,375.88005L89.0513,377.08018L88.57124,377.80026L89.29133,379.72046
				L90.01142,383.8009L90.25145,385.24105L87.13106,385.48108z"/>
			<path clip-path="url(#SVG_CP_2)" fill-opacity="0.2" fill="#07866D" fill-rule="evenodd" stroke="none" stroke-width="" stra="1.44018" stroke-miterlimit="10" stroke-linecap="round" stroke-linejoin="round" d="
				M361.48587,303.39233L374.44752,324.99463L380.92834,336.99591L389.80947,364.35883L379.48816,366.75908L377.32788,375.4L383.80871,378.28031
				L396.29029,373.4798L399.41069,392.92187L412.1323,416.6844L418.61312,428.68568L432.29486,432.04604L433.01495,422.92507L449.81708,446.6876
				L470.21967,478.611L460.37842,486.77187L465.17903,503.09361L450.05711,509.81433L446.93672,515.33492L449.57705,527.09617L450.53717,527.09617
				L451.97736,527.09617L452.93748,529.97648L454.85772,530.45653L455.33778,527.33619L458.45818,527.57622L459.4183,527.33619L
				459.89836,527.09617L460.85848,527.33619L463.25879,527.57622L471.17979,527.81625L490.1422,528.53632L493.74266,528.77635L495.18284,529.01637
				L496.38299,529.49642L497.34311,530.2165L498.30324,530.93658L499.02333,531.65665L495.42287,533.33683L496.62302,535.25704L
				497.82318,536.69719L500.22348,536.45717L501.42363,536.21714L504.06397,540.5376L505.02409,542.45781L506.22424,544.37801L505.98421,544.85806
				L499.98345,548.45844L500.94357,552.77891L497.82318,552.53888L497.58315,553.97903L497.82318,554.93914L498.30324,555.41919
				L502.62378,556.61931L505.98421,556.13926L510.30476,552.05883L515.3454,559.73965L517.26564,562.1399L522.06625,556.37929L525.66671,554.69911
				L526.62683,554.45908L526.86686,554.69911L527.58695,555.89924L528.06701,556.37929L529.26717,559.49962L530.46732,562.61995
				L533.82774,562.85998L535.0279,562.85998L535.98802,563.82008L537.18817,565.26024L537.4282,565.50026L536.94814,567.42047L536.94814,567.90052
				L536.22805,571.98095L535.98802,574.38121L536.46808,574.86126L539.58848,577.50154L540.78863,577.26151L541.50872,577.26151
				L541.26869,580.14182L541.26869,580.62187L541.26869,581.822L541.50872,584.22226L543.90902,584.70231L544.86915,584.94233L545.34921,584.94233
				L549.18969,588.30269L547.02942,590.2229L539.82851,597.90371L535.74799,601.02405L532.14753,603.90435L529.98726,605.58453L
				528.06701,606.78466L527.10689,607.50474L525.66671,608.22481L524.22653,605.10448L523.50643,603.90435L523.2664,603.18428L523.02637,603.18428
				L522.54631,603.18428L522.54631,602.94425L522.30628,602.94425L521.82622,602.4642L520.8661,601.26407L515.82546,595.98351L514.62531,594.30333
				L513.42516,594.30333L512.94509,594.54336L512.225,594.54336L511.50491,594.54336L510.54479,595.50346L509.8247,596.46356L509.10461,597.42366
				L508.38452,597.42366L508.14449,597.18364L505.02409,594.78338L503.82394,594.0633L499.26336,591.90307L496.62302,592.86318L
				492.30248,595.02341L491.34235,595.50346L490.1422,596.46356L489.18208,597.90371L488.22196,598.86382L487.26184,600.06394L486.54174,601.02405
				L485.58162,601.02405L485.58162,601.5041L485.58162,601.74412L485.34159,601.74412L485.34159,601.98415L484.86153,601.98415L
				484.6215,601.98415L482.94129,599.82392L481.02104,598.14374L478.86077,596.22353L476.94053,594.30333L475.02028,592.62315L472.37995,589.98287
				L473.10004,589.26279L475.50034,589.74284L481.98117,593.1032L481.98117,593.58325L486.30171,595.98351L486.30171,595.74348L
				487.0218,595.74348L487.50187,595.50346L488.22196,594.54336L493.98269,591.42302L500.46351,587.82264L500.70354,587.34259L500.94357,587.10256
				L500.70354,586.14246L501.66366,585.66241L511.02485,585.66241L513.18513,587.10256L513.42516,587.58261L514.38528,588.30269
				L515.82546,589.50282L516.54555,590.2229L517.7457,591.183L518.4658,591.183L519.42592,590.46292L519.90598,589.50282L520.14601,588.30269
				L520.62607,587.82264L522.30628,586.38249L523.9865,584.22226L524.94662,583.26215L525.90674,581.58197L526.14677,581.10192L
				526.62683,579.9018L527.10689,579.18172L527.58695,578.94169L528.30704,579.66177L529.26717,580.8619L530.70735,581.58197L532.14753,582.30205
				L532.86762,582.06203L536.46808,579.9018L537.4282,579.18172L534.54784,577.02149L534.30781,576.54144L532.62759,575.34131L529.74723,576.54144
				L526.62683,572.22098L523.50643,567.66049L525.66671,565.26024L525.18665,564.30013L523.50643,559.49962L519.18589,561.89988
				L515.58543,563.58006L514.14525,564.30013L513.90522,563.58006L510.06473,557.33939L507.18436,558.77954L512.225,564.54016L509.58467,565.98031
				L508.14449,566.46036L507.66442,566.22034L506.46427,564.54016L505.98421,564.30013L506.46427,563.1L505.02409,562.61995L503.10385,562.1399
				L501.42363,561.65985L500.94357,562.1399L500.22348,561.65985L495.18284,556.85934L493.2626,555.89924L491.10232,554.93914L491.58238,553.97903
				L492.06244,553.49898L494.46275,552.53888L493.2626,549.8986L497.82318,547.49834L496.14296,543.89796L490.86229,547.01829L483.90141,546.29821
				L484.14144,543.17788L479.58086,541.4977L475.74037,543.89796L475.26031,545.33811L476.22043,550.13862L473.82013,550.8587L462.77873,555.41919
				L462.5387,556.37929L463.01876,556.61931L463.25879,558.77954L463.01876,559.2596L462.29867,559.49962L461.09852,559.97967L460.85848,559.73965
				L460.61845,560.2197L460.61845,560.45972L460.61845,564.30013L459.89836,564.54016L456.77797,565.26024L453.17751,566.70039L
				450.53717,569.5807L449.09699,572.22098L450.29714,578.22162L452.45742,581.10192L452.93748,585.66241L452.21739,587.82264L452.21739,588.78274
				L453.65757,589.02277L456.29791,589.50282L458.45818,590.2229L458.93824,591.90307L459.4183,593.82328L461.81861,594.0633L463.01876,595.74348
				L462.77873,597.42366L462.77873,599.10384L463.25879,602.22417L465.65909,601.98415L468.0594,601.98415L471.41983,601.5041L472.37995,601.02405
				L473.34007,602.94425L465.17903,603.4243L462.29867,603.18428L461.57858,602.94425L461.33855,602.22417L461.09852,601.5041L461.09852,598.62379
				L460.85848,596.94361L460.61845,596.46356L460.37842,596.22353L459.65833,595.98351L458.45818,595.74348L457.73809,595.50346
				L457.25803,595.50346L457.25803,594.78338L457.25803,592.1431L456.77797,591.90307L454.37766,591.183L451.73733,590.46292L451.01724,590.2229
				L450.53717,589.74284L450.53717,589.02277L450.53717,587.10256L450.53717,582.54208L447.89684,579.42174L446.93672,575.82136
				L444.77644,574.14118L443.57629,572.94105L442.37614,571.98095L442.61617,570.5408L444.29638,567.90052L446.69669,564.78018L
				445.01647,560.69975L445.49654,557.81944L447.17675,554.93914L449.81708,553.01893L449.33702,551.8188L455.57781,549.65857L456.53794,549.17852
				L457.018,548.45844L457.25803,547.01829L456.77797,546.05819L455.57781,544.37801L452.93748,539.81752L455.09775,538.6174L452.21739,535.01701
				L451.01724,533.57686L451.25727,534.77699L414.77264,498.53312L395.5702,478.85103L395.09014,473.57046L408.53184,458.20883L
				396.53032,450.28798L389.08938,451.48811L380.20825,422.44502L351.64463,420.28479L348.76426,422.68504L331.96213,403.483L325.96137,390.28159
				L307.47902,363.1587L273.15466,333.63555L272.6746,322.8344L282.03579,304.59246L272.43457,309.633L272.19454,304.59246L263.31342,305.79259
				L254.91235,268.82865L264.99363,266.90844L313.47978,249.14655L331.7221,234.26496L349.48435,235.46509L347.08405,240.02558L
				345.64386,246.98632L347.80414,252.02686L347.32408,258.50755L347.56411,266.90844L348.76426,274.58926L354.04493,281.30998L
				356.44523,291.63108L361.48587,303.39233z"/>
		</g>
</g></svg>