<?xml version="1.0" encoding="utf-8" standalone="no"?>
<!-- Creator: ESRI ArcMap 10.0.0.2414 -->
<!DOCTYPE svg PUBLIC "-//W3C//DTD SVG 1.1//EN"  "http://www.w3.org/Graphics/SVG/1.1/DTD/svg11.dtd">
<svg width="524.0420768pt" height="583.955811787pt" viewBox="32.15712744 129.151229106 524.0420768 583.955811787" enable-background="new 32.15712744 129.151229106 524.0420768 583.955811787"
	version="1.1" xmlns="http://www.w3.org/2000/svg" xmlns:xlink="http://www.w3.org/1999/xlink" >
	<g id="Couches">
		<g id="cont_1">
			<clipPath id="SVG_CP_2">
				<path d="M574.39289,21.36228L21.36271,21.36228L21.36271,821.36753L574.39289,821.36753L574.39289,21.36228z"/>
			</clipPath>
			<path clip-path="url(#SVG_CP_2)" fill="none" stroke="#999999" stroke-width="0.96012" stroke-miterlimit="10" stroke-linecap="round" stroke-linejoin="round" d="
				M549.42972,576.78146L546.30933,576.78146L546.30933,573.66113L543.18893,573.66113L543.18893,570.30077L540.06854,570.30077
				L540.06854,567.18044L536.94814,567.18044L536.94814,560.93977L533.82774,560.93977L533.82774,557.81944L530.46732,557.81944
				L530.46732,554.45908L527.34692,554.45908L527.34692,551.33875L524.22653,551.33875L524.22653,545.09809L521.10613,545.09809
				L521.10613,541.97775L517.98573,541.97775L517.98573,538.85742L514.62531,538.85742L514.62531,535.49706L511.50491,535.49706
				L511.50491,532.37673L508.38452,532.37673L508.38452,529.2564L505.26412,529.2564L505.26412,523.01573L502.14372,523.01573L502.14372,519.65538
				L499.02333,519.65538L499.02333,516.53504L495.6629,516.53504L495.6629,513.41471L492.54251,513.41471L492.54251,510.29438L489.42211,510.29438
				L489.42211,507.17405L486.30171,507.17405L486.30171,504.05371L483.18132,504.05371L483.18132,500.69335L479.82089,500.69335
				L479.82089,497.57302L476.7005,497.57302L476.7005,494.45269L473.5801,494.45269L473.5801,491.33236L470.4597,491.33236L470.4597,488.21202
				L467.33931,488.21202L467.33931,484.85167L464.21891,484.85167L464.21891,478.611L460.85848,478.611L460.85848,475.49067L457.73809,475.49067
				L457.73809,472.37034L454.61769,472.37034L454.61769,469.25L451.4973,469.25L451.4973,465.88965L448.3769,465.88965L448.3769,462.76931
				L445.2565,462.76931L445.2565,459.64898L441.89608,459.64898L441.89608,456.52865L438.77568,456.52865L438.77568,453.40832L435.65529,453.40832
				L435.65529,450.04796L432.53489,450.04796L432.53489,446.92763L429.41449,446.92763L429.41449,443.80729L426.05407,443.80729
				L426.05407,440.68696L422.93367,440.68696L422.93367,434.4463L419.81328,434.4463L419.81328,431.08594L416.69288,431.08594L416.69288,427.9656
				L413.57248,427.9656L413.57248,424.84527L410.45209,424.84527L410.45209,421.72494L407.09166,421.72494L407.09166,418.60461L
				403.97127,418.60461L403.97127,415.24425L397.73047,415.24425L397.73047,412.12392L394.61008,412.12392L394.61008,409.00358L
				391.24965,409.00358L391.24965,405.88325L388.12926,405.88325L388.12926,402.76292L385.00886,402.76292L385.00886,399.64259L
				381.88846,399.64259L381.88846,396.28223L378.76807,396.28223L378.76807,393.1619L372.28724,393.1619L372.28724,390.04156L369.16685,390.04156
				L369.16685,386.92123L366.04645,386.92123L366.04645,383.8009L362.92606,383.8009L362.92606,380.44054L359.80566,380.44054L359.80566,377.32021
				L356.44523,377.32021L356.44523,374.19988L353.32484,374.19988L353.32484,371.07954L347.08405,371.07954L347.08405,367.95921
				L343.96365,367.95921L343.96365,364.83888L337.48283,364.83888L337.48283,361.47852L331.24204,361.47852L331.24204,358.35819
				L328.12164,358.35819L328.12164,355.23785L321.64082,355.23785L321.64082,352.11752L315.40003,352.11752L315.40003,348.99719
				L309.15923,348.99719L309.15923,345.87686L306.03884,345.87686L306.03884,342.5165L299.55802,342.5165L299.55802,339.39617L293.31722,339.39617
				L293.31722,336.27583L286.8364,336.27583L286.8364,333.1555L283.716,333.1555L283.716,330.03517L277.47521,330.03517L277.47521,326.67481
				L271.23442,326.67481L271.23442,323.55448L264.7536,323.55448L264.7536,320.43415L261.6332,320.43415L261.6332,317.31381L255.39241,317.31381
				L255.39241,314.19348L248.91159,314.19348L248.91159,311.07315L242.6708,311.07315L242.6708,307.71279L236.43,307.71279L236.43,304.59246
				L229.94918,304.59246L229.94918,301.47213L223.70839,301.47213L223.70839,298.35179L214.10717,298.35179L214.10717,295.23146
				L207.86638,295.23146L207.86638,291.8711L201.62559,291.8711L201.62559,288.75077L192.02437,288.75077L192.02437,285.63044L185.78358,285.63044
				L185.78358,282.51011L176.18236,282.51011L176.18236,279.38977L166.82117,279.38977L166.82117,276.26944L157.21995,276.26944
				L157.21995,272.90908L147.85876,272.90908L147.85876,269.78875L138.25755,269.78875L138.25755,266.66842L128.65633,266.66842
				L128.65633,228.74438L144.49834,228.74438L144.49834,231.86471L157.21995,231.86471L157.21995,234.98504L166.82117,234.98504
				L166.82117,238.10537L179.30275,238.10537L179.30275,241.46573L188.90397,241.46573L188.90397,244.58606L201.62559,244.58606
				L201.62559,247.7064L214.10717,247.7064L214.10717,250.82673L223.70839,250.82673L223.70839,253.94706L233.06958,253.94706L233.06958,257.06739
				L239.5504,257.06739L239.5504,253.94706L242.6708,253.94706L242.6708,250.82673L245.79119,250.82673L245.79119,247.7064L248.91159,247.7064
				L248.91159,241.46573L245.79119,241.46573L245.79119,238.10537L242.6708,238.10537L242.6708,234.98504L239.5504,234.98504L239.5504,231.86471
				L236.43,231.86471L236.43,228.74438L233.06958,228.74438L233.06958,225.62404L226.82879,225.62404L226.82879,222.26369L223.70839,222.26369
				L223.70839,219.14335L220.58799,219.14335L220.58799,216.02302L217.22757,216.02302L217.22757,212.90269L214.10717,212.90269
				L214.10717,209.78236L210.98678,209.78236L210.98678,206.66202L204.74598,206.66202L204.74598,203.30166L201.62559,203.30166
				L201.62559,200.18133L198.26516,200.18133L198.26516,197.061L195.14476,197.061L195.14476,193.94067L192.02437,193.94067L192.02437,190.82033
				L188.90397,190.82033L188.90397,187.45998L182.66318,187.45998L182.66318,184.33964L179.30275,184.33964L179.30275,181.21931
				L176.18236,181.21931L176.18236,178.09898L173.06196,178.09898L173.06196,174.97865L169.94157,174.97865L169.94157,171.85831
				L166.82117,171.85831L166.82117,168.49796L160.34035,168.49796L160.34035,165.37762L157.21995,165.37762L157.21995,162.25729
				L154.09956,162.25729L154.09956,159.13696L150.97916,159.13696L150.97916,156.01663L147.85876,156.01663L147.85876,152.65627
				L144.49834,152.65627L144.49834,149.53594L138.25755,149.53594L138.25755,146.4156L135.13715,146.4156L135.13715,143.29527L549.42972,143.29527
				L549.42972,576.78146"/>
			<path clip-path="url(#SVG_CP_2)" fill="none" stroke="#999999" stroke-width="0.96012" stroke-miterlimit="10" stroke-linecap="round" stroke-linejoin="round" d="
				M49.68631,690.55359L46.56591,690.55359L46.56591,143.29527L132.01675,143.29527L132.01675,149.53594L128.65633,149.53594L128.65633,168.49796
				L125.53593,168.49796L125.53593,190.82033L122.41554,190.82033L122.41554,212.90269L119.29514,212.90269L119.29514,225.62404
				L125.53593,225.62404L125.53593,263.54808L119.29514,263.54808L119.29514,260.42775L109.69392,260.42775L109.69392,279.38977
				L106.57352,279.38977L106.57352,298.35179L103.45313,298.35179L103.45313,317.31381L100.33273,317.31381L100.33273,333.1555L
				97.21234,333.1555L97.21234,355.23785L93.85191,355.23785L93.85191,377.32021L90.73151,377.32021L90.73151,402.76292L87.61112,402.76292
				L87.61112,427.9656L84.49072,427.9656L84.49072,450.04796L81.37033,450.04796L81.37033,475.49067L78.24993,475.49067L78.24993,497.57302
				L74.8895,497.57302L74.8895,519.65538L71.76911,519.65538L71.76911,538.85742L68.64871,538.85742L68.64871,557.81944L65.52832,557.81944
				L65.52832,576.78146L62.40792,576.78146L62.40792,595.74348L59.04749,595.74348L59.04749,614.7055L55.9271,614.7055L55.9271,630.54719
				L52.8067,630.54719L52.8067,655.74988L49.68631,655.74988L49.68631,690.55359"/>
			<path clip-path="url(#SVG_CP_2)" fill="none" stroke="#999999" stroke-width="0.96012" stroke-miterlimit="10" stroke-linecap="round" stroke-linejoin="round" d="
				M549.42972,700.15461L52.8067,700.15461L52.8067,697.03428L65.52832,697.03428L65.52832,693.67392L78.24993,693.67392L78.24993,690.55359
				L90.73151,690.55359L90.73151,687.43325L103.45313,687.43325L103.45313,684.31292L116.17474,684.31292L116.17474,681.19259L128.65633,681.19259
				L128.65633,677.83223L141.37794,677.83223L141.37794,674.7119L154.09956,674.7119L154.09956,671.59157L166.82117,671.59157L166.82117,668.47123
				L179.30275,668.47123L179.30275,665.3509L192.02437,665.3509L192.02437,662.23057L204.74598,662.23057L204.74598,658.87021L214.10717,658.87021
				L214.10717,655.74988L226.82879,655.74988L226.82879,652.62955L239.5504,652.62955L239.5504,649.50921L252.03198,649.50921L252.03198,646.38888
				L264.7536,646.38888L264.7536,643.26855L277.47521,643.26855L277.47521,639.90819L290.19683,639.90819L290.19683,636.78786L302.67841,636.78786
				L302.67841,633.66752L315.40003,633.66752L315.40003,630.54719L328.12164,630.54719L328.12164,627.42686L340.84325,627.42686
				L340.84325,624.0665L353.32484,624.0665L353.32484,620.94617L369.16685,620.94617L369.16685,617.82584L381.88846,617.82584L381.88846,614.7055
				L394.61008,614.7055L394.61008,611.58517L410.45209,611.58517L410.45209,608.46484L422.93367,608.46484L422.93367,601.98415L
				419.81328,601.98415L419.81328,586.14246L416.69288,586.14246L416.69288,570.30077L413.57248,570.30077L413.57248,538.85742L
				410.45209,538.85742L410.45209,532.37673L426.05407,532.37673L426.05407,529.2564L460.85848,529.2564L460.85848,551.33875L464.21891,551.33875
				L464.21891,573.66113L473.5801,573.66113L473.5801,570.30077L492.54251,570.30077L492.54251,567.18044L502.14372,567.18044L502.14372,545.09809
				L505.26412,545.09809L505.26412,548.21842L508.38452,548.21842L508.38452,551.33875L511.50491,551.33875L511.50491,554.45908
				L514.62531,554.45908L514.62531,557.81944L517.98573,557.81944L517.98573,560.93977L521.10613,560.93977L521.10613,567.18044
				L524.22653,567.18044L524.22653,576.78146L527.34692,576.78146L527.34692,583.02213L540.06854,583.02213L540.06854,579.9018L
				549.42972,579.9018L549.42972,700.15461"/>
		</g>
</g></svg>