<?xml version="1.0" encoding="utf-8" standalone="no"?>
<!-- Creator: ESRI ArcMap 10.0.0.2414 -->
<!DOCTYPE svg PUBLIC "-//W3C//DTD SVG 1.1//EN"  "http://www.w3.org/Graphics/SVG/1.1/DTD/svg11.dtd">
<svg width="524.0420768pt" height="266.613422209pt" viewBox="32.15712744 287.822423896 524.0420768 266.613422209" enable-background="new 32.15712744 287.822423896 524.0420768 266.613422209"
	version="1.1" xmlns="http://www.w3.org/2000/svg" xmlns:xlink="http://www.w3.org/1999/xlink" >
	<g id="Couches">
		<g id="cont_1">
			<clipPath id="SVG_CP_2">
				<path d="M574.39289,21.36228L21.36271,21.36228L21.36271,821.36753L574.39289,821.36753L574.39289,21.36228z"/>
			</clipPath>
			<path clip-path="url(#SVG_CP_2)" fill="none" stroke="#999999" stroke-width="0.96012" stroke-miterlimit="10" stroke-linecap="round" stroke-linejoin="round" d="
				M47.76606,329.07507L46.56591,329.07507L46.56591,294.03133L319.00048,294.03133L319.00048,294.75141L308.9192,294.75141L308.9192,295.47149
				L299.07795,295.47149L299.07795,295.95154L288.99668,295.95154L288.99668,296.67161L279.15543,296.67161L279.15543,297.39169
				L269.31418,297.39169L269.31418,298.11177L259.2329,298.11177L259.2329,298.59182L246.03122,298.59182L246.03122,299.3119L231.38936,299.3119
				L231.38936,300.03197L217.4676,300.03197L217.4676,300.75205L207.62635,300.75205L207.62635,301.2321L198.98525,301.2321L198.98525,301.95218
				L189.62406,301.95218L189.62406,302.67225L180.98297,302.67225L180.98297,303.39233L171.86181,303.39233L171.86181,303.87238
				L162.50062,303.87238L162.50062,304.59246L153.13943,304.59246L153.13943,305.31253L147.85876,305.31253L147.85876,308.67289
				L147.13867,308.67289L147.13867,312.5133L139.21767,312.5133L139.21767,321.15422L135.37718,321.15422L135.37718,320.43415L130.57657,320.43415
				L130.57657,319.9541L126.01599,319.9541L126.01599,319.23402L121.45541,319.23402L121.45541,318.51394L117.3749,318.51394L117.3749,317.79386
				L112.81432,317.79386L112.81432,317.31381L108.25374,317.31381L108.25374,316.59374L103.45313,316.59374L103.45313,315.87366
				L98.89255,315.87366L98.89255,316.59374L95.53212,316.59374L95.53212,317.31381L92.1717,317.31381L92.1717,317.79386L88.81127,317.79386
				L88.81127,318.51394L84.97078,318.51394L84.97078,319.23402L83.05054,319.23402L83.05054,319.9541L80.4102,319.9541L80.4102,320.43415
				L77.76987,320.43415L77.76987,321.15422L74.8895,321.15422L74.8895,321.8743L72.96926,321.8743L72.96926,322.59438L70.32893,322.59438
				L70.32893,323.07443L67.68859,323.07443L67.68859,323.7945L65.04826,323.7945L65.04826,324.51458L63.12801,324.51458L63.12801,325.23466
				L60.48768,325.23466L60.48768,325.95473L57.84734,325.95473L57.84734,326.43479L55.20701,326.43479L55.20701,327.15486L53.04673,327.15486
				L53.04673,327.87494L50.4064,327.87494L50.4064,328.59502L47.76606,328.59502L47.76606,329.07507"/>
			<path clip-path="url(#SVG_CP_2)" fill="none" stroke="#999999" stroke-width="0.96012" stroke-miterlimit="10" stroke-linecap="round" stroke-linejoin="round" d="
				M351.40459,548.45844L46.56591,548.45844L46.56591,339.15614L47.04597,339.15614L47.04597,359.55832L47.76606,359.55832L47.76606,362.91867
				L50.4064,362.91867L50.4064,362.1986L63.8481,362.1986L63.8481,362.91867L69.12877,362.91867L69.12877,367.71918L72.24917,367.71918
				L72.24917,368.19924L77.76987,368.19924L77.76987,368.91931L83.5306,368.91931L83.5306,369.63939L88.33121,369.63939L88.33121,370.35947
				L90.97155,370.35947L90.97155,370.83952L91.69164,370.83952L91.69164,372.99975L90.97155,372.99975L90.97155,378.28031L91.69164,378.28031
				L91.69164,378.76036L92.89179,378.76036L92.89179,379.48044L94.81203,379.48044L94.81203,380.20051L96.97231,380.20051L96.97231,380.92059
				L97.45237,380.92059L97.45237,375.64003L99.61264,375.64003L99.61264,376.12008L102.25298,376.12008L102.25298,376.84016L105.6134,376.84016
				L105.6134,377.56023L108.25374,377.56023L108.25374,378.28031L112.09423,378.28031L112.09423,376.84016L112.81432,376.84016L
				112.81432,375.64003L113.53441,375.64003L113.53441,374.19988L114.01447,374.19988L114.01447,374.91995L118.81508,374.91995L
				118.81508,375.64003L123.37566,375.64003L123.37566,376.12008L127.93624,376.12008L127.93624,376.84016L132.73685,376.84016L
				132.73685,385.48108L136.57733,385.48108L136.57733,386.20115L139.93776,386.20115L139.93776,386.92123L143.29819,386.92123L
				143.29819,387.40128L142.57809,387.40128L142.57809,391.48172L141.858,391.48172L141.858,395.56215L141.37794,395.56215L141.37794,398.68248
				L141.858,398.68248L141.858,399.40256L145.21843,399.40256L145.21843,400.12264L148.57886,400.12264L148.57886,400.84271L151.93928,400.84271
				L151.93928,401.32277L155.29971,401.32277L155.29971,402.04284L159.1402,402.04284L159.1402,402.76292L163.22071,402.76292L163.22071,403.483
				L167.0612,403.483L167.0612,403.96305L171.14172,403.96305L171.14172,404.68312L174.98221,404.68312L174.98221,405.4032L179.06272,405.4032
				L179.06272,406.12328L183.14324,406.12328L183.14324,406.60333L186.98373,406.60333L186.98373,407.32341L191.06425,407.32341
				L191.06425,408.04348L194.90473,408.04348L194.90473,408.76356L198.98525,408.76356L198.98525,409.24361L202.34568,409.24361
				L202.34568,409.96369L203.54583,409.96369L203.54583,410.68376L204.98601,410.68376L204.98601,411.40384L205.46607,411.40384
				L205.46607,412.12392L206.90626,412.12392L206.90626,412.60397L208.34644,412.60397L208.34644,413.32404L209.54659,413.32404
				L209.54659,414.04412L210.98678,414.04412L210.98678,414.7642L212.18693,414.7642L212.18693,416.6844L211.46684,416.6844L211.46684,420.04476
				L210.98678,420.04476L210.98678,420.52481L211.46684,420.52481L211.46684,421.24489L216.74751,421.24489L216.74751,421.96497
				L222.26821,421.96497L222.26821,422.68504L227.54888,422.68504L227.54888,423.16509L232.82955,423.16509L232.82955,423.88517
				L238.11022,423.88517L238.11022,424.60525L243.39089,424.60525L243.39089,425.32532L248.67156,425.32532L248.67156,426.0454L
				254.67232,426.0454L254.67232,426.52545L259.95299,426.52545L259.95299,427.24553L265.23366,427.24553L265.23366,427.9656L270.51433,427.9656
				L270.51433,428.68568L280.59561,428.68568L280.59561,427.9656L288.51661,427.9656L288.51661,427.24553L293.07719,427.24553L293.07719,426.52545
				L298.35786,426.52545L298.35786,426.0454L303.63853,426.0454L303.63853,425.32532L308.9192,425.32532L308.9192,424.60525L314.19987,424.60525
				L314.19987,423.88517L319.00048,423.88517L319.00048,423.16509L324.28115,423.16509L324.28115,422.68504L329.56182,422.68504
				L329.56182,421.96497L334.84249,421.96497L334.84249,421.24489L340.12316,421.24489L340.12316,420.52481L389.08938,420.52481
				L389.08938,420.04476L401.0909,420.04476L401.0909,419.32468L413.09242,419.32468L413.09242,418.60461L425.09395,418.60461L425.09395,417.88453
				L457.49806,417.88453L457.49806,417.40448L491.34235,417.40448L491.34235,476.93082L487.98193,476.93082L487.98193,477.6509L
				486.54174,477.6509L486.54174,478.37098L485.34159,478.37098L485.34159,478.85103L483.42135,478.85103L483.42135,479.5711L481.98117,479.5711
				L481.98117,480.29118L480.78101,480.29118L480.78101,481.01126L480.06092,481.01126L480.06092,481.73133L478.62074,481.73133
				L478.62074,482.21139L477.90065,482.21139L477.90065,482.93146L477.42059,482.93146L477.42059,483.65154L476.7005,483.65154L
				476.7005,484.37162L475.9804,484.37162L475.9804,484.85167L475.26031,484.85167L475.26031,485.57174L474.78025,485.57174L474.78025,486.29182
				L474.06016,486.29182L474.06016,487.49195L473.34007,487.49195L473.34007,489.65218L472.61998,489.65218L472.61998,490.85231
				L471.41983,490.85231L471.41983,490.13223L470.69973,490.13223L470.69973,489.65218L469.49958,489.65218L469.49958,488.9321L
				468.77949,488.9321L468.77949,488.21202L466.13915,488.21202L466.13915,488.9321L463.97888,488.9321L463.97888,489.65218L462.05864,489.65218
				L462.05864,490.13223L460.85848,490.13223L460.85848,490.85231L458.69821,490.85231L458.69821,491.57238L456.77797,491.57238
				L456.77797,492.29246L455.57781,492.29246L455.57781,492.77251L454.13763,492.77251L454.13763,493.49259L452.93748,493.49259
				L452.93748,494.21266L451.4973,494.21266L451.4973,494.93274L450.77721,494.93274L450.77721,495.41279L449.57705,495.41279L449.57705,496.13287
				L448.13687,496.13287L448.13687,496.85295L446.21663,496.85295L446.21663,497.57302L444.77644,497.57302L444.77644,498.2931L
				443.57629,498.2931L443.57629,498.77315L442.13611,498.77315L442.13611,499.49323L440.93596,499.49323L440.93596,500.2133L439.49577,500.2133
				L439.49577,500.93338L438.29562,500.93338L438.29562,501.41343L436.85544,501.41343L436.85544,502.13351L435.65529,502.13351
				L435.65529,502.85359L434.2151,502.85359L434.2151,503.57366L433.01495,503.57366L433.01495,504.05371L431.57477,504.05371L431.57477,504.77379
				L430.37462,504.77379L430.37462,505.49387L428.93443,505.49387L428.93443,506.21394L427.01419,506.21394L427.01419,506.69399
				L425.57401,506.69399L425.57401,507.41407L424.37385,507.41407L424.37385,508.13415L422.93367,508.13415L422.93367,508.85422
				L421.73352,508.85422L421.73352,509.33428L420.29334,509.33428L420.29334,510.05435L419.09318,510.05435L419.09318,510.77443
				L417.653,510.77443L417.653,511.49451L415.73276,511.49451L415.73276,512.21458L414.29258,512.21458L414.29258,512.69463L413.09242,512.69463
				L413.09242,513.41471L411.65224,513.41471L411.65224,514.13479L409.732,514.13479L409.732,514.85486L408.53184,514.85486L408.53184,515.33492
				L407.09166,515.33492L407.09166,516.05499L405.17142,516.05499L405.17142,516.77507L403.73124,516.77507L403.73124,517.49515
				L402.53108,517.49515L402.53108,517.9752L401.0909,517.9752L401.0909,518.69527L399.17066,518.69527L399.17066,519.41535L397.73047,519.41535
				L397.73047,520.13543L396.53032,520.13543L396.53032,520.61548L394.61008,520.61548L394.61008,521.33555L393.16989,521.33555
				L393.16989,522.05563L391.72971,522.05563L391.72971,522.77571L390.52956,522.77571L390.52956,523.25576L389.80947,523.25576
				L389.80947,523.97584L389.08938,523.97584L389.08938,524.69591L388.60932,524.69591L388.60932,525.41599L387.88922,525.41599
				L387.88922,526.13607L387.16913,526.13607L387.16913,526.61612L386.44904,526.61612L386.44904,527.33619L385.96898,527.33619
				L385.96898,528.77635L385.24889,528.77635L385.24889,529.2564L384.5288,529.2564L384.5288,529.97648L383.80871,529.97648L383.80871,530.69655
				L383.32865,530.69655L383.32865,531.41663L382.60855,531.41663L382.60855,531.89668L381.88846,531.89668L381.88846,532.61676
				L381.16837,532.61676L381.16837,533.33683L379.96822,533.33683L379.96822,534.05691L372.52728,534.05691L372.52728,533.33683
				L368.68679,533.33683L368.68679,534.05691L366.04645,534.05691L366.04645,534.53696L364.12621,534.53696L364.12621,535.25704
				L362.68603,535.25704L362.68603,535.97711L361.96594,535.97711L361.96594,536.69719L361.24584,536.69719L361.24584,537.17724
				L360.04569,537.17724L360.04569,537.89732L359.3256,537.89732L359.3256,538.6174L358.60551,538.6174L358.60551,539.33747L358.12545,539.33747
				L358.12545,540.05755L357.40536,540.05755L357.40536,540.5376L356.68526,540.5376L356.68526,541.97775L355.96517,541.97775L355.96517,542.69783
				L355.48511,542.69783L355.48511,543.17788L354.76502,543.17788L354.76502,544.61804L354.04493,544.61804L354.04493,545.33811
				L353.32484,545.33811L353.32484,546.53824L352.84478,546.53824L352.84478,547.25832L352.12469,547.25832L352.12469,547.97839
				L351.40459,547.97839L351.40459,548.45844"/>
			<path clip-path="url(#SVG_CP_2)" fill="none" stroke="#999999" stroke-width="0.96012" stroke-miterlimit="10" stroke-linecap="round" stroke-linejoin="round" d="
				M549.66976,548.45844L352.84478,548.45844L352.84478,547.97839L354.76502,547.97839L354.76502,547.25832L356.68526,547.25832
				L356.68526,546.53824L359.3256,546.53824L359.3256,545.81816L361.24584,545.81816L361.24584,545.33811L363.40612,545.33811L363.40612,544.61804
				L365.32636,544.61804L365.32636,543.89796L367.9667,543.89796L367.9667,543.17788L369.88694,543.17788L369.88694,542.69783L372.04721,542.69783
				L372.04721,541.97775L373.96746,541.97775L373.96746,541.25768L376.60779,541.25768L376.60779,540.5376L378.52804,540.5376L378.52804,540.05755
				L380.68831,540.05755L380.68831,539.33747L382.60855,539.33747L382.60855,538.6174L385.24889,538.6174L385.24889,537.89732L387.16913,537.89732
				L387.16913,537.17724L389.08938,537.17724L389.08938,536.69719L391.24965,536.69719L391.24965,535.97711L393.88999,535.97711
				L393.88999,535.25704L395.81023,535.25704L395.81023,534.53696L397.73047,534.53696L397.73047,534.05691L400.37081,534.05691
				L400.37081,533.33683L402.53108,533.33683L402.53108,532.61676L404.45133,532.61676L404.45133,531.89668L406.37157,531.89668
				L406.37157,531.41663L409.01191,531.41663L409.01191,530.69655L411.17218,530.69655L411.17218,529.97648L413.09242,529.97648
				L413.09242,529.2564L415.01267,529.2564L415.01267,528.77635L417.653,528.77635L417.653,528.05627L419.57325,528.05627L419.57325,527.33619
				L421.73352,527.33619L421.73352,526.61612L423.65376,526.61612L423.65376,526.13607L426.2941,526.13607L426.2941,525.41599L428.21434,525.41599
				L428.21434,524.69591L430.37462,524.69591L430.37462,523.97584L432.29486,523.97584L432.29486,523.25576L434.9352,523.25576L
				434.9352,522.77571L436.85544,522.77571L436.85544,522.05563L439.01571,522.05563L439.01571,521.33555L441.65605,521.33555L441.65605,520.61548
				L442.13611,520.61548L442.13611,520.13543L441.65605,520.13543L441.65605,517.9752L440.93596,517.9752L440.93596,516.77507L440.21587,516.77507
				L440.21587,514.85486L439.49577,514.85486L439.49577,511.49451L440.21587,511.49451L440.21587,510.05435L440.93596,510.05435
				L440.93596,509.33428L442.13611,509.33428L442.13611,508.85422L442.8562,508.85422L442.8562,508.13415L444.29638,508.13415L444.29638,507.41407
				L445.49654,507.41407L445.49654,506.69399L446.93672,506.69399L446.93672,506.21394L448.85696,506.21394L448.85696,505.49387
				L450.77721,505.49387L450.77721,504.77379L452.93748,504.77379L452.93748,504.05371L454.85772,504.05371L454.85772,503.57366
				L456.77797,503.57366L456.77797,502.85359L458.69821,502.85359L458.69821,502.13351L460.85848,502.13351L460.85848,501.41343
				L462.05864,501.41343L462.05864,500.93338L463.97888,500.93338L463.97888,500.2133L466.85925,500.2133L466.85925,499.49323L469.97964,499.49323
				L469.97964,498.77315L473.34007,498.77315L473.34007,498.2931L475.9804,498.2931L475.9804,497.57302L477.42059,497.57302L477.42059,498.2931
				L481.98117,498.2931L481.98117,499.49323L482.70126,499.49323L482.70126,500.2133L483.42135,500.2133L483.42135,500.93338L483.90141,500.93338
				L483.90141,501.41343L485.34159,501.41343L485.34159,502.13351L486.54174,502.13351L486.54174,502.85359L487.26184,502.85359
				L487.26184,502.13351L489.18208,502.13351L489.18208,501.41343L490.62226,501.41343L490.62226,500.93338L492.54251,500.93338
				L492.54251,500.2133L494.70278,500.2133L494.70278,499.49323L496.62302,499.49323L496.62302,498.77315L498.54327,498.77315L498.54327,498.2931
				L500.46351,498.2931L500.46351,497.57302L502.62378,497.57302L502.62378,496.85295L504.54403,496.85295L504.54403,496.13287L
				507.18436,496.13287L507.18436,495.41279L509.10461,495.41279L509.10461,494.93274L511.74494,494.93274L511.74494,494.21266L
				520.38604,494.21266L520.38604,494.93274L523.02637,494.93274L523.02637,495.41279L525.66671,495.41279L525.66671,496.13287L
				527.10689,496.13287L527.10689,495.41279L530.94738,495.41279L530.94738,494.93274L531.66747,494.93274L531.66747,494.21266L
				532.38756,494.21266L532.38756,493.49259L533.58771,493.49259L533.58771,492.77251L534.30781,492.77251L534.30781,492.29246L
				535.0279,492.29246L535.0279,491.57238L535.74799,491.57238L535.74799,490.85231L536.46808,490.85231L536.46808,490.13223L537.66823,490.13223
				L537.66823,489.65218L538.38832,489.65218L538.38832,488.9321L539.10841,488.9321L539.10841,488.21202L539.58848,488.21202L539.58848,487.49195
				L540.30857,487.49195L540.30857,487.0119L541.74875,487.0119L541.74875,486.29182L542.22881,486.29182L542.22881,485.57174L542.9489,485.57174
				L542.9489,484.85167L543.66899,484.85167L543.66899,484.37162L544.38909,484.37162L544.38909,483.65154L544.86915,483.65154L
				544.86915,482.93146L546.30933,482.93146L546.30933,482.21139L547.02942,482.21139L547.02942,481.73133L547.50948,481.73133L
				547.50948,481.01126L548.22957,481.01126L548.22957,480.29118L548.94966,480.29118L548.94966,479.5711L539.10841,479.5711L539.10841,478.85103
				L535.0279,478.85103L535.0279,478.37098L530.94738,478.37098L530.94738,477.6509L525.18665,477.6509L525.18665,476.93082L519.66595,476.93082
				L519.66595,476.21075L509.10461,476.21075L509.10461,476.93082L491.82241,476.93082L491.82241,417.40448L494.70278,417.40448
				L494.70278,416.6844L493.98269,416.6844L493.98269,415.96433L492.54251,415.96433L492.54251,415.24425L491.82241,415.24425L491.82241,414.7642
				L491.34235,414.7642L491.34235,414.04412L489.90217,414.04412L489.90217,413.32404L489.18208,413.32404L489.18208,412.60397L
				487.98193,412.60397L487.98193,412.12392L487.26184,412.12392L487.26184,411.40384L486.54174,411.40384L486.54174,410.68376L
				485.34159,410.68376L485.34159,409.96369L484.6215,409.96369L484.6215,409.24361L483.90141,409.24361L483.90141,408.76356L482.70126,408.76356
				L482.70126,408.04348L481.98117,408.04348L481.98117,407.32341L480.78101,407.32341L480.78101,406.60333L480.06092,406.60333
				L480.06092,406.12328L479.34083,406.12328L479.34083,405.4032L477.90065,405.4032L477.90065,404.68312L477.42059,404.68312L477.42059,403.96305
				L476.7005,403.96305L476.7005,403.483L475.26031,403.483L475.26031,402.76292L474.78025,402.76292L474.78025,402.04284L473.34007,402.04284
				L473.34007,401.32277L472.61998,401.32277L472.61998,400.84271L472.13992,400.84271L472.13992,400.12264L470.69973,400.12264
				L470.69973,399.40256L469.97964,399.40256L469.97964,398.68248L469.49958,398.68248L469.49958,398.20243L468.0594,398.20243L
				468.0594,397.48236L467.33931,397.48236L467.33931,396.76228L466.13915,396.76228L466.13915,396.0422L465.41906,396.0422L465.41906,395.56215
				L464.69897,395.56215L464.69897,394.84208L463.49882,394.84208L463.49882,394.122L462.77873,394.122L462.77873,393.40192L462.05864,393.40192
				L462.05864,392.68185L460.85848,392.68185L460.85848,392.20179L460.13839,392.20179L460.13839,391.48172L458.69821,391.48172
				L458.69821,390.76164L458.21815,390.76164L458.21815,390.04156L457.49806,390.04156L457.49806,389.56151L456.05788,389.56151
				L456.05788,388.84144L455.57781,388.84144L455.57781,388.12136L454.13763,388.12136L454.13763,387.40128L453.41754,387.40128
				L453.41754,386.92123L452.93748,386.92123L452.93748,386.20115L451.4973,386.20115L451.4973,385.48108L450.77721,385.48108L450.77721,384.761
				L449.57705,384.761L449.57705,384.28095L448.85696,384.28095L448.85696,383.56087L447.41678,383.56087L447.41678,382.8408L446.93672,382.8408
				L446.93672,382.12072L446.21663,382.12072L446.21663,381.64067L444.77644,381.64067L444.77644,380.92059L444.29638,380.92059
				L444.29638,380.20051L442.8562,380.20051L442.8562,379.48044L442.13611,379.48044L442.13611,378.76036L440.93596,378.76036L440.93596,378.28031
				L440.21587,378.28031L440.21587,377.56023L439.01571,377.56023L439.01571,376.84016L438.29562,376.84016L438.29562,376.12008
				L437.57553,376.12008L437.57553,375.64003L436.37538,375.64003L436.37538,374.91995L435.65529,374.91995L435.65529,374.19988
				L434.2151,374.19988L434.2151,373.4798L433.49501,373.4798L433.49501,372.99975L432.29486,372.99975L432.29486,372.27967L431.57477,372.27967
				L431.57477,371.55959L430.85468,371.55959L430.85468,370.83952L429.65452,370.83952L429.65452,370.35947L428.93443,370.35947
				L428.93443,369.63939L427.73428,369.63939L427.73428,368.91931L427.01419,368.91931L427.01419,368.19924L425.57401,368.19924
				L425.57401,367.71918L425.09395,367.71918L425.09395,366.99911L424.37385,366.99911L424.37385,366.27903L422.93367,366.27903
				L422.93367,365.55895L422.45361,365.55895L422.45361,364.83888L421.01343,364.83888L421.01343,364.35883L420.29334,364.35883
				L420.29334,363.63875L419.57325,363.63875L419.57325,362.91867L418.37309,362.91867L418.37309,362.1986L417.653,362.1986L417.653,361.71855
				L416.45285,361.71855L416.45285,360.99847L415.73276,360.99847L415.73276,360.27839L415.01267,360.27839L415.01267,359.55832
				L413.81251,359.55832L413.81251,359.07826L413.09242,359.07826L413.09242,358.35819L411.65224,358.35819L411.65224,357.63811
				L411.17218,357.63811L411.17218,356.91803L409.732,356.91803L409.732,356.43798L409.01191,356.43798L409.01191,355.71791L408.53184,355.71791
				L408.53184,354.99783L407.09166,354.99783L407.09166,354.27775L406.37157,354.27775L406.37157,353.7977L405.17142,353.7977L405.17142,353.07762
				L404.45133,353.07762L404.45133,352.35755L403.73124,352.35755L403.73124,351.63747L402.53108,351.63747L402.53108,350.91739
				L401.81099,350.91739L401.81099,350.43734L400.37081,350.43734L400.37081,349.71727L399.89075,349.71727L399.89075,348.99719
				L399.17066,348.99719L399.17066,348.27711L397.73047,348.27711L397.73047,347.79706L397.25041,347.79706L397.25041,347.07699
				L395.81023,347.07699L395.81023,346.35691L395.09014,346.35691L395.09014,345.63683L394.61008,345.63683L394.61008,345.15678
				L393.16989,345.15678L393.16989,344.4367L392.4498,344.4367L392.4498,343.71663L391.24965,343.71663L391.24965,342.99655L390.52956,342.99655
				L390.52956,342.5165L389.80947,342.5165L389.80947,341.79642L388.60932,341.79642L388.60932,341.07635L387.88922,341.07635L387.88922,340.35627
				L387.16913,340.35627L387.16913,339.87622L385.96898,339.87622L385.96898,339.15614L385.24889,339.15614L385.24889,338.43606
				L384.5288,338.43606L384.5288,337.71599L383.80871,337.71599L383.80871,336.99591L382.60855,336.99591L382.60855,336.51586L381.88846,336.51586
				L381.88846,335.79578L381.16837,335.79578L381.16837,335.07571L379.96822,335.07571L379.96822,334.35563L379.24813,334.35563
				L379.24813,333.87558L378.52804,333.87558L378.52804,333.1555L377.32788,333.1555L377.32788,332.43543L376.60779,332.43543L376.60779,331.71535
				L375.8877,331.71535L375.8877,331.2353L374.68755,331.2353L374.68755,330.51522L373.96746,330.51522L373.96746,329.79514L373.24737,329.79514
				L373.24737,329.07507L372.52728,329.07507L372.52728,328.59502L371.32712,328.59502L371.32712,327.87494L370.60703,327.87494
				L370.60703,327.15486L369.88694,327.15486L369.88694,326.43479L368.68679,326.43479L368.68679,325.95473L367.9667,325.95473L
				367.9667,325.23466L367.24661,325.23466L367.24661,324.51458L366.04645,324.51458L366.04645,323.7945L365.32636,323.7945L365.32636,323.07443
				L364.60627,323.07443L364.60627,322.59438L363.40612,322.59438L363.40612,321.8743L362.68603,321.8743L362.68603,321.15422L361.96594,321.15422
				L361.96594,320.43415L360.76578,320.43415L360.76578,319.9541L360.04569,319.9541L360.04569,319.23402L359.3256,319.23402L359.3256,318.51394
				L358.12545,318.51394L358.12545,317.79386L357.40536,317.79386L357.40536,317.31381L355.96517,317.31381L355.96517,316.59374
				L355.48511,316.59374L355.48511,315.87366L354.76502,315.87366L354.76502,315.15358L353.32484,315.15358L353.32484,314.67353
				L352.84478,314.67353L352.84478,313.95346L352.12469,313.95346L352.12469,313.23338L350.6845,313.23338L350.6845,312.5133L350.20444,312.5133
				L350.20444,312.03325L349.48435,312.03325L349.48435,311.31317L348.04417,311.31317L348.04417,310.5931L347.32408,310.5931L347.32408,309.87302
				L346.12392,309.87302L346.12392,309.39297L345.40383,309.39297L345.40383,308.67289L344.68374,308.67289L344.68374,307.95282
				L343.48359,307.95282L343.48359,307.23274L342.7635,307.23274L342.7635,306.51266L342.04341,306.51266L342.04341,306.03261L340.84325,306.03261
				L340.84325,305.31253L340.12316,305.31253L340.12316,304.59246L338.92301,304.59246L338.92301,303.87238L338.20292,303.87238
				L338.20292,303.39233L337.48283,303.39233L337.48283,302.67225L336.28268,302.67225L336.28268,301.95218L335.56258,301.95218
				L335.56258,301.2321L334.84249,301.2321L334.84249,300.75205L333.40231,300.75205L333.40231,300.03197L332.92225,300.03197L332.92225,299.3119
				L332.20216,299.3119L332.20216,298.59182L330.76198,298.59182L330.76198,298.11177L330.28191,298.11177L330.28191,297.39169L
				329.56182,297.39169L329.56182,296.67161L328.12164,296.67161L328.12164,295.95154L327.64158,295.95154L327.64158,295.47149L
				326.92149,295.47149L326.92149,294.75141L325.48131,294.75141L325.48131,294.03133L549.66976,294.03133L549.66976,548.45844"/>
		</g>
</g></svg>