<?xml version="1.0" encoding="utf-8" standalone="no"?>
<!-- Creator: ESRI ArcMap 10.0.0.2414 -->
<!DOCTYPE svg PUBLIC "-//W3C//DTD SVG 1.1//EN"  "http://www.w3.org/Graphics/SVG/1.1/DTD/svg11.dtd">
<svg width="524.0420768pt" height="395.130717528pt" viewBox="32.15712744 223.563776236 524.0420768 395.130717528" enable-background="new 32.15712744 223.563776236 524.0420768 395.130717528"
	version="1.1" xmlns="http://www.w3.org/2000/svg" xmlns:xlink="http://www.w3.org/1999/xlink" >
	<g id="Couches">
		<g id="cont_2">
			<path clip-path="url(#SVG_CP_2)" fill="none" stroke="#999999" stroke-width="0.96012" stroke-miterlimit="10" stroke-linecap="round" stroke-linejoin="round" d="
				M204.02589,480.77123L203.78586,480.77123L203.78586,480.29118L204.02589,480.29118L204.02589,480.77123"/>
			<path clip-path="url(#SVG_CP_2)" fill="none" stroke="#999999" stroke-width="0.96012" stroke-miterlimit="10" stroke-linecap="round" stroke-linejoin="round" d="
				M203.54583,488.9321L203.3058,488.9321L203.3058,488.69208L203.54583,488.69208L203.54583,488.9321"/>
			<path clip-path="url(#SVG_CP_2)" fill="none" stroke="#999999" stroke-width="0.96012" stroke-miterlimit="10" stroke-linecap="round" stroke-linejoin="round" d="
				M203.54583,488.9321L204.74598,488.9321L204.74598,489.17213L205.46607,489.17213L205.46607,489.41215L206.66623,489.41215L206.66623,488.69208
				L206.90626,488.69208L207.14629,488.69208L207.14629,488.21202L207.38632,488.21202L207.38632,487.73197L207.62635,487.73197
				L207.62635,486.77187L207.38632,486.77187L207.38632,486.29182L207.14629,486.29182L207.14629,485.81177L206.90626,485.81177
				L206.90626,485.33172L206.66623,485.33172L206.66623,484.85167L206.4262,484.85167L206.4262,484.61164L206.18617,484.61164L206.18617,484.37162
				L205.70611,484.37162L205.70611,484.13159L205.22604,484.13159L205.22604,483.89156L204.98601,483.89156L204.98601,483.65154
				L204.74598,483.65154L204.74598,483.41151L204.50595,483.41151L204.50595,483.17149L204.26592,483.17149L204.26592,482.93146
				L204.02589,482.93146L204.02589,482.21139L204.02589,481.73133L203.78586,481.73133L203.78586,481.01126L204.02589,481.01126
				L204.02589,480.77123L204.02589,481.25128L204.26592,481.25128L204.26592,481.97136L204.50595,481.97136L204.50595,482.21139
				L204.74598,482.21139L204.74598,482.69144L205.22604,482.69144L205.22604,482.45141L205.94614,482.45141L205.94614,482.21139
				L206.66623,482.21139L206.66623,481.97136L207.38632,481.97136L207.62635,481.97136L207.62635,482.21139L207.62635,482.69144
				L207.86638,482.69144L207.86638,482.93146L208.10641,482.93146L208.10641,483.17149L208.34644,483.17149L208.34644,483.41151
				L208.58647,483.41151L208.58647,483.65154L208.8265,483.65154L208.8265,483.89156L209.06653,483.89156L209.06653,484.13159L209.30656,484.13159
				L209.30656,484.37162L209.54659,484.37162L209.54659,484.61164L209.78662,484.61164L209.78662,484.85167L210.02665,484.85167
				L210.02665,485.09169L210.26668,485.09169L210.26668,485.33172L210.50671,485.33172L210.74674,485.33172L210.74674,485.57174
				L210.98678,485.57174L210.98678,485.81177L211.22681,485.81177L211.22681,486.05179L211.46684,486.05179L211.46684,486.29182
				L211.70687,486.29182L211.70687,486.53185L211.9469,486.53185L211.9469,486.77187L212.18693,486.77187L212.18693,487.0119L211.9469,487.0119
				L211.9469,487.25192L211.70687,487.25192L211.70687,487.49195L211.46684,487.49195L211.46684,487.73197L211.22681,487.73197L
				211.22681,487.972L210.98678,487.972L210.98678,488.21202L210.98678,488.45205L210.74674,488.45205L210.74674,488.69208L210.50671,488.69208
				L210.26668,488.69208L210.26668,488.9321L210.02665,488.9321L210.02665,489.17213L209.78662,489.17213L209.78662,489.41215L209.54659,489.41215
				L209.54659,489.65218L209.30656,489.65218L209.30656,489.8922L209.06653,489.8922L209.06653,490.13223L208.8265,490.13223L208.8265,490.37225
				L208.58647,490.37225L208.58647,490.61228L208.34644,490.61228L208.34644,490.85231L208.10641,490.85231L208.10641,491.09233
				L207.86638,491.09233L207.86638,491.33236L207.62635,491.33236L207.62635,491.57238L207.62635,491.81241L207.14629,491.81241
				L207.14629,492.05243L206.66623,492.05243L206.66623,492.29246L206.18617,492.29246L205.94614,492.29246L205.94614,492.53249
				L205.46607,492.53249L205.46607,492.77251L204.98601,492.77251L204.98601,493.01254L204.74598,493.01254L204.74598,492.77251
				L204.50595,492.77251L204.50595,492.29246L204.26592,492.29246L204.26592,491.57238L204.02589,491.57238L204.02589,491.09233
				L204.02589,490.37225L203.78586,490.37225L203.78586,489.65218L203.54583,489.65218L203.54583,488.9321"/>
			<path clip-path="url(#SVG_CP_2)" fill="none" stroke="#999999" stroke-width="0.96012" stroke-miterlimit="10" stroke-linecap="round" stroke-linejoin="round" d="
				M281.07567,503.33364L280.83564,503.33364L280.83564,503.09361L280.59561,503.09361L280.59561,502.61356L280.35558,502.61356
				L280.35558,502.37353L280.11555,502.37353L280.11555,502.13351L279.87552,502.13351L279.87552,501.65346L279.63549,501.65346
				L279.63549,501.17341L279.39546,501.17341L279.39546,500.69335L279.15543,500.69335L279.15543,500.45333L279.15543,499.97328
				L278.9154,499.97328L278.9154,499.49323L278.67537,499.49323L278.67537,499.01318L278.43533,499.01318L278.43533,498.77315L278.1953,498.77315
				L278.1953,498.53312L277.95527,498.53312L277.95527,498.05307L277.71524,498.05307L277.71524,497.57302L277.47521,497.57302L
				277.47521,497.333L277.23518,497.333L277.23518,496.85295L276.99515,496.85295L276.99515,496.61292L276.75512,496.61292L276.75512,496.13287
				L276.51509,496.13287L276.51509,495.89284L276.27506,495.89284L276.27506,495.65282L276.03503,495.65282L276.03503,495.17277
				L275.795,495.17277L275.795,494.93274L275.795,494.45269L275.55497,494.45269L275.55497,494.21266L275.31494,494.21266L275.31494,493.73261
				L275.07491,493.73261L275.07491,493.49259L274.83488,493.49259L274.83488,493.01254L274.59485,493.01254L274.59485,492.53249
				L274.35482,492.53249L274.35482,492.29246L274.11479,492.29246L274.11479,492.05243L273.87476,492.05243L273.87476,491.81241
				L273.63473,491.81241L273.63473,491.33236L273.3947,491.33236L273.3947,491.09233L273.15466,491.09233L273.15466,490.61228L272.91463,490.61228
				L272.91463,490.13223L272.6746,490.13223L272.6746,489.8922L272.43457,489.8922L272.43457,489.41215L272.43457,489.17213L272.19454,489.17213
				L272.19454,488.69208L271.95451,488.69208L271.71448,488.69208L271.71448,488.21202L271.47445,488.21202L271.47445,488.45205
				L271.23442,488.45205L271.23442,488.69208L270.99439,488.69208L270.75436,488.69208L270.75436,488.9321L270.51433,488.9321L270.51433,489.17213
				L270.2743,489.17213L270.2743,489.41215L270.03427,489.41215L270.03427,489.65218L269.79424,489.65218L269.79424,489.41215L269.55421,489.41215
				L269.55421,489.17213L269.31418,489.17213L269.31418,488.9321L269.07415,488.9321L269.07415,488.69208L268.83412,488.69208L268.83412,488.45205
				L268.59409,488.45205L268.59409,487.972L268.35406,487.972L268.35406,487.73197L268.11402,487.73197L268.11402,487.49195L267.87399,487.49195
				L267.87399,487.25192L267.63396,487.25192L267.63396,487.0119L267.39393,487.0119L267.39393,486.77187L267.1539,486.77187L267.1539,486.53185
				L266.91387,486.53185L266.91387,486.29182L266.67384,486.29182L266.67384,486.05179L266.43381,486.05179L266.43381,485.81177
				L266.19378,485.81177L266.19378,485.57174L265.23366,485.57174L265.23366,485.33172L264.27354,485.33172L263.79348,485.33172
				L263.79348,485.09169L263.31342,485.09169L263.31342,484.85167L262.83335,484.85167L262.83335,484.61164L262.11326,484.61164
				L262.11326,484.37162L261.87323,484.37162L261.87323,484.13159L261.39317,484.13159L261.39317,483.89156L260.91311,483.89156
				L260.91311,483.65154L260.43305,483.65154L260.43305,483.41151L259.95299,483.41151L259.95299,483.17149L259.47293,483.17149
				L259.47293,482.93146L259.2329,482.93146L259.2329,482.69144L258.75284,482.69144L258.75284,482.45141L258.75284,482.21139L258.27278,482.21139
				L258.27278,481.97136L257.79272,481.97136L257.55268,481.97136L257.55268,481.73133L257.07262,481.73133L257.07262,481.49131
				L256.83259,481.49131L256.83259,481.25128L256.35253,481.25128L256.35253,481.01126L256.1125,481.01126L256.1125,480.77123L255.63244,480.77123
				L255.63244,480.29118L255.39241,480.29118L255.39241,480.05116L255.39241,479.5711L255.15238,479.5711L255.15238,479.33108L254.91235,479.33108
				L254.91235,478.85103L254.67232,478.85103L254.67232,478.611L254.43229,478.611L254.43229,478.37098L254.19226,478.37098L254.19226,477.89092
				L253.95223,477.89092L253.95223,477.6509L253.7122,477.6509L253.7122,477.17085L253.47217,477.17085L253.47217,476.6908L253.23214,476.6908
				L253.23214,476.45077L252.99211,476.45077L252.99211,475.97072L252.75208,475.97072L252.75208,475.73069L252.51205,475.73069
				L252.51205,475.49067L252.27201,475.49067L252.27201,475.25064L252.03198,475.25064L252.03198,475.01062L251.79195,475.01062
				L251.79195,474.77059L251.79195,474.29054L251.55192,474.29054L251.55192,474.05052L251.31189,474.05052L251.31189,473.57046
				L251.07186,473.57046L251.07186,473.33044L250.83183,473.33044L250.83183,473.09041L250.5918,473.09041L250.5918,472.61036L250.35177,472.61036
				L250.35177,472.37034L250.11174,472.37034L250.11174,472.13031L249.87171,472.13031L249.87171,471.89029L249.63168,471.89029
				L249.63168,471.65026L249.39165,471.65026L249.39165,471.41023L249.15162,471.41023L249.15162,471.17021L248.91159,471.17021
				L248.91159,470.93018L248.67156,470.93018L248.67156,470.69016L248.43153,470.69016L248.43153,470.45013L248.43153,470.21011
				L248.1915,470.21011L248.1915,469.97008L247.95147,469.97008L247.95147,469.49003L247.71144,469.49003L247.71144,469.25L247.47141,469.25
				L247.47141,469.00998L247.23137,469.00998L247.23137,468.76995L246.99134,468.76995L246.99134,468.52993L246.75131,468.52993
				L246.75131,468.2899L246.51128,468.2899L246.27125,468.2899L246.27125,468.04988L246.03122,468.04988L246.03122,467.56983L245.79119,467.56983
				L245.79119,467.3298L245.55116,467.3298L245.55116,467.08977L245.31113,467.08977L245.31113,466.84975L245.0711,466.84975L245.0711,466.60972
				L244.83107,466.60972L244.83107,466.3697L244.59104,466.3697L244.59104,466.12967L244.35101,466.12967L244.35101,465.88965L244.11098,465.88965
				L244.11098,465.64962L243.87095,465.64962L243.87095,465.40959L243.63092,465.40959L243.63092,465.16957L243.15086,465.16957
				L243.15086,464.92954L242.91083,464.92954L242.6708,464.92954L242.6708,464.68952L242.43077,464.68952L242.43077,464.20947L242.19074,464.20947
				L242.19074,463.96944L241.9507,463.96944L241.9507,463.72942L241.71067,463.72942L241.71067,463.48939L241.71067,463.24936L241.47064,463.24936
				L241.47064,462.76931L241.23061,462.76931L241.23061,462.52929L240.99058,462.52929L240.99058,462.28926L240.75055,462.28926
				L240.75055,461.80921L240.51052,461.80921L240.51052,461.56919L240.27049,461.56919L240.03046,461.56919L240.03046,461.08913
				L239.79043,461.08913L239.79043,460.84911L239.5504,460.84911L239.5504,460.36906L239.31037,460.36906L239.31037,460.12903L239.07034,460.12903
				L239.07034,459.64898L238.83031,459.64898L238.83031,459.40896L238.59028,459.40896L238.59028,458.9289L238.35025,458.9289L238.35025,458.68888
				L238.35025,458.44885L238.11022,458.44885L238.11022,458.20883L237.87019,458.20883L237.87019,457.9688L237.63016,457.9688L237.63016,457.72878
				L237.39013,457.72878L237.39013,457.24873L237.1501,457.24873L237.1501,457.0087L236.91007,457.0087L236.91007,456.76867L236.67003,456.76867
				L236.67003,456.28862L236.43,456.28862L236.43,456.0486L236.18997,456.0486L236.18997,455.80857L235.94994,455.80857L235.94994,455.32852
				L235.70991,455.32852L235.70991,455.0885L235.46988,455.0885L235.46988,454.84847L235.22985,454.84847L235.22985,454.60844L234.98982,454.60844
				L234.98982,454.36842L234.74979,454.36842L234.74979,454.12839L234.74979,453.64834L234.50976,453.64834L234.50976,453.40832
				L234.26973,453.40832L234.26973,453.16829L234.0297,453.16829L234.0297,452.68824L233.78967,452.68824L233.78967,452.44821L233.54964,452.44821
				L233.54964,452.20819L233.30961,452.20819L233.30961,451.96816L232.82955,451.96816L232.82955,451.72814L232.34949,451.72814
				L232.34949,451.48811L232.10946,451.48811L232.10946,451.24809L232.34949,451.24809L232.58952,451.24809L232.58952,451.00806
				L232.82955,451.00806L232.82955,450.76803L233.06958,450.76803L233.06958,451.48811L233.54964,451.48811L233.54964,451.72814
				L234.0297,451.72814L234.0297,451.96816L234.26973,451.96816L234.26973,452.20819L234.50976,452.20819L234.50976,452.44821L234.74979,452.44821
				L234.74979,452.68824L234.98982,452.68824L234.98982,452.92826L235.22985,452.92826L235.22985,453.16829L235.46988,453.16829
				L235.46988,453.40832L235.70991,453.40832L235.70991,453.64834L235.94994,453.64834L235.94994,453.88837L236.18997,453.88837
				L236.18997,454.12839L236.43,454.12839L236.43,454.36842L236.67003,454.36842L236.67003,454.60844L236.91007,454.60844L237.1501,454.60844
				L237.1501,454.84847L237.39013,454.84847L237.39013,455.0885L237.63016,455.0885L237.63016,455.32852L237.87019,455.32852L237.87019,455.56855
				L238.11022,455.56855L238.11022,455.80857L238.35025,455.80857L238.35025,456.0486L238.59028,456.0486L238.59028,456.28862L238.83031,456.28862
				L238.83031,456.52865L239.31037,456.52865L239.31037,456.76867L239.5504,456.76867L239.5504,457.0087L240.03046,457.0087L240.03046,457.24873
				L240.27049,457.24873L240.27049,457.48875L240.75055,457.48875L240.75055,457.72878L240.99058,457.72878L240.99058,457.9688L
				241.47064,457.9688L241.47064,458.20883L241.71067,458.20883L241.71067,458.44885L241.9507,458.44885L241.9507,458.68888L242.19074,458.68888
				L242.19074,458.9289L242.6708,458.9289L242.6708,459.16893L242.91083,459.16893L242.91083,459.40896L243.15086,459.40896L243.15086,459.64898
				L243.63092,459.64898L243.63092,459.88901L243.87095,459.88901L243.87095,460.12903L244.11098,460.12903L244.11098,460.36906
				L244.59104,460.36906L244.59104,460.60908L244.83107,460.60908L244.83107,460.84911L245.0711,460.84911L245.0711,461.08913L245.31113,461.08913
				L245.31113,461.32916L245.79119,461.32916L245.79119,461.56919L246.03122,461.56919L246.51128,461.56919L246.51128,461.80921
				L246.99134,461.80921L246.99134,462.04924L247.23137,462.04924L247.23137,462.28926L247.71144,462.28926L247.71144,462.52929
				L247.95147,462.52929L247.95147,462.76931L248.43153,462.76931L248.43153,463.00934L248.67156,463.00934L248.67156,463.24936
				L248.91159,463.24936L248.91159,463.48939L249.39165,463.48939L249.39165,463.72942L249.87171,463.72942L249.87171,463.96944
				L250.11174,463.96944L250.11174,464.20947L250.35177,464.20947L250.35177,464.44949L250.83183,464.44949L250.83183,464.68952
				L251.07186,464.68952L251.07186,464.92954L251.31189,464.92954L251.55192,464.92954L252.03198,464.92954L252.03198,464.68952
				L252.75208,464.68952L252.75208,464.44949L252.99211,464.44949L252.99211,464.20947L253.23214,464.20947L253.23214,463.96944
				L253.95223,463.96944L253.95223,463.72942L254.67232,463.72942L254.67232,463.48939L255.39241,463.48939L255.39241,463.24936
				L255.39241,463.00934L256.83259,463.00934L256.83259,462.76931L257.07262,462.76931L257.07262,462.52929L258.99287,462.52929
				L258.99287,462.76931L259.47293,462.76931L259.47293,463.00934L260.19302,463.00934L260.19302,463.24936L260.67308,463.24936
				L260.67308,463.48939L261.15314,463.48939L261.15314,463.72942L261.39317,463.72942L261.39317,463.96944L262.11326,463.96944
				L262.11326,464.20947L262.35329,464.20947L262.35329,464.44949L262.83335,464.44949L262.83335,464.68952L263.55345,464.68952
				L263.55345,464.92954L266.43381,464.92954L266.43381,464.68952L270.03427,464.68952L270.03427,464.92954L270.2743,464.92954L
				270.2743,464.68952L270.51433,464.68952L270.51433,464.92954L270.99439,464.92954L271.47445,464.92954L271.47445,465.16957L271.95451,465.16957
				L271.95451,465.40959L272.43457,465.40959L272.43457,465.64962L272.91463,465.64962L272.91463,465.88965L273.63473,465.88965
				L273.63473,466.12967L273.87476,466.12967L273.87476,466.3697L274.59485,466.3697L274.59485,466.60972L275.07491,466.60972L275.07491,466.84975
				L275.55497,466.84975L275.55497,467.08977L276.03503,467.08977L276.03503,467.3298L276.27506,467.3298L276.27506,467.56983L276.75512,467.56983
				L276.75512,467.80985L277.23518,467.80985L277.23518,468.04988L277.95527,468.04988L277.95527,468.2899L278.43533,468.2899L278.9154,468.2899
				L278.9154,468.52993L279.15543,468.52993L279.15543,469.25L279.15543,469.73006L279.39546,469.73006L279.39546,470.21011L279.63549,470.21011
				L279.63549,470.93018L279.87552,470.93018L279.87552,471.41023L280.11555,471.41023L280.11555,471.65026L279.87552,471.65026
				L280.11555,471.65026L280.11555,472.13031L280.35558,472.13031L280.35558,472.61036L280.59561,472.61036L280.59561,473.33044
				L280.83564,473.33044L280.83564,473.81049L281.07567,473.81049L281.07567,474.05052L280.83564,474.05052L280.83564,474.53057
				L280.59561,474.53057L280.59561,474.77059L280.11555,474.77059L280.11555,475.01062L279.39546,475.01062L279.39546,475.25064
				L279.15543,475.25064L278.67537,475.25064L278.67537,475.49067L278.1953,475.49067L278.1953,475.73069L277.71524,475.73069L277.71524,475.97072
				L278.1953,475.97072L278.1953,476.21075L278.43533,476.21075L278.43533,476.45077L278.67537,476.45077L278.67537,476.6908L279.15543,476.6908
				L279.15543,476.93082L279.63549,476.93082L279.63549,477.17085L282.51585,477.17085L282.51585,476.93082L283.23594,476.93082
				L283.23594,476.6908L285.15619,476.6908L285.15619,476.93082L287.55649,476.93082L287.55649,477.17085L288.27658,477.17085L288.27658,477.41087
				L288.99668,477.41087L288.99668,477.6509L289.71677,477.6509L289.71677,477.89092L290.67689,477.89092L290.67689,478.13095L291.87704,478.13095
				L291.87704,477.89092L292.3571,477.89092L292.3571,477.6509L292.83716,477.6509L292.83716,477.41087L293.31722,477.41087L293.31722,477.17085
				L294.03731,477.17085L294.03731,476.93082L294.51738,476.93082L294.51738,476.6908L295.23747,476.6908L295.23747,476.45077L295.95756,476.45077
				L295.95756,476.21075L296.43762,476.21075L296.43762,475.97072L296.91768,475.97072L296.91768,475.73069L297.63777,475.73069
				L297.63777,475.97072L298.35786,475.97072L298.35786,476.21075L299.79805,476.21075L299.79805,475.97072L303.63853,475.97072
				L303.63853,476.21075L304.35862,476.21075L304.35862,476.45077L306.03884,476.45077L306.03884,476.6908L306.75893,476.6908L306.75893,476.93082
				L307.95908,476.93082L307.95908,477.17085L308.43914,477.17085L308.43914,477.41087L310.59942,477.41087L310.59942,477.6509L
				312.99972,477.6509L312.99972,477.89092L316.84021,477.89092L316.84021,478.13095L317.5603,478.13095L317.5603,478.37098L318.04036,478.37098
				L318.04036,478.611L318.76045,478.611L319.24051,478.611L319.24051,478.85103L319.72057,478.85103L319.72057,479.09105L319.9606,479.09105
				L319.9606,479.33108L320.6807,479.33108L320.6807,479.5711L320.92073,479.5711L320.92073,479.81113L321.40079,479.81113L321.40079,480.05116
				L322.12088,480.05116L322.12088,480.29118L322.60094,480.29118L322.60094,480.53121L323.32103,480.53121L323.32103,480.77123
				L323.56106,480.77123L323.56106,481.01126L323.56106,481.25128L323.80109,481.25128L323.80109,481.49131L324.04112,481.49131
				L324.04112,481.73133L325.00124,481.73133L325.00124,481.49131L325.48131,481.49131L325.48131,481.25128L325.72134,481.25128
				L325.72134,481.01126L325.96137,481.01126L325.96137,480.77123L326.2014,480.77123L326.2014,480.53121L326.68146,480.53121L326.68146,480.29118
				L326.92149,480.29118L326.92149,480.05116L327.16152,480.05116L327.16152,479.81113L327.40155,479.81113L327.40155,479.5711L
				327.64158,479.5711L327.64158,479.33108L328.12164,479.33108L328.12164,479.09105L328.36167,479.09105L328.36167,478.85103L328.84173,478.85103
				L328.84173,478.611L329.08176,478.611L329.56182,478.611L329.56182,478.37098L329.80185,478.37098L329.80185,478.13095L330.28191,478.13095
				L330.28191,477.89092L330.28191,477.6509L330.52194,477.6509L330.52194,477.41087L331.00201,477.41087L331.00201,477.17085L331.48207,477.17085
				L331.48207,476.93082L331.7221,476.93082L331.7221,476.6908L332.20216,476.6908L332.20216,476.45077L332.44219,476.45077L332.44219,476.21075
				L332.68222,476.21075L332.68222,475.97072L333.16228,475.97072L333.16228,475.73069L333.40231,475.73069L333.40231,475.49067
				L333.64234,475.49067L333.64234,475.25064L333.88237,475.25064L334.36243,475.25064L334.36243,475.01062L334.60246,475.01062
				L334.60246,474.77059L335.08252,474.77059L335.08252,474.53057L335.32255,474.53057L335.32255,474.29054L335.80261,474.29054
				L335.80261,474.05052L336.04265,474.05052L336.04265,473.81049L336.52271,473.81049L336.52271,473.57046L337.00277,473.57046
				L337.00277,473.09041L337.00277,472.85039L337.2428,472.85039L337.2428,472.61036L337.72286,472.61036L337.72286,472.37034L340.84325,472.37034
				L340.84325,472.61036L341.56335,472.61036L341.56335,472.85039L342.04341,472.85039L342.04341,473.09041L342.7635,473.09041L
				342.7635,473.33044L343.00353,473.33044L343.00353,473.09041L343.24356,473.09041L343.24356,472.85039L343.48359,472.85039L343.48359,472.61036
				L343.72362,472.61036L343.72362,472.37034L343.96365,472.37034L343.96365,472.13031L343.96365,471.89029L344.20368,471.89029
				L344.20368,471.65026L344.44371,471.65026L344.68374,471.65026L344.68374,471.41023L344.92377,471.41023L344.92377,471.17021
				L345.1638,471.17021L345.1638,470.93018L345.64386,470.93018L345.64386,470.69016L346.60399,470.69016L346.60399,470.93018L346.36396,470.93018
				L346.36396,471.17021L346.60399,471.17021L346.60399,471.41023L346.84402,471.41023L346.84402,471.65026L347.08405,471.65026
				L347.32408,471.65026L347.32408,471.89029L347.32408,472.13031L347.56411,472.13031L347.56411,472.37034L348.04417,472.37034
				L348.04417,472.61036L348.2842,472.61036L348.2842,473.57046L348.04417,473.57046L348.04417,475.25064L348.2842,475.25064L348.52423,475.25064
				L348.52423,475.49067L348.76426,475.49067L348.76426,475.73069L349.00429,475.73069L349.00429,475.97072L349.24432,475.97072
				L349.24432,476.21075L349.48435,476.21075L349.48435,476.6908L349.72438,476.6908L349.72438,476.93082L349.96441,476.93082L349.96441,477.17085
				L350.20444,477.17085L350.20444,477.41087L350.44447,477.41087L350.44447,477.6509L350.6845,477.6509L350.6845,477.89092L350.6845,478.13095
				L350.92453,478.13095L350.92453,478.37098L351.16456,478.37098L351.16456,478.611L351.40459,478.611L351.40459,478.85103L351.64463,478.85103
				L351.64463,479.09105L352.12469,479.09105L352.12469,479.33108L352.36472,479.33108L352.36472,479.5711L352.60475,479.5711L352.60475,479.81113
				L352.84478,479.81113L352.84478,480.05116L353.08481,480.05116L353.08481,480.29118L353.56487,480.29118L353.56487,480.53121
				L353.32484,480.53121L353.32484,480.77123L352.84478,480.77123L352.84478,481.01126L352.60475,481.01126L352.60475,480.77123
				L350.92453,480.77123L350.92453,481.01126L350.6845,481.01126L350.6845,481.25128L350.20444,481.25128L350.20444,481.49131L349.72438,481.49131
				L349.72438,481.73133L349.48435,481.73133L349.48435,481.97136L349.24432,481.97136L349.00429,481.97136L349.00429,482.21139
				L348.76426,482.21139L348.76426,482.45141L348.52423,482.45141L348.52423,482.69144L348.2842,482.69144L348.2842,483.41151L348.04417,483.41151
				L348.04417,483.65154L347.80414,483.65154L347.80414,483.89156L347.32408,483.89156L347.32408,484.13159L347.08405,484.13159
				L347.08405,484.37162L346.84402,484.37162L346.84402,484.61164L346.36396,484.61164L346.36396,484.85167L346.12392,484.85167
				L346.12392,484.37162L345.88389,484.37162L345.88389,484.13159L345.64386,484.13159L345.64386,483.65154L345.40383,483.65154
				L345.40383,483.17149L345.1638,483.17149L345.1638,482.93146L343.96365,482.93146L343.96365,482.69144L343.72362,482.69144L343.72362,482.21139
				L343.48359,482.21139L343.48359,481.97136L343.24356,481.97136L343.24356,481.25128L343.00353,481.25128L343.00353,480.77123
				L342.7635,480.77123L342.7635,480.29118L342.52347,480.29118L342.52347,479.81113L342.28344,479.81113L342.28344,479.5711L342.04341,479.5711
				L342.04341,479.09105L341.80338,479.09105L341.80338,478.85103L341.56335,478.85103L341.56335,478.611L341.32332,478.611L341.08328,478.611
				L341.08328,478.13095L340.84325,478.13095L340.84325,477.89092L340.60322,477.89092L340.60322,478.13095L340.12316,478.13095
				L340.12316,478.37098L339.6431,478.37098L339.6431,478.611L339.40307,478.611L339.40307,478.85103L339.16304,478.85103L339.16304,479.09105
				L338.92301,479.09105L338.92301,479.33108L338.68298,479.33108L338.68298,479.81113L338.44295,479.81113L338.44295,480.05116
				L338.20292,480.05116L338.20292,480.29118L337.96289,480.29118L337.96289,480.53121L337.72286,480.53121L337.72286,481.01126
				L337.48283,481.01126L337.48283,481.25128L337.2428,481.25128L337.2428,481.49131L337.00277,481.49131L337.00277,481.73133L337.00277,481.97136
				L336.76274,481.97136L336.76274,482.21139L336.52271,482.21139L336.52271,482.45141L336.28268,482.45141L336.28268,482.69144
				L336.04265,482.69144L336.04265,483.17149L335.80261,483.17149L335.80261,483.41151L335.56258,483.41151L335.56258,483.65154
				L335.32255,483.65154L335.32255,483.89156L335.08252,483.89156L335.08252,484.37162L334.84249,484.37162L334.84249,484.61164
				L334.60246,484.61164L334.60246,484.85167L334.36243,484.85167L334.36243,485.09169L334.1224,485.09169L334.1224,485.33172L333.88237,485.33172
				L333.88237,485.57174L333.64234,485.57174L333.64234,485.81177L333.64234,486.05179L333.40231,486.05179L333.40231,486.29182
				L333.16228,486.29182L333.16228,486.77187L332.92225,486.77187L332.92225,487.0119L332.68222,487.0119L332.68222,487.25192L332.44219,487.25192
				L332.44219,487.49195L332.20216,487.49195L332.20216,487.73197L331.96213,487.73197L331.96213,487.972L331.7221,487.972L331.7221,488.45205
				L331.48207,488.45205L331.48207,488.69208L331.24204,488.69208L331.00201,488.69208L331.00201,488.9321L330.76198,488.9321L330.76198,489.17213
				"/>
			<path clip-path="url(#SVG_CP_2)" fill="none" stroke="#999999" stroke-width="0.96012" stroke-miterlimit="10" stroke-linecap="round" stroke-linejoin="round" d="
				M330.76198,489.17213L330.52194,489.17213L330.52194,489.65218L330.28191,489.65218L330.28191,489.8922L330.28191,490.13223L
				330.04188,490.13223L330.04188,490.37225L329.80185,490.37225L329.80185,490.61228L329.56182,490.61228L329.56182,491.09233L
				329.32179,491.09233L329.32179,491.33236L329.08176,491.33236L329.08176,491.57238L328.84173,491.57238L328.84173,491.81241L
				328.6017,491.81241L328.6017,492.05243L328.36167,492.05243L328.36167,492.29246L328.12164,492.29246L328.12164,492.53249L327.88161,492.53249
				L327.88161,492.77251L327.64158,492.77251L327.64158,493.01254L327.40155,493.01254L327.40155,493.25256L326.92149,493.25256
				L326.92149,493.49259L326.92149,493.73261L326.68146,493.73261L326.68146,493.97264L326.44143,493.97264L326.44143,494.21266
				L325.96137,494.21266L325.96137,494.45269L325.72134,494.45269L325.72134,494.69272L325.48131,494.69272L325.48131,494.93274
				L325.24127,494.93274L325.24127,495.17277L324.76121,495.17277L324.76121,495.41279L324.52118,495.41279L324.52118,495.65282
				L324.28115,495.65282L324.04112,495.65282L324.04112,495.89284L323.80109,495.89284L323.80109,496.13287L323.56106,496.13287
				L323.56106,496.37289L323.32103,496.37289L323.32103,496.61292L321.88085,496.61292L321.88085,496.37289L320.20063,496.37289
				L320.20063,496.13287L319.9606,496.13287L319.9606,495.65282L319.9606,495.17277L319.72057,495.17277L319.72057,494.69272L319.48054,494.69272
				L319.48054,493.97264L319.24051,493.97264L319.24051,493.49259L319.00048,493.49259L319.00048,490.61228L318.76045,490.61228
				L318.76045,490.37225L318.52042,490.37225L318.52042,489.8922L318.28039,489.8922L318.28039,489.41215L318.04036,489.41215L318.04036,489.17213
				L317.80033,489.17213L317.80033,488.69208L317.5603,488.69208L317.5603,488.45205L317.32027,488.45205L317.32027,488.21202L317.08024,488.21202
				L317.08024,487.73197L316.84021,487.73197L316.84021,487.25192L316.36015,487.25192L316.36015,487.49195L316.12012,487.49195
				L316.12012,487.73197L315.88009,487.73197L315.88009,487.972L315.40003,487.972L315.40003,488.21202L315.16,488.21202L315.16,488.45205
				L314.91996,488.45205L314.91996,488.69208L314.4399,488.69208L314.19987,488.69208L314.19987,488.9321L313.95984,488.9321L313.95984,489.17213
				L313.47978,489.17213L313.47978,489.41215L313.23975,489.41215L313.23975,489.65218L313.23975,489.8922L312.75969,489.8922L312.75969,490.13223
				L312.51966,490.13223L312.51966,490.37225L312.27963,490.37225L312.27963,490.61228L311.79957,490.61228L311.79957,490.85231
				L311.55954,490.85231L311.55954,491.09233L311.31951,491.09233L311.31951,491.33236L310.35939,491.33236L310.35939,491.09233
				L309.87933,491.09233L309.87933,490.85231L309.87933,490.61228L309.39926,490.61228L309.39926,490.37225L308.9192,490.37225L
				308.9192,490.13223L307.95908,490.13223L307.95908,489.8922L306.99896,489.8922L306.99896,489.65218L304.35862,489.65218L304.35862,489.41215
				L302.19835,489.41215L302.19835,489.65218L301.47826,489.65218L301.47826,489.8922L300.75817,489.8922L300.75817,490.13223L300.03808,490.13223
				L300.03808,490.37225L299.55802,490.37225L299.55802,490.61228L298.83792,490.61228L298.83792,490.85231L298.11783,490.85231
				L298.11783,491.09233L297.39774,491.09233L297.39774,491.33236L296.67765,491.33236L296.67765,491.57238L296.19759,491.57238
				L296.19759,491.81241L295.71753,491.81241L295.71753,492.05243L294.99744,492.05243L294.99744,492.29246L294.51738,492.29246
				L293.79728,492.29246L293.79728,492.53249L293.31722,492.53249L293.31722,492.77251L292.83716,492.77251L292.83716,493.01254
				L292.3571,493.01254L292.3571,493.25256L291.63701,493.25256L291.63701,493.49259L291.15695,493.49259L291.15695,493.73261L290.67689,493.73261
				L290.67689,493.97264L290.43686,493.97264L290.43686,494.21266L290.19683,494.21266L290.19683,494.45269L289.9568,494.45269L
				289.9568,494.69272L289.71677,494.69272L289.71677,494.93274L289.47674,494.93274L289.47674,495.17277L289.47674,495.41279L289.23671,495.41279
				L289.23671,495.65282L288.99668,495.65282L288.75664,495.65282L288.75664,495.89284L288.51661,495.89284L288.51661,496.37289
				L288.27658,496.37289L288.27658,496.61292L288.03655,496.61292L288.03655,496.85295L287.79652,496.85295L287.79652,497.09297
				L287.55649,497.09297L287.55649,497.333L287.31646,497.333L287.31646,497.57302L287.07643,497.57302L287.07643,497.81305L286.8364,497.81305
				L286.8364,498.05307L286.59637,498.05307L286.59637,498.2931L286.35634,498.2931L286.35634,498.53312L286.11631,498.53312L286.11631,499.01318
				L285.87628,499.01318L285.87628,499.2532L285.63625,499.2532L285.63625,499.49323L285.39622,499.49323L285.39622,499.73325L285.15619,499.73325
				L285.15619,499.97328L284.91616,499.97328L284.91616,500.2133L284.67613,500.2133L284.67613,500.45333L284.4361,500.45333L284.4361,500.69335
				L284.19607,500.69335L284.19607,500.93338L283.95604,500.93338L283.95604,501.41343L283.716,501.41343L283.716,501.65346L283.47597,501.65346
				L283.47597,501.89348L283.23594,501.89348L283.23594,502.13351L282.75588,502.13351L282.75588,502.37353L282.51585,502.37353
				L282.27582,502.37353L282.27582,502.61356L281.79576,502.61356L281.79576,502.85359L281.55573,502.85359L281.55573,503.09361
				L281.07567,503.09361L281.07567,503.33364"/>
			<path clip-path="url(#SVG_CP_2)" fill="none" stroke="#999999" stroke-width="0.96012" stroke-miterlimit="10" stroke-linecap="round" stroke-linejoin="round" d="
				M281.3157,503.81369L281.07567,503.81369L281.07567,503.33364L281.55573,503.33364L281.55573,503.09361L281.79576,503.09361L
				281.79576,503.57366L281.3157,503.57366L281.3157,503.81369"/>
			<path clip-path="url(#SVG_CP_2)" fill="none" stroke="#999999" stroke-width="0.96012" stroke-miterlimit="10" stroke-linecap="round" stroke-linejoin="round" d="
				M281.55573,504.29374L281.3157,504.29374L281.3157,503.81369L281.79576,503.81369L281.79576,503.57366L282.03579,503.57366L282.03579,504.05371
				L281.55573,504.05371L281.55573,504.29374"/>
			<path clip-path="url(#SVG_CP_2)" fill="none" stroke="#999999" stroke-width="0.96012" stroke-miterlimit="10" stroke-linecap="round" stroke-linejoin="round" d="
				M282.03579,504.05371L282.27582,504.05371L282.27582,504.29374L282.03579,504.29374L282.03579,504.05371"/>
			<path clip-path="url(#SVG_CP_2)" fill="none" stroke="#999999" stroke-width="0.96012" stroke-miterlimit="10" stroke-linecap="round" stroke-linejoin="round" d="
				M281.79576,504.53376L281.55573,504.53376L281.55573,504.29374L281.79576,504.29374L281.79576,504.53376"/>
			<path clip-path="url(#SVG_CP_2)" fill="none" stroke="#999999" stroke-width="0.96012" stroke-miterlimit="10" stroke-linecap="round" stroke-linejoin="round" d="
				M282.03579,505.01382L281.79576,505.01382L281.79576,504.53376L282.51585,504.53376L282.51585,504.77379L282.03579,504.77379
				L282.03579,505.01382"/>
			<path clip-path="url(#SVG_CP_2)" fill="none" stroke="#999999" stroke-width="0.96012" stroke-miterlimit="10" stroke-linecap="round" stroke-linejoin="round" d="
				M282.27582,505.49387L282.03579,505.49387L282.03579,505.01382L282.51585,505.01382L282.51585,505.25384L282.27582,505.25384
				L282.27582,505.49387"/>
			<path clip-path="url(#SVG_CP_2)" fill="none" stroke="#999999" stroke-width="0.96012" stroke-miterlimit="10" stroke-linecap="round" stroke-linejoin="round" d="
				M282.51585,505.73389L282.27582,505.73389L282.27582,505.49387L282.51585,505.49387L282.51585,505.25384L282.75588,505.25384
				L282.75588,505.73389L282.51585,505.73389L282.51585,505.73389"/>
			<path clip-path="url(#SVG_CP_2)" fill="none" stroke="#999999" stroke-width="0.96012" stroke-miterlimit="10" stroke-linecap="round" stroke-linejoin="round" d="
				M282.51585,506.21394L282.51585,505.73389L282.75588,505.73389L282.99591,505.73389L282.99591,505.97392L282.51585,505.97392
				L282.51585,506.21394"/>
			<path clip-path="url(#SVG_CP_2)" fill="none" stroke="#999999" stroke-width="0.96012" stroke-miterlimit="10" stroke-linecap="round" stroke-linejoin="round" d="
				M283.23594,506.21394L282.99591,506.21394L282.99591,505.97392L283.23594,505.97392L283.23594,506.21394"/>
			<path clip-path="url(#SVG_CP_2)" fill="none" stroke="#999999" stroke-width="0.96012" stroke-miterlimit="10" stroke-linecap="round" stroke-linejoin="round" d="
				M282.75588,506.45397L282.51585,506.45397L282.51585,506.21394L282.75588,506.21394L282.75588,506.45397"/>
			<path clip-path="url(#SVG_CP_2)" fill="none" stroke="#999999" stroke-width="0.96012" stroke-miterlimit="10" stroke-linecap="round" stroke-linejoin="round" d="
				M206.90626,568.86062L206.90626,569.10064L206.66623,569.10064L206.66623,568.86062L206.90626,568.86062"/>
			<path clip-path="url(#SVG_CP_2)" fill="none" stroke="#999999" stroke-width="0.96012" stroke-miterlimit="10" stroke-linecap="round" stroke-linejoin="round" d="
				M216.26745,574.86126L216.02742,574.86126L216.02742,574.62123L215.54735,574.62123L215.54735,574.38121L215.30732,574.38121
				L215.30732,574.14118L215.06729,574.14118L214.58723,574.14118L214.58723,573.90116L214.3472,573.90116L214.3472,573.66113L214.3472,573.4211
				L214.10717,573.4211L214.10717,573.18108L213.86714,573.18108L213.86714,572.94105L213.38708,572.94105L213.38708,572.70103L
				213.14705,572.70103L213.14705,572.461L212.90702,572.461L212.90702,572.22098L212.66699,572.22098L212.66699,571.98095L212.18693,571.98095
				L212.18693,571.74093L211.9469,571.74093L211.9469,571.5009L211.70687,571.5009L211.70687,571.26087L211.46684,571.26087L211.46684,571.02085
				L211.22681,571.02085L211.22681,570.5408L210.98678,570.5408L210.98678,570.06075L210.98678,569.82072L210.74674,569.82072L210.74674,569.34067
				L210.50671,569.34067L210.50671,568.86062L210.26668,568.86062L210.26668,568.38057L210.02665,568.38057L210.02665,568.14054
				L209.78662,568.14054L209.78662,567.90052L208.8265,567.90052L208.8265,568.14054L208.34644,568.14054L208.34644,568.38057L207.62635,568.38057
				L207.62635,568.62059L207.38632,568.62059L207.38632,568.86062L206.90626,568.86062L206.90626,568.62059L207.14629,568.62059
				L207.14629,568.14054L207.38632,568.14054L207.38632,567.66049L207.62635,567.66049L207.62635,567.18044L207.62635,566.94041
				L207.86638,566.94041L207.86638,566.70039L208.10641,566.70039L208.10641,566.22034L208.34644,566.22034L208.34644,565.74029
				L208.58647,565.74029L208.58647,565.26024L208.8265,565.26024L208.8265,564.78018L209.06653,564.78018L209.06653,565.02021L209.30656,565.02021
				L209.30656,565.26024L209.54659,565.26024L209.54659,565.74029L209.78662,565.74029L209.78662,565.98031L210.02665,565.98031
				L210.02665,566.46036L210.26668,566.46036L210.26668,566.70039L210.50671,566.70039L210.50671,566.94041L210.74674,566.94041
				L210.74674,567.18044L210.98678,567.18044L210.98678,567.42047L210.98678,567.66049L211.22681,567.66049L211.22681,568.14054
				L211.46684,568.14054L211.46684,568.38057L211.70687,568.38057L211.70687,568.62059L211.9469,568.62059L211.9469,569.10064L212.18693,569.10064
				L212.18693,569.34067L212.42696,569.34067L212.42696,569.5807L212.66699,569.5807L212.66699,570.06075L212.90702,570.06075L212.90702,570.30077
				L213.14705,570.30077L213.14705,570.5408L213.38708,570.5408L213.38708,570.78082L213.62711,570.78082L213.62711,571.02085L213.86714,571.02085
				L213.86714,571.5009L214.10717,571.5009L214.10717,571.74093L214.3472,571.74093L214.3472,571.98095L214.3472,572.461L214.58723,572.461
				L214.58723,572.70103L214.82726,572.70103L214.82726,572.94105L215.06729,572.94105L215.06729,573.4211L215.30732,573.4211L215.30732,573.66113
				L215.54735,573.66113L215.54735,574.14118L215.78738,574.14118L216.02742,574.14118L216.02742,574.38121L216.26745,574.38121
				L216.26745,574.86126"/>
			<path clip-path="url(#SVG_CP_2)" fill="none" stroke="#999999" stroke-width="0.96012" stroke-miterlimit="10" stroke-linecap="round" stroke-linejoin="round" d="
				M216.50748,575.10128L216.26745,575.10128L216.26745,574.86126L216.50748,574.86126L216.50748,575.10128"/>
			<path clip-path="url(#SVG_CP_2)" fill="none" stroke="#999999" stroke-width="0.96012" stroke-miterlimit="10" stroke-linecap="round" stroke-linejoin="round" d="
				M216.50748,575.10128L216.74751,575.10128L216.74751,575.34131L216.50748,575.34131L216.50748,575.10128"/>
			<path clip-path="url(#SVG_CP_2)" fill="none" stroke="#999999" stroke-width="0.96012" stroke-miterlimit="10" stroke-linecap="round" stroke-linejoin="round" d="
				M249.15162,577.50154L248.91159,577.50154L248.91159,577.26151L248.67156,577.26151L248.67156,577.02149L248.43153,577.02149
				L248.43153,576.54144L248.43153,576.30141L248.1915,576.30141L248.1915,576.06139L247.95147,576.06139L247.95147,575.82136L247.71144,575.82136
				L247.71144,575.58133L247.47141,575.58133L247.47141,575.34131L247.23137,575.34131L247.23137,575.10128L246.99134,575.10128
				L246.99134,575.34131L246.75131,575.34131L246.75131,575.82136L246.27125,575.82136L246.27125,576.06139L246.03122,576.06139
				L246.03122,576.30141L245.79119,576.30141L245.79119,576.54144L245.55116,576.54144L245.55116,574.86126L244.35101,574.86126
				L244.35101,572.94105L244.59104,572.94105L244.59104,572.70103L245.0711,572.70103L245.0711,572.461L245.55116,572.461L245.55116,572.22098
				L246.03122,572.22098L246.03122,572.461L248.67156,572.461L248.67156,573.18108L248.91159,573.18108L248.91159,577.02149L249.15162,577.02149
				L249.15162,577.50154"/>
			<path clip-path="url(#SVG_CP_2)" fill="none" stroke="#999999" stroke-width="0.96012" stroke-miterlimit="10" stroke-linecap="round" stroke-linejoin="round" d="
				M224.66851,577.74157L224.66851,577.50154L224.66851,577.74157"/>
			<path clip-path="url(#SVG_CP_2)" fill="none" stroke="#999999" stroke-width="0.96012" stroke-miterlimit="10" stroke-linecap="round" stroke-linejoin="round" d="
				M237.63016,580.38185L237.39013,580.38185L237.39013,579.9018L237.63016,579.9018L237.63016,579.18172L237.87019,579.18172L237.87019,578.46164
				L238.11022,578.46164L238.11022,577.50154L238.35025,577.50154L238.35025,577.02149L238.35025,576.30141L238.59028,576.30141
				L238.59028,575.34131L238.83031,575.34131L238.83031,574.62123L239.07034,574.62123L239.07034,574.14118L239.31037,574.14118
				L239.31037,573.4211L239.79043,573.4211L239.79043,573.66113L240.99058,573.66113L240.99058,573.90116L241.9507,573.90116L241.9507,574.14118
				L243.15086,574.14118L243.39089,574.14118L243.39089,574.38121L243.15086,574.38121L243.15086,576.06139L242.6708,576.06139L
				242.6708,575.82136L242.43077,575.82136L242.43077,575.58133L242.19074,575.58133L242.19074,575.34131L241.9507,575.34131L241.9507,575.10128
				L241.71067,575.10128L241.71067,574.86126L241.23061,574.86126L241.23061,575.10128L240.75055,575.10128L240.75055,575.58133
				L240.51052,575.58133L240.51052,576.06139L240.27049,576.06139L240.27049,576.30141L240.03046,576.30141L240.03046,576.78146
				L239.79043,576.78146L239.79043,577.26151L239.5504,577.26151L239.5504,577.50154L239.31037,577.50154L239.31037,577.74157L239.07034,577.74157
				L239.07034,578.22162L238.83031,578.22162L238.83031,578.46164L238.59028,578.46164L238.59028,578.70167L238.35025,578.70167
				L238.35025,579.42174L238.35025,579.66177L238.11022,579.66177L238.11022,579.9018L237.87019,579.9018L237.87019,580.14182L237.63016,580.14182
				L237.63016,580.38185"/>
			<path clip-path="url(#SVG_CP_2)" fill="none" stroke="#999999" stroke-width="0.96012" stroke-miterlimit="10" stroke-linecap="round" stroke-linejoin="round" d="
				M282.75588,506.45397L283.23594,506.45397L283.23594,506.21394L283.47597,506.21394L283.47597,505.97392L283.95604,505.97392
				L283.95604,505.73389L284.19607,505.73389L284.4361,505.73389L284.4361,505.49387L284.67613,505.49387L284.67613,505.25384L284.91616,505.25384
				L284.91616,505.01382L285.39622,505.01382L285.39622,504.77379L285.63625,504.77379L285.63625,504.53376L285.87628,504.53376
				L285.87628,504.29374L285.87628,504.05371L286.11631,504.05371L286.11631,503.81369L286.35634,503.81369L286.35634,503.57366
				L286.59637,503.57366L286.59637,503.33364L286.8364,503.33364L286.8364,503.09361L287.07643,503.09361L287.07643,502.85359L287.31646,502.85359
				L287.31646,502.61356L287.55649,502.61356L287.55649,502.37353L287.79652,502.37353L288.03655,502.37353L288.03655,502.13351
				L288.27658,502.13351L288.27658,501.65346L288.51661,501.65346L288.51661,501.41343L288.75664,501.41343L288.75664,501.17341
				L288.99668,501.17341L288.99668,500.93338L289.23671,500.93338L289.23671,500.69335L289.47674,500.69335L289.47674,500.45333
				L289.47674,500.2133L289.71677,500.2133L289.71677,499.97328L289.9568,499.97328L289.9568,499.73325L290.19683,499.73325L290.19683,499.49323
				L290.43686,499.49323L290.43686,499.2532L290.67689,499.2532L290.67689,499.01318L290.91692,499.01318L291.15695,499.01318L291.15695,498.77315
				L291.39698,498.77315L291.39698,498.53312L291.63701,498.53312L291.63701,498.2931L291.87704,498.2931L291.87704,498.05307L292.11707,498.05307
				L292.11707,497.81305L292.3571,497.81305L292.3571,497.57302L292.59713,497.57302L292.59713,497.333L292.83716,497.333L292.83716,497.09297
				L292.83716,496.85295L293.07719,496.85295L293.07719,496.61292L293.31722,496.61292L293.31722,496.37289L293.55725,496.37289
				L293.55725,496.13287L293.79728,496.13287L293.79728,495.89284L294.03731,495.89284L294.03731,495.65282L294.27735,495.65282
				L294.75741,495.65282L294.75741,495.41279L295.4775,495.41279L295.4775,495.17277L295.95756,495.17277L295.95756,494.93274L296.19759,494.93274
				L296.19759,494.69272L296.91768,494.69272L296.91768,494.45269L297.39774,494.45269L297.39774,494.21266L298.11783,494.21266
				L298.11783,493.97264L298.83792,493.97264L298.83792,493.73261L300.9982,493.73261L300.9982,493.49259L306.03884,493.49259L306.03884,493.73261
				L308.67917,493.73261L308.67917,493.97264L311.31951,493.97264L311.31951,494.21266L313.71981,494.21266L313.71981,493.97264
				L315.88009,493.97264L315.88009,494.21266L316.12012,494.21266L316.12012,494.45269L316.36015,494.45269L316.36015,495.41279
				L316.60018,495.41279L316.60018,496.13287L316.60018,496.37289L316.84021,496.37289L316.84021,496.61292L317.08024,496.61292
				L317.08024,496.85295L317.32027,496.85295L317.32027,497.333L317.5603,497.333L317.5603,497.57302L317.80033,497.57302L317.80033,497.81305
				L318.04036,497.81305L318.04036,498.05307L318.28039,498.05307L318.28039,498.2931L318.52042,498.2931L318.52042,498.53312L318.76045,498.53312
				L318.76045,498.77315L319.00048,498.77315L319.00048,499.01318L319.24051,499.01318L319.48054,499.01318L319.48054,499.2532L
				321.64082,499.2532L321.64082,499.01318L322.84097,499.01318L323.80109,499.01318L323.80109,498.77315L324.76121,498.77315L324.76121,498.53312
				L325.96137,498.53312L325.96137,498.2931L326.68146,498.2931L326.68146,498.53312L328.6017,498.53312L328.6017,498.77315L329.32179,498.77315
				L329.32179,499.01318L330.04188,499.01318L330.76198,499.01318L330.76198,499.2532L331.48207,499.2532L331.48207,499.49323L331.96213,499.49323
				L331.96213,499.73325L332.44219,499.73325L332.44219,499.97328L332.92225,499.97328L332.92225,500.2133L333.16228,500.2133L333.16228,500.45333
				L333.64234,500.45333L333.64234,500.69335L333.88237,500.69335L333.88237,500.93338L334.36243,500.93338L334.36243,501.17341
				L334.84249,501.17341L334.84249,501.41343L335.08252,501.41343L335.08252,501.65346L335.32255,501.65346L335.32255,501.89348
				L335.80261,501.89348L335.80261,502.13351L336.04265,502.13351L336.04265,501.89348L336.28268,501.89348L336.28268,501.65346
				L336.76274,501.65346L336.76274,501.41343L337.00277,501.41343L337.00277,501.17341L337.2428,501.17341L337.2428,500.69335L337.48283,500.69335
				L337.48283,500.45333L337.72286,500.45333L337.72286,500.2133L337.96289,500.2133L337.96289,499.97328L338.20292,499.97328L338.20292,499.73325
				L338.44295,499.73325L338.44295,499.49323L338.68298,499.49323L338.68298,499.01318L338.92301,499.01318L339.16304,499.01318
				L339.16304,498.77315L339.40307,498.77315L339.40307,498.53312L339.6431,498.53312L339.6431,498.2931L339.88313,498.2931L339.88313,498.05307
				L340.12316,498.05307L340.12316,497.57302L340.36319,497.57302L340.36319,497.333L340.60322,497.333L340.60322,497.09297L340.60322,496.85295
				L340.84325,496.85295L340.84325,496.61292L341.08328,496.61292L341.08328,496.37289L341.32332,496.37289L341.32332,496.13287
				L341.56335,496.13287L341.56335,495.89284L341.80338,495.89284L341.80338,495.65282L342.04341,495.65282L342.28344,495.65282
				L342.28344,495.41279L342.52347,495.41279L342.52347,494.93274L342.7635,494.93274L342.7635,494.69272L343.00353,494.69272L343.00353,494.45269
				L343.72362,494.45269L343.72362,494.21266L344.44371,494.21266L344.44371,494.45269L344.68374,494.45269L344.68374,494.69272
				L345.1638,494.69272L345.1638,494.93274L345.40383,494.93274L345.40383,495.17277L345.64386,495.17277L345.64386,495.41279L346.12392,495.41279
				L346.12392,495.65282L346.36396,495.65282L346.60399,495.65282L346.60399,495.89284L347.08405,495.89284L347.08405,496.13287
				L347.32408,496.13287L347.32408,496.37289L347.32408,496.61292L348.52423,496.61292L348.52423,496.37289L349.48435,496.37289
				L349.48435,496.13287L350.20444,496.13287L350.20444,495.89284L350.6845,495.89284L350.6845,495.65282L351.40459,495.65282L351.64463,495.65282
				L351.64463,495.17277L351.88466,495.17277L351.88466,494.93274L352.12469,494.93274L352.12469,494.69272L352.36472,494.69272
				L352.36472,494.45269L352.60475,494.45269L352.60475,494.21266L352.84478,494.21266L352.84478,493.97264L353.08481,493.97264
				L353.08481,493.73261L353.32484,493.73261L353.32484,493.49259L353.56487,493.49259L353.56487,493.01254L353.8049,493.01254L
				353.8049,492.77251L354.04493,492.77251L354.04493,492.53249L354.28496,492.53249L354.28496,492.29246L354.52499,492.29246L354.52499,492.05243
				L354.76502,492.05243L354.76502,491.81241L355.00505,491.81241L355.00505,491.57238L355.48511,491.57238L355.48511,491.33236
				L355.72514,491.33236L355.72514,491.09233L355.96517,491.09233L355.96517,490.85231L356.2052,490.85231L356.2052,490.61228L356.68526,490.61228
				L356.68526,490.37225L356.9253,490.37225L356.9253,490.13223L357.16533,490.13223L357.16533,489.8922L357.40536,489.8922L357.40536,489.65218
				L357.64539,489.65218L357.64539,489.41215L357.88542,489.41215L357.88542,489.17213L358.12545,489.17213L358.12545,488.9321L
				358.36548,488.9321L358.36548,488.69208L358.60551,488.69208L359.08557,488.69208L359.08557,488.45205L359.3256,488.45205L359.3256,488.21202
				L359.56563,488.21202L359.56563,487.972L359.80566,487.972L359.80566,487.73197L360.04569,487.73197L360.04569,487.49195L360.28572,487.49195
				L360.28572,487.972L360.04569,487.972L360.04569,488.69208L359.80566,488.69208L359.80566,488.9321L359.56563,488.9321L359.56563,489.41215
				L359.3256,489.41215L359.3256,489.8922L359.08557,489.8922L359.08557,490.13223L358.84554,490.13223L358.84554,490.85231L358.60551,490.85231
				L358.60551,492.29246L358.84554,492.29246L358.84554,493.25256L359.08557,493.25256L359.08557,493.97264L359.3256,493.97264L
				359.3256,494.93274L359.08557,494.93274L359.08557,496.13287L358.84554,496.13287L358.84554,497.333L358.60551,497.333L358.60551,498.05307
				L358.36548,498.05307L358.36548,498.53312L358.12545,498.53312L358.12545,499.2532L358.36548,499.2532L358.36548,499.97328L358.60551,499.97328
				L358.60551,500.69335L358.84554,500.69335L358.84554,501.17341L359.08557,501.17341L359.08557,501.89348L359.3256,501.89348L
				359.3256,502.37353L359.56563,502.37353L359.56563,503.09361L359.80566,503.09361L359.80566,503.57366L360.04569,503.57366L360.04569,504.53376
				L360.28572,504.53376L360.28572,505.01382L360.52575,505.01382L360.52575,505.73389L360.76578,505.73389L360.76578,506.21394
				L361.00581,506.21394L361.00581,507.17405L361.00581,507.6541L361.24584,507.6541L361.24584,508.37417L361.48587,508.37417L361.48587,509.09425
				L361.7259,509.09425L361.7259,509.5743L361.96594,509.5743L361.96594,510.29438L362.20597,510.29438L362.20597,511.01445L362.446,511.01445
				L362.446,512.45461L362.20597,512.45461L362.20597,512.69463L362.446,512.69463L362.446,513.65474L362.20597,513.65474L362.20597,514.85486
				L361.96594,514.85486L361.96594,516.05499L361.7259,516.05499L361.7259,516.77507L361.48587,516.77507L361.48587,517.25512L361.24584,517.25512
				L361.24584,517.9752L361.00581,517.9752L361.00581,518.69527L361.00581,519.65538L360.76578,519.65538L360.76578,524.21586L361.00581,524.21586
				L361.00581,525.17596L360.76578,525.17596L360.76578,528.2963L360.52575,528.2963L360.52575,529.2564L360.28572,529.2564L360.28572,529.73645
				L360.04569,529.73645L360.04569,530.2165L359.80566,530.2165L359.80566,530.69655L359.56563,530.69655L359.56563,531.41663L359.3256,531.41663
				L359.3256,531.89668L359.08557,531.89668L359.08557,532.61676L358.84554,532.61676L358.84554,533.09681L358.60551,533.09681L
				358.60551,533.33683L358.36548,533.33683L358.36548,533.81688L358.12545,533.81688L358.12545,534.53696L357.88542,534.53696L
				357.88542,535.01701L357.64539,535.01701L357.64539,535.49706L357.64539,535.97711L357.40536,535.97711L357.40536,536.45717L
				357.16533,536.45717L357.16533,536.69719L356.9253,536.69719L356.9253,537.17724L356.68526,537.17724L356.68526,537.65729L356.44523,537.65729
				L356.44523,538.37737L356.2052,538.37737L356.2052,538.85742L355.96517,538.85742L355.96517,539.33747L355.72514,539.33747L355.72514,539.81752
				L355.48511,539.81752L355.48511,540.29758L355.24508,540.29758L355.24508,541.01765L355.00505,541.01765L355.00505,541.73773
				L354.76502,541.73773L354.76502,542.45781L354.52499,542.45781L354.52499,542.93786L354.28496,542.93786L354.28496,543.41791
				L354.28496,543.65793L354.04493,543.65793L354.04493,544.13798L353.8049,544.13798L353.8049,544.61804L353.56487,544.61804L353.56487,545.09809
				L353.32484,545.09809L353.32484,545.57814L353.08481,545.57814L353.08481,546.05819L352.84478,546.05819L352.84478,546.53824
				L352.60475,546.53824L352.60475,547.01829L352.36472,547.01829L352.36472,547.73837L352.12469,547.73837L352.12469,548.45844
				L351.88466,548.45844L351.88466,549.17852L351.64463,549.17852L351.64463,549.65857L351.40459,549.65857L351.40459,550.13862
				L351.16456,550.13862L351.16456,550.61867L350.92453,550.61867L350.92453,551.09873L350.6845,551.09873L350.6845,551.57878L350.6845,551.8188
				L350.6845,552.05883L350.6845,552.77891L350.44447,552.77891L350.44447,553.49898L350.20444,553.49898L350.20444,553.97903L349.96441,553.97903
				L349.96441,554.93914L349.72438,554.93914L349.72438,555.89924L349.48435,555.89924L349.48435,556.61931L349.24432,556.61931
				L349.24432,557.57942L349.48435,557.57942L349.48435,559.49962L349.24432,559.49962L349.24432,560.69975L349.00429,560.69975
				L349.00429,561.41983L348.76426,561.41983L348.76426,562.1399L348.52423,562.1399L348.52423,562.61995L348.2842,562.61995L348.2842,563.1
				L348.04417,563.1L348.04417,563.82008L347.80414,563.82008L347.80414,564.30013L347.56411,564.30013L347.56411,564.78018L347.32408,564.78018
				L347.32408,565.50026L347.32408,565.98031L347.08405,565.98031L347.08405,566.46036L346.84402,566.46036L346.84402,566.94041
				L346.60399,566.94041L346.60399,567.18044L346.36396,567.18044L346.36396,567.90052L346.12392,567.90052L346.12392,568.62059
				L345.88389,568.62059L345.88389,569.34067L345.64386,569.34067L345.64386,570.06075L345.40383,570.06075L345.40383,570.5408L
				345.1638,570.5408L345.1638,571.26087L344.92377,571.26087L344.92377,571.98095L344.68374,571.98095L344.68374,572.461L344.44371,572.461
				L344.44371,573.18108L344.20368,573.18108L344.20368,573.66113L343.96365,573.66113L343.96365,574.14118L343.96365,574.62123
				L343.72362,574.62123L343.72362,575.34131L343.48359,575.34131L343.48359,576.06139L343.24356,576.06139L343.24356,576.54144
				L343.00353,576.54144L343.00353,577.26151L342.7635,577.26151L342.7635,577.50154L342.52347,577.50154L342.52347,577.98159L342.28344,577.98159
				L342.28344,578.70167L342.04341,578.70167L342.04341,579.42174L341.80338,579.42174L341.80338,579.9018L341.56335,579.9018L341.56335,580.62187
				L341.32332,580.62187L341.32332,581.10192L341.08328,581.10192L341.08328,581.58197L340.84325,581.58197L340.84325,582.06203
				L340.60322,582.06203L340.60322,586.62251L340.60322,589.02277L340.36319,589.02277L340.36319,590.94297L340.12316,590.94297
				L340.12316,591.183L339.88313,591.183L339.88313,591.66305L339.6431,591.66305L339.6431,592.38313L339.40307,592.38313L339.40307,592.86318
				L339.16304,592.86318L339.16304,593.58325L338.92301,593.58325L338.92301,594.0633L338.68298,594.0633L338.68298,594.54336L338.44295,594.54336
				L338.44295,595.26343L338.20292,595.26343L338.20292,595.98351L337.96289,595.98351L337.96289,596.70359L337.48283,596.70359
				L337.48283,596.94361L335.08252,596.94361L335.08252,596.70359L333.88237,596.70359L333.88237,596.46356L329.80185,596.46356
				L329.80185,596.22353L328.6017,596.22353L328.6017,596.46356L328.36167,596.46356L328.36167,596.70359L328.12164,596.70359L328.12164,596.94361
				L327.88161,596.94361L327.88161,597.18364L327.64158,597.18364L327.64158,597.42366L327.40155,597.42366L327.40155,597.66369
				L327.16152,597.66369L327.16152,597.90371L326.92149,597.90371L326.92149,598.14374L326.68146,598.14374L326.68146,598.38376
				L326.44143,598.38376L326.44143,598.62379L326.2014,598.62379L326.2014,598.86382L325.96137,598.86382L325.96137,599.10384L325.72134,599.10384
				L325.72134,599.34387L325.48131,599.34387L325.48131,599.58389L325.24127,599.58389L325.24127,599.82392L325.00124,599.82392
				L325.00124,600.06394L324.76121,600.06394L324.76121,600.54399L324.52118,600.54399L324.52118,600.78402L324.04112,600.78402
				L324.04112,601.02405L323.80109,601.02405L323.80109,601.26407L323.56106,601.26407L323.56106,601.5041L323.32103,601.5041L323.32103,601.74412
				L323.081,601.74412L323.081,602.22417L322.84097,602.22417L322.84097,602.4642L322.60094,602.4642L322.60094,602.70423L322.36091,602.70423
				L322.36091,602.94425L322.12088,602.94425L322.12088,603.18428L321.88085,603.18428L321.88085,603.4243L321.40079,603.4243L321.40079,603.66433
				L321.16076,603.66433L321.16076,604.14438L320.92073,604.14438L320.92073,604.3844L320.6807,604.3844L320.6807,604.62443L320.44067,604.62443
				L320.44067,604.86446L320.20063,604.86446L320.20063,605.10448L320.44067,605.10448L320.44067,605.58453L320.20063,605.58453
				L320.20063,606.06458L319.9606,606.06458L319.9606,606.30461L319.9606,606.54463L319.48054,606.54463L319.48054,606.78466L319.24051,606.78466
				L319.24051,607.02469L319.00048,607.02469L319.00048,607.26471L318.76045,607.26471L318.76045,607.50474L318.28039,607.50474
				L318.28039,607.74476L318.04036,607.74476L318.04036,607.98479L317.80033,607.98479L317.80033,608.22481L317.32027,608.22481
				L317.08024,608.22481L317.08024,607.74476L317.32027,607.74476L317.32027,607.26471L317.5603,607.26471L317.5603,607.02469L317.80033,607.02469
				L317.80033,606.54463L318.04036,606.54463L318.04036,606.06458L318.28039,606.06458L318.28039,605.82456L318.52042,605.82456
				L318.52042,605.34451L318.76045,605.34451L318.76045,604.86446L319.00048,604.86446L319.00048,604.62443L319.24051,604.62443
				L319.24051,604.3844L319.48054,604.3844L319.48054,603.90435L319.72057,603.90435L319.72057,603.66433L319.9606,603.66433L319.9606,603.18428
				L319.9606,602.94425L320.20063,602.94425L320.20063,602.70423L320.44067,602.70423L320.44067,602.4642L320.6807,602.4642L320.6807,601.98415
				L320.92073,601.98415L320.92073,601.74412L321.16076,601.74412L321.16076,601.5041L321.40079,601.5041L321.40079,601.26407L321.64082,601.26407
				L321.88085,601.26407L321.88085,601.02405L322.12088,601.02405L322.12088,600.78402L322.36091,600.78402L322.36091,600.54399
				L322.60094,600.54399L322.60094,600.30397L322.84097,600.30397L322.84097,600.06394L323.081,600.06394L323.081,599.58389L323.32103,599.58389
				L323.32103,599.34387L323.56106,599.34387L323.56106,599.10384L323.56106,598.86382L323.80109,598.86382L323.80109,598.62379
				L324.04112,598.62379L324.04112,598.38376L324.28115,598.38376L324.28115,598.14374L324.52118,598.14374L324.52118,597.90371
				L324.76121,597.90371L324.76121,597.66369L325.00124,597.66369L325.00124,597.42366L325.24127,597.42366L325.24127,597.18364
				L325.48131,597.18364L325.48131,596.94361L325.72134,596.94361L325.72134,596.70359L325.96137,596.70359L325.96137,596.46356
				L326.2014,596.46356L326.2014,596.22353L326.44143,596.22353L326.44143,595.98351L326.68146,595.98351L326.68146,595.74348L326.92149,595.74348
				L326.92149,595.50346L326.92149,595.26343L327.16152,595.26343L327.16152,595.02341L327.40155,595.02341L327.40155,594.78338
				L327.64158,594.78338L327.64158,594.54336L327.88161,594.54336L328.12164,594.54336L328.12164,594.30333L328.36167,594.30333
				L328.36167,594.0633L328.6017,594.0633L328.6017,593.82328L328.84173,593.82328L328.84173,593.58325L329.08176,593.58325L329.08176,593.34323
				L329.32179,593.34323L329.32179,593.1032L329.56182,593.1032L329.56182,592.86318L329.80185,592.86318L329.80185,592.62315L330.04188,592.62315
				L330.04188,592.38313L330.28191,592.38313L330.28191,592.1431L330.28191,591.90307L330.52194,591.90307L330.52194,591.66305L
				330.76198,591.66305L330.76198,591.42302L331.00201,591.42302L331.00201,591.183L331.24204,591.183L331.48207,591.183L331.48207,590.94297
				L331.7221,590.94297L331.7221,590.70295L331.48207,590.70295L331.48207,590.2229L331.24204,590.2229L331.24204,589.98287L331.00201,589.98287
				L331.00201,589.50282L330.76198,589.50282L330.76198,589.02277L330.52194,589.02277L330.52194,588.54272L330.28191,588.54272
				L330.28191,588.30269L330.28191,587.82264L330.04188,587.82264L330.04188,587.58261L329.80185,587.58261L329.80185,587.34259
				L329.56182,587.34259L329.56182,586.86254L329.32179,586.86254L329.32179,586.38249L329.08176,586.38249L329.08176,585.90243
				L328.84173,585.90243L328.84173,585.66241L328.6017,585.66241L328.6017,585.18236L328.36167,585.18236L328.36167,584.70231L328.12164,584.70231
				L328.12164,584.22226L327.88161,584.22226L327.64158,584.22226L327.64158,583.7422L327.40155,583.7422L327.40155,583.26215L327.16152,583.26215
				L327.16152,583.02213L326.92149,583.02213L326.92149,582.54208L326.92149,582.06203L326.68146,582.06203L326.68146,581.58197
				L326.44143,581.58197L326.44143,581.34195L326.2014,581.34195L326.2014,580.8619L325.96137,580.8619L325.96137,580.62187L325.72134,580.62187
				L325.72134,580.14182L325.48131,580.14182L325.48131,579.9018L325.24127,579.9018L325.24127,579.42174L325.00124,579.42174L325.00124,578.94169
				L324.76121,578.94169L324.76121,578.70167L324.52118,578.70167L324.52118,578.22162L324.28115,578.22162L324.28115,577.74157
				L324.04112,577.74157L324.04112,577.50154L323.80109,577.50154L323.80109,577.26151L323.56106,577.26151L323.56106,576.78146
				L323.56106,576.30141L323.32103,576.30141L323.32103,576.06139L323.081,576.06139L323.081,575.58133L322.84097,575.58133L322.84097,575.10128
				L322.60094,575.10128L322.60094,574.62123L322.36091,574.62123L322.36091,574.38121L322.12088,574.38121L322.12088,574.14118
				L321.88085,574.14118L321.88085,573.66113L321.64082,573.66113L321.64082,573.18108L321.40079,573.18108L321.40079,572.94105
				L321.16076,572.94105L321.16076,572.461L320.92073,572.461L320.92073,571.98095L320.6807,571.98095L320.6807,571.74093L320.44067,571.74093
				L320.44067,571.26087L320.20063,571.26087L320.20063,570.78082L319.9606,570.78082L319.9606,570.5408L319.9606,570.30077L319.72057,570.30077
				L319.72057,569.82072L319.48054,569.82072L319.48054,569.34067L319.24051,569.34067L319.24051,568.86062L319.00048,568.86062
				L319.00048,568.62059L318.76045,568.62059L318.76045,568.14054L318.52042,568.14054L318.52042,567.66049L318.28039,567.66049
				L318.28039,567.42047L318.04036,567.42047L318.04036,567.18044L317.80033,567.18044L317.80033,566.70039L317.5603,566.70039L
				317.5603,566.22034L317.32027,566.22034L317.32027,565.98031L317.08024,565.98031L317.08024,565.50026L316.84021,565.50026L316.84021,565.02021
				L316.60018,565.02021L316.60018,564.54016L316.60018,564.30013L316.36015,564.30013L316.36015,563.82008L316.12012,563.82008
				L316.12012,563.58006L315.88009,563.58006L315.88009,563.34003L315.64006,563.34003L315.64006,562.85998L315.40003,562.85998
				L315.40003,562.37993L315.16,562.37993L315.16,561.89988L314.91996,561.89988L314.91996,561.65985L314.67993,561.65985L314.67993,561.1798
				L314.4399,561.1798L314.4399,560.69975L314.19987,560.69975L314.19987,560.45972L313.95984,560.45972L313.95984,560.2197L313.71981,560.2197
				L313.71981,559.73965L313.47978,559.73965L313.47978,559.2596L313.23975,559.2596L313.23975,559.01957L313.23975,558.53952L312.99972,558.53952
				L312.99972,558.05947L312.75969,558.05947L312.75969,557.57942L312.51966,557.57942"/>
			<path clip-path="url(#SVG_CP_2)" fill="none" stroke="#999999" stroke-width="0.96012" stroke-miterlimit="10" stroke-linecap="round" stroke-linejoin="round" d="
				M312.51966,557.57942L312.51966,557.33939L312.27963,557.33939L312.27963,557.09937L312.0396,557.09937L312.0396,556.61931L311.79957,556.61931
				L311.79957,556.37929L311.55954,556.37929L311.55954,555.89924L311.31951,555.89924L311.31951,555.41919L311.07948,555.41919
				L311.07948,554.93914L310.83945,554.93914L310.83945,554.69911L310.59942,554.69911L310.59942,554.21906L310.35939,554.21906
				L310.35939,553.73901L310.11936,553.73901L310.11936,553.49898L309.87933,553.49898L309.87933,553.25896L309.87933,552.77891
				L309.63929,552.77891L309.63929,552.29885L309.39926,552.29885L309.39926,552.05883L309.15923,552.05883L309.15923,551.57878
				L308.9192,551.57878L308.9192,551.09873L308.67917,551.09873L308.67917,550.8587L308.43914,550.8587L308.43914,550.37865L308.19911,550.37865
				L308.19911,550.13862L307.95908,550.13862L307.95908,549.8986L307.71905,549.8986L307.71905,549.41855L307.47902,549.41855L307.47902,548.9385
				L307.23899,548.9385L307.23899,548.45844L306.99896,548.45844L306.99896,548.21842L306.75893,548.21842L306.75893,547.73837L
				306.5189,547.73837L306.5189,547.25832L306.5189,547.01829L306.27887,547.01829L306.27887,546.77827L306.03884,546.77827L306.03884,546.29821
				L305.79881,546.29821L305.79881,545.81816L305.55878,545.81816L305.55878,545.57814L305.31875,545.57814L305.31875,545.09809
				L305.07872,545.09809L305.07872,544.61804L304.83869,544.61804L304.83869,544.37801L304.59865,544.37801L304.59865,543.89796
				L304.35862,543.89796L304.35862,543.41791L304.11859,543.41791L304.11859,543.17788L303.87856,543.17788L303.87856,542.93786
				L303.63853,542.93786L303.63853,542.45781L303.3985,542.45781L303.3985,541.97775L303.15847,541.97775L303.15847,541.73773L302.91844,541.73773
				L302.91844,541.25768L302.91844,540.77763L302.67841,540.77763L302.67841,540.29758L302.43838,540.29758L302.43838,540.05755
				L302.19835,540.05755L302.19835,539.81752L301.95832,539.81752L301.95832,539.33747L301.71829,539.33747L301.71829,539.09745
				L301.47826,539.09745L301.47826,538.6174L301.23823,538.6174L301.23823,538.13734L300.9982,538.13734L300.9982,537.65729L300.75817,537.65729
				L300.75817,537.41727L300.51814,537.41727L300.51814,536.93722L300.27811,536.93722L300.27811,536.45717L300.03808,536.45717
				L299.79805,536.45717L299.79805,535.97711L299.55802,535.97711L299.55802,535.49706L299.55802,535.01701L299.31798,535.01701
				L299.31798,534.77699L299.07795,534.77699L299.07795,534.29694L298.83792,534.29694L298.83792,533.81688L298.59789,533.81688
				L298.59789,533.57686L298.35786,533.57686L298.35786,533.09681L298.11783,533.09681L298.11783,532.85678L297.8778,532.85678L
				297.8778,532.37673L297.63777,532.37673L297.63777,532.13671L297.39774,532.13671L297.39774,531.65665L297.15771,531.65665L297.15771,531.1766
				L296.91768,531.1766L296.91768,530.93658L296.67765,530.93658L296.67765,530.45653L296.43762,530.45653L296.43762,529.97648L
				296.19759,529.97648L296.19759,529.73645L296.19759,529.49642L295.95756,529.49642L295.95756,529.01637L295.71753,529.01637L
				295.71753,528.53632L295.4775,528.53632L295.4775,528.2963L295.23747,528.2963L295.23747,527.81625L294.99744,527.81625L294.99744,527.33619
				L294.75741,527.33619L294.75741,526.85614L294.51738,526.85614L294.51738,526.61612L294.27735,526.61612L294.27735,526.37609
				L294.03731,526.37609L294.03731,525.89604L293.79728,525.89604L293.79728,525.65601L293.55725,525.65601L293.55725,525.17596
				L293.31722,525.17596L293.31722,524.69591L293.07719,524.69591L293.07719,524.21586L292.83716,524.21586L292.83716,523.97584
				L292.83716,523.49578L292.59713,523.49578L292.59713,523.01573L292.3571,523.01573L292.3571,522.77571L292.11707,522.77571L292.11707,522.53568
				L291.87704,522.53568L291.87704,522.05563L291.63701,522.05563L291.63701,521.81561L291.39698,521.81561L291.39698,521.33555
				L291.15695,521.33555L291.15695,520.8555L290.91692,520.8555L290.91692,520.61548L290.67689,520.61548L290.67689,520.13543L290.43686,520.13543
				L290.43686,519.65538L290.19683,519.65538L290.19683,519.41535L289.9568,519.41535L289.9568,519.17532L289.71677,519.17532L289.71677,518.69527
				L289.47674,518.69527L289.47674,518.45525L289.47674,517.9752L289.23671,517.9752L289.23671,517.49515L288.99668,517.49515L288.99668,517.25512
				L288.75664,517.25512L288.75664,516.77507L288.51661,516.77507L288.51661,516.53504L288.27658,516.53504L288.27658,516.05499
				L288.03655,516.05499L288.03655,515.81497L287.79652,515.81497L287.79652,515.33492L287.55649,515.33492L287.55649,515.09489
				L287.31646,515.09489L287.31646,514.61484L287.07643,514.61484L287.07643,514.13479L286.8364,514.13479L286.8364,513.65474L286.59637,513.65474
				L286.59637,513.41471L286.35634,513.41471L286.35634,512.93466L286.11631,512.93466L286.11631,512.69463L285.87628,512.69463
				L285.87628,512.21458L285.87628,511.97456L285.63625,511.97456L285.63625,511.49451L285.39622,511.49451L285.39622,511.01445
				L285.15619,511.01445L285.15619,510.5344L284.91616,510.5344L284.91616,510.29438L284.67613,510.29438L284.67613,509.81433L284.4361,509.81433
				L284.4361,509.33428L284.19607,509.33428L284.19607,509.09425L283.95604,509.09425L283.95604,508.6142L283.716,508.6142L283.716,508.37417
				L283.47597,508.37417L283.47597,507.89412L283.23594,507.89412L283.23594,507.41407L282.99591,507.41407L282.99591,506.93402
				L282.75588,506.93402L282.75588,506.45397"/>
		</g>
</g></svg>