<?xml version="1.0" encoding="utf-8" standalone="no"?>
<!-- Creator: ESRI ArcMap 10.0.0.2414 -->
<!DOCTYPE svg PUBLIC "-//W3C//DTD SVG 1.1//EN"  "http://www.w3.org/Graphics/SVG/1.1/DTD/svg11.dtd">
<svg width="524.0420768pt" height="214.04568309pt" viewBox="32.15712744 314.106293455 524.0420768 214.04568309" enable-background="new 32.15712744 314.106293455 524.0420768 214.04568309"
	version="1.1" xmlns="http://www.w3.org/2000/svg" xmlns:xlink="http://www.w3.org/1999/xlink" >
	<g id="Couches">
		<g id="reservoirs">
			<clipPath id="SVG_CP_2">
				<path d="M574.39289,21.36228L21.36271,21.36228L21.36271,821.36753L574.39289,821.36753L574.39289,21.36228z"/>
			</clipPath>
			<path clip-path="url(#SVG_CP_2)" fill-opacity="0.2" fill="#2f4493" fill-rule="evenodd" stroke="#2f4493" stroke-width="1" stra="1.44018" stroke-miterlimit="10" stroke-linecap="round" stroke-linejoin="round" d="
				M124.33578,478.85103L126.49605,478.85103L130.57657,478.13095L133.45694,476.93082L136.57733,475.97072L139.69773,475.25064
				L154.33959,470.69016L170.42163,468.52993L175.22224,468.2899L162.74065,478.13095L163.46074,478.85103L164.18084,479.81113L
				164.18084,481.01126L165.86105,482.21139L171.62178,484.85167L175.94233,486.29182L181.70306,487.25192L184.58342,491.09233L
				185.78358,493.73261L185.78358,495.17277L180.98297,504.29374L174.74218,511.25448L168.26135,514.13479L163.22071,514.61484L
				161.78053,514.61484L160.82041,515.33492L158.66013,514.13479L157.70001,514.61484L156.49986,514.61484L155.77977,515.33492L
				154.57962,514.61484L148.33883,507.6541L141.13791,500.2133L138.49758,504.29374L130.8166,499.2532L127.45618,499.49323L132.01675,503.57366
				L136.57733,507.41407L134.41706,511.49451L131.53669,508.85422L130.09651,510.29438L130.57657,511.73453L131.77672,513.41471
				L132.97688,514.37481L131.05663,517.9752L129.37642,516.77507L127.45618,514.61484L123.61569,517.25512L125.53593,519.8954L124.81584,520.37545
				L123.85572,519.8954L123.85572,520.13543L121.45541,517.25512L118.57505,514.13479L118.33502,514.37481L116.41477,515.33492L
				116.41477,515.09489L116.17474,513.41471L115.69468,511.73453L114.73456,511.25448L109.93395,511.73453L110.89407,515.57494L
				109.21386,515.81497L107.53365,516.05499L106.33349,517.01509L105.37337,516.77507L104.41325,510.5344L102.01295,510.77443L102.01295,509.33428
				L98.17246,509.81433L98.41249,513.17468L95.53212,514.13479L96.25222,517.25512L51.60655,523.25576L49.44628,523.49578L48.24612,523.25576
				L47.76606,521.81561L47.76606,501.41343L46.56591,487.0119L46.80594,474.05052L47.286,468.76995L49.92634,467.08977L78.0099,466.84975
				L105.85343,467.56983L113.05435,472.61036L118.33502,474.53057L120.49529,475.73069L121.45541,477.17085L122.1755,478.611L124.33578,478.85103
				z"/>
			<path clip-path="url(#SVG_CP_2)" fill-opacity="0.2" fill="#2f4493" fill-rule="evenodd" stroke="#2f4493" stroke-width="1" stra="1.44018" stroke-miterlimit="10" stroke-linecap="round" stroke-linejoin="round" d="
				M549.18969,330.75525L541.50872,361.23849L524.22653,365.31893L510.78482,359.31829L468.77949,371.31957L454.61769,375.4L435.65529,372.75972
				L407.33169,386.44118L408.53184,361.71855L433.25498,352.8376L456.77797,333.1555L468.29943,337.47596L488.70202,326.91484L516.06549,321.63427
				L529.5072,318.99399L549.18969,330.75525z"/>
		</g>
</g></svg>