<?xml version="1.0" encoding="utf-8" standalone="no"?>
<!-- Creator: ESRI ArcMap 10.0.0.2414 -->
<!DOCTYPE svg PUBLIC "-//W3C//DTD SVG 1.1//EN"  "http://www.w3.org/Graphics/SVG/1.1/DTD/svg11.dtd">
<svg width="524.0420768pt" height="725.328002526pt" viewBox="32.15712744 58.4651337372 524.0420768 725.328002526" enable-background="new 32.15712744 58.4651337372 524.0420768 725.328002526"
	version="1.1" xmlns="http://www.w3.org/2000/svg" xmlns:xlink="http://www.w3.org/1999/xlink" >
	<g id="Couches">
		<g id="cont_2">
			<path clip-path="url(#SVG_CP_2)" fill="none" stroke="#999999" stroke-width="0.96012" stroke-miterlimit="10" stroke-linecap="round" stroke-linejoin="round" d="
				M214.82726,705.6752L214.82726,705.6752"/>
			<path clip-path="url(#SVG_CP_2)" fill="none" stroke="#999999" stroke-width="0.96012" stroke-miterlimit="10" stroke-linecap="round" stroke-linejoin="round" d="
				M206.66623,713.59604L205.94614,713.59604L206.18617,713.59604L206.4262,713.59604L206.66623,713.59604L206.66623,713.59604"/>
			<path clip-path="url(#SVG_CP_2)" fill="none" stroke="#999999" stroke-width="0.96012" stroke-miterlimit="10" stroke-linecap="round" stroke-linejoin="round" d="
				M205.70611,713.83607L205.70611,713.83607"/>
			<path clip-path="url(#SVG_CP_2)" fill="none" stroke="#999999" stroke-width="0.96012" stroke-miterlimit="10" stroke-linecap="round" stroke-linejoin="round" d="
				M207.38632,714.55614L207.38632,714.55614"/>
			<path clip-path="url(#SVG_CP_2)" fill="none" stroke="#999999" stroke-width="0.96012" stroke-miterlimit="10" stroke-linecap="round" stroke-linejoin="round" d="
				M207.62635,714.55614L207.38632,714.55614L207.62635,714.55614L207.62635,714.55614"/>
			<path clip-path="url(#SVG_CP_2)" fill="none" stroke="#999999" stroke-width="0.96012" stroke-miterlimit="10" stroke-linecap="round" stroke-linejoin="round" d="
				M207.62635,714.55614L207.62635,714.55614"/>
			<path clip-path="url(#SVG_CP_2)" fill="none" stroke="#999999" stroke-width="0.96012" stroke-miterlimit="10" stroke-linecap="round" stroke-linejoin="round" d="
				M207.62635,714.79617L207.62635,714.55614L207.62635,714.79617"/>
			<path clip-path="url(#SVG_CP_2)" fill="none" stroke="#999999" stroke-width="0.96012" stroke-miterlimit="10" stroke-linecap="round" stroke-linejoin="round" d="
				M207.62635,714.79617L207.62635,714.79617"/>
			<path clip-path="url(#SVG_CP_2)" fill="none" stroke="#999999" stroke-width="0.96012" stroke-miterlimit="10" stroke-linecap="round" stroke-linejoin="round" d="
				M207.62635,714.79617L207.62635,714.79617"/>
			<path clip-path="url(#SVG_CP_2)" fill="none" stroke="#999999" stroke-width="0.96012" stroke-miterlimit="10" stroke-linecap="round" stroke-linejoin="round" d="
				M207.62635,714.79617L207.62635,714.79617"/>
			<path clip-path="url(#SVG_CP_2)" fill="none" stroke="#999999" stroke-width="0.96012" stroke-miterlimit="10" stroke-linecap="round" stroke-linejoin="round" d="
				M208.10641,715.0362L207.86638,715.0362L207.86638,714.79617L207.62635,714.79617L207.86638,714.79617L207.86638,715.0362L208.10641,715.0362
				L208.10641,715.0362"/>
			<path clip-path="url(#SVG_CP_2)" fill="none" stroke="#999999" stroke-width="0.96012" stroke-miterlimit="10" stroke-linecap="round" stroke-linejoin="round" d="
				M208.10641,715.0362L208.10641,715.0362"/>
			<path clip-path="url(#SVG_CP_2)" fill="none" stroke="#999999" stroke-width="0.96012" stroke-miterlimit="10" stroke-linecap="round" stroke-linejoin="round" d="
				M208.10641,715.27622L208.10641,715.0362L208.10641,715.27622"/>
			<path clip-path="url(#SVG_CP_2)" fill="none" stroke="#999999" stroke-width="0.96012" stroke-miterlimit="10" stroke-linecap="round" stroke-linejoin="round" d="
				M208.10641,715.27622L208.10641,715.27622"/>
			<path clip-path="url(#SVG_CP_2)" fill="none" stroke="#999999" stroke-width="0.96012" stroke-miterlimit="10" stroke-linecap="round" stroke-linejoin="round" d="
				M208.10641,715.27622L208.10641,715.27622"/>
			<path clip-path="url(#SVG_CP_2)" fill="none" stroke="#999999" stroke-width="0.96012" stroke-miterlimit="10" stroke-linecap="round" stroke-linejoin="round" d="
				M208.34644,715.27622L208.10641,715.27622L208.34644,715.27622L208.34644,715.27622"/>
			<path clip-path="url(#SVG_CP_2)" fill="none" stroke="#999999" stroke-width="0.96012" stroke-miterlimit="10" stroke-linecap="round" stroke-linejoin="round" d="
				M208.34644,715.27622L208.34644,715.27622"/>
			<path clip-path="url(#SVG_CP_2)" fill="none" stroke="#999999" stroke-width="0.96012" stroke-miterlimit="10" stroke-linecap="round" stroke-linejoin="round" d="
				M208.34644,715.27622L208.34644,715.27622"/>
			<path clip-path="url(#SVG_CP_2)" fill="none" stroke="#999999" stroke-width="0.96012" stroke-miterlimit="10" stroke-linecap="round" stroke-linejoin="round" d="
				M208.34644,715.51625L208.34644,715.27622L208.34644,715.51625"/>
			<path clip-path="url(#SVG_CP_2)" fill="none" stroke="#999999" stroke-width="0.96012" stroke-miterlimit="10" stroke-linecap="round" stroke-linejoin="round" d="
				M208.34644,715.51625L208.34644,715.51625"/>
			<path clip-path="url(#SVG_CP_2)" fill="none" stroke="#999999" stroke-width="0.96012" stroke-miterlimit="10" stroke-linecap="round" stroke-linejoin="round" d="
				M204.50595,715.51625L204.50595,715.27622L204.50595,715.0362L204.74598,715.0362L204.74598,714.79617L204.74598,714.55614L204.98601,714.55614
				L204.98601,714.31612L204.98601,714.07609L205.22604,714.07609L205.46607,714.07609L205.46607,713.83607L205.70611,713.83607
				L205.70611,714.07609L205.46607,714.07609L205.46607,714.31612L205.22604,714.31612L204.98601,714.31612L204.98601,714.55614
				L204.74598,714.55614L204.74598,714.79617L204.74598,715.0362L204.74598,715.27622L204.50595,715.27622L204.50595,715.51625L
				204.50595,715.51625"/>
			<path clip-path="url(#SVG_CP_2)" fill="none" stroke="#999999" stroke-width="0.96012" stroke-miterlimit="10" stroke-linecap="round" stroke-linejoin="round" d="
				M208.58647,715.51625L208.34644,715.51625L208.58647,715.51625L208.58647,715.51625"/>
			<path clip-path="url(#SVG_CP_2)" fill="none" stroke="#999999" stroke-width="0.96012" stroke-miterlimit="10" stroke-linecap="round" stroke-linejoin="round" d="
				M208.58647,715.75627L208.58647,715.51625L208.58647,715.75627"/>
			<path clip-path="url(#SVG_CP_2)" fill="none" stroke="#999999" stroke-width="0.96012" stroke-miterlimit="10" stroke-linecap="round" stroke-linejoin="round" d="
				M208.58647,715.75627L208.58647,715.75627"/>
			<path clip-path="url(#SVG_CP_2)" fill="none" stroke="#999999" stroke-width="0.96012" stroke-miterlimit="10" stroke-linecap="round" stroke-linejoin="round" d="
				M204.50595,715.51625L204.50595,715.75627L204.50595,715.51625L204.50595,715.51625"/>
			<path clip-path="url(#SVG_CP_2)" fill="none" stroke="#999999" stroke-width="0.96012" stroke-miterlimit="10" stroke-linecap="round" stroke-linejoin="round" d="
				M208.58647,715.75627L208.8265,715.75627L208.58647,715.75627L208.58647,715.75627"/>
			<path clip-path="url(#SVG_CP_2)" fill="none" stroke="#999999" stroke-width="0.96012" stroke-miterlimit="10" stroke-linecap="round" stroke-linejoin="round" d="
				M208.8265,715.75627L208.8265,715.75627"/>
			<path clip-path="url(#SVG_CP_2)" fill="none" stroke="#999999" stroke-width="0.96012" stroke-miterlimit="10" stroke-linecap="round" stroke-linejoin="round" d="
				M204.50595,715.75627L204.26592,715.75627L204.50595,715.75627L204.50595,715.75627"/>
			<path clip-path="url(#SVG_CP_2)" fill="none" stroke="#999999" stroke-width="0.96012" stroke-miterlimit="10" stroke-linecap="round" stroke-linejoin="round" d="
				M210.74674,715.9963L210.50671,715.9963L210.26668,715.9963L210.02665,715.9963L209.78662,715.9963L209.78662,715.75627L209.54659,715.75627
				L210.02665,715.75627L210.50671,715.75627L210.50671,715.9963L210.74674,715.9963L210.74674,715.9963"/>
			<path clip-path="url(#SVG_CP_2)" fill="none" stroke="#999999" stroke-width="0.96012" stroke-miterlimit="10" stroke-linecap="round" stroke-linejoin="round" d="
				M203.54583,716.23632L203.06577,716.23632L203.78586,716.23632L203.54583,716.23632L203.54583,716.23632"/>
			<path clip-path="url(#SVG_CP_2)" fill="none" stroke="#999999" stroke-width="0.96012" stroke-miterlimit="10" stroke-linecap="round" stroke-linejoin="round" d="
				M215.06729,696.55423L215.30732,696.55423L215.30732,697.2743L215.06729,697.2743L215.06729,697.51433L215.06729,697.75435L215.06729,698.2344
				L215.06729,698.71446L215.06729,701.35474L214.82726,701.35474L214.82726,703.99502L214.82726,705.6752L214.58723,705.6752L214.58723,705.91522
				L214.3472,705.91522L214.3472,706.15525L214.10717,706.15525L214.10717,706.6353L214.10717,706.87533L213.86714,706.87533L213.86714,707.11535
				L213.62711,707.11535L213.62711,707.35538L213.62711,707.5954L213.62711,707.83543L213.62711,708.07545L213.62711,708.31548L
				213.38708,708.31548L213.38708,708.5555L213.38708,708.79553L213.38708,709.03556L213.38708,709.27558L213.38708,709.51561L213.38708,709.75563
				L213.14705,709.75563L213.14705,709.99566L213.14705,710.23568L213.14705,710.47571L212.90702,710.47571L212.90702,710.71573
				L212.90702,710.95576L212.90702,711.19579L212.90702,711.43581L212.90702,711.67584L212.90702,711.91586L212.66699,711.91586
				L212.66699,712.15589L212.66699,712.63594L212.66699,713.35602L212.66699,715.0362L212.66699,715.75627L212.42696,715.75627L
				212.42696,715.9963L212.18693,715.9963L211.9469,715.9963L211.9469,716.23632L211.70687,716.23632L211.70687,716.47635L211.70687,716.23632
				L211.46684,716.23632L211.46684,715.9963L211.22681,715.9963L211.22681,715.75627L210.98678,715.75627L210.74674,715.75627L210.74674,715.51625
				L210.50671,715.51625L210.02665,715.51625L209.30656,715.51625L209.06653,715.51625L209.06653,715.27622L208.8265,715.27622L
				208.58647,715.27622L208.58647,715.0362L208.34644,715.0362L208.34644,714.79617L208.10641,714.79617L208.10641,714.55614L207.86638,714.55614
				L207.86638,714.31612L207.62635,714.31612L207.62635,714.07609L207.38632,714.07609L207.38632,713.83607L207.14629,713.83607
				L207.14629,713.59604L206.90626,713.59604L206.90626,713.35602L206.66623,713.35602L206.4262,713.35602L206.4262,713.11599L206.18617,713.11599
				L206.18617,713.35602L205.94614,713.35602L205.70611,713.35602L205.70611,713.59604L205.46607,713.59604L205.22604,713.59604
				L204.98601,713.59604L204.98601,713.83607L204.74598,713.83607L204.74598,714.07609L204.50595,714.07609L204.50595,714.31612
				L204.50595,714.55614L204.26592,714.55614L204.26592,714.79617L204.26592,715.0362L204.26592,715.27622L204.02589,715.27622L
				204.02589,715.51625L204.02589,715.75627L203.78586,715.75627L203.54583,715.75627L203.06577,715.75627L203.06577,715.9963L202.82574,715.9963
				L202.82574,715.75627L202.58571,715.75627L202.34568,715.75627L202.34568,715.51625L202.10565,715.51625L202.10565,715.27622
				L201.86562,715.27622L201.62559,715.27622L201.62559,715.0362L201.38556,715.0362L201.14553,715.0362L200.9055,715.0362L200.66547,715.0362
				L200.66547,714.79617L200.9055,714.79617L201.14553,714.79617L201.38556,714.79617L201.62559,714.79617L202.10565,714.79617L
				202.58571,714.79617L202.82574,714.79617L203.06577,714.79617L203.06577,714.55614L203.06577,714.31612L203.3058,714.31612L203.3058,714.07609
				L203.3058,713.83607L203.3058,713.59604L203.54583,713.59604L203.54583,713.35602L203.54583,713.11599L203.78586,713.11599L203.78586,712.87597
				L204.02589,712.87597L204.02589,712.63594L204.02589,712.39591L204.26592,712.39591L204.26592,712.15589L204.50595,712.15589
				L204.50595,711.91586L204.74598,711.91586L204.74598,711.67584L204.74598,711.43581L204.98601,711.43581L204.98601,711.19579
				L204.98601,710.95576L204.98601,710.71573L205.22604,710.71573L205.22604,710.47571L205.22604,710.23568L205.46607,710.23568
				L205.46607,709.99566L205.46607,708.5555L205.22604,708.5555L205.22604,708.79553L204.98601,708.79553L204.74598,708.79553L204.74598,709.03556
				L204.50595,709.03556L204.26592,709.03556L204.26592,709.27558L204.02589,709.27558L203.78586,709.27558L203.54583,709.27558
				L203.54583,709.51561L203.3058,709.51561L203.06577,709.51561L202.82574,709.51561L202.82574,709.75563L202.58571,709.75563L
				202.34568,709.75563L201.86562,709.75563L201.86562,709.99566L201.62559,709.99566L201.38556,709.99566L201.38556,710.23568L
				201.14553,710.23568L200.9055,710.23568L200.66547,710.23568L200.42544,710.23568L200.42544,710.47571L200.1854,710.47571L199.94537,710.47571
				L199.46531,710.47571L199.22528,710.47571L198.98525,710.47571L198.74522,710.47571L198.74522,710.71573L198.50519,710.71573
				L198.50519,710.95576L198.26516,710.95576L198.26516,711.19579L198.02513,711.19579L197.7851,711.19579L197.7851,711.43581L197.54507,711.43581
				L197.54507,711.67584L197.54507,710.47571L197.54507,710.23568L197.7851,710.23568L197.7851,709.99566L198.02513,709.99566L198.26516,709.99566
				L198.26516,709.75563L198.50519,709.75563L198.74522,709.75563L198.74522,709.51561L198.98525,709.51561L199.22528,709.51561
				L199.22528,709.27558L199.46531,709.27558L199.70534,709.27558L199.70534,709.03556L199.94537,709.03556L200.1854,709.03556L
				200.1854,708.79553L200.42544,708.79553L200.42544,708.5555L200.66547,708.5555L200.66547,708.31548L200.66547,708.07545L200.9055,708.07545
				L200.9055,707.83543L200.9055,707.5954L201.14553,707.5954L201.14553,707.11535L201.14553,706.87533L201.14553,706.6353L200.9055,706.6353
				L200.9055,706.39527L200.9055,706.15525L200.9055,705.91522L200.66547,705.91522L200.66547,705.6752L200.66547,705.43517L200.42544,705.43517
				L200.42544,705.19515L200.42544,704.95512L200.1854,704.95512L200.1854,704.7151L199.94537,704.7151L199.94537,704.47507L199.70534,704.47507
				L199.70534,704.23504L199.46531,704.23504L199.46531,703.99502L199.22528,703.99502L199.22528,703.75499L198.98525,703.75499
				L198.74522,703.75499L198.74522,703.51497L198.50519,703.51497L198.50519,703.75499L198.50519,703.99502L197.7851,703.99502L
				197.54507,703.99502L197.30504,703.99502L197.30504,704.23504L197.06501,704.23504L196.82498,704.23504L196.82498,704.47507L
				196.58495,704.47507L196.34492,704.47507L196.10489,704.47507L196.10489,704.7151L195.86486,704.7151L195.62483,704.7151L195.3848,704.7151
				L195.3848,704.47507L195.14476,704.47507L195.14476,704.23504L195.14476,703.99502L195.14476,703.75499L195.14476,703.51497L
				195.14476,703.27494L195.14476,703.03492L194.90473,703.03492L194.90473,702.55487L194.90473,702.07481L195.14476,702.07481L
				195.14476,701.83479L195.14476,701.59476L195.14476,701.35474L195.14476,701.11471L195.3848,701.11471L195.62483,701.11471L195.86486,701.11471
				L195.86486,700.87469L196.34492,700.87469L196.58495,700.87469L196.82498,700.87469L197.06501,700.87469L197.30504,700.87469
				L197.30504,700.63466L197.54507,700.63466L197.7851,700.63466L198.02513,700.63466L198.02513,700.39464L198.26516,700.39464L
				198.50519,700.39464L198.50519,700.15461L198.74522,700.15461L198.74522,699.91458L198.98525,699.91458L198.98525,699.67456L
				199.22528,699.67456L199.22528,699.43453L199.46531,699.43453L199.46531,699.19451L199.46531,698.95448L199.70534,698.95448L
				199.70534,698.71446L199.70534,698.47443L199.94537,698.47443L199.94537,698.2344L199.94537,697.99438L200.1854,697.99438L200.1854,695.3541
				L199.94537,695.3541L199.94537,695.11407L199.94537,694.87405L199.70534,694.87405L199.70534,694.63402L199.70534,694.394L199.46531,694.394
				L199.46531,694.15397L199.46531,693.91394L199.22528,693.91394L199.22528,693.67392L199.22528,693.43389L199.22528,693.19387
				L198.98525,693.19387L198.98525,692.95384L198.98525,692.71382L198.74522,692.71382L198.74522,692.47379L198.74522,692.23377
				L198.50519,692.23377L198.50519,691.99374L198.50519,691.75371L198.50519,691.51369L198.26516,691.51369L198.26516,691.27366
				L198.26516,691.03364L198.02513,691.03364L198.02513,690.79361L198.26516,690.79361L198.50519,690.79361L198.74522,690.79361
				L198.74522,690.55359L198.98525,690.55359L199.22528,690.55359L199.46531,690.55359L199.70534,690.55359L199.94537,690.55359
				L199.94537,690.79361L200.1854,690.79361L200.42544,690.79361L200.66547,690.79361L200.9055,690.79361L200.9055,691.03364L201.14553,691.03364
				L201.38556,691.03364L201.86562,691.03364L202.10565,691.03364L202.10565,690.79361L202.34568,690.79361L202.34568,690.55359
				L202.34568,690.31356L202.34568,690.07354L202.58571,690.07354L202.58571,689.83351L202.58571,689.59348L202.58571,689.35346
				L202.82574,689.35346L202.82574,689.11343L202.82574,688.87341L202.82574,688.63338L202.82574,688.39336L202.82574,688.15333
				L203.06577,688.15333L202.82574,688.15333L202.34568,688.15333L202.34568,687.91331L201.62559,687.91331L201.14553,687.91331
				L200.9055,687.91331L200.9055,687.67328L200.9055,687.19323L200.66547,687.19323L200.42544,687.19323L200.42544,686.9532L200.42544,686.71318
				L200.42544,686.47315L200.66547,686.47315L200.66547,685.9931L200.9055,685.9931L200.9055,686.23313L201.14553,686.23313L203.78586,686.23313
				L203.78586,686.47315L203.78586,686.71318L203.78586,686.9532L203.54583,686.9532L203.54583,687.19323L203.54583,687.43325L203.54583,687.67328
				L203.78586,687.67328L203.78586,687.91331L204.02589,687.91331L204.02589,688.15333L204.26592,688.15333L204.26592,688.39336
				L204.50595,688.39336L204.74598,688.39336L204.74598,688.63338L204.98601,688.63338L204.98601,688.87341L205.22604,688.87341
				L205.22604,689.11343L205.46607,689.11343L205.46607,688.87341L205.70611,688.87341L205.70611,689.11343L205.94614,689.11343
				L206.18617,689.11343L206.18617,688.87341L206.4262,688.87341L206.4262,689.11343L206.66623,689.11343L206.66623,689.35346L206.66623,689.59348
				L206.90626,689.59348L207.14629,689.59348L207.14629,689.83351L207.38632,689.83351L207.62635,689.83351L207.86638,689.83351
				L208.58647,689.83351L208.58647,690.07354L209.06653,690.07354L209.30656,690.07354L209.78662,690.07354L210.02665,690.07354
				L210.26668,690.07354L210.74674,690.07354L210.74674,690.31356L210.98678,690.31356L210.98678,690.55359L210.98678,690.79361
				L210.98678,691.03364L210.98678,691.27366L210.74674,691.27366L210.74674,691.51369L210.74674,691.75371L210.74674,691.99374
				L210.74674,692.23377L210.50671,692.23377L210.50671,692.47379L210.50671,692.71382L210.50671,692.95384L210.50671,693.19387
				L210.50671,693.43389L210.26668,693.43389L210.26668,693.67392L210.26668,693.91394L210.26668,694.15397L210.26668,694.394L210.50671,694.394
				L210.74674,694.394L210.74674,694.63402L210.98678,694.63402L211.22681,694.63402L211.46684,694.63402L211.46684,694.87405L211.70687,694.87405
				L211.9469,694.87405L211.9469,695.11407L212.18693,695.11407L212.42696,695.11407L212.42696,695.3541L212.66699,695.3541L212.90702,695.3541
				L213.14705,695.3541L213.14705,695.59412L213.38708,695.59412L213.62711,695.59412L213.62711,695.83415L213.86714,695.83415L
				214.10717,695.83415L214.3472,695.83415L214.3472,696.07417L214.58723,696.07417L214.82726,696.07417L214.82726,696.3142L215.06729,696.3142
				L215.06729,696.55423"/>
			<path clip-path="url(#SVG_CP_2)" fill="none" stroke="#999999" stroke-width="0.96012" stroke-miterlimit="10" stroke-linecap="round" stroke-linejoin="round" d="
				M221.06805,717.43645L220.82802,717.43645L220.82802,717.19643L220.58799,717.19643L220.58799,717.43645L220.10793,717.43645
				L220.10793,717.19643L220.34796,717.19643L220.58799,717.19643L221.06805,717.19643L221.06805,717.43645L221.06805,717.43645
				"/>
			<path clip-path="url(#SVG_CP_2)" fill="none" stroke="#999999" stroke-width="0.96012" stroke-miterlimit="10" stroke-linecap="round" stroke-linejoin="round" d="
				M221.06805,717.43645L221.30809,717.43645L221.06805,717.43645L221.06805,717.43645"/>
			<path clip-path="url(#SVG_CP_2)" fill="none" stroke="#999999" stroke-width="0.96012" stroke-miterlimit="10" stroke-linecap="round" stroke-linejoin="round" d="
				M221.30809,717.43645L221.30809,717.43645"/>
			<path clip-path="url(#SVG_CP_2)" fill="none" stroke="#999999" stroke-width="0.96012" stroke-miterlimit="10" stroke-linecap="round" stroke-linejoin="round" d="
				M219.62787,717.43645L219.62787,717.43645"/>
			<path clip-path="url(#SVG_CP_2)" fill="none" stroke="#999999" stroke-width="0.96012" stroke-miterlimit="10" stroke-linecap="round" stroke-linejoin="round" d="
				M219.62787,717.67648L219.62787,717.43645L219.62787,717.67648L219.62787,717.67648"/>
			<path clip-path="url(#SVG_CP_2)" fill="none" stroke="#999999" stroke-width="0.96012" stroke-miterlimit="10" stroke-linecap="round" stroke-linejoin="round" d="
				M219.62787,717.67648L219.62787,717.67648"/>
			<path clip-path="url(#SVG_CP_2)" fill="none" stroke="#999999" stroke-width="0.96012" stroke-miterlimit="10" stroke-linecap="round" stroke-linejoin="round" d="
				M219.38784,717.67648L219.62787,717.67648L219.38784,717.67648"/>
			<path clip-path="url(#SVG_CP_2)" fill="none" stroke="#999999" stroke-width="0.96012" stroke-miterlimit="10" stroke-linecap="round" stroke-linejoin="round" d="
				M219.38784,717.67648L219.38784,717.67648"/>
			<path clip-path="url(#SVG_CP_2)" fill="none" stroke="#999999" stroke-width="0.96012" stroke-miterlimit="10" stroke-linecap="round" stroke-linejoin="round" d="
				M219.38784,717.67648L219.38784,717.67648"/>
			<path clip-path="url(#SVG_CP_2)" fill="none" stroke="#999999" stroke-width="0.96012" stroke-miterlimit="10" stroke-linecap="round" stroke-linejoin="round" d="
				M219.38784,717.67648L219.38784,717.67648"/>
			<path clip-path="url(#SVG_CP_2)" fill="none" stroke="#999999" stroke-width="0.96012" stroke-miterlimit="10" stroke-linecap="round" stroke-linejoin="round" d="
				M218.18769,718.63658L218.18769,718.63658"/>
			<path clip-path="url(#SVG_CP_2)" fill="none" stroke="#999999" stroke-width="0.96012" stroke-miterlimit="10" stroke-linecap="round" stroke-linejoin="round" d="
				M218.18769,718.63658L218.18769,718.63658"/>
			<path clip-path="url(#SVG_CP_2)" fill="none" stroke="#999999" stroke-width="0.96012" stroke-miterlimit="10" stroke-linecap="round" stroke-linejoin="round" d="
				M218.18769,718.63658L218.18769,718.63658"/>
			<path clip-path="url(#SVG_CP_2)" fill="none" stroke="#999999" stroke-width="0.96012" stroke-miterlimit="10" stroke-linecap="round" stroke-linejoin="round" d="
				M217.94766,718.63658L218.18769,718.63658L217.94766,718.63658"/>
			<path clip-path="url(#SVG_CP_2)" fill="none" stroke="#999999" stroke-width="0.96012" stroke-miterlimit="10" stroke-linecap="round" stroke-linejoin="round" d="
				M217.94766,718.8766L217.94766,718.63658L217.94766,718.8766L217.94766,718.8766"/>
			<path clip-path="url(#SVG_CP_2)" fill="none" stroke="#999999" stroke-width="0.96012" stroke-miterlimit="10" stroke-linecap="round" stroke-linejoin="round" d="
				M217.94766,718.8766L217.94766,718.8766"/>
			<path clip-path="url(#SVG_CP_2)" fill="none" stroke="#999999" stroke-width="0.96012" stroke-miterlimit="10" stroke-linecap="round" stroke-linejoin="round" d="
				M217.70763,718.8766L217.94766,718.8766L217.70763,718.8766"/>
			<path clip-path="url(#SVG_CP_2)" fill="none" stroke="#999999" stroke-width="0.96012" stroke-miterlimit="10" stroke-linecap="round" stroke-linejoin="round" d="
				M217.70763,718.8766L217.70763,718.8766"/>
			<path clip-path="url(#SVG_CP_2)" fill="none" stroke="#999999" stroke-width="0.96012" stroke-miterlimit="10" stroke-linecap="round" stroke-linejoin="round" d="
				M217.70763,718.8766L217.70763,719.11663L217.70763,718.8766L217.70763,718.8766"/>
			<path clip-path="url(#SVG_CP_2)" fill="none" stroke="#999999" stroke-width="0.96012" stroke-miterlimit="10" stroke-linecap="round" stroke-linejoin="round" d="
				M215.06729,721.27686L215.06729,721.03683L215.06729,721.27686L215.06729,721.27686"/>
			<path clip-path="url(#SVG_CP_2)" fill="none" stroke="#999999" stroke-width="0.96012" stroke-miterlimit="10" stroke-linecap="round" stroke-linejoin="round" d="
				M212.42696,715.9963L212.42696,715.75627L212.66699,715.75627L212.66699,715.51625L212.90702,715.51625L212.90702,715.27622L
				213.14705,715.27622L213.14705,715.0362L213.38708,715.0362L213.38708,714.79617L213.62711,714.79617L213.62711,712.87597L213.62711,711.19579
				L213.86714,711.19579L213.86714,710.95576L213.86714,710.71573L213.86714,710.47571L213.86714,710.23568L214.10717,710.23568
				L214.10717,709.75563L214.10717,709.51561L214.10717,709.03556L214.10717,708.5555L214.10717,708.31548L214.3472,708.31548L214.3472,706.6353
				L214.3472,706.39527L214.58723,706.39527L214.58723,706.15525L214.82726,706.15525L214.82726,705.91522L214.82726,705.6752L214.82726,705.19515
				L214.82726,704.95512L214.82726,701.59476L215.06729,701.59476L215.06729,698.71446L215.30732,698.71446L215.30732,697.51433
				L215.30732,696.55423L215.06729,696.55423L215.06729,696.3142L215.30732,696.3142L215.30732,696.07417L215.30732,695.83415L215.54735,695.83415
				L215.54735,695.59412L215.54735,695.3541L215.54735,695.11407L215.54735,694.87405L215.54735,694.63402L215.54735,694.394L215.78738,694.394
				L215.78738,694.15397L215.78738,693.91394L215.78738,693.67392L215.78738,693.43389L215.78738,693.19387L215.78738,692.95384
				L216.02742,692.95384L216.02742,692.71382L216.02742,692.47379L216.02742,692.23377L216.02742,691.75371L216.02742,691.51369
				L216.02742,691.27366L216.26745,691.27366L216.26745,691.03364L216.26745,690.79361L216.26745,690.55359L216.26745,690.31356
				L216.26745,690.07354L216.26745,689.59348L216.26745,689.35346L216.50748,689.35346L216.50748,689.11343L216.50748,688.87341
				L216.50748,688.63338L216.50748,688.39336L216.50748,688.15333L216.50748,687.91331L216.74751,687.91331L216.74751,687.67328
				L216.74751,687.43325L216.74751,687.19323L216.74751,686.9532L216.74751,686.71318L216.98754,686.71318L217.22757,686.71318L
				217.22757,686.9532L217.22757,687.19323L217.4676,687.19323L217.4676,687.43325L217.4676,687.67328L217.70763,687.67328L217.70763,687.91331
				L217.70763,688.15333L217.70763,688.39336L217.94766,688.39336L217.94766,688.87341L217.94766,689.11343L217.94766,689.35346
				L218.18769,689.35346L218.18769,689.59348L218.42772,689.59348L218.42772,689.83351L218.42772,690.07354L218.42772,690.31356
				L218.66775,690.31356L218.66775,690.55359L218.66775,690.79361L218.66775,691.27366L218.66775,691.51369L218.66775,691.75371
				L218.66775,691.99374L218.90778,691.99374L218.90778,692.23377L218.90778,692.47379L218.90778,693.91394L218.90778,694.15397
				L218.90778,694.394L218.66775,694.394L218.66775,694.63402L218.66775,694.87405L218.42772,694.87405L218.42772,695.11407L218.42772,696.07417
				L218.42772,696.79425L218.42772,697.03428L218.42772,697.2743L218.66775,697.2743L218.66775,697.51433L218.66775,697.99438L218.66775,698.47443
				L218.66775,699.43453L218.66775,699.91458L218.66775,700.15461L218.90778,700.15461L218.90778,700.39464L218.90778,700.87469
				L218.90778,701.59476L218.90778,702.07481L218.90778,702.55487L218.90778,703.27494L219.14781,703.27494L219.14781,703.99502
				L219.14781,704.23504L219.14781,704.7151L219.14781,704.95512L219.14781,705.19515L219.14781,705.6752L218.90778,705.6752L218.90778,705.91522
				L219.14781,705.91522L219.14781,706.15525L219.14781,706.39527L219.14781,706.6353L219.38784,706.6353L219.38784,706.87533L219.38784,707.11535
				L219.62787,707.11535L219.62787,707.35538L219.62787,707.5954L219.8679,707.5954L219.8679,707.83543L220.10793,707.83543L220.10793,708.07545
				L220.34796,708.07545L220.34796,708.31548L220.58799,708.31548L220.58799,708.5555L220.82802,708.5555L220.82802,708.79553L221.06805,708.79553
				L221.06805,709.03556L221.06805,709.27558L221.30809,709.27558L221.30809,709.51561L221.30809,709.75563L221.54812,709.75563
				L221.54812,709.99566L221.54812,710.23568L221.78815,710.23568L221.78815,710.47571L221.78815,710.71573L222.02818,710.71573
				L222.02818,710.95576L222.02818,711.19579L222.26821,711.19579L222.26821,711.43581L222.50824,711.43581L222.50824,711.67584
				L222.50824,711.91586L222.50824,712.15589L222.74827,712.15589L222.74827,712.39591L222.74827,712.63594L222.9883,712.63594L
				222.9883,712.87597L222.9883,713.11599L223.22833,713.11599L223.22833,713.35602L223.22833,713.59604L223.22833,713.83607L223.46836,713.83607
				L223.46836,714.07609L223.46836,714.31612L223.70839,714.31612L223.70839,714.55614L223.70839,714.79617L223.70839,715.0362L
				223.70839,715.27622L223.94842,715.27622L223.94842,715.51625L223.94842,715.75627L223.94842,715.9963L223.94842,716.23632L223.70839,716.23632
				L223.70839,716.47635L223.70839,716.71637L223.70839,716.9564L223.46836,716.9564L223.46836,717.19643L223.46836,717.43645L223.46836,718.15653
				L223.46836,718.39655L223.46836,718.63658L223.70839,718.63658L223.70839,718.8766L223.70839,719.11663L223.70839,719.83671L
				223.70839,720.07673L223.70839,720.31676L223.46836,720.31676L223.46836,720.07673L223.46836,719.83671L223.46836,719.59668L
				223.22833,719.59668L223.22833,719.35666L222.9883,719.35666L222.9883,719.11663L222.9883,718.8766L222.74827,718.8766L222.74827,718.63658
				L222.74827,718.39655L222.50824,718.39655L222.50824,718.15653L222.26821,718.15653L222.26821,717.9165L222.26821,717.67648L
				222.02818,717.67648L222.02818,717.43645L221.78815,717.43645L221.78815,717.19643L221.54812,717.19643L221.30809,717.19643L
				221.30809,716.9564L221.06805,716.9564L220.82802,716.9564L220.82802,716.71637L220.34796,716.71637L220.10793,716.71637L220.10793,716.9564
				L219.8679,716.9564L219.62787,716.9564L219.62787,717.19643L219.38784,717.19643L219.14781,717.19643L219.14781,717.43645L218.90778,717.43645
				L218.90778,717.67648L218.66775,717.67648L218.66775,717.9165L218.42772,717.9165L218.18769,717.9165L218.18769,718.15653L217.94766,718.15653
				L217.94766,718.39655L217.70763,718.39655L217.70763,718.63658L217.4676,718.63658L217.22757,718.63658L217.22757,718.8766L216.98754,718.8766
				L216.98754,719.11663L216.74751,719.11663L216.50748,719.11663L216.26745,719.11663L216.26745,719.35666L216.02742,719.35666
				L215.78738,719.35666L215.78738,719.59668L215.54735,719.59668L215.54735,719.83671L215.30732,719.83671L215.30732,720.07673
				L215.06729,720.07673L215.06729,720.31676L215.06729,720.55678L214.82726,720.55678L214.82726,720.79681L214.58723,720.79681
				L214.58723,721.03683L214.3472,721.03683L214.3472,721.27686L214.10717,721.27686L214.10717,721.51689L213.86714,721.51689L213.62711,721.51689
				L213.62711,721.75691L213.38708,721.75691L213.14705,721.75691L212.90702,721.75691L212.90702,721.99694L212.66699,721.99694
				L212.42696,721.99694L212.42696,721.75691L212.18693,721.75691L211.9469,721.75691L211.9469,721.51689L211.70687,721.51689L211.46684,721.51689
				L211.46684,721.27686L211.46684,721.03683L211.22681,721.03683L211.22681,720.79681L211.22681,720.31676L211.22681,719.83671
				L211.22681,718.63658L211.22681,718.39655L211.22681,718.15653L211.46684,718.15653L211.46684,717.9165L211.46684,717.67648L
				211.70687,717.67648L211.70687,717.43645L211.70687,716.9564L211.70687,716.71637L211.70687,716.47635L211.9469,716.47635L211.9469,716.23632
				L212.18693,716.23632L212.18693,715.9963L212.42696,715.9963"/>
			<path clip-path="url(#SVG_CP_2)" fill="none" stroke="#999999" stroke-width="0.96012" stroke-miterlimit="10" stroke-linecap="round" stroke-linejoin="round" d="
				M215.06729,721.27686L214.82726,721.27686L214.82726,721.51689L214.58723,721.51689L214.58723,721.75691L214.3472,721.75691L
				214.3472,721.99694L214.10717,721.99694L213.86714,721.99694L213.86714,722.23696L213.62711,722.23696L213.38708,722.23696L213.62711,722.23696
				L213.62711,721.99694L213.86714,721.99694L213.86714,721.75691L214.10717,721.75691L214.3472,721.75691L214.3472,721.51689L214.58723,721.51689
				L214.58723,721.27686L214.82726,721.27686L215.06729,721.27686"/>
		</g>
</g></svg>