<?xml version="1.0" encoding="utf-8" standalone="no"?>
<!-- Creator: ESRI ArcMap 10.0.0.2414 -->
<!DOCTYPE svg PUBLIC "-//W3C//DTD SVG 1.1//EN"  "http://www.w3.org/Graphics/SVG/1.1/DTD/svg11.dtd">
<svg width="524.0420768pt" height="386.504696799pt" viewBox="32.15712744 227.8767866 524.0420768 386.504696799" enable-background="new 32.15712744 227.8767866 524.0420768 386.504696799"
	version="1.1" xmlns="http://www.w3.org/2000/svg" xmlns:xlink="http://www.w3.org/1999/xlink" >
	<g id="Couches">
		<g id="cont_2">
			<path clip-path="url(#SVG_CP_2)" fill="none" stroke="#999999" stroke-width="0.96012" stroke-miterlimit="10" stroke-linecap="round" stroke-linejoin="round" d="
				M382.36852,516.77507L382.60855,516.77507L382.60855,516.53504L382.84859,516.53504L385.96898,516.53504L385.96898,516.29502
				L386.20901,516.29502L386.20901,516.05499L386.44904,516.05499L386.44904,516.29502L386.68907,516.29502L386.68907,516.05499
				L386.9291,516.05499L386.9291,515.81497L387.16913,515.81497L387.16913,515.57494L387.16913,515.33492L386.9291,515.33492L386.9291,515.57494
				L386.68907,515.57494L386.68907,515.81497L386.44904,515.81497L386.44904,516.05499L386.20901,516.05499L386.20901,516.29502
				L385.96898,516.29502L385.96898,516.53504L383.80871,516.53504L382.84859,516.53504L382.60855,516.53504L382.60855,516.77507
				L382.36852,516.77507L382.12849,516.77507L382.12849,517.01509L382.36852,517.01509L382.36852,517.25512L382.36852,517.49515
				L382.60855,517.49515L382.60855,517.73517L382.36852,517.73517L382.36852,517.49515L382.36852,517.25512L382.36852,517.01509
				L382.12849,517.01509L382.12849,516.77507L381.88846,516.77507L381.64843,516.77507L381.64843,516.53504L381.4084,516.53504L
				381.4084,516.29502L381.4084,516.05499L381.16837,516.05499L381.16837,515.81497L381.16837,515.57494L380.92834,515.57494L380.68831,515.57494
				L380.68831,515.33492L380.44828,515.33492L380.44828,515.09489L380.20825,515.09489L379.96822,515.09489L379.96822,514.85486
				L379.72819,514.85486L379.72819,514.61484L379.96822,514.61484L380.20825,514.61484L380.20825,514.37481L380.44828,514.37481
				L380.68831,514.37481L380.68831,514.13479L380.92834,514.13479L381.16837,514.13479L381.4084,514.13479L381.4084,513.89476L381.64843,513.89476
				L381.88846,513.89476L381.88846,513.65474L382.12849,513.65474L382.36852,513.65474L382.60855,513.65474L382.84859,513.65474
				L383.08862,513.65474L383.56868,513.65474L383.56868,513.41471L383.56868,513.65474L383.80871,513.65474L384.04874,513.65474
				L384.04874,513.41471L384.28877,513.41471L384.5288,513.41471L384.76883,513.41471L384.76883,513.17468L385.00886,513.17468L
				385.24889,513.17468L385.48892,513.17468L385.48892,512.93466L385.72895,512.93466L385.96898,512.93466L386.20901,512.93466L
				386.44904,512.93466L386.44904,512.69463L386.68907,512.69463L386.9291,512.69463L386.9291,512.45461L387.16913,512.45461L387.40916,512.45461
				L387.40916,512.21458L387.40916,512.45461L387.64919,512.45461L387.64919,512.69463L387.88922,512.69463L387.88922,512.93466
				L388.12926,512.93466L388.12926,513.17468L388.12926,513.41471L387.88922,513.41471L387.88922,513.65474L387.64919,513.65474
				L387.64919,513.89476L387.88922,513.89476L387.88922,514.13479L387.88922,514.37481L388.12926,514.37481L388.36929,514.37481
				L388.36929,514.61484L388.36929,514.85486L388.60932,514.85486L388.60932,515.09489L388.60932,515.33492L388.84935,515.33492
				L388.84935,515.57494L388.84935,515.81497L388.84935,516.05499L389.08938,516.05499L389.08938,516.29502L389.08938,516.53504
				L389.08938,516.77507L389.08938,517.01509L389.08938,517.25512L389.08938,517.49515L389.08938,517.73517L388.84935,517.73517
				L388.84935,517.9752L388.84935,518.21522L388.60932,518.21522L388.60932,518.45525L388.60932,518.69527L388.60932,518.9353L388.36929,518.9353
				L388.36929,519.17532L388.60932,519.17532L388.60932,519.41535L388.60932,519.65538L388.60932,519.8954L388.36929,519.8954L388.36929,520.13543
				L388.36929,520.37545L388.12926,520.37545L388.12926,520.61548L388.12926,520.8555L387.88922,520.8555L387.88922,521.09553L387.64919,521.09553
				L387.64919,521.33555L387.64919,521.57558L387.40916,521.57558L387.40916,521.81561L387.40916,522.05563L387.40916,522.29566
				L387.16913,522.29566L387.16913,522.53568L387.16913,522.77571L386.9291,522.77571L386.9291,523.01573L386.68907,523.01573L386.68907,523.25576
				L386.44904,523.25576L386.44904,523.49578L386.20901,523.49578L386.20901,523.73581L385.96898,523.73581L385.96898,523.97584
				L385.72895,523.97584L385.72895,524.21586L385.48892,524.21586L385.48892,524.45589L385.24889,524.45589L385.24889,524.21586
				L385.24889,523.97584L385.00886,523.97584L385.00886,523.73581L385.00886,523.49578L385.00886,523.25576L384.76883,523.25576
				L384.76883,523.01573L384.76883,522.77571L384.76883,522.53568L384.5288,522.53568L384.5288,522.29566L384.5288,522.05563L384.28877,522.05563
				L384.28877,521.81561L384.28877,521.57558L384.04874,521.57558L384.04874,521.33555L384.04874,521.09553L384.04874,520.8555L
				383.80871,520.8555L383.80871,520.61548L383.80871,520.37545L383.80871,520.13543L383.56868,520.13543L383.56868,519.8954L383.56868,519.65538
				L383.32865,519.65538L383.32865,519.41535L383.32865,519.17532L383.32865,518.9353L383.08862,518.9353L383.08862,518.69527L383.08862,518.45525
				L382.84859,518.45525L382.84859,518.21522L382.84859,517.9752L382.84859,517.73517L382.60855,517.73517L382.60855,517.49515L
				382.60855,517.25512L382.36852,517.25512L382.36852,517.01509L382.36852,516.77507"/>
		</g>
</g></svg>