<?xml version="1.0" encoding="utf-8" standalone="no"?>
<!-- Creator: ESRI ArcMap 10.0.0.2414 -->
<!DOCTYPE svg PUBLIC "-//W3C//DTD SVG 1.1//EN"  "http://www.w3.org/Graphics/SVG/1.1/DTD/svg11.dtd">
<svg width="524.0420768pt" height="219.043689986pt" viewBox="32.15712744 311.607290007 524.0420768 219.043689986" enable-background="new 32.15712744 311.607290007 524.0420768 219.043689986"
	version="1.1" xmlns="http://www.w3.org/2000/svg" xmlns:xlink="http://www.w3.org/1999/xlink" >
	<g id="Couches">
		<g id="reservoirs">
			<clipPath id="SVG_CP_2">
				<path d="M574.39289,21.36228L21.36271,21.36228L21.36271,821.36753L574.39289,821.36753L574.39289,21.36228z"/>
			</clipPath>
			<path clip-path="url(#SVG_CP_2)" fill-opacity="0.2" fill="#2f4493" fill-rule="evenodd" stroke="#2f4493" stroke-width="1" stra="1.44018" stroke-miterlimit="10" stroke-linecap="round" stroke-linejoin="round" d="
				M543.90902,505.25384L544.14905,508.6142L537.18817,508.6142L532.38756,509.5743L531.66747,512.21458L531.9075,515.57494L531.9075,517.25512
				L531.9075,518.45525L531.66747,519.41535L531.9075,521.33555L531.9075,522.77571L531.42744,523.97584L530.94738,525.17596L529.98726,525.89604
				L524.94662,524.21586L520.38604,522.05563L514.86534,519.41535L511.74494,517.73517L509.10461,516.05499L507.42439,514.85486
				L506.22424,513.89476L504.78406,512.93466L504.06397,512.21458L503.34388,511.49451L502.14372,510.05435L499.98345,506.93402
				L496.86305,502.13351L495.42287,499.2532L493.98269,496.37289L490.1422,487.25192L489.90217,487.25192L487.7419,482.21139L500.70354,476.21075
				L501.66366,475.01062L502.62378,473.57046L516.06549,470.45013L528.54707,467.3298L541.50872,480.05116L543.66899,480.77123L
				544.62912,481.25128L545.58924,481.73133L546.54936,482.45141L547.50948,483.17149L547.98954,484.37162L548.4696,485.09169L548.94966,486.05179
				L549.18969,487.25192L549.18969,488.21202L549.18969,489.41215L548.94966,490.37225L548.22957,491.33236L547.74951,492.29246
				L546.78939,493.97264L546.0693,494.69272L547.02942,497.333L547.98954,503.09361L548.4696,505.01382L543.90902,505.25384z"/>
			<path clip-path="url(#SVG_CP_2)" fill-opacity="0.2" fill="#2f4493" fill-rule="evenodd" stroke="#2f4493" stroke-width="1" stra="1.44018" stroke-miterlimit="10" stroke-linecap="round" stroke-linejoin="round" d="
				M290.67689,316.59374L302.67841,343.4766L306.99896,344.4367L311.55954,343.71663L316.84021,345.87686L329.32179,348.03709L322.60094,348.99719
				L316.12012,349.71727L308.19911,349.23722L300.51814,348.51714L295.71753,348.27711L291.15695,347.31701L289.71677,342.75652
				L292.3571,336.27583L296.91768,342.75652L298.59789,341.79642L289.47674,319.23402L285.63625,321.8743L285.15619,326.19476L277.95527,330.03517
				L270.51433,328.59502L266.91387,332.1954L265.47369,337.95601L268.59409,348.03709L268.59409,354.7578L273.15466,363.63875L276.99515,364.35883
				L283.716,380.68057L272.19454,384.04092L265.71372,384.04092L256.1125,379.72046L253.23214,390.76164L247.95147,391.00167L231.86943,383.8009
				L223.22833,397.00231L225.14857,398.68248L222.9883,403.72302L220.10793,402.52289L213.62711,407.80346L201.38556,402.04284L
				192.98449,404.20307L210.02665,433.96624L220.10793,428.68568L223.70839,424.84527L234.74979,421.72494L242.91083,415.24425L
				251.31189,414.28415L251.07186,425.32532L238.83031,432.04604L225.62863,439.72686L217.70763,441.64706L210.26668,442.12711L
				205.22604,441.16701L198.98525,432.04604L192.50443,418.84463L189.86409,408.04348L184.82346,408.28351L192.74446,425.56535L
				192.50443,435.88645L190.58419,443.80729L188.66394,453.40832L176.90245,463.48939L163.94081,470.69016L155.53974,477.89092L
				146.89864,483.17149L134.41706,489.41215L120.01523,496.13287L109.21386,498.77315L107.05359,499.73325L105.37337,500.45333L
				104.89331,500.69335L102.73304,501.89348L100.81279,502.85359L97.6924,505.01382L95.29209,506.45397L92.65176,506.21394L90.49148,505.73389
				L87.61112,505.01382L84.01066,503.57366L81.85039,502.13351L79.93014,500.93338L78.48996,499.49323L76.32969,497.81305L73.92938,495.65282
				L72.4892,493.97264L70.32893,491.33236L69.3688,490.13223L68.64871,488.9321L66.00838,485.33172L63.36804,481.49131L62.40792,480.05116
				L60.96774,477.89092L60.24765,476.45077L60.00762,475.25064L60.00762,474.05052L58.80746,472.61036L57.36728,470.69016L55.9271,471.65026
				L54.72695,468.52993L53.76682,465.16957L52.56667,461.32916L52.08661,459.64898L51.36652,457.24873L50.64643,455.32852L72.96926,442.12711
				L70.32893,436.60653L66.9685,430.36586L59.04749,435.16637L58.3274,435.4064L53.28676,438.76676L47.286,442.36714L47.04597,441.16701
				L47.04597,439.24681L46.80594,437.56663L46.56591,435.88645L46.56591,433.72622L46.56591,430.12584L46.56591,424.84527L46.80594,421.24489
				L46.80594,414.04412L47.04597,411.16381L47.04597,408.28351L47.04597,405.4032L47.286,403.00294L47.286,402.28287L47.52603,399.88261
				L47.76606,396.28223L59.04749,392.68185L62.16789,391.48172L65.52832,390.04156L67.68859,389.32149L73.68935,386.92123L83.5306,383.08082
				L85.69087,382.12072L88.33121,381.16062L95.53212,378.52034L98.17246,377.56023L102.73304,385.7211L107.29362,383.56087L109.45389,387.64131
				L111.61416,386.68121L115.45465,393.1619L117.13487,397.24233L118.33502,403.00294L118.81508,404.92315L119.53517,405.64323L
				120.73532,406.3633L123.61569,412.60397L124.09575,413.56407L124.33578,416.20435L124.81584,418.36458L125.77596,420.04476L126.97611,421.96497
				L128.17627,423.64514L129.85648,424.60525L132.49681,425.80537L132.49681,426.0454L138.97764,423.40512L139.93776,424.84527L
				168.98144,411.88389L184.82346,405.88325L177.14248,388.36138L171.14172,379.00039L167.54126,379.96049L158.18007,384.52098L
				146.65861,362.1986L162.98068,356.67801L173.78205,352.11752L172.5819,357.87814L169.70154,359.55832L169.70154,363.87878L174.02208,368.19924
				L191.54431,402.28287L199.22528,398.92251L211.22681,402.76292L216.26745,402.28287L220.58799,398.20243L229.22909,381.16062
				L232.82955,382.36075L246.75131,388.60141L250.11174,386.68121L253.95223,379.24041L252.51205,377.56023L255.63244,372.03965
				L269.55421,366.27903L267.87399,360.75844L264.27354,361.47852L265.95375,364.59885L258.75284,362.91867L259.2329,357.15806L
				248.43153,355.95793L248.43153,350.67737L253.23214,353.55768L259.2329,352.59757L261.87323,347.07699L257.55268,343.4766L254.43229,333.1555
				L258.99287,335.07571L268.11402,324.03453L271.23442,327.15486L277.71524,326.91484L282.51585,321.15422L284.91616,317.55384
				L290.67689,316.59374z"/>
		</g>
</g></svg>