<?xml version="1.0" encoding="utf-8" standalone="no"?>
<!-- Creator: ESRI ArcMap 10.0.0.2414 -->
<!DOCTYPE svg PUBLIC "-//W3C//DTD SVG 1.1//EN"  "http://www.w3.org/Graphics/SVG/1.1/DTD/svg11.dtd">
<svg width="524.0420768pt" height="280.300044464pt" viewBox="32.15712744 280.979112768 524.0420768 280.300044464" enable-background="new 32.15712744 280.979112768 524.0420768 280.300044464"
	version="1.1" xmlns="http://www.w3.org/2000/svg" xmlns:xlink="http://www.w3.org/1999/xlink" >
	<g id="Couches">
		<g id="cont_2">
			<path clip-path="url(#SVG_CP_2)" fill="none" stroke="#999999" stroke-width="0.96012" stroke-miterlimit="10" stroke-linecap="round" stroke-linejoin="round" d="
				M232.58952,444.04732L232.82955,444.04732L232.58952,444.04732L232.58952,444.04732"/>
			<path clip-path="url(#SVG_CP_2)" fill="none" stroke="#999999" stroke-width="0.96012" stroke-miterlimit="10" stroke-linecap="round" stroke-linejoin="round" d="
				M232.58952,444.04732L232.34949,444.04732L232.34949,443.80729L231.86943,443.80729L231.86943,443.56727L231.62939,443.56727
				L231.14933,443.56727L231.14933,443.32724L230.9093,443.32724L230.42924,443.32724L230.42924,443.08722L230.18921,443.08722L
				230.18921,442.84719L229.70915,442.84719L229.46912,442.84719L229.46912,442.60717L228.98906,442.60717L228.74903,442.60717L
				228.74903,442.36714L228.26897,442.36714L228.26897,442.12711L228.02894,442.12711L227.54888,442.12711L227.54888,441.88709L
				226.34872,441.88709L226.34872,442.12711L224.42848,442.12711L222.50824,442.12711L222.50824,442.36714L220.34796,442.36714L
				220.34796,442.60717L218.66775,442.60717L216.98754,442.60717L216.98754,442.36714L216.50748,442.36714L216.50748,442.12711L
				216.26745,442.12711L216.26745,441.88709L216.02742,441.88709L215.78738,441.88709L215.78738,441.64706L215.54735,441.64706L
				215.54735,441.40704L215.30732,441.40704L215.30732,441.16701L215.06729,441.16701L214.82726,441.16701L214.82726,440.92699L
				214.82726,440.68696L214.3472,440.68696L214.3472,440.44693L214.10717,440.44693L213.86714,440.44693L213.86714,440.20691L213.62711,440.20691
				L213.62711,439.96688L213.38708,439.96688L213.38708,439.72686L213.14705,439.72686L212.90702,439.72686L212.90702,439.48683
				L212.66699,439.48683L212.66699,439.24681L212.18693,439.24681L212.18693,439.00678L211.9469,439.00678L211.9469,438.76676L211.70687,438.76676
				L211.70687,438.52673L211.46684,438.52673L211.46684,438.2867L211.22681,438.2867L210.98678,438.2867L210.98678,438.04668L210.74674,438.04668
				L210.74674,437.80665L210.50671,437.80665L210.50671,437.56663L210.02665,437.56663L210.02665,437.3266L209.78662,437.3266L209.78662,437.08658
				L209.54659,437.08658L209.30656,437.08658L209.30656,436.84655L209.06653,436.84655L209.06653,436.60653L208.58647,436.60653
				L208.58647,436.3665L208.34644,436.3665L208.10641,436.3665L207.86638,436.3665L207.86638,436.84655L207.86638,437.08658L207.62635,437.08658
				L207.62635,437.3266L207.62635,437.56663L207.38632,437.56663L207.38632,437.80665L207.14629,437.80665L207.14629,438.2867L207.14629,438.52673
				L206.90626,438.52673L206.90626,438.76676L206.90626,439.00678L206.66623,439.00678L206.66623,439.24681L206.4262,439.24681L
				206.4262,439.72686L206.4262,439.96688L206.18617,439.96688L206.18617,440.20691L206.18617,440.44693L205.94614,440.44693L205.94614,440.68696
				L205.70611,440.68696L205.70611,441.16701L205.70611,441.40704L205.46607,441.40704L205.46607,441.64706L205.46607,441.88709
				L205.22604,441.88709L205.22604,442.12711L204.98601,442.12711L204.98601,442.60717L204.98601,442.84719L204.74598,442.84719
				L204.74598,443.08722L204.74598,443.32724L204.50595,443.32724L204.50595,443.56727L204.26592,443.56727L204.26592,444.04732
				L204.26592,444.28734L204.02589,444.28734L204.02589,444.52737L204.02589,444.7674L203.78586,444.7674L203.78586,445.00742L203.54583,445.00742
				L203.54583,445.48747L203.54583,445.7275L203.3058,445.7275L203.3058,445.96752L203.3058,446.20755L203.06577,446.20755L203.06577,446.44757
				L202.82574,446.44757L202.82574,446.92763L202.82574,447.16765L202.58571,447.16765L202.58571,447.40768L202.58571,447.6477L
				202.34568,447.6477L202.34568,448.12775L202.10565,448.12775L202.10565,448.36778L202.10565,448.6078L201.86562,448.6078L201.86562,449.08786
				L201.86562,449.32788L201.62559,449.32788L201.62559,449.80793L201.38556,449.80793L201.38556,450.04796L201.38556,450.52801
				L201.14553,450.52801L201.14553,450.76803L201.14553,451.24809L200.9055,451.24809L200.9055,451.48811L200.66547,451.48811L200.66547,451.96816
				L200.66547,452.20819L200.42544,452.20819L200.42544,452.68824L200.42544,452.92826L200.1854,452.92826L200.1854,453.40832L199.94537,453.40832
				L199.94537,453.64834L199.94537,454.12839L199.70534,454.12839L199.70534,454.36842L199.70534,454.84847L199.46531,454.84847
				L199.46531,455.0885L199.22528,455.0885L199.22528,455.56855L199.22528,455.80857L198.98525,455.80857L198.98525,456.28862L198.98525,456.52865
				L198.74522,456.52865L198.74522,457.0087L198.50519,457.0087L198.50519,457.24873L198.50519,457.72878L198.26516,457.72878L198.26516,457.9688
				L198.26516,458.44885L198.02513,458.44885L198.02513,459.16893L197.7851,459.16893L197.7851,459.40896L197.7851,459.88901L197.54507,459.88901
				L197.54507,460.60908L197.54507,460.84911L197.30504,460.84911L197.30504,461.56919L197.06501,461.56919L197.06501,462.04924
				L197.06501,462.28926L196.82498,462.28926L196.82498,463.00934L196.82498,463.24936L196.58495,463.24936L196.58495,463.72942
				L196.34492,463.72942L196.34492,464.44949L196.34492,464.68952L196.10489,464.68952L196.10489,465.16957L196.10489,465.88965
				L194.90473,465.88965L194.90473,465.64962L195.14476,465.64962L195.14476,465.16957L195.3848,465.16957L195.3848,464.68952L195.3848,463.96944
				L195.62483,463.96944L195.62483,463.72942L195.62483,463.00934L195.86486,463.00934L195.86486,462.52929L196.10489,462.52929
				L196.10489,462.04924L196.10489,461.56919L196.34492,461.56919L196.34492,461.08913L196.34492,460.60908L196.58495,460.60908
				L196.58495,460.12903L196.82498,460.12903L196.82498,459.64898L196.82498,459.16893L197.06501,459.16893L197.06501,458.68888
				L197.06501,458.20883L197.30504,458.20883L197.30504,457.72878L197.54507,457.72878L197.54507,457.48875L197.54507,457.0087L
				197.7851,457.0087L197.7851,456.52865L197.7851,456.28862L198.02513,456.28862L198.02513,455.80857L198.26516,455.80857L198.26516,455.56855
				L198.26516,455.0885L198.50519,455.0885L198.50519,454.60844L198.50519,454.36842L198.74522,454.36842L198.74522,453.88837L198.98525,453.88837
				L198.98525,453.40832L198.98525,452.92826L199.22528,452.92826L199.22528,452.68824L199.22528,452.20819L199.46531,452.20819
				L199.46531,451.96816L199.70534,451.96816L199.70534,451.48811L199.70534,451.24809L199.94537,451.24809L199.94537,450.76803
				L199.94537,450.52801L200.1854,450.52801L200.1854,450.28798L200.42544,450.28798L200.42544,449.80793L200.42544,449.56791L200.66547,449.56791
				L200.66547,449.32788L200.66547,449.08786L200.9055,449.08786L200.9055,448.6078L201.14553,448.6078L201.14553,448.36778L201.14553,447.88773
				L201.38556,447.88773L201.38556,447.6477L201.38556,447.16765L201.62559,447.16765L201.62559,446.92763L201.86562,446.92763L
				201.86562,446.6876L201.86562,446.44757L202.10565,446.44757L202.10565,445.96752L202.10565,445.7275L202.34568,445.7275L202.34568,445.48747
				L202.58571,445.48747L202.58571,445.00742L202.58571,444.7674L202.82574,444.7674L202.82574,444.28734L202.82574,444.04732L203.06577,444.04732
				L203.06577,443.80729L203.3058,443.80729L203.3058,443.32724L203.3058,443.08722L203.54583,443.08722L203.54583,442.84719L203.54583,442.36714
				L203.78586,442.36714L203.78586,442.12711L204.02589,442.12711L204.02589,441.88709L204.02589,441.40704L204.26592,441.40704
				L204.26592,441.16701L204.26592,440.68696L204.50595,440.68696L204.50595,440.44693L204.74598,440.44693L204.74598,440.20691
				L204.74598,439.72686L204.98601,439.72686L204.98601,439.48683L204.98601,439.24681L205.22604,439.24681L205.22604,439.00678
				L205.46607,439.00678L205.46607,438.52673L205.46607,438.2867L205.70611,438.2867L205.70611,437.80665L205.70611,437.56663L205.94614,437.56663
				L205.94614,437.08658L206.18617,437.08658L206.18617,436.84655L206.18617,436.60653L206.4262,436.60653L206.4262,436.12647L206.4262,435.88645
				L206.66623,435.88645L206.66623,435.64642L206.90626,435.64642L206.90626,435.16637L206.90626,434.92635L207.14629,434.92635
				L207.14629,434.4463L207.14629,434.20627L207.38632,434.20627L207.38632,433.72622L207.62635,433.72622L207.62635,433.48619L
				207.62635,433.24617L207.86638,433.24617L207.86638,432.76612L207.86638,432.52609L208.10641,432.52609L208.10641,432.04604L
				208.34644,432.04604L208.34644,431.80601L208.34644,431.56599L208.58647,431.56599L208.58647,431.08594L208.58647,430.84591L
				208.8265,430.84591L208.8265,430.36586L209.06653,430.36586L209.06653,430.12584L209.06653,429.64578L209.30656,429.64578L209.30656,429.40576
				L209.30656,428.92571L209.54659,428.92571L209.54659,428.68568L209.78662,428.68568L209.78662,428.20563L209.78662,427.9656L
				210.02665,427.9656L210.02665,427.48555L210.02665,427.24553L210.26668,427.24553L210.26668,426.76548L210.50671,426.76548L210.50671,426.52545
				L210.50671,426.0454L210.74674,426.0454L210.74674,425.80537L210.74674,425.56535L210.98678,425.56535L210.98678,425.32532L211.22681,425.32532
				L211.22681,424.84527L211.22681,424.60525L211.46684,424.60525L211.46684,424.36522L211.46684,423.88517L211.70687,423.88517
				L211.70687,423.64514L211.9469,423.64514L211.9469,423.40512L211.9469,422.92507L212.18693,422.92507L212.18693,422.68504L212.18693,422.44502
				L212.42696,422.44502L212.42696,422.20499L212.66699,422.20499L212.66699,421.72494L212.66699,421.48491L212.90702,421.48491
				L212.90702,421.00486L212.90702,420.76484L213.14705,420.76484L213.14705,420.52481L213.38708,420.52481L213.38708,420.28479
				L213.38708,420.04476L213.62711,420.04476L213.62711,419.56471L213.62711,419.32468L213.86714,419.32468L213.86714,418.84463
				L214.10717,418.84463L214.10717,418.60461L214.10717,418.36458L214.3472,418.36458L214.3472,418.12456L214.3472,417.64451L214.58723,417.64451
				L214.58723,417.16445L214.3472,417.16445L214.10717,417.16445L214.10717,416.92443L213.62711,416.92443L213.62711,416.6844L213.38708,416.6844
				L213.14705,416.6844L213.14705,416.44438L212.90702,416.44438L212.66699,416.44438L212.66699,416.20435L212.18693,416.20435L
				212.18693,415.96433L211.9469,415.96433L211.70687,415.96433L211.70687,415.7243L211.22681,415.7243L210.98678,415.7243L210.98678,415.48427
				L210.74674,415.48427L210.74674,415.24425L210.50671,415.24425L210.02665,415.24425L210.02665,415.00422L209.78662,415.00422
				L209.06653,415.00422L208.34644,415.00422L208.34644,415.24425L208.34644,415.00422L204.98601,415.00422L202.82574,415.00422
				L202.82574,415.48427L202.82574,416.92443L202.58571,416.92443L202.58571,418.36458L202.58571,419.80474L202.34568,419.80474
				L202.34568,421.24489L202.10565,421.24489L202.10565,421.96497L200.66547,421.96497L200.66547,422.20499L198.26516,422.20499
				L195.86486,422.20499L195.86486,422.44502L193.46455,422.44502L191.06425,422.44502L191.06425,422.68504L188.90397,422.68504
				L188.90397,422.92507L186.50367,422.92507L185.30352,422.92507L185.78358,422.92507L185.78358,422.68504L185.78358,422.44502
				L186.02361,422.44502L186.50367,422.44502L186.50367,422.20499L186.7437,422.20499L186.7437,421.96497L186.98373,421.96497L186.98373,421.72494
				L187.22376,421.72494L187.46379,421.72494L187.46379,421.48491L187.70382,421.48491L187.70382,421.24489L187.94385,421.24489
				L187.94385,421.00486L188.18388,421.00486L188.42391,421.00486L188.42391,420.76484L188.66394,420.76484L188.90397,420.76484
				L188.90397,420.52481L189.144,420.52481L189.144,420.28479L189.38403,420.28479L189.62406,420.28479L189.62406,420.04476L189.86409,420.04476
				L190.10413,420.04476L190.10413,419.80474L190.34416,419.80474L190.34416,419.56471L190.58419,419.56471L190.82422,419.56471
				L190.82422,419.32468L191.06425,419.32468L191.54431,419.32468L191.54431,419.08466L191.78434,419.08466L191.78434,418.84463
				L192.02437,418.84463L192.74446,418.84463L192.74446,418.60461L193.22452,418.60461L193.70458,418.60461L193.70458,418.36458
				L194.18464,418.36458L194.18464,418.12456L194.42467,418.12456L194.90473,418.12456L194.90473,417.88453L195.62483,417.88453
				L196.10489,417.88453L196.10489,417.64451L196.58495,417.64451L196.58495,417.40448L197.06501,417.40448L197.54507,417.40448
				L197.54507,417.16445L197.7851,417.16445L197.7851,416.6844L198.02513,416.6844L198.26516,416.6844L198.26516,416.44438L198.26516,416.20435
				L198.50519,416.20435L198.50519,415.96433L198.50519,415.7243L198.74522,415.7243L198.98525,415.7243L198.98525,415.24425L199.22528,415.24425
				L199.22528,415.00422L199.22528,414.7642L199.46531,414.7642L199.46531,414.52417L199.70534,414.52417L199.70534,414.28415L199.94537,414.28415
				L199.94537,414.04412L200.1854,414.04412L200.1854,413.8041L200.42544,413.8041L200.42544,413.56407L200.66547,413.56407L200.66547,413.32404
				L200.66547,413.08402L200.9055,413.08402L201.14553,413.08402L201.14553,412.84399L201.38556,412.84399L201.86562,412.84399L
				201.86562,412.60397L201.86562,412.36394L202.34568,412.36394L202.58571,412.36394L202.58571,412.12392L202.82574,412.12392L
				203.54583,412.12392L203.54583,411.88389L204.74598,411.88389L204.74598,411.64387L205.46607,411.64387L206.18617,411.64387L
				206.18617,411.40384L207.62635,411.40384L208.58647,411.40384L208.58647,411.16381L210.02665,411.16381L210.02665,411.40384L
				210.98678,411.40384L211.46684,411.40384L211.46684,411.64387L212.18693,411.64387L213.86714,411.64387L213.86714,411.88389L
				215.78738,411.88389L215.78738,412.12392L216.26745,412.12392L216.74751,412.12392L217.22757,412.12392L217.70763,412.12392L
				217.70763,412.36394L217.94766,412.36394L218.18769,412.36394L218.18769,412.60397L218.66775,412.60397L218.66775,412.84399L
				218.90778,412.84399L219.14781,412.84399L219.14781,413.08402L219.38784,413.08402L219.38784,413.32404L219.62787,413.32404L
				219.62787,413.56407L219.8679,413.56407L219.8679,413.8041L220.10793,413.8041L220.10793,414.04412L220.10793,414.28415L220.34796,414.28415
				L220.34796,414.52417L220.58799,414.52417L220.82802,414.52417L220.82802,415.00422L220.82802,415.24425L221.06805,415.24425
				L221.06805,416.6844L221.06805,417.16445L221.30809,417.16445L221.30809,420.76484L221.54812,420.76484L221.54812,421.96497L
				221.54812,423.16509L221.78815,423.16509L221.78815,424.1252L221.78815,424.84527L222.02818,424.84527L222.02818,425.32532L222.26821,425.32532
				L222.26821,425.56535L222.26821,425.80537L222.50824,425.80537L222.50824,426.0454L222.50824,426.28543L222.74827,426.28543L
				222.74827,426.52545L222.9883,426.52545L222.9883,426.76548L222.9883,427.0055L223.22833,427.0055L223.22833,427.24553L223.46836,427.24553
				L223.46836,427.48555L223.70839,427.48555L223.70839,427.9656L223.94842,427.9656L223.94842,428.20563L223.94842,428.68568L224.18845,428.68568
				L224.18845,428.92571L224.42848,428.92571L224.42848,429.40576L224.66851,429.40576L224.66851,429.64578L224.90854,429.64578
				L224.90854,430.12584L225.14857,430.12584L225.14857,430.36586L225.3886,430.36586L225.3886,430.60589L225.3886,430.84591L225.62863,430.84591
				L225.62863,431.08594L225.86866,431.08594L225.86866,431.32596L225.86866,431.56599L226.10869,431.56599L226.10869,431.80601
				L226.10869,432.04604L226.34872,432.04604L226.34872,432.28607L226.58876,432.28607L226.58876,432.52609L226.58876,432.76612
				L226.82879,432.76612L226.82879,433.00614L226.82879,433.24617L227.06882,433.24617L227.30885,433.24617L227.30885,433.48619
				L227.30885,433.72622L227.54888,433.72622L227.54888,434.20627L227.54888,434.4463L227.78891,434.4463L227.78891,434.92635L228.02894,434.92635
				L228.02894,435.16637L228.02894,435.64642L228.26897,435.64642L228.26897,435.88645L228.26897,436.3665L228.509,436.3665L228.509,436.60653
				L228.74903,436.60653L228.74903,436.84655L228.74903,437.3266L228.98906,437.3266L228.98906,437.56663L228.98906,437.80665L229.22909,437.80665
				L229.22909,438.2867L229.46912,438.2867L229.46912,438.52673L229.46912,438.76676L229.70915,438.76676L229.70915,439.00678L229.70915,439.24681
				L229.94918,439.24681L229.94918,439.72686L230.18921,439.72686L230.18921,439.96688L230.18921,440.20691L230.42924,440.20691
				L230.42924,440.44693L230.42924,440.68696L230.66927,440.68696L230.66927,440.92699L230.9093,440.92699L230.9093,441.16701L230.9093,441.40704
				L231.14933,441.40704L231.14933,441.88709L231.38936,441.88709L231.38936,442.12711L231.62939,442.12711L231.62939,442.36714
				L231.86943,442.36714L231.86943,442.60717L232.10946,442.60717L232.10946,442.84719L232.34949,442.84719L232.34949,443.08722
				L232.34949,443.32724L232.58952,443.32724L232.58952,443.56727L232.58952,444.04732"/>
			<path clip-path="url(#SVG_CP_2)" fill="none" stroke="#999999" stroke-width="0.96012" stroke-miterlimit="10" stroke-linecap="round" stroke-linejoin="round" d="
				M213.38708,525.89604L212.90702,525.89604L212.90702,525.65601L213.38708,525.65601L213.38708,525.89604"/>
			<path clip-path="url(#SVG_CP_2)" fill="none" stroke="#999999" stroke-width="0.96012" stroke-miterlimit="10" stroke-linecap="round" stroke-linejoin="round" d="
				M209.78662,526.13607L208.10641,526.13607L208.10641,525.89604L209.78662,525.89604L209.78662,526.13607"/>
			<path clip-path="url(#SVG_CP_2)" fill="none" stroke="#999999" stroke-width="0.96012" stroke-miterlimit="10" stroke-linecap="round" stroke-linejoin="round" d="
				M214.82726,526.13607L214.3472,526.13607L214.3472,525.89604L214.82726,525.89604L214.82726,526.13607"/>
			<path clip-path="url(#SVG_CP_2)" fill="none" stroke="#999999" stroke-width="0.96012" stroke-miterlimit="10" stroke-linecap="round" stroke-linejoin="round" d="
				M204.98601,526.13607L203.3058,526.13607L204.98601,526.13607L204.98601,526.13607"/>
			<path clip-path="url(#SVG_CP_2)" fill="none" stroke="#999999" stroke-width="0.96012" stroke-miterlimit="10" stroke-linecap="round" stroke-linejoin="round" d="
				M216.50748,526.13607L216.02742,526.13607L216.50748,526.13607L216.50748,526.13607"/>
			<path clip-path="url(#SVG_CP_2)" fill="none" stroke="#999999" stroke-width="0.96012" stroke-miterlimit="10" stroke-linecap="round" stroke-linejoin="round" d="
				M200.42544,526.37609L198.50519,526.37609L198.50519,526.13607L200.42544,526.13607L200.42544,526.37609"/>
			<path clip-path="url(#SVG_CP_2)" fill="none" stroke="#999999" stroke-width="0.96012" stroke-miterlimit="10" stroke-linecap="round" stroke-linejoin="round" d="
				M217.94766,526.37609L217.4676,526.37609L217.4676,526.13607L217.94766,526.13607L217.94766,526.37609"/>
			<path clip-path="url(#SVG_CP_2)" fill="none" stroke="#999999" stroke-width="0.96012" stroke-miterlimit="10" stroke-linecap="round" stroke-linejoin="round" d="
				M195.62483,526.37609L194.42467,526.37609L195.62483,526.37609L195.62483,526.37609"/>
			<path clip-path="url(#SVG_CP_2)" fill="none" stroke="#999999" stroke-width="0.96012" stroke-miterlimit="10" stroke-linecap="round" stroke-linejoin="round" d="
				M194.18464,526.61612L194.18464,526.37609L194.18464,526.61612"/>
			<path clip-path="url(#SVG_CP_2)" fill="none" stroke="#999999" stroke-width="0.96012" stroke-miterlimit="10" stroke-linecap="round" stroke-linejoin="round" d="
				M193.94461,526.85614L193.94461,526.61612L193.94461,526.85614"/>
			<path clip-path="url(#SVG_CP_2)" fill="none" stroke="#999999" stroke-width="0.96012" stroke-miterlimit="10" stroke-linecap="round" stroke-linejoin="round" d="
				M193.70458,526.85614L193.46455,526.85614L193.70458,526.85614L193.70458,526.85614"/>
			<path clip-path="url(#SVG_CP_2)" fill="none" stroke="#999999" stroke-width="0.96012" stroke-miterlimit="10" stroke-linecap="round" stroke-linejoin="round" d="
				M193.46455,527.09617L193.22452,527.09617L193.22452,526.85614L193.46455,526.85614L193.46455,527.09617"/>
			<path clip-path="url(#SVG_CP_2)" fill="none" stroke="#999999" stroke-width="0.96012" stroke-miterlimit="10" stroke-linecap="round" stroke-linejoin="round" d="
				M192.74446,527.57622L192.50443,527.57622L192.50443,527.33619L192.74446,527.33619L192.74446,527.57622"/>
			<path clip-path="url(#SVG_CP_2)" fill="none" stroke="#999999" stroke-width="0.96012" stroke-miterlimit="10" stroke-linecap="round" stroke-linejoin="round" d="
				M191.30428,528.2963L191.06425,528.2963L191.06425,526.85614L190.82422,526.85614L190.82422,525.41599L190.82422,523.97584L190.58419,523.97584
				L190.58419,522.29566L190.34416,522.29566L190.34416,520.8555L190.34416,519.17532L190.10413,519.17532L190.10413,517.73517L
				190.10413,516.29502L189.86409,516.29502L189.86409,513.65474L189.62406,513.65474L189.62406,508.37417L189.62406,507.6541L189.62406,498.05307
				L189.86409,498.05307L189.86409,496.13287L190.10413,496.13287L190.10413,494.21266L190.10413,492.29246L190.34416,492.29246
				L190.34416,490.85231L190.34416,489.65218L190.58419,489.65218L190.58419,488.21202L190.82422,488.21202L190.82422,486.77187
				L190.82422,485.33172L191.06425,485.33172L191.06425,483.89156L191.06425,483.17149L191.30428,483.17149L191.30428,482.45141
				L191.54431,482.45141L191.54431,481.73133L191.54431,481.01126L191.78434,481.01126L191.78434,480.05116L191.78434,479.33108
				L192.02437,479.33108L192.02437,478.611L192.02437,477.89092L192.2644,477.89092L192.2644,477.17085L192.50443,477.17085L192.50443,476.45077
				L192.50443,475.73069L192.74446,475.73069L192.74446,475.01062L192.74446,474.29054L192.98449,474.29054L192.98449,473.57046
				L193.22452,473.57046L193.22452,473.09041L193.22452,472.37034L193.46455,472.37034L193.46455,471.65026L193.46455,470.93018
				L193.70458,470.93018L193.70458,470.21011L193.94461,470.21011L193.94461,469.73006L193.94461,469.25L194.18464,469.25L194.18464,468.76995
				L194.18464,468.2899L194.42467,468.2899L194.42467,467.56983L194.6647,467.56983L194.6647,467.3298L194.6647,466.60972L194.90473,466.60972
				L194.90473,466.12967L194.90473,465.88965L195.14476,465.88965L195.14476,466.12967L195.86486,466.12967L195.86486,466.3697L
				195.62483,466.3697L195.62483,466.84975L195.62483,467.56983L195.3848,467.56983L195.3848,468.04988L195.3848,468.76995L195.14476,468.76995
				L195.14476,469.25L194.90473,469.25L194.90473,469.73006L194.90473,470.45013L194.6647,470.45013L194.6647,471.17021L194.6647,471.65026
				L194.42467,471.65026L194.42467,472.37034L194.18464,472.37034L194.18464,473.09041L194.18464,473.81049L193.94461,473.81049
				L193.94461,474.53057L193.94461,475.25064L193.70458,475.25064L193.70458,475.97072L193.46455,475.97072L193.46455,476.6908L
				193.46455,477.17085L193.22452,477.17085L193.22452,477.89092L193.22452,478.85103L192.98449,478.85103L192.98449,479.5711L192.74446,479.5711
				L192.74446,480.53121L192.74446,481.25128L192.50443,481.25128L192.50443,481.97136L192.50443,482.93146L192.2644,482.93146L
				192.2644,483.89156L192.02437,483.89156L192.02437,484.61164L192.02437,485.33172L191.78434,485.33172L191.78434,486.29182L191.78434,487.0119
				L191.54431,487.0119L191.54431,488.45205L191.54431,490.13223L191.30428,490.13223L191.30428,491.81241L191.06425,491.81241L
				191.06425,493.49259L191.06425,495.17277L190.82422,495.17277L190.82422,498.53312L190.82422,503.81369L190.58419,503.81369L
				190.58419,508.6142L190.82422,508.6142L190.82422,512.21458L190.82422,515.57494L191.06425,515.57494L191.06425,518.69527L191.06425,519.8954
				L191.30428,519.8954L191.30428,520.8555L191.54431,520.8555L191.54431,522.05563L191.54431,523.01573L191.78434,523.01573L191.78434,524.21586
				L191.78434,525.17596L192.02437,525.17596L192.02437,526.37609L192.02437,527.33619L192.2644,527.33619L192.2644,527.57622L192.50443,527.57622
				L192.02437,527.57622L192.02437,527.81625L191.78434,527.81625L191.54431,527.81625L191.54431,528.05627L191.30428,528.05627
				L191.30428,528.2963"/>
			<path clip-path="url(#SVG_CP_2)" fill="none" stroke="#999999" stroke-width="0.96012" stroke-miterlimit="10" stroke-linecap="round" stroke-linejoin="round" d="
				M165.62102,530.45653L164.18084,530.45653L164.18084,530.2165L163.94081,530.2165L163.94081,529.97648L163.70077,529.97648L163.46074,529.97648
				L163.46074,529.73645L163.46074,529.49642L163.22071,529.49642L163.22071,529.2564L163.22071,529.01637L162.98068,529.01637L
				162.98068,528.77635L162.74065,528.77635L162.74065,528.53632L166.10108,528.53632L166.10108,528.2963L190.82422,528.2963L190.82422,528.53632
				L190.34416,528.53632L190.34416,528.77635L190.10413,528.77635L190.10413,529.01637L189.62406,529.01637L189.38403,529.01637
				L189.38403,529.2564L188.18388,529.2564L183.86333,529.2564L183.86333,529.49642L179.54278,529.49642L179.54278,529.73645L175.46227,529.73645
				L171.62178,529.73645L171.62178,529.97648L169.70154,529.97648L167.78129,529.97648L167.78129,530.2165L165.62102,530.2165L165.62102,530.45653
				"/>
		</g>
</g></svg>