<?xml version="1.0" encoding="utf-8" standalone="no"?>
<!-- Creator: ESRI ArcMap 10.0.0.2414 -->
<!DOCTYPE svg PUBLIC "-//W3C//DTD SVG 1.1//EN"  "http://www.w3.org/Graphics/SVG/1.1/DTD/svg11.dtd">
<svg width="360.839744331pt" height="741.1872776pt" viewBox="117.331307834 45.48194658 360.839744331 741.1872776" enable-background="new 117.331307834 45.48194658 360.839744331 741.1872776"
	version="1.1" xmlns="http://www.w3.org/2000/svg" xmlns:xlink="http://www.w3.org/1999/xlink" >
	<g id="Couches">
		<g id="cont_2">
			<path clip-path="url(#SVG_CP_2)" fill="none" stroke="#999999" stroke-width="0.96012" stroke-miterlimit="10" stroke-linecap="round" stroke-linejoin="round" d="
				M299.55802,481.73133L299.07795,481.73133L299.07795,481.49131L299.55802,481.49131L299.55802,481.73133"/>
			<path clip-path="url(#SVG_CP_2)" fill="none" stroke="#999999" stroke-width="0.96012" stroke-miterlimit="10" stroke-linecap="round" stroke-linejoin="round" d="
				M463.25879,664.63082L463.25879,658.39016L463.01876,658.39016L463.01876,658.15013L462.77873,658.15013L462.77873,657.91011
				L462.5387,657.91011L462.5387,657.67008L462.05864,657.67008L462.05864,657.43006L461.81861,657.43006L461.81861,657.19003L461.57858,657.19003
				L461.57858,656.95001L461.33855,656.95001L461.33855,656.70998L461.09852,656.70998L461.09852,656.46995L460.85848,656.46995
				L460.85848,655.9899L460.61845,655.9899L460.61845,655.74988L460.37842,655.74988L460.37842,655.50985L460.13839,655.50985L460.13839,655.26983
				L459.89836,655.26983L459.89836,655.0298L459.65833,655.0298L459.65833,654.78978L459.4183,654.78978L459.4183,654.54975L459.17827,654.54975
				L459.17827,654.30972L458.93824,654.30972L458.93824,654.0697L458.69821,654.0697L458.69821,653.82967L458.45818,653.82967L458.45818,653.58965
				L457.97812,653.58965L457.97812,653.34962L457.73809,653.34962L457.73809,653.1096L457.49806,653.1096L457.49806,652.86957L457.25803,652.86957
				L457.25803,652.62955L457.018,652.62955L457.018,652.38952L456.77797,652.38952L456.77797,652.14949L456.53794,652.14949L456.53794,651.66944
				L456.29791,651.66944L456.29791,651.42942L456.05788,651.42942L456.05788,651.18939L455.81785,651.18939L455.81785,650.94937
				L455.57781,650.94937L455.57781,650.70934L455.33778,650.70934L455.33778,650.46932L455.09775,650.46932L455.09775,650.22929
				L454.85772,650.22929L454.85772,649.98926L454.61769,649.98926L454.61769,649.74924L454.37766,649.74924L454.37766,649.50921
				L454.13763,649.50921L454.13763,649.26919L453.65757,649.26919L453.65757,649.02916L453.41754,649.02916L453.41754,648.78914
				L453.17751,648.78914L453.17751,648.54911L452.93748,648.54911L452.93748,648.30908L452.69745,648.30908L452.69745,648.06906
				L452.45742,648.06906L452.45742,647.58901L452.21739,647.58901L452.21739,647.34898L451.97736,647.34898L451.97736,647.10896
				L451.73733,647.10896L451.73733,646.86893L451.4973,646.86893L451.4973,646.62891L451.25727,646.62891L451.25727,646.38888L451.01724,646.38888
				L451.01724,646.14885L450.77721,646.14885L450.77721,645.90883L450.53717,645.90883L450.53717,645.6688L450.29714,645.6688L450.29714,645.42878
				L450.05711,645.42878L450.05711,645.18875L449.81708,645.18875L449.81708,644.94873L449.33702,644.94873L449.33702,644.7087L
				449.09699,644.7087L449.09699,644.46868L448.85696,644.46868L448.85696,644.22865L448.61693,644.22865L448.61693,643.98862L448.3769,643.98862
				L448.3769,643.7486L448.13687,643.7486L448.13687,643.26855L447.89684,643.26855L447.89684,642.7885L447.65681,642.7885L447.65681,642.54847
				L447.41678,642.54847L447.41678,642.30845L447.17675,642.30845L447.17675,642.06842L446.93672,642.06842L446.93672,641.82839
				L446.69669,641.82839L446.69669,641.58837L446.45666,641.58837L446.45666,641.34834L446.21663,641.34834L446.21663,641.10832
				L445.9766,641.10832L445.9766,640.86829L445.73657,640.86829L445.73657,640.62827L445.49654,640.62827L445.49654,640.38824L445.01647,640.38824
				L445.01647,640.14822L444.77644,640.14822L444.77644,639.90819L444.53641,639.90819L444.53641,639.66816L444.29638,639.66816
				L444.29638,639.42814L444.05635,639.42814L444.05635,638.94809L443.81632,638.94809L443.81632,638.70806L443.57629,638.70806
				L443.57629,638.46804L443.33626,638.46804L443.33626,638.22801L443.09623,638.22801L443.09623,637.98799L442.8562,637.98799L
				442.8562,637.74796L442.61617,637.74796L442.61617,637.50793L442.37614,637.50793L442.37614,637.26791L442.13611,637.26791L442.13611,637.02788
				L441.89608,637.02788L441.89608,636.78786L441.65605,636.78786L441.65605,636.54783L441.41602,636.54783L441.41602,636.30781
				L441.17599,636.30781L441.17599,636.06778L440.69593,636.06778L440.69593,635.82775L440.4559,635.82775L440.4559,635.58773L440.21587,635.58773
				L440.21587,635.3477L439.97583,635.3477L439.97583,635.10768L439.7358,635.10768L439.7358,634.62763L439.49577,634.62763L439.49577,634.3876
				L439.25574,634.3876L439.25574,634.14758L439.01571,634.14758L439.01571,633.90755L438.77568,633.90755L438.77568,633.66752L
				438.53565,633.66752L438.53565,633.4275L438.29562,633.4275L438.29562,633.18747L438.05559,633.18747L438.05559,632.94745L437.81556,632.94745
				L437.81556,632.70742L437.57553,632.70742L437.57553,632.4674L437.3355,632.4674L437.3355,632.22737L437.09547,632.22737L437.09547,631.98735
				L436.85544,631.98735L436.85544,631.74732L436.37538,631.74732L436.37538,631.50729L436.13535,631.50729L436.13535,631.26727
				L435.89532,631.26727L435.89532,631.02724L435.65529,631.02724L435.65529,630.78722L435.41526,630.78722L435.41526,630.30717
				L435.17523,630.30717L435.17523,630.06714L434.9352,630.06714L434.9352,629.82712L434.69516,629.82712L434.69516,629.58709L434.45513,629.58709
				L434.45513,629.34706L434.2151,629.34706L434.2151,629.10704L433.97507,629.10704L433.97507,628.86701L433.73504,628.86701L433.73504,628.62699
				L433.49501,628.62699L433.49501,628.38696L433.25498,628.38696L433.25498,628.14694L433.01495,628.14694L433.01495,627.90691
				L432.77492,627.90691L432.77492,627.66689L432.29486,627.66689L432.29486,627.42686L432.05483,627.42686L432.05483,627.18683
				L431.8148,627.18683L431.8148,626.94681L431.57477,626.94681L431.57477,622.86637L431.33474,622.86637L431.33474,622.38632L431.09471,622.38632
				L431.09471,621.18619L430.85468,621.18619L430.85468,620.46612L430.61465,620.46612L430.61465,620.22609L430.37462,620.22609
				L430.37462,619.98607L430.13459,619.98607L430.13459,619.74604L429.89456,619.74604L429.89456,619.50602L429.65452,619.50602
				L429.65452,619.26599L429.41449,619.26599L429.41449,619.02596L429.17446,619.02596L429.17446,618.78594L428.93443,618.78594
				L428.93443,618.54591L428.6944,618.54591L428.6944,618.30589L428.45437,618.30589L428.45437,595.98351L428.6944,595.98351L428.6944,595.74348
				L428.93443,595.74348L428.93443,595.50346L429.17446,595.50346L429.17446,566.94041L428.93443,566.94041L428.93443,563.82008
				L428.6944,563.82008L428.6944,563.58006L428.45437,563.58006L428.45437,563.34003L427.97431,563.34003L427.97431,563.1L427.73428,563.1
				L427.73428,562.85998L427.49425,562.85998L427.49425,562.61995L427.25422,562.61995L427.25422,562.37993L427.01419,562.37993
				L427.01419,561.89988L426.77416,561.89988L426.77416,561.65985L426.53413,561.65985L426.53413,561.41983L426.2941,561.41983L
				426.2941,561.1798L426.05407,561.1798L426.05407,560.93977L425.81404,560.93977L425.81404,560.69975L425.57401,560.69975L425.57401,560.45972
				L425.33398,560.45972L425.33398,560.2197L425.09395,560.2197L425.09395,559.97967L424.85392,559.97967L424.85392,559.73965L424.61389,559.73965
				L424.61389,559.49962L424.37385,559.49962L424.37385,559.2596L424.13382,559.2596L424.13382,559.01957L423.65376,559.01957L423.65376,558.77954
				L423.41373,558.77954L423.41373,558.53952L423.1737,558.53952L423.1737,558.29949L422.93367,558.29949L422.93367,557.81944L422.69364,557.81944
				L422.69364,557.57942L422.45361,557.57942L422.45361,557.33939L422.21358,557.33939L422.21358,557.09937L421.97355,557.09937
				L421.97355,556.85934L421.73352,556.85934L421.73352,556.61931L421.49349,556.61931L421.49349,556.37929L421.25346,556.37929
				L421.25346,556.13926L421.01343,556.13926L421.01343,555.89924L420.7734,555.89924L420.7734,555.65921L420.53337,555.65921L420.53337,555.41919
				L420.29334,555.41919L420.29334,555.17916L420.05331,555.17916L420.05331,554.93914L419.81328,554.93914L419.81328,554.69911
				L419.33322,554.69911L419.33322,554.45908L419.09318,554.45908L419.09318,554.21906L418.85315,554.21906L418.85315,553.97903
				L418.61312,553.97903L418.61312,553.49898L418.37309,553.49898L418.37309,553.25896L418.13306,553.25896L418.13306,553.01893
				L417.89303,553.01893L417.89303,552.77891L417.653,552.77891L417.653,552.53888L417.41297,552.53888L417.41297,552.29885L417.17294,552.29885
				L417.17294,552.05883L416.93291,552.05883L416.93291,551.8188L416.69288,551.8188L416.69288,551.57878L416.45285,551.57878L416.45285,551.33875
				L416.21282,551.33875L416.21282,551.09873L415.97279,551.09873L415.97279,550.8587L415.73276,550.8587L415.73276,550.61867L415.49273,550.61867
				L415.49273,550.37865L415.01267,550.37865L415.01267,550.13862L414.77264,550.13862L414.77264,549.8986L414.53261,549.8986L414.53261,549.65857
				L414.29258,549.65857L414.29258,549.17852L414.05254,549.17852L414.05254,548.9385L413.81251,548.9385L413.81251,548.69847L413.57248,548.69847
				L413.57248,548.45844L413.33245,548.45844L413.33245,548.21842L413.09242,548.21842L413.09242,547.97839L412.85239,547.97839
				L412.85239,547.73837L412.61236,547.73837L412.61236,542.69783L412.37233,542.69783L412.37233,542.45781L412.1323,542.45781L
				412.1323,542.21778L411.89227,542.21778L411.89227,541.97775L411.65224,541.97775L411.65224,541.73773L411.41221,541.73773L411.41221,541.4977
				L410.93215,541.4977L410.93215,541.25768L410.69212,541.25768L410.69212,541.01765L410.45209,541.01765L410.45209,540.5376L410.21206,540.5376
				L410.21206,540.29758L409.97203,540.29758L409.97203,540.05755L409.732,540.05755L409.732,539.81752L409.49197,539.81752L409.49197,539.5775
				L409.25194,539.5775L409.25194,539.33747L409.01191,539.33747L409.01191,539.09745L408.77187,539.09745L408.77187,538.85742L
				408.53184,538.85742L408.53184,538.6174L408.29181,538.6174L408.29181,538.37737L408.05178,538.37737L408.05178,538.13734L407.81175,538.13734
				L407.81175,537.89732L407.57172,537.89732L407.57172,537.65729L407.33169,537.65729L407.33169,537.41727L407.09166,537.41727
				L407.09166,537.17724L406.6116,537.17724L406.6116,536.93722L406.37157,536.93722L406.37157,536.69719L406.13154,536.69719L406.13154,536.21714
				L405.89151,536.21714L405.89151,535.97711L405.65148,535.97711L405.65148,535.73709L405.41145,535.73709L405.41145,535.49706
				L405.17142,535.49706L405.17142,535.25704L404.93139,535.25704L404.93139,535.01701L404.69136,535.01701L404.69136,534.77699
				L404.45133,534.77699L404.45133,534.53696L404.2113,534.53696L404.2113,534.29694L403.97127,534.29694L403.97127,534.05691L403.73124,534.05691
				L403.73124,533.81688L403.4912,533.81688L403.4912,533.57686L403.25117,533.57686L403.25117,533.33683L403.01114,533.33683L403.01114,533.09681
				L402.77111,533.09681L402.77111,532.85678L402.29105,532.85678L402.29105,532.61676L402.05102,532.61676L402.05102,532.13671
				L401.81099,532.13671L401.81099,531.89668L401.57096,531.89668L401.57096,531.65665L401.33093,531.65665L401.33093,531.41663
				L401.0909,531.41663L401.0909,531.1766L400.85087,531.1766L400.85087,530.93658L400.61084,530.93658L400.61084,530.69655L400.37081,530.69655
				L400.37081,530.45653L400.13078,530.45653L400.13078,530.2165L399.89075,530.2165L399.89075,529.97648L399.65072,529.97648L399.65072,529.73645
				L399.41069,529.73645L399.41069,529.49642L399.17066,529.49642L399.17066,529.2564L398.93063,529.2564L398.93063,529.01637L398.6906,529.01637
				L398.6906,528.77635L398.45057,528.77635L398.45057,528.53632L397.9705,528.53632L397.9705,528.2963L397.73047,528.2963L397.73047,527.81625
				L397.49044,527.81625L397.49044,527.57622L397.25041,527.57622L397.25041,527.33619L397.01038,527.33619L397.01038,526.85614
				L396.77035,526.85614L396.77035,526.61612L396.53032,526.61612L396.53032,526.37609L396.29029,526.37609L396.29029,526.13607
				L396.05026,526.13607L396.05026,525.89604L395.81023,525.89604L395.81023,525.65601L395.5702,525.65601L395.5702,525.41599L395.33017,525.41599
				L395.33017,525.17596L395.09014,525.17596L395.09014,524.93594L394.85011,524.93594L394.85011,524.69591L394.61008,524.69591
				L394.61008,524.45589L394.37005,524.45589L394.37005,524.21586L394.13002,524.21586L394.13002,523.97584L393.64996,523.97584
				L393.64996,523.49578L393.40993,523.49578L393.40993,523.25576L393.16989,523.25576L393.16989,523.01573L392.92986,523.01573
				L392.92986,522.77571L392.68983,522.77571L392.68983,522.53568L392.4498,522.53568L392.4498,522.29566L392.20977,522.29566L392.20977,522.05563
				L391.96974,522.05563L391.96974,521.81561L391.72971,521.81561L391.72971,521.57558L391.48968,521.57558L391.48968,521.33555
				L391.24965,521.33555L391.24965,521.09553L391.00962,521.09553L391.00962,520.8555L390.76959,520.8555L390.76959,520.61548L390.52956,520.61548
				L390.52956,520.37545L390.28953,520.37545L390.28953,520.13543L390.0495,520.13543L390.0495,519.8954L389.56944,519.8954L389.56944,519.65538
				L389.32941,519.65538L389.32941,519.17532L388.84935,519.17532L388.84935,518.9353L388.60932,518.9353L388.60932,518.69527L388.36929,518.69527
				L388.36929,518.45525L388.12926,518.45525L388.12926,518.21522L387.88922,518.21522L387.88922,517.9752L382.36852,517.9752L382.36852,517.73517
				L382.12849,517.73517L382.12849,517.49515L381.88846,517.49515L381.88846,517.25512L381.64843,517.25512L381.64843,517.01509
				L381.4084,517.01509L381.4084,516.77507L380.92834,516.77507L380.92834,516.53504L380.68831,516.53504L380.68831,516.29502L380.44828,516.29502
				L380.44828,516.05499L377.80795,516.05499L377.80795,515.81497L377.56791,515.81497L377.56791,515.57494L377.32788,515.57494
				L377.32788,515.33492L377.08785,515.33492L377.08785,514.85486L376.60779,514.85486L376.60779,514.61484L376.36776,514.61484
				L376.36776,514.37481L376.12773,514.37481L376.12773,514.13479L375.8877,514.13479L375.8877,513.89476L375.64767,513.89476L375.64767,513.65474
				L375.40764,513.65474L375.40764,513.41471L375.16761,513.41471L375.16761,513.17468L374.92758,513.17468L374.92758,512.93466
				L374.68755,512.93466L374.68755,512.69463L374.44752,512.69463L374.44752,512.45461L374.20749,512.45461L374.20749,512.21458
				L373.96746,512.21458L373.96746,511.97456L373.72743,511.97456L373.72743,511.73453L373.4874,511.73453L373.4874,511.49451L373.24737,511.49451
				L373.24737,510.77443L373.00734,510.77443L373.00734,510.5344L372.76731,510.5344L372.76731,510.29438L372.28724,510.29438L372.28724,510.05435
				L372.04721,510.05435L372.04721,509.81433L371.80718,509.81433L371.80718,509.5743L371.56715,509.5743L371.56715,509.33428L371.32712,509.33428
				L371.32712,509.09425L371.08709,509.09425L371.08709,508.85422L370.84706,508.85422L370.84706,508.6142L370.60703,508.6142L370.60703,508.37417
				L370.367,508.37417L370.367,508.13415L370.12697,508.13415L370.12697,507.89412L369.88694,507.89412L369.88694,507.6541L369.64691,507.6541
				L369.64691,507.41407L369.40688,507.41407L369.40688,507.17405L369.16685,507.17405L369.16685,506.93402L368.92682,506.93402
				L368.92682,506.45397L368.68679,506.45397L368.68679,506.21394L368.44676,506.21394L368.44676,505.97392L367.9667,505.97392L
				367.9667,505.73389L367.72667,505.73389L367.72667,505.49387L367.48664,505.49387L367.48664,505.25384L367.24661,505.25384L367.24661,505.01382
				L367.00657,505.01382L367.00657,504.77379L366.76654,504.77379L366.76654,504.53376L366.52651,504.53376L366.52651,504.29374
				L366.28648,504.29374L366.28648,504.05371L366.04645,504.05371L366.04645,503.81369L365.80642,503.81369L365.80642,503.57366
				L365.56639,503.57366L365.56639,503.33364L365.32636,503.33364L365.32636,503.09361L365.08633,503.09361L365.08633,502.85359
				L364.8463,502.85359L364.8463,502.61356L364.60627,502.61356L364.60627,502.13351L364.36624,502.13351L364.36624,501.89348L363.88618,501.89348
				L363.88618,501.65346L363.64615,501.65346L363.64615,501.41343L363.40612,501.41343L363.40612,501.17341L363.16609,501.17341
				L363.16609,500.93338L362.92606,500.93338L362.92606,500.69335L362.68603,500.69335L362.68603,500.45333L362.446,500.45333L362.446,500.2133
				L362.20597,500.2133L362.20597,499.97328L361.96594,499.97328L361.96594,499.73325L361.7259,499.73325L361.7259,499.49323L361.48587,499.49323
				L361.48587,499.2532L361.24584,499.2532L361.24584,499.01318L361.00581,499.01318L361.00581,496.37289L361.24584,496.37289L361.24584,493.97264
				L361.48587,493.97264L361.48587,491.57238L361.7259,491.57238L361.7259,488.9321L361.96594,488.9321L361.96594,487.25192L362.20597,487.25192
				L362.20597,486.53185L362.446,486.53185L362.446,485.81177L362.68603,485.81177L362.68603,485.09169L362.92606,485.09169L362.92606,484.61164
				L363.16609,484.61164L363.16609,484.37162L363.40612,484.37162L363.40612,483.89156L363.64615,483.89156L363.64615,483.65154
				L363.88618,483.65154L363.88618,483.41151L364.36624,483.41151L364.36624,483.17149L364.60627,483.17149L364.60627,482.93146
				L364.8463,482.93146L364.8463,482.69144L365.08633,482.69144L365.08633,482.21139L365.32636,482.21139L365.32636,481.97136L365.56639,481.97136
				L365.56639,481.73133L365.80642,481.73133L365.80642,481.49131L366.04645,481.49131L366.04645,481.25128L366.28648,481.25128
				L366.28648,480.77123L366.52651,480.77123L366.52651,480.29118L366.76654,480.29118L366.76654,480.05116L367.00657,480.05116
				L367.00657,479.81113L367.24661,479.81113L367.24661,479.5711L367.48664,479.5711L367.48664,479.33108L367.72667,479.33108L367.72667,478.85103
				L367.9667,478.85103L367.9667,478.611L368.44676,478.611L368.44676,478.37098L368.68679,478.37098L368.68679,478.13095L368.92682,478.13095
				L368.92682,477.89092L369.16685,477.89092L369.16685,477.6509L369.40688,477.6509L369.40688,477.17085L369.64691,477.17085L369.64691,476.93082
				L369.88694,476.93082L369.88694,476.45077L370.12697,476.45077L370.12697,476.21075L370.367,476.21075L370.367,475.97072L370.60703,475.97072
				L370.60703,475.73069L370.367,475.73069L370.367,475.49067L370.12697,475.49067L370.12697,475.25064L369.88694,475.25064L369.88694,475.01062
				L369.64691,475.01062L369.64691,474.77059L369.40688,474.77059L369.40688,474.53057L368.92682,474.53057L368.92682,474.29054
				L368.68679,474.29054L368.68679,474.05052L368.44676,474.05052L368.44676,473.81049L367.9667,473.81049L367.9667,473.57046L367.72667,473.57046
				L367.72667,473.33044L367.24661,473.33044L367.24661,473.09041L367.00657,473.09041L367.00657,472.85039L366.76654,472.85039
				L366.76654,472.61036L366.52651,472.61036L366.52651,472.13031L366.28648,472.13031L366.28648,471.89029L365.80642,471.89029
				L365.80642,471.65026L365.56639,471.65026L365.56639,471.41023L365.32636,471.41023L365.32636,471.17021L365.56639,471.17021
				L365.56639,470.93018L365.80642,470.93018L365.80642,470.45013L366.04645,470.45013L366.04645,470.21011L366.28648,470.21011
				L366.28648,469.73006L366.52651,469.73006L366.52651,469.49003L366.76654,469.49003L366.76654,469.00998L367.00657,469.00998
				L367.00657,468.76995L367.24661,468.76995L367.24661,468.2899L367.48664,468.2899L367.48664,467.80985L367.72667,467.80985L367.72667,467.3298
				L367.9667,467.3298L367.9667,467.08977L368.44676,467.08977L368.44676,466.84975L368.68679,466.84975L368.68679,466.3697L368.92682,466.3697
				L368.92682,466.12967L369.16685,466.12967L369.16685,465.88965L369.40688,465.88965L369.40688,465.64962L369.64691,465.64962
				L369.64691,465.40959L369.88694,465.40959L369.88694,465.16957L370.12697,465.16957L370.12697,464.68952L370.367,464.68952L370.367,464.44949
				L370.60703,464.44949L370.60703,464.20947L370.84706,464.20947L370.84706,463.72942L371.08709,463.72942L371.08709,463.48939
				L371.32712,463.48939L371.32712,463.24936L371.56715,463.24936L371.56715,462.76931L371.80718,462.76931L371.80718,462.52929
				L372.04721,462.52929L372.04721,462.28926L372.28724,462.28926L372.28724,462.04924L372.76731,462.04924L372.76731,461.32916
				L372.28724,461.32916L372.28724,460.60908L372.04721,460.60908L372.04721,460.12903L371.80718,460.12903L371.80718,458.9289L
				371.56715,458.9289L371.56715,457.9688L371.32712,457.9688L371.32712,457.0087L371.08709,457.0087L371.08709,455.80857L370.84706,455.80857
				L370.84706,454.60844L370.60703,454.60844L370.60703,454.12839L370.84706,454.12839L370.84706,453.64834L371.08709,453.64834
				L371.08709,453.40832L371.32712,453.40832L371.32712,453.16829L371.56715,453.16829L371.56715,452.92826L371.80718,452.92826
				L371.80718,452.68824L372.04721,452.68824L372.04721,452.20819L372.28724,452.20819L372.28724,451.96816L372.76731,451.96816
				L372.76731,451.72814L373.00734,451.72814L373.00734,451.48811L373.24737,451.48811L373.24737,451.24809L373.4874,451.24809L
				373.4874,450.52801L373.72743,450.52801L373.72743,450.28798L373.96746,450.28798L373.96746,450.04796L374.20749,450.04796L374.20749,449.80793
				L374.44752,449.80793L374.44752,449.56791L374.68755,449.56791L374.68755,449.32788L374.92758,449.32788L374.92758,448.84783
				L375.16761,448.84783L375.16761,448.6078L375.40764,448.6078L375.40764,448.36778L375.64767,448.36778L375.64767,448.12775L375.8877,448.12775
				L375.8877,447.88773L376.12773,447.88773L376.12773,447.40768L376.36776,447.40768L376.36776,447.16765L376.60779,447.16765L
				376.60779,446.92763L377.08785,446.92763L377.08785,446.44757L377.32788,446.44757L377.32788,447.16765L377.08785,447.16765L
				377.08785,447.88773L376.60779,447.88773L376.60779,449.08786L376.36776,449.08786L376.36776,450.04796L376.12773,450.04796L
				376.12773,450.28798L376.36776,450.28798L376.36776,456.0486L376.60779,456.0486L376.60779,456.76867L377.08785,456.76867L377.08785,457.48875
				L377.32788,457.48875L377.32788,458.20883L377.56791,458.20883L377.56791,458.9289L377.80795,458.9289L377.80795,459.88901L378.04798,459.88901
				L378.04798,460.60908L378.28801,460.60908L378.28801,461.08913L378.52804,461.08913L378.52804,462.52929L378.28801,462.52929
				L378.28801,463.24936L378.04798,463.24936L378.04798,464.44949L377.80795,464.44949L377.80795,465.40959"/>
			<path clip-path="url(#SVG_CP_2)" fill="none" stroke="#999999" stroke-width="0.96012" stroke-miterlimit="10" stroke-linecap="round" stroke-linejoin="round" d="
				M377.80795,465.40959L377.56791,465.40959L377.56791,466.3697L377.80795,466.3697L377.80795,467.08977L378.04798,467.08977L378.04798,467.80985
				L377.80795,467.80985L377.80795,468.2899L378.04798,468.2899L378.04798,469.00998L377.80795,469.00998L377.80795,470.69016L378.04798,470.69016
				L378.04798,471.17021L378.28801,471.17021L378.28801,471.41023L378.52804,471.41023L378.52804,471.65026L378.76807,471.65026
				L378.76807,472.13031L379.0081,472.13031L379.0081,472.61036L379.24813,472.61036L379.24813,472.85039L379.72819,472.85039L379.72819,473.09041
				L380.44828,473.09041L380.44828,473.33044L380.92834,473.33044L380.92834,473.57046L381.64843,473.57046L381.64843,473.81049
				L382.36852,473.81049L382.36852,474.05052L382.84859,474.05052L382.84859,474.29054L383.32865,474.29054L383.32865,474.53057
				L384.04874,474.53057L384.04874,474.77059L384.5288,474.77059L384.5288,475.01062L385.00886,475.01062L385.00886,475.25064L385.72895,475.25064
				L385.72895,475.49067L385.96898,475.49067L385.96898,475.73069L386.20901,475.73069L386.20901,476.21075L386.44904,476.21075
				L386.44904,476.93082L386.68907,476.93082L386.68907,477.41087L386.9291,477.41087L386.9291,477.89092L387.16913,477.89092L387.16913,478.13095
				L387.40916,478.13095L387.40916,478.37098L387.64919,478.37098L387.64919,478.611L387.88922,478.611L387.88922,478.85103L388.12926,478.85103
				L388.12926,479.09105L388.36929,479.09105L388.36929,479.33108L388.60932,479.33108L388.60932,479.5711L388.84935,479.5711L388.84935,479.81113
				L389.08938,479.81113L389.08938,480.05116L389.32941,480.05116L389.32941,480.29118L389.56944,480.29118L389.56944,480.53121
				L390.0495,480.53121L390.0495,480.77123L390.28953,480.77123L390.28953,481.25128L390.52956,481.25128L390.52956,481.49131L390.76959,481.49131
				L390.76959,481.73133L391.00962,481.73133L391.00962,481.97136L391.24965,481.97136L391.24965,482.21139L391.48968,482.21139
				L391.48968,482.45141L391.72971,482.45141L391.72971,482.69144L391.96974,482.69144L391.96974,482.93146L392.20977,482.93146
				L392.20977,483.17149L392.4498,483.17149L392.4498,483.41151L392.68983,483.41151L392.68983,483.65154L392.92986,483.65154L392.92986,484.13159
				L393.16989,484.13159L393.16989,484.37162L393.40993,484.37162L393.40993,484.61164L393.64996,484.61164L393.64996,484.85167
				L394.13002,484.85167L394.13002,485.09169L394.37005,485.09169L394.37005,485.57174L394.61008,485.57174L394.61008,485.81177
				L394.85011,485.81177L394.85011,486.05179L395.09014,486.05179L395.09014,486.29182L395.33017,486.29182L395.33017,486.53185
				L395.5702,486.53185L395.5702,486.77187L395.81023,486.77187L395.81023,487.0119L396.05026,487.0119L396.05026,487.25192L396.29029,487.25192
				L396.29029,487.49195L396.53032,487.49195L396.53032,487.73197L396.77035,487.73197L396.77035,487.972L397.01038,487.972L397.01038,488.21202
				L397.25041,488.21202L397.25041,488.45205L397.49044,488.45205L397.49044,488.69208L397.73047,488.69208L397.73047,488.9321L
				397.9705,488.9321L397.9705,489.17213L398.45057,489.17213L398.45057,489.65218L398.6906,489.65218L398.6906,489.8922L398.93063,489.8922
				L398.93063,490.13223L399.17066,490.13223L399.17066,490.61228L399.41069,490.61228L399.41069,490.85231L399.65072,490.85231
				L399.65072,491.09233L400.13078,491.09233L400.13078,491.33236L400.61084,491.33236L400.61084,491.57238L400.85087,491.57238
				L400.85087,491.81241L401.33093,491.81241L401.33093,492.05243L401.57096,492.05243L401.57096,492.29246L402.05102,492.29246
				L402.05102,492.53249L402.77111,492.53249L402.77111,492.77251L404.45133,492.77251L404.45133,493.01254L406.6116,493.01254L
				406.6116,493.25256L412.37233,493.25256L412.37233,493.01254L412.61236,493.01254L412.61236,493.25256L424.13382,493.25256L424.13382,493.49259
				L425.33398,493.49259L425.33398,493.97264L426.05407,493.97264L426.05407,494.21266L427.01419,494.21266L427.01419,494.45269
				L427.73428,494.45269L427.73428,494.69272L428.6944,494.69272L428.6944,494.93274L429.41449,494.93274L429.41449,495.17277L430.13459,495.17277
				L430.13459,495.41279L430.85468,495.41279L430.85468,495.65282L431.57477,495.65282L431.57477,495.89284L432.05483,495.89284
				L432.05483,496.13287L432.77492,496.13287L432.77492,496.37289L433.01495,496.37289L433.01495,496.61292L433.25498,496.61292
				L433.25498,496.85295L433.49501,496.85295L433.49501,497.09297L433.73504,497.09297L433.73504,497.333L433.97507,497.333L433.97507,497.57302
				L434.45513,497.57302L434.45513,497.81305L434.69516,497.81305L434.69516,498.2931L434.9352,498.2931L434.9352,498.53312L435.17523,498.53312
				L435.17523,498.77315L435.41526,498.77315L435.41526,499.01318L435.65529,499.01318L435.65529,499.2532L436.13535,499.2532L436.13535,499.49323
				L436.85544,499.49323L436.85544,499.73325L437.3355,499.73325L437.3355,499.97328L438.05559,499.97328L438.05559,500.2133L438.53565,500.2133
				L438.53565,500.45333L439.25574,500.45333L439.25574,500.69335L439.7358,500.69335L439.7358,500.93338L440.21587,500.93338L440.21587,501.17341
				L441.17599,501.17341L441.17599,501.41343L441.65605,501.41343L441.65605,501.65346L442.37614,501.65346L442.37614,501.89348
				L442.8562,501.89348L442.8562,502.13351L443.33626,502.13351L443.33626,502.61356L443.81632,502.61356L443.81632,502.85359L444.53641,502.85359
				L444.53641,503.09361L445.01647,503.09361L445.01647,503.33364L445.73657,503.33364L445.73657,503.57366L445.9766,503.57366L
				445.9766,503.81369L446.21663,503.81369L446.21663,504.05371L446.69669,504.05371L446.69669,504.29374L447.17675,504.29374L447.17675,504.53376
				L447.41678,504.53376L447.41678,504.77379L447.89684,504.77379L447.89684,505.01382L448.3769,505.01382L448.3769,505.25384L448.61693,505.25384
				L448.61693,505.49387L449.33702,505.49387L449.33702,505.73389L450.05711,505.73389L450.05711,506.21394L450.29714,506.21394
				L450.29714,506.45397L450.53717,506.45397L450.53717,506.93402L450.77721,506.93402L450.77721,507.17405L451.25727,507.17405
				L451.25727,507.41407L451.4973,507.41407L451.4973,507.6541L451.73733,507.6541L451.73733,508.13415L451.97736,508.13415L451.97736,508.6142
				L452.21739,508.6142L452.21739,508.85422L452.45742,508.85422L452.45742,509.33428L452.69745,509.33428L452.69745,509.81433L
				452.93748,509.81433L452.93748,510.05435L453.17751,510.05435L453.17751,510.5344L453.41754,510.5344L453.41754,511.25448L453.65757,511.25448
				L453.65757,511.49451L454.13763,511.49451L454.13763,511.97456L454.37766,511.97456L454.37766,512.45461L454.61769,512.45461
				L454.61769,512.69463L454.85772,512.69463L454.85772,513.41471L455.09775,513.41471L455.09775,513.89476L455.33778,513.89476
				L455.33778,514.37481L455.57781,514.37481L455.57781,514.85486L455.81785,514.85486L455.81785,515.81497L456.05788,515.81497
				L456.05788,516.05499L456.29791,516.05499L456.29791,516.53504L456.53794,516.53504L456.53794,517.25512L456.77797,517.25512
				L456.77797,517.9752L457.018,517.9752L457.018,518.45525L457.25803,518.45525L457.25803,519.17532L457.49806,519.17532L457.49806,519.8954
				L457.73809,519.8954L457.73809,520.61548L457.97812,520.61548L457.97812,522.53568L458.45818,522.53568L458.45818,524.93594L
				458.69821,524.93594L458.69821,525.65601L458.93824,525.65601L458.93824,526.37609L459.17827,526.37609L459.17827,527.57622L
				459.4183,527.57622L459.4183,528.2963L459.65833,528.2963L459.65833,529.49642L459.89836,529.49642L459.89836,529.97648L460.13839,529.97648
				L460.13839,530.93658L460.37842,530.93658L460.37842,531.41663L460.61845,531.41663L460.61845,531.65665L460.85848,531.65665
				L460.85848,532.85678L461.09852,532.85678L461.09852,533.33683L461.33855,533.33683L461.33855,534.77699L461.57858,534.77699
				L461.57858,535.49706L461.81861,535.49706L461.81861,535.97711L462.05864,535.97711L462.05864,536.93722L462.5387,536.93722L
				462.5387,538.13734L462.77873,538.13734L462.77873,539.33747L463.01876,539.33747L463.01876,541.25768L463.25879,541.25768L463.25879,542.45781
				L463.49882,542.45781L463.49882,542.93786L463.73885,542.93786L463.73885,543.41791L463.97888,543.41791L463.97888,544.13798
				L464.21891,544.13798L464.21891,544.61804L464.45894,544.61804L464.45894,545.33811L464.69897,545.33811L464.69897,546.05819
				L464.939,546.05819L464.939,546.53824L465.17903,546.53824L465.17903,547.25832L465.41906,547.25832L465.41906,547.73837L465.65909,547.73837
				L465.65909,548.21842L465.89912,548.21842L465.89912,548.9385L466.13915,548.9385L466.13915,549.65857L466.37919,549.65857L466.37919,550.37865
				L466.85925,550.37865L466.85925,550.8587L467.09928,550.8587L467.09928,551.57878L467.33931,551.57878L467.33931,552.05883L467.57934,552.05883
				L467.57934,552.53888L467.81937,552.53888L467.81937,553.25896L468.0594,553.25896L468.0594,553.97903L468.29943,553.97903L468.29943,554.69911
				L468.53946,554.69911L468.53946,555.41919L468.77949,555.41919L468.77949,556.13926L469.01952,556.13926L469.01952,557.09937
				L469.25955,557.09937L469.25955,557.81944L469.49958,557.81944L469.49958,558.77954L469.73961,558.77954L469.73961,559.49962
				L469.97964,559.49962L469.97964,560.2197L470.21967,560.2197L470.21967,561.1798L470.4597,561.1798L470.4597,563.1L470.69973,563.1
				L470.69973,564.78018L471.17979,564.78018L471.17979,565.50026L471.41983,565.50026L471.41983,565.98031L471.65986,565.98031
				L471.65986,566.70039L471.89989,566.70039L471.89989,567.18044L472.13992,567.18044L472.13992,567.90052L472.37995,567.90052
				L472.37995,568.38057L472.61998,568.38057L472.61998,568.86062L472.86001,568.86062L472.86001,569.5807L473.10004,569.5807L473.10004,570.06075
				L473.34007,570.06075L473.34007,570.5408L473.5801,570.5408L473.5801,571.26087L473.82013,571.26087L473.82013,571.74093L474.06016,571.74093
				L474.06016,684.31292L473.82013,684.31292L473.82013,683.59284L473.5801,683.59284L473.5801,682.87277L467.33931,682.87277L467.33931,677.83223
				L467.57934,677.83223L467.57934,670.15141L467.81937,670.15141L467.81937,664.63082L463.25879,664.63082"/>
			<path clip-path="url(#SVG_CP_2)" fill="none" stroke="#999999" stroke-width="0.96012" stroke-miterlimit="10" stroke-linecap="round" stroke-linejoin="round" d="
				M457.97812,733.99822L457.73809,733.99822L457.73809,733.75819L457.25803,733.75819L457.25803,733.51816L457.018,733.51816L457.018,733.03811
				L456.77797,733.03811L456.77797,732.55806L457.018,732.55806L457.018,731.83799L457.25803,731.83799L457.25803,731.35793L457.49806,731.35793
				L457.49806,730.87788L457.73809,730.87788L457.73809,730.39783L457.97812,730.39783L457.97812,729.91778L458.45818,729.91778
				L458.45818,729.1977L458.69821,729.1977L458.69821,728.47763L458.93824,728.47763L458.93824,727.99758L459.17827,727.99758L459.17827,727.51753
				L459.4183,727.51753L459.4183,727.03747L459.65833,727.03747L459.65833,726.3174L459.89836,726.3174L459.89836,725.83735L460.13839,725.83735
				L460.13839,725.3573L460.37842,725.3573L460.37842,724.87724L460.61845,724.87724L460.61845,724.15717L460.85848,724.15717L460.85848,723.67712
				L461.09852,723.67712L461.09852,722.95704L461.33855,722.95704L461.33855,722.23696L460.85848,722.23696L460.85848,721.99694
				L460.37842,721.99694L460.37842,721.75691L459.89836,721.75691L459.89836,721.27686L460.13839,721.27686L460.13839,720.79681
				L460.37842,720.79681L460.37842,719.83671L460.61845,719.83671L460.61845,719.35666L460.85848,719.35666L460.85848,718.63658
				L461.09852,718.63658L461.09852,718.15653L461.33855,718.15653L461.33855,717.43645L461.57858,717.43645L461.57858,716.9564L
				461.81861,716.9564L461.81861,716.47635L462.05864,716.47635L462.05864,715.51625L462.5387,715.51625L462.5387,715.0362L462.77873,715.0362
				L462.77873,714.55614L462.05864,714.55614L462.05864,714.31612L461.81861,714.31612L461.81861,714.07609L461.33855,714.07609
				L461.33855,713.83607L460.85848,713.83607L460.85848,713.59604L460.37842,713.59604L460.37842,713.35602L460.13839,713.35602
				L460.13839,713.11599L459.65833,713.11599L459.65833,712.87597L459.17827,712.87597L459.17827,712.63594L458.69821,712.63594
				L458.69821,712.39591L458.45818,712.39591L458.45818,711.43581L458.69821,711.43581L458.69821,710.71573L458.93824,710.71573
				L458.93824,709.99566L459.17827,709.99566L459.17827,709.03556L459.4183,709.03556L459.4183,708.31548L459.65833,708.31548L459.65833,707.35538
				L459.89836,707.35538L459.89836,706.15525L460.13839,706.15525L460.13839,704.7151L460.37842,704.7151L460.37842,703.03492L460.61845,703.03492
				L460.61845,701.83479L460.85848,701.83479L460.85848,700.39464L461.09852,700.39464L461.09852,698.71446L461.33855,698.71446
				L461.33855,697.75435L461.57858,697.75435L461.57858,697.03428L461.81861,697.03428L461.81861,696.3142L462.05864,696.3142L462.05864,695.59412
				L462.5387,695.59412L462.5387,694.63402L463.01876,694.63402L463.01876,695.11407L463.49882,695.11407L463.49882,695.3541L464.21891,695.3541
				L464.21891,695.59412L464.69897,695.59412L464.69897,695.83415L465.65909,695.83415L465.65909,696.07417L466.85925,696.07417
				L466.85925,696.3142L467.57934,696.3142L467.57934,696.55423L468.53946,696.55423L468.53946,696.79425L469.49958,696.79425L469.49958,697.03428
				L470.4597,697.03428L470.4597,696.3142L470.69973,696.3142L470.69973,695.3541L471.17979,695.3541L471.17979,694.394L471.41983,694.394
				L471.41983,693.43389L471.65986,693.43389L471.65986,692.71382L471.89989,692.71382L471.89989,691.99374L472.13992,691.99374
				L472.13992,691.03364L472.37995,691.03364L472.37995,690.07354L472.61998,690.07354L472.61998,689.11343L472.86001,689.11343
				L472.86001,688.39336L473.10004,688.39336L473.10004,687.67328L473.34007,687.67328L473.34007,686.71318L473.5801,686.71318L
				473.5801,685.75307L473.82013,685.75307L473.82013,684.79297L474.06016,684.79297L474.06016,701.59476L473.34007,701.59476L473.34007,701.83479
				L472.86001,701.83479L472.86001,702.07481L472.37995,702.07481L472.37995,702.31484L471.89989,702.31484L471.89989,702.55487
				L471.65986,702.55487L471.65986,702.79489L471.17979,702.79489L471.17979,703.03492L470.4597,703.03492L470.4597,703.51497L470.21967,703.51497
				L470.21967,703.75499L469.01952,703.75499L469.01952,703.99502L468.29943,703.99502L468.29943,704.47507L468.0594,704.47507L
				468.0594,704.95512L467.81937,704.95512L467.81937,705.43517L467.57934,705.43517L467.57934,705.91522L467.33931,705.91522L467.33931,706.15525
				L467.09928,706.15525L467.09928,706.6353L466.85925,706.6353L466.85925,707.11535L466.37919,707.11535L466.37919,707.83543L466.13915,707.83543
				L466.13915,708.07545L465.89912,708.07545L465.89912,708.5555L465.65909,708.5555L465.65909,709.03556L465.41906,709.03556L465.41906,710.47571
				L465.65909,710.47571L465.65909,713.35602L465.89912,713.35602L465.89912,713.83607L466.13915,713.83607L466.13915,714.55614
				L466.37919,714.55614L466.37919,714.79617L466.13915,714.79617L466.13915,715.51625L465.89912,715.51625L465.89912,716.47635
				L465.65909,716.47635L465.65909,716.9564L465.41906,716.9564L465.41906,717.67648L465.17903,717.67648L465.17903,718.15653L464.939,718.15653
				L464.939,718.8766L464.69897,718.8766L464.69897,719.35666L464.45894,719.35666L464.45894,720.07673L464.21891,720.07673L464.21891,722.71701
				L463.97888,722.71701L463.97888,723.43709L463.73885,723.43709L463.73885,723.67712L463.25879,723.67712L463.25879,724.15717
				L463.01876,724.15717L463.01876,724.87724L462.77873,724.87724L462.77873,725.3573L462.5387,725.3573L462.5387,725.83735L462.05864,725.83735
				L462.05864,726.3174L461.81861,726.3174L461.81861,726.55742L461.57858,726.55742L461.57858,726.79745L461.33855,726.79745L461.33855,727.2775
				L461.09852,727.2775L461.09852,727.51753L460.85848,727.51753L460.85848,727.99758L460.61845,727.99758L460.61845,728.47763L
				460.37842,728.47763L460.37842,728.71765L460.13839,728.71765L460.13839,729.43773L459.89836,729.43773L459.89836,729.67776L
				459.65833,729.67776L459.65833,730.15781L459.4183,730.15781L459.4183,730.39783L459.17827,730.39783L459.17827,730.63786L458.93824,730.63786
				L458.93824,731.11791L458.69821,731.11791L458.69821,731.35793L458.45818,731.35793L458.45818,731.83799L457.97812,731.83799
				L457.97812,732.07801L457.73809,732.07801L457.73809,732.55806L457.49806,732.55806L457.49806,732.79809L457.73809,732.79809
				L457.73809,733.51816L457.97812,733.51816L457.97812,733.99822"/>
			<path clip-path="url(#SVG_CP_2)" fill="none" stroke="#999999" stroke-width="0.96012" stroke-miterlimit="10" stroke-linecap="round" stroke-linejoin="round" d="
				M299.55802,481.73133L300.51814,481.73133L300.51814,481.97136L300.9982,481.97136L300.9982,482.21139L301.71829,482.21139L301.71829,482.45141
				L302.43838,482.45141L302.43838,482.69144L303.15847,482.69144L303.15847,482.93146L303.63853,482.93146L303.63853,483.17149
				L304.59865,483.17149L304.59865,483.41151L305.31875,483.41151L305.31875,483.65154L306.03884,483.65154L306.03884,483.89156
				L306.5189,483.89156L306.5189,484.13159L307.23899,484.13159L307.23899,484.37162L307.95908,484.37162L307.95908,484.61164L308.67917,484.61164
				L308.67917,484.85167L309.39926,484.85167L309.39926,485.09169L310.11936,485.09169L310.11936,485.57174L310.83945,485.57174
				L310.83945,485.81177L311.31951,485.81177L311.31951,486.05179L312.0396,486.05179L312.0396,486.29182L312.99972,486.29182L312.99972,486.53185
				L313.71981,486.53185L313.71981,486.77187L314.4399,486.77187L314.4399,487.0119L314.91996,487.0119L314.91996,487.25192L315.64006,487.25192
				L315.64006,487.49195L316.36015,487.49195L316.36015,487.73197L317.32027,487.73197L317.32027,487.972L318.04036,487.972L318.04036,488.21202
				L318.52042,488.21202L318.52042,488.45205L319.24051,488.45205L319.24051,488.69208L319.9606,488.69208L319.9606,488.9321L320.6807,488.9321
				L320.6807,489.17213L321.64082,489.17213L321.64082,489.65218L322.12088,489.65218L322.12088,489.8922L322.84097,489.8922L322.84097,490.13223
				L323.56106,490.13223L323.56106,490.37225L324.28115,490.37225L324.28115,490.61228L325.00124,490.61228L325.00124,490.85231
				L325.72134,490.85231L325.72134,491.09233L326.44143,491.09233L326.44143,491.33236L327.16152,491.33236L327.16152,491.57238
				L327.88161,491.57238L327.88161,491.81241L328.6017,491.81241L328.6017,492.05243L329.08176,492.05243L329.08176,492.29246L330.04188,492.29246
				L330.04188,492.53249L330.76198,492.53249L330.76198,492.77251L331.48207,492.77251L331.48207,493.01254L332.20216,493.01254
				L332.20216,493.25256L332.68222,493.25256L332.68222,493.49259L333.40231,493.49259L333.40231,493.97264L334.36243,493.97264
				L334.36243,494.21266L335.08252,494.21266L335.08252,494.45269L335.80261,494.45269L335.80261,494.69272L336.28268,494.69272
				L336.28268,494.93274L337.00277,494.93274L337.00277,495.17277L337.72286,495.17277L337.72286,495.41279L338.68298,495.41279
				L338.68298,495.65282L339.40307,495.65282L339.40307,495.89284L339.88313,495.89284L339.88313,496.13287L340.60322,496.13287
				L340.60322,496.37289L341.32332,496.37289L341.32332,496.61292L342.04341,496.61292L342.04341,496.85295L343.00353,496.85295
				L343.00353,497.09297L343.48359,497.09297L343.48359,497.333L344.20368,497.333L344.20368,497.57302L344.92377,497.57302L344.92377,497.81305
				L345.64386,497.81305L345.64386,498.2931L346.36396,498.2931L346.36396,498.53312L347.08405,498.53312L347.08405,498.77315L347.80414,498.77315
				L347.80414,499.01318L348.52423,499.01318L348.52423,499.2532L349.24432,499.2532L349.24432,499.49323L349.96441,499.49323L349.96441,499.73325
				L350.44447,499.73325L350.44447,499.97328L351.40459,499.97328L351.40459,500.2133L352.12469,500.2133L352.12469,500.45333L352.84478,500.45333
				L352.84478,500.69335L353.56487,500.69335L353.56487,500.93338L354.04493,500.93338L354.04493,501.17341L354.76502,501.17341
				L354.76502,501.41343L355.72514,501.41343L355.72514,500.93338L355.96517,500.93338L355.96517,500.45333L356.2052,500.45333L
				356.2052,499.97328L356.44523,499.97328L356.44523,499.73325L356.68526,499.73325L356.68526,499.49323L356.9253,499.49323L356.9253,499.2532
				L357.16533,499.2532L357.16533,499.01318L357.40536,499.01318L357.40536,498.77315L357.88542,498.77315L357.88542,498.53312L
				358.36548,498.53312L358.36548,498.77315L359.56563,498.77315L359.56563,499.01318L361.00581,499.01318L361.00581,499.49323L
				361.24584,499.49323L361.24584,499.73325L361.48587,499.73325L361.48587,499.97328L361.7259,499.97328L361.7259,500.2133L361.96594,500.2133
				L361.96594,500.45333L362.20597,500.45333L362.20597,500.69335L362.446,500.69335L362.446,500.93338L362.68603,500.93338L362.68603,501.17341
				L362.92606,501.17341L362.92606,501.41343L363.16609,501.41343L363.16609,501.65346L363.40612,501.65346L363.40612,501.89348
				L363.64615,501.89348L363.64615,502.13351L363.88618,502.13351L363.88618,502.61356L364.36624,502.61356L364.36624,502.85359
				L364.60627,502.85359L364.60627,503.09361L364.8463,503.09361L364.8463,503.33364L365.08633,503.33364L365.08633,503.57366L365.32636,503.57366
				L365.32636,503.81369L365.56639,503.81369L365.56639,504.05371L365.80642,504.05371L365.80642,504.29374L366.04645,504.29374
				L366.04645,504.53376L366.28648,504.53376L366.28648,504.77379L366.52651,504.77379L366.52651,505.01382L366.76654,505.01382
				L366.76654,505.25384L367.00657,505.25384L367.00657,505.49387L367.24661,505.49387L367.24661,505.73389L367.48664,505.73389
				L367.48664,505.97392L367.72667,505.97392L367.72667,506.21394L367.9667,506.21394L367.9667,506.45397L368.44676,506.45397L368.44676,506.93402
				L368.68679,506.93402L368.68679,507.17405L368.92682,507.17405L368.92682,507.41407L369.16685,507.41407L369.16685,507.6541L
				369.40688,507.6541L369.40688,507.89412L369.64691,507.89412L369.64691,508.13415L369.88694,508.13415L369.88694,508.37417L370.12697,508.37417
				L370.12697,508.6142L370.367,508.6142L370.367,508.85422L370.60703,508.85422L370.60703,509.09425L370.84706,509.09425L370.84706,509.33428
				L371.08709,509.33428L371.08709,509.5743L371.32712,509.5743L371.32712,509.81433L371.56715,509.81433L371.56715,510.05435L371.80718,510.05435
				L371.80718,510.29438L372.04721,510.29438L372.04721,510.5344L372.28724,510.5344L372.28724,510.77443L372.76731,510.77443L372.76731,511.25448
				L373.00734,511.25448L373.00734,511.49451L373.24737,511.49451L373.24737,511.73453L373.4874,511.73453L373.4874,511.97456L373.72743,511.97456
				L373.72743,512.21458L373.96746,512.21458L373.96746,512.45461L374.20749,512.45461L374.20749,512.69463L374.44752,512.69463
				L374.44752,512.93466L374.68755,512.93466L374.68755,513.17468L374.92758,513.17468L374.92758,513.41471L375.16761,513.41471
				L375.16761,513.65474L375.40764,513.65474L375.40764,513.89476L375.64767,513.89476L375.64767,514.13479L375.8877,514.13479L
				375.8877,514.37481L376.12773,514.37481L376.12773,514.61484L376.36776,514.61484L376.36776,514.85486L376.60779,514.85486L376.60779,515.33492
				L377.08785,515.33492L377.08785,515.57494L377.32788,515.57494L377.32788,515.81497L377.56791,515.81497L377.56791,516.05499
				L377.80795,516.05499L377.80795,516.29502L378.04798,516.29502L378.04798,516.53504L378.28801,516.53504L378.28801,516.77507
				L378.52804,516.77507L378.52804,517.01509L378.76807,517.01509L378.76807,517.25512L379.0081,517.25512L379.0081,517.49515L379.24813,517.49515
				L379.24813,517.73517L379.48816,517.73517L379.48816,517.9752L379.72819,517.9752L379.72819,518.21522L382.60855,518.21522L382.60855,518.45525
				L382.84859,518.45525L382.84859,518.69527L383.56868,518.69527L383.56868,518.9353L384.04874,518.9353L384.04874,519.17532L388.84935,519.17532
				L388.84935,519.65538L389.08938,519.65538L389.08938,519.8954L389.32941,519.8954L389.32941,520.13543L389.56944,520.13543L389.56944,520.37545
				L390.0495,520.37545L390.0495,520.61548L390.28953,520.61548L390.28953,520.8555L390.52956,520.8555L390.52956,521.09553L391.00962,521.09553
				L391.00962,521.33555L391.24965,521.33555L391.24965,521.57558L391.48968,521.57558L391.48968,521.81561L391.72971,521.81561
				L391.72971,522.05563L391.96974,522.05563L391.96974,522.29566L392.20977,522.29566L392.20977,522.53568L392.4498,522.53568L
				392.4498,522.77571L392.68983,522.77571L392.68983,523.01573L392.92986,523.01573L392.92986,523.25576L393.16989,523.25576L393.16989,523.49578
				L393.40993,523.49578L393.40993,523.97584L393.64996,523.97584L393.64996,524.45589L394.13002,524.45589L394.13002,524.69591
				L394.37005,524.69591L394.37005,524.93594L394.61008,524.93594L394.61008,525.17596L394.85011,525.17596L394.85011,525.41599
				L395.09014,525.41599L395.09014,525.65601L395.33017,525.65601L395.33017,525.89604L395.5702,525.89604L395.5702,526.13607L395.81023,526.13607
				L395.81023,526.37609L396.05026,526.37609L396.05026,526.61612L396.29029,526.61612L396.29029,526.85614L396.53032,526.85614
				L396.53032,527.09617L396.77035,527.09617L396.77035,527.33619L397.01038,527.33619L397.01038,527.57622L397.25041,527.57622
				L397.25041,527.81625L397.49044,527.81625L397.49044,528.2963L397.73047,528.2963L397.73047,528.53632L397.9705,528.53632L397.9705,528.77635
				L398.45057,528.77635L398.45057,529.01637L398.6906,529.01637L398.6906,529.2564L398.93063,529.2564L398.93063,529.49642L399.17066,529.49642
				L399.17066,529.73645L399.41069,529.73645L399.41069,529.97648L399.65072,529.97648L399.65072,530.2165L399.89075,530.2165L399.89075,530.45653
				L400.13078,530.45653L400.13078,530.69655L400.37081,530.69655L400.37081,530.93658L400.61084,530.93658L400.61084,531.1766L
				400.85087,531.1766L400.85087,531.41663L401.0909,531.41663L401.0909,531.65665L401.33093,531.65665L401.33093,531.89668L401.57096,531.89668
				L401.57096,532.13671L401.81099,532.13671L401.81099,532.61676L402.05102,532.61676L402.05102,532.85678L402.29105,532.85678
				L402.29105,533.09681L402.77111,533.09681L402.77111,533.33683L403.01114,533.33683L403.01114,533.57686L403.25117,533.57686
				L403.25117,533.81688L403.4912,533.81688L403.4912,534.05691L403.73124,534.05691L403.73124,534.29694L403.97127,534.29694L403.97127,534.53696
				L404.2113,534.53696L404.2113,534.77699L404.45133,534.77699L404.45133,535.01701L404.69136,535.01701L404.69136,535.25704L404.93139,535.25704
				L404.93139,535.49706L405.17142,535.49706L405.17142,535.73709L405.41145,535.73709L405.41145,541.01765L405.65148,541.01765
				L405.65148,541.25768L405.89151,541.25768L405.89151,541.4977L406.13154,541.4977L406.13154,541.73773L406.37157,541.73773L406.37157,541.97775
				L406.6116,541.97775L406.6116,542.21778L407.09166,542.21778L407.09166,542.45781L407.33169,542.45781L407.33169,542.69783L407.57172,542.69783
				L407.57172,542.93786L407.81175,542.93786L407.81175,543.17788L408.05178,543.17788L408.05178,543.41791L408.29181,543.41791
				L408.29181,543.65793L408.53184,543.65793L408.53184,543.89796L408.77187,543.89796L408.77187,544.13798L409.01191,544.13798
				L409.01191,544.37801L409.25194,544.37801L409.25194,544.61804L409.49197,544.61804L409.49197,544.85806L409.732,544.85806L409.732,545.33811
				L409.97203,545.33811L409.97203,545.57814L410.21206,545.57814L410.21206,545.81816L410.45209,545.81816L410.45209,546.05819
				L410.69212,546.05819L410.69212,546.29821L410.93215,546.29821L410.93215,546.53824L411.41221,546.53824L411.41221,546.77827
				L411.65224,546.77827L411.65224,547.01829L411.89227,547.01829L411.89227,547.25832L412.1323,547.25832L412.1323,547.49834L412.37233,547.49834
				L412.37233,547.73837L412.61236,547.73837L412.61236,550.8587L412.85239,550.8587L412.85239,551.09873L413.09242,551.09873L413.09242,551.33875
				L413.33245,551.33875L413.33245,551.57878L413.57248,551.57878L413.57248,551.8188L413.81251,551.8188L413.81251,552.05883L414.05254,552.05883
				L414.05254,552.29885L414.29258,552.29885L414.29258,552.53888L414.53261,552.53888L414.53261,552.77891L414.77264,552.77891
				L414.77264,553.01893L415.01267,553.01893L415.01267,553.25896L415.49273,553.25896L415.49273,553.49898L415.73276,553.49898
				L415.73276,553.97903L415.97279,553.97903L415.97279,554.21906L416.21282,554.21906L416.21282,554.45908L416.45285,554.45908
				L416.45285,554.69911L416.69288,554.69911L416.69288,554.93914L416.93291,554.93914L416.93291,555.17916L417.17294,555.17916
				L417.17294,555.41919L417.41297,555.41919L417.41297,555.65921L417.653,555.65921L417.653,555.89924L417.89303,555.89924L417.89303,556.13926
				L418.13306,556.13926L418.13306,556.37929L418.37309,556.37929L418.37309,556.61931L418.61312,556.61931L418.61312,556.85934
				L418.85315,556.85934L418.85315,557.09937L419.09318,557.09937L419.09318,557.33939L419.33322,557.33939L419.33322,557.57942
				L419.81328,557.57942L419.81328,557.81944L420.05331,557.81944L420.05331,558.29949L420.29334,558.29949L420.29334,558.53952
				L420.53337,558.53952L420.53337,558.77954L420.7734,558.77954L420.7734,559.01957L421.01343,559.01957L421.01343,559.2596L421.25346,559.2596
				L421.25346,559.49962L421.49349,559.49962L421.49349,559.73965L421.73352,559.73965L421.73352,559.97967L421.97355,559.97967
				L421.97355,560.2197L422.21358,560.2197L422.21358,560.45972L422.45361,560.45972L422.45361,560.69975L422.69364,560.69975L422.69364,560.93977
				L422.93367,560.93977L422.93367,561.1798L423.1737,561.1798L423.1737,561.41983L423.41373,561.41983L423.41373,561.65985L423.65376,561.65985
				L423.65376,561.89988L424.13382,561.89988L424.13382,562.37993L424.37385,562.37993L424.37385,562.61995L424.61389,562.61995
				L424.61389,562.85998L424.85392,562.85998L424.85392,563.1L425.09395,563.1L425.09395,563.34003L425.33398,563.34003L425.33398,563.58006
				L425.57401,563.58006L425.57401,563.82008L425.81404,563.82008L425.81404,564.06011L426.05407,564.06011L426.05407,564.30013
				L426.2941,564.30013L426.2941,564.54016L426.53413,564.54016L426.53413,564.78018L426.77416,564.78018L426.77416,565.02021L427.01419,565.02021
				L427.01419,565.26024L427.25422,565.26024L427.25422,565.50026L427.49425,565.50026L427.49425,565.74029L427.73428,565.74029
				L427.73428,565.98031L427.97431,565.98031L427.97431,566.22034L428.45437,566.22034L428.45437,566.70039L428.6944,566.70039L
				428.6944,566.94041L428.93443,566.94041L428.93443,588.78274L428.6944,588.78274L428.6944,590.70295L428.45437,590.70295L428.45437,593.1032
				L427.97431,593.1032L427.97431,618.30589L428.45437,618.30589L428.45437,618.54591L428.6944,618.54591L428.6944,618.78594L428.93443,618.78594
				L428.93443,619.02596L429.17446,619.02596L429.17446,624.54655L429.41449,624.54655L429.41449,624.78658L429.65452,624.78658
				L429.65452,625.0266L429.89456,625.0266L429.89456,625.26663L430.13459,625.26663L430.13459,625.50666L430.37462,625.50666L430.37462,625.74668
				L430.61465,625.74668L430.61465,625.98671L430.85468,625.98671L430.85468,626.22673L431.09471,626.22673L431.09471,626.70678
				L431.33474,626.70678L431.33474,626.94681L431.57477,626.94681L431.57477,627.42686L431.8148,627.42686L431.8148,627.66689L432.05483,627.66689
				L432.05483,627.90691L432.29486,627.90691L432.29486,628.14694L432.77492,628.14694L432.77492,628.38696L433.01495,628.38696
				L433.01495,628.62699L433.25498,628.62699L433.25498,628.86701L433.49501,628.86701L433.49501,629.10704L433.73504,629.10704
				L433.73504,629.34706L433.97507,629.34706L433.97507,629.58709L434.2151,629.58709L434.2151,629.82712L434.45513,629.82712L434.45513,630.06714
				L434.69516,630.06714L434.69516,630.30717L434.9352,630.30717L434.9352,630.78722L435.17523,630.78722L435.17523,631.02724L435.41526,631.02724
				L435.41526,631.26727L435.65529,631.26727L435.65529,631.50729L435.89532,631.50729L435.89532,631.74732L436.13535,631.74732
				L436.13535,631.98735L436.37538,631.98735L436.37538,632.22737L436.85544,632.22737L436.85544,632.4674L437.09547,632.4674L437.09547,632.70742
				L437.3355,632.70742L437.3355,632.94745L437.57553,632.94745L437.57553,633.18747L437.81556,633.18747L437.81556,633.4275L438.05559,633.4275
				L438.05559,633.66752L438.29562,633.66752L438.29562,633.90755L438.53565,633.90755L438.53565,634.14758L438.77568,634.14758
				L438.77568,634.3876L439.01571,634.3876L439.01571,634.62763L439.25574,634.62763L439.25574,635.10768L439.49577,635.10768L439.49577,635.3477
				L439.7358,635.3477L439.7358,635.58773L439.97583,635.58773L439.97583,635.82775L440.21587,635.82775L440.21587,636.06778L440.4559,636.06778
				L440.4559,636.30781L440.69593,636.30781L440.69593,636.54783L441.17599,636.54783L441.17599,636.78786L441.41602,636.78786L
				441.41602,637.02788L441.65605,637.02788L441.65605,637.26791L441.89608,637.26791L441.89608,637.50793L442.13611,637.50793L
				442.13611,637.74796L442.37614,637.74796L442.37614,637.98799L442.61617,637.98799L442.61617,638.22801L442.8562,638.22801L442.8562,638.46804
				L443.09623,638.46804L443.09623,638.70806L443.33626,638.70806L443.33626,638.94809L443.57629,638.94809L443.57629,639.42814
				L443.81632,639.42814L443.81632,639.66816L444.05635,639.66816L444.05635,639.90819L444.29638,639.90819L444.29638,640.14822
				L444.53641,640.14822L444.53641,640.38824L444.77644,640.38824L444.77644,640.62827L445.01647,640.62827L445.01647,640.86829
				L445.49654,640.86829L445.49654,641.10832L445.73657,641.10832L445.73657,641.34834L445.9766,641.34834L445.9766,641.58837L446.21663,641.58837
				L446.21663,641.82839L446.45666,641.82839L446.45666,642.06842L446.69669,642.06842L446.69669,642.30845L446.93672,642.30845
				L446.93672,642.54847L447.17675,642.54847L447.17675,642.7885L447.41678,642.7885L447.41678,643.02852L447.65681,643.02852L447.65681,643.26855
				L447.89684,643.26855L447.89684,643.7486L448.13687,643.7486L448.13687,643.98862L448.3769,643.98862L448.3769,644.22865L448.61693,644.22865
				L448.61693,644.46868L448.85696,644.46868L448.85696,644.7087L449.09699,644.7087L449.09699,644.94873L449.33702,644.94873L449.33702,645.18875
				L449.81708,645.18875L449.81708,645.42878L450.05711,645.42878L450.05711,645.6688L450.29714,645.6688L450.29714,645.90883L450.53717,645.90883
				L450.53717,646.14885L450.77721,646.14885L450.77721,646.38888L451.01724,646.38888L451.01724,646.62891L451.25727,646.62891
				L451.25727,646.86893L451.4973,646.86893L451.4973,647.10896L451.73733,647.10896L451.73733,647.34898L451.97736,647.34898L451.97736,647.58901
				L452.21739,647.58901L452.21739,648.06906L452.45742,648.06906L452.45742,648.30908L452.69745,648.30908L452.69745,648.54911
				L452.93748,648.54911L452.93748,648.78914L453.17751,648.78914L453.17751,649.02916L453.41754,649.02916L453.41754,649.26919
				L453.65757,649.26919L453.65757,649.50921L454.13763,649.50921L454.13763,655.74988L454.37766,655.74988L454.37766,655.9899L
				454.61769,655.9899L454.61769,656.46995L454.85772,656.46995L454.85772,656.70998L455.09775,656.70998L455.09775,656.95001L455.33778,656.95001
				L455.33778,657.19003L455.57781,657.19003L455.57781,657.43006L455.81785,657.43006L455.81785,657.67008L456.05788,657.67008
				L456.05788,657.91011L456.29791,657.91011L456.29791,658.15013L456.53794,658.15013L456.53794,658.39016L456.77797,658.39016
				L456.77797,658.63018L457.018,658.63018L457.018,658.87021L457.25803,658.87021L457.25803,659.11024L457.49806,659.11024L457.49806,659.35026
				L457.73809,659.35026L457.73809,659.59029L457.97812,659.59029L457.97812,659.83031L458.45818,659.83031L458.45818,660.07034
				L458.69821,660.07034L458.69821,660.31036L458.93824,660.31036L458.93824,660.79041L459.17827,660.79041L459.17827,661.03044
				L459.4183,661.03044L459.4183,661.27047L459.65833,661.27047L459.65833,661.51049L459.89836,661.51049L459.89836,661.75052L460.13839,661.75052
				L460.13839,661.99054L460.37842,661.99054L460.37842,662.23057L460.61845,662.23057L460.61845,662.47059L460.85848,662.47059
				L460.85848,662.71062L461.09852,662.71062L461.09852,662.95065L461.33855,662.95065L461.33855,663.19067L461.57858,663.19067
				L461.57858,663.4307L461.81861,663.4307L461.81861,663.67072L462.05864,663.67072L462.05864,663.91075L462.5387,663.91075L462.5387,664.15077
				L462.77873,664.15077L462.77873,664.3908L463.01876,664.3908L463.01876,664.63082L463.25879,664.63082L463.25879,665.11088L463.01876,665.11088
				L463.01876,666.55103L462.77873,666.55103L462.77873,667.99118L462.5387,667.99118L462.5387,669.67136L462.05864,669.67136L462.05864,671.11151
				L461.81861,671.11151L461.81861,672.55167L461.57858,672.55167L461.57858,673.99182L460.37842,673.99182L460.37842,674.23185
				L457.73809,674.23185L457.73809,674.47187L456.29791,674.47187L456.29791,679.99246L456.05788,679.99246L456.05788,688.87341
				L455.81785,688.87341L455.81785,694.394L455.33778,694.394L455.33778,694.63402L454.85772,694.63402L454.85772,695.11407L454.37766,695.11407
				L454.37766,695.3541L453.65757,695.3541L453.65757,695.59412L453.17751,695.59412L453.17751,695.83415L452.69745,695.83415L452.69745,696.07417
				L452.21739,696.07417L452.21739,696.3142L451.73733,696.3142L451.73733,696.55423L451.25727,696.55423L451.25727,696.79425L450.77721,696.79425
				L450.77721,697.03428L450.29714,697.03428L450.29714,697.2743L449.81708,697.2743L449.81708,697.51433L449.09699,697.51433L449.09699,697.75435
				L448.61693,697.75435L448.61693,697.99438L448.13687,697.99438L448.13687,698.2344L447.65681,698.2344L447.65681,698.47443L446.69669,698.47443
				L446.69669,698.2344L446.21663,698.2344L446.21663,697.99438L445.73657,697.99438L445.73657,697.75435L445.01647,697.75435L445.01647,697.51433
				L444.53641,697.51433L444.53641,697.2743L443.81632,697.2743L443.81632,697.03428L443.33626,697.03428L443.33626,696.79425L442.8562,696.79425
				L442.8562,696.55423L442.37614,696.55423L442.37614,696.3142L441.65605,696.3142L441.65605,696.07417L441.17599,696.07417L441.17599,695.83415
				L440.4559,695.83415L440.4559,695.59412L439.97583,695.59412L439.97583,695.3541L439.49577,695.3541L439.49577,695.11407L438.77568,695.11407
				L438.77568,694.63402L438.29562,694.63402L438.29562,694.394L437.81556,694.394L437.81556,694.15397L437.3355,694.15397L437.3355,693.91394
				L436.37538,693.91394"/>
			<path clip-path="url(#SVG_CP_2)" fill="none" stroke="#999999" stroke-width="0.96012" stroke-miterlimit="10" stroke-linecap="round" stroke-linejoin="round" d="
				M436.37538,693.91394L436.37538,693.67392L435.89532,693.67392L435.89532,693.43389L435.41526,693.43389L435.41526,693.19387
				L434.9352,693.19387L434.9352,692.95384L434.45513,692.95384L434.45513,692.71382L433.73504,692.71382L433.73504,692.47379L433.25498,692.47379
				L433.25498,692.23377L432.77492,692.23377L432.77492,691.99374L432.05483,691.99374L432.05483,691.75371L431.33474,691.75371
				L431.33474,691.51369L430.85468,691.51369L430.85468,691.27366L430.37462,691.27366L430.37462,691.03364L429.89456,691.03364
				L429.89456,690.79361L429.41449,690.79361L429.41449,690.31356L428.6944,690.31356L428.6944,690.07354L427.97431,690.07354L427.97431,689.83351
				L427.49425,689.83351L427.49425,689.59348L427.01419,689.59348L427.01419,689.35346L426.2941,689.35346L426.2941,689.11343L426.05407,689.11343
				L426.05407,689.83351L425.81404,689.83351L425.81404,690.79361L425.57401,690.79361L425.57401,691.27366L425.33398,691.27366
				L425.33398,691.99374L425.09395,691.99374L425.09395,692.71382L424.85392,692.71382L424.85392,693.19387L424.61389,693.19387
				L424.61389,693.91394L424.37385,693.91394L424.37385,694.63402L424.13382,694.63402L424.13382,695.3541L423.65376,695.3541L423.65376,696.07417
				L423.41373,696.07417L423.41373,696.79425L423.1737,696.79425L423.1737,697.2743L422.93367,697.2743L422.93367,697.99438L422.69364,697.99438
				L422.69364,698.71446L422.45361,698.71446L422.45361,699.43453L422.21358,699.43453L422.21358,700.15461L421.97355,700.15461
				L421.97355,700.87469L421.73352,700.87469L421.73352,701.35474L421.49349,701.35474L421.49349,702.07481L421.25346,702.07481
				L421.25346,702.55487L421.01343,702.55487L421.01343,703.51497L420.7734,703.51497L420.7734,703.99502L420.53337,703.99502L420.53337,704.7151
				L420.29334,704.7151L420.29334,705.19515L420.05331,705.19515L420.05331,705.91522L419.81328,705.91522L419.81328,706.39527L
				419.33322,706.39527L419.33322,707.11535L419.09318,707.11535L419.09318,707.83543L418.85315,707.83543L418.85315,708.5555L418.61312,708.5555
				L418.61312,709.03556L418.37309,709.03556L418.37309,709.75563L418.13306,709.75563L418.13306,709.99566L417.89303,709.99566
				L417.89303,710.23568L417.41297,710.23568L417.41297,710.47571L416.93291,710.47571L416.93291,710.71573L416.21282,710.71573
				L416.21282,710.95576L415.73276,710.95576L415.73276,711.19579L414.77264,711.19579L414.77264,711.43581L414.29258,711.43581
				L414.29258,711.67584L413.81251,711.67584L413.81251,712.15589L413.33245,712.15589L413.33245,712.39591L413.09242,712.39591
				L413.09242,712.87597L412.85239,712.87597L412.85239,713.11599L412.61236,713.11599L412.61236,713.59604L412.1323,713.59604L
				412.1323,713.83607L411.89227,713.83607L411.89227,714.07609L411.41221,714.07609L411.41221,714.31612L410.69212,714.31612L410.69212,714.55614
				L410.21206,714.55614L410.21206,714.79617L409.97203,714.79617L409.97203,715.0362L409.49197,715.0362L409.49197,715.27622L409.01191,715.27622
				L409.01191,715.51625L408.77187,715.51625L408.77187,715.75627L408.29181,715.75627L408.29181,715.9963L407.81175,715.9963L407.81175,716.47635
				L406.13154,716.47635L406.13154,716.71637L403.4912,716.71637L403.4912,716.9564L400.61084,716.9564L400.61084,717.19643L397.73047,717.19643
				L397.73047,717.43645L397.25041,717.43645L397.25041,718.15653L397.49044,718.15653L397.49044,719.35666L397.73047,719.35666
				L397.73047,721.03683L397.9705,721.03683L397.9705,722.47699L398.45057,722.47699L398.45057,723.91714L398.6906,723.91714L398.6906,725.59732
				L398.93063,725.59732L398.93063,727.03747L399.17066,727.03747L399.17066,728.47763L399.41069,728.47763L399.41069,730.15781
				L399.65072,730.15781L399.65072,731.59796L399.89075,731.59796L399.89075,733.03811L400.13078,733.03811L400.13078,734.71829
				L399.89075,734.71829L399.89075,734.23824L399.65072,734.23824L399.65072,733.99822L399.41069,733.99822L399.41069,733.75819
				L399.17066,733.75819L399.17066,733.03811L398.45057,733.03811L398.45057,732.79809L397.49044,732.79809L397.49044,732.55806
				L397.01038,732.55806L397.01038,732.31804L396.77035,732.31804L396.77035,732.07801L396.29029,732.07801L396.29029,731.83799
				L395.5702,731.83799L395.5702,731.59796L395.09014,731.59796L395.09014,731.35793L394.37005,731.35793L394.37005,731.11791L393.64996,731.11791
				L393.64996,730.87788L393.40993,730.87788L393.40993,730.63786L392.92986,730.63786L392.92986,730.39783L392.4498,730.39783L
				392.4498,730.15781L391.72971,730.15781L391.72971,729.91778L391.24965,729.91778L391.24965,729.67776L390.76959,729.67776L390.76959,729.43773
				L390.28953,729.43773L390.28953,729.1977L389.56944,729.1977L389.56944,728.71765L389.08938,728.71765L389.08938,728.47763L388.60932,728.47763
				L388.60932,728.2376L387.88922,728.2376L387.88922,727.99758L387.40916,727.99758L387.40916,727.75755L387.16913,727.75755L387.16913,727.51753
				L386.68907,727.51753L386.68907,727.2775L386.20901,727.2775L386.20901,727.03747L385.72895,727.03747L385.72895,726.79745L384.76883,726.79745
				L384.76883,726.55742L384.28877,726.55742L384.28877,726.3174L384.04874,726.3174L384.04874,726.07737L383.56868,726.07737L383.56868,725.83735
				L383.08862,725.83735L383.08862,725.59732L382.60855,725.59732L382.60855,725.3573L381.88846,725.3573L381.88846,725.11727L381.64843,725.11727
				L381.64843,724.87724L380.92834,724.87724L380.92834,724.39719L380.44828,724.39719L380.44828,724.15717L379.96822,724.15717
				L379.96822,723.91714L379.48816,723.91714L379.48816,723.67712L378.76807,723.67712L378.76807,723.43709L378.52804,723.43709
				L378.52804,723.19706L378.04798,723.19706L378.04798,722.95704L377.56791,722.95704L377.56791,722.71701L377.08785,722.71701
				L377.08785,722.47699L376.36776,722.47699L376.36776,722.23696L375.64767,722.23696L375.64767,721.99694L375.40764,721.99694
				L375.40764,721.75691L374.92758,721.75691L374.92758,721.51689L374.44752,721.51689L374.44752,721.27686L373.96746,721.27686
				L373.96746,721.03683L373.4874,721.03683L373.4874,720.79681L372.76731,720.79681L372.76731,720.31676L372.28724,720.31676L372.28724,720.07673
				L371.80718,720.07673L371.80718,719.83671L371.32712,719.83671L371.32712,719.59668L370.84706,719.59668L370.84706,719.35666
				L370.367,719.35666L370.367,719.11663L369.88694,719.11663L369.88694,718.8766L369.40688,718.8766L369.40688,718.63658L368.92682,718.63658
				L368.92682,718.39655L368.68679,718.39655L368.68679,718.15653L367.9667,718.15653L367.9667,717.9165L367.72667,717.9165L367.72667,717.67648
				L367.48664,717.67648L367.48664,717.43645L367.24661,717.43645L367.24661,716.71637L367.00657,716.71637L367.00657,715.9963L
				366.76654,715.9963L366.76654,715.27622L366.52651,715.27622L366.52651,714.79617L366.28648,714.79617L366.28648,714.31612L366.04645,714.31612
				L366.04645,713.59604L365.80642,713.59604L365.80642,713.11599L365.56639,713.11599L365.56639,712.39591L365.32636,712.39591
				L365.32636,711.67584L365.08633,711.67584L365.08633,711.19579L364.8463,711.19579L364.8463,710.47571L364.60627,710.47571L364.60627,709.99566
				L364.36624,709.99566L364.36624,709.27558L363.88618,709.27558L363.88618,708.79553L363.64615,708.79553L363.64615,708.31548
				L363.40612,708.31548L363.40612,707.35538L363.16609,707.35538L363.16609,706.87533L362.92606,706.87533L362.92606,706.15525
				L362.68603,706.15525L362.68603,705.6752L362.446,705.6752L362.446,705.19515L362.20597,705.19515L362.20597,704.47507L361.96594,704.47507
				L361.96594,703.99502L361.7259,703.99502L361.7259,703.03492L361.48587,703.03492L361.48587,702.55487L361.24584,702.55487L361.24584,701.83479
				L361.00581,701.83479L361.00581,701.35474L360.76578,701.35474L360.76578,700.87469L360.52575,700.87469L360.52575,700.15461
				L360.28572,700.15461L360.28572,699.67456L360.04569,699.67456L360.04569,698.71446L359.56563,698.71446L359.56563,698.2344L
				359.3256,698.2344L359.3256,697.75435L359.08557,697.75435L359.08557,697.03428L358.84554,697.03428L358.84554,696.55423L358.60551,696.55423
				L358.60551,695.83415L358.36548,695.83415L358.36548,695.3541L358.12545,695.3541L358.12545,694.63402L357.88542,694.63402L357.88542,693.91394
				L357.64539,693.91394L357.64539,693.43389L357.40536,693.43389L357.40536,692.95384L357.16533,692.95384L357.16533,692.23377
				L356.9253,692.23377L356.9253,691.75371L356.68526,691.75371L356.68526,691.03364L356.44523,691.03364L356.44523,690.31356L356.2052,690.31356
				L356.2052,689.83351L355.96517,689.83351L355.96517,689.11343L355.72514,689.11343L355.72514,688.63338L355.24508,688.63338L
				355.24508,687.91331L355.00505,687.91331L355.00505,687.43325L354.76502,687.43325L354.76502,686.9532L354.52499,686.9532L354.52499,685.9931
				L354.28496,685.9931L354.28496,685.51305L354.04493,685.51305L354.04493,684.79297L353.8049,684.79297L353.8049,684.31292L353.56487,684.31292
				L353.56487,683.83287L353.32484,683.83287L353.32484,683.11279L353.08481,683.11279L353.08481,682.63274L352.84478,682.63274
				L352.84478,681.67264L352.60475,681.67264L352.60475,681.19259L352.36472,681.19259L352.36472,680.47251L352.12469,680.47251
				L352.12469,679.99246L351.88466,679.99246L351.88466,679.51241L351.64463,679.51241L351.64463,678.79233L351.40459,678.79233
				L351.40459,678.31228L350.92453,678.31228L350.92453,677.35218L350.6845,677.35218L350.6845,676.87213L350.44447,676.87213L350.44447,676.39208
				L350.20444,676.39208L350.20444,675.672L349.96441,675.672L349.96441,675.19195L349.72438,675.19195L349.72438,674.47187L349.48435,674.47187
				L349.48435,673.99182L349.24432,673.99182L349.24432,673.03172L349.00429,673.03172L349.00429,672.55167L348.76426,672.55167
				L348.76426,672.07162L348.52423,672.07162L348.52423,671.35154L348.2842,671.35154L348.2842,670.87149L348.04417,670.87149L348.04417,670.15141
				L347.80414,670.15141L347.80414,669.67136L347.56411,669.67136L347.56411,668.95128L347.32408,668.95128L347.32408,668.23121
				L347.08405,668.23121L347.08405,667.75116L346.60399,667.75116L346.60399,667.03108L346.36396,667.03108L346.36396,666.55103
				L346.12392,666.55103L346.12392,651.42942L345.88389,651.42942L345.88389,635.3477L345.64386,635.3477L345.64386,634.3876L345.40383,634.3876
				L345.40383,633.66752L345.1638,633.66752L345.1638,633.18747L344.92377,633.18747L344.92377,632.4674L344.68374,632.4674L344.68374,631.74732
				L344.44371,631.74732L344.44371,631.26727L344.20368,631.26727L344.20368,630.30717L343.96365,630.30717L343.96365,629.82712
				L343.72362,629.82712L343.72362,629.10704L343.48359,629.10704L343.48359,628.38696L343.24356,628.38696L343.24356,627.66689
				L343.00353,627.66689L343.00353,627.18683L342.52347,627.18683L342.52347,626.22673L342.28344,626.22673L342.28344,625.50666
				L342.04341,625.50666L342.04341,625.0266L341.80338,625.0266L341.80338,624.30653L341.56335,624.30653L341.56335,623.58645L341.32332,623.58645
				L341.32332,622.86637L341.08328,622.86637L341.08328,622.38632L340.84325,622.38632L340.84325,619.26599L340.60322,619.26599
				L340.60322,618.06586L340.36319,618.06586L340.36319,617.10576L340.12316,617.10576L340.12316,616.38568L339.88313,616.38568
				L339.88313,615.66561L339.6431,615.66561L339.6431,614.94553L339.40307,614.94553L339.40307,613.98543L339.16304,613.98543L339.16304,612.7853
				L338.92301,612.7853L338.92301,612.06522L338.68298,612.06522L338.68298,611.34515L338.20292,611.34515L338.20292,610.38504L
				337.96289,610.38504L337.96289,609.42494L337.72286,609.42494L337.72286,608.46484L337.48283,608.46484L337.48283,607.74476L
				337.2428,607.74476L337.2428,606.78466L337.00277,606.78466L337.00277,606.06458L336.76274,606.06458L336.76274,605.34451L336.52271,605.34451
				L336.52271,604.14438L336.28268,604.14438L336.28268,602.70423L336.04265,602.70423L336.04265,600.06394L335.80261,600.06394
				L335.80261,599.58389L335.56258,599.58389L335.56258,599.10384L335.32255,599.10384L335.32255,598.62379L335.08252,598.62379
				L335.08252,598.38376L334.84249,598.38376L334.84249,597.90371L334.60246,597.90371L334.60246,597.42366L334.36243,597.42366
				L334.36243,596.94361L333.88237,596.94361L333.88237,596.22353L333.64234,596.22353L333.64234,595.74348L333.40231,595.74348
				L333.40231,595.26343L333.16228,595.26343L333.16228,594.78338L332.92225,594.78338L332.92225,594.54336L332.68222,594.54336
				L332.68222,591.66305L332.44219,591.66305L332.44219,589.74284L332.20216,589.74284L332.20216,587.58261L331.96213,587.58261
				L331.96213,586.14246L331.7221,586.14246L331.7221,584.94233L331.48207,584.94233L331.48207,583.98223L331.24204,583.98223L331.24204,579.18172
				L331.00201,579.18172L331.00201,575.58133L330.76198,575.58133L330.76198,573.18108L330.52194,573.18108L330.52194,571.26087
				L330.28191,571.26087L330.28191,569.10064L330.04188,569.10064L330.04188,532.61676L330.28191,532.61676L330.28191,531.65665
				L330.52194,531.65665L330.52194,529.97648L330.76198,529.97648L330.76198,529.73645L330.52194,529.73645L330.52194,527.57622
				L330.28191,527.57622L330.28191,525.89604L330.04188,525.89604L330.04188,522.29566L329.56182,522.29566L329.56182,520.8555L
				329.32179,520.8555L329.32179,520.61548L329.08176,520.61548L329.08176,520.37545L328.84173,520.37545L328.84173,520.13543L328.6017,520.13543
				L328.6017,519.8954L328.36167,519.8954L328.36167,519.17532L328.12164,519.17532L328.12164,518.9353L327.88161,518.9353L327.88161,518.69527
				L327.64158,518.69527L327.64158,518.45525L327.40155,518.45525L327.40155,518.21522L327.16152,518.21522L327.16152,517.9752L
				326.92149,517.9752L326.92149,517.73517L326.68146,517.73517L326.68146,517.49515L326.44143,517.49515L326.44143,517.25512L325.96137,517.25512
				L325.96137,517.01509L325.72134,517.01509L325.72134,516.77507L325.24127,516.77507L325.24127,516.53504L325.00124,516.53504
				L325.00124,516.29502L324.76121,516.29502L324.76121,516.05499L324.52118,516.05499L324.52118,515.81497L324.28115,515.81497
				L324.28115,515.57494L324.04112,515.57494L324.04112,515.33492L323.80109,515.33492L323.80109,514.85486L323.56106,514.85486
				L323.56106,514.61484L323.32103,514.61484L323.32103,514.37481L323.081,514.37481L323.081,514.13479L322.84097,514.13479L322.84097,513.89476
				L322.60094,513.89476L322.60094,513.65474L322.36091,513.65474L322.36091,513.41471L322.12088,513.41471L322.12088,513.17468
				L321.88085,513.17468L321.88085,512.69463L321.64082,512.69463L321.64082,512.21458L321.40079,512.21458L321.40079,511.97456
				L320.92073,511.97456L320.92073,511.49451L320.6807,511.49451L320.6807,510.77443L320.44067,510.77443L320.44067,510.5344L320.20063,510.5344
				L320.20063,510.05435L319.9606,510.05435L319.9606,509.5743L319.72057,509.5743L319.72057,509.09425L319.48054,509.09425L319.48054,508.6142
				L319.24051,508.6142L319.24051,508.13415L319.00048,508.13415L319.00048,507.6541L318.76045,507.6541L318.76045,507.17405L318.52042,507.17405
				L318.52042,506.45397L318.28039,506.45397L318.28039,505.97392L318.04036,505.97392L318.04036,505.49387L317.80033,505.49387
				L317.80033,504.77379L317.5603,504.77379L317.5603,504.53376L317.32027,504.53376L317.32027,504.05371L316.84021,504.05371L316.84021,503.57366
				L316.60018,503.57366L316.60018,503.33364L316.36015,503.33364L316.36015,503.09361L316.12012,503.09361L316.12012,502.85359
				L315.88009,502.85359L315.88009,502.61356L315.64006,502.61356L315.64006,502.13351L315.40003,502.13351L315.40003,501.89348
				L315.16,501.89348L315.16,501.65346L314.91996,501.65346L314.91996,501.41343L314.67993,501.41343L314.67993,501.17341L314.4399,501.17341
				L314.4399,500.93338L314.19987,500.93338L314.19987,500.69335L313.95984,500.69335L313.95984,500.2133L313.71981,500.2133L313.71981,499.97328
				L313.47978,499.97328L313.47978,499.73325L313.23975,499.73325L313.23975,499.2532L312.99972,499.2532L312.99972,498.77315L312.51966,498.77315
				L312.51966,498.2931L312.27963,498.2931L312.27963,497.57302L312.0396,497.57302L312.0396,497.09297L311.79957,497.09297L311.79957,496.61292
				L311.55954,496.61292L311.55954,496.13287L311.31951,496.13287L311.31951,495.65282L311.07948,495.65282L311.07948,495.17277
				L310.83945,495.17277L310.83945,494.45269L310.59942,494.45269L310.59942,493.49259L310.35939,493.49259L310.35939,493.01254
				L310.11936,493.01254L310.11936,492.29246L309.87933,492.29246L309.87933,491.57238L309.63929,491.57238L309.63929,491.09233
				L309.39926,491.09233L309.39926,490.61228L309.15923,490.61228L309.15923,490.37225L308.9192,490.37225L308.9192,490.13223L308.67917,490.13223
				L308.67917,489.8922L308.19911,489.8922L308.19911,489.65218L307.95908,489.65218L307.95908,489.17213L307.71905,489.17213L307.71905,488.9321
				L307.47902,488.9321L307.47902,488.69208L306.99896,488.69208L306.99896,488.45205L306.75893,488.45205L306.75893,488.21202L
				306.5189,488.21202L306.5189,487.972L306.27887,487.972L306.27887,487.73197L306.03884,487.73197L306.03884,487.49195L305.79881,487.49195
				L305.79881,487.25192L305.55878,487.25192L305.55878,487.0119L305.31875,487.0119L305.31875,486.77187L305.07872,486.77187L305.07872,486.53185
				L304.59865,486.53185L304.59865,486.29182L304.35862,486.29182L304.35862,486.05179L303.87856,486.05179L303.87856,485.81177
				L303.63853,485.81177L303.63853,485.57174L303.3985,485.57174L303.3985,485.09169L303.15847,485.09169L303.15847,484.85167L302.91844,484.85167
				L302.91844,484.61164L302.67841,484.61164L302.67841,484.37162L302.43838,484.37162L302.43838,484.13159L301.95832,484.13159
				L301.95832,483.89156L301.71829,483.89156L301.71829,483.65154L301.47826,483.65154L301.47826,483.41151L301.23823,483.41151
				L301.23823,483.17149L300.9982,483.17149L300.9982,482.93146L300.75817,482.93146L300.75817,482.69144L300.51814,482.69144L300.51814,482.45141
				L300.27811,482.45141L300.27811,482.21139L300.03808,482.21139L300.03808,481.97136L299.55802,481.97136L299.55802,481.73133
				"/>
		</g>
</g></svg>