<?xml version="1.0" encoding="utf-8" standalone="no"?>
<!-- Creator: ESRI ArcMap 10.0.0.2414 -->
<!DOCTYPE svg PUBLIC "-//W3C//DTD SVG 1.1//EN"  "http://www.w3.org/Graphics/SVG/1.1/DTD/svg11.dtd">
<svg width="524.0420768pt" height="229.223824817pt" viewBox="32.15712744 306.517222591 524.0420768 229.223824817" enable-background="new 32.15712744 306.517222591 524.0420768 229.223824817"
	version="1.1" xmlns="http://www.w3.org/2000/svg" xmlns:xlink="http://www.w3.org/1999/xlink" >
	<g id="Couches">
		<g id="reservoirs">
			<clipPath id="SVG_CP_2">
				<path d="M574.39289,21.36228L21.36271,21.36228L21.36271,821.36753L574.39289,821.36753L574.39289,21.36228z"/>
			</clipPath>
			<path clip-path="url(#SVG_CP_2)" fill-opacity="0.2" fill="#2f4493" fill-rule="evenodd" stroke="#2f4493" stroke-width="1" stra="1.44018" stroke-miterlimit="10" stroke-linecap="round" stroke-linejoin="round" d="
				M52.56667,438.04668L48.96621,438.76676L46.56591,437.80665L47.286,431.80601L49.68631,430.60589L55.44704,431.80601L53.76682,438.04668
				L52.56667,438.04668z"/>
			<path clip-path="url(#SVG_CP_2)" fill-opacity="0.2" fill="#2f4493" fill-rule="evenodd" stroke="#2f4493" stroke-width="1" stra="1.44018" stroke-miterlimit="10" stroke-linecap="round" stroke-linejoin="round" d="
				M172.10184,311.79323L246.51128,349.71727L264.99363,364.83888L265.47369,365.79898L267.1539,367.71918L272.19454,374.19988L
				276.03503,376.60013L310.11936,396.0422L319.24051,401.08274L306.5189,418.60461L320.44067,429.40576L325.24127,432.52609L327.16152,434.68632
				L328.84173,436.60653L329.32179,440.68696L329.56182,442.36714L329.08176,447.88773L330.52194,448.6078L332.44219,450.04796L
				335.80261,445.24745L337.2428,445.48747L338.92301,445.7275L341.32332,453.88837L345.1638,460.36906L353.8049,466.60972L353.08481,466.84975
				L354.76502,468.52993L365.08633,457.48875L371.80718,448.6078L378.04798,440.68696L389.32941,428.68568L390.0495,427.9656L392.92986,429.16573
				L394.37005,429.88581L408.77187,437.08658L436.37538,452.44821L438.05559,455.32852L437.57553,456.28862L436.85544,457.48875
				L438.29562,458.20883L439.25574,456.76867L442.61617,460.12903L440.93596,464.20947L445.2565,465.88965L443.81632,469.49003L
				445.49654,470.45013L446.45666,468.04988L448.85696,469.25L449.33702,468.52993L459.65833,472.61036L459.17827,473.57046L466.85925,476.45077
				L468.53946,477.17085L469.01952,474.77059L470.69973,475.25064L472.37995,475.49067L476.7005,476.6908L480.30095,476.6908L484.6215,478.611
				L485.10156,477.17085L485.34159,476.45077L488.94205,479.09105L493.02257,482.21139L498.06321,487.0119L501.42363,489.8922L504.54403,492.05243
				L511.26488,496.61292L514.14525,498.53312L517.26564,500.45333L514.62531,504.53376L515.3454,505.01382L522.30628,508.37417L
				523.2664,505.73389L524.70659,502.61356L526.14677,501.89348L529.98726,503.57366L534.54784,505.01382L539.10841,506.93402L541.26869,507.6541
				L541.02866,508.6142L540.30857,511.01445L541.74875,511.73453L545.34921,513.41471L549.18969,515.09489L546.54936,522.29566L
				544.14905,529.49642L513.66519,530.69655L496.14296,529.73645L494.94281,529.2564L491.10232,528.2963L488.94205,527.57622L474.30019,523.01573
				L470.93976,516.53504L468.77949,514.37481L468.53946,513.41471L468.0594,509.81433L464.939,506.45397L458.69821,503.81369L457.97812,503.57366
				L455.09775,502.85359L452.93748,502.13351L450.53717,500.93338L442.8562,498.77315L431.57477,495.65282L420.7734,494.69272L409.97203,490.61228
				L400.61084,489.17213L398.93063,493.49259L395.5702,503.81369L398.45057,504.77379L407.57172,507.6541L412.37233,509.09425L403.97127,528.05627
				L402.53108,527.33619L394.61008,523.73581L387.64919,523.25576L379.24813,522.77571L374.92758,522.29566L367.72667,520.61548
				L356.2052,516.29502L347.80414,514.61484L343.00353,513.65474L342.7635,513.65474L322.60094,507.89412L280.83564,495.65282L266.91387,485.33172
				L256.35253,482.69144L245.31113,487.73197L223.70839,475.25064L201.62559,468.2899L197.7851,457.9688L189.144,442.36714L181.70306,438.2867
				L173.78205,439.00678L162.98068,441.88709L143.29819,440.44693L131.53669,441.40704L120.97535,440.68696L108.97383,438.52673
				L100.0927,428.68568L101.77292,414.52417L94.33197,366.99911L99.13258,364.1188L119.53517,340.35627L126.25602,335.55576L136.57733,328.59502
				L146.65861,323.7945L162.26059,330.03517L172.10184,311.79323z"/>
		</g>
</g></svg>