<?xml version="1.0" encoding="utf-8" standalone="no"?>
<!-- Creator: ESRI ArcMap 10.0.0.2414 -->
<!DOCTYPE svg PUBLIC "-//W3C//DTD SVG 1.1//EN"  "http://www.w3.org/Graphics/SVG/1.1/DTD/svg11.dtd">
<svg width="344.414305448pt" height="741.1872776pt" viewBox="125.544027276 45.48194658 344.414305448 741.1872776" enable-background="new 125.544027276 45.48194658 344.414305448 741.1872776"
	version="1.1" xmlns="http://www.w3.org/2000/svg" xmlns:xlink="http://www.w3.org/1999/xlink" >
	<g id="Couches">
		<g id="reservoirs">
			<path clip-path="url(#SVG_CP_2)" fill-opacity="0.2" fill="#07866D" fill-rule="evenodd" stroke="none" stroke-width="" stra="1.44018" stroke-miterlimit="10" stroke-linecap="round" stroke-linejoin="round" d="
				M256.1125,504.53376L259.95299,520.8555L289.9568,510.29438L295.4775,532.37673L298.59789,532.13671L300.27811,532.13671L299.07795,524.45589
				L325.00124,534.77699L330.04188,525.89604L336.76274,524.45589L336.52271,522.77571L348.76426,519.8954L347.56411,516.05499L
				353.56487,514.61484L357.16533,525.89604L362.20597,524.69591L363.16609,528.53632L366.76654,527.57622L368.92682,539.33747L
				351.40459,541.73773L353.32484,550.13862L345.1638,551.57878L346.84402,557.81944L343.00353,558.77954L342.52347,554.93914L333.40231,555.89924
				L333.40231,560.69975L340.84325,561.65985L340.84325,565.02021L342.7635,565.50026L341.56335,575.34131L350.44447,575.82136L
				350.44447,578.22162L350.20444,581.10192L354.04493,581.10192L359.3256,581.10192L354.04493,586.86254L356.9253,589.74284L360.28572,586.62251
				L359.3256,585.18236L362.68603,583.98223L363.88618,598.14374L365.32636,608.70486L349.00429,614.46548L337.00277,616.86573L
				335.32255,617.58581L328.6017,619.74604L332.68222,624.30653L326.68146,637.26791L323.081,630.30717L316.60018,633.90755L322.84097,646.14885
				L324.04112,648.06906L325.48131,647.58901L327.88161,652.62955L332.44219,666.07098L337.2428,685.27302L337.00277,685.27302L
				330.04188,687.19323L318.76045,691.03364L319.9606,693.67392L321.88085,696.79425L324.04112,698.71446L325.00124,699.19451L325.72134,699.91458
				L326.92149,701.11471L327.16152,701.35474L328.36167,703.03492L328.6017,703.03492L329.80185,703.99502L330.04188,703.99502L
				331.00201,704.7151L332.68222,704.47507L333.64234,703.75499L335.32255,703.03492L338.20292,702.31484L342.28344,701.35474L344.20368,701.11471
				L347.80414,700.63466L348.52423,700.39464L349.48435,700.39464L349.96441,700.39464L349.96441,703.75499L349.96441,703.99502
				L354.76502,703.99502L355.24508,706.39527L360.52575,703.75499L360.76578,703.75499L364.36624,702.07481L363.64615,697.51433
				L363.40612,697.2743L363.64615,692.71382L367.72667,692.95384L368.44676,692.95384L369.16685,697.75435L369.40688,699.91458L
				375.16761,699.19451L375.64767,693.67392L382.12849,694.15397L383.56868,694.15397L386.68907,693.91394L392.20977,692.71382L
				394.37005,692.71382L409.49197,695.11407L424.37385,697.03428L432.29486,697.99438L433.01495,698.2344L436.37538,698.95448L442.13611,700.63466
				L442.8562,703.75499L450.53717,703.75499L450.29714,702.31484L454.85772,702.79489L463.25879,703.75499L465.65909,703.99502L
				466.13915,704.47507L458.21815,713.59604L457.25803,714.55614L450.29714,722.47699L445.49654,726.3174L442.13611,729.1977L435.41526,734.23824
				L430.85468,735.91842L432.53489,757.2807L431.8148,765.44157L441.41602,766.88172L438.77568,782.24336L436.61541,781.52328L433.73504,781.04323
				L430.85468,780.8032L431.8148,770.24208L421.25346,770.24208L419.09318,781.28325L413.09242,781.52328L405.17142,781.76331L400.37081,782.00333
				L394.37005,782.72341L391.96974,782.96343L387.88922,783.20346L382.84859,783.44348L379.24813,783.44348L373.24737,783.92354
				L369.16685,784.40359L361.00581,784.88364L354.52499,784.64361L352.12469,784.64361L350.6845,784.40359L348.52423,783.68351L
				342.52347,781.04323L335.56258,778.64297L328.6017,776.48274L321.40079,774.56254L315.88009,773.60244L314.91996,773.12239L314.19987,772.16228
				L312.0396,768.80192L309.39926,764.48146L307.95908,762.08121L303.87856,757.52072L300.9982,754.16036L296.91768,749.59988L292.3571,745.51944
				L290.67689,743.35921L289.71677,741.67903L286.59637,736.15845L284.67613,732.07801L283.47597,729.67776L282.75588,727.03747
				L281.55573,720.79681L280.83564,717.19643L279.87552,714.55614L283.716,711.19579L286.8364,713.35602L288.51661,711.91586L289.9568,708.79553
				L289.71677,706.15525L289.23671,705.19515L292.11707,704.23504L290.67689,701.83479L294.99744,697.03428L292.3571,693.91394L
				289.47674,698.2344L287.07643,701.11471L283.23594,704.95512L280.83564,708.07545L280.11555,708.31548L279.87552,708.31548L279.63549,708.07545
				L279.15543,707.35538L278.1953,705.91522L277.71524,706.39527L276.51509,712.39591L278.67537,713.11599L278.1953,716.47635L277.23518,719.11663
				L276.03503,721.99694L273.3947,725.83735L267.87399,733.27814L257.31265,721.99694L258.27278,721.27686L260.19302,719.59668L
				256.83259,714.55614L251.79195,707.11535L251.31189,706.39527L249.63168,704.23504L247.71144,701.11471L248.1915,699.67456L247.23137,698.2344
				L238.59028,684.31292L240.03046,683.11279L252.27201,673.7518L252.99211,673.27174L250.35177,667.99118L246.75131,662.47059L
				243.87095,659.11024L241.71067,656.46995L240.51052,654.78978L238.83031,652.14949L234.74979,645.90883L225.14857,651.66944L
				211.46684,661.27047L200.42544,640.62827L200.1854,640.62827L207.62635,635.82775L210.26668,634.3876L214.10717,633.4275L210.50671,624.54655
				L204.26592,608.94489L202.34568,609.90499L198.74522,611.58517L195.14476,606.78466L171.86181,564.30013L180.02285,553.73901
				L183.86333,550.37865L189.86409,558.29949L197.30504,552.29885L196.58495,548.21842L201.38556,541.73773L202.34568,540.77763
				L203.3058,541.01765L205.46607,541.25768L205.70611,539.81752L204.74598,539.5775L200.9055,538.85742L200.66547,538.6174L200.42544,538.6174
				L199.70534,537.89732L198.74522,537.17724L197.06501,536.93722L195.86486,536.45717L197.30504,534.77699L199.94537,531.41663
				L200.42544,530.69655L210.74674,514.37481L216.98754,527.57622L226.82879,522.77571L245.0711,512.21458L248.1915,509.5743L256.1125,504.53376
				zM322.12088,541.25768L320.20063,541.25768L311.55954,556.37929L302.91844,554.45908L294.75741,553.01893L295.95756,565.02021
				L297.39774,565.02021L300.75817,565.02021L300.9982,565.02021L302.43838,572.461L302.91844,574.38121L302.67841,574.38121L299.79805,573.90116
				L299.79805,577.74157L304.11859,577.98159L305.07872,577.98159L309.15923,569.5807L312.51966,569.82072L311.31951,565.50026L
				311.55954,562.1399L311.55954,557.33939L312.51966,557.33939L328.84173,560.2197L328.6017,555.65921L321.88085,554.21906L321.40079,551.57878
				L322.60094,551.8188L322.60094,548.45844L322.12088,541.25768z"/>
			<path clip-path="url(#SVG_CP_2)" fill-opacity="0.2" fill="#07866D" fill-rule="evenodd" stroke="none" stroke-width="" stra="1.44018" stroke-miterlimit="10" stroke-linecap="round" stroke-linejoin="round" d="
				M244.59104,73.92788L246.75131,76.32813L247.71144,74.1679L248.1915,72.72775L263.55345,89.76957L271.47445,97.69041L264.99363,103.45102
				L260.91311,110.17174L259.2329,113.29207L258.27278,114.97225L256.83259,118.09258L255.87247,120.01279L251.31189,125.7734L249.87171,127.69361
				L247.95147,125.7734L244.11098,128.89374L242.19074,130.09386L241.23061,131.05397L242.43077,132.49412L236.18997,137.53466L
				235.70991,138.01471L233.06958,140.41496L233.30961,140.65499L228.74903,143.77532L229.94918,145.69553L228.98906,146.4156L231.14933,149.53594
				L233.78967,147.3757L235.22985,149.05588L235.70991,149.77596L232.82955,152.17622L234.74979,154.33645L236.91007,155.53657L
				239.5504,154.09642L242.43077,157.6968L239.79043,159.85704L241.23061,161.53721L243.63092,164.65755L246.27125,167.77788L248.67156,165.61765
				L251.55192,169.93811L249.87171,171.85831L245.0711,180.49923L244.35101,181.69936L243.15086,182.89949L242.19074,183.61957L
				239.79043,185.05972L236.67003,186.7399L232.34949,187.94003L228.98906,189.14016L231.86943,194.66074L237.39013,205.70192L243.15086,217.22315
				L245.0711,220.58351L265.71372,208.58223L271.47445,220.58351L274.11479,225.86407L279.15543,236.18517L282.27582,244.34604L
				283.95604,242.66586L284.19607,242.42583L285.63625,243.38594L286.59637,244.10601L287.55649,245.30614L288.03655,246.74629L
				288.51661,248.18645L289.47674,250.10665L290.19683,252.98696L290.91692,256.82737L291.87704,260.42775L293.07719,264.02814L
				295.71753,269.06867L296.67765,270.50883L286.35634,271.94898L300.9982,290.67097L267.1539,314.67353L266.43381,313.95346L265.47369,312.03325
				L264.51357,309.87302L263.55345,308.43287L261.6332,306.99271L259.95299,306.27264L257.31265,304.83248L256.1125,303.87238L254.67232,302.1922
				L252.51205,299.07187L251.07186,296.91164L247.71144,291.15103L250.35177,289.47085L248.1915,285.39041L251.07186,283.47021L
				250.35177,282.51011L247.71144,284.43031L245.0711,286.35051L244.83107,286.11049L240.27049,279.86982L236.91007,273.86918L235.70991,272.42903
				L234.26973,270.74885L232.82955,269.06867L231.86943,268.3486L230.42924,267.38849L228.02894,266.18837L226.58876,265.94834L
				222.9883,264.98824L216.98754,263.54808L214.3472,263.30806L212.18693,263.54808L210.02665,257.54744L203.06577,260.42775L204.50595,265.46829
				L200.66547,265.22826L197.7851,264.98824L195.86486,264.02814L194.18464,262.58798L192.74446,261.38785L191.30428,260.66778L
				189.144,259.70768L186.02361,257.78747L183.86333,256.10729L181.223,253.22698L180.26288,251.54681L179.54278,249.14655L178.58266,246.50627
				L177.38251,243.86599L173.78205,237.86535L176.66242,236.42519L176.42239,234.74502L180.50291,232.10473L173.06196,221.30358
				L163.94081,230.18453L160.10032,228.50435L158.4201,227.30422L151.45922,220.10345L149.05892,216.98312L143.53822,211.22251L
				141.858,209.78236L139.4577,208.3422L138.49758,207.62212L139.21767,204.98184L139.93776,203.30166L139.93776,203.06164L140.89788,201.62149
				L143.29819,199.22123L145.21843,197.30103L146.65861,195.62085L148.33883,194.42072L150.73913,192.98056L136.81736,174.4986L
				143.77825,170.65819L140.65785,158.41688L142.57809,156.25665L139.93776,154.09642L135.61721,150.97609L134.65709,149.29591L
				133.69697,145.4555L132.49681,141.85512L129.61645,135.1344L131.53669,136.33453L133.69697,137.05461L138.49758,137.05461L141.13791,136.81458
				L142.57809,136.0945L144.25831,134.65435L146.17855,133.2142L149.77901,130.81394L153.6195,128.89374L161.78053,119.77276L166.34111,113.5321
				L168.02132,111.13184L173.78205,105.85128L178.82269,100.09067L182.18312,95.77021L184.58342,97.45038L185.06349,96.73031L186.50367,95.53018
				L184.34339,93.36995L192.02437,86.40921L200.9055,95.29015L201.14553,95.53018L219.8679,81.36867L214.10717,74.40793L211.46684,71.2876
				L216.98754,67.20716L218.42772,66.48709L219.38784,65.76701L223.94842,62.8867L228.02894,59.76637L230.18921,57.84616L230.42924,57.60614
				L232.82955,60.72647L236.18997,64.80691L243.63092,72.72775L244.59104,73.92788z"/>
		</g>
</g></svg>