<?xml version="1.0" encoding="utf-8" standalone="no"?>
<!-- Creator: ESRI ArcMap 10.0.0.2414 -->
<!DOCTYPE svg PUBLIC "-//W3C//DTD SVG 1.1//EN"  "http://www.w3.org/Graphics/SVG/1.1/DTD/svg11.dtd">
<svg width="524.0420768pt" height="583.955811787pt" viewBox="32.15712744 129.151229106 524.0420768 583.955811787" enable-background="new 32.15712744 129.151229106 524.0420768 583.955811787"
	version="1.1" xmlns="http://www.w3.org/2000/svg" xmlns:xlink="http://www.w3.org/1999/xlink" >
	<g id="Couches">
		<g id="reservoirs">
			<path clip-path="url(#SVG_CP_2)" fill-opacity="0.2" fill="#07866D" fill-rule="evenodd" stroke="none" stroke-width="" stra="1.44018" stroke-miterlimit="10" stroke-linecap="round" stroke-linejoin="round" d="
				M409.25194,422.92507L509.8247,530.93658L549.18969,578.94169L529.5072,584.46228L519.42592,560.45972L501.90369,543.89796L503.34388,566.94041
				L465.17903,573.18108L459.65833,529.49642L411.17218,531.41663L415.73276,576.54144L421.73352,602.22417L422.69364,606.54463
				L412.1323,609.42494L394.13002,613.26535L374.68755,617.82584L357.40536,621.90627L337.96289,626.70678L323.32103,630.06714L
				307.95908,634.14758L275.55497,642.30845L246.99134,649.50921L232.82955,653.1096L219.8679,656.22993L208.58647,659.35026L187.46379,664.63082
				L156.97992,672.07162L127.21614,679.51241L96.73228,687.43325L92.89179,688.39336L65.76835,695.3541L54.72695,697.75435L46.80594,700.15461
				L46.56591,699.91458L47.286,695.11407L48.72618,683.83287L49.20624,681.91267L51.84658,647.58901L75.84963,504.29374L96.25222,349.47724
				L111.61416,258.9876L198.50519,288.9908L250.83183,313.23338L271.95451,325.23466L345.88389,367.47916L409.25194,422.92507z"/>
			<path clip-path="url(#SVG_CP_2)" fill-opacity="0.2" fill="#07866D" fill-rule="evenodd" stroke="none" stroke-width="" stra="1.44018" stroke-miterlimit="10" stroke-linecap="round" stroke-linejoin="round" d="
				M250.35177,245.78619L237.39013,256.34732L211.9469,248.90652L179.54278,239.78555L144.49834,229.9445L135.13715,228.0243L119.05511,225.38402
				L122.65557,199.70128L125.05587,182.65946L127.21614,167.0578L130.33654,148.57583L131.05663,145.69553L132.97688,142.33517L
				160.82041,166.0977L205.22604,204.50179L228.98906,224.90397L251.31189,244.10601L250.83183,245.06611L250.35177,245.78619z"/>
		</g>
</g></svg>