<?xml version="1.0" encoding="utf-8" standalone="no"?>
<!-- Creator: ESRI ArcMap 10.0.0.2414 -->
<!DOCTYPE svg PUBLIC "-//W3C//DTD SVG 1.1//EN"  "http://www.w3.org/Graphics/SVG/1.1/DTD/svg11.dtd">
<svg width="386.732610658pt" height="741.1872776pt" viewBox="104.384874671 45.48194658 386.732610658 741.1872776" enable-background="new 104.384874671 45.48194658 386.732610658 741.1872776"
	version="1.1" xmlns="http://www.w3.org/2000/svg" xmlns:xlink="http://www.w3.org/1999/xlink" >
	<g id="Couches">
		<g id="cont_2">
			<path clip-path="url(#SVG_CP_2)" fill="none" stroke="#999999" stroke-width="0.96012" stroke-miterlimit="10" stroke-linecap="round" stroke-linejoin="round" d="
				M109.21386,142.81522L108.97383,142.81522L108.97383,126.25345L109.21386,126.25345L109.21386,126.01343L109.45389,126.01343
				L109.45389,125.7734L109.93395,125.7734L109.93395,125.53338L110.41401,125.53338L110.41401,125.29335L110.41401,125.05333L110.65404,125.05333
				L110.65404,124.8133L110.89407,124.8133L111.1341,124.8133L111.1341,123.61317L111.37413,123.61317L111.37413,123.13312L111.37413,122.17302
				L111.61416,122.17302L111.61416,121.69297L111.8542,121.69297L111.8542,121.45294L112.09423,121.45294L112.09423,120.97289L112.33426,120.97289
				L112.33426,120.73287L112.33426,120.49284L112.57429,120.49284L112.57429,120.25281L113.05435,120.25281L113.05435,120.01279
				L113.29438,120.01279L113.29438,119.77276L113.77444,119.77276L113.77444,120.01279L113.53441,120.01279L113.53441,120.25281
				L113.29438,120.25281L113.29438,120.49284L113.77444,120.49284L114.01447,120.49284L114.01447,120.73287L114.01447,120.97289
				L114.49453,120.97289L114.49453,121.21292L114.73456,121.21292L114.73456,121.45294L114.97459,121.45294L115.21462,121.45294
				L115.21462,121.69297L115.45465,121.69297L115.45465,121.93299L115.69468,121.93299L115.69468,122.17302L115.93471,122.17302
				L116.17474,122.17302L116.17474,122.41304L116.6548,122.41304L116.6548,122.65307L116.6548,122.8931L117.13487,122.8931L117.13487,123.13312
				L117.3749,123.13312L117.61493,123.13312L117.61493,123.37315L117.85496,123.37315L117.85496,123.61317L118.09499,123.61317L
				118.09499,123.8532L118.33502,123.8532L118.33502,124.09322L118.09499,124.09322L118.09499,124.57328L117.85496,124.57328L117.85496,124.8133
				L117.61493,124.8133L117.61493,125.05333L117.3749,125.05333L117.3749,125.29335L117.13487,125.29335L117.13487,125.7734L116.89483,125.7734
				L116.6548,125.7734L116.6548,126.01343L116.6548,126.25345L116.41477,126.25345L116.41477,126.49348L116.17474,126.49348L116.17474,126.73351
				L115.93471,126.73351L115.93471,126.97353L115.69468,126.97353L115.69468,127.21356L115.69468,127.45358L115.45465,127.45358
				L115.21462,127.45358L115.21462,127.93363L114.97459,127.93363L114.97459,128.17366L114.97459,128.41368L114.73456,128.41368
				L114.49453,128.41368L114.49453,128.65371L114.2545,128.65371L114.2545,129.13376L114.01447,129.13376L114.01447,129.37379L113.77444,129.37379
				L113.77444,129.61381L113.53441,129.61381L113.53441,129.85384L113.29438,129.85384L113.29438,130.33389L113.05435,130.33389
				L113.05435,130.57391L112.81432,130.57391L112.81432,130.81394L112.57429,130.81394L112.57429,131.05397L112.33426,131.05397
				L112.33426,131.29399L112.33426,131.53402L112.09423,131.53402L112.09423,131.77404L111.8542,131.77404L111.8542,132.01407L111.61416,132.01407
				L111.37413,132.01407L111.37413,132.49412L111.37413,132.73414L111.1341,132.73414L111.1341,132.97417L110.89407,132.97417L110.89407,133.69425
				L110.65404,133.69425L110.65404,134.65435L110.41401,134.65435L110.41401,135.61445L110.41401,136.81458L110.17398,136.81458
				L110.17398,137.77468L109.93395,137.77468L109.93395,138.97481L109.69392,138.97481L109.69392,139.93491L109.45389,139.93491
				L109.45389,140.89501L109.45389,141.85512L109.21386,141.85512L109.21386,142.81522"/>
			<path clip-path="url(#SVG_CP_2)" fill="none" stroke="#999999" stroke-width="0.96012" stroke-miterlimit="10" stroke-linecap="round" stroke-linejoin="round" d="
				M227.06882,524.45589L227.06882,521.81561L227.30885,521.81561L227.30885,519.41535L227.30885,517.25512L227.54888,517.25512
				L227.54888,514.61484L227.78891,514.61484L227.78891,511.97456L228.02894,511.97456L228.02894,509.33428L228.26897,509.33428
				L228.26897,506.93402L228.26897,504.29374L228.509,504.29374L228.509,501.65346L228.74903,501.65346L228.74903,499.01318L228.98906,499.01318
				L228.98906,496.85295L229.22909,496.85295L229.22909,494.21266L229.22909,491.81241L229.46912,491.81241L229.46912,489.65218
				L229.70915,489.65218L229.70915,487.25192L229.94918,487.25192L229.94918,484.61164L229.94918,482.21139L230.18921,482.21139
				L230.18921,481.97136L229.94918,481.97136L229.94918,481.01126L229.94918,480.29118L229.70915,480.29118L229.70915,479.5711L
				229.46912,479.5711L229.46912,478.85103L229.22909,478.85103L229.22909,478.13095L229.22909,477.17085L228.98906,477.17085L228.98906,476.45077
				L228.74903,476.45077L228.74903,475.73069L228.509,475.73069L228.509,473.81049L228.26897,473.81049L228.26897,470.21011L228.26897,465.16957
				L226.58876,465.16957L225.3886,465.16957L225.3886,465.40959L225.14857,465.40959L225.14857,465.88965L224.90854,465.88965L224.90854,467.80985
				L224.66851,467.80985L224.66851,469.97008L224.66851,470.45013L224.42848,470.45013L224.42848,471.17021L224.18845,471.17021
				L224.18845,471.65026L223.94842,471.65026L223.94842,472.13031L223.94842,472.85039L223.70839,472.85039L223.70839,473.33044
				L223.46836,473.33044L223.46836,473.81049L223.22833,473.81049L223.22833,474.05052L222.9883,474.05052L222.9883,474.53057L222.9883,474.77059
				L222.74827,474.77059L222.74827,475.25064L222.50824,475.25064L222.50824,475.73069L222.26821,475.73069L222.26821,475.97072
				L222.02818,475.97072L222.02818,476.21075L222.02818,476.45077L221.78815,476.45077L221.78815,476.93082L221.54812,476.93082
				L221.54812,477.41087L221.30809,477.41087L221.06805,477.41087L221.06805,477.6509L221.06805,478.13095L220.82802,478.13095L
				220.82802,478.37098L220.58799,478.37098L220.34796,478.37098L220.34796,478.611L220.34796,479.09105L220.10793,479.09105L220.10793,479.33108
				L219.8679,479.33108L219.62787,479.33108L219.62787,479.5711L219.38784,479.5711L219.38784,479.81113L219.38784,480.05116L219.14781,480.05116
				L219.14781,480.29118L218.90778,480.29118L218.90778,480.53121L218.66775,480.53121L218.66775,480.77123L218.42772,480.77123
				L218.42772,481.01126L218.42772,481.25128L218.18769,481.25128L218.18769,481.49131L217.94766,481.49131L217.94766,481.97136
				L217.70763,481.97136L217.70763,482.21139L217.70763,482.45141L217.4676,482.45141L217.4676,482.69144L217.22757,482.69144L217.22757,482.93146
				L216.98754,482.93146L216.98754,483.41151L216.74751,483.41151L216.74751,483.65154L216.74751,483.89156L216.50748,483.89156
				L216.50748,484.37162L216.26745,484.37162L216.26745,484.61164L216.02742,484.61164L216.02742,484.85167L215.78738,484.85167
				L215.78738,485.33172L215.54735,485.33172L215.54735,485.81177L215.30732,485.81177L215.30732,486.29182L215.06729,486.29182
				L215.06729,486.77187L214.82726,486.77187L214.82726,487.0119L214.58723,487.0119L214.58723,487.25192L214.3472,487.25192L214.3472,487.73197
				L214.10717,487.73197L214.10717,487.972L214.10717,488.21202L213.86714,488.21202L213.86714,488.45205L213.62711,488.45205L213.62711,488.9321
				L213.38708,488.9321L213.38708,489.17213L213.14705,489.17213L213.14705,489.41215L213.14705,489.8922L212.90702,489.8922L212.90702,490.13223
				L212.66699,490.13223L212.66699,490.37225L212.42696,490.37225L212.42696,490.85231L212.18693,490.85231L212.18693,491.33236
				L211.9469,491.33236L211.9469,491.57238L211.70687,491.57238L211.70687,491.81241L211.46684,491.81241L211.46684,492.29246L211.46684,492.53249
				L211.22681,492.53249L211.22681,492.77251L210.98678,492.77251L210.98678,493.25256L210.74674,493.25256L210.74674,493.49259
				L210.50671,493.49259L210.50671,493.73261L210.50671,494.21266L210.26668,494.21266L210.02665,494.21266L210.02665,494.69272
				L209.78662,494.69272L209.78662,494.93274L209.54659,494.93274L209.54659,495.17277L209.54659,495.65282L209.30656,495.65282
				L209.30656,495.89284L209.06653,495.89284L209.06653,496.13287L208.8265,496.13287L208.8265,496.37289L208.8265,496.85295L208.58647,496.85295
				L208.58647,497.09297L208.34644,497.09297L208.34644,497.333L208.10641,497.333L208.10641,497.81305L207.86638,497.81305L207.86638,498.05307
				L207.86638,498.2931L207.62635,498.2931L207.62635,498.77315L207.38632,498.77315L207.14629,498.77315L207.14629,499.2532L206.90626,499.2532
				L206.90626,499.49323L206.90626,499.73325L206.66623,499.73325L206.66623,500.2133L206.4262,500.2133L206.4262,500.45333L206.18617,500.45333
				L206.18617,500.69335L206.18617,501.17341L205.94614,501.17341L205.94614,501.41343L205.70611,501.41343L205.70611,501.65346
				L205.46607,501.65346L205.46607,502.13351L205.22604,502.13351L205.22604,502.37353L205.22604,502.61356L204.98601,502.61356
				L204.98601,502.85359L204.74598,502.85359L204.74598,503.09361L204.50595,503.09361L204.50595,503.57366L204.26592,503.57366
				L204.26592,503.81369L204.26592,504.05371L204.02589,504.05371L204.02589,504.29374L203.78586,504.29374L203.78586,504.77379
				L203.54583,504.77379L203.54583,505.01382L203.54583,505.25384L203.3058,505.25384L203.3058,505.73389L203.06577,505.73389L203.06577,505.97392
				L202.82574,505.97392L202.82574,506.21394L202.58571,506.21394L202.58571,506.69399L202.34568,506.69399L202.34568,507.17405
				L202.10565,507.17405L202.10565,507.6541L201.86562,507.6541L201.62559,507.6541L201.62559,508.13415L201.62559,508.37417L201.38556,508.37417
				L201.38556,508.6142L201.14553,508.6142L201.14553,509.09425L200.9055,509.09425L200.9055,509.33428L200.9055,509.5743L200.66547,509.5743
				L200.66547,510.05435L200.42544,510.05435L200.42544,510.29438L200.1854,510.29438L200.1854,510.5344L199.94537,510.5344L199.94537,510.77443
				L199.94537,511.01445L199.70534,511.01445L199.70534,511.49451L199.46531,511.49451L199.46531,511.73453L199.22528,511.73453
				L199.22528,511.97456L198.98525,511.97456L198.98525,512.21458L198.98525,512.69463L198.74522,512.69463L198.74522,512.93466
				L198.50519,512.93466L198.50519,513.17468L198.26516,513.17468L198.26516,513.65474L198.26516,513.89476L198.02513,513.89476
				L198.02513,514.13479L197.7851,514.13479L197.7851,514.61484L197.54507,514.61484L197.30504,514.61484L197.30504,515.09489L197.30504,515.57494
				L197.06501,515.57494L197.06501,514.85486L197.30504,514.85486L197.30504,514.37481L197.30504,513.65474L197.54507,513.65474
				L197.54507,513.17468L197.7851,513.17468L197.7851,512.45461L198.02513,512.45461L198.02513,511.97456L198.26516,511.97456L198.26516,511.25448
				L198.26516,510.77443L198.50519,510.77443L198.50519,510.29438L198.74522,510.29438L198.74522,510.05435L198.98525,510.05435
				L198.98525,509.81433L198.98525,509.5743L199.22528,509.5743L199.22528,509.09425L199.46531,509.09425L199.46531,508.6142L199.70534,508.6142
				L199.70534,508.13415L199.94537,508.13415L199.94537,507.6541L199.94537,507.17405L200.1854,507.17405L200.1854,506.69399L200.42544,506.69399
				L200.42544,506.45397L200.66547,506.45397L200.66547,505.73389L200.9055,505.73389L200.9055,505.25384L200.9055,505.01382L201.14553,505.01382
				L201.14553,504.05371L201.38556,504.05371L201.62559,504.05371L201.62559,503.33364L201.62559,502.85359L201.86562,502.85359
				L201.86562,502.37353L202.10565,502.37353L202.10565,501.89348L202.34568,501.89348L202.34568,501.41343L202.58571,501.41343
				L202.58571,500.93338L202.58571,500.45333L202.82574,500.45333L202.82574,499.97328L203.06577,499.97328L203.06577,499.49323
				L203.3058,499.49323L203.3058,498.77315L203.54583,498.77315L203.54583,498.53312L203.54583,497.81305L203.78586,497.81305L203.78586,497.333
				L204.02589,497.333L204.02589,496.85295L204.26592,496.85295L204.26592,496.13287L204.26592,495.41279L204.50595,495.41279L204.50595,494.93274
				L204.74598,494.93274L204.74598,494.21266L204.98601,494.21266L204.98601,493.49259L205.22604,493.49259L205.22604,493.25256
				L205.22604,492.53249L205.46607,492.53249L205.46607,492.05243L205.70611,492.05243L205.70611,491.57238L205.94614,491.57238
				L205.94614,491.09233L206.18617,491.09233L206.18617,490.85231L206.18617,490.37225L206.4262,490.37225L206.4262,489.8922L206.66623,489.8922
				L206.66623,489.65218L206.90626,489.65218L206.90626,488.9321L206.90626,488.69208L207.14629,488.69208L207.14629,487.972L207.38632,487.972
				L207.38632,487.49195L207.62635,487.49195L207.62635,487.25192L207.86638,487.25192L207.86638,486.53185L207.86638,486.05179
				L208.10641,486.05179L208.10641,485.33172L208.34644,485.33172L208.34644,485.09169L208.58647,485.09169L208.58647,484.61164
				L208.8265,484.61164L208.8265,483.89156L208.8265,483.65154L209.06653,483.65154L209.06653,482.93146L209.30656,482.93146L209.30656,482.45141
				L209.54659,482.45141L209.54659,481.97136L209.54659,481.25128L209.78662,481.25128L209.78662,480.77123L210.02665,480.77123
				L210.02665,480.05116L210.26668,480.05116L210.26668,479.33108L210.50671,479.33108L210.50671,478.85103L210.50671,478.37098
				L210.74674,478.37098L210.74674,477.41087L210.98678,477.41087L210.98678,476.45077L211.22681,476.45077L211.22681,475.73069
				L211.46684,475.73069L211.46684,474.53057L211.46684,473.81049L211.70687,473.81049L211.70687,473.33044L211.9469,473.33044L
				211.9469,472.85039L212.18693,472.85039L212.18693,472.13031L212.42696,472.13031L212.42696,471.41023L212.42696,470.93018L212.42696,469.97008
				L212.18693,469.97008L212.18693,469.49003L211.9469,469.49003L211.70687,469.49003L211.70687,469.00998L211.46684,469.00998L
				211.46684,468.52993L211.22681,468.52993L211.22681,468.04988L210.98678,468.04988L210.98678,467.80985L210.74674,467.80985L
				210.74674,467.56983L210.50671,467.56983L210.50671,467.08977L210.50671,466.84975L210.26668,466.84975L210.26668,466.60972L
				210.02665,466.60972L210.02665,466.3697L209.54659,466.3697L209.54659,466.12967L209.54659,465.88965L209.30656,465.88965L208.8265,465.88965
				L208.8265,465.64962L208.58647,465.64962L208.58647,465.40959L208.34644,465.40959L208.34644,465.16957L208.10641,465.16957L
				207.86638,465.16957L207.86638,464.68952L207.86638,464.20947L207.62635,464.20947L207.62635,463.72942L207.38632,463.72942L
				207.38632,463.24936L207.14629,463.24936L207.14629,462.76931L206.90626,462.76931L206.90626,462.28926L206.90626,462.04924L
				206.66623,462.04924L206.66623,461.56919L206.4262,461.56919L206.4262,461.32916L206.18617,461.32916L206.18617,460.60908L206.18617,460.36906
				L205.94614,460.36906L205.94614,459.88901L205.70611,459.88901L205.70611,459.64898L205.46607,459.64898L205.46607,459.40896
				L205.22604,459.40896L205.22604,459.16893L205.22604,458.9289L204.98601,458.9289L204.98601,458.68888L204.74598,458.68888L204.74598,458.20883
				L204.50595,458.20883L204.50595,457.9688L204.26592,457.9688L204.26592,457.24873L204.26592,457.0087L204.02589,457.0087L204.02589,456.28862
				L203.78586,456.28862L203.78586,456.0486L203.54583,456.0486L203.54583,455.56855L203.54583,455.0885L203.3058,455.0885L203.3058,454.36842
				L203.06577,454.36842L203.06577,454.12839L202.82574,454.12839L202.82574,453.88837L202.58571,453.88837L202.58571,453.64834
				L202.58571,453.16829L202.34568,453.16829L202.34568,452.92826L202.10565,452.92826L202.10565,452.68824L201.86562,452.68824
				L201.86562,452.44821L201.62559,452.44821L201.62559,451.96816L201.62559,451.72814L201.38556,451.72814L201.38556,450.52801
				L201.14553,450.52801L201.14553,450.04796L200.9055,450.04796L200.9055,449.32788L200.9055,448.36778L200.66547,448.36778L200.66547,447.6477
				L200.42544,447.6477L200.42544,447.40768L200.1854,447.40768L200.1854,446.6876L199.94537,446.6876L199.94537,446.20755L199.94537,445.24745
				L199.70534,445.24745L199.70534,444.7674L199.46531,444.7674L199.46531,444.28734L199.22528,444.28734L199.22528,443.80729L198.98525,443.80729
				L198.98525,443.56727L198.98525,442.84719L198.74522,442.84719L198.74522,442.60717L198.50519,442.60717L198.50519,442.12711
				L198.26516,442.12711L198.26516,441.88709L198.26516,441.40704L198.02513,441.40704L198.02513,440.92699L197.7851,440.92699L
				197.7851,440.20691L197.54507,440.20691L197.54507,439.48683L197.30504,439.48683L197.30504,439.24681L197.30504,438.76676L197.06501,438.76676
				L197.06501,438.52673L196.82498,438.52673L196.82498,437.56663L196.58495,437.56663L196.58495,437.08658L196.34492,437.08658
				L196.34492,436.60653L196.34492,435.88645L196.10489,435.88645L196.10489,434.92635L195.86486,434.92635L195.86486,434.20627
				L195.62483,434.20627L195.62483,433.24617L195.3848,433.24617L195.3848,432.04604L195.3848,431.32596L195.14476,431.32596L195.14476,430.60589
				L194.90473,430.60589L194.90473,429.88581L194.6647,429.88581L194.6647,429.16573L194.6647,428.68568L194.42467,428.68568L194.42467,428.20563
				L194.18464,428.20563L194.18464,427.72558L193.94461,427.72558L193.94461,427.0055L193.70458,427.0055L193.70458,426.52545L193.70458,426.0454
				L193.46455,426.0454L193.46455,425.56535L193.22452,425.56535L193.22452,425.0853L192.98449,425.0853L192.98449,424.36522L192.74446,424.36522
				L192.74446,423.64514L192.74446,423.16509L192.50443,423.16509L192.50443,422.44502L192.2644,422.44502L192.2644,421.72494L192.02437,421.72494
				L192.02437,421.24489L192.02437,420.76484L191.78434,420.76484L191.78434,419.80474L191.54431,419.80474L191.54431,419.56471
				L191.30428,419.56471L191.30428,418.84463L191.06425,418.84463L191.06425,418.12456L191.06425,417.64451L190.82422,417.64451
				L190.82422,417.16445L190.58419,417.16445L190.58419,416.44438L190.34416,416.44438L190.34416,415.7243L190.10413,415.7243L190.10413,415.24425
				L190.10413,414.52417L189.86409,414.52417L189.86409,413.8041L189.62406,413.8041L189.62406,413.08402L189.38403,413.08402L189.38403,412.36394
				L189.38403,411.88389L189.144,411.88389L189.144,410.92379L188.90397,410.92379L188.66394,410.92379L188.66394,410.44374L188.42391,410.44374
				L188.42391,410.20371L188.42391,409.96369L188.18388,409.96369L188.18388,409.48364L187.94385,409.48364L187.94385,409.24361
				L187.70382,409.24361L187.70382,409.00358L187.46379,409.00358L187.46379,408.76356L187.46379,408.28351L187.22376,408.28351
				L186.98373,408.28351L186.98373,407.80346L186.7437,407.80346L186.7437,407.56343L186.7437,407.32341L186.50367,407.32341L186.50367,407.08338
				L186.26364,407.08338L186.26364,406.60333L186.02361,406.60333L186.02361,406.3633L185.78358,406.3633L185.78358,405.88325L185.78358,405.64323
				L185.54355,405.64323L185.54355,405.16318L185.30352,405.16318L185.30352,404.92315L185.06349,404.92315L185.06349,404.4431L
				184.82346,404.4431L184.82346,403.96305L184.82346,403.72302L184.58342,403.72302L184.58342,403.24297L184.34339,403.24297L184.34339,403.00294
				L184.10336,403.00294L184.10336,402.52289L183.86333,402.52289L183.86333,402.28287L183.86333,402.04284L183.6233,402.04284L
				183.6233,401.56279L183.38327,401.56279L183.38327,401.32277L183.14324,401.32277L183.14324,401.08274L183.14324,400.60269L182.90321,400.60269
				L182.90321,400.36266L182.66318,400.36266L182.66318,399.88261L182.42315,399.88261L182.42315,399.40256L182.18312,399.40256
				L182.18312,398.68248L182.18312,398.20243L181.94309,398.20243L181.94309,397.72238L181.70306,397.72238L181.70306,397.24233
				L181.46303,397.24233L181.46303,396.76228L181.223,396.76228L181.223,396.28223L181.223,395.80218L180.98297,395.80218L180.98297,395.32213
				L180.74294,395.32213L180.74294,395.0821L180.50291,395.0821L180.50291,394.84208L180.50291,394.60205L180.26288,394.60205L180.26288,394.36202
				L180.02285,394.36202L180.02285,394.122L179.78282,394.122L179.78282,393.88197L179.54278,393.88197L179.54278,393.64195L179.54278,393.40192
				L179.30275,393.40192L179.30275,393.1619L179.06272,393.1619L179.06272,392.92187L178.82269,392.92187L178.82269,392.44182L178.58266,392.44182
				L178.58266,392.20179L178.34263,392.20179L178.34263,391.96177L178.1026,391.96177L178.1026,391.48172L177.86257,391.48172L177.86257,391.24169
				L177.86257,391.00167L177.62254,391.00167L177.62254,390.76164L177.38251,390.76164L177.38251,390.28159L177.14248,390.28159
				L177.14248,390.04156L176.90245,390.04156L176.90245,389.80154L176.90245,389.56151L176.66242,389.56151L176.66242,389.32149
				L176.42239,389.32149L176.42239,388.84144L176.18236,388.84144L175.94233,388.84144L175.94233,388.36138L175.94233,387.88133
				L175.7023,387.88133L175.7023,387.64131L175.46227,387.64131L175.46227,387.16126L175.22224,387.16126L175.22224,386.92123L174.98221,386.92123
				L174.98221,386.44118L174.74218,386.44118L174.74218,386.20115L174.50215,386.20115L174.50215,385.96113L174.26211,385.96113
				L174.26211,385.48108L174.26211,385.24105L174.02208,385.24105L174.02208,385.00103L173.78205,385.00103L173.78205,384.761L173.54202,384.761
				L173.54202,384.52098L173.30199,384.52098L173.30199,384.28095L173.30199,383.8009L173.06196,383.8009L173.06196,383.56087L172.82193,383.56087
				L172.82193,383.32085L172.5819,383.32085L172.5819,382.8408L172.34187,382.8408L172.34187,382.60077L172.34187,382.36075L172.10184,382.36075
				L172.10184,382.12072L171.86181,382.12072L171.86181,381.88069L171.62178,381.88069L171.62178,381.64067L171.62178,381.40064
				L171.38175,381.40064L171.38175,380.92059L171.14172,380.92059L170.90169,380.92059L170.90169,380.68057L170.66166,380.68057
				L170.66166,380.44054L170.66166,379.96049L170.42163,379.96049L170.42163,379.72046L170.1816,379.72046L170.1816,379.24041L169.94157,379.24041
				L169.94157,379.00039L169.70154,379.00039L169.70154,378.52034L169.70154,378.28031L169.46151,378.28031L169.46151,378.04028
				L169.22148,378.04028L169.22148,377.56023L168.98144,377.56023L168.98144,377.32021L168.98144,377.08018L168.74141,377.08018
				L168.74141,376.84016L168.50138,376.84016L168.50138,376.60013L168.26135,376.60013L168.26135,376.36011L168.02132,376.36011
				L168.02132,376.12008L168.02132,375.64003L167.78129,375.64003L167.78129,375.4L167.54126,375.4L167.54126,375.15998L167.30123,375.15998
				L167.30123,374.67993L167.0612,374.67993L167.0612,374.19988L166.82117,374.19988L166.82117,373.71982L166.58114,373.71982L166.34111,373.71982
				L166.34111,373.23977L166.34111,372.99975L166.10108,372.99975L166.10108,372.75972L165.86105,372.75972L165.86105,372.27967
				L165.62102,372.27967L165.62102,372.03965L165.38099,372.03965L165.38099,371.79962L165.38099,371.55959L165.14096,371.55959
				L165.14096,371.07954L164.90093,371.07954L164.90093,370.83952L164.6609,370.83952L164.6609,370.59949L164.42087,370.59949L164.42087,370.35947
				L164.42087,369.87942L164.18084,369.87942L164.18084,369.63939L163.94081,369.63939L163.94081,369.15934L163.70077,369.15934
				L163.70077,368.91931L163.70077,368.43926L163.46074,368.43926L163.46074,368.19924L163.22071,368.19924L163.22071,367.95921
				L162.98068,367.95921L162.98068,367.71918L162.74065,367.71918L162.74065,366.99911L162.74065,366.75908L162.50062,366.75908
				L162.50062,366.03901L162.26059,366.03901L162.26059,365.79898L162.02056,365.79898L162.02056,365.31893L161.78053,365.31893
				L161.78053,364.83888L161.78053,364.59885L161.5405,364.59885L161.5405,364.1188L161.30047,364.1188L161.30047,363.63875L161.06044,363.63875
				L161.06044,363.1587L161.06044,362.91867L160.82041,362.91867L160.82041,362.43862L160.58038,362.43862L160.58038,362.1986L160.34035,362.1986
				L160.34035,361.71855L160.10032,361.71855L160.10032,361.47852L160.10032,360.75844L159.86029,360.75844L159.86029,360.51842
				L159.62026,360.51842L159.62026,359.79834L159.38023,359.79834L159.38023,359.07826L159.1402,359.07826L159.1402,358.83824L159.1402,358.35819
				L158.90017,358.35819L158.90017,357.87814L158.66013,357.87814L158.66013,357.39809L158.4201,357.39809L158.4201,356.91803L158.18007,356.91803
				L158.18007,356.43798L158.18007,355.71791L157.94004,355.71791L157.94004,354.99783L157.70001,354.99783L157.70001,354.27775
				L157.45998,354.27775L157.45998,353.55768L157.45998,352.8376L157.21995,352.8376L157.21995,352.59757L156.97992,352.59757L156.97992,352.35755
				L156.73989,352.35755L156.73989,352.11752L156.49986,352.11752L156.49986,351.63747L156.25983,351.63747L156.25983,351.15742
				L156.0198,351.15742L156.0198,350.91739L155.77977,350.91739L155.77977,350.67737L155.53974,350.67737L155.53974,350.43734L155.53974,350.19732
				L155.29971,350.19732L155.29971,349.95729L155.05968,349.95729L154.81965,349.95729L154.81965,349.47724L154.81965,348.99719
				L154.57962,348.99719L154.33959,348.99719L154.33959,348.51714L154.09956,348.51714L154.09956,348.27711L153.85953,348.27711
				L153.85953,348.03709L153.85953,347.79706L153.6195,347.79706L153.6195,347.31701L153.37946,347.31701L153.37946,347.07699L153.13943,347.07699
				L153.13943,346.83696L152.8994,346.83696L152.8994,346.35691L152.65937,346.35691L152.65937,345.87686L152.41934,345.87686L152.41934,345.39681
				L152.17931,345.39681L152.17931,345.15678L151.93928,345.15678L151.93928,344.91676L151.69925,344.91676L151.69925,344.67673
				L151.45922,344.67673L151.45922,344.19668L151.21919,344.19668L151.21919,343.71663L150.97916,343.71663L150.97916,343.23658
				L150.73913,343.23658L150.73913,342.75652L150.4991,342.75652L150.4991,342.5165L150.25907,342.5165L150.25907,342.03645L150.25907,341.5564
				L150.01904,341.5564L150.01904,341.07635"/>
			<path clip-path="url(#SVG_CP_2)" fill="none" stroke="#999999" stroke-width="0.96012" stroke-miterlimit="10" stroke-linecap="round" stroke-linejoin="round" d="
				M150.01904,341.07635L149.77901,341.07635L149.77901,340.83632L149.53898,340.83632L149.53898,340.35627L149.53898,340.11624
				L149.29895,340.11624L149.29895,339.39617L149.05892,339.39617L149.05892,339.15614L148.81889,339.15614L148.81889,338.67609
				L148.57886,338.67609L148.57886,338.43606L148.57886,337.71599L148.33883,337.71599L148.33883,337.47596L148.09879,337.47596
				L148.09879,336.99591L147.85876,336.99591L147.85876,336.51586L147.61873,336.51586L147.61873,336.03581L147.61873,335.79578
				L147.3787,335.79578L147.3787,335.31573L147.13867,335.31573L147.13867,334.83568L146.89864,334.83568L146.89864,334.35563L146.65861,334.35563
				L146.65861,333.87558L146.65861,333.63555L146.41858,333.63555L146.41858,333.1555L146.17855,333.1555L146.17855,332.91548L145.93852,332.91548
				L145.93852,332.67545L145.93852,332.1954L145.69849,332.1954L145.45846,332.1954L145.45846,331.71535L145.21843,331.71535L145.21843,331.2353
				L144.9784,331.2353L144.9784,330.99527L144.9784,330.75525L144.73837,330.75525L144.73837,330.51522L144.49834,330.51522L144.49834,330.03517
				L144.25831,330.03517L144.25831,329.79514L144.01828,329.79514L144.01828,329.55512L144.01828,329.07507L143.77825,329.07507
				L143.77825,328.83504L143.53822,328.83504L143.53822,328.59502L143.29819,328.59502L143.29819,328.35499L143.29819,327.87494
				L143.05815,327.87494L142.81812,327.87494L142.81812,327.63491L142.57809,327.63491L142.57809,327.39489L142.33806,327.39489
				L142.33806,326.91484L142.09803,326.91484L142.09803,326.67481L141.858,326.67481L141.858,326.19476L141.61797,326.19476L141.61797,325.95473
				L141.37794,325.95473L141.37794,325.47468L141.13791,325.47468L141.13791,325.23466L140.89788,325.23466L140.89788,324.99463
				L140.65785,324.99463L140.65785,324.75461L140.65785,324.51458L140.41782,324.51458L140.41782,324.27456L140.17779,324.27456
				L140.17779,324.03453L139.93776,324.03453L139.93776,323.7945L139.69773,323.7945L139.69773,323.31445L139.4577,323.31445L139.4577,323.07443
				L139.21767,323.07443L139.21767,322.59438L138.97764,322.59438L138.97764,322.35435L138.73761,322.35435L138.73761,322.11433
				L138.49758,322.11433L138.49758,321.63427L138.25755,321.63427L138.01752,321.63427L138.01752,321.39425L138.01752,320.9142L
				137.77748,320.9142L137.77748,320.67417L137.53745,320.67417L137.29742,320.67417L137.29742,320.19412L137.05739,320.19412L137.05739,319.9541
				L137.05739,319.71407L136.81736,319.71407L136.81736,319.47404L136.57733,319.47404L136.57733,319.23402L136.3373,319.23402L
				136.3373,318.99399L136.09727,318.99399L136.09727,318.75397L135.85724,318.75397L135.85724,318.27392L135.61721,318.27392L135.61721,318.03389
				L135.37718,318.03389L135.37718,317.79386L135.37718,317.31381L135.13715,317.31381L135.13715,317.07379L134.89712,317.07379
				L134.65709,317.07379L134.65709,316.59374L134.41706,316.59374L134.41706,316.35371L134.17703,316.35371L134.17703,316.11369
				L133.937,316.11369L133.937,315.87366L133.69697,315.87366L133.69697,315.63363L133.45694,315.63363L133.45694,315.39361L133.21691,315.39361
				L133.21691,315.15358L132.97688,315.15358L132.97688,314.91356L132.73685,314.91356L132.73685,314.43351L132.49681,314.43351
				L132.25678,314.43351L132.25678,313.95346L131.77672,313.95346L131.77672,313.71343L131.77672,313.4734L131.29666,313.4734L131.05663,313.4734
				L131.05663,313.23338L130.8166,313.23338L130.8166,312.99335L130.57657,312.99335L130.57657,312.75333L130.33654,312.75333L129.85648,312.75333
				L129.85648,312.5133L129.85648,312.27328L129.37642,312.27328L129.37642,312.03325L129.13639,312.03325L129.13639,311.79323L
				128.65633,311.79323L128.65633,311.5532L128.17627,311.5532L128.17627,311.31317L128.17627,311.07315L127.93624,311.07315L127.93624,310.83312
				L127.69621,310.83312L127.21614,310.83312L127.21614,310.5931L126.97611,310.5931L126.97611,310.35307L126.73608,310.35307L126.73608,310.11305
				L126.49605,310.11305L126.49605,309.87302L126.49605,309.633L126.25602,309.633L126.25602,309.39297L126.01599,309.39297L126.01599,309.15294
				L125.77596,309.15294L125.77596,308.91292L125.53593,308.91292L125.53593,308.67289L125.53593,308.19284L125.2959,308.19284L
				125.2959,307.95282L125.05587,307.95282L125.05587,307.71279L124.81584,307.71279L124.81584,307.47277L124.57581,307.47277L124.57581,307.23274
				L124.57581,306.75269L124.33578,306.75269L124.33578,306.51266L124.09575,306.51266L124.09575,306.03261L123.85572,306.03261
				L123.85572,305.79259L123.85572,305.55256L123.61569,305.55256L123.61569,305.07251L123.37566,305.07251L123.37566,304.83248
				L123.13563,304.83248L123.13563,304.59246L122.8956,304.59246L122.8956,304.11241L122.8956,303.87238L122.65557,303.87238L122.65557,303.63236
				L122.41554,303.63236L122.41554,303.1523L122.1755,303.1523L122.1755,302.91228L121.93547,302.91228L121.93547,302.43223L121.93547,301.95218
				L121.69544,301.95218L121.45541,301.95218L121.45541,301.47213L121.21538,301.47213L121.21538,301.2321L120.97535,301.2321L120.97535,300.75205
				L120.97535,300.272L120.73532,300.272L120.73532,300.03197L120.49529,300.03197L120.49529,299.55192L120.25526,299.55192L120.25526,299.07187
				L120.25526,298.59182L120.01523,298.59182L120.01523,298.35179L119.7752,298.35179L119.7752,298.11177L119.53517,298.11177L119.53517,297.63172
				L119.29514,297.63172L119.29514,297.39169L119.29514,296.91164L119.05511,296.91164L119.05511,296.67161L118.81508,296.67161
				L118.81508,296.19156L118.57505,296.19156L118.57505,295.95154L118.33502,295.95154L118.33502,295.71151L118.33502,295.23146
				L118.09499,295.23146L118.09499,294.99144L117.85496,294.99144L117.85496,294.75141L117.61493,294.75141L117.61493,294.27136
				L117.61493,294.03133L117.3749,294.03133L117.13487,294.03133L117.13487,293.55128L116.89483,293.55128L116.89483,293.31126L
				116.6548,293.31126L116.6548,293.07123L116.6548,292.59118L116.41477,292.59118L116.41477,292.35115L116.17474,292.35115L116.17474,292.11113
				L115.93471,292.11113L115.93471,291.8711L115.69468,291.8711L115.69468,291.39105L115.45465,291.39105L115.45465,290.911L115.21462,290.911
				L115.21462,290.67097L114.97459,290.67097L114.97459,290.19092L114.97459,289.71087L114.73456,289.71087L114.73456,289.47085
				L114.49453,289.47085L114.49453,288.75077L114.2545,288.75077L114.2545,288.51074L114.01447,288.51074L114.01447,288.03069L114.01447,287.55064
				L113.77444,287.55064L113.77444,287.07059L113.53441,287.07059L113.53441,286.83057L113.29438,286.83057L113.29438,286.11049
				L113.05435,286.11049L113.05435,285.87046L113.05435,285.39041L112.81432,285.39041L112.81432,285.15039L112.57429,285.15039
				L112.33426,285.15039L112.33426,284.67034L112.33426,284.43031L112.09423,284.43031L112.09423,284.19028L111.61416,284.19028
				L111.61416,283.95026L111.37413,283.95026L111.37413,283.71023L111.1341,283.71023L111.1341,283.47021L110.89407,283.47021L110.65404,283.47021
				L110.65404,283.23018L110.41401,283.23018L110.41401,282.99016L110.17398,282.99016L110.17398,282.51011L109.69392,282.51011
				L109.45389,282.51011L109.45389,282.27008L109.45389,282.03005L109.21386,282.03005L109.21386,281.79003L108.97383,281.79003
				L108.97383,143.5353L109.21386,143.5353L109.45389,143.5353L109.45389,143.77532L109.69392,143.77532L109.69392,144.01535L110.17398,144.01535
				L110.17398,144.25537L110.41401,144.25537L110.41401,144.4954L110.89407,144.4954L111.37413,144.4954L111.37413,144.73542L111.61416,144.73542
				L111.61416,144.97545L112.09423,144.97545L112.09423,145.21547L112.33426,145.21547L112.57429,145.21547L112.57429,145.4555L
				113.05435,145.4555L113.05435,145.69553L113.29438,145.69553L113.29438,145.93555L113.77444,145.93555L113.77444,146.17558L114.01447,146.17558
				L114.49453,146.17558L114.49453,146.4156L114.97459,146.4156L114.97459,146.65563L114.97459,146.89565L115.45465,146.89565L115.45465,147.13568
				L115.69468,147.13568L116.17474,147.13568L116.17474,147.3757L116.6548,147.3757L116.6548,147.61573L116.89483,147.61573L116.89483,147.85576
				L117.3749,147.85576L117.61493,147.85576L117.61493,148.09578L117.85496,148.09578L117.85496,148.33581L118.33502,148.33581L
				118.33502,148.57583L118.57505,148.57583L118.57505,148.81586L119.05511,148.81586L119.29514,148.81586L119.29514,149.05588L
				119.7752,149.05588L119.7752,149.29591L120.25526,149.29591L120.25526,149.53594L120.25526,149.77596L120.97535,149.77596L121.21538,149.77596
				L121.21538,150.01599L121.69544,150.01599L121.69544,150.25601L121.93547,150.25601L121.93547,150.49604L122.41554,150.49604
				L122.8956,150.49604L122.8956,150.73606L123.13563,150.73606L123.13563,150.97609L123.61569,150.97609L123.61569,151.21611L123.85572,151.21611
				L123.85572,151.45614L124.33578,151.45614L124.57581,151.45614L124.57581,151.69617L125.2959,151.69617L125.2959,151.93619L125.53593,151.93619
				L125.53593,152.17622L126.01599,152.17622L126.01599,152.41624L126.49605,152.41624L126.73608,152.41624L126.73608,152.65627
				L127.21614,152.65627L127.21614,152.89629L127.45618,152.89629L127.45618,153.13632L128.17627,153.13632L128.17627,153.37634
				L129.13639,153.37634L130.09651,153.37634L130.09651,153.61637L130.8166,153.61637L130.8166,153.8564L131.77672,153.8564L131.77672,154.09642
				L132.73685,154.09642L133.45694,154.09642L133.45694,154.33645L134.41706,154.33645L134.41706,154.57647L135.37718,154.57647
				L135.37718,154.8165L137.05739,154.8165L137.05739,155.05652L138.73761,155.05652L141.37794,155.05652L142.57809,155.05652L142.57809,154.8165
				L144.01828,154.8165L144.01828,154.57647L145.45846,154.57647L145.45846,154.33645L146.65861,154.33645L146.65861,154.09642L
				148.57886,154.09642L150.25907,154.09642L150.25907,153.8564L152.17931,153.8564L152.17931,153.61637L154.09956,153.61637L154.09956,153.37634
				L155.77977,153.37634L156.49986,153.37634L158.4201,153.37634L158.4201,153.61637L160.34035,153.61637L160.34035,153.8564L161.30047,153.8564
				L161.30047,154.09642L162.02056,154.09642L162.74065,154.09642L162.74065,154.33645L163.70077,154.33645L163.70077,154.57647
				L164.42087,154.57647L164.42087,154.8165L164.90093,154.8165L164.90093,155.05652L165.38099,155.05652L166.10108,155.05652L166.10108,155.29655
				L166.58114,155.29655L166.58114,155.53657L167.0612,155.53657L167.0612,155.7766L167.54126,155.7766L167.54126,156.01663L168.02132,156.01663
				L168.74141,156.01663L168.74141,156.25665L169.22148,156.25665L169.22148,156.49668L169.70154,156.49668L169.70154,156.7367L
				170.1816,156.7367L170.66166,156.7367L170.66166,156.97673L171.38175,156.97673L171.38175,157.21675L171.86181,157.21675L171.86181,157.45678
				L172.5819,157.45678L172.5819,157.6968L173.30199,157.6968L174.26211,157.6968L174.26211,157.93683L174.74218,157.93683L174.74218,158.17686
				L175.46227,158.17686L175.46227,158.41688L176.18236,158.41688L176.18236,158.65691L176.90245,158.65691L177.62254,158.65691
				L177.62254,158.89693L177.86257,158.89693L177.86257,159.13696L178.34263,159.13696L178.34263,159.37698L178.58266,159.37698
				L178.82269,159.37698L178.82269,159.61701L179.30275,159.61701L179.30275,159.85704L179.54278,159.85704L179.54278,160.09706
				L179.78282,160.09706L179.78282,160.33709L180.26288,160.33709L180.50291,160.33709L180.50291,160.57711L180.74294,160.57711
				L180.74294,160.81714L181.223,160.81714L181.223,161.05716L181.223,161.29719L181.70306,161.29719L182.18312,161.29719L182.18312,161.53721
				L182.18312,161.77724L182.66318,161.77724L182.66318,162.01727L183.14324,162.01727L183.14324,162.25729L183.6233,162.25729L
				183.6233,162.49732L183.86333,162.49732L183.86333,162.73734L184.10336,162.73734L184.10336,162.97737L184.58342,162.97737L184.82346,162.97737
				L184.82346,163.21739L185.06349,163.21739L185.06349,163.45742L185.54355,163.45742L185.54355,163.69744L185.78358,163.69744
				L185.78358,163.93747L186.02361,163.93747L186.50367,163.93747L186.50367,164.1775L186.7437,164.1775L186.7437,164.41752L186.98373,164.41752
				L186.98373,164.65755L187.46379,164.65755L187.46379,164.89757L187.94385,164.89757L187.94385,165.1376L188.42391,165.1376L188.42391,165.37762
				L188.42391,165.61765L188.90397,165.61765L189.144,165.61765L189.144,165.85767L189.38403,165.85767L189.38403,166.0977L189.86409,166.0977
				L189.86409,166.33773L190.10413,166.33773L190.10413,166.57775L190.34416,166.57775L190.82422,166.57775L190.82422,166.81778
				L191.06425,166.81778L191.06425,167.0578L191.30428,167.0578L191.30428,167.29783L191.78434,167.29783L191.78434,196.1009L192.02437,196.1009
				L192.02437,196.34092L192.02437,196.58095L192.2644,196.58095L192.50443,196.58095L192.50443,196.82097L192.74446,196.82097L
				192.74446,197.061L192.74446,197.30103L192.98449,197.30103L192.98449,197.54105L193.22452,197.54105L193.46455,197.54105L193.46455,197.78108
				L193.70458,197.78108L193.70458,198.0211L193.70458,198.26113L193.94461,198.26113L193.94461,198.50115L194.18464,198.50115L
				194.42467,198.50115L194.42467,198.74118L194.6647,198.74118L194.6647,198.9812L194.6647,199.22123L194.90473,199.22123L195.14476,199.22123
				L195.14476,199.46126L195.3848,199.46126L195.3848,199.70128L195.3848,199.94131L195.62483,199.94131L195.62483,200.18133L195.86486,200.18133
				L196.10489,200.18133L196.10489,200.42136L196.34492,200.42136L196.34492,200.66138L196.34492,200.90141L196.58495,200.90141
				L196.58495,201.14143L196.82498,201.14143L197.06501,201.14143L197.06501,201.38146L197.30504,201.38146L197.30504,201.62149
				L197.30504,201.86151L197.54507,201.86151L197.7851,201.86151L197.7851,202.10154L198.02513,202.10154L198.02513,202.34156L198.26516,202.34156
				L198.26516,202.58159L198.26516,202.82161L198.50519,202.82161L198.74522,202.82161L198.74522,203.06164L198.98525,203.06164
				L198.98525,203.30166L198.98525,203.54169L199.22528,203.54169L199.22528,203.78172L199.46531,203.78172L199.70534,203.78172
				L199.70534,204.02174L199.94537,204.02174L199.94537,204.26177L199.94537,204.50179L200.1854,204.50179L200.1854,204.74182L200.42544,204.74182
				L200.66547,204.74182L200.66547,204.98184L200.9055,204.98184L200.9055,205.22187L200.9055,205.46189L201.14553,205.46189L201.38556,205.46189
				L201.38556,205.70192L201.62559,205.70192L201.62559,217.7032L201.38556,217.7032L201.38556,218.18325L201.14553,218.18325L201.14553,218.90333
				L200.9055,218.90333L200.9055,219.6234L200.9055,220.34348L200.66547,220.34348L200.66547,220.82353L200.42544,220.82353L200.42544,221.54361
				L200.1854,221.54361L200.1854,222.50371L199.94537,222.50371L199.94537,223.46381L199.94537,224.42392L199.70534,224.42392L199.70534,239.54553
				L200.66547,239.54553L200.66547,239.06548L200.42544,239.06548L200.42544,237.14527L200.1854,237.14527L200.1854,234.74502L199.94537,234.74502
				L199.94537,231.62468L199.94537,230.42455L200.1854,230.42455L200.1854,228.74438L200.42544,228.74438L200.42544,227.30422L200.66547,227.30422
				L200.66547,226.10409L200.9055,226.10409L200.9055,225.14399L200.9055,224.18389L201.14553,224.18389L201.14553,223.22379L201.38556,223.22379
				L201.38556,222.50371L201.62559,222.50371L201.62559,221.78363L201.62559,205.70192L201.62559,204.74182L201.38556,204.74182
				L201.14553,204.74182L201.14553,204.50179L200.9055,204.50179L200.9055,204.26177L200.9055,204.02174L200.66547,204.02174L200.66547,203.78172
				L200.42544,203.78172L200.1854,203.78172L200.1854,203.54169L199.94537,203.54169L199.94537,203.30166L199.94537,203.06164L199.70534,203.06164
				L199.70534,202.82161L199.46531,202.82161L199.22528,202.82161L199.22528,202.58159L198.98525,202.58159L198.98525,202.34156
				L198.98525,202.10154L198.74522,202.10154L198.74522,201.86151L198.50519,201.86151L198.26516,201.86151L198.26516,201.62149
				L198.26516,201.38146L198.02513,201.38146L198.02513,201.14143L197.7851,201.14143L197.54507,201.14143L197.54507,200.90141L
				197.30504,200.90141L197.30504,200.66138L197.30504,200.42136L197.06501,200.42136L197.06501,200.18133L196.82498,200.18133L
				196.58495,200.18133L196.58495,199.94131L196.34492,199.94131L196.34492,199.70128L196.34492,199.46126L196.10489,199.46126L
				196.10489,199.22123L195.86486,199.22123L195.62483,199.22123L195.62483,198.9812L195.3848,198.9812L195.3848,198.74118L195.3848,198.50115
				L195.14476,198.50115L194.90473,198.50115L194.90473,198.26113L194.6647,198.26113L194.6647,198.0211L194.6647,197.78108L194.42467,197.78108
				L194.42467,197.54105L194.18464,197.54105L193.94461,197.54105L193.94461,197.30103L193.70458,197.30103L193.70458,197.061L193.70458,196.82097
				L193.46455,196.82097L193.46455,196.58095L193.22452,196.58095L192.98449,196.58095L192.98449,196.34092L192.74446,196.34092
				L192.74446,196.1009L192.74446,195.86087L192.50443,195.86087L192.2644,195.86087L192.2644,195.62085L192.02437,195.62085L192.02437,195.38082
				L192.02437,167.53785L192.2644,167.53785L192.2644,167.29783L192.50443,167.29783L192.50443,167.0578L192.74446,167.0578L192.74446,166.81778
				L192.74446,166.57775L192.98449,166.57775L193.22452,166.57775L193.22452,166.33773L193.46455,166.33773L193.46455,166.0977L
				193.70458,166.0977L193.70458,165.85767L193.70458,165.61765L193.94461,165.61765L194.18464,165.61765L194.18464,165.37762L194.42467,165.37762
				L194.42467,165.1376L194.6647,165.1376L194.6647,164.89757L194.6647,164.65755L194.90473,164.65755L195.14476,164.65755L195.14476,164.41752
				L195.3848,164.41752L195.3848,164.1775L195.3848,163.93747L195.62483,163.93747L195.86486,163.93747L195.86486,163.69744L196.10489,163.69744
				L196.10489,163.45742L196.34492,163.45742L196.34492,163.21739L196.34492,162.97737L196.82498,162.97737L197.06501,162.97737
				L197.06501,162.73734L197.30504,162.73734L197.30504,162.49732L197.30504,162.25729L197.54507,162.25729L197.54507,162.01727
				L197.7851,162.01727L198.02513,162.01727L198.02513,161.77724L198.26516,161.77724L198.26516,161.53721L198.26516,161.29719L
				198.50519,161.29719L198.74522,161.29719L198.74522,161.05716L198.98525,161.05716L198.98525,160.81714L198.98525,160.57711L
				199.46531,160.57711L199.46531,160.33709L199.70534,160.33709L199.94537,160.33709L199.94537,160.09706L200.42544,160.09706L
				200.42544,159.85704L200.66547,159.85704L200.66547,159.61701L200.9055,159.61701L200.9055,159.37698L201.38556,159.37698L201.62559,159.37698
				L201.62559,159.13696L201.86562,159.13696L201.86562,158.89693L202.34568,158.89693L202.34568,158.65691L202.58571,158.65691
				L202.82574,158.65691L202.82574,158.41688L203.06577,158.41688L203.06577,158.17686L203.54583,158.17686L203.54583,157.93683
				L203.78586,157.93683L203.78586,157.6968L204.02589,157.6968L204.26592,157.6968L204.26592,157.45678L204.74598,157.45678L204.74598,157.21675
				L204.98601,157.21675L204.98601,156.97673L205.22604,156.97673L205.22604,156.7367L205.46607,156.7367L205.94614,156.7367L205.94614,156.49668
				L206.18617,156.49668L206.18617,156.25665L206.66623,156.25665L206.66623,156.01663L206.90626,156.01663L207.38632,156.01663
				L207.38632,155.7766L207.86638,155.7766L207.86638,155.53657L208.10641,155.53657L208.10641,155.29655L208.58647,155.29655L208.58647,155.05652
				L208.8265,155.05652L209.06653,155.05652L209.06653,154.8165L209.54659,154.8165L209.54659,154.57647L209.78662,154.57647L209.78662,154.33645
				L210.26668,154.33645L210.26668,154.09642L210.50671,154.09642L210.98678,154.09642L210.98678,153.8564L211.46684,153.8564L211.46684,153.61637
				L211.70687,153.61637L211.70687,153.37634L212.18693,153.37634L212.42696,153.37634L212.42696,153.13632L212.90702,153.13632
				L212.90702,152.89629L213.14705,152.89629L213.14705,152.65627L213.62711,152.65627L213.62711,152.41624L214.10717,152.41624
				L214.10717,152.17622L214.58723,152.17622L214.58723,151.93619L215.06729,151.93619L215.06729,151.45614L214.82726,151.45614
				L214.82726,150.97609L214.58723,150.97609L214.58723,150.49604L214.3472,150.49604L214.3472,150.01599L214.10717,150.01599L214.10717,149.77596
				L214.10717,149.29591L213.86714,149.29591L213.86714,148.81586L213.62711,148.81586L213.62711,148.33581L213.38708,148.33581
				L213.38708,147.85576L213.86714,147.85576L213.86714,147.61573L214.10717,147.61573L214.10717,147.3757L214.3472,147.3757L214.3472,147.13568
				L214.82726,147.13568L215.06729,147.13568L215.06729,146.89565L215.54735,146.89565L215.54735,146.65563L215.78738,146.65563
				L215.78738,146.4156L216.02742,146.4156L216.02742,146.17558L216.50748,146.17558L216.74751,146.17558L216.74751,145.93555L216.98754,145.93555
				L216.98754,145.69553L217.4676,145.69553L217.4676,145.4555L217.70763,145.4555L217.70763,145.21547L217.94766,145.21547L218.42772,145.21547
				L218.42772,144.97545L218.42772,144.73542L218.90778,144.73542L218.90778,144.4954L219.38784,144.4954L219.38784,144.25537L219.8679,144.25537
				L219.8679,144.01535L220.34796,144.01535L220.34796,143.77532L220.58799,143.77532L220.58799,143.5353L220.82802,143.5353L221.06805,143.5353
				L221.06805,143.29527L221.54812,143.29527L221.54812,143.05524L221.78815,143.05524L221.78815,142.81522L221.54812,142.81522
				L221.54812,142.33517L221.30809,142.33517L221.30809,141.85512L221.06805,141.85512L221.06805,141.61509L221.06805,141.13504
				L220.82802,141.13504L220.82802,140.89501L220.58799,140.89501L220.58799,140.17494L220.34796,140.17494L220.34796,139.93491
				L220.34796,139.45486L220.10793,139.45486L220.10793,138.97481L219.8679,138.97481L219.8679,138.49476L220.10793,138.49476L220.10793,138.25473
				L220.34796,138.25473"/>
			<path clip-path="url(#SVG_CP_2)" fill="none" stroke="#999999" stroke-width="0.96012" stroke-miterlimit="10" stroke-linecap="round" stroke-linejoin="round" d="
				M220.34796,138.25473L221.06805,138.25473L221.06805,138.01471L221.30809,138.01471L221.30809,137.77468L221.54812,137.77468
				L221.54812,139.21484L221.78815,139.21484L221.78815,139.69489L222.02818,139.69489L222.02818,139.93491L222.26821,139.93491
				L222.26821,140.17494L222.50824,140.17494L222.50824,140.41496L222.74827,140.41496L222.74827,140.65499L222.9883,140.65499L
				222.9883,140.89501L223.22833,140.89501L223.22833,141.37507L223.46836,141.37507L223.46836,141.61509L223.70839,141.61509L223.70839,141.85512
				L223.94842,141.85512L223.94842,142.09514L224.18845,142.09514L224.18845,142.33517L224.42848,142.33517L224.42848,142.57519
				L224.66851,142.57519L224.66851,142.81522L224.90854,142.81522L224.90854,143.05524L225.14857,143.05524L225.14857,143.29527
				L225.3886,143.29527L225.3886,143.5353L225.62863,143.5353L225.62863,144.01535L225.62863,144.4954L225.86866,144.4954L226.10869,144.4954
				L226.10869,144.97545L226.34872,144.97545L226.34872,145.21547L226.58876,145.21547L226.58876,145.69553L226.58876,146.17558
				L226.82879,146.17558L227.06882,146.17558L227.06882,146.65563L227.30885,146.65563L227.30885,147.13568L227.30885,147.3757L
				227.54888,147.3757L227.54888,147.61573L227.78891,147.61573L227.78891,148.09578L228.02894,148.09578L228.02894,148.33581L228.26897,148.33581
				L228.26897,148.81586L228.26897,149.05588L228.509,149.05588L228.509,149.53594L228.74903,149.53594L228.74903,149.77596L228.98906,149.77596
				L228.98906,150.01599L229.22909,150.01599L229.22909,150.49604L229.22909,150.73606L229.46912,150.73606L229.46912,151.21611
				L229.70915,151.21611L229.70915,151.45614L229.94918,151.45614L229.94918,152.41624L229.94918,152.65627L230.18921,152.65627
				L230.18921,153.37634L230.42924,153.37634L230.42924,153.61637L230.66927,153.61637L230.66927,154.33645L230.9093,154.33645L
				230.9093,154.57647L230.9093,155.05652L231.14933,155.05652L231.14933,155.29655L231.38936,155.29655L231.38936,155.7766L231.62939,155.7766
				L231.62939,156.01663L231.86943,156.01663L231.86943,156.49668L232.10946,156.49668L232.10946,156.7367L232.34949,156.7367L232.34949,156.97673
				L232.58952,156.97673L232.58952,157.21675L232.58952,157.45678L232.82955,157.45678L232.82955,158.17686L233.06958,158.17686
				L233.06958,159.37698L233.30961,159.37698L233.30961,161.77724L233.54964,161.77724L233.54964,162.01727L233.54964,162.25729
				L233.78967,162.25729L233.78967,162.73734L234.0297,162.73734L234.0297,162.97737L234.26973,162.97737L234.26973,163.21739L234.50976,163.21739
				L234.50976,163.69744L234.50976,163.93747L234.74979,163.93747L234.74979,164.1775L234.98982,164.1775L234.98982,164.65755L235.22985,164.65755
				L235.22985,164.89757L235.46988,164.89757L235.46988,165.37762L235.46988,165.61765L235.70991,165.61765L235.70991,165.85767
				L235.94994,165.85767L235.94994,166.33773L236.18997,166.33773L236.18997,166.57775L236.18997,166.81778L236.43,166.81778L236.43,167.29783
				L236.67003,167.29783L236.67003,167.53785L236.91007,167.53785L236.91007,167.77788L237.1501,167.77788L237.1501,168.25793L237.39013,168.25793
				L237.39013,168.73798L237.63016,168.73798L237.63016,169.21803L237.87019,169.21803L237.87019,169.45806L238.11022,169.45806
				L238.11022,169.93811L238.11022,170.17813L238.35025,170.17813L238.35025,170.89821L238.59028,170.89821L238.59028,171.13824
				L238.83031,171.13824L238.83031,171.61829L238.83031,172.33837L238.83031,173.53849L238.59028,173.53849L238.59028,174.97865
				L238.35025,174.97865L238.35025,175.4587L238.11022,175.4587L238.11022,175.93875L238.11022,176.17877L237.87019,176.17877L237.87019,176.4188
				L237.63016,176.4188L237.63016,176.89885L237.39013,176.89885L237.39013,177.13888L237.1501,177.13888L237.1501,177.61893L237.1501,178.09898
				L236.91007,178.09898L236.67003,178.09898L236.67003,178.57903L236.43,178.57903L236.43,179.05908L236.18997,179.05908L236.18997,179.53913
				L236.18997,180.97929L235.94994,180.97929L235.94994,182.65946L235.70991,182.65946L235.70991,184.33964L235.46988,184.33964
				L235.46988,184.8197L235.46988,185.29975L235.22985,185.29975L235.22985,186.01982L234.98982,186.01982L234.98982,186.49987L
				234.74979,186.49987L234.74979,187.94003L234.50976,187.94003L234.50976,188.6601L234.50976,189.14016L234.26973,189.14016L234.26973,189.62021
				L234.0297,189.62021L234.0297,190.34028L233.78967,190.34028L233.78967,196.58095L234.0297,196.58095L234.0297,197.54105L233.78967,197.54105
				L233.78967,198.0211L233.54964,198.0211L233.54964,198.50115L233.54964,198.9812L233.30961,198.9812L233.30961,199.22123L233.06958,199.22123
				L233.06958,199.94131L232.82955,199.94131L232.82955,200.66138L232.58952,200.66138L232.58952,201.62149L232.58952,202.58159
				L232.34949,202.58159L232.34949,202.82161L232.10946,202.82161L232.10946,203.54169L231.86943,203.54169L231.86943,204.02174
				L231.86943,204.74182L231.62939,204.74182L231.62939,206.422L231.38936,206.422L231.38936,207.14207L231.14933,207.14207L231.14933,207.62212
				L230.9093,207.62212L230.9093,209.06228L230.9093,210.50243L230.66927,210.50243L230.66927,210.98248L230.42924,210.98248L230.42924,211.70256
				L230.18921,211.70256L230.18921,212.42264L229.94918,212.42264L229.94918,213.14271L229.94918,215.54297L229.94918,217.46317
				L230.18921,217.46317L230.18921,217.94322L230.42924,217.94322L230.42924,218.6633L230.66927,218.6633L230.66927,218.90333L230.9093,218.90333
				L230.9093,219.6234L230.9093,219.86343L231.14933,219.86343L231.14933,220.58351L231.38936,220.58351L231.38936,221.06356L231.62939,221.06356
				L231.62939,221.54361L231.86943,221.54361L231.86943,221.78363L231.86943,222.26369L232.10946,222.26369L232.10946,222.74374
				L232.34949,222.74374L232.34949,223.22379L232.58952,223.22379L232.58952,223.70384L232.58952,224.90397L232.82955,224.90397
				L232.82955,225.86407L233.06958,225.86407L233.06958,226.58415L233.30961,226.58415L233.30961,227.0642L233.54964,227.0642L233.54964,227.54425
				L233.54964,228.0243L233.78967,228.0243L233.78967,228.50435L234.0297,228.50435L234.0297,229.22443L234.26973,229.22443L234.26973,229.9445
				L234.50976,229.9445L234.50976,230.90461L234.50976,231.86471L234.74979,231.86471L234.74979,232.82481L234.98982,232.82481L
				234.98982,233.54489L235.22985,233.54489L235.22985,234.26496L235.46988,234.26496L235.46988,235.22507L235.46988,236.42519L
				235.70991,236.42519L235.70991,237.3853L235.94994,237.3853L235.94994,238.10537L236.18997,238.10537L236.18997,240.2656L236.18997,242.18581
				L236.43,242.18581L236.43,243.86599L236.67003,243.86599L236.67003,246.26624L236.91007,246.26624L236.91007,247.22635L236.67003,247.22635
				L236.67003,249.14655L236.43,249.14655L236.43,250.5867L236.18997,250.5867L236.18997,251.54681L236.18997,252.74693L235.94994,252.74693
				L235.94994,253.70704L235.70991,253.70704L235.70991,255.86727L235.46988,255.86727L235.46988,256.82737L235.46988,257.78747
				L235.22985,257.78747L235.22985,258.50755L234.98982,258.50755L234.98982,258.9876L234.74979,258.9876L234.74979,259.46765L234.50976,259.46765
				L234.50976,260.18773L234.50976,260.42775L234.26973,260.42775L234.26973,261.14783L234.0297,261.14783L234.0297,261.86791L233.78967,261.86791
				L233.78967,262.58798L233.54964,262.58798L233.54964,263.06803L233.54964,263.78811L233.30961,263.78811L233.30961,264.26816
				L233.06958,264.26816L233.06958,264.98824L232.82955,264.98824L232.82955,265.70831L232.58952,265.70831L232.58952,266.66842
				L232.58952,267.62852L232.34949,267.62852L232.34949,268.3486L232.10946,268.3486L232.10946,269.3087L231.86943,269.3087L231.86943,270.2688
				L231.86943,270.98888L231.62939,270.98888L231.62939,271.94898L231.38936,271.94898L231.38936,272.90908L231.14933,272.90908
				L231.14933,273.86918L230.9093,273.86918L230.9093,275.06931L230.9093,276.26944L230.66927,276.26944L230.66927,277.22954L230.42924,277.22954
				L230.42924,278.90972L230.18921,278.90972L230.18921,279.86982L229.94918,279.86982L229.94918,281.06995L229.94918,282.27008
				L229.70915,282.27008L229.70915,283.47021L229.46912,283.47021L229.46912,284.43031L229.70915,284.43031L229.70915,285.15039
				L229.94918,285.15039L229.94918,285.87046L229.94918,286.11049L230.18921,286.11049L230.18921,287.07059L230.42924,287.07059
				L230.42924,287.55064L230.66927,287.55064L230.66927,288.27072L230.9093,288.27072L230.9093,288.9908L230.9093,289.71087L231.14933,289.71087
				L231.14933,290.43095L231.38936,290.43095L231.38936,291.15103L231.62939,291.15103L231.62939,291.8711L231.86943,291.8711L231.86943,292.35115
				L231.86943,293.31126L232.10946,293.31126L232.10946,294.03133L232.34949,294.03133L232.34949,294.99144L232.58952,294.99144
				L232.58952,295.47149L232.58952,296.43159L232.82955,296.43159L232.82955,297.15167L233.06958,297.15167L233.06958,297.87174
				L233.30961,297.87174L233.30961,298.59182L233.54964,298.59182L233.54964,299.55192L233.54964,300.272L233.78967,300.272L233.78967,301.2321
				L234.0297,301.2321L234.0297,301.95218L234.26973,301.95218L234.26973,302.67225L234.50976,302.67225L234.50976,303.39233L234.50976,304.11241
				L234.74979,304.11241L234.74979,305.07251L234.98982,305.07251L234.98982,305.79259L235.22985,305.79259L235.22985,306.27264
				L235.46988,306.27264L235.46988,306.99271L235.46988,307.95282L235.70991,307.95282L235.70991,308.91292L235.94994,308.91292
				L235.94994,310.11305L236.18997,310.11305L236.18997,310.83312L236.18997,311.79323L236.43,311.79323L236.43,312.75333L236.67003,312.75333
				L236.67003,313.71343L236.91007,313.71343L236.91007,315.15358L237.1501,315.15358L237.1501,316.11369L237.1501,317.07379L237.39013,317.07379
				L237.39013,318.27392L237.63016,318.27392L237.63016,319.23402L237.87019,319.23402L237.87019,320.43415L238.11022,320.43415
				L238.11022,321.39425L238.11022,322.35435L238.35025,322.35435L238.35025,323.55448L238.59028,323.55448L238.59028,324.51458
				L238.83031,324.51458L238.83031,325.47468L238.83031,326.91484L239.07034,326.91484L239.07034,327.87494L239.31037,327.87494
				L239.31037,329.07507L239.5504,329.07507L239.5504,356.19796L239.31037,356.19796L239.31037,358.35819L239.07034,358.35819L239.07034,359.07826
				L238.83031,359.07826L238.83031,359.79834L238.83031,360.51842L238.59028,360.51842L238.59028,360.99847L238.35025,360.99847
				L238.35025,361.47852L238.11022,361.47852L238.11022,362.1986L238.11022,364.83888L237.87019,364.83888L237.87019,365.31893L
				237.63016,365.31893L237.63016,366.27903L237.39013,366.27903L237.39013,366.99911L237.1501,366.99911L237.1501,367.71918L237.1501,368.19924
				L236.91007,368.19924L236.91007,369.39936L236.67003,369.39936L236.67003,370.35947L236.43,370.35947L236.43,370.83952L236.18997,370.83952
				L236.18997,371.07954L236.18997,371.79962L235.94994,371.79962L235.94994,372.27967L235.70991,372.27967L235.70991,372.99975
				L235.46988,372.99975L235.46988,373.23977L235.46988,373.71982L235.22985,373.71982L235.22985,374.19988L234.98982,374.19988
				L234.98982,374.67993L234.74979,374.67993L234.74979,375.15998L234.50976,375.15998L234.50976,375.64003L234.50976,376.60013
				L234.26973,376.60013L234.26973,377.32021L234.0297,377.32021L234.0297,383.56087L233.78967,383.56087L233.78967,384.52098L233.54964,384.52098
				L233.54964,385.00103L233.54964,385.96113L233.30961,385.96113L233.30961,386.44118L233.06958,386.44118L233.06958,387.16126
				L232.82955,387.16126L232.82955,387.64131L232.58952,387.64131L232.58952,387.88133L232.82955,387.88133L232.82955,388.60141
				L233.06958,388.60141L233.06958,389.08146L233.30961,389.08146L233.30961,389.56151L233.54964,389.56151L233.54964,389.80154
				L233.54964,390.52161L233.78967,390.52161L233.78967,390.76164L234.0297,390.76164L234.0297,391.24169L234.26973,391.24169L234.26973,391.72174
				L234.50976,391.72174L234.50976,392.44182L234.50976,393.1619L234.74979,393.1619L234.74979,393.64195L234.98982,393.64195L234.98982,394.122
				L235.22985,394.122L235.22985,394.60205L235.46988,394.60205L235.46988,395.0821L235.70991,395.0821L235.70991,396.0422L235.94994,396.0422
				L235.94994,396.28223L236.18997,396.28223L236.18997,396.76228L236.18997,397.00231L236.43,397.00231L236.43,397.48236L236.67003,397.48236
				L236.67003,397.72238L236.91007,397.72238L236.91007,397.96241L237.1501,397.96241L237.1501,398.44246L237.1501,398.92251L237.39013,398.92251
				L237.39013,400.36266L237.63016,400.36266L237.63016,401.32277L237.87019,401.32277L237.87019,401.80282L238.11022,401.80282
				L238.11022,402.04284L238.11022,402.52289L238.35025,402.52289L238.35025,402.76292L238.59028,402.76292L238.59028,403.00294
				L238.83031,403.00294L238.83031,403.24297L238.83031,403.72302L239.07034,403.72302L239.07034,403.96305L239.31037,403.96305
				L239.31037,404.20307L239.5504,404.20307L239.5504,404.68312L239.79043,404.68312L239.79043,404.92315L239.79043,405.16318L240.03046,405.16318
				L240.03046,405.64323L240.27049,405.64323L240.51052,405.64323L240.51052,406.12328L240.75055,406.12328L240.75055,406.60333
				L240.75055,406.84335L240.99058,406.84335L240.99058,407.08338L241.23061,407.08338L241.23061,407.56343L241.47064,407.56343
				L241.47064,407.80346L241.47064,408.28351L241.71067,408.28351L241.71067,408.52353L241.9507,408.52353L241.9507,408.76356L242.19074,408.76356
				L242.19074,409.24361L242.43077,409.24361L242.43077,409.48364L242.43077,409.72366L242.6708,409.72366L242.6708,410.20371L242.91083,410.20371
				L242.91083,410.44374L243.15086,410.44374L243.15086,410.92379L243.39089,410.92379L243.39089,411.40384L243.39089,412.36394
				L243.63092,412.36394L243.63092,412.60397L243.87095,412.60397L243.87095,412.84399L244.11098,412.84399L244.11098,413.32404
				L244.11098,413.56407L244.35101,413.56407L244.35101,413.8041L244.59104,413.8041L244.59104,414.52417L244.83107,414.52417L244.83107,415.48427
				L245.0711,415.48427L245.0711,416.6844L245.0711,417.64451L245.31113,417.64451L245.31113,419.08466L245.55116,419.08466L245.55116,420.76484
				L245.79119,420.76484L245.79119,421.72494L246.03122,421.72494L246.03122,422.68504L246.03122,423.64514L246.27125,423.64514
				L246.27125,424.36522L246.51128,424.36522L246.51128,426.0454L246.75131,426.0454L246.75131,429.16573L246.75131,433.96624L246.75131,442.36714
				L246.51128,442.36714L246.51128,443.80729L246.27125,443.80729L246.27125,444.7674L246.03122,444.7674L246.03122,445.48747L246.03122,445.96752
				L245.79119,445.96752L245.79119,446.44757L245.55116,446.44757L245.55116,446.92763L245.31113,446.92763L245.31113,447.40768
				L245.0711,447.40768L245.0711,447.6477L245.0711,448.12775L244.83107,448.12775L244.83107,448.36778L244.59104,448.36778L244.59104,448.6078
				L244.35101,448.6078L244.35101,448.84783L244.11098,448.84783L244.11098,449.08786L243.63092,449.08786L243.63092,449.32788L
				243.39089,449.32788L243.39089,449.56791L243.15086,449.56791L243.15086,449.80793L242.6708,449.80793L242.6708,450.04796L242.43077,450.04796
				L242.43077,450.76803L242.43077,451.24809L242.19074,451.24809L242.19074,451.72814L241.9507,451.72814L241.9507,452.20819L241.71067,452.20819
				L241.71067,452.68824L241.47064,452.68824L241.47064,453.16829L241.47064,453.64834L241.23061,453.64834L241.23061,454.12839
				L240.99058,454.12839L240.99058,457.0087L241.23061,457.0087L241.23061,458.44885L241.47064,458.44885L241.47064,460.36906L241.47064,461.32916
				L241.71067,461.32916L241.71067,462.76931L241.9507,462.76931L241.9507,463.24936L242.19074,463.24936L242.19074,465.64962L241.9507,465.64962
				L241.9507,466.3697L241.71067,466.3697L241.71067,466.84975L241.47064,466.84975L241.47064,467.3298L241.47064,467.80985L241.23061,467.80985
				L241.23061,468.2899L240.99058,468.2899L240.99058,468.52993L240.75055,468.52993L240.75055,469.00998L240.75055,469.49003L240.51052,469.49003
				L240.51052,469.73006L240.27049,469.73006L240.27049,470.21011L240.03046,470.21011L240.03046,470.45013L239.79043,470.45013
				L239.79043,471.17021L239.79043,472.37034L239.5504,472.37034L239.5504,472.85039L239.31037,472.85039L239.31037,473.33044L239.07034,473.33044
				L239.07034,473.81049L238.83031,473.81049L238.83031,474.77059L238.83031,475.49067L238.59028,475.49067L238.59028,475.97072
				L238.35025,475.97072L238.35025,476.45077L238.11022,476.45077L238.11022,477.89092L238.35025,477.89092L238.35025,478.85103
				L238.59028,478.85103L238.59028,481.01126L238.35025,481.01126L238.35025,481.49131L238.59028,481.49131L238.59028,481.97136
				L238.35025,481.97136L238.35025,482.93146L238.11022,482.93146L238.11022,483.65154L238.11022,484.13159L237.87019,484.13159
				L237.87019,484.61164L237.63016,484.61164L237.63016,485.09169L237.39013,485.09169L237.39013,485.33172L237.1501,485.33172L
				237.1501,485.81177L237.1501,486.05179L236.91007,486.05179L236.91007,486.29182L236.67003,486.29182L236.67003,486.77187L236.43,486.77187
				L236.43,487.25192L236.18997,487.25192L236.18997,488.45205L235.94994,488.45205L235.94994,488.9321L235.70991,488.9321L235.70991,490.37225
				L235.46988,490.37225L235.46988,491.09233L235.46988,491.81241L235.22985,491.81241L235.22985,492.77251L234.98982,492.77251
				L234.98982,493.49259L234.74979,493.49259L234.74979,494.21266L234.50976,494.21266L234.50976,495.17277L234.50976,495.89284
				L234.26973,495.89284L234.26973,496.61292L234.0297,496.61292L234.0297,497.57302L233.78967,497.57302L233.78967,498.2931L233.54964,498.2931
				L233.54964,498.77315L233.54964,499.49323L233.30961,499.49323L233.30961,500.45333L233.06958,500.45333L233.06958,501.17341
				L232.82955,501.17341L232.82955,501.65346L232.58952,501.65346L232.58952,502.37353L232.58952,503.09361L232.34949,503.09361
				L232.34949,503.33364L232.10946,503.33364L232.10946,504.05371L231.86943,504.05371L231.86943,504.53376L231.86943,505.25384
				L231.62939,505.25384L231.62939,505.73389L231.38936,505.73389L231.38936,506.45397L231.14933,506.45397L231.14933,506.93402
				L231.38936,506.93402L231.38936,507.17405L231.62939,507.17405L231.62939,507.6541L231.86943,507.6541L231.86943,507.89412L231.86943,508.37417
				L232.10946,508.37417L231.86943,508.37417L231.86943,509.09425L231.86943,510.05435L231.62939,510.05435L231.62939,511.01445
				L231.38936,511.01445L231.38936,511.73453L231.14933,511.73453L231.14933,511.97456L230.9093,511.97456L230.9093,512.93466L230.9093,513.65474
				L230.66927,513.65474L230.66927,514.13479L230.42924,514.13479L230.42924,514.61484L230.18921,514.61484L230.18921,515.57494
				L229.94918,515.57494L229.94918,516.29502L229.94918,516.77507L229.70915,516.77507L229.70915,517.73517L229.46912,517.73517
				L229.46912,518.21522L229.22909,518.21522L229.22909,518.69527L229.22909,519.17532L228.98906,519.17532L228.98906,519.8954L
				228.74903,519.8954L228.74903,520.37545L228.509,520.37545L228.509,520.8555L228.26897,520.8555L228.26897,521.33555L228.26897,521.81561
				L228.02894,521.81561L228.02894,522.53568L227.78891,522.53568L227.78891,523.01573L227.54888,523.01573L227.54888,523.49578
				L227.30885,523.49578L227.30885,523.73581L227.30885,524.45589L227.06882,524.45589"/>
			<path clip-path="url(#SVG_CP_2)" fill="none" stroke="#999999" stroke-width="0.96012" stroke-miterlimit="10" stroke-linecap="round" stroke-linejoin="round" d="
				M227.06882,524.45589L227.06882,524.93594L226.82879,524.93594L226.82879,524.45589L227.06882,524.45589"/>
		</g>
</g></svg>