<?xml version="1.0" encoding="utf-8" standalone="no"?>
<!-- Creator: ESRI ArcMap 10.0.0.2414 -->
<!DOCTYPE svg PUBLIC "-//W3C//DTD SVG 1.1//EN"  "http://www.w3.org/Graphics/SVG/1.1/DTD/svg11.dtd">
<svg width="360.839744331pt" height="741.1872776pt" viewBox="117.331307834 45.48194658 360.839744331 741.1872776" enable-background="new 117.331307834 45.48194658 360.839744331 741.1872776"
	version="1.1" xmlns="http://www.w3.org/2000/svg" xmlns:xlink="http://www.w3.org/1999/xlink" >
	<g id="Couches">
		<g id="reservoirs">
			<clipPath id="SVG_CP_2">
				<path d="M574.39289,21.36228L21.36271,21.36228L21.36271,821.36753L574.39289,821.36753L574.39289,21.36228z"/>
			</clipPath>
			<path clip-path="url(#SVG_CP_2)" fill-opacity="0.2" fill="#2f4493" fill-rule="evenodd" stroke="#2f4493" stroke-width="1" stra="1.44018" stroke-miterlimit="10" stroke-linecap="round" stroke-linejoin="round" d="
				M474.06016,684.55295L470.4597,697.2743L464.69897,695.59412L462.5387,694.63402L461.33855,698.47443L459.89836,707.11535L458.21815,712.15589
				L462.77873,714.79617L459.89836,721.75691L461.57858,722.47699L456.77797,733.03811L460.37842,735.19834L454.37766,747.43965
				L450.77721,762.80129L450.77721,763.04131L435.65529,760.40103L434.45513,761.84118L433.01495,763.76139L431.57477,764.96152
				L426.53413,763.04131L423.89379,763.04131L421.97355,770.00205L423.65376,771.92226L423.41373,773.36241L433.97507,775.76267
				L432.53489,783.92354L430.37462,784.88364L426.53413,784.16356L424.37385,782.72341L423.1737,782.72341L421.73352,782.48338L
				422.21358,779.8431L417.89303,779.36305L418.61312,774.56254L414.77264,773.12239L414.77264,769.522L417.653,770.00205L418.37309,769.522
				L419.09318,757.2807L416.69288,756.80065L415.2527,756.56062L414.53261,755.60052L413.81251,746.71957L413.57248,742.15909L412.61236,740.95896
				L407.57172,740.23888L404.93139,739.75883L401.0909,740.23888L400.85087,739.27878L399.89075,732.31804L399.17066,727.99758L
				397.25041,717.19643L407.57172,716.47635L412.61236,713.59604L413.33245,712.15589L415.01267,711.43581L417.17294,710.47571L
				418.13306,709.99566L422.45361,699.43453L426.2941,689.11343L447.17675,698.71446L455.81785,694.394L456.29791,674.47187L461.57858,673.99182
				L463.01876,664.87085L467.81937,664.63082L467.09928,682.87277L473.5801,682.87277L474.06016,684.55295z"/>
			<path clip-path="url(#SVG_CP_2)" fill-opacity="0.2" fill="#2f4493" fill-rule="evenodd" stroke="#2f4493" stroke-width="1" stra="1.44018" stroke-miterlimit="10" stroke-linecap="round" stroke-linejoin="round" d="
				M469.01952,69.60742L468.77949,72.48772L462.5387,72.2477L462.5387,77.28824L468.0594,77.52826L468.29943,77.52826L468.53946,77.76829
				L467.81937,87.36931L467.09928,93.36995L466.85925,96.01023L465.41906,102.2509L461.33855,117.13248L459.65833,124.09322L457.25803,134.41432
				L434.9352,127.93363L433.97507,131.77404L433.73504,132.97417L433.49501,135.1344L439.7358,138.01471L437.57553,141.37507L445.01647,146.4156
				L441.89608,162.97737L450.77721,166.81778L448.13687,177.85895L452.69745,179.77916L458.45818,181.21931L457.73809,184.8197L
				453.8976,183.61957L452.93748,186.01982L448.3769,193.94067L445.9766,194.18069L446.21663,197.54105L434.69516,198.9812L434.69516,200.66138
				L434.45513,207.3821L433.01495,207.62212L432.77492,208.58223L427.73428,209.3023L427.49425,207.3821L426.53413,203.54169L423.65376,196.58095
				L419.09318,199.22123L415.01267,202.34156L413.57248,203.54169L411.17218,205.70192L409.25194,207.3821L407.33169,209.54233L
				405.65148,211.22251L402.29105,214.82289L395.09014,217.46317L389.32941,203.06164L390.52956,201.38146L385.00886,199.70128L
				379.72819,208.10218L373.4874,213.86279L370.12697,216.50307L370.84706,217.22315L374.68755,215.54297L375.40764,216.7431L381.16837,214.10282
				L384.5288,220.82353L381.88846,222.02366L380.44828,222.98376L380.44828,223.70384L378.52804,224.66394L372.28724,226.58415L
				369.88694,222.50371L351.16456,226.82417L354.52499,232.10473L355.24508,234.02494L355.48511,239.54553L351.64463,239.3055L351.64463,240.2656
				L354.52499,246.50627L356.44523,249.86663L361.48587,247.22635L361.24584,245.78619L362.20597,245.54617L364.36624,246.02622
				L367.24661,246.50627L372.28724,247.46637L374.92758,248.18645L388.84935,253.94706L391.24965,253.46701L392.20977,253.94706
				L388.60932,266.18837L387.64919,266.66842L386.68907,267.14847L386.9291,270.02877L387.16913,271.2289L387.64919,277.94962L387.64919,280.10985
				L393.16989,279.6298L394.61008,281.06995L400.13078,276.74949L401.57096,279.86982L406.85163,290.19092L408.05178,291.63108L
				409.97203,291.63108L410.45209,300.51202L411.17218,303.87238L411.89227,308.67289L413.81251,311.31317L416.45285,314.67353L
				420.29334,326.67481L418.37309,328.35499L414.29258,332.67545L417.41297,341.07635L412.85239,342.27647L412.37233,348.27711L
				412.1323,354.27775L411.89227,355.95793L410.45209,365.0789L409.01191,378.52034L405.89151,408.04348L416.45285,410.68376L414.53261,417.16445
				L412.61236,423.40512L411.17218,427.72558L409.732,430.36586L408.53184,431.80601L407.57172,433.48619L405.65148,435.4064L403.73124,437.3266
				L403.4912,437.56663L401.0909,435.88645L396.53032,432.52609L394.85011,434.68632L391.48968,439.48683L391.48968,439.72686L387.64919,444.04732
				L386.9291,440.92699L386.44904,439.00678L385.96898,436.84655L385.00886,436.84655L384.04874,438.2867L383.80871,438.52673L370.60703,454.12839
				L372.04721,459.88901L372.76731,461.80921L371.80718,462.76931L368.20673,467.08977L365.32636,471.41023L368.92682,474.29054
				L370.60703,475.73069L363.40612,484.37162L362.68603,485.33172L362.20597,487.0119L361.96594,488.45205L360.76578,499.01318L
				357.88542,498.53312L356.68526,499.49323L355.96517,500.45333L355.48511,501.65346L311.79957,486.05179L253.7122,464.68952L232.82955,457.24873
				L178.58266,437.3266L149.29895,427.24553L137.05739,422.44502L123.61569,417.40448L121.69544,416.6844L129.85648,401.32277L139.93776,382.36075
				L149.05892,366.99911L158.90017,351.15742L169.70154,335.55576L174.02208,330.99527L174.02208,330.75525L180.02285,325.95473
				L182.66318,323.7945L187.94385,316.83376L190.82422,311.07315L193.22452,302.67225L198.26516,294.03133L206.18617,282.51011L
				220.10793,264.26816L232.34949,249.38658L242.43077,237.3853L254.19226,223.70384L264.03351,212.90269L276.03503,199.70128L293.55725,181.93939
				L308.19911,167.77788L321.40079,155.7766L332.92225,144.4954L354.04493,125.29335L373.72743,108.49156L391.96974,94.33005L404.45133,84.96905
				L413.81251,78.24834L419.09318,74.40793L424.85392,70.56752L429.89456,67.68721L436.61541,65.04693L449.57705,60.9665L457.25803,58.08619
				L459.4183,57.60614L461.57858,57.84616L464.21891,59.04629L465.65909,60.9665L467.09928,63.12673L468.0594,65.76701L469.01952,69.60742
				z"/>
		</g>
</g></svg>