<?xml version="1.0" encoding="utf-8" standalone="no"?>
<!-- Creator: ESRI ArcMap 10.0.0.2414 -->
<!DOCTYPE svg PUBLIC "-//W3C//DTD SVG 1.1//EN"  "http://www.w3.org/Graphics/SVG/1.1/DTD/svg11.dtd">
<svg width="595.50236pt" height="595.50236pt" viewBox="25 148.377955 545.50236 545.50236" enable-background="new 25 148.377955 545.50236 545.50236"
	version="1.1" xmlns="http://www.w3.org/2000/svg" xmlns:xlink="http://www.w3.org/1999/xlink" >
	<g id="Couches">
		<g id="cont_2">
			<path clip-path="url(#SVG_CP_2)" fill="none" stroke="#999999" stroke-width="0.96012" stroke-miterlimit="10" stroke-linecap="round" stroke-linejoin="round" d="
				M236.91007,434.4463L227.06882,434.4463L227.06882,424.84527L217.4676,424.84527L217.4676,395.80218L207.86638,395.80218L207.86638,366.99911
				L198.26516,366.99911L198.26516,347.79706L188.66394,347.79706L188.66394,318.99399L179.06272,318.99399L179.06272,299.55192
				L169.46151,299.55192L169.46151,270.74885L159.86029,270.74885L159.86029,251.54681L150.01904,251.54681L150.01904,222.50371
				L140.41782,222.50371L140.41782,203.30166L130.8166,203.30166L130.8166,174.4986L121.21538,174.4986L121.21538,145.4555L111.61416,145.4555
				L111.61416,126.25345L102.01295,126.25345L102.01295,97.45038L92.41173,97.45038L92.41173,78.24834L82.81051,78.24834L82.81051,49.20524
				L72.96926,49.20524L72.96926,30.0032L63.36804,30.0032L63.36804,1.20013L53.76682,1.20013L53.76682,-18.24194L44.16561,-18.24194
				L44.16561,-18.722M227.06882,-18.722L227.06882,-18.24194L236.91007,-18.24194L236.91007,10.80115L246.51128,10.80115L246.51128,30.0032
				L256.1125,30.0032L256.1125,58.80627L265.71372,58.80627L265.71372,78.24834L275.31494,78.24834L275.31494,97.45038L284.91616,97.45038
				L284.91616,126.25345L294.51738,126.25345L294.51738,145.4555L304.11859,145.4555L304.11859,174.4986L313.71981,174.4986L313.71981,193.70064
				L323.56106,193.70064L323.56106,222.50371L333.16228,222.50371L333.16228,241.94578L342.7635,241.94578L342.7635,270.74885L352.36472,270.74885
				L352.36472,289.9509L361.96594,289.9509L361.96594,309.15294L352.36472,309.15294L352.36472,318.99399L342.7635,318.99399L342.7635,328.59502
				L333.16228,328.59502L333.16228,338.19604L323.56106,338.19604L323.56106,347.79706L313.71981,347.79706L313.71981,357.39809
				L304.11859,357.39809L304.11859,366.99911L294.51738,366.99911L294.51738,376.60013L284.91616,376.60013L284.91616,386.20115
				L275.31494,386.20115L275.31494,395.80218L265.71372,395.80218L265.71372,405.64323L256.1125,405.64323L256.1125,415.24425L246.51128,415.24425
				L246.51128,424.84527L236.91007,424.84527L236.91007,434.4463"/>
			<path clip-path="url(#SVG_CP_2)" fill="none" stroke="#999999" stroke-width="0.96012" stroke-miterlimit="10" stroke-linecap="round" stroke-linejoin="round" d="
				M236.91007,434.4463L246.51128,434.4463L246.51128,424.84527L256.1125,424.84527L256.1125,415.24425L265.71372,415.24425L265.71372,405.64323
				L275.31494,405.64323L275.31494,395.80218L284.91616,395.80218L284.91616,386.20115L294.51738,386.20115L294.51738,376.60013
				L304.11859,376.60013L304.11859,366.99911L313.71981,366.99911L313.71981,357.39809L323.56106,357.39809L323.56106,347.79706
				L333.16228,347.79706L333.16228,338.19604L342.7635,338.19604L342.7635,328.59502L352.36472,328.59502L352.36472,318.99399L361.96594,318.99399
				L361.96594,309.15294L371.56715,309.15294L371.56715,338.19604L381.16837,338.19604L381.16837,357.39809L390.76959,357.39809
				L390.76959,376.60013L400.61084,376.60013L400.61084,405.64323L410.21206,405.64323L410.21206,424.84527L419.81328,424.84527
				L419.81328,444.04732L429.41449,444.04732L429.41449,472.85039L439.01571,472.85039L439.01571,492.29246L448.61693,492.29246
				L448.61693,511.49451L458.21815,511.49451L458.21815,540.29758L467.81937,540.29758L467.81937,559.73965L477.66062,559.73965
				L477.66062,578.94169L487.26184,578.94169L487.26184,607.74476L496.86305,607.74476L496.86305,626.94681L506.46427,626.94681
				L506.46427,655.9899L516.06549,655.9899L516.06549,675.19195L525.66671,675.19195L525.66671,694.394L535.26793,694.394L535.26793,723.43709
				L544.86915,723.43709L544.86915,742.63914L554.47036,742.63914L554.47036,761.84118L564.31161,761.84118L564.31161,790.64425
				L573.91283,790.64425L573.91283,810.08632L583.51405,810.08632L583.51405,829.28837L593.11527,829.28837L593.11527,858.09144
				L601.9964,858.09144M400.61084,861.21177L400.61084,858.09144L390.76959,858.09144L390.76959,838.88939L381.16837,838.88939L
				381.16837,810.08632L371.56715,810.08632L371.56715,790.64425L361.96594,790.64425L361.96594,761.84118L352.36472,761.84118L
				352.36472,742.63914L342.7635,742.63914L342.7635,713.59604L333.16228,713.59604L333.16228,694.394L323.56106,694.394L323.56106,665.59093
				L313.71981,665.59093L313.71981,636.54783L304.11859,636.54783L304.11859,617.34579L294.51738,617.34579L294.51738,588.54272
				L284.91616,588.54272L284.91616,569.34067L275.31494,569.34067L275.31494,540.29758L265.71372,540.29758L265.71372,521.09553
				L256.1125,521.09553L256.1125,492.29246L246.51128,492.29246L246.51128,472.85039L236.91007,472.85039L236.91007,434.4463"/>
		</g>
</g></svg>