<?xml version="1.0" encoding="utf-8" standalone="no"?>
<!-- Creator: ESRI ArcMap 10.0.0.2414 -->
<!DOCTYPE svg PUBLIC "-//W3C//DTD SVG 1.1//EN"  "http://www.w3.org/Graphics/SVG/1.1/DTD/svg11.dtd">
<svg width="595.50236pt" height="595.50236pt" viewBox="25 148.377955 545.50236 545.50236" enable-background="new 25 148.377955 545.50236 545.50236"
	version="1.1" xmlns="http://www.w3.org/2000/svg" xmlns:xlink="http://www.w3.org/1999/xlink" >
	<g id="Couches">
		<g id="reservoirs">
			<path clip-path="url(#SVG_CP_2)" fill-opacity="0.2" fill="#07866D" fill-rule="evenodd" stroke="none" stroke-width="" stra="1.44018" stroke-miterlimit="10" stroke-linecap="round" stroke-linejoin="round" d="
				M-6.24079,606.78466L-1.68021,614.7055L-0.48006,615.42558L0.24003,615.42558L0.96012,615.18556L1.44018,615.18556L2.16027,615.42558
				L3.1204,615.90563L5.28067,617.34579L8.88113,615.66561L9.84125,615.18556L11.52146,614.46548L13.68174,613.98543L16.08204,613.7454
				L18.72238,613.7454L23.04292,613.98543L36.96469,614.94553L38.40487,614.46548L42.96545,612.06522L44.40564,614.94553L47.04597,620.70614
				L48.00609,620.22609L50.16637,624.0665L52.8067,623.34642L51.84658,621.18619L55.44704,619.02596L57.12725,618.30589L56.16713,616.62571
				L59.28752,614.94553L56.64719,611.10512L58.56743,609.90499L57.36728,608.46484L60.24765,606.54463L61.20777,605.82456L63.36804,603.90435
				L64.08813,603.66433L65.28829,603.18428L66.24841,602.4642L65.52832,601.02405L68.40868,599.34387L70.80899,597.66369L72.96926,596.22353
				L73.44932,597.66369L74.40944,599.34387L75.84963,601.5041L78.24993,604.3844L78.48996,605.10448L78.0099,605.82456L79.45008,607.26471
				L80.17017,606.78466L86.651,602.70423L88.57124,601.5041L90.49148,600.78402L93.13182,599.82392L91.45161,594.0633L88.57124,594.54336
				L87.85115,591.42302L91.69164,590.46292L90.73151,586.86254L92.65176,586.14246L94.33197,585.66241L95.29209,585.18236L96.01218,584.70231
				L97.21234,584.22226L97.93243,584.22226L98.89255,584.22226L99.85267,584.22226L98.89255,581.822L103.69316,577.98159L101.29285,574.86126
				L104.41325,572.22098L107.53365,569.5807L111.8542,565.98031L114.97459,563.58006L116.6548,562.1399L117.13487,562.61995L117.61493,562.37993
				L119.53517,560.93977L120.49529,560.2197L121.93547,558.77954L125.77596,556.13926L126.73608,555.41919L131.05663,552.77891L
				133.69697,551.09873L135.13715,549.65857L138.25755,546.77827L141.61797,543.65793L144.9784,540.5376L148.33883,537.41727L152.41934,533.81688
				L153.6195,532.85678L156.0198,530.93658L162.74065,525.41599L166.58114,522.29566L169.70154,519.65538L173.30199,517.49515L175.94233,516.05499
				L178.58266,514.61484L180.98297,518.45525L182.66318,517.25512L184.10336,519.8954L186.98373,517.73517L189.38403,520.8555L184.10336,524.69591
				L186.7437,528.2963L191.54431,524.93594L191.06425,526.85614L190.10413,529.01637L189.62406,530.45653L189.62406,532.37673L190.82422,535.49706
				L191.30428,536.69719L192.02437,537.41727L192.98449,537.41727L194.18464,536.69719L197.7851,535.01701L199.94537,534.05691L
				201.62559,533.09681L203.78586,530.93658L205.22604,529.49642L206.18617,528.2963L206.66623,527.57622L207.62635,526.37609L209.06653,524.45589
				L210.02665,522.77571L211.46684,520.8555L210.98678,516.53504L209.06653,514.13479L209.54659,513.89476L209.30656,512.93466L
				208.8265,511.49451L208.58647,510.77443L208.10641,509.5743L208.58647,508.6142L208.10641,507.41407L208.10641,506.93402L208.10641,506.21394
				L208.58647,505.25384L208.10641,504.05371L211.22681,502.37353L210.02665,497.57302L213.38708,496.13287L216.50748,495.17277
				L219.38784,494.45269L222.02818,493.73261L225.86866,492.77251L228.74903,491.81241L232.10946,489.8922L234.98982,488.21202L
				235.46988,483.89156L246.75131,480.29118L249.15162,479.33108L249.39165,479.5711L251.07186,479.09105L255.15238,477.89092L256.35253,477.17085
				L260.67308,474.05052L260.91311,473.57046L261.6332,472.61036L262.35329,472.13031L264.27354,468.52993L264.7536,468.2899L264.7536,467.80985
				L265.23366,467.08977L265.71372,466.84975L266.19378,465.88965L266.91387,464.92954L267.63396,464.20947L268.35406,463.96944
				L269.07415,464.20947L269.55421,464.44949L270.2743,465.16957L270.75436,465.88965L271.47445,466.3697L272.91463,465.64962L273.3947,466.12967
				L273.87476,466.84975L276.75512,465.40959L276.99515,466.3697L279.39546,470.93018L277.23518,471.89029L276.75512,473.33044L
				276.75512,474.05052L277.47521,476.6908L275.795,477.41087L275.795,479.33108L276.75512,481.25128L277.23518,481.01126L277.95527,482.69144
				L279.87552,482.69144L280.83564,484.85167L279.15543,485.33172L279.39546,486.53185L279.63549,488.21202L279.87552,489.65218
				L279.87552,491.09233L278.67537,491.09233L277.47521,491.33236L276.03503,491.81241L274.83488,492.05243L275.31494,493.97264
				L276.03503,494.93274L277.23518,495.17277L278.67537,495.41279L282.51585,493.73261L282.99591,493.49259L283.716,493.73261L284.4361,493.97264
				L284.91616,494.21266L284.91616,494.69272L284.91616,495.65282L284.4361,496.61292L283.95604,498.05307L283.47597,499.01318L
				282.99591,499.2532L281.79576,499.97328L282.03579,500.45333L282.75588,501.89348L283.47597,503.81369L279.87552,505.01382L281.55573,509.09425
				L285.15619,507.6541L286.35634,510.77443L289.47674,510.05435L289.9568,510.05435L290.19683,510.05435L290.43686,510.29438L290.91692,510.77443
				L306.5189,504.29374L308.19911,502.85359L309.15923,502.37353L309.87933,502.13351L310.59942,501.89348L314.91996,499.73325L
				315.16,499.73325L315.64006,499.49323L316.12012,499.2532L316.36015,499.2532L317.08024,499.49323L318.04036,499.01318L319.00048,498.53312
				L319.24051,498.77315L320.6807,498.2931L321.64082,499.97328L321.88085,499.97328L322.60094,499.49323L324.76121,501.41343L322.12088,503.33364
				L329.80185,517.25512L329.80185,517.49515L329.56182,517.73517L329.56182,517.9752L329.80185,519.17532L330.28191,520.61548L
				331.7221,523.25576L331.96213,524.21586L336.04265,532.61676L326.44143,540.29758L324.52118,541.73773L321.88085,543.17788L319.00048,544.37801
				L314.4399,545.81816L301.47826,548.69847L299.79805,548.69847L296.67765,547.73837L291.63701,546.77827L288.75664,546.29821L
				284.19607,545.81816L282.75588,545.33811L281.3157,545.09809L279.15543,544.37801L276.03503,543.65793L272.91463,543.17788L271.23442,542.93786
				L262.59332,544.37801L254.19226,545.09809L247.71144,548.21842L244.11098,551.33875L243.63092,553.49898L243.15086,554.21906
				L242.19074,556.13926L242.43077,556.85934L242.43077,558.53952L241.23061,561.41983L240.75055,562.1399L239.79043,564.06011L
				239.07034,565.50026L239.07034,567.18044L239.5504,571.98095L240.03046,574.14118L240.27049,576.30141L240.03046,577.98159L239.31037,581.34195
				L238.11022,587.10256L237.39013,586.86254L232.34949,584.22226L227.30885,582.30205L224.66851,583.98223L220.34796,586.38249
				L215.30732,589.50282L212.90702,590.94297L207.62635,594.30333L201.86562,597.66369L196.10489,601.02405L189.144,605.58453L180.50291,610.38504
				L172.10184,615.42558L164.90093,619.74604L163.94081,620.22609L162.98068,620.46612L162.02056,620.22609L160.58038,620.46612
				L157.45998,621.42622L156.73989,621.66625L154.33959,621.90627L152.17931,622.1463L150.97916,622.1463L149.77901,622.1463L148.09879,619.02596
				L141.13791,621.42622L139.93776,622.1463L138.01752,622.62635L136.09727,623.1064L134.65709,623.58645L132.97688,624.54655L129.61645,624.54655
				L128.17627,623.82648L126.49605,622.1463L124.09575,622.86637L122.41554,623.1064L120.73532,623.58645L119.05511,623.58645L115.69468,623.82648
				L116.6548,626.46676L114.49453,627.66689L111.61416,628.38696L109.45389,628.38696L106.81356,628.38696L106.81356,629.34706L
				101.77292,627.66689L101.29285,627.90691L99.37261,627.90691L96.25222,628.38696L95.77215,626.46676L93.37185,626.70678L93.37185,627.18683
				L92.41173,627.42686L92.89179,630.30717L91.93167,630.54719L92.41173,633.4275L90.73151,633.66752L87.61112,634.62763L86.41097,635.10768
				L78.0099,637.98799L69.84886,642.30845L66.48844,645.18875L62.16789,648.30908L54.72695,653.58965L53.52679,653.82967L46.80594,657.67008
				L44.40564,658.87021L41.28524,660.31036L37.92481,661.51049L38.6449,666.311L28.32359,667.99118L20.88265,668.47123L17.04216,668.95128
				L16.80213,668.23121L15.36195,667.03108L13.92177,666.55103L11.52146,666.55103L6.48082,666.79105L2.64034,666.07098L0.96012,665.59093
				L-1.68021,663.91075L-4.56058,663.19067L-6.24079,662.71062L-6.24079,606.78466z"/>
			<path clip-path="url(#SVG_CP_2)" fill-opacity="0.2" fill="#07866D" fill-rule="evenodd" stroke="none" stroke-width="" stra="1.44018" stroke-miterlimit="10" stroke-linecap="round" stroke-linejoin="round" d="
				M394.13002,300.99207L400.85087,307.23274L401.81099,308.19284L403.01114,309.39297L403.73124,310.35307L404.45133,311.31317
				L405.41145,312.5133L406.6116,313.4734L410.21206,316.11369L417.17294,320.9142L419.09318,322.11433L420.29334,322.8344L421.01343,323.31445
				L422.69364,323.7945L424.37385,324.51458L426.77416,325.71471L431.8148,327.63491L433.97507,328.59502L437.3355,330.03517L442.13611,331.71535
				L445.01647,332.67545L449.57705,334.1156L454.13763,335.07571L455.81785,335.31573L457.25803,335.31573L459.17827,335.31573L
				461.33855,334.83568L463.01876,334.35563L463.73885,333.87558L464.69897,334.59566L465.89912,335.07571L466.85925,335.55576L
				468.53946,336.51586L469.97964,339.63619L463.49882,342.5165L452.21739,347.31701L445.01647,350.43734L443.09623,351.15742L433.25498,355.71791
				L414.53261,363.39872L410.21206,365.31893L409.49197,363.39872L409.01191,362.67865L408.05178,361.71855L406.6116,360.75844L
				404.93139,359.55832L403.73124,358.59821L402.53108,357.15806L401.33093,355.23785L400.13078,353.31765L398.93063,351.8775L397.73047,350.67737
				L397.25041,349.95729L396.53032,349.71727L395.81023,349.47724L395.09014,349.71727L393.64996,349.95729L391.48968,350.67737
				L388.60932,351.63747L385.48892,352.59757L384.76883,352.8376L384.04874,351.8775L383.08862,350.91739L382.12849,350.19732L380.92834,349.95729
				L379.48816,350.19732L378.04798,350.43734L378.04798,350.67737L377.08785,351.15742L376.12773,351.63747L374.68755,352.59757
				L373.72743,353.31765L373.24737,354.03773L371.32712,354.51778L366.76654,355.71791L364.8463,356.43798L362.92606,357.39809L
				359.3256,358.83824L354.28496,361.23849L347.80414,364.1188L338.92301,368.19924L330.28191,372.03965L323.56106,374.91995L320.20063,376.36011
				L319.9606,376.36011L319.48054,376.12008L316.60018,372.27967L312.27963,366.27903L306.5189,358.35819L302.67841,353.31765L294.03731,341.5564
				L283.23594,326.91484L285.63625,324.99463L269.55421,303.87238L269.07415,303.63236L267.63396,304.59246L264.27354,305.31253
				L262.83335,305.55256L260.91311,305.31253L254.43229,306.51266L248.43153,294.27136L249.87171,293.79131L250.83183,293.55128
				L251.79195,293.07123L252.75208,292.59118L254.19226,291.8711L255.39241,290.911L258.51281,288.03069L262.11326,285.39041L262.83335,284.67034
				L263.79348,283.95026L264.27354,283.23018L264.99363,282.75013L267.39393,281.79003L268.83412,281.06995L271.47445,280.10985
				L272.19454,279.6298L273.15466,278.6697L274.35482,277.70959L274.83488,277.22954L275.31494,276.74949L276.03503,276.50947L276.75512,276.50947
				L278.43533,276.26944L280.59561,276.26944L283.95604,276.02941L284.91616,275.78939L287.79652,275.54936L292.11707,275.06931
				L293.31722,275.06931L294.27735,274.82929L295.4775,274.82929L296.43762,274.58926L298.59789,274.34924L300.75817,274.34924L
				302.43838,274.10921L304.59865,273.86918L307.47902,273.38913L310.35939,273.14911L313.47978,272.90908L317.32027,272.42903L
				318.28039,272.42903L319.72057,272.18901L320.44067,271.94898L322.12088,271.70895L323.081,270.74885L330.28191,270.74885L334.60246,270.98888
				L340.12316,271.2289L345.88389,271.70895L348.52423,271.94898L353.56487,272.42903L362.68603,273.14911L367.00657,273.38913L
				375.64767,274.10921L381.4084,274.58926L390.0495,275.54936L396.05026,276.50947L392.92986,286.83057L390.28953,295.95154L390.0495,296.43159
				L390.28953,296.91164L394.13002,300.99207z"/>
		</g>
</g></svg>