<?xml version="1.0" encoding="utf-8" standalone="no"?>
<!-- Creator: ESRI ArcMap 10.0.0.2414 -->
<!DOCTYPE svg PUBLIC "-//W3C//DTD SVG 1.1//EN"  "http://www.w3.org/Graphics/SVG/1.1/DTD/svg11.dtd">
<svg width="595.50236pt" height="595.50236pt" viewBox="25 148.377955 545.50236 545.50236" enable-background="new 25 148.377955 545.50236 545.50236"
	version="1.1" xmlns="http://www.w3.org/2000/svg" xmlns:xlink="http://www.w3.org/1999/xlink" >
	<g id="Couches">
		<g id="reservoirs">
			<clipPath id="SVG_CP_2">
				<path d="M574.39289,21.36228L21.36271,21.36228L21.36271,821.36753L574.39289,821.36753L574.39289,21.36228z"/>
			</clipPath>
			<path clip-path="url(#SVG_CP_2)" fill-opacity="0.08" fill="#2f4493" fill-rule="evenodd" stroke="#2f4493" stroke-width="1" stra="1.44018" stroke-miterlimit="10" stroke-linecap="round" stroke-linejoin="round" d="
				M355.48511,516.29502L352.12469,528.05627L346.84402,526.61612L344.92377,525.89604L343.72362,529.2564L342.28344,537.17724L
				340.84325,541.97775L344.92377,544.37801L342.28344,550.8587L343.96365,551.57878L339.40307,561.41983L342.7635,563.34003L337.2428,574.62123
				L333.88237,589.02277L333.88237,589.26279L319.9606,586.62251L318.76045,588.06266L317.32027,589.74284L316.12012,590.94297L
				311.31951,589.26279L308.9192,589.02277L307.23899,595.74348L308.67917,597.42366L308.67917,598.62379L318.28039,600.78402L316.84021,608.46484
				L315.16,609.18492L311.55954,608.70486L309.39926,607.50474L308.43914,607.26471L306.99896,607.02469L307.47902,604.86446L303.3985,604.14438
				L304.11859,599.58389L300.51814,598.38376L300.51814,595.02341L303.15847,595.50346L303.87856,595.02341L304.59865,583.7422L
				302.19835,583.26215L300.9982,583.02213L300.27811,582.06203L299.55802,573.90116L299.31798,569.82072L298.59789,568.86062L294.03731,567.90052
				L291.39698,567.66049L288.03655,568.14054L287.79652,566.94041L286.59637,560.69975L286.11631,556.61931L284.4361,546.77827L
				293.79728,545.81816L298.35786,543.17788L299.07795,541.97775L300.75817,541.25768L302.67841,540.29758L303.63853,540.05755L
				307.47902,530.2165L311.07948,520.61548L330.52194,529.49642L338.44295,525.41599L339.16304,506.93402L343.96365,506.45397L345.40383,498.05307
				L349.72438,497.81305L349.24432,514.61484L355.00505,514.85486L355.48511,516.29502z"/>
			<path clip-path="url(#SVG_CP_2)" fill-opacity="0.08" fill="#2f4493" fill-rule="evenodd" stroke="#2f4493" stroke-width="1" stra="1.44018" stroke-miterlimit="10" stroke-linecap="round" stroke-linejoin="round" d="
				M346.12392,-18.722L343.72362,-9.60102L342.04341,-3.12033L339.88313,6.48069L319.24051,0.48005L318.28039,3.84041L318.04036,5.28056
				L317.80033,6.96074L323.56106,9.84105L321.64082,12.72136L328.6017,17.52187L325.72134,32.8835L333.88237,36.48389L331.48207,46.80499
				L335.80261,48.48517L341.08328,49.6853L340.36319,53.04565L336.76274,52.08555L336.04265,54.24578L331.7221,61.68657L329.56182,61.68657
				L329.56182,64.80691L319.00048,66.24706L319.00048,67.92724L318.76045,73.92788L317.32027,74.1679L317.08024,75.12801L312.51966,75.84808
				L312.27963,73.92788L311.31951,70.56752L308.9192,64.08683L304.59865,66.48709L300.75817,69.36739L299.31798,70.56752L297.15771,72.48772
				L295.4775,73.92788L293.55725,76.08811L292.11707,77.52826L288.99668,81.12865L282.27582,83.5289L276.75512,70.08747L277.95527,68.64732
				L273.15466,66.96714L268.11402,74.64796L262.11326,80.16854L259.2329,82.5688L259.71296,83.04885L263.31342,81.6087L264.03351,82.80882
				L269.55421,80.16854L272.43457,86.40921L270.03427,87.60934L268.59409,88.56944L268.83412,89.28952L266.91387,90.00959L261.15314,91.68977
				L258.99287,88.08939L241.47064,91.9298L244.83107,96.97033L245.31113,98.65051L245.55116,103.93108L241.9507,103.69105L241.9507,104.65115
				L244.83107,110.17174L246.27125,113.5321L251.07186,111.13184L250.83183,109.69169L251.79195,109.45166L253.7122,109.93171L256.35253,110.41177
				L261.15314,111.13184L263.55345,111.85192L276.51509,117.13248L278.67537,116.89246L279.63549,117.13248L276.27506,128.65371
				L275.55497,129.13376L274.59485,129.61381L274.83488,132.25409L274.83488,133.2142L275.31494,139.69489L275.55497,141.37507L
				280.59561,141.13504L281.79576,142.33517L287.07643,138.49476L288.27658,141.37507L293.31722,150.73606L294.27735,152.17622L
				295.95756,152.17622L296.43762,160.33709L297.15771,163.69744L297.8778,168.0179L299.55802,170.41816L301.95832,173.53849L305.55878,184.57967
				L303.87856,186.25985L300.03808,190.10026L302.91844,198.0211L298.83792,198.9812L298.35786,204.74182L298.11783,210.26241L297.8778,211.94259
				L296.67765,220.34348L295.23747,232.82481L292.3571,260.18773L302.19835,262.58798L300.27811,268.3486L298.35786,274.34924L297.15771,278.18964
				L295.95756,280.82993L294.75741,282.27008L293.79728,283.71023L292.11707,285.39041L290.43686,287.31062L290.19683,287.31062
				L288.03655,285.87046L283.716,282.75013L282.03579,284.67034L278.9154,289.23082L275.55497,293.31126L274.83488,290.43095L274.35482,288.75077
				L273.87476,286.83057L272.91463,286.83057L271.95451,288.27072L259.71296,302.91228L260.91311,308.19284L261.6332,309.87302L
				260.91311,310.83312L257.31265,314.91356L254.67232,318.75397L258.03275,321.63427L259.71296,322.8344L252.75208,330.75525L252.27201,331.71535
				L251.79195,333.1555L251.55192,334.59566L250.5918,344.4367L247.95147,343.95665L246.75131,344.67673L246.03122,345.87686L245.55116,346.83696
				L204.98601,332.1954L151.45922,312.5133L132.01675,305.79259L81.61036,287.31062L54.48692,277.70959L42.96545,273.38913L30.48387,268.82865
				L28.80366,268.10857L36.2446,253.70704L45.84582,236.42519L54.24688,222.02366L63.36804,207.14207L73.44932,192.98056L77.28981,188.6601
				L77.52984,188.42008L82.81051,184.09962L85.45084,181.93939L90.25145,175.4587L92.89179,170.17813L95.05206,162.25729L99.85267,154.57647
				L107.05359,143.77532L120.01523,126.73351L131.53669,113.05205L140.65785,101.77085L151.69925,89.28952L160.82041,79.20844L171.86181,66.96714
				L188.18388,50.6454L201.62559,37.20396L214.10717,26.16279L224.66851,15.60166L244.35101,-1.92021L262.59332,-17.76189L263.79348,-18.722
				L346.12392,-18.722z"/>
		</g>
</g></svg>