<?xml version="1.0" encoding="utf-8" standalone="no"?>
<!-- Creator: ESRI ArcMap 10.0.0.2414 -->
<!DOCTYPE svg PUBLIC "-//W3C//DTD SVG 1.1//EN"  "http://www.w3.org/Graphics/SVG/1.1/DTD/svg11.dtd">
<svg width="595.50236pt" height="595.50236pt" viewBox="25 148.377955 545.50236 545.50236" enable-background="new 25 148.377955 545.50236 545.50236"
	version="1.1" xmlns="http://www.w3.org/2000/svg" xmlns:xlink="http://www.w3.org/1999/xlink" >
	<g id="Couches">
		<g id="reservoirs">
			<clipPath id="SVG_CP_2">
				<path d="M574.39289,21.36228L21.36271,21.36228L21.36271,821.36753L574.39289,821.36753L574.39289,21.36228z"/>
			</clipPath>
			<path clip-path="url(#SVG_CP_2)" fill-opacity="0.08" fill="#2f4493" fill-rule="evenodd" stroke="#2f4493" stroke-width="1" stra="1.44018" stroke-miterlimit="10" stroke-linecap="round" stroke-linejoin="round" d="
				M-6.24079,716.71637L10.32131,711.67584L3.60046,694.394L12.00152,690.79361L22.32283,709.75563L26.64338,717.19643L44.8857,710.23568
				L44.16561,707.35538L44.16561,706.6353L49.44628,704.7151L51.84658,703.27494L51.60655,703.27494L43.20548,678.55231L43.92557,678.31228
				L53.28676,675.43198L61.68783,672.07162L67.68859,669.67136L72.72923,667.27111L81.1303,659.35026L85.69087,662.71062L90.97155,657.91011
				L96.01218,655.74988L107.77368,673.27174L122.65557,665.11088L110.89407,646.38888L123.85572,637.98799L128.65633,645.18875L
				148.33883,634.14758L150.4991,636.54783L175.22224,621.66625L185.54355,639.66816L186.02361,639.18811L193.70458,652.38952L217.4676,697.51433
				L222.74827,697.99438L227.30885,689.11343L237.63016,695.59412L244.35101,681.67264L230.9093,672.55167L220.82802,665.11088L
				226.82879,661.27047L222.26821,649.02916L221.54812,646.38888L220.10793,641.82839L218.90778,637.98799L220.58799,634.14758L
				223.22833,633.4275L232.10946,631.26727L226.34872,613.98543L224.42848,607.50474L227.54888,606.30461L219.62787,590.2229L243.15086,578.70167
				L246.99134,586.62251L254.67232,582.54208L264.51357,577.74157L266.67384,576.78146L270.99439,585.18236L309.63929,567.42047
				L300.75817,544.61804L355.96517,524.93594L346.12392,498.05307L354.28496,497.57302L362.92606,497.81305L368.20673,499.01318
				L378.52804,499.2532L386.68907,499.49323L395.33017,497.81305L405.89151,493.25256L409.01191,492.53249L424.37385,491.57238L
				433.97507,487.49195L444.05635,482.69144L453.41754,479.81113L472.37995,473.09041L487.98193,461.56919L498.06321,456.76867L
				510.06473,455.0885L531.42744,498.2931L534.30781,497.333L563.35149,482.69144L574.39289,505.97392L585.19426,521.81561L552.07006,535.97711
				L548.22957,537.41727L573.43277,589.50282L601.9964,575.34131L601.9964,861.21177L-6.24079,861.21177L-6.24079,716.71637z"/>
			<path clip-path="url(#SVG_CP_2)" fill-opacity="0.08" fill="#2f4493" fill-rule="evenodd" stroke="#2f4493" stroke-width="1" stra="1.44018" stroke-miterlimit="10" stroke-linecap="round" stroke-linejoin="round" d="
				M493.50263,-18.722L495.90293,-12.48133L496.86305,-3.36036L501.1836,4.08044L518.70583,18.722L590.47493,72.96778L540.30857,130.09386
				L525.66671,151.93619L518.70583,144.97545L509.8247,158.17686L494.22272,144.25537L477.42059,161.29719L464.939,148.57583L449.57705,188.18005
				L439.49577,206.18197L425.81404,214.82289L404.69136,239.3055L389.08938,249.86663L379.48816,253.46701L351.88466,249.14655L
				346.36396,243.38594L342.04341,236.66522L332.92225,222.02366L320.92073,229.46445L289.23671,256.10729L282.51585,255.38721L
				278.9154,259.9477L276.03503,263.78811L276.03503,272.42903L280.11555,274.34924L286.35634,280.10985L288.99668,280.34987L294.27735,280.82993
				L296.91768,283.95026L301.47826,289.47085L304.35862,292.8312L312.27963,293.07123L313.71981,300.99207L262.11326,339.63619L
				244.35101,350.67737L216.02742,358.11816L208.8265,360.99847L210.50671,364.59885L191.78434,378.04028L186.26364,373.23977L178.1026,363.87878
				L177.86257,362.91867L175.94233,355.47788L169.22148,349.95729L159.62026,349.95729L149.77901,342.03645L138.97764,337.47596
				L133.45694,335.31573L118.33502,333.63555L110.89407,342.75652L141.858,363.87878L118.09499,387.16126L119.7752,392.92187L105.13334,404.20307
				L105.37337,406.60333L101.29285,408.28351L102.97307,419.08466L93.85191,427.24553L91.69164,421.48491L80.4102,426.0454L79.93014,416.44438
				L73.92938,408.04348L69.84886,410.20371L63.12801,399.40256L65.52832,396.76228L43.92557,375.4L36.72466,383.56087L18.48235,403.24297
				L22.0828,407.56343L21.60274,408.28351L21.12268,408.76356L12.48158,419.56471L9.36119,423.16509L0.96012,422.20499L-5.04064,419.32468
				L-6.24079,418.36458L-6.24079,-18.722L493.50263,-18.722z"/>
		</g>
</g></svg>