<?xml version="1.0" encoding="utf-8" standalone="no"?>
<!-- Creator: ESRI ArcMap 10.0.0.2414 -->
<!DOCTYPE svg PUBLIC "-//W3C//DTD SVG 1.1//EN"  "http://www.w3.org/Graphics/SVG/1.1/DTD/svg11.dtd">
<svg width="595.50236pt" height="595.50236pt" viewBox="25 148.377955 545.50236 545.50236" enable-background="new 25 148.377955 545.50236 545.50236"
	version="1.1" xmlns="http://www.w3.org/2000/svg" xmlns:xlink="http://www.w3.org/1999/xlink" >
	<g id="Couches">
		<g id="reservoirs">
			<clipPath id="SVG_CP_2">
				<path d="M574.39289,21.36228L21.36271,21.36228L21.36271,821.36753L574.39289,821.36753L574.39289,21.36228z"/>
			</clipPath>
			<path clip-path="url(#SVG_CP_2)" fill-opacity="0.08" fill="#2f4493" fill-rule="evenodd" stroke="#2f4493" stroke-width="1" stra="1.44018" stroke-miterlimit="10" stroke-linecap="round" stroke-linejoin="round" d="
				M203.06577,368.43926L202.82574,369.15934L203.06577,369.39936L202.82574,370.11944L204.50595,370.59949L204.74598,369.15934
				L204.74598,369.39936L205.70611,369.63939L205.94614,368.43926L205.94614,367.71918L207.14629,368.19924L207.14629,368.43926
				L207.14629,369.63939L206.90626,371.07954L206.90626,374.67993L206.90626,377.32021L206.90626,379.00039L207.14629,380.20051
				L207.38632,380.92059L207.38632,382.36075L207.62635,383.8009L208.10641,385.00103L208.10641,385.96113L208.58647,387.64131L
				209.06653,389.56151L209.54659,391.48172L210.02665,392.68185L210.50671,395.0821L211.70687,399.16254L212.66699,402.76292L213.62711,406.84335
				L214.58723,410.68376L214.82726,411.16381L214.82726,411.40384L214.58723,412.84399L214.58723,415.00422L214.58723,416.20435
				L214.58723,416.44438L214.3472,417.16445L214.3472,418.12456L213.86714,420.04476L213.38708,421.72494L212.18693,425.0853L209.30656,423.88517
				L205.46607,421.96497L203.54583,421.00486L203.3058,422.92507L202.82574,422.68504L202.34568,422.92507L202.10565,422.92507L
				200.42544,422.92507L201.38556,418.84463L201.38556,417.40448L201.38556,417.16445L200.66547,415.00422L199.22528,410.44374L
				199.22528,410.20371L198.50519,408.52353L198.26516,407.56343L198.02513,406.12328L198.02513,405.88325L197.7851,404.68312L197.7851,403.72302
				L197.7851,403.483L198.02513,402.76292L198.26516,402.76292L199.22528,402.76292L200.1854,402.52289L200.1854,402.04284L200.1854,401.56279
				L200.1854,398.92251L200.1854,397.24233L201.38556,397.24233L201.62559,397.00231L201.62559,396.52225L201.86562,395.80218L202.34568,393.1619
				L203.06577,388.60141L203.06577,387.88133L203.06577,387.16126L204.74598,386.68121L204.50595,386.44118L204.50595,386.20115
				L204.50595,385.96113L204.26592,385.7211L204.02589,384.761L202.58571,385.24105L202.82574,386.44118L200.66547,386.92123L199.70534,387.16126
				L199.70534,386.92123L199.46531,384.04092L199.46531,382.60077L199.46531,380.92059L198.74522,377.56023L198.26516,377.32021
				L198.02513,377.32021L197.7851,377.08018L197.7851,376.84016L198.26516,375.88005L198.50519,375.64003L198.74522,375.15998L199.46531,374.4399
				L200.1854,373.95985L200.42544,373.4798L201.14553,373.4798L202.10565,373.95985L202.10565,373.23977L202.34568,372.99975L202.82574,372.27967
				L203.06577,372.03965L202.82574,372.03965L202.34568,371.79962L202.58571,371.55959L202.58571,371.31957L202.58571,370.83952
				L202.82574,370.11944L202.82574,369.39936L200.1854,368.91931L199.94537,369.39936L198.74522,369.15934L198.98525,367.95921L
				199.22528,367.47916L199.46531,365.79898L200.66547,366.03901L201.62559,366.51906L202.58571,366.75908L203.54583,366.99911L
				203.54583,367.23913L203.54583,367.47916L203.3058,367.71918L203.3058,368.19924L203.06577,368.43926z"/>
			<path clip-path="url(#SVG_CP_2)" fill-opacity="0.08" fill="#2f4493" fill-rule="evenodd" stroke="#2f4493" stroke-width="1" stra="1.44018" stroke-miterlimit="10" stroke-linecap="round" stroke-linejoin="round" d="
				M601.9964,449.56791L600.55621,447.16765L599.59609,447.16765L598.876,444.04732L598.15591,444.28734L596.47569,445.24745L594.07539,446.44757
				L589.75484,446.92763L589.99487,451.48811L591.91512,451.96816L592.15515,452.92826L593.3553,453.16829L593.11527,455.0885L588.07463,454.84847
				L582.55393,454.36842L581.59381,451.48811L579.67356,452.20819L579.43353,453.88837L577.51329,453.40832L577.03323,449.08786
				L576.07311,449.56791L574.39289,445.96752L575.59304,445.48747L575.35301,442.84719L570.31237,443.08722L570.07234,444.28734
				L573.19274,444.52737L573.6728,452.92826L568.39213,451.72814L568.39213,450.28798L560.95119,448.84783L557.59076,448.12775L
				557.35073,446.20755L556.39061,442.36714L554.23033,442.60717L554.23033,444.52737L554.23033,445.48747L554.23033,445.7275L554.47036,448.84783
				L549.66976,449.32788L545.82927,449.80793L545.58924,447.6477L541.26869,447.40768L541.26869,450.28798L535.74799,447.6477L541.02866,440.44693
				L539.10841,437.3266L541.98878,432.52609L535.50796,429.40576L532.38756,426.76548L525.66671,421.96497L520.62607,419.56471L
				520.62607,417.40448L515.10537,418.36458L511.98497,417.40448L511.98497,421.48491L513.66519,423.16509L513.66519,425.0853L510.30476,424.1252
				L506.7043,422.68504L505.26412,422.44502L504.54403,420.76484L502.14372,420.76484L500.46351,417.88453L500.46351,415.24425L
				499.50339,411.40384L498.54327,409.96369L499.02333,406.60333L493.74266,405.4032L493.02257,407.80346L493.2626,407.80346L495.18284,408.04348
				L497.34311,412.84399L496.86305,413.32404L497.34311,416.6844L499.02333,416.44438L499.26336,421.00486L497.10308,422.44502L
				496.38299,424.60525L492.78254,426.52545L491.34235,422.20499L489.66214,422.68504L487.50187,423.40512L490.1422,427.72558L491.58238,427.48555
				L492.54251,429.16573L489.42211,430.60589L485.58162,431.56599L482.46123,433.96624L479.82089,435.4064L475.02028,436.84655L
				471.65986,438.2867L464.45894,441.64706L459.89836,443.80729L455.33778,445.48747L451.4973,446.20755L447.89684,445.7275L446.93672,442.12711
				L444.29638,441.64706L443.57629,439.24681L441.65605,439.96688L441.17599,438.76676L438.05559,438.76676L437.09547,438.76676
				L435.65529,440.44693L435.65529,440.68696L435.41526,441.64706L435.41526,443.56727L435.41526,444.04732L429.89456,447.6477L
				423.1737,451.24809L420.29334,451.96816L418.85315,452.20819L417.89303,452.44821L417.653,451.24809L408.77187,452.68824L408.77187,453.64834
				L402.53108,455.56855L398.21053,457.0087L394.37005,455.56855L391.24965,453.40832L392.68983,452.20819L386.9291,446.20755L381.16837,442.12711
				L374.92758,439.00678L377.08785,436.12647L374.20749,434.92635L372.04721,432.52609L366.76654,429.16573L365.32636,423.64514
				L361.48587,419.08466L362.446,417.40448L362.446,416.44438L362.92606,415.7243L362.446,412.60397L365.32636,410.68376L364.60627,407.08338
				L362.20597,408.52353L361.96594,405.4032L400.37081,359.31829L405.41145,353.55768L407.33169,351.39745L407.57172,351.15742L
				409.97203,350.19732L411.89227,351.39745L412.61236,350.67737L412.37233,350.19732L412.61236,349.95729L413.81251,349.47724L
				414.77264,348.75716L413.33245,346.83696L414.53261,345.87686L416.93291,348.75716L419.33322,347.07699L420.05331,348.03709L
				419.09318,348.75716L420.7734,350.91739L421.73352,350.43734L422.69364,351.63747L424.13382,353.55768L421.73352,354.99783L424.37385,358.35819
				L426.2941,360.99847L428.21434,359.31829L430.61465,357.87814L429.41449,356.43798L427.49425,357.87814L425.57401,354.99783L
				425.09395,354.51778L425.09395,354.27775L427.25422,353.07762L427.97431,354.03773L428.6944,353.7977L427.97431,352.59757L429.41449,351.8775
				L429.65452,352.8376L430.37462,352.59757L429.89456,351.63747L435.65529,348.27711L436.37538,349.71727L439.25574,348.27711L
				438.29562,346.83696L439.25574,346.11688L440.4559,347.79706L441.89608,346.83696L440.93596,345.15678L446.21663,342.27647L448.85696,340.83632
				L452.45742,338.67609L453.17751,340.35627L454.85772,339.15614L456.29791,341.5564L456.77797,341.07635L458.45818,343.71663L
				460.85848,341.31637L460.13839,339.15614L458.45818,335.07571L458.93824,334.59566L460.13839,333.63555L460.85848,332.67545L
				461.81861,331.71535L462.29867,330.99527L463.25879,329.79514L463.97888,330.75525L465.41906,330.03517L466.85925,331.47532L
				467.09928,331.71535L469.25955,330.27519L470.93976,328.59502L470.69973,327.39489L472.13992,326.19476L472.61998,325.71471L
				474.78025,323.31445L477.66062,320.67417L478.14068,319.9541L478.62074,320.9142L479.58086,322.11433L480.30095,323.07443L480.30095,323.55448
				L480.54098,324.51458L481.5011,327.87494L481.74113,328.35499L481.98117,328.59502L482.2212,329.31509L483.18132,331.71535L484.86153,336.75589
				L484.86153,337.23594L484.86153,337.71599L484.38147,338.91612L485.10156,339.63619L488.22196,337.47596L490.62226,335.79578
				L496.14296,331.95537L497.82318,330.75525L501.42363,328.11496L501.90369,327.87494L502.86382,327.87494L503.34388,327.87494
				L503.34388,327.63491L503.58391,326.91484L503.82394,326.43479L504.06397,325.95473L506.46427,324.03453L508.62455,322.11433
				L511.02485,319.71407L511.50491,320.43415L512.225,319.47404L511.50491,318.99399L512.94509,317.31381L514.14525,318.51394L515.82546,316.59374
				L514.62531,315.39361L515.82546,313.71343L516.30552,314.19348L516.78558,313.4734L517.50567,313.95346L517.7457,314.19348L518.22576,313.23338
				L517.98573,312.99335L518.4658,312.75333L517.26564,311.79323L512.46503,308.43287L514.62531,305.79259L513.66519,305.07251L
				511.26488,307.71279L508.14449,305.55256L503.82394,302.43223L499.74342,299.79195L495.18284,296.43159L494.94281,296.19156L
				495.42287,295.23146L496.62302,295.71151L497.10308,295.23146L497.82318,293.79131L495.6629,292.59118L496.14296,291.15103L497.58315,284.67034
				L498.30324,281.06995L498.54327,280.34987L498.7833,279.86982L499.02333,279.14975L499.26336,278.90972L500.70354,277.70959L
				502.38375,276.26944L503.58391,277.46957L504.304,276.50947L503.34388,275.54936L505.50415,273.62916L506.46427,274.34924L507.90446,273.38913
				L507.18436,272.42903L509.8247,270.02877L511.02485,271.2289L511.50491,270.50883L510.54479,269.3087L511.74494,268.10857L513.66519,269.54872
				L516.30552,266.42839L514.62531,265.22826L515.58543,264.02814L516.78558,264.74821L517.7457,263.78811L516.78558,262.82801L
				517.98573,261.38785L518.70583,262.10793L519.66595,261.62788L518.4658,260.66778L519.42592,259.70768L522.78634,255.62724L526.14677,251.78683
				L527.10689,252.74693L528.06701,251.54681L527.34692,250.82673L528.06701,249.86663L528.54707,249.6266L533.10765,253.70704L
				535.74799,256.10729L537.4282,257.78747L536.94814,258.0275L536.94814,258.26752L537.18817,258.50755L537.18817,258.74757L536.70811,258.9876
				L538.14829,260.9078L539.10841,259.9477L539.58848,259.70768L541.02866,261.14783L540.30857,262.10793L539.10841,262.82801L538.14829,263.54808
				L540.78863,266.66842L543.42896,264.50819L544.14905,264.02814L549.66976,268.82865L553.9903,264.50819L558.55088,259.70768L
				560.95119,262.10793L563.35149,259.70768L563.59152,259.22762L563.35149,258.9876L568.39213,255.14719L567.43201,254.42711L577.27326,246.98632
				L577.51329,250.34668L581.59381,248.90652L586.39442,247.46637L588.55469,246.74629L593.83536,244.58606L595.51557,247.94642
				L593.3553,248.6665L593.83536,250.10665L595.51557,249.6266L595.7556,249.86663L597.91588,249.14655L597.67585,248.90652L598.15591,248.6665
				L597.67585,246.74629L595.51557,247.94642L595.51557,247.7064L595.51557,247.94642L594.07539,244.58606L594.31542,244.34604L
				598.876,242.66586L599.11603,242.66586L600.31618,245.54617L601.75637,244.82609L601.9964,244.58606L601.9964,449.56791z"/>
		</g>
</g></svg>