<?xml version="1.0" encoding="utf-8" standalone="no"?>
<!-- Creator: ESRI ArcMap 10.0.0.2414 -->
<!DOCTYPE svg PUBLIC "-//W3C//DTD SVG 1.1//EN"  "http://www.w3.org/Graphics/SVG/1.1/DTD/svg11.dtd">
<svg width="595.50236pt" height="595.50236pt" viewBox="25 148.377955 545.50236 545.50236" enable-background="new 25 148.377955 545.50236 545.50236"
	version="1.1" xmlns="http://www.w3.org/2000/svg" xmlns:xlink="http://www.w3.org/1999/xlink" >
	<g id="Couches">
		<g id="cont_2">
			<path clip-path="url(#SVG_CP_2)" fill="none" stroke="#999999" stroke-width="0.96012" stroke-miterlimit="10" stroke-linecap="round" stroke-linejoin="round" d="
				M227.30885,350.91739L229.70915,350.91739L229.70915,352.11752L232.34949,352.11752L232.34949,353.31765L236.18997,353.31765
				L236.18997,354.51778L237.39013,354.51778L237.39013,350.91739L236.18997,350.91739L236.18997,345.63683L234.98982,345.63683
				L234.98982,339.39617L233.54964,339.39617L233.54964,334.35563L232.34949,334.35563L232.34949,329.31509L231.14933,329.31509
				L231.14933,324.27456L227.30885,324.27456L227.30885,322.8344L223.46836,322.8344L223.46836,321.63427L219.62787,321.63427L219.62787,320.43415
				L217.22757,320.43415L217.22757,319.23402L213.38708,319.23402L213.38708,317.79386L209.54659,317.79386L209.54659,316.59374
				L205.70611,316.59374L205.70611,315.39361L203.3058,315.39361L203.3058,314.19348L199.46531,314.19348L199.46531,312.75333L195.62483,312.75333
				L195.62483,311.5532L191.78434,311.5532L191.78434,310.35307L187.94385,310.35307L187.94385,308.91292L185.54355,308.91292L185.54355,307.71279
				L181.70306,307.71279L181.70306,306.51266L177.86257,306.51266L177.86257,305.31253L174.02208,305.31253L174.02208,303.87238
				L171.62178,303.87238L171.62178,302.67225L167.78129,302.67225L167.78129,301.47213L163.94081,301.47213L163.94081,300.03197
				L160.10032,300.03197L160.10032,298.83184L156.49986,298.83184L156.49986,297.63172L153.85953,297.63172L153.85953,296.43159
				L150.01904,296.43159L150.01904,294.99144L146.17855,294.99144L146.17855,293.79131L142.33806,293.79131L142.33806,292.59118
				L139.93776,292.59118L139.93776,291.39105L136.09727,291.39105L136.09727,289.9509L132.25678,289.9509L132.25678,288.75077L128.4163,288.75077
				L128.4163,287.55064L124.81584,287.55064L124.81584,286.11049L120.97535,286.11049L120.97535,284.91036L117.13487,284.91036L
				117.13487,283.71023L113.29438,283.71023L113.29438,282.51011L109.45389,282.51011L109.45389,281.06995L105.6134,281.06995L105.6134,279.86982
				L102.01295,279.86982L102.01295,278.6697L98.17246,278.6697L98.17246,277.46957L94.33197,277.46957L94.33197,276.02941L90.49148,276.02941
				L90.49148,274.82929L86.651,274.82929L86.651,273.62916L83.05054,273.62916L83.05054,272.18901L79.21005,272.18901L79.21005,270.98888
				L75.36957,270.98888L75.36957,269.78875L71.52908,269.78875L71.52908,268.58862L67.68859,268.58862L67.68859,267.14847L63.8481,267.14847
				L63.8481,265.94834L60.24765,265.94834L60.24765,264.74821L56.40716,264.74821L56.40716,263.30806L52.56667,263.30806L52.56667,262.10793
				L48.72618,262.10793L48.72618,260.9078L43.68554,260.9078L43.68554,259.70768L39.84506,259.70768L39.84506,258.26752L36.00457,258.26752
				L36.00457,257.06739L32.40411,257.06739L32.40411,255.86727L28.56363,255.86727L28.56363,254.66714L23.52299,254.66714L23.52299,253.22698
				L19.6825,253.22698L19.6825,252.02686L15.84201,252.02686L15.84201,250.82673L12.00152,250.82673L12.00152,249.38658L8.16104,249.38658
				L8.16104,248.18645L3.1204,248.18645L3.1204,246.98632L-0.72009,246.98632L-0.72009,245.78619L-4.32055,245.78619L-4.32055,244.34604
				L-6.24079,244.34604M-6.24079,183.61957L-3.1204,183.61957L-3.1204,184.8197L0.72009,184.8197L0.72009,186.25985L4.32055,186.25985
				L4.32055,187.45998L8.16104,187.45998L8.16104,188.6601L12.00152,188.6601L12.00152,190.10026L15.84201,190.10026L15.84201,191.30039
				L18.24232,191.30039L18.24232,192.50051L20.88265,192.50051L20.88265,193.70064L23.52299,193.70064L23.52299,195.14079L24.72314,195.14079
				L24.72314,196.34092L25.92329,196.34092L25.92329,197.54105L28.56363,197.54105L28.56363,198.74118L30.96393,198.74118L30.96393,200.18133
				L48.72618,200.18133L48.72618,201.38146L66.48844,201.38146L66.48844,202.58159L75.36957,202.58159L75.36957,204.02174L95.53212,204.02174
				L95.53212,205.22187L109.45389,205.22187L109.45389,206.422L117.13487,206.422L117.13487,205.22187L118.33502,205.22187L118.33502,206.422
				L122.1755,206.422L122.1755,207.62212L124.81584,207.62212L124.81584,209.06228L128.4163,209.06228L128.4163,210.26241L131.05663,210.26241
				L131.05663,211.46253L134.89712,211.46253L134.89712,212.66266L138.73761,212.66266L138.73761,214.10282L143.77825,214.10282
				L143.77825,215.30294L150.01904,215.30294L150.01904,214.10282L151.21919,214.10282L151.21919,215.30294L156.49986,215.30294
				L156.49986,216.50307L158.90017,216.50307L158.90017,217.94322L161.5405,217.94322L161.5405,219.14335L165.14096,219.14335L165.14096,220.34348
				L167.78129,220.34348L167.78129,221.54361L171.62178,221.54361L171.62178,222.98376L174.02208,222.98376L174.02208,224.18389
				L176.66242,224.18389L176.66242,225.38402L180.50291,225.38402L180.50291,226.82417L182.90321,226.82417L182.90321,228.0243L
				186.7437,228.0243L186.7437,229.22443L189.38403,229.22443L189.38403,230.42455L191.78434,230.42455L191.78434,231.86471L195.62483,231.86471
				L195.62483,233.06484L198.26516,233.06484L198.26516,234.26496L201.86562,234.26496L201.86562,235.46509L204.50595,235.46509
				L204.50595,236.90525L208.34644,236.90525L208.34644,240.74565L209.54659,240.74565L209.54659,243.14591L212.18693,243.14591
				L212.18693,244.34604L213.38708,244.34604L213.38708,245.78619L218.42772,245.78619L218.42772,244.34604L221.06805,244.34604
				L221.06805,243.14591L223.46836,243.14591L223.46836,241.94578L226.10869,241.94578L226.10869,240.74565L229.70915,240.74565
				L229.70915,239.3055L234.98982,239.3055L234.98982,238.10537L238.59028,238.10537L238.59028,236.90525L243.87095,236.90525L243.87095,235.46509
				L246.27125,235.46509L246.27125,234.26496L248.91159,234.26496L248.91159,233.06484L251.31189,233.06484L251.31189,231.86471
				L253.95223,231.86471L253.95223,230.42455L256.35253,230.42455L256.35253,229.22443L258.99287,229.22443L258.99287,228.0243L
				262.83335,228.0243L262.83335,226.82417L265.23366,226.82417L265.23366,225.38402L269.07415,225.38402L269.07415,224.18389L271.71448,224.18389
				L271.71448,222.98376L275.31494,222.98376L275.31494,221.54361L277.95527,221.54361L277.95527,220.34348L281.79576,220.34348
				L281.79576,219.14335L288.03655,219.14335L288.03655,217.94322L301.95832,217.94322L301.95832,216.50307L323.56106,216.50307
				L323.56106,215.30294L327.40155,215.30294L327.40155,216.50307L339.88313,216.50307L339.88313,217.94322L343.72362,217.94322
				L343.72362,219.14335L346.36396,219.14335L346.36396,220.34348L350.20444,220.34348L350.20444,221.54361L353.8049,221.54361L
				353.8049,222.98376L357.64539,222.98376L357.64539,224.18389L361.48587,224.18389L361.48587,225.38402L364.12621,225.38402L364.12621,226.82417
				L367.9667,226.82417L367.9667,228.0243L370.367,228.0243L370.367,229.22443L374.20749,229.22443L374.20749,230.42455L376.60779,230.42455
				L376.60779,231.86471L379.24813,231.86471L379.24813,233.06484L381.88846,233.06484L381.88846,234.26496L385.48892,234.26496
				L385.48892,235.46509L388.12926,235.46509L388.12926,236.90525L390.52956,236.90525L390.52956,238.10537L394.37005,238.10537
				L394.37005,239.3055L397.01038,239.3055L397.01038,240.74565L399.41069,240.74565L399.41069,241.94578L400.85087,241.94578L400.85087,243.14591
				L402.05102,243.14591L402.05102,244.34604L403.25117,244.34604L403.25117,245.78619L404.69136,245.78619L404.69136,246.98632
				L407.09166,246.98632L407.09166,248.18645L408.29181,248.18645L408.29181,249.38658L409.732,249.38658L409.732,250.82673L410.93215,250.82673
				L410.93215,252.02686L412.1323,252.02686L412.1323,253.22698L414.77264,253.22698L414.77264,254.66714L415.97279,254.66714L415.97279,255.86727
				L417.17294,255.86727L417.17294,257.06739L418.61312,257.06739L418.61312,258.26752L421.01343,258.26752L421.01343,259.70768
				L422.21358,259.70768L422.21358,260.9078L423.65376,260.9078L423.65376,262.10793L426.05407,262.10793L426.05407,263.30806L429.89456,263.30806
				L429.89456,264.74821L432.53489,264.74821L432.53489,265.94834L434.9352,265.94834L434.9352,267.14847L437.57553,267.14847L437.57553,268.58862
				L441.41602,268.58862L441.41602,269.78875L443.81632,269.78875L443.81632,270.98888L447.65681,270.98888L447.65681,272.18901
				L457.73809,272.18901L457.73809,273.62916L462.77873,273.62916L462.77873,274.82929L466.61922,274.82929L466.61922,276.02941
				L471.65986,276.02941L471.65986,277.46957L476.7005,277.46957L476.7005,278.6697L481.74113,278.6697L481.74113,279.86982L485.58162,279.86982
				L485.58162,281.06995L489.42211,281.06995L489.42211,282.51011L493.2626,282.51011L493.2626,283.71023L497.10308,283.71023L497.10308,284.91036
				L499.50339,284.91036L499.50339,286.11049L502.14372,286.11049L502.14372,287.55064L505.98421,287.55064L505.98421,288.75077
				L508.38452,288.75077L508.38452,289.9509L512.225,289.9509L512.225,291.39105L514.62531,291.39105L514.62531,292.59118L517.26564,292.59118
				L517.26564,293.79131L521.10613,293.79131L521.10613,294.99144L524.94662,294.99144L524.94662,296.43159L527.34692,296.43159
				L527.34692,297.63172L529.98726,297.63172L529.98726,298.83184L532.38756,298.83184L532.38756,300.03197L535.0279,300.03197L
				535.0279,301.47213L537.4282,301.47213L537.4282,302.67225L541.26869,302.67225L541.26869,303.87238L542.70887,303.87238L542.70887,305.31253
				L545.10918,305.31253L545.10918,306.51266L547.74951,306.51266L547.74951,307.71279L551.34997,307.71279L551.34997,308.91292
				L553.9903,308.91292L553.9903,310.35307L556.63064,310.35307L556.63064,311.5532L559.03094,311.5532L559.03094,312.75333L561.67128,312.75333
				L561.67128,314.19348L565.51177,314.19348L565.51177,315.39361L567.91207,315.39361L567.91207,316.59374L571.75256,316.59374
				L571.75256,317.79386L574.15286,317.79386L574.15286,316.59374L581.83384,316.59374L581.83384,315.39361L586.87448,315.39361
				L586.87448,314.19348L600.79624,314.19348L600.79624,315.39361L601.9964,315.39361M601.9964,363.39872L596.95576,363.39872L596.95576,364.83888
				L591.91512,364.83888L591.91512,366.03901L586.87448,366.03901L586.87448,367.23913L577.99335,367.23913L577.99335,368.43926
				L571.75256,368.43926L571.75256,369.87942L567.91207,369.87942L567.91207,371.07954L565.51177,371.07954L565.51177,372.27967
				L561.67128,372.27967L561.67128,373.4798L555.19046,373.4798L555.19046,374.91995L550.14982,374.91995L550.14982,376.12008L543.90902,376.12008
				L543.90902,377.32021L540.06854,377.32021L540.06854,378.76036L536.22805,378.76036L536.22805,379.96049L531.18741,379.96049
				L531.18741,381.16062L526.14677,381.16062L526.14677,382.36075L521.10613,382.36075L521.10613,383.8009L516.06549,383.8009L516.06549,385.00103
				L512.225,385.00103L512.225,386.20115L509.58467,386.20115L509.58467,387.40128L505.98421,387.40128L505.98421,388.84144L502.14372,388.84144
				L502.14372,390.04156L498.30324,390.04156L498.30324,391.24169L497.10308,391.24169L497.10308,392.68185L494.46275,392.68185
				L494.46275,393.88197L492.06244,393.88197L492.06244,395.0821L489.42211,395.0821L489.42211,396.28223L486.78177,396.28223L486.78177,397.72238
				L484.38147,397.72238L484.38147,398.92251L483.18132,398.92251L483.18132,400.12264L480.54098,400.12264L480.54098,401.56279
				L477.90065,401.56279L477.90065,402.76292L476.7005,402.76292L476.7005,403.96305L474.30019,403.96305L474.30019,405.16318L472.86001,405.16318
				L472.86001,406.60333L470.4597,406.60333L470.4597,407.80346L467.81937,407.80346L467.81937,409.00358L466.61922,409.00358L466.61922,410.20371
				L463.97888,410.20371L463.97888,411.64387L461.57858,411.64387L461.57858,412.84399L460.37842,412.84399L460.37842,414.04412
				L457.73809,414.04412L457.73809,415.48427L455.33778,415.48427L455.33778,416.6844L453.8976,416.6844L453.8976,417.88453L451.4973,417.88453
				L451.4973,419.08466L450.05711,419.08466L450.05711,420.52481L447.65681,420.52481L447.65681,421.72494L446.45666,421.72494L
				446.45666,422.92507L443.81632,422.92507L443.81632,424.1252L442.61617,424.1252L442.61617,425.56535L439.97583,425.56535L439.97583,426.76548
				L438.77568,426.76548L438.77568,427.9656L437.57553,427.9656L437.57553,429.40576L436.13535,429.40576L436.13535,430.60589L434.9352,430.60589
				L434.9352,431.80601L433.73504,431.80601L433.73504,434.4463L432.53489,434.4463L432.53489,435.64642L431.09471,435.64642L431.09471,436.84655
				L429.89456,436.84655L429.89456,438.2867L428.6944,438.2867L428.6944,439.48683L427.25422,439.48683L427.25422,440.68696L426.05407,440.68696
				L426.05407,441.88709L424.85392,441.88709L424.85392,443.32724L423.65376,443.32724L423.65376,444.52737L421.01343,444.52737
				L421.01343,445.7275L419.81328,445.7275L419.81328,446.92763L417.17294,446.92763L417.17294,448.36778L414.77264,448.36778L414.77264,449.56791
				L412.1323,449.56791L412.1323,450.76803L409.732,450.76803L409.732,452.20819L407.09166,452.20819L407.09166,453.40832L403.25117,453.40832
				L403.25117,454.60844L400.85087,454.60844L400.85087,455.80857L398.21053,455.80857L398.21053,457.24873L394.37005,457.24873
				L394.37005,458.44885L391.96974,458.44885L391.96974,459.64898L388.12926,459.64898L388.12926,460.84911L384.28877,460.84911
				L384.28877,462.28926L381.88846,462.28926L381.88846,463.48939L378.04798,463.48939L378.04798,464.68952L375.40764,464.68952
				L375.40764,466.12967L371.56715,466.12967L371.56715,467.3298L367.9667,467.3298L367.9667,468.52993L365.32636,468.52993L365.32636,469.73006
				L361.48587,469.73006L361.48587,475.01062L362.68603,475.01062L362.68603,480.05116L364.12621,480.05116L364.12621,483.65154
				L365.32636,483.65154L365.32636,485.09169L361.48587,485.09169L361.48587,486.29182L356.44523,486.29182L356.44523,487.49195
				L351.40459,487.49195L351.40459,488.9321L346.36396,488.9321L346.36396,485.09169L345.1638,485.09169L345.1638,481.25128L343.72362,481.25128
				L343.72362,476.21075L341.32332,476.21075L341.32332,477.41087L338.68298,477.41087L338.68298,478.611L336.28268,478.611L336.28268,480.05116
				L333.64234,480.05116L333.64234,483.65154L332.44219,483.65154L332.44219,486.29182L331.24204,486.29182L331.24204,488.9321L
				329.80185,488.9321L329.80185,492.53249L328.6017,492.53249L328.6017,495.17277L327.40155,495.17277L327.40155,497.57302L325.96137,497.57302
				L325.96137,501.41343L324.76121,501.41343L324.76121,504.05371L323.56106,504.05371L323.56106,506.45397L322.36091,506.45397
				L322.36091,507.89412L306.99896,507.89412L306.99896,509.09425L303.15847,509.09425L303.15847,505.25384L301.95832,505.25384
				L301.95832,497.57302L300.75817,497.57302L300.75817,491.33236L299.55802,491.33236L299.55802,483.65154L296.91768,483.65154
				L296.91768,485.09169L290.67689,485.09169L290.67689,486.29182L277.95527,486.29182L277.95527,487.49195L267.87399,487.49195
				L267.87399,488.9321L258.99287,488.9321L258.99287,490.13223L251.31189,490.13223L251.31189,491.33236L228.509,491.33236L228.509,475.01062
				L227.30885,475.01062L227.30885,350.91739"/>
			<path clip-path="url(#SVG_CP_2)" fill="none" stroke="#999999" stroke-width="0.96012" stroke-miterlimit="10" stroke-linecap="round" stroke-linejoin="round" d="
				M227.30885,350.91739L226.10869,350.91739L226.10869,483.65154L227.30885,483.65154L227.30885,492.53249L176.66242,492.53249
				L176.66242,493.97264L168.98144,493.97264L168.98144,495.17277L162.74065,495.17277L162.74065,496.37289L155.05968,496.37289
				L155.05968,497.57302L148.81889,497.57302L148.81889,499.01318L141.13791,499.01318L141.13791,500.2133L134.89712,500.2133L134.89712,501.41343
				L127.21614,501.41343L127.21614,502.85359L120.97535,502.85359L120.97535,504.05371L114.49453,504.05371L114.49453,505.25384
				L108.25374,505.25384L108.25374,506.45397L102.01295,506.45397L102.01295,507.89412L93.13182,507.89412L93.13182,509.09425L84.25069,509.09425
				L84.25069,510.29438L75.36957,510.29438L75.36957,511.73453L72.72923,511.73453L72.72923,512.93466L41.04521,512.93466L41.04521,514.13479
				L42.48539,514.13479L42.48539,516.77507L43.68554,516.77507L43.68554,517.9752L44.8857,517.9752L44.8857,520.37545L46.32588,520.37545
				L46.32588,521.81561L47.52603,521.81561L47.52603,523.01573L48.72618,523.01573L48.72618,525.65601L49.92634,525.65601L49.92634,526.85614
				L51.36652,526.85614L51.36652,529.2564L52.56667,529.2564L52.56667,530.69655L53.76682,530.69655L53.76682,533.09681L54.96698,533.09681
				L54.96698,534.29694L56.40716,534.29694L56.40716,535.73709L57.60731,535.73709L57.60731,538.13734L58.80746,538.13734L58.80746,539.5775
				L60.24765,539.5775L60.24765,541.97775L61.4478,541.97775L61.4478,543.17788L62.64795,543.17788L62.64795,545.81816L63.8481,545.81816
				L63.8481,547.01829L65.28829,547.01829L65.28829,548.21842L66.48844,548.21842L66.48844,550.8587L67.68859,550.8587L67.68859,552.05883
				L68.88874,552.05883L68.88874,554.69911L70.32893,554.69911L70.32893,555.89924L71.52908,555.89924L71.52908,557.09937L72.72923,557.09937
				L72.72923,558.53952L71.52908,558.53952L71.52908,559.73965L68.88874,559.73965L68.88874,560.93977L67.68859,560.93977L67.68859,562.37993
				L65.28829,562.37993L65.28829,563.58006L63.8481,563.58006L63.8481,564.78018L61.4478,564.78018L61.4478,565.98031L60.24765,565.98031
				L60.24765,567.42047L57.60731,567.42047L57.60731,568.62059L56.40716,568.62059L56.40716,569.82072L53.76682,569.82072L53.76682,571.02085
				L52.56667,571.02085L52.56667,572.461L49.92634,572.461L49.92634,573.66113L48.72618,573.66113L48.72618,574.86126L46.32588,574.86126
				L46.32588,576.30141L44.8857,576.30141L44.8857,577.50154L42.48539,577.50154L42.48539,578.70167L41.04521,578.70167L41.04521,579.9018
				L38.6449,579.9018L38.6449,581.34195L37.44475,581.34195L37.44475,582.54208L34.80442,582.54208L34.80442,583.7422L33.60426,583.7422
				L33.60426,584.94233L30.96393,584.94233L30.96393,586.38249L29.76378,586.38249L29.76378,587.58261L27.12344,587.58261L27.12344,588.78274
				L25.92329,588.78274L25.92329,590.2229L23.52299,590.2229L23.52299,591.42302L22.0828,591.42302L22.0828,592.62315L19.6825,592.62315
				L19.6825,593.82328L18.24232,593.82328L18.24232,595.26343L15.84201,595.26343L15.84201,596.46356L-6.24079,596.46356M-6.24079,540.77763
				L-5.76073,540.77763L-5.76073,539.5775L-3.1204,539.5775L-3.1204,538.13734L0.72009,538.13734L0.72009,536.93722L1.92024,536.93722
				L1.92024,535.73709L0.72009,535.73709L0.72009,533.09681L-1.92024,533.09681L-1.92024,531.89668L-3.1204,531.89668L-3.1204,530.69655
				L-4.32055,530.69655L-4.32055,529.2564L-5.76073,529.2564L-5.76073,528.05627L-6.24079,528.05627M-6.24079,255.86727L1.92024,255.86727
				L1.92024,257.06739L5.76073,257.06739L5.76073,258.26752L8.16104,258.26752L8.16104,259.70768L12.00152,259.70768L12.00152,260.9078
				L14.64186,260.9078L14.64186,262.10793L18.24232,262.10793L18.24232,263.30806L20.88265,263.30806L20.88265,264.74821L24.72314,264.74821
				L24.72314,265.94834L28.56363,265.94834L28.56363,267.14847L30.96393,267.14847L30.96393,268.58862L34.80442,268.58862L34.80442,269.78875
				L37.44475,269.78875L37.44475,270.98888L41.04521,270.98888L41.04521,272.18901L43.68554,272.18901L43.68554,273.62916L47.52603,273.62916
				L47.52603,274.82929L49.92634,274.82929L49.92634,276.02941L53.76682,276.02941L53.76682,277.46957L56.40716,277.46957L56.40716,278.6697
				L60.24765,278.6697L60.24765,279.86982L63.8481,279.86982L63.8481,281.06995L66.48844,281.06995L66.48844,282.51011L70.32893,282.51011
				L70.32893,283.71023L72.72923,283.71023L72.72923,284.91036L76.56972,284.91036L76.56972,286.11049L79.21005,286.11049L79.21005,287.55064
				L83.05054,287.55064L83.05054,288.75077L85.45084,288.75077L85.45084,289.9509L89.29133,289.9509L89.29133,291.39105L93.13182,291.39105
				L93.13182,292.59118L95.53212,292.59118L95.53212,293.79131L99.37261,293.79131L99.37261,294.99144L102.01295,294.99144L102.01295,296.43159
				L105.6134,296.43159L105.6134,297.63172L108.25374,297.63172L108.25374,298.83184L112.09423,298.83184L112.09423,300.03197L114.49453,300.03197
				L114.49453,301.47213L118.33502,301.47213L118.33502,302.67225L120.97535,302.67225L120.97535,303.87238L123.37566,303.87238
				L123.37566,305.31253L127.21614,305.31253L127.21614,306.51266L129.85648,306.51266L129.85648,307.71279L132.25678,307.71279
				L132.25678,308.91292L134.89712,308.91292L134.89712,310.35307L138.73761,310.35307L138.73761,311.5532L141.13791,311.5532L141.13791,312.75333
				L143.77825,312.75333L143.77825,314.19348L146.17855,314.19348L146.17855,315.39361L150.01904,315.39361L150.01904,316.59374
				L152.65937,316.59374L152.65937,317.79386L155.05968,317.79386L155.05968,319.23402L158.90017,319.23402L158.90017,320.43415
				L161.5405,320.43415L161.5405,321.63427L163.94081,321.63427L163.94081,322.8344L166.58114,322.8344L166.58114,324.27456L170.42163,324.27456
				L170.42163,325.47468L172.82193,325.47468L172.82193,326.67481L175.46227,326.67481L175.46227,328.11496L177.86257,328.11496
				L177.86257,329.31509L181.70306,329.31509L181.70306,330.51522L184.34339,330.51522L184.34339,331.71535L186.7437,331.71535L
				186.7437,333.1555L189.38403,333.1555L189.38403,334.35563L192.98449,334.35563L192.98449,335.55576L195.62483,335.55576L195.62483,336.75589
				L198.26516,336.75589L198.26516,338.19604L200.66547,338.19604L200.66547,339.39617L204.50595,339.39617L204.50595,340.59629
				L207.14629,340.59629L207.14629,342.03645L209.54659,342.03645L209.54659,343.23658L212.18693,343.23658L212.18693,344.4367L
				215.78738,344.4367L215.78738,345.63683L218.42772,345.63683L218.42772,347.07699L221.06805,347.07699L221.06805,348.27711L224.66851,348.27711
				L224.66851,349.47724L227.30885,349.47724L227.30885,350.91739"/>
			<path clip-path="url(#SVG_CP_2)" fill="none" stroke="#999999" stroke-width="0.96012" stroke-miterlimit="10" stroke-linecap="round" stroke-linejoin="round" d="
				M258.99287,794.00461L258.99287,792.80448L260.19302,792.80448L260.19302,791.36433L261.39317,791.36433L261.39317,790.1642L
				262.83335,790.1642L262.83335,788.96407L264.03351,788.96407L264.03351,787.76395L265.23366,787.76395L265.23366,786.32379L267.87399,786.32379
				L267.87399,785.12366L269.07415,785.12366L269.07415,783.92354L270.2743,783.92354L270.2743,782.48338L271.71448,782.48338L271.71448,781.28325
				L272.91463,781.28325L272.91463,780.08313L274.11479,780.08313L274.11479,778.883L276.75512,778.883L276.75512,777.44285L279.15543,777.44285
				L279.15543,776.24272L281.79576,776.24272L281.79576,775.04259L282.99591,775.04259L282.99591,773.84246L285.63625,773.84246
				L285.63625,772.40231L288.03655,772.40231L288.03655,771.20218L290.67689,771.20218L290.67689,770.00205L293.07719,770.00205
				L293.07719,768.5619L295.71753,768.5619L295.71753,767.36177L296.91768,767.36177L296.91768,766.16164L299.55802,766.16164L299.55802,764.96152
				L301.95832,764.96152L301.95832,763.52136L304.59865,763.52136L304.59865,762.32123L306.99896,762.32123L306.99896,761.12111
				L309.63929,761.12111L309.63929,763.52136L310.83945,763.52136L310.83945,766.16164L312.0396,766.16164L312.0396,768.5619L313.47978,768.5619
				L313.47978,771.20218L312.0396,771.20218L312.0396,770.00205L309.63929,770.00205L309.63929,768.5619L306.99896,768.5619L306.99896,767.36177
				L305.79881,767.36177L305.79881,768.5619L303.15847,768.5619L303.15847,770.00205L300.75817,770.00205L300.75817,771.20218L298.11783,771.20218
				L298.11783,772.40231L295.71753,772.40231L295.71753,773.84246L294.51738,773.84246L294.51738,775.04259L291.87704,775.04259
				L291.87704,776.24272L289.23671,776.24272L289.23671,777.44285L286.8364,777.44285L286.8364,778.883L284.19607,778.883L284.19607,780.08313
				L280.59561,780.08313L280.59561,781.28325L279.15543,781.28325L279.15543,782.48338L276.75512,782.48338L276.75512,783.92354
				L274.11479,783.92354L274.11479,785.12366L272.91463,785.12366L272.91463,786.32379L271.71448,786.32379L271.71448,787.76395
				L269.07415,787.76395L269.07415,788.96407L266.43381,788.96407L266.43381,790.1642L265.23366,790.1642L265.23366,791.36433L262.83335,791.36433
				L262.83335,792.80448L261.39317,792.80448L261.39317,794.00461L258.99287,794.00461"/>
			<path clip-path="url(#SVG_CP_2)" fill="none" stroke="#999999" stroke-width="0.96012" stroke-miterlimit="10" stroke-linecap="round" stroke-linejoin="round" d="
				M257.79272,795.20474L257.79272,794.00461L258.99287,794.00461L258.99287,795.20474L257.79272,795.20474"/>
			<path clip-path="url(#SVG_CP_2)" fill="none" stroke="#999999" stroke-width="0.96012" stroke-miterlimit="10" stroke-linecap="round" stroke-linejoin="round" d="
				M252.51205,799.04515L252.51205,797.84502L253.95223,797.84502L253.95223,796.64489L255.15238,796.64489L255.15238,795.20474
				L257.79272,795.20474L257.79272,796.64489L256.35253,796.64489L256.35253,797.84502L255.15238,797.84502L255.15238,799.04515
				L252.51205,799.04515"/>
			<path clip-path="url(#SVG_CP_2)" fill="none" stroke="#999999" stroke-width="0.96012" stroke-miterlimit="10" stroke-linecap="round" stroke-linejoin="round" d="
				M251.31189,800.24528L251.31189,799.04515L252.51205,799.04515L252.51205,800.24528L251.31189,800.24528"/>
			<path clip-path="url(#SVG_CP_2)" fill="none" stroke="#999999" stroke-width="0.96012" stroke-miterlimit="10" stroke-linecap="round" stroke-linejoin="round" d="
				M250.11174,801.68543L250.11174,800.24528L251.31189,800.24528L251.31189,801.68543L250.11174,801.68543"/>
			<path clip-path="url(#SVG_CP_2)" fill="none" stroke="#999999" stroke-width="0.96012" stroke-miterlimit="10" stroke-linecap="round" stroke-linejoin="round" d="
				M248.91159,802.88556L248.91159,801.68543L250.11174,801.68543L250.11174,802.88556L248.91159,802.88556"/>
			<path clip-path="url(#SVG_CP_2)" fill="none" stroke="#999999" stroke-width="0.96012" stroke-miterlimit="10" stroke-linecap="round" stroke-linejoin="round" d="
				M248.91159,802.88556L248.91159,804.08568L247.47141,804.08568L247.47141,802.88556L248.91159,802.88556"/>
			<path clip-path="url(#SVG_CP_2)" fill="none" stroke="#999999" stroke-width="0.96012" stroke-miterlimit="10" stroke-linecap="round" stroke-linejoin="round" d="
				M246.27125,805.28581L245.0711,805.28581L245.0711,804.08568L246.27125,804.08568L246.27125,805.28581"/>
		</g>
</g></svg>