<?xml version="1.0" encoding="utf-8" standalone="no"?>
<!-- Creator: ESRI ArcMap 10.0.0.2414 -->
<!DOCTYPE svg PUBLIC "-//W3C//DTD SVG 1.1//EN"  "http://www.w3.org/Graphics/SVG/1.1/DTD/svg11.dtd">
<svg width="595.50236pt" height="595.50236pt" viewBox="25 148.377955 545.50236 545.50236" enable-background="new 25 148.377955 545.50236 545.50236"
	version="1.1" xmlns="http://www.w3.org/2000/svg" xmlns:xlink="http://www.w3.org/1999/xlink" >
	<g id="Couches">
		<g id="cont_2">
			<path clip-path="url(#SVG_CP_2)" fill="none" stroke="#999999" stroke-width="0.96012" stroke-miterlimit="10" stroke-linecap="round" stroke-linejoin="round" d="
				M289.23671,383.32085L289.23671,383.08082L289.23671,383.32085L289.47674,383.32085L289.23671,383.32085L289.23671,383.32085
				"/>
			<path clip-path="url(#SVG_CP_2)" fill="none" stroke="#999999" stroke-width="0.96012" stroke-miterlimit="10" stroke-linecap="round" stroke-linejoin="round" d="
				M258.99287,461.08913L258.99287,460.84911L258.99287,461.08913"/>
			<path clip-path="url(#SVG_CP_2)" fill="none" stroke="#999999" stroke-width="0.96012" stroke-miterlimit="10" stroke-linecap="round" stroke-linejoin="round" d="
				M258.99287,461.32916L258.99287,461.32916"/>
			<path clip-path="url(#SVG_CP_2)" fill="none" stroke="#999999" stroke-width="0.96012" stroke-miterlimit="10" stroke-linecap="round" stroke-linejoin="round" d="
				M258.75284,461.80921L258.75284,461.56919L258.75284,461.80921"/>
			<path clip-path="url(#SVG_CP_2)" fill="none" stroke="#999999" stroke-width="0.96012" stroke-miterlimit="10" stroke-linecap="round" stroke-linejoin="round" d="
				M258.51281,461.80921L258.51281,461.80921"/>
			<path clip-path="url(#SVG_CP_2)" fill="none" stroke="#999999" stroke-width="0.96012" stroke-miterlimit="10" stroke-linecap="round" stroke-linejoin="round" d="
				M258.51281,462.52929L258.51281,462.28926L258.51281,462.52929"/>
			<path clip-path="url(#SVG_CP_2)" fill="none" stroke="#999999" stroke-width="0.96012" stroke-miterlimit="10" stroke-linecap="round" stroke-linejoin="round" d="
				M258.75284,463.00934L258.51281,463.00934L258.51281,462.76931L258.75284,462.76931L258.75284,463.00934"/>
			<path clip-path="url(#SVG_CP_2)" fill="none" stroke="#999999" stroke-width="0.96012" stroke-miterlimit="10" stroke-linecap="round" stroke-linejoin="round" d="
				M279.63549,464.68952L279.63549,464.92954L279.39546,464.92954L279.39546,464.68952L279.63549,464.68952"/>
			<path clip-path="url(#SVG_CP_2)" fill="none" stroke="#999999" stroke-width="0.96012" stroke-miterlimit="10" stroke-linecap="round" stroke-linejoin="round" d="
				M278.43533,468.76995L278.43533,469.00998L278.43533,468.76995L278.43533,468.76995"/>
			<path clip-path="url(#SVG_CP_2)" fill="none" stroke="#999999" stroke-width="0.96012" stroke-miterlimit="10" stroke-linecap="round" stroke-linejoin="round" d="
				M281.55573,469.00998L281.55573,469.25L281.3157,469.25L281.3157,469.00998L281.55573,469.00998"/>
			<path clip-path="url(#SVG_CP_2)" fill="none" stroke="#999999" stroke-width="0.96012" stroke-miterlimit="10" stroke-linecap="round" stroke-linejoin="round" d="
				M281.79576,469.73006L281.79576,469.73006"/>
			<path clip-path="url(#SVG_CP_2)" fill="none" stroke="#999999" stroke-width="0.96012" stroke-miterlimit="10" stroke-linecap="round" stroke-linejoin="round" d="
				M281.79576,469.97008L281.79576,469.97008"/>
			<path clip-path="url(#SVG_CP_2)" fill="none" stroke="#999999" stroke-width="0.96012" stroke-miterlimit="10" stroke-linecap="round" stroke-linejoin="round" d="
				M282.03579,469.97008L281.79576,469.97008L282.03579,469.97008L282.03579,469.97008"/>
			<path clip-path="url(#SVG_CP_2)" fill="none" stroke="#999999" stroke-width="0.96012" stroke-miterlimit="10" stroke-linecap="round" stroke-linejoin="round" d="
				M282.03579,469.97008L282.03579,470.21011L282.27582,470.21011L282.03579,470.21011L282.03579,470.45013L282.03579,470.21011
				L282.03579,469.97008"/>
			<path clip-path="url(#SVG_CP_2)" fill="none" stroke="#999999" stroke-width="0.96012" stroke-miterlimit="10" stroke-linecap="round" stroke-linejoin="round" d="
				M306.75893,445.96752L306.75893,445.24745L306.5189,445.24745L306.75893,445.24745L306.75893,445.00742L306.99896,445.00742L
				306.99896,444.7674L307.23899,444.7674L307.23899,444.52737L307.23899,444.28734L307.47902,444.28734L307.47902,444.04732L307.47902,443.80729
				L307.71905,443.80729L307.71905,443.56727L307.95908,443.56727L307.95908,442.36714L307.95908,442.12711L308.19911,442.12711
				L308.19911,441.88709L308.43914,441.88709L308.43914,439.96688L308.19911,439.96688L308.19911,436.12647L307.95908,436.12647
				L307.95908,435.88645L307.95908,435.64642L307.71905,435.64642L307.71905,428.68568L307.95908,428.68568L307.95908,428.44566
				L308.19911,428.44566L308.19911,428.20563L308.43914,428.20563L308.43914,427.9656L308.67917,427.9656L308.67917,427.72558L308.67917,427.48555
				L308.9192,427.48555L308.9192,427.24553L308.9192,426.76548L308.9192,426.28543L308.9192,426.0454L309.15923,426.0454L309.15923,425.80537
				L309.15923,425.56535L309.15923,425.32532L309.39926,425.32532L309.39926,425.0853L309.39926,424.84527L309.39926,424.60525L
				309.63929,424.60525L309.63929,424.36522L309.63929,424.1252L309.63929,423.88517L309.87933,423.88517L309.87933,423.64514L309.87933,423.40512
				L309.87933,423.16509L309.87933,422.44502L310.11936,422.44502L310.11936,421.96497L310.11936,421.72494L310.11936,421.24489
				L310.35939,421.24489L310.35939,420.52481L310.35939,420.04476L310.35939,419.56471L310.59942,419.56471L310.59942,419.08466
				L310.59942,418.60461L310.59942,418.12456L310.83945,418.12456L310.83945,417.64451L310.83945,417.16445L310.83945,416.92443
				L310.83945,416.44438L311.07948,416.44438L311.07948,415.96433L311.07948,415.48427L311.07948,415.00422L311.31951,415.00422
				L311.31951,414.52417L311.31951,414.28415L311.31951,413.8041L311.55954,413.8041L311.55954,405.4032L311.31951,405.4032L311.31951,404.92315
				L311.07948,404.92315L311.07948,404.68312L310.83945,404.68312L310.83945,404.4431L310.83945,404.20307L310.59942,404.20307L
				310.59942,403.72302L310.35939,403.72302L310.35939,403.24297L310.35939,403.00294L310.11936,403.00294L310.11936,402.76292L
				309.87933,402.76292L309.87933,402.52289L309.63929,402.52289L309.63929,402.28287L309.39926,402.28287L309.39926,402.04284L
				309.15923,402.04284L309.15923,401.80282L308.9192,401.80282L308.9192,401.08274L308.9192,400.84271L308.67917,400.84271L308.67917,400.60269
				L308.43914,400.60269L308.19911,400.60269L308.19911,400.36266L308.19911,398.92251L308.19911,398.68248L307.95908,398.68248
				L307.95908,398.44246L307.95908,397.48236L307.71905,397.48236L307.71905,397.24233L307.47902,397.24233L307.47902,397.00231
				L307.23899,397.00231L307.23899,396.76228L306.99896,396.76228L306.99896,396.52225L306.75893,396.52225L306.75893,396.28223
				L306.5189,396.28223L306.5189,396.0422L306.27887,396.0422L306.27887,395.80218L306.03884,395.80218L306.03884,395.56215L305.79881,395.56215
				L305.79881,395.32213L305.55878,395.32213L305.55878,395.0821L305.31875,395.0821L305.31875,394.84208L305.07872,394.84208L305.07872,394.60205
				L304.83869,394.60205L304.83869,394.36202L304.35862,394.36202L304.35862,394.122L304.11859,394.122L304.11859,393.88197L303.87856,393.88197
				L303.63853,393.88197L303.63853,393.64195L303.63853,393.40192L303.3985,393.40192L303.15847,393.40192L303.15847,393.1619L302.91844,393.1619
				L302.91844,392.92187L302.67841,392.92187L302.67841,392.68185L302.43838,392.68185L302.19835,392.68185L302.19835,392.44182
				L301.95832,392.44182L301.71829,392.44182L301.71829,392.20179L301.47826,392.20179L301.47826,391.96177L301.23823,391.96177
				L300.9982,391.96177L300.9982,391.72174L300.75817,391.72174L300.51814,391.72174L300.27811,391.72174L300.27811,391.48172L300.03808,391.48172
				L300.03808,391.24169L299.79805,391.24169L299.79805,391.00167L299.55802,391.00167L299.55802,390.76164L299.31798,390.76164
				L299.31798,390.52161L299.07795,390.52161L299.07795,390.28159L298.83792,390.28159L298.83792,390.04156L298.59789,390.04156
				L298.59789,389.80154L298.35786,389.80154L298.35786,389.56151L298.11783,389.56151L296.67765,389.56151L296.43762,389.56151
				L296.43762,389.80154L295.4775,389.80154L295.23747,389.80154L295.23747,389.56151L294.99744,389.56151L294.99744,389.32149L
				294.51738,389.32149L294.51738,389.08146L294.27735,389.08146L294.03731,389.08146L294.03731,388.84144L293.79728,388.84144L
				293.79728,388.60141L293.55725,388.60141L293.55725,388.36138L293.31722,388.36138L293.31722,388.12136L293.07719,388.12136L
				293.07719,387.88133L292.83716,387.88133L292.83716,387.64131L292.59713,387.64131L292.59713,387.40128L292.3571,387.40128L292.3571,387.16126
				L292.11707,387.16126L292.11707,386.92123L291.87704,386.92123L291.87704,386.68121L291.63701,386.68121L291.63701,386.44118
				L291.39698,386.44118L291.39698,386.20115L291.15695,386.20115L291.15695,385.96113L290.91692,385.96113L290.91692,385.7211L
				290.67689,385.7211L290.67689,385.48108L290.43686,385.48108L290.43686,385.24105L290.19683,385.24105L290.19683,385.00103L289.9568,385.00103
				L289.9568,384.761L289.9568,384.52098L289.71677,384.52098L289.71677,384.28095L289.71677,383.32085L289.47674,383.32085L289.47674,383.08082
				L289.23671,383.08082L289.23671,382.8408L288.99668,382.8408L288.99668,382.60077L288.75664,382.60077L288.75664,382.36075L288.51661,382.36075
				L288.51661,382.12072L288.27658,382.12072L288.27658,381.88069L288.03655,381.88069L288.03655,381.64067L287.55649,381.64067
				L287.55649,381.40064L287.31646,381.40064L287.31646,381.16062L287.07643,381.16062L287.07643,380.92059L286.8364,380.92059L
				286.8364,380.68057L286.59637,380.68057L286.59637,380.44054L286.35634,380.44054L286.35634,380.20051L286.11631,380.20051L286.11631,379.96049
				L285.87628,379.96049L285.87628,379.72046L285.63625,379.72046L285.63625,379.48044L285.39622,379.48044L285.39622,379.24041
				L285.15619,379.24041L285.15619,379.00039L284.91616,379.00039L284.91616,378.28031L284.67613,378.28031L284.67613,378.04028
				L284.4361,378.04028L284.4361,377.80026L284.19607,377.80026L284.19607,376.12008L284.67613,376.12008L284.91616,376.12008L285.15619,376.12008
				L285.15619,375.88005L285.15619,375.4L284.91616,375.4L284.91616,375.15998L284.91616,374.4399L284.91616,374.19988L285.63625,374.19988
				L286.11631,374.19988L286.11631,374.67993L286.11631,375.15998L286.35634,375.15998L286.8364,375.15998L287.07643,375.15998L
				287.07643,374.67993L287.31646,374.67993L287.31646,374.91995L287.31646,375.15998L287.55649,375.15998L287.55649,375.4L287.79652,375.4
				L288.03655,375.4L288.03655,375.15998L287.79652,375.15998L287.79652,374.91995L287.55649,374.91995L287.55649,374.67993L287.31646,374.67993
				L287.31646,374.4399L287.31646,374.19988L287.07643,374.19988L287.07643,373.95985L286.8364,373.95985L286.8364,373.71982L286.59637,373.71982
				L286.59637,373.4798L286.35634,373.4798L286.35634,373.23977L286.11631,373.23977L286.11631,372.99975L285.87628,372.99975L285.87628,372.75972
				L285.63625,372.75972L285.63625,372.5197L285.39622,372.5197L285.39622,372.27967L285.15619,372.27967L285.15619,372.03965L284.91616,372.03965
				L284.91616,371.79962L284.67613,371.79962L284.67613,371.55959L284.4361,371.55959L284.4361,371.31957L284.19607,371.31957L284.19607,371.07954
				L283.95604,371.07954L283.95604,370.83952L283.716,370.83952L283.716,370.59949L283.47597,370.59949L283.47597,370.35947L283.23594,370.35947
				L282.99591,370.35947L282.99591,370.11944L282.75588,370.11944L282.51585,370.11944L282.51585,369.87942L282.27582,369.87942
				L282.03579,369.87942L282.03579,369.63939L281.79576,369.63939L281.79576,369.39936L281.55573,369.39936L281.3157,369.39936L
				281.3157,369.15934L281.07567,369.15934L280.83564,369.15934L280.83564,368.91931L280.59561,368.91931L280.35558,368.91931L280.35558,368.67929
				L280.11555,368.67929L279.87552,368.67929L279.87552,368.43926L279.63549,368.43926L279.39546,368.43926L279.15543,368.43926
				L279.15543,368.19924L278.9154,368.19924L278.67537,368.19924L278.43533,368.19924L278.1953,368.19924L278.1953,367.95921L277.95527,367.95921
				L277.95527,368.43926L277.71524,368.43926L277.71524,368.91931L277.71524,369.15934L277.71524,369.63939L277.47521,369.63939
				L277.47521,370.11944L277.47521,370.83952L277.47521,371.31957L277.47521,371.79962L277.23518,371.79962L277.23518,372.5197L
				277.23518,372.99975L277.23518,373.4798L276.99515,373.4798L276.99515,373.95985L276.99515,374.4399L276.99515,374.91995L276.75512,374.91995
				L276.75512,375.4L276.75512,375.64003L276.75512,376.12008L276.51509,376.12008L276.51509,376.60013L276.51509,377.32021L276.51509,378.04028
				L276.51509,378.28031L276.51509,378.04028L276.99515,378.04028L277.23518,378.04028L277.47521,378.04028L277.47521,377.80026
				L277.71524,377.80026L278.1953,377.80026L278.43533,377.80026L278.43533,377.56023L278.67537,377.56023L278.9154,377.56023L279.39546,377.56023
				L279.39546,377.32021L279.63549,377.32021L279.87552,377.32021L280.11555,377.32021L280.35558,377.32021L280.35558,377.08018
				L280.83564,377.08018L281.07567,377.08018L281.3157,377.08018L281.3157,376.84016L281.55573,376.84016L281.79576,376.84016L282.03579,376.84016
				L282.03579,376.60013L282.51585,376.60013L282.75588,376.60013L282.99591,376.60013L282.99591,376.36011L283.23594,376.36011
				L283.716,376.36011L283.95604,376.36011L284.19607,376.36011L284.19607,378.28031L284.4361,378.28031L284.4361,378.52034L284.67613,378.52034
				L284.67613,378.76036L284.67613,379.00039L284.91616,379.00039L285.15619,379.00039L285.15619,379.24041L285.39622,379.24041
				L285.39622,379.48044L285.63625,379.48044L285.63625,379.72046L285.63625,379.96049L285.87628,379.96049L286.11631,379.96049
				L286.11631,380.20051L286.35634,380.20051L286.35634,380.44054L286.59637,380.44054L286.59637,380.68057L286.59637,380.92059
				L286.8364,380.92059L287.07643,380.92059L287.07643,381.16062L287.31646,381.16062L287.31646,381.40064L287.31646,381.64067L
				287.55649,381.64067L287.55649,381.88069L287.79652,381.88069L288.27658,381.88069L288.27658,382.12072L288.51661,382.12072L
				288.51661,382.36075L288.75664,382.36075L288.75664,382.60077L288.75664,382.8408L288.99668,382.8408L288.99668,383.08082L289.23671,383.08082
				L289.23671,383.32085L289.23671,383.56087L289.23671,383.8009L289.47674,383.8009L289.47674,384.04092L289.47674,384.28095L289.71677,384.28095
				L289.71677,384.52098L289.9568,384.52098L289.9568,384.761L289.9568,385.00103L290.19683,385.00103L290.19683,385.24105L290.43686,385.24105
				L290.43686,385.48108L290.67689,385.48108L290.67689,385.7211L290.91692,385.7211L290.91692,385.96113L291.15695,385.96113L291.15695,386.20115
				L291.39698,386.20115L291.39698,386.44118L291.63701,386.44118L291.63701,386.68121L291.87704,386.68121L291.87704,386.92123
				L292.11707,386.92123L292.11707,387.16126L292.3571,387.16126L292.3571,387.40128L292.59713,387.40128L292.59713,387.64131L292.83716,387.64131
				L292.83716,387.88133L293.07719,387.88133L293.07719,388.12136L293.31722,388.12136L293.31722,388.36138L293.55725,388.36138
				L293.55725,388.60141L293.79728,388.60141L293.79728,388.84144L294.03731,388.84144L294.03731,389.08146L294.27735,389.08146
				L294.27735,389.32149L294.51738,389.32149L294.51738,389.56151L294.75741,389.56151L294.75741,389.80154L294.99744,389.80154
				L295.4775,389.80154L295.4775,390.04156L296.43762,390.04156L296.43762,389.80154L296.67765,389.80154L296.91768,389.80154L296.91768,389.56151
				L297.15771,389.56151L297.39774,389.56151L297.39774,389.80154L297.63777,389.80154L297.63777,390.04156L297.8778,390.04156L
				297.8778,390.28159L298.11783,390.28159L298.11783,390.52161L298.35786,390.52161L298.35786,390.76164L298.59789,390.76164L298.59789,391.00167
				L298.83792,391.00167L299.07795,391.00167L299.07795,391.24169L299.31798,391.24169L299.55802,391.24169L299.55802,391.48172
				L299.79805,391.48172L300.03808,391.48172L300.03808,391.72174L300.27811,391.72174L300.51814,391.72174L300.51814,391.96177
				L300.75817,391.96177L300.75817,392.20179L300.75817,392.44182L300.9982,392.44182L301.23823,392.44182L301.23823,392.68185L
				301.47826,392.68185L301.71829,392.68185L301.71829,392.92187L301.95832,392.92187L301.95832,393.1619L302.19835,393.1619L302.43838,393.1619
				L302.43838,393.40192L302.67841,393.40192L302.67841,393.64195L302.91844,393.64195L302.91844,393.88197L303.15847,393.88197
				L303.15847,394.122L303.3985,394.122L303.3985,394.36202L303.63853,394.36202L303.63853,394.60205L304.83869,394.60205L304.83869,394.84208
				L305.07872,394.84208L305.07872,395.0821L305.31875,395.0821L305.31875,395.32213L305.55878,395.32213L305.79881,395.32213L305.79881,395.56215
				L306.03884,395.56215L306.03884,395.80218L306.27887,395.80218L306.27887,396.0422L306.5189,396.0422L306.5189,396.28223L306.75893,396.28223
				L306.75893,396.52225L306.99896,396.52225L306.99896,396.76228L307.23899,396.76228L307.23899,397.00231L307.47902,397.00231
				L307.47902,397.24233L307.71905,397.24233L307.71905,397.48236L307.71905,399.88261L307.95908,399.88261L307.95908,400.12264
				L307.95908,400.36266L308.19911,400.36266L308.19911,401.08274L308.19911,401.32277L308.43914,401.32277L308.43914,401.56279
				L308.67917,401.56279L308.9192,401.56279L308.9192,401.80282L308.9192,402.04284L309.15923,402.04284L309.15923,402.28287L309.39926,402.28287
				L309.39926,402.52289L309.63929,402.52289L309.87933,402.52289L309.87933,402.76292L309.87933,403.72302L310.11936,403.72302
				L310.11936,403.96305L310.35939,403.96305L310.35939,404.20307L310.59942,404.20307L310.59942,404.68312L310.83945,404.68312
				L310.83945,404.92315L310.83945,405.16318L311.07948,405.16318L311.31951,405.16318L311.31951,405.4032L311.31951,405.64323L
				311.31951,406.12328L311.31951,406.84335L311.07948,406.84335L311.07948,407.32341L311.07948,408.04348L311.07948,408.52353L
				310.83945,408.52353L310.83945,409.24361L310.83945,409.72366L310.83945,410.44374L310.83945,411.16381L310.59942,411.16381L
				310.59942,411.64387L310.59942,412.36394L310.59942,413.08402L310.35939,413.08402L310.35939,413.56407L310.35939,414.28415L
				310.35939,415.00422L310.11936,415.00422L310.11936,415.48427L310.11936,416.20435L310.11936,416.6844L309.87933,416.6844L309.87933,417.40448
				L309.87933,417.88453L309.87933,418.60461L309.87933,419.32468L309.63929,419.32468L309.63929,419.56471L309.63929,419.80474
				L309.39926,419.80474L309.39926,420.04476L309.15923,420.04476L309.15923,420.28479L308.9192,420.28479L308.9192,420.52481L308.9192,424.1252
				L308.67917,424.1252L308.67917,424.60525L308.67917,424.84527L308.67917,425.56535L308.43914,425.56535L308.43914,426.0454L308.43914,426.28543
				L308.19911,426.28543L308.19911,426.52545L308.19911,426.76548L307.95908,426.76548L307.95908,428.44566L307.71905,428.44566
				L307.71905,428.68568L307.71905,437.56663L307.95908,437.56663L307.95908,437.80665L307.95908,438.04668L307.95908,438.76676
				L307.95908,439.00678L308.19911,439.00678L308.19911,439.96688L308.19911,440.68696L308.19911,441.16701L308.19911,441.88709
				L308.19911,442.12711L307.95908,442.12711L307.95908,442.36714L307.71905,442.36714L307.71905,442.60717L307.47902,442.60717
				L307.47902,442.84719L307.23899,442.84719L307.23899,443.08722L306.99896,443.08722L306.99896,443.32724L306.75893,443.32724
				L306.75893,443.56727L306.5189,443.56727L306.5189,443.80729L306.5189,445.24745L306.5189,445.96752L306.75893,445.96752L306.75893,466.12967
				L306.5189,466.12967L306.27887,466.12967L306.03884,466.12967L306.03884,466.3697L305.55878,466.3697L305.31875,466.3697L304.83869,466.3697
				L304.35862,466.3697L303.87856,466.3697L303.87856,466.12967L303.63853,466.12967L303.3985,466.12967L303.15847,466.12967L303.15847,465.88965
				L302.91844,465.88965L302.67841,465.88965L302.43838,465.88965L302.43838,465.64962L302.19835,465.64962L301.95832,465.64962
				L301.95832,465.40959L301.71829,465.40959L301.47826,465.40959L301.47826,465.16957L301.23823,465.16957L300.9982,465.16957L
				300.75817,465.16957L300.75817,464.92954L300.51814,464.92954L300.03808,464.92954L300.03808,464.68952L299.55802,464.68952L
				299.31798,464.68952L299.31798,464.44949L299.07795,464.44949L298.83792,464.44949L298.59789,464.44949L298.35786,464.44949L
				298.35786,464.20947L298.11783,464.20947L297.8778,464.20947L297.63777,464.20947L297.63777,463.96944L297.39774,463.96944L297.15771,463.96944
				L296.91768,463.96944L296.91768,463.72942L296.67765,463.72942L296.43762,463.72942L296.43762,463.48939L296.19759,463.48939
				L295.95756,463.48939L295.71753,463.48939L295.71753,463.24936L295.4775,463.24936L295.23747,463.24936L295.23747,463.00934L
				294.99744,463.00934L294.75741,463.00934L294.75741,462.76931L294.51738,462.76931L294.27735,462.76931L294.03731,462.76931L
				294.03731,462.52929L293.79728,462.52929L293.55725,462.52929L293.55725,462.28926L293.31722,462.28926L293.07719,462.28926L
				292.83716,462.28926L292.83716,462.04924L292.59713,462.04924L292.3571,462.04924L292.3571,461.80921L291.87704,461.80921L291.63701,461.80921
				L291.39698,461.80921L291.15695,461.80921L291.15695,461.56919L290.91692,461.56919L290.91692,461.80921L290.67689,461.80921
				L290.67689,462.04924L290.43686,462.04924L290.43686,462.28926L290.19683,462.28926L290.19683,462.52929L289.9568,462.52929L
				289.9568,462.76931L289.71677,462.76931L289.71677,463.00934L289.71677,463.24936L289.47674,463.24936L289.47674,463.48939L289.23671,463.48939
				L289.23671,463.72942L288.99668,463.72942L288.99668,463.48939L288.75664,463.48939L288.75664,463.24936L288.51661,463.24936
				L288.51661,463.00934L288.27658,463.00934L288.27658,462.76931L288.03655,462.76931L288.03655,462.52929L287.79652,462.52929
				L287.79652,462.28926L287.79652,462.52929L287.55649,462.52929L287.31646,462.52929L287.31646,462.28926L287.07643,462.28926
				L287.31646,462.28926L287.31646,462.04924L287.55649,462.04924L287.55649,461.80921L287.79652,461.80921L288.03655,461.80921
				L288.03655,461.56919L288.27658,461.56919L288.27658,461.32916L288.51661,461.32916L288.51661,461.08913L288.75664,461.08913
				L288.51661,461.08913L288.27658,461.08913L288.27658,460.84911L288.03655,460.84911L287.79652,460.84911L287.31646,460.84911
				L287.07643,460.84911L287.07643,460.60908L286.8364,460.60908L286.8364,460.84911L285.63625,460.84911L285.15619,460.84911L284.91616,460.84911
				L284.91616,461.08913L284.67613,461.08913L284.4361,461.08913L284.4361,461.32916L284.19607,461.32916L284.19607,461.56919L284.19607,461.80921
				L284.19607,462.52929L284.4361,462.52929L284.19607,462.52929L284.19607,462.76931L283.95604,462.76931L283.716,462.76931L283.716,463.00934
				L283.716,463.24936L283.95604,463.24936L283.95604,463.48939L284.19607,463.48939L284.4361,463.48939L284.67613,463.48939L284.67613,463.24936
				L284.91616,463.24936L284.91616,463.48939L285.15619,463.48939L285.15619,463.72942L285.15619,463.96944L285.39622,463.96944
				L285.39622,464.20947L285.39622,464.44949L285.63625,464.44949L285.63625,464.68952L285.39622,464.68952L285.15619,464.68952
				L285.15619,464.92954L284.67613,464.92954L284.4361,464.92954L284.4361,465.16957L284.4361,465.40959L284.19607,465.40959L284.19607,465.64962
				L283.95604,465.64962L283.95604,465.88965L283.95604,466.12967L283.716,466.12967L283.716,466.3697L283.47597,466.3697L283.47597,466.60972
				L283.23594,466.60972L283.23594,466.84975L283.23594,467.08977L282.99591,467.08977L282.99591,467.3298L282.75588,467.3298L282.75588,467.56983
				L282.51585,467.56983L282.51585,467.80985L282.51585,468.04988L282.27582,468.04988L282.27582,468.2899L282.03579,468.2899L282.03579,468.52993
				L281.79576,468.52993L281.79576,468.76995L281.79576,469.00998L281.55573,469.00998L281.55573,468.76995L281.55573,468.52993
				L281.3157,468.52993L281.07567,468.52993L280.83564,468.52993L280.83564,468.2899L280.59561,468.2899L280.35558,468.2899L280.35558,468.04988
				L280.11555,468.04988L279.87552,468.04988L279.87552,468.2899L279.63549,468.2899L279.39546,468.2899L279.39546,468.52993L279.15543,468.52993
				L278.9154,468.52993L278.9154,468.76995L278.67537,468.76995L278.43533,468.76995L278.43533,468.52993L278.67537,468.52993L278.67537,468.2899
				L278.9154,468.2899L278.9154,468.04988L279.15543,468.04988L279.15543,467.80985L279.15543,467.56983L279.39546,467.56983L279.39546,467.3298
				L279.63549,467.3298L279.63549,467.56983L279.63549,467.3298L279.87552,467.3298L279.87552,467.08977L280.11555,467.08977L280.11555,467.3298
				L280.35558,467.3298L280.35558,467.56983L280.59561,467.56983L280.83564,467.56983L280.83564,467.80985L281.07567,467.80985L
				281.07567,468.04988L281.3157,468.04988L281.55573,468.04988L281.55573,468.2899L281.79576,468.2899L281.79576,468.04988L282.03579,468.04988
				L282.03579,467.80985L282.03579,467.56983L282.27582,467.56983L282.27582,466.84975L282.27582,466.12967L282.27582,465.88965
				L282.27582,465.64962L282.03579,465.64962L282.03579,465.40959L282.27582,465.40959L282.27582,465.16957L282.51585,465.16957
				L282.75588,465.16957L282.75588,464.92954L282.99591,464.92954L282.99591,465.16957L282.99591,465.40959L283.23594,465.40959
				L283.23594,465.64962L283.47597,465.64962L283.47597,465.88965L283.716,465.88965L283.716,465.64962L283.716,465.40959L283.95604,465.40959
				L283.95604,465.16957L283.95604,464.92954L284.19607,464.92954L284.19607,464.44949L284.19607,464.20947L283.95604,464.20947
				L283.95604,463.96944L283.95604,463.72942"/>
			<path clip-path="url(#SVG_CP_2)" fill="none" stroke="#999999" stroke-width="0.96012" stroke-miterlimit="10" stroke-linecap="round" stroke-linejoin="round" d="
				M283.95604,463.72942L283.716,463.72942L283.716,463.48939L283.716,463.24936L283.47597,463.24936L283.47597,463.00934L283.47597,462.76931
				L283.23594,462.76931L283.23594,462.52929L282.99591,462.52929L282.99591,462.28926L282.99591,462.04924L282.99591,461.80921
				L282.75588,461.80921L282.75588,461.56919L282.51585,461.56919L282.27582,461.56919L282.27582,461.80921L282.27582,462.04924
				L282.27582,462.28926L282.51585,462.28926L282.51585,462.52929L282.27582,462.52929L282.27582,462.76931L282.27582,463.00934
				L282.27582,463.24936L282.03579,463.24936L282.03579,463.00934L281.79576,463.00934L281.79576,463.24936L281.55573,463.24936
				L281.55573,463.48939L281.3157,463.48939L281.07567,463.48939L281.07567,463.72942L280.83564,463.72942L280.83564,463.96944L
				280.59561,463.96944L280.59561,464.20947L280.35558,464.20947L280.11555,464.20947L280.11555,464.44949L279.87552,464.44949L
				279.87552,464.68952L279.63549,464.68952L279.63549,464.44949L279.63549,464.20947L279.63549,463.96944L279.39546,463.96944L
				278.9154,463.96944L278.9154,463.72942L278.67537,463.72942L278.1953,463.72942L277.95527,463.72942L277.95527,463.48939L277.47521,463.48939
				L277.47521,463.72942L277.23518,463.72942L276.99515,463.72942L276.99515,463.96944L276.75512,463.96944L273.3947,463.96944L
				273.3947,463.72942L273.3947,463.24936L273.3947,463.00934L273.15466,463.00934L273.15466,462.76931L272.6746,462.76931L272.19454,462.76931
				L271.47445,462.76931L271.47445,462.04924L271.23442,462.04924L271.23442,461.80921L270.51433,461.80921L270.2743,461.80921L
				269.79424,461.80921L269.55421,461.80921L269.55421,461.56919L269.31418,461.56919L269.07415,461.56919L269.07415,461.32916L
				269.07415,461.08913L269.31418,461.08913L269.31418,460.84911L269.31418,460.36906L269.07415,460.36906L268.83412,460.36906L
				268.83412,460.12903L268.59409,460.12903L268.35406,460.12903L268.11402,460.12903L268.11402,459.88901L267.87399,459.88901L
				267.63396,459.88901L267.63396,459.64898L267.39393,459.64898L267.1539,459.64898L267.1539,459.40896L266.91387,459.40896L266.67384,459.40896
				L266.67384,459.16893L266.43381,459.16893L266.19378,459.16893L265.95375,459.16893L265.71372,459.16893L265.71372,458.9289L
				265.47369,458.9289L265.47369,458.68888L265.23366,458.68888L264.99363,458.68888L264.99363,458.44885L264.7536,458.44885L264.51357,458.44885
				L264.27354,458.44885L264.27354,458.20883L264.03351,458.20883L263.79348,458.20883L263.79348,457.9688L263.31342,457.9688L263.07339,457.9688
				L262.59332,457.9688L262.59332,457.72878L262.35329,457.72878L261.87323,457.72878L261.39317,457.72878L261.39317,457.48875L
				261.15314,457.48875L261.15314,457.72878L261.15314,457.9688L260.91311,457.9688L260.91311,458.44885L260.91311,458.68888L260.91311,459.16893
				L260.67308,459.16893L260.67308,459.40896L260.67308,459.64898L260.67308,459.88901L260.43305,459.88901L260.43305,460.12903
				L260.43305,460.36906L260.19302,460.36906L259.95299,460.36906L259.95299,460.60908L259.71296,460.60908L259.47293,460.60908
				L259.47293,460.84911L259.2329,460.84911L258.99287,460.84911L258.75284,460.84911L258.75284,461.08913L258.51281,461.08913L
				258.27278,461.08913L258.27278,461.32916L258.03275,461.32916L257.79272,461.32916L257.79272,461.56919L257.55268,461.56919L
				257.55268,461.32916L257.55268,461.08913L257.55268,460.84911L257.31265,460.84911L257.31265,460.60908L257.31265,460.12903L
				257.31265,459.88901L257.07262,459.88901L257.07262,459.40896L257.07262,459.16893L257.07262,458.9289L256.83259,458.9289L256.83259,459.16893
				L256.59256,459.16893L256.35253,459.16893L256.1125,459.16893L256.1125,459.40896L255.87247,459.40896L255.87247,459.64898L255.63244,459.64898
				L255.39241,459.64898L255.39241,459.88901L255.15238,459.88901L255.15238,459.64898L255.15238,459.40896L254.91235,459.40896
				L254.91235,459.16893L254.67232,459.16893L254.67232,458.9289L254.67232,458.20883L254.67232,457.9688L253.95223,457.9688L253.95223,458.20883
				L253.7122,458.20883L253.47217,458.20883L253.23214,458.20883L253.23214,458.44885L253.23214,458.20883L252.99211,458.20883L
				252.75208,458.20883L252.75208,457.9688L252.51205,457.9688L252.51205,457.72878L252.51205,457.48875L252.27201,457.48875L252.27201,457.24873
				L252.51205,457.24873L252.51205,457.0087L252.51205,456.76867L252.75208,456.76867L252.75208,456.52865L252.75208,456.28862L
				252.51205,456.28862L252.27201,456.28862L252.27201,456.0486L252.03198,456.0486L252.03198,456.28862L251.79195,456.28862L251.79195,456.52865
				L251.55192,456.52865L251.55192,456.76867L251.31189,456.76867L251.31189,457.0087L251.07186,457.0087L251.07186,456.76867L250.83183,456.76867
				L250.83183,456.52865L250.5918,456.52865L250.5918,456.28862L250.35177,456.28862L250.11174,456.28862L250.11174,456.52865L250.11174,456.76867
				L249.87171,456.76867L249.87171,457.0087L249.63168,457.0087L249.63168,457.24873L249.63168,457.48875L249.87171,457.48875L249.87171,457.72878
				L250.11174,457.72878L250.11174,457.9688L250.35177,457.9688L250.35177,458.20883L250.5918,458.20883L250.5918,458.44885L250.83183,458.44885
				L250.83183,458.68888L251.07186,458.68888L251.07186,458.9289L251.31189,458.9289L251.31189,459.16893L251.31189,459.40896L251.55192,459.40896
				L251.55192,459.64898L251.79195,459.64898L251.79195,459.88901L252.03198,459.88901L252.27201,459.88901L252.27201,460.12903
				L252.03198,460.12903L252.03198,460.36906L251.79195,460.36906L251.79195,460.60908L251.55192,460.60908L251.55192,460.84911
				L251.31189,460.84911L251.07186,460.84911L251.31189,460.84911L251.31189,460.60908L251.31189,460.36906L251.31189,460.60908
				L251.07186,460.60908L250.83183,460.60908L250.83183,460.36906L250.5918,460.36906L250.5918,460.12903L250.35177,460.12903L250.35177,459.88901
				L250.11174,459.88901L250.11174,459.64898L249.87171,459.64898L249.87171,459.40896L249.63168,459.40896L249.63168,459.16893
				L249.39165,459.16893L249.39165,458.9289L249.15162,458.9289L249.15162,458.68888L248.91159,458.68888L248.91159,458.44885L248.67156,458.44885
				L248.67156,458.20883L248.43153,458.20883L248.43153,458.44885L248.1915,458.44885L248.1915,458.68888L247.95147,458.68888L247.95147,458.9289
				L247.71144,458.9289L247.71144,459.16893L247.71144,459.40896L247.47141,459.40896L247.47141,459.64898L247.23137,459.64898L
				247.23137,459.88901L246.99134,459.88901L246.99134,459.64898L246.99134,459.40896L246.75131,459.40896L246.75131,459.16893L
				246.75131,458.9289L246.75131,458.68888L246.51128,458.68888L246.51128,458.44885L246.27125,458.44885L246.27125,458.20883L246.03122,458.20883
				L246.03122,457.9688L246.03122,457.72878L246.03122,457.48875L245.79119,457.48875L245.79119,457.24873L245.55116,457.24873L
				245.55116,457.0087L245.55116,456.76867L245.31113,456.76867L245.31113,456.28862L245.0711,456.28862L245.0711,456.0486L245.0711,455.80857
				L245.0711,455.56855L245.0711,455.32852L245.0711,455.0885L244.83107,455.0885L244.83107,454.84847L244.83107,454.60844L244.83107,454.36842
				L244.83107,454.12839L245.0711,454.12839L245.0711,453.88837L245.0711,453.64834L245.0711,453.40832L245.0711,452.92826L245.0711,452.68824
				L245.0711,452.20819L244.83107,452.20819L244.83107,451.96816L244.83107,451.48811L244.59104,451.48811L244.59104,450.04796L
				244.83107,450.04796L244.83107,449.56791L244.59104,449.56791L244.59104,449.32788L244.59104,449.08786L244.59104,447.88773L
				244.35101,447.88773L244.35101,446.20755L244.35101,445.7275L244.35101,444.7674L244.35101,444.28734L244.35101,443.56727L244.35101,443.08722
				L244.59104,443.08722L244.59104,442.84719L244.59104,442.60717L244.59104,442.36714L244.83107,442.36714L244.83107,442.12711
				L244.83107,441.88709L244.83107,441.64706L245.0711,441.64706L245.0711,441.40704L245.0711,441.16701L245.0711,440.92699L245.0711,440.68696
				L245.31113,440.68696L245.31113,440.44693L245.31113,440.20691L245.55116,440.20691L245.55116,439.96688L245.55116,439.72686
				L245.79119,439.72686L245.79119,439.48683L245.79119,439.24681L246.03122,439.24681L246.03122,439.00678L246.03122,438.76676
				L246.03122,438.52673L246.27125,438.52673L246.27125,436.84655L246.27125,435.88645L246.27125,434.68632L246.51128,434.68632
				L246.51128,433.96624L246.51128,433.24617L246.51128,432.52609L246.75131,432.52609L246.75131,432.04604L246.75131,428.68568
				L246.75131,427.48555L246.99134,427.48555L246.99134,426.28543L246.99134,425.0853L246.99134,423.88517L246.99134,422.92507L
				247.23137,422.92507L247.23137,421.96497L247.23137,421.00486L247.23137,420.04476L247.47141,420.04476L247.47141,419.32468L
				247.47141,418.84463L247.47141,418.60461L247.71144,418.60461L247.71144,418.36458L247.71144,418.12456L247.95147,418.12456L
				247.95147,417.88453L248.1915,417.88453L248.1915,417.64451L248.43153,417.64451L248.43153,417.40448L248.67156,417.40448L248.67156,417.16445
				L248.91159,417.16445L248.91159,416.92443L249.15162,416.92443L249.15162,416.6844L249.15162,416.44438L249.39165,416.44438L
				249.39165,416.20435L249.39165,415.96433L249.63168,415.96433L249.63168,415.7243L249.87171,415.7243L249.87171,415.48427L249.87171,415.24425
				L250.11174,415.24425L250.11174,415.00422L250.11174,414.7642L250.11174,414.52417L250.35177,414.52417L250.35177,413.8041L250.35177,413.56407
				L250.35177,413.32404L250.35177,413.08402L250.35177,412.60397L250.35177,412.36394L250.5918,412.36394L250.5918,412.12392L250.5918,411.64387
				L250.5918,411.16381L250.5918,410.92379L250.5918,410.20371L250.5918,409.48364L250.5918,409.00358L250.5918,408.76356L250.5918,408.28351
				L250.5918,408.04348L250.83183,408.04348L250.83183,407.80346L250.83183,407.56343L251.07186,407.56343L251.07186,407.32341L
				251.07186,407.08338L251.31189,407.08338L251.31189,406.84335L251.31189,406.60333L251.55192,406.60333L251.55192,406.3633L251.55192,406.12328
				L251.79195,406.12328L251.79195,405.88325L251.79195,405.64323L252.03198,405.64323L252.03198,405.4032L252.03198,405.16318L
				252.27201,405.16318L252.27201,404.92315L252.27201,404.68312L252.51205,404.68312L252.51205,404.4431L252.51205,404.20307L252.75208,404.20307
				L252.75208,403.96305L252.99211,403.96305L252.99211,403.72302L252.99211,403.483L253.23214,403.483L253.23214,403.24297L253.23214,403.00294
				L253.47217,403.00294L253.47217,402.76292L253.47217,402.52289L253.7122,402.52289L253.7122,402.28287L253.7122,402.04284L253.95223,402.04284
				L253.95223,401.80282L253.95223,401.56279L254.19226,401.56279L254.19226,401.32277L254.19226,401.08274L254.43229,401.08274
				L254.43229,400.84271L254.43229,400.60269L254.67232,400.60269L254.67232,400.36266L254.91235,400.36266L254.91235,400.12264
				L254.91235,399.88261L254.91235,399.64259L255.15238,399.64259L255.15238,399.40256L255.39241,399.40256L255.39241,399.16254
				L255.39241,398.92251L255.63244,398.92251L255.63244,398.68248L255.87247,398.68248L255.87247,398.44246L256.1125,398.44246L
				256.1125,398.20243L256.35253,398.20243L256.35253,397.96241L256.59256,397.96241L256.59256,397.72238L256.83259,397.72238L256.83259,397.48236
				L257.07262,397.48236L257.07262,397.24233L257.07262,397.00231L257.31265,397.00231L257.31265,396.76228L257.55268,396.76228
				L257.55268,396.52225L257.79272,396.52225L257.79272,396.28223L258.03275,396.28223L258.03275,396.0422L258.27278,396.0422L258.27278,395.80218
				L258.51281,395.80218L258.51281,395.56215L258.51281,395.32213L258.75284,395.32213L258.99287,395.32213L258.99287,395.0821L
				259.2329,395.0821L259.2329,394.84208L259.47293,394.84208L259.47293,394.60205L259.47293,394.36202L259.71296,394.36202L259.95299,394.36202
				L259.95299,394.122L260.19302,394.122L260.19302,393.88197L260.43305,393.88197L260.43305,393.64195L260.43305,393.40192L260.67308,393.40192
				L260.91311,393.40192L260.91311,393.1619L260.91311,392.92187L261.15314,392.92187L261.15314,392.20179L261.15314,391.96177L
				261.15314,391.72174L261.39317,391.72174L261.39317,391.48172L261.39317,391.24169L261.39317,391.00167L261.6332,391.00167L261.6332,390.76164
				L261.6332,390.52161L261.6332,390.28159L261.87323,390.28159L261.87323,390.04156L261.6332,390.04156L261.6332,389.56151L261.6332,389.08146
				L261.6332,388.84144L261.87323,388.84144L261.87323,388.60141L261.87323,388.36138L261.87323,388.12136L262.11326,388.12136L
				262.11326,387.88133L262.11326,387.64131L262.11326,387.40128L262.11326,387.16126L262.35329,387.16126L262.35329,386.92123L
				262.35329,386.68121L262.35329,386.44118L262.59332,386.44118L262.59332,386.20115L262.59332,385.96113L262.83335,385.96113L
				262.83335,385.7211L262.83335,385.48108L262.83335,385.24105L263.07339,385.24105L263.07339,385.00103L263.07339,384.761L263.07339,384.52098
				L263.31342,384.52098L263.31342,384.28095L263.31342,384.04092L263.55345,384.04092L263.55345,383.8009L263.79348,383.8009L263.79348,383.56087
				L263.79348,383.32085L264.03351,383.32085L264.03351,383.08082L264.03351,382.8408L264.03351,382.60077L264.27354,382.60077L
				264.27354,382.36075L264.51357,382.36075L264.51357,382.12072L264.51357,381.88069L264.7536,381.88069L264.99363,381.88069L264.99363,381.64067
				L264.99363,381.40064L265.23366,381.40064L265.47369,381.40064L265.47369,381.16062L265.71372,381.16062L265.71372,380.92059
				L265.95375,380.92059L265.95375,380.68057L266.19378,380.68057L266.19378,380.44054L266.43381,380.44054L266.43381,380.20051
				L266.67384,380.20051L266.67384,379.96049L266.91387,379.96049L266.91387,379.72046L267.1539,379.72046L267.1539,379.48044L267.39393,379.48044
				L267.39393,379.24041L267.63396,379.24041L267.63396,379.00039L267.87399,379.00039L267.87399,378.76036L268.11402,378.76036
				L268.35406,378.76036L268.35406,378.52034L268.59409,378.52034L268.59409,378.28031L268.83412,378.28031L269.07415,378.28031
				L269.07415,378.04028L269.31418,378.04028L269.55421,378.04028L269.55421,377.80026L269.79424,377.80026L269.79424,377.56023
				L270.03427,377.56023L270.2743,377.56023L270.2743,377.32021L270.51433,377.32021L270.51433,377.08018L270.75436,377.08018L270.75436,376.84016
				L270.99439,376.84016L271.23442,376.84016L271.71448,376.84016L271.71448,376.60013L271.95451,376.60013L272.19454,376.60013
				L272.19454,376.36011L272.43457,376.36011L272.6746,376.36011L272.6746,376.12008L272.6746,375.88005L272.6746,375.4L272.91463,375.4
				L272.91463,374.91995L272.91463,374.67993L272.91463,374.4399L273.15466,374.4399L273.15466,373.95985L273.15466,373.71982L273.15466,373.4798
				L273.3947,373.4798L273.3947,372.99975L273.3947,372.75972L273.3947,372.5197L273.63473,372.5197L273.63473,372.27967L273.63473,372.03965
				L273.63473,371.79962L273.87476,371.79962L273.87476,371.55959L273.87476,371.31957L273.87476,370.11944L273.87476,369.87942
				L273.63473,369.87942L273.63473,369.63939L273.63473,369.39936L273.3947,369.39936L273.15466,369.39936L273.15466,369.15934L
				272.91463,369.15934L272.6746,369.15934L272.6746,368.91931L272.19454,368.91931L271.95451,368.91931L271.95451,368.67929L271.71448,368.67929
				L271.71448,368.19924L271.71448,367.71918L271.95451,367.71918L271.95451,367.47916L272.19454,367.47916L272.19454,367.23913
				L272.19454,366.99911L272.43457,366.99911L272.43457,366.75908L272.6746,366.75908L272.6746,366.51906L272.91463,366.51906L273.15466,366.51906
				L273.15466,366.27903L273.3947,366.27903L273.63473,366.27903L273.63473,366.03901L273.87476,366.03901L274.11479,366.03901L
				274.11479,365.79898L274.35482,365.79898L274.59485,365.79898L274.83488,365.79898L274.83488,365.55895L275.07491,365.55895L
				275.31494,365.55895L275.795,365.55895L275.795,365.31893L276.03503,365.31893L276.27506,365.31893L276.27506,365.0789L276.51509,365.0789
				L276.51509,364.83888L276.51509,364.59885L276.75512,364.59885L276.75512,364.35883L276.99515,364.35883L276.99515,364.1188L
				277.23518,364.1188L277.23518,363.87878L277.47521,363.87878L277.71524,363.87878L277.95527,363.87878L278.1953,363.87878L278.1953,363.63875
				L278.43533,363.63875L278.43533,363.39872L278.67537,363.39872L278.9154,363.39872L278.9154,363.1587L279.15543,363.1587L279.39546,363.1587
				L279.63549,363.1587L279.87552,363.1587L280.11555,363.1587L280.11555,362.91867L280.35558,362.91867L280.59561,362.91867L280.59561,363.1587
				L280.83564,363.1587L281.07567,363.1587L281.07567,363.39872L281.3157,363.39872L281.55573,363.39872L281.55573,363.63875L281.79576,363.63875
				L282.03579,363.63875L282.03579,363.87878L282.27582,363.87878L282.51585,363.87878L282.51585,364.1188L282.75588,364.1188L282.99591,364.1188
				L282.99591,364.35883L283.23594,364.35883L283.23594,364.59885L283.47597,364.59885L283.716,364.59885L283.716,364.83888L283.95604,364.83888
				L283.95604,365.0789L283.95604,365.31893L283.95604,365.55895L284.19607,365.55895L284.19607,366.03901L284.19607,366.27903L
				284.4361,366.27903L284.4361,366.51906L284.67613,366.51906L284.67613,366.75908L284.91616,366.75908L285.15619,366.75908L285.39622,366.75908
				L285.39622,366.99911L285.63625,366.99911L285.63625,367.23913L285.87628,367.23913L286.11631,367.23913L286.11631,367.47916
				L286.35634,367.47916L286.59637,367.47916L286.59637,367.71918L286.8364,367.71918L287.07643,367.71918L287.31646,367.71918L
				287.31646,367.95921L287.55649,367.95921L287.79652,367.95921L287.79652,368.19924L288.03655,368.19924L288.27658,368.19924L
				288.51661,368.19924L288.51661,368.43926L288.75664,368.43926L288.99668,368.43926L288.99668,368.67929L289.23671,368.67929L
				289.47674,368.67929L289.47674,368.91931L289.71677,368.91931L289.71677,369.15934L289.9568,369.15934L290.19683,369.15934L290.19683,369.39936
				L290.43686,369.39936L290.43686,369.63939L290.67689,369.63939L290.67689,369.87942L290.91692,369.87942L290.91692,370.11944
				L291.15695,370.11944L291.15695,370.35947L291.39698,370.35947L291.39698,370.59949L291.63701,370.59949L291.63701,370.83952
				L291.87704,370.83952L291.87704,371.07954L292.11707,371.07954L292.11707,371.31957L292.3571,371.31957L292.3571,371.55959L292.59713,371.55959
				L292.59713,371.79962L292.83716,371.79962L292.83716,372.03965L293.07719,372.03965L293.31722,372.03965L293.31722,372.27967
				L293.55725,372.27967L293.79728,372.27967L293.79728,372.5197L294.03731,372.5197L294.27735,372.5197L294.27735,372.75972L294.51738,372.75972
				L294.99744,372.75972L295.23747,372.75972L295.23747,372.99975L295.4775,372.99975L295.71753,372.99975L295.71753,373.23977L
				295.95756,373.23977L296.19759,373.23977L296.19759,373.4798L296.43762,373.4798L296.67765,373.4798L296.91768,373.4798L296.91768,373.71982
				L297.15771,373.71982L297.15771,373.95985L297.39774,373.95985L297.63777,373.95985L300.27811,373.95985L300.27811,374.19988
				L300.51814,374.19988L300.51814,374.4399L300.51814,374.19988L301.95832,374.19988L301.95832,374.4399L302.43838,374.4399L301.71829,374.4399
				L300.27811,374.4399L298.11783,374.4399L298.11783,374.67993L298.35786,374.67993L298.35786,374.91995L298.59789,374.91995L298.83792,374.91995
				L298.83792,375.15998L299.07795,375.15998L299.31798,375.15998L299.31798,375.4L299.55802,375.4L299.79805,375.4L299.79805,375.64003
				L300.03808,375.64003L300.27811,375.64003L300.27811,375.88005L300.51814,375.88005L300.51814,376.12008L300.75817,376.12008
				L300.9982,376.12008L301.47826,376.12008L301.47826,375.88005L301.71829,375.88005L301.95832,375.88005L302.43838,375.88005L
				302.43838,375.64003L302.43838,374.67993L302.43838,374.4399L302.43838,374.67993L302.67841,374.67993L302.67841,374.91995L302.91844,374.91995
				L302.91844,375.15998L303.15847,375.15998L303.15847,375.4L303.3985,375.4L303.63853,375.4L303.87856,375.4L303.87856,375.64003
				L304.11859,375.64003L304.35862,375.64003L304.35862,375.88005L304.59865,375.88005L304.59865,376.12008L304.59865,376.36011
				L304.83869,376.36011L304.83869,376.60013L305.07872,376.60013L305.07872,376.84016L305.31875,376.84016L305.31875,377.08018
				L305.31875,377.32021L305.31875,377.56023L305.31875,377.80026L305.31875,378.04028L305.31875,378.28031L305.55878,378.28031
				L305.55878,378.52034L305.79881,378.52034L305.79881,378.76036L305.79881,379.00039L306.03884,379.00039L306.03884,379.24041
				L306.27887,379.24041L306.27887,379.48044L306.27887,379.72046L306.5189,379.72046L306.5189,379.96049L306.75893,379.96049L306.75893,380.20051
				L306.99896,380.20051L306.99896,380.44054L306.99896,380.68057L307.23899,380.68057L307.23899,380.92059L307.23899,381.16062
				L307.23899,381.40064L307.23899,381.88069L307.47902,381.88069L307.47902,382.36075L307.47902,383.08082L307.71905,383.08082
				L307.71905,383.32085L307.71905,383.56087L307.95908,383.56087L307.95908,383.8009L307.95908,384.04092L308.19911,384.04092L
				308.19911,384.28095L308.19911,384.52098L308.43914,384.52098L308.43914,384.761L308.67917,384.761L308.67917,385.00103L308.9192,385.00103
				L308.9192,385.24105L308.9192,385.48108L309.15923,385.48108L309.15923,385.7211L309.15923,385.96113L309.39926,385.96113L309.39926,386.20115
				L309.63929,386.20115L309.87933,386.20115L309.87933,386.44118L309.87933,386.68121L310.11936,386.68121L310.11936,386.92123
				L310.35939,386.92123L310.35939,387.16126L310.59942,387.16126L310.83945,387.16126L310.83945,387.40128L310.83945,387.64131
				L310.83945,387.88133L311.07948,387.88133L311.07948,388.12136L311.31951,388.12136L311.31951,388.36138L311.55954,388.36138
				L311.55954,388.60141L311.55954,388.84144L311.55954,389.08146L311.79957,389.08146L311.79957,389.32149"/>
			<path clip-path="url(#SVG_CP_2)" fill="none" stroke="#999999" stroke-width="0.96012" stroke-miterlimit="10" stroke-linecap="round" stroke-linejoin="round" d="
				M311.79957,389.32149L311.79957,389.56151L312.0396,389.56151L312.0396,389.80154L312.27963,389.80154L312.27963,390.04156L312.27963,390.28159
				L312.27963,390.52161L312.51966,390.52161L312.51966,390.76164L312.51966,391.00167L312.75969,391.00167L312.75969,391.24169
				L312.75969,391.48172L312.99972,391.48172L312.99972,391.72174L312.99972,391.96177L313.23975,391.96177L313.23975,392.20179
				L313.47978,392.20179L313.47978,392.44182L313.71981,392.44182L313.71981,392.68185L313.95984,392.68185L314.19987,392.68185
				L314.19987,392.92187L314.19987,393.1619L314.4399,393.1619L314.4399,393.40192L314.67993,393.40192L314.67993,393.64195L314.91996,393.64195
				L314.91996,393.88197L315.16,393.88197L315.40003,393.88197L315.40003,394.122L315.64006,394.122L315.88009,394.122L315.88009,394.36202
				L316.12012,394.36202L316.36015,394.36202L316.36015,394.60205L316.60018,394.60205L316.84021,394.60205L316.84021,394.84208
				L317.08024,394.84208L317.08024,395.0821L317.32027,395.0821L317.32027,395.32213L317.5603,395.32213L317.5603,395.56215L317.80033,395.56215
				L317.80033,395.80218L318.04036,395.80218L318.04036,396.0422L318.28039,396.0422L318.28039,396.28223L318.52042,396.28223L318.52042,396.52225
				L318.76045,396.52225L318.76045,396.76228L319.00048,396.76228L319.00048,397.00231L319.00048,397.24233L319.24051,397.24233
				L319.24051,397.48236L319.24051,397.72238L319.48054,397.72238L319.48054,397.96241L319.48054,398.20243L319.48054,398.68248
				L319.72057,398.68248L319.72057,399.88261L319.72057,401.08274L319.72057,401.56279L319.72057,401.80282L319.9606,401.80282L
				319.9606,402.04284L319.9606,402.28287L319.9606,402.52289L320.20063,402.52289L320.20063,402.76292L320.20063,403.00294L320.44067,403.00294
				L320.44067,403.24297L320.44067,403.483L320.44067,403.72302L320.44067,403.96305L320.20063,403.96305L320.20063,404.20307L319.9606,404.20307
				L319.9606,404.4431L319.72057,404.4431L319.72057,404.68312L319.72057,405.16318L319.72057,405.4032L319.72057,405.64323L319.48054,405.64323
				L319.48054,405.88325L319.48054,406.12328L319.48054,406.3633L319.24051,406.3633L319.24051,406.60333L319.24051,406.84335L319.00048,406.84335
				L319.00048,407.08338L319.00048,407.32341L319.00048,407.56343L318.76045,407.56343L318.76045,407.80346L318.76045,408.04348
				L318.76045,408.28351L318.52042,408.28351L318.52042,408.52353L318.52042,410.68376L318.52042,413.8041L318.28039,413.8041L318.28039,415.48427
				L318.28039,416.44438L318.28039,416.92443L318.04036,416.92443L318.04036,417.40448L318.04036,417.88453L318.04036,418.60461
				L318.04036,418.84463L318.28039,418.84463L318.28039,419.08466L318.28039,419.32468L318.52042,419.32468L318.52042,419.56471
				L318.76045,419.56471L318.76045,419.80474L318.76045,420.04476L318.76045,420.28479L319.00048,420.28479L319.00048,420.52481
				L319.00048,420.76484L319.24051,420.76484L319.24051,421.00486L319.24051,421.24489L319.48054,421.24489L319.48054,421.48491
				L319.48054,421.72494L319.72057,421.72494L319.72057,422.20499L319.72057,422.44502L319.72057,422.68504L319.9606,422.68504L
				319.9606,422.92507L319.9606,423.16509L320.20063,423.16509L320.20063,423.40512L320.20063,423.64514L320.20063,423.88517L320.44067,423.88517
				L320.44067,424.1252L320.44067,424.36522L320.6807,424.36522L320.6807,424.60525L320.6807,424.84527L320.6807,425.0853L320.92073,425.0853
				L320.92073,425.32532L320.92073,425.56535L320.92073,425.80537L321.16076,425.80537L321.16076,426.0454L321.16076,426.28543L
				321.16076,426.52545L321.40079,426.52545L321.40079,426.76548L321.40079,427.0055L321.40079,427.24553L321.64082,427.24553L321.64082,427.48555
				L321.64082,427.9656L321.64082,428.20563L321.64082,428.44566L321.88085,428.44566L321.88085,428.92571L321.88085,429.16573L
				322.12088,429.16573L322.12088,429.40576L322.12088,429.64578L322.36091,429.64578L322.36091,429.88581L322.36091,430.12584L
				322.36091,430.36586L322.60094,430.36586L322.60094,430.60589L322.60094,430.84591L322.60094,431.08594L322.84097,431.08594L
				322.84097,431.32596L322.84097,431.56599L322.84097,431.80601L323.081,431.80601L323.081,432.04604L323.081,432.28607L323.32103,432.28607
				L323.32103,432.52609L323.32103,432.76612L323.32103,433.00614L323.56106,433.00614L323.56106,433.24617L323.56106,433.72622
				L323.56106,433.96624L323.80109,433.96624L323.80109,434.20627L323.80109,434.92635L323.80109,435.16637L323.80109,435.4064L
				324.04112,435.4064L324.04112,435.64642L324.04112,436.12647L324.04112,438.52673L324.04112,439.00678L324.04112,439.24681L323.80109,439.24681
				L323.80109,439.96688L323.80109,440.20691L324.04112,440.20691L324.04112,440.68696L323.80109,440.68696L323.80109,441.40704
				L323.80109,442.12711L323.80109,442.60717L323.56106,442.60717L323.56106,443.08722L323.56106,443.32724L323.32103,443.32724
				L323.32103,443.56727L323.32103,443.80729L323.32103,444.28734L323.32103,444.7674L323.56106,444.7674L323.56106,446.92763L323.56106,447.16765
				L323.56106,447.40768L323.80109,447.40768L323.80109,447.88773L323.56106,447.88773L323.56106,448.6078L323.80109,448.6078L323.80109,448.84783
				L323.80109,449.08786L324.04112,449.08786L324.04112,449.32788L324.04112,449.56791L324.28115,449.56791L324.28115,449.80793
				L324.28115,450.28798L324.28115,451.24809L324.04112,451.24809L324.04112,451.96816L324.04112,452.20819L324.04112,452.44821
				L324.28115,452.44821L324.28115,452.68824L324.52118,452.68824L324.52118,452.92826L324.76121,452.92826L324.76121,453.16829
				L325.00124,453.16829L325.00124,453.40832L325.24127,453.40832L325.24127,453.64834L325.48131,453.64834L325.48131,453.88837
				L325.48131,454.12839L325.72134,454.12839L325.72134,454.36842L325.72134,454.60844L325.96137,454.60844L325.96137,454.84847
				L325.96137,455.0885L325.96137,455.32852L325.96137,455.56855L326.2014,455.56855L326.2014,455.80857L326.2014,456.0486L326.44143,456.0486
				L326.44143,456.28862L326.44143,456.52865L326.44143,457.24873L326.44143,458.68888L326.44143,461.08913L326.2014,461.08913L
				326.2014,461.32916L326.2014,462.04924L326.2014,462.28926L326.2014,463.00934L326.2014,463.24936L325.96137,463.24936L325.96137,463.48939
				L325.96137,463.72942L325.96137,464.20947L325.96137,464.44949L326.2014,464.44949L326.2014,464.68952L326.44143,464.68952L326.44143,464.92954
				L326.68146,464.92954L326.68146,465.16957L326.92149,465.16957L326.92149,465.40959L326.92149,465.64962L327.16152,465.64962
				L327.16152,465.88965L327.16152,466.12967L327.16152,466.3697L327.40155,466.3697L327.40155,467.08977L327.40155,467.56983L327.16152,467.56983
				L327.16152,468.04988L327.16152,468.52993L327.16152,468.76995L326.92149,468.76995L326.92149,469.49003L326.92149,469.73006
				L326.92149,470.21011L327.16152,470.21011L327.16152,470.69016L327.16152,471.17021L327.16152,471.41023L326.92149,471.41023
				L326.92149,471.65026L326.92149,471.89029L326.92149,472.13031L326.68146,472.13031L326.68146,472.37034L326.68146,472.61036
				L326.44143,472.61036L326.44143,472.85039L326.2014,472.85039L326.2014,473.09041L326.2014,473.57046L325.96137,473.57046L325.96137,473.33044
				L325.72134,473.33044L325.72134,472.85039L325.96137,472.85039L325.96137,472.37034L325.48131,472.37034L325.00124,472.37034
				L324.28115,472.37034L324.28115,472.13031L323.80109,472.13031L323.32103,472.13031L323.32103,471.89029L323.56106,471.89029
				L323.56106,471.41023L323.56106,470.93018L323.56106,470.45013L323.80109,470.45013L323.80109,469.97008L323.56106,469.97008
				L323.081,469.97008L322.60094,469.97008L322.12088,469.97008L322.12088,469.73006L321.64082,469.73006L321.40079,469.73006L320.92073,469.73006
				L320.92073,469.49003L320.44067,469.49003L320.44067,469.73006L320.20063,469.73006L320.20063,469.97008L320.20063,470.45013
				L320.20063,470.69016L319.9606,470.69016L319.9606,471.17021L319.24051,471.17021L318.76045,471.17021L318.76045,472.61036L318.76045,473.09041
				L318.52042,473.09041L318.28039,473.09041L318.28039,472.85039L318.04036,472.85039L317.80033,472.85039L317.80033,472.61036
				L317.5603,472.61036L317.32027,472.61036L317.08024,472.61036L316.84021,472.61036L316.60018,472.61036L316.36015,472.61036L
				316.36015,472.37034L316.12012,472.37034L316.12012,472.13031L315.88009,472.13031L315.64006,472.13031L315.64006,471.89029L
				315.40003,471.89029L315.40003,471.65026L315.40003,471.41023L315.40003,471.17021L315.64006,471.17021L315.64006,470.69016L
				315.88009,470.69016L315.88009,470.21011L315.88009,469.49003L315.88009,468.52993L316.12012,468.52993L316.12012,468.04988L
				315.88009,468.04988L315.88009,467.80985L315.64006,467.80985L315.64006,467.56983L315.40003,467.56983L315.40003,467.3298L315.16,467.3298
				L315.16,467.08977L314.91996,467.08977L314.91996,467.80985L314.91996,468.76995L315.16,468.76995L315.16,469.00998L314.91996,469.00998
				L314.67993,469.00998L314.67993,469.25L314.4399,469.25L314.19987,469.25L313.95984,469.25L313.95984,469.49003L313.47978,469.49003
				L313.47978,468.76995L313.47978,467.80985L313.47978,466.84975L313.95984,466.84975L313.95984,466.60972L314.4399,466.60972L
				314.4399,466.3697L314.19987,466.3697L313.95984,466.3697L313.95984,466.12967L313.47978,466.12967L313.23975,466.12967L313.23975,466.3697
				L312.99972,466.3697L312.51966,466.3697L312.27963,466.3697L310.35939,466.3697L309.87933,466.3697L309.63929,466.3697L309.15923,466.3697
				L308.9192,466.3697L308.67917,466.3697L308.67917,466.12967L308.43914,466.12967L308.19911,466.12967L308.19911,465.88965L307.71905,465.88965
				L307.47902,465.88965L306.99896,465.88965L306.99896,466.12967L306.75893,466.12967L306.75893,445.96752"/>
			<path clip-path="url(#SVG_CP_2)" fill="none" stroke="#999999" stroke-width="0.96012" stroke-miterlimit="10" stroke-linecap="round" stroke-linejoin="round" d="
				M285.63625,474.29054L285.39622,474.29054L285.39622,474.05052L285.15619,474.05052L284.91616,474.05052L284.91616,473.81049
				L284.67613,473.81049L284.67613,473.57046L284.91616,473.57046L284.91616,473.81049L285.15619,473.81049L285.39622,473.81049
				L285.39622,474.05052L285.63625,474.05052L285.63625,474.29054L285.63625,474.29054"/>
			<path clip-path="url(#SVG_CP_2)" fill="none" stroke="#999999" stroke-width="0.96012" stroke-miterlimit="10" stroke-linecap="round" stroke-linejoin="round" d="
				M318.28039,478.37098L318.04036,478.37098L318.04036,478.13095L318.28039,478.13095L318.28039,477.89092L318.28039,477.6509L
				318.28039,477.17085L318.52042,477.17085L318.52042,476.93082L318.76045,476.93082L319.48054,476.93082L319.48054,477.17085L
				319.72057,477.17085L319.72057,477.41087L319.72057,477.6509L319.72057,477.41087L319.48054,477.41087L319.24051,477.41087L319.24051,477.17085
				L319.00048,477.17085L319.00048,477.41087L318.76045,477.41087L318.76045,477.6509L318.76045,477.89092L318.52042,477.89092L
				318.52042,478.13095L318.28039,478.13095L318.28039,478.37098L318.28039,478.37098"/>
			<path clip-path="url(#SVG_CP_2)" fill="none" stroke="#999999" stroke-width="0.96012" stroke-miterlimit="10" stroke-linecap="round" stroke-linejoin="round" d="
				M318.04036,478.611L318.04036,478.611"/>
		</g>
</g></svg>