<?xml version="1.0" encoding="utf-8" standalone="no"?>
<!-- Creator: ESRI ArcMap 10.0.0.2414 -->
<!DOCTYPE svg PUBLIC "-//W3C//DTD SVG 1.1//EN"  "http://www.w3.org/Graphics/SVG/1.1/DTD/svg11.dtd">
<svg width="595.50236pt" height="595.50236pt" viewBox="25 148.377955 545.50236 545.50236" enable-background="new 25 148.377955 545.50236 545.50236"
	version="1.1" xmlns="http://www.w3.org/2000/svg" xmlns:xlink="http://www.w3.org/1999/xlink" >
	<g id="Couches">
		<g id="reservoirs">
			<clipPath id="SVG_CP_2">
				<path d="M574.39289,21.36228L21.36271,21.36228L21.36271,821.36753L574.39289,821.36753L574.39289,21.36228z"/>
			</clipPath>
			<path clip-path="url(#SVG_CP_2)" fill-opacity="0.08" fill="#2f4493" fill-rule="evenodd" stroke="#2f4493" stroke-width="1" stra="1.44018" stroke-miterlimit="10" stroke-linecap="round" stroke-linejoin="round" d="
				M12.00152,861.21177L10.08128,834.08888L6.72085,801.20538L4.32055,771.92226L33.60426,737.5986L37.68478,733.03811L52.32664,716.9564
				L89.53136,674.95192L143.05815,615.18556L179.30275,575.58133L222.50824,527.33619L254.43229,491.33236L265.95375,496.61292L
				267.1539,497.333L273.63473,497.333L276.27506,500.2133L277.71524,505.25384L278.67537,510.05435L279.63549,516.29502L279.63549,521.09553
				L291.15695,529.73645L297.8778,533.33683L303.15847,534.77699L309.15923,535.01701L314.19987,535.97711L320.44067,539.09745L
				325.72134,543.89796L329.80185,549.41855L331.00201,549.41855L336.04265,550.13862L340.84325,549.8986L346.12392,549.65857L353.56487,551.09873
				L356.68526,553.97903L357.40536,554.93914L353.8049,560.2197L344.44371,574.86126L342.52347,579.66177L342.28344,585.18236L342.7635,589.50282
				L347.08405,599.58389L349.96441,607.74476L352.12469,617.34579L351.40459,622.86637L349.72438,628.14694L345.40383,635.3477L
				341.80338,639.66816L333.88237,649.26919L325.24127,660.31036L322.60094,664.87085L320.92073,671.35154L319.9606,679.27238L319.24051,684.79297
				L316.12012,697.51433L316.12012,697.75435L314.4399,701.59476L312.51966,703.75499L308.9192,706.87533L302.67841,710.23568L290.91692,715.27622
				L285.63625,719.11663L288.03655,723.19706L290.91692,729.43773L295.23747,737.83863L308.19911,741.67903L312.51966,765.92162
				L311.79957,766.88172L310.83945,767.6018L297.8778,752.96024L297.8778,752.72021L297.63777,757.04067L288.99668,766.64169L287.55649,771.68223
				L291.15695,777.44285L299.55802,791.84438L299.79805,792.32443L307.23899,791.60435L323.081,811.7665L324.04112,816.08696L323.80109,816.08696
				L329.80185,822.80768L326.44143,827.60819L321.16076,830.4885L316.84021,832.64873L308.9192,834.32891L298.11783,836.00909L287.79652,837.44924
				L274.59485,840.56957L265.23366,843.92993L254.91235,850.1706L240.03046,861.21177L12.00152,861.21177z"/>
			<path clip-path="url(#SVG_CP_2)" fill-opacity="0.08" fill="#2f4493" fill-rule="evenodd" stroke="#2f4493" stroke-width="1" stra="1.44018" stroke-miterlimit="10" stroke-linecap="round" stroke-linejoin="round" d="
				M601.9964,475.01062L580.39365,475.73069L519.18589,466.84975L505.02409,446.20755L498.7833,437.3266L490.1422,416.92443L512.46503,404.68312
				L509.58467,399.64259L500.70354,384.04092L491.58238,371.55959L480.54098,361.95857L470.93976,358.35819L448.3769,372.99975L
				442.13611,377.08018L438.05559,377.56023L423.1737,340.11624L403.97127,304.11241L413.33245,300.03197L439.01571,287.79067L457.25803,279.14975
				L453.8976,272.66906L445.73657,257.06739L448.61693,255.86727L458.93824,251.30678L433.73504,234.26496L402.53108,212.90269L
				405.17142,203.06164L405.17142,202.58159L404.69136,202.34156L403.4912,202.58159L404.2113,200.18133L404.2113,199.70128L383.56868,199.70128
				L367.9667,195.38082L365.80642,201.62149L349.24432,188.18005L333.88237,216.7431L316.36015,234.50499L319.00048,237.62532L332.44219,253.70704
				L332.92225,254.42711L316.84021,274.34924L336.28268,291.63108L331.7221,298.59182L316.36015,320.9142L332.20216,343.95665L321.16076,347.07699
				L312.27963,346.59693L308.43914,343.4766L304.11859,338.67609L289.47674,307.47277L305.07872,299.55192L299.55802,286.11049L
				301.71829,282.75013L280.11555,246.02622L264.7536,255.62724L260.43305,261.86791L238.35025,251.54681L246.27125,233.06484L235.22985,225.62404
				L193.94461,216.98312L188.18388,236.42519L185.30352,302.43223L127.45618,254.18709L98.65252,325.71471L150.4991,376.36011L110.89407,445.48747
				L68.64871,519.41535L59.28752,537.89732L54.24688,551.8188L-6.24079,592.38313L-6.24079,-18.722L601.9964,-18.722L601.9964,475.01062
				z"/>
		</g>
</g></svg>