<?xml version="1.0" encoding="utf-8" standalone="no"?>
<!-- Creator: ESRI ArcMap 10.0.0.2414 -->
<!DOCTYPE svg PUBLIC "-//W3C//DTD SVG 1.1//EN"  "http://www.w3.org/Graphics/SVG/1.1/DTD/svg11.dtd">
<svg width="595.50236pt" height="595.50236pt" viewBox="25 148.377955 545.50236 545.50236" enable-background="new 25 148.377955 545.50236 545.50236"
	version="1.1" xmlns="http://www.w3.org/2000/svg" xmlns:xlink="http://www.w3.org/1999/xlink" >
	<g id="Couches">
		<g id="reservoirs">
			<path clip-path="url(#SVG_CP_2)" fill-opacity="0.2" fill="#07866D" fill-rule="evenodd" stroke="none" stroke-width="" stra="1.44018" stroke-miterlimit="10" stroke-linecap="round" stroke-linejoin="round" d="
				M257.55268,363.63875L250.5918,377.08018L234.26973,376.84016L230.9093,362.43862L234.74979,360.75844L249.63168,336.75589L258.99287,296.19156
				L259.71296,292.59118L264.27354,272.42903L265.23366,267.38849L266.67384,261.86791L265.47369,258.26752L269.55421,256.58734
				L271.71448,258.9876L276.27506,259.46765L276.03503,263.30806L275.795,268.3486L271.95451,344.19668L257.55268,363.63875z"/>
			<path clip-path="url(#SVG_CP_2)" fill-opacity="0.2" fill="#07866D" fill-rule="evenodd" stroke="none" stroke-width="" stra="1.44018" stroke-miterlimit="10" stroke-linecap="round" stroke-linejoin="round" d="
				M2.64034,861.21177L-6.24079,852.33083L-6.24079,786.08377L-4.56058,788.96407L10.32131,781.04323L14.64186,777.68287L17.28219,775.52264
				L35.76454,761.36113L52.32664,742.63914L49.92634,740.47891L30.24384,721.03683L55.9271,684.79297L73.68935,664.87085L84.25069,659.59029
				L88.81127,669.19131L95.29209,666.07098L104.41325,661.03044L101.53289,654.78978L99.37261,650.22929L122.8956,640.38824L146.89864,622.86637
				L154.57962,620.22609L180.26288,620.94617L180.74294,620.94617L184.82346,624.30653L188.90397,628.14694L201.86562,639.66816
				L213.14705,622.86637L205.94614,615.90563L202.34568,612.7853L198.26516,608.94489L212.90702,592.1431L247.95147,572.461L292.3571,519.65538
				L327.16152,478.37098L374.20749,420.52481L419.81328,439.48683L436.13535,410.44374L398.21053,393.40192L437.09547,348.51714
				L449.09699,333.63555L458.45818,325.23466L462.5387,326.43479L503.82394,343.4766L500.70354,351.63747L511.74494,356.19796L508.86458,364.1188
				L540.06854,371.79962L548.94966,346.11688L523.9865,338.91612L547.26945,275.30934L570.79244,286.35051L577.27326,269.78875L
				555.19046,262.58798L553.27021,261.86791L553.27021,261.62788L565.99183,237.86535L568.1521,234.02494L571.2725,234.74502L588.07463,239.54553
				L598.15591,218.18325L601.9964,209.78236L601.9964,861.21177L2.64034,861.21177z"/>
		</g>
</g></svg>