<?xml version="1.0" encoding="utf-8" standalone="no"?>
<!-- Creator: ESRI ArcMap 10.0.0.2414 -->
<!DOCTYPE svg PUBLIC "-//W3C//DTD SVG 1.1//EN"  "http://www.w3.org/Graphics/SVG/1.1/DTD/svg11.dtd">
<svg width="595.50236pt" height="595.50236pt" viewBox="25 148.377955 545.50236 545.50236" enable-background="new 25 148.377955 545.50236 545.50236"
	version="1.1" xmlns="http://www.w3.org/2000/svg" xmlns:xlink="http://www.w3.org/1999/xlink" >
	<g id="Couches">
		<g id="cont_1">
			<clipPath id="SVG_CP_2">
				<path d="M574.39289,21.36228L21.36271,21.36228L21.36271,821.36753L574.39289,821.36753L574.39289,21.36228z"/>
			</clipPath>
			<path clip-path="url(#SVG_CP_2)" fill="none" stroke="#999999" stroke-width="0.96012" stroke-miterlimit="10" stroke-linecap="round" stroke-linejoin="round" d="
				M351.64463,364.59885L348.76426,364.59885L348.76426,367.47916L345.88389,367.47916L345.88389,370.35947L343.00353,370.35947
				L343.00353,373.23977L339.88313,373.23977L339.88313,376.36011L337.00277,376.36011L337.00277,379.24041L334.1224,379.24041L
				334.1224,382.12072L331.24204,382.12072L331.24204,385.00103L328.36167,385.00103L328.36167,387.88133L325.24127,387.88133L325.24127,391.00167
				L322.36091,391.00167L322.36091,393.88197L319.48054,393.88197L319.48054,396.76228L316.60018,396.76228L316.60018,399.64259
				L313.47978,399.64259L313.47978,402.76292L310.59942,402.76292L310.59942,405.64323L307.71905,405.64323L307.71905,408.52353
				L304.83869,408.52353L304.83869,411.40384L301.71829,411.40384L301.71829,414.52417L298.83792,414.52417L298.83792,417.40448
				L295.95756,417.40448L295.95756,420.28479L293.07719,420.28479L293.07719,423.16509L290.19683,423.16509L290.19683,432.04604
				L287.07643,432.04604L287.07643,437.80665L284.19607,437.80665L284.19607,449.56791L281.3157,449.56791L281.3157,446.6876L278.43533,446.6876
				L278.43533,443.80729L275.31494,443.80729L275.31494,452.68824L272.43457,452.68824L272.43457,464.44949L269.55421,464.44949
				L269.55421,473.09041L266.67384,473.09041L266.67384,481.97136L263.55345,481.97136L263.55345,490.85231L260.67308,490.85231
				L260.67308,499.49323L257.79272,499.49323L257.79272,508.37417L254.91235,508.37417L254.91235,517.25512L251.79195,517.25512
				L251.79195,529.01637L248.91159,529.01637L248.91159,537.65729L246.03122,537.65729L246.03122,546.53824L243.15086,546.53824
				L243.15086,555.41919L240.27049,555.41919L240.27049,564.06011L237.1501,564.06011L237.1501,575.82136L234.26973,575.82136L234.26973,584.70231
				L231.38936,584.70231L231.38936,593.58325L228.509,593.58325L228.509,602.22417L225.3886,602.22417L225.3886,605.34451L219.62787,605.34451
				L219.62787,608.22481L216.74751,608.22481L216.74751,611.10512L213.62711,611.10512L213.62711,613.98543L207.86638,613.98543
				L207.86638,617.10576L204.98601,617.10576L204.98601,619.98607L202.10565,619.98607L202.10565,622.86637L193.22452,622.86637
				L193.22452,619.98607L190.34416,619.98607L190.34416,617.10576L187.22376,617.10576L187.22376,613.98543L184.34339,613.98543
				L184.34339,611.10512L181.46303,611.10512L181.46303,608.22481L175.46227,608.22481L175.46227,605.34451L172.5819,605.34451L
				172.5819,602.22417L169.70154,602.22417L169.70154,599.34387L166.82117,599.34387L166.82117,596.46356L163.94081,596.46356L163.94081,593.58325
				L160.82041,593.58325L160.82041,590.46292L155.05968,590.46292L155.05968,587.58261L152.17931,587.58261L152.17931,584.70231
				L149.05892,584.70231L149.05892,581.822L146.17855,581.822L146.17855,578.94169L143.29819,578.94169L143.29819,575.82136L140.41782,575.82136
				L140.41782,572.94105L137.29742,572.94105L137.29742,570.06075L131.53669,570.06075L131.53669,567.18044L128.65633,567.18044
				L128.65633,564.06011L125.77596,564.06011L125.77596,561.1798L122.65557,561.1798L122.65557,558.29949L119.7752,558.29949L119.7752,552.29885
				L116.89483,552.29885L116.89483,549.41855L114.01447,549.41855L114.01447,546.53824L110.89407,546.53824L110.89407,543.65793
				L108.01371,543.65793L108.01371,540.77763L105.13334,540.77763L105.13334,537.65729L102.25298,537.65729L102.25298,534.77699
				L99.13258,534.77699L99.13258,531.89668L96.25222,531.89668L96.25222,529.01637L93.37185,529.01637L93.37185,525.89604L90.49148,525.89604
				L90.49148,523.01573L87.61112,523.01573L87.61112,520.13543L84.49072,520.13543L84.49072,517.25512L81.61036,517.25512L81.61036,514.13479
				L78.72999,514.13479L78.72999,511.25448L75.84963,511.25448L75.84963,508.37417L72.72923,508.37417L72.72923,505.49387L69.84886,505.49387
				L69.84886,499.49323L66.9685,499.49323L66.9685,496.61292L64.08813,496.61292L64.08813,493.73261L60.96774,493.73261L60.96774,490.85231
				L58.08737,490.85231L58.08737,487.73197L55.20701,487.73197L55.20701,484.85167L52.32664,484.85167L52.32664,481.97136L49.20624,481.97136
				L49.20624,479.09105L46.32588,479.09105L46.32588,475.97072L43.44551,475.97072L43.44551,473.09041L40.56515,473.09041L40.56515,470.21011
				L37.68478,470.21011L37.68478,467.3298L34.56439,467.3298L34.56439,464.44949L31.68402,464.44949L31.68402,461.32916L28.80366,461.32916
				L28.80366,458.44885L25.92329,458.44885L25.92329,455.56855L22.80289,455.56855L22.80289,452.68824L19.92253,452.68824L19.92253,449.56791
				L17.04216,449.56791L17.04216,446.6876L14.1618,446.6876L14.1618,443.80729L11.0414,443.80729L11.0414,440.92699L8.16104,440.92699
				L8.16104,437.80665L5.28067,437.80665L5.28067,434.92635L2.40031,434.92635L2.40031,432.04604L-3.60046,432.04604L-3.60046,429.16573
				L-6.24079,429.16573M-6.24079,740.23888L-3.60046,740.23888L-3.60046,743.35921L-0.48006,743.35921L-0.48006,746.23952L2.40031,746.23952
				L2.40031,749.11983L5.28067,749.11983L5.28067,752.00013L8.16104,752.00013L8.16104,754.88044L11.0414,754.88044L11.0414,758.00077
				L14.1618,758.00077L14.1618,760.88108L17.04216,760.88108L17.04216,763.76139L19.92253,763.76139L19.92253,766.64169L22.80289,766.64169
				L22.80289,769.76203L25.92329,769.76203L25.92329,772.64233L22.80289,772.64233L22.80289,775.52264L19.92253,775.52264L19.92253,778.40295
				L14.1618,778.40295L14.1618,781.52328L11.0414,781.52328L11.0414,784.40359L8.16104,784.40359L8.16104,787.28389L2.40031,787.28389
				L2.40031,790.1642L-0.48006,790.1642L-0.48006,793.04451L-3.60046,793.04451L-3.60046,796.16484L-6.24079,796.16484M234.26973,-18.722
				L234.26973,-14.16151L237.1501,-14.16151L237.1501,-8.4009L240.27049,-8.4009L240.27049,-2.40026L243.15086,-2.40026L243.15086,3.36036
				L246.03122,3.36036L246.03122,9.361L248.91159,9.361L248.91159,15.12161L251.79195,15.12161L251.79195,21.12225L254.91235,21.12225
				L254.91235,26.88287L257.79272,26.88287L257.79272,35.76381L254.91235,35.76381L254.91235,38.64412L251.79195,38.64412L251.79195,41.52443
				L248.91159,41.52443L248.91159,44.40473L246.03122,44.40473L246.03122,47.52506L243.15086,47.52506L243.15086,50.40537L240.27049,50.40537
				L240.27049,53.28568L237.1501,53.28568L237.1501,56.16599L234.26973,56.16599L234.26973,59.28632L231.38936,59.28632L231.38936,62.16663
				L228.509,62.16663L228.509,65.04693L225.3886,65.04693L225.3886,67.92724L222.50824,67.92724L222.50824,73.92788L219.62787,73.92788
				L219.62787,76.80819L216.74751,76.80819L216.74751,79.68849L213.62711,79.68849L213.62711,82.5688L207.86638,82.5688L207.86638,85.68913
				L202.10565,85.68913L202.10565,88.56944L196.10489,88.56944L196.10489,91.44975L190.34416,91.44975L190.34416,94.33005L184.34339,94.33005
				L184.34339,97.45038L181.46303,97.45038L181.46303,106.09131L184.34339,106.09131L184.34339,114.97225L187.22376,114.97225L187.22376,126.73351
				L190.34416,126.73351L190.34416,135.61445L193.22452,135.61445L193.22452,150.25601L190.34416,150.25601L190.34416,156.01663
				L187.22376,156.01663L187.22376,164.89757L184.34339,164.89757L184.34339,167.77788L181.46303,167.77788L181.46303,170.65819
				L178.58266,170.65819L178.58266,173.77852L172.5819,173.77852L172.5819,176.65883L169.70154,176.65883L169.70154,179.53913L166.82117,179.53913
				L166.82117,182.41944L160.82041,182.41944L160.82041,185.29975L157.94004,185.29975L157.94004,188.42008L155.05968,188.42008
				L155.05968,191.30039L149.05892,191.30039L149.05892,194.18069L146.17855,194.18069L146.17855,197.061L140.41782,197.061L140.41782,200.18133
				L137.29742,200.18133L137.29742,203.06164L134.41706,203.06164L134.41706,205.94195L128.65633,205.94195L128.65633,208.82225
				L125.77596,208.82225L125.77596,211.94259L122.65557,211.94259L122.65557,214.82289L116.89483,214.82289L116.89483,217.7032L
				114.01447,217.7032L114.01447,220.58351L110.89407,220.58351L110.89407,223.70384L105.13334,223.70384L105.13334,226.58415L102.25298,226.58415
				L102.25298,229.46445L99.13258,229.46445L99.13258,232.34476L93.37185,232.34476L93.37185,235.22507L90.49148,235.22507L90.49148,238.3454
				L87.61112,238.3454L87.61112,244.10601L96.25222,244.10601L96.25222,246.98632L102.25298,246.98632L102.25298,250.10665L108.01371,250.10665
				L108.01371,252.98696L116.89483,252.98696L116.89483,255.86727L122.65557,255.86727L122.65557,258.74757L131.53669,258.74757
				L131.53669,261.86791L137.29742,261.86791L137.29742,264.74821L143.29819,264.74821L143.29819,267.62852L152.17931,267.62852
				L152.17931,270.50883L157.94004,270.50883L157.94004,273.38913L166.82117,273.38913L166.82117,276.50947L172.5819,276.50947L
				172.5819,279.38977L178.58266,279.38977L178.58266,282.27008L187.22376,282.27008L187.22376,285.15039L193.22452,285.15039L193.22452,288.27072
				L202.10565,288.27072L202.10565,291.15103L207.86638,291.15103L207.86638,294.03133L213.62711,294.03133L213.62711,296.91164
				L222.50824,296.91164L222.50824,300.03197L228.509,300.03197L228.509,302.91228L237.1501,302.91228L237.1501,305.79259L243.15086,305.79259
				L243.15086,308.67289L248.91159,308.67289L248.91159,311.5532L257.79272,311.5532L257.79272,314.67353L263.55345,314.67353L263.55345,317.55384
				L272.43457,317.55384L272.43457,320.43415L278.43533,320.43415L278.43533,323.31445L284.19607,323.31445L284.19607,326.43479
				L293.07719,326.43479L293.07719,329.31509L298.83792,329.31509L298.83792,332.1954L307.71905,332.1954L307.71905,335.07571L313.47978,335.07571
				L313.47978,338.19604L319.48054,338.19604L319.48054,341.07635L328.36167,341.07635L328.36167,343.95665L334.1224,343.95665L
				334.1224,346.83696L343.00353,346.83696L343.00353,349.71727L348.76426,349.71727L348.76426,352.8376L351.64463,352.8376L351.64463,364.59885
				"/>
			<path clip-path="url(#SVG_CP_2)" fill="none" stroke="#999999" stroke-width="0.96012" stroke-miterlimit="10" stroke-linecap="round" stroke-linejoin="round" d="
				M513.18513,861.21177L513.18513,860.73172L519.18589,860.73172L519.18589,857.85141L524.94662,857.85141L524.94662,854.73108
				L530.94738,854.73108L530.94738,851.85077L533.82774,851.85077L533.82774,848.97047L536.70811,848.97047L536.70811,846.09016
				L539.58848,846.09016L539.58848,842.96983L545.58924,842.96983L545.58924,840.08952L548.4696,840.08952L548.4696,837.20921L551.34997,837.20921
				L551.34997,834.32891L557.35073,834.32891L557.35073,831.4486L563.11146,831.4486L563.11146,828.32827L571.99259,828.32827L571.99259,825.44796
				L569.11222,825.44796L569.11222,822.56765L565.99183,822.56765L565.99183,819.68735L563.11146,819.68735L563.11146,816.56701
				L560.2311,816.56701L560.2311,813.68671L557.35073,813.68671L557.35073,810.8064L554.23033,810.8064L554.23033,796.16484L551.34997,796.16484
				L551.34997,793.04451L548.4696,793.04451L548.4696,790.1642L545.58924,790.1642L545.58924,787.28389L542.46884,787.28389L542.46884,784.40359
				L533.82774,784.40359L533.82774,772.64233L530.94738,772.64233L530.94738,766.64169L527.82698,766.64169L527.82698,763.76139
				L524.94662,763.76139L524.94662,758.00077L522.06625,758.00077L522.06625,752.00013L519.18589,752.00013L519.18589,749.11983
				L516.06549,749.11983L516.06549,746.23952L513.18513,746.23952L513.18513,743.35921L495.6629,743.35921L495.6629,746.23952L486.78177,746.23952
				L486.78177,740.23888L483.90141,740.23888L483.90141,737.35857L481.02104,737.35857L481.02104,734.47827L477.90065,734.47827
				L477.90065,728.47763L475.02028,728.47763L475.02028,725.59732L472.13992,725.59732L472.13992,722.71701L469.25955,722.71701
				L469.25955,713.83607L472.13992,713.83607L472.13992,710.95576L475.02028,710.95576L475.02028,705.19515L477.90065,705.19515
				L477.90065,702.07481L481.02104,702.07481L481.02104,699.19451L483.90141,699.19451L483.90141,696.3142L486.78177,696.3142L486.78177,693.43389
				L492.78254,693.43389L492.78254,690.31356L498.54327,690.31356L498.54327,687.43325L501.42363,687.43325L501.42363,684.55295
				L504.304,684.55295L504.304,681.67264L507.42439,681.67264L507.42439,678.55231L504.304,678.55231L504.304,675.672L501.42363,675.672
				L501.42363,672.79169L498.54327,672.79169L498.54327,669.91139L495.6629,669.91139L495.6629,667.03108L492.78254,667.03108L492.78254,663.91075
				L489.66214,663.91075L489.66214,661.03044L486.78177,661.03044L486.78177,655.26983L483.90141,655.26983L483.90141,658.15013
				L481.02104,658.15013L481.02104,663.91075L477.90065,663.91075L477.90065,667.03108L475.02028,667.03108L475.02028,672.79169
				L469.25955,672.79169L469.25955,669.91139L466.13915,669.91139L466.13915,667.03108L463.25879,667.03108L463.25879,661.03044
				L460.37842,661.03044L460.37842,658.15013L457.49806,658.15013L457.49806,655.26983L454.37766,655.26983L454.37766,652.14949
				L451.4973,652.14949L451.4973,646.38888L448.61693,646.38888L448.61693,637.50793L445.73657,637.50793L445.73657,628.86701L448.61693,628.86701
				L448.61693,625.74668L451.4973,625.74668L451.4973,622.86637L454.37766,622.86637L454.37766,619.98607L457.49806,619.98607L457.49806,617.10576
				L460.37842,617.10576L460.37842,611.10512L463.25879,611.10512L463.25879,608.22481L466.13915,608.22481L466.13915,593.58325
				L463.25879,593.58325L463.25879,590.46292L460.37842,590.46292L460.37842,587.58261L457.49806,587.58261L457.49806,584.70231
				L454.37766,584.70231L454.37766,578.94169L427.97431,578.94169L427.97431,581.822L422.21358,581.822L422.21358,584.70231L416.21282,584.70231
				L416.21282,587.58261L413.33245,587.58261L413.33245,584.70231L410.45209,584.70231L410.45209,581.822L407.57172,581.822L407.57172,578.94169
				L404.69136,578.94169L404.69136,575.82136L398.6906,575.82136L398.6906,570.06075L401.57096,570.06075L401.57096,567.18044L404.69136,567.18044
				L404.69136,561.1798L407.57172,561.1798L407.57172,558.29949L410.45209,558.29949L410.45209,543.65793L407.57172,543.65793L407.57172,534.77699
				L404.69136,534.77699L404.69136,531.89668L401.57096,531.89668L401.57096,525.89604L398.6906,525.89604L398.6906,523.01573L395.81023,523.01573
				L395.81023,520.13543L392.92986,520.13543L392.92986,517.25512L386.9291,517.25512L386.9291,514.13479L381.16837,514.13479L381.16837,511.25448
				L375.16761,511.25448L375.16761,508.37417L369.40688,508.37417L369.40688,505.49387L366.52651,505.49387L366.52651,502.61356
				L363.40612,502.61356L363.40612,499.49323L357.64539,499.49323L357.64539,496.61292L354.76502,496.61292L354.76502,493.73261
				L348.76426,493.73261L348.76426,490.85231L345.88389,490.85231L345.88389,487.73197L339.88313,487.73197L339.88313,484.85167
				L337.00277,484.85167L337.00277,481.97136L331.24204,481.97136L331.24204,479.09105L328.36167,479.09105L328.36167,475.97072
				L322.36091,475.97072L322.36091,473.09041L319.48054,473.09041L319.48054,470.21011L313.47978,470.21011L313.47978,467.3298L
				310.59942,467.3298L310.59942,464.44949L304.83869,464.44949L304.83869,461.32916L298.83792,461.32916L298.83792,458.44885L295.95756,458.44885
				L295.95756,455.56855L290.19683,455.56855L290.19683,452.68824L287.07643,452.68824L287.07643,446.6876L290.19683,446.6876L290.19683,443.80729
				L293.07719,443.80729L293.07719,440.92699L295.95756,440.92699L295.95756,437.80665L298.83792,437.80665L298.83792,434.92635
				L301.71829,434.92635L301.71829,432.04604L304.83869,432.04604L304.83869,429.16573L307.71905,429.16573L307.71905,426.28543
				L310.59942,426.28543L310.59942,423.16509L313.47978,423.16509L313.47978,420.28479L316.60018,420.28479L316.60018,417.40448
				L319.48054,417.40448L319.48054,414.52417L322.36091,414.52417L322.36091,411.40384L325.24127,411.40384L325.24127,408.52353
				L328.36167,408.52353L328.36167,405.64323L331.24204,405.64323L331.24204,402.76292L334.1224,402.76292L334.1224,399.64259L337.00277,399.64259
				L337.00277,396.76228L339.88313,396.76228L339.88313,393.88197L343.00353,393.88197L343.00353,391.00167L345.88389,391.00167
				L345.88389,387.88133L348.76426,387.88133L348.76426,367.47916L351.64463,367.47916L351.64463,364.59885L354.76502,364.59885
				L354.76502,355.71791L363.40612,355.71791L363.40612,358.59821L369.40688,358.59821L369.40688,361.47852L378.04798,361.47852
				L378.04798,364.59885L384.04874,364.59885L384.04874,367.47916L389.80947,367.47916L389.80947,370.35947L398.6906,370.35947L
				398.6906,373.23977L404.69136,373.23977L404.69136,376.36011L413.33245,376.36011L413.33245,379.24041L419.33322,379.24041L419.33322,382.12072
				L427.97431,382.12072L427.97431,385.00103L433.97507,385.00103L433.97507,387.88133L439.7358,387.88133L439.7358,391.00167L448.61693,391.00167
				L448.61693,393.88197L454.37766,393.88197L454.37766,396.76228L463.25879,396.76228L463.25879,399.64259L469.25955,399.64259
				L469.25955,402.76292L475.02028,402.76292L475.02028,405.64323L483.90141,405.64323L483.90141,408.52353L489.66214,408.52353
				L489.66214,411.40384L498.54327,411.40384L498.54327,414.52417L504.304,414.52417L504.304,417.40448L510.30476,417.40448L510.30476,420.28479
				L519.18589,420.28479L519.18589,423.16509L524.94662,423.16509L524.94662,426.28543L533.82774,426.28543L533.82774,429.16573
				L539.58848,429.16573L539.58848,432.04604L545.58924,432.04604L545.58924,434.92635L554.23033,434.92635L554.23033,437.80665
				L560.2311,437.80665L560.2311,440.92699L569.11222,440.92699L569.11222,443.80729L574.87295,443.80729L574.87295,446.6876L580.63368,446.6876
				L580.63368,449.56791L589.51481,449.56791L589.51481,452.68824L595.51557,452.68824L595.51557,455.56855L601.2763,455.56855L
				601.2763,458.44885L601.9964,458.44885"/>
		</g>
</g></svg>