<?xml version="1.0" encoding="utf-8" standalone="no"?>
<!-- Creator: ESRI ArcMap 10.0.0.2414 -->
<!DOCTYPE svg PUBLIC "-//W3C//DTD SVG 1.1//EN"  "http://www.w3.org/Graphics/SVG/1.1/DTD/svg11.dtd">
<svg width="595.50236pt" height="595.50236pt" viewBox="25 148.377955 545.50236 545.50236" enable-background="new 25 148.377955 545.50236 545.50236"
	version="1.1" xmlns="http://www.w3.org/2000/svg" xmlns:xlink="http://www.w3.org/1999/xlink" >
	<g id="Couches">
		<g id="cont_2">
			<path clip-path="url(#SVG_CP_2)" fill="none" stroke="#999999" stroke-width="0.96012" stroke-miterlimit="10" stroke-linecap="round" stroke-linejoin="round" d="
				M354.52499,428.68568L354.52499,428.44566L354.28496,428.44566L354.28496,428.20563L354.04493,428.20563L354.04493,427.9656L
				353.8049,427.9656L353.8049,427.72558L353.56487,427.72558L353.56487,427.48555L352.36472,427.48555L352.36472,427.24553L352.12469,427.24553
				L351.88466,427.24553L351.88466,427.0055L351.64463,427.0055L351.64463,426.76548L351.64463,426.52545L351.40459,426.52545L351.16456,426.52545
				L351.16456,426.28543L350.92453,426.28543L350.92453,426.0454L350.92453,425.80537L350.6845,425.80537L350.44447,425.80537L350.44447,425.56535
				L350.20444,425.56535L350.20444,425.32532L350.20444,425.0853L349.96441,425.0853L349.72438,425.0853L349.72438,424.84527L349.48435,424.84527
				L349.48435,424.60525L349.48435,424.36522L349.24432,424.36522L349.00429,424.36522L349.00429,424.1252L348.76426,424.1252L348.76426,423.88517
				L348.76426,423.64514L348.52423,423.64514L348.2842,423.64514L348.2842,423.40512L348.04417,423.40512L348.04417,423.16509L347.80414,423.16509
				L347.80414,422.92507L347.56411,422.92507L347.56411,422.68504L347.32408,422.68504L347.32408,422.44502L347.08405,422.44502
				L347.08405,422.20499L346.84402,422.20499L346.60399,422.20499L346.60399,421.96497L346.36396,421.96497L346.36396,421.72494
				L346.36396,421.48491L346.12392,421.48491L346.12392,421.24489L345.88389,421.24489L345.64386,421.24489L345.64386,421.00486
				L345.64386,420.76484L345.40383,420.76484L345.40383,420.52481L345.1638,420.52481L344.92377,420.52481L344.92377,420.28479L
				344.92377,420.04476L344.68374,420.04476L344.68374,419.80474L344.44371,419.80474L344.20368,419.80474L344.20368,419.56471L
				344.20368,419.32468L343.96365,419.32468L343.96365,419.08466L343.72362,419.08466L343.48359,419.08466L343.48359,418.84463L
				343.48359,418.60461L343.24356,418.60461L343.24356,418.36458L281.55573,418.36458L281.3157,418.36458L281.3157,418.12456L281.07567,418.12456
				L281.07567,417.88453L280.83564,417.88453L280.83564,417.64451L280.59561,417.64451L280.35558,417.64451L280.35558,417.40448
				L280.11555,417.40448L280.11555,417.16445L280.11555,416.92443L279.87552,416.92443L279.63549,416.92443L279.63549,416.6844L
				279.39546,416.6844L279.39546,416.44438L279.39546,416.20435L279.15543,416.20435L216.74751,416.20435L216.74751,415.96433L216.50748,415.96433
				L216.50748,415.7243L216.26745,415.7243L216.26745,415.48427L216.02742,415.48427L216.02742,415.24425L215.78738,415.24425L215.78738,415.00422
				L215.54735,415.00422L215.54735,414.7642L215.30732,414.7642L215.30732,414.52417L215.06729,414.52417L215.06729,414.28415L214.82726,414.28415
				L214.82726,414.04412L214.58723,414.04412L214.58723,413.8041L214.3472,413.8041L214.3472,413.32404L214.58723,413.32404L214.58723,412.36394
				L214.58723,411.64387L214.82726,411.64387L214.82726,410.92379L215.06729,410.92379L215.06729,410.68376L214.82726,410.68376
				L214.82726,410.44374L214.58723,410.44374L214.58723,410.20371L214.58723,409.96369L214.3472,409.96369L214.3472,409.72366L214.10717,409.72366
				L214.10717,409.48364L213.86714,409.48364L213.86714,409.24361L213.62711,409.24361L213.62711,408.76356L213.38708,408.76356
				L213.38708,408.52353L213.14705,408.52353L213.14705,408.04348L212.90702,408.04348L212.90702,407.56343L212.66699,407.56343
				L212.66699,407.32341L212.42696,407.32341L212.42696,407.08338L212.18693,407.08338L212.18693,406.84335L212.18693,406.60333
				L211.9469,406.60333L211.9469,406.3633L211.70687,406.3633L211.70687,406.12328L211.46684,406.12328L211.46684,405.64323L211.22681,405.64323
				L211.22681,405.16318L211.46684,405.16318L211.46684,404.92315L211.70687,404.92315L212.18693,404.92315L212.18693,404.68312
				L212.18693,404.4431L212.66699,404.4431L212.66699,404.20307L212.90702,404.20307L213.14705,404.20307L213.14705,403.96305L213.62711,403.96305
				L213.62711,403.72302L213.86714,403.72302L213.86714,403.483L214.10717,403.483L214.58723,403.483L214.58723,403.24297L214.58723,403.00294
				L215.06729,403.00294L215.06729,402.76292L215.30732,402.76292L215.54735,402.76292L215.54735,402.52289L216.02742,402.52289
				L216.02742,402.28287L216.26745,402.28287L216.26745,402.04284L216.50748,402.04284L215.78738,402.04284L213.62711,402.04284
				L213.62711,402.28287L213.38708,402.28287L213.38708,400.84271L213.62711,400.84271L213.62711,400.60269L213.86714,400.60269
				L213.86714,400.36266L214.3472,400.36266L216.50748,400.36266L216.50748,400.12264L216.98754,400.12264L216.98754,399.88261L
				217.22757,399.88261L217.22757,399.64259L217.4676,399.64259L217.4676,399.40256L217.70763,399.40256L217.70763,398.44246L217.4676,398.44246
				L217.4676,398.20243L217.22757,398.20243L217.22757,398.44246L216.74751,398.44246L216.74751,398.68248L216.02742,398.68248L
				216.02742,398.92251L215.30732,398.92251L215.06729,398.92251L214.58723,398.92251L214.58723,398.68248L214.3472,398.68248L214.3472,398.20243
				L214.58723,398.20243L214.58723,397.96241L214.82726,397.96241L214.82726,397.72238L215.06729,397.72238L215.06729,397.48236
				L215.30732,397.48236L215.30732,396.52225L215.06729,396.52225L215.06729,396.0422L214.3472,396.0422L214.3472,396.28223L213.62711,396.28223
				L213.62711,396.52225L212.90702,396.52225L212.90702,396.76228L212.18693,396.76228L211.46684,396.76228L210.98678,396.76228
				L210.98678,396.52225L210.74674,396.52225L210.74674,396.28223L210.50671,396.28223L210.50671,396.0422L210.26668,396.0422L210.02665,396.0422
				L209.30656,396.0422L209.30656,396.28223L208.58647,396.28223L208.58647,396.52225L207.86638,396.52225L207.86638,396.76228L
				206.90626,396.76228L205.70611,396.76228L205.70611,397.00231L204.74598,397.00231L204.74598,397.24233L203.54583,397.24233L
				203.54583,397.48236L202.58571,397.48236L201.38556,397.48236L201.38556,397.72238L201.14553,397.72238L201.14553,397.48236L
				198.98525,397.48236L196.82498,397.48236L196.82498,397.24233L195.14476,397.24233L195.14476,397.00231L193.46455,397.00231L
				193.46455,396.76228L192.74446,396.76228L192.02437,396.76228L192.02437,396.52225L191.30428,396.52225L191.30428,396.28223L
				190.58419,396.28223L190.58419,396.0422L190.10413,396.0422L191.06425,396.0422L191.06425,395.80218L191.78434,395.80218L191.78434,395.56215
				L193.94461,395.56215L193.94461,395.32213L195.14476,395.32213L195.86486,395.32213L195.86486,394.84208L196.10489,394.84208
				L196.10489,394.60205L196.34492,394.60205L196.34492,394.36202L196.58495,394.36202L196.58495,394.122L196.58495,393.88197L196.82498,393.88197
				L197.06501,393.88197L197.06501,393.40192L197.30504,393.40192L197.30504,392.92187L197.30504,392.68185L197.54507,392.68185
				L197.54507,392.44182L197.7851,392.44182L197.7851,392.20179L198.02513,392.20179L198.02513,391.72174L198.02513,391.48172L198.26516,391.48172
				L198.26516,391.24169L198.50519,391.24169L198.50519,391.00167L198.74522,391.00167L198.74522,390.76164L198.98525,390.76164
				L198.98525,390.28159L199.22528,390.28159L199.22528,390.04156L199.46531,390.04156L199.46531,389.80154L199.46531,389.56151
				L199.70534,389.56151L199.70534,389.32149L199.94537,389.32149L199.94537,389.08146L200.1854,389.08146L200.1854,388.84144L200.42544,388.84144
				L200.42544,388.60141L200.42544,388.36138L200.66547,388.36138L200.66547,388.12136L201.14553,388.12136L201.14553,387.88133
				L201.38556,387.88133L201.38556,387.40128L201.62559,387.40128L201.62559,387.16126L201.86562,387.16126L201.86562,386.92123
				L202.10565,386.92123L202.10565,386.68121L202.34568,386.68121L202.34568,386.20115L202.58571,386.20115L202.58571,385.96113
				L202.58571,385.7211L202.82574,385.7211L202.82574,385.48108L203.3058,385.48108L203.3058,385.24105L203.54583,385.24105L203.54583,385.00103
				L203.78586,385.00103L203.78586,384.761L204.02589,384.761L204.02589,384.52098L204.26592,384.52098L204.26592,384.28095L204.50595,384.28095
				L204.50595,384.04092L204.74598,384.04092L204.98601,384.04092L204.98601,383.8009L205.22604,383.8009L205.22604,383.56087L205.46607,383.56087
				L205.46607,383.32085L205.70611,383.32085L205.70611,383.08082L205.94614,383.08082L205.94614,382.8408L206.18617,382.8408L206.18617,382.60077
				L206.66623,382.60077L206.66623,382.12072L206.90626,382.12072L206.90626,381.88069L206.90626,381.64067L207.14629,381.64067
				L207.14629,381.40064L207.38632,381.40064L207.38632,381.16062L207.62635,381.16062L207.62635,380.92059L207.86638,380.92059
				L207.86638,380.44054L207.86638,379.96049L208.10641,379.96049L208.10641,379.72046L208.34644,379.72046L208.34644,379.48044
				L208.58647,379.48044L208.58647,378.76036L208.58647,378.52034L208.8265,378.52034L208.8265,378.04028L209.06653,378.04028L209.06653,377.80026
				L209.30656,377.80026L209.30656,377.32021L209.30656,377.08018L209.54659,377.08018L209.54659,376.60013L209.78662,376.60013
				L209.78662,376.36011L210.02665,376.36011L210.02665,375.88005L210.26668,375.88005L210.26668,375.64003L210.50671,375.64003
				L210.50671,375.4L210.74674,375.4L210.74674,375.15998L210.98678,375.15998L210.98678,374.91995L211.22681,374.91995L211.22681,374.67993
				L211.46684,374.67993L211.46684,374.4399L211.70687,374.4399L211.70687,374.19988L211.9469,374.19988L211.9469,373.95985L212.18693,373.95985
				L212.18693,373.71982L212.42696,373.71982L212.42696,373.4798L212.66699,373.4798L212.66699,373.23977L212.90702,373.23977L212.90702,372.99975
				L212.90702,372.75972L213.14705,372.75972L213.14705,372.5197L213.38708,372.5197L213.38708,372.03965L213.62711,372.03965L213.62711,371.79962
				L213.62711,371.31957L213.86714,371.31957L213.86714,371.07954L214.10717,371.07954L214.10717,370.59949L214.3472,370.59949L
				214.3472,370.11944L214.58723,370.11944L214.58723,369.87942L214.82726,369.87942L215.06729,369.87942L215.06729,369.39936L215.30732,369.39936
				L215.30732,369.15934L215.54735,369.15934L215.54735,368.91931L215.78738,368.91931L215.78738,368.67929L216.02742,368.67929
				L216.02742,368.43926L216.50748,368.43926L216.50748,368.19924L216.74751,368.19924L216.74751,367.95921L216.74751,367.71918
				L216.98754,367.71918L217.22757,367.71918L217.22757,367.47916L217.4676,367.47916L217.4676,367.23913L217.70763,367.23913L217.70763,366.99911
				L217.94766,366.99911L218.18769,366.99911L218.18769,366.75908L218.18769,366.51906L218.66775,366.51906L218.66775,366.27903
				L218.90778,366.27903L218.90778,366.03901L219.38784,366.03901L219.38784,365.79898L219.62787,365.79898L219.62787,365.55895
				L219.8679,365.55895L220.10793,365.55895L220.10793,365.31893L220.34796,365.31893L220.34796,365.0789L220.34796,364.83888L220.82802,364.83888
				L220.82802,364.59885L221.06805,364.59885L221.30809,364.59885L221.30809,364.35883L221.78815,364.35883L221.78815,364.1188L
				222.02818,364.1188L222.02818,363.87878L222.50824,363.87878L222.9883,363.87878L222.9883,363.63875L223.46836,363.63875L223.46836,363.39872
				L223.70839,363.39872L223.70839,363.1587L224.18845,363.1587L224.66851,363.1587L224.66851,362.91867L225.14857,362.91867L225.14857,362.67865
				L225.62863,362.67865L225.62863,362.43862L226.10869,362.43862L226.34872,362.43862L226.34872,362.1986L227.06882,362.1986L227.06882,361.95857
				L227.06882,361.71855L227.30885,361.71855L227.54888,361.71855L227.54888,361.47852L227.78891,361.47852L227.78891,361.23849
				L227.78891,360.99847L228.02894,360.99847L228.26897,360.99847L228.26897,360.75844L228.509,360.75844L228.509,360.51842L228.74903,360.51842
				L228.74903,360.27839L228.98906,360.27839L228.98906,360.03837L229.22909,360.03837L229.22909,359.79834L229.46912,359.79834
				L229.46912,359.55832L229.70915,359.55832L229.70915,359.31829L229.94918,359.31829L229.94918,359.07826L230.18921,359.07826
				L230.18921,358.83824L230.42924,358.83824L230.42924,358.59821L230.66927,358.59821L230.66927,358.35819L230.9093,358.35819L
				230.9093,358.11816L230.9093,357.87814L231.14933,357.87814L231.38936,357.87814L231.38936,357.63811L231.62939,357.63811L231.62939,357.39809
				L231.62939,357.15806L231.86943,357.15806L232.10946,357.15806L232.10946,356.91803L232.34949,356.91803L232.34949,356.67801
				L232.34949,356.43798L232.58952,356.43798L232.82955,356.43798L232.82955,356.19796L233.06958,356.19796L233.06958,355.95793
				L233.06958,355.71791L233.30961,355.71791L233.54964,355.71791L233.54964,355.47788L233.78967,355.47788L233.78967,355.23785
				L233.78967,354.99783L234.0297,354.99783L234.26973,354.99783L234.26973,354.7578L234.50976,354.7578L234.50976,354.51778L234.50976,354.27775
				L234.74979,354.27775L234.98982,354.27775L234.98982,354.03773L235.22985,354.03773L235.22985,353.7977L235.22985,353.55768L
				235.46988,353.55768L235.70991,353.55768L235.70991,353.31765L235.94994,353.31765L235.94994,353.07762L236.18997,353.07762L
				236.18997,352.8376L236.43,352.8376L236.43,352.59757L236.67003,352.59757L236.67003,352.35755L236.91007,352.35755L236.91007,352.11752
				L237.1501,352.11752L237.1501,351.8775L237.39013,351.8775L237.39013,351.63747L237.63016,351.63747L237.63016,351.39745L237.87019,351.39745
				L237.87019,351.15742L238.11022,351.15742L238.11022,350.91739L238.35025,350.91739L238.35025,350.67737L238.35025,350.43734
				L238.59028,350.43734L238.83031,350.43734L238.83031,350.19732L239.07034,350.19732L239.07034,349.95729L239.07034,349.71727
				L239.31037,349.71727L239.5504,349.71727L239.5504,349.47724L239.79043,349.47724L239.79043,349.23722L239.79043,348.99719L240.03046,348.99719
				L240.51052,348.99719L240.51052,348.75716L240.51052,348.51714L240.75055,348.51714L240.75055,348.27711L240.99058,348.27711
				L241.23061,348.27711L241.23061,348.03709L241.23061,347.79706L241.47064,347.79706L241.47064,347.55704L241.71067,347.55704
				L241.9507,347.55704L241.9507,347.31701L241.9507,347.07699L242.19074,347.07699L242.19074,346.83696L242.6708,346.83696L242.91083,346.83696
				L242.91083,346.59693L242.91083,346.35691L243.39089,346.35691L243.39089,346.11688L243.63092,346.11688L243.87095,346.11688
				L243.87095,345.87686L244.35101,345.87686L244.35101,345.63683L244.35101,345.39681L244.59104,345.39681L245.0711,345.39681L
				245.0711,345.15678L245.0711,344.91676L245.55116,344.91676L245.55116,344.67673L245.79119,344.67673L245.79119,344.4367L246.03122,344.4367
				L246.03122,344.19668L246.27125,344.19668L246.27125,343.95665L246.51128,343.95665L246.51128,343.71663L246.75131,343.71663
				L246.75131,343.4766L247.23137,343.4766L247.23137,343.23658L247.23137,342.99655L247.47141,342.99655L247.71144,342.99655L247.71144,342.75652
				L247.95147,342.75652L247.95147,342.5165L247.95147,342.27647L248.1915,342.27647L248.43153,342.27647L248.43153,342.03645L248.67156,342.03645
				L248.67156,341.79642L248.67156,341.5564L249.15162,341.5564L249.39165,341.5564L249.39165,341.31637L249.39165,341.07635L249.87171,341.07635
				L249.87171,340.83632L250.11174,340.83632L250.5918,340.83632L250.5918,340.59629L250.83183,340.59629L250.83183,340.35627L251.07186,340.35627
				L251.07186,340.11624L251.55192,340.11624L251.79195,340.11624L251.79195,339.87622L252.27201,339.87622L252.27201,339.63619
				L252.51205,339.63619L252.51205,339.39617L252.99211,339.39617L253.23214,339.39617L253.23214,339.15614L253.95223,339.15614
				L253.95223,338.91612L254.67232,338.91612L254.67232,338.67609L255.15238,338.67609L255.15238,338.91612L255.39241,338.91612
				L255.39241,338.67609L256.1125,338.67609L264.99363,338.67609L264.99363,338.43606L265.47369,338.43606L265.47369,338.19604L
				265.95375,338.19604L265.95375,337.95601L266.67384,337.95601L267.39393,337.95601L267.39393,337.71599L268.83412,337.71599L
				268.83412,337.95601L269.31418,337.95601L270.2743,337.95601L270.75436,337.95601L270.75436,337.71599L271.23442,337.71599L271.23442,337.47596
				L271.95451,337.47596L271.95451,337.23594L272.43457,337.23594L272.91463,337.23594L272.91463,336.99591L273.63473,336.99591
				L273.63473,336.75589L274.11479,336.75589L274.11479,336.51586L275.31494,336.51586L275.31494,336.27583L275.55497,336.27583
				L275.55497,336.03581L276.03503,336.03581L276.03503,335.79578L276.27506,335.79578L276.27506,335.55576L276.51509,335.55576
				L276.99515,335.55576L276.99515,335.31573L277.47521,335.31573L277.47521,335.07571L277.71524,335.07571L277.71524,334.83568
				L280.83564,334.83568L281.55573,334.83568L281.55573,334.59566L283.95604,334.59566L283.95604,334.35563L285.15619,334.35563
				L285.15619,334.1156L287.31646,334.1156L288.51661,334.1156L288.51661,333.87558L289.47674,333.87558L289.47674,333.63555L292.11707,333.63555
				L292.11707,333.39553L308.43914,333.39553L308.43914,333.63555L310.11936,333.63555L310.11936,333.87558L311.31951,333.87558
				L311.31951,334.1156L312.75969,334.1156L314.67993,334.1156L314.67993,334.35563L315.64006,334.35563L315.64006,334.59566L316.60018,334.59566
				L316.60018,334.83568L318.04036,334.83568L318.76045,334.83568L318.76045,335.07571L320.44067,335.07571L320.44067,334.83568
				L321.16076,334.83568L322.60094,334.83568L323.081,334.83568L323.081,335.07571L323.32103,335.07571L323.32103,335.31573L323.56106,335.31573
				L323.56106,335.55576L323.80109,335.55576L324.04112,335.55576L324.04112,335.79578L324.28115,335.79578L324.28115,336.03581
				L324.52118,336.03581L324.52118,336.27583L324.76121,336.27583L325.00124,336.27583L325.00124,336.51586L325.24127,336.51586
				L325.24127,336.75589L325.48131,336.75589L325.48131,336.99591L325.48131,337.23594L325.96137,337.23594L326.2014,337.23594L
				326.2014,337.47596L326.2014,337.71599L326.44143,337.71599L326.44143,337.95601L326.92149,337.95601L326.92149,338.19604L327.16152,338.19604
				L327.16152,338.43606L327.64158,338.43606L327.64158,338.67609L327.88161,338.67609L328.12164,338.67609L328.12164,338.91612
				L328.36167,338.91612L328.36167,339.15614L328.6017,339.15614L328.6017,339.39617L328.84173,339.39617L329.32179,339.39617L329.32179,339.63619
				L329.32179,339.87622L329.56182,339.87622L329.56182,340.11624L330.04188,340.11624L340.84325,340.11624L340.84325,340.35627
				L341.32332,340.35627L341.32332,340.59629L342.04341,340.59629L342.04341,340.83632L342.7635,340.83632L343.48359,340.83632L
				343.48359,341.07635L343.72362,341.07635L343.72362,341.31637L343.96365,341.31637L343.96365,341.5564L344.20368,341.5564L344.68374,341.5564
				L344.68374,341.79642L345.1638,341.79642L345.1638,342.03645L345.64386,342.03645L345.64386,341.79642L346.12392,341.79642L346.12392,341.5564
				L346.36396,341.5564L346.60399,341.5564L346.60399,341.31637L347.08405,341.31637L347.08405,341.07635L347.80414,341.07635L347.80414,340.83632
				L354.28496,340.83632L354.28496,341.07635L354.76502,341.07635L354.76502,341.31637L355.24508,341.31637L355.24508,341.5564L
				355.72514,341.5564L357.16533,341.5564L357.16533,341.79642L357.64539,341.79642L357.64539,342.03645L357.64539,342.27647L358.12545,342.27647
				L358.36548,342.27647L358.36548,342.5165L358.36548,342.75652L358.60551,342.75652L358.60551,342.99655L358.84554,342.99655L
				359.08557,342.99655L359.08557,343.23658L359.08557,343.71663L359.3256,343.71663L359.56563,343.71663L359.56563,343.95665L359.80566,343.95665
				L359.80566,344.19668L359.80566,344.4367L360.04569,344.4367L360.04569,344.67673L360.52575,344.67673L360.52575,344.91676L360.76578,344.91676
				L360.76578,345.15678L361.00581,345.15678L361.00581,345.39681L361.24584,345.39681L361.7259,345.39681L361.7259,345.63683L361.96594,345.63683
				L361.96594,345.87686L361.96594,346.11688L362.20597,346.11688L362.68603,346.11688L362.68603,346.35691L362.92606,346.35691
				L362.92606,346.59693L363.16609,346.59693L363.16609,346.83696L363.40612,346.83696L363.64615,346.83696L363.64615,347.07699
				L363.64615,347.31701L364.12621,347.31701L364.12621,347.55704L364.36624,347.55704L364.36624,347.79706L364.60627,347.79706
				L364.60627,348.03709L365.08633,348.03709L365.08633,348.27711L365.32636,348.27711L365.32636,348.51714L365.56639,348.51714
				L365.56639,348.75716L365.80642,348.75716L365.80642,348.99719L366.28648,348.99719L366.28648,349.23722L366.52651,349.23722
				L366.52651,349.47724L366.76654,349.47724L366.76654,349.71727L367.00657,349.71727L367.24661,349.71727L367.24661,349.95729
				L367.48664,349.95729L367.48664,350.19732L367.9667,350.19732L367.9667,350.43734L368.20673,350.43734L368.44676,350.43734L368.44676,350.67737
				L368.68679,350.67737L368.68679,350.91739L368.92682,350.91739L368.92682,351.15742L369.16685,351.15742L369.16685,351.39745
				L369.40688,351.39745L369.64691,351.39745L369.64691,351.63747L369.88694,351.63747L369.88694,351.8775L370.367,351.8775L370.367,352.11752
				L370.60703,352.11752L370.60703,352.35755L371.08709,352.35755L371.08709,352.59757L371.08709,352.8376L371.56715,352.8376L371.80718,352.8376
				L371.80718,353.07762L371.80718,353.31765L372.28724,353.31765L372.28724,353.55768L372.52728,353.55768L372.52728,353.7977L
				373.00734,353.7977L373.00734,354.03773L373.24737,354.03773L373.24737,354.27775L373.4874,354.27775L373.4874,354.51778L373.96746,354.51778
				L373.96746,354.7578L373.96746,354.99783L374.20749,354.99783L374.44752,354.99783L374.44752,355.23785L374.68755,355.23785L
				374.68755,355.47788L374.92758,355.47788L374.92758,355.71791L375.16761,355.71791L375.40764,355.71791L375.40764,355.95793L
				375.40764,356.19796L375.64767,356.19796L375.64767,356.43798L375.8877,356.43798L376.12773,356.43798L376.12773,356.67801L376.36776,356.67801
				L376.36776,356.91803L376.60779,356.91803L376.60779,357.15806L376.84782,357.15806L377.08785,357.15806L377.08785,357.39809
				L377.08785,357.63811L377.32788,357.63811"/>
			<path clip-path="url(#SVG_CP_2)" fill="none" stroke="#999999" stroke-width="0.96012" stroke-miterlimit="10" stroke-linecap="round" stroke-linejoin="round" d="
				M377.32788,357.63811L377.32788,357.87814L377.56791,357.87814L377.80795,357.87814L377.80795,358.11816L377.80795,358.35819
				L378.04798,358.35819L378.04798,358.59821L378.28801,358.59821L378.28801,358.83824L378.52804,358.83824L378.52804,359.07826
				L378.76807,359.07826L378.76807,359.31829L379.0081,359.31829L379.0081,359.55832L379.24813,359.55832L379.48816,359.55832L379.48816,359.79834
				L379.72819,359.79834L379.72819,360.03837L379.96822,360.03837L379.96822,360.27839L380.20825,360.27839L380.68831,360.27839
				L380.68831,360.51842L380.68831,360.75844L380.92834,360.75844L380.92834,360.99847L381.16837,360.99847L381.4084,360.99847L
				381.4084,361.23849L381.4084,361.47852L381.64843,361.47852L381.64843,361.71855L382.12849,361.71855L382.36852,361.71855L382.36852,361.95857
				L382.84859,361.95857L382.84859,362.1986L382.84859,362.43862L383.08862,362.43862L383.56868,362.43862L383.56868,362.67865L
				383.56868,362.91867L384.04874,362.91867L384.04874,363.1587L384.28877,363.1587L384.5288,363.1587L384.5288,363.39872L384.76883,363.39872
				L384.76883,363.63875L385.24889,363.63875L385.24889,363.87878L385.48892,363.87878L385.48892,364.1188L385.96898,364.1188L385.96898,364.35883
				L385.96898,364.59885L386.44904,364.59885L386.68907,364.59885L386.68907,365.0789L386.68907,365.31893L386.9291,365.31893L386.9291,365.55895
				L387.16913,365.55895L387.40916,365.55895L387.40916,365.79898L387.40916,366.03901L387.64919,366.03901L387.64919,366.27903
				L387.88922,366.27903L388.12926,366.27903L388.12926,366.51906L388.12926,366.75908L388.36929,366.75908L388.36929,366.99911
				L388.60932,366.99911L388.84935,366.99911L388.84935,367.23913L388.84935,367.47916L389.08938,367.47916L389.08938,367.71918
				L389.32941,367.71918L389.32941,367.95921L389.56944,367.95921L389.56944,368.19924L389.56944,368.43926L389.80947,368.43926
				L390.0495,368.43926L390.0495,368.67929L390.28953,368.67929L390.28953,368.91931L390.28953,369.15934L390.52956,369.15934L390.76959,369.15934
				L390.76959,369.39936L391.00962,369.39936L391.00962,369.87942L391.24965,369.87942L391.24965,370.35947L391.48968,370.35947
				L391.48968,370.59949L391.72971,370.59949L391.72971,370.83952L391.96974,370.83952L391.96974,371.07954L391.96974,371.31957
				L392.20977,371.31957L392.4498,371.31957L392.4498,371.79962L392.68983,371.79962L392.68983,372.03965L393.40993,372.03965L393.40993,372.27967
				L393.64996,372.27967L393.64996,372.5197L394.13002,372.5197L394.13002,372.75972L394.61008,372.75972L394.61008,372.99975L394.85011,372.99975
				L395.5702,372.99975L395.5702,373.23977L395.81023,373.23977L395.81023,373.4798L396.29029,373.4798L396.29029,373.71982L396.77035,373.71982
				L397.01038,373.71982L397.01038,373.95985L397.01038,374.19988L397.49044,374.19988L397.49044,374.4399L397.73047,374.4399L397.73047,374.67993
				L397.9705,374.67993L397.9705,374.91995L398.45057,374.91995L398.45057,375.15998L398.6906,375.15998L398.6906,375.4L399.17066,375.4
				L399.17066,375.64003L399.41069,375.64003L399.41069,375.88005L399.65072,375.88005L399.89075,375.88005L399.89075,376.12008
				L400.13078,376.12008L400.13078,376.36011L404.45133,376.36011L404.45133,376.12008L408.29181,376.12008L408.29181,376.36011
				L409.97203,376.36011L409.97203,376.60013L410.69212,376.60013L411.17218,376.60013L411.17218,376.84016L411.65224,376.84016
				L411.65224,377.08018L411.89227,377.08018L411.89227,377.32021L412.61236,377.32021L413.09242,377.32021L413.09242,377.56023
				L413.57248,377.56023L413.57248,377.80026L413.81251,377.80026L413.81251,378.04028L414.29258,378.04028L413.57248,378.04028
				L413.57248,378.28031L413.09242,378.28031L413.09242,378.52034L412.61236,378.52034L412.61236,378.76036L412.1323,378.76036L
				411.65224,378.76036L411.65224,379.00039L411.17218,379.00039L411.17218,379.24041L410.69212,379.24041L410.69212,379.48044L
				410.21206,379.48044L410.21206,379.72046L409.732,379.72046L409.01191,379.72046L409.01191,379.96049L408.77187,379.96049L408.77187,380.20051
				L408.29181,380.20051L408.29181,380.44054L407.57172,380.44054L407.09166,380.44054L407.09166,380.68057L406.85163,380.68057
				L406.85163,380.92059L406.13154,380.92059L406.13154,381.16062L405.89151,381.16062L405.41145,381.16062L405.41145,381.40064
				L404.93139,381.40064L404.93139,381.64067L404.45133,381.64067L404.45133,381.88069L403.97127,381.88069L403.4912,381.88069L
				403.4912,382.12072L403.01114,382.12072L403.01114,382.36075L402.53108,382.36075L402.53108,382.60077L402.05102,382.60077L401.57096,382.60077
				L401.57096,382.8408L401.33093,382.8408L401.33093,383.08082L400.85087,383.08082L400.85087,383.32085L400.37081,383.32085L399.89075,383.32085
				L399.89075,383.56087L399.41069,383.56087L399.41069,383.8009L398.93063,383.8009L398.93063,384.04092L398.6906,384.04092L398.21053,384.04092
				L398.21053,384.28095L397.73047,384.28095L397.73047,384.52098L397.25041,384.52098L397.25041,384.761L397.01038,384.761L396.77035,384.761
				L396.77035,385.00103L396.29029,385.00103L396.29029,385.24105L396.05026,385.24105L396.05026,385.48108L395.5702,385.48108L
				395.5702,385.7211L395.09014,385.7211L395.09014,385.96113L394.85011,385.96113L394.85011,386.20115L394.61008,386.20115L394.13002,386.20115
				L394.13002,386.44118L394.13002,386.68121L393.64996,386.68121L393.64996,386.92123L393.40993,386.92123L393.40993,387.16126
				L393.16989,387.16126L392.92986,387.16126L392.92986,387.40128L392.68983,387.40128L392.68983,387.64131L392.4498,387.64131L
				392.4498,387.88133L391.96974,387.88133L391.72971,387.88133L391.72971,388.12136L391.24965,388.12136L391.24965,388.36138L391.00962,388.36138
				L391.00962,388.60141L390.52956,388.60141L390.28953,388.60141L390.28953,388.84144L389.80947,388.84144L389.80947,389.08146
				L389.56944,389.08146L389.56944,389.32149L389.08938,389.32149L388.84935,389.32149L388.84935,389.56151L388.60932,389.56151
				L388.60932,389.80154L388.12926,389.80154L388.12926,390.04156L387.88922,390.04156L387.40916,390.04156L387.40916,390.28159
				L387.40916,390.52161L387.16913,390.52161L387.16913,390.76164L386.9291,390.76164L386.9291,391.00167L386.68907,391.00167L386.68907,392.20179
				L386.68907,392.68185L386.68907,393.40192L386.9291,393.40192L386.9291,394.122L387.16913,394.122L387.16913,394.84208L387.40916,394.84208
				L387.40916,395.32213L387.40916,396.0422L387.64919,396.0422L387.64919,396.28223L387.88922,396.28223L387.88922,396.76228L388.12926,396.76228
				L388.12926,397.24233L388.12926,397.48236L388.36929,397.48236L388.36929,397.96241L388.60932,397.96241L388.60932,398.44246
				L388.84935,398.44246L388.84935,398.92251L388.84935,399.40256L389.08938,399.40256L389.08938,399.88261L389.32941,399.88261
				L389.32941,400.60269L389.08938,400.60269L389.08938,401.80282L389.32941,401.80282L389.32941,402.76292L389.08938,402.76292
				L389.08938,403.483L388.84935,403.483L388.84935,404.20307L388.84935,404.92315L388.60932,404.92315L388.60932,405.64323L388.36929,405.64323
				L388.36929,406.12328L388.60932,406.12328L388.60932,406.60333L388.84935,406.60333L388.84935,407.08338L388.84935,407.56343
				L389.08938,407.56343L389.08938,407.80346L388.60932,407.80346L388.60932,408.04348L388.12926,408.04348L387.88922,408.04348
				L387.88922,408.76356L388.12926,408.76356L388.12926,409.00358L388.12926,409.24361L387.88922,409.24361L387.88922,409.48364
				L387.40916,409.48364L386.9291,409.48364L386.9291,409.72366L386.68907,409.72366L386.68907,410.20371L386.9291,410.20371L386.9291,410.44374
				L387.16913,410.44374L387.16913,410.68376L387.40916,410.68376L387.40916,410.92379L387.40916,411.16381L387.64919,411.16381
				L387.64919,411.40384L387.88922,411.40384L387.88922,411.64387L388.12926,411.64387L388.36929,411.64387L388.60932,411.64387
				L388.60932,411.40384L388.84935,411.40384L388.84935,411.16381L389.08938,411.16381L389.08938,410.92379L389.32941,410.92379
				L389.56944,410.92379L389.56944,410.68376L389.56944,410.44374L390.0495,410.44374L390.0495,410.92379L390.28953,410.92379L390.28953,411.16381
				L390.52956,411.16381L390.52956,411.40384L390.76959,411.40384L390.76959,411.64387L391.00962,411.64387L391.00962,411.88389
				L391.24965,411.88389L391.24965,412.12392L391.24965,412.36394L391.48968,412.36394L391.48968,412.60397L391.72971,412.60397
				L391.72971,412.36394L391.96974,412.36394L392.20977,412.36394L392.20977,412.12392L392.4498,412.12392L392.4498,411.88389L392.68983,411.88389
				L392.68983,411.64387L392.68983,411.88389L393.16989,411.88389L393.16989,412.12392L393.40993,412.12392L393.40993,412.36394
				L393.64996,412.36394L393.64996,412.60397L393.88999,412.60397L393.88999,412.84399L394.13002,412.84399L394.13002,413.08402
				L394.37005,413.08402L394.37005,413.32404L394.13002,413.32404L394.13002,413.56407L393.88999,413.56407L393.88999,413.8041L
				393.64996,413.8041L393.40993,413.8041L393.40993,414.04412L393.16989,414.04412L393.16989,414.28415L392.68983,414.28415L392.68983,414.52417
				L392.68983,414.7642L392.20977,414.7642L391.96974,414.7642L391.96974,415.00422L391.72971,415.00422L391.72971,415.24425L391.24965,415.24425
				L391.24965,415.48427L390.76959,415.48427L390.76959,415.7243L390.52956,415.7243L390.52956,415.96433L390.28953,415.96433L390.28953,416.20435
				L390.0495,416.20435L390.0495,416.44438L390.28953,416.44438L390.28953,416.6844L390.28953,416.92443L390.52956,416.92443L390.52956,417.16445
				L390.76959,417.16445L390.76959,417.40448L391.00962,417.40448L391.00962,417.64451L391.24965,417.64451L391.24965,418.12456
				L391.24965,418.36458L391.00962,418.36458L390.76959,418.36458L390.76959,418.60461L390.52956,418.60461L390.52956,418.84463
				L390.28953,418.84463L390.28953,419.08466L390.0495,419.08466L390.0495,419.32468L389.80947,419.32468L389.80947,419.56471L389.56944,419.56471
				L389.56944,419.80474L389.32941,419.80474L389.08938,419.80474L389.08938,420.04476L388.84935,420.04476L388.84935,420.28479
				L388.84935,420.52481L388.60932,420.52481L388.36929,420.52481L388.36929,420.76484L388.12926,420.76484L388.12926,421.00486
				L388.12926,421.24489L387.88922,421.24489L387.64919,421.24489L387.64919,421.48491L387.40916,421.48491L387.40916,421.72494
				L387.16913,421.72494L387.16913,421.96497L386.9291,421.96497L386.9291,422.20499L386.68907,422.20499L386.68907,422.44502L386.68907,422.92507
				L386.44904,422.92507L386.44904,423.16509L386.20901,423.16509L386.20901,423.40512L385.96898,423.40512L385.96898,423.64514
				L385.96898,424.1252L385.72895,424.1252L385.72895,424.60525L385.48892,424.60525L385.48892,425.32532L385.24889,425.32532L385.24889,425.56535
				L385.24889,425.32532L384.28877,425.32532L384.28877,425.0853L384.04874,425.0853L384.04874,427.72558L384.28877,427.72558L384.28877,427.9656
				L383.56868,427.9656L383.08862,427.9656L383.08862,428.20563L382.60855,428.20563L382.60855,428.44566L382.12849,428.44566L382.12849,428.68568
				L354.52499,428.68568"/>
			<path clip-path="url(#SVG_CP_2)" fill="none" stroke="#999999" stroke-width="0.96012" stroke-miterlimit="10" stroke-linecap="round" stroke-linejoin="round" d="
				M289.9568,355.71791L289.9568,355.47788L290.43686,355.47788L290.43686,355.23785L290.67689,355.23785L290.67689,354.99783L291.15695,354.99783
				L291.39698,354.99783L291.39698,354.7578L291.87704,354.7578L291.87704,354.51778L292.11707,354.51778L292.11707,354.27775L292.83716,354.27775
				L293.07719,354.27775L293.07719,354.03773L293.55725,354.03773L293.55725,353.7977L293.79728,353.7977L293.79728,353.55768L294.27735,353.55768
				L294.51738,353.55768L294.51738,353.31765L294.99744,353.31765L294.99744,353.07762L295.71753,353.07762L295.71753,353.31765
				L298.11783,353.31765L298.11783,353.07762L298.59789,353.07762L298.59789,353.31765L301.23823,353.31765L301.23823,353.55768
				L307.95908,353.55768L307.95908,353.31765L309.63929,353.31765L309.63929,353.07762L316.60018,353.07762L316.60018,352.8376L
				323.56106,352.8376L323.32103,352.8376L323.32103,351.63747L323.32103,350.91739L323.081,350.91739L323.081,350.43734L322.84097,350.43734
				L322.84097,350.19732L322.60094,350.19732L322.60094,349.95729L322.60094,349.71727L322.36091,349.71727L321.88085,349.71727
				L321.88085,349.47724L321.40079,349.47724L321.40079,349.23722L321.16076,349.23722L321.16076,348.99719L320.92073,348.99719
				L320.44067,348.99719L320.44067,348.75716L320.20063,348.75716L320.20063,348.51714L319.72057,348.51714L319.72057,348.27711
				L319.48054,348.27711L319.24051,348.27711L319.24051,348.03709L318.76045,348.03709L318.76045,347.79706L318.28039,347.79706
				L318.28039,347.55704L318.04036,347.55704L317.80033,347.55704L317.80033,347.31701L317.5603,347.31701L317.5603,347.07699L317.32027,347.07699
				L317.32027,346.83696L317.08024,346.83696L317.08024,347.07699L314.91996,347.07699L314.91996,346.83696L312.75969,346.83696
				L311.07948,346.83696L311.07948,346.59693L308.9192,346.59693L308.9192,346.83696L308.43914,346.83696L307.71905,346.83696L307.71905,347.07699
				L307.23899,347.07699L307.23899,347.31701L306.5189,347.31701L306.5189,347.55704L305.79881,347.55704L304.83869,347.55704L304.83869,347.79706
				L303.87856,347.79706L303.87856,348.03709L298.83792,348.03709L298.83792,348.27711L298.11783,348.27711L297.15771,348.27711
				L297.15771,348.51714L296.19759,348.51714L296.19759,348.75716L294.99744,348.75716L294.99744,348.99719L293.31722,348.99719
				L292.83716,348.99719L292.83716,349.23722L292.83716,349.47724L292.59713,349.47724L292.59713,349.71727L292.3571,349.71727L
				291.87704,349.71727L291.87704,349.95729L291.87704,350.19732L291.63701,350.19732L291.63701,350.43734L291.39698,350.43734L
				291.15695,350.43734L291.15695,350.67737L290.67689,350.67737L290.67689,350.91739L290.43686,350.91739L290.43686,351.15742L
				290.43686,351.39745L290.19683,351.39745L289.71677,351.39745L289.71677,351.63747L289.47674,351.63747L289.47674,351.8775L289.23671,351.8775
				L289.23671,352.11752L288.99668,352.11752L288.51661,352.11752L288.51661,352.35755L288.27658,352.35755L288.27658,352.59757
				L288.27658,352.8376L287.79652,352.8376L287.55649,352.8376L287.55649,353.07762L287.31646,353.07762L287.31646,353.31765L287.07643,353.31765
				L287.07643,353.55768L286.8364,353.55768L286.35634,353.55768L286.35634,353.7977L286.11631,353.7977L286.11631,354.03773L286.11631,354.27775
				L285.63625,354.27775L285.87628,354.27775L285.87628,354.51778L286.11631,354.51778L286.11631,354.7578L286.8364,354.7578L286.8364,354.99783
				L287.31646,354.99783L287.79652,354.99783L287.79652,355.23785L288.75664,355.23785L288.75664,355.47788L289.47674,355.47788
				L289.47674,355.71791L289.9568,355.71791"/>
			<path clip-path="url(#SVG_CP_2)" fill="none" stroke="#999999" stroke-width="0.96012" stroke-miterlimit="10" stroke-linecap="round" stroke-linejoin="round" d="
				M214.3472,413.8041L214.58723,413.8041L214.58723,414.04412L214.58723,414.28415L214.82726,414.28415L214.82726,414.52417L215.06729,414.52417
				L215.06729,414.7642L215.30732,414.7642L215.30732,415.00422L215.54735,415.00422L215.54735,415.24425L215.78738,415.24425L215.78738,415.48427
				L216.02742,415.48427L216.02742,415.7243L216.26745,415.7243L216.26745,415.96433L216.50748,415.96433L216.50748,416.20435L216.74751,416.20435
				L276.99515,416.20435L276.99515,416.44438L277.23518,416.44438L277.23518,416.6844L277.47521,416.6844L277.47521,416.92443L277.71524,416.92443
				L279.87552,416.92443L279.87552,417.16445L280.11555,417.16445L280.11555,417.40448L280.11555,417.64451L280.35558,417.64451
				L280.59561,417.64451L280.59561,417.88453L280.83564,417.88453L280.83564,418.12456L280.83564,418.36458L281.07567,418.36458
				L281.3157,418.36458L281.3157,418.60461L324.52118,418.60461L324.52118,418.84463L324.76121,418.84463L324.76121,419.08466L325.00124,419.08466
				L325.00124,419.32468L325.24127,419.32468L325.24127,419.56471L325.48131,419.56471L325.48131,419.80474L325.72134,419.80474
				L325.72134,420.04476L325.96137,420.04476L325.96137,420.28479L326.2014,420.28479L326.2014,420.52481L326.44143,420.52481L326.44143,420.76484
				L326.68146,420.76484L326.68146,421.00486L326.92149,421.00486L326.92149,421.24489L327.16152,421.24489L327.16152,421.48491
				L327.40155,421.48491L327.40155,421.72494L327.64158,421.72494L327.64158,421.96497L327.88161,421.96497L327.88161,422.20499
				L328.12164,422.20499L328.12164,422.44502L347.08405,422.44502L347.08405,422.68504L347.08405,422.92507L347.32408,422.92507
				L347.56411,422.92507L347.56411,423.16509L347.80414,423.16509L347.80414,423.40512L347.80414,423.64514L348.04417,423.64514
				L348.2842,423.64514L348.2842,423.88517L348.52423,423.88517L348.52423,424.1252L348.76426,424.1252L348.76426,424.36522L349.00429,424.36522
				L349.00429,424.60525L349.24432,424.60525L349.24432,424.84527L349.48435,424.84527L349.48435,425.0853L349.72438,425.0853L349.72438,425.32532
				L349.96441,425.32532L349.96441,425.56535L350.20444,425.56535L350.20444,425.80537L350.44447,425.80537L350.44447,426.0454L
				350.6845,426.0454L350.6845,426.28543L350.92453,426.28543L350.92453,426.52545L351.16456,426.52545L351.16456,426.76548L351.40459,426.76548
				L351.40459,427.0055L351.64463,427.0055L351.64463,427.24553L351.88466,427.24553L351.88466,427.48555L352.36472,427.48555L352.36472,427.72558
				L352.36472,427.9656L352.60475,427.9656L352.84478,427.9656L352.84478,428.20563L353.08481,428.20563L353.08481,428.44566L353.08481,428.68568
				L354.52499,428.68568L354.52499,428.92571L381.4084,428.92571L381.64843,428.92571L381.64843,429.40576L381.88846,429.40576L
				381.88846,429.64578L382.12849,429.64578L382.12849,429.88581L382.12849,430.12584L382.36852,430.12584L382.36852,430.36586L
				382.60855,430.36586L382.60855,430.60589L382.84859,430.60589L382.84859,430.84591L382.84859,431.08594L383.08862,431.08594L
				383.08862,431.32596L383.32865,431.32596L383.32865,431.56599L383.56868,431.56599L383.56868,431.80601L383.80871,431.80601L
				383.80871,432.28607L384.04874,432.28607L384.04874,432.52609L384.28877,432.52609L384.28877,432.76612L384.5288,432.76612L384.5288,433.24617
				L384.5288,433.96624L384.76883,433.96624L384.76883,434.20627L385.00886,434.20627L385.00886,434.68632L385.24889,434.68632L
				385.24889,435.16637L385.24889,435.88645L385.48892,435.88645L385.48892,436.84655L385.72895,436.84655L385.72895,437.80665L
				385.96898,437.80665L385.96898,438.76676L385.96898,439.72686L386.20901,439.72686L386.20901,440.68696L386.44904,440.68696L
				386.44904,441.40704L386.68907,441.40704L386.68907,442.12711L386.68907,443.08722L386.9291,443.08722L386.9291,443.80729L387.16913,443.80729
				L387.16913,444.52737L387.40916,444.52737L387.40916,445.24745L387.40916,445.7275L387.64919,445.7275L387.64919,446.20755L387.88922,446.20755
				L387.88922,446.6876L388.12926,446.6876L388.12926,447.16765L388.12926,447.40768L388.36929,447.40768L388.36929,447.6477L388.60932,447.6477
				L388.60932,447.88773L388.84935,447.88773L388.84935,448.12775L388.84935,448.36778L389.08938,448.36778L389.08938,448.6078L
				389.32941,448.6078L389.32941,448.84783L389.56944,448.84783L389.56944,449.08786L389.56944,449.56791L389.80947,449.56791L389.80947,449.80793
				L390.0495,449.80793L390.0495,450.28798L390.28953,450.28798L390.28953,450.52801L390.28953,451.24809L390.52956,451.24809L390.52956,451.96816
				L390.76959,451.96816L390.76959,452.68824L391.00962,452.68824L391.00962,453.40832L391.24965,453.40832L391.24965,454.12839
				L391.24965,454.84847L391.48968,454.84847L391.48968,455.56855L391.72971,455.56855L391.72971,456.0486L391.96974,456.0486L391.96974,456.52865
				L391.96974,457.0087L392.20977,457.0087L392.20977,457.48875L392.4498,457.48875L392.4498,457.9688L392.68983,457.9688L392.68983,458.44885
				L392.68983,458.68888L392.92986,458.68888L392.92986,459.16893L393.16989,459.16893L393.16989,459.40896L393.40993,459.40896
				L393.40993,459.88901L393.40993,460.12903L393.64996,460.12903L393.64996,460.60908L393.88999,460.60908L393.88999,460.84911
				L394.13002,460.84911L394.13002,461.32916L394.13002,461.56919L394.37005,461.56919L394.37005,462.28926L394.61008,462.28926
				L394.61008,463.00934L394.85011,463.00934L394.85011,463.96944L394.85011,464.92954L395.09014,464.92954L395.09014,465.88965
				L395.33017,465.88965L395.33017,466.84975L395.5702,466.84975L395.5702,467.80985L395.5702,468.76995L395.81023,468.76995L395.81023,469.25
				L396.05026,469.25L396.05026,469.73006L396.29029,469.73006L396.29029,469.97008L396.29029,470.45013L396.53032,470.45013L396.53032,470.93018
				L396.77035,470.93018L396.77035,471.89029L396.53032,471.89029L396.53032,472.13031L396.29029,472.13031L396.29029,472.37034
				L396.29029,472.61036L396.05026,472.61036L396.05026,472.85039L395.81023,472.85039L395.81023,473.33044L395.5702,473.33044L
				395.5702,473.57046L395.5702,473.81049L395.33017,473.81049L395.33017,474.29054L395.09014,474.29054L395.09014,474.53057L394.85011,474.53057
				L394.85011,474.77059L394.85011,475.01062L394.61008,475.01062L394.61008,475.49067L394.37005,475.49067L394.37005,475.73069
				L394.13002,475.73069L394.13002,475.97072L394.13002,476.45077L393.88999,476.45077L393.88999,476.6908L393.64996,476.6908L393.64996,477.17085
				L393.40993,477.17085L393.40993,477.6509L393.16989,477.6509L393.16989,477.89092L392.92986,477.89092L392.92986,478.37098L392.68983,478.37098
				L392.68983,478.611L392.68983,478.85103L392.4498,478.85103L392.4498,479.33108L392.20977,479.33108L392.20977,479.5711L391.96974,479.5711
				L391.96974,479.81113L391.96974,480.29118L391.72971,480.29118L391.72971,480.53121L391.48968,480.53121L391.48968,481.01126
				L391.24965,481.01126L391.24965,481.49131L391.00962,481.49131L391.00962,481.73133L390.76959,481.73133L390.76959,482.21139
				L390.52956,482.21139L390.52956,482.45141L390.28953,482.45141L390.28953,482.69144L390.28953,483.17149L390.0495,483.17149L
				390.0495,483.41151L389.80947,483.41151L389.80947,483.65154L389.56944,483.65154L389.56944,483.89156L390.0495,483.89156L390.0495,484.13159
				L390.28953,484.13159L390.28953,484.37162L391.00962,484.37162L391.00962,484.61164L391.24965,484.61164L391.72971,484.61164
				L391.72971,484.85167L391.96974,484.85167L391.96974,485.09169L392.68983,485.09169L392.68983,485.33172L392.92986,485.33172
				L392.92986,485.57174L393.40993,485.57174L393.64996,485.57174L393.64996,485.81177L394.13002,485.81177L394.13002,486.05179
				L394.61008,486.05179L394.61008,486.29182L394.85011,486.29182L395.33017,486.29182L395.33017,486.53185L395.5702,486.53185L
				395.5702,486.77187L396.05026,486.77187L396.05026,487.0119L396.29029,487.0119L396.77035,487.0119L396.77035,487.25192L397.25041,487.25192
				L397.25041,487.49195L397.73047,487.49195L397.73047,487.73197L397.9705,487.73197L398.45057,487.73197L398.45057,487.972L398.6906,487.972
				L398.6906,488.21202L399.17066,488.21202L399.17066,488.45205L399.41069,488.45205L399.89075,488.45205L399.89075,488.69208L
				399.41069,488.69208L399.41069,488.9321L398.6906,488.9321L398.6906,489.17213L397.73047,489.17213L396.77035,489.17213L396.77035,489.41215
				L396.05026,489.41215L396.05026,489.65218L395.5702,489.65218L395.5702,489.8922L395.33017,489.8922L394.85011,489.8922L394.85011,490.13223
				L394.61008,490.13223L394.61008,490.37225L394.13002,490.37225L394.13002,490.61228L393.64996,490.61228L393.16989,490.61228
				L393.16989,490.85231L392.68983,490.85231L392.68983,491.09233L392.20977,491.09233L392.20977,491.33236L391.96974,491.33236
				L391.48968,491.33236L391.48968,491.57238L391.00962,491.57238L391.00962,491.81241L390.52956,491.81241L390.52956,492.05243
				L390.0495,492.05243L389.56944,492.05243L389.56944,492.29246L389.32941,492.29246L389.32941,492.53249L388.84935,492.53249L
				388.84935,492.77251L388.36929,492.77251L388.36929,493.01254L388.12926,493.01254L387.64919,493.01254L387.64919,493.25256L
				387.16913,493.25256L387.16913,493.49259L386.68907,493.49259L386.68907,493.73261L386.44904,493.73261L385.96898,493.73261L
				385.96898,493.97264L385.48892,493.97264L385.48892,494.21266L385.24889,494.21266L385.24889,494.45269L384.76883,494.45269L
				384.28877,494.45269L384.28877,494.69272L383.80871,494.69272L383.80871,494.93274L383.56868,494.93274L383.56868,495.17277L
				382.84859,495.17277L382.60855,495.17277L382.60855,495.41279L382.12849,495.41279L382.12849,495.65282L381.64843,495.65282L
				381.64843,495.89284L381.4084,495.89284L380.68831,495.89284L380.68831,496.13287L380.44828,496.13287L380.44828,496.37289L379.96822,496.37289
				L379.96822,496.61292L379.48816,496.61292L379.24813,496.61292L379.24813,496.85295L378.52804,496.85295L378.52804,497.09297
				L378.28801,497.09297L378.28801,497.333L377.80795,497.333L377.32788,497.333L377.32788,497.57302L376.84782,497.57302L376.84782,497.81305
				L376.36776,497.81305L376.36776,498.05307L376.12773,498.05307L375.40764,498.05307L375.40764,498.2931L374.68755,498.2931L374.68755,498.53312
				L373.96746,498.53312L373.96746,498.77315L332.68222,498.77315L332.68222,498.53312L327.16152,498.53312L327.16152,498.2931L
				326.2014,498.2931L326.2014,498.05307L325.48131,498.05307L324.52118,498.05307L324.52118,497.81305L323.80109,497.81305L323.80109,497.57302
				L323.32103,497.57302L323.32103,497.333L322.60094,497.333L321.88085,497.333L321.88085,497.09297L321.16076,497.09297L321.16076,496.85295
				L320.44067,496.85295L320.44067,496.61292L319.72057,496.61292L319.24051,496.61292L319.24051,496.37289L318.52042,496.37289
				L318.52042,496.13287L317.80033,496.13287L317.80033,495.89284L316.84021,495.89284L315.88009,495.89284L315.88009,495.65282
				L314.4399,495.65282L314.4399,495.41279L312.75969,495.41279L312.75969,495.17277L312.0396,495.17277L311.07948,495.17277L311.07948,494.93274
				L310.35939,494.93274L310.35939,494.69272L309.63929,494.69272L309.63929,494.45269L309.15923,494.45269L308.67917,494.45269
				L308.67917,494.21266L308.19911,494.21266L308.19911,493.97264L306.99896,493.97264L306.99896,493.73261L306.5189,493.73261L
				306.03884,493.73261L306.03884,493.49259L305.55878,493.49259L305.55878,493.25256L305.07872,493.25256L305.07872,493.01254L
				304.59865,493.01254L304.35862,493.01254L304.35862,492.77251L303.87856,492.77251L303.87856,492.53249L303.3985,492.53249L303.3985,492.29246
				L303.15847,492.29246L303.15847,492.05243L300.27811,492.05243L299.07795,492.05243L298.11783,492.05243L296.67765,492.05243
				L296.67765,491.81241L294.99744,491.81241L294.99744,491.57238L294.51738,491.57238L294.51738,491.33236L291.87704,491.33236
				L291.39698,491.33236L291.15695,491.33236L291.15695,491.57238L290.67689,491.57238L290.67689,491.81241L290.43686,491.81241
				L290.43686,492.05243L290.19683,492.05243L289.9568,492.05243L289.9568,492.29246L289.71677,492.29246L289.71677,492.53249L289.47674,492.53249
				L289.47674,492.77251L288.99668,492.77251L288.99668,493.01254L288.75664,493.01254L288.27658,493.01254L288.27658,493.25256
				L287.79652,493.25256L287.79652,493.49259L287.55649,493.49259L287.55649,493.73261L286.8364,493.73261L285.39622,493.73261L
				285.15619,493.73261L285.15619,493.49259L284.4361,493.49259L284.4361,493.25256L284.19607,493.25256L284.19607,493.01254L283.716,493.01254
				L283.23594,493.01254L283.23594,492.77251L282.99591,492.77251L282.99591,492.53249L282.27582,492.53249L282.27582,492.29246
				L282.03579,492.29246L282.03579,492.05243L281.55573,492.05243L281.07567,492.05243L281.07567,491.81241L280.83564,491.81241
				L280.83564,491.57238L280.35558,491.57238L280.35558,491.33236L279.87552,491.33236L279.39546,491.33236L279.39546,491.09233
				L279.15543,491.09233L279.15543,490.85231L278.67537,490.85231L278.67537,490.61228L278.1953,490.61228L276.75512,490.61228L
				276.75512,490.37225L275.795,490.37225L275.795,490.13223L275.31494,490.13223L275.31494,489.8922L274.83488,489.8922L274.35482,489.8922
				L274.35482,489.65218L274.11479,489.65218L274.11479,489.41215L273.63473,489.41215L273.63473,489.17213L273.15466,489.17213
				L272.6746,489.17213L272.6746,488.9321L272.19454,488.9321L272.19454,488.69208L271.95451,488.69208L271.95451,488.45205L271.47445,488.45205
				L270.99439,488.45205L270.99439,488.21202L270.51433,488.21202L270.51433,487.972L270.2743,487.972L270.2743,487.73197L269.79424,487.73197
				L269.55421,487.73197L269.55421,487.49195L268.83412,487.49195L268.83412,487.25192L268.59409,487.25192L268.59409,487.0119L
				268.11402,487.0119L267.87399,487.0119L267.87399,486.77187L267.39393,486.77187L267.39393,486.53185L267.1539,486.53185L267.1539,486.29182
				L266.67384,486.29182L266.43381,486.29182L266.43381,486.05179L265.95375,486.05179L265.95375,485.81177L265.71372,485.81177
				L265.71372,485.57174L265.23366,485.57174L264.99363,485.57174L264.99363,485.33172L264.51357,485.33172L264.51357,485.09169
				L264.03351,485.09169L264.03351,484.85167L263.55345,484.85167L263.55345,484.61164L263.31342,484.61164L262.83335,484.61164
				L262.83335,484.37162L262.59332,484.37162L262.59332,484.13159L262.11326,484.13159L262.11326,483.89156L261.87323,483.89156
				L261.87323,483.65154L261.39317,483.65154L261.39317,483.17149L261.15314,483.17149L260.91311,483.17149L260.91311,482.93146
				L260.67308,482.93146L260.67308,482.69144L260.67308,482.45141L260.43305,482.45141L260.43305,481.97136L260.19302,481.97136
				L260.19302,481.73133L259.95299,481.73133L259.95299,481.49131L259.95299,481.01126L259.71296,481.01126L259.71296,480.77123
				L259.47293,480.77123L259.47293,480.29118L259.2329,480.29118L259.2329,479.81113L259.2329,479.5711L258.99287,479.5711L258.99287,479.33108
				L258.75284,479.33108L258.75284,479.09105L258.51281,479.09105L258.51281,478.85103L258.51281,478.611L258.27278,478.611L258.27278,478.37098
				L258.03275,478.37098L258.03275,478.13095L257.79272,478.13095L257.79272,477.89092L257.79272,477.6509L257.55268,477.6509L257.55268,477.17085
				L257.31265,477.17085L257.31265,476.93082L257.07262,476.93082L257.07262,476.6908L257.07262,476.45077L256.83259,476.45077L
				256.59256,476.45077L256.59256,476.21075L256.35253,476.21075L256.35253,475.97072L256.1125,475.97072L256.1125,475.73069L255.87247,475.73069
				L255.39241,475.73069L255.39241,475.49067L255.15238,475.49067L255.15238,475.25064L254.91235,475.25064L254.91235,475.01062
				L254.67232,475.01062L254.43229,475.01062L254.43229,474.77059L253.95223,474.77059L253.95223,474.53057L253.95223,474.29054
				L253.7122,474.29054L253.47217,474.29054L253.47217,474.05052L253.23214,474.05052L253.23214,473.81049L253.23214,473.57046L
				252.99211,473.57046L252.75208,473.57046L252.75208,473.33044L252.51205,473.33044L252.51205,472.85039L252.27201,472.85039L
				252.27201,472.61036L252.03198,472.61036L252.03198,472.37034L251.79195,472.37034L251.79195,472.13031L251.55192,472.13031L
				251.55192,471.89029L251.31189,471.89029L251.31189,471.41023L251.07186,471.41023L251.07186,470.93018L250.83183,470.93018L
				250.83183,470.45013L250.5918,470.45013L250.35177,470.45013L250.35177,470.21011L250.35177,469.97008L250.11174,469.97008L250.11174,469.73006
				L249.87171,469.73006L249.87171,469.49003L249.63168,469.49003L249.63168,469.25L249.39165,469.25L249.39165,469.00998L249.15162,469.00998
				L249.15162,468.76995L248.91159,468.76995L248.91159,468.52993L248.67156,468.52993L248.67156,468.2899L248.43153,468.2899L248.43153,467.80985
				L248.1915,467.80985L248.1915,467.56983L247.95147,467.56983L247.95147,467.3298L247.47141,467.3298L247.47141,467.08977L247.23137,467.08977
				L247.23137,466.84975L246.99134,466.84975L246.99134,466.60972L246.51128,466.60972L246.51128,466.3697L246.51128,466.12967L
				246.27125,466.12967L246.03122,466.12967L246.03122,465.88965L245.79119,465.88965L245.79119,465.64962L245.79119,465.40959L
				245.55116,465.40959L245.0711,465.40959L245.0711,465.16957L245.0711,464.92954L244.83107,464.92954L244.83107,464.68952L244.59104,464.68952
				L244.35101,464.68952L244.35101,464.44949L244.35101,464.20947L244.11098,464.20947L244.11098,463.96944L243.87095,463.96944
				L243.87095,463.72942L243.63092,463.72942L243.63092,463.48939L243.39089,463.48939L243.39089,463.24936L243.15086,463.24936
				L243.15086,463.00934L242.91083,463.00934L242.91083,462.76931L242.6708,462.76931L242.6708,462.52929L242.43077,462.52929L242.43077,462.28926
				L242.19074,462.28926L241.9507,462.28926L241.9507,462.04924L241.9507,461.80921L241.71067,461.80921L241.71067,461.56919L241.47064,461.56919
				L241.23061,461.56919L241.23061,461.08913L241.23061,460.84911L240.99058,460.84911L240.75055,460.84911L240.75055,460.60908
				L240.51052,460.60908L240.51052,460.36906L240.51052,460.12903L240.27049,460.12903L240.03046,460.12903L240.03046,459.88901
				L239.79043,459.88901L239.79043,459.64898L239.79043,459.40896L239.5504,459.40896L239.31037,459.40896L239.31037,459.16893L
				239.07034,459.16893L239.07034,458.9289L239.07034,458.68888L238.83031,458.68888L238.59028,458.68888L238.59028,458.44885L238.35025,458.44885
				L238.35025,458.20883L238.35025,457.9688L238.11022,457.9688L238.11022,457.72878L237.87019,457.72878L237.87019,457.48875L237.63016,457.48875
				L237.63016,457.24873L237.39013,457.24873L237.39013,457.0087L237.1501,457.0087L237.1501,456.76867L236.91007,456.76867L236.91007,456.52865
				L236.91007,456.28862L236.67003,456.28862L236.43,456.28862L236.43,456.0486L236.18997,456.0486L236.18997,455.80857L236.18997,455.56855
				L235.94994,455.56855L235.22985,455.56855L235.22985,455.32852L234.50976,455.32852L234.50976,455.0885L234.0297,455.0885L234.0297,454.84847
				L233.78967,454.84847L233.30961,454.84847L233.30961,454.60844L233.06958,454.60844L233.06958,454.36842L232.82955,454.36842
				L232.82955,454.12839L232.58952,454.12839L232.34949,454.12839L232.34949,453.88837L231.86943,453.88837L231.86943,453.64834
				L231.62939,453.64834L231.62939,453.40832L231.38936,453.40832L231.14933,453.40832L231.14933,453.16829L230.9093,453.16829L
				230.9093,452.92826L230.42924,452.92826L230.42924,452.68824L230.18921,452.68824L229.94918,452.68824L229.94918,452.44821L229.46912,452.44821
				L229.46912,452.20819L229.46912,451.96816L228.98906,451.96816L228.74903,451.96816L228.74903,451.72814L228.509,451.72814L228.509,451.48811
				L228.02894,451.48811L228.02894,451.24809L227.78891,451.24809L227.06882,451.24809L227.06882,451.00806L226.82879,451.00806
				L226.82879,450.76803L226.34872,450.76803L226.34872,450.52801L226.10869,450.52801L225.62863,450.52801L225.62863,450.28798
				L225.14857,450.28798L225.14857,450.04796L224.66851,450.04796L224.66851,449.80793L224.18845,449.80793L224.18845,449.56791
				L223.94842,449.56791L223.46836,449.56791L223.46836,449.32788L222.9883,449.32788L222.9883,449.08786L222.74827,449.08786L222.74827,448.84783
				L222.50824,448.84783L222.02818,448.84783L222.02818,448.6078L221.78815,448.6078L221.78815,448.36778L221.54812,448.36778L221.54812,448.12775
				L221.06805,448.12775L220.82802,448.12775L220.82802,447.88773L220.34796,447.88773L220.34796,447.6477L220.10793,447.6477L220.10793,447.40768
				L219.8679,447.40768L219.62787,447.40768L219.62787,447.16765L219.38784,447.16765L219.38784,446.92763L218.90778,446.92763L
				218.90778,446.6876L218.66775,446.6876L218.42772,446.6876L218.42772,446.44757L218.18769,446.44757L218.18769,446.20755L217.70763,446.20755
				L217.70763,445.96752L217.4676,445.96752L217.22757,445.96752L217.22757,445.7275L216.98754,445.7275L216.98754,445.48747L216.74751,445.48747
				L216.74751,445.24745L216.26745,445.24745L216.02742,445.24745L216.02742,445.00742L215.78738,445.00742L215.78738,444.7674L
				215.54735,444.7674L215.54735,444.52737L215.30732,444.52737L215.30732,444.28734L215.30732,444.04732L214.82726,444.04732L214.82726,443.80729
				L214.58723,443.80729L214.58723,443.56727L214.58723,443.32724L214.3472,443.32724L214.3472,443.08722L214.10717,443.08722L213.86714,443.08722
				L213.86714,442.84719L213.62711,442.84719L213.62711,442.36714L213.62711,442.12711L213.38708,442.12711L213.38708,441.88709
				L213.14705,441.88709L213.14705,441.40704L212.90702,441.40704L212.90702,441.16701L212.66699,441.16701L212.66699,440.68696
				L212.42696,440.68696L212.42696,440.44693L212.18693,440.44693L212.18693,439.96688L212.18693,439.72686L211.9469,439.72686L
				211.9469,439.24681L211.70687,439.24681"/>
			<path clip-path="url(#SVG_CP_2)" fill="none" stroke="#999999" stroke-width="0.96012" stroke-miterlimit="10" stroke-linecap="round" stroke-linejoin="round" d="
				M211.70687,439.24681L211.46684,439.24681L211.46684,439.00678L211.46684,438.52673L211.22681,438.52673L211.22681,438.2867L
				210.98678,438.2867L210.98678,437.80665L210.74674,437.80665L210.74674,437.56663L210.74674,437.3266L210.50671,437.3266L210.50671,437.08658
				L210.26668,437.08658L210.26668,436.60653L210.02665,436.60653L210.02665,436.3665L209.78662,436.3665L209.78662,435.88645L209.54659,435.88645
				L209.54659,435.64642L209.30656,435.64642L209.30656,435.4064L209.06653,435.4064L209.06653,435.16637L208.58647,435.16637L208.58647,434.92635
				L208.58647,434.68632L208.34644,434.68632L208.10641,434.68632L208.10641,434.4463L207.86638,434.4463L207.86638,434.20627L207.86638,433.96624
				L207.62635,433.96624L207.38632,433.96624L207.38632,433.72622L206.90626,433.72622L206.90626,433.24617L206.66623,433.24617
				L206.66623,433.00614L206.4262,433.00614L206.4262,432.76612L206.18617,432.76612L206.18617,432.52609L206.18617,432.28607L205.94614,432.28607
				L205.94614,432.04604L205.70611,432.04604L205.70611,431.80601L205.46607,431.80601L204.98601,431.80601L204.98601,431.56599
				L204.74598,431.56599L204.74598,431.32596L204.26592,431.32596L204.26592,431.08594L203.78586,431.08594L203.3058,431.08594L
				203.3058,430.84591L203.06577,430.84591L203.06577,430.60589L202.58571,430.60589L202.58571,430.36586L202.10565,430.36586L201.86562,430.36586
				L201.86562,430.12584L201.38556,430.12584L201.38556,429.88581L201.14553,429.88581L201.14553,429.64578L200.9055,429.64578L
				200.42544,429.64578L200.42544,429.40576L200.42544,429.16573L199.94537,429.16573L199.94537,428.92571L199.46531,428.92571L
				199.46531,428.68568L198.74522,428.68568L198.74522,428.44566L198.50519,428.44566L198.50519,428.20563L198.02513,428.20563L
				198.02513,427.9656L197.7851,427.9656L197.30504,427.9656L197.30504,427.72558L197.30504,427.48555L196.82498,427.48555L196.82498,427.24553
				L196.58495,427.24553L196.58495,427.0055L196.10489,427.0055L196.10489,426.76548L195.86486,426.76548L195.86486,426.52545L195.62483,426.52545
				L195.62483,426.28543L195.3848,426.28543L195.3848,426.0454L195.14476,426.0454L195.14476,425.80537L194.90473,425.80537L194.42467,425.80537
				L194.42467,425.56535L194.18464,425.56535L194.18464,425.32532L192.74446,425.32532L192.74446,425.0853L191.30428,425.0853L191.06425,425.0853
				L191.06425,424.84527L190.58419,424.84527L190.58419,424.60525L190.34416,424.60525L190.34416,424.36522L189.86409,424.36522
				L189.38403,424.36522L189.38403,424.1252L189.144,424.1252L189.144,423.88517L188.66394,423.88517L188.66394,423.64514L188.18388,423.64514
				L187.70382,423.64514L187.70382,423.40512L187.46379,423.40512L187.46379,423.16509L186.98373,423.16509L186.98373,422.92507
				L186.50367,422.92507L186.02361,422.92507L186.02361,422.68504L185.30352,422.68504L185.30352,422.44502L185.06349,422.44502
				L185.06349,422.20499L184.58342,422.20499L184.10336,422.20499L184.10336,421.96497L183.86333,421.96497L183.86333,421.72494
				L183.14324,421.72494L183.14324,421.48491L182.66318,421.48491L182.66318,421.24489L181.94309,421.24489L181.70306,421.24489
				L181.70306,421.00486L181.94309,421.00486L181.94309,420.76484L182.18312,420.76484L182.18312,420.52481L182.42315,420.52481
				L182.42315,420.28479L183.14324,420.28479L183.14324,420.04476L183.86333,420.04476L183.86333,419.80474L184.58342,419.80474
				L185.30352,419.80474L185.30352,419.56471L186.02361,419.56471L186.02361,419.32468L186.7437,419.32468L186.7437,419.08466L187.46379,419.08466
				L188.18388,419.08466L188.18388,418.84463L188.90397,418.84463L188.90397,418.60461L189.62406,418.60461L189.62406,418.36458
				L190.10413,418.36458L190.82422,418.36458L190.82422,418.12456L191.54431,418.12456L191.54431,417.88453L192.2644,417.88453L
				192.2644,417.64451L192.98449,417.64451L193.70458,417.64451L193.70458,417.40448L194.42467,417.40448L194.42467,417.16445L195.14476,417.16445
				L195.14476,416.92443L195.86486,416.92443L196.58495,416.92443L196.58495,416.6844L197.30504,416.6844L197.30504,416.44438L198.02513,416.44438
				L198.02513,416.20435L198.50519,416.20435L199.22528,416.20435L199.22528,415.96433L200.42544,415.96433L200.42544,415.7243L
				201.38556,415.7243L201.38556,415.48427L202.58571,415.48427L204.02589,415.48427L204.02589,415.24425L205.46607,415.24425L205.46607,415.00422
				L206.90626,415.00422L206.90626,414.7642L208.34644,414.7642L209.78662,414.7642L209.78662,414.52417L211.22681,414.52417L211.22681,414.28415
				L212.66699,414.28415L212.66699,414.04412L213.62711,414.04412L213.62711,413.8041L213.86714,413.8041L214.3472,413.8041"/>
		</g>
</g></svg>