<?xml version="1.0" encoding="utf-8" standalone="no"?>
<!-- Creator: ESRI ArcMap 10.0.0.2414 -->
<!DOCTYPE svg PUBLIC "-//W3C//DTD SVG 1.1//EN"  "http://www.w3.org/Graphics/SVG/1.1/DTD/svg11.dtd">
<svg width="595.50236pt" height="595.50236pt" viewBox="25 148.377955 545.50236 545.50236" enable-background="new 25 148.377955 545.50236 545.50236"
	version="1.1" xmlns="http://www.w3.org/2000/svg" xmlns:xlink="http://www.w3.org/1999/xlink" >
	<g id="Couches">
		<g id="reservoirs">
			<clipPath id="SVG_CP_2">
				<path d="M574.39289,21.36228L21.36271,21.36228L21.36271,821.36753L574.39289,821.36753L574.39289,21.36228z"/>
			</clipPath>
			<path clip-path="url(#SVG_CP_2)" fill-opacity="0.08" fill="#2f4493" fill-rule="evenodd" stroke="#2f4493" stroke-width="1" stra="1.44018" stroke-miterlimit="10" stroke-linecap="round" stroke-linejoin="round" d="
				M163.94081,379.96049L179.78282,392.20179L189.38403,395.80218L193.46455,397.00231L197.54507,397.24233L201.38556,397.72238
				L207.86638,396.52225L210.26668,396.0422L211.46684,397.00231L213.62711,396.28223L214.82726,396.0422L215.30732,396.52225L215.06729,397.48236
				L214.10717,398.44246L214.58723,398.92251L215.30732,398.92251L216.50748,398.68248L217.4676,398.20243L217.70763,398.92251L
				217.70763,399.16254L216.74751,400.12264L214.10717,400.36266L213.38708,400.84271L213.38708,402.28287L216.74751,402.04284L
				211.22681,405.4032L214.82726,410.68376L214.3472,413.56407L213.62711,414.04412L202.34568,415.48427L199.22528,415.96433L182.42315,420.52481
				L181.94309,421.00486L172.82193,423.88517L164.6609,427.9656L153.6195,433.72622L151.21919,436.12647L148.33883,438.2867L139.69773,445.24745
				L134.65709,449.08786L130.57657,452.20819L126.01599,455.0885L122.65557,456.52865L118.33502,457.24873L117.13487,454.12839L
				115.21462,451.24809L106.57352,455.0885L104.17322,456.28862L101.05282,457.72878L100.33273,457.48875L98.89255,457.48875L97.21234,458.9289
				L96.01218,457.48875L95.77215,455.32852L95.29209,452.92826L90.97155,444.28734L92.65176,443.80729L95.53212,443.32724L96.97231,442.36714
				L100.81279,438.52673L104.89331,434.4463L104.65328,428.92571L104.65328,427.9656L104.65328,426.52545L108.7338,423.16509L110.89407,420.52481
				L113.53441,417.40448L116.41477,412.60397L130.8166,414.28415L131.05663,413.32404L133.69697,410.68376L136.81736,408.04348L
				138.01752,406.12328L139.4577,404.4431L140.89788,401.08274L145.69849,397.48236L146.65861,392.68185L146.41858,391.96177L147.3787,391.72174
				L148.81889,391.96177L149.77901,391.48172L150.25907,391.00167L150.25907,390.28159L149.77901,389.08146L149.77901,386.44118
				L140.89788,379.96049L143.05815,378.76036L143.05815,377.56023L144.49834,378.04028L145.45846,377.80026L148.33883,379.72046
				L149.53898,380.44054L153.37946,380.20051L156.73989,375.15998L163.94081,379.96049z"/>
			<path clip-path="url(#SVG_CP_2)" fill-opacity="0.08" fill="#2f4493" fill-rule="evenodd" stroke="#2f4493" stroke-width="1" stra="1.44018" stroke-miterlimit="10" stroke-linecap="round" stroke-linejoin="round" d="
				M601.9964,480.77123L599.11603,481.73133L584.95423,493.49259L573.91283,481.73133L573.43277,481.97136L573.43277,485.81177L
				569.59228,489.41215L573.43277,492.53249L564.55164,501.17341L542.9489,520.37545L538.86838,521.57558L536.94814,522.29566L534.30781,522.77571
				L532.14753,522.77571L531.42744,519.65538L529.5072,520.13543L530.46732,523.01573L528.30704,523.25576L523.2664,523.97584L520.14601,524.45589
				L519.90598,523.97584L517.98573,524.45589L520.62607,530.45653L523.74647,536.93722L522.30628,536.69719L520.14601,536.45717
				L517.98573,536.45717L515.82546,536.69719L510.54479,537.65729L502.62378,539.09745L499.02333,539.33747L495.18284,539.5775L
				492.06244,539.33747L487.50187,538.6174L484.38147,538.13734L481.5011,537.17724L477.66062,535.73709L475.02028,534.29694L473.5801,533.57686
				L468.29943,530.93658L458.45818,525.89604L459.89836,522.05563L464.21891,523.01573L464.69897,522.53568L463.49882,521.33555
				L462.05864,520.61548L460.37842,519.41535L460.13839,518.69527L459.65833,516.05499L459.4183,513.89476L458.93824,512.21458L
				458.93824,510.77443L457.73809,511.73453L453.41754,515.09489L447.17675,519.8954L446.21663,519.41535L436.13535,513.41471L432.77492,511.49451
				L430.37462,510.29438L428.93443,509.33428L426.77416,507.6541L425.09395,505.97392L424.85392,505.97392L420.05331,501.17341L
				422.45361,497.81305L422.45361,496.61292L420.53337,495.65282L418.13306,499.01318L416.93291,498.2931L414.77264,496.85295L401.81099,489.41215
				L394.37005,486.05179L389.56944,483.89156L396.29029,472.61036L396.77035,471.41023L396.53032,470.93018L396.29029,470.21011
				L395.81023,469.00998L395.5702,467.3298L395.33017,466.3697L394.85011,464.20947L394.61008,463.00934L394.37005,461.80921L393.16989,459.16893
				L392.4498,457.72878L391.48968,455.56855L391.00962,452.92826L390.52956,451.00806L389.56944,448.84783L389.32941,448.6078L388.12926,447.16765
				L387.40916,445.48747L386.9291,443.80729L386.20901,439.96688L385.72895,436.84655L385.24889,435.4064L384.04874,432.28607L382.84859,430.84591
				L382.12849,429.88581L381.4084,428.68568L384.04874,427.9656L384.04874,426.52545L384.04874,425.32532L385.24889,425.56535L385.72895,423.88517
				L386.9291,421.96497L391.48968,418.12456L391.00962,417.40448L390.0495,416.20435L390.52956,415.96433L394.61008,413.32404L392.68983,411.64387
				L391.48968,412.60397L389.80947,410.44374L388.12926,411.88389L386.44904,409.96369L388.12926,409.24361L387.88922,408.28351
				L389.08938,407.56343L388.36929,406.12328L388.84935,404.4431L389.08938,403.24297L389.32941,402.52289L389.08938,401.32277L
				389.08938,401.08274L389.08938,400.84271L389.08938,400.60269L389.32941,400.12264L388.60932,397.96241L387.40916,395.32213L
				386.9291,393.88197L386.68907,392.68185L386.68907,391.72174L386.9291,391.00167L387.16913,390.52161L387.40916,390.28159L387.64919,390.04156
				L388.84935,389.56151L390.28953,388.60141L392.20977,387.88133L394.37005,386.44118L395.33017,385.7211L395.81023,385.48108L
				397.49044,384.52098L402.05102,382.60077L402.77111,382.36075L403.97127,381.88069L407.33169,380.44054L411.17218,379.00039L
				415.01267,377.80026L418.13306,376.60013L421.49349,375.88005L424.13382,375.15998L428.6944,373.4798L431.33474,372.5197L432.77492,372.27967
				L433.73504,371.79962L435.17523,371.79962L436.61541,371.79962L438.05559,376.60013L442.37614,375.64003L442.8562,377.56023L
				447.17675,376.12008L445.49654,371.79962L447.65681,370.83952L450.29714,375.64003L451.25727,377.56023L456.05788,375.64003L
				455.81785,374.91995L457.25803,374.4399L457.73809,373.95985L455.57781,367.71918L455.81785,367.47916L458.21815,366.75908L460.37842,366.03901
				L461.81861,365.31893L463.25879,364.83888L465.41906,362.67865L466.61922,363.63875L467.81937,362.43862L469.25955,361.71855
				L472.13992,366.27903L475.9804,364.1188L473.10004,359.31829L476.22043,357.15806L477.42059,359.07826L482.70126,356.19796L483.18132,356.91803
				L489.42211,353.07762L492.06244,357.63811L492.30248,357.63811L494.22272,360.99847L500.22348,372.5197L501.66366,372.5197L502.86382,370.35947
				L505.50415,372.03965L507.18436,368.43926L503.82394,366.03901L501.1836,364.1188L502.86382,363.1587L501.66366,360.03837L501.42363,359.31829
				L500.94357,358.11816L500.70354,357.15806L501.1836,356.19796L501.90369,355.95793L504.06397,355.47788L502.62378,350.91739L
				502.14372,349.47724L502.86382,348.99719L500.94357,344.91676L506.94433,342.03645L507.90446,343.95665L509.8247,342.99655L512.46503,341.79642
				L512.94509,341.5564L514.14525,343.71663L523.9865,339.15614L521.82622,333.1555L535.98802,328.11496L533.34768,321.39425L535.50796,321.15422
				L537.66823,321.15422L539.10841,321.39425L541.74875,321.63427L543.90902,321.63427L546.0693,321.15422L548.70963,319.9541L549.42972,319.9541
				L553.51024,319.71407L555.91055,318.51394L558.55088,317.31381L560.95119,316.59374L565.7518,314.91356L569.83231,312.03325L
				572.47265,310.5931L575.59304,310.35307L581.11375,321.39425L581.59381,321.15422L589.27478,317.31381L591.91512,323.31445L594.79548,327.39489
				L586.15439,330.99527L585.43429,331.47532L591.67509,344.67673L599.83612,340.83632L600.79624,340.35627L601.9964,340.11624L
				601.9964,480.77123z"/>
		</g>
</g></svg>