<?xml version="1.0" encoding="utf-8" standalone="no"?>
<!-- Creator: ESRI ArcMap 10.0.0.2414 -->
<!DOCTYPE svg PUBLIC "-//W3C//DTD SVG 1.1//EN"  "http://www.w3.org/Graphics/SVG/1.1/DTD/svg11.dtd">
<svg width="595.50236pt" height="595.50236pt" viewBox="25 148.377955 545.50236 545.50236" enable-background="new 25 148.377955 545.50236 545.50236"
	version="1.1" xmlns="http://www.w3.org/2000/svg" xmlns:xlink="http://www.w3.org/1999/xlink" >
	<g id="Couches">
		<g id="reservoirs">
			<clipPath id="SVG_CP_2">
				<path d="M574.39289,21.36228L21.36271,21.36228L21.36271,821.36753L574.39289,821.36753L574.39289,21.36228z"/>
			</clipPath>
			<path clip-path="url(#SVG_CP_2)" fill-opacity="0.08" fill="#2f4493" fill-rule="evenodd" stroke="#2f4493" stroke-width="1" stra="1.44018" stroke-miterlimit="10" stroke-linecap="round" stroke-linejoin="round" d="
				M134.89712,861.21177L127.21614,851.85077L142.81812,840.8096L148.09879,834.56893L131.05663,819.2073L133.45694,815.84694L125.53593,810.08632
				L118.81508,800.72533L117.3749,798.80512L115.69468,796.64489L103.93319,794.96471L105.6134,801.4454L90.01142,804.56574L92.65176,838.16932
				L81.37033,861.21177L-6.24079,861.21177L-6.24079,690.31356L-5.04064,690.55359L4.80061,690.55359L12.72161,691.27366L20.88265,697.2743
				L38.88494,720.79681L53.76682,727.51753L58.3274,720.07673L65.28829,711.67584L158.90017,702.55487L171.86181,684.31292L192.50443,635.82775
				L202.10565,608.94489L217.22757,613.7454L224.66851,593.82328L229.22909,586.62251L206.90626,588.54272L192.50443,562.37993L
				190.82422,557.09937L183.14324,562.1399L164.42087,536.69719L156.25983,520.61548L131.05663,487.972L104.89331,461.08913L85.69087,464.20947
				L76.56972,463.96944L75.36957,469.25L56.88722,469.00998L44.40564,471.65026L-6.24079,481.97136L-6.24079,399.16254L-3.84049,399.40256
				L13.44171,376.84016L50.64643,362.91867L50.4064,370.59949L45.84582,373.95985L42.96545,383.56087L46.32588,393.40192L49.68631,403.483
				L57.36728,413.08402L63.8481,416.20435L103.69316,379.00039L108.25374,382.60077L119.7752,412.12392L124.57581,423.64514L126.73608,430.12584
				L136.81736,425.32532L149.29895,424.1252L172.34187,419.80474L185.78358,430.36586L186.50367,445.00742L184.10336,460.84911L
				218.42772,467.80985L222.50824,473.09041L220.10793,500.2133L217.70763,509.81433L213.62711,546.53824L236.43,557.81944L279.39546,583.02213
				L287.31646,613.50538L288.51661,617.58581L287.79652,617.82584L288.75664,622.86637L289.47674,625.98671L290.43686,629.58709
				L291.15695,633.4275L292.59713,639.66816L293.79728,642.54847L292.83716,644.94873L291.87704,647.34898L292.11707,649.74924L
				291.39698,652.38952L290.43686,655.9899L289.23671,658.39016L287.79652,661.51049L286.11631,664.15077L284.67613,666.311L283.716,669.43134
				L284.19607,670.39144L275.795,676.15205L243.39089,689.83351L235.94994,692.71382L231.14933,690.31356L227.78891,689.35346L224.90854,686.23313
				L221.78815,680.95256L217.22757,674.47187L211.46684,669.67136L204.02589,672.31164L202.10565,689.59348L192.2644,708.07545L
				196.82498,719.59668L195.14476,730.15781L194.6647,733.03811L201.38556,734.71829L205.94614,726.3174L210.98678,720.31676L235.22985,708.07545
				L237.87019,706.6353L250.11174,715.0362L245.31113,721.75691L252.99211,730.87788L246.75131,738.79873L263.79348,751.28006L261.39317,755.36049
				L257.79272,759.92098L254.91235,762.32123L277.71524,795.68479L299.31798,826.88811L304.35862,834.08888L306.27887,832.4087L
				317.5603,823.52776L356.44523,861.21177L134.89712,861.21177z"/>
			<path clip-path="url(#SVG_CP_2)" fill-opacity="0.08" fill="#2f4493" fill-rule="evenodd" stroke="#2f4493" stroke-width="1" stra="1.44018" stroke-miterlimit="10" stroke-linecap="round" stroke-linejoin="round" d="
				M601.9964,320.43415L598.876,320.19412L587.8346,321.39425L587.8346,316.59374L581.35378,310.11305L575.83308,314.19348L578.71344,321.8743
				L571.51253,323.7945L570.79244,324.03453L560.95119,326.67481L550.62988,329.55512L532.38756,335.55576L513.42516,340.59629L
				492.30248,342.27647L470.21967,344.4367L455.09775,345.87686L427.49425,348.51714L403.97127,350.19732L381.16837,349.95729L379.96822,268.82865
				L396.29029,272.90908L407.57172,258.50755L412.61236,260.9078L415.49273,252.50691L420.53337,248.90652L428.21434,242.90588L
				429.89456,244.58606L435.17523,250.10665L451.01724,238.58542L443.33626,232.58478L443.33626,232.34476L457.018,221.30358L472.37995,233.54489
				L478.14068,238.10537L485.34159,227.78427L488.22196,219.38338L503.58391,210.74246L507.90446,214.10282L514.14525,207.86215
				L516.78558,210.02238L519.42592,207.14207L516.54555,203.78172L519.18589,200.42136L517.26564,198.50115L528.78711,193.94067
				L521.10613,179.53913L520.8661,178.81906L539.58848,172.09834L540.06854,172.81842L541.98878,175.93875L548.22957,186.49987L
				545.10918,189.38018L553.27021,195.62085L567.67204,178.81906L578.23338,183.37954L583.51405,176.17877L591.91512,179.29911L
				598.39594,181.69936L601.9964,174.01854L601.9964,320.43415zM601.9964,168.73798L595.51557,165.61765L588.79472,162.25729L594.79548,153.37634
				L581.35378,144.01535L585.91435,138.97481L589.27478,138.97481L590.2349,138.73478L596.47569,140.17494L601.9964,143.05524L601.9964,168.73798
				z"/>
		</g>
</g></svg>