<?xml version="1.0" encoding="utf-8" standalone="no"?>
<!-- Creator: ESRI ArcMap 10.0.0.2414 -->
<!DOCTYPE svg PUBLIC "-//W3C//DTD SVG 1.1//EN"  "http://www.w3.org/Graphics/SVG/1.1/DTD/svg11.dtd">
<svg width="595.50236pt" height="595.50236pt" viewBox="25 148.377955 545.50236 545.50236" enable-background="new 25 148.377955 545.50236 545.50236"
	version="1.1" xmlns="http://www.w3.org/2000/svg" xmlns:xlink="http://www.w3.org/1999/xlink" >
	<g id="Couches">
		<g id="reservoirs">
			<path clip-path="url(#SVG_CP_2)" fill-opacity="0.2" fill="#07866D" fill-rule="evenodd" stroke="none" stroke-width="" stra="1.44018" stroke-miterlimit="10" stroke-linecap="round" stroke-linejoin="round" d="
				M601.9964,532.61676L588.31466,539.33747L586.39442,540.29758L583.27402,547.97839L583.03399,548.21842L582.79396,548.21842L
				582.79396,548.45844L582.55393,548.69847L579.1935,551.57878L578.95347,551.8188L578.71344,551.8188L578.23338,552.29885L565.7518,563.1
				L565.51177,563.1L565.27174,563.1L561.91131,565.02021L559.511,566.22034L559.27097,566.22034L550.38985,570.06075L547.98954,571.5009
				L540.30857,575.82136L540.06854,575.82136L540.06854,576.06139L539.82851,576.06139L535.0279,577.50154L534.78787,577.50154L
				534.54784,577.50154L527.10689,577.02149L523.50643,576.78146L520.14601,579.18172L519.18589,580.8619L518.4658,582.06203L518.22576,587.34259
				L517.98573,598.38376L517.7457,598.62379L517.7457,598.86382L515.82546,604.14438L514.62531,607.26471L514.38528,607.50474L514.14525,607.74476
				L514.14525,607.98479L511.98497,609.18492L511.02485,609.90499L510.78482,609.90499L510.54479,610.14502L510.30476,610.14502
				L510.06473,610.14502L509.8247,610.14502L507.18436,609.66497L506.94433,609.66497L506.7043,609.42494L506.46427,609.18492L506.22424,609.18492
				L503.58391,606.30461L502.62378,605.58453L502.62378,605.34451L502.38375,605.34451L494.46275,591.42302L489.90217,583.7422L
				487.50187,582.30205L485.10156,583.26215L484.14144,586.38249L483.42135,589.26279L483.18132,591.183L482.94129,591.42302L482.70126,591.66305
				L478.62074,596.46356L464.69897,611.58517L458.45818,622.62635L456.53794,629.10704L456.53794,629.34706L456.29791,629.58709
				L456.29791,629.82712L456.05788,630.06714L453.8976,632.70742L452.93748,633.66752L452.69745,633.66752L452.69745,633.90755L
				452.45742,634.14758L452.21739,634.14758L451.73733,634.14758L406.13154,632.94745L404.2113,634.62763L403.97127,636.06778L403.73124,637.26791
				L404.2113,645.42878L404.2113,645.6688L403.73124,653.34962L403.4912,653.58965L402.77111,656.95001L401.0909,662.23057L401.0909,662.47059
				L401.0909,662.71062L399.65072,664.87085L397.9705,667.99118L397.73047,668.23121L393.40993,673.03172L393.16989,673.27174L392.92986,673.27174
				L392.68983,673.51177L392.4498,673.51177L392.20977,673.51177L391.96974,673.51177L391.72971,673.27174L383.08862,669.91139L
				382.84859,669.91139L382.84859,669.67136L382.60855,669.67136L376.60779,664.3908L370.60703,658.87021L353.8049,647.34898L350.44447,645.42878
				L350.44447,645.18875L349.96441,644.7087L349.96441,644.22865L348.04417,640.38824L348.04417,640.14822L348.04417,639.90819L
				348.04417,639.66816L348.04417,639.42814L348.04417,638.94809L349.48435,633.18747L349.72438,632.94745L349.72438,632.70742L
				349.96441,632.4674L360.28572,620.70614L360.76578,619.98607L363.64615,617.10576L365.80642,614.7055L372.76731,605.10448L375.16761,600.30397
				L376.84782,597.42366L379.48816,593.34323L380.92834,591.183L383.32865,588.06266L383.56868,588.06266L383.56868,587.82264L388.12926,583.98223
				L395.5702,578.70167L396.29029,577.02149L394.13002,574.38121L387.16913,568.62059L377.08785,560.69975L371.80718,557.81944L
				371.56715,557.81944L371.56715,557.57942L371.32712,557.57942L368.44676,553.97903L368.44676,553.73901L368.20673,553.25896L
				368.20673,551.57878L367.9667,550.8587L367.9667,550.61867L368.20673,550.37865L368.20673,550.13862L368.20673,549.8986L369.40688,548.45844
				L370.84706,546.29821L373.24737,541.01765L374.44752,536.45717L374.44752,535.01701L374.68755,532.85678L374.44752,531.89668
				L371.80718,525.65601L366.76654,515.81497L364.60627,512.45461L361.7259,508.37417L355.72514,504.05371L353.8049,503.81369L350.44447,503.33364
				L348.52423,504.29374L345.40383,505.97392L336.76274,512.21458L331.24204,516.53504L327.40155,519.41535L327.16152,519.41535
				L318.28039,523.01573L314.4399,526.61612L309.87933,533.33683L309.87933,533.57686L309.63929,533.57686L305.31875,537.65729L
				305.07872,537.65729L304.83869,537.65729L298.11783,541.4977L297.63777,541.73773L297.39774,541.97775L297.15771,541.97775L294.27735,542.69783
				L291.39698,543.17788L291.15695,543.17788L290.67689,543.17788L290.43686,543.17788L286.11631,541.25768L285.87628,541.25768
				L283.716,540.29758L281.55573,539.09745L281.3157,539.09745L281.07567,538.6174L280.83564,538.6174L279.15543,536.21714L279.15543,535.97711
				L278.9154,535.73709L278.67537,533.81688L278.1953,531.1766L277.71524,525.17596L277.47521,522.29566L277.23518,516.29502L277.23518,516.05499
				L277.47521,515.33492L277.71524,512.21458L277.95527,511.97456L277.95527,511.73453L278.43533,510.5344L280.11555,506.93402L
				280.35558,506.93402L282.03579,503.57366L282.27582,503.33364L281.79576,499.97328L281.55573,499.01318L279.15543,495.65282L
				275.55497,493.73261L273.15466,493.25256L265.95375,493.01254L265.71372,493.01254L265.47369,493.01254L263.31342,492.29246L
				261.6332,491.81241L261.39317,491.81241L261.15314,491.57238L260.91311,491.57238L258.51281,489.17213L244.83107,476.45077L243.39089,475.73069
				L241.71067,476.21075L238.83031,477.6509L235.22985,479.33108L232.34949,481.97136L231.86943,482.69144L230.9093,484.37162L228.98906,490.13223
				L227.78891,493.25256L227.78891,493.49259L227.54888,493.73261L227.30885,493.97264L225.62863,495.65282L225.3886,495.65282L
				225.14857,495.89284L224.90854,495.89284L222.26821,496.13287L220.58799,496.37289L217.70763,496.37289L215.30732,496.61292L
				215.06729,496.61292L214.58723,496.37289L214.3472,496.37289L214.3472,496.13287L213.14705,495.41279L211.22681,493.97264L206.4262,490.85231
				L198.26516,489.17213L191.78434,488.9321L190.10413,489.17213L184.58342,489.17213L184.34339,489.17213L184.10336,489.17213L
				179.30275,487.972L178.82269,487.73197L178.34263,487.49195L178.1026,487.49195L178.1026,487.25192L174.74218,483.65154L174.50215,483.41151
				L174.26211,483.17149L174.26211,482.93146L174.02208,481.73133L173.54202,480.05116L173.54202,479.81113L172.34187,456.76867
				L172.5819,451.24809L172.5819,451.00806L172.5819,450.76803L172.5819,450.52801L173.78205,448.6078L173.78205,448.36778L174.02208,448.36778
				L174.02208,448.12775L179.78282,444.04732L180.98297,443.32724L181.94309,442.60717L182.18312,442.60717L185.30352,440.92699
				L185.54355,440.92699L186.26364,440.44693L188.90397,439.72686L190.10413,439.24681L193.22452,438.04668L197.30504,433.96624
				L199.70534,428.92571L199.70534,427.24553L199.94537,424.60525L198.26516,419.08466L196.58495,415.7243L195.62483,413.8041L193.22452,410.44374
				L191.78434,408.28351L190.34416,406.84335L187.46379,403.96305L187.22376,403.72302L183.14324,401.32277L182.42315,400.60269
				L182.42315,399.88261L182.42315,399.64259L182.66318,399.16254L183.14324,398.68248L183.86333,398.44246L184.34339,398.68248
				L184.58342,398.68248L189.144,401.56279L189.38403,401.56279L189.62406,401.80282L193.94461,406.12328L193.94461,406.3633L194.18464,406.3633
				L197.7851,411.64387L198.02513,412.12392L198.02513,412.36394L200.1854,416.20435L200.9055,417.88453L201.14553,417.88453L201.14553,418.12456
				L202.34568,422.20499L202.82574,423.64514L203.06577,423.88517L203.06577,424.1252L203.06577,424.36522L203.06577,424.60525L
				202.82574,426.76548L202.58571,429.40576L202.58571,429.64578L202.58571,429.88581L200.66547,433.96624L200.1854,435.4064L199.94537,435.64642
				L199.70534,435.88645L198.02513,437.56663L195.3848,440.44693L194.90473,440.68696L194.6647,440.92699L190.10413,442.36714L189.86409,442.36714
				L187.46379,443.32724L186.7437,443.56727L184.34339,444.7674L183.38327,445.24745L181.70306,446.44757L177.62254,449.32788L176.18236,450.52801
				L175.46227,451.72814L175.22224,456.76867L175.94233,471.17021L176.42239,479.33108L177.14248,481.97136L180.02285,485.09169
				L184.82346,486.29182L191.78434,486.05179L198.50519,486.05179L198.74522,486.05179L205.22604,487.49195L207.38632,487.972L207.62635,487.972
				L207.86638,487.972L209.30656,488.9321L212.90702,491.33236L215.06729,493.01254L215.78738,493.49259L220.58799,493.49259L223.94842,493.01254
				L224.90854,492.29246L225.86866,489.17213L226.10869,489.17213L227.78891,484.13159L228.02894,483.17149L228.26897,483.17149
				L228.26897,482.93146L229.94918,480.05116L230.18921,480.05116L230.18921,479.81113L230.9093,479.33108L233.06958,476.93082L
				233.30961,476.93082L233.30961,476.6908L233.54964,476.6908L240.51052,473.57046L240.51052,473.33044L240.75055,473.33044L242.6708,472.85039
				L242.91083,472.61036L243.15086,472.61036L243.39089,472.61036L243.63092,472.61036L243.87095,472.61036L243.87095,472.85039
				L244.11098,472.85039L246.51128,473.81049L246.51128,474.05052L246.75131,474.05052L262.83335,489.17213L266.19378,490.13223
				L273.15466,490.13223L273.63473,490.13223L273.63473,490.37225L273.87476,490.37225L276.27506,490.85231L276.51509,490.85231
				L276.75512,490.85231L281.07567,493.25256L281.3157,493.49259L281.55573,493.73261L283.23594,496.13287L284.19607,497.57302L
				284.4361,498.05307L284.4361,498.2931L285.39622,503.09361L285.39622,503.33364L285.39622,503.57366L285.15619,503.81369L285.15619,504.05371
				L282.99591,508.37417L280.83564,512.69463L280.35558,516.29502L280.35558,518.69527L280.35558,522.05563L280.83564,526.13607
				L281.07567,530.69655L282.03579,534.77699L282.51585,535.49706L283.23594,536.69719L287.07643,538.6174L287.31646,538.6174L291.15695,540.05755
				L296.19759,539.09745L303.3985,535.25704L305.55878,533.33683L307.47902,531.65665L308.43914,530.45653L312.0396,524.69591L312.0396,524.45589
				L312.27963,524.45589L313.95984,522.77571L316.36015,520.61548L316.60018,520.37545L316.84021,520.13543L325.72134,516.77507
				L329.32179,514.13479L331.7221,512.45461L343.48359,503.57366L343.72362,503.33364L349.48435,500.45333L349.96441,500.45333L
				350.20444,500.2133L350.44447,500.2133L354.76502,500.93338L356.44523,500.93338L357.16533,501.41343L363.88618,506.21394L363.88618,506.45397
				L364.12621,506.45397L366.04645,509.33428L369.40688,514.13479L369.40688,514.37481L372.04721,519.17532L374.44752,524.45589
				L374.68755,524.45589L374.68755,524.69591L375.8877,528.05627L377.56791,531.89668L377.56791,532.37673L377.80795,532.37673L
				377.80795,532.61676L377.80795,532.85678L377.32788,536.93722L377.32788,537.17724L376.12773,541.97775L375.8877,541.97775L375.64767,542.69783
				L373.4874,547.49834L373.4874,547.73837L371.08709,551.09873L371.32712,552.77891L373.4874,555.41919L378.52804,558.29949L378.76807,558.29949
				L383.80871,562.1399L389.08938,566.22034L390.0495,566.94041L396.05026,572.22098L396.29029,572.461L397.01038,573.4211L398.93063,575.58133
				L398.93063,575.82136L399.17066,576.06139L399.17066,576.30141L399.41069,576.30141L399.41069,576.54144L399.41069,576.78146
				L399.41069,577.26151L398.45057,580.14182L398.21053,580.38185L398.21053,580.62187L397.9705,580.62187L397.9705,580.8619L397.73047,580.8619
				L390.52956,586.14246L390.0495,586.38249L389.56944,586.86254L385.48892,590.2229L383.32865,592.86318L379.48816,599.10384L378.04798,601.74412
				L375.16761,606.54463L375.16761,606.78466L368.20673,616.62571L367.9667,616.62571L362.92606,622.1463L352.36472,634.14758L351.64463,637.02788
				L351.16456,639.66816L352.60475,643.02852L372.52728,656.46995L372.52728,656.70998L384.5288,667.27111L391.96974,670.15141L
				395.33017,666.311L398.21053,661.27047L400.61084,652.86957L401.0909,645.42878L400.85087,637.26791L400.85087,637.02788L401.33093,633.66752
				L401.33093,633.4275L401.57096,633.18747L401.57096,632.94745L401.81099,632.70742L403.73124,631.26727L404.69136,630.30717L
				404.93139,630.30717L404.93139,630.06714L405.17142,630.06714L405.41145,630.06714L405.65148,630.06714L451.01724,631.26727L
				452.93748,629.10704L453.65757,628.14694L455.57781,621.66625L455.81785,621.66625L455.81785,621.42622L458.45818,616.38568L
				462.05864,610.14502L462.05864,609.90499L462.29867,609.90499L462.29867,609.66497L472.13992,599.10384L476.22043,594.54336L
				480.30095,589.98287L481.26107,585.66241L481.74113,583.50218L482.2212,581.58197L482.46123,581.34195L482.46123,581.10192L482.70126,581.10192
				L482.70126,580.8619L482.94129,580.8619L483.18132,580.62187L487.0218,579.18172L487.26184,579.18172L487.50187,579.18172L487.7419,579.18172
				L487.98193,579.42174L488.22196,579.42174L491.82241,581.34195L492.06244,581.58197L492.30248,581.822L496.14296,588.30269L504.06397,601.98415
				L505.02409,603.66433L508.14449,606.78466L509.8247,607.02469L511.98497,605.58453L514.86534,598.14374L515.3454,587.34259L515.3454,585.18236
				L515.3454,581.58197L515.58543,580.8619L516.54555,579.18172L517.7457,577.50154L517.7457,577.26151L517.98573,577.26151L517.98573,577.02149
				L521.34616,574.62123L522.06625,574.14118L522.30628,573.90116L522.54631,573.90116L522.78634,573.90116L523.02637,573.90116
				L534.54784,574.62123L538.86838,573.18108L548.94966,567.42047L557.35073,563.82008L558.07082,563.58006L563.83155,560.69975
				L576.55317,549.65857L580.39365,546.53824L582.55393,541.97775L583.75408,538.85742L583.99411,538.6174L584.23414,538.37737L
				584.23414,538.13734L584.47417,538.13734L585.67432,537.41727L587.11451,536.45717L589.51481,535.25704L601.9964,529.2564L601.9964,532.61676
				z"/>
			<path clip-path="url(#SVG_CP_2)" fill-opacity="0.2" fill="#07866D" fill-rule="evenodd" stroke="none" stroke-width="" stra="1.44018" stroke-miterlimit="10" stroke-linecap="round" stroke-linejoin="round" d="
				M368.44676,-18.722L369.40688,-12.00128L369.40688,-11.52123L370.60703,0.24003L370.84706,22.80243L370.60703,25.68274L369.88694,35.76381
				L366.28648,59.04629L365.80642,61.44655L360.76578,85.20908L359.3256,92.40985L357.40536,100.57072L351.88466,128.65371L350.20444,137.29463
				L347.32408,150.49604L344.92377,162.97737L342.52347,174.01854L340.36319,185.53977L332.68222,222.74374L329.08176,240.2656L
				325.72134,257.54744L320.6807,289.71087L316.84021,316.35371L314.91996,327.87494L312.27963,343.4766L310.83945,342.99655L295.71753,336.99591
				L274.11479,328.11496L272.6746,327.63491L279.63549,297.63172L279.87552,296.43159L260.67308,294.27136L254.67232,294.03133L
				245.0711,291.39105L246.51128,289.71087L241.9507,286.35051L240.27049,288.51074L237.39013,286.35051L236.18997,287.55064L233.06958,285.39041
				L229.94918,282.99016L221.30809,276.74949L224.18845,265.70831L204.02589,265.94834L199.22528,263.54808L197.7851,273.62916L
				202.58571,274.10921L202.10565,278.90972L217.4676,279.86982L216.74751,283.71023L215.78738,287.31062L213.86714,294.03133L212.66699,298.83184
				L211.70687,300.75205L210.26668,302.1922L208.10641,302.67225L205.22604,302.43223L203.3058,302.1922L201.38556,301.95218L198.98525,301.2321
				L196.58495,300.75205L194.18464,300.272L191.78434,299.55192L189.62406,299.07187L188.42391,298.59182L187.70382,299.3119L180.02285,300.99207
				L179.30275,301.2321L177.86257,301.47213L174.98221,298.35179L172.34187,295.47149L169.46151,292.35115L168.02132,291.15103L
				167.0612,290.43095L158.90017,283.95026L156.0198,281.30998L148.09879,273.38913L145.93852,272.18901L144.49834,271.2289L143.05815,270.50883
				L139.21767,268.58862L138.01752,268.10857L137.05739,267.62852L133.45694,263.78811L129.13639,258.9876L119.05511,248.6665L117.13487,246.50627
				L111.1341,240.50563L105.6134,235.70512L103.2131,233.54489L97.93243,229.70448L93.85191,226.82417L90.49148,225.14399L87.61112,223.46381
				L86.89103,222.98376L84.73075,221.78363L78.72999,217.7032L73.44932,214.82289L68.64871,211.94259L66.48844,210.02238L62.88798,206.422
				L60.24765,201.86151L55.9271,192.50051L54.48692,186.01982L52.56667,177.61893L52.32664,176.65883L51.36652,172.09834L49.44628,166.81778
				L47.286,161.53721L43.68554,153.13632L41.28524,148.33581L40.08509,147.13568L38.6449,146.4156L35.28448,146.4156L29.04369,148.09578
				L24.96317,149.53594L24.00305,149.77596L19.20244,150.49604L10.56134,150.25601L8.16104,150.25601L2.16027,146.4156L-4.32055,139.45486
				L-6.24079,137.05461L-6.24079,130.81394L-6.24079,130.57391L-6.24079,128.89374L-6.00076,127.93363L-4.56058,125.05333L-3.36043,122.17302
				L-3.36043,121.93299L-2.88037,120.49284L-2.88037,120.25281L-2.64034,119.29271L-2.64034,118.33261L-2.16027,116.65243L-1.68021,111.85192
				L-0.48006,105.1312L0.96012,97.93044L1.68021,94.09003L2.64034,91.20972L2.88037,89.04949L5.04064,78.96842L6.24079,74.88798
				L6.72085,71.76765L7.20091,67.44719L7.44094,63.36675L7.44094,56.64604L7.68098,51.12545L7.68098,45.36483L8.40107,38.40409L
				9.12116,31.44335L10.56134,25.92276L11.76149,22.5624L12.48158,20.88223L15.12192,15.12161L16.5621,11.52123L17.28219,8.16087
				L17.76225,5.28056L17.52222,1.68018L16.80213,-1.44015L15.36195,-6.24067L13.44171,-10.3211L10.32131,-16.08171L9.36119,-17.76189
				L8.88113,-18.722L368.44676,-18.722z"/>
		</g>
</g></svg>