<?xml version="1.0" encoding="utf-8" standalone="no"?>
<!-- Creator: ESRI ArcMap 10.0.0.2414 -->
<!DOCTYPE svg PUBLIC "-//W3C//DTD SVG 1.1//EN"  "http://www.w3.org/Graphics/SVG/1.1/DTD/svg11.dtd">
<svg width="595.50236pt" height="595.50236pt" viewBox="25 148.377955 545.50236 545.50236" enable-background="new 25 148.377955 545.50236 545.50236"
	version="1.1" xmlns="http://www.w3.org/2000/svg" xmlns:xlink="http://www.w3.org/1999/xlink" >
	<g id="Couches">
		<g id="cont_2">
			<path clip-path="url(#SVG_CP_2)" fill="none" stroke="#999999" stroke-width="0.96012" stroke-miterlimit="10" stroke-linecap="round" stroke-linejoin="round" d="
				M200.66547,422.44502L200.42544,422.44502L200.42544,422.20499L200.42544,421.48491L200.42544,421.00486L200.1854,421.00486L
				200.1854,420.52481L200.1854,420.28479L200.1854,420.04476L200.1854,419.80474L200.1854,418.60461L200.42544,418.60461L200.42544,418.36458
				L200.42544,418.12456L200.42544,417.88453L200.66547,417.88453L200.66547,417.64451L200.66547,417.40448L200.66547,417.16445
				L200.66547,416.92443L200.42544,416.92443L200.42544,416.6844L200.42544,416.44438L200.1854,416.44438L200.1854,416.20435L200.1854,415.96433
				L200.1854,415.7243L199.94537,415.7243L199.94537,415.48427L199.94537,415.24425L199.94537,415.00422L199.70534,415.00422L199.70534,414.52417
				L199.70534,414.04412L199.70534,413.8041L199.70534,413.32404L199.46531,413.32404L199.46531,412.84399L199.46531,412.60397L
				199.46531,412.12392L199.46531,411.64387L199.22528,411.64387L199.22528,411.40384L199.22528,410.92379L199.22528,410.68376L
				198.98525,410.68376L198.98525,410.20371L199.22528,410.20371L199.22528,410.44374L199.22528,410.68376L199.46531,410.68376L
				199.46531,410.92379L199.46531,411.16381L199.46531,411.40384L199.70534,411.40384L199.70534,411.64387L199.70534,411.88389L
				199.70534,412.12392L199.94537,412.12392L199.94537,412.36394L199.94537,412.60397L199.94537,412.84399L200.1854,412.84399L200.1854,413.08402
				L200.1854,413.32404L200.1854,413.56407L200.1854,413.8041L200.42544,413.8041L200.42544,414.04412L200.42544,414.28415L200.66547,414.28415
				L200.66547,414.52417L200.66547,414.7642L200.66547,415.00422L200.9055,415.00422L200.9055,415.24425L200.9055,415.48427L200.9055,415.7243
				L201.14553,415.7243L201.14553,415.96433L201.14553,416.20435L201.14553,416.44438L201.14553,416.6844L201.38556,416.6844L201.38556,416.92443
				L201.38556,417.16445L201.38556,417.40448L201.38556,417.88453L201.38556,418.36458L201.38556,418.84463L201.14553,418.84463
				L201.14553,419.32468L201.14553,419.56471L201.14553,419.80474L201.14553,420.28479L200.9055,420.28479L200.9055,420.52481L200.9055,421.00486
				L200.9055,421.24489L200.9055,421.48491L200.66547,421.48491L200.66547,421.96497L200.66547,422.20499L200.66547,422.44502"/>
			<path clip-path="url(#SVG_CP_2)" fill="none" stroke="#999999" stroke-width="0.96012" stroke-miterlimit="10" stroke-linecap="round" stroke-linejoin="round" d="
				M336.28268,422.92507L336.28268,422.68504L336.28268,422.92507L336.28268,422.92507"/>
			<path clip-path="url(#SVG_CP_2)" fill="none" stroke="#999999" stroke-width="0.96012" stroke-miterlimit="10" stroke-linecap="round" stroke-linejoin="round" d="
				M337.00277,423.40512L337.00277,423.16509L336.76274,423.16509L337.00277,423.16509L337.00277,423.40512L337.00277,423.40512
				"/>
			<path clip-path="url(#SVG_CP_2)" fill="none" stroke="#999999" stroke-width="0.96012" stroke-miterlimit="10" stroke-linecap="round" stroke-linejoin="round" d="
				M222.50824,430.12584L221.30809,430.12584L221.06805,430.12584L220.82802,430.12584L220.82802,429.88581L220.58799,429.88581
				L220.58799,429.64578L220.58799,429.16573L220.34796,429.16573L220.34796,428.92571L220.10793,428.92571L220.10793,428.68568
				L219.8679,428.68568L219.8679,426.76548L219.8679,426.52545L219.8679,426.28543L219.8679,426.0454L219.62787,426.0454L219.62787,425.80537
				L219.62787,425.56535L219.38784,425.56535L219.38784,425.32532L219.38784,424.1252L219.38784,423.88517L219.38784,423.64514L
				219.14781,423.64514L219.14781,423.40512L219.14781,422.92507L219.14781,422.68504L218.90778,422.68504L218.90778,422.44502L
				218.90778,422.20499L218.90778,421.72494L218.66775,421.72494L218.66775,421.48491L218.42772,421.48491L218.42772,421.24489L
				218.18769,421.24489L218.18769,421.00486L218.18769,420.76484L217.94766,420.76484L217.94766,420.28479L217.94766,420.04476L
				217.94766,419.56471L217.70763,419.56471L217.70763,419.32468L217.4676,419.32468L217.4676,419.08466L217.22757,419.08466L217.22757,418.84463
				L216.98754,418.84463L216.98754,418.60461L216.74751,418.60461L216.74751,418.36458L216.50748,418.36458L216.50748,418.12456
				L216.02742,418.12456L214.3472,418.12456L214.3472,417.64451L214.3472,416.92443L214.3472,416.20435L214.58723,416.20435L214.58723,414.52417
				L214.58723,413.8041L214.58723,413.08402L214.58723,412.36394L214.82726,412.36394L214.82726,411.88389L214.82726,411.40384L
				214.82726,411.16381L214.82726,410.92379L214.58723,410.92379L214.58723,410.68376L214.58723,410.44374L214.58723,410.20371L
				214.58723,409.96369L214.3472,409.96369L214.3472,409.72366L214.3472,409.48364L214.3472,409.24361L214.3472,409.00358L214.10717,409.00358
				L214.10717,408.76356L214.10717,408.52353L214.10717,408.28351L214.10717,408.04348L213.86714,408.04348L213.86714,407.80346
				L213.86714,407.56343L213.86714,407.32341L213.86714,407.08338L213.62711,407.08338L213.62711,406.84335L213.62711,406.60333
				L213.62711,406.3633L213.38708,406.3633L213.38708,406.12328L213.38708,405.88325L213.38708,405.64323L213.38708,405.4032L213.14705,405.4032
				L213.14705,405.16318L213.14705,404.92315L213.14705,404.68312L213.14705,404.4431L212.90702,404.4431L212.90702,404.20307L212.90702,403.96305
				L212.90702,403.72302L212.90702,403.483L212.66699,403.483L212.66699,403.24297L212.66699,403.00294L212.66699,402.76292L212.66699,402.52289
				L212.42696,402.52289L212.42696,402.28287L212.42696,402.04284L212.42696,401.80282L212.18693,401.80282L212.18693,401.56279
				L212.18693,401.32277L212.18693,401.08274L212.18693,400.84271L211.9469,400.84271L211.9469,400.60269L211.9469,400.36266L211.9469,400.12264
				L211.9469,399.88261L211.70687,399.88261L211.70687,399.64259L211.70687,399.40256L211.70687,398.92251L211.46684,398.92251L
				211.46684,398.68248L211.46684,398.44246L211.46684,398.20243L211.46684,397.96241L211.22681,397.96241L211.22681,397.72238L
				211.22681,397.48236L211.22681,397.24233L211.46684,397.24233L211.46684,397.48236L211.70687,397.48236L211.70687,397.72238L
				211.9469,397.72238L212.18693,397.72238L212.18693,397.96241L212.42696,397.96241L212.42696,398.20243L212.66699,398.20243L212.66699,398.44246
				L212.90702,398.44246L213.14705,398.44246L213.14705,398.68248L213.38708,398.68248L213.38708,398.92251L213.62711,398.92251
				L213.62711,399.16254L213.62711,399.40256L213.86714,399.40256L213.86714,399.64259L214.10717,399.64259L214.10717,399.88261
				L214.10717,400.12264L214.3472,400.12264L214.3472,400.36266L214.3472,400.60269L214.58723,400.60269L214.58723,400.84271L214.58723,401.08274
				L214.82726,401.08274L214.82726,401.32277L215.06729,401.32277L215.06729,401.56279L215.06729,401.80282L215.30732,401.80282
				L215.30732,402.04284L215.30732,402.28287L215.54735,402.28287L215.54735,402.52289L215.78738,402.52289L215.78738,402.76292
				L215.78738,403.00294L216.02742,403.00294L216.02742,403.24297L216.26745,403.24297L216.26745,403.483L216.26745,403.72302L216.50748,403.72302
				L216.50748,403.96305L216.50748,404.20307L216.74751,404.20307L216.74751,404.4431L216.98754,404.4431L216.98754,404.68312L216.98754,404.92315
				L217.22757,404.92315L217.22757,405.16318L217.4676,405.16318L217.4676,405.4032L217.4676,405.64323L217.70763,405.64323L217.70763,405.88325
				L217.70763,406.12328L217.94766,406.12328L217.94766,406.3633L217.94766,406.60333L218.18769,406.60333L218.18769,406.84335L
				218.18769,407.08338L218.18769,407.32341L218.42772,407.32341L218.42772,407.56343L218.42772,407.80346L218.42772,408.04348L
				218.42772,408.52353L218.66775,408.52353L218.66775,408.76356L218.66775,409.00358L218.90778,409.00358L219.14781,409.00358L
				219.38784,409.00358L219.62787,409.00358L219.8679,409.00358L219.8679,409.24361L220.10793,409.24361L220.34796,409.24361L220.82802,409.24361
				L221.06805,409.24361L221.30809,409.24361L222.74827,409.24361L222.9883,409.24361L223.22833,409.24361L223.22833,409.48364L
				228.02894,409.48364L228.98906,409.48364L229.46912,409.48364L229.70915,409.48364L229.70915,409.72366L229.94918,409.72366L
				230.42924,409.72366L230.66927,409.72366L230.66927,409.96369L231.14933,409.96369L231.38936,409.96369L231.86943,409.96369L
				231.86943,410.20371L232.10946,410.20371L232.58952,410.20371L232.58952,410.44374L233.06958,410.44374L233.30961,410.44374L
				233.54964,410.44374L233.78967,410.44374L233.78967,410.68376L234.0297,410.68376L234.26973,410.68376L234.50976,410.68376L234.50976,410.92379
				L234.74979,410.92379L234.98982,410.92379L235.22985,410.92379L235.22985,411.16381L235.46988,411.16381L235.70991,411.16381
				L235.70991,411.40384L235.94994,411.40384L236.18997,411.40384L236.43,411.40384L236.43,411.64387L236.67003,411.64387L236.91007,411.64387
				L236.91007,411.88389L237.1501,411.88389L237.39013,411.88389L237.39013,412.12392L237.63016,412.12392L237.87019,412.12392L
				237.87019,412.36394L238.11022,412.36394L238.35025,412.36394L238.35025,412.60397L238.59028,412.60397L238.83031,412.60397L
				238.83031,412.84399L239.07034,412.84399L239.07034,413.08402L239.31037,413.08402L239.5504,413.08402L239.5504,413.32404L239.79043,413.32404
				L240.03046,413.32404L240.03046,413.56407L240.27049,413.56407L240.27049,413.8041L240.51052,413.8041L240.75055,413.8041L240.75055,414.04412
				L240.99058,414.04412L240.99058,414.28415L241.23061,414.28415L241.23061,414.52417L241.47064,414.52417L241.47064,414.7642L
				241.71067,414.7642L241.71067,415.00422L241.9507,415.00422L241.9507,415.24425L242.19074,415.24425L242.43077,415.24425L242.43077,415.48427
				L242.6708,415.48427L242.6708,415.7243L242.91083,415.7243L242.91083,415.96433L242.91083,416.20435L243.15086,416.20435L243.15086,416.44438
				L243.39089,416.44438L243.63092,416.44438L243.63092,416.6844L243.87095,416.6844L243.87095,416.92443L244.11098,416.92443L244.11098,417.16445
				L244.11098,417.40448L244.35101,417.40448L244.35101,417.64451L244.59104,417.64451L244.83107,417.64451L244.83107,417.88453
				L245.0711,417.88453L245.0711,418.12456L245.31113,418.12456L245.31113,418.36458L245.31113,418.60461L245.55116,418.60461L245.55116,418.84463
				L245.79119,418.84463L246.03122,418.84463L246.03122,419.08466L246.27125,419.08466L246.27125,419.32468L246.51128,419.32468
				L246.51128,419.56471L246.51128,419.80474L246.75131,419.80474L246.75131,420.04476L246.99134,420.04476L247.23137,420.04476
				L247.23137,420.28479L247.23137,420.52481L247.47141,420.52481L247.47141,420.76484L247.71144,420.76484L248.43153,420.76484
				L248.91159,420.76484L248.91159,421.00486L249.63168,421.00486L249.63168,420.76484L250.35177,420.76484L250.35177,421.00486
				L250.83183,421.00486L251.07186,421.00486L251.31189,421.00486L251.31189,420.76484L251.55192,420.76484L252.99211,420.76484
				L254.91235,420.76484L254.91235,420.52481L255.87247,420.52481L256.35253,420.52481L257.31265,420.52481L258.27278,420.52481
				L258.27278,420.28479L258.51281,420.28479L258.51281,420.52481L258.75284,420.52481L258.75284,420.28479L258.75284,420.52481
				L258.99287,420.52481L258.99287,420.28479L258.99287,420.52481L259.71296,420.52481L260.19302,420.52481L260.43305,420.52481
				L260.91311,420.52481L260.91311,420.76484L261.15314,420.76484L261.39317,420.76484L261.6332,420.76484L261.87323,420.76484L
				261.87323,421.00486L262.35329,421.00486L262.35329,420.76484L262.59332,420.76484L263.07339,420.76484L263.55345,420.76484L
				263.55345,420.52481L263.79348,420.52481L263.79348,420.76484L264.51357,420.76484L264.7536,420.76484L264.99363,420.76484L264.99363,421.00486
				L265.71372,421.00486L265.71372,420.76484L266.91387,420.76484L266.91387,421.00486L267.63396,421.00486L268.11402,421.00486
				L268.11402,420.76484L268.59409,420.76484L268.83412,420.76484L268.83412,420.52481L269.07415,420.52481L269.31418,420.52481
				L269.55421,420.52481L269.55421,420.28479L269.79424,420.28479L269.79424,420.04476L270.03427,420.04476L270.03427,419.80474
				L270.2743,419.80474L270.51433,419.80474L270.75436,419.80474L270.75436,419.56471L270.99439,419.56471L271.23442,419.56471L
				271.23442,419.32468L271.47445,419.32468L271.71448,419.32468L271.71448,419.08466L271.95451,419.08466L272.19454,419.08466L
				272.43457,419.08466L272.6746,419.08466L272.6746,418.84463L273.15466,418.84463L273.15466,419.08466L273.63473,419.08466L273.63473,418.84463
				L273.87476,418.84463L273.87476,418.60461L274.11479,418.60461L276.03503,418.60461L276.03503,418.36458L276.27506,418.36458
				L276.51509,418.36458L276.51509,418.12456L276.75512,418.12456L276.99515,418.12456L276.99515,417.88453L277.23518,417.88453
				L277.47521,417.88453L277.71524,417.88453L277.71524,417.64451L277.95527,417.64451L278.1953,417.64451L279.63549,417.64451L
				279.87552,417.64451L279.87552,417.40448L280.11555,417.40448L280.35558,417.40448L280.59561,417.40448L280.59561,417.16445L
				280.83564,417.16445L281.07567,417.16445L281.3157,417.16445L281.3157,416.92443L281.55573,416.92443L282.03579,416.92443L282.51585,416.92443
				L282.75588,416.92443L282.75588,416.6844L282.99591,416.6844L283.23594,416.6844L283.47597,416.6844L283.716,416.6844L283.716,416.44438
				L283.95604,416.44438L284.19607,416.44438L284.4361,416.44438L284.67613,416.44438L284.67613,416.20435L285.15619,416.20435L
				285.39622,416.20435L285.87628,416.20435L286.11631,416.20435L286.11631,415.96433L286.35634,415.96433L286.35634,415.7243L286.59637,415.7243
				L286.59637,415.48427L286.8364,415.48427L287.07643,415.48427L287.07643,415.24425L287.31646,415.24425L287.55649,415.24425L
				287.55649,415.00422L287.79652,415.00422L288.03655,415.00422L288.27658,415.00422L288.27658,414.7642L288.51661,414.7642L288.75664,414.7642
				L288.75664,414.52417L288.99668,414.52417L289.23671,414.52417L289.47674,414.52417L289.71677,414.52417L289.9568,414.52417L
				289.9568,414.28415L290.19683,414.28415L290.43686,414.28415L290.43686,414.04412L290.67689,414.04412L290.91692,414.04412L290.91692,413.8041
				L291.15695,413.8041L291.39698,413.8041L291.39698,413.56407L291.63701,413.56407L291.63701,413.32404L291.87704,413.32404L292.11707,413.32404
				L292.11707,413.08402L292.3571,413.08402L292.59713,413.08402L292.59713,412.84399L292.83716,412.84399L293.07719,412.84399L
				293.31722,412.84399L293.31722,412.60397L293.55725,412.60397L293.79728,412.60397L293.79728,412.36394L294.03731,412.36394L
				294.27735,412.36394L294.27735,412.12392L294.51738,412.12392L294.75741,412.12392L294.75741,411.88389L294.99744,411.88389L
				294.99744,411.64387L295.23747,411.64387L295.4775,411.64387L295.4775,411.40384L295.71753,411.40384L295.71753,411.16381L295.95756,411.16381
				L295.95756,410.92379L296.19759,410.92379L296.19759,410.68376L296.43762,410.68376L296.43762,410.44374L296.67765,410.44374
				L296.91768,410.44374L296.91768,410.20371L297.15771,410.20371L297.15771,409.96369L297.39774,409.96369L297.39774,409.72366
				L297.63777,409.72366L297.63777,409.48364L297.8778,409.48364L298.11783,409.48364L298.11783,409.24361L298.35786,409.24361L
				298.35786,409.00358L298.59789,409.00358L298.83792,409.00358L298.83792,408.76356L299.07795,408.76356L299.07795,408.52353L
				299.31798,408.52353L299.55802,408.52353L299.55802,408.28351L299.79805,408.28351L300.03808,408.28351L300.03808,408.04348L
				300.27811,408.04348L300.27811,407.80346L300.51814,407.80346L300.51814,407.56343L300.75817,407.56343L300.9982,407.56343L300.9982,407.32341
				L301.23823,407.32341L301.23823,407.08338L301.47826,407.08338L301.71829,407.08338L301.71829,406.84335L301.95832,406.84335
				L302.19835,406.84335L302.19835,406.60333L302.43838,406.60333L302.67841,406.60333L302.67841,406.3633L303.15847,406.3633L303.3985,406.3633
				L303.3985,406.12328L303.87856,406.12328L304.11859,406.12328L304.35862,406.12328L304.59865,406.12328L304.59865,405.88325L
				304.83869,405.88325L305.07872,405.88325L305.31875,405.88325L305.31875,405.64323L305.79881,405.64323L306.03884,405.64323L
				306.27887,405.64323L306.27887,405.4032L306.75893,405.4032L307.23899,405.4032L307.47902,405.4032L307.95908,405.4032L307.95908,405.16318
				L308.19911,405.16318L308.67917,405.16318L309.15923,405.16318L309.15923,404.92315L309.39926,404.92315L309.63929,404.92315
				L310.11936,404.92315L310.59942,404.92315L310.59942,404.68312L311.07948,404.68312L311.55954,404.68312L311.79957,404.68312
				L312.0396,404.68312L312.0396,404.4431L313.23975,404.4431L313.23975,404.68312L313.95984,404.68312L313.95984,404.4431L314.19987,404.4431
				L314.4399,404.4431L314.4399,404.20307L314.67993,404.20307L314.67993,403.96305L314.91996,403.96305L315.16,403.96305L315.16,403.72302
				L315.40003,403.72302L315.64006,403.72302L316.12012,403.72302L316.12012,403.96305L316.36015,403.96305L316.60018,403.96305
				L316.84021,403.96305L316.84021,404.20307L317.80033,404.20307L318.04036,404.20307L318.04036,404.4431L318.04036,404.68312L
				318.28039,404.68312L318.28039,404.92315L318.52042,404.92315L318.52042,405.16318L318.76045,405.16318L318.76045,405.4032L319.00048,405.4032
				L319.24051,405.4032L319.24051,405.64323L319.48054,405.64323L319.72057,405.64323L319.72057,405.88325L319.9606,405.88325L320.20063,405.88325
				L320.20063,406.12328L320.44067,406.12328L320.92073,406.12328L320.92073,406.3633L321.16076,406.3633L321.40079,406.3633L321.88085,406.3633
				L322.12088,406.3633L322.12088,406.12328L322.60094,406.12328L323.56106,406.12328L323.80109,406.12328L324.28115,406.12328L
				324.52118,406.12328L327.16152,406.12328L327.16152,405.88325L327.40155,405.88325L327.64158,405.88325L328.6017,405.88325L329.32179,405.88325
				L329.32179,405.64323L330.04188,405.64323L330.04188,405.4032L330.28191,405.4032L330.52194,405.4032L332.20216,405.4032L332.20216,405.16318
				L332.44219,405.16318L332.68222,405.16318L332.68222,404.92315L332.92225,404.92315L333.16228,404.92315L333.16228,404.68312
				L333.40231,404.68312L333.64234,404.68312L333.64234,404.4431L333.88237,404.4431L334.1224,404.4431L334.36243,404.4431L334.36243,404.20307
				L334.60246,404.20307L334.84249,404.20307L335.08252,404.20307L335.08252,403.96305L335.32255,403.96305L335.56258,403.96305
				L335.80261,403.96305L335.80261,403.72302L336.04265,403.72302L336.28268,403.72302L336.52271,403.72302L336.52271,403.483L336.76274,403.483
				L337.2428,403.483L337.48283,403.483L337.48283,403.72302L338.20292,403.72302L338.92301,403.72302L339.40307,403.72302L339.40307,403.483
				L339.6431,403.483L339.88313,403.483L340.12316,403.483L340.12316,403.24297L340.36319,403.24297L340.60322,403.24297L340.84325,403.24297
				L342.04341,403.24297L342.04341,403.00294L342.28344,403.00294L342.52347,403.00294L342.7635,403.00294L342.7635,402.76292L343.24356,402.76292
				L344.44371,402.76292L346.84402,402.76292L346.84402,402.52289L347.80414,402.52289L348.04417,402.52289L348.52423,402.52289
				L348.52423,402.76292L348.52423,402.52289L349.00429,402.52289L349.00429,402.76292L349.00429,402.52289L349.24432,402.52289
				L349.48435,402.52289L349.72438,402.52289L349.96441,402.52289L350.20444,402.52289L350.92453,402.52289L350.92453,402.28287
				L350.92453,402.52289L351.16456,402.52289L351.16456,402.28287L351.88466,402.28287L352.36472,402.28287L352.84478,402.28287
				L353.08481,402.28287L353.32484,402.28287L353.32484,402.52289L355.24508,402.52289L355.48511,402.52289L355.72514,402.52289
				L355.96517,402.52289L355.96517,402.76292L356.68526,402.76292L356.68526,402.52289L356.9253,402.52289L357.16533,402.52289L
				357.16533,402.28287L357.40536,402.28287L357.64539,402.28287L357.88542,402.28287L357.88542,402.04284L358.12545,402.04284L
				358.36548,402.04284L358.60551,402.04284L358.60551,401.80282L358.60551,402.04284L358.84554,402.04284L358.84554,401.80282L
				358.84554,402.04284L358.84554,401.80282L359.08557,401.80282L359.08557,402.04284L359.56563,402.04284L360.04569,402.04284L
				360.52575,402.04284L360.52575,402.28287L360.76578,402.28287L361.00581,402.28287L361.7259,402.28287L361.96594,402.28287L362.20597,402.28287
				L362.20597,402.04284L362.446,402.04284L362.68603,402.04284L362.68603,401.80282L362.92606,401.80282L363.16609,401.80282L363.16609,401.56279
				L363.40612,401.56279L363.40612,401.32277L363.64615,401.32277L363.88618,401.32277L363.88618,401.08274L364.12621,401.08274
				L364.12621,400.84271L364.36624,400.84271L364.60627,400.84271L364.60627,400.60269L364.8463,400.60269L365.08633,400.60269L
				365.08633,400.36266L365.32636,400.36266L365.56639,400.36266L365.56639,400.12264L365.80642,400.12264L366.04645,400.12264L
				366.28648,400.12264L366.28648,399.88261L366.52651,399.88261L366.52651,400.12264L366.28648,400.12264L366.28648,400.36266L
				366.04645,400.36266L366.04645,400.60269L365.80642,400.60269L365.80642,400.84271L365.56639,400.84271L365.56639,401.08274L
				365.56639,401.32277L365.32636,401.32277L365.32636,401.56279L365.08633,401.56279L365.08633,401.80282L364.8463,401.80282L364.8463,402.04284
				L364.60627,402.04284L364.60627,402.28287L364.36624,402.28287L364.36624,402.52289L364.36624,402.76292L364.12621,402.76292
				L364.12621,403.00294L363.88618,403.00294L363.88618,403.24297L363.64615,403.24297L363.64615,403.483L363.40612,403.483L363.40612,403.72302
				L363.16609,403.72302L363.16609,403.96305L363.16609,404.20307L362.92606,404.20307L362.92606,404.4431L362.68603,404.4431L362.68603,404.68312
				L362.446,404.68312L362.446,404.92315L362.20597,404.92315L362.20597,405.16318L361.96594,405.16318L361.96594,405.4032L361.96594,406.12328
				L361.96594,406.84335L362.20597,406.84335L362.20597,407.56343L362.20597,408.28351L362.446,408.28351L362.68603,408.28351L362.68603,408.04348
				L362.92606,408.04348L363.16609,408.04348L363.16609,407.80346L363.40612,407.80346L363.64615,407.80346L363.64615,407.56343
				L363.88618,407.56343L363.88618,407.32341L364.12621,407.32341L364.36624,407.32341L364.36624,407.08338L364.60627,407.08338
				L364.60627,407.32341L364.60627,407.80346L364.60627,408.04348L364.8463,408.04348L364.8463,408.28351L364.8463,408.52353L364.8463,408.76356
				L364.8463,409.00358L365.08633,409.00358L365.08633,409.24361L365.08633,409.48364L365.08633,409.72366L365.08633,409.96369L
				365.32636,409.96369L365.32636,410.20371L365.32636,410.68376L365.32636,410.92379L365.08633,410.92379L364.8463,410.92379L364.8463,411.16381
				L364.60627,411.16381L364.60627,411.40384L364.36624,411.40384L364.12621,411.40384L364.12621,411.64387L363.88618,411.64387
				L363.64615,411.64387L363.64615,411.88389L363.40612,411.88389L363.40612,412.12392L363.16609,412.12392L362.92606,412.12392
				L362.92606,412.36394L362.68603,412.36394L362.68603,412.60397L362.446,412.60397L362.446,412.84399L362.446,413.32404L362.68603,413.32404
				L362.68603,413.8041L362.68603,414.28415L362.68603,414.52417L362.68603,415.00422L362.92606,415.00422L362.92606,415.48427L
				362.92606,415.7243L362.68603,415.7243L362.68603,415.96433L362.68603,416.20435L362.446,416.20435L362.446,416.44438L362.446,416.6844
				L362.446,417.40448L362.446,417.64451L362.20597,417.64451L362.20597,417.88453L362.20597,418.12456L361.96594,418.12456L361.96594,418.36458
				L361.96594,418.60461L361.7259,418.60461L361.7259,418.84463L361.48587,418.84463L361.48587,419.08466L350.20444,419.08466L349.96441,419.08466
				L349.96441,419.32468L349.72438,419.32468L349.72438,419.56471L349.48435,419.56471L349.48435,419.80474L349.24432,419.80474
				L349.24432,420.04476L349.00429,420.04476L349.00429,420.28479L348.76426,420.28479L348.76426,420.52481L348.52423,420.52481
				L348.52423,420.76484L348.2842,420.76484L348.2842,421.00486L348.04417,421.00486L348.04417,421.24489L347.80414,421.24489L347.80414,421.48491
				L347.56411,421.48491L347.56411,421.72494L347.32408,421.72494L347.32408,421.96497L347.08405,421.96497L347.08405,422.20499
				L346.84402,422.20499L346.84402,422.44502L346.60399,422.44502L346.60399,422.68504L346.36396,422.68504L346.36396,422.92507
				L346.12392,422.92507L346.12392,423.16509L345.88389,423.16509L345.88389,423.40512L337.2428,423.40512L337.2428,423.16509L337.00277,423.16509
				L337.00277,422.92507L336.76274,422.92507L336.52271,422.92507L336.52271,422.68504L336.28268,422.68504L336.04265,422.68504
				L336.04265,422.44502L335.80261,422.44502L335.56258,422.44502L335.56258,422.20499L335.32255,422.20499L335.08252,422.20499
				L335.08252,421.96497L334.84249,421.96497L334.84249,421.72494L334.60246,421.72494L334.36243,421.72494L334.36243,421.48491
				L334.1224,421.48491L334.1224,421.24489L333.88237,421.24489"/>
			<path clip-path="url(#SVG_CP_2)" fill="none" stroke="#999999" stroke-width="0.96012" stroke-miterlimit="10" stroke-linecap="round" stroke-linejoin="round" d="
				M333.88237,421.24489L333.64234,421.24489L333.64234,421.00486L333.40231,421.00486L333.16228,421.00486L333.16228,420.76484
				L332.92225,420.76484L332.92225,420.52481L332.68222,420.52481L332.44219,420.52481L332.44219,420.28479L332.20216,420.28479
				L331.96213,420.28479L331.96213,420.04476L331.7221,420.04476L331.7221,419.80474L331.48207,419.80474L331.48207,419.56471L331.24204,419.56471
				L331.24204,419.32468L331.00201,419.32468L330.76198,419.32468L330.76198,419.08466L330.52194,419.08466L330.28191,419.08466
				L330.28191,418.84463L330.04188,418.84463L330.04188,418.60461L328.36167,418.60461L328.12164,418.60461L328.12164,418.36458
				L327.88161,418.36458L327.88161,418.12456L327.64158,418.12456L327.40155,418.12456L327.40155,417.88453L327.16152,417.88453
				L327.16152,417.64451L326.92149,417.64451L326.68146,417.64451L326.68146,417.40448L326.44143,417.40448L326.44143,417.16445
				L326.2014,417.16445L326.2014,416.92443L325.96137,416.92443L325.72134,416.92443L325.72134,416.6844L325.48131,416.6844L325.48131,416.44438
				L325.24127,416.44438L325.24127,416.20435L325.00124,416.20435L325.00124,415.96433L324.76121,415.96433L324.76121,415.7243L
				324.52118,415.7243L324.52118,415.48427L324.28115,415.48427L324.28115,415.24425L324.04112,415.24425L324.04112,415.00422L323.80109,415.00422
				L323.80109,414.7642L323.081,414.7642L322.84097,414.7642L322.84097,414.52417L322.60094,414.52417L322.60094,414.28415L322.36091,414.28415
				L322.12088,414.28415L322.12088,414.04412L321.88085,414.04412L321.88085,413.8041L321.64082,413.8041L321.64082,413.56407L321.64082,413.32404
				L321.40079,413.32404L321.40079,413.08402L321.16076,413.08402L320.92073,413.08402L320.92073,412.84399L320.20063,412.84399
				L320.20063,412.60397L319.9606,412.60397L319.9606,412.36394L319.72057,412.36394L319.48054,412.36394L319.48054,412.12392L307.71905,412.12392
				L307.71905,412.36394L307.47902,412.36394L307.23899,412.36394L307.23899,412.60397L306.99896,412.60397L306.75893,412.60397
				L306.5189,412.60397L306.5189,412.84399L306.27887,412.84399L306.03884,412.84399L306.03884,413.08402L305.79881,413.08402L305.55878,413.08402
				L305.31875,413.08402L305.31875,413.32404L305.07872,413.32404L304.83869,413.32404L304.59865,413.32404L304.59865,413.56407
				L304.35862,413.56407L304.11859,413.56407L304.11859,413.8041L303.87856,413.8041L303.63853,413.8041L303.63853,414.04412L303.3985,414.04412
				L303.15847,414.04412L302.91844,414.04412L302.91844,414.28415L302.67841,414.28415L302.43838,414.28415L302.43838,414.52417
				L302.19835,414.52417L302.19835,414.7642L301.95832,414.7642L301.95832,415.00422L301.71829,415.00422L301.71829,415.24425L301.47826,415.24425
				L301.47826,415.48427L301.23823,415.48427L301.23823,415.7243L300.9982,415.7243L300.9982,415.96433L300.75817,415.96433L300.75817,416.20435
				L300.51814,416.20435L300.51814,416.44438L300.27811,416.44438L300.27811,416.6844L300.03808,416.6844L300.03808,416.92443L299.79805,416.92443
				L299.79805,417.16445L299.55802,417.16445L299.55802,417.40448L299.31798,417.40448L299.31798,417.64451L299.07795,417.64451
				L299.07795,417.88453L298.83792,417.88453L298.83792,418.12456L298.59789,418.12456L298.59789,418.36458L298.35786,418.36458
				L298.35786,418.60461L298.11783,418.60461L298.11783,418.84463L297.8778,418.84463L297.8778,419.08466L297.63777,419.08466L297.63777,419.32468
				L297.39774,419.32468L297.39774,419.56471L297.15771,419.56471L297.15771,419.80474L296.91768,419.80474L296.91768,420.04476
				L296.67765,420.04476L296.67765,420.28479L296.43762,420.28479L296.43762,420.52481L295.4775,420.52481L295.23747,420.52481L
				295.23747,420.76484L294.99744,420.76484L294.99744,421.00486L294.75741,421.00486L294.75741,421.24489L294.51738,421.24489L
				294.51738,421.48491L294.27735,421.48491L294.27735,421.72494L294.03731,421.72494L294.03731,421.96497L293.79728,421.96497L
				293.79728,422.20499L293.55725,422.20499L293.55725,422.44502L293.31722,422.44502L292.83716,422.44502L290.19683,422.44502L
				289.9568,422.44502L289.9568,422.68504L289.71677,422.68504L289.47674,422.68504L289.23671,422.68504L289.23671,422.92507L288.75664,422.92507
				L288.51661,422.92507L288.27658,422.92507L288.27658,423.16509L288.03655,423.16509L287.55649,423.16509L287.31646,423.16509
				L287.31646,423.40512L286.8364,423.40512L286.59637,423.40512L286.11631,423.40512L285.87628,423.40512L285.87628,423.64514L
				285.39622,423.64514L285.15619,423.64514L284.67613,423.64514L284.4361,423.64514L284.4361,423.88517L283.95604,423.88517L283.716,423.88517
				L283.23594,423.88517L282.99591,423.88517L282.99591,424.1252L282.75588,424.1252L282.51585,424.1252L282.27582,424.1252L282.03579,424.1252
				L282.03579,424.36522L281.55573,424.36522L281.55573,424.60525L281.3157,424.60525L281.07567,424.60525L280.83564,424.60525L
				280.59561,424.60525L280.59561,424.84527L280.35558,424.84527L280.11555,424.84527L279.87552,424.84527L279.63549,424.84527L
				279.63549,425.0853L279.15543,425.0853L278.9154,425.0853L278.9154,425.32532L278.1953,425.32532L277.95527,425.32532L277.47521,425.32532
				L277.23518,425.32532L277.23518,425.56535L276.99515,425.56535L276.75512,425.56535L276.51509,425.56535L276.51509,425.80537
				L276.27506,425.80537L275.795,425.80537L275.55497,425.80537L275.31494,425.80537L275.31494,426.0454L275.07491,426.0454L274.59485,426.0454
				L274.35482,426.0454L274.11479,426.0454L274.11479,426.28543L273.87476,426.28543L273.3947,426.28543L273.15466,426.28543L272.91463,426.28543
				L272.91463,426.52545L272.43457,426.52545L272.19454,426.52545L271.95451,426.52545L271.71448,426.52545L271.71448,426.76548
				L271.23442,426.76548L270.99439,426.76548L270.75436,426.76548L270.75436,427.0055L270.51433,427.0055L270.2743,427.0055L270.03427,427.0055
				L270.03427,427.24553L269.79424,427.24553L269.79424,427.48555L269.55421,427.48555L269.55421,427.72558L269.31418,427.72558
				L268.35406,427.72558L268.35406,427.9656L267.39393,427.9656L267.39393,428.20563L266.67384,428.20563L264.27354,428.20563L264.03351,428.20563
				L263.79348,428.20563L263.79348,428.44566L263.31342,428.44566L263.07339,428.44566L262.83335,428.44566L262.59332,428.44566
				L262.59332,428.68568L261.87323,428.68568L261.15314,428.68568L254.43229,428.68568L254.19226,428.68568L253.95223,428.68568
				L253.95223,428.44566L253.7122,428.44566L253.47217,428.44566L253.47217,428.20563L253.23214,428.20563L252.99211,428.20563L
				252.75208,428.20563L252.75208,427.9656L252.51205,427.9656L252.51205,427.72558L252.27201,427.72558L252.03198,427.72558L252.03198,427.48555
				L251.79195,427.48555L251.55192,427.48555L242.6708,427.48555L242.6708,427.72558L233.54964,427.72558L233.54964,427.48555L233.30961,427.48555
				L233.30961,427.24553L233.06958,427.24553L226.82879,427.24553L226.34872,427.24553L226.10869,427.24553L226.10869,427.48555
				L225.86866,427.48555L225.86866,427.72558L225.62863,427.72558L225.62863,427.9656L225.3886,427.9656L225.3886,428.20563L225.14857,428.20563
				L225.14857,428.44566L224.90854,428.44566L224.90854,428.68568L224.66851,428.68568L224.66851,428.92571L224.42848,428.92571
				L224.42848,429.16573L224.18845,429.16573L224.18845,429.40576L223.94842,429.40576L223.70839,429.40576L223.70839,429.64578
				L223.46836,429.64578L223.22833,429.64578L223.22833,429.88581L222.9883,429.88581L222.74827,429.88581L222.74827,430.12584L
				222.50824,430.12584"/>
			<path clip-path="url(#SVG_CP_2)" fill="none" stroke="#999999" stroke-width="0.96012" stroke-miterlimit="10" stroke-linecap="round" stroke-linejoin="round" d="
				M216.50748,418.12456L216.50748,418.36458L216.74751,418.36458L216.74751,418.60461L216.74751,418.84463L216.98754,418.84463
				L216.98754,419.08466L217.22757,419.08466L217.22757,419.32468L217.4676,419.32468L217.4676,419.56471L217.4676,420.52481L217.70763,420.52481
				L217.70763,420.76484L217.94766,420.76484L217.94766,421.00486L217.94766,421.24489L217.94766,421.48491L218.18769,421.48491
				L218.18769,421.72494L218.18769,421.96497L218.18769,423.40512L218.18769,423.64514L218.42772,423.64514L218.42772,423.88517
				L218.42772,424.1252L218.42772,424.36522L218.66775,424.36522L218.66775,424.60525L218.66775,424.84527L218.66775,425.0853L218.66775,425.32532
				L218.90778,425.32532L218.90778,425.80537L218.90778,426.0454L218.90778,426.28543L218.90778,426.52545L219.14781,426.52545L
				219.14781,426.76548L219.14781,427.0055L219.14781,427.24553L219.14781,427.48555L219.38784,427.48555L219.38784,427.72558L219.38784,428.20563
				L219.38784,428.44566L219.62787,428.44566L219.8679,428.44566L219.8679,428.68568L219.8679,429.16573L220.10793,429.16573L220.10793,429.40576
				L220.34796,429.40576L220.34796,429.64578L220.58799,429.64578L220.58799,429.88581L220.82802,429.88581L220.82802,430.12584
				L221.06805,430.12584L221.06805,430.36586L222.50824,430.36586L222.50824,430.12584L222.74827,430.12584L222.9883,430.12584L
				222.9883,429.88581L223.22833,429.88581L223.46836,429.88581L223.46836,429.64578L223.70839,429.64578L223.94842,429.64578L223.94842,429.40576
				L224.18845,429.40576L224.18845,429.16573L224.42848,429.16573L224.42848,428.92571L224.66851,428.92571L224.66851,428.68568
				L224.90854,428.68568L224.90854,428.44566L225.14857,428.44566L225.14857,428.20563L225.3886,428.20563L225.3886,427.9656L225.62863,427.9656
				L225.62863,427.72558L226.10869,427.72558L226.34872,427.72558L226.34872,427.48555L226.58876,427.48555L226.58876,427.24553
				L228.26897,427.24553L232.58952,427.24553L232.82955,427.24553L232.82955,427.48555L233.06958,427.48555L233.06958,427.72558
				L233.30961,427.72558L244.11098,427.72558L245.31113,427.72558L246.51128,427.72558L246.51128,427.48555L247.71144,427.48555
				L248.67156,427.48555L251.79195,427.48555L251.79195,427.72558L252.03198,427.72558L252.03198,427.9656L252.27201,427.9656L252.27201,428.20563
				L252.75208,428.20563L252.99211,428.20563L252.99211,428.44566L253.23214,428.44566L253.23214,428.68568L253.95223,428.68568
				L254.19226,428.68568L265.71372,428.68568L265.95375,428.68568L266.19378,428.68568L266.19378,428.44566L266.43381,428.44566
				L266.43381,428.20563L266.67384,428.20563L267.39393,428.20563L268.35406,428.20563L268.35406,427.9656L269.07415,427.9656L269.31418,427.9656
				L269.31418,427.72558L269.79424,427.72558L270.03427,427.72558L270.2743,427.72558L270.51433,427.72558L270.51433,427.48555L
				270.75436,427.48555L270.99439,427.48555L271.47445,427.48555L271.71448,427.48555L271.71448,427.24553L271.95451,427.24553L
				272.19454,427.24553L272.43457,427.24553L272.6746,427.24553L272.6746,427.0055L272.91463,427.0055L273.15466,427.0055L273.3947,427.0055
				L273.63473,427.0055L273.63473,426.76548L273.87476,426.76548L274.11479,426.76548L274.35482,426.76548L274.35482,426.52545L
				274.59485,426.52545L275.07491,426.52545L275.31494,426.52545L275.55497,426.52545L275.55497,426.28543L275.795,426.28543L276.03503,426.28543
				L276.27506,426.28543L276.75512,426.28543L276.75512,426.0454L276.99515,426.0454L277.23518,426.0454L277.47521,426.0454L277.47521,425.80537
				L277.71524,425.80537L277.71524,425.56535L277.95527,425.56535L277.95527,425.32532L278.9154,425.32532L279.63549,425.32532L
				279.63549,425.0853L281.07567,425.0853L281.07567,424.84527L281.3157,424.84527L281.3157,424.60525L281.55573,424.60525L281.55573,424.36522
				L284.67613,424.36522L284.91616,424.36522L285.15619,424.36522L285.15619,424.1252L285.39622,424.1252L285.63625,424.1252L285.87628,424.1252
				L286.11631,424.1252L286.11631,423.88517L286.59637,423.88517L287.07643,423.88517L287.55649,423.88517L287.79652,423.88517L
				287.79652,423.64514L288.03655,423.64514L288.27658,423.64514L288.51661,423.64514L288.51661,423.40512L288.75664,423.40512L
				289.23671,423.40512L289.47674,423.40512L289.71677,423.40512L289.71677,423.16509L289.9568,423.16509L290.43686,423.16509L290.43686,422.92507
				L291.15695,422.92507L291.39698,422.92507L291.63701,422.92507L291.87704,422.92507L291.87704,422.68504L292.3571,422.68504L
				292.59713,422.68504L292.83716,422.68504L293.31722,422.68504L293.31722,422.44502L293.55725,422.44502L293.55725,422.20499L
				294.03731,422.20499L294.27735,422.20499L294.51738,422.20499L294.51738,421.96497L294.75741,421.96497L294.75741,421.72494L
				294.99744,421.72494L295.23747,421.72494L295.23747,421.48491L295.4775,421.48491L295.4775,421.24489L295.71753,421.24489L295.71753,421.00486
				L295.95756,421.00486L295.95756,420.76484L296.19759,420.76484L296.19759,420.52481L296.43762,420.52481L296.67765,420.52481
				L296.67765,420.28479L296.91768,420.28479L296.91768,420.04476L297.15771,420.04476L297.15771,419.80474L297.39774,419.80474
				L297.39774,419.56471L297.63777,419.56471L297.63777,419.32468L297.8778,419.32468L297.8778,419.08466L298.11783,419.08466L298.35786,419.08466
				L298.35786,418.84463L298.59789,418.84463L298.59789,418.60461L298.83792,418.60461L298.83792,418.36458L299.07795,418.36458
				L299.07795,418.12456L299.31798,418.12456L299.55802,418.12456L299.55802,417.88453L299.79805,417.88453L299.79805,417.64451
				L300.03808,417.64451L300.27811,417.64451L300.27811,417.40448L300.51814,417.40448L300.51814,417.16445L300.75817,417.16445
				L300.9982,417.16445L300.9982,416.92443L301.23823,416.92443L301.23823,416.6844L301.47826,416.6844L301.47826,416.44438L301.71829,416.44438
				L301.95832,416.44438L301.95832,416.20435L302.19835,416.20435L302.19835,415.96433L302.43838,415.96433L302.43838,415.7243L
				302.67841,415.7243L302.67841,415.48427L302.91844,415.48427L303.15847,415.48427L303.15847,415.24425L303.3985,415.24425L303.3985,415.00422
				L303.63853,415.00422L303.87856,415.00422L303.87856,414.7642L304.11859,414.7642L304.11859,414.52417L304.35862,414.52417L304.59865,414.52417
				L304.59865,414.28415L304.83869,414.28415L305.07872,414.28415L305.07872,414.04412L305.31875,414.04412L305.55878,414.04412
				L305.79881,414.04412L305.79881,413.8041L306.03884,413.8041L306.27887,413.8041L306.27887,413.56407L306.5189,413.56407L306.5189,413.32404
				L306.75893,413.32404L306.99896,413.32404L306.99896,413.08402L307.23899,413.08402L307.23899,412.84399L307.47902,412.84399
				L307.71905,412.84399L307.71905,412.60397L307.95908,412.60397L308.19911,412.60397L308.19911,412.36394L308.43914,412.36394
				L319.48054,412.36394L319.72057,412.36394L319.72057,412.60397L319.9606,412.60397L319.9606,412.84399L320.20063,412.84399L320.44067,412.84399
				L320.44067,413.08402L320.6807,413.08402L320.6807,413.32404L320.92073,413.32404L320.92073,413.56407L321.16076,413.56407L321.40079,413.56407
				L321.40079,413.8041L321.64082,413.8041L321.64082,414.04412L321.88085,414.04412L321.88085,414.28415L322.12088,414.28415L322.36091,414.28415
				L322.36091,414.52417L322.60094,414.52417L322.84097,414.52417L322.84097,414.7642L323.081,414.7642L323.081,415.00422L323.32103,415.00422
				L323.32103,415.24425L323.56106,415.24425L323.80109,415.24425L323.80109,415.48427L324.04112,415.48427L324.04112,415.7243L
				324.28115,415.7243L324.28115,415.96433L324.52118,415.96433L324.52118,416.20435L324.76121,416.20435L325.00124,416.20435L325.00124,416.44438
				L325.24127,416.44438L325.24127,416.6844L325.48131,416.6844L325.48131,416.92443L325.72134,416.92443L325.72134,417.16445L325.96137,417.16445
				L326.2014,417.16445L326.2014,417.40448L326.44143,417.40448L326.44143,417.64451L326.68146,417.64451L326.92149,417.64451L326.92149,417.88453
				L327.16152,417.88453L327.16152,418.12456L327.40155,418.12456L327.64158,418.12456L327.64158,418.36458L327.88161,418.36458
				L327.88161,418.60461L328.12164,418.60461L328.36167,418.60461L328.36167,418.84463L328.6017,418.84463L328.6017,419.08466L328.84173,419.08466
				L329.08176,419.08466L329.08176,419.32468L329.32179,419.32468L329.56182,419.32468L329.56182,419.56471L329.80185,419.56471
				L329.80185,419.80474L330.04188,419.80474L330.28191,419.80474L330.28191,420.04476L330.52194,420.04476L330.76198,420.04476
				L330.76198,420.28479L331.00201,420.28479L331.00201,420.52481L331.24204,420.52481L331.48207,420.52481L331.48207,420.76484
				L331.7221,420.76484L331.96213,420.76484L331.96213,421.00486L332.20216,421.00486L332.20216,421.24489L332.44219,421.24489L
				332.68222,421.24489L332.92225,421.24489L332.92225,421.48491L333.16228,421.48491L333.40231,421.48491L333.40231,421.72494L
				333.64234,421.72494L333.88237,421.72494L333.88237,421.96497L334.1224,421.96497L334.1224,422.20499L334.36243,422.20499L334.60246,422.20499
				L334.60246,422.44502L334.84249,422.44502L334.84249,422.68504L335.08252,422.68504L335.32255,422.68504L335.32255,422.92507
				L336.28268,422.92507L336.52271,422.92507L336.52271,423.16509L336.76274,423.16509L336.76274,423.40512L337.00277,423.40512
				L345.88389,423.40512L346.12392,423.40512L346.12392,423.16509L346.12392,422.92507L346.36396,422.92507L346.60399,422.92507
				L346.60399,422.68504L346.84402,422.68504L346.84402,422.44502L347.08405,422.44502L347.08405,422.20499L347.32408,422.20499
				L347.32408,421.96497L347.32408,421.72494L347.56411,421.72494L347.80414,421.72494L347.80414,421.48491L348.04417,421.48491
				L348.04417,421.24489L348.2842,421.24489L348.2842,421.00486L348.52423,421.00486L348.52423,420.76484L348.52423,420.52481L348.76426,420.52481
				L349.00429,420.52481L349.00429,420.28479L349.24432,420.28479L349.24432,420.04476L349.48435,420.04476L349.48435,419.80474
				L349.72438,419.80474L349.72438,419.56471L349.72438,419.32468L349.96441,419.32468L350.20444,419.32468L350.20444,419.08466
				L361.48587,419.08466L361.48587,419.32468L361.7259,419.32468L361.96594,419.32468L361.96594,419.56471L361.96594,419.80474L
				362.20597,419.80474L362.20597,420.04476L362.446,420.04476L362.446,420.28479L362.68603,420.28479L362.68603,420.52481L362.68603,420.76484
				L362.92606,420.76484L362.92606,421.00486L363.16609,421.00486L363.16609,421.24489L363.40612,421.24489L363.40612,421.48491
				L363.64615,421.48491L363.64615,421.72494L363.64615,421.96497L363.88618,421.96497L363.88618,422.20499L364.12621,422.20499
				L364.12621,422.44502L364.36624,422.44502L364.36624,422.68504L364.60627,422.68504L364.60627,422.92507L364.8463,422.92507L
				364.8463,423.16509L364.8463,423.40512L365.08633,423.40512L365.08633,423.64514L365.32636,423.64514L365.32636,423.88517L365.32636,424.1252
				L365.32636,424.36522L365.56639,424.36522L365.56639,424.60525L365.56639,424.84527L365.56639,425.0853L365.56639,425.32532L
				365.80642,425.32532L365.80642,425.56535L365.80642,425.80537L365.80642,426.0454L365.80642,426.28543L366.04645,426.28543L366.04645,426.52545
				L366.04645,426.76548L366.04645,427.0055L366.04645,427.24553L366.28648,427.24553L366.28648,427.48555L366.28648,427.72558L
				366.28648,428.20563L366.52651,428.20563L366.52651,428.44566L366.52651,428.68568L366.76654,428.68568L366.76654,428.92571L
				366.76654,429.16573L367.00657,429.16573L367.00657,429.40576L367.24661,429.40576L367.24661,429.64578L367.48664,429.64578L
				367.72667,429.64578L367.72667,429.88581L367.9667,429.88581L368.20673,429.88581L368.20673,430.12584L368.44676,430.12584L368.44676,430.36586
				L368.68679,430.36586L368.92682,430.36586L368.92682,430.60589L369.16685,430.60589L369.40688,430.60589L369.40688,430.84591
				L369.64691,430.84591L369.64691,431.08594L369.88694,431.08594L370.12697,431.08594L370.12697,431.32596L370.367,431.32596L370.60703,431.32596
				L370.60703,431.56599L370.84706,431.56599L370.84706,431.80601L371.08709,431.80601L371.32712,431.80601L371.32712,432.04604
				L371.56715,432.04604L371.80718,432.04604L371.80718,432.28607L372.04721,432.28607L372.04721,432.52609L372.28724,432.52609
				L372.28724,432.76612L372.52728,432.76612L372.52728,433.00614L372.76731,433.00614L372.76731,433.24617L373.00734,433.24617
				L373.00734,433.48619L373.24737,433.48619L373.24737,433.72622L373.00734,433.72622L372.76731,433.72622L372.52728,433.72622
				L372.52728,433.96624L372.28724,433.96624L372.04721,433.96624L371.56715,433.96624L371.56715,434.20627L371.32712,434.20627
				L371.08709,434.20627L370.84706,434.20627L370.84706,434.4463L370.60703,434.4463L370.367,434.4463L370.12697,434.4463L370.12697,434.68632
				L369.88694,434.68632L369.64691,434.68632L369.64691,434.92635L369.40688,434.92635L369.16685,434.92635L368.92682,434.92635
				L368.92682,435.16637L368.68679,435.16637L368.68679,435.4064L368.44676,435.4064L368.44676,435.64642L368.20673,435.64642L367.9667,435.64642
				L367.9667,435.88645L367.72667,435.88645L367.48664,435.88645L367.24661,435.88645L367.24661,436.12647L367.00657,436.12647L
				367.00657,436.3665L366.76654,436.3665L366.52651,436.3665L366.52651,436.60653L366.28648,436.60653L366.04645,436.60653L366.04645,436.84655
				L365.80642,436.84655L365.80642,437.08658L365.56639,437.08658L364.60627,437.08658L364.60627,437.3266L364.36624,437.3266L364.12621,437.3266
				L364.12621,437.56663L363.88618,437.56663L363.88618,437.80665L363.64615,437.80665L363.64615,438.04668L363.40612,438.04668
				L363.16609,438.04668L363.16609,438.2867L362.92606,438.2867L362.68603,438.2867L362.68603,438.52673L362.446,438.52673L362.20597,438.52673
				L362.20597,438.76676L361.96594,438.76676L361.96594,439.00678L361.7259,439.00678L361.7259,439.24681L361.48587,439.24681L361.24584,439.24681
				L361.24584,439.48683L361.00581,439.48683L360.76578,439.48683L360.76578,439.72686L360.52575,439.72686L360.28572,439.72686
				L360.28572,439.96688L360.04569,439.96688L360.04569,440.20691L359.80566,440.20691L359.56563,440.20691L359.56563,440.44693
				L359.3256,440.44693L359.08557,440.44693L359.08557,440.68696L358.84554,440.68696L358.60551,440.68696L358.60551,440.92699L
				358.36548,440.92699L358.12545,440.92699L358.12545,441.16701L357.88542,441.16701L357.64539,441.16701L357.64539,441.40704L
				357.40536,441.40704L357.40536,441.64706L357.16533,441.64706L356.9253,441.64706L356.68526,441.64706L356.68526,441.88709L356.44523,441.88709
				L356.44523,442.12711L356.2052,442.12711L355.96517,442.12711L355.96517,442.36714L355.72514,442.36714L355.48511,442.36714L
				355.48511,442.60717L355.24508,442.60717L355.00505,442.60717L355.00505,442.84719L354.76502,442.84719L354.52499,442.84719L
				354.52499,443.08722L354.28496,443.08722L354.04493,443.08722L354.04493,443.32724L353.8049,443.32724L353.56487,443.32724L353.32484,443.32724
				L352.84478,443.32724L352.84478,443.08722L352.60475,443.08722L352.60475,442.84719L352.36472,442.84719L352.12469,442.84719
				L352.12469,442.60717L351.88466,442.60717L351.88466,442.36714L351.64463,442.36714L351.64463,442.12711L351.40459,442.12711
				L351.40459,441.88709L351.16456,441.88709L351.16456,441.64706L350.92453,441.64706L350.6845,441.64706L350.6845,441.40704L350.44447,441.40704
				L350.44447,441.16701L350.20444,441.16701L350.20444,440.92699L349.96441,440.92699L349.96441,440.68696L349.72438,440.68696
				L349.72438,440.44693L349.48435,440.44693L349.48435,440.20691L349.24432,440.20691L349.00429,440.20691L349.00429,439.96688
				L348.76426,439.96688L348.76426,439.72686L348.76426,439.48683L348.52423,439.48683L348.2842,439.48683L348.2842,439.24681L348.04417,439.24681
				L348.04417,439.00678L347.80414,439.00678L347.80414,438.76676L347.80414,438.52673L347.56411,438.52673L347.32408,438.52673
				L347.32408,438.2867L347.08405,438.2867L347.08405,438.04668L346.84402,438.04668L346.84402,437.80665L346.84402,437.56663L346.60399,437.56663
				L346.60399,437.3266L346.60399,437.08658L346.36396,437.08658L346.36396,436.84655L346.12392,436.84655L346.12392,436.60653L
				345.88389,436.60653L345.88389,436.3665L345.88389,436.12647L345.64386,436.12647L345.64386,435.88645L345.40383,435.88645L345.40383,435.64642
				L345.1638,435.64642L345.1638,435.4064L344.92377,435.4064L344.92377,435.16637L344.68374,435.16637L344.68374,434.92635L344.44371,434.92635
				L344.44371,434.68632L344.20368,434.68632L343.96365,434.68632L343.72362,434.68632L343.72362,434.4463L343.48359,434.4463L343.24356,434.4463
				L342.7635,434.4463L342.52347,434.4463L342.52347,434.20627L342.28344,434.20627L342.04341,434.20627L342.04341,433.96624L341.80338,433.96624
				L341.80338,433.72622L341.56335,433.72622L341.32332,433.72622L341.32332,433.48619L341.08328,433.48619L340.84325,433.48619
				L340.84325,433.24617L340.60322,433.24617L340.36319,433.24617L340.36319,433.00614L339.88313,433.00614L339.6431,433.00614L
				339.40307,433.00614L339.40307,432.76612L339.16304,432.76612L338.92301,432.76612L338.92301,432.52609L338.68298,432.52609L
				338.44295,432.52609L338.44295,432.28607L338.20292,432.28607L337.96289,432.28607L337.96289,432.04604L337.72286,432.04604L
				337.48283,432.04604L337.48283,431.80601L337.2428,431.80601L337.00277,431.80601L337.00277,431.56599L336.76274,431.56599L336.52271,431.56599
				L336.52271,431.32596L336.28268,431.32596L336.28268,431.08594L336.04265,431.08594L335.80261,431.08594L335.80261,430.84591
				L335.56258,430.84591L335.32255,430.84591L335.32255,430.60589L335.08252,430.60589L335.08252,430.36586L334.84249,430.36586
				L334.84249,430.12584L334.60246,430.12584L334.36243,430.12584L334.36243,429.88581L334.1224,429.88581L333.88237,429.88581L
				333.88237,429.64578L333.64234,429.64578L333.64234,429.40576L333.40231,429.40576L333.16228,429.40576L333.16228,429.16573L
				332.92225,429.16573L332.92225,428.92571L332.68222,428.92571L332.44219,428.92571L332.44219,428.68568L332.20216,428.68568L
				331.96213,428.68568L331.96213,428.44566L331.7221,428.44566L331.48207,428.44566L331.48207,428.20563L331.24204,428.20563L331.00201,428.20563
				L331.00201,427.9656L330.76198,427.9656L330.76198,427.72558L330.52194,427.72558L330.28191,427.72558L330.28191,427.48555L330.04188,427.48555
				L329.80185,427.48555L329.80185,427.24553L329.56182,427.24553L329.32179,427.24553L329.32179,427.0055L329.08176,427.0055L329.08176,426.76548
				L328.84173,426.76548L328.84173,426.52545L328.6017,426.52545L328.36167,426.52545L328.36167,426.28543L328.12164,426.28543L
				327.88161,426.28543L327.88161,426.0454L327.64158,426.0454L327.40155,426.0454L327.40155,425.80537L327.16152,425.80537L327.16152,425.56535
				L326.92149,425.56535L326.68146,425.56535L326.68146,425.32532L326.44143,425.32532L326.44143,425.0853L326.2014,425.0853L325.96137,425.0853
				L325.96137,424.84527L325.72134,424.84527L325.48131,424.84527L325.48131,424.60525L325.24127,424.60525L325.24127,424.36522
				L325.00124,424.36522L325.00124,424.1252L324.76121,424.1252L324.76121,423.88517L324.52118,423.88517L324.52118,423.64514L324.28115,423.64514
				L324.28115,423.40512L324.04112,423.40512L324.04112,423.16509L323.80109,423.16509L323.80109,422.92507L323.56106,422.92507
				L323.56106,422.68504L323.32103,422.68504L323.32103,422.44502L323.081,422.44502L322.84097,422.44502L322.36091,422.44502L319.72057,422.44502
				L319.72057,422.20499L319.48054,422.20499L319.24051,422.20499L319.00048,422.20499L319.00048,421.96497L318.76045,421.96497
				L318.52042,421.96497L318.52042,421.72494L318.28039,421.72494L318.04036,421.72494L317.80033,421.72494L317.80033,421.48491
				L317.5603,421.48491L317.32027,421.48491L317.32027,421.24489L317.08024,421.24489L316.84021,421.24489L316.84021,421.00486L
				316.60018,421.00486L316.36015,421.00486L316.36015,420.76484L316.12012,420.76484L316.12012,420.52481L315.88009,420.52481L
				315.88009,420.28479L315.64006,420.28479L315.40003,420.28479L315.40003,420.04476L315.16,420.04476L314.91996,420.04476L314.91996,419.80474
				L314.67993,419.80474L314.4399,419.80474L314.4399,419.56471L314.19987,419.56471L313.71981,419.56471L313.71981,419.32468L311.07948,419.32468
				L310.83945,419.32468L310.59942,419.32468L310.59942,419.08466L310.35939,419.08466L310.11936,419.08466L309.87933,419.08466
				L309.87933,419.32468L309.63929,419.32468L309.63929,419.56471L309.39926,419.56471L309.15923,419.56471L309.15923,419.80474
				L308.9192,419.80474L308.67917,419.80474L308.67917,420.04476L308.43914,420.04476L308.19911,420.04476L308.19911,420.28479L
				307.95908,420.28479L307.71905,420.28479L307.71905,420.52481L307.47902,420.52481L307.47902,420.76484L307.23899,420.76484L
				307.23899,421.00486L306.99896,421.00486L306.99896,421.24489L306.75893,421.24489L306.5189,421.24489L306.5189,421.48491L306.27887,421.48491
				L306.27887,421.72494L306.03884,421.72494L305.79881,421.72494L305.55878,421.72494L305.31875,421.72494L305.31875,421.96497
				L305.07872,421.96497L305.07872,422.20499L304.83869,422.20499L304.83869,422.44502L304.59865,422.44502L304.59865,422.68504
				L304.35862,422.68504L304.35862,422.92507L303.87856,422.92507L303.63853,422.92507L303.3985,422.92507L303.15847,422.92507L
				303.15847,423.16509L302.91844,423.16509L302.67841,423.16509L302.67841,423.40512L302.43838,423.40512L302.43838,423.64514L
				302.19835,423.64514L301.95832,423.64514L301.95832,423.88517L301.71829,423.88517L301.47826,423.88517L301.47826,424.1252L301.47826,424.36522
				L301.23823,424.36522L301.23823,424.60525L300.9982,424.60525L300.9982,424.84527L300.75817,424.84527L300.75817,425.0853L300.51814,425.0853
				L300.51814,425.32532"/>
			<path clip-path="url(#SVG_CP_2)" fill="none" stroke="#999999" stroke-width="0.96012" stroke-miterlimit="10" stroke-linecap="round" stroke-linejoin="round" d="
				M300.51814,425.32532L300.27811,425.32532L300.03808,425.32532L300.03808,425.56535L299.79805,425.56535L299.79805,425.80537
				L299.55802,425.80537L299.31798,425.80537L299.31798,426.0454L299.07795,426.0454L298.83792,426.0454L298.59789,426.0454L298.35786,426.0454
				L298.35786,426.28543L298.11783,426.28543L298.11783,426.52545L297.8778,426.52545L297.8778,426.76548L297.63777,426.76548L297.15771,426.76548
				L297.15771,427.0055L296.91768,427.0055L296.67765,427.0055L296.43762,427.0055L296.43762,427.24553L296.19759,427.24553L295.95756,427.24553
				L295.95756,427.48555L295.71753,427.48555L295.4775,427.48555L295.4775,427.72558L295.23747,427.72558L294.75741,427.72558L294.75741,427.9656
				L294.51738,427.9656L294.27735,427.9656L294.03731,427.9656L294.03731,428.20563L293.55725,428.20563L293.31722,428.20563L293.07719,428.20563
				L292.83716,428.20563L292.83716,428.44566L292.59713,428.44566L292.3571,428.44566L292.3571,428.68568L292.11707,428.68568L291.87704,428.68568
				L291.63701,428.68568L291.63701,428.92571L291.39698,428.92571L291.15695,428.92571L291.15695,429.16573L290.91692,429.16573
				L290.67689,429.16573L290.67689,429.40576L290.43686,429.40576L290.19683,429.40576L290.19683,429.64578L289.9568,429.64578L
				289.71677,429.64578L289.47674,429.64578L289.47674,429.88581L288.99668,429.88581L288.75664,429.88581L288.75664,430.12584L
				288.51661,430.12584L288.27658,430.12584L288.03655,430.12584L288.03655,430.36586L287.79652,430.36586L287.55649,430.36586L
				287.55649,430.60589L287.31646,430.60589L287.07643,430.60589L286.35634,430.60589L285.63625,430.60589L285.63625,430.84591L
				285.15619,430.84591L284.67613,430.84591L284.19607,430.84591L283.95604,430.84591L283.95604,431.08594L283.716,431.08594L283.47597,431.08594
				L283.23594,431.08594L283.23594,431.32596L281.3157,431.32596L279.87552,431.32596L279.63549,431.32596L279.63549,431.56599L
				279.39546,431.56599L279.15543,431.56599L279.15543,431.80601L278.9154,431.80601L278.67537,431.80601L278.43533,431.80601L278.43533,432.04604
				L278.1953,432.04604L277.95527,432.04604L277.71524,432.04604L277.71524,432.28607L277.47521,432.28607L277.23518,432.28607L
				276.99515,432.28607L276.75512,432.28607L276.75512,432.52609L276.51509,432.52609L276.27506,432.52609L276.03503,432.52609L
				276.03503,432.76612L275.55497,432.76612L275.31494,432.76612L275.07491,432.76612L275.07491,433.00614L274.59485,433.00614L
				274.35482,433.00614L274.11479,433.00614L274.11479,433.24617L273.63473,433.24617L273.15466,433.24617L272.91463,433.24617L
				272.6746,433.24617L272.6746,433.48619L272.43457,433.48619L271.95451,433.48619L271.71448,433.48619L271.71448,433.72622L271.47445,433.72622
				L271.23442,433.72622L271.23442,433.96624L270.99439,433.96624L270.75436,433.96624L270.51433,433.96624L270.51433,434.20627
				L270.2743,434.20627L269.79424,434.20627L269.79424,434.4463L269.55421,434.4463L269.31418,434.4463L269.07415,434.4463L269.07415,434.68632
				L268.83412,434.68632L268.59409,434.68632L268.11402,434.68632L267.63396,434.68632L267.1539,434.68632L266.67384,434.68632L
				266.67384,434.92635L266.19378,434.92635L265.47369,434.92635L264.7536,434.92635L264.27354,434.92635L264.27354,435.16637L264.03351,435.16637
				L263.79348,435.16637L263.79348,435.4064L263.31342,435.4064L262.35329,435.4064L262.11326,435.4064L260.43305,435.4064L260.43305,435.16637
				L259.95299,435.16637L258.75284,435.16637L255.63244,435.16637L255.63244,434.92635L255.39241,434.92635L254.67232,434.92635
				L254.43229,434.92635L253.7122,434.92635L251.55192,434.92635L250.83183,434.92635L250.83183,434.68632L250.35177,434.68632L
				248.43153,434.68632L247.95147,434.68632L247.95147,434.92635L247.23137,434.92635L247.23137,434.68632L246.75131,434.68632L
				246.27125,434.68632L246.03122,434.68632L245.79119,434.68632L245.31113,434.68632L245.0711,434.68632L244.83107,434.68632L244.35101,434.68632
				L244.35101,434.92635L243.87095,434.92635L242.6708,434.92635L241.9507,434.92635L241.71067,434.92635L241.23061,434.92635L240.99058,434.92635
				L240.51052,434.92635L240.51052,435.16637L240.03046,435.16637L237.39013,435.16637L237.1501,435.16637L236.91007,435.16637L
				236.67003,435.16637L236.67003,435.4064L236.18997,435.4064L235.94994,435.4064L235.46988,435.4064L235.46988,435.64642L235.22985,435.64642
				L234.98982,435.64642L234.74979,435.64642L234.74979,435.88645L234.50976,435.88645L234.26973,435.88645L234.0297,435.88645L
				234.0297,436.12647L233.78967,436.12647L233.54964,436.12647L233.30961,436.12647L233.30961,436.3665L233.06958,436.3665L232.82955,436.3665
				L232.58952,436.3665L232.58952,436.60653L232.34949,436.60653L232.10946,436.60653L231.86943,436.60653L231.86943,436.84655L
				231.62939,436.84655L231.38936,436.84655L231.14933,436.84655L230.9093,436.84655L230.9093,437.08658L230.66927,437.08658L230.42924,437.08658
				L230.42924,437.3266L230.18921,437.3266L229.94918,437.3266L229.94918,437.56663L229.70915,437.56663L229.70915,437.80665L229.46912,437.80665
				L229.46912,438.04668L229.22909,438.04668L228.98906,438.04668L228.98906,438.2867L228.74903,438.2867L228.74903,438.52673L228.509,438.52673
				L228.26897,438.52673L228.26897,438.76676L228.02894,438.76676L227.78891,438.76676L227.78891,439.00678L227.54888,439.00678
				L227.54888,439.24681L227.30885,439.24681L227.06882,439.24681L227.06882,439.48683L226.82879,439.48683L226.58876,439.48683
				L226.58876,439.72686L226.34872,439.72686L226.10869,439.72686L226.10869,439.96688L225.86866,439.96688L225.62863,439.96688
				L225.62863,440.20691L225.3886,440.20691L225.14857,440.20691L224.90854,440.20691L224.66851,440.20691L224.66851,439.96688L
				224.42848,439.96688L224.18845,439.96688L224.18845,439.72686L223.94842,439.72686L223.70839,439.72686L223.70839,439.48683L
				223.46836,439.48683L223.22833,439.48683L222.9883,439.48683L222.74827,439.48683L222.74827,439.24681L222.50824,439.24681L222.26821,439.24681
				L222.02818,439.24681L222.02818,439.00678L221.78815,439.00678L221.54812,439.00678L221.30809,439.00678L221.30809,438.76676
				L221.06805,438.76676L221.06805,438.52673L220.58799,438.52673L220.34796,438.52673L220.10793,438.52673L220.10793,438.2867L
				219.62787,438.2867L219.14781,438.2867L218.66775,438.2867L218.66775,438.04668L218.42772,438.04668L218.18769,438.04668L216.50748,438.04668
				L216.50748,437.80665L216.02742,437.80665L215.30732,437.80665L215.06729,437.80665L215.06729,438.04668L214.3472,438.04668L
				214.3472,437.80665L213.38708,437.80665L213.14705,437.80665L212.90702,437.80665L212.90702,437.56663L212.66699,437.56663L212.66699,437.3266
				L212.42696,437.3266L212.18693,437.3266L212.18693,437.08658L211.9469,437.08658L211.70687,437.08658L211.70687,436.84655L211.46684,436.84655
				L210.98678,436.84655L210.98678,436.60653L210.50671,436.60653L210.26668,436.60653L210.02665,436.60653L210.02665,436.3665L
				209.78662,436.3665L209.78662,436.12647L209.78662,435.88645L209.54659,435.88645L209.54659,435.64642L209.30656,435.64642L209.30656,435.4064
				L209.06653,435.4064L209.06653,435.16637L208.8265,435.16637L208.8265,434.92635L208.58647,434.92635L208.58647,434.68632L208.58647,434.4463
				L208.34644,434.4463L208.34644,434.20627L208.34644,433.96624L208.34644,433.00614L208.34644,432.76612L208.34644,432.52609L
				208.10641,432.52609L208.10641,432.28607L208.10641,432.04604L208.10641,431.80601L207.86638,431.80601L207.86638,431.56599L
				207.86638,431.32596L207.86638,431.08594L207.62635,431.08594L207.62635,430.60589L207.62635,430.36586L207.38632,430.36586L
				207.38632,429.88581L207.38632,428.20563L207.38632,427.9656L207.14629,427.9656L207.14629,427.72558L207.14629,427.48555L206.90626,427.48555
				L206.90626,427.24553L206.90626,427.0055L206.90626,426.76548L206.66623,426.76548L206.66623,426.52545L206.66623,426.28543L
				206.4262,426.28543L206.4262,426.0454L206.4262,425.80537L206.18617,425.80537L206.18617,425.0853L206.18617,424.84527L205.94614,424.84527
				L205.94614,424.60525L205.70611,424.60525L205.70611,424.36522L205.70611,424.1252L205.46607,424.1252L205.46607,423.88517L205.22604,423.88517
				L204.98601,423.88517L204.98601,423.64514L204.50595,423.64514L204.50595,423.88517L203.54583,423.88517L203.06577,423.88517
				L203.06577,423.64514L202.82574,423.64514L202.58571,423.64514L202.58571,423.40512L202.34568,423.40512L202.34568,423.16509
				L202.10565,423.16509L201.86562,423.16509L201.38556,423.16509L201.38556,422.92507L201.14553,422.92507L200.9055,422.92507L
				201.86562,422.92507L201.86562,422.68504L203.06577,422.68504L203.06577,422.92507L203.3058,422.92507L203.3058,422.68504L203.3058,422.44502
				L203.3058,421.96497L203.3058,421.72494L203.54583,421.72494L203.54583,421.24489L203.54583,421.00486L203.78586,421.00486L203.78586,421.24489
				L204.02589,421.24489L204.26592,421.24489L204.26592,421.48491L204.50595,421.48491L204.74598,421.48491L204.98601,421.48491
				L204.98601,421.72494L205.22604,421.72494L205.46607,421.72494L205.46607,421.96497L205.70611,421.96497L205.94614,421.96497
				L205.94614,422.20499L206.18617,422.20499L206.18617,422.44502L206.4262,422.44502L206.66623,422.44502L206.90626,422.44502L
				206.90626,422.68504L207.14629,422.68504L207.38632,422.68504L207.38632,422.92507L207.62635,422.92507L207.86638,422.92507L
				207.86638,423.16509L208.10641,423.16509L208.10641,423.40512L208.34644,423.40512L208.58647,423.40512L208.58647,423.64514L
				208.8265,423.64514L209.06653,423.64514L209.06653,423.88517L209.30656,423.88517L209.54659,423.88517L209.54659,424.1252L209.78662,424.1252
				L210.02665,424.1252L210.26668,424.1252L210.26668,424.36522L210.50671,424.36522L210.74674,424.36522L210.74674,424.60525L210.98678,424.60525
				L211.22681,424.60525L211.46684,424.60525L211.46684,424.84527L211.70687,424.84527L211.9469,424.84527L211.9469,425.0853L212.18693,425.0853
				L212.18693,424.84527L212.18693,424.60525L212.42696,424.60525L212.42696,424.36522L212.42696,424.1252L212.66699,424.1252L212.66699,423.88517
				L212.66699,423.64514L212.66699,423.40512L212.90702,423.40512L212.90702,423.16509L212.90702,422.92507L212.90702,422.68504
				L213.14705,422.68504L213.14705,422.44502L213.14705,422.20499L213.14705,421.96497L213.38708,421.96497L213.38708,421.72494
				L213.38708,421.48491L213.38708,421.24489L213.62711,421.24489L213.62711,421.00486L213.62711,420.76484L213.62711,420.52481
				L213.86714,420.52481L213.86714,420.28479L213.86714,420.04476L213.86714,419.80474L214.10717,419.80474L214.10717,419.32468
				L214.10717,419.08466L214.10717,418.84463L214.10717,418.36458L214.3472,418.36458L214.3472,418.12456L216.26745,418.12456L216.50748,418.12456
				"/>
		</g>
</g></svg>