<?xml version="1.0" encoding="utf-8" standalone="no"?>
<!-- Creator: ESRI ArcMap 10.0.0.2414 -->
<!DOCTYPE svg PUBLIC "-//W3C//DTD SVG 1.1//EN"  "http://www.w3.org/Graphics/SVG/1.1/DTD/svg11.dtd">
<svg width="595.50236pt" height="595.50236pt" viewBox="25 148.377955 545.50236 545.50236" enable-background="new 25 148.377955 545.50236 545.50236"
	version="1.1" xmlns="http://www.w3.org/2000/svg" xmlns:xlink="http://www.w3.org/1999/xlink" >
	<g id="Couches">
		<g id="cont_2">
			<path clip-path="url(#SVG_CP_2)" fill="none" stroke="#999999" stroke-width="0.96012" stroke-miterlimit="10" stroke-linecap="round" stroke-linejoin="round" d="
				M343.72362,266.18837L343.24356,266.18837L343.24356,265.70831L343.72362,265.70831L343.72362,266.18837"/>
			<path clip-path="url(#SVG_CP_2)" fill="none" stroke="#999999" stroke-width="0.96012" stroke-miterlimit="10" stroke-linecap="round" stroke-linejoin="round" d="
				M331.7221,358.59821L331.24204,358.59821L331.24204,356.91803L331.7221,356.91803L331.7221,356.19796L332.44219,356.19796L332.44219,358.11816
				L331.7221,358.11816L331.7221,358.59821"/>
			<path clip-path="url(#SVG_CP_2)" fill="none" stroke="#999999" stroke-width="0.96012" stroke-miterlimit="10" stroke-linecap="round" stroke-linejoin="round" d="
				M487.98193,502.37353L487.98193,501.65346L488.70202,501.65346L488.70202,502.37353L487.98193,502.37353"/>
			<path clip-path="url(#SVG_CP_2)" fill="none" stroke="#999999" stroke-width="0.96012" stroke-miterlimit="10" stroke-linecap="round" stroke-linejoin="round" d="
				M487.50187,502.85359L487.50187,502.37353L487.98193,502.37353L487.98193,502.85359L487.50187,502.85359"/>
			<path clip-path="url(#SVG_CP_2)" fill="none" stroke="#999999" stroke-width="0.96012" stroke-miterlimit="10" stroke-linecap="round" stroke-linejoin="round" d="
				M487.0218,503.33364L487.0218,502.85359L487.50187,502.85359L487.50187,503.33364L487.0218,503.33364"/>
			<path clip-path="url(#SVG_CP_2)" fill="none" stroke="#999999" stroke-width="0.96012" stroke-miterlimit="10" stroke-linecap="round" stroke-linejoin="round" d="
				M486.30171,504.05371L486.30171,503.33364L487.0218,503.33364L487.0218,504.05371L486.30171,504.05371"/>
			<path clip-path="url(#SVG_CP_2)" fill="none" stroke="#999999" stroke-width="0.96012" stroke-miterlimit="10" stroke-linecap="round" stroke-linejoin="round" d="
				M485.82165,504.53376L485.82165,504.05371L486.30171,504.05371L486.30171,504.53376L485.82165,504.53376"/>
			<path clip-path="url(#SVG_CP_2)" fill="none" stroke="#999999" stroke-width="0.96012" stroke-miterlimit="10" stroke-linecap="round" stroke-linejoin="round" d="
				M485.34159,505.25384L485.34159,504.53376L485.82165,504.53376L485.82165,505.25384L485.34159,505.25384"/>
			<path clip-path="url(#SVG_CP_2)" fill="none" stroke="#999999" stroke-width="0.96012" stroke-miterlimit="10" stroke-linecap="round" stroke-linejoin="round" d="
				M484.6215,505.73389L484.6215,505.25384L485.34159,505.25384L485.34159,505.73389L484.6215,505.73389"/>
			<path clip-path="url(#SVG_CP_2)" fill="none" stroke="#999999" stroke-width="0.96012" stroke-miterlimit="10" stroke-linecap="round" stroke-linejoin="round" d="
				M484.14144,506.21394L484.14144,505.73389L484.6215,505.73389L484.6215,506.21394L484.14144,506.21394"/>
			<path clip-path="url(#SVG_CP_2)" fill="none" stroke="#999999" stroke-width="0.96012" stroke-miterlimit="10" stroke-linecap="round" stroke-linejoin="round" d="
				M483.42135,506.93402L483.42135,506.21394L484.14144,506.21394L484.14144,506.93402L483.42135,506.93402"/>
			<path clip-path="url(#SVG_CP_2)" fill="none" stroke="#999999" stroke-width="0.96012" stroke-miterlimit="10" stroke-linecap="round" stroke-linejoin="round" d="
				M482.94129,507.41407L482.94129,506.93402L483.42135,506.93402L483.42135,507.41407L482.94129,507.41407"/>
			<path clip-path="url(#SVG_CP_2)" fill="none" stroke="#999999" stroke-width="0.96012" stroke-miterlimit="10" stroke-linecap="round" stroke-linejoin="round" d="
				M482.46123,507.89412L482.46123,507.41407L482.94129,507.41407L482.94129,507.89412L482.46123,507.89412"/>
			<path clip-path="url(#SVG_CP_2)" fill="none" stroke="#999999" stroke-width="0.96012" stroke-miterlimit="10" stroke-linecap="round" stroke-linejoin="round" d="
				M481.74113,508.6142L481.74113,507.89412L482.46123,507.89412L482.46123,508.6142L481.74113,508.6142"/>
			<path clip-path="url(#SVG_CP_2)" fill="none" stroke="#999999" stroke-width="0.96012" stroke-miterlimit="10" stroke-linecap="round" stroke-linejoin="round" d="
				M481.26107,509.09425L481.26107,508.6142L481.74113,508.6142L481.74113,509.09425L481.26107,509.09425"/>
			<path clip-path="url(#SVG_CP_2)" fill="none" stroke="#999999" stroke-width="0.96012" stroke-miterlimit="10" stroke-linecap="round" stroke-linejoin="round" d="
				M480.78101,509.81433L480.78101,509.09425L481.26107,509.09425L481.26107,509.81433L480.78101,509.81433"/>
			<path clip-path="url(#SVG_CP_2)" fill="none" stroke="#999999" stroke-width="0.96012" stroke-miterlimit="10" stroke-linecap="round" stroke-linejoin="round" d="
				M480.06092,510.29438L480.06092,509.81433L480.78101,509.81433L480.78101,510.29438L480.06092,510.29438"/>
			<path clip-path="url(#SVG_CP_2)" fill="none" stroke="#999999" stroke-width="0.96012" stroke-miterlimit="10" stroke-linecap="round" stroke-linejoin="round" d="
				M479.58086,510.77443L479.58086,510.29438L480.06092,510.29438L480.06092,510.77443L479.58086,510.77443"/>
			<path clip-path="url(#SVG_CP_2)" fill="none" stroke="#999999" stroke-width="0.96012" stroke-miterlimit="10" stroke-linecap="round" stroke-linejoin="round" d="
				M478.86077,511.49451L478.86077,510.77443L479.58086,510.77443L479.58086,511.49451L478.86077,511.49451"/>
			<path clip-path="url(#SVG_CP_2)" fill="none" stroke="#999999" stroke-width="0.96012" stroke-miterlimit="10" stroke-linecap="round" stroke-linejoin="round" d="
				M478.38071,511.97456L478.38071,511.49451L478.86077,511.49451L478.86077,511.97456L478.38071,511.97456"/>
			<path clip-path="url(#SVG_CP_2)" fill="none" stroke="#999999" stroke-width="0.96012" stroke-miterlimit="10" stroke-linecap="round" stroke-linejoin="round" d="
				M477.90065,512.45461L477.90065,511.97456L478.38071,511.97456L478.38071,512.45461L477.90065,512.45461"/>
			<path clip-path="url(#SVG_CP_2)" fill="none" stroke="#999999" stroke-width="0.96012" stroke-miterlimit="10" stroke-linecap="round" stroke-linejoin="round" d="
				M477.18056,513.17468L477.18056,512.45461L477.90065,512.45461L477.90065,513.17468L477.18056,513.17468"/>
			<path clip-path="url(#SVG_CP_2)" fill="none" stroke="#999999" stroke-width="0.96012" stroke-miterlimit="10" stroke-linecap="round" stroke-linejoin="round" d="
				M335.80261,350.67737L335.32255,350.67737L335.32255,351.15742L334.60246,351.15742L334.60246,351.63747L334.1224,351.63747L
				334.1224,352.35755L333.64234,352.35755L333.64234,352.8376L332.92225,352.8376L332.92225,353.55768L332.44219,353.55768L332.44219,354.03773
				L331.7221,354.03773L331.7221,354.51778L331.24204,354.51778L331.24204,356.19796L330.76198,356.19796L330.76198,358.59821L330.04188,358.59821
				L330.04188,359.79834L329.56182,359.79834L329.56182,360.27839L329.08176,360.27839L329.08176,360.75844L328.36167,360.75844
				L328.36167,361.47852L327.88161,361.47852L327.88161,361.95857L327.16152,361.95857L327.16152,362.67865L326.68146,362.67865
				L326.68146,363.63875L326.2014,363.63875L326.2014,364.35883L325.48131,364.35883L325.48131,364.83888L325.00124,364.83888L325.00124,368.19924
				L324.52118,368.19924L324.52118,368.91931L323.80109,368.91931L323.80109,369.39936L323.32103,369.39936L323.32103,369.87942
				L322.60094,369.87942L322.60094,370.59949L322.12088,370.59949L322.12088,371.07954L321.64082,371.07954L321.64082,371.79962
				L320.92073,371.79962L320.92073,372.27967L320.44067,372.27967L320.44067,372.75972L319.9606,372.75972L319.9606,373.4798L319.24051,373.4798
				L319.24051,373.95985L318.76045,373.95985L318.76045,374.4399L318.04036,374.4399L318.04036,375.15998L317.5603,375.15998L317.5603,375.64003
				L317.08024,375.64003L317.08024,376.36011L316.36015,376.36011L316.36015,376.84016L315.88009,376.84016L315.88009,377.32021
				L315.40003,377.32021L315.40003,378.04028L314.67993,378.04028L314.67993,378.52034L314.19987,378.52034L314.19987,379.00039
				L313.47978,379.00039L313.47978,379.72046L312.99972,379.72046L312.99972,380.20051L312.51966,380.20051L312.51966,380.92059
				L311.79957,380.92059L311.79957,381.40064L311.31951,381.40064L311.31951,383.08082L310.83945,383.08082L310.83945,385.48108
				L310.11936,385.48108L310.11936,387.16126L309.63929,387.16126L309.63929,390.04156L308.9192,390.04156L308.9192,393.88197L308.43914,393.88197
				L308.43914,397.24233L307.95908,397.24233L307.95908,437.3266L307.23899,437.3266L307.23899,437.80665L306.75893,437.80665L306.75893,438.52673
				L306.03884,438.52673L306.03884,439.00678L305.55878,439.00678L305.55878,439.48683L305.07872,439.48683L305.07872,440.20691
				L304.35862,440.20691L304.35862,440.68696L303.87856,440.68696L303.87856,441.16701L303.3985,441.16701L303.3985,441.88709L302.67841,441.88709
				L302.67841,442.36714L302.19835,442.36714L302.19835,443.08722L301.47826,443.08722L301.47826,443.56727L300.9982,443.56727L
				300.9982,444.04732L300.51814,444.04732L300.51814,444.7674L299.79805,444.7674L299.79805,445.24745L299.31798,445.24745L299.31798,445.7275
				L298.83792,445.7275L298.83792,446.44757L298.11783,446.44757L298.11783,446.92763L297.63777,446.92763L297.63777,447.6477L296.91768,447.6477
				L296.91768,448.12775L296.43762,448.12775L296.43762,448.6078L295.95756,448.6078L295.95756,449.32788L295.23747,449.32788L295.23747,449.80793
				L294.75741,449.80793L294.75741,450.28798L294.27735,450.28798L294.27735,451.00806L293.55725,451.00806L293.55725,451.48811
				L293.07719,451.48811L293.07719,452.20819L292.3571,452.20819L292.3571,452.68824L291.87704,452.68824L291.87704,453.16829L291.39698,453.16829
				L291.39698,453.88837L290.67689,453.88837L290.67689,454.36842L290.19683,454.36842L290.19683,454.84847L289.71677,454.84847
				L289.71677,455.56855L288.99668,455.56855L288.99668,456.0486L288.51661,456.0486L288.51661,456.76867L287.79652,456.76867L287.79652,457.24873
				L287.31646,457.24873L287.31646,457.72878L286.8364,457.72878L286.8364,458.44885L286.11631,458.44885L286.11631,458.9289L285.63625,458.9289
				L285.63625,459.40896L285.15619,459.40896L285.15619,460.12903L284.4361,460.12903L284.4361,460.60908L283.95604,460.60908L283.95604,461.32916
				L283.23594,461.32916L283.23594,461.80921L282.75588,461.80921L282.75588,462.28926L282.27582,462.28926L282.27582,463.00934
				L281.55573,463.00934L281.55573,463.48939L281.07567,463.48939L281.07567,464.20947L280.59561,464.20947L280.59561,464.68952
				L279.87552,464.68952L279.87552,465.16957L279.39546,465.16957L279.39546,465.88965L278.67537,465.88965L278.67537,466.3697L
				278.1953,466.3697L278.1953,466.84975L277.71524,466.84975L277.71524,467.56983L276.99515,467.56983L276.99515,468.04988L276.51509,468.04988
				L276.51509,468.76995L276.03503,468.76995L276.03503,469.25L275.31494,469.25L275.31494,469.73006L274.83488,469.73006L274.83488,470.45013
				L274.11479,470.45013L274.11479,470.93018L273.63473,470.93018L273.63473,471.41023L273.15466,471.41023L273.15466,472.13031
				L272.43457,472.13031L272.43457,472.61036L271.95451,472.61036L271.95451,473.33044L271.47445,473.33044L271.47445,473.81049
				L270.75436,473.81049L270.75436,474.29054L270.2743,474.29054L270.2743,475.01062L269.55421,475.01062L269.55421,475.49067L269.07415,475.49067
				L269.07415,475.97072L268.59409,475.97072L268.59409,476.6908L267.87399,476.6908L267.87399,477.17085L267.39393,477.17085L267.39393,477.89092
				L266.91387,477.89092L266.91387,478.37098L266.19378,478.37098L266.19378,478.85103L265.71372,478.85103L265.71372,479.5711L
				264.99363,479.5711L264.99363,480.05116L264.51357,480.05116L264.51357,480.53121L264.03351,480.53121L264.03351,481.25128L263.31342,481.25128
				L263.31342,481.73133L262.83335,481.73133L262.83335,482.45141L262.35329,482.45141L262.35329,482.93146L261.6332,482.93146L
				261.6332,483.41151L261.15314,483.41151L261.15314,484.13159L260.43305,484.13159L260.43305,484.61164L259.95299,484.61164L259.95299,485.09169
				L259.47293,485.09169L259.47293,485.81177L258.75284,485.81177L258.75284,486.29182L258.27278,486.29182L258.27278,487.0119L
				257.79272,487.0119L257.79272,487.49195L257.07262,487.49195L257.07262,487.972L256.59256,487.972L256.59256,488.69208L255.87247,488.69208
				L255.87247,489.17213L255.39241,489.17213L255.39241,489.65218L254.91235,489.65218L254.91235,490.37225L254.19226,490.37225
				L254.19226,490.85231L253.7122,490.85231L253.7122,491.57238L253.23214,491.57238L253.23214,492.05243L252.51205,492.05243L252.51205,492.53249
				L252.03198,492.53249L252.03198,493.25256L251.31189,493.25256L251.31189,493.73261L250.83183,493.73261L250.83183,494.21266
				L250.35177,494.21266L250.35177,495.41279L249.63168,495.41279L249.63168,496.13287L249.15162,496.13287L249.15162,497.09297
				L248.67156,497.09297L248.67156,497.81305L247.95147,497.81305L247.95147,498.77315L247.47141,498.77315L247.47141,499.97328
				L246.75131,499.97328L246.75131,501.17341L246.27125,501.17341L246.27125,501.65346L245.79119,501.65346L245.79119,502.85359
				L245.0711,502.85359L245.0711,504.05371L244.59104,504.05371L244.59104,504.53376L244.11098,504.53376L244.11098,505.73389L243.39089,505.73389
				L243.39089,506.93402L242.91083,506.93402L242.91083,507.41407L242.19074,507.41407L242.19074,508.6142L241.71067,508.6142L241.71067,509.81433
				L241.23061,509.81433L241.23061,510.29438L240.51052,510.29438L240.51052,511.49451L240.03046,511.49451L240.03046,512.45461
				L239.31037,512.45461L239.31037,513.17468L238.83031,513.17468L238.83031,514.37481L238.35025,514.37481L238.35025,515.33492
				L237.63016,515.33492L237.63016,516.05499L237.1501,516.05499L237.1501,517.01509L236.67003,517.01509L236.67003,518.21522L235.94994,518.21522
				L235.94994,518.9353L235.46988,518.9353L235.46988,519.8954L234.74979,519.8954L234.74979,521.09553L234.26973,521.09553L234.26973,521.57558
				L233.78967,521.57558L233.78967,522.77571L233.06958,522.77571L233.06958,523.97584L232.58952,523.97584L232.58952,524.45589
				L232.10946,524.45589L232.10946,525.65601L231.38936,525.65601L231.38936,526.85614L230.9093,526.85614L230.9093,527.33619L230.18921,527.33619
				L230.18921,528.53632L229.70915,528.53632L229.70915,529.73645L229.22909,529.73645L229.22909,530.2165L228.509,530.2165L228.509,531.41663
				L228.02894,531.41663L228.02894,532.61676L227.54888,532.61676L227.54888,533.09681L226.82879,533.09681L226.82879,534.29694
				L226.34872,534.29694L226.34872,535.49706L225.62863,535.49706L225.62863,535.97711L225.14857,535.97711L225.14857,537.17724
				L224.66851,537.17724L224.66851,538.13734L223.94842,538.13734L223.94842,539.33747L223.46836,539.33747L223.46836,540.05755
				L222.9883,540.05755L222.9883,541.01765L222.26821,541.01765L222.26821,542.21778L221.78815,542.21778L221.78815,542.69783L221.06805,542.69783
				L221.06805,543.89796L220.58799,543.89796L220.58799,545.09809L220.10793,545.09809L220.10793,545.57814L219.38784,545.57814
				L219.38784,546.77827L218.90778,546.77827L218.90778,547.25832L218.42772,547.25832L218.42772,548.45844L217.70763,548.45844
				L217.70763,549.65857L217.22757,549.65857L217.22757,550.13862L216.50748,550.13862L216.50748,551.33875L216.02742,551.33875
				L216.02742,551.8188L215.54735,551.8188L215.54735,553.01893L214.82726,553.01893L214.82726,554.21906L214.3472,554.21906L214.3472,554.69911
				L213.86714,554.69911L213.86714,555.89924L213.14705,555.89924L213.14705,556.37929L212.66699,556.37929L212.66699,557.57942
				L211.9469,557.57942L211.9469,558.29949L211.46684,558.29949L211.46684,558.77954L209.30656,558.77954L209.30656,557.57942L208.58647,557.57942
				L208.58647,557.09937L208.10641,557.09937L208.10641,557.57942L206.90626,557.57942L206.90626,558.29949L205.70611,558.29949
				L205.70611,558.77954L204.74598,558.77954L204.74598,559.2596L203.54583,559.2596L203.54583,559.97967L201.86562,559.97967L201.86562,560.45972
				L200.66547,560.45972L200.66547,560.93977L199.46531,560.93977L199.46531,561.65985L198.26516,561.65985L198.26516,562.1399L
				197.30504,562.1399L197.30504,562.85998L196.10489,562.85998L196.10489,563.34003L194.90473,563.34003L194.90473,563.82008L193.70458,563.82008
				L193.70458,564.54016L192.74446,564.54016L192.74446,565.02021L191.54431,565.02021L191.54431,565.50026L190.34416,565.50026
				L190.34416,566.22034L189.144,566.22034L189.144,566.70039L188.18388,566.70039L188.18388,567.42047L187.46379,567.42047L187.46379,567.90052
				L186.50367,567.90052L186.50367,568.38057L185.30352,568.38057L185.30352,569.10064L184.10336,569.10064L184.10336,569.5807L
				182.90321,569.5807L182.90321,570.06075L181.223,570.06075L181.223,569.5807L180.74294,569.5807L180.74294,568.38057L180.02285,568.38057
				L180.02285,567.90052L179.54278,567.90052L179.54278,566.70039L179.06272,566.70039L179.06272,565.50026L180.02285,565.50026
				L180.02285,565.02021L180.74294,565.02021L180.74294,564.54016L181.223,564.54016L181.223,563.82008L182.42315,563.82008L182.42315,563.34003
				L182.90321,563.34003L182.90321,562.85998L183.6233,562.85998L183.6233,562.1399L184.58342,562.1399L184.58342,561.65985L185.30352,561.65985
				L185.30352,560.93977L186.50367,560.93977L186.50367,560.45972L186.98373,560.45972L186.98373,559.97967L187.46379,559.97967
				L187.46379,559.2596L188.66394,559.2596L188.66394,558.29949L188.18388,558.29949L188.18388,557.57942L187.46379,557.57942L187.46379,557.09937
				L186.98373,557.09937L186.98373,556.37929L186.50367,556.37929L186.50367,555.89924L185.78358,555.89924L185.78358,555.41919
				L185.30352,555.41919L185.30352,554.69911L184.58342,554.69911L184.58342,554.21906L184.10336,554.21906L184.10336,553.73901
				L183.6233,553.73901L183.6233,553.01893L182.90321,553.01893L182.90321,552.53888L182.42315,552.53888L182.42315,551.8188L181.223,551.8188
				L181.223,551.33875L180.74294,551.33875L180.74294,550.8587L180.02285,550.8587L180.02285,550.13862L179.54278,550.13862L179.54278,549.65857
				L179.06272,549.65857L179.06272,549.17852L178.34263,549.17852L178.34263,548.45844L177.86257,548.45844L177.86257,547.97839
				L176.66242,547.97839L176.66242,547.25832L176.18236,547.25832L176.18236,546.77827L175.46227,546.77827L175.46227,547.97839
				L174.98221,547.97839L174.98221,548.45844L174.50215,548.45844L174.50215,547.97839L173.30199,547.97839L173.30199,547.25832
				L172.5819,547.25832L172.5819,547.97839L172.10184,547.97839L172.10184,548.45844L171.62178,548.45844L171.62178,549.65857L170.90169,549.65857
				L170.90169,550.13862L170.42163,550.13862L170.42163,551.33875L169.94157,551.33875L169.94157,550.8587L169.22148,550.8587L169.22148,550.13862
				L168.02132,550.13862L168.02132,549.65857L167.0612,549.65857L167.0612,549.17852L165.86105,549.17852L165.86105,548.45844L164.6609,548.45844
				L164.6609,547.97839L164.18084,547.97839L164.18084,547.25832L162.98068,547.25832L162.98068,546.77827L161.78053,546.77827L
				161.78053,546.29821L160.82041,546.29821L160.82041,545.57814L159.62026,545.57814L159.62026,545.09809L158.90017,545.09809L
				158.90017,544.61804L157.94004,544.61804L157.94004,543.89796L156.73989,543.89796L156.73989,543.41791L155.53974,543.41791L
				155.53974,542.69783L154.33959,542.69783L154.33959,542.21778L153.37946,542.21778L153.37946,541.73773L152.17931,541.73773L
				152.17931,541.01765L151.69925,541.01765L151.69925,540.5376L150.4991,540.5376L150.4991,540.05755L149.29895,540.05755L149.29895,539.33747
				L148.81889,539.33747L148.81889,538.85742L148.09879,538.85742L148.09879,538.13734L147.61873,538.13734L147.61873,537.65729
				L145.93852,537.65729L145.93852,538.13734L145.21843,538.13734L145.21843,538.85742L144.73837,538.85742L144.73837,539.33747
				L144.25831,539.33747L144.25831,540.05755L143.05815,540.05755L143.05815,540.5376L142.57809,540.5376L142.57809,541.01765L141.858,541.01765
				L141.858,541.73773L140.65785,541.73773L140.65785,542.21778L140.17779,542.21778L140.17779,542.69783L139.69773,542.69783L139.69773,543.41791
				L138.49758,543.41791L138.49758,543.89796L138.01752,543.89796L138.01752,544.61804L137.29742,544.61804L137.29742,545.09809
				L136.09727,545.09809L136.09727,545.57814L135.61721,545.57814L135.61721,546.29821L135.13715,546.29821L135.13715,546.77827
				L134.41706,546.77827L134.41706,547.25832L133.45694,547.25832L133.45694,547.97839L132.73685,547.97839L132.73685,548.45844
				L132.25678,548.45844L132.25678,549.17852L131.05663,549.17852L131.05663,549.65857L130.57657,549.65857L130.57657,548.45844
				L131.05663,548.45844L131.05663,547.25832L131.53669,547.25832L131.53669,545.57814L132.25678,545.57814L132.25678,543.41791
				L132.73685,543.41791L132.73685,541.73773L133.45694,541.73773L133.45694,540.5376L133.937,540.5376L133.937,538.85742L134.41706,538.85742
				L134.41706,537.65729L135.13715,537.65729L135.13715,536.45717L135.61721,536.45717L135.61721,535.49706L136.09727,535.49706
				L136.09727,533.57686L136.81736,533.57686L136.81736,532.61676L137.29742,532.61676L137.29742,531.41663L138.01752,531.41663
				L138.01752,530.2165L138.49758,530.2165L138.49758,529.01637L138.97764,529.01637L138.97764,528.53632L139.69773,528.53632L139.69773,527.33619
				L140.17779,527.33619L140.17779,526.37609L140.65785,526.37609L140.65785,525.17596L141.37794,525.17596L141.37794,524.45589
				L141.858,524.45589L141.858,523.49578L142.57809,523.49578L142.57809,522.29566L143.05815,522.29566L143.05815,521.09553L143.53822,521.09553
				L143.53822,519.8954L143.05815,519.8954L143.05815,519.41535L143.53822,519.41535L143.53822,517.73517L144.25831,517.73517L144.25831,517.01509
				L144.73837,517.01509L144.73837,516.53504L145.21843,516.53504L145.21843,516.05499L145.93852,516.05499L145.93852,515.33492
				L146.41858,515.33492L146.41858,514.85486L147.61873,514.85486L147.61873,514.37481L148.81889,514.37481L148.81889,514.85486
				L150.4991,514.85486L150.4991,515.33492L152.17931,515.33492L152.17931,516.05499L153.85953,516.05499L153.85953,516.53504L155.05968,516.53504
				L155.05968,517.01509L156.25983,517.01509L156.25983,517.73517L157.94004,517.73517L157.94004,517.01509L158.4201,517.01509L
				158.4201,516.53504L159.62026,516.53504L159.62026,516.05499L160.10032,516.05499L160.10032,515.33492L161.30047,515.33492L161.30047,514.85486
				L161.78053,514.85486L161.78053,514.37481L163.46074,514.37481L163.46074,513.65474L165.38099,513.65474L165.38099,513.17468
				L167.0612,513.17468L167.0612,512.45461L168.02132,512.45461L168.02132,511.97456L169.22148,511.97456L169.22148,511.49451L171.62178,511.49451
				L171.62178,510.77443L172.10184,510.77443L172.10184,510.29438L172.5819,510.29438L172.5819,509.81433L173.30199,509.81433L173.30199,509.09425
				L173.78205,509.09425L173.78205,508.6142L174.50215,508.6142L174.50215,507.41407L174.98221,507.41407L174.98221,506.93402L175.46227,506.93402
				L175.46227,506.21394L176.18236,506.21394L176.18236,505.73389L176.66242,505.73389L176.66242,504.53376L177.14248,504.53376
				L177.14248,504.05371L177.86257,504.05371L177.86257,503.33364L179.06272,503.33364L179.06272,502.85359L179.54278,502.85359
				L179.54278,502.37353L180.02285,502.37353L180.02285,501.65346L180.74294,501.65346L180.74294,500.69335L181.223,500.69335L181.223,499.97328
				L181.94309,499.97328L181.94309,498.77315L181.223,498.77315L181.223,491.57238L180.74294,491.57238L180.74294,488.69208L180.02285,488.69208
				L180.02285,486.29182L179.54278,486.29182L179.54278,482.93146L179.06272,482.93146L179.06272,478.85103L178.34263,478.85103
				L178.34263,477.17085L177.86257,477.17085L177.86257,475.01062L177.14248,475.01062L177.14248,473.81049L176.66242,473.81049
				L176.66242,470.93018L176.18236,470.93018L176.18236,468.76995L175.46227,468.76995L175.46227,466.3697L174.98221,466.3697L174.98221,464.20947
				L174.50215,464.20947L174.50215,460.60908L173.78205,460.60908L173.78205,458.44885L173.30199,458.44885L173.30199,456.76867
				L172.5819,456.76867L172.5819,454.84847L172.10184,454.84847L172.10184,453.16829L171.62178,453.16829L171.62178,449.32788L170.90169,449.32788
				L170.90169,436.60653L171.62178,436.60653L171.62178,428.68568L170.90169,428.68568L170.90169,427.48555L170.42163,427.48555
				L170.42163,427.0055L169.94157,427.0055L169.94157,425.80537L169.22148,425.80537L169.22148,425.32532L168.74141,425.32532L168.74141,424.1252
				L168.02132,424.1252L168.02132,423.64514L167.54126,423.64514L167.54126,422.44502L167.0612,422.44502L167.0612,421.96497L166.34111,421.96497
				L166.34111,421.24489L165.86105,421.24489L165.86105,420.28479L165.38099,420.28479L165.38099,419.56471L164.6609,419.56471L
				164.6609,419.08466L164.18084,419.08466L164.18084,418.36458L163.46074,418.36458L163.46074,417.88453L162.98068,417.88453L162.98068,417.40448
				L162.50062,417.40448L162.50062,416.6844L161.30047,416.6844L161.30047,416.20435L160.82041,416.20435L160.82041,415.7243L160.10032,415.7243
				L160.10032,413.8041L159.62026,413.8041L159.62026,413.32404L158.90017,413.32404L158.90017,401.32277L159.62026,401.32277L159.62026,400.84271
				L160.10032,400.84271L160.10032,399.64259L160.82041,399.64259L160.82041,399.16254L161.30047,399.16254L161.30047,397.96241
				L161.78053,397.96241L161.78053,396.76228L162.50062,396.76228L162.50062,395.56215L162.98068,395.56215L162.98068,394.60205
				L163.46074,394.60205L163.46074,393.40192L164.18084,393.40192L164.18084,392.20179L164.6609,392.20179L164.6609,390.04156L165.38099,390.04156
				L165.38099,386.44118L165.86105,386.44118L165.86105,385.48108L165.38099,385.48108L165.38099,381.88069L164.6609,381.88069L
				164.6609,373.4798L165.38099,373.4798L165.38099,371.79962L165.86105,371.79962L165.86105,369.87942L166.34111,369.87942L166.34111,369.39936
				L167.0612,369.39936L167.0612,368.91931L168.74141,368.91931L168.74141,368.19924L169.94157,368.19924L169.94157,367.71918L170.42163,367.71918
				L170.42163,367.23913L170.90169,367.23913L170.90169,366.51906L172.10184,366.51906L172.10184,366.03901L172.5819,366.03901L
				172.5819,365.31893L173.30199,365.31893L173.30199,364.83888L174.50215,364.83888L174.50215,364.35883L174.98221,364.35883L174.98221,363.63875
				L176.18236,363.63875L176.18236,363.1587L176.66242,363.1587L176.66242,362.67865L177.86257,362.67865L177.86257,361.95857L179.06272,361.95857
				L179.06272,361.47852L179.54278,361.47852L179.54278,360.75844L180.74294,360.75844L180.74294,360.27839L181.94309,360.27839
				L181.94309,359.79834L182.42315,359.79834L182.42315,359.07826L182.90321,359.07826L182.90321,358.11816L183.6233,358.11816L
				183.6233,357.39809L184.10336,357.39809L184.10336,356.91803L184.58342,356.91803L184.58342,356.19796L185.30352,356.19796L185.30352,355.71791
				L185.78358,355.71791L185.78358,355.23785L186.50367,355.23785L186.50367,354.51778L186.98373,354.51778L186.98373,354.03773
				L187.46379,354.03773L187.46379,353.55768L188.18388,353.55768L188.18388,352.8376L188.66394,352.8376L188.66394,352.35755L189.144,352.35755
				L189.144,351.63747L189.86409,351.63747L189.86409,351.15742L190.34416,351.15742L190.34416,350.67737L191.06425,350.67737L191.06425,349.95729
				L191.54431,349.95729L191.54431,349.47724L192.02437,349.47724L192.02437,348.99719L193.70458,348.99719L193.70458,348.27711
				L196.10489,348.27711L196.10489,347.79706L197.7851,347.79706L197.7851,347.07699L198.26516,347.07699L198.26516,346.59693L198.98525,346.59693
				L198.98525,346.11688L199.46531,346.11688L199.46531,345.39681L200.1854,345.39681L200.1854,344.91676L200.66547,344.91676L200.66547,344.4367
				L201.14553,344.4367L201.14553,343.71663L201.86562,343.71663L201.86562,343.23658L202.34568,343.23658L202.34568,342.5165L202.82574,342.5165
				L202.82574,342.03645L203.54583,342.03645L203.54583,341.5564L204.02589,341.5564L204.02589,340.83632L204.74598,340.83632L204.74598,340.35627
				L205.22604,340.35627L205.22604,339.87622L205.70611,339.87622L205.70611,339.15614L206.4262,339.15614"/>
			<path clip-path="url(#SVG_CP_2)" fill="none" stroke="#999999" stroke-width="0.96012" stroke-miterlimit="10" stroke-linecap="round" stroke-linejoin="round" d="
				M206.4262,339.15614L206.4262,338.67609L206.90626,338.67609L206.90626,337.95601L207.38632,337.95601L207.38632,337.47596L208.10641,337.47596
				L208.10641,336.27583L208.58647,336.27583L208.58647,335.79578L209.30656,335.79578L209.30656,334.59566L209.78662,334.59566
				L209.78662,334.1156L210.26668,334.1156L210.26668,332.43543L210.98678,332.43543L210.98678,331.2353L211.46684,331.2353L211.46684,330.03517
				L211.9469,330.03517L211.9469,328.83504L212.66699,328.83504L212.66699,327.87494L213.14705,327.87494L213.14705,326.67481L213.86714,326.67481
				L213.86714,325.47468L214.3472,325.47468L214.3472,324.27456L214.82726,324.27456L214.82726,323.31445L215.54735,323.31445L215.54735,322.11433
				L216.02742,322.11433L216.02742,320.9142L216.50748,320.9142L216.50748,319.71407L217.22757,319.71407L217.22757,318.75397L217.70763,318.75397
				L217.70763,317.55384L218.42772,317.55384L218.42772,316.35371L218.90778,316.35371L218.90778,315.15358L219.38784,315.15358
				L219.38784,314.19348L220.10793,314.19348L220.10793,312.99335L220.58799,312.99335L220.58799,311.79323L221.06805,311.79323
				L221.06805,310.5931L221.78815,310.5931L221.78815,309.633L222.26821,309.633L222.26821,308.43287L222.9883,308.43287L222.9883,306.75269
				L223.46836,306.75269L223.46836,305.55256L223.94842,305.55256L223.94842,303.87238L223.46836,303.87238L223.46836,302.67225
				L222.9883,302.67225L222.9883,301.47213L222.26821,301.47213L222.26821,299.79195L221.78815,299.79195L221.78815,298.59182L221.06805,298.59182
				L221.06805,296.91164L220.58799,296.91164L220.58799,295.23146L220.10793,295.23146L220.10793,294.75141L219.38784,294.75141
				L219.38784,293.07123L218.90778,293.07123L218.90778,291.39105L218.42772,291.39105L218.42772,288.9908L217.70763,288.9908L217.70763,287.31062
				L217.22757,287.31062L217.22757,286.11049L216.50748,286.11049L216.50748,284.91036L216.02742,284.91036L216.02742,284.43031
				L215.54735,284.43031L215.54735,283.95026L214.82726,283.95026L214.82726,283.23018L214.3472,283.23018L214.3472,282.75013L213.86714,282.75013
				L213.86714,282.27008L213.14705,282.27008L213.14705,281.55L212.66699,281.55L212.66699,281.06995L211.9469,281.06995L211.9469,279.86982
				L211.46684,279.86982L211.46684,279.38977L210.98678,279.38977L210.98678,278.6697L210.26668,278.6697L210.26668,278.18964L209.78662,278.18964
				L209.78662,277.70959L209.30656,277.70959L209.30656,276.98952L208.58647,276.98952L208.58647,276.50947L208.10641,276.50947
				L208.10641,275.78939L207.38632,275.78939L207.38632,275.30934L206.90626,275.30934L206.90626,274.82929L206.4262,274.82929L
				206.4262,274.10921L205.70611,274.10921L205.70611,273.62916L205.22604,273.62916L205.22604,273.14911L204.74598,273.14911L204.74598,272.42903
				L204.02589,272.42903L204.02589,271.94898L203.54583,271.94898L203.54583,271.2289L202.82574,271.2289L202.82574,270.2688L202.34568,270.2688
				L202.34568,269.54872L201.86562,269.54872L201.86562,269.06867L201.14553,269.06867L201.14553,268.3486L200.66547,268.3486L200.66547,267.86854
				L200.1854,267.86854L200.1854,267.38849L199.46531,267.38849L199.46531,266.66842L198.98525,266.66842L198.98525,266.18837L198.26516,266.18837
				L198.26516,264.98824L197.7851,264.98824L197.7851,264.50819L197.30504,264.50819L197.30504,263.78811L196.58495,263.78811L196.58495,263.30806
				L196.10489,263.30806L196.10489,262.82801L195.62483,262.82801L195.62483,262.10793L194.90473,262.10793L194.90473,261.62788
				L194.42467,261.62788L194.42467,261.14783L193.70458,261.14783L193.70458,259.9477L193.22452,259.9477L193.22452,259.22762L192.74446,259.22762
				L192.74446,258.74757L192.02437,258.74757L192.02437,258.26752L191.54431,258.26752L191.54431,257.54744L191.06425,257.54744
				L191.06425,256.58734L190.34416,256.58734L190.34416,255.86727L189.86409,255.86727L189.86409,255.38721L189.144,255.38721L189.144,254.18709
				L188.66394,254.18709L188.66394,253.70704L188.18388,253.70704L188.18388,252.98696L187.46379,252.98696L187.46379,252.50691
				L186.98373,252.50691L186.98373,252.02686L186.50367,252.02686L186.50367,250.82673L185.78358,250.82673L185.78358,250.10665
				L185.30352,250.10665L185.30352,249.14655L184.58342,249.14655L184.58342,248.42647L184.10336,248.42647L184.10336,247.94642
				L183.6233,247.94642L183.6233,247.46637L182.90321,247.46637L182.90321,245.06611L182.42315,245.06611L182.42315,244.58606L181.94309,244.58606
				L181.94309,243.86599L181.223,243.86599L181.223,243.38594L180.74294,243.38594L180.74294,242.90588L180.02285,242.90588L180.02285,241.70576
				L179.54278,241.70576L179.54278,240.98568L179.06272,240.98568L179.06272,240.50563L178.34263,240.50563L178.34263,240.02558
				L177.86257,240.02558L177.86257,239.3055L177.14248,239.3055L177.14248,238.3454L176.66242,238.3454L176.66242,237.14527L176.18236,237.14527
				L176.18236,236.42519L175.46227,236.42519L175.46227,235.46509L174.98221,235.46509L174.98221,234.26496L174.50215,234.26496
				L174.50215,233.78491L173.78205,233.78491L173.78205,232.58478L173.30199,232.58478L173.30199,231.38466L172.5819,231.38466L
				172.5819,230.18453L172.10184,230.18453L172.10184,227.30422L171.62178,227.30422L171.62178,225.14399L170.90169,225.14399L170.90169,223.94386
				L170.42163,223.94386L170.42163,216.02302L170.90169,216.02302L170.90169,214.34284L171.62178,214.34284L171.62178,213.14271
				L172.10184,213.14271L172.10184,211.94259L172.5819,211.94259L172.5819,211.46253L173.30199,211.46253L173.30199,210.26241L173.78205,210.26241
				L173.78205,209.06228L174.50215,209.06228L174.50215,208.10218L174.98221,208.10218L174.98221,206.90205L175.46227,206.90205
				L175.46227,206.18197L176.18236,206.18197L176.18236,205.70192L176.66242,205.70192L176.66242,206.90205L177.14248,206.90205
				L177.14248,208.10218L177.86257,208.10218L177.86257,209.06228L179.06272,209.06228L179.06272,208.58223L180.74294,208.58223
				L180.74294,209.06228L180.02285,209.06228L180.02285,210.26241L179.54278,210.26241L179.54278,211.46253L180.02285,211.46253
				L180.02285,212.66266L180.74294,212.66266L180.74294,213.62276L181.223,213.62276L181.223,214.82289L181.94309,214.82289L181.94309,216.50307
				L182.42315,216.50307L182.42315,217.7032L182.90321,217.7032L182.90321,218.18325L183.6233,218.18325L183.6233,218.90333L184.10336,218.90333
				L184.10336,219.38338L184.58342,219.38338L184.58342,220.58351L185.30352,220.58351L185.30352,221.06356L185.78358,221.06356
				L185.78358,222.26369L186.50367,222.26369L186.50367,222.74374L186.98373,222.74374L186.98373,223.94386L187.46379,223.94386
				L187.46379,224.66394L188.18388,224.66394L188.18388,225.14399L188.66394,225.14399L188.66394,226.34412L189.144,226.34412L189.144,226.82417
				L189.86409,226.82417L189.86409,234.74502L190.34416,234.74502L190.34416,235.46509L191.06425,235.46509L191.06425,236.42519
				L191.54431,236.42519L191.54431,237.62532L192.02437,237.62532L192.02437,238.3454L192.74446,238.3454L192.74446,239.3055L193.22452,239.3055
				L193.22452,240.02558L193.70458,240.02558L193.70458,240.50563L194.42467,240.50563L194.42467,241.70576L194.90473,241.70576
				L194.90473,242.18581L195.62483,242.18581L195.62483,242.90588L196.10489,242.90588L196.10489,243.38594L196.58495,243.38594
				L196.58495,243.86599L197.30504,243.86599L197.30504,244.58606L197.7851,244.58606L197.7851,245.06611L198.26516,245.06611L198.26516,245.54617
				L198.98525,245.54617L198.98525,246.26624L199.46531,246.26624L199.46531,246.74629L200.1854,246.74629L200.1854,247.46637L200.66547,247.46637
				L200.66547,247.94642L201.14553,247.94642L201.14553,248.42647L201.86562,248.42647L201.86562,249.14655L202.34568,249.14655
				L202.34568,249.6266L202.82574,249.6266L202.82574,250.10665L203.54583,250.10665L203.54583,250.82673L204.02589,250.82673L204.02589,252.02686
				L204.74598,252.02686L204.74598,252.50691L205.22604,252.50691L205.22604,252.98696L205.70611,252.98696L205.70611,253.70704
				L206.4262,253.70704L206.4262,254.18709L206.90626,254.18709L206.90626,255.38721L207.38632,255.38721L207.38632,255.86727L208.10641,255.86727
				L208.10641,256.58734L208.58647,256.58734L208.58647,257.06739L209.30656,257.06739L209.30656,257.54744L209.78662,257.54744
				L209.78662,258.26752L210.26668,258.26752L210.26668,258.74757L210.98678,258.74757L210.98678,259.22762L211.46684,259.22762
				L211.46684,259.9477L211.9469,259.9477L211.9469,261.14783L212.66699,261.14783L212.66699,261.62788L213.14705,261.62788L213.14705,262.10793
				L213.86714,262.10793L213.86714,262.82801L214.3472,262.82801L214.3472,263.30806L214.82726,263.30806L214.82726,263.78811L215.54735,263.78811
				L215.54735,262.10793L216.02742,262.10793L216.02742,261.62788L215.54735,261.62788L215.54735,260.42775L214.82726,260.42775
				L214.82726,258.26752L215.54735,258.26752L215.54735,257.54744L216.02742,257.54744L216.02742,257.06739L216.50748,257.06739
				L216.50748,256.58734L217.22757,256.58734L217.22757,255.86727L217.70763,255.86727L217.70763,255.38721L218.42772,255.38721
				L218.42772,254.66714L218.90778,254.66714L218.90778,254.18709L219.38784,254.18709L219.38784,253.70704L220.10793,253.70704
				L220.10793,252.98696L220.58799,252.98696L220.58799,252.50691L221.06805,252.50691L221.06805,252.02686L221.78815,252.02686
				L221.78815,251.30678L222.26821,251.30678L222.26821,250.82673L222.9883,250.82673L222.9883,249.14655L223.46836,249.14655L223.46836,248.42647
				L223.94842,248.42647L223.94842,247.94642L224.66851,247.94642L224.66851,247.46637L225.14857,247.46637L225.14857,246.74629
				L225.62863,246.74629L225.62863,246.26624L226.34872,246.26624L226.34872,245.54617L226.82879,245.54617L226.82879,245.06611
				L227.54888,245.06611L227.54888,244.58606L228.02894,244.58606L228.02894,243.86599L228.509,243.86599L228.509,243.38594L229.22909,243.38594
				L229.22909,242.90588L229.70915,242.90588L229.70915,242.18581L230.18921,242.18581L230.18921,241.70576L230.9093,241.70576L
				230.9093,240.98568L231.38936,240.98568L231.38936,240.50563L232.10946,240.50563L232.10946,240.02558L232.58952,240.02558L232.58952,239.3055
				L233.06958,239.3055L233.06958,238.82545L233.78967,238.82545L233.78967,238.3454L234.26973,238.3454L234.26973,237.62532L234.74979,237.62532
				L234.74979,237.14527L235.46988,237.14527L235.46988,236.42519L235.94994,236.42519L235.94994,235.94514L236.67003,235.94514
				L236.67003,235.46509L237.1501,235.46509L237.1501,234.74502L237.63016,234.74502L237.63016,234.26496L238.35025,234.26496L238.35025,232.58478
				L239.31037,232.58478L239.31037,233.78491L240.03046,233.78491L240.03046,234.26496L240.51052,234.26496L240.51052,234.74502
				L241.23061,234.74502L241.23061,235.46509L241.71067,235.46509L241.71067,235.94514L242.19074,235.94514L242.19074,236.42519
				L242.91083,236.42519L242.91083,237.14527L243.39089,237.14527L243.39089,237.62532L244.59104,237.62532L244.59104,238.3454L
				245.0711,238.3454L245.0711,238.82545L245.79119,238.82545L245.79119,239.3055L246.27125,239.3055L246.27125,240.02558L247.47141,240.02558
				L247.47141,240.50563L247.95147,240.50563L247.95147,240.98568L248.67156,240.98568L248.67156,241.70576L249.63168,241.70576
				L249.63168,242.18581L250.35177,242.18581L250.35177,242.90588L250.83183,242.90588L250.83183,243.38594L252.03198,243.38594
				L252.03198,243.86599L252.51205,243.86599L252.51205,244.58606L253.23214,244.58606L253.23214,245.06611L253.7122,245.06611L
				253.7122,245.54617L254.91235,245.54617L254.91235,246.26624L255.39241,246.26624L255.39241,246.74629L255.87247,246.74629L255.87247,247.46637
				L257.07262,247.46637L257.07262,247.94642L257.79272,247.94642L257.79272,248.42647L258.27278,248.42647L258.27278,249.14655
				L258.75284,249.14655L258.75284,249.6266L259.95299,249.6266L259.95299,250.10665L260.43305,250.10665L260.43305,250.82673L261.15314,250.82673
				L261.15314,251.30678L262.35329,251.30678L262.35329,252.02686L262.83335,252.02686L262.83335,252.50691L263.31342,252.50691
				L263.31342,252.98696L264.51357,252.98696L264.51357,253.70704L264.99363,253.70704L264.99363,254.18709L265.71372,254.18709
				L265.71372,254.66714L266.91387,254.66714L266.91387,255.38721L267.39393,255.38721L267.39393,255.86727L267.87399,255.86727
				L267.87399,256.58734L269.07415,256.58734L269.07415,257.06739L269.55421,257.06739L269.55421,257.54744L270.2743,257.54744L
				270.2743,258.26752L271.47445,258.26752L271.47445,258.74757L271.95451,258.74757L271.95451,259.22762L272.43457,259.22762L272.43457,259.9477
				L273.63473,259.9477L273.63473,260.42775L274.11479,260.42775L274.11479,261.14783L275.31494,261.14783L275.31494,261.62788L
				276.03503,261.62788L276.03503,262.10793L276.99515,262.10793L276.99515,262.82801L278.1953,262.82801L278.1953,263.30806L278.67537,263.30806
				L278.67537,263.78811L279.87552,263.78811L279.87552,264.50819L281.07567,264.50819L281.07567,264.98824L281.55573,264.98824
				L281.55573,265.70831L282.75588,265.70831L282.75588,266.18837L283.23594,266.18837L283.23594,266.66842L284.4361,266.66842L
				284.4361,267.38849L287.31646,267.38849L287.31646,267.86854L289.71677,267.86854L289.71677,268.3486L292.3571,268.3486L292.3571,269.06867
				L293.07719,269.06867L293.07719,268.3486L317.5603,268.3486L317.5603,267.86854L331.24204,267.86854L331.24204,267.38849L335.32255,267.38849
				L335.32255,266.66842L339.16304,266.66842L339.16304,266.18837L342.7635,266.18837L342.7635,266.66842L341.56335,266.66842L341.56335,267.38849
				L340.36319,267.38849L340.36319,267.86854L339.88313,267.86854L339.88313,268.3486L338.68298,268.3486L338.68298,269.06867L337.48283,269.06867
				L337.48283,269.54872L336.28268,269.54872L336.28268,270.2688L335.32255,270.2688L335.32255,270.74885L334.1224,270.74885L334.1224,271.2289
				L333.64234,271.2289L333.64234,271.94898L332.44219,271.94898L332.44219,272.42903L331.24204,272.42903L331.24204,273.14911L
				330.04188,273.14911L330.04188,273.62916L329.08176,273.62916L329.08176,274.10921L328.36167,274.10921L328.36167,274.82929L
				327.16152,274.82929L327.16152,275.30934L326.2014,275.30934L326.2014,275.78939L325.00124,275.78939L325.00124,276.50947L323.80109,276.50947
				L323.80109,276.98952L322.60094,276.98952L322.60094,277.70959L321.64082,277.70959L321.64082,278.18964L320.44067,278.18964
				L320.44067,278.6697L318.76045,278.6697L318.76045,279.38977L317.5603,279.38977L317.5603,279.86982L316.36015,279.86982L316.36015,280.34987
				L315.40003,280.34987L315.40003,281.06995L313.47978,281.06995L313.47978,281.55L312.51966,281.55L312.51966,282.27008L311.31951,282.27008
				L311.31951,282.75013L309.63929,282.75013L309.63929,283.23018L308.43914,283.23018L308.43914,283.95026L307.23899,283.95026
				L307.23899,284.43031L305.55878,284.43031L305.55878,284.91036L304.35862,284.91036L304.35862,285.63044L303.3985,285.63044L
				303.3985,286.11049L302.19835,286.11049L302.19835,286.83057L300.51814,286.83057L300.51814,287.31062L299.31798,287.31062L299.31798,287.79067
				L298.83792,287.79067L298.83792,288.51074L298.11783,288.51074L298.11783,289.47085L297.63777,289.47085L297.63777,290.19092
				L298.11783,290.19092L298.11783,291.39105L298.83792,291.39105L298.83792,292.35115L299.31798,292.35115L299.31798,293.55128
				L299.79805,293.55128L299.79805,294.75141L300.51814,294.75141L300.51814,296.43159L300.9982,296.43159L300.9982,297.63172L301.47826,297.63172
				L301.47826,298.59182L302.19835,298.59182L302.19835,299.79195L302.67841,299.79195L302.67841,300.99207L303.3985,300.99207L
				303.3985,302.1922L303.87856,302.1922L303.87856,303.87238L304.35862,303.87238L304.35862,305.07251L305.07872,305.07251L305.07872,306.03261
				L305.55878,306.03261L305.55878,307.23274L306.03884,307.23274L306.03884,308.43287L306.75893,308.43287L306.75893,309.633L307.23899,309.633
				L307.23899,310.5931L307.95908,310.5931L307.95908,312.27328L308.43914,312.27328L308.43914,313.4734L308.9192,313.4734L308.9192,314.67353
				L309.63929,314.67353L309.63929,315.87366L308.9192,315.87366L308.9192,318.03389L308.43914,318.03389L308.43914,319.23402L307.95908,319.23402
				L307.95908,320.43415L307.23899,320.43415L307.23899,320.9142L306.75893,320.9142L306.75893,321.39425L306.03884,321.39425L306.03884,322.11433
				L305.55878,322.11433L305.55878,322.59438L304.35862,322.59438L304.35862,323.31445L303.87856,323.31445L303.87856,323.7945L
				303.3985,323.7945L303.3985,324.27456L302.67841,324.27456L302.67841,324.99463L301.47826,324.99463L301.47826,325.47468L300.9982,325.47468
				L300.9982,325.95473L300.51814,325.95473L300.51814,326.67481L299.79805,326.67481L299.79805,327.15486L299.31798,327.15486L
				299.31798,327.87494L298.11783,327.87494L298.11783,328.35499L297.63777,328.35499L297.63777,328.83504L298.83792,328.83504L
				298.83792,329.55512L299.79805,329.55512L299.79805,330.03517L300.9982,330.03517L300.9982,330.51522L301.47826,330.51522L301.47826,331.2353
				L302.67841,331.2353L302.67841,331.71535L303.87856,331.71535L303.87856,332.43543L305.07872,332.43543L305.07872,332.91548L
				305.55878,332.91548L305.55878,333.39553L306.75893,333.39553L306.75893,334.1156L307.95908,334.1156L307.95908,334.59566L308.43914,334.59566
				L308.43914,335.07571L309.63929,335.07571L309.63929,335.79578L310.83945,335.79578L310.83945,336.27583L311.79957,336.27583
				L311.79957,336.99591L312.51966,336.99591L312.51966,337.47596L313.47978,337.47596L313.47978,337.95601L314.67993,337.95601
				L314.67993,338.67609L315.88009,338.67609L315.88009,339.15614L316.36015,339.15614L316.36015,339.87622L317.5603,339.87622L
				317.5603,340.35627L318.76045,340.35627L318.76045,340.83632L319.24051,340.83632L319.24051,341.5564L320.44067,341.5564L320.44067,342.03645
				L321.64082,342.03645L321.64082,342.5165L322.60094,342.5165L322.60094,343.23658L323.32103,343.23658L323.32103,343.71663L324.52118,343.71663
				L324.52118,344.4367L325.48131,344.4367L325.48131,344.91676L326.68146,344.91676L326.68146,345.39681L327.16152,345.39681L327.16152,346.11688
				L328.36167,346.11688L328.36167,346.59693L329.56182,346.59693L329.56182,347.07699L330.76198,347.07699L330.76198,347.79706
				L331.24204,347.79706L331.24204,348.27711L332.44219,348.27711L332.44219,348.99719L333.64234,348.99719L333.64234,349.47724
				L334.60246,349.47724L334.60246,349.95729L335.80261,349.95729L335.80261,350.67737"/>
			<path clip-path="url(#SVG_CP_2)" fill="none" stroke="#999999" stroke-width="0.96012" stroke-miterlimit="10" stroke-linecap="round" stroke-linejoin="round" d="
				M172.5819,419.56471L172.5819,419.08466L173.30199,419.08466L173.30199,418.36458L173.78205,418.36458L173.78205,417.88453L174.50215,417.88453
				L174.50215,417.40448L174.98221,417.40448L174.98221,416.6844L175.46227,416.6844L175.46227,416.20435L176.18236,416.20435L176.18236,415.7243
				L176.66242,415.7243L176.66242,415.00422L177.14248,415.00422L177.14248,414.52417L178.34263,414.52417L178.34263,413.8041L179.06272,413.8041
				L179.06272,413.32404L179.54278,413.32404L179.54278,412.84399L180.02285,412.84399L180.02285,412.12392L180.74294,412.12392
				L180.74294,411.16381L181.223,411.16381L181.223,410.44374L181.94309,410.44374L181.94309,409.96369L182.42315,409.96369L182.42315,408.76356
				L182.90321,408.76356L182.90321,408.28351L183.6233,408.28351L183.6233,407.08338L184.10336,407.08338L184.10336,406.60333L184.58342,406.60333
				L184.58342,405.4032L185.30352,405.4032L185.30352,404.68312L185.78358,404.68312L185.78358,404.20307L186.50367,404.20307L186.50367,403.00294
				L186.98373,403.00294L186.98373,402.52289L187.46379,402.52289L187.46379,399.64259L188.18388,399.64259L188.18388,396.28223
				L188.66394,396.28223L188.66394,393.88197L189.144,393.88197L189.144,390.52161L189.86409,390.52161L189.86409,388.84144L190.34416,388.84144
				L190.34416,383.08082L189.86409,383.08082L189.86409,380.92059L190.34416,380.92059L190.34416,380.20051L189.86409,380.20051
				L189.86409,373.4798L189.144,373.4798L189.144,370.59949L189.86409,370.59949L189.86409,368.91931L190.34416,368.91931L190.34416,367.23913
				L191.06425,367.23913L191.06425,366.03901L191.54431,366.03901L191.54431,364.83888L192.02437,364.83888L192.02437,364.35883
				L192.74446,364.35883L192.74446,363.1587L193.22452,363.1587L193.22452,361.95857L193.70458,361.95857L193.70458,360.75844L194.42467,360.75844
				L194.42467,359.79834L194.90473,359.79834L194.90473,359.07826L195.62483,359.07826L195.62483,358.59821L196.10489,358.59821
				L196.10489,357.39809L196.58495,357.39809L196.58495,355.23785L196.10489,355.23785L196.10489,355.71791L194.90473,355.71791
				L194.90473,356.19796L194.42467,356.19796L194.42467,356.91803L193.70458,356.91803L193.70458,357.39809L193.22452,357.39809
				L193.22452,358.59821L192.74446,358.59821L192.74446,359.07826L192.02437,359.07826L192.02437,359.79834L191.54431,359.79834
				L191.54431,360.27839L191.06425,360.27839L191.06425,360.75844L190.34416,360.75844L190.34416,361.47852L189.86409,361.47852
				L189.86409,361.95857L189.144,361.95857L189.144,362.67865L188.66394,362.67865L188.66394,363.1587L188.18388,363.1587L188.18388,363.63875
				L187.46379,363.63875L187.46379,364.35883L186.50367,364.35883L186.50367,364.83888L184.58342,364.83888L184.58342,365.31893
				L183.6233,365.31893L183.6233,366.03901L182.90321,366.03901L182.90321,366.51906L181.94309,366.51906L181.94309,367.23913L181.223,367.23913
				L181.223,367.71918L180.74294,367.71918L180.74294,368.19924L179.54278,368.19924L179.54278,368.91931L179.06272,368.91931L179.06272,369.39936
				L177.86257,369.39936L177.86257,369.87942L177.14248,369.87942L177.14248,370.59949L176.66242,370.59949L176.66242,371.07954
				L175.46227,371.07954L175.46227,371.79962L174.98221,371.79962L174.98221,372.27967L173.78205,372.27967L173.78205,372.75972
				L173.30199,372.75972L173.30199,373.4798L172.5819,373.4798L172.5819,374.4399L172.10184,374.4399L172.10184,375.64003L171.62178,375.64003
				L171.62178,376.36011L170.90169,376.36011L170.90169,376.84016L170.42163,376.84016L170.42163,377.32021L169.94157,377.32021
				L169.94157,378.04028L169.22148,378.04028L169.22148,384.28095L169.94157,384.28095L169.94157,391.72174L169.22148,391.72174
				L169.22148,392.20179L168.74141,392.20179L168.74141,394.60205L168.02132,394.60205L168.02132,397.96241L167.54126,397.96241
				L167.54126,398.44246L167.0612,398.44246L167.0612,400.12264L166.34111,400.12264L166.34111,400.84271L165.86105,400.84271L165.86105,401.32277
				L164.6609,401.32277L164.6609,402.04284L164.18084,402.04284L164.18084,402.52289L162.98068,402.52289L162.98068,403.00294L162.50062,403.00294
				L162.50062,404.68312L161.78053,404.68312L161.78053,408.28351L162.50062,408.28351L162.50062,410.44374L162.98068,410.44374
				L162.98068,412.84399L163.46074,412.84399L163.46074,413.32404L164.18084,413.32404L164.18084,413.8041L164.6609,413.8041L164.6609,414.52417
				L165.38099,414.52417L165.38099,415.7243L165.86105,415.7243L165.86105,416.20435L166.34111,416.20435L166.34111,416.6844L167.54126,416.6844
				L167.54126,417.40448L168.74141,417.40448L168.74141,417.88453L169.94157,417.88453L169.94157,418.36458L170.90169,418.36458
				L170.90169,419.08466L171.62178,419.08466L171.62178,419.56471L172.5819,419.56471"/>
			<path clip-path="url(#SVG_CP_2)" fill="none" stroke="#999999" stroke-width="0.96012" stroke-miterlimit="10" stroke-linecap="round" stroke-linejoin="round" d="
				M250.35177,495.41279L250.83183,495.41279L250.83183,494.93274L251.31189,494.93274L251.31189,494.21266L252.03198,494.21266
				L252.03198,493.73261L252.51205,493.73261L252.51205,493.25256L253.23214,493.25256L253.23214,492.53249L253.7122,492.53249L
				253.7122,492.05243L254.19226,492.05243L254.19226,491.57238L254.91235,491.57238L254.91235,490.85231L255.39241,490.85231L255.39241,490.37225
				L255.87247,490.37225L255.87247,489.65218L256.59256,489.65218L256.59256,489.17213L257.07262,489.17213L257.07262,488.69208
				L257.79272,488.69208L257.79272,487.49195L258.27278,487.49195L258.27278,487.0119L258.75284,487.0119L258.75284,486.29182L259.47293,486.29182
				L259.47293,485.81177L259.95299,485.81177L259.95299,485.09169L260.43305,485.09169L260.43305,484.61164L261.15314,484.61164
				L261.15314,484.13159L261.6332,484.13159L261.6332,483.41151L262.35329,483.41151L262.35329,482.93146L262.83335,482.93146L262.83335,482.45141
				L263.31342,482.45141L263.31342,481.73133L264.03351,481.73133L264.03351,481.25128L264.51357,481.25128L264.51357,480.53121
				L264.99363,480.53121L264.99363,480.05116L265.71372,480.05116L265.71372,479.5711L266.19378,479.5711L266.19378,478.85103L266.91387,478.85103
				L266.91387,478.37098L267.39393,478.37098L267.39393,477.89092L267.87399,477.89092L267.87399,477.17085L268.59409,477.17085
				L268.59409,476.6908L269.07415,476.6908L269.07415,475.97072L269.55421,475.97072L269.55421,475.49067L270.2743,475.49067L270.2743,475.01062
				L270.75436,475.01062L270.75436,474.29054L271.47445,474.29054L271.47445,473.81049L271.95451,473.81049L271.95451,473.33044
				L272.43457,473.33044L272.43457,472.61036L273.15466,472.61036L273.15466,472.13031L273.63473,472.13031L273.63473,471.41023
				L274.11479,471.41023L274.11479,470.93018L274.83488,470.93018L274.83488,470.45013L275.31494,470.45013L275.31494,469.73006
				L276.03503,469.73006L276.03503,469.25L276.51509,469.25L276.51509,468.76995L276.99515,468.76995L276.99515,468.04988L277.71524,468.04988
				L277.71524,467.56983L278.1953,467.56983L278.1953,466.84975L278.67537,466.84975L278.67537,466.3697L279.39546,466.3697L279.39546,465.88965
				L279.87552,465.88965L279.87552,465.16957L280.59561,465.16957L280.59561,464.68952L281.07567,464.68952L281.07567,464.20947
				L281.55573,464.20947L281.55573,463.48939L282.27582,463.48939L282.27582,463.00934L282.75588,463.00934L282.75588,462.28926
				L283.23594,462.28926L283.23594,461.80921L283.95604,461.80921L283.95604,461.32916L284.4361,461.32916L284.4361,460.60908L285.15619,460.60908
				L285.15619,460.12903L285.63625,460.12903L285.63625,459.40896L286.11631,459.40896L286.11631,458.9289L286.8364,458.9289L286.8364,458.44885
				L287.31646,458.44885L287.31646,457.72878L287.79652,457.72878L287.79652,457.24873L288.51661,457.24873L288.51661,456.76867
				L288.99668,456.76867L288.99668,456.0486L289.71677,456.0486L289.71677,455.56855L290.19683,455.56855L290.19683,454.84847L290.67689,454.84847
				L290.67689,454.36842L291.39698,454.36842L291.39698,453.88837L291.87704,453.88837L291.87704,453.16829L292.3571,453.16829L
				292.3571,452.68824L293.07719,452.68824L293.07719,452.20819L293.55725,452.20819L293.55725,451.48811L294.27735,451.48811L294.27735,451.00806
				L294.75741,451.00806L294.75741,450.28798L295.23747,450.28798L295.23747,449.80793L295.95756,449.80793L295.95756,449.32788
				L296.43762,449.32788L296.43762,448.6078L296.91768,448.6078L296.91768,448.12775L297.63777,448.12775L297.63777,447.6477L298.11783,447.6477
				L298.11783,446.92763L298.83792,446.92763L298.83792,446.44757L299.31798,446.44757L299.31798,445.7275L299.79805,445.7275L299.79805,445.24745
				L300.51814,445.24745L300.51814,444.7674L300.9982,444.7674L300.9982,444.04732L301.47826,444.04732L301.47826,443.56727L302.19835,443.56727
				L302.19835,443.08722L302.67841,443.08722L302.67841,442.36714L303.3985,442.36714L303.3985,441.88709L303.87856,441.88709L303.87856,441.16701
				L304.35862,441.16701L304.35862,440.68696L305.07872,440.68696L305.07872,440.20691L305.55878,440.20691L305.55878,439.48683
				L306.03884,439.48683L306.03884,439.00678L306.75893,439.00678L306.75893,438.52673L307.23899,438.52673L307.23899,437.80665
				L307.95908,437.80665L307.95908,437.3266L308.43914,437.3266L308.43914,436.60653L308.9192,436.60653L308.9192,436.12647L309.63929,436.12647
				L309.63929,435.64642L310.11936,435.64642L310.11936,434.92635L310.83945,434.92635L310.83945,434.4463L311.31951,434.4463L311.31951,433.96624
				L311.79957,433.96624L311.79957,433.24617L312.51966,433.24617L312.51966,432.76612L312.99972,432.76612L312.99972,432.04604
				L313.47978,432.04604L313.47978,422.92507L314.19987,422.92507L314.19987,421.96497L314.67993,421.96497L314.67993,420.76484
				L315.40003,420.76484L315.40003,419.56471L315.88009,419.56471L315.88009,418.36458L316.36015,418.36458L316.36015,417.88453
				L317.08024,417.88453L317.08024,417.40448L317.5603,417.40448L317.5603,416.6844L318.04036,416.6844L318.04036,416.20435L318.76045,416.20435
				L318.76045,388.12136L319.24051,388.12136L319.24051,387.64131L319.9606,387.64131L319.9606,387.16126L320.44067,387.16126L320.44067,386.44118
				L320.92073,386.44118L320.92073,385.96113L321.64082,385.96113L321.64082,385.48108L322.12088,385.48108L322.12088,384.761L322.60094,384.761
				L322.60094,384.28095L323.32103,384.28095L323.32103,383.56087L323.80109,383.56087L323.80109,383.08082L324.52118,383.08082
				L324.52118,382.60077L325.00124,382.60077L325.00124,381.88069L325.48131,381.88069L325.48131,364.83888L326.2014,364.83888L
				326.2014,364.35883L326.68146,364.35883L326.68146,363.63875L327.16152,363.63875L327.16152,363.1587L327.88161,363.1587L327.88161,362.67865
				L328.36167,362.67865L328.36167,361.95857L329.08176,361.95857L329.08176,361.47852L329.56182,361.47852L329.56182,360.75844
				L330.04188,360.75844L330.04188,360.27839L330.76198,360.27839L330.76198,359.79834L331.24204,359.79834L331.24204,359.07826
				L331.7221,359.07826L331.7221,358.59821L332.44219,358.59821L332.44219,358.11816L332.92225,358.11816L332.92225,357.39809L333.64234,357.39809
				L333.64234,356.91803L334.1224,356.91803L334.1224,356.19796L334.60246,356.19796L334.60246,355.71791L335.32255,355.71791L335.32255,355.23785
				L335.80261,355.23785L335.80261,350.67737L336.28268,350.67737L336.28268,351.15742L337.48283,351.15742L337.48283,351.63747
				L338.68298,351.63747L338.68298,352.35755L339.88313,352.35755L339.88313,352.8376L340.84325,352.8376L340.84325,353.55768L342.04341,353.55768
				L342.04341,354.03773L342.7635,354.03773L342.7635,354.51778L343.72362,354.51778L343.72362,355.23785L344.92377,355.23785L344.92377,355.71791
				L346.12392,355.71791L346.12392,356.19796L347.32408,356.19796L347.32408,356.91803L347.80414,356.91803L347.80414,357.39809
				L349.00429,357.39809L349.00429,358.11816L349.96441,358.11816L349.96441,358.59821L351.16456,358.59821L351.16456,359.07826
				L352.36472,359.07826L352.36472,359.79834L353.56487,359.79834L353.56487,360.27839L354.04493,360.27839L354.04493,360.75844
				L355.24508,360.75844L355.24508,361.47852L356.44523,361.47852L356.44523,361.95857L357.40536,361.95857L357.40536,362.67865
				L358.60551,362.67865L358.60551,363.1587L359.08557,363.1587L359.08557,363.63875L360.28572,363.63875L360.28572,364.35883L361.48587,364.35883
				L361.48587,364.83888L362.68603,364.83888L362.68603,365.31893L363.64615,365.31893L363.64615,366.03901L364.8463,366.03901L
				364.8463,366.51906L365.56639,366.51906L365.56639,367.23913L366.52651,367.23913L366.52651,367.71918L367.72667,367.71918L367.72667,368.19924
				L368.92682,368.19924L368.92682,368.91931L370.12697,368.91931L370.12697,369.39936L370.60703,369.39936L370.60703,369.87942
				L371.80718,369.87942L371.80718,370.59949L373.00734,370.59949L373.00734,371.07954L373.96746,371.07954L373.96746,371.79962
				L375.16761,371.79962L375.16761,372.27967L376.36776,372.27967L376.36776,372.75972L376.84782,372.75972L376.84782,373.4798L
				378.04798,373.4798L378.04798,373.95985L379.24813,373.95985L379.24813,374.4399L380.20825,374.4399L380.20825,375.15998L381.4084,375.15998
				L381.4084,375.64003L382.12849,375.64003L382.12849,376.36011L383.08862,376.36011L383.08862,376.84016L384.28877,376.84016L
				384.28877,377.32021L384.76883,377.32021L384.76883,378.04028L385.96898,378.04028L385.96898,378.52034L386.68907,378.52034L
				386.68907,379.00039L387.64919,379.00039L387.64919,379.72046L388.84935,379.72046L388.84935,380.20051L389.32941,380.20051L
				389.32941,380.92059L390.52956,380.92059L390.52956,381.40064L391.24965,381.40064L391.24965,381.88069L392.20977,381.88069L
				392.20977,382.60077L392.92986,382.60077L392.92986,383.08082L393.88999,383.08082L393.88999,383.56087L395.09014,383.56087L
				395.09014,384.28095L395.81023,384.28095L395.81023,384.761L396.77035,384.761L396.77035,385.48108L397.49044,385.48108L397.49044,385.96113
				L398.45057,385.96113L398.45057,386.44118L399.65072,386.44118L399.65072,387.16126L400.37081,387.16126L400.37081,387.64131
				L401.33093,387.64131L401.33093,388.12136L402.05102,388.12136L402.05102,388.84144L403.01114,388.84144L403.01114,389.32149
				L403.73124,389.32149L403.73124,390.04156L404.93139,390.04156L404.93139,390.52161L405.41145,390.52161L405.41145,391.00167
				L406.6116,391.00167L406.6116,391.72174L407.09166,391.72174L407.09166,392.20179L408.29181,392.20179L408.29181,392.68185L408.77187,392.68185
				L408.77187,393.40192L409.97203,393.40192L409.97203,393.88197L410.45209,393.88197L410.45209,394.60205L411.65224,394.60205
				L411.65224,395.0821L412.1323,395.0821L412.1323,395.56215L413.33245,395.56215L413.33245,396.28223L414.05254,396.28223L414.05254,396.76228
				L415.01267,396.76228L415.01267,397.24233L415.73276,397.24233L415.73276,397.96241L416.69288,397.96241L416.69288,398.44246
				L417.41297,398.44246L417.41297,399.16254L418.61312,399.16254L418.61312,399.64259L419.09318,399.64259L419.09318,400.12264
				L420.29334,400.12264L420.29334,400.84271L420.7734,400.84271L420.7734,401.32277L421.25346,401.32277L421.25346,402.04284L421.97355,402.04284
				L421.97355,402.52289L423.1737,402.52289L423.1737,403.00294L423.65376,403.00294L423.65376,403.72302L424.13382,403.72302L424.13382,404.20307
				L425.33398,404.20307L425.33398,404.68312L425.81404,404.68312L425.81404,405.4032L426.53413,405.4032L426.53413,405.88325L427.73428,405.88325
				L427.73428,406.60333L428.21434,406.60333L428.21434,407.08338L428.6944,407.08338L428.6944,407.56343L429.41449,407.56343L429.41449,408.28351
				L430.37462,408.28351L430.37462,408.76356L431.09471,408.76356L431.09471,409.24361L431.57477,409.24361L431.57477,409.96369
				L432.77492,409.96369L432.77492,410.44374L433.25498,410.44374L433.25498,411.16381L433.97507,411.16381L433.97507,411.64387
				L434.45513,411.64387L434.45513,412.12392L435.65529,412.12392L435.65529,412.84399L436.13535,412.84399L436.13535,413.32404
				L436.85544,413.32404L436.85544,413.8041L437.3355,413.8041L437.3355,414.52417L437.81556,414.52417L437.81556,415.00422L438.53565,415.00422
				L438.53565,415.7243L439.01571,415.7243L439.01571,416.20435L439.7358,416.20435L439.7358,416.6844L440.21587,416.6844L440.21587,417.40448
				L440.69593,417.40448L440.69593,417.88453L441.41602,417.88453L441.41602,418.36458L442.37614,418.36458L442.37614,419.08466
				L443.09623,419.08466L443.09623,419.56471L443.57629,419.56471L443.57629,420.28479L444.29638,420.28479L444.29638,420.76484
				L444.77644,420.76484L444.77644,421.24489L445.2565,421.24489L445.2565,421.96497L445.9766,421.96497L445.9766,422.44502L446.45666,422.44502
				L446.45666,422.92507L446.93672,422.92507L446.93672,423.64514L447.65681,423.64514L447.65681,424.1252L448.13687,424.1252L448.13687,424.84527
				L448.85696,424.84527L448.85696,425.32532L449.33702,425.32532L449.33702,425.80537L449.81708,425.80537L449.81708,426.52545
				L450.53717,426.52545L450.53717,427.0055L451.01724,427.0055L451.01724,427.48555L451.4973,427.48555L451.4973,428.68568L452.21739,428.68568
				L452.21739,429.40576L452.69745,429.40576L452.69745,429.88581L453.41754,429.88581L453.41754,430.36586L453.8976,430.36586L
				453.8976,431.08594L454.37766,431.08594L454.37766,431.56599L455.09775,431.56599L455.09775,432.04604L455.57781,432.04604L455.57781,432.76612
				L456.05788,432.76612L456.05788,433.96624L456.77797,433.96624L456.77797,434.4463L457.25803,434.4463L457.25803,434.92635L457.97812,434.92635
				L457.97812,435.64642L458.45818,435.64642L458.45818,436.12647L458.93824,436.12647L458.93824,436.60653L459.65833,436.60653
				L459.65833,437.3266L460.13839,437.3266L460.13839,437.80665L460.61845,437.80665L460.61845,438.52673L461.33855,438.52673L461.33855,439.48683
				L461.81861,439.48683L461.81861,440.20691L462.5387,440.20691L462.5387,440.68696L463.01876,440.68696L463.01876,441.16701L463.49882,441.16701
				L463.49882,441.88709L464.21891,441.88709L464.21891,442.36714L464.69897,442.36714L464.69897,443.08722L465.17903,443.08722
				L465.17903,443.56727L465.89912,443.56727L465.89912,444.7674L466.37919,444.7674L466.37919,445.24745L467.09928,445.24745L467.09928,445.7275
				L467.57934,445.7275L467.57934,446.44757L468.0594,446.44757L468.0594,446.92763L468.77949,446.92763L468.77949,447.6477L469.25955,447.6477
				L469.25955,448.12775L469.73961,448.12775L469.73961,448.6078L470.4597,448.6078L470.4597,449.32788L470.93976,449.32788L470.93976,450.28798
				L471.65986,450.28798L471.65986,451.00806L472.13992,451.00806L472.13992,451.48811L472.61998,451.48811L472.61998,452.20819
				L473.34007,452.20819L473.34007,452.68824L473.82013,452.68824L473.82013,453.16829L474.30019,453.16829L474.30019,452.68824
				L475.50034,452.68824L475.50034,452.20819L476.7005,452.20819L476.7005,451.48811L477.90065,451.48811L477.90065,451.00806L478.86077,451.00806
				L478.86077,450.28798L480.06092,450.28798L480.06092,449.80793L480.78101,449.80793L480.78101,449.32788L481.74113,449.32788
				L481.74113,448.6078L482.94129,448.6078L482.94129,448.12775L484.14144,448.12775L484.14144,447.6477L485.34159,447.6477L485.34159,446.92763
				L486.30171,446.92763L486.30171,446.44757L487.0218,446.44757L487.0218,445.7275L487.98193,445.7275L487.98193,445.24745L489.18208,445.24745
				L489.18208,444.7674L490.38223,444.7674L490.38223,444.04732L491.58238,444.04732L491.58238,443.56727L492.06244,443.56727L492.06244,443.08722
				L493.2626,443.08722L493.2626,442.36714L494.46275,442.36714L494.46275,441.88709L495.42287,441.88709L495.42287,441.16701L496.62302,441.16701
				L496.62302,440.68696L497.82318,440.68696L497.82318,440.20691L498.30324,440.20691L498.30324,439.48683L499.50339,439.48683
				L499.50339,439.00678L500.70354,439.00678L500.70354,438.52673L501.90369,438.52673L501.90369,437.80665L502.86382,437.80665
				L502.86382,437.3266L504.06397,437.3266L504.06397,436.60653L504.54403,436.60653L504.54403,436.12647L505.74418,436.12647L505.74418,435.64642
				L506.94433,435.64642L506.94433,434.92635L508.14449,434.92635L508.14449,434.4463L509.10461,434.4463L509.10461,433.96624L510.30476,433.96624
				L510.30476,433.24617L511.02485,433.24617L511.02485,432.76612L511.98497,432.76612L511.98497,432.04604L513.18513,432.04604
				L513.18513,431.56599L514.38528,431.56599L514.38528,431.08594L515.58543,431.08594L515.58543,430.36586L516.06549,430.36586
				L516.06549,429.88581L517.26564,429.88581L517.26564,429.40576L518.22576,429.40576L518.22576,428.68568L519.42592,428.68568
				L519.42592,428.20563L520.62607,428.20563L520.62607,427.48555L521.82622,427.48555L521.82622,427.0055L522.30628,427.0055L522.30628,426.52545
				L523.50643,426.52545L523.50643,425.80537L524.70659,425.80537L524.70659,425.32532L525.66671,425.32532L525.66671,424.84527
				L526.86686,424.84527L526.86686,424.1252L528.06701,424.1252L528.06701,423.64514L528.54707,423.64514L528.54707,422.92507L529.74723,422.92507
				L529.74723,422.44502L530.94738,422.44502L530.94738,421.96497L531.9075,421.96497L531.9075,421.24489L533.10765,421.24489L533.10765,420.76484
				L533.82774,420.76484L533.82774,420.28479L534.78787,420.28479L534.78787,419.56471L535.98802,419.56471L535.98802,419.08466
				L537.18817,419.08466L537.18817,418.36458L538.38832,418.36458L538.38832,417.88453L539.34845,417.88453L539.34845,417.40448
				L540.06854,417.40448L540.06854,416.6844L541.02866,416.6844L541.02866,416.20435L542.22881,416.20435L542.22881,415.7243L543.42896,415.7243
				L543.42896,415.00422L544.62912,415.00422L544.62912,414.52417L545.58924,414.52417L545.58924,413.8041L546.30933,413.8041L546.30933,413.32404
				L547.50948,413.32404L547.50948,412.84399L547.98954,412.84399L547.98954,413.8041L547.50948,413.8041L547.50948,414.52417L546.78939,414.52417
				L546.78939,415.7243L546.30933,415.7243L546.30933,416.6844L545.58924,416.6844L545.58924,417.40448L545.10918,417.40448L545.10918,417.88453
				L544.62912,417.88453L544.62912,419.08466L543.90902,419.08466L543.90902,419.56471L543.42896,419.56471L543.42896,420.76484
				L542.9489,420.76484L542.9489,421.96497L542.22881,421.96497L542.22881,422.44502L541.74875,422.44502L541.74875,423.64514L541.02866,423.64514
				L541.02866,425.80537L540.5486,425.80537L540.5486,427.0055L540.06854,427.0055L540.06854,428.20563L539.34845,428.20563L539.34845,428.68568
				L538.86838,428.68568L538.86838,429.40576L538.38832,429.40576L538.38832,429.88581L537.66823,429.88581L537.66823,430.36586
				L537.18817,430.36586L537.18817,431.08594L536.46808,431.08594L536.46808,431.56599L535.98802,431.56599L535.98802,432.76612
				L535.50796,432.76612L535.50796,433.96624L534.78787,433.96624L534.78787,434.4463L534.30781,434.4463L534.30781,434.92635L533.82774,434.92635
				L533.82774,436.12647L533.10765,436.12647L533.10765,436.60653L532.62759,436.60653L532.62759,437.3266L531.9075,437.3266L531.9075,437.80665
				L531.42744,437.80665L531.42744,439.00678L530.94738,439.00678L530.94738,439.48683L530.22729,439.48683L530.22729,440.20691
				L529.74723,440.20691L529.74723,440.68696L529.26717,440.68696L529.26717,441.16701L528.54707,441.16701L528.54707,442.36714
				L528.06701,442.36714L528.06701,443.08722L527.34692,443.08722L527.34692,444.04732L526.86686,444.04732L526.86686,444.7674L
				526.3868,444.7674L526.3868,445.24745L525.66671,445.24745L525.66671,445.7275L525.18665,445.7275L525.18665,446.44757L524.70659,446.44757
				L524.70659,446.92763L523.9865,446.92763L523.9865,448.12775L523.50643,448.12775L523.50643,448.6078L522.78634,448.6078L522.78634,449.32788
				L522.30628,449.32788L522.30628,449.80793L521.82622,449.80793L521.82622,450.28798L521.10613,450.28798L521.10613,451.48811
				L520.62607,451.48811L520.62607,452.20819L520.14601,452.20819L520.14601,452.68824L519.42592,452.68824L519.42592,453.16829
				L518.94586,453.16829L518.94586,454.36842L518.22576,454.36842L518.22576,454.84847L517.7457,454.84847L517.7457,456.0486L517.26564,456.0486
				L517.26564,456.76867L516.54555,456.76867L516.54555,457.72878L516.06549,457.72878L516.06549,458.9289L515.58543,458.9289L515.58543,459.40896
				L514.86534,459.40896L514.86534,460.12903L514.38528,460.12903L514.38528,461.32916L513.66519,461.32916L513.66519,461.80921
				L513.18513,461.80921L513.18513,463.00934L512.70506,463.00934L512.70506,463.48939L511.98497,463.48939L511.98497,464.68952
				L511.50491,464.68952L511.50491,465.16957L511.02485,465.16957L511.02485,466.3697L510.30476,466.3697L510.30476,466.84975L509.8247,466.84975
				L509.8247,468.04988L509.10461,468.04988L509.10461,468.76995L508.62455,468.76995L508.62455,469.25L508.14449,469.25L508.14449,470.45013
				L507.42439,470.45013L507.42439,476.6908L508.14449,476.6908L508.14449,479.5711L508.62455,479.5711L508.62455,482.45141L509.10461,482.45141
				L509.10461,485.09169L509.8247,485.09169L509.8247,487.972L510.30476,487.972L510.30476,488.69208L509.8247,488.69208L509.8247,492.53249
				L509.10461,492.53249L509.10461,493.73261L509.8247,493.73261L509.8247,494.21266L509.10461,494.21266L509.10461,494.93274L508.14449,494.93274
				L508.14449,495.41279L506.94433,495.41279L506.94433,496.13287L505.74418,496.13287L505.74418,496.61292L504.06397,496.61292
				L504.06397,497.09297L502.38375,497.09297L502.38375,497.81305L500.70354,497.81305L500.70354,498.2931L499.50339,498.2931L499.50339,498.77315
				L497.82318,498.77315L497.82318,499.49323L496.62302,499.49323L496.62302,499.97328L494.94281,499.97328L494.94281,500.69335
				L492.54251,500.69335L492.54251,501.17341L490.86229,501.17341L490.86229,501.65346L488.70202,501.65346L488.70202,501.17341
				L487.50187,501.17341L487.50187,501.65346L487.0218,501.65346L487.0218,502.37353L486.30171,502.37353L486.30171,502.85359L485.82165,502.85359
				L485.82165,503.33364L485.34159,503.33364L485.34159,504.05371L484.6215,504.05371L484.6215,504.53376L484.14144,504.53376L484.14144,505.25384
				L483.42135,505.25384L483.42135,505.73389L482.94129,505.73389L482.94129,506.21394L482.46123,506.21394L482.46123,506.93402
				L481.74113,506.93402L481.74113,507.41407L481.26107,507.41407L481.26107,507.89412L480.78101,507.89412L480.78101,508.6142L
				480.06092,508.6142L480.06092,509.09425L479.58086,509.09425L479.58086,509.81433L478.86077,509.81433L478.86077,510.29438L478.38071,510.29438
				L478.38071,510.77443L477.90065,510.77443L477.90065,511.49451L477.18056,511.49451L477.18056,511.97456L476.7005,511.97456L
				476.7005,513.17468L477.18056,513.17468L477.18056,513.65474L476.7005,513.65474"/>
			<path clip-path="url(#SVG_CP_2)" fill="none" stroke="#999999" stroke-width="0.96012" stroke-miterlimit="10" stroke-linecap="round" stroke-linejoin="round" d="
				M476.7005,513.65474L476.7005,514.37481L476.22043,514.37481L476.22043,514.85486L475.50034,514.85486L475.50034,515.33492L475.02028,515.33492
				L475.02028,516.05499L474.30019,516.05499L474.30019,516.53504L473.82013,516.53504L473.82013,517.01509L473.34007,517.01509
				L473.34007,517.73517L472.61998,517.73517L472.61998,518.21522L472.13992,518.21522L472.13992,518.9353L471.65986,518.9353L471.65986,519.41535
				L470.93976,519.41535L470.93976,519.8954L470.4597,519.8954L470.4597,520.61548L469.73961,520.61548L469.73961,521.09553L469.25955,521.09553
				L469.25955,521.57558L468.77949,521.57558L468.77949,522.29566L468.0594,522.29566L468.0594,522.77571L467.57934,522.77571L467.57934,523.49578
				L467.09928,523.49578L467.09928,523.97584L466.37919,523.97584L466.37919,524.45589L465.89912,524.45589L465.89912,525.17596
				L465.17903,525.17596L465.17903,525.65601L464.69897,525.65601L464.69897,526.37609L464.21891,526.37609L464.21891,526.85614
				L463.49882,526.85614L463.49882,527.33619L463.01876,527.33619L463.01876,528.05627L462.5387,528.05627L462.5387,528.53632L461.81861,528.53632
				L461.81861,529.01637L461.33855,529.01637L461.33855,529.73645L460.61845,529.73645L460.61845,530.2165L460.13839,530.2165L460.13839,530.93658
				L459.65833,530.93658L459.65833,531.41663L458.93824,531.41663L458.93824,531.89668L458.45818,531.89668L458.45818,532.61676
				L457.97812,532.61676L457.97812,533.09681L457.25803,533.09681L457.25803,534.29694L456.77797,534.29694L456.77797,535.97711
				L456.05788,535.97711L456.05788,537.17724L455.57781,537.17724L455.57781,538.85742L455.09775,538.85742L455.09775,540.5376L
				454.37766,540.5376L454.37766,542.21778L453.8976,542.21778L453.8976,543.41791L453.41754,543.41791L453.41754,545.09809L452.69745,545.09809
				L452.69745,546.29821L452.21739,546.29821L452.21739,547.97839L451.4973,547.97839L451.4973,548.45844L451.01724,548.45844L451.01724,549.17852
				L450.53717,549.17852L450.53717,549.65857L449.81708,549.65857L449.81708,550.13862L449.33702,550.13862L449.33702,551.33875
				L448.85696,551.33875L448.85696,551.8188L448.13687,551.8188L448.13687,552.53888L447.65681,552.53888L447.65681,553.73901L446.93672,553.73901
				L446.93672,554.21906L446.45666,554.21906L446.45666,554.69911L445.9766,554.69911L445.9766,555.41919L445.2565,555.41919L445.2565,556.37929
				L444.77644,556.37929L444.77644,557.09937L444.29638,557.09937L444.29638,557.57942L443.57629,557.57942L443.57629,558.77954
				L443.09623,558.77954L443.09623,559.2596L442.37614,559.2596L442.37614,559.97967L441.89608,559.97967L441.89608,560.45972L441.41602,560.45972
				L441.41602,560.93977L440.69593,560.93977L440.69593,562.1399L440.21587,562.1399L440.21587,562.85998L439.7358,562.85998L439.7358,563.34003
				L439.01571,563.34003L439.01571,563.82008L438.53565,563.82008L438.53565,565.02021L437.81556,565.02021L437.81556,565.50026
				L437.3355,565.50026L437.3355,566.22034L436.85544,566.22034L436.85544,566.70039L436.13535,566.70039L436.13535,567.42047L435.65529,567.42047
				L435.65529,567.90052L435.17523,567.90052L435.17523,569.10064L434.45513,569.10064L434.45513,569.5807L433.97507,569.5807L433.97507,570.06075
				L433.25498,570.06075L433.25498,570.78082L432.77492,570.78082L432.77492,571.98095L432.29486,571.98095L432.29486,572.461L431.57477,572.461
				L431.57477,572.94105L431.09471,572.94105L431.09471,573.66113L430.37462,573.66113L430.37462,574.14118L429.89456,574.14118
				L429.89456,574.62123L429.41449,574.62123L429.41449,575.34131L428.6944,575.34131L428.6944,575.82136L428.21434,575.82136L428.21434,576.54144
				L427.73428,576.54144L427.73428,577.50154L427.01419,577.50154L427.01419,578.22162L426.53413,578.22162L426.53413,578.70167
				L425.81404,578.70167L425.81404,579.18172L425.33398,579.18172L425.33398,579.9018L424.85392,579.9018L424.85392,580.38185L424.13382,580.38185
				L424.13382,581.10192L423.65376,581.10192L423.65376,581.58197L423.1737,581.58197L423.1737,582.06203L422.45361,582.06203L422.45361,582.7821
				L421.97355,582.7821L421.97355,583.26215L421.25346,583.26215L421.25346,583.7422L420.7734,583.7422L420.7734,584.46228L420.29334,584.46228
				L420.29334,584.94233L419.57325,584.94233L419.57325,585.66241L419.09318,585.66241L419.09318,586.14246L418.61312,586.14246
				L418.61312,586.62251L417.89303,586.62251L417.89303,587.34259L417.41297,587.34259L417.41297,587.82264L416.69288,587.82264
				L416.69288,588.54272L416.21282,588.54272L416.21282,589.02277L415.73276,589.02277L415.73276,589.50282L415.01267,589.50282
				L415.01267,590.2229L414.53261,590.2229L414.53261,590.70295L414.05254,590.70295L414.05254,591.183L413.33245,591.183L413.33245,591.90307
				L412.85239,591.90307L412.85239,592.38313L412.1323,592.38313L412.1323,593.1032L411.65224,593.1032L411.65224,593.58325L411.17218,593.58325
				L411.17218,594.0633L410.45209,594.0633L410.45209,594.78338L409.97203,594.78338L409.97203,595.26343L409.49197,595.26343L409.49197,595.74348
				L408.77187,595.74348L408.77187,596.46356L408.29181,596.46356L408.29181,596.94361L407.57172,596.94361L407.57172,597.66369
				L407.09166,597.66369L407.09166,598.14374L406.6116,598.14374L406.6116,598.62379L405.89151,598.62379L405.89151,599.34387L405.41145,599.34387
				L405.41145,599.82392L404.93139,599.82392L404.93139,600.30397L404.2113,600.30397L404.2113,601.02405L403.73124,601.02405L403.73124,601.5041
				L403.01114,601.5041L403.01114,602.22417L402.53108,602.22417L402.53108,602.70423L402.05102,602.70423L402.05102,603.18428L
				401.33093,603.18428L401.33093,603.90435L400.85087,603.90435L400.85087,604.3844L400.37081,604.3844L400.37081,604.86446L399.65072,604.86446
				L399.65072,605.58453L399.17066,605.58453L399.17066,606.06458L398.45057,606.06458L398.45057,606.78466L397.9705,606.78466L
				397.9705,607.26471L397.49044,607.26471L397.49044,607.74476L396.77035,607.74476L396.77035,608.46484L396.29029,608.46484L396.29029,608.94489
				L395.81023,608.94489L395.81023,609.42494L395.09014,609.42494L395.09014,610.14502L394.61008,610.14502L394.61008,610.62507
				L393.88999,610.62507L393.88999,611.34515L393.40993,611.34515L393.40993,611.8252L392.92986,611.8252L392.92986,612.30525L392.20977,612.30525
				L392.20977,613.02533L391.72971,613.02533L391.72971,613.50538L391.24965,613.50538L391.24965,614.7055L390.52956,614.7055L390.52956,615.18556
				L390.0495,615.18556L390.0495,615.90563L389.32941,615.90563L389.32941,616.86573L388.84935,616.86573L388.84935,617.58581L388.36929,617.58581
				L388.36929,618.06586L387.64919,618.06586L387.64919,618.54591L387.16913,618.54591L387.16913,619.26599L386.68907,619.26599
				L386.68907,619.74604L385.96898,619.74604L385.96898,620.46612L385.48892,620.46612L385.48892,620.94617L384.76883,620.94617
				L384.76883,621.42622L384.28877,621.42622L384.28877,622.1463L383.80871,622.1463L383.80871,622.62635L383.08862,622.62635L383.08862,623.1064
				L382.60855,623.1064L382.60855,623.82648L382.12849,623.82648L382.12849,624.30653L381.4084,624.30653L381.4084,625.0266L380.92834,625.0266
				L380.92834,625.50666L380.20825,625.50666L380.20825,625.98671L379.72819,625.98671L379.72819,626.70678L379.24813,626.70678
				L379.24813,627.18683L378.52804,627.18683L378.52804,627.66689L378.04798,627.66689L378.04798,628.38696L377.56791,628.38696
				L377.56791,628.86701L376.84782,628.86701L376.84782,629.58709L376.36776,629.58709L376.36776,630.06714L375.64767,630.06714
				L375.64767,630.54719L375.16761,630.54719L375.16761,631.26727L374.68755,631.26727L374.68755,631.74732L373.96746,631.74732
				L373.96746,632.22737L373.4874,632.22737L373.4874,632.94745L373.00734,632.94745L373.00734,633.4275L372.28724,633.4275L372.28724,634.14758
				L371.80718,634.14758L371.80718,634.62763L371.08709,634.62763L371.08709,635.10768L370.60703,635.10768L370.60703,635.82775
				L370.12697,635.82775L370.12697,636.30781L369.40688,636.30781L369.40688,636.78786L368.92682,636.78786L368.92682,637.50793
				L368.20673,637.50793L368.20673,637.98799L367.72667,637.98799L367.72667,638.70806L367.24661,638.70806L367.24661,639.18811
				L366.52651,639.18811L366.52651,639.66816L366.04645,639.66816L366.04645,640.38824L365.56639,640.38824L365.56639,640.86829
				L364.8463,640.86829L364.8463,641.34834L364.36624,641.34834L364.36624,642.06842L363.64615,642.06842L363.64615,642.54847L363.16609,642.54847
				L363.16609,643.26855L362.68603,643.26855L362.68603,643.7486L361.96594,643.7486L361.96594,644.22865L361.48587,644.22865L361.48587,644.94873
				L361.00581,644.94873L361.00581,645.42878L360.28572,645.42878L360.28572,645.90883L359.80566,645.90883L359.80566,646.62891
				L359.08557,646.62891L359.08557,647.10896L358.60551,647.10896L358.60551,647.82903L358.12545,647.82903L358.12545,648.30908
				L357.40536,648.30908L357.40536,648.78914L356.9253,648.78914L356.9253,649.50921L356.44523,649.50921L356.44523,649.98926L355.72514,649.98926
				L355.72514,650.46932L355.24508,650.46932L355.24508,651.18939L354.52499,651.18939L354.52499,651.66944L354.04493,651.66944
				L354.04493,652.38952L353.56487,652.38952L353.56487,652.86957L352.84478,652.86957L352.84478,653.34962L352.36472,653.34962
				L352.36472,654.0697L351.88466,654.0697L351.88466,654.54975L351.16456,654.54975L351.16456,655.26983L350.6845,655.26983L350.6845,655.74988
				L349.96441,655.74988L349.96441,656.22993L349.48435,656.22993L349.48435,656.95001L349.00429,656.95001L349.00429,657.43006
				L348.2842,657.43006L348.2842,657.91011L347.80414,657.91011L347.80414,658.63018L347.32408,658.63018L347.32408,659.11024L346.60399,659.11024
				L346.60399,659.83031L346.12392,659.83031L346.12392,660.31036L345.40383,660.31036L345.40383,660.79041L344.92377,660.79041
				L344.92377,661.51049L344.44371,661.51049L344.44371,661.99054L343.72362,661.99054L343.72362,662.47059L343.24356,662.47059
				L343.24356,663.19067L342.7635,663.19067L342.7635,663.67072L342.04341,663.67072L342.04341,664.3908L341.56335,664.3908L341.56335,664.87085
				L340.84325,664.87085L340.84325,665.3509L340.36319,665.3509L340.36319,666.07098L339.88313,666.07098L339.88313,666.55103L339.16304,666.55103
				L339.16304,667.03108L338.68298,667.03108L338.68298,667.75116L338.20292,667.75116L338.20292,668.95128L337.48283,668.95128
				L337.48283,669.91139L337.00277,669.91139L337.00277,670.63146L336.28268,670.63146L336.28268,671.59157L335.80261,671.59157
				L335.80261,672.79169L335.32255,672.79169L335.32255,673.99182L334.60246,673.99182L334.60246,674.47187L334.1224,674.47187L
				334.1224,675.19195L332.92225,675.19195L332.92225,673.51177L332.44219,673.51177L332.44219,672.31164L331.7221,672.31164L331.7221,671.11151
				L331.24204,671.11151L331.24204,669.91139L330.76198,669.91139L330.76198,668.95128L330.04188,668.95128L330.04188,667.75116
				L329.56182,667.75116L329.56182,666.55103L329.08176,666.55103L329.08176,665.3509L328.36167,665.3509L328.36167,663.67072L327.88161,663.67072
				L327.88161,662.47059L327.16152,662.47059L327.16152,661.51049L326.68146,661.51049L326.68146,660.31036L326.2014,660.31036L
				326.2014,659.11024L325.48131,659.11024L325.48131,657.91011L325.00124,657.91011L325.00124,656.95001L324.52118,656.95001L324.52118,655.74988
				L323.80109,655.74988L323.80109,654.54975L323.32103,654.54975L323.32103,652.86957L322.60094,652.86957L322.60094,651.66944
				L322.12088,651.66944L322.12088,650.46932L321.64082,650.46932L321.64082,649.50921L320.92073,649.50921L320.92073,648.30908
				L320.44067,648.30908L320.44067,647.10896L319.9606,647.10896L319.9606,645.90883L319.24051,645.90883L319.24051,644.94873L318.76045,644.94873
				L318.76045,643.7486L318.04036,643.7486L318.04036,642.06842L317.5603,642.06842L317.5603,640.86829L317.08024,640.86829L317.08024,639.66816
				L316.36015,639.66816L316.36015,638.70806L315.88009,638.70806L315.88009,637.50793L315.40003,637.50793L315.40003,636.30781
				L314.67993,636.30781L314.67993,635.10768L314.19987,635.10768L314.19987,634.14758L313.47978,634.14758L313.47978,632.94745
				L312.99972,632.94745L312.99972,631.26727L312.51966,631.26727L312.51966,630.06714L311.79957,630.06714L311.79957,628.86701
				L311.31951,628.86701L311.31951,627.66689L310.83945,627.66689L310.83945,626.70678L310.11936,626.70678L310.11936,625.50666
				L309.63929,625.50666L309.63929,624.30653L308.9192,624.30653L308.9192,623.1064L308.43914,623.1064L308.43914,621.42622L307.95908,621.42622
				L307.95908,620.46612L307.23899,620.46612L307.23899,619.26599L306.75893,619.26599L306.75893,618.06586L306.03884,618.06586
				L306.03884,616.86573L305.55878,616.86573L305.55878,615.90563L305.07872,615.90563L305.07872,614.7055L304.35862,614.7055L304.35862,613.50538
				L303.87856,613.50538L303.87856,611.8252L303.3985,611.8252L303.3985,610.62507L302.67841,610.62507L302.67841,609.42494L302.19835,609.42494
				L302.19835,608.46484L301.47826,608.46484L301.47826,607.26471L300.9982,607.26471L300.9982,605.58453L300.51814,605.58453L300.51814,604.3844
				L299.79805,604.3844L299.79805,603.18428L299.31798,603.18428L299.31798,602.22417L298.83792,602.22417L298.83792,601.02405L
				298.11783,601.02405L298.11783,599.34387L297.63777,599.34387L297.63777,598.14374L296.91768,598.14374L296.91768,596.94361L
				296.43762,596.94361L296.43762,595.74348L295.95756,595.74348L295.95756,594.78338L295.23747,594.78338L295.23747,593.1032L294.75741,593.1032
				L294.75741,591.90307L294.27735,591.90307L294.27735,590.70295L293.55725,590.70295L293.55725,589.50282L293.07719,589.50282
				L293.07719,588.54272L292.3571,588.54272L292.3571,586.62251L291.87704,586.62251L291.87704,585.66241L291.39698,585.66241L291.39698,584.46228
				L290.67689,584.46228L290.67689,583.26215L290.19683,583.26215L290.19683,582.06203L289.71677,582.06203L289.71677,580.38185
				L288.99668,580.38185L288.99668,579.18172L288.51661,579.18172L288.51661,578.22162L287.79652,578.22162L287.79652,577.02149
				L287.31646,577.02149L287.31646,575.82136L286.8364,575.82136L286.8364,574.14118L286.11631,574.14118L286.11631,572.94105L285.63625,572.94105
				L285.63625,571.98095L285.15619,571.98095L285.15619,570.78082L284.4361,570.78082L284.4361,569.5807L283.95604,569.5807L283.95604,567.90052
				L283.23594,567.90052L283.23594,566.70039L282.75588,566.70039L282.75588,565.50026L282.27582,565.50026L282.27582,564.54016
				L281.55573,564.54016L281.55573,563.34003L281.07567,563.34003L281.07567,561.65985L280.59561,561.65985L280.59561,560.45972
				L279.87552,560.45972L279.87552,559.2596L279.39546,559.2596L279.39546,558.29949L278.67537,558.29949L278.67537,557.09937L278.1953,557.09937
				L278.1953,555.41919L277.71524,555.41919L277.71524,554.21906L276.99515,554.21906L276.99515,553.01893L276.51509,553.01893L
				276.51509,551.8188L276.03503,551.8188L276.03503,550.8587L275.31494,550.8587L275.31494,549.17852L274.83488,549.17852L274.83488,547.97839
				L274.11479,547.97839L274.11479,546.77827L273.63473,546.77827L273.63473,545.57814L273.15466,545.57814L273.15466,543.89796
				L272.43457,543.89796L272.43457,542.69783L271.95451,542.69783L271.95451,541.73773L271.47445,541.73773L271.47445,540.5376L
				270.75436,540.5376L270.75436,539.33747L270.2743,539.33747L270.2743,538.13734L269.55421,538.13734L269.55421,536.45717L269.07415,536.45717
				L269.07415,535.49706L268.59409,535.49706L268.59409,534.29694L267.87399,534.29694L267.87399,533.09681L267.39393,533.09681
				L267.39393,531.89668L266.91387,531.89668L266.91387,530.93658L266.19378,530.93658L266.19378,529.73645L265.71372,529.73645
				L265.71372,528.53632L264.99363,528.53632L264.99363,526.85614L264.51357,526.85614L264.51357,525.65601L264.03351,525.65601
				L264.03351,524.45589L263.31342,524.45589L263.31342,523.49578L262.83335,523.49578L262.83335,522.29566L262.35329,522.29566
				L262.35329,521.09553L261.6332,521.09553L261.6332,519.8954L261.15314,519.8954L261.15314,518.21522L260.43305,518.21522L260.43305,517.01509
				L259.95299,517.01509L259.95299,516.05499L259.47293,516.05499L259.47293,514.85486L258.75284,514.85486L258.75284,513.65474
				L258.27278,513.65474L258.27278,512.45461L257.79272,512.45461L257.79272,511.49451L257.07262,511.49451L257.07262,509.81433
				L256.59256,509.81433L256.59256,508.6142L255.87247,508.6142L255.87247,507.41407L255.39241,507.41407L255.39241,506.21394L254.91235,506.21394
				L254.91235,505.25384L254.19226,505.25384L254.19226,504.05371L253.7122,504.05371L253.7122,502.85359L253.23214,502.85359L253.23214,501.65346
				L252.51205,501.65346L252.51205,499.97328L252.03198,499.97328L252.03198,498.77315L251.31189,498.77315L251.31189,497.81305
				L250.83183,497.81305L250.83183,496.61292L250.35177,496.61292L250.35177,495.41279"/>
			<path clip-path="url(#SVG_CP_2)" fill="none" stroke="#999999" stroke-width="0.96012" stroke-miterlimit="10" stroke-linecap="round" stroke-linejoin="round" d="
				M468.0594,514.37481L468.0594,513.65474L469.73961,513.65474L469.73961,513.17468L471.65986,513.17468L471.65986,512.45461L473.34007,512.45461
				L473.34007,510.77443L473.82013,510.77443L473.82013,510.29438L474.30019,510.29438L474.30019,509.81433L475.02028,509.81433
				L475.02028,509.09425L475.50034,509.09425L475.50034,508.6142L476.22043,508.6142L476.22043,507.89412L476.7005,507.89412L476.7005,507.41407
				L477.18056,507.41407L477.18056,506.93402L477.90065,506.93402L477.90065,506.21394L478.38071,506.21394L478.38071,505.73389
				L478.86077,505.73389L478.86077,505.25384L479.58086,505.25384L479.58086,504.53376L480.06092,504.53376L480.06092,504.05371
				L480.78101,504.05371L480.78101,503.33364L481.26107,503.33364L481.26107,502.85359L481.74113,502.85359L481.74113,502.37353
				L482.46123,502.37353L482.46123,501.65346L482.94129,501.65346L482.94129,501.17341L483.42135,501.17341L483.42135,500.69335
				L484.14144,500.69335L484.14144,499.97328L484.6215,499.97328L484.6215,499.49323L485.34159,499.49323L485.34159,498.77315L484.14144,498.77315
				L484.14144,498.2931L483.42135,498.2931L483.42135,497.81305L481.74113,497.81305L481.74113,498.2931L481.26107,498.2931L481.26107,498.77315
				L480.78101,498.77315L480.78101,499.49323L480.06092,499.49323L480.06092,499.97328L479.58086,499.97328L479.58086,500.69335
				L478.86077,500.69335L478.86077,501.17341L478.38071,501.17341L478.38071,501.65346L477.90065,501.65346L477.90065,502.37353
				L477.18056,502.37353L477.18056,502.85359L476.7005,502.85359L476.7005,503.33364L476.22043,503.33364L476.22043,504.05371L475.50034,504.05371
				L475.50034,504.53376L475.02028,504.53376L475.02028,505.25384L474.30019,505.25384L474.30019,505.73389L473.82013,505.73389
				L473.82013,506.21394L473.34007,506.21394L473.34007,506.93402L472.61998,506.93402L472.61998,507.41407L472.13992,507.41407
				L472.13992,507.89412L471.65986,507.89412L471.65986,508.6142L470.93976,508.6142L470.93976,509.09425L470.4597,509.09425L470.4597,509.81433
				L469.73961,509.81433L469.73961,510.29438L469.25955,510.29438L469.25955,510.77443L468.77949,510.77443L468.77949,511.49451
				L468.0594,511.49451L468.0594,511.97456L467.57934,511.97456L467.57934,512.45461L467.09928,512.45461L467.09928,513.17468L466.37919,513.17468
				L466.37919,514.37481L468.0594,514.37481"/>
		</g>
</g></svg>