<?xml version="1.0" encoding="utf-8" standalone="no"?>
<!-- Creator: ESRI ArcMap 10.0.0.2414 -->
<!DOCTYPE svg PUBLIC "-//W3C//DTD SVG 1.1//EN"  "http://www.w3.org/Graphics/SVG/1.1/DTD/svg11.dtd">
<svg width="595.50236pt" height="595.50236pt" viewBox="25 148.377955 545.50236 545.50236" enable-background="new 25 148.377955 545.50236 545.50236"
	version="1.1" xmlns="http://www.w3.org/2000/svg" xmlns:xlink="http://www.w3.org/1999/xlink" >
	<g id="Couches">
		<g id="cont_2">
			<path clip-path="url(#SVG_CP_2)" fill="none" stroke="#999999" stroke-width="0.96012" stroke-miterlimit="10" stroke-linecap="round" stroke-linejoin="round" d="
				M379.0081,481.01126L379.0081,479.09105L377.08785,479.09105L377.08785,476.93082L375.16761,476.93082L375.16761,475.01062L373.24737,475.01062
				L373.24737,473.09041L371.32712,473.09041L371.32712,471.17021L369.40688,471.17021L369.40688,469.25L367.48664,469.25L367.48664,467.3298
				L365.56639,467.3298L365.56639,465.40959L363.64615,465.40959L363.64615,463.48939L361.7259,463.48939L361.7259,461.56919L359.80566,461.56919
				L359.80566,459.64898L357.88542,459.64898L357.88542,457.72878L355.96517,457.72878L355.96517,455.80857L354.04493,455.80857
				L354.04493,453.88837L352.12469,453.88837L352.12469,451.96816L350.20444,451.96816L350.20444,450.04796L348.2842,450.04796L
				348.2842,448.12775L346.36396,448.12775L346.36396,446.20755L344.44371,446.20755L344.44371,444.28734L342.52347,444.28734L342.52347,442.36714
				L340.60322,442.36714L340.60322,440.44693L338.68298,440.44693L338.68298,438.52673L336.76274,438.52673L336.76274,436.60653
				L334.84249,436.60653L334.84249,434.68632L332.92225,434.68632L332.92225,432.76612L331.00201,432.76612L331.00201,430.84591
				L329.08176,430.84591L329.08176,428.92571L327.16152,428.92571L327.16152,427.0055L325.24127,427.0055L325.24127,425.0853L323.32103,425.0853
				L323.32103,423.16509L321.40079,423.16509L321.40079,421.24489L319.48054,421.24489L319.48054,419.32468L317.5603,419.32468L
				317.5603,417.40448L315.64006,417.40448L315.64006,415.48427L313.71981,415.48427L313.71981,413.56407L311.79957,413.56407L311.79957,411.64387
				L309.87933,411.64387L309.87933,409.72366L307.95908,409.72366L307.95908,407.80346L306.03884,407.80346L306.03884,405.88325
				L304.11859,405.88325L304.11859,403.96305L302.19835,403.96305L302.19835,402.04284L300.27811,402.04284L300.27811,400.12264
				L298.35786,400.12264L298.35786,398.20243L296.43762,398.20243L296.43762,396.28223L294.51738,396.28223L294.51738,394.36202
				L292.59713,394.36202L292.59713,392.44182L290.43686,392.44182L290.43686,390.52161L288.51661,390.52161L288.51661,388.60141
				L286.59637,388.60141L286.59637,386.68121L284.67613,386.68121L284.67613,384.761L282.75588,384.761L282.75588,382.8408L280.83564,382.8408
				L280.83564,380.92059L278.9154,380.92059L278.9154,379.00039L276.99515,379.00039L276.99515,377.08018L275.07491,377.08018L275.07491,375.15998
				L273.15466,375.15998L273.15466,373.23977L271.23442,373.23977L271.23442,371.31957L269.31418,371.31957L269.31418,369.39936
				L267.39393,369.39936L267.39393,367.47916L265.47369,367.47916L265.47369,365.55895L263.55345,365.55895L263.55345,363.63875
				L250.11174,363.63875L250.11174,361.71855L244.35101,361.71855L244.35101,359.79834L240.51052,359.79834L240.51052,357.87814
				L236.67003,357.87814L236.67003,355.95793L232.82955,355.95793L232.82955,354.03773L230.9093,354.03773L230.9093,352.11752L227.06882,352.11752
				L227.06882,350.19732L223.22833,350.19732L223.22833,348.27711L219.38784,348.27711L219.38784,346.35691L217.4676,346.35691L
				217.4676,344.4367L215.54735,344.4367L215.54735,342.5165L217.4676,342.5165L217.4676,338.67609L219.38784,338.67609L219.38784,334.83568
				L221.30809,334.83568L221.30809,330.99527L223.22833,330.99527L223.22833,327.15486L225.14857,327.15486L225.14857,323.31445
				L227.06882,323.31445L227.06882,319.47404L228.98906,319.47404L228.98906,317.55384L230.9093,317.55384L230.9093,315.63363L232.82955,315.63363
				L232.82955,311.79323L234.74979,311.79323L234.74979,309.87302L236.67003,309.87302L236.67003,307.95282L238.59028,307.95282
				L238.59028,304.11241L240.51052,304.11241L240.51052,302.1922L242.43077,302.1922L242.43077,300.272L244.35101,300.272L244.35101,296.43159
				L246.27125,296.43159L246.27125,294.51138L248.1915,294.51138L248.1915,292.59118L250.11174,292.59118L250.11174,288.75077L252.03198,288.75077
				L252.03198,282.99016L253.95223,282.99016L253.95223,244.58606L255.87247,244.58606L255.87247,205.94195L257.79272,205.94195
				L257.79272,167.53785L259.71296,167.53785L259.71296,138.73478L252.03198,138.73478L252.03198,136.81458L250.11174,136.81458
				L250.11174,134.89437L246.27125,134.89437L246.27125,136.81458L240.51052,136.81458L240.51052,138.73478L242.43077,138.73478
				L242.43077,152.17622L240.51052,152.17622L240.51052,159.85704L238.59028,159.85704L238.59028,169.45806L236.67003,169.45806
				L236.67003,177.13888L234.74979,177.13888L234.74979,186.7399L232.82955,186.7399L232.82955,194.42072L230.9093,194.42072L230.9093,204.02174
				L228.98906,204.02174L228.98906,211.70256L227.06882,211.70256L227.06882,221.30358L225.14857,221.30358L225.14857,228.9844L
				223.22833,228.9844L223.22833,236.90525L221.30809,236.90525L221.30809,244.58606L219.38784,244.58606L219.38784,254.18709L217.4676,254.18709
				L217.4676,261.86791L215.54735,261.86791L215.54735,269.54872L213.62711,269.54872L213.62711,275.30934L211.70687,275.30934L
				211.70687,279.14975L209.78662,279.14975L209.78662,282.99016L207.86638,282.99016L207.86638,284.91036L205.94614,284.91036L
				205.94614,288.75077L204.02589,288.75077L204.02589,290.67097L202.10565,290.67097L202.10565,294.51138L200.1854,294.51138L200.1854,298.35179
				L198.26516,298.35179L198.26516,300.272L196.34492,300.272L196.34492,304.11241L194.42467,304.11241L194.42467,307.95282L192.50443,307.95282
				L192.50443,309.87302L190.58419,309.87302L190.58419,313.71343L188.66394,313.71343L188.66394,315.63363L186.7437,315.63363L
				186.7437,317.55384L180.98297,317.55384L180.98297,321.39425L182.90321,321.39425L182.90321,329.07507L184.82346,329.07507L184.82346,338.67609
				L186.7437,338.67609L186.7437,344.4367L215.54735,344.4367L215.54735,346.35691L217.4676,346.35691L217.4676,348.27711L219.38784,348.27711
				L219.38784,350.19732L221.30809,350.19732L221.30809,352.11752L223.22833,352.11752L223.22833,354.03773L225.14857,354.03773
				L225.14857,355.95793L227.06882,355.95793L227.06882,357.87814L228.98906,357.87814L228.98906,359.79834L230.9093,359.79834L
				230.9093,361.71855L232.82955,361.71855L232.82955,363.63875L234.74979,363.63875L234.74979,365.55895L236.67003,365.55895L236.67003,367.47916
				L265.47369,367.47916L265.47369,369.39936L267.39393,369.39936L267.39393,371.31957L269.31418,371.31957L269.31418,373.23977
				L271.23442,373.23977L271.23442,375.15998L273.15466,375.15998L273.15466,377.08018L275.07491,377.08018L275.07491,379.00039
				L276.99515,379.00039L276.99515,380.92059L278.9154,380.92059L278.9154,382.8408L280.83564,382.8408L280.83564,384.761L282.75588,384.761
				L282.75588,386.68121L284.67613,386.68121L284.67613,388.60141L286.59637,388.60141L286.59637,390.52161L288.51661,390.52161
				L288.51661,392.44182L290.43686,392.44182L290.43686,394.36202L292.59713,394.36202L292.59713,396.28223L294.51738,396.28223
				L294.51738,398.20243L296.43762,398.20243L296.43762,400.12264L298.35786,400.12264L298.35786,402.04284L300.27811,402.04284
				L300.27811,403.96305L302.19835,403.96305L302.19835,405.88325L304.11859,405.88325L304.11859,407.80346L306.03884,407.80346
				L306.03884,409.72366L307.95908,409.72366L307.95908,411.64387L309.87933,411.64387L309.87933,413.56407L311.79957,413.56407
				L311.79957,415.48427L313.71981,415.48427L313.71981,417.40448L315.64006,417.40448L315.64006,419.32468L317.5603,419.32468L
				317.5603,421.24489L319.48054,421.24489L319.48054,423.16509L321.40079,423.16509L321.40079,425.0853L323.32103,425.0853L323.32103,427.0055
				L325.24127,427.0055L325.24127,428.92571L327.16152,428.92571L327.16152,430.84591L329.08176,430.84591L329.08176,432.76612L
				331.00201,432.76612L331.00201,434.68632L332.92225,434.68632L332.92225,436.60653L334.84249,436.60653L334.84249,438.52673L
				336.76274,438.52673L336.76274,440.44693L338.68298,440.44693L338.68298,442.36714L340.60322,442.36714L340.60322,444.28734L
				342.52347,444.28734L342.52347,446.20755L344.44371,446.20755L344.44371,448.12775L346.36396,448.12775L346.36396,450.04796L
				348.2842,450.04796L348.2842,451.96816L350.20444,451.96816L350.20444,453.88837L352.12469,453.88837L352.12469,455.80857L354.04493,455.80857
				L354.04493,457.72878L355.96517,457.72878L355.96517,459.64898L357.88542,459.64898L357.88542,461.56919L359.80566,461.56919
				L359.80566,463.48939L361.7259,463.48939L361.7259,465.40959L363.64615,465.40959L363.64615,467.3298L365.56639,467.3298L365.56639,469.25
				L367.48664,469.25L367.48664,471.17021L369.40688,471.17021L369.40688,473.09041L371.32712,473.09041L371.32712,475.01062L373.24737,475.01062
				L373.24737,476.93082L375.16761,476.93082L375.16761,479.09105L377.08785,479.09105L377.08785,481.01126L379.0081,481.01126L
				379.0081,484.85167L377.08785,484.85167L377.08785,486.77187L375.16761,486.77187L375.16761,490.61228L373.24737,490.61228L373.24737,492.53249
				L371.32712,492.53249L371.32712,494.45269L369.40688,494.45269L369.40688,496.37289L367.48664,496.37289L367.48664,500.2133L
				365.56639,500.2133L365.56639,502.13351L363.64615,502.13351L363.64615,504.05371L361.7259,504.05371L361.7259,505.97392L359.80566,505.97392
				L359.80566,509.81433L357.88542,509.81433L357.88542,511.73453L355.96517,511.73453L355.96517,513.65474L354.04493,513.65474
				L354.04493,515.57494L352.12469,515.57494L352.12469,517.49515L350.20444,517.49515L350.20444,521.33555L348.2842,521.33555L
				348.2842,523.25576L346.36396,523.25576L346.36396,525.17596L344.44371,525.17596L344.44371,527.09617L342.52347,527.09617L342.52347,529.01637
				L340.60322,529.01637L340.60322,532.85678L338.68298,532.85678L338.68298,534.77699L336.76274,534.77699L336.76274,536.69719
				L334.84249,536.69719L334.84249,538.6174L332.92225,538.6174L332.92225,540.5376L331.00201,540.5376L331.00201,544.37801L329.08176,544.37801
				L329.08176,546.29821L327.16152,546.29821L327.16152,548.21842L325.24127,548.21842L325.24127,550.13862L323.32103,550.13862
				L323.32103,552.05883L321.40079,552.05883L321.40079,553.97903L319.48054,553.97903L319.48054,557.81944L317.5603,557.81944L
				317.5603,559.73965L315.64006,559.73965L315.64006,561.65985L313.71981,561.65985L313.71981,563.58006L311.79957,563.58006L311.79957,565.50026
				L309.87933,565.50026L309.87933,569.34067L307.95908,569.34067L307.95908,571.26087L306.03884,571.26087L306.03884,573.18108
				L304.11859,573.18108L304.11859,575.10128L302.19835,575.10128L302.19835,577.02149L300.27811,577.02149L300.27811,578.94169
				L298.35786,578.94169L298.35786,582.7821L296.43762,582.7821L296.43762,584.70231L294.51738,584.70231L294.51738,586.62251L292.59713,586.62251
				L292.59713,588.54272L290.43686,588.54272L290.43686,590.46292L288.51661,590.46292L288.51661,592.38313L286.59637,592.38313
				L286.59637,596.22353L284.67613,596.22353L284.67613,598.14374L282.75588,598.14374L282.75588,600.06394L280.83564,600.06394
				L280.83564,601.98415L278.9154,601.98415L278.9154,603.90435L276.99515,603.90435L276.99515,607.74476L275.07491,607.74476L275.07491,609.66497
				L273.15466,609.66497L273.15466,611.58517L271.23442,611.58517L271.23442,613.50538L269.31418,613.50538L269.31418,615.42558
				L267.39393,615.42558L267.39393,619.26599L265.47369,619.26599L265.47369,621.18619L263.55345,621.18619L263.55345,623.1064L
				261.6332,623.1064L261.6332,625.0266L259.71296,625.0266L259.71296,626.94681L257.79272,626.94681L257.79272,630.78722L255.87247,630.78722
				L255.87247,632.70742L253.95223,632.70742L253.95223,634.62763L252.03198,634.62763L252.03198,636.54783L250.11174,636.54783
				L250.11174,638.46804L248.1915,638.46804L248.1915,640.38824L246.27125,640.38824L246.27125,644.22865L244.35101,644.22865L244.35101,646.14885
				L242.43077,646.14885L242.43077,648.06906L240.51052,648.06906L240.51052,649.98926L238.59028,649.98926L238.59028,651.90947
				L236.67003,651.90947L236.67003,655.74988L234.74979,655.74988L234.74979,657.67008L232.82955,657.67008L232.82955,659.59029
				L230.9093,659.59029L230.9093,661.51049L228.98906,661.51049L228.98906,663.4307L227.06882,663.4307L227.06882,667.27111L225.14857,667.27111
				L225.14857,669.19131L223.22833,669.19131L223.22833,671.11151L221.30809,671.11151L221.30809,673.03172L219.38784,673.03172
				L219.38784,674.95192L217.4676,674.95192L217.4676,676.87213L215.54735,676.87213L215.54735,680.71254L213.62711,680.71254L213.62711,682.63274
				L211.70687,682.63274L211.70687,684.55295L209.78662,684.55295L209.78662,686.47315L205.94614,686.47315L205.94614,688.39336
				L202.10565,688.39336L202.10565,690.31356L198.26516,690.31356L198.26516,692.23377L194.42467,692.23377L194.42467,694.15397
				L192.50443,694.15397L192.50443,696.07417L188.66394,696.07417L188.66394,697.99438L184.82346,697.99438L184.82346,699.91458
				L180.98297,699.91458L180.98297,701.83479L179.06272,701.83479L179.06272,703.75499L175.22224,703.75499L175.22224,705.6752L
				171.38175,705.6752L171.38175,707.5954L167.54126,707.5954L167.54126,709.51561L163.70077,709.51561L163.70077,711.43581L161.78053,711.43581
				L161.78053,713.35602L157.94004,713.35602L157.94004,715.27622L154.09956,715.27622L154.09956,717.19643L150.25907,717.19643
				L150.25907,719.11663L148.33883,719.11663L148.33883,721.03683L146.41858,721.03683L146.41858,723.19706L144.49834,723.19706
				L144.49834,727.03747L142.57809,727.03747L142.57809,728.95768L140.65785,728.95768L140.65785,730.87788L138.73761,730.87788
				L138.73761,732.79809L136.81736,732.79809L136.81736,734.71829L134.89712,734.71829L134.89712,736.6385L132.97688,736.6385L132.97688,740.47891
				L131.05663,740.47891L131.05663,742.39911L129.13639,742.39911L129.13639,744.31932L127.21614,744.31932L127.21614,746.23952
				L125.2959,746.23952L125.2959,750.07993L127.21614,750.07993L127.21614,752.00013L129.13639,752.00013L129.13639,753.92034L131.05663,753.92034
				L131.05663,755.84054L132.97688,755.84054L132.97688,757.76075L136.81736,757.76075L136.81736,759.68095L138.73761,759.68095
				L138.73761,761.60116L140.65785,761.60116L140.65785,763.52136L142.57809,763.52136L142.57809,765.44157L144.49834,765.44157
				L144.49834,767.36177L146.41858,767.36177L146.41858,769.28198L148.33883,769.28198L148.33883,771.20218L150.25907,771.20218
				L150.25907,775.04259L148.33883,775.04259L148.33883,776.96279L146.41858,776.96279L146.41858,780.8032L144.49834,780.8032L144.49834,782.72341
				L142.57809,782.72341L142.57809,784.64361L140.65785,784.64361L140.65785,788.48402L138.73761,788.48402L138.73761,790.40423
				L136.81736,790.40423L136.81736,794.24464L134.89712,794.24464L134.89712,796.16484L132.97688,796.16484L132.97688,800.00525
				L127.21614,800.00525L127.21614,798.08505L125.2959,798.08505L125.2959,796.16484L123.37566,796.16484L123.37566,794.24464L121.45541,794.24464
				L121.45541,792.32443L119.53517,792.32443L119.53517,790.40423L117.61493,790.40423L117.61493,788.48402L115.69468,788.48402
				L115.69468,786.56382L113.77444,786.56382L113.77444,784.64361L109.93395,784.64361L109.93395,782.72341L108.01371,782.72341
				L108.01371,780.8032L106.09346,780.8032L106.09346,778.883L104.17322,778.883L104.17322,776.96279L102.25298,776.96279L102.25298,775.04259
				L100.33273,775.04259L100.33273,773.12239L98.41249,773.12239L98.41249,771.20218L96.49225,771.20218L96.49225,769.28198L73.44932,769.28198
				L73.44932,767.36177L46.32588,767.36177L46.32588,769.28198L40.56515,769.28198L40.56515,771.20218L34.80442,771.20218L34.80442,773.12239
				L32.88417,773.12239L32.88417,775.04259L29.04369,775.04259L29.04369,776.96279L27.12344,776.96279L27.12344,778.883L25.2032,778.883
				L25.2032,780.8032L21.36271,780.8032L21.36271,782.72341L19.44247,782.72341L19.44247,784.64361L15.60198,784.64361L15.60198,786.56382
				L13.68174,786.56382L13.68174,788.48402L11.76149,788.48402L11.76149,790.40423L7.92101,790.40423L7.92101,792.32443L6.00076,792.32443
				L6.00076,794.24464L4.08052,794.24464L4.08052,796.16484L0.24003,796.16484L0.24003,798.08505L-1.68021,798.08505L-1.68021,800.00525
				L-5.5207,800.00525L-5.5207,801.92545L-6.24079,801.92545"/>
			<path clip-path="url(#SVG_CP_2)" fill="none" stroke="#999999" stroke-width="0.96012" stroke-miterlimit="10" stroke-linecap="round" stroke-linejoin="round" d="
				M-6.24079,286.83057L-5.5207,286.83057L-5.5207,284.91036L-3.60046,284.91036L-3.60046,281.06995L-1.68021,281.06995L-1.68021,277.22954
				L0.24003,277.22954L0.24003,275.30934L2.16027,275.30934L2.16027,271.46893L4.08052,271.46893L4.08052,267.62852L6.00076,267.62852
				L6.00076,265.70831L7.92101,265.70831L7.92101,261.86791L9.84125,261.86791L9.84125,258.0275L11.76149,258.0275L11.76149,254.18709
				L13.68174,254.18709L13.68174,252.26688L15.60198,252.26688L15.60198,250.34668L17.52222,250.34668L17.52222,244.58606L19.44247,244.58606
				L19.44247,242.66586L21.36271,242.66586L21.36271,238.82545L23.28296,238.82545L23.28296,234.98504L25.2032,234.98504L25.2032,230.90461
				L27.12344,230.90461L27.12344,227.0642L29.04369,227.0642L29.04369,223.22379L30.96393,223.22379L30.96393,221.30358L32.88417,221.30358
				L32.88417,217.46317L34.80442,217.46317L34.80442,213.62276L36.72466,213.62276L36.72466,194.42072L38.6449,194.42072L38.6449,179.05908
				L40.56515,179.05908L40.56515,169.45806L42.48539,169.45806L42.48539,167.53785L44.40564,167.53785L44.40564,163.69744L46.32588,163.69744
				L46.32588,161.77724L48.24612,161.77724L48.24612,156.01663L50.4064,156.01663L50.4064,154.09642L52.32664,154.09642L52.32664,150.25601
				L54.24688,150.25601L54.24688,132.97417L56.16713,132.97417L56.16713,125.29335L58.08737,125.29335L58.08737,117.61253L60.00762,117.61253
				L60.00762,111.85192L61.92786,111.85192L61.92786,104.1711L63.8481,104.1711L63.8481,96.49028L65.76835,96.49028L65.76835,90.72967
				L67.68859,90.72967L67.68859,84.96905L69.60883,84.96905L69.60883,79.20844L71.52908,79.20844L71.52908,73.44783L73.44932,73.44783
				L73.44932,67.68721L75.36957,67.68721L75.36957,61.9266L77.28981,61.9266L77.28981,56.16599L79.21005,56.16599L79.21005,50.40537
				L81.1303,50.40537L81.1303,44.64476L83.05054,44.64476L83.05054,38.88414L84.97078,38.88414L84.97078,35.04373L86.89103,35.04373
				L86.89103,31.20333L88.81127,31.20333L88.81127,27.36292L90.73151,27.36292L90.73151,25.44271L92.65176,25.44271L92.65176,23.52251
				L94.572,23.52251L94.572,19.6821L96.49225,19.6821L96.49225,15.84169L98.41249,15.84169L98.41249,13.92148L100.33273,13.92148
				L100.33273,12.00128L102.25298,12.00128L102.25298,8.16087L104.17322,8.16087L104.17322,4.32046L106.09346,4.32046L106.09346,2.40026
				L108.01371,2.40026L108.01371,0.48005L109.93395,0.48005L109.93395,-1.44015L111.8542,-1.44015L111.8542,-3.36036L115.69468,-3.36036
				L115.69468,-5.28056L119.53517,-5.28056L119.53517,-7.20077L123.37566,-7.20077L123.37566,-9.361L127.21614,-9.361L127.21614,-11.2812
				L131.05663,-11.2812L131.05663,-13.20141L132.97688,-13.20141L132.97688,-15.12161L134.89712,-15.12161L134.89712,-17.04182L
				136.81736,-17.04182L136.81736,-18.722"/>
			<path clip-path="url(#SVG_CP_2)" fill="none" stroke="#999999" stroke-width="0.96012" stroke-miterlimit="10" stroke-linecap="round" stroke-linejoin="round" d="
				M501.90369,-18.722L501.90369,-17.04182L505.74418,-17.04182L505.74418,-15.12161L509.58467,-15.12161L509.58467,-13.20141L515.3454,-13.20141
				L515.3454,-11.2812L519.18589,-11.2812L519.18589,-9.361L524.94662,-9.361L524.94662,-7.20077L528.78711,-7.20077L528.78711,-5.28056
				L532.62759,-5.28056L532.62759,-3.36036L538.62835,-3.36036L538.62835,-1.44015L542.46884,-1.44015L542.46884,0.48005L546.30933,0.48005
				L546.30933,2.40026L552.07006,2.40026L552.07006,4.32046L555.91055,4.32046L555.91055,6.24067L559.75103,6.24067L559.75103,8.16087
				L563.59152,8.16087L563.59152,10.08107L567.43201,10.08107L567.43201,12.00128L571.2725,12.00128L571.2725,13.92148L575.11298,13.92148
				L575.11298,15.84169L577.03323,15.84169L577.03323,17.76189L580.87372,17.76189L580.87372,19.6821L582.79396,19.6821L582.79396,21.6023
				L584.7142,21.6023L584.7142,23.52251L586.63445,23.52251L586.63445,25.44271L601.9964,25.44271"/>
			<path clip-path="url(#SVG_CP_2)" fill="none" stroke="#999999" stroke-width="0.96012" stroke-miterlimit="10" stroke-linecap="round" stroke-linejoin="round" d="
				M601.9964,263.78811L600.07615,263.78811L600.07615,261.86791L596.23566,261.86791L596.23566,259.9477L590.47493,259.9477L590.47493,258.0275
				L586.63445,258.0275L586.63445,256.10729L580.87372,256.10729L580.87372,254.18709L577.03323,254.18709L577.03323,256.10729L
				575.11298,256.10729L575.11298,258.0275L573.19274,258.0275L573.19274,259.9477L569.35225,259.9477L569.35225,261.86791L567.43201,261.86791
				L567.43201,263.78811L565.51177,263.78811L565.51177,265.70831L563.59152,265.70831L563.59152,267.62852L561.67128,267.62852
				L561.67128,269.54872L559.75103,269.54872L559.75103,271.46893L557.83079,271.46893L557.83079,275.30934L555.91055,275.30934
				L555.91055,277.22954L553.9903,277.22954L553.9903,279.14975L552.07006,279.14975L552.07006,281.06995L550.14982,281.06995L550.14982,282.99016
				L548.22957,282.99016L548.22957,286.83057L546.30933,286.83057L546.30933,288.75077L544.38909,288.75077L544.38909,290.67097
				L542.46884,290.67097L542.46884,292.59118L540.5486,292.59118L540.5486,294.51138L538.62835,294.51138L538.62835,298.35179L536.70811,298.35179
				L536.70811,300.272L534.54784,300.272L534.54784,302.1922L532.62759,302.1922L532.62759,304.11241L530.70735,304.11241L530.70735,306.03261
				L528.78711,306.03261L528.78711,307.95282L526.86686,307.95282L526.86686,311.79323L524.94662,311.79323L524.94662,313.71343
				L523.02637,313.71343L523.02637,315.63363L521.10613,315.63363L521.10613,317.55384L519.18589,317.55384L519.18589,319.47404
				L517.26564,319.47404L517.26564,321.39425L515.3454,321.39425L515.3454,325.23466L513.42516,325.23466L513.42516,327.15486L511.50491,327.15486
				L511.50491,329.07507L509.58467,329.07507L509.58467,330.99527L507.66442,330.99527L507.66442,332.91548L505.74418,332.91548
				L505.74418,334.83568L503.82394,334.83568L503.82394,338.67609L501.90369,338.67609L501.90369,340.59629L499.98345,340.59629
				L499.98345,342.5165L498.06321,342.5165L498.06321,344.4367L496.14296,344.4367L496.14296,346.35691L494.22272,346.35691L494.22272,348.27711
				L492.30248,348.27711L492.30248,350.19732L490.38223,350.19732L490.38223,354.03773L488.46199,354.03773L488.46199,355.95793
				L486.54174,355.95793L486.54174,357.87814L484.6215,357.87814L484.6215,359.79834L482.70126,359.79834L482.70126,361.71855L480.78101,361.71855
				L480.78101,363.63875L478.86077,363.63875L478.86077,367.47916L476.94053,367.47916L476.94053,369.39936L475.02028,369.39936
				L475.02028,371.31957L473.10004,371.31957L473.10004,373.23977L475.02028,373.23977L475.02028,375.15998L480.78101,375.15998
				L480.78101,377.08018L484.6215,377.08018L484.6215,379.00039L488.46199,379.00039L488.46199,380.92059L492.30248,380.92059L492.30248,382.8408
				L498.06321,382.8408L498.06321,384.761L501.90369,384.761L501.90369,386.68121L505.74418,386.68121L505.74418,388.60141L509.58467,388.60141
				L509.58467,390.52161L515.3454,390.52161L515.3454,392.44182L519.18589,392.44182L519.18589,394.36202L523.02637,394.36202L523.02637,396.28223
				L526.86686,396.28223L526.86686,398.20243L530.70735,398.20243L530.70735,400.12264L536.70811,400.12264L536.70811,402.04284
				L538.62835,402.04284L538.62835,403.96305L536.70811,403.96305L536.70811,407.80346L534.54784,407.80346L534.54784,411.64387
				L532.62759,411.64387L532.62759,413.56407L530.70735,413.56407L530.70735,417.40448L528.78711,417.40448L528.78711,421.24489
				L526.86686,421.24489L526.86686,425.0853L524.94662,425.0853L524.94662,427.0055L523.02637,427.0055L523.02637,430.84591L521.10613,430.84591
				L521.10613,434.68632L519.18589,434.68632L519.18589,438.52673L517.26564,438.52673L517.26564,442.36714L515.3454,442.36714L
				515.3454,444.28734L513.42516,444.28734L513.42516,448.12775L511.50491,448.12775L511.50491,451.96816L505.74418,451.96816L505.74418,450.04796
				L501.90369,450.04796L501.90369,448.12775L496.14296,448.12775L496.14296,446.20755L492.30248,446.20755L492.30248,444.28734
				L486.54174,444.28734L486.54174,442.36714L482.70126,442.36714L482.70126,440.44693L478.86077,440.44693L478.86077,438.52673
				L473.10004,438.52673L473.10004,436.60653L469.25955,436.60653L469.25955,434.68632L463.49882,434.68632L463.49882,432.76612
				L459.65833,432.76612L459.65833,430.84591L455.81785,430.84591L455.81785,428.92571L450.05711,428.92571L450.05711,427.0055L
				446.21663,427.0055L446.21663,425.0853L440.4559,425.0853L440.4559,423.16509L436.61541,423.16509L436.61541,421.24489L432.77492,421.24489
				L432.77492,419.32468L430.85468,419.32468L430.85468,421.24489L428.93443,421.24489L428.93443,423.16509L427.01419,423.16509
				L427.01419,425.0853L425.09395,425.0853L425.09395,428.92571L423.1737,428.92571L423.1737,430.84591L421.25346,430.84591L421.25346,432.76612
				L419.33322,432.76612L419.33322,434.68632L417.41297,434.68632L417.41297,436.60653L415.49273,436.60653L415.49273,440.44693
				L413.57248,440.44693L413.57248,442.36714L411.65224,442.36714L411.65224,444.28734L409.732,444.28734L409.732,446.20755L407.81175,446.20755
				L407.81175,450.04796L405.89151,450.04796L405.89151,451.96816L403.97127,451.96816L403.97127,453.88837L402.05102,453.88837
				L402.05102,455.80857L400.13078,455.80857L400.13078,459.64898L398.21053,459.64898L398.21053,461.56919L396.29029,461.56919
				L396.29029,463.48939L394.37005,463.48939L394.37005,465.40959L392.4498,465.40959L392.4498,469.25L390.52956,469.25L390.52956,471.17021
				L388.60932,471.17021L388.60932,473.09041L386.68907,473.09041L386.68907,475.01062L384.76883,475.01062L384.76883,476.93082
				L382.84859,476.93082L382.84859,481.01126L379.0081,481.01126"/>
		</g>
</g></svg>