<?xml version="1.0" encoding="utf-8" standalone="no"?>
<!-- Creator: ESRI ArcMap 10.0.0.2414 -->
<!DOCTYPE svg PUBLIC "-//W3C//DTD SVG 1.1//EN"  "http://www.w3.org/Graphics/SVG/1.1/DTD/svg11.dtd">
<svg width="595.50236pt" height="595.50236pt" viewBox="25 148.377955 545.50236 545.50236" enable-background="new 25 148.377955 545.50236 545.50236"
	version="1.1" xmlns="http://www.w3.org/2000/svg" xmlns:xlink="http://www.w3.org/1999/xlink" >
	<g id="Couches">
		<g id="reservoirs">
			<path clip-path="url(#SVG_CP_2)" fill-opacity="0.2" fill="#07866D" fill-rule="evenodd" stroke="none" stroke-width="" stra="1.44018" stroke-miterlimit="10" stroke-linecap="round" stroke-linejoin="round" d="
				M-6.24079,121.45294L6.96088,131.29399L37.20472,157.93683L119.7752,253.46701L197.54507,350.19732L229.94918,394.122L271.23442,451.48811
				L339.16304,560.2197L415.01267,687.19323L466.61922,785.12366L507.42439,861.21177L391.96974,861.21177L248.43153,673.99182L
				148.09879,752.96024L127.45618,765.44157L114.49453,767.12175L95.05206,766.40167L99.13258,754.16036L123.37566,691.03364L160.34035,604.3844
				L198.26516,619.02596L292.11707,610.86509L272.19454,532.85678L242.43077,487.25192L168.74141,395.80218L113.53441,336.75589
				L90.49148,308.19284L47.04597,343.4766L70.32893,371.79962L35.76454,400.12264L-6.24079,352.59757L-6.24079,121.45294z"/>
			<path clip-path="url(#SVG_CP_2)" fill-opacity="0.2" fill="#07866D" fill-rule="evenodd" stroke="none" stroke-width="" stra="1.44018" stroke-miterlimit="10" stroke-linecap="round" stroke-linejoin="round" d="
				M601.9964,451.00806L415.73276,448.12775L268.35406,244.34604L326.2014,138.25473L334.1224,114.01215L281.55573,121.21292L231.14933,128.17366
				L154.57962,93.85L113.05435,72.48772L141.13791,11.2812L134.89712,-18.722L601.9964,-18.722L601.9964,451.00806z"/>
		</g>
</g></svg>