<?xml version="1.0" encoding="utf-8" standalone="no"?>
<!-- Creator: ESRI ArcMap 10.0.0.2414 -->
<!DOCTYPE svg PUBLIC "-//W3C//DTD SVG 1.1//EN"  "http://www.w3.org/Graphics/SVG/1.1/DTD/svg11.dtd">
<svg width="595.50236pt" height="595.50236pt" viewBox="25 148.377955 545.50236 545.50236" enable-background="new 25 148.377955 545.50236 545.50236"
	version="1.1" xmlns="http://www.w3.org/2000/svg" xmlns:xlink="http://www.w3.org/1999/xlink" >
	<g id="Couches">
		<g id="reservoirs">
			<path clip-path="url(#SVG_CP_2)" fill-opacity="0.2" fill="#07866D" fill-rule="evenodd" stroke="none" stroke-width="" stra="1.44018" stroke-miterlimit="10" stroke-linecap="round" stroke-linejoin="round" d="
				M356.68526,518.45525L353.32484,530.2165L347.80414,528.77635L345.88389,528.05627L344.68374,531.41663L343.24356,539.81752L
				341.80338,544.61804L345.88389,547.01829L343.24356,553.49898L344.92377,554.21906L340.36319,564.30013L343.72362,566.22034L
				337.96289,577.98159L334.60246,592.38313L334.60246,592.62315L320.44067,589.98287L319.24051,591.42302L317.80033,593.34323L
				316.36015,594.54336L311.79957,592.62315L309.15923,592.62315L307.23899,599.34387L308.9192,601.02405L308.9192,602.4642L318.76045,604.62443
				L317.32027,612.54527L315.40003,613.26535L311.79957,612.54527L309.63929,611.34515L308.67917,611.34515L307.23899,611.10512
				L307.71905,608.70486L303.3985,608.22481L304.35862,603.4243L300.51814,602.22417L300.51814,598.86382L303.3985,599.34387L303.87856,598.86382
				L304.83869,587.10256L302.19835,586.86254L300.9982,586.38249L300.27811,585.66241L299.55802,577.26151L299.55802,572.94105L
				298.59789,571.98095L293.79728,571.02085L291.15695,570.78082L287.79652,571.26087L287.55649,570.06075L286.35634,563.58006L
				285.87628,559.49962L283.95604,549.41855L293.79728,548.45844L298.35786,545.81816L299.07795,544.61804L300.75817,543.89796L
				302.91844,542.93786L303.87856,542.45781L307.71905,532.37673L311.31951,522.77571L331.24204,531.65665L339.40307,527.81625L
				339.88313,508.85422L344.92377,508.37417L346.36396,499.73325L350.6845,499.49323L350.20444,516.77507L356.2052,516.77507L356.68526,518.45525
				z"/>
			<path clip-path="url(#SVG_CP_2)" fill-opacity="0.2" fill="#07866D" fill-rule="evenodd" stroke="none" stroke-width="" stra="1.44018" stroke-miterlimit="10" stroke-linecap="round" stroke-linejoin="round" d="
				M344.68374,-18.722L343.00353,-12.2413L340.84325,-2.40026L319.72057,-8.64092L318.76045,-5.04054L318.52042,-3.60038L318.28039,-1.68018
				L324.28115,1.20013L322.12088,4.08044L329.32179,8.88095L326.2014,24.72263L334.60246,28.32302L332.20216,38.88414L336.52271,40.56432
				L342.04341,41.76445L341.32332,45.36483L337.72286,44.16471L336.76274,46.56496L332.44219,54.00576L330.28191,54.00576L330.28191,57.36611
				L319.48054,58.80627L319.48054,60.24642L319.00048,66.72711L317.80033,66.96714L317.5603,67.92724L312.75969,68.64732L312.51966,66.72711
				L311.55954,63.12673L308.9192,56.40601L304.59865,59.04629L300.75817,61.9266L299.31798,63.12673L297.15771,65.04693L295.4775,66.72711
				L293.55725,68.64732L292.11707,70.32749L288.99668,73.92788L282.03579,76.32813L276.51509,62.64668L277.71524,60.9665L272.43457,59.52634
				L267.39393,67.20716L261.39317,72.96778L258.51281,75.36803L258.99287,76.08811L262.59332,74.40793L263.31342,75.60806L268.83412,72.96778
				L271.95451,79.44847L269.31418,80.64859L268.11402,81.6087L268.11402,82.32877L266.43381,83.04885L260.19302,84.72903L258.03275,81.12865
				L240.27049,84.96905L243.63092,90.24962L244.35101,91.9298L244.35101,97.21036L240.75055,96.97033L240.75055,97.93044L243.63092,103.69105
				L245.31113,107.05141L250.11174,104.41113L249.87171,103.211L250.83183,102.97097L252.75208,103.45102L255.63244,103.69105L260.43305,104.65115
				L262.83335,105.1312L276.03503,110.65179L278.43533,110.41177L279.15543,110.65179L275.795,122.41304L275.07491,122.8931L274.11479,123.37315
				L274.35482,126.01343L274.35482,127.21356L274.83488,133.69425L275.07491,135.61445L280.11555,135.1344L281.55573,136.33453L
				286.8364,132.49412L288.03655,135.37443L293.07719,144.97545L294.27735,146.4156L295.95756,146.4156L296.43762,154.8165L297.15771,158.17686
				L297.8778,162.49732L299.79805,165.1376L302.19835,168.25793L305.79881,179.53913L303.87856,181.21931L300.27811,185.29975L303.15847,193.22059
				L298.83792,194.42072L298.35786,199.94131L298.11783,205.70192L297.8778,207.3821L296.43762,216.02302L295.23747,228.74438L292.11707,256.82737
				L302.19835,259.22762L300.27811,265.22826L298.35786,271.2289L297.15771,275.06931L295.71753,277.70959L294.75741,279.14975L
				293.79728,280.5899L292.11707,282.51011L290.19683,284.43031L289.9568,284.67034L287.79652,282.99016L283.23594,279.86982L281.79576,281.79003
				L278.67537,286.35051L278.43533,286.59054L275.07491,290.67097L274.35482,287.79067L273.87476,286.11049L273.3947,283.95026L
				272.43457,283.95026L271.47445,285.39041L258.75284,300.272L259.95299,305.79259L260.67308,307.47277L259.95299,308.43287L256.35253,312.75333
				L253.7122,316.59374L257.07262,319.47404L258.75284,320.9142L251.79195,328.83504L251.31189,330.03517L250.83183,331.2353L250.5918,332.91548
				L249.39165,342.75652L246.75131,342.27647L245.55116,343.23658L244.83107,344.19668L244.59104,345.15678L203.06577,330.51522
				L148.33883,310.35307L128.4163,303.1523L77.04978,284.43031L49.44628,274.82929L37.68478,270.2688L24.96317,265.46829L23.04292,264.74821
				L30.7239,250.10665L40.56515,232.34476L49.20624,217.7032L58.3274,202.82161L68.64871,188.18005L72.72923,183.61957L78.24993,179.05908
				L80.89027,176.89885L85.69087,170.17813L88.57124,164.89757L90.73151,156.97673L95.77215,148.81586L103.2131,137.77468L116.17474,120.49284
				L127.93624,106.57136L137.29742,95.05013L148.57886,82.32877L157.94004,72.00767L169.22148,59.52634L186.02361,42.72455L199.70534,29.0431
				L212.18693,18.00192L223.22833,7.20077L243.15086,-10.80115L252.27201,-18.722L344.68374,-18.722z"/>
		</g>
</g></svg>