<?xml version="1.0" encoding="utf-8" standalone="no"?>
<!-- Creator: ESRI ArcMap 10.0.0.2414 -->
<!DOCTYPE svg PUBLIC "-//W3C//DTD SVG 1.1//EN"  "http://www.w3.org/Graphics/SVG/1.1/DTD/svg11.dtd">
<svg width="595.50236pt" height="595.50236pt" viewBox="25 148.377955 545.50236 545.50236" enable-background="new 25 148.377955 545.50236 545.50236"
	version="1.1" xmlns="http://www.w3.org/2000/svg" xmlns:xlink="http://www.w3.org/1999/xlink" >
	<g id="Couches">
		<g id="reservoirs">
			<path clip-path="url(#SVG_CP_2)" fill-opacity="0.2" fill="#07866D" fill-rule="evenodd" stroke="none" stroke-width="" stra="1.44018" stroke-miterlimit="10" stroke-linecap="round" stroke-linejoin="round" d="
				M601.9964,296.91164L601.51633,297.15167L601.2763,297.15167L599.11603,291.8711L599.11603,291.39105L601.9964,290.19092L601.9964,296.91164
				zM601.9964,633.18747L598.876,634.86765L591.67509,635.58773L591.91512,643.26855L595.27554,644.22865L595.51557,645.90883L597.91588,646.14885
				L597.43582,649.26919L588.79472,649.02916L579.1935,648.30908L577.75332,643.26855L574.39289,644.46868L573.91283,647.34898L
				570.79244,646.62891L569.83231,639.42814L568.1521,639.90819L565.51177,633.90755L567.67204,633.18747L566.95195,628.38696L558.55088,629.10704
				L558.07082,631.26727L563.59152,631.50729L564.31161,645.6688L555.43049,643.7486L555.19046,641.34834L542.46884,638.70806L536.94814,637.74796
				L536.22805,634.3876L535.0279,627.90691L531.18741,628.14694L531.18741,631.50729L531.18741,633.18747L531.18741,633.66752L531.42744,638.70806
				L523.50643,639.66816L516.78558,640.38824L516.54555,636.78786L509.34464,636.30781L509.10461,641.34834L499.74342,636.78786
				L508.86458,624.30653L505.26412,619.50602L510.30476,611.10512L499.26336,605.58453L493.98269,601.26407L482.70126,593.1032L
				473.82013,589.02277L474.30019,585.42238L464.939,587.10256L459.17827,585.42238L459.65833,592.38313L462.5387,595.02341L462.29867,598.62379
				L456.77797,596.70359L450.29714,594.54336L447.89684,594.0633L446.93672,591.183L442.61617,591.183L439.7358,586.14246L439.7358,581.822
				L438.29562,575.10128L436.61541,572.94105L437.3355,567.18044L428.21434,565.02021L427.01419,569.10064L427.49425,569.10064L
				430.85468,569.34067L434.45513,577.50154L433.73504,578.46164L434.45513,584.22226L437.3355,583.7422L437.57553,591.42302L434.2151,593.82328
				L433.01495,597.66369L426.53413,600.78402L424.37385,593.58325L421.49349,594.54336L417.89303,595.74348L422.21358,602.94425
				L424.85392,602.4642L426.53413,605.58453L421.01343,607.74476L414.53261,609.66497L409.01191,613.26535L404.69136,616.14566L
				396.53032,618.30589L390.76959,620.94617L378.52804,626.70678L371.08709,630.06714L363.40612,633.18747L356.44523,634.3876L350.44447,633.66752
				L349.00429,627.18683L344.20368,626.70678L343.24356,622.38632L339.88313,623.58645L339.16304,621.90627L333.88237,621.90627
				L332.20216,621.90627L329.80185,624.78658L329.56182,625.0266L329.32179,626.46676L329.08176,629.82712L329.08176,630.54719L
				319.9606,636.78786L308.43914,643.02852L303.63853,643.98862L301.23823,644.46868L299.55802,644.94873L299.07795,642.7885L284.19607,645.42878
				L284.19607,647.10896L273.63473,650.22929L265.95375,652.62955L259.47293,650.46932L254.19226,646.38888L256.59256,644.46868
				L246.99134,634.14758L237.1501,627.42686L226.34872,622.1463L230.18921,617.34579L225.3886,614.94553L221.78815,610.86509L212.42696,605.34451
				L210.02665,595.98351L203.54583,588.30269L205.22604,585.42238L205.22604,583.7422L205.94614,582.54208L205.22604,577.26151L
				210.26668,574.14118L208.8265,567.90052L204.74598,570.06075L204.50595,565.02021L269.79424,486.77187L278.43533,476.6908L281.3157,473.09041
				L282.03579,472.61036L285.87628,471.17021L289.47674,473.09041L290.67689,471.89029L290.19683,471.41023L290.67689,470.93018
				L292.59713,469.97008L294.27735,468.52993L291.63701,465.40959L293.79728,463.72942L297.8778,468.76995L301.95832,465.64962L
				303.15847,467.56983L301.47826,468.52993L304.35862,472.61036L306.03884,471.65026L307.47902,473.57046L309.87933,476.93082L
				306.03884,479.09105L310.35939,485.09169L313.47978,489.65218L317.32027,486.77187L320.92073,484.13159L319.24051,481.73133L
				315.64006,484.13159L312.27963,479.5711L311.79957,478.37098L315.40003,476.21075L316.60018,477.89092L317.80033,477.17085L316.60018,475.49067
				L318.76045,474.05052L319.72057,475.49067L320.6807,475.25064L319.9606,473.57046L329.56182,468.04988L331.00201,470.45013L335.80261,468.04988
				L334.1224,465.40959L335.80261,464.20947L337.96289,467.3298L340.36319,465.40959L338.68298,462.76931L347.80414,457.48875L352.12469,455.32852
				L358.12545,451.72814L359.56563,454.36842L362.446,452.68824L364.8463,456.28862L365.32636,455.80857L368.44676,460.36906L372.52728,456.0486
				L371.08709,452.68824L368.44676,445.48747L369.40688,444.52737L371.08709,443.32724L372.76731,441.64706L374.20749,439.72686
				L374.92758,438.76676L376.84782,436.3665L377.80795,438.04668L380.20825,437.08658L382.60855,439.48683L383.08862,439.72686L
				386.68907,437.3266L389.80947,434.4463L389.32941,432.52609L391.48968,430.36586L392.4498,429.64578L396.29029,425.56535L400.85087,421.00486
				L401.81099,420.04476L402.77111,421.24489L404.2113,423.40512L405.41145,425.32532L405.65148,425.80537L406.13154,427.72558L
				407.57172,433.24617L408.05178,433.96624L408.53184,434.4463L409.01191,435.4064L410.21206,439.72686L413.09242,448.36778L413.33245,449.08786
				L413.33245,449.80793L412.61236,451.96816L413.57248,453.16829L418.85315,449.56791L423.1737,446.6876L432.53489,440.20691L435.41526,438.2867
				L441.41602,433.72622L442.13611,433.24617L444.05635,433.24617L444.77644,433.24617L444.77644,432.76612L445.01647,431.80601
				L445.49654,430.84591L445.9766,430.12584L450.05711,426.76548L453.65757,423.64514L457.73809,419.32468L458.69821,420.52481L
				459.89836,419.08466L458.69821,418.12456L460.85848,415.24425L463.25879,417.40448L465.65909,414.28415L463.73885,411.88389L
				465.89912,409.00358L466.85925,409.96369L467.57934,408.76356L468.53946,409.48364L468.77949,409.48364L469.01952,409.72366L
				470.21967,408.52353L469.73961,408.04348L470.21967,407.32341L468.29943,405.88325L460.13839,400.12264L463.73885,395.80218L
				462.29867,394.36202L458.21815,398.92251L453.17751,395.32213L445.73657,390.04156L438.77568,385.24105L430.85468,379.96049L
				430.61465,379.24041L431.09471,378.04028L433.49501,378.52034L434.2151,377.80026L435.17523,375.15998L431.8148,373.4798L432.29486,370.83952
				L434.9352,359.79834L436.13535,353.7977L436.61541,352.35755L436.85544,351.39745L437.3355,350.67737L437.81556,350.19732L440.21587,348.03709
				L443.33626,345.39681L445.01647,347.55704L446.45666,346.11688L444.77644,344.19668L448.61693,341.07635L450.05711,342.27647
				L452.45742,340.59629L451.01724,338.91612L455.57781,335.07571L457.97812,336.75589L458.69821,336.03581L457.018,333.87558L458.93824,331.71535
				L462.05864,334.1156L466.61922,328.83504L463.97888,326.67481L465.65909,324.75461L467.57934,325.95473L469.25955,324.27456L
				467.57934,322.59438L469.49958,320.43415L470.93976,321.63427L472.37995,320.43415L470.4597,318.99399L471.89989,317.31381L477.66062,310.5931
				L483.66138,304.11241L485.10156,305.55256L486.78177,303.39233L485.58162,302.1922L486.78177,300.51202L487.7419,300.272L495.18284,307.23274
				L499.74342,311.31317L502.38375,314.19348L501.90369,314.67353L501.66366,314.91356L502.14372,315.63363L501.42363,316.11369
				L504.06397,319.23402L505.74418,318.03389L506.22424,317.55384L508.86458,319.9541L507.42439,321.39425L505.26412,322.8344L503.82394,323.7945
				L508.38452,329.31509L512.94509,325.47468L513.90522,324.51458L523.50643,332.91548L530.70735,325.71471L538.62835,317.55384
				L542.70887,321.63427L546.78939,317.55384L547.02942,316.83376L546.54936,316.35371L555.19046,309.633L553.75027,308.19284L570.55241,295.71151
				L570.79244,301.47213L577.75332,299.07187L585.91435,296.43159L589.51481,295.47149L598.63597,291.8711L601.2763,297.15167L597.67585,298.59182
				L598.63597,301.2321L601.51633,300.272L601.75637,300.75205L601.9964,300.75205L601.9964,633.18747z"/>
			<path clip-path="url(#SVG_CP_2)" fill-opacity="0.2" fill="#07866D" fill-rule="evenodd" stroke="none" stroke-width="" stra="1.44018" stroke-miterlimit="10" stroke-linecap="round" stroke-linejoin="round" d="
				M271.47445,183.61957L273.3947,186.01982L274.35482,184.8197L279.63549,188.6601L278.67537,190.10026L281.3157,192.02046L280.35558,193.22059
				L281.07567,193.94067L281.3157,193.22059L282.75588,194.42072L284.19607,191.78044L285.15619,192.26049L286.11631,192.50051L
				287.07643,192.74054L288.03655,192.50051L288.99668,192.26049L293.07719,191.54041L295.23747,191.06036L297.15771,191.06036L
				300.9982,191.06036L301.71829,191.06036L301.71829,198.50115L303.63853,198.9812L304.11859,199.46126L304.35862,199.94131L304.59865,200.66138
				L304.59865,201.62149L304.35862,202.82161L303.87856,204.02174L302.67841,206.90205L302.19835,207.86215L302.19835,208.58223
				L301.71829,209.78236L301.47826,210.98248L301.71829,212.66266L301.95832,214.10282L302.43838,215.54297L302.67841,216.7431L
				302.67841,218.6633L302.43838,221.06356L302.19835,223.94386L302.19835,225.86407L302.19835,227.0642L301.71829,228.50435L303.3985,230.42455
				L304.35862,231.62468L304.59865,232.34476L304.59865,232.82481L305.07872,233.78491L305.79881,234.74502L307.95908,236.90525
				L307.71905,236.90525L306.27887,237.3853L304.83869,237.86535L303.63853,238.82545L302.43838,239.78555L298.11783,244.58606L
				297.39774,245.78619L296.91768,246.74629L296.91768,247.94642L296.91768,248.6665L296.67765,249.38658L295.4775,251.30678L294.51738,252.74693
				L293.55725,252.02686L288.99668,249.14655L286.11631,252.02686L287.55649,252.50691L288.03655,252.98696L289.23671,253.70704
				L290.67689,254.66714L289.47674,255.62724L290.43686,256.82737L288.75664,257.78747L287.55649,258.50755L287.31646,258.74757
				L287.07643,258.50755L286.59637,257.78747L285.15619,259.22762L285.39622,259.46765L286.11631,259.9477L285.15619,260.66778L
				284.67613,259.9477L284.19607,259.22762L283.716,259.70768L282.51585,260.66778L282.03579,260.18773L280.11555,261.86791L280.83564,262.34796
				L280.11555,263.06803L281.07567,264.02814L280.35558,264.74821L279.63549,264.98824L278.9154,265.46829L278.1953,266.18837L276.99515,267.62852
				L274.35482,270.98888L273.63473,272.42903L272.43457,275.06931L272.19454,275.78939L271.23442,276.98952L270.2743,278.90972L
				269.31418,280.5899L264.7536,277.94962L264.27354,281.30998L266.43381,282.51011L265.71372,283.47021L264.99363,284.19028L264.51357,285.39041
				L267.87399,287.55064L267.39393,289.71087L267.39393,291.15103L267.1539,291.8711L266.67384,292.8312L266.19378,293.79131L264.99363,295.95154
				L264.27354,297.15167L263.31342,298.83184L262.59332,300.03197L261.87323,301.2321L261.15314,302.43223L260.19302,303.63236L
				259.71296,305.07251L258.27278,307.95282L262.35329,310.5931L267.1539,313.71343L264.7536,317.07379L263.31342,316.35371L263.07339,316.35371
				L262.59332,316.11369L261.6332,315.39361L259.47293,317.07379L258.99287,317.31381L263.07339,319.71407L263.31342,319.71407L
				264.99363,321.15422L265.47369,322.35435L266.91387,321.15422L267.39393,321.63427L267.87399,321.63427L270.2743,324.51458L270.75436,324.75461
				L274.11479,327.87494L275.31494,329.31509L275.795,328.83504L277.71524,326.91484L278.43533,327.39489L279.39546,328.35499L279.87552,328.59502
				L281.3157,328.59502L283.47597,329.79514L284.91616,330.27519L286.35634,330.03517L289.9568,329.55512L292.59713,329.31509L301.71829,329.55512
				L302.43838,329.79514L303.3985,329.79514L303.87856,326.19476L304.11859,324.27456L304.59865,319.9541L304.59865,319.47404L304.35862,318.75397
				L303.3985,316.11369L303.87856,315.87366L306.03884,316.83376L310.83945,319.23402L312.27963,317.79386L314.67993,319.23402L
				314.91996,318.75397L316.84021,319.23402L317.5603,318.75397L321.16076,321.63427L322.12088,322.59438L328.6017,327.87494L329.32179,328.11496
				L330.04188,327.87494L331.00201,327.63491L331.48207,327.63491L331.96213,327.63491L333.16228,328.35499L334.60246,329.55512
				L334.36243,330.03517L333.64234,331.2353L331.96213,334.35563L331.24204,335.79578L330.76198,336.75589L330.28191,337.95601L
				330.28191,338.19604L329.80185,338.43606L329.08176,338.19604L327.40155,343.95665L328.84173,345.15678L329.80185,345.63683L
				328.36167,348.75716L327.16152,350.67737L326.2014,351.8775L324.76121,353.07762L324.04112,354.03773L323.56106,354.51778L323.081,355.23785
				L322.60094,356.43798L321.40079,359.55832L321.16076,360.27839L320.44067,361.95857L319.48054,363.63875L318.28039,365.79898
				L315.88009,363.63875L313.95984,366.03901L315.40003,367.23913L315.16,367.71918L315.16,368.19924L316.12012,369.15934L314.67993,372.03965
				L312.99972,374.4399L311.55954,373.23977L307.23899,370.83952L300.51814,376.36011L294.75741,368.91931L287.55649,373.95985L
				277.71524,361.95857L268.11402,368.43926L265.71372,366.27903L263.79348,365.0789L260.91311,363.1587L266.67384,359.31829L263.79348,356.67801
				L263.79348,356.43798L260.67308,353.07762L257.55268,354.99783L254.91235,356.67801L252.51205,354.03773L240.75055,363.63875
				L234.0297,351.15742L225.62863,334.83568L224.66851,335.07571L224.42848,334.35563L223.70839,334.35563L221.30809,326.19476L
				223.46836,326.19476L223.46836,311.31317L223.94842,305.07251L225.14857,300.99207L227.06882,301.71215L228.509,302.43223L229.94918,302.67225
				L232.10946,303.1523L233.78967,303.87238L235.22985,304.35243L235.22985,303.39233L236.18997,301.47213L236.67003,300.99207L
				237.39013,300.03197L238.59028,299.3119L239.31037,298.35179L239.79043,297.39169L240.99058,296.19156L241.71067,295.23146L242.43077,294.03133
				L243.15086,293.55128L243.63092,293.07123L243.39089,292.8312L239.31037,289.71087L236.43,287.55064L237.39013,286.59054L239.79043,287.55064
				L240.99058,286.11049L242.91083,284.67034L245.0711,282.99016L248.1915,279.38977L240.99058,271.46893L240.03046,270.50883L239.07034,269.78875
				L238.59028,268.82865L238.11022,267.62852L237.63016,265.94834L236.91007,264.98824L235.70991,263.30806L234.98982,262.34796
				L233.78967,260.66778L237.1501,258.26752L235.70991,256.34732L232.34949,258.50755L231.62939,257.54744L230.66927,257.06739L
				229.70915,256.58734L228.98906,256.10729L228.26897,255.14719L227.30885,254.42711L226.34872,253.46701L225.86866,252.98696L
				225.62863,252.26688L225.14857,251.06675L224.66851,250.10665L223.70839,249.14655L222.9883,248.42647L222.26821,247.7064L221.06805,246.26624
				L219.14781,244.34604L218.66775,243.62596L217.70763,242.66586L216.26745,241.70576L214.82726,240.2656L214.3472,239.54553L214.3472,239.06548
				L217.70763,233.06484L219.62787,229.46445L220.58799,227.54425L221.78815,225.14399L223.46836,222.50371L223.46836,222.02366
				L223.46836,221.30358L223.22833,220.58351L222.26821,219.38338L217.94766,213.62276L215.54735,210.02238L212.66699,205.46189
				L212.18693,204.26177L213.62711,203.54169L212.90702,201.62149L215.06729,200.90141L219.14781,198.74118L223.94842,195.86087
				L226.82879,199.94131L230.18921,198.50115L228.98906,195.62085L234.98982,196.34092L239.31037,196.34092L243.63092,202.34156
				L244.11098,202.82161L244.35101,203.30166L253.7122,194.18069L250.11174,190.10026L254.43229,186.97993L262.11326,181.45934L
				264.99363,185.05972L266.43381,183.85959L265.47369,182.41944L267.87399,180.97929L270.99439,182.17941L271.47445,183.61957z
				"/>
		</g>
</g></svg>