<?xml version="1.0" encoding="utf-8" standalone="no"?>
<!-- Creator: ESRI ArcMap 10.0.0.2414 -->
<!DOCTYPE svg PUBLIC "-//W3C//DTD SVG 1.1//EN"  "http://www.w3.org/Graphics/SVG/1.1/DTD/svg11.dtd">
<svg width="595.50236pt" height="595.50236pt" viewBox="25 148.377955 545.50236 545.50236" enable-background="new 25 148.377955 545.50236 545.50236"
	version="1.1" xmlns="http://www.w3.org/2000/svg" xmlns:xlink="http://www.w3.org/1999/xlink" >
	<g id="Couches">
		<g id="reservoirs">
			<path clip-path="url(#SVG_CP_2)" fill-opacity="0.2" fill="#07866D" fill-rule="evenodd" stroke="none" stroke-width="" stra="1.44018" stroke-miterlimit="10" stroke-linecap="round" stroke-linejoin="round" d="
				M-6.24079,457.72878L-3.84049,456.76867L0.72009,455.56855L4.08052,454.60844L10.80137,452.44821L13.44171,449.80793L16.32207,443.56727
				L15.84201,439.48683L15.84201,439.00678L15.60198,432.76612L18.24232,430.84591L22.56286,427.72558L24.96317,426.28543L25.92329,423.88517
				L35.52451,404.92315L43.20548,401.80282L54.96698,401.08274L55.68707,406.60333L61.20777,407.32341L75.36957,409.48364L97.93243,409.72366
				L99.85267,408.76356L102.49301,406.84335L106.09346,407.08338L108.97383,407.56343L119.7752,393.40192L143.05815,384.761L142.81812,389.56151
				L140.17779,391.72174L138.25755,397.72238L140.41782,403.72302L142.33806,409.96369L147.13867,416.20435L151.45922,418.12456
				L176.18236,394.84208L179.06272,397.00231L186.50367,415.48427L189.38403,422.68504L190.82422,426.76548L197.06501,423.88517
				L204.98601,422.92507L219.14781,420.28479L227.78891,427.0055L228.02894,436.12647L226.58876,445.96752L248.1915,450.52801L250.83183,453.64834
				L249.15162,470.69016L247.71144,476.6908L245.0711,499.73325L259.47293,506.69399L286.35634,522.53568L291.39698,541.73773L292.11707,544.13798
				L291.63701,544.37801L292.11707,547.49834L292.59713,549.41855L293.31722,551.57878L293.79728,554.21906L294.51738,558.05947
				L295.23747,559.73965L294.75741,561.41983L294.03731,562.85998L294.27735,564.30013L293.79728,565.98031L293.31722,568.14054
				L292.59713,569.82072L291.63701,571.74093L290.43686,573.4211L289.71677,574.86126L288.99668,576.78146L289.23671,577.26151L
				283.95604,580.8619L263.79348,589.26279L259.2329,591.183L256.1125,589.74284L253.95223,589.02277L252.27201,587.10256L250.35177,583.98223
				L247.23137,579.66177L243.87095,576.78146L239.07034,578.46164L237.87019,589.26279L231.62939,601.02405L234.50976,607.98479
				L233.54964,614.7055L233.30961,616.38568L237.39013,617.58581L240.27049,612.30525L243.63092,608.46484L258.51281,600.78402L
				260.43305,600.06394L267.87399,605.34451L264.99363,609.42494L269.79424,615.18556L265.95375,620.22609L276.51509,627.90691L
				275.07491,630.54719L272.91463,633.18747L270.99439,634.86765L285.15619,655.74988L298.83792,675.19195L301.95832,679.75244L
				303.15847,678.79233L310.11936,673.27174L341.80338,703.51497L339.6431,706.39527L331.24204,718.63658L330.28191,720.07673L309.87933,748.8798
				L303.87856,754.64042L302.19835,755.36049L300.03808,754.88044L297.15771,755.12047L295.4775,755.84054L294.27735,757.2807L293.07719,758.48082
				L285.63625,762.08121L280.83564,766.16164L270.2743,771.68223L261.6332,776.00269L251.79195,763.76139L217.94766,721.27686L206.18617,709.03556
				L203.54583,705.91522L191.06425,691.03364L200.66547,684.0729L204.02589,679.99246L193.46455,670.39144L194.90473,668.47123L
				189.86409,664.63082L185.78358,658.87021L184.82346,657.67008L183.86333,656.22993L176.42239,655.26983L177.38251,659.35026L
				167.78129,661.27047L169.22148,682.15269L135.37718,752.24016L127.45618,768.5619L120.49529,783.20346L109.21386,806.72597L101.77292,822.0876
				L98.89255,818.00717L96.01218,814.88684L92.41173,811.04643L88.33121,806.96599L85.93091,801.92545L82.57048,795.20474L79.21005,788.72405
				L74.64947,781.52328L73.68935,780.32315L68.40868,772.88236L63.12801,766.40167L61.92786,764.96152L45.36576,746.71957L42.48539,744.31932
				L20.88265,726.79745L11.76149,719.83671L-2.88037,708.31548L-6.24079,705.19515L-6.24079,457.72878zM176.90245,446.20755L165.14096,448.12775
				L159.38023,447.88773L158.66013,451.24809L146.89864,451.24809L138.97764,452.68824L103.69316,460.12903L90.01142,450.76803L
				86.89103,454.60844L90.01142,458.44885L87.61112,463.48939L101.77292,469.49003L96.97231,481.25128L88.81127,493.49259L81.85039,505.01382
				L79.69011,509.5743L79.93014,510.29438L78.48996,513.89476L76.56972,513.65474L73.44932,518.69527L73.68935,520.13543L71.76911,522.53568
				L69.12877,527.81625L67.92862,529.73645L66.24841,531.1766L63.8481,533.33683L62.88798,535.25704L46.56591,530.45653L37.68478,536.45717
				L44.8857,547.25832L55.68707,547.49834L61.20777,550.8587L68.64871,570.78082L64.08813,574.38121L78.72999,593.82328L85.93091,589.02277
				L108.25374,589.74284L114.2545,589.98287L119.29514,590.2229L124.33578,594.0633L135.61721,608.70486L144.9784,613.02533L147.85876,608.22481
				L152.17931,603.18428L210.98678,597.42366L218.90778,585.90243L231.86943,555.65921L237.87019,538.6174L247.23137,541.73773L
				252.03198,529.2564L254.91235,524.69591L240.99058,525.89604L231.86943,509.5743L230.9093,506.21394L225.86866,509.33428L214.3472,493.49259
				L209.06653,483.41151L193.46455,463.00934L176.90245,446.20755z"/>
			<path clip-path="url(#SVG_CP_2)" fill-opacity="0.2" fill="#07866D" fill-rule="evenodd" stroke="none" stroke-width="" stra="1.44018" stroke-miterlimit="10" stroke-linecap="round" stroke-linejoin="round" d="
				M601.9964,361.95857L598.63597,362.91867L583.03399,392.44182L586.39442,395.56215L588.31466,397.48236L589.03475,399.88261L
				588.79472,400.12264L580.39365,412.36394L580.15362,412.84399L570.31237,407.32341L553.9903,395.80218L531.66747,380.68057L520.8661,372.27967
				L517.7457,369.87942L508.86458,363.39872L502.14372,360.51842L493.74266,358.35819L491.58238,358.35819L486.30171,358.11816L
				479.34083,358.83824L479.34083,355.71791L475.50034,351.63747L471.89989,354.03773L473.82013,359.07826L469.25955,360.27839L
				468.77949,360.27839L462.5387,361.95857L456.29791,363.87878L444.77644,367.47916L433.01495,370.83952L419.57325,371.79962L405.65148,373.23977
				L396.29029,373.95985L379.0081,375.88005L364.36624,376.60013L349.96441,376.60013L349.24432,325.71471L359.56563,328.35499L
				366.52651,319.23402L369.64691,320.9142L371.56715,315.63363L374.68755,313.23338L379.48816,309.633L380.44828,310.5931L383.80871,314.19348
				L393.88999,306.99271L389.08938,303.1523L389.08938,302.91228L397.49044,295.95154L407.09166,303.63236L410.69212,306.51266L
				415.2527,300.272L417.17294,294.99144L426.53413,289.47085L429.41449,291.63108L433.25498,287.55064L434.9352,288.9908L436.61541,287.07059
				L434.69516,285.15039L436.37538,282.99016L435.17523,281.79003L442.37614,278.90972L437.81556,270.02877L437.3355,269.54872L
				449.09699,265.22826L449.57705,265.70831L450.77721,267.62852L454.61769,274.34924L452.69745,276.02941L457.73809,280.10985L
				466.85925,269.54872L473.34007,272.18901L476.7005,267.86854L481.98117,269.78875L486.06168,271.2289L489.66214,263.78811L484.14144,261.14783
				L480.06092,259.22762L483.90141,253.46701L475.26031,247.7064L478.38071,244.58606L480.30095,244.34604L481.02104,244.34604L
				484.86153,245.30614L528.30704,266.42839L564.55164,287.55064L571.03247,291.39105L573.19274,293.31126L582.07387,301.47213L
				585.91435,305.07251L581.59381,308.91292L578.23338,312.99335L557.1107,308.91292L554.95043,318.99399L589.75484,330.27519L592.15515,319.23402
				L581.59381,315.15358L581.83384,314.67353L582.07387,311.31317L584.7142,308.19284L594.79548,301.2321L601.9964,303.87238L601.9964,361.95857
				z"/>
		</g>
</g></svg>