<?xml version="1.0" encoding="utf-8" standalone="no"?>
<!-- Creator: ESRI ArcMap 10.0.0.2414 -->
<!DOCTYPE svg PUBLIC "-//W3C//DTD SVG 1.1//EN"  "http://www.w3.org/Graphics/SVG/1.1/DTD/svg11.dtd">
<svg width="595.50236pt" height="595.50236pt" viewBox="25 148.377955 545.50236 545.50236" enable-background="new 25 148.377955 545.50236 545.50236"
	version="1.1" xmlns="http://www.w3.org/2000/svg" xmlns:xlink="http://www.w3.org/1999/xlink" >
	<g id="Couches">
		<g id="reservoirs">
			<clipPath id="SVG_CP_2">
				<path d="M574.39289,21.36228L21.36271,21.36228L21.36271,821.36753L574.39289,821.36753L574.39289,21.36228z"/>
			</clipPath>
			<path clip-path="url(#SVG_CP_2)" fill-opacity="0.08" fill="#2f4493" fill-rule="evenodd" stroke="#2f4493" stroke-width="1" stra="1.44018" stroke-miterlimit="10" stroke-linecap="round" stroke-linejoin="round" d="
				M601.9964,709.03556L597.91588,707.11535L598.39594,701.35474L582.55393,703.75499L572.95271,701.11471L573.43277,712.87597L
				578.47341,717.67648L578.23338,723.67712L568.63216,720.55678L557.59076,716.71637L553.51024,715.9963L552.07006,710.71573L544.62912,710.95576
				L539.58848,702.31484L539.82851,695.11407L537.4282,683.59284L534.30781,679.75244L535.50796,669.91139L520.14601,666.311L517.98573,673.27174
				L518.70583,673.27174L524.70659,673.7518L530.94738,687.67328L529.74723,689.11343L530.94738,699.19451L535.74799,698.47443L
				535.98802,711.19579L530.22729,715.75627L528.30704,721.99694L517.26564,727.2775L513.66519,715.0362L508.62455,716.71637L502.38375,718.63658
				L509.8247,730.87788L514.14525,730.39783L517.02561,735.43837L507.90446,739.03875L496.86305,742.39911L487.50187,748.8798L480.06092,753.44029
				L465.89912,757.2807L456.53794,761.84118L435.41526,771.44221L422.45361,777.20282L409.49197,782.72341L397.9705,784.40359L387.40916,783.20346
				L385.00886,772.40231L376.84782,771.44221L375.16761,764.24144L369.40688,766.16164L368.44676,763.28134L359.3256,763.04131L
				356.2052,763.04131L352.36472,768.08185L351.88466,768.5619L351.64463,771.20218L351.16456,776.72277L351.16456,778.16292L335.56258,788.48402
				L315.88009,799.28517L307.71905,800.96535L303.3985,801.92545L300.75817,802.40551L299.79805,798.80512L274.35482,803.36561L
				274.35482,806.24591L256.35253,811.7665L243.39089,815.60691L232.34949,812.00653L223.22833,805.28581L227.30885,801.68543L211.22681,784.16356
				L194.18464,772.88236L175.94233,764.00141L182.42315,755.36049L174.26211,751.52008L168.02132,744.55934L152.41934,735.19834
				L148.09879,719.35666L137.29742,705.91522L139.93776,701.35474L139.93776,698.2344L141.37794,696.07417L139.93776,687.19323L
				148.57886,681.67264L145.93852,671.11151L139.21767,675.19195L138.49758,666.311L250.11174,533.09681L264.51357,515.81497L269.79424,509.5743
				L270.99439,508.85422L277.47521,506.21394L283.47597,509.81433L285.39622,507.6541L284.91616,506.69399L285.39622,505.97392L
				288.99668,504.53376L291.87704,501.89348L287.31646,496.61292L290.91692,493.49259L297.63777,502.37353L304.59865,497.09297L
				306.99896,500.2133L304.11859,502.13351L308.9192,508.6142L311.55954,506.93402L314.19987,510.5344L318.28039,516.05499L312.0396,519.8954
				L319.24051,530.2165L324.52118,537.65729L330.76198,532.85678L337.2428,528.53632L334.1224,524.21586L328.36167,528.53632L322.60094,520.61548
				L321.40079,518.69527L321.64082,518.69527L321.64082,518.45525L327.88161,514.85486L329.80185,517.73517L331.7221,516.77507L
				330.04188,513.65474L333.64234,511.49451L334.84249,513.89476L336.76274,513.17468L335.56258,510.5344L351.88466,501.17341L354.28496,505.01382
				L362.446,500.93338L359.56563,496.61292L362.68603,494.69272L366.28648,499.73325L370.367,496.37289L367.48664,492.05243L383.08862,483.17149
				L390.28953,479.33108L400.37081,473.09041L403.01114,477.6509L407.81175,474.77059L412.1323,481.01126L413.09242,480.29118L418.13306,487.972
				L425.09395,480.77123L422.69364,474.77059L418.13306,462.52929L419.81328,461.08913L422.69364,458.68888L425.33398,456.0486L
				427.73428,452.68824L429.17446,451.00806L432.29486,447.16765L433.97507,450.04796L438.05559,448.12775L442.61617,452.44821L
				443.33626,452.68824L449.33702,448.6078L454.61769,443.56727L453.8976,440.68696L457.49806,436.84655L459.17827,435.64642L465.65909,428.68568
				L473.5801,420.76484L475.02028,419.08466L476.94053,421.24489L479.1008,425.0853L481.26107,427.9656L481.74113,429.16573L482.46123,432.04604
				L484.86153,441.64706L485.58162,443.08722L486.30171,443.80729L487.26184,445.48747L489.42211,452.92826L494.46275,467.3298L
				494.70278,468.76995L494.70278,469.97008L493.50263,473.57046L495.42287,475.73069L504.304,469.49003L511.50491,464.68952L527.34692,453.64834
				L532.38756,450.04796L542.70887,442.36714L543.90902,441.40704L547.02942,441.64706L548.22957,441.88709L548.22957,440.92699
				L548.70963,439.24681L549.66976,437.56663L550.38985,436.3665L557.35073,430.84591L563.59152,425.32532L570.31237,418.12456L
				571.75256,419.80474L573.91283,417.64451L572.23262,415.7243L575.83308,410.92379L579.67356,415.00422L583.99411,409.24361L580.63368,405.4032
				L584.23414,400.36266L585.91435,401.80282L587.11451,400.12264L588.79472,401.32277L589.03475,401.08274L589.75484,401.80282
				L591.67509,399.40256L590.71496,398.92251L591.67509,397.72238L588.55469,394.84208L574.39289,385.24105L580.63368,377.80026
				L577.99335,375.4L571.2725,383.08082L562.39137,377.08018L549.90979,368.19924L537.90826,360.03837L524.70659,350.67737L524.22653,349.71727
				L524.94662,347.55704L529.02714,348.27711L530.22729,347.07699L531.9075,342.75652L526.14677,339.63619L527.10689,335.31573L
				531.42744,316.35371L533.58771,306.27264L534.30781,303.87238L534.78787,302.43223L535.74799,300.75205L536.46808,300.03197L
				540.78863,296.19156L545.58924,292.11113L548.70963,295.47149L551.34997,293.07123L548.4696,289.9509L554.71039,284.43031L557.35073,286.83057
				L561.43125,283.47021L559.03094,280.82993L566.71192,274.10921L570.55241,277.46957L571.99259,275.78939L569.11222,272.18901
				L572.71268,268.82865L577.99335,272.90908L585.43429,263.54808L581.11375,259.9477L583.99411,256.58734L587.35454,258.74757L
				589.75484,255.86727L587.11451,253.22698L590.47493,249.38658L592.87524,251.54681L595.27554,249.38658L592.15515,246.98632L
				594.79548,244.10601L601.9964,235.46509L601.9964,709.03556z"/>
			<path clip-path="url(#SVG_CP_2)" fill-opacity="0.08" fill="#2f4493" fill-rule="evenodd" stroke="#2f4493" stroke-width="1" stra="1.44018" stroke-miterlimit="10" stroke-linecap="round" stroke-linejoin="round" d="
				M252.99211,16.08171L255.87247,20.40217L257.79272,18.00192L266.91387,24.72263L264.99363,27.12289L269.79424,30.72327L268.11402,32.64348
				L269.31418,33.84361L269.79424,32.64348L271.95451,34.56368L274.59485,30.0032L276.27506,30.9633L277.71524,31.20333L279.15543,31.44335
				L281.07567,31.20333L282.75588,30.9633L289.71677,29.52315L293.55725,29.0431L296.67765,28.80307L303.15847,28.56304L304.59865,28.80307
				L304.35862,41.2844L307.47902,42.48453L308.43914,42.96458L308.9192,43.92468L309.15923,45.12481L309.15923,47.04501L308.9192,48.96522
				L308.19911,50.88542L306.03884,55.92596L305.07872,57.60614L305.07872,58.56624L304.35862,60.72647L304.11859,62.8867L304.35862,65.76701
				L304.83869,68.16726L305.55878,70.56752L306.03884,72.72775L306.03884,75.84808L305.79881,79.92852L305.31875,84.72903L305.31875,88.32941
				L305.31875,90.24962L304.59865,92.40985L307.47902,95.77021L308.9192,97.69041L309.39926,99.13056L309.39926,100.09067L310.11936,101.77085
				L311.55954,103.45102L315.16,106.81138L314.67993,107.05141L312.0396,108.01151L309.87933,108.73159L307.47902,110.17174L305.55878,111.85192
				L298.35786,120.01279L296.91768,121.93299L296.43762,123.8532L296.19759,125.7734L296.19759,126.97353L295.71753,128.17366L294.03731,131.77404
				L292.3571,134.1743L290.43686,132.97417L282.75588,127.69361L277.95527,132.73414L280.11555,133.69425L281.07567,134.41432L282.99591,135.37443
				L285.39622,137.29463L283.716,138.73478L285.15619,140.89501L282.27582,142.33517L280.35558,144.01535L279.87552,144.4954L279.39546,144.01535
				L278.43533,142.57519L276.27506,144.97545L276.75512,145.4555L277.71524,146.4156L276.27506,147.3757L275.55497,146.17558L274.59485,144.97545
				L273.87476,145.69553L271.71448,147.3757L270.75436,146.65563L267.63396,149.53594L268.83412,150.49604L267.39393,151.69617L
				269.31418,153.37634L267.87399,154.57647L266.67384,155.05652L265.47369,155.53657L264.27354,156.7367L262.35329,159.37698L258.03275,165.1376
				L256.59256,167.29783L254.43229,172.09834L253.95223,173.05844L252.75208,175.4587L250.5918,178.57903L249.15162,181.45934L241.47064,177.13888
				L240.51052,182.41944L244.11098,184.57967L242.91083,186.25985L241.71067,187.7L240.99058,189.62021L246.99134,193.46062L246.03122,197.061
				L245.79119,199.46126L245.55116,200.66138L244.83107,202.34156L244.11098,204.02174L241.71067,207.62212L240.51052,209.54233
				L238.83031,212.42264L237.87019,214.58287L236.67003,216.50307L234.98982,218.6633L233.78967,220.58351L233.78967,220.82353L
				232.82955,223.22379L230.42924,228.0243L237.39013,232.34476L245.55116,237.86535L241.47064,243.86599L239.07034,242.66586L238.59028,242.42583
				L237.87019,242.18581L235.94994,240.74565L232.58952,243.38594L231.62939,244.10601L238.59028,247.94642L239.07034,248.18645
				L241.71067,250.5867L242.6708,252.50691L245.0711,250.5867L245.79119,251.54681L246.51128,251.30678L250.83183,256.34732L251.55192,256.58734
				L257.31265,262.34796L259.71296,264.26816L260.19302,263.78811L263.55345,260.42775L264.7536,261.38785L266.19378,262.82801L
				267.1539,263.30806L269.79424,263.30806L273.3947,265.22826L276.03503,266.18837L278.1953,265.94834L284.4361,264.74821L288.75664,264.50819
				L304.35862,264.98824L305.79881,265.22826L307.47902,265.46829L308.19911,259.22762L308.43914,255.62724L309.15923,248.6665L
				309.15923,248.42647L309.15923,247.7064L308.67917,246.26624L306.99896,241.94578L308.19911,241.46573L311.79957,243.38594L319.9606,247.46637
				L320.20063,247.46637L322.36091,244.82609L326.44143,247.22635L326.92149,246.50627L330.04188,247.46637L331.24204,246.26624
				L337.72286,251.54681L339.16304,252.98696L350.44447,262.10793L351.40459,262.34796L352.60475,262.34796L354.28496,261.62788
				L355.24508,261.38785L355.96517,261.62788L358.12545,263.06803L360.76578,264.98824L360.28572,265.94834L358.60551,267.62852
				L355.72514,273.14911L354.76502,275.54936L353.8049,276.98952L353.08481,279.14975L353.08481,279.6298L352.36472,280.10985L351.16456,279.6298
				L348.04417,289.47085L350.6845,291.63108L352.36472,292.35115L349.96441,297.87174L347.56411,300.75205L346.12392,302.91228L
				343.72362,305.07251L342.52347,306.51266L341.56335,307.47277L340.84325,308.43287L340.12316,310.5931L337.96289,316.11369L337.48283,317.31381
				L336.52271,319.9541L334.84249,322.8344L332.92225,326.43479L328.6017,323.07443L325.24127,327.15486L327.64158,329.31509L327.16152,330.03517
				L327.16152,330.99527L329.08176,332.67545L326.44143,337.23594L323.56106,341.5564L321.40079,339.39617L313.95984,335.31573L
				302.43838,344.67673L292.59713,332.1954L280.35558,340.59629L263.55345,320.19412L247.23137,331.2353L242.91083,327.39489L239.5504,325.23466
				L234.98982,322.11433L244.59104,315.63363L240.03046,311.31317L239.5504,310.83312L234.26973,305.07251L229.22909,308.43287L
				224.42848,311.07315L220.34796,306.75269L200.66547,323.31445L189.144,301.95218L174.50215,274.10921L173.06196,274.58926L172.5819,273.14911
				L171.62178,273.14911L167.54126,258.9876L170.90169,259.22762L171.14172,234.02494L171.62178,223.22379L174.02208,216.26305L
				177.14248,217.46317L179.78282,218.6633L182.18312,219.14335L185.78358,219.86343L188.66394,221.06356L190.82422,222.02366L191.30428,220.34348
				L192.74446,217.22315L193.46455,216.02302L194.90473,214.82289L196.82498,213.14271L198.02513,211.70256L198.98525,210.26241
				L200.66547,208.10218L202.10565,206.18197L203.54583,204.26177L204.50595,203.30166L205.22604,202.82161L204.74598,202.10154
				L198.02513,197.061L193.22452,193.46062L194.90473,191.54041L198.74522,193.22059L201.14553,191.06036L204.02589,188.42008L207.62635,185.29975
				L213.14705,179.29911L200.9055,165.85767L198.98525,164.1775L197.54507,162.97737L196.58495,161.53721L196.10489,159.37698L195.14476,156.7367
				L193.94461,154.8165L191.78434,152.17622L190.82422,150.49604L188.66394,147.61573L194.18464,143.5353L191.78434,140.17494L186.26364,143.77532
				L184.82346,142.33517L183.38327,141.37507L181.70306,140.65499L180.50291,139.69489L179.30275,138.01471L177.62254,136.57455
				L176.18236,135.1344L175.22224,134.41432L174.74218,133.45422L174.02208,130.81394L173.06196,129.61381L171.38175,127.93363L
				170.42163,126.73351L168.74141,125.29335L166.82117,123.13312L163.70077,119.77276L162.74065,118.57264L161.06044,116.89246L
				158.66013,115.21228L156.25983,112.81202L155.53974,111.61189L155.53974,110.65179L161.30047,100.57072L164.42087,94.33005L166.34111,90.96969
				L168.26135,86.88926L170.90169,82.5688L171.14172,81.6087L170.90169,80.40857L170.66166,79.20844L168.98144,77.04821L161.5405,67.44719
				L157.45998,60.9665L152.65937,53.28568L151.69925,51.36547L154.09956,50.16535L152.8994,47.04501L156.49986,45.36483L163.70077,42.00448
				L172.10184,36.96394L176.66242,44.16471L182.18312,41.52443L180.50291,36.48389L190.58419,37.92404L198.02513,37.92404L205.22604,48.00512
				L205.94614,48.96522L206.66623,49.92532L222.74827,34.08363L216.26745,26.88287L223.70839,21.84233L237.1501,12.48133L241.71067,18.48197
				L244.11098,16.32174L242.6708,13.92148L246.75131,11.52123L251.79195,13.92148L252.99211,16.08171z"/>
		</g>
</g></svg>