<?xml version="1.0" encoding="utf-8" standalone="no"?>
<!-- Creator: ESRI ArcMap 10.0.0.2414 -->
<!DOCTYPE svg PUBLIC "-//W3C//DTD SVG 1.1//EN"  "http://www.w3.org/Graphics/SVG/1.1/DTD/svg11.dtd">
<svg width="595.50236pt" height="595.50236pt" viewBox="25 148.377955 545.50236 545.50236" enable-background="new 25 148.377955 545.50236 545.50236"
	version="1.1" xmlns="http://www.w3.org/2000/svg" xmlns:xlink="http://www.w3.org/1999/xlink" >
	<g id="Couches">
		<g id="cont_2">
			<path clip-path="url(#SVG_CP_2)" fill="none" stroke="#999999" stroke-width="0.96012" stroke-miterlimit="10" stroke-linecap="round" stroke-linejoin="round" d="
				M340.60322,387.64131L338.92301,387.64131L338.92301,386.68121L339.6431,386.68121L339.6431,385.96113L341.32332,385.96113L341.32332,386.68121
				L340.60322,386.68121L340.60322,387.64131"/>
			<path clip-path="url(#SVG_CP_2)" fill="none" stroke="#999999" stroke-width="0.96012" stroke-miterlimit="10" stroke-linecap="round" stroke-linejoin="round" d="
				M222.50824,472.85039L221.54812,472.85039L221.54812,470.93018L220.82802,470.93018L220.82802,470.21011L219.8679,470.21011L
				219.8679,469.25L219.14781,469.25L219.14781,467.56983L215.78738,467.56983L215.78738,466.84975L211.46684,466.84975L211.46684,465.88965
				L207.14629,465.88965L207.14629,465.16957L203.06577,465.16957L203.06577,464.20947L198.74522,464.20947L198.74522,463.48939
				L194.6647,463.48939L194.6647,462.52929L190.34416,462.52929L190.34416,461.80921L186.26364,461.80921L186.26364,460.84911L184.58342,460.84911
				L184.58342,455.0885L185.30352,455.0885L185.30352,449.08786L186.26364,449.08786L186.26364,430.60589L185.30352,430.60589L185.30352,429.64578
				L184.58342,429.64578L184.58342,428.92571L182.90321,428.92571L182.90321,427.9656L181.94309,427.9656L181.94309,427.24553L181.223,427.24553
				L181.223,426.28543L180.26288,426.28543L180.26288,425.56535L178.58266,425.56535L178.58266,424.60525L177.86257,424.60525L177.86257,423.88517
				L176.90245,423.88517L176.90245,422.92507L175.94233,422.92507L175.94233,422.20499L174.26211,422.20499L174.26211,421.24489
				L173.54202,421.24489L173.54202,420.52481L172.5819,420.52481L172.5819,419.56471L171.86181,419.56471L171.86181,420.52481L166.82117,420.52481
				L166.82117,421.24489L162.50062,421.24489L162.50062,422.20499L157.45998,422.20499L157.45998,422.92507L153.37946,422.92507
				L153.37946,423.88517L147.3787,423.88517L147.3787,424.60525L138.97764,424.60525L138.97764,425.56535L135.61721,425.56535L135.61721,426.28543
				L133.937,426.28543L133.937,427.24553L132.25678,427.24553L132.25678,427.9656L130.57657,427.9656L130.57657,428.92571L128.89636,428.92571
				L128.89636,429.64578L126.25602,429.64578L126.25602,427.24553L125.53593,427.24553L125.53593,425.56535L124.57581,425.56535
				L124.57581,422.92507L123.85572,422.92507L123.85572,420.52481L122.8956,420.52481L122.8956,418.84463L122.1755,418.84463L122.1755,416.20435
				L121.21538,416.20435L121.21538,414.52417L120.49529,414.52417L120.49529,412.12392L119.53517,412.12392L119.53517,410.44374
				L118.81508,410.44374L118.81508,407.80346L117.85496,407.80346L117.85496,406.12328L117.13487,406.12328L117.13487,403.483L116.17474,403.483
				L116.17474,401.80282L115.45465,401.80282L115.45465,399.40256L114.49453,399.40256L114.49453,397.72238L113.53441,397.72238
				L113.53441,395.0821L112.81432,395.0821L112.81432,393.40192L111.8542,393.40192L111.8542,391.00167L111.1341,391.00167L111.1341,388.36138
				L110.17398,388.36138L110.17398,386.68121L109.45389,386.68121L109.45389,384.28095L108.49377,384.28095L108.49377,382.60077
				L107.77368,382.60077L107.77368,381.64067L106.81356,381.64067L106.81356,380.92059L105.13334,380.92059L105.13334,379.96049
				L104.41325,379.96049L104.41325,379.24041L102.73304,379.24041L102.73304,379.96049L101.77292,379.96049L101.77292,380.92059
				L101.05282,380.92059L101.05282,381.64067L100.0927,381.64067L100.0927,382.60077L99.37261,382.60077L99.37261,383.32085L98.41249,383.32085
				L98.41249,384.28095L97.6924,384.28095L97.6924,385.00103L96.73228,385.00103L96.73228,385.96113L96.01218,385.96113L96.01218,386.68121
				L95.05206,386.68121L95.05206,387.64131L94.33197,387.64131L94.33197,388.36138L93.37185,388.36138L93.37185,389.32149L92.65176,389.32149
				L92.65176,390.04156L91.69164,390.04156L91.69164,391.00167L90.01142,391.00167L90.01142,391.72174L89.29133,391.72174L89.29133,392.68185
				L88.33121,392.68185L88.33121,393.40192L87.61112,393.40192L87.61112,394.36202L86.651,394.36202L86.651,395.0821L85.93091,395.0821
				L85.93091,396.0422L84.97078,396.0422L84.97078,396.76228L84.25069,396.76228L84.25069,397.72238L83.29057,397.72238L83.29057,398.44246
				L82.33045,398.44246L82.33045,399.40256L81.61036,399.40256L81.61036,400.12264L80.65024,400.12264L80.65024,401.08274L79.93014,401.08274
				L79.93014,401.80282L78.97002,401.80282L78.97002,402.76292L78.24993,402.76292L78.24993,403.483L76.56972,403.483L76.56972,404.4431
				L75.6096,404.4431L75.6096,405.16318L74.8895,405.16318L74.8895,406.12328L73.92938,406.12328L73.92938,406.84335L73.20929,406.84335
				L73.20929,407.80346L72.24917,407.80346L72.24917,408.52353L71.52908,408.52353L71.52908,409.48364L70.56896,409.48364L70.56896,410.44374
				L69.84886,410.44374L69.84886,411.16381L68.88874,411.16381L68.88874,412.12392L68.16865,412.12392L68.16865,412.84399L67.20853,412.84399
				L67.20853,413.8041L66.48844,413.8041L66.48844,414.52417L65.52832,414.52417L65.52832,415.48427L64.80822,415.48427L64.80822,416.20435
				L63.12801,416.20435L63.12801,415.48427L61.4478,415.48427L61.4478,414.52417L59.76759,414.52417L59.76759,413.8041L58.08737,413.8041
				L58.08737,412.84399L57.12725,412.84399L57.12725,412.12392L56.40716,412.12392L56.40716,411.16381L55.44704,411.16381L55.44704,410.44374
				L54.72695,410.44374L54.72695,409.48364L53.76682,409.48364L53.76682,407.80346L53.04673,407.80346L53.04673,406.84335L52.08661,406.84335
				L52.08661,406.12328L51.12649,406.12328L51.12649,405.16318L50.4064,405.16318L50.4064,403.483L49.44628,403.483L49.44628,401.80282
				L48.72618,401.80282L48.72618,399.40256L47.76606,399.40256L47.76606,396.76228L47.04597,396.76228L47.04597,394.36202L46.08585,394.36202
				L46.08585,391.72174L45.36576,391.72174L45.36576,389.32149L44.40564,389.32149L44.40564,386.68121L43.68554,386.68121L43.68554,384.28095
				L42.72542,384.28095L42.72542,382.60077L43.68554,382.60077L43.68554,379.96049L44.40564,379.96049L44.40564,377.32021L45.36576,377.32021
				L45.36576,373.95985L46.08585,373.95985L46.08585,373.23977L47.76606,373.23977L47.76606,372.27967L48.72618,372.27967L48.72618,371.55959
				L49.44628,371.55959L49.44628,370.59949L50.4064,370.59949L50.4064,363.1587L48.72618,363.1587L48.72618,363.87878L47.04597,363.87878
				L47.04597,364.83888L44.40564,364.83888L44.40564,365.55895L42.00533,365.55895L42.00533,366.51906L40.32512,366.51906L40.32512,367.23913
				L37.68478,367.23913L37.68478,368.19924L35.28448,368.19924L35.28448,368.91931L33.60426,368.91931L33.60426,369.87942L30.96393,369.87942
				L30.96393,370.59949L28.56363,370.59949L28.56363,371.55959L26.88341,371.55959L26.88341,372.27967L24.24308,372.27967L24.24308,373.23977
				L21.84277,373.23977L21.84277,373.95985L19.92253,373.95985L19.92253,374.91995L17.52222,374.91995L17.52222,375.64003L14.88189,375.64003
				L14.88189,373.95985L15.84201,373.95985L15.84201,373.23977L16.5621,373.23977L16.5621,372.27967L17.52222,372.27967L17.52222,371.55959
				L18.24232,371.55959L18.24232,370.59949L19.20244,370.59949L19.20244,369.87942L19.92253,369.87942L19.92253,368.91931L20.88265,368.91931
				L20.88265,368.19924L21.84277,368.19924L21.84277,367.23913L22.56286,367.23913L22.56286,366.51906L24.24308,366.51906L24.24308,365.55895
				L25.2032,365.55895L25.2032,364.83888L25.92329,364.83888L25.92329,363.87878L26.88341,363.87878L26.88341,363.1587L28.56363,363.1587
				L28.56363,362.1986L29.28372,362.1986L29.28372,361.47852L30.24384,361.47852L30.24384,360.51842L31.92405,360.51842L31.92405,359.79834
				L32.64414,359.79834L32.64414,358.83824L34.32436,358.83824L34.32436,358.11816L35.28448,358.11816L35.28448,357.15806L36.96469,357.15806
				L36.96469,356.43798L37.68478,356.43798L37.68478,355.47788L39.365,355.47788L39.365,354.7578L41.04521,354.7578L41.04521,353.7977
				L42.00533,353.7977L42.00533,353.07762L42.72542,353.07762L42.72542,352.11752L43.68554,352.11752L43.68554,349.71727L44.40564,349.71727
				L44.40564,348.03709L45.36576,348.03709L45.36576,346.11688L47.04597,346.11688L47.04597,344.4367L47.76606,344.4367L47.76606,342.75652
				L48.72618,342.75652L48.72618,342.03645L49.44628,342.03645L49.44628,340.35627L50.4064,340.35627L50.4064,339.39617L52.08661,339.39617
				L52.08661,338.67609L53.04673,338.67609L53.04673,337.71599L53.76682,337.71599L53.76682,336.99591L55.44704,336.99591L55.44704,336.03581
				L58.08737,336.03581L58.08737,335.31573L59.76759,335.31573L59.76759,334.35563L61.4478,334.35563L61.4478,333.63555L63.12801,333.63555
				L63.12801,332.67545L64.80822,332.67545L64.80822,331.95537L67.20853,331.95537L67.20853,330.99527L68.88874,330.99527L68.88874,330.27519
				L70.56896,330.27519L70.56896,329.31509L74.8895,329.31509L74.8895,328.59502L75.6096,328.59502L75.6096,329.31509L84.25069,329.31509
				L84.25069,330.27519L90.01142,330.27519L90.01142,329.31509L91.69164,329.31509L91.69164,328.59502L92.65176,328.59502L92.65176,327.63491
				L93.37185,327.63491L93.37185,326.91484L95.05206,326.91484L95.05206,325.95473L96.01218,325.95473L96.01218,325.23466L96.73228,325.23466
				L96.73228,324.27456L97.6924,324.27456L97.6924,323.55448L98.41249,323.55448L98.41249,322.59438L100.0927,322.59438L100.0927,321.8743
				L101.05282,321.8743L101.05282,320.9142L101.77292,320.9142L101.77292,320.19412L103.45313,320.19412L103.45313,319.23402L105.13334,319.23402
				L105.13334,318.51394L106.81356,318.51394L106.81356,317.55384L108.49377,317.55384L108.49377,316.83376L111.1341,316.83376L
				111.1341,315.87366L113.53441,315.87366L113.53441,314.91356L116.17474,314.91356L116.17474,314.19348L117.85496,314.19348L117.85496,313.23338
				L120.49529,313.23338L120.49529,312.5133L122.8956,312.5133L122.8956,311.5532L125.53593,311.5532L125.53593,310.83312L127.21614,310.83312
				L127.21614,309.87302L129.61645,309.87302L129.61645,309.15294L132.25678,309.15294L132.25678,308.19284L133.937,308.19284L133.937,307.47277
				L134.65709,307.47277L134.65709,306.51266L136.3373,306.51266L136.3373,305.79259L138.01752,305.79259L138.01752,304.83248L138.97764,304.83248
				L138.97764,304.11241L140.65785,304.11241L140.65785,303.1523L142.33806,303.1523L142.33806,302.43223L144.01828,302.43223L144.01828,301.47213
				L145.69849,301.47213L145.69849,300.75205L147.3787,300.75205L147.3787,299.79195L149.05892,299.79195L149.05892,299.07187L150.73913,299.07187
				L150.73913,298.11177L152.41934,298.11177L152.41934,297.39169L156.73989,297.39169L156.73989,296.43159L163.46074,296.43159
				L163.46074,295.71151L165.86105,295.71151L165.86105,294.75141L166.82117,294.75141L166.82117,294.03133L167.54126,294.03133
				L167.54126,293.07123L168.50138,293.07123L168.50138,292.35115L169.22148,292.35115L169.22148,291.39105L170.90169,291.39105
				L170.90169,290.67097L171.86181,290.67097L171.86181,289.71087L173.54202,289.71087L173.54202,288.9908L175.22224,288.9908L175.22224,288.03069
				L176.90245,288.03069L176.90245,287.31062L177.86257,287.31062L177.86257,286.35051L179.54278,286.35051L179.54278,285.63044
				L181.223,285.63044L181.223,284.67034L181.94309,284.67034L181.94309,283.95026L183.6233,283.95026L183.6233,282.99016L185.30352,282.99016
				L185.30352,282.03005L186.26364,282.03005L186.26364,281.30998L187.94385,281.30998L187.94385,280.34987L188.66394,280.34987
				L188.66394,279.6298L190.34416,279.6298L190.34416,278.6697L192.02437,278.6697L192.02437,277.94962L192.98449,277.94962L192.98449,276.98952
				L194.6647,276.98952L194.6647,276.26944L195.3848,276.26944L195.3848,275.30934L197.06501,275.30934L197.06501,274.58926L198.74522,274.58926
				L198.74522,273.62916L199.70534,273.62916L199.70534,272.90908L201.38556,272.90908L201.38556,271.94898L202.10565,271.94898
				L202.10565,271.2289L203.78586,271.2289L203.78586,270.2688L205.46607,270.2688L205.46607,269.54872L207.14629,269.54872L207.14629,268.58862
				L209.06653,268.58862L209.06653,267.86854L210.74674,267.86854L210.74674,266.90844L213.14705,266.90844L213.14705,266.18837
				L214.82726,266.18837L214.82726,265.22826L217.4676,265.22826L217.4676,264.50819L219.14781,264.50819L219.14781,263.54808L221.54812,263.54808
				L221.54812,262.82801L223.22833,262.82801L223.22833,261.86791L225.86866,261.86791L225.86866,261.14783L229.94918,261.14783
				L229.94918,260.18773L232.58952,260.18773L232.58952,259.46765L236.67003,259.46765L236.67003,258.50755L239.31037,258.50755
				L239.31037,257.78747L246.99134,257.78747L246.99134,256.82737L248.67156,256.82737L248.67156,256.10729L251.07186,256.10729
				L251.07186,255.14719L252.75208,255.14719L252.75208,254.42711L255.39241,254.42711L255.39241,253.46701L257.07262,253.46701
				L257.07262,252.74693L259.47293,252.74693L259.47293,251.78683L261.15314,251.78683L261.15314,250.82673L263.79348,250.82673
				L263.79348,250.10665L265.47369,250.10665L265.47369,249.14655L267.1539,249.14655L267.1539,248.42647L269.55421,248.42647L269.55421,247.46637
				L271.23442,247.46637L271.23442,246.74629L273.87476,246.74629L273.87476,245.78619L275.55497,245.78619L275.55497,245.06611
				L278.1953,245.06611L278.1953,244.10601L279.87552,244.10601L279.87552,243.38594L282.27582,243.38594L282.27582,242.42583L283.95604,242.42583
				L283.95604,241.70576L286.59637,241.70576L286.59637,240.74565L288.27658,240.74565L288.27658,240.02558L290.67689,240.02558
				L290.67689,239.06548L292.3571,239.06548L292.3571,238.3454L294.03731,238.3454L294.03731,237.3853L296.67765,237.3853L296.67765,236.66522
				L298.35786,236.66522L298.35786,235.70512L300.75817,235.70512L300.75817,234.98504L302.43838,234.98504L302.43838,234.02494
				L305.07872,234.02494L305.07872,233.30486L306.75893,233.30486L306.75893,232.34476L309.39926,232.34476L309.39926,231.62468
				L311.07948,231.62468L311.07948,230.66458L313.47978,230.66458L313.47978,229.9445L315.16,229.9445L315.16,228.9844L317.80033,228.9844
				L317.80033,228.26432L319.48054,228.26432L319.48054,227.30422L321.88085,227.30422L321.88085,226.58415L323.56106,226.58415
				L323.56106,225.62404L326.2014,225.62404L326.2014,224.90397L328.6017,224.90397L328.6017,223.94386L330.28191,223.94386L330.28191,223.22379
				L332.92225,223.22379L332.92225,222.26369L334.60246,222.26369L334.60246,223.22379L337.2428,223.22379L337.2428,223.94386L339.6431,223.94386
				L339.6431,224.90397L341.32332,224.90397L341.32332,225.62404L359.80566,225.62404L359.80566,226.58415L366.76654,226.58415L
				366.76654,227.30422L370.84706,227.30422L370.84706,228.26432L376.84782,228.26432L376.84782,228.9844L380.20825,228.9844L380.20825,229.9445
				L381.88846,229.9445L381.88846,230.66458L383.56868,230.66458L383.56868,231.62468L385.96898,231.62468L385.96898,232.34476L
				387.64919,232.34476L387.64919,233.30486L395.33017,233.30486L395.33017,234.02494L397.9705,234.02494L397.9705,234.98504L399.65072,234.98504
				L399.65072,234.02494L402.05102,234.02494L402.05102,233.30486L404.69136,233.30486L404.69136,232.34476L408.05178,232.34476
				L408.05178,231.62468L409.732,231.62468L409.732,230.66458L413.09242,230.66458L413.09242,229.9445L415.49273,229.9445L415.49273,228.9844
				L419.81328,228.9844L419.81328,228.26432L426.53413,228.26432L426.53413,227.30422L430.85468,227.30422L430.85468,226.58415L
				432.53489,226.58415L432.53489,225.62404L433.25498,225.62404L433.25498,224.90397L434.9352,224.90397L434.9352,223.94386L436.61541,223.94386
				L436.61541,223.22379L439.25574,223.22379L439.25574,222.26369L441.65605,222.26369L441.65605,221.54361L444.29638,221.54361
				L444.29638,220.58351L446.69669,220.58351L446.69669,219.6234L448.3769,219.6234L448.3769,218.90333L451.01724,218.90333L451.01724,217.94322
				L455.09775,217.94322L455.09775,217.22315L458.45818,217.22315L458.45818,217.94322L463.73885,217.94322L463.73885,218.90333
				L465.41906,218.90333L465.41906,219.6234L466.13915,219.6234L466.13915,220.58351L467.81937,220.58351L467.81937,221.54361L469.49958,221.54361
				L469.49958,222.26369L470.4597,222.26369L470.4597,223.22379L472.13992,223.22379L472.13992,223.94386L473.82013,223.94386L473.82013,224.90397
				L474.54022,224.90397L474.54022,225.62404L478.86077,225.62404L478.86077,224.90397L480.54098,224.90397L480.54098,223.94386
				L482.2212,223.94386L482.2212,223.22379L483.90141,223.22379L483.90141,222.26369L485.58162,222.26369L485.58162,221.54361L486.30171,221.54361
				L486.30171,220.58351L487.98193,220.58351L487.98193,221.54361L487.26184,221.54361L487.26184,223.22379L486.30171,223.22379
				L486.30171,225.62404L485.58162,225.62404L485.58162,228.26432L484.6215,228.26432L484.6215,228.9844L483.90141,228.9844L483.90141,230.66458
				L482.94129,230.66458L482.94129,231.62468L482.2212,231.62468L482.2212,233.30486L481.26107,233.30486L481.26107,234.02494L480.54098,234.02494
				L480.54098,235.70512L479.58086,235.70512L479.58086,236.66522L478.86077,236.66522L478.86077,237.3853L477.18056,237.3853L477.18056,236.66522
				L475.50034,236.66522L475.50034,235.70512L474.54022,235.70512L474.54022,234.98504L473.82013,234.98504L473.82013,234.02494
				L472.86001,234.02494L472.86001,233.30486L471.17979,233.30486L471.17979,232.34476L470.4597,232.34476L470.4597,231.62468L469.49958,231.62468
				L469.49958,230.66458L468.77949,230.66458L468.77949,229.9445L467.09928,229.9445L467.09928,228.9844L466.13915,228.9844L466.13915,228.26432
				L465.41906,228.26432L465.41906,227.30422L464.45894,227.30422L464.45894,226.58415L462.77873,226.58415L462.77873,225.62404
				L462.05864,225.62404L462.05864,224.90397L461.09852,224.90397L461.09852,223.94386L460.37842,223.94386L460.37842,223.22379
				L458.45818,223.22379L458.45818,222.26369L457.73809,222.26369L457.73809,221.54361L456.77797,221.54361L456.77797,222.26369
				L455.09775,222.26369L455.09775,223.22379L454.37766,223.22379L454.37766,223.94386L453.41754,223.94386L453.41754,224.90397
				L452.69745,224.90397L452.69745,225.62404L451.01724,225.62404L451.01724,226.58415L450.05711,226.58415L450.05711,227.30422
				L449.33702,227.30422L449.33702,228.26432L448.3769,228.26432L448.3769,228.9844L446.69669,228.9844L446.69669,229.9445L445.9766,229.9445
				L445.9766,230.66458L445.01647,230.66458L445.01647,231.62468L444.29638,231.62468L444.29638,232.34476L443.33626,232.34476L
				443.33626,233.30486L445.01647,233.30486L445.01647,234.02494L445.9766,234.02494L445.9766,234.98504L446.69669,234.98504L446.69669,235.70512
				L447.65681,235.70512L447.65681,236.66522L449.33702,236.66522L449.33702,237.3853L450.05711,237.3853L450.05711,238.3454L451.01724,238.3454
				L451.01724,239.06548L450.05711,239.06548L450.05711,240.02558L448.3769,240.02558L448.3769,240.74565L447.65681,240.74565L447.65681,241.70576
				L445.9766,241.70576L445.9766,242.42583L445.01647,242.42583L445.01647,243.38594L444.29638,243.38594L444.29638,244.10601L442.61617,244.10601
				L442.61617,245.06611L441.65605,245.06611L441.65605,245.78619L440.93596,245.78619L440.93596,246.74629L439.25574,246.74629
				L439.25574,247.46637L438.29562,247.46637L438.29562,248.42647L436.61541,248.42647L436.61541,249.14655L435.89532,249.14655
				L435.89532,250.10665L434.9352,250.10665L434.9352,249.14655L434.2151,249.14655L434.2151,248.42647L433.25498,248.42647L433.25498,247.46637
				L432.53489,247.46637L432.53489,246.74629L431.57477,246.74629L431.57477,245.78619L430.85468,245.78619L430.85468,245.06611
				L429.89456,245.06611L429.89456,244.10601L429.17446,244.10601L429.17446,243.38594L427.25422,243.38594L427.25422,244.10601
				L425.57401,244.10601L425.57401,245.06611L424.85392,245.06611L424.85392,245.78619L423.89379,245.78619L423.89379,246.74629
				L423.1737,246.74629L423.1737,247.46637L421.49349,247.46637L421.49349,248.42647L420.53337,248.42647L420.53337,249.14655L419.81328,249.14655
				L419.81328,250.10665L418.13306,250.10665L418.13306,250.82673L417.17294,250.82673L417.17294,251.78683L416.45285,251.78683
				L416.45285,252.74693L415.49273,252.74693L415.49273,253.46701L414.77264,253.46701L414.77264,256.10729L413.81251,256.10729
				L413.81251,258.50755L413.09242,258.50755L413.09242,261.14783L412.1323,261.14783L412.1323,260.18773L410.45209,260.18773L410.45209,259.46765
				L408.77187,259.46765L408.77187,258.50755L407.09166,258.50755L407.09166,259.46765L406.37157,259.46765L406.37157,260.18773
				L405.41145,260.18773L405.41145,261.86791L404.69136,261.86791L404.69136,262.82801L403.73124,262.82801L403.73124,263.54808
				L403.01114,263.54808L403.01114,265.22826L402.05102,265.22826L402.05102,266.18837L401.33093,266.18837L401.33093,266.90844
				L400.37081,266.90844L400.37081,268.58862L399.65072,268.58862L399.65072,269.54872L398.6906,269.54872L398.6906,270.2688L397.9705,270.2688
				L397.9705,271.2289L397.01038,271.2289L397.01038,272.90908L394.37005,272.90908L394.37005,271.94898L391.00962,271.94898L391.00962,271.2289
				L387.64919,271.2289L387.64919,270.2688L384.28877,270.2688L384.28877,269.54872L380.92834,269.54872L380.92834,268.58862L380.20825,268.58862
				L380.20825,309.87302L380.92834,309.87302L380.92834,350.43734L380.20825,350.43734L380.20825,351.39745L379.24813,351.39745
				L379.24813,352.11752L378.52804,352.11752L378.52804,353.07762L377.56791,353.07762L377.56791,353.7977L376.84782,353.7977L376.84782,354.7578
				L375.8877,354.7578L375.8877,355.47788L375.16761,355.47788L375.16761,356.43798L374.20749,356.43798L374.20749,357.15806L373.4874,357.15806
				L373.4874,358.11816L372.52728,358.11816L372.52728,358.83824L371.80718,358.83824L371.80718,359.79834L370.84706,359.79834L
				370.84706,360.51842L370.12697,360.51842L370.12697,361.47852L369.16685,361.47852L369.16685,362.1986L368.44676,362.1986L368.44676,363.1587
				L367.48664,363.1587"/>
			<path clip-path="url(#SVG_CP_2)" fill="none" stroke="#999999" stroke-width="0.96012" stroke-miterlimit="10" stroke-linecap="round" stroke-linejoin="round" d="
				M367.48664,363.1587L367.48664,363.87878L366.76654,363.87878L366.76654,364.83888L365.80642,364.83888L365.80642,365.55895L
				364.8463,365.55895L364.8463,366.51906L359.80566,366.51906L359.80566,367.23913L357.40536,367.23913L357.40536,368.19924L356.44523,368.19924
				L356.44523,368.91931L355.72514,368.91931L355.72514,369.87942L354.76502,369.87942L354.76502,370.59949L354.04493,370.59949
				L354.04493,371.55959L353.08481,371.55959L353.08481,372.27967L352.36472,372.27967L352.36472,373.23977L351.40459,373.23977
				L351.40459,373.95985L350.6845,373.95985L350.6845,374.91995L349.72438,374.91995L349.72438,375.64003L349.00429,375.64003L349.00429,376.60013
				L348.04417,376.60013L348.04417,377.32021L347.32408,377.32021L347.32408,378.28031L346.36396,378.28031L346.36396,379.24041
				L345.64386,379.24041L345.64386,379.96049L344.68374,379.96049L344.68374,380.92059L343.96365,380.92059L343.96365,381.64067
				L343.00353,381.64067L343.00353,382.60077L342.28344,382.60077L342.28344,383.32085L341.32332,383.32085L341.32332,384.28095
				L340.60322,384.28095L340.60322,385.00103L339.6431,385.00103L339.6431,385.96113L337.2428,385.96113L337.2428,386.68121L336.28268,386.68121
				L336.28268,387.64131L335.56258,387.64131L335.56258,388.36138L334.60246,388.36138L334.60246,389.32149L333.64234,389.32149
				L333.64234,390.04156L332.92225,390.04156L332.92225,391.00167L331.96213,391.00167L331.96213,391.72174L331.24204,391.72174
				L331.24204,392.68185L328.6017,392.68185L328.6017,393.40192L327.88161,393.40192L327.88161,394.36202L326.92149,394.36202L326.92149,395.0821
				L326.2014,395.0821L326.2014,396.0422L325.24127,396.0422L325.24127,396.76228L324.52118,396.76228L324.52118,397.72238L323.56106,397.72238
				L323.56106,398.44246L322.84097,398.44246L322.84097,399.40256L321.88085,399.40256L321.88085,400.12264L321.16076,400.12264
				L321.16076,401.08274L320.20063,401.08274L320.20063,401.80282L319.48054,401.80282L319.48054,402.76292L318.52042,402.76292
				L318.52042,403.483L317.80033,403.483L317.80033,404.4431L316.84021,404.4431L316.84021,405.16318L316.12012,405.16318L316.12012,406.12328
				L315.16,406.12328L315.16,406.84335L314.4399,406.84335L314.4399,407.80346L313.47978,407.80346L313.47978,408.52353L312.75969,408.52353
				L312.75969,409.48364L311.79957,409.48364L311.79957,410.44374L311.07948,410.44374L311.07948,411.16381L310.11936,411.16381
				L310.11936,412.12392L309.39926,412.12392L309.39926,412.84399L308.43914,412.84399L308.43914,413.8041L307.71905,413.8041L307.71905,414.52417
				L306.75893,414.52417L306.75893,415.48427L306.03884,415.48427L306.03884,416.20435L305.07872,416.20435L305.07872,417.16445
				L304.35862,417.16445L304.35862,417.88453L303.3985,417.88453L303.3985,418.84463L302.43838,418.84463L302.43838,419.56471L301.71829,419.56471
				L301.71829,420.52481L300.75817,420.52481L300.75817,421.24489L300.03808,421.24489L300.03808,422.20499L299.07795,422.20499
				L299.07795,422.92507L298.35786,422.92507L298.35786,423.88517L297.39774,423.88517L297.39774,424.60525L296.67765,424.60525
				L296.67765,425.56535L282.27582,425.56535L282.27582,426.28543L281.55573,426.28543L281.55573,427.24553L276.51509,427.24553
				L276.51509,427.9656L267.1539,427.9656L267.1539,428.92571L266.19378,428.92571L266.19378,429.64578L265.47369,429.64578L265.47369,430.60589
				L264.51357,430.60589L264.51357,431.32596L263.79348,431.32596L263.79348,432.28607L262.83335,432.28607L262.83335,433.00614
				L262.11326,433.00614L262.11326,433.96624L261.15314,433.96624L261.15314,434.68632L260.43305,434.68632L260.43305,435.64642
				L259.47293,435.64642L259.47293,436.3665L258.75284,436.3665L258.75284,437.3266L257.79272,437.3266L257.79272,438.04668L257.07262,438.04668
				L257.07262,439.00678L256.1125,439.00678L256.1125,439.72686L255.39241,439.72686L255.39241,440.68696L254.43229,440.68696L254.43229,441.64706
				L253.7122,441.64706L253.7122,442.36714L252.75208,442.36714L252.75208,443.32724L252.03198,443.32724L252.03198,444.04732L251.07186,444.04732
				L251.07186,445.00742L250.35177,445.00742L250.35177,445.7275L249.39165,445.7275L249.39165,446.6876L248.67156,446.6876L248.67156,447.40768
				L247.71144,447.40768L247.71144,448.36778L246.99134,448.36778L246.99134,449.08786L246.03122,449.08786L246.03122,450.04796
				L245.31113,450.04796L245.31113,450.76803L244.35101,450.76803L244.35101,451.72814L243.63092,451.72814L243.63092,452.44821
				L242.6708,452.44821L242.6708,453.40832L241.9507,453.40832L241.9507,454.12839L240.99058,454.12839L240.99058,455.0885L240.03046,455.0885
				L240.03046,455.80857L239.31037,455.80857L239.31037,456.76867L238.35025,456.76867L238.35025,457.48875L236.67003,457.48875
				L236.67003,458.44885L235.94994,458.44885L235.94994,459.16893L234.98982,459.16893L234.98982,460.12903L234.26973,460.12903
				L234.26973,460.84911L233.30961,460.84911L233.30961,461.80921L232.58952,461.80921L232.58952,462.52929L231.62939,462.52929
				L231.62939,463.48939L230.9093,463.48939L230.9093,464.20947L229.94918,464.20947L229.94918,465.16957L229.22909,465.16957L229.22909,465.88965
				L228.26897,465.88965L228.26897,466.84975L227.54888,466.84975L227.54888,467.56983L226.58876,467.56983L226.58876,468.52993
				L225.86866,468.52993L225.86866,469.25L224.90854,469.25L224.90854,470.21011L224.18845,470.21011L224.18845,470.93018L223.22833,470.93018
				L223.22833,471.89029L222.50824,471.89029L222.50824,472.85039"/>
			<path clip-path="url(#SVG_CP_2)" fill="none" stroke="#999999" stroke-width="0.96012" stroke-miterlimit="10" stroke-linecap="round" stroke-linejoin="round" d="
				M171.86181,685.27302L170.90169,685.27302L170.90169,680.23249L171.86181,680.23249L171.86181,679.27238L172.5819,679.27238L
				172.5819,678.55231L173.54202,678.55231L173.54202,677.59221L172.5819,677.59221L172.5819,675.91203L173.54202,675.91203L173.54202,673.51177
				L174.26211,673.51177L174.26211,668.47123L175.22224,668.47123L175.22224,665.11088L175.94233,665.11088L175.94233,660.79041
				L176.90245,660.79041L176.90245,656.46995L177.86257,656.46995L177.86257,653.1096L178.58266,653.1096L178.58266,649.74924L179.54278,649.74924
				L179.54278,647.34898L180.26288,647.34898L180.26288,643.02852L181.223,643.02852L181.223,638.94809L181.94309,638.94809L181.94309,636.30781
				L182.90321,636.30781L182.90321,630.54719L183.6233,630.54719L183.6233,626.94681L184.58342,626.94681L184.58342,622.86637L185.30352,622.86637
				L185.30352,617.82584L186.26364,617.82584L186.26364,615.18556L186.98373,615.18556L186.98373,612.7853L187.94385,612.7853L187.94385,610.14502
				L188.66394,610.14502L188.66394,608.46484L189.62406,608.46484L189.62406,606.06458L190.34416,606.06458L190.34416,604.3844L
				191.30428,604.3844L191.30428,602.70423L192.02437,602.70423L192.02437,601.74412L192.98449,601.74412L192.98449,601.02405L193.70458,601.02405
				L193.70458,600.06394L194.6647,600.06394L194.6647,596.70359L193.70458,596.70359L193.70458,595.74348L192.98449,595.74348L192.98449,594.0633
				L192.02437,594.0633L192.02437,593.34323L191.30428,593.34323L191.30428,591.66305L190.34416,591.66305L190.34416,589.98287L
				189.62406,589.98287L189.62406,588.30269L188.66394,588.30269L188.66394,587.34259L187.94385,587.34259L187.94385,585.66241L
				186.98373,585.66241L186.98373,583.98223L186.26364,583.98223L186.26364,582.30205L185.30352,582.30205L185.30352,580.62187L
				184.58342,580.62187L184.58342,579.9018L183.6233,579.9018L183.6233,578.94169L181.94309,578.94169L181.94309,578.22162L179.54278,578.22162
				L179.54278,577.26151L177.86257,577.26151L177.86257,576.54144L175.94233,576.54144L175.94233,575.58133L173.54202,575.58133
				L173.54202,574.86126L171.86181,574.86126L171.86181,573.90116L170.1816,573.90116L170.1816,573.18108L169.22148,573.18108L169.22148,572.22098
				L168.50138,572.22098L168.50138,571.5009L167.54126,571.5009L167.54126,570.5408L166.82117,570.5408L166.82117,569.82072L165.86105,569.82072
				L165.86105,568.86062L165.14096,568.86062L165.14096,568.14054L163.46074,568.14054L163.46074,566.22034L161.78053,566.22034
				L161.78053,565.50026L160.82041,565.50026L160.82041,564.54016L160.10032,564.54016L160.10032,563.82008L159.1402,563.82008L
				159.1402,562.85998L158.4201,562.85998L158.4201,562.1399L157.45998,562.1399L157.45998,561.1798L156.73989,561.1798L156.73989,560.45972
				L155.77977,560.45972L155.77977,559.49962L155.05968,559.49962L155.05968,558.77954L154.09956,558.77954L154.09956,557.81944
				L152.41934,557.81944L152.41934,556.13926L151.69925,556.13926L151.69925,555.41919L150.73913,555.41919L150.73913,554.45908
				L149.05892,554.45908L149.05892,552.77891L147.3787,552.77891L147.3787,551.09873L145.69849,551.09873L145.69849,549.41855L144.73837,549.41855
				L144.73837,548.69847L144.01828,548.69847L144.01828,547.73837L142.33806,547.73837L142.33806,547.01829L139.69773,547.01829
				L139.69773,546.05819L138.97764,546.05819L138.97764,545.33811L138.01752,545.33811L138.01752,542.69783L137.29742,542.69783
				L137.29742,541.01765L136.3373,541.01765L136.3373,540.29758L135.61721,540.29758L135.61721,538.6174L134.65709,538.6174L134.65709,536.93722
				L133.937,536.93722L133.937,535.97711L132.97688,535.97711L132.97688,533.33683L132.25678,533.33683L132.25678,532.61676L131.29666,532.61676
				L131.29666,530.93658L130.57657,530.93658L130.57657,529.2564L129.61645,529.2564L129.61645,528.2963L128.89636,528.2963L128.89636,525.89604
				L127.93624,525.89604L127.93624,524.93594L127.21614,524.93594L127.21614,524.21586L126.25602,524.21586L126.25602,521.57558
				L125.53593,521.57558L125.53593,520.8555L124.57581,520.8555L124.57581,519.17532L123.85572,519.17532L123.85572,517.49515L122.8956,517.49515
				L122.8956,516.53504L122.1755,516.53504L122.1755,514.85486L121.21538,514.85486L121.21538,513.17468L120.49529,513.17468L120.49529,512.45461
				L119.53517,512.45461L119.53517,510.77443L118.81508,510.77443L118.81508,509.09425L117.85496,509.09425L117.85496,508.13415
				L117.13487,508.13415L117.13487,506.45397L116.17474,506.45397L116.17474,505.73389L115.45465,505.73389L115.45465,504.05371
				L114.49453,504.05371L114.49453,502.13351L113.53441,502.13351L113.53441,501.41343L112.81432,501.41343L112.81432,500.45333
				L111.8542,500.45333L111.8542,498.77315L111.1341,498.77315L111.1341,498.05307L110.17398,498.05307L110.17398,497.09297L109.45389,497.09297
				L109.45389,496.37289L108.49377,496.37289L108.49377,495.41279L107.77368,495.41279L107.77368,494.69272L106.81356,494.69272
				L106.81356,493.73261L106.09346,493.73261L106.09346,493.01254L105.13334,493.01254L105.13334,492.05243L104.41325,492.05243
				L104.41325,491.33236L102.73304,491.33236L102.73304,490.37225L101.77292,490.37225L101.77292,489.65218L101.05282,489.65218
				L101.05282,488.69208L100.0927,488.69208L100.0927,487.972L99.37261,487.972L99.37261,487.0119L98.41249,487.0119L98.41249,485.33172
				L97.6924,485.33172L97.6924,484.61164L96.73228,484.61164L96.73228,483.65154L94.33197,483.65154L94.33197,482.93146L92.65176,482.93146
				L92.65176,481.97136L91.69164,481.97136L91.69164,481.25128L89.29133,481.25128L89.29133,480.29118L87.61112,480.29118L87.61112,479.5711
				L86.651,479.5711L86.651,478.611L73.92938,478.611L73.92938,477.89092L70.56896,477.89092L70.56896,476.93082L66.48844,476.93082
				L66.48844,476.21075L64.80822,476.21075L64.80822,475.25064L63.12801,475.25064L63.12801,474.53057L61.4478,474.53057L61.4478,473.57046
				L57.12725,473.57046L57.12725,472.85039L48.72618,472.85039L48.72618,471.89029L47.76606,471.89029L47.76606,472.85039L46.08585,472.85039
				L46.08585,471.89029L45.36576,471.89029L45.36576,470.93018L48.72618,470.93018L48.72618,470.21011L53.04673,470.21011L53.04673,469.25
				L75.6096,469.25L75.6096,465.88965L76.56972,465.88965L76.56972,464.20947L87.61112,464.20947L87.61112,463.48939L92.65176,463.48939
				L92.65176,462.52929L98.41249,462.52929L98.41249,461.80921L103.45313,461.80921L103.45313,460.84911L105.13334,460.84911L105.13334,461.80921
				L106.09346,461.80921L106.09346,462.52929L106.81356,462.52929L106.81356,463.48939L107.77368,463.48939L107.77368,464.20947
				L108.49377,464.20947L108.49377,465.16957L109.45389,465.16957L109.45389,465.88965L110.17398,465.88965L110.17398,466.84975
				L111.1341,466.84975L111.1341,467.56983L111.8542,467.56983L111.8542,468.52993L112.81432,468.52993L112.81432,469.25L113.53441,469.25
				L113.53441,470.21011L114.49453,470.21011L114.49453,470.93018L115.45465,470.93018L115.45465,472.85039L116.17474,472.85039
				L116.17474,473.57046L117.13487,473.57046L117.13487,474.53057L117.85496,474.53057L117.85496,475.25064L118.81508,475.25064
				L118.81508,476.21075L119.53517,476.21075L119.53517,476.93082L120.49529,476.93082L120.49529,477.89092L121.21538,477.89092
				L121.21538,478.611L122.1755,478.611L122.1755,479.5711L122.8956,479.5711L122.8956,480.29118L123.85572,480.29118L123.85572,481.25128
				L124.57581,481.25128L124.57581,481.97136L125.53593,481.97136L125.53593,482.93146L126.25602,482.93146L126.25602,483.65154
				L127.21614,483.65154L127.21614,484.61164L127.93624,484.61164L127.93624,485.33172L128.89636,485.33172L128.89636,486.29182
				L129.61645,486.29182L129.61645,487.0119L130.57657,487.0119L130.57657,487.972L131.29666,487.972L131.29666,488.69208L132.25678,488.69208
				L132.25678,489.65218L132.97688,489.65218L132.97688,491.33236L133.937,491.33236L133.937,492.05243L134.65709,492.05243L134.65709,493.01254
				L135.61721,493.01254L135.61721,494.69272L136.3373,494.69272L136.3373,495.41279L137.29742,495.41279L137.29742,496.37289L138.01752,496.37289
				L138.01752,498.05307L138.97764,498.05307L138.97764,498.77315L139.69773,498.77315L139.69773,499.73325L140.65785,499.73325
				L140.65785,500.45333L141.37794,500.45333L141.37794,502.13351L142.33806,502.13351L142.33806,503.09361L143.05815,503.09361
				L143.05815,504.05371L144.01828,504.05371L144.01828,505.73389L144.73837,505.73389L144.73837,506.45397L145.69849,506.45397
				L145.69849,507.41407L146.65861,507.41407L146.65861,509.09425L147.3787,509.09425L147.3787,509.81433L148.33883,509.81433L148.33883,510.77443
				L149.05892,510.77443L149.05892,511.49451L150.01904,511.49451L150.01904,513.17468L150.73913,513.17468L150.73913,514.13479
				L151.69925,514.13479L151.69925,514.85486L152.41934,514.85486L152.41934,516.53504L153.37946,516.53504L153.37946,517.49515
				L154.09956,517.49515L154.09956,518.21522L155.05968,518.21522L155.05968,519.8954L155.77977,519.8954L155.77977,520.8555L156.73989,520.8555
				L156.73989,522.53568L157.45998,522.53568L157.45998,524.21586L158.4201,524.21586L158.4201,525.89604L159.1402,525.89604L159.1402,527.57622
				L160.10032,527.57622L160.10032,529.2564L160.82041,529.2564L160.82041,530.93658L161.78053,530.93658L161.78053,532.61676L162.50062,532.61676
				L162.50062,534.29694L163.46074,534.29694L163.46074,535.97711L164.18084,535.97711L164.18084,537.65729L165.14096,537.65729
				L165.14096,538.6174L165.86105,538.6174L165.86105,539.33747L166.82117,539.33747L166.82117,541.01765L167.54126,541.01765L167.54126,541.97775
				L168.50138,541.97775L168.50138,542.69783L169.22148,542.69783L169.22148,544.37801L170.1816,544.37801L170.1816,545.33811L170.90169,545.33811
				L170.90169,546.05819L171.86181,546.05819L171.86181,547.73837L172.5819,547.73837L172.5819,548.69847L173.54202,548.69847L173.54202,549.41855
				L174.26211,549.41855L174.26211,551.09873L175.22224,551.09873L175.22224,552.05883L175.94233,552.05883L175.94233,552.77891
				L176.90245,552.77891L176.90245,554.45908L177.86257,554.45908L177.86257,555.41919L178.58266,555.41919L178.58266,556.13926
				L179.54278,556.13926L179.54278,557.81944L180.26288,557.81944L180.26288,558.77954L181.223,558.77954L181.223,560.45972L181.94309,560.45972
				L181.94309,561.1798L182.90321,561.1798L182.90321,562.1399L183.6233,562.1399L183.6233,561.1798L184.58342,561.1798L184.58342,560.45972
				L186.26364,560.45972L186.26364,559.49962L187.94385,559.49962L187.94385,558.77954L188.66394,558.77954L188.66394,557.81944
				L190.34416,557.81944L190.34416,557.09937L191.30428,557.09937L191.30428,559.49962L192.02437,559.49962L192.02437,562.1399L
				192.98449,562.1399L192.98449,563.82008L193.70458,563.82008L193.70458,565.50026L194.6647,565.50026L194.6647,567.18044L195.3848,567.18044
				L195.3848,568.14054L196.34492,568.14054L196.34492,569.82072L197.06501,569.82072L197.06501,571.5009L198.02513,571.5009L198.02513,573.18108
				L198.74522,573.18108L198.74522,574.86126L199.70534,574.86126L199.70534,576.54144L200.42544,576.54144L200.42544,577.26151
				L201.38556,577.26151L201.38556,578.94169L202.10565,578.94169L202.10565,580.62187L203.06577,580.62187L203.06577,582.30205
				L203.78586,582.30205L203.78586,583.98223L204.74598,583.98223L204.74598,584.94233L205.46607,584.94233L205.46607,586.62251
				L206.4262,586.62251L206.4262,588.30269L214.82726,588.30269L214.82726,587.34259L224.18845,587.34259L224.18845,586.62251L229.22909,586.62251
				L229.22909,587.34259L228.26897,587.34259L228.26897,588.30269L227.54888,588.30269L227.54888,589.98287L226.58876,589.98287
				L226.58876,591.66305L225.86866,591.66305L225.86866,592.38313L224.90854,592.38313L224.90854,594.0633L224.18845,594.0633L224.18845,596.70359
				L223.22833,596.70359L223.22833,598.38376L222.50824,598.38376L222.50824,601.02405L221.54812,601.02405L221.54812,603.4243L
				220.82802,603.4243L220.82802,605.10448L219.8679,605.10448L219.8679,607.74476L219.14781,607.74476L219.14781,609.42494L218.18769,609.42494
				L218.18769,611.8252L217.4676,611.8252L217.4676,613.50538L214.82726,613.50538L214.82726,612.7853L212.42696,612.7853L212.42696,611.8252
				L209.78662,611.8252L209.78662,611.10512L207.14629,611.10512L207.14629,610.14502L204.74598,610.14502L204.74598,609.42494L
				202.10565,609.42494L202.10565,610.14502L201.38556,610.14502L201.38556,612.7853L200.42544,612.7853L200.42544,614.46548L199.70534,614.46548
				L199.70534,616.86573L198.74522,616.86573L198.74522,619.50602L198.02513,619.50602L198.02513,621.90627L197.06501,621.90627
				L197.06501,623.58645L196.34492,623.58645L196.34492,626.22673L195.3848,626.22673L195.3848,628.62699L194.6647,628.62699L194.6647,631.26727
				L193.70458,631.26727L193.70458,633.90755L192.98449,633.90755L192.98449,635.58773L192.02437,635.58773L192.02437,637.98799
				L191.30428,637.98799L191.30428,639.66816L190.34416,639.66816L190.34416,641.34834L189.62406,641.34834L189.62406,643.98862
				L188.66394,643.98862L188.66394,645.6688L187.94385,645.6688L187.94385,647.34898L186.98373,647.34898L186.98373,649.74924L186.26364,649.74924
				L186.26364,651.42942L185.30352,651.42942L185.30352,653.1096L184.58342,653.1096L184.58342,655.74988L183.6233,655.74988L183.6233,657.43006
				L182.90321,657.43006L182.90321,659.83031L181.94309,659.83031L181.94309,661.75052L181.223,661.75052L181.223,663.4307L180.26288,663.4307
				L180.26288,665.83095L179.54278,665.83095L179.54278,667.51113L178.58266,667.51113L178.58266,669.19131L177.86257,669.19131
				L177.86257,671.83159L176.90245,671.83159L176.90245,673.51177L175.94233,673.51177L175.94233,675.19195L175.22224,675.19195
				L175.22224,677.59221L174.26211,677.59221L174.26211,679.27238L173.54202,679.27238L173.54202,680.95256L172.5819,680.95256L
				172.5819,683.59284L171.86181,683.59284L171.86181,685.27302"/>
			<path clip-path="url(#SVG_CP_2)" fill="none" stroke="#999999" stroke-width="0.96012" stroke-miterlimit="10" stroke-linecap="round" stroke-linejoin="round" d="
				M222.50824,472.85039L224.18845,472.85039L224.18845,471.89029L224.90854,471.89029L224.90854,470.93018L225.86866,470.93018
				L225.86866,470.21011L226.58876,470.21011L226.58876,469.25L227.54888,469.25L227.54888,468.52993L228.26897,468.52993L228.26897,467.56983
				L229.22909,467.56983L229.22909,466.84975L229.94918,466.84975L229.94918,465.88965L230.9093,465.88965L230.9093,465.16957L231.62939,465.16957
				L231.62939,464.20947L232.58952,464.20947L232.58952,463.48939L233.30961,463.48939L233.30961,462.52929L234.26973,462.52929
				L234.26973,461.80921L234.98982,461.80921L234.98982,460.84911L235.94994,460.84911L235.94994,460.12903L236.67003,460.12903
				L236.67003,459.16893L237.63016,459.16893L237.63016,458.44885L238.35025,458.44885L238.35025,457.48875L239.31037,457.48875
				L239.31037,456.76867L240.03046,456.76867L240.03046,455.80857L240.99058,455.80857L240.99058,455.0885L241.9507,455.0885L241.9507,454.12839
				L242.6708,454.12839L242.6708,453.40832L243.63092,453.40832L243.63092,452.44821L244.35101,452.44821L244.35101,451.72814L245.31113,451.72814
				L245.31113,450.76803L246.03122,450.76803L246.03122,450.04796L246.99134,450.04796L246.99134,449.08786L247.71144,449.08786
				L247.71144,448.36778L248.67156,448.36778L248.67156,447.40768L249.39165,447.40768L249.39165,446.6876L250.35177,446.6876L250.35177,445.7275
				L251.07186,445.7275L251.07186,445.00742L252.03198,445.00742L252.03198,444.04732L252.75208,444.04732L252.75208,443.32724L
				253.7122,443.32724L253.7122,442.36714L254.43229,442.36714L254.43229,441.64706L255.39241,441.64706L255.39241,440.68696L256.1125,440.68696
				L256.1125,439.72686L257.07262,439.72686L257.07262,439.00678L257.79272,439.00678L257.79272,438.04668L258.75284,438.04668L
				258.75284,437.3266L259.47293,437.3266L259.47293,436.3665L268.83412,436.3665L268.83412,435.64642L269.55421,435.64642L269.55421,434.68632
				L270.51433,434.68632L270.51433,433.96624L271.23442,433.96624L271.23442,433.00614L272.19454,433.00614L272.19454,432.28607
				L273.15466,432.28607L273.15466,431.32596L273.87476,431.32596L273.87476,430.60589L274.83488,430.60589L274.83488,429.64578
				L275.55497,429.64578L275.55497,428.92571L276.51509,428.92571L276.51509,427.9656L294.99744,427.9656L294.99744,427.24553L295.71753,427.24553
				L295.71753,426.28543L296.67765,426.28543L296.67765,425.56535L297.39774,425.56535L297.39774,424.60525L298.35786,424.60525
				L298.35786,423.88517L299.07795,423.88517L299.07795,422.92507L300.03808,422.92507L300.03808,422.20499L300.75817,422.20499
				L300.75817,421.24489L301.71829,421.24489L301.71829,420.52481L302.43838,420.52481L302.43838,419.56471L303.3985,419.56471L
				303.3985,418.84463L304.35862,418.84463L304.35862,417.88453L305.07872,417.88453L305.07872,417.16445L306.03884,417.16445L306.03884,416.20435
				L306.75893,416.20435L306.75893,415.48427L307.71905,415.48427L307.71905,414.52417L308.43914,414.52417L308.43914,413.8041L
				309.39926,413.8041L309.39926,412.84399L310.11936,412.84399L310.11936,412.12392L311.07948,412.12392L311.07948,411.16381L311.79957,411.16381
				L311.79957,410.44374L312.75969,410.44374L312.75969,409.48364L313.47978,409.48364L313.47978,408.52353L314.4399,408.52353L
				314.4399,407.80346L315.16,407.80346L315.16,406.84335L316.12012,406.84335L316.12012,406.12328L316.84021,406.12328L316.84021,405.16318
				L317.80033,405.16318L317.80033,404.4431L318.52042,404.4431L318.52042,403.483L319.48054,403.483L319.48054,402.76292L320.20063,402.76292
				L320.20063,401.80282L321.16076,401.80282L321.16076,401.08274L321.88085,401.08274L321.88085,400.12264L322.84097,400.12264
				L322.84097,399.40256L325.24127,399.40256L325.24127,398.44246L326.2014,398.44246L326.2014,397.72238L326.92149,397.72238L326.92149,396.76228
				L327.88161,396.76228L327.88161,396.0422L328.6017,396.0422L328.6017,395.0821L329.56182,395.0821L329.56182,394.36202L330.28191,394.36202
				L330.28191,393.40192L331.24204,393.40192L331.24204,392.68185L336.28268,392.68185L336.28268,391.72174L337.2428,391.72174L
				337.2428,391.00167L337.96289,391.00167L337.96289,390.04156L338.92301,390.04156L338.92301,389.32149L339.6431,389.32149L339.6431,388.36138
				L340.60322,388.36138L340.60322,387.64131L344.68374,387.64131L344.68374,386.68121L345.64386,386.68121L345.64386,385.96113
				L346.36396,385.96113L346.36396,385.00103L347.32408,385.00103L347.32408,384.28095L348.04417,384.28095L348.04417,383.32085
				L349.00429,383.32085L349.00429,382.60077L349.72438,382.60077L349.72438,381.64067L350.6845,381.64067L350.6845,380.92059L351.40459,380.92059
				L351.40459,379.96049L352.36472,379.96049L352.36472,379.24041L353.08481,379.24041L353.08481,378.28031L354.04493,378.28031
				L354.04493,377.32021L354.76502,377.32021L354.76502,376.60013L355.72514,376.60013L355.72514,375.64003L356.44523,375.64003
				L356.44523,374.91995L357.40536,374.91995L357.40536,373.95985L358.12545,373.95985L358.12545,373.23977L359.08557,373.23977
				L359.08557,372.27967L359.80566,372.27967L359.80566,371.55959L360.76578,371.55959L360.76578,370.59949L361.48587,370.59949
				L361.48587,369.87942L362.446,369.87942L362.446,368.91931L363.16609,368.91931L363.16609,368.19924L364.12621,368.19924L364.12621,367.23913
				L364.8463,367.23913L364.8463,366.51906L365.80642,366.51906L365.80642,365.55895L366.76654,365.55895L366.76654,364.83888L367.48664,364.83888
				L367.48664,363.87878L368.44676,363.87878L368.44676,363.1587L369.16685,363.1587L369.16685,362.1986L370.12697,362.1986L370.12697,361.47852
				L370.84706,361.47852L370.84706,360.51842L371.80718,360.51842L371.80718,359.79834L372.52728,359.79834L372.52728,358.83824
				L373.4874,358.83824L373.4874,358.11816L374.20749,358.11816L374.20749,357.15806L375.16761,357.15806L375.16761,356.43798L375.8877,356.43798
				L375.8877,355.47788L376.84782,355.47788L376.84782,354.7578L377.56791,354.7578L377.56791,353.7977L378.52804,353.7977L378.52804,353.07762
				L379.24813,353.07762L379.24813,352.11752L380.20825,352.11752L380.20825,351.39745L380.92834,351.39745L380.92834,350.43734
				L381.88846,350.43734L381.88846,349.71727L387.64919,349.71727L387.64919,350.43734L405.41145,350.43734L405.41145,349.71727
				L418.13306,349.71727L418.13306,348.75716L429.89456,348.75716L429.89456,348.03709L439.25574,348.03709L439.25574,347.07699
				L447.65681,347.07699L447.65681,346.11688L456.05788,346.11688L456.05788,345.39681L464.45894,345.39681L464.45894,344.4367L
				473.82013,344.4367L473.82013,343.71663L482.2212,343.71663L482.2212,342.75652L491.58238,342.75652L491.58238,342.03645L501.66366,342.03645
				L501.66366,341.07635L512.46503,341.07635L512.46503,340.35627L515.82546,340.35627L515.82546,339.39617L519.18589,339.39617
				L519.18589,338.67609L522.54631,338.67609L522.54631,337.71599L525.18665,337.71599L525.18665,336.99591L528.54707,336.99591
				L528.54707,336.03581L531.18741,336.03581L531.18741,335.31573L534.54784,335.31573L534.54784,334.35563L536.94814,334.35563
				L536.94814,333.63555L539.58848,333.63555L539.58848,332.67545L541.98878,332.67545L541.98878,331.95537L544.62912,331.95537
				L544.62912,330.99527L547.98954,330.99527L547.98954,330.27519L550.38985,330.27519L550.38985,329.31509L553.03018,329.31509
				L553.03018,328.59502L556.39061,328.59502L556.39061,327.63491L559.03094,327.63491L559.03094,326.91484L561.43125,326.91484
				L561.43125,325.95473L563.11146,325.95473L563.11146,326.91484L562.39137,326.91484L562.39137,327.63491L560.71116,327.63491
				L560.71116,329.31509L559.75103,329.31509L559.75103,330.27519L559.03094,330.27519L559.03094,330.99527L558.07082,330.99527
				L558.07082,331.95537L557.35073,331.95537L557.35073,332.67545L556.39061,332.67545L556.39061,333.63555L555.67052,333.63555
				L555.67052,334.35563L554.71039,334.35563L554.71039,335.31573L553.75027,335.31573L553.75027,336.03581L553.03018,336.03581
				L553.03018,336.99591L552.07006,336.99591L552.07006,338.67609L551.34997,338.67609L551.34997,339.39617L550.38985,339.39617
				L550.38985,341.07635L549.66976,341.07635L549.66976,342.03645L548.70963,342.03645L548.70963,342.75652L547.98954,342.75652
				L547.98954,343.71663L547.02942,343.71663L547.02942,344.4367L546.30933,344.4367L546.30933,346.11688L545.34921,346.11688L545.34921,347.07699
				L544.62912,347.07699L544.62912,348.75716L543.66899,348.75716L543.66899,350.43734L542.9489,350.43734L542.9489,352.11752L541.98878,352.11752
				L541.98878,353.7977L541.26869,353.7977L541.26869,356.43798L540.30857,356.43798L540.30857,358.11816L539.58848,358.11816L539.58848,358.83824
				L538.62835,358.83824L538.62835,360.51842L537.90826,360.51842L537.90826,362.1986L536.94814,362.1986L536.94814,363.87878L536.22805,363.87878
				L536.22805,365.55895L535.26793,365.55895L535.26793,367.23913L534.54784,367.23913L534.54784,368.91931L533.58771,368.91931
				L533.58771,370.59949L532.86762,370.59949L532.86762,372.27967L531.9075,372.27967L531.9075,373.95985L531.18741,373.95985L531.18741,375.64003
				L530.22729,375.64003L530.22729,377.32021L529.5072,377.32021L529.5072,379.24041L528.54707,379.24041L528.54707,379.96049L527.82698,379.96049
				L527.82698,381.64067L526.86686,381.64067L526.86686,384.28095L526.14677,384.28095L526.14677,385.00103L525.18665,385.00103
				L525.18665,386.68121L524.46656,386.68121L524.46656,388.36138L523.50643,388.36138L523.50643,390.04156L522.54631,390.04156
				L522.54631,391.72174L521.82622,391.72174L521.82622,393.40192L520.8661,393.40192L520.8661,396.76228L520.14601,396.76228L520.14601,400.12264
				L519.18589,400.12264L519.18589,403.483L518.4658,403.483L518.4658,406.84335L517.50567,406.84335L517.50567,409.48364L516.78558,409.48364
				L516.78558,412.12392L515.82546,412.12392L515.82546,414.52417L515.10537,414.52417L515.10537,416.20435L514.14525,416.20435
				L514.14525,418.84463L513.42516,418.84463L513.42516,421.24489L512.46503,421.24489L512.46503,422.92507L511.74494,422.92507
				L511.74494,424.60525L510.78482,424.60525L510.78482,427.24553L510.06473,427.24553L510.06473,429.64578L509.10461,429.64578
				L509.10461,431.32596L508.38452,431.32596L508.38452,433.96624L507.42439,433.96624L507.42439,436.3665L506.7043,436.3665L506.7043,438.04668
				L505.74418,438.04668L505.74418,442.36714L505.02409,442.36714L505.02409,445.7275L504.06397,445.7275L504.06397,448.36778L503.34388,448.36778
				L503.34388,450.04796L502.38375,450.04796L502.38375,452.44821L501.66366,452.44821L501.66366,454.12839L500.70354,454.12839
				L500.70354,455.80857L499.98345,455.80857L499.98345,458.44885L499.02333,458.44885L499.02333,460.12903L498.30324,460.12903
				L498.30324,462.52929L497.34311,462.52929L497.34311,464.20947L496.62302,464.20947L496.62302,466.84975L495.6629,466.84975L
				495.6629,468.52993L494.94281,468.52993L494.94281,470.93018L493.98269,470.93018L493.98269,472.85039L493.2626,472.85039L493.2626,474.53057
				L492.30248,474.53057L492.30248,477.89092L491.58238,477.89092L491.58238,479.5711L490.62226,479.5711L490.62226,481.97136L489.66214,481.97136
				L489.66214,483.65154L488.94205,483.65154L488.94205,487.0119L487.98193,487.0119L487.98193,489.65218L487.26184,489.65218L487.26184,492.05243
				L486.30171,492.05243L486.30171,495.41279L485.58162,495.41279L485.58162,496.37289L484.6215,496.37289L484.6215,497.09297L483.90141,497.09297
				L483.90141,498.77315L482.94129,498.77315L482.94129,499.73325L482.2212,499.73325L482.2212,500.45333L481.26107,500.45333L481.26107,501.41343
				L480.54098,501.41343L480.54098,502.13351L479.58086,502.13351L479.58086,503.09361L478.86077,503.09361L478.86077,504.77379
				L477.90065,504.77379L477.90065,505.73389L477.18056,505.73389L477.18056,507.41407L476.22043,507.41407L476.22043,508.13415
				L475.50034,508.13415L475.50034,509.09425L474.54022,509.09425L474.54022,509.81433L473.82013,509.81433L473.82013,510.77443
				L472.86001,510.77443L472.86001,511.49451L472.13992,511.49451L472.13992,512.45461L471.17979,512.45461L471.17979,514.13479
				L470.4597,514.13479L470.4597,515.81497L469.49958,515.81497L469.49958,517.49515L468.77949,517.49515L468.77949,518.21522L467.81937,518.21522
				L467.81937,519.8954L467.09928,519.8954L467.09928,520.8555L465.41906,520.8555L465.41906,521.57558L464.45894,521.57558L464.45894,522.53568
				L462.77873,522.53568L462.77873,523.25576L461.09852,523.25576L461.09852,522.53568L460.37842,522.53568L460.37842,523.25576
				L455.09775,523.25576L455.09775,524.93594L454.37766,524.93594L454.37766,525.89604L453.41754,525.89604L453.41754,526.61612
				L452.69745,526.61612L452.69745,527.57622L451.73733,527.57622L451.73733,528.2963L451.01724,528.2963L451.01724,529.2564L449.33702,529.2564
				L449.33702,529.97648L448.3769,529.97648L448.3769,530.93658L447.65681,530.93658L447.65681,531.65665L445.9766,531.65665L445.9766,533.33683
				L445.01647,533.33683L445.01647,534.29694L444.29638,534.29694L444.29638,535.25704L443.33626,535.25704L443.33626,535.97711
				L442.61617,535.97711L442.61617,536.93722L441.65605,536.93722L441.65605,538.6174L440.93596,538.6174L440.93596,539.33747L439.97583,539.33747
				L439.97583,540.29758L439.25574,540.29758L439.25574,541.01765L438.29562,541.01765L438.29562,541.97775L437.57553,541.97775
				L437.57553,542.69783L435.89532,542.69783L435.89532,543.65793L434.9352,543.65793L434.9352,544.37801L434.2151,544.37801L434.2151,545.33811
				L433.25498,545.33811L433.25498,546.05819L432.53489,546.05819L432.53489,547.01829L430.85468,547.01829L430.85468,547.73837
				L429.89456,547.73837L429.89456,548.69847L428.21434,548.69847L428.21434,549.41855L426.53413,549.41855L426.53413,550.37865
				L424.85392,550.37865L424.85392,551.09873L423.1737,551.09873L423.1737,552.05883L421.49349,552.05883L421.49349,552.77891L420.53337,552.77891
				L420.53337,553.73901L418.85315,553.73901L418.85315,554.45908L418.13306,554.45908L418.13306,555.41919L416.45285,555.41919
				L416.45285,556.13926L414.77264,556.13926L414.77264,557.09937L413.81251,557.09937L413.81251,557.81944L413.09242,557.81944
				L413.09242,558.77954L412.1323,558.77954L412.1323,559.49962L411.41221,559.49962L411.41221,560.45972L410.45209,560.45972L410.45209,562.1399
				L409.732,562.1399L409.732,562.85998L408.77187,562.85998L408.77187,563.82008L408.05178,563.82008L408.05178,564.54016L407.09166,564.54016
				L407.09166,565.50026L406.37157,565.50026L406.37157,566.22034L405.41145,566.22034L405.41145,568.14054L404.69136,568.14054
				L404.69136,568.86062L403.73124,568.86062L403.73124,569.82072L403.01114,569.82072L403.01114,570.5408L402.05102,570.5408L402.05102,572.22098
				L401.33093,572.22098L401.33093,573.18108L400.37081,573.18108L400.37081,573.90116L399.65072,573.90116L399.65072,574.86126
				L397.9705,574.86126L397.9705,576.54144L396.05026,576.54144L396.05026,577.26151L395.33017,577.26151L395.33017,578.22162L393.64996,578.22162
				L393.64996,578.94169L392.68983,578.94169L392.68983,579.9018L391.96974,579.9018L391.96974,580.62187L391.00962,580.62187L391.00962,581.58197
				L390.28953,581.58197L390.28953,582.30205L389.32941,582.30205L389.32941,583.26215L387.64919,583.26215L387.64919,583.98223
				L386.9291,583.98223L386.9291,584.94233L385.96898,584.94233L385.96898,585.66241L385.24889,585.66241L385.24889,586.62251L384.28877,586.62251
				L384.28877,587.34259L383.56868,587.34259L383.56868,588.30269L381.88846,588.30269L381.88846,589.02277L380.92834,589.02277
				L380.92834,589.98287L380.20825,589.98287L380.20825,590.70295L378.52804,590.70295L378.52804,591.66305L377.56791,591.66305
				L377.56791,592.38313L376.84782,592.38313L376.84782,593.34323L375.16761,593.34323L375.16761,594.0633L374.20749,594.0633L374.20749,595.02341
				L373.4874,595.02341L373.4874,595.74348L371.80718,595.74348L371.80718,596.70359L370.12697,596.70359L370.12697,597.42366L368.44676,597.42366
				L368.44676,598.38376L366.76654,598.38376L366.76654,599.34387L364.8463,599.34387L364.8463,600.06394L364.12621,600.06394L364.12621,601.02405
				L363.16609,601.02405L363.16609,601.74412L362.446,601.74412L362.446,602.70423L361.48587,602.70423L361.48587,603.4243L360.76578,603.4243
				L360.76578,604.3844L359.80566,604.3844L359.80566,605.10448L359.08557,605.10448L359.08557,606.06458L358.12545,606.06458L358.12545,606.78466
				L357.40536,606.78466L357.40536,607.74476L356.44523,607.74476L356.44523,608.46484L355.72514,608.46484L355.72514,609.42494
				L354.76502,609.42494L354.76502,610.14502L354.04493,610.14502L354.04493,611.10512L353.08481,611.10512L353.08481,611.8252L
				352.36472,611.8252L352.36472,612.7853L351.40459,612.7853L351.40459,613.50538L350.6845,613.50538L350.6845,614.46548L349.72438,614.46548
				L349.72438,615.18556L349.00429,615.18556L349.00429,616.14566L348.04417,616.14566L348.04417,616.86573L346.36396,616.86573
				L346.36396,617.82584L344.68374,617.82584L344.68374,618.54591L343.00353,618.54591L343.00353,619.50602L342.28344,619.50602
				L342.28344,620.22609L341.32332,620.22609L341.32332,621.18619L340.60322,621.18619L340.60322,621.90627L338.92301,621.90627
				L338.92301,624.54655L337.96289,624.54655L337.96289,626.22673L337.2428,626.22673L337.2428,627.90691L336.28268,627.90691L336.28268,629.58709
				L335.56258,629.58709L335.56258,631.26727L334.60246,631.26727L334.60246,632.22737L333.64234,632.22737L333.64234,633.90755
				L332.92225,633.90755L332.92225,635.58773L331.96213,635.58773L331.96213,637.26791L331.24204,637.26791L331.24204,637.98799
				L330.28191,637.98799L330.28191,639.66816L329.56182,639.66816L329.56182,641.34834L328.6017,641.34834L328.6017,643.02852L327.88161,643.02852
				L327.88161,643.98862L326.92149,643.98862L326.92149,644.7087L326.2014,644.7087L326.2014,645.6688L325.24127,645.6688L325.24127,646.38888
				L324.52118,646.38888L324.52118,648.06906L323.56106,648.06906L323.56106,649.02916L322.84097,649.02916L322.84097,649.74924
				L321.88085,649.74924L321.88085,651.42942L321.16076,651.42942L321.16076,652.38952L320.20063,652.38952L320.20063,653.1096L
				319.48054,653.1096L319.48054,654.0697L318.52042,654.0697L318.52042,655.74988L317.80033,655.74988L317.80033,656.46995L316.84021,656.46995
				L316.84021,657.43006L315.16,657.43006L315.16,658.15013L312.75969,658.15013L312.75969,659.11024L311.07948,659.11024L311.07948,659.83031
				L310.11936,659.83031L310.11936,661.75052L309.39926,661.75052L309.39926,662.47059L308.43914,662.47059L308.43914,663.4307L
				307.71905,663.4307L307.71905,665.11088L306.75893,665.11088L306.75893,665.83095L306.03884,665.83095L306.03884,666.79105L305.07872,666.79105
				L305.07872,668.47123L304.35862,668.47123L304.35862,669.19131L303.3985,669.19131L303.3985,670.15141L302.43838,670.15141L302.43838,670.87149
				L301.71829,670.87149L301.71829,671.83159L300.75817,671.83159L300.75817,672.55167L300.03808,672.55167L300.03808,673.51177
				L299.07795,673.51177L299.07795,674.23185L298.35786,674.23185L298.35786,675.19195L297.39774,675.19195L297.39774,675.91203
				L296.67765,675.91203L296.67765,676.87213L294.03731,676.87213L294.03731,677.59221L292.3571,677.59221L292.3571,678.55231L289.9568,678.55231
				L289.9568,679.27238L285.63625,679.27238L285.63625,680.23249L282.27582,680.23249L282.27582,680.95256L277.23518,680.95256L
				277.23518,681.91267L273.15466,681.91267L273.15466,682.63274L270.51433,682.63274L270.51433,683.59284L268.83412,683.59284L
				268.83412,684.31292L267.1539,684.31292L267.1539,685.27302L265.47369,685.27302L265.47369,685.9931L262.83335,685.9931L262.83335,686.9532
				L261.15314,686.9532L261.15314,687.67328L258.75284,687.67328L258.75284,688.63338L257.07262,688.63338L257.07262,689.35346L
				254.43229,689.35346L254.43229,690.31356L252.75208,690.31356L252.75208,691.03364L250.35177,691.03364L250.35177,691.99374L
				248.67156,691.99374L248.67156,692.95384L246.03122,692.95384L246.03122,693.67392L241.9507,693.67392L241.9507,694.63402L234.26973,694.63402
				L234.26973,693.67392L231.62939,693.67392L231.62939,692.95384L229.94918,692.95384L229.94918,691.99374L227.54888,691.99374
				L227.54888,691.03364L225.86866,691.03364L225.86866,690.31356L224.18845,690.31356L224.18845,689.35346L222.50824,689.35346
				L222.50824,687.67328L221.54812,687.67328L221.54812,686.9532L220.82802,686.9532L220.82802,684.31292L219.8679,684.31292L219.8679,683.59284
				L217.4676,683.59284L217.4676,682.63274L214.82726,682.63274L214.82726,681.91267L212.42696,681.91267L212.42696,680.95256L211.46684,680.95256
				L211.46684,681.91267L210.74674,681.91267L210.74674,682.63274L209.78662,682.63274L209.78662,683.59284L209.06653,683.59284
				L209.06653,684.31292L208.10641,684.31292L208.10641,685.27302L207.14629,685.27302L207.14629,686.9532L206.4262,686.9532L206.4262,688.63338
				L205.46607,688.63338L205.46607,690.31356L204.74598,690.31356L204.74598,691.03364L203.78586,691.03364L203.78586,691.99374
				L203.06577,691.99374L203.06577,692.95384L202.10565,692.95384L202.10565,693.67392L201.38556,693.67392L201.38556,694.63402
				L200.42544,694.63402L200.42544,696.3142L199.70534,696.3142L199.70534,697.03428L198.74522,697.03428L198.74522,697.99438L198.02513,697.99438
				L198.02513,696.3142L198.74522,696.3142L198.74522,694.63402L199.70534,694.63402L199.70534,693.67392L200.42544,693.67392L200.42544,691.99374
				L201.38556,691.99374L201.38556,690.31356L202.10565,690.31356L202.10565,684.31292L203.06577,684.31292L203.06577,676.87213
				L203.78586,676.87213L203.78586,672.55167L204.74598,672.55167L204.74598,671.83159L206.4262,671.83159"/>
			<path clip-path="url(#SVG_CP_2)" fill="none" stroke="#999999" stroke-width="0.96012" stroke-miterlimit="10" stroke-linecap="round" stroke-linejoin="round" d="
				M206.4262,671.83159L206.4262,670.87149L209.06653,670.87149L209.06653,670.15141L212.42696,670.15141L212.42696,670.87149L214.10717,670.87149
				L214.10717,671.83159L214.82726,671.83159L214.82726,672.55167L215.78738,672.55167L215.78738,673.51177L216.50748,673.51177
				L216.50748,674.23185L217.4676,674.23185L217.4676,675.19195L218.18769,675.19195L218.18769,676.87213L219.14781,676.87213L219.14781,677.59221
				L219.8679,677.59221L219.8679,678.55231L220.82802,678.55231L220.82802,680.23249L221.54812,680.23249L221.54812,680.95256L222.50824,680.95256
				L222.50824,682.63274L223.22833,682.63274L223.22833,684.31292L224.18845,684.31292L224.18845,685.27302L224.90854,685.27302
				L224.90854,686.9532L225.86866,686.9532L225.86866,687.67328L226.58876,687.67328L226.58876,688.63338L227.54888,688.63338L227.54888,689.35346
				L229.94918,689.35346L229.94918,690.31356L232.58952,690.31356L232.58952,691.03364L234.26973,691.03364L234.26973,691.99374
				L234.98982,691.99374L234.98982,692.95384L236.67003,692.95384L236.67003,691.99374L238.35025,691.99374L238.35025,691.03364
				L240.99058,691.03364L240.99058,690.31356L242.6708,690.31356L242.6708,689.35346L245.31113,689.35346L245.31113,688.63338L246.99134,688.63338
				L246.99134,687.67328L249.39165,687.67328L249.39165,686.9532L251.07186,686.9532L251.07186,685.9931L252.75208,685.9931L252.75208,685.27302
				L255.39241,685.27302L255.39241,684.31292L257.07262,684.31292L257.07262,683.59284L259.47293,683.59284L259.47293,682.63274
				L261.15314,682.63274L261.15314,681.91267L262.83335,681.91267L262.83335,680.95256L265.47369,680.95256L265.47369,680.23249
				L267.1539,680.23249L267.1539,679.27238L268.83412,679.27238L268.83412,678.55231L271.23442,678.55231L271.23442,677.59221L273.15466,677.59221
				L273.15466,676.87213L275.55497,676.87213L275.55497,675.91203L276.51509,675.91203L276.51509,675.19195L278.1953,675.19195L
				278.1953,674.23185L278.9154,674.23185L278.9154,673.51177L280.59561,673.51177L280.59561,672.55167L281.55573,672.55167L281.55573,671.83159
				L282.27582,671.83159L282.27582,670.87149L283.95604,670.87149L283.95604,666.79105L284.91616,666.79105L284.91616,665.83095
				L285.63625,665.83095L285.63625,664.15077L286.59637,664.15077L286.59637,662.47059L287.31646,662.47059L287.31646,661.75052
				L288.27658,661.75052L288.27658,659.83031L288.99668,659.83031L288.99668,658.15013L289.9568,658.15013L289.9568,656.46995L290.67689,656.46995
				L290.67689,653.1096L291.63701,653.1096L291.63701,650.70934L292.3571,650.70934L292.3571,648.06906L291.63701,648.06906L291.63701,647.34898
				L292.3571,647.34898L292.3571,644.7087L293.31722,644.7087L293.31722,643.02852L294.03731,643.02852L294.03731,642.30845L293.31722,642.30845
				L293.31722,640.62827L292.3571,640.62827L292.3571,637.26791L291.63701,637.26791L291.63701,632.94745L290.67689,632.94745L290.67689,628.62699
				L289.9568,628.62699L289.9568,626.22673L288.99668,626.22673L288.99668,622.86637L288.27658,622.86637L288.27658,615.18556L287.31646,615.18556
				L287.31646,611.8252L286.59637,611.8252L286.59637,608.46484L285.63625,608.46484L285.63625,605.10448L284.91616,605.10448L284.91616,601.74412
				L283.95604,601.74412L283.95604,598.38376L283.23594,598.38376L283.23594,595.74348L282.27582,595.74348L282.27582,592.38313
				L281.55573,592.38313L281.55573,589.02277L280.59561,589.02277L280.59561,585.66241L279.87552,585.66241L279.87552,583.26215
				L278.9154,583.26215L278.9154,582.30205L278.1953,582.30205L278.1953,581.58197L276.51509,581.58197L276.51509,580.62187L274.83488,580.62187
				L274.83488,579.9018L273.15466,579.9018L273.15466,578.94169L272.19454,578.94169L272.19454,578.22162L270.51433,578.22162L270.51433,577.26151
				L268.83412,577.26151L268.83412,576.54144L267.87399,576.54144L267.87399,575.58133L266.19378,575.58133L266.19378,574.86126
				L264.51357,574.86126L264.51357,573.90116L263.79348,573.90116L263.79348,573.18108L262.11326,573.18108L262.11326,572.22098
				L260.43305,572.22098L260.43305,571.5009L258.75284,571.5009L258.75284,570.5408L257.79272,570.5408L257.79272,569.82072L256.1125,569.82072
				L256.1125,568.86062L254.43229,568.86062L254.43229,568.14054L253.7122,568.14054L253.7122,567.18044L252.03198,567.18044L252.03198,566.22034
				L250.35177,566.22034L250.35177,565.50026L248.67156,565.50026L248.67156,564.54016L247.71144,564.54016L247.71144,563.82008
				L246.03122,563.82008L246.03122,562.85998L244.35101,562.85998L244.35101,562.1399L243.63092,562.1399L243.63092,561.1798L241.9507,561.1798
				L241.9507,560.45972L240.03046,560.45972L240.03046,559.49962L238.35025,559.49962L238.35025,558.77954L237.63016,558.77954L
				237.63016,557.81944L235.94994,557.81944L235.94994,557.09937L234.26973,557.09937L234.26973,556.13926L232.58952,556.13926L
				232.58952,555.41919L230.9093,555.41919L230.9093,554.45908L229.22909,554.45908L229.22909,553.73901L227.54888,553.73901L227.54888,552.77891
				L225.86866,552.77891L225.86866,552.05883L224.18845,552.05883L224.18845,551.09873L222.50824,551.09873L222.50824,550.37865
				L220.82802,550.37865L220.82802,549.41855L219.14781,549.41855L219.14781,548.69847L217.4676,548.69847L217.4676,547.73837L215.78738,547.73837
				L215.78738,547.01829L214.10717,547.01829L214.10717,540.29758L214.82726,540.29758L214.82726,532.61676L215.78738,532.61676
				L215.78738,524.93594L216.50748,524.93594L216.50748,517.49515L217.4676,517.49515L217.4676,509.81433L218.18769,509.81433L218.18769,506.45397
				L219.14781,506.45397L219.14781,503.09361L219.8679,503.09361L219.8679,498.77315L220.82802,498.77315L220.82802,489.65218L221.54812,489.65218
				L221.54812,479.5711L222.50824,479.5711L222.50824,472.85039"/>
		</g>
</g></svg>