<?xml version="1.0" encoding="utf-8" standalone="no"?>
<!-- Creator: ESRI ArcMap 10.0.0.2414 -->
<!DOCTYPE svg PUBLIC "-//W3C//DTD SVG 1.1//EN"  "http://www.w3.org/Graphics/SVG/1.1/DTD/svg11.dtd">
<svg width="595.50236pt" height="595.50236pt" viewBox="25 148.377955 545.50236 545.50236" enable-background="new 25 148.377955 545.50236 545.50236"
	version="1.1" xmlns="http://www.w3.org/2000/svg" xmlns:xlink="http://www.w3.org/1999/xlink" >
	<g id="Couches">
		<g id="cont_2">
			<path clip-path="url(#SVG_CP_2)" fill="none" stroke="#999999" stroke-width="0.96012" stroke-miterlimit="10" stroke-linecap="round" stroke-linejoin="round" d="
				M414.77264,861.21177L414.77264,860.25167L412.61236,860.25167L412.61236,855.93121L410.45209,855.93121L410.45209,853.77098
				L406.13154,853.77098L406.13154,851.61075L401.81099,851.61075L401.81099,849.45052L397.49044,849.45052L397.49044,847.29029
				L393.16989,847.29029L393.16989,845.13006L388.84935,845.13006L388.84935,842.96983L386.44904,842.96983L386.44904,838.64937
				L384.28877,838.64937L384.28877,836.48914L382.12849,836.48914L382.12849,834.32891L379.96822,834.32891L379.96822,832.16868
				L377.80795,832.16868L377.80795,830.00845L375.64767,830.00845L375.64767,827.84822L373.4874,827.84822L373.4874,825.68799L371.32712,825.68799
				L371.32712,823.52776L369.16685,823.52776L369.16685,819.2073L367.00657,819.2073L367.00657,817.04707L364.8463,817.04707L364.8463,814.88684
				L362.68603,814.88684L362.68603,812.72661L360.52575,812.72661L360.52575,810.56638L358.36548,810.56638L358.36548,808.40614
				L356.2052,808.40614L356.2052,806.24591L354.04493,806.24591L354.04493,801.92545L351.88466,801.92545L351.88466,799.76522L349.72438,799.76522
				L349.72438,797.60499L347.56411,797.60499L347.56411,795.44476L345.40383,795.44476L345.40383,790.88428L343.24356,790.88428
				L343.24356,788.72405L341.08328,788.72405L341.08328,784.40359L338.92301,784.40359L338.92301,780.08313L336.76274,780.08313
				L336.76274,773.60244L334.60246,773.60244L334.60246,771.44221L332.44219,771.44221L332.44219,769.28198L330.28191,769.28198
				L330.28191,767.12175L325.96137,767.12175L325.96137,764.96152L323.80109,764.96152L323.80109,762.80129L321.64082,762.80129
				L321.64082,760.64106L319.48054,760.64106L319.48054,756.32059L317.32027,756.32059L317.32027,754.16036L312.99972,754.16036
				L312.99972,749.8399L310.59942,749.8399L310.59942,747.67967L308.43914,747.67967L308.43914,745.51944L306.27887,745.51944L306.27887,741.19898
				L304.11859,741.19898L304.11859,736.87852L301.95832,736.87852L301.95832,734.71829L299.79805,734.71829L299.79805,730.39783
				L297.63777,730.39783L297.63777,728.2376L295.4775,728.2376L295.4775,723.91714L293.31722,723.91714L293.31722,721.75691L291.15695,721.75691
				L291.15695,719.59668L288.99668,719.59668L288.99668,717.19643L284.67613,717.19643L284.67613,715.0362L282.51585,715.0362L282.51585,712.87597
				L280.35558,712.87597L280.35558,710.71573L278.1953,710.71573L278.1953,708.5555L276.03503,708.5555L276.03503,706.39527L273.87476,706.39527
				L273.87476,704.23504L271.71448,704.23504L271.71448,702.07481L269.55421,702.07481L269.55421,699.91458L267.39393,699.91458
				L267.39393,697.75435L265.23366,697.75435L265.23366,695.59412L260.91311,695.59412L260.91311,693.43389L258.75284,693.43389
				L258.75284,691.27366L256.59256,691.27366L256.59256,689.11343L254.43229,689.11343L254.43229,686.9532L241.47064,686.9532L241.47064,684.79297
				L198.02513,684.79297L198.02513,682.63274L189.38403,682.63274L189.38403,680.47251L185.06349,680.47251L185.06349,678.31228
				L180.74294,678.31228L180.74294,676.15205L176.42239,676.15205L176.42239,673.99182L169.94157,673.99182L169.94157,671.83159
				L165.62102,671.83159L165.62102,669.67136L161.30047,669.67136L161.30047,667.51113L154.57962,667.51113L154.57962,665.3509L
				150.25907,665.3509L150.25907,663.19067L145.93852,663.19067L145.93852,661.03044L141.61797,661.03044L141.61797,656.70998L139.4577,656.70998
				L139.4577,652.38952L137.29742,652.38952L137.29742,648.06906L135.13715,648.06906L135.13715,645.90883L132.97688,645.90883L
				132.97688,641.58837L130.8166,641.58837L130.8166,639.18811L128.65633,639.18811L128.65633,637.02788L126.49605,637.02788L126.49605,634.86765
				L124.33578,634.86765L124.33578,630.54719L122.1755,630.54719L122.1755,626.22673L120.01523,626.22673L120.01523,619.74604L117.85496,619.74604
				L117.85496,613.26535L115.69468,613.26535L115.69468,602.4642L113.53441,602.4642L113.53441,578.70167L111.37413,578.70167L111.37413,559.01957
				L109.21386,559.01957L109.21386,543.89796L107.05359,543.89796L107.05359,520.13543L104.89331,520.13543L104.89331,509.33428
				L102.73304,509.33428L102.73304,507.17405L100.57276,507.17405L100.57276,505.01382L98.41249,505.01382L98.41249,502.85359L94.09194,502.85359
				L94.09194,500.69335L91.93167,500.69335L91.93167,498.53312L89.77139,498.53312L89.77139,496.37289L87.61112,496.37289L87.61112,494.21266
				L85.45084,494.21266L85.45084,492.05243L83.29057,492.05243L83.29057,489.8922L81.1303,489.8922L81.1303,487.73197L78.72999,487.73197
				L78.72999,485.33172L76.56972,485.33172L76.56972,483.17149L72.24917,483.17149L72.24917,481.01126L70.08889,481.01126L70.08889,478.85103
				L67.92862,478.85103L67.92862,474.53057L65.76835,474.53057L65.76835,472.37034L63.60807,472.37034L63.60807,468.04988L61.4478,468.04988
				L61.4478,463.72942L59.28752,463.72942L59.28752,461.56919L57.12725,461.56919L57.12725,459.40896L54.96698,459.40896L54.96698,455.0885
				L52.8067,455.0885L52.8067,452.92826L50.64643,452.92826L50.64643,448.6078L48.48615,448.6078L48.48615,446.44757L46.32588,446.44757
				L46.32588,444.28734L44.16561,444.28734L44.16561,442.12711L42.00533,442.12711L42.00533,439.96688L37.68478,439.96688L37.68478,437.80665
				L35.52451,437.80665L35.52451,435.64642L33.36423,435.64642L33.36423,433.48619L31.20396,433.48619L31.20396,431.32596L26.88341,431.32596
				L26.88341,429.16573L24.72314,429.16573L24.72314,427.0055L22.56286,427.0055L22.56286,424.84527L20.40259,424.84527L20.40259,422.68504
				L18.24232,422.68504L18.24232,420.52481L13.92177,420.52481L13.92177,418.36458L11.76149,418.36458L11.76149,416.20435L7.44094,416.20435
				L7.44094,414.04412L3.1204,414.04412L3.1204,411.88389L0.72009,411.88389L0.72009,409.48364L-3.60046,409.48364L-3.60046,407.32341
				L-5.76073,407.32341L-5.76073,405.16318L-6.24079,405.16318"/>
			<path clip-path="url(#SVG_CP_2)" fill="none" stroke="#999999" stroke-width="0.96012" stroke-miterlimit="10" stroke-linecap="round" stroke-linejoin="round" d="
				M163.46074,-18.722L163.46074,-17.28184L165.62102,-17.28184L165.62102,-15.12161L169.94157,-15.12161L169.94157,-12.96138L174.26211,-12.96138
				L174.26211,-10.80115L176.42239,-10.80115L176.42239,-8.64092L180.74294,-8.64092L180.74294,-6.48069L185.06349,-6.48069L185.06349,-4.32046
				L189.38403,-4.32046L189.38403,-2.16023L191.54431,-2.16023L191.54431,0L195.86486,0L195.86486,2.16023L200.1854,2.16023L200.1854,4.32046
				L202.34568,4.32046L202.34568,6.48069L206.66623,6.48069L206.66623,8.64092L208.8265,8.64092L208.8265,10.80115L210.98678,10.80115
				L210.98678,12.96138L215.30732,12.96138L215.30732,15.12161L217.4676,15.12161L217.4676,17.28184L219.62787,17.28184L219.62787,19.44207
				L223.94842,19.44207L223.94842,17.28184L230.42924,17.28184L230.42924,15.12161L237.1501,15.12161L237.1501,12.96138L243.63092,12.96138
				L243.63092,15.12161L245.79119,15.12161L245.79119,26.16279L247.95147,26.16279L247.95147,34.80371L250.11174,34.80371L250.11174,45.60486
				L252.27201,45.60486L252.27201,67.20716L254.43229,67.20716L254.43229,88.80946L256.59256,88.80946L256.59256,99.61062L254.43229,99.61062
				L254.43229,119.29271L252.27201,119.29271L252.27201,121.45294L250.11174,121.45294L250.11174,123.61317L247.95147,123.61317
				L247.95147,125.7734L243.63092,125.7734L243.63092,127.93363L241.47064,127.93363L241.47064,130.09386L239.31037,130.09386L239.31037,132.25409
				L237.1501,132.25409L237.1501,134.41432L232.58952,134.41432L232.58952,136.57455L230.42924,136.57455L230.42924,138.73478L226.10869,138.73478
				L226.10869,140.89501L223.94842,140.89501L223.94842,143.05524L217.4676,143.05524L217.4676,145.21547L208.8265,145.21547L208.8265,147.3757
				L204.50595,147.3757L204.50595,160.33709L202.34568,160.33709L202.34568,164.65755L204.50595,164.65755L204.50595,175.4587L206.66623,175.4587
				L206.66623,190.82033L204.50595,190.82033L204.50595,195.14079L202.34568,195.14079L202.34568,199.46126L200.1854,199.46126L
				200.1854,203.78172L198.02513,203.78172L198.02513,210.26241L195.86486,210.26241L195.86486,214.58287L193.70458,214.58287L193.70458,218.90333
				L191.54431,218.90333L191.54431,221.06356L193.70458,221.06356L193.70458,223.22379L198.02513,223.22379L198.02513,225.38402
				L202.34568,225.38402L202.34568,227.54425L206.66623,227.54425L206.66623,229.70448L210.98678,229.70448L210.98678,231.86471
				L215.30732,231.86471L215.30732,234.02494L219.62787,234.02494L219.62787,236.18517L223.94842,236.18517L223.94842,238.3454L
				230.42924,238.3454L230.42924,240.50563L234.98982,240.50563L234.98982,242.66586L239.31037,242.66586L239.31037,244.82609L243.63092,244.82609
				L243.63092,246.98632L247.95147,246.98632L247.95147,249.14655L254.43229,249.14655L254.43229,251.30678L258.75284,251.30678
				L258.75284,253.46701L263.07339,253.46701L263.07339,251.30678L278.1953,251.30678L278.1953,249.14655L293.31722,249.14655L293.31722,246.98632
				L310.59942,246.98632L310.59942,244.82609L319.48054,244.82609L319.48054,246.98632L317.32027,246.98632L317.32027,253.46701
				L315.16,253.46701L315.16,258.0275L312.99972,258.0275L312.99972,262.34796L310.59942,262.34796L310.59942,266.66842L308.43914,266.66842
				L308.43914,270.98888L306.27887,270.98888L306.27887,275.30934L304.11859,275.30934L304.11859,279.6298L301.95832,279.6298L301.95832,281.79003
				L299.79805,281.79003L299.79805,286.11049L297.63777,286.11049L297.63777,290.43095L295.4775,290.43095L295.4775,294.75141L293.31722,294.75141
				L293.31722,299.07187L291.15695,299.07187L291.15695,303.39233L288.99668,303.39233L288.99668,305.55256L286.8364,305.55256L
				286.8364,309.87302L284.67613,309.87302L284.67613,314.19348L282.51585,314.19348L282.51585,318.51394L280.35558,318.51394L280.35558,320.67417
				L282.51585,320.67417L282.51585,322.8344L284.67613,322.8344L284.67613,327.15486L286.8364,327.15486L286.8364,329.31509L288.99668,329.31509
				L288.99668,331.47532L291.15695,331.47532L291.15695,336.03581L293.31722,336.03581L293.31722,338.19604L295.4775,338.19604L
				295.4775,342.5165L297.63777,342.5165L297.63777,344.67673L299.79805,344.67673L299.79805,346.83696L301.95832,346.83696L301.95832,351.15742
				L304.11859,351.15742L304.11859,353.31765L306.27887,353.31765L306.27887,355.47788L308.43914,355.47788L308.43914,359.79834
				L310.59942,359.79834L310.59942,361.95857L312.99972,361.95857L312.99972,366.27903L315.16,366.27903L315.16,368.43926L317.32027,368.43926
				L317.32027,370.59949L319.48054,370.59949L319.48054,374.91995L321.64082,374.91995L321.64082,379.24041L319.48054,379.24041
				L319.48054,381.40064L317.32027,381.40064L317.32027,383.56087L315.16,383.56087L315.16,385.7211L312.99972,385.7211L312.99972,387.88133
				L310.59942,387.88133L310.59942,390.04156L308.43914,390.04156L308.43914,392.20179L306.27887,392.20179L306.27887,394.36202
				L304.11859,394.36202L304.11859,396.52225L301.95832,396.52225L301.95832,398.68248L299.79805,398.68248L299.79805,400.84271
				L297.63777,400.84271L297.63777,403.00294L295.4775,403.00294L295.4775,405.16318L293.31722,405.16318L293.31722,407.32341L291.15695,407.32341
				L291.15695,409.48364L288.99668,409.48364L288.99668,411.88389L286.8364,411.88389L286.8364,414.04412L284.67613,414.04412L284.67613,416.20435
				L282.51585,416.20435L282.51585,418.36458L280.35558,418.36458L280.35558,420.52481L278.1953,420.52481L278.1953,422.68504L276.03503,422.68504
				L276.03503,424.84527L271.71448,424.84527L271.71448,422.68504L269.55421,422.68504L269.55421,418.36458L267.39393,418.36458
				L267.39393,416.20435L265.23366,416.20435L265.23366,414.04412L263.07339,414.04412L263.07339,409.48364L260.91311,409.48364
				L260.91311,407.32341L258.75284,407.32341L258.75284,403.00294L256.59256,403.00294L256.59256,400.84271L254.43229,400.84271
				L254.43229,398.68248L252.27201,398.68248L252.27201,394.36202L250.11174,394.36202L250.11174,392.20179L247.95147,392.20179
				L247.95147,390.04156L245.79119,390.04156L245.79119,385.7211L243.63092,385.7211L243.63092,383.56087L241.47064,383.56087L241.47064,381.40064
				L239.31037,381.40064L239.31037,377.08018L237.1501,377.08018L237.1501,374.91995L234.98982,374.91995L234.98982,372.75972L232.58952,372.75972
				L232.58952,370.59949L230.42924,370.59949L230.42924,366.27903L228.26897,366.27903L228.26897,364.1188L226.10869,364.1188L226.10869,361.95857
				L223.94842,361.95857L223.94842,359.79834L221.78815,359.79834L221.78815,355.47788L219.62787,355.47788L219.62787,353.31765
				L217.4676,353.31765L217.4676,351.15742L215.30732,351.15742L215.30732,348.99719L213.14705,348.99719L213.14705,344.67673L210.98678,344.67673
				L210.98678,342.5165L208.8265,342.5165L208.8265,340.35627L206.66623,340.35627L206.66623,338.19604L204.50595,338.19604L204.50595,333.87558
				L202.34568,333.87558L202.34568,331.47532L200.1854,331.47532L200.1854,329.31509L198.02513,329.31509L198.02513,327.15486L195.86486,327.15486
				L195.86486,322.8344L193.70458,322.8344L193.70458,320.67417L191.54431,320.67417L191.54431,318.51394L189.38403,318.51394L189.38403,316.35371
				L187.22376,316.35371L187.22376,314.19348L185.06349,314.19348L185.06349,312.03325L182.90321,312.03325L182.90321,309.87302
				L180.74294,309.87302L180.74294,305.55256L178.58266,305.55256L178.58266,303.39233L176.42239,303.39233L176.42239,301.2321L
				174.26211,301.2321L174.26211,299.07187L172.10184,299.07187L172.10184,296.91164L169.94157,296.91164L169.94157,294.75141L167.78129,294.75141
				L167.78129,290.43095L165.62102,290.43095L165.62102,288.27072L163.46074,288.27072L163.46074,286.11049L161.30047,286.11049
				L161.30047,283.95026L159.1402,283.95026L159.1402,281.79003L156.73989,281.79003L156.73989,279.6298L154.57962,279.6298L154.57962,275.30934
				L152.41934,275.30934L152.41934,273.14911L150.25907,273.14911L150.25907,270.98888L148.09879,270.98888L148.09879,268.82865
				L145.93852,268.82865L145.93852,266.66842L143.77825,266.66842L143.77825,264.50819L139.4577,264.50819L139.4577,262.34796L137.29742,262.34796
				L137.29742,260.18773L135.13715,260.18773L135.13715,258.0275L132.97688,258.0275L132.97688,255.86727L130.8166,255.86727L130.8166,253.46701
				L128.65633,253.46701L128.65633,251.30678L124.33578,251.30678L124.33578,249.14655L122.1755,249.14655L122.1755,246.98632L120.01523,246.98632
				L120.01523,244.82609L115.69468,244.82609L115.69468,242.66586L113.53441,242.66586L113.53441,240.50563L109.21386,240.50563
				L109.21386,238.3454L107.05359,238.3454L107.05359,236.18517L104.89331,236.18517L104.89331,234.02494L100.57276,234.02494L100.57276,231.86471
				L98.41249,231.86471L98.41249,229.70448L96.25222,229.70448L96.25222,227.54425L94.09194,227.54425L94.09194,225.38402L89.77139,225.38402
				L89.77139,223.22379L74.40944,223.22379L74.40944,225.38402L72.24917,225.38402L72.24917,227.54425L70.08889,227.54425L70.08889,231.86471
				L67.92862,231.86471L67.92862,234.02494L65.76835,234.02494L65.76835,231.86471L61.4478,231.86471L61.4478,229.70448L59.28752,229.70448
				L59.28752,227.54425L57.12725,227.54425L57.12725,225.38402L54.96698,225.38402L54.96698,223.22379L52.8067,223.22379L52.8067,221.06356
				L50.64643,221.06356L50.64643,218.90333L48.48615,218.90333L48.48615,216.7431L46.32588,216.7431L46.32588,214.58287L44.16561,214.58287
				L44.16561,212.42264L42.00533,212.42264L42.00533,210.26241L39.84506,210.26241L39.84506,208.10218L35.52451,208.10218L35.52451,205.94195
				L33.36423,205.94195L33.36423,203.78172L31.20396,203.78172L31.20396,201.62149L29.04369,201.62149L29.04369,199.46126L26.88341,199.46126
				L26.88341,197.30103L24.72314,197.30103L24.72314,195.14079L22.56286,195.14079L22.56286,192.98056L20.40259,192.98056L20.40259,188.6601
				L18.24232,188.6601L18.24232,186.49987L16.08204,186.49987L16.08204,184.33964L13.92177,184.33964L13.92177,182.17941L11.76149,182.17941
				L11.76149,180.01918L9.60122,180.01918L9.60122,175.4587L7.44094,175.4587L7.44094,173.29847L5.28067,173.29847L5.28067,168.97801
				L3.1204,168.97801L3.1204,164.65755L0.72009,164.65755L0.72009,162.49732L-3.60046,162.49732L-3.60046,160.33709L-5.76073,160.33709
				L-5.76073,158.17686L-6.24079,158.17686"/>
			<path clip-path="url(#SVG_CP_2)" fill="none" stroke="#999999" stroke-width="0.96012" stroke-miterlimit="10" stroke-linecap="round" stroke-linejoin="round" d="
				M-6.24079,218.90333L-5.76073,218.90333L-5.76073,214.58287L-3.60046,214.58287L-3.60046,212.42264L0.72009,212.42264L0.72009,214.58287
				L5.28067,214.58287L5.28067,216.7431L7.44094,216.7431L7.44094,218.90333L9.60122,218.90333L9.60122,221.06356L13.92177,221.06356
				L13.92177,223.22379L16.08204,223.22379L16.08204,225.38402L20.40259,225.38402L20.40259,227.54425L22.56286,227.54425L22.56286,229.70448
				L24.72314,229.70448L24.72314,231.86471L29.04369,231.86471L29.04369,234.02494L31.20396,234.02494L31.20396,236.18517L35.52451,236.18517
				L35.52451,238.3454L37.68478,238.3454L37.68478,240.50563L39.84506,240.50563L39.84506,242.66586L42.00533,242.66586L42.00533,244.82609
				L44.16561,244.82609L44.16561,246.98632L46.32588,246.98632L46.32588,251.30678L48.48615,251.30678L48.48615,253.46701L46.32588,253.46701
				L46.32588,255.86727L44.16561,255.86727L44.16561,258.0275L42.00533,258.0275L42.00533,260.18773L39.84506,260.18773L39.84506,262.34796
				L37.68478,262.34796L37.68478,264.50819L35.52451,264.50819L35.52451,266.66842L33.36423,266.66842L33.36423,268.82865L31.20396,268.82865
				L31.20396,270.98888L29.04369,270.98888L29.04369,273.14911L26.88341,273.14911L26.88341,275.30934L24.72314,275.30934L24.72314,277.46957
				L22.56286,277.46957L22.56286,281.79003L20.40259,281.79003L20.40259,283.95026L18.24232,283.95026L18.24232,286.11049L16.08204,286.11049
				L16.08204,288.27072L13.92177,288.27072L13.92177,292.59118L11.76149,292.59118L11.76149,294.75141L9.60122,294.75141L9.60122,299.07187
				L11.76149,299.07187L11.76149,301.2321L16.08204,301.2321L16.08204,303.39233L18.24232,303.39233L18.24232,305.55256L20.40259,305.55256
				L20.40259,307.71279L24.72314,307.71279L24.72314,309.87302L26.88341,309.87302L26.88341,312.03325L29.04369,312.03325L29.04369,314.19348
				L31.20396,314.19348L31.20396,316.35371L35.52451,316.35371L35.52451,318.51394L37.68478,318.51394L37.68478,320.67417L42.00533,320.67417
				L42.00533,318.51394L44.16561,318.51394L44.16561,316.35371L46.32588,316.35371L46.32588,314.19348L48.48615,314.19348L48.48615,312.03325
				L50.64643,312.03325L50.64643,309.87302L52.8067,309.87302L52.8067,307.71279L54.96698,307.71279L54.96698,305.55256L57.12725,305.55256
				L57.12725,307.71279L59.28752,307.71279L59.28752,312.03325L61.4478,312.03325L61.4478,314.19348L63.60807,314.19348L63.60807,316.35371
				L65.76835,316.35371L65.76835,318.51394L67.92862,318.51394L67.92862,320.67417L70.08889,320.67417L70.08889,322.8344L72.24917,322.8344
				L72.24917,324.99463L74.40944,324.99463L74.40944,327.15486L76.56972,327.15486L76.56972,331.47532L78.72999,331.47532L78.72999,333.87558
				L81.1303,333.87558L81.1303,336.03581L83.29057,336.03581L83.29057,338.19604L85.45084,338.19604L85.45084,340.35627L87.61112,340.35627
				L87.61112,342.5165L89.77139,342.5165L89.77139,344.67673L91.93167,344.67673L91.93167,346.83696L94.09194,346.83696L94.09194,351.15742
				L96.25222,351.15742L96.25222,353.31765L98.41249,353.31765L98.41249,355.47788L100.57276,355.47788L100.57276,357.63811L102.73304,357.63811
				L102.73304,359.79834L104.89331,359.79834L104.89331,361.95857L107.05359,361.95857L107.05359,364.1188L109.21386,364.1188L109.21386,366.27903
				L111.37413,366.27903L111.37413,370.59949L113.53441,370.59949L113.53441,372.75972L115.69468,372.75972L115.69468,374.91995
				L117.85496,374.91995L117.85496,377.08018L120.01523,377.08018L120.01523,379.24041L122.1755,379.24041L122.1755,381.40064L124.33578,381.40064
				L124.33578,383.56087L126.49605,383.56087L126.49605,385.7211L128.65633,385.7211L128.65633,390.04156L130.8166,390.04156L130.8166,392.20179
				L132.97688,392.20179L132.97688,394.36202L135.13715,394.36202L135.13715,396.52225L137.29742,396.52225L137.29742,398.68248
				L139.4577,398.68248L139.4577,400.84271L141.61797,400.84271L141.61797,403.00294L143.77825,403.00294L143.77825,407.32341L145.93852,407.32341
				L145.93852,409.48364L148.09879,409.48364L148.09879,407.32341L150.25907,407.32341L150.25907,405.16318L152.41934,405.16318
				L152.41934,403.00294L156.73989,403.00294L156.73989,400.84271L159.1402,400.84271L159.1402,398.68248L161.30047,398.68248L161.30047,396.52225
				L163.46074,396.52225L163.46074,394.36202L167.78129,394.36202L167.78129,392.20179L165.62102,392.20179L165.62102,390.04156
				L163.46074,390.04156L163.46074,385.7211L161.30047,385.7211L161.30047,383.56087L159.1402,383.56087L159.1402,381.40064L156.73989,381.40064
				L156.73989,379.24041L154.57962,379.24041L154.57962,374.91995L156.73989,374.91995L156.73989,372.75972L159.1402,372.75972L
				159.1402,370.59949L163.46074,370.59949L163.46074,368.43926L165.62102,368.43926L165.62102,366.27903L167.78129,366.27903L167.78129,364.1188
				L169.94157,364.1188L169.94157,361.95857L174.26211,361.95857L174.26211,359.79834L176.42239,359.79834L176.42239,357.63811L
				180.74294,357.63811L180.74294,359.79834L182.90321,359.79834L182.90321,361.95857L185.06349,361.95857L185.06349,366.27903L
				187.22376,366.27903L187.22376,368.43926L189.38403,368.43926L189.38403,370.59949L191.54431,370.59949L191.54431,372.75972L
				193.70458,372.75972L193.70458,374.91995L195.86486,374.91995L195.86486,377.08018L198.02513,377.08018L198.02513,381.40064L
				200.1854,381.40064L200.1854,383.56087L202.34568,383.56087L202.34568,385.7211L204.50595,385.7211L204.50595,387.88133L206.66623,387.88133
				L206.66623,390.04156L208.8265,390.04156L208.8265,392.20179L210.98678,392.20179L210.98678,394.36202L213.14705,394.36202L213.14705,396.52225
				L215.30732,396.52225L215.30732,398.68248L217.4676,398.68248L217.4676,400.84271L219.62787,400.84271L219.62787,403.00294L221.78815,403.00294
				L221.78815,405.16318L223.94842,405.16318L223.94842,407.32341L226.10869,407.32341L226.10869,411.88389L228.26897,411.88389
				L228.26897,414.04412L230.42924,414.04412L230.42924,416.20435L232.58952,416.20435L232.58952,418.36458L234.98982,418.36458
				L234.98982,422.68504L237.1501,422.68504L237.1501,424.84527L239.31037,424.84527L239.31037,427.0055L241.47064,427.0055L241.47064,429.16573
				L243.63092,429.16573L243.63092,433.48619L245.79119,433.48619L245.79119,435.64642L247.95147,435.64642L247.95147,437.80665
				L250.11174,437.80665L250.11174,439.96688L252.27201,439.96688L252.27201,444.28734L254.43229,444.28734L254.43229,446.44757
				L256.59256,446.44757L256.59256,448.6078L258.75284,448.6078L258.75284,450.76803L260.91311,450.76803L260.91311,455.0885L263.07339,455.0885
				L263.07339,457.24873L265.23366,457.24873L265.23366,459.40896L267.39393,459.40896L267.39393,463.72942L269.55421,463.72942
				L269.55421,465.88965L271.71448,465.88965L271.71448,470.21011L273.87476,470.21011L273.87476,472.37034L276.03503,472.37034
				L276.03503,476.6908L278.1953,476.6908L278.1953,478.85103L280.35558,478.85103L280.35558,483.17149L282.51585,483.17149L282.51585,487.73197
				L284.67613,487.73197L284.67613,496.37289L286.8364,496.37289L286.8364,505.01382L288.99668,505.01382L288.99668,513.65474L291.15695,513.65474
				L291.15695,522.29566L293.31722,522.29566L293.31722,528.77635L295.4775,528.77635L295.4775,530.93658L273.87476,530.93658L273.87476,533.09681
				L247.95147,533.09681L247.95147,535.25704L239.31037,535.25704L239.31037,533.09681L232.58952,533.09681L232.58952,530.93658
				L228.26897,530.93658L228.26897,528.77635L221.78815,528.77635L221.78815,526.61612L217.4676,526.61612L217.4676,530.93658L215.30732,530.93658
				L215.30732,537.41727L213.14705,537.41727L213.14705,541.73773L210.98678,541.73773L210.98678,548.21842L208.8265,548.21842L
				208.8265,552.53888L206.66623,552.53888L206.66623,556.85934L204.50595,556.85934L204.50595,563.34003L202.34568,563.34003L202.34568,567.90052
				L200.1854,567.90052L200.1854,572.22098L198.02513,572.22098L198.02513,578.70167L195.86486,578.70167L195.86486,583.02213L193.70458,583.02213
				L193.70458,589.50282L191.54431,589.50282L191.54431,595.98351L189.38403,595.98351L189.38403,600.30397L187.22376,600.30397
				L187.22376,606.78466L185.06349,606.78466L185.06349,611.10512L182.90321,611.10512L182.90321,617.58581L180.74294,617.58581
				L180.74294,619.74604L200.1854,619.74604L200.1854,617.58581L204.50595,617.58581L204.50595,615.42558L206.66623,615.42558L206.66623,613.26535
				L210.98678,613.26535L210.98678,611.10512L213.14705,611.10512L213.14705,608.94489L217.4676,608.94489L217.4676,606.78466L219.62787,606.78466
				L219.62787,604.62443L221.78815,604.62443L221.78815,602.4642L223.94842,602.4642L223.94842,600.30397L228.26897,600.30397L228.26897,598.14374
				L230.42924,598.14374L230.42924,595.98351L232.58952,595.98351L232.58952,593.82328L237.1501,593.82328L237.1501,591.66305L239.31037,591.66305
				L239.31037,589.50282L241.47064,589.50282L241.47064,587.34259L243.63092,587.34259L243.63092,585.18236L247.95147,585.18236
				L247.95147,583.02213L250.11174,583.02213L250.11174,580.8619L252.27201,580.8619L252.27201,578.70167L254.43229,578.70167L254.43229,576.54144
				L258.75284,576.54144L258.75284,574.38121L260.91311,574.38121L260.91311,572.22098L263.07339,572.22098L263.07339,570.06075
				L267.39393,570.06075L267.39393,567.90052L271.71448,567.90052L271.71448,570.06075L273.87476,570.06075L273.87476,574.38121
				L276.03503,574.38121L276.03503,576.54144L278.1953,576.54144L278.1953,578.70167L280.35558,578.70167L280.35558,583.02213L282.51585,583.02213
				L282.51585,585.18236L284.67613,585.18236L284.67613,587.34259L286.8364,587.34259L286.8364,591.66305L288.99668,591.66305L288.99668,593.82328
				L291.15695,593.82328L291.15695,595.98351L293.31722,595.98351L293.31722,598.14374L295.4775,598.14374L295.4775,602.4642L297.63777,602.4642
				L297.63777,604.62443L299.79805,604.62443L299.79805,606.78466L301.95832,606.78466L301.95832,611.10512L304.11859,611.10512
				L304.11859,613.26535L306.27887,613.26535L306.27887,615.42558L308.43914,615.42558L308.43914,619.74604L310.59942,619.74604
				L310.59942,621.90627L312.99972,621.90627L312.99972,624.0665L315.16,624.0665L315.16,626.22673L317.32027,626.22673L317.32027,630.54719
				L319.48054,630.54719L319.48054,632.70742L321.64082,632.70742L321.64082,634.86765L323.80109,634.86765L323.80109,639.18811
				L325.96137,639.18811L325.96137,641.58837L328.12164,641.58837L328.12164,643.7486L330.28191,643.7486L330.28191,648.06906L332.44219,648.06906
				L332.44219,650.22929L334.60246,650.22929L334.60246,652.38952L336.76274,652.38952L336.76274,656.70998L338.92301,656.70998
				L338.92301,658.87021L341.08328,658.87021L341.08328,661.03044L343.24356,661.03044L343.24356,663.19067L345.40383,663.19067
				L345.40383,667.51113L347.56411,667.51113L347.56411,669.67136L349.72438,669.67136L349.72438,671.83159L351.88466,671.83159
				L351.88466,676.15205L354.04493,676.15205L354.04493,678.31228L356.2052,678.31228L356.2052,680.47251L358.36548,680.47251L358.36548,684.79297
				L360.52575,684.79297L360.52575,686.9532L362.68603,686.9532L362.68603,689.11343L364.8463,689.11343L364.8463,691.27366L367.00657,691.27366
				L367.00657,695.59412L369.16685,695.59412L369.16685,697.75435L371.32712,697.75435L371.32712,699.91458L373.4874,699.91458L
				373.4874,704.23504L375.64767,704.23504L375.64767,706.39527L377.80795,706.39527L377.80795,708.5555L379.96822,708.5555L379.96822,712.87597
				L382.12849,712.87597L382.12849,715.0362L384.28877,715.0362L384.28877,717.19643L386.44904,717.19643L386.44904,721.75691L388.84935,721.75691
				L388.84935,723.91714L391.00962,723.91714L391.00962,726.07737L393.16989,726.07737L393.16989,728.2376L395.33017,728.2376L395.33017,732.55806
				L397.49044,732.55806L397.49044,734.71829L399.65072,734.71829L399.65072,736.87852L401.81099,736.87852L401.81099,741.19898
				L403.97127,741.19898L403.97127,743.35921L406.13154,743.35921L406.13154,747.67967L408.29181,747.67967L408.29181,758.48082
				L410.45209,758.48082L410.45209,777.9229L408.29181,777.9229L408.29181,793.04451L410.45209,793.04451L410.45209,797.60499L412.61236,797.60499
				L412.61236,801.92545L414.77264,801.92545L414.77264,806.24591L416.93291,806.24591L416.93291,812.72661L419.09318,812.72661
				L419.09318,814.88684L421.25346,814.88684L421.25346,817.04707L429.89456,817.04707L429.89456,819.2073L438.53565,819.2073L438.53565,821.36753
				L447.17675,821.36753L447.17675,823.52776L453.65757,823.52776L453.65757,825.68799L455.81785,825.68799L455.81785,827.84822
				L457.97812,827.84822L457.97812,832.16868L460.13839,832.16868L460.13839,834.32891L462.29867,834.32891L462.29867,838.64937
				L464.45894,838.64937L464.45894,840.8096L466.85925,840.8096L466.85925,845.13006L469.01952,845.13006L469.01952,847.29029L471.17979,847.29029
				L471.17979,851.61075L469.01952,851.61075L469.01952,849.45052L464.45894,849.45052L464.45894,847.29029L460.13839,847.29029
				L460.13839,851.61075L457.97812,851.61075L457.97812,855.93121L455.81785,855.93121L455.81785,860.25167L453.65757,860.25167
				L453.65757,861.21177"/>
			<path clip-path="url(#SVG_CP_2)" fill="none" stroke="#999999" stroke-width="0.96012" stroke-miterlimit="10" stroke-linecap="round" stroke-linejoin="round" d="
				M276.03503,424.84527L278.1953,424.84527L278.1953,422.68504L280.35558,422.68504L280.35558,420.52481L282.51585,420.52481L282.51585,418.36458
				L284.67613,418.36458L284.67613,416.20435L286.8364,416.20435L286.8364,414.04412L288.99668,414.04412L288.99668,411.88389L291.15695,411.88389
				L291.15695,409.48364L293.31722,409.48364L293.31722,407.32341L295.4775,407.32341L295.4775,405.16318L297.63777,405.16318L297.63777,403.00294
				L299.79805,403.00294L299.79805,400.84271L301.95832,400.84271L301.95832,398.68248L304.11859,398.68248L304.11859,396.52225
				L306.27887,396.52225L306.27887,394.36202L308.43914,394.36202L308.43914,392.20179L310.59942,392.20179L310.59942,390.04156
				L312.99972,390.04156L312.99972,387.88133L315.16,387.88133L315.16,385.7211L317.32027,385.7211L317.32027,383.56087L319.48054,383.56087
				L319.48054,381.40064L321.64082,381.40064L321.64082,379.24041L323.80109,379.24041L323.80109,381.40064L325.96137,381.40064
				L325.96137,383.56087L328.12164,383.56087L328.12164,385.7211L330.28191,385.7211L330.28191,390.04156L332.44219,390.04156L332.44219,392.20179
				L334.60246,392.20179L334.60246,394.36202L336.76274,394.36202L336.76274,398.68248L338.92301,398.68248L338.92301,400.84271
				L341.08328,400.84271L341.08328,405.16318L343.24356,405.16318L343.24356,407.32341L345.40383,407.32341L345.40383,409.48364
				L347.56411,409.48364L347.56411,414.04412L349.72438,414.04412L349.72438,416.20435L351.88466,416.20435L351.88466,418.36458
				L354.04493,418.36458L354.04493,422.68504L356.2052,422.68504L356.2052,424.84527L358.36548,424.84527L358.36548,429.16573L360.52575,429.16573
				L360.52575,431.32596L362.68603,431.32596L362.68603,433.48619L364.8463,433.48619L364.8463,437.80665L490.62226,437.80665L490.62226,442.12711
				L492.78254,442.12711L492.78254,448.6078L494.94281,448.6078L494.94281,452.92826L497.10308,452.92826L497.10308,457.24873L499.26336,457.24873
				L499.26336,463.72942L501.42363,463.72942L501.42363,468.04988L503.58391,468.04988L503.58391,472.37034L505.74418,472.37034
				L505.74418,478.85103L507.90446,478.85103L507.90446,483.17149L510.06473,483.17149L510.06473,487.73197L512.225,487.73197L512.225,494.21266
				L514.38528,494.21266L514.38528,498.53312L516.54555,498.53312L516.54555,505.01382L518.70583,505.01382L518.70583,509.33428
				L520.8661,509.33428L520.8661,513.65474L523.02637,513.65474L523.02637,520.13543L525.18665,520.13543L525.18665,524.45589L527.34692,524.45589
				L527.34692,528.77635L529.5072,528.77635L529.5072,533.09681L531.66747,533.09681L531.66747,530.93658L553.51024,530.93658L553.51024,528.77635
				L577.27326,528.77635L577.27326,526.61612L598.876,526.61612L598.876,524.45589L601.9964,524.45589M601.9964,834.32891L601.03627,834.32891
				L601.03627,838.64937L598.876,838.64937L598.876,845.13006L596.71573,845.13006L596.71573,849.45052L594.55545,849.45052L594.55545,853.77098
				L592.39518,853.77098L592.39518,860.25167L590.2349,860.25167L590.2349,861.21177M523.02637,861.21177L523.02637,860.25167L520.8661,860.25167
				L520.8661,858.09144L518.70583,858.09144L518.70583,853.77098L516.54555,853.77098L516.54555,851.61075L514.38528,851.61075L
				514.38528,849.45052L512.225,849.45052L512.225,845.13006L510.06473,845.13006L510.06473,840.8096L507.90446,840.8096L507.90446,834.32891
				L505.74418,834.32891L505.74418,830.00845L503.58391,830.00845L503.58391,823.52776L501.42363,823.52776L501.42363,819.2073L
				499.26336,819.2073L499.26336,812.72661L497.10308,812.72661L497.10308,806.24591L494.94281,806.24591L494.94281,793.04451L492.78254,793.04451
				L492.78254,782.24336L490.62226,782.24336L490.62226,769.28198L488.46199,769.28198L488.46199,758.48082L486.30171,758.48082
				L486.30171,754.16036L484.14144,754.16036L484.14144,749.8399L481.98117,749.8399L481.98117,745.51944L479.82089,745.51944L479.82089,743.35921
				L477.66062,743.35921L477.66062,739.03875L475.50034,739.03875L475.50034,734.71829L473.34007,734.71829L473.34007,730.39783
				L471.17979,730.39783L471.17979,728.2376L469.01952,728.2376L469.01952,726.07737L466.85925,726.07737L466.85925,723.91714L464.45894,723.91714
				L464.45894,721.75691L462.29867,721.75691L462.29867,719.59668L460.13839,719.59668L460.13839,717.19643L457.97812,717.19643
				L457.97812,715.0362L453.65757,715.0362L453.65757,712.87597L451.4973,712.87597L451.4973,710.71573L449.33702,710.71573L449.33702,708.5555
				L445.01647,708.5555L445.01647,706.39527L442.8562,706.39527L442.8562,704.23504L440.69593,704.23504L440.69593,702.07481L436.37538,702.07481
				L436.37538,699.91458L434.2151,699.91458L434.2151,697.75435L432.05483,697.75435L432.05483,695.59412L429.89456,695.59412L429.89456,693.43389
				L427.73428,693.43389L427.73428,689.11343L425.57401,689.11343L425.57401,684.79297L423.41373,684.79297L423.41373,682.63274
				L421.25346,682.63274L421.25346,678.31228L419.09318,678.31228L419.09318,673.99182L416.93291,673.99182L416.93291,669.67136
				L414.77264,669.67136L414.77264,665.3509L412.61236,665.3509L412.61236,661.03044L410.45209,661.03044L410.45209,656.70998L408.29181,656.70998
				L408.29181,652.38952L406.13154,652.38952L406.13154,650.22929L403.97127,650.22929L403.97127,645.90883L401.81099,645.90883
				L401.81099,641.58837L399.65072,641.58837L399.65072,637.02788L397.49044,637.02788L397.49044,632.70742L395.33017,632.70742
				L395.33017,628.38696L393.16989,628.38696L393.16989,624.0665L391.00962,624.0665L391.00962,619.74604L388.84935,619.74604L388.84935,617.58581
				L386.44904,617.58581L386.44904,613.26535L384.28877,613.26535L384.28877,608.94489L382.12849,608.94489L382.12849,604.62443
				L379.96822,604.62443L379.96822,600.30397L377.80795,600.30397L377.80795,595.98351L375.64767,595.98351L375.64767,591.66305
				L373.4874,591.66305L373.4874,587.34259L371.32712,587.34259L371.32712,583.02213L369.16685,583.02213L369.16685,578.70167L367.00657,578.70167
				L367.00657,576.54144L364.8463,576.54144L364.8463,572.22098L362.68603,572.22098L362.68603,567.90052L360.52575,567.90052L360.52575,563.34003
				L358.36548,563.34003L358.36548,561.1798L356.2052,561.1798L356.2052,556.85934L354.04493,556.85934L354.04493,552.53888L351.88466,552.53888
				L351.88466,550.37865L349.72438,550.37865L349.72438,546.05819L347.56411,546.05819L347.56411,541.73773L345.40383,541.73773
				L345.40383,539.5775L343.24356,539.5775L343.24356,535.25704L341.08328,535.25704L341.08328,530.93658L338.92301,530.93658L338.92301,528.77635
				L336.76274,528.77635L336.76274,524.45589L334.60246,524.45589L334.60246,520.13543L332.44219,520.13543L332.44219,517.9752L
				330.28191,517.9752L330.28191,513.65474L328.12164,513.65474L328.12164,509.33428L325.96137,509.33428L325.96137,507.17405L323.80109,507.17405
				L323.80109,502.85359L321.64082,502.85359L321.64082,498.53312L319.48054,498.53312L319.48054,496.37289L317.32027,496.37289
				L317.32027,492.05243L315.16,492.05243L315.16,489.8922L312.99972,489.8922L312.99972,485.33172L310.59942,485.33172L310.59942,481.01126
				L308.43914,481.01126L308.43914,478.85103L306.27887,478.85103L306.27887,474.53057L304.11859,474.53057L304.11859,472.37034
				L301.95832,472.37034L301.95832,468.04988L299.79805,468.04988L299.79805,463.72942L297.63777,463.72942L297.63777,461.56919
				L295.4775,461.56919L295.4775,457.24873L293.31722,457.24873L293.31722,455.0885L291.15695,455.0885L291.15695,450.76803L288.99668,450.76803
				L288.99668,446.44757L286.8364,446.44757L286.8364,444.28734L284.67613,444.28734L284.67613,439.96688L282.51585,439.96688L282.51585,437.80665
				L280.35558,437.80665L280.35558,433.48619L278.1953,433.48619L278.1953,431.32596L276.03503,431.32596L276.03503,429.16573L273.87476,429.16573
				L273.87476,427.0055L276.03503,427.0055L276.03503,424.84527"/>
		</g>
</g></svg>