<?xml version="1.0" encoding="utf-8" standalone="no"?>
<!-- Creator: ESRI ArcMap 10.0.0.2414 -->
<!DOCTYPE svg PUBLIC "-//W3C//DTD SVG 1.1//EN"  "http://www.w3.org/Graphics/SVG/1.1/DTD/svg11.dtd">
<svg width="595.50236pt" height="595.50236pt" viewBox="25 148.377955 545.50236 545.50236" enable-background="new 25 148.377955 545.50236 545.50236"
	version="1.1" xmlns="http://www.w3.org/2000/svg" xmlns:xlink="http://www.w3.org/1999/xlink" >
	<g id="Couches">
		<g id="cont_2">
			<path clip-path="url(#SVG_CP_2)" fill="none" stroke="#999999" stroke-width="0.96012" stroke-miterlimit="10" stroke-linecap="round" stroke-linejoin="round" d="
				M303.87856,417.64451L303.63853,417.64451L303.63853,417.40448L303.87856,417.40448L303.87856,417.64451"/>
			<path clip-path="url(#SVG_CP_2)" fill="none" stroke="#999999" stroke-width="0.96012" stroke-miterlimit="10" stroke-linecap="round" stroke-linejoin="round" d="
				M267.63396,453.16829L265.23366,453.16829L265.23366,452.92826L265.47369,452.92826L265.47369,452.68824L265.95375,452.68824
				L266.91387,452.68824L267.1539,452.68824L267.1539,452.92826L267.63396,452.92826L267.63396,453.16829"/>
			<path clip-path="url(#SVG_CP_2)" fill="none" stroke="#999999" stroke-width="0.96012" stroke-miterlimit="10" stroke-linecap="round" stroke-linejoin="round" d="
				M264.03351,453.64834L264.03351,453.40832L264.03351,453.64834L264.03351,453.64834"/>
			<path clip-path="url(#SVG_CP_2)" fill="none" stroke="#999999" stroke-width="0.96012" stroke-miterlimit="10" stroke-linecap="round" stroke-linejoin="round" d="
				M271.47445,457.0087L271.47445,456.76867L271.47445,457.0087"/>
			<path clip-path="url(#SVG_CP_2)" fill="none" stroke="#999999" stroke-width="0.96012" stroke-miterlimit="10" stroke-linecap="round" stroke-linejoin="round" d="
				M271.71448,457.0087L271.47445,457.0087L271.71448,457.0087L271.71448,457.0087"/>
			<path clip-path="url(#SVG_CP_2)" fill="none" stroke="#999999" stroke-width="0.96012" stroke-miterlimit="10" stroke-linecap="round" stroke-linejoin="round" d="
				M271.95451,457.24873L271.71448,457.24873L271.71448,457.0087L271.95451,457.0087L271.95451,457.24873"/>
			<path clip-path="url(#SVG_CP_2)" fill="none" stroke="#999999" stroke-width="0.96012" stroke-miterlimit="10" stroke-linecap="round" stroke-linejoin="round" d="
				M271.95451,457.48875L271.95451,457.24873L271.95451,457.48875"/>
			<path clip-path="url(#SVG_CP_2)" fill="none" stroke="#999999" stroke-width="0.96012" stroke-miterlimit="10" stroke-linecap="round" stroke-linejoin="round" d="
				M272.19454,457.72878L271.95451,457.72878L271.95451,457.48875L272.19454,457.48875L272.19454,457.72878"/>
			<path clip-path="url(#SVG_CP_2)" fill="none" stroke="#999999" stroke-width="0.96012" stroke-miterlimit="10" stroke-linecap="round" stroke-linejoin="round" d="
				M272.43457,457.72878L272.19454,457.72878L272.43457,457.72878L272.43457,457.72878"/>
			<path clip-path="url(#SVG_CP_2)" fill="none" stroke="#999999" stroke-width="0.96012" stroke-miterlimit="10" stroke-linecap="round" stroke-linejoin="round" d="
				M272.6746,457.9688L272.43457,457.9688L272.43457,457.72878L272.6746,457.72878L272.6746,457.9688"/>
			<path clip-path="url(#SVG_CP_2)" fill="none" stroke="#999999" stroke-width="0.96012" stroke-miterlimit="10" stroke-linecap="round" stroke-linejoin="round" d="
				M273.87476,459.16893L273.63473,459.16893L273.63473,458.9289L273.3947,458.9289L273.15466,458.9289L273.15466,458.68888L273.15466,458.44885
				L272.91463,458.44885L272.91463,458.20883L272.6746,458.20883L272.6746,457.9688L272.91463,457.9688L272.91463,458.20883L273.15466,458.20883
				L273.15466,458.44885L273.3947,458.44885L273.3947,458.68888L273.63473,458.68888L273.63473,458.9289L273.87476,458.9289L273.87476,459.16893
				"/>
			<path clip-path="url(#SVG_CP_2)" fill="none" stroke="#999999" stroke-width="0.96012" stroke-miterlimit="10" stroke-linecap="round" stroke-linejoin="round" d="
				M274.11479,459.40896L273.87476,459.40896L273.87476,459.16893L274.11479,459.16893L274.11479,459.40896"/>
			<path clip-path="url(#SVG_CP_2)" fill="none" stroke="#999999" stroke-width="0.96012" stroke-miterlimit="10" stroke-linecap="round" stroke-linejoin="round" d="
				M274.35482,459.64898L274.11479,459.64898L274.11479,459.40896L274.35482,459.40896L274.35482,459.64898"/>
			<path clip-path="url(#SVG_CP_2)" fill="none" stroke="#999999" stroke-width="0.96012" stroke-miterlimit="10" stroke-linecap="round" stroke-linejoin="round" d="
				M274.35482,459.64898L274.35482,459.64898"/>
			<path clip-path="url(#SVG_CP_2)" fill="none" stroke="#999999" stroke-width="0.96012" stroke-miterlimit="10" stroke-linecap="round" stroke-linejoin="round" d="
				M274.59485,459.88901L274.35482,459.88901L274.35482,459.64898L274.59485,459.64898L274.59485,459.88901"/>
			<path clip-path="url(#SVG_CP_2)" fill="none" stroke="#999999" stroke-width="0.96012" stroke-miterlimit="10" stroke-linecap="round" stroke-linejoin="round" d="
				M274.83488,460.12903L274.59485,460.12903L274.59485,459.88901L274.83488,459.88901L274.83488,460.12903"/>
			<path clip-path="url(#SVG_CP_2)" fill="none" stroke="#999999" stroke-width="0.96012" stroke-miterlimit="10" stroke-linecap="round" stroke-linejoin="round" d="
				M275.07491,460.12903L274.83488,460.12903L275.07491,460.12903L275.07491,460.12903"/>
			<path clip-path="url(#SVG_CP_2)" fill="none" stroke="#999999" stroke-width="0.96012" stroke-miterlimit="10" stroke-linecap="round" stroke-linejoin="round" d="
				M275.07491,460.36906L275.07491,460.12903L275.07491,460.36906"/>
			<path clip-path="url(#SVG_CP_2)" fill="none" stroke="#999999" stroke-width="0.96012" stroke-miterlimit="10" stroke-linecap="round" stroke-linejoin="round" d="
				M275.31494,460.60908L275.07491,460.60908L275.07491,460.36906L275.31494,460.36906L275.31494,460.60908"/>
			<path clip-path="url(#SVG_CP_2)" fill="none" stroke="#999999" stroke-width="0.96012" stroke-miterlimit="10" stroke-linecap="round" stroke-linejoin="round" d="
				M275.55497,460.84911L275.31494,460.84911L275.31494,460.60908L275.55497,460.60908L275.55497,460.84911"/>
			<path clip-path="url(#SVG_CP_2)" fill="none" stroke="#999999" stroke-width="0.96012" stroke-miterlimit="10" stroke-linecap="round" stroke-linejoin="round" d="
				M258.03275,461.32916L258.03275,460.84911L258.27278,460.84911L258.27278,460.36906L258.51281,460.36906L258.51281,460.12903
				L258.51281,459.64898L258.75284,459.64898L258.75284,458.9289L258.99287,458.9289L258.99287,458.44885L258.99287,457.9688L259.2329,457.9688
				L259.2329,457.48875L259.47293,457.48875L259.47293,457.24873L259.71296,457.24873L259.71296,457.0087L259.71296,456.52865L259.95299,456.52865
				L260.19302,456.52865L260.19302,456.0486L260.19302,455.80857L260.43305,455.80857L260.67308,455.80857L260.67308,455.56855L
				260.91311,455.56855L260.91311,455.32852L261.15314,455.32852L261.15314,455.0885L261.39317,455.0885L261.39317,454.84847L261.39317,454.60844
				L261.6332,454.60844L262.11326,454.60844L262.11326,454.36842L262.35329,454.36842L262.35329,454.12839L262.83335,454.12839L
				262.83335,453.88837L263.31342,453.88837L263.55345,453.88837L263.55345,453.64834L264.03351,453.64834L264.03351,453.88837L
				263.79348,453.88837L263.55345,453.88837L263.55345,454.12839L263.31342,454.12839L263.31342,454.36842L263.31342,454.60844L
				263.07339,454.60844L262.83335,454.60844L262.83335,454.84847L262.59332,454.84847L262.59332,455.0885L262.35329,455.0885L262.35329,455.32852
				L262.11326,455.32852L262.11326,455.56855L261.87323,455.56855L261.87323,455.80857L261.6332,455.80857L261.39317,455.80857L
				261.39317,456.0486L261.39317,456.28862L260.91311,456.28862L260.91311,456.52865L260.67308,456.52865L260.67308,456.76867L260.43305,456.76867
				L260.43305,457.0087L260.19302,457.0087L260.19302,457.24873L259.95299,457.24873L259.95299,457.48875L259.71296,457.48875L259.71296,457.72878
				L259.71296,458.20883L259.47293,458.20883L259.47293,458.68888L259.2329,458.68888L259.2329,458.9289L258.99287,458.9289L258.99287,459.64898
				L258.99287,459.88901L258.75284,459.88901L258.75284,460.12903L258.51281,460.12903L258.51281,460.84911L258.51281,461.08913
				L258.27278,461.08913L258.27278,461.32916L258.03275,461.32916"/>
			<path clip-path="url(#SVG_CP_2)" fill="none" stroke="#999999" stroke-width="0.96012" stroke-miterlimit="10" stroke-linecap="round" stroke-linejoin="round" d="
				M276.27506,461.32916L276.03503,461.32916L275.795,461.32916L275.795,461.08913L275.795,460.84911L275.55497,460.84911L275.795,460.84911
				L276.03503,460.84911L276.03503,461.08913L276.27506,461.08913L276.27506,461.32916L276.27506,461.32916"/>
			<path clip-path="url(#SVG_CP_2)" fill="none" stroke="#999999" stroke-width="0.96012" stroke-miterlimit="10" stroke-linecap="round" stroke-linejoin="round" d="
				M276.51509,461.56919L276.27506,461.56919L276.27506,461.32916L276.51509,461.32916L276.51509,461.56919"/>
			<path clip-path="url(#SVG_CP_2)" fill="none" stroke="#999999" stroke-width="0.96012" stroke-miterlimit="10" stroke-linecap="round" stroke-linejoin="round" d="
				M276.75512,461.80921L276.51509,461.80921L276.51509,461.56919L276.75512,461.56919L276.75512,461.80921"/>
			<path clip-path="url(#SVG_CP_2)" fill="none" stroke="#999999" stroke-width="0.96012" stroke-miterlimit="10" stroke-linecap="round" stroke-linejoin="round" d="
				M258.03275,461.32916L258.03275,462.04924L257.79272,462.04924L257.79272,461.32916L258.03275,461.32916"/>
			<path clip-path="url(#SVG_CP_2)" fill="none" stroke="#999999" stroke-width="0.96012" stroke-miterlimit="10" stroke-linecap="round" stroke-linejoin="round" d="
				M276.75512,461.80921L276.99515,461.80921L276.99515,462.04924L276.75512,462.04924L276.75512,461.80921"/>
			<path clip-path="url(#SVG_CP_2)" fill="none" stroke="#999999" stroke-width="0.96012" stroke-miterlimit="10" stroke-linecap="round" stroke-linejoin="round" d="
				M277.71524,462.04924L277.47521,462.04924L277.71524,462.04924L277.71524,462.04924"/>
			<path clip-path="url(#SVG_CP_2)" fill="none" stroke="#999999" stroke-width="0.96012" stroke-miterlimit="10" stroke-linecap="round" stroke-linejoin="round" d="
				M257.79272,462.28926L257.79272,462.04924L257.79272,462.28926"/>
			<path clip-path="url(#SVG_CP_2)" fill="none" stroke="#999999" stroke-width="0.96012" stroke-miterlimit="10" stroke-linecap="round" stroke-linejoin="round" d="
				M286.11631,463.48939L285.63625,463.48939L285.63625,463.24936L284.67613,463.24936L283.716,463.24936L283.716,463.00934L282.51585,463.00934
				L282.51585,462.76931L281.55573,462.76931L281.55573,462.52929L280.59561,462.52929L282.51585,462.52929L284.4361,462.52929L
				284.4361,462.76931L284.91616,462.76931L284.91616,463.00934L285.39622,463.00934L285.39622,463.24936L285.63625,463.24936L286.11631,463.24936
				L286.11631,463.48939"/>
			<path clip-path="url(#SVG_CP_2)" fill="none" stroke="#999999" stroke-width="0.96012" stroke-miterlimit="10" stroke-linecap="round" stroke-linejoin="round" d="
				M253.95223,464.68952L252.51205,464.68952L252.51205,464.44949L252.27201,464.44949L254.67232,464.44949L254.67232,464.20947
				L255.63244,464.20947L255.63244,464.44949L254.91235,464.44949L253.95223,464.44949L253.95223,464.68952"/>
			<path clip-path="url(#SVG_CP_2)" fill="none" stroke="#999999" stroke-width="0.96012" stroke-miterlimit="10" stroke-linecap="round" stroke-linejoin="round" d="
				M305.07872,377.08018L304.83869,377.08018L304.83869,377.56023L305.07872,377.56023L305.31875,377.56023L305.31875,377.80026
				L305.31875,378.04028L305.55878,378.04028L305.55878,380.92059L305.31875,380.92059L305.31875,382.12072L305.31875,383.08082
				L305.07872,383.08082L305.07872,384.28095L304.83869,384.28095L304.83869,385.48108L304.59865,385.48108L304.59865,386.68121
				L304.59865,398.20243L304.35862,398.20243L304.35862,398.44246L304.11859,398.44246L304.11859,410.20371L304.11859,410.44374
				L303.87856,410.44374L303.87856,410.68376L303.63853,410.68376L303.63853,417.40448L303.3985,417.40448L303.3985,417.64451L303.15847,417.64451
				L303.15847,417.88453L302.91844,417.88453L302.91844,418.12456L302.67841,418.12456L302.67841,418.36458L302.43838,418.36458
				L302.43838,418.60461L302.19835,418.60461L302.19835,418.84463L301.95832,418.84463L301.95832,419.08466L301.71829,419.08466
				L301.71829,419.32468L301.71829,419.56471L301.47826,419.56471L301.23823,419.56471L301.23823,419.80474L300.9982,419.80474L
				300.9982,421.96497L300.75817,421.96497L300.75817,422.20499L300.51814,422.20499L300.51814,422.44502L300.27811,422.44502L300.27811,422.68504
				L300.03808,422.68504L300.03808,422.92507L299.79805,422.92507L299.79805,423.16509L299.55802,423.16509L299.55802,423.40512
				L299.31798,423.40512L299.31798,423.64514L299.07795,423.64514L299.07795,423.88517L298.83792,423.88517L298.83792,425.0853L
				298.59789,425.0853L298.59789,426.0454L298.59789,427.24553L298.35786,427.24553L298.35786,428.20563L298.11783,428.20563L298.11783,429.40576
				L297.8778,429.40576L297.8778,430.60589L297.8778,431.80601L297.63777,431.80601L297.63777,432.76612L297.39774,432.76612L297.39774,433.96624
				L297.39774,434.92635L297.15771,434.92635L297.15771,435.4064L296.91768,435.4064L296.67765,435.4064L296.67765,435.64642L296.67765,436.12647
				L296.43762,436.12647L296.43762,437.3266L296.19759,437.3266L296.19759,438.2867L295.95756,438.2867L295.95756,439.24681L295.95756,440.20691
				L295.71753,440.20691L295.71753,441.16701L295.4775,441.16701L295.4775,442.36714L295.4775,443.32724L295.23747,443.32724L295.23747,444.28734
				L294.99744,444.28734L294.99744,445.24745L294.75741,445.24745L294.75741,446.44757L294.75741,448.84783L294.51738,448.84783
				L294.51738,451.48811L294.27735,451.48811L294.27735,458.9289L294.27735,462.04924L294.03731,462.04924L293.79728,462.04924L
				293.79728,462.28926L293.55725,462.28926L293.55725,462.52929L293.31722,462.52929L293.07719,462.52929L293.07719,462.76931L
				293.07719,463.00934L292.83716,463.00934L292.83716,463.24936L291.87704,463.24936L291.63701,463.24936L291.63701,463.48939L
				291.63701,463.72942L291.39698,463.72942L291.39698,463.96944L291.15695,463.96944L291.15695,464.20947L290.91692,464.20947L
				290.91692,464.44949L290.67689,464.44949L290.43686,464.44949L290.43686,464.68952L290.43686,464.92954L290.19683,464.92954L
				290.19683,465.16957L289.9568,465.16957L289.9568,464.68952L289.71677,464.68952L289.71677,464.44949L289.47674,464.44949L289.47674,464.20947
				L289.23671,464.20947L289.23671,463.96944L289.23671,463.72942L288.99668,463.72942L288.99668,463.48939L288.75664,463.48939
				L288.75664,463.24936L288.75664,463.00934L288.51661,463.00934L288.51661,462.76931L288.27658,462.76931L288.27658,462.52929
				L288.03655,462.52929L287.79652,462.52929L287.79652,462.28926L287.31646,462.28926L287.31646,462.04924L287.07643,462.04924
				L286.8364,462.04924L286.8364,461.80921L286.35634,461.80921L286.35634,461.56919L286.11631,461.56919L286.11631,461.32916L285.87628,461.32916
				L285.39622,461.32916L285.39622,461.08913L284.4361,461.08913L284.4361,460.84911L282.27582,460.84911L279.39546,460.84911L279.39546,460.60908
				L278.67537,460.60908L278.67537,460.36906L277.95527,460.36906L277.95527,460.12903L277.47521,460.12903L277.47521,459.88901
				L277.23518,459.88901L277.23518,459.64898L276.99515,459.64898L276.99515,459.40896L276.75512,459.40896L276.75512,459.16893
				L276.51509,459.16893L276.51509,458.9289L276.27506,458.9289L276.03503,458.9289L276.03503,458.68888L275.795,458.68888L275.795,458.44885
				L275.795,458.20883L275.55497,458.20883L275.31494,458.20883L275.31494,457.9688L275.07491,457.9688L275.07491,457.72878L274.83488,457.72878
				L274.83488,457.48875L274.59485,457.48875L274.59485,457.24873L274.35482,457.24873L274.35482,457.0087L274.11479,457.0087L274.11479,456.76867
				L273.87476,456.76867L273.87476,456.52865L273.63473,456.52865L273.63473,456.28862L273.15466,456.28862L273.15466,456.0486L
				273.15466,455.80857L272.91463,455.80857L272.6746,455.80857L272.6746,455.56855L272.6746,455.32852L272.43457,455.32852L272.19454,455.32852
				L272.19454,455.0885L271.95451,455.0885L271.95451,454.84847L271.95451,454.60844L271.71448,454.60844L271.47445,454.60844L271.47445,454.36842
				L271.47445,454.12839L271.23442,454.12839L271.23442,453.88837L270.99439,453.88837L270.75436,453.88837L270.75436,453.64834
				L270.75436,453.40832L270.2743,453.40832L270.03427,453.40832L270.03427,453.16829L270.03427,452.92826L269.79424,452.92826L
				269.79424,452.68824L269.55421,452.68824L269.55421,452.44821L269.31418,452.44821L269.31418,452.20819L269.07415,452.20819L
				268.83412,452.20819L268.83412,451.96816L268.83412,451.72814L268.59409,451.72814L268.59409,451.48811L268.35406,451.48811L
				267.87399,451.48811L267.87399,451.24809L267.63396,451.24809L267.63396,451.00806L267.1539,451.00806L266.67384,451.00806L266.67384,450.76803
				L266.19378,450.76803L266.19378,451.00806L265.71372,451.00806L265.23366,451.00806L265.23366,451.24809L264.51357,451.24809
				L264.51357,451.48811L264.27354,451.48811L264.03351,451.48811L264.03351,451.72814L263.55345,451.72814L263.55345,451.96816
				L263.31342,451.96816L263.31342,452.20819L262.83335,452.20819L262.35329,452.20819L262.35329,452.44821L262.11326,452.44821
				L262.11326,452.68824L261.6332,452.68824L261.39317,452.68824L261.39317,452.92826L260.91311,452.92826L260.91311,453.16829L
				260.67308,453.16829L260.67308,453.40832L260.43305,453.40832L260.19302,453.40832L260.19302,453.64834L260.19302,453.88837L
				259.95299,453.88837L259.71296,453.88837L259.71296,454.12839L259.71296,454.36842L259.47293,454.36842L259.47293,454.60844L
				259.2329,454.60844L258.99287,454.60844L258.99287,454.84847L258.99287,455.0885L258.75284,455.0885L258.75284,455.32852L258.51281,455.32852
				L258.51281,455.56855L258.51281,455.80857L258.27278,455.80857L258.27278,456.28862L258.03275,456.28862L258.03275,456.52865
				L257.79272,456.52865L257.79272,456.76867L257.79272,457.0087L257.55268,457.0087L257.55268,457.72878L257.31265,457.72878L257.31265,458.20883
				L257.07262,458.20883L257.07262,458.68888L257.07262,459.16893L256.83259,459.16893L256.83259,459.64898L256.59256,459.64898
				L256.59256,460.12903L256.59256,460.60908L256.35253,460.60908L256.35253,461.08913L256.1125,461.08913L256.1125,461.32916L255.87247,461.32916
				L255.87247,462.04924L255.63244,462.04924L255.63244,462.28926L255.39241,462.28926L255.39241,462.52929L254.67232,462.52929
				L252.27201,462.52929L252.27201,462.76931L250.5918,462.76931L250.5918,462.52929L250.35177,462.52929L250.11174,462.52929L250.11174,462.28926
				L249.87171,462.28926L249.87171,462.04924L249.63168,462.04924L249.39165,462.04924L249.39165,461.80921L249.15162,461.80921
				L249.15162,461.56919L248.91159,461.56919L248.91159,461.32916L248.67156,461.32916L248.43153,461.32916L248.43153,461.08913
				L248.1915,461.08913L248.1915,460.84911L247.95147,460.84911L247.71144,460.84911L247.71144,460.60908L247.23137,460.60908L247.23137,460.36906
				L247.23137,460.12903L246.75131,460.12903L246.75131,459.88901L246.27125,459.88901L246.27125,459.64898L246.03122,459.64898
				L245.55116,459.64898L245.55116,459.40896L244.83107,459.40896L244.83107,459.16893L243.87095,459.16893L243.87095,458.9289L
				242.91083,458.9289L242.19074,458.9289L242.19074,458.68888L241.47064,458.68888L241.47064,458.44885L241.71067,458.44885L241.71067,458.20883
				L242.6708,458.20883L243.63092,458.20883L243.63092,457.9688L244.83107,457.9688L244.83107,457.72878L245.55116,457.72878L245.55116,457.9688
				L245.79119,457.9688L245.79119,457.72878L246.03122,457.72878L246.03122,457.9688L247.23137,457.9688L247.23137,457.72878L249.39165,457.72878
				L250.83183,457.72878L250.83183,457.48875L251.55192,457.48875L251.55192,457.24873L251.79195,457.24873L251.79195,457.0087L
				252.03198,457.0087L252.27201,457.0087L252.27201,456.52865L252.51205,456.52865L252.51205,456.28862L252.75208,456.28862L252.75208,456.0486
				L252.75208,455.80857L252.99211,455.80857L252.99211,454.60844L253.23214,454.60844L253.23214,453.88837L253.47217,453.88837
				L253.47217,453.40832L253.47217,452.68824L253.7122,452.68824L253.7122,452.20819L253.95223,452.20819L253.95223,451.72814L254.19226,451.72814
				L254.19226,451.48811L254.19226,451.24809L254.43229,451.24809L254.43229,451.00806L254.67232,451.00806L254.67232,450.52801
				L254.67232,450.28798L254.91235,450.28798L255.15238,450.28798L255.15238,449.80793L255.39241,449.80793L255.39241,449.56791
				L255.39241,449.32788L255.63244,449.32788L255.63244,449.08786L255.87247,449.08786L255.87247,448.84783L255.87247,448.36778
				L256.1125,448.36778L256.35253,448.36778L256.35253,448.12775L256.59256,448.12775L256.59256,447.88773L256.83259,447.88773L
				256.83259,447.40768L257.07262,447.40768L257.07262,447.16765L257.31265,447.16765L257.31265,446.92763L257.55268,446.92763L
				257.55268,446.6876L257.79272,446.6876L257.79272,446.44757L258.03275,446.44757L258.03275,446.20755L258.27278,446.20755L258.27278,445.96752
				L258.51281,445.96752L258.51281,445.7275L258.75284,445.7275L258.75284,445.48747L258.99287,445.48747L258.99287,445.00742L258.99287,444.7674
				L259.2329,444.7674L259.2329,444.04732L259.47293,444.04732L259.47293,443.80729L259.71296,443.80729L259.71296,443.56727L259.71296,442.84719
				L259.95299,442.84719L259.95299,442.60717L260.19302,442.60717L260.19302,442.12711L260.19302,441.64706L260.43305,441.64706
				L260.43305,441.40704L260.67308,441.40704L260.67308,440.92699L260.91311,440.92699L260.91311,440.44693L260.91311,439.96688
				L261.15314,439.96688L261.15314,439.72686L261.39317,439.72686L261.39317,439.24681L261.39317,438.76676L261.6332,438.76676L
				261.6332,438.52673L261.87323,438.52673L261.87323,438.04668L262.11326,438.04668L262.11326,437.56663L262.11326,437.08658L262.35329,437.08658
				L262.35329,430.60589L262.11326,430.60589L262.11326,430.84591L261.87323,430.84591L261.87323,431.08594L261.39317,431.08594
				L260.91311,431.08594L260.91311,431.32596L260.67308,431.32596L260.67308,431.56599L260.19302,431.56599L260.19302,431.80601
				L259.71296,431.80601L259.47293,431.80601L259.47293,432.04604L258.99287,432.04604L258.99287,432.28607L258.51281,432.28607
				L258.51281,432.52609L258.03275,432.52609L257.79272,432.52609L257.79272,432.76612L257.07262,432.76612L257.07262,433.00614
				L256.83259,433.00614L256.59256,433.00614L256.59256,433.24617L255.87247,433.24617L255.87247,433.48619L255.39241,433.48619
				L255.39241,433.72622L255.15238,433.72622L254.67232,433.72622L254.67232,433.96624L254.19226,433.96624L254.19226,434.20627
				L253.7122,434.20627L253.23214,434.20627L253.23214,434.4463L252.75208,434.4463L252.75208,434.68632L252.27201,434.68632L252.27201,434.92635
				L252.03198,434.92635L251.55192,434.92635L251.55192,435.16637L251.07186,435.16637L251.07186,435.4064L250.5918,435.4064L250.11174,435.4064
				L250.11174,435.64642L249.87171,435.64642L249.87171,435.88645L249.15162,435.88645L249.15162,436.12647L248.43153,436.12647
				L246.75131,436.12647L246.75131,436.3665L246.03122,436.3665L246.03122,436.60653L245.55116,436.60653L245.55116,436.84655L245.31113,436.84655
				L245.31113,437.08658L244.83107,437.08658L244.83107,437.3266L244.59104,437.3266L244.35101,437.3266L244.35101,437.56663L243.63092,437.56663
				L243.63092,437.80665L242.91083,437.80665L242.91083,438.04668L241.9507,438.04668L241.23061,438.04668L241.23061,438.2867L240.51052,438.2867
				L240.51052,438.52673L239.79043,438.52673L238.83031,438.52673L238.83031,438.76676L238.11022,438.76676L238.11022,439.00678
				L236.67003,439.00678L236.67003,438.76676L234.98982,438.76676L234.98982,438.52673L233.78967,438.52673L233.78967,438.76676
				L233.78967,439.00678L233.30961,439.00678L233.30961,439.24681L233.06958,439.24681L233.06958,439.48683L232.82955,439.48683
				L232.82955,439.72686L232.58952,439.72686L232.10946,439.72686L232.10946,440.20691L231.86943,440.20691L231.86943,440.44693
				L231.62939,440.44693L231.38936,440.44693L231.38936,440.68696L231.38936,440.92699L231.14933,440.92699L230.66927,440.92699
				L230.66927,441.16701L230.66927,441.40704L230.42924,441.40704L230.42924,441.64706L229.94918,441.64706L229.94918,441.88709
				L229.46912,441.88709L229.46912,442.12711L228.98906,442.12711L228.98906,442.36714L228.74903,442.36714L228.74903,442.84719
				L228.509,442.84719L228.26897,442.84719L228.26897,443.32724L228.26897,443.80729L228.02894,443.80729L228.02894,444.04732L227.78891,444.04732
				L227.78891,444.7674L227.54888,444.7674L227.54888,439.00678L227.54888,438.76676L227.78891,438.76676L227.78891,438.52673L228.02894,438.52673
				L228.26897,438.52673L228.26897,438.2867L228.26897,438.04668L228.509,438.04668L228.74903,438.04668L228.74903,437.80665L228.74903,437.56663
				L228.98906,437.56663L228.98906,437.3266L229.22909,437.3266L229.46912,437.3266L229.46912,437.08658L229.46912,436.84655L229.94918,436.84655
				L229.94918,436.60653L230.18921,436.60653L230.66927,436.60653L230.66927,436.3665L230.9093,436.3665L230.9093,436.12647L231.38936,436.12647
				L231.62939,436.12647L231.62939,435.88645L231.86943,435.88645L231.86943,435.64642L232.34949,435.64642L232.34949,435.4064L
				232.58952,435.4064L233.06958,435.4064L233.06958,435.16637L233.30961,435.16637L233.30961,434.92635L233.78967,434.92635L234.0297,434.92635
				L234.0297,434.68632L234.26973,434.68632L234.26973,434.4463L234.74979,434.4463L234.74979,434.20627L234.98982,434.20627L235.22985,434.20627
				L235.22985,433.96624L235.46988,433.96624L235.46988,433.72622L235.70991,433.72622L236.18997,433.72622L236.18997,433.48619
				L236.18997,433.24617L236.67003,433.24617L236.67003,433.00614L236.91007,433.00614L237.39013,433.00614L237.39013,432.76612
				L238.11022,432.76612L238.11022,432.52609L238.59028,432.52609L238.83031,432.52609L238.83031,432.28607L239.07034,432.28607
				L239.07034,432.04604L239.31037,432.04604L239.31037,431.80601L239.5504,431.80601L239.5504,431.56599L239.79043,431.56599L239.79043,431.32596
				L240.03046,431.32596L240.03046,431.08594L240.27049,431.08594L240.27049,430.84591L240.51052,430.84591L240.51052,430.60589
				L240.75055,430.60589L240.75055,430.36586L240.99058,430.36586L240.99058,429.88581L241.23061,429.88581L241.23061,429.64578
				L241.47064,429.64578L241.47064,429.40576L241.71067,429.40576L241.71067,429.16573L241.71067,428.68568L241.9507,428.68568L
				241.9507,428.44566L242.19074,428.44566L242.19074,428.20563L242.43077,428.20563L242.43077,427.48555L242.43077,427.24553L242.6708,427.24553
				L242.6708,426.76548L242.91083,426.76548L242.91083,426.52545L242.91083,426.0454L243.15086,426.0454L243.15086,423.88517L243.39089,423.88517
				L243.39089,422.68504L243.15086,422.68504L243.15086,421.96497L242.91083,421.96497L242.91083,421.48491L242.91083,421.00486
				L242.6708,421.00486L242.6708,420.52481L242.43077,420.52481L242.43077,420.04476L242.43077,419.56471L242.19074,419.56471L242.19074,419.08466
				L241.9507,419.08466L241.9507,418.84463L241.71067,418.84463L241.71067,418.36458L241.71067,418.12456L241.47064,418.12456L241.47064,417.64451
				L241.23061,417.64451L241.23061,417.40448L241.23061,416.92443L240.99058,416.92443L240.99058,416.6844L240.75055,416.6844L240.75055,416.44438
				L240.51052,416.44438L240.51052,415.96433L240.51052,415.7243L240.27049,415.7243L240.27049,415.48427L240.03046,415.48427L240.03046,415.24425
				L240.03046,415.00422L239.79043,415.00422L239.79043,414.7642L239.5504,414.7642L239.5504,414.52417L239.31037,414.52417L239.31037,414.28415
				L239.31037,414.04412L239.07034,414.04412L239.07034,413.8041L238.83031,413.8041L238.83031,413.56407L238.59028,413.56407L238.59028,413.32404
				L238.59028,413.08402L238.35025,413.08402L238.35025,412.60397L238.11022,412.60397L238.11022,412.36394L237.87019,412.36394
				L237.87019,412.12392L237.63016,412.12392L237.39013,412.12392L237.39013,411.88389L237.39013,411.64387L237.1501,411.64387L
				237.1501,411.40384L236.91007,411.40384L236.91007,411.16381L236.67003,411.16381L236.67003,410.92379L236.43,410.92379L236.18997,410.92379
				L236.18997,410.68376L236.18997,410.44374L235.94994,410.44374L235.94994,410.20371L235.70991,410.20371L235.70991,409.96369
				L235.46988,409.96369L235.46988,409.72366L234.98982,409.72366L234.98982,409.48364L234.74979,409.48364L234.50976,409.48364
				L234.50976,409.24361L234.26973,409.24361L234.26973,409.00358L233.78967,409.00358L233.78967,408.76356L233.30961,408.76356
				L233.30961,408.52353L233.06958,408.52353L233.06958,408.28351L232.82955,408.28351L231.86943,408.28351L231.62939,408.28351
				L231.62939,408.76356L231.38936,408.76356L231.38936,409.24361L231.62939,409.24361L231.62939,409.48364L231.86943,409.48364
				L231.86943,409.72366L228.26897,409.72366L228.26897,409.96369L228.02894,409.96369L228.02894,410.20371L227.78891,410.20371
				L227.54888,410.20371L227.54888,410.44374L227.06882,410.44374L227.06882,410.68376L227.06882,410.92379L226.58876,410.92379
				L226.34872,410.92379L226.34872,411.16381L225.86866,411.16381L225.86866,411.40384L225.62863,411.40384L225.3886,411.40384L
				225.3886,411.64387L225.14857,411.64387L225.14857,411.88389L224.90854,411.88389L224.90854,412.12392L224.42848,412.12392L224.18845,412.12392
				L224.18845,412.36394L223.46836,412.36394L223.46836,412.60397L222.9883,412.60397L222.26821,412.60397L222.26821,412.84399L
				221.78815,412.84399L221.78815,413.08402L221.30809,413.08402L221.30809,413.32404L220.58799,413.32404L219.14781,413.32404L
				218.42772,413.32404L218.42772,413.08402L217.70763,413.08402L217.70763,412.60397L217.70763,411.88389L217.4676,411.88389L217.4676,411.16381
				L217.22757,411.16381L217.22757,410.44374L216.98754,410.44374L216.98754,409.48364L216.98754,408.28351L216.74751,408.28351
				L216.74751,407.08338L216.50748,407.08338L216.50748,405.64323L216.50748,404.20307L216.26745,404.20307L216.26745,402.28287
				L216.50748,402.28287L216.50748,401.32277L216.50748,400.36266L216.74751,400.36266L216.74751,399.64259L216.98754,399.64259
				L216.98754,398.44246L216.98754,398.20243L217.4676,398.20243L217.4676,397.96241L217.94766,397.96241L218.42772,397.96241L218.42772,397.72238
				L218.66775,397.72238L218.66775,397.48236L219.14781,397.48236L219.14781,397.24233L219.62787,397.24233L219.8679,397.24233L
				219.8679,397.00231L220.82802,397.00231L220.82802,396.76228L222.02818,396.76228L222.02818,396.52225L222.9883,396.52225L224.18845,396.52225
				L224.18845,396.28223L225.3886,396.28223L225.3886,396.0422L226.58876,396.0422L227.78891,396.0422L227.78891,395.80218L228.509,395.80218
				L228.509,395.56215L228.74903,395.56215L228.74903,395.32213L229.46912,395.32213L229.70915,395.32213L229.70915,395.0821L229.94918,395.0821
				L229.94918,394.84208L230.42924,394.84208L230.9093,394.84208L230.9093,394.60205L231.38936,394.60205L231.38936,394.36202L231.62939,394.36202
				L231.62939,394.122L231.86943,394.122L232.34949,394.122L232.34949,393.88197L232.58952,393.88197L232.58952,393.64195L232.82955,393.64195
				L232.82955,393.40192L233.06958,393.40192L233.06958,393.1619L233.06958,392.92187L233.30961,392.92187L233.30961,392.68185L
				233.54964,392.68185L233.54964,392.44182L233.78967,392.44182L233.78967,392.20179L234.0297,392.20179L234.0297,391.96177L234.26973,391.96177
				L234.26973,391.72174L234.50976,391.72174L234.50976,391.48172L234.74979,391.48172L234.74979,391.24169L234.98982,391.24169
				L234.98982,391.00167L234.98982,390.76164L235.22985,390.76164L235.22985,390.52161L235.46988,390.52161L235.70991,390.52161
				L235.70991,390.28159L235.70991,389.80154L235.94994,389.80154L235.94994,389.56151L236.18997,389.56151L236.18997,389.32149
				L236.18997,388.84144L236.43,388.84144L236.43,388.60141L236.67003,388.60141L236.67003,388.12136L236.91007,388.12136L236.91007,387.88133
				L236.91007,387.64131L237.1501,387.64131L237.1501,387.40128L237.39013,387.40128L237.39013,386.92123L237.39013,386.68121L237.63016,386.68121
				L237.63016,386.20115L237.87019,386.20115L237.87019,385.96113L238.11022,385.96113L238.11022,385.48108L238.11022,385.24105
				L238.35025,385.24105L238.35025,385.00103L238.59028,385.00103L238.59028,384.52098L238.59028,384.28095L238.83031,384.28095
				L238.83031,372.27967L238.59028,372.27967L238.59028,372.03965L238.59028,371.55959L238.35025,371.55959L238.35025,371.07954
				L238.11022,371.07954L238.11022,370.83952L238.11022,370.35947L237.87019,370.35947L237.87019,370.11944L237.63016,370.11944
				L237.63016,369.39936L237.39013,369.39936L237.39013,369.15934L237.39013,368.91931L237.1501,368.91931L237.1501,368.43926L236.91007,368.43926
				L236.91007,368.19924L236.91007,367.71918L236.67003,367.71918L236.67003,367.23913L236.43,367.23913L236.43,366.99911L236.18997,366.99911
				L236.18997,366.51906L236.18997,366.03901L235.94994,366.03901L235.94994,365.79898L235.70991,365.79898"/>
			<path clip-path="url(#SVG_CP_2)" fill="none" stroke="#999999" stroke-width="0.96012" stroke-miterlimit="10" stroke-linecap="round" stroke-linejoin="round" d="
				M235.70991,365.79898L235.70991,365.31893L235.70991,365.0789L235.46988,365.0789L235.46988,364.59885L235.22985,364.59885L235.22985,364.1188
				L234.98982,364.1188L234.98982,363.87878L234.98982,363.39872L234.74979,363.39872L234.74979,362.91867L234.50976,362.91867L
				234.50976,362.67865L234.26973,362.67865L234.26973,362.1986L234.26973,361.95857L234.0297,361.95857L234.0297,361.47852L233.78967,361.47852
				L233.78967,360.99847L233.78967,360.75844L233.54964,360.75844L233.54964,360.27839L233.30961,360.27839L233.30961,359.79834
				L233.06958,359.79834L233.06958,359.55832L233.06958,359.07826L232.82955,359.07826L232.82955,358.83824L232.58952,358.83824
				L232.58952,358.35819L232.58952,357.87814L232.34949,357.87814L232.34949,357.63811L232.10946,357.63811L232.10946,357.15806
				L231.86943,357.15806L231.86943,356.67801L231.86943,356.43798L231.62939,356.43798L231.62939,355.95793L231.38936,355.95793
				L231.38936,355.71791L231.38936,355.23785L231.14933,355.23785L231.14933,354.7578L230.9093,354.7578L230.9093,354.51778L230.66927,354.51778
				L230.66927,354.03773L230.66927,353.55768L230.42924,353.55768L230.42924,353.31765L230.18921,353.31765L230.18921,352.8376L
				229.94918,352.8376L229.94918,352.59757L229.94918,352.11752L230.42924,352.11752L231.14933,352.11752L231.14933,351.8775L231.86943,351.8775
				L231.86943,351.63747L232.58952,351.63747L233.54964,351.63747L233.54964,351.39745L234.26973,351.39745L234.26973,351.15742
				L234.74979,351.15742L234.74979,350.91739L235.22985,350.91739L235.70991,350.91739L235.70991,351.15742L236.18997,351.15742
				L236.18997,351.39745L236.91007,351.39745L236.91007,351.63747L237.87019,351.63747L238.59028,351.63747L238.59028,351.8775L
				239.31037,351.8775L239.31037,352.11752L240.03046,352.11752L241.23061,352.11752L241.23061,352.35755L241.71067,352.35755L241.71067,352.59757
				L242.19074,352.59757L242.19074,352.8376L243.63092,352.8376L244.83107,352.8376L244.83107,353.07762L246.75131,353.07762L246.75131,352.8376
				L247.47141,352.8376L247.71144,352.8376L247.71144,352.59757L247.95147,352.59757L247.95147,352.35755L247.95147,352.11752L248.1915,352.11752
				L248.43153,352.11752L248.43153,351.63747L248.67156,351.63747L248.67156,351.39745L248.67156,350.91739L248.91159,350.91739
				L248.91159,350.43734L249.15162,350.43734L249.15162,349.71727L249.15162,349.23722L249.39165,349.23722L249.39165,348.51714
				L249.63168,348.51714L249.63168,347.79706L249.87171,347.79706L249.87171,347.31701L249.87171,346.59693L250.11174,346.59693
				L250.11174,346.11688L250.35177,346.11688L250.35177,345.39681L250.35177,344.91676L250.5918,344.91676L250.5918,344.19668L250.83183,344.19668
				L250.83183,343.4766L251.07186,343.4766L251.07186,342.75652L251.07186,342.03645L251.31189,342.03645L251.31189,341.31637L251.55192,341.31637
				L251.55192,340.59629L251.55192,340.11624L251.07186,340.11624L251.07186,339.87622L248.67156,339.87622L246.03122,339.87622
				L246.03122,339.63619L243.63092,339.63619L243.63092,339.39617L242.6708,339.39617L242.6708,339.15614L242.91083,339.15614L242.91083,337.95601
				L242.91083,336.75589L241.71067,336.75589L241.71067,336.51586L240.51052,336.51586L240.51052,335.31573L240.51052,333.87558
				L240.75055,333.87558L240.75055,332.67545L240.99058,332.67545L240.99058,331.2353L241.23061,331.2353L241.23061,330.51522L241.23061,330.75525
				L241.71067,330.75525L241.71067,330.99527L241.9507,330.99527L241.9507,331.2353L242.43077,331.2353L242.6708,331.2353L242.6708,331.47532
				L242.91083,331.47532L242.91083,331.71535L243.39089,331.71535L243.39089,331.95537L243.63092,331.95537L255.39241,331.95537
				L255.39241,332.43543L255.39241,333.1555L255.15238,333.1555L255.15238,333.63555L254.91235,333.63555L254.91235,334.35563L254.67232,334.35563
				L254.67232,334.83568L254.67232,335.55576L254.43229,335.55576L254.43229,336.27583L254.19226,336.27583L254.19226,336.75589
				L254.19226,337.47596L253.95223,337.47596L253.95223,337.95601L253.7122,337.95601L253.7122,338.19604L253.95223,338.19604L253.95223,338.43606
				L254.19226,338.43606L254.19226,338.67609L254.43229,338.67609L254.67232,338.67609L254.67232,338.91612L254.91235,338.91612
				L254.91235,339.15614L255.15238,339.15614L255.39241,339.15614L255.39241,339.39617L255.63244,339.39617L255.63244,339.63619
				L255.87247,339.63619L255.87247,339.87622L256.1125,339.87622L256.35253,339.87622L256.35253,340.11624L256.59256,340.11624L
				256.59256,340.35627L256.83259,340.35627L256.83259,340.59629L257.07262,340.59629L257.31265,340.59629L257.31265,340.83632L
				257.55268,340.83632L257.55268,341.07635L257.79272,341.07635L258.03275,341.07635L258.03275,341.31637L258.27278,341.31637L
				258.27278,341.5564L258.51281,341.5564L258.51281,341.79642L258.75284,341.79642L258.99287,341.79642L258.99287,342.03645L259.2329,342.03645
				L259.2329,342.27647L259.47293,342.27647L259.71296,342.27647L259.71296,342.5165L259.95299,342.5165L259.95299,342.75652L260.19302,342.75652
				L260.19302,342.99655L260.43305,342.99655L260.67308,342.99655L260.67308,343.23658L260.91311,343.23658L260.91311,343.4766L
				261.15314,343.4766L261.39317,343.4766L261.39317,343.71663L261.6332,343.71663L261.6332,343.95665L261.87323,343.95665L261.87323,344.19668
				L262.11326,344.19668L262.59332,344.19668L262.83335,344.19668L262.83335,343.95665L262.83335,343.71663L263.07339,343.71663
				L263.07339,343.95665L263.31342,343.95665L263.31342,344.19668L263.55345,344.19668L264.03351,344.19668L264.03351,344.4367L
				264.03351,344.67673L264.51357,344.67673L264.51357,344.91676L264.7536,344.91676L264.99363,344.91676L264.99363,344.67673L265.23366,344.67673
				L265.23366,344.19668L265.47369,344.19668L265.47369,343.95665L265.71372,343.95665L265.71372,343.71663L265.71372,343.95665
				L266.19378,343.95665L266.19378,344.19668L266.43381,344.19668L266.67384,344.19668L266.67384,344.4367L266.91387,344.4367L266.91387,344.67673
				L267.1539,344.67673L267.1539,344.91676L267.39393,344.91676L267.63396,344.91676L267.63396,345.15678L267.63396,345.39681L268.11402,345.39681
				L268.35406,345.39681L268.35406,345.87686L268.11402,345.87686L268.11402,346.11688L267.87399,346.11688L267.87399,346.35691
				L267.63396,346.35691L267.63396,346.59693L267.87399,346.59693L267.87399,346.83696L268.59409,346.83696L268.59409,347.07699
				L269.07415,347.07699L269.07415,347.31701L269.79424,347.31701L270.51433,347.31701L270.51433,347.55704L270.99439,347.55704
				L270.99439,347.79706L271.71448,347.79706L272.19454,347.79706L272.19454,348.03709L272.91463,348.03709L272.91463,348.27711
				L276.75512,348.27711L276.75512,348.51714L278.1953,348.51714L279.63549,348.51714L279.63549,348.75716L281.3157,348.75716L281.3157,348.99719
				L282.51585,348.99719L282.51585,349.23722L284.19607,349.23722L285.63625,349.23722L285.63625,349.47724L287.07643,349.47724
				L287.07643,349.71727L287.31646,349.71727L287.31646,350.43734L287.31646,350.91739L287.07643,350.91739L287.07643,351.63747
				L286.8364,351.63747L286.8364,352.59757L286.8364,353.31765L286.59637,353.31765L286.59637,354.03773L286.35634,354.03773L286.35634,354.7578
				L286.11631,354.7578L286.11631,355.47788L286.11631,356.19796L285.87628,356.19796L285.87628,356.91803L285.63625,356.91803L
				285.63625,357.87814L285.63625,358.35819L285.39622,358.35819L285.39622,359.07826L285.15619,359.07826L285.15619,359.79834L
				284.91616,359.79834L284.91616,360.75844L284.91616,361.47852L284.67613,361.47852L284.67613,362.1986L284.4361,362.1986L284.4361,362.91867
				L284.4361,363.63875L284.19607,363.63875L284.19607,364.35883L283.95604,364.35883L283.95604,365.0789L283.716,365.0789L283.716,365.79898
				L283.716,366.51906L283.47597,366.51906L283.47597,367.23913L283.23594,367.23913L283.23594,367.47916L283.716,367.47916L283.716,367.71918
				L283.95604,367.71918L284.4361,367.71918L284.4361,367.95921L284.91616,367.95921L284.91616,368.19924L285.39622,368.19924L285.63625,368.19924
				L285.63625,368.43926L286.11631,368.43926L286.11631,368.67929L286.59637,368.67929L286.59637,368.91931L286.8364,368.91931L
				287.31646,368.91931L287.31646,369.15934L287.79652,369.15934L287.79652,369.39936L288.27658,369.39936L288.75664,369.39936L
				288.75664,369.63939L289.23671,369.63939L289.23671,369.87942L289.47674,369.87942L289.47674,370.11944L289.9568,370.11944L290.43686,370.11944
				L290.43686,370.35947L290.67689,370.35947L290.67689,370.59949L291.15695,370.59949L291.15695,370.83952L291.63701,370.83952
				L292.11707,370.83952L292.11707,371.07954L292.3571,371.07954L292.3571,371.31957L292.83716,371.31957L293.31722,371.31957L293.31722,371.55959
				L293.55725,371.55959L293.55725,371.79962L294.27735,371.79962L294.27735,372.03965L294.51738,372.03965L294.99744,372.03965
				L294.99744,372.27967L295.4775,372.27967L295.4775,372.5197L295.71753,372.5197L296.19759,372.5197L296.19759,372.75972L296.67765,372.75972
				L296.67765,372.99975L297.15771,372.99975L297.15771,373.23977L297.39774,373.23977L297.8778,373.23977L297.8778,373.4798L298.35786,373.4798
				L298.35786,373.71982L298.83792,373.71982L299.07795,373.71982L299.07795,373.95985L299.79805,373.95985L299.79805,374.19988
				L300.27811,374.19988L300.27811,374.4399L300.51814,374.4399L300.9982,374.4399L300.9982,374.67993L301.47826,374.67993L301.47826,374.91995
				L301.95832,374.91995L301.95832,375.15998L302.19835,375.15998L302.91844,375.15998L302.91844,375.4L303.15847,375.4L303.15847,375.64003
				L303.63853,375.64003L304.11859,375.64003L304.11859,375.88005L304.59865,375.88005L304.59865,376.12008L304.83869,376.12008
				L304.83869,376.36011L305.07872,376.36011L305.07872,377.08018"/>
			<path clip-path="url(#SVG_CP_2)" fill="none" stroke="#999999" stroke-width="0.96012" stroke-miterlimit="10" stroke-linecap="round" stroke-linejoin="round" d="
				M331.7221,469.49003L331.24204,469.49003L331.24204,469.25L331.00201,469.25L331.00201,469.00998L330.52194,469.00998L330.52194,468.76995
				L328.84173,468.76995L328.84173,469.00998L327.16152,469.00998L327.16152,469.25L326.68146,469.25L326.68146,469.00998L326.92149,469.00998
				L326.92149,468.76995L327.40155,468.76995L327.64158,468.76995L327.64158,468.52993L328.12164,468.52993L328.12164,468.2899L
				328.36167,468.2899L328.36167,468.52993L329.80185,468.52993L329.80185,468.76995L331.24204,468.76995L331.24204,469.00998L331.7221,469.00998
				L331.7221,469.25L331.7221,469.49003"/>
			<path clip-path="url(#SVG_CP_2)" fill="none" stroke="#999999" stroke-width="0.96012" stroke-miterlimit="10" stroke-linecap="round" stroke-linejoin="round" d="
				M331.7221,469.49003L331.96213,469.49003L331.7221,469.49003L331.7221,469.49003"/>
			<path clip-path="url(#SVG_CP_2)" fill="none" stroke="#999999" stroke-width="0.96012" stroke-miterlimit="10" stroke-linecap="round" stroke-linejoin="round" d="
				M332.44219,469.73006L332.20216,469.73006L332.20216,469.49003L332.44219,469.49003L332.44219,469.73006"/>
			<path clip-path="url(#SVG_CP_2)" fill="none" stroke="#999999" stroke-width="0.96012" stroke-miterlimit="10" stroke-linecap="round" stroke-linejoin="round" d="
				M325.24127,469.97008L325.24127,469.73006L325.48131,469.73006L325.48131,469.97008L325.24127,469.97008"/>
			<path clip-path="url(#SVG_CP_2)" fill="none" stroke="#999999" stroke-width="0.96012" stroke-miterlimit="10" stroke-linecap="round" stroke-linejoin="round" d="
				M325.00124,469.97008L325.24127,469.97008L325.00124,469.97008"/>
			<path clip-path="url(#SVG_CP_2)" fill="none" stroke="#999999" stroke-width="0.96012" stroke-miterlimit="10" stroke-linecap="round" stroke-linejoin="round" d="
				M324.76121,470.21011L324.76121,469.97008L325.00124,469.97008L325.00124,470.21011L324.76121,470.21011"/>
			<path clip-path="url(#SVG_CP_2)" fill="none" stroke="#999999" stroke-width="0.96012" stroke-miterlimit="10" stroke-linecap="round" stroke-linejoin="round" d="
				M324.52118,470.45013L324.52118,470.21011L324.76121,470.21011L324.76121,470.45013L324.52118,470.45013"/>
			<path clip-path="url(#SVG_CP_2)" fill="none" stroke="#999999" stroke-width="0.96012" stroke-miterlimit="10" stroke-linecap="round" stroke-linejoin="round" d="
				M324.28115,470.69016L324.28115,470.45013L324.52118,470.45013L324.52118,470.69016L324.28115,470.69016"/>
			<path clip-path="url(#SVG_CP_2)" fill="none" stroke="#999999" stroke-width="0.96012" stroke-miterlimit="10" stroke-linecap="round" stroke-linejoin="round" d="
				M324.28115,470.69016L324.04112,470.69016L324.28115,470.69016"/>
			<path clip-path="url(#SVG_CP_2)" fill="none" stroke="#999999" stroke-width="0.96012" stroke-miterlimit="10" stroke-linecap="round" stroke-linejoin="round" d="
				M323.80109,471.17021L323.56106,471.17021L323.56106,470.93018L323.80109,470.93018L323.80109,471.17021"/>
			<path clip-path="url(#SVG_CP_2)" fill="none" stroke="#999999" stroke-width="0.96012" stroke-miterlimit="10" stroke-linecap="round" stroke-linejoin="round" d="
				M318.76045,474.77059L318.76045,474.53057L318.76045,474.77059L318.76045,474.77059"/>
			<path clip-path="url(#SVG_CP_2)" fill="none" stroke="#999999" stroke-width="0.96012" stroke-miterlimit="10" stroke-linecap="round" stroke-linejoin="round" d="
				M318.52042,475.01062L318.52042,474.77059L318.76045,474.77059L318.76045,475.01062L318.52042,475.01062"/>
			<path clip-path="url(#SVG_CP_2)" fill="none" stroke="#999999" stroke-width="0.96012" stroke-miterlimit="10" stroke-linecap="round" stroke-linejoin="round" d="
				M318.28039,475.01062L318.52042,475.01062L318.28039,475.01062"/>
			<path clip-path="url(#SVG_CP_2)" fill="none" stroke="#999999" stroke-width="0.96012" stroke-miterlimit="10" stroke-linecap="round" stroke-linejoin="round" d="
				M318.04036,475.25064L318.04036,475.01062L318.28039,475.01062L318.28039,475.25064L318.04036,475.25064"/>
			<path clip-path="url(#SVG_CP_2)" fill="none" stroke="#999999" stroke-width="0.96012" stroke-miterlimit="10" stroke-linecap="round" stroke-linejoin="round" d="
				M317.80033,475.49067L317.80033,475.25064L318.04036,475.25064L318.04036,475.49067L317.80033,475.49067"/>
			<path clip-path="url(#SVG_CP_2)" fill="none" stroke="#999999" stroke-width="0.96012" stroke-miterlimit="10" stroke-linecap="round" stroke-linejoin="round" d="
				M317.5603,475.49067L317.80033,475.49067L317.5603,475.49067"/>
			<path clip-path="url(#SVG_CP_2)" fill="none" stroke="#999999" stroke-width="0.96012" stroke-miterlimit="10" stroke-linecap="round" stroke-linejoin="round" d="
				M317.08024,476.21075L317.08024,475.97072L317.08024,475.73069L317.32027,475.73069L317.32027,475.49067L317.5603,475.49067L
				317.5603,475.73069L317.5603,475.97072L317.32027,475.97072L317.32027,476.21075L317.08024,476.21075"/>
			<path clip-path="url(#SVG_CP_2)" fill="none" stroke="#999999" stroke-width="0.96012" stroke-miterlimit="10" stroke-linecap="round" stroke-linejoin="round" d="
				M316.60018,476.21075L317.08024,476.21075L316.60018,476.21075"/>
			<path clip-path="url(#SVG_CP_2)" fill="none" stroke="#999999" stroke-width="0.96012" stroke-miterlimit="10" stroke-linecap="round" stroke-linejoin="round" d="
				M316.60018,476.21075L316.60018,476.45077L316.36015,476.45077L316.36015,476.21075L316.60018,476.21075"/>
			<path clip-path="url(#SVG_CP_2)" fill="none" stroke="#999999" stroke-width="0.96012" stroke-miterlimit="10" stroke-linecap="round" stroke-linejoin="round" d="
				M304.59865,486.05179L304.59865,485.81177L304.59865,486.05179L304.59865,486.05179"/>
			<path clip-path="url(#SVG_CP_2)" fill="none" stroke="#999999" stroke-width="0.96012" stroke-miterlimit="10" stroke-linecap="round" stroke-linejoin="round" d="
				M292.83716,463.24936L293.07719,463.24936L293.07719,463.00934L293.31722,463.00934L293.31722,462.76931L293.55725,462.76931
				L293.55725,462.52929L293.79728,462.52929L293.79728,462.28926L294.03731,462.28926L294.03731,462.04924L294.27735,462.04924
				L294.27735,461.80921L294.51738,461.80921L294.51738,461.56919L294.75741,461.56919L294.75741,461.32916L294.99744,461.32916
				L294.99744,461.08913L295.23747,461.08913L295.23747,460.84911L295.4775,460.84911L295.4775,460.60908L295.71753,460.60908L295.71753,460.36906
				L295.95756,460.36906L295.95756,460.12903L296.19759,460.12903L296.19759,459.88901L296.43762,459.88901L296.43762,459.64898
				L296.67765,459.64898L296.67765,459.40896L296.91768,459.40896L296.91768,459.16893L297.15771,459.16893L297.15771,458.9289L
				297.39774,458.9289L297.39774,458.68888L297.63777,458.68888L297.63777,458.44885L297.8778,458.44885L297.8778,458.20883L298.11783,458.20883
				L298.11783,457.9688L298.35786,457.9688L298.35786,457.72878L298.59789,457.72878L298.59789,457.48875L298.83792,457.48875L298.83792,449.08786
				L299.07795,449.08786L299.07795,441.64706L299.07795,440.92699L299.31798,440.92699L299.31798,440.20691L299.55802,440.20691
				L299.55802,439.48683L299.79805,439.48683L299.79805,438.76676L299.79805,438.04668L300.03808,438.04668L300.03808,437.3266L
				300.27811,437.3266L300.27811,436.12647L300.27811,435.4064L300.51814,435.4064L300.51814,434.4463L300.75817,434.4463L300.75817,432.52609
				L300.9982,432.52609L300.9982,430.84591L300.9982,428.92571L301.23823,428.92571L301.23823,421.48491L301.47826,421.48491L301.47826,421.24489
				L301.71829,421.24489L301.71829,421.00486L301.95832,421.00486L301.95832,420.76484L302.19835,420.76484L302.19835,420.52481
				L302.43838,420.52481L302.43838,420.28479L302.67841,420.28479L302.67841,420.04476L302.91844,420.04476L302.91844,419.80474
				L303.15847,419.80474L303.15847,419.56471L303.3985,419.56471L303.3985,419.32468L303.63853,419.32468L303.63853,418.36458L303.87856,418.36458
				L303.87856,417.64451L304.11859,417.64451L304.11859,415.7243L304.11859,414.52417L304.35862,414.52417L304.35862,400.12264L
				304.59865,400.12264L304.59865,399.88261L304.59865,387.40128L304.83869,387.40128L305.07872,387.40128L305.07872,387.16126L
				305.31875,387.16126L305.31875,386.92123L305.31875,386.68121L305.55878,386.68121L305.55878,381.88069L305.79881,381.88069L
				305.79881,378.04028L305.55878,378.04028L305.55878,377.80026L305.31875,377.80026L305.31875,377.56023L305.07872,377.56023L
				305.07872,377.08018L305.31875,377.08018L305.31875,376.36011L305.79881,376.36011L305.79881,376.60013L306.03884,376.60013L
				306.03884,376.36011L306.27887,376.36011L306.27887,375.15998L306.5189,375.15998L306.5189,374.19988L306.5189,373.23977L306.75893,373.23977
				L306.75893,372.03965L306.99896,372.03965L306.99896,371.07954L307.23899,371.07954L307.23899,369.87942L307.23899,368.91931
				L307.47902,368.91931L307.47902,367.71918L307.71905,367.71918L307.71905,366.75908L307.71905,365.79898L307.95908,365.79898
				L307.95908,364.59885L308.19911,364.59885L308.19911,363.63875L308.43914,363.63875L308.43914,362.43862L308.43914,361.47852
				L308.67917,361.47852L308.67917,360.27839L308.9192,360.27839L308.9192,359.07826L308.9192,357.87814L309.15923,357.87814L309.15923,356.67801
				L309.39926,356.67801L309.39926,355.47788L309.63929,355.47788L309.63929,354.51778L309.63929,353.31765L309.87933,353.31765
				L309.87933,352.11752L310.11936,352.11752L310.11936,350.91739L310.35939,350.91739L310.35939,349.71727L310.35939,348.51714
				L310.59942,348.51714L310.59942,347.31701L310.83945,347.31701L310.83945,346.11688L310.83945,344.91676L311.07948,344.91676
				L311.07948,343.95665L311.31951,343.95665L311.31951,342.99655L311.55954,342.99655L311.55954,341.79642L311.55954,340.59629
				L311.79957,340.59629L311.79957,339.63619L312.0396,339.63619L312.0396,338.67609L312.0396,337.47596L312.27963,337.47596L312.27963,336.27583
				L312.51966,336.27583L312.51966,335.31573L312.75969,335.31573L312.75969,334.35563L312.75969,333.63555L312.99972,333.63555
				L312.99972,333.87558L313.23975,333.87558L313.23975,334.1156L313.47978,334.1156L313.47978,334.35563L313.71981,334.35563L313.95984,334.35563
				L313.95984,334.59566L313.95984,334.83568L314.19987,334.83568L314.19987,335.07571L314.4399,335.07571L314.4399,335.31573L314.4399,335.55576
				L314.67993,335.55576L314.67993,336.03581L314.91996,336.03581L314.91996,336.27583L315.16,336.27583L315.16,336.51586L315.16,336.75589
				L315.40003,336.75589L315.40003,337.23594L315.64006,337.23594L315.64006,337.47596L315.88009,337.47596L315.88009,337.95601
				L315.88009,338.43606L316.12012,338.43606L316.12012,338.67609L316.36015,338.67609L316.36015,338.91612L316.36015,339.15614
				L316.60018,339.15614L316.60018,339.87622L316.84021,339.87622L316.84021,340.83632L317.08024,340.83632L317.08024,341.79642
				L317.08024,343.4766L317.32027,343.4766L317.32027,344.19668L317.5603,344.19668L317.5603,344.67673L317.5603,344.91676L317.80033,344.91676
				L317.80033,345.39681L318.04036,345.39681L318.04036,345.63683L318.28039,345.63683L318.28039,345.87686L318.28039,346.11688
				L318.52042,346.11688L318.76045,346.11688L318.76045,346.35691L318.76045,346.59693L319.00048,346.59693L319.24051,346.59693
				L319.24051,346.83696L319.48054,346.83696L319.48054,347.31701L319.48054,347.55704L319.72057,347.55704L319.72057,348.03709
				L319.9606,348.03709L319.9606,348.51714L320.20063,348.51714L320.20063,349.23722L320.20063,349.71727L320.44067,349.71727L320.44067,350.43734
				L320.6807,350.43734L320.6807,351.63747L320.6807,352.59757L320.92073,352.59757L320.92073,354.03773L321.16076,354.03773L321.16076,355.47788
				L321.40079,355.47788L321.40079,355.71791L321.16076,355.71791L321.16076,355.95793L321.40079,355.95793L321.40079,357.15806
				L321.40079,357.87814L321.64082,357.87814L321.64082,358.83824L321.88085,358.83824L321.88085,360.03837L321.88085,365.31893
				L321.88085,367.23913L321.64082,367.23913L321.64082,367.95921L321.40079,367.95921L321.40079,368.19924L321.40079,368.91931
				L321.16076,368.91931L321.16076,369.15934L320.92073,369.15934L320.92073,369.39936L320.6807,369.39936L320.6807,369.63939L320.44067,369.63939
				L320.44067,369.87942L320.20063,369.87942L320.20063,370.11944L319.9606,370.11944L319.9606,370.83952L319.72057,370.83952L319.72057,371.31957
				L319.48054,371.31957L319.48054,375.15998L319.72057,375.15998L319.72057,378.76036L319.9606,378.76036L319.9606,379.24041L320.20063,379.24041
				L320.20063,380.20051L320.20063,381.16062L320.44067,381.16062L320.44067,382.12072L320.6807,382.12072L320.6807,384.04092L320.6807,386.20115
				L320.92073,386.20115L320.92073,389.80154L321.16076,389.80154L321.16076,392.44182L321.40079,392.44182L321.40079,393.64195
				L321.40079,394.84208L321.64082,394.84208L321.64082,396.0422L321.88085,396.0422L321.88085,399.64259L321.88085,402.04284L322.12088,402.04284
				L322.12088,404.20307L322.36091,404.20307L322.36091,406.60333L322.60094,406.60333L322.60094,409.72366L322.60094,411.16381
				L322.60094,411.64387L322.60094,413.08402L322.84097,413.08402L322.84097,414.52417L323.081,414.52417L323.081,415.24425L322.84097,415.24425
				L322.84097,415.96433L322.60094,415.96433L322.60094,417.40448L322.60094,418.12456L322.36091,418.12456L322.36091,418.84463
				L322.60094,418.84463L322.60094,419.80474L322.60094,420.04476L322.84097,420.04476L323.081,420.04476L323.081,420.28479L323.081,421.00486
				L323.32103,421.00486L323.32103,422.20499L323.56106,422.20499L323.56106,422.44502L323.80109,422.44502L323.80109,422.68504
				L323.80109,423.16509L324.04112,423.16509L324.28115,423.16509L324.28115,423.64514L324.52118,423.64514L324.52118,423.88517
				L324.52118,424.1252L324.76121,424.1252L324.76121,424.36522L325.00124,424.36522L325.00124,424.84527L325.00124,425.0853L325.24127,425.0853
				L325.24127,425.32532L325.48131,425.32532L325.48131,425.56535L325.72134,425.56535L325.72134,426.0454L325.72134,426.76548L
				326.2014,426.76548L326.2014,427.0055L326.44143,427.0055L326.44143,427.24553L326.68146,427.24553L326.68146,427.48555L326.92149,427.48555
				L327.16152,427.48555L327.16152,427.72558L327.40155,427.72558L327.40155,427.9656L327.64158,427.9656L327.64158,428.20563L327.88161,428.20563
				L328.12164,428.20563L328.12164,428.44566L328.12164,428.68568L328.36167,428.68568L328.6017,428.68568L328.6017,428.92571L328.84173,428.92571
				L328.84173,429.16573L329.08176,429.16573L329.08176,429.40576L329.32179,429.40576L329.32179,429.64578L329.32179,429.88581
				L329.56182,429.88581L329.80185,429.88581L329.80185,430.12584L330.04188,430.12584L330.04188,430.36586L330.04188,430.60589
				L330.28191,430.60589L330.52194,430.60589L330.52194,430.84591L330.52194,431.32596L330.76198,431.32596L330.76198,431.56599
				L331.00201,431.56599L331.00201,431.80601L331.24204,431.80601L331.24204,432.04604L331.24204,432.52609L331.48207,432.52609
				L331.48207,432.76612L331.7221,432.76612L331.7221,433.00614L331.7221,433.72622L331.96213,433.72622L331.96213,433.96624L332.20216,433.96624
				L332.20216,434.4463L332.44219,434.4463L332.44219,434.92635L332.44219,435.16637L332.68222,435.16637L332.68222,435.64642L332.92225,435.64642
				L332.92225,436.12647L333.16228,436.12647L333.16228,436.60653L333.16228,436.84655L333.40231,436.84655L333.40231,437.08658
				L333.64234,437.08658L333.64234,437.3266L333.64234,437.56663L333.88237,437.56663L333.88237,438.04668L334.1224,438.04668L334.1224,438.2867
				L334.36243,438.2867L334.36243,438.52673L334.36243,438.76676L334.60246,438.76676L334.60246,439.00678L334.84249,439.00678L
				334.84249,439.24681L334.84249,439.72686L335.08252,439.72686L335.08252,439.96688L335.32255,439.96688L335.32255,440.20691L
				335.56258,440.20691L335.56258,440.44693L335.56258,440.68696L335.80261,440.68696L335.80261,440.92699L336.04265,440.92699L
				336.04265,441.40704L336.04265,441.64706L336.28268,441.64706L336.28268,441.88709L336.52271,441.88709L336.52271,442.12711L
				336.76274,442.12711L336.76274,442.36714L336.76274,442.84719L337.00277,442.84719L337.00277,443.08722L337.2428,443.08722L337.2428,443.56727
				L337.48283,443.56727L337.48283,443.80729L337.48283,444.28734L337.72286,444.28734L337.72286,444.7674L337.96289,444.7674L337.96289,445.24745
				L337.96289,445.48747L338.20292,445.48747L338.20292,445.96752L338.44295,445.96752L338.44295,446.44757L338.68298,446.44757
				L338.68298,446.6876L338.68298,447.16765L338.92301,447.16765L338.92301,447.6477L339.16304,447.6477L339.16304,448.12775L339.16304,448.36778
				L339.40307,448.36778L339.40307,448.84783L339.6431,448.84783L339.6431,449.32788L339.88313,449.32788L339.88313,449.56791L339.88313,450.28798
				L340.12316,450.28798L340.12316,450.52801L340.36319,450.52801L340.36319,451.00806L340.36319,451.48811L340.60322,451.48811
				L340.60322,451.72814L340.84325,451.72814L340.84325,452.20819L341.08328,452.20819L341.08328,452.68824L341.08328,453.16829
				L341.32332,453.16829L341.32332,453.40832L341.56335,453.40832L341.56335,453.88837L341.80338,453.88837L341.80338,454.36842
				L341.80338,454.60844L342.04341,454.60844L342.04341,455.32852L342.28344,455.32852L342.28344,455.56855L342.28344,456.0486L
				342.52347,456.0486L342.52347,456.52865L342.7635,456.52865L342.7635,457.0087L343.00353,457.0087L343.00353,457.72878L343.00353,458.44885
				L343.24356,458.44885L343.24356,459.40896L343.48359,459.40896L343.48359,460.36906L343.48359,461.32916L343.72362,461.32916
				L343.72362,462.04924L343.96365,462.04924L343.96365,463.24936L343.72362,463.24936L343.72362,463.96944L343.48359,463.96944
				L343.48359,464.68952L343.48359,465.16957L343.24356,465.16957L343.24356,465.64962L343.00353,465.64962L343.00353,466.3697L
				343.00353,466.60972L342.7635,466.60972L342.7635,467.3298L342.52347,467.3298L342.52347,467.56983L342.28344,467.56983L342.28344,468.2899
				L342.28344,468.76995L342.04341,468.76995L342.04341,469.25L341.80338,469.25L341.80338,469.97008L341.80338,472.61036L341.80338,473.09041
				L342.04341,473.09041L342.04341,473.57046L342.28344,473.57046L342.28344,473.81049L342.28344,474.29054L342.52347,474.29054
				L342.52347,475.01062L342.7635,475.01062L342.7635,475.73069L343.00353,475.73069L343.00353,476.45077L343.00353,480.05116L343.24356,480.05116
				L343.24356,480.77123L343.00353,480.77123L343.00353,481.01126L343.24356,481.01126L343.24356,481.49131L343.00353,481.49131
				L343.00353,481.97136L343.00353,482.45141L342.52347,482.45141L342.52347,481.97136L342.28344,481.97136L342.28344,481.73133
				L342.28344,481.25128L342.04341,481.25128L342.04341,480.77123L341.80338,480.77123L341.80338,480.29118L341.80338,479.81113
				L341.56335,479.81113L341.56335,479.5711L341.32332,479.5711L341.32332,479.33108L341.08328,479.33108L341.08328,478.85103L341.08328,478.611
				L340.84325,478.611L340.84325,478.13095L340.60322,478.13095L340.60322,477.89092L340.36319,477.89092L340.36319,477.41087L340.36319,477.17085
				L340.12316,477.17085L340.12316,476.93082L339.88313,476.93082L339.88313,476.45077L339.88313,476.21075L339.6431,476.21075L
				339.6431,475.73069L339.40307,475.73069L339.40307,475.49067L339.16304,475.49067L339.16304,475.01062L339.16304,474.77059L338.92301,474.77059
				L338.92301,474.53057L338.68298,474.53057L338.68298,474.29054L338.68298,474.05052L338.44295,474.05052L338.44295,473.81049
				L338.20292,473.81049L338.20292,473.57046L337.96289,473.57046L337.96289,473.09041L337.72286,473.09041L337.72286,472.85039
				L337.48283,472.85039L337.48283,472.61036L337.48283,472.37034L337.2428,472.37034L337.2428,471.89029L337.00277,471.89029L336.76274,471.89029
				L336.76274,471.41023L336.76274,471.17021L336.52271,471.17021L336.52271,470.93018L336.28268,470.93018L336.28268,470.69016
				L336.04265,470.69016L336.04265,470.21011L335.80261,470.21011L335.80261,469.97008L335.56258,469.97008L335.32255,469.97008
				L335.32255,469.73006L335.08252,469.73006L335.08252,469.49003L334.84249,469.49003L334.60246,469.49003L334.60246,469.25L334.36243,469.25
				L334.36243,469.00998L334.36243,468.76995L333.88237,468.76995L333.64234,468.76995L333.64234,468.52993L333.64234,468.2899L
				333.16228,468.2899L333.16228,468.04988L332.92225,468.04988L332.92225,467.80985L332.44219,467.80985L332.44219,467.56983L332.20216,467.56983
				L332.20216,467.3298L331.7221,467.3298L331.7221,467.08977L331.24204,467.08977L331.24204,466.84975L330.04188,466.84975L328.36167,466.84975
				L328.36167,466.60972L327.64158,466.60972L327.64158,466.84975L327.16152,466.84975L326.92149,466.84975L326.92149,467.08977
				L326.44143,467.08977L326.44143,467.3298L326.2014,467.3298L326.2014,467.56983L325.72134,467.56983L325.48131,467.56983L325.48131,467.80985
				L325.00124,467.80985L325.00124,468.04988L324.76121,468.04988L324.76121,468.2899L324.52118,468.2899L324.28115,468.2899L324.28115,468.52993
				L323.80109,468.52993L323.80109,468.76995L323.32103,468.76995L323.32103,469.00998L323.081,469.00998L323.081,469.25L323.081,469.49003
				L322.84097,469.49003L322.60094,469.49003L322.60094,469.73006L322.36091,469.73006L322.36091,469.97008L322.12088,469.97008
				L321.88085,469.97008L321.88085,470.21011L321.64082,470.21011L321.64082,470.45013L321.40079,470.45013L321.40079,470.69016
				L321.16076,470.69016L320.92073,470.69016L320.92073,470.93018L320.6807,470.93018L320.6807,471.17021L320.44067,471.17021L320.20063,471.17021
				L320.20063,471.41023L320.20063,471.65026L319.72057,471.65026L319.72057,471.89029L319.48054,471.89029L319.48054,472.13031
				L319.00048,472.13031L319.00048,472.37034L318.76045,472.37034L318.76045,472.61036L318.28039,472.61036L318.28039,472.85039
				L318.28039,473.09041L318.04036,473.09041L317.5603,473.09041L317.5603,473.33044L317.5603,473.57046L317.32027,473.57046L317.32027,473.81049
				L317.08024,473.81049L316.84021,473.81049L316.84021,474.05052L316.60018,474.05052L316.60018,474.29054L316.36015,474.29054
				L316.12012,474.29054L316.12012,474.53057L315.88009,474.53057L315.88009,474.77059L315.64006,474.77059L315.64006,475.01062
				L315.40003,475.01062L315.16,475.01062L315.16,475.25064L314.91996,475.25064L314.91996,475.49067L314.67993,475.49067L314.4399,475.49067
				L314.4399,475.73069L314.19987,475.73069L314.19987,475.97072L313.95984,475.97072L313.95984,476.21075L313.47978,476.21075L
				313.23975,476.21075L313.23975,476.45077L312.75969,476.45077L312.75969,476.6908L312.27963,476.6908L312.27963,476.93082L311.79957,476.93082
				L311.55954,476.93082L311.55954,477.17085L310.83945,477.17085L310.83945,477.41087L310.35939,477.41087L310.11936,477.41087
				L310.11936,477.6509L309.63929,477.6509L309.63929,477.89092L309.15923,477.89092L309.15923,478.13095L308.67917,478.13095L308.43914,478.13095
				L308.43914,478.37098L308.19911,478.37098L308.19911,478.611L307.95908,478.611L307.71905,478.611L307.71905,478.85103L307.71905,479.09105
				L307.47902,479.09105L307.47902,479.33108L307.23899,479.33108L307.23899,479.5711L306.99896,479.5711L306.99896,479.81113L306.75893,479.81113
				L306.5189,479.81113L306.5189,480.05116L306.5189,480.29118L306.27887,480.29118L306.27887,480.53121L306.03884,480.53121L306.03884,480.77123
				L305.79881,480.77123L305.79881,481.25128L305.55878,481.25128L305.31875,481.25128L305.31875,481.73133L305.07872,481.73133
				L305.07872,482.21139L304.83869,482.21139L304.83869,482.45141L304.59865,482.45141L304.59865,482.69144L304.59865,482.93146
				L304.35862,482.93146L304.35862,483.17149L304.11859,483.17149L304.11859,483.65154L303.87856,483.65154L303.87856,484.13159
				L303.63853,484.13159L303.3985,484.13159L303.3985,484.61164L303.3985,484.85167L303.15847,484.85167L302.91844,484.85167L302.91844,485.09169
				L302.91844,485.33172L302.43838,485.33172L302.43838,485.57174L302.19835,485.57174L302.19835,485.81177L301.95832,485.81177
				L301.95832,486.05179L301.71829,486.05179L301.71829,486.29182L301.23823,486.29182L301.23823,486.53185L300.9982,486.53185L
				300.9982,486.77187L300.51814,486.77187L300.51814,487.0119L300.27811,487.0119L300.27811,487.25192L300.03808,487.25192L299.79805,487.25192
				L299.79805,487.49195L299.31798,487.49195L299.31798,487.73197L299.07795,487.73197L299.07795,487.972L298.59789,487.972L298.35786,487.972
				L298.35786,488.21202L298.11783,488.21202L298.11783,488.45205L297.8778,488.45205L297.39774,488.45205L297.39774,488.69208L
				297.15771,488.69208L297.15771,488.9321L296.67765,488.9321L296.67765,489.17213L295.71753,489.17213L294.99744,489.17213L294.99744,489.41215
				L294.27735,489.41215L294.27735,489.65218L294.03731,489.65218L294.03731,489.41215L293.55725,489.41215L293.55725,489.17213
				L293.07719,489.17213L292.59713,489.17213L292.59713,488.9321L292.3571,488.9321L292.3571,488.69208L291.63701,488.69208L291.63701,488.45205
				L291.39698,488.45205L291.15695,488.45205L291.15695,488.21202L290.67689,488.21202L290.67689,487.972L290.19683,487.972L289.9568,487.972
				L289.9568,487.73197L289.47674,487.73197L289.47674,487.49195L289.23671,487.49195L289.23671,487.25192L289.23671,487.0119L288.99668,487.0119
				L288.99668,486.77187L288.75664,486.77187L288.75664,486.53185L288.75664,485.81177L288.51661,485.81177L288.51661,484.85167
				L288.27658,484.85167L288.27658,483.89156L288.03655,483.89156L288.03655,481.97136L288.03655,480.05116L287.79652,480.05116
				L287.79652,475.01062L288.03655,475.01062L288.03655,473.81049L288.03655,473.33044L288.27658,473.33044L288.27658,473.09041
				L288.51661,473.09041L288.51661,472.61036L288.75664,472.61036L288.75664,472.37034L288.75664,471.89029L288.99668,471.89029
				L288.99668,471.65026L289.23671,471.65026L289.23671,471.17021L289.23671,470.93018L289.47674,470.93018L289.47674,470.69016
				L289.71677,470.69016L289.71677,470.21011L289.9568,470.21011L289.9568,469.97008L289.9568,469.49003L290.19683,469.49003L290.19683,469.25
				L290.43686,469.25L290.43686,469.00998L290.43686,467.3298L290.43686,466.12967L290.19683,466.12967L290.19683,465.40959L289.9568,465.40959
				L289.9568,465.16957L290.91692,465.16957L291.15695,465.16957L291.15695,464.92954L291.15695,464.68952L291.39698,464.68952L
				291.39698,464.44949L291.63701,464.44949L291.63701,464.20947L291.87704,464.20947L291.87704,463.96944L292.11707,463.96944L
				292.3571,463.96944L292.3571,463.72942L292.3571,463.48939L292.59713,463.48939L292.59713,463.24936L292.83716,463.24936"/>
			<path clip-path="url(#SVG_CP_2)" fill="none" stroke="#999999" stroke-width="0.96012" stroke-miterlimit="10" stroke-linecap="round" stroke-linejoin="round" d="
				M304.59865,486.05179L304.59865,486.29182L304.35862,486.29182L304.35862,486.77187L304.11859,486.77187L304.11859,487.25192
				L303.87856,487.25192L303.87856,487.49195L303.63853,487.49195L303.63853,487.73197L303.3985,487.73197L303.3985,487.972L303.15847,487.972
				L302.91844,487.972L302.91844,488.21202L302.67841,488.21202L302.67841,488.45205L302.19835,488.45205L302.19835,488.69208L301.71829,488.69208
				L301.71829,488.9321L301.47826,488.9321L301.47826,489.17213L301.23823,489.17213L300.9982,489.17213L300.9982,489.41215L300.51814,489.41215
				L300.51814,489.65218L300.27811,489.65218L300.27811,489.8922L300.03808,489.8922L299.79805,489.8922L299.79805,490.13223L299.55802,490.13223
				L299.55802,490.37225L298.59789,490.37225L297.8778,490.37225L298.11783,490.37225L298.11783,490.13223L298.59789,490.13223L
				298.59789,489.8922L298.83792,489.8922L299.07795,489.8922L299.07795,489.65218L299.55802,489.65218L299.55802,489.41215L299.79805,489.41215
				L299.79805,489.17213L300.03808,489.17213L300.27811,489.17213L300.27811,488.9321L300.75817,488.9321L300.75817,488.69208L300.9982,488.69208
				L300.9982,488.45205L301.47826,488.45205L301.71829,488.45205L301.71829,488.21202L301.95832,488.21202L301.95832,487.972L302.19835,487.972
				L302.19835,487.73197L302.67841,487.73197L302.67841,487.49195L302.91844,487.49195L302.91844,487.25192L303.15847,487.25192
				L303.15847,487.0119L303.3985,487.0119L303.3985,486.77187L303.63853,486.77187L303.63853,486.53185L304.11859,486.53185L304.11859,486.29182
				L304.11859,486.05179L304.35862,486.05179L304.59865,486.05179"/>
		</g>
</g></svg>