<?xml version="1.0" encoding="utf-8" standalone="no"?>
<!-- Creator: ESRI ArcMap 10.0.0.2414 -->
<!DOCTYPE svg PUBLIC "-//W3C//DTD SVG 1.1//EN"  "http://www.w3.org/Graphics/SVG/1.1/DTD/svg11.dtd">
<svg width="595.50236pt" height="595.50236pt" viewBox="25 148.377955 545.50236 545.50236" enable-background="new 25 148.377955 545.50236 545.50236"
	version="1.1" xmlns="http://www.w3.org/2000/svg" xmlns:xlink="http://www.w3.org/1999/xlink" >
	<g id="Couches">
		<g id="reservoirs">
			<clipPath id="SVG_CP_2">
				<path d="M574.39289,21.36228L21.36271,21.36228L21.36271,821.36753L574.39289,821.36753L574.39289,21.36228z"/>
			</clipPath>
			<path clip-path="url(#SVG_CP_2)" fill-opacity="0.08" fill="#2f4493" fill-rule="evenodd" stroke="#2f4493" stroke-width="1" stra="1.44018" stroke-miterlimit="10" stroke-linecap="round" stroke-linejoin="round" d="
				M281.07567,861.21177L285.39622,818.72724L258.27278,817.76714L233.54964,818.72724L222.9883,859.29157L230.66927,861.21177L
				22.0828,861.21177L13.44171,846.33019L-6.24079,810.08632L-6.24079,504.29374L69.12877,510.05435L116.17474,477.41087L289.23671,498.2931
				L267.1539,631.02724L292.59713,696.07417L291.39698,861.21177L281.07567,861.21177z"/>
			<path clip-path="url(#SVG_CP_2)" fill-opacity="0.08" fill="#2f4493" fill-rule="evenodd" stroke="#2f4493" stroke-width="1" stra="1.44018" stroke-miterlimit="10" stroke-linecap="round" stroke-linejoin="round" d="
				M129.85648,-18.722L96.25222,61.9266L68.88874,230.90461L80.89027,243.14591L94.572,257.06739L192.02437,290.67097L309.15923,306.99271
				L310.11936,307.23274L332.68222,349.47724L108.25374,295.71151L69.84886,290.67097L32.88417,279.14975L-6.24079,256.10729L-6.24079,-18.722
				L129.85648,-18.722z"/>
		</g>
</g></svg>