<?xml version="1.0" encoding="utf-8" standalone="no"?>
<!-- Creator: ESRI ArcMap 10.0.0.2414 -->
<!DOCTYPE svg PUBLIC "-//W3C//DTD SVG 1.1//EN"  "http://www.w3.org/Graphics/SVG/1.1/DTD/svg11.dtd">
<svg width="595.50236pt" height="595.50236pt" viewBox="25 148.377955 545.50236 545.50236" enable-background="new 25 148.377955 545.50236 545.50236"
	version="1.1" xmlns="http://www.w3.org/2000/svg" xmlns:xlink="http://www.w3.org/1999/xlink" >
	<g id="Couches">
		<g id="cont_1">
			<clipPath id="SVG_CP_2">
				<path d="M574.39289,21.36228L21.36271,21.36228L21.36271,821.36753L574.39289,821.36753L574.39289,21.36228z"/>
			</clipPath>
			<path clip-path="url(#SVG_CP_2)" fill="none" stroke="#999999" stroke-width="0.96012" stroke-miterlimit="10" stroke-linecap="round" stroke-linejoin="round" d="
				M601.9964,209.78236L601.2763,209.78236L601.2763,208.3422L599.83612,208.3422L599.83612,206.66202L596.95576,206.66202L596.95576,205.22187
				L595.27554,205.22187L595.27554,203.78172L593.83536,203.78172L593.83536,202.10154L590.71496,202.10154L590.71496,200.66138
				L589.27478,200.66138L589.27478,199.22123L586.15439,199.22123L586.15439,197.54105L584.7142,197.54105L584.7142,196.1009L583.27402,196.1009
				L583.27402,194.66074L580.15362,194.66074L580.15362,192.98056L578.71344,192.98056L578.71344,191.54041L577.03323,191.54041
				L577.03323,190.10026L574.15286,190.10026L574.15286,188.42008L572.47265,188.42008L572.47265,186.97993L571.03247,186.97993
				L571.03247,185.53977L567.91207,185.53977L567.91207,183.85959L566.47189,183.85959L566.47189,182.41944L565.0317,182.41944L
				565.0317,180.97929L561.91131,180.97929L561.91131,179.53913L560.47113,179.53913L560.47113,177.85895L557.35073,177.85895L557.35073,176.4188
				L555.91055,176.4188L555.91055,174.97865L554.47036,174.97865L554.47036,173.29847L551.34997,173.29847L551.34997,171.85831L
				549.90979,171.85831L549.90979,170.41816L548.22957,170.41816L548.22957,168.73798L545.34921,168.73798L545.34921,167.29783L
				543.66899,167.29783L543.66899,165.85767L542.22881,165.85767L542.22881,164.1775L539.10841,164.1775L539.10841,162.73734L537.66823,162.73734
				L537.66823,161.29719L536.22805,161.29719L536.22805,159.61701L533.10765,159.61701L533.10765,158.17686L531.66747,158.17686
				L531.66747,156.7367L528.54707,156.7367L528.54707,155.05652L527.10689,155.05652L527.10689,153.61637L525.42668,153.61637L525.42668,152.17622
				L522.54631,152.17622L522.54631,150.49604L520.8661,150.49604L520.8661,149.05588L519.42592,149.05588L519.42592,147.61573L516.54555,147.61573
				L516.54555,145.93555L511.98497,145.93555L511.98497,144.4954L508.86458,144.4954L508.86458,143.05524L507.42439,143.05524L507.42439,144.4954
				L505.74418,144.4954L505.74418,147.61573L504.304,147.61573L504.304,150.49604L502.86382,150.49604L502.86382,153.61637L501.1836,153.61637
				L501.1836,156.7367L499.74342,156.7367L499.74342,159.61701L498.30324,159.61701L498.30324,162.73734L496.62302,162.73734L496.62302,165.85767
				L495.18284,165.85767L495.18284,168.73798L493.74266,168.73798L493.74266,171.85831L492.06244,171.85831L492.06244,174.97865
				L490.62226,174.97865L490.62226,177.85895L489.18208,177.85895L489.18208,180.97929L487.50187,180.97929L487.50187,183.85959
				L486.06168,183.85959L486.06168,186.97993L484.6215,186.97993L484.6215,190.10026L482.94129,190.10026L482.94129,192.98056L481.5011,192.98056
				L481.5011,196.1009L480.06092,196.1009L480.06092,199.22123L478.38071,199.22123L478.38071,202.10154L476.94053,202.10154L476.94053,205.22187
				L475.50034,205.22187L475.50034,208.3422L474.06016,208.3422L474.06016,211.22251L472.37995,211.22251L472.37995,214.34284L470.93976,214.34284
				L470.93976,217.46317L469.49958,217.46317L469.49958,220.34348L467.81937,220.34348L467.81937,223.46381L466.37919,223.46381
				L466.37919,226.34412L464.939,226.34412L464.939,229.46445L463.25879,229.46445L463.25879,232.58478L461.81861,232.58478L461.81861,235.46509
				L460.37842,235.46509L460.37842,238.58542L458.69821,238.58542L458.69821,241.70576L457.25803,241.70576L457.25803,244.58606
				L455.81785,244.58606L455.81785,247.7064L454.13763,247.7064L454.13763,250.82673L452.69745,250.82673L452.69745,253.70704L451.25727,253.70704
				L451.25727,256.82737L449.57705,256.82737L449.57705,259.9477L448.13687,259.9477L448.13687,262.82801L446.69669,262.82801L446.69669,267.38849
				L445.01647,267.38849L445.01647,270.50883L443.57629,270.50883L443.57629,273.38913L442.13611,273.38913L442.13611,277.94962
				L440.4559,277.94962L440.4559,281.06995L439.01571,281.06995L439.01571,285.63044L437.57553,285.63044L437.57553,288.75077L436.13535,288.75077
				L436.13535,293.31126L434.45513,293.31126L434.45513,296.19156L433.01495,296.19156L433.01495,300.75205L431.57477,300.75205
				L431.57477,303.87238L429.89456,303.87238L429.89456,308.43287L428.45437,308.43287L428.45437,311.31317L427.01419,311.31317
				L427.01419,315.87366L425.33398,315.87366L425.33398,318.99399L423.89379,318.99399L423.89379,323.55448L422.45361,323.55448
				L422.45361,326.67481L420.7734,326.67481L420.7734,331.2353L419.33322,331.2353L419.33322,334.1156L417.89303,334.1156L417.89303,338.67609
				L416.21282,338.67609L416.21282,341.79642L414.77264,341.79642L414.77264,346.35691L413.33245,346.35691L413.33245,349.23722
				L411.65224,349.23722L411.65224,353.7977L410.21206,353.7977L410.21206,356.91803L408.77187,356.91803L408.77187,361.47852L407.09166,361.47852
				L407.09166,364.59885L405.65148,364.59885L405.65148,369.15934L404.2113,369.15934L404.2113,372.03965L402.53108,372.03965L402.53108,376.60013
				L401.0909,376.60013L401.0909,382.8408L399.65072,382.8408L399.65072,387.16126L397.9705,387.16126L397.9705,391.72174L396.53032,391.72174
				L396.53032,397.96241L395.09014,397.96241L395.09014,402.52289L393.64996,402.52289L393.64996,408.52353L391.96974,408.52353
				L391.96974,413.08402L390.52956,413.08402L390.52956,417.64451L389.08938,417.64451L389.08938,423.64514L387.40916,423.64514
				L387.40916,428.20563L385.96898,428.20563L385.96898,432.76612L384.5288,432.76612L384.5288,438.76676L382.84859,438.76676L382.84859,443.32724
				L381.4084,443.32724L381.4084,447.88773L379.96822,447.88773L379.96822,454.12839L369.16685,454.12839L369.16685,452.44821L370.84706,452.44821
				L370.84706,447.88773L372.28724,447.88773L372.28724,441.88709L373.72743,441.88709L373.72743,435.88645L375.40764,435.88645
				L375.40764,431.32596L376.84782,431.32596L376.84782,425.32532L378.28801,425.32532L378.28801,420.76484L379.96822,420.76484
				L379.96822,414.52417L381.4084,414.52417L381.4084,409.96369L382.84859,409.96369L382.84859,403.96305L384.5288,403.96305L384.5288,399.40256
				L385.96898,399.40256L385.96898,393.40192L387.40916,393.40192L387.40916,388.84144L389.08938,388.84144L389.08938,382.8408L
				390.52956,382.8408L390.52956,378.28031L391.96974,378.28031L391.96974,373.71982L393.64996,373.71982L393.64996,369.15934L395.09014,369.15934
				L395.09014,366.03901L396.53032,366.03901L396.53032,361.47852L397.9705,361.47852L397.9705,356.91803L399.65072,356.91803L399.65072,352.35755
				L401.0909,352.35755L401.0909,349.23722L402.53108,349.23722L402.53108,344.91676L404.2113,344.91676L404.2113,340.35627L405.65148,340.35627
				L405.65148,335.79578L407.09166,335.79578L407.09166,332.67545L408.77187,332.67545L408.77187,328.11496L410.21206,328.11496
				L410.21206,323.55448L411.65224,323.55448L411.65224,318.99399L413.33245,318.99399L413.33245,315.87366L414.77264,315.87366
				L414.77264,311.31317L416.21282,311.31317L416.21282,306.75269L417.89303,306.75269L417.89303,303.87238L419.33322,303.87238
				L419.33322,299.3119L420.7734,299.3119L420.7734,296.19156L422.45361,296.19156L422.45361,293.31126L423.89379,293.31126L423.89379,290.19092
				L425.33398,290.19092L425.33398,285.63044L427.01419,285.63044L427.01419,282.51011L428.45437,282.51011L428.45437,279.6298L
				429.89456,279.6298L429.89456,276.50947L431.57477,276.50947L431.57477,271.94898L433.01495,271.94898L433.01495,268.82865L434.45513,268.82865
				L434.45513,265.94834L436.13535,265.94834L436.13535,262.82801L437.57553,262.82801L437.57553,258.26752L439.01571,258.26752
				L439.01571,255.38721L440.4559,255.38721L440.4559,252.26688L442.13611,252.26688L442.13611,249.14655L443.57629,249.14655L443.57629,244.58606
				L445.01647,244.58606L445.01647,241.70576L446.69669,241.70576L446.69669,238.58542L448.13687,238.58542L448.13687,235.46509
				L449.57705,235.46509L449.57705,230.90461L451.25727,230.90461L451.25727,228.0243L452.69745,228.0243L452.69745,224.90397L454.13763,224.90397
				L454.13763,222.02366L455.81785,222.02366L455.81785,217.46317L457.25803,217.46317L457.25803,214.34284L458.69821,214.34284
				L458.69821,211.22251L460.37842,211.22251L460.37842,206.66202L461.81861,206.66202L461.81861,203.78172L463.25879,203.78172
				L463.25879,200.66138L464.939,200.66138L464.939,197.54105L466.37919,197.54105L466.37919,192.98056L467.81937,192.98056L467.81937,190.10026
				L469.49958,190.10026L469.49958,186.97993L470.93976,186.97993L470.93976,183.85959L472.37995,183.85959L472.37995,179.53913
				L474.06016,179.53913L474.06016,176.4188L475.50034,176.4188L475.50034,173.29847L476.94053,173.29847L476.94053,170.41816L478.38071,170.41816
				L478.38071,165.85767L480.06092,165.85767L480.06092,162.73734L481.5011,162.73734L481.5011,159.61701L482.94129,159.61701L482.94129,155.05652
				L484.6215,155.05652L484.6215,152.17622L486.06168,152.17622L486.06168,149.05588L487.50187,149.05588L487.50187,145.93555L489.18208,145.93555
				L489.18208,141.61509L490.62226,141.61509L490.62226,138.49476L492.06244,138.49476L492.06244,135.37443L493.74266,135.37443
				L493.74266,130.81394L495.18284,130.81394L495.18284,127.93363L496.62302,127.93363L496.62302,123.37315L498.30324,123.37315
				L498.30324,120.25281L499.74342,120.25281L499.74342,115.69233L501.1836,115.69233L501.1836,112.572L502.86382,112.572L502.86382,109.69169
				L504.304,109.69169L504.304,105.1312L505.74418,105.1312L505.74418,102.01087L507.42439,102.01087L507.42439,97.45038L508.86458,97.45038
				L508.86458,94.57008L510.30476,94.57008L510.30476,91.44975L511.98497,91.44975L511.98497,86.88926L513.42516,86.88926L513.42516,83.76893
				L514.86534,83.76893L514.86534,79.20844L516.54555,79.20844L516.54555,76.32813L517.98573,76.32813L517.98573,71.76765L519.42592,71.76765
				L519.42592,68.64732L520.8661,68.64732L520.8661,65.52698L522.54631,65.52698L522.54631,61.20652L523.9865,61.20652L523.9865,58.08619
				L525.42668,58.08619L525.42668,53.5257L527.10689,53.5257L527.10689,50.40537L528.54707,50.40537L528.54707,45.84489L529.98726,45.84489
				L529.98726,42.96458L531.66747,42.96458L531.66747,39.84425L533.10765,39.84425L533.10765,35.28376L534.54784,35.28376L534.54784,32.16343
				L536.22805,32.16343L536.22805,29.28312L537.66823,29.28312L537.66823,26.16279L539.10841,26.16279L539.10841,21.6023L540.78863,21.6023
				L540.78863,18.722L542.22881,18.722L542.22881,15.60166L543.66899,15.60166L543.66899,12.48133L545.34921,12.48133L545.34921,9.60102
				L546.78939,9.60102L546.78939,6.48069L548.22957,6.48069L548.22957,1.92021L549.90979,1.92021L549.90979,-1.20013L551.34997,-1.20013
				L551.34997,-4.08044L552.79015,-4.08044L552.79015,-7.20077L554.47036,-7.20077L554.47036,-10.3211L555.91055,-10.3211L555.91055,-14.88159
				L557.35073,-14.88159L557.35073,-17.76189L559.03094,-17.76189L559.03094,-18.722M446.69669,-18.722L446.69669,-16.32174L445.01647,-16.32174
				L445.01647,-8.64092L428.45437,-8.64092L428.45437,-7.20077L402.53108,-7.20077L402.53108,-5.76061L378.28801,-5.76061L378.28801,-4.08044
				L354.04493,-4.08044L354.04493,-2.64028L328.36167,-2.64028L328.36167,-1.20013L304.11859,-1.20013L304.11859,0.48005L278.1953,0.48005
				L278.1953,1.92021L253.95223,1.92021L253.95223,3.36036L228.26897,3.36036L228.26897,5.04054L220.58799,5.04054L220.58799,-17.76189
				L219.14781,-17.76189L219.14781,-18.722"/>
			<path clip-path="url(#SVG_CP_2)" fill="none" stroke="#999999" stroke-width="0.96012" stroke-miterlimit="10" stroke-linecap="round" stroke-linejoin="round" d="
				M313.23975,861.21177L313.23975,795.44476L314.67993,795.44476L314.67993,774.08249L316.12012,774.08249L316.12012,754.40039
				L317.5603,754.40039L317.5603,734.71829L319.24051,734.71829L319.24051,719.59668L320.6807,719.59668L320.6807,704.47507L322.12088,704.47507
				L322.12088,689.11343L323.80109,689.11343L323.80109,673.99182L325.24127,673.99182L325.24127,658.87021L326.68146,658.87021
				L326.68146,643.7486L328.36167,643.7486L328.36167,636.06778L329.80185,636.06778L329.80185,628.62699L331.24204,628.62699L331.24204,620.94617
				L332.92225,620.94617L332.92225,613.26535L334.36243,613.26535L334.36243,604.14438L335.80261,604.14438L335.80261,596.70359
				L337.48283,596.70359L337.48283,589.02277L338.92301,589.02277L338.92301,581.58197L340.36319,581.58197L340.36319,573.90116
				L342.04341,573.90116L342.04341,566.22034L343.48359,566.22034L343.48359,558.77954L344.92377,558.77954L344.92377,551.09873
				L346.60399,551.09873L346.60399,543.65793L348.04417,543.65793L348.04417,535.97711L349.48435,535.97711L349.48435,529.97648
				L351.16456,529.97648L351.16456,522.29566L352.60475,522.29566L352.60475,516.29502L354.04493,516.29502L354.04493,508.6142L
				355.48511,508.6142L355.48511,501.17341L357.16533,501.17341L357.16533,494.93274L358.60551,494.93274L358.60551,490.37225L360.04569,490.37225
				L360.04569,484.37162L361.7259,484.37162L361.7259,479.81113L363.16609,479.81113L363.16609,473.81049L364.60627,473.81049L364.60627,469.25
				L366.28648,469.25L366.28648,463.24936L367.72667,463.24936L367.72667,458.68888L369.16685,458.68888L369.16685,455.56855L370.84706,455.56855
				L370.84706,457.0087L378.28801,457.0087L378.28801,460.12903L376.84782,460.12903L376.84782,466.12967L375.40764,466.12967L375.40764,472.13031
				L373.72743,472.13031L373.72743,478.37098L372.28724,478.37098L372.28724,484.37162L370.84706,484.37162L370.84706,490.37225
				L369.16685,490.37225L369.16685,496.61292L367.72667,496.61292L367.72667,502.61356L366.28648,502.61356L366.28648,510.05435
				L364.60627,510.05435L364.60627,516.29502L363.16609,516.29502L363.16609,522.29566L361.7259,522.29566L361.7259,529.97648L360.04569,529.97648
				L360.04569,537.41727L358.60551,537.41727L358.60551,545.09809L357.16533,545.09809L357.16533,552.53888L355.48511,552.53888
				L355.48511,560.2197L354.04493,560.2197L354.04493,567.90052L352.60475,567.90052L352.60475,573.90116L351.16456,573.90116L351.16456,581.58197
				L349.48435,581.58197L349.48435,590.70295L348.04417,590.70295L348.04417,599.58389L346.60399,599.58389L346.60399,608.70486
				L344.92377,608.70486L344.92377,616.38568L343.48359,616.38568L343.48359,625.50666L342.04341,625.50666L342.04341,634.62763
				L340.36319,634.62763L340.36319,643.7486L338.92301,643.7486L338.92301,651.18939L337.48283,651.18939L337.48283,660.31036L335.80261,660.31036
				L335.80261,669.43134L334.36243,669.43134L334.36243,678.55231L332.92225,678.55231L332.92225,692.23377L331.24204,692.23377
				L331.24204,710.47571L329.80185,710.47571L329.80185,728.71765L328.36167,728.71765L328.36167,745.27942L326.68146,745.27942
				L326.68146,763.52136L325.24127,763.52136L325.24127,800.00525L323.80109,800.00525L323.80109,856.17123L322.12088,856.17123
				L322.12088,861.21177"/>
		</g>
</g></svg>