<?xml version="1.0" encoding="utf-8" standalone="no"?>
<!-- Creator: ESRI ArcMap 10.0.0.2414 -->
<!DOCTYPE svg PUBLIC "-//W3C//DTD SVG 1.1//EN"  "http://www.w3.org/Graphics/SVG/1.1/DTD/svg11.dtd">
<svg width="595.50236pt" height="595.50236pt" viewBox="25 148.377955 545.50236 545.50236" enable-background="new 25 148.377955 545.50236 545.50236"
	version="1.1" xmlns="http://www.w3.org/2000/svg" xmlns:xlink="http://www.w3.org/1999/xlink" >
	<g id="Couches">
		<g id="cont_2">
			<path clip-path="url(#SVG_CP_2)" fill="none" stroke="#999999" stroke-width="0.96012" stroke-miterlimit="10" stroke-linecap="round" stroke-linejoin="round" d="
				M373.96746,301.71215L373.96746,262.82801L413.09242,262.82801L413.09242,223.70384L451.97736,223.70384L451.97736,184.57967
				L491.10232,184.57967L491.10232,145.69553L569.11222,145.69553L569.11222,106.57136L601.9964,106.57136M601.9964,340.83632L530.22729,340.83632
				L530.22729,379.96049L491.10232,379.96049L491.10232,418.84463L451.97736,418.84463L451.97736,340.83632L413.09242,340.83632
				L413.09242,301.71215L373.96746,301.71215"/>
			<path clip-path="url(#SVG_CP_2)" fill="none" stroke="#999999" stroke-width="0.96012" stroke-miterlimit="10" stroke-linecap="round" stroke-linejoin="round" d="
				M373.96746,301.71215L373.96746,418.84463L413.09242,418.84463L413.09242,457.9688L373.96746,457.9688L373.96746,497.09297L295.95756,497.09297
				L295.95756,535.97711L256.83259,535.97711L256.83259,575.10128L217.70763,575.10128L217.70763,613.98543L139.69773,613.98543
				L139.69773,653.1096L100.81279,653.1096L100.81279,692.23377L61.68783,692.23377L61.68783,731.11791L-6.24079,731.11791M-6.24079,535.97711
				L22.56286,535.97711L22.56286,497.09297L61.68783,497.09297L61.68783,457.9688L139.69773,457.9688L139.69773,418.84463L178.82269,418.84463
				L178.82269,379.96049L217.70763,379.96049L217.70763,340.83632L295.95756,340.83632L295.95756,301.71215L373.96746,301.71215
				"/>
		</g>
</g></svg>