<?xml version="1.0" encoding="utf-8" standalone="no"?>
<!-- Creator: ESRI ArcMap 10.0.0.2414 -->
<!DOCTYPE svg PUBLIC "-//W3C//DTD SVG 1.1//EN"  "http://www.w3.org/Graphics/SVG/1.1/DTD/svg11.dtd">
<svg width="595.50236pt" height="595.50236pt" viewBox="25 148.377955 545.50236 545.50236" enable-background="new 25 148.377955 545.50236 545.50236"
	version="1.1" xmlns="http://www.w3.org/2000/svg" xmlns:xlink="http://www.w3.org/1999/xlink" >
	<g id="Couches">
		<g id="cont_1">
			<clipPath id="SVG_CP_2">
				<path d="M574.39289,21.36228L21.36271,21.36228L21.36271,821.36753L574.39289,821.36753L574.39289,21.36228z"/>
			</clipPath>
			<path clip-path="url(#SVG_CP_2)" fill="none" stroke="#999999" stroke-width="0.96012" stroke-miterlimit="10" stroke-linecap="round" stroke-linejoin="round" d="
				M340.60322,387.64131L338.92301,387.64131L338.92301,386.68121L339.6431,386.68121L339.6431,385.96113L341.32332,385.96113L341.32332,386.68121
				L340.60322,386.68121L340.60322,387.64131"/>
			<path clip-path="url(#SVG_CP_2)" fill="none" stroke="#999999" stroke-width="0.96012" stroke-miterlimit="10" stroke-linecap="round" stroke-linejoin="round" d="
				M380.92834,350.43734L380.20825,350.43734L380.20825,351.39745L379.24813,351.39745L379.24813,352.11752L378.52804,352.11752
				L378.52804,353.07762L377.56791,353.07762L377.56791,353.7977L376.84782,353.7977L376.84782,354.7578L375.8877,354.7578L375.8877,355.47788
				L375.16761,355.47788L375.16761,356.43798L374.20749,356.43798L374.20749,357.15806L373.4874,357.15806L373.4874,358.11816L372.52728,358.11816
				L372.52728,358.83824L371.80718,358.83824L371.80718,359.79834L370.84706,359.79834L370.84706,360.51842L370.12697,360.51842
				L370.12697,361.47852L369.16685,361.47852L369.16685,362.1986L368.44676,362.1986L368.44676,363.1587L367.48664,363.1587L367.48664,363.87878
				L366.76654,363.87878L366.76654,364.83888L365.80642,364.83888L365.80642,365.55895L364.8463,365.55895L364.8463,366.51906L359.80566,366.51906
				L359.80566,367.23913L357.40536,367.23913L357.40536,368.19924L356.44523,368.19924L356.44523,368.91931L355.72514,368.91931
				L355.72514,369.87942L354.76502,369.87942L354.76502,370.59949L354.04493,370.59949L354.04493,371.55959L353.08481,371.55959
				L353.08481,372.27967L352.36472,372.27967L352.36472,373.23977L351.40459,373.23977L351.40459,373.95985L350.6845,373.95985L
				350.6845,374.91995L349.72438,374.91995L349.72438,375.64003L349.00429,375.64003L349.00429,376.60013L348.04417,376.60013L348.04417,377.32021
				L347.32408,377.32021L347.32408,378.28031L346.36396,378.28031L346.36396,379.24041L345.64386,379.24041L345.64386,379.96049
				L344.68374,379.96049L344.68374,380.92059L343.96365,380.92059L343.96365,381.64067L343.00353,381.64067L343.00353,382.60077
				L342.28344,382.60077L342.28344,383.32085L341.32332,383.32085L341.32332,384.28095L340.60322,384.28095L340.60322,385.00103
				L339.6431,385.00103L339.6431,385.96113L337.2428,385.96113L337.2428,386.68121L336.28268,386.68121L336.28268,387.64131L335.56258,387.64131
				L335.56258,388.36138L334.60246,388.36138L334.60246,389.32149L333.64234,389.32149L333.64234,390.04156L332.92225,390.04156
				L332.92225,391.00167L331.96213,391.00167L331.96213,391.72174L331.24204,391.72174L331.24204,392.68185L328.6017,392.68185L
				328.6017,393.40192L327.88161,393.40192L327.88161,394.36202L326.92149,394.36202L326.92149,395.0821L326.2014,395.0821L326.2014,396.0422
				L325.24127,396.0422L325.24127,396.76228L324.52118,396.76228L324.52118,397.72238L323.56106,397.72238L323.56106,398.44246L
				322.84097,398.44246L322.84097,399.40256L321.88085,399.40256L321.88085,400.12264L321.16076,400.12264L321.16076,401.08274L
				320.20063,401.08274L320.20063,401.80282L319.48054,401.80282L319.48054,402.76292L318.52042,402.76292L318.52042,403.483L317.80033,403.483
				L317.80033,404.4431L316.84021,404.4431L316.84021,405.16318L316.12012,405.16318L316.12012,406.12328L315.16,406.12328L315.16,406.84335
				L314.4399,406.84335L314.4399,407.80346L313.47978,407.80346L313.47978,408.52353L312.75969,408.52353L312.75969,409.48364L311.79957,409.48364
				L311.79957,410.44374L311.07948,410.44374L311.07948,411.16381L310.11936,411.16381L310.11936,412.12392L309.39926,412.12392
				L309.39926,412.84399L308.43914,412.84399L308.43914,413.8041L307.71905,413.8041L307.71905,414.52417L306.75893,414.52417L306.75893,415.48427
				L306.03884,415.48427L306.03884,416.20435L305.07872,416.20435L305.07872,417.16445L304.35862,417.16445L304.35862,417.88453
				L303.3985,417.88453L303.3985,418.84463L302.43838,418.84463L302.43838,419.56471L301.71829,419.56471L301.71829,420.52481L300.75817,420.52481
				L300.75817,421.24489L300.03808,421.24489L300.03808,422.20499L299.07795,422.20499L299.07795,422.92507L298.35786,422.92507
				L298.35786,423.88517L297.39774,423.88517L297.39774,424.60525L296.67765,424.60525L296.67765,425.56535L282.27582,425.56535
				L282.27582,426.28543L281.55573,426.28543L281.55573,427.24553L276.51509,427.24553L276.51509,427.9656L267.1539,427.9656L267.1539,428.92571
				L266.19378,428.92571L266.19378,429.64578L265.47369,429.64578L265.47369,430.60589L264.51357,430.60589L264.51357,431.32596
				L263.79348,431.32596L263.79348,432.28607L262.83335,432.28607L262.83335,433.00614L262.11326,433.00614L262.11326,433.96624
				L261.15314,433.96624L261.15314,434.68632L260.43305,434.68632L260.43305,435.64642L259.47293,435.64642L259.47293,436.3665L
				258.75284,436.3665L258.75284,437.3266L257.79272,437.3266L257.79272,438.04668L257.07262,438.04668L257.07262,439.00678L256.1125,439.00678
				L256.1125,439.72686L255.39241,439.72686L255.39241,440.68696L254.43229,440.68696L254.43229,441.64706L253.7122,441.64706L253.7122,442.36714
				L252.75208,442.36714L252.75208,443.32724L252.03198,443.32724L252.03198,444.04732L251.07186,444.04732L251.07186,445.00742
				L250.35177,445.00742L250.35177,445.7275L249.39165,445.7275L249.39165,446.6876L248.67156,446.6876L248.67156,447.40768L247.71144,447.40768
				L247.71144,448.36778L246.99134,448.36778L246.99134,449.08786L246.03122,449.08786L246.03122,450.04796L245.31113,450.04796
				L245.31113,450.76803L244.35101,450.76803L244.35101,451.72814L243.63092,451.72814L243.63092,452.44821L242.6708,452.44821L
				242.6708,453.40832L241.9507,453.40832L241.9507,454.12839L240.99058,454.12839L240.99058,455.0885L240.03046,455.0885L240.03046,455.80857
				L239.31037,455.80857L239.31037,456.76867L238.35025,456.76867L238.35025,457.48875L236.67003,457.48875L236.67003,458.44885
				L235.94994,458.44885L235.94994,459.16893L234.98982,459.16893L234.98982,460.12903L234.26973,460.12903L234.26973,460.84911
				L233.30961,460.84911L233.30961,461.80921L232.58952,461.80921L232.58952,462.52929L231.62939,462.52929L231.62939,463.48939
				L230.9093,463.48939L230.9093,464.20947L229.94918,464.20947L229.94918,465.16957L229.22909,465.16957L229.22909,465.88965L228.26897,465.88965
				L228.26897,466.84975L227.54888,466.84975L227.54888,467.56983L226.58876,467.56983L226.58876,468.52993L225.86866,468.52993
				L225.86866,469.25L224.90854,469.25L224.90854,470.21011L224.18845,470.21011L224.18845,470.93018L223.22833,470.93018L223.22833,471.89029
				L222.50824,471.89029L222.50824,472.85039L221.54812,472.85039L221.54812,470.93018L220.82802,470.93018L220.82802,470.21011
				L219.8679,470.21011L219.8679,469.25L219.14781,469.25L219.14781,467.56983L215.78738,467.56983L215.78738,466.84975L211.46684,466.84975
				L211.46684,465.88965L207.14629,465.88965L207.14629,465.16957L203.06577,465.16957L203.06577,464.20947L198.74522,464.20947
				L198.74522,463.48939L194.6647,463.48939L194.6647,462.52929L190.34416,462.52929L190.34416,461.80921L186.26364,461.80921L186.26364,460.84911
				L184.58342,460.84911L184.58342,455.0885L185.30352,455.0885L185.30352,449.08786L186.26364,449.08786L186.26364,430.60589L185.30352,430.60589
				L185.30352,429.64578L184.58342,429.64578L184.58342,428.92571L182.90321,428.92571L182.90321,427.9656L181.94309,427.9656L181.94309,427.24553
				L181.223,427.24553L181.223,426.28543L180.26288,426.28543L180.26288,425.56535L178.58266,425.56535L178.58266,424.60525L177.86257,424.60525
				L177.86257,423.88517L176.90245,423.88517L176.90245,422.92507L175.94233,422.92507L175.94233,422.20499L174.26211,422.20499
				L174.26211,421.24489L173.54202,421.24489L173.54202,420.52481L172.5819,420.52481L172.5819,419.56471L171.86181,419.56471L171.86181,420.52481
				L166.82117,420.52481L166.82117,421.24489L162.50062,421.24489L162.50062,422.20499L157.45998,422.20499L157.45998,422.92507
				L153.37946,422.92507L153.37946,423.88517L147.3787,423.88517L147.3787,424.60525L138.97764,424.60525L138.97764,425.56535L135.61721,425.56535
				L135.61721,426.28543L133.937,426.28543L133.937,427.24553L132.25678,427.24553L132.25678,427.9656L130.57657,427.9656L130.57657,428.92571
				L128.89636,428.92571L128.89636,429.64578L126.25602,429.64578L126.25602,427.24553L125.53593,427.24553L125.53593,425.56535
				L124.57581,425.56535L124.57581,422.92507L123.85572,422.92507L123.85572,420.52481L122.8956,420.52481L122.8956,418.84463L122.1755,418.84463
				L122.1755,416.20435L121.21538,416.20435L121.21538,414.52417L120.49529,414.52417L120.49529,412.12392L119.53517,412.12392L
				119.53517,410.44374L118.81508,410.44374L118.81508,407.80346L117.85496,407.80346L117.85496,406.12328L117.13487,406.12328L
				117.13487,403.483L116.17474,403.483L116.17474,401.80282L115.45465,401.80282L115.45465,399.40256L114.49453,399.40256L114.49453,397.72238
				L113.53441,397.72238L113.53441,395.0821L112.81432,395.0821L112.81432,393.40192L111.8542,393.40192L111.8542,391.00167L111.1341,391.00167
				L111.1341,388.36138L110.17398,388.36138L110.17398,386.68121L109.45389,386.68121L109.45389,384.28095L108.49377,384.28095L
				108.49377,382.60077L107.77368,382.60077L107.77368,381.64067L106.81356,381.64067L106.81356,380.92059L105.13334,380.92059L
				105.13334,379.96049L104.41325,379.96049L104.41325,379.24041L102.73304,379.24041L102.73304,379.96049L101.77292,379.96049L
				101.77292,380.92059L101.05282,380.92059L101.05282,381.64067L100.0927,381.64067L100.0927,382.60077L99.37261,382.60077L99.37261,383.32085
				L98.41249,383.32085L98.41249,384.28095L97.6924,384.28095L97.6924,385.00103L96.73228,385.00103L96.73228,385.96113L96.01218,385.96113
				L96.01218,386.68121L95.05206,386.68121L95.05206,387.64131L94.33197,387.64131L94.33197,388.36138L93.37185,388.36138L93.37185,389.32149
				L92.65176,389.32149L92.65176,390.04156L91.69164,390.04156L91.69164,391.00167L90.01142,391.00167L90.01142,391.72174L89.29133,391.72174
				L89.29133,392.68185L88.33121,392.68185L88.33121,393.40192L87.61112,393.40192L87.61112,394.36202L86.651,394.36202L86.651,395.0821
				L85.93091,395.0821L85.93091,396.0422L84.97078,396.0422L84.97078,396.76228L84.25069,396.76228L84.25069,397.72238L83.29057,397.72238
				L83.29057,398.44246L82.33045,398.44246L82.33045,399.40256L81.61036,399.40256L81.61036,400.12264L80.65024,400.12264L80.65024,401.08274
				L79.93014,401.08274L79.93014,401.80282L78.97002,401.80282L78.97002,402.76292L78.24993,402.76292L78.24993,403.483L76.56972,403.483
				L76.56972,404.4431L75.6096,404.4431L75.6096,405.16318L74.8895,405.16318L74.8895,406.12328L73.92938,406.12328L73.92938,406.84335
				L73.20929,406.84335L73.20929,407.80346L72.24917,407.80346L72.24917,408.52353L71.52908,408.52353L71.52908,409.48364L70.56896,409.48364
				L70.56896,410.44374L69.84886,410.44374L69.84886,411.16381L68.88874,411.16381L68.88874,412.12392L68.16865,412.12392L68.16865,412.84399
				L67.20853,412.84399L67.20853,413.8041L66.48844,413.8041L66.48844,414.52417L65.52832,414.52417L65.52832,415.48427L64.80822,415.48427
				L64.80822,416.20435L63.12801,416.20435L63.12801,415.48427L61.4478,415.48427L61.4478,414.52417L59.76759,414.52417L59.76759,413.8041
				L58.08737,413.8041L58.08737,412.84399L57.12725,412.84399L57.12725,412.12392L56.40716,412.12392L56.40716,411.16381L55.44704,411.16381
				L55.44704,410.44374L54.72695,410.44374L54.72695,409.48364L53.76682,409.48364L53.76682,407.80346L53.04673,407.80346L53.04673,406.84335
				L52.08661,406.84335L52.08661,406.12328L51.12649,406.12328L51.12649,405.16318L50.4064,405.16318L50.4064,403.483L49.44628,403.483
				L49.44628,401.80282L48.72618,401.80282L48.72618,399.40256L47.76606,399.40256L47.76606,396.76228L47.04597,396.76228L47.04597,394.36202
				L46.08585,394.36202L46.08585,391.72174L45.36576,391.72174L45.36576,389.32149L44.40564,389.32149L44.40564,386.68121L43.68554,386.68121
				L43.68554,384.28095L42.72542,384.28095L42.72542,382.60077L43.68554,382.60077L43.68554,379.96049L44.40564,379.96049L44.40564,377.32021
				L45.36576,377.32021L45.36576,373.95985L46.08585,373.95985L46.08585,373.23977L47.76606,373.23977L47.76606,372.27967L48.72618,372.27967
				L48.72618,371.55959L49.44628,371.55959L49.44628,370.59949L50.4064,370.59949L50.4064,363.1587L48.72618,363.1587L48.72618,363.87878
				L47.04597,363.87878L47.04597,364.83888L44.40564,364.83888L44.40564,365.55895L42.00533,365.55895L42.00533,366.51906L40.32512,366.51906
				L40.32512,367.23913L37.68478,367.23913L37.68478,368.19924L35.28448,368.19924L35.28448,368.91931L33.60426,368.91931L33.60426,369.87942
				L30.96393,369.87942L30.96393,370.59949L28.56363,370.59949L28.56363,371.55959L26.88341,371.55959L26.88341,372.27967L24.24308,372.27967
				L24.24308,373.23977L21.84277,373.23977L21.84277,373.95985L19.92253,373.95985L19.92253,374.91995L17.52222,374.91995L17.52222,375.64003
				L14.88189,375.64003L14.88189,376.60013L13.20168,376.60013L13.20168,377.32021L12.48158,377.32021L12.48158,378.28031L11.52146,378.28031
				L11.52146,379.96049L10.80137,379.96049L10.80137,380.92059L9.84125,380.92059L9.84125,381.64067L9.12116,381.64067L9.12116,383.32085
				L8.16104,383.32085L8.16104,384.28095L7.44094,384.28095L7.44094,385.00103L6.48082,385.00103L6.48082,385.96113L5.76073,385.96113
				L5.76073,387.64131L4.80061,387.64131L4.80061,388.36138L4.08052,388.36138L4.08052,389.32149L3.1204,389.32149L3.1204,391.00167
				L2.40031,391.00167L2.40031,391.72174L1.44018,391.72174L1.44018,392.68185L0.72009,392.68185L0.72009,394.36202L-0.24003,394.36202
				L-0.24003,395.0821L-0.96012,395.0821L-0.96012,396.0422L-1.92024,396.0422L-1.92024,396.76228L-2.64034,396.76228L-2.64034,398.44246
				L-3.60046,398.44246L-3.60046,399.40256L-6.24079,399.40256"/>
			<path clip-path="url(#SVG_CP_2)" fill="none" stroke="#999999" stroke-width="0.96012" stroke-miterlimit="10" stroke-linecap="round" stroke-linejoin="round" d="
				M-6.24079,138.73478L585.91435,138.73478L585.91435,139.69489L584.95423,139.69489L584.95423,140.41496L584.23414,140.41496L
				584.23414,141.37507L583.27402,141.37507L583.27402,142.09514L582.55393,142.09514L582.55393,143.05524L581.59381,143.05524L
				581.59381,144.73542L583.27402,144.73542L583.27402,145.4555L584.23414,145.4555L584.23414,146.4156L584.95423,146.4156L584.95423,147.13568
				L586.87448,147.13568L586.87448,148.09578L587.59457,148.09578L587.59457,148.81586L589.27478,148.81586L589.27478,149.77596
				L590.2349,149.77596L590.2349,150.49604L591.91512,150.49604L591.91512,151.45614L592.63521,151.45614L592.63521,152.17622L594.31542,152.17622
				L594.31542,154.8165L593.59533,154.8165L593.59533,155.53657L592.63521,155.53657L592.63521,157.21675L591.91512,157.21675L591.91512,158.17686
				L590.95499,158.17686L590.95499,159.85704L590.2349,159.85704L590.2349,160.81714L589.27478,160.81714L589.27478,162.49732L590.2349,162.49732
				L590.2349,163.21739L591.91512,163.21739L591.91512,164.1775L593.59533,164.1775L593.59533,164.89757L595.27554,164.89757L595.27554,165.85767
				L596.95576,165.85767L596.95576,166.57775L598.63597,166.57775L598.63597,167.53785L600.31618,167.53785L600.31618,168.25793
				L601.9964,168.25793L601.9964,169.21803"/>
			<path clip-path="url(#SVG_CP_2)" fill="none" stroke="#999999" stroke-width="0.96012" stroke-miterlimit="10" stroke-linecap="round" stroke-linejoin="round" d="
				M601.9964,173.29847L601.9964,174.97865L601.03627,174.97865L601.03627,176.65883L600.31618,176.65883L600.31618,178.339L599.35606,178.339
				L599.35606,180.01918L598.63597,180.01918L598.63597,181.69936L597.67585,181.69936L597.67585,180.97929L595.27554,180.97929
				L595.27554,180.01918L592.63521,180.01918L592.63521,179.29911L590.2349,179.29911L590.2349,178.339L588.55469,178.339L588.55469,177.61893
				L585.91435,177.61893L585.91435,176.65883L582.55393,176.65883L582.55393,178.339L581.59381,178.339L581.59381,179.29911L580.87372,179.29911
				L580.87372,180.01918L579.91359,180.01918L579.91359,181.69936L579.1935,181.69936L579.1935,182.65946L578.23338,182.65946L578.23338,183.37954
				L577.51329,183.37954L577.51329,182.65946L575.83308,182.65946L575.83308,181.69936L573.19274,181.69936L573.19274,180.97929
				L571.51253,180.97929L571.51253,180.01918L569.11222,180.01918L569.11222,179.29911L567.43201,179.29911L567.43201,180.01918
				L566.47189,180.01918L566.47189,180.97929L565.7518,180.97929L565.7518,181.69936L564.79167,181.69936L564.79167,182.65946L564.07158,182.65946
				L564.07158,183.37954L563.11146,183.37954L563.11146,184.33964L562.39137,184.33964L562.39137,186.01982L561.43125,186.01982
				L561.43125,186.7399L560.71116,186.7399L560.71116,187.7L559.75103,187.7L559.75103,188.42008L559.03094,188.42008L559.03094,189.38018
				L558.07082,189.38018L558.07082,191.06036L557.35073,191.06036L557.35073,192.02046L556.39061,192.02046L556.39061,192.74054
				L555.67052,192.74054L555.67052,193.70064L554.71039,193.70064L554.71039,194.42072L553.75027,194.42072L553.75027,195.38082
				L552.07006,195.38082L552.07006,194.42072L551.34997,194.42072L551.34997,193.70064L549.66976,193.70064L549.66976,192.74054
				L548.70963,192.74054L548.70963,192.02046L547.98954,192.02046L547.98954,191.06036L547.02942,191.06036L547.02942,190.34028
				L545.34921,190.34028L545.34921,188.42008L546.30933,188.42008L546.30933,187.7L547.02942,187.7L547.02942,186.7399L547.98954,186.7399
				L547.98954,185.05972L547.02942,185.05972L547.02942,184.33964L546.30933,184.33964L546.30933,182.65946L545.34921,182.65946
				L545.34921,180.97929L544.62912,180.97929L544.62912,180.01918L543.66899,180.01918L543.66899,178.339L542.9489,178.339L542.9489,176.65883
				L541.98878,176.65883L541.98878,175.93875L541.26869,175.93875L541.26869,174.25857L540.30857,174.25857L540.30857,172.57839
				L536.94814,172.57839L536.94814,173.29847L534.54784,173.29847L534.54784,174.25857L532.86762,174.25857L532.86762,174.97865
				L530.22729,174.97865L530.22729,175.93875L527.82698,175.93875L527.82698,176.65883L525.18665,176.65883L525.18665,177.61893
				L522.54631,177.61893L522.54631,178.339L520.8661,178.339L520.8661,180.01918L521.82622,180.01918L521.82622,181.69936L522.54631,181.69936
				L522.54631,183.37954L523.50643,183.37954L523.50643,185.05972L524.46656,185.05972L524.46656,186.01982L525.18665,186.01982
				L525.18665,187.7L526.14677,187.7L526.14677,189.38018L526.86686,189.38018L526.86686,191.06036L527.82698,191.06036L527.82698,192.74054
				L528.54707,192.74054L528.54707,194.42072L526.14677,194.42072L526.14677,195.38082L524.46656,195.38082L524.46656,196.1009L
				521.82622,196.1009L521.82622,197.061L520.14601,197.061L520.14601,197.78108L518.4658,197.78108L518.4658,198.74118L517.50567,198.74118
				L517.50567,199.46126L518.4658,199.46126L518.4658,202.10154L517.50567,202.10154L517.50567,202.82161L516.78558,202.82161L516.78558,204.50179
				L517.50567,204.50179L517.50567,205.46189L518.4658,205.46189L518.4658,206.18197L519.18589,206.18197L519.18589,207.86215L518.4658,207.86215
				L518.4658,208.82225L517.50567,208.82225L517.50567,209.54233L515.82546,209.54233L515.82546,208.82225L515.10537,208.82225L
				515.10537,207.86215L513.42516,207.86215L513.42516,208.82225L512.46503,208.82225L512.46503,209.54233L511.74494,209.54233L
				511.74494,210.50243L510.78482,210.50243L510.78482,211.22251L510.06473,211.22251L510.06473,212.18261L509.10461,212.18261L
				509.10461,212.90269L508.38452,212.90269L508.38452,213.86279L506.7043,213.86279L506.7043,212.90269L505.74418,212.90269L505.74418,212.18261
				L505.02409,212.18261L505.02409,211.22251L501.66366,211.22251L501.66366,212.18261L500.70354,212.18261L500.70354,212.90269
				L499.02333,212.90269L499.02333,213.86279L497.34311,213.86279L497.34311,214.58287L495.6629,214.58287L495.6629,215.54297L494.94281,215.54297
				L494.94281,216.26305L493.2626,216.26305L493.2626,217.22315L491.58238,217.22315L491.58238,217.94322L489.66214,217.94322L489.66214,218.90333
				L488.94205,218.90333L488.94205,219.6234L487.98193,219.6234L487.98193,221.54361L487.26184,221.54361L487.26184,223.22379L486.30171,223.22379
				L486.30171,225.62404L485.58162,225.62404L485.58162,228.26432L484.6215,228.26432L484.6215,228.9844L483.90141,228.9844L483.90141,230.66458
				L482.94129,230.66458L482.94129,231.62468L482.2212,231.62468L482.2212,233.30486L481.26107,233.30486L481.26107,234.02494L480.54098,234.02494
				L480.54098,235.70512L479.58086,235.70512L479.58086,236.66522L478.86077,236.66522L478.86077,237.3853L477.18056,237.3853L477.18056,236.66522
				L475.50034,236.66522L475.50034,235.70512L474.54022,235.70512L474.54022,234.98504L473.82013,234.98504L473.82013,234.02494
				L472.86001,234.02494L472.86001,233.30486L471.17979,233.30486L471.17979,232.34476L470.4597,232.34476L470.4597,231.62468L469.49958,231.62468
				L469.49958,230.66458L468.77949,230.66458L468.77949,229.9445L467.09928,229.9445L467.09928,228.9844L466.13915,228.9844L466.13915,228.26432
				L465.41906,228.26432L465.41906,227.30422L464.45894,227.30422L464.45894,226.58415L462.77873,226.58415L462.77873,225.62404
				L462.05864,225.62404L462.05864,224.90397L461.09852,224.90397L461.09852,223.94386L460.37842,223.94386L460.37842,223.22379
				L458.45818,223.22379L458.45818,222.26369L457.73809,222.26369L457.73809,221.54361L456.77797,221.54361L456.77797,222.26369
				L455.09775,222.26369L455.09775,223.22379L454.37766,223.22379L454.37766,223.94386L453.41754,223.94386L453.41754,224.90397
				L452.69745,224.90397L452.69745,225.62404L451.01724,225.62404L451.01724,226.58415L450.05711,226.58415L450.05711,227.30422
				L449.33702,227.30422L449.33702,228.26432L448.3769,228.26432L448.3769,228.9844L446.69669,228.9844L446.69669,229.9445L445.9766,229.9445
				L445.9766,230.66458L445.01647,230.66458L445.01647,231.62468L444.29638,231.62468L444.29638,232.34476L443.33626,232.34476L
				443.33626,233.30486L445.01647,233.30486L445.01647,234.02494L445.9766,234.02494L445.9766,234.98504L446.69669,234.98504L446.69669,235.70512
				L447.65681,235.70512L447.65681,236.66522L449.33702,236.66522L449.33702,237.3853L450.05711,237.3853L450.05711,238.3454L451.01724,238.3454
				L451.01724,239.06548L450.05711,239.06548L450.05711,240.02558L448.3769,240.02558L448.3769,240.74565L447.65681,240.74565L447.65681,241.70576
				L445.9766,241.70576L445.9766,242.42583L445.01647,242.42583L445.01647,243.38594L444.29638,243.38594L444.29638,244.10601L442.61617,244.10601
				L442.61617,245.06611L441.65605,245.06611L441.65605,245.78619L440.93596,245.78619L440.93596,246.74629L439.25574,246.74629
				L439.25574,247.46637L438.29562,247.46637L438.29562,248.42647L436.61541,248.42647L436.61541,249.14655L435.89532,249.14655
				L435.89532,250.10665L434.9352,250.10665L434.9352,249.14655L434.2151,249.14655L434.2151,248.42647L433.25498,248.42647L433.25498,247.46637
				L432.53489,247.46637L432.53489,246.74629L431.57477,246.74629L431.57477,245.78619L430.85468,245.78619L430.85468,245.06611
				L429.89456,245.06611L429.89456,244.10601L429.17446,244.10601L429.17446,243.38594L427.25422,243.38594L427.25422,244.10601
				L425.57401,244.10601L425.57401,245.06611L424.85392,245.06611L424.85392,245.78619L423.89379,245.78619L423.89379,246.74629
				L423.1737,246.74629L423.1737,247.46637L421.49349,247.46637L421.49349,248.42647L420.53337,248.42647L420.53337,249.14655L419.81328,249.14655
				L419.81328,250.10665L418.13306,250.10665L418.13306,250.82673L417.17294,250.82673L417.17294,251.78683L416.45285,251.78683
				L416.45285,252.74693L415.49273,252.74693L415.49273,253.46701L414.77264,253.46701L414.77264,256.10729L413.81251,256.10729
				L413.81251,258.50755L413.09242,258.50755L413.09242,261.14783L412.1323,261.14783L412.1323,260.18773L410.45209,260.18773L410.45209,259.46765
				L408.77187,259.46765L408.77187,258.50755L407.09166,258.50755L407.09166,259.46765L406.37157,259.46765L406.37157,260.18773
				L405.41145,260.18773L405.41145,261.86791L404.69136,261.86791L404.69136,262.82801L403.73124,262.82801L403.73124,263.54808
				L403.01114,263.54808L403.01114,265.22826L402.05102,265.22826L402.05102,266.18837L401.33093,266.18837L401.33093,266.90844
				L400.37081,266.90844L400.37081,268.58862L399.65072,268.58862L399.65072,269.54872L398.6906,269.54872L398.6906,270.2688L397.9705,270.2688
				L397.9705,271.2289L397.01038,271.2289L397.01038,272.90908L394.37005,272.90908L394.37005,271.94898L391.00962,271.94898L391.00962,271.2289
				L387.64919,271.2289L387.64919,270.2688L384.28877,270.2688L384.28877,269.54872L380.92834,269.54872L380.92834,268.58862L380.20825,268.58862
				L380.20825,309.87302L380.92834,309.87302L380.92834,350.43734"/>
			<path clip-path="url(#SVG_CP_2)" fill="none" stroke="#999999" stroke-width="0.96012" stroke-miterlimit="10" stroke-linecap="round" stroke-linejoin="round" d="
				M53.76682,727.51753L53.04673,727.51753L53.04673,726.55742L51.12649,726.55742L51.12649,725.83735L48.72618,725.83735L48.72618,724.87724
				L47.04597,724.87724L47.04597,724.15717L45.36576,724.15717L45.36576,723.19706L43.68554,723.19706L43.68554,722.23696L42.00533,722.23696
				L42.00533,721.51689L39.365,721.51689L39.365,720.55678L38.6449,720.55678L38.6449,719.83671L37.68478,719.83671L37.68478,718.8766
				L36.96469,718.8766L36.96469,717.19643L36.00457,717.19643L36.00457,716.47635L35.28448,716.47635L35.28448,715.51625L34.32436,715.51625
				L34.32436,714.79617L33.60426,714.79617L33.60426,713.11599L32.64414,713.11599L32.64414,712.15589L31.92405,712.15589L31.92405,711.43581
				L30.96393,711.43581L30.96393,709.75563L30.24384,709.75563L30.24384,708.79553L29.28372,708.79553L29.28372,708.07545L28.56363,708.07545
				L28.56363,706.39527L27.6035,706.39527L27.6035,705.43517L26.88341,705.43517L26.88341,704.7151L25.92329,704.7151L25.92329,703.75499
				L25.2032,703.75499L25.2032,702.07481L24.24308,702.07481L24.24308,701.35474L23.52299,701.35474L23.52299,700.39464L22.56286,700.39464
				L22.56286,698.71446L21.84277,698.71446L21.84277,697.99438L20.88265,697.99438L20.88265,697.03428L19.92253,697.03428L19.92253,696.3142
				L19.20244,696.3142L19.20244,695.3541L17.52222,695.3541L17.52222,694.63402L16.5621,694.63402L16.5621,693.67392L14.88189,693.67392
				L14.88189,692.95384L14.1618,692.95384L14.1618,691.99374L13.20168,691.99374L13.20168,691.03364L6.48082,691.03364L6.48082,690.31356
				L-6.24079,690.31356M-6.24079,481.97136L-4.32055,481.97136L-4.32055,481.25128L-0.24003,481.25128L-0.24003,480.29118L4.08052,480.29118
				L4.08052,479.5711L8.16104,479.5711L8.16104,478.611L12.48158,478.611L12.48158,477.89092L16.5621,477.89092L16.5621,476.93082
				L20.88265,476.93082L20.88265,476.21075L24.24308,476.21075L24.24308,475.25064L28.56363,475.25064L28.56363,474.53057L32.64414,474.53057
				L32.64414,473.57046L36.96469,473.57046L36.96469,472.85039L41.04521,472.85039L41.04521,471.89029L45.36576,471.89029L45.36576,470.93018
				L48.72618,470.93018L48.72618,470.21011L53.04673,470.21011L53.04673,469.25L75.6096,469.25L75.6096,465.88965L76.56972,465.88965
				L76.56972,464.20947L87.61112,464.20947L87.61112,463.48939L92.65176,463.48939L92.65176,462.52929L98.41249,462.52929L98.41249,461.80921
				L103.45313,461.80921L103.45313,460.84911L105.13334,460.84911L105.13334,461.80921L106.09346,461.80921L106.09346,462.52929
				L106.81356,462.52929L106.81356,463.48939L107.77368,463.48939L107.77368,464.20947L108.49377,464.20947L108.49377,465.16957
				L109.45389,465.16957L109.45389,465.88965L110.17398,465.88965L110.17398,466.84975L111.1341,466.84975L111.1341,467.56983L111.8542,467.56983
				L111.8542,468.52993L112.81432,468.52993L112.81432,469.25L113.53441,469.25L113.53441,470.21011L114.49453,470.21011L114.49453,470.93018
				L115.45465,470.93018L115.45465,472.85039L116.17474,472.85039L116.17474,473.57046L117.13487,473.57046L117.13487,474.53057
				L117.85496,474.53057L117.85496,475.25064L118.81508,475.25064L118.81508,476.21075L119.53517,476.21075L119.53517,476.93082
				L120.49529,476.93082L120.49529,477.89092L121.21538,477.89092L121.21538,478.611L122.1755,478.611L122.1755,479.5711L122.8956,479.5711
				L122.8956,480.29118L123.85572,480.29118L123.85572,481.25128L124.57581,481.25128L124.57581,481.97136L125.53593,481.97136L
				125.53593,482.93146L126.25602,482.93146L126.25602,483.65154L127.21614,483.65154L127.21614,484.61164L127.93624,484.61164L
				127.93624,485.33172L128.89636,485.33172L128.89636,486.29182L129.61645,486.29182L129.61645,487.0119L130.57657,487.0119L130.57657,487.972
				L131.29666,487.972L131.29666,488.69208L132.25678,488.69208L132.25678,489.65218L132.97688,489.65218L132.97688,491.33236L133.937,491.33236
				L133.937,492.05243L134.65709,492.05243L134.65709,493.01254L135.61721,493.01254L135.61721,494.69272L136.3373,494.69272L136.3373,495.41279
				L137.29742,495.41279L137.29742,496.37289L138.01752,496.37289L138.01752,498.05307L138.97764,498.05307L138.97764,498.77315
				L139.69773,498.77315L139.69773,499.73325L140.65785,499.73325L140.65785,500.45333L141.37794,500.45333L141.37794,502.13351
				L142.33806,502.13351L142.33806,503.09361L143.05815,503.09361L143.05815,504.05371L144.01828,504.05371L144.01828,505.73389
				L144.73837,505.73389L144.73837,506.45397L145.69849,506.45397L145.69849,507.41407L146.65861,507.41407L146.65861,509.09425
				L147.3787,509.09425L147.3787,509.81433L148.33883,509.81433L148.33883,510.77443L149.05892,510.77443L149.05892,511.49451L150.01904,511.49451
				L150.01904,513.17468L150.73913,513.17468L150.73913,514.13479L151.69925,514.13479L151.69925,514.85486L152.41934,514.85486
				L152.41934,516.53504L153.37946,516.53504L153.37946,517.49515L154.09956,517.49515L154.09956,518.21522L155.05968,518.21522
				L155.05968,519.8954L155.77977,519.8954L155.77977,520.8555L156.73989,520.8555L156.73989,522.53568L157.45998,522.53568L157.45998,524.21586
				L158.4201,524.21586L158.4201,525.89604L159.1402,525.89604L159.1402,527.57622L160.10032,527.57622L160.10032,529.2564L160.82041,529.2564
				L160.82041,530.93658L161.78053,530.93658L161.78053,532.61676L162.50062,532.61676L162.50062,534.29694L163.46074,534.29694
				L163.46074,535.97711L164.18084,535.97711L164.18084,537.65729L165.14096,537.65729L165.14096,538.6174L165.86105,538.6174L165.86105,539.33747
				L166.82117,539.33747L166.82117,541.01765L167.54126,541.01765L167.54126,541.97775L168.50138,541.97775L168.50138,542.69783
				L169.22148,542.69783L169.22148,544.37801L170.1816,544.37801L170.1816,545.33811L170.90169,545.33811L170.90169,546.05819L171.86181,546.05819
				L171.86181,547.73837L172.5819,547.73837L172.5819,548.69847L173.54202,548.69847L173.54202,549.41855L174.26211,549.41855L174.26211,551.09873
				L175.22224,551.09873L175.22224,552.05883L175.94233,552.05883L175.94233,552.77891L176.90245,552.77891L176.90245,554.45908
				L177.86257,554.45908L177.86257,555.41919L178.58266,555.41919L178.58266,556.13926L179.54278,556.13926L179.54278,557.81944
				L180.26288,557.81944L180.26288,558.77954L181.223,558.77954L181.223,560.45972L181.94309,560.45972L181.94309,561.1798L182.90321,561.1798
				L182.90321,562.1399L183.6233,562.1399L183.6233,561.1798L184.58342,561.1798L184.58342,560.45972L186.26364,560.45972L186.26364,559.49962
				L187.94385,559.49962L187.94385,558.77954L188.66394,558.77954L188.66394,557.81944L190.34416,557.81944L190.34416,557.09937
				L191.30428,557.09937L191.30428,559.49962L192.02437,559.49962L192.02437,562.1399L192.98449,562.1399L192.98449,563.82008L193.70458,563.82008
				L193.70458,565.50026L194.6647,565.50026L194.6647,567.18044L195.3848,567.18044L195.3848,568.14054L196.34492,568.14054L196.34492,569.82072
				L197.06501,569.82072L197.06501,571.5009L198.02513,571.5009L198.02513,573.18108L198.74522,573.18108L198.74522,574.86126L199.70534,574.86126
				L199.70534,576.54144L200.42544,576.54144L200.42544,577.26151L201.38556,577.26151L201.38556,578.94169L202.10565,578.94169
				L202.10565,580.62187L203.06577,580.62187L203.06577,582.30205L203.78586,582.30205L203.78586,583.98223L204.74598,583.98223
				L204.74598,584.94233L205.46607,584.94233L205.46607,586.62251L206.4262,586.62251L206.4262,588.30269L214.82726,588.30269L214.82726,587.34259
				L224.18845,587.34259L224.18845,586.62251L229.22909,586.62251L229.22909,587.34259L228.26897,587.34259L228.26897,588.30269
				L227.54888,588.30269L227.54888,589.98287L226.58876,589.98287L226.58876,591.66305L225.86866,591.66305L225.86866,592.38313
				L224.90854,592.38313L224.90854,594.0633L224.18845,594.0633L224.18845,596.70359L223.22833,596.70359L223.22833,598.38376L222.50824,598.38376
				L222.50824,601.02405L221.54812,601.02405L221.54812,603.4243L220.82802,603.4243L220.82802,605.10448L219.8679,605.10448L219.8679,607.74476
				L219.14781,607.74476L219.14781,609.42494L218.18769,609.42494L218.18769,611.8252L217.4676,611.8252L217.4676,613.50538L214.82726,613.50538
				L214.82726,612.7853L212.42696,612.7853L212.42696,611.8252L209.78662,611.8252L209.78662,611.10512L207.14629,611.10512L207.14629,610.14502
				L204.74598,610.14502L204.74598,609.42494L202.10565,609.42494L202.10565,610.14502L201.38556,610.14502L201.38556,612.7853L
				200.42544,612.7853L200.42544,614.46548L199.70534,614.46548L199.70534,616.86573L198.74522,616.86573L198.74522,619.50602L198.02513,619.50602
				L198.02513,621.90627L197.06501,621.90627L197.06501,623.58645L196.34492,623.58645L196.34492,626.22673L195.3848,626.22673L
				195.3848,628.62699L194.6647,628.62699L194.6647,631.26727L193.70458,631.26727L193.70458,633.90755L192.98449,633.90755L192.98449,635.58773
				L192.02437,635.58773L192.02437,637.98799L191.30428,637.98799L191.30428,639.66816L190.34416,639.66816L190.34416,641.34834
				L189.62406,641.34834L189.62406,643.98862L188.66394,643.98862L188.66394,645.6688L187.94385,645.6688L187.94385,647.34898L186.98373,647.34898
				L186.98373,649.74924L186.26364,649.74924L186.26364,651.42942L185.30352,651.42942L185.30352,653.1096L184.58342,653.1096L184.58342,655.74988
				L183.6233,655.74988L183.6233,657.43006L182.90321,657.43006L182.90321,659.83031L181.94309,659.83031L181.94309,661.75052L181.223,661.75052
				L181.223,663.4307L180.26288,663.4307L180.26288,665.83095L179.54278,665.83095L179.54278,667.51113L178.58266,667.51113L178.58266,669.19131
				L177.86257,669.19131L177.86257,671.83159L176.90245,671.83159L176.90245,673.51177L175.94233,673.51177L175.94233,675.19195
				L175.22224,675.19195L175.22224,677.59221L174.26211,677.59221L174.26211,679.27238L173.54202,679.27238L173.54202,680.95256
				L172.5819,680.95256L172.5819,683.59284L171.86181,683.59284L171.86181,685.27302L170.90169,685.27302L170.90169,685.9931L170.1816,685.9931
				L170.1816,686.9532L169.22148,686.9532L169.22148,688.63338L168.50138,688.63338L168.50138,689.35346L167.54126,689.35346L167.54126,691.03364
				L166.82117,691.03364L166.82117,691.99374L165.86105,691.99374L165.86105,693.67392L165.14096,693.67392L165.14096,694.63402
				L164.18084,694.63402L164.18084,695.3541L163.46074,695.3541L163.46074,697.03428L162.50062,697.03428L162.50062,697.99438L161.78053,697.99438
				L161.78053,699.67456L160.82041,699.67456L160.82041,700.39464L160.10032,700.39464L160.10032,701.35474L159.1402,701.35474L
				159.1402,703.03492L151.69925,703.03492L151.69925,703.75499L142.33806,703.75499L142.33806,704.7151L133.937,704.7151L133.937,705.43517
				L125.53593,705.43517L125.53593,706.39527L116.17474,706.39527L116.17474,707.11535L107.77368,707.11535L107.77368,708.07545
				L98.41249,708.07545L98.41249,708.79553L90.01142,708.79553L90.01142,709.75563L81.61036,709.75563L81.61036,710.47571L72.24917,710.47571
				L72.24917,711.43581L65.52832,711.43581L65.52832,712.15589L64.80822,712.15589L64.80822,713.11599L63.8481,713.11599L63.8481,713.83607
				L63.12801,713.83607L63.12801,714.79617L62.16789,714.79617L62.16789,715.51625L61.4478,715.51625L61.4478,717.19643L60.48768,717.19643
				L60.48768,718.15653L59.76759,718.15653L59.76759,718.8766L58.80746,718.8766L58.80746,719.83671L58.08737,719.83671L58.08737,721.51689
				L57.12725,721.51689L57.12725,722.23696L56.40716,722.23696L56.40716,724.15717L55.44704,724.15717L55.44704,725.83735L54.72695,725.83735
				L54.72695,726.55742L53.76682,726.55742L53.76682,727.51753"/>
			<path clip-path="url(#SVG_CP_2)" fill="none" stroke="#999999" stroke-width="0.96012" stroke-miterlimit="10" stroke-linecap="round" stroke-linejoin="round" d="
				M222.50824,472.85039L224.18845,472.85039L224.18845,471.89029L224.90854,471.89029L224.90854,470.93018L225.86866,470.93018
				L225.86866,470.21011L226.58876,470.21011L226.58876,469.25L227.54888,469.25L227.54888,468.52993L228.26897,468.52993L228.26897,467.56983
				L229.22909,467.56983L229.22909,466.84975L229.94918,466.84975L229.94918,465.88965L230.9093,465.88965L230.9093,465.16957L231.62939,465.16957
				L231.62939,464.20947L232.58952,464.20947L232.58952,463.48939L233.30961,463.48939L233.30961,462.52929L234.26973,462.52929
				L234.26973,461.80921L234.98982,461.80921L234.98982,460.84911L235.94994,460.84911L235.94994,460.12903L236.67003,460.12903
				L236.67003,459.16893L237.63016,459.16893L237.63016,458.44885L238.35025,458.44885L238.35025,457.48875L239.31037,457.48875
				L239.31037,456.76867L240.03046,456.76867L240.03046,455.80857L240.99058,455.80857L240.99058,455.0885L241.9507,455.0885L241.9507,454.12839
				L242.6708,454.12839L242.6708,453.40832L243.63092,453.40832L243.63092,452.44821L244.35101,452.44821L244.35101,451.72814L245.31113,451.72814
				L245.31113,450.76803L246.03122,450.76803L246.03122,450.04796L246.99134,450.04796L246.99134,449.08786L247.71144,449.08786
				L247.71144,448.36778L248.67156,448.36778L248.67156,447.40768L249.39165,447.40768L249.39165,446.6876L250.35177,446.6876L250.35177,445.7275
				L251.07186,445.7275L251.07186,445.00742L252.03198,445.00742L252.03198,444.04732L252.75208,444.04732L252.75208,443.32724L
				253.7122,443.32724L253.7122,442.36714L254.43229,442.36714L254.43229,441.64706L255.39241,441.64706L255.39241,440.68696L256.1125,440.68696
				L256.1125,439.72686L257.07262,439.72686L257.07262,439.00678L257.79272,439.00678L257.79272,438.04668L258.75284,438.04668L
				258.75284,437.3266L259.47293,437.3266L259.47293,436.3665L268.83412,436.3665L268.83412,435.64642L269.55421,435.64642L269.55421,434.68632
				L270.51433,434.68632L270.51433,433.96624L271.23442,433.96624L271.23442,433.00614L272.19454,433.00614L272.19454,432.28607
				L273.15466,432.28607L273.15466,431.32596L273.87476,431.32596L273.87476,430.60589L274.83488,430.60589L274.83488,429.64578
				L275.55497,429.64578L275.55497,428.92571L276.51509,428.92571L276.51509,427.9656L294.99744,427.9656L294.99744,427.24553L295.71753,427.24553
				L295.71753,426.28543L296.67765,426.28543L296.67765,425.56535L297.39774,425.56535L297.39774,424.60525L298.35786,424.60525
				L298.35786,423.88517L299.07795,423.88517L299.07795,422.92507L300.03808,422.92507L300.03808,422.20499L300.75817,422.20499
				L300.75817,421.24489L301.71829,421.24489L301.71829,420.52481L302.43838,420.52481L302.43838,419.56471L303.3985,419.56471L
				303.3985,418.84463L304.35862,418.84463L304.35862,417.88453L305.07872,417.88453L305.07872,417.16445L306.03884,417.16445L306.03884,416.20435
				L306.75893,416.20435L306.75893,415.48427L307.71905,415.48427L307.71905,414.52417L308.43914,414.52417L308.43914,413.8041L
				309.39926,413.8041L309.39926,412.84399L310.11936,412.84399L310.11936,412.12392L311.07948,412.12392L311.07948,411.16381L311.79957,411.16381
				L311.79957,410.44374L312.75969,410.44374L312.75969,409.48364L313.47978,409.48364L313.47978,408.52353L314.4399,408.52353L
				314.4399,407.80346L315.16,407.80346L315.16,406.84335L316.12012,406.84335L316.12012,406.12328L316.84021,406.12328L316.84021,405.16318
				L317.80033,405.16318L317.80033,404.4431L318.52042,404.4431L318.52042,403.483L319.48054,403.483L319.48054,402.76292L320.20063,402.76292
				L320.20063,401.80282L321.16076,401.80282L321.16076,401.08274L321.88085,401.08274L321.88085,400.12264L322.84097,400.12264
				L322.84097,399.40256L325.24127,399.40256L325.24127,398.44246L326.2014,398.44246L326.2014,397.72238L326.92149,397.72238L326.92149,396.76228
				L327.88161,396.76228L327.88161,396.0422L328.6017,396.0422L328.6017,395.0821L329.56182,395.0821L329.56182,394.36202L330.28191,394.36202
				L330.28191,393.40192L331.24204,393.40192L331.24204,392.68185L336.28268,392.68185L336.28268,391.72174L337.2428,391.72174L
				337.2428,391.00167L337.96289,391.00167L337.96289,390.04156L338.92301,390.04156L338.92301,389.32149L339.6431,389.32149L339.6431,388.36138
				L340.60322,388.36138L340.60322,387.64131L344.68374,387.64131L344.68374,386.68121L345.64386,386.68121L345.64386,385.96113
				L346.36396,385.96113L346.36396,385.00103L347.32408,385.00103L347.32408,384.28095L348.04417,384.28095L348.04417,383.32085
				L349.00429,383.32085L349.00429,382.60077L349.72438,382.60077L349.72438,381.64067L350.6845,381.64067L350.6845,380.92059L351.40459,380.92059
				L351.40459,379.96049L352.36472,379.96049L352.36472,379.24041L353.08481,379.24041L353.08481,378.28031L354.04493,378.28031
				L354.04493,377.32021L354.76502,377.32021L354.76502,376.60013L355.72514,376.60013L355.72514,375.64003L356.44523,375.64003
				L356.44523,374.91995L357.40536,374.91995L357.40536,373.95985L358.12545,373.95985L358.12545,373.23977L359.08557,373.23977
				L359.08557,372.27967L359.80566,372.27967L359.80566,371.55959L360.76578,371.55959L360.76578,370.59949L361.48587,370.59949
				L361.48587,369.87942L362.446,369.87942L362.446,368.91931L363.16609,368.91931L363.16609,368.19924L364.12621,368.19924L364.12621,367.23913
				L364.8463,367.23913L364.8463,366.51906L365.80642,366.51906L365.80642,365.55895L366.76654,365.55895L366.76654,364.83888L367.48664,364.83888
				L367.48664,363.87878L368.44676,363.87878L368.44676,363.1587L369.16685,363.1587L369.16685,362.1986L370.12697,362.1986L370.12697,361.47852
				L370.84706,361.47852L370.84706,360.51842L371.80718,360.51842L371.80718,359.79834L372.52728,359.79834L372.52728,358.83824
				L373.4874,358.83824L373.4874,358.11816L374.20749,358.11816L374.20749,357.15806L375.16761,357.15806L375.16761,356.43798L375.8877,356.43798
				L375.8877,355.47788L376.84782,355.47788L376.84782,354.7578L377.56791,354.7578L377.56791,353.7977L378.52804,353.7977L378.52804,353.07762
				L379.24813,353.07762L379.24813,352.11752L380.20825,352.11752L380.20825,351.39745L380.92834,351.39745L380.92834,350.43734
				L381.88846,350.43734L381.88846,349.71727L387.64919,349.71727L387.64919,350.43734L405.41145,350.43734L405.41145,349.71727
				L418.13306,349.71727L418.13306,348.75716L429.89456,348.75716L429.89456,348.03709L439.25574,348.03709L439.25574,347.07699
				L447.65681,347.07699L447.65681,346.11688L456.05788,346.11688L456.05788,345.39681L464.45894,345.39681L464.45894,344.4367L
				473.82013,344.4367L473.82013,343.71663L482.2212,343.71663L482.2212,342.75652L491.58238,342.75652L491.58238,342.03645L501.66366,342.03645
				L501.66366,341.07635L512.46503,341.07635L512.46503,340.35627L515.82546,340.35627L515.82546,339.39617L519.18589,339.39617
				L519.18589,338.67609L522.54631,338.67609L522.54631,337.71599L525.18665,337.71599L525.18665,336.99591L528.54707,336.99591
				L528.54707,336.03581L531.18741,336.03581L531.18741,335.31573L534.54784,335.31573L534.54784,334.35563L536.94814,334.35563
				L536.94814,333.63555L539.58848,333.63555L539.58848,332.67545L541.98878,332.67545L541.98878,331.95537L544.62912,331.95537
				L544.62912,330.99527L547.98954,330.99527L547.98954,330.27519L550.38985,330.27519L550.38985,329.31509L553.03018,329.31509
				L553.03018,328.59502L556.39061,328.59502L556.39061,327.63491L559.03094,327.63491L559.03094,326.91484L561.43125,326.91484
				L561.43125,325.95473L564.79167,325.95473L564.79167,325.23466L568.1521,325.23466L568.1521,324.27456L571.51253,324.27456L571.51253,323.55448
				L574.15286,323.55448L574.15286,322.59438L577.51329,322.59438L577.51329,321.8743L578.23338,321.8743L578.23338,319.23402L577.51329,319.23402
				L577.51329,317.55384L576.55317,317.55384L576.55317,314.91356L575.83308,314.91356L575.83308,314.19348L576.55317,314.19348
				L576.55317,313.23338L577.51329,313.23338L577.51329,312.5133L578.23338,312.5133L578.23338,311.5532L579.91359,311.5532L579.91359,310.83312
				L580.87372,310.83312L580.87372,309.87302L581.59381,309.87302L581.59381,310.83312L582.55393,310.83312L582.55393,311.5532L
				583.27402,311.5532L583.27402,312.5133L584.23414,312.5133L584.23414,313.23338L584.95423,313.23338L584.95423,314.19348L585.91435,314.19348
				L585.91435,314.91356L586.87448,314.91356L586.87448,315.87366L587.59457,315.87366L587.59457,321.8743L588.55469,321.8743L588.55469,320.9142
				L596.95576,320.9142L596.95576,320.19412L601.9964,320.19412"/>
			<path clip-path="url(#SVG_CP_2)" fill="none" stroke="#999999" stroke-width="0.96012" stroke-miterlimit="10" stroke-linecap="round" stroke-linejoin="round" d="
				M81.61036,861.21177L81.61036,859.77162L82.33045,859.77162L82.33045,858.09144L83.29057,858.09144L83.29057,856.41126L84.25069,856.41126
				L84.25069,854.73108L84.97078,854.73108L84.97078,853.0509L85.93091,853.0509L85.93091,851.37072L86.651,851.37072L86.651,849.69054
				L87.61112,849.69054L87.61112,848.01037L88.33121,848.01037L88.33121,846.33019L89.29133,846.33019L89.29133,844.65001L90.01142,844.65001
				L90.01142,842.00973L90.97155,842.00973L90.97155,840.32955L91.69164,840.32955L91.69164,838.64937L92.65176,838.64937L92.65176,831.92865
				L91.69164,831.92865L91.69164,821.84758L90.97155,821.84758L90.97155,810.8064L90.01142,810.8064L90.01142,804.08568L94.33197,804.08568
				L94.33197,803.36561L98.41249,803.36561L98.41249,802.40551L102.73304,802.40551L102.73304,801.68543L105.13334,801.68543L105.13334,798.32507
				L104.41325,798.32507L104.41325,794.96471L106.81356,794.96471L106.81356,795.68479L112.81432,795.68479L112.81432,796.64489
				L116.17474,796.64489L116.17474,797.36497L117.13487,797.36497L117.13487,799.04515L117.85496,799.04515L117.85496,800.00525
				L118.81508,800.00525L118.81508,801.68543L119.53517,801.68543L119.53517,802.40551L120.49529,802.40551L120.49529,803.36561
				L121.21538,803.36561L121.21538,805.04579L122.1755,805.04579L122.1755,805.76586L122.8956,805.76586L122.8956,806.72597L123.85572,806.72597
				L123.85572,808.40614L124.57581,808.40614L124.57581,809.12622L125.53593,809.12622L125.53593,810.08632L126.25602,810.08632
				L126.25602,810.8064L127.21614,810.8064L127.21614,811.7665L127.93624,811.7665L127.93624,812.48658L129.61645,812.48658L129.61645,813.44668
				L130.57657,813.44668L130.57657,814.16676L131.29666,814.16676L131.29666,815.12686L132.97688,815.12686L132.97688,816.80704
				L132.25678,816.80704L132.25678,818.48722L131.29666,818.48722L131.29666,820.1674L132.97688,820.1674L132.97688,821.1275L133.937,821.1275
				L133.937,821.84758L134.65709,821.84758L134.65709,822.80768L135.61721,822.80768L135.61721,823.52776L136.3373,823.52776L136.3373,824.48786
				L137.29742,824.48786L137.29742,825.20794L138.01752,825.20794L138.01752,826.16804L138.97764,826.16804L138.97764,826.88811
				L139.69773,826.88811L139.69773,827.84822L141.37794,827.84822L141.37794,828.56829L142.33806,828.56829L142.33806,829.5284L
				143.05815,829.5284L143.05815,830.24847L144.01828,830.24847L144.01828,831.20857L144.73837,831.20857L144.73837,831.92865L145.69849,831.92865
				L145.69849,832.88875L146.65861,832.88875L146.65861,833.60883L147.3787,833.60883L147.3787,836.24911L146.65861,836.24911L146.65861,836.96919
				L145.69849,836.96919L145.69849,837.92929L144.73837,837.92929L144.73837,838.64937L144.01828,838.64937L144.01828,839.60947
				L143.05815,839.60947L143.05815,840.32955L142.33806,840.32955L142.33806,841.28965L141.37794,841.28965L141.37794,842.00973
				L140.65785,842.00973L140.65785,842.96983L138.97764,842.96983L138.97764,843.6899L138.01752,843.6899L138.01752,844.65001L136.3373,844.65001
				L136.3373,845.37008L135.61721,845.37008L135.61721,846.33019L134.65709,846.33019L134.65709,847.05026L132.97688,847.05026L
				132.97688,848.01037L132.25678,848.01037L132.25678,848.73044L130.57657,848.73044L130.57657,849.69054L129.61645,849.69054L
				129.61645,850.65065L128.89636,850.65065L128.89636,851.37072L127.21614,851.37072L127.21614,852.33083L127.93624,852.33083L
				127.93624,853.0509L128.89636,853.0509L128.89636,854.73108L129.61645,854.73108L129.61645,855.69118L130.57657,855.69118L130.57657,856.41126
				L131.29666,856.41126L131.29666,857.37136L132.25678,857.37136L132.25678,858.09144L132.97688,858.09144L132.97688,859.05154
				L133.937,859.05154L133.937,860.73172L134.65709,860.73172L134.65709,861.21177"/>
			<path clip-path="url(#SVG_CP_2)" fill="none" stroke="#999999" stroke-width="0.96012" stroke-miterlimit="10" stroke-linecap="round" stroke-linejoin="round" d="
				M356.44523,861.21177L356.44523,860.73172L355.72514,860.73172L355.72514,859.77162L354.76502,859.77162L354.76502,859.05154
				L354.04493,859.05154L354.04493,858.09144L353.08481,858.09144L353.08481,857.37136L352.36472,857.37136L352.36472,856.41126
				L351.40459,856.41126L351.40459,855.69118L350.6845,855.69118L350.6845,854.73108L349.72438,854.73108L349.72438,854.011L349.00429,854.011
				L349.00429,853.0509L348.04417,853.0509L348.04417,852.33083L347.32408,852.33083L347.32408,851.37072L346.36396,851.37072L346.36396,850.65065
				L344.68374,850.65065L344.68374,849.69054L343.96365,849.69054L343.96365,848.73044L343.00353,848.73044L343.00353,848.01037
				L342.28344,848.01037L342.28344,847.05026L341.32332,847.05026L341.32332,846.33019L340.60322,846.33019L340.60322,845.37008
				L339.6431,845.37008L339.6431,844.65001L338.92301,844.65001L338.92301,843.6899L337.96289,843.6899L337.96289,842.96983L337.2428,842.96983
				L337.2428,842.00973L336.28268,842.00973L336.28268,841.28965L335.56258,841.28965L335.56258,840.32955L334.60246,840.32955L
				334.60246,839.60947L333.64234,839.60947L333.64234,838.64937L332.92225,838.64937L332.92225,837.92929L331.96213,837.92929L
				331.96213,836.96919L331.24204,836.96919L331.24204,836.24911L330.28191,836.24911L330.28191,835.28901L329.56182,835.28901L
				329.56182,834.56893L328.6017,834.56893L328.6017,833.60883L327.88161,833.60883L327.88161,832.88875L326.92149,832.88875L326.92149,831.92865
				L326.2014,831.92865L326.2014,831.20857L325.24127,831.20857L325.24127,830.24847L324.52118,830.24847L324.52118,829.5284L323.56106,829.5284
				L323.56106,828.56829L321.88085,828.56829L321.88085,827.84822L321.16076,827.84822L321.16076,826.88811L320.20063,826.88811
				L320.20063,826.16804L319.48054,826.16804L319.48054,825.20794L318.52042,825.20794L318.52042,824.48786L317.80033,824.48786
				L317.80033,823.52776L316.84021,823.52776L316.84021,824.48786L316.12012,824.48786L316.12012,825.20794L315.16,825.20794L315.16,826.16804
				L313.47978,826.16804L313.47978,826.88811L312.75969,826.88811L312.75969,827.84822L311.79957,827.84822L311.79957,828.56829
				L311.07948,828.56829L311.07948,829.5284L309.39926,829.5284L309.39926,830.24847L308.43914,830.24847L308.43914,831.20857L307.71905,831.20857
				L307.71905,831.92865L306.75893,831.92865L306.75893,832.88875L305.07872,832.88875L305.07872,833.60883L303.3985,833.60883L
				303.3985,831.92865L302.43838,831.92865L302.43838,831.20857L301.71829,831.20857L301.71829,829.5284L300.75817,829.5284L300.75817,828.56829
				L300.03808,828.56829L300.03808,826.88811L299.07795,826.88811L299.07795,826.16804L298.35786,826.16804L298.35786,825.20794
				L297.39774,825.20794L297.39774,823.52776L296.67765,823.52776L296.67765,822.80768L295.71753,822.80768L295.71753,821.1275L
				294.99744,821.1275L294.99744,820.1674L294.03731,820.1674L294.03731,818.48722L293.31722,818.48722L293.31722,817.52712L292.3571,817.52712
				L292.3571,815.84694L291.63701,815.84694L291.63701,815.12686L290.67689,815.12686L290.67689,814.16676L289.9568,814.16676L289.9568,812.48658
				L288.99668,812.48658L288.99668,811.7665L288.27658,811.7665L288.27658,810.08632L287.31646,810.08632L287.31646,809.12622L286.59637,809.12622
				L286.59637,807.44604L285.63625,807.44604L285.63625,806.72597L284.91616,806.72597L284.91616,805.04579L283.95604,805.04579
				L283.95604,804.08568L283.23594,804.08568L283.23594,803.36561L282.27582,803.36561L282.27582,801.68543L281.55573,801.68543
				L281.55573,800.72533L280.59561,800.72533L280.59561,799.04515L279.87552,799.04515L279.87552,798.32507L278.9154,798.32507L
				278.9154,796.64489L278.1953,796.64489L278.1953,795.68479L277.23518,795.68479L277.23518,794.00461L276.51509,794.00461L276.51509,793.28453
				L275.55497,793.28453L275.55497,791.60435L274.83488,791.60435L274.83488,790.64425L273.87476,790.64425L273.87476,789.92418
				L273.15466,789.92418L273.15466,788.244L272.19454,788.244L272.19454,787.28389L271.23442,787.28389L271.23442,785.60372L270.51433,785.60372
				L270.51433,784.64361L269.55421,784.64361L269.55421,782.96343L268.83412,782.96343L268.83412,782.24336L267.87399,782.24336
				L267.87399,780.56318L267.1539,780.56318L267.1539,779.60308L266.19378,779.60308L266.19378,777.9229L265.47369,777.9229L265.47369,777.20282
				L264.51357,777.20282L264.51357,776.24272L263.79348,776.24272L263.79348,774.56254L262.83335,774.56254L262.83335,773.84246
				L262.11326,773.84246L262.11326,772.16228L261.15314,772.16228L261.15314,771.20218L260.43305,771.20218L260.43305,769.522L259.47293,769.522
				L259.47293,768.80192L258.75284,768.80192L258.75284,767.12175L257.79272,767.12175L257.79272,766.16164L257.07262,766.16164
				L257.07262,764.48146L256.1125,764.48146L256.1125,763.76139L255.39241,763.76139L255.39241,762.08121L256.1125,762.08121L256.1125,761.12111
				L257.07262,761.12111L257.07262,760.40103L257.79272,760.40103L257.79272,759.44093L258.75284,759.44093L258.75284,758.72085
				L259.47293,758.72085L259.47293,757.04067L260.43305,757.04067L260.43305,756.08057L261.15314,756.08057L261.15314,755.36049
				L262.11326,755.36049L262.11326,753.44029L262.83335,753.44029L262.83335,751.76011L263.79348,751.76011L263.79348,751.04003
				L262.83335,751.04003L262.83335,750.07993L262.11326,750.07993L262.11326,749.35985L260.43305,749.35985L260.43305,748.39975
				L259.47293,748.39975L259.47293,747.67967L257.79272,747.67967L257.79272,746.71957L257.07262,746.71957L257.07262,745.99949
				L256.1125,745.99949L256.1125,745.03939L254.43229,745.03939L254.43229,744.31932L253.7122,744.31932L253.7122,743.35921L252.75208,743.35921
				L252.75208,742.63914L251.07186,742.63914L251.07186,741.67903L250.35177,741.67903L250.35177,740.95896L248.67156,740.95896
				L248.67156,739.99886L247.71144,739.99886L247.71144,739.27878L246.99134,739.27878L246.99134,738.31868L247.71144,738.31868
				L247.71144,736.6385L248.67156,736.6385L248.67156,735.91842L249.39165,735.91842L249.39165,734.95832L250.35177,734.95832L250.35177,733.27814
				L251.07186,733.27814L251.07186,732.55806L252.03198,732.55806L252.03198,731.59796L252.75208,731.59796L252.75208,729.91778
				L252.03198,729.91778L252.03198,729.1977L251.07186,729.1977L251.07186,728.2376L250.35177,728.2376L250.35177,727.51753L249.39165,727.51753
				L249.39165,726.55742L248.67156,726.55742L248.67156,724.87724L247.71144,724.87724L247.71144,724.15717L246.99134,724.15717
				L246.99134,723.19706L246.03122,723.19706L246.03122,722.23696L245.31113,722.23696L245.31113,721.51689L246.03122,721.51689
				L246.03122,719.83671L246.99134,719.83671L246.99134,718.8766L247.71144,718.8766L247.71144,718.15653L248.67156,718.15653L248.67156,716.47635
				L249.39165,716.47635L249.39165,715.51625L250.35177,715.51625L250.35177,714.79617L248.67156,714.79617L248.67156,713.83607
				L247.71144,713.83607L247.71144,713.11599L246.99134,713.11599L246.99134,712.15589L245.31113,712.15589L245.31113,711.43581
				L244.35101,711.43581L244.35101,710.47571L242.6708,710.47571L242.6708,709.75563L241.9507,709.75563L241.9507,708.79553L240.03046,708.79553
				L240.03046,708.07545L239.31037,708.07545L239.31037,707.11535L235.94994,707.11535L235.94994,708.07545L234.26973,708.07545
				L234.26973,708.79553L232.58952,708.79553L232.58952,709.75563L230.9093,709.75563L230.9093,710.47571L229.22909,710.47571L229.22909,711.43581
				L227.54888,711.43581L227.54888,712.15589L226.58876,712.15589L226.58876,713.11599L224.90854,713.11599L224.90854,713.83607
				L223.22833,713.83607L223.22833,714.79617L221.54812,714.79617L221.54812,715.51625L219.8679,715.51625L219.8679,716.47635L218.18769,716.47635
				L218.18769,717.19643L216.50748,717.19643L216.50748,718.15653L214.82726,718.15653L214.82726,718.8766L213.14705,718.8766L213.14705,719.83671
				L211.46684,719.83671L211.46684,720.55678L210.74674,720.55678L210.74674,721.51689L209.78662,721.51689L209.78662,722.23696
				L209.06653,722.23696L209.06653,723.19706L208.10641,723.19706L208.10641,724.15717L207.14629,724.15717L207.14629,724.87724
				L206.4262,724.87724L206.4262,726.55742L205.46607,726.55742L205.46607,727.51753L204.74598,727.51753L204.74598,729.1977L203.78586,729.1977
				L203.78586,730.87788L203.06577,730.87788L203.06577,732.55806L202.10565,732.55806L202.10565,734.23824L198.02513,734.23824
				L198.02513,733.27814L194.6647,733.27814L194.6647,730.87788L195.3848,730.87788L195.3848,725.83735L196.34492,725.83735L196.34492,720.55678
				L197.06501,720.55678L197.06501,718.8766L196.34492,718.8766L196.34492,717.19643L195.3848,717.19643L195.3848,714.79617L194.6647,714.79617
				L194.6647,713.11599L193.70458,713.11599L193.70458,710.47571L192.98449,710.47571L192.98449,708.79553L192.02437,708.79553L
				192.02437,708.07545L192.98449,708.07545L192.98449,706.39527L193.70458,706.39527L193.70458,704.7151L194.6647,704.7151L194.6647,703.03492
				L195.3848,703.03492L195.3848,701.35474L196.34492,701.35474L196.34492,699.67456L197.06501,699.67456L197.06501,697.99438L198.02513,697.99438
				L198.02513,696.3142L198.74522,696.3142L198.74522,694.63402L199.70534,694.63402L199.70534,693.67392L200.42544,693.67392L200.42544,691.99374
				L201.38556,691.99374L201.38556,690.31356L202.10565,690.31356L202.10565,684.31292L203.06577,684.31292L203.06577,676.87213
				L203.78586,676.87213L203.78586,672.55167L204.74598,672.55167L204.74598,671.83159L206.4262,671.83159L206.4262,670.87149L209.06653,670.87149
				L209.06653,670.15141L212.42696,670.15141L212.42696,670.87149L214.10717,670.87149L214.10717,671.83159L214.82726,671.83159
				L214.82726,672.55167L215.78738,672.55167L215.78738,673.51177L216.50748,673.51177L216.50748,674.23185L217.4676,674.23185L
				217.4676,675.19195L218.18769,675.19195L218.18769,676.87213L219.14781,676.87213L219.14781,677.59221L219.8679,677.59221L219.8679,678.55231
				L220.82802,678.55231L220.82802,680.23249L221.54812,680.23249L221.54812,680.95256L222.50824,680.95256L222.50824,682.63274
				L223.22833,682.63274L223.22833,684.31292L224.18845,684.31292L224.18845,685.27302L224.90854,685.27302L224.90854,686.9532L
				225.86866,686.9532L225.86866,687.67328L226.58876,687.67328L226.58876,688.63338L227.54888,688.63338L227.54888,689.35346L229.94918,689.35346
				L229.94918,690.31356L232.58952,690.31356L232.58952,691.03364L234.26973,691.03364L234.26973,691.99374L234.98982,691.99374
				L234.98982,692.95384L236.67003,692.95384L236.67003,691.99374L238.35025,691.99374L238.35025,691.03364L240.99058,691.03364
				L240.99058,690.31356L242.6708,690.31356L242.6708,689.35346L245.31113,689.35346L245.31113,688.63338L246.99134,688.63338L246.99134,687.67328
				L249.39165,687.67328L249.39165,686.9532L251.07186,686.9532L251.07186,685.9931L252.75208,685.9931L252.75208,685.27302L255.39241,685.27302
				L255.39241,684.31292L257.07262,684.31292L257.07262,683.59284L259.47293,683.59284L259.47293,682.63274L261.15314,682.63274
				L261.15314,681.91267L262.83335,681.91267L262.83335,680.95256L265.47369,680.95256L265.47369,680.23249L267.1539,680.23249L
				267.1539,679.27238L268.83412,679.27238L268.83412,678.55231L271.23442,678.55231L271.23442,677.59221L273.15466,677.59221L273.15466,676.87213
				L275.55497,676.87213L275.55497,675.91203L276.51509,675.91203L276.51509,675.19195L278.1953,675.19195L278.1953,674.23185L278.9154,674.23185
				L278.9154,673.51177L280.59561,673.51177L280.59561,672.55167L281.55573,672.55167L281.55573,671.83159L282.27582,671.83159L
				282.27582,670.87149L283.95604,670.87149L283.95604,666.79105L284.91616,666.79105L284.91616,665.83095L285.63625,665.83095L
				285.63625,664.15077L286.59637,664.15077L286.59637,662.47059L287.31646,662.47059L287.31646,661.75052L288.27658,661.75052L
				288.27658,659.83031L288.99668,659.83031L288.99668,658.15013L289.9568,658.15013L289.9568,656.46995L290.67689,656.46995L290.67689,653.1096
				L291.63701,653.1096L291.63701,650.70934L292.3571,650.70934L292.3571,648.06906L291.63701,648.06906L291.63701,647.34898L292.3571,647.34898
				L292.3571,644.7087L293.31722,644.7087L293.31722,643.02852L294.03731,643.02852L294.03731,642.30845L293.31722,642.30845L293.31722,640.62827
				L292.3571,640.62827L292.3571,637.26791L291.63701,637.26791L291.63701,632.94745L290.67689,632.94745L290.67689,628.62699L289.9568,628.62699
				L289.9568,626.22673L288.99668,626.22673L288.99668,622.86637L288.27658,622.86637L288.27658,615.18556L287.31646,615.18556L
				287.31646,611.8252L286.59637,611.8252L286.59637,608.46484L285.63625,608.46484L285.63625,605.10448L284.91616,605.10448L284.91616,601.74412
				L283.95604,601.74412L283.95604,598.38376L283.23594,598.38376L283.23594,595.74348L282.27582,595.74348L282.27582,592.38313
				L281.55573,592.38313L281.55573,589.02277L280.59561,589.02277L280.59561,585.66241L279.87552,585.66241L279.87552,583.26215
				L278.9154,583.26215L278.9154,582.30205L278.1953,582.30205L278.1953,581.58197L276.51509,581.58197L276.51509,580.62187L274.83488,580.62187
				L274.83488,579.9018L273.15466,579.9018L273.15466,578.94169L272.19454,578.94169L272.19454,578.22162L270.51433,578.22162L270.51433,577.26151
				L268.83412,577.26151L268.83412,576.54144L267.87399,576.54144L267.87399,575.58133L266.19378,575.58133L266.19378,574.86126
				L264.51357,574.86126L264.51357,573.90116L263.79348,573.90116L263.79348,573.18108L262.11326,573.18108L262.11326,572.22098
				L260.43305,572.22098L260.43305,571.5009L258.75284,571.5009L258.75284,570.5408L257.79272,570.5408L257.79272,569.82072L256.1125,569.82072
				L256.1125,568.86062L254.43229,568.86062L254.43229,568.14054L253.7122,568.14054L253.7122,567.18044L252.03198,567.18044L252.03198,566.22034
				L250.35177,566.22034L250.35177,565.50026L248.67156,565.50026L248.67156,564.54016L247.71144,564.54016L247.71144,563.82008
				L246.03122,563.82008L246.03122,562.85998L244.35101,562.85998L244.35101,562.1399L243.63092,562.1399L243.63092,561.1798L241.9507,561.1798
				L241.9507,560.45972L240.03046,560.45972L240.03046,559.49962L238.35025,559.49962L238.35025,558.77954L237.63016,558.77954L
				237.63016,557.81944L235.94994,557.81944L235.94994,557.09937L234.26973,557.09937L234.26973,556.13926L232.58952,556.13926L
				232.58952,555.41919L230.9093,555.41919L230.9093,554.45908L229.22909,554.45908L229.22909,553.73901L227.54888,553.73901L227.54888,552.77891
				L225.86866,552.77891L225.86866,552.05883L224.18845,552.05883L224.18845,551.09873L222.50824,551.09873L222.50824,550.37865
				L220.82802,550.37865L220.82802,549.41855L219.14781,549.41855L219.14781,548.69847L217.4676,548.69847L217.4676,547.73837L215.78738,547.73837
				L215.78738,547.01829L214.10717,547.01829L214.10717,540.29758L214.82726,540.29758L214.82726,532.61676L215.78738,532.61676
				L215.78738,524.93594L216.50748,524.93594L216.50748,517.49515L217.4676,517.49515L217.4676,509.81433L218.18769,509.81433L218.18769,506.45397
				L219.14781,506.45397L219.14781,503.09361L219.8679,503.09361L219.8679,498.77315L220.82802,498.77315L220.82802,489.65218L221.54812,489.65218
				L221.54812,479.5711L222.50824,479.5711L222.50824,472.85039"/>
		</g>
</g></svg>