<?xml version="1.0" encoding="utf-8" standalone="no"?>
<!-- Creator: ESRI ArcMap 10.0.0.2414 -->
<!DOCTYPE svg PUBLIC "-//W3C//DTD SVG 1.1//EN"  "http://www.w3.org/Graphics/SVG/1.1/DTD/svg11.dtd">
<svg width="595.50236pt" height="595.50236pt" viewBox="25 148.377955 545.50236 545.50236" enable-background="new 25 148.377955 545.50236 545.50236"
	version="1.1" xmlns="http://www.w3.org/2000/svg" xmlns:xlink="http://www.w3.org/1999/xlink" >
	<g id="Couches">
		<g id="reservoirs">
			<clipPath id="SVG_CP_2">
				<path d="M574.39289,21.36228L21.36271,21.36228L21.36271,821.36753L574.39289,821.36753L574.39289,21.36228z"/>
			</clipPath>
			<path clip-path="url(#SVG_CP_2)" fill-opacity="0.08" fill="#2f4493" fill-rule="evenodd" stroke="#2f4493" stroke-width="1" stra="1.44018" stroke-miterlimit="10" stroke-linecap="round" stroke-linejoin="round" d="
				M122.8956,861.21177L113.29438,842.7298L98.41249,816.56701L94.33197,809.60627L62.88798,822.80768L51.12649,795.44476L66.24841,788.72405
				L50.64643,749.35985L46.80594,751.28006L38.88494,755.84054L34.80442,758.00077L26.88341,742.39911L8.88113,749.8399L9.84125,751.52008
				L0,757.04067L6.24079,769.28198L-6.24079,775.76267L-6.24079,707.5954L-6.00076,707.35538L4.56058,697.99438L20.88265,679.75244
				L27.6035,670.63146L31.92405,666.311L40.56515,658.63018L48.24612,651.18939L55.20701,643.26855L62.16789,636.78786L81.85039,608.94489
				L91.93167,613.02533L101.29285,616.86573L114.2545,615.42558L114.73456,610.86509L116.6548,607.50474L117.3749,605.34451L121.93547,589.26279
				L121.93547,583.98223L123.37566,582.54208L125.05587,577.98159L128.89636,567.66049L130.09651,559.01957L128.65633,555.89924
				L126.25602,553.25896L150.25907,534.77699L152.8994,537.41727L162.02056,542.45781L172.82193,548.45844L175.22224,544.85806L
				177.14248,545.81816L178.58266,544.13798L186.26364,550.8587L191.30428,555.89924L181.223,563.1L184.10336,567.42047L195.3848,561.41983
				L210.26668,554.21906L210.50671,554.45908L211.70687,556.13926L213.62711,555.65921L221.06805,543.89796L222.50824,541.25768
				L222.74827,540.77763L250.83183,493.73261L271.71448,538.13734L304.11859,609.66497L331.7221,667.75116L369.64691,750.55998L
				398.6906,813.68671L420.53337,861.21177L122.8956,861.21177z"/>
			<path clip-path="url(#SVG_CP_2)" fill-opacity="0.08" fill="#2f4493" fill-rule="evenodd" stroke="#2f4493" stroke-width="1" stra="1.44018" stroke-miterlimit="10" stroke-linecap="round" stroke-linejoin="round" d="
				M601.9964,372.99975L594.79548,363.87878L569.83231,379.48044L585.91435,387.16126L581.83384,389.08146L558.07082,404.68312L
				519.90598,425.56535L504.06397,434.20627L487.0218,443.56727L470.4597,452.68824L444.29638,423.40512L432.05483,412.12392L417.653,401.08274
				L396.05026,386.68121L379.96822,376.60013L328.6017,348.27711L297.8778,330.51522L306.99896,322.8344L308.67917,319.47404L309.15923,317.07379
				L297.8778,292.59118L298.59789,290.67097L315.64006,283.23018L322.60094,280.10985L336.28268,272.66906L342.7635,269.06867L336.76274,269.78875
				L328.36167,270.98888L292.3571,271.94898L284.67613,270.02877L274.83488,264.02814L259.71296,252.74693L245.0711,241.46573L234.74979,231.14463
				L229.46912,223.22379L217.70763,199.94131L180.98297,213.38274L180.74294,213.62276L162.26059,177.13888L156.0198,161.29719L
				146.41858,133.93427L155.05968,132.97417L157.21995,127.69361L158.18007,120.25281L155.77977,113.77212L152.8994,94.09003L154.81965,76.08811
				L137.05739,77.52826L135.13715,84.24898L132.49681,84.24898L130.8166,78.72839L126.97611,58.32622L151.45922,52.5656L150.25907,43.92468
				L150.97916,35.52379L149.29895,28.08299L145.93852,25.92276L135.85724,28.32302L131.29666,11.04118L119.7752,14.64156L114.73456,-12.96138
				L114.49453,-15.12161L113.29438,-18.722L124.33578,-18.722L124.81584,-17.52187L127.69621,-18.722L601.9964,-18.722L601.9964,372.99975
				z"/>
		</g>
</g></svg>