<?xml version="1.0" encoding="utf-8" standalone="no"?>
<!-- Creator: ESRI ArcMap 10.0.0.2414 -->
<!DOCTYPE svg PUBLIC "-//W3C//DTD SVG 1.1//EN"  "http://www.w3.org/Graphics/SVG/1.1/DTD/svg11.dtd">
<svg width="595.50236pt" height="595.50236pt" viewBox="25 148.377955 545.50236 545.50236" enable-background="new 25 148.377955 545.50236 545.50236"
	version="1.1" xmlns="http://www.w3.org/2000/svg" xmlns:xlink="http://www.w3.org/1999/xlink" >
	<g id="Couches">
		<g id="cont_2">
			<path clip-path="url(#SVG_CP_2)" fill="none" stroke="#999999" stroke-width="0.96012" stroke-miterlimit="10" stroke-linecap="round" stroke-linejoin="round" d="
				M236.91007,366.75908L236.67003,366.75908L236.67003,366.51906L236.91007,366.51906L236.91007,366.75908"/>
			<path clip-path="url(#SVG_CP_2)" fill="none" stroke="#999999" stroke-width="0.96012" stroke-miterlimit="10" stroke-linecap="round" stroke-linejoin="round" d="
				M325.72134,466.3697L325.72134,462.76931L325.48131,462.76931L325.48131,462.52929L325.24127,462.52929L325.24127,462.28926L
				325.00124,462.28926L325.00124,462.04924L324.76121,462.04924L324.76121,461.80921L324.52118,461.80921L324.52118,461.56919L
				324.28115,461.56919L324.28115,461.32916L324.04112,461.32916L324.04112,461.08913L323.80109,461.08913L323.80109,460.84911L
				323.56106,460.84911L323.56106,460.60908L323.32103,460.60908L323.32103,460.36906L323.081,460.36906L323.081,460.12903L322.84097,460.12903
				L322.84097,459.88901L322.60094,459.88901L322.60094,459.64898L322.36091,459.64898L322.36091,459.40896L322.12088,459.40896
				L322.12088,459.16893L321.88085,459.16893L321.88085,458.9289L321.64082,458.9289L321.64082,458.68888L321.40079,458.68888L321.40079,458.44885
				L321.16076,458.44885L321.16076,458.20883L320.92073,458.20883L320.92073,457.9688L320.6807,457.9688L320.6807,457.72878L320.44067,457.72878
				L320.44067,457.48875L320.20063,457.48875L320.20063,457.24873L319.9606,457.24873L319.9606,457.0087L319.72057,457.0087L319.72057,456.76867
				L319.48054,456.76867L319.48054,456.52865L319.24051,456.52865L319.24051,456.28862L319.00048,456.28862L319.00048,456.0486L
				318.76045,456.0486L318.76045,455.80857L318.52042,455.80857L318.52042,455.56855L318.28039,455.56855L318.28039,455.32852L318.04036,455.32852
				L318.04036,455.0885L317.80033,455.0885L317.80033,454.84847L317.5603,454.84847L317.5603,454.60844L317.5603,454.36842L317.32027,454.36842
				L317.32027,454.12839L317.08024,454.12839L317.08024,453.88837L316.84021,453.88837L316.84021,453.64834L316.60018,453.64834
				L316.60018,453.40832L316.36015,453.40832L316.36015,453.16829L316.12012,453.16829L316.12012,452.92826L315.88009,452.92826
				L315.88009,452.68824L315.64006,452.68824L315.64006,452.44821L315.40003,452.44821L315.40003,452.20819L315.16,452.20819L315.16,451.96816
				L314.91996,451.96816L314.91996,451.72814L314.67993,451.72814L314.4399,451.72814L314.4399,451.48811L314.4399,451.24809L314.19987,451.24809
				L314.19987,451.00806L313.95984,451.00806L313.95984,450.76803L313.71981,450.76803L313.47978,450.76803L313.47978,450.52801
				L313.47978,450.28798L313.23975,450.28798L313.23975,450.04796L312.99972,450.04796L312.99972,449.80793L312.75969,449.80793
				L312.75969,449.56791L312.51966,449.56791L312.51966,449.32788L312.27963,449.32788L312.27963,449.08786L312.0396,449.08786L
				312.0396,448.84783L311.79957,448.84783L311.79957,448.6078L311.55954,448.6078L311.55954,448.36778L311.31951,448.36778L311.31951,448.12775
				L311.07948,448.12775L311.07948,447.88773L310.83945,447.88773L310.83945,447.6477L310.59942,447.6477L310.59942,447.40768L310.35939,447.40768
				L310.35939,447.16765L310.11936,447.16765L309.87933,447.16765L309.87933,446.92763L309.87933,446.6876L309.63929,446.6876L309.63929,446.44757
				L309.39926,446.44757L309.39926,446.20755L309.15923,446.20755L309.15923,445.96752L308.9192,445.96752L308.9192,445.7275L308.67917,445.7275
				L308.67917,443.56727L308.43914,443.56727L308.43914,443.08722L308.43914,442.60717L308.19911,442.60717L308.19911,442.12711
				L307.95908,442.12711L307.95908,441.88709L307.71905,441.88709L307.71905,441.64706L307.47902,441.64706L307.47902,441.40704
				L307.23899,441.40704L307.23899,441.16701L306.99896,441.16701L306.99896,440.92699L306.75893,440.92699L306.75893,428.92571
				L306.99896,428.92571L306.99896,428.68568L307.23899,428.68568L307.23899,413.08402L306.99896,413.08402L306.99896,411.40384
				L306.99896,411.16381L306.75893,411.16381L306.75893,410.92379L306.5189,410.92379L306.27887,410.92379L306.27887,410.68376L
				306.27887,410.44374L306.03884,410.44374L306.03884,410.20371L305.79881,410.20371L305.79881,409.96369L305.55878,409.96369L
				305.31875,409.96369L305.31875,409.72366L305.31875,409.48364L305.07872,409.48364L305.07872,409.24361L304.83869,409.24361L
				304.83869,409.00358L304.59865,409.00358L304.35862,409.00358L304.35862,408.76356L304.35862,408.52353L304.11859,408.52353L
				304.11859,408.28351L303.87856,408.28351L303.87856,408.04348L303.63853,408.04348L303.3985,408.04348L303.3985,407.80346L303.3985,407.56343
				L303.15847,407.56343L303.15847,407.32341L302.91844,407.32341L302.91844,407.08338L302.67841,407.08338L302.67841,406.84335
				L302.43838,406.84335L302.43838,406.60333L302.19835,406.60333L302.19835,406.3633L301.95832,406.3633L301.71829,406.3633L301.71829,406.12328
				L301.71829,405.88325L301.47826,405.88325L301.47826,405.64323L301.23823,405.64323L301.23823,405.4032L300.9982,405.4032L300.75817,405.4032
				L300.75817,405.16318L300.75817,404.92315L300.51814,404.92315L300.51814,404.68312L300.27811,404.68312L300.27811,404.4431L
				300.03808,404.4431L299.79805,404.4431L299.79805,404.20307L299.79805,403.96305L299.55802,403.96305L299.55802,403.72302L299.31798,403.72302
				L299.31798,403.483L299.07795,403.483L299.07795,403.24297L298.83792,403.24297L298.83792,403.00294L298.59789,403.00294L298.59789,402.76292
				L298.35786,402.76292L298.35786,399.88261L298.11783,399.88261L297.8778,399.88261L297.8778,399.64259L297.8778,399.40256L297.63777,399.40256
				L297.63777,399.16254L297.39774,399.16254L297.15771,399.16254L297.15771,398.92251L297.15771,398.68248L296.91768,398.68248
				L296.91768,398.44246L296.67765,398.44246L296.67765,398.20243L296.43762,398.20243L296.19759,398.20243L296.19759,397.96241
				L296.19759,397.72238L295.95756,397.72238L295.95756,397.48236L295.71753,397.48236L295.71753,397.24233L295.4775,397.24233L
				295.23747,397.24233L295.23747,397.00231L295.23747,396.76228L294.99744,396.76228L294.99744,396.52225L294.75741,396.52225L
				294.75741,396.28223L294.51738,396.28223L294.27735,396.28223L294.27735,396.0422L294.27735,395.80218L294.03731,395.80218L294.03731,395.56215
				L293.79728,395.56215L293.55725,395.56215L293.55725,395.32213L293.31722,395.32213L293.31722,395.0821L293.31722,394.84208L
				293.07719,394.84208L293.07719,394.60205L292.83716,394.60205L292.59713,394.60205L292.59713,394.36202L292.59713,394.122L292.3571,394.122
				L292.3571,393.88197L292.11707,393.88197L292.11707,393.64195L291.87704,393.64195L291.63701,393.64195L291.63701,393.40192L
				291.63701,393.1619L291.39698,393.1619L291.39698,392.92187L291.15695,392.92187L291.15695,392.68185L290.91692,392.68185L290.67689,392.68185
				L290.67689,392.44182L290.67689,392.20179L290.43686,392.20179L290.43686,391.96177L290.19683,391.96177L290.19683,391.72174
				L289.9568,391.72174L289.71677,391.72174L289.71677,391.24169L289.47674,391.24169L289.47674,391.00167L289.23671,391.00167L
				289.23671,390.76164L288.99668,390.76164L288.99668,390.52161L288.75664,390.52161L288.75664,390.28159L288.51661,390.28159L
				288.51661,390.04156L288.27658,390.04156L288.27658,389.80154L288.03655,389.80154L288.03655,389.56151L287.79652,389.56151L
				287.79652,389.32149L287.55649,389.32149L287.55649,389.08146L287.31646,389.08146L287.31646,388.84144L287.07643,388.84144L
				287.07643,388.60141L286.8364,388.60141L286.8364,388.36138L286.59637,388.36138L286.59637,388.12136L286.35634,388.12136L286.35634,387.88133
				L286.11631,387.88133L286.11631,387.64131L285.87628,387.64131L285.87628,387.40128L285.63625,387.40128L285.63625,387.16126
				L285.39622,387.16126L285.15619,387.16126L285.15619,386.92123L285.15619,386.68121L284.91616,386.68121L284.91616,386.44118
				L281.79576,386.44118L281.55573,386.44118L281.55573,386.20115L281.55573,385.96113L281.3157,385.96113L281.3157,385.7211L281.07567,385.7211
				L280.83564,385.7211L280.83564,385.48108L279.39546,385.48108L279.39546,385.24105L279.15543,385.24105L279.15543,385.00103L
				278.9154,385.00103L278.9154,384.761L278.67537,384.761L278.67537,384.52098L278.43533,384.52098L278.43533,384.28095L278.1953,384.28095
				L278.1953,384.04092L277.95527,384.04092L277.95527,383.8009L277.71524,383.8009L277.71524,383.56087L277.47521,383.56087L277.47521,383.32085
				L277.23518,383.32085L277.23518,383.08082L276.99515,383.08082L276.99515,382.8408L276.75512,382.8408L276.75512,382.60077L276.51509,382.60077
				L276.51509,382.36075L276.27506,382.36075L276.27506,382.12072L276.03503,382.12072L276.03503,381.88069L275.795,381.88069L275.795,381.64067
				L275.795,381.40064L275.55497,381.40064L275.31494,381.40064L275.31494,381.16062L275.07491,381.16062L275.07491,380.92059L274.83488,380.92059
				L274.83488,380.68057L274.83488,380.44054L274.59485,380.44054L274.35482,380.44054L274.35482,380.20051L274.11479,380.20051
				L274.11479,379.96049L273.87476,379.96049L273.87476,379.72046L273.87476,379.48044L273.63473,379.48044L273.3947,379.48044L
				273.3947,379.24041L273.15466,379.24041L273.15466,379.00039L272.91463,379.00039L272.91463,378.76036L272.91463,378.52034L272.6746,378.52034
				L272.43457,378.52034L272.43457,378.28031L272.19454,378.28031L272.19454,378.04028L271.95451,378.04028L271.95451,377.80026
				L271.71448,377.80026L271.71448,377.56023L271.47445,377.56023L271.47445,377.32021L271.23442,377.32021L271.23442,377.08018
				L271.23442,376.84016L270.99439,376.84016L270.75436,376.84016L270.75436,376.60013L270.51433,376.60013L270.51433,376.36011
				L270.2743,376.36011L270.2743,376.12008L270.2743,374.67993L270.2743,373.23977L270.51433,373.23977L270.51433,372.03965L270.51433,370.83952
				L270.75436,370.83952L270.75436,369.87942L270.75436,369.39936L270.99439,369.39936L270.99439,368.91931L271.23442,368.91931
				L271.23442,368.67929L271.23442,368.43926L271.47445,368.43926L271.47445,368.19924L271.47445,367.95921L271.71448,367.95921
				L271.71448,367.71918L271.95451,367.71918L271.95451,367.47916L272.19454,367.47916L272.19454,367.23913L272.43457,367.23913
				L272.43457,366.99911L272.43457,366.75908L272.6746,366.75908L272.91463,366.75908L272.91463,366.51906L273.15466,366.51906L
				273.15466,366.27903L273.15466,366.03901L273.3947,366.03901L273.3947,365.79898L273.63473,365.79898L273.63473,365.55895L273.87476,365.55895
				L273.87476,365.31893L274.11479,365.31893L274.11479,365.0789L274.11479,364.83888L274.35482,364.83888L274.35482,364.59885L
				274.59485,364.59885L274.83488,364.59885L274.83488,364.1188L275.07491,364.1188L275.07491,363.87878L275.31494,363.87878L275.31494,363.63875
				L275.31494,363.39872L275.07491,363.39872L275.07491,363.1587L274.83488,363.1587L274.83488,362.91867L274.35482,362.91867L274.35482,362.67865
				L274.11479,362.67865L274.11479,362.43862L274.11479,362.1986L273.87476,362.1986L273.63473,362.1986L273.63473,361.95857L273.3947,361.95857
				L273.3947,361.71855L273.15466,361.71855L273.15466,361.47852L272.91463,361.47852L272.91463,361.23849L272.6746,361.23849L272.43457,361.23849
				L272.43457,360.99847L272.6746,360.99847L272.91463,360.99847L272.91463,360.51842L273.15466,360.51842L273.15466,360.27839L
				273.15466,360.03837L273.3947,360.03837L273.3947,359.79834L273.3947,359.55832L273.63473,359.55832L273.63473,359.31829L273.87476,359.31829
				L273.87476,359.07826L274.11479,359.07826L274.11479,358.83824L274.11479,358.59821L274.35482,358.59821L274.35482,358.35819
				L274.59485,358.35819L274.59485,358.11816L274.83488,358.11816L274.83488,357.87814L275.07491,357.87814L275.07491,357.63811
				L275.07491,357.39809L275.31494,357.39809L275.31494,357.15806L275.55497,357.15806L275.795,357.15806L275.795,356.91803L275.795,356.67801
				L276.03503,356.67801L276.03503,356.43798L276.27506,356.43798L276.27506,356.19796L276.27506,355.95793L276.51509,355.95793
				L276.51509,355.71791L276.27506,355.71791L276.27506,355.23785L276.27506,354.99783L276.03503,354.99783L276.03503,354.51778
				L276.03503,353.7977L275.795,353.7977L275.795,353.31765L275.795,352.59757L275.55497,352.59757L275.55497,352.11752L275.31494,352.11752
				L275.31494,351.8775L275.55497,351.8775L275.55497,351.39745L275.795,351.39745L275.795,351.15742L276.03503,351.15742L276.03503,350.91739
				L276.27506,350.91739L276.27506,350.67737L276.27506,350.43734L276.51509,350.43734L276.75512,350.43734L276.75512,350.19732
				L276.99515,350.19732L276.99515,349.95729L276.99515,349.71727L277.23518,349.71727L277.23518,349.47724L277.47521,349.47724
				L277.47521,349.23722L277.71524,349.23722L277.71524,348.99719L277.95527,348.99719L277.95527,348.75716L277.95527,348.51714
				L278.1953,348.51714L278.43533,348.51714L278.43533,348.27711L278.43533,348.03709L278.67537,348.03709L278.67537,347.79706L
				278.9154,347.79706L278.9154,347.55704L278.9154,347.79706L278.9154,348.27711L278.67537,348.27711L278.67537,348.99719L278.67537,349.47724
				L278.43533,349.47724L278.43533,349.71727L278.67537,349.71727L278.67537,352.8376L278.67537,353.07762L278.9154,353.07762L278.9154,353.55768
				L278.9154,354.03773L279.15543,354.03773L279.15543,354.51778L279.39546,354.51778L279.39546,354.7578L279.39546,355.23785L279.63549,355.23785
				L279.63549,355.47788L279.63549,356.43798L279.63549,356.67801L279.39546,356.67801L279.39546,357.39809L279.39546,357.87814
				L279.15543,357.87814L279.15543,358.35819L279.39546,358.35819L279.39546,358.83824L279.39546,359.31829L279.39546,359.79834
				L279.39546,360.75844L279.39546,360.99847L279.63549,360.99847L279.63549,361.23849L279.87552,361.23849L279.87552,361.71855
				L280.11555,361.71855L280.11555,361.95857L280.35558,361.95857L280.83564,361.95857L280.83564,362.1986L281.07567,362.1986L281.3157,362.1986
				L281.3157,362.43862L281.79576,362.43862L281.79576,362.67865L282.03579,362.67865L282.27582,362.67865L282.27582,362.91867L
				282.75588,362.91867L282.99591,362.91867L282.99591,363.1587L283.23594,363.1587L283.47597,363.1587L283.47597,363.39872L283.716,363.39872
				L283.716,363.63875L283.95604,363.63875L283.95604,363.87878L283.95604,364.1188L284.19607,364.1188L284.19607,364.35883L284.19607,364.59885
				L284.4361,364.59885L284.4361,364.83888L284.67613,364.83888L284.67613,365.0789L284.91616,365.0789L284.91616,365.31893L285.15619,365.31893
				L285.15619,365.55895L285.39622,365.55895L285.39622,365.79898L285.63625,365.79898L285.63625,366.03901L285.87628,366.03901
				L285.87628,366.27903L286.11631,366.27903L286.11631,366.51906L286.35634,366.51906L286.35634,366.75908L286.59637,366.75908
				L286.59637,366.99911L286.8364,366.99911L286.8364,367.23913L287.07643,367.23913L287.07643,367.47916L287.31646,367.47916L287.31646,367.71918
				L287.55649,367.71918L287.55649,368.19924L287.79652,368.19924L287.79652,368.43926L288.03655,368.43926L288.03655,368.67929
				L288.27658,368.67929L288.51661,368.67929L288.51661,368.91931L288.51661,369.15934L288.75664,369.15934L288.75664,369.39936
				L288.99668,369.39936L288.99668,369.63939L289.23671,369.63939L289.23671,369.87942L289.47674,369.87942L289.47674,370.11944
				L289.71677,370.11944L289.71677,370.35947L289.9568,370.35947L290.19683,370.35947L290.19683,370.59949L290.19683,370.83952L
				290.43686,370.83952L290.43686,371.07954L290.67689,371.07954L290.67689,371.31957L290.91692,371.31957L290.91692,371.55959L
				291.15695,371.55959L291.15695,371.79962L291.39698,371.79962L291.39698,372.03965L291.63701,372.03965L291.87704,372.03965L
				291.87704,372.27967L292.11707,372.27967L292.3571,372.27967L292.3571,372.5197L292.59713,372.5197L292.59713,372.75972L292.83716,372.75972
				L293.79728,372.75972L293.79728,372.99975L294.99744,372.99975L298.11783,372.99975L298.35786,372.99975L304.35862,372.99975
				L304.35862,373.23977L305.07872,373.23977L305.55878,373.23977L305.55878,373.4798L306.03884,373.4798L306.03884,373.71982L306.5189,373.71982
				L306.99896,373.71982L306.99896,373.95985L307.47902,373.95985L307.71905,373.95985L307.71905,374.19988L308.19911,374.19988
				L308.19911,374.4399L308.67917,374.4399L308.9192,374.4399L308.9192,374.67993L309.15923,374.67993L309.39926,374.67993L309.39926,374.91995
				L309.63929,374.91995L309.63929,375.15998L309.63929,375.4L309.87933,375.4L310.11936,375.4L310.11936,375.64003L310.35939,375.64003
				L310.35939,375.88005L310.59942,375.88005L310.59942,376.12008L310.83945,376.12008L310.83945,376.36011L311.07948,376.36011
				L311.31951,376.36011L311.31951,376.60013L311.55954,376.60013L312.0396,376.60013L312.0396,376.84016L312.27963,376.84016L312.75969,376.84016
				L312.75969,377.08018L312.99972,377.08018L312.99972,377.32021L313.23975,377.32021L313.71981,377.32021L313.71981,377.56023
				L313.95984,377.56023L314.4399,377.56023L314.4399,377.80026L314.67993,377.80026L314.67993,378.04028L314.91996,378.04028L315.16,378.04028
				L315.16,378.28031L315.64006,378.28031L315.88009,378.28031L315.88009,378.52034L316.12012,378.52034L316.36015,378.52034L316.36015,378.76036
				L316.60018,378.76036L316.60018,379.00039L316.84021,379.00039L317.08024,379.00039L317.08024,379.24041L317.5603,379.24041L
				317.5603,379.48044L317.80033,379.48044L317.80033,379.72046L318.28039,379.72046L318.28039,379.96049L318.52042,379.96049L318.52042,380.20051
				L318.76045,380.20051L318.76045,380.44054L319.00048,380.44054L319.24051,380.44054L319.24051,380.68057L319.48054,380.68057
				L319.48054,380.92059L319.48054,381.16062L319.72057,381.16062L319.72057,381.40064L319.9606,381.40064L319.9606,381.88069L320.20063,381.88069
				L320.20063,382.12072L320.44067,382.12072L320.44067,382.60077L320.44067,382.8408L320.6807,382.8408L320.6807,383.08082L320.92073,383.08082
				L320.92073,383.56087L321.16076,383.56087L321.16076,384.04092L321.40079,384.04092L321.40079,384.28095L321.40079,384.52098
				L321.64082,384.52098L321.64082,384.761L321.64082,385.24105L321.88085,385.24105L321.88085,385.48108L322.12088,385.48108L322.12088,385.7211
				L322.12088,385.96113L322.36091,385.96113L322.36091,386.44118L322.36091,386.68121L322.60094,386.68121L322.60094,387.16126
				L322.60094,387.40128L322.84097,387.40128L322.84097,387.88133L323.081,387.88133L323.081,389.08146L323.081,390.28159L323.32103,390.28159
				L323.32103,390.76164L323.32103,391.00167L323.56106,391.00167L323.56106,391.72174L323.80109,391.72174L323.80109,391.96177
				L323.80109,392.68185L324.04112,392.68185L324.04112,392.92187L324.04112,393.64195L324.28115,393.64195L324.28115,393.88197
				L324.52118,393.88197L324.52118,394.60205L324.76121,394.60205L324.76121,394.84208L324.76121,395.56215L325.00124,395.56215
				L325.00124,396.0422L325.00124,396.28223L325.24127,396.28223L325.24127,396.76228L325.24127,397.48236L325.48131,397.48236L
				325.48131,398.20243L325.72134,398.20243L325.72134,399.16254L325.72134,399.88261L325.96137,399.88261L325.96137,400.12264L
				325.96137,400.36266L326.2014,400.36266L326.2014,400.84271L326.2014,401.08274L326.44143,401.08274L326.44143,401.32277L326.68146,401.32277
				L326.68146,401.80282L326.68146,402.04284L326.92149,402.04284L326.92149,402.28287L326.92149,402.76292L327.16152,402.76292
				L327.16152,403.00294L327.16152,403.24297L327.40155,403.24297L327.40155,403.72302L327.64158,403.72302L327.64158,403.96305
				L327.64158,404.4431L327.88161,404.4431L327.88161,404.68312L327.88161,404.92315L328.12164,404.92315L328.12164,405.4032L328.36167,405.4032
				L328.36167,405.64323L328.36167,405.88325L328.6017,405.88325L328.6017,406.3633L328.6017,406.84335L328.84173,406.84335L328.84173,407.32341
				L328.84173,407.80346L329.08176,407.80346L329.08176,408.28351L329.32179,408.28351L329.32179,408.52353L329.32179,409.00358
				L329.56182,409.00358L329.56182,409.48364L329.56182,409.96369L329.80185,409.96369L329.80185,410.92379L329.80185,411.88389
				L330.04188,411.88389L330.04188,412.36394L330.28191,412.36394L330.28191,412.60397L330.28191,412.84399L330.52194,412.84399
				L330.52194,413.08402L330.52194,413.56407L330.76198,413.56407L330.76198,413.8041L330.76198,414.04412L331.00201,414.04412L
				331.00201,414.52417L331.24204,414.52417L331.24204,414.7642L331.24204,415.00422L331.48207,415.00422L331.48207,415.48427L331.48207,415.7243
				L331.7221,415.7243L331.7221,476.93082L331.48207,476.93082L331.48207,476.45077L331.48207,476.21075L327.88161,476.21075L327.88161,473.33044
				L328.12164,473.33044L328.12164,469.25L328.36167,469.25L328.36167,466.3697L325.72134,466.3697"/>
			<path clip-path="url(#SVG_CP_2)" fill="none" stroke="#999999" stroke-width="0.96012" stroke-miterlimit="10" stroke-linecap="round" stroke-linejoin="round" d="
				M323.081,503.81369L322.84097,503.81369L322.60094,503.81369L322.60094,503.57366L322.36091,503.57366L322.36091,503.09361L322.36091,502.85359
				L322.60094,502.85359L322.60094,502.61356L322.60094,502.13351L322.84097,502.13351L322.84097,501.89348L323.081,501.89348L323.081,501.65346
				L323.081,501.17341L323.32103,501.17341L323.32103,500.93338L323.32103,500.69335L323.56106,500.69335L323.56106,500.45333L323.80109,500.45333
				L323.80109,500.2133L323.80109,499.73325L324.04112,499.73325L324.04112,499.49323L324.04112,499.2532L324.28115,499.2532L324.28115,499.01318
				L324.28115,498.53312L324.52118,498.53312L324.52118,498.2931L324.76121,498.2931L324.76121,498.05307L324.76121,497.57302L324.52118,497.57302
				L324.52118,497.333L324.28115,497.333L324.04112,497.333L324.04112,496.85295L324.04112,496.61292L324.28115,496.61292L324.28115,496.37289
				L324.28115,495.89284L324.52118,495.89284L324.52118,495.65282L324.76121,495.65282L324.76121,495.41279L324.76121,494.93274
				L325.00124,494.93274L325.00124,494.69272L325.00124,494.45269L325.24127,494.45269L325.24127,493.97264L325.24127,493.73261
				L325.48131,493.73261L325.48131,493.49259L325.24127,493.49259L325.24127,493.25256L325.00124,493.25256L325.00124,493.01254
				L324.76121,493.01254L324.52118,493.01254L324.52118,492.77251L324.28115,492.77251L324.04112,492.77251L324.04112,492.53249
				L323.80109,492.53249L323.80109,492.29246L323.56106,492.29246L323.32103,492.29246L323.32103,492.05243L323.081,492.05243L323.081,491.81241
				L323.32103,491.81241L323.32103,491.33236L323.32103,490.85231L323.56106,490.85231L323.56106,490.37225L323.80109,490.37225
				L323.80109,489.8922L323.80109,489.41215L324.04112,489.41215L324.04112,488.9321L324.04112,487.972L324.28115,487.972L324.28115,487.25192
				L324.28115,486.53185L324.52118,486.53185L324.52118,485.57174L324.76121,485.57174L324.76121,484.85167L324.76121,484.13159
				L325.00124,484.13159L325.00124,483.89156L325.00124,483.41151L325.24127,483.41151L325.24127,482.93146L325.24127,482.69144
				L325.72134,482.69144L325.96137,482.69144L325.96137,482.93146L326.2014,482.93146L326.68146,482.93146L326.68146,483.17149L
				327.16152,483.17149L327.64158,483.17149L327.64158,483.41151L328.12164,483.41151L328.12164,483.65154L328.6017,483.65154L329.32179,483.65154
				L329.32179,483.89156L329.80185,483.89156L329.80185,483.41151L329.80185,482.93146L330.04188,482.93146L330.04188,482.45141
				L330.28191,482.45141L330.28191,481.97136L330.28191,481.49131L330.52194,481.49131L330.52194,481.01126L330.52194,480.53121
				L330.76198,480.53121L330.76198,480.05116L330.76198,479.5711L331.00201,479.5711L331.00201,479.09105L331.24204,479.09105L331.24204,478.611
				L331.24204,478.13095L331.48207,478.13095L331.48207,477.6509L331.48207,477.17085L331.7221,477.17085L331.7221,486.29182L331.24204,486.29182
				L331.24204,486.53185L331.00201,486.53185L330.76198,486.53185L330.76198,486.77187L330.52194,486.77187L330.28191,486.77187
				L330.28191,487.0119L330.04188,487.0119L330.04188,487.25192L329.80185,487.25192L329.56182,487.25192L329.56182,487.49195L328.84173,487.49195
				L328.6017,487.49195L328.6017,487.73197L328.36167,487.73197L328.36167,488.21202L328.36167,488.45205L328.12164,488.45205L328.12164,488.69208
				L327.88161,488.69208L327.88161,488.9321L327.88161,489.17213L327.64158,489.17213L327.64158,489.41215L327.64158,489.65218L
				327.40155,489.65218L327.40155,489.8922L327.16152,489.8922L327.16152,490.13223L327.16152,490.37225L326.92149,490.37225L326.92149,491.09233
				L327.16152,491.09233L327.16152,492.77251L327.16152,493.01254L327.40155,493.01254L327.40155,493.49259L327.64158,493.49259
				L327.40155,493.49259L327.40155,493.97264L327.16152,493.97264L327.16152,494.45269L327.16152,494.69272L326.92149,494.69272
				L326.92149,494.93274L326.92149,495.41279L326.68146,495.41279L326.68146,495.65282L326.68146,495.89284L326.44143,495.89284
				L326.44143,496.37289L326.2014,496.37289L326.2014,497.81305L326.2014,498.2931L325.96137,498.2931L325.72134,498.2931L325.72134,498.53312
				L325.72134,499.01318L325.48131,499.01318L325.48131,499.2532L325.24127,499.2532L325.24127,499.49323L325.24127,499.73325L325.00124,499.73325
				L325.00124,499.97328L324.76121,499.97328L324.76121,500.2133L324.76121,500.45333L324.52118,500.45333L324.52118,500.69335L
				324.28115,500.69335L324.28115,500.93338L324.28115,501.17341L324.04112,501.17341L324.04112,501.41343L323.80109,501.41343L
				323.80109,501.89348L323.56106,501.89348L323.56106,502.13351L323.32103,502.13351L323.32103,502.37353L323.32103,502.61356L
				323.081,502.61356L323.081,502.85359L322.84097,502.85359L322.84097,503.09361L322.60094,503.09361L322.60094,503.33364L322.84097,503.33364
				L322.84097,503.57366L323.081,503.57366L323.081,503.81369"/>
			<path clip-path="url(#SVG_CP_2)" fill="none" stroke="#999999" stroke-width="0.96012" stroke-miterlimit="10" stroke-linecap="round" stroke-linejoin="round" d="
				M236.91007,366.75908L237.1501,366.75908L237.63016,366.75908L237.63016,366.99911L237.87019,366.99911L237.87019,367.23913L
				238.35025,367.23913L238.83031,367.23913L238.83031,367.47916L239.07034,367.47916L239.5504,367.47916L239.5504,367.71918L239.79043,367.71918
				L240.27049,367.71918L240.27049,367.95921L240.51052,367.95921L240.51052,368.19924L240.99058,368.19924L241.47064,368.19924
				L241.47064,368.43926L241.71067,368.43926L242.19074,368.43926L242.19074,368.67929L242.43077,368.67929L242.91083,368.67929
				L242.91083,368.91931L243.15086,368.91931L243.15086,369.15934L243.63092,369.15934L244.11098,369.15934L244.11098,369.39936
				L244.35101,369.39936L244.83107,369.39936L244.83107,369.63939L245.0711,369.63939L245.0711,369.87942L245.55116,369.87942L246.03122,369.87942
				L246.03122,370.11944L246.27125,370.11944L246.75131,370.11944L246.75131,370.35947L246.99134,370.35947L247.47141,370.35947
				L247.47141,370.59949L247.95147,370.59949L247.95147,370.83952L248.43153,370.83952L248.67156,370.83952L248.67156,371.07954
				L248.91159,371.07954L249.39165,371.07954L249.39165,371.31957L249.87171,371.31957L250.35177,371.31957L250.35177,371.55959
				L250.5918,371.55959L250.5918,371.79962L250.83183,371.79962L251.31189,371.79962L251.31189,372.03965L251.79195,372.03965L252.27201,372.03965
				L252.27201,372.27967L252.51205,372.27967L252.99211,372.27967L252.99211,372.5197L253.23214,372.5197L253.23214,372.75972L253.7122,372.75972
				L254.19226,372.75972L254.19226,372.99975L254.43229,372.99975L254.91235,372.99975L254.91235,373.23977L255.15238,373.23977
				L255.63244,373.23977L255.63244,373.4798L256.1125,373.4798L256.1125,373.71982L256.59256,373.71982L256.83259,373.71982L256.83259,373.95985
				L257.07262,373.95985L257.55268,373.95985L257.55268,374.19988L258.03275,374.19988L258.03275,374.4399L258.51281,374.4399L258.75284,374.4399
				L258.75284,374.67993L258.99287,374.67993L259.47293,374.67993L259.47293,374.91995L259.95299,374.91995L260.43305,374.91995
				L260.43305,375.15998L260.67308,375.15998L260.67308,375.4L261.15314,375.4L261.39317,375.4L261.39317,375.64003L261.87323,375.64003
				L262.35329,375.64003L262.35329,375.88005L262.59332,375.88005L263.07339,375.88005L263.07339,376.12008L263.31342,376.12008
				L263.31342,376.36011L263.79348,376.36011L264.27354,376.36011L264.27354,376.60013L264.51357,376.60013L264.99363,376.60013
				L264.99363,376.84016L265.23366,376.84016L265.71372,376.84016L265.71372,377.08018L266.19378,377.08018L266.19378,377.32021
				L266.43381,377.32021L266.91387,377.32021L266.91387,377.56023L267.1539,377.56023L267.1539,377.32021L267.39393,377.32021L267.39393,376.84016
				L267.63396,376.84016L267.63396,376.60013L267.87399,376.60013L267.87399,376.36011L268.11402,376.36011L268.11402,376.12008
				L268.35406,376.12008L268.35406,375.88005L268.59409,375.88005L268.83412,375.88005L269.55421,375.88005L269.55421,376.12008
				L270.2743,376.12008L270.2743,376.36011L270.2743,376.60013L270.51433,376.60013L270.51433,376.84016L270.75436,376.84016L270.75436,377.08018
				L270.99439,377.08018L270.99439,377.32021L271.23442,377.32021L271.23442,377.56023L271.47445,377.56023L271.47445,377.80026
				L271.71448,377.80026L271.71448,378.04028L271.95451,378.04028L271.95451,378.28031L272.19454,378.28031L272.19454,378.52034
				L272.43457,378.52034L272.43457,378.76036L272.6746,378.76036L272.6746,379.00039L272.91463,379.00039L272.91463,379.24041L273.15466,379.24041
				L273.15466,379.48044L273.3947,379.48044L273.3947,379.72046L273.63473,379.72046L273.63473,379.96049L273.87476,379.96049L273.87476,380.20051
				L274.11479,380.20051L274.11479,380.44054L274.35482,380.44054L274.35482,380.68057L274.59485,380.68057L274.59485,380.92059
				L274.83488,380.92059L274.83488,381.16062L275.07491,381.16062L275.07491,381.40064L275.31494,381.40064L275.31494,381.64067
				L275.55497,381.64067L275.55497,381.88069L275.795,381.88069L275.795,382.12072L276.03503,382.12072L276.03503,382.36075L276.27506,382.36075
				L276.27506,382.60077L276.51509,382.60077L276.51509,382.8408L276.75512,382.8408L276.75512,383.08082L276.99515,383.08082L276.99515,383.32085
				L277.23518,383.32085L277.23518,383.56087L277.47521,383.56087L277.47521,383.8009L277.71524,383.8009L277.71524,384.04092L277.95527,384.04092
				L277.95527,384.28095L278.1953,384.28095L278.1953,384.52098L278.43533,384.52098L278.43533,384.761L278.67537,384.761L278.67537,385.00103
				L278.9154,385.00103L278.9154,385.24105L279.15543,385.24105L279.15543,385.48108L279.39546,385.48108L279.39546,385.7211L279.63549,385.7211
				L279.63549,385.96113L279.87552,385.96113L279.87552,386.20115L280.11555,386.20115L280.11555,386.44118L280.35558,386.44118
				L280.35558,386.68121L282.03579,386.68121L282.03579,386.92123L282.51585,386.92123L282.51585,387.16126L282.75588,387.16126
				L285.39622,387.16126L285.39622,387.40128L285.63625,387.40128L285.63625,387.64131L285.87628,387.64131L285.87628,387.88133
				L286.11631,387.88133L286.11631,388.12136L286.59637,388.12136L286.59637,388.36138L286.8364,388.36138L286.8364,388.60141L287.07643,388.60141
				L287.07643,388.84144L287.07643,389.08146L287.31646,389.08146L287.55649,389.08146L287.55649,389.32149L287.79652,389.32149
				L287.79652,389.56151L288.03655,389.56151L288.03655,390.04156L288.27658,390.04156L288.27658,390.28159L288.51661,390.28159
				L288.51661,390.52161L288.75664,390.52161L288.75664,390.76164L288.99668,390.76164L288.99668,391.00167L289.23671,391.00167
				L289.23671,391.24169L289.47674,391.24169L289.47674,391.48172L289.71677,391.48172L289.71677,391.72174L289.9568,391.72174L
				289.9568,391.96177L290.19683,391.96177L290.19683,392.20179L290.43686,392.20179L290.43686,392.44182L290.67689,392.44182L290.67689,392.68185
				L290.91692,392.68185L290.91692,392.92187L291.15695,392.92187L291.15695,393.1619L291.39698,393.1619L291.39698,393.40192L291.63701,393.40192
				L291.63701,393.64195L291.87704,393.64195L291.87704,393.88197L292.11707,393.88197L292.11707,394.122L292.3571,394.122L292.3571,394.36202
				L292.59713,394.36202L292.59713,394.60205L292.83716,394.60205L292.83716,394.84208L293.07719,394.84208L293.07719,395.0821L
				293.31722,395.0821L293.31722,395.32213L293.55725,395.32213L293.55725,395.56215L293.79728,395.56215L293.79728,395.80218L294.03731,395.80218
				L294.03731,396.0422L294.27735,396.0422L294.27735,396.28223L294.27735,398.92251L294.51738,398.92251L294.51738,399.16254L294.75741,399.16254
				L294.75741,399.40256L294.99744,399.40256L294.99744,399.64259L295.23747,399.64259L295.23747,399.88261L295.4775,399.88261L
				295.4775,400.12264L295.71753,400.12264L295.71753,400.36266L295.95756,400.36266L295.95756,400.60269L296.19759,400.60269L296.19759,400.84271
				L296.43762,400.84271L296.43762,401.08274L296.67765,401.08274L296.67765,401.32277L296.91768,401.32277L296.91768,401.56279
				L297.15771,401.56279L297.15771,401.80282L297.39774,401.80282L297.39774,402.04284L297.63777,402.04284L297.63777,402.28287
				L297.8778,402.28287L297.8778,402.52289L298.11783,402.52289L298.11783,402.76292L298.35786,402.76292L298.35786,404.4431L298.59789,404.4431
				L298.59789,404.68312L298.83792,404.68312L298.83792,404.92315L299.07795,404.92315L299.07795,405.16318L299.31798,405.16318
				L299.31798,405.4032L299.55802,405.4032L299.55802,405.64323L299.79805,405.64323L299.79805,405.88325L300.03808,405.88325L300.03808,406.12328
				L300.27811,406.12328L300.27811,406.3633L300.51814,406.3633L300.51814,406.60333L300.75817,406.60333L300.75817,406.84335L300.9982,406.84335
				L300.9982,407.08338L301.23823,407.08338L301.23823,407.32341L301.47826,407.32341L301.47826,407.56343L301.71829,407.56343L
				301.71829,407.80346L301.71829,408.04348L301.95832,408.04348L302.19835,408.04348L302.19835,408.28351L302.43838,408.28351L
				302.43838,408.52353L302.67841,408.52353L302.67841,408.76356L302.91844,408.76356L302.91844,409.00358L303.15847,409.00358L
				303.15847,409.24361L303.3985,409.24361L303.3985,409.48364L303.63853,409.48364L303.63853,409.72366L303.87856,409.72366L303.87856,409.96369
				L304.11859,409.96369L304.11859,410.20371L304.35862,410.20371L304.35862,410.44374L304.59865,410.44374L304.59865,410.68376
				L304.83869,410.68376L304.83869,410.92379L305.07872,410.92379L305.07872,411.16381L305.31875,411.16381L305.31875,411.40384
				L305.55878,411.40384L305.55878,411.64387L305.79881,411.64387L305.79881,411.88389L306.03884,411.88389L306.03884,412.12392
				L306.27887,412.12392L306.27887,412.36394L306.27887,412.60397L306.5189,412.60397L306.75893,412.60397L306.75893,412.84399L
				306.99896,412.84399L306.99896,413.08402L306.99896,424.84527L306.99896,426.0454L306.75893,426.0454L306.75893,427.24553L306.75893,440.92699
				L306.75893,441.16701L306.99896,441.16701L306.99896,441.40704L307.23899,441.40704L307.23899,444.52737L307.47902,444.52737
				L307.47902,444.7674L307.71905,444.7674L307.71905,445.00742L307.95908,445.00742L307.95908,445.24745L308.19911,445.24745L308.19911,445.48747
				L308.43914,445.48747L308.43914,445.7275L308.67917,445.7275L308.67917,445.96752L308.9192,445.96752L308.9192,446.20755L308.9192,446.44757
				L309.15923,446.44757L309.39926,446.44757L309.39926,446.6876L309.63929,446.6876L309.63929,446.92763L309.63929,447.16765L309.87933,447.16765
				L309.87933,447.40768L310.11936,447.40768L310.35939,447.40768L310.35939,447.6477L310.59942,447.6477L310.59942,447.88773L310.59942,448.12775
				L310.83945,448.12775L311.07948,448.12775L311.07948,448.36778L311.31951,448.36778L311.31951,448.6078L311.55954,448.6078L311.55954,448.84783
				L311.55954,449.08786L311.79957,449.08786L312.0396,449.08786L312.0396,449.32788L312.27963,449.32788L312.27963,449.56791L312.51966,449.56791
				L312.51966,449.80793L312.51966,450.04796L312.75969,450.04796L312.99972,450.04796L312.99972,450.28798L313.23975,450.28798
				L313.23975,450.52801L313.23975,450.76803L313.47978,450.76803L313.47978,451.00806L313.71981,451.00806L313.95984,451.00806
				L313.95984,451.24809L314.19987,451.24809L314.19987,451.48811L314.19987,451.72814L314.4399,451.72814L314.4399,451.96816L314.67993,451.96816
				L314.91996,451.96816L314.91996,452.20819L315.16,452.20819L315.16,452.44821L315.16,452.68824L315.40003,452.68824L315.64006,452.68824
				L315.64006,452.92826L315.88009,452.92826L315.88009,453.16829L316.12012,453.16829L316.12012,453.40832L316.12012,453.64834
				L316.36015,453.64834L316.60018,453.64834L316.60018,453.88837L316.84021,453.88837L316.84021,454.12839L317.08024,454.12839
				L317.08024,454.36842L317.08024,454.60844L317.32027,454.60844L317.5603,454.60844L317.5603,454.84847L317.80033,454.84847L317.80033,455.0885
				L317.80033,455.32852L318.04036,455.32852L318.04036,455.56855L318.28039,455.56855L318.52042,455.56855L318.52042,455.80857
				L318.76045,455.80857L318.76045,456.0486L318.76045,456.28862L319.00048,456.28862L319.00048,456.52865L319.24051,456.52865L
				319.48054,456.52865L319.48054,456.76867L319.72057,456.76867L319.72057,457.0087L319.72057,457.24873L319.9606,457.24873L320.20063,457.24873
				L320.20063,457.48875L320.44067,457.48875L320.44067,457.72878L320.6807,457.72878L320.6807,457.9688L320.6807,461.32916L320.92073,461.32916
				L320.92073,461.56919L321.16076,461.56919L321.16076,461.80921L321.40079,461.80921L321.40079,462.04924L321.64082,462.04924
				L321.64082,462.28926L321.88085,462.28926L321.88085,462.52929L322.12088,462.52929L322.12088,462.76931L322.36091,462.76931
				L322.36091,463.00934L322.60094,463.00934L322.60094,463.24936L322.60094,463.48939L322.84097,463.48939L323.081,463.48939L323.081,463.72942
				L323.32103,463.72942L323.32103,463.96944L323.56106,463.96944L323.56106,464.20947L323.80109,464.20947L323.80109,464.44949
				L324.04112,464.44949L324.04112,464.68952L324.28115,464.68952L324.28115,464.92954L324.52118,464.92954L324.52118,465.16957
				L324.76121,465.16957L324.76121,465.40959L325.00124,465.40959L325.00124,465.64962L325.24127,465.64962L325.24127,465.88965
				L325.48131,465.88965L325.48131,466.12967L325.72134,466.12967L325.72134,466.3697L325.72134,467.3298L325.48131,467.3298L325.48131,468.04988
				L325.24127,468.04988L325.24127,469.00998L325.24127,469.73006L325.00124,469.73006L325.00124,470.45013L325.00124,471.17021
				L324.28115,471.17021L324.28115,471.41023L322.84097,471.41023L322.12088,471.41023L322.12088,474.53057L321.88085,474.53057
				L321.88085,479.33108L321.64082,479.33108L321.64082,482.45141L321.40079,482.45141L321.40079,482.69144L321.16076,482.69144
				L320.92073,482.69144L320.92073,482.93146L320.6807,482.93146L320.44067,482.93146L320.44067,483.17149L320.20063,483.17149L
				319.72057,483.17149L319.72057,483.41151L319.48054,483.41151L319.48054,483.65154L319.24051,483.65154L319.00048,483.65154L
				319.00048,483.89156L318.76045,483.89156L318.52042,483.89156L318.52042,484.13159L318.04036,484.13159L317.80033,484.13159L
				317.80033,484.37162L317.5603,484.37162L317.5603,484.61164L317.32027,484.61164L316.84021,484.61164L316.60018,484.61164L316.60018,484.37162
				L316.12012,484.37162L316.12012,484.13159L315.88009,484.13159L315.64006,484.13159L315.64006,483.89156L315.16,483.89156L314.91996,483.89156
				L314.91996,483.65154L314.67993,483.65154L314.4399,483.65154L314.4399,483.41151L313.95984,483.41151L313.95984,483.17149L313.71981,483.17149
				L313.47978,483.17149L313.47978,482.93146L313.23975,482.93146L312.99972,482.93146L312.99972,482.69144L312.51966,482.69144
				L312.27963,482.69144L312.27963,482.45141L312.0396,482.45141L312.0396,482.21139L311.55954,482.21139L311.31951,482.21139L311.31951,481.97136
				L311.07948,481.97136L310.59942,481.97136L310.59942,481.73133L310.35939,481.73133L310.11936,481.73133L310.11936,481.49131
				L309.63929,481.49131L309.63929,481.25128L309.39926,481.25128L309.15923,481.25128L309.15923,481.01126L308.9192,481.01126L
				308.43914,481.01126L308.43914,480.77123L308.19911,480.77123L307.95908,480.77123L307.95908,480.53121L307.71905,480.53121L
				307.71905,480.29118L307.47902,480.29118L306.99896,480.29118L306.99896,480.05116L306.75893,480.05116L306.27887,480.05116L
				306.27887,479.81113L306.03884,479.81113L306.03884,479.5711L305.79881,479.5711L305.55878,479.5711L305.55878,480.05116L305.31875,480.05116
				L305.31875,480.29118L305.31875,480.77123L305.07872,480.77123L305.07872,481.01126L305.07872,481.49131L304.83869,481.49131
				L304.83869,481.73133L304.83869,482.21139L304.59865,482.21139L304.59865,482.69144L304.35862,482.69144L304.35862,482.93146
				L304.35862,483.17149L304.11859,483.17149L304.11859,483.65154L304.11859,483.89156L303.87856,483.89156L303.87856,484.37162
				L303.87856,484.85167L303.63853,484.85167L303.63853,485.09169L303.3985,485.09169L303.3985,485.57174L303.3985,485.81177L303.15847,485.81177
				L303.15847,486.29182L303.15847,486.53185L302.91844,486.53185L302.91844,486.77187L302.91844,487.25192L302.67841,487.25192
				L302.67841,487.49195L302.43838,487.49195L302.43838,487.972L302.43838,488.21202L302.19835,488.21202L302.19835,488.69208L302.19835,488.9321
				L301.95832,488.9321L301.95832,489.41215L301.71829,489.41215L301.71829,489.65218L301.71829,490.13223L301.47826,490.13223L
				301.47826,490.37225L301.47826,490.85231L301.23823,490.85231L301.23823,491.09233L300.75817,491.09233L300.51814,491.09233L
				300.51814,491.33236L300.27811,491.33236L299.79805,491.33236L299.79805,491.57238L299.55802,491.57238L299.55802,491.81241L
				299.31798,491.81241L298.83792,491.81241L298.83792,492.05243L298.59789,492.05243L298.59789,492.29246L298.35786,492.29246L
				298.35786,492.53249L298.35786,492.77251L297.8778,492.77251L297.8778,493.01254L297.63777,493.01254L297.63777,493.25256L297.15771,493.25256
				L297.15771,493.49259L296.91768,493.49259L296.91768,493.73261L296.67765,493.73261L296.19759,493.73261L296.19759,493.97264
				L295.95756,493.97264L295.95756,494.21266L295.71753,494.21266L295.71753,494.45269L294.75741,494.45269L293.31722,494.45269
				L293.31722,494.69272L291.63701,494.69272L290.19683,494.69272L290.19683,494.93274L289.9568,494.93274L289.9568,495.41279L290.19683,495.41279
				L290.19683,495.89284L290.19683,496.85295L290.43686,496.85295L290.43686,497.57302L290.43686,498.53312L290.67689,498.53312
				L290.67689,499.2532L290.67689,500.2133L290.91692,500.2133L290.91692,500.93338L291.15695,500.93338L291.15695,501.89348L291.15695,502.61356
				L291.39698,502.61356L291.39698,503.57366L291.39698,504.29374L291.39698,504.05371L291.15695,504.05371L291.15695,503.81369
				L290.91692,503.81369L290.91692,503.57366L290.43686,503.57366L290.43686,503.33364L290.19683,503.33364L290.19683,503.09361
				L289.71677,503.09361L289.71677,502.85359L289.47674,502.85359L288.99668,502.85359L288.99668,502.61356L288.75664,502.61356
				L288.27658,502.61356L288.27658,502.37353L288.03655,502.37353L288.03655,502.13351L287.79652,502.13351L287.55649,502.13351
				L287.55649,501.89348L287.31646,501.89348L286.8364,501.89348L286.8364,501.65346L286.59637,501.65346L286.59637,501.41343L286.35634,501.41343
				L286.11631,501.41343L286.11631,501.17341L285.87628,501.17341L285.63625,501.17341L285.63625,500.93338L285.15619,500.93338
				L284.91616,500.93338L284.91616,500.69335L284.4361,500.69335L284.4361,500.45333L284.19607,500.45333L284.19607,500.2133L283.95604,500.2133
				L283.47597,500.2133L283.47597,499.97328L283.23594,499.97328L282.99591,499.97328L282.99591,499.73325L282.75588,499.73325L
				282.75588,499.49323L282.51585,499.49323L282.27582,499.49323L282.27582,499.2532L282.03579,499.2532L281.55573,499.2532L281.55573,499.01318
				L281.3157,499.01318L281.07567,499.01318L281.07567,498.77315L280.83564,498.77315L280.83564,498.53312L280.59561,498.53312L
				280.35558,498.53312L280.35558,498.2931L279.87552,498.2931L279.63549,498.2931L279.63549,498.05307L279.39546,498.05307L279.15543,498.05307
				L279.15543,497.81305L278.9154,497.81305L278.9154,497.57302L278.67537,497.57302L278.1953,497.57302L278.1953,497.333L277.95527,497.333
				L277.71524,497.333L277.71524,497.09297L277.47521,497.09297L277.47521,496.85295L277.23518,496.85295L276.99515,496.85295L276.99515,496.61292
				L276.51509,496.61292L276.27506,496.61292L276.27506,496.37289L276.03503,496.37289L275.795,496.37289L275.795,496.13287L275.55497,496.13287
				L275.55497,495.89284L275.31494,495.89284L275.07491,495.89284L275.07491,495.65282L274.83488,495.65282L274.35482,495.65282
				L274.35482,495.41279L274.11479,495.41279L274.11479,495.17277L273.87476,495.17277L273.87476,494.93274L273.63473,494.93274
				L273.63473,494.45269L273.3947,494.45269L273.3947,494.21266L273.3947,493.73261L273.15466,493.73261L273.15466,493.49259L273.15466,493.25256
				L272.91463,493.25256L272.91463,492.77251L272.91463,492.53249L272.6746,492.53249L272.6746,492.05243L272.43457,492.05243L272.43457,491.81241
				L272.43457,491.57238L272.19454,491.57238L272.19454,491.09233L272.19454,490.85231L271.95451,490.85231L271.95451,490.37225
				L271.71448,490.37225L271.71448,490.13223L271.71448,489.8922L271.47445,489.8922L271.47445,489.41215L271.47445,489.17213L271.23442,489.17213
				L271.23442,488.9321L271.23442,488.45205L270.99439,488.45205L270.99439,488.21202L270.75436,488.21202L270.75436,487.73197L
				270.75436,487.49195L270.51433,487.49195L270.51433,487.25192L270.51433,486.77187L270.2743,486.77187L270.2743,486.53185L270.2743,486.29182
				L270.03427,486.29182L270.03427,485.81177L269.79424,485.81177L269.79424,485.57174L269.79424,485.33172L269.55421,485.33172
				L269.55421,484.85167L269.55421,484.61164L269.31418,484.61164L269.31418,484.13159L269.31418,483.89156L269.07415,483.89156
				L269.07415,483.65154L268.83412,483.65154L268.83412,483.17149L268.83412,482.93146L268.59409,482.93146L268.59409,482.69144
				L268.59409,482.21139L268.35406,482.21139L268.35406,481.97136L268.35406,481.73133L268.11402,481.73133L268.11402,481.25128
				L267.87399,481.25128L267.87399,481.01126L267.87399,480.53121L267.63396,480.53121L267.63396,480.29118L267.63396,480.05116
				L267.39393,480.05116L267.39393,479.5711L267.1539,479.5711L267.1539,479.33108L267.1539,478.85103L266.91387,478.85103L266.91387,478.611
				L266.91387,478.37098L266.67384,478.37098L266.67384,477.89092L266.67384,477.6509L266.43381,477.6509L266.43381,477.17085L266.19378,477.17085
				L266.19378,476.93082L266.19378,476.6908L265.95375,476.6908L265.95375,476.21075L265.95375,475.97072L265.71372,475.97072L265.71372,475.49067
				L265.71372,475.25064L265.47369,475.25064L265.47369,474.77059L265.23366,474.77059L265.23366,474.53057L265.23366,474.29054
				L264.99363,474.29054L264.99363,473.81049L264.99363,473.57046L264.7536,473.57046L264.7536,473.09041L264.7536,472.85039L264.51357,472.85039
				L264.51357,472.61036L264.27354,472.61036L264.27354,472.13031L264.27354,471.89029L264.03351,471.89029L264.03351,471.41023
				L264.03351,471.17021L263.79348,471.17021L263.79348,470.93018L263.55345,470.93018L263.55345,470.45013L263.55345,470.21011
				L263.31342,470.21011L263.31342,469.97008L263.31342,469.49003L263.07339,469.49003L263.07339,469.25L263.07339,469.00998L262.83335,469.00998
				L262.83335,468.52993L262.59332,468.52993L262.59332,468.2899L262.59332,468.04988L262.35329,468.04988L262.35329,467.56983L
				262.35329,467.3298L262.11326,467.3298L262.11326,459.16893L262.11326,450.28798L261.87323,450.28798L261.87323,449.80793L261.6332,449.80793
				L261.6332,449.32788L261.6332,449.08786"/>
			<path clip-path="url(#SVG_CP_2)" fill="none" stroke="#999999" stroke-width="0.96012" stroke-miterlimit="10" stroke-linecap="round" stroke-linejoin="round" d="
				M261.6332,449.08786L261.39317,449.08786L261.39317,448.6078L261.39317,448.36778L261.15314,448.36778L261.15314,448.12775L261.15314,447.6477
				L260.91311,447.6477L260.91311,447.40768L260.67308,447.40768L260.67308,446.92763L260.67308,446.44757L260.43305,446.44757L
				260.43305,445.96752L260.43305,445.7275L260.19302,445.7275L260.19302,445.48747L260.19302,445.00742L259.95299,445.00742L259.95299,444.7674
				L259.71296,444.7674L259.71296,444.28734L259.71296,443.80729L259.47293,443.80729L259.47293,443.56727L259.47293,443.08722L
				259.2329,443.08722L259.2329,441.40704L258.99287,441.40704L258.99287,440.92699L258.99287,440.44693L258.75284,440.44693L258.75284,439.96688
				L258.75284,439.48683L258.51281,439.48683L258.51281,439.24681L258.51281,438.52673L258.27278,438.52673L258.27278,438.04668
				L258.03275,438.04668L258.03275,437.56663L258.03275,437.3266L257.79272,437.3266L257.79272,436.60653L257.79272,436.12647L257.55268,436.12647
				L257.55268,435.64642L257.55268,435.4064L257.31265,435.4064L257.31265,434.68632L257.07262,434.68632L257.07262,434.4463L257.07262,433.96624
				L256.83259,433.96624L256.83259,433.48619L256.83259,432.52609L256.59256,432.52609L256.59256,431.08594L256.59256,430.84591
				L256.35253,430.84591L256.35253,430.60589L256.1125,430.60589L256.1125,430.36586L256.1125,430.12584L255.87247,430.12584L255.87247,429.88581
				L255.87247,429.64578L255.63244,429.64578L255.63244,429.40576L255.63244,429.16573L255.39241,429.16573L255.39241,428.68568
				L255.15238,428.68568L255.15238,428.44566L255.15238,428.20563L254.91235,428.20563L254.91235,426.52545L254.67232,426.52545
				L254.67232,425.56535L254.43229,425.56535L254.43229,424.36522L254.43229,423.64514L254.19226,423.64514L254.19226,422.92507
				L254.19226,422.20499L253.95223,422.20499L253.95223,419.80474L253.95223,417.64451L253.7122,417.64451L253.7122,416.44438L253.47217,416.44438
				L253.47217,415.48427L253.47217,414.28415L253.23214,414.28415L253.23214,394.36202L253.47217,394.36202L253.47217,393.88197
				L253.47217,392.92187L253.7122,392.92187L253.47217,392.92187L253.47217,391.72174L253.47217,390.76164L253.23214,390.76164L
				253.23214,388.84144L253.23214,388.12136L252.99211,388.12136L252.99211,387.88133L252.99211,387.64131L252.75208,387.64131L
				252.51205,387.64131L252.51205,387.40128L252.51205,387.16126L252.27201,387.16126L252.27201,386.92123L252.03198,386.92123L
				252.03198,386.68121L251.79195,386.68121L251.79195,386.44118L251.55192,386.44118L251.55192,386.20115L251.31189,386.20115L
				251.31189,385.96113L251.07186,385.96113L250.83183,385.96113L250.83183,385.7211L250.5918,385.7211L250.5918,385.48108L250.35177,385.48108
				L250.35177,385.24105L250.35177,385.00103L250.11174,385.00103L249.87171,385.00103L249.87171,384.761L249.63168,384.761L249.63168,384.52098
				L249.39165,384.52098L249.39165,384.28095L249.39165,384.04092L249.15162,384.04092L248.91159,384.04092L248.91159,383.8009L
				248.91159,383.56087L248.67156,383.56087L248.67156,383.32085L248.67156,383.08082L248.43153,383.08082L248.43153,382.8408L248.43153,382.60077
				L248.1915,382.60077L247.95147,382.60077L247.95147,382.12072L247.95147,381.88069L247.71144,381.88069L247.71144,381.64067L
				247.71144,381.40064L247.47141,381.40064L247.47141,381.16062L247.47141,380.92059L247.23137,380.92059L247.23137,380.44054L
				246.99134,380.44054L246.99134,380.20051L246.99134,379.96049L246.75131,379.96049L246.75131,379.72046L246.75131,379.24041L
				246.51128,379.24041L246.27125,379.24041L246.27125,379.00039L246.27125,378.52034L246.03122,378.52034L246.03122,378.28031L
				245.79119,378.28031L245.79119,378.04028L245.55116,378.04028L245.31113,378.04028L245.31113,377.80026L245.31113,377.56023L
				245.0711,377.56023L245.0711,377.32021L244.83107,377.32021L244.83107,377.08018L244.59104,377.08018L244.59104,376.84016L244.35101,376.84016
				L244.35101,376.60013L244.11098,376.60013L244.11098,376.36011L244.11098,375.88005L243.87095,375.88005L243.87095,375.64003
				L243.87095,375.4L243.63092,375.4L243.63092,375.15998L243.39089,375.15998L243.39089,374.91995L243.39089,374.67993L243.15086,374.67993
				L243.15086,374.4399L243.15086,373.95985L242.91083,373.95985L242.91083,373.71982L242.91083,373.23977L242.6708,373.23977L242.6708,372.99975
				L242.43077,372.99975L242.43077,372.5197L242.43077,372.03965L242.19074,372.03965L242.19074,371.79962L242.19074,371.55959L
				241.9507,371.55959L241.9507,371.31957L241.71067,371.31957L241.71067,371.07954L241.47064,371.07954L241.47064,370.83952L241.23061,370.83952
				L241.23061,370.59949L240.75055,370.59949L240.75055,370.35947L240.51052,370.35947L240.51052,370.11944L240.27049,370.11944
				L240.27049,369.87942L240.03046,369.87942L240.03046,369.63939L239.79043,369.63939L239.79043,369.39936L239.5504,369.39936L
				239.5504,369.15934L239.31037,369.15934L239.31037,368.91931L239.07034,368.91931L239.07034,368.67929L238.83031,368.67929L238.83031,368.43926
				L238.59028,368.43926L238.59028,368.19924L238.35025,368.19924L238.11022,368.19924L238.11022,367.95921L237.87019,367.95921
				L237.87019,367.71918L237.63016,367.71918L237.63016,367.47916L237.39013,367.47916L237.39013,367.23913L237.1501,367.23913L
				237.1501,366.99911L236.91007,366.99911L236.91007,366.75908"/>
		</g>
</g></svg>