<?xml version="1.0" encoding="utf-8" standalone="no"?>
<!-- Creator: ESRI ArcMap 10.0.0.2414 -->
<!DOCTYPE svg PUBLIC "-//W3C//DTD SVG 1.1//EN"  "http://www.w3.org/Graphics/SVG/1.1/DTD/svg11.dtd">
<svg width="595.50236pt" height="595.50236pt" viewBox="25 148.377955 545.50236 545.50236" enable-background="new 25 148.377955 545.50236 545.50236"
	version="1.1" xmlns="http://www.w3.org/2000/svg" xmlns:xlink="http://www.w3.org/1999/xlink" >
	<g id="Couches">
		<g id="cont_1">
			<clipPath id="SVG_CP_2">
				<path d="M574.39289,21.36228L21.36271,21.36228L21.36271,821.36753L574.39289,821.36753L574.39289,21.36228z"/>
			</clipPath>
			<path clip-path="url(#SVG_CP_2)" fill="none" stroke="#999999" stroke-width="0.96012" stroke-miterlimit="10" stroke-linecap="round" stroke-linejoin="round" d="
				M346.84402,463.00934L346.84402,452.20819L346.12392,452.20819L346.12392,450.76803L345.40383,450.76803L345.40383,450.04796
				L344.68374,450.04796L344.68374,449.32788L343.96365,449.32788L343.96365,448.6078L343.24356,448.6078L343.24356,447.88773L342.52347,447.88773
				L342.52347,447.16765L341.80338,447.16765L341.80338,446.44757L341.08328,446.44757L341.08328,445.7275L340.36319,445.7275L340.36319,445.00742
				L339.6431,445.00742L339.6431,444.28734L338.92301,444.28734L338.92301,443.56727L338.20292,443.56727L338.20292,442.84719L337.48283,442.84719
				L337.48283,442.12711L336.76274,442.12711L336.76274,441.40704L336.04265,441.40704L336.04265,439.96688L335.32255,439.96688
				L335.32255,439.24681L334.60246,439.24681L334.60246,438.52673L333.88237,438.52673L333.88237,437.80665L333.16228,437.80665
				L333.16228,437.08658L332.44219,437.08658L332.44219,436.3665L331.7221,436.3665L331.7221,435.64642L331.00201,435.64642L331.00201,434.92635
				L330.28191,434.92635L330.28191,434.20627L329.56182,434.20627L329.56182,433.48619L328.84173,433.48619L328.84173,432.76612
				L328.12164,432.76612L328.12164,432.04604L327.40155,432.04604L327.40155,431.32596L326.68146,431.32596L326.68146,430.60589
				L325.96137,430.60589L325.96137,429.88581L325.24127,429.88581L325.24127,429.16573L324.52118,429.16573L324.52118,428.44566
				L323.80109,428.44566L323.80109,427.72558L323.081,427.72558L323.081,427.0055L322.36091,427.0055L322.36091,426.28543L321.64082,426.28543
				L321.64082,425.56535L320.92073,425.56535L320.92073,424.84527L320.20063,424.84527L320.20063,423.88517L319.48054,423.88517
				L319.48054,423.16509L318.76045,423.16509L318.76045,422.44502L318.04036,422.44502L318.04036,421.72494L317.32027,421.72494
				L317.32027,421.00486L316.60018,421.00486L316.60018,420.28479L315.88009,420.28479L315.88009,419.56471L315.16,419.56471L315.16,418.84463
				L314.4399,418.84463L314.4399,418.12456L313.71981,418.12456L313.71981,417.40448L312.99972,417.40448L312.99972,416.6844L312.27963,416.6844
				L312.27963,415.96433L311.55954,415.96433L311.55954,415.24425L310.83945,415.24425L310.83945,414.52417L310.11936,414.52417
				L310.11936,413.8041L309.39926,413.8041L309.39926,413.08402L308.67917,413.08402L308.67917,412.36394L307.95908,412.36394L307.95908,411.64387
				L307.23899,411.64387L307.23899,410.92379L306.5189,410.92379L306.5189,410.20371L305.79881,410.20371L305.79881,409.48364L305.07872,409.48364
				L305.07872,408.76356L304.35862,408.76356L304.35862,408.04348L303.63853,408.04348L303.63853,407.32341L302.91844,407.32341
				L302.91844,406.60333L302.19835,406.60333L302.19835,405.88325L301.47826,405.88325L301.47826,405.16318L300.75817,405.16318
				L300.75817,404.4431L300.03808,404.4431L300.03808,403.72302L299.31798,403.72302L299.31798,403.00294L298.59789,403.00294L298.59789,402.28287
				L297.8778,402.28287L297.8778,401.56279L297.15771,401.56279L297.15771,400.84271L296.43762,400.84271L296.43762,400.12264L295.71753,400.12264
				L295.71753,399.40256L294.99744,399.40256L294.99744,398.68248L294.27735,398.68248L294.27735,397.96241L293.55725,397.96241
				L293.55725,397.24233L292.83716,397.24233L292.83716,396.52225L292.11707,396.52225L292.11707,395.80218L291.39698,395.80218
				L291.39698,395.0821L290.67689,395.0821L290.67689,394.36202L289.9568,394.36202L289.9568,393.64195L289.23671,393.64195L289.23671,392.92187
				L288.51661,392.92187L288.51661,392.20179L287.79652,392.20179L287.79652,391.48172L287.07643,391.48172L287.07643,390.76164
				L286.35634,390.76164L286.35634,390.04156L285.63625,390.04156L285.63625,389.32149L284.91616,389.32149L284.91616,388.60141
				L284.19607,388.60141L284.19607,387.88133L283.47597,387.88133L283.47597,387.16126L282.75588,387.16126L282.75588,386.44118
				L282.03579,386.44118L282.03579,385.7211L281.3157,385.7211L281.3157,385.00103L280.59561,385.00103L280.59561,384.28095L279.87552,384.28095
				L279.87552,382.8408L279.15543,382.8408L279.15543,382.12072L278.43533,382.12072L278.43533,381.40064L277.71524,381.40064L277.71524,380.68057
				L276.99515,380.68057L276.99515,379.24041L276.27506,379.24041L276.27506,374.19988L275.55497,374.19988L275.55497,373.4798L
				274.83488,373.4798L274.83488,372.75972L274.11479,372.75972L274.11479,372.03965L273.3947,372.03965L273.3947,371.31957L272.6746,371.31957
				L272.6746,370.59949L271.71448,370.59949L271.71448,369.87942L270.99439,369.87942L270.99439,369.15934L270.2743,369.15934L270.2743,368.43926
				L269.55421,368.43926L269.55421,367.71918L268.83412,367.71918L268.83412,366.99911L268.11402,366.99911L268.11402,366.27903
				L267.39393,366.27903L267.39393,365.55895L266.67384,365.55895L266.67384,364.83888L265.95375,364.83888L265.95375,364.1188L
				265.23366,364.1188L265.23366,363.39872L264.51357,363.39872L264.51357,362.67865L263.79348,362.67865L263.79348,361.95857L263.07339,361.95857
				L263.07339,361.23849L262.35329,361.23849L262.35329,360.51842L261.6332,360.51842L261.6332,359.79834L260.91311,359.79834L260.91311,359.07826
				L260.19302,359.07826L260.19302,358.35819L259.47293,358.35819L259.47293,357.63811L258.75284,357.63811L258.75284,356.91803
				L258.03275,356.91803L258.03275,356.19796L257.31265,356.19796L257.31265,355.47788L256.59256,355.47788L256.59256,354.7578L
				255.87247,354.7578L255.87247,354.03773L255.15238,354.03773L255.15238,353.31765L254.43229,353.31765L254.43229,352.59757L253.7122,352.59757
				L253.7122,351.8775L252.99211,351.8775L252.99211,351.15742L252.27201,351.15742L252.27201,350.43734L251.55192,350.43734L251.55192,349.71727
				L250.83183,349.71727L250.83183,348.99719L250.11174,348.99719L250.11174,348.27711L249.39165,348.27711L249.39165,347.55704
				L248.67156,347.55704L248.67156,346.83696L247.95147,346.83696L247.95147,346.11688L248.67156,346.11688L248.67156,345.39681
				L250.11174,345.39681L250.11174,344.67673L250.83183,344.67673L250.83183,343.95665L252.27201,343.95665L252.27201,343.23658
				L253.7122,343.23658L253.7122,342.5165L254.43229,342.5165L254.43229,341.79642L255.87247,341.79642L255.87247,341.07635L256.59256,341.07635
				L256.59256,340.35627L258.03275,340.35627L258.03275,339.63619L259.47293,339.63619L259.47293,338.91612L260.19302,338.91612
				L260.19302,338.19604L261.6332,338.19604L261.6332,337.23594L262.35329,337.23594L262.35329,336.51586L263.07339,336.51586L263.07339,335.79578
				L264.51357,335.79578L264.51357,335.07571L265.23366,335.07571L265.23366,334.35563L265.95375,334.35563L265.95375,333.63555
				L267.39393,333.63555L267.39393,332.91548L268.11402,332.91548L268.11402,332.1954L269.55421,332.1954L269.55421,331.47532L270.2743,331.47532
				L270.2743,330.75525L270.99439,330.75525L270.99439,330.03517L272.6746,330.03517L272.6746,329.31509L273.3947,329.31509L273.3947,328.59502
				L274.11479,328.59502L274.11479,327.87494L275.55497,327.87494L275.55497,327.15486L276.27506,327.15486L276.27506,326.43479
				L276.99515,326.43479L276.99515,325.71471L278.43533,325.71471L278.43533,324.99463L279.15543,324.99463L279.15543,324.27456
				L279.87552,324.27456L279.87552,323.55448L281.3157,323.55448L281.3157,322.8344L282.03579,322.8344L282.03579,322.11433L282.75588,322.11433
				L282.75588,321.39425L284.19607,321.39425L284.19607,320.67417L284.91616,320.67417L284.91616,319.9541L285.63625,319.9541L285.63625,319.23402
				L287.07643,319.23402L287.07643,318.51394L287.79652,318.51394L287.79652,317.79386L288.51661,317.79386L288.51661,317.07379
				L289.9568,317.07379L289.9568,316.35371L290.67689,316.35371L290.67689,315.63363L291.39698,315.63363L291.39698,314.91356L292.83716,314.91356
				L292.83716,314.19348L293.55725,314.19348L293.55725,313.4734L294.27735,313.4734L294.27735,312.75333L295.71753,312.75333L295.71753,312.03325
				L296.43762,312.03325L296.43762,311.31317L297.15771,311.31317L297.15771,310.5931L298.59789,310.5931L298.59789,309.87302L299.31798,309.87302
				L299.31798,309.15294L300.03808,309.15294L300.03808,308.43287L301.47826,308.43287L301.47826,307.71279L302.19835,307.71279
				L302.19835,306.99271L302.91844,306.99271L302.91844,306.27264L304.35862,306.27264L304.35862,305.55256L305.07872,305.55256
				L305.07872,304.83248L305.79881,304.83248L305.79881,304.11241L307.23899,304.11241L307.23899,303.39233L307.95908,303.39233
				L307.95908,302.67225L308.67917,302.67225L308.67917,301.95218L310.11936,301.95218L310.11936,301.2321L310.83945,301.2321L310.83945,300.51202
				L311.55954,300.51202L311.55954,299.79195L312.99972,299.79195L312.99972,299.07187L313.71981,299.07187L313.71981,294.75141
				L312.99972,294.75141L312.99972,291.15103L312.27963,291.15103L312.27963,290.43095L305.79881,290.43095L305.79881,289.71087
				L303.63853,289.71087L303.63853,288.9908L302.91844,288.9908L302.91844,287.55064L302.19835,287.55064L302.19835,286.83057L301.47826,286.83057
				L301.47826,286.11049L300.75817,286.11049L300.75817,285.39041L300.03808,285.39041L300.03808,284.67034L299.31798,284.67034
				L299.31798,283.23018L298.59789,283.23018L298.59789,282.51011L297.8778,282.51011L297.8778,281.79003L297.15771,281.79003L297.15771,281.06995
				L296.43762,281.06995L296.43762,280.34987L295.71753,280.34987L295.71753,278.90972L294.99744,278.90972L294.99744,278.18964
				L293.55725,278.18964L293.55725,277.46957L286.35634,277.46957L286.35634,276.74949L285.63625,276.74949L285.63625,276.02941
				L284.91616,276.02941L284.91616,275.30934L283.47597,275.30934L283.47597,274.58926L282.75588,274.58926L282.75588,273.86918
				L282.03579,273.86918L282.03579,273.14911L281.3157,273.14911L281.3157,272.42903L280.59561,272.42903L280.59561,271.70895L279.87552,271.70895
				L279.87552,270.98888L278.43533,270.98888L278.43533,270.2688L276.99515,270.2688L276.99515,269.54872L275.55497,269.54872L275.55497,260.18773
				L276.27506,260.18773L276.27506,259.46765L276.99515,259.46765L276.99515,258.0275L277.71524,258.0275L277.71524,257.30742L278.43533,257.30742
				L278.43533,256.58734L279.15543,256.58734L279.15543,255.14719L279.87552,255.14719L279.87552,254.42711L280.59561,254.42711
				L280.59561,253.70704L281.3157,253.70704L281.3157,252.98696L282.03579,252.98696L282.03579,252.26688L287.07643,252.26688L287.07643,252.98696
				L289.23671,252.98696L289.23671,252.26688L289.9568,252.26688L289.9568,251.54681L290.67689,251.54681L290.67689,250.82673L292.11707,250.82673
				L292.11707,249.86663L292.83716,249.86663L292.83716,249.14655L293.55725,249.14655L293.55725,248.42647L294.27735,248.42647
				L294.27735,247.7064L294.99744,247.7064L294.99744,246.98632L295.71753,246.98632L295.71753,246.26624L297.15771,246.26624L297.15771,245.54617
				L297.8778,245.54617L297.8778,244.82609L298.59789,244.82609L298.59789,244.10601L299.31798,244.10601L299.31798,243.38594L300.03808,243.38594
				L300.03808,242.66586L301.47826,242.66586L301.47826,241.94578L302.19835,241.94578L302.19835,241.22571L302.91844,241.22571
				L302.91844,240.50563L303.63853,240.50563L303.63853,239.78555L304.35862,239.78555L304.35862,239.06548L305.79881,239.06548
				L305.79881,238.3454L306.5189,238.3454L306.5189,237.62532L307.23899,237.62532L307.23899,236.90525L307.95908,236.90525L307.95908,236.18517
				L308.67917,236.18517L308.67917,235.46509L309.39926,235.46509L309.39926,234.74502L310.83945,234.74502L310.83945,234.02494
				L311.55954,234.02494L311.55954,233.30486L312.27963,233.30486L312.27963,232.58478L312.99972,232.58478L312.99972,231.86471
				L313.71981,231.86471L313.71981,231.14463L315.16,231.14463L315.16,230.42455L315.88009,230.42455L315.88009,229.70448L316.60018,229.70448
				L316.60018,228.9844L317.32027,228.9844L317.32027,228.26432L318.04036,228.26432L318.04036,227.54425L318.76045,227.54425L318.76045,226.82417
				L320.20063,226.82417L320.20063,226.10409L320.92073,226.10409L320.92073,225.38402L321.64082,225.38402L321.64082,224.66394
				L323.081,224.66394L323.081,223.94386L323.80109,223.94386L323.80109,223.22379L325.24127,223.22379L325.24127,222.50371L326.68146,222.50371
				L326.68146,221.78363L327.40155,221.78363L327.40155,221.06356L328.84173,221.06356L328.84173,220.34348L330.28191,220.34348
				L330.28191,219.6234L331.00201,219.6234L331.00201,218.90333L332.44219,218.90333L332.44219,218.18325L333.88237,218.18325L333.88237,218.90333
				L334.60246,218.90333L334.60246,219.6234L335.32255,219.6234L335.32255,221.06356L336.04265,221.06356L336.04265,222.50371L336.76274,222.50371
				L336.76274,223.22379L337.48283,223.22379L337.48283,224.66394L338.20292,224.66394L338.20292,226.10409L338.92301,226.10409
				L338.92301,226.82417L339.6431,226.82417L339.6431,228.26432L340.36319,228.26432L340.36319,228.9844L341.08328,228.9844L341.08328,230.42455
				L341.80338,230.42455L341.80338,231.86471L342.52347,231.86471L342.52347,232.58478L343.24356,232.58478L343.24356,234.02494
				L343.96365,234.02494L343.96365,234.74502L344.68374,234.74502L344.68374,236.18517L345.40383,236.18517L345.40383,237.62532
				L346.12392,237.62532L346.12392,238.3454L346.84402,238.3454L346.84402,239.78555L347.56411,239.78555L347.56411,240.50563L348.2842,240.50563
				L348.2842,241.22571L349.00429,241.22571L349.00429,241.94578L349.72438,241.94578L349.72438,242.66586L350.44447,242.66586L
				350.44447,243.38594L351.16456,243.38594L351.16456,244.10601L351.88466,244.10601L351.88466,244.82609L352.60475,244.82609L
				352.60475,245.54617L356.2052,245.54617L356.2052,246.26624L360.76578,246.26624L360.76578,246.98632L365.80642,246.98632L365.80642,247.7064
				L370.12697,247.7064L370.12697,248.42647L375.16761,248.42647L375.16761,249.14655L379.48816,249.14655L379.48816,249.86663L
				381.64843,249.86663L381.64843,249.14655L383.80871,249.14655L383.80871,248.42647L385.96898,248.42647L385.96898,247.7064L387.40916,247.7064
				L387.40916,246.98632L389.56944,246.98632L389.56944,246.26624L391.72971,246.26624L391.72971,245.54617L392.4498,245.54617L
				392.4498,244.82609L393.88999,244.82609L393.88999,244.10601L394.61008,244.10601L394.61008,243.38594L395.33017,243.38594L395.33017,242.66586
				L396.77035,242.66586L396.77035,241.94578L397.49044,241.94578L397.49044,241.22571L398.93063,241.22571L398.93063,240.50563
				L399.65072,240.50563L399.65072,239.78555L401.0909,239.78555L401.0909,239.06548L401.81099,239.06548L401.81099,238.3454L403.25117,238.3454
				L403.25117,237.62532L403.97127,237.62532L403.97127,236.90525L405.41145,236.90525L405.41145,236.18517L406.13154,236.18517
				L406.13154,235.46509L406.85163,235.46509L406.85163,234.74502L407.57172,234.74502L407.57172,234.02494L408.29181,234.02494
				L408.29181,233.30486L409.01191,233.30486L409.01191,232.58478L409.732,232.58478L409.732,231.86471L410.45209,231.86471L410.45209,231.14463
				L411.17218,231.14463L411.17218,230.42455L411.89227,230.42455L411.89227,228.9844L412.61236,228.9844L412.61236,228.26432L413.33245,228.26432
				L413.33245,227.54425L414.05254,227.54425L414.05254,226.82417L414.77264,226.82417L414.77264,226.10409L415.49273,226.10409
				L415.49273,225.38402L416.21282,225.38402L416.21282,223.94386L416.93291,223.94386L416.93291,223.22379L417.653,223.22379L417.653,222.50371
				L418.37309,222.50371L418.37309,221.78363L419.09318,221.78363L419.09318,221.06356L419.81328,221.06356L419.81328,220.34348
				L420.53337,220.34348L420.53337,218.90333L421.25346,218.90333L421.25346,218.18325L421.97355,218.18325L421.97355,217.46317
				L422.69364,217.46317L422.69364,216.7431L423.41373,216.7431L423.41373,216.02302L424.13382,216.02302L424.13382,215.30294L424.85392,215.30294
				L424.85392,213.86279L425.57401,213.86279L425.57401,213.14271L426.2941,213.14271L426.2941,212.42264L427.01419,212.42264L427.01419,211.70256
				L427.73428,211.70256L427.73428,210.98248L428.45437,210.98248L428.45437,210.26241L429.17446,210.26241L429.17446,209.54233
				L430.61465,209.54233L430.61465,208.82225L431.33474,208.82225L431.33474,208.10218L432.77492,208.10218L432.77492,207.3821L
				433.49501,207.3821L433.49501,206.66202L434.9352,206.66202L434.9352,205.94195L436.37538,205.94195L436.37538,205.22187L437.09547,205.22187
				L437.09547,204.50179L438.53565,204.50179L438.53565,203.78172L439.97583,203.78172L439.97583,203.06164L440.69593,203.06164
				L440.69593,202.34156L442.13611,202.34156L442.13611,201.62149L442.8562,201.62149L442.8562,200.18133L443.57629,200.18133L443.57629,198.74118
				L444.29638,198.74118L444.29638,198.0211L445.01647,198.0211L445.01647,196.58095L445.73657,196.58095L445.73657,195.14079L446.69669,195.14079
				L446.69669,193.70064L447.41678,193.70064L447.41678,192.26049L448.13687,192.26049L448.13687,190.82033L448.85696,190.82033
				L448.85696,190.10026L449.57705,190.10026L449.57705,188.6601L450.29714,188.6601L450.29714,187.21995L451.01724,187.21995L451.01724,185.7798
				L451.73733,185.7798L451.73733,184.33964L452.45742,184.33964L452.45742,182.89949L453.17751,182.89949L453.17751,181.45934L
				453.8976,181.45934L453.8976,179.29911L454.61769,179.29911L454.61769,177.85895L455.33778,177.85895L455.33778,175.69872L456.05788,175.69872
				L456.05788,174.25857L456.77797,174.25857L456.77797,172.09834L457.49806,172.09834L457.49806,170.65819L458.21815,170.65819
				L458.21815,168.49796L458.93824,168.49796L458.93824,166.33773L459.65833,166.33773L459.65833,164.89757L460.37842,164.89757
				L460.37842,162.49732L461.09852,162.49732L461.09852,161.05716L461.81861,161.05716L461.81861,158.89693L462.5387,158.89693L
				462.5387,157.45678L463.25879,157.45678L463.25879,155.29655L463.97888,155.29655L463.97888,153.8564L464.69897,153.8564L464.69897,151.69617
				L465.41906,151.69617L465.41906,150.25601L466.13915,150.25601L466.13915,148.09578L466.85925,148.09578L466.85925,146.65563
				L467.57934,146.65563L467.57934,144.4954L468.29943,144.4954L468.29943,143.05524L469.01952,143.05524L469.01952,143.77532L469.73961,143.77532
				L469.73961,144.4954L470.4597,144.4954L470.4597,145.21547L471.17979,145.21547L471.17979,145.93555L471.89989,145.93555L471.89989,146.65563
				L472.61998,146.65563L472.61998,147.3757L473.34007,147.3757L473.34007,148.09578L474.06016,148.09578L474.06016,148.81586L474.78025,148.81586
				L474.78025,149.53594L475.50034,149.53594L475.50034,150.25601L476.22043,150.25601L476.22043,150.97609L476.94053,150.97609
				L476.94053,151.69617L477.66062,151.69617L477.66062,152.41624L478.38071,152.41624L478.38071,153.13632L479.1008,153.13632L
				479.1008,153.8564L479.82089,153.8564L479.82089,154.57647L480.54098,154.57647L480.54098,155.29655L481.98117,155.29655L481.98117,154.57647
				L482.70126,154.57647L482.70126,153.8564L483.42135,153.8564L483.42135,153.13632L484.14144,153.13632L484.14144,152.41624L484.86153,152.41624
				L484.86153,151.69617L485.58162,151.69617L485.58162,150.97609L486.30171,150.97609L486.30171,150.25601L487.0218,150.25601L
				487.0218,149.53594L487.7419,149.53594L487.7419,148.81586L488.46199,148.81586L488.46199,148.09578L489.18208,148.09578L489.18208,147.3757
				L489.90217,147.3757L489.90217,146.65563L490.62226,146.65563L490.62226,145.93555L491.34235,145.93555L491.34235,145.21547L
				492.06244,145.21547L492.06244,144.4954L492.78254,144.4954L492.78254,143.77532L493.50263,143.77532L493.50263,143.05524L494.22272,143.05524
				L494.22272,142.33517L494.94281,142.33517L494.94281,141.61509L495.6629,141.61509L495.6629,140.89501L496.38299,140.89501L496.38299,140.17494
				L497.10308,140.17494L497.10308,139.45486L497.82318,139.45486L497.82318,138.73478L499.26336,138.73478L499.26336,139.45486
				L499.98345,139.45486L499.98345,140.17494L500.70354,140.17494L500.70354,140.89501L501.42363,140.89501L501.42363,141.61509
				L502.14372,141.61509L502.14372,142.33517L503.58391,142.33517L503.58391,143.05524L504.304,143.05524L504.304,143.77532L505.02409,143.77532
				L505.02409,144.4954L505.74418,144.4954L505.74418,145.21547L506.46427,145.21547L506.46427,145.93555L507.18436,145.93555L507.18436,146.65563
				L507.90446,146.65563L507.90446,147.3757L508.62455,147.3757L508.62455,148.09578L510.06473,148.09578L510.06473,148.81586L510.78482,148.81586
				L510.78482,149.53594L511.50491,149.53594L511.50491,150.25601L512.225,150.25601L512.225,150.97609L512.94509,150.97609L512.94509,151.69617
				L513.66519,151.69617L513.66519,152.41624L514.38528,152.41624L514.38528,151.69617L515.10537,151.69617L515.10537,150.97609
				L515.82546,150.97609L515.82546,149.53594L516.54555,149.53594L516.54555,148.81586L517.26564,148.81586L517.26564,147.3757L
				517.98573,147.3757L517.98573,146.65563L518.70583,146.65563L518.70583,145.21547L519.42592,145.21547L519.42592,144.4954L520.14601,144.4954
				L520.14601,143.05524L520.8661,143.05524L520.8661,142.33517L521.58619,142.33517L521.58619,140.89501L522.30628,140.89501L522.30628,140.17494
				L523.02637,140.17494L523.02637,139.45486L523.74647,139.45486L523.74647,140.17494L524.46656,140.17494L524.46656,140.89501
				L525.18665,140.89501L525.18665,141.61509L525.90674,141.61509L525.90674,142.33517L526.62683,142.33517L526.62683,143.05524
				L527.34692,143.05524L527.34692,143.77532L528.06701,143.77532L528.06701,144.4954L528.78711,144.4954L528.78711,145.21547L529.5072,145.21547
				L529.5072,145.93555L530.94738,145.93555L530.94738,144.4954L531.66747,144.4954L531.66747,143.77532L532.38756,143.77532L532.38756,142.33517
				L533.34768,142.33517L533.34768,141.61509L534.06778,141.61509L534.06778,140.17494L534.78787,140.17494L534.78787,139.45486
				L535.50796,139.45486L535.50796,138.01471L536.22805,138.01471L536.22805,137.29463"/>
			<path clip-path="url(#SVG_CP_2)" fill="none" stroke="#999999" stroke-width="0.96012" stroke-miterlimit="10" stroke-linecap="round" stroke-linejoin="round" d="
				M536.22805,137.29463L536.94814,137.29463L536.94814,135.85448L537.66823,135.85448L537.66823,135.1344L538.38832,135.1344L538.38832,133.69425
				L539.10841,133.69425L539.10841,132.97417L539.82851,132.97417L539.82851,131.53402L540.5486,131.53402L540.5486,130.81394L541.26869,130.81394
				L541.26869,130.09386L541.98878,130.09386L541.98878,128.65371L542.70887,128.65371L542.70887,127.93363L543.42896,127.93363
				L543.42896,126.49348L544.14905,126.49348L544.14905,125.7734L544.86915,125.7734L544.86915,124.33325L545.58924,124.33325L545.58924,123.61317
				L546.30933,123.61317L546.30933,122.8931L547.02942,122.8931L547.02942,122.17302L547.74951,122.17302L547.74951,120.73287L548.4696,120.73287
				L548.4696,120.01279L549.18969,120.01279L549.18969,119.29271L549.90979,119.29271L549.90979,118.57264L550.62988,118.57264L
				550.62988,117.85256L551.34997,117.85256L551.34997,117.13248L552.07006,117.13248L552.07006,116.41241L552.79015,116.41241L
				552.79015,114.97225L553.51024,114.97225L553.51024,114.25218L554.23033,114.25218L554.23033,113.5321L554.95043,113.5321L554.95043,112.81202
				L555.67052,112.81202L555.67052,112.09195L556.39061,112.09195L556.39061,111.37187L557.1107,111.37187L557.1107,110.65179L557.83079,110.65179
				L557.83079,109.21164L558.55088,109.21164L558.55088,108.49156L559.27097,108.49156L559.27097,107.77148L559.99106,107.77148
				L559.99106,107.05141L560.71116,107.05141L560.71116,106.33133L561.43125,106.33133L561.43125,105.61125L562.15134,105.61125
				L562.15134,104.89118L562.87143,104.89118L562.87143,103.45102L563.59152,103.45102L563.59152,102.73095L564.31161,102.73095
				L564.31161,102.01087L565.0317,102.01087L565.0317,101.29079L565.7518,101.29079L565.7518,100.57072L566.47189,100.57072L566.47189,99.85064
				L567.19198,99.85064L567.19198,99.13056L567.91207,99.13056L567.91207,97.69041L568.63216,97.69041L568.63216,96.97033L569.35225,96.97033
				L569.35225,96.25026L570.07234,96.25026L570.07234,95.53018L570.79244,95.53018L570.79244,94.8101L571.51253,94.8101L571.51253,94.09003
				L572.23262,94.09003L572.23262,93.36995L572.95271,93.36995L572.95271,91.9298L573.6728,91.9298L573.6728,91.20972L574.39289,91.20972
				L574.39289,90.48964L575.11298,90.48964L575.11298,89.76957L575.83308,89.76957L575.83308,89.04949L576.55317,89.04949L576.55317,88.32941
				L577.27326,88.32941L577.27326,87.60934L577.99335,87.60934L577.99335,86.16918L578.71344,86.16918L578.71344,85.44911L579.43353,85.44911
				L579.43353,84.72903L580.15362,84.72903L580.15362,84.00895L580.87372,84.00895L580.87372,83.28888L581.59381,83.28888L581.59381,82.5688
				L582.3139,82.5688L582.3139,81.84872L583.03399,81.84872L583.03399,80.40857L583.75408,80.40857L583.75408,79.68849L584.47417,79.68849
				L584.47417,78.96842L585.19426,78.96842L585.19426,78.24834L585.91435,78.24834L585.91435,77.52826L586.63445,77.52826L586.63445,76.56816
				L587.35454,76.56816L587.35454,75.84808L588.07463,75.84808L588.07463,75.12801L588.79472,75.12801L588.79472,73.68785L589.51481,73.68785
				L589.51481,72.96778L590.2349,72.96778L590.2349,72.2477L590.95499,72.2477L590.95499,71.52762L591.67509,71.52762L591.67509,70.80755
				L592.39518,70.80755L592.39518,70.08747L593.11527,70.08747L593.11527,69.36739L593.83536,69.36739L593.83536,67.92724L594.55545,67.92724
				L594.55545,67.20716L595.27554,67.20716L595.27554,66.48709L595.99563,66.48709L595.99563,65.76701L596.71573,65.76701L596.71573,65.04693
				L595.99563,65.04693L595.99563,64.32686L594.55545,64.32686L594.55545,63.60678L593.83536,63.60678L593.83536,62.8867L593.11527,62.8867
				L593.11527,62.16663L591.67509,62.16663L591.67509,61.44655L590.95499,61.44655L590.95499,60.72647L590.2349,60.72647L590.2349,60.00639
				L588.79472,60.00639L588.79472,59.28632L588.07463,59.28632L588.07463,58.56624L587.35454,58.56624L587.35454,57.84616L585.91435,57.84616
				L585.91435,57.12609L585.19426,57.12609L585.19426,56.40601L584.47417,56.40601L584.47417,55.68593L583.03399,55.68593L583.03399,54.96586
				L582.3139,54.96586L582.3139,54.24578L581.59381,54.24578L581.59381,53.5257L580.15362,53.5257L580.15362,52.80563L579.43353,52.80563
				L579.43353,52.08555L578.71344,52.08555L578.71344,51.36547L577.27326,51.36547L577.27326,50.6454L576.55317,50.6454L576.55317,49.92532
				L575.83308,49.92532L575.83308,49.20524L574.39289,49.20524L574.39289,48.48517L573.6728,48.48517L573.6728,47.76509L572.95271,47.76509
				L572.95271,47.04501L572.23262,47.04501L572.23262,46.32494L570.79244,46.32494L570.79244,45.60486L570.07234,45.60486L570.07234,44.88478
				L569.35225,44.88478L569.35225,44.16471L567.91207,44.16471L567.91207,43.44463L567.19198,43.44463L567.19198,42.72455L566.47189,42.72455
				L566.47189,42.00448L565.0317,42.00448L565.0317,41.2844L564.31161,41.2844L564.31161,40.56432L563.59152,40.56432L563.59152,39.84425
				L562.15134,39.84425L562.15134,39.12417L561.43125,39.12417L561.43125,38.40409L560.71116,38.40409L560.71116,37.68402L559.27097,37.68402
				L559.27097,36.96394L558.55088,36.96394L558.55088,36.24386L557.83079,36.24386L557.83079,35.52379L556.39061,35.52379L556.39061,34.80371
				L555.67052,34.80371L555.67052,34.08363L554.95043,34.08363L554.95043,33.36356L553.51024,33.36356L553.51024,32.64348L552.79015,32.64348
				L552.79015,31.9234L552.07006,31.9234L552.07006,31.20333L550.62988,31.20333L550.62988,30.48325L549.90979,30.48325L549.90979,29.76317
				L549.18969,29.76317L549.18969,29.0431L547.74951,29.0431L547.74951,28.32302L547.02942,28.32302L547.02942,27.60294L546.30933,27.60294
				L546.30933,26.88287L544.86915,26.88287L544.86915,26.16279L544.14905,26.16279L544.14905,25.44271L543.42896,25.44271L543.42896,24.72263
				L541.98878,24.72263L541.98878,24.00256L541.26869,24.00256L541.26869,23.28248L540.5486,23.28248L540.5486,22.5624L539.10841,22.5624
				L539.10841,21.84233L538.38832,21.84233L538.38832,21.12225L537.66823,21.12225L537.66823,20.40217L536.22805,20.40217L536.22805,19.6821
				L535.50796,19.6821L535.50796,18.96202L534.78787,18.96202L534.78787,18.24194L533.34768,18.24194L533.34768,17.52187L532.38756,17.52187
				L532.38756,16.80179L531.66747,16.80179L531.66747,16.08171L530.94738,16.08171L530.94738,15.36164L529.5072,15.36164L529.5072,14.64156
				L528.78711,14.64156L528.78711,13.92148L528.06701,13.92148L528.06701,13.20141L526.62683,13.20141L526.62683,12.48133L525.90674,12.48133
				L525.90674,11.76125L525.18665,11.76125L525.18665,11.04118L523.74647,11.04118L523.74647,10.3211L523.02637,10.3211L523.02637,9.60102
				L522.30628,9.60102L522.30628,8.88095L521.58619,8.88095L521.58619,8.16087L520.14601,8.16087L520.14601,7.44079L519.42592,7.44079
				L519.42592,6.72072L518.70583,6.72072L518.70583,6.00064L517.98573,6.00064L517.98573,5.28056L517.26564,5.28056L517.26564,4.56049
				L515.82546,4.56049L515.82546,3.84041L515.10537,3.84041L515.10537,3.12033L514.38528,3.12033L514.38528,2.40026L513.66519,2.40026
				L513.66519,1.68018L512.94509,1.68018L512.94509,0.9601L511.50491,0.9601L511.50491,0.24003L510.78482,0.24003L510.78482,-0.48005
				L510.06473,-0.48005L510.06473,-1.20013L509.34464,-1.20013L509.34464,-1.92021L507.90446,-1.92021L507.90446,-2.64028L507.18436,-2.64028
				L507.18436,-3.36036L506.46427,-3.36036L506.46427,-4.08044L505.74418,-4.08044L505.74418,-4.80051L505.02409,-4.80051L505.02409,-6.24067
				L504.304,-6.24067L504.304,-6.96074L503.58391,-6.96074L503.58391,-8.4009L502.86382,-8.4009L502.86382,-10.08107L502.14372,-10.08107
				L502.14372,-10.80115L501.42363,-10.80115L501.42363,-12.2413L500.70354,-12.2413L500.70354,-18.722"/>
			<path clip-path="url(#SVG_CP_2)" fill="none" stroke="#999999" stroke-width="0.96012" stroke-miterlimit="10" stroke-linecap="round" stroke-linejoin="round" d="
				M601.9964,581.34195L601.75637,581.34195L601.75637,582.06203L600.31618,582.06203L600.31618,582.7821L598.876,582.7821L598.876,583.50218
				L597.43582,583.50218L597.43582,584.22226L595.99563,584.22226L595.99563,584.94233L594.55545,584.94233L594.55545,585.66241
				L593.11527,585.66241L593.11527,586.38249L591.67509,586.38249L591.67509,587.10256L590.2349,587.10256L590.2349,587.82264L588.79472,587.82264
				L588.79472,588.54272L587.35454,588.54272L587.35454,589.26279L585.91435,589.26279L585.91435,589.98287L584.47417,589.98287
				L584.47417,590.70295L583.03399,590.70295L583.03399,591.42302L581.59381,591.42302L581.59381,592.1431L580.15362,592.1431L580.15362,592.86318
				L578.71344,592.86318L578.71344,591.42302L577.99335,591.42302L577.99335,589.26279L577.27326,589.26279L577.27326,587.82264
				L576.55317,587.82264L576.55317,586.38249L575.83308,586.38249L575.83308,584.94233L575.11298,584.94233L575.11298,583.50218
				L574.39289,583.50218L574.39289,582.06203L573.6728,582.06203L573.6728,580.62187L572.95271,580.62187L572.95271,579.18172L572.23262,579.18172
				L572.23262,577.74157L571.51253,577.74157L571.51253,576.30141L570.79244,576.30141L570.79244,574.86126L570.07234,574.86126
				L570.07234,573.4211L569.35225,573.4211L569.35225,571.98095L568.63216,571.98095L568.63216,570.5408L567.91207,570.5408L567.91207,568.38057
				L567.19198,568.38057L567.19198,566.94041L566.47189,566.94041L566.47189,565.50026L565.7518,565.50026L565.7518,564.06011L565.0317,564.06011
				L565.0317,562.61995L564.31161,562.61995L564.31161,561.1798L563.59152,561.1798L563.59152,559.73965L562.87143,559.73965L562.87143,558.29949
				L562.15134,558.29949L562.15134,556.85934L561.43125,556.85934L561.43125,555.41919L560.71116,555.41919L560.71116,553.97903
				L559.99106,553.97903L559.99106,552.53888L559.27097,552.53888L559.27097,551.09873L558.55088,551.09873L558.55088,549.65857
				L557.83079,549.65857L557.83079,547.49834L557.1107,547.49834L557.1107,546.05819L556.39061,546.05819L556.39061,544.61804L555.67052,544.61804
				L555.67052,543.17788L554.95043,543.17788L554.95043,541.73773L554.23033,541.73773L554.23033,540.29758L553.51024,540.29758
				L553.51024,539.5775L555.67052,539.5775L555.67052,538.85742L557.1107,538.85742L557.1107,538.13734L559.27097,538.13734L559.27097,537.41727
				L560.71116,537.41727L560.71116,536.69719L562.15134,536.69719L562.15134,535.97711L564.31161,535.97711L564.31161,535.25704
				L565.7518,535.25704L565.7518,534.53696L567.19198,534.53696L567.19198,533.81688L569.35225,533.81688L569.35225,533.09681L570.79244,533.09681
				L570.79244,532.37673L572.95271,532.37673L572.95271,531.65665L574.39289,531.65665L574.39289,530.93658L575.83308,530.93658
				L575.83308,530.2165L577.99335,530.2165L577.99335,529.49642L579.43353,529.49642L579.43353,528.77635L580.87372,528.77635L580.87372,528.05627
				L583.03399,528.05627L583.03399,527.33619L584.47417,527.33619L584.47417,526.61612L586.63445,526.61612L586.63445,525.89604
				L588.07463,525.89604L588.07463,525.17596L589.51481,525.17596L589.51481,524.45589L590.95499,524.45589L590.95499,523.01573
				L590.2349,523.01573L590.2349,522.29566L589.51481,522.29566L589.51481,520.8555L588.79472,520.8555L588.79472,520.13543L588.07463,520.13543
				L588.07463,518.69527L587.35454,518.69527L587.35454,517.9752L586.63445,517.9752L586.63445,516.53504L585.91435,516.53504L585.91435,515.81497
				L585.19426,515.81497L585.19426,514.37481L584.47417,514.37481L584.47417,513.65474L583.75408,513.65474L583.75408,512.21458
				L583.03399,512.21458L583.03399,511.49451L582.3139,511.49451L582.3139,509.81433L581.59381,509.81433L581.59381,509.09425L580.87372,509.09425
				L580.87372,508.37417L580.15362,508.37417L580.15362,506.93402L579.43353,506.93402L579.43353,505.49387L578.71344,505.49387
				L578.71344,503.33364L577.99335,503.33364L577.99335,501.89348L577.27326,501.89348L577.27326,500.45333L576.55317,500.45333
				L576.55317,499.01318L575.83308,499.01318L575.83308,497.57302L575.11298,497.57302L575.11298,496.13287L574.39289,496.13287
				L574.39289,494.69272L573.6728,494.69272L573.6728,493.25256L572.95271,493.25256L572.95271,491.81241L572.23262,491.81241L572.23262,490.37225
				L571.51253,490.37225L571.51253,488.21202L570.79244,488.21202L570.79244,486.77187L570.07234,486.77187L570.07234,485.33172
				L569.35225,485.33172L569.35225,483.89156L568.63216,483.89156L568.63216,484.61164L567.19198,484.61164L567.19198,485.33172
				L565.7518,485.33172L565.7518,486.05179L564.31161,486.05179L564.31161,486.77187L562.87143,486.77187L562.87143,487.49195L561.43125,487.49195
				L561.43125,488.21202L559.99106,488.21202L559.99106,488.9321L558.55088,488.9321L558.55088,489.65218L557.1107,489.65218L557.1107,490.37225
				L555.67052,490.37225L555.67052,491.09233L554.23033,491.09233L554.23033,491.81241L552.79015,491.81241L552.79015,492.53249
				L551.34997,492.53249L551.34997,493.25256L549.90979,493.25256L549.90979,493.97264L548.4696,493.97264L548.4696,494.69272L547.02942,494.69272
				L547.02942,495.41279L545.58924,495.41279L545.58924,496.13287L544.14905,496.13287L544.14905,496.85295L542.70887,496.85295
				L542.70887,497.57302L541.26869,497.57302L541.26869,498.2931L539.82851,498.2931L539.82851,499.01318L537.66823,499.01318L537.66823,499.73325
				L536.22805,499.73325L536.22805,498.2931L535.50796,498.2931L535.50796,496.85295L534.78787,496.85295L534.78787,495.41279L534.06778,495.41279
				L534.06778,493.97264L533.34768,493.97264L533.34768,492.53249L532.38756,492.53249L532.38756,491.09233L531.66747,491.09233
				L531.66747,489.65218L530.94738,489.65218L530.94738,488.21202L530.22729,488.21202L530.22729,486.77187L529.5072,486.77187L
				529.5072,485.33172L528.78711,485.33172L528.78711,483.89156L528.06701,483.89156L528.06701,482.45141L527.34692,482.45141L527.34692,481.01126
				L526.62683,481.01126L526.62683,479.5711L525.90674,479.5711L525.90674,478.13095L525.18665,478.13095L525.18665,476.6908L524.46656,476.6908
				L524.46656,475.25064L523.74647,475.25064L523.74647,473.81049L523.02637,473.81049L523.02637,472.37034L522.30628,472.37034
				L522.30628,470.93018L521.58619,470.93018L521.58619,469.49003L520.8661,469.49003L520.8661,468.04988L520.14601,468.04988L520.14601,466.60972
				L519.42592,466.60972L519.42592,465.16957L518.70583,465.16957L518.70583,463.72942L517.98573,463.72942L517.98573,462.28926
				L517.26564,462.28926L517.26564,460.12903L516.54555,460.12903L516.54555,458.68888L515.82546,458.68888L515.82546,457.24873
				L515.10537,457.24873L515.10537,455.80857L511.50491,455.80857L511.50491,456.52865L506.46427,456.52865L506.46427,457.24873
				L502.14372,457.24873L502.14372,457.9688L500.70354,457.9688L500.70354,458.68888L499.26336,458.68888L499.26336,459.40896L497.82318,459.40896
				L497.82318,460.12903L496.38299,460.12903L496.38299,460.84911L494.94281,460.84911L494.94281,461.56919L492.78254,461.56919
				L492.78254,462.28926L492.06244,462.28926L492.06244,463.00934L490.62226,463.00934L490.62226,463.72942L489.90217,463.72942
				L489.90217,464.44949L488.46199,464.44949L488.46199,465.16957L487.7419,465.16957L487.7419,465.88965L487.0218,465.88965L487.0218,466.60972
				L485.58162,466.60972L485.58162,467.3298L484.86153,467.3298L484.86153,468.04988L484.14144,468.04988L484.14144,468.76995L482.70126,468.76995
				L482.70126,469.49003L481.98117,469.49003L481.98117,470.21011L480.54098,470.21011L480.54098,470.93018L479.82089,470.93018
				L479.82089,471.65026L479.1008,471.65026L479.1008,472.37034L477.66062,472.37034L477.66062,473.09041L476.94053,473.09041L476.94053,473.81049
				L476.22043,473.81049L476.22043,474.53057L474.06016,474.53057L474.06016,475.25064L471.89989,475.25064L471.89989,475.97072
				L469.73961,475.97072L469.73961,476.6908L467.57934,476.6908L467.57934,477.41087L465.41906,477.41087L465.41906,478.13095L463.97888,478.13095
				L463.97888,478.85103L461.81861,478.85103L461.81861,479.5711L459.65833,479.5711L459.65833,480.29118L457.49806,480.29118L457.49806,481.01126
				L455.33778,481.01126L455.33778,481.73133L453.17751,481.73133L453.17751,482.45141L451.01724,482.45141L451.01724,483.17149
				L448.85696,483.17149L448.85696,483.89156L446.69669,483.89156L446.69669,484.61164L445.01647,484.61164L445.01647,485.33172
				L443.57629,485.33172L443.57629,486.05179L442.13611,486.05179L442.13611,486.77187L440.69593,486.77187L440.69593,487.49195
				L439.25574,487.49195L439.25574,488.21202L437.81556,488.21202L437.81556,488.9321L435.65529,488.9321L435.65529,489.65218L434.2151,489.65218
				L434.2151,490.37225L432.05483,490.37225L432.05483,491.09233L430.61465,491.09233L430.61465,491.81241L428.45437,491.81241L
				428.45437,492.53249L427.01419,492.53249L427.01419,493.25256L415.49273,493.25256L415.49273,493.97264L409.732,493.97264L409.732,494.69272
				L407.57172,494.69272L407.57172,495.41279L405.41145,495.41279L405.41145,496.13287L403.97127,496.13287L403.97127,496.85295
				L402.53108,496.85295L402.53108,497.57302L400.37081,497.57302L400.37081,498.2931L398.93063,498.2931L398.93063,499.01318L396.77035,499.01318
				L396.77035,499.73325L393.88999,499.73325L393.88999,500.45333L390.28953,500.45333L390.28953,501.17341L378.76807,501.17341
				L378.76807,500.45333L367.9667,500.45333L367.9667,499.73325L362.92606,499.73325L362.92606,499.01318L350.44447,499.01318L350.44447,465.88965
				L349.72438,465.88965L349.72438,465.16957L349.00429,465.16957L349.00429,464.44949L348.2842,464.44949L348.2842,463.72942L347.56411,463.72942
				L347.56411,463.00934L346.84402,463.00934"/>
			<path clip-path="url(#SVG_CP_2)" fill="none" stroke="#999999" stroke-width="0.96012" stroke-miterlimit="10" stroke-linecap="round" stroke-linejoin="round" d="
				M279.87552,384.28095L279.87552,385.00103L280.59561,385.00103L280.59561,385.7211L281.3157,385.7211L281.3157,386.44118L282.03579,386.44118
				L282.03579,387.16126L282.75588,387.16126L282.75588,388.60141L283.47597,388.60141L283.47597,389.32149L284.19607,389.32149
				L284.19607,390.04156L284.91616,390.04156L284.91616,390.76164L285.63625,390.76164L285.63625,391.48172L286.35634,391.48172
				L286.35634,392.20179L287.07643,392.20179L287.07643,392.92187L287.79652,392.92187L287.79652,393.64195L288.51661,393.64195
				L288.51661,394.36202L289.23671,394.36202L289.23671,395.0821L289.9568,395.0821L289.9568,395.80218L290.67689,395.80218L290.67689,396.52225
				L291.39698,396.52225L291.39698,397.24233L292.11707,397.24233L292.11707,397.96241L292.83716,397.96241L292.83716,398.68248
				L293.55725,398.68248L293.55725,399.40256L294.27735,399.40256L294.27735,400.12264L294.99744,400.12264L294.99744,400.84271
				L295.71753,400.84271L295.71753,401.56279L296.43762,401.56279L296.43762,402.28287L297.15771,402.28287L297.15771,403.00294
				L297.8778,403.00294L297.8778,403.72302L298.59789,403.72302L298.59789,404.4431L299.31798,404.4431L299.31798,405.16318L300.03808,405.16318
				L300.03808,405.88325L300.75817,405.88325L300.75817,406.60333L301.47826,406.60333L301.47826,407.32341L302.19835,407.32341
				L302.19835,408.04348L302.91844,408.04348L302.91844,408.76356L303.63853,408.76356L303.63853,409.48364L304.35862,409.48364
				L304.35862,410.20371L305.07872,410.20371L305.07872,410.92379L305.79881,410.92379L305.79881,411.64387L306.5189,411.64387L
				306.5189,412.36394L307.23899,412.36394L307.23899,413.08402L307.95908,413.08402L307.95908,413.8041L308.67917,413.8041L308.67917,414.52417
				L309.39926,414.52417L309.39926,415.24425L310.11936,415.24425L310.11936,415.96433L310.83945,415.96433L310.83945,416.6844L
				311.55954,416.6844L311.55954,417.40448L312.27963,417.40448L312.27963,418.12456L312.99972,418.12456L312.99972,418.84463L313.71981,418.84463
				L313.71981,419.56471L314.4399,419.56471L314.4399,420.28479L315.16,420.28479L315.16,421.00486L315.88009,421.00486L315.88009,421.72494
				L316.60018,421.72494L316.60018,422.44502L317.32027,422.44502L317.32027,423.16509L318.04036,423.16509L318.04036,423.88517
				L318.76045,423.88517L318.76045,424.84527L319.48054,424.84527L319.48054,425.56535L320.20063,425.56535L320.20063,426.28543
				L320.92073,426.28543L320.92073,427.0055L321.64082,427.0055L321.64082,427.72558L322.36091,427.72558L322.36091,428.44566L323.081,428.44566
				L323.081,429.16573L323.80109,429.16573L323.80109,429.88581L324.52118,429.88581L324.52118,430.60589L325.24127,430.60589L325.24127,431.32596
				L325.96137,431.32596L325.96137,432.04604L326.68146,432.04604L326.68146,432.76612L327.40155,432.76612L327.40155,433.48619
				L328.12164,433.48619L328.12164,434.20627L328.84173,434.20627L328.84173,434.92635L329.56182,434.92635L329.56182,435.64642
				L330.28191,435.64642L330.28191,436.3665L331.00201,436.3665L331.00201,437.08658L331.7221,437.08658L331.7221,437.80665L332.44219,437.80665
				L332.44219,438.52673L333.16228,438.52673L333.16228,439.24681L333.88237,439.24681L333.88237,439.96688L334.60246,439.96688
				L334.60246,440.68696L335.32255,440.68696L335.32255,441.40704L336.04265,441.40704L336.04265,442.12711L336.76274,442.12711
				L336.76274,442.84719L337.48283,442.84719L337.48283,443.56727L338.20292,443.56727L338.20292,444.28734L338.92301,444.28734
				L338.92301,445.00742L339.6431,445.00742L339.6431,445.7275L340.36319,445.7275L340.36319,446.44757L341.08328,446.44757L341.08328,447.16765
				L341.80338,447.16765L341.80338,447.88773L342.52347,447.88773L342.52347,449.32788L343.24356,449.32788L343.24356,450.04796
				L343.96365,450.04796L343.96365,450.76803L344.68374,450.76803L344.68374,451.48811L345.40383,451.48811L345.40383,452.20819
				L346.12392,452.20819L346.12392,463.00934L346.84402,463.00934L346.84402,470.21011L347.56411,470.21011L347.56411,471.65026
				L348.2842,471.65026L348.2842,473.09041L349.00429,473.09041L349.00429,474.53057L349.72438,474.53057L349.72438,499.73325L347.56411,499.73325
				L347.56411,501.89348L348.2842,501.89348L348.2842,504.05371L349.00429,504.05371L349.00429,505.49387L349.72438,505.49387L349.72438,507.6541
				L350.44447,507.6541L350.44447,509.81433L351.16456,509.81433L351.16456,512.21458L351.88466,512.21458L351.88466,513.65474L
				352.60475,513.65474L352.60475,515.81497L353.32484,515.81497L353.32484,517.9752L354.04493,517.9752L354.04493,520.13543L354.76502,520.13543
				L354.76502,521.57558L355.48511,521.57558L355.48511,523.73581L356.2052,523.73581L356.2052,525.89604L356.9253,525.89604L356.9253,527.33619
				L355.48511,527.33619L355.48511,528.05627L353.32484,528.05627L353.32484,528.77635L351.16456,528.77635L351.16456,529.49642
				L349.00429,529.49642L349.00429,530.2165L347.56411,530.2165L347.56411,530.93658L345.40383,530.93658L345.40383,531.65665L343.24356,531.65665
				L343.24356,532.37673L341.08328,532.37673L341.08328,533.09681L339.6431,533.09681L339.6431,533.81688L337.48283,533.81688L337.48283,534.53696
				L335.32255,534.53696L335.32255,535.25704L333.16228,535.25704L333.16228,535.97711L331.00201,535.97711L331.00201,536.69719
				L329.56182,536.69719L329.56182,537.41727L327.40155,537.41727L327.40155,538.13734L325.24127,538.13734L325.24127,538.85742
				L323.081,538.85742L323.081,539.5775L321.64082,539.5775L321.64082,540.29758L319.48054,540.29758L319.48054,541.01765L317.32027,541.01765
				L317.32027,541.73773L315.16,541.73773L315.16,542.45781L312.99972,542.45781L312.99972,543.17788L311.55954,543.17788L311.55954,543.89796
				L309.39926,543.89796L309.39926,544.61804L307.23899,544.61804L307.23899,545.33811L305.07872,545.33811L305.07872,546.05819
				L303.63853,546.05819L303.63853,546.77827L301.47826,546.77827L301.47826,547.49834L300.75817,547.49834L300.75817,548.21842
				L301.47826,548.21842L301.47826,549.65857L302.19835,549.65857L302.19835,551.8188L302.91844,551.8188L302.91844,553.25896L303.63853,553.25896
				L303.63853,555.41919L304.35862,555.41919L304.35862,556.85934L305.07872,556.85934L305.07872,559.01957L305.79881,559.01957
				L305.79881,560.45972L306.5189,560.45972L306.5189,562.61995L307.23899,562.61995L307.23899,564.06011L307.95908,564.06011L307.95908,566.22034
				L308.67917,566.22034L308.67917,567.66049L309.39926,567.66049L309.39926,569.82072L310.11936,569.82072L310.11936,570.5408L
				308.67917,570.5408L308.67917,571.26087L307.23899,571.26087L307.23899,571.98095L305.79881,571.98095L305.79881,572.70103L304.35862,572.70103
				L304.35862,573.4211L302.19835,573.4211L302.19835,574.14118L300.75817,574.14118L300.75817,574.86126L299.31798,574.86126L299.31798,575.58133
				L297.8778,575.58133L297.8778,576.30141L296.43762,576.30141L296.43762,577.02149L294.99744,577.02149L294.99744,577.74157L292.83716,577.74157
				L292.83716,578.46164L291.39698,578.46164L291.39698,579.18172L289.9568,579.18172L289.9568,579.9018L288.51661,579.9018L288.51661,580.62187
				L287.07643,580.62187L287.07643,581.34195L285.63625,581.34195L285.63625,582.06203L283.47597,582.06203L283.47597,582.7821L
				282.03579,582.7821L282.03579,583.50218L280.59561,583.50218L280.59561,584.22226L279.15543,584.22226L279.15543,584.94233L277.71524,584.94233
				L277.71524,585.66241L276.27506,585.66241L276.27506,586.38249L274.11479,586.38249L274.11479,587.10256L272.6746,587.10256L
				272.6746,587.82264L270.99439,587.82264L270.99439,588.54272L270.2743,588.54272L270.2743,587.82264L269.55421,587.82264L269.55421,586.38249
				L268.83412,586.38249L268.83412,584.94233L268.11402,584.94233L268.11402,583.50218L267.39393,583.50218L267.39393,582.06203
				L266.67384,582.06203L266.67384,580.62187L265.95375,580.62187L265.95375,579.9018L265.23366,579.9018L265.23366,580.62187L263.79348,580.62187
				L263.79348,581.34195L262.35329,581.34195L262.35329,582.06203L260.91311,582.06203L260.91311,582.7821L259.47293,582.7821L259.47293,583.50218
				L258.03275,583.50218L258.03275,584.22226L256.59256,584.22226L256.59256,584.94233L255.15238,584.94233L255.15238,585.66241
				L253.7122,585.66241L253.7122,586.38249L252.27201,586.38249L252.27201,587.10256L250.83183,587.10256L250.83183,587.82264L249.39165,587.82264
				L249.39165,588.54272L247.95147,588.54272L247.95147,589.26279L246.51128,589.26279L246.51128,589.98287L245.79119,589.98287
				L245.79119,589.26279L245.0711,589.26279L245.0711,587.82264L244.35101,587.82264L244.35101,586.38249L243.63092,586.38249L243.63092,584.94233
				L242.91083,584.94233L242.91083,583.50218L242.19074,583.50218L242.19074,582.06203L241.47064,582.06203L241.47064,582.7821L
				239.31037,582.7821L239.31037,583.50218L237.87019,583.50218L237.87019,584.22226L236.43,584.22226L236.43,584.94233L234.98982,584.94233
				L234.98982,585.66241L233.54964,585.66241L233.54964,586.38249L232.10946,586.38249L232.10946,587.10256L230.66927,587.10256
				L230.66927,587.82264L229.22909,587.82264L229.22909,588.54272L227.78891,588.54272L227.78891,589.26279L226.34872,589.26279
				L226.34872,589.98287L224.90854,589.98287L224.90854,590.70295L223.46836,590.70295L223.46836,591.42302L222.02818,591.42302
				L222.02818,592.1431L220.58799,592.1431L220.58799,592.86318L219.14781,592.86318L219.14781,593.58325L218.42772,593.58325L218.42772,595.02341
				L219.14781,595.02341L219.14781,596.46356L219.8679,596.46356L219.8679,598.14374L220.58799,598.14374L220.58799,599.58389L221.30809,599.58389
				L221.30809,601.02405L222.02818,601.02405L222.02818,602.4642L222.74827,602.4642L222.74827,603.90435L223.46836,603.90435L223.46836,605.34451
				L224.18845,605.34451L224.18845,607.50474L224.90854,607.50474L224.90854,608.94489L225.62863,608.94489L225.62863,610.38504
				L224.90854,610.38504L224.90854,611.10512L223.46836,611.10512L223.46836,611.8252L222.74827,611.8252L222.74827,612.54527L223.46836,612.54527
				L223.46836,614.7055L224.18845,614.7055L224.18845,616.86573L224.90854,616.86573L224.90854,619.02596L225.62863,619.02596L225.62863,621.18619
				L226.34872,621.18619L226.34872,623.34642L227.06882,623.34642L227.06882,625.50666L227.78891,625.50666L227.78891,628.38696
				L228.509,628.38696L228.509,630.54719L229.22909,630.54719L229.22909,632.70742L229.94918,632.70742L229.94918,634.86765L230.66927,634.86765
				L230.66927,635.58773L229.22909,635.58773L229.22909,636.30781L226.34872,636.30781L226.34872,637.02788L224.18845,637.02788
				L224.18845,637.74796L221.30809,637.74796L221.30809,638.46804L219.14781,638.46804L219.14781,639.18811L218.42772,639.18811
				L218.42772,640.62827L217.70763,640.62827L217.70763,644.94873L218.42772,644.94873L218.42772,647.82903L219.14781,647.82903
				L219.14781,649.98926L219.8679,649.98926L219.8679,652.14949L220.58799,652.14949L220.58799,654.30972L221.30809,654.30972L221.30809,656.46995
				L222.02818,656.46995L222.02818,658.63018L222.74827,658.63018L222.74827,660.07034L223.46836,660.07034L223.46836,662.23057
				L224.18845,662.23057L224.18845,664.3908L224.90854,664.3908L224.90854,665.83095L225.62863,665.83095L225.62863,666.55103L224.90854,666.55103
				L224.90854,667.27111L223.46836,667.27111L223.46836,667.99118L222.02818,667.99118L222.02818,668.71126L221.30809,668.71126
				L221.30809,669.43134L219.8679,669.43134L219.8679,670.87149L220.58799,670.87149L220.58799,671.59157L221.30809,671.59157L221.30809,672.31164
				L222.74827,672.31164L222.74827,673.03172L223.46836,673.03172L223.46836,673.7518L224.18845,673.7518L224.18845,674.47187L225.62863,674.47187
				L225.62863,675.19195L226.34872,675.19195L226.34872,675.91203L227.06882,675.91203L227.06882,676.6321L228.509,676.6321L228.509,677.35218
				L229.22909,677.35218L229.22909,678.07226L229.94918,678.07226L229.94918,678.79233L231.38936,678.79233L231.38936,679.51241
				L232.10946,679.51241L232.10946,680.23249L233.54964,680.23249L233.54964,680.95256L234.26973,680.95256L234.26973,681.67264
				L235.70991,681.67264L235.70991,682.39272L236.43,682.39272L236.43,683.11279L237.87019,683.11279L237.87019,683.83287L238.59028,683.83287
				L238.59028,684.79297L240.03046,684.79297L240.03046,685.51305L240.75055,685.51305L240.75055,686.23313L242.19074,686.23313
				L242.19074,686.9532L242.91083,686.9532L242.91083,688.39336L242.19074,688.39336L242.19074,689.83351L241.47064,689.83351L241.47064,691.27366
				L240.75055,691.27366L240.75055,692.71382L240.03046,692.71382L240.03046,694.15397L239.31037,694.15397L239.31037,695.59412
				L238.59028,695.59412L238.59028,697.03428L237.87019,697.03428L237.87019,698.47443L237.1501,698.47443L237.1501,699.91458L236.43,699.91458
				L236.43,701.35474L235.70991,701.35474L235.70991,700.63466L234.26973,700.63466L234.26973,699.91458L233.54964,699.91458L233.54964,699.19451
				L232.10946,699.19451L232.10946,698.47443L231.38936,698.47443L231.38936,697.75435L229.94918,697.75435L229.94918,697.03428
				L228.509,697.03428L228.509,696.3142L227.78891,696.3142L227.78891,695.59412L226.34872,695.59412L226.34872,694.87405L225.62863,694.87405
				L225.62863,695.59412L224.90854,695.59412L224.90854,697.03428L224.18845,697.03428L224.18845,698.47443L223.46836,698.47443
				L223.46836,699.91458L222.74827,699.91458L222.74827,701.35474L222.02818,701.35474L222.02818,702.79489L221.30809,702.79489
				L221.30809,703.51497L215.54735,703.51497L215.54735,702.79489L214.82726,702.79489L214.82726,701.35474L214.10717,701.35474
				L214.10717,699.91458L213.38708,699.91458L213.38708,698.47443L212.66699,698.47443L212.66699,697.03428L211.9469,697.03428L
				211.9469,695.59412L211.22681,695.59412L211.22681,694.15397L210.50671,694.15397L210.50671,692.71382L209.78662,692.71382L209.78662,691.27366
				L209.06653,691.27366L209.06653,689.83351L208.34644,689.83351L208.34644,689.11343L207.62635,689.11343L207.62635,687.67328
				L206.90626,687.67328L206.90626,686.23313L206.18617,686.23313L206.18617,684.79297L205.46607,684.79297L205.46607,683.11279
				L204.74598,683.11279L204.74598,681.67264L204.02589,681.67264L204.02589,680.23249L203.3058,680.23249L203.3058,678.79233L202.58571,678.79233
				L202.58571,677.35218L201.86562,677.35218L201.86562,675.91203L201.14553,675.91203L201.14553,675.19195L200.42544,675.19195
				L200.42544,673.7518L199.70534,673.7518L199.70534,672.31164L198.98525,672.31164L198.98525,670.87149L198.26516,670.87149L198.26516,669.43134
				L197.54507,669.43134L197.54507,667.99118L196.82498,667.99118L196.82498,666.55103L196.10489,666.55103L196.10489,665.11088
				L195.3848,665.11088L195.3848,663.67072L194.6647,663.67072L194.6647,662.95065L193.94461,662.95065L193.94461,661.51049L193.22452,661.51049
				L193.22452,660.07034L192.50443,660.07034L192.50443,658.63018L191.78434,658.63018L191.78434,657.19003L191.06425,657.19003
				L191.06425,655.74988L190.34416,655.74988L190.34416,655.0298L189.62406,655.0298L189.62406,653.58965L188.90397,653.58965L188.90397,652.14949
				L188.18388,652.14949L188.18388,650.70934L187.46379,650.70934L187.46379,649.98926L186.7437,649.98926L186.7437,648.54911L186.02361,648.54911
				L186.02361,647.10896L185.06349,647.10896L185.06349,645.6688L184.34339,645.6688L184.34339,644.94873L183.6233,644.94873L183.6233,644.22865
				L182.90321,644.22865L182.90321,643.50857L182.18312,643.50857L182.18312,642.06842L181.46303,642.06842L181.46303,641.34834
				L180.74294,641.34834L180.74294,639.90819L180.02285,639.90819L180.02285,638.46804L179.30275,638.46804L179.30275,637.02788
				L178.58266,637.02788L178.58266,635.58773L177.86257,635.58773L177.86257,634.86765L177.14248,634.86765L177.14248,633.4275L
				176.42239,633.4275L176.42239,631.98735L175.7023,631.98735L175.7023,630.54719L174.98221,630.54719L174.98221,629.82712L174.26211,629.82712
				L174.26211,628.38696L173.54202,628.38696L173.54202,626.94681L172.82193,626.94681L172.82193,626.22673L171.38175,626.22673
				L171.38175,626.94681L170.66166,626.94681L170.66166,627.66689L169.22148,627.66689L169.22148,628.38696L167.78129,628.38696
				L167.78129,629.10704L167.0612,629.10704L167.0612,629.82712L165.62102,629.82712L165.62102,630.54719L164.18084,630.54719L164.18084,631.26727
				L163.46074,631.26727L163.46074,631.98735L162.02056,631.98735L162.02056,632.70742L160.58038,632.70742L160.58038,633.4275L
				159.86029,633.4275L159.86029,634.14758L158.4201,634.14758L158.4201,634.86765L156.97992,634.86765L156.97992,635.58773L156.25983,635.58773
				L156.25983,636.30781L154.81965,636.30781L154.81965,637.02788L154.09956,637.02788L154.09956,637.74796L152.65937,637.74796
				L152.65937,638.46804L151.21919,638.46804L151.21919,639.18811L150.4991,639.18811L150.4991,639.90819L149.05892,639.90819L149.05892,640.62827
				L147.61873,640.62827L147.61873,641.34834L146.89864,641.34834L146.89864,639.90819L146.17855,639.90819L146.17855,639.18811
				L145.45846,639.18811L145.45846,638.46804L144.73837,638.46804L144.73837,639.18811L143.29819,639.18811L143.29819,639.90819
				L141.858,639.90819L141.858,640.62827L141.13791,640.62827L141.13791,641.34834L139.69773,641.34834L139.69773,642.06842L138.25755,642.06842
				L138.25755,642.7885L136.81736,642.7885L136.81736,643.50857L136.09727,643.50857L136.09727,644.22865L134.65709,644.22865L134.65709,644.94873
				L133.21691,644.94873L133.21691,645.6688L131.77672,645.6688L131.77672,646.38888L130.33654,646.38888L130.33654,647.10896L129.61645,647.10896
				L129.61645,647.82903L128.17627,647.82903L128.17627,648.54911L126.73608,648.54911L126.73608,649.26919L125.2959,649.26919L
				125.2959,649.98926L124.57581,649.98926L124.57581,648.54911L123.85572,648.54911L123.85572,647.82903L123.13563,647.82903L123.13563,646.38888
				L122.41554,646.38888L122.41554,645.6688L121.69544,645.6688L121.69544,644.22865L120.97535,644.22865L120.97535,643.50857L120.25526,643.50857
				L120.25526,642.7885L119.53517,642.7885L119.53517,643.50857L118.09499,643.50857L118.09499,644.22865L116.6548,644.22865L116.6548,644.94873
				L115.93471,644.94873L115.93471,645.6688L114.49453,645.6688L114.49453,646.38888L113.77444,646.38888L113.77444,647.10896L112.33426,647.10896
				L112.33426,647.82903L111.61416,647.82903L111.61416,648.54911L110.17398,648.54911L110.17398,649.26919L109.45389,649.26919
				L109.45389,649.98926L108.01371,649.98926L108.01371,650.70934L107.29362,650.70934L107.29362,652.14949L108.01371,652.14949
				L108.01371,653.58965L108.7338,653.58965L108.7338,654.30972L109.45389,654.30972L109.45389,655.74988L110.17398,655.74988L110.17398,656.46995
				L110.89407,656.46995L110.89407,657.91011L111.61416,657.91011L111.61416,658.63018L112.33426,658.63018L112.33426,660.07034
				L113.05435,660.07034L113.05435,661.51049L113.77444,661.51049L113.77444,662.23057L114.49453,662.23057L114.49453,663.67072
				L115.21462,663.67072L115.21462,664.3908L115.93471,664.3908L115.93471,665.83095L116.6548,665.83095L116.6548,666.55103L117.3749,666.55103
				L117.3749,667.99118L118.09499,667.99118L118.09499,669.43134L118.81508,669.43134L118.81508,670.15141L118.09499,670.15141L
				118.09499,670.87149L116.6548,670.87149L116.6548,671.59157L115.93471,671.59157L115.93471,672.31164L114.49453,672.31164L114.49453,673.03172
				L113.05435,673.03172L113.05435,673.7518L111.61416,673.7518L111.61416,674.47187L110.17398,674.47187L110.17398,675.19195L108.7338,675.19195
				L108.7338,675.91203L108.01371,675.91203L108.01371,676.6321L106.57352,676.6321L106.57352,677.35218L105.13334,677.35218L105.13334,678.07226
				L103.69316,678.07226L103.69316,677.35218L102.97307,677.35218L102.97307,676.6321L102.25298,676.6321L102.25298,675.91203L101.53289,675.91203
				L101.53289,674.47187L100.81279,674.47187L100.81279,673.7518L100.0927,673.7518L100.0927,672.31164L99.37261,672.31164L99.37261,671.59157
				L98.41249,671.59157L98.41249,670.15141L97.6924,670.15141L97.6924,669.43134L96.97231,669.43134L96.97231,667.99118L96.25222,667.99118
				L96.25222,667.27111L95.53212,667.27111L95.53212,665.83095L94.81203,665.83095L94.81203,665.11088L94.09194,665.11088L94.09194,663.67072
				L93.37185,663.67072L93.37185,662.95065L92.65176,662.95065L92.65176,661.51049L91.93167,661.51049L91.93167,660.79041L90.49148,660.79041
				L90.49148,661.51049L89.0513,661.51049L89.0513,662.23057L86.89103,662.23057L86.89103,662.95065L86.17094,662.95065L86.17094,663.67072
				L85.45084,663.67072L85.45084,664.3908L84.73075,664.3908L84.73075,665.11088L83.29057,665.11088L83.29057,665.83095L82.57048,665.83095
				L82.57048,666.55103L81.85039,666.55103L81.85039,667.27111L80.4102,667.27111L80.4102,666.55103L78.97002,666.55103L78.97002,665.83095
				L78.24993,665.83095L78.24993,665.11088L76.80975,665.11088L76.80975,664.3908L76.08966,664.3908L76.08966,665.11088L75.36957,665.11088
				L75.36957,665.83095L74.64947,665.83095L74.64947,666.55103L73.92938,666.55103L73.92938,667.27111L73.20929,667.27111L73.20929,667.99118
				L72.4892,667.99118L72.4892,668.71126L71.76911,668.71126L71.76911,669.43134L70.32893,669.43134L70.32893,670.15141L69.60883,670.15141
				L69.60883,670.87149L68.88874,670.87149L68.88874,671.59157L68.16865,671.59157L68.16865,672.31164L67.44856,672.31164L67.44856,673.03172
				L66.00838,673.03172L66.00838,673.7518L64.56819,673.7518L64.56819,674.47187L62.40792,674.47187L62.40792,675.19195L60.96774,675.19195
				L60.96774,675.91203L58.80746,675.91203L58.80746,676.6321L57.36728,676.6321L57.36728,677.35218"/>
			<path clip-path="url(#SVG_CP_2)" fill="none" stroke="#999999" stroke-width="0.96012" stroke-miterlimit="10" stroke-linecap="round" stroke-linejoin="round" d="
				M57.36728,677.35218L55.20701,677.35218L55.20701,678.07226L53.76682,678.07226L53.76682,678.79233L51.60655,678.79233L51.60655,679.51241
				L50.16637,679.51241L50.16637,680.23249L48.00609,680.23249L48.00609,680.95256L45.84582,680.95256L45.84582,681.67264L43.68554,681.67264
				L43.68554,682.39272L41.52527,682.39272L41.52527,683.11279L39.365,683.11279L39.365,683.83287L37.92481,683.83287L37.92481,685.51305
				L38.6449,685.51305L38.6449,687.67328L39.365,687.67328L39.365,689.83351L40.08509,689.83351L40.08509,691.99374L40.80518,691.99374
				L40.80518,694.15397L41.52527,694.15397L41.52527,695.59412L42.24536,695.59412L42.24536,697.75435L42.96545,697.75435L42.96545,699.91458
				L43.68554,699.91458L43.68554,702.07481L44.40564,702.07481L44.40564,704.23504L45.12573,704.23504L45.12573,706.39527L45.84582,706.39527
				L45.84582,708.5555L46.56591,708.5555L46.56591,709.27558L45.84582,709.27558L45.84582,709.99566L45.12573,709.99566L45.12573,710.71573
				L43.68554,710.71573L43.68554,711.43581L41.52527,711.43581L41.52527,712.15589L39.365,712.15589L39.365,712.87597L38.6449,712.87597
				L38.6449,714.31612L39.365,714.31612L39.365,716.47635L37.92481,716.47635L37.92481,717.19643L36.48463,717.19643L36.48463,717.9165
				L34.32436,717.9165L34.32436,718.63658L32.88417,718.63658L32.88417,719.35666L30.7239,719.35666L30.7239,720.07673L28.56363,720.07673
				L28.56363,720.79681L27.12344,720.79681L27.12344,721.51689L24.96317,721.51689L24.96317,722.23696L23.52299,722.23696L23.52299,722.95704
				L21.36271,722.95704L21.36271,723.67712L20.64262,723.67712L20.64262,722.23696L19.92253,722.23696L19.92253,720.79681L19.20244,720.79681
				L19.20244,720.07673L18.48235,720.07673L18.48235,718.63658L17.76225,718.63658L17.76225,717.19643L17.04216,717.19643L17.04216,715.75627
				L16.32207,715.75627L16.32207,715.0362L15.60198,715.0362L15.60198,713.59604L14.88189,713.59604L14.88189,712.15589L14.1618,712.15589
				L14.1618,710.71573L13.44171,710.71573L13.44171,709.27558L12.72161,709.27558L12.72161,707.83543L11.76149,707.83543L11.76149,707.11535
				L11.0414,707.11535L11.0414,705.6752L10.32131,705.6752L10.32131,704.23504L9.60122,704.23504L9.60122,702.79489L8.88113,702.79489
				L8.88113,701.35474L8.16104,701.35474L8.16104,699.91458L7.44094,699.91458L7.44094,698.47443L6.72085,698.47443L6.72085,697.75435
				L6.00076,697.75435L6.00076,697.03428L4.56058,697.03428L4.56058,697.75435L2.40031,697.75435L2.40031,698.47443L0.96012,698.47443
				L0.96012,699.19451L-1.20015,699.19451L-1.20015,699.91458L-2.64034,699.91458L-2.64034,701.35474L-1.92024,701.35474L-1.92024,703.51497
				L-1.20015,703.51497L-1.20015,704.95512L-0.48006,704.95512L-0.48006,707.11535L0.24003,707.11535L0.24003,709.27558L0.96012,709.27558
				L0.96012,710.71573L1.68021,710.71573L1.68021,712.87597L2.40031,712.87597L2.40031,714.31612L3.1204,714.31612L3.1204,716.47635
				L3.84049,716.47635L3.84049,717.9165L2.40031,717.9165L2.40031,718.63658L0.24003,718.63658L0.24003,719.35666L-1.92024,719.35666
				L-1.92024,720.07673L-4.80061,720.07673L-4.80061,720.79681L-6.24079,720.79681"/>
			<path clip-path="url(#SVG_CP_2)" fill="none" stroke="#999999" stroke-width="0.96012" stroke-miterlimit="10" stroke-linecap="round" stroke-linejoin="round" d="
				M-6.24079,421.72494L-5.5207,421.72494L-5.5207,422.44502L0.96012,422.44502L0.96012,423.16509L3.1204,423.16509L3.1204,422.44502
				L3.84049,422.44502L3.84049,421.72494L4.56058,421.72494L4.56058,421.00486L5.28067,421.00486L5.28067,420.28479L6.00076,420.28479
				L6.00076,419.56471L6.72085,419.56471L6.72085,418.12456L7.44094,418.12456L7.44094,417.40448L8.16104,417.40448L8.16104,416.6844
				L8.88113,416.6844L8.88113,415.96433L9.60122,415.96433L9.60122,414.52417L10.32131,414.52417L10.32131,413.8041L11.0414,413.8041
				L11.0414,413.08402L11.76149,413.08402L11.76149,412.36394L12.72161,412.36394L12.72161,411.64387L13.44171,411.64387L13.44171,410.20371
				L14.1618,410.20371L14.1618,409.48364L14.88189,409.48364L14.88189,408.76356L15.60198,408.76356L15.60198,408.04348L16.32207,408.04348
				L16.32207,406.60333L15.60198,406.60333L15.60198,405.88325L14.88189,405.88325L14.88189,405.16318L14.1618,405.16318L14.1618,404.4431
				L13.44171,404.4431L13.44171,403.00294L12.72161,403.00294L12.72161,402.28287L13.44171,402.28287L13.44171,401.56279L14.1618,401.56279
				L14.1618,400.84271L14.88189,400.84271L14.88189,400.12264L15.60198,400.12264L15.60198,399.40256L16.32207,399.40256L16.32207,398.68248
				L17.04216,398.68248L17.04216,397.96241L17.76225,397.96241L17.76225,397.24233L18.48235,397.24233L18.48235,396.52225L19.20244,396.52225
				L19.20244,395.0821L19.92253,395.0821L19.92253,394.36202L20.64262,394.36202L20.64262,393.64195L21.36271,393.64195L21.36271,392.92187
				L22.0828,392.92187L22.0828,392.20179L22.80289,392.20179L22.80289,391.48172L23.52299,391.48172L23.52299,390.76164L24.24308,390.76164
				L24.24308,390.04156L24.96317,390.04156L24.96317,389.32149L25.68326,389.32149L25.68326,388.60141L26.40335,388.60141L26.40335,387.88133
				L27.12344,387.88133L27.12344,386.44118L27.84353,386.44118L27.84353,385.7211L28.56363,385.7211L28.56363,385.00103L29.28372,385.00103
				L29.28372,384.28095L30.00381,384.28095L30.00381,383.56087L30.7239,383.56087L30.7239,382.8408L31.44399,382.8408L31.44399,382.12072
				L32.16408,382.12072L32.16408,381.40064L32.88417,381.40064L32.88417,380.68057L33.60426,380.68057L33.60426,379.96049L34.32436,379.96049
				L34.32436,378.52034L35.04445,378.52034L35.04445,377.80026L35.76454,377.80026L35.76454,377.08018L36.48463,377.08018L36.48463,376.36011
				L37.20472,376.36011L37.20472,375.64003L37.92481,375.64003L37.92481,374.91995L39.365,374.91995L39.365,375.64003L40.08509,375.64003
				L40.08509,376.36011L40.80518,376.36011L40.80518,377.08018L41.52527,377.08018L41.52527,377.80026L42.24536,377.80026L42.24536,378.52034
				L42.96545,378.52034L42.96545,379.24041L43.68554,379.24041L43.68554,379.96049L44.40564,379.96049L44.40564,380.68057L45.12573,380.68057
				L45.12573,381.40064L45.84582,381.40064L45.84582,382.12072L46.56591,382.12072L46.56591,382.8408L47.286,382.8408L47.286,383.56087
				L48.00609,383.56087L48.00609,384.28095L48.72618,384.28095L48.72618,385.00103L49.44628,385.00103L49.44628,385.7211L50.16637,385.7211
				L50.16637,386.44118L50.88646,386.44118L50.88646,387.16126L51.60655,387.16126L51.60655,387.88133L52.32664,387.88133L52.32664,388.60141
				L53.04673,388.60141L53.04673,389.32149L53.76682,389.32149L53.76682,390.04156L54.48692,390.04156L54.48692,390.76164L55.20701,390.76164
				L55.20701,391.48172L55.9271,391.48172L55.9271,392.20179L56.64719,392.20179L56.64719,392.92187L57.36728,392.92187L57.36728,393.64195
				L58.08737,393.64195L58.08737,394.36202L58.80746,394.36202L58.80746,395.0821L59.52755,395.0821L59.52755,395.80218L60.24765,395.80218
				L60.24765,397.24233L59.52755,397.24233L59.52755,397.96241L58.80746,397.96241L58.80746,398.68248L58.08737,398.68248L58.08737,399.40256
				L58.80746,399.40256L58.80746,400.84271L59.52755,400.84271L59.52755,401.56279L60.24765,401.56279L60.24765,403.00294L60.96774,403.00294
				L60.96774,404.4431L61.68783,404.4431L61.68783,405.16318L62.40792,405.16318L62.40792,406.60333L63.12801,406.60333L63.12801,407.32341
				L63.8481,407.32341L63.8481,408.76356L64.56819,408.76356L64.56819,410.20371L65.28829,410.20371L65.28829,409.48364L66.72847,409.48364
				L66.72847,408.76356L68.16865,408.76356L68.16865,408.04348L69.60883,408.04348L69.60883,408.76356L70.32893,408.76356L70.32893,409.48364
				L71.04902,409.48364L71.04902,410.92379L71.76911,410.92379L71.76911,411.64387L72.4892,411.64387L72.4892,413.08402L73.20929,413.08402
				L73.20929,413.8041L73.92938,413.8041L73.92938,414.52417L74.64947,414.52417L74.64947,415.96433L75.36957,415.96433L75.36957,426.28543
				L76.80975,426.28543L76.80975,425.56535L78.24993,425.56535L78.24993,424.84527L80.4102,424.84527L80.4102,423.88517L81.85039,423.88517
				L81.85039,423.16509L84.01066,423.16509L84.01066,422.44502L85.45084,422.44502L85.45084,421.72494L87.61112,421.72494L87.61112,423.16509
				L88.33121,423.16509L88.33121,425.56535L89.0513,425.56535L89.0513,427.72558L89.77139,427.72558L89.77139,427.0055L90.49148,427.0055
				L90.49148,426.28543L91.21158,426.28543L91.21158,425.56535L91.93167,425.56535L91.93167,424.84527L92.65176,424.84527L92.65176,423.88517
				L93.37185,423.88517L93.37185,423.16509L94.81203,423.16509L94.81203,422.44502L95.53212,422.44502L95.53212,421.72494L96.25222,421.72494
				L96.25222,421.00486L96.97231,421.00486L96.97231,420.28479L97.6924,420.28479L97.6924,419.56471L98.41249,419.56471L98.41249,415.24425
				L97.6924,415.24425L97.6924,410.92379L96.97231,410.92379L96.97231,408.04348L97.6924,408.04348L97.6924,407.32341L99.37261,407.32341
				L99.37261,406.60333L101.53289,406.60333L101.53289,403.00294L102.25298,403.00294L102.25298,402.28287L103.69316,402.28287L
				103.69316,401.56279L104.41325,401.56279L104.41325,400.84271L105.13334,400.84271L105.13334,400.12264L106.57352,400.12264L
				106.57352,399.40256L107.29362,399.40256L107.29362,398.68248L108.01371,398.68248L108.01371,397.96241L109.45389,397.96241L
				109.45389,397.24233L110.17398,397.24233L110.17398,396.52225L110.89407,396.52225L110.89407,395.80218L112.33426,395.80218L
				112.33426,395.0821L113.05435,395.0821L113.05435,394.36202L113.77444,394.36202L113.77444,393.64195L115.21462,393.64195L115.21462,392.92187
				L115.93471,392.92187L115.93471,390.76164L115.21462,390.76164L115.21462,387.88133L114.49453,387.88133L114.49453,385.7211L
				115.21462,385.7211L115.21462,385.00103L115.93471,385.00103L115.93471,384.28095L116.6548,384.28095L116.6548,383.56087L117.3749,383.56087
				L117.3749,382.8408L118.09499,382.8408L118.09499,382.12072L118.81508,382.12072L118.81508,381.40064L119.53517,381.40064L119.53517,380.68057
				L120.25526,380.68057L120.25526,379.96049L120.97535,379.96049L120.97535,379.24041L121.69544,379.24041L121.69544,378.52034
				L122.41554,378.52034L122.41554,377.80026L123.13563,377.80026L123.13563,377.08018L124.57581,377.08018L124.57581,376.36011
				L125.2959,376.36011L125.2959,375.64003L126.01599,375.64003L126.01599,374.91995L126.73608,374.91995L126.73608,374.19988L127.45618,374.19988
				L127.45618,373.4798L128.17627,373.4798L128.17627,372.75972L128.89636,372.75972L128.89636,372.03965L129.61645,372.03965L129.61645,371.31957
				L130.33654,371.31957L130.33654,370.59949L131.05663,370.59949L131.05663,369.87942L131.77672,369.87942L131.77672,369.15934
				L132.49681,369.15934L132.49681,368.43926L133.21691,368.43926L133.21691,367.71918L133.937,367.71918L133.937,366.99911L134.65709,366.99911
				L134.65709,366.27903L135.37718,366.27903L135.37718,365.55895L136.09727,365.55895L136.09727,364.83888L136.81736,364.83888
				L136.81736,364.1188L137.53745,364.1188L137.53745,363.39872L138.25755,363.39872L138.25755,361.95857L136.81736,361.95857L136.81736,361.23849
				L136.09727,361.23849L136.09727,360.51842L134.65709,360.51842L134.65709,359.79834L133.937,359.79834L133.937,359.07826L132.49681,359.07826
				L132.49681,358.35819L131.77672,358.35819L131.77672,357.63811L131.05663,357.63811L131.05663,356.91803L129.61645,356.91803
				L129.61645,356.19796L128.89636,356.19796L128.89636,355.47788L127.45618,355.47788L127.45618,354.7578L126.73608,354.7578L126.73608,354.03773
				L125.2959,354.03773L125.2959,353.31765L124.57581,353.31765L124.57581,352.59757L123.13563,352.59757L123.13563,351.8775L122.41554,351.8775
				L122.41554,351.15742L120.97535,351.15742L120.97535,350.43734L120.25526,350.43734L120.25526,349.71727L118.81508,349.71727
				L118.81508,348.99719L118.09499,348.99719L118.09499,348.27711L116.6548,348.27711L116.6548,347.55704L115.93471,347.55704L115.93471,346.83696
				L114.49453,346.83696L114.49453,346.11688L113.77444,346.11688L113.77444,345.39681L113.05435,345.39681L113.05435,344.67673
				L111.61416,344.67673L111.61416,343.95665L110.89407,343.95665L110.89407,343.23658L109.45389,343.23658L109.45389,342.5165L
				108.7338,342.5165L108.7338,341.79642L107.29362,341.79642L107.29362,340.35627L108.01371,340.35627L108.01371,339.63619L108.7338,339.63619
				L108.7338,338.91612L109.45389,338.91612L109.45389,338.19604L110.17398,338.19604L110.17398,336.51586L110.89407,336.51586L
				110.89407,335.79578L111.61416,335.79578L111.61416,335.07571L112.33426,335.07571L112.33426,334.35563L113.05435,334.35563L
				113.05435,332.91548L113.77444,332.91548L113.77444,332.1954L114.49453,332.1954L114.49453,331.47532L116.6548,331.47532L116.6548,332.1954
				L123.13563,332.1954L123.13563,332.91548L130.33654,332.91548L130.33654,333.63555L131.77672,333.63555L131.77672,334.35563L
				133.21691,334.35563L133.21691,335.07571L135.37718,335.07571L135.37718,335.79578L136.81736,335.79578L136.81736,336.51586L
				138.97764,336.51586L138.97764,337.23594L140.41782,337.23594L140.41782,338.19604L142.57809,338.19604L142.57809,338.91612L
				144.01828,338.91612L144.01828,339.63619L145.45846,339.63619L145.45846,340.35627L146.89864,340.35627L146.89864,341.07635L
				147.61873,341.07635L147.61873,341.79642L149.05892,341.79642L149.05892,342.5165L149.77901,342.5165L149.77901,343.23658L150.4991,343.23658
				L150.4991,343.95665L151.21919,343.95665L151.21919,344.67673L152.65937,344.67673L152.65937,345.39681L153.37946,345.39681L
				153.37946,346.11688L154.09956,346.11688L154.09956,346.83696L154.81965,346.83696L154.81965,347.55704L156.25983,347.55704L
				156.25983,348.27711L166.34111,348.27711L166.34111,348.99719L167.78129,348.99719L167.78129,349.71727L168.50138,349.71727L
				168.50138,350.43734L169.22148,350.43734L169.22148,351.15742L169.94157,351.15742L169.94157,351.8775L171.38175,351.8775L171.38175,352.59757
				L172.10184,352.59757L172.10184,353.31765L172.82193,353.31765L172.82193,354.03773L173.54202,354.03773L173.54202,356.19796
				L174.26211,356.19796L174.26211,359.79834L174.98221,359.79834L174.98221,362.67865L175.7023,362.67865L175.7023,363.39872L176.42239,363.39872
				L176.42239,364.1188L177.14248,364.1188L177.14248,364.83888L177.86257,364.83888L177.86257,365.55895L178.58266,365.55895L178.58266,366.99911
				L179.30275,366.99911L179.30275,367.71918L180.02285,367.71918L180.02285,368.43926L180.74294,368.43926L180.74294,369.15934
				L181.46303,369.15934L181.46303,369.87942L182.18312,369.87942L182.18312,370.59949L182.90321,370.59949L182.90321,371.31957
				L183.6233,371.31957L183.6233,372.75972L185.06349,372.75972L185.06349,373.4798L186.02361,373.4798L186.02361,374.19988L186.7437,374.19988
				L186.7437,374.91995L187.46379,374.91995L187.46379,375.64003L188.18388,375.64003L188.18388,376.36011L188.90397,376.36011L
				188.90397,377.08018L190.34416,377.08018L190.34416,376.36011L191.06425,376.36011L191.06425,375.64003L192.50443,375.64003L
				192.50443,374.91995L193.22452,374.91995L193.22452,374.19988L194.6647,374.19988L194.6647,373.4798L195.3848,373.4798L195.3848,372.75972
				L196.10489,372.75972L196.10489,372.03965L197.54507,372.03965L197.54507,371.31957L198.26516,371.31957L198.26516,370.59949
				L198.98525,370.59949L198.98525,369.87942L200.42544,369.87942L200.42544,369.15934L201.14553,369.15934L201.14553,368.43926
				L202.58571,368.43926L202.58571,367.71918L203.3058,367.71918L203.3058,366.99911L204.02589,366.99911L204.02589,366.27903L205.46607,366.27903
				L205.46607,365.55895L206.18617,365.55895L206.18617,364.83888L206.90626,364.83888L206.90626,364.1188L208.34644,364.1188L208.34644,361.95857
				L207.62635,361.95857L207.62635,360.51842L206.90626,360.51842L206.90626,359.79834L207.62635,359.79834L207.62635,359.07826
				L209.78662,359.07826L209.78662,358.35819L211.22681,358.35819L211.22681,357.63811L213.38708,357.63811L213.38708,356.91803
				L215.54735,356.91803L215.54735,356.19796L218.42772,356.19796L218.42772,355.47788L221.30809,355.47788L221.30809,354.7578L
				224.18845,354.7578L224.18845,354.03773L226.34872,354.03773L226.34872,353.31765L229.22909,353.31765L229.22909,352.59757L232.10946,352.59757
				L232.10946,351.8775L234.98982,351.8775L234.98982,351.15742L237.1501,351.15742L237.1501,350.43734L240.03046,350.43734L240.03046,349.71727
				L242.91083,349.71727L242.91083,348.99719L244.35101,348.99719L244.35101,348.27711L245.0711,348.27711L245.0711,347.55704L246.51128,347.55704
				L246.51128,346.83696L247.23137,346.83696L247.23137,348.27711L247.95147,348.27711L247.95147,349.71727L248.67156,349.71727
				L248.67156,350.43734L249.39165,350.43734L249.39165,351.15742L250.11174,351.15742L250.11174,352.59757L250.83183,352.59757
				L250.83183,353.31765L251.55192,353.31765L251.55192,354.03773L252.27201,354.03773L252.27201,355.47788L252.99211,355.47788
				L252.99211,356.19796L253.7122,356.19796L253.7122,356.91803L254.43229,356.91803L254.43229,358.35819L255.15238,358.35819L255.15238,359.07826
				L255.87247,359.07826L255.87247,359.79834L256.59256,359.79834L256.59256,361.23849L257.31265,361.23849L257.31265,361.95857
				L258.03275,361.95857L258.03275,362.67865L258.75284,362.67865L258.75284,364.1188L259.47293,364.1188L259.47293,364.83888L260.19302,364.83888
				L260.19302,365.55895L260.91311,365.55895L260.91311,366.27903L261.6332,366.27903L261.6332,366.99911L262.35329,366.99911L262.35329,367.71918
				L263.07339,367.71918L263.07339,368.43926L263.79348,368.43926L263.79348,369.15934L264.51357,369.15934L264.51357,369.87942
				L265.23366,369.87942L265.23366,370.59949L265.95375,370.59949L265.95375,371.31957L266.67384,371.31957L266.67384,372.03965
				L267.39393,372.03965L267.39393,372.75972L268.11402,372.75972L268.11402,373.4798L268.83412,373.4798L268.83412,374.19988L269.55421,374.19988
				L269.55421,374.91995L270.2743,374.91995L270.2743,375.64003L270.99439,375.64003L270.99439,376.36011L271.71448,376.36011L271.71448,377.08018
				L272.6746,377.08018L272.6746,377.80026L273.3947,377.80026L273.3947,378.52034L274.11479,378.52034L274.11479,379.24041L274.83488,379.24041
				L274.83488,379.96049L275.55497,379.96049L275.55497,380.68057L276.27506,380.68057L276.27506,381.40064L276.99515,381.40064
				L276.99515,382.12072L277.71524,382.12072L277.71524,382.8408L278.43533,382.8408L278.43533,383.56087L279.15543,383.56087L279.15543,384.28095
				L279.87552,384.28095"/>
		</g>
</g></svg>