<?xml version="1.0" encoding="utf-8" standalone="no"?>
<!-- Creator: ESRI ArcMap 10.0.0.2414 -->
<!DOCTYPE svg PUBLIC "-//W3C//DTD SVG 1.1//EN"  "http://www.w3.org/Graphics/SVG/1.1/DTD/svg11.dtd">
<svg width="595.50236pt" height="595.50236pt" viewBox="25 148.377955 545.50236 545.50236" enable-background="new 25 148.377955 545.50236 545.50236"
	version="1.1" xmlns="http://www.w3.org/2000/svg" xmlns:xlink="http://www.w3.org/1999/xlink" >
	<g id="Couches">
		<g id="reservoirs">
			<path clip-path="url(#SVG_CP_2)" fill-opacity="0.2" fill="#07866D" fill-rule="evenodd" stroke="none" stroke-width="" stra="1.44018" stroke-miterlimit="10" stroke-linecap="round" stroke-linejoin="round" d="
				M527.58695,861.21177L547.98954,831.68863L569.59228,843.92993L569.11222,845.13006L565.27174,855.21113L571.99259,861.21177
				L527.58695,861.21177zM-6.24079,743.11919L2.16027,751.52008L24.48311,723.91714L17.52222,715.9963L33.60426,701.11471L37.20472,678.31228
				L59.04749,657.91011L54.72695,652.14949L87.13106,618.06586L115.93471,642.06842L141.858,622.38632L64.80822,543.17788L75.6096,518.69527
				L104.17322,458.9289L119.05511,427.24553L120.25526,426.52545L121.45541,425.80537L125.77596,427.0055L135.61721,435.16637L144.25831,444.04732
				L202.10565,505.01382L240.03046,538.13734L257.31265,525.17596L265.71372,498.2931L285.63625,434.92635L319.9606,456.76867L339.6431,470.45013
				L352.60475,477.41087L359.56563,485.57174L363.16609,496.85295L355.72514,508.6142L365.08633,516.53504L376.84782,511.01445L
				386.68907,511.97456L394.85011,522.29566L393.88999,528.05627L389.08938,535.73709L382.36852,541.4977L384.76883,548.21842L385.72895,553.01893
				L392.4498,559.97967L397.49044,566.94041L405.17142,555.89924L417.89303,570.5408L412.37233,575.10128L405.89151,578.70167L400.37081,584.70231
				L395.5702,591.90307L408.05178,608.70486L414.53261,605.58453L419.57325,606.06458L426.05407,611.10512L428.21434,615.90563L
				432.77492,623.1064L433.73504,624.0665L433.49501,630.30717L438.53565,630.54719L439.97583,631.74732L441.41602,632.94745L445.2565,637.74796
				L444.77644,643.50857L445.9766,644.7087L452.21739,651.18939L455.81785,653.82967L454.61769,655.0298L451.97736,655.0298L445.2565,657.91011
				L430.85468,669.67136L422.21358,673.99182L415.2527,681.19259L414.29258,686.47315L408.53184,694.87405L407.57172,701.59476L
				406.13154,703.51497L402.29105,711.19579L412.1323,721.75691L427.25422,733.99822L440.4559,746.9596L450.29714,756.56062L456.29791,765.44157
				L457.25803,766.64169L454.85772,773.12239L423.1737,815.36689L443.33626,830.00845L468.77949,845.85014L472.86001,851.61075L
				469.49958,856.89131L466.37919,861.21177L-6.24079,861.21177L-6.24079,743.11919z"/>
			<path clip-path="url(#SVG_CP_2)" fill-opacity="0.2" fill="#07866D" fill-rule="evenodd" stroke="none" stroke-width="" stra="1.44018" stroke-miterlimit="10" stroke-linecap="round" stroke-linejoin="round" d="
				M601.9964,501.65346L469.97964,440.44693L183.6233,321.39425L175.22224,317.79386L184.58342,310.83312L188.90397,307.71279L227.30885,279.14975
				L232.34949,275.54936L238.83031,262.10793L230.18921,235.46509L248.91159,226.10409L261.39317,212.66266L275.55497,197.78108
				L255.15238,157.6968L305.31875,51.12545L336.28268,-18.722L373.96746,-18.722L384.5288,-0.48005L413.81251,50.40537L513.90522,206.422
				L527.34692,218.90333L532.62759,208.82225L554.23033,182.89949L579.67356,117.85256L584.47417,108.49156L601.9964,110.17174L
				601.9964,501.65346z"/>
		</g>
</g></svg>