<?xml version="1.0" encoding="utf-8" standalone="no"?>
<!-- Creator: ESRI ArcMap 10.0.0.2414 -->
<!DOCTYPE svg PUBLIC "-//W3C//DTD SVG 1.1//EN"  "http://www.w3.org/Graphics/SVG/1.1/DTD/svg11.dtd">
<svg width="595.50236pt" height="595.50236pt" viewBox="25 148.377955 545.50236 545.50236" enable-background="new 25 148.377955 545.50236 545.50236"
	version="1.1" xmlns="http://www.w3.org/2000/svg" xmlns:xlink="http://www.w3.org/1999/xlink" >
	<g id="Couches">
		<g id="cont_2">
			<path clip-path="url(#SVG_CP_2)" fill="none" stroke="#999999" stroke-width="0.96012" stroke-miterlimit="10" stroke-linecap="round" stroke-linejoin="round" d="
				M601.9964,494.69272L582.07387,494.69272L582.07387,489.17213L544.14905,489.17213L544.14905,483.65154L505.98421,483.65154L
				505.98421,478.37098L445.9766,478.37098L445.9766,472.85039L386.20901,472.85039L386.20901,467.3298L315.40003,467.3298L315.40003,347.55704
				L424.13382,347.55704L424.13382,353.07762L601.9964,353.07762"/>
			<path clip-path="url(#SVG_CP_2)" fill="none" stroke="#999999" stroke-width="0.96012" stroke-miterlimit="10" stroke-linecap="round" stroke-linejoin="round" d="
				M-6.24079,227.78427L-6.00076,227.78427L-6.00076,233.30486L4.80061,233.30486L4.80061,238.58542L15.84201,238.58542L15.84201,244.10601
				L21.12268,244.10601L21.12268,249.6266L32.16408,249.6266L32.16408,254.90716L42.96545,254.90716L42.96545,260.42775L48.48615,260.42775
				L48.48615,265.94834L59.28752,265.94834L59.28752,271.2289L70.32893,271.2289L70.32893,347.55704L299.07795,347.55704L299.07795,467.3298
				L173.78205,467.3298L173.78205,472.85039L157.45998,472.85039L157.45998,478.37098L141.13791,478.37098L141.13791,483.65154L
				130.09651,483.65154L130.09651,489.17213L113.77444,489.17213L113.77444,494.69272L102.97307,494.69272L102.97307,499.97328L
				97.45237,499.97328L97.45237,505.49387L86.651,505.49387L86.651,511.01445L81.1303,511.01445L81.1303,516.29502L75.6096,516.29502
				L75.6096,521.81561L70.32893,521.81561L70.32893,527.33619L59.28752,527.33619L59.28752,532.85678L54.00685,532.85678L54.00685,538.13734
				L48.48615,538.13734L48.48615,543.65793L42.96545,543.65793L42.96545,549.17852L37.68478,549.17852L37.68478,554.45908L26.64338,554.45908
				L26.64338,559.97967L21.12268,559.97967L21.12268,565.50026L15.84201,565.50026L15.84201,570.78082L10.32131,570.78082L10.32131,576.30141
				L4.80061,576.30141L4.80061,581.822L-6.00076,581.822L-6.00076,587.10256L-6.24079,587.10256"/>
		</g>
</g></svg>