<?xml version="1.0" encoding="utf-8" standalone="no"?>
<!-- Creator: ESRI ArcMap 10.0.0.2414 -->
<!DOCTYPE svg PUBLIC "-//W3C//DTD SVG 1.1//EN"  "http://www.w3.org/Graphics/SVG/1.1/DTD/svg11.dtd">
<svg width="595.50236pt" height="595.50236pt" viewBox="25 148.377955 545.50236 545.50236" enable-background="new 25 148.377955 545.50236 545.50236"
	version="1.1" xmlns="http://www.w3.org/2000/svg" xmlns:xlink="http://www.w3.org/1999/xlink" >
	<g id="Couches">
		<g id="reservoirs">
			<path clip-path="url(#SVG_CP_2)" fill-opacity="0.2" fill="#07866D" fill-rule="evenodd" stroke="none" stroke-width="" stra="1.44018" stroke-miterlimit="10" stroke-linecap="round" stroke-linejoin="round" d="
				M400.37081,462.04924L406.6116,468.76995L409.25194,471.65026L408.05178,472.13031L407.33169,470.69016L406.13154,469.49003L
				406.37157,470.93018L403.97127,471.41023L403.4912,468.76995L400.61084,468.76995L400.85087,471.65026L401.33093,473.09041L401.33093,473.57046
				L400.61084,473.57046L399.41069,473.81049L398.21053,474.29054L397.25041,474.53057L396.05026,474.77059L395.09014,475.01062
				L394.13002,475.25064L391.96974,475.73069L390.28953,476.21075L389.32941,476.45077L388.60932,476.6908L387.88922,476.6908L386.68907,477.17085
				L384.76883,477.6509L382.84859,478.13095L380.92834,478.611L380.68831,478.611L379.0081,479.09105L378.28801,479.09105L377.80795,479.33108
				L377.80795,479.09105L377.80795,478.37098L377.80795,478.13095L378.04798,475.97072L379.48816,467.08977L380.92834,457.48875
				L381.88846,451.72814L387.16913,453.64834L390.52956,455.0885L391.72971,455.80857L396.53032,458.44885L400.37081,462.04924z
				"/>
			<path clip-path="url(#SVG_CP_2)" fill-opacity="0.2" fill="#07866D" fill-rule="evenodd" stroke="none" stroke-width="" stra="1.44018" stroke-miterlimit="10" stroke-linecap="round" stroke-linejoin="round" d="
				M328.12164,11.76125L331.00201,12.00128L333.64234,12.00128L337.2428,11.76125L348.52423,9.84105L355.72514,7.92084L364.36624,4.56049
				L369.88694,2.16023L374.20749,4.80051L373.24737,7.44079L372.76731,9.12097L372.28724,11.52123L371.80718,13.44143L371.08709,15.12161
				L370.12697,17.04182L368.92682,19.44207L367.9667,21.12225L367.9667,21.6023L367.9667,22.08235L368.20673,23.28248L369.16685,24.96266
				L370.60703,27.12289L372.52728,30.0032L373.72743,31.9234L374.68755,33.60358L375.16761,35.52379L374.68755,36.24386L374.68755,36.48389
				L373.4874,37.44399L371.56715,38.88414L369.40688,40.3243L367.48664,41.76445L365.56639,42.96458L363.40612,44.40473L365.80642,47.04501
				L368.20673,45.12481L368.92682,44.64476L369.40688,45.36483L369.88694,46.08491L371.08709,47.52506L371.80718,48.72519L372.28724,49.6853
				L372.76731,51.12545L373.24737,53.04565L373.4874,54.72583L373.24737,56.40601L373.00734,57.36611L372.52728,58.80627L372.04721,60.00639
				L371.80718,61.68657L371.56715,63.12673L371.56715,64.56688L371.56715,66.24706L371.32712,67.44719L371.56715,69.84744L372.04721,71.52762
				L373.00734,73.44783L373.4874,74.40793L373.4874,75.36803L373.24737,76.32813L372.76731,78.00831L372.04721,79.92852L371.56715,81.6087
				L370.367,83.76893L370.12697,84.24898L369.16685,85.68913L367.72667,86.64923L364.8463,88.80946L359.80566,91.68977L363.16609,97.21036
				L363.88618,98.17046L355.24508,102.73095L355.00505,102.2509L352.36472,96.73031L349.72438,99.13056L348.04417,101.05077L346.12392,102.97097
				L345.1638,103.69105L343.96365,103.93108L343.24356,104.1711L343.00353,104.1711L337.72286,98.65051L334.60246,101.29079L330.76198,96.01023
				L327.40155,99.61062L328.84173,100.81074L329.56182,101.77085L330.04188,102.49092L326.68146,103.93108L328.36167,107.29143L
				327.64158,107.77148L329.08176,110.89182L329.56182,113.77212L330.04188,114.4922L330.52194,115.4523L331.00201,116.17238L331.00201,117.37251
				L331.24204,118.33261L331.24204,118.81266L331.24204,119.53274L331.7221,120.49284L333.64234,122.17302L335.32255,124.09322L
				337.00277,126.01343L338.44295,127.45358L340.60322,128.89374L342.28344,130.33389L343.96365,131.29399L345.1638,131.77404L348.76426,132.49412
				L349.72438,133.2142L351.16456,133.93427L352.60475,133.93427L352.84478,133.93427L353.8049,134.1743L355.72514,134.89437L357.40536,135.37443
				L359.3256,136.0945L360.52575,136.57455L361.96594,138.01471L362.68603,138.49476L364.36624,140.65499L365.80642,141.13504L366.04645,142.09514
				L367.24661,143.05524L368.20673,143.5353L367.72667,147.13568L366.04645,146.17558L365.32636,147.13568L365.08633,148.09578L
				364.36624,149.05588L364.12621,149.77596L361.24584,149.77596L361.00581,152.17622L355.00505,156.49668L353.56487,156.01663L
				353.8049,152.41624L354.76502,151.21611L354.28496,149.77596L353.32484,147.61573L352.60475,146.17558L351.88466,144.4954L349.72438,142.57519
				L345.40383,139.93491L343.48359,137.53466L341.08328,135.1344L340.12316,134.41432L339.88313,134.1743L338.68298,132.01407L338.44295,131.77404
				L338.44295,131.53402L338.20292,131.53402L336.28268,129.13376L334.36243,126.97353L332.20216,124.33325L331.24204,124.57328
				L329.80185,123.13312L329.32179,123.61317L329.56182,124.09322L328.36167,124.8133L327.40155,122.17302L327.16152,121.21292L
				326.92149,119.53274L328.84173,119.05269L329.08176,119.05269L329.56182,118.33261L329.80185,117.37251L329.56182,116.17238L
				329.32179,115.21228L328.84173,114.01215L328.12164,114.01215L327.64158,112.572L327.40155,111.13184L326.44143,109.45166L325.72134,108.01151
				L324.52118,105.85128L323.56106,104.89118L319.9606,103.45102L316.84021,101.77085L314.91996,101.05077L312.99972,100.09067L
				311.55954,104.41113L308.19911,103.45102L304.35862,102.2509L302.43838,101.77085L300.9982,101.05077L299.79805,100.81074L299.07795,99.61062
				L298.59789,98.65051L297.63777,98.17046L296.67765,98.65051L296.67765,99.13056L296.43762,99.85064L292.83716,101.53082L291.63701,101.05077
				L290.43686,101.05077L288.75664,102.97097L289.23671,103.211L288.51661,103.93108L287.55649,104.41113L287.55649,105.1312L285.87628,105.37123
				L284.91616,105.37123L283.23594,104.1711L282.51585,103.45102L281.55573,102.01087L281.07567,101.53082L280.59561,100.81074L
				280.35558,99.85064L280.11555,98.65051L276.75512,96.73031L275.31494,95.77021L274.83488,95.05013L274.35482,94.33005L272.91463,93.85
				L271.71448,93.60998L270.75436,92.8899L270.75436,91.9298L270.03427,91.68977L269.31418,92.16982L268.35406,92.64987L267.39393,92.8899
				L265.95375,93.12992L264.99363,93.60998L264.03351,93.60998L264.03351,92.8899L260.91311,93.12992L259.2329,92.8899L258.03275,92.8899
				L256.35253,92.16982L255.87247,91.44975L255.39241,90.72967L254.19226,90.48964L252.51205,89.28952L251.31189,87.84936L251.55192,86.88926
				L252.03198,85.44911L252.27201,84.489L253.23214,83.5289L253.7122,82.80882L254.19226,82.08875L254.91235,81.12865L251.07186,79.92852
				L247.95147,79.20844L243.87095,78.72839L241.47064,78.48836L240.27049,78.48836L239.31037,79.44847L239.79043,81.36867L240.03046,82.80882
				L239.79043,83.76893L240.51052,84.96905L240.75055,86.40921L240.51052,87.36931L240.51052,87.60934L239.79043,88.32941L238.83031,90.00959
				L237.87019,90.96969L237.63016,91.9298L237.87019,93.36995L239.07034,93.60998L241.23061,93.60998L243.15086,93.12992L244.35101,93.12992
				L245.55116,93.60998L245.79119,94.33005L245.55116,95.29015L245.31113,96.01023L244.11098,96.73031L243.15086,98.17046L243.63092,98.65051
				L245.55116,98.17046L246.99134,98.17046L247.95147,98.41049L248.1915,98.41049L249.63168,98.65051L252.03198,98.89054L254.91235,100.81074
				L254.67232,112.09195L254.91235,119.77276L250.35177,117.85256L248.43153,117.61253L246.03122,116.89246L243.39089,118.33261
				L240.99058,117.37251L236.91007,117.61253L234.26973,117.37251L231.62939,116.89246L228.74903,116.89246L226.58876,116.89246
				L225.3886,116.41241L223.46836,114.73223L222.02818,112.572L220.58799,111.85192L218.90778,110.89182L215.78738,109.45166L212.42696,108.73159
				L210.02665,108.49156L209.06653,108.01151L208.34644,107.53146L207.38632,105.1312L206.66623,103.93108L205.94614,103.69105L
				205.22604,104.41113L204.50595,105.1312L203.3058,105.61125L200.9055,105.85128L198.50519,105.85128L196.10489,105.61125L194.6647,105.37123
				L193.22452,105.37123L191.78434,106.33133L189.86409,107.29143L189.144,107.77148L186.26364,111.37187L185.30352,110.65179L184.10336,111.13184
				L189.144,119.77276L190.34416,122.41304L191.78434,125.29335L192.74446,128.89374L193.22452,130.81394L193.46455,132.01407L194.18464,133.2142
				L192.98449,135.1344L191.78434,136.81458L191.54431,139.45486L191.54431,140.41496L191.78434,141.85512L192.2644,144.4954L192.98449,146.89565
				L193.70458,147.85576L194.18464,150.01599L194.90473,154.57647L195.3848,157.93683L195.3848,160.33709L194.90473,162.25729L194.90473,163.45742
				L193.70458,164.41752L192.98449,164.1775L191.06425,162.97737L189.86409,162.01727L189.62406,160.09706L183.38327,151.21611L
				179.30275,156.01663L181.70306,157.21675L183.38327,158.89693L185.54355,160.33709L189.86409,163.21739L192.98449,165.37762L
				193.22452,165.37762L192.98449,166.81778L192.98449,170.17813L196.58495,170.65819L197.30504,170.65819L197.54507,167.53785L
				201.62559,169.69808L204.02589,170.65819L204.98601,171.61829L205.46607,172.33837L205.70611,173.05844L205.46607,174.73862L
				204.74598,180.25921L204.26592,185.29975L202.58571,195.62085L202.10565,197.30103L201.86562,198.26113L201.38556,199.22123L
				201.38556,200.66138L204.02589,202.58159L204.50595,203.06164L207.38632,205.22187L209.30656,205.94195L210.74674,205.94195L
				212.18693,205.22187L213.62711,204.26177L215.30732,202.34156L216.26745,201.14143L216.98754,205.94195L219.14781,206.422L219.62787,204.26177
				L221.30809,200.66138L222.50824,198.9812L234.26973,199.22123L238.35025,198.9812L246.03122,199.22123L252.27201,199.46126L257.07262,199.94131
				L260.67308,200.42136L266.19378,201.86151L270.03427,202.58159L274.59485,203.78172L277.47521,204.74182L278.1953,206.90205L
				277.71524,208.3422L277.95527,210.26241L279.63549,210.50243L280.59561,210.74246L282.27582,205.94195L291.87704,208.3422L288.99668,215.54297
				L291.15695,216.26305L291.87704,214.82289L292.11707,214.10282L293.55725,214.58287L293.79728,213.62276L295.71753,214.34284
				L295.95756,213.38274L296.43762,210.98248L296.91768,209.54233L301.47826,210.26241L301.23823,211.94259L299.79805,217.22315
				L306.5189,219.14335L308.19911,219.38338L306.99896,222.74374L311.31951,223.94386L309.87933,226.82417L312.99972,228.26432L
				317.5603,230.66458L319.72057,221.30358L320.92073,214.82289L324.04112,216.50307L326.92149,218.42328L327.64158,218.6633L327.88161,219.6234
				L327.40155,221.78363L327.16152,222.26369L326.68146,224.42392L326.2014,227.0642L325.72134,230.42455L325.24127,232.34476L324.76121,234.26496
				L323.56106,237.14527L322.12088,239.3055L320.6807,244.34604L320.44067,245.30614L320.20063,246.02622L319.72057,246.74629L319.00048,247.94642
				L318.04036,248.90652L317.08024,249.6266L316.36015,251.30678L316.12012,252.74693L316.12012,254.18709L315.88009,254.90716L
				316.84021,256.58734L298.35786,254.42711L306.99896,259.22762L311.31951,261.86791L313.23975,263.54808L310.35939,265.94834L
				308.67917,268.10857L303.3985,265.22826L301.47826,264.02814L300.9982,265.46829L300.51814,268.10857L299.79805,269.3087L299.55802,270.50883
				L300.03808,272.42903L300.75817,274.34924L302.19835,276.98952L304.59865,281.06995L303.3985,281.30998L301.23823,281.55L299.79805,282.03005
				L297.8778,282.75013L295.71753,283.47021L293.31722,284.43031L292.11707,284.91036L289.47674,285.87046L287.55649,286.83057L
				285.87628,287.55064L276.99515,294.27136L275.795,294.99144L274.35482,296.19156L272.6746,297.39169L271.47445,298.11177L268.83412,299.79195
				L267.39393,300.75205L266.67384,301.47213L265.23366,302.91228L264.51357,303.87238L263.55345,305.55256L262.35329,308.19284
				L260.91311,311.07315L258.03275,314.67353L254.43229,318.75397L250.5918,322.59438L243.39089,328.59502L237.1501,334.1156L232.34949,338.19604
				L228.98906,341.07635L228.26897,342.27647L227.54888,343.23658L226.58876,343.95665L225.62863,345.87686L224.18845,348.03709
				L223.70839,350.19732L222.9883,352.35755L222.74827,353.07762L221.54812,356.67801L220.58799,358.83824L217.70763,359.55832L
				215.78738,360.51842L214.58723,361.71855L213.38708,363.39872L212.42696,363.39872L212.66699,366.27903L214.3472,366.75908L214.58723,367.47916
				L214.82726,368.91931L214.3472,370.83952L217.94766,370.83952L218.18769,373.4798L212.18693,374.67993L212.90702,376.12008L213.38708,377.32021
				L213.86714,378.76036L214.10717,379.96049L213.38708,380.68057L213.14705,381.64067L211.9469,383.32085L211.70687,383.56087L
				210.26668,383.8009L210.50671,381.64067L207.38632,381.16062L206.66623,381.40064L203.78586,382.60077L202.10565,381.16062L201.62559,380.20051
				L200.66547,377.32021L199.22528,378.52034L200.1854,380.92059L199.70534,381.64067L198.50519,381.16062L197.7851,381.64067L194.90473,384.28095
				L193.46455,384.28095L192.74446,384.52098L191.30428,384.761L190.58419,385.24105L189.62406,385.48108L189.144,386.68121L187.46379,386.44118
				L186.98373,382.12072L184.58342,382.36075L184.82346,386.68121L177.38251,387.64131L176.42239,387.40128L175.7023,387.16126L
				174.98221,386.68121L175.22224,380.44054L175.22224,376.84016L174.98221,374.4399L175.46227,372.27967L175.7023,371.07954L175.7023,369.63939
				L175.46227,366.99911L175.46227,366.51906L175.22224,365.55895L174.98221,363.87878L174.98221,363.1587L174.50215,361.71855L
				172.82193,357.15806L173.54202,355.47788L173.30199,353.07762L172.82193,351.8775L171.86181,350.19732L170.66166,348.99719L169.46151,348.03709
				L168.02132,346.59693L166.82117,345.39681L165.62102,343.95665L164.6609,342.27647L163.70077,340.35627L162.98068,338.91612L
				159.38023,330.75525L157.70001,326.67481L161.30047,324.51458L162.50062,323.7945L161.06044,319.9541L159.38023,316.11369L158.90017,313.95346
				L158.90017,311.79323L156.0198,312.03325L153.85953,311.79323L151.21919,312.03325L148.09879,312.27328L147.61873,311.31317L
				145.45846,307.47277L143.29819,303.1523L141.13791,298.83184L139.21767,295.47149L137.05739,292.8312L135.37718,290.67097L133.45694,288.27072
				L131.29666,285.87046L129.13639,283.95026L126.73608,282.03005L123.61569,279.38977L121.45541,277.46957L119.05511,275.30934
				L118.09499,274.34924L117.85496,273.14911L117.85496,272.42903L118.09499,270.74885L119.05511,267.14847L119.7752,262.82801L
				120.25526,260.42775L121.21538,259.22762L123.13563,258.26752L125.77596,257.30742L128.65633,256.34732L131.29666,255.14719L
				134.17703,253.22698L135.61721,252.26688L137.29742,251.30678L138.73761,250.34668L140.17779,249.6266L141.37794,248.90652L143.05815,247.46637
				L145.69849,244.82609L147.13867,243.14591L148.09879,241.70576L149.29895,240.2656L150.25907,238.58542L150.73913,237.62532L
				151.93928,236.42519L152.8994,235.94514L154.57962,235.94514L162.02056,235.70512L164.42087,235.22507L166.10108,234.50499L167.0612,234.02494
				L167.78129,233.06484L168.74141,231.86471L168.98144,230.18453L169.22148,229.22443L169.22148,228.0243L170.90169,228.26432L
				173.78205,228.74438L174.74218,227.0642L174.50215,224.90397L169.94157,224.42392L168.98144,224.18389L168.98144,222.26369L172.10184,222.74374
				L178.58266,223.70384L179.06272,221.54361L172.34187,220.10345L172.5819,219.38338L170.66166,219.14335L170.90169,216.98312L
				168.98144,216.50307L169.46151,214.34284L170.66166,214.82289L170.90169,213.62276L172.5819,214.34284L174.02208,213.62276L175.22224,213.38274
				L175.7023,214.34284L178.1026,213.62276L177.38251,212.42264L175.94233,209.78236L176.90245,209.06228L177.62254,208.3422L178.58266,207.3821
				L179.06272,205.94195L185.06349,208.82225L185.78358,207.3821L187.22376,204.02174L189.144,201.14143L192.50443,202.58159L193.46455,202.82161
				L193.22452,204.02174L198.02513,205.94195L198.74522,203.54169L198.26516,199.46126L198.02513,198.50115L197.30504,198.0211L
				198.26516,195.62085L195.62483,193.94067L192.50443,192.74054L187.70382,191.30039L188.90397,186.97993L183.86333,185.29975L
				177.14248,183.37954L170.1816,181.45934L167.78129,179.77916L168.98144,172.81842L165.14096,172.33837L165.14096,166.81778L163.94081,167.0578
				L157.21995,167.77788L158.4201,161.77724L156.73989,160.81714L157.94004,153.13632L155.77977,152.65627L156.73989,148.09578L
				155.77977,147.61573L156.25983,144.01535L154.81965,143.5353L152.8994,143.5353L153.13943,142.33517L151.69925,141.85512L151.69925,140.89501
				L153.37946,138.97481L150.73913,137.05461L149.29895,137.77468L143.77825,135.37443L137.29742,132.73414L133.937,131.77404L132.73685,130.57391
				L135.13715,125.7734L130.33654,123.37315L122.1755,120.73287L121.93547,122.17302L120.97535,123.13312L114.2545,121.69297L108.49377,120.73287
				L108.49377,119.05269L108.97383,116.41241L109.45389,113.29207L109.21386,109.21164L108.97383,108.49156L99.37261,106.33133L
				96.49225,105.85128L87.61112,104.89118L88.57124,95.29015L88.09118,95.53018L87.61112,95.77021L86.17094,87.60934L86.89103,81.12865
				L88.09118,81.6087L87.37109,72.96778L87.13106,67.20716L89.77139,67.20716L90.01142,65.04693L96.73228,66.96714L101.29285,60.24642
				L104.17322,63.12673L111.8542,71.04757L112.09423,69.84744L112.33426,69.12737L112.57429,66.96714L115.21462,66.72711L114.97459,66.72711
				L114.49453,65.52698L114.49453,64.80691L115.21462,64.08683L116.17474,64.32686L116.17474,62.8867L115.93471,62.8867L114.73456,61.9266
				L114.2545,61.44655L113.53441,60.24642L113.29438,60.00639L113.05435,59.76637L112.09423,55.92596L113.53441,55.44591L111.61416,51.84553
				L113.05435,51.36547L114.01447,51.6055L114.01447,51.84553L114.97459,52.08555L118.81508,62.16663L119.05511,62.8867L119.05511,63.12673
				L119.53517,63.8468L120.25526,63.60678L120.25526,61.44655L120.49529,58.08619L120.97535,56.64604L121.21538,56.40601L121.21538,56.16599
				L121.69544,55.20588L123.37566,53.76573L124.33578,54.96586L124.81584,55.68593L125.2959,56.40601L126.73608,56.16599L130.33654,56.16599
				L133.21691,55.68593L135.61721,57.60614L138.49758,56.40601L139.21767,58.32622L147.61873,57.36611L148.09879,60.00639L148.33883,61.9266
				L148.33883,63.12673L148.33883,64.32686L148.33883,65.28696L148.57886,65.04693L149.05892,64.80691L150.25907,64.80691L151.69925,65.04693
				L152.41934,64.80691L153.37946,66.72711L153.85953,67.20716L154.57962,67.92724L154.33959,68.64732L154.81965,69.36739L158.4201,66.96714
				L165.62102,62.16663L165.86105,61.9266L164.42087,58.56624L162.98068,59.28632L159.1402,53.5257L157.45998,50.40537L159.1402,48.24514
				L159.38023,47.76509L162.98068,48.24514L163.46074,46.80499L163.46074,46.56496L165.14096,45.12481L167.0612,44.64476L168.26135,44.16471
				L169.94157,43.68466L170.90169,43.68466L183.14324,44.64476L184.82346,38.16407L174.26211,35.28376L172.5819,34.80371L172.10184,34.56368
				L171.86181,33.60358L172.10184,31.9234L172.34187,30.48325L174.02208,25.68274L177.14248,26.64284L178.58266,22.08235L180.50291,21.84233
				L182.42315,21.84233L183.6233,22.08235L186.98373,23.76253L190.82422,25.92276L192.02437,26.64284L195.3848,28.56304L199.70534,30.24322
				L202.34568,31.20333L203.78586,31.44335L207.62635,32.40345L210.50671,33.12353L213.62711,34.08363L217.22757,35.04373L223.22833,36.96394
				L225.14857,37.92404L228.74903,39.3642L229.94918,40.08427L231.38936,41.2844L232.34949,41.76445L233.78967,42.72455L235.22985,43.68466
				L236.43,42.00448L238.83031,39.12417L239.79043,38.16407L239.79043,37.92404L240.03046,37.92404L241.71067,39.3642L245.0711,35.52379
				L246.99134,33.36356L245.79119,31.68338L254.43229,23.04246L251.07186,18.722L261.15314,10.08107L270.75436,20.88223L272.19454,19.44207
				L273.15466,18.00192L282.03579,7.68082L280.11555,6.00064L287.55649,-3.12033L289.9568,-1.68018L292.11707,-0.24003L293.31722,0.72008
				L294.51738,1.68018L295.4775,2.88031L296.91768,4.08044L297.8778,4.80051L299.31798,5.28056L301.71829,6.00064L305.55878,6.72072
				L309.15923,7.68082L312.75969,9.361L316.84021,10.80115L319.72057,11.52123L322.36091,11.76125L325.72134,11.76125L328.12164,11.76125
				zM254.43229,58.32622L254.19226,59.04629L258.27278,60.48645L263.79348,63.36675L264.7536,64.56688L265.23366,65.04693L262.83335,67.44719
				L262.59332,68.40729L264.51357,71.52762L265.95375,74.88798L265.71372,76.32813L265.23366,82.32877L261.39317,83.76893L258.75284,83.5289
				L258.51281,84.24898L258.27278,84.24898L258.03275,84.24898L257.31265,84.489L257.07262,84.489L256.35253,84.489L254.91235,84.489
				L254.43229,86.16918L257.31265,87.12929L262.59332,90.24962L266.91387,90.48964L277.47521,93.36995L286.35634,101.05077L291.39698,99.61062
				L299.31798,94.8101L299.31798,97.45038L300.9982,97.93044L302.43838,99.13056L303.15847,99.13056L303.87856,98.17046L304.35862,96.73031
				L305.55878,96.97033L306.5189,96.73031L306.5189,96.49028L309.15923,96.01023L312.51966,97.69041L314.19987,96.97033L316.60018,95.77021
				L319.24051,93.85L319.72057,93.60998L317.08024,90.00959L321.64082,86.64923L321.16076,84.489L317.08024,84.72903L312.51966,87.12929
				L311.31951,87.60934L311.07948,87.60934L302.67841,88.80946L300.9982,88.56944L299.79805,89.76957L298.59789,90.96969L298.35786,92.64987
				L295.4775,93.12992L294.51738,91.9298L292.83716,92.8899L292.11707,93.12992L289.71677,90.72967L290.43686,89.76957L289.47674,88.32941
				L289.71677,87.60934L288.27658,86.88926L287.55649,86.64923L286.59637,85.68913L285.87628,85.92916L285.39622,85.44911L284.91616,85.92916
				L283.23594,87.36931L281.07567,85.68913L282.75588,83.76893L280.11555,81.84872L282.03579,78.72839L286.11631,73.44783L282.99591,70.32749
				L279.15543,74.88798L278.67537,74.1679L277.23518,75.60806L272.91463,72.48772L274.35482,70.08747L280.35558,62.16663L274.11479,55.44591
				L267.87399,62.16663L263.55345,54.72583L260.67308,56.16599L257.55268,50.40537L256.59256,51.12545L252.99211,57.36611L254.43229,58.32622
				z"/>
		</g>
</g></svg>