<?xml version="1.0" encoding="utf-8" standalone="no"?>
<!-- Creator: ESRI ArcMap 10.0.0.2414 -->
<!DOCTYPE svg PUBLIC "-//W3C//DTD SVG 1.1//EN"  "http://www.w3.org/Graphics/SVG/1.1/DTD/svg11.dtd">
<svg width="595.50236pt" height="595.50236pt" viewBox="25 148.377955 545.50236 545.50236" enable-background="new 25 148.377955 545.50236 545.50236"
	version="1.1" xmlns="http://www.w3.org/2000/svg" xmlns:xlink="http://www.w3.org/1999/xlink" >
	<g id="Couches">
		<g id="cont_2">
			<path clip-path="url(#SVG_CP_2)" fill="none" stroke="#999999" stroke-width="0.96012" stroke-miterlimit="10" stroke-linecap="round" stroke-linejoin="round" d="
				M298.83792,416.44438L300.51814,416.44438L300.51814,417.40448L299.55802,417.40448L299.55802,418.12456L297.8778,418.12456L
				297.8778,417.40448L298.83792,417.40448L298.83792,416.44438"/>
			<path clip-path="url(#SVG_CP_2)" fill="none" stroke="#999999" stroke-width="0.96012" stroke-miterlimit="10" stroke-linecap="round" stroke-linejoin="round" d="
				M365.80642,412.12392L309.15923,412.12392L309.15923,412.84399L307.47902,412.84399L307.47902,413.8041L300.51814,413.8041L300.51814,414.7642
				L299.55802,414.7642L299.55802,415.48427L298.83792,415.48427L298.83792,416.44438L292.59713,416.44438L292.59713,417.40448L
				291.87704,417.40448L291.87704,418.12456L289.9568,418.12456L289.9568,419.08466L289.23671,419.08466L289.23671,419.80474L288.27658,419.80474
				L288.27658,420.76484L287.55649,420.76484L287.55649,421.72494L225.62863,421.72494L225.62863,420.76484L221.30809,420.76484
				L221.30809,419.80474L217.94766,419.80474L217.94766,419.08466L213.38708,419.08466L213.38708,418.12456L208.34644,418.12456
				L208.34644,419.08466L206.4262,419.08466L206.4262,419.80474L204.74598,419.80474L204.74598,420.76484L203.06577,420.76484L203.06577,421.72494
				L201.38556,421.72494L201.38556,426.76548L200.42544,426.76548L200.42544,433.00614L199.46531,433.00614L199.46531,439.00678
				L198.74522,439.00678L198.74522,340.83632L199.46531,340.83632L199.46531,339.87622L200.42544,339.87622L200.42544,338.91612
				L201.38556,338.91612L201.38556,338.19604L202.10565,338.19604L202.10565,337.23594L203.06577,337.23594L203.06577,336.51586
				L204.02589,336.51586L204.02589,335.55576L204.74598,335.55576L204.74598,334.59566L205.70611,334.59566L205.70611,333.87558
				L206.4262,333.87558L206.4262,332.91548L207.38632,332.91548L207.38632,331.95537L208.34644,331.95537L208.34644,331.2353L209.06653,331.2353
				L209.06653,330.27519L210.02665,330.27519L210.02665,329.55512L210.98678,329.55512L210.98678,328.59502L212.66699,328.59502
				L212.66699,327.63491L214.3472,327.63491L214.3472,326.91484L215.30732,326.91484L215.30732,325.95473L216.98754,325.95473L216.98754,324.99463
				L217.94766,324.99463L217.94766,324.27456L220.34796,324.27456L220.34796,323.31445L221.30809,323.31445L221.30809,322.59438
				L223.94842,322.59438L223.94842,321.63427L224.90854,321.63427L224.90854,320.67417L225.62863,320.67417L225.62863,319.9541L
				226.58876,319.9541L226.58876,318.99399L227.30885,318.99399L227.30885,318.03389L228.26897,318.03389L228.26897,317.31381L229.22909,317.31381
				L229.22909,316.35371L229.94918,316.35371L229.94918,315.63363L230.9093,315.63363L230.9093,314.67353L231.86943,314.67353L231.86943,313.71343
				L232.58952,313.71343L232.58952,312.99335L233.54964,312.99335L233.54964,312.03325L234.26973,312.03325L234.26973,311.07315
				L235.22985,311.07315L235.22985,310.35307L236.18997,310.35307L236.18997,309.39297L237.87019,309.39297L237.87019,308.67289
				L238.83031,308.67289L238.83031,307.71279L239.5504,307.71279L239.5504,306.75269L240.51052,306.75269L240.51052,305.07251L241.23061,305.07251
				L241.23061,304.11241L242.19074,304.11241L242.19074,303.39233L243.15086,303.39233L243.15086,302.43223L244.83107,302.43223
				L244.83107,300.75205L245.79119,300.75205L245.79119,299.79195L246.51128,299.79195L246.51128,299.07187L247.47141,299.07187
				L247.47141,298.11177L249.15162,298.11177L249.15162,297.15167L250.11174,297.15167L250.11174,296.43159L250.83183,296.43159
				L250.83183,295.47149L251.79195,295.47149L251.79195,293.79131L252.75208,293.79131L252.75208,292.8312L253.47217,292.8312L253.47217,292.11113
				L254.43229,292.11113L254.43229,291.15103L256.1125,291.15103L256.1125,290.19092L257.07262,290.19092L257.07262,289.47085L257.79272,289.47085
				L257.79272,288.51074L258.75284,288.51074L258.75284,287.79067L259.71296,287.79067L259.71296,286.83057L261.39317,286.83057
				L261.39317,285.87046L262.11326,285.87046L262.11326,285.15039L264.03351,285.15039L264.03351,284.19028L264.7536,284.19028L
				264.7536,283.23018L265.71372,283.23018L265.71372,282.51011L266.67384,282.51011L266.67384,281.55L267.39393,281.55L267.39393,280.82993
				L268.35406,280.82993L268.35406,279.86982L269.07415,279.86982L269.07415,278.90972L270.03427,278.90972L270.03427,277.22954
				L270.99439,277.22954L270.99439,275.54936L271.71448,275.54936L271.71448,274.58926L272.6746,274.58926L272.6746,272.90908L273.63473,272.90908
				L273.63473,270.2688L274.35482,270.2688L274.35482,268.58862L275.31494,268.58862L275.31494,266.90844L276.03503,266.90844L276.03503,264.98824
				L276.99515,264.98824L276.99515,264.26816L277.95527,264.26816L277.95527,262.34796L278.67537,262.34796L278.67537,261.62788
				L279.63549,261.62788L279.63549,260.66778L280.59561,260.66778L280.59561,259.9477L281.3157,259.9477L281.3157,258.9876L282.27582,258.9876
				L282.27582,258.0275L282.99591,258.0275L282.99591,257.30742L283.95604,257.30742L283.95604,256.34732L284.91616,256.34732L284.91616,255.38721
				L285.63625,255.38721L285.63625,254.66714L286.59637,254.66714L286.59637,253.70704L287.55649,253.70704L287.55649,252.98696
				L289.23671,252.98696L289.23671,252.02686L290.91692,252.02686L290.91692,251.06675L291.87704,251.06675L291.87704,250.34668
				L293.55725,250.34668L293.55725,249.38658L294.51738,249.38658L294.51738,248.42647L295.23747,248.42647L295.23747,247.7064L
				296.91768,247.7064L296.91768,246.74629L297.8778,246.74629L297.8778,246.02622L299.55802,246.02622L299.55802,245.06611L301.47826,245.06611
				L301.47826,244.10601L303.15847,244.10601L303.15847,243.38594L303.87856,243.38594L303.87856,242.42583L304.83869,242.42583
				L304.83869,241.46573L306.5189,241.46573L306.5189,240.74565L308.43914,240.74565L308.43914,239.78555L310.11936,239.78555L310.11936,239.06548
				L310.83945,239.06548L310.83945,238.10537L311.79957,238.10537L311.79957,237.14527L313.47978,237.14527L313.47978,236.42519
				L315.40003,236.42519L315.40003,235.46509L317.08024,235.46509L317.08024,234.50499L319.72057,234.50499L319.72057,233.78491
				L321.40079,233.78491L321.40079,232.82481L322.36091,232.82481L322.36091,232.10473L323.081,232.10473L323.081,231.14463L324.76121,231.14463
				L324.76121,230.18453L325.72134,230.18453L325.72134,229.46445L327.40155,229.46445L327.40155,228.50435L329.32179,228.50435
				L329.32179,227.54425L331.00201,227.54425L331.00201,225.86407L331.7221,225.86407L331.7221,225.14399L332.68222,225.14399L332.68222,224.18389
				L333.64234,224.18389L333.64234,223.22379L334.36243,223.22379L334.36243,222.50371L335.32255,222.50371L335.32255,221.54361
				L336.28268,221.54361L336.28268,220.58351L337.00277,220.58351L337.00277,219.86343L337.96289,219.86343L337.96289,218.90333
				L338.68298,218.90333L338.68298,218.18325L339.6431,218.18325L339.6431,217.22315L340.60322,217.22315L340.60322,215.54297L341.32332,215.54297
				L341.32332,214.58287L342.28344,214.58287L342.28344,213.62276L343.00353,213.62276L343.00353,212.90269L343.96365,212.90269
				L343.96365,211.94259L344.92377,211.94259L344.92377,211.22251L345.64386,211.22251L345.64386,210.26241L346.60399,210.26241
				L346.60399,209.3023L347.56411,209.3023L347.56411,207.62212L348.2842,207.62212L348.2842,206.66202L349.24432,206.66202L349.24432,205.94195
				L349.96441,205.94195L349.96441,204.98184L350.92453,204.98184L350.92453,203.30166L351.88466,203.30166L351.88466,202.34156
				L352.60475,202.34156L352.60475,201.62149L354.52499,201.62149L354.52499,200.66138L356.9253,200.66138L356.9253,199.70128L358.84554,199.70128
				L358.84554,198.9812L365.80642,198.9812L365.80642,199.70128L363.88618,199.70128L363.88618,200.66138L362.20597,200.66138L362.20597,201.62149
				L361.48587,201.62149L361.48587,204.26177L362.20597,204.26177L362.20597,210.26241L363.16609,210.26241L363.16609,215.54297
				L363.88618,215.54297L363.88618,221.54361L364.8463,221.54361L364.8463,226.82417L365.80642,226.82417L365.80642,232.82481L366.52651,232.82481
				L366.52651,238.10537L367.48664,238.10537L367.48664,244.10601L368.44676,244.10601L368.44676,249.38658L369.16685,249.38658
				L369.16685,255.38721L370.12697,255.38721L370.12697,260.66778L370.84706,260.66778L370.84706,266.90844L371.80718,266.90844
				L371.80718,271.94898L372.76731,271.94898L372.76731,278.18964L373.4874,278.18964L373.4874,283.23018L374.44752,283.23018L374.44752,289.47085
				L375.40764,289.47085L375.40764,294.75141L376.12773,294.75141L376.12773,300.75205L377.08785,300.75205L377.08785,306.03261
				L377.80795,306.03261L377.80795,312.03325L378.76807,312.03325L378.76807,317.31381L379.72819,317.31381L379.72819,323.31445
				L380.44828,323.31445L380.44828,328.59502L381.4084,328.59502L381.4084,334.59566L382.36852,334.59566L382.36852,339.87622L383.08862,339.87622
				L383.08862,345.87686L384.04874,345.87686L384.04874,351.15742L384.76883,351.15742L384.76883,357.39809L385.72895,357.39809
				L385.72895,362.43862L386.68907,362.43862L386.68907,363.39872L385.72895,363.39872L385.72895,371.31957L384.76883,371.31957
				L384.76883,379.96049L384.04874,379.96049L384.04874,387.64131L383.08862,387.64131L383.08862,395.56215L382.36852,395.56215
				L382.36852,404.20307L381.4084,404.20307L381.4084,411.16381L365.80642,411.16381L365.80642,412.12392"/>
			<path clip-path="url(#SVG_CP_2)" fill="none" stroke="#999999" stroke-width="0.96012" stroke-miterlimit="10" stroke-linecap="round" stroke-linejoin="round" d="
				M307.47902,413.8041L309.15923,413.8041L309.15923,412.84399L365.80642,412.84399L365.80642,412.12392L382.36852,412.12392L382.36852,412.84399
				L383.08862,412.84399L383.08862,413.8041L384.04874,413.8041L384.04874,415.48427L384.76883,415.48427L384.76883,416.44438L385.72895,416.44438
				L385.72895,417.40448L386.68907,417.40448L386.68907,418.12456L387.40916,418.12456L387.40916,419.08466L388.36929,419.08466
				L388.36929,419.80474L389.32941,419.80474L389.32941,420.76484L390.0495,420.76484L390.0495,421.72494L391.00962,421.72494L391.00962,422.44502
				L391.72971,422.44502L391.72971,424.36522L392.68983,424.36522L392.68983,425.0853L393.64996,425.0853L393.64996,426.0454L394.37005,426.0454
				L394.37005,426.76548L395.33017,426.76548L395.33017,427.72558L396.29029,427.72558L396.29029,428.68568L397.01038,428.68568
				L397.01038,429.40576L397.9705,429.40576L397.9705,430.36586L398.6906,430.36586L398.6906,432.04604L399.65072,432.04604L399.65072,433.00614
				L400.61084,433.00614L400.61084,433.72622L401.33093,433.72622L401.33093,434.68632L402.29105,434.68632L402.29105,435.64642
				L403.25117,435.64642L403.25117,436.3665L403.97127,436.3665L403.97127,437.3266L404.93139,437.3266L404.93139,438.2867L405.65148,438.2867
				L405.65148,439.00678L406.6116,439.00678L406.6116,440.68696L407.57172,440.68696L407.57172,441.64706L408.29181,441.64706L408.29181,442.60717
				L409.25194,442.60717L409.25194,443.32724L410.21206,443.32724L410.21206,444.28734L412.61236,444.28734L412.61236,445.24745
				L417.89303,445.24745L417.89303,445.96752L423.1737,445.96752L423.1737,446.92763L427.49425,446.92763L427.49425,447.6477L432.77492,447.6477
				L432.77492,448.6078L438.05559,448.6078L438.05559,449.56791L442.37614,449.56791L442.37614,450.28798L447.41678,450.28798L447.41678,451.24809
				L453.65757,451.24809L453.65757,452.20819L466.61922,452.20819L466.61922,452.92826L478.86077,452.92826L478.86077,453.88837
				L494.46275,453.88837L494.46275,452.92826L505.74418,452.92826L505.74418,452.20819L517.02561,452.20819L517.02561,451.24809
				L537.18817,451.24809L537.18817,452.20819L549.42972,452.20819L549.42972,452.92826L561.43125,452.92826L561.43125,453.88837
				L573.6728,453.88837L573.6728,454.60844L585.91435,454.60844L585.91435,455.56855L596.23566,455.56855L596.23566,454.60844L598.876,454.60844
				L598.876,453.88837L601.9964,453.88837M601.9964,458.20883L601.51633,458.20883L601.51633,459.16893L599.83612,459.16893L599.83612,459.88901
				L598.876,459.88901L598.876,460.84911L597.91588,460.84911L597.91588,461.56919L597.19579,461.56919L597.19579,462.52929L596.23566,462.52929
				L596.23566,463.48939L595.51557,463.48939L595.51557,464.20947L593.59533,464.20947L593.59533,465.16957L592.87524,465.16957
				L592.87524,466.12967L590.95499,466.12967L590.95499,466.84975L589.27478,466.84975L589.27478,467.80985L586.63445,467.80985
				L586.63445,468.52993L585.91435,468.52993L585.91435,470.45013L584.95423,470.45013L584.95423,472.13031L584.23414,472.13031
				L584.23414,473.09041L583.27402,473.09041L583.27402,473.81049L581.59381,473.81049L581.59381,474.77059L579.67356,474.77059
				L579.67356,475.49067L577.99335,475.49067L577.99335,476.45077L576.31314,476.45077L576.31314,477.41087L574.63292,477.41087
				L574.63292,478.13095L573.6728,478.13095L573.6728,479.09105L571.99259,479.09105L571.99259,480.05116L571.03247,480.05116L571.03247,480.77123
				L569.35225,480.77123L569.35225,481.73133L567.67204,481.73133L567.67204,482.45141L565.7518,482.45141L565.7518,483.41151L565.0317,483.41151
				L565.0317,484.37162L562.39137,484.37162L562.39137,485.09169L561.43125,485.09169L561.43125,486.05179L559.75103,486.05179L
				559.75103,487.0119L557.1107,487.0119L557.1107,487.73197L555.43049,487.73197L555.43049,488.69208L551.10994,488.69208L551.10994,489.41215
				L547.50948,489.41215L547.50948,490.37225L545.82927,490.37225L545.82927,491.33236L544.86915,491.33236L544.86915,492.05243
				L543.18893,492.05243L543.18893,493.01254L541.50872,493.01254L541.50872,493.97264L540.5486,493.97264L540.5486,495.65282L539.82851,495.65282
				L539.82851,496.37289L538.86838,496.37289L538.86838,497.333L537.90826,497.333L537.90826,498.2931L537.18817,498.2931L537.18817,499.97328
				L536.22805,499.97328L536.22805,500.93338L535.50796,500.93338L535.50796,501.65346L534.54784,501.65346L534.54784,502.61356
				L533.58771,502.61356L533.58771,503.33364L532.86762,503.33364L532.86762,504.29374L530.94738,504.29374L530.94738,505.25384
				L527.58695,505.25384L527.58695,505.97392L526.62683,505.97392L526.62683,505.25384L525.90674,505.25384L525.90674,505.97392
				L518.94586,505.97392L518.94586,505.25384L515.3454,505.25384L515.3454,505.97392L514.62531,505.97392L514.62531,505.25384L513.66519,505.25384
				L513.66519,505.97392L511.98497,505.97392L511.98497,505.25384L510.06473,505.25384L510.06473,505.97392L508.38452,505.97392
				L508.38452,506.93402L505.74418,506.93402L505.74418,507.89412L489.18208,507.89412L489.18208,506.93402L479.82089,506.93402
				L479.82089,505.97392L478.86077,505.97392L478.86077,506.93402L477.18056,506.93402L477.18056,507.89412L475.26031,507.89412
				L475.26031,508.6142L472.86001,508.6142L472.86001,509.5743L470.21967,509.5743L470.21967,510.29438L467.57934,510.29438L467.57934,511.25448
				L461.33855,511.25448L461.33855,512.21458L459.65833,512.21458L459.65833,511.25448L452.69745,511.25448L452.69745,510.29438
				L451.97736,510.29438L451.97736,511.25448L451.01724,511.25448L451.01724,510.29438L445.01647,510.29438L445.01647,509.5743L
				442.37614,509.5743L442.37614,510.29438L439.7358,510.29438L439.7358,511.25448L437.09547,511.25448L437.09547,512.21458L435.41526,512.21458
				L435.41526,512.93466L433.49501,512.93466L433.49501,513.89476L432.77492,513.89476L432.77492,514.85486L431.09471,514.85486
				L431.09471,515.57494L430.13459,515.57494L430.13459,516.53504L429.17446,516.53504L429.17446,517.25512L427.49425,517.25512
				L427.49425,518.21522L425.81404,518.21522L425.81404,519.17532L424.85392,519.17532L424.85392,519.8954L424.13382,519.8954L424.13382,520.8555
				L423.1737,520.8555L423.1737,521.81561L422.21358,521.81561L422.21358,522.53568L421.49349,522.53568L421.49349,523.49578L420.53337,523.49578
				L420.53337,524.21586L419.57325,524.21586L419.57325,525.17596L418.85315,525.17596L418.85315,526.13607L417.89303,526.13607
				L417.89303,526.85614L417.17294,526.85614L417.17294,527.81625L416.21282,527.81625L416.21282,528.77635L414.53261,528.77635
				L414.53261,529.49642L411.89227,529.49642L411.89227,530.45653L410.21206,530.45653L410.21206,531.1766L408.29181,531.1766L408.29181,532.13671
				L406.6116,532.13671L406.6116,533.09681L404.93139,533.09681L404.93139,533.81688L403.25117,533.81688L403.25117,534.77699L401.33093,534.77699
				L401.33093,535.73709L398.6906,535.73709L398.6906,536.45717L397.01038,536.45717L397.01038,537.41727L395.33017,537.41727L395.33017,538.13734
				L393.64996,538.13734L393.64996,539.09745L391.72971,539.09745L391.72971,540.05755L390.0495,540.05755L390.0495,540.77763L387.40916,540.77763
				L387.40916,541.73773L385.72895,541.73773L385.72895,542.69783L384.04874,542.69783L384.04874,543.41791L382.36852,543.41791
				L382.36852,544.37801L380.44828,544.37801L380.44828,545.09809L378.76807,545.09809L378.76807,546.05819L377.08785,546.05819
				L377.08785,547.01829L374.44752,547.01829L374.44752,547.73837L372.76731,547.73837L372.76731,548.69847L370.84706,548.69847
				L370.84706,549.65857L369.16685,549.65857L369.16685,550.37865L366.52651,550.37865L366.52651,551.33875L364.8463,551.33875L
				364.8463,552.05883L362.20597,552.05883L362.20597,553.01893L360.52575,553.01893L360.52575,553.97903L358.84554,553.97903L358.84554,554.69911
				L356.2052,554.69911L356.2052,555.65921L353.56487,555.65921L353.56487,556.61931L350.92453,556.61931L350.92453,557.33939L348.2842,557.33939
				L348.2842,558.29949L345.64386,558.29949L345.64386,559.01957L343.00353,559.01957L343.00353,559.97967L334.36243,559.97967L
				334.36243,560.93977L323.081,560.93977L323.081,561.65985L316.12012,561.65985L316.12012,560.93977L315.40003,560.93977L315.40003,561.65985
				L313.47978,561.65985L313.47978,560.93977L305.79881,560.93977L305.79881,561.65985L302.19835,561.65985L302.19835,560.93977
				L291.87704,560.93977L291.87704,559.97967L286.59637,559.97967L286.59637,559.01957L281.3157,559.01957L281.3157,558.29949L276.99515,558.29949
				L276.99515,559.01957L275.31494,559.01957L275.31494,559.97967L272.6746,559.97967L272.6746,560.93977L270.03427,560.93977L270.03427,559.97967
				L267.39393,559.97967L267.39393,559.01957L265.71372,559.01957L265.71372,558.29949L259.71296,558.29949L259.71296,559.01957
				L257.79272,559.01957L257.79272,559.97967L257.07262,559.97967L257.07262,560.93977L256.1125,560.93977L256.1125,561.65985L254.43229,561.65985
				L254.43229,562.61995L251.79195,562.61995L251.79195,563.58006L250.11174,563.58006L250.11174,564.30013L249.15162,564.30013
				L249.15162,563.58006L236.18997,563.58006L236.18997,562.61995L233.54964,562.61995L233.54964,561.65985L232.58952,561.65985
				L232.58952,560.93977L231.86943,560.93977L231.86943,559.97967L230.9093,559.97967L230.9093,559.01957L227.30885,559.01957L227.30885,558.29949
				L224.90854,558.29949L224.90854,557.33939L221.30809,557.33939L221.30809,556.61931L216.98754,556.61931L216.98754,557.33939
				L215.30732,557.33939L215.30732,556.61931L213.38708,556.61931L213.38708,555.65921L211.70687,555.65921L211.70687,553.01893
				L210.98678,553.01893L210.98678,551.33875L210.02665,551.33875L210.02665,550.37865L208.34644,550.37865L208.34644,549.65857
				L207.38632,549.65857L207.38632,547.73837L206.4262,547.73837L206.4262,547.01829L205.70611,547.01829L205.70611,546.05819L204.74598,546.05819
				L204.74598,545.09809L204.02589,545.09809L204.02589,544.37801L203.06577,544.37801L203.06577,543.41791L202.10565,543.41791
				L202.10565,542.69783L201.38556,542.69783L201.38556,540.77763L200.42544,540.77763L200.42544,539.09745L201.38556,539.09745
				L201.38556,537.41727L200.42544,537.41727L200.42544,535.73709L199.46531,535.73709L199.46531,533.09681L198.74522,533.09681
				L198.74522,442.60717L200.42544,442.60717L200.42544,443.32724L203.06577,443.32724L203.06577,444.28734L205.70611,444.28734
				L205.70611,445.24745L210.02665,445.24745L210.02665,444.28734L216.02742,444.28734L216.02742,443.32724L221.30809,443.32724
				L221.30809,442.60717L223.94842,442.60717L223.94842,439.00678L224.90854,439.00678L224.90854,436.3665L225.62863,436.3665L225.62863,433.00614
				L226.58876,433.00614L226.58876,430.36586L227.30885,430.36586L227.30885,426.76548L228.26897,426.76548L228.26897,423.40512
				L229.22909,423.40512L229.22909,422.44502L296.19759,422.44502L296.19759,421.72494L296.91768,421.72494L296.91768,420.76484
				L297.8778,420.76484L297.8778,419.80474L298.83792,419.80474L298.83792,419.08466L303.15847,419.08466L303.15847,418.12456L303.87856,418.12456
				L303.87856,417.40448L304.83869,417.40448L304.83869,416.44438L305.79881,416.44438L305.79881,415.48427L306.5189,415.48427L
				306.5189,414.7642L307.47902,414.7642L307.47902,413.8041"/>
		</g>
</g></svg>