<?xml version="1.0" encoding="utf-8" standalone="no"?>
<!-- Creator: ESRI ArcMap 10.0.0.2414 -->
<!DOCTYPE svg PUBLIC "-//W3C//DTD SVG 1.1//EN"  "http://www.w3.org/Graphics/SVG/1.1/DTD/svg11.dtd">
<svg width="595.50236pt" height="595.50236pt" viewBox="25 148.377955 545.50236 545.50236" enable-background="new 25 148.377955 545.50236 545.50236"
	version="1.1" xmlns="http://www.w3.org/2000/svg" xmlns:xlink="http://www.w3.org/1999/xlink" >
	<g id="Couches">
		<g id="reservoirs">
			<path clip-path="url(#SVG_CP_2)" fill-opacity="0.2" fill="#07866D" fill-rule="evenodd" stroke="none" stroke-width="" stra="1.44018" stroke-miterlimit="10" stroke-linecap="round" stroke-linejoin="round" d="
				M-6.24079,553.01893L-1.44018,549.41855L7.44094,541.4977L13.44171,536.45717L20.16256,531.65665L25.2032,527.81625L27.84353,526.37609
				L31.20396,524.93594L35.52451,523.01573L42.48539,520.13543L48.48615,516.29502L51.36652,514.61484L53.28676,513.65474L57.84734,512.69463
				L63.36804,512.45461L69.3688,512.45461L75.12953,512.93466L83.77063,514.13479L92.65176,515.57494L98.17246,516.53504L104.17322,518.21522
				L112.09423,520.13543L116.17474,520.8555L120.73532,520.8555L127.93624,518.69527L147.3787,512.21458L150.25907,511.25448L153.37946,510.77443
				L157.70001,510.5344L159.86029,510.5344L167.30123,510.77443L171.38175,510.05435L177.62254,509.09425L180.50291,508.37417L186.98373,506.69399
				L202.58571,501.89348L213.86714,499.2532L224.66851,496.61292L228.02894,496.13287L230.42924,495.65282L232.58952,495.41279L
				237.87019,495.89284L241.71067,497.333L247.23137,498.77315L249.63168,499.49323L251.07186,502.61356L253.95223,511.25448L255.15238,515.33492
				L257.79272,522.05563L259.2329,526.13607L264.27354,538.13734L266.43381,543.65793L267.39393,547.25832L268.11402,551.33875L
				268.59409,553.97903L269.07415,556.85934L269.79424,560.93977L270.03427,564.06011L269.55421,571.26087L269.31418,577.26151L
				267.39393,595.50346L266.91387,603.18428L266.67384,607.74476L266.67384,611.8252L267.1539,617.10576L267.63396,621.18619L267.87399,630.78722
				L268.11402,637.26791L267.63396,640.62827L266.67384,645.18875L264.99363,652.62955L257.07262,679.51241L252.51205,675.19195
				L243.39089,684.0729L239.79043,687.19323L239.5504,686.9532L237.63016,688.63338L234.0297,694.63402L230.42924,699.91458L228.02894,703.03492
				L221.30809,698.95448L213.38708,694.394L208.34644,691.51369L204.26592,689.11343L199.22528,687.43325L193.46455,686.23313L180.98297,684.0729
				L173.30199,683.11279L169.70154,682.63274L167.0612,682.15269L165.14096,681.43261L163.46074,680.95256L146.17855,673.7518L139.21767,671.35154
				L130.8166,669.19131L124.81584,668.47123L119.53517,667.51113L116.17474,666.311L101.53289,660.79041L89.29133,655.50985L88.57124,656.70998
				L88.57124,656.95001L87.37109,659.59029L86.17094,661.03044L84.01066,665.59093L79.93014,668.95128L73.92938,673.03172L56.64719,686.47315
				L52.08661,691.75371L44.64567,705.19515L10.08128,746.23952L-0.24003,769.76203L-6.24079,784.88364L-6.24079,553.01893z"/>
			<path clip-path="url(#SVG_CP_2)" fill-opacity="0.2" fill="#07866D" fill-rule="evenodd" stroke="none" stroke-width="" stra="1.44018" stroke-miterlimit="10" stroke-linecap="round" stroke-linejoin="round" d="
				M314.19987,198.9812L318.28039,240.02558L325.24127,269.54872L326.2014,271.94898L330.04188,270.02877L332.44219,276.02941L336.76274,290.19092
				L342.7635,303.63236L347.32408,312.99335L354.52499,318.27392L362.446,324.03453L357.64539,331.71535L352.60475,339.15614L349.00429,343.95665
				L347.08405,346.35691L346.12392,347.31701L343.00353,345.39681L339.88313,344.19668L328.12164,333.87558L319.9606,326.67481L
				312.0396,319.9541L306.5189,317.31381L292.59713,303.1523L277.47521,288.27072L249.15162,261.38785L234.74979,245.30614L258.27278,219.38338
				L262.11326,215.54297L268.83412,216.50307L274.11479,219.14335L275.795,221.06356L276.75512,220.34348L282.27582,222.98376L286.59637,222.98376
				L310.11936,198.9812L314.19987,198.9812z"/>
		</g>
</g></svg>