<?xml version="1.0" encoding="utf-8" standalone="no"?>
<!-- Creator: ESRI ArcMap 10.0.0.2414 -->
<!DOCTYPE svg PUBLIC "-//W3C//DTD SVG 1.1//EN"  "http://www.w3.org/Graphics/SVG/1.1/DTD/svg11.dtd">
<svg width="595.50236pt" height="595.50236pt" viewBox="25 148.377955 545.50236 545.50236" enable-background="new 25 148.377955 545.50236 545.50236"
	version="1.1" xmlns="http://www.w3.org/2000/svg" xmlns:xlink="http://www.w3.org/1999/xlink" >
	<g id="Couches">
		<g id="cont_2">
			<path clip-path="url(#SVG_CP_2)" fill="none" stroke="#999999" stroke-width="0.96012" stroke-miterlimit="10" stroke-linecap="round" stroke-linejoin="round" d="
				M282.99591,355.23785L282.99591,354.99783L283.23594,354.99783L283.23594,355.23785L282.99591,355.23785L282.99591,355.23785
				"/>
			<path clip-path="url(#SVG_CP_2)" fill="none" stroke="#999999" stroke-width="0.96012" stroke-miterlimit="10" stroke-linecap="round" stroke-linejoin="round" d="
				M230.42924,490.61228L230.18921,490.61228L230.18921,490.37225L230.42924,490.37225L230.42924,490.61228"/>
			<path clip-path="url(#SVG_CP_2)" fill="none" stroke="#999999" stroke-width="0.96012" stroke-miterlimit="10" stroke-linecap="round" stroke-linejoin="round" d="
				M230.18921,491.09233L229.94918,491.09233L229.94918,490.85231L230.18921,490.85231L230.18921,491.09233"/>
			<path clip-path="url(#SVG_CP_2)" fill="none" stroke="#999999" stroke-width="0.96012" stroke-miterlimit="10" stroke-linecap="round" stroke-linejoin="round" d="
				M229.70915,491.57238L229.70915,491.57238"/>
			<path clip-path="url(#SVG_CP_2)" fill="none" stroke="#999999" stroke-width="0.96012" stroke-miterlimit="10" stroke-linecap="round" stroke-linejoin="round" d="
				M229.46912,492.05243L229.46912,491.81241L229.46912,492.05243"/>
			<path clip-path="url(#SVG_CP_2)" fill="none" stroke="#999999" stroke-width="0.96012" stroke-miterlimit="10" stroke-linecap="round" stroke-linejoin="round" d="
				M229.46912,493.01254L229.22909,493.01254L229.22909,492.77251L229.46912,492.77251L229.46912,493.01254"/>
			<path clip-path="url(#SVG_CP_2)" fill="none" stroke="#999999" stroke-width="0.96012" stroke-miterlimit="10" stroke-linecap="round" stroke-linejoin="round" d="
				M229.70915,493.73261L229.46912,493.73261L229.70915,493.73261L229.70915,493.73261"/>
			<path clip-path="url(#SVG_CP_2)" fill="none" stroke="#999999" stroke-width="0.96012" stroke-miterlimit="10" stroke-linecap="round" stroke-linejoin="round" d="
				M265.95375,497.09297L265.95375,497.09297"/>
			<path clip-path="url(#SVG_CP_2)" fill="none" stroke="#999999" stroke-width="0.96012" stroke-miterlimit="10" stroke-linecap="round" stroke-linejoin="round" d="
				M264.03351,504.05371L264.03351,504.29374L264.03351,504.05371L264.03351,504.05371"/>
			<path clip-path="url(#SVG_CP_2)" fill="none" stroke="#999999" stroke-width="0.96012" stroke-miterlimit="10" stroke-linecap="round" stroke-linejoin="round" d="
				M269.31418,504.53376L269.31418,504.77379L269.31418,504.53376L269.31418,504.53376"/>
			<path clip-path="url(#SVG_CP_2)" fill="none" stroke="#999999" stroke-width="0.96012" stroke-miterlimit="10" stroke-linecap="round" stroke-linejoin="round" d="
				M269.79424,505.73389L269.79424,505.49387L269.79424,505.73389"/>
			<path clip-path="url(#SVG_CP_2)" fill="none" stroke="#999999" stroke-width="0.96012" stroke-miterlimit="10" stroke-linecap="round" stroke-linejoin="round" d="
				M270.03427,505.97392L269.79424,505.97392L270.03427,505.97392L270.03427,505.97392"/>
			<path clip-path="url(#SVG_CP_2)" fill="none" stroke="#999999" stroke-width="0.96012" stroke-miterlimit="10" stroke-linecap="round" stroke-linejoin="round" d="
				M270.03427,506.21394L270.03427,505.97392L270.03427,506.21394"/>
			<path clip-path="url(#SVG_CP_2)" fill="none" stroke="#999999" stroke-width="0.96012" stroke-miterlimit="10" stroke-linecap="round" stroke-linejoin="round" d="
				M270.03427,506.21394L270.2743,506.21394L270.2743,506.45397L270.51433,506.45397L270.51433,506.69399L270.2743,506.69399L270.2743,506.45397
				L270.03427,506.45397L270.03427,506.21394"/>
			<path clip-path="url(#SVG_CP_2)" fill="none" stroke="#999999" stroke-width="0.96012" stroke-miterlimit="10" stroke-linecap="round" stroke-linejoin="round" d="
				M313.23975,464.20947L313.23975,463.24936L312.99972,463.24936L312.99972,462.76931L313.23975,462.76931L313.23975,462.52929
				L313.47978,462.52929L313.47978,462.28926L313.71981,462.28926L313.71981,462.04924L313.95984,462.04924L313.95984,461.80921
				L314.19987,461.80921L314.19987,461.56919L314.19987,461.32916L314.4399,461.32916L314.4399,461.08913L314.67993,461.08913L314.67993,460.84911
				L314.67993,460.60908L314.91996,460.60908L314.91996,460.36906L315.16,460.36906L315.16,460.12903L315.16,457.9688L315.40003,457.9688
				L315.40003,457.72878L315.64006,457.72878L315.88009,457.72878L315.88009,457.48875L316.12012,457.48875L316.12012,457.24873
				L316.12012,453.88837L315.88009,453.88837L315.88009,447.16765L315.88009,446.92763L315.64006,446.92763L315.40003,446.92763
				L315.40003,446.6876L315.16,446.6876L315.16,446.44757L315.16,434.4463L315.16,434.20627L315.40003,434.20627L315.40003,433.96624
				L315.64006,433.96624L315.64006,433.48619L315.88009,433.48619L315.88009,433.24617L316.12012,433.24617L316.12012,433.00614
				L316.36015,433.00614L316.36015,432.76612L316.60018,432.76612L316.60018,432.52609L316.84021,432.52609L316.84021,432.04604
				L316.84021,431.56599L317.08024,431.56599L317.08024,430.84591L317.08024,430.12584L317.32027,430.12584L317.32027,429.64578
				L317.32027,429.16573L317.5603,429.16573L317.5603,428.68568L317.5603,428.20563L317.80033,428.20563L317.80033,427.72558L318.04036,427.72558
				L318.04036,427.24553L318.04036,427.0055L318.28039,427.0055L318.28039,426.52545L318.28039,426.28543L318.52042,426.28543L318.52042,425.80537
				L318.52042,425.56535L318.76045,425.56535L318.76045,425.0853L318.76045,424.84527L319.00048,424.84527L319.00048,423.40512L
				319.00048,422.68504L319.24051,422.68504L319.24051,421.96497L319.24051,421.00486L319.48054,421.00486L319.48054,420.04476L
				319.48054,419.08466L319.72057,419.08466L319.72057,418.36458L319.9606,418.36458L319.9606,417.40448L319.9606,416.6844L320.20063,416.6844
				L320.20063,415.7243L320.20063,415.00422L320.44067,415.00422L320.44067,414.04412L320.44067,413.56407L320.6807,413.56407L320.6807,412.84399
				L320.6807,411.88389L320.92073,411.88389L320.92073,411.40384L320.92073,410.68376L321.16076,410.68376L321.16076,409.72366L
				321.16076,409.00358L321.40079,409.00358L321.40079,408.28351L321.40079,393.64195L321.40079,392.92187L321.16076,392.92187L
				321.16076,392.68185L320.92073,392.68185L320.92073,392.44182L320.6807,392.44182L320.6807,392.20179L320.44067,392.20179L320.44067,391.96177
				L320.20063,391.96177L320.20063,391.72174L319.9606,391.72174L319.9606,391.48172L319.9606,390.76164L319.72057,390.76164L319.72057,390.04156
				L319.48054,390.04156L319.48054,389.80154L319.48054,389.56151L319.24051,389.56151L319.24051,389.32149L319.00048,389.32149
				L319.00048,389.08146L318.76045,389.08146L318.76045,388.84144L318.52042,388.84144L318.52042,388.60141L318.28039,388.60141
				L318.28039,388.36138L318.04036,388.36138L318.04036,388.12136L317.80033,388.12136L317.80033,387.88133L317.5603,387.88133L
				317.5603,387.64131L317.32027,387.64131L317.32027,387.40128L317.08024,387.40128L317.08024,385.96113L316.84021,385.96113L316.84021,385.7211
				L316.60018,385.7211L316.60018,385.48108L316.36015,385.48108L316.36015,385.24105L316.12012,385.24105L316.12012,384.761L315.88009,384.761
				L315.88009,382.12072L315.88009,381.88069L315.64006,381.88069L315.40003,381.88069L315.40003,381.64067L315.40003,381.40064
				L315.16,381.40064L315.16,379.96049L315.16,379.72046L314.91996,379.72046L314.91996,379.48044L314.67993,379.48044L314.67993,379.24041
				L314.4399,379.24041L314.4399,379.00039L314.19987,379.00039L314.19987,378.76036L313.95984,378.76036L313.95984,378.52034L313.71981,378.52034
				L313.71981,378.28031L313.47978,378.28031L313.47978,378.04028L313.23975,378.04028L313.23975,377.80026L312.99972,377.80026
				L312.99972,377.56023L312.75969,377.56023L312.75969,377.32021L312.51966,377.32021L312.51966,377.08018L312.27963,377.08018
				L312.27963,376.84016L312.0396,376.84016L312.0396,376.60013L311.79957,376.60013L311.79957,376.36011L311.55954,376.36011L311.55954,376.12008
				L311.31951,376.12008L311.31951,375.88005L311.07948,375.88005L311.07948,375.64003L310.83945,375.64003L310.83945,375.4L310.59942,375.4
				L310.59942,375.15998L310.35939,375.15998L310.35939,374.91995L310.11936,374.91995L310.11936,374.67993L309.39926,374.67993
				L309.39926,374.4399L309.15923,374.4399L309.15923,374.19988L308.9192,374.19988L308.9192,373.95985L308.67917,373.95985L308.67917,373.71982
				L308.43914,373.71982L308.19911,373.71982L308.19911,373.4798L308.19911,373.23977L307.95908,373.23977L307.71905,373.23977L
				307.71905,372.99975L307.47902,372.99975L307.47902,372.75972L307.23899,372.75972L307.23899,372.5197L306.99896,372.5197L306.99896,372.27967
				L306.75893,372.27967L306.75893,372.03965L306.5189,372.03965L306.27887,372.03965L306.27887,371.79962L306.03884,371.79962L
				306.03884,371.55959L305.79881,371.55959L305.79881,371.31957L305.55878,371.31957L305.55878,371.07954L305.31875,371.07954L
				305.07872,371.07954L305.07872,370.83952L304.83869,370.83952L304.59865,370.83952L304.59865,370.59949L304.35862,370.59949L
				303.87856,370.59949L303.87856,370.35947L303.63853,370.35947L303.3985,370.35947L303.3985,370.11944L303.15847,370.11944L302.91844,370.11944
				L302.91844,369.87942L302.67841,369.87942L302.43838,369.87942L302.43838,369.63939L301.95832,369.63939L301.71829,369.63939
				L301.71829,369.39936L301.71829,369.15934L301.47826,369.15934L301.47826,368.91931L301.23823,368.91931L301.23823,368.67929
				L300.9982,368.67929L300.9982,368.43926L300.75817,368.43926L300.75817,368.19924L300.51814,368.19924L300.51814,367.95921L300.27811,367.95921
				L300.03808,367.95921L300.03808,367.71918L299.79805,367.71918L299.79805,367.47916L299.79805,367.23913L299.55802,367.23913
				L299.55802,366.99911L299.31798,366.99911L299.31798,366.75908L299.07795,366.75908L299.07795,366.51906L298.83792,366.51906
				L298.83792,366.27903L298.59789,366.27903L298.59789,366.03901L298.35786,366.03901L295.71753,366.03901L295.71753,366.27903
				L295.4775,366.27903L295.4775,366.51906L295.23747,366.51906L295.23747,366.75908L293.55725,366.75908L293.55725,366.51906L293.31722,366.51906
				L293.31722,366.27903L293.07719,366.27903L293.07719,366.03901L292.83716,366.03901L292.83716,365.79898L292.11707,365.79898
				L292.11707,365.55895L291.87704,365.55895L291.87704,365.31893L291.63701,365.31893L291.63701,365.0789L291.39698,365.0789L291.39698,364.83888
				L291.15695,364.83888L291.15695,364.59885L290.91692,364.59885L290.91692,364.35883L290.67689,364.35883L290.43686,364.35883
				L290.43686,364.1188L290.19683,364.1188L290.19683,363.87878L289.9568,363.87878L289.9568,363.63875L289.71677,363.63875L289.71677,363.39872
				L289.47674,363.39872L289.47674,363.1587L289.23671,363.1587L289.23671,362.91867L288.99668,362.91867L288.99668,362.67865L288.75664,362.67865
				L288.75664,362.43862L288.51661,362.43862L288.51661,362.1986L288.27658,362.1986L288.27658,361.95857L288.03655,361.95857L288.03655,361.71855
				L287.79652,361.71855L287.79652,361.47852L287.55649,361.47852L287.55649,361.23849L287.31646,361.23849L287.31646,360.99847
				L287.07643,360.99847L287.07643,360.75844L286.8364,360.75844L286.8364,360.51842L286.59637,360.51842L286.59637,360.27839L286.35634,360.27839
				L286.35634,360.03837L286.11631,360.03837L286.11631,359.79834L285.87628,359.79834L285.87628,359.55832L285.63625,359.55832
				L285.63625,359.31829L285.39622,359.31829L285.39622,359.07826L285.15619,359.07826L285.15619,358.83824L284.91616,358.83824
				L284.91616,358.59821L284.67613,358.59821L284.67613,358.35819L284.4361,358.35819L284.4361,358.11816L284.19607,358.11816L284.19607,357.63811
				L283.95604,357.63811L283.95604,357.39809L283.95604,357.15806L283.716,357.15806L283.716,356.91803L283.716,356.67801L283.47597,356.67801
				L283.47597,355.23785L283.23594,355.23785L283.23594,354.99783L283.23594,354.7578L282.99591,354.7578L282.99591,354.51778L282.75588,354.51778
				L282.51585,354.51778L282.51585,354.27775L282.27582,354.27775L282.27582,354.03773L282.27582,353.7977L282.03579,353.7977L282.03579,353.55768
				L281.79576,353.55768L281.79576,353.31765L281.55573,353.31765L281.55573,353.07762L281.3157,353.07762L281.3157,352.8376L281.07567,352.8376
				L281.07567,352.59757L280.83564,352.59757L280.83564,352.35755L280.59561,352.35755L280.59561,352.11752L280.11555,352.11752
				L279.87552,352.11752L279.87552,351.8775L279.63549,351.8775L279.63549,351.63747L279.39546,351.63747L279.39546,351.39745L279.15543,351.39745
				L279.15543,351.15742L278.9154,351.15742L278.9154,350.91739L278.67537,350.91739L278.43533,350.91739L278.43533,350.67737L278.1953,350.67737
				L278.1953,350.43734L277.95527,350.43734L277.95527,350.19732L277.71524,350.19732L277.71524,349.95729L277.71524,349.71727L
				277.47521,349.71727L277.47521,349.47724L277.23518,349.47724L277.23518,349.23722L276.99515,349.23722L276.99515,348.99719L
				276.75512,348.99719L276.51509,348.99719L276.51509,348.75716L276.27506,348.75716L276.27506,348.51714L276.03503,348.51714L
				276.03503,348.27711L275.795,348.27711L275.795,348.03709L275.795,347.79706L275.55497,347.79706L275.55497,347.55704L275.31494,347.55704
				L275.31494,346.59693L275.07491,346.59693L275.07491,346.35691L274.83488,346.35691L274.59485,346.35691L274.59485,346.11688
				L274.59485,345.87686L274.35482,345.87686L274.35482,345.63683L274.11479,345.63683L274.11479,342.75652L274.83488,342.75652
				L275.31494,342.75652L275.31494,342.5165L275.795,342.5165L275.795,342.27647L275.55497,342.27647L275.55497,341.5564L275.55497,340.83632
				L275.31494,340.83632L275.31494,339.63619L275.31494,339.39617L276.75512,339.39617L277.23518,339.39617L277.23518,340.11624
				L277.47521,340.11624L277.47521,341.07635L277.95527,341.07635L278.67537,341.07635L278.67537,340.83632L278.9154,340.83632L
				278.9154,339.87622L279.15543,339.87622L279.15543,340.11624L279.39546,340.11624L279.39546,340.35627L279.39546,340.59629L279.63549,340.59629
				L279.63549,340.83632L279.87552,340.83632L279.87552,341.31637L279.87552,341.5564L280.11555,341.5564L280.59561,341.5564L280.59561,341.31637
				L280.83564,341.31637L280.83564,341.07635L280.59561,341.07635L280.35558,341.07635L280.35558,340.83632L280.35558,340.59629
				L280.11555,340.59629L280.11555,340.35627L279.87552,340.35627L279.87552,340.11624L279.63549,340.11624L279.63549,339.87622
				L279.63549,339.63619L279.39546,339.63619L279.39546,339.39617L279.15543,339.39617L279.15543,339.15614L278.9154,339.15614L
				278.9154,338.91612L278.67537,338.91612L278.67537,338.67609L278.43533,338.67609L278.43533,338.43606L278.1953,338.43606L278.1953,338.19604
				L277.95527,338.19604L277.95527,337.95601L277.71524,337.95601L277.71524,337.71599L277.47521,337.71599L277.47521,337.47596
				L277.23518,337.47596L277.23518,337.23594L277.23518,336.99591L276.99515,336.99591L276.99515,336.75589L276.75512,336.75589
				L276.51509,336.75589L276.51509,336.51586L276.51509,336.27583L276.27506,336.27583L276.27506,336.03581L276.03503,336.03581
				L276.03503,335.79578L275.795,335.79578L275.795,335.55576L275.55497,335.55576L275.55497,335.31573L275.31494,335.31573L275.31494,335.07571
				L275.07491,335.07571L275.07491,334.83568L274.83488,334.83568L274.59485,334.83568L274.59485,334.59566L274.59485,334.35563
				L274.35482,334.35563L274.35482,334.1156L274.11479,334.1156L273.87476,334.1156L273.87476,333.87558L273.63473,333.87558L273.63473,333.63555
				L273.3947,333.63555L273.3947,333.39553L273.15466,333.39553L273.15466,333.1555L272.91463,333.1555L272.6746,333.1555L272.6746,332.91548
				L272.43457,332.91548L272.43457,332.67545L272.19454,332.67545L271.95451,332.67545L271.95451,332.43543L271.71448,332.43543
				L271.71448,332.1954L271.47445,332.1954L271.47445,331.95537L271.23442,331.95537L270.75436,331.95537L270.75436,331.71535L270.51433,331.71535
				L270.51433,331.47532L270.2743,331.47532L270.03427,331.47532L270.03427,331.2353L269.79424,331.2353L269.55421,331.2353L269.55421,330.99527
				L269.31418,330.99527L269.07415,330.99527L269.07415,330.75525L268.83412,330.75525L268.59409,330.75525L268.59409,330.51522
				L268.35406,330.51522L268.35406,330.27519L268.11402,330.27519L267.87399,330.27519L267.87399,330.03517L267.63396,330.03517
				L267.39393,330.03517L267.39393,329.79514L266.91387,329.79514L266.67384,329.79514L266.67384,329.55512L266.43381,329.55512
				L265.95375,329.55512L265.95375,329.31509L265.71372,329.31509L265.23366,329.31509L265.23366,329.07507L264.7536,329.07507L
				264.51357,329.07507L264.51357,328.83504L264.03351,328.83504L263.79348,328.83504L263.79348,328.59502L263.31342,328.59502L
				263.31342,328.35499L263.07339,328.35499L263.07339,328.59502L263.07339,329.31509L262.83335,329.31509L262.83335,330.03517L
				262.83335,330.75525L262.59332,330.75525L262.59332,331.47532L262.59332,332.43543L262.35329,332.43543L262.35329,333.39553L
				262.35329,334.35563L262.11326,334.35563L262.11326,335.31573L262.11326,336.27583L261.87323,336.27583L261.87323,337.23594L
				261.87323,338.19604L261.6332,338.19604L261.6332,338.91612L261.6332,339.63619L261.39317,339.63619L261.39317,340.59629L261.39317,341.31637
				L261.15314,341.31637L261.15314,342.03645L260.91311,342.03645L260.91311,342.75652L260.91311,343.4766L260.67308,343.4766L260.67308,344.67673
				L260.67308,345.87686L260.43305,345.87686L260.43305,346.35691L260.91311,346.35691L260.91311,346.11688L261.39317,346.11688
				L261.39317,345.87686L261.87323,345.87686L262.35329,345.87686L262.35329,345.63683L262.83335,345.63683L263.55345,345.63683
				L263.55345,345.39681L264.03351,345.39681L264.51357,345.39681L264.51357,345.15678L264.99363,345.15678L265.47369,345.15678
				L265.47369,344.91676L265.95375,344.91676L266.43381,344.91676L266.43381,344.67673L266.91387,344.67673L267.63396,344.67673
				L267.63396,344.4367L268.11402,344.4367L268.35406,344.4367L268.35406,344.19668L268.83412,344.19668L268.83412,343.95665L269.55421,343.95665
				L270.03427,343.95665L270.03427,343.71663L270.51433,343.71663L270.99439,343.71663L270.99439,343.4766L271.47445,343.4766L271.95451,343.4766
				L271.95451,343.23658L272.43457,343.23658L273.15466,343.23658L273.15466,342.99655L273.63473,342.99655L274.11479,342.99655
				L274.11479,346.59693L274.35482,346.59693L274.35482,346.83696L274.59485,346.83696L274.59485,347.07699L274.83488,347.07699
				L274.83488,347.31701L275.07491,347.31701L275.07491,347.55704L275.31494,347.55704L275.31494,347.79706L275.55497,347.79706
				L275.55497,348.03709L275.795,348.03709L275.795,348.27711L276.03503,348.27711L276.03503,348.51714L276.27506,348.51714L276.27506,348.75716
				L276.51509,348.75716L276.51509,348.99719L276.75512,348.99719L276.75512,349.23722L276.99515,349.23722L276.99515,349.47724
				L277.23518,349.47724L277.23518,349.71727L277.47521,349.71727L277.47521,349.95729L277.71524,349.95729L277.71524,350.19732
				L277.95527,350.19732L277.95527,350.43734L278.1953,350.43734L278.1953,350.67737L278.43533,350.67737L278.43533,350.91739L278.67537,350.91739
				L278.67537,351.15742L278.9154,351.15742L278.9154,351.39745L279.15543,351.39745L279.15543,351.63747L279.39546,351.63747L279.39546,351.8775
				L279.63549,351.8775L279.63549,352.11752L279.87552,352.11752L279.87552,352.35755L280.11555,352.35755L280.11555,352.59757L
				280.35558,352.59757L280.35558,352.8376L281.07567,352.8376L281.3157,352.8376L281.3157,353.07762L281.3157,353.31765L281.55573,353.31765
				L281.55573,353.55768L281.79576,353.55768L281.79576,353.7977L282.03579,353.7977L282.03579,354.51778L282.27582,354.51778L282.27582,354.7578
				L282.51585,354.7578L282.51585,354.99783L282.75588,354.99783L282.75588,355.23785L282.99591,355.23785L282.99591,355.71791L
				282.99591,356.19796L283.23594,356.19796L283.23594,356.43798L283.47597,356.43798L283.47597,356.67801L283.47597,356.91803L
				283.716,356.91803L283.716,357.15806L283.716,357.39809L283.95604,357.39809L283.95604,357.63811L283.95604,358.11816L284.19607,358.11816
				L284.19607,358.35819L284.4361,358.35819L284.4361,358.59821L284.67613,358.59821L284.91616,358.59821L284.91616,358.83824L285.15619,358.83824
				L285.15619,359.07826L285.39622,359.07826L285.39622,359.31829L285.63625,359.31829L285.63625,359.55832L285.87628,359.55832
				L285.87628,359.79834L285.87628,360.03837L286.11631,360.03837L286.11631,360.27839L286.35634,360.27839L286.35634,360.51842
				L286.59637,360.51842L286.8364,360.51842L286.8364,360.75844L287.07643,360.75844L287.07643,360.99847L287.31646,360.99847L287.31646,361.23849
				L287.55649,361.23849L287.55649,361.47852L287.79652,361.47852L287.79652,361.71855L287.79652,361.95857L288.03655,361.95857
				L288.03655,362.1986L288.27658,362.1986L288.27658,362.43862L288.51661,362.43862L288.75664,362.43862L288.75664,362.67865L288.99668,362.67865
				L288.99668,362.91867L289.23671,362.91867L289.23671,363.1587L289.47674,363.1587L289.47674,363.39872L289.71677,363.39872L289.71677,363.63875
				L289.71677,363.87878L289.9568,363.87878L289.9568,364.1188L290.19683,364.1188L290.19683,364.35883L290.43686,364.35883L290.67689,364.35883
				L290.67689,364.59885L290.91692,364.59885L290.91692,364.83888L291.15695,364.83888L291.15695,365.0789L291.39698,365.0789L291.39698,365.31893
				L291.63701,365.31893L291.63701,365.55895L291.63701,365.79898L291.87704,365.79898L292.11707,365.79898L292.11707,366.03901
				L292.3571,366.03901L292.59713,366.03901L292.59713,366.27903L292.83716,366.27903L292.83716,366.51906L293.07719,366.51906L
				293.07719,366.75908L293.55725,366.75908L295.23747,366.75908L295.4775,366.75908L295.4775,366.51906L295.71753,366.51906L295.71753,366.27903
				L295.95756,366.27903L296.19759,366.27903L296.19759,366.03901L296.91768,366.03901L296.91768,366.27903L297.15771,366.27903
				L297.15771,366.51906L297.39774,366.51906L297.39774,366.75908L297.63777,366.75908L297.63777,366.99911L297.8778,366.99911L
				297.8778,367.23913L298.11783,367.23913L298.11783,367.47916L298.35786,367.47916L298.35786,367.71918L298.59789,367.71918L298.59789,367.95921
				L298.83792,367.95921L298.83792,368.19924L299.07795,368.19924L299.07795,368.43926L299.31798,368.43926L299.31798,368.67929
				L299.79805,368.67929L300.03808,368.67929L300.03808,368.91931L300.27811,368.91931L300.75817,368.91931L300.75817,369.15934
				L300.9982,369.15934L301.23823,369.15934L301.23823,369.39936L301.47826,369.39936L301.47826,369.63939L301.71829,369.63939L
				301.95832,369.63939L301.95832,369.87942L302.19835,369.87942L302.19835,370.11944L302.43838,370.11944L302.43838,370.35947L
				302.67841,370.35947L302.67841,370.59949L302.91844,370.59949L302.91844,370.83952L303.15847,370.83952L303.15847,371.07954L
				303.3985,371.07954L303.63853,371.07954L303.63853,371.31957L303.87856,371.31957L304.11859,371.31957L304.11859,371.55959L304.35862,371.55959
				L304.35862,371.79962L304.59865,371.79962L304.83869,371.79962L304.83869,372.03965L305.07872,372.03965L305.07872,372.27967
				L305.31875,372.27967L305.31875,372.5197L305.55878,372.5197L305.79881,372.5197L305.79881,372.75972L306.03884,372.75972L306.03884,372.99975
				L306.27887,372.99975L306.27887,373.23977L306.5189,373.23977L306.75893,373.23977L306.75893,373.4798L306.75893,373.71982L306.99896,373.71982
				L306.99896,373.95985L307.23899,373.95985L307.47902,373.95985L307.47902,374.19988L307.71905,374.19988L307.71905,374.4399L
				307.95908,374.4399L307.95908,374.67993L308.19911,374.67993L309.87933,374.67993L309.87933,374.91995L310.11936,374.91995L310.11936,375.15998
				L310.35939,375.15998L310.35939,375.4L310.59942,375.4L310.59942,375.64003L310.83945,375.64003L310.83945,375.88005L311.07948,375.88005
				L311.07948,376.12008L311.31951,376.12008L311.31951,376.36011L311.55954,376.36011L311.55954,376.60013L311.79957,376.60013
				L312.0396,376.60013L312.0396,376.84016L312.27963,376.84016L312.27963,377.08018L312.51966,377.08018L312.51966,377.32021L312.51966,377.56023
				L312.75969,377.56023L312.75969,377.80026L312.99972,377.80026L312.99972,378.04028L313.23975,378.04028L313.23975,378.28031
				L313.47978,378.28031L313.47978,378.52034L313.71981,378.52034L313.95984,378.52034L313.95984,378.76036L314.19987,378.76036
				L314.19987,379.00039L314.4399,379.00039L314.4399,379.24041L314.4399,379.48044L314.67993,379.48044L314.67993,379.72046L314.91996,379.72046
				L314.91996,379.96049L315.16,379.96049L315.16,384.28095L315.40003,384.28095L315.40003,384.52098L315.64006,384.52098L315.64006,384.761
				L315.88009,384.761L315.88009,386.20115L316.12012,386.20115L316.12012,386.44118L316.36015,386.44118L316.36015,386.68121L316.60018,386.68121
				L316.60018,386.92123L316.60018,387.16126L316.84021,387.16126L316.84021,387.40128L317.08024,387.40128L317.08024,387.64131
				L317.32027,387.64131L317.32027,387.88133L317.5603,387.88133L317.5603,388.12136L317.80033,388.12136L318.04036,388.12136L318.04036,388.36138
				L318.28039,388.36138L318.28039,388.60141L318.52042,388.60141L318.52042,388.84144L318.52042,389.08146L318.76045,389.08146
				L318.76045,389.32149L318.76045,390.52161L319.00048,390.52161L319.00048,390.76164L319.24051,390.76164L319.24051,391.00167
				L319.24051,391.24169L319.48054,391.24169L319.48054,391.48172L319.72057,391.48172L319.9606,391.48172L319.9606,391.72174"/>
			<path clip-path="url(#SVG_CP_2)" fill="none" stroke="#999999" stroke-width="0.96012" stroke-miterlimit="10" stroke-linecap="round" stroke-linejoin="round" d="
				M319.9606,391.72174L320.20063,391.72174L320.20063,392.44182L320.20063,392.68185L320.44067,392.68185L320.44067,392.92187L
				320.6807,392.92187L320.6807,393.1619L320.92073,393.1619L320.92073,393.40192L321.16076,393.40192L321.16076,393.64195L321.40079,393.64195
				L321.40079,394.122L321.16076,394.122L321.16076,395.0821L321.16076,396.0422L320.92073,396.0422L320.92073,397.00231L320.92073,398.20243
				L320.6807,398.20243L320.6807,399.16254L320.6807,400.36266L320.44067,400.36266L320.44067,401.32277L320.44067,402.52289L320.20063,402.52289
				L320.20063,403.483L320.20063,404.68312L319.9606,404.68312L319.9606,405.88325L319.9606,406.84335L319.72057,406.84335L319.72057,408.04348
				L319.48054,408.04348L319.48054,409.00358L319.48054,410.20371L319.24051,410.20371L319.24051,411.16381L319.24051,412.36394
				L319.00048,412.36394L319.00048,413.32404L319.00048,414.52417L318.76045,414.52417L318.76045,415.48427L318.76045,416.6844L
				318.52042,416.6844L318.52042,417.64451L318.52042,418.60461L318.28039,418.60461L318.28039,418.84463L318.04036,418.84463L318.04036,419.08466
				L317.80033,419.08466L317.5603,419.08466L317.5603,419.32468L317.32027,419.32468L317.32027,419.56471L317.08024,419.56471L317.08024,419.80474
				L316.84021,419.80474L316.84021,426.0454L316.84021,427.0055L316.60018,427.0055L316.60018,427.72558L316.60018,428.68568L316.36015,428.68568
				L316.36015,429.40576L316.36015,430.12584L316.12012,430.12584L316.12012,430.36586L315.88009,430.36586L315.88009,430.60589
				L315.88009,430.84591L315.64006,430.84591L315.64006,433.48619L315.40003,433.48619L315.40003,433.72622L315.40003,433.96624
				L315.16,433.96624L315.16,434.20627L314.91996,434.20627L314.91996,449.56791L315.16,449.56791L315.16,449.80793L315.16,450.04796
				L315.40003,450.04796L315.40003,450.28798L315.40003,451.96816L315.64006,451.96816L315.88009,451.96816L315.88009,453.88837
				L315.88009,454.84847L316.12012,454.84847L316.12012,455.80857L315.88009,455.80857L315.88009,457.0087L315.88009,457.48875L
				315.64006,457.48875L315.64006,457.72878L315.40003,457.72878L315.40003,457.9688L315.16,457.9688L315.16,458.20883L314.91996,458.20883
				L314.91996,458.44885L314.67993,458.44885L314.67993,458.68888L314.4399,458.68888L314.4399,458.9289L314.4399,459.16893L314.19987,459.16893
				L314.19987,459.40896L313.95984,459.40896L313.95984,459.64898L313.71981,459.64898L313.47978,459.64898L313.47978,459.88901
				L313.23975,459.88901L313.23975,460.12903L312.99972,460.12903L312.99972,460.36906L312.99972,463.24936L312.99972,464.20947
				L313.23975,464.20947L313.23975,499.2532L312.99972,499.2532L312.51966,499.2532L312.51966,499.49323L312.0396,499.49323L311.31951,499.49323
				L311.31951,499.73325L310.83945,499.73325L310.11936,499.73325L309.15923,499.73325L309.15923,499.49323L308.43914,499.49323
				L307.71905,499.49323L307.71905,499.2532L307.23899,499.2532L306.99896,499.2532L306.99896,499.01318L306.5189,499.01318L306.27887,499.01318
				L306.27887,498.77315L305.79881,498.77315L305.55878,498.77315L305.55878,498.53312L305.31875,498.53312L305.07872,498.53312
				L305.07872,498.2931L304.83869,498.2931L304.59865,498.2931L304.59865,498.05307L304.35862,498.05307L303.87856,498.05307L303.87856,497.81305
				L303.63853,497.81305L303.63853,497.57302L303.3985,497.57302L302.91844,497.57302L302.91844,497.333L302.67841,497.333L302.43838,497.333
				L302.43838,497.09297L301.71829,497.09297L301.47826,497.09297L301.47826,496.85295L300.9982,496.85295L300.51814,496.85295L
				300.51814,496.61292L300.03808,496.61292L299.55802,496.61292L299.55802,496.37289L299.31798,496.37289L298.83792,496.37289L
				298.83792,496.13287L298.35786,496.13287L297.8778,496.13287L297.8778,495.89284L297.63777,495.89284L297.63777,495.65282L297.15771,495.65282
				L296.67765,495.65282L296.67765,495.41279L296.19759,495.41279L295.71753,495.41279L295.71753,495.17277L295.4775,495.17277L
				295.23747,495.17277L295.23747,494.93274L294.99744,494.93274L294.75741,494.93274L294.75741,494.69272L294.27735,494.69272L
				294.03731,494.69272L294.03731,494.45269L293.55725,494.45269L293.31722,494.45269L293.31722,494.21266L293.07719,494.21266L
				292.83716,494.21266L292.83716,493.97264L292.59713,493.97264L292.59713,493.73261L292.3571,493.73261L292.11707,493.73261L292.11707,493.49259
				L291.87704,493.49259L291.63701,493.49259L291.63701,493.25256L291.39698,493.25256L291.15695,493.25256L291.15695,493.01254
				L290.67689,493.01254L290.19683,493.01254L290.19683,492.77251L289.9568,492.77251L289.47674,492.77251L289.47674,492.53249L
				289.23671,492.53249L288.99668,492.53249L288.99668,492.29246L288.51661,492.29246L288.03655,492.29246L288.03655,492.05243L
				287.55649,492.05243L287.55649,491.81241L287.07643,491.81241L286.59637,491.81241L286.59637,491.57238L286.11631,491.57238L
				285.63625,491.57238L285.63625,491.81241L285.39622,491.81241L285.39622,492.05243L285.15619,492.05243L285.15619,492.29246L
				285.15619,492.53249L284.91616,492.53249L284.91616,492.77251L284.67613,492.77251L284.4361,492.77251L284.4361,493.01254L284.4361,493.25256
				L284.19607,493.25256L284.19607,493.49259L283.95604,493.49259L283.95604,493.73261L283.716,493.73261L283.716,494.21266L283.47597,494.21266
				L283.47597,494.45269L283.23594,494.45269L283.23594,494.69272L282.99591,494.69272L282.99591,494.93274L282.75588,494.93274
				L282.75588,495.17277L282.51585,495.17277L282.51585,494.93274L282.27582,494.93274L282.27582,494.69272L282.03579,494.69272
				L282.03579,494.45269L281.79576,494.45269L281.79576,494.21266L281.55573,494.21266L281.55573,493.97264L281.55573,493.73261
				L281.3157,493.73261L281.3157,493.49259L281.07567,493.49259L281.07567,493.25256L280.83564,493.25256L280.83564,493.01254L280.59561,493.01254
				L280.35558,493.01254L280.35558,492.77251L280.35558,493.01254L280.11555,493.01254L279.87552,493.01254L279.87552,493.25256
				L279.63549,493.25256L279.63549,493.01254L279.39546,493.01254L279.39546,492.77251L279.15543,492.77251L279.15543,492.53249
				L279.39546,492.53249L279.63549,492.53249L279.63549,492.29246L279.87552,492.29246L279.87552,492.05243L280.11555,492.05243
				L280.11555,491.81241L280.35558,491.81241L280.35558,491.57238L280.59561,491.57238L280.83564,491.57238L280.83564,491.33236
				L281.07567,491.33236L281.07567,491.09233L281.3157,491.09233L281.55573,491.09233L281.55573,490.85231L281.79576,490.85231L
				281.79576,490.61228L281.3157,490.61228L281.3157,490.37225L280.83564,490.37225L280.35558,490.37225L280.35558,490.13223L279.63549,490.13223
				L279.63549,489.8922L278.9154,489.8922L278.43533,489.8922L276.75512,489.8922L276.75512,490.13223L276.27506,490.13223L276.27506,490.37225
				L275.795,490.37225L275.55497,490.37225L275.55497,490.61228L275.07491,490.61228L274.59485,490.61228L274.59485,490.85231L274.35482,490.85231
				L273.87476,490.85231L273.87476,491.33236L274.11479,491.33236L274.11479,492.05243L274.11479,493.01254L274.35482,493.01254
				L274.11479,493.01254L274.11479,493.25256L273.87476,493.25256L273.63473,493.25256L273.63473,493.49259L273.3947,493.49259L
				273.15466,493.49259L273.15466,493.97264L273.3947,493.97264L273.3947,494.21266L273.3947,494.45269L273.63473,494.45269L273.63473,494.69272
				L273.87476,494.69272L273.87476,494.93274L274.11479,494.93274L274.11479,494.69272L274.35482,494.69272L274.59485,494.69272
				L274.83488,494.69272L274.83488,494.45269L275.07491,494.45269L275.31494,494.45269L275.31494,494.69272L275.55497,494.69272
				L275.55497,494.93274L275.55497,495.17277L275.795,495.17277L275.795,495.41279L276.03503,495.41279L276.03503,495.89284L276.03503,496.13287
				L276.27506,496.13287L276.27506,496.37289L276.27506,496.61292L276.51509,496.61292L276.51509,496.85295L276.03503,496.85295
				L276.03503,497.09297L275.55497,497.09297L275.07491,497.09297L275.07491,497.333L274.59485,497.333L274.35482,497.333L274.35482,497.57302
				L274.35482,498.05307L274.11479,498.05307L274.11479,498.2931L273.87476,498.2931L273.87476,498.53312L273.87476,498.77315L273.63473,498.77315
				L273.63473,499.01318L273.63473,499.2532L273.3947,499.2532L273.3947,499.49323L273.15466,499.49323L273.15466,499.73325L272.91463,499.73325
				L272.91463,499.97328L272.6746,499.97328L272.6746,500.2133L272.6746,500.45333L272.43457,500.45333L272.43457,500.69335L272.19454,500.69335
				L272.19454,500.93338L271.95451,500.93338L271.95451,501.17341L271.95451,501.41343L271.71448,501.41343L271.71448,501.65346
				L271.47445,501.65346L271.47445,501.89348L271.47445,502.13351L271.23442,502.13351L271.23442,502.37353L270.99439,502.37353
				L270.99439,502.61356L270.75436,502.61356L270.75436,502.85359L270.51433,502.85359L270.51433,503.09361L270.2743,503.09361L
				270.2743,503.33364L270.2743,503.57366L270.03427,503.57366L270.03427,504.05371L269.79424,504.05371L269.79424,504.29374L269.55421,504.29374
				L269.55421,504.53376L269.31418,504.53376L269.31418,504.29374L269.55421,504.29374L269.55421,503.81369L269.31418,503.81369
				L269.31418,503.57366L269.07415,503.57366L268.59409,503.57366L268.59409,503.33364L268.35406,503.33364L267.87399,503.33364
				L267.87399,503.09361L267.63396,503.09361L267.39393,503.09361L267.39393,502.85359L266.91387,502.85359L266.43381,502.85359
				L266.43381,503.09361L266.19378,503.09361L265.95375,503.09361L265.95375,503.33364L265.71372,503.33364L265.47369,503.33364
				L265.47369,503.57366L264.99363,503.57366L264.99363,503.81369L264.51357,503.81369L264.51357,504.05371L264.27354,504.05371
				L264.03351,504.05371L264.03351,503.81369L264.27354,503.81369L264.27354,503.57366L264.27354,503.33364L264.51357,503.33364
				L264.51357,503.09361L264.7536,503.09361L264.7536,502.85359L264.7536,502.61356L264.99363,502.61356L264.99363,502.37353L265.23366,502.37353
				L265.23366,502.13351L265.47369,502.13351L265.47369,501.89348L265.47369,501.65346L265.71372,501.65346L265.71372,501.41343
				L265.95375,501.41343L265.95375,501.65346L266.19378,501.65346L266.19378,501.41343L266.43381,501.41343L266.67384,501.41343
				L266.67384,501.17341L266.91387,501.17341L266.91387,501.41343L267.1539,501.41343L267.39393,501.41343L267.39393,501.65346L
				267.63396,501.65346L267.63396,501.89348L267.87399,501.89348L267.87399,502.13351L268.11402,502.13351L268.11402,502.37353L
				268.35406,502.37353L268.59409,502.37353L268.59409,502.61356L268.83412,502.61356L268.83412,502.85359L269.07415,502.85359L
				269.31418,502.85359L269.31418,503.09361L269.55421,503.09361L269.79424,503.09361L269.79424,502.85359L269.79424,502.61356L
				270.03427,502.61356L270.03427,502.37353L270.2743,502.37353L270.2743,502.13351L270.51433,502.13351L270.51433,501.65346L270.51433,500.69335
				L270.75436,500.69335L270.75436,499.2532L270.75436,498.77315L270.51433,498.77315L270.51433,498.53312L270.2743,498.53312L270.2743,498.2931
				L270.51433,498.2931L270.51433,498.05307L270.75436,498.05307L270.75436,497.81305L271.23442,497.81305L271.23442,497.57302L
				271.47445,497.57302L271.47445,497.333L271.71448,497.333L271.95451,497.333L271.95451,497.57302L272.19454,497.57302L272.19454,498.05307
				L272.43457,498.05307L272.43457,498.2931L272.43457,498.53312L272.6746,498.53312L272.6746,498.77315L273.15466,498.77315L273.15466,498.53312
				L273.3947,498.53312L273.3947,498.2931L273.3947,498.05307L273.63473,498.05307L273.63473,497.81305L273.63473,497.57302L273.87476,497.57302
				L273.87476,497.333L273.87476,497.09297L274.11479,497.09297L274.11479,496.37289L273.87476,496.37289L273.87476,496.13287L273.87476,495.65282
				L273.63473,495.65282L273.63473,495.41279L273.63473,495.17277L273.3947,495.17277L273.3947,494.93274L273.3947,494.69272L273.15466,494.69272
				L273.15466,494.45269L273.15466,494.21266L272.91463,494.21266L272.6746,494.21266L272.6746,493.73261L272.6746,493.49259L272.43457,493.49259
				L272.43457,493.25256L272.19454,493.25256L272.19454,493.01254L272.19454,492.77251L271.95451,492.77251L271.95451,492.53249
				L271.95451,492.29246L271.71448,492.29246L271.71448,491.81241L271.71448,491.57238L271.47445,491.57238L270.99439,491.57238
				L270.99439,491.33236L270.75436,491.33236L270.75436,491.57238L270.75436,492.29246L270.51433,492.29246L270.51433,492.53249
				L270.75436,492.53249L270.75436,492.77251L270.99439,492.77251L270.99439,493.01254L270.75436,493.01254L270.75436,493.25256
				L270.75436,493.49259L270.51433,493.49259L270.75436,493.49259L270.75436,493.73261L270.75436,493.97264L270.75436,494.21266
				L270.51433,494.21266L270.2743,494.21266L270.2743,493.97264L270.03427,493.97264L270.03427,494.21266L269.79424,494.21266L269.55421,494.21266
				L269.55421,494.45269L269.31418,494.45269L269.31418,494.69272L268.83412,494.69272L268.83412,494.93274L268.59409,494.93274
				L268.59409,495.17277L268.35406,495.17277L268.35406,495.41279L268.11402,495.41279L268.11402,495.65282L267.87399,495.65282
				L267.63396,495.65282L267.63396,495.89284L267.63396,496.13287L267.39393,496.13287L267.1539,496.13287L267.1539,496.37289L266.91387,496.37289
				L266.91387,496.61292L266.67384,496.61292L266.43381,496.61292L266.43381,496.85295L266.19378,496.85295L266.19378,497.09297
				L265.95375,497.09297L265.95375,496.61292L266.19378,496.61292L266.19378,496.13287L266.19378,495.65282L265.95375,495.65282
				L265.47369,495.65282L265.47369,495.41279L264.7536,495.41279L264.27354,495.41279L264.27354,495.17277L263.79348,495.17277L
				263.31342,495.17277L263.31342,494.93274L262.59332,494.93274L262.59332,495.17277L262.35329,495.17277L261.87323,495.17277L
				261.87323,495.41279L261.6332,495.41279L261.39317,495.41279L261.39317,495.65282L260.91311,495.65282L255.39241,495.65282L255.39241,495.17277
				L255.15238,495.17277L255.15238,494.21266L255.15238,493.73261L254.67232,493.73261L253.95223,493.73261L253.95223,493.49259
				L252.99211,493.49259L252.03198,493.49259L252.03198,493.25256L251.79195,493.25256L251.79195,492.29246L251.79195,492.05243
				L250.35177,492.05243L250.35177,491.81241L249.87171,491.81241L249.15162,491.81241L249.15162,491.57238L248.67156,491.57238
				L247.95147,491.57238L247.95147,491.33236L247.71144,491.33236L247.71144,491.09233L247.95147,491.09233L247.95147,490.61228
				L247.95147,489.8922L248.1915,489.8922L248.1915,489.41215L247.71144,489.41215L247.71144,489.17213L247.23137,489.17213L246.75131,489.17213
				L246.75131,488.9321L246.51128,488.9321L246.27125,488.9321L246.27125,488.69208L246.03122,488.69208L245.55116,488.69208L245.55116,488.45205
				L245.31113,488.45205L245.0711,488.45205L245.0711,488.21202L244.83107,488.21202L244.83107,487.972L244.59104,487.972L244.35101,487.972
				L244.35101,487.73197L244.11098,487.73197L243.63092,487.73197L243.63092,487.49195L243.39089,487.49195L242.91083,487.49195
				L242.91083,487.25192L242.6708,487.25192L242.43077,487.25192L242.43077,487.0119L242.19074,487.0119L241.9507,487.0119L241.9507,486.77187
				L241.47064,486.77187L241.23061,486.77187L241.23061,486.53185L240.99058,486.53185L240.75055,486.53185L240.75055,486.29182
				L240.51052,486.29182L240.51052,486.05179L240.27049,486.05179L239.79043,486.05179L239.79043,485.81177L239.5504,485.81177L
				239.31037,485.81177L239.31037,485.57174L239.07034,485.57174L238.83031,485.57174L238.83031,485.33172L238.35025,485.33172L
				237.63016,485.33172L237.63016,485.09169L237.1501,485.09169L236.43,485.09169L236.43,484.85167L235.94994,484.85167L234.98982,484.85167
				L234.98982,484.61164L234.26973,484.61164L233.78967,484.61164L233.78967,484.85167L233.78967,485.33172L233.54964,485.33172
				L233.54964,485.81177L233.54964,486.53185L233.30961,486.53185L233.30961,487.0119L233.30961,487.49195L233.06958,487.49195L
				233.06958,488.21202L233.06958,488.69208L232.82955,488.69208L232.82955,489.17213L232.58952,489.17213L232.58952,489.41215L
				232.10946,489.41215L231.86943,489.41215L231.86943,489.65218L231.38936,489.65218L231.14933,489.65218L231.14933,489.8922L230.9093,489.8922
				L230.66927,489.8922L230.66927,490.13223L230.18921,490.13223L230.18921,490.37225L229.94918,490.37225L229.70915,490.37225L
				229.70915,490.61228L229.46912,490.61228L228.98906,490.61228L228.98906,490.85231L228.74903,490.85231L228.509,490.85231L228.509,491.09233
				L228.26897,491.09233L227.78891,491.09233L227.78891,491.33236L227.78891,491.09233L227.54888,491.09233L227.54888,490.61228
				L227.54888,490.13223L227.30885,490.13223L227.30885,489.65218L227.30885,489.17213L227.06882,489.17213L227.06882,488.45205
				L227.06882,487.73197L226.82879,487.73197L226.82879,487.0119L226.82879,486.77187L226.58876,486.77187L226.58876,487.0119L226.10869,487.0119
				L226.10869,487.25192L225.86866,487.25192L225.62863,487.25192L225.62863,487.49195L225.3886,487.49195L225.14857,487.49195L
				225.14857,487.73197L224.90854,487.73197L224.66851,487.73197L224.66851,487.972L224.42848,487.972L224.42848,488.21202L223.94842,488.21202
				L223.94842,488.45205L223.70839,488.45205L223.70839,488.21202L223.46836,488.21202L223.46836,487.972L223.46836,487.73197L223.22833,487.73197
				L223.22833,487.49195L222.9883,487.49195L222.9883,487.25192L222.9883,487.0119L222.74827,487.0119L222.74827,485.81177L222.50824,485.81177
				L222.50824,485.33172L221.30809,485.33172L220.82802,485.33172L220.82802,485.57174L220.58799,485.57174L220.58799,485.81177
				L220.10793,485.81177L220.10793,486.05179L219.8679,486.05179L219.8679,485.81177L219.8679,485.57174L219.62787,485.57174L219.62787,485.33172
				L219.38784,485.33172L219.38784,485.09169L219.14781,485.09169L219.14781,484.85167L218.90778,484.85167L218.90778,484.61164
				L218.66775,484.61164L218.66775,484.37162L218.66775,484.13159L218.66775,483.89156L218.90778,483.89156L218.90778,483.65154
				L218.90778,483.41151L219.14781,483.41151L219.14781,483.17149L219.14781,482.93146L219.38784,482.93146L219.38784,482.69144
				L219.38784,482.45141L219.38784,482.21139L219.14781,482.21139L218.90778,482.21139L218.90778,481.97136L218.66775,481.97136
				L218.66775,481.73133L218.18769,481.73133L217.94766,481.73133L217.94766,481.97136L217.94766,482.21139L217.70763,482.21139
				L217.70763,482.45141L217.4676,482.45141L217.4676,482.69144L217.4676,482.93146L217.22757,482.93146L217.22757,483.17149L216.98754,483.17149
				L216.98754,483.41151L216.98754,483.65154L216.74751,483.65154L216.74751,483.41151L216.50748,483.41151L216.50748,483.17149
				L216.26745,483.17149L216.26745,482.93146L216.02742,482.93146L215.78738,482.93146L215.78738,482.69144L215.54735,482.69144
				L215.54735,482.45141L215.54735,482.21139L215.30732,482.21139L215.06729,482.21139L215.06729,482.45141L214.82726,482.45141
				L214.82726,482.69144L214.82726,482.93146L214.58723,482.93146L214.3472,482.93146L214.3472,483.17149L214.10717,483.17149L214.10717,483.41151
				L213.86714,483.41151L213.86714,483.65154L213.62711,483.65154L213.62711,483.89156L213.86714,483.89156L213.86714,484.13159
				L214.10717,484.13159L214.10717,484.37162L214.10717,484.61164L214.3472,484.61164L214.3472,484.85167L214.58723,484.85167L214.82726,484.85167
				L214.82726,485.09169L215.06729,485.09169L215.06729,485.33172L215.30732,485.33172L215.30732,485.57174L215.30732,485.81177
				L215.54735,485.81177L215.54735,486.05179L215.78738,486.05179L215.78738,486.29182L216.02742,486.29182L216.02742,486.53185
				L216.26745,486.53185L216.26745,486.77187L216.50748,486.77187L216.50748,487.0119L216.74751,487.0119L216.74751,487.25192L216.98754,487.25192
				L216.98754,487.49195L217.22757,487.49195L217.22757,487.73197L217.4676,487.73197L217.4676,487.972L217.70763,487.972L217.70763,488.21202
				L217.70763,488.45205L217.94766,488.45205L217.94766,488.69208L218.18769,488.69208L218.18769,488.9321L218.42772,488.9321L218.18769,488.9321
				L218.18769,489.17213L217.94766,489.17213L217.94766,489.41215L217.70763,489.41215L217.70763,489.65218L217.4676,489.65218L
				217.22757,489.65218L217.22757,489.8922L216.98754,489.8922L216.98754,490.13223L216.98754,490.37225L216.74751,490.37225L216.50748,490.37225
				L216.50748,490.13223L216.26745,490.13223L216.26745,489.8922L216.74751,489.8922L216.74751,489.65218L216.74751,489.41215L216.74751,489.65218
				L216.50748,489.65218L216.26745,489.65218L216.26745,489.8922L216.02742,489.8922L216.02742,489.65218L215.78738,489.65218L215.78738,489.41215
				L215.54735,489.41215L215.54735,489.17213L215.30732,489.17213L215.30732,488.9321L215.30732,488.69208L215.06729,488.69208L
				215.06729,488.45205L214.82726,488.45205L214.82726,488.21202L214.58723,488.21202L214.58723,487.972L214.3472,487.972L214.3472,487.73197
				L214.10717,487.73197L214.10717,487.49195L213.86714,487.49195L213.86714,487.25192L213.62711,487.25192L213.62711,487.0119L
				213.38708,487.0119L213.38708,486.77187L213.14705,486.77187L213.14705,486.53185L212.90702,486.53185L212.90702,486.29182L212.66699,486.29182
				L212.66699,486.05179L212.42696,486.05179L212.42696,485.81177L212.18693,485.81177L212.18693,485.57174L211.9469,485.57174L
				211.9469,485.81177L211.70687,485.81177L211.70687,486.05179L211.46684,486.05179L211.46684,486.29182L211.46684,486.53185L211.22681,486.53185
				L211.22681,486.77187L210.98678,486.77187L210.98678,487.0119L210.74674,487.0119L210.74674,487.25192L210.50671,487.25192L210.50671,487.49195
				L210.26668,487.49195L210.26668,487.73197L210.02665,487.73197L210.02665,487.972L209.78662,487.972L209.78662,488.21202L209.78662,488.45205
				L209.54659,488.45205L209.54659,488.69208L209.30656,488.69208"/>
			<path clip-path="url(#SVG_CP_2)" fill="none" stroke="#999999" stroke-width="0.96012" stroke-miterlimit="10" stroke-linecap="round" stroke-linejoin="round" d="
				M209.30656,488.69208L209.30656,488.45205L209.30656,487.972L209.06653,487.972L209.06653,487.49195L209.06653,487.25192L208.8265,487.25192
				L208.8265,486.77187L208.58647,486.77187L208.58647,486.53185L208.58647,486.29182L208.34644,486.29182L208.34644,486.05179L
				208.10641,486.05179L208.10641,485.81177L208.10641,485.57174L207.86638,485.57174L207.86638,485.33172L207.86638,485.09169L
				207.62635,485.09169L207.62635,484.85167L207.38632,484.85167L207.38632,484.61164L207.38632,484.37162L207.14629,484.37162L
				207.14629,484.13159L207.14629,483.89156L206.90626,483.89156L206.90626,483.65154L206.90626,483.41151L206.66623,483.41151L
				206.66623,483.17149L206.4262,483.17149L206.4262,482.45141L206.18617,482.45141L206.18617,482.21139L206.18617,481.73133L205.94614,481.73133
				L205.94614,481.49131L205.94614,480.77123L205.70611,480.77123L205.94614,480.77123L205.94614,480.53121L205.70611,480.53121
				L205.70611,480.05116L205.70611,479.81113L205.46607,479.81113L205.46607,479.33108L205.46607,478.85103L205.46607,478.611L205.70611,478.611
				L205.70611,478.13095L205.94614,478.13095L205.94614,477.6509L205.94614,477.41087L206.18617,477.41087L206.18617,476.45077L
				205.94614,476.45077L205.94614,475.97072L205.94614,475.73069L205.70611,475.73069L205.70611,475.25064L205.70611,474.77059L
				205.46607,474.77059L205.46607,474.53057L205.46607,474.05052L205.22604,474.05052L205.22604,471.65026L205.46607,471.65026L
				205.46607,470.45013L205.22604,470.45013L205.22604,469.97008L205.22604,469.73006L204.98601,469.73006L204.98601,467.80985L
				204.98601,464.68952L204.74598,464.68952L204.98601,464.68952L204.98601,463.72942L204.74598,463.72942L204.74598,462.28926L
				204.50595,462.28926L204.50595,461.56919L204.74598,461.56919L204.74598,460.12903L204.98601,460.12903L204.98601,459.16893L
				204.98601,458.68888L205.22604,458.68888L205.22604,458.44885L205.22604,457.9688L205.46607,457.9688L205.46607,457.48875L205.46607,457.24873
				L205.70611,457.24873L205.70611,456.52865L205.70611,456.28862L205.94614,456.28862L205.94614,455.80857L205.94614,455.56855
				L206.18617,455.56855L206.18617,455.32852L206.18617,454.84847L206.4262,454.84847L206.4262,454.60844L206.4262,454.36842L206.66623,454.36842
				L206.66623,453.88837L206.90626,453.88837L206.90626,453.64834L206.90626,453.40832L207.14629,453.40832L207.14629,452.92826
				L207.14629,452.68824L207.38632,452.68824L207.38632,452.44821L207.38632,452.20819L207.62635,452.20819L207.62635,451.96816
				L207.62635,451.72814L207.86638,451.72814L207.86638,451.00806L207.86638,448.6078L208.10641,448.6078L208.10641,446.92763L208.10641,444.52737
				L208.34644,444.52737L208.34644,443.08722L208.34644,442.12711L208.58647,442.12711L208.58647,440.92699L208.58647,440.20691
				L208.8265,440.20691L208.8265,434.20627L209.06653,434.20627L209.06653,432.04604L209.06653,430.12584L209.30656,430.12584L209.30656,428.20563
				L209.30656,425.56535L209.54659,425.56535L209.54659,424.1252L209.54659,422.44502L209.78662,422.44502L209.78662,420.76484L
				209.78662,419.08466L210.02665,419.08466L210.02665,417.88453L210.02665,417.16445L210.26668,417.16445L210.26668,416.6844L210.26668,416.44438
				L210.50671,416.44438L210.50671,415.96433L210.74674,415.96433L210.74674,415.7243L210.98678,415.7243L210.98678,415.48427L211.22681,415.48427
				L211.22681,415.24425L211.46684,415.24425L211.46684,415.00422L211.70687,415.00422L211.70687,414.7642L211.9469,414.7642L211.9469,414.52417
				L212.18693,414.52417L212.18693,414.28415L212.42696,414.28415L212.42696,414.04412L212.42696,413.8041L212.66699,413.8041L212.90702,413.8041
				L212.90702,413.56407L212.90702,413.32404L213.14705,413.32404L213.14705,413.08402L213.14705,412.84399L213.38708,412.84399
				L213.38708,412.60397L213.62711,412.60397L213.62711,412.12392L213.62711,411.88389L213.86714,411.88389L213.86714,411.64387
				L214.10717,411.64387L214.10717,411.16381L214.3472,411.16381L214.3472,410.92379L214.58723,410.92379L214.58723,410.44374L214.82726,410.44374
				L214.82726,409.96369L214.82726,409.48364L215.06729,409.48364L215.06729,408.28351L215.06729,407.80346L215.06729,407.56343
				L215.06729,407.32341L215.06729,407.08338L215.06729,406.3633L215.30732,406.3633L215.30732,405.88325L215.30732,405.4032L215.54735,405.4032
				L215.54735,404.68312L215.54735,403.72302L215.78738,403.72302L215.78738,403.483L215.54735,403.483L215.54735,402.04284L215.78738,402.04284
				L215.78738,401.80282L215.54735,401.80282L215.54735,400.84271L215.54735,399.88261L215.30732,399.88261L215.30732,399.40256
				L215.54735,399.40256L215.54735,398.92251L215.54735,398.44246L215.78738,398.44246L215.78738,398.20243L215.78738,397.96241
				L216.02742,397.96241L216.02742,397.72238L216.02742,397.48236L216.26745,397.48236L216.26745,397.24233L216.26745,397.00231
				L216.50748,397.00231L216.50748,396.52225L216.74751,396.52225L216.74751,396.28223L216.74751,396.0422L216.98754,396.0422L216.98754,395.80218
				L216.98754,395.56215L217.22757,395.56215L217.22757,395.32213L217.22757,395.0821L217.4676,395.0821L217.4676,394.60205L217.4676,394.36202
				L217.70763,394.36202L217.70763,394.122L217.70763,393.88197L217.94766,393.88197L217.94766,393.64195L217.94766,393.40192L218.18769,393.40192
				L218.18769,393.1619L218.18769,392.92187L218.42772,392.92187L218.42772,392.68185L218.66775,392.68185L218.66775,392.44182L
				218.66775,392.20179L218.90778,392.20179L218.90778,391.96177L219.14781,391.96177L219.14781,391.72174L219.14781,391.48172L
				219.38784,391.48172L219.38784,391.24169L219.62787,391.24169L219.62787,390.76164L219.62787,390.52161L219.8679,390.52161L219.8679,390.28159
				L219.8679,390.04156L220.10793,390.04156L220.10793,389.80154L220.34796,389.80154L220.34796,389.56151L220.58799,389.56151L
				220.58799,389.32149L220.58799,389.08146L220.82802,389.08146L220.82802,388.60141L220.82802,388.36138L221.06805,388.36138L
				221.06805,388.12136L221.06805,387.88133L221.30809,387.88133L221.30809,387.64131L221.30809,387.40128L221.54812,387.40128L
				221.54812,387.16126L221.54812,386.68121L221.78815,386.68121L221.78815,386.44118L221.78815,386.20115L222.02818,386.20115L
				222.02818,385.96113L222.02818,385.7211L222.26821,385.7211L222.50824,385.7211L222.50824,385.48108L222.50824,385.24105L222.74827,385.24105
				L222.74827,385.00103L222.74827,384.761L222.9883,384.761L222.9883,384.52098L222.9883,384.28095L223.22833,384.28095L223.22833,384.04092
				L223.22833,383.8009L223.46836,383.8009L223.46836,383.56087L223.70839,383.56087L223.70839,383.32085L223.70839,382.8408L223.94842,382.8408
				L223.94842,382.60077L224.18845,382.60077L224.18845,382.36075L224.42848,382.36075L224.42848,382.12072L224.66851,382.12072
				L224.66851,381.88069L224.90854,381.88069L224.90854,381.64067L225.14857,381.64067L225.14857,381.40064L225.3886,381.40064L
				225.3886,381.16062L225.3886,380.92059L225.62863,380.92059L225.62863,380.68057L225.86866,380.68057L225.86866,380.44054L226.10869,380.44054
				L226.10869,380.20051L226.34872,380.20051L226.58876,380.20051L226.58876,379.96049L226.58876,379.72046L226.82879,379.72046
				L226.82879,379.48044L226.82879,379.24041L227.06882,379.24041L227.06882,379.00039L227.06882,378.76036L227.30885,378.76036
				L227.30885,378.52034L227.54888,378.52034L227.54888,378.28031L227.78891,378.28031L227.78891,378.04028L228.02894,378.04028
				L228.02894,377.80026L228.26897,377.80026L228.509,377.80026L228.509,377.56023L228.74903,377.56023L228.74903,377.32021L228.74903,377.08018
				L228.98906,377.08018L228.98906,376.84016L229.22909,376.84016L229.22909,376.60013L229.46912,376.60013L229.46912,376.36011
				L229.70915,376.36011L229.70915,376.12008L229.94918,376.12008L229.94918,375.88005L230.18921,375.88005L230.18921,375.64003
				L230.42924,375.64003L230.42924,375.4L230.66927,375.4L230.66927,375.15998L230.9093,375.15998L230.9093,374.91995L231.14933,374.91995
				L231.14933,374.67993L231.38936,374.67993L231.38936,374.4399L231.62939,374.4399L231.62939,374.19988L231.86943,374.19988L231.86943,373.95985
				L232.10946,373.95985L232.10946,373.71982L232.34949,373.71982L232.34949,373.4798L232.58952,373.4798L232.58952,373.23977L232.82955,373.23977
				L232.82955,372.99975L233.06958,372.99975L233.06958,372.75972L233.30961,372.75972L233.30961,372.5197L233.54964,372.5197L233.54964,372.27967
				L233.54964,372.03965L233.78967,372.03965L233.78967,370.59949L233.78967,370.35947L234.0297,370.35947L234.0297,370.11944L234.26973,370.11944
				L234.26973,369.87942L234.26973,369.39936L234.50976,369.39936L234.50976,368.91931L234.50976,368.67929L234.74979,368.67929
				L234.74979,368.43926L234.74979,367.95921L234.98982,367.95921L234.98982,367.23913L234.98982,366.99911L234.98982,366.03901
				L234.74979,366.03901L234.74979,365.0789L234.98982,365.0789L234.98982,364.59885L234.98982,364.35883L235.22985,364.35883L235.22985,363.87878
				L235.22985,363.39872L235.46988,363.39872L235.46988,363.1587L235.46988,362.67865L235.70991,362.67865L235.70991,362.43862L
				235.70991,361.95857L235.94994,361.95857L235.94994,361.47852L236.18997,361.47852L236.18997,360.99847L236.18997,360.75844L
				236.43,360.75844L236.43,360.51842L236.43,360.03837L236.67003,360.03837L236.67003,359.55832L236.67003,359.31829L236.91007,359.31829
				L236.91007,359.07826L236.91007,358.59821L237.1501,358.59821L237.1501,358.35819L237.1501,358.11816L237.39013,358.11816L237.39013,357.63811
				L237.39013,357.39809L237.63016,357.39809L237.63016,357.15806L237.63016,356.91803L237.87019,356.91803L237.87019,356.67801
				L238.11022,356.67801L238.11022,356.43798L238.11022,356.19796L238.35025,356.19796L238.35025,355.95793L238.35025,355.71791
				L238.59028,355.71791L238.59028,355.47788L238.59028,355.23785L238.83031,355.23785L238.83031,354.7578L238.83031,354.51778L
				239.07034,354.51778L239.07034,354.27775L239.07034,353.7977L239.31037,353.7977L239.31037,353.55768L239.5504,353.55768L239.5504,353.31765
				L239.79043,353.31765L239.79043,353.07762L240.03046,353.07762L240.03046,352.8376L240.27049,352.8376L240.27049,352.59757L240.51052,352.59757
				L240.51052,352.35755L240.75055,352.35755L240.75055,352.11752L240.99058,352.11752L240.99058,351.8775L241.23061,351.8775L241.23061,351.63747
				L241.47064,351.63747L241.47064,351.39745L241.71067,351.39745L241.71067,351.15742L241.9507,351.15742L241.9507,350.91739L242.19074,350.91739
				L242.19074,350.67737L242.43077,350.67737L242.43077,350.43734L242.6708,350.43734L242.6708,350.19732L242.91083,350.19732L242.91083,349.95729
				L243.15086,349.95729L243.15086,349.71727L243.39089,349.71727L243.39089,349.47724L243.63092,349.47724L243.63092,349.23722
				L243.87095,349.23722L243.87095,348.99719L244.11098,348.99719L244.11098,348.75716L244.35101,348.75716L244.35101,348.51714
				L244.59104,348.51714L244.59104,348.27711L244.83107,348.27711L244.83107,348.03709L245.0711,348.03709L245.0711,347.79706L245.31113,347.79706
				L245.31113,347.55704L245.55116,347.55704L245.55116,347.31701L246.03122,347.31701L246.03122,347.07699L246.27125,347.07699
				L246.51128,347.07699L246.51128,346.83696L246.75131,346.83696L246.99134,346.83696L246.99134,346.59693L247.23137,346.59693
				L247.23137,346.35691L247.47141,346.35691L247.95147,346.35691L247.95147,346.11688L248.1915,346.11688L248.1915,345.87686L248.43153,345.87686
				L248.67156,345.87686L248.67156,345.63683L248.91159,345.63683L248.91159,345.39681L249.15162,345.39681L249.15162,345.15678
				L249.39165,345.15678L249.63168,345.15678L249.63168,344.91676L249.87171,344.91676L249.87171,344.67673L250.11174,344.67673
				L250.11174,344.4367L250.35177,344.4367L250.5918,344.4367L250.5918,344.19668L250.83183,344.19668L250.83183,343.95665L251.07186,343.95665
				L251.55192,343.95665L251.55192,343.71663L252.27201,343.71663L252.51205,343.71663L252.51205,343.4766L252.75208,343.4766L253.23214,343.4766
				L253.23214,343.23658L253.7122,343.23658L253.7122,342.99655L253.95223,342.99655L253.95223,342.75652L253.95223,342.27647L254.19226,342.27647
				L254.19226,341.5564L254.19226,341.31637L254.43229,341.31637L254.43229,340.59629L254.43229,339.87622L254.67232,339.87622L
				254.67232,339.63619L254.67232,339.15614L254.91235,339.15614L254.91235,338.67609L254.91235,337.95601L255.15238,337.95601L
				255.15238,337.47596L255.15238,336.99591L255.39241,336.99591L255.39241,336.51586L255.63244,336.51586L255.63244,336.03581L
				255.63244,335.55576L255.87247,335.55576L255.87247,335.07571L255.87247,334.59566L256.1125,334.59566L256.1125,334.1156L256.1125,332.1954
				L255.87247,332.1954L255.87247,331.95537L255.87247,331.47532L255.63244,331.47532L255.63244,331.2353L255.15238,331.2353L255.15238,330.99527
				L254.91235,330.99527L254.91235,330.75525L254.67232,330.75525L254.43229,330.75525L254.43229,330.51522L254.19226,330.51522
				L254.19226,330.27519L253.95223,330.27519L253.23214,330.27519L253.23214,330.03517L252.99211,330.03517L252.51205,330.03517
				L252.51205,329.79514L252.27201,329.79514L252.27201,329.55512L252.27201,329.07507L252.27201,328.83504L252.51205,328.83504
				L252.51205,327.87494L252.51205,327.63491L252.75208,327.63491L252.75208,327.39489L252.99211,327.39489L252.99211,327.15486
				L253.23214,327.15486L253.23214,326.91484L253.47217,326.91484L253.7122,326.91484L253.7122,326.67481L253.7122,326.43479L253.95223,326.43479
				L253.95223,326.19476L254.19226,326.19476L254.43229,326.19476L254.43229,325.95473L254.67232,325.95473L254.67232,325.71471
				L254.91235,325.71471L255.15238,325.71471L255.15238,325.47468L255.63244,325.47468L255.87247,325.47468L255.87247,325.23466
				L256.1125,325.23466L256.35253,325.23466L256.35253,324.99463L256.59256,324.99463L257.07262,324.99463L257.07262,324.75461L
				257.55268,324.75461L257.55268,324.51458L257.79272,324.51458L258.27278,324.51458L258.27278,324.27456L258.51281,324.27456L
				258.75284,324.27456L259.2329,324.27456L259.47293,324.27456L259.47293,324.03453L259.71296,324.03453L259.95299,324.03453L259.95299,323.7945
				L260.19302,323.7945L260.19302,323.55448L260.43305,323.55448L260.43305,323.31445L260.43305,323.07443L260.67308,323.07443L
				260.91311,323.07443L260.91311,322.8344L260.91311,322.59438L261.15314,322.59438L261.15314,322.35435L261.39317,322.35435L261.39317,322.11433
				L261.6332,322.11433L261.6332,321.8743L261.87323,321.8743L261.87323,321.63427L262.11326,321.63427L262.35329,321.63427L262.35329,321.39425
				L262.59332,321.39425L263.07339,321.39425L263.07339,321.15422L263.55345,321.15422L263.79348,321.15422L263.79348,320.9142L
				264.03351,320.9142L264.03351,320.67417L264.27354,320.67417L264.51357,320.67417L264.51357,320.43415L264.7536,320.43415L264.99363,320.43415
				L264.99363,320.19412L265.23366,320.19412L265.47369,320.19412L265.47369,319.9541L265.95375,319.9541L265.95375,320.19412L266.19378,320.19412
				L266.43381,320.19412L266.67384,320.19412L266.67384,319.9541L266.91387,319.9541L267.39393,319.9541L267.39393,319.71407L267.39393,319.9541
				L267.63396,319.9541L268.11402,319.9541L268.11402,320.19412L268.35406,320.19412L268.59409,320.19412L268.59409,320.43415L268.83412,320.43415
				L269.31418,320.43415L269.31418,320.67417L269.55421,320.67417L269.79424,320.67417L269.79424,320.9142L270.03427,320.9142L270.03427,321.15422
				L270.2743,321.15422L270.51433,321.15422L270.51433,321.39425L270.75436,321.39425L270.99439,321.39425L270.99439,321.63427L
				271.23442,321.63427L271.47445,321.63427L271.47445,321.8743L271.71448,321.8743L271.95451,321.8743L271.95451,322.11433L272.19454,322.11433
				L272.43457,322.11433L272.43457,322.35435L272.6746,322.35435L272.6746,322.59438L272.91463,322.59438L273.15466,322.59438L273.15466,322.8344
				L273.3947,322.8344L273.3947,323.07443L273.3947,323.31445L273.63473,323.31445L273.63473,323.55448L273.63473,323.7945L273.87476,323.7945
				L273.87476,324.03453L273.87476,324.51458L274.11479,324.51458L274.11479,324.99463L274.11479,325.47468L274.35482,325.47468
				L274.35482,325.71471L274.59485,325.71471L274.59485,325.95473L274.83488,325.95473L274.83488,326.19476L275.07491,326.19476
				L275.31494,326.19476L275.31494,326.43479L275.55497,326.43479L276.03503,326.43479L276.03503,326.67481L276.03503,326.91484
				L276.27506,326.91484L276.51509,326.91484L276.51509,327.15486L276.99515,327.15486L276.99515,327.39489L277.23518,327.39489
				L277.47521,327.39489L277.47521,327.63491L277.71524,327.63491L277.95527,327.63491L277.95527,327.87494L278.43533,327.87494
				L278.67537,327.87494L278.67537,328.11496L279.15543,328.11496L279.39546,328.11496L279.39546,328.35499L279.87552,328.35499
				L280.11555,328.35499L280.11555,328.59502L280.35558,328.59502L280.35558,328.83504L280.59561,328.83504L281.07567,328.83504
				L281.07567,329.07507L281.3157,329.07507L281.55573,329.07507L281.55573,329.31509L281.79576,329.31509L282.03579,329.31509L
				282.03579,329.55512L282.27582,329.55512L282.51585,329.55512L282.51585,329.79514L282.99591,329.79514L283.23594,329.79514L
				283.23594,330.03517L283.47597,330.03517L283.47597,330.27519L283.716,330.27519L283.95604,330.27519L283.95604,330.51522L284.19607,330.51522
				L284.19607,330.75525L284.4361,330.75525L284.4361,330.99527L284.67613,330.99527L284.67613,331.2353L284.91616,331.2353L285.15619,331.2353
				L285.15619,331.47532L285.39622,331.47532L285.39622,331.71535L285.63625,331.71535L285.63625,331.95537L285.87628,331.95537
				L285.87628,332.1954L286.11631,332.1954L286.11631,332.43543L286.35634,332.43543L286.35634,332.67545L286.59637,332.67545L286.59637,332.91548
				L286.8364,332.91548L286.8364,333.1555L287.07643,333.1555L287.07643,333.39553L287.31646,333.39553L287.55649,333.39553L287.55649,333.63555
				L287.79652,333.63555L287.79652,333.87558L287.79652,334.1156L288.03655,334.1156L288.03655,334.35563L288.27658,334.35563L288.27658,334.83568
				L288.51661,334.83568L288.75664,334.83568L288.75664,335.07571L288.99668,335.07571L288.99668,335.31573L289.23671,335.31573
				L289.23671,335.55576L289.47674,335.55576L289.47674,335.79578L289.71677,335.79578L289.9568,335.79578L289.9568,336.03581L290.19683,336.03581
				L290.67689,336.03581L290.67689,336.27583L290.91692,336.27583L291.39698,336.27583L291.39698,336.51586L291.39698,336.75589
				L291.63701,336.75589L291.87704,336.75589L291.87704,336.99591L292.83716,336.99591L293.07719,336.99591L293.07719,337.23594
				L293.31722,337.23594L293.79728,337.23594L293.79728,337.47596L294.03731,337.47596L294.51738,337.47596L294.51738,337.71599
				L294.75741,337.71599L294.99744,337.71599L294.99744,337.95601L295.4775,337.95601L295.71753,337.95601L295.71753,338.19604L
				295.95756,338.19604L296.19759,338.19604L296.19759,338.43606L296.43762,338.43606L296.43762,338.67609L296.67765,338.67609L
				296.91768,338.67609L296.91768,338.91612L297.15771,338.91612L297.39774,338.91612L297.39774,339.15614L301.95832,339.15614L
				302.43838,339.15614L302.43838,339.39617L302.67841,339.39617L302.43838,339.39617L302.43838,339.63619L302.67841,339.63619L
				302.67841,339.39617L304.83869,339.39617L304.83869,339.63619L305.07872,339.63619L305.55878,339.63619L305.55878,339.87622L
				304.35862,339.87622L304.35862,339.63619L301.95832,339.63619L298.11783,339.63619L298.35786,339.63619L298.35786,339.87622L
				298.59789,339.87622L298.59789,340.11624L298.83792,340.11624L298.83792,340.35627L298.83792,340.59629L299.07795,340.59629L
				299.07795,340.83632L299.31798,340.83632L299.79805,340.83632L299.79805,341.07635L300.03808,341.07635L300.27811,341.07635L
				300.27811,341.31637L300.75817,341.31637L300.75817,341.5564L300.9982,341.5564L301.23823,341.5564L301.23823,341.79642L301.47826,341.79642
				L301.71829,341.79642L301.71829,342.03645L301.95832,342.03645L301.95832,342.27647L302.19835,342.27647L302.19835,342.5165L
				302.43838,342.5165L302.67841,342.5165L302.67841,342.75652L303.15847,342.75652L303.3985,342.75652L303.3985,342.5165L303.87856,342.5165
				L304.59865,342.5165L304.59865,342.27647L305.07872,342.27647L305.07872,342.03645L305.55878,342.03645L305.55878,341.79642L
				305.79881,341.79642L305.79881,340.11624L305.55878,340.11624L305.55878,339.87622L305.79881,339.87622L305.79881,340.11624L
				306.03884,340.11624L306.27887,340.11624L306.27887,340.35627L306.27887,340.59629L306.5189,340.59629L306.5189,340.83632L306.75893,340.83632
				L306.75893,341.07635L306.99896,341.07635L306.99896,341.31637L307.23899,341.31637L307.23899,341.5564L307.71905,341.5564L308.19911,341.5564
				L308.19911,341.79642L308.43914,341.79642L308.67917,341.79642L308.67917,342.03645L309.15923,342.03645L309.15923,342.27647
				L309.39926,342.27647L309.39926,342.5165L309.39926,342.75652L309.63929,342.75652L309.63929,342.99655L309.87933,342.99655L
				309.87933,343.23658L310.11936,343.23658L310.11936,343.4766L310.35939,343.4766L310.35939,343.71663L310.59942,343.71663L310.59942,343.95665
				L310.83945,343.95665L310.83945,344.4367L311.07948,344.4367L311.07948,344.67673L310.83945,344.67673L311.07948,344.67673L311.07948,345.15678
				L310.83945,345.15678L310.83945,345.39681L311.07948,345.39681L310.83945,345.39681L310.83945,345.63683L310.83945,345.87686
				L310.59942,345.87686L310.59942,346.11688L310.83945,346.11688L310.83945,346.35691L311.07948,346.35691L311.07948,346.59693
				L311.31951,346.59693L311.31951,346.83696L311.31951,347.07699L311.55954,347.07699L311.55954,347.31701L311.79957,347.31701
				L311.79957,347.55704L312.0396,347.55704L312.0396,347.79706"/>
			<path clip-path="url(#SVG_CP_2)" fill="none" stroke="#999999" stroke-width="0.96012" stroke-miterlimit="10" stroke-linecap="round" stroke-linejoin="round" d="
				M312.0396,347.79706L312.27963,347.79706L312.27963,348.27711L312.51966,348.27711L312.51966,348.51714L312.51966,348.75716L
				312.75969,348.75716L312.75969,348.99719L312.99972,348.99719L312.99972,349.23722L313.23975,349.23722L313.23975,349.47724L
				313.23975,349.71727L313.47978,349.71727L313.47978,349.95729L313.47978,350.19732L313.71981,350.19732L313.71981,350.43734L
				313.95984,350.43734L313.95984,350.67737L313.95984,351.15742L314.19987,351.15742L314.19987,351.39745L314.19987,352.11752L
				314.4399,352.11752L314.4399,352.8376L314.4399,353.55768L314.67993,353.55768L314.67993,354.7578L314.67993,354.99783L314.91996,354.99783
				L314.91996,355.23785L315.16,355.23785L315.16,355.47788L315.16,355.71791L315.40003,355.71791L315.40003,356.19796L315.40003,356.43798
				L315.64006,356.43798L315.64006,356.67801L315.88009,356.67801L315.88009,356.91803L316.12012,356.91803L316.12012,357.15806
				L316.12012,357.39809L316.36015,357.39809L316.36015,357.63811L316.60018,357.63811L316.60018,357.87814L316.60018,358.11816
				L316.84021,358.11816L316.84021,358.35819L316.84021,358.59821L317.08024,358.59821L317.08024,358.83824L317.08024,359.07826
				L317.32027,359.07826L317.32027,359.31829L317.5603,359.31829L317.5603,359.55832L317.80033,359.55832L317.80033,359.79834L318.04036,359.79834
				L318.04036,360.03837L318.28039,360.03837L318.28039,360.27839L318.52042,360.27839L318.52042,360.51842L318.76045,360.51842
				L318.76045,360.75844L318.76045,360.99847L319.00048,360.99847L319.24051,360.99847L319.24051,361.23849L319.48054,361.23849
				L319.48054,361.47852L319.48054,361.71855L319.9606,361.71855L319.9606,361.95857L320.20063,361.95857L320.20063,362.1986L320.20063,362.43862
				L320.44067,362.43862L320.44067,362.67865L320.6807,362.67865L320.6807,362.91867L320.6807,363.1587L320.92073,363.1587L320.92073,363.39872
				L321.16076,363.39872L321.16076,363.63875L321.16076,363.87878L321.40079,363.87878L321.40079,364.1188L321.40079,364.35883L
				321.64082,364.35883L321.64082,364.59885L321.88085,364.59885L321.88085,364.83888L321.88085,365.0789L322.12088,365.0789L322.12088,365.31893
				L322.12088,365.55895L322.36091,365.55895L322.36091,366.03901L322.36091,366.27903L322.60094,366.27903L322.60094,366.51906
				L322.60094,366.75908L322.84097,366.75908L322.84097,366.99911L322.84097,367.23913L323.081,367.23913L323.081,367.71918L323.081,367.95921
				L323.32103,367.95921L323.32103,368.19924L323.32103,368.43926L323.56106,368.43926L323.56106,368.67929L323.80109,368.67929
				L323.80109,368.91931L323.80109,369.15934L324.04112,369.15934L324.04112,369.63939L324.04112,369.87942L324.28115,369.87942
				L324.28115,370.11944L324.52118,370.11944L324.52118,370.35947L324.76121,370.35947L324.76121,370.59949L325.00124,370.59949
				L325.00124,370.83952L325.24127,370.83952L325.24127,371.07954L325.48131,371.07954L325.72134,371.07954L325.72134,371.31957
				L325.96137,371.31957L325.96137,371.55959L325.96137,371.79962L326.2014,371.79962L326.2014,372.03965L326.44143,372.03965L326.44143,372.27967
				L326.44143,372.5197L326.68146,372.5197L326.68146,372.75972L326.92149,372.75972L326.92149,372.99975L327.16152,372.99975L327.16152,373.23977
				L327.64158,373.23977L327.64158,373.4798L327.88161,373.4798L327.88161,373.71982L328.12164,373.71982L328.36167,373.71982L328.36167,373.95985
				L328.84173,373.95985L329.08176,373.95985L329.08176,374.19988L329.32179,374.19988L329.80185,374.19988L329.80185,374.4399L
				330.04188,374.4399L330.04188,374.67993L330.28191,374.67993L330.52194,374.67993L330.52194,374.91995L330.76198,374.91995L330.76198,375.15998
				L331.00201,375.15998L331.00201,375.4L331.00201,375.64003L331.48207,375.64003L331.48207,375.88005L331.7221,375.88005L331.7221,376.12008
				L331.96213,376.12008L331.96213,376.36011L332.20216,376.36011L332.20216,376.60013L332.44219,376.60013L332.44219,376.84016
				L332.68222,376.84016L332.68222,377.08018L332.92225,377.08018L332.92225,377.32021L333.16228,377.32021L333.16228,377.56023
				L333.40231,377.56023L333.40231,377.80026L333.64234,377.80026L333.88237,377.80026L333.88237,378.04028L334.1224,378.04028L
				334.1224,378.28031L334.36243,378.28031L334.36243,378.52034L334.36243,378.76036L334.60246,378.76036L334.60246,379.00039L334.84249,379.00039
				L334.84249,379.48044L335.08252,379.48044L335.08252,379.96049L335.32255,379.96049L335.32255,380.20051L335.32255,380.68057
				L335.56258,380.68057L335.56258,381.40064L335.56258,381.88069L335.80261,381.88069L335.80261,384.04092L335.80261,386.20115
				L336.04265,386.20115L336.04265,386.68121L336.04265,387.40128L336.28268,387.40128L336.28268,387.64131L336.28268,388.12136
				L336.52271,388.12136L336.52271,388.36138L336.52271,388.84144L336.76274,388.84144L336.76274,389.08146L336.76274,389.56151
				L337.00277,389.56151L337.00277,389.80154L337.00277,390.04156L337.2428,390.04156L337.2428,390.52161L337.00277,390.52161L337.00277,390.76164
				L337.00277,391.24169L336.76274,391.24169L336.76274,391.48172L336.52271,391.48172L336.52271,391.72174L336.28268,391.72174
				L336.28268,391.96177L336.04265,391.96177L336.04265,392.20179L336.04265,393.1619L335.80261,393.1619L335.80261,393.64195L335.80261,394.122
				L335.56258,394.122L335.56258,394.36202L335.56258,394.84208L335.32255,394.84208L335.32255,395.32213L335.32255,395.80218L335.08252,395.80218
				L335.08252,396.0422L334.84249,396.0422L334.84249,396.28223L334.84249,396.76228L334.60246,396.76228L334.60246,397.00231L334.60246,397.48236
				L334.36243,397.48236L334.36243,397.72238L334.36243,397.96241L334.1224,397.96241L334.1224,398.20243L334.1224,398.44246L333.88237,398.44246
				L333.88237,398.92251L333.88237,402.76292L333.64234,402.76292L333.64234,408.28351L333.64234,411.40384L333.40231,411.40384
				L333.40231,413.08402L333.40231,413.8041L333.16228,413.8041L333.16228,414.52417L332.92225,414.52417L332.92225,415.48427L332.92225,416.6844
				L332.92225,416.92443L333.16228,416.92443L333.16228,417.16445L333.40231,417.16445L333.40231,417.40448L333.64234,417.40448
				L333.64234,417.64451L333.64234,417.88453L333.88237,417.88453L333.88237,418.12456L333.88237,418.36458L334.1224,418.36458L
				334.1224,418.60461L334.1224,418.84463L334.36243,418.84463L334.36243,419.08466L334.36243,419.56471L334.60246,419.56471L334.60246,419.80474
				L334.60246,420.28479L334.84249,420.28479L334.84249,420.52481L334.84249,420.76484L335.08252,420.76484L335.08252,421.00486
				L335.32255,421.00486L335.32255,421.24489L335.32255,421.72494L335.56258,421.72494L335.56258,421.96497L335.56258,422.20499
				L335.80261,422.20499L335.80261,422.68504L335.80261,423.16509L336.04265,423.16509L336.04265,423.40512L336.04265,423.64514
				L336.28268,423.64514L336.28268,424.1252L336.28268,424.36522L336.52271,424.36522L336.52271,424.60525L336.52271,425.0853L336.76274,425.0853
				L336.76274,425.32532L336.76274,425.56535L337.00277,425.56535L337.00277,426.0454L337.00277,426.28543L337.2428,426.28543L337.2428,426.76548
				L337.48283,426.76548L337.48283,427.0055L337.48283,427.24553L337.72286,427.24553L337.72286,427.72558L337.72286,428.20563L
				337.96289,428.20563L337.96289,428.44566L337.96289,428.92571L338.20292,428.92571L338.20292,429.16573L338.20292,429.40576L
				338.44295,429.40576L338.44295,430.12584L338.44295,430.36586L338.68298,430.36586L338.68298,430.84591L338.68298,431.08594L
				338.92301,431.08594L338.92301,431.56599L338.92301,432.28607L339.16304,432.28607L339.16304,432.76612L339.40307,432.76612L
				339.40307,433.24617L339.40307,433.72622L339.6431,433.72622L339.6431,433.96624L339.6431,434.4463L339.88313,434.4463L339.88313,434.92635
				L339.88313,435.16637L340.12316,435.16637L340.12316,435.4064L340.12316,435.88645L340.36319,435.88645L340.36319,436.3665L340.36319,436.60653
				L340.60322,436.60653L340.60322,437.08658L340.60322,437.3266L340.84325,437.3266L340.84325,437.80665L340.84325,438.04668L341.08328,438.04668
				L341.08328,438.52673L341.32332,438.52673L341.32332,438.76676L341.32332,439.00678L341.56335,439.00678L341.56335,439.48683
				L341.56335,439.72686L341.80338,439.72686L341.80338,440.20691L341.80338,440.44693L342.04341,440.44693L342.04341,440.68696
				L342.04341,441.16701L342.28344,441.16701L342.28344,441.64706L342.28344,441.88709L342.52347,441.88709L342.52347,442.36714
				L342.52347,442.84719L342.7635,442.84719L342.7635,443.08722L342.7635,443.80729L343.00353,443.80729L343.00353,444.7674L343.24356,444.7674
				L343.24356,445.00742L343.00353,445.00742L343.00353,445.24745L343.24356,445.24745L343.24356,445.96752L343.24356,446.44757
				L343.48359,446.44757L343.48359,446.92763L343.48359,451.48811L343.48359,451.96816L343.24356,451.96816L343.24356,452.44821
				L343.24356,452.68824L343.00353,452.68824L343.00353,453.64834L343.24356,453.64834L343.24356,454.12839L343.24356,454.84847
				L343.24356,456.52865L343.00353,456.52865L343.00353,457.72878L342.7635,457.72878L342.7635,458.20883L342.7635,459.16893L342.52347,459.16893
				L342.52347,459.64898L342.28344,459.64898L342.28344,459.88901L342.28344,460.12903L342.04341,460.12903L342.04341,460.36906
				L342.28344,460.36906L342.28344,461.32916L342.28344,462.28926L342.52347,462.28926L342.52347,465.88965L342.52347,466.3697L
				342.7635,466.3697L342.7635,466.84975L342.7635,467.56983L342.7635,469.00998L342.7635,469.25L343.00353,469.25L343.00353,469.49003
				L343.24356,469.49003L343.24356,469.97008L343.24356,470.21011L343.48359,470.21011L343.48359,470.45013L343.48359,470.69016
				L343.72362,470.69016L343.72362,471.17021L343.72362,471.89029L343.72362,473.57046L343.48359,473.57046L343.48359,474.53057
				L343.48359,475.25064L343.48359,475.49067L343.72362,475.49067L343.72362,475.73069L343.96365,475.73069L343.96365,475.97072
				L344.20368,475.97072L344.20368,476.21075L344.44371,476.21075L344.44371,476.45077L344.68374,476.45077L344.68374,476.6908L
				344.92377,476.6908L344.92377,476.93082L345.1638,476.93082L345.1638,477.17085L345.40383,477.17085L345.40383,477.41087L345.64386,477.41087
				L345.64386,477.6509L345.88389,477.6509L345.88389,477.89092L345.88389,478.13095L346.12392,478.13095L346.12392,478.611L346.12392,478.85103
				L346.36396,478.85103L346.36396,479.09105L346.36396,479.33108L346.60399,479.33108L346.60399,479.5711L346.60399,480.05116L
				346.84402,480.05116L346.84402,480.53121L347.08405,480.53121L347.08405,480.77123L347.08405,481.25128L347.32408,481.25128L
				347.32408,481.49131L347.32408,481.73133L347.56411,481.73133L347.56411,482.21139L347.56411,482.69144L347.80414,482.69144L
				347.80414,483.89156L347.56411,483.89156L347.56411,486.53185L347.56411,490.85231L347.32408,490.85231L347.32408,491.09233L
				347.32408,492.53249L347.32408,492.77251L347.32408,493.97264L347.08405,493.97264L347.08405,494.45269L347.08405,494.69272L
				346.84402,494.69272L346.84402,495.17277L346.60399,495.17277L346.60399,496.13287L346.84402,496.13287L346.84402,496.37289L
				347.08405,496.37289L347.08405,496.61292L347.08405,496.85295L347.32408,496.85295L347.32408,497.09297L347.56411,497.09297L
				347.56411,497.333L347.80414,497.333L347.80414,497.57302L348.04417,497.57302L348.2842,497.57302L348.2842,497.81305L348.2842,498.05307
				L348.52423,498.05307L348.52423,498.2931L348.52423,498.53312L348.76426,498.53312L348.76426,499.01318L349.00429,499.01318L
				349.00429,499.2532L349.00429,499.49323L349.24432,499.49323L349.24432,499.97328L349.24432,501.17341L349.24432,501.65346L349.00429,501.65346
				L349.00429,502.61356L349.00429,503.57366L348.76426,503.57366L348.76426,504.05371L348.52423,504.05371L348.52423,505.01382
				L348.52423,505.49387L348.52423,506.69399L348.76426,506.69399L348.76426,507.17405L349.00429,507.17405L349.00429,508.13415
				L348.76426,508.13415L348.76426,508.6142L348.52423,508.6142L348.52423,509.09425L348.52423,509.33428L348.2842,509.33428L348.2842,509.81433
				L348.2842,510.05435L348.04417,510.05435L348.04417,510.29438L348.04417,510.5344L347.80414,510.5344L347.80414,510.77443L347.56411,510.77443
				L347.56411,511.01445L347.32408,511.01445L347.32408,511.25448L347.32408,511.49451L347.08405,511.49451L347.08405,512.21458
				L346.60399,512.21458L346.60399,511.97456L346.36396,511.97456L346.36396,511.25448L346.60399,511.25448L346.60399,510.29438
				L345.88389,510.29438L344.92377,510.29438L344.92377,510.05435L343.96365,510.05435L343.24356,510.05435L343.24356,509.81433
				L342.28344,509.81433L342.28344,509.33428L342.52347,509.33428L342.52347,508.6142L342.52347,507.89412L342.7635,507.89412L342.7635,506.93402
				L342.7635,506.21394L342.52347,506.21394L341.80338,506.21394L341.80338,505.97392L340.84325,505.97392L340.12316,505.97392L
				340.12316,505.73389L339.40307,505.73389L339.40307,505.49387L338.68298,505.49387L337.96289,505.49387L337.96289,505.25384L
				337.2428,505.25384L337.00277,505.25384L337.00277,505.49387L336.76274,505.49387L336.76274,506.21394L336.76274,506.93402L336.52271,506.93402
				L336.52271,507.41407L336.52271,508.13415L336.28268,508.13415L335.08252,508.13415L335.08252,508.37417L334.36243,508.37417
				L334.36243,510.77443L334.1224,510.77443L334.1224,511.49451L333.64234,511.49451L333.64234,511.25448L333.40231,511.25448L333.16228,511.25448
				L333.16228,511.01445L332.92225,511.01445L332.68222,511.01445L332.68222,510.77443L332.44219,510.77443L332.20216,510.77443
				L332.20216,510.5344L331.96213,510.5344L331.96213,510.77443L331.7221,510.77443L331.00201,510.77443L330.76198,510.77443L330.76198,510.5344
				L330.28191,510.5344L330.04188,510.5344L330.04188,510.29438L329.80185,510.29438L329.80185,510.05435L329.56182,510.05435L329.32179,510.05435
				L329.32179,509.81433L329.08176,509.81433L328.84173,509.81433L328.84173,509.5743L328.84173,509.33428L328.6017,509.33428L328.36167,509.33428
				L328.36167,509.09425L328.36167,508.6142L328.6017,508.6142L328.6017,508.37417L328.6017,508.13415L328.84173,508.13415L328.84173,507.41407
				L328.84173,507.17405L329.08176,507.17405L329.08176,506.69399L329.08176,505.25384L329.32179,505.25384L329.32179,503.33364
				L329.56182,503.33364L329.56182,502.61356L329.32179,502.61356L329.32179,502.37353L329.08176,502.37353L328.84173,502.37353
				L328.84173,502.13351L328.6017,502.13351L328.6017,501.89348L328.36167,501.89348L328.36167,501.65346L328.12164,501.65346L328.12164,501.41343
				L327.88161,501.41343L327.88161,501.17341L327.64158,501.17341L327.64158,502.37353L327.64158,503.81369L327.88161,503.81369
				L327.88161,504.53376L327.64158,504.53376L327.16152,504.53376L327.16152,504.77379L326.68146,504.77379L326.44143,504.77379
				L326.44143,505.01382L325.96137,505.01382L325.24127,505.01382L325.24127,504.05371L325.00124,504.05371L325.00124,502.37353
				L325.00124,500.69335L324.76121,500.69335L324.76121,500.45333L325.72134,500.45333L326.68146,500.45333L326.68146,499.97328
				L326.44143,499.97328L326.44143,499.73325L326.2014,499.73325L326.2014,499.49323L325.96137,499.49323L325.72134,499.49323L325.72134,499.2532
				L325.24127,499.2532L325.00124,499.2532L324.76121,499.2532L324.76121,499.49323L324.52118,499.49323L324.28115,499.49323L324.28115,499.73325
				L323.32103,499.73325L322.84097,499.73325L322.84097,499.97328L319.48054,499.97328L319.48054,499.73325L318.76045,499.73325
				L318.76045,499.97328L318.28039,499.97328L318.28039,499.73325L317.32027,499.73325L317.08024,499.73325L317.08024,499.49323
				L316.84021,499.49323L316.60018,499.49323L316.60018,499.2532L316.12012,499.2532L315.88009,499.2532L315.88009,499.01318L314.91996,499.01318
				L314.4399,499.01318L313.47978,499.01318L313.47978,499.2532L313.23975,499.2532L313.23975,464.20947"/>
			<path clip-path="url(#SVG_CP_2)" fill="none" stroke="#999999" stroke-width="0.96012" stroke-miterlimit="10" stroke-linecap="round" stroke-linejoin="round" d="
				M276.75512,513.65474L276.51509,513.65474L276.27506,513.65474L276.27506,513.41471L276.03503,513.41471L276.03503,513.17468
				L275.795,513.17468L275.795,512.93466L275.55497,512.93466L275.31494,512.93466L275.31494,512.69463L275.07491,512.69463L275.07491,512.45461
				L274.59485,512.45461L274.83488,512.45461L274.83488,512.21458L275.07491,512.21458L275.07491,512.45461L275.31494,512.45461
				L275.31494,512.69463L275.55497,512.69463L275.795,512.69463L275.795,512.93466L276.03503,512.93466L276.03503,513.17468L276.27506,513.17468
				L276.51509,513.17468L276.51509,513.41471L276.75512,513.41471L276.75512,513.65474"/>
			<path clip-path="url(#SVG_CP_2)" fill="none" stroke="#999999" stroke-width="0.96012" stroke-miterlimit="10" stroke-linecap="round" stroke-linejoin="round" d="
				M333.40231,520.8555L333.16228,520.8555L333.16228,520.37545L333.40231,520.37545L333.40231,519.8954L333.40231,519.17532L333.64234,519.17532
				L333.64234,518.69527L333.64234,518.21522L334.1224,518.21522L334.36243,518.21522L334.36243,517.9752L335.32255,517.9752L335.32255,518.21522
				L335.56258,518.21522L335.56258,518.45525L335.56258,518.69527L335.80261,518.69527L335.80261,518.9353L335.80261,519.17532L
				336.04265,519.17532L335.80261,519.17532L335.80261,518.9353L335.56258,518.9353L334.84249,518.9353L334.84249,518.69527L334.60246,518.69527
				L334.60246,518.9353L334.36243,518.9353L334.36243,519.17532L334.36243,519.41535L334.1224,519.41535L334.1224,519.65538L333.88237,519.65538
				L333.88237,519.8954L333.88237,520.13543L333.64234,520.13543L333.64234,520.37545L333.40231,520.37545L333.40231,520.61548L
				333.40231,520.8555"/>
			<path clip-path="url(#SVG_CP_2)" fill="none" stroke="#999999" stroke-width="0.96012" stroke-miterlimit="10" stroke-linecap="round" stroke-linejoin="round" d="
				M333.16228,521.09553L332.92225,521.09553L332.92225,520.8555L333.16228,520.8555L333.16228,521.09553"/>
		</g>
</g></svg>