<?xml version="1.0" encoding="utf-8" standalone="no"?>
<!-- Creator: ESRI ArcMap 10.0.0.2414 -->
<!DOCTYPE svg PUBLIC "-//W3C//DTD SVG 1.1//EN"  "http://www.w3.org/Graphics/SVG/1.1/DTD/svg11.dtd">
<svg width="595.50236pt" height="595.50236pt" viewBox="25 148.377955 545.50236 545.50236" enable-background="new 25 148.377955 545.50236 545.50236"
	version="1.1" xmlns="http://www.w3.org/2000/svg" xmlns:xlink="http://www.w3.org/1999/xlink" >
	<g id="Couches">
		<g id="cont_2">
			<path clip-path="url(#SVG_CP_2)" fill="none" stroke="#999999" stroke-width="0.96012" stroke-miterlimit="10" stroke-linecap="round" stroke-linejoin="round" d="
				M246.75131,562.37993L241.23061,562.37993L241.23061,561.89988L240.75055,561.89988L240.75055,562.37993L239.79043,562.37993
				L239.79043,561.89988L239.31037,561.89988L239.31037,562.37993L232.82955,562.37993L232.82955,561.89988L231.86943,561.89988
				L231.86943,561.41983L230.9093,561.41983L230.9093,560.93977L229.46912,560.93977L229.46912,560.45972L228.509,560.45972L228.509,559.97967
				L227.06882,559.97967L227.06882,559.49962L226.10869,559.49962L226.10869,559.01957L224.66851,559.01957L224.66851,558.29949
				L223.46836,558.29949L223.46836,557.81944L222.50824,557.81944L222.50824,557.33939L221.06805,557.33939L221.06805,556.85934
				L220.10793,556.85934L220.10793,556.37929L219.14781,556.37929L219.14781,555.89924L218.18769,555.89924L218.18769,555.41919
				L217.70763,555.41919L217.70763,554.93914L217.22757,554.93914L217.22757,553.97903L216.74751,553.97903L216.74751,553.49898
				L216.26745,553.49898L216.26745,552.05883L215.78738,552.05883L215.78738,551.57878L215.06729,551.57878L215.06729,550.61867
				L214.58723,550.61867L214.58723,549.41855L214.10717,549.41855L214.10717,548.45844L213.62711,548.45844L213.62711,547.97839
				L213.14705,547.97839L213.14705,547.49834L212.66699,547.49834L212.66699,546.53824L211.70687,546.53824L211.70687,546.05819
				L210.74674,546.05819L210.74674,545.57814L209.78662,545.57814L209.78662,545.09809L209.30656,545.09809L209.30656,544.61804
				L208.8265,544.61804L208.8265,544.13798L207.86638,544.13798L207.86638,543.65793L206.18617,543.65793L206.18617,543.17788L205.22604,543.17788
				L205.22604,542.69783L204.26592,542.69783L204.26592,542.21778L203.3058,542.21778L203.3058,541.73773L202.34568,541.73773L202.34568,541.25768
				L201.38556,541.25768L201.38556,540.5376L200.42544,540.5376L200.42544,540.05755L199.46531,540.05755L199.46531,539.5775L198.02513,539.5775
				L198.02513,539.09745L197.30504,539.09745L197.30504,538.6174L195.86486,538.6174L195.86486,538.13734L194.90473,538.13734L194.90473,537.65729
				L193.94461,537.65729L193.94461,537.17724L192.50443,537.17724L192.50443,536.69719L190.58419,536.69719L190.58419,536.21714
				L189.144,536.21714L189.144,535.73709L187.94385,535.73709L187.94385,535.25704L186.50367,535.25704L186.50367,534.77699L185.06349,534.77699
				L185.06349,534.29694L183.6233,534.29694L183.6233,533.81688L182.66318,533.81688L182.66318,533.33683L181.223,533.33683L181.223,532.85678
				L180.26288,532.85678L180.26288,532.37673L177.14248,532.37673L177.14248,531.65665L176.18236,531.65665L176.18236,531.1766L
				175.22224,531.1766L175.22224,530.69655L174.26211,530.69655L174.26211,530.2165L171.86181,530.2165L171.86181,529.73645L170.1816,529.73645
				L170.1816,529.2564L167.30123,529.2564L167.30123,529.73645L167.78129,529.73645L167.78129,530.2165L168.26135,530.2165L168.26135,531.1766
				L167.78129,531.1766L167.78129,531.65665L166.34111,531.65665L166.34111,532.37673L165.86105,532.37673L165.86105,531.65665L
				164.42087,531.65665L164.42087,531.1766L163.46074,531.1766L163.46074,530.69655L160.82041,530.69655L160.82041,530.2165L158.4201,530.2165
				L158.4201,529.73645L156.0198,529.73645L156.0198,529.2564L154.57962,529.2564L154.57962,528.77635L153.13943,528.77635L153.13943,528.2963
				L152.41934,528.2963L152.41934,527.81625L151.45922,527.81625L151.45922,526.85614L150.97916,526.85614L150.97916,525.89604L
				151.45922,525.89604L151.45922,525.41599L151.93928,525.41599L151.93928,524.45589L151.45922,524.45589L151.45922,522.29566L
				150.97916,522.29566L150.97916,520.8555L150.4991,520.8555L150.4991,518.9353L150.01904,518.9353L150.01904,516.05499L149.53898,516.05499
				L149.53898,515.09489L150.01904,515.09489L150.01904,512.45461L149.53898,512.45461L149.53898,511.49451L149.05892,511.49451
				L149.05892,510.05435L148.57886,510.05435L148.57886,500.2133L149.05892,500.2133L149.05892,497.333L148.57886,497.333L148.57886,495.65282
				L148.09879,495.65282L148.09879,493.73261L147.61873,493.73261L147.61873,492.29246L147.13867,492.29246L147.13867,490.85231
				L146.65861,490.85231L146.65861,463.72942L146.17855,463.72942L146.17855,462.28926L145.69849,462.28926L145.69849,459.16893
				L145.21843,459.16893L145.21843,458.20883L145.69849,458.20883L145.69849,457.24873L145.21843,457.24873L145.21843,451.24809
				L144.73837,451.24809L144.73837,446.44757L144.25831,446.44757L144.25831,439.96688L144.73837,439.96688L144.73837,438.04668
				L145.21843,438.04668L145.21843,436.60653L145.69849,436.60653L145.69849,434.68632L146.17855,434.68632L146.17855,433.00614
				L146.65861,433.00614L146.65861,431.56599L147.13867,431.56599L147.13867,430.12584L147.61873,430.12584L147.61873,428.68568
				L148.09879,428.68568L148.09879,428.20563L148.57886,428.20563L148.57886,427.24553L149.05892,427.24553L149.05892,426.28543
				L149.53898,426.28543L149.53898,425.32532L150.01904,425.32532L150.01904,424.1252L150.4991,424.1252L150.4991,423.16509L150.97916,423.16509
				L150.97916,422.20499L151.45922,422.20499L151.45922,421.24489L151.93928,421.24489L151.93928,420.76484L152.41934,420.76484
				L152.41934,419.80474L153.13943,419.80474L153.13943,419.32468L153.6195,419.32468L153.6195,418.84463L154.09956,418.84463L154.09956,429.16573
				L153.6195,429.16573L153.6195,430.12584L154.09956,430.12584L154.09956,431.56599L155.53974,431.56599L155.53974,432.04604L167.30123,432.04604
				L167.30123,432.52609L197.30504,432.52609L197.30504,432.04604L198.02513,432.04604L198.02513,431.56599L197.30504,431.56599
				L197.30504,430.60589L196.82498,430.60589L196.82498,429.16573L196.34492,429.16573L196.34492,427.72558L209.30656,427.72558
				L209.30656,427.24553L222.02818,427.24553L222.02818,426.76548L234.98982,426.76548L234.98982,465.64962L247.71144,465.64962
				L247.71144,466.12967L261.6332,466.12967L261.6332,497.333L261.15314,497.333L261.15314,497.81305L257.07262,497.81305L257.07262,497.333
				L256.59256,497.333L256.59256,496.85295L256.1125,496.85295L256.1125,496.13287L255.63244,496.13287L255.63244,495.65282L255.15238,495.65282
				L255.15238,495.17277L254.67232,495.17277L254.67232,494.69272L253.7122,494.69272L253.7122,494.21266L251.79195,494.21266L251.79195,493.73261
				L251.31189,493.73261L251.31189,494.21266L250.11174,494.21266L250.11174,494.69272L249.15162,494.69272L249.15162,495.17277
				L247.71144,495.17277L247.71144,495.65282L247.23137,495.65282L247.23137,496.13287L246.75131,496.13287L246.75131,496.85295
				L245.79119,496.85295L245.79119,497.333L245.31113,497.333L245.31113,497.81305L237.87019,497.81305L237.87019,498.2931L236.91007,498.2931
				L236.91007,498.77315L236.43,498.77315L236.43,499.2532L235.46988,499.2532L235.46988,499.73325L234.98982,499.73325L234.98982,500.2133
				L234.0297,500.2133L234.0297,500.69335L232.82955,500.69335L232.82955,501.17341L232.34949,501.17341L232.34949,501.65346L231.38936,501.65346
				L231.38936,502.13351L230.42924,502.13351L230.42924,502.61356L229.94918,502.61356L229.94918,503.09361L228.98906,503.09361
				L228.98906,503.57366L228.509,503.57366L228.509,504.05371L227.54888,504.05371L227.54888,504.53376L226.58876,504.53376L226.58876,505.01382
				L226.10869,505.01382L226.10869,505.73389L225.14857,505.73389L225.14857,506.21394L223.94842,506.21394L223.94842,506.69399
				L223.46836,506.69399L223.46836,507.17405L222.50824,507.17405L222.50824,507.6541L221.54812,507.6541L221.54812,508.13415L221.06805,508.13415
				L221.06805,508.6142L219.14781,508.6142L219.14781,509.09425L216.74751,509.09425L216.74751,509.5743L213.62711,509.5743L213.62711,510.05435
				L211.22681,510.05435L211.22681,510.5344L208.8265,510.5344L208.8265,511.01445L206.18617,511.01445L206.18617,511.49451L205.22604,511.49451
				L205.22604,511.97456L204.26592,511.97456L204.26592,512.45461L203.78586,512.45461L203.78586,512.93466L202.82574,512.93466
				L202.82574,513.41471L202.34568,513.41471L202.34568,513.89476L201.86562,513.89476L201.86562,514.61484L200.9055,514.61484L
				200.9055,515.09489L200.42544,515.09489L200.42544,515.57494L196.82498,515.57494L196.82498,516.05499L192.98449,516.05499L192.98449,516.53504
				L191.54431,516.53504L191.54431,517.01509L190.58419,517.01509L190.58419,517.49515L189.62406,517.49515L189.62406,517.9752L
				188.42391,517.9752L188.42391,518.9353L189.144,518.9353L189.144,521.33555L192.98449,521.33555L192.98449,521.81561L196.82498,521.81561
				L196.82498,522.29566L200.9055,522.29566L200.9055,522.77571L201.86562,522.77571L201.86562,522.29566L203.78586,522.29566L203.78586,521.81561
				L205.70611,521.81561L205.70611,521.33555L207.86638,521.33555L207.86638,520.8555L210.26668,520.8555L210.26668,520.37545L212.66699,520.37545
				L212.66699,519.8954L215.06729,519.8954L215.06729,519.41535L217.70763,519.41535L217.70763,518.9353L220.10793,518.9353L220.10793,518.45525
				L222.9883,518.45525L222.9883,517.9752L226.10869,517.9752L226.10869,517.49515L228.98906,517.49515L228.98906,517.01509L242.91083,517.01509
				L242.91083,517.49515L244.83107,517.49515L244.83107,517.9752L247.23137,517.9752L247.23137,518.45525L249.15162,518.45525L249.15162,518.9353
				L252.75208,518.9353L252.75208,518.45525L254.67232,518.45525L254.67232,517.9752L255.63244,517.9752L255.63244,517.49515L256.1125,517.49515
				L256.1125,517.01509L256.59256,517.01509L256.59256,516.53504L257.07262,516.53504L257.07262,516.05499L257.55268,516.05499L
				257.55268,515.57494L258.03275,515.57494L258.03275,515.09489L258.51281,515.09489L258.51281,513.89476L258.99287,513.89476L
				258.99287,513.41471L259.47293,513.41471L259.47293,512.93466L260.19302,512.93466L260.19302,512.45461L260.67308,512.45461L
				260.67308,511.97456L261.15314,511.97456L261.15314,511.01445L261.6332,511.01445L261.6332,510.05435L262.11326,510.05435L262.11326,509.5743
				L263.55345,509.5743L263.55345,509.09425L264.99363,509.09425L264.99363,508.6142L266.43381,508.6142L266.43381,508.13415L267.87399,508.13415
				L267.87399,507.6541L269.55421,507.6541L269.55421,506.69399L269.07415,506.69399L269.07415,504.05371L268.35406,504.05371L268.35406,501.65346
				L267.87399,501.65346L267.87399,500.69335L267.39393,500.69335L267.39393,500.2133L266.91387,500.2133L266.91387,499.73325L266.43381,499.73325
				L266.43381,499.2532L265.95375,499.2532L265.95375,498.2931L265.47369,498.2931L265.47369,497.81305L264.51357,497.81305L264.51357,497.333
				L262.11326,497.333L262.11326,466.12967L288.27658,466.12967L288.27658,466.60972L303.3985,466.60972L303.3985,467.08977L308.9192,467.08977
				L308.9192,467.56983L309.39926,467.56983L309.39926,470.21011L309.87933,470.21011L309.87933,472.13031L310.83945,472.13031L
				310.83945,472.61036L312.27963,472.61036L312.27963,473.09041L313.95984,473.09041L313.95984,473.57046L315.40003,473.57046L
				315.40003,474.05052L316.84021,474.05052L316.84021,474.53057L318.28039,474.53057L318.28039,475.01062L319.72057,475.01062L
				319.72057,475.49067L321.16076,475.49067L321.16076,475.97072L322.84097,475.97072L322.84097,476.45077L323.32103,476.45077L
				323.32103,476.93082L324.28115,476.93082L324.28115,477.41087L325.24127,477.41087L325.24127,477.89092L326.2014,477.89092L326.2014,478.37098
				L327.16152,478.37098L327.16152,479.09105L328.12164,479.09105L328.12164,479.5711L329.08176,479.5711L329.08176,480.05116L330.04188,480.05116
				L330.04188,480.53121L331.00201,480.53121L331.00201,481.01126L332.20216,481.01126L332.20216,481.49131L332.68222,481.49131
				L332.68222,481.97136L333.64234,481.97136L333.64234,482.45141L334.60246,482.45141L334.60246,482.93146L335.56258,482.93146
				L335.56258,483.41151L336.52271,483.41151L336.52271,483.89156L337.00277,483.89156L337.00277,484.37162L337.96289,484.37162
				L337.96289,484.85167L338.44295,484.85167L338.44295,485.33172L338.92301,485.33172L338.92301,485.81177L339.88313,485.81177
				L339.88313,486.29182L340.60322,486.29182L340.60322,486.77187L341.08328,486.77187L341.08328,487.25192L342.04341,487.25192
				L342.04341,487.972L342.52347,487.972L342.52347,488.45205L343.00353,488.45205L343.00353,488.9321L343.96365,488.9321L343.96365,489.41215
				L344.44371,489.41215L344.44371,489.8922L344.92377,489.8922L344.92377,490.37225L345.88389,490.37225L345.88389,490.85231L346.36396,490.85231
				L346.36396,491.33236L346.84402,491.33236L346.84402,491.81241L347.80414,491.81241L347.80414,492.29246L348.2842,492.29246L
				348.2842,492.77251L348.76426,492.77251L348.76426,493.25256L349.96441,493.25256L349.96441,493.73261L350.44447,493.73261L350.44447,494.21266
				L351.40459,494.21266L351.40459,494.69272L351.88466,494.69272L351.88466,495.17277L352.36472,495.17277L352.36472,495.65282
				L353.32484,495.65282L353.32484,496.13287L353.8049,496.13287L353.8049,496.85295L354.28496,496.85295L354.28496,497.333L355.24508,497.333
				L355.24508,497.81305L355.72514,497.81305L355.72514,498.2931L356.2052,498.2931L356.2052,498.77315L357.16533,498.77315L357.16533,499.2532
				L357.64539,499.2532L357.64539,499.73325L358.36548,499.73325L358.36548,500.2133L359.3256,500.2133L359.3256,500.69335L359.80566,500.69335
				L359.80566,501.17341L360.28572,501.17341L360.28572,501.65346L361.24584,501.65346L361.24584,502.13351L361.7259,502.13351L
				361.7259,504.05371L361.24584,504.05371L361.24584,505.73389L360.76578,505.73389L360.76578,507.6541L360.28572,507.6541L360.28572,509.5743
				L359.80566,509.5743L359.80566,511.01445L359.3256,511.01445L359.3256,512.93466L358.84554,512.93466L358.84554,515.09489L358.36548,515.09489
				L358.36548,516.53504L357.64539,516.53504L357.64539,518.45525L357.16533,518.45525L357.16533,520.37545L356.68526,520.37545
				L356.68526,521.81561L356.2052,521.81561L356.2052,523.97584L355.72514,523.97584L355.72514,524.93594L356.2052,524.93594L356.2052,525.41599
				L356.68526,525.41599L356.68526,525.89604L357.64539,525.89604L357.64539,526.37609L358.36548,526.37609L358.36548,526.85614
				L358.84554,526.85614L358.84554,527.33619L359.80566,527.33619L359.80566,527.81625L360.76578,527.81625L360.76578,528.2963L
				362.20597,528.2963L362.20597,528.77635L363.16609,528.77635L363.16609,529.2564L364.60627,529.2564L364.60627,529.73645L365.56639,529.73645
				L365.56639,530.2165L367.24661,530.2165L367.24661,530.69655L368.20673,530.69655L368.20673,531.1766L369.64691,531.1766L369.64691,531.65665
				L371.08709,531.65665L371.08709,532.37673L372.52728,532.37673L372.52728,532.85678L373.96746,532.85678L373.96746,533.33683
				L374.92758,533.33683L374.92758,533.81688L376.12773,533.81688L376.12773,534.29694L376.60779,534.29694L376.60779,534.77699
				L377.56791,534.77699L377.56791,535.25704L378.04798,535.25704L378.04798,535.73709L379.0081,535.73709L379.0081,536.21714L379.96822,536.21714
				L379.96822,536.69719L380.44828,536.69719L380.44828,537.17724L381.4084,537.17724L381.4084,537.65729L381.88846,537.65729L381.88846,538.13734
				L382.36852,538.13734L382.36852,538.6174L383.32865,538.6174L383.32865,539.09745L383.80871,539.09745L383.80871,539.5775L384.28877,539.5775
				L384.28877,540.05755L385.48892,540.05755L385.48892,540.5376L385.96898,540.5376L385.96898,541.25768L386.44904,541.25768L386.44904,541.73773
				L387.40916,541.73773L387.40916,542.21778L387.88922,542.21778L387.88922,542.69783L388.36929,542.69783L388.36929,543.17788
				L388.84935,543.17788L388.84935,543.65793L389.80947,543.65793L389.80947,544.13798L390.28953,544.13798L390.28953,544.61804
				L391.24965,544.61804L391.24965,545.09809L392.20977,545.09809L392.20977,545.57814L393.16989,545.57814L393.16989,546.05819
				L394.37005,546.05819L394.37005,546.53824L395.33017,546.53824L395.33017,547.01829L395.81023,547.01829L395.81023,547.49834
				L391.72971,547.49834L391.72971,547.01829L388.84935,547.01829L388.84935,547.49834L386.44904,547.49834L386.44904,547.01829
				L380.92834,547.01829L380.92834,546.53824L378.04798,546.53824L378.04798,547.01829L375.40764,547.01829L375.40764,547.49834
				L374.44752,547.49834L374.44752,547.97839L373.00734,547.97839L373.00734,548.45844L371.56715,548.45844L371.56715,548.9385L
				370.12697,548.9385L370.12697,549.41855L368.68679,549.41855L368.68679,550.13862L367.72667,550.13862L367.72667,550.61867L366.04645,550.61867
				L366.04645,551.09873L365.08633,551.09873L365.08633,551.57878L363.64615,551.57878L363.64615,552.05883L362.20597,552.05883
				L362.20597,552.53888L361.24584,552.53888L361.24584,553.01893L359.80566,553.01893L359.80566,553.49898L358.84554,553.49898
				L358.84554,553.97903L357.16533,553.97903L357.16533,554.45908L355.24508,554.45908L355.24508,554.93914L353.8049,554.93914L
				353.8049,555.41919L352.84478,555.41919L352.84478,555.89924L351.40459,555.89924L351.40459,556.37929L349.96441,556.37929L349.96441,556.85934
				L348.2842,556.85934L348.2842,557.33939L346.84402,557.33939L346.84402,557.81944L345.40383,557.81944L345.40383,558.29949L343.96365,558.29949
				L343.96365,559.01957L342.52347,559.01957L342.52347,559.49962L339.40307,559.49962L339.40307,559.01957L330.04188,559.01957
				L330.04188,558.29949L328.6017,558.29949L328.6017,557.81944L326.2014,557.81944L326.2014,557.33939L325.72134,557.33939L325.72134,557.81944
				L324.76121,557.81944L324.76121,557.33939L322.84097,557.33939L322.84097,556.85934L320.6807,556.85934L320.6807,556.37929L319.72057,556.37929
				L319.72057,555.89924L318.76045,555.89924L318.76045,555.41919L317.32027,555.41919L317.32027,554.93914L316.36015,554.93914
				L316.36015,554.45908L314.91996,554.45908L314.91996,553.97903L310.83945,553.97903L310.83945,554.45908L305.07872,554.45908
				L305.07872,553.97903L298.59789,553.97903L298.59789,553.49898L296.67765,553.49898L296.67765,553.01893L291.63701,553.01893
				L291.63701,552.53888L290.67689,552.53888L290.67689,552.05883L290.19683,552.05883L290.19683,551.57878L289.71677,551.57878
				L289.71677,551.09873L289.23671,551.09873L289.23671,550.61867L288.27658,550.61867L288.27658,550.13862L287.31646,550.13862
				L287.31646,549.41855L286.11631,549.41855L286.11631,548.9385L285.63625,548.9385L285.63625,548.45844L284.67613,548.45844L284.67613,547.97839
				L283.716,547.97839L283.716,547.49834L281.3157,547.49834L281.3157,547.01829L279.87552,547.01829L279.87552,546.53824L277.95527,546.53824
				L277.95527,546.05819L276.27506,546.05819L276.27506,546.53824L275.31494,546.53824L275.31494,547.01829L274.35482,547.01829
				L274.35482,547.49834L273.87476,547.49834L273.87476,547.97839L273.3947,547.97839L273.3947,548.45844L272.91463,548.45844L272.91463,549.41855
				L272.43457,549.41855L272.43457,550.61867L271.95451,550.61867L271.95451,551.09873L271.47445,551.09873L271.47445,552.05883
				L270.99439,552.05883L270.99439,553.01893L270.03427,553.01893L270.03427,553.49898L269.55421,553.49898L269.55421,553.97903
				L267.87399,553.97903L267.87399,554.45908L266.91387,554.45908L266.91387,554.93914L265.95375,554.93914L265.95375,555.41919
				L264.51357,555.41919L264.51357,555.89924L263.55345,555.89924L263.55345,556.37929L262.11326,556.37929L262.11326,556.85934
				L261.15314,556.85934L261.15314,557.33939L260.19302,557.33939L260.19302,557.81944L258.51281,557.81944L258.51281,558.29949
				L257.55268,558.29949L257.55268,559.01957L256.1125,559.01957L256.1125,559.49962L255.15238,559.49962L255.15238,559.97967L253.23214,559.97967
				L253.23214,560.45972L252.27201,560.45972L252.27201,560.93977L250.11174,560.93977L250.11174,561.41983L248.1915,561.41983L
				248.1915,561.89988L246.75131,561.89988L246.75131,562.37993"/>
		</g>
</g></svg>