<?xml version="1.0" encoding="utf-8" standalone="no"?>
<!-- Creator: ESRI ArcMap 10.0.0.2414 -->
<!DOCTYPE svg PUBLIC "-//W3C//DTD SVG 1.1//EN"  "http://www.w3.org/Graphics/SVG/1.1/DTD/svg11.dtd">
<svg width="595.50236pt" height="595.50236pt" viewBox="25 148.377955 545.50236 545.50236" enable-background="new 25 148.377955 545.50236 545.50236"
	version="1.1" xmlns="http://www.w3.org/2000/svg" xmlns:xlink="http://www.w3.org/1999/xlink" >
	<g id="Couches">
		<g id="reservoirs">
			<path clip-path="url(#SVG_CP_2)" fill-opacity="0.2" fill="#07866D" fill-rule="evenodd" stroke="none" stroke-width="" stra="1.44018" stroke-miterlimit="10" stroke-linecap="round" stroke-linejoin="round" d="
				M-6.24079,560.45972L-4.08052,562.1399L-6.00076,565.02021L-0.48006,569.10064L-6.24079,577.02149L-6.24079,560.45972zM-6.24079,578.94169
				L-3.60046,580.14182L-2.16027,580.14182L3.60046,573.18108L7.20091,577.26151L3.1204,581.58197L1.44018,583.50218L3.36043,585.66241
				L6.96088,582.30205L9.84125,586.14246L13.68174,590.94297L15.12192,589.74284L18.24232,585.90243L22.32283,580.62187L25.44323,576.54144
				L27.84353,573.18108L31.68402,571.98095L35.76454,567.90052L35.52451,563.58006L39.12497,561.41983L44.16561,564.06011L47.52603,560.2197
				L44.8857,558.77954L50.4064,555.65921L55.20701,553.01893L57.12725,551.8188L59.28752,550.61867L60.96774,549.65857L62.64795,549.8986
				L64.32816,550.61867L66.48844,551.57878L68.64871,551.33875L70.08889,550.61867L71.76911,549.8986L74.64947,548.21842L77.28981,546.77827
				L80.89027,544.85806L83.5306,543.89796L85.93091,542.93786L88.09118,541.97775L89.77139,540.77763L90.49148,539.81752L92.1717,535.73709
				L92.89179,533.57686L93.85191,531.89668L94.81203,530.2165L95.53212,528.77635L95.77215,528.53632L95.77215,528.2963L96.01218,528.05627
				L96.73228,527.09617L97.6924,526.37609L98.17246,525.65601L102.97307,521.57558L104.17322,520.13543L104.89331,517.9752L105.6134,515.81497
				L106.81356,512.45461L107.53365,511.01445L107.53365,510.77443L108.01371,510.5344L108.01371,510.29438L108.49377,509.81433L
				109.21386,508.85422L109.45389,508.6142L112.09423,505.97392L115.21462,503.09361L116.41477,501.89348L118.33502,500.45333L121.45541,498.05307
				L126.01599,494.93274L131.05663,490.37225L134.65709,487.49195L138.49758,484.61164L141.13791,482.45141L142.81812,481.73133
				L144.73837,480.77123L147.13867,479.81113L151.21919,478.13095L154.57962,475.97072L156.25983,474.77059L157.45998,474.29054
				L159.86029,473.81049L163.22071,473.57046L166.58114,473.81049L169.94157,473.81049L174.98221,474.77059L180.02285,475.49067
				L183.14324,475.97072L186.50367,476.93082L191.06425,478.13095L193.46455,478.37098L196.10489,478.37098L200.1854,477.17085L
				211.46684,473.57046L213.14705,473.09041L214.82726,472.61036L217.4676,472.61036L218.66775,472.61036L222.9883,472.61036L225.3886,472.37034
				L228.74903,471.65026L230.42924,471.41023L234.26973,470.45013L243.15086,467.56983L249.63168,466.12967L255.87247,464.68952
				L257.79272,464.20947L259.2329,463.96944L260.43305,463.72942L263.31342,463.96944L265.47369,464.92954L268.83412,465.64962L
				270.2743,466.12967L270.99439,467.80985L272.6746,472.85039L273.3947,475.25064L274.83488,479.09105L275.55497,481.49131L278.67537,488.45205
				L279.87552,491.57238L280.35558,493.73261L280.83564,495.89284L281.07567,497.57302L281.3157,499.01318L281.79576,501.41343L
				281.79576,503.33364L281.55573,507.41407L281.55573,510.77443L280.35558,521.33555L280.11555,525.89604L279.87552,528.2963L279.87552,530.69655
				L280.11555,533.81688L280.59561,536.21714L280.59561,541.4977L280.83564,545.33811L280.59561,547.25832L279.87552,549.8986L278.9154,554.21906
				L274.35482,569.5807L271.95451,567.18044L266.43381,572.22098L264.51357,573.90116L264.27354,573.90116L263.31342,574.86126L
				261.15314,578.22162L258.99287,581.34195L257.79272,583.02213L253.95223,580.62187L249.39165,578.22162L246.51128,576.54144L
				244.11098,575.10128L241.23061,574.14118L237.87019,573.4211L230.66927,572.22098L226.34872,571.74093L224.18845,571.26087L222.74827,571.02085
				L221.54812,570.78082L220.82802,570.30077L210.74674,566.22034L206.90626,565.02021L201.86562,563.82008L198.50519,563.34003
				L195.3848,562.61995L193.46455,562.1399L185.06349,559.01957L178.1026,555.65921L177.62254,556.37929L177.62254,556.61931L176.90245,558.05947
				L176.18236,559.01957L174.98221,561.65985L172.5819,563.58006L169.22148,565.98031L159.38023,573.66113L156.73989,576.78146L
				152.41934,584.22226L132.49681,607.98479L126.73608,621.42622L121.93547,633.18747L120.73532,633.18747L114.01447,631.50729L
				112.57429,634.14758L112.09423,635.3477L111.1341,637.98799L110.41401,639.90819L116.17474,642.30845L114.97459,645.18875L98.89255,641.58837
				L95.53212,651.18939L91.45161,649.98926L92.1717,647.10896L88.57124,645.6688L90.25145,641.34834L90.49148,641.34834L90.97155,640.62827
				L91.45161,639.90819L90.97155,639.18811L95.29209,639.66816L97.6924,633.4275L99.13258,628.62699L98.89255,628.62699L96.25222,628.14694
				L94.572,627.90691L93.37185,628.62699L91.45161,627.90691L88.57124,627.66689L85.69087,627.18683L82.33045,627.18683L81.85039,627.66689
				L82.09042,628.86701L82.33045,630.54719L82.57048,632.94745L81.85039,634.62763L81.37033,635.82775L80.65024,637.50793L80.4102,638.46804
				L79.69011,639.18811L79.45008,639.42814L77.76987,643.50857L76.56972,646.62891L74.64947,645.90883L72.96926,650.70934L67.68859,649.26919
				L67.92862,648.54911L69.12877,645.42878L70.32893,642.06842L70.80899,640.86829L64.80822,639.18811L64.08813,638.94809L65.28829,636.30781
				L58.08737,633.18747L55.68707,632.4674L53.76682,637.98799L51.60655,637.26791L46.80594,635.3477L46.56591,635.58773L43.68554,634.3876
				L44.40564,632.4674L45.60579,632.94745L47.286,629.34706L38.16484,626.94681L30.96393,625.74668L25.92329,624.78658L25.92329,625.50666
				L25.68326,626.22673L25.44323,626.22673L25.2032,626.22673L23.76302,625.26663L22.32283,623.58645L19.20244,620.22609L18.96241,620.22609
				L16.5621,617.10576L12.00152,612.06522L11.76149,611.34515L11.52146,606.54463L12.00152,597.66369L-1.20015,594.54336L-6.24079,592.38313
				L-6.24079,578.94169z"/>
			<path clip-path="url(#SVG_CP_2)" fill-opacity="0.2" fill="#07866D" fill-rule="evenodd" stroke="none" stroke-width="" stra="1.44018" stroke-miterlimit="10" stroke-linecap="round" stroke-linejoin="round" d="
				M307.23899,293.55128L309.63929,317.07379L313.71981,334.1156L314.19987,335.31573L316.36015,334.35563L317.80033,337.95601L
				320.20063,345.87686L323.80109,353.55768L326.44143,359.07826L330.28191,362.1986L334.84249,365.31893L332.20216,369.87942L329.32179,374.19988
				L327.16152,376.84016L326.2014,378.28031L325.72134,378.76036L323.80109,377.80026L321.88085,376.84016L315.16,371.07954L310.59942,366.99911
				L306.03884,363.1587L302.91844,361.71855L294.75741,353.55768L286.11631,344.91676L270.03427,329.55512L261.6332,320.19412L275.07491,305.31253
				L277.47521,303.1523L281.07567,303.63236L284.19607,305.07251L285.15619,306.27264L285.87628,305.79259L288.99668,307.23274L
				291.39698,307.23274L304.83869,293.55128L307.23899,293.55128z"/>
		</g>
</g></svg>