<?xml version="1.0" encoding="utf-8" standalone="no"?>
<!-- Creator: ESRI ArcMap 10.0.0.2414 -->
<!DOCTYPE svg PUBLIC "-//W3C//DTD SVG 1.1//EN"  "http://www.w3.org/Graphics/SVG/1.1/DTD/svg11.dtd">
<svg width="595.50236pt" height="595.50236pt" viewBox="25 148.377955 545.50236 545.50236" enable-background="new 25 148.377955 545.50236 545.50236"
	version="1.1" xmlns="http://www.w3.org/2000/svg" xmlns:xlink="http://www.w3.org/1999/xlink" >
	<g id="Couches">
		<g id="cont_1">
			<clipPath id="SVG_CP_2">
				<path d="M574.39289,21.36228L21.36271,21.36228L21.36271,821.36753L574.39289,821.36753L574.39289,21.36228z"/>
			</clipPath>
			<path clip-path="url(#SVG_CP_2)" fill="none" stroke="#999999" stroke-width="0.96012" stroke-miterlimit="10" stroke-linecap="round" stroke-linejoin="round" d="
				M298.83792,416.44438L300.51814,416.44438L300.51814,417.40448L299.55802,417.40448L299.55802,418.12456L297.8778,418.12456L
				297.8778,417.40448L298.83792,417.40448L298.83792,416.44438"/>
			<path clip-path="url(#SVG_CP_2)" fill="none" stroke="#999999" stroke-width="0.96012" stroke-miterlimit="10" stroke-linecap="round" stroke-linejoin="round" d="
				M365.80642,412.12392L309.15923,412.12392L309.15923,412.84399L307.47902,412.84399L307.47902,413.8041L300.51814,413.8041L300.51814,414.7642
				L299.55802,414.7642L299.55802,415.48427L298.83792,415.48427L298.83792,416.44438L292.59713,416.44438L292.59713,417.40448L
				291.87704,417.40448L291.87704,418.12456L289.9568,418.12456L289.9568,419.08466L289.23671,419.08466L289.23671,419.80474L288.27658,419.80474
				L288.27658,420.76484L287.55649,420.76484L287.55649,421.72494L225.62863,421.72494L225.62863,420.76484L221.30809,420.76484
				L221.30809,419.80474L217.94766,419.80474L217.94766,419.08466L213.38708,419.08466L213.38708,418.12456L208.34644,418.12456
				L208.34644,419.08466L206.4262,419.08466L206.4262,419.80474L204.74598,419.80474L204.74598,420.76484L203.06577,420.76484L203.06577,421.72494
				L201.38556,421.72494L201.38556,426.76548L200.42544,426.76548L200.42544,433.00614L199.46531,433.00614L199.46531,439.00678
				L198.74522,439.00678L198.74522,13.68146L601.9964,13.68146M601.9964,57.12609L601.51633,57.12609L601.51633,58.80627L600.55621,58.80627
				L600.55621,60.72647L599.83612,60.72647L599.83612,61.44655L598.876,61.44655L598.876,63.12673L597.91588,63.12673L597.91588,65.04693
				L597.19579,65.04693L597.19579,66.72711L596.23566,66.72711L596.23566,68.40729L595.51557,68.40729L595.51557,69.36739L594.55545,69.36739
				L594.55545,71.04757L593.59533,71.04757L593.59533,72.72775L592.87524,72.72775L592.87524,74.64796L591.91512,74.64796L591.91512,76.32813
				L590.2349,76.32813L590.2349,75.36803L587.59457,75.36803L587.59457,74.64796L585.91435,74.64796L585.91435,73.68785L584.23414,73.68785
				L584.23414,72.72775L581.59381,72.72775L581.59381,72.00767L579.67356,72.00767L579.67356,71.04757L577.27326,71.04757L577.27326,70.08747
				L575.35301,70.08747L575.35301,69.36739L572.71268,69.36739L572.71268,68.40729L571.03247,68.40729L571.03247,67.68721L568.39213,67.68721
				L568.39213,66.72711L566.71192,66.72711L566.71192,65.76701L565.0317,65.76701L565.0317,65.04693L562.39137,65.04693L562.39137,64.08683
				L560.71116,64.08683L560.71116,63.12673L558.07082,63.12673L558.07082,62.40665L556.39061,62.40665L556.39061,61.44655L553.75027,61.44655
				L553.75027,60.72647L551.83003,60.72647L551.83003,59.76637L549.42972,59.76637L549.42972,58.80627L547.50948,58.80627L547.50948,58.08619
				L545.82927,58.08619L545.82927,57.12609L543.18893,57.12609L543.18893,56.16599L541.50872,56.16599L541.50872,55.44591L538.86838,55.44591
				L538.86838,54.48581L537.90826,54.48581L537.90826,55.44591L536.22805,55.44591L536.22805,56.16599L534.54784,56.16599L534.54784,57.12609
				L532.86762,57.12609L532.86762,58.08619L530.94738,58.08619L530.94738,58.80627L528.54707,58.80627L528.54707,59.76637L526.62683,59.76637
				L526.62683,60.72647L524.94662,60.72647L524.94662,61.44655L523.2664,61.44655L523.2664,62.40665L521.58619,62.40665L521.58619,63.12673
				L519.66595,63.12673L519.66595,64.08683L517.98573,64.08683L517.98573,65.04693L516.30552,65.04693L516.30552,65.76701L514.62531,65.76701
				L514.62531,66.72711L512.70506,66.72711L512.70506,67.68721L511.02485,67.68721L511.02485,68.40729L509.34464,68.40729L509.34464,69.36739
				L507.66442,69.36739L507.66442,70.08747L505.74418,70.08747L505.74418,71.04757L504.06397,71.04757L504.06397,72.00767L503.10385,72.00767
				L503.10385,72.72775L501.42363,72.72775L501.42363,73.68785L500.70354,73.68785L500.70354,74.64796L498.7833,74.64796L498.7833,75.36803
				L498.06321,75.36803L498.06321,76.32813L496.14296,76.32813L496.14296,77.04821L495.42287,77.04821L495.42287,78.00831L493.74266,78.00831
				L493.74266,78.96842L492.78254,78.96842L492.78254,79.68849L491.82241,79.68849L491.82241,80.64859L490.1422,80.64859L490.1422,81.6087
				L489.18208,81.6087L489.18208,82.32877L487.50187,82.32877L487.50187,83.28888L486.78177,83.28888L486.78177,84.00895L484.86153,84.00895
				L484.86153,84.96905L484.14144,84.96905L484.14144,85.92916L482.2212,85.92916L482.2212,86.64923L481.5011,86.64923L481.5011,87.60934
				L479.82089,87.60934L479.82089,88.56944L478.86077,88.56944L478.86077,89.28952L477.18056,89.28952L477.18056,90.24962L476.22043,90.24962
				L476.22043,90.96969L474.54022,90.96969L474.54022,91.9298L473.5801,91.9298L473.5801,92.8899L472.86001,92.8899L472.86001,93.60998
				L470.93976,93.60998L470.93976,94.57008L470.21967,94.57008L470.21967,95.53018L468.29943,95.53018L468.29943,96.25026L467.57934,96.25026
				L467.57934,97.21036L465.89912,97.21036L465.89912,97.93044L464.939,97.93044L464.939,98.89054L463.97888,98.89054L463.97888,99.85064
				L462.29867,99.85064L462.29867,100.57072L461.33855,100.57072L461.33855,101.53082L460.61845,101.53082L460.61845,102.49092L
				458.93824,102.49092L458.93824,103.211L457.97812,103.211L457.97812,104.1711L456.29791,104.1711L456.29791,104.89118L455.33778,104.89118
				L455.33778,105.85128L454.37766,105.85128L454.37766,106.81138L452.69745,106.81138L452.69745,107.53146L451.97736,107.53146
				L451.97736,108.49156L450.05711,108.49156L450.05711,109.45166L449.33702,109.45166L449.33702,110.17174L448.3769,110.17174L
				448.3769,111.13184L446.69669,111.13184L446.69669,111.85192L445.73657,111.85192L445.73657,112.81202L445.01647,112.81202L445.01647,114.4922
				L444.05635,114.4922L444.05635,115.4523L443.09623,115.4523L443.09623,116.41241L442.37614,116.41241L442.37614,117.13248L441.41602,117.13248
				L441.41602,118.09258L440.4559,118.09258L440.4559,118.81266L439.7358,118.81266L439.7358,120.73287L438.77568,120.73287L438.77568,121.45294
				L438.05559,121.45294L438.05559,122.41304L437.09547,122.41304L437.09547,123.37315L436.13535,123.37315L436.13535,124.09322
				L435.41526,124.09322L435.41526,125.05333L434.45513,125.05333L434.45513,125.7734L433.49501,125.7734L433.49501,127.69361L432.77492,127.69361
				L432.77492,128.41368L431.8148,128.41368L431.8148,129.37379L431.09471,129.37379L431.09471,130.33389L430.13459,130.33389L430.13459,131.05397
				L429.17446,131.05397L429.17446,132.01407L428.45437,132.01407L428.45437,133.69425L427.49425,133.69425L427.49425,134.65435
				L426.53413,134.65435L426.53413,135.37443L425.81404,135.37443L425.81404,136.33453L424.85392,136.33453L424.85392,137.29463
				L424.13382,137.29463L424.13382,138.01471L423.1737,138.01471L423.1737,138.97481L422.21358,138.97481L422.21358,140.65499L421.49349,140.65499
				L421.49349,141.61509L420.53337,141.61509L420.53337,142.33517L419.57325,142.33517L419.57325,143.29527L418.85315,143.29527
				L418.85315,144.25537L417.89303,144.25537L417.89303,144.97545L417.17294,144.97545L417.17294,146.65563L416.21282,146.65563
				L416.21282,147.61573L415.2527,147.61573L415.2527,148.57583L414.53261,148.57583L414.53261,149.29591L413.57248,149.29591L413.57248,150.25601
				L412.61236,150.25601L412.61236,151.21611L411.89227,151.21611L411.89227,152.89629L410.93215,152.89629L410.93215,153.61637
				L410.21206,153.61637L410.21206,154.57647L409.25194,154.57647L409.25194,155.53657L408.29181,155.53657L408.29181,156.25665
				L407.57172,156.25665L407.57172,157.21675L406.6116,157.21675L406.6116,157.93683L405.65148,157.93683L405.65148,159.85704L404.93139,159.85704
				L404.93139,160.57711L403.97127,160.57711L403.97127,161.53721L403.25117,161.53721L403.25117,162.49732L402.29105,162.49732
				L402.29105,163.21739L401.33093,163.21739L401.33093,164.1775L400.61084,164.1775L400.61084,165.85767L399.65072,165.85767L399.65072,166.81778
				L398.6906,166.81778L398.6906,167.53785L397.9705,167.53785L397.9705,168.49796L397.01038,168.49796L397.01038,169.45806L396.29029,169.45806
				L396.29029,170.17813L395.33017,170.17813L395.33017,171.85831L394.37005,171.85831L394.37005,172.81842L393.64996,172.81842
				L393.64996,173.77852L392.68983,173.77852L392.68983,174.4986L391.72971,174.4986L391.72971,175.4587L391.00962,175.4587L391.00962,176.4188
				L390.0495,176.4188L390.0495,177.13888L389.32941,177.13888L389.32941,178.81906L388.36929,178.81906L388.36929,179.77916L387.40916,179.77916
				L387.40916,180.73926L386.68907,180.73926L386.68907,181.45934L385.72895,181.45934L385.72895,182.41944L384.76883,182.41944
				L384.76883,183.37954L384.04874,183.37954L384.04874,185.05972L383.08862,185.05972L383.08862,185.7798L382.36852,185.7798L382.36852,186.7399
				L381.4084,186.7399L381.4084,187.7L380.44828,187.7L380.44828,188.42008L379.72819,188.42008L379.72819,189.38018L378.76807,189.38018
				L378.76807,190.34028L377.80795,190.34028L377.80795,192.02046L376.12773,192.02046L376.12773,192.74054L375.40764,192.74054
				L375.40764,193.70064L373.4874,193.70064L373.4874,194.66074L371.80718,194.66074L371.80718,195.38082L370.84706,195.38082L370.84706,196.34092
				L369.16685,196.34092L369.16685,197.30103L368.44676,197.30103L368.44676,198.0211L366.52651,198.0211L366.52651,198.9812L365.80642,198.9812
				L365.80642,199.70128L363.88618,199.70128L363.88618,200.66138L362.20597,200.66138L362.20597,201.62149L361.48587,201.62149
				L361.48587,204.26177L362.20597,204.26177L362.20597,210.26241L363.16609,210.26241L363.16609,215.54297L363.88618,215.54297
				L363.88618,221.54361L364.8463,221.54361L364.8463,226.82417L365.80642,226.82417L365.80642,232.82481L366.52651,232.82481L366.52651,238.10537
				L367.48664,238.10537L367.48664,244.10601L368.44676,244.10601L368.44676,249.38658L369.16685,249.38658L369.16685,255.38721
				L370.12697,255.38721L370.12697,260.66778L370.84706,260.66778L370.84706,266.90844L371.80718,266.90844L371.80718,271.94898
				L372.76731,271.94898L372.76731,278.18964L373.4874,278.18964L373.4874,283.23018L374.44752,283.23018L374.44752,289.47085L375.40764,289.47085
				L375.40764,294.75141L376.12773,294.75141L376.12773,300.75205L377.08785,300.75205L377.08785,306.03261L377.80795,306.03261
				L377.80795,312.03325L378.76807,312.03325L378.76807,317.31381L379.72819,317.31381L379.72819,323.31445L380.44828,323.31445
				L380.44828,328.59502L381.4084,328.59502L381.4084,334.59566L382.36852,334.59566L382.36852,339.87622L383.08862,339.87622L383.08862,345.87686
				L384.04874,345.87686L384.04874,351.15742L384.76883,351.15742L384.76883,357.39809L385.72895,357.39809L385.72895,362.43862
				L386.68907,362.43862L386.68907,363.39872L385.72895,363.39872L385.72895,371.31957L384.76883,371.31957L384.76883,379.96049
				L384.04874,379.96049L384.04874,387.64131L383.08862,387.64131L383.08862,395.56215L382.36852,395.56215L382.36852,404.20307
				L381.4084,404.20307L381.4084,411.16381L365.80642,411.16381L365.80642,412.12392"/>
			<path clip-path="url(#SVG_CP_2)" fill="none" stroke="#999999" stroke-width="0.96012" stroke-miterlimit="10" stroke-linecap="round" stroke-linejoin="round" d="
				M307.47902,413.8041L309.15923,413.8041L309.15923,412.84399L365.80642,412.84399L365.80642,412.12392L382.36852,412.12392L382.36852,412.84399
				L383.08862,412.84399L383.08862,413.8041L384.04874,413.8041L384.04874,415.48427L384.76883,415.48427L384.76883,416.44438L385.72895,416.44438
				L385.72895,417.40448L386.68907,417.40448L386.68907,418.12456L387.40916,418.12456L387.40916,419.08466L388.36929,419.08466
				L388.36929,419.80474L389.32941,419.80474L389.32941,420.76484L390.0495,420.76484L390.0495,421.72494L391.00962,421.72494L391.00962,422.44502
				L391.72971,422.44502L391.72971,424.36522L392.68983,424.36522L392.68983,425.0853L393.64996,425.0853L393.64996,426.0454L394.37005,426.0454
				L394.37005,426.76548L395.33017,426.76548L395.33017,427.72558L396.29029,427.72558L396.29029,428.68568L397.01038,428.68568
				L397.01038,429.40576L397.9705,429.40576L397.9705,430.36586L398.6906,430.36586L398.6906,432.04604L399.65072,432.04604L399.65072,433.00614
				L400.61084,433.00614L400.61084,433.72622L401.33093,433.72622L401.33093,434.68632L402.29105,434.68632L402.29105,435.64642
				L403.25117,435.64642L403.25117,436.3665L403.97127,436.3665L403.97127,437.3266L404.93139,437.3266L404.93139,438.2867L405.65148,438.2867
				L405.65148,439.00678L406.6116,439.00678L406.6116,440.68696L407.57172,440.68696L407.57172,441.64706L408.29181,441.64706L408.29181,442.60717
				L409.25194,442.60717L409.25194,443.32724L410.21206,443.32724L410.21206,444.28734L412.61236,444.28734L412.61236,445.24745
				L417.89303,445.24745L417.89303,445.96752L423.1737,445.96752L423.1737,446.92763L427.49425,446.92763L427.49425,447.6477L432.77492,447.6477
				L432.77492,448.6078L438.05559,448.6078L438.05559,449.56791L442.37614,449.56791L442.37614,450.28798L447.41678,450.28798L447.41678,451.24809
				L453.65757,451.24809L453.65757,452.20819L466.61922,452.20819L466.61922,452.92826L478.86077,452.92826L478.86077,453.88837
				L494.46275,453.88837L494.46275,452.92826L505.74418,452.92826L505.74418,452.20819L517.02561,452.20819L517.02561,451.24809
				L537.18817,451.24809L537.18817,452.20819L549.42972,452.20819L549.42972,452.92826L561.43125,452.92826L561.43125,453.88837
				L573.6728,453.88837L573.6728,454.60844L585.91435,454.60844L585.91435,455.56855L596.23566,455.56855L596.23566,454.60844L598.876,454.60844
				L598.876,453.88837L601.9964,453.88837M601.9964,757.52072L198.74522,757.52072L198.74522,442.60717L200.42544,442.60717L200.42544,443.32724
				L203.06577,443.32724L203.06577,444.28734L205.70611,444.28734L205.70611,445.24745L210.02665,445.24745L210.02665,444.28734
				L216.02742,444.28734L216.02742,443.32724L221.30809,443.32724L221.30809,442.60717L223.94842,442.60717L223.94842,439.00678
				L224.90854,439.00678L224.90854,436.3665L225.62863,436.3665L225.62863,433.00614L226.58876,433.00614L226.58876,430.36586L227.30885,430.36586
				L227.30885,426.76548L228.26897,426.76548L228.26897,423.40512L229.22909,423.40512L229.22909,422.44502L296.19759,422.44502
				L296.19759,421.72494L296.91768,421.72494L296.91768,420.76484L297.8778,420.76484L297.8778,419.80474L298.83792,419.80474L298.83792,419.08466
				L303.15847,419.08466L303.15847,418.12456L303.87856,418.12456L303.87856,417.40448L304.83869,417.40448L304.83869,416.44438
				L305.79881,416.44438L305.79881,415.48427L306.5189,415.48427L306.5189,414.7642L307.47902,414.7642L307.47902,413.8041"/>
		</g>
</g></svg>