<?xml version="1.0" encoding="utf-8" standalone="no"?>
<!-- Creator: ESRI ArcMap 10.0.0.2414 -->
<!DOCTYPE svg PUBLIC "-//W3C//DTD SVG 1.1//EN"  "http://www.w3.org/Graphics/SVG/1.1/DTD/svg11.dtd">
<svg width="595.50236pt" height="595.50236pt" viewBox="25 148.377955 545.50236 545.50236" enable-background="new 25 148.377955 545.50236 545.50236"
	version="1.1" xmlns="http://www.w3.org/2000/svg" xmlns:xlink="http://www.w3.org/1999/xlink" >
	<g id="Couches">
		<g id="reservoirs">
			<path clip-path="url(#SVG_CP_2)" fill-opacity="0.2" fill="#07866D" fill-rule="evenodd" stroke="none" stroke-width="" stra="1.44018" stroke-miterlimit="10" stroke-linecap="round" stroke-linejoin="round" d="
				M237.87019,861.21177L236.91007,859.53159L236.67003,859.29157L235.70991,855.69118L233.30961,851.61075L231.14933,848.01037
				L228.509,842.24975L211.9469,853.53095L211.70687,853.53095L209.54659,854.73108L207.62635,855.69118L204.50595,858.57149L200.66547,861.21177
				L123.61569,861.21177L116.6548,856.89131L110.17398,853.0509L101.05282,861.21177L99.13258,861.21177L93.61188,853.77098L81.37033,860.4917
				L80.4102,861.21177L34.32436,861.21177L31.92405,856.17123L31.68402,854.73108L27.36347,846.81024L33.36423,843.92993L29.76378,837.44924
				L34.32436,835.76906L32.40411,832.64873L49.92634,820.1674L71.04902,808.40614L85.69087,802.16548L87.61112,804.80576L93.85191,813.68671
				L95.05206,815.12686L98.89255,821.1275L104.17322,817.04707L98.65252,808.8862L97.21234,806.48594L108.97383,798.80512L110.17398,797.84502
				L109.45389,797.12494L106.09346,793.28453L107.05359,792.56446L105.37337,789.92418L119.7752,777.68287L133.69697,767.36177L
				137.05739,764.48146L138.97764,762.80129L139.69773,761.60116L141.13791,757.2807L140.41782,756.56062L145.69849,750.80001L160.82041,737.5986
				L155.77977,729.91778L162.02056,725.11727L164.42087,723.67712L166.58114,722.47699L168.50138,721.03683L171.14172,720.55678
				L176.66242,717.19643L185.78358,711.43581L183.6233,706.39527L191.78434,701.59476L203.54583,694.63402L199.94537,688.15333L
				189.62406,668.47123L180.74294,653.1096L178.34263,649.02916L160.10032,656.70998L153.13943,640.62827L162.02056,636.78786L152.8994,613.7454
				L150.73913,614.94553L145.93852,617.58581L143.53822,618.78594L138.97764,609.66497L128.4163,613.98543L128.89636,614.94553L
				123.13563,618.30589L126.73608,625.50666L115.69468,631.26727L114.97459,630.54719L113.77444,626.94681L111.8542,623.1064L109.45389,618.54591
				L107.05359,614.94553L103.45313,610.86509L100.57276,607.98479L99.61264,606.54463L99.85267,605.10448L100.81279,603.90435L105.6134,600.06394
				L113.53441,594.54336L119.7752,589.02277L125.77596,583.7422L135.37718,572.70103L139.4577,567.42047L141.858,565.02021L146.89864,560.45972
				L151.45922,556.13926L155.53974,551.33875L159.62026,547.73837L171.14172,531.41663L177.14248,533.81688L182.66318,535.97711
				L190.34416,535.25704L190.34416,532.37673L191.54431,530.45653L192.02437,529.2564L194.6647,519.65538L194.6647,516.77507L195.62483,515.81497
				L196.58495,513.17468L198.74522,507.17405L199.46531,502.13351L198.74522,500.2133L197.06501,498.53312L211.22681,487.972L212.90702,489.41215
				L218.18769,492.29246L224.42848,495.89284L225.86866,493.73261L227.06882,494.21266L227.78891,493.25256L232.34949,497.333L235.22985,500.2133
				L229.46912,504.53376L231.14933,506.93402L237.87019,503.57366L246.51128,499.2532L246.51128,499.49323L247.23137,500.45333L
				248.43153,499.97328L252.75208,493.25256L253.7122,491.81241L253.7122,491.33236L270.2743,463.72942L282.51585,489.8922L301.47826,531.65665
				L317.80033,565.98031L339.88313,614.46548L357.16533,651.42942L377.80795,696.3142L419.81328,787.04387L432.77492,815.12686L
				443.33626,837.68927L454.13763,861.21177L237.87019,861.21177z"/>
			<path clip-path="url(#SVG_CP_2)" fill-opacity="0.2" fill="#07866D" fill-rule="evenodd" stroke="none" stroke-width="" stra="1.44018" stroke-miterlimit="10" stroke-linecap="round" stroke-linejoin="round" d="
				M436.13535,-18.722L438.29562,-15.84169L409.97203,16.08171L405.89151,21.12225L413.33245,22.08235L425.81404,23.76253L434.45513,26.40281
				L445.9766,29.0431L459.4183,29.0431L469.01952,28.56304L477.18056,29.28312L491.10232,31.9234L495.42287,32.64348L514.14525,31.44335
				L518.22576,31.68338L520.38604,31.9234L518.22576,38.64412L539.10841,39.60422L542.22881,32.64348L561.43125,33.36356L560.71116,42.2445
				L560.71116,45.12481L556.87067,69.60742L567.19198,70.80755L568.1521,69.36739L580.39365,68.64732L581.35378,64.32686L588.07463,63.60678
				L587.35454,60.72647L587.11451,59.52634L588.07463,42.2445L598.15591,42.00448L601.9964,41.76445L601.9964,367.95921L598.876,369.15934
				L595.99563,363.63875L601.03627,361.95857L600.55621,357.87814L598.876,354.27775L595.51557,350.19732L593.83536,352.35755L590.47493,354.99783
				L583.03399,361.95857L578.47341,365.55895L573.43277,361.23849L569.59228,356.43798L557.1107,341.07635L538.14829,353.31765L
				481.98117,390.04156L476.7005,393.40192L472.13992,387.64131L457.49806,396.76228L466.85925,401.08274L464.45894,402.28287L450.53717,411.40384
				L428.21434,423.64514L418.85315,428.92571L409.01191,434.20627L399.17066,439.72686L383.80871,422.68504L376.60779,415.96433
				L368.20673,409.48364L355.48511,401.08274L346.12392,395.0821L315.88009,378.52034L297.8778,367.95921L303.15847,363.63875L304.35862,361.47852
				L304.59865,360.27839L297.8778,345.63683L298.35786,344.67673L308.19911,340.35627L312.27963,338.43606L320.44067,334.1156L324.28115,331.95537
				L320.6807,332.43543L315.64006,333.1555L294.75741,333.63555L290.19683,332.67545L284.4361,329.07507L275.55497,322.35435L266.91387,315.63363
				L260.91311,309.633L257.79272,305.07251L250.83183,291.39105L229.46912,299.3119L229.22909,299.3119L218.42772,278.18964L214.82726,268.82865
				L209.06653,252.74693L214.10717,252.02686L215.30732,249.14655L215.78738,244.82609L214.58723,240.98568L212.66699,229.22443
				L214.10717,218.90333L203.54583,219.6234L202.34568,223.46381L200.9055,223.70384L199.94537,220.34348L197.54507,208.3422L211.9469,204.98184
				L211.22681,199.94131L211.70687,194.90077L210.74674,190.58031L208.58647,189.38018L202.82574,190.82033L200.1854,180.49923L
				193.46455,182.65946L190.34416,166.57775L190.34416,165.37762L188.18388,158.89693L193.70458,157.21675L195.86486,162.73734L
				196.34492,163.93747L207.86638,159.13696L209.06653,158.41688L205.22604,148.33581L203.06577,149.05588L202.10565,149.05588L
				201.86562,148.57583L201.62559,148.33581L202.34568,146.65563L202.34568,144.73542L201.38556,144.25537L198.50519,144.73542L
				193.94461,146.4156L188.18388,148.57583L186.98373,148.33581L186.50367,147.3757L183.14324,139.69489L180.02285,131.77404L180.02285,130.81394
				L180.98297,129.85384L183.86333,128.89374L186.26364,127.93363L187.70382,127.21356L188.18388,126.97353L188.66394,126.97353
				L190.82422,126.49348L192.02437,125.7734L192.74446,124.09322L192.2644,119.53274L191.78434,117.13248L185.54355,108.73159L181.94309,104.65115
				L179.06272,103.45102L177.38251,100.33069L173.78205,91.44975L161.30047,71.2876L161.06044,70.08747L153.37946,61.9266L147.61873,56.64604
				L143.77825,52.08555L132.49681,26.16279L131.29666,21.84233L133.937,20.6422L133.937,17.76189L133.21691,16.32174L136.81736,14.88159
				L135.13715,10.56113L136.57733,9.84105L136.3373,8.88095L135.13715,6.48069L132.97688,4.08044L133.69697,2.16023L134.89712,1.20013
				L137.05739,1.20013L139.4577,0.9601L140.17779,-2.40026L142.57809,-8.16087L140.89788,-8.64092L141.37794,-13.44143L141.37794,-18.722
				L210.50671,-18.722L211.9469,-15.36164L202.10565,-7.92084L201.14553,-7.20077L200.66547,-6.96074L198.50519,-6.00064L196.58495,-5.04054
				L195.62483,0L197.7851,3.84041L203.78586,10.80115L204.98601,10.56113L221.54812,5.28056L222.50824,8.4009L234.0297,23.76253
				L238.35025,25.68274L242.6708,26.16279L255.39241,24.72263L258.27278,24.48261L262.83335,25.20269L267.39393,26.16279L270.2743,25.92276
				L268.59409,7.20077L269.31418,5.28056L270.51433,4.56049L273.15466,1.44015L274.83488,-4.56049L275.55497,-9.60102L274.83488,-13.44143
				L271.95451,-16.56177L268.11402,-15.12161L263.07339,-15.84169L256.59256,-18.722L436.13535,-18.722z"/>
		</g>
</g></svg>