<?xml version="1.0" encoding="utf-8" standalone="no"?>
<!-- Creator: ESRI ArcMap 10.0.0.2414 -->
<!DOCTYPE svg PUBLIC "-//W3C//DTD SVG 1.1//EN"  "http://www.w3.org/Graphics/SVG/1.1/DTD/svg11.dtd">
<svg width="595.50236pt" height="595.50236pt" viewBox="25 148.377955 545.50236 545.50236" enable-background="new 25 148.377955 545.50236 545.50236"
	version="1.1" xmlns="http://www.w3.org/2000/svg" xmlns:xlink="http://www.w3.org/1999/xlink" >
	<g id="Couches">
		<g id="reservoirs">
			<path clip-path="url(#SVG_CP_2)" fill-opacity="0.2" fill="#07866D" fill-rule="evenodd" stroke="none" stroke-width="" stra="1.44018" stroke-miterlimit="10" stroke-linecap="round" stroke-linejoin="round" d="
				M227.54888,320.9142L215.30732,344.4367L187.22376,344.19668L181.46303,318.75397L187.94385,315.87366L213.62711,274.10921L230.18921,203.78172
				L231.62939,197.061L239.31037,162.25729L241.23061,153.37634L243.39089,143.77532L241.23061,137.29463L248.67156,134.65435L252.27201,138.97481
				L260.19302,139.45486L259.95299,146.4156L259.47293,155.29655L252.75208,287.07059L227.54888,320.9142z"/>
			<path clip-path="url(#SVG_CP_2)" fill-opacity="0.2" fill="#07866D" fill-rule="evenodd" stroke="none" stroke-width="" stra="1.44018" stroke-miterlimit="10" stroke-linecap="round" stroke-linejoin="round" d="
				M-6.24079,802.16548L35.04445,772.16228L48.48615,767.6018L93.13182,768.80192L94.09194,768.80192L101.05282,775.04259L108.25374,781.52328
				L130.8166,801.4454L150.4991,772.40231L137.77748,760.161L131.53669,754.40039L124.57581,748.15973L149.77901,718.8766L210.98678,684.55295
				L288.27658,592.62315L349.00429,520.8555L430.85468,419.80474L510.30476,452.92826L538.38832,402.28287L472.61998,372.75972L
				540.30857,294.51138L561.19122,268.82865L577.27326,254.18709L584.47417,256.10729L601.9964,263.54808L601.9964,861.21177L-6.24079,861.21177
				L-6.24079,802.16548z"/>
		</g>
</g></svg>