<?xml version="1.0" encoding="utf-8" standalone="no"?>
<!-- Creator: ESRI ArcMap 10.0.0.2414 -->
<!DOCTYPE svg PUBLIC "-//W3C//DTD SVG 1.1//EN"  "http://www.w3.org/Graphics/SVG/1.1/DTD/svg11.dtd">
<svg width="595.50236pt" height="595.50236pt" viewBox="25 148.377955 545.50236 545.50236" enable-background="new 25 148.377955 545.50236 545.50236"
	version="1.1" xmlns="http://www.w3.org/2000/svg" xmlns:xlink="http://www.w3.org/1999/xlink" >
	<g id="Couches">
		<g id="cont_2">
			<path clip-path="url(#SVG_CP_2)" fill="none" stroke="#999999" stroke-width="0.96012" stroke-miterlimit="10" stroke-linecap="round" stroke-linejoin="round" d="
				M318.28039,376.12008L318.28039,376.84016L318.76045,376.84016L318.76045,377.32021L319.48054,377.32021L319.48054,377.80026
				L319.9606,377.80026L319.9606,378.52034L320.44067,378.52034L320.44067,379.00039L321.16076,379.00039L321.16076,379.72046L321.64082,379.72046
				L321.64082,380.20051L322.36091,380.20051L322.36091,380.92059L322.84097,380.92059L322.84097,381.40064L323.56106,381.40064
				L323.56106,382.12072L324.04112,382.12072L324.04112,382.60077L324.76121,382.60077L324.76121,385.00103L324.04112,385.00103
				L324.04112,386.20115L323.56106,386.20115L323.56106,387.40128L322.84097,387.40128L322.84097,388.60141L322.36091,388.60141
				L322.36091,390.52161L321.64082,390.52161L321.64082,391.72174L321.16076,391.72174L321.16076,392.92187L320.44067,392.92187
				L320.44067,393.40192L319.9606,393.40192L319.9606,394.60205L319.48054,394.60205L319.48054,395.32213L318.76045,395.32213L318.76045,396.52225
				L318.28039,396.52225L318.28039,397.72238L317.5603,397.72238L317.5603,398.20243L317.08024,398.20243L317.08024,399.40256L316.36015,399.40256
				L316.36015,400.12264L315.88009,400.12264L315.88009,401.32277L315.16,401.32277L315.16,402.52289L314.67993,402.52289L314.67993,403.00294
				L313.95984,403.00294L313.95984,404.20307L313.47978,404.20307L313.47978,404.68312L312.75969,404.68312L312.75969,405.88325
				L312.27963,405.88325L312.27963,407.08338L311.55954,407.08338L311.55954,407.80346L311.07948,407.80346L311.07948,409.00358
				L310.35939,409.00358L310.35939,417.88453L309.87933,417.88453L309.87933,418.60461L309.15923,418.60461L309.15923,419.80474
				L308.67917,419.80474L308.67917,420.28479L307.95908,420.28479L307.95908,421.00486L307.47902,421.00486L307.47902,421.48491
				L306.75893,421.48491L306.75893,422.20499L306.27887,422.20499L306.27887,422.68504L305.55878,422.68504L305.55878,423.40512
				L305.07872,423.40512L305.07872,423.88517L304.35862,423.88517L304.35862,424.60525L303.87856,424.60525L303.87856,425.0853L
				303.15847,425.0853L303.15847,425.80537L302.67841,425.80537L302.67841,426.28543L301.95832,426.28543L301.95832,427.0055L301.47826,427.0055
				L301.47826,427.48555L300.75817,427.48555L300.75817,428.20563L300.27811,428.20563L300.27811,428.68568L299.55802,428.68568
				L299.55802,429.16573L299.07795,429.16573L299.07795,429.88581L298.35786,429.88581L298.35786,430.36586L297.8778,430.36586L
				297.8778,431.08594L297.15771,431.08594L297.15771,431.56599L296.67765,431.56599L296.67765,432.28607L295.95756,432.28607L295.95756,432.76612
				L295.4775,432.76612L295.4775,433.48619L294.75741,433.48619L294.75741,433.96624L294.27735,433.96624L294.27735,434.68632L293.79728,434.68632
				L293.79728,435.16637L293.07719,435.16637L293.07719,435.88645L292.59713,435.88645L292.59713,436.3665L291.87704,436.3665L291.87704,437.08658
				L291.39698,437.08658L291.39698,437.56663L290.67689,437.56663L290.67689,438.2867L290.19683,438.2867L290.19683,438.76676L289.47674,438.76676
				L289.47674,439.48683L288.99668,439.48683L288.99668,439.96688L288.27658,439.96688L288.27658,440.68696L287.79652,440.68696
				L287.79652,441.16701L287.07643,441.16701L287.07643,442.36714L286.59637,442.36714L286.59637,443.08722L285.87628,443.08722
				L285.87628,443.56727L285.39622,443.56727L285.39622,444.7674L284.67613,444.7674L284.67613,445.48747L284.19607,445.48747L284.19607,445.96752
				L283.47597,445.96752L283.47597,446.6876L282.99591,446.6876L282.99591,447.88773L282.27582,447.88773L282.27582,448.36778L281.79576,448.36778
				L281.79576,449.08786L281.07567,449.08786L281.07567,449.56791L280.59561,449.56791L280.59561,450.76803L279.87552,450.76803
				L279.87552,451.48811L279.39546,451.48811L279.39546,451.96816L278.67537,451.96816L278.67537,452.68824L278.1953,452.68824L
				278.1953,453.64834L277.47521,453.64834L277.47521,454.36842L276.99515,454.36842L276.99515,454.84847L276.27506,454.84847L276.27506,455.56855
				L275.795,455.56855L275.795,456.0486L275.07491,456.0486L275.07491,456.76867L274.59485,456.76867L274.59485,457.9688L273.87476,457.9688
				L273.87476,458.44885L273.3947,458.44885L273.3947,459.16893L272.6746,459.16893L272.6746,462.04924L272.19454,462.04924L272.19454,462.76931
				L271.47445,462.76931L271.47445,463.24936L270.99439,463.24936L270.99439,463.96944L270.2743,463.96944L270.2743,464.44949L269.79424,464.44949
				L269.79424,465.64962L269.31418,465.64962L269.31418,466.3697L268.59409,466.3697L268.59409,466.84975L268.11402,466.84975L268.11402,467.56983
				L267.39393,467.56983L267.39393,468.04988L266.91387,468.04988L266.91387,468.76995L266.19378,468.76995L266.19378,469.25L265.71372,469.25
				L265.71372,470.45013L264.99363,470.45013L264.99363,471.17021L264.51357,471.17021L264.51357,471.65026L263.79348,471.65026
				L263.79348,472.37034L263.31342,472.37034L263.31342,472.85039L262.59332,472.85039L262.59332,473.57046L262.11326,473.57046
				L262.11326,474.05052L261.39317,474.05052L261.39317,475.25064L260.91311,475.25064L260.91311,475.97072L260.19302,475.97072
				L260.19302,476.45077L259.71296,476.45077L259.71296,477.17085L258.99287,477.17085L258.99287,477.6509L258.51281,477.6509L258.51281,478.37098
				L257.79272,478.37098L257.79272,478.85103L257.31265,478.85103L257.31265,479.33108L256.59256,479.33108L256.59256,480.53121
				L256.1125,480.53121L256.1125,481.25128L255.39241,481.25128L255.39241,481.73133L254.91235,481.73133L254.91235,482.45141L254.19226,482.45141
				L254.19226,482.93146L253.7122,482.93146L253.7122,483.65154L252.99211,483.65154L252.99211,484.13159L252.51205,484.13159L252.51205,485.33172
				L251.79195,485.33172L251.79195,486.05179L251.31189,486.05179L251.31189,486.53185L250.5918,486.53185L250.5918,487.25192L250.11174,487.25192
				L250.11174,487.73197L249.39165,487.73197L249.39165,488.45205L248.91159,488.45205L248.91159,488.9321L248.1915,488.9321L248.1915,489.65218
				L247.71144,489.65218L247.71144,490.13223L246.99134,490.13223L246.99134,491.33236L246.51128,491.33236L246.51128,492.05243
				L245.79119,492.05243L245.79119,492.53249L245.31113,492.53249L245.31113,493.25256L244.59104,493.25256L244.59104,493.73261
				L244.11098,493.73261L244.11098,494.45269L243.63092,494.45269L243.63092,494.93274L242.91083,494.93274L242.91083,495.65282
				L242.43077,495.65282L242.43077,496.13287L241.71067,496.13287L241.71067,497.333L241.23061,497.333L241.23061,498.05307L240.51052,498.05307
				L240.51052,498.53312L240.03046,498.53312L240.03046,499.2532L239.31037,499.2532L239.31037,499.73325L238.83031,499.73325L238.83031,500.45333
				L238.11022,500.45333L238.11022,500.93338L237.63016,500.93338L237.63016,501.65346L236.91007,501.65346L236.91007,502.85359
				L236.43,502.85359L236.43,503.33364L235.70991,503.33364L235.70991,504.05371L235.22985,504.05371L235.22985,504.53376L234.50976,504.53376
				L234.50976,505.01382L234.0297,505.01382L234.0297,505.73389L233.30961,505.73389L233.30961,506.21394L232.82955,506.21394L232.82955,506.93402
				L232.10946,506.93402L232.10946,507.41407L231.62939,507.41407L231.62939,508.6142L230.9093,508.6142L230.9093,509.33428L230.42924,509.33428
				L230.42924,509.81433L229.70915,509.81433L229.70915,510.5344L229.22909,510.5344L229.22909,511.01445L228.509,511.01445L228.509,511.73453
				L228.02894,511.73453L228.02894,512.21458L227.30885,512.21458L227.30885,512.93466L226.82879,512.93466L226.82879,513.41471
				L226.10869,513.41471L226.10869,514.13479L225.62863,514.13479L225.62863,515.33492L224.90854,515.33492L224.90854,515.81497
				L224.42848,515.81497L224.42848,516.53504L223.70839,516.53504L223.70839,517.01509L223.22833,517.01509L223.22833,517.73517
				L222.50824,517.73517L222.50824,518.21522L222.02818,518.21522L222.02818,518.9353L221.30809,518.9353L221.30809,519.41535L220.82802,519.41535
				L220.82802,520.13543L220.10793,520.13543L220.10793,520.61548L219.62787,520.61548L219.62787,521.33555L218.90778,521.33555
				L218.90778,522.53568L218.42772,522.53568L218.42772,523.01573L217.94766,523.01573L217.94766,523.73581L217.22757,523.73581
				L217.22757,524.21586L216.74751,524.21586L216.74751,524.93594L216.02742,524.93594L216.02742,525.41599L215.54735,525.41599
				L215.54735,526.13607L214.82726,526.13607L214.82726,526.61612L214.3472,526.61612L214.3472,527.33619L213.62711,527.33619L213.62711,527.81625
				L213.14705,527.81625L213.14705,528.53632L212.42696,528.53632L212.42696,529.01637L211.9469,529.01637L211.9469,530.2165L211.22681,530.2165
				L211.22681,530.69655L210.74674,530.69655L210.74674,531.41663L210.02665,531.41663L210.02665,531.89668L209.54659,531.89668
				L209.54659,532.61676L208.8265,532.61676L208.8265,533.09681L208.34644,533.09681L208.34644,533.81688L207.62635,533.81688L207.62635,534.29694
				L207.14629,534.29694L207.14629,535.01701L206.4262,535.01701L206.4262,535.49706L205.94614,535.49706L205.94614,536.69719L205.22604,536.69719
				L205.22604,537.41727L204.74598,537.41727L204.74598,537.89732L204.02589,537.89732L204.02589,538.6174L203.54583,538.6174L203.54583,539.09745
				L202.82574,539.09745L202.82574,539.81752L202.34568,539.81752L202.34568,540.29758L201.62559,540.29758L201.62559,541.01765
				L201.14553,541.01765L201.14553,541.4977L200.42544,541.4977L200.42544,542.69783L199.94537,542.69783L199.94537,543.41791L199.22528,543.41791
				L199.22528,543.89796L198.74522,543.89796L198.74522,544.61804L198.02513,544.61804L198.02513,545.09809L197.54507,545.09809
				L197.54507,545.81816L196.82498,545.81816L196.82498,546.29821L196.34492,546.29821L196.34492,547.01829L195.62483,547.01829
				L195.62483,548.21842L195.14476,548.21842L195.14476,548.69847L194.42467,548.69847L194.42467,549.41855L193.94461,549.41855
				L193.94461,549.8986L193.46455,549.8986L193.46455,550.61867L192.74446,550.61867L192.74446,551.09873L192.2644,551.09873L192.2644,551.8188
				L191.54431,551.8188L191.54431,552.29885L191.06425,552.29885L191.06425,553.01893L190.34416,553.01893L190.34416,554.21906L
				189.86409,554.21906L189.86409,554.69911L189.144,554.69911L189.144,555.17916L188.66394,555.17916L188.66394,555.89924L187.94385,555.89924
				L187.94385,556.37929L187.46379,556.37929L187.46379,557.09937L186.7437,557.09937L186.7437,557.57942L186.26364,557.57942L186.26364,558.29949
				L185.54355,558.29949L185.54355,558.77954L185.06349,558.77954L185.06349,559.97967L184.34339,559.97967L184.34339,560.69975
				L183.86333,560.69975L183.86333,561.1798L183.14324,561.1798L183.14324,561.89988L182.66318,561.89988L182.66318,562.37993L181.94309,562.37993
				L181.94309,563.1L181.46303,563.1L181.46303,563.58006L180.74294,563.58006L180.74294,564.30013L180.26288,564.30013L180.26288,565.50026
				L179.54278,565.50026L179.54278,565.98031L179.06272,565.98031L179.06272,566.70039L178.34263,566.70039L178.34263,567.18044
				L177.86257,567.18044L177.86257,567.90052L177.14248,567.90052L177.14248,568.38057L176.66242,568.38057L176.66242,569.10064
				L175.94233,569.10064L175.94233,569.5807L175.46227,569.5807L175.46227,570.30077L174.74218,570.30077L174.74218,571.5009L174.26211,571.5009
				L174.26211,571.98095L173.54202,571.98095L173.54202,572.70103L173.06196,572.70103L173.06196,573.18108L172.34187,573.18108
				L172.34187,573.90116L171.86181,573.90116L171.86181,574.38121L171.14172,574.38121L171.14172,575.10128L170.66166,575.10128
				L170.66166,576.30141L169.94157,576.30141L169.94157,576.78146L169.46151,576.78146L169.46151,577.50154L168.74141,577.50154
				L168.74141,577.98159L168.26135,577.98159L168.26135,578.70167L167.78129,578.70167L167.78129,579.18172L167.0612,579.18172L
				167.0612,579.9018L166.58114,579.9018L166.58114,580.38185L165.86105,580.38185L165.86105,581.58197L165.38099,581.58197L165.38099,582.06203
				L164.6609,582.06203L164.6609,582.7821L164.18084,582.7821L164.18084,583.26215L163.46074,583.26215L163.46074,583.98223L162.98068,583.98223
				L162.98068,584.46228L162.26059,584.46228L162.26059,585.18236L161.78053,585.18236L161.78053,585.66241L161.06044,585.66241
				L161.06044,586.86254L160.58038,586.86254L160.58038,587.58261L159.86029,587.58261L159.86029,588.06266L159.38023,588.06266
				L159.38023,588.78274L158.66013,588.78274L158.66013,589.26279L158.18007,589.26279L158.18007,589.98287L157.45998,589.98287
				L157.45998,590.46292L156.97992,590.46292L156.97992,591.66305L156.25983,591.66305L156.25983,592.38313L155.77977,592.38313
				L155.77977,592.86318L155.05968,592.86318L155.05968,593.58325L154.57962,593.58325L154.57962,594.0633L153.85953,594.0633L153.85953,594.78338
				L153.37946,594.78338L153.37946,595.26343L152.65937,595.26343L152.65937,595.98351L152.17931,595.98351L152.17931,596.46356
				L151.45922,596.46356L151.45922,597.66369L150.97916,597.66369L150.97916,598.38376L150.25907,598.38376L150.25907,598.86382
				L149.77901,598.86382L149.77901,599.58389L149.05892,599.58389L149.05892,600.06394L148.57886,600.06394L148.57886,600.78402
				L147.85876,600.78402L147.85876,601.26407L147.3787,601.26407L147.3787,601.98415L146.65861,601.98415L146.65861,602.4642L146.17855,602.4642
				L146.17855,603.66433L145.45846,603.66433L145.45846,604.3844L144.9784,604.3844L144.9784,604.86446L144.25831,604.86446L144.25831,605.34451
				L143.77825,605.34451L143.77825,606.06458L143.05815,606.06458L143.05815,606.54463L142.57809,606.54463L142.57809,607.26471
				L142.09803,607.26471L142.09803,608.46484L141.37794,608.46484L141.37794,608.94489L140.89788,608.94489L140.89788,609.66497
				L140.17779,609.66497L140.17779,610.14502L139.69773,610.14502L139.69773,610.86509L138.97764,610.86509L138.97764,611.34515
				L138.49758,611.34515L138.49758,612.54527L137.77748,612.54527L137.77748,613.26535L137.29742,613.26535L137.29742,613.7454L
				136.57733,613.7454L136.57733,614.46548L136.09727,614.46548L136.09727,614.94553L135.37718,614.94553L135.37718,615.66561L134.89712,615.66561
				L134.89712,616.86573L134.17703,616.86573L134.17703,617.34579L133.69697,617.34579L133.69697,618.06586L132.97688,618.06586
				L132.97688,618.54591L132.49681,618.54591L132.49681,619.26599L131.77672,619.26599L131.77672,619.74604L131.29666,619.74604
				L131.29666,620.94617L130.57657,620.94617L130.57657,621.66625L130.09651,621.66625L130.09651,622.1463L129.37642,622.1463L129.37642,622.86637
				L128.89636,622.86637L128.89636,623.34642L128.17627,623.34642L128.17627,624.0665L127.69621,624.0665L127.69621,625.26663L126.97611,625.26663
				L126.97611,625.74668L126.49605,625.74668L126.49605,626.46676L125.77596,626.46676L125.77596,632.22737L126.49605,632.22737
				L126.49605,639.42814L126.97611,639.42814L126.97611,646.62891L127.69621,646.62891L127.69621,652.62955L128.17627,652.62955
				L128.17627,657.91011L128.89636,657.91011L128.89636,663.91075L129.37642,663.91075L129.37642,672.31164L130.09651,672.31164
				L130.09651,680.71254L130.57657,680.71254L130.57657,689.11343L131.29666,689.11343L131.29666,694.394L131.77672,694.394L131.77672,699.91458
				L132.49681,699.91458L132.49681,705.19515L132.97688,705.19515L132.97688,709.27558L133.69697,709.27558L133.69697,709.99566
				L134.89712,709.99566L134.89712,710.47571L136.09727,710.47571L136.09727,711.19579L136.57733,711.19579L136.57733,711.67584
				L137.77748,711.67584L137.77748,712.39591L138.97764,712.39591L138.97764,712.87597L139.69773,712.87597L139.69773,713.59604
				L140.89788,713.59604L140.89788,714.07609L141.37794,714.07609L141.37794,714.79617L142.09803,714.79617L142.09803,715.27622
				L142.57809,715.27622L142.57809,716.47635L143.05815,716.47635L143.05815,717.19643L143.77825,717.19643L143.77825,717.67648
				L144.25831,717.67648L144.25831,718.8766L144.9784,718.8766L144.9784,719.59668L139.69773,719.59668L139.69773,718.8766L138.97764,718.8766
				L138.97764,718.39655L138.49758,718.39655L138.49758,717.67648L137.77748,717.67648L137.77748,717.19643L136.57733,717.19643
				L136.57733,716.47635L135.37718,716.47635L135.37718,715.9963L134.89712,715.9963L134.89712,715.27622L133.69697,715.27622L133.69697,714.79617
				L132.49681,714.79617L132.49681,714.07609L131.29666,714.07609L131.29666,713.59604L130.09651,713.59604L130.09651,712.87597
				L129.37642,712.87597L129.37642,712.39591L128.89636,712.39591L128.89636,711.19579L128.17627,711.19579L128.17627,709.99566
				L127.69621,709.99566L127.69621,708.79553L126.97611,708.79553L126.97611,707.5954L126.49605,707.5954L126.49605,706.39527L125.77596,706.39527
				L125.77596,705.19515L125.2959,705.19515L125.2959,703.99502L124.57581,703.99502L124.57581,701.59476L124.09575,701.59476L124.09575,699.19451
				L123.37566,699.19451L123.37566,696.3142L122.8956,696.3142L122.8956,693.19387L122.1755,693.19387L122.1755,690.79361L121.69544,690.79361
				L121.69544,687.91331L120.97535,687.91331L120.97535,681.19259L120.49529,681.19259L120.49529,678.31228L119.7752,678.31228L
				119.7752,672.31164L119.29514,672.31164L119.29514,667.51113L118.57505,667.51113L118.57505,665.11088L118.09499,665.11088L118.09499,662.23057
				L117.61493,662.23057L117.61493,659.83031L116.89483,659.83031L116.89483,657.43006L116.41477,657.43006L116.41477,655.0298L
				115.69468,655.0298L115.69468,652.62955L115.21462,652.62955L115.21462,650.94937L114.49453,650.94937L114.49453,648.54911L114.01447,648.54911
				L114.01447,647.82903L113.29438,647.82903L113.29438,647.34898L112.81432,647.34898L112.81432,646.62891L112.09423,646.62891
				L112.09423,645.42878L111.61416,645.42878L111.61416,644.22865L110.89407,644.22865L110.89407,643.7486L110.41401,643.7486L110.41401,643.02852
				L109.21386,643.02852L109.21386,641.82839L108.49377,641.82839L108.49377,640.14822L108.01371,640.14822L108.01371,638.94809
				L107.29362,638.94809L107.29362,637.74796L106.81356,637.74796L106.81356,635.3477L106.09346,635.3477L106.09346,634.62763L105.6134,634.62763
				L105.6134,632.94745L104.89331,632.94745L104.89331,630.06714L104.41325,630.06714L104.41325,629.34706L103.69316,629.34706L
				103.69316,627.66689L103.2131,627.66689L103.2131,626.46676L102.49301,626.46676L102.49301,622.86637L102.01295,622.86637L102.01295,619.26599
				L101.29285,619.26599L101.29285,617.34579L100.81279,617.34579L100.81279,616.14566L100.0927,616.14566L100.0927,615.66561L99.61264,615.66561
				L99.61264,614.94553L98.89255,614.94553L98.89255,614.46548L98.41249,614.46548L98.41249,613.7454L97.6924,613.7454L97.6924,613.26535
				L97.21234,613.26535L97.21234,612.06522L96.49225,612.06522L96.49225,610.86509L96.01218,610.86509L96.01218,609.66497L95.29209,609.66497
				L95.29209,608.46484L94.81203,608.46484L94.81203,607.26471L94.09194,607.26471L94.09194,606.06458L93.61188,606.06458L93.61188,604.86446
				L92.89179,604.86446L92.89179,603.66433L92.41173,603.66433L92.41173,602.4642L91.93167,602.4642L91.93167,601.26407L91.21158,601.26407
				L91.21158,600.06394L90.73151,600.06394L90.73151,598.86382L90.01142,598.86382L90.01142,598.38376L89.53136,598.38376L89.53136,596.46356
				L88.81127,596.46356L88.81127,595.26343L88.33121,595.26343L88.33121,594.0633L87.61112,594.0633L87.61112,592.86318L87.13106,592.86318
				L87.13106,591.66305L86.41097,591.66305L86.41097,590.46292L85.93091,590.46292L85.93091,589.26279L85.21081,589.26279L85.21081,588.06266
				L84.73075,588.06266L84.73075,586.38249L84.01066,586.38249L84.01066,585.18236L83.5306,585.18236L83.5306,583.26215L82.81051,583.26215
				L82.81051,582.06203L82.33045,582.06203L82.33045,580.8619L81.61036,580.8619L81.61036,579.9018L81.1303,579.9018L81.1303,577.98159
				L80.4102,577.98159L80.4102,576.30141L79.93014,576.30141L79.93014,575.10128L79.21005,575.10128L79.21005,573.18108L78.72999,573.18108
				L78.72999,571.5009L78.0099,571.5009L78.0099,569.5807L77.52984,569.5807L77.52984,567.90052L76.80975,567.90052L76.80975,565.98031
				L76.32969,565.98031L76.32969,561.89988L76.80975,561.89988L76.80975,555.89924L77.52984,555.89924L77.52984,549.8986L78.0099,549.8986
				L78.0099,548.69847L78.72999,548.69847L78.72999,545.81816L79.21005,545.81816L79.21005,544.61804L79.93014,544.61804L79.93014,543.89796
				L80.4102,543.89796L80.4102,542.21778L81.1303,542.21778L81.1303,541.01765L81.61036,541.01765L81.61036,539.81752L82.33045,539.81752
				L82.33045,538.6174L82.81051,538.6174L82.81051,535.01701L83.5306,535.01701L83.5306,533.09681L84.01066,533.09681L84.01066,531.41663
				L84.73075,531.41663L84.73075,529.49642L85.21081,529.49642L85.21081,527.81625L85.93091,527.81625L85.93091,526.61612L86.41097,526.61612
				L86.41097,525.41599L87.13106,525.41599L87.13106,524.21586L87.61112,524.21586L87.61112,521.81561L88.33121,521.81561L88.33121,520.61548
				L88.81127,520.61548L88.81127,519.41535L89.53136,519.41535L89.53136,515.81497L90.01142,515.81497L90.01142,511.73453L90.73151,511.73453
				L90.73151,508.6142L91.21158,508.6142L91.21158,501.65346L91.93167,501.65346L91.93167,494.93274L92.41173,494.93274L92.41173,489.65218
				L92.89179,489.65218L92.89179,484.13159L93.61188,484.13159L93.61188,480.53121L94.09194,480.53121L94.09194,475.25064L94.81203,475.25064
				L94.81203,473.57046L95.29209,473.57046L95.29209,470.45013L96.01218,470.45013L96.01218,468.04988L96.49225,468.04988L96.49225,466.3697
				L97.21234,466.3697L97.21234,463.24936L97.6924,463.24936L97.6924,462.04924L98.41249,462.04924L98.41249,459.64898L98.89255,459.64898
				L98.89255,456.76867L99.61264,456.76867L99.61264,454.84847L100.0927,454.84847L100.0927,453.64834"/>
			<path clip-path="url(#SVG_CP_2)" fill="none" stroke="#999999" stroke-width="0.96012" stroke-miterlimit="10" stroke-linecap="round" stroke-linejoin="round" d="
				M100.0927,453.64834L100.81279,453.64834L100.81279,450.76803L101.29285,450.76803L101.29285,449.08786L102.01295,449.08786L
				102.01295,447.16765L102.49301,447.16765L102.49301,445.48747L103.2131,445.48747L103.2131,443.08722L103.69316,443.08722L103.69316,441.88709
				L104.41325,441.88709L104.41325,439.96688L104.89331,439.96688L104.89331,438.2867L105.6134,438.2867L105.6134,436.3665L106.09346,436.3665
				L106.09346,435.16637L106.81356,435.16637L106.81356,433.48619L107.29362,433.48619L107.29362,432.28607L108.01371,432.28607
				L108.01371,430.36586L108.49377,430.36586L108.49377,428.68568L109.21386,428.68568L109.21386,427.48555L109.69392,427.48555
				L109.69392,431.56599L110.41401,431.56599L110.41401,438.2867L110.89407,438.2867L110.89407,444.7674L111.61416,444.7674L111.61416,451.48811
				L112.09423,451.48811L112.09423,458.44885L112.81432,458.44885L112.81432,465.16957L113.29438,465.16957L113.29438,471.65026
				L114.01447,471.65026L114.01447,478.37098L114.49453,478.37098L114.49453,484.85167L115.21462,484.85167L115.21462,492.05243
				L115.69468,492.05243L115.69468,498.53312L116.41477,498.53312L116.41477,505.01382L116.89483,505.01382L116.89483,511.73453
				L117.61493,511.73453L117.61493,518.9353L118.09499,518.9353L118.09499,522.53568L118.57505,522.53568L118.57505,521.81561L119.29514,521.81561
				L119.29514,521.33555L120.49529,521.33555L120.49529,520.61548L120.97535,520.61548L120.97535,520.13543L122.1755,520.13543L
				122.1755,519.41535L122.8956,519.41535L122.8956,518.9353L124.09575,518.9353L124.09575,518.21522L124.57581,518.21522L124.57581,517.73517
				L125.77596,517.73517L125.77596,517.01509L126.49605,517.01509L126.49605,516.53504L127.69621,516.53504L127.69621,515.81497
				L128.17627,515.81497L128.17627,515.33492L129.37642,515.33492L129.37642,514.61484L130.09651,514.61484L130.09651,514.13479
				L131.29666,514.13479L131.29666,513.41471L131.77672,513.41471L131.77672,512.93466L132.97688,512.93466L132.97688,512.21458
				L133.69697,512.21458L133.69697,511.73453L134.89712,511.73453L134.89712,511.01445L135.37718,511.01445L135.37718,510.5344L
				136.57733,510.5344L136.57733,509.81433L137.29742,509.81433L137.29742,509.33428L138.49758,509.33428L138.49758,508.6142L138.97764,508.6142
				L138.97764,508.13415L140.17779,508.13415L140.17779,507.41407L140.89788,507.41407L140.89788,506.93402L142.09803,506.93402
				L142.09803,506.21394L142.57809,506.21394L142.57809,505.73389L143.05815,505.73389L143.05815,505.01382L144.25831,505.01382
				L144.25831,504.53376L144.9784,504.53376L144.9784,504.05371L146.17855,504.05371L146.17855,503.33364L146.65861,503.33364L146.65861,502.85359
				L147.85876,502.85359L147.85876,502.13351L148.57886,502.13351L148.57886,501.65346L149.77901,501.65346L149.77901,500.93338
				L150.25907,500.93338L150.25907,500.45333L151.45922,500.45333L151.45922,499.73325L152.17931,499.73325L152.17931,499.2532L
				153.37946,499.2532L153.37946,498.53312L153.85953,498.53312L153.85953,498.05307L155.05968,498.05307L155.05968,496.13287L155.77977,496.13287
				L155.77977,494.93274L156.25983,494.93274L156.25983,493.25256L156.97992,493.25256L156.97992,491.33236L157.45998,491.33236
				L157.45998,490.13223L158.18007,490.13223L158.18007,488.45205L158.66013,488.45205L158.66013,487.25192L159.38023,487.25192
				L159.38023,486.05179L159.86029,486.05179L159.86029,484.85167L160.58038,484.85167L160.58038,483.65154L161.06044,483.65154
				L161.06044,482.45141L161.78053,482.45141L161.78053,481.25128L162.26059,481.25128L162.26059,480.05116L162.98068,480.05116
				L162.98068,478.85103L163.46074,478.85103L163.46074,478.37098L164.18084,478.37098L164.18084,477.17085L164.6609,477.17085L
				164.6609,475.97072L165.38099,475.97072L165.38099,474.77059L165.86105,474.77059L165.86105,474.05052L166.58114,474.05052L166.58114,472.85039
				L167.0612,472.85039L167.0612,471.65026L167.78129,471.65026L167.78129,470.45013L168.26135,470.45013L168.26135,469.97008L168.74141,469.97008
				L168.74141,468.76995L169.46151,468.76995L169.46151,467.56983L169.94157,467.56983L169.94157,466.3697L170.66166,466.3697L170.66166,465.64962
				L171.14172,465.64962L171.14172,464.44949L171.86181,464.44949L171.86181,463.24936L172.34187,463.24936L172.34187,462.04924
				L173.06196,462.04924L173.06196,461.56919L173.54202,461.56919L173.54202,460.36906L174.26211,460.36906L174.26211,459.16893
				L174.74218,459.16893L174.74218,457.9688L175.46227,457.9688L175.46227,457.24873L175.94233,457.24873L175.94233,456.0486L176.66242,456.0486
				L176.66242,454.84847L177.14248,454.84847L177.14248,453.64834L177.86257,453.64834L177.86257,453.16829L178.34263,453.16829
				L178.34263,451.96816L179.06272,451.96816L179.06272,450.76803L179.54278,450.76803L179.54278,449.56791L180.26288,449.56791
				L180.26288,449.08786L180.74294,449.08786L180.74294,447.88773L181.46303,447.88773L181.46303,446.6876L181.94309,446.6876L181.94309,445.48747
				L182.66318,445.48747L182.66318,444.7674L183.14324,444.7674L183.14324,443.56727L183.86333,443.56727L183.86333,442.36714L184.34339,442.36714
				L184.34339,441.16701L185.06349,441.16701L185.06349,440.68696L185.54355,440.68696L185.54355,439.48683L186.26364,439.48683
				L186.26364,438.2867L186.7437,438.2867L186.7437,437.08658L187.46379,437.08658L187.46379,436.3665L187.94385,436.3665L187.94385,435.16637
				L188.66394,435.16637L188.66394,433.96624L189.144,433.96624L189.144,432.76612L189.86409,432.76612L189.86409,432.28607L190.34416,432.28607
				L190.34416,431.08594L191.06425,431.08594L191.06425,429.88581L191.54431,429.88581L191.54431,428.68568L192.2644,428.68568L
				192.2644,428.20563L192.74446,428.20563L192.74446,427.0055L193.46455,427.0055L193.46455,425.80537L193.94461,425.80537L193.94461,424.60525
				L194.42467,424.60525L194.42467,423.88517L195.14476,423.88517L195.14476,422.68504L195.62483,422.68504L195.62483,421.48491
				L196.34492,421.48491L196.34492,420.28479L196.82498,420.28479L196.82498,419.80474L197.54507,419.80474L197.54507,418.60461
				L198.02513,418.60461L198.02513,417.40448L198.74522,417.40448L198.74522,416.6844L199.22528,416.6844L199.22528,415.48427L199.94537,415.48427
				L199.94537,414.28415L200.42544,414.28415L200.42544,413.08402L201.14553,413.08402L201.14553,412.60397L201.62559,412.60397
				L201.62559,411.40384L202.34568,411.40384L202.34568,410.20371L202.82574,410.20371L202.82574,409.00358L203.54583,409.00358
				L203.54583,408.28351L204.02589,408.28351L204.02589,407.08338L204.74598,407.08338L204.74598,405.88325L205.22604,405.88325
				L205.22604,404.68312L205.94614,404.68312L205.94614,404.20307L206.4262,404.20307L206.4262,403.00294L207.14629,403.00294L207.14629,401.80282
				L207.62635,401.80282L207.62635,400.60269L208.34644,400.60269L208.34644,400.12264L208.8265,400.12264L208.8265,398.92251L209.54659,398.92251
				L209.54659,397.72238L210.02665,397.72238L210.02665,396.52225L210.74674,396.52225L210.74674,395.80218L211.22681,395.80218
				L211.22681,394.60205L210.74674,394.60205L210.74674,394.122L210.02665,394.122L210.02665,393.40192L209.54659,393.40192L209.54659,392.92187
				L208.8265,392.92187L208.8265,392.20179L208.34644,392.20179L208.34644,391.72174L207.62635,391.72174L207.62635,391.00167L207.14629,391.00167
				L207.14629,390.52161L206.4262,390.52161L206.4262,389.80154L205.94614,389.80154L205.94614,389.32149L205.22604,389.32149L205.22604,388.60141
				L204.74598,388.60141L204.74598,388.12136L204.02589,388.12136L204.02589,387.40128L203.54583,387.40128L203.54583,386.92123
				L202.82574,386.92123L202.82574,386.20115L202.34568,386.20115L202.34568,385.7211L201.62559,385.7211L201.62559,385.00103L201.14553,385.00103
				L201.14553,384.52098L200.42544,384.52098L200.42544,383.8009L199.94537,383.8009L199.94537,383.32085L199.22528,383.32085L199.22528,382.60077
				L198.74522,382.60077L198.74522,382.12072L198.02513,382.12072L198.02513,381.40064L197.54507,381.40064L197.54507,380.92059
				L196.82498,380.92059L196.82498,380.20051L196.34492,380.20051L196.34492,379.72046L195.62483,379.72046L195.62483,379.00039
				L195.14476,379.00039L195.14476,378.52034L194.42467,378.52034L194.42467,377.80026L193.94461,377.80026L193.94461,377.32021
				L193.46455,377.32021L193.46455,376.84016L192.74446,376.84016L192.74446,376.12008L192.2644,376.12008L192.2644,375.64003L191.54431,375.64003
				L191.54431,374.91995L191.06425,374.91995L191.06425,374.4399L190.34416,374.4399L190.34416,373.71982L189.86409,373.71982L189.86409,373.23977
				L189.144,373.23977L189.144,372.5197L188.66394,372.5197L188.66394,372.03965L187.94385,372.03965L187.94385,371.31957L187.46379,371.31957
				L187.46379,370.83952L186.7437,370.83952L186.7437,370.11944L185.54355,370.11944L185.54355,369.63939L185.06349,369.63939L185.06349,368.91931
				L184.34339,368.91931L184.34339,368.43926L183.86333,368.43926L183.86333,367.71918L183.14324,367.71918L183.14324,367.23913
				L182.66318,367.23913L182.66318,366.51906L181.94309,366.51906L181.94309,366.03901L181.46303,366.03901L181.46303,365.31893
				L180.74294,365.31893L180.74294,364.83888L181.46303,364.83888L181.46303,363.63875L181.94309,363.63875L181.94309,361.71855
				L182.66318,361.71855L182.66318,360.51842L183.14324,360.51842L183.14324,359.31829L183.86333,359.31829L183.86333,357.63811
				L184.34339,357.63811L184.34339,356.43798L185.06349,356.43798L185.06349,354.51778L185.54355,354.51778L185.54355,353.31765
				L186.26364,353.31765L186.26364,351.63747L186.7437,351.63747L186.7437,350.43734L187.46379,350.43734L187.46379,349.95729L188.66394,349.95729
				L188.66394,351.15742L189.144,351.15742L189.144,352.35755L189.86409,352.35755L189.86409,352.8376L190.34416,352.8376L190.34416,354.03773
				L191.06425,354.03773L191.06425,355.23785L191.54431,355.23785L191.54431,356.43798L192.2644,356.43798L192.2644,357.63811L192.74446,357.63811
				L192.74446,358.83824L193.46455,358.83824L193.46455,359.31829L193.94461,359.31829L193.94461,360.51842L194.42467,360.51842
				L194.42467,361.23849L195.14476,361.23849L195.14476,362.43862L198.02513,362.43862L198.02513,362.91867L202.34568,362.91867
				L202.34568,363.63875L202.82574,363.63875L202.82574,362.91867L203.54583,362.91867L203.54583,363.63875L207.62635,363.63875
				L207.62635,364.1188L211.9469,364.1188L211.9469,362.91867L212.42696,362.91867L212.42696,361.23849L213.14705,361.23849L213.14705,357.63811
				L213.62711,357.63811L213.62711,354.51778L214.3472,354.51778L214.3472,352.8376L214.82726,352.8376L214.82726,349.23722L215.54735,349.23722
				L215.54735,345.15678L216.02742,345.15678L216.02742,343.23658L215.54735,343.23658L215.54735,340.83632L214.82726,340.83632
				L214.82726,339.15614L214.3472,339.15614L214.3472,336.75589L214.82726,336.75589L214.82726,337.23594L215.54735,337.23594L215.54735,337.95601
				L216.02742,337.95601L216.02742,338.43606L216.74751,338.43606L216.74751,339.15614L217.22757,339.15614L217.22757,339.63619
				L218.42772,339.63619L218.42772,340.35627L218.90778,340.35627L218.90778,340.83632L219.62787,340.83632L219.62787,341.5564L
				220.10793,341.5564L220.10793,342.03645L220.82802,342.03645L220.82802,342.75652L222.02818,342.75652L222.02818,343.23658L222.50824,343.23658
				L222.50824,343.95665L223.22833,343.95665L223.22833,344.4367L223.70839,344.4367L223.70839,345.15678L224.42848,345.15678L224.42848,345.63683
				L225.62863,345.63683L225.62863,346.35691L226.10869,346.35691L226.10869,346.83696L226.82879,346.83696L226.82879,347.55704
				L227.30885,347.55704L227.30885,348.03709L228.02894,348.03709L228.02894,348.75716L229.22909,348.75716L229.22909,349.23722
				L229.70915,349.23722L229.70915,349.95729L230.42924,349.95729L230.42924,350.43734L230.9093,350.43734L230.9093,351.15742L232.10946,351.15742
				L232.10946,337.23594L232.82955,337.23594L232.82955,324.27456L233.30961,324.27456L233.30961,316.35371L234.0297,316.35371L
				234.0297,317.07379L235.22985,317.07379L235.22985,317.55384L236.43,317.55384L236.43,318.27392L236.91007,318.27392L236.91007,318.75397
				L237.63016,318.75397L237.63016,319.47404L238.11022,319.47404L238.11022,320.67417L238.83031,320.67417L238.83031,321.15422
				L239.31037,321.15422L239.31037,321.8743L240.51052,321.8743L240.51052,322.35435L241.23061,322.35435L241.23061,323.07443L242.43077,323.07443
				L242.43077,323.55448L242.91083,323.55448L242.91083,324.27456L243.63092,324.27456L243.63092,324.75461L244.59104,324.75461
				L244.59104,325.47468L245.31113,325.47468L245.31113,326.67481L245.79119,326.67481L245.79119,327.15486L246.99134,327.15486
				L246.99134,327.63491L247.71144,327.63491L247.71144,328.35499L248.1915,328.35499L248.1915,328.83504L249.39165,328.83504L249.39165,329.55512
				L250.11174,329.55512L250.11174,328.83504L250.5918,328.83504L250.5918,327.63491L251.31189,327.63491L251.31189,325.95473L251.79195,325.95473
				L251.79195,324.75461L252.51205,324.75461L252.51205,324.27456L251.79195,324.27456L251.79195,322.35435L251.31189,322.35435
				L251.31189,317.55384L250.5918,317.55384L250.5918,317.07379L250.11174,317.07379L250.11174,316.35371L249.39165,316.35371L249.39165,315.15358
				L248.91159,315.15358L248.91159,314.67353L248.1915,314.67353L248.1915,313.95346L247.71144,313.95346L247.71144,313.4734L246.99134,313.4734
				L246.99134,312.75333L246.51128,312.75333L246.51128,312.27328L245.79119,312.27328L245.79119,311.5532L245.31113,311.5532L245.31113,311.07315
				L244.11098,311.07315L244.11098,310.35307L243.63092,310.35307L243.63092,309.87302L242.91083,309.87302L242.91083,309.15294
				L242.43077,309.15294L242.43077,308.67289L241.71067,308.67289L241.71067,307.95282L241.23061,307.95282L241.23061,307.47277
				L240.51052,307.47277L240.51052,306.75269L235.22985,306.75269L235.22985,306.27264L235.70991,306.27264L235.70991,305.55256
				L236.91007,305.55256L236.91007,305.07251L236.43,305.07251L236.43,302.67225L236.91007,302.67225L236.91007,301.47213L238.83031,301.47213
				L238.83031,301.95218L241.71067,301.95218L241.71067,302.67225L244.59104,302.67225L244.59104,303.1523L247.71144,303.1523L247.71144,303.87238
				L250.11174,303.87238L250.11174,304.35243L252.99211,304.35243L252.99211,305.07251L256.1125,305.07251L256.1125,305.55256L258.99287,305.55256
				L258.99287,306.27264L261.39317,306.27264L261.39317,306.75269L262.11326,306.75269L262.11326,307.47277L263.31342,307.47277
				L263.31342,307.95282L263.79348,307.95282L263.79348,308.67289L264.99363,308.67289L264.99363,309.15294L265.71372,309.15294
				L265.71372,309.87302L266.91387,309.87302L266.91387,310.35307L267.39393,310.35307L267.39393,312.27328L266.91387,312.27328
				L266.91387,313.4734L266.19378,313.4734L266.19378,314.67353L265.71372,314.67353L265.71372,315.87366L264.99363,315.87366L264.99363,317.55384
				L264.51357,317.55384L264.51357,318.75397L263.79348,318.75397L263.79348,319.9541L263.31342,319.9541L263.31342,321.8743L263.79348,321.8743
				L263.79348,322.35435L264.99363,322.35435L264.99363,323.07443L266.19378,323.07443L266.19378,323.55448L268.11402,323.55448
				L268.11402,324.27456L269.31418,324.27456L269.31418,324.75461L270.2743,324.75461L270.2743,325.47468L271.47445,325.47468L271.47445,325.95473
				L272.6746,325.95473L272.6746,326.67481L273.87476,326.67481L273.87476,327.15486L275.07491,327.15486L275.07491,327.63491L276.27506,327.63491
				L276.27506,326.67481L276.99515,326.67481L276.99515,325.95473L277.47521,325.95473L277.47521,324.75461L278.1953,324.75461L
				278.1953,324.27456L278.67537,324.27456L278.67537,323.55448L279.39546,323.55448L279.39546,323.07443L280.59561,323.07443L280.59561,322.35435
				L281.79576,322.35435L281.79576,321.8743L282.27582,321.8743L282.27582,321.15422L283.47597,321.15422L283.47597,320.67417L284.67613,320.67417
				L284.67613,319.9541L285.39622,319.9541L285.39622,319.47404L286.59637,319.47404L286.59637,318.75397L287.07643,318.75397L287.07643,318.27392
				L287.79652,318.27392L287.79652,319.47404L288.27658,319.47404L288.27658,320.67417L288.99668,320.67417L288.99668,321.15422
				L289.47674,321.15422L289.47674,322.35435L290.19683,322.35435L290.19683,323.55448L290.67689,323.55448L290.67689,324.27456
				L291.39698,324.27456L291.39698,325.47468L291.87704,325.47468L291.87704,326.67481L292.59713,326.67481L292.59713,327.63491
				L293.07719,327.63491L293.07719,328.35499L293.79728,328.35499L293.79728,329.55512L294.27735,329.55512L294.27735,330.75525
				L294.75741,330.75525L294.75741,331.2353L295.4775,331.2353L295.4775,332.43543L295.95756,332.43543L295.95756,333.63555L296.67765,333.63555
				L296.67765,334.35563L297.15771,334.35563L297.15771,335.55576L297.8778,335.55576L297.8778,336.75589L298.35786,336.75589L298.35786,337.95601
				L299.07795,337.95601L299.07795,338.43606L299.55802,338.43606L299.55802,339.63619L300.27811,339.63619L300.27811,340.35627
				L299.55802,340.35627L299.55802,340.83632L299.07795,340.83632L299.07795,343.23658L299.55802,343.23658L299.55802,344.4367L
				300.27811,344.4367L300.27811,346.35691L300.75817,346.35691L300.75817,347.55704L301.47826,347.55704L301.47826,349.23722L301.95832,349.23722
				L301.95832,349.95729L301.47826,349.95729L301.47826,350.43734L300.27811,350.43734L300.27811,351.15742L299.07795,351.15742
				L299.07795,351.63747L297.8778,351.63747L297.8778,352.35755L296.67765,352.35755L296.67765,352.8376L295.4775,352.8376L295.4775,353.31765
				L294.27735,353.31765L294.27735,354.03773L293.07719,354.03773L293.07719,355.23785L293.79728,355.23785L293.79728,356.91803
				L294.27735,356.91803L294.27735,358.11816L294.75741,358.11816L294.75741,359.31829L295.4775,359.31829L295.4775,360.51842L295.95756,360.51842
				L295.95756,361.71855L296.67765,361.71855L296.67765,362.91867L297.15771,362.91867L297.15771,364.1188L297.8778,364.1188L297.8778,365.31893
				L298.35786,365.31893L298.35786,366.51906L299.07795,366.51906L299.07795,367.71918L299.55802,367.71918L299.55802,368.91931
				L300.27811,368.91931L300.27811,370.83952L300.75817,370.83952L300.75817,372.03965L301.47826,372.03965L301.47826,373.23977
				L301.95832,373.23977L301.95832,373.71982L302.67841,373.71982L302.67841,374.4399L303.15847,374.4399L303.15847,374.91995L303.87856,374.91995
				L303.87856,375.64003L304.35862,375.64003L304.35862,376.12008L305.07872,376.12008L305.07872,376.84016L306.27887,376.84016
				L306.27887,377.32021L313.47978,377.32021L313.47978,376.84016L315.88009,376.84016L315.88009,376.12008L318.28039,376.12008
				"/>
			<path clip-path="url(#SVG_CP_2)" fill="none" stroke="#999999" stroke-width="0.96012" stroke-miterlimit="10" stroke-linecap="round" stroke-linejoin="round" d="
				M272.6746,462.04924L273.3947,462.04924L273.3947,461.56919L273.87476,461.56919L273.87476,460.84911L274.59485,460.84911L274.59485,460.36906
				L275.07491,460.36906L275.07491,459.64898L275.795,459.64898L275.795,459.16893L276.27506,459.16893L276.27506,458.44885L276.99515,458.44885
				L276.99515,457.9688L277.47521,457.9688L277.47521,457.24873L278.1953,457.24873L278.1953,456.76867L278.67537,456.76867L278.67537,456.0486
				L279.39546,456.0486L279.39546,455.56855L279.87552,455.56855L279.87552,454.84847L280.59561,454.84847L280.59561,454.36842L
				281.07567,454.36842L281.07567,453.64834L281.79576,453.64834L281.79576,453.16829L282.27582,453.16829L282.27582,452.68824L
				282.99591,452.68824L282.99591,451.96816L283.47597,451.96816L283.47597,451.48811L284.19607,451.48811L284.19607,450.76803L
				284.67613,450.76803L284.67613,450.28798L285.39622,450.28798L285.39622,449.56791L285.87628,449.56791L285.87628,449.08786L
				286.59637,449.08786L286.59637,448.36778L287.07643,448.36778L287.07643,447.88773L287.79652,447.88773L287.79652,447.16765L
				288.27658,447.16765L288.27658,446.6876L288.99668,446.6876L288.99668,445.96752L289.47674,445.96752L289.47674,444.7674L290.19683,444.7674
				L290.19683,444.28734L290.67689,444.28734L290.67689,443.56727L291.39698,443.56727L291.39698,443.08722L291.87704,443.08722
				L291.87704,441.88709L292.59713,441.88709L292.59713,441.16701L293.07719,441.16701L293.07719,440.68696L293.79728,440.68696
				L293.79728,439.96688L294.27735,439.96688L294.27735,438.76676L294.75741,438.76676L294.75741,438.2867L295.4775,438.2867L295.4775,437.56663
				L295.95756,437.56663L295.95756,436.3665L296.67765,436.3665L296.67765,435.88645L297.15771,435.88645L297.15771,435.16637L297.8778,435.16637
				L297.8778,434.68632L298.35786,434.68632L298.35786,433.48619L299.07795,433.48619L299.07795,432.76612L299.55802,432.76612L
				299.55802,432.28607L300.27811,432.28607L300.27811,431.56599L300.75817,431.56599L300.75817,430.36586L301.47826,430.36586L
				301.47826,429.88581L301.95832,429.88581L301.95832,429.16573L302.67841,429.16573L302.67841,428.20563L303.15847,428.20563L
				303.15847,427.48555L303.87856,427.48555L303.87856,427.0055L304.35862,427.0055L304.35862,425.80537L305.07872,425.80537L305.07872,425.0853
				L305.55878,425.0853L305.55878,424.60525L306.27887,424.60525L306.27887,423.40512L306.75893,423.40512L306.75893,422.68504L
				307.47902,422.68504L307.47902,422.20499L307.95908,422.20499L307.95908,421.00486L308.67917,421.00486L308.67917,420.28479L
				309.15923,420.28479L309.15923,419.80474L309.87933,419.80474L309.87933,418.60461L310.35939,418.60461L310.35939,417.88453L
				311.07948,417.88453L311.07948,416.6844L311.55954,416.6844L311.55954,416.20435L312.27963,416.20435L312.27963,415.48427L312.75969,415.48427
				L312.75969,414.28415L313.47978,414.28415L313.47978,413.8041L313.95984,413.8041L313.95984,412.60397L314.67993,412.60397L314.67993,411.88389
				L315.16,411.88389L315.16,411.40384L315.88009,411.40384L315.88009,410.20371L316.36015,410.20371L316.36015,409.00358L317.08024,409.00358
				L317.08024,408.28351L317.5603,408.28351L317.5603,407.80346L318.28039,407.80346L318.28039,406.60333L318.76045,406.60333L318.76045,405.88325
				L319.48054,405.88325L319.48054,404.68312L319.9606,404.68312L319.9606,404.20307L320.44067,404.20307L320.44067,403.00294L321.16076,403.00294
				L321.16076,402.52289L321.64082,402.52289L321.64082,401.32277L322.36091,401.32277L322.36091,400.60269L322.84097,400.60269
				L322.84097,400.12264L323.56106,400.12264L323.56106,398.92251L324.04112,398.92251L324.04112,397.72238L324.76121,397.72238
				L324.76121,396.52225L325.24127,396.52225L325.24127,382.60077L324.76121,382.60077L324.76121,382.12072L324.04112,382.12072
				L324.04112,381.40064L323.56106,381.40064L323.56106,380.92059L322.84097,380.92059L322.84097,380.20051L322.36091,380.20051
				L322.36091,379.72046L321.64082,379.72046L321.64082,379.00039L321.16076,379.00039L321.16076,378.52034L320.44067,378.52034
				L320.44067,377.80026L319.9606,377.80026L319.9606,377.32021L319.48054,377.32021L319.48054,376.84016L318.76045,376.84016L318.76045,376.12008
				L318.28039,376.12008L318.28039,375.64003L317.5603,375.64003L317.5603,374.91995L317.08024,374.91995L317.08024,373.71982L316.36015,373.71982
				L316.36015,373.23977L315.88009,373.23977L315.88009,372.03965L315.16,372.03965L315.16,371.31957L314.67993,371.31957L314.67993,370.11944
				L313.95984,370.11944L313.95984,369.63939L313.47978,369.63939L313.47978,368.91931L312.75969,368.91931L312.75969,367.71918
				L312.27963,367.71918L312.27963,367.23913L311.55954,367.23913L311.55954,366.03901L311.07948,366.03901L311.07948,365.31893
				L310.35939,365.31893L310.35939,364.1188L309.87933,364.1188L309.87933,363.63875L309.15923,363.63875L309.15923,362.43862L308.67917,362.43862
				L308.67917,361.71855L309.15923,361.71855L309.15923,361.23849L309.87933,361.23849L309.87933,360.03837L310.35939,360.03837
				L310.35939,359.31829L311.07948,359.31829L311.07948,358.11816L311.55954,358.11816L311.55954,357.63811L312.27963,357.63811
				L312.27963,356.91803L312.75969,356.91803L312.75969,355.71791L313.47978,355.71791L313.47978,355.23785L313.95984,355.23785
				L313.95984,354.03773L314.67993,354.03773L314.67993,353.31765L315.16,353.31765L315.16,352.35755L315.88009,352.35755L315.88009,351.63747
				L316.36015,351.63747L316.36015,350.43734L317.08024,350.43734L317.08024,349.95729L317.5603,349.95729L317.5603,348.75716L318.28039,348.75716
				L318.28039,348.03709L318.76045,348.03709L318.76045,347.55704L319.48054,347.55704L319.48054,346.35691L319.9606,346.35691L
				319.9606,345.63683L320.44067,345.63683L320.44067,345.15678L319.9606,345.15678L319.9606,344.4367L319.48054,344.4367L319.48054,343.95665
				L318.76045,343.95665L318.76045,343.23658L318.28039,343.23658L318.28039,342.75652L317.5603,342.75652L317.5603,342.03645L316.36015,342.03645
				L316.36015,341.5564L315.88009,341.5564L315.88009,340.83632L315.16,340.83632L315.16,340.35627L314.67993,340.35627L314.67993,339.63619
				L313.95984,339.63619L313.95984,339.15614L313.47978,339.15614L313.47978,338.43606L312.75969,338.43606L312.75969,337.95601
				L312.27963,337.95601L312.27963,337.23594L311.55954,337.23594L311.55954,336.75589L310.35939,336.75589L310.35939,336.03581
				L309.87933,336.03581L309.87933,335.55576L309.15923,335.55576L309.15923,334.35563L309.87933,334.35563L309.87933,333.63555
				L310.35939,333.63555L310.35939,333.1555L311.07948,333.1555L311.07948,331.95537L311.55954,331.95537L311.55954,331.2353L312.27963,331.2353
				L312.27963,330.75525L312.75969,330.75525L312.75969,330.03517L313.47978,330.03517L313.47978,329.55512L313.95984,329.55512
				L313.95984,328.35499L314.67993,328.35499L314.67993,327.63491L315.16,327.63491L315.16,327.15486L315.88009,327.15486L315.88009,326.67481
				L316.36015,326.67481L316.36015,325.47468L317.08024,325.47468L317.08024,324.75461L317.5603,324.75461L317.5603,324.27456L318.28039,324.27456
				L318.28039,322.35435L317.5603,322.35435L317.5603,321.8743L317.08024,321.8743L317.08024,321.15422L316.36015,321.15422L316.36015,320.67417
				L315.88009,320.67417L315.88009,319.9541L315.16,319.9541L315.16,318.75397L314.67993,318.75397L314.67993,318.27392L313.95984,318.27392
				L313.95984,317.55384L313.47978,317.55384L313.47978,317.07379L312.75969,317.07379L312.75969,316.35371L312.27963,316.35371
				L312.27963,315.15358L311.55954,315.15358L311.55954,314.67353L311.07948,314.67353L311.07948,313.95346L310.35939,313.95346
				L310.35939,313.4734L309.87933,313.4734L309.87933,312.75333L309.15923,312.75333L309.15923,312.27328L308.67917,312.27328L308.67917,311.5532
				L309.15923,311.5532L309.15923,311.07315L309.87933,311.07315L309.87933,310.35307L310.35939,310.35307L310.35939,309.87302L
				311.07948,309.87302L311.07948,309.15294L311.55954,309.15294L311.55954,308.67289L312.27963,308.67289L312.27963,307.95282L
				312.75969,307.95282L312.75969,307.47277L313.47978,307.47277L313.47978,306.75269L313.95984,306.75269L313.95984,306.27264L
				314.67993,306.27264L314.67993,305.55256L315.16,305.55256L315.16,305.07251L315.88009,305.07251L315.88009,304.35243L316.36015,304.35243
				L316.36015,303.87238L317.08024,303.87238L317.08024,303.1523L317.5603,303.1523L317.5603,302.67225L318.28039,302.67225L318.28039,301.95218
				L318.76045,301.95218L318.76045,300.99207L319.48054,300.99207L319.48054,300.272L319.9606,300.272L319.9606,299.07187L320.44067,299.07187
				L320.44067,297.87174L321.16076,297.87174L321.16076,296.67161L321.64082,296.67161L321.64082,295.47149L322.36091,295.47149
				L322.36091,294.27136L322.84097,294.27136L322.84097,293.07123L323.56106,293.07123L323.56106,292.59118L324.04112,292.59118
				L324.04112,291.39105L324.76121,291.39105L324.76121,290.19092L325.24127,290.19092L325.24127,288.9908L325.96137,288.9908L325.96137,287.79067
				L326.44143,287.79067L326.44143,286.59054L327.16152,286.59054L327.16152,285.39041L327.64158,285.39041L327.64158,284.67034
				L328.84173,284.67034L328.84173,285.39041L329.56182,285.39041L329.56182,285.87046L330.04188,285.87046L330.04188,286.59054
				L330.76198,286.59054L330.76198,287.07059L331.96213,287.07059L331.96213,287.79067L332.44219,287.79067L332.44219,288.27072
				L333.16228,288.27072L333.16228,288.9908L333.64234,288.9908L333.64234,289.47085L334.84249,289.47085L334.84249,290.19092L335.56258,290.19092
				L335.56258,290.67097L336.04265,290.67097L336.04265,291.39105L336.76274,291.39105L336.76274,291.8711L337.96289,291.8711L337.96289,291.39105
				L338.44295,291.39105L338.44295,289.47085L339.16304,289.47085L339.16304,288.9908L340.84325,288.9908L340.84325,289.47085L343.24356,289.47085
				L343.24356,290.19092L345.1638,290.19092L345.1638,290.67097L347.32408,290.67097L347.32408,291.39105L360.52575,291.39105L360.52575,291.8711
				L360.04569,291.8711L360.04569,293.07123L360.52575,293.07123L360.52575,295.47149L360.04569,295.47149L360.04569,297.39169L
				359.3256,297.39169L359.3256,299.07187L360.04569,299.07187L360.04569,299.79195L360.52575,299.79195L360.52575,300.272L361.7259,300.272
				L361.7259,300.99207L362.446,300.99207L362.446,301.47213L363.64615,301.47213L363.64615,301.95218L364.12621,301.95218L364.12621,302.67225
				L365.32636,302.67225L365.32636,303.1523L366.04645,303.1523L366.04645,303.87238L367.24661,303.87238L367.24661,304.35243L367.72667,304.35243
				L367.72667,305.07251L368.92682,305.07251L368.92682,305.55256L369.64691,305.55256L369.64691,306.27264L370.12697,306.27264
				L370.12697,306.75269L371.32712,306.75269L371.32712,307.47277L371.80718,307.47277L371.80718,307.95282L373.00734,307.95282
				L373.00734,308.67289L373.72743,308.67289L373.72743,309.15294L374.92758,309.15294L374.92758,309.87302L375.40764,309.87302
				L375.40764,310.35307L376.60779,310.35307L376.60779,311.07315L377.32788,311.07315L377.32788,311.5532L378.52804,311.5532L378.52804,312.27328
				L379.0081,312.27328L379.0081,312.75333L380.20825,312.75333L380.20825,313.4734L380.92834,313.4734L380.92834,313.95346L381.4084,313.95346
				L381.4084,314.67353L382.60855,314.67353L382.60855,315.15358L383.32865,315.15358L383.32865,315.87366L384.5288,315.87366L384.5288,316.35371
				L385.00886,316.35371L385.00886,317.07379L386.20901,317.07379L386.20901,317.55384L386.9291,317.55384L386.9291,318.27392L388.12926,318.27392
				L388.12926,318.75397L388.60932,318.75397L388.60932,319.47404L389.80947,319.47404L389.80947,319.9541L390.52956,319.9541L390.52956,320.67417
				L391.00962,320.67417L391.00962,321.15422L392.20977,321.15422L392.20977,321.8743L391.00962,321.8743L391.00962,322.35435L389.80947,322.35435
				L389.80947,323.07443L388.12926,323.07443L388.12926,323.55448L386.9291,323.55448L386.9291,324.27456L385.72895,324.27456L385.72895,324.75461
				L384.5288,324.75461L384.5288,325.47468L385.00886,325.47468L385.00886,326.67481L385.72895,326.67481L385.72895,327.63491L386.20901,327.63491
				L386.20901,328.83504L386.9291,328.83504L386.9291,329.55512L387.40916,329.55512L387.40916,330.75525L388.12926,330.75525L388.12926,331.95537
				L388.60932,331.95537L388.60932,333.1555L389.32941,333.1555L389.32941,334.35563L389.80947,334.35563L389.80947,335.55576L390.52956,335.55576
				L390.52956,336.75589L391.00962,336.75589L391.00962,337.95601L390.52956,337.95601L390.52956,338.43606L389.32941,338.43606
				L389.32941,339.15614L388.12926,339.15614L388.12926,339.63619L386.9291,339.63619L386.9291,340.35627L385.72895,340.35627L385.72895,340.83632
				L384.5288,340.83632L384.5288,341.5564L383.32865,341.5564L383.32865,342.03645L382.12849,342.03645L382.12849,342.75652L380.20825,342.75652
				L380.20825,343.23658L379.0081,343.23658L379.0081,343.95665L377.80795,343.95665L377.80795,344.4367L376.60779,344.4367L376.60779,345.15678
				L375.40764,345.15678L375.40764,345.63683L374.20749,345.63683L374.20749,346.35691L373.00734,346.35691L373.00734,346.83696
				L371.80718,346.83696L371.80718,347.55704L370.60703,347.55704L370.60703,348.03709L368.92682,348.03709L368.92682,348.75716
				L367.72667,348.75716L367.72667,349.23722L366.52651,349.23722L366.52651,349.95729L365.32636,349.95729L365.32636,350.43734
				L364.12621,350.43734L364.12621,351.15742L362.446,351.15742L362.446,351.63747L361.24584,351.63747L361.24584,352.35755L360.04569,352.35755
				L360.04569,352.8376L360.52575,352.8376L360.52575,354.03773L361.24584,354.03773L361.24584,355.23785L361.7259,355.23785L361.7259,356.43798
				L362.446,356.43798L362.446,356.91803L362.92606,356.91803L362.92606,358.11816L363.64615,358.11816L363.64615,359.31829L364.12621,359.31829
				L364.12621,360.51842L364.8463,360.51842L364.8463,361.71855L365.32636,361.71855L365.32636,362.91867L366.04645,362.91867L366.04645,364.1188
				L366.52651,364.1188L366.52651,364.83888L367.24661,364.83888L367.24661,366.03901L367.72667,366.03901L367.72667,367.23913L
				368.44676,367.23913L368.44676,368.43926L368.92682,368.43926L368.92682,369.63939L369.64691,369.63939L369.64691,370.83952L
				370.12697,370.83952L370.12697,372.03965L370.60703,372.03965L370.60703,372.5197L371.32712,372.5197L371.32712,374.4399L371.80718,374.4399
				L371.80718,375.64003L372.52728,375.64003L372.52728,377.32021L373.00734,377.32021L373.00734,378.52034L373.72743,378.52034
				L373.72743,380.20051L374.20749,380.20051L374.20749,381.40064L374.92758,381.40064L374.92758,383.32085L375.40764,383.32085
				L375.40764,384.52098L376.12773,384.52098L376.12773,386.20115L376.60779,386.20115L376.60779,387.40128L377.32788,387.40128
				L377.32788,389.32149L377.80795,389.32149L377.80795,390.52161L378.52804,390.52161L378.52804,392.20179L379.0081,392.20179L
				379.0081,393.40192L379.72819,393.40192L379.72819,395.32213L380.20825,395.32213L380.20825,395.80218L380.92834,395.80218L380.92834,395.32213
				L383.32865,395.32213L383.32865,394.60205L383.80871,394.60205L383.80871,394.122L385.00886,394.122L385.00886,393.40192L385.72895,393.40192
				L385.72895,392.92187L386.9291,392.92187L386.9291,392.20179L387.40916,392.20179L387.40916,391.72174L388.60932,391.72174L388.60932,391.00167
				L389.32941,391.00167L389.32941,390.52161L390.52956,390.52161L390.52956,389.80154L391.00962,389.80154L391.00962,389.32149
				L392.20977,389.32149L392.20977,388.60141L392.92986,388.60141L392.92986,388.12136L394.13002,388.12136L394.13002,387.40128
				L394.61008,387.40128L394.61008,386.92123L395.81023,386.92123L395.81023,386.20115L397.01038,386.20115L397.01038,385.7211L
				397.49044,385.7211L397.49044,385.00103L398.6906,385.00103L398.6906,384.52098L400.61084,384.52098L400.61084,385.00103L402.29105,385.00103
				L402.29105,385.7211L404.2113,385.7211L404.2113,386.20115L405.41145,386.20115L405.41145,386.92123L405.89151,386.92123L405.89151,387.40128
				L406.6116,387.40128L406.6116,388.12136L407.09166,388.12136L407.09166,388.60141L407.81175,388.60141L407.81175,389.32149L409.01191,389.32149
				L409.01191,389.80154L409.49197,389.80154L409.49197,390.52161L410.21206,390.52161L410.21206,391.00167L410.69212,391.00167
				L410.69212,391.72174L411.41221,391.72174L411.41221,392.20179L411.89227,392.20179L411.89227,392.92187L412.61236,392.92187
				L412.61236,394.122L413.09242,394.122L413.09242,394.60205L413.81251,394.60205L413.81251,395.32213L414.29258,395.32213L414.29258,396.52225
				L415.01267,396.52225L415.01267,397.00231L415.49273,397.00231L415.49273,398.20243L416.21282,398.20243L416.21282,398.92251
				L416.69288,398.92251L416.69288,399.40256L417.41297,399.40256L417.41297,400.60269L417.89303,400.60269L417.89303,401.80282
				L418.61312,401.80282L418.61312,403.00294L419.09318,403.00294L419.09318,403.483L419.81328,403.483L419.81328,404.68312L420.29334,404.68312
				L420.29334,405.88325L421.01343,405.88325L421.01343,407.08338L421.49349,407.08338L421.49349,407.80346L421.97355,407.80346
				L421.97355,409.00358L422.69364,409.00358L422.69364,410.20371L423.1737,410.20371L423.1737,411.88389L421.97355,411.88389L421.97355,412.60397
				L421.01343,412.60397L421.01343,413.08402L419.81328,413.08402L419.81328,413.8041L419.09318,413.8041L419.09318,414.28415L417.89303,414.28415
				L417.89303,415.00422L416.69288,415.00422L416.69288,415.48427L415.49273,415.48427L415.49273,416.20435L414.29258,416.20435
				L414.29258,416.6844L413.81251,416.6844L413.81251,417.40448L412.61236,417.40448L412.61236,417.88453L411.41221,417.88453L411.41221,418.60461
				L410.69212,418.60461L410.69212,419.80474L411.41221,419.80474L411.41221,421.00486L411.89227,421.00486L411.89227,422.20499
				L412.61236,422.20499L412.61236,423.88517L413.09242,423.88517L413.09242,425.0853L413.81251,425.0853L413.81251,426.28543L414.29258,426.28543
				L414.29258,428.20563L415.01267,428.20563L415.01267,429.16573L415.49273,429.16573L415.49273,430.36586L416.21282,430.36586
				L416.21282,431.56599L416.69288,431.56599L416.69288,432.28607L417.41297,432.28607L417.41297,433.48619L417.89303,433.48619
				L417.89303,433.96624L418.61312,433.96624L418.61312,435.16637L419.09318,435.16637L419.09318,435.88645L419.81328,435.88645
				L419.81328,437.08658L420.29334,437.08658L420.29334,437.56663L421.01343,437.56663L421.01343,438.76676L421.49349,438.76676
				L421.49349,439.48683L421.97355,439.48683L421.97355,439.96688L422.69364,439.96688L422.69364,441.16701L423.1737,441.16701L
				423.1737,441.88709L423.89379,441.88709L423.89379,443.08722L424.37385,443.08722L424.37385,443.56727L425.09395,443.56727L425.09395,444.7674
				L425.57401,444.7674L425.57401,445.48747L426.2941,445.48747L426.2941,446.6876L426.77416,446.6876L426.77416,447.16765L427.49425,447.16765
				L427.49425,447.88773L428.6944,447.88773L428.6944,448.36778L432.77492,448.36778L432.77492,449.08786L437.09547,449.08786L437.09547,449.56791
				L441.17599,449.56791L441.17599,450.28798L445.49654,450.28798L445.49654,450.76803L449.57705,450.76803L449.57705,451.48811
				L453.65757,451.48811L453.65757,451.96816L457.97812,451.96816L457.97812,452.68824L461.57858,452.68824L461.57858,453.16829
				L472.13992,453.16829L472.13992,452.68824L480.06092,452.68824L480.06092,453.16829L479.34083,453.16829L479.34083,453.64834
				L478.14068,453.64834L478.14068,454.36842L476.94053,454.36842L476.94053,454.84847L476.46046,454.84847L476.46046,455.56855
				L475.26031,455.56855L475.26031,456.0486L472.86001,456.0486L472.86001,456.76867L471.17979,456.76867L471.17979,457.24873L469.97964,457.24873
				L469.97964,457.9688L468.0594,457.9688L468.0594,458.44885L466.85925,458.44885L466.85925,459.16893L465.65909,459.16893L465.65909,459.64898
				L464.45894,459.64898L464.45894,460.36906L463.25879,460.36906L463.25879,460.84911L462.05864,460.84911L462.05864,461.56919
				L460.85848,461.56919L460.85848,462.04924L460.37842,462.04924L460.37842,463.24936L459.65833,463.24936L459.65833,464.44949
				L459.17827,464.44949L459.17827,465.64962L458.45818,465.64962L458.45818,467.56983L457.97812,467.56983L457.97812,469.25L457.25803,469.25
				L457.25803,469.97008L456.77797,469.97008L456.77797,470.45013L456.05788,470.45013L456.05788,471.65026L455.57781,471.65026
				L455.57781,472.85039L454.85772,472.85039L454.85772,474.77059L454.37766,474.77059L454.37766,475.97072L453.65757,475.97072
				L453.65757,477.17085L453.17751,477.17085L453.17751,478.85103L452.45742,478.85103L452.45742,480.05116L451.97736,480.05116
				L451.97736,481.73133L451.25727,481.73133L451.25727,482.45141L450.77721,482.45141L450.77721,483.65154L450.05711,483.65154
				L450.05711,484.13159L449.57705,484.13159L449.57705,484.85167L448.3769,484.85167L448.3769,485.33172L447.65681,485.33172L447.65681,486.05179
				L447.17675,486.05179L447.17675,486.53185L446.45666,486.53185L446.45666,487.73197L445.9766,487.73197L445.9766,488.45205L445.49654,488.45205
				L445.49654,489.65218L444.29638,489.65218L444.29638,490.13223L443.57629,490.13223L443.57629,490.85231L443.09623,490.85231
				L443.09623,491.33236L442.37614,491.33236L442.37614,492.05243L441.89608,492.05243L441.89608,493.25256L440.69593,493.25256
				L440.69593,493.73261L439.97583,493.73261L439.97583,494.45269L439.49577,494.45269L439.49577,494.93274L438.77568,494.93274
				L438.77568,496.13287L438.29562,496.13287L438.29562,496.85295L437.57553,496.85295L437.57553,497.333L437.09547,497.333L437.09547,498.05307
				L436.37538,498.05307L436.37538,498.53312L435.17523,498.53312L435.17523,499.2532L434.69516,499.2532"/>
			<path clip-path="url(#SVG_CP_2)" fill="none" stroke="#999999" stroke-width="0.96012" stroke-miterlimit="10" stroke-linecap="round" stroke-linejoin="round" d="
				M434.69516,499.2532L434.69516,499.73325L433.97507,499.73325L433.97507,500.45333L433.49501,500.45333L433.49501,500.93338L
				432.77492,500.93338L432.77492,501.65346L431.57477,501.65346L431.57477,502.13351L431.09471,502.13351L431.09471,502.85359L
				430.37462,502.85359L430.37462,503.33364L429.89456,503.33364L429.89456,504.05371L428.6944,504.05371L428.6944,504.53376L427.97431,504.53376
				L427.97431,505.01382L427.49425,505.01382L427.49425,505.73389L426.2941,505.73389L426.2941,506.21394L424.37385,506.21394L424.37385,506.93402
				L423.1737,506.93402L423.1737,507.41407L421.97355,507.41407L421.97355,508.13415L421.01343,508.13415L421.01343,508.6142L419.09318,508.6142
				L419.09318,509.33428L417.89303,509.33428L417.89303,509.81433L416.21282,509.81433L416.21282,510.5344L415.01267,510.5344L415.01267,511.01445
				L413.81251,511.01445L413.81251,511.73453L412.61236,511.73453L412.61236,512.21458L411.41221,512.21458L411.41221,512.93466
				L410.21206,512.93466L410.21206,513.41471L408.29181,513.41471L408.29181,514.13479L406.6116,514.13479L406.6116,514.61484L405.41145,514.61484
				L405.41145,515.33492L403.4912,515.33492L403.4912,515.81497L401.81099,515.81497L401.81099,516.53504L399.89075,516.53504L399.89075,517.01509
				L398.6906,517.01509L398.6906,517.73517L397.01038,517.73517L397.01038,518.21522L396.29029,518.21522L396.29029,518.9353L395.81023,518.9353
				L395.81023,519.41535L394.61008,519.41535L394.61008,520.13543L394.13002,520.13543L394.13002,520.61548L392.20977,520.61548
				L392.20977,521.33555L391.00962,521.33555L391.00962,521.81561L389.32941,521.81561L389.32941,522.53568L388.60932,522.53568
				L388.60932,523.01573L387.40916,523.01573L387.40916,523.73581L385.72895,523.73581L385.72895,524.21586L384.5288,524.21586L
				384.5288,524.93594L383.32865,524.93594L383.32865,525.41599L382.60855,525.41599L382.60855,526.13607L381.4084,526.13607L381.4084,526.61612
				L380.20825,526.61612L380.20825,527.33619L379.0081,527.33619L379.0081,527.81625L377.32788,527.81625L377.32788,528.53632L375.40764,528.53632
				L375.40764,529.01637L374.20749,529.01637L374.20749,529.49642L373.72743,529.49642L373.72743,530.2165L372.52728,530.2165L372.52728,530.69655
				L371.32712,530.69655L371.32712,531.41663L370.60703,531.41663L370.60703,531.89668L370.12697,531.89668L370.12697,532.61676
				L369.64691,532.61676L369.64691,533.09681L368.92682,533.09681L368.92682,533.81688L368.44676,533.81688L368.44676,534.29694
				L367.72667,534.29694L367.72667,535.01701L367.24661,535.01701L367.24661,535.49706L366.04645,535.49706L366.04645,536.21714
				L365.32636,536.21714L365.32636,536.69719L364.8463,536.69719L364.8463,537.41727L363.64615,537.41727L363.64615,537.89732L362.92606,537.89732
				L362.92606,538.6174L361.7259,538.6174L361.7259,539.09745L360.52575,539.09745L360.52575,539.81752L358.84554,539.81752L358.84554,540.29758
				L357.64539,540.29758L357.64539,541.01765L356.9253,541.01765L356.9253,541.4977L356.44523,541.4977L356.44523,542.69783L355.72514,542.69783
				L355.72514,544.61804L355.24508,544.61804L355.24508,545.09809L354.04493,545.09809L354.04493,545.81816L353.32484,545.81816
				L353.32484,546.29821L352.84478,546.29821L352.84478,547.49834L352.12469,547.49834L352.12469,548.69847L351.64463,548.69847
				L351.64463,549.8986L350.92453,549.8986L350.92453,551.8188L350.44447,551.8188L350.44447,552.29885L349.72438,552.29885L349.72438,553.49898
				L349.24432,553.49898L349.24432,554.21906L348.04417,554.21906L348.04417,554.69911L347.32408,554.69911L347.32408,555.17916
				L346.84402,555.17916L346.84402,555.89924L346.12392,555.89924L346.12392,557.09937L345.64386,557.09937L345.64386,557.57942
				L345.1638,557.57942L345.1638,558.29949L344.44371,558.29949L344.44371,558.77954L343.96365,558.77954L343.96365,559.97967L343.24356,559.97967
				L343.24356,560.69975L342.7635,560.69975L342.7635,561.1798L342.04341,561.1798L342.04341,561.89988L341.56335,561.89988L341.56335,562.37993
				L340.84325,562.37993L340.84325,563.1L340.36319,563.1L340.36319,564.30013L339.6431,564.30013L339.6431,564.78018L339.16304,564.78018
				L339.16304,565.50026L338.44295,565.50026L338.44295,565.98031L337.96289,565.98031L337.96289,566.70039L337.2428,566.70039L
				337.2428,567.18044L336.76274,567.18044L336.76274,567.90052L336.04265,567.90052L336.04265,568.38057L335.56258,568.38057L335.56258,569.5807
				L334.84249,569.5807L334.84249,570.30077L334.36243,570.30077L334.36243,570.78082L333.64234,570.78082L333.64234,571.5009L333.16228,571.5009
				L333.16228,571.98095L332.44219,571.98095L332.44219,572.70103L331.96213,572.70103L331.96213,574.38121L331.24204,574.38121
				L331.24204,575.58133L330.76198,575.58133L330.76198,576.30141L330.04188,576.30141L330.04188,577.50154L329.56182,577.50154
				L329.56182,578.70167L328.84173,578.70167L328.84173,579.9018L328.36167,579.9018L328.36167,580.8619L327.64158,580.8619L327.64158,582.06203
				L327.16152,582.06203L327.16152,583.26215L326.44143,583.26215L326.44143,585.66241L325.96137,585.66241L325.96137,589.26279
				L326.44143,589.26279L326.44143,589.98287L327.16152,589.98287L327.16152,590.46292L327.64158,590.46292L327.64158,592.38313
				L328.36167,592.38313L328.36167,593.58325L328.84173,593.58325L328.84173,595.26343L329.56182,595.26343L329.56182,600.78402
				L330.04188,600.78402L330.04188,603.66433L330.76198,603.66433L330.76198,608.94489L330.04188,608.94489L330.04188,610.86509
				L329.56182,610.86509L329.56182,612.06522L328.84173,612.06522L328.84173,613.26535L328.36167,613.26535L328.36167,613.7454L
				327.64158,613.7454L327.64158,614.46548L327.16152,614.46548L327.16152,614.94553L326.44143,614.94553L326.44143,616.14566L325.96137,616.14566
				L325.96137,617.34579L325.24127,617.34579L325.24127,618.06586L324.76121,618.06586L324.76121,618.54591L324.04112,618.54591
				L324.04112,619.26599L323.56106,619.26599L323.56106,619.74604L322.84097,619.74604L322.84097,620.46612L322.36091,620.46612
				L322.36091,621.66625L321.64082,621.66625L321.64082,622.1463L321.16076,622.1463L321.16076,622.86637L320.44067,622.86637L320.44067,623.34642
				L319.9606,623.34642L319.9606,624.54655L319.48054,624.54655L319.48054,625.26663L318.76045,625.26663L318.76045,625.74668L318.28039,625.74668
				L318.28039,626.46676L317.5603,626.46676L317.5603,626.94681L317.08024,626.94681L317.08024,627.66689L316.36015,627.66689L316.36015,628.14694
				L315.88009,628.14694L315.88009,628.86701L315.16,628.86701L315.16,629.34706L314.67993,629.34706L314.67993,630.06714L313.95984,630.06714
				L313.95984,630.54719L313.47978,630.54719L313.47978,631.02724L312.75969,631.02724L312.75969,631.74732L311.55954,631.74732
				L311.55954,632.22737L311.07948,632.22737L311.07948,634.62763L311.55954,634.62763L311.55954,635.3477L312.27963,635.3477L312.27963,636.54783
				L312.75969,636.54783L312.75969,637.74796L313.47978,637.74796L313.47978,638.94809L313.95984,638.94809L313.95984,639.42814
				L314.67993,639.42814L314.67993,640.62827L315.16,640.62827L315.16,641.82839L315.88009,641.82839L315.88009,643.02852L316.36015,643.02852
				L316.36015,644.22865L317.08024,644.22865L317.08024,645.42878L317.5603,645.42878L317.5603,646.62891L318.28039,646.62891L318.28039,648.54911
				L318.76045,648.54911L318.76045,649.74924L319.48054,649.74924L319.48054,651.42942L319.9606,651.42942L319.9606,652.62955L320.44067,652.62955
				L320.44067,656.22993L319.9606,656.22993L319.9606,657.91011L319.48054,657.91011L319.48054,659.11024L318.76045,659.11024L318.76045,659.83031
				L318.28039,659.83031L318.28039,660.31036L317.5603,660.31036L317.5603,661.03044L317.08024,661.03044L317.08024,661.51049L315.88009,661.51049
				L315.88009,662.23057L315.16,662.23057L315.16,662.71062L313.95984,662.71062L313.95984,663.4307L312.75969,663.4307L312.75969,663.91075
				L311.55954,663.91075L311.55954,664.63082L310.35939,664.63082L310.35939,665.11088L308.67917,665.11088L308.67917,665.83095
				L307.47902,665.83095L307.47902,666.311L306.75893,666.311L306.75893,667.03108L305.07872,667.03108L305.07872,667.51113L304.35862,667.51113
				L304.35862,668.23121L303.15847,668.23121L303.15847,668.71126L302.67841,668.71126L302.67841,669.43134L301.47826,669.43134
				L301.47826,669.91139L300.27811,669.91139L300.27811,670.63146L297.8778,670.63146L297.8778,671.11151L295.4775,671.11151L295.4775,671.83159
				L293.07719,671.83159L293.07719,672.31164L291.87704,672.31164L291.87704,673.03172L291.39698,673.03172L291.39698,673.51177
				L290.67689,673.51177L290.67689,674.23185L289.47674,674.23185L289.47674,674.7119L288.99668,674.7119L288.99668,675.43198L287.79652,675.43198
				L287.79652,675.91203L286.59637,675.91203L286.59637,676.6321L284.67613,676.6321L284.67613,677.11215L284.19607,677.11215L284.19607,677.83223
				L283.47597,677.83223L283.47597,678.31228L282.99591,678.31228L282.99591,679.03236L282.27582,679.03236L282.27582,679.51241
				L281.07567,679.51241L281.07567,680.23249L280.59561,680.23249L280.59561,680.71254L279.87552,680.71254L279.87552,681.19259
				L278.67537,681.19259L278.67537,681.91267L278.1953,681.91267L278.1953,682.39272L276.99515,682.39272L276.99515,683.11279L275.795,683.11279
				L275.795,683.59284L275.07491,683.59284L275.07491,684.31292L274.59485,684.31292L274.59485,684.79297L273.87476,684.79297L273.87476,685.51305
				L273.3947,685.51305L273.3947,685.9931L272.6746,685.9931L272.6746,686.71318L271.47445,686.71318L271.47445,687.19323L270.99439,687.19323
				L270.99439,687.91331L270.2743,687.91331L270.2743,688.39336L269.31418,688.39336L269.31418,689.11343L268.59409,689.11343L268.59409,689.59348
				L267.39393,689.59348L267.39393,690.31356L266.91387,690.31356L266.91387,690.79361L266.19378,690.79361L266.19378,691.51369
				L265.71372,691.51369L265.71372,691.99374L264.51357,691.99374L264.51357,692.71382L263.79348,692.71382L263.79348,693.19387
				L263.31342,693.19387L263.31342,693.91394L262.59332,693.91394L262.59332,695.11407L262.11326,695.11407L262.11326,695.59412
				L261.39317,695.59412L261.39317,696.79425L260.91311,696.79425L260.91311,697.51433L260.19302,697.51433L260.19302,697.99438
				L259.71296,697.99438L259.71296,698.71446L258.99287,698.71446L258.99287,699.91458L258.51281,699.91458L258.51281,700.39464
				L257.79272,700.39464L257.79272,701.11471L257.31265,701.11471L257.31265,702.31484L256.59256,702.31484L256.59256,702.79489
				L256.1125,702.79489L256.1125,703.51497L255.39241,703.51497L255.39241,704.7151L254.91235,704.7151L254.91235,705.91522L254.19226,705.91522
				L254.19226,706.39527L253.7122,706.39527L253.7122,706.87533L251.79195,706.87533L251.79195,707.5954L250.5918,707.5954L250.5918,708.07545
				L248.91159,708.07545L248.91159,708.79553L247.71144,708.79553L247.71144,709.27558L245.79119,709.27558L245.79119,709.99566
				L244.59104,709.99566L244.59104,710.47571L242.91083,710.47571L242.91083,711.19579L240.51052,711.19579L240.51052,711.67584
				L237.63016,711.67584L237.63016,712.39591L232.82955,712.39591L232.82955,712.87597L227.30885,712.87597L227.30885,712.39591
				L223.70839,712.39591L223.70839,712.87597L221.30809,712.87597L221.30809,713.59604L213.14705,713.59604L213.14705,714.07609
				L212.42696,714.07609L212.42696,713.59604L210.74674,713.59604L210.74674,714.07609L207.62635,714.07609L207.62635,714.79617
				L204.02589,714.79617L204.02589,715.27622L198.74522,715.27622L198.74522,714.79617L184.34339,714.79617L184.34339,715.27622
				L179.06272,715.27622L179.06272,715.9963L174.74218,715.9963L174.74218,716.47635L172.34187,716.47635L172.34187,717.19643L171.14172,717.19643
				L171.14172,717.67648L168.74141,717.67648L168.74141,718.39655L168.26135,718.39655L168.26135,718.8766L165.86105,718.8766L165.86105,719.59668
				L146.17855,719.59668L146.17855,718.8766L147.3787,718.8766L147.3787,718.39655L149.05892,718.39655L149.05892,717.67648L150.97916,717.67648
				L150.97916,717.19643L152.65937,717.19643L152.65937,716.47635L153.85953,716.47635L153.85953,715.9963L162.26059,715.9963L162.26059,715.27622
				L162.98068,715.27622L162.98068,714.79617L163.46074,714.79617L163.46074,714.07609L164.6609,714.07609L164.6609,713.59604L165.38099,713.59604
				L165.38099,712.87597L165.86105,712.87597L165.86105,712.39591L167.0612,712.39591L167.0612,711.67584L168.26135,711.67584L168.26135,711.19579
				L169.46151,711.19579L169.46151,710.47571L170.66166,710.47571L170.66166,709.99566L171.86181,709.99566L171.86181,709.27558
				L173.06196,709.27558L173.06196,708.79553L174.74218,708.79553L174.74218,708.07545L176.66242,708.07545L176.66242,707.5954L
				179.54278,707.5954L179.54278,706.87533L183.14324,706.87533L183.14324,706.39527L186.26364,706.39527L186.26364,705.91522L189.86409,705.91522
				L189.86409,705.19515L192.74446,705.19515L192.74446,704.7151L196.34492,704.7151L196.34492,703.99502L199.22528,703.99502L199.22528,703.51497
				L202.82574,703.51497L202.82574,702.79489L205.94614,702.79489L205.94614,702.31484L209.54659,702.31484L209.54659,701.59476
				L212.42696,701.59476L212.42696,701.11471L215.54735,701.11471L215.54735,700.39464L218.90778,700.39464L218.90778,699.91458
				L222.02818,699.91458L222.02818,699.19451L225.62863,699.19451L225.62863,698.71446L228.509,698.71446L228.509,697.99438L231.62939,697.99438
				L231.62939,697.51433L235.22985,697.51433L235.22985,696.79425L238.83031,696.79425L238.83031,696.3142L240.51052,696.3142L240.51052,695.59412
				L241.71067,695.59412L241.71067,695.11407L242.91083,695.11407L242.91083,694.394L243.63092,694.394L243.63092,693.91394L244.11098,693.91394
				L244.11098,693.19387L245.31113,693.19387L245.31113,692.71382L245.79119,692.71382L245.79119,691.99374L246.51128,691.99374
				L246.51128,691.51369L247.71144,691.51369L247.71144,690.79361L248.1915,690.79361L248.1915,690.31356L249.39165,690.31356L249.39165,689.59348
				L250.11174,689.59348L250.11174,689.11343L250.5918,689.11343L250.5918,688.39336L251.79195,688.39336L251.79195,687.91331L252.51205,687.91331
				L252.51205,687.19323L252.99211,687.19323L252.99211,686.71318L254.19226,686.71318L254.19226,685.9931L254.91235,685.9931L254.91235,685.51305
				L255.39241,685.51305L255.39241,684.79297L256.59256,684.79297L256.59256,684.31292L257.31265,684.31292L257.31265,683.59284
				L258.51281,683.59284L258.51281,683.11279L258.99287,683.11279L258.99287,682.39272L259.71296,682.39272L259.71296,681.91267
				L260.91311,681.91267L260.91311,681.19259L261.39317,681.19259L261.39317,680.71254L262.11326,680.71254L262.11326,680.23249
				L263.31342,680.23249L263.31342,679.51241L263.79348,679.51241L263.79348,679.03236L264.51357,679.03236L264.51357,678.31228
				L265.71372,678.31228L265.71372,677.83223L266.19378,677.83223L266.19378,677.11215L266.91387,677.11215L266.91387,676.6321L
				268.11402,676.6321L268.11402,675.91203L268.59409,675.91203L268.59409,675.43198L269.79424,675.43198L269.79424,674.7119L270.2743,674.7119
				L270.2743,674.23185L270.99439,674.23185L270.99439,673.51177L272.19454,673.51177L272.19454,673.03172L272.6746,673.03172L272.6746,672.31164
				L273.87476,672.31164L273.87476,671.83159L274.59485,671.83159L274.59485,671.11151L275.795,671.11151L275.795,670.63146L276.99515,670.63146
				L276.99515,669.91139L277.47521,669.91139L277.47521,669.43134L278.67537,669.43134L278.67537,668.71126L280.59561,668.71126
				L280.59561,668.23121L282.27582,668.23121L282.27582,667.51113L284.19607,667.51113L284.19607,667.03108L286.59637,667.03108
				L286.59637,666.311L288.99668,666.311L288.99668,665.83095L291.39698,665.83095L291.39698,665.11088L294.75741,665.11088L294.75741,664.63082
				L299.07795,664.63082L299.07795,663.91075L303.15847,663.91075L303.15847,663.4307L306.27887,663.4307L306.27887,662.71062L308.67917,662.71062
				L308.67917,662.23057L310.35939,662.23057L310.35939,661.51049L311.55954,661.51049L311.55954,661.03044L312.75969,661.03044
				L312.75969,660.31036L313.47978,660.31036L313.47978,659.83031L314.67993,659.83031L314.67993,659.11024L315.16,659.11024L315.16,658.63018
				L315.88009,658.63018L315.88009,657.43006L316.36015,657.43006L316.36015,656.22993L315.88009,656.22993L315.88009,655.50985
				L315.16,655.50985L315.16,655.0298L314.67993,655.0298L314.67993,654.54975L313.95984,654.54975L313.95984,653.82967L313.47978,653.82967
				L313.47978,652.14949L312.75969,652.14949L312.75969,650.22929L312.27963,650.22929L312.27963,649.02916L311.55954,649.02916
				L311.55954,648.54911L311.07948,648.54911L311.07948,647.82903L310.35939,647.82903L310.35939,647.34898L309.87933,647.34898
				L309.87933,646.14885L309.15923,646.14885L309.15923,645.42878L308.67917,645.42878L308.67917,644.94873L307.95908,644.94873
				L307.95908,643.7486L307.47902,643.7486L307.47902,643.02852L306.75893,643.02852L306.75893,642.54847L306.27887,642.54847L306.27887,641.82839
				L305.55878,641.82839L305.55878,640.62827L305.07872,640.62827L305.07872,640.14822L304.35862,640.14822L304.35862,639.42814
				L303.87856,639.42814L303.87856,638.94809L303.15847,638.94809L303.15847,638.22801L300.75817,638.22801L300.75817,638.94809
				L299.07795,638.94809L299.07795,638.22801L298.35786,638.22801L298.35786,637.02788L297.8778,637.02788L297.8778,636.54783L297.15771,636.54783
				L297.15771,635.3477L296.67765,635.3477L296.67765,634.14758L295.95756,634.14758L295.95756,633.4275L295.4775,633.4275L295.4775,632.22737
				L294.75741,632.22737L294.75741,631.02724L294.27735,631.02724L294.27735,630.54719L293.79728,630.54719L293.79728,629.34706
				L293.07719,629.34706L293.07719,628.14694L292.59713,628.14694L292.59713,626.94681L291.87704,626.94681L291.87704,625.26663
				L292.59713,625.26663L292.59713,623.34642L293.07719,623.34642L293.07719,622.86637L293.79728,622.86637L293.79728,622.1463L
				294.27735,622.1463L294.27735,621.66625L294.75741,621.66625L294.75741,620.94617L295.4775,620.94617L295.4775,620.46612L295.95756,620.46612
				L295.95756,619.74604L296.67765,619.74604L296.67765,619.26599L297.15771,619.26599L297.15771,618.54591L297.8778,618.54591L
				297.8778,616.14566L298.35786,616.14566L298.35786,616.86573L299.07795,616.86573L299.07795,617.34579L299.55802,617.34579L299.55802,618.06586
				L300.27811,618.06586L300.27811,618.54591L300.75817,618.54591L300.75817,619.26599L301.47826,619.26599L301.47826,619.74604
				L301.95832,619.74604L301.95832,620.94617L302.67841,620.94617L302.67841,621.66625L303.15847,621.66625L303.15847,622.1463L
				303.87856,622.1463L303.87856,622.86637L304.35862,622.86637L304.35862,623.34642L305.07872,623.34642L305.07872,624.0665L306.27887,624.0665
				L306.27887,620.46612L305.55878,620.46612L305.55878,616.86573L305.07872,616.86573L305.07872,613.7454L304.35862,613.7454L304.35862,610.14502
				L303.87856,610.14502L303.87856,608.94489L302.67841,608.94489L302.67841,608.46484L300.75817,608.46484L300.75817,607.74476
				L298.35786,607.74476L298.35786,607.26471L296.67765,607.26471L296.67765,606.54463L295.95756,606.54463L295.95756,606.06458
				L295.4775,606.06458L295.4775,604.86446L294.75741,604.86446L294.75741,603.66433L294.27735,603.66433L294.27735,602.4642L293.79728,602.4642
				L293.79728,600.78402L293.07719,600.78402L293.07719,599.58389L292.59713,599.58389L292.59713,598.38376L291.87704,598.38376
				L291.87704,597.18364L291.39698,597.18364L291.39698,596.46356L290.67689,596.46356L290.67689,595.98351L291.39698,595.98351
				L291.39698,595.26343L291.87704,595.26343L291.87704,594.78338L293.07719,594.78338L293.07719,594.0633L293.79728,594.0633L293.79728,593.58325
				L294.75741,593.58325L294.75741,592.86318L295.95756,592.86318L295.95756,592.38313L297.15771,592.38313L297.15771,591.66305
				L299.07795,591.66305L299.07795,591.183L300.27811,591.183L300.27811,590.46292L301.47826,590.46292L301.47826,589.98287L302.67841,589.98287
				L302.67841,589.26279L303.87856,589.26279L303.87856,588.78274L304.35862,588.78274L304.35862,588.06266L305.07872,588.06266
				L305.07872,587.58261L306.27887,587.58261L306.27887,586.86254L306.75893,586.86254L306.75893,586.38249L307.47902,586.38249
				L307.47902,585.18236L307.95908,585.18236L307.95908,583.98223L308.67917,583.98223L308.67917,582.06203L309.15923,582.06203
				L309.15923,579.9018L309.87933,579.9018L309.87933,577.50154L310.35939,577.50154L310.35939,573.90116L311.07948,573.90116L311.07948,568.38057
				L311.55954,568.38057L311.55954,565.98031L312.27963,565.98031L312.27963,563.58006L312.75969,563.58006L312.75969,563.1L313.47978,563.1
				L313.47978,561.89988L313.95984,561.89988L313.95984,561.1798L314.67993,561.1798L314.67993,559.97967L315.16,559.97967L315.16,559.49962
				L315.88009,559.49962L315.88009,558.77954L316.36015,558.77954L316.36015,557.57942L317.08024,557.57942L317.08024,557.09937
				L317.5603,557.09937L317.5603,556.37929L318.28039,556.37929L318.28039,555.17916L318.76045,555.17916L318.76045,554.69911L319.48054,554.69911
				L319.48054,554.21906L319.9606,554.21906L319.9606,553.49898L320.44067,553.49898L320.44067,553.01893L321.16076,553.01893L321.16076,551.8188
				L321.64082,551.8188L321.64082,551.09873L322.36091,551.09873L322.36091,550.61867L322.84097,550.61867L322.84097,549.8986L323.56106,549.8986
				L323.56106,549.41855L324.04112,549.41855L324.04112,548.21842L324.76121,548.21842L324.76121,547.49834L325.24127,547.49834
				L325.24127,547.01829L325.96137,547.01829L325.96137,545.81816L326.44143,545.81816L326.44143,545.09809L327.16152,545.09809
				L327.16152,543.89796L327.64158,543.89796L327.64158,542.69783"/>
			<path clip-path="url(#SVG_CP_2)" fill="none" stroke="#999999" stroke-width="0.96012" stroke-miterlimit="10" stroke-linecap="round" stroke-linejoin="round" d="
				M327.64158,542.69783L328.36167,542.69783L328.36167,541.4977L328.84173,541.4977L328.84173,539.81752L329.56182,539.81752L329.56182,533.81688
				L328.84173,533.81688L328.84173,531.41663L328.36167,531.41663L328.36167,529.49642L327.64158,529.49642L327.64158,527.81625
				L327.16152,527.81625L327.16152,526.13607L326.44143,526.13607L326.44143,524.93594L325.96137,524.93594L325.96137,523.01573
				L325.24127,523.01573L325.24127,521.81561L324.76121,521.81561L324.76121,520.13543L324.04112,520.13543L324.04112,512.93466
				L324.76121,512.93466L324.76121,511.73453L325.24127,511.73453L325.24127,510.5344L325.96137,510.5344L325.96137,509.33428L326.44143,509.33428
				L326.44143,508.6142L327.16152,508.6142L327.16152,507.41407L327.64158,507.41407L327.64158,506.93402L328.36167,506.93402L328.36167,505.73389
				L328.84173,505.73389L328.84173,505.01382L329.56182,505.01382L329.56182,504.05371L330.04188,504.05371L330.04188,503.33364
				L330.76198,503.33364L330.76198,502.13351L331.24204,502.13351L331.24204,501.65346L331.96213,501.65346L331.96213,500.45333
				L332.44219,500.45333L332.44219,499.2532L331.96213,499.2532L331.96213,498.53312L331.24204,498.53312L331.24204,498.05307L330.76198,498.05307
				L330.76198,497.333L328.84173,497.333L328.84173,496.85295L318.28039,496.85295L318.28039,496.13287L316.36015,496.13287L316.36015,495.65282
				L315.88009,495.65282L315.88009,494.93274L315.16,494.93274L315.16,493.73261L314.67993,493.73261L314.67993,493.25256L313.95984,493.25256
				L313.95984,492.53249L313.47978,492.53249L313.47978,492.05243L312.75969,492.05243L312.75969,491.33236L312.27963,491.33236
				L312.27963,490.85231L311.07948,490.85231L311.07948,490.13223L310.35939,490.13223L310.35939,489.65218L309.15923,489.65218
				L309.15923,488.9321L307.95908,488.9321L307.95908,488.45205L305.55878,488.45205L305.55878,487.73197L299.55802,487.73197L299.55802,487.25192
				L297.8778,487.25192L297.8778,486.53185L296.67765,486.53185L296.67765,486.05179L295.4775,486.05179L295.4775,485.33172L294.75741,485.33172
				L294.75741,484.85167L293.79728,484.85167L293.79728,484.13159L293.07719,484.13159L293.07719,483.65154L291.87704,483.65154
				L291.87704,482.93146L291.39698,482.93146L291.39698,482.45141L290.67689,482.45141L290.67689,481.73133L289.47674,481.73133
				L289.47674,481.25128L288.99668,481.25128L288.99668,480.53121L287.79652,480.53121L287.79652,480.05116L287.07643,480.05116
				L287.07643,474.77059L286.59637,474.77059L286.59637,471.17021L285.87628,471.17021L285.87628,468.76995L285.39622,468.76995
				L285.39622,467.56983L284.67613,467.56983L284.67613,466.3697L284.19607,466.3697L284.19607,465.64962L279.39546,465.64962L279.39546,465.16957
				L278.1953,465.16957L278.1953,464.44949L276.99515,464.44949L276.99515,463.96944L275.07491,463.96944L275.07491,463.24936L273.87476,463.24936
				L273.87476,462.76931L272.6746,462.76931L272.6746,462.04924"/>
		</g>
</g></svg>