<?xml version="1.0" encoding="utf-8" standalone="no"?>
<!-- Creator: ESRI ArcMap 10.0.0.2414 -->
<!DOCTYPE svg PUBLIC "-//W3C//DTD SVG 1.1//EN"  "http://www.w3.org/Graphics/SVG/1.1/DTD/svg11.dtd">
<svg width="595.50236pt" height="595.50236pt" viewBox="25 148.377955 545.50236 545.50236" enable-background="new 25 148.377955 545.50236 545.50236"
	version="1.1" xmlns="http://www.w3.org/2000/svg" xmlns:xlink="http://www.w3.org/1999/xlink" >
	<g id="Couches">
		<g id="reservoirs">
			<path clip-path="url(#SVG_CP_2)" fill-opacity="0.2" fill="#07866D" fill-rule="evenodd" stroke="none" stroke-width="" stra="1.44018" stroke-miterlimit="10" stroke-linecap="round" stroke-linejoin="round" d="
				M331.7221,476.93082L329.56182,483.89156L326.68146,483.17149L325.48131,482.45141L324.76121,484.61164L324.04112,489.41215L
				323.081,492.05243L325.48131,493.49259L324.04112,497.09297L324.76121,497.57302L322.12088,503.33364L324.28115,504.53376L320.92073,511.25448
				L319.00048,519.65538L310.83945,518.21522L310.11936,518.9353L309.39926,520.13543L308.67917,520.8555L305.79881,519.65538L304.35862,519.65538
				L303.3985,523.49578L304.11859,524.45589L304.11859,525.41599L309.87933,526.61612L309.15923,531.1766L307.95908,531.65665L305.79881,531.1766
				L304.59865,530.45653L304.11859,530.45653L303.15847,530.2165L303.63853,528.77635L300.9982,528.53632L301.47826,525.89604L299.31798,525.17596
				L299.31798,523.25576L300.9982,523.49578L301.47826,523.25576L301.71829,516.53504L300.51814,516.29502L299.55802,516.05499L
				299.31798,515.57494L298.83792,510.77443L298.83792,508.37417L298.11783,507.89412L295.4775,507.41407L294.03731,507.17405L292.11707,507.41407
				L291.87704,506.69399L291.39698,503.09361L290.91692,500.69335L289.9568,494.93274L295.4775,494.45269L298.11783,492.77251L298.59789,492.05243
				L299.55802,491.57238L300.75817,491.09233L301.23823,490.85231L303.63853,485.09169L305.55878,479.5711L317.08024,484.61164L
				321.64082,482.45141L322.12088,471.65026L325.00124,471.17021L325.72134,466.3697L328.36167,466.12967L327.88161,475.97072L331.48207,476.21075
				L331.7221,476.93082z"/>
			<path clip-path="url(#SVG_CP_2)" fill-opacity="0.2" fill="#07866D" fill-rule="evenodd" stroke="none" stroke-width="" stra="1.44018" stroke-miterlimit="10" stroke-linecap="round" stroke-linejoin="round" d="
				M328.84173,142.57519L328.84173,144.25537L325.48131,144.01535L325.48131,146.89565L328.36167,146.89565L328.6017,147.13568L
				328.36167,152.41624L327.88161,155.7766L327.88161,156.97673L326.92149,160.33709L324.76121,168.49796L323.80109,172.33837L322.60094,177.85895
				L310.35939,174.25857L309.87933,176.4188L309.63929,177.13888L309.63929,178.339L312.99972,180.01918L311.79957,181.69936L315.88009,184.33964
				L314.19987,193.46062L319.00048,195.62085L317.5603,201.62149L319.9606,202.58159L323.081,203.30166L322.84097,205.22187L320.6807,204.74182
				L320.20063,205.94195L317.80033,210.26241L316.36015,210.26241L316.60018,212.18261L310.11936,213.14271L310.11936,213.86279
				L310.11936,217.46317L309.39926,217.7032L309.15923,218.18325L306.5189,218.6633L306.27887,217.46317L305.79881,215.54297L304.35862,211.70256
				L301.71829,213.14271L299.55802,214.82289L298.83792,215.54297L297.39774,216.7431L296.43762,217.46317L295.23747,218.6633L294.51738,219.6234
				L292.59713,221.78363L288.75664,222.98376L285.63625,215.30294L286.35634,214.34284L283.23594,213.38274L280.35558,217.94322
				L276.99515,221.06356L275.31494,222.50371L275.55497,222.98376L277.47521,222.02366L277.95527,222.74374L281.3157,221.30358L
				282.99591,224.90397L281.55573,225.62404L280.83564,226.10409L280.83564,226.58415L279.87552,227.0642L276.27506,228.0243L275.07491,225.86407
				L264.7536,228.0243L266.67384,231.14463L267.1539,232.10473L267.1539,234.98504L264.99363,234.98504L265.23366,235.46509L266.67384,238.82545
				L267.63396,240.74565L270.51433,239.3055L270.2743,238.58542L270.75436,238.3454L271.95451,238.58542L273.63473,238.82545L276.27506,239.3055
				L277.71524,239.78555L285.39622,242.90588L286.59637,242.66586L287.07643,242.90588L285.15619,249.6266L284.67613,249.86663L
				284.19607,250.10665L284.4361,251.78683L284.4361,252.26688L284.67613,256.10729L284.67613,257.06739L287.79652,256.82737L288.51661,257.54744
				L291.39698,255.38721L292.3571,257.06739L295.23747,262.58798L295.71753,263.30806L296.91768,263.54808L297.15771,268.10857L
				297.39774,270.02877L297.8778,272.66906L298.83792,274.10921L300.27811,276.02941L302.43838,282.51011L301.47826,283.47021L299.31798,285.63044
				L300.9982,290.19092L298.35786,290.911L298.11783,294.27136L298.11783,297.39169L297.8778,298.35179L297.15771,303.39233L296.43762,310.5931
				L294.51738,326.67481L300.27811,328.11496L299.31798,331.71535L298.11783,335.07571L297.39774,337.23594L296.67765,338.91612
				L295.95756,339.63619L295.4775,340.59629L294.51738,341.5564L293.55725,342.75652L293.31722,342.75652L292.11707,341.79642L289.47674,340.11624
				L288.51661,341.07635L286.8364,343.71663L286.8364,343.95665L284.67613,346.35691L284.4361,344.67673L284.19607,343.4766L283.716,342.5165
				L283.23594,342.27647L282.75588,343.23658L275.31494,351.8775L276.03503,354.7578L276.51509,355.95793L276.03503,356.43798L274.11479,358.83824
				L272.6746,361.23849L274.59485,362.67865L275.31494,363.63875L271.47445,368.19924L271.23442,368.67929L270.75436,369.63939L
				270.75436,370.35947L270.03427,376.12008L268.59409,375.88005L267.87399,376.36011L267.39393,377.08018L267.1539,377.56023L243.39089,369.15934
				L211.9469,357.39809L200.66547,353.55768L170.90169,342.75652L155.05968,336.99591L148.33883,334.59566L141.13791,331.71535L
				139.93776,331.47532L144.49834,323.07443L150.01904,312.75333L155.05968,304.35243L160.34035,295.71151L166.10108,287.31062L
				168.50138,284.67034L171.86181,282.03005L173.30199,280.82993L175.94233,276.98952L177.62254,274.10921L179.06272,269.3087L181.70306,264.74821
				L186.02361,258.50755L193.46455,248.42647L200.1854,240.50563L205.70611,233.78491L212.18693,226.58415L217.4676,220.58351L223.94842,213.38274
				L233.54964,203.78172L241.47064,196.1009L248.67156,189.62021L254.91235,183.37954L266.43381,173.05844L277.23518,163.69744L
				287.07643,156.01663L293.79728,150.97609L299.07795,147.3757L301.71829,145.21547L305.07872,143.29527L307.71905,141.61509L311.31951,140.17494
				L318.28039,138.01471L322.60094,136.57455L323.56106,136.33453L324.76121,136.33453L326.2014,136.81458L327.16152,138.01471L
				327.88161,139.21484L328.36167,140.65499L328.84173,142.57519z"/>
		</g>
</g></svg>