<?xml version="1.0" encoding="utf-8" standalone="no"?>
<!-- Creator: ESRI ArcMap 10.0.0.2414 -->
<!DOCTYPE svg PUBLIC "-//W3C//DTD SVG 1.1//EN"  "http://www.w3.org/Graphics/SVG/1.1/DTD/svg11.dtd">
<svg width="595.50236pt" height="595.50236pt" viewBox="25 148.377955 545.50236 545.50236" enable-background="new 25 148.377955 545.50236 545.50236"
	version="1.1" xmlns="http://www.w3.org/2000/svg" xmlns:xlink="http://www.w3.org/1999/xlink" >
	<g id="Couches">
		<g id="reservoirs">
			<path clip-path="url(#SVG_CP_2)" fill-opacity="0.2" fill="#07866D" fill-rule="evenodd" stroke="none" stroke-width="" stra="1.44018" stroke-miterlimit="10" stroke-linecap="round" stroke-linejoin="round" d="
				M-6.24079,721.03683L4.08052,717.67648L-2.64034,700.15461L6.00076,696.55423L16.5621,715.9963L20.88265,723.43709L39.365,716.23632
				L38.88494,713.35602L38.6449,712.63594L44.16561,710.71573L46.56591,709.27558L37.68478,684.0729L38.40487,683.83287L48.00609,680.71254
				L56.64719,677.35218L62.64795,674.95192L67.92862,672.55167L76.56972,664.3908L81.1303,667.75116L86.41097,662.95065L91.69164,660.55039
				L103.69316,678.55231L119.05511,670.15141L106.81356,650.94937L120.01523,642.54847L125.05587,649.98926L145.21843,638.70806
				L147.3787,641.10832L172.5819,625.98671L183.14324,644.22865L183.6233,643.7486L191.30428,657.43006L215.78738,703.27494L221.06805,703.75499
				L225.62863,694.63402L236.18997,701.35474L243.15086,687.19323L229.46912,678.07226L219.14781,670.39144L225.3886,666.55103L
				220.58799,653.82967L219.8679,651.18939L218.42772,646.38888L217.22757,642.54847L218.90778,638.70806L221.54812,637.98799L230.66927,635.58773
				L224.90854,618.06586L222.74827,611.58517L226.10869,610.14502L218.18769,593.82328L241.9507,582.06203L245.79119,589.98287L
				253.95223,586.14246L263.79348,581.10192L265.95375,580.14182L270.2743,588.54272L309.87933,570.30077L300.75817,547.25832L357.16533,527.09617
				L347.32408,499.73325L355.48511,499.01318L364.36624,499.49323L369.64691,500.69335L380.20825,500.93338L388.60932,501.17341
				L397.25041,499.49323L408.29181,494.69272L411.41221,493.97264L427.01419,493.01254L436.85544,488.9321L447.17675,483.89156L
				456.53794,481.01126L475.9804,474.05052L492.06244,462.52929L502.38375,457.48875L514.62531,455.80857L536.46808,499.73325L536.46808,499.97328
				L539.34845,499.01318L568.87219,483.89156L580.39365,507.89412L591.43506,523.97584L557.35073,538.37737L553.75027,540.05755
				L579.1935,593.1032L601.9964,581.822L601.9964,861.21177L-6.24079,861.21177L-6.24079,721.03683z"/>
			<path clip-path="url(#SVG_CP_2)" fill-opacity="0.2" fill="#07866D" fill-rule="evenodd" stroke="none" stroke-width="" stra="1.44018" stroke-miterlimit="10" stroke-linecap="round" stroke-linejoin="round" d="
				M500.46351,-18.722L500.94357,-12.48133L505.50415,-4.80051L523.50643,10.08107L596.71573,65.52698L545.34921,123.8532L530.46732,146.17558
				L523.2664,139.21484L514.38528,152.65627L498.30324,138.25473L481.02104,155.7766L468.53946,142.81522L452.69745,183.13952L442.61617,201.62149
				L428.45437,210.26241L407.09166,235.46509L391.24965,246.26624L381.16837,249.86663L353.08481,245.54617L347.32408,239.78555
				L343.00353,232.82481L333.64234,217.94322L321.40079,225.38402L288.99668,252.74693L282.03579,251.78683L278.43533,256.58734
				L275.55497,260.42775L275.55497,269.3087L279.63549,271.46893L286.11631,276.98952L288.99668,277.22954L294.27735,277.94962L
				296.91768,281.06995L301.71829,286.59054L304.35862,289.9509L312.51966,290.43095L314.19987,298.59182L261.39317,337.95601L243.15086,349.23722
				L214.3472,356.91803L206.90626,359.55832L208.58647,363.39872L189.62406,377.08018L183.86333,372.27967L175.46227,362.43862L
				175.22224,361.47852L173.30199,354.03773L166.58114,348.27711L156.73989,348.27711L146.65861,340.35627L135.61721,335.79578L
				130.09651,333.39553L114.73456,331.71535L107.05359,341.07635L138.49758,362.67865L114.2545,386.44118L116.17474,392.44182L101.05282,403.72302
				L101.29285,406.3633L96.97231,408.04348L98.89255,419.08466L89.53136,427.48555L87.37109,421.48491L75.6096,426.28543L75.36957,416.20435
				L69.12877,407.80346L65.04826,409.96369L58.08737,399.16254L60.48768,396.28223L38.6449,374.4399L31.20396,382.60077L12.72161,403.00294
				L16.08204,407.32341L15.84201,408.04348L15.36195,408.52353L6.48082,419.32468L3.36043,423.16509L-5.28067,422.44502L-6.24079,421.96497
				L-6.24079,-18.722L500.46351,-18.722z"/>
		</g>
</g></svg>