<?xml version="1.0" encoding="utf-8" standalone="no"?>
<!-- Creator: ESRI ArcMap 10.0.0.2414 -->
<!DOCTYPE svg PUBLIC "-//W3C//DTD SVG 1.1//EN"  "http://www.w3.org/Graphics/SVG/1.1/DTD/svg11.dtd">
<svg width="595.50236pt" height="595.50236pt" viewBox="25 148.377955 545.50236 545.50236" enable-background="new 25 148.377955 545.50236 545.50236"
	version="1.1" xmlns="http://www.w3.org/2000/svg" xmlns:xlink="http://www.w3.org/1999/xlink" >
	<g id="Couches">
		<g id="cont_2">
			<path clip-path="url(#SVG_CP_2)" fill="none" stroke="#999999" stroke-width="0.96012" stroke-miterlimit="10" stroke-linecap="round" stroke-linejoin="round" d="
				M278.1953,362.67865L278.1953,362.43862L278.1953,362.67865"/>
			<path clip-path="url(#SVG_CP_2)" fill="none" stroke="#999999" stroke-width="0.96012" stroke-miterlimit="10" stroke-linecap="round" stroke-linejoin="round" d="
				M300.51814,376.36011L300.75817,376.36011L300.75817,376.60013L300.9982,376.60013L300.9982,376.84016L301.23823,376.84016L301.23823,411.16381
				L301.23823,414.28415L301.47826,414.28415L301.47826,415.7243L301.71829,415.7243L301.71829,415.96433L301.95832,415.96433L301.95832,416.20435
				L302.19835,416.20435L302.19835,419.80474L302.19835,420.04476L301.95832,420.04476L301.95832,420.28479L301.71829,420.28479
				L301.47826,420.28479L301.47826,420.52481L301.23823,420.52481L301.23823,420.76484L301.23823,421.00486L300.9982,421.00486L
				300.9982,421.24489L300.75817,421.24489L300.51814,421.24489L300.51814,421.48491L300.27811,421.48491L300.27811,421.72494L300.27811,421.96497
				L300.03808,421.96497L300.03808,422.20499L299.79805,422.20499L299.79805,422.44502L299.55802,422.44502L299.31798,422.44502
				L299.31798,422.68504L299.31798,422.92507L299.07795,422.92507L299.07795,423.16509L298.83792,423.16509L298.83792,423.40512
				L298.59789,423.40512L298.35786,423.40512L298.35786,428.44566L298.35786,451.96816L298.35786,452.20819L298.11783,452.20819
				L298.11783,452.44821L297.8778,452.44821L297.8778,452.68824L297.63777,452.68824L297.63777,453.88837L297.39774,453.88837L297.15771,453.88837
				L297.15771,454.12839L297.15771,454.36842L296.91768,454.36842L296.91768,454.60844L296.67765,454.60844L296.67765,454.84847
				L296.43762,454.84847L296.43762,455.0885L296.19759,455.0885L296.19759,455.32852L295.95756,455.32852L295.95756,455.56855L295.71753,455.56855
				L295.71753,455.80857L295.4775,455.80857L295.4775,456.0486L295.23747,456.0486L295.23747,456.76867L295.23747,457.0087L294.99744,457.0087
				L294.75741,457.0087L294.75741,457.24873L294.75741,457.48875L294.51738,457.48875L294.51738,457.72878L294.27735,457.72878L
				294.27735,457.9688L294.03731,457.9688L294.03731,458.20883L293.79728,458.20883L293.79728,458.44885L293.79728,463.72942L293.55725,463.72942
				L293.55725,463.96944L293.31722,463.96944L293.31722,464.20947L293.07719,464.20947L293.07719,464.44949L292.83716,464.44949
				L292.83716,464.68952L292.59713,464.68952L292.3571,464.68952L292.3571,464.92954L292.11707,464.92954L292.11707,465.16957L291.87704,465.16957
				L291.87704,465.40959L291.63701,465.40959L291.87704,465.40959L291.87704,465.64962L292.11707,465.64962L292.11707,465.88965
				L292.11707,466.12967L292.3571,466.12967L292.3571,466.3697L292.59713,466.3697L292.59713,466.60972L292.83716,466.60972L292.83716,466.84975
				L293.07719,466.84975L293.07719,467.08977L293.07719,467.3298L293.31722,467.3298L293.31722,467.56983L293.55725,467.56983L293.55725,467.80985
				L293.79728,467.80985L293.79728,468.04988L294.03731,468.04988L294.03731,468.2899L294.27735,468.2899L294.27735,468.52993L294.27735,468.76995
				L294.03731,468.76995L294.03731,469.00998L293.79728,469.00998L293.79728,469.25L293.55725,469.25L293.31722,469.25L293.31722,469.49003
				L293.07719,469.49003L293.07719,469.73006L293.07719,469.97008L292.83716,469.97008L292.59713,469.97008L292.59713,470.21011
				L292.3571,470.21011L292.11707,470.21011L291.87704,470.21011L291.87704,470.45013L291.63701,470.45013L291.39698,470.45013L
				291.39698,470.69016L291.15695,470.69016L290.91692,470.69016L290.91692,470.93018L290.67689,470.93018L290.43686,470.93018L
				290.43686,471.17021L290.19683,471.17021L290.19683,471.41023L290.43686,471.41023L290.43686,471.65026L290.43686,471.89029L
				290.67689,471.89029L290.67689,472.13031L290.43686,472.13031L290.43686,472.37034L290.19683,472.37034L290.19683,472.61036L
				289.9568,472.61036L289.9568,472.85039L289.71677,472.85039L289.71677,473.09041L289.47674,473.09041L289.23671,473.09041L288.99668,473.09041
				L288.99668,472.85039L288.75664,472.85039L288.75664,472.61036L288.51661,472.61036L288.27658,472.61036L288.27658,472.37034
				L288.03655,472.37034L287.79652,472.37034L287.79652,472.13031L287.55649,472.13031L287.31646,472.13031L287.31646,471.89029
				L287.07643,471.89029L287.07643,471.65026L286.8364,471.65026L286.59637,471.65026L286.59637,471.41023L286.35634,471.41023L
				286.11631,471.41023L286.11631,471.17021L285.63625,471.17021L285.63625,471.41023L285.39622,471.41023L285.15619,471.41023L
				284.91616,471.41023L284.91616,471.65026L284.67613,471.65026L284.4361,471.65026L284.4361,471.89029L283.95604,471.89029L283.95604,472.13031
				L283.47597,472.13031L283.23594,472.13031L283.23594,472.37034L282.99591,472.37034L282.75588,472.37034L282.51585,472.37034
				L282.51585,472.61036L282.27582,472.61036L282.03579,472.61036L282.03579,472.85039L281.79576,472.85039L281.55573,472.85039
				L281.55573,473.09041L281.3157,473.09041L281.3157,473.33044L281.07567,473.33044L281.07567,473.57046L280.83564,473.57046L280.83564,473.81049
				L280.59561,473.81049L280.59561,474.05052L280.59561,474.29054L280.35558,474.29054L280.11555,474.29054L280.11555,474.53057
				L279.87552,474.53057L279.87552,474.77059L279.87552,475.01062L279.63549,475.01062L279.63549,475.25064L279.39546,475.25064
				L279.39546,475.49067L279.15543,475.49067L279.15543,475.73069L278.9154,475.73069L278.9154,475.97072L278.9154,476.21075L278.67537,476.21075
				L278.67537,476.45077L278.43533,476.45077L278.43533,476.6908L278.1953,476.6908L278.1953,476.93082L277.95527,476.93082L277.95527,477.17085
				L277.95527,477.41087L277.71524,477.41087L277.71524,477.6509L277.47521,477.6509L277.47521,477.89092L277.23518,477.89092L277.23518,478.13095
				L276.99515,478.13095L276.99515,478.37098L276.75512,478.37098L276.75512,478.611L276.75512,478.85103L276.51509,478.85103L276.51509,479.09105
				L276.27506,479.09105L276.27506,479.33108L276.03503,479.33108L276.03503,479.5711L275.795,479.5711L275.795,479.81113L275.55497,479.81113
				L275.55497,480.05116L275.55497,480.29118L275.31494,480.29118L275.31494,480.53121L275.07491,480.53121L275.07491,480.77123
				L274.83488,480.77123L274.83488,481.01126L274.59485,481.01126L274.59485,481.25128L274.59485,481.49131L274.35482,481.49131
				L274.11479,481.49131L274.11479,481.25128L273.87476,481.25128L273.87476,480.53121L274.11479,480.53121L274.11479,480.05116
				L274.11479,479.5711L274.35482,479.5711L274.35482,479.33108L274.35482,478.85103L274.59485,478.85103L274.59485,478.611L274.59485,478.13095
				L274.83488,478.13095L274.83488,477.6509L274.83488,477.41087L274.83488,476.93082L275.07491,476.93082L275.07491,476.6908L275.07491,476.45077
				L275.31494,476.45077L275.31494,475.97072L275.31494,475.73069L275.55497,475.73069L275.55497,475.49067L275.55497,475.01062
				L275.795,475.01062L275.795,474.77059L275.795,474.29054L275.795,474.05052L276.03503,474.05052L276.03503,473.81049L276.03503,473.33044
				L276.27506,473.33044L276.27506,473.09041L276.51509,473.09041L276.51509,472.85039L276.51509,472.61036L276.75512,472.61036
				L276.75512,472.37034L276.75512,471.89029L276.75512,471.17021L276.99515,471.17021L276.99515,470.21011L276.99515,469.97008
				L277.23518,469.97008L277.23518,469.73006L277.23518,469.49003L277.47521,469.49003L277.47521,469.25L277.47521,468.76995L277.71524,468.76995
				L277.71524,468.52993L277.71524,468.2899L277.95527,468.2899L277.95527,468.04988L277.95527,467.80985L277.95527,465.88965L278.1953,465.88965
				L278.1953,464.20947L278.1953,463.72942L278.43533,463.72942L278.43533,463.48939L278.43533,463.24936L278.67537,463.24936L278.67537,463.00934
				L278.67537,462.52929L278.9154,462.52929L278.9154,462.28926L278.9154,462.04924L278.9154,461.80921L279.15543,461.80921L279.15543,461.56919
				L279.15543,461.32916L279.39546,461.32916L279.39546,460.60908L279.39546,459.40896L279.63549,459.40896L279.63549,458.44885
				L279.39546,458.44885L279.39546,458.20883L279.39546,457.9688L279.15543,457.9688L279.15543,457.72878L279.15543,457.48875L278.9154,457.48875
				L278.9154,457.24873L278.9154,457.0087L278.9154,456.76867L278.67537,456.76867L278.67537,456.52865L278.67537,456.28862L278.43533,456.28862
				L278.43533,455.56855L278.43533,455.32852L278.1953,455.32852L278.1953,455.0885L278.1953,454.84847L277.95527,454.84847L277.95527,454.36842
				L277.95527,453.88837L277.95527,453.40832L277.71524,453.40832L277.71524,452.92826L277.71524,451.96816L277.47521,451.96816
				L277.47521,451.72814L277.47521,451.48811L277.23518,451.48811L277.23518,451.24809L277.23518,451.00806L276.99515,451.00806
				L276.99515,450.76803L276.99515,450.52801L276.75512,450.52801L276.75512,450.28798L276.75512,450.04796L276.75512,449.80793
				L276.51509,449.80793L276.51509,449.56791L276.27506,449.56791L276.27506,449.32788L276.27506,449.08786L276.03503,449.08786
				L276.03503,448.84783L276.03503,448.6078L275.795,448.6078L275.795,448.12775L275.795,447.88773L275.795,447.40768L275.55497,447.40768
				L275.55497,447.16765L275.55497,446.92763L275.31494,446.92763L275.31494,446.44757L275.31494,446.20755L275.07491,446.20755
				L275.07491,445.96752L275.07491,445.7275L274.83488,445.7275L274.83488,445.00742L274.83488,444.28734L274.83488,443.80729L274.59485,443.80729
				L274.59485,443.56727L274.59485,439.24681L274.35482,439.24681L274.35482,438.2867L274.59485,438.2867L274.59485,436.12647L274.59485,435.88645
				L274.83488,435.88645L274.83488,434.68632L274.83488,434.4463L274.83488,433.48619L274.83488,433.24617L275.07491,433.24617L
				275.07491,431.56599L275.07491,431.32596L275.31494,431.32596L275.31494,429.16573L275.07491,429.16573L275.07491,428.92571L
				275.07491,424.60525L274.83488,424.60525L274.83488,423.88517L274.83488,423.64514L274.83488,423.40512L274.59485,423.40512L
				274.59485,423.16509L274.59485,422.92507L274.35482,422.92507L274.35482,422.68504L274.35482,422.44502L274.11479,422.44502L
				274.11479,422.20499L273.87476,422.20499L273.87476,421.96497L273.87476,421.72494L273.87476,421.48491L273.63473,421.48491L
				273.63473,421.24489L273.63473,421.00486L273.3947,421.00486L273.3947,420.76484L273.3947,420.28479L273.15466,420.28479L273.15466,419.80474
				L272.91463,419.80474L272.91463,419.56471L272.91463,419.32468L272.6746,419.32468L272.6746,419.08466L272.6746,418.84463L272.6746,418.36458
				L272.43457,418.36458L272.43457,417.88453L272.43457,417.16445L272.43457,416.6844L272.43457,416.20435L272.19454,416.20435L
				272.19454,415.48427L272.43457,415.48427L272.43457,414.28415L272.19454,414.28415L272.19454,413.8041L272.19454,413.56407L271.95451,413.56407
				L271.95451,413.32404L271.95451,413.08402L271.71448,413.08402L271.71448,412.84399L271.71448,412.60397L271.47445,412.60397
				L271.47445,412.12392L271.23442,412.12392L271.23442,411.88389L271.23442,411.64387L270.99439,411.64387L270.99439,411.40384
				L270.99439,411.16381L270.75436,411.16381L270.75436,410.92379L270.75436,410.68376L270.75436,410.44374L270.51433,410.44374
				L270.51433,410.20371L270.2743,410.20371L270.2743,409.96369L270.03427,409.96369L270.03427,409.72366L270.03427,409.48364L269.79424,409.48364
				L269.79424,409.24361L269.55421,409.24361L269.55421,409.00358L269.31418,409.00358L269.31418,408.76356L269.31418,408.52353
				L269.07415,408.52353L269.07415,408.28351L268.83412,408.28351L268.83412,408.04348L268.59409,408.04348L268.59409,407.80346
				L268.35406,407.80346L268.35406,407.32341L268.35406,407.08338L268.11402,407.08338L268.11402,406.12328L268.11402,405.4032L
				267.87399,405.4032L267.87399,404.68312L267.87399,403.72302L267.63396,403.72302L267.63396,398.20243L267.63396,392.68185L267.63396,378.52034
				L267.63396,368.91931L267.63396,368.43926L267.87399,368.43926L267.87399,368.19924L267.87399,368.43926L268.11402,368.43926
				L268.35406,368.43926L268.59409,368.43926L268.59409,368.19924L268.83412,368.19924L268.83412,367.95921L269.07415,367.95921
				L269.07415,368.19924L269.31418,368.19924L269.31418,368.43926L269.31418,368.91931L269.55421,368.91931L269.55421,369.39936
				L269.55421,369.63939L269.79424,369.63939L269.79424,369.87942L269.79424,385.24105L269.79424,387.40128L270.03427,387.40128
				L270.03427,387.88133L270.03427,388.60141L270.2743,388.60141L270.2743,388.84144L270.2743,390.52161L270.51433,390.52161L270.51433,390.76164
				L270.51433,394.60205L270.75436,394.60205L270.75436,395.0821L270.75436,395.32213L270.75436,395.56215L270.99439,395.56215L
				270.99439,396.0422L270.99439,396.28223L271.23442,396.28223L271.23442,397.00231L271.23442,397.96241L271.47445,397.96241L271.47445,398.20243
				L271.47445,398.92251L271.71448,398.92251L271.71448,399.40256L271.71448,399.64259L271.71448,399.88261L271.95451,399.88261
				L271.95451,400.36266L271.95451,400.60269L272.19454,400.60269L272.19454,400.84271L272.19454,401.08274L272.43457,401.08274
				L272.43457,401.32277L272.43457,401.56279L272.6746,401.56279L272.6746,402.04284L272.6746,402.52289L272.6746,402.76292L272.91463,402.76292
				L272.91463,403.00294L272.91463,403.24297L273.15466,403.24297L273.15466,403.483L273.15466,403.72302L273.3947,403.72302L273.3947,403.96305
				L273.3947,404.20307L273.63473,404.20307L273.63473,404.4431L273.63473,404.68312L273.87476,404.68312L273.87476,404.92315L273.87476,405.16318
				L273.87476,405.4032L274.11479,405.4032L274.11479,405.16318L274.11479,404.92315L274.35482,404.92315L274.35482,404.68312L274.35482,404.4431
				L274.59485,404.4431L274.59485,404.20307L274.59485,403.96305L274.83488,403.96305L274.83488,403.00294L275.07491,403.00294L
				275.07491,400.12264L275.07491,397.96241L275.07491,396.76228L274.83488,396.76228L274.83488,396.52225L274.83488,396.28223L
				274.83488,396.0422L274.59485,396.0422L274.59485,395.80218L274.59485,395.56215L274.35482,395.56215L274.35482,395.32213L274.35482,395.0821
				L274.11479,395.0821L274.11479,394.60205L274.11479,394.36202L273.87476,394.36202L273.87476,394.122L273.87476,393.88197L273.87476,393.64195
				L273.63473,393.64195L273.63473,393.40192L273.63473,393.1619L273.3947,393.1619L273.3947,392.92187L273.3947,392.68185L273.15466,392.68185
				L273.15466,392.44182L273.15466,392.20179L272.91463,392.20179L272.91463,391.96177L272.91463,391.72174L272.6746,391.72174L
				272.6746,391.48172L272.6746,391.24169L272.6746,389.56151L272.6746,388.60141L272.6746,388.36138L272.91463,388.36138L272.91463,387.88133
				L272.91463,387.64131L273.15466,387.64131L273.15466,387.40128L273.15466,387.16126L273.3947,387.16126L273.3947,386.92123L273.3947,386.68121
				L273.63473,386.68121L273.63473,386.44118L273.63473,386.20115L273.87476,386.20115L273.87476,385.96113L273.87476,385.7211L
				273.87476,385.48108L274.11479,385.48108L274.11479,385.24105L274.11479,385.00103L274.35482,385.00103L274.35482,384.761L274.35482,384.52098
				L274.59485,384.52098L274.59485,384.28095L274.83488,384.28095L274.83488,384.04092L274.83488,383.8009L274.83488,383.56087L
				275.07491,383.56087L275.07491,383.32085L275.07491,382.8408L275.31494,382.8408L275.31494,382.36075L275.31494,382.12072L275.55497,382.12072
				L275.55497,381.64067L275.55497,380.92059L275.795,380.92059L275.795,380.68057L275.55497,380.68057L275.55497,379.72046L275.795,379.72046
				L275.795,379.24041L275.795,379.00039L275.795,378.28031L275.55497,378.28031L275.55497,378.04028L275.795,378.04028L275.795,377.56023
				L275.795,376.60013L275.795,375.88005L276.03503,375.88005L276.03503,375.64003L276.03503,375.4L276.03503,375.15998L276.03503,374.67993
				L276.03503,374.4399L276.27506,374.4399L276.27506,374.19988L276.27506,373.4798L276.27506,372.99975L276.51509,372.99975L276.51509,372.5197
				L276.51509,372.27967L276.75512,372.27967L276.75512,371.79962L276.75512,371.31957L276.75512,371.07954L276.99515,371.07954
				L276.99515,370.59949L276.99515,370.35947L277.23518,370.35947L277.23518,370.11944L277.23518,369.63939L277.47521,369.63939
				L277.47521,369.15934L277.47521,368.91931L277.71524,368.91931L277.71524,368.67929L277.71524,368.43926L277.95527,368.43926
				L277.95527,367.95921L277.95527,367.47916L277.95527,367.23913L278.1953,367.23913L278.1953,366.75908L278.1953,366.51906L278.43533,366.51906
				L278.43533,366.03901L278.43533,365.79898L278.67537,365.79898L278.67537,365.31893L278.67537,364.83888L278.67537,364.1188L
				278.43533,364.1188L278.43533,363.63875L278.43533,363.1587L278.1953,363.1587L278.1953,362.67865L278.43533,362.67865L278.43533,362.91867
				L278.67537,362.91867L278.67537,363.1587L278.9154,363.1587L278.9154,363.39872L278.9154,363.63875L279.15543,363.63875L279.15543,363.87878
				L279.39546,363.87878L279.39546,364.1188L279.63549,364.1188L279.63549,364.35883L279.87552,364.35883L279.87552,364.59885L279.87552,364.83888
				L280.11555,364.83888L280.11555,365.0789L280.35558,365.0789L280.35558,365.31893L280.59561,365.31893L280.59561,365.55895L280.83564,365.55895
				L280.83564,365.79898L280.83564,366.03901L281.07567,366.03901L281.07567,366.27903L281.3157,366.27903L281.3157,366.51906L281.55573,366.51906
				L281.55573,366.75908L281.79576,366.75908L281.79576,366.99911L282.03579,366.99911L282.03579,367.23913L282.27582,367.23913
				L282.27582,367.47916L282.27582,367.71918L282.51585,367.71918L282.51585,367.95921L282.75588,367.95921L282.75588,368.19924
				L282.99591,368.19924L282.99591,368.43926L283.23594,368.43926L283.23594,368.67929L283.23594,368.91931L283.47597,368.91931
				L283.47597,369.15934L283.716,369.15934L283.716,369.39936L283.95604,369.39936L283.95604,369.63939L284.19607,369.63939L284.19607,369.87942
				L284.4361,369.87942L284.4361,370.11944L284.4361,370.35947L284.67613,370.35947L284.91616,370.35947L284.91616,370.59949L284.91616,370.83952
				L285.15619,370.83952L285.15619,371.07954L285.39622,371.07954L285.39622,371.31957L285.63625,371.31957L285.63625,371.55959
				L285.87628,371.55959L285.87628,371.79962L285.87628,372.03965L286.11631,372.03965L286.11631,372.27967L286.35634,372.27967
				L286.35634,372.5197L286.59637,372.5197L286.59637,372.75972L286.8364,372.75972L286.8364,372.99975L286.8364,373.23977L287.07643,373.23977
				L287.07643,373.4798L287.31646,373.4798L287.31646,373.71982L287.55649,373.71982L287.55649,373.95985L287.79652,373.95985L287.79652,373.71982
				L288.03655,373.71982L288.03655,373.4798L288.27658,373.4798L288.51661,373.4798L288.51661,373.23977L288.75664,373.23977L288.75664,372.99975
				L288.99668,372.99975L288.99668,372.75972L289.23671,372.75972L289.47674,372.75972L289.47674,372.5197L289.71677,372.5197L289.9568,372.5197
				L289.9568,372.27967L290.19683,372.27967L290.19683,372.03965L290.43686,372.03965L290.43686,371.79962L290.67689,371.79962L
				290.91692,371.79962L290.91692,371.55959L291.15695,371.55959L291.15695,371.31957L291.39698,371.31957L291.63701,371.31957L
				291.63701,371.07954L291.87704,371.07954L291.87704,370.83952L292.11707,370.83952L292.11707,370.59949L292.3571,370.59949L292.59713,370.59949
				L292.59713,370.35947L292.83716,370.35947L293.07719,370.35947L293.07719,370.11944L293.31722,370.11944L293.31722,369.87942
				L293.55725,369.87942L293.55725,369.63939L293.79728,369.63939L294.03731,369.63939L294.03731,369.39936L294.27735,369.39936
				L294.51738,369.39936L294.51738,369.15934L294.75741,369.15934L294.75741,368.91931L294.75741,369.15934L294.99744,369.15934
				L294.99744,369.39936L295.23747,369.39936L295.23747,369.63939L295.4775,369.63939L295.4775,369.87942L295.4775,370.11944L295.71753,370.11944
				L295.71753,370.35947L295.95756,370.35947L295.95756,370.59949L296.19759,370.59949L296.19759,370.83952L296.19759,371.07954
				L296.43762,371.07954L296.43762,371.31957L296.67765,371.31957L296.67765,371.55959L296.91768,371.55959L296.91768,371.79962
				L297.15771,371.79962L297.15771,372.03965L297.15771,372.27967L297.39774,372.27967L297.39774,372.5197L297.63777,372.5197L297.63777,372.75972
				L297.8778,372.75972L297.8778,372.99975L298.11783,372.99975L298.11783,373.23977L298.35786,373.23977L298.35786,373.4798L298.35786,373.71982
				L298.59789,373.71982L298.59789,373.95985L298.83792,373.95985L298.83792,374.19988L299.07795,374.19988L299.07795,374.4399L
				299.31798,374.4399L299.31798,374.67993L299.31798,374.91995L299.55802,374.91995L299.55802,375.15998L299.79805,375.15998L299.79805,375.4
				L300.03808,375.4L300.03808,375.64003L300.27811,375.64003L300.27811,375.88005L300.27811,376.12008L300.51814,376.12008L300.51814,376.36011
				"/>
			<path clip-path="url(#SVG_CP_2)" fill="none" stroke="#999999" stroke-width="0.96012" stroke-miterlimit="10" stroke-linecap="round" stroke-linejoin="round" d="
				M293.79728,458.44885L294.03731,458.44885L294.03731,458.20883L294.27735,458.20883L294.27735,457.9688L294.27735,457.72878L
				294.51738,457.72878L294.51738,457.48875L294.75741,457.48875L294.75741,457.24873L294.99744,457.24873L294.99744,457.0087L295.23747,457.0087
				L295.23747,456.76867L295.23747,456.28862L295.4775,456.28862L295.4775,456.0486L295.4775,455.80857L295.71753,455.80857L295.71753,455.56855
				L295.95756,455.56855L295.95756,455.32852L296.19759,455.32852L296.19759,455.0885L296.43762,455.0885L296.43762,454.84847L296.67765,454.84847
				L296.67765,454.60844L296.91768,454.60844L296.91768,454.36842L297.15771,454.36842L297.15771,454.12839L297.39774,454.12839
				L297.39774,453.88837L297.63777,453.88837L297.63777,453.64834L297.8778,453.64834L297.8778,453.40832L298.11783,453.40832L298.11783,453.16829
				L298.35786,453.16829L298.35786,452.92826L298.35786,428.44566L298.59789,428.44566L298.59789,423.40512L298.83792,423.40512
				L298.83792,423.16509L299.07795,423.16509L299.07795,422.92507L299.31798,422.92507L299.31798,422.68504L299.55802,422.68504
				L299.55802,422.44502L299.79805,422.44502L299.79805,422.20499L300.03808,422.20499L300.03808,421.96497L300.27811,421.96497
				L300.27811,421.72494L300.51814,421.72494L300.51814,421.48491L300.75817,421.48491L300.75817,421.24489L300.9982,421.24489L
				300.9982,421.00486L301.23823,421.00486L301.23823,420.76484L301.47826,420.76484L301.47826,420.52481L301.71829,420.52481L301.71829,420.28479
				L301.95832,420.28479L301.95832,420.04476L302.19835,420.04476L302.19835,419.80474L302.43838,419.80474L302.43838,416.20435
				L302.19835,416.20435L302.19835,414.7642L302.19835,414.52417L301.95832,414.52417L301.95832,414.28415L301.71829,414.28415L
				301.71829,414.04412L301.47826,414.04412L301.47826,413.8041L301.47826,411.16381L301.23823,411.16381L301.23823,376.84016L301.23823,376.60013
				L300.9982,376.60013L300.75817,376.60013L300.75817,376.36011L300.51814,376.36011L300.51814,376.12008L300.75817,376.12008L
				300.9982,376.12008L300.9982,375.88005L301.23823,375.88005L301.23823,375.64003L301.47826,375.64003L301.47826,375.4L301.71829,375.4
				L301.95832,375.4L301.95832,375.15998L302.19835,375.15998L302.19835,374.91995L302.43838,374.91995L302.43838,374.67993L302.67841,374.67993
				L302.67841,374.4399L302.91844,374.4399L303.15847,374.4399L303.15847,374.19988L303.3985,374.19988L303.3985,373.95985L303.63853,373.95985
				L303.63853,373.71982L303.87856,373.71982L303.87856,373.4798L304.11859,373.4798L304.35862,373.4798L304.35862,373.23977L304.59865,373.23977
				L304.59865,372.99975L304.83869,372.99975L304.83869,372.75972L305.07872,372.75972L305.07872,372.5197L305.31875,372.5197L305.31875,372.27967
				L305.55878,372.27967L305.79881,372.27967L305.79881,372.03965L306.03884,372.03965L306.03884,371.79962L306.27887,371.79962
				L306.27887,371.55959L306.5189,371.55959L306.5189,371.31957L306.75893,371.31957L306.99896,371.31957L306.99896,371.07954L307.23899,371.07954
				L307.23899,370.83952L307.47902,370.83952L307.47902,371.07954L307.71905,371.07954L307.95908,371.07954L307.95908,371.31957
				L308.19911,371.31957L308.43914,371.31957L308.43914,371.55959L308.67917,371.55959L308.9192,371.55959L308.9192,371.79962L309.15923,371.79962
				L309.39926,371.79962L309.39926,372.03965L309.63929,372.03965L309.63929,372.27967L309.87933,372.27967L310.11936,372.27967
				L310.11936,372.5197L310.35939,372.5197L310.59942,372.5197L310.59942,372.75972L310.83945,372.75972L311.07948,372.75972L311.07948,372.99975
				L311.31951,372.99975L311.55954,372.99975L311.55954,373.23977L311.79957,373.23977L311.79957,373.4798L312.0396,373.4798L312.0396,373.71982
				L312.27963,373.71982L312.27963,373.95985L312.51966,373.95985L312.51966,374.19988L312.51966,374.4399L312.75969,374.4399L312.99972,374.4399
				L312.99972,374.19988L313.23975,374.19988L313.23975,373.95985L313.47978,373.95985L313.47978,373.71982L313.47978,373.4798L
				313.71981,373.4798L313.71981,373.23977L313.71981,372.99975L313.95984,372.99975L313.95984,372.75972L314.19987,372.75972L314.19987,372.5197
				L314.4399,372.5197L314.4399,372.27967L314.4399,372.03965L314.4399,371.79962L314.67993,371.79962L314.67993,371.55959L314.91996,371.55959
				L314.91996,371.31957L314.91996,371.07954L315.16,371.07954L315.16,370.83952L315.40003,370.83952L315.40003,370.59949L315.40003,370.35947
				L315.64006,370.35947L315.64006,370.11944L315.64006,369.87942L315.88009,369.87942L315.88009,369.63939L316.12012,369.63939
				L316.12012,369.39936L316.12012,369.15934L315.88009,369.15934L315.88009,368.91931L315.64006,368.91931L315.64006,368.67929
				L315.40003,368.67929L315.40003,368.43926L315.16,368.43926L315.16,367.71918L315.16,367.47916L315.40003,367.47916L315.40003,367.23913
				L315.16,367.23913L315.16,366.99911L314.91996,366.99911L314.91996,366.75908L314.67993,366.75908L314.67993,366.51906L314.4399,366.51906
				L314.4399,366.27903L314.19987,366.27903L313.95984,366.27903L313.95984,366.03901L313.95984,365.79898L314.19987,365.79898L
				314.19987,365.55895L314.4399,365.55895L314.4399,365.31893L314.67993,365.31893L314.67993,365.0789L314.91996,365.0789L314.91996,364.83888
				L314.91996,364.59885L315.16,364.59885L315.16,364.35883L315.40003,364.35883L315.40003,364.1188L315.64006,364.1188L315.64006,363.87878
				L315.64006,363.63875L315.88009,363.63875L316.12012,363.63875L316.12012,363.87878L316.36015,363.87878L316.36015,364.1188L
				316.60018,364.1188L316.60018,364.35883L316.84021,364.35883L317.08024,364.35883L317.08024,364.59885L317.32027,364.59885L317.32027,364.83888
				L317.5603,364.83888L317.5603,365.0789L317.80033,365.0789L317.80033,365.31893L318.04036,365.31893L318.04036,365.55895L318.28039,365.55895
				L318.52042,365.55895L318.52042,365.31893L318.52042,365.0789L318.76045,365.0789L318.76045,364.83888L319.00048,364.83888L319.00048,364.59885
				L319.00048,364.35883L319.24051,364.35883L319.24051,364.1188L319.48054,364.1188L319.48054,363.87878L319.48054,363.63875L319.72057,363.63875
				L319.72057,363.39872L319.72057,363.1587L319.9606,363.1587L319.9606,362.91867L319.9606,362.67865L320.20063,362.67865L320.20063,362.43862
				L320.20063,362.1986L320.44067,362.1986L320.44067,361.95857L320.44067,361.71855L320.6807,361.71855L320.6807,361.47852L320.6807,361.23849
				L320.6807,360.99847L320.92073,360.99847L320.92073,360.75844L320.92073,360.27839L321.16076,360.27839L321.16076,360.03837L
				321.40079,360.03837L321.40079,359.79834L321.40079,359.55832L321.64082,359.55832L321.64082,359.07826L321.64082,358.83824L
				321.64082,358.59821L321.88085,358.59821L321.88085,358.35819L321.88085,358.11816L322.12088,358.11816L322.12088,357.63811L
				322.12088,357.39809L322.36091,357.39809L322.36091,357.15806L322.36091,356.91803L322.60094,356.91803L322.60094,356.43798L
				322.60094,356.19796L322.60094,355.95793L322.84097,355.95793L322.84097,355.71791L322.84097,355.47788L323.081,355.47788L323.081,355.23785
				L323.081,354.99783L323.32103,354.99783L323.32103,354.7578L323.32103,354.51778L323.56106,354.51778L323.56106,354.27775L323.80109,354.27775
				L323.80109,354.03773L324.04112,354.03773L324.28115,354.03773L324.28115,354.51778L324.52118,354.51778L324.52118,354.99783
				L324.76121,354.99783L324.76121,355.23785L324.76121,355.47788L325.00124,355.47788L325.00124,355.95793L325.00124,356.19796
				L325.24127,356.19796L325.24127,356.43798L325.24127,356.67801L325.48131,356.67801L325.48131,356.91803L325.48131,357.15806
				L325.72134,357.15806L325.72134,357.39809L325.72134,357.63811L325.96137,357.63811L325.96137,357.87814L325.96137,358.11816
				L326.2014,358.11816L326.2014,358.35819L326.44143,358.35819L326.44143,358.59821L326.44143,358.83824L326.68146,358.83824L326.68146,359.07826
				L326.92149,359.07826L326.92149,359.31829L327.16152,359.31829L327.16152,359.55832L327.40155,359.55832L327.40155,359.79834
				L327.64158,359.79834L327.64158,360.03837L327.88161,360.03837L327.88161,360.27839L328.12164,360.27839L328.12164,360.51842
				L328.36167,360.51842L328.36167,360.75844L328.6017,360.75844L328.6017,360.99847L328.84173,360.99847L328.84173,361.23849L329.08176,361.23849
				L329.08176,361.47852L329.32179,361.47852L329.56182,361.47852L329.56182,361.71855L329.80185,361.71855L329.80185,361.95857
				L330.04188,361.95857L330.04188,362.1986L330.28191,362.1986L330.52194,362.1986L330.52194,362.43862L331.00201,362.43862L331.24204,362.43862
				L331.24204,362.67865L331.48207,362.67865L331.96213,362.67865L331.96213,362.91867L332.44219,362.91867L332.44219,363.1587L
				333.40231,363.1587L333.64234,363.1587L333.88237,363.1587L333.88237,363.39872L334.1224,363.39872L334.36243,363.39872L334.36243,363.63875
				L342.7635,363.63875L342.7635,363.39872L342.52347,363.39872L342.52347,363.1587L342.28344,363.1587L342.28344,362.91867L342.04341,362.91867
				L341.80338,362.91867L341.80338,362.67865L341.32332,362.67865L341.32332,362.43862L341.08328,362.43862L341.08328,362.1986L
				340.84325,362.1986L340.84325,361.95857L340.60322,361.95857L340.60322,361.71855L340.36319,361.71855L340.36319,361.47852L340.12316,361.47852
				L340.12316,361.23849L339.88313,361.23849L339.88313,360.99847L339.6431,360.99847L339.6431,360.75844L339.40307,360.75844L339.40307,360.51842
				L339.16304,360.51842L339.16304,360.27839L338.92301,360.27839L338.92301,360.03837L338.68298,360.03837L338.68298,359.79834
				L338.44295,359.79834L338.44295,359.55832L338.20292,359.55832L338.20292,359.31829L337.96289,359.31829L337.96289,359.07826
				L337.72286,359.07826L337.72286,358.83824L337.48283,358.83824L337.48283,358.59821L337.2428,358.59821L337.2428,358.35819L337.00277,358.35819
				L337.00277,358.11816L336.76274,358.11816L336.76274,357.87814L336.52271,357.87814L336.52271,357.63811L336.28268,357.63811
				L336.28268,357.39809L336.04265,357.39809L336.04265,357.15806L335.80261,357.15806L335.80261,356.91803L335.56258,356.91803
				L335.56258,356.67801L335.32255,356.67801L335.32255,356.43798L335.08252,356.43798L335.08252,356.19796L334.84249,356.19796
				L334.84249,355.95793L334.60246,355.95793L334.60246,355.71791L334.36243,355.71791L334.36243,355.47788L334.1224,355.47788L
				334.1224,355.23785L333.88237,355.23785L333.88237,354.99783L333.64234,354.99783L333.64234,354.7578L333.40231,354.7578L333.40231,354.51778
				L333.16228,354.51778L333.16228,354.27775L332.92225,354.27775L332.92225,354.03773L332.68222,354.03773L332.68222,353.7977L
				332.44219,353.7977L332.44219,353.55768L332.20216,353.55768L332.20216,353.31765L331.96213,353.31765L331.96213,353.07762L331.7221,353.07762
				L331.7221,352.8376L331.48207,352.8376L331.48207,352.59757L331.24204,352.59757L331.24204,352.35755L331.00201,352.35755L331.00201,352.11752
				L330.76198,352.11752L330.76198,351.8775L330.52194,351.8775L330.52194,351.63747L330.28191,351.63747L330.28191,351.39745L330.04188,351.39745
				L330.04188,351.15742L329.80185,351.15742L329.80185,350.91739L329.56182,350.91739L329.56182,350.67737L329.32179,350.67737
				L329.32179,350.43734L329.08176,350.43734L329.08176,350.19732L328.84173,350.19732L328.84173,349.95729L328.6017,349.95729L
				328.6017,349.71727L328.36167,349.71727L328.36167,349.47724L328.12164,349.47724L328.12164,349.23722L328.12164,348.99719L328.36167,348.99719
				L328.36167,348.75716L328.6017,348.75716L328.6017,348.51714L328.6017,348.27711L328.84173,348.27711L328.84173,348.03709L328.84173,347.79706
				L328.84173,347.55704L329.08176,347.55704L329.08176,347.31701L329.08176,347.07699L329.32179,347.07699L329.32179,346.83696
				L329.32179,346.59693L329.56182,346.59693L329.56182,346.11688L329.56182,345.87686L329.80185,345.87686L329.80185,345.63683
				L329.56182,345.63683L329.56182,345.39681L329.32179,345.39681L329.08176,345.39681L329.08176,345.15678L328.84173,345.15678
				L329.32179,345.15678L329.32179,344.91676L329.56182,344.91676L329.80185,344.91676L329.80185,344.67673L330.04188,344.67673
				L330.52194,344.67673L330.52194,344.4367L330.76198,344.4367L331.00201,344.4367L331.48207,344.4367L331.48207,344.67673L331.7221,344.67673
				L332.20216,344.67673L332.20216,344.91676L332.68222,344.91676L332.92225,344.91676L333.16228,344.91676L333.16228,345.15678
				L333.64234,345.15678L333.88237,345.15678L333.88237,345.39681L334.1224,345.39681L334.36243,345.39681L334.36243,345.63683L
				334.60246,345.63683L334.84249,345.63683L334.84249,345.87686L335.08252,345.87686L335.32255,345.87686L335.32255,346.11688L
				335.56258,346.11688L335.56258,346.35691L335.80261,346.35691L335.80261,346.59693L336.04265,346.59693L336.04265,346.83696L
				336.04265,347.07699L336.28268,347.07699L336.52271,347.07699L336.52271,347.31701L336.76274,347.31701L336.76274,347.55704L
				337.00277,347.55704L337.00277,347.79706L337.00277,348.03709L337.2428,348.03709L337.48283,348.03709L337.48283,348.27711L337.72286,348.27711
				L337.72286,348.51714L337.96289,348.51714L337.96289,348.75716L337.96289,348.99719L338.20292,348.99719L338.44295,348.99719
				L338.44295,349.23722L338.68298,349.23722L338.68298,349.47724L338.92301,349.47724L338.92301,349.71727L338.92301,349.95729
				L339.16304,349.95729L339.40307,349.95729L339.40307,350.19732L339.6431,350.19732L339.6431,350.43734L339.88313,350.43734L339.88313,350.67737
				L340.12316,350.67737L340.12316,350.91739L340.36319,350.91739L340.36319,351.15742L340.60322,351.15742L340.60322,351.39745
				L340.84325,351.39745L340.84325,351.63747L341.08328,351.63747L341.08328,351.8775L341.08328,352.11752L341.32332,352.11752L
				341.56335,352.11752L341.56335,352.35755L341.80338,352.35755L341.80338,352.59757L342.04341,352.59757L342.04341,352.8376L342.04341,353.07762
				L342.28344,353.07762L342.52347,353.07762L342.52347,353.31765L342.7635,353.31765L342.7635,353.55768L343.00353,353.55768L343.00353,353.7977
				L343.00353,354.03773L343.24356,354.03773L343.48359,354.03773L343.48359,354.27775L343.72362,354.27775L343.72362,354.51778
				L343.96365,354.51778L343.96365,354.7578L344.20368,354.7578L344.20368,354.99783L344.44371,354.99783L344.44371,355.23785L344.68374,355.23785
				L344.68374,355.47788L344.92377,355.47788L344.92377,355.71791L345.1638,355.71791L345.1638,355.95793L345.1638,356.19796L345.40383,356.19796
				L345.64386,356.19796L345.64386,356.43798L345.88389,356.43798L345.88389,356.67801L345.88389,356.91803L346.12392,356.91803
				L346.12392,357.15806L346.36396,357.15806L346.36396,357.39809L346.60399,357.39809L346.60399,357.63811L346.84402,357.63811
				L346.84402,357.87814L347.08405,357.87814L347.08405,358.11816L347.32408,358.11816L347.32408,358.35819L347.56411,358.35819
				L347.56411,358.59821L347.80414,358.59821L347.80414,358.83824L348.04417,358.83824L348.04417,359.07826L348.2842,359.07826L
				348.2842,359.31829L348.52423,359.31829L348.52423,359.55832L348.76426,359.55832L348.76426,359.79834L349.00429,359.79834L349.00429,360.03837
				L349.24432,360.03837L349.24432,360.27839L349.48435,360.27839L349.48435,360.51842L349.72438,360.51842L349.72438,360.75844
				L349.96441,360.75844L349.96441,360.99847L350.20444,360.99847L350.20444,361.23849L350.44447,361.23849L350.6845,361.23849L
				350.6845,361.47852L350.92453,361.47852L350.92453,361.71855L351.16456,361.71855L351.16456,361.95857L351.40459,361.95857L351.40459,362.1986
				L351.64463,362.1986L351.64463,362.43862L351.88466,362.43862L351.88466,362.67865L352.12469,362.67865L352.12469,362.91867L
				352.36472,362.91867L352.36472,363.1587L352.60475,363.1587L352.60475,363.39872L352.84478,363.39872L352.84478,363.63875L353.08481,363.63875
				L353.08481,363.87878L353.32484,363.87878L353.32484,364.1188L353.56487,364.1188L353.56487,364.35883L353.8049,364.35883L354.04493,364.35883
				L354.04493,364.59885L354.28496,364.59885L354.28496,364.83888L354.28496,365.0789L354.52499,365.0789L354.52499,365.31893L354.76502,365.31893
				L355.00505,365.31893L355.00505,365.55895L355.24508,365.55895L355.24508,365.79898L355.24508,366.03901L355.48511,366.03901
				L355.48511,366.27903L355.72514,366.27903L355.96517,366.27903L355.96517,366.51906L356.2052,366.51906L356.2052,366.75908L356.44523,366.75908
				L356.44523,366.99911L356.44523,367.23913L356.68526,367.23913L356.9253,367.23913L356.9253,367.47916L357.16533,367.47916L357.16533,367.71918
				L357.40536,367.71918L357.40536,367.95921L357.40536,368.19924L357.64539,368.19924L357.64539,368.43926L357.88542,368.43926
				L358.12545,368.43926L358.12545,368.67929L358.36548,368.67929L358.36548,368.91931L358.36548,369.15934L358.60551,369.15934
				L358.60551,369.39936L358.84554,369.39936L359.08557,369.39936L359.08557,369.63939L359.3256,369.63939L359.3256,369.87942L359.3256,370.11944
				L359.56563,370.11944L359.56563,370.35947L359.80566,370.35947L360.04569,370.35947L360.04569,370.59949L360.28572,370.59949
				L360.28572,370.83952L360.52575,370.83952L360.52575,371.07954L360.52575,371.31957L360.76578,371.31957L361.00581,371.31957
				L361.00581,371.55959L361.24584,371.55959L361.24584,371.79962L361.48587,371.79962L361.48587,372.03965L361.48587,372.27967
				L361.7259,372.27967L361.7259,372.5197L361.96594,372.5197L362.20597,372.5197L362.20597,372.75972L362.446,372.75972L362.446,372.99975
				L362.446,373.23977L362.68603,373.23977L362.68603,373.4798L362.92606,373.4798L363.16609,373.4798L363.16609,373.71982L363.40612,373.71982
				L363.40612,373.95985L363.40612,374.19988L363.64615,374.19988L363.64615,374.4399L363.88618,374.4399L363.88618,374.67993L364.12621,374.67993
				L364.12621,374.91995L364.36624,374.91995L364.36624,375.15998L364.60627,375.15998L364.60627,375.4L364.8463,375.4L364.8463,375.64003
				L365.08633,375.64003L365.08633,375.88005L365.32636,375.88005L365.32636,376.12008L365.56639,376.12008L365.56639,376.36011
				L365.80642,376.36011L365.80642,376.60013L366.04645,376.60013L366.04645,376.84016L366.28648,376.84016L366.28648,377.08018
				L366.52651,377.08018L366.52651,377.32021L366.76654,377.32021L366.76654,377.56023L367.00657,377.56023L367.00657,377.80026
				L367.24661,377.80026L367.24661,378.04028L367.48664,378.04028L367.48664,378.28031L367.72667,378.28031L367.72667,378.52034
				L367.9667,378.52034L367.9667,378.76036L368.20673,378.76036L368.20673,379.00039L368.44676,379.00039L368.44676,379.24041L368.68679,379.24041
				L368.68679,379.48044L368.92682,379.48044L368.92682,379.72046L369.16685,379.72046L369.16685,379.96049L369.40688,379.96049
				L369.40688,380.20051L369.64691,380.20051L369.64691,380.44054L369.88694,380.44054L369.88694,380.68057L370.12697,380.68057
				L370.12697,380.92059L370.367,380.92059L370.367,381.16062L370.60703,381.16062L370.60703,381.40064L370.84706,381.40064L370.84706,381.64067
				L371.08709,381.64067L371.08709,381.88069L371.32712,381.88069L371.32712,382.12072L371.56715,382.12072L371.56715,382.36075
				L371.80718,382.36075L371.80718,382.60077L372.04721,382.60077L372.04721,382.8408L372.28724,382.8408L372.28724,383.08082L372.52728,383.08082
				L372.52728,383.32085L372.76731,383.32085L372.76731,383.56087L373.00734,383.56087L373.00734,383.8009L373.24737,383.8009L373.24737,384.04092
				L373.4874,384.04092L373.4874,384.28095L373.72743,384.28095L373.72743,384.52098L373.96746,384.52098L373.96746,384.761L374.20749,384.761
				L374.20749,385.00103L374.44752,385.00103L374.44752,385.24105L374.68755,385.24105L374.68755,385.48108L374.92758,385.48108
				L374.92758,385.7211L375.16761,385.7211L375.16761,385.96113L375.40764,385.96113L375.40764,386.20115L375.64767,386.20115L375.64767,386.44118
				L375.8877,386.44118L375.8877,386.68121L376.12773,386.68121L376.12773,386.92123L376.36776,386.92123L376.36776,387.16126L376.60779,387.16126
				L376.60779,387.40128L376.84782,387.40128L376.84782,387.64131L377.08785,387.64131L377.08785,387.88133L377.32788,387.88133
				L377.32788,388.12136L377.56791,388.12136L377.56791,388.36138L377.80795,388.36138L377.80795,388.60141L378.04798,388.60141
				L378.04798,388.84144L378.28801,388.84144L378.28801,389.08146L378.52804,389.08146L378.52804,389.32149L378.76807,389.32149
				L378.76807,389.56151L379.0081,389.56151L379.0081,389.80154L379.24813,389.80154L379.24813,390.04156L379.48816,390.04156L379.48816,390.28159
				L379.72819,390.28159L379.72819,390.52161L379.96822,390.52161L379.96822,390.76164L380.20825,390.76164L380.20825,391.00167
				L380.44828,391.00167L380.44828,391.24169L380.68831,391.24169L380.68831,391.48172L380.68831,391.72174L380.92834,391.72174
				L381.16837,391.72174L381.16837,391.96177L381.4084,391.96177L381.4084,392.20179L381.64843,392.20179L381.64843,392.44182L381.88846,392.44182
				L381.88846,392.68185L382.12849,392.68185L382.12849,392.92187L382.36852,392.92187L382.36852,393.1619L382.60855,393.1619L382.60855,393.40192
				L382.84859,393.40192L382.84859,393.64195L383.08862,393.64195L383.08862,393.88197L383.32865,393.88197L383.32865,394.122L383.56868,394.122
				L383.56868,394.36202L383.80871,394.36202L383.80871,394.60205L384.04874,394.60205L384.04874,394.84208L384.28877,394.84208
				L384.28877,395.0821L384.5288,395.0821L384.5288,395.32213L384.76883,395.32213L384.76883,395.56215L385.00886,395.56215L385.00886,395.80218
				L385.24889,395.80218L385.24889,396.0422L385.48892,396.0422L385.48892,396.28223L385.72895,396.28223L385.72895,396.52225L385.96898,396.52225
				L385.96898,396.76228L386.20901,396.76228L386.20901,397.00231L386.44904,397.00231L386.44904,397.24233"/>
			<path clip-path="url(#SVG_CP_2)" fill="none" stroke="#999999" stroke-width="0.96012" stroke-miterlimit="10" stroke-linecap="round" stroke-linejoin="round" d="
				M386.44904,397.24233L386.68907,397.24233L386.68907,397.48236L386.9291,397.48236L386.9291,397.72238L387.16913,397.72238L387.16913,397.96241
				L387.40916,397.96241L387.40916,398.20243L387.64919,398.20243L387.64919,398.44246L387.88922,398.44246L387.88922,398.68248
				L388.12926,398.68248L388.12926,398.92251L388.36929,398.92251L388.36929,399.16254L388.60932,399.16254L388.60932,399.40256
				L388.84935,399.40256L388.84935,399.64259L389.08938,399.64259L389.08938,399.88261L389.32941,399.88261L389.32941,400.12264
				L389.56944,400.12264L389.56944,400.36266L389.80947,400.36266L389.80947,400.60269L390.0495,400.60269L390.0495,400.84271L390.28953,400.84271
				L390.28953,401.08274L390.52956,401.08274L390.52956,401.32277L390.76959,401.32277L390.76959,401.56279L391.00962,401.56279
				L391.00962,401.80282L391.24965,401.80282L391.24965,402.04284L391.48968,402.04284L391.48968,402.28287L391.72971,402.28287
				L391.72971,402.52289L391.96974,402.52289L391.96974,402.76292L392.20977,402.76292L392.20977,403.00294L392.4498,403.00294L
				392.4498,403.24297L392.68983,403.24297L392.68983,403.483L392.92986,403.483L392.92986,403.72302L393.16989,403.72302L393.16989,403.96305
				L393.40993,403.96305L393.40993,404.20307L393.64996,404.20307L393.64996,404.4431L393.88999,404.4431L393.88999,404.68312L394.13002,404.68312
				L394.13002,404.92315L394.37005,404.92315L394.37005,405.16318L394.61008,405.16318L394.61008,405.4032L394.85011,405.4032L394.85011,405.64323
				L395.09014,405.64323L395.09014,405.88325L395.33017,405.88325L395.33017,406.12328L395.5702,406.12328L395.5702,406.3633L395.81023,406.3633
				L395.81023,406.60333L396.05026,406.60333L396.05026,406.84335L396.29029,406.84335L396.29029,407.08338L396.53032,407.08338
				L396.53032,407.32341L396.77035,407.32341L396.77035,407.56343L397.01038,407.56343L397.01038,407.80346L397.25041,407.80346
				L397.25041,408.04348L397.49044,408.04348L397.49044,408.28351L397.73047,408.28351L397.73047,408.52353L397.9705,408.52353L
				397.9705,408.76356L398.21053,408.76356L398.21053,409.00358L398.45057,409.00358L398.45057,409.24361L398.6906,409.24361L398.6906,409.48364
				L398.93063,409.48364L398.93063,409.72366L399.17066,409.72366L399.17066,409.96369L399.41069,409.96369L399.41069,410.20371
				L399.65072,410.20371L399.65072,410.44374L399.89075,410.44374L399.89075,410.68376L400.13078,410.68376L400.13078,410.92379
				L400.37081,410.92379L400.37081,411.16381L400.61084,411.16381L400.61084,411.40384L400.85087,411.40384L400.85087,411.64387
				L401.0909,411.64387L401.0909,411.88389L401.33093,411.88389L401.33093,412.12392L401.57096,412.12392L401.57096,412.36394L401.81099,412.36394
				L401.81099,412.84399L402.05102,412.84399L402.05102,413.08402L402.05102,413.32404L402.29105,413.32404L402.29105,413.56407
				L402.29105,413.8041L402.29105,414.04412L402.53108,414.04412L402.53108,414.52417L402.53108,415.00422L402.77111,415.00422L
				402.77111,415.24425L402.77111,415.48427L403.01114,415.48427L403.01114,415.7243L403.01114,415.96433L403.25117,415.96433L403.25117,416.20435
				L403.25117,416.44438L403.25117,416.6844L403.4912,416.6844L403.4912,416.92443L403.4912,417.16445L403.73124,417.16445L403.73124,417.40448
				L403.73124,418.36458L403.97127,418.36458L403.97127,419.08466L403.97127,420.28479L404.2113,420.28479L404.2113,421.24489L404.2113,421.96497
				L404.2113,422.92507L404.45133,422.92507L404.45133,423.64514L404.45133,423.88517L404.45133,423.64514L404.2113,423.64514L404.2113,423.40512
				L403.97127,423.40512L403.97127,423.16509L403.97127,422.92507L403.73124,422.92507L403.73124,422.68504L403.73124,422.44502
				L403.4912,422.44502L403.4912,422.20499L403.25117,422.20499L403.25117,421.96497L403.25117,421.72494L403.01114,421.72494L403.01114,421.48491
				L403.01114,421.24489L402.77111,421.24489L402.77111,421.00486L402.53108,421.00486L402.53108,420.76484L402.29105,420.76484
				L402.29105,420.52481L402.29105,420.28479L402.05102,420.28479L402.05102,420.04476L401.81099,420.04476L401.57096,420.04476
				L401.57096,420.28479L401.33093,420.28479L401.33093,420.52481L401.0909,420.52481L401.0909,420.76484L401.0909,421.00486L400.85087,421.00486
				L400.85087,421.24489L400.61084,421.24489L400.61084,421.48491L400.37081,421.48491L400.37081,421.72494L400.13078,421.72494
				L400.13078,421.96497L399.89075,421.96497L399.89075,422.20499L399.65072,422.20499L399.65072,422.44502L399.41069,422.44502
				L399.41069,422.68504L399.17066,422.68504L399.17066,422.92507L398.93063,422.92507L398.93063,423.16509L398.6906,423.16509L
				398.6906,423.40512L398.45057,423.40512L398.45057,423.64514L398.21053,423.64514L398.21053,423.88517L397.9705,423.88517L397.9705,424.1252
				L397.73047,424.1252L397.73047,424.36522L397.49044,424.36522L397.49044,424.60525L397.25041,424.60525L397.25041,424.84527L
				397.01038,424.84527L397.01038,425.0853L396.77035,425.0853L396.77035,425.32532L396.53032,425.32532L396.53032,425.56535L396.29029,425.56535
				L396.29029,425.80537L396.05026,425.80537L396.05026,426.0454L395.81023,426.0454L395.81023,426.28543L395.5702,426.28543L395.5702,426.52545
				L395.33017,426.52545L395.33017,426.76548L395.09014,426.76548L395.09014,427.0055L394.85011,427.0055L394.85011,427.24553L394.61008,427.24553
				L394.61008,427.48555L394.37005,427.48555L394.37005,427.72558L394.13002,427.72558L394.13002,427.9656L394.13002,428.20563L
				393.88999,428.20563L393.88999,428.44566L393.64996,428.44566L393.40993,428.44566L393.40993,428.68568L393.16989,428.68568L
				393.16989,428.92571L392.92986,428.92571L392.92986,429.16573L392.92986,429.40576L392.68983,429.40576L392.4498,429.40576L392.4498,429.64578
				L392.20977,429.64578L392.20977,429.88581L391.96974,429.88581L391.96974,430.12584L391.72971,430.12584L391.72971,430.36586
				L391.48968,430.36586L391.48968,430.60589L391.24965,430.60589L391.00962,430.60589L391.00962,430.84591L391.00962,431.08594
				L390.76959,431.08594L390.76959,431.32596L390.52956,431.32596L390.52956,431.56599L390.28953,431.56599L390.0495,431.56599L
				390.0495,431.80601L390.0495,432.04604L389.80947,432.04604L389.80947,432.28607L389.56944,432.28607L389.56944,432.52609L389.32941,432.52609
				L389.32941,433.00614L389.56944,433.00614L389.56944,433.48619L389.56944,433.96624L389.80947,433.96624L389.80947,434.4463L
				389.56944,434.4463L389.56944,434.68632L389.32941,434.68632L389.32941,434.92635L389.08938,434.92635L389.08938,435.16637L388.84935,435.16637
				L388.84935,435.4064L388.60932,435.4064L388.60932,435.64642L388.36929,435.64642L388.12926,435.64642L388.12926,435.88645L387.88922,435.88645
				L387.88922,436.12647L387.88922,436.3665L387.64919,436.3665L387.64919,436.60653L387.40916,436.60653L387.16913,436.60653L387.16913,436.84655
				L386.9291,436.84655L386.9291,437.08658L386.9291,437.3266L386.68907,437.3266L386.44904,437.3266L386.44904,437.56663L386.20901,437.56663
				L385.96898,437.56663L385.96898,437.80665L385.72895,437.80665L385.72895,438.04668L385.48892,438.04668L385.48892,438.2867L
				385.24889,438.2867L385.00886,438.2867L385.00886,438.52673L384.76883,438.52673L384.76883,438.76676L384.5288,438.76676L384.28877,438.76676
				L384.28877,439.00678L384.04874,439.00678L384.04874,439.24681L383.80871,439.24681L383.80871,439.48683L383.56868,439.48683
				L383.32865,439.48683L383.32865,439.72686L383.08862,439.72686L382.84859,439.72686L382.84859,439.48683L382.60855,439.48683
				L382.60855,439.24681L382.36852,439.24681L382.36852,439.00678L382.12849,439.00678L382.12849,438.76676L381.88846,438.76676
				L381.88846,438.52673L381.64843,438.52673L381.64843,438.2867L381.4084,438.2867L381.4084,438.04668L381.16837,438.04668L381.16837,437.80665
				L380.92834,437.80665L380.92834,437.56663L380.68831,437.56663L380.68831,437.3266L380.44828,437.3266L380.44828,437.08658L380.20825,437.08658
				L380.20825,436.84655L379.96822,436.84655L379.96822,437.08658L379.72819,437.08658L379.72819,437.3266L379.48816,437.3266L379.24813,437.3266
				L379.24813,437.56663L379.0081,437.56663L378.76807,437.56663L378.52804,437.56663L378.52804,437.80665L378.28801,437.80665L
				378.04798,437.80665L378.04798,438.04668L377.80795,438.04668L377.56791,438.04668L377.56791,437.80665L377.56791,437.56663L
				377.32788,437.56663L377.32788,437.3266L377.32788,437.08658L377.08785,437.08658L377.08785,436.84655L376.84782,436.84655L376.84782,436.60653
				L376.84782,436.3665L376.60779,436.3665L376.60779,436.60653L376.36776,436.60653L376.36776,436.84655L376.36776,437.08658L376.12773,437.08658
				L376.12773,437.3266L375.8877,437.3266L375.8877,437.56663L375.64767,437.56663L375.64767,437.80665L375.40764,437.80665L375.40764,438.04668
				L375.40764,438.2867L375.16761,438.2867L375.16761,438.52673L374.92758,438.52673L374.92758,438.76676L374.68755,438.76676L374.68755,439.00678
				L374.68755,439.24681L374.44752,439.24681L374.44752,439.48683L374.20749,439.48683L374.20749,439.72686L373.96746,439.72686
				L373.96746,439.96688L373.72743,439.96688L373.72743,440.20691L373.72743,440.44693L373.4874,440.44693L373.4874,440.68696L373.24737,440.68696
				L373.24737,440.92699L373.00734,440.92699L373.00734,441.16701L373.00734,441.40704L372.76731,441.40704L372.76731,441.64706
				L372.52728,441.64706L372.52728,441.88709L372.28724,441.88709L372.28724,442.12711L372.04721,442.12711L372.04721,442.36714
				L371.80718,442.36714L371.80718,442.60717L371.56715,442.60717L371.56715,442.84719L371.32712,442.84719L371.32712,443.08722
				L371.08709,443.08722L371.08709,443.32724L370.84706,443.32724L370.84706,443.56727L370.60703,443.56727L370.60703,443.80729
				L370.367,443.80729L370.12697,443.80729L370.12697,444.04732L369.88694,444.04732L369.88694,444.28734L369.64691,444.28734L369.64691,444.52737
				L369.40688,444.52737L369.40688,444.7674L369.16685,444.7674L368.92682,444.7674L368.92682,445.00742L368.68679,445.00742L368.68679,445.24745
				L368.44676,445.24745L368.44676,445.7275L368.68679,445.7275L368.68679,445.96752L368.68679,446.20755L368.68679,446.6876L368.92682,446.6876
				L368.92682,446.92763L368.92682,447.16765L369.16685,447.16765L369.16685,447.40768L369.16685,447.6477L369.40688,447.6477L369.40688,447.88773
				L369.40688,448.12775L369.64691,448.12775L369.64691,448.6078L369.64691,448.84783L369.64691,449.08786L369.88694,449.08786L
				369.88694,449.32788L369.88694,449.56791L370.12697,449.56791L370.12697,449.80793L370.12697,450.28798L370.367,450.28798L370.367,450.52801
				L370.367,450.76803L370.60703,450.76803L370.60703,451.00806L370.60703,451.24809L370.60703,451.72814L370.84706,451.72814L370.84706,451.96816
				L370.84706,452.20819L371.08709,452.20819L371.08709,452.44821L371.08709,452.68824L371.32712,452.68824L371.32712,452.92826
				L371.32712,453.16829L371.56715,453.16829L371.56715,453.40832L371.56715,453.88837L371.56715,454.12839L371.80718,454.12839
				L371.80718,454.36842L371.80718,454.60844L372.04721,454.60844L372.04721,454.84847L372.04721,455.0885L372.28724,455.0885L372.28724,455.32852
				L372.28724,455.80857L372.52728,455.80857L372.52728,456.0486L372.52728,456.28862L372.28724,456.28862L372.28724,456.52865L
				372.04721,456.52865L372.04721,456.0486L371.80718,456.0486L371.80718,455.80857L371.56715,455.80857L371.56715,455.56855L371.56715,455.32852
				L371.32712,455.32852L371.32712,455.0885L371.08709,455.0885L371.08709,454.84847L370.84706,454.84847L370.84706,454.60844L370.60703,454.60844
				L370.60703,454.36842L370.60703,454.12839L370.367,454.12839L370.367,453.88837L370.12697,453.88837L369.88694,453.88837L369.88694,453.64834
				L369.64691,453.64834L369.64691,453.40832L369.64691,453.16829L369.40688,453.16829L369.40688,452.92826L369.16685,452.92826
				L369.16685,452.68824L368.92682,452.68824L368.92682,452.44821L368.68679,452.44821L368.68679,452.20819L368.44676,452.20819
				L368.44676,451.96816L368.20673,451.96816L367.9667,451.96816L367.48664,451.96816L367.48664,451.72814L367.24661,451.72814L
				367.24661,451.48811L367.00657,451.48811L366.52651,451.48811L366.52651,451.24809L366.52651,451.96816L366.28648,451.96816L
				366.52651,451.96816L366.52651,452.20819L366.28648,452.20819L366.28648,452.68824L366.28648,453.40832L366.28648,453.88837L
				366.52651,453.88837L366.52651,454.12839L366.52651,454.84847L366.52651,455.0885L366.76654,455.0885L366.76654,455.32852L366.76654,455.56855
				L367.00657,455.56855L367.00657,455.80857L367.00657,456.28862L367.24661,456.28862L367.24661,457.24873L367.24661,458.20883
				L367.48664,458.20883L367.48664,458.68888L367.24661,458.68888L367.24661,458.44885L367.00657,458.44885L367.00657,458.20883
				L367.00657,457.9688L366.76654,457.9688L366.76654,457.72878L366.52651,457.72878L366.52651,457.48875L366.52651,457.24873L366.28648,457.24873
				L366.28648,457.0087L366.04645,457.0087L366.04645,456.76867L366.04645,456.52865L365.80642,456.52865L365.80642,456.28862L365.56639,456.28862
				L365.56639,456.0486L365.32636,456.0486L365.08633,456.0486L365.08633,456.28862L364.8463,456.28862L364.8463,456.0486L364.60627,456.0486
				L364.60627,455.80857L364.60627,455.56855L364.36624,455.56855L364.36624,455.32852L364.12621,455.32852L364.12621,455.0885L
				363.88618,455.0885L363.88618,454.84847L363.88618,454.60844L363.64615,454.60844L363.64615,454.36842L363.40612,454.36842L363.40612,454.12839
				L363.40612,453.88837L363.16609,453.88837L363.16609,453.64834L362.92606,453.64834L362.92606,453.40832L362.92606,453.16829
				L362.68603,453.16829L362.68603,452.92826L362.446,452.92826L362.446,452.68824L362.20597,452.68824L362.20597,452.92826L361.96594,452.92826
				L361.7259,452.92826L361.48587,452.92826L361.48587,453.16829L361.24584,453.16829L361.24584,453.40832L361.00581,453.40832L
				360.76578,453.40832L360.76578,453.64834L360.52575,453.64834L360.52575,453.88837L360.28572,453.88837L360.04569,453.88837L
				359.80566,453.88837L359.80566,454.12839L359.56563,454.12839L359.3256,454.12839L359.3256,453.88837L359.3256,453.64834L359.08557,453.64834
				L359.08557,453.40832L359.08557,453.16829L358.84554,453.16829L358.84554,452.92826L358.60551,452.92826L358.60551,452.68824
				L358.60551,452.44821L358.36548,452.44821L358.36548,452.20819L358.36548,451.96816L358.12545,451.96816L358.12545,451.72814
				L357.88542,451.72814L357.64539,451.72814L357.64539,451.96816L357.40536,451.96816L357.16533,451.96816L357.16533,452.20819
				L356.9253,452.20819L356.9253,452.44821L356.68526,452.44821L356.44523,452.44821L356.44523,452.68824L356.2052,452.68824L356.2052,452.92826
				L355.96517,452.92826L355.72514,452.92826L355.48511,452.92826L355.48511,453.16829L355.24508,453.16829L355.24508,453.40832
				L355.00505,453.40832L355.00505,453.64834L354.76502,453.64834L354.52499,453.64834L354.52499,453.88837L354.28496,453.88837
				L354.04493,453.88837L354.04493,454.12839L353.8049,454.12839L353.56487,454.12839L353.56487,454.36842L353.32484,454.36842L
				353.32484,454.60844L353.08481,454.60844L353.08481,454.84847L352.84478,454.84847L352.60475,454.84847L352.60475,455.0885L352.36472,455.0885
				L352.12469,455.0885L352.12469,455.32852L351.88466,455.32852L351.64463,455.32852L351.64463,455.56855L351.40459,455.56855L
				351.16456,455.56855L351.16456,455.80857L350.92453,455.80857L350.92453,456.0486L350.6845,456.0486L350.44447,456.0486L350.20444,456.0486
				L350.20444,456.28862L349.96441,456.28862L349.96441,456.52865L349.72438,456.52865L349.48435,456.52865L349.48435,456.76867
				L349.24432,456.76867L349.24432,457.0087L349.00429,457.0087L348.76426,457.0087L348.52423,457.0087L348.52423,457.24873L348.2842,457.24873
				L348.2842,457.48875L348.04417,457.48875L347.80414,457.48875L347.80414,457.72878L347.56411,457.72878L347.32408,457.72878L
				347.32408,457.9688L347.08405,457.9688L346.84402,457.9688L346.84402,458.20883L346.60399,458.20883L346.36396,458.20883L346.36396,458.44885
				L346.12392,458.44885L346.12392,458.68888L345.88389,458.68888L345.64386,458.68888L345.64386,458.9289L345.40383,458.9289L345.1638,458.9289
				L345.1638,459.16893L344.92377,459.16893L344.68374,459.16893L344.68374,459.40896L344.44371,459.40896L344.44371,459.64898L
				344.20368,459.64898L343.96365,459.64898L343.96365,459.88901L343.72362,459.88901L343.72362,460.12903L343.48359,460.12903L
				343.24356,460.12903L343.00353,460.12903L343.00353,460.36906L342.7635,460.36906L342.7635,460.60908L342.52347,460.60908L342.28344,460.60908
				L342.28344,460.84911L342.04341,460.84911L342.04341,461.08913L341.80338,461.08913L341.56335,461.08913L341.32332,461.08913
				L341.32332,461.32916L341.08328,461.32916L341.08328,461.56919L340.84325,461.56919L340.60322,461.56919L340.60322,461.80921
				L340.36319,461.80921L340.36319,462.04924L340.12316,462.04924L339.88313,462.04924L339.88313,462.28926L339.6431,462.28926L
				339.40307,462.28926L339.40307,462.52929L339.16304,462.52929L338.92301,462.52929L338.92301,462.76931L338.92301,463.00934L
				338.92301,463.24936L339.16304,463.24936L339.16304,463.48939L339.16304,463.72942L339.40307,463.72942L339.40307,463.96944L
				339.6431,463.96944L339.6431,464.20947L339.88313,464.20947L339.88313,464.44949L339.88313,464.68952L340.12316,464.68952L340.12316,464.92954
				L340.12316,465.16957L340.36319,465.16957L340.36319,465.40959L340.12316,465.40959L340.12316,465.64962L339.88313,465.64962
				L339.88313,465.88965L339.6431,465.88965L339.6431,466.12967L339.40307,466.12967L339.16304,466.12967L339.16304,466.3697L338.92301,466.3697
				L338.92301,466.60972L338.68298,466.60972L338.68298,466.84975L338.44295,466.84975L338.20292,466.84975L338.20292,467.08977
				L337.96289,467.08977L337.96289,467.3298L337.96289,467.08977L337.72286,467.08977L337.72286,466.84975L337.72286,466.60972L
				337.48283,466.60972L337.48283,466.3697L337.2428,466.3697L337.2428,466.12967L337.00277,466.12967L337.00277,465.88965L337.00277,465.64962
				L336.76274,465.64962L336.76274,465.40959L336.52271,465.40959L336.52271,465.16957L336.28268,465.16957L336.28268,464.92954
				L336.28268,464.68952L336.04265,464.68952L336.04265,464.44949L336.04265,464.20947L335.80261,464.20947L335.80261,464.44949
				L335.56258,464.44949L335.56258,464.68952L335.32255,464.68952L335.08252,464.68952L335.08252,464.92954L334.84249,464.92954
				L334.84249,465.16957L334.60246,465.16957L334.36243,465.16957L334.36243,465.40959L334.1224,465.40959L334.1224,465.64962L334.1224,465.88965
				L334.36243,465.88965L334.36243,466.12967L334.60246,466.12967L334.60246,466.3697L334.84249,466.3697L334.84249,466.60972L334.84249,466.84975
				L335.08252,466.84975L335.08252,467.08977L335.08252,467.3298L335.32255,467.3298L335.32255,467.56983L335.56258,467.56983L335.56258,467.80985
				L335.80261,467.80985L335.80261,468.04988L335.56258,468.04988L335.32255,468.04988L335.32255,468.2899L335.08252,468.2899L334.84249,468.2899
				L334.84249,468.52993L334.60246,468.52993L334.36243,468.52993L334.36243,468.76995L334.1224,468.76995L333.88237,468.76995L
				333.88237,469.00998L333.64234,469.00998L333.64234,469.25L333.40231,469.25L333.16228,469.25L332.92225,469.25L332.92225,469.49003
				L332.68222,469.49003L332.44219,469.49003L332.44219,469.73006L332.20216,469.73006L332.20216,469.97008L331.96213,469.97008
				L331.7221,469.97008L331.7221,470.21011L331.48207,470.21011L331.24204,470.21011L331.00201,470.21011L331.00201,470.45013L331.00201,470.21011
				L330.76198,470.21011L330.76198,469.97008L330.76198,469.73006L330.52194,469.73006L330.52194,469.49003L330.28191,469.49003
				L330.28191,469.25L330.04188,469.25L330.04188,469.00998L330.04188,468.76995L329.80185,468.76995L329.80185,468.52993L329.80185,468.2899
				L329.56182,468.2899L329.32179,468.2899L329.08176,468.2899L328.84173,468.2899L328.84173,468.52993L328.6017,468.52993L328.6017,468.76995
				L328.36167,468.76995L328.36167,469.00998L328.12164,469.00998L327.88161,469.00998L327.88161,469.25L327.64158,469.25L327.40155,469.25
				L327.40155,469.49003L327.16152,469.49003L326.92149,469.49003L326.92149,469.73006L326.68146,469.73006L326.68146,469.97008
				L326.44143,469.97008L326.2014,469.97008L326.2014,470.21011L325.96137,470.21011L325.72134,470.21011L325.72134,470.45013L325.48131,470.45013
				L325.24127,470.45013L325.24127,470.69016L325.00124,470.69016L324.76121,470.69016L324.76121,470.93018L324.52118,470.93018
				L324.52118,471.17021L324.28115,471.17021L324.04112,471.17021L324.04112,471.41023L323.80109,471.41023L323.56106,471.41023
				L323.56106,471.65026L323.32103,471.65026L323.081,471.65026L323.081,471.89029L322.84097,471.89029L322.84097,472.13031L322.60094,472.13031
				L322.60094,472.37034L322.36091,472.37034L322.12088,472.37034L321.88085,472.37034L321.88085,472.61036L321.64082,472.61036
				L321.64082,472.85039L321.40079,472.85039L321.16076,472.85039L321.16076,473.09041L320.92073,473.09041L320.6807,473.09041L
				320.6807,473.33044L320.44067,473.33044L320.20063,473.33044L320.20063,473.57046L319.9606,473.57046L319.9606,473.81049L319.9606,474.05052
				L320.20063,474.05052L320.20063,474.29054L320.44067,474.29054L320.44067,474.53057L320.44067,474.77059L320.6807,474.77059L
				320.6807,475.01062L320.6807,475.25064L320.44067,475.25064L320.44067,475.49067L319.9606,475.49067L319.48054,475.49067L319.48054,475.25064
				L319.48054,475.01062L319.24051,475.01062L319.24051,474.77059L319.24051,474.53057L319.00048,474.53057L319.00048,474.29054
				L318.52042,474.29054L318.28039,474.29054L318.28039,474.53057"/>
			<path clip-path="url(#SVG_CP_2)" fill="none" stroke="#999999" stroke-width="0.96012" stroke-miterlimit="10" stroke-linecap="round" stroke-linejoin="round" d="
				M318.28039,474.53057L318.04036,474.53057L317.80033,474.53057L317.80033,474.77059L317.5603,474.77059L317.5603,475.01062L317.32027,475.01062
				L317.08024,475.01062L317.08024,475.25064L316.84021,475.25064L316.84021,475.49067L316.60018,475.49067L316.84021,475.49067
				L316.84021,475.73069L316.84021,475.97072L317.08024,475.97072L317.08024,476.21075L317.08024,476.45077L317.32027,476.45077
				L317.32027,476.6908L317.5603,476.6908L317.5603,476.93082L317.5603,477.17085L317.5603,477.41087L317.32027,477.41087L317.08024,477.41087
				L317.08024,477.6509L316.84021,477.6509L316.84021,477.89092L316.60018,477.89092L316.60018,477.6509L316.36015,477.6509L316.36015,477.41087
				L316.36015,477.17085L316.12012,477.17085L316.12012,476.93082L315.88009,476.93082L315.88009,476.6908L315.88009,476.45077L
				315.64006,476.45077L315.64006,476.21075L315.40003,476.21075L315.40003,476.45077L315.16,476.45077L314.91996,476.45077L314.67993,476.45077
				L314.67993,476.6908L314.4399,476.6908L314.4399,476.93082L314.19987,476.93082L313.95984,476.93082L313.95984,477.17085L313.71981,477.17085
				L313.47978,477.17085L313.47978,477.41087L313.23975,477.41087L312.99972,477.41087L312.99972,477.6509L312.75969,477.6509L312.51966,477.6509
				L312.51966,477.89092L312.27963,477.89092L312.27963,478.13095L312.0396,478.13095L311.79957,478.13095L311.79957,478.37098L
				311.79957,478.611L311.79957,478.85103L312.0396,478.85103L312.0396,479.09105L312.27963,479.09105L312.27963,479.33108L312.51966,479.33108
				L312.51966,479.5711L312.51966,479.81113L312.75969,479.81113L312.75969,480.05116L312.75969,480.29118L312.99972,480.29118L
				312.99972,480.53121L313.23975,480.53121L313.23975,480.77123L312.99972,480.77123L312.99972,480.53121L312.75969,480.53121L
				312.51966,480.53121L312.27963,480.53121L312.27963,480.29118L312.0396,480.29118L312.0396,480.05116L311.79957,480.05116L311.55954,480.05116
				L311.55954,479.81113L311.55954,479.5711L311.31951,479.5711L311.07948,479.5711L311.07948,479.33108L310.83945,479.33108L310.83945,479.09105
				L310.59942,479.09105L310.59942,478.85103L310.35939,478.85103L310.35939,478.611L310.11936,478.611L310.11936,478.37098L309.63929,478.37098
				L309.63929,478.611L309.39926,478.611L309.39926,478.85103L309.15923,478.85103L309.15923,479.09105L308.9192,479.09105L308.67917,479.09105
				L308.67917,479.33108L308.43914,479.33108L308.19911,479.33108L308.19911,479.5711L307.95908,479.5711L307.95908,480.05116L307.95908,481.01126
				L307.95908,481.73133L307.95908,481.49131L307.71905,481.49131L307.71905,481.25128L307.47902,481.25128L307.47902,481.01126
				L307.47902,480.77123L307.23899,480.77123L307.23899,480.53121L306.99896,480.53121L306.99896,480.29118L306.75893,480.29118
				L306.75893,480.05116L306.75893,479.81113L306.5189,479.81113L306.5189,479.5711L306.27887,479.5711L306.27887,479.33108L306.27887,479.09105
				L306.5189,479.09105L306.5189,478.85103L306.75893,478.85103L306.75893,478.611L306.99896,478.611L307.23899,478.611L307.23899,478.37098
				L307.47902,478.37098L307.71905,478.37098L307.71905,478.13095L307.95908,478.13095L307.95908,477.89092L308.19911,477.89092
				L308.43914,477.89092L308.43914,477.6509L308.67917,477.6509L308.67917,477.41087L308.9192,477.41087L309.15923,477.41087L309.39926,477.41087
				L309.39926,477.17085L309.63929,477.17085L309.63929,476.93082L309.87933,476.93082L309.87933,476.6908L309.63929,476.6908L309.63929,476.45077
				L309.39926,476.45077L309.39926,476.21075L309.39926,475.97072L309.15923,475.97072L309.15923,475.73069L308.9192,475.73069L
				308.9192,475.49067L308.67917,475.49067L308.67917,475.25064L308.43914,475.25064L308.43914,475.01062L308.43914,474.77059L308.19911,474.77059
				L308.19911,474.53057L308.19911,474.29054L307.95908,474.29054L307.95908,474.05052L307.71905,474.05052L307.71905,473.81049
				L307.47902,473.81049L307.47902,473.57046L307.47902,473.33044L307.23899,473.33044L307.23899,473.09041L306.99896,473.09041
				L306.99896,472.85039L306.75893,472.85039L306.75893,472.61036L306.5189,472.61036L306.5189,472.37034L306.27887,472.37034L306.27887,472.13031
				L306.27887,471.89029L306.03884,471.89029L306.03884,471.65026L305.79881,471.65026L305.55878,471.65026L305.55878,471.89029
				L305.31875,471.89029L305.31875,472.13031L305.07872,472.13031L305.07872,472.37034L304.83869,472.37034L304.59865,472.37034
				L304.35862,472.37034L304.35862,472.61036L304.35862,472.37034L304.11859,472.37034L304.11859,472.13031L304.11859,471.89029
				L303.87856,471.89029L303.87856,471.65026L303.63853,471.65026L303.63853,471.41023L303.3985,471.41023L303.3985,471.17021L303.3985,470.93018
				L303.15847,470.93018L303.15847,470.69016L302.91844,470.69016L302.91844,470.45013L302.91844,470.21011L302.67841,470.21011
				L302.43838,470.21011L302.43838,469.97008L302.43838,469.73006L302.43838,469.49003L302.19835,469.49003L302.19835,469.25L301.95832,469.25
				L301.95832,469.00998L301.71829,469.00998L301.71829,468.76995L301.47826,468.76995L301.47826,468.52993L301.71829,468.52993
				L301.71829,468.2899L301.95832,468.2899L302.19835,468.2899L302.43838,468.2899L302.43838,468.04988L302.67841,468.04988L302.67841,467.80985
				L302.91844,467.80985L302.91844,467.56983L303.15847,467.56983L303.15847,467.3298L302.91844,467.3298L302.91844,467.08977L302.67841,467.08977
				L302.67841,466.84975L302.67841,466.60972L302.43838,466.60972L302.43838,466.3697L302.43838,466.12967L302.19835,466.12967L
				302.19835,465.88965L301.95832,465.88965L301.95832,465.64962L301.71829,465.64962L301.71829,465.88965L301.47826,465.88965L
				301.47826,466.12967L301.23823,466.12967L301.23823,466.3697L300.9982,466.3697L300.75817,466.3697L300.75817,466.60972L300.51814,466.60972
				L300.51814,466.84975L300.27811,466.84975L300.27811,467.08977L300.03808,467.08977L300.03808,467.3298L299.79805,467.3298L299.55802,467.3298
				L299.55802,467.56983L299.31798,467.56983L299.31798,467.80985L299.07795,467.80985L299.07795,468.04988L298.83792,468.04988
				L298.59789,468.04988L298.59789,468.2899L298.35786,468.2899L298.35786,468.52993L298.11783,468.52993L298.11783,468.76995L297.8778,468.76995
				L297.63777,468.76995L297.63777,468.52993L297.39774,468.52993L297.39774,468.2899L297.15771,468.2899L297.15771,468.04988L297.15771,467.80985
				L296.91768,467.80985L296.91768,467.56983L296.67765,467.56983L296.67765,467.3298L296.43762,467.3298L296.43762,467.08977L296.19759,467.08977
				L296.19759,466.84975L296.19759,466.60972L295.95756,466.60972L295.95756,466.3697L295.71753,466.3697L295.71753,466.12967L295.4775,466.12967
				L295.4775,465.88965L295.4775,465.64962L295.23747,465.64962L295.23747,465.40959L294.99744,465.40959L294.99744,465.16957L294.75741,465.16957
				L294.75741,464.92954L294.75741,464.68952L294.51738,464.68952L294.51738,464.44949L294.27735,464.44949L294.27735,464.20947
				L294.03731,464.20947L294.03731,463.96944L294.03731,463.72942L293.79728,463.72942L293.79728,458.44885"/>
			<path clip-path="url(#SVG_CP_2)" fill="none" stroke="#999999" stroke-width="0.96012" stroke-miterlimit="10" stroke-linecap="round" stroke-linejoin="round" d="
				M337.96289,354.99783L337.96289,355.23785L337.96289,354.99783L337.96289,354.7578L337.72286,354.7578L337.72286,354.51778L337.48283,354.51778
				L337.48283,354.27775L337.48283,354.03773L337.2428,354.03773L337.2428,353.7977L337.00277,353.7977L337.00277,353.55768L337.00277,353.31765
				L336.76274,353.31765L336.76274,353.07762L336.52271,353.07762L336.52271,352.8376L336.28268,352.8376L336.28268,352.59757L336.04265,352.59757
				L336.04265,352.35755L335.80261,352.35755L335.80261,352.11752L335.56258,352.11752L335.32255,352.11752L335.32255,351.8775L
				335.08252,351.8775L334.84249,351.8775L334.84249,351.63747L334.84249,351.39745L334.60246,351.39745L334.60246,351.15742L334.36243,351.15742
				L334.36243,350.91739L334.1224,350.91739L333.88237,350.91739L333.88237,350.67737L333.88237,350.43734L333.40231,350.43734L
				333.40231,350.67737L333.64234,350.67737L333.64234,350.91739L333.88237,350.91739L333.88237,351.15742L334.1224,351.15742L334.1224,351.39745
				L334.36243,351.39745L334.36243,351.63747L334.60246,351.63747L334.60246,351.8775L334.84249,351.8775L334.84249,352.11752L335.08252,352.11752
				L335.08252,352.35755L335.32255,352.35755L335.32255,352.59757L335.56258,352.59757L335.56258,352.8376L335.80261,352.8376L335.80261,353.07762
				L336.04265,353.07762L336.04265,353.31765L336.28268,353.31765L336.28268,353.55768L336.52271,353.55768L336.52271,353.7977L
				336.76274,353.7977L336.76274,354.03773L337.00277,354.03773L337.00277,354.27775L337.2428,354.27775L337.2428,354.51778L337.48283,354.51778
				L337.48283,354.7578L337.72286,354.7578L337.72286,354.99783L337.96289,354.99783"/>
		</g>
</g></svg>