<?xml version="1.0" encoding="utf-8" standalone="no"?>
<!-- Creator: ESRI ArcMap 10.0.0.2414 -->
<!DOCTYPE svg PUBLIC "-//W3C//DTD SVG 1.1//EN"  "http://www.w3.org/Graphics/SVG/1.1/DTD/svg11.dtd">
<svg width="595.50236pt" height="595.50236pt" viewBox="25 148.377955 545.50236 545.50236" enable-background="new 25 148.377955 545.50236 545.50236"
	version="1.1" xmlns="http://www.w3.org/2000/svg" xmlns:xlink="http://www.w3.org/1999/xlink" >
	<g id="Couches">
		<g id="reservoirs">
			<clipPath id="SVG_CP_2">
				<path d="M574.39289,21.36228L21.36271,21.36228L21.36271,821.36753L574.39289,821.36753L574.39289,21.36228z"/>
			</clipPath>
			<path clip-path="url(#SVG_CP_2)" fill-opacity="0.08" fill="#2f4493" fill-rule="evenodd" stroke="#2f4493" stroke-width="1" stra="1.44018" stroke-miterlimit="10" stroke-linecap="round" stroke-linejoin="round" d="
				M293.55725,498.05307L296.67765,511.01445L320.44067,502.37353L325.00124,520.13543L327.40155,519.65538L328.6017,519.8954L327.64158,513.65474
				L348.2842,521.81561L352.12469,514.85486L357.64539,513.89476L357.40536,512.45461L367.00657,510.05435L366.28648,507.17405L
				370.84706,505.97392L373.96746,515.09489L377.80795,513.89476L378.76807,517.01509L381.4084,516.29502L383.08862,525.41599L369.16685,527.57622
				L370.60703,534.05691L364.12621,535.25704L365.56639,540.29758L362.68603,541.01765L362.20597,537.89732L355.00505,538.6174L
				355.00505,542.45781L361.00581,543.41791L361.00581,546.05819L362.446,546.29821L361.48587,554.21906L368.44676,554.69911L368.44676,556.37929
				L368.44676,558.77954L371.32712,558.77954L375.64767,558.77954L371.32712,563.34003L373.72743,565.74029L376.12773,563.1L375.64767,561.89988
				L378.28801,561.1798L379.0081,572.22098L380.44828,580.62187L367.24661,585.18236L357.88542,587.10256L356.68526,587.58261L351.16456,589.26279
				L354.28496,593.1032L349.72438,603.4243L346.84402,597.90371L341.80338,600.78402L346.60399,610.38504L347.56411,611.8252L348.76426,611.58517
				L350.6845,615.42558L354.28496,626.22673L358.12545,641.34834L357.88542,641.58837L352.36472,642.7885L343.24356,646.14885L344.44371,648.06906
				L345.88389,650.46932L347.56411,652.14949L348.2842,652.38952L349.00429,653.1096L349.72438,654.0697L349.96441,654.0697L350.92453,655.50985
				L351.16456,655.50985L352.12469,656.46995L353.08481,656.70998L354.28496,656.70998L355.24508,656.22993L356.44523,655.50985
				L358.60551,655.0298L361.96594,654.30972L363.40612,654.0697L366.28648,653.58965L367.00657,653.58965L367.72667,653.34962L367.9667,653.34962
				L367.9667,656.22993L367.9667,656.46995L372.04721,656.22993L372.28724,658.15013L376.36776,656.22993L376.60779,655.9899L379.48816,654.78978
				L379.0081,651.18939L378.76807,650.94937L379.0081,647.34898L382.12849,647.58901L382.84859,647.58901L383.32865,651.42942L383.56868,653.1096
				L388.12926,652.38952L388.60932,648.06906L393.64996,648.54911L394.85011,648.54911L397.25041,648.30908L401.57096,647.34898
				L403.25117,647.34898L415.49273,649.26919L427.25422,650.94937L433.49501,651.66944L434.2151,651.66944L436.61541,652.38952L
				441.41602,653.58965L441.89608,656.22993L447.89684,656.22993L447.89684,655.0298L451.4973,655.26983L458.21815,655.9899L459.89836,656.22993
				L460.37842,656.70998L454.13763,663.91075L453.41754,664.63082L447.89684,671.11151L444.05635,673.99182L441.17599,676.39208
				L435.89532,680.23249L432.53489,681.67264L433.73504,698.71446L433.01495,704.95512L440.69593,706.15525L438.53565,718.39655
				L436.85544,717.9165L434.69516,717.43645L432.29486,717.43645L433.25498,708.79553L424.85392,709.03556L424.61389,709.03556L
				422.93367,717.67648L418.37309,717.9165L411.89227,718.15653L408.05178,718.39655L403.4912,718.8766L401.57096,718.8766L398.21053,719.11663
				L394.37005,719.35666L391.48968,719.35666L386.68907,719.83671L383.32865,720.07673L376.84782,720.55678L371.80718,720.31676
				L369.88694,720.31676L368.68679,720.07673L367.00657,719.59668L362.20597,717.67648L356.68526,715.51625L351.16456,713.83607
				L345.40383,712.39591L341.08328,711.67584L340.36319,711.19579L339.6431,710.47571L337.96289,707.83543L336.04265,704.23504L
				334.60246,702.55487L331.48207,698.71446L329.32179,696.07417L325.96137,692.47379L322.36091,689.35346L320.92073,687.43325L
				320.20063,686.23313L317.80033,681.67264L316.12012,678.55231L315.40003,676.6321L314.91996,674.7119L313.95984,669.67136L313.23975,666.79105
				L312.51966,664.87085L315.64006,662.23057L317.80033,663.91075L319.24051,662.47059L320.44067,660.07034L320.20063,658.15013
				L319.9606,657.19003L322.12088,656.46995L321.16076,654.54975L324.28115,650.70934L322.36091,648.30908L319.9606,651.66944L318.04036,654.0697
				L315.16,657.19003L313.23975,659.59029L312.75969,659.83031L312.51966,659.59029L312.27963,659.59029L311.79957,658.87021L311.07948,657.91011
				L310.83945,658.15013L309.87933,662.95065L311.55954,663.67072L311.07948,666.311L310.35939,668.47123L309.39926,670.63146L307.47902,673.7518
				L302.91844,679.51241L294.51738,670.63146L295.23747,669.91139L296.91768,668.71126L294.03731,664.63082L290.19683,658.87021
				L289.71677,658.39016L288.51661,656.46995L286.8364,654.0697L287.31646,652.86957L286.59637,651.66944L279.63549,640.62827L280.83564,639.66816
				L290.43686,632.22737L291.15695,631.98735L288.99668,627.66689L286.11631,623.34642L283.95604,620.70614L282.03579,618.54591
				L281.07567,617.10576L279.87552,615.18556L276.51509,610.14502L268.83412,614.7055L258.27278,622.38632L249.39165,606.06458L
				249.15162,605.82456L255.15238,602.22417L257.31265,601.02405L260.19302,600.30397L257.31265,593.1032L252.27201,580.8619L250.83183,581.58197
				L247.95147,582.7821L245.31113,579.18172L226.58876,545.33811L233.30961,537.17724L236.18997,534.29694L240.99058,540.77763L
				246.99134,535.97711L246.51128,532.61676L250.11174,527.33619L250.83183,526.85614L251.79195,526.85614L253.23214,527.09617L
				253.47217,525.89604L252.75208,525.89604L249.63168,525.17596L249.39165,524.93594L248.67156,524.45589L248.91159,524.45589L
				248.1915,523.97584L246.75131,523.73581L245.79119,523.25576L246.99134,522.05563L248.91159,519.17532L249.39165,518.69527L257.55268,505.73389
				L262.59332,516.29502L270.2743,512.45461L284.91616,504.05371L287.31646,502.13351L293.55725,498.05307zM345.88389,527.09617
				L344.44371,527.09617L337.48283,539.09745L330.76198,537.65729L324.28115,536.45717L325.24127,545.81816L326.44143,545.81816
				L329.08176,546.05819L330.52194,551.8188L330.76198,553.25896L330.52194,553.25896L328.36167,553.01893L328.36167,556.13926L
				331.7221,556.13926L332.44219,556.13926L335.80261,549.65857L338.44295,549.65857L337.2428,546.29821L337.48283,543.65793L337.72286,539.81752
				L338.44295,539.81752L351.40459,541.97775L351.16456,538.37737L345.88389,537.41727L345.40383,535.25704L346.36396,535.49706
				L346.36396,532.85678L345.88389,527.09617z"/>
			<path clip-path="url(#SVG_CP_2)" fill-opacity="0.08" fill="#2f4493" fill-rule="evenodd" stroke="#2f4493" stroke-width="1" stra="1.44018" stroke-miterlimit="10" stroke-linecap="round" stroke-linejoin="round" d="
				M284.4361,156.01663L286.11631,157.93683L286.8364,156.25665L287.31646,155.05652L299.55802,168.49796L305.79881,174.97865L300.75817,179.53913
				L297.39774,184.8197L296.19759,187.21995L295.4775,188.6601L294.27735,191.06036L293.31722,192.50051L289.71677,197.061L288.75664,198.74118
				L287.07643,197.30103L284.19607,199.46126L282.51585,200.66138L281.79576,201.38146L282.75588,202.58159L277.71524,206.422L277.47521,206.90205
				L275.31494,208.82225L275.55497,209.06228L271.71448,211.46253L272.6746,213.14271L272.19454,213.62276L273.63473,216.02302L
				275.795,214.34284L276.99515,215.54297L277.47521,216.26305L275.07491,218.18325L276.51509,219.86343L278.43533,220.82353L280.35558,219.6234
				L282.75588,222.50371L280.59561,224.18389L281.79576,225.38402L283.716,228.0243L285.63625,230.42455L287.79652,228.74438L289.9568,232.34476
				L288.75664,233.78491L284.91616,240.50563L284.19607,241.70576L283.23594,242.42583L282.51585,243.14591L280.59561,244.34604
				L278.1953,245.54617L274.59485,246.50627L272.19454,247.46637L274.35482,251.78683L278.67537,260.66778L283.47597,269.78875L
				284.91616,272.42903L301.23823,263.06803L305.79881,272.42903L307.95908,276.74949L311.79957,284.91036L314.4399,291.15103L315.64006,289.9509
				L315.88009,289.9509L317.08024,290.43095L317.80033,291.15103L318.52042,292.11113L319.00048,293.07123L319.24051,294.27136L
				319.9606,295.95154L320.6807,298.11177L321.16076,301.2321L321.88085,304.11241L322.84097,306.75269L325.24127,311.07315L325.72134,312.03325
				L317.5603,313.23338L329.32179,328.11496L302.19835,347.31701L301.71829,346.59693L300.9982,345.15678L300.27811,343.23658L299.55802,342.27647
				L297.8778,341.07635L296.67765,340.35627L294.51738,339.39617L293.55725,338.67609L292.3571,337.23594L290.67689,334.83568L289.47674,332.91548
				L286.8364,328.35499L288.99668,327.15486L287.31646,323.7945L289.47674,322.35435L288.99668,321.63427L286.8364,323.07443L284.67613,324.51458
				L281.07567,319.47404L278.1953,314.67353L277.23518,313.4734L276.27506,312.27328L275.07491,311.07315L274.35482,310.35307L273.15466,309.633
				L271.23442,308.67289L270.03427,308.43287L267.39393,307.71279L262.35329,306.51266L260.43305,306.51266L258.75284,306.75269
				L256.83259,301.71215L251.55192,304.11241L252.75208,307.95282L249.63168,307.95282L247.23137,307.71279L245.79119,306.99271
				L244.35101,305.79259L243.39089,304.83248L242.19074,304.35243L240.51052,303.63236L237.87019,301.95218L236.18997,300.75205
				L234.26973,298.35179L233.30961,297.15167L232.82955,295.23146L232.10946,293.07123L231.14933,290.911L228.26897,286.11049L230.42924,284.91036
				L230.42924,283.71023L233.54964,281.55L227.78891,273.14911L220.34796,280.10985L217.4676,278.6697L216.02742,277.70959L210.50671,271.94898
				L208.58647,269.78875L204.26592,264.98824L202.82574,263.78811L201.14553,262.82801L200.1854,262.34796L200.66547,259.9477L201.38556,258.74757
				L201.38556,258.50755L202.10565,257.30742L204.02589,255.38721L205.46607,253.94706L206.66623,252.74693L207.86638,251.54681
				L209.78662,250.5867L198.74522,235.94514L204.26592,232.82481L202.10565,222.98376L203.54583,221.30358L201.38556,219.6234L197.7851,217.22315
				L197.06501,216.02302L196.34492,212.90269L195.3848,210.02238L193.22452,204.74182L194.6647,205.70192L196.58495,205.94195L200.1854,206.18197
				L202.34568,205.94195L203.54583,205.22187L204.74598,204.26177L206.18617,203.06164L209.30656,201.14143L212.18693,199.70128
				L218.66775,192.50051L222.26821,187.45998L223.70839,185.53977L228.26897,181.45934L232.34949,176.65883L234.98982,173.29847
				L236.67003,174.73862L237.1501,174.25857L238.35025,173.05844L236.67003,171.37826L242.6708,165.85767L249.87171,173.05844L264.7536,161.77724
				L260.19302,156.49668L258.03275,153.8564L262.59332,150.73606L263.55345,150.01599L264.27354,149.53594L264.51357,149.53594L
				268.11402,147.13568L271.47445,144.73542L273.15466,143.05524L275.07491,145.4555L277.71524,148.81586L283.716,155.05652L284.4361,156.01663
				z"/>
		</g>
</g></svg>