<?xml version="1.0" encoding="utf-8" standalone="no"?>
<!-- Creator: ESRI ArcMap 10.0.0.2414 -->
<!DOCTYPE svg PUBLIC "-//W3C//DTD SVG 1.1//EN"  "http://www.w3.org/Graphics/SVG/1.1/DTD/svg11.dtd">
<svg width="595.50236pt" height="595.50236pt" viewBox="25 148.377955 545.50236 545.50236" enable-background="new 25 148.377955 545.50236 545.50236"
	version="1.1" xmlns="http://www.w3.org/2000/svg" xmlns:xlink="http://www.w3.org/1999/xlink" >
	<g id="Couches">
		<g id="cont_2">
			<path clip-path="url(#SVG_CP_2)" fill="none" stroke="#999999" stroke-width="0.96012" stroke-miterlimit="10" stroke-linecap="round" stroke-linejoin="round" d="
				M120.73532,392.68185L120.73532,393.40192L120.25526,393.40192L120.25526,392.68185L120.73532,392.68185"/>
			<path clip-path="url(#SVG_CP_2)" fill="none" stroke="#999999" stroke-width="0.96012" stroke-miterlimit="10" stroke-linecap="round" stroke-linejoin="round" d="
				M324.52118,400.12264L323.56106,400.12264L323.56106,399.64259L324.04112,399.64259L324.04112,399.16254L325.00124,399.16254
				L325.00124,399.64259L324.52118,399.64259L324.52118,400.12264"/>
			<path clip-path="url(#SVG_CP_2)" fill="none" stroke="#999999" stroke-width="0.96012" stroke-miterlimit="10" stroke-linecap="round" stroke-linejoin="round" d="
				M250.5918,453.40832L250.11174,453.40832L250.11174,452.44821L249.63168,452.44821L249.63168,451.96816L249.15162,451.96816L
				249.15162,451.48811L248.43153,451.48811L248.43153,450.28798L246.51128,450.28798L246.51128,449.80793L243.87095,449.80793L
				243.87095,449.32788L241.23061,449.32788L241.23061,448.84783L238.59028,448.84783L238.59028,448.12775L235.94994,448.12775L
				235.94994,447.6477L233.30961,447.6477L233.30961,447.16765L230.66927,447.16765L230.66927,446.6876L228.02894,446.6876L228.02894,446.20755
				L226.82879,446.20755L226.82879,442.36714L227.30885,442.36714L227.30885,438.76676L228.02894,438.76676L228.02894,427.0055L
				227.30885,427.0055L227.30885,426.52545L226.82879,426.52545L226.82879,426.0454L225.86866,426.0454L225.86866,425.56535L225.3886,425.56535
				L225.3886,425.0853L224.66851,425.0853L224.66851,424.36522L224.18845,424.36522L224.18845,423.88517L223.22833,423.88517L223.22833,423.40512
				L222.74827,423.40512L222.74827,422.92507L222.02818,422.92507L222.02818,422.44502L221.54812,422.44502L221.54812,421.72494
				L220.58799,421.72494L220.58799,421.24489L220.10793,421.24489L220.10793,420.76484L219.38784,420.76484L219.38784,420.28479
				L218.90778,420.28479L218.90778,420.76484L215.78738,420.76484L215.78738,421.24489L213.14705,421.24489L213.14705,421.72494
				L210.02665,421.72494L210.02665,422.44502L207.38632,422.44502L207.38632,422.92507L203.54583,422.92507L203.54583,423.40512
				L198.26516,423.40512L198.26516,423.88517L196.34492,423.88517L196.34492,424.36522L195.14476,424.36522L195.14476,425.0853L
				194.18464,425.0853L194.18464,425.56535L192.98449,425.56535L192.98449,426.0454L192.02437,426.0454L192.02437,426.52545L190.34416,426.52545
				L190.34416,425.0853L189.86409,425.0853L189.86409,423.88517L189.38403,423.88517L189.38403,422.44502L188.90397,422.44502L188.90397,420.76484
				L188.42391,420.76484L188.42391,419.80474L187.70382,419.80474L187.70382,418.12456L187.22376,418.12456L187.22376,417.16445
				L186.7437,417.16445L186.7437,415.48427L186.26364,415.48427L186.26364,414.52417L185.78358,414.52417L185.78358,412.84399L185.06349,412.84399
				L185.06349,411.88389L184.58342,411.88389L184.58342,410.20371L184.10336,410.20371L184.10336,409.24361L183.6233,409.24361L
				183.6233,407.56343L183.14324,407.56343L183.14324,406.60333L182.42315,406.60333L182.42315,404.92315L181.94309,404.92315L181.94309,403.96305
				L181.46303,403.96305L181.46303,402.28287L180.98297,402.28287L180.98297,400.60269L180.50291,400.60269L180.50291,399.64259
				L179.78282,399.64259L179.78282,397.96241L179.30275,397.96241L179.30275,397.00231L178.82269,397.00231L178.82269,396.52225
				L178.34263,396.52225L178.34263,396.0422L177.14248,396.0422L177.14248,395.32213L176.66242,395.32213L176.66242,394.84208L175.7023,394.84208
				L175.7023,395.32213L175.22224,395.32213L175.22224,396.0422L174.50215,396.0422L174.50215,396.52225L174.02208,396.52225L174.02208,397.00231
				L173.54202,397.00231L173.54202,397.48236L173.06196,397.48236L173.06196,397.96241L172.5819,397.96241L172.5819,398.68248L171.86181,398.68248
				L171.86181,399.16254L171.38175,399.16254L171.38175,399.64259L170.90169,399.64259L170.90169,400.12264L170.42163,400.12264
				L170.42163,400.60269L169.94157,400.60269L169.94157,401.32277L169.22148,401.32277L169.22148,401.80282L168.74141,401.80282
				L168.74141,402.28287L167.78129,402.28287L167.78129,402.76292L167.30123,402.76292L167.30123,403.24297L166.58114,403.24297
				L166.58114,403.96305L166.10108,403.96305L166.10108,404.4431L165.62102,404.4431L165.62102,404.92315L165.14096,404.92315L165.14096,405.4032
				L164.6609,405.4032L164.6609,405.88325L163.94081,405.88325L163.94081,406.60333L163.46074,406.60333L163.46074,407.08338L162.98068,407.08338
				L162.98068,407.56343L162.50062,407.56343L162.50062,408.04348L162.02056,408.04348L162.02056,408.52353L161.30047,408.52353
				L161.30047,409.24361L160.82041,409.24361L160.82041,409.72366L160.34035,409.72366L160.34035,410.20371L159.38023,410.20371
				L159.38023,410.68376L158.66013,410.68376L158.66013,411.16381L158.18007,411.16381L158.18007,411.88389L157.70001,411.88389
				L157.70001,412.36394L157.21995,412.36394L157.21995,412.84399L156.73989,412.84399L156.73989,413.32404L156.0198,413.32404L
				156.0198,413.8041L155.53974,413.8041L155.53974,414.52417L155.05968,414.52417L155.05968,415.00422L154.57962,415.00422L154.57962,415.48427
				L154.09956,415.48427L154.09956,415.96433L153.37946,415.96433L153.37946,416.44438L152.8994,416.44438L152.8994,417.16445L152.41934,417.16445
				L152.41934,417.64451L151.93928,417.64451L151.93928,418.12456L150.73913,418.12456L150.73913,417.64451L149.77901,417.64451
				L149.77901,417.16445L148.81889,417.16445L148.81889,416.44438L147.61873,416.44438L147.61873,415.96433L147.13867,415.96433
				L147.13867,415.48427L146.65861,415.48427L146.65861,415.00422L146.17855,415.00422L146.17855,414.52417L145.45846,414.52417
				L145.45846,413.8041L144.9784,413.8041L144.9784,412.84399L144.49834,412.84399L144.49834,412.36394L144.01828,412.36394L144.01828,411.88389
				L143.53822,411.88389L143.53822,411.16381L142.81812,411.16381L142.81812,410.20371L142.33806,410.20371L142.33806,409.24361
				L141.858,409.24361L141.858,407.56343L141.37794,407.56343L141.37794,405.88325L140.89788,405.88325L140.89788,404.4431L140.17779,404.4431
				L140.17779,402.76292L139.69773,402.76292L139.69773,401.32277L139.21767,401.32277L139.21767,399.64259L138.73761,399.64259
				L138.73761,397.96241L138.25755,397.96241L138.25755,397.00231L138.73761,397.00231L138.73761,395.32213L139.21767,395.32213
				L139.21767,393.88197L139.69773,393.88197L139.69773,391.72174L140.17779,391.72174L140.17779,391.24169L141.37794,391.24169
				L141.37794,390.76164L141.858,390.76164L141.858,390.04156L142.33806,390.04156L142.33806,389.56151L142.81812,389.56151L142.81812,384.761
				L141.858,384.761L141.858,385.48108L140.89788,385.48108L140.89788,385.96113L139.21767,385.96113L139.21767,386.44118L137.53745,386.44118
				L137.53745,386.92123L136.57733,386.92123L136.57733,387.40128L134.89712,387.40128L134.89712,388.12136L133.45694,388.12136
				L133.45694,388.60141L132.25678,388.60141L132.25678,389.08146L130.8166,389.08146L130.8166,389.56151L129.13639,389.56151L129.13639,390.04156
				L128.17627,390.04156L128.17627,390.76164L126.49605,390.76164L126.49605,391.24169L125.05587,391.24169L125.05587,391.72174
				L123.85572,391.72174L123.85572,392.20179L122.41554,392.20179L122.41554,392.68185L120.73532,392.68185L120.73532,391.72174
				L121.21538,391.72174L121.21538,391.24169L121.69544,391.24169L121.69544,390.76164L122.41554,390.76164L122.41554,390.04156
				L122.8956,390.04156L122.8956,389.56151L123.37566,389.56151L123.37566,389.08146L123.85572,389.08146L123.85572,388.60141L124.33578,388.60141
				L124.33578,388.12136L125.05587,388.12136L125.05587,387.40128L125.53593,387.40128L125.53593,386.92123L126.49605,386.92123
				L126.49605,386.44118L126.97611,386.44118L126.97611,385.96113L127.69621,385.96113L127.69621,385.48108L128.17627,385.48108
				L128.17627,384.761L129.13639,384.761L129.13639,384.28095L129.61645,384.28095L129.61645,383.8009L130.33654,383.8009L130.33654,383.32085
				L131.29666,383.32085L131.29666,382.8408L131.77672,382.8408L131.77672,382.12072L132.97688,382.12072L132.97688,381.64067L133.45694,381.64067
				L133.45694,381.16062L134.41706,381.16062L134.41706,380.68057L134.89712,380.68057L134.89712,380.20051L136.09727,380.20051
				L136.09727,379.48044L137.05739,379.48044L137.05739,379.00039L137.53745,379.00039L137.53745,378.52034L138.25755,378.52034
				L138.25755,378.04028L138.73761,378.04028L138.73761,376.36011L139.21767,376.36011L139.21767,375.4L139.69773,375.4L139.69773,374.19988
				L140.89788,374.19988L140.89788,373.23977L141.37794,373.23977L141.37794,372.27967L141.858,372.27967L141.858,371.55959L142.33806,371.55959
				L142.33806,370.59949L142.81812,370.59949L142.81812,370.11944L144.01828,370.11944L144.01828,369.63939L144.49834,369.63939
				L144.49834,368.91931L144.9784,368.91931L144.9784,368.43926L146.17855,368.43926L146.17855,367.95921L147.61873,367.95921L147.61873,367.47916
				L148.81889,367.47916L148.81889,366.99911L149.77901,366.99911L149.77901,366.27903L150.73913,366.27903L150.73913,365.79898
				L151.93928,365.79898L151.93928,365.31893L153.37946,365.31893L153.37946,364.83888L154.57962,364.83888L154.57962,364.35883
				L155.53974,364.35883L155.53974,363.63875L158.18007,363.63875L158.18007,363.1587L158.66013,363.1587L158.66013,363.63875L163.94081,363.63875
				L163.94081,364.35883L167.78129,364.35883L167.78129,363.63875L168.74141,363.63875L168.74141,363.1587L169.22148,363.1587L169.22148,362.67865
				L169.94157,362.67865L169.94157,362.1986L170.90169,362.1986L170.90169,361.71855L171.38175,361.71855L171.38175,360.99847L171.86181,360.99847
				L171.86181,360.51842L172.5819,360.51842L172.5819,360.03837L173.06196,360.03837L173.06196,359.55832L174.02208,359.55832L174.02208,359.07826
				L174.50215,359.07826L174.50215,358.35819L175.22224,358.35819L175.22224,357.87814L176.18236,357.87814L176.18236,357.39809
				L177.14248,357.39809L177.14248,356.91803L178.34263,356.91803L178.34263,356.43798L179.30275,356.43798L179.30275,355.71791
				L180.98297,355.71791L180.98297,355.23785L182.42315,355.23785L182.42315,354.7578L184.10336,354.7578L184.10336,354.27775L185.06349,354.27775
				L185.06349,353.7977L186.7437,353.7977L186.7437,353.07762L188.42391,353.07762L188.42391,352.59757L189.86409,352.59757L189.86409,352.11752
				L191.06425,352.11752L191.06425,351.63747L192.50443,351.63747L192.50443,351.15742L194.18464,351.15742L194.18464,350.43734
				L195.14476,350.43734L195.14476,349.95729L195.62483,349.95729L195.62483,349.47724L196.82498,349.47724L196.82498,348.99719
				L197.7851,348.99719L197.7851,348.51714L198.26516,348.51714L198.26516,347.79706L199.46531,347.79706L199.46531,347.31701L200.42544,347.31701
				L200.42544,346.83696L201.62559,346.83696L201.62559,346.35691L202.58571,346.35691L202.58571,345.87686L203.54583,345.87686
				L203.54583,345.15678L204.74598,345.15678L204.74598,344.67673L205.70611,344.67673L205.70611,344.19668L206.90626,344.19668
				L206.90626,343.71663L209.54659,343.71663L209.54659,343.23658L213.62711,343.23658L213.62711,342.5165L215.30732,342.5165L215.30732,342.03645
				L215.78738,342.03645L215.78738,341.5564L216.26745,341.5564L216.26745,341.07635L216.74751,341.07635L216.74751,340.59629L217.4676,340.59629
				L217.4676,339.87622L218.42772,339.87622L218.42772,339.39617L218.90778,339.39617L218.90778,338.91612L220.10793,338.91612L
				220.10793,338.43606L221.06805,338.43606L221.06805,337.95601L222.02818,337.95601L222.02818,337.23594L222.74827,337.23594L
				222.74827,336.75589L223.70839,336.75589L223.70839,336.27583L224.66851,336.27583L224.66851,335.79578L225.3886,335.79578L225.3886,335.31573
				L226.34872,335.31573L226.34872,334.59566L227.30885,334.59566L227.30885,334.1156L228.02894,334.1156L228.02894,333.63555L228.98906,333.63555
				L228.98906,333.1555L229.46912,333.1555L229.46912,332.67545L230.66927,332.67545L230.66927,331.95537L231.62939,331.95537L231.62939,331.47532
				L232.10946,331.47532L232.10946,330.99527L233.30961,330.99527L233.30961,330.51522L233.78967,330.51522L233.78967,330.03517
				L234.74979,330.03517L234.74979,329.31509L235.94994,329.31509L235.94994,328.83504L236.43,328.83504L236.43,328.35499L237.39013,328.35499
				L237.39013,327.87494L237.87019,327.87494L237.87019,327.39489L239.07034,327.39489L239.07034,326.67481L240.03046,326.67481
				L240.03046,326.19476L241.23061,326.19476L241.23061,325.71471L242.19074,325.71471L242.19074,325.23466L243.15086,325.23466
				L243.15086,324.75461L244.83107,324.75461L244.83107,324.03453L245.79119,324.03453L245.79119,323.55448L247.47141,323.55448
				L247.47141,323.07443L248.43153,323.07443L248.43153,322.59438L250.11174,322.59438L250.11174,322.11433L251.07186,322.11433
				L251.07186,321.39425L252.75208,321.39425L252.75208,320.9142L255.39241,320.9142L255.39241,320.43415L257.07262,320.43415L257.07262,319.9541
				L259.71296,319.9541L259.71296,319.47404L261.15314,319.47404L261.15314,318.75397L265.95375,318.75397L265.95375,318.27392L
				266.91387,318.27392L266.91387,317.79386L268.59409,317.79386L268.59409,317.31381L269.55421,317.31381L269.55421,316.83376L
				271.23442,316.83376L271.23442,316.11369L272.19454,316.11369L272.19454,315.63363L273.87476,315.63363L273.87476,315.15358L
				274.83488,315.15358L274.83488,314.67353L276.51509,314.67353L276.51509,313.95346L277.47521,313.95346L277.47521,313.4734L278.67537,313.4734
				L278.67537,312.99335L280.11555,312.99335L280.11555,312.5133L281.3157,312.5133L281.3157,312.03325L282.75588,312.03325L282.75588,311.31317
				L283.95604,311.31317L283.95604,310.83312L285.39622,310.83312L285.39622,310.35307L286.59637,310.35307L286.59637,309.87302
				L288.03655,309.87302L288.03655,309.39297L289.23671,309.39297L289.23671,308.67289L290.67689,308.67289L290.67689,308.19284
				L291.87704,308.19284L291.87704,307.71279L293.31722,307.71279L293.31722,307.23274L294.51738,307.23274L294.51738,306.75269
				L295.4775,306.75269L295.4775,306.03261L297.15771,306.03261L297.15771,305.55256L298.11783,305.55256L298.11783,305.07251L299.79805,305.07251
				L299.79805,304.59246L300.75817,304.59246L300.75817,304.11241L302.43838,304.11241L302.43838,303.39233L303.3985,303.39233L
				303.3985,302.91228L305.07872,302.91228L305.07872,302.43223L306.03884,302.43223L306.03884,301.95218L307.71905,301.95218L307.71905,301.47213
				L308.67917,301.47213L308.67917,300.75205L310.35939,300.75205L310.35939,300.272L311.31951,300.272L311.31951,299.79195L312.99972,299.79195
				L312.99972,299.3119L313.95984,299.3119L313.95984,298.83184L315.64006,298.83184L315.64006,298.11177L317.08024,298.11177L317.08024,297.63172
				L318.28039,297.63172L318.28039,297.15167L319.72057,297.15167L319.72057,296.67161L320.92073,296.67161L320.92073,297.15167
				L322.36091,297.15167L322.36091,297.63172L324.04112,297.63172L324.04112,298.11177L325.00124,298.11177L325.00124,298.83184
				L336.76274,298.83184L336.76274,299.3119L340.84325,299.3119L340.84325,299.79195L343.48359,299.79195L343.48359,300.272L347.32408,300.272
				L347.32408,300.75205L349.48435,300.75205L349.48435,301.47213L350.44447,301.47213L350.44447,301.95218L351.40459,301.95218
				L351.40459,302.43223L353.08481,302.43223L353.08481,302.91228L354.04493,302.91228L354.04493,303.39233L358.84554,303.39233
				L358.84554,304.11241L360.52575,304.11241L360.52575,304.59246L361.48587,304.59246L361.48587,304.11241L363.16609,304.11241
				L363.16609,303.39233L364.60627,303.39233L364.60627,302.91228L366.76654,302.91228L366.76654,302.43223L367.9667,302.43223L
				367.9667,301.95218L369.88694,301.95218L369.88694,301.47213L371.56715,301.47213L371.56715,300.75205L374.20749,300.75205L374.20749,300.272
				L378.52804,300.272L378.52804,299.79195L381.16837,299.79195L381.16837,299.3119L382.12849,299.3119L382.12849,298.83184L382.60855,298.83184
				L382.60855,298.11177L383.80871,298.11177L383.80871,297.63172L384.76883,297.63172L384.76883,297.15167L386.44904,297.15167
				L386.44904,296.67161L387.88922,296.67161L387.88922,296.19156L389.56944,296.19156L389.56944,295.47149L391.00962,295.47149
				L391.00962,294.99144L392.20977,294.99144L392.20977,294.51138L393.64996,294.51138L393.64996,294.03133L396.29029,294.03133
				L396.29029,293.55128L398.45057,293.55128L398.45057,294.03133L401.57096,294.03133L401.57096,294.51138L402.77111,294.51138
				L402.77111,294.99144L403.25117,294.99144L403.25117,295.47149L404.2113,295.47149L404.2113,296.19156L405.41145,296.19156L405.41145,296.67161
				L405.89151,296.67161L405.89151,297.15167L406.85163,297.15167L406.85163,297.63172L408.05178,297.63172L408.05178,298.11177
				L408.53184,298.11177L408.53184,298.83184L411.17218,298.83184L411.17218,298.11177L412.1323,298.11177L412.1323,297.63172L413.33245,297.63172
				L413.33245,297.15167L414.29258,297.15167L414.29258,296.67161L415.49273,296.67161L415.49273,296.19156L415.97279,296.19156
				L415.97279,295.47149L416.93291,295.47149L416.93291,296.19156L416.45285,296.19156L416.45285,297.15167L415.97279,297.15167
				L415.97279,298.83184L415.49273,298.83184L415.49273,300.272L414.77264,300.272L414.77264,300.75205L414.29258,300.75205L414.29258,301.95218
				L413.81251,301.95218L413.81251,302.43223L413.33245,302.43223L413.33245,303.39233L412.85239,303.39233L412.85239,304.11241
				L412.1323,304.11241L412.1323,305.07251L411.65224,305.07251L411.65224,305.55256L411.17218,305.55256L411.17218,306.03261L410.21206,306.03261
				L410.21206,305.55256L409.01191,305.55256L409.01191,305.07251L408.53184,305.07251L408.53184,304.59246L408.05178,304.59246
				L408.05178,304.11241L407.57172,304.11241L407.57172,303.39233L406.37157,303.39233L406.37157,302.91228L405.89151,302.91228
				L405.89151,302.43223L405.41145,302.43223L405.41145,301.95218L404.93139,301.95218L404.93139,301.47213L403.73124,301.47213
				L403.73124,300.75205L403.25117,300.75205L403.25117,300.272L402.77111,300.272L402.77111,299.79195L402.29105,299.79195L402.29105,299.3119
				L401.0909,299.3119L401.0909,298.83184L400.61084,298.83184L400.61084,298.11177L400.13078,298.11177L400.13078,297.63172L399.65072,297.63172
				L399.65072,297.15167L398.45057,297.15167L398.45057,296.67161L397.9705,296.67161L397.9705,296.19156L397.49044,296.19156L397.49044,296.67161
				L396.29029,296.67161L396.29029,297.15167L395.81023,297.15167L395.81023,297.63172L395.33017,297.63172L395.33017,298.11177
				L394.85011,298.11177L394.85011,298.83184L393.64996,298.83184L393.64996,299.3119L393.16989,299.3119L393.16989,299.79195L392.68983,299.79195
				L392.68983,300.272L392.20977,300.272L392.20977,300.75205L391.00962,300.75205L391.00962,301.47213L390.52956,301.47213L390.52956,301.95218
				L390.0495,301.95218L390.0495,302.43223L389.56944,302.43223L389.56944,302.91228L389.08938,302.91228L389.08938,303.39233L390.0495,303.39233
				L390.0495,304.11241L390.52956,304.11241L390.52956,304.59246L391.00962,304.59246L391.00962,305.07251L391.72971,305.07251L
				391.72971,305.55256L392.68983,305.55256L392.68983,306.03261L393.16989,306.03261L393.16989,306.75269L393.64996,306.75269L
				393.64996,307.23274L393.16989,307.23274L393.16989,307.71279L392.20977,307.71279L392.20977,308.19284L391.72971,308.19284L
				391.72971,308.67289L390.52956,308.67289L390.52956,309.39297L390.0495,309.39297L390.0495,309.87302L389.56944,309.87302L389.56944,310.35307
				L388.36929,310.35307L388.36929,310.83312L387.88922,310.83312L387.88922,311.31317L387.40916,311.31317L387.40916,312.03325
				L386.44904,312.03325L386.44904,312.5133L385.72895,312.5133L385.72895,312.99335L384.76883,312.99335L384.76883,313.4734L384.28877,313.4734
				L384.28877,313.95346L383.80871,313.95346L383.80871,313.4734L383.08862,313.4734L383.08862,312.99335L382.60855,312.99335L382.60855,312.5133
				L382.12849,312.5133L382.12849,312.03325L381.64843,312.03325L381.64843,311.31317L381.16837,311.31317L381.16837,310.83312L
				380.44828,310.83312L380.44828,310.35307L379.96822,310.35307L379.96822,309.87302L379.0081,309.87302L379.0081,310.35307L377.80795,310.35307
				L377.80795,310.83312L377.32788,310.83312L377.32788,311.31317L376.84782,311.31317L376.84782,312.03325L376.36776,312.03325
				L376.36776,312.5133L375.16761,312.5133L375.16761,312.99335L374.68755,312.99335L374.68755,313.4734L374.20749,313.4734L374.20749,313.95346
				L373.24737,313.95346L373.24737,314.67353L372.52728,314.67353L372.52728,315.15358L372.04721,315.15358L372.04721,315.63363
				L371.56715,315.63363L371.56715,316.11369L371.08709,316.11369L371.08709,317.79386L370.60703,317.79386L370.60703,319.47404
				L369.88694,319.47404L369.88694,320.9142L369.40688,320.9142L369.40688,320.43415L368.44676,320.43415L368.44676,319.9541L367.24661,319.9541
				L367.24661,319.47404L366.28648,319.47404L366.28648,319.9541L365.80642,319.9541L365.80642,320.43415L365.32636,320.43415L365.32636,321.39425
				L364.60627,321.39425L364.60627,322.11433L364.12621,322.11433L364.12621,322.59438L363.64615,322.59438L363.64615,323.55448
				L363.16609,323.55448L363.16609,324.03453L362.68603,324.03453L362.68603,324.75461L361.96594,324.75461L361.96594,325.71471
				L361.48587,325.71471L361.48587,326.19476L361.00581,326.19476L361.00581,326.67481L360.52575,326.67481L360.52575,327.39489
				L360.04569,327.39489L360.04569,328.35499L358.36548,328.35499L358.36548,327.87494L356.2052,327.87494L356.2052,327.39489L354.04493,327.39489
				L354.04493,326.67481L352.12469,326.67481L352.12469,326.19476L349.96441,326.19476L349.96441,325.71471L349.48435,325.71471
				L349.48435,351.63747L349.96441,351.63747L349.96441,376.84016L349.48435,376.84016L349.48435,377.56023L348.76426,377.56023
				L348.76426,378.04028L348.2842,378.04028L348.2842,378.52034L347.80414,378.52034L347.80414,379.00039L347.32408,379.00039L347.32408,379.48044
				L346.84402,379.48044L346.84402,380.20051L346.12392,380.20051L346.12392,380.68057L345.64386,380.68057L345.64386,381.16062
				L345.1638,381.16062L345.1638,381.64067L344.68374,381.64067L344.68374,382.12072L344.20368,382.12072L344.20368,382.8408L343.48359,382.8408
				L343.48359,383.32085L343.00353,383.32085L343.00353,383.8009L342.52347,383.8009L342.52347,384.28095L342.04341,384.28095L342.04341,384.761
				L341.56335,384.761"/>
			<path clip-path="url(#SVG_CP_2)" fill="none" stroke="#999999" stroke-width="0.96012" stroke-miterlimit="10" stroke-linecap="round" stroke-linejoin="round" d="
				M341.56335,384.761L341.56335,385.48108L340.84325,385.48108L340.84325,385.96113L340.36319,385.96113L340.36319,386.44118L339.88313,386.44118
				L339.88313,386.92123L336.76274,386.92123L336.76274,387.40128L335.08252,387.40128L335.08252,388.12136L334.60246,388.12136
				L334.60246,388.60141L334.1224,388.60141L334.1224,389.08146L333.64234,389.08146L333.64234,389.56151L332.92225,389.56151L332.92225,390.04156
				L332.44219,390.04156L332.44219,390.76164L331.96213,390.76164L331.96213,391.24169L331.48207,391.24169L331.48207,391.72174
				L331.00201,391.72174L331.00201,392.20179L330.28191,392.20179L330.28191,392.68185L329.80185,392.68185L329.80185,393.40192
				L329.32179,393.40192L329.32179,393.88197L328.84173,393.88197L328.84173,394.36202L328.36167,394.36202L328.36167,394.84208
				L327.64158,394.84208L327.64158,395.32213L327.16152,395.32213L327.16152,396.0422L326.68146,396.0422L326.68146,396.52225L326.2014,396.52225
				L326.2014,397.00231L325.72134,397.00231L325.72134,397.48236L325.00124,397.48236L325.00124,397.96241L324.52118,397.96241L
				324.52118,398.68248L324.04112,398.68248L324.04112,399.16254L322.36091,399.16254L322.36091,399.64259L321.88085,399.64259L
				321.88085,400.12264L321.40079,400.12264L321.40079,400.60269L320.92073,400.60269L320.92073,401.32277L320.44067,401.32277L
				320.44067,401.80282L319.72057,401.80282L319.72057,402.28287L319.24051,402.28287L319.24051,402.76292L318.76045,402.76292L
				318.76045,403.24297L317.08024,403.24297L317.08024,403.96305L316.60018,403.96305L316.60018,404.4431L316.12012,404.4431L316.12012,404.92315
				L315.64006,404.92315L315.64006,405.4032L315.16,405.4032L315.16,405.88325L314.4399,405.88325L314.4399,406.60333L313.95984,406.60333
				L313.95984,407.08338L313.47978,407.08338L313.47978,407.56343L312.99972,407.56343L312.99972,408.04348L312.51966,408.04348
				L312.51966,408.52353L311.79957,408.52353L311.79957,409.24361L311.31951,409.24361L311.31951,409.72366L310.83945,409.72366
				L310.83945,410.20371L310.35939,410.20371L310.35939,410.68376L309.87933,410.68376L309.87933,411.16381L309.15923,411.16381
				L309.15923,411.88389L308.67917,411.88389L308.67917,412.36394L308.19911,412.36394L308.19911,412.84399L307.71905,412.84399
				L307.71905,413.32404L307.23899,413.32404L307.23899,413.8041L306.5189,413.8041L306.5189,414.52417L306.03884,414.52417L306.03884,415.00422
				L305.55878,415.00422L305.55878,415.48427L305.07872,415.48427L305.07872,415.96433L304.59865,415.96433L304.59865,416.44438
				L303.87856,416.44438L303.87856,417.16445L303.3985,417.16445L303.3985,417.64451L302.91844,417.64451L302.91844,418.12456L302.43838,418.12456
				L302.43838,418.60461L301.95832,418.60461L301.95832,419.08466L301.23823,419.08466L301.23823,419.80474L300.75817,419.80474
				L300.75817,420.28479L300.27811,420.28479L300.27811,420.76484L299.79805,420.76484L299.79805,421.24489L299.31798,421.24489
				L299.31798,421.72494L298.59789,421.72494L298.59789,422.44502L298.11783,422.44502L298.11783,422.92507L297.63777,422.92507
				L297.63777,423.40512L297.15771,423.40512L297.15771,423.88517L288.03655,423.88517L288.03655,424.36522L287.55649,424.36522
				L287.55649,425.0853L284.4361,425.0853L284.4361,425.56535L278.67537,425.56535L278.67537,426.0454L278.1953,426.0454L278.1953,426.52545
				L277.47521,426.52545L277.47521,427.0055L276.99515,427.0055L276.99515,427.72558L276.51509,427.72558L276.51509,428.20563L276.03503,428.20563
				L276.03503,428.68568L275.55497,428.68568L275.55497,429.16573L274.83488,429.16573L274.83488,429.64578L274.35482,429.64578
				L274.35482,430.36586L273.87476,430.36586L273.87476,430.84591L273.3947,430.84591L273.3947,431.32596L272.91463,431.32596L272.91463,431.80601
				L272.19454,431.80601L272.19454,432.28607L271.71448,432.28607L271.71448,433.00614L271.23442,433.00614L271.23442,433.48619
				L270.75436,433.48619L270.75436,433.96624L270.2743,433.96624L270.2743,434.4463L269.55421,434.4463L269.55421,434.92635L269.07415,434.92635
				L269.07415,435.64642L268.59409,435.64642L268.59409,436.12647L268.11402,436.12647L268.11402,436.60653L267.63396,436.60653
				L267.63396,437.08658L266.91387,437.08658L266.91387,437.56663L266.43381,437.56663L266.43381,438.2867L265.95375,438.2867L265.95375,438.76676
				L265.47369,438.76676L265.47369,439.24681L264.99363,439.24681L264.99363,439.72686L264.27354,439.72686L264.27354,440.20691
				L263.79348,440.20691L263.79348,440.92699L263.31342,440.92699L263.31342,441.40704L262.83335,441.40704L262.83335,441.88709
				L262.35329,441.88709L262.35329,442.36714L261.6332,442.36714L261.6332,442.84719L261.15314,442.84719L261.15314,443.56727L260.67308,443.56727
				L260.67308,444.04732L259.71296,444.04732L259.71296,444.52737L258.99287,444.52737L258.99287,445.00742L258.51281,445.00742
				L258.51281,445.48747L258.03275,445.48747L258.03275,446.20755L257.55268,446.20755L257.55268,446.6876L257.07262,446.6876L257.07262,447.16765
				L256.35253,447.16765L256.35253,447.6477L255.87247,447.6477L255.87247,448.12775L255.39241,448.12775L255.39241,448.84783L254.91235,448.84783
				L254.91235,449.32788L254.43229,449.32788L254.43229,449.80793L253.7122,449.80793L253.7122,450.28798L253.23214,450.28798L253.23214,450.76803
				L252.75208,450.76803L252.75208,451.48811L252.27201,451.48811L252.27201,451.96816L251.79195,451.96816L251.79195,452.44821
				L251.07186,452.44821L251.07186,452.92826L250.5918,452.92826L250.5918,453.40832"/>
			<path clip-path="url(#SVG_CP_2)" fill="none" stroke="#999999" stroke-width="0.96012" stroke-miterlimit="10" stroke-linecap="round" stroke-linejoin="round" d="
				M218.90778,586.62251L218.42772,586.62251L218.42772,583.50218L218.90778,583.50218L218.90778,582.7821L219.38784,582.7821L219.38784,582.30205
				L220.10793,582.30205L220.10793,581.822L219.38784,581.822L219.38784,580.8619L220.10793,580.8619L220.10793,579.18172L220.58799,579.18172
				L220.58799,576.06139L221.06805,576.06139L221.06805,573.90116L221.54812,573.90116L221.54812,571.26087L222.02818,571.26087
				L222.02818,568.62059L222.74827,568.62059L222.74827,566.46036L223.22833,566.46036L223.22833,564.30013L223.70839,564.30013
				L223.70839,562.85998L224.18845,562.85998L224.18845,560.2197L224.66851,560.2197L224.66851,557.57942L225.3886,557.57942L225.3886,555.89924
				L225.86866,555.89924L225.86866,552.29885L226.34872,552.29885L226.34872,550.13862L226.82879,550.13862L226.82879,547.49834
				L227.30885,547.49834L227.30885,544.37801L228.02894,544.37801L228.02894,542.69783L228.509,542.69783L228.509,541.25768L228.98906,541.25768
				L228.98906,539.5775L229.46912,539.5775L229.46912,538.6174L229.94918,538.6174L229.94918,536.93722L230.66927,536.93722L230.66927,535.97711
				L231.14933,535.97711L231.14933,534.77699L231.62939,534.77699L231.62939,534.29694L232.10946,534.29694L232.10946,533.81688
				L232.58952,533.81688L232.58952,533.33683L233.30961,533.33683L233.30961,531.1766L232.58952,531.1766L232.58952,530.69655L232.10946,530.69655
				L232.10946,529.49642L231.62939,529.49642L231.62939,529.01637L231.14933,529.01637L231.14933,528.05627L230.66927,528.05627
				L230.66927,526.85614L229.94918,526.85614L229.94918,525.89604L229.46912,525.89604L229.46912,525.41599L228.98906,525.41599
				L228.98906,524.21586L228.509,524.21586L228.509,523.25576L228.02894,523.25576L228.02894,522.05563L227.30885,522.05563L227.30885,521.09553
				L226.82879,521.09553L226.82879,520.61548L226.34872,520.61548L226.34872,520.13543L225.3886,520.13543L225.3886,519.41535L223.70839,519.41535
				L223.70839,518.9353L222.74827,518.9353L222.74827,518.45525L221.54812,518.45525L221.54812,517.9752L220.10793,517.9752L220.10793,517.49515
				L218.90778,517.49515L218.90778,516.77507L217.94766,516.77507L217.94766,516.29502L217.4676,516.29502L217.4676,515.81497L216.74751,515.81497
				L216.74751,515.33492L216.26745,515.33492L216.26745,514.85486L215.78738,514.85486L215.78738,514.13479L215.30732,514.13479
				L215.30732,513.65474L214.82726,513.65474L214.82726,513.17468L213.62711,513.17468L213.62711,512.21458L212.66699,512.21458
				L212.66699,511.49451L212.18693,511.49451L212.18693,511.01445L211.46684,511.01445L211.46684,510.5344L210.98678,510.5344L210.98678,510.05435
				L210.50671,510.05435L210.50671,509.5743L210.02665,509.5743L210.02665,508.85422L209.54659,508.85422L209.54659,508.37417L208.8265,508.37417
				L208.8265,507.89412L208.34644,507.89412L208.34644,507.41407L207.86638,507.41407L207.86638,506.93402L206.90626,506.93402L
				206.90626,505.73389L206.18617,505.73389L206.18617,505.25384L205.70611,505.25384L205.70611,504.77379L204.74598,504.77379L
				204.74598,503.57366L203.54583,503.57366L203.54583,502.61356L202.58571,502.61356L202.58571,501.65346L202.10565,501.65346L
				202.10565,500.93338L201.62559,500.93338L201.62559,500.45333L200.42544,500.45333L200.42544,499.97328L198.98525,499.97328L
				198.98525,499.49323L198.26516,499.49323L198.26516,499.01318L197.7851,499.01318L197.7851,497.333L197.30504,497.333L197.30504,496.37289
				L196.82498,496.37289L196.82498,495.65282L196.34492,495.65282L196.34492,494.69272L195.62483,494.69272L195.62483,493.73261
				L195.14476,493.73261L195.14476,493.01254L194.6647,493.01254L194.6647,491.57238L194.18464,491.57238L194.18464,491.09233L193.70458,491.09233
				L193.70458,489.8922L192.98449,489.8922L192.98449,488.9321L192.50443,488.9321L192.50443,488.45205L192.02437,488.45205L192.02437,486.77187
				L191.54431,486.77187L191.54431,486.29182L191.06425,486.29182L191.06425,485.81177L190.34416,485.81177L190.34416,484.13159
				L189.86409,484.13159L189.86409,483.65154L189.38403,483.65154L189.38403,482.45141L188.90397,482.45141L188.90397,481.49131
				L188.42391,481.49131L188.42391,481.01126L187.70382,481.01126L187.70382,479.81113L187.22376,479.81113L187.22376,478.85103
				L186.7437,478.85103L186.7437,478.37098L186.26364,478.37098L186.26364,477.17085L185.78358,477.17085L185.78358,476.21075L185.06349,476.21075
				L185.06349,475.73069L184.58342,475.73069L184.58342,474.53057L184.10336,474.53057L184.10336,474.05052L183.6233,474.05052L
				183.6233,473.09041L183.14324,473.09041L183.14324,471.89029L182.42315,471.89029L182.42315,471.41023L181.94309,471.41023L181.94309,470.93018
				L181.46303,470.93018L181.46303,469.97008L180.98297,469.97008L180.98297,469.25L180.50291,469.25L180.50291,468.76995L179.78282,468.76995
				L179.78282,468.2899L179.30275,468.2899L179.30275,467.80985L178.82269,467.80985L178.82269,467.3298L178.34263,467.3298L178.34263,466.60972
				L177.86257,466.60972L177.86257,466.12967L177.14248,466.12967L177.14248,465.64962L176.66242,465.64962L176.66242,465.16957
				L175.7023,465.16957L175.7023,464.68952L175.22224,464.68952L175.22224,463.96944L174.50215,463.96944L174.50215,463.48939L174.02208,463.48939
				L174.02208,463.00934L173.54202,463.00934L173.54202,462.52929L173.06196,462.52929L173.06196,461.32916L172.5819,461.32916L
				172.5819,460.84911L171.86181,460.84911L171.86181,460.36906L170.42163,460.36906L170.42163,459.88901L169.22148,459.88901L169.22148,459.40896
				L168.74141,459.40896L168.74141,458.68888L167.30123,458.68888L167.30123,458.20883L166.10108,458.20883L166.10108,457.72878
				L165.62102,457.72878L165.62102,457.24873L157.70001,457.24873L157.70001,456.76867L155.53974,456.76867L155.53974,456.0486L
				152.8994,456.0486L152.8994,455.56855L151.93928,455.56855L151.93928,455.0885L150.73913,455.0885L150.73913,454.60844L149.77901,454.60844
				L149.77901,454.12839L147.13867,454.12839L147.13867,453.40832L141.858,453.40832L141.858,452.92826L141.37794,452.92826L141.37794,453.40832
				L140.17779,453.40832L140.17779,452.92826L139.69773,452.92826L139.69773,452.44821L141.858,452.44821L141.858,451.96816L144.49834,451.96816
				L144.49834,451.48811L158.66013,451.48811L158.66013,449.32788L159.38023,449.32788L159.38023,448.12775L166.10108,448.12775
				L166.10108,447.6477L169.22148,447.6477L169.22148,447.16765L173.06196,447.16765L173.06196,446.6876L176.18236,446.6876L176.18236,446.20755
				L177.14248,446.20755L177.14248,446.6876L177.86257,446.6876L177.86257,447.16765L178.34263,447.16765L178.34263,447.6477L178.82269,447.6477
				L178.82269,448.12775L179.30275,448.12775L179.30275,448.84783L179.78282,448.84783L179.78282,449.32788L180.50291,449.32788
				L180.50291,449.80793L180.98297,449.80793L180.98297,450.28798L181.46303,450.28798L181.46303,450.76803L181.94309,450.76803
				L181.94309,451.48811L182.42315,451.48811L182.42315,451.96816L183.14324,451.96816L183.14324,452.44821L183.6233,452.44821L
				183.6233,453.40832L184.10336,453.40832L184.10336,454.12839L184.58342,454.12839L184.58342,454.60844L185.06349,454.60844L185.06349,455.0885
				L185.78358,455.0885L185.78358,455.56855L186.26364,455.56855L186.26364,456.0486L186.7437,456.0486L186.7437,456.76867L187.22376,456.76867
				L187.22376,457.24873L187.70382,457.24873L187.70382,457.72878L188.42391,457.72878L188.42391,458.20883L188.90397,458.20883
				L188.90397,458.68888L189.38403,458.68888L189.38403,459.40896L189.86409,459.40896L189.86409,459.88901L190.34416,459.88901
				L190.34416,460.36906L191.06425,460.36906L191.06425,460.84911L191.54431,460.84911L191.54431,461.32916L192.02437,461.32916
				L192.02437,462.04924L192.50443,462.04924L192.50443,462.52929L192.98449,462.52929L192.98449,463.00934L193.70458,463.00934
				L193.70458,463.48939L194.18464,463.48939L194.18464,463.96944L194.6647,463.96944L194.6647,465.16957L195.14476,465.16957L195.14476,465.64962
				L195.62483,465.64962L195.62483,466.12967L196.34492,466.12967L196.34492,467.3298L196.82498,467.3298L196.82498,467.80985L197.30504,467.80985
				L197.30504,468.2899L197.7851,468.2899L197.7851,469.25L198.26516,469.25L198.26516,469.97008L198.98525,469.97008L198.98525,470.45013
				L199.46531,470.45013L199.46531,470.93018L199.94537,470.93018L199.94537,471.89029L200.42544,471.89029L200.42544,472.61036
				L200.9055,472.61036L200.9055,473.09041L201.62559,473.09041L201.62559,474.05052L202.10565,474.05052L202.10565,474.53057L202.58571,474.53057
				L202.58571,475.25064L203.06577,475.25064L203.06577,476.21075L203.54583,476.21075L203.54583,476.6908L204.26592,476.6908L204.26592,477.17085
				L204.74598,477.17085L204.74598,477.89092L205.22604,477.89092L205.22604,478.85103L205.70611,478.85103L205.70611,479.33108
				L206.18617,479.33108L206.18617,479.81113L206.90626,479.81113L206.90626,481.01126L207.38632,481.01126L207.38632,481.49131
				L207.86638,481.49131L207.86638,481.97136L208.34644,481.97136L208.34644,483.17149L208.8265,483.17149L208.8265,483.65154L209.54659,483.65154
				L209.54659,484.61164L210.02665,484.61164L210.02665,485.81177L210.50671,485.81177L210.50671,486.77187L210.98678,486.77187
				L210.98678,487.73197L211.46684,487.73197L211.46684,488.9321L212.18693,488.9321L212.18693,489.8922L212.66699,489.8922L212.66699,491.09233
				L213.14705,491.09233L213.14705,492.05243L213.62711,492.05243L213.62711,493.01254L214.10717,493.01254L214.10717,494.21266
				L214.82726,494.21266L214.82726,494.69272L215.30732,494.69272L215.30732,495.17277L215.78738,495.17277L215.78738,496.37289
				L216.26745,496.37289L216.26745,496.85295L216.74751,496.85295L216.74751,497.333L217.4676,497.333L217.4676,498.2931L217.94766,498.2931
				L217.94766,499.01318L218.42772,499.01318L218.42772,499.49323L218.90778,499.49323L218.90778,500.45333L219.38784,500.45333
				L219.38784,500.93338L220.10793,500.93338L220.10793,501.65346L220.58799,501.65346L220.58799,502.61356L221.06805,502.61356
				L221.06805,503.09361L221.54812,503.09361L221.54812,503.57366L222.02818,503.57366L222.02818,504.77379L222.74827,504.77379
				L222.74827,505.25384L223.22833,505.25384L223.22833,505.73389L223.70839,505.73389L223.70839,506.93402L224.18845,506.93402
				L224.18845,507.41407L224.66851,507.41407L224.66851,508.37417L225.3886,508.37417L225.3886,508.85422L225.86866,508.85422L225.86866,509.5743
				L226.34872,509.5743L226.34872,508.85422L226.82879,508.85422L226.82879,508.37417L228.02894,508.37417L228.02894,507.89412L
				228.98906,507.89412L228.98906,507.41407L229.46912,507.41407L229.46912,506.93402L230.66927,506.93402L230.66927,506.21394L
				231.14933,506.21394L231.14933,507.89412L231.62939,507.89412L231.62939,509.5743L232.10946,509.5743L232.10946,510.5344L232.58952,510.5344
				L232.58952,511.49451L233.30961,511.49451L233.30961,512.69463L233.78967,512.69463L233.78967,513.17468L234.26973,513.17468
				L234.26973,514.13479L234.74979,514.13479L234.74979,515.33492L235.22985,515.33492L235.22985,516.29502L235.94994,516.29502
				L235.94994,517.49515L236.43,517.49515L236.43,518.45525L236.91007,518.45525L236.91007,518.9353L237.39013,518.9353L237.39013,520.13543
				L237.87019,520.13543L237.87019,521.09553L238.59028,521.09553L238.59028,522.05563L239.07034,522.05563L239.07034,523.25576
				L239.5504,523.25576L239.5504,523.73581L240.03046,523.73581L240.03046,524.69591L240.51052,524.69591L240.51052,525.89604L245.79119,525.89604
				L245.79119,525.41599L251.79195,525.41599L251.79195,524.69591L254.91235,524.69591L254.91235,525.41599L254.43229,525.41599
				L254.43229,525.89604L253.7122,525.89604L253.7122,526.85614L253.23214,526.85614L253.23214,528.05627L252.75208,528.05627L252.75208,528.53632
				L252.27201,528.53632L252.27201,529.49642L251.79195,529.49642L251.79195,531.1766L251.07186,531.1766L251.07186,532.13671L250.5918,532.13671
				L250.5918,533.81688L250.11174,533.81688L250.11174,535.25704L249.63168,535.25704L249.63168,536.45717L249.15162,536.45717L
				249.15162,537.89732L248.43153,537.89732L248.43153,539.09745L247.95147,539.09745L247.95147,540.5376L247.47141,540.5376L247.47141,541.73773
				L245.79119,541.73773L245.79119,541.25768L244.35101,541.25768L244.35101,540.5376L242.6708,540.5376L242.6708,540.05755L241.23061,540.05755
				L241.23061,539.5775L239.5504,539.5775L239.5504,539.09745L237.87019,539.09745L237.87019,539.5775L237.39013,539.5775L237.39013,541.25768
				L236.91007,541.25768L236.91007,542.21778L236.43,542.21778L236.43,543.89796L235.94994,543.89796L235.94994,545.33811L235.22985,545.33811
				L235.22985,547.01829L234.74979,547.01829L234.74979,547.97839L234.26973,547.97839L234.26973,549.65857L233.78967,549.65857
				L233.78967,551.09873L233.30961,551.09873L233.30961,552.77891L232.58952,552.77891L232.58952,554.45908L232.10946,554.45908
				L232.10946,555.41919L231.62939,555.41919L231.62939,557.09937L231.14933,557.09937L231.14933,558.05947L230.66927,558.05947
				L230.66927,559.01957L229.94918,559.01957L229.94918,560.69975L229.46912,560.69975L229.46912,561.65985L228.98906,561.65985
				L228.98906,562.85998L228.509,562.85998L228.509,564.30013L228.02894,564.30013L228.02894,565.50026L227.30885,565.50026L227.30885,566.46036
				L226.82879,566.46036L226.82879,568.14054L226.34872,568.14054L226.34872,569.10064L225.86866,569.10064L225.86866,570.78082
				L225.3886,570.78082L225.3886,571.74093L224.66851,571.74093L224.66851,572.94105L224.18845,572.94105L224.18845,574.38121L223.70839,574.38121
				L223.70839,575.58133L223.22833,575.58133L223.22833,576.54144L222.74827,576.54144L222.74827,578.22162L222.02818,578.22162
				L222.02818,579.18172L221.54812,579.18172L221.54812,580.14182L221.06805,580.14182L221.06805,581.822L220.58799,581.822L220.58799,582.7821
				L220.10793,582.7821L220.10793,583.98223L219.38784,583.98223L219.38784,585.42238L218.90778,585.42238L218.90778,586.62251"/>
			<path clip-path="url(#SVG_CP_2)" fill="none" stroke="#999999" stroke-width="0.96012" stroke-miterlimit="10" stroke-linecap="round" stroke-linejoin="round" d="
				M250.5918,453.40832L251.79195,453.40832L251.79195,452.92826L252.27201,452.92826L252.27201,452.44821L252.75208,452.44821L
				252.75208,451.96816L253.23214,451.96816L253.23214,451.48811L253.7122,451.48811L253.7122,450.76803L254.43229,450.76803L254.43229,450.28798
				L254.91235,450.28798L254.91235,449.80793L255.39241,449.80793L255.39241,449.32788L255.87247,449.32788L255.87247,448.84783
				L256.35253,448.84783L256.35253,448.12775L257.07262,448.12775L257.07262,447.6477L257.55268,447.6477L257.55268,447.16765L258.03275,447.16765
				L258.03275,446.6876L258.51281,446.6876L258.51281,446.20755L258.99287,446.20755L258.99287,445.48747L259.71296,445.48747L259.71296,445.00742
				L260.19302,445.00742L260.19302,444.52737L260.67308,444.52737L260.67308,444.04732L261.15314,444.04732L261.15314,443.56727
				L261.6332,443.56727L261.6332,442.84719L262.35329,442.84719L262.35329,442.36714L262.83335,442.36714L262.83335,441.88709L263.31342,441.88709
				L263.31342,441.40704L263.79348,441.40704L263.79348,440.92699L264.27354,440.92699L264.27354,440.20691L264.99363,440.20691
				L264.99363,439.72686L265.47369,439.72686L265.47369,439.24681L265.95375,439.24681L265.95375,438.76676L266.43381,438.76676
				L266.43381,438.2867L266.91387,438.2867L266.91387,437.56663L267.63396,437.56663L267.63396,437.08658L268.11402,437.08658L268.11402,436.60653
				L268.59409,436.60653L268.59409,436.12647L269.07415,436.12647L269.07415,435.64642L269.55421,435.64642L269.55421,434.92635
				L270.2743,434.92635L270.2743,434.4463L270.75436,434.4463L270.75436,433.96624L271.23442,433.96624L271.23442,433.48619L271.71448,433.48619
				L271.71448,433.00614L272.19454,433.00614L272.19454,432.28607L272.91463,432.28607L272.91463,431.80601L273.3947,431.80601L
				273.3947,431.32596L273.87476,431.32596L273.87476,430.84591L279.63549,430.84591L279.63549,430.36586L280.11555,430.36586L280.11555,429.64578
				L280.83564,429.64578L280.83564,429.16573L281.3157,429.16573L281.3157,428.68568L281.79576,428.68568L281.79576,428.20563L282.27582,428.20563
				L282.27582,427.72558L282.75588,427.72558L282.75588,427.0055L283.47597,427.0055L283.47597,426.52545L283.95604,426.52545L283.95604,426.0454
				L284.4361,426.0454L284.4361,425.56535L295.95756,425.56535L295.95756,425.0853L296.67765,425.0853L296.67765,424.36522L297.15771,424.36522
				L297.15771,423.88517L297.63777,423.88517L297.63777,423.40512L298.11783,423.40512L298.11783,422.92507L298.59789,422.92507
				L298.59789,422.44502L299.31798,422.44502L299.31798,421.72494L299.79805,421.72494L299.79805,421.24489L300.27811,421.24489
				L300.27811,420.76484L300.75817,420.76484L300.75817,420.28479L301.23823,420.28479L301.23823,419.80474L301.95832,419.80474
				L301.95832,419.08466L302.43838,419.08466L302.43838,418.60461L302.91844,418.60461L302.91844,418.12456L303.3985,418.12456L
				303.3985,417.64451L303.87856,417.64451L303.87856,417.16445L304.59865,417.16445L304.59865,416.44438L305.07872,416.44438L305.07872,415.96433
				L305.55878,415.96433L305.55878,415.48427L306.03884,415.48427L306.03884,415.00422L306.5189,415.00422L306.5189,414.52417L307.23899,414.52417
				L307.23899,413.8041L307.71905,413.8041L307.71905,413.32404L308.19911,413.32404L308.19911,412.84399L308.67917,412.84399L308.67917,412.36394
				L309.15923,412.36394L309.15923,411.88389L309.87933,411.88389L309.87933,411.16381L310.35939,411.16381L310.35939,410.68376
				L310.83945,410.68376L310.83945,410.20371L311.31951,410.20371L311.31951,409.72366L311.79957,409.72366L311.79957,409.24361
				L312.51966,409.24361L312.51966,408.52353L312.99972,408.52353L312.99972,408.04348L313.47978,408.04348L313.47978,407.56343
				L315.16,407.56343L315.16,407.08338L315.64006,407.08338L315.64006,406.60333L316.12012,406.60333L316.12012,405.88325L316.60018,405.88325
				L316.60018,405.4032L317.08024,405.4032L317.08024,404.92315L317.80033,404.92315L317.80033,404.4431L318.28039,404.4431L318.28039,403.96305
				L318.76045,403.96305L318.76045,403.24297L321.88085,403.24297L321.88085,402.76292L322.36091,402.76292L322.36091,402.28287
				L323.081,402.28287L323.081,401.80282L323.56106,401.80282L323.56106,401.32277L324.04112,401.32277L324.04112,400.60269L324.52118,400.60269
				L324.52118,400.12264L327.16152,400.12264L327.16152,399.64259L327.64158,399.64259L327.64158,399.16254L328.36167,399.16254
				L328.36167,398.68248L328.84173,398.68248L328.84173,397.96241L329.32179,397.96241L329.32179,397.48236L329.80185,397.48236
				L329.80185,397.00231L330.28191,397.00231L330.28191,396.52225L331.00201,396.52225L331.00201,396.0422L331.48207,396.0422L331.48207,395.32213
				L331.96213,395.32213L331.96213,394.84208L332.44219,394.84208L332.44219,394.36202L332.92225,394.36202L332.92225,393.88197
				L333.64234,393.88197L333.64234,393.40192L334.1224,393.40192L334.1224,392.68185L334.60246,392.68185L334.60246,392.20179L335.08252,392.20179
				L335.08252,391.72174L335.56258,391.72174L335.56258,391.24169L336.28268,391.24169L336.28268,390.76164L336.76274,390.76164
				L336.76274,390.04156L337.2428,390.04156L337.2428,389.56151L337.72286,389.56151L337.72286,389.08146L338.20292,389.08146L338.20292,388.60141
				L338.92301,388.60141L338.92301,388.12136L339.40307,388.12136L339.40307,387.40128L339.88313,387.40128L339.88313,386.92123
				L340.36319,386.92123L340.36319,386.44118L340.84325,386.44118L340.84325,385.96113L341.56335,385.96113L341.56335,385.48108
				L342.04341,385.48108L342.04341,384.761L342.52347,384.761L342.52347,384.28095L343.00353,384.28095L343.00353,383.8009L343.48359,383.8009
				L343.48359,383.32085L344.20368,383.32085L344.20368,382.8408L344.68374,382.8408L344.68374,382.12072L345.1638,382.12072L345.1638,381.64067
				L345.64386,381.64067L345.64386,381.16062L346.12392,381.16062L346.12392,380.68057L346.84402,380.68057L346.84402,380.20051
				L347.32408,380.20051L347.32408,379.48044L347.80414,379.48044L347.80414,379.00039L348.2842,379.00039L348.2842,378.52034L348.76426,378.52034
				L348.76426,378.04028L349.48435,378.04028L349.48435,377.56023L349.96441,377.56023L349.96441,376.84016L350.44447,376.84016
				L350.44447,376.36011L354.04493,376.36011L354.04493,376.84016L365.32636,376.84016L365.32636,376.36011L373.24737,376.36011
				L373.24737,375.88005L380.44828,375.88005L380.44828,375.4L386.44904,375.4L386.44904,374.91995L391.72971,374.91995L391.72971,374.19988
				L397.01038,374.19988L397.01038,373.71982L402.29105,373.71982L402.29105,373.23977L408.05178,373.23977L408.05178,372.75972
				L413.33245,372.75972L413.33245,372.27967L419.09318,372.27967L419.09318,371.55959L425.33398,371.55959L425.33398,371.07954
				L432.29486,371.07954L432.29486,370.59949L434.45513,370.59949L434.45513,370.11944L436.61541,370.11944L436.61541,369.63939
				L438.53565,369.63939L438.53565,368.91931L440.21587,368.91931L440.21587,368.43926L442.37614,368.43926L442.37614,367.95921
				L443.81632,367.95921L443.81632,367.47916L445.9766,367.47916L445.9766,366.99911L447.65681,366.99911L447.65681,366.27903L449.09699,366.27903
				L449.09699,365.79898L450.77721,365.79898L450.77721,365.31893L452.45742,365.31893L452.45742,364.83888L454.37766,364.83888
				L454.37766,364.35883L456.05788,364.35883L456.05788,363.63875L457.73809,363.63875L457.73809,363.1587L459.65833,363.1587L459.65833,362.67865
				L461.33855,362.67865L461.33855,362.1986L463.01876,362.1986L463.01876,361.71855L463.97888,361.71855L463.97888,362.1986L463.49882,362.1986
				L463.49882,362.67865L462.29867,362.67865L462.29867,363.63875L461.81861,363.63875L461.81861,364.35883L461.33855,364.35883
				L461.33855,364.83888L460.85848,364.83888L460.85848,365.31893L460.37842,365.31893L460.37842,365.79898L459.65833,365.79898
				L459.65833,366.27903L459.17827,366.27903L459.17827,366.99911L458.69821,366.99911L458.69821,367.47916L458.21815,367.47916
				L458.21815,367.95921L457.73809,367.95921L457.73809,368.43926L457.018,368.43926L457.018,369.63939L456.53794,369.63939L456.53794,370.11944
				L456.05788,370.11944L456.05788,371.07954L455.57781,371.07954L455.57781,371.55959L455.09775,371.55959L455.09775,372.27967
				L454.37766,372.27967L454.37766,372.75972L453.8976,372.75972L453.8976,373.23977L453.41754,373.23977L453.41754,374.19988L452.93748,374.19988
				L452.93748,374.91995L452.45742,374.91995L452.45742,375.88005L451.73733,375.88005L451.73733,376.84016L451.25727,376.84016
				L451.25727,378.04028L450.77721,378.04028L450.77721,379.00039L450.29714,379.00039L450.29714,380.68057L449.81708,380.68057
				L449.81708,381.64067L449.09699,381.64067L449.09699,382.12072L448.61693,382.12072L448.61693,383.32085L448.13687,383.32085
				L448.13687,384.28095L447.65681,384.28095L447.65681,385.48108L447.17675,385.48108L447.17675,386.44118L446.45666,386.44118
				L446.45666,387.40128L445.9766,387.40128L445.9766,388.60141L445.49654,388.60141L445.49654,389.56151L445.01647,389.56151L445.01647,390.76164
				L444.53641,390.76164L444.53641,391.72174L443.81632,391.72174L443.81632,392.68185L443.33626,392.68185L443.33626,393.88197
				L442.8562,393.88197L442.8562,394.84208L442.37614,394.84208L442.37614,395.32213L441.89608,395.32213L441.89608,396.52225L441.17599,396.52225
				L441.17599,397.96241L440.69593,397.96241L440.69593,398.68248L440.21587,398.68248L440.21587,399.64259L439.7358,399.64259L
				439.7358,400.60269L439.25574,400.60269L439.25574,401.80282L438.53565,401.80282L438.53565,402.76292L438.05559,402.76292L438.05559,403.96305
				L437.57553,403.96305L437.57553,405.88325L437.09547,405.88325L437.09547,408.04348L436.61541,408.04348L436.61541,410.20371
				L435.89532,410.20371L435.89532,412.36394L435.41526,412.36394L435.41526,413.8041L434.9352,413.8041L434.9352,415.48427L434.45513,415.48427
				L434.45513,417.16445L433.97507,417.16445L433.97507,418.12456L433.25498,418.12456L433.25498,419.80474L432.77492,419.80474
				L432.77492,421.24489L432.29486,421.24489L432.29486,422.44502L431.8148,422.44502L431.8148,423.40512L431.33474,423.40512L431.33474,425.0853
				L430.61465,425.0853L430.61465,426.52545L430.13459,426.52545L430.13459,427.72558L429.65452,427.72558L429.65452,429.16573L
				429.17446,429.16573L429.17446,430.84591L428.6944,430.84591L428.6944,431.80601L427.97431,431.80601L427.97431,434.4463L427.49425,434.4463
				L427.49425,436.60653L427.01419,436.60653L427.01419,438.2867L426.53413,438.2867L426.53413,439.24681L426.05407,439.24681L426.05407,440.92699
				L425.33398,440.92699L425.33398,441.88709L424.85392,441.88709L424.85392,442.84719L424.37385,442.84719L424.37385,444.52737
				L423.89379,444.52737L423.89379,445.48747L423.41373,445.48747L423.41373,447.16765L422.69364,447.16765L422.69364,448.12775
				L422.21358,448.12775L422.21358,449.80793L421.73352,449.80793L421.73352,450.76803L421.25346,450.76803L421.25346,452.44821
				L420.7734,452.44821L420.7734,453.40832L420.05331,453.40832L420.05331,454.60844L419.57325,454.60844L419.57325,456.76867L419.09318,456.76867
				L419.09318,457.72878L418.61312,457.72878L418.61312,459.40896L418.13306,459.40896L418.13306,460.36906L417.41297,460.36906
				L417.41297,462.52929L416.93291,462.52929L416.93291,463.96944L416.45285,463.96944L416.45285,465.64962L415.97279,465.64962
				L415.97279,467.80985L415.49273,467.80985L415.49273,468.2899L414.77264,468.2899L414.77264,468.76995L414.29258,468.76995L414.29258,469.97008
				L413.81251,469.97008L413.81251,470.45013L413.33245,470.45013L413.33245,470.93018L412.85239,470.93018L412.85239,471.41023
				L412.1323,471.41023L412.1323,471.89029L411.65224,471.89029L411.65224,472.61036L411.17218,472.61036L411.17218,473.57046L410.69212,473.57046
				L410.69212,474.05052L410.21206,474.05052L410.21206,475.25064L409.49197,475.25064L409.49197,475.73069L409.01191,475.73069
				L409.01191,476.21075L408.53184,476.21075L408.53184,476.6908L408.05178,476.6908L408.05178,477.17085L407.57172,477.17085L407.57172,477.89092
				L406.85163,477.89092L406.85163,478.37098L406.37157,478.37098L406.37157,479.33108L405.89151,479.33108L405.89151,480.53121
				L405.41145,480.53121L405.41145,481.49131L404.93139,481.49131L404.93139,481.97136L404.2113,481.97136L404.2113,483.17149L403.73124,483.17149
				L403.73124,483.65154L402.77111,483.65154L402.77111,484.13159L402.29105,484.13159L402.29105,484.61164L401.0909,484.61164L
				401.0909,485.09169L400.13078,485.09169L400.13078,484.61164L399.65072,484.61164L399.65072,485.09169L396.29029,485.09169L396.29029,486.29182
				L395.81023,486.29182L395.81023,486.77187L395.33017,486.77187L395.33017,487.25192L394.85011,487.25192L394.85011,487.73197
				L394.37005,487.73197L394.37005,488.45205L393.64996,488.45205L393.64996,488.9321L392.68983,488.9321L392.68983,489.41215L392.20977,489.41215
				L392.20977,489.8922L391.72971,489.8922L391.72971,490.37225L390.52956,490.37225L390.52956,491.57238L390.0495,491.57238L390.0495,492.05243
				L389.56944,492.05243L389.56944,492.53249L389.08938,492.53249L389.08938,493.01254L388.36929,493.01254L388.36929,493.73261
				L387.88922,493.73261L387.88922,494.69272L387.40916,494.69272L387.40916,495.17277L386.9291,495.17277L386.9291,495.65282L386.44904,495.65282
				L386.44904,496.37289L385.72895,496.37289L385.72895,496.85295L385.24889,496.85295L385.24889,497.333L384.28877,497.333L384.28877,497.81305
				L383.80871,497.81305L383.80871,498.2931L383.08862,498.2931L383.08862,499.01318L382.60855,499.01318L382.60855,499.49323L382.12849,499.49323
				L382.12849,499.97328L381.16837,499.97328L381.16837,500.45333L380.44828,500.45333L380.44828,500.93338L379.48816,500.93338
				L379.48816,501.65346L378.52804,501.65346L378.52804,502.13351L377.32788,502.13351L377.32788,502.61356L376.36776,502.61356
				L376.36776,503.09361L375.16761,503.09361L375.16761,503.57366L374.68755,503.57366L374.68755,504.29374L373.72743,504.29374
				L373.72743,504.77379L373.24737,504.77379L373.24737,505.25384L372.04721,505.25384L372.04721,505.73389L371.08709,505.73389
				L371.08709,506.21394L370.60703,506.21394L370.60703,506.93402L369.88694,506.93402L369.88694,507.41407L369.40688,507.41407
				L369.40688,507.89412L368.92682,507.89412L368.92682,508.37417L368.44676,508.37417L368.44676,509.5743L367.9667,509.5743L367.9667,510.05435
				L367.24661,510.05435L367.24661,510.5344L366.76654,510.5344L366.76654,511.01445L366.28648,511.01445L366.28648,511.49451L365.80642,511.49451
				L365.80642,512.21458L365.32636,512.21458L365.32636,513.17468L364.60627,513.17468L364.60627,513.65474L364.12621,513.65474
				L364.12621,514.13479L363.64615,514.13479L363.64615,514.85486L363.16609,514.85486L363.16609,515.81497L362.68603,515.81497
				L362.68603,516.29502L361.96594,516.29502L361.96594,516.77507L361.48587,516.77507L361.48587,517.49515L360.52575,517.49515
				L360.52575,518.45525L359.3256,518.45525L359.3256,518.9353L358.84554,518.9353L358.84554,519.41535L357.88542,519.41535L357.88542,520.13543
				L357.40536,520.13543L357.40536,520.61548L356.68526,520.61548L356.68526,521.09553L356.2052,521.09553L356.2052,521.57558L355.72514,521.57558
				L355.72514,522.05563L355.24508,522.05563L355.24508,522.77571L354.04493,522.77571L354.04493,523.25576L353.56487,523.25576
				L353.56487,523.73581L353.08481,523.73581L353.08481,524.21586L352.60475,524.21586L352.60475,524.69591L352.12469,524.69591
				L352.12469,525.41599L351.40459,525.41599L351.40459,525.89604L350.44447,525.89604L350.44447,526.37609L349.96441,526.37609
				L349.96441,526.85614L349.48435,526.85614L349.48435,527.33619L348.2842,527.33619L348.2842,528.05627L347.80414,528.05627L347.80414,528.53632
				L347.32408,528.53632L347.32408,529.01637L346.12392,529.01637L346.12392,529.49642L345.64386,529.49642L345.64386,529.97648
				L345.1638,529.97648L345.1638,530.69655L344.20368,530.69655L344.20368,531.1766L343.00353,531.1766L343.00353,531.65665L342.04341,531.65665
				L342.04341,532.13671L340.84325,532.13671L340.84325,532.61676L339.88313,532.61676L339.88313,533.33683L339.40307,533.33683
				L339.40307,533.81688L338.92301,533.81688L338.92301,534.29694L338.20292,534.29694L338.20292,534.77699L337.72286,534.77699
				L337.72286,535.25704L337.2428,535.25704L337.2428,535.97711L336.76274,535.97711L336.76274,536.45717L336.28268,536.45717L336.28268,536.93722
				L335.56258,536.93722L335.56258,537.41727L335.08252,537.41727L335.08252,537.89732L334.60246,537.89732L334.60246,538.6174L
				334.1224,538.6174L334.1224,539.09745L333.64234,539.09745L333.64234,539.5775L332.92225,539.5775L332.92225,540.05755L332.44219,540.05755
				L332.44219,540.5376L331.96213,540.5376L331.96213,541.25768L331.48207,541.25768L331.48207,541.73773L331.00201,541.73773L331.00201,542.21778
				L330.28191,542.21778L330.28191,542.69783L329.80185,542.69783L329.80185,543.17788L329.32179,543.17788L329.32179,543.89796
				L328.36167,543.89796L328.36167,544.37801L327.16152,544.37801L327.16152,544.85806L326.2014,544.85806L326.2014,545.33811L325.72134,545.33811
				L325.72134,545.81816L325.00124,545.81816L325.00124,546.53824L324.52118,546.53824L324.52118,547.01829L323.56106,547.01829
				L323.56106,548.45844L323.081,548.45844L323.081,549.65857L322.36091,549.65857L322.36091,550.61867L321.88085,550.61867L321.88085,551.8188
				L321.40079,551.8188L321.40079,552.77891L320.92073,552.77891L320.92073,553.25896L320.44067,553.25896L320.44067,554.45908L
				319.72057,554.45908L319.72057,555.41919L319.24051,555.41919L319.24051,556.37929L318.76045,556.37929L318.76045,557.09937L
				318.28039,557.09937L318.28039,558.05947L317.80033,558.05947L317.80033,559.01957L317.08024,559.01957L317.08024,560.2197L316.60018,560.2197
				L316.60018,560.69975L316.12012,560.69975L316.12012,561.1798L315.64006,561.1798L315.64006,561.65985L315.16,561.65985L315.16,562.37993
				L314.4399,562.37993L314.4399,563.34003L313.95984,563.34003L313.95984,563.82008L313.47978,563.82008L313.47978,564.30013L312.99972,564.30013
				L312.99972,565.50026L312.51966,565.50026L312.51966,565.98031L311.79957,565.98031L311.79957,566.46036L311.31951,566.46036
				L311.31951,566.94041L310.83945,566.94041L310.83945,568.14054L310.35939,568.14054L310.35939,568.62059L309.87933,568.62059
				L309.87933,569.10064L308.67917,569.10064L308.67917,569.5807L307.23899,569.5807L307.23899,570.30077L306.03884,570.30077L306.03884,570.78082
				L305.55878,570.78082L305.55878,571.74093L305.07872,571.74093L305.07872,572.22098L304.59865,572.22098L304.59865,572.94105
				L303.87856,572.94105L303.87856,573.90116L303.3985,573.90116L303.3985,574.38121L302.91844,574.38121L302.91844,574.86126L302.43838,574.86126
				L302.43838,576.06139L301.95832,576.06139L301.95832,576.54144L301.23823,576.54144L301.23823,577.02149L300.75817,577.02149
				L300.75817,577.50154L300.27811,577.50154L300.27811,578.22162L299.79805,578.22162L299.79805,578.70167L299.31798,578.70167
				L299.31798,579.18172L298.59789,579.18172L298.59789,579.66177L298.11783,579.66177L298.11783,580.14182L297.63777,580.14182
				L297.63777,580.8619L297.15771,580.8619L297.15771,581.34195L295.4775,581.34195L295.4775,581.822L294.51738,581.822L294.51738,582.30205
				L292.83716,582.30205L292.83716,582.7821L290.19683,582.7821L290.19683,583.50218L288.03655,583.50218L288.03655,583.98223L284.91616,583.98223
				L284.91616,584.46228L282.27582,584.46228L282.27582,584.94233L280.83564,584.94233L280.83564,585.42238L279.63549,585.42238
				L279.63549,586.14246L278.67537,586.14246L278.67537,586.62251L277.47521,586.62251L277.47521,587.10256L276.03503,587.10256
				L276.03503,587.58261L274.83488,587.58261L274.83488,588.06266L273.3947,588.06266L273.3947,588.78274L272.19454,588.78274L272.19454,589.26279
				L270.75436,589.26279L270.75436,589.74284L269.55421,589.74284L269.55421,590.2229L268.11402,590.2229L268.11402,590.70295L266.91387,590.70295
				L266.91387,591.42302L265.47369,591.42302L265.47369,591.90307L262.83335,591.90307L262.83335,592.38313L258.03275,592.38313
				L258.03275,591.90307L256.35253,591.90307L256.35253,591.42302L255.39241,591.42302L255.39241,590.70295L253.7122,590.70295L
				253.7122,590.2229L252.75208,590.2229L252.75208,589.74284L251.79195,589.74284L251.79195,589.26279L250.5918,589.26279L250.5918,588.06266
				L250.11174,588.06266L250.11174,587.58261L249.63168,587.58261L249.63168,586.14246L249.15162,586.14246L249.15162,585.42238
				L247.47141,585.42238L247.47141,584.94233L245.79119,584.94233L245.79119,584.46228L244.35101,584.46228L244.35101,583.98223
				L243.87095,583.98223L243.87095,584.46228L243.15086,584.46228L243.15086,584.94233L242.6708,584.94233L242.6708,585.42238L242.19074,585.42238
				L242.19074,586.14246L241.71067,586.14246L241.71067,586.62251L241.23061,586.62251L241.23061,587.58261L240.51052,587.58261
				L240.51052,588.78274L240.03046,588.78274L240.03046,589.74284L239.5504,589.74284L239.5504,590.2229L239.07034,590.2229L239.07034,590.70295
				L238.59028,590.70295L238.59028,591.42302L237.87019,591.42302L237.87019,591.90307L237.39013,591.90307L237.39013,592.38313
				L236.91007,592.38313L236.91007,593.34323L236.43,593.34323L236.43,594.0633L235.94994,594.0633L235.94994,594.54336L235.22985,594.54336
				L235.22985,593.34323L235.94994,593.34323L235.94994,592.38313L236.43,592.38313L236.43,591.90307L236.91007,591.90307L236.91007,590.70295
				L237.39013,590.70295L237.39013,589.74284L237.87019,589.74284L237.87019,586.14246L238.59028,586.14246L238.59028,581.34195
				L239.07034,581.34195L239.07034,578.70167L239.5504,578.70167L239.5504,578.22162L240.51052,578.22162"/>
			<path clip-path="url(#SVG_CP_2)" fill="none" stroke="#999999" stroke-width="0.96012" stroke-miterlimit="10" stroke-linecap="round" stroke-linejoin="round" d="
				M240.51052,578.22162L240.51052,577.50154L242.19074,577.50154L242.19074,577.02149L244.35101,577.02149L244.35101,577.50154
				L245.31113,577.50154L245.31113,578.22162L245.79119,578.22162L245.79119,578.70167L246.51128,578.70167L246.51128,579.18172
				L246.99134,579.18172L246.99134,579.66177L247.47141,579.66177L247.47141,580.14182L247.95147,580.14182L247.95147,581.34195
				L248.43153,581.34195L248.43153,581.822L249.15162,581.822L249.15162,582.30205L249.63168,582.30205L249.63168,583.50218L250.11174,583.50218
				L250.11174,583.98223L250.5918,583.98223L250.5918,584.94233L251.07186,584.94233L251.07186,586.14246L251.79195,586.14246L251.79195,586.62251
				L252.27201,586.62251L252.27201,587.58261L252.75208,587.58261L252.75208,588.06266L253.23214,588.06266L253.23214,588.78274
				L253.7122,588.78274L253.7122,589.26279L255.39241,589.26279L255.39241,589.74284L257.07262,589.74284L257.07262,590.2229L258.03275,590.2229
				L258.03275,590.70295L258.51281,590.70295L258.51281,591.42302L259.71296,591.42302L259.71296,590.70295L260.67308,590.70295
				L260.67308,590.2229L262.35329,590.2229L262.35329,589.74284L263.31342,589.74284L263.31342,589.26279L264.99363,589.26279L264.99363,588.78274
				L265.95375,588.78274L265.95375,588.06266L267.63396,588.06266L267.63396,587.58261L268.59409,587.58261L268.59409,587.10256
				L269.55421,587.10256L269.55421,586.62251L271.23442,586.62251L271.23442,586.14246L272.19454,586.14246L272.19454,585.42238
				L273.87476,585.42238L273.87476,584.94233L274.83488,584.94233L274.83488,584.46228L276.03503,584.46228L276.03503,583.98223
				L277.47521,583.98223L277.47521,583.50218L278.67537,583.50218L278.67537,582.7821L279.63549,582.7821L279.63549,582.30205L281.3157,582.30205
				L281.3157,581.822L282.27582,581.822L282.27582,581.34195L283.95604,581.34195L283.95604,580.8619L284.4361,580.8619L284.4361,580.14182
				L285.39622,580.14182L285.39622,579.66177L286.11631,579.66177L286.11631,579.18172L287.07643,579.18172L287.07643,578.70167
				L287.55649,578.70167L287.55649,578.22162L288.03655,578.22162L288.03655,577.50154L289.23671,577.50154L289.23671,574.86126
				L289.71677,574.86126L289.71677,574.38121L290.19683,574.38121L290.19683,573.4211L290.67689,573.4211L290.67689,572.22098L291.39698,572.22098
				L291.39698,571.74093L291.87704,571.74093L291.87704,570.78082L292.3571,570.78082L292.3571,569.5807L292.83716,569.5807L292.83716,568.62059
				L293.31722,568.62059L293.31722,566.46036L294.03731,566.46036L294.03731,565.02021L294.51738,565.02021L294.51738,563.34003
				L294.03731,563.34003L294.03731,562.85998L294.51738,562.85998L294.51738,561.1798L294.99744,561.1798L294.99744,560.2197L295.4775,560.2197
				L295.4775,559.73965L294.99744,559.73965L294.99744,558.53952L294.51738,558.53952L294.51738,556.37929L294.03731,556.37929L
				294.03731,553.73901L293.31722,553.73901L293.31722,551.09873L292.83716,551.09873L292.83716,549.65857L292.3571,549.65857L292.3571,547.49834
				L291.87704,547.49834L291.87704,542.69783L291.39698,542.69783L291.39698,540.5376L290.67689,540.5376L290.67689,538.6174L290.19683,538.6174
				L290.19683,536.45717L289.71677,536.45717L289.71677,534.29694L289.23671,534.29694L289.23671,532.13671L288.75664,532.13671
				L288.75664,530.69655L288.03655,530.69655L288.03655,528.53632L287.55649,528.53632L287.55649,526.37609L287.07643,526.37609
				L287.07643,524.21586L286.59637,524.21586L286.59637,522.77571L286.11631,522.77571L286.11631,522.05563L285.39622,522.05563
				L285.39622,521.57558L284.4361,521.57558L284.4361,521.09553L283.47597,521.09553L283.47597,520.61548L282.27582,520.61548L282.27582,520.13543
				L281.79576,520.13543L281.79576,519.41535L280.83564,519.41535L280.83564,518.9353L279.63549,518.9353L279.63549,518.45525L279.15543,518.45525
				L279.15543,517.9752L278.1953,517.9752L278.1953,517.49515L276.99515,517.49515L276.99515,516.77507L276.51509,516.77507L276.51509,516.29502
				L275.55497,516.29502L275.55497,515.81497L274.35482,515.81497L274.35482,515.33492L273.3947,515.33492L273.3947,514.85486L272.91463,514.85486
				L272.91463,514.13479L271.71448,514.13479L271.71448,513.65474L270.75436,513.65474L270.75436,513.17468L270.2743,513.17468L
				270.2743,512.69463L269.07415,512.69463L269.07415,512.21458L268.11402,512.21458L268.11402,511.49451L266.91387,511.49451L266.91387,511.01445
				L266.43381,511.01445L266.43381,510.5344L265.47369,510.5344L265.47369,510.05435L264.27354,510.05435L264.27354,509.5743L263.79348,509.5743
				L263.79348,508.85422L262.83335,508.85422L262.83335,508.37417L261.6332,508.37417L261.6332,507.89412L260.67308,507.89412L260.67308,507.41407
				L260.19302,507.41407L260.19302,506.93402L258.99287,506.93402L258.99287,506.21394L258.03275,506.21394L258.03275,505.73389
				L257.07262,505.73389L257.07262,505.25384L255.87247,505.25384L255.87247,504.77379L254.91235,504.77379L254.91235,504.29374
				L253.7122,504.29374L253.7122,503.57366L252.75208,503.57366L252.75208,503.09361L251.79195,503.09361L251.79195,502.61356L250.5918,502.61356
				L250.5918,502.13351L249.63168,502.13351L249.63168,501.65346L248.43153,501.65346L248.43153,500.93338L247.47141,500.93338L
				247.47141,500.45333L246.51128,500.45333L246.51128,499.97328L245.31113,499.97328L245.31113,495.65282L245.79119,495.65282L
				245.79119,491.09233L246.51128,491.09233L246.51128,486.29182L246.99134,486.29182L246.99134,481.49131L247.47141,481.49131L
				247.47141,476.6908L247.95147,476.6908L247.95147,474.53057L248.43153,474.53057L248.43153,472.61036L249.15162,472.61036L249.15162,469.97008
				L249.63168,469.97008L249.63168,463.96944L250.11174,463.96944L250.11174,457.72878L250.5918,457.72878L250.5918,453.40832"/>
		</g>
</g></svg>