<?xml version="1.0" encoding="utf-8" standalone="no"?>
<!-- Creator: ESRI ArcMap 10.0.0.2414 -->
<!DOCTYPE svg PUBLIC "-//W3C//DTD SVG 1.1//EN"  "http://www.w3.org/Graphics/SVG/1.1/DTD/svg11.dtd">
<svg width="595.50236pt" height="595.50236pt" viewBox="25 148.377955 545.50236 545.50236" enable-background="new 25 148.377955 545.50236 545.50236"
	version="1.1" xmlns="http://www.w3.org/2000/svg" xmlns:xlink="http://www.w3.org/1999/xlink" >
	<g id="Couches">
		<g id="cont_1">
			<clipPath id="SVG_CP_2">
				<path d="M574.39289,21.36228L21.36271,21.36228L21.36271,821.36753L574.39289,821.36753L574.39289,21.36228z"/>
			</clipPath>
			<path clip-path="url(#SVG_CP_2)" fill="none" stroke="#999999" stroke-width="0.96012" stroke-miterlimit="10" stroke-linecap="round" stroke-linejoin="round" d="
				M322.84097,343.71663L320.44067,343.71663L320.44067,350.43734L318.28039,350.43734L318.28039,352.8376L315.88009,352.8376L315.88009,354.99783
				L313.71981,354.99783L313.71981,357.15806L311.31951,357.15806L311.31951,359.55832L309.15923,359.55832L309.15923,361.71855
				L306.75893,361.71855L306.75893,364.1188L304.59865,364.1188L304.59865,366.27903L302.19835,366.27903L302.19835,368.67929L300.03808,368.67929
				L300.03808,370.83952L297.63777,370.83952L297.63777,373.23977L295.4775,373.23977L295.4775,375.4L293.07719,375.4L293.07719,377.80026
				L290.91692,377.80026L290.91692,379.96049L288.75664,379.96049L288.75664,382.36075L286.35634,382.36075L286.35634,384.52098
				L284.19607,384.52098L284.19607,386.92123L281.79576,386.92123L281.79576,457.24873L279.63549,457.24873L279.63549,459.64898
				L277.23518,459.64898L277.23518,461.80921L275.07491,461.80921L275.07491,493.73261L272.6746,493.73261L272.6746,500.45333L263.55345,500.45333
				L263.55345,502.85359L256.83259,502.85359L256.83259,505.01382L249.87171,505.01382L249.87171,507.41407L247.71144,507.41407
				L247.71144,509.5743L245.31113,509.5743L245.31113,514.13479L243.15086,514.13479L243.15086,518.69527L240.99058,518.69527L240.99058,523.25576
				L238.59028,523.25576L238.59028,527.81625L236.43,527.81625L236.43,532.37673L234.0297,532.37673L234.0297,536.93722L231.86943,536.93722
				L231.86943,539.33747L229.46912,539.33747L229.46912,543.89796L227.30885,543.89796L227.30885,548.21842L224.90854,548.21842
				L224.90854,552.77891L222.74827,552.77891L222.74827,557.33939L220.34796,557.33939L220.34796,561.89988L218.18769,561.89988
				L218.18769,566.46036L215.78738,566.46036L215.78738,571.02085L213.62711,571.02085L213.62711,575.58133L211.22681,575.58133
				L211.22681,580.14182L209.06653,580.14182L209.06653,582.54208L206.66623,582.54208L206.66623,587.10256L204.50595,587.10256
				L204.50595,591.66305L202.10565,591.66305L202.10565,595.98351L199.94537,595.98351L199.94537,600.54399L197.54507,600.54399
				L197.54507,605.10448L195.3848,605.10448L195.3848,609.66497L193.22452,609.66497L193.22452,614.22545L190.82422,614.22545L190.82422,618.78594
				L188.66394,618.78594L188.66394,623.34642L186.26364,623.34642L186.26364,625.74668L184.10336,625.74668L184.10336,632.4674L
				181.70306,632.4674L181.70306,637.02788L179.54278,637.02788L179.54278,641.58837L177.14248,641.58837L177.14248,646.14885L174.98221,646.14885
				L174.98221,650.70934L172.5819,650.70934L172.5819,655.26983L170.42163,655.26983L170.42163,659.83031L168.02132,659.83031L168.02132,664.3908
				L165.86105,664.3908L165.86105,668.95128L163.46074,668.95128L163.46074,673.51177L161.30047,673.51177L161.30047,678.07226L
				158.90017,678.07226L158.90017,682.63274L156.73989,682.63274L156.73989,687.19323L154.33959,687.19323L154.33959,691.51369L
				152.17931,691.51369L152.17931,696.07417L149.77901,696.07417L149.77901,700.63466L147.61873,700.63466L147.61873,705.19515L
				145.45846,705.19515L145.45846,709.75563L143.05815,709.75563L143.05815,714.31612L140.89788,714.31612L140.89788,718.8766L138.49758,718.8766
				L138.49758,723.43709L136.3373,723.43709L136.3373,727.99758L133.937,727.99758L133.937,732.55806L131.77672,732.55806L131.77672,739.27878
				L129.37642,739.27878L129.37642,743.83926L127.21614,743.83926L127.21614,748.39975L124.81584,748.39975L124.81584,752.96024
				L122.65557,752.96024L122.65557,757.52072L120.25526,757.52072L120.25526,762.08121L118.09499,762.08121L118.09499,766.64169
				L115.69468,766.64169L115.69468,771.20218L113.53441,771.20218L113.53441,775.76267L111.1341,775.76267L111.1341,780.32315L108.97383,780.32315
				L108.97383,784.88364L106.57352,784.88364L106.57352,789.44412L104.41325,789.44412L104.41325,794.00461L102.01295,794.00461
				L102.01295,798.5651L99.85267,798.5651L99.85267,803.12558L97.6924,803.12558L97.6924,807.68607L95.29209,807.68607L95.29209,812.24655
				L93.13182,812.24655L93.13182,816.80704L90.73151,816.80704L90.73151,821.36753L88.57124,821.36753L88.57124,825.92801L86.17094,825.92801
				L86.17094,-18.722M502.38375,-18.722L502.38375,-8.88095L500.22348,-8.88095L500.22348,-11.2812L493.2626,-11.2812L493.2626,-13.44143
				L484.14144,-13.44143L484.14144,-15.84169L475.26031,-15.84169L475.26031,-18.00192L468.29943,-18.00192L468.29943,-18.722M111.1341,-18.722
				L111.1341,-8.88095L113.53441,-8.88095L113.53441,2.40026L115.69468,2.40026L115.69468,16.08171L118.09499,16.08171L118.09499,29.76317
				L120.25526,29.76317L120.25526,41.04437L122.65557,41.04437L122.65557,54.72583L124.81584,54.72583L124.81584,68.40729L127.21614,68.40729
				L127.21614,84.24898L129.37642,84.24898L129.37642,100.33069L131.77672,100.33069L131.77672,118.33261L133.937,118.33261L133.937,134.41432
				L136.3373,134.41432L136.3373,150.25601L138.49758,150.25601L138.49758,166.0977L140.89788,166.0977L140.89788,182.17941L143.05815,182.17941
				L143.05815,195.86087L145.45846,195.86087L145.45846,198.0211L147.61873,198.0211L147.61873,200.42136L149.77901,200.42136L149.77901,202.58159
				L154.33959,202.58159L154.33959,204.98184L156.73989,204.98184L156.73989,207.14207L158.90017,207.14207L158.90017,209.3023L
				161.30047,209.3023L161.30047,211.70256L163.46074,211.70256L163.46074,213.86279L165.86105,213.86279L165.86105,216.26305L168.02132,216.26305
				L168.02132,218.42328L172.5819,218.42328L172.5819,220.82353L174.98221,220.82353L174.98221,222.98376L177.14248,222.98376L177.14248,225.38402
				L179.54278,225.38402L179.54278,227.54425L181.70306,227.54425L181.70306,229.9445L184.10336,229.9445L184.10336,232.10473L186.26364,232.10473
				L186.26364,234.50499L188.66394,234.50499L188.66394,236.66522L193.22452,236.66522L193.22452,239.06548L195.3848,239.06548L
				195.3848,241.22571L197.54507,241.22571L197.54507,243.62596L199.94537,243.62596L199.94537,245.78619L202.10565,245.78619L202.10565,248.18645
				L204.50595,248.18645L204.50595,250.34668L206.66623,250.34668L206.66623,252.74693L211.22681,252.74693L211.22681,254.90716
				L213.62711,254.90716L213.62711,257.30742L215.78738,257.30742L215.78738,259.46765L218.18769,259.46765L218.18769,261.62788
				L220.34796,261.62788L220.34796,264.02814L222.74827,264.02814L222.74827,266.18837L224.90854,266.18837L224.90854,268.58862
				L227.30885,268.58862L227.30885,270.74885L231.86943,270.74885L231.86943,273.14911L234.0297,273.14911L234.0297,275.30934L236.43,275.30934
				L236.43,277.70959L238.59028,277.70959L238.59028,279.86982L240.99058,279.86982L240.99058,282.27008L243.15086,282.27008L243.15086,284.43031
				L245.31113,284.43031L245.31113,286.83057L249.87171,286.83057L249.87171,288.9908L252.27201,288.9908L252.27201,291.39105L254.43229,291.39105
				L254.43229,293.55128L256.83259,293.55128L256.83259,295.95154L258.99287,295.95154L258.99287,298.11177L261.39317,298.11177
				L261.39317,300.51202L263.55345,300.51202L263.55345,302.67225L265.95375,302.67225L265.95375,305.07251L270.51433,305.07251
				L270.51433,307.23274L272.6746,307.23274L272.6746,309.39297L275.07491,309.39297L275.07491,311.79323L277.23518,311.79323L277.23518,313.95346
				L279.63549,313.95346L279.63549,316.35371L281.79576,316.35371L281.79576,318.51394L286.35634,318.51394L286.35634,320.9142L
				290.91692,320.9142L290.91692,323.07443L293.07719,323.07443L293.07719,325.47468L297.63777,325.47468L297.63777,327.63491L302.19835,327.63491
				L302.19835,330.03517L304.59865,330.03517L304.59865,332.1954L309.15923,332.1954L309.15923,334.59566L313.71981,334.59566L313.71981,336.75589
				L315.88009,336.75589L315.88009,339.15614L320.44067,339.15614L320.44067,341.31637L322.84097,341.31637L322.84097,343.71663
				"/>
			<path clip-path="url(#SVG_CP_2)" fill="none" stroke="#999999" stroke-width="0.96012" stroke-miterlimit="10" stroke-linecap="round" stroke-linejoin="round" d="
				M86.17094,861.21177L86.17094,830.4885L88.57124,830.4885L88.57124,834.80896L90.73151,834.80896L90.73151,839.36944L93.13182,839.36944
				L93.13182,843.92993L95.29209,843.92993L95.29209,848.49042L97.6924,848.49042L97.6924,853.0509L99.85267,853.0509L99.85267,857.61139
				L102.01295,857.61139L102.01295,861.21177"/>
			<path clip-path="url(#SVG_CP_2)" fill="none" stroke="#999999" stroke-width="0.96012" stroke-miterlimit="10" stroke-linecap="round" stroke-linejoin="round" d="
				M281.79576,457.24873L284.19607,457.24873L284.19607,455.0885L286.35634,455.0885L286.35634,452.68824L288.75664,452.68824L288.75664,450.52801
				L290.91692,450.52801L290.91692,448.36778L293.07719,448.36778L293.07719,445.96752L295.4775,445.96752L295.4775,443.80729L297.63777,443.80729
				L297.63777,441.40704L300.03808,441.40704L300.03808,439.24681L302.19835,439.24681L302.19835,436.84655L304.59865,436.84655
				L304.59865,434.68632L306.75893,434.68632L306.75893,432.28607L309.15923,432.28607L309.15923,430.12584L311.31951,430.12584
				L311.31951,427.72558L313.71981,427.72558L313.71981,425.56535L315.88009,425.56535L315.88009,423.16509L318.28039,423.16509
				L318.28039,421.00486L320.44067,421.00486L320.44067,350.43734L322.84097,350.43734L322.84097,343.71663L327.40155,343.71663
				L327.40155,345.87686L331.96213,345.87686L331.96213,343.71663L334.1224,343.71663L334.1224,339.15614L336.52271,339.15614L336.52271,336.75589
				L338.68298,336.75589L338.68298,334.59566L340.84325,334.59566L340.84325,332.1954L343.24356,332.1954L343.24356,327.63491L345.40383,327.63491
				L345.40383,325.47468L347.80414,325.47468L347.80414,323.07443L349.96441,323.07443L349.96441,320.9142L352.36472,320.9142L352.36472,318.51394
				L354.52499,318.51394L354.52499,313.95346L359.08557,313.95346L359.08557,316.35371L363.64615,316.35371L363.64615,318.51394
				L366.04645,318.51394L366.04645,316.35371L368.20673,316.35371L368.20673,313.95346L370.60703,313.95346L370.60703,311.79323
				L372.76731,311.79323L372.76731,309.39297L375.16761,309.39297L375.16761,307.23274L377.32788,307.23274L377.32788,305.07251
				L379.72819,305.07251L379.72819,302.67225L381.88846,302.67225L381.88846,300.51202L384.28877,300.51202L384.28877,298.11177
				L386.44904,298.11177L386.44904,293.55128L388.60932,293.55128L388.60932,291.39105L391.00962,291.39105L391.00962,288.9908L
				393.16989,288.9908L393.16989,286.83057L395.5702,286.83057L395.5702,284.43031L397.73047,284.43031L397.73047,282.27008L400.13078,282.27008
				L400.13078,279.86982L404.69136,279.86982L404.69136,277.70959L406.85163,277.70959L406.85163,275.30934L409.25194,275.30934
				L409.25194,273.14911L411.41221,273.14911L411.41221,270.74885L415.97279,270.74885L415.97279,268.58862L418.37309,268.58862
				L418.37309,266.18837L420.53337,266.18837L420.53337,264.02814L422.93367,264.02814L422.93367,261.62788L427.49425,261.62788
				L427.49425,259.46765L429.65452,259.46765L429.65452,257.30742L432.05483,257.30742L432.05483,254.90716L436.37538,254.90716
				L436.37538,252.74693L438.77568,252.74693L438.77568,250.34668L440.93596,250.34668L440.93596,248.18645L443.33626,248.18645
				L443.33626,245.78619L447.89684,245.78619L447.89684,243.62596L450.05711,243.62596L450.05711,241.22571L452.45742,241.22571
				L452.45742,239.06548L454.61769,239.06548L454.61769,236.66522L459.17827,236.66522L459.17827,234.50499L466.13915,234.50499
				L466.13915,232.10473L472.86001,232.10473L472.86001,229.9445L479.82089,229.9445L479.82089,227.54425L486.54174,227.54425L486.54174,225.38402
				L493.2626,225.38402L493.2626,222.98376L500.22348,222.98376L500.22348,220.82353L506.94433,220.82353L506.94433,218.42328L513.90522,218.42328
				L513.90522,216.26305L520.62607,216.26305L520.62607,213.86279L527.58695,213.86279L527.58695,211.70256L534.30781,211.70256
				L534.30781,209.3023L541.02866,209.3023L541.02866,207.14207L547.98954,207.14207L547.98954,204.98184L554.71039,204.98184L554.71039,202.58159
				L561.67128,202.58159L561.67128,200.42136L568.39213,200.42136L568.39213,198.0211L575.35301,198.0211L575.35301,195.86087L582.07387,195.86087
				L582.07387,193.46062L588.79472,193.46062L588.79472,191.30039L593.3553,191.30039L593.3553,188.90013L600.31618,188.90013L600.31618,186.7399
				L601.9964,186.7399M601.9964,705.19515L600.31618,705.19515L600.31618,703.03492L595.7556,703.03492L595.7556,700.63466L593.3553,700.63466
				L593.3553,698.47443L588.79472,698.47443L588.79472,696.07417L586.63445,696.07417L586.63445,693.91394L582.07387,693.91394L
				582.07387,691.51369L577.51329,691.51369L577.51329,689.35346L575.35301,689.35346L575.35301,687.19323L570.79244,687.19323L
				570.79244,684.79297L568.39213,684.79297L568.39213,682.63274L563.83155,682.63274L563.83155,680.23249L559.27097,680.23249L
				559.27097,678.07226L557.1107,678.07226L557.1107,675.672L552.55012,675.672L552.55012,673.51177L547.98954,673.51177L547.98954,671.11151
				L545.58924,671.11151L545.58924,668.95128L541.02866,668.95128L541.02866,666.55103L538.86838,666.55103L538.86838,664.3908L
				534.30781,664.3908L534.30781,661.99054L529.74723,661.99054L529.74723,659.83031L527.58695,659.83031L527.58695,657.43006L523.02637,657.43006
				L523.02637,655.26983L520.62607,655.26983L520.62607,652.86957L516.06549,652.86957L516.06549,650.70934L511.50491,650.70934
				L511.50491,648.30908L509.34464,648.30908L509.34464,646.14885L504.78406,646.14885L504.78406,643.7486L502.38375,643.7486L502.38375,641.58837
				L497.82318,641.58837L497.82318,639.42814L493.2626,639.42814L493.2626,637.02788L491.10232,637.02788L491.10232,634.86765L486.54174,634.86765
				L486.54174,632.4674L481.98117,632.4674L481.98117,630.30717L479.82089,630.30717L479.82089,627.90691L475.26031,627.90691L475.26031,625.74668
				L472.86001,625.74668L472.86001,623.34642L468.29943,623.34642L468.29943,621.18619L463.73885,621.18619L463.73885,618.78594
				L461.57858,618.78594L461.57858,616.62571L457.018,616.62571L457.018,614.22545L454.61769,614.22545L454.61769,612.06522L450.05711,612.06522
				L450.05711,609.66497L445.49654,609.66497L445.49654,607.50474L443.33626,607.50474L443.33626,605.10448L438.77568,605.10448
				L438.77568,602.94425L436.37538,602.94425L436.37538,600.54399L432.05483,600.54399L432.05483,598.38376L427.49425,598.38376
				L427.49425,595.98351L425.09395,595.98351L425.09395,593.82328L420.53337,593.82328L420.53337,591.66305L415.97279,591.66305
				L415.97279,589.26279L413.81251,589.26279L413.81251,587.10256L409.25194,587.10256L409.25194,584.70231L406.85163,584.70231
				L406.85163,582.54208L402.29105,582.54208L402.29105,580.14182L397.73047,580.14182L397.73047,577.98159L395.5702,577.98159L
				395.5702,575.58133L391.00962,575.58133L391.00962,573.4211L388.60932,573.4211L388.60932,571.02085L384.28877,571.02085L384.28877,568.86062
				L379.72819,568.86062L379.72819,566.46036L377.32788,566.46036L377.32788,564.30013L372.76731,564.30013L372.76731,561.89988
				L370.60703,561.89988L370.60703,559.73965L366.04645,559.73965L366.04645,557.33939L361.48587,557.33939L361.48587,555.17916
				L359.08557,555.17916L359.08557,552.77891L354.52499,552.77891L354.52499,550.61867L349.96441,550.61867L349.96441,548.21842
				L347.80414,548.21842L347.80414,546.05819L343.24356,546.05819L343.24356,543.89796L340.84325,543.89796L340.84325,541.4977L
				336.52271,541.4977L336.52271,539.33747L331.96213,539.33747L331.96213,536.93722L329.56182,536.93722L329.56182,534.77699L325.00124,534.77699
				L325.00124,532.37673L322.84097,532.37673L322.84097,530.2165L318.28039,530.2165L318.28039,527.81625L313.71981,527.81625L313.71981,525.65601
				L311.31951,525.65601L311.31951,523.25576L306.75893,523.25576L306.75893,521.09553L302.19835,521.09553L302.19835,518.69527
				L300.03808,518.69527L300.03808,516.53504L295.4775,516.53504L295.4775,514.13479L293.07719,514.13479L293.07719,511.97456L288.75664,511.97456
				L288.75664,509.5743L284.19607,509.5743L284.19607,507.41407L281.79576,507.41407L281.79576,505.01382L277.23518,505.01382L277.23518,502.85359
				L275.07491,502.85359L275.07491,498.2931L277.23518,498.2931L277.23518,487.0119L279.63549,487.0119L279.63549,484.61164L281.79576,484.61164
				L281.79576,457.24873"/>
		</g>
</g></svg>