<?xml version="1.0" encoding="utf-8" standalone="no"?>
<!-- Creator: ESRI ArcMap 10.0.0.2414 -->
<!DOCTYPE svg PUBLIC "-//W3C//DTD SVG 1.1//EN"  "http://www.w3.org/Graphics/SVG/1.1/DTD/svg11.dtd">
<svg width="595.50236pt" height="595.50236pt" viewBox="25 148.377955 545.50236 545.50236" enable-background="new 25 148.377955 545.50236 545.50236"
	version="1.1" xmlns="http://www.w3.org/2000/svg" xmlns:xlink="http://www.w3.org/1999/xlink" >
	<g id="Couches">
		<g id="cont_2">
			<path clip-path="url(#SVG_CP_2)" fill="none" stroke="#999999" stroke-width="0.96012" stroke-miterlimit="10" stroke-linecap="round" stroke-linejoin="round" d="
				M313.47978,458.20883L315.40003,458.20883L315.40003,454.36842L317.32027,454.36842L317.32027,423.64514L315.40003,423.64514
				L315.40003,421.72494L313.47978,421.72494L313.47978,419.80474L311.55954,419.80474L311.55954,417.88453L309.63929,417.88453
				L309.63929,415.96433L307.71905,415.96433L307.71905,414.04412L305.79881,414.04412L305.79881,412.12392L303.87856,412.12392
				L303.87856,394.84208L301.95832,394.84208L301.95832,392.92187L300.03808,392.92187L300.03808,391.00167L298.11783,391.00167
				L298.11783,389.08146L296.19759,389.08146L296.19759,387.16126L294.27735,387.16126L294.27735,385.24105L292.3571,385.24105L
				292.3571,383.32085L290.43686,383.32085L290.43686,381.40064L288.51661,381.40064L288.51661,379.48044L286.59637,379.48044L286.59637,377.32021
				L288.51661,377.32021L288.51661,375.4L286.59637,375.4L286.59637,371.55959L284.67613,371.55959L284.67613,365.79898L282.75588,365.79898
				L282.75588,361.95857L280.83564,361.95857L280.83564,358.11816L278.9154,358.11816L278.9154,352.35755L276.99515,352.35755L276.99515,348.51714
				L275.07491,348.51714L275.07491,344.67673L273.15466,344.67673L273.15466,340.83632L271.23442,340.83632L271.23442,335.07571
				L269.31418,335.07571L269.31418,331.2353L267.39393,331.2353L267.39393,327.39489L265.47369,327.39489L265.47369,321.63427L263.55345,321.63427
				L263.55345,317.79386L261.6332,317.79386L261.6332,313.95346L259.71296,313.95346L259.71296,310.11305L257.79272,310.11305L257.79272,306.27264
				L255.87247,306.27264L255.87247,302.43223L253.7122,302.43223L253.7122,296.67161L251.79195,296.67161L251.79195,292.8312L249.87171,292.8312
				L249.87171,288.9908L247.95147,288.9908L247.95147,285.15039L246.03122,285.15039L246.03122,281.30998L244.11098,281.30998L244.11098,277.46957
				L242.19074,277.46957L242.19074,273.62916L240.27049,273.62916L240.27049,267.86854L238.35025,267.86854L238.35025,264.02814
				L236.43,264.02814L236.43,260.18773L234.50976,260.18773L234.50976,256.34732L232.58952,256.34732L232.58952,252.50691L230.66927,252.50691
				L230.66927,248.6665L228.74903,248.6665L228.74903,242.90588L226.82879,242.90588L226.82879,239.06548L224.90854,239.06548L224.90854,234.98504
				L222.9883,234.98504L222.9883,231.14463L221.06805,231.14463L221.06805,227.30422L219.14781,227.30422L219.14781,223.46381L217.22757,223.46381
				L217.22757,219.6234L215.30732,219.6234L215.30732,213.86279L213.38708,213.86279L213.38708,210.02238L211.46684,210.02238L211.46684,206.18197
				L209.54659,206.18197L209.54659,202.34156L207.62635,202.34156L207.62635,198.50115L205.70611,198.50115L205.70611,194.66074
				L203.78586,194.66074L203.78586,190.82033L201.86562,190.82033L201.86562,185.05972L199.94537,185.05972L199.94537,181.21931
				L198.02513,181.21931L198.02513,177.3789L196.10489,177.3789L196.10489,173.53849L194.18464,173.53849L194.18464,169.69808L192.2644,169.69808
				L192.2644,165.85767L190.34416,165.85767L190.34416,160.09706L188.42391,160.09706L188.42391,156.25665L186.50367,156.25665L
				186.50367,152.41624L184.58342,152.41624L184.58342,148.57583L182.66318,148.57583L182.66318,144.73542L180.74294,144.73542L
				180.74294,140.89501L178.82269,140.89501L178.82269,135.1344L176.90245,135.1344L176.90245,131.29399L174.98221,131.29399L174.98221,127.45358
				L173.06196,127.45358L173.06196,123.61317L171.14172,123.61317L171.14172,119.77276L169.22148,119.77276L169.22148,114.01215
				L167.30123,114.01215L167.30123,110.17174L165.38099,110.17174L165.38099,106.33133L163.46074,106.33133L163.46074,102.49092
				L161.5405,102.49092L161.5405,98.65051L159.62026,98.65051L159.62026,92.64987L157.70001,92.64987L157.70001,88.80946L155.77977,88.80946
				L155.77977,84.96905L153.85953,84.96905L153.85953,81.12865L151.93928,81.12865L151.93928,77.28824L150.01904,77.28824L150.01904,71.52762
				L148.09879,71.52762L148.09879,67.68721L146.17855,67.68721L146.17855,63.8468L144.25831,63.8468L144.25831,60.00639L142.33806,60.00639
				L142.33806,56.16599L140.41782,56.16599L140.41782,50.40537L138.49758,50.40537L138.49758,46.56496L136.57733,46.56496L136.57733,42.72455
				L134.65709,42.72455L134.65709,38.88414L132.73685,38.88414L132.73685,35.04373L130.8166,35.04373L130.8166,31.20333L128.89636,31.20333
				L128.89636,25.44271L126.97611,25.44271L126.97611,21.6023L125.05587,21.6023L125.05587,17.76189L123.13563,17.76189L123.13563,13.92148
				L121.21538,13.92148L121.21538,10.08107L119.29514,10.08107L119.29514,4.32046L117.3749,4.32046L117.3749,0.48005L115.45465,0.48005
				L115.45465,-3.36036L113.53441,-3.36036L113.53441,-7.20077L111.37413,-7.20077L111.37413,-11.04118L109.45389,-11.04118L109.45389,-16.80179
				L107.53365,-16.80179L107.53365,-18.722M228.74903,-18.722L228.74903,-16.80179L230.66927,-16.80179L230.66927,-12.96138L232.58952,-12.96138
				L232.58952,-7.20077L234.50976,-7.20077L234.50976,-3.36036L236.43,-3.36036L236.43,2.40026L238.35025,2.40026L238.35025,4.32046
				L240.27049,4.32046L240.27049,8.16087L242.19074,8.16087L242.19074,12.00128L244.11098,12.00128L244.11098,13.92148L249.87171,13.92148
				L249.87171,15.84169L253.7122,15.84169L253.7122,17.76189L257.79272,17.76189L257.79272,21.6023L259.71296,21.6023L259.71296,27.36292
				L261.6332,27.36292L261.6332,29.28312L259.71296,29.28312L259.71296,33.12353L261.6332,33.12353L261.6332,36.96394L265.47369,36.96394
				L265.47369,38.88414L267.39393,38.88414L267.39393,40.80435L275.07491,40.80435L275.07491,42.72455L276.99515,42.72455L276.99515,40.80435
				L282.75588,40.80435L282.75588,42.72455L284.67613,42.72455L284.67613,44.64476L286.59637,44.64476L286.59637,46.56496L288.51661,46.56496
				L288.51661,48.48517L290.43686,48.48517L290.43686,52.32558L292.3571,52.32558L292.3571,54.24578L294.27735,54.24578L294.27735,58.08619
				L296.19759,58.08619L296.19759,60.00639L298.11783,60.00639L298.11783,61.9266L300.03808,61.9266L300.03808,65.76701L301.95832,65.76701
				L301.95832,69.60742L303.87856,69.60742L303.87856,73.44783L305.79881,73.44783L305.79881,79.20844L307.71905,79.20844L307.71905,83.04885
				L309.63929,83.04885L309.63929,86.88926L311.55954,86.88926L311.55954,90.72967L313.47978,90.72967L313.47978,96.73031L315.40003,96.73031
				L315.40003,100.57072L317.32027,100.57072L317.32027,106.33133L319.24051,106.33133L319.24051,110.17174L321.16076,110.17174
				L321.16076,114.01215L323.081,114.01215L323.081,121.69297L325.00124,121.69297L325.00124,125.53338L326.92149,125.53338L326.92149,129.37379
				L328.84173,129.37379L328.84173,135.1344L330.76198,135.1344L330.76198,140.89501L332.68222,140.89501L332.68222,146.65563L334.60246,146.65563
				L334.60246,150.49604L336.52271,150.49604L336.52271,156.25665L338.44295,156.25665L338.44295,160.09706L340.36319,160.09706
				L340.36319,163.93747L342.28344,163.93747L342.28344,165.85767L344.20368,165.85767L344.20368,167.77788L346.12392,167.77788
				L346.12392,169.69808L348.04417,169.69808L348.04417,171.61829L349.96441,171.61829L349.96441,173.53849L351.88466,173.53849
				L351.88466,175.4587L353.8049,175.4587L353.8049,177.3789L355.72514,177.3789L355.72514,179.29911L357.64539,179.29911L357.64539,181.21931
				L359.56563,181.21931L359.56563,183.13952L361.48587,183.13952L361.48587,185.05972L363.40612,185.05972L363.40612,186.97993
				L365.32636,186.97993L365.32636,190.82033L367.24661,190.82033L367.24661,192.74054L369.16685,192.74054L369.16685,583.26215
				L367.24661,583.26215L367.24661,581.34195L365.32636,581.34195L365.32636,579.42174L363.40612,579.42174L363.40612,577.50154
				L361.48587,577.50154L361.48587,575.58133L359.56563,575.58133L359.56563,573.66113L357.64539,573.66113L357.64539,571.74093
				L355.72514,571.74093L355.72514,569.82072L353.8049,569.82072L353.8049,567.90052L351.88466,567.90052L351.88466,564.06011L349.96441,564.06011
				L349.96441,560.2197L348.04417,560.2197L348.04417,556.37929L346.12392,556.37929L346.12392,552.53888L344.20368,552.53888L344.20368,548.69847
				L342.28344,548.69847L342.28344,544.85806L340.36319,544.85806L340.36319,541.01765L338.44295,541.01765L338.44295,537.17724
				L336.52271,537.17724L336.52271,533.33683L334.60246,533.33683L334.60246,529.49642L332.68222,529.49642L332.68222,525.65601
				L330.76198,525.65601L330.76198,521.81561L328.84173,521.81561L328.84173,517.73517L326.92149,517.73517L326.92149,515.81497
				L328.84173,515.81497L328.84173,513.89476L330.76198,513.89476L330.76198,511.97456L332.68222,511.97456L332.68222,510.05435
				L336.52271,510.05435L336.52271,508.13415L338.44295,508.13415L338.44295,506.21394L336.52271,506.21394L336.52271,502.37353
				L334.60246,502.37353L334.60246,500.45333L332.68222,500.45333L332.68222,496.61292L330.76198,496.61292L330.76198,492.77251
				L328.84173,492.77251L328.84173,490.85231L326.92149,490.85231L326.92149,487.0119L325.00124,487.0119L325.00124,485.09169L323.081,485.09169
				L323.081,481.25128L321.16076,481.25128L321.16076,479.33108L319.24051,479.33108L319.24051,475.49067L317.32027,475.49067L317.32027,473.57046
				L315.40003,473.57046L315.40003,469.73006L313.47978,469.73006L313.47978,467.80985L311.55954,467.80985L311.55954,463.96944
				L313.47978,463.96944L313.47978,458.20883"/>
			<path clip-path="url(#SVG_CP_2)" fill="none" stroke="#999999" stroke-width="0.96012" stroke-miterlimit="10" stroke-linecap="round" stroke-linejoin="round" d="
				M286.59637,379.48044L286.59637,381.40064L288.51661,381.40064L288.51661,383.32085L290.43686,383.32085L290.43686,387.16126
				L292.3571,387.16126L292.3571,391.00167L294.27735,391.00167L294.27735,396.76228L296.19759,396.76228L296.19759,400.60269L298.11783,400.60269
				L298.11783,404.4431L300.03808,404.4431L300.03808,408.28351L301.95832,408.28351L301.95832,412.12392L303.87856,412.12392L303.87856,415.96433
				L305.79881,415.96433L305.79881,417.88453L307.71905,417.88453L307.71905,419.80474L309.63929,419.80474L309.63929,421.72494
				L311.55954,421.72494L311.55954,423.64514L313.47978,423.64514L313.47978,425.56535L315.40003,425.56535L315.40003,454.36842
				L313.47978,454.36842L313.47978,458.20883L311.55954,458.20883L311.55954,460.12903L309.63929,460.12903L309.63929,465.88965
				L301.95832,465.88965L301.95832,467.80985L296.19759,467.80985L296.19759,469.73006L288.51661,469.73006L288.51661,471.65026
				L282.75588,471.65026L282.75588,473.57046L275.07491,473.57046L275.07491,475.49067L269.31418,475.49067L269.31418,477.41087
				L261.6332,477.41087L261.6332,479.33108L255.87247,479.33108L255.87247,481.25128L247.95147,481.25128L247.95147,483.17149L242.19074,483.17149
				L242.19074,485.09169L234.50976,485.09169L234.50976,487.0119L228.74903,487.0119L228.74903,488.9321L221.06805,488.9321L221.06805,490.85231
				L215.30732,490.85231L215.30732,492.77251L211.46684,492.77251L211.46684,494.69272L209.54659,494.69272L209.54659,496.61292
				L205.70611,496.61292L205.70611,527.57622L207.62635,527.57622L207.62635,533.33683L209.54659,533.33683L209.54659,539.09745
				L211.46684,539.09745L211.46684,544.85806L213.38708,544.85806L213.38708,548.69847L215.30732,548.69847L215.30732,554.45908
				L219.14781,554.45908L219.14781,552.53888L222.9883,552.53888L222.9883,550.61867L228.74903,550.61867L228.74903,548.69847L232.58952,548.69847
				L232.58952,546.77827L236.43,546.77827L236.43,544.85806L242.19074,544.85806L242.19074,542.93786L246.03122,542.93786L246.03122,541.01765
				L249.87171,541.01765L249.87171,539.09745L255.87247,539.09745L255.87247,537.17724L259.71296,537.17724L259.71296,535.25704
				L263.55345,535.25704L263.55345,533.33683L269.31418,533.33683L269.31418,531.41663L273.15466,531.41663L273.15466,529.49642
				L276.99515,529.49642L276.99515,527.57622L282.75588,527.57622L282.75588,529.49642L284.67613,529.49642L284.67613,531.41663
				L286.59637,531.41663L286.59637,535.25704L288.51661,535.25704L288.51661,537.17724L290.43686,537.17724L290.43686,541.01765
				L292.3571,541.01765L292.3571,542.93786L294.27735,542.93786L294.27735,544.85806L296.19759,544.85806L296.19759,548.69847L298.11783,548.69847
				L298.11783,550.61867L300.03808,550.61867L300.03808,554.45908L301.95832,554.45908L301.95832,556.37929L303.87856,556.37929
				L303.87856,560.2197L305.79881,560.2197L305.79881,562.1399L307.71905,562.1399L307.71905,564.06011L309.63929,564.06011L309.63929,567.90052
				L313.47978,567.90052L313.47978,569.82072L315.40003,569.82072L315.40003,571.74093L317.32027,571.74093L317.32027,573.66113
				L321.16076,573.66113L321.16076,575.58133L323.081,575.58133L323.081,577.50154L325.00124,577.50154L325.00124,579.42174L326.92149,579.42174
				L326.92149,581.34195L330.76198,581.34195L330.76198,583.26215L332.68222,583.26215L332.68222,585.18236L334.60246,585.18236
				L334.60246,587.10256L338.44295,587.10256L338.44295,589.02277L340.36319,589.02277L340.36319,590.94297L342.28344,590.94297
				L342.28344,592.86318L344.20368,592.86318L344.20368,590.94297L351.88466,590.94297L351.88466,589.02277L357.64539,589.02277
				L357.64539,587.10256L363.40612,587.10256L363.40612,585.18236L369.16685,585.18236L369.16685,613.98543L-6.24079,613.98543M
				-6.24079,437.08658L32.64414,437.08658L32.64414,435.16637L42.24536,435.16637L42.24536,433.24617L51.84658,433.24617L51.84658,431.32596
				L59.52755,431.32596L59.52755,429.40576L69.12877,429.40576L69.12877,427.48555L78.72999,427.48555L78.72999,425.56535L88.33121,425.56535
				L88.33121,423.64514L97.93243,423.64514L97.93243,421.72494L105.6134,421.72494L105.6134,419.80474L115.45465,419.80474L115.45465,417.88453
				L125.05587,417.88453L125.05587,415.96433L134.65709,415.96433L134.65709,414.04412L146.17855,414.04412L146.17855,412.12392
				L155.77977,412.12392L155.77977,410.20371L165.38099,410.20371L165.38099,408.28351L174.98221,408.28351L174.98221,406.3633L
				186.50367,406.3633L186.50367,404.4431L194.18464,404.4431L194.18464,402.52289L201.86562,402.52289L201.86562,400.60269L207.62635,400.60269
				L207.62635,398.68248L215.30732,398.68248L215.30732,396.76228L222.9883,396.76228L222.9883,394.84208L230.66927,394.84208L230.66927,392.92187
				L236.43,392.92187L236.43,391.00167L244.11098,391.00167L244.11098,389.08146L251.79195,389.08146L251.79195,387.16126L257.79272,387.16126
				L257.79272,385.24105L265.47369,385.24105L265.47369,383.32085L273.15466,383.32085L273.15466,381.40064L280.83564,381.40064
				L280.83564,379.48044L286.59637,379.48044"/>
		</g>
</g></svg>