<?xml version="1.0" encoding="utf-8" standalone="no"?>
<!-- Creator: ESRI ArcMap 10.0.0.2414 -->
<!DOCTYPE svg PUBLIC "-//W3C//DTD SVG 1.1//EN"  "http://www.w3.org/Graphics/SVG/1.1/DTD/svg11.dtd">
<svg width="595.50236pt" height="595.50236pt" viewBox="25 148.377955 545.50236 545.50236" enable-background="new 25 148.377955 545.50236 545.50236"
	version="1.1" xmlns="http://www.w3.org/2000/svg" xmlns:xlink="http://www.w3.org/1999/xlink" >
	<g id="Couches">
		<g id="reservoirs">
			<path clip-path="url(#SVG_CP_2)" fill-opacity="0.2" fill="#07866D" fill-rule="evenodd" stroke="none" stroke-width="" stra="1.44018" stroke-miterlimit="10" stroke-linecap="round" stroke-linejoin="round" d="
				M-6.24079,677.83223L26.16332,595.98351L186.7437,463.72942L233.54964,446.92763L340.60322,448.84783L421.49349,456.0486L517.26564,470.21011
				L601.9964,481.25128L601.9964,861.21177L-6.24079,861.21177L-6.24079,677.83223z"/>
			<path clip-path="url(#SVG_CP_2)" fill-opacity="0.2" fill="#07866D" fill-rule="evenodd" stroke="none" stroke-width="" stra="1.44018" stroke-miterlimit="10" stroke-linecap="round" stroke-linejoin="round" d="
				M601.9964,387.88133L592.63521,387.16126L561.43125,385.48108L538.14829,384.28095L358.84554,380.44054L166.58114,378.28031L
				166.58114,336.75589L-6.24079,235.46509L-6.24079,210.26241L12.00152,198.9812L-6.24079,194.66074L-6.24079,-18.722L21.12268,-18.722
				L68.16865,12.72136L230.18921,65.28696L309.39926,90.96969L397.25041,116.41241L549.90979,154.8165L598.15591,188.6601L601.9964,158.41688
				L601.9964,387.88133z"/>
		</g>
</g></svg>