<?xml version="1.0" encoding="utf-8" standalone="no"?>
<!-- Creator: ESRI ArcMap 10.0.0.2414 -->
<!DOCTYPE svg PUBLIC "-//W3C//DTD SVG 1.1//EN"  "http://www.w3.org/Graphics/SVG/1.1/DTD/svg11.dtd">
<svg width="595.50236pt" height="595.50236pt" viewBox="25 148.377955 545.50236 545.50236" enable-background="new 25 148.377955 545.50236 545.50236"
	version="1.1" xmlns="http://www.w3.org/2000/svg" xmlns:xlink="http://www.w3.org/1999/xlink" >
	<g id="Couches">
		<g id="reservoirs">
			<path clip-path="url(#SVG_CP_2)" fill-opacity="0.2" fill="#07866D" fill-rule="evenodd" stroke="none" stroke-width="" stra="1.44018" stroke-miterlimit="10" stroke-linecap="round" stroke-linejoin="round" d="
				M601.9964,719.83671L600.31618,719.35666L594.79548,717.67648L590.47493,715.51625L583.75408,707.83543L572.47265,718.15653L
				576.55317,722.23696L574.63292,723.43709L577.51329,727.03747L574.63292,729.43773L579.43353,735.43837L584.7142,730.39783L590.95499,736.39847
				L582.3139,774.32251L580.63368,776.72277L585.43429,788.48402L587.11451,793.76458L578.95347,797.84502L571.2725,802.16548L557.35073,812.48658
				L542.70887,797.60499L532.14753,806.24591L531.18741,805.28581L511.26488,820.1674L476.46046,832.88875L444.05635,859.53159L
				418.85315,832.64873L417.653,833.60883L417.653,842.24975L408.77187,850.1706L417.41297,857.85141L414.05254,861.21177L43.92557,861.21177
				L25.2032,850.65065L8.6411,842.7298L-2.16027,837.68927L12.72161,811.7665L14.40183,809.36625L13.68174,807.92609L13.20168,806.48594
				L11.76149,803.60563L11.28143,800.00525L10.56134,797.36497L9.84125,792.80448L9.36119,789.92418L8.6411,787.28389L5.76073,781.52328
				L4.08052,777.9229L2.16027,772.88236L0.72009,766.88172L-0.48006,762.32123L-2.64034,757.76075L-3.1204,757.52072L-5.5207,753.92034
				L-6.24079,752.24016L-6.24079,694.63402L1.68021,687.19323L0.72009,685.9931L-1.44018,683.35282L-0.24003,682.39272L8.88113,676.39208
				L4.80061,672.79169L2.16027,675.19195L-1.68021,669.91139L-5.5207,673.03172L-6.24079,672.31164L-6.24079,667.51113L-5.5207,667.03108
				L-6.24079,665.3509L-6.24079,664.87085L-3.60046,663.67072L-5.04064,659.83031L-4.08052,656.46995L-3.60046,653.82967L-2.88037,651.90947
				L-3.1204,649.26919L-3.36043,648.54911L-3.60046,648.06906L-3.1204,647.58901L-2.88037,646.62891L-4.80061,641.58837L-6.24079,638.22801
				L-6.24079,623.34642L-3.84049,622.1463L-0.48006,620.22609L3.60046,618.30589L8.6411,614.94553L10.56134,613.7454L11.76149,612.7853
				L15.60198,610.62507L26.16332,606.30461L27.6035,605.82456L30.24384,604.86446L38.40487,601.74412L47.286,598.38376L55.44704,595.26343
				L63.12801,592.62315L70.80899,590.94297L76.80975,589.26279L86.89103,585.66241L93.13182,583.50218L96.25222,582.54208L98.41249,581.822
				L101.53289,581.822L104.89331,581.822L108.25374,592.62315L118.33502,590.46292L119.29514,594.54336L129.13639,591.66305L125.2959,581.58197
				L130.33654,579.42174L136.3373,590.46292L138.73761,594.78338L149.53898,590.70295L149.05892,589.02277L149.05892,588.54272L
				152.17931,587.58261L153.6195,586.62251L153.37946,586.62251L148.33883,572.22098L148.81889,571.98095L154.33959,570.30077L159.38023,568.38057
				L162.74065,566.94041L165.86105,565.50026L170.66166,560.93977L173.30199,562.85998L176.42239,560.2197L179.54278,558.77954L
				186.26364,569.10064L195.14476,564.30013L188.18388,553.25896L195.62483,548.45844L198.50519,552.53888L210.26668,546.05819L
				211.46684,547.49834L225.86866,538.85742L231.86943,549.41855L232.10946,549.17852L236.67003,556.85934L250.5918,583.26215L253.7122,583.50218
				L256.35253,578.22162L262.59332,582.06203L266.43381,573.90116L258.51281,568.62059L252.75208,564.30013L256.35253,562.1399L
				253.47217,554.69911L252.99211,553.25896L252.27201,550.61867L251.55192,548.45844L252.51205,546.05819L254.19226,545.81816L
				259.2329,544.37801L255.87247,534.29694L254.67232,530.45653L256.59256,529.73645L252.03198,520.37545L265.71372,513.65474L267.87399,518.21522
				L272.6746,515.81497L278.43533,512.93466L279.63549,512.45461L282.03579,517.49515L304.83869,506.93402L299.55802,493.73261L
				331.96213,481.97136L326.2014,466.3697L331.00201,465.88965L336.04265,466.12967L339.16304,466.84975L345.1638,467.08977L349.96441,467.3298
				L355.00505,466.12967L361.24584,463.48939L363.16609,463.00934L372.04721,462.52929L377.80795,460.12903L383.80871,457.24873
				L389.08938,455.56855L400.13078,451.72814L409.49197,445.00742L415.2527,442.12711L422.45361,441.16701L434.9352,466.3697L436.61541,465.88965
				L453.65757,457.24873L460.13839,470.93018L466.37919,480.29118L446.93672,488.45205L444.77644,489.41215L459.4183,519.8954L478.14068,510.77443
				L480.30095,509.5743L485.10156,508.6142L495.42287,507.89412L494.70278,516.77507L499.74342,522.05563L513.90522,536.21714L522.78634,543.89796
				L523.50643,544.61804L533.58771,555.17916L541.98878,566.94041L541.98878,567.18044L539.82851,569.10064L541.02866,570.5408L
				547.50948,578.94169L566.71192,559.01957L593.11527,535.01701L601.9964,528.05627L601.9964,719.83671z"/>
			<path clip-path="url(#SVG_CP_2)" fill-opacity="0.2" fill="#07866D" fill-rule="evenodd" stroke="none" stroke-width="" stra="1.44018" stroke-miterlimit="10" stroke-linecap="round" stroke-linejoin="round" d="
				M293.55725,-18.722L301.71829,-11.04118L321.40079,9.60102L362.20597,47.04501L363.64615,48.96522L367.72667,53.5257L378.04798,64.80691
				L413.09242,100.33069L413.33245,102.2509L418.85315,105.1312L421.73352,106.81138L428.21434,111.61189L437.57553,120.01279L445.9766,126.97353
				L427.97431,142.81522L414.29258,157.6968L411.89227,160.81714L414.05254,166.81778L414.53261,172.09834L417.17294,176.65883L
				427.49425,185.05972L469.49958,216.98312L440.21587,250.34668L431.57477,263.30806L427.49425,259.22762L422.21358,266.90844L
				413.09242,258.74757L403.25117,268.82865L395.81023,261.38785L386.68907,284.43031L380.92834,294.99144L373.00734,300.03197L
				360.52575,314.43351L351.40459,320.67417L345.64386,322.8344L329.56182,320.19412L326.2014,317.07379L323.80109,312.99335L318.52042,304.35243
				L311.31951,308.67289L292.83716,324.51458L288.75664,324.03453L286.8364,326.67481L285.15619,328.83504L285.15619,333.87558L
				287.31646,335.07571L291.15695,338.43606L292.83716,338.67609L295.71753,338.91612L297.15771,340.59629L300.03808,343.95665L
				301.71829,345.87686L306.27887,346.11688L307.23899,350.67737L276.99515,373.23977L266.43381,379.96049L249.87171,384.28095L
				245.55116,385.96113L246.51128,388.12136L235.70991,395.80218L232.34949,393.1619L227.54888,387.64131L227.30885,386.92123L226.34872,382.60077
				L222.50824,379.48044L216.74751,379.48044L210.98678,374.67993L204.74598,372.03965L201.38556,370.83952L192.50443,369.87942
				L188.18388,375.15998L206.4262,387.64131L192.2644,401.32277L193.46455,404.68312L184.82346,411.16381L185.06349,412.60397L182.42315,413.56407
				L183.6233,420.04476L178.1026,424.84527L176.90245,421.48491L170.1816,424.1252L169.94157,418.36458L166.58114,413.56407L164.18084,414.7642
				L160.10032,408.52353L161.5405,406.84335L149.05892,394.36202L144.73837,399.16254L133.937,410.68376L136.09727,413.32404L135.85724,413.56407
				L135.61721,414.04412L130.57657,420.28479L128.65633,422.44502L123.61569,421.96497L120.25526,420.28479L118.09499,418.36458
				L114.97459,416.92443L113.53441,414.52417L112.09423,411.64387L111.8542,411.40384L110.89407,409.72366L110.41401,408.52353L
				108.97383,407.32341L108.97383,407.08338L107.05359,407.08338L106.09346,406.12328L104.41325,403.96305L102.97307,404.20307L
				102.25298,405.4032L99.13258,406.3633L96.97231,405.16318L90.97155,402.76292L84.73075,401.32277L81.37033,401.80282L72.4892,397.72238
				L71.76911,395.32213L69.60883,392.92187L67.68859,392.20179L65.28829,391.72174L63.60807,385.7211L58.80746,387.40128L58.3274,385.96113
				L55.68707,386.68121L52.32664,387.64131L51.36652,385.96113L43.68554,388.12136L43.44551,389.56151L42.96545,391.96177L41.28524,392.92187
				L38.88494,394.36202L36.96469,392.20179L18.00229,371.79962L12.00152,362.67865L9.12116,354.7578L8.40107,353.55768L4.32055,342.5165
				L-0.96012,331.47532L-4.32055,323.55448L-6.24079,305.79259L-6.24079,258.74757L-5.28067,256.82737L-1.44018,249.14655L-0.96012,248.90652
				L9.12116,242.42583L12.00152,241.70576L33.1242,236.66522L-6.24079,201.14143L-6.24079,21.36228L3.84049,18.48197L-3.1204,-17.28184
				L-1.20015,-18.722L293.55725,-18.722z"/>
		</g>
</g></svg>