<?xml version="1.0" encoding="utf-8" standalone="no"?>
<!-- Creator: ESRI ArcMap 10.0.0.2414 -->
<!DOCTYPE svg PUBLIC "-//W3C//DTD SVG 1.1//EN"  "http://www.w3.org/Graphics/SVG/1.1/DTD/svg11.dtd">
<svg width="595.50236pt" height="595.50236pt" viewBox="25 148.377955 545.50236 545.50236" enable-background="new 25 148.377955 545.50236 545.50236"
	version="1.1" xmlns="http://www.w3.org/2000/svg" xmlns:xlink="http://www.w3.org/1999/xlink" >
	<g id="Couches">
		<g id="cont_2">
			<path clip-path="url(#SVG_CP_2)" fill="none" stroke="#999999" stroke-width="0.96012" stroke-miterlimit="10" stroke-linecap="round" stroke-linejoin="round" d="
				M262.11326,428.92571L256.35253,428.92571L256.35253,423.40512L250.83183,423.40512L250.83183,406.3633L245.0711,406.3633L245.0711,389.32149
				L239.31037,389.32149L239.31037,378.04028L233.78967,378.04028L233.78967,361.23849L228.02894,361.23849L228.02894,349.95729
				L222.50824,349.95729L222.50824,332.91548L216.74751,332.91548L216.74751,321.63427L211.22681,321.63427L211.22681,304.59246
				L205.46607,304.59246L205.46607,293.31126L199.94537,293.31126L199.94537,276.26944L194.18464,276.26944L194.18464,259.46765
				L188.42391,259.46765L188.42391,248.18645L182.90321,248.18645L182.90321,231.14463L177.14248,231.14463L177.14248,219.86343
				L171.62178,219.86343L171.62178,202.82161L165.86105,202.82161L165.86105,191.54041L160.34035,191.54041L160.34035,174.4986L
				154.57962,174.4986L154.57962,163.21739L149.05892,163.21739L149.05892,146.4156L143.29819,146.4156L143.29819,129.37379L137.53745,129.37379
				L137.53745,118.09258L132.01675,118.09258L132.01675,101.05077L126.25602,101.05077L126.25602,89.76957L120.73532,89.76957L120.73532,72.72775
				L114.97459,72.72775L114.97459,61.44655L109.45389,61.44655L109.45389,44.64476L103.69316,44.64476L103.69316,33.36356L98.17246,33.36356
				L98.17246,16.32174L92.41173,16.32174L92.41173,-0.72008L86.651,-0.72008L86.651,-12.00128L81.1303,-12.00128L81.1303,-18.722
				M182.90321,-18.722L182.90321,-17.52187L188.42391,-17.52187L188.42391,-6.24067L194.18464,-6.24067L194.18464,10.56113L199.94537,10.56113
				L199.94537,21.84233L205.46607,21.84233L205.46607,38.88414L211.22681,38.88414L211.22681,50.16535L216.74751,50.16535L216.74751,67.20716
				L222.50824,67.20716L222.50824,78.48836L228.02894,78.48836L228.02894,95.53018L233.78967,95.53018L233.78967,106.81138L239.31037,106.81138
				L239.31037,123.61317L245.0711,123.61317L245.0711,134.89437L250.83183,134.89437L250.83183,151.93619L256.35253,151.93619L256.35253,163.21739
				L262.11326,163.21739L262.11326,180.25921L267.63396,180.25921L267.63396,191.54041L273.3947,191.54041L273.3947,208.58223L278.9154,208.58223
				L278.9154,219.86343L284.67613,219.86343L284.67613,231.14463L290.19683,231.14463L290.19683,248.18645L295.95756,248.18645L
				295.95756,259.46765L301.47826,259.46765L301.47826,276.26944L307.23899,276.26944L307.23899,287.55064L312.99972,287.55064L
				312.99972,304.59246L318.52042,304.59246L318.52042,315.87366L324.28115,315.87366L324.28115,332.91548L329.80185,332.91548L
				329.80185,344.19668L335.56258,344.19668L335.56258,355.47788L329.80185,355.47788L329.80185,361.23849L324.28115,361.23849L
				324.28115,366.75908L318.52042,366.75908L318.52042,372.5197L312.99972,372.5197L312.99972,378.04028L307.23899,378.04028L307.23899,383.8009
				L301.47826,383.8009L301.47826,389.32149L295.95756,389.32149L295.95756,395.0821L290.19683,395.0821L290.19683,400.60269L284.67613,400.60269
				L284.67613,406.3633L278.9154,406.3633L278.9154,412.12392L273.3947,412.12392L273.3947,417.64451L267.63396,417.64451L267.63396,423.40512
				L262.11326,423.40512L262.11326,428.92571"/>
			<path clip-path="url(#SVG_CP_2)" fill="none" stroke="#999999" stroke-width="0.96012" stroke-miterlimit="10" stroke-linecap="round" stroke-linejoin="round" d="
				M262.11326,428.92571L267.63396,428.92571L267.63396,423.40512L273.3947,423.40512L273.3947,417.64451L278.9154,417.64451L278.9154,412.12392
				L284.67613,412.12392L284.67613,406.3633L290.19683,406.3633L290.19683,400.60269L295.95756,400.60269L295.95756,395.0821L301.47826,395.0821
				L301.47826,389.32149L307.23899,389.32149L307.23899,383.8009L312.99972,383.8009L312.99972,378.04028L318.52042,378.04028L318.52042,372.5197
				L324.28115,372.5197L324.28115,366.75908L329.80185,366.75908L329.80185,361.23849L335.56258,361.23849L335.56258,355.47788L
				341.08328,355.47788L341.08328,372.5197L346.84402,372.5197L346.84402,383.8009L352.36472,383.8009L352.36472,395.0821L358.12545,395.0821
				L358.12545,412.12392L363.88618,412.12392L363.88618,423.40512L369.40688,423.40512L369.40688,434.68632L375.16761,434.68632
				L375.16761,451.48811L380.68831,451.48811L380.68831,463.00934L386.44904,463.00934L386.44904,474.29054L391.96974,474.29054
				L391.96974,491.09233L397.73047,491.09233L397.73047,502.37353L403.25117,502.37353L403.25117,513.89476L409.01191,513.89476
				L409.01191,530.69655L414.77264,530.69655L414.77264,541.97775L420.29334,541.97775L420.29334,559.01957L426.05407,559.01957
				L426.05407,570.30077L431.57477,570.30077L431.57477,581.58197L437.3355,581.58197L437.3355,598.62379L442.8562,598.62379L442.8562,609.90499
				L448.61693,609.90499L448.61693,621.18619L454.13763,621.18619L454.13763,638.22801L459.89836,638.22801L459.89836,649.50921
				L465.65909,649.50921L465.65909,660.79041L471.17979,660.79041L471.17979,677.83223L476.94053,677.83223L476.94053,689.11343
				L482.46123,689.11343L482.46123,700.39464L488.22196,700.39464L488.22196,717.19643L493.74266,717.19643L493.74266,728.71765
				L499.50339,728.71765L499.50339,739.99886L505.02409,739.99886L505.02409,756.80065L510.78482,756.80065L510.78482,768.08185
				L516.54555,768.08185L516.54555,779.60308L522.06625,779.60308L522.06625,796.40487L527.82698,796.40487L527.82698,807.68607
				L533.34768,807.68607L533.34768,824.72788L539.10841,824.72788L539.10841,836.00909L544.62912,836.00909L544.62912,847.29029
				L550.38985,847.29029L550.38985,861.21177M426.05407,861.21177L426.05407,853.0509L420.29334,853.0509L420.29334,841.7697L414.77264,841.7697
				L414.77264,824.72788L409.01191,824.72788L409.01191,807.68607L403.25117,807.68607L403.25117,796.40487L397.73047,796.40487
				L397.73047,779.60308L391.96974,779.60308L391.96974,768.08185L386.44904,768.08185L386.44904,751.28006L380.68831,751.28006
				L380.68831,739.99886L375.16761,739.99886L375.16761,722.95704L369.40688,722.95704L369.40688,711.67584L363.88618,711.67584
				L363.88618,694.63402L358.12545,694.63402L358.12545,677.83223L352.36472,677.83223L352.36472,666.55103L346.84402,666.55103
				L346.84402,649.50921L341.08328,649.50921L341.08328,638.22801L335.56258,638.22801L335.56258,621.18619L329.80185,621.18619
				L329.80185,609.90499L324.28115,609.90499L324.28115,592.86318L318.52042,592.86318L318.52042,581.58197L312.99972,581.58197
				L312.99972,564.78018L307.23899,564.78018L307.23899,547.73837L301.47826,547.73837L301.47826,536.45717L295.95756,536.45717
				L295.95756,519.41535L290.19683,519.41535L290.19683,508.13415L284.67613,508.13415L284.67613,491.09233L278.9154,491.09233L
				278.9154,479.81113L273.3947,479.81113L273.3947,463.00934L267.63396,463.00934L267.63396,451.48811L262.11326,451.48811L262.11326,428.92571
				"/>
		</g>
</g></svg>