<?xml version="1.0" encoding="utf-8" standalone="no"?>
<!-- Creator: ESRI ArcMap 10.0.0.2414 -->
<!DOCTYPE svg PUBLIC "-//W3C//DTD SVG 1.1//EN"  "http://www.w3.org/Graphics/SVG/1.1/DTD/svg11.dtd">
<svg width="595.50236pt" height="595.50236pt" viewBox="25 148.377955 545.50236 545.50236" enable-background="new 25 148.377955 545.50236 545.50236"
	version="1.1" xmlns="http://www.w3.org/2000/svg" xmlns:xlink="http://www.w3.org/1999/xlink" >
	<g id="Couches">
		<g id="cont_2">
			<path clip-path="url(#SVG_CP_2)" fill="none" stroke="#999999" stroke-width="0.96012" stroke-miterlimit="10" stroke-linecap="round" stroke-linejoin="round" d="
				M297.63777,392.92187L297.8778,392.92187L297.8778,392.68185L298.11783,392.68185L298.11783,392.92187L297.8778,392.92187L297.8778,393.1619
				L297.63777,393.1619L297.63777,392.92187"/>
			<path clip-path="url(#SVG_CP_2)" fill="none" stroke="#999999" stroke-width="0.96012" stroke-miterlimit="10" stroke-linecap="round" stroke-linejoin="round" d="
				M302.19835,345.63683L302.19835,345.87686L301.95832,345.87686L301.71829,345.87686L301.71829,346.11688L301.71829,346.35691
				L301.47826,346.35691L301.47826,346.59693L301.23823,346.59693L300.9982,346.59693L300.9982,346.83696L300.9982,347.07699L300.75817,347.07699
				L300.51814,347.07699L300.51814,347.31701L300.51814,347.55704L300.27811,347.55704L300.27811,347.79706L300.03808,347.79706
				L299.79805,347.79706L299.79805,348.03709L299.79805,348.27711L299.55802,348.27711L299.31798,348.27711L299.31798,348.51714
				L299.31798,348.75716L299.07795,348.75716L299.07795,348.99719L298.83792,348.99719L298.59789,348.99719L298.59789,349.23722
				L298.59789,349.47724L298.35786,349.47724L298.11783,349.47724L298.11783,349.71727L298.11783,392.44182L297.8778,392.44182L
				297.8778,392.68185L297.63777,392.68185L297.63777,392.92187L297.39774,392.92187L297.39774,393.1619L297.15771,393.1619L297.15771,393.40192
				L296.91768,393.40192L296.91768,394.84208L296.91768,397.24233L296.67765,397.24233L296.67765,397.48236L296.43762,397.48236
				L296.43762,399.16254L296.19759,399.16254L296.19759,400.60269L296.19759,400.84271L295.95756,400.84271L295.95756,401.80282
				L295.71753,401.80282L295.71753,402.04284L295.4775,402.04284L295.4775,402.28287L295.23747,402.28287L295.23747,402.52289L294.99744,402.52289
				L294.99744,402.76292L294.75741,402.76292L294.75741,403.00294L294.51738,403.00294L294.51738,403.24297L294.51738,403.483L294.27735,403.483
				L294.03731,403.483L294.03731,403.72302L293.79728,403.72302L293.79728,403.96305L293.79728,404.20307L293.55725,404.20307L293.55725,499.73325
				L293.31722,499.73325L293.31722,499.97328L292.83716,499.97328L292.83716,500.2133L292.3571,500.2133L292.3571,500.45333L292.11707,500.45333
				L291.87704,500.45333L291.87704,500.69335L291.63701,500.69335L291.63701,500.93338L291.39698,500.93338L291.39698,501.17341
				L290.91692,501.17341L290.91692,501.41343L290.43686,501.41343L290.43686,501.65346L289.9568,501.65346L289.9568,501.89348L289.71677,501.89348
				L289.71677,502.13351L289.47674,502.13351L289.47674,502.37353L289.23671,502.37353L288.99668,502.37353L288.99668,502.61356
				L288.51661,502.61356L288.51661,502.85359L288.03655,502.85359L288.03655,503.09361L287.79652,503.09361L287.79652,503.33364
				L287.55649,503.33364L287.55649,503.57366L287.31646,503.57366L287.07643,503.57366L287.07643,503.81369L286.8364,503.81369L
				286.8364,504.05371L286.59637,504.05371L286.35634,504.05371L286.35634,504.29374L286.11631,504.29374L286.11631,504.53376L286.11631,504.77379
				L285.87628,504.77379L285.63625,504.77379L285.63625,505.01382L285.39622,505.01382L285.39622,505.25384L285.15619,505.25384
				L284.91616,505.25384L284.91616,505.49387L284.67613,505.49387L284.67613,505.73389L284.4361,505.73389L284.4361,505.97392L283.95604,505.97392
				L283.95604,506.21394L283.716,506.21394L283.716,506.45397L283.23594,506.45397L283.23594,506.69399L282.75588,506.69399L282.75588,506.93402
				L282.51585,506.93402L282.51585,507.17405L282.27582,507.17405L282.03579,507.17405L282.03579,507.41407L281.55573,507.41407
				L281.55573,507.6541L281.3157,507.6541L281.07567,507.6541L281.07567,507.89412L280.83564,507.89412L280.83564,508.13415L280.35558,508.13415
				L280.11555,508.13415L280.11555,508.37417L279.87552,508.37417L279.87552,508.6142L279.63549,508.6142L279.63549,508.85422L279.39546,508.85422
				L279.15543,508.85422L279.15543,509.09425L278.67537,509.09425L278.67537,509.33428L278.43533,509.33428L278.1953,509.33428L
				278.1953,509.5743L277.95527,509.5743L277.95527,509.81433L277.47521,509.81433L277.47521,510.05435L277.23518,510.05435L276.99515,510.05435
				L276.99515,510.29438L276.75512,510.29438L276.75512,510.5344L276.27506,510.5344L276.03503,510.5344L276.03503,510.77443L275.795,510.77443
				L275.795,511.01445L275.55497,511.01445L275.55497,511.25448L275.31494,511.25448L274.83488,511.25448L274.83488,511.49451L274.59485,511.49451
				L274.59485,511.73453L274.35482,511.73453L274.11479,511.73453L274.11479,511.97456L273.63473,511.97456L273.63473,512.21458
				L273.3947,512.21458L273.3947,512.45461L273.15466,512.45461L272.91463,512.45461L272.91463,512.69463L272.43457,512.69463L272.43457,512.93466
				L272.19454,512.93466L271.95451,512.93466L271.95451,513.17468L271.71448,513.17468L271.71448,513.41471L271.23442,513.41471
				L271.23442,513.65474L270.75436,513.65474L270.75436,513.89476L270.51433,513.89476L270.51433,514.13479L270.03427,514.13479
				L270.03427,514.37481L269.55421,514.37481L269.55421,514.61484L269.31418,514.61484L269.31418,514.85486L268.83412,514.85486
				L268.59409,514.85486L268.59409,515.09489L268.35406,515.09489L268.35406,515.33492L267.87399,515.33492L267.63396,515.33492
				L267.63396,515.57494L267.1539,515.57494L267.1539,515.81497L266.67384,515.81497L266.67384,516.05499L266.43381,516.05499L265.95375,516.05499
				L265.95375,516.29502L265.71372,516.29502L265.71372,516.53504L265.47369,516.53504L264.99363,516.53504L264.99363,516.77507
				L264.7536,516.77507L264.7536,517.01509L264.27354,517.01509L264.27354,517.25512L264.03351,517.25512L263.55345,517.25512L263.55345,517.49515
				L263.31342,517.49515L263.31342,517.73517L263.07339,517.73517L262.59332,517.73517L262.59332,517.9752L262.35329,517.9752L262.35329,518.21522
				L261.87323,518.21522L261.87323,518.45525L261.87323,518.21522L261.6332,518.21522L261.6332,517.73517L261.39317,517.73517L261.39317,517.49515
				L261.15314,517.49515L261.15314,517.01509L261.15314,516.53504L260.91311,516.53504L260.91311,516.29502L260.67308,516.29502
				L260.67308,516.05499L260.67308,515.57494L260.43305,515.57494L260.43305,515.33492L260.19302,515.33492L260.19302,514.85486
				L259.95299,514.85486L259.95299,514.61484L259.95299,514.13479L259.71296,514.13479L259.71296,513.65474L259.47293,513.65474
				L259.47293,513.41471L259.47293,512.93466L259.2329,512.93466L259.2329,512.69463L258.99287,512.69463L258.99287,512.45461L258.75284,512.45461
				L258.75284,511.97456L258.75284,511.73453L258.51281,511.73453L258.51281,511.25448L258.27278,511.25448L258.27278,511.01445
				L258.27278,510.5344L258.03275,510.5344L258.03275,510.05435L257.79272,510.05435L257.79272,509.81433L257.55268,509.81433L257.55268,509.33428
				L257.55268,509.09425L257.31265,509.09425L257.31265,508.85422L257.07262,508.85422L257.07262,508.37417L257.07262,508.13415
				L256.83259,508.13415L256.83259,507.6541L256.59256,507.6541L256.35253,507.6541L256.35253,507.89412L256.35253,508.13415L256.1125,508.13415
				L256.1125,508.37417L255.87247,508.37417L255.87247,508.85422L255.63244,508.85422L255.63244,509.33428L255.39241,509.33428L
				255.39241,509.5743L255.15238,509.5743L255.15238,509.81433L255.15238,510.05435L254.91235,510.05435L254.91235,510.29438L254.67232,510.29438
				L254.67232,510.5344L254.67232,511.01445L254.43229,511.01445L254.43229,511.25448L254.19226,511.25448L254.19226,511.49451L
				253.95223,511.49451L253.95223,511.73453L253.95223,511.97456L253.7122,511.97456L253.7122,512.45461L253.47217,512.45461L253.47217,512.93466
				L253.23214,512.93466L252.99211,512.93466L252.99211,513.41471L252.99211,513.65474L252.75208,513.65474L252.75208,513.89476
				L252.51205,513.89476L252.51205,514.13479L252.27201,514.13479L252.27201,514.37481L252.27201,514.85486L252.03198,514.85486
				L252.03198,515.09489L251.79195,515.09489L251.79195,515.33492L251.79195,515.57494L251.55192,515.57494L251.55192,515.09489
				L251.31189,515.09489L251.31189,514.37481L251.07186,514.37481L251.07186,513.41471L251.07186,512.69463L250.83183,512.69463
				L250.83183,511.97456L250.5918,511.97456L250.5918,511.25448L250.5918,510.5344L250.35177,510.5344L250.35177,510.29438L250.11174,510.29438
				L250.11174,509.81433L249.87171,509.81433L249.87171,509.33428L249.87171,508.85422L249.63168,508.85422L249.63168,508.13415
				L249.39165,508.13415L249.39165,507.6541L249.39165,507.17405L249.15162,507.17405L249.15162,506.93402L248.91159,506.93402L
				248.91159,506.45397L248.67156,506.45397L248.67156,505.97392L248.43153,505.97392L248.43153,505.73389L248.1915,505.73389L248.1915,505.49387
				L248.1915,505.25384L247.95147,505.25384L247.71144,505.25384L247.71144,505.01382L247.47141,505.01382L247.47141,504.77379L
				247.23137,504.77379L247.23137,504.53376L246.99134,504.53376L246.99134,504.29374L246.99134,504.05371L246.75131,504.05371L
				246.51128,504.05371L246.51128,503.81369L246.27125,503.81369L246.27125,503.57366L246.03122,503.57366L246.03122,502.85359L
				245.79119,502.85359L245.79119,502.37353L245.55116,502.37353L245.55116,502.13351L245.31113,502.13351L245.31113,501.65346L
				245.0711,501.65346L245.0711,500.93338L244.83107,500.93338L244.83107,500.45333L244.59104,500.45333L244.59104,500.2133L244.59104,499.73325
				L244.35101,499.73325L244.35101,499.2532L244.11098,499.2532L244.11098,498.77315L243.87095,498.77315L243.87095,498.53312L243.87095,498.05307
				L243.63092,498.05307L243.63092,497.81305L243.39089,497.81305L243.39089,497.333L243.39089,496.85295L243.15086,496.85295L242.91083,496.85295
				L242.91083,496.37289L242.6708,496.37289L242.6708,495.65282L242.6708,495.17277L242.43077,495.17277L242.43077,494.69272L242.19074,494.69272
				L242.19074,494.21266L242.19074,493.73261L241.9507,493.73261L241.9507,493.49259L241.71067,493.49259L241.71067,492.77251L241.47064,492.77251
				L241.47064,421.24489L241.71067,421.24489L241.71067,420.28479L241.9507,420.28479L241.9507,419.80474L242.19074,419.80474L242.19074,419.08466
				L242.19074,418.84463L242.43077,418.84463L242.43077,418.36458L242.6708,418.36458L242.6708,417.88453L242.6708,417.40448L242.91083,417.40448
				L242.91083,417.16445L243.15086,417.16445L243.15086,416.6844L243.39089,416.6844L243.39089,416.44438L243.39089,415.96433L243.63092,415.96433
				L243.63092,415.48427L243.87095,415.48427L243.87095,415.24425L243.87095,415.00422L244.11098,415.00422L244.11098,414.52417
				L244.35101,414.52417L244.35101,414.28415L244.59104,414.28415L244.59104,413.8041L244.59104,413.56407L244.83107,413.56407L
				244.83107,413.08402L245.0711,413.08402L245.0711,412.84399L245.0711,412.60397L245.31113,412.60397L245.31113,412.36394L245.55116,412.36394
				L245.55116,411.88389L245.79119,411.88389L245.79119,411.64387L245.79119,411.40384L246.03122,411.40384L246.03122,411.16381
				L246.27125,411.16381L246.27125,410.68376L246.27125,410.44374L246.51128,410.44374L246.51128,410.20371L246.75131,410.20371
				L246.75131,409.72366L246.99134,409.72366L246.99134,409.48364L246.99134,409.00358L247.23137,409.00358L247.23137,408.76356
				L247.47141,408.76356L247.47141,408.28351L247.71144,408.28351L247.71144,407.80346L247.95147,407.80346L247.95147,407.56343
				L248.1915,407.56343L248.1915,407.08338L248.43153,407.08338L248.43153,406.60333L248.67156,406.60333L248.67156,406.12328L248.91159,406.12328
				L248.91159,405.88325L249.15162,405.88325L249.15162,405.4032L249.39165,405.4032L249.39165,405.16318L249.39165,404.68312L249.63168,404.68312
				L249.63168,404.4431L249.87171,404.4431L249.87171,404.20307L249.87171,403.96305L250.11174,403.96305L250.11174,403.72302L250.35177,403.72302
				L250.35177,403.483L250.5918,403.483L250.5918,403.24297L250.5918,403.00294L250.83183,403.00294L250.83183,402.52289L251.07186,402.52289
				L251.07186,402.28287L251.55192,402.28287L251.55192,402.04284L251.79195,402.04284L251.79195,401.80282L252.27201,401.80282
				L252.51205,401.80282L252.51205,401.56279L252.99211,401.56279L252.99211,401.32277L253.23214,401.32277L253.47217,401.32277
				L253.47217,401.08274L254.19226,401.08274L254.19226,400.84271L254.91235,400.84271L254.91235,400.60269L255.15238,400.60269
				L255.87247,400.60269L255.87247,400.36266L255.87247,400.12264L256.1125,400.12264L256.35253,400.12264L256.35253,399.88261L
				256.59256,399.88261L256.59256,399.64259L256.83259,399.64259L256.83259,399.40256L257.07262,399.40256L257.07262,399.16254L
				257.31265,399.16254L257.31265,398.92251L257.55268,398.92251L257.55268,398.20243L257.79272,398.20243L257.79272,397.24233L
				258.03275,397.24233L258.03275,396.52225L258.27278,396.52225L258.27278,395.32213L258.27278,394.122L258.27278,393.40192L258.03275,393.40192
				L258.03275,392.92187L257.79272,392.92187L257.79272,392.20179L257.55268,392.20179L257.55268,391.72174L257.55268,391.00167
				L257.31265,391.00167L257.31265,390.04156L257.07262,390.04156L257.07262,388.12136L257.07262,387.88133L256.83259,387.88133
				L256.83259,386.44118L257.07262,386.44118L257.07262,385.7211L257.07262,385.24105L257.31265,385.24105L257.31265,384.52098L
				257.55268,384.52098L257.55268,383.8009L257.55268,383.08082L257.79272,383.08082L257.79272,382.36075L258.03275,382.36075L258.03275,381.64067
				L258.27278,381.64067L258.27278,381.40064L258.27278,380.92059L258.51281,380.92059L258.51281,380.44054L258.75284,380.44054
				L258.75284,379.96049L258.75284,379.24041L258.99287,379.24041L258.99287,378.04028L259.2329,378.04028L259.2329,377.32021L259.47293,377.32021
				L259.47293,376.84016L259.47293,376.36011L259.71296,376.36011L259.71296,375.88005L259.95299,375.88005L259.95299,375.64003
				L259.95299,375.15998L260.19302,375.15998L260.19302,374.91995L260.43305,374.91995L260.43305,374.4399L260.67308,374.4399L260.67308,373.95985
				L260.91311,373.95985L260.91311,373.71982L261.15314,373.71982L261.15314,373.4798L261.15314,372.99975L261.39317,372.99975L
				261.39317,372.75972L261.6332,372.75972L261.6332,372.27967L261.87323,372.27967L261.87323,371.79962L261.87323,371.55959L262.11326,371.55959
				L262.11326,371.07954L262.35329,371.07954L262.35329,370.83952L262.35329,370.35947L262.59332,370.35947L262.59332,369.87942
				L262.83335,369.87942L262.83335,369.63939L263.07339,369.63939L263.07339,369.15934L263.07339,368.67929L263.31342,368.67929
				L263.31342,368.43926L263.55345,368.43926L263.55345,367.95921L263.55345,367.71918L263.79348,367.71918L263.79348,367.23913
				L264.03351,367.23913L264.03351,366.75908L264.27354,366.75908L264.27354,366.27903L264.27354,365.79898L264.51357,365.79898
				L264.51357,365.55895L264.7536,365.55895L264.7536,364.83888L264.7536,364.59885L264.99363,364.59885L264.99363,364.1188L265.23366,364.1188
				L265.23366,363.63875L265.47369,363.63875L265.47369,363.1587L265.47369,361.95857L265.71372,361.95857L265.71372,361.71855L
				265.95375,361.71855L265.95375,361.23849L265.95375,360.75844L266.19378,360.75844L266.19378,360.03837L266.43381,360.03837L
				266.43381,359.55832L266.67384,359.55832L266.67384,358.83824L266.67384,358.35819L266.91387,358.35819L266.91387,349.47724L
				267.1539,349.47724L267.1539,348.99719L267.1539,348.51714L267.39393,348.51714L267.39393,348.03709L267.63396,348.03709L267.63396,347.55704
				L267.63396,347.07699L267.87399,347.07699L267.87399,346.59693L268.11402,346.59693L268.11402,345.87686L268.35406,345.87686
				L268.35406,345.39681L268.35406,344.91676L268.59409,344.91676L268.59409,344.4367L268.83412,344.4367L268.83412,344.19668L268.83412,343.4766
				L269.07415,343.4766L269.07415,342.99655L269.31418,342.99655L269.31418,342.75652L269.55421,342.75652L269.55421,342.27647L
				269.55421,341.79642L269.79424,341.79642L269.79424,341.31637L270.03427,341.31637L270.03427,340.83632L270.03427,340.35627L
				270.2743,340.35627L270.2743,339.87622L270.51433,339.87622L270.51433,339.39617L270.75436,339.39617L270.75436,339.15614L270.75436,338.67609
				L270.99439,338.67609L270.99439,338.19604L271.23442,338.19604L271.23442,337.71599L271.23442,337.47596L271.47445,337.47596
				L271.47445,336.99591L271.71448,336.99591L271.71448,336.51586L271.95451,336.51586L271.95451,334.83568L271.95451,334.35563
				L272.19454,334.35563L272.19454,333.63555L272.43457,333.63555L272.43457,333.39553L272.43457,332.91548L272.6746,332.91548L
				272.6746,331.95537L272.91463,331.95537L272.91463,331.71535L273.15466,331.71535L273.15466,330.99527L273.15466,330.51522L273.3947,330.51522
				L273.3947,330.03517L273.63473,330.03517L273.63473,329.79514L273.63473,328.83504L273.87476,328.83504L273.87476,328.59502L
				274.11479,328.59502L274.11479,328.11496L274.35482,328.11496L274.35482,327.39489L274.35482,327.15486L274.59485,327.15486L
				274.59485,326.67481L274.83488,326.67481L274.83488,326.19476L274.83488,325.71471L275.07491,325.71471L275.07491,325.23466L
				275.31494,325.23466L275.31494,324.99463L275.55497,324.99463L275.55497,324.27456L275.55497,323.7945L275.795,323.7945L275.795,323.55448
				L276.03503,323.55448L276.03503,323.31445L276.03503,322.8344L276.27506,322.8344L276.27506,322.11433L276.51509,322.11433L276.51509,321.8743
				L276.75512,321.8743L276.75512,321.63427L276.75512,321.15422L276.99515,321.15422L276.99515,320.9142L277.23518,320.9142L277.23518,320.43415
				L277.23518,319.9541L277.47521,319.9541L277.47521,319.71407L277.71524,319.71407L277.71524,319.23402L277.95527,319.23402L277.95527,318.99399
				L277.95527,318.51394L278.1953,318.51394L278.1953,318.27392L278.43533,318.27392L278.43533,318.03389L278.43533,317.79386L278.67537,317.79386
				L278.67537,317.31381L278.9154,317.31381L278.9154,317.07379L279.15543,317.07379L279.15543,316.83376L279.15543,316.35371L279.39546,316.35371
				L279.39546,316.11369L279.63549,316.11369L279.63549,315.63363L279.87552,315.63363L279.87552,316.11369L280.11555,316.11369
				L280.11555,316.35371L280.11555,316.59374L280.35558,316.59374L280.35558,316.83376L280.59561,316.83376L280.59561,317.31381
				L280.83564,317.31381L280.83564,317.55384L281.07567,317.55384L281.07567,318.03389L281.3157,318.03389L281.3157,318.51394L281.55573,318.51394
				L281.79576,318.51394L281.79576,318.75397L282.03579,318.75397L282.03579,319.23402L282.27582,319.23402L282.27582,319.71407
				L282.51585,319.71407L282.51585,319.9541L282.75588,319.9541L282.75588,320.43415L282.99591,320.43415L283.23594,320.43415L283.23594,320.9142
				L283.47597,320.9142L283.47597,321.15422L283.716,321.15422L283.716,321.63427L283.95604,321.63427L283.95604,321.8743L284.19607,321.8743
				L284.19607,322.11433L284.4361,322.11433L284.4361,322.35435L284.4361,322.59438L284.67613,322.59438L284.67613,322.35435L284.91616,322.35435
				L284.91616,322.11433L285.15619,322.11433L285.39622,322.11433L285.39622,321.8743L285.63625,321.8743L285.63625,321.63427L285.87628,321.63427
				L286.11631,321.63427L286.11631,321.39425L286.35634,321.39425L286.35634,321.15422L286.59637,321.15422L286.59637,320.9142L
				286.8364,320.9142L287.07643,320.9142L287.07643,320.67417L287.31646,320.67417L287.31646,320.43415L287.55649,320.43415L287.79652,320.43415
				L287.79652,320.19412L288.03655,320.19412L288.03655,319.9541L288.27658,319.9541L288.27658,319.71407L288.51661,319.71407L288.99668,319.71407
				L289.23671,319.71407L289.23671,319.9541L289.23671,320.43415L288.75664,320.43415L288.75664,320.67417L288.51661,320.67417L
				288.51661,320.9142L288.03655,320.9142L288.03655,321.15422L288.03655,321.39425L287.55649,321.39425L287.55649,321.63427L287.31646,321.63427
				L287.31646,321.8743L287.07643,321.8743L287.07643,322.11433L287.31646,322.11433L287.31646,322.35435L287.31646,322.59438L287.55649,322.59438
				L287.55649,322.8344L287.79652,322.8344L287.79652,323.31445L288.03655,323.31445L288.03655,323.55448L288.03655,323.7945L288.27658,323.7945
				L288.27658,324.27456L288.51661,324.27456L288.51661,324.51458L288.51661,324.99463L288.75664,324.99463L288.75664,325.23466
				L288.51661,325.23466L288.51661,325.47468L288.27658,325.47468L288.27658,325.71471L288.03655,325.71471L287.55649,325.71471
				L287.55649,325.95473L287.31646,325.95473L287.31646,326.19476L287.07643,326.19476L286.8364,326.19476L286.8364,326.43479L286.8364,326.67481
				L286.8364,326.91484L287.07643,326.91484L287.07643,327.39489L287.31646,327.39489L287.31646,327.87494L287.55649,327.87494L
				287.55649,328.11496L287.79652,328.11496L287.79652,328.59502L288.03655,328.59502L288.03655,329.07507L288.27658,329.07507L
				288.27658,329.31509L288.51661,329.31509L288.51661,329.55512L288.51661,329.79514L288.75664,329.79514L288.75664,330.27519L
				288.99668,330.27519L288.99668,330.51522L289.23671,330.51522L289.23671,330.75525L289.23671,330.99527L289.47674,330.99527L
				289.47674,331.47532L289.71677,331.47532L289.71677,331.71535L289.71677,331.95537L289.9568,331.95537L289.9568,332.1954L290.19683,332.1954
				L290.19683,332.43543L290.43686,332.43543L290.43686,332.91548L290.43686,333.1555L290.67689,333.1555L290.67689,333.39553L290.91692,333.39553
				L290.91692,333.87558L291.15695,333.87558L291.15695,334.1156L291.39698,334.1156L291.39698,334.35563L291.63701,334.35563L291.63701,334.59566
				L291.87704,334.59566L291.87704,335.07571L292.11707,335.07571L292.11707,335.31573L292.3571,335.31573L292.3571,335.79578L292.59713,335.79578
				L292.83716,335.79578L292.83716,336.03581L292.83716,336.27583L293.07719,336.27583L293.07719,336.51586L293.31722,336.51586
				L293.31722,336.75589L293.31722,336.99591L293.55725,336.99591L293.79728,336.99591L293.79728,337.23594L294.03731,337.23594
				L294.03731,337.47596L294.27735,337.47596L294.51738,337.47596L294.51738,337.71599L294.75741,337.71599L294.75741,337.95601
				L294.99744,337.95601L294.99744,338.19604L295.4775,338.19604L295.95756,338.19604L295.95756,338.43606L296.19759,338.43606L
				296.19759,338.67609L296.67765,338.67609L296.91768,338.67609L296.91768,338.91612L297.39774,338.91612L297.39774,339.15614L
				297.63777,339.15614L297.63777,339.39617L298.11783,339.39617L298.11783,339.63619L298.59789,339.63619"/>
			<path clip-path="url(#SVG_CP_2)" fill="none" stroke="#999999" stroke-width="0.96012" stroke-miterlimit="10" stroke-linecap="round" stroke-linejoin="round" d="
				M298.59789,339.63619L298.59789,339.87622L298.83792,339.87622L298.83792,340.11624L299.31798,340.11624L299.31798,340.35627
				L299.31798,340.59629L299.55802,340.59629L299.79805,340.59629L299.79805,341.07635L300.03808,341.07635L300.03808,341.5564L
				300.27811,341.5564L300.27811,341.79642L300.51814,341.79642L300.51814,342.27647L300.51814,342.5165L300.75817,342.5165L300.75817,342.99655
				L300.9982,342.99655L300.9982,343.4766L300.9982,343.71663L301.23823,343.71663L301.23823,344.19668L301.47826,344.19668L301.47826,344.4367
				L301.71829,344.4367L301.71829,344.67673L301.71829,345.15678L301.95832,345.15678L301.95832,345.39681L302.19835,345.39681L
				302.19835,345.63683"/>
			<path clip-path="url(#SVG_CP_2)" fill="none" stroke="#999999" stroke-width="0.96012" stroke-miterlimit="10" stroke-linecap="round" stroke-linejoin="round" d="
				M249.87171,488.69208L249.87171,487.972L249.87171,487.49195L249.63168,487.49195L249.63168,486.77187L249.39165,486.77187L249.39165,486.53185
				L249.39165,486.05179L249.15162,486.05179L249.15162,485.57174L248.91159,485.57174L248.91159,485.09169L248.67156,485.09169
				L248.67156,486.29182L248.91159,486.29182L248.91159,487.0119L249.15162,487.0119L249.15162,487.49195L249.39165,487.49195L249.39165,487.972
				L249.39165,488.21202L249.63168,488.21202L249.63168,488.45205L249.87171,488.45205L249.87171,488.69208"/>
			<path clip-path="url(#SVG_CP_2)" fill="none" stroke="#999999" stroke-width="0.96012" stroke-miterlimit="10" stroke-linecap="round" stroke-linejoin="round" d="
				M293.55725,499.73325L293.79728,499.73325L293.79728,404.20307L293.79728,403.96305L294.03731,403.96305L294.03731,403.72302
				L294.27735,403.72302L294.27735,403.483L294.51738,403.483L294.51738,403.24297L294.75741,403.24297L294.75741,403.00294L294.99744,403.00294
				L294.99744,402.76292L295.23747,402.76292L295.23747,402.52289L295.4775,402.52289L295.71753,402.52289L295.71753,402.28287L
				295.71753,402.04284L295.95756,402.04284L295.95756,401.80282L296.19759,401.80282L296.19759,401.56279L296.19759,400.60269L
				296.43762,400.60269L296.43762,399.16254L296.67765,399.16254L296.67765,398.92251L296.91768,398.92251L296.91768,397.24233L
				296.91768,397.00231L297.15771,397.00231L297.15771,394.60205L297.39774,394.60205L297.39774,394.36202L297.63777,394.36202L
				297.63777,394.122L297.8778,394.122L298.11783,394.122L298.11783,393.88197L298.11783,350.67737L298.35786,350.67737L298.35786,349.95729
				L298.59789,349.95729L298.59789,349.47724L298.59789,349.23722L298.83792,349.23722L298.83792,348.99719L299.07795,348.99719
				L299.31798,348.99719L299.31798,348.75716L299.31798,348.51714L299.55802,348.51714L299.55802,348.27711L299.79805,348.27711
				L299.79805,348.03709L300.03808,348.03709L300.03808,347.79706L300.27811,347.79706L300.51814,347.79706L300.51814,347.55704
				L300.51814,347.31701L300.75817,347.31701L300.75817,347.07699L300.9982,347.07699L300.9982,346.83696L301.23823,346.83696L301.23823,346.59693
				L301.47826,346.59693L301.71829,346.59693L301.71829,346.35691L301.71829,346.11688L301.95832,346.11688L301.95832,345.87686
				L302.19835,345.87686L302.19835,345.63683L302.67841,345.63683L302.67841,345.39681L302.91844,345.39681L302.91844,345.15678
				L303.3985,345.15678L303.3985,344.91676L303.3985,344.67673L303.87856,344.67673L304.11859,344.67673L304.11859,344.4367L304.11859,344.19668
				L304.59865,344.19668L304.59865,343.95665L305.07872,343.95665L305.07872,343.71663L305.31875,343.71663L305.31875,343.4766L
				305.55878,343.4766L305.79881,343.4766L305.79881,343.23658L305.79881,342.99655L306.27887,342.99655L306.27887,342.75652L306.75893,342.75652
				L306.75893,342.5165L306.99896,342.5165L306.99896,342.27647L307.47902,342.27647L307.47902,342.03645L307.47902,341.79642L307.95908,341.79642
				L308.19911,341.79642L308.19911,341.5564L308.19911,341.31637L308.67917,341.31637L308.67917,341.07635L309.15923,341.07635L
				309.15923,340.83632L309.39926,340.83632L309.39926,340.59629L309.63929,340.59629L309.87933,340.59629L309.87933,340.35627L
				309.87933,340.11624L310.35939,340.11624L310.35939,339.87622L310.59942,339.87622L310.83945,339.87622L310.83945,339.63619L
				311.07948,339.63619L311.07948,339.39617L311.55954,339.39617L311.55954,339.15614L311.79957,339.15614L311.79957,338.91612L
				312.0396,338.91612L312.0396,338.67609L312.27963,338.67609L312.27963,338.43606L312.75969,338.43606L312.75969,338.19604L312.99972,338.19604
				L313.23975,338.19604L313.23975,337.95601L313.47978,337.95601L313.47978,337.71599L313.71981,337.71599L313.71981,337.47596
				L313.95984,337.47596L314.19987,337.47596L314.19987,337.23594L314.4399,337.23594L314.4399,336.99591L314.67993,336.99591L314.91996,336.99591
				L314.91996,336.75589L315.16,336.75589L315.16,336.51586L315.40003,336.51586L315.64006,336.51586L315.64006,336.27583L315.88009,336.27583
				L315.88009,336.03581L316.12012,336.03581L316.12012,335.79578L316.36015,335.79578L316.60018,335.79578L316.60018,335.55576
				L316.84021,335.55576L316.84021,335.31573L317.08024,335.31573L317.32027,335.31573L317.32027,335.07571L317.5603,335.07571L
				317.5603,334.83568L317.80033,334.83568L317.80033,334.59566L318.04036,334.59566L318.28039,334.59566L318.28039,334.35563L318.52042,334.35563
				L318.52042,334.1156L318.76045,334.1156L319.00048,334.1156L319.00048,333.87558L319.24051,333.87558L319.24051,333.63555L319.48054,333.63555
				L319.48054,333.39553L319.72057,333.39553L319.9606,333.39553L319.9606,333.1555L320.20063,333.1555L320.20063,332.91548L320.44067,332.91548
				L320.6807,332.91548L320.6807,332.67545L320.92073,332.67545L320.92073,332.43543L321.16076,332.43543L321.16076,332.1954L321.40079,332.1954
				L321.64082,332.1954L321.64082,331.95537L321.88085,331.95537L321.88085,331.71535L322.12088,331.71535L322.36091,331.71535L
				322.36091,331.47532L322.60094,331.47532L322.60094,331.2353L322.84097,331.2353L322.84097,330.99527L323.081,330.99527L323.32103,330.99527
				L323.32103,330.75525L323.56106,330.75525L323.56106,330.51522L323.80109,330.51522L324.04112,330.51522L324.04112,330.27519
				L324.28115,330.27519L324.28115,330.03517L324.52118,330.03517L324.52118,329.79514L324.76121,329.79514L325.00124,329.79514
				L325.00124,329.55512L325.24127,329.55512L325.24127,329.31509L325.48131,329.31509L325.72134,329.31509L325.72134,329.07507
				L325.96137,329.07507L325.96137,328.83504L326.2014,328.83504L326.2014,328.59502L326.44143,328.59502L326.68146,328.59502L326.68146,328.35499
				L326.92149,328.35499L326.92149,328.11496L327.16152,328.11496L327.40155,328.11496L327.40155,327.87494L327.64158,327.87494
				L327.64158,327.63491L327.88161,327.63491L327.88161,327.39489L328.12164,327.39489L328.36167,327.39489L328.36167,327.15486
				L328.6017,327.15486L328.6017,326.91484L329.08176,326.91484L329.08176,326.67481L329.32179,326.67481L329.32179,326.43479L329.56182,326.43479
				L329.56182,326.19476L329.80185,326.19476L329.80185,325.95473L329.56182,325.95473L329.56182,325.71471L329.56182,325.47468
				L329.32179,325.47468L329.32179,325.23466L329.08176,325.23466L329.08176,324.99463L329.08176,324.75461L328.84173,324.75461
				L328.84173,324.51458L328.6017,324.51458L328.36167,324.51458L328.36167,324.03453L328.36167,323.7945L328.12164,323.7945L327.88161,323.7945
				L327.88161,323.55448L327.88161,323.31445L327.64158,323.31445L327.64158,323.07443L327.40155,323.07443L327.40155,322.8344L
				327.16152,322.8344L327.16152,322.59438L327.16152,322.35435L326.92149,322.35435L326.92149,322.11433L326.68146,322.11433L326.68146,321.63427
				L326.44143,321.63427L326.2014,321.63427L326.2014,321.39425L325.96137,321.39425L325.96137,321.15422L325.96137,320.9142L325.72134,320.9142
				L325.72134,320.67417L325.48131,320.67417L325.48131,320.43415L325.48131,320.19412L325.24127,320.19412L325.24127,319.9541L
				325.00124,319.9541L325.00124,319.71407L324.76121,319.71407L324.76121,319.23402L324.52118,319.23402L324.28115,319.23402L324.28115,318.99399
				L324.28115,318.51394L324.04112,318.51394L323.80109,318.51394L323.80109,318.27392L323.56106,318.27392L323.56106,318.03389
				L323.56106,317.79386L323.32103,317.79386L323.32103,317.55384L323.081,317.55384L323.081,317.31381L322.84097,317.31381L322.84097,316.83376
				L322.60094,316.83376L322.36091,316.83376L322.36091,316.59374L322.36091,316.11369L322.12088,316.11369L321.88085,316.11369
				L321.88085,315.87366L321.88085,315.63363L321.64082,315.63363L321.64082,315.39361L321.40079,315.39361L321.40079,315.15358
				L321.16076,315.15358L321.16076,314.91356L320.92073,314.91356L320.92073,314.43351L320.6807,314.43351L320.6807,314.19348L320.44067,314.19348
				L320.44067,313.71343L320.20063,313.71343L319.9606,313.71343L319.9606,313.4734L319.9606,313.23338L319.72057,313.23338L319.72057,312.99335
				L319.48054,312.99335L319.48054,312.75333L319.48054,312.5133L319.24051,312.5133L319.00048,312.5133L319.00048,312.03325L318.76045,312.03325
				L318.76045,311.79323L319.00048,311.79323L319.00048,312.03325L319.24051,312.03325L319.48054,312.03325L319.48054,312.27328
				L319.72057,312.27328L319.72057,312.5133L319.9606,312.5133L319.9606,312.75333L320.20063,312.75333L320.20063,312.99335L320.6807,312.99335
				L320.6807,313.23338L320.92073,313.23338L321.16076,313.23338L321.16076,313.4734L321.40079,313.4734L321.40079,313.71343L321.64082,313.71343
				L321.88085,313.71343L321.88085,313.95346L322.12088,313.95346L322.12088,314.19348L322.36091,314.19348L322.36091,314.43351
				L322.84097,314.43351L322.84097,314.67353L323.081,314.67353L323.081,314.91356L323.32103,314.91356L323.56106,314.91356L323.56106,315.15358
				L324.04112,315.15358L324.04112,315.39361L324.28115,315.39361L324.28115,315.63363L324.76121,315.63363L324.76121,315.87366
				L325.00124,315.87366L325.00124,316.11369L325.48131,316.11369L325.48131,316.35371L325.96137,316.35371L325.96137,316.59374
				L325.96137,316.83376L326.2014,316.83376L326.68146,316.83376L326.68146,317.07379L326.68146,317.31381L326.92149,317.31381L
				327.16152,317.31381L327.16152,317.55384L327.64158,317.55384L327.64158,317.79386L327.88161,317.79386L327.88161,318.03389L
				328.36167,318.03389L328.36167,318.27392L328.36167,318.51394L328.6017,318.51394L329.08176,318.51394L329.08176,318.75397L329.08176,318.99399
				L329.32179,318.99399L329.32179,319.23402L329.56182,319.23402L329.80185,319.23402L329.80185,319.47404L330.28191,319.47404
				L330.28191,319.71407L330.52194,319.71407L330.52194,319.9541L330.76198,319.9541L330.76198,320.19412L331.00201,320.19412L331.00201,320.43415
				L331.48207,320.43415L331.48207,320.67417L331.7221,320.67417L331.7221,320.9142L331.96213,320.9142L332.20216,320.9142L332.20216,321.15422
				L332.44219,321.15422L332.44219,321.39425L332.68222,321.39425L332.68222,321.63427L332.92225,321.63427L333.16228,321.63427
				L333.16228,321.8743L333.16228,322.11433L333.40231,322.11433L333.64234,322.11433L333.64234,322.35435L333.64234,322.59438L
				334.1224,322.59438L334.1224,322.8344L334.36243,322.8344L334.36243,323.07443L334.60246,323.07443L334.60246,323.31445L334.84249,323.31445
				L334.84249,323.55448L335.08252,323.55448L335.08252,323.7945L335.32255,323.7945L335.56258,323.7945L335.56258,324.03453L335.56258,324.27456
				L335.80261,324.27456L335.80261,324.51458L336.04265,324.51458L336.04265,324.75461L336.28268,324.75461L336.28268,324.99463
				L336.52271,324.99463L336.76274,324.99463L336.76274,325.23466L336.76274,325.47468L337.00277,325.47468L337.00277,325.71471
				L337.2428,325.71471L337.2428,325.95473L337.48283,325.95473L337.48283,326.19476L337.72286,326.19476L337.72286,326.67481L337.96289,326.67481
				L337.96289,327.15486L337.96289,327.63491L338.20292,327.63491L338.20292,328.35499L338.44295,328.35499L338.44295,329.31509
				L338.44295,329.79514L338.68298,329.79514L338.68298,330.75525L338.92301,330.75525L338.92301,332.1954L339.16304,332.1954L339.16304,334.59566
				L338.92301,334.59566L338.92301,335.07571L339.16304,335.07571L339.16304,335.79578L339.16304,336.99591L339.16304,337.47596
				L338.92301,337.47596L338.92301,337.95601L338.68298,337.95601L338.68298,339.15614L338.44295,339.15614L338.44295,340.11624
				L338.68298,340.11624L338.68298,341.07635L338.92301,341.07635L338.92301,341.5564L339.16304,341.5564L339.16304,341.79642L339.40307,341.79642
				L339.40307,342.27647L339.6431,342.27647L339.6431,343.4766L339.40307,343.4766L339.40307,343.71663L339.6431,343.71663L339.6431,344.4367
				L339.6431,344.67673L339.88313,344.67673L339.88313,345.15678L340.12316,345.15678L340.12316,345.63683L340.36319,345.63683L
				340.36319,345.87686L340.36319,346.59693L340.60322,346.59693L340.60322,347.07699L340.84325,347.07699L340.84325,348.03709L
				340.84325,348.51714L341.08328,348.51714L341.08328,348.99719L341.32332,348.99719L341.32332,349.95729L341.56335,349.95729L
				341.56335,350.67737L341.56335,351.63747L341.80338,351.63747L341.80338,353.31765L341.56335,353.31765L341.56335,354.03773L
				341.80338,354.03773L341.80338,355.47788L342.04341,355.47788L342.04341,355.95793L342.04341,356.19796L342.28344,356.19796L
				342.28344,356.67801L342.52347,356.67801L342.52347,357.15806L342.7635,357.15806L342.7635,357.63811L342.7635,358.11816L343.00353,358.11816
				L343.00353,358.35819L343.24356,358.35819L343.24356,358.83824L343.24356,359.07826L343.48359,359.07826L343.48359,359.55832
				L343.72362,359.55832L343.72362,359.79834L343.96365,359.79834L343.96365,360.27839L344.20368,360.27839L344.20368,360.75844
				L344.44371,360.75844L344.44371,361.23849L344.44371,361.95857L344.68374,361.95857L344.68374,362.1986L344.92377,362.1986L344.92377,362.67865
				L345.1638,362.67865L345.1638,363.1587L345.1638,363.63875L345.40383,363.63875L345.40383,364.59885L345.1638,364.59885L345.1638,365.55895
				L345.1638,366.03901L344.92377,366.03901L344.92377,367.71918L344.68374,367.71918L344.68374,367.95921L344.92377,367.95921L
				344.68374,367.95921L344.68374,369.15934L344.92377,369.15934L344.92377,369.39936L345.1638,369.39936L345.1638,369.63939L345.40383,369.63939
				L345.40383,369.87942L345.64386,369.87942L345.64386,370.35947L345.88389,370.35947L345.88389,370.59949L346.12392,370.59949
				L346.12392,371.07954L346.12392,371.79962L346.36396,371.79962L346.36396,372.03965L346.60399,372.03965L346.60399,372.5197L
				346.84402,372.5197L346.84402,372.99975L346.84402,373.71982L347.08405,373.71982L347.08405,373.95985L347.32408,373.95985L347.32408,374.67993
				L347.32408,375.4L347.56411,375.4L347.56411,375.64003L347.80414,375.64003L347.80414,376.60013L348.04417,376.60013L348.04417,376.84016
				L348.04417,377.32021L348.2842,377.32021L348.2842,378.04028L348.52423,378.04028L348.52423,378.52034L348.52423,407.56343L348.52423,409.48364
				L348.2842,409.48364L348.2842,410.92379L348.52423,410.92379L348.52423,411.88389L348.52423,423.88517L348.76426,423.88517L348.76426,424.36522
				L349.00429,424.36522L349.00429,424.60525L349.24432,424.60525L349.24432,424.84527L349.48435,424.84527L349.48435,425.0853L
				349.72438,425.0853L349.72438,425.32532L349.96441,425.32532L349.96441,425.56535L350.20444,425.56535L350.44447,425.56535L350.44447,425.80537
				L350.6845,425.80537L350.6845,426.0454L350.92453,426.0454L350.92453,426.28543L351.16456,426.28543L351.16456,426.52545L351.40459,426.52545
				L351.40459,426.76548L351.64463,426.76548L351.64463,427.0055L352.12469,427.0055L352.12469,427.24553L352.12469,427.48555L352.36472,427.48555
				L352.60475,427.48555L352.60475,427.72558L352.84478,427.72558L352.84478,427.9656L353.32484,427.9656L353.32484,428.20563L353.32484,428.44566
				L353.56487,428.44566L353.56487,428.68568L353.8049,428.68568L354.04493,428.68568L354.04493,428.92571L354.04493,429.16573L
				354.28496,429.16573L354.52499,429.16573L354.52499,429.40576L354.76502,429.40576L354.76502,429.64578L355.00505,429.64578L
				355.00505,429.88581L355.24508,429.88581L355.24508,430.12584L355.48511,430.12584L355.48511,430.36586L355.72514,430.36586L
				355.72514,430.60589L355.96517,430.60589L355.96517,430.84591L356.2052,430.84591L356.44523,430.84591L356.44523,431.08594L356.44523,431.32596
				L356.9253,431.32596L356.9253,431.56599L356.9253,431.80601L357.16533,431.80601L357.16533,432.04604L357.40536,432.04604L357.64539,432.04604
				L357.64539,432.28607L357.88542,432.28607L357.88542,432.52609L358.12545,432.52609L358.12545,432.76612L358.36548,432.76612
				L358.36548,433.00614L358.60551,433.00614L358.60551,433.24617L358.84554,433.24617L358.84554,433.48619L359.08557,433.48619
				L359.08557,433.72622L359.3256,433.72622L359.3256,433.96624L359.56563,433.96624L359.56563,434.20627L359.80566,434.20627L359.80566,434.4463
				L360.04569,434.4463L360.04569,434.68632L360.52575,434.68632L360.52575,435.16637L361.00581,435.16637L361.00581,435.4064L361.00581,435.64642
				L361.48587,435.64642L361.48587,435.88645L361.7259,435.88645L361.7259,436.12647L361.7259,436.3665L361.96594,436.3665L362.20597,436.3665
				L362.20597,436.60653L362.20597,436.84655L362.446,436.84655L362.68603,436.84655L362.68603,437.08658L362.92606,437.08658L362.92606,437.3266
				L362.92606,437.56663L363.16609,437.56663L363.40612,437.56663L363.40612,437.80665L363.40612,438.04668L363.64615,438.04668
				L363.88618,438.04668L363.88618,438.2867L364.12621,438.2867L364.12621,438.52673L364.36624,438.52673L364.36624,438.76676L364.60627,438.76676
				L364.60627,439.00678L364.8463,439.00678L364.8463,439.24681L365.08633,439.24681L365.32636,439.24681L365.32636,439.48683L365.32636,439.72686
				L365.56639,439.72686L365.56639,439.96688L365.80642,439.96688L365.80642,440.20691L366.04645,440.20691L366.04645,440.44693
				L366.28648,440.44693L366.52651,440.44693L366.52651,440.68696L366.76654,440.68696L366.76654,441.16701L367.00657,441.16701
				L367.00657,441.40704L367.24661,441.40704L367.24661,441.64706L367.48664,441.64706L367.72667,441.64706L367.72667,441.88709
				L367.72667,442.12711L367.9667,442.12711L368.20673,442.12711L368.20673,442.36714L368.20673,442.60717L368.44676,442.60717L
				368.44676,442.84719L368.68679,442.84719L368.92682,442.84719L368.92682,443.08722L368.92682,443.32724L369.16685,443.32724L
				369.40688,443.32724L369.40688,443.56727L369.40688,444.04732L369.64691,444.04732L369.88694,444.04732L369.88694,444.28734L
				370.12697,444.28734L370.12697,444.52737L370.12697,444.7674L370.367,444.7674L370.367,445.00742L370.60703,445.00742L370.60703,445.24745
				L370.60703,445.48747L370.84706,445.48747L370.84706,445.7275L371.08709,445.7275L371.32712,445.7275L371.32712,445.96752L371.32712,446.20755
				L371.56715,446.20755L371.56715,446.44757L371.80718,446.44757L371.80718,446.6876L371.80718,446.92763L372.04721,446.92763L
				372.28724,446.92763L372.28724,447.40768L372.28724,447.6477L372.52728,447.6477L372.76731,447.6477L372.76731,448.12775L373.00734,448.12775
				L373.00734,448.36778L373.24737,448.36778L373.24737,448.84783L373.4874,448.84783L373.4874,449.32788L373.72743,449.32788L373.96746,449.32788
				L373.96746,449.80793L374.20749,449.80793L374.20749,450.04796L374.20749,450.28798L374.44752,450.28798L374.44752,450.52801
				L374.68755,450.52801L374.68755,451.00806L374.68755,451.24809L374.92758,451.24809L374.92758,451.72814L375.16761,451.72814
				L375.16761,451.96816L375.40764,451.96816L375.40764,452.44821L375.40764,452.68824L375.64767,452.68824L375.64767,452.92826
				L375.8877,452.92826L375.8877,453.40832L375.8877,453.64834L376.12773,453.64834L376.12773,454.12839L376.36776,454.12839L376.36776,454.36842
				L376.60779,454.36842L376.60779,454.60844L376.60779,455.0885L376.84782,455.0885L376.84782,455.32852L377.08785,455.32852L377.08785,455.56855
				L377.08785,455.80857L377.32788,455.80857L377.32788,456.0486L377.56791,456.0486L377.56791,456.52865L377.80795,456.52865L377.80795,456.76867
				L377.80795,457.0087L378.04798,457.0087L378.04798,457.48875L378.28801,457.48875L378.28801,457.9688L378.28801,458.20883L378.52804,458.20883
				L378.52804,458.68888L378.76807,458.68888L378.76807,461.80921L378.52804,461.80921L378.52804,462.28926L378.28801,462.28926
				L378.28801,463.24936L378.28801,463.72942L378.04798,463.72942L378.04798,464.20947L377.80795,464.20947L377.80795,465.64962
				L377.80795,467.3298L377.56791,467.3298L377.56791,468.04988L377.32788,468.04988L377.32788,468.52993L377.08785,468.52993L377.08785,471.89029
				L377.32788,471.89029L377.32788,473.09041L377.56791,473.09041L377.56791,473.81049L377.80795,473.81049L377.80795,474.77059
				L377.80795,475.25064L378.04798,475.25064L378.04798,475.73069L378.28801,475.73069L378.28801,477.89092L378.28801,486.05179
				L378.28801,486.77187L378.04798,486.77187L378.04798,487.972L377.80795,487.972L377.80795,488.9321L377.80795,490.37225L377.56791,490.37225
				L377.56791,492.29246L377.32788,492.29246L377.32788,493.73261L377.08785,493.73261L377.08785,495.17277L377.08785,498.05307
				L377.08785,499.97328L377.32788,499.97328L377.32788,500.93338L377.56791,500.93338L377.56791,501.65346L377.80795,501.65346
				L377.80795,502.37353L377.80795,502.61356L377.80795,503.57366L377.56791,503.57366L377.56791,504.29374L377.32788,504.29374
				L377.32788,504.77379L377.08785,504.77379L377.08785,505.25384L377.08785,505.73389L376.84782,505.73389L376.84782,506.21394
				L376.60779,506.21394L376.60779,506.45397L376.60779,507.17405L376.36776,507.17405L376.36776,507.41407L376.12773,507.41407
				L376.12773,507.6541L375.8877,507.6541L375.8877,508.13415L375.8877,508.6142L375.64767,508.6142L375.64767,508.85422L375.40764,508.85422
				L375.40764,509.33428L375.40764,509.5743L375.16761,509.5743L375.16761,510.05435L374.92758,510.05435L374.92758,510.29438L374.68755,510.29438
				L374.68755,512.69463L374.68755,513.65474L374.44752,513.65474L374.44752,513.41471L374.20749,513.41471L374.20749,512.93466
				L374.20749,512.45461L373.96746,512.45461L373.96746,511.73453L373.72743,511.73453L373.72743,511.25448L373.4874,511.25448L
				373.4874,510.77443L373.4874,510.29438L373.24737,510.29438L373.24737,509.81433L373.00734,509.81433L373.00734,509.33428L373.00734,508.6142
				L372.76731,508.6142L372.76731,508.13415L372.52728,508.13415L372.52728,507.6541L371.80718,507.6541L371.80718,507.89412L371.32712,507.89412
				L371.32712,508.13415L370.60703,508.13415L369.88694,508.13415L369.88694,508.37417L369.40688,508.37417L369.40688,508.6142L
				368.68679,508.6142L368.68679,508.85422L367.9667,508.85422L367.72667,508.85422L367.72667,509.33428L367.9667,509.33428L367.9667,510.05435
				L368.20673,510.05435L368.20673,510.5344L368.20673,511.25448L368.44676,511.25448L368.44676,511.73453L368.68679,511.73453L
				368.68679,511.97456L368.20673,511.97456L368.20673,512.21458L367.48664,512.21458L367.48664,512.45461L366.76654,512.45461L
				366.04645,512.45461L366.04645,512.69463L365.32636,512.69463L365.32636,512.93466L364.60627,512.93466L363.88618,512.93466L
				363.88618,513.17468L363.16609,513.17468L363.16609,513.41471L362.446,513.41471L362.446,513.65474"/>
			<path clip-path="url(#SVG_CP_2)" fill="none" stroke="#999999" stroke-width="0.96012" stroke-miterlimit="10" stroke-linecap="round" stroke-linejoin="round" d="
				M362.446,513.65474L361.7259,513.65474L361.00581,513.65474L361.00581,513.89476L360.28572,513.89476L360.28572,514.13479L359.56563,514.13479
				L358.84554,514.13479L358.84554,514.37481L358.84554,514.85486L358.84554,515.81497L358.36548,515.81497L358.36548,516.05499
				L357.64539,516.05499L356.9253,516.05499L356.9253,516.29502L355.96517,516.29502L355.96517,516.53504L355.24508,516.53504L354.28496,516.53504
				L354.28496,516.77507L353.32484,516.77507L353.32484,517.01509L353.32484,517.25512L353.08481,517.25512L353.08481,517.49515
				L352.84478,517.49515L352.84478,517.73517L352.84478,518.21522L352.60475,518.21522L352.60475,518.45525L352.36472,518.45525
				L352.36472,518.69527L352.12469,518.69527L352.12469,518.9353L352.12469,519.41535L351.88466,519.41535L351.88466,519.65538L
				351.64463,519.65538L351.64463,519.8954L351.64463,520.13543L351.40459,520.13543L351.40459,520.61548L351.16456,520.61548L351.16456,520.8555
				L350.92453,520.8555L350.92453,521.09553L350.92453,521.33555L350.6845,521.33555L350.6845,521.81561L350.44447,521.81561L350.44447,522.29566
				L350.20444,522.29566L350.20444,522.53568L349.96441,522.53568L349.96441,523.01573L349.48435,523.01573L349.48435,522.77571
				L349.24432,522.77571L349.24432,522.53568L349.00429,522.53568L349.00429,522.29566L348.76426,522.29566L348.76426,522.05563
				L348.52423,522.05563L348.52423,521.81561L348.52423,523.73581L348.04417,523.73581L348.04417,523.49578L347.56411,523.49578
				L347.56411,523.25576L347.32408,523.25576L347.32408,523.01573L346.84402,523.01573L346.36396,523.01573L346.36396,522.77571
				L345.88389,522.77571L345.88389,522.53568L345.64386,522.53568L345.1638,522.53568L345.1638,522.29566L344.68374,522.29566L344.68374,522.05563
				L344.20368,522.05563L344.20368,521.81561L343.96365,521.81561L343.24356,521.81561L343.24356,521.57558L343.00353,521.57558
				L343.00353,521.33555L342.52347,521.33555L342.04341,521.33555L342.04341,521.09553L341.56335,521.09553L341.56335,520.8555L
				341.32332,520.8555L340.84325,520.8555L340.84325,520.61548L340.36319,520.61548L340.36319,520.37545L339.88313,520.37545L339.88313,520.13543
				L339.6431,520.13543L339.16304,520.13543L339.16304,519.8954L338.68298,519.8954L338.68298,519.65538L338.20292,519.65538L337.96289,519.65538
				L337.96289,519.41535L337.2428,519.41535L337.2428,519.17532L337.00277,519.17532L337.00277,518.9353L336.52271,518.9353L336.04265,518.9353
				L336.04265,518.69527L335.56258,518.69527L335.56258,518.45525L335.32255,518.45525L334.84249,518.45525L334.84249,518.21522
				L334.36243,518.21522L334.36243,517.9752L333.88237,517.9752L333.88237,517.73517L333.40231,517.73517L333.16228,517.73517L333.16228,517.49515
				L332.44219,517.49515L332.44219,517.25512L332.20216,517.25512L331.7221,517.25512L331.7221,517.01509L331.48207,517.01509L331.48207,516.77507
				L330.76198,516.77507L330.76198,516.53504L330.52194,516.53504L330.04188,516.53504L330.04188,516.29502L329.56182,516.29502
				L329.56182,516.05499L329.08176,516.05499L328.84173,516.05499L328.84173,515.81497L328.36167,515.81497L328.36167,516.77507
				L328.6017,516.77507L328.6017,517.9752L328.84173,517.9752L328.84173,519.17532L329.08176,519.17532L329.08176,520.37545L329.08176,521.81561
				L329.32179,521.81561L328.12164,521.81561L327.88161,521.81561L326.68146,521.81561L326.68146,522.05563L325.72134,522.05563
				L325.72134,522.29566L325.48131,522.29566L325.48131,522.05563L325.48131,521.33555L325.24127,521.33555L325.24127,520.8555L
				325.00124,520.8555L325.00124,520.13543L324.76121,520.13543L324.76121,519.65538L324.76121,518.9353L324.52118,518.9353L324.52118,518.21522
				L324.28115,518.21522L324.28115,517.49515L324.28115,516.77507L324.04112,516.77507L324.04112,516.05499L323.80109,516.05499
				L323.80109,515.33492L323.56106,515.33492L323.56106,514.85486L323.56106,514.13479L323.32103,514.13479L323.32103,513.65474
				L323.081,513.65474L323.081,512.93466L323.081,512.21458L322.84097,512.21458L322.84097,511.49451L322.60094,511.49451L322.60094,510.77443
				L322.36091,510.77443L322.36091,510.05435L322.36091,509.33428L322.12088,509.33428L322.12088,508.85422L321.88085,508.85422
				L321.88085,508.13415L321.88085,507.41407L321.64082,507.41407L321.64082,506.69399L321.40079,506.69399L321.40079,505.97392
				L321.16076,505.97392L321.16076,505.49387L321.16076,504.77379L320.92073,504.77379L320.92073,504.05371L320.6807,504.05371L
				320.6807,504.29374L320.20063,504.29374L320.20063,504.53376L319.72057,504.53376L319.72057,504.77379L319.24051,504.77379L319.00048,504.77379
				L319.00048,505.01382L318.28039,505.01382L318.28039,505.25384L317.80033,505.25384L317.32027,505.25384L317.32027,505.49387
				L316.84021,505.49387L316.84021,505.73389L316.60018,505.73389L316.60018,505.97392L315.88009,505.97392L315.40003,505.97392
				L315.40003,506.21394L314.91996,506.21394L314.91996,506.45397L314.4399,506.45397L313.95984,506.45397L313.95984,506.69399L
				313.47978,506.69399L313.47978,506.93402L312.99972,506.93402L312.99972,507.17405L312.51966,507.17405L312.0396,507.17405L312.0396,507.41407
				L311.55954,507.41407L311.55954,507.6541L311.07948,507.6541L310.59942,507.6541L310.59942,507.89412L310.11936,507.89412L310.11936,508.13415
				L309.63929,508.13415L309.15923,508.13415L309.15923,508.37417L308.67917,508.37417L308.67917,508.6142L308.19911,508.6142L308.19911,508.85422
				L307.71905,508.85422L307.23899,508.85422L307.23899,509.09425L306.75893,509.09425L306.75893,509.33428L306.27887,509.33428
				L305.79881,509.33428L305.79881,509.5743L305.31875,509.5743L305.31875,509.81433L304.83869,509.81433L304.83869,510.05435L304.35862,510.05435
				L304.11859,510.05435L304.11859,510.29438L303.3985,510.29438L303.3985,510.5344L302.91844,510.5344L302.43838,510.5344L302.43838,510.77443
				L301.95832,510.77443L301.95832,511.01445L301.47826,511.01445L301.47826,511.25448L300.9982,511.25448L300.51814,511.25448L
				300.51814,511.49451L300.03808,511.49451L300.03808,511.73453L299.55802,511.73453L299.07795,511.73453L299.07795,511.97456L
				298.59789,511.97456L298.59789,512.21458L298.11783,512.21458L298.11783,512.45461L297.63777,512.45461L297.15771,512.45461L
				297.15771,512.69463L296.67765,512.69463L296.67765,512.45461L296.43762,512.45461L296.43762,511.73453L296.19759,511.73453L
				296.19759,511.01445L296.19759,510.29438L295.95756,510.29438L295.95756,509.5743L295.71753,509.5743L295.71753,508.85422L295.71753,508.13415
				L295.4775,508.13415L295.4775,507.6541L295.23747,507.6541L295.23747,506.69399L294.99744,506.69399L294.99744,505.97392L294.99744,505.25384
				L294.75741,505.25384L294.75741,504.77379L294.51738,504.77379L294.51738,504.05371L294.51738,503.33364L294.27735,503.33364
				L294.27735,502.37353L294.03731,502.37353L294.03731,501.65346L293.79728,501.65346L293.79728,501.17341L293.79728,500.45333
				L293.55725,500.45333L293.55725,499.73325"/>
		</g>
</g></svg>