<?xml version="1.0" encoding="utf-8" standalone="no"?>
<!-- Creator: ESRI ArcMap 10.0.0.2414 -->
<!DOCTYPE svg PUBLIC "-//W3C//DTD SVG 1.1//EN"  "http://www.w3.org/Graphics/SVG/1.1/DTD/svg11.dtd">
<svg width="595.50236pt" height="595.50236pt" viewBox="25 148.377955 545.50236 545.50236" enable-background="new 25 148.377955 545.50236 545.50236"
	version="1.1" xmlns="http://www.w3.org/2000/svg" xmlns:xlink="http://www.w3.org/1999/xlink" >
	<g id="Couches">
		<g id="reservoirs">
			<clipPath id="SVG_CP_2">
				<path d="M574.39289,21.36228L21.36271,21.36228L21.36271,821.36753L574.39289,821.36753L574.39289,21.36228z"/>
			</clipPath>
			<path clip-path="url(#SVG_CP_2)" fill-opacity="0.08" fill="#2f4493" fill-rule="evenodd" stroke="#2f4493" stroke-width="1" stra="1.44018" stroke-miterlimit="10" stroke-linecap="round" stroke-linejoin="round" d="
				M-6.24079,793.04451L31.92405,764.00141L-6.24079,724.63722L-6.24079,431.08594L-4.80061,430.36586L-2.88037,429.16573L4.32055,430.84591
				L21.12268,445.00742L36.00457,459.88901L134.41706,564.30013L199.46531,620.46612L228.74903,598.14374L242.91083,552.53888L277.23518,444.52737
				L335.56258,481.73133L369.16685,505.25384L391.00962,517.01509L403.25117,530.93658L409.25194,550.13862L396.53032,570.06075
				L412.37233,583.7422L432.77492,574.14118L449.09699,576.06139L463.01876,593.58325L461.81861,603.18428L453.65757,616.14566L
				441.89608,626.46676L445.9766,637.50793L447.65681,645.90883L458.93824,657.91011L467.57934,669.67136L480.78101,650.70934L502.38375,675.672
				L493.02257,683.35282L481.98117,689.83351L472.61998,699.67456L464.69897,711.91586L485.82165,740.95896L496.62302,735.43837
				L505.26412,736.39847L516.54555,745.03939L520.14601,753.20026L527.58695,765.44157L529.74723,767.12175L529.26717,777.68287
				L537.90826,778.16292L540.06854,780.08313L542.46884,782.00333L549.18969,790.40423L548.4696,800.24528L550.38985,802.16548L
				560.95119,813.20666L566.95195,817.52712L565.0317,819.92737L560.47113,819.68735L549.18969,824.72788L524.70659,844.65001L509.8247,852.0908
				L500.94357,861.21177L-6.24079,861.21177L-6.24079,793.04451z"/>
			<path clip-path="url(#SVG_CP_2)" fill-opacity="0.08" fill="#2f4493" fill-rule="evenodd" stroke="#2f4493" stroke-width="1" stra="1.44018" stroke-miterlimit="10" stroke-linecap="round" stroke-linejoin="round" d="
				M601.9964,458.9289L591.19502,453.88837L102.97307,250.82673L88.81127,244.82609L104.89331,233.06484L111.8542,227.78427L177.62254,179.05908
				L186.26364,172.57839L197.06501,150.01599L182.18312,104.41113L214.3472,88.32941L235.70991,65.76701L259.95299,40.3243L229.70915,-18.722
				L601.9964,-18.722L601.9964,458.9289z"/>
		</g>
</g></svg>