<?xml version="1.0" encoding="utf-8" standalone="no"?>
<!-- Creator: ESRI ArcMap 10.0.0.2414 -->
<!DOCTYPE svg PUBLIC "-//W3C//DTD SVG 1.1//EN"  "http://www.w3.org/Graphics/SVG/1.1/DTD/svg11.dtd">
<svg width="595.50236pt" height="595.50236pt" viewBox="25 148.377955 545.50236 545.50236" enable-background="new 25 148.377955 545.50236 545.50236"
	version="1.1" xmlns="http://www.w3.org/2000/svg" xmlns:xlink="http://www.w3.org/1999/xlink" >
	<g id="Couches">
		<g id="cont_2">
			<path clip-path="url(#SVG_CP_2)" fill="none" stroke="#999999" stroke-width="0.96012" stroke-miterlimit="10" stroke-linecap="round" stroke-linejoin="round" d="
				M394.61008,265.70831L394.61008,264.74821L394.85011,264.74821L394.85011,265.70831L394.61008,265.70831"/>
			<path clip-path="url(#SVG_CP_2)" fill="none" stroke="#999999" stroke-width="0.96012" stroke-miterlimit="10" stroke-linecap="round" stroke-linejoin="round" d="
				M80.89027,401.56279L80.4102,401.56279L80.4102,401.32277L80.89027,401.32277L80.89027,401.56279"/>
			<path clip-path="url(#SVG_CP_2)" fill="none" stroke="#999999" stroke-width="0.96012" stroke-miterlimit="10" stroke-linecap="round" stroke-linejoin="round" d="
				M325.96137,445.24745L325.96137,439.00678L325.72134,439.00678L325.72134,438.2867L325.24127,438.2867L325.24127,437.80665L324.76121,437.80665
				L324.76121,437.3266L324.28115,437.3266L324.28115,436.84655L324.04112,436.84655L324.04112,436.60653L323.56106,436.60653L323.56106,436.12647
				L323.081,436.12647L323.081,435.64642L322.84097,435.64642L322.84097,435.16637L322.36091,435.16637L322.36091,434.92635L321.88085,434.92635
				L321.88085,434.4463L321.40079,434.4463L321.40079,433.96624L321.16076,433.96624L321.16076,433.72622L320.6807,433.72622L320.6807,433.24617
				L320.20063,433.24617L320.20063,432.76612L319.72057,432.76612L319.72057,432.04604L319.48054,432.04604L319.48054,431.56599
				L319.00048,431.56599L319.00048,431.08594L318.52042,431.08594L318.52042,430.60589L318.28039,430.60589L318.28039,430.36586
				L317.80033,430.36586L317.80033,429.88581L317.32027,429.88581L317.32027,429.40576L316.84021,429.40576L316.84021,429.16573
				L316.60018,429.16573L316.60018,428.68568L316.12012,428.68568L316.12012,428.20563L315.64006,428.20563L315.64006,427.72558
				L315.16,427.72558L315.16,427.48555L314.91996,427.48555L314.91996,427.0055L314.4399,427.0055L314.4399,426.52545L313.95984,426.52545
				L313.95984,426.0454L313.71981,426.0454L313.71981,425.80537L313.23975,425.80537L313.23975,425.32532L312.75969,425.32532L312.75969,424.84527
				L312.27963,424.84527L312.27963,424.60525L312.0396,424.60525L312.0396,424.1252L311.55954,424.1252L311.55954,423.64514L311.07948,423.64514
				L311.07948,423.16509L310.59942,423.16509L310.59942,422.92507L310.35939,422.92507L310.35939,422.44502L309.87933,422.44502
				L309.87933,421.96497L309.39926,421.96497L309.39926,421.48491L309.15923,421.48491L309.15923,421.24489L308.67917,421.24489
				L308.67917,420.76484L308.19911,420.76484L308.19911,420.28479L307.71905,420.28479L307.71905,420.04476L307.47902,420.04476
				L307.47902,419.56471L306.99896,419.56471L306.99896,419.08466L306.5189,419.08466L306.5189,418.60461L306.03884,418.60461L306.03884,418.36458
				L305.79881,418.36458L305.79881,417.88453L305.31875,417.88453L305.31875,417.40448L304.83869,417.40448L304.83869,416.92443
				L304.59865,416.92443L304.59865,416.6844L304.11859,416.6844L304.11859,416.20435L303.63853,416.20435L303.63853,415.7243L303.15847,415.7243
				L303.15847,415.48427L302.91844,415.48427L302.91844,415.00422L302.43838,415.00422L302.43838,414.52417L301.95832,414.52417
				L301.95832,414.04412L301.47826,414.04412L301.47826,413.8041L301.23823,413.8041L301.23823,413.32404L300.75817,413.32404L300.75817,412.84399
				L300.27811,412.84399L300.27811,412.36394L300.03808,412.36394L300.03808,412.12392L299.55802,412.12392L299.55802,411.64387
				L299.07795,411.64387L299.07795,411.16381L298.59789,411.16381L298.59789,410.68376L298.35786,410.68376L298.35786,410.44374
				L297.8778,410.44374L297.8778,409.96369L297.39774,409.96369L297.39774,409.48364L296.91768,409.48364L296.91768,409.24361L296.67765,409.24361
				L296.67765,408.76356L296.19759,408.76356L296.19759,408.28351L295.71753,408.28351L295.71753,407.80346L295.4775,407.80346L
				295.4775,407.56343L294.99744,407.56343L294.99744,407.08338L294.51738,407.08338L294.51738,406.60333L294.03731,406.60333L294.03731,406.12328
				L293.79728,406.12328L293.79728,405.88325L293.31722,405.88325L293.31722,405.4032L292.83716,405.4032L292.83716,404.92315L292.3571,404.92315
				L292.3571,404.68312L292.11707,404.68312L292.11707,404.20307L291.63701,404.20307L291.63701,403.72302L291.15695,403.72302L
				291.15695,403.24297L290.91692,403.24297L290.91692,403.00294L290.43686,403.00294L290.43686,402.52289L289.9568,402.52289L289.9568,402.04284
				L289.47674,402.04284L289.47674,401.56279L289.23671,401.56279L289.23671,401.32277L288.75664,401.32277L288.75664,400.84271
				L288.27658,400.84271L288.27658,400.36266L287.79652,400.36266L287.79652,400.12264L287.55649,400.12264L287.55649,399.16254
				L287.07643,399.16254L287.07643,398.68248L286.59637,398.68248L286.59637,398.44246L286.11631,398.44246L286.11631,397.96241
				L285.87628,397.96241L285.87628,397.00231L285.39622,397.00231L285.39622,394.122L284.91616,394.122L284.91616,393.88197L284.67613,393.88197
				L284.67613,393.40192L284.19607,393.40192L284.19607,392.92187L283.716,392.92187L283.716,392.44182L283.23594,392.44182L283.23594,392.20179
				L282.99591,392.20179L282.99591,391.72174L282.51585,391.72174L282.51585,391.24169L282.03579,391.24169L282.03579,391.00167
				L281.55573,391.00167L281.55573,390.52161L281.3157,390.52161L281.3157,390.04156L280.83564,390.04156L280.83564,389.56151L280.35558,389.56151
				L280.35558,389.32149L280.11555,389.32149L280.11555,388.84144L279.63549,388.84144L279.63549,388.36138L279.15543,388.36138
				L279.15543,387.88133L278.67537,387.88133L278.67537,387.64131L278.43533,387.64131L278.43533,387.16126L277.95527,387.16126
				L277.95527,386.68121L277.47521,386.68121L277.47521,386.44118L276.99515,386.44118L276.99515,385.96113L276.75512,385.96113
				L276.75512,385.48108L276.27506,385.48108L276.27506,385.00103L275.795,385.00103L275.795,384.761L275.55497,384.761L275.55497,384.28095
				L275.07491,384.28095L275.07491,383.8009L274.59485,383.8009L274.59485,383.32085L274.11479,383.32085L274.11479,383.08082L273.87476,383.08082
				L273.87476,382.60077L273.3947,382.60077L273.3947,382.12072L272.91463,382.12072L272.91463,381.88069L272.43457,381.88069L272.43457,381.40064
				L272.19454,381.40064L272.19454,380.92059L271.71448,380.92059L271.71448,380.44054L271.23442,380.44054L271.23442,380.20051
				L270.99439,380.20051L270.99439,379.72046L270.51433,379.72046L270.51433,379.24041L270.03427,379.24041L270.03427,378.76036
				L269.55421,378.76036L269.55421,378.52034L269.31418,378.52034L269.31418,378.04028L269.55421,378.04028L269.55421,377.56023
				L270.51433,377.56023L270.51433,377.32021L270.99439,377.32021L270.99439,376.84016L271.71448,376.84016L271.71448,376.36011
				L272.43457,376.36011L272.43457,375.88005L272.91463,375.88005L272.91463,375.64003L273.87476,375.64003L273.87476,375.15998
				L274.11479,375.15998L274.11479,374.67993L275.07491,374.67993L275.07491,374.19988L275.795,374.19988L275.795,373.95985L276.27506,373.95985
				L276.27506,373.4798L276.99515,373.4798L276.99515,372.99975L277.47521,372.99975L277.47521,372.75972L277.95527,372.75972L277.95527,372.27967
				L278.67537,372.27967L278.67537,371.79962L279.15543,371.79962L279.15543,371.31957L279.63549,371.31957L279.63549,371.07954
				L280.35558,371.07954L280.35558,370.59949L280.83564,370.59949L280.83564,370.11944L281.55573,370.11944L281.55573,369.63939
				L282.03579,369.63939L282.03579,369.39936L282.51585,369.39936L282.51585,368.91931L283.23594,368.91931L283.23594,368.43926
				L283.716,368.43926L283.716,368.19924L284.19607,368.19924L284.19607,367.71918L284.91616,367.71918L284.91616,367.23913L285.39622,367.23913
				L285.39622,366.75908L285.87628,366.75908L285.87628,366.51906L286.59637,366.51906L286.59637,366.03901L287.07643,366.03901
				L287.07643,365.55895L287.55649,365.55895L287.55649,365.0789L288.27658,365.0789L288.27658,364.83888L288.75664,364.83888L288.75664,364.35883
				L289.23671,364.35883L289.23671,363.87878L289.9568,363.87878L289.9568,363.39872L290.43686,363.39872L290.43686,363.1587L290.91692,363.1587
				L290.91692,362.67865L291.63701,362.67865L291.63701,362.1986L292.11707,362.1986L292.11707,361.95857L292.3571,361.95857L292.3571,361.47852
				L293.31722,361.47852L293.31722,360.99847L293.79728,360.99847L293.79728,360.51842L294.03731,360.51842L294.03731,360.27839
				L294.99744,360.27839L294.99744,359.79834L295.4775,359.79834L295.4775,359.31829L295.71753,359.31829L295.71753,358.83824L296.67765,358.83824
				L296.67765,358.59821L296.91768,358.59821L296.91768,358.11816L297.39774,358.11816L297.39774,357.63811L298.35786,357.63811
				L298.35786,357.39809L298.59789,357.39809L298.59789,356.91803L299.07795,356.91803L299.07795,356.43798L300.03808,356.43798
				L300.03808,355.95793L300.27811,355.95793L300.27811,355.71791L300.75817,355.71791L300.75817,355.23785L301.47826,355.23785
				L301.47826,354.7578L301.95832,354.7578L301.95832,354.27775L302.43838,354.27775L302.43838,354.03773L303.15847,354.03773L303.15847,353.55768
				L303.63853,353.55768L303.63853,353.07762L304.11859,353.07762L304.11859,352.8376L304.83869,352.8376L304.83869,352.35755L305.31875,352.35755
				L305.31875,351.8775L305.79881,351.8775L305.79881,351.39745L306.5189,351.39745L306.5189,351.15742L306.99896,351.15742L306.99896,348.51714
				L306.5189,348.51714L306.5189,346.59693L306.03884,346.59693L306.03884,346.11688L302.43838,346.11688L302.43838,345.63683L301.23823,345.63683
				L301.23823,345.15678L300.75817,345.15678L300.75817,344.4367L300.27811,344.4367L300.27811,343.95665L300.03808,343.95665L300.03808,343.71663
				L299.55802,343.71663L299.55802,343.23658L299.07795,343.23658L299.07795,342.75652L298.59789,342.75652L298.59789,342.03645
				L298.35786,342.03645L298.35786,341.5564L297.8778,341.5564L297.8778,341.07635L297.39774,341.07635L297.39774,340.59629L296.91768,340.59629
				L296.91768,340.35627L296.67765,340.35627L296.67765,339.39617L296.19759,339.39617L296.19759,339.15614L295.4775,339.15614L
				295.4775,338.67609L291.15695,338.67609L291.15695,338.19604L290.91692,338.19604L290.91692,337.71599L290.43686,337.71599L290.43686,337.47596
				L289.47674,337.47596L289.47674,336.99591L289.23671,336.99591L289.23671,336.51586L288.75664,336.51586L288.75664,336.03581
				L288.27658,336.03581L288.27658,335.79578L287.79652,335.79578L287.79652,335.31573L287.55649,335.31573L287.55649,334.83568
				L286.59637,334.83568L286.59637,334.59566L285.87628,334.59566L285.87628,334.1156L284.91616,334.1156L284.91616,328.59502L285.39622,328.59502
				L285.39622,328.35499L285.87628,328.35499L285.87628,327.39489L286.11631,327.39489L286.11631,326.91484L286.59637,326.91484
				L286.59637,326.67481L287.07643,326.67481L287.07643,325.71471L287.55649,325.71471L287.55649,325.47468L287.79652,325.47468
				L287.79652,324.99463L288.27658,324.99463L288.27658,324.51458L288.75664,324.51458L288.75664,324.03453L291.63701,324.03453
				L291.63701,324.51458L292.83716,324.51458L292.83716,324.03453L293.31722,324.03453L293.31722,323.7945L293.79728,323.7945L293.79728,323.31445
				L294.51738,323.31445L294.51738,322.8344L294.99744,322.8344L294.99744,322.35435L295.4775,322.35435L295.4775,322.11433L295.71753,322.11433
				L295.71753,321.63427L296.19759,321.63427L296.19759,321.15422L296.67765,321.15422L296.67765,320.9142L297.39774,320.9142L297.39774,320.43415
				L297.8778,320.43415L297.8778,319.9541L298.35786,319.9541L298.35786,319.47404L298.59789,319.47404L298.59789,319.23402L299.07795,319.23402
				L299.07795,318.75397L300.03808,318.75397L300.03808,318.27392L300.27811,318.27392L300.27811,317.79386L300.75817,317.79386
				L300.75817,317.55384L301.23823,317.55384L301.23823,317.07379L301.47826,317.07379L301.47826,316.59374L302.43838,316.59374
				L302.43838,316.35371L302.91844,316.35371L302.91844,315.87366L303.15847,315.87366L303.15847,315.39361L303.63853,315.39361
				L303.63853,314.91356L304.11859,314.91356L304.11859,314.67353L304.59865,314.67353L304.59865,314.19348L305.31875,314.19348
				L305.31875,313.71343L305.79881,313.71343L305.79881,313.23338L306.03884,313.23338L306.03884,312.99335L306.5189,312.99335L
				306.5189,312.5133L306.99896,312.5133L306.99896,312.03325L307.71905,312.03325L307.71905,311.5532L308.19911,311.5532L308.19911,311.31317
				L308.67917,311.31317L308.67917,310.83312L309.15923,310.83312L309.15923,310.35307L309.39926,310.35307L309.39926,310.11305
				L309.87933,310.11305L309.87933,309.633L310.59942,309.633L310.59942,309.15294L311.07948,309.15294L311.07948,308.67289L311.55954,308.67289
				L311.55954,308.43287L312.27963,308.43287L312.27963,307.95282L312.75969,307.95282L312.75969,307.47277L313.71981,307.47277
				L313.71981,306.99271L314.4399,306.99271L314.4399,306.75269L314.91996,306.75269L314.91996,306.27264L315.64006,306.27264L315.64006,305.79259
				L316.60018,305.79259L316.60018,305.55256L316.84021,305.55256L316.84021,305.07251L317.80033,305.07251L317.80033,304.59246
				L318.52042,304.59246L318.52042,305.07251L319.00048,305.07251L319.00048,305.55256L319.48054,305.55256L319.48054,306.27264
				L319.72057,306.27264L319.72057,306.99271L320.20063,306.99271L320.20063,307.47277L320.6807,307.47277L320.6807,308.43287L321.16076,308.43287
				L321.16076,309.15294L321.40079,309.15294L321.40079,309.633L321.88085,309.633L321.88085,310.35307L322.36091,310.35307L322.36091,310.83312
				L322.84097,310.83312L322.84097,311.5532L323.081,311.5532L323.081,312.5133L323.56106,312.5133L323.56106,312.99335L324.04112,312.99335
				L324.04112,313.71343L324.28115,313.71343L324.28115,314.19348L324.76121,314.19348L324.76121,314.91356L325.24127,314.91356
				L325.24127,315.87366L325.72134,315.87366L325.72134,316.35371L325.96137,316.35371L325.96137,317.07379L326.44143,317.07379
				L326.44143,317.55384L326.92149,317.55384L326.92149,317.79386L327.40155,317.79386L327.40155,318.27392L327.64158,318.27392
				L327.64158,318.75397L328.12164,318.75397L328.12164,319.23402L328.6017,319.23402L328.6017,319.47404L328.84173,319.47404L328.84173,319.9541
				L329.32179,319.9541L329.32179,320.43415L331.48207,320.43415L331.48207,320.9142L333.88237,320.9142L333.88237,321.15422L336.76274,321.15422
				L336.76274,321.63427L339.40307,321.63427L339.40307,322.11433L342.28344,322.11433L342.28344,322.35435L344.68374,322.35435
				L344.68374,322.8344L345.88389,322.8344L345.88389,322.35435L347.32408,322.35435L347.32408,322.11433L348.52423,322.11433L348.52423,321.63427
				L349.24432,321.63427L349.24432,321.15422L350.44447,321.15422L350.44447,320.9142L351.88466,320.9142L351.88466,320.43415L352.12469,320.43415
				L352.12469,319.9541L353.08481,319.9541L353.08481,319.47404L353.32484,319.47404L353.32484,319.23402L353.8049,319.23402L353.8049,318.75397
				L354.76502,318.75397L354.76502,318.27392L355.00505,318.27392L355.00505,317.79386L355.96517,317.79386L355.96517,317.55384
				L356.44523,317.55384L356.44523,317.07379L357.16533,317.07379L357.16533,316.59374L357.64539,316.59374L357.64539,316.35371
				L358.36548,316.35371L358.36548,315.87366L358.84554,315.87366L358.84554,315.39361L359.56563,315.39361L359.56563,314.91356
				L360.04569,314.91356L360.04569,314.67353L360.52575,314.67353L360.52575,314.19348L361.00581,314.19348L361.00581,313.71343
				L361.24584,313.71343L361.24584,313.23338L361.7259,313.23338L361.7259,312.99335L362.20597,312.99335L362.20597,312.5133L362.446,312.5133
				L362.446,312.03325L362.92606,312.03325L362.92606,311.5532L363.40612,311.5532L363.40612,310.83312L363.88618,310.83312L363.88618,310.35307
				L364.12621,310.35307L364.12621,310.11305L364.60627,310.11305L364.60627,309.633L365.08633,309.633L365.08633,309.15294L365.56639,309.15294
				L365.56639,308.67289L365.80642,308.67289L365.80642,307.95282L366.28648,307.95282L366.28648,307.47277L366.76654,307.47277
				L366.76654,306.99271L367.00657,306.99271L367.00657,306.75269L367.48664,306.75269L367.48664,306.27264L367.9667,306.27264L
				367.9667,305.79259L368.44676,305.79259L368.44676,305.07251L368.68679,305.07251L368.68679,304.59246L369.16685,304.59246L369.16685,304.11241
				L369.64691,304.11241L369.64691,303.87238L370.12697,303.87238L370.12697,303.39233L370.367,303.39233L370.367,302.91228L370.84706,302.91228
				L370.84706,302.1922L371.32712,302.1922L371.32712,301.71215L371.56715,301.71215L371.56715,301.2321L372.04721,301.2321L372.04721,300.99207
				L372.52728,300.99207L372.52728,300.51202L373.00734,300.51202L373.00734,300.03197L373.24737,300.03197L373.24737,299.55192
				L374.20749,299.55192L374.20749,299.3119L374.68755,299.3119L374.68755,298.83184L375.40764,298.83184L375.40764,298.35179L375.8877,298.35179
				L375.8877,297.87174L376.60779,297.87174L376.60779,297.63172L377.56791,297.63172L377.56791,297.15167L377.80795,297.15167L
				377.80795,296.67161L378.76807,296.67161L378.76807,296.43159L379.48816,296.43159L379.48816,295.95154L379.96822,295.95154L
				379.96822,295.47149L380.68831,295.47149L380.68831,294.99144L381.16837,294.99144L381.16837,294.27136L381.64843,294.27136L
				381.64843,293.31126L382.12849,293.31126L382.12849,293.07123L382.36852,293.07123L382.36852,292.11113L382.84859,292.11113L
				382.84859,291.39105L383.32865,291.39105L383.32865,290.43095L383.80871,290.43095L383.80871,289.71087L384.04874,289.71087L
				384.04874,288.75077L384.5288,288.75077L384.5288,288.51074L385.00886,288.51074L385.00886,287.55064L385.24889,287.55064L385.24889,286.83057
				L385.72895,286.83057L385.72895,285.87046L386.20901,285.87046L386.20901,285.15039L386.68907,285.15039L386.68907,284.19028
				L386.9291,284.19028L386.9291,283.47021L387.40916,283.47021L387.40916,282.27008L387.88922,282.27008L387.88922,281.30998L388.36929,281.30998
				L388.36929,280.10985L388.60932,280.10985L388.60932,279.38977L389.08938,279.38977L389.08938,278.18964L389.56944,278.18964
				L389.56944,277.22954L390.0495,277.22954L390.0495,276.02941L390.28953,276.02941L390.28953,274.82929L390.76959,274.82929L390.76959,273.86918
				L391.24965,273.86918L391.24965,272.66906L391.48968,272.66906L391.48968,271.94898L391.96974,271.94898L391.96974,270.50883
				L392.4498,270.50883L392.4498,269.78875L392.92986,269.78875L392.92986,268.58862L393.16989,268.58862L393.16989,267.62852L393.64996,267.62852
				L393.64996,266.42839L394.13002,266.42839L394.13002,265.70831L394.61008,265.70831L394.61008,265.94834L394.85011,265.94834
				L394.85011,269.3087L395.33017,269.3087L395.33017,269.78875L395.81023,269.78875L395.81023,270.2688L396.05026,270.2688L396.05026,270.50883
				L396.53032,270.50883L396.53032,270.98888L397.01038,270.98888L397.01038,271.46893L397.49044,271.46893L397.49044,271.94898
				L398.21053,271.94898L398.21053,271.46893L398.6906,271.46893L398.6906,270.50883L399.17066,270.50883L399.17066,270.2688L399.41069,270.2688
				L399.41069,269.78875L399.89075,269.78875L399.89075,269.3087L400.37081,269.3087L400.37081,269.06867L400.61084,269.06867L400.61084,268.58862
				L401.0909,268.58862L401.0909,268.10857L401.57096,268.10857L401.57096,267.62852L402.29105,267.62852L402.29105,268.10857L402.77111,268.10857
				L402.77111,268.58862L403.73124,268.58862L403.73124,269.3087L403.97127,269.3087L403.97127,275.06931L403.73124,275.06931L403.73124,276.74949
				L403.97127,276.74949L403.97127,286.83057L404.45133,286.83057L404.45133,287.55064L404.93139,287.55064L404.93139,288.03069
				L405.17142,288.03069L405.17142,288.51074L405.65148,288.51074L405.65148,289.23082L406.13154,289.23082L406.13154,290.19092
				L406.6116,290.19092L406.6116,290.911L406.85163,290.911L406.85163,291.39105L407.33169,291.39105L407.33169,292.11113L407.81175,292.11113
				L407.81175,293.07123L408.29181,293.07123L408.29181,293.31126L408.53184,293.31126L408.53184,294.27136L409.01191,294.27136
				L409.01191,294.75141L409.49197,294.75141L409.49197,294.99144L409.732,294.99144L409.732,295.47149L410.21206,295.47149L410.21206,295.95154
				L410.69212,295.95154L410.69212,296.43159L411.17218,296.43159L411.17218,296.67161L411.41221,296.67161L411.41221,297.15167
				L411.89227,297.15167L411.89227,297.63172L412.37233,297.63172L412.37233,297.87174L412.85239,297.87174L412.85239,298.35179
				L413.09242,298.35179L413.09242,298.83184L413.57248,298.83184L413.57248,299.3119L414.05254,299.3119L414.05254,299.55192L414.29258,299.55192
				L414.29258,300.03197L414.77264,300.03197L414.77264,300.51202L415.2527,300.51202L415.2527,301.2321L415.73276,301.2321L415.73276,301.71215
				L415.97279,301.71215L415.97279,302.1922L416.45285,302.1922L416.45285,302.43223L416.93291,302.43223L416.93291,302.91228L417.41297,302.91228
				L417.41297,303.39233L417.653,303.39233L417.653,303.87238L418.13306,303.87238L418.13306,304.11241L418.61312,304.11241L418.61312,304.59246
				L419.33322,304.59246L419.33322,305.07251L419.81328,305.07251L419.81328,305.55256L420.53337,305.55256L420.53337,305.79259
				L421.01343,305.79259L421.01343,306.27264L421.97355,306.27264L421.97355,306.75269L422.21358,306.75269L422.21358,306.99271
				L422.69364,306.99271L422.69364,307.47277L423.1737,307.47277L423.1737,307.95282L423.41373,307.95282L423.41373,308.43287L423.89379,308.43287
				L423.89379,308.67289L424.37385,308.67289L424.37385,309.15294L424.85392,309.15294L424.85392,309.633L425.09395,309.633L425.09395,310.11305
				L425.57401,310.11305L425.57401,310.35307L426.53413,310.35307L426.53413,311.31317L426.77416,311.31317L426.77416,311.5532L
				427.25422,311.5532L427.25422,312.03325L427.73428,312.03325L427.73428,312.99335L427.97431,312.99335L427.97431,313.23338L428.45437,313.23338
				L428.45437,314.19348L428.93443,314.19348L428.93443,314.67353L429.41449,314.67353L429.41449,314.91356L429.65452,314.91356
				L429.65452,315.87366L430.13459,315.87366L430.13459,316.35371L430.61465,316.35371L430.61465,316.59374L431.09471,316.59374
				L431.09471,317.55384L431.33474,317.55384L431.33474,317.79386L431.8148,317.79386L431.8148,318.27392L432.29486,318.27392L432.29486,319.23402
				L432.53489,319.23402L432.53489,319.47404L433.01495,319.47404L433.01495,319.9541L433.49501,319.9541L433.49501,320.9142L433.97507,320.9142
				L433.97507,321.15422L434.2151,321.15422L434.2151,321.63427L434.69516,321.63427L434.69516,322.11433"/>
			<path clip-path="url(#SVG_CP_2)" fill="none" stroke="#999999" stroke-width="0.96012" stroke-miterlimit="10" stroke-linecap="round" stroke-linejoin="round" d="
				M434.69516,322.11433L435.17523,322.11433L435.17523,322.8344L435.65529,322.8344L435.65529,323.31445L435.89532,323.31445L435.89532,324.03453
				L436.37538,324.03453L436.37538,324.99463L436.85544,324.99463L436.85544,325.47468L437.09547,325.47468L437.09547,326.19476
				L437.57553,326.19476L437.57553,326.67481L438.05559,326.67481L438.05559,327.39489L438.53565,327.39489L438.53565,328.35499
				L438.77568,328.35499L438.77568,328.59502L439.25574,328.59502L439.25574,329.55512L439.7358,329.55512L439.7358,330.27519L440.21587,330.27519
				L440.21587,330.75525L440.4559,330.75525L440.4559,331.47532L440.93596,331.47532L440.93596,332.43543L441.41602,332.43543L441.41602,333.1555
				L441.89608,333.1555L441.89608,334.1156L442.13611,334.1156L442.13611,334.83568L442.61617,334.83568L442.61617,335.31573L443.09623,335.31573
				L443.09623,336.51586L443.33626,336.51586L443.33626,337.47596L443.81632,337.47596L443.81632,338.67609L444.29638,338.67609
				L444.29638,343.23658L443.81632,343.23658L443.81632,345.15678L444.29638,345.15678L444.29638,346.11688L444.77644,346.11688
				L444.77644,347.31701L445.01647,347.31701L445.01647,348.27711L445.49654,348.27711L445.49654,349.47724L445.9766,349.47724L
				445.9766,350.67737L446.45666,350.67737L446.45666,351.39745L446.69669,351.39745L446.69669,352.8376L447.17675,352.8376L447.17675,354.03773
				L447.65681,354.03773L447.65681,354.27775L447.17675,354.27775L447.17675,356.43798L446.69669,356.43798L446.69669,360.27839
				L447.17675,360.27839L447.17675,361.47852L447.65681,361.47852L447.65681,366.03901L447.89684,366.03901L447.89684,371.07954
				L448.3769,371.07954L448.3769,378.04028L448.85696,378.04028L448.85696,385.96113L449.33702,385.96113L449.33702,386.68121L449.57705,386.68121
				L449.57705,388.36138L450.05711,388.36138L450.05711,389.56151L450.53717,389.56151L450.53717,391.00167L451.01724,391.00167
				L451.01724,392.20179L451.25727,392.20179L451.25727,393.40192L451.73733,393.40192L451.73733,394.122L452.21739,394.122L452.21739,395.56215
				L452.45742,395.56215L452.45742,396.76228L452.93748,396.76228L452.93748,397.96241L453.41754,397.96241L453.41754,399.16254
				L453.8976,399.16254L453.8976,400.84271L454.13763,400.84271L454.13763,402.52289L454.61769,402.52289L454.61769,403.72302L455.09775,403.72302
				L455.09775,405.88325L455.57781,405.88325L455.57781,407.56343L455.81785,407.56343L455.81785,408.76356L455.57781,408.76356
				L455.57781,409.96369L455.09775,409.96369L455.09775,410.68376L454.61769,410.68376L454.61769,412.12392L454.13763,412.12392
				L454.13763,412.84399L453.8976,412.84399L453.8976,414.04412L453.41754,414.04412L453.41754,415.00422L452.93748,415.00422L452.93748,416.20435
				L452.45742,416.20435L452.45742,416.92443L452.21739,416.92443L452.21739,417.88453L451.73733,417.88453L451.73733,418.60461
				L451.25727,418.60461L451.25727,419.56471L451.01724,419.56471L451.01724,420.28479L450.53717,420.28479L450.53717,421.48491
				L450.05711,421.48491L450.05711,422.44502L449.57705,422.44502L449.57705,423.16509L449.33702,423.16509L449.33702,424.60525
				L448.85696,424.60525L448.85696,427.72558L448.3769,427.72558L448.3769,431.08594L447.89684,431.08594L447.89684,431.56599L448.3769,431.56599
				L448.3769,432.04604L448.85696,432.04604L448.85696,432.28607L449.33702,432.28607L449.33702,432.76612L449.57705,432.76612L
				449.57705,433.24617L450.05711,433.24617L450.05711,433.72622L450.53717,433.72622L450.53717,433.96624L451.01724,433.96624L
				451.01724,434.4463L451.25727,434.4463L451.25727,434.92635L451.73733,434.92635L451.73733,435.16637L452.21739,435.16637L452.21739,435.64642
				L452.45742,435.64642L452.45742,436.12647L452.93748,436.12647L452.93748,436.84655L453.41754,436.84655L453.41754,438.52673
				L453.8976,438.52673L453.8976,457.24873L453.41754,457.24873L453.41754,457.72878L452.45742,457.72878L452.45742,457.9688L451.73733,457.9688
				L451.73733,458.44885L450.53717,458.44885L450.53717,458.9289L449.57705,458.9289L449.57705,459.40896L448.85696,459.40896L448.85696,458.9289
				L448.3769,458.9289L448.3769,458.44885L447.89684,458.44885L447.89684,457.9688L447.65681,457.9688L447.65681,457.72878L447.17675,457.72878
				L447.17675,457.24873L446.69669,457.24873L446.69669,456.76867L446.45666,456.76867L446.45666,456.52865L445.9766,456.52865L
				445.9766,456.0486L445.49654,456.0486L445.49654,455.56855L445.01647,455.56855L445.01647,455.0885L444.77644,455.0885L444.77644,454.84847
				L444.29638,454.84847L444.29638,454.36842L443.81632,454.36842L443.81632,453.88837L443.33626,453.88837L443.33626,452.20819
				L443.09623,452.20819L443.09623,451.96816L442.61617,451.96816L442.61617,451.48811L442.13611,451.48811L442.13611,451.00806
				L441.89608,451.00806L441.89608,450.28798L441.41602,450.28798L441.41602,449.80793L440.93596,449.80793L440.93596,449.32788
				L440.4559,449.32788L440.4559,450.52801L440.21587,450.52801L440.21587,451.48811L439.7358,451.48811L439.7358,452.68824L439.25574,452.68824
				L439.25574,453.40832L438.77568,453.40832L438.77568,454.84847L438.53565,454.84847L438.53565,455.56855L438.05559,455.56855
				L438.05559,456.52865L437.57553,456.52865L437.57553,457.24873L437.09547,457.24873L437.09547,458.44885L436.85544,458.44885
				L436.85544,459.40896L437.09547,459.40896L437.09547,461.08913L437.57553,461.08913L437.57553,461.32916L438.53565,461.32916
				L438.53565,461.80921L438.77568,461.80921L438.77568,462.28926L439.25574,462.28926L439.25574,462.52929L439.7358,462.52929L
				439.7358,463.00934L440.21587,463.00934L440.21587,463.48939L440.4559,463.48939L440.4559,463.96944L440.21587,463.96944L440.21587,464.20947
				L439.25574,464.20947L439.25574,464.68952L438.53565,464.68952L438.53565,465.16957L437.57553,465.16957L437.57553,465.64962
				L436.85544,465.64962L436.85544,465.88965L435.65529,465.88965L435.65529,466.3697L434.69516,466.3697L434.69516,465.64962L434.2151,465.64962
				L434.2151,464.68952L433.97507,464.68952L433.97507,463.96944L433.49501,463.96944L433.49501,463.00934L433.01495,463.00934L
				433.01495,462.28926L432.53489,462.28926L432.53489,461.32916L432.29486,461.32916L432.29486,460.60908L431.8148,460.60908L431.8148,459.64898
				L431.33474,459.64898L431.33474,458.9289L431.09471,458.9289L431.09471,457.9688L430.61465,457.9688L430.61465,457.24873L430.13459,457.24873
				L430.13459,456.52865L429.65452,456.52865L429.65452,455.56855L429.41449,455.56855L429.41449,454.84847L428.93443,454.84847
				L428.93443,453.88837L428.45437,453.88837L428.45437,453.16829L427.97431,453.16829L427.97431,452.20819L427.73428,452.20819
				L427.73428,451.48811L427.25422,451.48811L427.25422,450.52801L426.77416,450.52801L426.77416,449.80793L426.53413,449.80793
				L426.53413,448.84783L426.05407,448.84783L426.05407,448.12775L425.57401,448.12775L425.57401,447.40768L425.09395,447.40768
				L425.09395,446.44757L424.85392,446.44757L424.85392,445.7275L424.37385,445.7275L424.37385,444.7674L423.89379,444.7674L423.89379,443.56727
				L423.41373,443.56727L423.41373,442.84719L423.1737,442.84719L423.1737,441.88709L422.69364,441.88709L422.69364,441.16701L420.53337,441.16701
				L420.53337,441.40704L417.653,441.40704L417.653,441.88709L415.2527,441.88709L415.2527,442.36714L414.29258,442.36714L414.29258,442.84719
				L413.57248,442.84719L413.57248,443.08722L412.85239,443.08722L412.85239,443.56727L411.89227,443.56727L411.89227,444.04732
				L411.17218,444.04732L411.17218,444.28734L409.732,444.28734L409.732,444.7674L409.49197,444.7674L409.49197,445.24745L408.53184,445.24745
				L408.53184,445.7275L408.29181,445.7275L408.29181,445.96752L407.33169,445.96752L407.33169,446.44757L406.85163,446.44757L406.85163,446.92763
				L406.6116,446.92763L406.6116,447.40768L405.65148,447.40768L405.65148,447.6477L405.17142,447.6477L405.17142,448.12775L404.93139,448.12775
				L404.93139,448.6078L403.97127,448.6078L403.97127,448.84783L403.73124,448.84783L403.73124,449.32788L402.77111,449.32788L402.77111,449.80793
				L402.29105,449.80793L402.29105,450.28798L402.05102,450.28798L402.05102,450.52801L401.0909,450.52801L401.0909,451.00806L400.61084,451.00806
				L400.61084,451.48811L400.37081,451.48811L400.37081,451.96816L399.17066,451.96816L399.17066,452.20819L397.73047,452.20819
				L397.73047,452.68824L396.53032,452.68824L396.53032,453.16829L395.33017,453.16829L395.33017,453.40832L394.13002,453.40832
				L394.13002,453.88837L393.16989,453.88837L393.16989,454.36842L391.96974,454.36842L391.96974,454.84847L390.76959,454.84847
				L390.76959,455.0885L389.56944,455.0885L389.56944,455.56855L388.36929,455.56855L388.36929,456.0486L386.9291,456.0486L386.9291,456.52865
				L385.72895,456.52865L385.72895,456.76867L384.5288,456.76867L384.5288,457.24873L383.32865,457.24873L383.32865,457.72878L382.36852,457.72878
				L382.36852,457.9688L381.64843,457.9688L381.64843,458.44885L380.68831,458.44885L380.68831,458.9289L379.96822,458.9289L379.96822,459.40896
				L379.24813,459.40896L379.24813,459.64898L378.28801,459.64898L378.28801,460.12903L377.08785,460.12903L377.08785,460.60908
				L376.12773,460.60908L376.12773,461.08913L374.92758,461.08913L374.92758,461.32916L374.20749,461.32916L374.20749,461.80921
				L373.00734,461.80921L373.00734,462.28926L372.04721,462.28926L372.04721,462.52929L365.56639,462.52929L365.56639,463.00934
				L362.20597,463.00934L362.20597,463.48939L361.00581,463.48939L361.00581,463.96944L359.56563,463.96944L359.56563,464.20947
				L358.84554,464.20947L358.84554,464.68952L357.88542,464.68952L357.88542,465.16957L356.68526,465.16957L356.68526,465.64962
				L355.96517,465.64962L355.96517,465.88965L354.76502,465.88965L354.76502,466.3697L353.08481,466.3697L353.08481,466.84975L350.92453,466.84975
				L350.92453,467.3298L344.20368,467.3298L344.20368,466.84975L337.96289,466.84975L337.96289,466.3697L335.08252,466.3697L335.08252,465.88965
				L328.12164,465.88965L328.12164,446.92763L327.64158,446.92763L327.64158,446.44757L327.40155,446.44757L327.40155,445.96752
				L326.92149,445.96752L326.92149,445.7275L326.44143,445.7275L326.44143,445.24745L325.96137,445.24745"/>
			<path clip-path="url(#SVG_CP_2)" fill="none" stroke="#999999" stroke-width="0.96012" stroke-miterlimit="10" stroke-linecap="round" stroke-linejoin="round" d="
				M80.89027,401.56279L83.77063,401.56279L83.77063,401.32277L84.97078,401.32277L84.97078,401.56279L87.13106,401.56279L87.13106,402.04284
				L89.29133,402.04284L89.29133,402.52289L91.21158,402.52289L91.21158,403.00294L92.1717,403.00294L92.1717,403.24297L92.89179,403.24297
				L92.89179,403.72302L94.09194,403.72302L94.09194,404.20307L95.05206,404.20307L95.05206,404.68312L96.25222,404.68312L96.25222,404.92315
				L97.21234,404.92315L97.21234,405.4032L97.93243,405.4032L97.93243,405.88325L98.65252,405.88325L98.65252,406.12328L100.0927,406.12328
				L100.0927,405.88325L101.29285,405.88325L101.29285,405.4032L102.01295,405.4032L102.01295,404.92315L102.49301,404.92315L102.49301,404.68312
				L102.97307,404.68312L102.97307,404.20307L104.65328,404.20307L104.65328,404.68312L104.89331,404.68312L104.89331,404.92315
				L105.37337,404.92315L105.37337,405.4032L105.85343,405.4032L105.85343,405.88325L106.33349,405.88325L106.33349,406.12328L106.57352,406.12328
				L106.57352,406.60333L107.05359,406.60333L107.05359,407.08338L109.21386,407.08338L109.21386,407.56343L109.45389,407.56343
				L109.45389,407.80346L109.93395,407.80346L109.93395,408.28351L110.41401,408.28351L110.41401,409.24361L110.89407,409.24361
				L110.89407,409.96369L111.1341,409.96369L111.1341,410.68376L111.61416,410.68376L111.61416,411.16381L112.09423,411.16381L112.09423,412.12392
				L112.33426,412.12392L112.33426,412.84399L112.81432,412.84399L112.81432,413.8041L113.29438,413.8041L113.29438,414.52417L113.77444,414.52417
				L113.77444,415.00422L114.01447,415.00422L114.01447,415.7243L114.49453,415.7243L114.49453,416.20435L114.97459,416.20435L114.97459,416.92443
				L115.69468,416.92443L115.69468,417.40448L116.6548,417.40448L116.6548,417.88453L117.3749,417.88453L117.3749,418.36458L118.33502,418.36458
				L118.33502,418.60461L118.57505,418.60461L118.57505,419.08466L119.05511,419.08466L119.05511,419.56471L119.53517,419.56471
				L119.53517,420.04476L120.25526,420.04476L120.25526,420.28479L121.21538,420.28479L121.21538,420.76484L121.93547,420.76484
				L121.93547,421.24489L122.8956,421.24489L122.8956,421.48491L123.61569,421.48491L123.61569,421.96497L127.45618,421.96497L127.45618,422.44502
				L128.65633,422.44502L128.65633,421.96497L129.13639,421.96497L129.13639,421.48491L129.37642,421.48491L129.37642,421.24489
				L129.85648,421.24489L129.85648,420.76484L130.33654,420.76484L130.33654,420.28479L130.57657,420.28479L130.57657,419.56471
				L131.05663,419.56471L131.05663,419.08466L131.53669,419.08466L131.53669,418.60461L132.01675,418.60461L132.01675,418.36458
				L132.25678,418.36458L132.25678,417.40448L132.73685,417.40448L132.73685,416.92443L133.21691,416.92443L133.21691,416.6844L
				133.69697,416.6844L133.69697,416.20435L133.937,416.20435L133.937,415.7243L134.41706,415.7243L134.41706,415.00422L134.89712,415.00422
				L134.89712,414.52417L135.13715,414.52417L135.13715,414.04412L135.61721,414.04412L135.61721,413.8041L136.09727,413.8041L136.09727,412.84399
				L135.61721,412.84399L135.61721,412.36394L135.13715,412.36394L135.13715,412.12392L134.89712,412.12392L134.89712,411.64387
				L134.41706,411.64387L134.41706,410.68376L133.937,410.68376L133.937,410.44374L134.41706,410.44374L134.41706,409.96369L134.89712,409.96369
				L134.89712,409.48364L135.13715,409.48364L135.13715,409.24361L135.61721,409.24361L135.61721,408.76356L136.09727,408.76356
				L136.09727,408.28351L136.57733,408.28351L136.57733,407.80346L136.81736,407.80346L136.81736,407.56343L137.29742,407.56343
				L137.29742,407.08338L137.77748,407.08338L137.77748,406.12328L138.25755,406.12328L138.25755,405.88325L138.49758,405.88325
				L138.49758,405.4032L138.97764,405.4032L138.97764,404.92315L139.4577,404.92315L139.4577,404.68312L139.93776,404.68312L139.93776,404.20307
				L140.17779,404.20307L140.17779,403.72302L140.65785,403.72302L140.65785,403.24297L141.13791,403.24297L141.13791,403.00294
				L141.37794,403.00294L141.37794,402.52289L141.858,402.52289L141.858,402.04284L142.33806,402.04284L142.33806,401.32277L142.81812,401.32277
				L142.81812,400.84271L143.05815,400.84271L143.05815,400.36266L143.53822,400.36266L143.53822,400.12264L144.01828,400.12264
				L144.01828,399.64259L144.49834,399.64259L144.49834,399.16254L144.73837,399.16254L144.73837,398.68248L145.21843,398.68248
				L145.21843,398.44246L145.69849,398.44246L145.69849,397.96241L145.93852,397.96241L145.93852,397.48236L146.41858,397.48236
				L146.41858,396.76228L146.89864,396.76228L146.89864,396.28223L147.3787,396.28223L147.3787,395.80218L147.61873,395.80218L147.61873,395.56215
				L148.09879,395.56215L148.09879,395.0821L148.57886,395.0821L148.57886,394.60205L149.29895,394.60205L149.29895,395.0821L149.77901,395.0821
				L149.77901,395.56215L150.25907,395.56215L150.25907,395.80218L150.4991,395.80218L150.4991,396.28223L150.97916,396.28223L150.97916,396.76228
				L151.45922,396.76228L151.45922,397.00231L151.93928,397.00231L151.93928,397.48236L152.17931,397.48236L152.17931,397.96241
				L152.65937,397.96241L152.65937,398.44246L153.13943,398.44246L153.13943,398.68248L153.6195,398.68248L153.6195,399.16254L153.85953,399.16254
				L153.85953,399.64259L154.33959,399.64259L154.33959,400.12264L154.81965,400.12264L154.81965,400.36266L155.05968,400.36266
				L155.05968,400.84271L155.53974,400.84271L155.53974,401.32277L156.0198,401.32277L156.0198,401.56279L156.49986,401.56279L156.49986,402.04284
				L156.73989,402.04284L156.73989,402.52289L157.21995,402.52289L157.21995,403.00294L157.70001,403.00294L157.70001,403.24297
				L158.18007,403.24297L158.18007,403.72302L158.4201,403.72302L158.4201,404.20307L158.90017,404.20307L158.90017,404.68312L159.38023,404.68312
				L159.38023,404.92315L159.62026,404.92315L159.62026,405.4032L160.10032,405.4032L160.10032,405.88325L160.58038,405.88325L160.58038,406.12328
				L161.06044,406.12328L161.06044,406.60333L161.30047,406.60333L161.30047,407.56343L161.06044,407.56343L161.06044,407.80346
				L160.58038,407.80346L160.58038,408.28351L160.10032,408.28351L160.10032,408.76356L160.58038,408.76356L160.58038,409.48364
				L161.06044,409.48364L161.06044,409.96369L161.30047,409.96369L161.30047,410.68376L161.78053,410.68376L161.78053,411.64387
				L162.26059,411.64387L162.26059,412.12392L162.74065,412.12392L162.74065,412.84399L162.98068,412.84399L162.98068,413.32404
				L163.46074,413.32404L163.46074,414.04412L163.94081,414.04412L163.94081,415.00422L164.18084,415.00422L164.18084,414.52417
				L165.14096,414.52417L165.14096,414.04412L165.86105,414.04412L165.86105,413.8041L166.82117,413.8041L166.82117,414.04412L167.30123,414.04412
				L167.30123,414.52417L167.54126,414.52417L167.54126,415.48427L168.02132,415.48427L168.02132,415.7243L168.50138,415.7243L168.50138,416.6844
				L168.74141,416.6844L168.74141,416.92443L169.22148,416.92443L169.22148,417.40448L169.70154,417.40448L169.70154,418.36458L
				170.1816,418.36458L170.1816,424.1252L170.90169,424.1252L170.90169,423.64514L171.86181,423.64514L171.86181,423.16509L173.06196,423.16509
				L173.06196,422.92507L173.78205,422.92507L173.78205,422.44502L174.98221,422.44502L174.98221,421.96497L175.94233,421.96497
				L175.94233,421.48491L177.14248,421.48491L177.14248,422.44502L177.62254,422.44502L177.62254,423.64514L177.86257,423.64514
				L177.86257,424.84527L178.34263,424.84527L178.34263,424.60525L178.82269,424.60525L178.82269,424.1252L179.30275,424.1252L179.30275,423.64514
				L179.54278,423.64514L179.54278,423.16509L180.02285,423.16509L180.02285,422.92507L180.50291,422.92507L180.50291,422.44502
				L181.223,422.44502L181.223,421.96497L181.70306,421.96497L181.70306,421.48491L182.18312,421.48491L182.18312,421.24489L182.42315,421.24489
				L182.42315,420.76484L182.90321,420.76484L182.90321,420.28479L183.38327,420.28479L183.38327,417.88453L182.90321,417.88453
				L182.90321,415.48427L182.42315,415.48427L182.42315,413.8041L182.90321,413.8041L182.90321,413.32404L183.86333,413.32404L183.86333,412.84399
				L185.06349,412.84399L185.06349,410.68376L185.54355,410.68376L185.54355,410.44374L186.26364,410.44374L186.26364,409.96369
				L186.7437,409.96369L186.7437,409.48364L186.98373,409.48364L186.98373,409.24361L187.94385,409.24361L187.94385,408.76356L188.42391,408.76356
				L188.42391,408.28351L188.66394,408.28351L188.66394,407.80346L189.62406,407.80346L189.62406,407.56343L190.10413,407.56343
				L190.10413,407.08338L190.34416,407.08338L190.34416,406.60333L191.30428,406.60333L191.30428,406.12328L191.78434,406.12328
				L191.78434,405.88325L192.02437,405.88325L192.02437,405.4032L192.98449,405.4032L192.98449,404.92315L193.22452,404.92315L193.22452,403.72302
				L192.98449,403.72302L192.98449,402.04284L192.50443,402.04284L192.50443,400.84271L192.98449,400.84271L192.98449,400.36266
				L193.22452,400.36266L193.22452,400.12264L193.70458,400.12264L193.70458,399.64259L194.18464,399.64259L194.18464,399.16254
				L194.6647,399.16254L194.6647,398.68248L194.90473,398.68248L194.90473,398.44246L195.3848,398.44246L195.3848,397.96241L195.86486,397.96241
				L195.86486,397.48236L196.34492,397.48236L196.34492,397.00231L196.58495,397.00231L196.58495,396.76228L197.06501,396.76228
				L197.06501,396.28223L197.54507,396.28223L197.54507,395.80218L198.26516,395.80218L198.26516,395.56215L198.74522,395.56215
				L198.74522,395.0821L199.22528,395.0821L199.22528,394.60205L199.46531,394.60205L199.46531,394.122L199.94537,394.122L199.94537,393.88197
				L200.42544,393.88197L200.42544,393.40192L200.9055,393.40192L200.9055,392.92187L201.14553,392.92187L201.14553,392.44182L201.62559,392.44182
				L201.62559,392.20179L202.10565,392.20179L202.10565,391.72174L202.34568,391.72174L202.34568,391.24169L202.82574,391.24169
				L202.82574,391.00167L203.3058,391.00167L203.3058,390.52161L203.78586,390.52161L203.78586,390.04156L204.02589,390.04156L204.02589,389.56151
				L204.50595,389.56151L204.50595,389.32149L204.98601,389.32149L204.98601,388.84144L205.46607,388.84144L205.46607,388.36138
				L205.70611,388.36138L205.70611,387.88133L206.18617,387.88133L206.18617,387.16126L205.46607,387.16126L205.46607,386.68121
				L204.98601,386.68121L204.98601,386.44118L204.02589,386.44118L204.02589,385.96113L203.78586,385.96113L203.78586,385.48108
				L202.82574,385.48108L202.82574,385.00103L202.34568,385.00103L202.34568,384.761L202.10565,384.761L202.10565,384.28095L201.14553,384.28095
				L201.14553,383.8009L200.9055,383.8009L200.9055,383.32085L199.94537,383.32085L199.94537,383.08082L199.46531,383.08082L199.46531,382.60077
				L198.74522,382.60077L198.74522,382.12072L198.26516,382.12072L198.26516,381.88069L197.54507,381.88069L197.54507,381.40064
				L197.06501,381.40064L197.06501,380.92059L196.34492,380.92059L196.34492,380.44054L195.86486,380.44054L195.86486,380.20051
				L194.90473,380.20051L194.90473,379.72046L194.6647,379.72046L194.6647,379.24041L193.70458,379.24041L193.70458,378.76036L193.22452,378.76036
				L193.22452,378.52034L192.50443,378.52034L192.50443,378.04028L192.02437,378.04028L192.02437,377.56023L191.78434,377.56023
				L191.78434,377.32021L190.82422,377.32021L190.82422,376.84016L190.34416,376.84016L190.34416,376.36011L189.62406,376.36011
				L189.62406,375.88005L189.144,375.88005L189.144,375.64003L188.42391,375.64003L188.42391,374.67993L188.66394,374.67993L188.66394,374.19988
				L189.144,374.19988L189.144,373.95985L189.62406,373.95985L189.62406,373.4798L190.10413,373.4798L190.10413,372.75972L190.34416,372.75972
				L190.34416,372.27967L190.82422,372.27967L190.82422,371.79962L191.30428,371.79962L191.30428,371.31957L191.78434,371.31957
				L191.78434,370.59949L192.02437,370.59949L192.02437,370.11944L192.50443,370.11944L192.50443,369.63939L193.70458,369.63939
				L193.70458,370.11944L197.54507,370.11944L197.54507,370.59949L201.62559,370.59949L201.62559,371.07954L202.34568,371.07954
				L202.34568,371.31957L203.3058,371.31957L203.3058,371.79962L204.50595,371.79962L204.50595,372.27967L205.46607,372.27967L205.46607,372.75972
				L206.66623,372.75972L206.66623,372.99975L207.38632,372.99975L207.38632,373.4798L208.58647,373.4798L208.58647,373.95985L209.54659,373.95985
				L209.54659,374.19988L210.26668,374.19988L210.26668,374.67993L211.22681,374.67993L211.22681,375.15998L211.46684,375.15998
				L211.46684,375.64003L212.42696,375.64003L212.42696,375.88005L212.90702,375.88005L212.90702,376.36011L213.14705,376.36011
				L213.14705,376.84016L213.62711,376.84016L213.62711,377.32021L214.58723,377.32021L214.58723,377.56023L214.82726,377.56023
				L214.82726,378.04028L215.30732,378.04028L215.30732,378.52034L215.78738,378.52034L215.78738,378.76036L216.50748,378.76036
				L216.50748,379.24041L222.26821,379.24041L222.26821,379.72046L223.22833,379.72046L223.22833,380.20051L223.70839,380.20051
				L223.70839,380.44054L223.94842,380.44054L223.94842,380.92059L224.42848,380.92059L224.42848,381.40064L225.14857,381.40064
				L225.14857,381.88069L225.62863,381.88069L225.62863,382.12072L226.10869,382.12072L226.10869,382.60077L226.58876,382.60077
				L226.58876,383.8009L226.82879,383.8009L226.82879,385.96113L227.30885,385.96113L227.30885,387.64131L227.78891,387.64131L227.78891,387.88133
				L228.26897,387.88133L228.26897,388.36138L228.509,388.36138L228.509,388.84144L228.98906,388.84144L228.98906,389.32149L229.46912,389.32149
				L229.46912,390.04156L229.70915,390.04156L229.70915,390.52161L230.18921,390.52161L230.18921,391.00167L230.66927,391.00167
				L230.66927,391.24169L231.14933,391.24169L231.14933,391.72174L231.38936,391.72174L231.38936,392.20179L231.86943,392.20179
				L231.86943,392.44182L232.34949,392.44182L232.34949,393.40192L233.06958,393.40192L233.06958,393.88197L233.54964,393.88197
				L233.54964,394.122L234.0297,394.122L234.0297,394.60205L234.26973,394.60205L234.26973,395.0821L234.74979,395.0821L234.74979,395.56215
				L235.22985,395.56215L235.22985,395.80218L235.94994,395.80218L235.94994,395.56215L236.43,395.56215L236.43,395.0821L237.39013,395.0821
				L237.39013,394.60205L237.63016,394.60205L237.63016,394.122L238.59028,394.122L238.59028,393.88197L239.07034,393.88197L239.07034,393.40192
				L239.31037,393.40192L239.31037,392.92187L240.27049,392.92187L240.27049,392.44182L240.51052,392.44182L240.51052,392.20179
				L240.99058,392.20179L240.99058,391.72174L241.9507,391.72174L241.9507,391.24169L242.19074,391.24169L242.19074,391.00167L243.15086,391.00167
				L243.15086,390.52161L243.63092,390.52161L243.63092,390.04156L243.87095,390.04156L243.87095,389.56151L244.83107,389.56151
				L244.83107,389.32149L245.0711,389.32149L245.0711,388.84144L245.55116,388.84144L245.55116,388.36138L246.51128,388.36138L246.51128,387.16126
				L246.03122,387.16126L246.03122,386.44118L245.55116,386.44118L245.55116,385.96113L246.03122,385.96113L246.03122,385.48108
				L247.23137,385.48108L247.23137,385.00103L248.1915,385.00103L248.1915,384.761L249.39165,384.761L249.39165,384.28095L250.5918,384.28095
				L250.5918,383.8009L252.27201,383.8009L252.27201,383.32085L253.95223,383.32085L253.95223,383.08082L255.63244,383.08082L255.63244,382.60077
				L256.83259,382.60077L256.83259,382.12072L258.51281,382.12072L258.51281,381.88069L260.19302,381.88069L260.19302,381.40064
				L261.87323,381.40064L261.87323,380.92059L263.07339,380.92059L263.07339,380.44054L264.7536,380.44054L264.7536,380.20051L266.43381,380.20051
				L266.43381,379.72046L267.1539,379.72046L267.1539,379.24041L267.63396,379.24041L267.63396,378.76036L268.35406,378.76036L268.35406,378.52034
				L268.83412,378.52034L268.83412,379.24041L269.31418,379.24041L269.31418,380.20051L269.55421,380.20051L269.55421,380.44054
				L270.03427,380.44054L270.03427,380.92059L270.51433,380.92059L270.51433,381.88069L270.99439,381.88069L270.99439,382.12072
				L271.23442,382.12072L271.23442,382.60077L271.71448,382.60077L271.71448,383.32085L272.19454,383.32085L272.19454,383.8009L
				272.43457,383.8009L272.43457,384.28095L272.91463,384.28095L272.91463,385.00103L273.3947,385.00103L273.3947,385.48108L273.87476,385.48108
				L273.87476,385.96113L274.11479,385.96113L274.11479,386.68121L274.59485,386.68121L274.59485,387.16126L275.07491,387.16126
				L275.07491,387.64131L275.55497,387.64131L275.55497,388.36138L275.795,388.36138L275.795,388.84144L276.27506,388.84144L276.27506,389.32149
				L276.75512,389.32149L276.75512,389.56151L276.99515,389.56151L276.99515,390.04156L277.47521,390.04156L277.47521,390.52161
				L277.95527,390.52161L277.95527,391.00167L278.43533,391.00167L278.43533,391.24169L278.67537,391.24169L278.67537,391.72174
				L279.15543,391.72174L279.15543,392.20179L279.63549,392.20179L279.63549,392.44182L280.11555,392.44182L280.11555,392.92187
				L280.35558,392.92187L280.35558,393.40192L280.83564,393.40192L280.83564,393.88197L281.3157,393.88197L281.3157,394.122L281.55573,394.122
				L281.55573,394.60205L282.03579,394.60205L282.03579,395.0821L282.51585,395.0821L282.51585,395.56215L282.99591,395.56215L282.99591,395.80218
				L283.23594,395.80218L283.23594,396.28223L283.716,396.28223L283.716,396.76228L284.19607,396.76228L284.19607,397.00231L284.67613,397.00231
				L284.67613,397.48236L284.91616,397.48236L284.91616,397.96241L285.39622,397.96241L285.39622,398.44246L285.87628,398.44246
				L285.87628,398.68248L286.11631,398.68248L286.11631,399.16254L286.59637,399.16254L286.59637,399.64259L287.07643,399.64259
				L287.07643,400.12264L287.55649,400.12264L287.55649,400.36266L287.79652,400.36266L287.79652,400.84271L288.27658,400.84271
				L288.27658,401.32277L288.75664,401.32277L288.75664,401.56279L289.23671,401.56279L289.23671,402.52289L289.47674,402.52289
				L289.47674,403.00294L289.9568,403.00294L289.9568,403.24297L290.43686,403.24297L290.43686,403.72302L290.91692,403.72302L290.91692,404.20307
				L291.15695,404.20307L291.15695,404.68312L291.63701,404.68312L291.63701,404.92315L292.11707,404.92315L292.11707,405.4032L
				292.3571,405.4032L292.3571,405.88325L292.83716,405.88325L292.83716,406.12328L293.31722,406.12328L293.31722,406.60333L293.79728,406.60333
				L293.79728,407.08338L294.03731,407.08338L294.03731,407.56343L294.51738,407.56343L294.51738,407.80346L294.99744,407.80346
				L294.99744,408.28351L295.4775,408.28351L295.4775,408.76356L295.71753,408.76356L295.71753,409.24361L296.19759,409.24361L296.19759,409.48364
				L296.67765,409.48364L296.67765,409.96369L296.91768,409.96369L296.91768,410.44374L297.39774,410.44374L297.39774,410.68376
				L297.8778,410.68376L297.8778,411.16381L298.35786,411.16381L298.35786,411.64387L298.59789,411.64387L298.59789,412.12392L299.07795,412.12392
				L299.07795,412.36394L299.55802,412.36394L299.55802,412.84399L300.03808,412.84399L300.03808,413.32404L300.27811,413.32404
				L300.27811,413.8041L300.75817,413.8041L300.75817,414.04412L301.23823,414.04412L301.23823,414.52417L301.47826,414.52417L301.47826,415.00422
				L301.95832,415.00422L301.95832,415.48427L302.43838,415.48427L302.43838,415.7243L302.91844,415.7243L302.91844,416.20435L303.15847,416.20435
				L303.15847,416.6844L303.63853,416.6844L303.63853,416.92443L304.11859,416.92443L304.11859,417.40448L304.59865,417.40448L304.59865,417.88453
				L304.83869,417.88453L304.83869,418.36458L305.31875,418.36458L305.31875,418.60461L305.79881,418.60461L305.79881,419.08466
				L306.03884,419.08466L306.03884,419.56471L306.5189,419.56471L306.5189,420.04476L306.99896,420.04476L306.99896,420.28479L307.47902,420.28479
				L307.47902,420.76484L307.71905,420.76484L307.71905,421.24489L308.19911,421.24489L308.19911,421.48491L308.67917,421.48491
				L308.67917,421.96497L309.15923,421.96497L309.15923,422.44502L309.39926,422.44502L309.39926,422.92507L309.87933,422.92507
				L309.87933,423.16509L310.35939,423.16509L310.35939,423.64514L310.59942,423.64514L310.59942,424.1252L311.07948,424.1252L311.07948,424.60525
				L311.55954,424.60525L311.55954,424.84527L312.0396,424.84527L312.0396,425.32532L312.27963,425.32532L312.27963,425.80537L312.75969,425.80537
				L312.75969,426.0454L313.23975,426.0454L313.23975,426.52545L313.71981,426.52545L313.71981,427.0055L313.95984,427.0055L313.95984,427.48555
				L314.4399,427.48555L314.4399,427.72558L314.91996,427.72558L314.91996,428.20563L315.16,428.20563L315.16,428.68568L315.64006,428.68568
				L315.64006,429.16573L316.12012,429.16573L316.12012,429.40576L316.60018,429.40576L316.60018,429.88581L316.84021,429.88581
				L316.84021,430.36586L317.32027,430.36586L317.32027,430.60589L317.80033,430.60589L317.80033,431.08594L318.28039,431.08594
				L318.28039,431.56599L318.52042,431.56599L318.52042,432.04604L319.00048,432.04604L319.00048,432.28607L319.48054,432.28607
				L319.48054,432.76612L319.72057,432.76612L319.72057,433.24617L320.20063,433.24617L320.20063,433.72622L320.6807,433.72622L
				320.6807,433.96624L321.16076,433.96624L321.16076,434.4463L321.40079,434.4463L321.40079,434.92635L321.88085,434.92635L321.88085,435.16637
				L322.36091,435.16637L322.36091,435.64642L322.84097,435.64642L322.84097,436.12647L323.081,436.12647L323.081,436.60653L323.56106,436.60653
				L323.56106,437.3266L324.04112,437.3266L324.04112,437.80665L324.28115,437.80665L324.28115,438.2867L324.76121,438.2867L324.76121,438.52673
				L325.24127,438.52673L325.24127,439.00678L325.72134,439.00678L325.72134,445.24745L325.96137,445.24745L325.96137,449.32788
				L326.44143,449.32788L326.44143,450.28798L326.92149,450.28798"/>
			<path clip-path="url(#SVG_CP_2)" fill="none" stroke="#999999" stroke-width="0.96012" stroke-miterlimit="10" stroke-linecap="round" stroke-linejoin="round" d="
				M326.92149,450.28798L326.92149,451.00806L327.40155,451.00806L327.40155,451.96816L327.64158,451.96816L327.64158,466.3697L
				326.44143,466.3697L326.44143,467.56983L326.92149,467.56983L326.92149,468.76995L327.40155,468.76995L327.40155,469.73006L327.64158,469.73006
				L327.64158,470.93018L328.12164,470.93018L328.12164,472.13031L328.6017,472.13031L328.6017,473.33044L328.84173,473.33044L328.84173,474.29054
				L329.32179,474.29054L329.32179,475.49067L329.80185,475.49067L329.80185,476.6908L330.28191,476.6908L330.28191,477.89092L330.52194,477.89092
				L330.52194,478.85103L331.00201,478.85103L331.00201,480.05116L331.48207,480.05116L331.48207,481.25128L331.96213,481.25128
				L331.96213,482.21139L331.00201,482.21139L331.00201,482.45141L329.80185,482.45141L329.80185,482.93146L328.6017,482.93146L
				328.6017,483.41151L327.40155,483.41151L327.40155,483.89156L326.44143,483.89156L326.44143,484.13159L325.24127,484.13159L325.24127,484.61164
				L324.04112,484.61164L324.04112,485.09169L322.84097,485.09169L322.84097,485.57174L321.88085,485.57174L321.88085,485.81177
				L320.6807,485.81177L320.6807,486.29182L319.48054,486.29182L319.48054,486.77187L318.28039,486.77187L318.28039,487.0119L316.84021,487.0119
				L316.84021,487.49195L316.12012,487.49195L316.12012,487.972L314.91996,487.972L314.91996,488.45205L313.71981,488.45205L313.71981,488.69208
				L312.27963,488.69208L312.27963,489.17213L311.55954,489.17213L311.55954,489.65218L310.35939,489.65218L310.35939,490.13223
				L309.15923,490.13223L309.15923,490.37225L307.71905,490.37225L307.71905,490.85231L306.5189,490.85231L306.5189,491.33236L305.79881,491.33236
				L305.79881,491.57238L304.59865,491.57238L304.59865,492.05243L303.15847,492.05243L303.15847,492.53249L301.95832,492.53249
				L301.95832,493.01254L301.23823,493.01254L301.23823,493.25256L300.03808,493.25256L300.03808,493.73261L299.55802,493.73261
				L299.55802,494.21266L300.03808,494.21266L300.03808,494.93274L300.27811,494.93274L300.27811,496.13287L300.75817,496.13287
				L300.75817,497.09297L301.23823,497.09297L301.23823,498.2931L301.47826,498.2931L301.47826,499.2532L301.95832,499.2532L301.95832,500.45333
				L302.43838,500.45333L302.43838,501.17341L302.91844,501.17341L302.91844,502.37353L303.15847,502.37353L303.15847,503.33364
				L303.63853,503.33364L303.63853,504.53376L304.11859,504.53376L304.11859,505.25384L304.59865,505.25384L304.59865,506.69399
				L304.83869,506.69399L304.83869,506.93402L304.11859,506.93402L304.11859,507.41407L303.15847,507.41407L303.15847,507.89412
				L302.43838,507.89412L302.43838,508.37417L301.47826,508.37417L301.47826,508.6142L300.27811,508.6142L300.27811,509.09425L299.55802,509.09425
				L299.55802,509.5743L298.59789,509.5743L298.59789,509.81433L297.8778,509.81433L297.8778,510.29438L296.91768,510.29438L296.91768,510.77443
				L296.19759,510.77443L296.19759,511.25448L294.99744,511.25448L294.99744,511.49451L294.03731,511.49451L294.03731,511.97456
				L293.31722,511.97456L293.31722,512.45461L292.3571,512.45461L292.3571,512.93466L291.63701,512.93466L291.63701,513.17468L290.91692,513.17468
				L290.91692,513.65474L289.47674,513.65474L289.47674,514.13479L288.75664,514.13479L288.75664,514.37481L287.79652,514.37481
				L287.79652,514.85486L287.07643,514.85486L287.07643,515.33492L286.11631,515.33492L286.11631,515.81497L285.39622,515.81497
				L285.39622,516.05499L284.19607,516.05499L284.19607,516.53504L283.23594,516.53504L283.23594,517.01509L282.51585,517.01509
				L282.51585,517.49515L282.03579,517.49515L282.03579,517.01509L281.55573,517.01509L281.55573,516.05499L281.3157,516.05499L
				281.3157,515.33492L280.83564,515.33492L280.83564,514.37481L280.35558,514.37481L280.35558,513.65474L280.11555,513.65474L280.11555,512.93466
				L279.63549,512.93466L279.63549,512.45461L279.15543,512.45461L279.15543,512.93466L278.43533,512.93466L278.43533,513.17468
				L277.47521,513.17468L277.47521,513.65474L276.75512,513.65474L276.75512,514.13479L275.795,514.13479L275.795,514.37481L275.07491,514.37481
				L275.07491,514.85486L274.11479,514.85486L274.11479,515.33492L273.3947,515.33492L273.3947,515.81497L272.43457,515.81497L272.43457,516.05499
				L271.71448,516.05499L271.71448,516.53504L270.99439,516.53504L270.99439,517.01509L270.03427,517.01509L270.03427,517.49515
				L269.31418,517.49515L269.31418,517.73517L268.35406,517.73517L268.35406,518.21522L267.87399,518.21522L267.87399,517.73517
				L267.63396,517.73517L267.63396,517.01509L267.1539,517.01509L267.1539,516.05499L266.67384,516.05499L266.67384,515.33492L266.43381,515.33492
				L266.43381,514.37481L265.95375,514.37481L265.95375,513.65474L265.47369,513.65474L265.47369,514.13479L264.27354,514.13479
				L264.27354,514.37481L263.31342,514.37481L263.31342,514.85486L262.59332,514.85486L262.59332,515.33492L261.87323,515.33492
				L261.87323,515.81497L260.91311,515.81497L260.91311,516.05499L260.19302,516.05499L260.19302,516.53504L259.2329,516.53504L
				259.2329,517.01509L258.51281,517.01509L258.51281,517.49515L257.55268,517.49515L257.55268,517.73517L256.83259,517.73517L256.83259,518.21522
				L255.87247,518.21522L255.87247,518.69527L255.15238,518.69527L255.15238,519.17532L254.19226,519.17532L254.19226,519.41535
				L253.47217,519.41535L253.47217,519.8954L252.75208,519.8954L252.75208,520.37545L252.27201,520.37545L252.27201,521.09553L252.75208,521.09553
				L252.75208,522.05563L252.99211,522.05563L252.99211,522.77571L253.47217,522.77571L253.47217,523.73581L253.95223,523.73581
				L253.95223,524.45589L254.19226,524.45589L254.19226,525.17596L254.67232,525.17596L254.67232,526.13607L255.15238,526.13607
				L255.15238,526.85614L255.63244,526.85614L255.63244,528.2963L255.87247,528.2963L255.87247,529.01637L256.35253,529.01637L256.35253,529.73645
				L255.87247,529.73645L255.87247,530.2165L255.15238,530.2165L255.15238,530.69655L254.67232,530.69655L254.67232,531.1766L255.15238,531.1766
				L255.15238,532.37673L255.63244,532.37673L255.63244,533.57686L255.87247,533.57686L255.87247,534.77699L256.35253,534.77699
				L256.35253,535.97711L256.83259,535.97711L256.83259,537.41727L257.31265,537.41727L257.31265,538.6174L257.55268,538.6174L257.55268,540.29758
				L258.03275,540.29758L258.03275,541.4977L258.51281,541.4977L258.51281,542.69783L258.75284,542.69783L258.75284,543.89796L259.2329,543.89796
				L259.2329,544.37801L258.51281,544.37801L258.51281,544.85806L256.83259,544.85806L256.83259,545.09809L255.63244,545.09809L
				255.63244,545.57814L253.95223,545.57814L253.95223,546.05819L252.75208,546.05819L252.75208,546.53824L252.27201,546.53824L
				252.27201,547.25832L251.79195,547.25832L251.79195,549.65857L252.27201,549.65857L252.27201,551.33875L252.75208,551.33875L
				252.75208,552.53888L252.99211,552.53888L252.99211,553.97903L253.47217,553.97903L253.47217,555.17916L253.95223,555.17916L
				253.95223,556.37929L254.19226,556.37929L254.19226,557.57942L254.67232,557.57942L254.67232,558.53952L255.15238,558.53952L
				255.15238,559.73965L255.63244,559.73965L255.63244,560.93977L255.87247,560.93977L255.87247,561.65985L256.35253,561.65985L
				256.35253,562.1399L255.87247,562.1399L255.87247,562.61995L255.15238,562.61995L255.15238,563.1L254.19226,563.1L254.19226,563.34003
				L253.95223,563.34003L253.95223,563.82008L252.99211,563.82008L252.99211,564.78018L253.47217,564.78018L253.47217,565.02021
				L253.95223,565.02021L253.95223,565.50026L254.67232,565.50026L254.67232,565.98031L255.15238,565.98031L255.15238,566.46036
				L255.63244,566.46036L255.63244,566.70039L256.35253,566.70039L256.35253,567.18044L256.83259,567.18044L256.83259,567.66049
				L257.31265,567.66049L257.31265,567.90052L258.03275,567.90052L258.03275,568.38057L258.51281,568.38057L258.51281,568.86062
				L258.75284,568.86062L258.75284,569.34067L259.71296,569.34067L259.71296,569.5807L260.19302,569.5807L260.19302,570.06075L260.91311,570.06075
				L260.91311,570.5408L261.39317,570.5408L261.39317,571.02085L262.11326,571.02085L262.11326,571.26087L262.59332,571.26087L262.59332,571.74093
				L263.31342,571.74093L263.31342,572.22098L263.79348,572.22098L263.79348,572.461L264.7536,572.461L264.7536,572.94105L264.99363,572.94105
				L264.99363,573.4211L265.95375,573.4211L265.95375,573.90116L266.43381,573.90116L266.43381,574.62123L265.95375,574.62123L265.95375,575.58133
				L265.47369,575.58133L265.47369,576.30141L264.99363,576.30141L264.99363,577.02149L264.7536,577.02149L264.7536,577.98159L264.27354,577.98159
				L264.27354,578.70167L263.79348,578.70167L263.79348,579.66177L263.31342,579.66177L263.31342,580.38185L263.07339,580.38185
				L263.07339,581.34195L262.59332,581.34195L262.59332,582.06203L262.11326,582.06203L262.11326,581.58197L261.39317,581.58197
				L261.39317,581.34195L260.91311,581.34195L260.91311,580.8619L260.19302,580.8619L260.19302,580.38185L259.71296,580.38185L259.71296,580.14182
				L258.75284,580.14182L258.75284,579.66177L258.03275,579.66177L258.03275,579.18172L257.55268,579.18172L257.55268,578.70167
				L256.83259,578.70167L256.83259,578.46164L256.35253,578.46164L256.35253,577.98159L256.83259,577.98159L256.83259,577.50154
				L257.31265,577.50154L257.31265,577.02149L257.55268,577.02149L257.55268,576.78146L258.03275,576.78146L258.03275,575.82136
				L258.51281,575.82136L258.51281,575.10128L258.75284,575.10128L258.75284,574.62123L258.51281,574.62123L258.51281,574.14118
				L258.03275,574.14118L258.03275,573.4211L257.55268,573.4211L257.55268,572.94105L257.31265,572.94105L257.31265,572.461L256.35253,572.461
				L256.35253,572.22098L255.87247,572.22098L255.87247,571.74093L255.15238,571.74093L255.15238,571.26087L254.67232,571.26087
				L254.67232,571.02085L253.95223,571.02085L253.95223,570.5408L252.99211,570.5408L252.99211,570.06075L252.75208,570.06075L252.75208,569.5807
				L252.27201,569.5807L252.27201,569.34067L251.31189,569.34067L251.31189,568.86062L251.07186,568.86062L251.07186,568.38057L
				250.11174,568.38057L250.11174,567.90052L249.63168,567.90052L249.63168,567.66049L249.39165,567.66049L249.39165,567.18044L
				248.91159,567.18044L248.91159,566.46036L248.43153,566.46036L248.43153,565.98031L248.1915,565.98031L248.1915,565.02021L247.71144,565.02021
				L247.71144,564.78018L246.75131,564.78018L246.75131,568.38057L247.23137,568.38057L247.23137,576.30141L246.75131,576.30141
				L246.75131,575.58133L246.51128,575.58133L246.51128,575.10128L246.03122,575.10128L246.03122,574.14118L245.55116,574.14118
				L245.55116,573.4211L245.0711,573.4211L245.0711,572.461L244.83107,572.461L244.83107,571.74093L244.35101,571.74093L244.35101,571.02085
				L243.87095,571.02085L243.87095,570.06075L243.63092,570.06075L243.63092,569.34067L243.15086,569.34067L243.15086,568.38057
				L242.6708,568.38057L242.6708,567.66049L242.19074,567.66049L242.19074,567.18044L241.9507,567.18044L241.9507,566.46036L241.47064,566.46036
				L241.47064,565.50026L240.99058,565.50026L240.99058,564.78018L240.51052,564.78018L240.51052,563.82008L240.27049,563.82008
				L240.27049,563.1L239.79043,563.1L239.79043,562.1399L239.31037,562.1399L239.31037,561.41983L239.07034,561.41983L239.07034,560.45972
				L238.59028,560.45972L238.59028,560.2197L238.11022,560.2197L238.11022,559.2596L237.63016,559.2596L237.63016,558.53952L237.39013,558.53952
				L237.39013,557.57942L236.91007,557.57942L236.91007,556.85934L236.43,556.85934L236.43,555.89924L235.94994,555.89924L235.94994,555.65921
				L235.70991,555.65921L235.70991,554.69911L235.22985,554.69911L235.22985,553.97903L234.74979,553.97903L234.74979,553.01893
				L234.26973,553.01893L234.26973,552.53888L234.0297,552.53888L234.0297,551.8188L233.54964,551.8188L233.54964,551.09873L233.06958,551.09873
				L233.06958,550.13862L232.82955,550.13862L232.82955,549.65857L232.34949,549.65857L232.34949,549.41855L231.86943,549.41855
				L231.86943,548.9385L231.38936,548.9385L231.38936,547.97839L231.14933,547.97839L231.14933,547.73837L230.66927,547.73837L230.66927,546.77827
				L230.18921,546.77827L230.18921,546.05819L229.70915,546.05819L229.70915,545.09809L229.46912,545.09809L229.46912,544.37801
				L228.98906,544.37801L228.98906,543.89796L228.509,543.89796L228.509,543.17788L228.26897,543.17788L228.26897,542.21778L227.78891,542.21778
				L227.78891,541.4977L227.30885,541.4977L227.30885,541.01765L226.82879,541.01765L226.82879,540.29758L226.58876,540.29758L226.58876,539.33747
				L226.10869,539.33747L226.10869,538.85742L225.14857,538.85742L225.14857,539.33747L224.90854,539.33747L224.90854,539.81752
				L223.94842,539.81752L223.94842,540.29758L223.22833,540.29758L223.22833,540.5376L222.74827,540.5376L222.74827,541.01765L222.02818,541.01765
				L222.02818,541.4977L221.06805,541.4977L221.06805,541.97775L220.58799,541.97775L220.58799,542.21778L219.8679,542.21778L219.8679,542.69783
				L219.14781,542.69783L219.14781,543.17788L218.66775,543.17788L218.66775,543.41791L217.70763,543.41791L217.70763,543.89796
				L216.98754,543.89796L216.98754,544.37801L216.50748,544.37801L216.50748,544.85806L215.78738,544.85806L215.78738,545.09809
				L215.30732,545.09809L215.30732,545.57814L214.58723,545.57814L214.58723,546.05819L213.62711,546.05819L213.62711,546.53824
				L213.14705,546.53824L213.14705,546.77827L212.42696,546.77827L212.42696,547.25832L211.46684,547.25832L211.46684,547.73837
				L211.22681,547.73837L211.22681,546.77827L210.74674,546.77827L210.74674,546.53824L210.26668,546.53824L210.26668,546.05819
				L210.02665,546.05819L210.02665,546.53824L209.06653,546.53824L209.06653,546.77827L208.34644,546.77827L208.34644,547.25832
				L207.86638,547.25832L207.86638,547.73837L206.90626,547.73837L206.90626,547.97839L206.18617,547.97839L206.18617,548.45844
				L205.46607,548.45844L205.46607,548.9385L204.98601,548.9385L204.98601,549.41855L204.02589,549.41855L204.02589,549.65857L203.3058,549.65857
				L203.3058,550.13862L202.34568,550.13862L202.34568,550.61867L201.62559,550.61867L201.62559,551.09873L201.14553,551.09873L
				201.14553,551.33875L200.42544,551.33875L200.42544,551.8188L199.46531,551.8188L199.46531,552.29885L198.74522,552.29885L198.74522,552.53888
				L198.26516,552.53888L198.26516,551.8188L197.7851,551.8188L197.7851,551.33875L197.54507,551.33875L197.54507,550.61867L197.06501,550.61867
				L197.06501,550.13862L196.58495,550.13862L196.58495,549.41855L196.34492,549.41855L196.34492,548.9385L195.86486,548.9385L195.86486,548.45844
				L195.3848,548.45844L195.3848,548.9385L194.6647,548.9385L194.6647,549.41855L193.70458,549.41855L193.70458,549.65857L193.22452,549.65857
				L193.22452,550.13862L192.50443,550.13862L192.50443,550.61867L192.02437,550.61867L192.02437,551.09873L191.30428,551.09873
				L191.30428,551.33875L190.82422,551.33875L190.82422,551.8188L190.10413,551.8188L190.10413,552.29885L189.62406,552.29885L189.62406,552.53888
				L188.66394,552.53888L188.66394,553.01893L188.42391,553.01893L188.42391,553.97903L188.66394,553.97903L188.66394,554.69911
				L189.144,554.69911L189.144,555.17916L189.62406,555.17916L189.62406,555.89924L190.10413,555.89924L190.10413,556.37929L190.34416,556.37929
				L190.34416,557.09937L190.82422,557.09937L190.82422,557.57942L191.30428,557.57942L191.30428,558.53952L191.78434,558.53952
				L191.78434,559.2596L192.02437,559.2596L192.02437,559.73965L192.50443,559.73965L192.50443,560.45972L192.98449,560.45972L192.98449,560.93977
				L193.22452,560.93977L193.22452,561.65985L193.70458,561.65985L193.70458,562.1399L194.18464,562.1399L194.18464,563.1L194.6647,563.1
				L194.6647,563.82008L194.90473,563.82008L194.90473,564.30013L194.6647,564.30013L194.6647,564.78018L193.70458,564.78018L193.70458,565.02021
				L193.22452,565.02021L193.22452,565.50026L192.50443,565.50026L192.50443,565.98031L191.78434,565.98031L191.78434,566.46036
				L190.82422,566.46036L190.82422,566.70039L190.10413,566.70039L190.10413,567.18044L189.144,567.18044L189.144,567.66049L188.66394,567.66049
				L188.66394,567.90052L187.94385,567.90052L187.94385,568.38057L186.98373,568.38057L186.98373,568.86062L186.26364,568.86062
				L186.26364,568.38057L185.78358,568.38057L185.78358,567.90052L185.54355,567.90052L185.54355,567.66049L185.06349,567.66049
				L185.06349,566.70039L184.58342,566.70039L184.58342,566.46036L184.10336,566.46036L184.10336,565.50026L183.86333,565.50026
				L183.86333,565.02021L183.38327,565.02021L183.38327,564.30013L182.90321,564.30013L182.90321,563.82008L182.42315,563.82008
				L182.42315,563.1L182.18312,563.1L182.18312,562.61995L181.70306,562.61995L181.70306,561.65985L181.223,561.65985L181.223,561.41983
				L180.98297,561.41983L180.98297,560.45972L180.50291,560.45972L180.50291,560.2197L180.02285,560.2197L180.02285,559.2596L179.54278,559.2596
				L179.54278,558.77954L178.82269,558.77954L178.82269,559.2596L177.86257,559.2596L177.86257,559.73965L176.66242,559.73965L176.66242,560.2197
				L176.42239,560.2197L176.42239,560.45972L175.94233,560.45972L175.94233,560.93977L175.46227,560.93977L175.46227,561.41983L
				174.74218,561.41983L174.74218,561.65985L174.26211,561.65985L174.26211,562.1399L173.78205,562.1399L173.78205,562.61995L173.06196,562.61995
				L173.06196,562.1399L172.10184,562.1399L172.10184,561.65985L171.86181,561.65985L171.86181,561.41983L170.90169,561.41983L170.90169,560.93977
				L170.42163,560.93977L170.42163,561.41983L170.1816,561.41983L170.1816,561.65985L169.70154,561.65985L169.70154,562.1399L169.22148,562.1399
				L169.22148,562.61995L168.74141,562.61995L168.74141,563.1L168.50138,563.1L168.50138,563.34003L168.02132,563.34003L168.02132,563.82008
				L167.30123,563.82008L167.30123,564.30013L166.82117,564.30013L166.82117,564.78018L166.34111,564.78018L166.34111,565.02021
				L165.86105,565.02021L165.86105,565.50026L165.62102,565.50026L165.62102,565.98031L164.6609,565.98031L164.6609,566.46036L163.94081,566.46036
				L163.94081,566.70039L162.74065,566.70039L162.74065,567.18044L161.78053,567.18044L161.78053,567.66049L160.58038,567.66049
				L160.58038,567.90052L159.62026,567.90052L159.62026,568.38057L158.4201,568.38057L158.4201,568.86062L157.70001,568.86062L157.70001,569.34067
				L156.49986,569.34067L156.49986,569.5807L155.53974,569.5807L155.53974,570.06075L154.33959,570.06075L154.33959,570.5408L153.13943,570.5408
				L153.13943,571.02085L151.93928,571.02085L151.93928,571.26087L150.4991,571.26087L150.4991,571.74093L149.29895,571.74093L149.29895,572.22098
				L148.57886,572.22098L148.57886,572.94105L149.05892,572.94105L149.05892,574.14118L149.29895,574.14118L149.29895,575.58133
				L149.77901,575.58133L149.77901,576.78146L150.25907,576.78146L150.25907,577.98159L150.4991,577.98159L150.4991,578.70167L150.97916,578.70167
				L150.97916,580.14182L151.45922,580.14182L151.45922,581.34195L151.93928,581.34195L151.93928,582.54208L152.17931,582.54208
				L152.17931,583.7422L152.65937,583.7422L152.65937,584.94233L153.13943,584.94233L153.13943,586.14246L153.6195,586.14246L153.6195,586.62251
				L153.13943,586.62251L153.13943,587.10256L152.65937,587.10256L152.65937,587.58261L151.93928,587.58261L151.93928,587.82264
				L150.4991,587.82264L150.4991,588.30269L149.29895,588.30269L149.29895,588.78274L149.05892,588.78274L149.05892,589.50282L149.29895,589.50282
				L149.29895,590.70295L148.57886,590.70295L148.57886,591.183L147.61873,591.183L147.61873,591.66305L146.41858,591.66305L146.41858,592.1431
				L145.69849,592.1431L145.69849,592.38313L144.49834,592.38313L144.49834,592.86318L143.05815,592.86318L143.05815,593.34323L
				142.33806,593.34323L142.33806,593.82328L141.13791,593.82328L141.13791,594.0633L140.17779,594.0633L140.17779,594.54336L138.97764,594.54336
				L138.97764,595.02341L138.49758,595.02341L138.49758,594.0633L138.25755,594.0633L138.25755,593.34323L137.77748,593.34323L137.77748,592.86318
				L137.29742,592.86318L137.29742,592.1431L136.81736,592.1431L136.81736,591.183L136.57733,591.183L136.57733,590.46292L136.09727,590.46292
				L136.09727,589.98287L135.61721,589.98287L135.61721,589.26279L135.13715,589.26279L135.13715,588.30269L134.89712,588.30269
				L134.89712,587.58261L134.41706,587.58261L134.41706,586.62251L133.937,586.62251L133.937,585.90243L133.69697,585.90243L133.69697,585.42238
				L133.21691,585.42238L133.21691,584.70231L132.73685,584.70231L132.73685,583.7422L132.25678,583.7422L132.25678,583.02213L132.01675,583.02213
				L132.01675,582.06203L131.53669,582.06203L131.53669,581.34195L131.05663,581.34195L131.05663,580.38185L130.57657,580.38185
				L130.57657,580.14182L130.33654,580.14182L130.33654,579.66177L129.37642,579.66177L129.37642,580.14182L128.17627,580.14182
				L128.17627,580.38185L127.45618,580.38185L127.45618,580.8619L126.01599,580.8619L126.01599,581.34195L125.2959,581.34195L125.2959,582.06203
				L125.77596,582.06203L125.77596,583.26215L126.01599,583.26215L126.01599,584.22226L126.49605,584.22226L126.49605,585.42238
				L126.97611,585.42238L126.97611,586.62251L127.45618,586.62251L127.45618,587.58261L127.69621,587.58261L127.69621,588.78274
				L128.17627,588.78274L128.17627,589.50282L128.65633,589.50282L128.65633,590.70295L129.13639,590.70295L129.13639,591.66305
				L128.17627,591.66305L128.17627,592.1431L126.97611,592.1431L126.97611,592.38313L125.77596,592.38313L125.77596,592.86318L124.09575,592.86318
				L124.09575,593.34323L122.8956,593.34323L122.8956,593.82328L121.45541,593.82328L121.45541,594.0633L120.25526,594.0633L120.25526,594.54336
				"/>
			<path clip-path="url(#SVG_CP_2)" fill="none" stroke="#999999" stroke-width="0.96012" stroke-miterlimit="10" stroke-linecap="round" stroke-linejoin="round" d="
				M120.25526,594.54336L119.05511,594.54336L119.05511,592.86318L118.57505,592.86318L118.57505,590.70295L118.33502,590.70295
				L118.33502,590.46292L117.3749,590.46292L117.3749,590.70295L115.69468,590.70295L115.69468,591.183L113.77444,591.183L113.77444,591.66305
				L112.09423,591.66305L112.09423,592.1431L109.93395,592.1431L109.93395,592.38313L108.25374,592.38313L108.25374,592.1431L107.77368,592.1431
				L107.77368,590.70295L107.53365,590.70295L107.53365,589.50282L107.05359,589.50282L107.05359,588.30269L106.57352,588.30269
				L106.57352,586.62251L106.33349,586.62251L106.33349,585.42238L105.85343,585.42238L105.85343,584.22226L105.37337,584.22226
				L105.37337,582.54208L104.89331,582.54208L104.89331,581.58197L99.13258,581.58197L99.13258,582.06203L97.21234,582.06203L97.21234,582.54208
				L95.77215,582.54208L95.77215,583.02213L94.09194,583.02213L94.09194,583.26215L92.89179,583.26215L92.89179,583.7422L91.69164,583.7422
				L91.69164,584.22226L90.49148,584.22226L90.49148,584.70231L89.53136,584.70231L89.53136,584.94233L88.33121,584.94233L88.33121,585.42238
				L87.13106,585.42238L87.13106,585.90243L86.41097,585.90243L86.41097,586.14246L84.97078,586.14246L84.97078,586.62251L83.77063,586.62251
				L83.77063,587.10256L82.57048,587.10256L82.57048,587.58261L81.37033,587.58261L81.37033,587.82264L80.17017,587.82264L80.17017,588.30269
				L79.21005,588.30269L79.21005,588.78274L78.0099,588.78274L78.0099,589.26279L76.80975,589.26279L76.80975,589.50282L75.6096,589.50282
				L75.6096,588.78274L75.84963,588.78274L75.84963,587.82264L76.32969,587.82264L76.32969,587.10256L76.80975,587.10256L76.80975,585.90243
				L77.28981,585.90243L77.28981,584.94233L77.52984,584.94233L77.52984,584.22226L78.0099,584.22226L78.0099,583.02213L78.48996,583.02213
				L78.48996,582.06203L78.72999,582.06203L78.72999,581.34195L79.21005,581.34195L79.21005,580.14182L79.69011,580.14182L79.69011,579.18172
				L80.17017,579.18172L80.17017,578.70167L80.4102,578.70167L80.4102,577.98159L80.89027,577.98159L80.89027,577.02149L81.37033,577.02149
				L81.37033,576.78146L80.89027,576.78146L80.89027,575.82136L81.37033,575.82136L81.37033,572.461L81.85039,572.461L81.85039,570.06075
				L82.09042,570.06075L82.09042,568.86062L82.57048,568.86062L82.57048,567.90052L83.05054,567.90052L83.05054,566.46036L83.29057,566.46036
				L83.29057,565.02021L83.77063,565.02021L83.77063,564.30013L84.25069,564.30013L84.25069,563.1L84.73075,563.1L84.73075,562.1399
				L84.97078,562.1399L84.97078,560.45972L85.45084,560.45972L85.45084,558.77954L85.93091,558.77954L85.93091,557.09937L86.41097,557.09937
				L86.41097,555.65921L86.651,555.65921L86.651,551.09873L86.41097,551.09873L86.41097,548.45844L85.93091,548.45844L85.93091,546.53824
				L85.45084,546.53824L85.45084,543.41791L85.93091,543.41791L85.93091,541.97775L86.41097,541.97775L86.41097,541.01765L86.651,541.01765
				L86.651,540.29758L87.13106,540.29758L87.13106,535.97711L87.61112,535.97711L87.61112,534.05691L87.85115,534.05691L87.85115,532.37673
				L88.33121,532.37673L88.33121,531.41663L88.81127,531.41663L88.81127,530.2165L89.29133,530.2165L89.29133,529.49642L89.53136,529.49642
				L89.53136,528.53632L90.01142,528.53632L90.01142,527.33619L90.49148,527.33619L90.49148,523.97584L90.01142,523.97584L90.01142,522.29566
				L89.53136,522.29566L89.53136,521.09553L89.29133,521.09553L89.29133,520.61548L88.81127,520.61548L88.81127,520.37545L88.33121,520.37545
				L88.33121,519.41535L87.85115,519.41535L87.85115,518.21522L87.61112,518.21522L87.61112,517.73517L87.13106,517.73517L87.13106,517.01509
				L86.651,517.01509L86.651,482.21139L87.13106,482.21139L87.13106,480.53121L87.61112,480.53121L87.61112,470.93018L87.85115,470.93018
				L87.85115,469.25L88.33121,469.25L88.33121,468.76995L88.81127,468.76995L88.81127,467.56983L89.29133,467.56983L89.29133,467.3298
				L89.53136,467.3298L89.53136,466.84975L90.01142,466.84975L90.01142,466.3697L90.49148,466.3697L90.49148,465.88965L90.97155,465.88965
				L90.97155,465.64962L91.21158,465.64962L91.21158,465.16957L90.97155,465.16957L90.97155,463.00934L90.49148,463.00934L90.49148,461.80921
				L90.01142,461.80921L90.01142,461.08913L89.53136,461.08913L89.53136,459.64898L89.29133,459.64898L89.29133,458.9289L88.81127,458.9289
				L88.81127,451.48811L89.29133,451.48811L89.29133,449.80793L89.53136,449.80793L89.53136,448.6078L89.29133,448.6078L89.29133,447.6477
				L89.53136,447.6477L89.53136,442.84719L90.01142,442.84719L90.01142,441.40704L90.49148,441.40704L90.49148,439.72686L90.97155,439.72686
				L90.97155,439.00678L91.21158,439.00678L91.21158,437.3266L91.69164,437.3266L91.69164,435.64642L92.1717,435.64642L92.1717,433.24617
				L92.65176,433.24617L92.65176,431.08594L92.89179,431.08594L92.89179,424.60525L93.37185,424.60525L93.37185,419.56471L92.89179,419.56471
				L92.89179,419.08466L93.37185,419.08466L93.37185,412.84399L92.89179,412.84399L92.89179,412.12392L92.65176,412.12392L92.65176,410.44374
				L92.1717,410.44374L92.1717,408.28351L91.69164,408.28351L91.69164,407.80346L90.97155,407.80346L90.97155,407.56343L90.49148,407.56343
				L90.49148,407.08338L90.01142,407.08338L90.01142,406.60333L89.29133,406.60333L89.29133,406.12328L88.33121,406.12328L88.33121,405.88325
				L87.85115,405.88325L87.85115,405.4032L87.13106,405.4032L87.13106,404.92315L86.651,404.92315L86.651,404.68312L85.93091,404.68312
				L85.93091,404.20307L84.97078,404.20307L84.97078,403.72302L84.25069,403.72302L84.25069,403.24297L83.29057,403.24297L83.29057,403.00294
				L82.57048,403.00294L82.57048,402.52289L81.85039,402.52289L81.85039,402.04284L80.89027,402.04284L80.89027,401.56279"/>
		</g>
</g></svg>