<?xml version="1.0" encoding="utf-8" standalone="no"?>
<!-- Creator: ESRI ArcMap 10.0.0.2414 -->
<!DOCTYPE svg PUBLIC "-//W3C//DTD SVG 1.1//EN"  "http://www.w3.org/Graphics/SVG/1.1/DTD/svg11.dtd">
<svg width="595.50236pt" height="595.50236pt" viewBox="25 148.377955 545.50236 545.50236" enable-background="new 25 148.377955 545.50236 545.50236"
	version="1.1" xmlns="http://www.w3.org/2000/svg" xmlns:xlink="http://www.w3.org/1999/xlink" >
	<g id="Couches">
		<g id="reservoirs">
			<path clip-path="url(#SVG_CP_2)" fill-opacity="0.2" fill="#07866D" fill-rule="evenodd" stroke="none" stroke-width="" stra="1.44018" stroke-miterlimit="10" stroke-linecap="round" stroke-linejoin="round" d="
				M601.9964,422.68504L601.51633,422.68504L600.07615,423.16509L598.876,423.64514L597.67585,424.36522L595.99563,425.56535L595.27554,426.0454
				L593.11527,427.24553L586.15439,432.04604L581.83384,435.64642L578.95347,437.80665L572.71268,442.60717L571.51253,443.32724
				L562.6314,449.08786L559.03094,451.48811L557.59076,452.44821L554.23033,453.64834L552.31009,454.60844L549.42972,455.80857L
				542.46884,458.20883L539.82851,453.16829L535.0279,439.48683L530.94738,428.92571L528.78711,429.88581L529.74723,431.08594L534.06778,443.08722
				L539.58848,457.48875L540.06854,458.68888L539.82851,459.16893L537.18817,460.12903L532.14753,462.04924L530.70735,459.88901
				L530.46732,458.9289L528.30704,451.96816L527.58695,449.08786L526.86686,445.7275L526.86686,445.24745L526.14677,443.08722L525.18665,439.72686
				L524.94662,438.52673L524.70659,437.80665L523.50643,433.00614L523.50643,432.04604L525.42668,431.56599L527.10689,431.08594
				L528.30704,430.12584L525.90674,431.08594L525.90674,430.84591L524.94662,431.08594L523.74647,431.08594L523.50643,431.08594
				L523.2664,431.08594L523.2664,430.84591L522.54631,430.36586L521.82622,429.64578L521.58619,429.64578L521.58619,429.40576L521.34616,429.40576
				L520.38604,426.76548L519.42592,425.0853L518.70583,424.36522L517.7457,423.64514L515.3454,423.40512L512.70506,422.92507L512.46503,422.92507
				L512.225,422.68504L510.30476,421.96497L507.90446,421.72494L506.22424,421.48491L505.26412,422.44502L504.78406,423.40512L505.02409,424.60525
				L505.26412,424.84527L506.7043,426.28543L506.7043,426.52545L506.94433,426.52545L507.42439,427.48555L507.90446,428.20563L507.90446,428.44566
				L508.14449,428.68568L508.38452,430.12584L508.38452,430.36586L507.90446,433.00614L506.7043,438.04668L506.7043,438.2867L506.46427,438.2867
				L505.74418,439.72686L505.02409,440.68696L502.14372,445.24745L502.38375,445.24745L502.38375,445.7275L502.86382,447.40768L
				502.86382,447.88773L502.86382,448.12775L502.86382,448.6078L502.86382,449.80793L502.86382,450.04796L502.38375,452.68824L502.62378,454.12839
				L502.86382,457.48875L503.34388,458.20883L504.06397,458.68888L505.02409,459.16893L508.62455,461.32916L508.62455,461.56919
				L508.86458,461.56919L510.06473,462.76931L510.30476,463.00934L510.78482,463.48939L512.225,465.40959L512.225,465.64962L513.18513,467.80985
				L513.42516,468.2899L513.18513,468.52993L513.18513,468.76995L511.98497,470.45013L511.50491,471.17021L511.26488,471.41023L
				511.02485,471.65026L507.66442,472.85039L505.98421,473.81049L505.74418,473.81049L505.50415,473.81049L502.86382,474.05052L
				502.14372,474.05052L501.90369,474.05052L498.30324,473.09041L498.06321,473.09041L498.06321,472.85039L495.90293,472.37034L
				494.94281,472.37034L493.74266,472.61036L493.02257,472.61036L491.10232,474.29054L489.90217,475.49067L489.66214,475.49067L
				488.94205,475.97072L483.90141,479.33108L479.58086,481.97136L479.34083,481.97136L479.34083,482.21139L474.54022,484.13159L
				464.69897,488.9321L463.73885,489.65218L461.81861,493.97264L461.57858,494.21266L461.57858,494.45269L461.33855,494.45269L459.4183,496.13287
				L459.17827,496.13287L458.93824,496.61292L451.73733,502.61356L451.4973,502.61356L451.4973,502.85359L449.57705,503.81369L448.13687,504.53376
				L442.8562,506.69399L441.65605,507.41407L437.09547,510.05435L436.85544,510.05435L434.2151,511.01445L433.97507,511.01445L433.73504,511.01445
				L429.41449,510.77443L427.49425,510.5344L425.57401,511.97456L424.85392,512.93466L424.61389,513.65474L424.61389,516.53504L
				424.37385,523.01573L424.13382,523.25576L423.1737,526.37609L422.45361,528.05627L422.21358,528.2963L422.21358,528.53632L421.97355,528.53632
				L421.01343,529.2564L420.29334,529.73645L420.05331,529.73645L419.81328,529.73645L419.57325,529.73645L418.13306,529.49642L
				417.89303,529.49642L417.89303,529.2564L417.653,529.2564L415.97279,527.57622L415.49273,527.09617L415.49273,526.85614L410.93215,518.9353
				L408.29181,514.61484L406.85163,513.65474L405.41145,514.13479L404.93139,516.05499L404.45133,517.73517L404.2113,518.69527L
				404.2113,518.9353L403.97127,519.17532L401.57096,522.05563L393.64996,530.69655L390.0495,536.93722L389.08938,540.77763L388.84935,541.01765
				L388.84935,541.25768L387.40916,542.69783L386.9291,543.41791L386.68907,543.41791L386.44904,543.41791L386.44904,543.65793L
				386.20901,543.65793L360.04569,542.93786L358.84554,543.89796L358.84554,544.61804L358.60551,545.33811L358.84554,549.8986L358.84554,550.13862
				L358.60551,554.45908L358.60551,554.69911L358.12545,556.61931L357.16533,559.73965L357.16533,559.97967L356.44523,561.1798L
				355.48511,562.85998L355.24508,563.1L352.84478,565.74029L352.60475,565.98031L352.36472,565.98031L352.36472,566.22034L352.12469,566.22034
				L351.88466,566.22034L351.88466,565.98031L346.84402,564.06011L346.60399,564.06011L343.00353,560.93977L339.6431,557.81944L
				330.04188,551.09873L328.12164,549.8986L327.88161,549.65857L327.64158,549.41855L326.68146,547.01829L326.68146,546.77827L326.68146,546.53824
				L326.68146,546.29821L327.64158,542.93786L327.64158,542.69783L327.64158,542.45781L327.88161,542.45781L333.64234,535.73709
				L334.1224,535.49706L335.56258,533.57686L336.76274,532.37673L340.84325,526.85614L342.28344,524.21586L343.24356,522.53568L
				344.68374,520.13543L345.40383,518.9353L345.64386,518.9353L347.08405,517.01509L349.72438,514.85486L354.04493,511.73453L354.28496,510.77443
				L353.08481,509.33428L349.24432,505.97392L343.24356,501.41343L340.36319,499.73325L340.12316,499.73325L340.12316,499.49323
				L339.88313,499.49323L338.44295,497.57302L338.44295,497.333L338.20292,497.09297L338.20292,496.13287L338.20292,495.65282L338.20292,495.41279
				L338.20292,495.17277L338.44295,495.17277L338.92301,494.21266L339.88313,493.01254L341.08328,490.13223L341.80338,487.49195
				L341.80338,486.53185L342.04341,485.33172L341.80338,484.85167L340.36319,481.25128L337.48283,475.49067L336.28268,473.57046
				L334.60246,471.41023L331.24204,468.76995L330.04188,468.52993L328.12164,468.2899L326.92149,469.00998L325.24127,469.97008L
				320.20063,473.57046L317.08024,475.97072L314.91996,477.6509L314.67993,477.6509L309.63929,479.5711L307.47902,481.73133L304.83869,485.57174
				L304.83869,485.81177L304.59865,485.81177L302.19835,487.972L301.95832,488.21202L298.11783,490.37225L297.63777,490.61228L297.39774,490.61228
				L295.71753,490.85231L294.27735,491.33236L294.03731,491.33236L293.79728,491.33236L293.55725,491.33236L291.15695,490.13223
				L289.71677,489.65218L288.51661,488.9321L288.27658,488.9321L288.27658,488.69208L288.03655,488.69208L287.07643,487.25192L287.07643,487.0119
				L286.8364,485.81177L286.59637,484.37162L286.35634,481.01126L286.11631,479.33108L286.11631,475.73069L286.11631,475.25064L
				286.35634,473.57046L286.35634,473.33044L286.8364,472.61036L287.79652,470.45013L288.75664,468.52993L288.75664,468.2899L288.51661,466.60972
				L288.51661,465.88965L287.07643,463.96944L285.15619,462.76931L283.716,462.52929L279.39546,462.52929L277.95527,462.04924L276.99515,461.80921
				L276.75512,461.80921L276.75512,461.56919L276.51509,461.56919L275.31494,460.36906L267.39393,452.92826L266.43381,452.44821
				L265.47369,452.92826L263.79348,453.64834L261.87323,454.60844L260.19302,456.0486L259.95299,456.52865L259.47293,457.48875L
				258.27278,460.84911L257.55268,462.76931L257.55268,463.00934L257.31265,463.00934L256.35253,463.96944L256.1125,463.96944L256.1125,464.20947
				L255.87247,464.20947L254.43229,464.20947L253.47217,464.44949L251.79195,464.44949L250.35177,464.44949L250.11174,464.44949
				L249.87171,464.44949L249.87171,464.20947L249.15162,463.72942L247.95147,463.00934L245.31113,461.08913L240.75055,460.12903
				L236.91007,460.12903L235.94994,460.12903L232.82955,460.36906L232.58952,460.36906L229.70915,459.64898L229.46912,459.40896
				L229.22909,459.16893L228.98906,459.16893L227.06882,457.24873L227.06882,457.0087L226.82879,456.76867L226.58876,456.0486L226.34872,455.0885
				L226.34872,454.84847L225.62863,441.64706L225.86866,438.52673L225.86866,438.2867L225.86866,438.04668L226.58876,437.08658L
				226.58876,436.84655L226.82879,436.60653L230.18921,434.4463L230.66927,433.96624L231.38936,433.48619L233.30961,432.52609L233.78967,432.28607
				L235.22985,431.80601L235.94994,431.56599L237.87019,430.84591L240.27049,428.44566L241.47064,425.56535L241.47064,424.60525
				L241.71067,423.16509L240.75055,420.04476L239.5504,418.12456L239.07034,416.92443L237.87019,415.00422L236.91007,413.8041L236.18997,413.08402
				L234.50976,411.16381L234.26973,411.16381L231.86943,409.72366L231.62939,409.48364L231.62939,409.00358L231.62939,408.76356
				L231.62939,408.52353L231.86943,408.28351L232.34949,408.28351L232.58952,408.28351L232.82955,408.28351L235.46988,409.96369
				L235.70991,409.96369L238.11022,412.60397L238.35025,412.60397L238.35025,412.84399L240.27049,415.7243L240.51052,415.96433L
				240.51052,416.20435L241.71067,418.36458L242.19074,419.32468L243.15086,421.72494L243.39089,422.68504L243.39089,422.92507L
				243.39089,423.16509L243.39089,424.36522L243.15086,426.0454L243.15086,426.28543L241.9507,428.44566L241.71067,429.40576L241.47064,429.64578
				L240.51052,430.60589L239.07034,432.28607L238.83031,432.28607L238.59028,432.52609L235.94994,433.48619L234.50976,433.96624
				L234.0297,434.20627L232.82955,434.68632L232.10946,435.16637L231.14933,435.64642L231.14933,435.88645L228.74903,437.3266L228.02894,438.04668
				L227.54888,438.76676L227.54888,441.64706L227.78891,449.80793L228.02894,454.60844L228.509,456.0486L230.18921,457.9688L232.82955,458.68888
				L236.91007,458.44885L240.75055,458.44885L240.99058,458.44885L244.59104,459.16893L245.79119,459.40896L246.03122,459.64898
				L246.27125,459.64898L246.99134,460.12903L248.91159,461.56919L249.15162,461.56919L250.35177,462.52929L250.5918,462.76931L
				253.47217,462.76931L255.39241,462.52929L255.87247,462.04924L256.59256,460.36906L257.55268,457.48875L257.79272,456.76867L
				257.79272,456.52865L258.99287,455.0885L258.99287,454.84847L259.47293,454.60844L260.67308,453.16829L260.91311,453.16829L264.99363,451.24809
				L266.19378,450.76803L266.43381,450.76803L266.67384,450.76803L266.91387,450.76803L266.91387,451.00806L268.35406,451.48811
				L268.59409,451.72814L277.71524,460.12903L279.63549,460.84911L283.716,460.84911L283.95604,460.84911L285.39622,461.08913L285.63625,461.32916
				L285.87628,461.32916L288.27658,462.52929L288.27658,462.76931L288.51661,462.76931L288.51661,463.00934L289.47674,464.20947
				L290.19683,465.16957L290.19683,465.40959L290.67689,468.2899L290.67689,468.52993L290.67689,468.76995L289.23671,471.17021L
				288.03655,473.81049L287.79652,475.97072L287.79652,477.17085L287.79652,479.09105L288.03655,481.49131L288.27658,484.13159L
				288.75664,486.53185L288.99668,486.77187L289.47674,487.49195L291.63701,488.69208L294.03731,489.65218L296.91768,488.9321L300.9982,486.77187
				L302.19835,485.57174L303.3985,484.61164L303.87856,483.89156L306.03884,480.77123L306.03884,480.53121L306.99896,479.5711L308.43914,478.37098
				L308.67917,478.13095L313.95984,476.21075L316.12012,474.53057L317.32027,473.57046L324.04112,468.52993L324.28115,468.52993
				L324.28115,468.2899L327.64158,466.84975L327.64158,466.60972L327.88161,466.60972L328.12164,466.60972L330.52194,466.84975L
				331.48207,467.08977L331.96213,467.3298L335.80261,469.97008L335.80261,470.21011L336.04265,470.21011L337.00277,471.89029L338.92301,474.53057
				L338.92301,474.77059L340.36319,477.6509L341.80338,480.53121L342.04341,480.53121L342.7635,482.45141L343.72362,484.85167L343.72362,485.09169
				L343.72362,485.33172L343.48359,487.73197L343.48359,487.972L342.7635,490.61228L342.52347,491.09233L341.32332,493.73261L341.32332,493.97264
				L339.88313,495.89284L340.12316,496.85295L341.32332,498.2931L344.20368,499.97328L344.44371,499.97328L347.32408,502.13351L
				350.20444,504.53376L350.6845,505.01382L354.28496,508.13415L354.52499,508.13415L354.76502,508.6142L355.96517,510.05435L356.2052,510.29438
				L356.2052,510.5344L356.2052,510.77443L355.72514,512.45461L355.48511,512.45461L355.48511,512.69463L355.48511,512.93466L355.24508,512.93466
				L351.16456,515.81497L350.6845,516.05499L350.44447,516.29502L348.2842,518.21522L347.08405,519.8954L344.68374,523.25576L343.96365,524.93594
				L342.28344,527.81625L338.20292,533.33683L338.20292,533.57686L335.32255,536.69719L329.08176,543.41791L328.84173,545.09809
				L328.36167,546.53824L329.32179,548.69847L340.84325,556.37929L347.56411,562.61995L351.88466,564.30013L353.8049,562.1399L355.48511,559.01957
				L356.9253,554.45908L357.16533,550.13862L356.9253,545.33811L356.9253,545.09809L357.16533,543.17788L357.40536,543.17788L357.40536,542.93786
				L357.64539,542.69783L358.60551,541.73773L359.3256,541.25768L359.56563,541.25768L359.56563,541.01765L359.80566,541.25768L
				359.80566,541.01765L385.72895,541.97775L386.9291,540.5376L387.40916,540.05755L388.60932,536.45717L388.60932,536.21714L390.0495,533.33683
				L392.20977,529.73645L392.20977,529.49642L397.9705,523.49578L400.37081,520.8555L402.53108,518.21522L403.25117,515.57494L403.4912,514.37481
				L403.73124,513.41471L403.97127,513.17468L403.97127,512.93466L404.2113,512.93466L404.45133,512.69463L406.6116,511.97456L406.85163,511.97456
				L407.09166,511.97456L407.33169,511.97456L409.25194,513.17468L409.49197,513.17468L409.49197,513.41471L409.732,513.41471L411.65224,517.25512
				L416.21282,524.93594L416.93291,525.89604L418.61312,527.81625L419.57325,528.05627L420.7734,527.09617L422.45361,522.77571L
				422.69364,516.53504L422.69364,515.33492L422.69364,513.41471L422.93367,512.93466L423.41373,511.97456L424.13382,511.01445L
				424.13382,510.77443L424.37385,510.77443L426.2941,509.33428L426.53413,509.09425L426.77416,509.09425L426.77416,508.85422L427.01419,508.85422
				L427.25422,508.85422L433.73504,509.33428L436.37538,508.6142L442.13611,505.25384L446.93672,503.09361L447.41678,503.09361L
				450.53717,501.41343L457.97812,494.93274L460.13839,493.25256L461.33855,490.61228L462.05864,488.69208L462.29867,488.69208L
				462.29867,488.45205L462.5387,488.45205L463.25879,487.972L463.97888,487.49195L465.41906,486.77187L473.82013,482.69144L478.62074,480.53121
				L482.94129,477.89092L488.70202,474.29054L491.82241,471.41023L492.06244,471.17021L492.30248,471.17021L492.54251,470.93018
				L494.46275,470.69016L494.70278,470.69016L495.6629,470.69016L496.14296,470.69016L496.38299,470.69016L498.06321,471.17021L
				498.30324,471.17021L502.14372,472.37034L502.86382,472.13031L505.26412,472.13031L506.94433,471.41023L507.18436,471.41023L
				510.30476,469.97008L511.50491,468.04988L510.54479,466.3697L508.86458,464.20947L507.66442,462.76931L504.06397,460.84911L504.06397,460.60908
				L503.82394,460.60908L502.38375,459.40896L502.14372,459.40896L501.42363,458.9289L501.42363,458.68888L501.1836,458.44885L500.94357,457.72878
				L500.94357,457.48875L500.94357,457.24873L500.70354,454.84847L500.70354,452.68824L500.70354,452.44821L501.1836,449.80793L
				501.1836,448.12775L500.94357,446.92763L500.70354,445.96752L500.46351,445.24745L500.46351,445.00742L500.46351,444.7674L500.46351,444.52737
				L502.14372,442.12711L503.58391,439.72686L504.54403,438.2867L505.02409,437.56663L505.74418,434.20627L506.22424,432.52609L
				506.7043,430.36586L506.46427,429.64578L506.46427,428.92571L505.50415,427.48555L504.78406,427.0055L503.58391,425.56535L503.34388,425.32532
				L503.10385,423.64514L503.10385,423.40512L503.10385,423.16509L503.58391,421.72494L503.58391,421.48491L503.82394,421.48491
				L503.82394,421.24489L505.50415,420.04476L505.74418,420.04476L505.74418,419.80474L505.98421,419.80474L508.14449,419.80474
				L510.54479,420.28479L510.78482,420.28479L512.46503,421.00486L512.94509,421.24489L515.58543,421.72494L517.02561,421.72494
				L517.98573,421.96497L518.22576,421.96497L518.4658,421.96497L519.42592,422.68504L519.66595,422.92507L520.8661,423.88517L520.8661,424.1252
				L521.10613,424.60525L521.82622,426.0454L523.02637,428.44566L524.22653,429.40576L525.18665,429.16573L526.62683,427.9656L529.98726,425.0853
				L529.98726,421.72494L529.98726,421.48491L529.98726,419.80474L529.74723,414.52417L530.46732,410.92379L530.46732,410.68376
				L531.66747,409.00358L533.82774,406.12328L533.82774,405.88325L534.06778,405.88325L537.66823,403.24297L537.66823,403.00294
				L539.82851,402.28287L542.9489,400.84271L543.42896,400.84271L543.66899,400.84271L543.66899,401.08274L544.62912,401.56279L
				545.34921,402.28287L550.38985,405.4032L554.95043,404.20307L556.39061,403.483L558.55088,402.52289L558.55088,402.28287L558.79091,402.28287
				L559.75103,402.04284L563.35149,401.08274L563.59152,401.08274L565.27174,400.84271L569.35225,400.60269L571.03247,399.88261
				L571.75256,399.64259L572.71268,398.20243L573.19274,397.48236L573.91283,396.28223L573.91283,396.0422L574.15286,396.0422L574.63292,395.32213
				L575.35301,394.60205L575.59304,394.60205L577.03323,393.88197L577.51329,393.64195L578.71344,392.92187L579.43353,392.44182
				L580.39365,391.24169L582.07387,387.40128L582.79396,385.96113L582.79396,384.761L582.55393,384.761L582.3139,382.8408L582.3139,382.60077
				L582.55393,382.60077L582.55393,382.36075L582.55393,382.12072L582.79396,381.64067L583.03399,381.40064L583.27402,381.16062
				L585.43429,379.72046L585.67432,379.48044L588.31466,378.28031L588.31466,378.04028L588.55469,378.04028L588.79472,378.04028
				L589.03475,378.04028L589.75484,378.52034L589.99487,378.52034L591.67509,379.72046L592.15515,380.20051L593.3553,380.20051L
				593.59533,379.24041L594.07539,373.23977L589.75484,373.95985L589.03475,366.99911L588.07463,359.07826L588.55469,358.11816L
				592.15515,354.99783L595.99563,351.63747L599.59609,348.27711L599.83612,342.5165L600.07615,340.11624L601.03627,338.19604L601.75637,337.23594
				L601.9964,336.99591L601.9964,422.68504z"/>
			<path clip-path="url(#SVG_CP_2)" fill-opacity="0.2" fill="#07866D" fill-rule="evenodd" stroke="none" stroke-width="" stra="1.44018" stroke-miterlimit="10" stroke-linecap="round" stroke-linejoin="round" d="
				M-6.24079,25.92276L-6.00076,26.40281L-5.28067,25.92276L-5.76073,25.20269L-5.04064,24.72263L-3.84049,25.92276L-3.36043,26.40281
				L-2.40031,26.40281L-0.96012,27.36292L0.72009,28.08299L1.68021,28.80307L2.40031,29.52315L2.40031,29.76317L2.40031,30.0032
				L1.68021,30.24322L-0.96012,30.72327L-5.28067,32.16343L-6.24079,32.40345L-6.24079,25.92276zM-6.24079,40.3243L-2.88037,39.12417
				L-2.40031,41.04437L-2.40031,42.48453L-1.92024,43.2046L-1.68021,46.32494L-1.44018,49.44527L-1.20015,52.08555L-1.44018,52.80563
				L-0.96012,53.28568L-0.48006,57.12609L-0.96012,58.32622L0,59.04629L0.72009,59.04629L1.68021,59.76637L1.92024,60.9665L1.68021,61.9266
				L0.96012,62.40665L-0.96012,62.64668L-0.96012,63.60678L-0.48006,68.64732L0.48006,68.40729L2.64034,68.16726L3.1204,71.04757
				L5.76073,70.80755L8.6411,70.56752L8.40107,67.68721L13.68174,67.20716L14.1618,67.68721L14.40183,67.68721L16.08204,70.56752
				L16.80213,71.04757L17.76225,71.52762L19.20244,72.00767L21.12268,72.96778L22.80289,74.1679L24.72314,75.60806L30.96393,81.84872
				L32.88417,83.76893L34.32436,86.16918L34.32436,87.60934L34.32436,88.32941L34.56439,90.24962L35.52451,91.44975L36.2446,92.40985
				L35.04445,93.12992L35.52451,94.33005L37.92481,93.12992L41.52527,97.69041L42.24536,97.21036L44.8857,100.33069L46.08585,102.49092
				L46.80594,102.01087L50.4064,100.09067L53.28676,107.29143L54.00685,108.73159L54.48692,109.45166L55.20701,109.45166L55.20701,110.65179
				L54.96698,110.65179L54.96698,110.89182L55.9271,111.13184L56.40716,111.61189L58.08737,111.85192L62.88798,113.29207L63.8481,113.29207
				L67.20853,110.89182L71.04902,107.77148L71.76911,108.73159L77.28981,114.73223L78.72999,116.41241L82.09042,120.73287L85.93091,125.05333
				L88.33121,127.45358L90.25145,129.37379L93.13182,128.89374L95.05206,128.41368L98.41249,127.69361L99.13258,127.69361L101.29285,129.13376
				L102.49301,130.09386L103.2131,130.57391L104.17322,133.2142L104.65328,133.93427L104.89331,134.89437L106.09346,137.53466L106.33349,138.73478
				L106.33349,141.61509L104.17322,142.33517L104.65328,144.01535L104.89331,144.73542L108.01371,143.05524L109.69392,142.57519
				L111.37413,142.33517L111.8542,143.05524L112.33426,143.77532L112.33426,144.4954L111.8542,146.89565L112.81432,147.13568L113.29438,145.21547
				L113.77444,142.81522L114.49453,142.81522L114.97459,142.81522L114.97459,142.57519L115.69468,142.81522L116.41477,142.33517
				L117.85496,141.37507L121.69544,139.93491L125.77596,138.49476L129.61645,137.53466L131.53669,136.81458L132.49681,136.33453
				L136.3373,134.1743L140.17779,132.49412L143.77825,131.29399L146.65861,129.85384L149.29895,128.89374L149.53898,128.65371L150.25907,128.41368
				L149.77901,127.21356L149.53898,126.25345L149.29895,125.53338L147.61873,121.45294L145.93852,117.37251L145.45846,115.69233
				L144.73837,115.21228L144.49834,114.25218L144.25831,111.85192L141.858,103.211L141.37794,101.29079L139.93776,96.25026L139.4577,93.36995
				L138.97764,90.96969L138.73761,89.52954L138.97764,87.12929L139.4577,85.20908L139.4577,83.76893L139.4577,83.04885L139.69773,82.32877
				L140.17779,82.08875L141.61797,81.6087L141.858,81.12865L142.09803,80.40857L141.858,78.72839L141.61797,76.32813L141.37794,74.1679
				L141.37794,73.2078L141.37794,72.2477L141.37794,71.04757L141.858,69.36739L142.09803,68.16726L142.57809,66.48709L143.05815,64.56688
				L143.53822,62.64668L148.09879,65.04693L148.81889,63.36675L150.01904,62.40665L151.21919,61.9266L152.8994,62.16663L154.57962,61.9266
				L156.49986,62.40665L158.66013,63.12673L160.10032,63.8468L160.34035,63.8468L159.86029,66.00703L159.62026,67.92724L160.10032,68.40729
				L161.30047,68.64732L163.70077,69.12737L166.34111,69.36739L167.78129,69.60742L169.46151,71.52762L170.66166,73.2078L172.10184,74.64796
				L174.50215,76.32813L175.94233,77.04821L178.82269,78.24834L182.66318,79.20844L186.02361,79.92852L189.144,80.64859L190.82422,80.64859
				L191.78434,80.64859L193.70458,80.16854L196.82498,79.44847L198.74522,78.96842L201.86562,77.28824L203.54583,76.32813L204.02589,76.08811
				L205.94614,74.88798L207.62635,73.92788L209.06653,73.2078L210.50671,72.96778L212.42696,72.48772L214.3472,72.48772L216.74751,72.72775
				L217.94766,72.72775L219.14781,72.72775L220.58799,72.2477L222.50824,71.76765L224.66851,71.2876L226.82879,71.04757L229.70915,70.80755
				L231.62939,70.80755L234.0297,71.2876L236.43,71.04757L239.31037,70.32749L240.03046,73.92788L242.91083,73.44783L244.35101,81.84872
				L246.27125,81.84872L246.03122,85.44911L250.11174,85.20908L249.15162,89.76957L246.51128,93.36995L240.51052,92.64987L239.07034,92.16982
				L236.67003,91.44975L234.74979,93.85L234.98982,96.25026L235.22985,100.09067L235.94994,105.37123L239.79043,104.41113L240.75055,108.73159
				L241.23061,108.49156L246.27125,106.33133L250.83183,105.85128L256.1125,105.61125L260.91311,104.89118L263.31342,104.41113L
				262.59332,101.77085L262.59332,100.33069L262.35329,99.85064L264.51357,99.61062L267.39393,100.09067L270.03427,99.85064L272.6746,99.13056
				L275.31494,98.41049L278.1953,96.97033L279.87552,95.77021L280.83564,94.8101L282.03579,94.09003L282.99591,93.60998L284.4361,93.36995
				L284.4361,94.09003L284.67613,95.29015L284.4361,96.97033L284.67613,98.41049L284.67613,98.65051L284.67613,100.09067L284.67613,102.01087
				L284.67613,102.97097L284.4361,104.1711L284.19607,104.65115L283.95604,105.1312L294.27735,105.37123L294.75741,109.45166L296.19759,109.21164
				L296.67765,108.73159L297.39774,108.49156L298.11783,108.73159L298.59789,108.97161L300.03808,108.97161L300.27811,109.21164
				L300.9982,109.21164L301.47826,108.49156L300.9982,107.29143L300.9982,105.37123L301.95832,105.37123L302.43838,104.65115L301.47826,104.41113
				L301.47826,104.1711L301.23823,103.93108L301.95832,103.45102L302.19835,102.73095L302.43838,101.77085L302.91844,101.53082L
				303.3985,101.53082L304.11859,101.77085L304.83869,101.77085L306.5189,106.33133L308.19911,109.93171L310.59942,109.45166L312.75969,108.97161
				L315.88009,108.01151L316.36015,108.01151L318.52042,109.69169L321.16076,112.09195L321.88085,113.29207L323.56106,113.29207
				L321.64082,107.53146L320.44067,103.211L317.32027,103.93108L315.88009,102.2509L314.19987,102.97097L313.23975,102.01087L314.67993,101.29079
				L313.71981,99.85064L313.71981,100.09067L312.99972,98.17046L311.07948,98.41049L309.63929,97.45038L311.31951,96.49028L312.51966,96.25026
				L312.0396,95.05013L311.79957,94.09003L311.55954,92.40985L307.23899,93.12992L304.83869,93.60998L303.87856,92.40985L302.91844,91.68977
				L301.47826,90.72967L303.63853,90.00959L305.79881,89.04949L305.31875,87.84936L304.35862,86.40921L303.63853,86.40921L303.3985,86.40921
				L302.91844,86.16918L301.95832,86.16918L301.23823,86.40921L300.27811,86.88926L300.03808,87.36931L299.31798,86.64923L298.59789,87.36931
				L297.15771,85.92916L296.19759,85.44911L296.67765,84.489L297.15771,83.04885L297.15771,81.84872L296.91768,80.40857L296.67765,79.20844
				L296.43762,78.00831L296.43762,76.80819L296.43762,75.84808L296.19759,74.40793L296.43762,73.68785L296.67765,72.48772L296.91768,71.2876
				L297.15771,70.32749L303.63853,68.16726L302.67841,64.56688L306.5189,63.8468L309.15923,63.36675L312.51966,62.64668L312.75969,64.56688
				L312.75969,65.52698L314.19987,74.40793L314.91996,79.68849L315.64006,82.80882L315.88009,84.00895L317.08024,89.52954L318.04036,93.12992
				L318.76045,96.25026L319.48054,98.89054L319.9606,100.57072L320.6807,103.211L321.88085,107.29143L323.80109,113.5321L322.60094,114.25218
				L323.081,115.4523L323.56106,117.37251L324.28115,119.53274L325.00124,122.17302L325.24127,123.61317L326.92149,129.13376L325.96137,129.37379
				L325.24127,129.13376L323.56106,130.81394L323.80109,133.69425L320.92073,134.1743L320.92073,135.61445L324.28115,135.85448L
				324.52118,139.69489L325.72134,140.89501L330.04188,140.89501L330.76198,143.5353L331.00201,145.69553L330.76198,147.85576L330.76198,149.05588
				L333.40231,147.3757L336.04265,155.7766L337.00277,160.81714L337.48283,164.1775L338.20292,167.53785L338.92301,172.33837L338.92301,172.57839
				L339.6431,179.53913L339.88313,192.26049L339.6431,193.94067L339.16304,199.70128L337.2428,213.14271L337.00277,214.58287L334.1224,228.26432
				L333.16228,232.34476L332.20216,237.14527L328.84173,253.22698L327.88161,258.0275L326.44143,265.70831L324.76121,272.90908L
				323.56106,279.38977L322.36091,285.87046L317.80033,307.23274L315.88009,317.31381L313.95984,327.15486L310.83945,345.63683L
				308.67917,360.99847L307.71905,367.47916L306.27887,376.60013L305.31875,376.36011L296.67765,372.75972L284.19607,367.71918L
				283.47597,367.47916L287.31646,350.19732L287.55649,349.71727L276.51509,348.27711L272.91463,348.27711L267.63396,346.59693L
				268.35406,345.63683L265.71372,343.71663L264.7536,344.91676L263.07339,343.71663L262.35329,344.4367L260.67308,343.23658L258.75284,341.79642
				L253.95223,338.19604L255.63244,331.95537L244.11098,331.95537L241.23061,330.51522L240.51052,336.51586L243.15086,336.75589
				L242.91083,339.39617L251.79195,340.11624L251.31189,342.27647L250.83183,344.4367L249.63168,348.27711L248.91159,350.91739L
				248.43153,352.11752L247.71144,352.8376L246.27125,353.07762L244.59104,353.07762L243.63092,352.8376L242.43077,352.8376L240.99058,352.35755
				L239.79043,352.11752L238.35025,351.63747L236.91007,351.39745L235.70991,351.15742L234.98982,350.67737L234.50976,351.15742
				L230.18921,352.11752L229.70915,352.35755L228.98906,352.35755L227.30885,350.67737L225.86866,348.99719L224.18845,347.31701
				L223.22833,346.59693L222.74827,346.11688L217.94766,342.5165L216.50748,340.83632L211.9469,336.27583L210.74674,335.55576L209.78662,335.07571
				L208.8265,334.59566L206.66623,333.39553L205.94614,333.1555L205.46607,333.1555L203.3058,330.75525L200.9055,327.87494L195.14476,322.11433
				L193.94461,320.9142L190.58419,317.31381L187.46379,314.67353L186.02361,313.4734L183.14324,311.31317L180.74294,309.633L178.82269,308.43287
				L177.14248,307.71279L176.66242,307.23274L175.46227,306.75269L172.10184,304.35243L168.98144,302.67225L166.10108,300.99207
				L164.90093,299.79195L162.74065,297.87174L161.30047,295.23146L158.90017,289.71087L157.94004,286.11049L156.97992,281.30998
				L156.73989,280.5899L156.25983,278.18964L155.29971,275.06931L153.85953,271.94898L151.93928,267.14847L150.4991,264.50819L149.77901,263.78811
				L149.05892,263.30806L146.89864,263.30806L143.29819,264.26816L141.13791,265.22826L140.65785,265.22826L137.77748,265.70831
				L132.97688,265.46829L131.53669,265.46829L127.93624,263.30806L124.33578,259.22762L122.8956,257.78747L122.8956,256.10729L122.8956,254.90716
				L123.13563,254.18709L123.13563,253.22698L123.37566,252.74693L124.09575,251.06675L124.81584,249.38658L125.05587,248.42647
				L125.05587,248.18645L125.2959,247.7064L125.2959,247.22635L125.53593,246.26624L125.77596,243.62596L126.49605,239.78555L127.21614,235.46509
				L127.69621,233.30486L128.17627,231.62468L128.4163,230.42455L129.61645,224.66394L130.33654,222.26369L130.57657,220.58351L
				130.8166,217.94322L131.05663,215.54297L131.05663,211.70256L131.05663,208.58223L131.29666,205.22187L131.53669,201.38146L132.01675,197.30103
				L132.97688,194.18069L133.45694,192.26049L133.937,191.30039L135.61721,187.94003L136.3373,185.7798L136.81736,183.85959L137.05739,182.17941
				L136.81736,180.25921L136.3373,178.57903L135.61721,175.69872L134.65709,173.29847L132.73685,170.17813L132.25678,168.97801L
				131.53669,167.77788L129.61645,165.1376L127.69621,162.25729L120.73532,159.61701L114.49453,159.13696L111.37413,159.13696L109.21386,159.37698
				L104.89331,160.57711L101.05282,161.77724L97.45237,162.73734L93.61188,162.97737L92.1717,162.73734L89.0513,162.73734L85.45084,162.73734
				L82.81051,162.49732L80.17017,162.49732L79.93014,162.97737L78.0099,162.25729L77.28981,162.01727L63.8481,162.97737L58.80746,163.21739
				L58.3274,163.45742L45.36576,169.45806L38.40487,173.29847L35.28448,175.93875L31.44399,178.81906L30.24384,179.77916L28.80366,184.57967
				L25.2032,183.85959L19.44247,187.45998L18.00229,189.14016L17.52222,192.26049L7.44094,189.62021L-3.84049,187.7L-6.24079,187.21995
				L-6.24079,40.3243z"/>
		</g>
</g></svg>