<?xml version="1.0" encoding="utf-8" standalone="no"?>
<!-- Creator: ESRI ArcMap 10.0.0.2414 -->
<!DOCTYPE svg PUBLIC "-//W3C//DTD SVG 1.1//EN"  "http://www.w3.org/Graphics/SVG/1.1/DTD/svg11.dtd">
<svg width="595.50236pt" height="595.50236pt" viewBox="25 148.377955 545.50236 545.50236" enable-background="new 25 148.377955 545.50236 545.50236"
	version="1.1" xmlns="http://www.w3.org/2000/svg" xmlns:xlink="http://www.w3.org/1999/xlink" >
	<g id="Couches">
		<g id="reservoirs">
			<path clip-path="url(#SVG_CP_2)" fill-opacity="0.2" fill="#07866D" fill-rule="evenodd" stroke="none" stroke-width="" stra="1.44018" stroke-miterlimit="10" stroke-linecap="round" stroke-linejoin="round" d="
				M293.55725,499.49323L296.67765,512.69463L320.92073,504.29374L325.48131,522.29566L327.88161,521.81561L329.32179,522.05563
				L328.36167,515.81497L349.24432,523.97584L353.32484,516.77507L358.84554,515.81497L358.84554,514.37481L368.68679,511.97456
				L367.72667,508.85422L372.52728,507.6541L375.40764,517.01509L379.48816,515.81497L380.44828,518.9353L383.08862,518.21522L385.00886,527.57622
				L370.84706,529.73645L372.28724,536.45717L365.56639,537.89732L367.00657,542.93786L363.88618,543.41791L363.64615,540.29758
				L356.2052,541.25768L356.2052,545.09809L362.20597,546.05819L362.20597,548.69847L363.88618,548.9385L362.68603,556.85934L369.88694,557.33939
				L370.12697,559.2596L369.88694,561.65985L373.00734,561.65985L377.32788,561.65985L373.00734,566.22034L375.40764,568.62059L
				377.80795,566.22034L377.08785,565.02021L379.96822,564.06011L380.92834,575.58133L382.12849,583.98223L368.68679,588.78274L
				359.08557,590.70295L357.88542,591.183L352.36472,592.86318L355.48511,596.70359L350.6845,607.26471L347.80414,601.5041L342.52347,604.3844
				L347.56411,614.22545L348.52423,615.90563L349.72438,615.42558L351.64463,619.50602L355.48511,630.54719L359.3256,646.14885L
				359.08557,646.14885L353.32484,647.58901L344.20368,650.70934L345.40383,652.86957L346.84402,655.26983L348.52423,657.19003L
				349.24432,657.43006L349.96441,658.15013L350.92453,658.87021L350.92453,659.11024L352.12469,660.55039L353.32484,661.27047L
				354.28496,661.75052L355.48511,661.75052L356.44523,661.03044L357.88542,660.55039L360.04569,659.83031L363.40612,659.35026L
				364.8463,659.11024L367.72667,658.39016L368.44676,658.39016L369.40688,658.39016L369.64691,658.39016L369.64691,661.27047L373.4874,661.27047
				L373.96746,663.19067L378.04798,661.03044L378.28801,661.03044L381.4084,659.83031L380.68831,655.9899L380.68831,652.14949L384.04874,652.38952
				L384.5288,652.38952L385.00886,656.22993L385.24889,657.91011L390.0495,657.43006L390.52956,652.86957L395.81023,653.34962L396.77035,653.34962
				L399.41069,653.1096L403.73124,652.14949L405.41145,652.14949L417.89303,654.0697L429.89456,655.74988L436.37538,656.46995L437.09547,656.46995
				L439.49577,657.19003L444.29638,658.63018L444.77644,661.03044L451.01724,661.03044L451.25727,661.03044L451.01724,659.83031
				L454.61769,660.31036L461.57858,661.03044L463.25879,661.27047L463.73885,661.51049L457.25803,668.95128L456.53794,669.91139
				L451.01724,676.39208L447.17675,679.51241L444.29638,681.67264L438.77568,685.75307L435.17523,687.19323L436.61541,704.47507
				L435.89532,710.95576L443.81632,712.39591L441.65605,724.63722L439.97583,724.15717L437.57553,723.67712L435.17523,723.67712
				L436.13535,715.0362L427.49425,715.0362L427.25422,715.0362L425.57401,723.91714L420.7734,724.15717L414.29258,724.39719L410.45209,724.63722
				L405.65148,725.11727L403.73124,725.3573L400.37081,725.59732L396.29029,725.59732L393.40993,725.83735L388.60932,726.07737L
				385.24889,726.55742L378.52804,726.79745L373.24737,726.79745L371.56715,726.55742L370.12697,726.55742L368.44676,725.83735L
				363.40612,723.91714L357.88542,721.75691L352.12469,720.07673L346.36396,718.63658L342.04341,717.9165L341.08328,717.43645L340.60322,716.47635
				L338.92301,713.83607L336.76274,710.23568L335.56258,708.31548L332.20216,704.7151L330.04188,702.07481L326.44143,698.2344L323.081,694.87405
				L321.40079,693.19387L320.6807,691.99374L318.28039,687.19323L316.60018,684.0729L315.64006,682.15269L315.16,679.99246L314.19987,674.95192
				L313.71981,672.07162L312.75969,669.91139L315.88009,667.27111L318.28039,668.95128L319.72057,667.75116L320.92073,665.11088
				L320.6807,662.95065L320.20063,662.23057L322.60094,661.51049L321.64082,659.35026L325.00124,655.50985L322.84097,653.1096L320.44067,656.70998
				L318.52042,658.87021L315.40003,662.23057L313.47978,664.63082L312.99972,664.87085L312.75969,664.63082L312.51966,664.63082
				L312.0396,663.91075L311.31951,662.71062L311.07948,663.19067L310.11936,667.99118L311.79957,668.71126L311.31951,671.35154L
				310.59942,673.51177L309.63929,675.91203L307.47902,679.03236L303.15847,685.033L294.51738,675.91203L295.23747,675.19195L296.91768,673.99182
				L294.03731,669.67136L289.9568,663.91075L289.47674,663.4307L288.27658,661.51049L286.59637,658.87021L287.07643,657.67008L286.35634,656.70998
				L279.39546,645.18875L280.59561,644.22865L290.43686,636.78786L290.91692,636.54783L288.99668,631.98735L285.87628,627.66689
				L283.47597,625.0266L281.79576,622.62635L280.83564,621.42622L279.39546,619.26599L276.03503,614.22545L268.35406,619.02596L
				257.31265,626.46676L248.43153,609.90499L248.1915,609.90499L254.19226,606.06458L256.35253,604.86446L259.47293,603.90435L256.59256,596.70359
				L251.31189,584.22226L249.87171,584.94233L246.99134,586.38249L244.11098,582.54208L225.14857,547.97839L231.86943,539.5775L
				234.98982,536.69719L239.79043,543.17788L245.79119,538.37737L245.31113,535.01701L249.15162,529.73645L249.87171,529.01637L
				250.83183,529.01637L252.27201,529.49642L252.51205,528.2963L251.79195,528.05627L248.67156,527.33619L248.43153,527.33619L248.43153,527.09617
				L247.71144,526.61612L246.99134,526.13607L245.55116,525.89604L244.83107,525.41599L245.79119,524.21586L247.95147,521.33555
				L248.1915,520.8555L256.59256,507.41407L261.87323,518.21522L269.79424,514.37481L284.4361,505.73389L287.07643,503.81369L293.55725,499.49323
				zM347.08405,529.2564L345.40383,529.49642L338.44295,541.4977L331.48207,540.05755L325.00124,538.85742L325.72134,548.45844L
				326.92149,548.45844L329.80185,548.69847L331.00201,554.69911L331.48207,556.13926L331.24204,556.13926L328.84173,555.65921L
				329.08176,558.77954L332.44219,559.01957L333.16228,559.01957L336.52271,552.29885L339.16304,552.53888L338.20292,548.9385L338.44295,546.29821
				L338.44295,542.21778L339.16304,542.21778L352.36472,544.61804L352.12469,541.01765L346.84402,539.81752L346.60399,537.65729
				L347.32408,537.89732L347.32408,535.25704L347.08405,529.2564z"/>
			<path clip-path="url(#SVG_CP_2)" fill-opacity="0.2" fill="#07866D" fill-rule="evenodd" stroke="none" stroke-width="" stra="1.44018" stroke-miterlimit="10" stroke-linecap="round" stroke-linejoin="round" d="
				M284.19607,150.25601L285.87628,152.17622L286.59637,150.49604L287.07643,149.53594L299.55802,163.21739L306.03884,169.69808
				L300.75817,174.25857L297.39774,179.77916L295.95756,182.17941L295.23747,183.61957L294.27735,186.25985L293.31722,187.7L289.47674,192.26049
				L288.51661,193.94067L286.8364,192.50051L283.95604,194.90077L282.27582,195.86087L281.3157,196.58095L282.51585,198.0211L277.23518,201.86151
				L276.99515,202.34156L274.83488,204.26177L275.07491,204.50179L271.23442,206.90205L272.19454,208.58223L271.47445,209.06228
				L273.15466,211.70256L275.31494,209.78236L276.51509,211.22251L276.99515,211.94259L274.59485,213.86279L276.27506,215.54297
				L277.95527,216.50307L279.87552,215.54297L282.51585,218.18325L280.35558,220.10345L281.3157,221.30358L283.47597,223.94386L
				285.39622,226.58415L287.55649,224.66394L289.71677,228.26432L288.51661,229.70448L284.4361,236.90525L283.95604,237.86535L282.99591,238.82545
				L282.27582,239.3055L280.11555,240.50563L277.71524,241.94578L274.11479,242.90588L271.71448,243.86599L273.87476,248.18645L
				278.1953,257.30742L282.99591,266.66842L284.4361,269.3087L301.23823,259.70768L306.03884,269.3087L308.19911,273.62916L312.0396,282.03005
				L314.67993,288.51074L316.12012,287.31062L316.12012,287.07059L316.36015,287.07059L317.5603,287.79067L318.28039,288.27072L
				319.00048,289.47085L319.24051,290.43095L319.72057,291.63108L320.44067,293.31126L321.16076,295.47149L321.64082,298.59182L
				322.36091,301.71215L323.56106,304.35243L325.72134,308.67289L326.44143,309.87302L318.04036,310.83312L330.04188,326.19476L
				302.43838,345.63683L301.71829,344.91676L300.9982,343.4766L300.27811,341.5564L299.55802,340.59629L297.8778,339.39617L296.67765,338.67609
				L294.51738,337.71599L293.55725,336.99591L292.3571,335.31573L290.43686,332.91548L289.47674,330.99527L286.59637,326.43479L
				288.75664,325.23466L287.07643,321.8743L289.47674,320.19412L288.75664,319.47404L286.59637,321.15422L284.4361,322.59438L284.4361,322.35435
				L280.83564,317.31381L277.95527,312.5133L276.99515,311.31317L275.795,310.11305L274.59485,308.67289L273.87476,307.95282L272.6746,307.23274
				L270.75436,306.27264L269.55421,306.03261L266.67384,305.31253L261.6332,304.11241L259.71296,304.11241L257.79272,304.11241L
				256.1125,299.3119L250.5918,301.47213L251.79195,305.55256L248.67156,305.55256L246.27125,305.31253L244.59104,304.59246L243.15086,303.39233
				L242.19074,302.43223L240.99058,301.71215L239.31037,300.99207L236.67003,299.55192L234.98982,298.11177L232.82955,295.71151
				L231.86943,294.51138L231.38936,292.59118L230.66927,290.19092L229.70915,288.03069L226.58876,283.47021L228.98906,282.03005
				L228.98906,280.82993L232.34949,278.6697L226.10869,270.02877L218.66775,277.22954L215.78738,275.78939L214.10717,274.58926L
				208.58647,268.82865L206.66623,266.42839L202.10565,261.62788L200.9055,260.66778L198.98525,259.46765L198.02513,258.9876L198.74522,256.58734
				L199.46531,255.14719L199.46531,254.90716L199.94537,253.94706L201.86562,252.02686L203.54583,250.34668L204.74598,249.14655
				L205.94614,247.94642L208.10641,246.98632L196.58495,231.86471L202.34568,228.74438L199.94537,218.90333L201.38556,217.22315
				L199.22528,215.30294L195.86486,212.90269L195.14476,211.46253L194.18464,208.3422L193.22452,205.46189L191.06425,200.18133L
				192.50443,201.14143L194.42467,201.38146L198.26516,201.62149L200.1854,201.38146L201.62559,200.66138L202.82574,199.70128L204.26592,198.50115
				L207.38632,196.58095L210.50671,194.90077L216.98754,187.45998L220.58799,182.41944L222.02818,180.49923L226.82879,176.17877
				L230.9093,171.61829L233.54964,168.0179L235.46988,169.45806L235.94994,168.97801L236.91007,167.77788L235.22985,166.0977L241.47064,160.33709
				L248.91159,167.77788L264.03351,156.25665L259.47293,150.73606L257.31265,148.09578L261.87323,144.97545L262.83335,144.25537
				L263.55345,143.77532L263.79348,143.77532L267.39393,141.37507L270.75436,138.97481L272.43457,137.29463L272.6746,137.29463L
				274.59485,139.69489L277.23518,142.81522L283.23594,149.53594L284.19607,150.25601z"/>
		</g>
</g></svg>