<?xml version="1.0" encoding="utf-8" standalone="no"?>
<!-- Creator: ESRI ArcMap 10.0.0.2414 -->
<!DOCTYPE svg PUBLIC "-//W3C//DTD SVG 1.1//EN"  "http://www.w3.org/Graphics/SVG/1.1/DTD/svg11.dtd">
<svg width="595.50236pt" height="595.50236pt" viewBox="25 148.377955 545.50236 545.50236" enable-background="new 25 148.377955 545.50236 545.50236"
	version="1.1" xmlns="http://www.w3.org/2000/svg" xmlns:xlink="http://www.w3.org/1999/xlink" >
	<g id="Couches">
		<g id="cont_2">
			<path clip-path="url(#SVG_CP_2)" fill="none" stroke="#999999" stroke-width="0.96012" stroke-miterlimit="10" stroke-linecap="round" stroke-linejoin="round" d="
				M375.64767,390.04156L373.4874,390.04156L373.4874,387.88133L371.32712,387.88133L371.32712,383.8009L369.40688,383.8009L369.40688,379.72046
				L367.24661,379.72046L367.24661,377.56023L365.32636,377.56023L365.32636,373.4798L363.16609,373.4798L363.16609,369.39936L361.24584,369.39936
				L361.24584,365.31893L359.08557,365.31893L359.08557,363.1587L356.9253,363.1587L356.9253,359.07826L355.00505,359.07826L355.00505,354.99783
				L352.84478,354.99783L352.84478,350.91739L350.92453,350.91739L350.92453,346.83696L348.76426,346.83696L348.76426,344.67673
				L346.60399,344.67673L346.60399,340.59629L344.68374,340.59629L344.68374,336.51586L342.52347,336.51586L342.52347,334.35563
				L340.60322,334.35563L340.60322,330.27519L338.44295,330.27519L338.44295,328.11496L336.52271,328.11496L336.52271,324.03453
				L334.36243,324.03453L334.36243,322.11433L332.20216,322.11433L332.20216,317.79386L330.28191,317.79386L330.28191,313.71343
				L328.12164,313.71343L328.12164,311.79323L326.2014,311.79323L326.2014,307.71279L324.04112,307.71279L324.04112,305.55256L322.12088,305.55256
				L322.12088,301.47213L319.9606,301.47213L319.9606,299.3119L317.80033,299.3119L317.80033,295.23146L315.88009,295.23146L315.88009,291.15103
				L313.71981,291.15103L313.71981,288.9908L311.79957,288.9908L311.79957,284.91036L309.63929,284.91036L309.63929,282.99016L307.71905,282.99016
				L307.71905,278.90972L305.55878,278.90972L305.55878,276.74949L303.3985,276.74949L303.3985,272.66906L301.47826,272.66906L301.47826,268.58862
				L299.31798,268.58862L299.31798,266.42839L297.39774,266.42839L297.39774,262.34796L295.23747,262.34796L295.23747,260.18773
				L293.31722,260.18773L293.31722,256.10729L291.15695,256.10729L291.15695,254.18709L288.99668,254.18709L288.99668,249.86663
				L287.07643,249.86663L287.07643,252.02686L284.91616,252.02686L284.91616,254.18709L282.99591,254.18709L282.99591,256.10729
				L280.83564,256.10729L280.83564,258.26752L278.67537,258.26752L278.67537,260.18773L276.75512,260.18773L276.75512,262.34796
				L274.59485,262.34796L274.59485,264.50819L272.6746,264.50819L272.6746,262.34796L270.51433,262.34796L270.51433,260.18773L268.59409,260.18773
				L268.59409,258.26752L266.43381,258.26752L266.43381,256.10729L264.27354,256.10729L264.27354,254.18709L262.35329,254.18709
				L262.35329,252.02686L260.19302,252.02686L260.19302,247.94642L258.27278,247.94642L258.27278,245.78619L256.1125,245.78619L
				256.1125,243.86599L254.19226,243.86599L254.19226,241.70576L252.03198,241.70576L252.03198,239.78555L249.87171,239.78555L249.87171,237.62532
				L247.95147,237.62532L247.95147,235.46509L245.79119,235.46509L245.79119,233.54489L243.87095,233.54489L243.87095,231.38466
				L241.71067,231.38466L241.71067,229.46445L239.79043,229.46445L239.79043,227.30422L229.46912,227.30422L229.46912,225.38402
				L221.06805,225.38402L221.06805,223.22379L216.98754,223.22379L216.98754,221.06356L212.90702,221.06356L212.90702,219.14335
				L208.8265,219.14335L208.8265,216.98312L202.58571,216.98312L202.58571,215.06292L198.50519,215.06292L198.50519,212.90269L194.42467,212.90269
				L194.42467,210.98248L190.34416,210.98248L190.34416,208.82225L186.26364,208.82225L186.26364,206.66202L181.94309,206.66202
				L181.94309,204.74182L177.86257,204.74182L177.86257,202.58159L175.94233,202.58159L175.94233,200.66138L171.86181,200.66138
				L171.86181,198.50115L169.70154,198.50115L169.70154,196.58095L165.62102,196.58095L165.62102,194.42072L161.5405,194.42072L
				161.5405,192.26049L159.38023,192.26049L159.38023,190.34028L155.29971,190.34028L155.29971,188.18005L153.13943,188.18005L153.13943,186.25985
				L149.05892,186.25985L149.05892,184.09962L147.13867,184.09962L147.13867,181.93939L142.81812,181.93939L142.81812,177.85895
				L140.89788,177.85895L140.89788,175.93875L138.73761,175.93875L138.73761,171.85831L136.81736,171.85831L136.81736,169.69808
				L134.65709,169.69808L134.65709,165.61765L132.73685,165.61765L132.73685,161.53721L130.57657,161.53721L130.57657,159.37698
				L128.4163,159.37698L128.4163,155.29655L126.49605,155.29655L126.49605,153.13632L124.33578,153.13632L124.33578,149.05588L122.41554,149.05588
				L122.41554,144.97545L120.25526,144.97545L120.25526,143.05524L118.33502,143.05524L118.33502,138.73478L116.17474,138.73478
				L116.17474,136.81458L114.01447,136.81458L114.01447,134.65435L112.09423,134.65435L112.09423,130.57391L109.93395,130.57391
				L109.93395,128.65371L108.01371,128.65371L108.01371,126.49348L105.85343,126.49348L105.85343,122.41304L103.93319,122.41304
				L103.93319,120.25281L101.77292,120.25281L101.77292,116.17238L99.61264,116.17238L99.61264,114.25218L97.6924,114.25218L97.6924,112.09195
				L95.53212,112.09195L95.53212,108.01151L93.61188,108.01151L93.61188,105.85128L91.45161,105.85128L91.45161,103.93108L89.53136,103.93108
				L89.53136,101.77085L87.37109,101.77085L87.37109,97.69041L85.21081,97.69041L85.21081,95.53018L83.29057,95.53018L83.29057,93.60998
				L81.1303,93.60998L81.1303,91.44975L79.21005,91.44975L79.21005,89.52954L77.04978,89.52954L77.04978,87.36931L75.12953,87.36931
				L75.12953,85.20908L72.96926,85.20908L72.96926,83.28888L70.80899,83.28888L70.80899,79.20844L68.88874,79.20844L68.88874,77.04821
				L66.72847,77.04821L66.72847,75.12801L64.80822,75.12801L64.80822,72.96778L62.64795,72.96778L62.64795,70.80755L60.48768,70.80755
				L60.48768,68.88734L58.56743,68.88734L58.56743,66.72711L56.40716,66.72711L56.40716,64.80691L54.48692,64.80691L54.48692,60.72647
				L52.32664,60.72647L52.32664,58.56624L50.4064,58.56624L50.4064,56.40601L48.24612,56.40601L48.24612,54.48581L46.08585,54.48581
				L46.08585,52.32558L42.00533,52.32558L42.00533,50.40537L40.08509,50.40537L40.08509,48.24514L37.92481,48.24514L37.92481,46.32494
				L36.00457,46.32494L36.00457,44.16471L33.8443,44.16471L33.8443,42.00448L31.68402,42.00448L31.68402,40.08427L27.6035,40.08427
				L27.6035,37.92404L25.68326,37.92404L25.68326,36.00384L23.52299,36.00384L23.52299,33.84361L21.60274,33.84361L21.60274,29.76317
				L19.44247,29.76317L19.44247,27.60294L17.28219,27.60294L17.28219,25.68274L15.36195,25.68274L15.36195,23.52251L13.20168,23.52251
				L13.20168,21.6023L11.28143,21.6023L11.28143,17.28184L9.12116,17.28184L9.12116,15.36164L7.20091,15.36164L7.20091,13.20141
				L5.04064,13.20141L5.04064,9.12097L2.88037,9.12097L2.88037,7.20077L0.96012,7.20077L0.96012,5.04054L-1.20015,5.04054L-1.20015,0.9601
				L-3.1204,0.9601L-3.1204,-1.20013L-5.28067,-1.20013L-5.28067,-5.28056L-6.24079,-5.28056M19.44247,-18.722L19.44247,-17.52187
				L23.52299,-17.52187L23.52299,-15.60166L25.68326,-15.60166L25.68326,-13.44143L27.6035,-13.44143L27.6035,-11.52123L31.68402,-11.52123
				L31.68402,-9.361L33.8443,-9.361L33.8443,-7.20077L36.00457,-7.20077L36.00457,-5.28056L40.08509,-5.28056L40.08509,-3.12033
				L42.00533,-3.12033L42.00533,-1.20013L44.16561,-1.20013L44.16561,0.9601L48.24612,0.9601L48.24612,2.88031L52.32664,2.88031
				L52.32664,5.04054L54.48692,5.04054L54.48692,7.20077L58.56743,7.20077L58.56743,9.12097L62.64795,9.12097L62.64795,11.2812L
				64.80822,11.2812L64.80822,13.20141L68.88874,13.20141L68.88874,15.36164L70.80899,15.36164L70.80899,17.28184L77.04978,17.28184
				L77.04978,19.44207L79.21005,19.44207L79.21005,21.6023L81.1303,21.6023L81.1303,23.52251L85.21081,23.52251L85.21081,25.68274
				L89.53136,25.68274L89.53136,27.60294L91.45161,27.60294L91.45161,29.76317L93.61188,29.76317L93.61188,31.68338L97.6924,31.68338
				L97.6924,33.84361L99.61264,33.84361L99.61264,36.00384L101.77292,36.00384L101.77292,37.92404L103.93319,37.92404L103.93319,36.00384
				L109.93395,36.00384L109.93395,33.84361L116.17474,33.84361L116.17474,31.68338L118.33502,31.68338L118.33502,29.76317L120.25526,29.76317
				L120.25526,27.60294L126.49605,27.60294L126.49605,25.68274L132.73685,25.68274L132.73685,23.52251L138.73761,23.52251L138.73761,21.6023
				L140.89788,21.6023L140.89788,19.44207L153.13943,19.44207L153.13943,17.28184L155.29971,17.28184L155.29971,15.36164L173.78205,15.36164
				L173.78205,17.28184L177.86257,17.28184L177.86257,19.44207L184.10336,19.44207L184.10336,21.6023L188.18388,21.6023L188.18388,23.52251
				L192.2644,23.52251L192.2644,25.68274L194.42467,25.68274L194.42467,27.60294L202.58571,27.60294L202.58571,29.76317L204.74598,29.76317
				L204.74598,31.68338L208.8265,31.68338L208.8265,33.84361L215.06729,33.84361L215.06729,36.00384L241.71067,36.00384L241.71067,33.84361
				L274.59485,33.84361L274.59485,36.00384L276.75512,36.00384L276.75512,33.84361L278.67537,33.84361L278.67537,36.00384L282.99591,36.00384
				L282.99591,37.92404L287.07643,37.92404L287.07643,40.08427L291.15695,40.08427L291.15695,42.00448L297.39774,42.00448L297.39774,44.16471
				L301.47826,44.16471L301.47826,46.32494L307.71905,46.32494L307.71905,48.24514L309.63929,48.24514L309.63929,50.40537L315.88009,50.40537
				L315.88009,52.32558L319.9606,52.32558L319.9606,54.48581L324.04112,54.48581L324.04112,56.40601L330.28191,56.40601L330.28191,58.56624
				L332.20216,58.56624L332.20216,60.72647L336.52271,60.72647L336.52271,62.64668L340.60322,62.64668L340.60322,64.80691L346.60399,64.80691
				L346.60399,66.72711L350.92453,66.72711L350.92453,68.88734L355.00505,68.88734L355.00505,70.80755L356.9253,70.80755L356.9253,77.04821
				L359.08557,77.04821L359.08557,81.12865L361.24584,81.12865L361.24584,85.20908L363.16609,85.20908L363.16609,91.44975L365.32636,91.44975
				L365.32636,95.53018L367.24661,95.53018L367.24661,97.69041L365.32636,97.69041L365.32636,99.61062L367.24661,99.61062L367.24661,103.93108
				L369.40688,103.93108L369.40688,108.01151L371.32712,108.01151L371.32712,114.25218L373.4874,114.25218L373.4874,118.33261L375.64767,118.33261
				L375.64767,120.25281L373.4874,120.25281L373.4874,124.33325L371.32712,124.33325L371.32712,126.49348L367.24661,126.49348L367.24661,128.65371
				L361.24584,128.65371L361.24584,130.57391L356.9253,130.57391L356.9253,132.73414L352.84478,132.73414L352.84478,134.65435L348.76426,134.65435
				L348.76426,136.81458L344.68374,136.81458L344.68374,138.73478L348.76426,138.73478L348.76426,140.89501L350.92453,140.89501
				L350.92453,143.05524L352.84478,143.05524L352.84478,144.97545L356.9253,144.97545L356.9253,147.13568L363.16609,147.13568L363.16609,149.05588
				L387.88922,149.05588L387.88922,147.13568L396.05026,147.13568L396.05026,144.97545L412.61236,144.97545L412.61236,147.13568
				L435.17523,147.13568L435.17523,149.05588L441.41602,149.05588L441.41602,151.21611L447.65681,151.21611L447.65681,153.13632
				L455.81785,153.13632L455.81785,155.29655L463.97888,155.29655L463.97888,157.45678L474.30019,157.45678L474.30019,155.29655
				L478.38071,155.29655L478.38071,153.13632L484.6215,153.13632L484.6215,151.21611L488.70202,151.21611L488.70202,149.05588L494.94281,149.05588
				L494.94281,147.13568L499.02333,147.13568L499.02333,144.97545L505.26412,144.97545L505.26412,143.05524L511.50491,143.05524
				L511.50491,140.89501L517.50567,140.89501L517.50567,138.73478L521.58619,138.73478L521.58619,136.81458L527.82698,136.81458
				L527.82698,138.73478L534.06778,138.73478L534.06778,140.89501L548.4696,140.89501L548.4696,138.73478L583.51405,138.73478L583.51405,140.89501
				L589.51481,140.89501L589.51481,143.05524L601.9964,143.05524M601.9964,264.50819L589.51481,264.50819L589.51481,262.34796L569.11222,262.34796
				L569.11222,264.50819L562.87143,264.50819L562.87143,266.42839L556.63064,266.42839L556.63064,268.58862L550.38985,268.58862
				L550.38985,270.50883L544.38909,270.50883L544.38909,272.66906L538.14829,272.66906L538.14829,274.58926L531.9075,274.58926L
				531.9075,276.74949L525.90674,276.74949L525.90674,278.90972L519.66595,278.90972L519.66595,280.82993L513.42516,280.82993L513.42516,282.99016
				L509.34464,282.99016L509.34464,284.91036L503.10385,284.91036L503.10385,287.07059L499.02333,287.07059L499.02333,288.9908L
				492.78254,288.9908L492.78254,291.15103L488.70202,291.15103L488.70202,293.31126L482.46123,293.31126L482.46123,295.23146L478.38071,295.23146
				L478.38071,297.39169L472.37995,297.39169L472.37995,299.3119L468.0594,299.3119L468.0594,301.47213L463.97888,301.47213L463.97888,303.39233
				L462.05864,303.39233L462.05864,305.55256L459.89836,305.55256L459.89836,307.71279L457.97812,307.71279L457.97812,309.633L455.81785,309.633
				L455.81785,311.79323L453.65757,311.79323L453.65757,313.71343L451.73733,313.71343L451.73733,315.87366L449.57705,315.87366
				L449.57705,317.79386L447.65681,317.79386L447.65681,319.9541L445.49654,319.9541L445.49654,322.11433L443.57629,322.11433L443.57629,326.19476
				L441.41602,326.19476L441.41602,328.11496L439.25574,328.11496L439.25574,330.27519L437.3355,330.27519L437.3355,332.43543L435.17523,332.43543
				L435.17523,334.35563L433.25498,334.35563L433.25498,336.51586L431.09471,336.51586L431.09471,338.43606L429.17446,338.43606
				L429.17446,340.59629L427.01419,340.59629L427.01419,342.5165L424.85392,342.5165L424.85392,344.67673L422.93367,344.67673L422.93367,348.75716
				L420.7734,348.75716L420.7734,350.91739L418.85315,350.91739L418.85315,352.8376L416.69288,352.8376L416.69288,354.99783L414.53261,354.99783
				L414.53261,356.91803L412.61236,356.91803L412.61236,359.07826L410.45209,359.07826L410.45209,361.23849L408.53184,361.23849
				L408.53184,363.1587L406.37157,363.1587L406.37157,365.31893L404.45133,365.31893L404.45133,367.23913L402.29105,367.23913L402.29105,371.31957
				L400.13078,371.31957L400.13078,373.4798L398.21053,373.4798L398.21053,375.64003L396.05026,375.64003L396.05026,377.56023L391.96974,377.56023
				L391.96974,379.72046L390.0495,379.72046L390.0495,381.64067L385.72895,381.64067L385.72895,383.8009L381.64843,383.8009L381.64843,385.7211
				L379.72819,385.7211L379.72819,387.88133L375.64767,387.88133L375.64767,390.04156"/>
			<path clip-path="url(#SVG_CP_2)" fill="none" stroke="#999999" stroke-width="0.96012" stroke-miterlimit="10" stroke-linecap="round" stroke-linejoin="round" d="
				M377.56791,394.122L375.64767,394.122L375.64767,390.04156L379.72819,390.04156L379.72819,387.88133L381.64843,387.88133L381.64843,391.96177
				L377.56791,391.96177L377.56791,394.122"/>
			<path clip-path="url(#SVG_CP_2)" fill="none" stroke="#999999" stroke-width="0.96012" stroke-miterlimit="10" stroke-linecap="round" stroke-linejoin="round" d="
				M379.72819,398.20243L377.56791,398.20243L377.56791,394.122L381.64843,394.122L381.64843,391.96177L383.80871,391.96177L383.80871,396.0422
				L379.72819,396.0422L379.72819,398.20243"/>
			<path clip-path="url(#SVG_CP_2)" fill="none" stroke="#999999" stroke-width="0.96012" stroke-miterlimit="10" stroke-linecap="round" stroke-linejoin="round" d="
				M383.80871,396.0422L385.72895,396.0422L385.72895,398.20243L383.80871,398.20243L383.80871,396.0422"/>
			<path clip-path="url(#SVG_CP_2)" fill="none" stroke="#999999" stroke-width="0.96012" stroke-miterlimit="10" stroke-linecap="round" stroke-linejoin="round" d="
				M381.64843,400.36266L379.72819,400.36266L379.72819,398.20243L381.64843,398.20243L381.64843,400.36266"/>
			<path clip-path="url(#SVG_CP_2)" fill="none" stroke="#999999" stroke-width="0.96012" stroke-miterlimit="10" stroke-linecap="round" stroke-linejoin="round" d="
				M383.80871,404.4431L381.64843,404.4431L381.64843,400.36266L387.88922,400.36266L387.88922,402.28287L383.80871,402.28287L383.80871,404.4431
				"/>
			<path clip-path="url(#SVG_CP_2)" fill="none" stroke="#999999" stroke-width="0.96012" stroke-miterlimit="10" stroke-linecap="round" stroke-linejoin="round" d="
				M385.72895,408.52353L383.80871,408.52353L383.80871,404.4431L390.0495,404.4431L390.0495,406.3633L385.72895,406.3633L385.72895,408.52353
				"/>
			<path clip-path="url(#SVG_CP_2)" fill="none" stroke="#999999" stroke-width="0.96012" stroke-miterlimit="10" stroke-linecap="round" stroke-linejoin="round" d="
				M387.88922,412.60397L385.72895,412.60397L385.72895,408.52353L390.0495,408.52353L390.0495,406.3633L391.96974,406.3633L391.96974,410.44374
				L387.88922,410.44374L387.88922,412.60397"/>
			<path clip-path="url(#SVG_CP_2)" fill="none" stroke="#999999" stroke-width="0.96012" stroke-miterlimit="10" stroke-linecap="round" stroke-linejoin="round" d="
				M390.0495,416.6844L387.88922,416.6844L387.88922,412.60397L391.96974,412.60397L391.96974,410.44374L394.13002,410.44374L394.13002,414.7642
				L390.0495,414.7642L390.0495,416.6844"/>
			<path clip-path="url(#SVG_CP_2)" fill="none" stroke="#999999" stroke-width="0.96012" stroke-miterlimit="10" stroke-linecap="round" stroke-linejoin="round" d="
				M396.05026,416.6844L394.13002,416.6844L394.13002,414.7642L396.05026,414.7642L396.05026,416.6844"/>
			<path clip-path="url(#SVG_CP_2)" fill="none" stroke="#999999" stroke-width="0.96012" stroke-miterlimit="10" stroke-linecap="round" stroke-linejoin="round" d="
				M391.96974,418.84463L390.0495,418.84463L390.0495,416.6844L391.96974,416.6844L391.96974,418.84463"/>
			<path clip-path="url(#SVG_CP_2)" fill="none" stroke="#999999" stroke-width="0.96012" stroke-miterlimit="10" stroke-linecap="round" stroke-linejoin="round" d="
				M391.96974,418.84463L396.05026,418.84463L396.05026,416.6844L398.21053,416.6844L398.21053,414.7642L402.29105,414.7642L402.29105,412.60397
				L404.45133,412.60397L404.45133,410.44374L406.37157,410.44374L406.37157,408.52353L408.53184,408.52353L408.53184,406.3633L
				410.45209,406.3633L410.45209,404.4431L414.53261,404.4431L414.53261,402.28287L416.69288,402.28287L416.69288,400.36266L418.85315,400.36266
				L418.85315,398.20243L420.7734,398.20243L420.7734,396.0422L422.93367,396.0422L422.93367,394.122L424.85392,394.122L424.85392,391.96177
				L427.01419,391.96177L427.01419,390.04156L429.17446,390.04156L429.17446,387.88133L431.09471,387.88133L431.09471,385.7211L
				433.25498,385.7211L433.25498,383.8009L435.17523,383.8009L435.17523,381.64067L437.3355,381.64067L437.3355,379.72046L439.25574,379.72046
				L439.25574,377.56023L441.41602,377.56023L441.41602,373.4798L443.57629,373.4798L443.57629,371.31957L445.49654,371.31957L445.49654,369.39936
				L447.65681,369.39936L447.65681,367.23913L449.57705,367.23913L449.57705,365.31893L451.73733,365.31893L451.73733,363.1587L
				453.65757,363.1587L453.65757,361.23849L455.81785,361.23849L455.81785,359.07826L457.97812,359.07826L457.97812,356.91803L459.89836,356.91803
				L459.89836,354.99783L462.05864,354.99783L462.05864,352.8376L463.97888,352.8376L463.97888,350.91739L466.13915,350.91739L466.13915,348.75716
				L468.0594,348.75716L468.0594,346.83696L470.21967,346.83696L470.21967,344.67673L472.37995,344.67673L472.37995,342.5165L474.30019,342.5165
				L474.30019,340.59629L476.46046,340.59629L476.46046,338.43606L478.38071,338.43606L478.38071,336.51586L480.54098,336.51586
				L480.54098,334.35563L482.46123,334.35563L482.46123,332.43543L484.6215,332.43543L484.6215,330.27519L486.78177,330.27519L486.78177,328.11496
				L488.70202,328.11496L488.70202,326.19476L490.86229,326.19476L490.86229,324.03453L492.78254,324.03453L492.78254,322.11433
				L494.94281,322.11433L494.94281,319.9541L497.10308,319.9541L497.10308,317.79386L501.1836,317.79386L501.1836,315.87366L507.18436,315.87366
				L507.18436,313.71343L511.50491,313.71343L511.50491,311.79323L515.58543,311.79323L515.58543,309.633L521.58619,309.633L521.58619,307.71279
				L525.90674,307.71279L525.90674,305.55256L531.9075,305.55256L531.9075,303.39233L538.14829,303.39233L538.14829,301.47213L558.79091,301.47213
				L558.79091,299.3119L601.9964,299.3119M601.9964,783.20346L601.9964,778.883L599.83612,778.883L599.83612,776.96279L597.91588,776.96279
				L597.91588,772.88236L595.7556,772.88236L595.7556,768.80192L593.83536,768.80192L593.83536,766.64169L591.67509,766.64169L591.67509,762.56126
				L589.51481,762.56126L589.51481,758.48082L587.59457,758.48082L587.59457,754.40039L585.43429,754.40039L585.43429,752.24016
				L583.51405,752.24016L583.51405,748.15973L581.35378,748.15973L581.35378,744.07929L579.43353,744.07929L579.43353,741.91906
				L577.27326,741.91906L577.27326,737.83863L575.11298,737.83863L575.11298,733.75819L573.19274,733.75819L573.19274,729.67776
				L571.03247,729.67776L571.03247,727.51753L569.11222,727.51753L569.11222,723.43709L566.95195,723.43709L566.95195,719.35666
				L565.0317,719.35666L565.0317,717.19643L562.87143,717.19643L562.87143,713.11599L560.71116,713.11599L560.71116,709.03556L558.79091,709.03556
				L558.79091,704.95512L556.63064,704.95512L556.63064,702.79489L554.71039,702.79489L554.71039,698.71446L552.55012,698.71446
				L552.55012,694.63402L550.38985,694.63402L550.38985,692.47379L548.4696,692.47379L548.4696,688.39336L546.30933,688.39336L546.30933,684.31292
				L544.38909,684.31292L544.38909,680.23249L542.22881,680.23249L542.22881,678.07226L540.30857,678.07226L540.30857,673.99182
				L538.14829,673.99182L538.14829,669.91139L535.98802,669.91139L535.98802,667.75116L534.06778,667.75116L534.06778,663.67072
				L531.9075,663.67072L531.9075,659.59029L529.98726,659.59029L529.98726,655.50985L527.82698,655.50985L527.82698,653.34962L525.90674,653.34962
				L525.90674,649.26919L523.74647,649.26919L523.74647,645.18875L521.58619,645.18875L521.58619,643.02852L519.66595,643.02852
				L519.66595,638.94809L517.50567,638.94809L517.50567,634.86765L515.58543,634.86765L515.58543,630.78722L513.42516,630.78722
				L513.42516,628.62699L511.50491,628.62699L511.50491,624.54655L509.34464,624.54655L509.34464,620.46612L507.18436,620.46612
				L507.18436,618.54591L505.26412,618.54591L505.26412,614.22545L503.10385,614.22545L503.10385,610.14502L501.1836,610.14502L
				501.1836,606.06458L499.02333,606.06458L499.02333,604.14438L497.10308,604.14438L497.10308,599.82392L494.94281,599.82392L494.94281,595.74348
				L492.78254,595.74348L492.78254,593.82328L490.86229,593.82328L490.86229,589.50282L488.70202,589.50282L488.70202,585.42238
				L486.78177,585.42238L486.78177,581.34195L484.6215,581.34195L484.6215,579.42174L482.46123,579.42174L482.46123,575.10128L480.54098,575.10128
				L480.54098,571.02085L478.38071,571.02085L478.38071,569.10064L476.46046,569.10064L476.46046,565.02021L474.30019,565.02021
				L474.30019,560.69975L472.37995,560.69975L472.37995,558.77954L470.21967,558.77954L470.21967,554.69911L468.0594,554.69911L
				468.0594,550.61867L466.13915,550.61867L466.13915,548.45844L463.97888,548.45844L463.97888,544.37801L462.05864,544.37801L462.05864,540.29758
				L459.89836,540.29758L459.89836,538.13734L457.97812,538.13734L457.97812,534.05691L455.81785,534.05691L455.81785,529.97648
				L453.65757,529.97648L453.65757,527.81625L451.73733,527.81625L451.73733,523.73581L449.57705,523.73581L449.57705,519.65538
				L447.65681,519.65538L447.65681,517.49515L445.49654,517.49515L445.49654,513.41471L443.57629,513.41471L443.57629,511.49451
				L441.41602,511.49451L441.41602,507.17405L439.25574,507.17405L439.25574,503.09361L437.3355,503.09361L437.3355,499.01318L435.17523,499.01318
				L435.17523,497.09297L433.25498,497.09297L433.25498,492.77251L431.09471,492.77251L431.09471,488.69208L429.17446,488.69208
				L429.17446,484.61164L427.01419,484.61164L427.01419,482.69144L424.85392,482.69144L424.85392,478.37098L422.93367,478.37098
				L422.93367,474.29054L420.7734,474.29054L420.7734,470.21011L418.85315,470.21011L418.85315,468.2899L416.69288,468.2899L416.69288,463.96944
				L414.53261,463.96944L414.53261,459.88901L412.61236,459.88901L412.61236,455.80857L410.45209,455.80857L410.45209,453.64834
				L408.53184,453.64834L408.53184,449.56791L406.37157,449.56791L406.37157,445.48747L404.45133,445.48747L404.45133,441.40704
				L402.29105,441.40704L402.29105,437.3266L400.13078,437.3266L400.13078,435.16637L398.21053,435.16637L398.21053,431.08594L396.05026,431.08594
				L396.05026,427.0055L394.13002,427.0055L394.13002,422.92507L391.96974,422.92507L391.96974,418.84463"/>
		</g>
</g></svg>