<?xml version="1.0" encoding="utf-8" standalone="no"?>
<!-- Creator: ESRI ArcMap 10.0.0.2414 -->
<!DOCTYPE svg PUBLIC "-//W3C//DTD SVG 1.1//EN"  "http://www.w3.org/Graphics/SVG/1.1/DTD/svg11.dtd">
<svg width="595.50236pt" height="595.50236pt" viewBox="25 148.377955 545.50236 545.50236" enable-background="new 25 148.377955 545.50236 545.50236"
	version="1.1" xmlns="http://www.w3.org/2000/svg" xmlns:xlink="http://www.w3.org/1999/xlink" >
	<g id="Couches">
		<g id="cont_1">
			<clipPath id="SVG_CP_2">
				<path d="M574.39289,21.36228L21.36271,21.36228L21.36271,821.36753L574.39289,821.36753L574.39289,21.36228z"/>
			</clipPath>
			<path clip-path="url(#SVG_CP_2)" fill="none" stroke="#999999" stroke-width="0.96012" stroke-miterlimit="10" stroke-linecap="round" stroke-linejoin="round" d="
				M18.72238,39.84425L15.84201,39.84425L15.84201,39.3642L12.96165,39.3642L12.96165,38.88414L13.44171,38.88414L13.44171,38.40409
				L13.92177,38.40409L13.92177,37.92404L14.40183,37.92404L14.40183,37.44399L14.88189,37.44399L14.88189,36.96394L15.36195,36.96394
				L15.36195,36.48389L15.84201,36.48389L15.84201,35.52379L16.80213,35.52379L16.80213,35.04373L17.28219,35.04373L17.28219,34.56368
				L18.24232,34.56368L18.24232,34.08363L20.40259,34.08363L20.40259,32.40345L20.88265,32.40345L20.88265,30.9633L21.36271,30.9633
				L21.36271,29.0431L21.84277,29.0431L21.84277,28.56304L21.36271,28.56304L21.36271,24.00256L15.84201,24.00256L15.84201,24.72263
				L-3.36043,24.72263L-3.36043,25.20269L-4.32055,25.20269L-4.32055,24.72263L-3.84049,24.72263L-3.84049,24.00256L-3.36043,24.00256
				L-3.36043,23.52251L-2.88037,23.52251L-2.88037,23.04246L-2.40031,23.04246L-2.40031,22.5624L-1.92024,22.5624L-1.92024,22.08235
				L-1.44018,22.08235L-1.44018,21.12225L-0.96012,21.12225L-0.96012,20.6422L-0.48006,20.6422L-0.48006,20.16215L0,20.16215L0,19.6821
				L0.48006,19.6821L0.48006,19.20205L0.96012,19.20205L0.96012,18.722L1.68021,18.722L1.68021,18.24194L2.16027,18.24194L2.16027,17.28184
				L2.64034,17.28184L2.64034,16.80179L3.1204,16.80179L3.1204,16.32174L3.60046,16.32174L3.60046,15.84169L4.08052,15.84169L4.08052,15.12161
				L5.5207,15.12161L5.5207,14.64156L7.44094,14.64156L7.44094,14.16151L8.88113,14.16151L8.88113,13.68146L11.0414,13.68146L11.0414,13.20141
				L12.48158,13.20141L12.48158,12.72136L13.92177,12.72136L13.92177,12.2413L27.12344,12.2413L27.12344,12.72136L28.08356,12.72136
				L28.08356,13.20141L28.80366,13.20141L28.80366,13.68146L29.76378,13.68146L29.76378,14.16151L30.7239,14.16151L30.7239,14.64156
				L31.20396,14.64156L31.20396,15.12161L32.16408,15.12161L32.16408,15.84169L31.68402,15.84169L31.68402,16.32174L31.20396,16.32174
				L31.20396,17.28184L30.7239,17.28184L30.7239,18.24194L30.24384,18.24194L30.24384,18.722L29.76378,18.722L29.76378,19.6821L
				29.28372,19.6821L29.28372,20.6422L28.80366,20.6422L28.80366,21.6023L28.08356,21.6023L28.08356,22.5624L27.6035,22.5624L27.6035,23.52251
				L27.12344,23.52251L27.12344,24.72263L26.64338,24.72263L26.64338,25.20269L26.16332,25.20269L26.16332,26.16279L25.68326,26.16279
				L25.68326,27.12289L25.2032,27.12289L25.2032,28.08299L24.72314,28.08299L24.72314,29.0431L24.24308,29.0431L24.24308,30.0032
				L23.76302,30.0032L23.76302,30.9633L23.28296,30.9633L23.28296,31.9234L22.80289,31.9234L22.80289,32.8835L22.32283,32.8835L
				22.32283,34.08363L21.84277,34.08363L21.84277,35.04373L21.36271,35.04373L21.36271,36.00384L20.88265,36.00384L20.88265,36.96394
				L20.40259,36.96394L20.40259,37.92404L19.92253,37.92404L19.92253,38.88414L19.20244,38.88414L19.20244,39.3642L18.72238,39.3642
				L18.72238,39.84425"/>
			<path clip-path="url(#SVG_CP_2)" fill="none" stroke="#999999" stroke-width="0.96012" stroke-miterlimit="10" stroke-linecap="round" stroke-linejoin="round" d="
				M207.86638,102.97097L207.86638,102.01087L208.34644,102.01087L208.34644,101.05077L208.8265,101.05077L208.8265,100.57072L209.30656,100.57072
				L209.30656,99.61062L209.78662,99.61062L209.78662,99.13056L210.26668,99.13056L210.26668,98.65051L210.74674,98.65051L210.74674,98.17046
				L211.22681,98.17046L211.22681,97.69041L211.70687,97.69041L211.70687,96.73031L212.18693,96.73031L212.18693,96.25026L212.66699,96.25026
				L212.66699,95.77021L213.14705,95.77021L213.14705,95.05013L213.62711,95.05013L213.62711,94.09003L214.10717,94.09003L214.10717,93.60998
				L214.58723,93.60998L214.58723,93.12992L215.06729,93.12992L215.06729,92.64987L215.78738,92.64987L215.78738,92.16982L216.26745,92.16982
				L216.26745,91.20972L216.74751,91.20972L216.74751,90.72967L217.22757,90.72967L217.22757,90.24962L217.70763,90.24962L217.70763,89.76957
				L218.18769,89.76957L218.18769,89.28952L218.66775,89.28952L218.66775,88.80946L219.14781,88.80946L219.14781,87.84936L219.62787,87.84936
				L219.62787,87.36931L220.10793,87.36931L220.10793,86.88926L220.58799,86.88926L220.58799,86.16918L221.06805,86.16918L221.06805,85.68913
				L221.54812,85.68913L221.54812,85.20908L222.02818,85.20908L222.02818,84.24898L222.50824,84.24898L222.50824,83.76893L222.9883,83.76893
				L222.9883,83.28888L223.46836,83.28888L223.46836,82.80882L223.94842,82.80882L223.94842,82.32877L224.66851,82.32877L224.66851,81.36867
				L225.14857,81.36867L225.14857,80.88862L225.62863,80.88862L225.62863,80.40857L226.10869,80.40857L226.10869,79.92852L226.58876,79.92852
				L226.58876,78.96842L227.06882,78.96842L227.06882,78.48836L227.54888,78.48836L227.54888,78.00831L228.02894,78.00831L228.02894,76.80819
				L228.509,76.80819L228.509,76.32813L228.98906,76.32813L228.98906,75.84808L229.46912,75.84808L229.46912,74.88798L229.94918,74.88798
				L229.94918,74.40793L230.42924,74.40793L230.42924,73.92788L230.9093,73.92788L230.9093,72.96778L231.38936,72.96778L231.38936,72.48772
				L231.86943,72.48772L231.86943,72.00767L232.34949,72.00767L232.34949,71.04757L232.82955,71.04757L232.82955,70.56752L233.54964,70.56752
				L233.54964,70.08747L234.0297,70.08747L234.0297,69.12737L234.50976,69.12737L234.50976,68.40729L234.98982,68.40729L234.98982,67.92724
				L235.46988,67.92724L235.46988,67.44719L235.94994,67.44719L235.94994,66.48709L236.43,66.48709L236.43,71.04757L235.94994,71.04757
				L235.94994,77.28824L235.46988,77.28824L235.46988,83.76893L234.98982,83.76893L234.98982,84.24898L235.94994,84.24898L235.94994,84.72903
				L239.31037,84.72903L239.31037,85.20908L240.27049,85.20908L240.27049,85.68913L241.23061,85.68913L241.23061,86.16918L242.43077,86.16918
				L242.43077,86.88926L243.39089,86.88926L243.39089,87.36931L243.87095,87.36931L243.87095,83.28888L244.35101,83.28888L244.35101,82.32877
				L245.31113,82.32877L245.31113,82.80882L250.11174,82.80882L250.11174,83.28888L253.7122,83.28888L253.7122,83.76893L253.23214,83.76893
				L253.23214,86.16918L252.75208,86.16918L252.75208,88.80946L252.27201,88.80946L252.27201,90.72967L251.79195,90.72967L251.79195,91.20972
				L248.67156,91.20972L248.67156,90.72967L245.31113,90.72967L245.31113,90.24962L243.87095,90.24962L243.87095,91.68977L243.39089,91.68977
				L243.39089,92.64987L242.91083,92.64987L242.91083,93.60998L242.43077,93.60998L242.43077,94.09003L241.71067,94.09003L241.71067,94.57008
				L241.23061,94.57008L241.23061,95.05013L240.75055,95.05013L240.75055,95.77021L240.27049,95.77021L240.27049,96.25026L239.79043,96.25026
				L239.79043,96.73031L239.31037,96.73031L239.31037,97.21036L238.83031,97.21036L238.83031,97.69041L238.35025,97.69041L238.35025,98.17046
				L237.39013,98.17046L237.39013,98.65051L235.94994,98.65051L235.94994,99.13056L234.98982,99.13056L234.98982,99.61062L233.54964,99.61062
				L233.54964,100.09067L232.34949,100.09067L232.34949,100.57072L230.9093,100.57072L230.9093,101.05077L228.509,101.05077L228.509,101.53082
				L225.62863,101.53082L225.62863,102.01087L222.9883,102.01087L222.9883,102.49092L220.58799,102.49092L220.58799,102.97097L217.70763,102.97097
				L217.70763,103.45102L210.26668,103.45102L210.26668,102.97097L207.86638,102.97097"/>
			<path clip-path="url(#SVG_CP_2)" fill="none" stroke="#999999" stroke-width="0.96012" stroke-miterlimit="10" stroke-linecap="round" stroke-linejoin="round" d="
				M207.86638,102.97097L207.86638,103.45102L207.38632,103.45102L207.38632,105.1312L206.90626,105.1312L206.90626,106.57136L207.38632,106.57136
				L207.38632,107.05141L208.34644,107.05141L208.34644,107.53146L208.8265,107.53146L208.8265,108.49156L208.34644,108.49156L208.34644,108.97161
				L207.86638,108.97161L207.86638,109.45166L207.38632,109.45166L207.38632,109.93171L206.90626,109.93171L206.90626,110.89182
				L206.18617,110.89182L206.18617,111.37187L205.70611,111.37187L205.70611,111.85192L205.22604,111.85192L205.22604,112.33197
				L204.26592,112.33197L204.26592,111.85192L203.78586,111.85192L203.78586,111.37187L202.82574,111.37187L202.82574,110.89182
				L201.86562,110.89182L201.86562,110.41177L201.38556,110.41177L201.38556,109.93171L200.42544,109.93171L200.42544,109.45166
				L199.46531,109.45166L199.46531,108.97161L198.98525,108.97161L198.98525,108.49156L199.46531,108.49156L199.46531,108.01151
				L199.94537,108.01151L199.94537,107.05141L200.42544,107.05141L200.42544,106.57136L200.9055,106.57136L200.9055,106.09131L201.38556,106.09131
				L201.38556,105.61125L201.86562,105.61125L201.86562,105.1312L202.34568,105.1312L202.34568,104.65115L202.82574,104.65115L202.82574,103.93108
				L203.3058,103.93108L203.3058,103.45102L204.74598,103.45102L204.74598,103.93108L206.18617,103.93108L206.18617,103.45102L206.90626,103.45102
				L206.90626,102.97097L207.86638,102.97097"/>
			<path clip-path="url(#SVG_CP_2)" fill="none" stroke="#999999" stroke-width="0.96012" stroke-miterlimit="10" stroke-linecap="round" stroke-linejoin="round" d="
				M63.12801,114.01215L61.68783,114.01215L61.68783,113.5321L56.40716,113.5321L56.40716,112.81202L51.84658,112.81202L51.84658,107.53146
				L51.36652,107.53146L51.36652,100.57072L49.92634,100.57072L49.92634,100.09067L48.96621,100.09067L48.96621,99.61062L47.52603,99.61062
				L47.52603,99.13056L45.84582,99.13056L45.84582,98.65051L43.44551,98.65051L43.44551,98.17046L39.12497,98.17046L39.12497,97.69041
				L34.56439,97.69041L34.56439,97.21036L35.04445,97.21036L35.04445,95.05013L35.52451,95.05013L35.52451,93.12992L36.00457,93.12992
				L36.00457,91.68977L36.48463,91.68977L36.48463,89.76957L36.96469,89.76957L36.96469,87.84936L37.68478,87.84936L37.68478,85.68913
				L38.16484,85.68913L38.16484,83.76893L38.6449,83.76893L38.6449,81.84872L39.12497,81.84872L39.12497,79.92852L39.60503,79.92852
				L39.60503,78.48836L40.08509,78.48836L40.08509,77.28824L40.56515,77.28824L40.56515,78.00831L42.00533,78.00831L42.00533,78.48836
				L42.96545,78.48836L42.96545,78.96842L44.40564,78.96842L44.40564,79.44847L45.36576,79.44847L45.36576,79.92852L47.04597,79.92852
				L47.04597,80.40857L48.48615,80.40857L48.48615,80.88862L49.44628,80.88862L49.44628,81.36867L50.88646,81.36867L50.88646,81.84872
				L51.84658,81.84872L51.84658,82.32877L53.28676,82.32877L53.28676,82.80882L54.24688,82.80882L54.24688,83.28888L55.44704,83.28888
				L55.44704,83.76893L56.40716,83.76893L56.40716,84.24898L56.88722,84.24898L56.88722,84.72903L57.84734,84.72903L57.84734,85.20908
				L58.3274,85.20908L58.3274,85.68913L58.80746,85.68913L58.80746,86.16918L59.28752,86.16918L59.28752,87.36931L59.76759,87.36931
				L59.76759,87.84936L60.24765,87.84936L60.24765,88.80946L60.72771,88.80946L60.72771,89.28952L61.20777,89.28952L61.20777,90.24962
				L61.68783,90.24962L61.68783,90.72967L62.16789,90.72967L62.16789,91.68977L62.64795,91.68977L62.64795,92.64987L63.12801,92.64987
				L63.12801,93.12992L63.60807,93.12992L63.60807,94.09003L64.32816,94.09003L64.32816,95.05013L64.80822,95.05013L64.80822,96.25026
				L65.28829,96.25026L65.28829,96.73031L65.76835,96.73031L65.76835,97.69041L66.24841,97.69041L66.24841,98.17046L66.72847,98.17046
				L66.72847,99.13056L67.20853,99.13056L67.20853,99.61062L67.68859,99.61062L67.68859,100.09067L68.16865,100.09067L68.16865,101.05077
				L68.64871,101.05077L68.64871,101.53082L69.12877,101.53082L69.12877,102.01087L69.60883,102.01087L69.60883,102.49092L69.12877,102.49092
				L69.12877,102.97097L68.64871,102.97097L68.64871,103.45102L68.16865,103.45102L68.16865,103.93108L67.68859,103.93108L67.68859,104.65115
				L67.20853,104.65115L67.20853,105.1312L66.72847,105.1312L66.72847,105.61125L66.24841,105.61125L66.24841,106.09131L65.76835,106.09131
				L65.76835,106.57136L65.28829,106.57136L65.28829,107.05141L64.80822,107.05141L64.80822,107.53146L64.32816,107.53146L64.32816,108.97161
				L63.60807,108.97161L63.60807,111.37187L63.12801,111.37187L63.12801,114.01215"/>
			<path clip-path="url(#SVG_CP_2)" fill="none" stroke="#999999" stroke-width="0.96012" stroke-miterlimit="10" stroke-linecap="round" stroke-linejoin="round" d="
				M134.17703,117.37251L132.25678,117.37251L132.25678,114.4922L131.77672,114.4922L131.77672,110.89182L132.73685,110.89182L132.73685,110.41177
				L135.37718,110.41177L135.37718,109.93171L137.77748,109.93171L137.77748,109.45166L140.17779,109.45166L140.17779,108.97161
				L142.09803,108.97161L142.09803,108.49156L144.25831,108.49156L144.25831,108.01151L145.69849,108.01151L145.69849,107.53146
				L147.61873,107.53146L147.61873,107.05141L149.53898,107.05141L149.53898,106.57136L151.45922,106.57136L151.45922,106.09131
				L153.6195,106.09131L153.6195,105.61125L155.53974,105.61125L155.53974,105.1312L156.97992,105.1312L156.97992,107.53146L156.49986,107.53146
				L156.49986,110.41177L156.0198,110.41177L156.0198,110.89182L155.53974,110.89182L155.53974,111.37187L153.6195,111.37187L153.6195,111.85192
				L151.45922,111.85192L151.45922,112.33197L150.01904,112.33197L150.01904,112.81202L148.09879,112.81202L148.09879,113.5321L
				146.65861,113.5321L146.65861,114.01215L144.73837,114.01215L144.73837,114.4922L143.05815,114.4922L143.05815,114.97225L141.13791,114.97225
				L141.13791,115.4523L139.21767,115.4523L139.21767,115.93235L137.77748,115.93235L137.77748,116.41241L135.85724,116.41241L135.85724,116.89246
				L134.17703,116.89246L134.17703,117.37251"/>
			<path clip-path="url(#SVG_CP_2)" fill="none" stroke="#999999" stroke-width="0.96012" stroke-miterlimit="10" stroke-linecap="round" stroke-linejoin="round" d="
				M-6.24079,66.00703L-0.96012,66.00703L-0.96012,61.68657L-0.48006,61.68657L-0.48006,58.08619L0,58.08619L0,57.60614L0.48006,57.60614
				L0.48006,57.12609L1.68021,57.12609L1.68021,56.64604L2.16027,56.64604L2.16027,56.16599L3.1204,56.16599L3.1204,55.68593L3.60046,55.68593
				L3.60046,55.20588L4.56058,55.20588L4.56058,54.72583L5.5207,54.72583L5.5207,54.24578L6.00076,54.24578L6.00076,53.76573L6.96088,53.76573
				L6.96088,53.28568L7.44094,53.28568L7.44094,52.80563L8.40107,52.80563L8.40107,52.32558L8.88113,52.32558L8.88113,51.84553L
				11.52146,51.84553L11.52146,52.32558L12.96165,52.32558L12.96165,52.80563L13.44171,52.80563L13.44171,53.28568L12.96165,53.28568
				L12.96165,54.72583L12.48158,54.72583L12.48158,56.16599L12.00152,56.16599L12.00152,57.60614L11.52146,57.60614L11.52146,59.04629
				L11.0414,59.04629L11.0414,60.72647L10.56134,60.72647L10.56134,62.16663L9.84125,62.16663L9.84125,63.60678L9.36119,63.60678
				L9.36119,65.52698L8.88113,65.52698L8.88113,66.96714L8.40107,66.96714L8.40107,68.40729L7.92101,68.40729L7.92101,69.12737L
				8.40107,69.12737L8.40107,69.60742L9.36119,69.60742L9.36119,70.08747L10.56134,70.08747L10.56134,70.56752L11.0414,70.56752
				L11.0414,71.04757L10.56134,71.04757L10.56134,71.52762L9.84125,71.52762L9.84125,72.00767L9.36119,72.00767L9.36119,72.96778
				L8.88113,72.96778L8.88113,73.44783L8.40107,73.44783L8.40107,74.40793L7.92101,74.40793L7.92101,74.88798L7.44094,74.88798L
				7.44094,75.84808L6.96088,75.84808L6.96088,76.32813L6.48082,76.32813L6.48082,77.28824L6.00076,77.28824L6.00076,78.00831L5.5207,78.00831
				L5.5207,78.96842L5.04064,78.96842L5.04064,79.44847L4.56058,79.44847L4.56058,80.40857L4.08052,80.40857L4.08052,81.36867L3.60046,81.36867
				L3.60046,81.84872L3.1204,81.84872L3.1204,82.80882L2.64034,82.80882L2.64034,83.28888L2.16027,83.28888L2.16027,84.24898L1.68021,84.24898
				L1.68021,84.72903L0.96012,84.72903L0.96012,85.68913L0.48006,85.68913L0.48006,86.16918L0,86.16918L0,87.36931L-0.48006,87.36931
				L-0.48006,87.84936L-0.96012,87.84936L-0.96012,88.80946L-1.44018,88.80946L-1.44018,89.28952L-1.92024,89.28952L-1.92024,90.24962
				L-2.40031,90.24962L-2.40031,90.72967L-2.88037,90.72967L-2.88037,91.20972L-3.36043,91.20972L-3.36043,92.16982L-3.84049,92.16982
				L-3.84049,92.64987L-4.32055,92.64987L-4.32055,93.60998L-4.80061,93.60998L-4.80061,94.57008L-5.28067,94.57008L-5.28067,95.77021
				L-5.76073,95.77021L-5.76073,96.73031L-6.24079,96.73031"/>
			<path clip-path="url(#SVG_CP_2)" fill="none" stroke="#999999" stroke-width="0.96012" stroke-miterlimit="10" stroke-linecap="round" stroke-linejoin="round" d="
				M601.9964,643.7486L-6.24079,643.7486"/>
			<path clip-path="url(#SVG_CP_2)" fill="none" stroke="#999999" stroke-width="0.96012" stroke-miterlimit="10" stroke-linecap="round" stroke-linejoin="round" d="
				M-6.24079,299.3119L-5.76073,299.3119L-5.76073,299.79195L-4.80061,299.79195L-4.80061,300.272L-3.36043,300.272L-3.36043,300.99207
				L-2.40031,300.99207L-2.40031,301.47213L-1.44018,301.47213L-1.44018,301.95218L0,301.95218L0,302.43223L0.96012,302.43223L0.96012,302.91228
				L2.64034,302.91228L2.64034,303.39233L3.60046,303.39233L3.60046,303.87238L4.56058,303.87238L4.56058,304.35243L6.00076,304.35243
				L6.00076,304.83248L6.96088,304.83248L6.96088,305.31253L8.40107,305.31253L8.40107,305.79259L9.36119,305.79259L9.36119,306.27264
				L10.56134,306.27264L10.56134,306.75269L12.00152,306.75269L12.00152,307.23274L12.96165,307.23274L12.96165,307.71279L14.40183,307.71279
				L14.40183,308.19284L15.36195,308.19284L15.36195,308.67289L16.32207,308.67289L16.32207,309.15294L17.76225,309.15294L17.76225,309.87302
				L18.72238,309.87302L18.72238,310.35307L19.92253,310.35307L19.92253,310.83312L21.36271,310.83312L21.36271,311.31317L22.32283,311.31317
				L22.32283,311.79323L23.28296,311.79323L23.28296,312.27328L24.72314,312.27328L24.72314,312.75333L25.68326,312.75333L25.68326,313.23338
				L26.64338,313.23338L26.64338,313.71343L28.08356,313.71343L28.08356,314.19348L29.28372,314.19348L29.28372,314.67353L30.7239,314.67353
				L30.7239,315.15358L31.68402,315.15358L31.68402,315.63363L32.64414,315.63363L32.64414,316.11369L34.08433,316.11369L34.08433,316.59374
				L35.04445,316.59374L35.04445,317.07379L36.00457,317.07379L36.00457,317.55384L37.68478,317.55384L37.68478,318.03389L38.6449,318.03389
				L38.6449,318.75397L39.60503,318.75397L39.60503,319.23402L41.04521,319.23402L41.04521,319.71407L42.00533,319.71407L42.00533,320.19412
				L42.96545,320.19412L42.96545,320.67417L44.40564,320.67417L44.40564,321.15422L45.36576,321.15422L45.36576,321.63427L46.56591,321.63427
				L46.56591,322.11433L48.00609,322.11433L48.00609,322.59438L48.96621,322.59438L48.96621,323.07443L49.92634,323.07443L49.92634,323.55448
				L51.36652,323.55448L51.36652,324.03453L52.32664,324.03453L52.32664,324.51458L53.28676,324.51458L53.28676,324.99463L54.24688,324.99463
				L54.24688,325.47468L55.9271,325.47468L55.9271,325.95473L56.88722,325.95473L56.88722,326.43479L57.84734,326.43479L57.84734,326.91484
				L59.28752,326.91484L59.28752,327.63491L60.24765,327.63491L60.24765,328.11496L61.20777,328.11496L61.20777,328.59502L62.64795,328.59502
				L62.64795,329.07507L63.60807,329.07507L63.60807,329.55512L64.32816,329.55512L64.32816,330.51522L63.60807,330.51522L63.60807,332.91548
				L63.12801,332.91548L63.12801,336.51586L62.64795,336.51586L62.64795,340.35627L62.16789,340.35627L62.16789,343.71663L61.68783,343.71663
				L61.68783,346.83696L63.12801,346.83696L63.12801,347.31701L66.24841,347.31701L66.24841,347.79706L69.12877,347.79706L69.12877,348.27711
				L72.00914,348.27711L72.00914,348.75716L75.12953,348.75716L75.12953,349.23722L78.0099,349.23722L78.0099,349.71727L80.89027,349.71727
				L80.89027,350.19732L84.01066,350.19732L84.01066,350.67737L86.89103,350.67737L86.89103,351.15742L89.77139,351.15742L89.77139,351.63747
				L92.41173,351.63747L92.41173,352.11752L95.29209,352.11752L95.29209,352.59757L98.17246,352.59757L98.17246,353.07762L101.29285,353.07762
				L101.29285,353.55768L104.17322,353.55768L104.17322,354.27775L107.05359,354.27775L107.05359,354.7578L109.21386,354.7578L109.21386,355.23785
				L111.61416,355.23785L111.61416,355.71791L114.01447,355.71791L114.01447,356.19796L115.93471,356.19796L115.93471,356.67801
				L118.57505,356.67801L118.57505,357.15806L120.49529,357.15806L120.49529,357.63811L122.8956,357.63811L122.8956,358.11816L125.2959,358.11816
				L125.2959,358.59821L127.45618,358.59821L127.45618,359.07826L129.85648,359.07826L129.85648,359.55832L131.77672,359.55832L
				131.77672,360.03837L134.17703,360.03837L134.17703,360.51842L136.81736,360.51842L136.81736,360.99847L138.73761,360.99847L
				138.73761,361.47852L141.13791,361.47852L141.13791,361.95857L143.05815,361.95857L143.05815,362.43862L143.53822,362.43862L
				143.53822,349.23722L144.73837,349.23722L144.73837,349.71727L145.69849,349.71727L145.69849,350.19732L146.17855,350.19732L
				146.17855,347.79706L145.69849,347.79706L145.69849,344.67673L145.21843,344.67673L145.21843,341.79642L144.73837,341.79642L
				144.73837,339.39617L146.65861,339.39617L146.65861,338.91612L149.53898,338.91612L149.53898,338.43606L152.41934,338.43606L
				152.41934,338.91612L153.13943,338.91612L153.13943,342.27647L153.6195,342.27647L153.6195,345.87686L154.09956,345.87686L154.09956,349.23722
				L154.57962,349.23722L154.57962,353.07762L155.05968,353.07762L155.05968,364.59885L154.57962,364.59885L154.57962,395.0821L
				154.09956,395.0821L154.09956,429.16573L153.6195,429.16573L153.6195,430.12584L154.09956,430.12584L154.09956,431.56599L155.53974,431.56599
				L155.53974,432.04604L167.30123,432.04604L167.30123,432.52609L197.30504,432.52609L197.30504,432.04604L198.02513,432.04604
				L198.02513,431.56599L197.30504,431.56599L197.30504,430.60589L196.82498,430.60589L196.82498,429.16573L196.34492,429.16573
				L196.34492,427.72558L209.30656,427.72558L209.30656,427.24553L222.02818,427.24553L222.02818,426.76548L234.98982,426.76548
				L234.98982,465.64962L247.71144,465.64962L247.71144,466.12967L261.6332,466.12967L261.6332,497.333L261.15314,497.333L261.15314,497.81305
				L257.07262,497.81305L257.07262,497.333L256.59256,497.333L256.59256,496.85295L256.1125,496.85295L256.1125,496.13287L255.63244,496.13287
				L255.63244,495.65282L255.15238,495.65282L255.15238,495.17277L254.67232,495.17277L254.67232,494.69272L253.7122,494.69272L
				253.7122,494.21266L251.79195,494.21266L251.79195,493.73261L251.31189,493.73261L251.31189,494.21266L250.11174,494.21266L250.11174,494.69272
				L249.15162,494.69272L249.15162,495.17277L247.71144,495.17277L247.71144,495.65282L247.23137,495.65282L247.23137,496.13287
				L246.75131,496.13287L246.75131,496.85295L245.79119,496.85295L245.79119,497.333L245.31113,497.333L245.31113,497.81305L237.87019,497.81305
				L237.87019,498.2931L236.91007,498.2931L236.91007,498.77315L236.43,498.77315L236.43,499.2532L235.46988,499.2532L235.46988,499.73325
				L234.98982,499.73325L234.98982,500.2133L234.0297,500.2133L234.0297,500.69335L232.82955,500.69335L232.82955,501.17341L232.34949,501.17341
				L232.34949,501.65346L231.38936,501.65346L231.38936,502.13351L230.42924,502.13351L230.42924,502.61356L229.94918,502.61356
				L229.94918,503.09361L228.98906,503.09361L228.98906,503.57366L228.509,503.57366L228.509,504.05371L227.54888,504.05371L227.54888,504.53376
				L226.58876,504.53376L226.58876,505.01382L226.10869,505.01382L226.10869,505.73389L225.14857,505.73389L225.14857,506.21394
				L223.94842,506.21394L223.94842,506.69399L223.46836,506.69399L223.46836,507.17405L222.50824,507.17405L222.50824,507.6541L
				221.54812,507.6541L221.54812,508.13415L221.06805,508.13415L221.06805,508.6142L219.14781,508.6142L219.14781,509.09425L216.74751,509.09425
				L216.74751,509.5743L213.62711,509.5743L213.62711,510.05435L211.22681,510.05435L211.22681,510.5344L208.8265,510.5344L208.8265,511.01445
				L206.18617,511.01445L206.18617,511.49451L205.22604,511.49451L205.22604,511.97456L204.26592,511.97456L204.26592,512.45461
				L203.78586,512.45461L203.78586,512.93466L202.82574,512.93466L202.82574,513.41471L202.34568,513.41471L202.34568,513.89476
				L201.86562,513.89476L201.86562,514.61484L200.9055,514.61484L200.9055,515.09489L200.42544,515.09489L200.42544,515.57494L196.82498,515.57494
				L196.82498,516.05499L192.98449,516.05499L192.98449,516.53504L191.54431,516.53504L191.54431,517.01509L190.58419,517.01509
				L190.58419,517.49515L189.62406,517.49515L189.62406,517.9752L188.42391,517.9752L188.42391,518.9353L189.144,518.9353L189.144,521.33555
				L192.98449,521.33555L192.98449,521.81561L196.82498,521.81561L196.82498,522.29566L200.9055,522.29566L200.9055,522.77571L201.86562,522.77571
				L201.86562,522.29566L203.78586,522.29566L203.78586,521.81561L205.70611,521.81561L205.70611,521.33555L207.86638,521.33555
				L207.86638,520.8555L210.26668,520.8555L210.26668,520.37545L212.66699,520.37545L212.66699,519.8954L215.06729,519.8954L215.06729,519.41535
				L217.70763,519.41535L217.70763,518.9353L220.10793,518.9353L220.10793,518.45525L222.9883,518.45525L222.9883,517.9752L226.10869,517.9752
				L226.10869,517.49515L228.98906,517.49515L228.98906,517.01509L242.91083,517.01509L242.91083,517.49515L244.83107,517.49515
				L244.83107,517.9752L247.23137,517.9752L247.23137,518.45525L249.15162,518.45525L249.15162,518.9353L252.75208,518.9353L252.75208,518.45525
				L254.67232,518.45525L254.67232,517.9752L255.63244,517.9752L255.63244,517.49515L256.1125,517.49515L256.1125,517.01509L256.59256,517.01509
				L256.59256,516.53504L257.07262,516.53504L257.07262,516.05499L257.55268,516.05499L257.55268,515.57494L258.03275,515.57494
				L258.03275,515.09489L258.51281,515.09489L258.51281,513.89476L258.99287,513.89476L258.99287,513.41471L259.47293,513.41471
				L259.47293,512.93466L260.19302,512.93466L260.19302,512.45461L260.67308,512.45461L260.67308,511.97456L261.15314,511.97456
				L261.15314,511.01445L261.6332,511.01445L261.6332,510.05435L262.11326,510.05435L262.11326,509.5743L263.55345,509.5743L263.55345,509.09425
				L264.99363,509.09425L264.99363,508.6142L266.43381,508.6142L266.43381,508.13415L267.87399,508.13415L267.87399,507.6541L269.55421,507.6541
				L269.55421,506.69399L269.07415,506.69399L269.07415,504.05371L268.35406,504.05371L268.35406,501.65346L267.87399,501.65346
				L267.87399,500.69335L267.39393,500.69335L267.39393,500.2133L266.91387,500.2133L266.91387,499.73325L266.43381,499.73325L266.43381,499.2532
				L265.95375,499.2532L265.95375,498.2931L265.47369,498.2931L265.47369,497.81305L264.51357,497.81305L264.51357,497.333L262.11326,497.333
				L262.11326,466.12967L288.27658,466.12967L288.27658,466.60972L303.3985,466.60972L303.3985,467.08977L308.9192,467.08977L308.9192,467.56983
				L309.39926,467.56983L309.39926,470.21011L309.87933,470.21011L309.87933,472.13031L310.83945,472.13031L310.83945,472.61036
				L312.27963,472.61036L312.27963,473.09041L313.95984,473.09041L313.95984,473.57046L315.40003,473.57046L315.40003,474.05052
				L316.84021,474.05052L316.84021,474.53057L318.28039,474.53057L318.28039,475.01062L319.72057,475.01062L319.72057,475.49067
				L321.16076,475.49067L321.16076,475.97072L322.84097,475.97072L322.84097,476.45077L323.32103,476.45077L323.32103,476.93082
				L324.28115,476.93082L324.28115,477.41087L325.24127,477.41087L325.24127,477.89092L326.2014,477.89092L326.2014,478.37098L327.16152,478.37098
				L327.16152,479.09105L328.12164,479.09105L328.12164,479.5711L329.08176,479.5711L329.08176,480.05116L330.04188,480.05116L330.04188,480.53121
				L331.00201,480.53121L331.00201,481.01126L332.20216,481.01126L332.20216,481.49131L332.68222,481.49131L332.68222,481.97136
				L333.64234,481.97136L333.64234,482.45141L334.60246,482.45141L334.60246,482.93146L335.56258,482.93146L335.56258,483.41151
				L336.52271,483.41151L336.52271,483.89156L337.00277,483.89156L337.00277,484.37162L337.96289,484.37162L337.96289,484.85167
				L338.44295,484.85167L338.44295,485.33172L338.92301,485.33172L338.92301,485.81177L339.88313,485.81177L339.88313,486.29182
				L340.60322,486.29182L340.60322,486.77187L341.08328,486.77187L341.08328,487.25192L342.04341,487.25192L342.04341,487.972L342.52347,487.972
				L342.52347,488.45205L343.00353,488.45205L343.00353,488.9321L343.96365,488.9321L343.96365,489.41215L344.44371,489.41215L344.44371,489.8922
				L344.92377,489.8922L344.92377,490.37225L345.88389,490.37225L345.88389,490.85231L346.36396,490.85231L346.36396,491.33236L
				346.84402,491.33236L346.84402,491.81241L347.80414,491.81241L347.80414,492.29246L348.2842,492.29246L348.2842,492.77251L348.76426,492.77251
				L348.76426,493.25256L349.96441,493.25256L349.96441,493.73261L350.44447,493.73261L350.44447,494.21266L351.40459,494.21266
				L351.40459,494.69272L351.88466,494.69272L351.88466,495.17277L352.36472,495.17277L352.36472,495.65282L353.32484,495.65282
				L353.32484,496.13287L353.8049,496.13287L353.8049,496.85295L354.28496,496.85295L354.28496,497.333L355.24508,497.333L355.24508,497.81305
				L355.72514,497.81305L355.72514,498.2931L356.2052,498.2931L356.2052,498.77315L357.16533,498.77315L357.16533,499.2532L357.64539,499.2532
				L357.64539,499.73325L358.36548,499.73325L358.36548,500.2133L359.3256,500.2133L359.3256,500.69335L359.80566,500.69335L359.80566,501.17341
				L360.28572,501.17341L360.28572,501.65346L361.24584,501.65346L361.24584,502.13351L361.7259,502.13351L361.7259,504.05371L361.24584,504.05371
				L361.24584,505.73389L360.76578,505.73389L360.76578,507.6541L360.28572,507.6541L360.28572,509.5743L359.80566,509.5743L359.80566,511.01445
				L359.3256,511.01445L359.3256,512.93466L358.84554,512.93466L358.84554,515.09489L358.36548,515.09489L358.36548,516.53504L357.64539,516.53504
				L357.64539,518.45525L357.16533,518.45525L357.16533,520.37545L356.68526,520.37545L356.68526,521.81561L356.2052,521.81561L
				356.2052,523.97584L355.72514,523.97584L355.72514,524.93594L356.2052,524.93594L356.2052,525.41599L356.68526,525.41599L356.68526,525.89604
				L357.64539,525.89604L357.64539,526.37609L358.36548,526.37609L358.36548,526.85614L358.84554,526.85614L358.84554,527.33619
				L359.80566,527.33619L359.80566,527.81625L360.76578,527.81625L360.76578,528.2963L362.20597,528.2963L362.20597,528.77635L363.16609,528.77635
				L363.16609,529.2564L364.60627,529.2564L364.60627,529.73645L365.56639,529.73645L365.56639,530.2165L367.24661,530.2165L367.24661,530.69655
				L368.20673,530.69655L368.20673,531.1766L369.64691,531.1766L369.64691,531.65665L371.08709,531.65665L371.08709,532.37673L372.52728,532.37673
				L372.52728,532.85678L373.96746,532.85678L373.96746,533.33683L374.92758,533.33683L374.92758,533.81688L376.12773,533.81688
				L376.12773,534.29694L376.60779,534.29694L376.60779,534.77699L377.56791,534.77699L377.56791,535.25704L378.04798,535.25704
				L378.04798,535.73709L379.0081,535.73709L379.0081,536.21714L379.96822,536.21714L379.96822,536.69719L380.44828,536.69719L380.44828,537.17724
				L381.4084,537.17724L381.4084,537.65729L381.88846,537.65729L381.88846,538.13734L382.36852,538.13734L382.36852,538.6174L383.32865,538.6174
				L383.32865,539.09745L383.80871,539.09745L383.80871,539.5775L384.28877,539.5775L384.28877,540.05755L385.48892,540.05755L385.48892,540.5376
				L385.96898,540.5376L385.96898,541.25768L386.44904,541.25768L386.44904,541.73773L387.40916,541.73773L387.40916,542.21778L
				387.88922,542.21778L387.88922,542.69783L388.36929,542.69783L388.36929,543.17788L388.84935,543.17788L388.84935,543.65793L
				389.80947,543.65793L389.80947,544.13798L390.28953,544.13798L390.28953,544.61804L391.24965,544.61804L391.24965,545.09809L
				392.20977,545.09809L392.20977,545.57814L393.16989,545.57814L393.16989,546.05819L394.37005,546.05819L394.37005,546.53824L
				395.33017,546.53824L395.33017,547.01829L396.29029,547.01829L396.29029,547.49834L397.73047,547.49834L397.73047,547.97839L
				399.17066,547.97839L399.17066,548.45844L400.13078,548.45844L400.13078,548.9385L402.05102,548.9385L402.05102,549.41855L405.17142,549.41855
				L405.17142,550.13862L409.01191,550.13862L409.01191,550.61867L409.49197,550.61867L409.49197,552.05883L409.97203,552.05883
				L409.97203,553.01893L410.45209,553.01893L410.45209,553.97903L410.93215,553.97903L410.93215,555.41919L411.65224,555.41919
				L411.65224,556.37929L412.1323,556.37929L412.1323,557.33939L412.61236,557.33939L412.61236,558.29949L413.09242,558.29949L413.09242,559.97967
				L413.57248,559.97967L413.57248,560.93977L414.05254,560.93977L414.05254,561.89988L414.53261,561.89988L414.53261,563.34003
				L415.01267,563.34003L415.01267,564.30013L415.49273,564.30013L415.49273,565.26024L415.97279,565.26024L415.97279,566.22034
				L416.45285,566.22034L416.45285,567.90052L416.93291,567.90052L416.93291,568.86062L417.41297,568.86062L417.41297,569.82072
				L417.89303,569.82072L417.89303,571.26087L418.37309,571.26087L418.37309,572.22098L418.85315,572.22098L418.85315,573.18108
				L419.33322,573.18108L419.33322,574.62123L419.81328,574.62123L419.81328,575.58133L420.53337,575.58133L420.53337,576.78146
				L421.01343,576.78146L421.01343,577.74157L421.49349,577.74157L421.49349,579.18172L421.97355,579.18172L421.97355,580.14182
				L422.45361,580.14182L422.45361,584.94233L422.93367,584.94233L422.93367,587.10256L423.41373,587.10256L423.41373,588.54272
				L423.89379,588.54272L423.89379,589.98287L424.37385,589.98287L424.37385,591.42302L425.33398,591.42302L425.33398,591.90307
				L427.25422,591.90307L427.25422,592.38313L428.6944,592.38313L428.6944,592.86318L430.37462,592.86318L430.37462,593.34323L431.8148,593.34323
				L431.8148,593.82328L433.25498,593.82328L433.25498,594.30333L435.17523,594.30333L435.17523,595.02341L437.09547,595.02341L
				437.09547,595.50346L440.21587,595.50346L440.21587,595.98351L442.61617,595.98351L442.61617,596.46356L445.49654,596.46356L
				445.49654,596.94361L448.13687,596.94361L448.13687,597.42366L451.01724,597.42366L451.01724,597.90371L453.8976,597.90371L453.8976,598.38376
				L456.53794,598.38376L456.53794,598.86382L459.4183,598.86382L459.4183,599.34387L461.81861,599.34387L461.81861,599.82392L462.29867,599.82392
				L462.29867,600.30397L462.77873,600.30397L462.77873,601.26407L463.25879,601.26407L463.25879,602.70423L463.73885,602.70423
				L463.73885,603.90435L464.21891,603.90435L464.21891,605.34451L464.69897,605.34451L464.69897,606.30461L465.41906,606.30461
				L465.41906,607.74476L465.89912,607.74476L465.89912,609.18492L466.37919,609.18492L466.37919,610.14502L466.85925,610.14502
				L466.85925,611.58517L467.33931,611.58517L467.33931,612.7853L467.81937,612.7853L467.81937,614.22545L468.29943,614.22545L468.29943,615.18556
				L468.77949,615.18556L468.77949,616.62571L469.25955,616.62571L469.25955,618.06586L469.73961,618.06586L469.73961,619.02596
				L470.21967,619.02596L470.21967,619.98607L470.69973,619.98607L470.69973,621.66625L471.17979,621.66625L471.17979,622.62635
				L471.65986,622.62635L471.65986,623.58645L472.13992,623.58645L472.13992,625.0266L472.61998,625.0266L472.61998,625.98671L473.10004,625.98671
				L473.10004,627.42686L473.5801,627.42686L473.5801,628.38696L474.30019,628.38696L474.30019,629.34706L474.78025,629.34706L474.78025,631.02724
				L475.26031,631.02724L475.26031,631.98735L475.74037,631.98735L475.74037,632.94745L476.22043,632.94745L476.22043,633.90755
				L479.58086,633.90755L479.58086,633.4275L483.66138,633.4275L483.66138,632.94745L487.0218,632.94745L487.0218,632.4674L490.38223,632.4674
				L490.38223,631.98735L493.98269,631.98735L493.98269,631.50729L497.82318,631.50729L497.82318,631.02724L501.42363,631.02724
				L501.42363,630.54719L504.78406,630.54719L504.78406,629.82712L508.62455,629.82712L508.62455,629.34706L512.225,629.34706L512.225,628.86701
				L515.58543,628.86701L515.58543,628.38696L519.18589,628.38696L519.18589,627.90691L523.02637,627.90691L523.02637,627.42686
				L526.3868,627.42686L526.3868,626.94681L529.98726,626.94681L529.98726,626.46676L533.34768,626.46676L533.34768,625.98671L536.94814,625.98671
				L536.94814,625.50666L540.30857,625.50666L540.30857,625.0266L544.14905,625.0266L544.14905,624.54655L547.26945,624.54655L547.26945,624.0665
				L550.14982,624.0665L550.14982,623.58645L553.03018,623.58645L553.03018,623.1064L555.67052,623.1064L555.67052,622.62635L558.55088,622.62635
				L558.55088,622.1463L561.43125,622.1463L561.43125,621.66625L564.55164,621.66625L564.55164,620.94617L567.43201,620.94617L567.43201,620.46612
				L568.87219,620.46612L568.87219,613.7454L569.35225,613.7454L569.35225,604.3844L569.83231,604.3844L569.83231,604.86446L570.31237,604.86446
				L570.31237,605.34451L570.79244,605.34451L570.79244,605.82456L571.99259,605.82456L571.99259,606.30461L572.47265,606.30461
				L572.47265,606.78466L572.95271,606.78466L572.95271,607.26471L573.43277,607.26471L573.43277,607.74476L573.91283,607.74476
				L573.91283,608.22481L574.39289,608.22481L574.39289,608.70486L574.87295,608.70486L574.87295,609.18492L575.35301,609.18492
				L575.35301,609.66497L575.83308,609.66497L575.83308,610.14502L576.31314,610.14502L576.31314,610.62507L576.7932,610.62507L
				576.7932,611.10512L577.27326,611.10512L577.27326,611.58517L577.75332,611.58517L577.75332,612.06522L578.23338,612.06522L578.23338,612.7853
				L578.71344,612.7853L578.71344,613.26535L579.1935,613.26535L579.1935,613.7454L579.67356,613.7454L579.67356,614.22545L580.15362,614.22545
				L580.15362,614.7055L581.35378,614.7055L581.35378,615.18556L581.83384,615.18556L581.83384,615.66561L582.3139,615.66561L582.3139,616.14566
				L582.79396,616.14566L582.79396,616.62571L583.75408,616.62571L583.75408,617.10576L584.23414,617.10576L584.23414,617.58581
				L584.7142,617.58581L584.7142,618.06586L585.67432,618.06586L585.67432,618.54591L586.15439,618.54591L586.15439,619.02596L586.63445,619.02596
				L586.63445,619.50602L587.11451,619.50602L587.11451,619.98607L588.07463,619.98607L588.07463,620.46612L588.55469,620.46612
				L588.55469,620.94617L589.03475,620.94617"/>
			<path clip-path="url(#SVG_CP_2)" fill="none" stroke="#999999" stroke-width="0.96012" stroke-miterlimit="10" stroke-linecap="round" stroke-linejoin="round" d="
				M589.03475,620.94617L589.03475,621.66625L590.2349,621.66625L590.2349,622.1463L590.71496,622.1463L590.71496,622.62635L591.19502,622.62635
				L591.19502,623.1064L591.67509,623.1064L591.67509,623.58645L592.63521,623.58645L592.63521,624.0665L593.11527,624.0665L593.11527,624.54655
				L594.55545,624.54655L594.55545,625.0266L596.95576,625.0266L596.95576,625.50666L599.59609,625.50666L599.59609,625.98671L601.9964,625.98671
				L601.9964,626.46676"/>
		</g>
</g></svg>