<?xml version="1.0" encoding="utf-8" standalone="no"?>
<!-- Creator: ESRI ArcMap 10.0.0.2414 -->
<!DOCTYPE svg PUBLIC "-//W3C//DTD SVG 1.1//EN"  "http://www.w3.org/Graphics/SVG/1.1/DTD/svg11.dtd">
<svg width="595.50236pt" height="595.50236pt" viewBox="25 148.377955 545.50236 545.50236" enable-background="new 25 148.377955 545.50236 545.50236"
	version="1.1" xmlns="http://www.w3.org/2000/svg" xmlns:xlink="http://www.w3.org/1999/xlink" >
	<g id="Couches">
		<g id="reservoirs">
			<clipPath id="SVG_CP_2">
				<path d="M574.39289,21.36228L21.36271,21.36228L21.36271,821.36753L574.39289,821.36753L574.39289,21.36228z"/>
			</clipPath>
			<path clip-path="url(#SVG_CP_2)" fill-opacity="0.08" fill="#2f4493" fill-rule="evenodd" stroke="#2f4493" stroke-width="1" stra="1.44018" stroke-miterlimit="10" stroke-linecap="round" stroke-linejoin="round" d="
				M-6.24079,303.39233L25.68326,305.79259L135.61721,395.80218L239.31037,435.4064L376.84782,413.32404L321.64082,457.9688L205.46607,538.6174
				L71.76911,408.76356L-6.24079,310.5931L-6.24079,303.39233z"/>
			<path clip-path="url(#SVG_CP_2)" fill-opacity="0.08" fill="#2f4493" fill-rule="evenodd" stroke="#2f4493" stroke-width="1" stra="1.44018" stroke-miterlimit="10" stroke-linecap="round" stroke-linejoin="round" d="
				M279.39546,861.21177L335.08252,831.92865L351.16456,823.28773L363.88618,813.68671L362.68603,811.52648L409.49197,774.32251
				L476.22043,739.27878L560.2311,729.43773L587.11451,722.71701L601.9964,719.11663L601.9964,861.21177L279.39546,861.21177zM601.9964,199.94131
				L547.26945,261.62788L440.69593,361.23849L376.60779,413.08402L239.07034,435.16637L135.37718,395.56215L25.44323,305.55256L
				-6.24079,303.1523L-6.24079,-18.722L601.9964,-18.722L601.9964,199.94131zM536.46808,-15.60166L404.69136,46.08491L356.2052,64.08683
				L348.76426,47.76509L340.60322,30.0032L361.48587,14.88159L345.64386,-8.64092L330.76198,1.20013L268.83412,43.68466L292.59713,65.52698
				L276.51509,87.60934L273.63473,91.44975L218.90778,120.49284L183.86333,150.01599L131.29666,191.54041L129.13639,193.22059L103.45313,205.70192
				L59.52755,227.54425L66.00838,244.34604L121.69544,292.11113L156.49986,271.70895L213.38708,238.82545L265.23366,278.42967L341.80338,188.90013
				L342.04341,188.6601L388.36929,145.4555L362.446,84.00895L365.32636,82.80882L399.89075,69.36739L491.82241,138.01471L541.26869,76.08811
				L515.3454,62.64668L563.11146,19.92212L536.46808,-15.60166z"/>
		</g>
</g></svg>