<?xml version="1.0" encoding="utf-8" standalone="no"?>
<!-- Creator: ESRI ArcMap 10.0.0.2414 -->
<!DOCTYPE svg PUBLIC "-//W3C//DTD SVG 1.1//EN"  "http://www.w3.org/Graphics/SVG/1.1/DTD/svg11.dtd">
<svg width="595.50236pt" height="595.50236pt" viewBox="25 148.377955 545.50236 545.50236" enable-background="new 25 148.377955 545.50236 545.50236"
	version="1.1" xmlns="http://www.w3.org/2000/svg" xmlns:xlink="http://www.w3.org/1999/xlink" >
	<g id="Couches">
		<g id="reservoirs">
			<path clip-path="url(#SVG_CP_2)" fill-opacity="0.2" fill="#07866D" fill-rule="evenodd" stroke="none" stroke-width="" stra="1.44018" stroke-miterlimit="10" stroke-linecap="round" stroke-linejoin="round" d="
				M601.9964,707.5954L588.55469,709.75563L578.95347,706.87533L579.43353,719.11663L584.47417,723.91714L583.99411,729.91778L574.39289,726.79745
				L563.11146,722.95704L559.03094,722.23696L557.35073,716.9564L549.66976,717.19643L544.86915,708.31548L545.10918,700.87469L
				542.46884,689.11343L539.34845,685.27302L540.5486,675.19195L524.94662,671.59157L522.78634,678.55231L523.50643,678.79233L529.5072,679.03236
				L535.74799,693.19387L534.54784,694.87405L535.74799,705.19515L540.78863,704.23504L541.02866,717.43645L535.0279,721.99694L
				533.10765,728.47763L521.82622,733.75819L518.22576,721.27686L513.18513,722.95704L506.7043,725.11727L514.38528,737.35857L518.70583,736.87852
				L521.58619,742.15909L512.225,745.75947L500.94357,749.11983L491.58238,755.60052L483.90141,760.40103L469.49958,764.48146L459.89836,769.04195
				L438.29562,778.883L425.09395,784.88364L411.89227,790.40423L399.89075,792.08441L389.32941,790.88428L386.9291,779.8431L378.52804,778.883
				L376.84782,771.44221L370.84706,773.60244L369.88694,770.4821L360.52575,770.4821L357.40536,770.4821L353.56487,775.28262L353.08481,776.00269
				L352.84478,778.64297L352.36472,784.40359L352.36472,785.60372L336.28268,796.40487L316.36015,807.44604L307.95908,809.12622
				L303.63853,810.08632L300.75817,810.56638L299.79805,806.96599L273.87476,811.52648L273.87476,814.40678L255.39241,819.92737
				L242.19074,824.00781L230.9093,820.1674L221.78815,813.44668L225.86866,809.8463L209.30656,791.84438L192.02437,780.32315L173.54202,771.20218
				L180.02285,762.56126L171.62178,758.72085L165.38099,751.52008L149.29895,741.91906L144.73837,725.59732L133.937,711.91586L136.81736,707.11535
				L136.57733,703.99502L138.01752,702.07481L136.81736,692.71382L145.45846,687.19323L142.81812,676.6321L135.85724,680.47251L
				135.13715,671.59157L249.15162,535.49706L263.79348,517.73517L269.07415,511.49451L270.51433,510.77443L277.23518,508.13415L
				283.23594,511.73453L285.15619,509.5743L284.67613,508.6142L285.15619,507.6541L288.75664,506.21394L291.63701,503.57366L287.07643,498.05307
				L290.67689,495.17277L297.63777,504.05371L304.83869,498.77315L306.99896,501.89348L304.35862,503.81369L309.15923,510.5344L
				311.79957,508.85422L314.67993,512.45461L318.76045,518.21522L312.27963,522.05563L319.72057,532.61676L325.24127,540.29758L
				331.48207,535.25704L337.96289,530.69655L334.84249,526.37609L329.08176,530.69655L323.081,522.77571L322.12088,520.8555L322.12088,520.61548
				L328.6017,516.77507L330.52194,519.8954L332.44219,518.69527L330.52194,515.57494L334.36243,513.17468L335.80261,515.81497L337.72286,515.09489
				L336.28268,512.45461L353.08481,502.85359L355.48511,506.93402L363.88618,502.61356L360.76578,498.2931L364.12621,496.13287L
				367.72667,501.41343L371.80718,498.05307L369.16685,493.49259L384.76883,484.37162L392.20977,480.53121L402.53108,474.05052L
				405.17142,478.85103L410.21206,475.73069L414.53261,482.21139L415.49273,481.49131L420.7734,489.17213L427.97431,481.97136L425.33398,475.73069
				L420.53337,463.24936L422.45361,461.80921L425.33398,459.40896L428.21434,456.76867L430.61465,453.40832L431.8148,451.72814L
				435.17523,447.6477L436.85544,450.52801L441.17599,448.6078L445.49654,453.16829L446.45666,453.40832L452.69745,449.08786L457.73809,444.04732
				L457.018,440.92699L460.85848,437.08658L462.5387,435.88645L469.25955,428.92571L477.42059,420.76484L478.86077,419.08466L480.54098,421.24489
				L482.94129,425.0853L485.34159,428.20563L485.58162,429.40576L486.30171,432.28607L488.70202,442.12711L489.42211,443.56727L
				490.38223,444.28734L491.34235,445.96752L493.50263,453.64834L498.54327,468.2899L499.02333,469.73006L499.02333,470.93018L497.58315,474.77059
				L499.50339,476.93082L508.62455,470.69016L516.06549,465.64962L532.38756,454.36842L537.18817,450.76803L547.74951,442.84719
				L549.18969,441.88709L552.31009,442.12711L553.51024,442.36714L553.51024,441.40704L553.9903,439.72686L554.95043,437.80665L
				555.67052,436.60653L562.87143,431.08594L569.11222,425.32532L576.07311,417.88453L577.75332,419.80474L579.67356,417.64451L
				577.99335,415.7243L581.59381,410.68376L585.67432,414.7642L590.2349,409.00358L586.63445,404.92315L590.2349,399.88261L592.15515,401.56279
				L593.11527,399.64259L595.03551,400.84271L595.27554,400.84271L595.99563,401.32277L597.91588,398.92251L596.95576,398.44246
				L597.91588,397.00231L594.79548,394.36202L580.15362,384.28095L586.63445,377.08018L583.99411,374.4399L577.03323,382.12072L
				568.1521,376.12008L555.19046,366.99911L543.18893,358.59821L529.5072,349.23722L529.02714,348.27711L529.74723,345.87686L533.82774,346.83696
				L535.26793,345.39681L536.70811,341.31637L531.18741,337.95601L531.9075,333.63555L536.22805,314.19348L538.62835,303.87238L
				539.10841,301.2321L539.82851,299.79195L540.78863,298.35179L541.50872,297.63172L545.82927,293.55128L550.86991,289.23082L553.9903,292.8312
				L556.63064,290.43095L553.75027,287.31062L560.2311,281.55L562.87143,283.95026L566.95195,280.5899L564.55164,277.94962L572.47265,270.98888
				L576.31314,274.34924L577.99335,272.66906L574.63292,269.06867L578.47341,265.46829L583.75408,269.78875L591.43506,260.18773
				L587.11451,256.58734L589.99487,253.22698L593.3553,255.14719L595.99563,252.26688L593.11527,249.6266L596.71573,245.78619L599.11603,247.94642
				L601.51633,245.78619L598.39594,243.38594L601.03627,240.50563L601.9964,239.06548L601.9964,707.5954z"/>
			<path clip-path="url(#SVG_CP_2)" fill-opacity="0.2" fill="#07866D" fill-rule="evenodd" stroke="none" stroke-width="" stra="1.44018" stroke-miterlimit="10" stroke-linecap="round" stroke-linejoin="round" d="
				M252.03198,7.44079L255.15238,11.76125L257.07262,9.361L266.19378,16.32174L264.51357,18.96202L269.07415,22.32238L267.63396,24.48261
				L268.59409,25.44271L269.07415,24.48261L271.47445,26.40281L274.11479,21.84233L275.795,22.5624L277.23518,23.04246L278.9154,23.28248
				L280.83564,23.04246L282.51585,22.80243L289.47674,21.36228L293.31722,20.6422L296.67765,20.40217L303.3985,20.40217L304.83869,20.40217
				L304.35862,33.36356L307.71905,34.32366L308.67917,35.04373L309.15923,35.76381L309.39926,36.96394L309.39926,39.12417L309.15923,41.04437
				L308.43914,43.2046L306.27887,48.00512L305.31875,49.92532L305.31875,50.88542L304.35862,53.04565L304.35862,55.44591L304.59865,58.32622
				L305.07872,60.72647L305.55878,63.12673L306.03884,65.28696L306.27887,68.40729L306.03884,72.72775L305.55878,77.52826L305.55878,81.12865
				L305.31875,83.28888L304.59865,85.44911L307.47902,89.04949L309.15923,90.96969L309.63929,92.16982L309.63929,93.36995L310.35939,95.05013
				L311.79957,96.73031L315.64006,100.33069L314.91996,100.57072L312.51966,101.29079L310.11936,102.2509L307.71905,103.45102L305.55878,105.1312
				L298.35786,113.77212L296.91768,115.69233L296.19759,117.61253L296.19759,119.53274L296.19759,120.73287L295.71753,122.17302
				L293.79728,125.53338L292.11707,128.17366L290.19683,126.73351L282.51585,121.45294L277.47521,126.73351L279.63549,127.69361
				L280.59561,128.17366L282.75588,129.37379L285.15619,131.29399L283.23594,132.73414L284.91616,134.89437L281.79576,136.57455
				L279.87552,138.01471L279.39546,138.49476L279.15543,138.01471L277.95527,136.57455L275.795,138.97481L276.27506,139.69489L277.23518,140.41496
				L275.795,141.61509L275.07491,140.41496L274.11479,139.21484L273.3947,139.93491L271.23442,141.61509L270.2743,140.89501L267.1539,143.77532
				L268.11402,144.73542L266.91387,145.93555L268.59409,147.85576L267.1539,148.81586L265.95375,149.29591L264.7536,150.01599L263.55345,151.21611
				L261.6332,153.8564L257.07262,159.85704L255.63244,162.01727L253.47217,166.81778L253.23214,167.77788L251.79195,170.17813L249.63168,173.53849
				L247.95147,176.17877L240.27049,171.85831L239.31037,177.3789L243.15086,179.53913L241.71067,181.21931L240.51052,182.89949L
				239.79043,184.8197L245.79119,188.42008L244.83107,192.50051L244.59104,194.66074L244.35101,195.86087L243.87095,197.54105L242.91083,199.22123
				L240.51052,203.06164L239.31037,204.98184L237.63016,208.10218L236.43,210.26241L235.46988,212.18261L233.78967,214.34284L232.34949,216.50307
				L232.34949,216.7431L231.38936,218.90333L228.98906,223.94386L235.94994,228.50435L244.35101,234.02494L240.27049,240.02558L
				237.87019,238.82545L237.39013,238.58542L236.67003,238.3454L234.74979,236.90525L231.14933,239.78555L230.42924,240.50563L237.1501,244.34604
				L237.87019,244.58606L240.51052,246.98632L241.47064,248.90652L243.87095,246.98632L244.59104,247.94642L245.55116,247.7064L
				249.87171,252.98696L250.5918,253.22698L256.35253,258.9876L258.75284,260.9078L259.2329,260.42775L262.83335,256.82737L264.03351,257.78747
				L265.47369,259.46765L266.43381,259.9477L269.07415,259.9477L272.91463,261.86791L275.55497,262.82801L277.71524,262.58798L284.19607,261.38785
				L288.75664,261.14783L304.59865,261.62788L306.03884,261.86791L307.71905,262.10793L308.19911,255.86727L308.67917,252.26688
				L309.39926,245.06611L309.39926,244.82609L309.39926,244.10601L308.9192,242.66586L307.23899,238.10537L308.19911,237.86535L
				312.0396,239.54553L320.44067,243.86599L320.6807,243.86599L323.081,241.22571L327.16152,243.38594L327.64158,242.90588L330.76198,243.62596
				L331.96213,242.66586L338.44295,247.94642L339.88313,249.38658L351.40459,258.74757L352.60475,258.9876L353.8049,258.9876L355.48511,258.26752
				L356.44523,258.0275L357.16533,258.0275L359.3256,259.70768L361.96594,261.62788L361.48587,262.58798L360.04569,264.50819L356.9253,270.02877
				L355.96517,272.42903L355.00505,274.10921L354.28496,276.02941L354.28496,276.74949L353.56487,276.98952L352.12469,276.74949
				L349.00429,286.83057L351.88466,288.9908L353.56487,289.47085L350.92453,295.23146L348.76426,298.35179L347.08405,300.51202L
				344.68374,302.67225L343.48359,304.11241L342.52347,305.07251L341.80338,306.27264L340.84325,308.19284L338.92301,313.95346L
				338.44295,315.15358L337.2428,317.79386L335.80261,320.9142L333.64234,324.51458L329.32179,320.9142L325.72134,325.23466L328.36167,327.15486
				L327.88161,328.11496L327.88161,329.07507L329.80185,330.75525L326.92149,335.31573L324.04112,339.87622L321.88085,337.47596
				L314.4399,333.63555L302.67841,342.99655L292.59713,330.27519L279.87552,338.91612L262.83335,318.03389L246.27125,329.31509L
				241.71067,325.47468L238.35025,323.31445L233.54964,319.9541L243.63092,313.23338L238.83031,308.91292L238.35025,308.67289L233.06958,302.67225
				L227.78891,306.03261L222.9883,308.91292L218.66775,304.35243L198.50519,321.15422L186.7437,299.3119L171.86181,270.98888L170.42163,271.46893
				L169.70154,270.02877L168.74141,270.02877L164.6609,255.62724L168.02132,255.86727L168.50138,230.18453L168.98144,218.90333L
				171.38175,211.94259L174.50215,213.14271L177.38251,214.34284L179.78282,215.06292L183.38327,215.54297L186.50367,216.7431L188.66394,217.7032
				L188.90397,216.26305L190.34416,212.90269L191.30428,211.70256L192.74446,210.50243L194.6647,208.82225L195.86486,207.3821L196.82498,205.70192
				L198.74522,203.54169L200.1854,201.62149L201.38556,199.70128L202.34568,198.74118L203.3058,198.0211L202.82574,197.54105L195.86486,192.26049
				L190.82422,188.42008L192.74446,186.7399L196.82498,188.42008L198.98525,186.01982L202.10565,183.61957L205.70611,180.49923L
				211.46684,174.25857L198.98525,160.33709L197.06501,158.65691L195.62483,157.45678L194.42467,156.01663L193.94461,153.8564L192.98449,150.97609
				L191.78434,149.29591L189.38403,146.4156L188.42391,144.73542L186.50367,141.85512L192.02437,137.53466L189.62406,134.1743L183.86333,138.01471
				L182.42315,136.33453L180.98297,135.61445L179.30275,134.65435L178.1026,133.69425L176.66242,132.01407L174.98221,130.57391L
				173.54202,129.13376L172.82193,128.41368L172.10184,127.21356L171.38175,124.8133L170.42163,123.61317L168.74141,121.69297L167.54126,120.49284
				L166.10108,119.05269L163.94081,116.89246L160.82041,113.5321L159.86029,112.09195L158.18007,110.65179L155.77977,108.73159L
				153.13943,106.33133L152.65937,105.1312L152.41934,104.1711L158.4201,93.85L161.5405,87.36931L163.46074,84.00895L165.62102,79.68849
				L168.26135,75.36803L168.50138,74.40793L168.26135,73.2078L167.78129,72.00767L166.34111,69.84744L158.66013,60.00639L154.33959,53.28568
				L149.53898,45.36483L148.57886,43.44463L150.97916,42.2445L149.77901,39.12417L153.6195,37.44399L160.82041,33.84361L169.46151,28.80307
				L174.02208,36.00384L179.78282,33.36356L177.86257,28.32302L188.42391,29.76317L195.86486,29.76317L203.3058,40.08427L204.02589,41.2844
				L204.74598,42.00448L221.06805,25.92276L214.58723,18.722L222.02818,13.44143L235.70991,3.84041L240.51052,9.84105L243.15086,7.68082
				L241.47064,5.52059L245.55116,2.88031L250.83183,5.28056L252.03198,7.44079z"/>
		</g>
</g></svg>