<?xml version="1.0" encoding="utf-8" standalone="no"?>
<!-- Creator: ESRI ArcMap 10.0.0.2414 -->
<!DOCTYPE svg PUBLIC "-//W3C//DTD SVG 1.1//EN"  "http://www.w3.org/Graphics/SVG/1.1/DTD/svg11.dtd">
<svg width="595.50236pt" height="595.50236pt" viewBox="25 148.377955 545.50236 545.50236" enable-background="new 25 148.377955 545.50236 545.50236"
	version="1.1" xmlns="http://www.w3.org/2000/svg" xmlns:xlink="http://www.w3.org/1999/xlink" >
	<g id="Couches">
		<g id="cont_2">
			<path clip-path="url(#SVG_CP_2)" fill="none" stroke="#999999" stroke-width="0.96012" stroke-miterlimit="10" stroke-linecap="round" stroke-linejoin="round" d="
				M373.4874,424.36522L373.72743,424.36522L373.72743,424.1252L373.96746,424.1252L373.96746,423.88517L374.20749,423.88517L379.96822,423.88517
				L379.96822,423.64514L380.20825,423.64514L380.44828,423.64514L380.44828,423.40512L380.68831,423.40512L380.68831,423.16509
				L380.92834,423.16509L380.92834,422.92507L380.92834,423.16509L381.16837,423.16509L381.16837,423.40512L381.4084,423.40512L
				381.4084,423.16509L381.64843,423.16509L381.64843,422.92507L381.88846,422.92507L381.88846,422.68504L382.12849,422.68504L382.12849,422.44502
				L382.36852,422.44502L382.36852,422.20499L382.36852,421.96497L382.12849,421.96497L382.12849,421.72494L381.88846,421.72494
				L381.64843,421.72494L381.64843,421.96497L381.64843,422.20499L381.4084,422.20499L381.4084,422.44502L381.16837,422.44502L381.16837,422.68504
				L380.92834,422.68504L380.92834,422.92507L380.68831,422.92507L380.68831,423.16509L380.44828,423.16509L380.44828,423.40512
				L380.20825,423.40512L380.20825,423.64514L379.96822,423.64514L376.12773,423.64514L374.20749,423.64514L374.20749,423.88517
				L373.96746,423.88517L373.72743,423.88517L373.72743,424.1252L373.72743,424.36522L373.4874,424.36522L373.24737,424.36522L373.24737,424.60525
				L373.24737,424.84527L373.24737,425.0853L373.4874,425.0853L373.4874,425.32532L373.4874,425.56535L373.72743,425.56535L373.72743,425.80537
				L373.72743,426.0454L373.72743,425.80537L373.4874,425.80537L373.4874,425.56535L373.4874,425.32532L373.24737,425.32532L373.24737,425.0853
				L373.24737,424.84527L373.00734,424.84527L373.00734,424.60525L373.00734,424.36522L372.76731,424.36522L372.28724,424.36522
				L372.04721,424.36522L372.04721,424.1252L371.80718,424.1252L371.80718,423.88517L371.80718,423.64514L371.56715,423.64514L371.56715,423.40512
				L371.56715,423.16509L371.56715,422.92507L371.32712,422.92507L371.32712,422.68504L371.32712,422.44502L371.08709,422.44502
				L371.08709,422.20499L370.84706,422.20499L370.60703,422.20499L370.60703,421.96497L370.367,421.96497L370.12697,421.96497L370.12697,421.72494
				L369.88694,421.72494L369.88694,421.48491L369.64691,421.48491L369.64691,421.24489L369.40688,421.24489L369.16685,421.24489
				L369.16685,421.00486L368.92682,421.00486L368.92682,420.76484L368.68679,420.76484L368.44676,420.76484L368.44676,420.52481
				L368.20673,420.52481L368.44676,420.52481L368.68679,420.52481L368.68679,420.28479L368.92682,420.28479L368.92682,420.04476
				L369.16685,420.04476L369.40688,420.04476L369.64691,420.04476L369.64691,419.80474L369.88694,419.80474L370.12697,419.80474
				L370.12697,419.56471L370.367,419.56471L370.60703,419.56471L370.60703,419.32468L370.84706,419.32468L371.08709,419.32468L371.32712,419.32468
				L371.32712,419.08466L371.56715,419.08466L371.80718,419.08466L372.04721,419.08466L372.28724,419.08466L372.28724,418.84463
				L372.52728,418.84463L372.76731,418.84463L372.76731,418.60461L373.00734,418.60461L373.24737,418.60461L373.4874,418.60461L
				373.4874,418.36458L373.4874,418.60461L373.72743,418.60461L373.96746,418.60461L373.96746,418.36458L374.20749,418.36458L374.44752,418.36458
				L374.92758,418.36458L375.64767,418.36458L376.12773,418.36458L376.36776,418.36458L376.60779,418.36458L376.60779,418.12456
				L376.84782,418.12456L377.32788,418.12456L377.56791,418.12456L377.56791,417.88453L377.80795,417.88453L378.04798,417.88453
				L378.04798,417.64451L378.28801,417.64451L378.52804,417.64451L378.76807,417.64451L378.76807,417.40448L379.0081,417.40448L
				379.24813,417.40448L379.48816,417.40448L379.48816,417.16445L379.72819,417.16445L379.96822,417.16445L380.44828,417.16445L
				380.68831,417.16445L380.68831,416.92443L380.92834,416.92443L381.16837,416.92443L381.16837,416.6844L381.4084,416.6844L381.64843,416.6844
				L381.64843,416.44438L381.88846,416.44438L381.88846,416.20435L382.12849,416.20435L382.36852,416.20435L382.60855,416.20435
				L382.60855,415.96433L382.84859,415.96433L382.84859,416.20435L383.08862,416.20435L383.08862,416.44438L383.08862,416.6844L
				383.32865,416.6844L383.32865,416.92443L383.56868,416.92443L383.80871,416.92443L383.80871,417.16445L384.04874,417.16445L384.04874,417.40448
				L384.04874,417.64451L383.80871,417.64451L383.80871,417.88453L383.80871,418.12456L383.80871,418.36458L383.56868,418.36458
				L383.56868,418.60461L383.32865,418.60461L383.32865,418.84463L383.56868,418.84463L383.56868,419.08466L383.56868,419.32468
				L383.80871,419.32468L383.80871,419.56471L383.80871,419.80474L384.04874,419.80474L384.04874,420.04476L384.28877,420.04476
				L384.28877,420.28479L384.5288,420.28479L384.5288,420.52481L384.76883,420.52481L384.76883,420.76484L384.76883,421.00486L385.00886,421.00486
				L385.00886,421.24489L385.00886,421.48491L385.24889,421.48491L385.24889,421.72494L385.24889,421.96497L385.48892,421.96497
				L385.48892,422.20499L385.48892,422.44502L385.48892,422.68504L385.48892,422.92507L385.72895,422.92507L385.72895,423.16509
				L385.72895,423.88517L385.72895,424.1252L385.72895,424.36522L385.72895,424.60525L385.72895,425.32532L385.72895,425.56535L
				385.72895,425.80537L385.72895,426.0454L385.48892,426.0454L385.48892,426.28543L385.48892,426.52545L385.48892,426.76548L385.24889,426.76548
				L385.24889,427.0055L385.24889,427.24553L385.00886,427.24553L385.00886,427.48555L385.00886,427.72558L385.00886,427.9656L384.76883,427.9656
				L384.76883,428.20563L384.76883,428.68568L384.76883,428.92571L384.76883,429.16573L384.76883,429.40576L385.00886,429.40576
				L385.00886,429.64578L385.00886,429.88581L384.76883,429.88581L384.76883,430.12584L384.76883,430.36586L384.5288,430.36586L
				384.5288,430.60589L384.5288,430.84591L384.28877,430.84591L384.28877,431.08594L384.28877,431.32596L384.28877,431.56599L384.04874,431.56599
				L384.04874,431.80601L383.80871,431.80601L383.80871,432.04604L383.56868,432.04604L383.56868,432.28607L383.32865,432.28607
				L383.32865,432.52609L383.32865,432.76612L383.08862,432.76612L383.08862,433.00614L383.08862,433.24617L382.84859,433.24617
				L382.84859,433.48619L382.84859,433.72622L382.84859,433.96624L382.60855,433.96624L382.60855,434.20627L382.60855,434.4463L
				382.36852,434.4463L382.36852,434.68632L382.36852,434.92635L382.36852,435.16637L382.12849,435.16637L382.12849,435.4064L381.88846,435.4064
				L381.88846,435.64642L381.64843,435.64642L381.64843,435.88645L381.4084,435.88645L381.4084,436.12647L381.16837,436.12647L381.16837,436.3665
				L380.92834,436.3665L380.92834,436.60653L380.68831,436.60653L380.68831,436.84655L380.44828,436.84655L380.44828,437.08658L
				380.20825,437.08658L380.20825,437.3266L379.96822,437.3266L379.96822,437.56663L379.72819,437.56663L379.72819,437.80665L379.48816,437.80665
				L379.48816,438.04668L379.24813,438.04668L379.24813,438.2867L379.0081,438.2867L379.0081,438.52673L379.0081,438.76676L379.0081,438.52673
				L378.76807,438.52673L378.76807,438.2867L378.76807,438.04668L378.76807,437.80665L378.52804,437.80665L378.52804,437.56663L
				378.52804,437.3266L378.52804,437.08658L378.28801,437.08658L378.28801,436.84655L378.28801,436.60653L378.04798,436.60653L378.04798,436.3665
				L378.04798,436.12647L378.04798,435.88645L377.80795,435.88645L377.80795,435.64642L377.80795,435.4064L377.56791,435.4064L377.56791,435.16637
				L377.56791,434.92635L377.56791,434.68632L377.32788,434.68632L377.32788,434.4463L377.32788,434.20627L377.08785,434.20627L
				377.08785,433.96624L377.08785,433.72622L377.08785,433.48619L376.84782,433.48619L376.84782,433.24617L376.84782,433.00614L
				376.84782,432.76612L376.60779,432.76612L376.60779,432.52609L376.60779,432.28607L376.36776,432.28607L376.36776,432.04604L
				376.36776,431.80601L376.12773,431.80601L376.12773,431.56599L376.12773,431.32596L376.12773,431.08594L375.8877,431.08594L375.8877,430.84591
				L375.8877,430.60589L375.8877,430.36586L375.64767,430.36586L375.64767,430.12584L375.64767,429.88581L375.40764,429.88581L375.40764,429.64578
				L375.40764,429.40576L375.40764,429.16573L375.16761,429.16573L375.16761,428.92571L375.16761,428.68568L374.92758,428.68568
				L374.92758,428.44566L374.92758,428.20563L374.92758,427.9656L374.68755,427.9656L374.68755,427.72558L374.68755,427.48555L374.44752,427.48555
				L374.44752,427.24553L374.44752,427.0055L374.20749,427.0055L374.20749,426.76548L374.20749,426.52545L374.20749,426.28543L373.96746,426.28543
				L373.96746,426.0454L373.96746,425.80537L373.72743,425.80537L373.72743,425.56535L373.72743,425.32532L373.72743,425.0853L373.4874,425.0853
				L373.4874,424.84527L373.4874,424.60525L373.4874,424.36522"/>
		</g>
</g></svg>