<?xml version="1.0" encoding="utf-8" standalone="no"?>
<!-- Creator: ESRI ArcMap 10.0.0.2414 -->
<!DOCTYPE svg PUBLIC "-//W3C//DTD SVG 1.1//EN"  "http://www.w3.org/Graphics/SVG/1.1/DTD/svg11.dtd">
<svg width="595.50236pt" height="595.50236pt" viewBox="25 148.377955 545.50236 545.50236" enable-background="new 25 148.377955 545.50236 545.50236"
	version="1.1" xmlns="http://www.w3.org/2000/svg" xmlns:xlink="http://www.w3.org/1999/xlink" >
	<g id="Couches">
		<g id="cont_2">
			<path clip-path="url(#SVG_CP_2)" fill="none" stroke="#999999" stroke-width="0.96012" stroke-miterlimit="10" stroke-linecap="round" stroke-linejoin="round" d="
				M308.19911,415.00422L307.95908,415.00422L307.95908,414.52417L308.19911,414.52417L308.19911,415.00422"/>
			<path clip-path="url(#SVG_CP_2)" fill="none" stroke="#999999" stroke-width="0.96012" stroke-miterlimit="10" stroke-linecap="round" stroke-linejoin="round" d="
				M245.0711,476.6908L240.99058,476.6908L240.99058,476.45077L241.47064,476.45077L241.47064,476.21075L242.43077,476.21075L242.43077,475.97072
				L243.87095,475.97072L243.87095,476.21075L244.59104,476.21075L244.59104,476.45077L245.0711,476.45077L245.0711,476.6908"/>
			<path clip-path="url(#SVG_CP_2)" fill="none" stroke="#999999" stroke-width="0.96012" stroke-miterlimit="10" stroke-linecap="round" stroke-linejoin="round" d="
				M238.83031,477.6509L238.83031,477.41087L239.07034,477.41087L239.07034,477.6509L238.83031,477.6509"/>
			<path clip-path="url(#SVG_CP_2)" fill="none" stroke="#999999" stroke-width="0.96012" stroke-miterlimit="10" stroke-linecap="round" stroke-linejoin="round" d="
				M252.03198,483.41151L251.79195,483.41151L251.79195,483.17149L252.03198,483.17149L252.03198,483.41151"/>
			<path clip-path="url(#SVG_CP_2)" fill="none" stroke="#999999" stroke-width="0.96012" stroke-miterlimit="10" stroke-linecap="round" stroke-linejoin="round" d="
				M252.27201,483.65154L252.03198,483.65154L252.03198,483.41151L252.27201,483.41151L252.27201,483.65154"/>
			<path clip-path="url(#SVG_CP_2)" fill="none" stroke="#999999" stroke-width="0.96012" stroke-miterlimit="10" stroke-linecap="round" stroke-linejoin="round" d="
				M252.51205,483.89156L252.27201,483.89156L252.27201,483.65154L252.51205,483.65154L252.51205,483.89156"/>
			<path clip-path="url(#SVG_CP_2)" fill="none" stroke="#999999" stroke-width="0.96012" stroke-miterlimit="10" stroke-linecap="round" stroke-linejoin="round" d="
				M252.99211,484.37162L252.51205,484.37162L252.51205,483.89156L252.99211,483.89156L252.99211,484.37162"/>
			<path clip-path="url(#SVG_CP_2)" fill="none" stroke="#999999" stroke-width="0.96012" stroke-miterlimit="10" stroke-linecap="round" stroke-linejoin="round" d="
				M253.23214,484.61164L252.99211,484.61164L252.99211,484.37162L253.23214,484.37162L253.23214,484.61164"/>
			<path clip-path="url(#SVG_CP_2)" fill="none" stroke="#999999" stroke-width="0.96012" stroke-miterlimit="10" stroke-linecap="round" stroke-linejoin="round" d="
				M253.47217,484.85167L253.23214,484.85167L253.23214,484.61164L253.47217,484.61164L253.47217,484.85167"/>
			<path clip-path="url(#SVG_CP_2)" fill="none" stroke="#999999" stroke-width="0.96012" stroke-miterlimit="10" stroke-linecap="round" stroke-linejoin="round" d="
				M253.7122,485.09169L253.47217,485.09169L253.47217,484.85167L253.7122,484.85167L253.7122,485.09169"/>
			<path clip-path="url(#SVG_CP_2)" fill="none" stroke="#999999" stroke-width="0.96012" stroke-miterlimit="10" stroke-linecap="round" stroke-linejoin="round" d="
				M256.1125,487.25192L255.63244,487.25192L255.63244,487.0119L255.39241,487.0119L255.39241,486.77187L254.91235,486.77187L254.91235,486.29182
				L254.67232,486.29182L254.67232,486.05179L254.43229,486.05179L254.43229,485.81177L254.19226,485.81177L254.19226,485.57174
				L253.7122,485.57174L253.7122,485.09169L254.43229,485.09169L254.43229,485.57174L254.67232,485.57174L254.67232,485.81177L254.91235,485.81177
				L254.91235,486.05179L255.39241,486.05179L255.39241,486.29182L255.63244,486.29182L255.63244,486.77187L255.87247,486.77187
				L255.87247,487.0119L256.1125,487.0119L256.1125,487.25192"/>
			<path clip-path="url(#SVG_CP_2)" fill="none" stroke="#999999" stroke-width="0.96012" stroke-miterlimit="10" stroke-linecap="round" stroke-linejoin="round" d="
				M256.59256,487.49195L256.1125,487.49195L256.1125,487.25192L256.59256,487.25192L256.59256,487.49195"/>
			<path clip-path="url(#SVG_CP_2)" fill="none" stroke="#999999" stroke-width="0.96012" stroke-miterlimit="10" stroke-linecap="round" stroke-linejoin="round" d="
				M256.83259,487.972L256.59256,487.972L256.59256,487.49195L256.83259,487.49195L256.83259,487.972"/>
			<path clip-path="url(#SVG_CP_2)" fill="none" stroke="#999999" stroke-width="0.96012" stroke-miterlimit="10" stroke-linecap="round" stroke-linejoin="round" d="
				M257.07262,488.21202L256.83259,488.21202L256.83259,487.972L257.07262,487.972L257.07262,488.21202"/>
			<path clip-path="url(#SVG_CP_2)" fill="none" stroke="#999999" stroke-width="0.96012" stroke-miterlimit="10" stroke-linecap="round" stroke-linejoin="round" d="
				M257.31265,488.45205L257.07262,488.45205L257.07262,488.21202L257.31265,488.21202L257.31265,488.45205"/>
			<path clip-path="url(#SVG_CP_2)" fill="none" stroke="#999999" stroke-width="0.96012" stroke-miterlimit="10" stroke-linecap="round" stroke-linejoin="round" d="
				M257.79272,488.69208L257.31265,488.69208L257.31265,488.45205L257.79272,488.45205L257.79272,488.69208"/>
			<path clip-path="url(#SVG_CP_2)" fill="none" stroke="#999999" stroke-width="0.96012" stroke-miterlimit="10" stroke-linecap="round" stroke-linejoin="round" d="
				M258.03275,489.17213L257.79272,489.17213L257.79272,488.69208L258.03275,488.69208L258.03275,489.17213"/>
			<path clip-path="url(#SVG_CP_2)" fill="none" stroke="#999999" stroke-width="0.96012" stroke-miterlimit="10" stroke-linecap="round" stroke-linejoin="round" d="
				M258.27278,489.41215L258.03275,489.41215L258.03275,489.17213L258.27278,489.17213L258.27278,489.41215"/>
			<path clip-path="url(#SVG_CP_2)" fill="none" stroke="#999999" stroke-width="0.96012" stroke-miterlimit="10" stroke-linecap="round" stroke-linejoin="round" d="
				M258.75284,489.65218L258.27278,489.65218L258.27278,489.41215L258.75284,489.41215L258.75284,489.65218"/>
			<path clip-path="url(#SVG_CP_2)" fill="none" stroke="#999999" stroke-width="0.96012" stroke-miterlimit="10" stroke-linecap="round" stroke-linejoin="round" d="
				M258.99287,489.8922L258.75284,489.8922L258.75284,489.65218L258.99287,489.65218L258.99287,489.8922"/>
			<path clip-path="url(#SVG_CP_2)" fill="none" stroke="#999999" stroke-width="0.96012" stroke-miterlimit="10" stroke-linecap="round" stroke-linejoin="round" d="
				M228.509,491.09233L228.509,490.37225L228.74903,490.37225L228.74903,489.41215L229.22909,489.41215L229.22909,488.69208L229.46912,488.69208
				L229.46912,487.972L229.70915,487.972L229.70915,487.0119L229.94918,487.0119L229.94918,486.05179L230.42924,486.05179L230.42924,485.09169
				L230.66927,485.09169L230.66927,484.37162L230.9093,484.37162L230.9093,483.89156L231.14933,483.89156L231.14933,483.41151L231.62939,483.41151
				L231.62939,482.69144L231.86943,482.69144L231.86943,482.45141L232.10946,482.45141L232.10946,481.97136L232.34949,481.97136
				L232.34949,481.49131L232.82955,481.49131L232.82955,481.25128L233.06958,481.25128L233.06958,481.01126L233.30961,481.01126
				L233.30961,480.77123L233.54964,480.77123L233.54964,480.29118L234.0297,480.29118L234.0297,480.05116L234.26973,480.05116L234.26973,479.81113
				L234.50976,479.81113L234.50976,479.5711L234.74979,479.5711L234.74979,479.09105L235.46988,479.09105L235.46988,478.85103L236.18997,478.85103
				L236.18997,478.611L236.91007,478.611L236.91007,478.37098L237.63016,478.37098L237.63016,477.89092L238.11022,477.89092L238.11022,477.6509
				L238.83031,477.6509L238.83031,477.89092L238.59028,477.89092L238.59028,478.37098L238.11022,478.37098L238.11022,478.611L237.87019,478.611
				L237.87019,478.85103L237.63016,478.85103L237.63016,479.09105L237.39013,479.09105L237.39013,479.5711L236.67003,479.5711L236.67003,479.81113
				L236.43,479.81113L236.43,480.05116L236.18997,480.05116L236.18997,480.29118L235.70991,480.29118L235.70991,480.77123L235.46988,480.77123
				L235.46988,481.01126L235.22985,481.01126L235.22985,481.25128L234.74979,481.25128L234.74979,481.49131L234.50976,481.49131
				L234.50976,481.97136L234.26973,481.97136L234.26973,482.21139L233.54964,482.21139L233.54964,482.45141L233.30961,482.45141
				L233.30961,482.69144L233.06958,482.69144L233.06958,483.17149L232.82955,483.17149L232.82955,483.41151L232.34949,483.41151
				L232.34949,483.65154L232.10946,483.65154L232.10946,483.89156L231.86943,483.89156L231.86943,484.37162L231.62939,484.37162
				L231.62939,484.85167L231.14933,484.85167L231.14933,485.57174L230.9093,485.57174L230.9093,486.29182L230.66927,486.29182L230.66927,487.0119
				L230.42924,487.0119L230.42924,487.972L229.94918,487.972L229.94918,488.45205L229.70915,488.45205L229.70915,489.17213L229.46912,489.17213
				L229.46912,489.8922L229.22909,489.8922L229.22909,490.61228L228.74903,490.61228L228.74903,491.09233L228.509,491.09233"/>
			<path clip-path="url(#SVG_CP_2)" fill="none" stroke="#999999" stroke-width="0.96012" stroke-miterlimit="10" stroke-linecap="round" stroke-linejoin="round" d="
				M260.43305,491.09233L259.95299,491.09233L259.95299,490.85231L259.47293,490.85231L259.47293,490.61228L259.2329,490.61228L
				259.2329,490.37225L258.99287,490.37225L258.99287,489.8922L259.47293,489.8922L259.47293,490.37225L259.95299,490.37225L259.95299,490.61228
				L260.19302,490.61228L260.19302,490.85231L260.43305,490.85231L260.43305,491.09233"/>
			<path clip-path="url(#SVG_CP_2)" fill="none" stroke="#999999" stroke-width="0.96012" stroke-miterlimit="10" stroke-linecap="round" stroke-linejoin="round" d="
				M260.67308,491.57238L260.43305,491.57238L260.43305,491.09233L260.67308,491.09233L260.67308,491.57238"/>
			<path clip-path="url(#SVG_CP_2)" fill="none" stroke="#999999" stroke-width="0.96012" stroke-miterlimit="10" stroke-linecap="round" stroke-linejoin="round" d="
				M261.15314,491.81241L260.67308,491.81241L260.67308,491.57238L261.15314,491.57238L261.15314,491.81241"/>
			<path clip-path="url(#SVG_CP_2)" fill="none" stroke="#999999" stroke-width="0.96012" stroke-miterlimit="10" stroke-linecap="round" stroke-linejoin="round" d="
				M228.509,491.09233L228.509,492.05243L228.26897,492.05243L228.26897,491.09233L228.509,491.09233"/>
			<path clip-path="url(#SVG_CP_2)" fill="none" stroke="#999999" stroke-width="0.96012" stroke-miterlimit="10" stroke-linecap="round" stroke-linejoin="round" d="
				M261.15314,491.81241L261.6332,491.81241L261.6332,492.05243L261.15314,492.05243L261.15314,491.81241"/>
			<path clip-path="url(#SVG_CP_2)" fill="none" stroke="#999999" stroke-width="0.96012" stroke-miterlimit="10" stroke-linecap="round" stroke-linejoin="round" d="
				M262.83335,492.53249L262.59332,492.53249L262.59332,492.05243L262.83335,492.05243L262.83335,492.53249"/>
			<path clip-path="url(#SVG_CP_2)" fill="none" stroke="#999999" stroke-width="0.96012" stroke-miterlimit="10" stroke-linecap="round" stroke-linejoin="round" d="
				M228.26897,492.77251L228.02894,492.77251L228.02894,492.53249L228.26897,492.53249L228.26897,492.77251"/>
			<path clip-path="url(#SVG_CP_2)" fill="none" stroke="#999999" stroke-width="0.96012" stroke-miterlimit="10" stroke-linecap="round" stroke-linejoin="round" d="
				M277.23518,494.93274L276.27506,494.93274L276.27506,494.45269L274.83488,494.45269L274.83488,494.21266L273.15466,494.21266
				L273.15466,493.97264L271.23442,493.97264L271.23442,493.73261L269.55421,493.73261L269.55421,493.25256L267.87399,493.25256
				L267.87399,493.01254L271.23442,493.01254L271.23442,493.25256L274.35482,493.25256L274.35482,493.73261L275.55497,493.73261
				L275.55497,493.97264L276.03503,493.97264L276.03503,494.21266L276.75512,494.21266L276.75512,494.45269L277.23518,494.45269
				L277.23518,494.93274"/>
			<path clip-path="url(#SVG_CP_2)" fill="none" stroke="#999999" stroke-width="0.96012" stroke-miterlimit="10" stroke-linecap="round" stroke-linejoin="round" d="
				M221.30809,496.85295L218.90778,496.85295L218.90778,496.61292L218.42772,496.61292L218.42772,496.37289L222.74827,496.37289
				L222.74827,496.13287L224.42848,496.13287L224.42848,496.37289L223.22833,496.37289L223.22833,496.61292L221.30809,496.61292
				L221.30809,496.85295"/>
			<path clip-path="url(#SVG_CP_2)" fill="none" stroke="#999999" stroke-width="0.96012" stroke-miterlimit="10" stroke-linecap="round" stroke-linejoin="round" d="
				M310.35939,344.4367L310.11936,344.4367L310.11936,344.91676L310.35939,344.91676L310.35939,345.39681L310.59942,345.39681L310.59942,345.63683
				L311.07948,345.63683L311.07948,345.87686L311.31951,345.87686L311.31951,350.91739L311.07948,350.91739L311.07948,353.07762
				L310.59942,353.07762L310.59942,354.99783L310.35939,354.99783L310.35939,357.15806L310.11936,357.15806L310.11936,358.83824
				L309.87933,358.83824L309.87933,360.99847L309.39926,360.99847L309.39926,381.16062L309.15923,381.16062L309.15923,381.64067
				L308.9192,381.64067L308.9192,402.28287L308.67917,402.28287L308.67917,402.52289L308.19911,402.52289L308.19911,402.76292L307.95908,402.76292
				L307.95908,414.52417L307.71905,414.52417L307.71905,414.7642L307.47902,414.7642L307.47902,415.00422L306.99896,415.00422L306.99896,415.48427
				L306.75893,415.48427L306.75893,415.7243L306.5189,415.7243L306.5189,415.96433L306.27887,415.96433L306.27887,416.20435L305.79881,416.20435
				L305.79881,416.6844L305.55878,416.6844L305.55878,416.92443L305.31875,416.92443L305.31875,417.16445L305.07872,417.16445L305.07872,417.40448
				L304.59865,417.40448L304.59865,417.88453L304.35862,417.88453L304.35862,418.12456L304.11859,418.12456L304.11859,418.36458
				L303.63853,418.36458L303.63853,418.60461L303.3985,418.60461L303.3985,422.44502L303.15847,422.44502L303.15847,422.68504L302.91844,422.68504
				L302.91844,422.92507L302.43838,422.92507L302.43838,423.16509L302.19835,423.16509L302.19835,423.64514L301.95832,423.64514
				L301.95832,423.88517L301.71829,423.88517L301.71829,424.1252L301.23823,424.1252L301.23823,424.36522L300.9982,424.36522L300.9982,424.84527
				L300.75817,424.84527L300.75817,425.0853L300.51814,425.0853L300.51814,425.32532L300.03808,425.32532L300.03808,425.56535L299.79805,425.56535
				L299.79805,426.0454L299.55802,426.0454L299.55802,427.72558L299.31798,427.72558L299.31798,429.64578L298.83792,429.64578L298.83792,431.56599
				L298.59789,431.56599L298.59789,433.48619L298.35786,433.48619L298.35786,435.16637L298.11783,435.16637L298.11783,437.3266L
				297.63777,437.3266L297.63777,439.48683L297.39774,439.48683L297.39774,441.16701L297.15771,441.16701L297.15771,443.32724L296.91768,443.32724
				L296.91768,445.24745L296.43762,445.24745L296.43762,445.7275L296.19759,445.7275L296.19759,446.20755L295.95756,446.20755L295.95756,446.44757
				L295.71753,446.44757L295.71753,447.40768L295.23747,447.40768L295.23747,449.08786L294.99744,449.08786L294.99744,451.00806
				L294.75741,451.00806L294.75741,452.44821L294.51738,452.44821L294.51738,454.12839L294.03731,454.12839L294.03731,456.0486L
				293.79728,456.0486L293.79728,457.72878L293.55725,457.72878L293.55725,459.64898L293.31722,459.64898L293.31722,461.32916L292.83716,461.32916
				L292.83716,463.24936L292.59713,463.24936L292.59713,464.92954L292.3571,464.92954L292.3571,469.25L292.11707,469.25L292.11707,474.05052
				L291.63701,474.05052L291.63701,487.0119L291.39698,487.0119L291.39698,492.05243L291.15695,492.05243L291.15695,492.53249L290.91692,492.53249
				L290.91692,492.77251L290.43686,492.77251L290.43686,493.01254L289.9568,493.01254L289.9568,493.25256L289.71677,493.25256L289.71677,493.73261
				L289.23671,493.73261L289.23671,493.97264L288.99668,493.97264L288.99668,494.21266L287.55649,494.21266L287.55649,494.45269
				L287.31646,494.45269L287.31646,494.93274L286.8364,494.93274L286.8364,495.17277L286.59637,495.17277L286.59637,495.41279L286.35634,495.41279
				L286.35634,495.65282L286.11631,495.65282L286.11631,496.13287L285.63625,496.13287L285.63625,496.37289L285.39622,496.37289
				L285.39622,496.61292L285.15619,496.61292L285.15619,496.85295L284.91616,496.85295L284.91616,497.333L284.4361,497.333L284.4361,497.57302
				L283.95604,497.57302L283.95604,496.85295L283.716,496.85295L283.716,496.61292L283.23594,496.61292L283.23594,496.13287L282.99591,496.13287
				L282.99591,495.65282L282.75588,495.65282L282.75588,495.17277L282.51585,495.17277L282.51585,494.93274L282.03579,494.93274
				L282.03579,494.21266L281.79576,494.21266L281.79576,493.97264L281.55573,493.97264L281.55573,493.73261L281.07567,493.73261
				L281.07567,493.25256L280.83564,493.25256L280.83564,493.01254L280.35558,493.01254L280.35558,492.77251L279.63549,492.77251
				L279.63549,492.53249L279.15543,492.53249L279.15543,492.05243L278.43533,492.05243L278.43533,491.81241L277.95527,491.81241
				L277.95527,491.57238L277.47521,491.57238L277.47521,491.09233L276.99515,491.09233L276.99515,490.85231L276.03503,490.85231
				L276.03503,490.61228L274.59485,490.61228L274.59485,490.37225L270.75436,490.37225L270.75436,489.8922L265.47369,489.8922L265.47369,489.65218
				L264.27354,489.65218L264.27354,489.41215L263.07339,489.41215L263.07339,489.17213L262.59332,489.17213L262.59332,488.69208
				L262.35329,488.69208L262.35329,488.45205L261.87323,488.45205L261.87323,488.21202L261.6332,488.21202L261.6332,487.972L261.39317,487.972
				L261.39317,487.49195L261.15314,487.49195L261.15314,487.25192L260.67308,487.25192L260.67308,487.0119L260.19302,487.0119L260.19302,486.77187
				L259.95299,486.77187L259.95299,486.29182L259.47293,486.29182L259.47293,486.05179L259.2329,486.05179L259.2329,485.81177L258.99287,485.81177
				L258.99287,485.57174L258.75284,485.57174L258.75284,485.09169L258.27278,485.09169L258.27278,484.85167L258.03275,484.85167
				L258.03275,484.61164L257.79272,484.61164L257.79272,484.37162L257.31265,484.37162L257.31265,483.89156L257.07262,483.89156
				L257.07262,483.65154L256.83259,483.65154L256.83259,483.41151L256.59256,483.41151L256.59256,483.17149L256.1125,483.17149L
				256.1125,482.69144L255.87247,482.69144L255.87247,482.45141L255.63244,482.45141L255.63244,482.21139L254.91235,482.21139L254.91235,481.97136
				L254.67232,481.97136L254.67232,481.49131L254.43229,481.49131L254.43229,481.25128L254.19226,481.25128L254.19226,481.01126
				L253.7122,481.01126L253.7122,480.77123L253.47217,480.77123L253.47217,480.29118L253.23214,480.29118L253.23214,480.05116L252.99211,480.05116
				L252.99211,479.81113L252.51205,479.81113L252.51205,479.5711L252.27201,479.5711L252.27201,479.09105L252.03198,479.09105L252.03198,478.85103
				L251.79195,478.85103L251.79195,478.611L251.31189,478.611L251.31189,478.37098L251.07186,478.37098L251.07186,477.89092L250.83183,477.89092
				L250.83183,477.6509L250.5918,477.6509L250.5918,477.41087L249.87171,477.41087L249.87171,477.17085L249.63168,477.17085L249.63168,476.6908
				L249.39165,476.6908L249.39165,476.45077L248.91159,476.45077L248.91159,476.21075L248.67156,476.21075L248.67156,475.97072L
				248.43153,475.97072L248.43153,475.49067L248.1915,475.49067L248.1915,475.25064L247.71144,475.25064L247.71144,475.01062L247.47141,475.01062
				L247.47141,474.77059L247.23137,474.77059L247.23137,474.29054L246.99134,474.29054L246.99134,474.05052L246.27125,474.05052
				L246.27125,473.81049L245.79119,473.81049L245.79119,473.57046L245.0711,473.57046L245.0711,473.09041L244.59104,473.09041L244.59104,472.85039
				L243.63092,472.85039L243.63092,472.61036L242.6708,472.61036L242.6708,472.85039L241.71067,472.85039L241.71067,473.09041L240.99058,473.09041
				L240.99058,473.57046L240.03046,473.57046L240.03046,473.81049L239.31037,473.81049L239.31037,474.05052L238.83031,474.05052
				L238.83031,474.29054L238.11022,474.29054L238.11022,474.77059L237.63016,474.77059L237.63016,475.01062L236.91007,475.01062
				L236.91007,475.25064L236.18997,475.25064L236.18997,475.49067L235.46988,475.49067L235.46988,475.97072L234.74979,475.97072
				L234.74979,476.21075L234.26973,476.21075L234.26973,476.45077L233.54964,476.45077L233.54964,476.6908L233.06958,476.6908L233.06958,477.17085
				L232.82955,477.17085L232.82955,477.41087L232.34949,477.41087L232.34949,477.6509L232.10946,477.6509L232.10946,477.89092L231.86943,477.89092
				L231.86943,478.37098L231.62939,478.37098L231.62939,478.611L231.14933,478.611L231.14933,478.85103L230.9093,478.85103L230.9093,479.09105
				L230.66927,479.09105L230.66927,479.5711L230.42924,479.5711L230.42924,479.81113L229.94918,479.81113L229.94918,480.05116L229.70915,480.05116
				L229.70915,480.77123L229.46912,480.77123L229.46912,481.01126L229.22909,481.01126L229.22909,481.49131L228.74903,481.49131
				L228.74903,482.21139L228.509,482.21139L228.509,482.45141L228.26897,482.45141L228.26897,483.17149L228.02894,483.17149L228.02894,483.65154
				L227.54888,483.65154L227.54888,484.61164L227.30885,484.61164L227.30885,485.57174L227.06882,485.57174L227.06882,486.29182
				L226.82879,486.29182L226.82879,487.25192L226.34872,487.25192L226.34872,488.21202L226.10869,488.21202L226.10869,488.69208
				L225.86866,488.69208L225.86866,489.65218L225.62863,489.65218L225.62863,490.61228L225.14857,490.61228L225.14857,491.09233
				L224.90854,491.09233L224.90854,492.05243L224.66851,492.05243L224.66851,492.53249L224.42848,492.53249L224.42848,492.77251
				L223.94842,492.77251L223.94842,493.01254L222.50824,493.01254L222.50824,493.25256L218.66775,493.25256L218.66775,493.73261
				L215.54735,493.73261L215.54735,493.25256L215.06729,493.25256L215.06729,493.01254L214.82726,493.01254L214.82726,492.77251
				L214.3472,492.77251L214.3472,492.53249L213.86714,492.53249L213.86714,492.05243L213.62711,492.05243L213.62711,491.81241L213.14705,491.81241
				L213.14705,491.57238L212.66699,491.57238L212.66699,491.09233L212.42696,491.09233L212.42696,490.85231L211.70687,490.85231
				L211.70687,490.61228L211.46684,490.61228L211.46684,490.37225L210.74674,490.37225L210.74674,489.8922L210.50671,489.8922L210.50671,489.65218
				L209.78662,489.65218L209.78662,489.41215L209.54659,489.41215L209.54659,489.17213L209.06653,489.17213L209.06653,488.69208
				L208.58647,488.69208L208.58647,488.45205L208.10641,488.45205L208.10641,488.21202L207.86638,488.21202L207.86638,487.972L206.66623,487.972
				L206.66623,487.49195L205.46607,487.49195L205.46607,487.25192L203.78586,487.25192L203.78586,487.0119L202.34568,487.0119L202.34568,486.77187
				L200.9055,486.77187L200.9055,486.29182L199.70534,486.29182L199.70534,486.05179L199.94537,486.05179L199.94537,485.81177L201.86562,485.81177
				L201.86562,485.57174L203.3058,485.57174L203.3058,485.09169L205.70611,485.09169L205.70611,484.85167L206.90626,484.85167L206.90626,485.09169
				L207.14629,485.09169L207.14629,484.85167L207.86638,484.85167L207.86638,485.09169L209.78662,485.09169L209.78662,484.85167
				L213.62711,484.85167L213.62711,484.61164L216.02742,484.61164L216.02742,484.37162L217.4676,484.37162L217.4676,483.89156L217.70763,483.89156
				L217.70763,483.65154L217.94766,483.65154L217.94766,483.41151L218.42772,483.41151L218.42772,482.69144L218.66775,482.69144
				L218.66775,482.45141L218.90778,482.45141L218.90778,482.21139L219.14781,482.21139L219.14781,481.97136L219.62787,481.97136
				L219.62787,481.25128L219.8679,481.25128L219.8679,479.5711L220.10793,479.5711L220.10793,478.37098L220.34796,478.37098L220.34796,477.17085
				L220.82802,477.17085L220.82802,475.97072L221.06805,475.97072L221.06805,475.25064L221.30809,475.25064L221.30809,474.29054
				L221.54812,474.29054L221.54812,473.81049L222.02818,473.81049L222.02818,473.57046L222.26821,473.57046L222.26821,472.85039
				L222.50824,472.85039L222.50824,472.37034L222.74827,472.37034L222.74827,471.89029L223.22833,471.89029L223.22833,471.65026
				L223.46836,471.65026L223.46836,471.17021L223.70839,471.17021L223.70839,470.45013L223.94842,470.45013L223.94842,470.21011
				L224.42848,470.21011L224.42848,469.97008L224.66851,469.97008L224.66851,469.25L224.90854,469.25L224.90854,468.76995L225.14857,468.76995
				L225.14857,468.2899L225.62863,468.2899L225.62863,468.04988L225.86866,468.04988L225.86866,467.80985L226.10869,467.80985L226.10869,467.3298
				L226.34872,467.3298L226.34872,466.84975L226.82879,466.84975L226.82879,466.60972L227.06882,466.60972L227.06882,466.12967L
				227.30885,466.12967L227.30885,465.88965L227.54888,465.88965L227.54888,465.64962L228.02894,465.64962L228.02894,465.40959L
				228.26897,465.40959L228.26897,464.92954L228.509,464.92954L228.509,464.68952L228.74903,464.68952L228.74903,464.44949L229.22909,464.44949
				L229.22909,464.20947L229.46912,464.20947L229.46912,463.72942L229.70915,463.72942L229.70915,463.48939L229.94918,463.48939
				L229.94918,462.52929L230.42924,462.52929L230.42924,462.04924L230.66927,462.04924L230.66927,461.08913L230.9093,461.08913L
				230.9093,460.60908L231.14933,460.60908L231.14933,459.88901L231.62939,459.88901L231.62939,458.9289L231.86943,458.9289L231.86943,458.44885
				L232.10946,458.44885L232.10946,457.48875L232.34949,457.48875L232.34949,457.0087L232.82955,457.0087L232.82955,456.28862L233.06958,456.28862
				L233.06958,455.32852L233.30961,455.32852L233.30961,454.84847L233.54964,454.84847L233.54964,453.88837L234.0297,453.88837L
				234.0297,453.40832L234.26973,453.40832L234.26973,452.44821L234.50976,452.44821L234.50976,451.72814L234.74979,451.72814L234.74979,451.24809
				L235.22985,451.24809L235.22985,450.28798L235.46988,450.28798L235.46988,449.80793L235.70991,449.80793L235.70991,448.84783
				L236.18997,448.84783L236.18997,437.56663L235.70991,437.56663L235.70991,438.04668L235.22985,438.04668L235.22985,438.2867L
				234.50976,438.2867L234.50976,438.52673L233.54964,438.52673L233.54964,438.76676L233.06958,438.76676L233.06958,439.24681L232.10946,439.24681
				L232.10946,439.48683L231.62939,439.48683L231.62939,439.72686L230.9093,439.72686L230.9093,439.96688L229.94918,439.96688L229.94918,440.44693
				L229.46912,440.44693L229.46912,440.68696L228.509,440.68696L228.509,440.92699L228.02894,440.92699L228.02894,441.16701L227.06882,441.16701
				L227.06882,441.64706L226.34872,441.64706L226.34872,441.88709L225.86866,441.88709L225.86866,442.12711L224.90854,442.12711
				L224.90854,442.36714L223.94842,442.36714L223.94842,442.84719L223.46836,442.84719L223.46836,443.08722L222.50824,443.08722
				L222.50824,443.32724L221.54812,443.32724L221.54812,443.56727L221.06805,443.56727L221.06805,444.04732L220.10793,444.04732
				L220.10793,444.28734L219.62787,444.28734L219.62787,444.52737L218.66775,444.52737L218.66775,444.7674L217.94766,444.7674L217.94766,445.24745
				L217.22757,445.24745L217.22757,445.48747L216.26745,445.48747L216.26745,445.7275L215.54735,445.7275L215.54735,446.20755L214.82726,446.20755
				L214.82726,446.44757L214.10717,446.44757L214.10717,446.6876L212.90702,446.6876L212.90702,446.92763L211.70687,446.92763L211.70687,447.40768
				L209.06653,447.40768L209.06653,447.6477L207.38632,447.6477L207.38632,447.88773L206.90626,447.88773L206.90626,448.12775L206.66623,448.12775
				L206.66623,448.6078L206.18617,448.6078L206.18617,448.84783L205.70611,448.84783L205.70611,449.08786L204.98601,449.08786L204.98601,449.32788
				L204.74598,449.32788L204.74598,449.80793L203.3058,449.80793L203.3058,450.04796L202.34568,450.04796L202.34568,450.28798L200.66547,450.28798
				L200.66547,450.52801L199.46531,450.52801L199.46531,451.00806L198.26516,451.00806L198.26516,451.24809L196.58495,451.24809
				L196.58495,451.48811L195.14476,451.48811L195.14476,451.72814L193.70458,451.72814L193.70458,452.20819L191.30428,452.20819
				L191.30428,451.72814L188.18388,451.72814L188.18388,451.48811L186.50367,451.48811L186.50367,451.72814L186.02361,451.72814
				L186.02361,452.20819L185.54355,452.20819L185.54355,452.44821L185.30352,452.44821L185.30352,452.68824L184.82346,452.68824
				L184.82346,452.92826L184.58342,452.92826L184.58342,453.40832L184.10336,453.40832L184.10336,453.64834L183.38327,453.64834
				L183.38327,454.12839L182.90321,454.12839L182.90321,454.60844L182.42315,454.60844L182.42315,454.84847L182.18312,454.84847
				L182.18312,455.0885L181.94309,455.0885L181.94309,455.32852L181.70306,455.32852L181.70306,455.80857L180.98297,455.80857L180.98297,456.0486
				L180.74294,456.0486L180.74294,456.28862L180.50291,456.28862L180.50291,456.52865L179.78282,456.52865L179.78282,457.0087L179.54278,457.0087
				L179.54278,457.24873L178.58266,457.24873L178.58266,457.48875L178.1026,457.48875L178.1026,457.72878L177.62254,457.72878L177.62254,458.20883
				L177.38251,458.20883L177.38251,458.68888L177.14248,458.68888L177.14248,458.9289L176.90245,458.9289L176.90245,459.64898L176.42239,459.64898
				L176.42239,460.60908L176.18236,460.60908L176.18236,460.84911L175.94233,460.84911L175.94233,462.04924L175.22224,462.04924
				L175.22224,452.20819L175.7023,452.20819L175.7023,451.72814L175.94233,451.72814L175.94233,451.48811L176.18236,451.48811L176.18236,451.24809
				L176.42239,451.24809L176.42239,451.00806L176.90245,451.00806L176.90245,450.52801L177.14248,450.52801L177.14248,450.28798
				L177.38251,450.28798L177.38251,450.04796L177.62254,450.04796L177.62254,449.80793L178.1026,449.80793L178.1026,449.32788L178.34263,449.32788
				L178.34263,449.08786L178.58266,449.08786L178.58266,448.84783L178.82269,448.84783L178.82269,448.6078L179.54278,448.6078L179.54278,448.12775
				L180.02285,448.12775L180.02285,447.88773L180.74294,447.88773L180.74294,447.6477L181.223,447.6477L181.223,447.40768L181.94309,447.40768
				L181.94309,446.92763L182.42315,446.92763L182.42315,446.6876L183.14324,446.6876L183.14324,446.44757L183.6233,446.44757L183.6233,446.20755
				L184.34339,446.20755L184.34339,445.7275L184.82346,445.7275L184.82346,445.48747L185.54355,445.48747L185.54355,445.24745L186.50367,445.24745
				L186.50367,444.7674L186.7437,444.7674L186.7437,444.52737L187.22376,444.52737L187.22376,444.28734L187.94385,444.28734L187.94385,444.04732
				L188.18388,444.04732L188.18388,443.56727L188.90397,443.56727L188.90397,443.32724L189.144,443.32724L189.144,443.08722L189.86409,443.08722
				L189.86409,442.84719L190.34416,442.84719L190.34416,442.36714L190.58419,442.36714L190.58419,442.12711L191.30428,442.12711
				L191.30428,441.88709L191.78434,441.88709L191.78434,441.64706L192.74446,441.64706L192.74446,441.16701L193.70458,441.16701
				L193.70458,440.92699L194.6647,440.92699L194.6647,440.68696L195.14476,440.68696L195.14476,440.44693L195.3848,440.44693L195.3848,439.96688
				L195.86486,439.96688L195.86486,439.72686L196.10489,439.72686L196.10489,439.48683L196.34492,439.48683L196.34492,439.24681
				L196.58495,439.24681L196.58495,438.76676L197.06501,438.76676L197.06501,438.52673L197.30504,438.52673L197.30504,438.2867L
				197.54507,438.2867L197.54507,438.04668L197.7851,438.04668L197.7851,437.56663L198.26516,437.56663L198.26516,437.3266L198.50519,437.3266
				L198.50519,437.08658L198.74522,437.08658L198.74522,436.3665L198.98525,436.3665L198.98525,436.12647L199.46531,436.12647L199.46531,435.88645
				L199.70534,435.88645L199.70534,435.64642L199.94537,435.64642L199.94537,434.92635L200.1854,434.92635L200.1854,434.4463L200.66547,434.4463
				L200.66547,433.72622L200.9055,433.72622L200.9055,433.24617L201.14553,433.24617L201.14553,432.28607L201.38556,432.28607L201.38556,431.56599
				L201.86562,431.56599L201.86562,431.08594L202.10565,431.08594L202.10565,430.36586L202.34568,430.36586L202.34568,429.64578
				L202.58571,429.64578L202.58571,426.0454L203.06577,426.0454L203.06577,423.88517L202.58571,423.88517L202.58571,422.68504L202.34568,422.68504
				L202.34568,421.72494L202.10565,421.72494L202.10565,420.76484L201.86562,420.76484L201.86562,419.80474L201.38556,419.80474
				L201.38556,419.08466L201.14553,419.08466L201.14553,418.12456L200.9055,418.12456L200.9055,417.40448L200.66547,417.40448L200.66547,416.92443
				L200.1854,416.92443L200.1854,416.20435L199.94537,416.20435L199.94537,415.7243L199.70534,415.7243L199.70534,415.00422L199.46531,415.00422
				L199.46531,414.52417L198.98525,414.52417L198.98525,413.8041L198.74522,413.8041L198.74522,413.32404L198.50519,413.32404L198.50519,412.60397
				L198.26516,412.60397L198.26516,412.12392L197.7851,412.12392L197.7851,411.88389L197.54507,411.88389L197.54507,411.16381L197.30504,411.16381
				L197.30504,410.92379L197.06501,410.92379L197.06501,410.20371L196.58495,410.20371L196.58495,409.96369L196.34492,409.96369
				L196.34492,409.72366L196.10489,409.72366L196.10489,409.00358L195.86486,409.00358L195.86486,408.76356L195.3848,408.76356L
				195.3848,408.28351L195.14476,408.28351L195.14476,407.80346L194.90473,407.80346L194.90473,407.32341L194.6647,407.32341L194.6647,407.08338
				L194.18464,407.08338L194.18464,406.3633L193.94461,406.3633L193.94461,406.12328L193.70458,406.12328L193.70458,405.88325L193.46455,405.88325
				L193.46455,405.4032L192.98449,405.4032L192.98449,405.16318L192.74446,405.16318L192.74446,404.92315L192.50443,404.92315L192.50443,404.68312
				L192.2644,404.68312L192.2644,404.20307L191.78434,404.20307L191.78434,403.96305L191.54431,403.96305L191.54431,403.72302L191.30428,403.72302
				L191.30428,403.483L191.06425,403.483L191.06425,403.00294L190.58419,403.00294L190.58419,402.76292L190.34416,402.76292L190.34416,402.52289
				L190.10413,402.52289L190.10413,402.28287L189.86409,402.28287L189.86409,401.80282L189.38403,401.80282L189.38403,401.56279
				L189.144,401.56279L189.144,401.32277L188.42391,401.32277L188.42391,401.08274L187.94385,401.08274L187.94385,400.60269L187.70382,400.60269
				L187.70382,400.36266L186.98373,400.36266L186.98373,400.12264L186.50367,400.12264L186.50367,399.88261L186.02361,399.88261
				L186.02361,399.40256L185.54355,399.40256L185.54355,399.16254L185.30352,399.16254L185.30352,398.92251L184.58342,398.92251
				L184.58342,398.68248L182.90321,398.68248"/>
			<path clip-path="url(#SVG_CP_2)" fill="none" stroke="#999999" stroke-width="0.96012" stroke-miterlimit="10" stroke-linecap="round" stroke-linejoin="round" d="
				M182.90321,398.68248L182.90321,398.92251L182.42315,398.92251L182.42315,399.40256L182.18312,399.40256L182.18312,400.36266
				L182.42315,400.36266L182.42315,401.08274L182.90321,401.08274L182.90321,401.32277L176.90245,401.32277L176.90245,401.56279
				L176.18236,401.56279L176.18236,401.80282L175.94233,401.80282L175.94233,402.28287L175.22224,402.28287L175.22224,402.52289
				L174.74218,402.52289L174.74218,402.76292L174.50215,402.76292L174.50215,403.00294L173.78205,403.00294L173.78205,403.483L173.30199,403.483
				L173.30199,403.72302L172.5819,403.72302L172.5819,403.96305L172.34187,403.96305L172.34187,404.20307L171.62178,404.20307L171.62178,404.68312
				L171.14172,404.68312L171.14172,404.92315L170.90169,404.92315L170.90169,405.16318L170.1816,405.16318L170.1816,405.4032L169.70154,405.4032
				L169.70154,405.88325L168.50138,405.88325L168.50138,406.12328L167.54126,406.12328L167.54126,406.3633L166.34111,406.3633L166.34111,406.60333
				L165.38099,406.60333L165.38099,407.08338L164.42087,407.08338L164.42087,407.32341L163.22071,407.32341L163.22071,407.56343
				L160.82041,407.56343L160.82041,407.32341L159.38023,407.32341L159.38023,407.08338L158.4201,407.08338L158.4201,406.12328L158.18007,406.12328
				L158.18007,404.92315L157.94004,404.92315L157.94004,403.72302L157.45998,403.72302L157.45998,402.52289L157.21995,402.52289
				L157.21995,401.08274L156.97992,401.08274L156.97992,398.92251L156.73989,398.92251L156.73989,396.52225L156.25983,396.52225
				L156.25983,394.122L156.0198,394.122L156.0198,391.72174L155.77977,391.72174L155.77977,388.12136L156.0198,388.12136L156.0198,386.44118
				L156.25983,386.44118L156.25983,385.00103L156.73989,385.00103L156.73989,383.56087L156.97992,383.56087L156.97992,381.64067
				L157.21995,381.64067L157.21995,381.16062L157.94004,381.16062L157.94004,380.92059L158.66013,380.92059L158.66013,380.44054
				L159.38023,380.44054L159.38023,380.20051L159.86029,380.20051L159.86029,379.96049L160.82041,379.96049L160.82041,379.72046
				L161.5405,379.72046L161.5405,379.24041L162.02056,379.24041L162.02056,379.00039L163.46074,379.00039L163.46074,378.76036L165.62102,378.76036
				L165.62102,378.52034L167.54126,378.52034L167.54126,378.04028L169.70154,378.04028L169.70154,377.80026L171.62178,377.80026
				L171.62178,377.56023L173.78205,377.56023L173.78205,377.32021L175.94233,377.32021L175.94233,376.84016L177.14248,376.84016
				L177.14248,376.60013L177.62254,376.60013L177.62254,376.36011L178.58266,376.36011L178.58266,376.12008L179.30275,376.12008
				L179.30275,375.64003L179.78282,375.64003L179.78282,375.4L180.50291,375.4L180.50291,375.15998L181.223,375.15998L181.223,374.67993
				L181.94309,374.67993L181.94309,374.4399L182.42315,374.4399L182.42315,374.19988L183.14324,374.19988L183.14324,373.95985L183.6233,373.95985
				L183.6233,373.4798L184.10336,373.4798L184.10336,373.23977L184.34339,373.23977L184.34339,372.99975L184.58342,372.99975L184.58342,372.75972
				L184.82346,372.75972L184.82346,372.27967L185.30352,372.27967L185.30352,371.79962L185.54355,371.79962L185.54355,371.55959
				L185.78358,371.55959L185.78358,371.07954L186.02361,371.07954L186.02361,370.83952L186.50367,370.83952L186.50367,370.59949
				L186.7437,370.59949L186.7437,370.35947L186.98373,370.35947L186.98373,369.87942L187.22376,369.87942L187.22376,369.63939L187.70382,369.63939
				L187.70382,369.39936L187.94385,369.39936L187.94385,369.15934L188.18388,369.15934L188.18388,368.43926L188.42391,368.43926
				L188.42391,368.19924L188.90397,368.19924L188.90397,367.95921L189.144,367.95921L189.144,367.47916L189.38403,367.47916L189.38403,367.23913
				L189.86409,367.23913L189.86409,366.75908L190.10413,366.75908L190.10413,366.03901L190.34416,366.03901L190.34416,365.55895
				L190.58419,365.55895L190.58419,364.83888L191.06425,364.83888L191.06425,364.35883L191.30428,364.35883L191.30428,363.63875
				L191.54431,363.63875L191.54431,363.39872L191.78434,363.39872L191.78434,362.67865L192.2644,362.67865L192.2644,362.1986L192.50443,362.1986
				L192.50443,361.47852L192.74446,361.47852L192.74446,360.99847L192.98449,360.99847L192.98449,360.27839L193.46455,360.27839
				L193.46455,359.79834L193.70458,359.79834L193.70458,359.07826L193.94461,359.07826L193.94461,358.59821L194.18464,358.59821
				L194.18464,357.87814L194.6647,357.87814L194.6647,357.39809L194.90473,357.39809L194.90473,356.67801L195.14476,356.67801L195.14476,336.03581
				L194.90473,336.03581L194.90473,335.31573L194.6647,335.31573L194.6647,334.83568L194.18464,334.83568L194.18464,333.87558L193.94461,333.87558
				L193.94461,333.39553L193.70458,333.39553L193.70458,332.67545L193.46455,332.67545L193.46455,332.1954L192.98449,332.1954L192.98449,331.2353
				L192.74446,331.2353L192.74446,330.51522L192.50443,330.51522L192.50443,330.03517L192.2644,330.03517L192.2644,329.31509L191.78434,329.31509
				L191.78434,328.83504L191.54431,328.83504L191.54431,327.87494L191.30428,327.87494L191.30428,327.15486L191.06425,327.15486
				L191.06425,326.67481L190.58419,326.67481L190.58419,325.95473L190.34416,325.95473L190.34416,325.23466L190.10413,325.23466
				L190.10413,324.51458L189.86409,324.51458L189.86409,324.03453L189.38403,324.03453L189.38403,323.31445L189.144,323.31445L189.144,322.35435
				L188.90397,322.35435L188.90397,321.8743L188.42391,321.8743L188.42391,321.15422L188.18388,321.15422L188.18388,320.67417L187.94385,320.67417
				L187.94385,319.71407L187.70382,319.71407L187.70382,319.23402L187.22376,319.23402L187.22376,318.51394L186.98373,318.51394
				L186.98373,318.03389L186.7437,318.03389L186.7437,317.07379L186.50367,317.07379L186.50367,316.35371L186.02361,316.35371L186.02361,315.87366
				L185.78358,315.87366L185.78358,315.15358L185.54355,315.15358L185.54355,314.43351L185.30352,314.43351L185.30352,313.71343
				L184.82346,313.71343L184.82346,313.23338L184.58342,313.23338L184.58342,312.5133L184.34339,312.5133L184.34339,311.5532L184.10336,311.5532
				L184.10336,311.07315L183.6233,311.07315L183.6233,310.35307L183.38327,310.35307L183.38327,309.87302L183.14324,309.87302L183.14324,308.91292
				L182.90321,308.91292L182.90321,308.43287L182.42315,308.43287L182.42315,307.71279L182.18312,307.71279L182.18312,307.23274
				L181.94309,307.23274L181.94309,306.27264L181.70306,306.27264L181.70306,305.55256L181.223,305.55256L181.223,305.07251L180.98297,305.07251
				L180.98297,304.35243L180.74294,304.35243L180.74294,303.39233L180.50291,303.39233L180.50291,302.91228L180.02285,302.91228
				L180.02285,302.1922L179.78282,302.1922L179.78282,301.71215L179.54278,301.71215L179.54278,300.99207L180.50291,300.99207L180.50291,300.75205
				L181.70306,300.75205L181.70306,300.51202L183.14324,300.51202L183.14324,300.272L184.34339,300.272L184.34339,299.79195L185.78358,299.79195
				L185.78358,299.55192L187.22376,299.55192L187.22376,299.3119L187.94385,299.3119L187.94385,298.59182L188.90397,298.59182L188.90397,299.07187
				L189.38403,299.07187L189.38403,299.3119L190.58419,299.3119L190.58419,299.55192L191.78434,299.55192L191.78434,299.79195L193.46455,299.79195
				L193.46455,300.272L194.6647,300.272L194.6647,300.51202L196.10489,300.51202L196.10489,300.75205L197.30504,300.75205L197.30504,300.99207
				L198.98525,300.99207L198.98525,301.47213L199.94537,301.47213L199.94537,301.71215L200.9055,301.71215L200.9055,301.95218L203.54583,301.95218
				L203.54583,302.1922L205.70611,302.1922L205.70611,302.67225L208.58647,302.67225L208.58647,302.1922L210.26668,302.1922L210.26668,301.95218
				L210.50671,301.95218L210.50671,301.71215L210.74674,301.71215L210.74674,301.47213L210.98678,301.47213L210.98678,300.99207
				L211.46684,300.99207L211.46684,300.75205L211.70687,300.75205L211.70687,300.272L211.9469,300.272L211.9469,299.55192L212.42696,299.55192
				L212.42696,299.07187L212.66699,299.07187L212.66699,298.11177L212.90702,298.11177L212.90702,296.91164L213.14705,296.91164
				L213.14705,295.95154L213.62711,295.95154L213.62711,294.75141L213.86714,294.75141L213.86714,293.55128L214.10717,293.55128
				L214.10717,292.59118L214.3472,292.59118L214.3472,291.39105L214.82726,291.39105L214.82726,290.67097L215.06729,290.67097L215.06729,289.47085
				L215.30732,289.47085L215.30732,288.51074L215.54735,288.51074L215.54735,287.31062L216.02742,287.31062L216.02742,286.11049
				L216.26745,286.11049L216.26745,284.67034L216.50748,284.67034L216.50748,283.47021L216.74751,283.47021L216.74751,282.03005
				L217.22757,282.03005L217.22757,280.5899L217.4676,280.5899L217.4676,280.10985L216.50748,280.10985L216.50748,279.6298L212.42696,279.6298
				L212.42696,279.38977L207.86638,279.38977L207.86638,279.14975L203.54583,279.14975L203.54583,278.90972L201.86562,278.90972
				L201.86562,278.42967L202.10565,278.42967L202.10565,276.02941L202.34568,276.02941L202.34568,274.10921L200.1854,274.10921L
				200.1854,273.62916L197.7851,273.62916L197.7851,271.70895L198.26516,271.70895L198.26516,269.3087L198.50519,269.3087L198.50519,267.14847
				L198.74522,267.14847L198.74522,264.74821L198.98525,264.74821L198.98525,263.54808L199.46531,263.54808L199.46531,263.78811
				L199.94537,263.78811L199.94537,264.02814L200.66547,264.02814L200.66547,264.50819L201.14553,264.50819L201.14553,264.74821
				L201.86562,264.74821L201.86562,264.98824L202.34568,264.98824L202.34568,265.22826L203.06577,265.22826L203.06577,265.70831
				L203.54583,265.70831L203.54583,265.94834L223.94842,265.94834L223.94842,266.90844L223.70839,266.90844L223.70839,268.10857
				L223.46836,268.10857L223.46836,268.82865L223.22833,268.82865L223.22833,270.02877L222.74827,270.02877L222.74827,270.98888
				L222.50824,270.98888L222.50824,272.18901L222.26821,272.18901L222.26821,273.38913L222.02818,273.38913L222.02818,274.34924
				L221.54812,274.34924L221.54812,275.54936L221.30809,275.54936L221.30809,276.50947L221.06805,276.50947L221.06805,276.74949
				L221.30809,276.74949L221.30809,276.98952L222.02818,276.98952L222.02818,277.22954L222.26821,277.22954L222.26821,277.70959
				L222.74827,277.70959L222.74827,277.94962L223.22833,277.94962L223.22833,278.18964L223.46836,278.18964L223.46836,278.42967
				L223.94842,278.42967L223.94842,278.90972L224.42848,278.90972L224.42848,279.14975L224.66851,279.14975L224.66851,279.38977
				L225.14857,279.38977L225.14857,279.6298L225.62863,279.6298L225.62863,280.10985L226.10869,280.10985L226.10869,280.34987L226.34872,280.34987
				L226.34872,280.5899L226.82879,280.5899L226.82879,280.82993L227.30885,280.82993L227.30885,281.30998L227.54888,281.30998L227.54888,281.55
				L228.02894,281.55L228.02894,281.79003L228.509,281.79003L228.509,282.03005L228.74903,282.03005L228.74903,282.51011L229.22909,282.51011
				L229.22909,282.75013L229.70915,282.75013L229.70915,282.99016L229.94918,282.99016L229.94918,283.47021L230.66927,283.47021
				L230.66927,283.71023L230.9093,283.71023L230.9093,283.95026L231.14933,283.95026L231.14933,284.19028L231.86943,284.19028L231.86943,284.67034
				L232.10946,284.67034L232.10946,284.91036L232.82955,284.91036L232.82955,285.15039L233.06958,285.15039L233.06958,285.39041
				L233.30961,285.39041L233.30961,285.87046L234.0297,285.87046L234.0297,286.11049L234.26973,286.11049L234.26973,286.35051L234.74979,286.35051
				L234.74979,286.59054L235.22985,286.59054L235.22985,287.07059L235.46988,287.07059L235.46988,287.31062L236.43,287.31062L236.43,287.07059
				L236.67003,287.07059L236.67003,286.59054L236.91007,286.59054L236.91007,286.35051L237.39013,286.35051L237.39013,286.59054
				L237.87019,286.59054L237.87019,287.07059L238.11022,287.07059L238.11022,287.31062L238.83031,287.31062L238.83031,287.55064
				L239.07034,287.55064L239.07034,287.79067L239.79043,287.79067L239.79043,288.27072L240.03046,288.27072L240.03046,288.51074
				L240.27049,288.51074L240.27049,288.27072L240.51052,288.27072L240.51052,287.79067L240.99058,287.79067L240.99058,287.31062
				L241.23061,287.31062L241.23061,287.07059L241.47064,287.07059L241.47064,286.59054L241.71067,286.59054L241.71067,286.35051
				L242.19074,286.35051L242.19074,286.59054L242.6708,286.59054L242.6708,287.07059L242.91083,287.07059L242.91083,287.31062L243.63092,287.31062
				L243.63092,287.55064L243.87095,287.55064L243.87095,287.79067L244.11098,287.79067L244.11098,288.27072L244.83107,288.27072
				L244.83107,288.51074L245.0711,288.51074L245.0711,288.75077L245.31113,288.75077L245.31113,288.9908L246.03122,288.9908L246.03122,289.47085
				L246.27125,289.47085L246.27125,289.9509L246.03122,289.9509L246.03122,290.67097L245.79119,290.67097L245.79119,290.911L245.31113,290.911
				L245.31113,291.15103L245.0711,291.15103L245.0711,291.39105L245.79119,291.39105L245.79119,291.8711L246.99134,291.8711L246.99134,292.11113
				L247.71144,292.11113L247.71144,292.35115L248.91159,292.35115L248.91159,292.59118L250.11174,292.59118L250.11174,293.07123
				L251.07186,293.07123L251.07186,293.31126L252.27201,293.31126L252.27201,293.55128L253.23214,293.55128L253.23214,293.79131
				L254.43229,293.79131L254.43229,294.27136L261.15314,294.27136L261.15314,294.51138L263.79348,294.51138L263.79348,294.75141
				L266.19378,294.75141L266.19378,294.99144L268.83412,294.99144L268.83412,295.47149L271.23442,295.47149L271.23442,295.71151
				L273.87476,295.71151L273.87476,295.95154L276.75512,295.95154L276.75512,296.19156L279.15543,296.19156L279.15543,296.67161
				L279.63549,296.67161L279.63549,297.87174L279.39546,297.87174L279.39546,299.07187L279.15543,299.07187L279.15543,300.272L278.67537,300.272
				L278.67537,301.71215L278.43533,301.71215L278.43533,302.91228L278.1953,302.91228L278.1953,304.11241L277.95527,304.11241L277.95527,305.55256
				L277.47521,305.55256L277.47521,306.75269L277.23518,306.75269L277.23518,307.95282L276.99515,307.95282L276.99515,309.15294
				L276.75512,309.15294L276.75512,310.83312L276.27506,310.83312L276.27506,312.03325L276.03503,312.03325L276.03503,313.23338
				L275.795,313.23338L275.795,314.43351L275.55497,314.43351L275.55497,315.87366L275.07491,315.87366L275.07491,317.07379L274.83488,317.07379
				L274.83488,318.27392L274.59485,318.27392L274.59485,319.71407L274.35482,319.71407L274.35482,320.9142L273.87476,320.9142L273.87476,322.11433
				L273.63473,322.11433L273.63473,323.31445L273.3947,323.31445L273.3947,324.75461L273.15466,324.75461L273.15466,325.95473L272.6746,325.95473
				L272.6746,327.15486L272.43457,327.15486L272.43457,327.63491L273.15466,327.63491L273.15466,327.87494L273.63473,327.87494L
				273.63473,328.11496L274.59485,328.11496L274.59485,328.35499L275.07491,328.35499L275.07491,328.83504L276.03503,328.83504L
				276.03503,329.07507L276.75512,329.07507L276.75512,329.31509L277.47521,329.31509L277.47521,329.79514L278.1953,329.79514L278.1953,330.03517
				L278.67537,330.03517L278.67537,330.27519L279.63549,330.27519L279.63549,330.51522L280.35558,330.51522L280.35558,330.99527
				L281.07567,330.99527L281.07567,331.2353L281.79576,331.2353L281.79576,331.47532L282.75588,331.47532L282.75588,331.71535L283.23594,331.71535
				L283.23594,332.1954L283.95604,332.1954L283.95604,332.43543L284.91616,332.43543L284.91616,332.67545L285.39622,332.67545L285.39622,332.91548
				L286.35634,332.91548L286.35634,333.39553L286.8364,333.39553L286.8364,333.63555L287.79652,333.63555L287.79652,333.87558L288.51661,333.87558
				L288.51661,334.1156L288.99668,334.1156L288.99668,334.59566L289.9568,334.59566L289.9568,334.83568L290.43686,334.83568L290.43686,335.07571
				L291.39698,335.07571L291.39698,335.31573L292.11707,335.31573L292.11707,335.79578L292.83716,335.79578L292.83716,336.03581
				L293.55725,336.03581L293.55725,336.27583L294.03731,336.27583L294.03731,336.51586L294.99744,336.51586L294.99744,336.99591
				L295.71753,336.99591L295.71753,337.23594L296.43762,337.23594L296.43762,337.47596L297.15771,337.47596L297.15771,337.71599
				L298.11783,337.71599L298.11783,338.19604L298.59789,338.19604L298.59789,338.43606L299.55802,338.43606L299.55802,338.67609
				L300.03808,338.67609L300.03808,338.91612L300.9982,338.91612L300.9982,339.39617L301.95832,339.39617L301.95832,339.63619L302.43838,339.63619
				L302.43838,339.87622L303.3985,339.87622L303.3985,340.11624L304.11859,340.11624L304.11859,340.59629L305.07872,340.59629L305.07872,340.83632
				L305.55878,340.83632L305.55878,341.07635L306.5189,341.07635L306.5189,341.31637L306.99896,341.31637L306.99896,341.79642L307.95908,341.79642
				L307.95908,342.03645L308.67917,342.03645L308.67917,342.27647L309.39926,342.27647L309.39926,342.5165L310.11936,342.5165L310.11936,342.99655
				L310.35939,342.99655L310.35939,344.4367"/>
			<path clip-path="url(#SVG_CP_2)" fill="none" stroke="#999999" stroke-width="0.96012" stroke-miterlimit="10" stroke-linecap="round" stroke-linejoin="round" d="
				M356.9253,505.01382L356.2052,505.01382L356.2052,504.77379L355.48511,504.77379L355.48511,504.53376L354.52499,504.53376L354.52499,504.05371
				L351.88466,504.05371L351.88466,504.53376L348.76426,504.53376L348.76426,504.77379L348.04417,504.77379L348.04417,504.53376
				L348.52423,504.53376L348.52423,504.05371L349.24432,504.05371L349.24432,503.81369L349.72438,503.81369L349.72438,503.57366
				L350.44447,503.57366L350.44447,503.33364L350.92453,503.33364L350.92453,503.57366L353.32484,503.57366L353.32484,503.81369
				L355.72514,503.81369L355.72514,504.05371L356.2052,504.05371L356.2052,504.53376L356.68526,504.53376L356.68526,504.77379L356.9253,504.77379
				L356.9253,505.01382"/>
			<path clip-path="url(#SVG_CP_2)" fill="none" stroke="#999999" stroke-width="0.96012" stroke-miterlimit="10" stroke-linecap="round" stroke-linejoin="round" d="
				M356.9253,505.01382L357.40536,505.01382L357.40536,505.25384L356.9253,505.25384L356.9253,505.01382"/>
			<path clip-path="url(#SVG_CP_2)" fill="none" stroke="#999999" stroke-width="0.96012" stroke-miterlimit="10" stroke-linecap="round" stroke-linejoin="round" d="
				M357.88542,505.73389L357.64539,505.73389L357.64539,505.25384L357.88542,505.25384L357.88542,505.73389"/>
			<path clip-path="url(#SVG_CP_2)" fill="none" stroke="#999999" stroke-width="0.96012" stroke-miterlimit="10" stroke-linecap="round" stroke-linejoin="round" d="
				M345.64386,505.97392L345.64386,505.73389L345.88389,505.73389L345.88389,505.97392L345.64386,505.97392"/>
			<path clip-path="url(#SVG_CP_2)" fill="none" stroke="#999999" stroke-width="0.96012" stroke-miterlimit="10" stroke-linecap="round" stroke-linejoin="round" d="
				M344.92377,506.21394L344.92377,505.97392L345.64386,505.97392L345.64386,506.21394L344.92377,506.21394"/>
			<path clip-path="url(#SVG_CP_2)" fill="none" stroke="#999999" stroke-width="0.96012" stroke-miterlimit="10" stroke-linecap="round" stroke-linejoin="round" d="
				M344.68374,506.45397L344.68374,506.21394L344.92377,506.21394L344.92377,506.45397L344.68374,506.45397"/>
			<path clip-path="url(#SVG_CP_2)" fill="none" stroke="#999999" stroke-width="0.96012" stroke-miterlimit="10" stroke-linecap="round" stroke-linejoin="round" d="
				M343.96365,506.93402L343.96365,506.45397L344.68374,506.45397L344.68374,506.93402L343.96365,506.93402"/>
			<path clip-path="url(#SVG_CP_2)" fill="none" stroke="#999999" stroke-width="0.96012" stroke-miterlimit="10" stroke-linecap="round" stroke-linejoin="round" d="
				M343.72362,507.17405L343.72362,506.93402L343.96365,506.93402L343.96365,507.17405L343.72362,507.17405"/>
			<path clip-path="url(#SVG_CP_2)" fill="none" stroke="#999999" stroke-width="0.96012" stroke-miterlimit="10" stroke-linecap="round" stroke-linejoin="round" d="
				M343.72362,507.17405L343.72362,507.41407L343.48359,507.41407L343.48359,507.17405L343.72362,507.17405"/>
			<path clip-path="url(#SVG_CP_2)" fill="none" stroke="#999999" stroke-width="0.96012" stroke-miterlimit="10" stroke-linecap="round" stroke-linejoin="round" d="
				M342.7635,508.13415L342.52347,508.13415L342.52347,507.6541L342.7635,507.6541L342.7635,508.13415"/>
			<path clip-path="url(#SVG_CP_2)" fill="none" stroke="#999999" stroke-width="0.96012" stroke-miterlimit="10" stroke-linecap="round" stroke-linejoin="round" d="
				M334.1224,514.37481L334.1224,514.13479L334.36243,514.13479L334.36243,514.37481L334.1224,514.37481"/>
			<path clip-path="url(#SVG_CP_2)" fill="none" stroke="#999999" stroke-width="0.96012" stroke-miterlimit="10" stroke-linecap="round" stroke-linejoin="round" d="
				M333.88237,514.61484L333.88237,514.37481L334.1224,514.37481L334.1224,514.61484L333.88237,514.61484"/>
			<path clip-path="url(#SVG_CP_2)" fill="none" stroke="#999999" stroke-width="0.96012" stroke-miterlimit="10" stroke-linecap="round" stroke-linejoin="round" d="
				M333.64234,515.09489L333.64234,514.61484L333.88237,514.61484L333.88237,515.09489L333.64234,515.09489"/>
			<path clip-path="url(#SVG_CP_2)" fill="none" stroke="#999999" stroke-width="0.96012" stroke-miterlimit="10" stroke-linecap="round" stroke-linejoin="round" d="
				M332.92225,515.33492L332.92225,515.09489L333.64234,515.09489L333.64234,515.33492L332.92225,515.33492"/>
			<path clip-path="url(#SVG_CP_2)" fill="none" stroke="#999999" stroke-width="0.96012" stroke-miterlimit="10" stroke-linecap="round" stroke-linejoin="round" d="
				M332.68222,515.57494L332.68222,515.33492L332.92225,515.33492L332.92225,515.57494L332.68222,515.57494"/>
			<path clip-path="url(#SVG_CP_2)" fill="none" stroke="#999999" stroke-width="0.96012" stroke-miterlimit="10" stroke-linecap="round" stroke-linejoin="round" d="
				M332.44219,515.81497L332.44219,515.57494L332.68222,515.57494L332.68222,515.81497L332.44219,515.81497"/>
			<path clip-path="url(#SVG_CP_2)" fill="none" stroke="#999999" stroke-width="0.96012" stroke-miterlimit="10" stroke-linecap="round" stroke-linejoin="round" d="
				M331.24204,516.77507L331.24204,516.53504L331.48207,516.53504L331.48207,516.29502L331.7221,516.29502L331.7221,515.81497L332.44219,515.81497
				L332.44219,516.29502L331.96213,516.29502L331.96213,516.53504L331.7221,516.53504L331.7221,516.77507L331.24204,516.77507"/>
			<path clip-path="url(#SVG_CP_2)" fill="none" stroke="#999999" stroke-width="0.96012" stroke-miterlimit="10" stroke-linecap="round" stroke-linejoin="round" d="
				M330.52194,517.01509L330.52194,516.77507L331.24204,516.77507L331.24204,517.01509L330.52194,517.01509"/>
			<path clip-path="url(#SVG_CP_2)" fill="none" stroke="#999999" stroke-width="0.96012" stroke-miterlimit="10" stroke-linecap="round" stroke-linejoin="round" d="
				M330.52194,517.01509L330.52194,517.49515L330.28191,517.49515L330.28191,517.01509L330.52194,517.01509"/>
			<path clip-path="url(#SVG_CP_2)" fill="none" stroke="#999999" stroke-width="0.96012" stroke-miterlimit="10" stroke-linecap="round" stroke-linejoin="round" d="
				M309.39926,533.81688L309.39926,533.57686L309.87933,533.57686L309.87933,533.81688L309.39926,533.81688"/>
			<path clip-path="url(#SVG_CP_2)" fill="none" stroke="#999999" stroke-width="0.96012" stroke-miterlimit="10" stroke-linecap="round" stroke-linejoin="round" d="
				M288.99668,494.21266L289.71677,494.21266L289.71677,493.97264L289.9568,493.97264L289.9568,493.73261L290.19683,493.73261L290.19683,493.25256
				L290.43686,493.25256L290.43686,493.01254L290.91692,493.01254L290.91692,492.77251L291.15695,492.77251L291.15695,492.53249
				L291.39698,492.53249L291.39698,492.05243L291.63701,492.05243L291.63701,491.81241L292.11707,491.81241L292.11707,491.57238
				L292.3571,491.57238L292.3571,491.09233L292.59713,491.09233L292.59713,490.85231L292.83716,490.85231L292.83716,490.61228L293.31722,490.61228
				L293.31722,490.37225L293.55725,490.37225L293.55725,489.8922L293.79728,489.8922L293.79728,489.65218L294.03731,489.65218L294.03731,489.41215
				L294.51738,489.41215L294.51738,489.17213L294.75741,489.17213L294.75741,488.69208L294.99744,488.69208L294.99744,488.45205
				L295.23747,488.45205L295.23747,488.21202L295.71753,488.21202L295.71753,487.972L295.95756,487.972L295.95756,487.49195L296.19759,487.49195
				L296.19759,487.25192L296.43762,487.25192L296.43762,487.0119L296.91768,487.0119L296.91768,486.77187L297.15771,486.77187L297.15771,486.29182
				L297.39774,486.29182L297.39774,486.05179L297.63777,486.05179L297.63777,485.81177L298.11783,485.81177L298.11783,485.57174
				L298.35786,485.57174L298.35786,485.09169L298.59789,485.09169L298.59789,484.85167L298.83792,484.85167L298.83792,484.61164
				L299.31798,484.61164L299.31798,484.37162L299.55802,484.37162L299.55802,469.49003L299.79805,469.49003L299.79805,456.52865
				L300.03808,456.52865L300.03808,455.32852L300.51814,455.32852L300.51814,454.12839L300.75817,454.12839L300.75817,452.92826
				L300.9982,452.92826L300.9982,451.72814L301.23823,451.72814L301.23823,450.52801L301.71829,450.52801L301.71829,449.32788L301.95832,449.32788
				L301.95832,447.40768L302.19835,447.40768L302.19835,445.7275L302.43838,445.7275L302.43838,444.28734L302.91844,444.28734L302.91844,440.92699
				L303.15847,440.92699L303.15847,438.04668L303.3985,438.04668L303.3985,434.68632L303.63853,434.68632L303.63853,421.72494L304.11859,421.72494
				L304.11859,421.48491L304.35862,421.48491L304.35862,421.00486L304.59865,421.00486L304.59865,420.76484L305.07872,420.76484
				L305.07872,420.52481L305.31875,420.52481L305.31875,420.28479L305.55878,420.28479L305.55878,419.80474L305.79881,419.80474
				L305.79881,419.56471L306.27887,419.56471L306.27887,419.32468L306.5189,419.32468L306.5189,419.08466L306.75893,419.08466L306.75893,418.60461
				L306.99896,418.60461L306.99896,418.36458L307.47902,418.36458L307.47902,418.12456L307.71905,418.12456L307.71905,417.88453
				L307.95908,417.88453L307.95908,416.20435L308.19911,416.20435L308.19911,415.00422L308.67917,415.00422L308.67917,411.88389
				L308.9192,411.88389L308.9192,409.72366L309.15923,409.72366L309.15923,384.52098L309.39926,384.52098L309.39926,384.04092L309.87933,384.04092
				L309.87933,362.43862L310.11936,362.43862L310.11936,362.1986L310.35939,362.1986L310.35939,361.95857L310.59942,361.95857L310.59942,361.47852
				L311.07948,361.47852L311.07948,361.23849L311.31951,361.23849L311.31951,352.8376L311.55954,352.8376L311.55954,345.87686L311.31951,345.87686
				L311.31951,345.63683L311.07948,345.63683L311.07948,345.39681L310.59942,345.39681L310.59942,344.91676L310.35939,344.91676
				L310.35939,344.4367L310.59942,344.4367L310.59942,342.99655L311.07948,342.99655L311.07948,343.23658L311.55954,343.23658L311.55954,343.4766
				L312.27963,343.4766L312.27963,342.99655L312.51966,342.99655L312.51966,341.07635L312.75969,341.07635L312.75969,339.39617L
				312.99972,339.39617L312.99972,337.47596L313.47978,337.47596L313.47978,335.79578L313.71981,335.79578L313.71981,333.87558L
				313.95984,333.87558L313.95984,331.71535L314.19987,331.71535L314.19987,330.03517L314.67993,330.03517L314.67993,328.11496L
				314.91996,328.11496L314.91996,326.43479L315.16,326.43479L315.16,324.51458L315.40003,324.51458L315.40003,322.8344L315.88009,322.8344
				L315.88009,320.9142L316.12012,320.9142L316.12012,318.75397L316.36015,318.75397L316.36015,317.07379L316.60018,317.07379L316.60018,315.15358
				L317.08024,315.15358L317.08024,313.23338L317.32027,313.23338L317.32027,311.07315L317.5603,311.07315L317.5603,308.91292L317.80033,308.91292
				L317.80033,306.75269L318.28039,306.75269L318.28039,305.07251L318.52042,305.07251L318.52042,302.91228L318.76045,302.91228
				L318.76045,300.75205L319.00048,300.75205L319.00048,298.59182L319.48054,298.59182L319.48054,296.67161L319.72057,296.67161
				L319.72057,294.51138L319.9606,294.51138L319.9606,292.35115L320.20063,292.35115L320.20063,290.67097L320.6807,290.67097L320.6807,288.51074
				L320.92073,288.51074L320.92073,286.59054L321.16076,286.59054L321.16076,284.91036L321.40079,284.91036L321.40079,282.75013
				L321.88085,282.75013L321.88085,280.82993L322.12088,280.82993L322.12088,279.14975L322.36091,279.14975L322.36091,277.22954
				L322.60094,277.22954L322.60094,275.30934L323.081,275.30934L323.081,273.38913L323.32103,273.38913L323.32103,271.70895L323.56106,271.70895
				L323.56106,269.78875L323.80109,269.78875L323.80109,268.82865L324.28115,268.82865L324.28115,269.3087L324.52118,269.3087L324.52118,269.54872
				L325.00124,269.54872L325.00124,269.78875L325.48131,269.78875L325.48131,270.02877L325.72134,270.02877L325.72134,270.50883
				L325.96137,270.50883L325.96137,270.98888L326.2014,270.98888L326.2014,271.2289L326.68146,271.2289L326.68146,271.70895L326.92149,271.70895
				L326.92149,272.18901L327.16152,272.18901L327.16152,272.90908L327.40155,272.90908L327.40155,273.38913L327.88161,273.38913
				L327.88161,273.62916L328.12164,273.62916L328.12164,274.34924L328.36167,274.34924L328.36167,274.82929L328.84173,274.82929
				L328.84173,275.30934L329.08176,275.30934L329.08176,276.50947L329.32179,276.50947L329.32179,276.98952L329.56182,276.98952
				L329.56182,277.22954L330.04188,277.22954L330.04188,277.94962L330.28191,277.94962L330.28191,278.42967L330.52194,278.42967
				L330.52194,279.6298L330.76198,279.6298L330.76198,281.30998L331.24204,281.30998L331.24204,282.75013L331.48207,282.75013L331.48207,285.87046
				L331.7221,285.87046L331.7221,287.07059L331.96213,287.07059L331.96213,287.79067L332.44219,287.79067L332.44219,288.51074L332.68222,288.51074
				L332.68222,288.9908L332.92225,288.9908L332.92225,289.71087L333.16228,289.71087L333.16228,289.9509L333.64234,289.9509L333.64234,290.19092
				L333.88237,290.19092L333.88237,290.67097L334.1224,290.67097L334.1224,290.911L334.36243,290.911L334.36243,291.15103L334.84249,291.15103
				L334.84249,291.39105L335.08252,291.39105L335.08252,291.8711L335.32255,291.8711L335.32255,292.35115L335.56258,292.35115L335.56258,293.07123
				L336.04265,293.07123L336.04265,293.79131L336.28268,293.79131L336.28268,294.51138L336.52271,294.51138L336.52271,295.71151
				L336.76274,295.71151L336.76274,296.67161L337.2428,296.67161L337.2428,298.11177L337.48283,298.11177L337.48283,300.272L337.72286,300.272
				L337.72286,301.71215L337.96289,301.71215L337.96289,304.11241L338.44295,304.11241L338.44295,306.75269L338.68298,306.75269
				L338.68298,307.23274L338.44295,307.23274L338.44295,307.47277L338.68298,307.47277L338.68298,309.87302L338.92301,309.87302
				L338.92301,311.07315L339.16304,311.07315L339.16304,312.5133L339.6431,312.5133L339.6431,314.67353L339.88313,314.67353L339.88313,324.03453
				L339.6431,324.03453L339.6431,327.15486L339.16304,327.15486L339.16304,328.35499L338.92301,328.35499L338.92301,329.07507L338.68298,329.07507
				L338.68298,330.27519L338.44295,330.27519L338.44295,330.51522L337.96289,330.51522L337.96289,330.99527L337.72286,330.99527
				L337.72286,331.2353L337.48283,331.2353L337.48283,331.47532L337.2428,331.47532L337.2428,331.71535L336.52271,331.71535L336.52271,332.43543
				L336.28268,332.43543L336.28268,333.39553L336.04265,333.39553L336.04265,334.1156L335.56258,334.1156L335.56258,340.83632L336.04265,340.83632
				L336.04265,347.07699L336.28268,347.07699L336.28268,348.03709L336.52271,348.03709L336.52271,349.71727L336.76274,349.71727
				L336.76274,351.39745L337.2428,351.39745L337.2428,353.07762L337.48283,353.07762L337.48283,356.43798L337.72286,356.43798L337.72286,360.03837
				L337.96289,360.03837L337.96289,366.27903L338.44295,366.27903L338.44295,371.07954L338.68298,371.07954L338.68298,373.23977
				L338.92301,373.23977L338.92301,375.4L339.16304,375.4L339.16304,377.56023L339.6431,377.56023L339.6431,383.56087L339.88313,383.56087
				L339.88313,387.64131L340.12316,387.64131L340.12316,391.72174L340.36319,391.72174L340.36319,395.80218L340.84325,395.80218
				L340.84325,401.32277L341.08328,401.32277L341.08328,403.72302L340.84325,403.72302L340.84325,404.68312L341.08328,404.68312
				L341.08328,407.08338L341.32332,407.08338L341.32332,409.72366L341.56335,409.72366L341.56335,410.92379L341.32332,410.92379
				L341.32332,412.12392L341.08328,412.12392L341.08328,414.52417L340.84325,414.52417L340.84325,415.7243L340.36319,415.7243L340.36319,417.16445
				L340.84325,417.16445L340.84325,418.60461L341.08328,418.60461L341.08328,419.08466L341.32332,419.08466L341.32332,419.32468
				L341.56335,419.32468L341.56335,419.56471L342.04341,419.56471L342.04341,420.76484L342.28344,420.76484L342.28344,422.92507
				L342.52347,422.92507L342.52347,423.64514L342.7635,423.64514L342.7635,423.88517L343.24356,423.88517L343.24356,424.36522L343.48359,424.36522
				L343.48359,424.84527L343.72362,424.84527L343.72362,425.32532L343.96365,425.32532L343.96365,425.56535L344.44371,425.56535
				L344.44371,426.28543L344.68374,426.28543L344.68374,426.76548L344.92377,426.76548L344.92377,427.48555L345.1638,427.48555L
				345.1638,427.72558L345.64386,427.72558L345.64386,428.44566L345.88389,428.44566L345.88389,428.92571L346.12392,428.92571L346.12392,429.64578
				L346.36396,429.64578L346.36396,431.08594L347.08405,431.08594L347.08405,431.32596L347.56411,431.32596L347.56411,431.56599
				L348.04417,431.56599L348.04417,432.04604L348.52423,432.04604L348.52423,432.28607L348.76426,432.28607L348.76426,432.52609
				L349.48435,432.52609L349.48435,432.76612L349.72438,432.76612L349.72438,433.24617L349.96441,433.24617L349.96441,433.48619
				L350.44447,433.48619L350.44447,433.72622L350.6845,433.72622L350.6845,433.96624L350.92453,433.96624L350.92453,434.4463L351.40459,434.4463
				L351.40459,434.68632L351.88466,434.68632L351.88466,434.92635L352.12469,434.92635L352.12469,435.16637L352.60475,435.16637
				L352.60475,435.88645L352.84478,435.88645L352.84478,436.12647L353.08481,436.12647L353.08481,436.3665L353.32484,436.3665L353.32484,436.84655
				L353.8049,436.84655L353.8049,437.08658L354.04493,437.08658L354.04493,437.3266L354.28496,437.3266L354.28496,437.56663L354.52499,437.56663
				L354.52499,438.04668L355.00505,438.04668L355.00505,438.76676L355.24508,438.76676L355.24508,439.24681L355.48511,439.24681
				L355.48511,439.72686L355.72514,439.72686L355.72514,439.96688L356.2052,439.96688L356.2052,440.68696L356.44523,440.68696L356.44523,441.16701
				L356.68526,441.16701L356.68526,441.88709L356.9253,441.88709L356.9253,442.84719L357.40536,442.84719L357.40536,443.32724L357.64539,443.32724
				L357.64539,444.28734L357.88542,444.28734L357.88542,444.7674L358.12545,444.7674L358.12545,445.48747L358.60551,445.48747L358.60551,446.44757
				L358.84554,446.44757L358.84554,446.92763L359.08557,446.92763L359.08557,447.88773L359.3256,447.88773L359.3256,448.6078L359.80566,448.6078
				L359.80566,448.84783L360.04569,448.84783L360.04569,449.32788L360.28572,449.32788L360.28572,449.80793L360.52575,449.80793
				L360.52575,450.28798L361.00581,450.28798L361.00581,451.00806L361.24584,451.00806L361.24584,451.48811L361.48587,451.48811
				L361.48587,451.72814L361.7259,451.72814L361.7259,452.20819L362.20597,452.20819L362.20597,452.68824L362.446,452.68824L362.446,453.40832
				L362.68603,453.40832L362.68603,453.88837L362.92606,453.88837L362.92606,454.12839L363.40612,454.12839L363.40612,454.84847
				L363.64615,454.84847L363.64615,455.0885L363.88618,455.0885L363.88618,455.80857L364.12621,455.80857L364.12621,456.28862L364.60627,456.28862
				L364.60627,456.52865L364.8463,456.52865L364.8463,457.24873L365.08633,457.24873L365.08633,457.48875L365.32636,457.48875L365.32636,458.20883
				L365.80642,458.20883L365.80642,458.68888L366.04645,458.68888L366.04645,459.40896L366.28648,459.40896L366.28648,459.88901
				L366.52651,459.88901L366.52651,460.60908L367.00657,460.60908L367.00657,461.32916L367.24661,461.32916L367.24661,462.04924
				L367.48664,462.04924L367.48664,463.00934L367.72667,463.00934L367.72667,463.48939L368.20673,463.48939L368.20673,464.44949
				L368.44676,464.44949L368.44676,464.92954L368.68679,464.92954L368.68679,465.64962L368.92682,465.64962L368.92682,466.60972
				L369.40688,466.60972L369.40688,467.08977L369.64691,467.08977L369.64691,468.04988L369.88694,468.04988L369.88694,468.76995
				L370.12697,468.76995L370.12697,469.25L370.60703,469.25L370.60703,470.21011L370.84706,470.21011L370.84706,470.69016L371.08709,470.69016
				L371.08709,471.65026L371.32712,471.65026L371.32712,472.37034L371.80718,472.37034L371.80718,472.85039L372.04721,472.85039
				L372.04721,473.81049L372.28724,473.81049L372.28724,474.29054L372.52728,474.29054L372.52728,475.25064L373.00734,475.25064
				L373.00734,475.97072L373.24737,475.97072L373.24737,476.6908L373.4874,476.6908L373.4874,477.41087L373.72743,477.41087L373.72743,477.89092
				L374.20749,477.89092L374.20749,478.85103L374.44752,478.85103L374.44752,479.5711L374.68755,479.5711L374.68755,480.29118L375.16761,480.29118
				L375.16761,481.01126L375.40764,481.01126L375.40764,481.97136L375.64767,481.97136L375.64767,482.45141L375.8877,482.45141L
				375.8877,483.65154L376.36776,483.65154L376.36776,484.85167L376.60779,484.85167L376.60779,486.05179L376.84782,486.05179L376.84782,487.49195
				L377.08785,487.49195L377.08785,489.41215L377.56791,489.41215L377.56791,491.09233L377.80795,491.09233L377.80795,492.53249
				L378.04798,492.53249L378.04798,494.45269L377.80795,494.45269L377.80795,495.41279L377.56791,495.41279L377.56791,496.85295
				L377.08785,496.85295L377.08785,497.57302L376.84782,497.57302L376.84782,498.53312L376.60779,498.53312L376.60779,499.73325
				L376.36776,499.73325L376.36776,500.2133L375.8877,500.2133L375.8877,501.41343L375.64767,501.41343L375.64767,502.13351L375.40764,502.13351
				L375.40764,502.85359L375.16761,502.85359L375.16761,504.05371L374.68755,504.05371L374.68755,504.77379L374.44752,504.77379
				L374.44752,505.97392L374.20749,505.97392L374.20749,510.5344L374.44752,510.5344L374.44752,511.25448L374.68755,511.25448L374.68755,512.21458
				L375.16761,512.21458L375.16761,512.93466L375.40764,512.93466L375.40764,513.65474L375.64767,513.65474L375.64767,515.09489
				L375.8877,515.09489L375.8877,516.29502L376.36776,516.29502L376.36776,517.49515L376.60779,517.49515L376.60779,523.73581L376.84782,523.73581
				L376.84782,524.93594L376.60779,524.93594L376.60779,525.17596L376.84782,525.17596L376.84782,526.13607L376.60779,526.13607
				L376.60779,527.09617L376.36776,527.09617L376.36776,527.57622L375.64767,527.57622L375.64767,527.09617L375.40764,527.09617
				L375.40764,526.37609L375.16761,526.37609L375.16761,525.41599L374.68755,525.41599L374.68755,524.93594L374.44752,524.93594
				L374.44752,523.97584L374.20749,523.97584L374.20749,523.49578L373.72743,523.49578L373.72743,522.77571L373.4874,522.77571L
				373.4874,522.29566L373.24737,522.29566L373.24737,521.57558L373.00734,521.57558L373.00734,521.09553L372.52728,521.09553L372.52728,520.37545
				L372.28724,520.37545L372.28724,519.8954L372.04721,519.8954L372.04721,519.17532L371.80718,519.17532L371.80718,518.69527L371.32712,518.69527
				L371.32712,517.9752L371.08709,517.9752L371.08709,517.49515L370.84706,517.49515L370.84706,516.77507L370.60703,516.77507L370.60703,516.29502
				L370.12697,516.29502L370.12697,515.57494L369.88694,515.57494L369.88694,515.09489L369.64691,515.09489L369.64691,514.37481
				L369.40688,514.37481L369.40688,514.13479L368.92682,514.13479L368.92682,513.41471L368.68679,513.41471L368.68679,513.17468
				L368.44676,513.17468L368.44676,512.45461L368.20673,512.45461L368.20673,512.21458L367.72667,512.21458L367.72667,511.73453
				L367.48664,511.73453L367.48664,511.25448L367.24661,511.25448L367.24661,511.01445L367.00657,511.01445L367.00657,510.5344L
				366.52651,510.5344L366.52651,510.05435L366.28648,510.05435L366.28648,509.5743L366.04645,509.5743L366.04645,509.33428L365.80642,509.33428
				L365.80642,508.6142L365.32636,508.6142L365.32636,508.37417L365.08633,508.37417L365.08633,507.6541L364.8463,507.6541L364.8463,507.41407
				L364.60627,507.41407L364.60627,507.17405L364.12621,507.17405L364.12621,506.45397L363.88618,506.45397L363.88618,506.21394
				L363.64615,506.21394L363.64615,505.97392L362.92606,505.97392L362.92606,505.73389L362.68603,505.73389L362.68603,505.25384
				L362.446,505.25384L362.446,505.01382L361.7259,505.01382L361.7259,504.77379L361.48587,504.77379L361.48587,504.53376L361.24584,504.53376
				L361.24584,504.05371L360.52575,504.05371L360.52575,503.81369L360.28572,503.81369L360.28572,503.57366L360.04569,503.57366
				L360.04569,503.33364L359.3256,503.33364L359.3256,502.85359L359.08557,502.85359L359.08557,502.61356L358.84554,502.61356L358.84554,502.37353
				L358.12545,502.37353L358.12545,502.13351L357.88542,502.13351L357.88542,501.65346L357.64539,501.65346L357.64539,501.41343
				L356.9253,501.41343L356.9253,501.17341L356.2052,501.17341L356.2052,500.93338L353.8049,500.93338L353.8049,500.45333L350.92453,500.45333
				L350.92453,500.2133L349.72438,500.2133L349.72438,500.45333L348.76426,500.45333L348.76426,500.93338L348.2842,500.93338L348.2842,501.17341
				L347.56411,501.17341L347.56411,501.41343L347.08405,501.41343L347.08405,501.65346L346.36396,501.65346L346.36396,502.13351
				L345.88389,502.13351L345.88389,502.37353L345.1638,502.37353L345.1638,502.61356L344.68374,502.61356L344.68374,502.85359L343.96365,502.85359
				L343.96365,503.33364L343.72362,503.33364L343.72362,503.57366L343.24356,503.57366L343.24356,503.81369L342.7635,503.81369L
				342.7635,504.05371L342.28344,504.05371L342.28344,504.53376L342.04341,504.53376L342.04341,504.77379L341.56335,504.77379L341.56335,505.01382
				L341.32332,505.01382L341.32332,505.25384L340.84325,505.25384L340.84325,505.73389L340.36319,505.73389L340.36319,505.97392
				L340.12316,505.97392L340.12316,506.21394L339.6431,506.21394L339.6431,506.45397L339.16304,506.45397L339.16304,506.93402L338.92301,506.93402
				L338.92301,507.17405L338.44295,507.17405L338.44295,507.41407L337.96289,507.41407L337.96289,507.6541L337.72286,507.6541L337.72286,508.13415
				L337.2428,508.13415L337.2428,508.37417L336.76274,508.37417L336.76274,508.6142L336.52271,508.6142L336.52271,508.85422L336.04265,508.85422
				L336.04265,509.33428L335.56258,509.33428L335.56258,509.5743L335.32255,509.5743L335.32255,509.81433L334.84249,509.81433L334.84249,510.05435
				L334.36243,510.05435L334.36243,510.5344L334.1224,510.5344L334.1224,510.77443L333.64234,510.77443L333.64234,511.01445L333.16228,511.01445
				L333.16228,511.25448L332.92225,511.25448L332.92225,511.73453L332.44219,511.73453L332.44219,511.97456L331.96213,511.97456
				L331.96213,512.21458L331.7221,512.21458L331.7221,512.45461L331.24204,512.45461L331.24204,512.93466L330.76198,512.93466L330.76198,513.17468
				L330.52194,513.17468L330.52194,513.41471L330.04188,513.41471L330.04188,513.65474L329.56182,513.65474L329.56182,514.13479
				L329.32179,514.13479L329.32179,514.37481L328.84173,514.37481L328.84173,514.61484L328.36167,514.61484L328.36167,515.09489
				L328.12164,515.09489L328.12164,515.33492L327.40155,515.33492L327.40155,515.57494L327.16152,515.57494L327.16152,515.81497
				L326.68146,515.81497L326.68146,516.29502L326.2014,516.29502L326.2014,516.53504L325.72134,516.53504L325.72134,516.77507L325.00124,516.77507
				L325.00124,517.01509L324.52118,517.01509L324.52118,517.49515L323.56106,517.49515L323.56106,517.73517L323.081,517.73517L323.081,517.9752
				L322.12088,517.9752L322.12088,518.21522L321.40079,518.21522L321.40079,518.69527L320.6807,518.69527L320.6807,518.9353L319.72057,518.9353
				L319.72057,519.17532L319.00048,519.17532L319.00048,519.41535L318.28039,519.41535L318.28039,519.8954L317.5603,519.8954L317.5603,520.13543
				L316.60018,520.13543L316.60018,520.37545L316.36015,520.37545L316.36015,520.61548L315.88009,520.61548L315.88009,521.09553
				L315.40003,521.09553L315.40003,521.33555L315.16,521.33555L315.16,521.57558L314.91996,521.57558L314.91996,521.81561L314.67993,521.81561
				L314.67993,522.29566L314.19987,522.29566L314.19987,522.53568L313.95984,522.53568L313.95984,522.77571L313.71981,522.77571
				L313.71981,523.01573L313.47978,523.01573L313.47978,523.49578L312.99972,523.49578L312.99972,523.73581L312.75969,523.73581
				L312.75969,523.97584L312.51966,523.97584L312.51966,524.21586L312.27963,524.21586L312.27963,524.69591L311.79957,524.69591
				L311.79957,524.93594L311.55954,524.93594L311.55954,525.41599L311.31951,525.41599L311.31951,525.89604L311.07948,525.89604
				L311.07948,526.37609L310.59942,526.37609L310.59942,526.61612L310.35939,526.61612L310.35939,527.33619L310.11936,527.33619
				L310.11936,527.57622L309.87933,527.57622L309.87933,528.2963L309.39926,528.2963L309.39926,528.77635L309.15923,528.77635L309.15923,529.01637
				L308.9192,529.01637"/>
			<path clip-path="url(#SVG_CP_2)" fill="none" stroke="#999999" stroke-width="0.96012" stroke-miterlimit="10" stroke-linecap="round" stroke-linejoin="round" d="
				M308.9192,529.01637L308.9192,529.73645L308.67917,529.73645L308.67917,529.97648L308.19911,529.97648L308.19911,530.69655L307.95908,530.69655
				L307.95908,530.93658L307.71905,530.93658L307.71905,531.41663L307.47902,531.41663L307.47902,531.89668L306.99896,531.89668
				L306.99896,532.13671L306.75893,532.13671L306.75893,532.37673L306.5189,532.37673L306.5189,532.61676L305.79881,532.61676L305.79881,533.09681
				L305.55878,533.09681L305.55878,533.33683L305.31875,533.33683L305.31875,533.57686L305.07872,533.57686L305.07872,533.81688
				L304.59865,533.81688L304.59865,534.29694L304.35862,534.29694L304.35862,534.53696L303.63853,534.53696L303.63853,534.77699
				L303.3985,534.77699L303.3985,535.01701L303.15847,535.01701L303.15847,535.49706L302.43838,535.49706L302.43838,535.73709L301.95832,535.73709
				L301.95832,535.97711L301.71829,535.97711L301.71829,536.21714L300.9982,536.21714L300.9982,536.69719L300.51814,536.69719L300.51814,536.93722
				L299.79805,536.93722L299.79805,537.17724L299.31798,537.17724L299.31798,537.41727L298.59789,537.41727L298.59789,537.89732
				L298.35786,537.89732L298.35786,538.13734L297.63777,538.13734L297.63777,538.37737L297.15771,538.37737L297.15771,538.85742
				L296.43762,538.85742L296.43762,539.09745L295.71753,539.09745L295.71753,539.33747L294.03731,539.33747L294.03731,539.5775L
				292.83716,539.5775L292.83716,540.05755L291.39698,540.05755L291.39698,540.29758L291.15695,540.29758L291.15695,540.05755L290.19683,540.05755
				L290.19683,539.5775L289.71677,539.5775L289.71677,539.33747L288.75664,539.33747L288.75664,539.09745L288.03655,539.09745L288.03655,538.85742
				L287.31646,538.85742L287.31646,538.37737L286.59637,538.37737L286.59637,538.13734L286.11631,538.13734L286.11631,537.89732
				L285.39622,537.89732L285.39622,537.41727L284.4361,537.41727L284.4361,537.17724L283.95604,537.17724L283.95604,536.93722L283.23594,536.93722
				L283.23594,536.69719L282.99591,536.69719L282.99591,536.21714L282.75588,536.21714L282.75588,535.73709L282.51585,535.73709
				L282.51585,535.49706L282.03579,535.49706L282.03579,534.77699L281.79576,534.77699L281.79576,533.57686L281.55573,533.57686
				L281.55573,532.13671L281.07567,532.13671L281.07567,530.2165L280.83564,530.2165L280.83564,527.09617L280.59561,527.09617L280.59561,523.73581
				L280.35558,523.73581L280.35558,514.61484L280.59561,514.61484L280.59561,512.45461L280.83564,512.45461L280.83564,511.97456
				L281.07567,511.97456L281.07567,511.25448L281.55573,511.25448L281.55573,510.77443L281.79576,510.77443L281.79576,510.05435
				L282.03579,510.05435L282.03579,509.5743L282.51585,509.5743L282.51585,508.85422L282.75588,508.85422L282.75588,508.37417L282.99591,508.37417
				L282.99591,507.6541L283.23594,507.6541L283.23594,507.17405L283.716,507.17405L283.716,506.45397L283.95604,506.45397L283.95604,505.97392
				L284.19607,505.97392L284.19607,505.25384L284.4361,505.25384L284.4361,504.77379L284.91616,504.77379L284.91616,504.53376L285.15619,504.53376
				L285.15619,501.41343L284.91616,501.41343L284.91616,499.2532L284.4361,499.2532L284.4361,498.05307L284.19607,498.05307L284.19607,497.81305
				L285.63625,497.81305L285.63625,497.57302L286.11631,497.57302L286.11631,497.333L286.35634,497.333L286.35634,496.85295L286.59637,496.85295
				L286.59637,496.61292L286.8364,496.61292L286.8364,496.37289L287.31646,496.37289L287.31646,496.13287L287.55649,496.13287L287.55649,495.65282
				L287.79652,495.65282L287.79652,495.41279L288.03655,495.41279L288.03655,495.17277L288.51661,495.17277L288.51661,494.93274
				L288.75664,494.93274L288.75664,494.45269L288.99668,494.45269L288.99668,494.21266"/>
			<path clip-path="url(#SVG_CP_2)" fill="none" stroke="#999999" stroke-width="0.96012" stroke-miterlimit="10" stroke-linecap="round" stroke-linejoin="round" d="
				M309.39926,533.81688L309.39926,534.53696L309.15923,534.53696L309.15923,535.01701L308.9192,535.01701L308.9192,535.49706L308.67917,535.49706
				L308.67917,535.97711L308.19911,535.97711L308.19911,536.69719L307.95908,536.69719L307.95908,536.93722L307.71905,536.93722
				L307.71905,537.17724L306.99896,537.17724L306.99896,537.41727L306.75893,537.41727L306.75893,537.89732L306.27887,537.89732
				L306.27887,538.13734L305.55878,538.13734L305.55878,538.37737L305.31875,538.37737L305.31875,538.85742L304.59865,538.85742
				L304.59865,539.09745L304.11859,539.09745L304.11859,539.33747L303.63853,539.33747L303.63853,539.5775L303.15847,539.5775L303.15847,540.05755
				L302.43838,540.05755L302.43838,540.29758L302.19835,540.29758L302.19835,540.5376L301.71829,540.5376L301.71829,540.77763L300.9982,540.77763
				L300.9982,541.25768L300.75817,541.25768L300.75817,541.4977L298.83792,541.4977L298.83792,541.73773L297.63777,541.73773L297.63777,541.4977
				L298.35786,541.4977L298.35786,541.25768L298.83792,541.25768L298.83792,540.77763L299.55802,540.77763L299.55802,540.5376L300.03808,540.5376
				L300.03808,540.29758L300.75817,540.29758L300.75817,540.05755L300.9982,540.05755L300.9982,539.5775L301.71829,539.5775L301.71829,539.33747
				L302.19835,539.33747L302.19835,539.09745L302.91844,539.09745L302.91844,538.85742L303.3985,538.85742L303.3985,538.37737L304.11859,538.37737
				L304.11859,538.13734L304.35862,538.13734L304.35862,537.89732L305.07872,537.89732L305.07872,537.41727L305.31875,537.41727
				L305.31875,537.17724L305.55878,537.17724L305.55878,536.93722L306.27887,536.93722L306.27887,536.69719L306.5189,536.69719L
				306.5189,536.21714L306.75893,536.21714L306.75893,535.97711L306.99896,535.97711L306.99896,535.73709L307.47902,535.73709L307.47902,535.49706
				L307.71905,535.49706L307.71905,535.01701L307.95908,535.01701L307.95908,534.77699L308.67917,534.77699L308.67917,534.53696
				L308.9192,534.53696L308.9192,534.29694L309.15923,534.29694L309.15923,533.81688L309.39926,533.81688"/>
		</g>
</g></svg>