<?xml version="1.0" encoding="utf-8" standalone="no"?>
<!-- Creator: ESRI ArcMap 10.0.0.2414 -->
<!DOCTYPE svg PUBLIC "-//W3C//DTD SVG 1.1//EN"  "http://www.w3.org/Graphics/SVG/1.1/DTD/svg11.dtd">
<svg width="595.50236pt" height="595.50236pt" viewBox="25 148.377955 545.50236 545.50236" enable-background="new 25 148.377955 545.50236 545.50236"
	version="1.1" xmlns="http://www.w3.org/2000/svg" xmlns:xlink="http://www.w3.org/1999/xlink" >
	<g id="Couches">
		<g id="cont_1">
			<clipPath id="SVG_CP_2">
				<path d="M574.39289,21.36228L21.36271,21.36228L21.36271,821.36753L574.39289,821.36753L574.39289,21.36228z"/>
			</clipPath>
			<path clip-path="url(#SVG_CP_2)" fill="none" stroke="#999999" stroke-width="0.96012" stroke-miterlimit="10" stroke-linecap="round" stroke-linejoin="round" d="
				M343.72362,266.18837L343.24356,266.18837L343.24356,265.70831L343.72362,265.70831L343.72362,266.18837"/>
			<path clip-path="url(#SVG_CP_2)" fill="none" stroke="#999999" stroke-width="0.96012" stroke-miterlimit="10" stroke-linecap="round" stroke-linejoin="round" d="
				M331.7221,358.59821L331.24204,358.59821L331.24204,356.91803L331.7221,356.91803L331.7221,356.19796L332.44219,356.19796L332.44219,358.11816
				L331.7221,358.11816L331.7221,358.59821"/>
			<path clip-path="url(#SVG_CP_2)" fill="none" stroke="#999999" stroke-width="0.96012" stroke-miterlimit="10" stroke-linecap="round" stroke-linejoin="round" d="
				M335.80261,350.67737L335.32255,350.67737L335.32255,351.15742L334.60246,351.15742L334.60246,351.63747L334.1224,351.63747L
				334.1224,352.35755L333.64234,352.35755L333.64234,352.8376L332.92225,352.8376L332.92225,353.55768L332.44219,353.55768L332.44219,354.03773
				L331.7221,354.03773L331.7221,354.51778L331.24204,354.51778L331.24204,356.19796L330.76198,356.19796L330.76198,358.59821L330.04188,358.59821
				L330.04188,359.79834L329.56182,359.79834L329.56182,360.27839L329.08176,360.27839L329.08176,360.75844L328.36167,360.75844
				L328.36167,361.47852L327.88161,361.47852L327.88161,361.95857L327.16152,361.95857L327.16152,362.67865L326.68146,362.67865
				L326.68146,363.63875L326.2014,363.63875L326.2014,364.35883L325.48131,364.35883L325.48131,364.83888L325.00124,364.83888L325.00124,368.19924
				L324.52118,368.19924L324.52118,368.91931L323.80109,368.91931L323.80109,369.39936L323.32103,369.39936L323.32103,369.87942
				L322.60094,369.87942L322.60094,370.59949L322.12088,370.59949L322.12088,371.07954L321.64082,371.07954L321.64082,371.79962
				L320.92073,371.79962L320.92073,372.27967L320.44067,372.27967L320.44067,372.75972L319.9606,372.75972L319.9606,373.4798L319.24051,373.4798
				L319.24051,373.95985L318.76045,373.95985L318.76045,374.4399L318.04036,374.4399L318.04036,375.15998L317.5603,375.15998L317.5603,375.64003
				L317.08024,375.64003L317.08024,376.36011L316.36015,376.36011L316.36015,376.84016L315.88009,376.84016L315.88009,377.32021
				L315.40003,377.32021L315.40003,378.04028L314.67993,378.04028L314.67993,378.52034L314.19987,378.52034L314.19987,379.00039
				L313.47978,379.00039L313.47978,379.72046L312.99972,379.72046L312.99972,380.20051L312.51966,380.20051L312.51966,380.92059
				L311.79957,380.92059L311.79957,381.40064L311.31951,381.40064L311.31951,383.08082L310.83945,383.08082L310.83945,385.48108
				L310.11936,385.48108L310.11936,387.16126L309.63929,387.16126L309.63929,390.04156L308.9192,390.04156L308.9192,393.88197L308.43914,393.88197
				L308.43914,397.24233L307.95908,397.24233L307.95908,437.3266L307.23899,437.3266L307.23899,437.80665L306.75893,437.80665L306.75893,438.52673
				L306.03884,438.52673L306.03884,439.00678L305.55878,439.00678L305.55878,439.48683L305.07872,439.48683L305.07872,440.20691
				L304.35862,440.20691L304.35862,440.68696L303.87856,440.68696L303.87856,441.16701L303.3985,441.16701L303.3985,441.88709L302.67841,441.88709
				L302.67841,442.36714L302.19835,442.36714L302.19835,443.08722L301.47826,443.08722L301.47826,443.56727L300.9982,443.56727L
				300.9982,444.04732L300.51814,444.04732L300.51814,444.7674L299.79805,444.7674L299.79805,445.24745L299.31798,445.24745L299.31798,445.7275
				L298.83792,445.7275L298.83792,446.44757L298.11783,446.44757L298.11783,446.92763L297.63777,446.92763L297.63777,447.6477L296.91768,447.6477
				L296.91768,448.12775L296.43762,448.12775L296.43762,448.6078L295.95756,448.6078L295.95756,449.32788L295.23747,449.32788L295.23747,449.80793
				L294.75741,449.80793L294.75741,450.28798L294.27735,450.28798L294.27735,451.00806L293.55725,451.00806L293.55725,451.48811
				L293.07719,451.48811L293.07719,452.20819L292.3571,452.20819L292.3571,452.68824L291.87704,452.68824L291.87704,453.16829L291.39698,453.16829
				L291.39698,453.88837L290.67689,453.88837L290.67689,454.36842L290.19683,454.36842L290.19683,454.84847L289.71677,454.84847
				L289.71677,455.56855L288.99668,455.56855L288.99668,456.0486L288.51661,456.0486L288.51661,456.76867L287.79652,456.76867L287.79652,457.24873
				L287.31646,457.24873L287.31646,457.72878L286.8364,457.72878L286.8364,458.44885L286.11631,458.44885L286.11631,458.9289L285.63625,458.9289
				L285.63625,459.40896L285.15619,459.40896L285.15619,460.12903L284.4361,460.12903L284.4361,460.60908L283.95604,460.60908L283.95604,461.32916
				L283.23594,461.32916L283.23594,461.80921L282.75588,461.80921L282.75588,462.28926L282.27582,462.28926L282.27582,463.00934
				L281.55573,463.00934L281.55573,463.48939L281.07567,463.48939L281.07567,464.20947L280.59561,464.20947L280.59561,464.68952
				L279.87552,464.68952L279.87552,465.16957L279.39546,465.16957L279.39546,465.88965L278.67537,465.88965L278.67537,466.3697L
				278.1953,466.3697L278.1953,466.84975L277.71524,466.84975L277.71524,467.56983L276.99515,467.56983L276.99515,468.04988L276.51509,468.04988
				L276.51509,468.76995L276.03503,468.76995L276.03503,469.25L275.31494,469.25L275.31494,469.73006L274.83488,469.73006L274.83488,470.45013
				L274.11479,470.45013L274.11479,470.93018L273.63473,470.93018L273.63473,471.41023L273.15466,471.41023L273.15466,472.13031
				L272.43457,472.13031L272.43457,472.61036L271.95451,472.61036L271.95451,473.33044L271.47445,473.33044L271.47445,473.81049
				L270.75436,473.81049L270.75436,474.29054L270.2743,474.29054L270.2743,475.01062L269.55421,475.01062L269.55421,475.49067L269.07415,475.49067
				L269.07415,475.97072L268.59409,475.97072L268.59409,476.6908L267.87399,476.6908L267.87399,477.17085L267.39393,477.17085L267.39393,477.89092
				L266.91387,477.89092L266.91387,478.37098L266.19378,478.37098L266.19378,478.85103L265.71372,478.85103L265.71372,479.5711L
				264.99363,479.5711L264.99363,480.05116L264.51357,480.05116L264.51357,480.53121L264.03351,480.53121L264.03351,481.25128L263.31342,481.25128
				L263.31342,481.73133L262.83335,481.73133L262.83335,482.45141L262.35329,482.45141L262.35329,482.93146L261.6332,482.93146L
				261.6332,483.41151L261.15314,483.41151L261.15314,484.13159L260.43305,484.13159L260.43305,484.61164L259.95299,484.61164L259.95299,485.09169
				L259.47293,485.09169L259.47293,485.81177L258.75284,485.81177L258.75284,486.29182L258.27278,486.29182L258.27278,487.0119L
				257.79272,487.0119L257.79272,487.49195L257.07262,487.49195L257.07262,487.972L256.59256,487.972L256.59256,488.69208L255.87247,488.69208
				L255.87247,489.17213L255.39241,489.17213L255.39241,489.65218L254.91235,489.65218L254.91235,490.37225L254.19226,490.37225
				L254.19226,490.85231L253.7122,490.85231L253.7122,491.57238L253.23214,491.57238L253.23214,492.05243L252.51205,492.05243L252.51205,492.53249
				L252.03198,492.53249L252.03198,493.25256L251.31189,493.25256L251.31189,493.73261L250.83183,493.73261L250.83183,494.21266
				L250.35177,494.21266L250.35177,495.41279L249.63168,495.41279L249.63168,496.13287L249.15162,496.13287L249.15162,497.09297
				L248.67156,497.09297L248.67156,497.81305L247.95147,497.81305L247.95147,498.77315L247.47141,498.77315L247.47141,499.97328
				L246.75131,499.97328L246.75131,501.17341L246.27125,501.17341L246.27125,501.65346L245.79119,501.65346L245.79119,502.85359
				L245.0711,502.85359L245.0711,504.05371L244.59104,504.05371L244.59104,504.53376L244.11098,504.53376L244.11098,505.73389L243.39089,505.73389
				L243.39089,506.93402L242.91083,506.93402L242.91083,507.41407L242.19074,507.41407L242.19074,508.6142L241.71067,508.6142L241.71067,509.81433
				L241.23061,509.81433L241.23061,510.29438L240.51052,510.29438L240.51052,511.49451L240.03046,511.49451L240.03046,512.45461
				L239.31037,512.45461L239.31037,513.17468L238.83031,513.17468L238.83031,514.37481L238.35025,514.37481L238.35025,515.33492
				L237.63016,515.33492L237.63016,516.05499L237.1501,516.05499L237.1501,517.01509L236.67003,517.01509L236.67003,518.21522L235.94994,518.21522
				L235.94994,518.9353L235.46988,518.9353L235.46988,519.8954L234.74979,519.8954L234.74979,521.09553L234.26973,521.09553L234.26973,521.57558
				L233.78967,521.57558L233.78967,522.77571L233.06958,522.77571L233.06958,523.97584L232.58952,523.97584L232.58952,524.45589
				L232.10946,524.45589L232.10946,525.65601L231.38936,525.65601L231.38936,526.85614L230.9093,526.85614L230.9093,527.33619L230.18921,527.33619
				L230.18921,528.53632L229.70915,528.53632L229.70915,529.73645L229.22909,529.73645L229.22909,530.2165L228.509,530.2165L228.509,531.41663
				L228.02894,531.41663L228.02894,532.61676L227.54888,532.61676L227.54888,533.09681L226.82879,533.09681L226.82879,534.29694
				L226.34872,534.29694L226.34872,535.49706L225.62863,535.49706L225.62863,535.97711L225.14857,535.97711L225.14857,537.17724
				L224.66851,537.17724L224.66851,538.13734L223.94842,538.13734L223.94842,539.33747L223.46836,539.33747L223.46836,540.05755
				L222.9883,540.05755L222.9883,541.01765L222.26821,541.01765L222.26821,542.21778L221.78815,542.21778L221.78815,542.69783L221.06805,542.69783
				L221.06805,543.89796L220.58799,543.89796L220.58799,545.09809L220.10793,545.09809L220.10793,545.57814L219.38784,545.57814
				L219.38784,546.77827L218.90778,546.77827L218.90778,547.25832L218.42772,547.25832L218.42772,548.45844L217.70763,548.45844
				L217.70763,549.65857L217.22757,549.65857L217.22757,550.13862L216.50748,550.13862L216.50748,551.33875L216.02742,551.33875
				L216.02742,551.8188L215.54735,551.8188L215.54735,553.01893L214.82726,553.01893L214.82726,554.21906L214.3472,554.21906L214.3472,554.69911
				L213.86714,554.69911L213.86714,555.89924L213.14705,555.89924L213.14705,556.37929L212.66699,556.37929L212.66699,557.57942
				L211.9469,557.57942L211.9469,558.29949L211.46684,558.29949L211.46684,558.77954L209.30656,558.77954L209.30656,557.57942L208.58647,557.57942
				L208.58647,557.09937L208.10641,557.09937L208.10641,557.57942L206.90626,557.57942L206.90626,558.29949L205.70611,558.29949
				L205.70611,558.77954L204.74598,558.77954L204.74598,559.2596L203.54583,559.2596L203.54583,559.97967L201.86562,559.97967L201.86562,560.45972
				L200.66547,560.45972L200.66547,560.93977L199.46531,560.93977L199.46531,561.65985L198.26516,561.65985L198.26516,562.1399L
				197.30504,562.1399L197.30504,562.85998L196.10489,562.85998L196.10489,563.34003L194.90473,563.34003L194.90473,563.82008L193.70458,563.82008
				L193.70458,564.54016L192.74446,564.54016L192.74446,565.02021L191.54431,565.02021L191.54431,565.50026L190.34416,565.50026
				L190.34416,566.22034L189.144,566.22034L189.144,566.70039L188.18388,566.70039L188.18388,567.42047L187.46379,567.42047L187.46379,567.90052
				L186.50367,567.90052L186.50367,568.38057L185.30352,568.38057L185.30352,569.10064L184.10336,569.10064L184.10336,569.5807L
				182.90321,569.5807L182.90321,570.06075L181.223,570.06075L181.223,569.5807L180.74294,569.5807L180.74294,568.38057L180.02285,568.38057
				L180.02285,567.90052L179.54278,567.90052L179.54278,566.70039L179.06272,566.70039L179.06272,565.50026L180.02285,565.50026
				L180.02285,565.02021L180.74294,565.02021L180.74294,564.54016L181.223,564.54016L181.223,563.82008L182.42315,563.82008L182.42315,563.34003
				L182.90321,563.34003L182.90321,562.85998L183.6233,562.85998L183.6233,562.1399L184.58342,562.1399L184.58342,561.65985L185.30352,561.65985
				L185.30352,560.93977L186.50367,560.93977L186.50367,560.45972L186.98373,560.45972L186.98373,559.97967L187.46379,559.97967
				L187.46379,559.2596L188.66394,559.2596L188.66394,558.29949L188.18388,558.29949L188.18388,557.57942L187.46379,557.57942L187.46379,557.09937
				L186.98373,557.09937L186.98373,556.37929L186.50367,556.37929L186.50367,555.89924L185.78358,555.89924L185.78358,555.41919
				L185.30352,555.41919L185.30352,554.69911L184.58342,554.69911L184.58342,554.21906L184.10336,554.21906L184.10336,553.73901
				L183.6233,553.73901L183.6233,553.01893L182.90321,553.01893L182.90321,552.53888L182.42315,552.53888L182.42315,551.8188L181.223,551.8188
				L181.223,551.33875L180.74294,551.33875L180.74294,550.8587L180.02285,550.8587L180.02285,550.13862L179.54278,550.13862L179.54278,549.65857
				L179.06272,549.65857L179.06272,549.17852L178.34263,549.17852L178.34263,548.45844L177.86257,548.45844L177.86257,547.97839
				L176.66242,547.97839L176.66242,547.25832L176.18236,547.25832L176.18236,546.77827L175.46227,546.77827L175.46227,547.97839
				L174.98221,547.97839L174.98221,548.45844L174.50215,548.45844L174.50215,547.97839L173.30199,547.97839L173.30199,547.25832
				L172.5819,547.25832L172.5819,547.97839L172.10184,547.97839L172.10184,548.45844L171.62178,548.45844L171.62178,549.65857L170.90169,549.65857
				L170.90169,550.13862L170.42163,550.13862L170.42163,551.33875L169.94157,551.33875L169.94157,550.8587L169.22148,550.8587L169.22148,550.13862
				L168.02132,550.13862L168.02132,549.65857L167.0612,549.65857L167.0612,549.17852L165.86105,549.17852L165.86105,548.45844L164.6609,548.45844
				L164.6609,547.97839L164.18084,547.97839L164.18084,547.25832L162.98068,547.25832L162.98068,546.77827L161.78053,546.77827L
				161.78053,546.29821L160.82041,546.29821L160.82041,545.57814L159.62026,545.57814L159.62026,545.09809L158.90017,545.09809L
				158.90017,544.61804L157.94004,544.61804L157.94004,543.89796L156.73989,543.89796L156.73989,543.41791L155.53974,543.41791L
				155.53974,542.69783L154.33959,542.69783L154.33959,542.21778L153.37946,542.21778L153.37946,541.73773L152.17931,541.73773L
				152.17931,541.01765L151.69925,541.01765L151.69925,540.5376L150.4991,540.5376L150.4991,540.05755L149.29895,540.05755L149.29895,539.33747
				L148.81889,539.33747L148.81889,538.85742L148.09879,538.85742L148.09879,538.13734L147.61873,538.13734L147.61873,537.65729
				L145.93852,537.65729L145.93852,538.13734L145.21843,538.13734L145.21843,538.85742L144.73837,538.85742L144.73837,539.33747
				L144.25831,539.33747L144.25831,540.05755L143.05815,540.05755L143.05815,540.5376L142.57809,540.5376L142.57809,541.01765L141.858,541.01765
				L141.858,541.73773L140.65785,541.73773L140.65785,542.21778L140.17779,542.21778L140.17779,542.69783L139.69773,542.69783L139.69773,543.41791
				L138.49758,543.41791L138.49758,543.89796L138.01752,543.89796L138.01752,544.61804L137.29742,544.61804L137.29742,545.09809
				L136.09727,545.09809L136.09727,545.57814L135.61721,545.57814L135.61721,546.29821L135.13715,546.29821L135.13715,546.77827
				L134.41706,546.77827L134.41706,547.25832L133.45694,547.25832L133.45694,547.97839L132.73685,547.97839L132.73685,548.45844
				L132.25678,548.45844L132.25678,549.17852L131.05663,549.17852L131.05663,549.65857L130.57657,549.65857L130.57657,550.13862
				L129.85648,550.13862L129.85648,550.8587L128.89636,550.8587L128.89636,551.33875L128.17627,551.33875L128.17627,551.8188L127.69621,551.8188
				L127.69621,552.53888L126.97611,552.53888L126.97611,553.01893L126.01599,553.01893L126.01599,553.73901L125.2959,553.73901L
				125.2959,554.21906L124.81584,554.21906L124.81584,554.69911L123.61569,554.69911L123.61569,555.41919L123.13563,555.41919L123.13563,555.89924
				L122.41554,555.89924L122.41554,556.37929L123.13563,556.37929L123.13563,557.09937L123.61569,557.09937L123.61569,557.57942
				L124.33578,557.57942L124.33578,558.29949L124.81584,558.29949L124.81584,558.77954L125.2959,558.77954L125.2959,559.97967L126.01599,559.97967
				L126.01599,560.93977L126.49605,560.93977L126.49605,563.82008L126.01599,563.82008L126.01599,567.90052L125.2959,567.90052L
				125.2959,571.26087L124.81584,571.26087L124.81584,572.461L124.33578,572.461L124.33578,574.14118L123.61569,574.14118L123.61569,575.82136
				L123.13563,575.82136L123.13563,577.50154L122.41554,577.50154L122.41554,578.70167L121.93547,578.70167L121.93547,580.38185
				L121.45541,580.38185L121.45541,582.06203L120.73532,582.06203L120.73532,583.7422L120.25526,583.7422L120.25526,584.94233L119.7752,584.94233
				L119.7752,586.14246L119.05511,586.14246L119.05511,586.62251L118.57505,586.62251L118.57505,590.70295L117.85496,590.70295L
				117.85496,594.78338L117.3749,594.78338L117.3749,596.46356L116.89483,596.46356L116.89483,598.62379L116.17474,598.62379L116.17474,600.30397
				L115.69468,600.30397L115.69468,602.70423L114.97459,602.70423L114.97459,604.3844L114.49453,604.3844L114.49453,606.78466L114.01447,606.78466
				L114.01447,608.46484L113.29438,608.46484L113.29438,610.62507L112.81432,610.62507L112.81432,611.8252L112.33426,611.8252L112.33426,613.02533
				L111.61416,613.02533L111.61416,613.50538L111.1341,613.50538L111.1341,614.7055L110.41401,614.7055L110.41401,619.74604L105.85343,619.74604
				L105.85343,620.46612L100.33273,620.46612L100.33273,620.94617L96.25222,620.94617L96.25222,620.46612L95.05206,620.46612L95.05206,619.74604
				L93.37185,619.74604L93.37185,619.26599L92.1717,619.26599L92.1717,618.54591L90.49148,618.54591L90.49148,618.06586L89.53136,618.06586
				L89.53136,617.58581L87.61112,617.58581L87.61112,616.86573L86.651,616.86573L86.651,616.38568L84.97078,616.38568L84.97078,615.90563
				L83.77063,615.90563L83.77063,615.18556L82.09042,615.18556L82.09042,614.7055L80.89027,614.7055L80.89027,613.98543L79.69011,613.98543
				L79.69011,613.50538L78.0099,613.50538L78.0099,613.02533L76.80975,613.02533L76.80975,613.98543L76.32969,613.98543L76.32969,614.7055
				L75.84963,614.7055L75.84963,615.18556L75.12953,615.18556L75.12953,616.38568L74.64947,616.38568L74.64947,616.86573L73.92938,616.86573
				L73.92938,618.06586L73.44932,618.06586L73.44932,618.54591L72.96926,618.54591L72.96926,619.26599L72.24917,619.26599L72.24917,620.46612
				L71.76911,620.46612L71.76911,620.94617L71.28905,620.94617L71.28905,622.1463L70.56896,622.1463L70.56896,622.62635L70.08889,622.62635
				L70.08889,623.82648L69.3688,623.82648L69.3688,624.30653L68.88874,624.30653L68.88874,625.0266L68.40868,625.0266L68.40868,625.98671
				L67.68859,625.98671L67.68859,626.70678L67.20853,626.70678L67.20853,627.66689L66.72847,627.66689L66.72847,628.38696L66.00838,628.38696
				L66.00838,628.86701L65.52832,628.86701L65.52832,630.06714L64.80822,630.06714L64.80822,630.54719L64.32816,630.54719L64.32816,631.74732
				L63.8481,631.74732L63.8481,632.22737L63.12801,632.22737L63.12801,632.94745L62.64795,632.94745L62.64795,634.14758L62.16789,634.14758
				L62.16789,634.62763L61.4478,634.62763L61.4478,635.82775L60.96774,635.82775L60.96774,636.30781L60.24765,636.30781L60.24765,636.78786
				L59.76759,636.78786L59.76759,637.98799L59.28752,637.98799L59.28752,638.70806L58.56743,638.70806L58.56743,639.66816L58.08737,639.66816
				L58.08737,640.38824L57.60731,640.38824L57.60731,641.34834L56.88722,641.34834L56.88722,642.06842L56.40716,642.06842L56.40716,642.54847
				L55.20701,642.54847L55.20701,643.26855L54.72695,643.26855L54.72695,643.7486L54.00685,643.7486L54.00685,644.22865L53.52679,644.22865
				L53.52679,644.94873L52.8067,644.94873L52.8067,645.42878L52.32664,645.42878L52.32664,645.90883L51.84658,645.90883L51.84658,646.62891
				L51.12649,646.62891L51.12649,647.10896L50.64643,647.10896L50.64643,647.82903L50.16637,647.82903L50.16637,648.30908L49.44628,648.30908
				L49.44628,648.78914L48.96621,648.78914L48.96621,649.50921L48.24612,649.50921L48.24612,649.98926L47.76606,649.98926L47.76606,650.46932
				L47.286,650.46932L47.286,651.66944L46.56591,651.66944L46.56591,652.38952L46.08585,652.38952L46.08585,652.86957L45.60579,652.86957
				L45.60579,653.34962L44.8857,653.34962L44.8857,654.0697L44.40564,654.0697L44.40564,654.54975L43.68554,654.54975L43.68554,655.26983
				L43.20548,655.26983L43.20548,655.74988L42.72542,655.74988L42.72542,656.22993L42.00533,656.22993L42.00533,656.95001L41.52527,656.95001
				L41.52527,657.43006L41.04521,657.43006L41.04521,657.91011L40.32512,657.91011L40.32512,658.63018L39.84506,658.63018L39.84506,659.11024
				L39.12497,659.11024L39.12497,659.83031L38.6449,659.83031L38.6449,660.31036L38.16484,660.31036L38.16484,660.79041L37.44475,660.79041
				L37.44475,661.51049L36.96469,661.51049L36.96469,661.99054L36.48463,661.99054L36.48463,662.47059L35.76454,662.47059L35.76454,663.19067
				L35.28448,663.19067L35.28448,663.67072L34.56439,663.67072L34.56439,664.3908L34.08433,664.3908L34.08433,664.87085L33.60426,664.87085
				L33.60426,665.3509L32.88417,665.3509L32.88417,666.07098L32.40411,666.07098L32.40411,666.55103L31.20396,666.55103L31.20396,667.03108
				L30.7239,667.03108L30.7239,667.75116L30.00381,667.75116L30.00381,668.23121L29.52375,668.23121L29.52375,668.95128L29.04369,668.95128
				L29.04369,669.43134L28.32359,669.43134L28.32359,669.91139L27.84353,669.91139L27.84353,670.63146L26.64338,670.63146L26.64338,671.11151
				L26.16332,671.11151L26.16332,671.59157L25.44323,671.59157L25.44323,672.31164L24.96317,672.31164L24.96317,672.79169L24.48311,672.79169
				L24.48311,673.51177L23.76302,673.51177L23.76302,673.99182L23.28296,673.99182L23.28296,674.47187L22.80289,674.47187L22.80289,675.19195
				L22.0828,675.19195L22.0828,675.672L21.60274,675.672L21.60274,676.87213L20.88265,676.87213L20.88265,677.35218L20.40259,677.35218
				L20.40259,678.55231L19.92253,678.55231L19.92253,679.03236L19.20244,679.03236L19.20244,679.75244L18.72238,679.75244L18.72238,680.71254
				L18.24232,680.71254L18.24232,681.43261L17.52222,681.43261L17.52222,681.91267L17.04216,681.91267L17.04216,683.11279L16.32207,683.11279
				L16.32207,683.59284L15.84201,683.59284L15.84201,684.31292L15.36195,684.31292L15.36195,685.27302L14.64186,685.27302L14.64186,685.9931
				L14.1618,685.9931L14.1618,686.47315L13.68174,686.47315L13.68174,687.19323L12.96165,687.19323L12.96165,687.67328L12.48158,687.67328
				L12.48158,688.15333L11.76149,688.15333L11.76149,688.87341L11.28143,688.87341L11.28143,689.83351L10.80137,689.83351L10.80137,690.55359
				L10.08128,690.55359"/>
			<path clip-path="url(#SVG_CP_2)" fill="none" stroke="#999999" stroke-width="0.96012" stroke-miterlimit="10" stroke-linecap="round" stroke-linejoin="round" d="
				M10.08128,690.55359L10.08128,691.03364L9.60122,691.03364L9.60122,691.75371L9.12116,691.75371L9.12116,692.23377L8.40107,692.23377
				L8.40107,692.71382L7.92101,692.71382L7.92101,693.43389L7.20091,693.43389L7.20091,693.91394L6.72085,693.91394L6.72085,695.11407
				L6.24079,695.11407L6.24079,695.59412L5.5207,695.59412L5.5207,696.3142L5.04064,696.3142L5.04064,696.79425L4.56058,696.79425
				L4.56058,697.2743L3.84049,697.2743L3.84049,697.99438L3.36043,697.99438L3.36043,698.47443L2.64034,698.47443L2.64034,698.95448
				L2.16027,698.95448L2.16027,700.15461L1.68021,700.15461L1.68021,700.87469L0.96012,700.87469L0.96012,701.35474L0.48006,701.35474
				L0.48006,701.83479L0,701.83479L0,702.55487L-0.72009,702.55487L-0.72009,703.03492L-1.20015,703.03492L-1.20015,703.51497L-1.92024,703.51497
				L-1.92024,704.23504L-2.40031,704.23504L-2.40031,704.7151L-2.88037,704.7151L-2.88037,705.43517L-3.60046,705.43517L-3.60046,705.91522
				L-4.08052,705.91522L-4.08052,706.39527L-4.56058,706.39527L-4.56058,707.11535L-5.28067,707.11535L-5.28067,707.5954L-6.24079,707.5954
				"/>
			<path clip-path="url(#SVG_CP_2)" fill="none" stroke="#999999" stroke-width="0.96012" stroke-miterlimit="10" stroke-linecap="round" stroke-linejoin="round" d="
				M-6.24079,780.08313L-5.76073,780.08313L-5.76073,779.60308L-4.56058,779.60308L-4.56058,778.883L-3.60046,778.883L-3.60046,778.40295
				L-2.40031,778.40295L-2.40031,777.68287L-1.20015,777.68287L-1.20015,777.20282L0,777.20282L0,776.00269L-0.72009,776.00269L
				-0.72009,774.80256L-1.20015,774.80256L-1.20015,773.84246L-1.92024,773.84246L-1.92024,772.64233L-2.40031,772.64233L-2.40031,771.44221
				L-2.88037,771.44221L-2.88037,770.24208L-3.60046,770.24208L-3.60046,769.28198L-4.08052,769.28198L-4.08052,768.08185L-4.56058,768.08185
				L-4.56058,766.88172L-5.28067,766.88172L-5.28067,765.68159L-5.76073,765.68159L-5.76073,764.72149L-6.24079,764.72149"/>
			<path clip-path="url(#SVG_CP_2)" fill="none" stroke="#999999" stroke-width="0.96012" stroke-miterlimit="10" stroke-linecap="round" stroke-linejoin="round" d="
				M-6.24079,764.00141L-5.76073,764.00141L-5.76073,763.52136L-4.56058,763.52136L-4.56058,763.04131L-3.60046,763.04131L-3.60046,762.32123
				L-2.88037,762.32123L-2.88037,761.84118L-1.92024,761.84118L-1.92024,761.12111L-0.72009,761.12111L-0.72009,760.64106L0.48006,760.64106
				L0.48006,760.161L1.68021,760.161L1.68021,759.44093L2.16027,759.44093L2.16027,758.96088L3.36043,758.96088L3.36043,757.2807
				L2.64034,757.2807L2.64034,756.56062L3.84049,756.56062L3.84049,756.08057L5.04064,756.08057L5.04064,755.60052L6.72085,755.60052
				L6.72085,754.88044L7.92101,754.88044L7.92101,754.40039L9.12116,754.40039L9.12116,753.92034L10.80137,753.92034L10.80137,753.20026
				L11.76149,753.20026L11.76149,752.72021L12.96165,752.72021L12.96165,752.00013L14.64186,752.00013L14.64186,751.52008L15.84201,751.52008
				L15.84201,751.04003L17.52222,751.04003L17.52222,750.31996L18.72238,750.31996L18.72238,749.8399L19.92253,749.8399L19.92253,749.35985
				L21.60274,749.35985L21.60274,750.31996L22.0828,750.31996L22.0828,751.52008L22.80289,751.52008L22.80289,752.72021L23.28296,752.72021
				L23.28296,753.92034L23.76302,753.92034L23.76302,754.88044L24.48311,754.88044L24.48311,756.08057L24.96317,756.08057L24.96317,757.2807
				L25.44323,757.2807L25.44323,758.48082L26.16332,758.48082L26.16332,759.44093L26.64338,759.44093L26.64338,760.64106L27.36347,760.64106
				L27.36347,761.84118L27.84353,761.84118L27.84353,763.04131L28.32359,763.04131L28.32359,764.00141L29.04369,764.00141L29.04369,765.20154
				L29.52375,765.20154L29.52375,764.72149L30.7239,764.72149L30.7239,764.00141L31.92405,764.00141L31.92405,763.52136L32.88417,763.52136
				L32.88417,763.04131L34.08433,763.04131L34.08433,762.32123L34.56439,762.32123L34.56439,761.84118L35.76454,761.84118L35.76454,761.12111
				L36.96469,761.12111L36.96469,760.64106L38.16484,760.64106L38.16484,760.161L39.12497,760.161L39.12497,759.44093L39.84506,759.44093
				L39.84506,758.96088L41.04521,758.96088L41.04521,758.48082L42.00533,758.48082L42.00533,757.76075L43.20548,757.76075L43.20548,757.2807
				L44.40564,757.2807L44.40564,756.56062L44.8857,756.56062L44.8857,756.08057L45.60579,756.08057L45.60579,757.2807L46.08585,757.2807
				L46.08585,758.96088L46.56591,758.96088L46.56591,760.161L47.286,760.161L47.286,761.84118L47.76606,761.84118L47.76606,763.04131
				L48.24612,763.04131L48.24612,764.72149L48.96621,764.72149L48.96621,766.40167L49.44628,766.40167L49.44628,767.6018L50.16637,767.6018
				L50.16637,769.28198L50.64643,769.28198L50.64643,770.24208L51.12649,770.24208L51.12649,772.16228L51.84658,772.16228L51.84658,773.12239
				L52.32664,773.12239L52.32664,774.80256L52.8067,774.80256L52.8067,776.00269L53.52679,776.00269L53.52679,777.68287L54.00685,777.68287
				L54.00685,778.883L54.72695,778.883L54.72695,780.56318L55.20701,780.56318L55.20701,781.76331L55.68707,781.76331L55.68707,783.44348
				L56.40716,783.44348L56.40716,784.64361L56.88722,784.64361L56.88722,786.32379L57.60731,786.32379L57.60731,788.00397L58.08737,788.00397
				L58.08737,789.2041L58.56743,789.2041L58.56743,790.88428L59.28752,790.88428L59.28752,792.08441L59.76759,792.08441L59.76759,793.76458
				L60.24765,793.76458L60.24765,794.96471L60.96774,794.96471L60.96774,796.64489L60.24765,796.64489L60.24765,797.12494L59.28752,797.12494
				L59.28752,797.84502L58.08737,797.84502L58.08737,798.32507L56.88722,798.32507L56.88722,798.80512L55.20701,798.80512L55.20701,799.5252
				L54.00685,799.5252L54.00685,800.00525L52.8067,800.00525L52.8067,800.4853L51.84658,800.4853L51.84658,801.20538L50.16637,801.20538
				L50.16637,801.68543L48.96621,801.68543L48.96621,802.40551L47.76606,802.40551L47.76606,802.88556L46.08585,802.88556L46.08585,804.56574
				L46.56591,804.56574L46.56591,805.76586L47.286,805.76586L47.286,807.44604L47.76606,807.44604L47.76606,808.64617L48.24612,808.64617
				L48.24612,809.60627L48.96621,809.60627L48.96621,810.8064L49.44628,810.8064L49.44628,812.48658L50.16637,812.48658L50.16637,813.68671
				L50.64643,813.68671L50.64643,814.88684L51.12649,814.88684L51.12649,816.56701L51.84658,816.56701L51.84658,817.76714L52.32664,817.76714
				L52.32664,818.72724L52.8067,818.72724L52.8067,820.64745L53.52679,820.64745L53.52679,821.60755L54.00685,821.60755L54.00685,822.80768
				L54.72695,822.80768L54.72695,824.48786L55.20701,824.48786L55.20701,825.68799L55.68707,825.68799L55.68707,826.88811L56.40716,826.88811
				L56.40716,827.84822L56.88722,827.84822L56.88722,829.76842L57.60731,829.76842L57.60731,830.72852L58.08737,830.72852L58.08737,831.4486
				L58.56743,831.4486L58.56743,830.72852L59.76759,830.72852L59.76759,830.24847L60.96774,830.24847L60.96774,829.76842L62.64795,829.76842
				L62.64795,829.04834L63.8481,829.04834L63.8481,828.56829L65.52832,828.56829L65.52832,827.84822L66.72847,827.84822L66.72847,827.36817
				L67.68859,827.36817L67.68859,826.88811L69.3688,826.88811L69.3688,826.16804L70.56896,826.16804L70.56896,825.68799L71.76911,825.68799
				L71.76911,825.20794L73.44932,825.20794L73.44932,824.48786L74.64947,824.48786L74.64947,824.00781L76.32969,824.00781L76.32969,823.28773
				L77.52984,823.28773L77.52984,822.80768L78.48996,822.80768L78.48996,822.32763L80.4102,822.32763L80.4102,821.60755L81.37033,821.60755
				L81.37033,821.1275L83.05054,821.1275L83.05054,820.64745L84.25069,820.64745L84.25069,819.92737L85.45084,819.92737L85.45084,819.44732
				L87.13106,819.44732L87.13106,818.72724L88.33121,818.72724L88.33121,818.24719L90.49148,818.24719L90.49148,819.44732L91.21158,819.44732
				L91.21158,820.64745L91.69164,820.64745L91.69164,821.1275L92.1717,821.1275L92.1717,822.32763L92.89179,822.32763L92.89179,823.28773
				L93.37185,823.28773L93.37185,824.48786L94.09194,824.48786L94.09194,825.20794L94.572,825.20794L94.572,826.16804L95.05206,826.16804
				L95.05206,827.36817L95.77215,827.36817L95.77215,828.56829L96.25222,828.56829L96.25222,829.04834L96.73228,829.04834L96.73228,830.24847
				L97.45237,830.24847L97.45237,831.4486L97.93243,831.4486L97.93243,832.4087L98.65252,832.4087L98.65252,833.12878L99.13258,833.12878
				L99.13258,834.32891L99.61264,834.32891L99.61264,835.28901L100.33273,835.28901L100.33273,836.48914L100.81279,836.48914L100.81279,836.96919
				L101.29285,836.96919L101.29285,838.16932L102.01295,838.16932L102.01295,839.36944L102.49301,839.36944L102.49301,840.56957
				L103.2131,840.56957L103.2131,841.04962L103.69316,841.04962L103.69316,842.24975L104.17322,842.24975L104.17322,843.44988L104.89331,843.44988
				L104.89331,844.40998L105.37337,844.40998L105.37337,845.13006L105.85343,845.13006L105.85343,846.33019L106.57352,846.33019
				L106.57352,847.29029L107.05359,847.29029L107.05359,848.49042L107.77368,848.49042L107.77368,849.69054L108.25374,849.69054
				L108.25374,850.1706L108.7338,850.1706L108.7338,851.37072L109.45389,851.37072L109.45389,852.57085L109.93395,852.57085L109.93395,853.53095
				L110.41401,853.53095L110.41401,854.73108L111.1341,854.73108L111.1341,855.93121L111.61416,855.93121L111.61416,857.13134L112.33426,857.13134
				L112.33426,857.61139L112.81432,857.61139L112.81432,858.81152L113.29438,858.81152L113.29438,860.01164L114.01447,860.01164
				L114.01447,860.97175L114.49453,860.97175L114.49453,861.21177"/>
			<path clip-path="url(#SVG_CP_2)" fill="none" stroke="#999999" stroke-width="0.96012" stroke-miterlimit="10" stroke-linecap="round" stroke-linejoin="round" d="
				M111.61416,-18.722L111.61416,-16.08171L112.33426,-16.08171L112.33426,-13.20141L112.81432,-13.20141L112.81432,-9.84105L113.29438,-9.84105
				L113.29438,-6.96074L114.01447,-6.96074L114.01447,-4.08044L114.49453,-4.08044L114.49453,-0.72008L114.97459,-0.72008L114.97459,2.16023
				L115.69468,2.16023L115.69468,5.04054L116.17474,5.04054L116.17474,5.52059L118.57505,5.52059L118.57505,5.04054L120.25526,5.04054
				L120.25526,4.32046L121.93547,4.32046L121.93547,3.84041L123.61569,3.84041L123.61569,3.36036L125.2959,3.36036L125.2959,2.64028
				L128.17627,2.64028L128.17627,5.04054L128.89636,5.04054L128.89636,7.20077L129.37642,7.20077L129.37642,9.60102L129.85648,9.60102
				L129.85648,11.76125L130.57657,11.76125L130.57657,14.16151L131.05663,14.16151L131.05663,16.32174L131.53669,16.32174L131.53669,18.00192
				L132.25678,18.00192L132.25678,19.6821L133.937,19.6821L133.937,19.20205L136.81736,19.20205L136.81736,18.722L138.97764,18.722
				L138.97764,18.00192L141.37794,18.00192L141.37794,17.52187L143.05815,17.52187L143.05815,18.00192L144.25831,18.00192L144.25831,18.722
				L144.73837,18.722L144.73837,19.20205L145.93852,19.20205L145.93852,19.6821L146.41858,19.6821L146.41858,22.08235L147.13867,22.08235
				L147.13867,24.96266L147.61873,24.96266L147.61873,32.8835L147.13867,32.8835L147.13867,37.44399L147.61873,37.44399L147.61873,41.52443
				L148.09879,41.52443L148.09879,44.88478L146.41858,44.88478L146.41858,45.36483L144.25831,45.36483L144.25831,46.08491L141.37794,46.08491
				L141.37794,46.56496L138.97764,46.56496L138.97764,47.28504L136.81736,47.28504L136.81736,47.76509L133.937,47.76509L133.937,48.24514
				L131.53669,48.24514L131.53669,48.96522L129.37642,48.96522L129.37642,49.44527L126.49605,49.44527L126.49605,49.92532L124.33578,49.92532
				L124.33578,50.6454L123.61569,50.6454L123.61569,53.5257L124.33578,53.5257L124.33578,56.40601L124.81584,56.40601L124.81584,59.76637
				L125.2959,59.76637L125.2959,62.64668L126.01599,62.64668L126.01599,65.52698L126.49605,65.52698L126.49605,68.16726L126.97611,68.16726
				L126.97611,71.76765L127.69621,71.76765L127.69621,73.44783L128.17627,73.44783L128.17627,75.60806L128.89636,75.60806L128.89636,77.28824
				L131.05663,77.28824L131.05663,76.80819L131.53669,76.80819L131.53669,75.60806L132.25678,75.60806L132.25678,73.92788L132.73685,73.92788
				L132.73685,71.76765L133.45694,71.76765L133.45694,70.08747L140.17779,70.08747L140.17779,69.36739L148.09879,69.36739L148.09879,68.88734
				L151.69925,68.88734L151.69925,73.92788L150.97916,73.92788L150.97916,78.48836L150.4991,78.48836L150.4991,83.04885L149.77901,83.04885
				L149.77901,90.00959L150.4991,90.00959L150.4991,93.85L150.97916,93.85L150.97916,97.93044L151.69925,97.93044L151.69925,101.29079
				L152.17931,101.29079L152.17931,105.37123L152.65937,105.37123L152.65937,108.25154L153.37946,108.25154L153.37946,109.45166
				L153.85953,109.45166L153.85953,111.13184L154.33959,111.13184L154.33959,112.81202L155.05968,112.81202L155.05968,117.85256
				L154.33959,117.85256L154.33959,121.93299L153.85953,121.93299L153.85953,123.13312L153.37946,123.13312L153.37946,124.8133L
				152.65937,124.8133L152.65937,125.7734L152.17931,125.7734L152.17931,126.97353L147.61873,126.97353L147.61873,127.69361L143.05815,127.69361
				L143.05815,128.17366L143.53822,128.17366L143.53822,129.85384L144.25831,129.85384L144.25831,131.53402L144.73837,131.53402
				L144.73837,133.2142L145.21843,133.2142L145.21843,134.41432L145.93852,134.41432L145.93852,136.0945L146.41858,136.0945L146.41858,137.77468
				L147.13867,137.77468L147.13867,139.45486L147.61873,139.45486L147.61873,141.37507L148.09879,141.37507L148.09879,143.05524
				L148.81889,143.05524L148.81889,144.01535L149.29895,144.01535L149.29895,145.93555L149.77901,145.93555L149.77901,147.61573
				L150.4991,147.61573L150.4991,149.29591L150.97916,149.29591L150.97916,150.97609L151.69925,150.97609L151.69925,152.65627L152.17931,152.65627
				L152.17931,153.8564L152.65937,153.8564L152.65937,155.53657L153.37946,155.53657L153.37946,157.21675L153.85953,157.21675L153.85953,158.41688
				L154.33959,158.41688L154.33959,160.09706L155.05968,160.09706L155.05968,161.29719L155.53974,161.29719L155.53974,162.97737
				L156.25983,162.97737L156.25983,164.1775L156.73989,164.1775L156.73989,165.85767L157.21995,165.85767L157.21995,167.53785L157.94004,167.53785
				L157.94004,168.73798L158.4201,168.73798L158.4201,170.41816L158.90017,170.41816L158.90017,171.61829L159.62026,171.61829L159.62026,172.57839
				L160.10032,172.57839L160.10032,173.77852L160.82041,173.77852L160.82041,174.97865L161.30047,174.97865L161.30047,176.17877
				L161.78053,176.17877L161.78053,177.13888L162.50062,177.13888L162.50062,178.339L162.98068,178.339L162.98068,179.53913L163.46074,179.53913
				L163.46074,180.73926L164.18084,180.73926L164.18084,181.69936L164.6609,181.69936L164.6609,182.89949L165.38099,182.89949L165.38099,184.09962
				L165.86105,184.09962L165.86105,185.29975L166.34111,185.29975L166.34111,186.25985L167.0612,186.25985L167.0612,187.45998L167.54126,187.45998
				L167.54126,188.6601L168.02132,188.6601L168.02132,189.86023L168.74141,189.86023L168.74141,190.82033L169.22148,190.82033L169.22148,192.02046
				L169.94157,192.02046L169.94157,193.22059L170.42163,193.22059L170.42163,194.42072L170.90169,194.42072L170.90169,195.38082
				L171.62178,195.38082L171.62178,196.58095L172.10184,196.58095L172.10184,197.78108L172.5819,197.78108L172.5819,198.9812L173.30199,198.9812
				L173.30199,199.94131L173.78205,199.94131L173.78205,201.14143L174.50215,201.14143L174.50215,202.34156L174.98221,202.34156
				L174.98221,203.54169L175.46227,203.54169L175.46227,204.50179L176.18236,204.50179L176.18236,205.70192L176.66242,205.70192
				L176.66242,206.90205L177.14248,206.90205L177.14248,208.10218L177.86257,208.10218L177.86257,209.06228L179.06272,209.06228
				L179.06272,208.58223L180.74294,208.58223L180.74294,208.10218L181.94309,208.10218L181.94309,207.3821L183.6233,207.3821L183.6233,206.90205
				L185.30352,206.90205L185.30352,206.18197L186.98373,206.18197L186.98373,205.70192L188.18388,205.70192L188.18388,205.22187
				L189.86409,205.22187L189.86409,204.50179L191.54431,204.50179L191.54431,204.02174L192.74446,204.02174L192.74446,203.54169
				L194.42467,203.54169L194.42467,202.82161L196.10489,202.82161L196.10489,202.34156L197.30504,202.34156L197.30504,201.62149
				L198.98525,201.62149L198.98525,201.14143L200.66547,201.14143L200.66547,200.66138L202.34568,200.66138L202.34568,199.94131
				L203.54583,199.94131L203.54583,199.46126L205.22604,199.46126L205.22604,198.9812L206.90626,198.9812L206.90626,198.26113L208.10641,198.26113
				L208.10641,197.78108L209.78662,197.78108L209.78662,197.061L211.46684,197.061L211.46684,196.58095L212.66699,196.58095L212.66699,196.1009
				L214.3472,196.1009L214.3472,195.38082L216.50748,195.38082L216.50748,196.58095L217.22757,196.58095L217.22757,197.78108L217.70763,197.78108
				L217.70763,198.9812L218.42772,198.9812L218.42772,199.94131L218.90778,199.94131L218.90778,201.14143L219.38784,201.14143L219.38784,202.34156
				L220.10793,202.34156L220.10793,203.54169L220.58799,203.54169L220.58799,204.50179L221.06805,204.50179L221.06805,205.70192
				L221.78815,205.70192L221.78815,206.90205L222.26821,206.90205L222.26821,208.10218L222.9883,208.10218L222.9883,209.06228L223.46836,209.06228
				L223.46836,210.26241L223.94842,210.26241L223.94842,211.46253L224.66851,211.46253L224.66851,212.66266L225.14857,212.66266
				L225.14857,213.62276L225.62863,213.62276L225.62863,214.82289L226.34872,214.82289L226.34872,216.02302L226.82879,216.02302
				L226.82879,217.22315L227.54888,217.22315L227.54888,218.18325L228.02894,218.18325L228.02894,219.38338L228.509,219.38338L228.509,220.58351
				L229.22909,220.58351L229.22909,221.06356L229.70915,221.06356L229.70915,222.26369L230.18921,222.26369L230.18921,222.74374
				L230.9093,222.74374L230.9093,223.46381L231.38936,223.46381L231.38936,224.66394L232.10946,224.66394L232.10946,225.14399L232.58952,225.14399
				L232.58952,226.34412L233.06958,226.34412L233.06958,226.82417L233.78967,226.82417L233.78967,227.30422L234.26973,227.30422
				L234.26973,228.0243L234.74979,228.0243L234.74979,228.50435L235.46988,228.50435L235.46988,229.22443L235.94994,229.22443L235.94994,229.70448
				L236.67003,229.70448L236.67003,230.18453L237.1501,230.18453L237.1501,230.90461L237.63016,230.90461L237.63016,231.38466L238.35025,231.38466
				L238.35025,231.86471L238.83031,231.86471L238.83031,232.58478L239.31037,232.58478L239.31037,233.78491L240.03046,233.78491
				L240.03046,234.26496L240.51052,234.26496L240.51052,234.74502L241.23061,234.74502L241.23061,235.46509L241.71067,235.46509
				L241.71067,235.94514L242.19074,235.94514L242.19074,236.42519L242.91083,236.42519L242.91083,237.14527L243.39089,237.14527
				L243.39089,237.62532L244.59104,237.62532L244.59104,238.3454L245.0711,238.3454L245.0711,238.82545L245.79119,238.82545L245.79119,239.3055
				L246.27125,239.3055L246.27125,240.02558L247.47141,240.02558L247.47141,240.50563L247.95147,240.50563L247.95147,240.98568L
				248.67156,240.98568L248.67156,241.70576L249.63168,241.70576L249.63168,242.18581L250.35177,242.18581L250.35177,242.90588L
				250.83183,242.90588L250.83183,243.38594L252.03198,243.38594L252.03198,243.86599L252.51205,243.86599L252.51205,244.58606L
				253.23214,244.58606L253.23214,245.06611L253.7122,245.06611L253.7122,245.54617L254.91235,245.54617L254.91235,246.26624L255.39241,246.26624
				L255.39241,246.74629L255.87247,246.74629L255.87247,247.46637L257.07262,247.46637L257.07262,247.94642L257.79272,247.94642
				L257.79272,248.42647L258.27278,248.42647L258.27278,249.14655L258.75284,249.14655L258.75284,249.6266L259.95299,249.6266L259.95299,250.10665
				L260.43305,250.10665L260.43305,250.82673L261.15314,250.82673L261.15314,251.30678L262.35329,251.30678L262.35329,252.02686
				L262.83335,252.02686L262.83335,252.50691L263.31342,252.50691L263.31342,252.98696L264.51357,252.98696L264.51357,253.70704
				L264.99363,253.70704L264.99363,254.18709L265.71372,254.18709L265.71372,254.66714L266.91387,254.66714L266.91387,255.38721
				L267.39393,255.38721L267.39393,255.86727L267.87399,255.86727L267.87399,256.58734L269.07415,256.58734L269.07415,257.06739
				L269.55421,257.06739L269.55421,257.54744L270.2743,257.54744L270.2743,258.26752L271.47445,258.26752L271.47445,258.74757L271.95451,258.74757
				L271.95451,259.22762L272.43457,259.22762L272.43457,259.9477L273.63473,259.9477L273.63473,260.42775L274.11479,260.42775L274.11479,261.14783
				L275.31494,261.14783L275.31494,261.62788L276.03503,261.62788L276.03503,262.10793L276.99515,262.10793L276.99515,262.82801
				L278.1953,262.82801L278.1953,263.30806L278.67537,263.30806L278.67537,263.78811L279.87552,263.78811L279.87552,264.50819L281.07567,264.50819
				L281.07567,264.98824L281.55573,264.98824L281.55573,265.70831L282.75588,265.70831L282.75588,266.18837L283.23594,266.18837
				L283.23594,266.66842L284.4361,266.66842L284.4361,267.38849L287.31646,267.38849L287.31646,267.86854L289.71677,267.86854L289.71677,268.3486
				L292.3571,268.3486L292.3571,269.06867L293.07719,269.06867L293.07719,268.3486L317.5603,268.3486L317.5603,267.86854L331.24204,267.86854
				L331.24204,267.38849L335.32255,267.38849L335.32255,266.66842L339.16304,266.66842L339.16304,266.18837L342.7635,266.18837L
				342.7635,266.66842L341.56335,266.66842L341.56335,267.38849L340.36319,267.38849L340.36319,267.86854L339.88313,267.86854L339.88313,268.3486
				L338.68298,268.3486L338.68298,269.06867L337.48283,269.06867L337.48283,269.54872L336.28268,269.54872L336.28268,270.2688L335.32255,270.2688
				L335.32255,270.74885L334.1224,270.74885L334.1224,271.2289L333.64234,271.2289L333.64234,271.94898L332.44219,271.94898L332.44219,272.42903
				L331.24204,272.42903L331.24204,273.14911L330.04188,273.14911L330.04188,273.62916L329.08176,273.62916L329.08176,274.10921
				L328.36167,274.10921L328.36167,274.82929L327.16152,274.82929L327.16152,275.30934L326.2014,275.30934L326.2014,275.78939L325.00124,275.78939
				L325.00124,276.50947L323.80109,276.50947L323.80109,276.98952L322.60094,276.98952L322.60094,277.70959L321.64082,277.70959
				L321.64082,278.18964L320.44067,278.18964L320.44067,278.6697L318.76045,278.6697L318.76045,279.38977L317.5603,279.38977L317.5603,279.86982
				L316.36015,279.86982L316.36015,280.34987L315.40003,280.34987L315.40003,281.06995L313.47978,281.06995L313.47978,281.55L312.51966,281.55
				L312.51966,282.27008L311.31951,282.27008L311.31951,282.75013L309.63929,282.75013L309.63929,283.23018L308.43914,283.23018
				L308.43914,283.95026L307.23899,283.95026L307.23899,284.43031L305.55878,284.43031L305.55878,284.91036L304.35862,284.91036
				L304.35862,285.63044L303.3985,285.63044L303.3985,286.11049L302.19835,286.11049L302.19835,286.83057L300.51814,286.83057L300.51814,287.31062
				L299.31798,287.31062L299.31798,287.79067L298.83792,287.79067L298.83792,288.51074L298.11783,288.51074L298.11783,289.47085
				L297.63777,289.47085L297.63777,290.19092L298.11783,290.19092L298.11783,291.39105L298.83792,291.39105L298.83792,292.35115
				L299.31798,292.35115L299.31798,293.55128L299.79805,293.55128L299.79805,294.75141L300.51814,294.75141L300.51814,296.43159
				L300.9982,296.43159L300.9982,297.63172L301.47826,297.63172L301.47826,298.59182L302.19835,298.59182L302.19835,299.79195L302.67841,299.79195
				L302.67841,300.99207L303.3985,300.99207L303.3985,302.1922L303.87856,302.1922L303.87856,303.87238L304.35862,303.87238L304.35862,305.07251
				L305.07872,305.07251L305.07872,306.03261L305.55878,306.03261L305.55878,307.23274L306.03884,307.23274L306.03884,308.43287
				L306.75893,308.43287L306.75893,309.633L307.23899,309.633L307.23899,310.5931L307.95908,310.5931L307.95908,312.27328L308.43914,312.27328
				L308.43914,313.4734L308.9192,313.4734L308.9192,314.67353L309.63929,314.67353L309.63929,315.87366L308.9192,315.87366L308.9192,318.03389
				L308.43914,318.03389L308.43914,319.23402L307.95908,319.23402L307.95908,320.43415L307.23899,320.43415L307.23899,320.9142L
				306.75893,320.9142L306.75893,321.39425L306.03884,321.39425L306.03884,322.11433L305.55878,322.11433L305.55878,322.59438L304.35862,322.59438
				L304.35862,323.31445L303.87856,323.31445L303.87856,323.7945L303.3985,323.7945L303.3985,324.27456L302.67841,324.27456L302.67841,324.99463
				L301.47826,324.99463L301.47826,325.47468L300.9982,325.47468L300.9982,325.95473L300.51814,325.95473L300.51814,326.67481L299.79805,326.67481
				L299.79805,327.15486L299.31798,327.15486L299.31798,327.87494L298.11783,327.87494L298.11783,328.35499L297.63777,328.35499
				L297.63777,328.83504L298.83792,328.83504L298.83792,329.55512L299.79805,329.55512L299.79805,330.03517L300.9982,330.03517L
				300.9982,330.51522L301.47826,330.51522L301.47826,331.2353L302.67841,331.2353L302.67841,331.71535L303.87856,331.71535L303.87856,332.43543
				L305.07872,332.43543L305.07872,332.91548L305.55878,332.91548L305.55878,333.39553L306.75893,333.39553L306.75893,334.1156L
				307.95908,334.1156L307.95908,334.59566L308.43914,334.59566L308.43914,335.07571L309.63929,335.07571L309.63929,335.79578L310.83945,335.79578
				L310.83945,336.27583L311.79957,336.27583L311.79957,336.99591L312.51966,336.99591L312.51966,337.47596L313.47978,337.47596
				L313.47978,337.95601L314.67993,337.95601L314.67993,338.67609L315.88009,338.67609L315.88009,339.15614L316.36015,339.15614
				L316.36015,339.87622L317.5603,339.87622L317.5603,340.35627L318.76045,340.35627L318.76045,340.83632L319.24051,340.83632L319.24051,341.5564
				L320.44067,341.5564L320.44067,342.03645L321.64082,342.03645L321.64082,342.5165L322.60094,342.5165L322.60094,343.23658L323.32103,343.23658
				L323.32103,343.71663L324.52118,343.71663L324.52118,344.4367L325.48131,344.4367L325.48131,344.91676L326.68146,344.91676L326.68146,345.39681
				L327.16152,345.39681L327.16152,346.11688L328.36167,346.11688L328.36167,346.59693L329.56182,346.59693L329.56182,347.07699
				L330.76198,347.07699L330.76198,347.79706L331.24204,347.79706L331.24204,348.27711L332.44219,348.27711L332.44219,348.99719
				L333.64234,348.99719L333.64234,349.47724L334.60246,349.47724L334.60246,349.95729L335.80261,349.95729L335.80261,350.67737
				"/>
			<path clip-path="url(#SVG_CP_2)" fill="none" stroke="#999999" stroke-width="0.96012" stroke-miterlimit="10" stroke-linecap="round" stroke-linejoin="round" d="
				M250.35177,495.41279L250.83183,495.41279L250.83183,494.93274L251.31189,494.93274L251.31189,494.21266L252.03198,494.21266
				L252.03198,493.73261L252.51205,493.73261L252.51205,493.25256L253.23214,493.25256L253.23214,492.53249L253.7122,492.53249L
				253.7122,492.05243L254.19226,492.05243L254.19226,491.57238L254.91235,491.57238L254.91235,490.85231L255.39241,490.85231L255.39241,490.37225
				L255.87247,490.37225L255.87247,489.65218L256.59256,489.65218L256.59256,489.17213L257.07262,489.17213L257.07262,488.69208
				L257.79272,488.69208L257.79272,487.49195L258.27278,487.49195L258.27278,487.0119L258.75284,487.0119L258.75284,486.29182L259.47293,486.29182
				L259.47293,485.81177L259.95299,485.81177L259.95299,485.09169L260.43305,485.09169L260.43305,484.61164L261.15314,484.61164
				L261.15314,484.13159L261.6332,484.13159L261.6332,483.41151L262.35329,483.41151L262.35329,482.93146L262.83335,482.93146L262.83335,482.45141
				L263.31342,482.45141L263.31342,481.73133L264.03351,481.73133L264.03351,481.25128L264.51357,481.25128L264.51357,480.53121
				L264.99363,480.53121L264.99363,480.05116L265.71372,480.05116L265.71372,479.5711L266.19378,479.5711L266.19378,478.85103L266.91387,478.85103
				L266.91387,478.37098L267.39393,478.37098L267.39393,477.89092L267.87399,477.89092L267.87399,477.17085L268.59409,477.17085
				L268.59409,476.6908L269.07415,476.6908L269.07415,475.97072L269.55421,475.97072L269.55421,475.49067L270.2743,475.49067L270.2743,475.01062
				L270.75436,475.01062L270.75436,474.29054L271.47445,474.29054L271.47445,473.81049L271.95451,473.81049L271.95451,473.33044
				L272.43457,473.33044L272.43457,472.61036L273.15466,472.61036L273.15466,472.13031L273.63473,472.13031L273.63473,471.41023
				L274.11479,471.41023L274.11479,470.93018L274.83488,470.93018L274.83488,470.45013L275.31494,470.45013L275.31494,469.73006
				L276.03503,469.73006L276.03503,469.25L276.51509,469.25L276.51509,468.76995L276.99515,468.76995L276.99515,468.04988L277.71524,468.04988
				L277.71524,467.56983L278.1953,467.56983L278.1953,466.84975L278.67537,466.84975L278.67537,466.3697L279.39546,466.3697L279.39546,465.88965
				L279.87552,465.88965L279.87552,465.16957L280.59561,465.16957L280.59561,464.68952L281.07567,464.68952L281.07567,464.20947
				L281.55573,464.20947L281.55573,463.48939L282.27582,463.48939L282.27582,463.00934L282.75588,463.00934L282.75588,462.28926
				L283.23594,462.28926L283.23594,461.80921L283.95604,461.80921L283.95604,461.32916L284.4361,461.32916L284.4361,460.60908L285.15619,460.60908
				L285.15619,460.12903L285.63625,460.12903L285.63625,459.40896L286.11631,459.40896L286.11631,458.9289L286.8364,458.9289L286.8364,458.44885
				L287.31646,458.44885L287.31646,457.72878L287.79652,457.72878L287.79652,457.24873L288.51661,457.24873L288.51661,456.76867
				L288.99668,456.76867L288.99668,456.0486L289.71677,456.0486L289.71677,455.56855L290.19683,455.56855L290.19683,454.84847L290.67689,454.84847
				L290.67689,454.36842L291.39698,454.36842L291.39698,453.88837L291.87704,453.88837L291.87704,453.16829L292.3571,453.16829L
				292.3571,452.68824L293.07719,452.68824L293.07719,452.20819L293.55725,452.20819L293.55725,451.48811L294.27735,451.48811L294.27735,451.00806
				L294.75741,451.00806L294.75741,450.28798L295.23747,450.28798L295.23747,449.80793L295.95756,449.80793L295.95756,449.32788
				L296.43762,449.32788L296.43762,448.6078L296.91768,448.6078L296.91768,448.12775L297.63777,448.12775L297.63777,447.6477L298.11783,447.6477
				L298.11783,446.92763L298.83792,446.92763L298.83792,446.44757L299.31798,446.44757L299.31798,445.7275L299.79805,445.7275L299.79805,445.24745
				L300.51814,445.24745L300.51814,444.7674L300.9982,444.7674L300.9982,444.04732L301.47826,444.04732L301.47826,443.56727L302.19835,443.56727
				L302.19835,443.08722L302.67841,443.08722L302.67841,442.36714L303.3985,442.36714L303.3985,441.88709L303.87856,441.88709L303.87856,441.16701
				L304.35862,441.16701L304.35862,440.68696L305.07872,440.68696L305.07872,440.20691L305.55878,440.20691L305.55878,439.48683
				L306.03884,439.48683L306.03884,439.00678L306.75893,439.00678L306.75893,438.52673L307.23899,438.52673L307.23899,437.80665
				L307.95908,437.80665L307.95908,437.3266L308.43914,437.3266L308.43914,436.60653L308.9192,436.60653L308.9192,436.12647L309.63929,436.12647
				L309.63929,435.64642L310.11936,435.64642L310.11936,434.92635L310.83945,434.92635L310.83945,434.4463L311.31951,434.4463L311.31951,433.96624
				L311.79957,433.96624L311.79957,433.24617L312.51966,433.24617L312.51966,432.76612L312.99972,432.76612L312.99972,432.04604
				L313.47978,432.04604L313.47978,422.92507L314.19987,422.92507L314.19987,421.96497L314.67993,421.96497L314.67993,420.76484
				L315.40003,420.76484L315.40003,419.56471L315.88009,419.56471L315.88009,418.36458L316.36015,418.36458L316.36015,417.88453
				L317.08024,417.88453L317.08024,417.40448L317.5603,417.40448L317.5603,416.6844L318.04036,416.6844L318.04036,416.20435L318.76045,416.20435
				L318.76045,388.12136L319.24051,388.12136L319.24051,387.64131L319.9606,387.64131L319.9606,387.16126L320.44067,387.16126L320.44067,386.44118
				L320.92073,386.44118L320.92073,385.96113L321.64082,385.96113L321.64082,385.48108L322.12088,385.48108L322.12088,384.761L322.60094,384.761
				L322.60094,384.28095L323.32103,384.28095L323.32103,383.56087L323.80109,383.56087L323.80109,383.08082L324.52118,383.08082
				L324.52118,382.60077L325.00124,382.60077L325.00124,381.88069L325.48131,381.88069L325.48131,364.83888L326.2014,364.83888L
				326.2014,364.35883L326.68146,364.35883L326.68146,363.63875L327.16152,363.63875L327.16152,363.1587L327.88161,363.1587L327.88161,362.67865
				L328.36167,362.67865L328.36167,361.95857L329.08176,361.95857L329.08176,361.47852L329.56182,361.47852L329.56182,360.75844
				L330.04188,360.75844L330.04188,360.27839L330.76198,360.27839L330.76198,359.79834L331.24204,359.79834L331.24204,359.07826
				L331.7221,359.07826L331.7221,358.59821L332.44219,358.59821L332.44219,358.11816L332.92225,358.11816L332.92225,357.39809L333.64234,357.39809
				L333.64234,356.91803L334.1224,356.91803L334.1224,356.19796L334.60246,356.19796L334.60246,355.71791L335.32255,355.71791L335.32255,355.23785
				L335.80261,355.23785L335.80261,350.67737L336.28268,350.67737L336.28268,351.15742L337.48283,351.15742L337.48283,351.63747
				L338.68298,351.63747L338.68298,352.35755L339.88313,352.35755L339.88313,352.8376L340.84325,352.8376L340.84325,353.55768L342.04341,353.55768
				L342.04341,354.03773L342.7635,354.03773L342.7635,354.51778L343.72362,354.51778L343.72362,355.23785L344.92377,355.23785L344.92377,355.71791
				L346.12392,355.71791L346.12392,356.19796L347.32408,356.19796L347.32408,356.91803L347.80414,356.91803L347.80414,357.39809
				L349.00429,357.39809L349.00429,358.11816L349.96441,358.11816L349.96441,358.59821L351.16456,358.59821L351.16456,359.07826
				L352.36472,359.07826L352.36472,359.79834L353.56487,359.79834L353.56487,360.27839L354.04493,360.27839L354.04493,360.75844
				L355.24508,360.75844L355.24508,361.47852L356.44523,361.47852L356.44523,361.95857L357.40536,361.95857L357.40536,362.67865
				L358.60551,362.67865L358.60551,363.1587L359.08557,363.1587L359.08557,363.63875L360.28572,363.63875L360.28572,364.35883L361.48587,364.35883
				L361.48587,364.83888L362.68603,364.83888L362.68603,365.31893L363.64615,365.31893L363.64615,366.03901L364.8463,366.03901L
				364.8463,366.51906L365.56639,366.51906L365.56639,367.23913L366.52651,367.23913L366.52651,367.71918L367.72667,367.71918L367.72667,368.19924
				L368.92682,368.19924L368.92682,368.91931L370.12697,368.91931L370.12697,369.39936L370.60703,369.39936L370.60703,369.87942
				L371.80718,369.87942L371.80718,370.59949L373.00734,370.59949L373.00734,371.07954L373.96746,371.07954L373.96746,371.79962
				L375.16761,371.79962L375.16761,372.27967L376.36776,372.27967L376.36776,372.75972L376.84782,372.75972L376.84782,373.4798L
				378.04798,373.4798L378.04798,373.95985L379.24813,373.95985L379.24813,374.4399L380.20825,374.4399L380.20825,375.15998L381.4084,375.15998
				L381.4084,375.64003L382.12849,375.64003L382.12849,376.36011L383.08862,376.36011L383.08862,376.84016L384.28877,376.84016L
				384.28877,377.32021L384.76883,377.32021L384.76883,378.04028L385.96898,378.04028L385.96898,378.52034L386.68907,378.52034L
				386.68907,379.00039L387.64919,379.00039L387.64919,379.72046L388.84935,379.72046L388.84935,380.20051L389.32941,380.20051L
				389.32941,380.92059L390.52956,380.92059L390.52956,381.40064L391.24965,381.40064L391.24965,381.88069L392.20977,381.88069L
				392.20977,382.60077L392.92986,382.60077L392.92986,383.08082L393.88999,383.08082L393.88999,383.56087L395.09014,383.56087L
				395.09014,384.28095L395.81023,384.28095L395.81023,384.761L396.77035,384.761L396.77035,385.48108L397.49044,385.48108L397.49044,385.96113
				L398.45057,385.96113L398.45057,386.44118L399.65072,386.44118L399.65072,387.16126L400.37081,387.16126L400.37081,387.64131
				L401.33093,387.64131L401.33093,388.12136L402.05102,388.12136L402.05102,388.84144L403.01114,388.84144L403.01114,389.32149
				L403.73124,389.32149L403.73124,390.04156L404.93139,390.04156L404.93139,390.52161L405.41145,390.52161L405.41145,391.00167
				L406.6116,391.00167L406.6116,391.72174L407.09166,391.72174L407.09166,392.20179L408.29181,392.20179L408.29181,392.68185L408.77187,392.68185
				L408.77187,393.40192L409.97203,393.40192L409.97203,393.88197L410.45209,393.88197L410.45209,394.60205L411.65224,394.60205
				L411.65224,395.0821L412.1323,395.0821L412.1323,395.56215L413.33245,395.56215L413.33245,396.28223L414.05254,396.28223L414.05254,396.76228
				L415.01267,396.76228L415.01267,397.24233L415.73276,397.24233L415.73276,397.96241L416.69288,397.96241L416.69288,398.44246
				L417.41297,398.44246L417.41297,399.16254L418.61312,399.16254L418.61312,399.64259L419.09318,399.64259L419.09318,400.12264
				L420.29334,400.12264L420.29334,400.84271L420.7734,400.84271L420.7734,401.32277L421.25346,401.32277L421.25346,402.04284L421.97355,402.04284
				L421.97355,402.52289L423.1737,402.52289L423.1737,403.00294L423.65376,403.00294L423.65376,403.72302L424.13382,403.72302L424.13382,404.20307
				L425.33398,404.20307L425.33398,404.68312L425.81404,404.68312L425.81404,405.4032L426.53413,405.4032L426.53413,405.88325L427.73428,405.88325
				L427.73428,406.60333L428.21434,406.60333L428.21434,407.08338L428.6944,407.08338L428.6944,407.56343L429.41449,407.56343L429.41449,408.28351
				L430.37462,408.28351L430.37462,408.76356L431.09471,408.76356L431.09471,409.24361L431.57477,409.24361L431.57477,409.96369
				L432.77492,409.96369L432.77492,410.44374L433.25498,410.44374L433.25498,411.16381L433.97507,411.16381L433.97507,411.64387
				L434.45513,411.64387L434.45513,412.12392L435.65529,412.12392L435.65529,412.84399L436.13535,412.84399L436.13535,413.32404
				L436.85544,413.32404L436.85544,413.8041L437.3355,413.8041L437.3355,414.52417L437.81556,414.52417L437.81556,415.00422L438.53565,415.00422
				L438.53565,415.7243L439.01571,415.7243L439.01571,416.20435L439.7358,416.20435L439.7358,416.6844L440.21587,416.6844L440.21587,417.40448
				L440.69593,417.40448L440.69593,417.88453L441.41602,417.88453L441.41602,418.36458L442.37614,418.36458L442.37614,419.08466
				L443.09623,419.08466L443.09623,419.56471L443.57629,419.56471L443.57629,420.28479L444.29638,420.28479L444.29638,420.76484
				L444.77644,420.76484L444.77644,421.24489L445.2565,421.24489L445.2565,421.96497L445.9766,421.96497L445.9766,422.44502L446.45666,422.44502
				L446.45666,422.92507L446.93672,422.92507L446.93672,423.64514L447.65681,423.64514L447.65681,424.1252L448.13687,424.1252L448.13687,424.84527
				L448.85696,424.84527L448.85696,425.32532L449.33702,425.32532L449.33702,425.80537L449.81708,425.80537L449.81708,426.52545
				L450.53717,426.52545L450.53717,427.0055L451.01724,427.0055L451.01724,427.48555L451.4973,427.48555L451.4973,428.68568L452.21739,428.68568
				L452.21739,429.40576L452.69745,429.40576L452.69745,429.88581L453.41754,429.88581L453.41754,430.36586L453.8976,430.36586L
				453.8976,431.08594L454.37766,431.08594L454.37766,431.56599L455.09775,431.56599L455.09775,432.04604L455.57781,432.04604L455.57781,432.76612
				L456.05788,432.76612L456.05788,433.96624L456.77797,433.96624L456.77797,434.4463L457.25803,434.4463L457.25803,434.92635L457.97812,434.92635
				L457.97812,435.64642L458.45818,435.64642L458.45818,436.12647L458.93824,436.12647L458.93824,436.60653L459.65833,436.60653
				L459.65833,437.3266L460.13839,437.3266L460.13839,437.80665L460.61845,437.80665L460.61845,438.52673L461.33855,438.52673L461.33855,439.48683
				L461.81861,439.48683L461.81861,440.20691L462.5387,440.20691L462.5387,440.68696L463.01876,440.68696L463.01876,441.16701L463.49882,441.16701
				L463.49882,441.88709L464.21891,441.88709L464.21891,442.36714L464.69897,442.36714L464.69897,443.08722L465.17903,443.08722
				L465.17903,443.56727L465.89912,443.56727L465.89912,444.7674L466.37919,444.7674L466.37919,445.24745L467.09928,445.24745L467.09928,445.7275
				L467.57934,445.7275L467.57934,446.44757L468.0594,446.44757L468.0594,446.92763L468.77949,446.92763L468.77949,447.6477L469.25955,447.6477
				L469.25955,448.12775L469.73961,448.12775L469.73961,448.6078L470.4597,448.6078L470.4597,449.32788L470.93976,449.32788L470.93976,450.28798
				L471.65986,450.28798L471.65986,451.00806L472.13992,451.00806L472.13992,451.48811L472.61998,451.48811L472.61998,452.20819
				L473.34007,452.20819L473.34007,452.68824L473.82013,452.68824L473.82013,453.16829L474.30019,453.16829L474.30019,452.68824
				L475.50034,452.68824L475.50034,452.20819L476.7005,452.20819L476.7005,451.48811L477.90065,451.48811L477.90065,451.00806L478.86077,451.00806
				L478.86077,450.28798L480.06092,450.28798L480.06092,449.80793L480.78101,449.80793L480.78101,449.32788L481.74113,449.32788
				L481.74113,448.6078L482.94129,448.6078L482.94129,448.12775L484.14144,448.12775L484.14144,447.6477L485.34159,447.6477L485.34159,446.92763
				L486.30171,446.92763L486.30171,446.44757L487.0218,446.44757L487.0218,445.7275L487.98193,445.7275L487.98193,445.24745L489.18208,445.24745
				L489.18208,444.7674L490.38223,444.7674L490.38223,444.04732L491.58238,444.04732L491.58238,443.56727L492.06244,443.56727L492.06244,443.08722
				L493.2626,443.08722L493.2626,442.36714L494.46275,442.36714L494.46275,441.88709L495.42287,441.88709L495.42287,441.16701L496.62302,441.16701
				L496.62302,440.68696L497.82318,440.68696L497.82318,440.20691L498.30324,440.20691L498.30324,439.48683L499.50339,439.48683
				L499.50339,439.00678L500.70354,439.00678L500.70354,438.52673L501.90369,438.52673L501.90369,437.80665L502.86382,437.80665
				L502.86382,437.3266L504.06397,437.3266L504.06397,436.60653L504.54403,436.60653L504.54403,436.12647L505.74418,436.12647L505.74418,435.64642
				L506.94433,435.64642L506.94433,434.92635L508.14449,434.92635L508.14449,434.4463L509.10461,434.4463L509.10461,433.96624L510.30476,433.96624
				L510.30476,433.24617L511.02485,433.24617L511.02485,432.76612L511.98497,432.76612L511.98497,432.04604L513.18513,432.04604
				L513.18513,431.56599L514.38528,431.56599L514.38528,431.08594L515.58543,431.08594L515.58543,430.36586L516.06549,430.36586
				L516.06549,429.88581L517.26564,429.88581L517.26564,429.40576L518.22576,429.40576L518.22576,428.68568L519.42592,428.68568
				L519.42592,428.20563L520.62607,428.20563L520.62607,427.48555L521.82622,427.48555L521.82622,427.0055L522.30628,427.0055L522.30628,426.52545
				L523.50643,426.52545L523.50643,425.80537L524.70659,425.80537L524.70659,425.32532L525.66671,425.32532L525.66671,424.84527
				L526.86686,424.84527L526.86686,424.1252L528.06701,424.1252L528.06701,423.64514L528.54707,423.64514L528.54707,422.92507L529.74723,422.92507
				L529.74723,422.44502L530.94738,422.44502L530.94738,421.96497L531.9075,421.96497L531.9075,421.24489L533.10765,421.24489L533.10765,420.76484
				L533.82774,420.76484L533.82774,420.28479L534.78787,420.28479L534.78787,419.56471L535.98802,419.56471L535.98802,419.08466
				L537.18817,419.08466L537.18817,418.36458L538.38832,418.36458L538.38832,417.88453L539.34845,417.88453L539.34845,417.40448
				L540.06854,417.40448L540.06854,416.6844L541.02866,416.6844L541.02866,416.20435L542.22881,416.20435L542.22881,415.7243L543.42896,415.7243
				L543.42896,415.00422L544.62912,415.00422L544.62912,414.52417L545.58924,414.52417L545.58924,413.8041L546.30933,413.8041L546.30933,413.32404
				L547.50948,413.32404L547.50948,412.84399L548.4696,412.84399L548.4696,412.12392L549.66976,412.12392L549.66976,411.64387L550.86991,411.64387
				L550.86991,411.16381L551.34997,411.16381L551.34997,410.44374L552.55012,410.44374L552.55012,409.96369L553.75027,409.96369
				L553.75027,409.24361L554.71039,409.24361L554.71039,408.76356L555.91055,408.76356L555.91055,408.28351L557.1107,408.28351L
				557.1107,407.56343L557.59076,407.56343L557.59076,407.08338L558.79091,407.08338L558.79091,406.60333L559.99106,406.60333L559.99106,405.88325
				L561.19122,405.88325L561.19122,405.4032L562.15134,405.4032L562.15134,404.68312L563.35149,404.68312L563.35149,404.20307L564.07158,404.20307
				L564.07158,403.72302L565.0317,403.72302L565.0317,403.00294L565.7518,403.00294L565.7518,402.52289L566.71192,402.52289L566.71192,402.04284
				L567.43201,402.04284L567.43201,401.32277L568.63216,401.32277L568.63216,400.84271L569.11222,400.84271L569.11222,400.12264
				L570.31237,400.12264L570.31237,399.64259L570.79244,399.64259L570.79244,399.16254L571.99259,399.16254L571.99259,398.44246
				L572.47265,398.44246L572.47265,397.96241L573.6728,397.96241L573.6728,397.24233L574.87295,397.24233L574.87295,396.76228L575.35301,396.76228
				L575.35301,396.28223L576.55317,396.28223L576.55317,395.56215L577.03323,395.56215L577.03323,395.0821L578.23338,395.0821L578.23338,394.60205
				L578.71344,394.60205L578.71344,393.88197L579.91359,393.88197L579.91359,393.40192L580.39365,393.40192L580.39365,392.68185
				L581.59381,392.68185L581.59381,392.20179L582.3139,392.20179L582.3139,391.72174L583.27402,391.72174L583.27402,391.00167L583.99411,391.00167
				L583.99411,390.52161L584.95423,390.52161L584.95423,390.04156L585.67432,390.04156L585.67432,389.32149L586.87448,389.32149
				L586.87448,388.84144L587.8346,388.84144L587.8346,388.12136L588.55469,388.12136L588.55469,387.64131L589.51481,387.64131L589.51481,387.16126
				L590.71496,387.16126L590.71496,386.44118L591.91512,386.44118L591.91512,385.96113L590.71496,385.96113L590.71496,385.48108
				L589.03475,385.48108L589.03475,384.761L587.8346,384.761L587.8346,384.28095L586.87448,384.28095L586.87448,383.56087L585.67432,383.56087
				L585.67432,383.08082L584.47417,383.08082L584.47417,382.60077L583.27402,382.60077L583.27402,381.88069L582.3139,381.88069L
				582.3139,381.40064L580.39365,381.40064L580.39365,380.92059L579.43353,380.92059L579.43353,380.20051L578.23338,380.20051L578.23338,379.72046
				L577.03323,379.72046L577.03323,379.00039L575.83308,379.00039L575.83308,378.52034L576.55317,378.52034L576.55317,378.04028
				L577.03323,378.04028L577.03323,377.32021L578.23338,377.32021L578.23338,376.84016L578.71344,376.84016L578.71344,376.36011
				L579.91359,376.36011L579.91359,375.64003L581.11375,375.64003L581.11375,375.15998L581.59381,375.15998L581.59381,374.4399L
				582.79396,374.4399L582.79396,373.95985L583.27402,373.95985L583.27402,373.4798L584.47417,373.4798L584.47417,372.75972L585.67432,372.75972
				L585.67432,372.27967L586.15439,372.27967L586.15439,371.79962L587.35454,371.79962L587.35454,371.07954L587.8346,371.07954L
				587.8346,370.59949L589.03475,370.59949L589.03475,369.87942L590.2349,369.87942L590.2349,369.39936L590.71496,369.39936L590.71496,368.91931
				L591.91512,368.91931L591.91512,368.19924L592.39518,368.19924L592.39518,367.71918L593.59533,367.71918L593.59533,367.23913
				L594.07539,367.23913L594.07539,366.51906L595.27554,366.51906L595.27554,366.03901L596.47569,366.03901L596.47569,365.31893
				L596.95576,365.31893L596.95576,364.83888L598.15591,364.83888L598.15591,364.35883L598.63597,364.35883L598.63597,363.63875
				L599.83612,363.63875L599.83612,363.1587L601.51633,363.1587L601.51633,363.63875L601.9964,363.63875"/>
			<path clip-path="url(#SVG_CP_2)" fill="none" stroke="#999999" stroke-width="0.96012" stroke-miterlimit="10" stroke-linecap="round" stroke-linejoin="round" d="
				M419.09318,861.21177L419.09318,860.97175L418.61312,860.97175L418.61312,860.01164L417.89303,860.01164L417.89303,858.09144
				L417.41297,858.09144L417.41297,857.13134L416.69288,857.13134L416.69288,855.93121L416.21282,855.93121L416.21282,854.73108
				L415.73276,854.73108L415.73276,853.53095L415.01267,853.53095L415.01267,852.57085L414.53261,852.57085L414.53261,850.89067
				L414.05254,850.89067L414.05254,849.69054L413.33245,849.69054L413.33245,848.49042L412.85239,848.49042L412.85239,847.29029
				L412.1323,847.29029L412.1323,846.33019L411.65224,846.33019L411.65224,845.13006L411.17218,845.13006L411.17218,843.44988L410.45209,843.44988
				L410.45209,842.24975L409.97203,842.24975L409.97203,841.04962L409.49197,841.04962L409.49197,839.8495L408.77187,839.8495L408.77187,838.88939
				L408.29181,838.88939L408.29181,836.96919L407.57172,836.96919L407.57172,836.00909L407.09166,836.00909L407.09166,834.80896
				L406.6116,834.80896L406.6116,833.60883L405.89151,833.60883L405.89151,832.4087L405.41145,832.4087L405.41145,831.4486L404.93139,831.4486
				L404.93139,829.76842L404.2113,829.76842L404.2113,828.56829L403.73124,828.56829L403.73124,827.36817L403.01114,827.36817L403.01114,826.16804
				L402.53108,826.16804L402.53108,825.20794L402.05102,825.20794L402.05102,824.00781L401.33093,824.00781L401.33093,822.32763
				L400.85087,822.32763L400.85087,821.1275L400.37081,821.1275L400.37081,819.92737L399.65072,819.92737L399.65072,818.72724L399.17066,818.72724
				L399.17066,817.76714L398.45057,817.76714L398.45057,816.56701L397.9705,816.56701L397.9705,814.88684L397.49044,814.88684L397.49044,813.68671
				L396.77035,813.68671L396.77035,812.48658L396.29029,812.48658L396.29029,811.52648L395.81023,811.52648L395.81023,810.32635
				L395.09014,810.32635L395.09014,809.12622L394.61008,809.12622L394.61008,807.44604L393.88999,807.44604L393.88999,806.24591
				L393.40993,806.24591L393.40993,805.04579L392.92986,805.04579L392.92986,804.08568L392.20977,804.08568L392.20977,802.88556
				L391.72971,802.88556L391.72971,801.68543L391.24965,801.68543L391.24965,800.00525L390.52956,800.00525L390.52956,798.80512
				L390.0495,798.80512L390.0495,797.84502L389.32941,797.84502L389.32941,796.64489L388.84935,796.64489L388.84935,795.44476L388.36929,795.44476
				L388.36929,794.24464L387.64919,794.24464L387.64919,792.56446L387.16913,792.56446L387.16913,791.36433L386.68907,791.36433
				L386.68907,790.40423L385.96898,790.40423L385.96898,789.2041L385.48892,789.2041L385.48892,788.00397L384.76883,788.00397L384.76883,786.80384
				L384.28877,786.80384L384.28877,785.84374L383.80871,785.84374L383.80871,784.16356L383.08862,784.16356L383.08862,782.96343
				L382.60855,782.96343L382.60855,781.76331L382.12849,781.76331L382.12849,780.56318L381.4084,780.56318L381.4084,779.60308L380.92834,779.60308
				L380.92834,778.40295L380.20825,778.40295L380.20825,776.72277L379.72819,776.72277L379.72819,775.52264L379.24813,775.52264
				L379.24813,774.32251L378.52804,774.32251L378.52804,773.12239L378.04798,773.12239L378.04798,772.16228L377.56791,772.16228
				L377.56791,770.96215L376.84782,770.96215L376.84782,769.28198L376.36776,769.28198L376.36776,768.08185L375.64767,768.08185
				L375.64767,766.88172L375.16761,766.88172L375.16761,765.68159L374.68755,765.68159L374.68755,764.72149L373.96746,764.72149
				L373.96746,763.52136L373.4874,763.52136L373.4874,761.84118L373.00734,761.84118L373.00734,760.64106L372.28724,760.64106L372.28724,759.44093
				L371.80718,759.44093L371.80718,758.48082L371.08709,758.48082L371.08709,757.2807L370.60703,757.2807L370.60703,756.08057L370.12697,756.08057
				L370.12697,754.40039L369.40688,754.40039L369.40688,753.20026L368.92682,753.20026L368.92682,752.00013L368.20673,752.00013
				L368.20673,751.04003L367.72667,751.04003L367.72667,749.8399L367.24661,749.8399L367.24661,748.15973L366.52651,748.15973L366.52651,746.9596
				L366.04645,746.9596L366.04645,745.75947L365.56639,745.75947L365.56639,744.79937L364.8463,744.79937L364.8463,743.59924L364.36624,743.59924
				L364.36624,742.39911L363.64615,742.39911L363.64615,740.71893L363.16609,740.71893L363.16609,739.5188L362.68603,739.5188L362.68603,738.31868
				L361.96594,738.31868L361.96594,737.35857L361.48587,737.35857L361.48587,736.15845L361.00581,736.15845L361.00581,734.47827
				L360.28572,734.47827L360.28572,733.27814L359.80566,733.27814L359.80566,732.07801L359.08557,732.07801L359.08557,731.11791
				L358.60551,731.11791L358.60551,729.91778L358.12545,729.91778L358.12545,728.71765L357.40536,728.71765L357.40536,727.03747
				L356.9253,727.03747L356.9253,725.83735L356.44523,725.83735L356.44523,724.63722L355.72514,724.63722L355.72514,723.67712L355.24508,723.67712
				L355.24508,722.47699L354.52499,722.47699L354.52499,720.79681L354.04493,720.79681L354.04493,719.59668L353.56487,719.59668
				L353.56487,718.39655L352.84478,718.39655L352.84478,717.43645L352.36472,717.43645L352.36472,716.23632L351.88466,716.23632
				L351.88466,714.55614L351.16456,714.55614L351.16456,713.35602L350.6845,713.35602L350.6845,712.15589L349.96441,712.15589L349.96441,710.95576
				L349.48435,710.95576L349.48435,709.99566L349.00429,709.99566L349.00429,708.79553L348.2842,708.79553L348.2842,707.11535L347.80414,707.11535
				L347.80414,705.91522L347.32408,705.91522L347.32408,704.7151L346.60399,704.7151L346.60399,703.51497L346.12392,703.51497L346.12392,702.55487
				L345.40383,702.55487L345.40383,700.87469L344.92377,700.87469L344.92377,699.67456L344.44371,699.67456L344.44371,698.47443
				L343.72362,698.47443L343.72362,697.2743L343.24356,697.2743L343.24356,696.3142L342.7635,696.3142L342.7635,695.11407L342.04341,695.11407
				L342.04341,693.43389L341.56335,693.43389L341.56335,692.23377L340.84325,692.23377L340.84325,691.03364L340.36319,691.03364
				L340.36319,689.83351L339.88313,689.83351L339.88313,688.87341L339.16304,688.87341L339.16304,687.19323L338.68298,687.19323
				L338.68298,685.9931L338.20292,685.9931L338.20292,684.79297L337.48283,684.79297L337.48283,683.59284L337.00277,683.59284L337.00277,682.63274
				L336.28268,682.63274L336.28268,681.43261L335.80261,681.43261L335.80261,679.75244L335.32255,679.75244L335.32255,678.55231
				L334.60246,678.55231L334.60246,677.35218L334.1224,677.35218L334.1224,676.15205L333.64234,676.15205L333.64234,675.19195L332.92225,675.19195
				L332.92225,673.51177L332.44219,673.51177L332.44219,672.31164L331.7221,672.31164L331.7221,671.11151L331.24204,671.11151L331.24204,669.91139
				L330.76198,669.91139L330.76198,668.95128L330.04188,668.95128L330.04188,667.75116L329.56182,667.75116L329.56182,666.55103
				L329.08176,666.55103L329.08176,665.3509L328.36167,665.3509L328.36167,663.67072L327.88161,663.67072L327.88161,662.47059L327.16152,662.47059
				L327.16152,661.51049L326.68146,661.51049L326.68146,660.31036L326.2014,660.31036L326.2014,659.11024L325.48131,659.11024L325.48131,657.91011
				L325.00124,657.91011L325.00124,656.95001L324.52118,656.95001L324.52118,655.74988L323.80109,655.74988L323.80109,654.54975
				L323.32103,654.54975L323.32103,652.86957L322.60094,652.86957L322.60094,651.66944L322.12088,651.66944L322.12088,650.46932
				L321.64082,650.46932L321.64082,649.50921L320.92073,649.50921L320.92073,648.30908L320.44067,648.30908L320.44067,647.10896
				L319.9606,647.10896L319.9606,645.90883L319.24051,645.90883L319.24051,644.94873L318.76045,644.94873L318.76045,643.7486L318.04036,643.7486
				L318.04036,642.06842L317.5603,642.06842L317.5603,640.86829L317.08024,640.86829L317.08024,639.66816L316.36015,639.66816L316.36015,638.70806
				L315.88009,638.70806L315.88009,637.50793L315.40003,637.50793L315.40003,636.30781L314.67993,636.30781L314.67993,635.10768
				L314.19987,635.10768L314.19987,634.14758L313.47978,634.14758L313.47978,632.94745L312.99972,632.94745L312.99972,631.26727
				L312.51966,631.26727L312.51966,630.06714L311.79957,630.06714L311.79957,628.86701L311.31951,628.86701L311.31951,627.66689
				L310.83945,627.66689L310.83945,626.70678L310.11936,626.70678L310.11936,625.50666L309.63929,625.50666L309.63929,624.30653
				L308.9192,624.30653L308.9192,623.1064L308.43914,623.1064L308.43914,621.42622L307.95908,621.42622L307.95908,620.46612L307.23899,620.46612
				L307.23899,619.26599L306.75893,619.26599L306.75893,618.06586L306.03884,618.06586L306.03884,616.86573L305.55878,616.86573
				L305.55878,615.90563L305.07872,615.90563L305.07872,614.7055L304.35862,614.7055L304.35862,613.50538L303.87856,613.50538L303.87856,611.8252
				L303.3985,611.8252L303.3985,610.62507L302.67841,610.62507L302.67841,609.42494L302.19835,609.42494L302.19835,608.46484L301.47826,608.46484
				L301.47826,607.26471L300.9982,607.26471L300.9982,605.58453L300.51814,605.58453L300.51814,604.3844L299.79805,604.3844L299.79805,603.18428
				L299.31798,603.18428L299.31798,602.22417L298.83792,602.22417L298.83792,601.02405L298.11783,601.02405L298.11783,599.34387
				L297.63777,599.34387L297.63777,598.14374L296.91768,598.14374L296.91768,596.94361L296.43762,596.94361L296.43762,595.74348
				L295.95756,595.74348L295.95756,594.78338L295.23747,594.78338L295.23747,593.1032L294.75741,593.1032L294.75741,591.90307L294.27735,591.90307
				L294.27735,590.70295L293.55725,590.70295L293.55725,589.50282L293.07719,589.50282L293.07719,588.54272L292.3571,588.54272L
				292.3571,586.62251L291.87704,586.62251L291.87704,585.66241L291.39698,585.66241L291.39698,584.46228L290.67689,584.46228L290.67689,583.26215
				L290.19683,583.26215L290.19683,582.06203L289.71677,582.06203L289.71677,580.38185L288.99668,580.38185L288.99668,579.18172
				L288.51661,579.18172L288.51661,578.22162L287.79652,578.22162L287.79652,577.02149L287.31646,577.02149L287.31646,575.82136
				L286.8364,575.82136L286.8364,574.14118L286.11631,574.14118L286.11631,572.94105L285.63625,572.94105L285.63625,571.98095L285.15619,571.98095
				L285.15619,570.78082L284.4361,570.78082L284.4361,569.5807L283.95604,569.5807L283.95604,567.90052L283.23594,567.90052L283.23594,566.70039
				L282.75588,566.70039L282.75588,565.50026L282.27582,565.50026L282.27582,564.54016L281.55573,564.54016L281.55573,563.34003
				L281.07567,563.34003L281.07567,561.65985L280.59561,561.65985L280.59561,560.45972L279.87552,560.45972L279.87552,559.2596L
				279.39546,559.2596L279.39546,558.29949L278.67537,558.29949L278.67537,557.09937L278.1953,557.09937L278.1953,555.41919L277.71524,555.41919
				L277.71524,554.21906L276.99515,554.21906L276.99515,553.01893L276.51509,553.01893L276.51509,551.8188L276.03503,551.8188L276.03503,550.8587
				L275.31494,550.8587L275.31494,549.17852L274.83488,549.17852L274.83488,547.97839L274.11479,547.97839L274.11479,546.77827L
				273.63473,546.77827L273.63473,545.57814L273.15466,545.57814L273.15466,543.89796L272.43457,543.89796L272.43457,542.69783L
				271.95451,542.69783L271.95451,541.73773L271.47445,541.73773L271.47445,540.5376L270.75436,540.5376L270.75436,539.33747L270.2743,539.33747
				L270.2743,538.13734L269.55421,538.13734L269.55421,536.45717L269.07415,536.45717L269.07415,535.49706L268.59409,535.49706L
				268.59409,534.29694L267.87399,534.29694L267.87399,533.09681L267.39393,533.09681L267.39393,531.89668L266.91387,531.89668L
				266.91387,530.93658L266.19378,530.93658L266.19378,529.73645L265.71372,529.73645L265.71372,528.53632L264.99363,528.53632L
				264.99363,526.85614L264.51357,526.85614L264.51357,525.65601L264.03351,525.65601L264.03351,524.45589L263.31342,524.45589L
				263.31342,523.49578L262.83335,523.49578L262.83335,522.29566L262.35329,522.29566L262.35329,521.09553L261.6332,521.09553L261.6332,519.8954
				L261.15314,519.8954L261.15314,518.21522L260.43305,518.21522L260.43305,517.01509L259.95299,517.01509L259.95299,516.05499L
				259.47293,516.05499L259.47293,514.85486L258.75284,514.85486L258.75284,513.65474L258.27278,513.65474L258.27278,512.45461L
				257.79272,512.45461L257.79272,511.49451L257.07262,511.49451L257.07262,509.81433L256.59256,509.81433L256.59256,508.6142L255.87247,508.6142
				L255.87247,507.41407L255.39241,507.41407L255.39241,506.21394L254.91235,506.21394L254.91235,505.25384L254.19226,505.25384
				L254.19226,504.05371L253.7122,504.05371L253.7122,502.85359L253.23214,502.85359L253.23214,501.65346L252.51205,501.65346L252.51205,499.97328
				L252.03198,499.97328L252.03198,498.77315L251.31189,498.77315L251.31189,497.81305L250.83183,497.81305L250.83183,496.61292
				L250.35177,496.61292L250.35177,495.41279"/>
		</g>
</g></svg>