<?xml version="1.0" encoding="utf-8" standalone="no"?>
<!-- Creator: ESRI ArcMap 10.0.0.2414 -->
<!DOCTYPE svg PUBLIC "-//W3C//DTD SVG 1.1//EN"  "http://www.w3.org/Graphics/SVG/1.1/DTD/svg11.dtd">
<svg width="595.50236pt" height="595.50236pt" viewBox="25 148.377955 545.50236 545.50236" enable-background="new 25 148.377955 545.50236 545.50236"
	version="1.1" xmlns="http://www.w3.org/2000/svg" xmlns:xlink="http://www.w3.org/1999/xlink" >
	<g id="Couches">
		<g id="cont_1">
			<clipPath id="SVG_CP_2">
				<path d="M574.39289,21.36228L21.36271,21.36228L21.36271,821.36753L574.39289,821.36753L574.39289,21.36228z"/>
			</clipPath>
			<path clip-path="url(#SVG_CP_2)" fill="none" stroke="#999999" stroke-width="0.96012" stroke-miterlimit="10" stroke-linecap="round" stroke-linejoin="round" d="
				M314.19987,199.22123L310.11936,199.22123L310.11936,198.74118L314.19987,198.74118L314.19987,199.22123"/>
			<path clip-path="url(#SVG_CP_2)" fill="none" stroke="#999999" stroke-width="0.96012" stroke-miterlimit="10" stroke-linecap="round" stroke-linejoin="round" d="
				M301.71829,207.62212L301.71829,207.14207L301.95832,207.14207L301.95832,207.62212L301.71829,207.62212"/>
			<path clip-path="url(#SVG_CP_2)" fill="none" stroke="#999999" stroke-width="0.96012" stroke-miterlimit="10" stroke-linecap="round" stroke-linejoin="round" d="
				M301.23823,208.10218L301.23823,207.62212L301.71829,207.62212L301.71829,208.10218L301.23823,208.10218"/>
			<path clip-path="url(#SVG_CP_2)" fill="none" stroke="#999999" stroke-width="0.96012" stroke-miterlimit="10" stroke-linecap="round" stroke-linejoin="round" d="
				M300.75817,208.3422L300.75817,208.10218L301.23823,208.10218L301.23823,208.3422L300.75817,208.3422"/>
			<path clip-path="url(#SVG_CP_2)" fill="none" stroke="#999999" stroke-width="0.96012" stroke-miterlimit="10" stroke-linecap="round" stroke-linejoin="round" d="
				M300.27811,208.82225L300.27811,208.3422L300.75817,208.3422L300.75817,208.82225L300.27811,208.82225"/>
			<path clip-path="url(#SVG_CP_2)" fill="none" stroke="#999999" stroke-width="0.96012" stroke-miterlimit="10" stroke-linecap="round" stroke-linejoin="round" d="
				M300.03808,209.3023L300.03808,208.82225L300.27811,208.82225L300.27811,209.3023L300.03808,209.3023"/>
			<path clip-path="url(#SVG_CP_2)" fill="none" stroke="#999999" stroke-width="0.96012" stroke-miterlimit="10" stroke-linecap="round" stroke-linejoin="round" d="
				M299.55802,209.78236L299.55802,209.3023L300.03808,209.3023L300.03808,209.78236L299.55802,209.78236"/>
			<path clip-path="url(#SVG_CP_2)" fill="none" stroke="#999999" stroke-width="0.96012" stroke-miterlimit="10" stroke-linecap="round" stroke-linejoin="round" d="
				M299.07795,210.02238L299.07795,209.78236L299.55802,209.78236L299.55802,210.02238L299.07795,210.02238"/>
			<path clip-path="url(#SVG_CP_2)" fill="none" stroke="#999999" stroke-width="0.96012" stroke-miterlimit="10" stroke-linecap="round" stroke-linejoin="round" d="
				M298.59789,210.50243L298.59789,210.02238L299.07795,210.02238L299.07795,210.50243L298.59789,210.50243"/>
			<path clip-path="url(#SVG_CP_2)" fill="none" stroke="#999999" stroke-width="0.96012" stroke-miterlimit="10" stroke-linecap="round" stroke-linejoin="round" d="
				M298.35786,210.98248L298.35786,210.50243L298.59789,210.50243L298.59789,210.98248L298.35786,210.98248"/>
			<path clip-path="url(#SVG_CP_2)" fill="none" stroke="#999999" stroke-width="0.96012" stroke-miterlimit="10" stroke-linecap="round" stroke-linejoin="round" d="
				M297.8778,211.46253L297.8778,210.98248L298.35786,210.98248L298.35786,211.46253L297.8778,211.46253"/>
			<path clip-path="url(#SVG_CP_2)" fill="none" stroke="#999999" stroke-width="0.96012" stroke-miterlimit="10" stroke-linecap="round" stroke-linejoin="round" d="
				M297.39774,211.70256L297.39774,211.46253L297.8778,211.46253L297.8778,211.70256L297.39774,211.70256"/>
			<path clip-path="url(#SVG_CP_2)" fill="none" stroke="#999999" stroke-width="0.96012" stroke-miterlimit="10" stroke-linecap="round" stroke-linejoin="round" d="
				M296.91768,212.18261L296.91768,211.70256L297.39774,211.70256L297.39774,212.18261L296.91768,212.18261"/>
			<path clip-path="url(#SVG_CP_2)" fill="none" stroke="#999999" stroke-width="0.96012" stroke-miterlimit="10" stroke-linecap="round" stroke-linejoin="round" d="
				M296.67765,212.66266L296.67765,212.18261L296.91768,212.18261L296.91768,212.66266L296.67765,212.66266"/>
			<path clip-path="url(#SVG_CP_2)" fill="none" stroke="#999999" stroke-width="0.96012" stroke-miterlimit="10" stroke-linecap="round" stroke-linejoin="round" d="
				M296.19759,213.14271L296.19759,212.66266L296.67765,212.66266L296.67765,213.14271L296.19759,213.14271"/>
			<path clip-path="url(#SVG_CP_2)" fill="none" stroke="#999999" stroke-width="0.96012" stroke-miterlimit="10" stroke-linecap="round" stroke-linejoin="round" d="
				M295.71753,213.38274L295.71753,213.14271L296.19759,213.14271L296.19759,213.38274L295.71753,213.38274"/>
			<path clip-path="url(#SVG_CP_2)" fill="none" stroke="#999999" stroke-width="0.96012" stroke-miterlimit="10" stroke-linecap="round" stroke-linejoin="round" d="
				M295.23747,213.86279L295.23747,213.38274L295.71753,213.38274L295.71753,213.86279L295.23747,213.86279"/>
			<path clip-path="url(#SVG_CP_2)" fill="none" stroke="#999999" stroke-width="0.96012" stroke-miterlimit="10" stroke-linecap="round" stroke-linejoin="round" d="
				M294.99744,214.34284L294.99744,213.86279L295.23747,213.86279L295.23747,214.34284L294.99744,214.34284"/>
			<path clip-path="url(#SVG_CP_2)" fill="none" stroke="#999999" stroke-width="0.96012" stroke-miterlimit="10" stroke-linecap="round" stroke-linejoin="round" d="
				M294.99744,214.34284L294.99744,214.82289L294.51738,214.82289L294.51738,214.34284L294.99744,214.34284"/>
			<path clip-path="url(#SVG_CP_2)" fill="none" stroke="#999999" stroke-width="0.96012" stroke-miterlimit="10" stroke-linecap="round" stroke-linejoin="round" d="
				M264.51357,216.02302L264.27354,216.02302L264.27354,215.54297L264.51357,215.54297L264.51357,216.02302"/>
			<path clip-path="url(#SVG_CP_2)" fill="none" stroke="#999999" stroke-width="0.96012" stroke-miterlimit="10" stroke-linecap="round" stroke-linejoin="round" d="
				M267.63396,216.50307L266.67384,216.50307L266.67384,216.02302L267.63396,216.02302L267.63396,216.50307"/>
			<path clip-path="url(#SVG_CP_2)" fill="none" stroke="#999999" stroke-width="0.96012" stroke-miterlimit="10" stroke-linecap="round" stroke-linejoin="round" d="
				M269.31418,216.7431L268.83412,216.7431L268.83412,216.50307L269.31418,216.50307L269.31418,216.7431"/>
			<path clip-path="url(#SVG_CP_2)" fill="none" stroke="#999999" stroke-width="0.96012" stroke-miterlimit="10" stroke-linecap="round" stroke-linejoin="round" d="
				M259.47293,218.18325L259.47293,217.22315L259.95299,217.22315L259.95299,216.7431L260.43305,216.7431L260.43305,216.50307L260.91311,216.50307
				L260.91311,215.54297L261.15314,215.54297L261.15314,215.06292L262.11326,215.06292L262.11326,216.02302L261.6332,216.02302L
				261.6332,216.50307L261.15314,216.50307L261.15314,216.7431L260.91311,216.7431L260.91311,217.22315L260.43305,217.22315L260.43305,217.7032
				L259.95299,217.7032L259.95299,218.18325L259.47293,218.18325"/>
			<path clip-path="url(#SVG_CP_2)" fill="none" stroke="#999999" stroke-width="0.96012" stroke-miterlimit="10" stroke-linecap="round" stroke-linejoin="round" d="
				M259.2329,218.42328L259.2329,218.18325L259.47293,218.18325L259.47293,218.42328L259.2329,218.42328"/>
			<path clip-path="url(#SVG_CP_2)" fill="none" stroke="#999999" stroke-width="0.96012" stroke-miterlimit="10" stroke-linecap="round" stroke-linejoin="round" d="
				M258.75284,218.90333L258.75284,218.42328L259.2329,218.42328L259.2329,218.90333L258.75284,218.90333"/>
			<path clip-path="url(#SVG_CP_2)" fill="none" stroke="#999999" stroke-width="0.96012" stroke-miterlimit="10" stroke-linecap="round" stroke-linejoin="round" d="
				M258.27278,219.38338L258.27278,218.90333L258.75284,218.90333L258.75284,219.38338L258.27278,219.38338"/>
			<path clip-path="url(#SVG_CP_2)" fill="none" stroke="#999999" stroke-width="0.96012" stroke-miterlimit="10" stroke-linecap="round" stroke-linejoin="round" d="
				M274.59485,219.38338L274.35482,219.38338L274.35482,218.90333L274.59485,218.90333L274.59485,219.38338"/>
			<path clip-path="url(#SVG_CP_2)" fill="none" stroke="#999999" stroke-width="0.96012" stroke-miterlimit="10" stroke-linecap="round" stroke-linejoin="round" d="
				M258.27278,219.38338L258.27278,219.86343L257.79272,219.86343L257.79272,219.38338L258.27278,219.38338"/>
			<path clip-path="url(#SVG_CP_2)" fill="none" stroke="#999999" stroke-width="0.96012" stroke-miterlimit="10" stroke-linecap="round" stroke-linejoin="round" d="
				M274.59485,219.38338L275.55497,219.38338L275.55497,219.86343L276.27506,219.86343L276.27506,220.10345L276.75512,220.10345
				L276.75512,220.58351L276.03503,220.58351L276.03503,221.06356L275.55497,221.06356L275.55497,220.58351L275.07491,220.58351
				L275.07491,220.10345L274.59485,220.10345L274.59485,219.38338"/>
			<path clip-path="url(#SVG_CP_2)" fill="none" stroke="#999999" stroke-width="0.96012" stroke-miterlimit="10" stroke-linecap="round" stroke-linejoin="round" d="
				M281.79576,222.74374L281.55573,222.74374L281.55573,222.26369L281.79576,222.26369L281.79576,222.74374"/>
			<path clip-path="url(#SVG_CP_2)" fill="none" stroke="#999999" stroke-width="0.96012" stroke-miterlimit="10" stroke-linecap="round" stroke-linejoin="round" d="
				M286.59637,223.22379L285.15619,223.22379L285.15619,222.74374L286.59637,222.74374L286.59637,223.22379"/>
			<path clip-path="url(#SVG_CP_2)" fill="none" stroke="#999999" stroke-width="0.96012" stroke-miterlimit="10" stroke-linecap="round" stroke-linejoin="round" d="
				M254.19226,223.94386L254.19226,223.46381L254.43229,223.46381L254.43229,223.94386L254.19226,223.94386"/>
			<path clip-path="url(#SVG_CP_2)" fill="none" stroke="#999999" stroke-width="0.96012" stroke-miterlimit="10" stroke-linecap="round" stroke-linejoin="round" d="
				M254.19226,223.94386L254.19226,224.42392L253.7122,224.42392L253.7122,223.94386L254.19226,223.94386"/>
			<path clip-path="url(#SVG_CP_2)" fill="none" stroke="#999999" stroke-width="0.96012" stroke-miterlimit="10" stroke-linecap="round" stroke-linejoin="round" d="
				M249.87171,228.74438L249.87171,228.26432L250.35177,228.26432L250.35177,228.74438L249.87171,228.74438"/>
			<path clip-path="url(#SVG_CP_2)" fill="none" stroke="#999999" stroke-width="0.96012" stroke-miterlimit="10" stroke-linecap="round" stroke-linejoin="round" d="
				M249.39165,228.9844L249.39165,228.74438L249.87171,228.74438L249.87171,228.9844L249.39165,228.9844"/>
			<path clip-path="url(#SVG_CP_2)" fill="none" stroke="#999999" stroke-width="0.96012" stroke-miterlimit="10" stroke-linecap="round" stroke-linejoin="round" d="
				M249.39165,228.9844L249.39165,229.46445L249.15162,229.46445L249.15162,228.9844L249.39165,228.9844"/>
			<path clip-path="url(#SVG_CP_2)" fill="none" stroke="#999999" stroke-width="0.96012" stroke-miterlimit="10" stroke-linecap="round" stroke-linejoin="round" d="
				M245.79119,233.30486L245.79119,232.82481L246.03122,232.82481L246.03122,233.30486L245.79119,233.30486"/>
			<path clip-path="url(#SVG_CP_2)" fill="none" stroke="#999999" stroke-width="0.96012" stroke-miterlimit="10" stroke-linecap="round" stroke-linejoin="round" d="
				M245.31113,233.78491L245.31113,233.30486L245.79119,233.30486L245.79119,233.78491L245.31113,233.78491"/>
			<path clip-path="url(#SVG_CP_2)" fill="none" stroke="#999999" stroke-width="0.96012" stroke-miterlimit="10" stroke-linecap="round" stroke-linejoin="round" d="
				M245.31113,233.78491L245.31113,234.02494L244.83107,234.02494L244.83107,233.78491L245.31113,233.78491"/>
			<path clip-path="url(#SVG_CP_2)" fill="none" stroke="#999999" stroke-width="0.96012" stroke-miterlimit="10" stroke-linecap="round" stroke-linejoin="round" d="
				M241.47064,237.86535L241.47064,237.3853L241.9507,237.3853L241.9507,237.86535L241.47064,237.86535"/>
			<path clip-path="url(#SVG_CP_2)" fill="none" stroke="#999999" stroke-width="0.96012" stroke-miterlimit="10" stroke-linecap="round" stroke-linejoin="round" d="
				M240.99058,238.3454L240.99058,237.86535L241.47064,237.86535L241.47064,238.3454L240.99058,238.3454"/>
			<path clip-path="url(#SVG_CP_2)" fill="none" stroke="#999999" stroke-width="0.96012" stroke-miterlimit="10" stroke-linecap="round" stroke-linejoin="round" d="
				M240.99058,238.3454L240.99058,238.82545L240.75055,238.82545L240.75055,238.3454L240.99058,238.3454"/>
			<path clip-path="url(#SVG_CP_2)" fill="none" stroke="#999999" stroke-width="0.96012" stroke-miterlimit="10" stroke-linecap="round" stroke-linejoin="round" d="
				M237.1501,242.42583L237.1501,242.18581L237.63016,242.18581L237.63016,242.42583L237.1501,242.42583"/>
			<path clip-path="url(#SVG_CP_2)" fill="none" stroke="#999999" stroke-width="0.96012" stroke-miterlimit="10" stroke-linecap="round" stroke-linejoin="round" d="
				M236.91007,242.90588L236.91007,242.42583L237.1501,242.42583L237.1501,242.90588L236.91007,242.90588"/>
			<path clip-path="url(#SVG_CP_2)" fill="none" stroke="#999999" stroke-width="0.96012" stroke-miterlimit="10" stroke-linecap="round" stroke-linejoin="round" d="
				M236.43,243.38594L236.43,242.90588L236.91007,242.90588L236.91007,243.38594L236.43,243.38594"/>
			<path clip-path="url(#SVG_CP_2)" fill="none" stroke="#999999" stroke-width="0.96012" stroke-miterlimit="10" stroke-linecap="round" stroke-linejoin="round" d="
				M236.43,243.38594L236.43,243.86599L235.94994,243.86599L235.94994,243.38594L236.43,243.38594"/>
			<path clip-path="url(#SVG_CP_2)" fill="none" stroke="#999999" stroke-width="0.96012" stroke-miterlimit="10" stroke-linecap="round" stroke-linejoin="round" d="
				M329.32179,270.74885L329.08176,270.74885L329.08176,270.2688L329.32179,270.2688L329.32179,270.74885"/>
			<path clip-path="url(#SVG_CP_2)" fill="none" stroke="#999999" stroke-width="0.96012" stroke-miterlimit="10" stroke-linecap="round" stroke-linejoin="round" d="
				M328.6017,271.2289L328.12164,271.2289L328.12164,270.74885L328.6017,270.74885L328.6017,271.2289"/>
			<path clip-path="url(#SVG_CP_2)" fill="none" stroke="#999999" stroke-width="0.96012" stroke-miterlimit="10" stroke-linecap="round" stroke-linejoin="round" d="
				M345.88389,347.31701L345.40383,347.31701L345.40383,347.79706L344.92377,347.79706L344.92377,348.03709L344.44371,348.03709
				L344.44371,348.51714L344.20368,348.51714L344.20368,348.99719L343.72362,348.99719L343.72362,349.47724L343.24356,349.47724
				L343.24356,349.71727L342.7635,349.71727L342.7635,350.19732L342.52347,350.19732L342.52347,350.67737L342.04341,350.67737L342.04341,351.15742
				L341.56335,351.15742L341.56335,351.39745L341.08328,351.39745L341.08328,351.8775L340.84325,351.8775L340.84325,352.35755L340.36319,352.35755
				L340.36319,352.8376L339.88313,352.8376L339.88313,353.07762L339.40307,353.07762L339.40307,353.55768L339.16304,353.55768L339.16304,354.03773
				L338.68298,354.03773L338.68298,354.51778L338.20292,354.51778L338.20292,354.7578L337.72286,354.7578L337.72286,358.59821L337.48283,358.59821
				L337.48283,371.31957L337.00277,371.31957L337.00277,371.55959L336.52271,371.55959L336.52271,372.03965L336.04265,372.03965
				L336.04265,372.5197L335.80261,372.5197L335.80261,372.99975L335.32255,372.99975L335.32255,373.23977L334.84249,373.23977L334.84249,373.71982
				L334.36243,373.71982L334.36243,374.19988L334.1224,374.19988L334.1224,374.67993L333.64234,374.67993L333.64234,374.91995L333.16228,374.91995
				L333.16228,375.4L332.68222,375.4L332.68222,375.88005L332.44219,375.88005L332.44219,376.36011L331.96213,376.36011L331.96213,376.60013
				L331.48207,376.60013L331.48207,377.08018L331.00201,377.08018L331.00201,377.56023L330.76198,377.56023L330.76198,378.04028
				L330.28191,378.04028L330.28191,378.28031L329.80185,378.28031L329.80185,378.76036L329.32179,378.76036L329.32179,379.24041
				L329.08176,379.24041L329.08176,379.72046L328.6017,379.72046L328.6017,380.20051L328.12164,380.20051L328.12164,380.44054L327.64158,380.44054
				L327.64158,380.92059L327.40155,380.92059L327.40155,381.40064L326.92149,381.40064L326.92149,381.88069L326.44143,381.88069
				L326.44143,382.12072L325.96137,382.12072L325.96137,382.60077L325.72134,382.60077L325.72134,383.08082L325.24127,383.08082
				L325.24127,383.8009L324.76121,383.8009L324.76121,384.28095L324.28115,384.28095L324.28115,384.761L324.04112,384.761L324.04112,385.24105
				L323.56106,385.24105L323.56106,385.48108L323.081,385.48108L323.081,385.96113L322.60094,385.96113L322.60094,386.44118L322.36091,386.44118
				L322.36091,386.92123L321.88085,386.92123L321.88085,387.16126L321.40079,387.16126L321.40079,387.64131L320.92073,387.64131
				L320.92073,388.12136L320.6807,388.12136L320.6807,388.60141L320.20063,388.60141L320.20063,388.84144L319.72057,388.84144L319.72057,389.32149
				L319.24051,389.32149L319.24051,389.80154L319.00048,389.80154L319.00048,390.28159L318.52042,390.28159L318.52042,390.52161
				L318.04036,390.52161L318.04036,391.00167L317.5603,391.00167L317.5603,391.48172L317.32027,391.48172L317.32027,391.96177L316.84021,391.96177
				L316.84021,392.20179L316.36015,392.20179L316.36015,392.68185L315.88009,392.68185L315.88009,393.1619L315.40003,393.1619L315.40003,409.48364
				L315.16,409.48364L315.16,409.96369L314.67993,409.96369L314.67993,410.44374L314.19987,410.44374L314.19987,416.20435L313.71981,416.20435
				L313.71981,426.28543L313.47978,426.28543L313.47978,434.4463L312.99972,434.4463L312.99972,434.68632L312.51966,434.68632L312.51966,435.64642
				L312.0396,435.64642L312.0396,436.12647L311.79957,436.12647L311.79957,436.3665L311.31951,436.3665L311.31951,436.84655L310.83945,436.84655
				L310.83945,437.3266L310.35939,437.3266L310.35939,437.80665L310.11936,437.80665L310.11936,438.04668L309.63929,438.04668L309.63929,438.52673
				L309.15923,438.52673L309.15923,439.00678L308.67917,439.00678L308.67917,439.48683L308.43914,439.48683L308.43914,439.72686
				L307.95908,439.72686L307.95908,440.20691L307.47902,440.20691L307.47902,440.68696L306.99896,440.68696L306.99896,441.16701
				L306.75893,441.16701L306.75893,441.40704L306.27887,441.40704L306.27887,441.88709L305.79881,441.88709L305.79881,442.36714
				L305.31875,442.36714L305.31875,442.84719L305.07872,442.84719L305.07872,443.08722L304.59865,443.08722L304.59865,443.56727
				L304.11859,443.56727L304.11859,444.04732L303.63853,444.04732L303.63853,444.52737L303.3985,444.52737L303.3985,444.7674L302.91844,444.7674
				L302.91844,445.24745L302.43838,445.24745L302.43838,445.7275L301.95832,445.7275L301.95832,446.44757L301.71829,446.44757L301.71829,446.92763
				L301.23823,446.92763L301.23823,447.40768L300.75817,447.40768L300.75817,447.88773L300.27811,447.88773L300.27811,448.12775
				L300.03808,448.12775L300.03808,448.6078L299.55802,448.6078L299.55802,449.08786L299.07795,449.08786L299.07795,449.56791L298.59789,449.56791
				L298.59789,449.80793L298.35786,449.80793L298.35786,450.28798L297.8778,450.28798L297.8778,450.76803L297.39774,450.76803L297.39774,451.24809
				L296.91768,451.24809L296.91768,451.48811L296.67765,451.48811L296.67765,451.96816L296.19759,451.96816L296.19759,452.44821
				L295.71753,452.44821L295.71753,452.92826L295.23747,452.92826L295.23747,453.16829L294.99744,453.16829L294.99744,453.64834
				L294.51738,453.64834L294.51738,454.12839L294.03731,454.12839L294.03731,454.60844L293.55725,454.60844L293.55725,454.84847
				L293.31722,454.84847L293.31722,455.32852L292.83716,455.32852L292.83716,455.80857L292.3571,455.80857L292.3571,456.28862L291.87704,456.28862
				L291.87704,456.52865L291.63701,456.52865L291.63701,457.0087L291.15695,457.0087L291.15695,457.48875L290.67689,457.48875L290.67689,457.9688
				L290.19683,457.9688L290.19683,458.44885L289.9568,458.44885L289.9568,458.68888L289.47674,458.68888L289.47674,459.16893L288.99668,459.16893
				L288.99668,459.64898L288.51661,459.64898L288.51661,460.12903L288.27658,460.12903L288.27658,460.36906L287.79652,460.36906
				L287.79652,460.84911L287.31646,460.84911L287.31646,461.32916L286.8364,461.32916L286.8364,461.80921L286.59637,461.80921L286.59637,462.04924
				L286.11631,462.04924L286.11631,462.52929L285.63625,462.52929L285.63625,463.00934L285.15619,463.00934L285.15619,463.48939
				L284.91616,463.48939L284.91616,463.72942L284.4361,463.72942L284.4361,464.20947L283.95604,464.20947L283.95604,464.68952L283.47597,464.68952
				L283.47597,465.16957L283.23594,465.16957L283.23594,465.40959L282.75588,465.40959L282.75588,465.88965L282.27582,465.88965
				L282.27582,466.3697L281.79576,466.3697L281.79576,466.84975L281.55573,466.84975L281.55573,467.08977L281.07567,467.08977L281.07567,467.56983
				L280.59561,467.56983L280.59561,468.04988L280.11555,468.04988L280.11555,468.52993L279.87552,468.52993L279.87552,468.76995
				L279.39546,468.76995L279.39546,469.25L278.9154,469.25L278.9154,469.73006L278.43533,469.73006L278.43533,470.21011L278.1953,470.21011
				L278.1953,470.45013L277.71524,470.45013L277.71524,470.93018L277.23518,470.93018L277.23518,471.41023L276.75512,471.41023L
				276.75512,471.89029L276.27506,471.89029L276.27506,472.13031L276.03503,472.13031L276.03503,472.61036L275.55497,472.61036L
				275.55497,473.09041L275.07491,473.09041L275.07491,473.57046L274.59485,473.57046L274.59485,473.81049L274.35482,473.81049L
				274.35482,474.29054L273.87476,474.29054L273.87476,474.77059L273.3947,474.77059L273.3947,475.25064L272.91463,475.25064L272.91463,475.49067
				L272.6746,475.49067L272.6746,475.97072L272.19454,475.97072L272.19454,476.45077L271.71448,476.45077L271.71448,476.93082L271.23442,476.93082
				L271.23442,477.17085L270.99439,477.17085L270.99439,477.6509L270.51433,477.6509L270.51433,478.13095L270.03427,478.13095L270.03427,478.611
				L269.55421,478.611L269.55421,478.85103L269.31418,478.85103L269.31418,479.33108L268.83412,479.33108L268.83412,479.81113L268.35406,479.81113
				L268.35406,480.29118L267.87399,480.29118L267.87399,480.53121L267.63396,480.53121L267.63396,481.01126L267.1539,481.01126L
				267.1539,481.49131L266.67384,481.49131L266.67384,481.97136L266.19378,481.97136L266.19378,482.21139L265.95375,482.21139L265.95375,482.69144
				L265.47369,482.69144L265.47369,483.17149L264.99363,483.17149L264.99363,483.65154L264.51357,483.65154L264.51357,483.89156
				L264.27354,483.89156L264.27354,484.37162L263.79348,484.37162L263.79348,484.85167L263.31342,484.85167L263.31342,485.33172
				L262.83335,485.33172L262.83335,485.57174L262.59332,485.57174L262.59332,486.05179L262.11326,486.05179L262.11326,486.53185
				L261.6332,486.53185L261.6332,487.0119L261.15314,487.0119L261.15314,487.25192L260.91311,487.25192L260.91311,487.73197L260.43305,487.73197
				L260.43305,488.21202L259.95299,488.21202L259.95299,488.69208L259.47293,488.69208L259.47293,488.9321L259.2329,488.9321L259.2329,489.41215
				L258.75284,489.41215L258.75284,489.8922L258.27278,489.8922L258.27278,490.37225L257.79272,490.37225L257.79272,490.61228L257.55268,490.61228
				L257.55268,491.09233L257.07262,491.09233L257.07262,491.57238L256.59256,491.57238L256.59256,492.05243L256.1125,492.05243L
				256.1125,492.29246L255.87247,492.29246L255.87247,492.77251L255.39241,492.77251L255.39241,493.25256L254.91235,493.25256L254.91235,493.73261
				L254.43229,493.73261L254.43229,493.97264L254.19226,493.97264L254.19226,494.45269L253.7122,494.45269L253.7122,494.93274L253.23214,494.93274
				L253.23214,495.41279L252.75208,495.41279L252.75208,495.89284L252.51205,495.89284L252.51205,496.13287L252.03198,496.13287
				L252.03198,496.61292L251.55192,496.61292L251.55192,497.09297L251.07186,497.09297L251.07186,497.57302L250.83183,497.57302
				L250.83183,497.81305L250.35177,497.81305L250.35177,498.2931L249.87171,498.2931L249.87171,498.77315L249.39165,498.77315L249.39165,499.2532
				L247.71144,499.2532L247.71144,498.77315L246.03122,498.77315L246.03122,498.2931L244.35101,498.2931L244.35101,497.81305L242.6708,497.81305
				L242.6708,497.57302L241.47064,497.57302L241.47064,497.09297L240.27049,497.09297L240.27049,496.61292L239.31037,496.61292L
				239.31037,496.13287L238.59028,496.13287L238.59028,495.89284L235.22985,495.89284L235.22985,495.41279L230.9093,495.41279L230.9093,495.89284
				L228.74903,495.89284L228.74903,496.13287L226.82879,496.13287L226.82879,496.61292L224.18845,496.61292L224.18845,497.09297
				L222.50824,497.09297L222.50824,497.57302L220.34796,497.57302L220.34796,497.81305L218.66775,497.81305L218.66775,498.2931L
				216.98754,498.2931L216.98754,498.77315L215.06729,498.77315L215.06729,499.2532L213.38708,499.2532L213.38708,499.49323L211.70687,499.49323
				L211.70687,499.97328L210.02665,499.97328L210.02665,500.45333L208.34644,500.45333L208.34644,500.93338L206.18617,500.93338
				L206.18617,501.17341L204.50595,501.17341L204.50595,501.65346L202.82574,501.65346L202.82574,502.13351L201.62559,502.13351
				L201.62559,502.61356L200.1854,502.61356L200.1854,502.85359L198.50519,502.85359L198.50519,503.33364L197.30504,503.33364L197.30504,503.81369
				L196.10489,503.81369L196.10489,504.29374L194.6647,504.29374L194.6647,504.53376L193.46455,504.53376L193.46455,505.01382L192.2644,505.01382
				L192.2644,505.49387L190.58419,505.49387L190.58419,505.97392L189.38403,505.97392L189.38403,506.21394L187.94385,506.21394L
				187.94385,506.69399L186.7437,506.69399L186.7437,507.17405L185.06349,507.17405L185.06349,507.6541L183.38327,507.6541L183.38327,507.89412
				L181.70306,507.89412L181.70306,508.37417L180.02285,508.37417L180.02285,508.85422L178.34263,508.85422L178.34263,509.33428
				L175.94233,509.33428L175.94233,509.5743L173.30199,509.5743L173.30199,510.05435L170.42163,510.05435L170.42163,510.5344L153.6195,510.5344
				L153.6195,511.01445L151.45922,511.01445L151.45922,511.25448L149.29895,511.25448L149.29895,511.73453L148.09879,511.73453L
				148.09879,512.21458L146.89864,512.21458L146.89864,512.69463L145.45846,512.69463L145.45846,512.93466L144.25831,512.93466L
				144.25831,513.41471L143.05815,513.41471L143.05815,513.89476L141.858,513.89476L141.858,514.37481L140.41782,514.37481L140.41782,514.61484
				L139.21767,514.61484L139.21767,515.09489L138.01752,515.09489L138.01752,515.57494L136.81736,515.57494L136.81736,516.05499
				L135.37718,516.05499L135.37718,516.29502L134.17703,516.29502L134.17703,516.77507L132.97688,516.77507L132.97688,517.25512
				L131.77672,517.25512L131.77672,517.73517L130.33654,517.73517L130.33654,517.9752L129.13639,517.9752L129.13639,518.45525L128.4163,518.45525
				L128.4163,518.9353L126.73608,518.9353L126.73608,519.41535L125.05587,519.41535L125.05587,519.65538L123.61569,519.65538L123.61569,520.13543
				L121.93547,520.13543L121.93547,520.61548L116.41477,520.61548L116.41477,521.09553L116.17474,521.09553L116.17474,520.61548
				L113.05435,520.61548L113.05435,520.13543L111.1341,520.13543L111.1341,519.65538L109.45389,519.65538L109.45389,519.41535L107.77368,519.41535
				L107.77368,518.9353L106.09346,518.9353L106.09346,518.45525L104.41325,518.45525L104.41325,517.9752L102.73304,517.9752L102.73304,517.73517
				L101.29285,517.73517L101.29285,517.25512L99.61264,517.25512L99.61264,516.77507L98.41249,516.77507L98.41249,516.29502L96.25222,516.29502
				L96.25222,516.05499L93.85191,516.05499L93.85191,515.57494L91.69164,515.57494L91.69164,515.09489L88.81127,515.09489L88.81127,514.61484
				L85.93091,514.61484L85.93091,514.37481L82.81051,514.37481L82.81051,513.89476L79.93014,513.89476L79.93014,513.41471L77.28981,513.41471
				L77.28981,512.93466L73.68935,512.93466L73.68935,512.69463L64.80822,512.69463L64.80822,512.21458L62.64795,512.21458L62.64795,512.69463
				L57.12725,512.69463L57.12725,512.93466L55.20701,512.93466L55.20701,513.41471L53.52679,513.41471L53.52679,513.89476L52.56667,513.89476
				L52.56667,514.37481L51.36652,514.37481L51.36652,514.61484L50.88646,514.61484L50.88646,515.09489L50.16637,515.09489L50.16637,515.57494
				L49.20624,515.57494L49.20624,516.05499L48.72618,516.05499L48.72618,516.29502L48.00609,516.29502L48.00609,516.77507L47.52603,516.77507
				L47.52603,517.25512L46.80594,517.25512L46.80594,517.73517L45.84582,517.73517L45.84582,517.9752L45.36576,517.9752L45.36576,518.45525
				L44.64567,518.45525L44.64567,518.9353L44.16561,518.9353L44.16561,519.41535L43.20548,519.41535L43.20548,519.65538L42.48539,519.65538
				L42.48539,520.13543L41.52527,520.13543L41.52527,520.61548L40.80518,520.61548L40.80518,521.09553L39.84506,521.09553L39.84506,521.33555
				L38.6449,521.33555L38.6449,521.81561L37.92481,521.81561L37.92481,522.29566L36.48463,522.29566L36.48463,522.77571L35.76454,522.77571
				L35.76454,523.01573L34.80442,523.01573L34.80442,523.49578L33.60426,523.49578L33.60426,523.97584L32.88417,523.97584L32.88417,524.45589
				L31.92405,524.45589L31.92405,524.69591L31.20396,524.69591L31.20396,525.17596L29.76378,525.17596L29.76378,525.65601L29.04369,525.65601
				L29.04369,526.13607L28.08356,526.13607L28.08356,526.37609L27.36347,526.37609L27.36347,526.85614L26.40335,526.85614L26.40335,527.33619
				L25.68326,527.33619L25.68326,527.81625L24.72314,527.81625L24.72314,528.05627L24.48311,528.05627L24.48311,528.53632L24.00305,528.53632
				L24.00305,529.01637L23.52299,529.01637L23.52299,529.49642L22.80289,529.49642L22.80289,529.73645L22.32283,529.73645L22.32283,530.2165
				L21.84277,530.2165L21.84277,530.69655L21.36271,530.69655L21.36271,531.1766L20.64262,531.1766L20.64262,531.41663L20.16256,531.41663
				L20.16256,531.89668L19.6825,531.89668L19.6825,532.37673L18.96241,532.37673L18.96241,532.85678L18.48235,532.85678L18.48235,533.09681
				L17.76225,533.09681L17.76225,533.57686L17.28219,533.57686L17.28219,534.05691L16.32207,534.05691L16.32207,534.53696L16.08204,534.53696
				L16.08204,535.01701L15.60198,535.01701L15.60198,535.25704L14.64186,535.25704L14.64186,535.73709L14.40183,535.73709L14.40183,536.21714
				L13.44171,536.21714L13.44171,536.69719L12.96165,536.69719L12.96165,536.93722L12.72161,536.93722L12.72161,537.41727L12.24155,537.41727
				L12.24155,537.89732L11.28143,537.89732L11.28143,538.37737L11.0414,538.37737L11.0414,538.6174L10.56134,538.6174L10.56134,539.09745
				L10.08128,539.09745L10.08128,539.5775L9.60122,539.5775L9.60122,540.05755L8.88113,540.05755L8.88113,540.29758L8.40107,540.29758
				L8.40107,540.77763L7.92101,540.77763L7.92101,541.25768L7.68098,541.25768L7.68098,541.73773L6.72085,541.73773L6.72085,541.97775
				L6.24079,541.97775L6.24079,542.45781L5.76073,542.45781L5.76073,542.93786L5.5207,542.93786L5.5207,543.41791L5.04064,543.41791
				L5.04064,543.65793L4.56058,543.65793L4.56058,544.13798L4.08052,544.13798L4.08052,544.61804L3.84049,544.61804L3.84049,545.09809
				L3.36043,545.09809L3.36043,545.33811L2.40031,545.33811L2.40031,545.81816L2.16027,545.81816L2.16027,546.29821L1.68021,546.29821
				L1.68021,546.77827L1.20015,546.77827L1.20015,547.01829L0.72009,547.01829L0.72009,547.49834L0.48006,547.49834L0.48006,547.97839
				L0,547.97839L0,548.45844L-0.48006,548.45844L-0.48006,548.69847L-1.20015,548.69847L-1.20015,549.17852L-1.68021,549.17852L
				-1.68021,549.65857L-2.16027,549.65857L-2.16027,550.13862L-2.64034,550.13862L-2.64034,550.37865L-3.36043,550.37865L-3.36043,550.8587
				L-3.84049,550.8587L-3.84049,551.33875L-4.32055,551.33875L-4.32055,551.8188L-5.04064,551.8188L-5.04064,552.05883L-5.5207,552.05883
				L-5.5207,552.53888L-6.00076,552.53888L-6.00076,553.01893L-6.24079,553.01893"/>
			<path clip-path="url(#SVG_CP_2)" fill="none" stroke="#999999" stroke-width="0.96012" stroke-miterlimit="10" stroke-linecap="round" stroke-linejoin="round" d="
				M-6.24079,374.19988L-6.00076,374.19988L-6.00076,374.67993L-5.5207,374.67993L-5.5207,374.91995L-5.04064,374.91995L-5.04064,375.4
				L-4.56058,375.4L-4.56058,375.88005L-4.32055,375.88005L-4.32055,376.36011L-3.84049,376.36011L-3.84049,376.60013L-2.88037,376.60013
				L-2.88037,377.08018L-2.64034,377.08018L-2.64034,377.56023L-2.16027,377.56023L-2.16027,378.04028L-1.68021,378.04028L-1.68021,378.28031
				L-1.20015,378.28031L-1.20015,378.76036L-0.96012,378.76036L-0.96012,379.24041L0,379.24041L0,379.72046L1.20015,379.72046L1.20015,380.20051
				L2.40031,380.20051L2.40031,380.44054L3.84049,380.44054L3.84049,380.92059L5.5207,380.92059L5.5207,381.40064L6.72085,381.40064
				L6.72085,381.88069L7.92101,381.88069L7.92101,382.12072L9.36119,382.12072L9.36119,382.60077L10.56134,382.60077L10.56134,383.08082
				L11.76149,383.08082L11.76149,383.56087L12.96165,383.56087L12.96165,383.8009L14.40183,383.8009L14.40183,384.28095L16.08204,384.28095
				L16.08204,384.761L21.84277,384.761L21.84277,384.28095L22.32283,384.28095L22.32283,383.8009L23.04292,383.8009L23.04292,383.56087
				L23.52299,383.56087L23.52299,383.08082L24.00305,383.08082L24.00305,382.60077L24.48311,382.60077L24.48311,382.12072L24.72314,382.12072
				L24.72314,381.88069L25.2032,381.88069L25.2032,381.40064L25.68326,381.40064L25.68326,380.92059L26.16332,380.92059L26.16332,380.44054
				L26.40335,380.44054L26.40335,380.20051L26.88341,380.20051L26.88341,379.72046L28.56363,379.72046L28.56363,379.24041L34.80442,379.24041
				L34.80442,378.76036L40.80518,378.76036L40.80518,378.28031L41.28524,378.28031L41.28524,377.56023L41.52527,377.56023L41.52527,376.60013
				L42.00533,376.60013L42.00533,375.88005L42.48539,375.88005L42.48539,374.91995L42.96545,374.91995L42.96545,374.19988L43.20548,374.19988
				L43.20548,373.23977L43.68554,373.23977L43.68554,372.5197L44.16561,372.5197L44.16561,371.55959L44.64567,371.55959L44.64567,370.83952
				L44.8857,370.83952L44.8857,370.35947L45.36576,370.35947L45.36576,369.87942L45.84582,369.87942L45.84582,369.63939L46.80594,369.63939
				L46.80594,369.15934L47.04597,369.15934L47.04597,368.67929L48.00609,368.67929L48.00609,368.19924L52.08661,368.19924L52.08661,368.67929
				L57.12725,368.67929L57.12725,369.15934L61.92786,369.15934L61.92786,369.63939L62.64795,369.63939L62.64795,369.87942L63.60807,369.87942
				L63.60807,370.35947L64.32816,370.35947L64.32816,370.83952L65.28829,370.83952L65.28829,371.31957L66.00838,371.31957L66.00838,371.55959
				L71.52908,371.55959L71.52908,371.31957L72.00914,371.31957L72.00914,370.83952L72.24917,370.83952L72.24917,370.35947L72.72923,370.35947
				L72.72923,369.87942L73.20929,369.87942L73.20929,369.63939L73.92938,369.63939L73.92938,369.15934L74.40944,369.15934L74.40944,368.67929
				L74.8895,368.67929L74.8895,368.19924L75.36957,368.19924L75.36957,367.95921L75.6096,367.95921L75.6096,367.47916L76.08966,367.47916
				L76.08966,366.99911L76.56972,366.99911L76.56972,366.51906L77.04978,366.51906L77.04978,366.27903L77.28981,366.27903L77.28981,365.79898
				L77.76987,365.79898L77.76987,365.31893L78.24993,365.31893L78.24993,364.83888L78.72999,364.83888L78.72999,364.59885L78.97002,364.59885
				L78.97002,364.1188L79.93014,364.1188L79.93014,363.63875L80.4102,363.63875L80.4102,363.1587L80.65024,363.1587L80.65024,362.91867
				L81.1303,362.91867L81.1303,362.43862L81.61036,362.43862L81.61036,361.95857L82.09042,361.95857L82.09042,361.47852L82.33045,361.47852
				L82.33045,361.23849L82.81051,361.23849L82.81051,360.75844L83.29057,360.75844L83.29057,360.27839L83.77063,360.27839L83.77063,359.79834
				L84.01066,359.79834L84.01066,359.55832L84.49072,359.55832L84.49072,359.07826L85.45084,359.07826L85.45084,358.59821L85.93091,358.59821
				L85.93091,358.11816L86.17094,358.11816L86.17094,357.87814L86.651,357.87814L86.651,357.39809L87.13106,357.39809L87.13106,356.91803
				L87.61112,356.91803L87.61112,356.43798L87.85115,356.43798L87.85115,356.19796L88.33121,356.19796L88.33121,355.71791L90.97155,355.71791
				L90.97155,355.23785L93.37185,355.23785L93.37185,354.7578L96.01218,354.7578L96.01218,354.51778L97.93243,354.51778L97.93243,354.03773
				L119.05511,354.03773L119.05511,353.55768L119.53517,353.55768L119.53517,352.8376L119.7752,352.8376L119.7752,352.35755L120.25526,352.35755
				L120.25526,351.39745L120.73532,351.39745L120.73532,350.67737L121.21538,350.67737L121.21538,350.19732L121.45541,350.19732
				L121.45541,349.47724L121.93547,349.47724L121.93547,348.51714L122.41554,348.51714L122.41554,348.03709L122.8956,348.03709L
				122.8956,347.31701L123.37566,347.31701L123.37566,346.35691L123.61569,346.35691L123.61569,346.11688L124.09575,346.11688L124.09575,345.15678
				L124.57581,345.15678L124.57581,344.4367L125.05587,344.4367L125.05587,343.95665L125.2959,343.95665L125.2959,342.99655L125.77596,342.99655
				L125.77596,342.75652L126.25602,342.75652L126.25602,341.79642L126.73608,341.79642L126.73608,341.31637L126.97611,341.31637
				L126.97611,341.07635L127.93624,341.07635L127.93624,340.59629L129.13639,340.59629L129.13639,340.11624L130.09651,340.11624
				L130.09651,339.63619L130.8166,339.63619L130.8166,339.15614L131.77672,339.15614L131.77672,338.91612L132.49681,338.91612L132.49681,338.43606
				L133.45694,338.43606L133.45694,337.95601L134.17703,337.95601L134.17703,337.47596L135.13715,337.47596L135.13715,337.23594
				L137.53745,337.23594L137.53745,336.75589L139.69773,336.75589L139.69773,336.27583L142.09803,336.27583L142.09803,335.79578
				L144.25831,335.79578L144.25831,335.55576L146.89864,335.55576L146.89864,335.07571L148.81889,335.07571L148.81889,334.59566
				L151.45922,334.59566L151.45922,334.1156L153.6195,334.1156L153.6195,333.87558L156.0198,333.87558L156.0198,333.39553L159.38023,333.39553
				L159.38023,332.91548L163.70077,332.91548L163.70077,332.43543L167.78129,332.43543L167.78129,332.1954L172.10184,332.1954L172.10184,331.71535
				L176.18236,331.71535L176.18236,330.75525L176.66242,330.75525L176.66242,330.51522L177.14248,330.51522L177.14248,330.03517
				L177.62254,330.03517L177.62254,329.55512L177.86257,329.55512L177.86257,328.83504L178.34263,328.83504L178.34263,328.35499
				L178.82269,328.35499L178.82269,327.87494L179.30275,327.87494L179.30275,327.39489L179.54278,327.39489L179.54278,326.67481
				L180.02285,326.67481L180.02285,326.19476L180.50291,326.19476L180.50291,325.47468L180.98297,325.47468L180.98297,324.51458
				L181.223,324.51458L181.223,323.7945L181.70306,323.7945L181.70306,322.8344L182.18312,322.8344L182.18312,322.11433L182.66318,322.11433
				L182.66318,321.15422L182.90321,321.15422L182.90321,320.43415L183.38327,320.43415L183.38327,319.9541L183.86333,319.9541L183.86333,318.99399
				L184.34339,318.99399L184.34339,318.27392L184.58342,318.27392L184.58342,317.31381L185.06349,317.31381L185.06349,316.59374
				L185.54355,316.59374L185.54355,315.63363L186.02361,315.63363L186.02361,314.91356L186.26364,314.91356L186.26364,313.95346
				L186.7437,313.95346L186.7437,313.23338L187.22376,313.23338L187.22376,312.27328L187.70382,312.27328L187.70382,311.5532L187.94385,311.5532
				L187.94385,311.07315L188.42391,311.07315L188.42391,310.5931L188.90397,310.5931L188.90397,310.35307L189.38403,310.35307L189.38403,309.87302
				L189.62406,309.87302L189.62406,308.91292L190.10413,308.91292L190.10413,308.67289L190.58419,308.67289L190.58419,308.19284
				L191.06425,308.19284L191.06425,307.71279L191.30428,307.71279L191.30428,307.23274L191.78434,307.23274L191.78434,306.99271
				L192.2644,306.99271L192.2644,306.51266L192.74446,306.51266L192.74446,306.03261L192.98449,306.03261L192.98449,305.55256L193.46455,305.55256
				L193.46455,305.31253L193.94461,305.31253L193.94461,304.35243L194.42467,304.35243L194.42467,303.87238L194.6647,303.87238L
				194.6647,303.63236L195.14476,303.63236L195.14476,303.1523L195.62483,303.1523L195.62483,302.67225L196.10489,302.67225L196.10489,302.1922
				L196.34492,302.1922L196.34492,301.71215L196.82498,301.71215L196.82498,301.47213L197.30504,301.47213L197.30504,300.99207L
				197.7851,300.99207L197.7851,300.51202L198.02513,300.51202L198.02513,300.03197L198.50519,300.03197L198.50519,299.3119L198.98525,299.3119
				L198.98525,298.83184L199.46531,298.83184L199.46531,298.35179L199.70534,298.35179L199.70534,298.11177L200.1854,298.11177L
				200.1854,297.63172L200.66547,297.63172L200.66547,297.15167L201.14553,297.15167L201.14553,296.67161L201.62559,296.67161L201.62559,296.43159
				L201.86562,296.43159L201.86562,295.95154L202.34568,295.95154L202.34568,295.47149L202.82574,295.47149L202.82574,294.75141
				L203.3058,294.75141L203.3058,294.27136L203.54583,294.27136L203.54583,293.79131L204.02589,293.79131L204.02589,293.31126L204.50595,293.31126
				L204.50595,293.07123L204.98601,293.07123L204.98601,292.59118L205.22604,292.59118L205.22604,292.11113L205.70611,292.11113
				L205.70611,291.63108L206.18617,291.63108L206.18617,291.39105L206.66623,291.39105L206.66623,290.911L206.90626,290.911L206.90626,289.9509
				L207.38632,289.9509L207.38632,289.71087L207.86638,289.71087L207.86638,289.23082L208.34644,289.23082L208.34644,288.75077L
				208.58647,288.75077L208.58647,288.27072L209.06653,288.27072L209.06653,287.55064L209.54659,287.55064L209.54659,287.07059L
				210.02665,287.07059L210.02665,286.59054L210.26668,286.59054L210.26668,285.87046L210.74674,285.87046L210.74674,285.39041L
				211.22681,285.39041L211.22681,284.67034L211.70687,284.67034L211.70687,284.19028L211.9469,284.19028L211.9469,283.71023L212.42696,283.71023
				L212.42696,282.99016L212.90702,282.99016L212.90702,282.51011L213.38708,282.51011L213.38708,282.03005L213.62711,282.03005
				L213.62711,281.30998L214.10717,281.30998L214.10717,280.82993L214.58723,280.82993L214.58723,280.34987L215.06729,280.34987
				L215.06729,279.6298L215.30732,279.6298L215.30732,279.14975L215.78738,279.14975L215.78738,278.6697L216.26745,278.6697L216.26745,277.94962
				L216.74751,277.94962L216.74751,277.46957L216.98754,277.46957L216.98754,276.98952L217.4676,276.98952L217.4676,276.26944L217.94766,276.26944
				L217.94766,275.78939L218.42772,275.78939L218.42772,275.30934L218.66775,275.30934L218.66775,274.10921L219.14781,274.10921
				L219.14781,271.94898L219.62787,271.94898L219.62787,269.78875L220.10793,269.78875L220.10793,268.10857L220.34796,268.10857
				L220.34796,266.18837L220.82802,266.18837L220.82802,264.02814L221.30809,264.02814L221.30809,261.86791L221.78815,261.86791
				L221.78815,259.70768L222.02818,259.70768L222.02818,258.9876L222.50824,258.9876L222.50824,258.50755L222.9883,258.50755L222.9883,257.54744
				L223.46836,257.54744L223.46836,257.30742L223.70839,257.30742L223.70839,256.82737L224.18845,256.82737L224.18845,256.34732
				L224.66851,256.34732L224.66851,255.86727L225.14857,255.86727L225.14857,255.62724L225.3886,255.62724L225.3886,255.14719L225.86866,255.14719
				L225.86866,254.66714L226.34872,254.66714L226.34872,254.18709L226.82879,254.18709L226.82879,253.94706L227.06882,253.94706
				L227.06882,252.98696L227.54888,252.98696L227.54888,252.50691L228.02894,252.50691L228.02894,252.26688L228.509,252.26688L228.509,251.78683
				L228.74903,251.78683L228.74903,251.30678L229.22909,251.30678L229.22909,250.82673L229.70915,250.82673L229.70915,250.5867L
				230.18921,250.5867L230.18921,250.10665L230.42924,250.10665L230.42924,249.6266L230.9093,249.6266L230.9093,249.14655L231.38936,249.14655
				L231.38936,248.90652L231.86943,248.90652L231.86943,247.94642L232.10946,247.94642L232.10946,247.46637L232.58952,247.46637
				L232.58952,247.22635L233.06958,247.22635L233.06958,246.74629L233.54964,246.74629L233.54964,246.26624L233.78967,246.26624
				L233.78967,245.78619L234.26973,245.78619L234.26973,245.54617L235.22985,245.54617L235.22985,246.26624L235.46988,246.26624
				L235.46988,246.74629L235.94994,246.74629L235.94994,247.22635L236.43,247.22635L236.43,247.46637L236.91007,247.46637L236.91007,247.94642
				L237.1501,247.94642L237.1501,248.42647L237.63016,248.42647L237.63016,248.90652L238.11022,248.90652L238.11022,249.14655L238.59028,249.14655
				L238.59028,249.6266L239.07034,249.6266L239.07034,250.5867L239.31037,250.5867L239.31037,250.82673L239.79043,250.82673L239.79043,251.30678
				L240.27049,251.30678L240.27049,251.78683L240.75055,251.78683L240.75055,252.26688L240.99058,252.26688L240.99058,252.50691
				L241.47064,252.50691L241.47064,252.98696L241.9507,252.98696L241.9507,253.46701L242.43077,253.46701L242.43077,253.94706L242.6708,253.94706
				L242.6708,254.66714L243.15086,254.66714L243.15086,255.14719L243.63092,255.14719L243.63092,255.62724L244.11098,255.62724L
				244.11098,255.86727L244.35101,255.86727L244.35101,256.34732L244.83107,256.34732L244.83107,256.82737L245.31113,256.82737L
				245.31113,257.30742L245.79119,257.30742L245.79119,257.54744L246.03122,257.54744L246.03122,258.0275L246.51128,258.0275L246.51128,258.9876
				L246.99134,258.9876L246.99134,259.22762L247.47141,259.22762L247.47141,259.70768L247.71144,259.70768L247.71144,260.18773L
				248.1915,260.18773L248.1915,260.66778L248.67156,260.66778L248.67156,260.9078L249.15162,260.9078L249.15162,261.38785L249.39165,261.38785
				L249.39165,261.86791L249.87171,261.86791L249.87171,262.34796L250.35177,262.34796L250.35177,262.58798L250.83183,262.58798
				L250.83183,263.06803L251.07186,263.06803L251.07186,263.54808L251.55192,263.54808L251.55192,264.02814L252.03198,264.02814
				L252.03198,264.50819L252.51205,264.50819L252.51205,264.74821L252.75208,264.74821L252.75208,265.22826L253.23214,265.22826
				L253.23214,265.70831L253.7122,265.70831L253.7122,266.18837L254.19226,266.18837L254.19226,266.42839L254.43229,266.42839L254.43229,266.90844
				L255.39241,266.90844L255.39241,267.38849L255.87247,267.38849L255.87247,267.86854L256.1125,267.86854L256.1125,268.10857L256.59256,268.10857
				L256.59256,268.58862L257.07262,268.58862L257.07262,269.06867L257.55268,269.06867L257.55268,269.54872L257.79272,269.54872
				L257.79272,269.78875L258.27278,269.78875L258.27278,270.2688L258.75284,270.2688L258.75284,270.74885L259.2329,270.74885L259.2329,271.2289
				L259.47293,271.2289L259.47293,271.46893L259.95299,271.46893L259.95299,271.94898L260.43305,271.94898L260.43305,272.42903L
				260.91311,272.42903L260.91311,272.90908L261.15314,272.90908L261.15314,273.14911L261.6332,273.14911L261.6332,273.62916L262.11326,273.62916
				L262.11326,274.10921L262.59332,274.10921L262.59332,274.58926L263.31342,274.58926L263.31342,274.82929L263.79348,274.82929
				L263.79348,275.30934L264.27354,275.30934L264.27354,275.78939L264.51357,275.78939L264.51357,276.26944L264.99363,276.26944
				L264.99363,276.50947L265.47369,276.50947L265.47369,276.98952L265.95375,276.98952L265.95375,277.46957L266.19378,277.46957
				L266.19378,277.94962L266.67384,277.94962L266.67384,278.18964L267.1539,278.18964L267.1539,278.6697L267.63396,278.6697L267.63396,279.14975
				L267.87399,279.14975L267.87399,279.6298L268.35406,279.6298L268.35406,279.86982L268.83412,279.86982L268.83412,280.34987L269.31418,280.34987
				L269.31418,280.82993L269.55421,280.82993L269.55421,281.30998L270.03427,281.30998L270.03427,281.55L270.51433,281.55L270.51433,282.03005
				L271.23442,282.03005L271.23442,282.51011L271.71448,282.51011L271.71448,282.99016L272.19454,282.99016L272.19454,283.23018
				L272.6746,283.23018L272.6746,283.71023L272.91463,283.71023L272.91463,284.19028L273.3947,284.19028L273.3947,284.67034L273.87476,284.67034
				L273.87476,284.91036L274.35482,284.91036L274.35482,285.39041L274.59485,285.39041L274.59485,285.87046L275.07491,285.87046
				L275.07491,286.35051L275.55497,286.35051L275.55497,286.59054L276.03503,286.59054L276.03503,287.07059L276.27506,287.07059
				L276.27506,287.55064L276.75512,287.55064L276.75512,288.03069L277.23518,288.03069L277.23518,288.27072L277.71524,288.27072
				L277.71524,288.75077L278.1953,288.75077L278.1953,289.23082L278.43533,289.23082L278.43533,289.71087L278.9154,289.71087L278.9154,289.9509
				L279.39546,289.9509L279.39546,290.43095L279.87552,290.43095L279.87552,290.911L280.11555,290.911L280.11555,291.39105L280.59561,291.39105
				L280.59561,291.63108L281.07567,291.63108L281.07567,292.11113L281.55573,292.11113L281.55573,292.59118L281.79576,292.59118
				L281.79576,293.07123L282.27582,293.07123L282.27582,293.31126L282.75588,293.31126L282.75588,293.79131L283.23594,293.79131
				L283.23594,294.27136L283.47597,294.27136L283.47597,294.75141L283.95604,294.75141L283.95604,294.99144L284.4361,294.99144L
				284.4361,295.47149L284.91616,295.47149L284.91616,295.95154L285.63625,295.95154L285.63625,296.43159L286.11631,296.43159L286.11631,296.67161
				L286.59637,296.67161L286.59637,297.15167L286.8364,297.15167L286.8364,297.63172L287.31646,297.63172L287.31646,298.11177L287.79652,298.11177
				L287.79652,298.35179L288.27658,298.35179L288.27658,298.83184L288.51661,298.83184L288.51661,299.3119L288.99668,299.3119L288.99668,299.79195
				L289.47674,299.79195L289.47674,300.03197L289.9568,300.03197L289.9568,300.51202L290.19683,300.51202L290.19683,300.99207L290.67689,300.99207
				L290.67689,301.47213L291.15695,301.47213L291.15695,301.71215L291.63701,301.71215L291.63701,302.1922L291.87704,302.1922L291.87704,302.67225
				L292.3571,302.67225L292.3571,303.1523L292.83716,303.1523L292.83716,303.63236L293.31722,303.63236L293.31722,303.87238L293.55725,303.87238
				L293.55725,304.35243L294.03731,304.35243L294.03731,304.83248L294.51738,304.83248L294.51738,305.31253L294.99744,305.31253
				L294.99744,305.55256L295.23747,305.55256L295.23747,306.03261L295.71753,306.03261L295.71753,306.51266L296.19759,306.51266
				L296.19759,306.99271L296.67765,306.99271L296.67765,307.23274L296.91768,307.23274L296.91768,307.71279L297.39774,307.71279
				L297.39774,308.67289L297.8778,308.67289L297.8778,308.91292L298.35786,308.91292L298.35786,309.39297L298.59789,309.39297L298.59789,309.87302
				L299.07795,309.87302L299.07795,310.35307L299.55802,310.35307L299.55802,310.5931L300.03808,310.5931L300.03808,311.07315L300.27811,311.07315
				L300.27811,311.5532L300.75817,311.5532L300.75817,312.03325L301.23823,312.03325L301.23823,312.27328L301.71829,312.27328L301.71829,312.75333
				L301.95832,312.75333L301.95832,313.23338L302.43838,313.23338L302.43838,313.71343L302.91844,313.71343L302.91844,313.95346
				L303.3985,313.95346L303.3985,314.43351L303.63853,314.43351L303.63853,314.91356L304.11859,314.91356L304.11859,315.39361L304.59865,315.39361
				L304.59865,315.63363L305.07872,315.63363L305.07872,316.11369L305.31875,316.11369L305.31875,316.59374L305.79881,316.59374
				L305.79881,317.07379L306.27887,317.07379L306.27887,317.31381L306.99896,317.31381L306.99896,317.79386L307.95908,317.79386
				L307.95908,318.27392L308.67917,318.27392L308.67917,318.75397L309.63929,318.75397L309.63929,318.99399L310.35939,318.99399
				L310.35939,319.47404L311.31951,319.47404L311.31951,319.9541L312.0396,319.9541L312.0396,320.43415L312.51966,320.43415L312.51966,320.67417
				L312.99972,320.67417L312.99972,321.15422L313.47978,321.15422L313.47978,321.63427L314.19987,321.63427L314.19987,322.11433
				L314.67993,322.11433L314.67993,322.35435L315.16,322.35435L315.16,322.8344L315.40003,322.8344L315.40003,323.31445L315.88009,323.31445
				L315.88009,323.7945L316.84021,323.7945L316.84021,324.03453L317.32027,324.03453L317.32027,324.51458L317.5603,324.51458L317.5603,324.99463
				L318.04036,324.99463L318.04036,325.47468L318.52042,325.47468L318.52042,325.71471L319.24051,325.71471L319.24051,326.19476
				L319.72057,326.19476L319.72057,326.67481L320.20063,326.67481L320.20063,327.15486L320.6807,327.15486L320.6807,327.39489L320.92073,327.39489
				L320.92073,327.87494L321.40079,327.87494L321.40079,328.35499L322.36091,328.35499L322.36091,328.83504L322.60094,328.83504
				L322.60094,329.07507L323.081,329.07507L323.081,329.55512L323.56106,329.55512L323.56106,330.03517L324.04112,330.03517L324.04112,330.51522
				L324.28115,330.51522L324.28115,330.75525L324.76121,330.75525L324.76121,331.2353L325.72134,331.2353L325.72134,331.71535L325.96137,331.71535
				L325.96137,332.1954L326.44143,332.1954L326.44143,332.43543L326.92149,332.43543L326.92149,332.91548L327.40155,332.91548L327.40155,333.39553
				L327.64158,333.39553L327.64158,333.87558L328.12164,333.87558L328.12164,334.1156L329.08176,334.1156L329.08176,334.59566L329.32179,334.59566
				L329.32179,335.07571L329.80185,335.07571L329.80185,335.55576L330.28191,335.55576L330.28191,335.79578L330.76198,335.79578
				L330.76198,336.27583L331.00201,336.27583L331.00201,336.75589L331.48207,336.75589L331.48207,337.23594L332.44219,337.23594
				L332.44219,337.47596L332.68222,337.47596L332.68222,337.95601L333.16228,337.95601L333.16228,338.43606L333.64234,338.43606
				L333.64234,338.91612L334.1224,338.91612L334.1224,339.15614L334.36243,339.15614L334.36243,339.63619L334.84249,339.63619L334.84249,340.11624
				L335.80261,340.11624L335.80261,340.59629L336.04265,340.59629L336.04265,341.07635L336.52271,341.07635L336.52271,341.31637
				L337.00277,341.31637L337.00277,341.79642L337.48283,341.79642L337.48283,342.27647L337.72286,342.27647"/>
			<path clip-path="url(#SVG_CP_2)" fill="none" stroke="#999999" stroke-width="0.96012" stroke-miterlimit="10" stroke-linecap="round" stroke-linejoin="round" d="
				M337.72286,342.27647L337.72286,342.75652L338.20292,342.75652L338.20292,342.99655L339.16304,342.99655L339.16304,343.4766L
				339.40307,343.4766L339.40307,343.95665L339.88313,343.95665L339.88313,344.4367L340.84325,344.4367L340.84325,344.67673L342.04341,344.67673
				L342.04341,345.15678L342.7635,345.15678L342.7635,345.63683L343.72362,345.63683L343.72362,346.11688L344.44371,346.11688L344.44371,346.35691
				L344.92377,346.35691L344.92377,346.83696L345.88389,346.83696L345.88389,347.31701"/>
			<path clip-path="url(#SVG_CP_2)" fill="none" stroke="#999999" stroke-width="0.96012" stroke-miterlimit="10" stroke-linecap="round" stroke-linejoin="round" d="
				M249.39165,499.2532L249.87171,499.2532L249.87171,498.77315L250.35177,498.77315L250.35177,498.2931L250.83183,498.2931L250.83183,497.81305
				L251.07186,497.81305L251.07186,497.57302L251.55192,497.57302L251.55192,497.09297L252.03198,497.09297L252.03198,496.61292
				L252.51205,496.61292L252.51205,496.13287L252.75208,496.13287L252.75208,495.89284L253.23214,495.89284L253.23214,495.41279
				L253.7122,495.41279L253.7122,494.93274L254.19226,494.93274L254.19226,494.45269L254.43229,494.45269L254.43229,493.97264L254.91235,493.97264
				L254.91235,493.73261L255.39241,493.73261L255.39241,493.25256L255.87247,493.25256L255.87247,492.77251L256.1125,492.77251L
				256.1125,492.29246L256.59256,492.29246L256.59256,492.05243L257.07262,492.05243L257.07262,491.57238L257.55268,491.57238L257.55268,491.09233
				L257.79272,491.09233L257.79272,490.61228L258.27278,490.61228L258.27278,490.37225L258.75284,490.37225L258.75284,489.8922L
				259.2329,489.8922L259.2329,489.41215L259.47293,489.41215L259.47293,488.9321L259.95299,488.9321L259.95299,488.69208L260.43305,488.69208
				L260.43305,488.21202L260.91311,488.21202L260.91311,487.73197L261.15314,487.73197L261.15314,487.25192L261.6332,487.25192L
				261.6332,487.0119L262.11326,487.0119L262.11326,486.53185L262.59332,486.53185L262.59332,486.05179L262.83335,486.05179L262.83335,485.57174
				L263.31342,485.57174L263.31342,485.33172L263.79348,485.33172L263.79348,484.85167L264.27354,484.85167L264.27354,484.37162
				L264.51357,484.37162L264.51357,483.89156L264.99363,483.89156L264.99363,483.65154L265.47369,483.65154L265.47369,483.17149
				L265.95375,483.17149L265.95375,482.69144L266.19378,482.69144L266.19378,482.21139L266.67384,482.21139L266.67384,481.97136
				L267.1539,481.97136L267.1539,481.49131L267.63396,481.49131L267.63396,481.01126L267.87399,481.01126L267.87399,480.53121L268.35406,480.53121
				L268.35406,480.29118L268.83412,480.29118L268.83412,479.81113L269.31418,479.81113L269.31418,479.33108L269.55421,479.33108
				L269.55421,478.85103L270.03427,478.85103L270.03427,478.611L270.51433,478.611L270.51433,478.13095L270.99439,478.13095L270.99439,477.6509
				L271.23442,477.6509L271.23442,477.17085L271.71448,477.17085L271.71448,476.93082L272.19454,476.93082L272.19454,476.45077L
				272.6746,476.45077L272.6746,475.97072L272.91463,475.97072L272.91463,475.49067L273.3947,475.49067L273.3947,475.25064L273.87476,475.25064
				L273.87476,474.77059L274.35482,474.77059L274.35482,474.29054L274.59485,474.29054L274.59485,473.81049L275.07491,473.81049
				L275.07491,473.57046L275.55497,473.57046L275.55497,473.09041L276.03503,473.09041L276.03503,472.61036L276.27506,472.61036
				L276.27506,472.13031L276.75512,472.13031L276.75512,471.89029L277.23518,471.89029L277.23518,471.41023L277.71524,471.41023
				L277.71524,470.93018L278.1953,470.93018L278.1953,470.45013L278.43533,470.45013L278.43533,470.21011L278.9154,470.21011L278.9154,469.73006
				L279.39546,469.73006L279.39546,469.25L279.87552,469.25L279.87552,468.76995L280.11555,468.76995L280.11555,468.52993L280.59561,468.52993
				L280.59561,468.04988L281.07567,468.04988L281.07567,467.56983L281.55573,467.56983L281.55573,467.08977L281.79576,467.08977
				L281.79576,466.84975L282.27582,466.84975L282.27582,466.3697L282.75588,466.3697L282.75588,465.88965L283.23594,465.88965L283.23594,465.40959
				L283.47597,465.40959L283.47597,465.16957L283.95604,465.16957L283.95604,464.68952L284.4361,464.68952L284.4361,464.20947L284.91616,464.20947
				L284.91616,463.72942L285.15619,463.72942L285.15619,463.48939L285.63625,463.48939L285.63625,463.00934L286.11631,463.00934
				L286.11631,462.52929L286.59637,462.52929L286.59637,462.04924L286.8364,462.04924L286.8364,461.80921L287.31646,461.80921L287.31646,461.32916
				L287.79652,461.32916L287.79652,460.84911L288.27658,460.84911L288.27658,460.36906L288.51661,460.36906L288.51661,460.12903
				L288.99668,460.12903L288.99668,459.64898L289.47674,459.64898L289.47674,459.16893L289.9568,459.16893L289.9568,458.68888L290.19683,458.68888
				L290.19683,458.44885L290.67689,458.44885L290.67689,457.9688L291.15695,457.9688L291.15695,457.48875L291.63701,457.48875L291.63701,457.0087
				L291.87704,457.0087L291.87704,456.52865L292.3571,456.52865L292.3571,456.28862L292.83716,456.28862L292.83716,455.80857L293.31722,455.80857
				L293.31722,455.32852L293.55725,455.32852L293.55725,454.84847L294.03731,454.84847L294.03731,454.60844L294.51738,454.60844
				L294.51738,454.12839L294.99744,454.12839L294.99744,453.64834L295.23747,453.64834L295.23747,453.16829L295.71753,453.16829
				L295.71753,452.92826L296.19759,452.92826L296.19759,452.44821L296.67765,452.44821L296.67765,451.96816L296.91768,451.96816
				L296.91768,451.48811L297.39774,451.48811L297.39774,451.24809L297.8778,451.24809L297.8778,450.76803L298.35786,450.76803L298.35786,450.28798
				L298.59789,450.28798L298.59789,449.80793L299.07795,449.80793L299.07795,449.56791L299.55802,449.56791L299.55802,449.08786
				L300.03808,449.08786L300.03808,448.6078L300.27811,448.6078L300.27811,448.12775L300.75817,448.12775L300.75817,447.88773L301.23823,447.88773
				L301.23823,447.40768L301.71829,447.40768L301.71829,446.92763L301.95832,446.92763L301.95832,446.44757L302.43838,446.44757
				L302.43838,446.20755L302.91844,446.20755L302.91844,445.7275L303.3985,445.7275L303.3985,445.24745L303.63853,445.24745L303.63853,444.7674
				L304.11859,444.7674L304.11859,444.52737L304.59865,444.52737L304.59865,444.04732L305.07872,444.04732L305.07872,443.56727L
				305.31875,443.56727L305.31875,443.08722L305.79881,443.08722L305.79881,442.84719L306.27887,442.84719L306.27887,442.36714L
				306.75893,442.36714L306.75893,441.88709L306.99896,441.88709L306.99896,441.40704L307.47902,441.40704L307.47902,441.16701L
				307.95908,441.16701L307.95908,440.68696L308.43914,440.68696L308.43914,440.20691L308.67917,440.20691L308.67917,439.72686L
				309.15923,439.72686L309.15923,439.48683L309.63929,439.48683L309.63929,439.00678L310.11936,439.00678L310.11936,438.52673L
				310.35939,438.52673L310.35939,438.04668L310.83945,438.04668L310.83945,437.80665L311.31951,437.80665L311.31951,437.3266L311.79957,437.3266
				L311.79957,436.84655L312.0396,436.84655L312.0396,436.3665L312.51966,436.3665L312.51966,435.64642L312.99972,435.64642L312.99972,435.16637
				L313.47978,435.16637L313.47978,434.4463L313.71981,434.4463L313.71981,426.28543L314.19987,426.28543L314.19987,416.20435L314.67993,416.20435
				L314.67993,415.7243L315.16,415.7243L315.16,415.48427L315.40003,415.48427L315.40003,409.48364L315.88009,409.48364L315.88009,393.64195
				L316.36015,393.64195L316.36015,393.1619L316.84021,393.1619L316.84021,392.68185L317.32027,392.68185L317.32027,392.20179L317.5603,392.20179
				L317.5603,391.48172L318.04036,391.48172L318.04036,391.00167L318.52042,391.00167L318.52042,390.52161L319.00048,390.52161L
				319.00048,390.28159L319.24051,390.28159L319.24051,389.80154L319.72057,389.80154L319.72057,389.32149L320.20063,389.32149L
				320.20063,388.84144L320.6807,388.84144L320.6807,388.60141L320.92073,388.60141L320.92073,388.12136L321.40079,388.12136L321.40079,387.64131
				L321.88085,387.64131L321.88085,387.16126L322.36091,387.16126L322.36091,386.92123L322.60094,386.92123L322.60094,386.44118
				L323.081,386.44118L323.081,385.96113L323.56106,385.96113L323.56106,385.48108L324.04112,385.48108L324.04112,385.24105L324.28115,385.24105
				L324.28115,384.761L324.76121,384.761L324.76121,384.28095L325.24127,384.28095L325.24127,383.8009L325.72134,383.8009L325.72134,383.56087
				L325.96137,383.56087L325.96137,383.08082L326.44143,383.08082L326.44143,382.60077L326.92149,382.60077L326.92149,382.12072
				L327.40155,382.12072L327.40155,381.88069L327.64158,381.88069L327.64158,381.40064L328.12164,381.40064L328.12164,380.92059
				L328.6017,380.92059L328.6017,380.44054L329.08176,380.44054L329.08176,380.20051L329.32179,380.20051L329.32179,379.72046L329.80185,379.72046
				L329.80185,379.24041L330.28191,379.24041L330.28191,378.76036L330.76198,378.76036L330.76198,378.28031L331.00201,378.28031
				L331.00201,378.04028L331.48207,378.04028L331.48207,377.56023L331.96213,377.56023L331.96213,377.08018L332.44219,377.08018
				L332.44219,376.60013L332.68222,376.60013L332.68222,376.36011L333.16228,376.36011L333.16228,375.88005L333.64234,375.88005
				L333.64234,375.4L334.1224,375.4L334.1224,374.91995L334.36243,374.91995L334.36243,374.67993L334.84249,374.67993L334.84249,374.19988
				L335.32255,374.19988L335.32255,373.71982L335.80261,373.71982L335.80261,373.23977L336.04265,373.23977L336.04265,372.99975
				L336.52271,372.99975L336.52271,372.5197L337.00277,372.5197L337.00277,372.03965L337.48283,372.03965L337.48283,371.31957L337.72286,371.31957
				L337.72286,358.59821L338.20292,358.59821L338.20292,358.11816L338.68298,358.11816L338.68298,357.87814L339.16304,357.87814
				L339.16304,357.39809L339.40307,357.39809L339.40307,356.91803L339.88313,356.91803L339.88313,353.07762L340.36319,353.07762
				L340.36319,352.8376L340.84325,352.8376L340.84325,352.35755L341.08328,352.35755L341.08328,351.8775L341.56335,351.8775L341.56335,351.39745
				L342.04341,351.39745L342.04341,351.15742L342.52347,351.15742L342.52347,350.67737L342.7635,350.67737L342.7635,350.19732L343.24356,350.19732
				L343.24356,349.71727L343.72362,349.71727L343.72362,349.47724L344.20368,349.47724L344.20368,348.99719L344.44371,348.99719
				L344.44371,348.51714L344.92377,348.51714L344.92377,348.03709L345.40383,348.03709L345.40383,347.79706L345.88389,347.79706
				L345.88389,347.31701L346.12392,347.31701L346.12392,346.83696L346.60399,346.83696L346.60399,346.35691L347.08405,346.35691
				L347.08405,346.11688L347.56411,346.11688L347.56411,345.63683L347.80414,345.63683L347.80414,344.67673L348.2842,344.67673L
				348.2842,344.4367L348.76426,344.4367L348.76426,343.95665L349.24432,343.95665L349.24432,343.4766L349.48435,343.4766L349.48435,342.75652
				L349.96441,342.75652L349.96441,342.27647L350.44447,342.27647L350.44447,341.79642L350.92453,341.79642L350.92453,341.07635
				L351.16456,341.07635L351.16456,340.59629L351.64463,340.59629L351.64463,340.11624L352.12469,340.11624L352.12469,339.15614
				L352.60475,339.15614L352.60475,338.91612L352.84478,338.91612L352.84478,337.95601L353.32484,337.95601L353.32484,337.47596
				L353.8049,337.47596L353.8049,336.75589L354.28496,336.75589L354.28496,336.27583L354.52499,336.27583L354.52499,335.55576L355.00505,335.55576
				L355.00505,335.07571L355.48511,335.07571L355.48511,334.1156L355.96517,334.1156L355.96517,333.87558L356.44523,333.87558L356.44523,332.91548
				L356.68526,332.91548L356.68526,332.43543L357.16533,332.43543L357.16533,331.71535L357.64539,331.71535L357.64539,331.2353L
				358.12545,331.2353L358.12545,330.51522L358.36548,330.51522L358.36548,330.03517L358.84554,330.03517L358.84554,329.07507L359.3256,329.07507
				L359.3256,328.83504L359.80566,328.83504L359.80566,327.87494L360.04569,327.87494L360.04569,327.15486L360.52575,327.15486L
				360.52575,326.67481L361.00581,326.67481L361.00581,325.71471L361.48587,325.71471L361.48587,325.47468L361.7259,325.47468L361.7259,324.51458
				L362.20597,324.51458L362.20597,323.7945L361.7259,323.7945L361.7259,323.31445L361.00581,323.31445L361.00581,322.8344L360.52575,322.8344
				L360.52575,322.35435L359.80566,322.35435L359.80566,322.11433L359.3256,322.11433L359.3256,321.63427L358.84554,321.63427L358.84554,321.15422
				L358.12545,321.15422L358.12545,320.67417L357.64539,320.67417L357.64539,320.43415L356.68526,320.43415L356.68526,319.9541L
				356.44523,319.9541L356.44523,319.47404L355.96517,319.47404L355.96517,318.99399L355.00505,318.99399L355.00505,318.75397L354.52499,318.75397
				L354.52499,318.27392L354.28496,318.27392L354.28496,317.79386L353.32484,317.79386L353.32484,317.31381L352.84478,317.31381
				L352.84478,317.07379L352.60475,317.07379L352.60475,316.59374L351.64463,316.59374L351.64463,316.11369L351.16456,316.11369
				L351.16456,315.63363L350.92453,315.63363L350.92453,315.39361L349.96441,315.39361L349.96441,314.91356L349.48435,314.91356
				L349.48435,314.43351L349.24432,314.43351L349.24432,313.95346L348.2842,313.95346L348.2842,313.71343L347.80414,313.71343L347.80414,313.23338
				L347.56411,313.23338L347.56411,312.75333L347.08405,312.75333L347.08405,312.03325L346.60399,312.03325L346.60399,311.07315
				L346.12392,311.07315L346.12392,310.35307L345.88389,310.35307L345.88389,309.39297L345.40383,309.39297L345.40383,308.67289
				L344.92377,308.67289L344.92377,307.71279L344.44371,307.71279L344.44371,306.51266L344.20368,306.51266L344.20368,305.55256
				L343.72362,305.55256L343.72362,304.83248L343.24356,304.83248L343.24356,303.87238L342.7635,303.87238L342.7635,303.1523L342.52347,303.1523
				L342.52347,302.1922L342.04341,302.1922L342.04341,301.47213L341.56335,301.47213L341.56335,300.51202L341.08328,300.51202L341.08328,299.3119
				L340.84325,299.3119L340.84325,298.35179L340.36319,298.35179L340.36319,297.63172L339.88313,297.63172L339.88313,296.67161L
				339.40307,296.67161L339.40307,295.95154L339.16304,295.95154L339.16304,294.75141L338.68298,294.75141L338.68298,293.79131L
				338.20292,293.79131L338.20292,293.07123L337.72286,293.07123L337.72286,292.11113L337.48283,292.11113L337.48283,291.39105L
				337.00277,291.39105L337.00277,289.9509L336.52271,289.9509L336.52271,288.75077L336.04265,288.75077L336.04265,287.55064L335.80261,287.55064
				L335.80261,286.35051L335.32255,286.35051L335.32255,284.67034L334.84249,284.67034L334.84249,283.23018L334.36243,283.23018
				L334.36243,282.03005L334.1224,282.03005L334.1224,280.34987L333.64234,280.34987L333.64234,279.14975L333.16228,279.14975L333.16228,277.94962
				L332.68222,277.94962L332.68222,276.26944L332.44219,276.26944L332.44219,275.30934L331.96213,275.30934L331.96213,274.10921
				L331.48207,274.10921L331.48207,273.14911L331.00201,273.14911L331.00201,271.94898L330.76198,271.94898L330.76198,271.2289L
				330.28191,271.2289L330.28191,270.2688L329.80185,270.2688L329.80185,269.78875L331.00201,269.78875L331.00201,269.54872L331.96213,269.54872
				L331.96213,269.06867L332.68222,269.06867L332.68222,268.58862L333.64234,268.58862L333.64234,268.10857L334.36243,268.10857
				L334.36243,267.86854L335.80261,267.86854L335.80261,267.38849L336.52271,267.38849L336.52271,266.90844L337.48283,266.90844
				L337.48283,266.42839L338.20292,266.42839L338.20292,266.18837L339.16304,266.18837L339.16304,265.70831L340.36319,265.70831
				L340.36319,265.22826L341.08328,265.22826L341.08328,264.74821L342.04341,264.74821L342.04341,264.50819L342.7635,264.50819L
				342.7635,264.02814L343.72362,264.02814L343.72362,263.54808L344.92377,263.54808L344.92377,263.06803L345.88389,263.06803L345.88389,262.58798
				L346.60399,262.58798L346.60399,262.34796L347.56411,262.34796L347.56411,261.86791L348.2842,261.86791L348.2842,261.38785L349.24432,261.38785
				L349.24432,260.9078L350.44447,260.9078L350.44447,260.66778L351.16456,260.66778L351.16456,260.18773L352.12469,260.18773L352.12469,259.70768
				L352.84478,259.70768L352.84478,259.22762L353.8049,259.22762L353.8049,258.9876L355.00505,258.9876L355.00505,258.50755L355.96517,258.50755
				L355.96517,258.0275L356.68526,258.0275L356.68526,257.54744L357.64539,257.54744L357.64539,257.30742L358.36548,257.30742L358.36548,256.82737
				L359.80566,256.82737L359.80566,256.34732L360.52575,256.34732L360.52575,255.86727L361.48587,255.86727L361.48587,255.62724
				L362.20597,255.62724L362.20597,255.14719L362.68603,255.14719L362.68603,861.21177"/>
			<path clip-path="url(#SVG_CP_2)" fill="none" stroke="#999999" stroke-width="0.96012" stroke-miterlimit="10" stroke-linecap="round" stroke-linejoin="round" d="
				M-6.24079,784.40359L-6.00076,784.40359L-6.00076,783.20346L-5.5207,783.20346L-5.5207,782.24336L-5.04064,782.24336L-5.04064,781.04323
				L-4.56058,781.04323L-4.56058,780.08313L-4.32055,780.08313L-4.32055,778.883L-3.84049,778.883L-3.84049,778.16292L-3.36043,778.16292
				L-3.36043,776.72277L-2.88037,776.72277L-2.88037,776.00269L-2.64034,776.00269L-2.64034,774.80256L-2.16027,774.80256L-2.16027,773.84246
				L-1.68021,773.84246L-1.68021,772.64233L-1.20015,772.64233L-1.20015,771.68223L-0.96012,771.68223L-0.96012,770.4821L-0.48006,770.4821
				L-0.48006,769.76203L0,769.76203L0,768.80192L0.48006,768.80192L0.48006,767.6018L0.72009,767.6018L0.72009,766.64169L1.20015,766.64169
				L1.20015,765.92162L1.68021,765.92162L1.68021,764.96152L2.16027,764.96152L2.16027,763.76139L2.40031,763.76139L2.40031,762.80129
				L2.88037,762.80129L2.88037,762.08121L3.36043,762.08121L3.36043,760.88108L3.84049,760.88108L3.84049,759.92098L4.08052,759.92098
				L4.08052,759.2009L4.56058,759.2009L4.56058,758.2408L5.04064,758.2408L5.04064,757.04067L5.5207,757.04067L5.5207,756.08057
				L5.76073,756.08057L5.76073,755.36049L6.24079,755.36049L6.24079,754.16036L6.72085,754.16036L6.72085,753.20026L7.20091,753.20026
				L7.20091,752.48019L7.68098,752.48019L7.68098,751.52008L7.92101,751.52008L7.92101,750.31996L8.40107,750.31996L8.40107,749.35985
				L8.88113,749.35985L8.88113,748.63978L9.36119,748.63978L9.36119,747.43965L9.60122,747.43965L9.60122,746.47955L10.08128,746.47955
				L10.08128,745.75947L10.56134,745.75947L10.56134,745.27942L11.0414,745.27942L11.0414,744.79937L11.28143,744.79937L11.28143,744.31932
				L11.76149,744.31932L11.76149,744.07929L12.24155,744.07929L12.24155,743.59924L12.72161,743.59924L12.72161,742.63914L12.96165,742.63914
				L12.96165,742.39911L13.44171,742.39911L13.44171,741.91906L13.92177,741.91906L13.92177,741.43901L14.40183,741.43901L14.40183,740.95896
				L14.64186,740.95896L14.64186,740.23888L15.12192,740.23888L15.12192,739.75883L15.60198,739.75883L15.60198,739.27878L16.08204,739.27878
				L16.08204,739.03875L16.32207,739.03875L16.32207,738.5587L16.80213,738.5587L16.80213,737.5986L17.28219,737.5986L17.28219,737.35857
				L17.76225,737.35857L17.76225,736.87852L18.00229,736.87852L18.00229,736.39847L18.48235,736.39847L18.48235,735.91842L18.96241,735.91842
				L18.96241,735.19834L19.44247,735.19834L19.44247,734.71829L19.6825,734.71829L19.6825,734.23824L20.16256,734.23824L20.16256,733.99822
				L20.64262,733.99822L20.64262,733.51816L21.12268,733.51816L21.12268,733.03811L21.36271,733.03811L21.36271,732.31804L21.84277,732.31804
				L21.84277,731.83799L22.32283,731.83799L22.32283,731.35793L22.80289,731.35793L22.80289,730.87788L23.04292,730.87788L23.04292,730.63786
				L23.52299,730.63786L23.52299,729.67776L24.00305,729.67776L24.00305,729.1977L24.48311,729.1977L24.48311,728.95768L24.72314,728.95768
				L24.72314,728.47763L25.2032,728.47763L25.2032,727.99758L25.68326,727.99758L25.68326,727.03747L26.16332,727.03747L26.16332,726.79745
				L26.40335,726.79745L26.40335,726.3174L26.88341,726.3174L26.88341,725.83735L27.36347,725.83735L27.36347,725.3573L27.84353,725.3573
				L27.84353,724.63722L28.08356,724.63722L28.08356,724.15717L28.56363,724.15717L28.56363,723.67712L29.04369,723.67712L29.04369,723.43709
				L29.52375,723.43709L29.52375,722.95704L29.76378,722.95704L29.76378,722.47699L30.24384,722.47699L30.24384,721.75691L30.7239,721.75691
				L30.7239,721.27686L31.20396,721.27686L31.20396,720.79681L31.44399,720.79681L31.44399,720.31676L31.92405,720.31676L31.92405,720.07673
				L32.40411,720.07673L32.40411,719.11663L32.88417,719.11663L32.88417,718.63658L33.1242,718.63658L33.1242,718.39655L33.60426,718.39655
				L33.60426,717.9165L34.08433,717.9165L34.08433,717.43645L34.56439,717.43645L34.56439,716.71637L34.80442,716.71637L34.80442,716.23632
				L35.28448,716.23632L35.28448,715.75627L35.76454,715.75627L35.76454,715.27622L36.2446,715.27622L36.2446,715.0362L36.48463,715.0362
				L36.48463,714.07609L36.96469,714.07609L36.96469,713.59604L37.44475,713.59604L37.44475,713.35602L37.92481,713.35602L37.92481,712.87597
				L38.16484,712.87597L38.16484,712.39591L38.6449,712.39591L38.6449,711.91586L39.12497,711.91586L39.12497,711.19579L39.60503,711.19579
				L39.60503,710.71573L39.84506,710.71573L39.84506,710.23568L40.32512,710.23568L40.32512,709.99566L40.80518,709.99566L40.80518,709.51561
				L41.28524,709.51561L41.28524,708.5555L41.52527,708.5555L41.52527,708.31548L42.00533,708.31548L42.00533,707.83543L42.48539,707.83543
				L42.48539,707.35538L42.96545,707.35538L42.96545,706.87533L43.20548,706.87533L43.20548,706.15525L43.68554,706.15525L43.68554,705.6752
				L44.16561,705.6752L44.16561,705.19515L44.64567,705.19515L44.64567,704.95512L44.8857,704.95512L44.8857,703.99502L45.36576,703.99502
				L45.36576,703.27494L45.84582,703.27494L45.84582,702.31484L46.32588,702.31484L46.32588,701.59476L46.80594,701.59476L46.80594,701.11471
				L47.04597,701.11471L47.04597,700.15461L47.52603,700.15461L47.52603,699.43453L48.00609,699.43453L48.00609,698.47443L48.48615,698.47443
				L48.48615,698.2344L48.72618,698.2344L48.72618,697.2743L49.20624,697.2743L49.20624,696.55423L49.68631,696.55423L49.68631,695.59412
				L50.16637,695.59412L50.16637,695.11407L50.4064,695.11407L50.4064,694.394L50.88646,694.394L50.88646,693.43389L51.36652,693.43389
				L51.36652,692.71382L51.84658,692.71382L51.84658,692.23377L52.08661,692.23377L52.08661,691.51369L52.56667,691.51369L52.56667,691.03364
				L53.04673,691.03364L53.04673,690.55359L53.52679,690.55359L53.52679,690.07354L53.76682,690.07354L53.76682,689.83351L54.24688,689.83351
				L54.24688,688.87341L54.72695,688.87341L54.72695,688.39336L55.20701,688.39336L55.20701,687.91331L55.44704,687.91331L55.44704,687.67328
				L55.9271,687.67328L55.9271,687.19323L56.40716,687.19323L56.40716,686.71318L56.88722,686.71318L56.88722,686.23313L57.12725,686.23313
				L57.12725,685.9931L57.60731,685.9931L57.60731,685.51305L58.08737,685.51305L58.08737,685.033L58.80746,685.033L58.80746,684.55295
				L59.28752,684.55295L59.28752,684.31292L59.76759,684.31292L59.76759,683.83287L60.48768,683.83287L60.48768,683.35282L60.96774,683.35282
				L60.96774,682.87277L61.4478,682.87277L61.4478,682.63274L61.92786,682.63274L61.92786,682.15269L62.64795,682.15269L62.64795,681.67264
				L63.12801,681.67264L63.12801,681.19259L63.60807,681.19259L63.60807,680.95256L64.32816,680.95256L64.32816,680.47251L64.80822,680.47251
				L64.80822,679.99246L65.28829,679.99246L65.28829,679.51241L65.52832,679.51241L65.52832,679.27238L66.48844,679.27238L66.48844,678.79233
				L66.9685,678.79233L66.9685,678.31228L67.20853,678.31228L67.20853,677.83223L68.16865,677.83223L68.16865,677.59221L68.64871,677.59221
				L68.64871,677.11215L68.88874,677.11215L68.88874,676.6321L69.84886,676.6321L69.84886,676.15205L70.32893,676.15205L70.32893,675.91203
				L70.56896,675.91203L70.56896,675.43198L71.04902,675.43198L71.04902,674.95192L72.00914,674.95192L72.00914,674.47187L72.24917,674.47187
				L72.24917,674.23185L72.72923,674.23185L72.72923,673.7518L73.68935,673.7518L73.68935,673.27174L73.92938,673.27174L73.92938,672.79169
				L74.40944,672.79169L74.40944,672.55167L75.36957,672.55167L75.36957,672.07162L75.6096,672.07162L75.6096,671.59157L76.56972,671.59157
				L76.56972,671.11151L77.04978,671.11151L77.04978,670.87149L77.28981,670.87149L77.28981,670.39144L78.24993,670.39144L78.24993,669.91139
				L78.72999,669.91139L78.72999,669.43134L79.45008,669.43134L79.45008,669.19131L79.93014,669.19131L79.93014,668.71126L80.4102,668.71126
				L80.4102,668.23121L80.65024,668.23121L80.65024,667.75116L81.61036,667.75116L81.61036,667.51113L82.09042,667.51113L82.09042,667.03108
				L82.33045,667.03108L82.33045,666.55103L82.81051,666.55103L82.81051,666.07098L83.77063,666.07098L83.77063,665.83095L84.01066,665.83095
				L84.01066,664.87085L84.49072,664.87085L84.49072,664.15077L84.97078,664.15077L84.97078,663.19067L85.45084,663.19067L85.45084,662.47059
				L85.93091,662.47059L85.93091,661.51049L86.17094,661.51049L86.17094,660.79041L86.651,660.79041L86.651,660.31036L87.13106,660.31036
				L87.13106,659.35026L87.61112,659.35026L87.61112,658.63018L87.85115,658.63018L87.85115,657.67008L88.33121,657.67008L88.33121,656.46995
				L88.81127,656.46995L88.81127,655.9899L89.29133,655.9899L89.29133,655.74988L90.49148,655.74988L90.49148,655.9899L91.21158,655.9899
				L91.21158,656.46995L92.1717,656.46995L92.1717,656.95001L92.89179,656.95001L92.89179,657.43006L94.33197,657.43006L94.33197,657.67008
				L95.05206,657.67008L95.05206,658.15013L96.01218,658.15013L96.01218,658.63018L96.73228,658.63018L96.73228,659.11024L97.93243,659.11024
				L97.93243,659.35026L98.89255,659.35026L98.89255,659.83031L99.61264,659.83031L99.61264,660.31036L100.57276,660.31036L100.57276,660.79041
				L101.77292,660.79041L101.77292,661.03044L102.73304,661.03044L102.73304,661.51049L103.93319,661.51049L103.93319,661.99054
				L105.13334,661.99054L105.13334,662.47059L106.09346,662.47059L106.09346,662.71062L107.29362,662.71062L107.29362,663.19067
				L108.01371,663.19067L108.01371,663.67072L109.45389,663.67072L109.45389,664.15077L110.65404,664.15077L110.65404,664.3908L
				111.37413,664.3908L111.37413,664.87085L112.81432,664.87085L112.81432,665.3509L114.01447,665.3509L114.01447,665.83095L114.73456,665.83095
				L114.73456,666.07098L116.17474,666.07098L116.17474,666.55103L117.3749,666.55103L117.3749,667.03108L118.57505,667.03108L118.57505,667.51113
				L120.25526,667.51113L120.25526,667.75116L122.41554,667.75116L122.41554,668.23121L124.57581,668.23121L124.57581,668.71126
				L127.93624,668.71126L127.93624,669.19131L130.8166,669.19131L130.8166,669.43134L132.97688,669.43134L132.97688,669.91139L134.65709,669.91139
				L134.65709,670.39144L136.3373,670.39144L136.3373,670.87149L138.01752,670.87149L138.01752,671.11151L139.69773,671.11151L139.69773,671.59157
				L140.41782,671.59157L140.41782,672.07162L141.858,672.07162L141.858,672.55167L143.05815,672.55167L143.05815,672.79169L144.25831,672.79169
				L144.25831,673.27174L145.21843,673.27174L145.21843,673.7518L146.41858,673.7518L146.41858,674.23185L147.61873,674.23185L147.61873,674.47187
				L148.57886,674.47187L148.57886,674.95192L149.29895,674.95192L149.29895,675.43198L150.4991,675.43198L150.4991,675.91203L151.45922,675.91203
				L151.45922,676.15205L152.65937,676.15205L152.65937,676.6321L153.6195,676.6321L153.6195,677.11215L154.81965,677.11215L154.81965,677.59221
				L155.53974,677.59221L155.53974,677.83223L156.97992,677.83223L156.97992,678.31228L157.70001,678.31228L157.70001,678.79233
				L158.90017,678.79233L158.90017,679.27238L159.86029,679.27238L159.86029,679.51241L161.06044,679.51241L161.06044,679.99246
				L162.02056,679.99246L162.02056,680.47251L162.74065,680.47251L162.74065,680.95256L164.18084,680.95256L164.18084,681.19259
				L165.38099,681.19259L165.38099,681.67264L166.58114,681.67264L166.58114,682.15269L168.74141,682.15269L168.74141,682.63274
				L170.90169,682.63274L170.90169,682.87277L173.30199,682.87277L173.30199,683.35282L177.14248,683.35282L177.14248,683.83287
				L180.50291,683.83287L180.50291,684.31292L182.90321,684.31292L182.90321,684.55295L185.54355,684.55295L185.54355,685.033L187.94385,685.033
				L187.94385,685.51305L191.06425,685.51305L191.06425,685.9931L193.46455,685.9931L193.46455,686.23313L195.14476,686.23313L195.14476,686.71318
				L196.82498,686.71318L196.82498,687.19323L198.50519,687.19323L198.50519,687.67328L200.1854,687.67328L200.1854,687.91331L201.62559,687.91331
				L201.62559,688.39336L202.82574,688.39336L202.82574,688.87341L204.02589,688.87341L204.02589,689.35346L204.98601,689.35346
				L204.98601,689.83351L205.70611,689.83351L205.70611,690.07354L206.66623,690.07354L206.66623,690.55359L207.38632,690.55359
				L207.38632,691.03364L207.86638,691.03364L207.86638,691.51369L208.58647,691.51369L208.58647,691.75371L209.54659,691.75371
				L209.54659,692.23377L210.02665,692.23377L210.02665,692.71382L210.74674,692.71382L210.74674,693.19387L211.70687,693.19387
				L211.70687,693.43389L212.42696,693.43389L212.42696,693.91394L212.90702,693.91394L212.90702,694.394L213.62711,694.394L213.62711,694.87405
				L214.58723,694.87405L214.58723,695.11407L215.30732,695.11407L215.30732,695.59412L215.78738,695.59412L215.78738,696.07417
				L216.74751,696.07417L216.74751,696.55423L217.4676,696.55423L217.4676,696.79425L218.42772,696.79425L218.42772,697.2743L218.66775,697.2743
				L218.66775,697.75435L219.62787,697.75435L219.62787,698.2344L220.34796,698.2344L220.34796,698.47443L221.30809,698.47443L221.30809,698.95448
				L221.78815,698.95448L221.78815,699.43453L222.50824,699.43453L222.50824,699.91458L223.46836,699.91458L223.46836,700.15461
				L223.70839,700.15461L223.70839,700.63466L224.66851,700.63466L224.66851,701.11471L225.3886,701.11471L225.3886,701.59476L225.86866,701.59476
				L225.86866,701.83479L226.82879,701.83479L226.82879,702.31484L227.54888,702.31484L227.54888,702.79489L228.509,702.79489L228.509,702.31484
				L228.74903,702.31484L228.74903,701.59476L229.22909,701.59476L229.22909,701.11471L229.70915,701.11471L229.70915,700.63466
				L230.18921,700.63466L230.18921,699.91458L230.42924,699.91458L230.42924,699.43453L230.9093,699.43453L230.9093,698.47443L231.38936,698.47443
				L231.38936,698.2344L231.86943,698.2344L231.86943,697.2743L232.10946,697.2743L232.10946,696.79425L232.58952,696.79425L232.58952,696.07417
				L233.06958,696.07417L233.06958,695.59412L233.54964,695.59412L233.54964,694.87405L233.78967,694.87405L233.78967,694.394L234.26973,694.394
				L234.26973,693.43389L234.74979,693.43389L234.74979,693.19387L235.22985,693.19387L235.22985,692.23377L235.46988,692.23377
				L235.46988,691.75371L235.94994,691.75371L235.94994,691.03364L236.43,691.03364L236.43,690.07354L236.91007,690.07354L236.91007,689.83351
				L237.1501,689.83351L237.1501,688.87341L237.63016,688.87341L237.63016,688.39336L238.11022,688.39336L238.11022,687.91331L238.59028,687.91331
				L238.59028,687.67328L239.07034,687.67328L239.07034,687.19323L239.31037,687.19323L239.31037,686.71318L239.79043,686.71318
				L239.79043,687.19323L240.27049,687.19323L240.27049,686.71318L240.75055,686.71318L240.75055,686.23313L240.99058,686.23313
				L240.99058,685.9931L241.47064,685.9931L241.47064,685.51305L241.9507,685.51305L241.9507,685.033L242.43077,685.033L242.43077,684.55295
				L242.6708,684.55295L242.6708,684.31292L243.63092,684.31292L243.63092,683.83287L244.11098,683.83287L244.11098,683.35282L244.35101,683.35282
				L244.35101,682.87277L244.83107,682.87277L244.83107,682.63274L245.31113,682.63274L245.31113,682.15269L245.79119,682.15269
				L245.79119,681.67264L246.03122,681.67264L246.03122,681.19259L246.51128,681.19259L246.51128,680.95256L246.99134,680.95256
				L246.99134,680.47251L247.47141,680.47251L247.47141,679.99246L247.71144,679.99246L247.71144,679.51241L248.1915,679.51241L
				248.1915,679.27238L248.67156,679.27238L248.67156,678.79233L249.15162,678.79233L249.15162,678.31228L249.39165,678.31228L249.39165,677.83223
				L249.87171,677.83223L249.87171,677.59221L250.35177,677.59221L250.35177,677.11215L250.83183,677.11215L250.83183,676.6321L
				251.07186,676.6321L251.07186,676.15205L252.03198,676.15205L252.03198,675.91203L252.51205,675.91203L252.51205,675.43198L252.75208,675.43198
				L252.75208,675.91203L253.23214,675.91203L253.23214,676.15205L254.19226,676.15205L254.19226,676.6321L254.43229,676.6321L254.43229,677.11215
				L254.91235,677.11215L254.91235,677.59221L255.39241,677.59221L255.39241,677.83223L255.87247,677.83223L255.87247,678.31228
				L256.1125,678.31228L256.1125,678.79233L256.59256,678.79233L256.59256,679.27238L257.07262,679.27238L257.07262,678.79233L257.55268,678.79233
				L257.55268,677.59221L257.79272,677.59221L257.79272,675.91203L258.27278,675.91203L258.27278,674.47187L258.75284,674.47187
				L258.75284,673.27174L259.2329,673.27174L259.2329,671.59157L259.47293,671.59157L259.47293,670.39144L259.95299,670.39144L259.95299,668.71126
				L260.43305,668.71126L260.43305,667.51113L260.91311,667.51113L260.91311,665.83095L261.15314,665.83095L261.15314,664.3908L
				261.6332,664.3908L261.6332,663.19067L262.11326,663.19067L262.11326,661.51049L262.59332,661.51049L262.59332,660.31036L262.83335,660.31036
				L262.83335,658.63018L263.31342,658.63018L263.31342,657.43006L263.79348,657.43006L263.79348,655.74988L264.27354,655.74988
				L264.27354,654.30972L264.51357,654.30972L264.51357,653.1096L264.99363,653.1096L264.99363,651.42942L265.47369,651.42942L265.47369,649.26919
				L265.95375,649.26919L265.95375,647.58901L266.19378,647.58901L266.19378,645.90883L266.67384,645.90883L266.67384,644.22865
				L267.1539,644.22865L267.1539,642.06842L267.63396,642.06842L267.63396,639.66816L267.87399,639.66816L267.87399,625.74668L267.63396,625.74668
				L267.63396,619.02596L267.1539,619.02596L267.1539,614.94553L266.67384,614.94553L266.67384,601.74412L267.1539,601.74412L267.1539,596.70359
				L267.63396,596.70359L267.63396,592.62315L267.87399,592.62315L267.87399,587.82264L268.35406,587.82264L268.35406,583.7422L
				268.83412,583.7422L268.83412,579.42174L269.31418,579.42174L269.31418,573.66113L269.55421,573.66113L269.55421,565.50026L270.03427,565.50026
				L270.03427,561.89988L269.55421,561.89988L269.55421,558.77954L269.31418,558.77954L269.31418,556.85934L268.83412,556.85934
				L268.83412,553.73901L268.35406,553.73901L268.35406,550.8587L267.87399,550.8587L267.87399,548.69847L267.63396,548.69847L267.63396,547.01829
				L267.1539,547.01829L267.1539,545.33811L266.67384,545.33811L266.67384,543.65793L266.19378,543.65793L266.19378,542.93786L265.95375,542.93786
				L265.95375,541.73773L265.47369,541.73773L265.47369,540.77763L264.99363,540.77763L264.99363,539.5775L264.51357,539.5775L264.51357,538.6174
				L264.27354,538.6174L264.27354,537.41727L263.79348,537.41727L263.79348,536.69719L263.31342,536.69719L263.31342,535.25704L
				262.83335,535.25704L262.83335,534.53696L262.59332,534.53696L262.59332,533.57686L262.11326,533.57686L262.11326,532.37673L
				261.6332,532.37673L261.6332,531.41663L261.15314,531.41663L261.15314,530.2165L260.91311,530.2165L260.91311,529.49642L260.43305,529.49642
				L260.43305,528.53632L259.95299,528.53632L259.95299,527.33619L259.47293,527.33619L259.47293,526.37609L259.2329,526.37609L
				259.2329,525.17596L258.75284,525.17596L258.75284,524.45589L258.27278,524.45589L258.27278,523.01573L257.79272,523.01573L257.79272,521.81561
				L257.55268,521.81561L257.55268,521.09553L257.07262,521.09553L257.07262,519.65538L256.59256,519.65538L256.59256,518.45525
				L256.1125,518.45525L256.1125,517.73517L255.87247,517.73517L255.87247,516.29502L255.39241,516.29502L255.39241,515.09489L254.91235,515.09489
				L254.91235,513.89476L254.43229,513.89476L254.43229,512.69463L254.19226,512.69463L254.19226,511.01445L253.7122,511.01445L
				253.7122,509.5743L253.23214,509.5743L253.23214,508.37417L252.75208,508.37417L252.75208,507.17405L252.51205,507.17405L252.51205,505.97392
				L252.03198,505.97392L252.03198,504.53376L251.55192,504.53376L251.55192,503.33364L251.07186,503.33364L251.07186,502.61356
				L250.83183,502.61356L250.83183,501.17341L250.35177,501.17341L250.35177,500.45333L249.87171,500.45333L249.87171,499.49323
				L249.39165,499.49323L249.39165,499.2532"/>
		</g>
</g></svg>