<?xml version="1.0" encoding="utf-8" standalone="no"?>
<!-- Creator: ESRI ArcMap 10.0.0.2414 -->
<!DOCTYPE svg PUBLIC "-//W3C//DTD SVG 1.1//EN"  "http://www.w3.org/Graphics/SVG/1.1/DTD/svg11.dtd">
<svg width="595.50236pt" height="595.50236pt" viewBox="25 148.377955 545.50236 545.50236" enable-background="new 25 148.377955 545.50236 545.50236"
	version="1.1" xmlns="http://www.w3.org/2000/svg" xmlns:xlink="http://www.w3.org/1999/xlink" >
	<g id="Couches">
		<g id="reservoirs">
			<path clip-path="url(#SVG_CP_2)" fill-opacity="0.2" fill="#07866D" fill-rule="evenodd" stroke="none" stroke-width="" stra="1.44018" stroke-miterlimit="10" stroke-linecap="round" stroke-linejoin="round" d="
				M271.23442,861.21177L269.07415,859.29157L267.39393,861.21177L144.73837,861.21177L144.9784,857.37136L126.49605,840.08952L
				143.77825,814.40678L143.29819,782.00333L149.53898,775.52264L154.81965,769.76203L157.70001,766.64169L159.86029,764.96152L
				162.02056,763.28134L163.46074,762.32123L160.10032,758.00077L155.29971,752.24016L152.65937,748.63978L149.77901,744.31932L
				147.61873,741.43901L144.25831,737.11855L139.93776,732.55806L136.3373,729.1977L131.77672,724.63722L126.73608,719.83671L40.08509,665.83095
				L54.00685,654.0697L61.92786,646.86893L66.9685,637.74796L45.84582,617.82584L53.76682,608.46484L43.68554,595.26343L58.3274,556.13926
				L61.20777,554.21906L62.40792,553.49898L63.8481,552.77891L64.80822,553.01893L65.76835,553.73901L76.80975,550.13862L82.57048,553.49898
				L191.54431,652.14949L207.38632,666.311L209.54659,663.4307L211.9469,658.39016L215.30732,654.78978L221.54812,646.14885L222.74827,645.90883
				L225.62863,649.02916L228.02894,651.42942L235.46988,643.98862L231.14933,637.98799L239.07034,632.70742L244.11098,629.34706
				L248.43153,625.98671L252.99211,622.38632L253.47217,622.38632L253.7122,622.1463L254.43229,622.62635L261.39317,631.02724L262.59332,632.4674
				L270.03427,628.86701L265.71372,622.86637L266.43381,621.66625L262.11326,615.42558L267.63396,611.58517L274.11479,607.02469
				L284.91616,602.4642L295.4775,598.62379L305.31875,594.78338L318.52042,588.78274L301.47826,558.05947L296.91768,509.5743L296.43762,498.77315
				L297.15771,491.33236L299.55802,482.45141L315.40003,466.12967L332.68222,505.97392L353.32484,495.41279L359.08557,495.41279
				L363.40612,497.57302L370.12697,503.57366L371.80718,503.33364L398.93063,491.57238L403.25117,499.73325L436.13535,487.972L452.93748,481.49131
				L455.09775,480.53121L456.05788,479.5711L456.29791,478.611L456.53794,477.17085L456.05788,474.77059L456.29791,473.33044L457.018,471.89029
				L458.21815,471.17021L459.65833,470.45013L461.81861,475.49067L471.89989,470.93018L469.49958,466.12967L482.70126,460.60908
				L487.0218,471.17021L491.10232,480.29118L492.54251,483.17149L493.50263,486.77187L493.74266,489.41215L493.74266,491.33236L
				493.74266,493.97264L492.54251,497.81305L491.58238,500.69335L492.78254,503.09361L497.34311,511.01445L499.02333,514.13479L
				503.82394,520.61548L497.58315,523.49578L494.22272,526.13607L489.90217,529.97648L484.14144,535.49706L477.42059,542.45781L
				473.10004,546.77827L470.4597,549.41855L468.53946,551.33875L466.61922,553.25896L463.73885,555.89924L459.4183,560.45972L452.21739,567.66049
				L445.9766,574.14118L437.3355,584.94233L434.2151,589.50282L431.09471,593.82328L428.6944,597.90371L426.53413,601.26407L422.21358,609.18492
				L415.49273,620.94617L409.97203,630.78722L403.97127,642.06842L397.73047,653.34962L393.16989,661.27047L389.80947,668.23121
				L386.44904,668.23121L385.48892,667.99118L386.44904,663.67072L381.16837,658.39016L380.20825,655.9899L374.92758,662.23057L
				373.24737,668.47123L373.4874,671.83159L353.8049,675.672L352.36472,675.672L350.44447,676.39208L348.2842,677.11215L346.60399,677.83223
				L344.68374,675.91203L342.52347,677.59221L344.44371,679.99246L343.48359,680.71254L342.52347,682.15269L341.80338,683.35282
				L341.32332,685.51305L341.08328,687.43325L340.60322,688.87341L340.36319,690.07354L340.36319,691.51369L340.60322,693.19387
				L340.84325,694.87405L342.04341,697.2743L343.48359,700.15461L345.1638,703.51497L346.36396,705.43517L347.32408,707.83543L348.04417,709.75563
				L349.00429,712.39591L349.24432,713.59604L350.6845,715.51625L350.92453,715.51625L350.92453,718.63658L349.96441,723.19706L
				348.76426,727.99758L347.56411,732.07801L346.60399,734.95832L339.88313,751.76011L332.68222,765.20154L327.40155,775.04259L
				321.40079,785.60372L317.80033,792.08441L309.15923,807.68607L299.07795,826.40806L292.11707,839.12942L285.63625,850.65065L
				279.87552,861.21177L271.23442,861.21177zM380.44828,614.22545L388.12926,631.26727L394.85011,629.10704L397.73047,627.66689
				L400.37081,625.74668L402.77111,623.82648L404.45133,622.1463L406.37157,620.22609L387.88922,575.82136L367.24661,584.70231L
				380.44828,614.22545z"/>
			<path clip-path="url(#SVG_CP_2)" fill-opacity="0.2" fill="#07866D" fill-rule="evenodd" stroke="none" stroke-width="" stra="1.44018" stroke-miterlimit="10" stroke-linecap="round" stroke-linejoin="round" d="
				M601.9964,113.5321L600.07615,107.05141L601.9964,102.2509L601.9964,113.5321zM601.9964,73.68785L599.83612,68.16726L593.3553,72.72775
				L592.63521,79.92852L580.87372,86.16918L568.39213,83.76893L562.39137,89.52954L559.99106,99.13056L565.27174,115.69233L565.0317,126.73351
				L572.71268,141.61509L579.1935,142.81522L590.2349,169.45806L571.2725,175.21867L560.71116,175.21867L544.62912,168.0179L539.82851,186.25985
				L530.94738,186.7399L504.54403,174.73862L490.1422,196.34092L493.74266,199.22123L490.1422,207.62212L485.34159,205.70192L474.78025,214.58287
				L454.13763,204.98184L440.69593,208.3422L468.53946,257.54744L485.10156,248.6665L491.10232,242.42583L509.34464,237.14527L523.02637,226.82417
				L536.70811,224.90397L536.46808,243.38594L516.30552,254.42711L494.46275,267.14847L481.26107,270.02877L469.01952,270.98888
				L460.85848,269.3087L450.29714,254.42711L439.7358,232.58478L435.17523,214.82289L427.01419,215.30294L440.21587,243.62596L439.49577,260.9078
				L436.61541,273.62916L433.49501,289.71087L413.81251,306.03261L392.4498,318.27392L378.76807,329.79514L364.60627,338.67609L
				343.96365,348.99719L320.20063,360.03837L302.19835,364.1188L302.43838,364.35883L298.83792,365.79898L295.95756,367.23913L295.23747,367.71918
				L291.87704,369.39936L288.51661,371.31957L283.47597,374.4399L279.39546,377.08018L275.07491,376.60013L271.71448,375.88005L
				266.67384,374.67993L260.91311,372.27967L257.31265,370.11944L254.19226,367.71918L251.55192,365.55895L248.1915,362.67865L244.35101,359.07826
				L241.9507,356.43798L238.35025,351.8775L236.91007,349.95729L235.46988,348.27711L231.14933,342.27647L226.82879,335.79578L225.14857,333.39553
				L222.9883,330.03517L221.78815,327.63491L221.30809,325.71471L221.06805,323.55448L219.38784,321.39425L216.74751,318.03389L
				214.58723,319.71407L212.66699,314.19348L210.74674,308.67289L208.8265,302.43223L208.10641,300.03197L206.90626,295.95154L205.70611,292.59118
				L242.6708,270.98888L238.11022,261.86791L232.58952,251.54681L219.8679,259.22762L218.66775,259.9477L210.26668,265.22826L200.42544,271.46893
				L199.94537,269.3087L199.70534,266.18837L199.46531,263.30806L199.22528,260.66778L198.98525,257.06739L198.98525,251.06675L
				199.22528,242.66586L199.46531,236.42519L199.70534,224.66394L199.70534,219.6234L199.70534,215.30294L199.94537,210.26241L200.1854,206.422
				L200.1854,205.22187L200.42544,201.38146L200.9055,195.14079L219.62787,189.38018L224.90854,187.21995L230.42924,185.29975L234.0297,183.85959
				L243.87095,180.01918L259.95299,173.53849L263.55345,172.09834L268.11402,170.17813L279.87552,165.85767L284.19607,164.41752
				L291.63701,177.85895L299.07795,174.4986L302.67841,181.21931L306.5189,179.29911L312.75969,190.34028L315.40003,197.061L317.5603,206.66202
				L318.28039,209.54233L319.48054,210.98248L321.40079,211.94259L326.2014,222.26369L326.92149,223.70384L327.16152,228.0243L328.12164,231.86471
				L329.56182,234.26496L331.7221,237.62532L333.88237,240.50563L336.52271,241.94578L340.60322,244.10601L340.84325,244.34604L
				351.40459,240.02558L353.08481,242.42583L401.0909,221.06356L427.01419,211.22251L414.29258,182.17941L404.45133,166.81778L398.45057,168.49796
				L383.08862,175.93875L363.88618,139.21484L391.24965,130.09386L409.01191,122.65307L407.09166,132.01407L402.29105,134.89437
				L402.29105,141.85512L409.25194,149.05588L438.29562,205.46189L450.77721,199.46126L470.69973,206.18197L478.86077,205.22187
				L486.06168,198.74118L500.46351,170.41816L506.46427,172.33837L529.26717,182.41944L534.54784,179.53913L541.26869,167.29783
				L538.86838,164.41752L543.66899,155.53657L566.71192,145.69553L563.83155,136.81458L558.07082,138.01471L560.95119,143.29527
				L549.18969,140.17494L549.66976,130.81394L532.14753,128.89374L532.14753,120.01279L539.82851,124.8133L549.90979,123.13312L
				553.9903,114.25218L547.02942,108.25154L541.74875,91.20972L549.42972,94.33005L564.31161,76.08811L569.59228,81.36867L580.15362,80.88862
				L588.07463,71.52762L592.15515,65.76701L601.75637,64.08683L601.9964,65.04693L601.9964,73.68785z"/>
		</g>
</g></svg>