<?xml version="1.0" encoding="utf-8" standalone="no"?>
<!-- Creator: ESRI ArcMap 10.0.0.2414 -->
<!DOCTYPE svg PUBLIC "-//W3C//DTD SVG 1.1//EN"  "http://www.w3.org/Graphics/SVG/1.1/DTD/svg11.dtd">
<svg width="595.50236pt" height="595.50236pt" viewBox="25 148.377955 545.50236 545.50236" enable-background="new 25 148.377955 545.50236 545.50236"
	version="1.1" xmlns="http://www.w3.org/2000/svg" xmlns:xlink="http://www.w3.org/1999/xlink" >
	<g id="Couches">
		<g id="cont_2">
			<path clip-path="url(#SVG_CP_2)" fill="none" stroke="#999999" stroke-width="0.96012" stroke-miterlimit="10" stroke-linecap="round" stroke-linejoin="round" d="
				M293.31722,74.88798L293.31722,73.2078L294.99744,73.2078L294.99744,74.88798L293.31722,74.88798"/>
			<path clip-path="url(#SVG_CP_2)" fill="none" stroke="#999999" stroke-width="0.96012" stroke-miterlimit="10" stroke-linecap="round" stroke-linejoin="round" d="
				M473.82013,142.33517L472.13992,142.33517L472.13992,140.65499L473.82013,140.65499L473.82013,142.33517"/>
			<path clip-path="url(#SVG_CP_2)" fill="none" stroke="#999999" stroke-width="0.96012" stroke-miterlimit="10" stroke-linecap="round" stroke-linejoin="round" d="
				M553.03018,182.89949L553.03018,181.21931L554.71039,181.21931L554.71039,182.89949L553.03018,182.89949"/>
			<path clip-path="url(#SVG_CP_2)" fill="none" stroke="#999999" stroke-width="0.96012" stroke-miterlimit="10" stroke-linecap="round" stroke-linejoin="round" d="
				M473.82013,142.33517L475.50034,142.33517L475.50034,144.01535L477.18056,144.01535L477.18056,145.69553L478.86077,145.69553
				L478.86077,147.3757L482.2212,147.3757L482.2212,149.29591L483.90141,149.29591L483.90141,150.97609L485.58162,150.97609L485.58162,152.65627
				L487.26184,152.65627L487.26184,154.33645L488.94205,154.33645L488.94205,156.01663L492.30248,156.01663L492.30248,157.6968L
				493.98269,157.6968L493.98269,159.37698L495.6629,159.37698L495.6629,161.05716L497.58315,161.05716L497.58315,162.73734L499.26336,162.73734
				L499.26336,164.41752L500.94357,164.41752L500.94357,166.0977L504.304,166.0977L504.304,167.77788L505.98421,167.77788L505.98421,169.45806
				L507.66442,169.45806L507.66442,171.13824L509.34464,171.13824L509.34464,172.81842L512.70506,172.81842L512.70506,176.17877
				L514.38528,176.17877L514.38528,177.85895L517.7457,177.85895L517.7457,179.53913L519.42592,179.53913L519.42592,181.21931L521.10613,181.21931
				L521.10613,182.89949L522.78634,182.89949L522.78634,184.57967L524.46656,184.57967L524.46656,186.25985L534.54784,186.25985
				L534.54784,184.57967L541.26869,184.57967L541.26869,182.89949L553.03018,182.89949L553.03018,184.57967L551.34997,184.57967
				L551.34997,187.94003L549.66976,187.94003L549.66976,189.62021L547.98954,189.62021L547.98954,191.30039L546.30933,191.30039
				L546.30933,192.98056L544.62912,192.98056L544.62912,194.66074L542.9489,194.66074L542.9489,198.0211L541.26869,198.0211L541.26869,199.70128
				L539.58848,199.70128L539.58848,201.38146L537.90826,201.38146L537.90826,203.06164L536.22805,203.06164L536.22805,204.74182
				L534.54784,204.74182L534.54784,208.10218L532.86762,208.10218L532.86762,209.78236L531.18741,209.78236L531.18741,213.38274
				L529.5072,213.38274L529.5072,216.7431L527.82698,216.7431L527.82698,218.42328L526.14677,218.42328L526.14677,216.7431L524.46656,216.7431
				L524.46656,215.06292L522.78634,215.06292L522.78634,213.38274L521.10613,213.38274L521.10613,211.46253L517.7457,211.46253L
				517.7457,209.78236L516.06549,209.78236L516.06549,208.10218L514.38528,208.10218L514.38528,206.422L512.70506,206.422L512.70506,203.06164
				L511.02485,203.06164L511.02485,199.70128L509.34464,199.70128L509.34464,198.0211L507.66442,198.0211L507.66442,194.66074L505.98421,194.66074
				L505.98421,192.98056L504.304,192.98056L504.304,189.62021L502.62378,189.62021L502.62378,187.94003L500.94357,187.94003L500.94357,184.57967
				L499.26336,184.57967L499.26336,182.89949L497.58315,182.89949L497.58315,179.53913L495.6629,179.53913L495.6629,176.17877L493.98269,176.17877
				L493.98269,174.4986L492.30248,174.4986L492.30248,171.13824L490.62226,171.13824L490.62226,169.45806L488.94205,169.45806L488.94205,166.0977
				L487.26184,166.0977L487.26184,164.41752L485.58162,164.41752L485.58162,161.05716L483.90141,161.05716L483.90141,159.37698L
				482.2212,159.37698L482.2212,156.01663L480.54098,156.01663L480.54098,152.65627L478.86077,152.65627L478.86077,150.97609L477.18056,150.97609
				L477.18056,147.3757L475.50034,147.3757L475.50034,145.69553L473.82013,145.69553L473.82013,142.33517"/>
			<path clip-path="url(#SVG_CP_2)" fill="none" stroke="#999999" stroke-width="0.96012" stroke-miterlimit="10" stroke-linecap="round" stroke-linejoin="round" d="
				M36.96469,677.11215L36.96469,665.3509L38.6449,665.3509L38.6449,653.34962L36.96469,653.34962L36.96469,649.98926L35.28448,649.98926
				L35.28448,644.94873L33.60426,644.94873L33.60426,641.58837L31.92405,641.58837L31.92405,636.54783L30.24384,636.54783L30.24384,631.50729
				L28.56363,631.50729L28.56363,624.78658L26.88341,624.78658L26.88341,623.1064L28.56363,623.1064L28.56363,621.42622L26.88341,621.42622
				L26.88341,614.7055L25.2032,614.7055L25.2032,613.02533L23.52299,613.02533L23.52299,611.34515L21.84277,611.34515L21.84277,609.66497
				L20.16256,609.66497L20.16256,606.30461L18.48235,606.30461L18.48235,602.94425L16.80213,602.94425L16.80213,595.98351L15.12192,595.98351
				L15.12192,592.62315L13.44171,592.62315L13.44171,585.90243L11.76149,585.90243L11.76149,584.22226L10.08128,584.22226L10.08128,580.8619
				L8.40107,580.8619L8.40107,579.18172L6.72085,579.18172L6.72085,575.82136L5.04064,575.82136L5.04064,572.461L3.36043,572.461
				L3.36043,570.78082L1.68021,570.78082L1.68021,569.10064L0,569.10064L0,567.42047L-1.68021,567.42047L-1.68021,565.74029L-3.36043,565.74029
				L-3.36043,564.06011L-5.04064,564.06011L-5.04064,562.37993L-6.24079,562.37993M-6.24079,159.37698L-3.36043,159.37698L-3.36043,157.6968
				L-1.68021,157.6968L-1.68021,159.37698L0,159.37698L0,157.6968L1.68021,157.6968L1.68021,159.37698L3.36043,159.37698L3.36043,157.6968
				L13.44171,157.6968L13.44171,156.01663L15.12192,156.01663L15.12192,157.6968L16.80213,157.6968L16.80213,156.01663L31.92405,156.01663
				L31.92405,154.33645L59.04749,154.33645L59.04749,156.01663L62.40792,156.01663L62.40792,154.33645L64.08813,154.33645L64.08813,156.01663
				L74.16941,156.01663L74.16941,157.6968L85.93091,157.6968L85.93091,159.37698L92.65176,159.37698L92.65176,161.05716L97.6924,161.05716
				L97.6924,162.73734L101.05282,162.73734L101.05282,164.41752L109.45389,164.41752L109.45389,166.0977L124.81584,166.0977L124.81584,167.77788
				L126.49605,167.77788L126.49605,166.0977L128.17627,166.0977L128.17627,167.77788L134.89712,167.77788L134.89712,169.45806L141.61797,169.45806
				L141.61797,167.77788L144.9784,167.77788L144.9784,166.0977L146.65861,166.0977L146.65861,164.41752L148.33883,164.41752L148.33883,162.73734
				L150.01904,162.73734L150.01904,161.05716L151.69925,161.05716L151.69925,159.37698L153.37946,159.37698L153.37946,157.6968L
				156.73989,157.6968L156.73989,156.01663L160.10032,156.01663L160.10032,154.33645L163.46074,154.33645L163.46074,152.65627L166.82117,152.65627
				L166.82117,150.97609L171.86181,150.97609L171.86181,149.29591L175.46227,149.29591L175.46227,147.3757L178.82269,147.3757L178.82269,145.69553
				L182.18312,145.69553L182.18312,144.01535L185.54355,144.01535L185.54355,142.33517L188.90397,142.33517L188.90397,140.65499
				L192.2644,140.65499L192.2644,138.97481L195.62483,138.97481L195.62483,137.29463L198.98525,137.29463L198.98525,135.61445L202.34568,135.61445
				L202.34568,133.93427L205.70611,133.93427L205.70611,132.25409L209.06653,132.25409L209.06653,130.57391L214.10717,130.57391
				L214.10717,128.89374L217.4676,128.89374L217.4676,127.21356L220.82802,127.21356L220.82802,125.53338L225.86866,125.53338L225.86866,123.8532
				L232.58952,123.8532L232.58952,122.17302L235.94994,122.17302L235.94994,120.49284L237.63016,120.49284L237.63016,118.81266L
				239.31037,118.81266L239.31037,117.13248L241.23061,117.13248L241.23061,115.4523L244.59104,115.4523L244.59104,113.77212L246.27125,113.77212
				L246.27125,112.09195L247.95147,112.09195L247.95147,110.41177L249.63168,110.41177L249.63168,108.73159L251.31189,108.73159
				L251.31189,107.05141L252.99211,107.05141L252.99211,105.37123L254.67232,105.37123L254.67232,103.69105L256.35253,103.69105
				L256.35253,102.01087L258.03275,102.01087L258.03275,100.33069L261.39317,100.33069L261.39317,98.65051L263.07339,98.65051L263.07339,96.97033
				L264.7536,96.97033L264.7536,95.29015L266.43381,95.29015L266.43381,93.60998L268.11402,93.60998L268.11402,91.9298L269.79424,91.9298
				L269.79424,90.24962L273.15466,90.24962L273.15466,88.56944L274.83488,88.56944L274.83488,86.88926L276.51509,86.88926L276.51509,85.20908
				L278.1953,85.20908L278.1953,83.28888L281.55573,83.28888L281.55573,81.6087L283.23594,81.6087L283.23594,79.92852L284.91616,79.92852
				L284.91616,78.24834L288.27658,78.24834L288.27658,76.56816L291.63701,76.56816L291.63701,74.88798L293.31722,74.88798L293.31722,78.24834
				L291.63701,78.24834L291.63701,81.6087L289.9568,81.6087L289.9568,85.20908L288.27658,85.20908L288.27658,88.56944L286.59637,88.56944
				L286.59637,93.60998L284.91616,93.60998L284.91616,96.97033L283.23594,96.97033L283.23594,100.33069L281.55573,100.33069L281.55573,103.69105
				L279.87552,103.69105L279.87552,107.05141L278.1953,107.05141L278.1953,110.41177L276.51509,110.41177L276.51509,113.77212L274.83488,113.77212
				L274.83488,117.13248L273.15466,117.13248L273.15466,122.17302L271.47445,122.17302L271.47445,125.53338L269.79424,125.53338
				L269.79424,128.89374L268.11402,128.89374L268.11402,132.25409L266.43381,132.25409L266.43381,135.61445L264.7536,135.61445L
				264.7536,138.97481L263.07339,138.97481L263.07339,142.33517L261.39317,142.33517L261.39317,145.69553L259.71296,145.69553L259.71296,150.97609
				L258.03275,150.97609L258.03275,154.33645L256.35253,154.33645L256.35253,161.05716L258.03275,161.05716L258.03275,164.41752
				L259.71296,164.41752L259.71296,167.77788L261.39317,167.77788L261.39317,171.13824L263.07339,171.13824L263.07339,174.4986L
				264.7536,174.4986L264.7536,177.85895L266.43381,177.85895L266.43381,181.21931L268.11402,181.21931L268.11402,184.57967L269.79424,184.57967
				L269.79424,187.94003L271.47445,187.94003L271.47445,191.30039L273.15466,191.30039L273.15466,194.66074L274.83488,194.66074
				L274.83488,199.70128L273.15466,199.70128L273.15466,201.38146L271.47445,201.38146L271.47445,203.06164L269.79424,203.06164
				L269.79424,204.74182L268.11402,204.74182L268.11402,206.422L266.43381,206.422L266.43381,208.10218L264.7536,208.10218L264.7536,209.78236
				L263.07339,209.78236L263.07339,211.46253L261.39317,211.46253L261.39317,213.38274L259.71296,213.38274L259.71296,215.06292
				L258.03275,215.06292L258.03275,216.7431L256.35253,216.7431L256.35253,218.42328L254.67232,218.42328L254.67232,221.78363L252.99211,221.78363
				L252.99211,223.46381L251.31189,223.46381L251.31189,225.14399L249.63168,225.14399L249.63168,226.82417L246.27125,226.82417
				L246.27125,228.50435L242.91083,228.50435L242.91083,230.18453L239.31037,230.18453L239.31037,231.86471L235.94994,231.86471
				L235.94994,233.54489L232.58952,233.54489L232.58952,235.22507L230.9093,235.22507L230.9093,240.2656L232.58952,240.2656L232.58952,245.30614
				L234.26973,245.30614L234.26973,252.02686L235.94994,252.02686L235.94994,257.06739L237.63016,257.06739L237.63016,265.46829
				L235.94994,265.46829L235.94994,268.82865L234.26973,268.82865L234.26973,273.86918L232.58952,273.86918L232.58952,275.54936
				L230.9093,275.54936L230.9093,277.22954L229.22909,277.22954L229.22909,279.14975L225.86866,279.14975L225.86866,280.82993L224.18845,280.82993
				L224.18845,282.51011L222.50824,282.51011L222.50824,284.19028L219.14781,284.19028L219.14781,285.87046L217.4676,285.87046L
				217.4676,287.55064L215.78738,287.55064L215.78738,289.23082L212.42696,289.23082L212.42696,290.911L210.74674,290.911L210.74674,292.59118
				L207.38632,292.59118L207.38632,294.27136L205.70611,294.27136L205.70611,295.95154L204.02589,295.95154L204.02589,297.63172
				L200.66547,297.63172L200.66547,299.3119L198.98525,299.3119L198.98525,300.99207L197.30504,300.99207L197.30504,302.67225L193.94461,302.67225
				L193.94461,304.35243L192.2644,304.35243L192.2644,306.03261L190.58419,306.03261L190.58419,307.71279L187.22376,307.71279L187.22376,309.39297
				L185.54355,309.39297L185.54355,311.07315L183.86333,311.07315L183.86333,312.75333L180.50291,312.75333L180.50291,314.43351
				L178.82269,314.43351L178.82269,316.11369L177.14248,316.11369L177.14248,319.47404L182.18312,319.47404L182.18312,321.15422
				L185.54355,321.15422L185.54355,322.8344L188.90397,322.8344L188.90397,324.51458L193.94461,324.51458L193.94461,326.19476L197.30504,326.19476
				L197.30504,327.87494L202.34568,327.87494L202.34568,329.55512L205.70611,329.55512L205.70611,331.2353L209.06653,331.2353L209.06653,332.91548
				L214.10717,332.91548L214.10717,334.59566L217.4676,334.59566L217.4676,336.27583L222.50824,336.27583L222.50824,337.95601L225.86866,337.95601
				L225.86866,339.63619L229.22909,339.63619L229.22909,341.31637L234.26973,341.31637L234.26973,343.23658L237.63016,343.23658
				L237.63016,344.91676L242.91083,344.91676L242.91083,346.59693L246.27125,346.59693L246.27125,348.27711L249.63168,348.27711
				L249.63168,349.95729L254.67232,349.95729L254.67232,351.63747L258.03275,351.63747L258.03275,353.31765L263.07339,353.31765
				L263.07339,354.99783L266.43381,354.99783L266.43381,356.67801L269.79424,356.67801L269.79424,358.35819L274.83488,358.35819
				L274.83488,360.03837L278.1953,360.03837L278.1953,361.71855L283.23594,361.71855L283.23594,363.39872L286.59637,363.39872L286.59637,365.0789
				L289.9568,365.0789L289.9568,366.75908L294.99744,366.75908L294.99744,368.43926L298.35786,368.43926L298.35786,370.11944L303.3985,370.11944
				L303.3985,371.79962L306.99896,371.79962L306.99896,373.4798L310.35939,373.4798L310.35939,375.15998L315.40003,375.15998L315.40003,376.84016
				L318.76045,376.84016L318.76045,378.52034L323.80109,378.52034L323.80109,380.20051L327.16152,380.20051L327.16152,381.88069
				L328.84173,381.88069L328.84173,388.60141L327.16152,388.60141L327.16152,390.28159L325.48131,390.28159L325.48131,391.96177
				L323.80109,391.96177L323.80109,393.64195L322.12088,393.64195L322.12088,395.32213L320.44067,395.32213L320.44067,397.00231
				L318.76045,397.00231L318.76045,398.68248L317.08024,398.68248L317.08024,400.36266L315.40003,400.36266L315.40003,402.04284
				L313.71981,402.04284L313.71981,403.72302L312.0396,403.72302L312.0396,405.4032L310.35939,405.4032L310.35939,407.32341L308.67917,407.32341
				L308.67917,409.00358L306.99896,409.00358L306.99896,410.68376L305.31875,410.68376L305.31875,412.36394L303.3985,412.36394L
				303.3985,414.04412L301.71829,414.04412L301.71829,415.7243L300.03808,415.7243L300.03808,417.40448L298.35786,417.40448L298.35786,419.08466
				L296.67765,419.08466L296.67765,420.76484L294.99744,420.76484L294.99744,422.44502L293.31722,422.44502L293.31722,427.48555
				L291.63701,427.48555L291.63701,430.84591L289.9568,430.84591L289.9568,437.56663L288.27658,437.56663L288.27658,435.88645L286.59637,435.88645
				L286.59637,434.20627L284.91616,434.20627L284.91616,439.24681L283.23594,439.24681L283.23594,445.96752L281.55573,445.96752
				L281.55573,451.00806L279.87552,451.00806L279.87552,456.0486L278.1953,456.0486L278.1953,461.08913L276.51509,461.08913L276.51509,466.12967
				L274.83488,466.12967L274.83488,471.41023L273.15466,471.41023L273.15466,476.45077L271.47445,476.45077L271.47445,483.17149
				L269.79424,483.17149L269.79424,488.21202L268.11402,488.21202L268.11402,493.25256L266.43381,493.25256L266.43381,498.2931L
				264.7536,498.2931L264.7536,503.33364L263.07339,503.33364L263.07339,510.05435L261.39317,510.05435L261.39317,515.09489L259.71296,515.09489
				L259.71296,520.13543L258.03275,520.13543L258.03275,525.17596L256.35253,525.17596L256.35253,526.85614L252.99211,526.85614
				L252.99211,528.53632L251.31189,528.53632L251.31189,530.2165L249.63168,530.2165L249.63168,531.89668L246.27125,531.89668L246.27125,533.57686
				L244.59104,533.57686L244.59104,535.49706L242.91083,535.49706L242.91083,537.17724L237.63016,537.17724L237.63016,535.49706
				L235.94994,535.49706L235.94994,533.57686L234.26973,533.57686L234.26973,531.89668L232.58952,531.89668L232.58952,530.2165L
				230.9093,530.2165L230.9093,528.53632L227.54888,528.53632L227.54888,526.85614L225.86866,526.85614L225.86866,525.17596L224.18845,525.17596
				L224.18845,523.49578L222.50824,523.49578L222.50824,521.81561L220.82802,521.81561L220.82802,520.13543L219.14781,520.13543
				L219.14781,518.45525L215.78738,518.45525L215.78738,516.77507L214.10717,516.77507L214.10717,515.09489L212.42696,515.09489
				L212.42696,513.41471L210.74674,513.41471L210.74674,511.73453L209.06653,511.73453L209.06653,510.05435L207.38632,510.05435
				L207.38632,508.37417L205.70611,508.37417L205.70611,506.69399L202.34568,506.69399L202.34568,505.01382L200.66547,505.01382
				L200.66547,503.33364L198.98525,503.33364L198.98525,501.65346L197.30504,501.65346L197.30504,499.97328L195.62483,499.97328
				L195.62483,496.61292L193.94461,496.61292L193.94461,494.93274L192.2644,494.93274L192.2644,493.25256L190.58419,493.25256L190.58419,491.57238
				L188.90397,491.57238L188.90397,489.8922L187.22376,489.8922L187.22376,488.21202L185.54355,488.21202L185.54355,486.53185L183.86333,486.53185
				L183.86333,484.85167L182.18312,484.85167L182.18312,483.17149L180.50291,483.17149L180.50291,481.49131L178.82269,481.49131
				L178.82269,479.81113L177.14248,479.81113L177.14248,478.13095L175.46227,478.13095L175.46227,476.45077L173.54202,476.45077
				L173.54202,474.77059L171.86181,474.77059L171.86181,473.09041L170.1816,473.09041L170.1816,471.41023L168.50138,471.41023L168.50138,469.49003
				L166.82117,469.49003L166.82117,466.12967L165.14096,466.12967L165.14096,464.44949L163.46074,464.44949L163.46074,462.76931
				L161.78053,462.76931L161.78053,461.08913L160.10032,461.08913L160.10032,459.40896L158.4201,459.40896L158.4201,457.72878L156.73989,457.72878
				L156.73989,456.0486L155.05968,456.0486L155.05968,454.36842L153.37946,454.36842L153.37946,452.68824L151.69925,452.68824L151.69925,451.00806
				L150.01904,451.00806L150.01904,449.32788L148.33883,449.32788L148.33883,447.6477L146.65861,447.6477L146.65861,445.96752L144.9784,445.96752
				L144.9784,444.28734L143.29819,444.28734L143.29819,442.60717L141.61797,442.60717L141.61797,440.92699L139.93776,440.92699L
				139.93776,439.24681L138.25755,439.24681L138.25755,437.56663L136.57733,437.56663L136.57733,435.88645L134.89712,435.88645L
				134.89712,434.20627L133.21691,434.20627L133.21691,432.52609L131.53669,432.52609L131.53669,430.84591L129.85648,430.84591L
				129.85648,429.16573L128.17627,429.16573L128.17627,427.48555L124.81584,427.48555L124.81584,425.80537L119.7752,425.80537L119.7752,427.48555
				L118.09499,427.48555L118.09499,430.84591L116.41477,430.84591L116.41477,434.20627L114.73456,434.20627L114.73456,439.24681
				L113.05435,439.24681L113.05435,442.60717L111.37413,442.60717L111.37413,445.96752L109.45389,445.96752L109.45389,449.32788
				L107.77368,449.32788L107.77368,452.68824L106.09346,452.68824L106.09346,456.0486L104.41325,456.0486L104.41325,459.40896L102.73304,459.40896
				L102.73304,462.76931L101.05282,462.76931L101.05282,466.12967L99.37261,466.12967L99.37261,471.41023L97.6924,471.41023L97.6924,474.77059
				L96.01218,474.77059L96.01218,478.13095L94.33197,478.13095L94.33197,481.49131L92.65176,481.49131L92.65176,484.85167L90.97155,484.85167
				L90.97155,488.21202L89.29133,488.21202L89.29133,491.57238L87.61112,491.57238L87.61112,494.93274L85.93091,494.93274L85.93091,498.2931
				L84.25069,498.2931L84.25069,501.65346L82.57048,501.65346L82.57048,505.01382L80.89027,505.01382L80.89027,508.37417L79.21005,508.37417
				L79.21005,513.41471L77.52984,513.41471L77.52984,516.77507L75.84963,516.77507L75.84963,520.13543L74.16941,520.13543L74.16941,523.49578
				L72.4892,523.49578L72.4892,526.85614L70.80899,526.85614L70.80899,531.89668L69.12877,531.89668L69.12877,535.49706L67.44856,535.49706
				L67.44856,538.85742L65.76835,538.85742L65.76835,545.57814L67.44856,545.57814L67.44856,547.25832L69.12877,547.25832L69.12877,548.9385
				L70.80899,548.9385L70.80899,550.61867L72.4892,550.61867L72.4892,552.29885L74.16941,552.29885L74.16941,553.97903L75.84963,553.97903
				L75.84963,555.65921L77.52984,555.65921L77.52984,557.33939L79.21005,557.33939L79.21005,559.01957L80.89027,559.01957L80.89027,560.69975
				L82.57048,560.69975L82.57048,562.37993L84.25069,562.37993L84.25069,564.06011L85.93091,564.06011L85.93091,565.74029L87.61112,565.74029
				L87.61112,567.42047L89.29133,567.42047L89.29133,569.10064L90.97155,569.10064L90.97155,570.78082L92.65176,570.78082L92.65176,572.461
				L94.33197,572.461L94.33197,574.14118L96.01218,574.14118L96.01218,575.82136L97.6924,575.82136L97.6924,577.50154L99.37261,577.50154
				L99.37261,579.18172L101.05282,579.18172L101.05282,580.8619L102.73304,580.8619L102.73304,582.54208L104.41325,582.54208L104.41325,584.22226
				L106.09346,584.22226L106.09346,585.90243L107.77368,585.90243L107.77368,587.58261L109.45389,587.58261L109.45389,589.26279
				L111.37413,589.26279L111.37413,590.94297L113.05435,590.94297L113.05435,592.62315L114.73456,592.62315L114.73456,594.30333
				L116.41477,594.30333L116.41477,595.98351L118.09499,595.98351L118.09499,597.66369L119.7752,597.66369L119.7752,601.26407L121.45541,601.26407
				L121.45541,602.94425L123.13563,602.94425L123.13563,604.62443L124.81584,604.62443L124.81584,606.30461L126.49605,606.30461
				L126.49605,607.98479L128.17627,607.98479L128.17627,609.66497L129.85648,609.66497L129.85648,611.34515L131.53669,611.34515
				L131.53669,613.02533L133.21691,613.02533L133.21691,614.7055L134.89712,614.7055L134.89712,616.38568L136.57733,616.38568L136.57733,618.06586
				L138.25755,618.06586L138.25755,619.74604L139.93776,619.74604L139.93776,621.42622L141.61797,621.42622L141.61797,623.1064L
				139.93776,623.1064L139.93776,624.78658L138.25755,624.78658L138.25755,626.46676L134.89712,626.46676L134.89712,628.14694L133.21691,628.14694
				L133.21691,629.82712L131.53669,629.82712L131.53669,631.50729L128.17627,631.50729L128.17627,633.18747L126.49605,633.18747
				L126.49605,634.86765L124.81584,634.86765L124.81584,636.54783L121.45541,636.54783L121.45541,638.22801L119.7752,638.22801L
				119.7752,639.90819L118.09499,639.90819L118.09499,641.58837L114.73456,641.58837L114.73456,639.90819L113.05435,639.90819L113.05435,638.22801
				L111.37413,638.22801L111.37413,636.54783L107.77368,636.54783L107.77368,634.86765L106.09346,634.86765L106.09346,633.18747
				L104.41325,633.18747L104.41325,631.50729L102.73304,631.50729L102.73304,629.82712L101.05282,629.82712L101.05282,628.14694
				L97.6924,628.14694L97.6924,626.46676L96.01218,626.46676L96.01218,624.78658L94.33197,624.78658L94.33197,623.1064L92.65176,623.1064
				L92.65176,621.42622L90.97155,621.42622L90.97155,619.74604L87.61112,619.74604L87.61112,618.06586L85.93091,618.06586L85.93091,619.74604
				L84.25069,619.74604L84.25069,621.42622L82.57048,621.42622L82.57048,623.1064L80.89027,623.1064L80.89027,624.78658L79.21005,624.78658
				L79.21005,628.14694L77.52984,628.14694L77.52984,629.82712L75.84963,629.82712L75.84963,631.50729L74.16941,631.50729L74.16941,633.18747
				L72.4892,633.18747L72.4892,634.86765L70.80899,634.86765L70.80899,636.54783L69.12877,636.54783L69.12877,638.22801L67.44856,638.22801
				L67.44856,639.90819L65.76835,639.90819L65.76835,641.58837L64.08813,641.58837L64.08813,643.26855L62.40792,643.26855L62.40792,644.94873
				L60.72771,644.94873L60.72771,646.62891L59.04749,646.62891L59.04749,648.30908L57.36728,648.30908L57.36728,649.98926L55.68707,649.98926
				L55.68707,655.0298L57.36728,655.0298L57.36728,656.70998L59.04749,656.70998L59.04749,658.39016L57.36728,658.39016L57.36728,660.07034
				L55.68707,660.07034L55.68707,661.75052L54.00685,661.75052L54.00685,663.4307L52.32664,663.4307L52.32664,665.3509L50.64643,665.3509
				L50.64643,667.03108L48.96621,667.03108L48.96621,668.71126L47.286,668.71126L47.286,670.39144L45.36576,670.39144L45.36576,672.07162
				L43.68554,672.07162L43.68554,673.7518L40.32512,673.7518L40.32512,675.43198L38.6449,675.43198L38.6449,677.11215L36.96469,677.11215
				"/>
			<path clip-path="url(#SVG_CP_2)" fill="none" stroke="#999999" stroke-width="0.96012" stroke-miterlimit="10" stroke-linecap="round" stroke-linejoin="round" d="
				M36.96469,677.11215L36.96469,683.83287L35.28448,683.83287L35.28448,677.11215L36.96469,677.11215"/>
			<path clip-path="url(#SVG_CP_2)" fill="none" stroke="#999999" stroke-width="0.96012" stroke-miterlimit="10" stroke-linecap="round" stroke-linejoin="round" d="
				M465.41906,861.21177L465.41906,860.97175L467.09928,860.97175L467.09928,859.29157L468.77949,859.29157L468.77949,857.61139
				L470.4597,857.61139L470.4597,854.011L472.13992,854.011L472.13992,848.97047L470.4597,848.97047L470.4597,847.29029L468.77949,847.29029
				L468.77949,845.61011L467.09928,845.61011L467.09928,843.92993L463.73885,843.92993L463.73885,842.24975L462.05864,842.24975
				L462.05864,840.56957L458.69821,840.56957L458.69821,838.88939L457.018,838.88939L457.018,837.20921L453.65757,837.20921L453.65757,835.52904
				L450.29714,835.52904L450.29714,833.84886L448.61693,833.84886L448.61693,832.16868L445.2565,832.16868L445.2565,830.4885L443.57629,830.4885
				L443.57629,828.80832L440.21587,828.80832L440.21587,827.12814L438.53565,827.12814L438.53565,825.44796L435.17523,825.44796
				L435.17523,823.76778L433.49501,823.76778L433.49501,822.0876L431.57477,822.0876L431.57477,820.40742L428.21434,820.40742L428.21434,818.72724
				L426.53413,818.72724L426.53413,817.04707L424.85392,817.04707L424.85392,815.36689L423.1737,815.36689L423.1737,813.68671L424.85392,813.68671
				L424.85392,812.00653L426.53413,812.00653L426.53413,810.32635L428.21434,810.32635L428.21434,806.96599L429.89456,806.96599
				L429.89456,805.28581L431.57477,805.28581L431.57477,803.60563L433.49501,803.60563L433.49501,800.24528L435.17523,800.24528
				L435.17523,798.5651L436.85544,798.5651L436.85544,796.88492L438.53565,796.88492L438.53565,793.52456L440.21587,793.52456L440.21587,791.60435
				L441.89608,791.60435L441.89608,789.92418L443.57629,789.92418L443.57629,786.56382L445.2565,786.56382L445.2565,784.88364L446.93672,784.88364
				L446.93672,783.20346L448.61693,783.20346L448.61693,779.8431L450.29714,779.8431L450.29714,778.16292L451.97736,778.16292L451.97736,776.48274
				L453.65757,776.48274L453.65757,773.12239L455.33778,773.12239L455.33778,769.76203L457.018,769.76203L457.018,764.72149L455.33778,764.72149
				L455.33778,763.04131L453.65757,763.04131L453.65757,759.68095L451.97736,759.68095L451.97736,758.00077L450.29714,758.00077
				L450.29714,756.32059L448.61693,756.32059L448.61693,754.64042L446.93672,754.64042L446.93672,752.96024L445.2565,752.96024L
				445.2565,751.28006L443.57629,751.28006L443.57629,749.59988L441.89608,749.59988L441.89608,747.9197L440.21587,747.9197L440.21587,746.23952
				L438.53565,746.23952L438.53565,744.55934L436.85544,744.55934L436.85544,742.87916L435.17523,742.87916L435.17523,741.19898
				L433.49501,741.19898L433.49501,739.5188L431.57477,739.5188L431.57477,737.83863L429.89456,737.83863L429.89456,736.15845L428.21434,736.15845
				L428.21434,734.47827L426.53413,734.47827L426.53413,732.79809L424.85392,732.79809L424.85392,731.11791L423.1737,731.11791L
				423.1737,729.43773L419.81328,729.43773L419.81328,727.51753L418.13306,727.51753L418.13306,725.83735L416.45285,725.83735L416.45285,724.15717
				L414.77264,724.15717L414.77264,722.47699L411.41221,722.47699L411.41221,720.79681L409.732,720.79681L409.732,719.11663L408.05178,719.11663
				L408.05178,715.75627L406.37157,715.75627L406.37157,714.07609L404.69136,714.07609L404.69136,712.39591L403.01114,712.39591
				L403.01114,707.35538L404.69136,707.35538L404.69136,703.99502L406.37157,703.99502L406.37157,702.31484L408.05178,702.31484
				L408.05178,693.91394L409.732,693.91394L409.732,692.23377L411.41221,692.23377L411.41221,688.87341L413.09242,688.87341L413.09242,687.19323
				L414.77264,687.19323L414.77264,680.47251L416.45285,680.47251L416.45285,678.79233L418.13306,678.79233L418.13306,677.11215
				L419.81328,677.11215L419.81328,675.43198L421.49349,675.43198L421.49349,673.7518L424.85392,673.7518L424.85392,672.07162L428.21434,672.07162
				L428.21434,670.39144L431.57477,670.39144L431.57477,668.71126L433.49501,668.71126L433.49501,667.03108L435.17523,667.03108
				L435.17523,665.3509L436.85544,665.3509L436.85544,663.4307L440.21587,663.4307L440.21587,661.75052L441.89608,661.75052L441.89608,660.07034
				L443.57629,660.07034L443.57629,658.39016L446.93672,658.39016L446.93672,656.70998L450.29714,656.70998L450.29714,655.0298L
				455.33778,655.0298L455.33778,653.34962L453.65757,653.34962L453.65757,651.66944L451.97736,651.66944L451.97736,649.98926L450.29714,649.98926
				L450.29714,648.30908L448.61693,648.30908L448.61693,646.62891L446.93672,646.62891L446.93672,644.94873L445.2565,644.94873L
				445.2565,636.54783L443.57629,636.54783L443.57629,634.86765L441.89608,634.86765L441.89608,633.18747L440.21587,633.18747L440.21587,631.50729
				L438.53565,631.50729L438.53565,629.82712L433.49501,629.82712L433.49501,623.1064L431.57477,623.1064L431.57477,619.74604L429.89456,619.74604
				L429.89456,618.06586L428.21434,618.06586L428.21434,614.7055L426.53413,614.7055L426.53413,611.34515L424.85392,611.34515L424.85392,609.66497
				L423.1737,609.66497L423.1737,607.98479L421.49349,607.98479L421.49349,606.30461L411.41221,606.30461L411.41221,607.98479L406.37157,607.98479
				L406.37157,604.62443L404.69136,604.62443L404.69136,602.94425L403.01114,602.94425L403.01114,601.26407L401.33093,601.26407
				L401.33093,597.66369L399.65072,597.66369L399.65072,595.98351L397.9705,595.98351L397.9705,594.30333L396.29029,594.30333L396.29029,589.26279
				L397.9705,589.26279L397.9705,587.58261L399.65072,587.58261L399.65072,584.22226L401.33093,584.22226L401.33093,582.54208L403.01114,582.54208
				L403.01114,580.8619L404.69136,580.8619L404.69136,579.18172L406.37157,579.18172L406.37157,577.50154L409.732,577.50154L409.732,575.82136
				L413.09242,575.82136L413.09242,574.14118L414.77264,574.14118L414.77264,572.461L416.45285,572.461L416.45285,570.78082L418.13306,570.78082
				L418.13306,569.10064L416.45285,569.10064L416.45285,567.42047L414.77264,567.42047L414.77264,565.74029L413.09242,565.74029
				L413.09242,564.06011L411.41221,564.06011L411.41221,562.37993L409.732,562.37993L409.732,560.69975L408.05178,560.69975L408.05178,559.01957
				L406.37157,559.01957L406.37157,555.65921L404.69136,555.65921L404.69136,557.33939L403.01114,557.33939L403.01114,560.69975
				L401.33093,560.69975L401.33093,562.37993L399.65072,562.37993L399.65072,565.74029L396.29029,565.74029L396.29029,564.06011
				L394.61008,564.06011L394.61008,562.37993L392.92986,562.37993L392.92986,559.01957L391.24965,559.01957L391.24965,557.33939
				L389.56944,557.33939L389.56944,555.65921L387.88922,555.65921L387.88922,553.97903L386.20901,553.97903L386.20901,550.61867
				L384.5288,550.61867L384.5288,545.57814L382.84859,545.57814L382.84859,540.5376L384.5288,540.5376L384.5288,538.85742L386.20901,538.85742
				L386.20901,537.17724L387.88922,537.17724L387.88922,535.49706L389.56944,535.49706L389.56944,533.57686L391.24965,533.57686
				L391.24965,530.2165L392.92986,530.2165L392.92986,528.53632L394.61008,528.53632L394.61008,520.13543L392.92986,520.13543L392.92986,518.45525
				L391.24965,518.45525L391.24965,516.77507L389.56944,516.77507L389.56944,515.09489L387.88922,515.09489L387.88922,511.73453
				L372.76731,511.73453L372.76731,513.41471L369.40688,513.41471L369.40688,515.09489L365.80642,515.09489L365.80642,516.77507
				L364.12621,516.77507L364.12621,515.09489L362.446,515.09489L362.446,513.41471L360.76578,513.41471L360.76578,511.73453L359.08557,511.73453
				L359.08557,510.05435L355.72514,510.05435L355.72514,506.69399L357.40536,506.69399L357.40536,505.01382L359.08557,505.01382
				L359.08557,501.65346L360.76578,501.65346L360.76578,499.97328L362.446,499.97328L362.446,491.57238L360.76578,491.57238L360.76578,486.53185
				L359.08557,486.53185L359.08557,484.85167L357.40536,484.85167L357.40536,481.49131L355.72514,481.49131L355.72514,479.81113
				L354.04493,479.81113L354.04493,478.13095L352.36472,478.13095L352.36472,476.45077L349.00429,476.45077L349.00429,474.77059
				L345.64386,474.77059L345.64386,473.09041L342.28344,473.09041L342.28344,471.41023L338.92301,471.41023L338.92301,469.49003
				L337.2428,469.49003L337.2428,467.80985L335.56258,467.80985L335.56258,466.12967L332.20216,466.12967L332.20216,464.44949L330.52194,464.44949
				L330.52194,462.76931L327.16152,462.76931L327.16152,461.08913L325.48131,461.08913L325.48131,459.40896L322.12088,459.40896
				L322.12088,457.72878L320.44067,457.72878L320.44067,456.0486L317.08024,456.0486L317.08024,454.36842L315.40003,454.36842L315.40003,452.68824
				L312.0396,452.68824L312.0396,451.00806L310.35939,451.00806L310.35939,449.32788L306.99896,449.32788L306.99896,447.6477L305.31875,447.6477
				L305.31875,445.96752L301.71829,445.96752L301.71829,444.28734L298.35786,444.28734L298.35786,442.60717L296.67765,442.60717
				L296.67765,440.92699L293.31722,440.92699L293.31722,439.24681L291.63701,439.24681L291.63701,435.88645L293.31722,435.88645
				L293.31722,434.20627L294.99744,434.20627L294.99744,432.52609L296.67765,432.52609L296.67765,430.84591L298.35786,430.84591
				L298.35786,429.16573L300.03808,429.16573L300.03808,427.48555L301.71829,427.48555L301.71829,425.80537L303.3985,425.80537L
				303.3985,424.1252L305.31875,424.1252L305.31875,422.44502L306.99896,422.44502L306.99896,420.76484L308.67917,420.76484L308.67917,419.08466
				L310.35939,419.08466L310.35939,417.40448L312.0396,417.40448L312.0396,415.7243L313.71981,415.7243L313.71981,414.04412L315.40003,414.04412
				L315.40003,412.36394L317.08024,412.36394L317.08024,410.68376L318.76045,410.68376L318.76045,409.00358L320.44067,409.00358
				L320.44067,407.32341L322.12088,407.32341L322.12088,405.4032L323.80109,405.4032L323.80109,403.72302L325.48131,403.72302L325.48131,402.04284
				L327.16152,402.04284L327.16152,390.28159L328.84173,390.28159L328.84173,388.60141L330.52194,388.60141L330.52194,383.56087
				L335.56258,383.56087L335.56258,385.24105L338.92301,385.24105L338.92301,386.92123L343.96365,386.92123L343.96365,388.60141
				L347.32408,388.60141L347.32408,390.28159L350.6845,390.28159L350.6845,391.96177L355.72514,391.96177L355.72514,393.64195L359.08557,393.64195
				L359.08557,395.32213L364.12621,395.32213L364.12621,397.00231L367.48664,397.00231L367.48664,398.68248L372.76731,398.68248
				L372.76731,400.36266L376.12773,400.36266L376.12773,402.04284L379.48816,402.04284L379.48816,403.72302L384.5288,403.72302L
				384.5288,405.4032L387.88922,405.4032L387.88922,407.32341L392.92986,407.32341L392.92986,409.00358L396.29029,409.00358L396.29029,410.68376
				L399.65072,410.68376L399.65072,412.36394L404.69136,412.36394L404.69136,414.04412L408.05178,414.04412L408.05178,415.7243L
				413.09242,415.7243L413.09242,417.40448L416.45285,417.40448L416.45285,419.08466L419.81328,419.08466L419.81328,420.76484L424.85392,420.76484
				L424.85392,422.44502L428.21434,422.44502L428.21434,424.1252L433.49501,424.1252L433.49501,425.80537L436.85544,425.80537L436.85544,427.48555
				L440.21587,427.48555L440.21587,429.16573L445.2565,429.16573L445.2565,430.84591L448.61693,430.84591L448.61693,432.52609L453.65757,432.52609
				L453.65757,434.20627L457.018,434.20627L457.018,435.88645L460.37842,435.88645L460.37842,437.56663L465.41906,437.56663L465.41906,439.24681
				L468.77949,439.24681L468.77949,440.92699L472.13992,440.92699L472.13992,442.60717L477.18056,442.60717L477.18056,444.28734
				L480.54098,444.28734L480.54098,445.96752L483.90141,445.96752L483.90141,447.6477L487.26184,447.6477L487.26184,449.32788L490.62226,449.32788
				L490.62226,451.00806L493.98269,451.00806L493.98269,452.68824L497.58315,452.68824L497.58315,454.36842L502.62378,454.36842
				L502.62378,456.0486L505.98421,456.0486L505.98421,457.72878L509.34464,457.72878L509.34464,459.40896L512.70506,459.40896L512.70506,461.08913
				L516.06549,461.08913L516.06549,462.76931L519.42592,462.76931L519.42592,464.44949L524.46656,464.44949L524.46656,466.12967
				L527.82698,466.12967L527.82698,467.80985L531.18741,467.80985L531.18741,469.49003L534.54784,469.49003L534.54784,471.41023
				L537.90826,471.41023L537.90826,473.09041L541.26869,473.09041L541.26869,474.77059L544.62912,474.77059L544.62912,476.45077
				L549.66976,476.45077L549.66976,478.13095L553.03018,478.13095L553.03018,479.81113L556.39061,479.81113L556.39061,481.49131
				L559.75103,481.49131L559.75103,483.17149L563.35149,483.17149L563.35149,484.85167L566.71192,484.85167L566.71192,486.53185
				L571.75256,486.53185L571.75256,488.21202L575.11298,488.21202L575.11298,489.8922L578.47341,489.8922L578.47341,491.57238L581.83384,491.57238
				L581.83384,493.25256L585.19426,493.25256L585.19426,494.93274L588.55469,494.93274L588.55469,496.61292L591.91512,496.61292
				L591.91512,498.2931L596.95576,498.2931L596.95576,499.97328L600.31618,499.97328L600.31618,501.65346L601.9964,501.65346M573.43277,861.21177
				L573.43277,860.97175L570.07234,860.97175L570.07234,859.29157L568.39213,859.29157L568.39213,857.61139L566.71192,857.61139
				L566.71192,855.69118L565.0317,855.69118L565.0317,854.011L566.71192,854.011L566.71192,848.97047L568.39213,848.97047L568.39213,842.24975
				L565.0317,842.24975L565.0317,840.56957L561.67128,840.56957L561.67128,838.88939L559.75103,838.88939L559.75103,837.20921L556.39061,837.20921
				L556.39061,835.52904L553.03018,835.52904L553.03018,833.84886L549.66976,833.84886L549.66976,832.16868L546.30933,832.16868
				L546.30933,835.52904L544.62912,835.52904L544.62912,837.20921L542.9489,837.20921L542.9489,840.56957L541.26869,840.56957L541.26869,842.24975
				L539.58848,842.24975L539.58848,845.61011L537.90826,845.61011L537.90826,847.29029L536.22805,847.29029L536.22805,848.97047
				L534.54784,848.97047L534.54784,852.33083L532.86762,852.33083L532.86762,854.011L531.18741,854.011L531.18741,857.61139L529.5072,857.61139
				L529.5072,859.29157L527.82698,859.29157L527.82698,861.21177"/>
		</g>
</g></svg>