<?xml version="1.0" encoding="utf-8" standalone="no"?>
<!-- Creator: ESRI ArcMap 10.0.0.2414 -->
<!DOCTYPE svg PUBLIC "-//W3C//DTD SVG 1.1//EN"  "http://www.w3.org/Graphics/SVG/1.1/DTD/svg11.dtd">
<svg width="595.50236pt" height="595.50236pt" viewBox="25 148.377955 545.50236 545.50236" enable-background="new 25 148.377955 545.50236 545.50236"
	version="1.1" xmlns="http://www.w3.org/2000/svg" xmlns:xlink="http://www.w3.org/1999/xlink" >
	<g id="Couches">
		<g id="reservoirs">
			<path clip-path="url(#SVG_CP_2)" fill-opacity="0.2" fill="#07866D" fill-rule="evenodd" stroke="none" stroke-width="" stra="1.44018" stroke-miterlimit="10" stroke-linecap="round" stroke-linejoin="round" d="
				M601.9964,640.38824L598.15591,644.22865L594.79548,647.58901L591.43506,650.94937L586.63445,655.74988L578.95347,663.4307L566.47189,676.15205
				L555.91055,687.43325L540.78863,706.39527L535.0279,714.07609L529.98726,721.51689L525.66671,728.71765L521.82622,734.71829L
				514.38528,748.39975L502.62378,769.04195L493.02257,786.08377L482.46123,805.52584L471.41983,825.44796L463.97888,839.12942L
				458.21815,851.1307L452.21739,851.37072L450.29714,850.89067L451.97736,843.44988L442.8562,834.32891L441.41602,830.00845L431.8148,840.56957
				L428.93443,851.85077L429.41449,857.61139L410.45209,861.21177L-6.24079,861.21177L-6.24079,715.27622L112.81432,823.04771L140.41782,847.77034
				L144.25831,842.7298L148.57886,834.08888L154.33959,827.84822L165.14096,812.72661L166.82117,812.48658L172.10184,817.52712L
				176.42239,822.0876L189.38403,809.12622L181.70306,798.5651L195.3848,789.44412L204.50595,783.44348L211.9469,777.9229L219.8679,771.44221
				L220.34796,771.20218L221.06805,770.96215L222.26821,771.92226L234.50976,786.56382L236.43,788.72405L249.39165,782.48338L241.9507,772.40231
				L243.15086,770.24208L235.46988,759.44093L245.31113,752.48019L256.59256,744.79937L275.31494,736.6385L293.55725,729.91778L
				310.59942,723.19706L333.88237,713.11599L303.87856,659.35026L296.43762,575.10128L295.4775,556.13926L296.67765,543.17788L300.75817,527.57622
				L328.6017,499.2532L358.60551,568.86062L394.37005,550.37865L404.2113,550.13862L411.89227,553.97903L423.65376,564.54016L426.53413,564.30013
				L474.06016,543.41791L481.26107,557.81944L538.62835,537.41727L567.67204,525.89604L571.51253,524.45589L573.19274,522.77571
				L573.91283,521.09553L573.91283,518.69527L573.43277,514.61484L573.6728,511.97456L574.87295,509.33428L576.7932,507.89412L579.43353,506.93402
				L583.27402,515.81497L600.79624,507.89412L596.71573,499.49323L601.9964,497.333L601.9964,640.38824zM441.41602,757.2807L454.85772,786.80384
				L466.61922,783.20346L471.65986,780.56318L476.46046,777.44285L480.54098,774.08249L483.66138,770.96215L486.78177,767.84182
				L454.37766,690.31356L418.61312,705.91522L441.41602,757.2807z"/>
			<path clip-path="url(#SVG_CP_2)" fill-opacity="0.2" fill="#07866D" fill-rule="evenodd" stroke="none" stroke-width="" stra="1.44018" stroke-miterlimit="10" stroke-linecap="round" stroke-linejoin="round" d="
				M601.9964,59.52634L570.07234,44.64476L546.30933,50.6454L595.03551,136.0945L601.9964,132.49412L601.9964,159.13696L595.7556,159.85704
				L581.35378,156.49668L563.11146,130.81394L545.10918,92.64987L536.94814,61.68657L522.54631,62.64668L545.82927,112.09195L544.62912,141.85512
				L539.34845,164.41752L533.82774,192.02046L499.74342,220.58351L462.5387,241.94578L438.77568,262.10793L414.05254,277.46957L
				378.04798,295.47149L336.76274,314.67353L305.55878,321.8743L305.79881,322.11433L299.55802,324.75461L294.51738,327.15486L293.07719,327.87494
				L287.31646,330.99527L281.79576,334.1156L272.6746,339.87622L265.71372,344.19668L258.27278,343.4766L252.27201,342.03645L243.63092,339.87622
				L233.54964,336.03581L227.30885,331.95537L222.02818,328.11496L217.4676,324.51458L211.46684,319.47404L204.50595,312.99335L
				200.42544,308.19284L194.42467,300.51202L191.54431,297.15167L189.144,294.27136L181.94309,283.71023L174.26211,272.66906L171.38175,268.3486
				L167.54126,262.34796L165.38099,258.26752L164.42087,254.90716L164.18084,251.30678L161.06044,247.22635L156.73989,241.70576
				L153.13943,244.34604L149.53898,234.98504L146.41858,225.38402L143.05815,214.58287L141.61797,210.02238L139.4577,202.82161L
				137.53745,197.54105L201.86562,159.85704L193.94461,143.77532L184.34339,125.7734L161.78053,139.45486L159.86029,140.65499L145.21843,149.77596
				L128.17627,160.57711L127.45618,156.7367L126.97611,151.45614L126.49605,146.4156L126.01599,141.61509L125.77596,135.37443L125.77596,125.05333
				L126.01599,110.17174L126.49605,99.37059L126.73608,78.96842L126.97611,70.32749L126.97611,62.64668L127.21614,53.76573L127.69621,47.04501
				L127.93624,45.12481L128.4163,38.64412L129.13639,27.60294L161.78053,17.52187L170.90169,13.92148L180.74294,10.3211L186.50367,7.92084
				L203.78586,1.20013L231.86943,-10.08107L238.35025,-12.72136L246.03122,-15.84169L253.95223,-18.722L277.95527,-18.722L287.07643,-2.16023
				L300.03808,-8.4009L306.27887,3.36036L312.75969,0L324.04112,19.20205L328.36167,30.72327L331.96213,47.52506L333.40231,52.80563
				L335.56258,55.20588L338.68298,56.64604L347.32408,74.88798L348.52423,77.28824L349.00429,84.72903L350.44447,91.44975L353.32484,96.01023
				L356.68526,101.77085L360.52575,106.57136L365.08633,109.21164L372.52728,113.05205L391.00962,105.61125L393.88999,109.93171
				L477.42059,72.48772L522.78634,55.44591L500.46351,5.04054L485.34159,-18.722L509.34464,-18.722L542.22881,45.36483L564.07158,35.28376
				L598.876,46.80499L601.9964,46.56496L601.9964,59.52634zM472.61998,-18.722L446.21663,-5.76061L439.49577,-18.722L472.61998,-18.722
				z"/>
		</g>
</g></svg>