<?xml version="1.0" encoding="utf-8" standalone="no"?>
<!-- Creator: ESRI ArcMap 10.0.0.2414 -->
<!DOCTYPE svg PUBLIC "-//W3C//DTD SVG 1.1//EN"  "http://www.w3.org/Graphics/SVG/1.1/DTD/svg11.dtd">
<svg width="595.50236pt" height="595.50236pt" viewBox="25 148.377955 545.50236 545.50236" enable-background="new 25 148.377955 545.50236 545.50236"
	version="1.1" xmlns="http://www.w3.org/2000/svg" xmlns:xlink="http://www.w3.org/1999/xlink" >
	<g id="Couches">
		<g id="reservoirs">
			<clipPath id="SVG_CP_2">
				<path d="M574.39289,21.36228L21.36271,21.36228L21.36271,821.36753L574.39289,821.36753L574.39289,21.36228z"/>
			</clipPath>
			<path clip-path="url(#SVG_CP_2)" fill-opacity="0.08" fill="#2f4493" fill-rule="evenodd" stroke="#2f4493" stroke-width="1" stra="1.44018" stroke-miterlimit="10" stroke-linecap="round" stroke-linejoin="round" d="
				M-6.24079,123.13312L12.96165,137.29463L42.72542,163.45742L123.37566,257.06739L199.70534,351.63747L231.38936,394.84208L271.71448,451.00806
				L338.44295,557.33939L412.61236,681.67264L463.01876,777.68287L507.90446,861.21177L397.01038,861.21177L249.39165,668.71126
				L151.21919,745.99949L131.05663,758.2408L118.33502,759.92098L99.13258,759.44093L103.2131,747.19962L126.97611,685.51305L163.22071,600.54399
				L200.42544,614.94553L292.3571,607.02469L272.6746,530.45653L243.63092,485.81177L171.38175,396.28223L117.3749,338.67609L94.81203,310.35307
				L52.32664,344.91676L75.12953,372.99975L41.28524,400.60269L-6.24079,346.83696L-6.24079,123.13312z"/>
			<path clip-path="url(#SVG_CP_2)" fill-opacity="0.08" fill="#2f4493" fill-rule="evenodd" stroke="#2f4493" stroke-width="1" stra="1.44018" stroke-miterlimit="10" stroke-linecap="round" stroke-linejoin="round" d="
				M601.9964,450.28798L413.33245,447.6477L268.83412,247.94642L325.48131,144.01535L333.40231,120.49284L282.03579,127.45358L232.58952,134.41432
				L157.70001,100.81074L116.89483,79.68849L144.25831,19.92212L136.57733,-18.722L601.9964,-18.722L601.9964,450.28798z"/>
		</g>
</g></svg>