<?xml version="1.0" encoding="utf-8" standalone="no"?>
<!-- Creator: ESRI ArcMap 10.0.0.2414 -->
<!DOCTYPE svg PUBLIC "-//W3C//DTD SVG 1.1//EN"  "http://www.w3.org/Graphics/SVG/1.1/DTD/svg11.dtd">
<svg width="595.50236pt" height="595.50236pt" viewBox="25 148.377955 545.50236 545.50236" enable-background="new 25 148.377955 545.50236 545.50236"
	version="1.1" xmlns="http://www.w3.org/2000/svg" xmlns:xlink="http://www.w3.org/1999/xlink" >
	<g id="Couches">
		<g id="reservoirs">
			<clipPath id="SVG_CP_2">
				<path d="M574.39289,21.36228L21.36271,21.36228L21.36271,821.36753L574.39289,821.36753L574.39289,21.36228z"/>
			</clipPath>
			<path clip-path="url(#SVG_CP_2)" fill-opacity="0.08" fill="#2f4493" fill-rule="evenodd" stroke="#2f4493" stroke-width="1" stra="1.44018" stroke-miterlimit="10" stroke-linecap="round" stroke-linejoin="round" d="
				M-6.24079,554.93914L-2.88037,552.29885L4.80061,546.77827L13.44171,538.85742L19.44247,534.05691L25.92329,529.49642L30.7239,525.65601
				L33.60426,524.21586L36.72466,522.77571L40.80518,520.8555L47.76606,517.9752L53.52679,514.37481L56.40716,512.69463L58.56743,511.73453
				L62.64795,510.77443L68.40868,510.5344L74.16941,510.77443L79.69011,511.01445L88.33121,512.21458L96.73228,513.41471L102.25298,514.61484
				L108.25374,516.29502L115.93471,518.21522L120.01523,518.69527L124.33578,518.69527L131.53669,516.77507L150.4991,510.29438L
				153.37946,509.33428L156.25983,508.85422L160.58038,508.6142L162.74065,508.6142L170.1816,508.85422L174.02208,508.37417L180.26288,507.41407
				L182.90321,506.69399L189.38403,505.01382L204.50595,500.2133L215.54735,497.57302L226.10869,495.17277L229.46912,494.69272L
				231.86943,493.97264L234.0297,493.97264L239.07034,494.21266L242.91083,495.65282L248.1915,497.09297L250.5918,497.81305L252.03198,500.93338
				L254.91235,509.33428L256.1125,513.41471L258.51281,519.8954L259.95299,523.73581L264.99363,535.73709L267.1539,541.01765L268.11402,544.61804
				L268.83412,548.45844L269.31418,551.33875L269.55421,553.97903L270.51433,557.81944L270.51433,561.1798L270.2743,568.14054L269.79424,574.14118
				L268.11402,591.90307L267.39393,599.58389L267.1539,603.66433L267.39393,607.98479L267.63396,613.02533L268.11402,617.10576L
				268.59409,626.46676L268.59409,632.70742L268.35406,636.06778L267.39393,640.62827L265.71372,647.82903L258.03275,674.23185L
				253.47217,669.91139L244.35101,678.55231L240.99058,681.67264L240.75055,681.43261L239.07034,683.11279L235.22985,688.87341L
				231.62939,694.15397L229.46912,697.2743L222.9883,693.19387L215.06729,688.63338L210.26668,685.75307L206.18617,683.59284L201.14553,681.91267
				L195.62483,680.71254L183.38327,678.55231L175.7023,677.83223L172.34187,677.11215L169.94157,676.6321L167.78129,676.15205L166.34111,675.43198
				L149.29895,668.47123L142.57809,666.07098L134.17703,664.15077L128.4163,663.4307L123.37566,662.47059L119.7752,661.27047L105.6134,655.9899
				L93.61188,650.46932L92.89179,651.90947L92.89179,652.14949L91.69164,654.54975L90.49148,656.22993L88.33121,660.55039L84.25069,663.91075
				L78.72999,667.75116L61.68783,681.19259L57.12725,686.23313L49.68631,699.19451L16.08204,739.5188L6.00076,762.32123L-2.16027,782.72341
				L-4.08052,782.48338L-6.24079,782.00333L-6.24079,554.93914z"/>
			<path clip-path="url(#SVG_CP_2)" fill-opacity="0.08" fill="#2f4493" fill-rule="evenodd" stroke="#2f4493" stroke-width="1" stra="1.44018" stroke-miterlimit="10" stroke-linecap="round" stroke-linejoin="round" d="
				M313.95984,203.54169L317.80033,243.86599L324.76121,272.66906L325.72134,275.06931L329.32179,273.38913L331.7221,279.14975L
				336.04265,292.8312L341.80338,306.03261L346.36396,315.15358L353.32484,320.43415L361.00581,325.95473L356.44523,333.39553L351.40459,340.83632
				L347.80414,345.39681L345.88389,347.79706L345.1638,348.99719L342.04341,347.07699L338.92301,345.63683L327.40155,335.55576L
				319.48054,328.59502L311.55954,322.11433L306.5189,319.47404L292.59713,305.79259L277.95527,290.911L250.11174,264.74821L235.94994,248.90652
				L259.2329,223.46381L262.83335,219.86343L269.31418,220.82353L274.59485,223.22379L276.27506,225.38402L277.23518,224.42392L
				282.75588,227.0642L286.8364,227.0642L309.87933,203.54169L313.95984,203.54169z"/>
		</g>
</g></svg>