<?xml version="1.0" encoding="utf-8" standalone="no"?>
<!-- Creator: ESRI ArcMap 10.0.0.2414 -->
<!DOCTYPE svg PUBLIC "-//W3C//DTD SVG 1.1//EN"  "http://www.w3.org/Graphics/SVG/1.1/DTD/svg11.dtd">
<svg width="595.50236pt" height="595.50236pt" viewBox="25 148.377955 545.50236 545.50236" enable-background="new 25 148.377955 545.50236 545.50236"
	version="1.1" xmlns="http://www.w3.org/2000/svg" xmlns:xlink="http://www.w3.org/1999/xlink" >
	<g id="Couches">
		<g id="reservoirs">
			<path clip-path="url(#SVG_CP_2)" fill-opacity="0.2" fill="#07866D" fill-rule="evenodd" stroke="none" stroke-width="" stra="1.44018" stroke-miterlimit="10" stroke-linecap="round" stroke-linejoin="round" d="
				M349.00429,585.66241L392.68983,674.95192L405.17142,687.67328L421.97355,704.95512L377.56791,719.11663L359.3256,705.43517L
				318.76045,674.23185L292.3571,636.78786L270.03427,604.86446L203.54583,633.18747L156.25983,653.1096L146.89864,628.62699L138.01752,601.5041
				L137.05739,598.86382L137.05739,598.62379L137.53745,554.45908L152.17931,544.61804L320.20063,496.61292L368.92682,571.02085
				L368.92682,571.26087L349.00429,585.66241L349.00429,585.66241z"/>
			<path clip-path="url(#SVG_CP_2)" fill-opacity="0.2" fill="#07866D" fill-rule="evenodd" stroke="none" stroke-width="" stra="1.44018" stroke-miterlimit="10" stroke-linecap="round" stroke-linejoin="round" d="
				M115.21462,-18.722L207.62635,180.01918L239.5504,248.6665L281.55573,346.11688L108.97383,392.44182L-6.24079,414.28415L-6.24079,-18.722
				L115.21462,-18.722z"/>
		</g>
</g></svg>