<?xml version="1.0" encoding="utf-8" standalone="no"?>
<!-- Creator: ESRI ArcMap 10.0.0.2414 -->
<!DOCTYPE svg PUBLIC "-//W3C//DTD SVG 1.1//EN"  "http://www.w3.org/Graphics/SVG/1.1/DTD/svg11.dtd">
<svg width="595.50236pt" height="595.50236pt" viewBox="25 148.377955 545.50236 545.50236" enable-background="new 25 148.377955 545.50236 545.50236"
	version="1.1" xmlns="http://www.w3.org/2000/svg" xmlns:xlink="http://www.w3.org/1999/xlink" >
	<g id="Couches">
		<g id="cont_2">
			<path clip-path="url(#SVG_CP_2)" fill="none" stroke="#999999" stroke-width="0.96012" stroke-miterlimit="10" stroke-linecap="round" stroke-linejoin="round" d="
				M297.8778,404.92315L297.8778,405.16318L297.8778,404.92315"/>
			<path clip-path="url(#SVG_CP_2)" fill="none" stroke="#999999" stroke-width="0.96012" stroke-miterlimit="10" stroke-linecap="round" stroke-linejoin="round" d="
				M300.51814,377.80026L300.27811,377.80026L300.27811,378.04028L300.03808,378.04028L300.03808,378.28031L299.79805,378.28031
				L299.79805,378.52034L299.55802,378.52034L299.55802,378.76036L299.31798,378.76036L299.31798,379.00039L299.07795,379.00039
				L299.07795,379.24041L298.83792,379.24041L298.83792,379.48044L298.59789,379.48044L298.59789,379.72046L298.35786,379.72046
				L298.35786,379.96049L298.11783,379.96049L298.11783,380.20051L297.8778,380.20051L297.8778,404.68312L297.8778,404.92315L297.63777,404.92315
				L297.63777,405.16318L297.39774,405.16318L297.39774,406.12328L297.15771,406.12328L297.15771,407.56343L297.15771,408.52353
				L296.91768,408.52353L296.91768,409.48364L296.67765,409.48364L296.67765,409.96369L296.67765,410.20371L296.43762,410.20371
				L296.43762,410.44374L296.19759,410.44374L296.19759,410.68376L295.95756,410.68376L295.95756,410.92379L295.71753,410.92379
				L295.71753,411.16381L295.71753,411.40384L295.4775,411.40384L295.4775,466.3697L295.23747,466.3697L294.99744,466.3697L294.99744,466.60972
				L294.75741,466.60972L294.51738,466.60972L294.51738,466.84975L294.27735,466.84975L294.27735,467.08977L294.03731,467.08977
				L293.79728,467.08977L293.79728,467.3298L293.55725,467.3298L293.55725,467.56983L293.31722,467.56983L293.07719,467.56983L293.07719,467.80985
				L292.83716,467.80985L292.83716,468.04988L292.59713,468.04988L292.3571,468.04988L292.3571,468.2899L292.11707,468.2899L291.87704,468.2899
				L291.87704,468.52993L291.63701,468.52993L291.63701,468.76995L291.39698,468.76995L291.39698,469.00998L291.15695,469.00998
				L291.15695,469.25L290.91692,469.25L290.67689,469.25L290.67689,469.49003L290.43686,469.49003L290.43686,469.73006L290.19683,469.73006
				L290.19683,469.97008L289.9568,469.97008L289.71677,469.97008L289.71677,470.21011L289.47674,470.21011L289.47674,470.45013L
				289.23671,470.45013L288.99668,470.45013L288.99668,470.69016L288.75664,470.69016L288.51661,470.69016L288.51661,470.93018L
				288.27658,470.93018L288.03655,470.93018L288.03655,471.17021L287.79652,471.17021L287.79652,471.41023L287.55649,471.41023L
				287.31646,471.41023L287.31646,471.65026L287.07643,471.65026L286.8364,471.65026L286.8364,471.89029L286.59637,471.89029L286.35634,471.89029
				L286.35634,472.13031L286.11631,472.13031L286.11631,472.37034L285.87628,472.37034L285.63625,472.37034L285.63625,472.61036
				L285.39622,472.61036L285.15619,472.61036L285.15619,472.85039L284.91616,472.85039L284.91616,473.09041L284.67613,473.09041
				L284.4361,473.09041L284.19607,473.09041L284.19607,473.33044L283.95604,473.33044L283.95604,473.57046L283.716,473.57046L283.47597,473.57046
				L283.47597,473.81049L283.23594,473.81049L283.23594,474.05052L282.99591,474.05052L282.75588,474.05052L282.75588,474.29054
				L282.51585,474.29054L282.27582,474.29054L282.27582,474.53057L282.03579,474.53057L282.03579,474.77059L281.79576,474.77059
				L281.55573,474.77059L281.55573,475.01062L281.3157,475.01062L281.07567,475.01062L281.07567,475.25064L280.83564,475.25064L
				280.59561,475.25064L280.35558,475.25064L280.35558,475.49067L280.11555,475.49067L279.87552,475.49067L279.87552,475.73069L
				279.63549,475.73069L279.39546,475.73069L279.39546,475.97072L279.15543,475.97072L278.9154,475.97072L278.9154,476.21075L278.67537,476.21075
				L278.67537,476.45077L278.43533,476.45077L278.1953,476.45077L277.95527,476.45077L277.95527,476.6908L277.71524,476.6908L277.71524,476.93082
				L277.47521,476.93082L277.23518,476.93082L276.99515,476.93082L276.99515,476.6908L276.99515,476.45077L276.75512,476.45077L
				276.75512,476.21075L276.75512,475.97072L276.75512,475.73069L276.51509,475.73069L276.51509,475.49067L276.27506,475.49067L
				276.27506,475.25064L276.27506,475.01062L276.03503,475.01062L276.03503,474.77059L276.03503,474.29054L275.795,474.29054L275.795,474.05052
				L275.55497,474.05052L275.55497,473.81049L275.55497,473.57046L275.55497,473.33044L275.31494,473.33044L275.31494,473.09041
				L275.07491,473.09041L275.07491,472.85039L275.07491,472.61036L275.07491,472.37034L274.83488,472.37034L274.83488,472.13031
				L274.83488,471.89029L274.59485,471.89029L274.59485,471.65026L274.59485,471.41023L274.35482,471.41023L274.35482,471.17021
				L274.35482,470.93018L274.11479,470.93018L273.87476,470.93018L273.87476,471.17021L273.87476,471.41023L273.63473,471.41023
				L273.63473,471.65026L273.63473,471.89029L273.3947,471.89029L273.3947,472.13031L273.3947,472.37034L273.15466,472.37034L273.15466,472.61036
				L272.91463,472.61036L272.91463,472.85039L272.91463,473.09041L272.6746,473.09041L272.6746,473.33044L272.43457,473.33044L272.43457,473.57046
				L272.43457,473.81049L272.19454,473.81049L272.19454,474.05052L272.19454,474.29054L271.95451,474.29054L271.95451,474.53057
				L271.71448,474.53057L271.71448,474.77059L271.71448,475.01062L271.47445,475.01062L271.47445,475.25064L271.23442,475.25064
				L271.23442,475.49067L271.23442,475.25064L271.23442,474.77059L270.99439,474.77059L270.99439,474.29054L270.99439,473.81049
				L270.75436,473.81049L270.75436,473.33044L270.75436,472.85039L270.75436,472.61036L270.51433,472.61036L270.51433,472.37034
				L270.51433,472.13031L270.2743,472.13031L270.2743,471.89029L270.2743,471.41023L270.2743,471.17021L270.03427,471.17021L270.03427,470.93018
				L270.03427,470.69016L269.79424,470.69016L269.79424,470.45013L269.79424,470.21011L269.55421,470.21011L269.55421,469.97008
				L269.55421,469.73006L269.31418,469.73006L269.31418,469.49003L269.07415,469.49003L269.07415,469.25L268.83412,469.25L268.83412,469.00998
				L268.59409,469.00998L268.59409,468.76995L268.35406,468.76995L268.35406,468.52993L268.11402,468.52993L268.11402,468.2899L
				268.11402,468.04988L267.87399,468.04988L267.87399,467.80985L267.87399,467.56983L267.63396,467.56983L267.63396,467.3298L267.39393,467.3298
				L267.39393,467.08977L267.39393,466.84975L267.39393,466.60972L267.1539,466.60972L267.1539,466.3697L267.1539,466.12967L266.91387,466.12967
				L266.91387,465.88965L266.91387,465.64962L266.91387,465.40959L266.67384,465.40959L266.67384,465.16957L266.67384,464.92954
				L266.43381,464.92954L266.43381,464.68952L266.43381,464.44949L266.19378,464.44949L266.19378,463.96944L266.19378,463.72942
				L265.95375,463.72942L265.95375,463.48939L265.95375,463.24936L265.95375,462.76931L265.71372,462.76931L265.71372,462.28926
				L265.47369,462.28926L265.47369,421.24489L265.71372,421.24489L265.71372,420.76484L265.71372,420.52481L265.95375,420.52481
				L265.95375,420.04476L265.95375,419.80474L265.95375,419.56471L266.19378,419.56471L266.19378,419.32468L266.19378,419.08466
				L266.43381,419.08466L266.43381,418.84463L266.43381,418.60461L266.43381,418.36458L266.67384,418.36458L266.67384,417.88453
				L266.91387,417.88453L266.91387,417.64451L266.91387,417.40448L267.1539,417.40448L267.1539,417.16445L267.1539,416.92443L267.39393,416.92443
				L267.39393,416.6844L267.39393,416.44438L267.63396,416.44438L267.63396,416.20435L267.87399,416.20435L267.87399,415.96433L
				267.87399,415.7243L268.11402,415.7243L268.11402,415.48427L268.11402,415.24425L268.35406,415.24425L268.35406,415.00422L268.35406,414.7642
				L268.59409,414.7642L268.59409,414.52417L268.59409,414.28415L268.83412,414.28415L268.83412,414.04412L268.83412,413.8041L269.07415,413.8041
				L269.07415,413.56407L269.07415,413.32404L269.31418,413.32404L269.31418,413.08402L269.55421,413.08402L269.55421,412.84399
				L269.55421,412.60397L269.79424,412.60397L269.79424,412.36394L269.79424,412.12392L270.03427,412.12392L270.03427,411.88389
				L270.2743,411.88389L270.2743,411.64387L270.2743,411.40384L270.51433,411.40384L270.51433,411.16381L270.51433,410.92379L270.75436,410.92379
				L270.75436,410.68376L270.75436,410.44374L270.99439,410.44374L270.99439,410.20371L271.23442,410.20371L271.71448,410.20371
				L271.71448,409.96369L271.95451,409.96369L271.95451,409.72366L272.19454,409.72366L272.43457,409.72366L272.91463,409.72366
				L272.91463,409.48364L273.15466,409.48364L273.3947,409.48364L273.3947,409.24361L273.63473,409.24361L273.87476,409.24361L273.87476,409.00358
				L274.11479,409.00358L274.11479,408.76356L274.35482,408.76356L274.59485,408.76356L274.59485,408.52353L274.59485,408.28351
				L274.83488,408.28351L274.83488,408.04348L274.83488,407.56343L275.07491,407.56343L275.07491,407.08338L275.07491,406.3633L
				275.07491,405.64323L275.07491,405.4032L275.07491,404.92315L274.83488,404.92315L274.83488,404.68312L274.83488,404.20307L274.59485,404.20307
				L274.59485,403.96305L274.59485,403.24297L274.59485,402.28287L274.35482,402.28287L274.35482,402.04284L274.35482,401.32277
				L274.35482,400.84271L274.59485,400.84271L274.59485,400.60269L274.59485,400.12264L274.59485,399.64259L274.83488,399.64259
				L274.83488,399.40256L274.83488,398.92251L275.07491,398.92251L275.07491,398.44246L275.07491,397.96241L275.31494,397.96241
				L275.31494,397.72238L275.31494,397.48236L275.55497,397.48236L275.55497,397.00231L275.55497,396.52225L275.55497,396.0422L
				275.795,396.0422L275.795,395.80218L275.795,395.56215L276.03503,395.56215L276.03503,395.0821L276.03503,394.60205L276.27506,394.60205
				L276.27506,394.36202L276.51509,394.36202L276.51509,394.122L276.75512,394.122L276.75512,393.88197L276.75512,393.64195L276.99515,393.64195
				L276.99515,393.40192L276.99515,393.1619L277.23518,393.1619L277.23518,392.92187L277.23518,392.68185L277.23518,392.44182L277.47521,392.44182
				L277.47521,392.20179L277.47521,391.96177L277.71524,391.96177L277.71524,391.72174L277.71524,391.48172L277.95527,391.48172
				L277.95527,391.00167L277.95527,390.76164L278.1953,390.76164L278.1953,390.52161L278.1953,390.28159L278.43533,390.28159L278.43533,389.80154
				L278.67537,389.80154L278.67537,389.32149L278.9154,389.32149L278.9154,388.84144L278.9154,388.60141L278.9154,388.36138L279.15543,388.36138
				L279.15543,388.12136L279.15543,387.88133L279.39546,387.88133L279.39546,387.16126L279.39546,386.68121L279.63549,386.68121
				L279.63549,386.44118L279.63549,385.96113L279.87552,385.96113L279.87552,385.7211L279.87552,385.48108L279.87552,385.24105L
				280.11555,385.24105L280.11555,379.96049L280.11555,379.72046L280.35558,379.72046L280.35558,379.48044L280.35558,379.24041L
				280.35558,379.00039L280.59561,379.00039L280.59561,378.52034L280.59561,378.28031L280.83564,378.28031L280.83564,378.04028L
				280.83564,377.80026L281.07567,377.80026L281.07567,377.32021L281.07567,377.08018L281.07567,376.84016L281.3157,376.84016L281.3157,376.60013
				L281.3157,376.36011L281.55573,376.36011L281.55573,376.12008L281.55573,375.88005L281.55573,375.64003L281.79576,375.64003L
				281.79576,375.4L281.79576,375.15998L282.03579,375.15998L282.03579,374.67993L282.03579,374.19988L282.27582,374.19988L282.27582,373.95985
				L282.27582,373.71982L282.51585,373.71982L282.51585,373.4798L282.51585,373.23977L282.51585,372.99975L282.75588,372.99975L
				282.75588,372.75972L282.75588,372.5197L282.99591,372.5197L282.99591,371.55959L282.99591,371.31957L283.23594,371.31957L283.23594,370.83952
				L283.23594,370.35947L283.47597,370.35947L283.47597,369.87942L283.47597,369.63939L283.716,369.63939L283.716,369.39936L283.716,369.15934
				L283.716,368.91931L283.95604,368.91931L283.95604,368.67929L283.95604,368.19924L284.19607,368.19924L284.19607,367.95921L284.19607,367.71918
				L284.19607,367.47916L284.4361,367.47916L284.4361,367.23913L284.4361,366.99911L284.67613,366.99911L284.67613,366.51906L284.67613,366.27903
				L284.91616,366.27903L284.91616,366.03901L284.91616,365.55895L285.15619,365.55895L285.15619,365.31893L285.15619,365.0789L
				285.39622,365.0789L285.39622,364.83888L285.39622,364.59885L285.39622,364.35883L285.63625,364.35883L285.63625,364.1188L285.63625,363.87878
				L285.87628,363.87878L285.87628,363.63875L285.87628,363.1587L286.11631,363.1587L286.11631,362.91867L286.35634,362.91867L286.35634,362.67865
				L286.35634,362.43862L286.35634,362.1986L286.59637,362.1986L286.59637,361.95857L286.8364,361.95857L286.8364,361.71855L287.07643,361.71855
				L287.07643,361.47852L287.07643,361.23849L287.07643,360.99847L287.31646,360.99847L287.31646,360.75844L287.31646,360.51842
				L287.55649,360.51842L287.55649,360.75844L287.55649,360.99847L287.79652,360.99847L287.79652,361.23849L288.03655,361.23849
				L288.03655,361.47852L288.03655,361.71855L288.27658,361.71855L288.27658,361.95857L288.51661,361.95857L288.51661,362.1986L
				288.51661,362.43862L288.75664,362.43862L288.75664,362.67865L288.99668,362.67865L288.99668,362.91867L289.23671,362.91867L
				289.23671,363.1587L289.23671,363.39872L289.47674,363.39872L289.47674,363.63875L289.71677,363.63875L289.71677,363.87878L289.71677,364.1188
				L289.9568,364.1188L289.9568,364.35883L290.19683,364.35883L290.19683,364.59885L290.19683,364.35883L290.43686,364.35883L290.67689,364.35883
				L290.67689,364.1188L290.91692,364.1188L290.91692,363.87878L291.15695,363.87878L291.39698,363.87878L291.39698,363.63875L291.63701,363.63875
				L291.63701,363.39872L291.87704,363.39872L291.87704,363.1587L292.11707,363.1587L292.3571,363.1587L292.3571,362.91867L292.83716,362.91867
				L292.83716,363.1587L292.83716,363.39872L292.59713,363.39872L292.59713,363.63875L292.3571,363.63875L292.3571,363.87878L292.11707,363.87878
				L291.87704,363.87878L291.87704,364.1188L291.63701,364.1188L291.63701,364.35883L291.87704,364.35883L291.87704,364.59885L291.87704,364.83888
				L292.11707,364.83888L292.11707,365.0789L292.3571,365.0789L292.3571,365.31893L292.3571,365.55895L292.3571,365.79898L292.59713,365.79898
				L292.59713,366.03901L292.3571,366.03901L292.3571,366.27903L292.11707,366.27903L292.11707,366.51906L291.87704,366.51906L291.63701,366.51906
				L291.63701,366.75908L291.39698,366.75908L291.39698,366.99911L291.63701,366.99911L291.63701,367.23913L291.87704,367.23913
				L291.87704,367.47916L291.87704,367.71918L292.11707,367.71918L292.11707,367.95921L292.11707,368.19924L292.3571,368.19924L
				292.3571,368.43926L292.3571,368.67929L292.59713,368.67929L292.59713,368.91931L292.83716,368.91931L292.83716,369.15934L292.83716,369.39936
				L293.07719,369.39936L293.07719,369.63939L293.31722,369.63939L293.31722,369.87942L293.31722,370.11944L293.55725,370.11944
				L293.55725,370.35947L293.55725,370.59949L293.79728,370.59949L293.79728,370.83952L294.03731,370.83952L294.03731,371.07954
				L294.03731,371.31957L294.27735,371.31957L294.27735,371.55959L294.51738,371.55959L294.51738,371.79962L294.75741,371.79962
				L294.75741,372.03965L294.75741,372.27967L294.99744,372.27967L294.99744,372.5197L295.23747,372.5197L295.23747,372.75972L295.4775,372.75972
				L295.4775,372.99975L295.71753,372.99975L295.71753,373.23977L295.95756,373.23977L296.19759,373.23977L296.19759,373.4798L296.43762,373.4798
				L296.67765,373.4798L296.67765,373.71982L296.91768,373.71982L297.15771,373.71982L297.15771,373.95985L297.39774,373.95985L
				297.63777,373.95985L297.8778,373.95985L297.8778,374.19988L298.11783,374.19988L298.11783,374.4399L298.35786,374.4399L298.35786,374.67993
				L298.59789,374.67993L298.83792,374.67993L298.83792,374.91995L298.83792,375.15998L299.07795,375.15998L299.07795,375.4L299.31798,375.4
				L299.31798,375.64003L299.31798,375.88005L299.31798,376.12008L299.55802,376.12008L299.55802,376.60013L299.79805,376.60013
				L299.79805,376.84016L300.03808,376.84016L300.03808,377.08018L300.03808,377.32021L300.03808,377.56023L300.27811,377.56023
				L300.27811,377.80026L300.51814,377.80026M270.2743,459.88901L270.2743,459.64898L270.2743,459.16893L270.2743,458.9289L270.03427,458.9289
				L270.03427,458.68888L270.03427,458.44885L269.79424,458.44885L269.79424,458.20883L269.79424,457.9688L269.55421,457.9688L269.55421,458.68888
				L269.79424,458.68888L269.79424,458.9289L269.79424,459.16893L270.03427,459.16893L270.03427,459.64898L270.2743,459.64898L270.2743,459.88901
				"/>
			<path clip-path="url(#SVG_CP_2)" fill="none" stroke="#999999" stroke-width="0.96012" stroke-miterlimit="10" stroke-linecap="round" stroke-linejoin="round" d="
				M295.4775,466.3697L295.4775,411.40384L295.71753,411.40384L295.71753,411.16381L295.95756,411.16381L295.95756,410.92379L296.19759,410.92379
				L296.19759,410.68376L296.43762,410.68376L296.43762,410.44374L296.67765,410.44374L296.67765,410.20371L296.67765,409.96369
				L296.91768,409.96369L296.91768,409.48364L297.15771,409.48364L297.15771,408.52353L297.15771,407.56343L297.39774,407.56343
				L297.39774,407.32341L297.39774,405.88325L297.63777,405.88325L297.8778,405.88325L297.8778,405.64323L297.8778,405.4032L298.11783,405.4032
				L298.11783,380.68057L298.11783,380.20051L298.35786,380.20051L298.35786,379.96049L298.35786,379.72046L298.59789,379.72046
				L298.59789,379.48044L298.83792,379.48044L298.83792,379.24041L299.07795,379.24041L299.07795,379.00039L299.31798,379.00039
				L299.31798,378.76036L299.55802,378.76036L299.55802,378.52034L299.79805,378.52034L299.79805,378.28031L300.03808,378.28031
				L300.03808,378.04028L300.27811,378.04028L300.27811,377.80026L300.51814,377.80026L300.75817,377.80026L300.75817,377.56023
				L300.9982,377.56023L300.9982,377.32021L301.23823,377.32021L301.47826,377.32021L301.47826,377.08018L301.71829,377.08018L301.71829,376.84016
				L301.95832,376.84016L302.19835,376.84016L302.19835,376.60013L302.43838,376.60013L302.43838,376.36011L302.67841,376.36011
				L302.67841,376.12008L302.91844,376.12008L303.15847,376.12008L303.15847,375.88005L303.3985,375.88005L303.3985,375.64003L303.63853,375.64003
				L303.63853,375.4L303.87856,375.4L304.11859,375.4L304.11859,375.15998L304.35862,375.15998L304.35862,374.91995L304.59865,374.91995
				L304.83869,374.91995L304.83869,374.67993L305.07872,374.67993L305.07872,374.4399L305.31875,374.4399L305.31875,374.19988L305.55878,374.19988
				L305.79881,374.19988L305.79881,373.95985L306.03884,373.95985L306.03884,373.71982L306.27887,373.71982L306.5189,373.71982L
				306.5189,373.4798L306.75893,373.4798L306.75893,373.23977L306.99896,373.23977L306.99896,372.99975L307.23899,372.99975L307.47902,372.99975
				L307.47902,372.75972L307.71905,372.75972L307.71905,372.5197L307.95908,372.5197L308.19911,372.5197L308.19911,372.27967L308.43914,372.27967
				L308.43914,372.03965L308.67917,372.03965L308.67917,371.79962L308.9192,371.79962L309.15923,371.79962L309.15923,371.55959L
				309.39926,371.55959L309.39926,371.31957L309.63929,371.31957L309.87933,371.31957L309.87933,371.07954L310.11936,371.07954L
				310.11936,370.83952L310.35939,370.83952L310.59942,370.83952L310.59942,370.59949L310.83945,370.59949L310.83945,370.35947L
				311.07948,370.35947L311.31951,370.35947L311.31951,370.11944L311.55954,370.11944L311.55954,369.87942L311.79957,369.87942L
				311.79957,369.63939L312.0396,369.63939L312.27963,369.63939L312.27963,369.39936L312.51966,369.39936L312.51966,369.15934L312.75969,369.15934
				L312.99972,369.15934L312.99972,368.91931L313.23975,368.91931L313.23975,368.67929L313.47978,368.67929L313.47978,368.43926
				L313.71981,368.43926L313.95984,368.43926L313.95984,368.19924L314.19987,368.19924L314.19987,367.95921L314.4399,367.95921L
				314.4399,367.71918L314.67993,367.71918L314.91996,367.71918L314.91996,367.47916L315.16,367.47916L315.16,367.23913L315.40003,367.23913
				L315.64006,367.23913L315.64006,366.99911L315.88009,366.99911L315.88009,366.75908L316.12012,366.75908L316.12012,366.51906
				L316.12012,366.27903L315.88009,366.27903L315.88009,366.03901L315.64006,366.03901L315.64006,365.79898L315.64006,365.55895
				L315.40003,365.55895L315.40003,365.31893L315.16,365.31893L315.16,365.0789L315.16,364.83888L314.91996,364.83888L314.67993,364.83888
				L314.67993,364.59885L314.67993,364.35883L314.4399,364.35883L314.4399,364.1188L314.19987,364.1188L314.19987,363.87878L313.95984,363.87878
				L313.95984,363.63875L313.95984,363.39872L313.71981,363.39872L313.71981,363.1587L313.47978,363.1587L313.47978,362.91867L313.23975,362.91867
				L313.23975,362.67865L312.99972,362.67865L312.99972,362.43862L312.99972,362.1986L312.75969,362.1986L312.75969,361.95857L312.51966,361.95857
				L312.51966,361.71855L312.27963,361.71855L312.27963,361.47852L312.27963,361.23849L312.0396,361.23849L312.0396,360.99847L311.79957,360.99847
				L311.79957,360.75844L311.55954,360.75844L311.55954,360.51842L311.31951,360.51842L311.31951,360.27839L311.31951,360.03837
				L311.07948,360.03837L311.07948,359.79834L310.83945,359.79834L310.83945,359.55832L310.59942,359.55832L310.59942,359.31829
				L310.35939,359.31829L310.35939,359.07826L310.35939,358.83824L310.11936,358.83824L310.11936,358.59821L309.87933,358.59821
				L309.87933,358.35819L310.11936,358.35819L310.11936,358.59821L310.35939,358.59821L310.35939,358.83824L310.59942,358.83824
				L310.83945,358.83824L310.83945,359.07826L311.07948,359.07826L311.07948,359.31829L311.31951,359.31829L311.31951,359.55832
				L311.55954,359.55832L311.79957,359.55832L311.79957,359.79834L312.0396,359.79834L312.0396,360.03837L312.27963,360.03837L312.51966,360.03837
				L312.51966,360.27839L312.75969,360.27839L312.99972,360.27839L312.99972,360.51842L313.23975,360.51842L313.47978,360.51842
				L313.47978,360.75844L313.71981,360.75844L313.71981,360.99847L313.95984,360.99847L313.95984,361.23849L314.19987,361.23849
				L314.4399,361.23849L314.4399,361.47852L314.4399,361.71855L314.67993,361.71855L314.91996,361.71855L315.16,361.71855L315.16,361.95857
				L315.40003,361.95857L315.40003,362.1986L315.64006,362.1986L315.64006,362.43862L315.88009,362.43862L315.88009,362.67865L316.12012,362.67865
				L316.36015,362.67865L316.36015,362.91867L316.60018,362.91867L316.60018,363.1587L316.84021,363.1587L317.08024,363.1587L317.08024,363.39872
				L317.32027,363.39872L317.32027,363.63875L317.5603,363.63875L317.5603,363.87878L317.80033,363.87878L318.04036,363.87878L318.04036,364.1188
				L318.28039,364.1188L318.28039,364.35883L318.52042,364.35883L318.52042,364.59885L318.76045,364.59885L318.76045,364.83888L
				319.00048,364.83888L319.00048,365.0789L319.24051,365.0789L319.24051,365.31893L319.48054,365.31893L319.48054,365.55895L319.72057,365.55895
				L319.72057,365.79898L319.9606,365.79898L319.9606,366.03901L320.20063,366.03901L320.20063,366.27903L320.44067,366.27903L320.44067,366.51906
				L320.6807,366.51906L320.6807,366.99911L320.92073,366.99911L320.92073,367.23913L320.92073,367.47916L321.16076,367.47916L321.16076,367.95921
				L321.16076,368.43926L321.16076,368.67929L321.40079,368.67929L321.40079,369.15934L321.40079,370.11944L321.64082,370.11944
				L321.64082,371.55959L321.40079,371.55959L321.40079,371.79962L321.64082,371.79962L321.64082,372.27967L321.64082,372.99975
				L321.64082,373.23977L321.40079,373.23977L321.40079,373.4798L321.40079,373.95985L321.16076,373.95985L321.16076,374.67993L
				321.40079,374.67993L321.40079,375.15998L321.40079,375.4L321.64082,375.4L321.64082,375.64003L321.64082,375.88005L321.88085,375.88005
				L321.88085,376.60013L321.64082,376.60013L321.64082,376.84016L321.88085,376.84016L321.88085,377.08018L321.88085,377.32021
				L322.12088,377.32021L322.12088,377.56023L322.12088,377.80026L322.12088,378.04028L322.36091,378.04028L322.36091,378.28031
				L322.36091,378.76036L322.60094,378.76036L322.60094,379.24041L322.60094,379.48044L322.60094,379.72046L322.84097,379.72046
				L322.84097,380.44054L322.84097,380.68057L323.081,380.68057L323.081,381.16062L323.081,382.12072L323.081,382.60077L323.081,383.32085
				L323.32103,383.32085L323.32103,383.8009L323.32103,384.28095L323.56106,384.28095L323.56106,384.52098L323.56106,384.761L323.80109,384.761
				L323.80109,385.00103L323.80109,385.48108L324.04112,385.48108L324.04112,385.7211L324.28115,385.7211L324.28115,385.96113L324.28115,386.20115
				L324.52118,386.20115L324.52118,386.44118L324.52118,386.68121L324.76121,386.68121L324.76121,387.16126L324.76121,387.40128
				L324.76121,387.64131L325.00124,387.64131L325.00124,387.88133L325.00124,388.12136L325.24127,388.12136L325.24127,388.60141
				L325.00124,388.60141L325.00124,389.32149L325.00124,389.56151L324.76121,389.56151L324.76121,390.52161L324.76121,390.76164
				L324.76121,391.48172L325.00124,391.48172L325.00124,391.72174L325.24127,391.72174L325.24127,391.96177L325.48131,391.96177
				L325.48131,392.20179L325.48131,392.44182L325.72134,392.44182L325.72134,392.92187L325.96137,392.92187L325.96137,393.1619L
				325.96137,393.64195L325.96137,393.88197L326.2014,393.88197L326.2014,394.122L326.2014,394.60205L326.44143,394.60205L326.44143,394.84208
				L326.44143,395.0821L326.44143,395.56215L326.68146,395.56215L326.68146,395.80218L326.68146,396.0422L326.92149,396.0422L326.92149,396.28223
				L326.92149,396.76228L326.92149,413.32404L326.92149,414.52417L326.92149,415.24425L326.92149,415.7243L326.92149,422.68504L
				327.16152,422.68504L327.16152,422.92507L327.16152,423.16509L327.40155,423.16509L327.40155,423.40512L327.64158,423.40512L
				327.64158,423.64514L327.88161,423.64514L327.88161,423.88517L328.12164,423.88517L328.36167,423.88517L328.36167,424.1252L328.6017,424.1252
				L328.6017,424.36522L328.84173,424.36522L328.84173,424.60525L329.08176,424.60525L329.08176,424.84527L329.32179,424.84527L
				329.32179,425.0853L329.56182,425.0853L329.80185,425.0853L329.80185,425.32532L329.80185,425.56535L330.04188,425.56535L330.28191,425.56535
				L330.28191,425.80537L330.28191,426.0454L330.52194,426.0454L330.76198,426.0454L330.76198,426.28543L331.00201,426.28543L331.00201,426.52545
				L331.24204,426.52545L331.24204,426.76548L331.48207,426.76548L331.48207,427.0055L331.7221,427.0055L331.7221,427.24553L331.96213,427.24553
				L331.96213,427.48555L332.20216,427.48555L332.20216,427.72558L332.44219,427.72558L332.44219,427.9656L332.68222,427.9656L332.68222,428.20563
				L332.92225,428.20563L332.92225,428.44566L333.16228,428.44566L333.16228,428.68568L333.40231,428.68568L333.40231,428.92571
				L333.64234,428.92571L333.88237,428.92571L333.88237,429.16573L334.1224,429.16573L334.1224,429.40576L334.1224,429.64578L334.36243,429.64578
				L334.60246,429.64578L334.60246,429.88581L334.84249,429.88581L334.84249,430.12584L335.08252,430.12584L335.08252,430.36586
				L335.32255,430.36586L335.32255,430.60589L335.56258,430.60589L335.56258,430.84591L335.80261,430.84591L335.80261,431.08594
				L336.04265,431.08594L336.04265,431.32596L336.28268,431.32596L336.28268,431.56599L336.52271,431.56599L336.52271,431.80601
				L336.76274,431.80601L336.76274,432.04604L337.00277,432.04604L337.00277,432.28607L337.2428,432.28607L337.2428,432.52609L337.48283,432.52609
				L337.48283,432.76612L337.72286,432.76612L337.72286,433.00614L337.96289,433.00614L337.96289,433.24617L338.20292,433.24617
				L338.20292,433.48619L338.44295,433.48619L338.44295,433.72622L338.68298,433.72622L338.68298,433.96624L338.92301,433.96624
				L338.92301,434.20627L339.16304,434.20627L339.16304,434.4463L339.40307,434.4463L339.40307,434.68632L339.40307,434.92635L339.6431,434.92635
				L339.6431,435.16637L339.88313,435.16637L339.88313,435.4064L340.12316,435.4064L340.12316,435.64642L340.36319,435.64642L340.36319,435.88645
				L340.60322,435.88645L340.60322,436.12647L340.60322,436.3665L340.84325,436.3665L340.84325,436.60653L341.08328,436.60653L341.08328,436.84655
				L341.08328,437.08658L341.32332,437.08658L341.32332,437.3266L341.56335,437.3266L341.56335,437.56663L341.56335,437.80665L341.80338,437.80665
				L341.80338,438.04668L342.04341,438.04668L342.04341,438.2867L342.04341,438.52673L342.04341,438.76676L342.28344,438.76676L
				342.28344,439.00678L342.52347,439.00678L342.52347,439.24681L342.52347,439.48683L342.7635,439.48683L342.7635,439.72686L342.7635,439.96688
				L343.00353,439.96688L343.00353,440.20691L343.00353,440.44693L343.24356,440.44693L343.24356,440.68696L343.24356,440.92699
				L343.48359,440.92699L343.48359,441.16701L343.72362,441.16701L343.72362,441.40704L343.72362,441.64706L343.72362,441.88709
				L343.96365,441.88709L343.96365,442.12711L343.96365,442.36714L344.20368,442.36714L344.20368,442.60717L344.20368,442.84719
				L344.20368,444.52737L344.20368,444.7674L344.20368,445.48747L343.96365,445.48747L343.96365,445.7275L343.96365,445.96752L343.72362,445.96752
				L343.72362,446.6876L343.72362,447.6477L343.72362,448.12775L343.48359,448.12775L343.48359,448.36778L343.48359,450.28798L343.48359,451.00806
				L343.72362,451.00806L343.72362,451.48811L343.72362,451.96816L343.72362,452.20819L343.96365,452.20819L343.96365,452.44821
				L343.96365,453.64834L344.20368,453.64834L344.20368,458.44885L343.96365,458.44885L343.96365,458.9289L343.96365,459.64898L
				343.72362,459.64898L343.72362,460.12903L343.72362,460.84911L343.72362,462.04924L343.48359,462.04924L343.48359,462.76931L
				343.48359,463.72942L343.24356,463.72942L343.24356,465.40959L343.48359,465.40959L343.48359,466.60972L343.48359,467.08977L
				343.72362,467.08977L343.72362,467.3298L343.72362,467.80985L343.72362,468.04988L343.72362,468.52993L343.72362,469.00998L343.48359,469.00998
				L343.48359,469.25L343.48359,469.49003L343.24356,469.49003L343.24356,469.73006L343.24356,469.97008L343.24356,470.21011L343.00353,470.21011
				L343.00353,470.45013L343.00353,470.69016L342.7635,470.69016L342.7635,470.93018L342.7635,471.17021L342.7635,471.41023L342.52347,471.41023
				L342.52347,471.65026L342.52347,471.89029L342.28344,471.89029L342.28344,472.13031L342.04341,472.13031L342.04341,472.37034
				L342.04341,473.81049L342.04341,474.29054L341.80338,474.29054L341.80338,473.81049L341.56335,473.81049L341.56335,473.57046
				L341.56335,473.33044L341.56335,473.09041L341.32332,473.09041L341.32332,472.61036L341.32332,472.37034L341.08328,472.37034
				L341.08328,472.13031L341.08328,471.89029L341.08328,471.41023L340.84325,471.41023L340.84325,471.17021L340.84325,470.93018
				L340.36319,470.93018L339.88313,470.93018L339.88313,471.17021L339.6431,471.17021L339.16304,471.17021L339.16304,471.41023L
				338.92301,471.41023L338.44295,471.41023L338.20292,471.41023L338.20292,471.65026L337.96289,471.65026L337.96289,471.89029L
				338.20292,471.89029L338.20292,472.13031L338.20292,472.61036L338.44295,472.61036L338.44295,473.09041L338.44295,473.33044L
				338.44295,473.57046L337.72286,473.57046L337.48283,473.57046L337.00277,473.57046L337.00277,473.81049L336.76274,473.81049L
				336.28268,473.81049L336.28268,474.05052L335.80261,474.05052L335.32255,474.05052L335.32255,474.29054L335.08252,474.29054L
				334.60246,474.29054L334.1224,474.29054L334.1224,474.53057L333.64234,474.53057L333.40231,474.53057L333.40231,474.77059L332.92225,474.77059
				L332.92225,475.01062L332.92225,475.49067L332.68222,475.49067L332.68222,475.73069L332.20216,475.73069L331.7221,475.73069L
				331.24204,475.73069L331.24204,475.97072L330.76198,475.97072L330.28191,475.97072L330.28191,476.21075L329.80185,476.21075L
				329.80185,476.45077L329.56182,476.45077L329.56182,476.6908L329.32179,476.6908L329.32179,476.93082L329.32179,477.17085L329.08176,477.17085
				L329.08176,477.41087L329.08176,477.6509L328.84173,477.6509L328.84173,477.89092L328.6017,477.89092L328.6017,478.13095L328.6017,478.37098
				L328.6017,478.611L328.36167,478.611L328.36167,478.85103L328.12164,478.85103L328.12164,479.09105L328.12164,479.33108L327.88161,479.33108
				L327.88161,479.5711L327.64158,479.5711L327.40155,479.5711L327.40155,479.33108L327.16152,479.33108L327.16152,479.09105L326.92149,479.09105
				L326.92149,480.05116L326.68146,480.05116L326.44143,480.05116L326.44143,479.81113L326.2014,479.81113L325.96137,479.81113L
				325.96137,479.5711L325.72134,479.5711L325.48131,479.5711L325.24127,479.5711L325.24127,479.33108L325.00124,479.33108L324.76121,479.33108
				L324.76121,479.09105L324.52118,479.09105L324.28115,479.09105L324.04112,479.09105L324.04112,478.85103L323.80109,478.85103
				L323.56106,478.85103L323.56106,478.611L323.32103,478.611L323.081,478.611L322.84097,478.611L322.84097,478.37098L322.60094,478.37098
				L322.36091,478.37098L322.36091,478.13095L322.12088,478.13095L321.88085,478.13095L321.88085,477.89092L321.64082,477.89092
				L321.40079,477.89092L321.16076,477.89092L321.16076,477.6509L320.92073,477.6509L320.44067,477.6509L320.44067,477.41087L319.9606,477.41087
				L319.9606,477.17085L319.48054,477.17085L319.48054,476.93082L319.00048,476.93082L318.76045,476.93082L318.52042,476.93082L
				318.52042,476.6908L318.28039,476.6908L318.04036,476.6908L318.04036,476.45077L317.80033,476.45077L317.5603,476.45077L317.32027,476.45077
				L317.32027,476.21075L317.08024,476.21075L316.84021,476.21075L316.84021,475.97072L316.60018,475.97072L316.36015,475.97072
				L316.36015,475.73069L316.12012,475.73069L315.88009,475.73069L315.64006,475.73069L315.64006,475.49067L315.40003,475.49067
				L315.40003,476.21075L315.64006,476.21075L315.64006,476.93082L315.64006,477.41087L315.64006,478.13095L315.88009,478.13095
				L315.88009,479.09105L315.16,479.09105L314.4399,479.09105L313.95984,479.09105L313.95984,479.33108L313.71981,479.33108L313.71981,479.09105
				L313.71981,478.85103L313.47978,478.85103L313.47978,478.611L313.47978,478.13095L313.47978,477.6509L313.23975,477.6509L313.23975,477.41087
				L313.23975,476.93082L312.99972,476.93082L312.99972,476.45077L312.99972,476.21075L312.99972,475.73069L312.75969,475.73069
				L312.75969,475.25064L312.75969,475.01062L312.51966,475.01062L312.51966,474.53057L312.51966,474.29054L312.27963,474.29054
				L312.27963,473.81049L312.27963,473.57046L312.27963,473.09041L312.0396,473.09041L312.0396,472.61036L312.0396,472.37034L311.79957,472.37034
				L311.79957,471.89029L311.79957,471.41023L311.79957,471.17021L311.55954,471.17021L311.55954,470.69016L311.55954,470.45013
				L311.31951,470.45013L311.31951,469.97008L311.31951,469.73006L311.31951,469.25L311.07948,469.25L311.07948,468.76995L311.07948,469.00998
				L310.83945,469.00998L310.35939,469.00998L310.35939,469.25L310.11936,469.25L309.87933,469.25L309.63929,469.25L309.63929,469.49003
				L309.39926,469.49003L309.15923,469.49003L309.15923,469.73006L308.67917,469.73006L308.19911,469.73006L308.19911,469.97008
				L307.95908,469.97008L307.71905,469.97008L307.71905,470.21011L307.47902,470.21011L306.99896,470.21011L306.99896,470.45013
				L306.5189,470.45013L306.27887,470.45013L306.27887,470.69016L306.03884,470.69016L305.79881,470.69016L305.79881,470.93018L
				305.55878,470.93018L305.31875,470.93018L304.83869,470.93018L304.83869,471.17021L304.59865,471.17021L304.35862,471.17021L
				304.35862,471.41023L304.11859,471.41023L303.87856,471.41023L303.63853,471.41023L303.63853,471.65026L303.15847,471.65026L
				302.91844,471.65026L302.91844,471.89029L302.67841,471.89029L302.43838,471.89029L302.19835,471.89029L302.19835,472.13031L
				301.95832,472.13031L301.47826,472.13031L301.47826,472.37034L300.9982,472.37034L300.9982,472.61036L300.75817,472.61036L300.51814,472.61036
				L300.27811,472.61036L300.27811,472.85039L300.03808,472.85039L299.79805,472.85039L299.79805,473.09041L299.31798,473.09041
				L299.07795,473.09041L298.83792,473.09041L298.83792,473.33044L298.59789,473.33044L298.35786,473.33044L298.35786,473.57046
				L298.11783,473.57046L297.8778,473.57046L297.39774,473.57046L297.39774,473.81049L297.15771,473.81049L297.15771,473.57046L
				297.15771,473.33044L296.91768,473.33044L296.91768,472.85039L296.91768,472.37034L296.67765,472.37034L296.67765,471.89029L
				296.67765,471.65026L296.67765,471.17021L296.43762,471.17021L296.43762,470.93018L296.43762,470.45013L296.19759,470.45013L
				296.19759,469.97008L296.19759,469.49003L296.19759,469.25L295.95756,469.25L295.95756,468.76995L295.95756,468.2899L295.71753,468.2899
				L295.71753,467.80985L295.71753,467.56983L295.71753,467.08977L295.4775,467.08977L295.4775,466.60972L295.4775,466.3697"/>
		</g>
</g></svg>