<?xml version="1.0" encoding="utf-8" standalone="no"?>
<!-- Creator: ESRI ArcMap 10.0.0.2414 -->
<!DOCTYPE svg PUBLIC "-//W3C//DTD SVG 1.1//EN"  "http://www.w3.org/Graphics/SVG/1.1/DTD/svg11.dtd">
<svg width="595.50236pt" height="595.50236pt" viewBox="25 148.377955 545.50236 545.50236" enable-background="new 25 148.377955 545.50236 545.50236"
	version="1.1" xmlns="http://www.w3.org/2000/svg" xmlns:xlink="http://www.w3.org/1999/xlink" >
	<g id="Couches">
		<g id="cont_2">
			<path clip-path="url(#SVG_CP_2)" fill="none" stroke="#999999" stroke-width="0.96012" stroke-miterlimit="10" stroke-linecap="round" stroke-linejoin="round" d="
				M324.28115,332.1954L324.04112,332.1954L324.04112,331.95537L324.28115,331.95537L324.28115,332.1954"/>
			<path clip-path="url(#SVG_CP_2)" fill="none" stroke="#999999" stroke-width="0.96012" stroke-miterlimit="10" stroke-linecap="round" stroke-linejoin="round" d="
				M317.32027,385.24105L317.08024,385.24105L317.08024,384.28095L317.32027,384.28095L317.32027,384.04092L317.80033,384.04092
				L317.80033,385.00103L317.32027,385.00103L317.32027,385.24105"/>
			<path clip-path="url(#SVG_CP_2)" fill="none" stroke="#999999" stroke-width="0.96012" stroke-miterlimit="10" stroke-linecap="round" stroke-linejoin="round" d="
				M407.09166,467.80985L407.09166,467.56983L407.57172,467.56983L407.57172,467.80985L407.09166,467.80985"/>
			<path clip-path="url(#SVG_CP_2)" fill="none" stroke="#999999" stroke-width="0.96012" stroke-miterlimit="10" stroke-linecap="round" stroke-linejoin="round" d="
				M406.85163,468.04988L406.85163,467.80985L407.09166,467.80985L407.09166,468.04988L406.85163,468.04988"/>
			<path clip-path="url(#SVG_CP_2)" fill="none" stroke="#999999" stroke-width="0.96012" stroke-miterlimit="10" stroke-linecap="round" stroke-linejoin="round" d="
				M406.37157,468.52993L406.37157,468.04988L406.85163,468.04988L406.85163,468.52993L406.37157,468.52993"/>
			<path clip-path="url(#SVG_CP_2)" fill="none" stroke="#999999" stroke-width="0.96012" stroke-miterlimit="10" stroke-linecap="round" stroke-linejoin="round" d="
				M406.13154,468.76995L406.13154,468.52993L406.37157,468.52993L406.37157,468.76995L406.13154,468.76995"/>
			<path clip-path="url(#SVG_CP_2)" fill="none" stroke="#999999" stroke-width="0.96012" stroke-miterlimit="10" stroke-linecap="round" stroke-linejoin="round" d="
				M405.89151,469.00998L405.89151,468.76995L406.13154,468.76995L406.13154,469.00998L405.89151,469.00998"/>
			<path clip-path="url(#SVG_CP_2)" fill="none" stroke="#999999" stroke-width="0.96012" stroke-miterlimit="10" stroke-linecap="round" stroke-linejoin="round" d="
				M405.41145,469.49003L405.41145,469.00998L405.89151,469.00998L405.89151,469.49003L405.41145,469.49003"/>
			<path clip-path="url(#SVG_CP_2)" fill="none" stroke="#999999" stroke-width="0.96012" stroke-miterlimit="10" stroke-linecap="round" stroke-linejoin="round" d="
				M405.17142,469.73006L405.17142,469.49003L405.41145,469.49003L405.41145,469.73006L405.17142,469.73006"/>
			<path clip-path="url(#SVG_CP_2)" fill="none" stroke="#999999" stroke-width="0.96012" stroke-miterlimit="10" stroke-linecap="round" stroke-linejoin="round" d="
				M404.93139,470.21011L404.93139,469.73006L405.17142,469.73006L405.17142,470.21011L404.93139,470.21011"/>
			<path clip-path="url(#SVG_CP_2)" fill="none" stroke="#999999" stroke-width="0.96012" stroke-miterlimit="10" stroke-linecap="round" stroke-linejoin="round" d="
				M404.45133,470.45013L404.45133,470.21011L404.93139,470.21011L404.93139,470.45013L404.45133,470.45013"/>
			<path clip-path="url(#SVG_CP_2)" fill="none" stroke="#999999" stroke-width="0.96012" stroke-miterlimit="10" stroke-linecap="round" stroke-linejoin="round" d="
				M404.2113,470.69016L404.2113,470.45013L404.45133,470.45013L404.45133,470.69016L404.2113,470.69016"/>
			<path clip-path="url(#SVG_CP_2)" fill="none" stroke="#999999" stroke-width="0.96012" stroke-miterlimit="10" stroke-linecap="round" stroke-linejoin="round" d="
				M403.97127,471.17021L403.97127,470.69016L404.2113,470.69016L404.2113,471.17021L403.97127,471.17021"/>
			<path clip-path="url(#SVG_CP_2)" fill="none" stroke="#999999" stroke-width="0.96012" stroke-miterlimit="10" stroke-linecap="round" stroke-linejoin="round" d="
				M403.4912,471.41023L403.4912,471.17021L403.97127,471.17021L403.97127,471.41023L403.4912,471.41023"/>
			<path clip-path="url(#SVG_CP_2)" fill="none" stroke="#999999" stroke-width="0.96012" stroke-miterlimit="10" stroke-linecap="round" stroke-linejoin="round" d="
				M403.25117,471.65026L403.25117,471.41023L403.4912,471.41023L403.4912,471.65026L403.25117,471.65026"/>
			<path clip-path="url(#SVG_CP_2)" fill="none" stroke="#999999" stroke-width="0.96012" stroke-miterlimit="10" stroke-linecap="round" stroke-linejoin="round" d="
				M402.77111,472.13031L402.77111,471.65026L403.25117,471.65026L403.25117,472.13031L402.77111,472.13031"/>
			<path clip-path="url(#SVG_CP_2)" fill="none" stroke="#999999" stroke-width="0.96012" stroke-miterlimit="10" stroke-linecap="round" stroke-linejoin="round" d="
				M402.53108,472.37034L402.53108,472.13031L402.77111,472.13031L402.77111,472.37034L402.53108,472.37034"/>
			<path clip-path="url(#SVG_CP_2)" fill="none" stroke="#999999" stroke-width="0.96012" stroke-miterlimit="10" stroke-linecap="round" stroke-linejoin="round" d="
				M402.29105,472.61036L402.29105,472.37034L402.53108,472.37034L402.53108,472.61036L402.29105,472.61036"/>
			<path clip-path="url(#SVG_CP_2)" fill="none" stroke="#999999" stroke-width="0.96012" stroke-miterlimit="10" stroke-linecap="round" stroke-linejoin="round" d="
				M401.81099,473.09041L401.81099,472.61036L402.29105,472.61036L402.29105,473.09041L401.81099,473.09041"/>
			<path clip-path="url(#SVG_CP_2)" fill="none" stroke="#999999" stroke-width="0.96012" stroke-miterlimit="10" stroke-linecap="round" stroke-linejoin="round" d="
				M401.57096,473.33044L401.57096,473.09041L401.81099,473.09041L401.81099,473.33044L401.57096,473.33044"/>
			<path clip-path="url(#SVG_CP_2)" fill="none" stroke="#999999" stroke-width="0.96012" stroke-miterlimit="10" stroke-linecap="round" stroke-linejoin="round" d="
				M401.33093,473.81049L401.33093,473.33044L401.57096,473.33044L401.57096,473.81049L401.33093,473.81049"/>
			<path clip-path="url(#SVG_CP_2)" fill="none" stroke="#999999" stroke-width="0.96012" stroke-miterlimit="10" stroke-linecap="round" stroke-linejoin="round" d="
				M400.85087,474.05052L400.85087,473.81049L401.33093,473.81049L401.33093,474.05052L400.85087,474.05052"/>
			<path clip-path="url(#SVG_CP_2)" fill="none" stroke="#999999" stroke-width="0.96012" stroke-miterlimit="10" stroke-linecap="round" stroke-linejoin="round" d="
				M319.72057,380.68057L319.24051,380.68057L319.24051,380.92059L319.00048,380.92059L319.00048,381.40064L318.76045,381.40064
				L318.76045,381.64067L318.28039,381.64067L318.28039,381.88069L318.04036,381.88069L318.04036,382.36075L317.80033,382.36075
				L317.80033,382.60077L317.32027,382.60077L317.32027,382.8408L317.08024,382.8408L317.08024,384.04092L316.84021,384.04092L316.84021,385.24105
				L316.36015,385.24105L316.36015,385.96113L316.12012,385.96113L316.12012,386.20115L315.64006,386.20115L315.64006,386.44118
				L315.40003,386.44118L315.40003,386.92123L315.16,386.92123L315.16,387.16126L314.67993,387.16126L314.67993,387.64131L314.4399,387.64131
				L314.4399,388.12136L314.19987,388.12136L314.19987,388.60141L313.71981,388.60141L313.71981,388.84144L313.47978,388.84144L
				313.47978,390.76164L312.99972,390.76164L312.99972,391.24169L312.75969,391.24169L312.75969,391.48172L312.51966,391.48172L
				312.51966,391.72174L312.0396,391.72174L312.0396,392.20179L311.79957,392.20179L311.79957,392.44182L311.55954,392.44182L311.55954,392.68185
				L311.07948,392.68185L311.07948,393.1619L310.83945,393.1619L310.83945,393.40192L310.59942,393.40192L310.59942,393.88197L310.11936,393.88197
				L310.11936,394.122L309.87933,394.122L309.87933,394.36202L309.39926,394.36202L309.39926,394.84208L309.15923,394.84208L309.15923,395.0821
				L308.9192,395.0821L308.9192,395.32213L308.43914,395.32213L308.43914,395.80218L308.19911,395.80218L308.19911,396.0422L307.95908,396.0422
				L307.95908,396.28223L307.47902,396.28223L307.47902,396.76228L307.23899,396.76228L307.23899,397.00231L306.99896,397.00231
				L306.99896,397.48236L306.5189,397.48236L306.5189,397.72238L306.27887,397.72238L306.27887,397.96241L305.79881,397.96241L305.79881,398.44246
				L305.55878,398.44246L305.55878,399.40256L305.31875,399.40256L305.31875,400.60269L304.83869,400.60269L304.83869,401.56279
				L304.59865,401.56279L304.59865,403.24297L304.35862,403.24297L304.35862,405.64323L303.87856,405.64323L303.87856,407.56343
				L303.63853,407.56343L303.63853,430.36586L303.3985,430.36586L303.3985,430.84591L302.91844,430.84591L302.91844,431.08594L302.67841,431.08594
				L302.67841,431.32596L302.19835,431.32596L302.19835,431.80601L301.95832,431.80601L301.95832,432.04604L301.71829,432.04604
				L301.71829,432.52609L301.23823,432.52609L301.23823,432.76612L300.9982,432.76612L300.9982,433.00614L300.75817,433.00614L300.75817,433.48619
				L300.27811,433.48619L300.27811,433.72622L300.03808,433.72622L300.03808,433.96624L299.79805,433.96624L299.79805,434.4463L
				299.31798,434.4463L299.31798,434.68632L299.07795,434.68632L299.07795,434.92635L298.59789,434.92635L298.59789,435.4064L298.35786,435.4064
				L298.35786,435.64642L298.11783,435.64642L298.11783,436.12647L297.63777,436.12647L297.63777,436.3665L297.39774,436.3665L297.39774,436.60653
				L297.15771,436.60653L297.15771,437.08658L296.67765,437.08658L296.67765,437.3266L296.43762,437.3266L296.43762,437.56663L296.19759,437.56663
				L296.19759,438.04668L295.71753,438.04668L295.71753,438.2867L295.4775,438.2867L295.4775,438.76676L294.99744,438.76676L294.99744,439.00678
				L294.75741,439.00678L294.75741,439.24681L294.51738,439.24681L294.51738,439.72686L294.03731,439.72686L294.03731,439.96688
				L293.79728,439.96688L293.79728,440.20691L293.55725,440.20691L293.55725,440.68696L293.07719,440.68696L293.07719,440.92699
				L292.83716,440.92699L292.83716,441.16701L292.59713,441.16701L292.59713,441.64706L292.11707,441.64706L292.11707,441.88709
				L291.87704,441.88709L291.87704,442.36714L291.39698,442.36714L291.39698,442.60717L291.15695,442.60717L291.15695,442.84719
				L290.91692,442.84719L290.91692,443.32724L290.43686,443.32724L290.43686,443.56727L290.19683,443.56727L290.19683,443.80729
				L289.9568,443.80729L289.9568,444.28734L289.47674,444.28734L289.47674,444.52737L289.23671,444.52737L289.23671,444.7674L288.75664,444.7674
				L288.75664,445.24745L288.51661,445.24745L288.51661,445.48747L288.27658,445.48747L288.27658,445.96752L287.79652,445.96752
				L287.79652,446.20755L287.55649,446.20755L287.55649,446.44757L287.31646,446.44757L287.31646,446.92763L286.8364,446.92763L
				286.8364,447.16765L286.59637,447.16765L286.59637,447.40768L286.35634,447.40768L286.35634,447.88773L285.87628,447.88773L285.87628,448.12775
				L285.63625,448.12775L285.63625,448.36778L285.15619,448.36778L285.15619,448.84783L284.91616,448.84783L284.91616,449.08786
				L284.67613,449.08786L284.67613,449.56791L284.19607,449.56791L284.19607,449.80793L283.95604,449.80793L283.95604,450.04796
				L283.716,450.04796L283.716,450.52801L283.23594,450.52801L283.23594,450.76803L282.99591,450.76803L282.99591,451.00806L282.75588,451.00806
				L282.75588,451.48811L282.27582,451.48811L282.27582,451.72814L282.03579,451.72814L282.03579,451.96816L281.55573,451.96816
				L281.55573,452.44821L281.3157,452.44821L281.3157,452.68824L281.07567,452.68824L281.07567,453.16829L280.59561,453.16829L280.59561,453.40832
				L280.35558,453.40832L280.35558,453.64834L280.11555,453.64834L280.11555,454.12839L279.63549,454.12839L279.63549,454.36842
				L279.39546,454.36842L279.39546,454.60844L279.15543,454.60844L279.15543,455.0885L278.67537,455.0885L278.67537,455.32852L278.43533,455.32852
				L278.43533,455.56855L277.95527,455.56855L277.95527,456.0486L277.71524,456.0486L277.71524,456.28862L277.47521,456.28862L277.47521,456.76867
				L276.99515,456.76867L276.99515,457.0087L276.75512,457.0087L276.75512,457.24873L276.51509,457.24873L276.51509,457.72878L276.03503,457.72878
				L276.03503,457.9688L275.795,457.9688L275.795,458.20883L275.55497,458.20883L275.55497,458.68888L275.07491,458.68888L275.07491,458.9289
				L274.83488,458.9289L274.83488,459.16893L274.35482,459.16893L274.35482,459.64898L274.11479,459.64898L274.11479,459.88901L
				273.87476,459.88901L273.87476,460.36906L273.3947,460.36906L273.3947,460.60908L273.15466,460.60908L273.15466,460.84911L272.91463,460.84911
				L272.91463,461.32916L272.43457,461.32916L272.43457,461.56919L272.19454,461.56919L272.19454,461.80921L271.95451,461.80921
				L271.95451,462.28926L271.47445,462.28926L271.47445,462.52929L271.23442,462.52929L271.23442,463.00934L270.75436,463.00934
				L270.75436,463.24936L270.51433,463.24936L270.51433,463.96944L270.2743,463.96944L270.2743,464.20947L269.79424,464.20947L269.79424,464.92954
				L269.55421,464.92954L269.55421,465.16957L269.31418,465.16957L269.31418,465.88965L268.83412,465.88965L268.83412,466.60972
				L268.59409,466.60972L268.59409,467.08977L268.35406,467.08977L268.35406,467.56983L267.87399,467.56983L267.87399,468.04988
				L267.63396,468.04988L267.63396,468.76995L267.1539,468.76995L267.1539,469.00998L266.91387,469.00998L266.91387,469.73006L266.67384,469.73006
				L266.67384,470.45013L266.19378,470.45013L266.19378,470.69016L265.95375,470.69016L265.95375,471.41023L265.71372,471.41023
				L265.71372,472.13031L265.23366,472.13031L265.23366,472.37034L264.99363,472.37034L264.99363,473.09041L264.51357,473.09041
				L264.51357,473.81049L264.27354,473.81049L264.27354,474.05052L264.03351,474.05052L264.03351,474.77059L263.55345,474.77059
				L263.55345,475.25064L263.31342,475.25064L263.31342,475.73069L263.07339,475.73069L263.07339,476.21075L262.59332,476.21075
				L262.59332,476.93082L262.35329,476.93082L262.35329,477.41087L262.11326,477.41087L262.11326,477.89092L261.6332,477.89092L
				261.6332,478.611L261.39317,478.611L261.39317,478.85103L260.91311,478.85103L260.91311,479.5711L260.67308,479.5711L260.67308,480.29118
				L260.43305,480.29118L260.43305,480.53121L259.95299,480.53121L259.95299,481.25128L259.71296,481.25128L259.71296,481.97136
				L259.47293,481.97136L259.47293,482.21139L258.99287,482.21139L258.99287,482.93146L258.75284,482.93146L258.75284,483.41151
				L258.51281,483.41151L258.51281,483.89156L258.03275,483.89156L258.03275,484.61164L257.79272,484.61164L257.79272,485.09169
				L257.31265,485.09169L257.31265,485.57174L257.07262,485.57174L257.07262,486.05179L256.83259,486.05179L256.83259,486.77187
				L256.35253,486.77187L256.35253,487.25192L256.1125,487.25192L256.1125,487.73197L255.87247,487.73197L255.87247,488.45205L255.39241,488.45205
				L255.39241,489.17213L255.15238,489.17213L255.15238,489.41215L254.91235,489.41215L254.91235,490.13223L254.43229,490.13223
				L254.43229,490.85231L254.19226,490.85231L254.19226,491.09233L253.7122,491.09233L253.7122,491.81241L253.47217,491.81241L253.47217,492.29246
				L253.23214,492.29246L253.23214,492.77251L252.75208,492.77251L252.75208,493.25256L252.51205,493.25256L252.51205,493.73261
				L252.27201,493.73261L252.27201,494.45269L251.79195,494.45269L251.79195,494.93274L251.55192,494.93274L251.55192,495.41279
				L251.31189,495.41279L251.31189,495.89284L250.83183,495.89284L250.83183,496.37289L250.5918,496.37289L250.5918,496.85295L250.11174,496.85295
				L250.11174,497.57302L249.87171,497.57302L249.87171,498.05307L249.63168,498.05307L249.63168,498.53312L249.15162,498.53312
				L249.15162,499.01318L248.91159,499.01318L248.91159,499.49323L248.67156,499.49323L248.67156,499.97328L248.1915,499.97328L
				248.1915,500.2133L246.99134,500.2133L246.99134,499.49323L246.51128,499.49323L246.51128,499.2532L246.27125,499.2532L246.27125,499.49323
				L245.55116,499.49323L245.55116,499.97328L245.0711,499.97328L245.0711,500.2133L244.35101,500.2133L244.35101,500.45333L243.63092,500.45333
				L243.63092,500.93338L242.6708,500.93338L242.6708,501.17341L241.9507,501.17341L241.9507,501.65346L241.47064,501.65346L241.47064,501.89348
				L240.75055,501.89348L240.75055,502.13351L240.03046,502.13351L240.03046,502.61356L239.31037,502.61356L239.31037,502.85359
				L238.83031,502.85359L238.83031,503.09361L238.11022,503.09361L238.11022,503.57366L237.39013,503.57366L237.39013,503.81369
				L236.67003,503.81369L236.67003,504.05371L236.18997,504.05371L236.18997,504.53376L235.46988,504.53376L235.46988,504.77379
				L234.74979,504.77379L234.74979,505.25384L234.50976,505.25384L234.50976,505.49387L233.78967,505.49387L233.78967,505.73389
				L233.06958,505.73389L233.06958,506.21394L232.58952,506.21394L232.58952,506.45397L231.86943,506.45397L231.86943,506.69399
				L230.9093,506.69399L230.9093,506.45397L230.66927,506.45397L230.66927,505.73389L230.18921,505.73389L230.18921,505.49387L229.94918,505.49387
				L229.94918,504.77379L229.46912,504.77379L229.46912,504.05371L230.18921,504.05371L230.18921,503.81369L230.66927,503.81369
				L230.66927,503.57366L230.9093,503.57366L230.9093,503.09361L231.62939,503.09361L231.62939,502.85359L231.86943,502.85359L231.86943,502.61356
				L232.10946,502.61356L232.10946,502.13351L232.82955,502.13351L232.82955,501.89348L233.06958,501.89348L233.06958,501.65346
				L233.78967,501.65346L233.78967,501.17341L234.26973,501.17341L234.26973,500.93338L234.50976,500.93338L234.50976,500.45333
				L235.22985,500.45333L235.22985,499.97328L234.74979,499.97328L234.74979,499.49323L234.50976,499.49323L234.50976,499.2532L
				234.26973,499.2532L234.26973,499.01318L233.78967,499.01318L233.78967,498.53312L233.54964,498.53312L233.54964,498.2931L233.06958,498.2931
				L233.06958,498.05307L232.82955,498.05307L232.82955,497.57302L232.58952,497.57302L232.58952,497.333L232.10946,497.333L232.10946,496.85295
				L231.86943,496.85295L231.86943,496.61292L231.62939,496.61292L231.62939,496.37289L230.9093,496.37289L230.9093,495.89284L230.66927,495.89284
				L230.66927,495.65282L230.18921,495.65282L230.18921,495.41279L229.94918,495.41279L229.94918,494.93274L229.46912,494.93274
				L229.46912,494.69272L229.22909,494.69272L229.22909,494.45269L228.98906,494.45269L228.98906,493.97264L228.26897,493.97264
				L228.26897,493.73261L228.02894,493.73261L228.02894,493.25256L227.54888,493.25256L227.54888,493.97264L227.30885,493.97264
				L227.30885,494.45269L227.06882,494.45269L227.06882,493.97264L226.34872,493.97264L226.34872,493.73261L225.86866,493.73261
				L225.86866,493.97264L225.62863,493.97264L225.62863,494.45269L225.3886,494.45269L225.3886,494.93274L224.90854,494.93274L224.90854,495.41279
				L224.66851,495.41279L224.66851,495.89284L224.42848,495.89284L224.42848,495.65282L223.94842,495.65282L223.94842,495.41279
				L223.46836,495.41279L223.46836,494.93274L222.74827,494.93274L222.74827,494.69272L222.02818,494.69272L222.02818,494.45269
				L221.30809,494.45269L221.30809,493.97264L221.06805,493.97264L221.06805,493.73261L220.34796,493.73261L220.34796,493.25256
				L219.62787,493.25256L219.62787,493.01254L219.14781,493.01254L219.14781,492.77251L218.42772,492.77251L218.42772,492.29246
				L218.18769,492.29246L218.18769,492.05243L217.4676,492.05243L217.4676,491.81241L216.74751,491.81241L216.74751,491.33236L216.02742,491.33236
				L216.02742,491.09233L215.54735,491.09233L215.54735,490.85231L214.82726,490.85231L214.82726,490.37225L214.10717,490.37225
				L214.10717,490.13223L213.86714,490.13223L213.86714,489.65218L213.14705,489.65218L213.14705,489.41215L212.42696,489.41215
				L212.42696,489.17213L212.18693,489.17213L212.18693,488.69208L211.9469,488.69208L211.9469,488.45205L211.46684,488.45205L211.46684,488.21202
				L210.50671,488.21202L210.50671,488.45205L210.26668,488.45205L210.26668,488.69208L210.02665,488.69208L210.02665,489.17213
				L209.54659,489.17213L209.54659,489.41215L208.8265,489.41215L208.8265,489.65218L208.58647,489.65218L208.58647,490.13223L208.34644,490.13223
				L208.34644,490.37225L207.62635,490.37225L207.62635,490.85231L207.38632,490.85231L207.38632,491.09233L206.90626,491.09233
				L206.90626,491.33236L206.4262,491.33236L206.4262,491.81241L205.94614,491.81241L205.94614,492.05243L205.70611,492.05243L205.70611,492.29246
				L204.98601,492.29246L204.98601,492.77251L204.74598,492.77251L204.74598,493.01254L204.26592,493.01254L204.26592,493.25256
				L204.02589,493.25256L204.02589,493.73261L203.3058,493.73261L203.3058,493.97264L203.06577,493.97264L203.06577,494.45269L202.82574,494.45269
				L202.82574,494.69272L202.10565,494.69272L202.10565,494.93274L201.62559,494.93274L201.62559,494.45269L202.10565,494.45269
				L202.10565,493.73261L202.34568,493.73261L202.34568,492.77251L202.82574,492.77251L202.82574,491.33236L203.06577,491.33236
				L203.06577,490.37225L203.3058,490.37225L203.3058,489.65218L203.78586,489.65218L203.78586,488.69208L204.02589,488.69208L204.02589,488.21202
				L204.26592,488.21202L204.26592,487.49195L204.74598,487.49195L204.74598,486.77187L204.98601,486.77187L204.98601,485.81177
				L205.22604,485.81177L205.22604,485.09169L205.70611,485.09169L205.70611,484.61164L205.94614,484.61164L205.94614,483.89156
				L206.4262,483.89156L206.4262,483.17149L206.66623,483.17149L206.66623,482.93146L206.90626,482.93146L206.90626,482.21139L207.38632,482.21139
				L207.38632,481.49131L207.62635,481.49131L207.62635,481.01126L207.86638,481.01126L207.86638,480.53121L208.34644,480.53121
				L208.34644,479.81113L208.58647,479.81113L208.58647,479.33108L208.8265,479.33108L208.8265,478.611L209.30656,478.611L209.30656,477.89092
				L208.8265,477.89092L208.8265,477.6509L209.30656,477.6509L209.30656,476.6908L209.54659,476.6908L209.54659,476.21075L210.02665,476.21075
				L210.02665,475.97072L210.26668,475.97072L210.26668,475.73069L210.50671,475.73069L210.50671,475.25064L210.98678,475.25064
				L210.98678,475.01062L211.46684,475.01062L211.46684,474.77059L212.18693,474.77059L212.18693,475.01062L213.14705,475.01062
				L213.14705,475.25064L214.10717,475.25064L214.10717,475.73069L215.06729,475.73069L215.06729,475.97072L215.78738,475.97072
				L215.78738,476.21075L216.50748,476.21075L216.50748,476.6908L217.4676,476.6908L217.4676,476.21075L217.70763,476.21075L217.70763,475.97072
				L218.42772,475.97072L218.42772,475.73069L218.66775,475.73069L218.66775,475.25064L219.38784,475.25064L219.38784,475.01062
				L219.62787,475.01062L219.62787,474.77059L220.82802,474.77059L220.82802,474.29054L221.78815,474.29054L221.78815,474.05052
				L222.74827,474.05052L222.74827,473.81049L223.46836,473.81049L223.46836,473.33044L223.94842,473.33044L223.94842,473.09041
				L225.3886,473.09041L225.3886,472.61036L225.62863,472.61036L225.62863,472.37034L225.86866,472.37034L225.86866,472.13031L226.34872,472.13031
				L226.34872,471.65026L226.58876,471.65026L226.58876,471.41023L227.06882,471.41023L227.06882,470.69016L227.30885,470.69016
				L227.30885,470.45013L227.54888,470.45013L227.54888,470.21011L228.02894,470.21011L228.02894,469.73006L228.26897,469.73006
				L228.26897,469.00998L228.509,469.00998L228.509,468.76995L228.98906,468.76995L228.98906,468.52993L229.46912,468.52993L229.46912,468.04988
				L229.94918,468.04988L229.94918,467.80985L230.18921,467.80985L230.18921,467.56983L230.66927,467.56983L230.66927,466.84975
				L230.9093,466.84975L230.9093,466.60972L231.14933,466.60972L231.14933,465.88965L230.9093,465.88965L230.9093,461.56919L230.66927,461.56919
				L230.66927,459.88901L230.18921,459.88901L230.18921,458.68888L229.94918,458.68888L229.94918,456.76867L229.46912,456.76867
				L229.46912,454.36842L229.22909,454.36842L229.22909,453.40832L228.98906,453.40832L228.98906,451.96816L228.509,451.96816L228.509,451.48811
				L228.26897,451.48811L228.26897,449.80793L228.02894,449.80793L228.02894,448.36778L227.54888,448.36778L227.54888,447.16765
				L227.30885,447.16765L227.30885,445.96752L227.06882,445.96752L227.06882,443.80729L226.58876,443.80729L226.58876,442.60717
				L226.34872,442.60717L226.34872,441.64706L225.86866,441.64706L225.86866,440.68696L225.62863,440.68696L225.62863,439.72686
				L225.3886,439.72686L225.3886,437.3266L224.90854,437.3266L224.90854,430.12584L225.3886,430.12584L225.3886,425.56535L224.90854,425.56535
				L224.90854,424.84527L224.66851,424.84527L224.66851,424.60525L224.42848,424.60525L224.42848,423.88517L223.94842,423.88517
				L223.94842,423.64514L223.70839,423.64514L223.70839,422.92507L223.46836,422.92507L223.46836,422.68504L222.9883,422.68504L
				222.9883,421.96497L222.74827,421.96497L222.74827,421.72494L222.26821,421.72494L222.26821,421.24489L222.02818,421.24489L222.02818,420.52481
				L221.78815,420.52481L221.78815,420.28479L221.30809,420.28479L221.30809,420.04476L221.06805,420.04476L221.06805,419.56471
				L220.82802,419.56471L220.82802,419.32468L220.34796,419.32468L220.34796,419.08466L220.10793,419.08466L220.10793,418.60461
				L219.38784,418.60461L219.38784,418.36458L219.14781,418.36458L219.14781,418.12456L218.66775,418.12456L218.66775,416.92443
				L218.42772,416.92443L218.42772,416.6844L218.18769,416.6844L218.18769,409.72366L218.42772,409.72366L218.42772,409.48364L218.66775,409.48364
				L218.66775,408.76356L219.14781,408.76356L219.14781,408.52353L219.38784,408.52353L219.38784,407.80346L219.62787,407.80346
				L219.62787,407.08338L220.10793,407.08338L220.10793,406.60333L220.34796,406.60333L220.34796,405.88325L220.82802,405.88325
				L220.82802,405.16318L221.06805,405.16318L221.06805,404.68312L221.30809,404.68312L221.30809,403.24297L221.78815,403.24297
				L221.78815,401.32277L222.02818,401.32277L222.02818,400.60269L221.78815,400.60269L221.78815,398.68248L221.30809,398.68248
				L221.30809,393.88197L221.78815,393.88197L221.78815,392.68185L222.02818,392.68185L222.02818,391.72174L222.26821,391.72174
				L222.26821,391.48172L222.74827,391.48172L222.74827,391.24169L223.70839,391.24169L223.70839,390.76164L224.42848,390.76164
				L224.42848,390.52161L224.66851,390.52161L224.66851,390.28159L224.90854,390.28159L224.90854,389.80154L225.62863,389.80154
				L225.62863,389.56151L225.86866,389.56151L225.86866,389.08146L226.34872,389.08146L226.34872,388.84144L227.06882,388.84144
				L227.06882,388.60141L227.30885,388.60141L227.30885,388.12136L228.02894,388.12136L228.02894,387.88133L228.26897,387.88133
				L228.26897,387.64131L228.98906,387.64131L228.98906,387.16126L229.46912,387.16126L229.46912,386.92123L229.94918,386.92123
				L229.94918,386.44118L230.66927,386.44118L230.66927,386.20115L231.14933,386.20115L231.14933,385.96113L231.62939,385.96113
				L231.62939,385.48108L231.86943,385.48108L231.86943,385.00103L232.10946,385.00103L232.10946,384.52098L232.58952,384.52098
				L232.58952,384.28095L232.82955,384.28095L232.82955,384.04092L233.06958,384.04092L233.06958,383.56087L233.54964,383.56087
				L233.54964,383.32085L233.78967,383.32085L233.78967,382.8408L234.26973,382.8408L234.26973,382.60077L234.50976,382.60077L234.50976,382.36075
				L234.74979,382.36075L234.74979,381.88069L235.22985,381.88069L235.22985,381.64067L235.46988,381.64067L235.46988,381.40064
				L235.70991,381.40064L235.70991,380.92059L236.18997,380.92059L236.18997,380.68057L236.43,380.68057L236.43,380.44054L236.67003,380.44054
				L236.67003,379.96049L237.1501,379.96049L237.1501,379.72046L238.11022,379.72046L238.11022,379.24041L239.31037,379.24041L239.31037,379.00039
				L240.27049,379.00039L240.27049,378.76036L240.75055,378.76036L240.75055,378.28031L240.99058,378.28031L240.99058,378.04028
				L241.47064,378.04028L241.47064,377.80026L241.71067,377.80026L241.71067,377.32021L241.9507,377.32021L241.9507,377.08018L242.43077,377.08018
				L242.43077,376.84016L242.6708,376.84016L242.6708,376.36011L242.91083,376.36011L242.91083,376.12008L243.39089,376.12008L243.39089,375.64003
				L243.63092,375.64003L243.63092,375.4L244.11098,375.4L244.11098,375.15998L244.35101,375.15998L244.35101,374.67993L244.59104,374.67993
				L244.59104,374.4399L245.0711,374.4399L245.0711,374.19988L245.31113,374.19988"/>
			<path clip-path="url(#SVG_CP_2)" fill="none" stroke="#999999" stroke-width="0.96012" stroke-miterlimit="10" stroke-linecap="round" stroke-linejoin="round" d="
				M245.31113,374.19988L245.31113,373.71982L245.55116,373.71982L245.55116,373.4798L246.03122,373.4798L246.03122,373.23977L246.27125,373.23977
				L246.27125,372.5197L246.51128,372.5197L246.51128,372.03965L246.99134,372.03965L246.99134,371.55959L247.23137,371.55959L247.23137,371.07954
				L247.71144,371.07954L247.71144,370.11944L247.95147,370.11944L247.95147,369.63939L248.1915,369.63939L248.1915,368.91931L248.67156,368.91931
				L248.67156,368.19924L248.91159,368.19924L248.91159,367.47916L249.15162,367.47916L249.15162,366.99911L249.63168,366.99911
				L249.63168,366.27903L249.87171,366.27903L249.87171,365.55895L250.11174,365.55895L250.11174,364.83888L250.5918,364.83888L
				250.5918,364.35883L250.83183,364.35883L250.83183,363.63875L251.31189,363.63875L251.31189,362.91867L251.55192,362.91867L251.55192,362.1986
				L251.79195,362.1986L251.79195,361.71855L252.27201,361.71855L252.27201,360.99847L252.51205,360.99847L252.51205,360.27839L
				252.75208,360.27839L252.75208,359.79834L253.23214,359.79834L253.23214,359.07826L253.47217,359.07826L253.47217,358.35819L
				253.7122,358.35819L253.7122,357.63811L254.19226,357.63811L254.19226,357.15806L254.43229,357.15806L254.43229,356.43798L254.91235,356.43798
				L254.91235,355.47788L255.15238,355.47788L255.15238,354.7578L255.39241,354.7578L255.39241,353.7977L255.15238,353.7977L255.15238,353.07762
				L254.91235,353.07762L254.91235,352.59757L254.43229,352.59757L254.43229,351.39745L254.19226,351.39745L254.19226,350.91739
				L253.7122,350.91739L253.7122,349.95729L253.47217,349.95729L253.47217,348.99719L253.23214,348.99719L253.23214,348.51714L252.75208,348.51714
				L252.75208,347.55704L252.51205,347.55704L252.51205,346.59693L252.27201,346.59693L252.27201,345.39681L251.79195,345.39681
				L251.79195,344.19668L251.55192,344.19668L251.55192,343.71663L251.31189,343.71663L251.31189,342.99655L250.83183,342.99655
				L250.83183,342.75652L250.5918,342.75652L250.5918,342.27647L250.11174,342.27647L250.11174,342.03645L249.87171,342.03645L249.87171,341.79642
				L249.63168,341.79642L249.63168,341.31637L249.15162,341.31637L249.15162,341.07635L248.91159,341.07635L248.91159,340.59629
				L248.67156,340.59629L248.67156,340.11624L248.1915,340.11624L248.1915,339.63619L247.95147,339.63619L247.95147,339.39617L247.71144,339.39617
				L247.71144,339.15614L247.23137,339.15614L247.23137,338.67609L246.99134,338.67609L246.99134,338.43606L246.51128,338.43606
				L246.51128,337.95601L246.27125,337.95601L246.27125,337.71599L246.03122,337.71599L246.03122,337.47596L245.55116,337.47596
				L245.55116,336.99591L245.31113,336.99591L245.31113,336.75589L245.0711,336.75589L245.0711,336.51586L244.59104,336.51586L244.59104,336.03581
				L244.35101,336.03581L244.35101,335.79578L244.11098,335.79578L244.11098,335.55576L243.63092,335.55576L243.63092,335.07571
				L243.39089,335.07571L243.39089,334.35563L242.91083,334.35563L242.91083,334.1156L242.6708,334.1156L242.6708,333.87558L242.43077,333.87558
				L242.43077,333.39553L241.9507,333.39553L241.9507,333.1555L241.71067,333.1555L241.71067,332.91548L241.47064,332.91548L241.47064,332.43543
				L240.99058,332.43543L240.99058,332.1954L240.75055,332.1954L240.75055,331.47532L240.27049,331.47532L240.27049,331.2353L240.03046,331.2353
				L240.03046,330.75525L239.79043,330.75525L239.79043,330.51522L239.31037,330.51522L239.31037,330.27519L239.07034,330.27519
				L239.07034,329.79514L238.83031,329.79514L238.83031,329.55512L238.35025,329.55512L238.35025,329.31509L238.11022,329.31509
				L238.11022,328.59502L237.87019,328.59502L237.87019,328.35499L237.39013,328.35499L237.39013,327.87494L237.1501,327.87494L
				237.1501,327.63491L236.67003,327.63491L236.67003,327.15486L236.43,327.15486L236.43,326.67481L236.18997,326.67481L236.18997,326.19476
				L235.70991,326.19476L235.70991,325.95473L235.46988,325.95473L235.46988,325.23466L235.22985,325.23466L235.22985,324.99463
				L234.74979,324.99463L234.74979,324.75461L234.50976,324.75461L234.50976,324.27456L234.26973,324.27456L234.26973,324.03453
				L233.78967,324.03453L233.78967,323.31445L233.54964,323.31445L233.54964,323.07443L233.06958,323.07443L233.06958,322.35435
				L232.82955,322.35435L232.82955,322.11433L232.58952,322.11433L232.58952,321.63427L232.10946,321.63427L232.10946,321.39425
				L231.86943,321.39425L231.86943,319.9541L231.62939,319.9541L231.62939,319.71407L231.14933,319.71407L231.14933,319.47404L230.9093,319.47404
				L230.9093,318.99399L230.66927,318.99399L230.66927,318.75397L230.18921,318.75397L230.18921,318.03389L229.94918,318.03389L
				229.94918,317.79386L229.46912,317.79386L229.46912,317.31381L229.22909,317.31381L229.22909,317.07379L228.98906,317.07379L
				228.98906,316.83376L228.509,316.83376L228.509,316.11369L228.26897,316.11369L228.26897,315.39361L228.02894,315.39361L228.02894,315.15358
				L227.54888,315.15358L227.54888,314.43351L227.30885,314.43351L227.30885,313.71343L227.06882,313.71343L227.06882,313.4734L
				226.58876,313.4734L226.58876,312.75333L226.34872,312.75333L226.34872,312.27328L225.86866,312.27328L225.86866,311.5532L225.62863,311.5532
				L225.62863,309.87302L225.3886,309.87302L225.3886,308.67289L224.90854,308.67289L224.90854,307.95282L224.66851,307.95282L224.66851,303.39233
				L224.90854,303.39233L224.90854,302.43223L225.3886,302.43223L225.3886,301.71215L225.62863,301.71215L225.62863,300.99207L225.86866,300.99207
				L225.86866,300.75205L226.34872,300.75205L226.34872,300.03197L226.58876,300.03197L226.58876,299.3119L227.06882,299.3119L227.06882,298.83184
				L227.30885,298.83184L227.30885,298.11177L227.54888,298.11177L227.54888,297.87174L228.02894,297.87174L228.02894,297.39169
				L228.26897,297.39169L228.26897,298.11177L228.509,298.11177L228.509,298.83184L228.98906,298.83184L228.98906,299.3119L229.46912,299.3119
				L229.46912,299.07187L230.66927,299.07187L230.66927,299.3119L230.18921,299.3119L230.18921,300.03197L229.94918,300.03197L229.94918,300.75205
				L230.18921,300.75205L230.18921,301.47213L230.66927,301.47213L230.66927,301.95218L230.9093,301.95218L230.9093,302.67225L231.14933,302.67225
				L231.14933,303.63236L231.62939,303.63236L231.62939,304.35243L231.86943,304.35243L231.86943,304.59246L232.10946,304.59246
				L232.10946,305.07251L232.58952,305.07251L232.58952,305.31253L232.82955,305.31253L232.82955,306.03261L233.06958,306.03261
				L233.06958,306.27264L233.54964,306.27264L233.54964,306.99271L233.78967,306.99271L233.78967,307.23274L234.26973,307.23274
				L234.26973,307.95282L234.50976,307.95282L234.50976,308.19284L234.74979,308.19284L234.74979,308.67289L235.22985,308.67289
				L235.22985,309.15294L235.46988,309.15294L235.46988,309.633L235.70991,309.633L235.70991,314.19348L236.18997,314.19348L236.18997,314.43351
				L236.43,314.43351L236.43,315.15358L236.67003,315.15358L236.67003,315.87366L237.1501,315.87366L237.1501,316.11369L237.39013,316.11369
				L237.39013,316.83376L237.87019,316.83376L237.87019,317.07379L238.11022,317.07379L238.11022,317.31381L238.35025,317.31381
				L238.35025,318.03389L238.83031,318.03389L238.83031,318.51394L239.07034,318.51394L239.07034,318.75397L239.31037,318.75397
				L239.31037,318.99399L239.79043,318.99399L239.79043,319.47404L240.03046,319.47404L240.03046,319.71407L240.27049,319.71407
				L240.27049,319.9541L240.75055,319.9541L240.75055,320.43415L240.99058,320.43415L240.99058,320.67417L241.47064,320.67417L241.47064,321.15422
				L241.71067,321.15422L241.71067,321.39425L241.9507,321.39425L241.9507,321.63427L242.43077,321.63427L242.43077,322.11433L242.6708,322.11433
				L242.6708,322.35435L242.91083,322.35435L242.91083,322.59438L243.39089,322.59438L243.39089,323.07443L243.63092,323.07443L
				243.63092,323.31445L244.11098,323.31445L244.11098,324.03453L244.35101,324.03453L244.35101,324.27456L244.59104,324.27456L
				244.59104,324.75461L245.0711,324.75461L245.0711,324.99463L245.31113,324.99463L245.31113,325.23466L245.55116,325.23466L245.55116,325.95473
				L246.03122,325.95473L246.03122,326.19476L246.27125,326.19476L246.27125,326.67481L246.51128,326.67481L246.51128,326.91484
				L246.99134,326.91484L246.99134,327.15486L247.23137,327.15486L247.23137,327.63491L247.71144,327.63491L247.71144,327.87494
				L247.95147,327.87494L247.95147,328.35499L248.1915,328.35499L248.1915,328.59502L248.67156,328.59502L248.67156,329.31509L248.91159,329.31509
				L248.91159,329.55512L249.15162,329.55512L249.15162,329.79514L249.63168,329.79514L249.63168,330.27519L249.87171,330.27519
				L249.87171,330.51522L250.11174,330.51522L250.11174,330.75525L250.5918,330.75525L250.5918,329.79514L250.83183,329.79514L250.83183,329.55512
				L250.5918,329.55512L250.5918,328.83504L250.11174,328.83504L250.11174,327.63491L250.5918,327.63491L250.5918,327.15486L250.83183,327.15486
				L250.83183,326.91484L251.31189,326.91484L251.31189,326.67481L251.55192,326.67481L251.55192,326.19476L251.79195,326.19476
				L251.79195,325.95473L252.27201,325.95473L252.27201,325.71471L252.51205,325.71471L252.51205,325.23466L252.75208,325.23466
				L252.75208,324.99463L253.23214,324.99463L253.23214,324.75461L253.47217,324.75461L253.47217,324.27456L253.7122,324.27456L
				253.7122,324.03453L254.19226,324.03453L254.19226,323.55448L254.43229,323.55448L254.43229,323.31445L254.91235,323.31445L254.91235,322.35435
				L255.15238,322.35435L255.15238,322.11433L255.39241,322.11433L255.39241,321.63427L255.87247,321.63427L255.87247,321.39425
				L256.1125,321.39425L256.1125,321.15422L256.35253,321.15422L256.35253,320.67417L256.83259,320.67417L256.83259,320.43415L257.07262,320.43415
				L257.07262,319.9541L257.31265,319.9541L257.31265,319.71407L257.79272,319.71407L257.79272,319.47404L258.03275,319.47404L258.03275,318.99399
				L258.51281,318.99399L258.51281,318.75397L258.75284,318.75397L258.75284,318.51394L258.99287,318.51394L258.99287,318.03389
				L259.47293,318.03389L259.47293,317.79386L259.71296,317.79386L259.71296,317.31381L259.95299,317.31381L259.95299,317.07379
				L260.43305,317.07379L260.43305,316.83376L260.67308,316.83376L260.67308,316.35371L260.91311,316.35371L260.91311,316.11369
				L261.39317,316.11369L261.39317,315.87366L261.6332,315.87366L261.6332,315.39361L262.11326,315.39361L262.11326,315.15358L262.35329,315.15358
				L262.35329,314.91356L262.59332,314.91356L262.59332,314.43351L263.07339,314.43351L263.07339,314.19348L263.31342,314.19348
				L263.31342,313.71343L263.55345,313.71343L263.55345,312.75333L264.27354,312.75333L264.27354,313.4734L264.51357,313.4734L264.51357,313.71343
				L264.99363,313.71343L264.99363,314.19348L265.23366,314.19348L265.23366,314.43351L265.71372,314.43351L265.71372,314.91356
				L265.95375,314.91356L265.95375,315.15358L266.19378,315.15358L266.19378,315.39361L266.67384,315.39361L266.67384,315.87366
				L267.1539,315.87366L267.1539,316.11369L267.63396,316.11369L267.63396,316.35371L267.87399,316.35371L267.87399,316.83376L268.35406,316.83376
				L268.35406,317.07379L268.83412,317.07379L268.83412,317.31381L269.31418,317.31381L269.31418,317.79386L269.55421,317.79386
				L269.55421,318.03389L270.2743,318.03389L270.2743,318.51394L270.51433,318.51394L270.51433,318.75397L270.75436,318.75397L270.75436,318.99399
				L271.47445,318.99399L271.47445,319.47404L271.95451,319.47404L271.95451,319.71407L272.19454,319.71407L272.19454,319.9541L
				272.43457,319.9541L272.43457,320.43415L273.15466,320.43415L273.15466,320.67417L273.3947,320.67417L273.3947,321.15422L273.87476,321.15422
				L273.87476,321.39425L274.35482,321.39425L274.35482,321.63427L274.83488,321.63427L274.83488,322.11433L275.07491,322.11433
				L275.07491,322.35435L275.55497,322.35435L275.55497,322.59438L276.03503,322.59438L276.03503,323.07443L276.51509,323.07443
				L276.51509,323.31445L276.75512,323.31445L276.75512,323.55448L277.47521,323.55448L277.47521,324.03453L277.71524,324.03453
				L277.71524,324.27456L277.95527,324.27456L277.95527,324.75461L278.67537,324.75461L278.67537,324.99463L279.15543,324.99463
				L279.15543,325.23466L279.39546,325.23466L279.39546,325.71471L280.11555,325.71471L280.11555,325.95473L280.35558,325.95473
				L280.35558,326.19476L280.59561,326.19476L280.59561,326.67481L281.3157,326.67481L281.3157,326.91484L281.55573,326.91484L281.55573,327.15486
				L282.03579,327.15486L282.03579,327.63491L282.75588,327.63491L282.75588,327.87494L282.99591,327.87494L282.99591,328.35499
				L283.23594,328.35499L283.23594,328.59502L283.95604,328.59502L283.95604,328.83504L284.19607,328.83504L284.19607,329.31509
				L284.91616,329.31509L284.91616,329.55512L285.15619,329.55512L285.15619,329.79514L285.87628,329.79514L285.87628,330.27519
				L286.59637,330.27519L286.59637,330.51522L286.8364,330.51522L286.8364,330.75525L287.55649,330.75525L287.55649,331.2353L288.27658,331.2353
				L288.27658,331.47532L288.51661,331.47532L288.51661,331.95537L289.23671,331.95537L289.23671,332.1954L289.47674,332.1954L289.47674,332.43543
				L290.19683,332.43543L290.19683,332.91548L291.87704,332.91548L291.87704,333.1555L293.07719,333.1555L293.07719,333.39553L294.75741,333.39553
				L294.75741,333.87558L294.99744,333.87558L294.99744,333.39553L309.15923,333.39553L309.15923,333.1555L317.08024,333.1555L317.08024,332.91548
				L319.24051,332.91548L319.24051,332.43543L321.64082,332.43543L321.64082,332.1954L323.56106,332.1954L323.56106,332.43543L322.84097,332.43543
				L322.84097,332.91548L322.36091,332.91548L322.36091,333.1555L321.88085,333.1555L321.88085,333.39553L321.40079,333.39553L321.40079,333.87558
				L320.6807,333.87558L320.6807,334.1156L319.9606,334.1156L319.9606,334.35563L319.24051,334.35563L319.24051,334.83568L318.76045,334.83568
				L318.76045,335.07571L318.28039,335.07571L318.28039,335.55576L317.80033,335.55576L317.80033,335.79578L317.08024,335.79578
				L317.08024,336.03581L316.36015,336.03581L316.36015,336.51586L315.64006,336.51586L315.64006,336.75589L315.40003,336.75589
				L315.40003,336.99591L314.67993,336.99591L314.67993,337.47596L314.19987,337.47596L314.19987,337.71599L313.47978,337.71599
				L313.47978,337.95601L312.75969,337.95601L312.75969,338.43606L312.0396,338.43606L312.0396,338.67609L311.55954,338.67609L311.55954,339.15614
				L310.83945,339.15614L310.83945,339.39617L309.87933,339.39617L309.87933,339.63619L309.15923,339.63619L309.15923,340.11624
				L308.43914,340.11624L308.43914,340.35627L307.95908,340.35627L307.95908,340.59629L306.99896,340.59629L306.99896,341.07635
				L306.27887,341.07635L306.27887,341.31637L305.55878,341.31637L305.55878,341.79642L304.59865,341.79642L304.59865,342.03645
				L303.87856,342.03645L303.87856,342.27647L303.3985,342.27647L303.3985,342.75652L302.19835,342.75652L302.19835,342.99655L301.71829,342.99655
				L301.71829,343.23658L300.9982,343.23658L300.9982,343.71663L300.27811,343.71663L300.27811,343.95665L299.31798,343.95665L299.31798,344.19668
				L298.59789,344.19668L298.59789,344.67673L298.35786,344.67673L298.35786,344.91676L298.11783,344.91676L298.11783,345.63683
				L297.63777,345.63683L297.63777,345.87686L298.11783,345.87686L298.11783,346.59693L298.35786,346.59693L298.35786,347.31701
				L298.59789,347.31701L298.59789,347.79706L299.07795,347.79706L299.07795,348.51714L299.31798,348.51714L299.31798,349.47724
				L299.79805,349.47724L299.79805,350.19732L300.03808,350.19732L300.03808,350.91739L300.27811,350.91739L300.27811,351.39745
				L300.75817,351.39745L300.75817,352.11752L300.9982,352.11752L300.9982,352.8376L301.23823,352.8376L301.23823,353.7977L301.71829,353.7977
				L301.71829,354.51778L301.95832,354.51778L301.95832,354.99783L302.19835,354.99783L302.19835,355.71791L302.67841,355.71791
				L302.67841,356.43798L302.91844,356.43798L302.91844,357.15806L303.3985,357.15806L303.3985,357.63811L303.63853,357.63811L303.63853,358.59821
				L303.87856,358.59821L303.87856,359.31829L304.35862,359.31829L304.35862,360.03837L304.59865,360.03837L304.59865,360.75844
				L304.35862,360.75844L304.35862,361.95857L303.87856,361.95857L303.87856,362.67865L303.63853,362.67865L303.63853,363.39872
				L303.3985,363.39872L303.3985,363.63875L302.91844,363.63875L302.91844,363.87878L302.67841,363.87878L302.67841,364.35883L302.19835,364.35883
				L302.19835,364.59885L301.71829,364.59885L301.71829,364.83888L301.23823,364.83888L301.23823,365.31893L300.9982,365.31893L
				300.9982,365.55895L300.75817,365.55895L300.75817,366.03901L300.03808,366.03901L300.03808,366.27903L299.79805,366.27903L299.79805,366.51906
				L299.31798,366.51906L299.31798,366.99911L299.07795,366.99911L299.07795,367.23913L298.59789,367.23913L298.59789,367.47916
				L298.11783,367.47916L298.11783,367.95921L297.63777,367.95921L297.63777,368.19924L298.35786,368.19924L298.35786,368.43926
				L299.07795,368.43926L299.07795,368.91931L299.79805,368.91931L299.79805,369.15934L300.03808,369.15934L300.03808,369.63939
				L300.75817,369.63939L300.75817,369.87942L301.23823,369.87942L301.23823,370.11944L301.95832,370.11944L301.95832,370.59949
				L302.19835,370.59949L302.19835,370.83952L302.91844,370.83952L302.91844,371.07954L303.63853,371.07954L303.63853,371.55959
				L303.87856,371.55959L303.87856,371.79962L304.59865,371.79962L304.59865,372.03965L305.31875,372.03965L305.31875,372.5197L
				305.79881,372.5197L305.79881,372.75972L306.27887,372.75972L306.27887,373.23977L306.99896,373.23977L306.99896,373.4798L307.47902,373.4798
				L307.47902,373.71982L308.19911,373.71982L308.19911,374.19988L308.43914,374.19988L308.43914,374.4399L309.15923,374.4399L309.15923,374.67993
				L309.87933,374.67993L309.87933,375.15998L310.11936,375.15998L310.11936,375.4L310.83945,375.4L310.83945,375.64003L311.55954,375.64003
				L311.55954,376.12008L312.0396,376.12008L312.0396,376.36011L312.51966,376.36011L312.51966,376.84016L312.99972,376.84016L312.99972,377.08018
				L313.71981,377.08018L313.71981,377.32021L314.4399,377.32021L314.4399,377.80026L314.67993,377.80026L314.67993,378.04028L315.40003,378.04028
				L315.40003,378.28031L316.12012,378.28031L316.12012,378.76036L316.84021,378.76036L316.84021,379.00039L317.08024,379.00039
				L317.08024,379.24041L317.80033,379.24041L317.80033,379.72046L318.28039,379.72046L318.28039,379.96049L319.00048,379.96049
				L319.00048,380.44054L319.72057,380.44054L319.72057,380.68057"/>
			<path clip-path="url(#SVG_CP_2)" fill="none" stroke="#999999" stroke-width="0.96012" stroke-miterlimit="10" stroke-linecap="round" stroke-linejoin="round" d="
				M225.86866,420.28479L225.86866,420.04476L226.34872,420.04476L226.34872,419.56471L226.58876,419.56471L226.58876,419.32468
				L227.06882,419.32468L227.06882,419.08466L227.30885,419.08466L227.30885,418.60461L227.54888,418.60461L227.54888,418.36458
				L228.02894,418.36458L228.02894,418.12456L228.26897,418.12456L228.26897,417.64451L228.509,417.64451L228.509,417.40448L229.22909,417.40448
				L229.22909,416.92443L229.46912,416.92443L229.46912,416.6844L229.94918,416.6844L229.94918,416.44438L230.18921,416.44438L230.18921,415.96433
				L230.66927,415.96433L230.66927,415.48427L230.9093,415.48427L230.9093,415.00422L231.14933,415.00422L231.14933,414.7642L231.62939,414.7642
				L231.62939,414.04412L231.86943,414.04412L231.86943,413.8041L232.10946,413.8041L232.10946,413.08402L232.58952,413.08402L232.58952,412.84399
				L232.82955,412.84399L232.82955,412.12392L233.06958,412.12392L233.06958,411.88389L233.54964,411.88389L233.54964,411.40384
				L233.78967,411.40384L233.78967,410.68376L234.26973,410.68376L234.26973,410.44374L234.50976,410.44374L234.50976,408.76356
				L234.74979,408.76356L234.74979,406.84335L235.22985,406.84335L235.22985,405.64323L235.46988,405.64323L235.46988,403.483L235.70991,403.483
				L235.70991,402.52289L236.18997,402.52289L236.18997,399.40256L235.70991,399.40256L235.70991,397.96241L236.18997,397.96241
				L236.18997,397.72238L235.70991,397.72238L235.70991,393.88197L235.46988,393.88197L235.46988,392.20179L235.70991,392.20179
				L235.70991,391.24169L236.18997,391.24169L236.18997,390.28159L236.43,390.28159L236.43,389.56151L236.67003,389.56151L236.67003,388.84144
				L237.1501,388.84144L237.1501,388.60141L237.39013,388.60141L237.39013,387.88133L237.87019,387.88133L237.87019,387.16126L238.11022,387.16126
				L238.11022,386.44118L238.35025,386.44118L238.35025,385.96113L238.83031,385.96113L238.83031,385.48108L239.07034,385.48108
				L239.07034,385.24105L239.31037,385.24105L239.31037,384.52098L239.79043,384.52098L239.79043,383.32085L239.31037,383.32085
				L239.31037,383.56087L238.83031,383.56087L238.83031,384.04092L238.35025,384.04092L238.35025,384.28095L238.11022,384.28095
				L238.11022,384.52098L237.87019,384.52098L237.87019,385.24105L237.39013,385.24105L237.39013,385.48108L237.1501,385.48108L
				237.1501,385.96113L236.67003,385.96113L236.67003,386.20115L236.43,386.20115L236.43,386.44118L236.18997,386.44118L236.18997,386.92123
				L235.70991,386.92123L235.70991,387.16126L235.46988,387.16126L235.46988,387.64131L235.22985,387.64131L235.22985,387.88133
				L234.74979,387.88133L234.74979,388.12136L234.50976,388.12136L234.50976,388.60141L233.78967,388.60141L233.78967,388.84144
				L232.82955,388.84144L232.82955,389.08146L232.10946,389.08146L232.10946,389.56151L231.86943,389.56151L231.86943,389.80154
				L231.14933,389.80154L231.14933,390.28159L230.9093,390.28159L230.9093,390.52161L230.66927,390.52161L230.66927,390.76164L229.94918,390.76164
				L229.94918,391.24169L229.46912,391.24169L229.46912,391.48172L228.98906,391.48172L228.98906,391.72174L228.509,391.72174L228.509,392.20179
				L228.26897,392.20179L228.26897,392.44182L227.54888,392.44182L227.54888,392.68185L227.30885,392.68185L227.30885,393.1619L
				226.58876,393.1619L226.58876,393.40192L226.34872,393.40192L226.34872,393.88197L225.86866,393.88197L225.86866,394.36202L225.62863,394.36202
				L225.62863,395.0821L225.3886,395.0821L225.3886,395.32213L224.90854,395.32213L224.90854,395.80218L224.66851,395.80218L224.66851,396.0422
				L224.42848,396.0422L224.42848,396.28223L223.94842,396.28223L223.94842,399.88261L224.42848,399.88261L224.42848,404.20307L
				223.94842,404.20307L223.94842,404.68312L223.70839,404.68312L223.70839,405.88325L223.46836,405.88325L223.46836,407.80346L
				222.9883,407.80346L222.9883,408.28351L222.74827,408.28351L222.74827,409.24361L222.26821,409.24361L222.26821,409.48364L222.02818,409.48364
				L222.02818,409.72366L221.30809,409.72366L221.30809,410.20371L221.06805,410.20371L221.06805,410.44374L220.34796,410.44374
				L220.34796,410.68376L220.10793,410.68376L220.10793,411.88389L219.62787,411.88389L219.62787,413.8041L220.10793,413.8041L220.10793,415.00422
				L220.34796,415.00422L220.34796,416.44438L220.82802,416.44438L220.82802,416.6844L221.06805,416.6844L221.06805,416.92443L221.30809,416.92443
				L221.30809,417.40448L221.78815,417.40448L221.78815,418.12456L222.02818,418.12456L222.02818,418.36458L222.26821,418.36458
				L222.26821,418.60461L222.9883,418.60461L222.9883,419.08466L223.70839,419.08466L223.70839,419.32468L224.42848,419.32468L224.42848,419.56471
				L224.90854,419.56471L224.90854,420.04476L225.3886,420.04476L225.3886,420.28479L225.86866,420.28479"/>
			<path clip-path="url(#SVG_CP_2)" fill="none" stroke="#999999" stroke-width="0.96012" stroke-miterlimit="10" stroke-linecap="round" stroke-linejoin="round" d="
				M270.51433,463.96944L270.75436,463.96944L270.75436,463.48939L271.23442,463.48939L271.23442,463.24936L271.47445,463.24936
				L271.47445,463.00934L271.95451,463.00934L271.95451,462.52929L272.19454,462.52929L272.19454,462.28926L272.43457,462.28926
				L272.43457,461.80921L272.91463,461.80921L272.91463,461.56919L273.15466,461.56919L273.15466,461.32916L273.3947,461.32916L
				273.3947,460.84911L273.87476,460.84911L273.87476,460.60908L274.11479,460.60908L274.11479,460.36906L274.35482,460.36906L274.35482,459.88901
				L274.83488,459.88901L274.83488,459.16893L275.07491,459.16893L275.07491,458.9289L275.55497,458.9289L275.55497,458.68888L275.795,458.68888
				L275.795,458.20883L276.03503,458.20883L276.03503,457.9688L276.51509,457.9688L276.51509,457.72878L276.75512,457.72878L276.75512,457.24873
				L276.99515,457.24873L276.99515,457.0087L277.47521,457.0087L277.47521,456.76867L277.71524,456.76867L277.71524,456.28862L277.95527,456.28862
				L277.95527,456.0486L278.43533,456.0486L278.43533,455.56855L278.67537,455.56855L278.67537,455.32852L279.15543,455.32852L279.15543,455.0885
				L279.39546,455.0885L279.39546,454.60844L279.63549,454.60844L279.63549,454.36842L280.11555,454.36842L280.11555,454.12839L
				280.35558,454.12839L280.35558,453.64834L280.59561,453.64834L280.59561,453.40832L281.07567,453.40832L281.07567,453.16829L
				281.3157,453.16829L281.3157,452.68824L281.55573,452.68824L281.55573,452.44821L282.03579,452.44821L282.03579,451.96816L282.27582,451.96816
				L282.27582,451.72814L282.75588,451.72814L282.75588,451.48811L282.99591,451.48811L282.99591,451.00806L283.23594,451.00806
				L283.23594,450.76803L283.716,450.76803L283.716,450.52801L283.95604,450.52801L283.95604,450.04796L284.19607,450.04796L284.19607,449.80793
				L284.67613,449.80793L284.67613,449.56791L284.91616,449.56791L284.91616,449.08786L285.15619,449.08786L285.15619,448.84783
				L285.63625,448.84783L285.63625,448.36778L285.87628,448.36778L285.87628,448.12775L286.35634,448.12775L286.35634,447.88773
				L286.59637,447.88773L286.59637,447.40768L286.8364,447.40768L286.8364,447.16765L287.31646,447.16765L287.31646,446.92763L287.55649,446.92763
				L287.55649,446.44757L287.79652,446.44757L287.79652,446.20755L288.27658,446.20755L288.27658,445.96752L288.51661,445.96752
				L288.51661,445.48747L288.75664,445.48747L288.75664,445.24745L289.23671,445.24745L289.23671,444.7674L289.47674,444.7674L289.47674,444.52737
				L289.9568,444.52737L289.9568,444.28734L290.19683,444.28734L290.19683,443.80729L290.43686,443.80729L290.43686,443.56727L290.91692,443.56727
				L290.91692,443.32724L291.15695,443.32724L291.15695,442.84719L291.39698,442.84719L291.39698,442.60717L291.87704,442.60717
				L291.87704,442.36714L292.11707,442.36714L292.11707,441.88709L292.59713,441.88709L292.59713,441.64706L292.83716,441.64706
				L292.83716,441.16701L293.07719,441.16701L293.07719,440.92699L293.55725,440.92699L293.55725,440.68696L293.79728,440.68696
				L293.79728,440.20691L294.03731,440.20691L294.03731,439.96688L294.51738,439.96688L294.51738,439.72686L294.75741,439.72686
				L294.75741,439.24681L294.99744,439.24681L294.99744,439.00678L295.4775,439.00678L295.4775,438.76676L295.71753,438.76676L295.71753,438.2867
				L296.19759,438.2867L296.19759,438.04668L296.43762,438.04668L296.43762,437.56663L296.67765,437.56663L296.67765,437.3266L297.15771,437.3266
				L297.15771,437.08658L297.39774,437.08658L297.39774,436.60653L297.63777,436.60653L297.63777,436.3665L298.11783,436.3665L298.11783,436.12647
				L298.35786,436.12647L298.35786,435.64642L298.59789,435.64642L298.59789,435.4064L299.07795,435.4064L299.07795,434.92635L299.31798,434.92635
				L299.31798,434.68632L299.79805,434.68632L299.79805,434.4463L300.03808,434.4463L300.03808,433.96624L300.27811,433.96624L300.27811,433.72622
				L300.75817,433.72622L300.75817,433.48619L300.9982,433.48619L300.9982,433.00614L301.23823,433.00614L301.23823,432.76612L301.71829,432.76612
				L301.71829,432.52609L301.95832,432.52609L301.95832,432.04604L302.19835,432.04604L302.19835,431.80601L302.67841,431.80601
				L302.67841,431.32596L302.91844,431.32596L302.91844,431.08594L303.3985,431.08594L303.3985,430.84591L303.63853,430.84591L303.63853,430.36586
				L303.87856,430.36586L303.87856,430.12584L304.35862,430.12584L304.35862,429.88581L304.59865,429.88581L304.59865,429.40576
				L304.83869,429.40576L304.83869,429.16573L305.31875,429.16573L305.31875,428.92571L305.55878,428.92571L305.55878,428.44566
				L305.79881,428.44566L305.79881,428.20563L306.27887,428.20563L306.27887,427.72558L306.5189,427.72558L306.5189,427.48555L306.99896,427.48555
				L306.99896,422.20499L307.23899,422.20499L307.23899,421.72494L307.47902,421.72494L307.47902,421.00486L307.95908,421.00486
				L307.95908,420.28479L308.19911,420.28479L308.19911,419.56471L308.43914,419.56471L308.43914,419.32468L308.9192,419.32468L
				308.9192,419.08466L309.15923,419.08466L309.15923,418.60461L309.39926,418.60461L309.39926,418.36458L309.87933,418.36458L309.87933,402.28287
				L310.11936,402.28287L310.11936,402.04284L310.59942,402.04284L310.59942,401.56279L310.83945,401.56279L310.83945,401.32277
				L311.07948,401.32277L311.07948,401.08274L311.55954,401.08274L311.55954,400.60269L311.79957,400.60269L311.79957,400.36266
				L312.0396,400.36266L312.0396,399.88261L312.51966,399.88261L312.51966,399.64259L312.75969,399.64259L312.75969,399.40256L312.99972,399.40256
				L312.99972,398.92251L313.47978,398.92251L313.47978,398.68248L313.71981,398.68248L313.71981,388.84144L314.19987,388.84144
				L314.19987,388.60141L314.4399,388.60141L314.4399,388.12136L314.67993,388.12136L314.67993,387.88133L315.16,387.88133L315.16,387.64131
				L315.40003,387.64131L315.40003,387.16126L315.64006,387.16126L315.64006,386.92123L316.12012,386.92123L316.12012,386.44118
				L316.36015,386.44118L316.36015,386.20115L316.84021,386.20115L316.84021,385.96113L317.08024,385.96113L317.08024,385.48108
				L317.32027,385.48108L317.32027,385.24105L317.80033,385.24105L317.80033,385.00103L318.04036,385.00103L318.04036,384.52098
				L318.28039,384.52098L318.28039,384.28095L318.76045,384.28095L318.76045,384.04092L319.00048,384.04092L319.00048,383.56087
				L319.24051,383.56087L319.24051,383.32085L319.72057,383.32085L319.72057,380.68057L319.9606,380.68057L319.9606,380.92059L320.6807,380.92059
				L320.6807,381.40064L321.40079,381.40064L321.40079,381.64067L321.88085,381.64067L321.88085,381.88069L322.60094,381.88069L
				322.60094,382.36075L323.32103,382.36075L323.32103,382.60077L323.56106,382.60077L323.56106,382.8408L324.28115,382.8408L324.28115,383.32085
				L325.00124,383.32085L325.00124,383.56087L325.48131,383.56087L325.48131,384.04092L326.2014,384.04092L326.2014,384.28095L326.44143,384.28095
				L326.44143,384.52098L327.16152,384.52098L327.16152,385.00103L327.88161,385.00103L327.88161,385.24105L328.6017,385.24105L
				328.6017,385.48108L329.08176,385.48108L329.08176,385.96113L329.80185,385.96113L329.80185,386.20115L330.04188,386.20115L330.04188,386.44118
				L330.76198,386.44118L330.76198,386.92123L331.48207,386.92123L331.48207,387.16126L332.20216,387.16126L332.20216,387.64131
				L332.68222,387.64131L332.68222,387.88133L333.16228,387.88133L333.16228,388.12136L333.64234,388.12136L333.64234,388.60141
				L334.36243,388.60141L334.36243,388.84144L335.08252,388.84144L335.08252,389.08146L335.80261,389.08146L335.80261,389.56151
				L336.28268,389.56151L336.28268,389.80154L336.76274,389.80154L336.76274,390.28159L337.2428,390.28159L337.2428,390.52161L337.96289,390.52161
				L337.96289,390.76164L338.68298,390.76164L338.68298,391.24169L339.40307,391.24169L339.40307,391.48172L339.6431,391.48172L
				339.6431,391.72174L340.36319,391.72174L340.36319,392.20179L341.08328,392.20179L341.08328,392.44182L341.56335,392.44182L341.56335,392.68185
				L342.28344,392.68185L342.28344,393.1619L343.00353,393.1619L343.00353,393.40192L343.24356,393.40192L343.24356,393.88197L343.96365,393.88197
				L343.96365,394.122L344.68374,394.122L344.68374,394.36202L345.1638,394.36202L345.1638,394.84208L345.88389,394.84208L345.88389,395.0821
				L346.12392,395.0821L346.12392,395.32213L346.84402,395.32213L346.84402,395.80218L347.56411,395.80218L347.56411,396.0422L347.80414,396.0422
				L347.80414,396.28223L348.52423,396.28223L348.52423,396.76228L348.76426,396.76228L348.76426,397.00231L349.48435,397.00231
				L349.48435,397.48236L350.20444,397.48236L350.20444,397.72238L350.44447,397.72238L350.44447,397.96241L351.16456,397.96241
				L351.16456,398.44246L351.40459,398.44246L351.40459,398.68248L352.12469,398.68248L352.12469,398.92251L352.36472,398.92251
				L352.36472,399.40256L353.08481,399.40256L353.08481,399.64259L353.8049,399.64259L353.8049,399.88261L354.04493,399.88261L354.04493,400.36266
				L354.76502,400.36266L354.76502,400.60269L355.00505,400.60269L355.00505,401.08274L355.72514,401.08274L355.72514,401.32277
				L356.44523,401.32277L356.44523,401.56279L356.68526,401.56279L356.68526,402.04284L357.40536,402.04284L357.40536,402.28287
				L357.64539,402.28287L357.64539,402.52289L358.36548,402.52289L358.36548,403.00294L358.60551,403.00294L358.60551,403.24297
				L359.3256,403.24297L359.3256,403.483L359.56563,403.483L359.56563,403.96305L360.28572,403.96305L360.28572,404.20307L360.52575,404.20307
				L360.52575,404.68312L361.24584,404.68312L361.24584,404.92315L361.48587,404.92315L361.48587,405.16318L362.20597,405.16318
				L362.20597,405.64323L362.68603,405.64323L362.68603,405.88325L363.16609,405.88325L363.16609,406.12328L363.64615,406.12328
				L363.64615,406.60333L364.12621,406.60333L364.12621,406.84335L364.60627,406.84335L364.60627,407.08338L365.32636,407.08338
				L365.32636,407.56343L365.56639,407.56343L365.56639,407.80346L366.28648,407.80346L366.28648,408.28351L366.52651,408.28351
				L366.52651,408.52353L367.24661,408.52353L367.24661,408.76356L367.48664,408.76356L367.48664,409.24361L368.20673,409.24361
				L368.20673,409.48364L368.44676,409.48364L368.44676,409.72366L368.92682,409.72366L368.92682,410.20371L369.16685,410.20371
				L369.16685,410.44374L369.88694,410.44374L369.88694,410.68376L370.12697,410.68376L370.12697,411.16381L370.367,411.16381L370.367,411.40384
				L371.08709,411.40384L371.08709,411.88389L371.32712,411.88389L371.32712,412.12392L371.80718,412.12392L371.80718,412.36394
				L372.52728,412.36394L372.52728,412.84399L372.76731,412.84399L372.76731,413.08402L373.00734,413.08402L373.00734,413.32404
				L373.4874,413.32404L373.4874,413.8041L373.96746,413.8041L373.96746,414.04412L374.44752,414.04412L374.44752,414.52417L374.68755,414.52417
				L374.68755,414.7642L375.40764,414.7642L375.40764,415.00422L375.64767,415.00422L375.64767,415.48427L376.12773,415.48427L376.12773,415.7243
				L376.36776,415.7243L376.36776,415.96433L377.08785,415.96433L377.08785,416.44438L377.32788,416.44438L377.32788,416.6844L377.56791,416.6844
				L377.56791,416.92443L378.04798,416.92443L378.04798,417.40448L378.28801,417.40448L378.28801,417.64451L378.52804,417.64451
				L378.52804,418.12456L379.0081,418.12456L379.0081,418.36458L379.24813,418.36458L379.24813,418.60461L379.72819,418.60461L379.72819,419.08466
				L379.96822,419.08466L379.96822,419.32468L380.20825,419.32468L380.20825,419.56471L380.92834,419.56471L380.92834,420.04476
				L381.16837,420.04476L381.16837,420.28479L381.64843,420.28479L381.64843,420.52481L381.88846,420.52481L381.88846,421.00486
				L382.12849,421.00486L382.12849,421.24489L382.60855,421.24489L382.60855,421.72494L382.84859,421.72494L382.84859,421.96497
				L383.32865,421.96497L383.32865,422.20499L383.56868,422.20499L383.56868,422.68504L383.80871,422.68504L383.80871,422.92507
				L384.28877,422.92507L384.28877,423.16509L384.5288,423.16509L384.5288,423.64514L384.76883,423.64514L384.76883,423.88517L385.24889,423.88517
				L385.24889,424.1252L385.48892,424.1252L385.48892,424.60525L385.72895,424.60525L385.72895,424.84527L386.20901,424.84527L386.20901,425.56535
				L386.44904,425.56535L386.44904,425.80537L386.9291,425.80537L386.9291,426.28543L387.16913,426.28543L387.16913,426.52545L387.40916,426.52545
				L387.40916,426.76548L387.88922,426.76548L387.88922,427.24553L388.12926,427.24553L388.12926,427.48555L388.36929,427.48555
				L388.36929,427.72558L388.84935,427.72558L388.84935,428.44566L389.08938,428.44566L389.08938,428.92571L389.56944,428.92571
				L389.56944,429.16573L389.80947,429.16573L389.80947,429.40576L390.0495,429.40576L390.0495,429.88581L390.52956,429.88581L390.52956,430.12584
				L390.76959,430.12584L390.76959,430.36586L391.00962,430.36586L391.00962,430.84591L391.48968,430.84591L391.48968,431.08594
				L391.72971,431.08594L391.72971,431.80601L391.96974,431.80601L391.96974,432.04604L392.4498,432.04604L392.4498,432.52609L392.68983,432.52609
				L392.68983,432.76612L393.16989,432.76612L393.16989,433.00614L393.40993,433.00614L393.40993,433.48619L393.64996,433.48619
				L393.64996,433.72622L394.13002,433.72622L394.13002,433.96624L394.37005,433.96624L394.37005,434.68632L394.61008,434.68632
				L394.61008,434.92635L395.09014,434.92635L395.09014,435.4064L395.33017,435.4064L395.33017,435.64642L395.5702,435.64642L395.5702,436.12647
				L396.05026,436.12647L396.05026,436.3665L396.29029,436.3665L396.29029,436.60653L396.77035,436.60653L396.77035,437.08658L397.01038,437.08658
				L397.01038,437.3266L397.25041,437.3266L397.25041,438.04668L397.73047,438.04668L397.73047,438.2867L397.9705,438.2867L397.9705,438.76676
				L398.21053,438.76676L398.21053,439.00678L398.6906,439.00678L398.6906,439.24681L398.93063,439.24681L398.93063,439.72686L399.17066,439.72686
				L399.17066,439.24681L399.89075,439.24681L399.89075,439.00678L400.61084,439.00678L400.61084,438.76676L401.33093,438.76676
				L401.33093,438.2867L401.81099,438.2867L401.81099,438.04668L402.53108,438.04668L402.53108,437.56663L402.77111,437.56663L402.77111,437.3266
				L403.4912,437.3266L403.4912,437.08658L404.2113,437.08658L404.2113,436.60653L404.93139,436.60653L404.93139,436.3665L405.41145,436.3665
				L405.41145,436.12647L406.13154,436.12647L406.13154,435.64642L406.37157,435.64642L406.37157,435.4064L407.09166,435.4064L407.09166,434.92635
				L407.81175,434.92635L407.81175,434.68632L408.53184,434.68632L408.53184,434.4463L409.01191,434.4463L409.01191,433.96624L409.49197,433.96624
				L409.49197,433.72622L410.21206,433.72622L410.21206,433.48619L410.69212,433.48619L410.69212,433.00614L411.41221,433.00614
				L411.41221,432.76612L412.1323,432.76612L412.1323,432.52609L412.61236,432.52609L412.61236,432.04604L413.09242,432.04604L413.09242,431.80601
				L413.81251,431.80601L413.81251,431.32596L414.29258,431.32596L414.29258,431.08594L415.01267,431.08594L415.01267,430.84591
				L415.73276,430.84591L415.73276,430.36586L416.21282,430.36586L416.21282,430.12584L416.69288,430.12584L416.69288,429.88581
				L417.41297,429.88581L417.41297,429.40576L417.89303,429.40576L417.89303,429.16573L418.61312,429.16573L418.61312,428.92571
				L419.33322,428.92571L419.33322,428.44566L419.81328,428.44566L419.81328,428.20563L420.29334,428.20563L420.29334,427.72558
				L421.01343,427.72558L421.01343,427.48555L421.49349,427.48555L421.49349,427.24553L422.21358,427.24553L422.21358,426.76548
				L422.93367,426.76548L422.93367,426.52545L423.1737,426.52545L423.1737,426.28543L423.89379,426.28543L423.89379,425.80537L424.61389,425.80537
				L424.61389,425.56535L425.09395,425.56535L425.09395,425.32532L425.81404,425.32532L425.81404,424.84527L426.53413,424.84527
				L426.53413,424.60525L426.77416,424.60525L426.77416,424.1252L427.49425,424.1252L427.49425,423.88517L428.21434,423.88517L428.21434,423.64514
				L428.6944,423.64514L428.6944,423.16509L429.41449,423.16509L429.41449,422.92507L430.13459,422.92507L430.13459,422.68504L430.37462,422.68504
				L430.37462,422.20499L431.09471,422.20499L431.09471,421.96497L431.8148,421.96497L431.8148,421.72494L432.29486,421.72494L432.29486,421.24489
				L433.01495,421.24489L433.01495,421.00486L433.25498,421.00486L433.25498,420.52481L433.97507,420.52481L433.97507,420.28479
				L434.69516,420.28479L434.69516,420.04476L435.41526,420.04476L435.41526,419.56471L435.89532,419.56471L435.89532,419.32468
				L436.61541,419.32468L436.61541,419.08466L436.85544,419.08466L436.85544,418.60461L437.57553,418.60461L437.57553,418.36458
				L438.29562,418.36458L438.29562,418.12456L439.01571,418.12456L439.01571,417.64451L439.49577,417.64451L439.49577,417.40448
				L440.21587,417.40448L440.21587,416.92443L440.4559,416.92443L440.4559,416.6844L441.17599,416.6844L441.17599,416.44438L441.65605,416.44438
				L441.65605,416.92443L441.17599,416.92443L441.17599,417.40448L440.93596,417.40448L440.93596,418.12456L440.4559,418.12456L
				440.4559,418.60461L440.21587,418.60461L440.21587,419.08466L439.97583,419.08466L439.97583,419.32468L439.49577,419.32468L439.49577,420.04476
				L439.25574,420.04476L439.25574,420.28479L439.01571,420.28479L439.01571,421.00486L438.53565,421.00486L438.53565,421.72494
				L438.29562,421.72494L438.29562,421.96497L438.05559,421.96497L438.05559,422.68504L437.57553,422.68504L437.57553,423.88517
				L437.3355,423.88517L437.3355,424.60525L436.85544,424.60525L436.85544,425.32532L436.61541,425.32532L436.61541,425.56535L436.37538,425.56535
				L436.37538,425.80537L435.89532,425.80537L435.89532,426.28543L435.65529,426.28543L435.65529,426.52545L435.41526,426.52545
				L435.41526,426.76548L434.9352,426.76548L434.9352,427.24553L434.69516,427.24553L434.69516,427.72558L434.45513,427.72558L434.45513,428.44566
				L433.97507,428.44566L433.97507,428.92571L433.73504,428.92571L433.73504,429.16573L433.25498,429.16573L433.25498,429.88581
				L433.01495,429.88581L433.01495,430.12584L432.77492,430.12584L432.77492,430.36586L432.29486,430.36586L432.29486,430.84591
				L432.05483,430.84591L432.05483,431.32596L431.8148,431.32596L431.8148,431.80601L431.33474,431.80601L431.33474,432.04604L431.09471,432.04604
				L431.09471,432.52609L430.61465,432.52609L430.61465,432.76612L430.37462,432.76612L430.37462,433.48619L430.13459,433.48619
				L430.13459,433.72622L429.65452,433.72622L429.65452,434.4463L429.41449,434.4463L429.41449,434.68632L429.17446,434.68632L429.17446,434.92635
				L428.6944,434.92635L428.6944,435.4064L428.45437,435.4064L428.45437,435.64642L428.21434,435.64642L428.21434,436.12647L427.73428,436.12647
				L427.73428,436.60653L427.49425,436.60653L427.49425,437.08658L427.01419,437.08658L427.01419,437.3266L426.77416,437.3266L426.77416,437.56663
				L426.53413,437.56663L426.53413,438.04668L426.05407,438.04668L426.05407,438.76676L425.81404,438.76676L425.81404,439.00678
				L425.57401,439.00678L425.57401,439.24681L425.09395,439.24681L425.09395,439.72686L424.85392,439.72686L424.85392,440.20691
				L424.61389,440.20691L424.61389,440.68696L424.13382,440.68696L424.13382,441.16701L423.89379,441.16701L423.89379,441.64706
				L423.41373,441.64706L423.41373,442.36714L423.1737,442.36714L423.1737,442.84719L422.93367,442.84719L422.93367,443.32724L422.45361,443.32724
				L422.45361,443.56727L422.21358,443.56727L422.21358,444.28734L421.97355,444.28734L421.97355,444.52737L421.49349,444.52737
				L421.49349,445.24745L421.25346,445.24745L421.25346,445.48747L421.01343,445.48747L421.01343,446.20755L420.53337,446.20755
				L420.53337,446.44757L420.29334,446.44757L420.29334,447.16765L419.81328,447.16765L419.81328,447.40768L419.57325,447.40768
				L419.57325,448.12775L419.33322,448.12775L419.33322,448.36778L418.85315,448.36778L418.85315,448.84783L418.61312,448.84783
				L418.61312,449.56791L418.37309,449.56791L418.37309,453.16829L418.61312,453.16829L418.61312,454.60844L418.85315,454.60844
				L418.85315,456.28862L419.33322,456.28862L419.33322,457.9688L419.57325,457.9688L419.57325,459.64898L419.81328,459.64898L419.81328,459.88901
				L419.57325,459.88901L419.57325,462.28926L419.33322,462.28926L419.33322,463.00934L419.57325,463.00934L419.57325,463.24936
				L419.33322,463.24936L419.33322,463.48939L418.61312,463.48939L418.61312,463.96944L417.89303,463.96944L417.89303,464.20947
				L417.41297,464.20947L417.41297,464.44949L416.21282,464.44949L416.21282,464.92954L415.2527,464.92954L415.2527,465.16957L414.29258,465.16957
				L414.29258,465.40959L413.81251,465.40959L413.81251,465.88965L412.61236,465.88965L412.61236,466.12967L412.1323,466.12967L
				412.1323,466.60972L411.17218,466.60972L411.17218,466.84975L409.732,466.84975L409.732,467.08977L408.77187,467.08977L408.77187,467.56983
				L407.57172,467.56983L407.57172,467.08977L406.85163,467.08977L406.85163,467.56983L406.37157,467.56983L406.37157,467.80985
				L406.13154,467.80985L406.13154,468.04988L405.89151,468.04988L405.89151,468.52993L405.41145,468.52993L405.41145,468.76995
				L405.17142,468.76995L405.17142,469.00998L404.93139,469.00998L404.93139,469.49003L404.45133,469.49003L404.45133,469.73006
				L404.2113,469.73006L404.2113,470.21011L403.97127,470.21011L403.97127,470.45013L403.4912,470.45013L403.4912,470.69016L403.25117,470.69016
				L403.25117,471.17021L402.77111,471.17021L402.77111,471.41023L402.53108,471.41023L402.53108,471.65026L402.29105,471.65026
				L402.29105,472.13031L401.81099,472.13031L401.81099,472.37034L401.57096,472.37034L401.57096,472.61036L401.33093,472.61036
				L401.33093,473.09041L400.85087,473.09041L400.85087,473.33044L400.61084,473.33044L400.61084,474.05052L400.85087,474.05052
				L400.85087,474.29054L400.61084,474.29054"/>
			<path clip-path="url(#SVG_CP_2)" fill="none" stroke="#999999" stroke-width="0.96012" stroke-miterlimit="10" stroke-linecap="round" stroke-linejoin="round" d="
				M400.61084,474.29054L400.61084,474.77059L400.37081,474.77059L400.37081,475.01062L399.89075,475.01062L399.89075,475.25064
				L399.65072,475.25064L399.65072,475.73069L399.17066,475.73069L399.17066,475.97072L398.93063,475.97072L398.93063,476.21075
				L398.6906,476.21075L398.6906,476.6908L398.21053,476.6908L398.21053,476.93082L397.9705,476.93082L397.9705,477.41087L397.73047,477.41087
				L397.73047,477.6509L397.25041,477.6509L397.25041,477.89092L397.01038,477.89092L397.01038,478.37098L396.77035,478.37098L396.77035,478.611
				L396.29029,478.611L396.29029,478.85103L396.05026,478.85103L396.05026,479.33108L395.5702,479.33108L395.5702,479.5711L395.33017,479.5711
				L395.33017,479.81113L395.09014,479.81113L395.09014,480.29118L394.61008,480.29118L394.61008,480.53121L394.37005,480.53121
				L394.37005,481.01126L394.13002,481.01126L394.13002,481.25128L393.64996,481.25128L393.64996,481.49131L393.40993,481.49131
				L393.40993,481.97136L393.16989,481.97136L393.16989,482.21139L392.68983,482.21139L392.68983,482.45141L392.4498,482.45141L
				392.4498,482.93146L391.96974,482.93146L391.96974,483.17149L391.72971,483.17149L391.72971,483.41151L391.48968,483.41151L391.48968,483.89156
				L391.00962,483.89156L391.00962,484.13159L390.76959,484.13159L390.76959,484.61164L390.52956,484.61164L390.52956,484.85167
				L390.0495,484.85167L390.0495,485.09169L389.80947,485.09169L389.80947,485.57174L389.56944,485.57174L389.56944,486.05179L389.08938,486.05179
				L389.08938,487.25192L388.84935,487.25192L388.84935,487.73197L388.36929,487.73197L388.36929,488.69208L388.12926,488.69208
				L388.12926,489.65218L387.88922,489.65218L387.88922,490.85231L387.40916,490.85231L387.40916,491.33236L387.16913,491.33236
				L387.16913,492.29246L386.9291,492.29246L386.9291,493.01254L386.44904,493.01254L386.44904,493.97264L386.20901,493.97264L386.20901,494.45269
				L385.72895,494.45269L385.72895,494.69272L385.48892,494.69272L385.48892,494.93274L385.24889,494.93274L385.24889,495.41279
				L384.76883,495.41279L384.76883,495.89284L384.5288,495.89284L384.5288,496.37289L384.28877,496.37289L384.28877,496.61292L383.80871,496.61292
				L383.80871,497.333L383.56868,497.333L383.56868,497.57302L383.32865,497.57302L383.32865,498.05307L382.84859,498.05307L382.84859,498.2931
				L382.60855,498.2931L382.60855,499.01318L382.12849,499.01318L382.12849,499.2532L381.88846,499.2532L381.88846,499.49323L381.64843,499.49323
				L381.64843,500.2133L381.16837,500.2133L381.16837,500.45333L380.92834,500.45333L380.92834,500.93338L380.68831,500.93338L380.68831,501.17341
				L380.20825,501.17341L380.20825,501.65346L379.96822,501.65346L379.96822,502.13351L379.72819,502.13351L379.72819,502.61356
				L379.24813,502.61356L379.24813,502.85359L379.0081,502.85359L379.0081,503.09361L378.52804,503.09361L378.52804,503.81369L378.28801,503.81369
				L378.28801,504.05371L378.04798,504.05371L378.04798,504.53376L377.56791,504.53376L377.56791,504.77379L377.32788,504.77379
				L377.32788,505.25384L377.08785,505.25384L377.08785,505.49387L376.60779,505.49387L376.60779,506.21394L376.36776,506.21394
				L376.36776,506.45397L376.12773,506.45397L376.12773,506.69399L375.64767,506.69399L375.64767,507.17405L375.40764,507.17405
				L375.40764,507.89412L374.92758,507.89412L374.92758,508.13415L374.68755,508.13415L374.68755,508.37417L374.44752,508.37417
				L374.44752,508.85422L373.96746,508.85422L373.96746,509.09425L373.72743,509.09425L373.72743,509.33428L373.4874,509.33428L
				373.4874,509.81433L373.00734,509.81433L373.00734,510.05435L372.76731,510.05435L372.76731,510.29438L372.52728,510.29438L372.52728,511.01445
				L372.04721,511.01445L372.04721,511.49451L371.80718,511.49451L371.80718,511.73453L371.32712,511.73453L371.32712,511.97456
				L371.08709,511.97456L371.08709,512.45461L370.84706,512.45461L370.84706,512.69463L370.367,512.69463L370.367,512.93466L370.12697,512.93466
				L370.12697,513.41471L369.88694,513.41471L369.88694,513.65474L369.40688,513.65474L369.40688,513.89476L369.16685,513.89476
				L369.16685,514.37481L368.92682,514.37481L368.92682,514.61484L368.44676,514.61484L368.44676,515.09489L368.20673,515.09489
				L368.20673,515.33492L367.72667,515.33492L367.72667,515.57494L367.48664,515.57494L367.48664,516.05499L367.24661,516.05499
				L367.24661,516.29502L366.76654,516.29502L366.76654,516.53504L366.52651,516.53504L366.52651,517.01509L366.28648,517.01509
				L366.28648,517.25512L365.80642,517.25512L365.80642,517.49515L365.56639,517.49515L365.56639,517.9752L365.32636,517.9752L365.32636,518.21522
				L364.8463,518.21522L364.8463,518.69527L364.60627,518.69527L364.60627,518.9353L364.12621,518.9353L364.12621,519.17532L363.88618,519.17532
				L363.88618,519.65538L363.64615,519.65538L363.64615,519.8954L363.16609,519.8954L363.16609,520.13543L362.92606,520.13543L362.92606,520.61548
				L362.68603,520.61548L362.68603,520.8555L362.20597,520.8555L362.20597,521.09553L361.96594,521.09553L361.96594,521.57558L361.48587,521.57558
				L361.48587,521.81561L361.24584,521.81561L361.24584,522.29566L361.00581,522.29566L361.00581,522.53568L360.52575,522.53568
				L360.52575,522.77571L360.28572,522.77571L360.28572,523.25576L360.04569,523.25576L360.04569,523.49578L359.56563,523.49578
				L359.56563,523.73581L359.3256,523.73581L359.3256,524.21586L359.08557,524.21586L359.08557,524.45589L358.60551,524.45589L358.60551,524.69591
				L358.36548,524.69591L358.36548,525.17596L357.88542,525.17596L357.88542,525.41599L357.64539,525.41599L357.64539,525.89604
				L357.40536,525.89604L357.40536,526.13607L356.9253,526.13607L356.9253,526.37609L356.68526,526.37609L356.68526,526.85614L356.44523,526.85614
				L356.44523,527.09617L355.96517,527.09617L355.96517,527.33619L355.72514,527.33619L355.72514,527.81625L355.48511,527.81625
				L355.48511,528.05627L355.00505,528.05627L355.00505,528.2963L354.76502,528.2963L354.76502,528.77635L354.28496,528.77635L354.28496,529.01637
				L354.04493,529.01637L354.04493,529.49642L353.8049,529.49642L353.8049,529.73645L353.32484,529.73645L353.32484,529.97648L353.08481,529.97648
				L353.08481,530.45653L352.84478,530.45653L352.84478,530.69655L352.36472,530.69655L352.36472,530.93658L352.12469,530.93658
				L352.12469,531.41663L351.88466,531.41663L351.88466,531.65665L351.40459,531.65665L351.40459,532.37673L351.16456,532.37673
				L351.16456,532.61676L350.6845,532.61676L350.6845,533.09681L350.44447,533.09681L350.44447,533.57686L350.20444,533.57686L350.20444,534.05691
				L349.72438,534.05691L349.72438,534.29694L349.48435,534.29694L349.48435,534.53696L349.24432,534.53696L349.24432,535.01701
				L348.76426,535.01701L348.76426,535.25704L348.52423,535.25704L348.52423,535.73709L348.2842,535.73709L348.2842,535.97711L347.80414,535.97711
				L347.80414,536.21714L347.56411,536.21714L347.56411,536.69719L347.08405,536.69719L347.08405,536.93722L346.84402,536.93722
				L346.84402,537.17724L346.60399,537.17724L346.60399,537.65729L346.12392,537.65729L346.12392,537.89732L345.88389,537.89732
				L345.88389,538.13734L345.64386,538.13734L345.64386,538.6174L345.1638,538.6174L345.1638,538.85742L344.92377,538.85742L344.92377,539.33747
				L344.68374,539.33747L344.68374,539.5775L344.20368,539.5775L344.20368,539.81752L343.96365,539.81752L343.96365,540.29758L343.48359,540.29758
				L343.48359,540.5376L343.24356,540.5376L343.24356,540.77763L343.00353,540.77763L343.00353,541.25768L342.52347,541.25768L342.52347,541.4977
				L342.28344,541.4977L342.28344,541.73773L342.04341,541.73773L342.04341,542.21778L341.56335,542.21778L341.56335,542.45781L
				341.32332,542.45781L341.32332,542.93786L341.08328,542.93786L341.08328,543.17788L340.60322,543.17788L340.60322,543.41791L
				340.36319,543.41791L340.36319,543.89796L339.88313,543.89796L339.88313,544.13798L339.6431,544.13798L339.6431,544.37801L339.40307,544.37801
				L339.40307,544.85806L338.92301,544.85806L338.92301,545.09809L338.68298,545.09809L338.68298,545.33811L338.44295,545.33811
				L338.44295,545.81816L337.96289,545.81816L337.96289,546.05819L337.72286,546.05819L337.72286,546.53824L337.2428,546.53824L
				337.2428,546.77827L337.00277,546.77827L337.00277,547.01829L336.76274,547.01829L336.76274,547.49834L336.28268,547.49834L336.28268,547.73837
				L336.04265,547.73837L336.04265,547.97839L335.80261,547.97839L335.80261,548.45844L335.32255,548.45844L335.32255,548.69847
				L335.08252,548.69847L335.08252,548.9385L334.84249,548.9385L334.84249,549.41855L334.36243,549.41855L334.36243,549.65857L334.1224,549.65857
				L334.1224,550.13862L333.64234,550.13862L333.64234,550.37865L333.40231,550.37865L333.40231,550.61867L333.16228,550.61867L
				333.16228,551.09873L332.68222,551.09873L332.68222,551.33875L332.44219,551.33875L332.44219,551.57878L332.20216,551.57878L
				332.20216,552.05883L331.7221,552.05883L331.7221,552.29885L331.48207,552.29885L331.48207,552.53888L331.24204,552.53888L331.24204,553.01893
				L330.76198,553.01893L330.76198,553.25896L330.52194,553.25896L330.52194,553.73901L330.04188,553.73901L330.04188,553.97903
				L329.80185,553.97903L329.80185,554.21906L329.56182,554.21906L329.56182,554.69911L329.08176,554.69911L329.08176,554.93914
				L328.84173,554.93914L328.84173,555.17916L328.6017,555.17916L328.6017,555.65921L328.12164,555.65921L328.12164,555.89924L327.88161,555.89924
				L327.88161,556.37929L327.64158,556.37929L327.64158,556.61931L327.16152,556.61931L327.16152,556.85934L326.92149,556.85934
				L326.92149,557.33939L326.44143,557.33939L326.44143,557.57942L326.2014,557.57942L326.2014,557.81944L325.96137,557.81944L325.96137,558.29949
				L325.48131,558.29949L325.48131,558.53952L325.24127,558.53952L325.24127,558.77954L325.00124,558.77954L325.00124,559.2596L
				324.52118,559.2596L324.52118,559.49962L324.28115,559.49962L324.28115,559.97967L324.04112,559.97967L324.04112,560.2197L323.56106,560.2197
				L323.56106,560.45972L323.32103,560.45972L323.32103,560.93977L322.84097,560.93977L322.84097,561.1798L322.60094,561.1798L322.60094,561.41983
				L322.36091,561.41983L322.36091,561.89988L321.88085,561.89988L321.88085,562.1399L321.64082,562.1399L321.64082,562.37993L321.40079,562.37993
				L321.40079,562.85998L320.92073,562.85998L320.92073,563.58006L320.6807,563.58006L320.6807,564.06011L320.44067,564.06011L320.44067,564.54016
				L319.9606,564.54016L319.9606,565.02021L319.72057,565.02021L319.72057,565.74029L319.24051,565.74029L319.24051,566.46036L319.00048,566.46036
				L319.00048,566.70039L318.76045,566.70039L318.76045,567.18044L318.04036,567.18044L318.04036,565.98031L317.80033,565.98031
				L317.80033,565.50026L317.32027,565.50026L317.32027,564.78018L317.08024,564.78018L317.08024,564.06011L316.84021,564.06011
				L316.84021,563.58006L316.36015,563.58006L316.36015,562.85998L316.12012,562.85998L316.12012,562.1399L315.64006,562.1399L315.64006,561.41983
				L315.40003,561.41983L315.40003,560.45972L315.16,560.45972L315.16,559.97967L314.67993,559.97967L314.67993,559.2596L314.4399,559.2596
				L314.4399,558.53952L314.19987,558.53952L314.19987,557.81944L313.71981,557.81944L313.71981,557.33939L313.47978,557.33939L
				313.47978,556.61931L312.99972,556.61931L312.99972,555.89924L312.75969,555.89924L312.75969,555.17916L312.51966,555.17916L
				312.51966,554.21906L312.0396,554.21906L312.0396,553.73901L311.79957,553.73901L311.79957,553.01893L311.55954,553.01893L311.55954,552.29885
				L311.07948,552.29885L311.07948,551.57878L310.83945,551.57878L310.83945,551.09873L310.59942,551.09873L310.59942,550.37865
				L310.11936,550.37865L310.11936,549.65857L309.87933,549.65857L309.87933,548.9385L309.39926,548.9385L309.39926,547.97839L309.15923,547.97839
				L309.15923,547.49834L308.9192,547.49834L308.9192,546.77827L308.43914,546.77827L308.43914,546.05819L308.19911,546.05819L308.19911,545.33811
				L307.95908,545.33811L307.95908,544.85806L307.47902,544.85806L307.47902,544.13798L307.23899,544.13798L307.23899,543.41791
				L306.99896,543.41791L306.99896,542.93786L306.5189,542.93786L306.5189,541.73773L306.27887,541.73773L306.27887,541.25768L305.79881,541.25768
				L305.79881,540.5376L305.55878,540.5376L305.55878,539.81752L305.31875,539.81752L305.31875,539.33747L304.83869,539.33747L304.83869,538.6174
				L304.59865,538.6174L304.59865,537.89732L304.35862,537.89732L304.35862,537.17724L303.87856,537.17724L303.87856,536.21714L
				303.63853,536.21714L303.63853,535.73709L303.3985,535.73709L303.3985,535.01701L302.91844,535.01701L302.91844,534.29694L302.67841,534.29694
				L302.67841,533.57686L302.19835,533.57686L302.19835,533.09681L301.95832,533.09681L301.95832,532.37673L301.71829,532.37673
				L301.71829,531.65665L301.23823,531.65665L301.23823,530.69655L300.9982,530.69655L300.9982,529.97648L300.75817,529.97648L300.75817,529.49642
				L300.27811,529.49642L300.27811,528.77635L300.03808,528.77635L300.03808,528.05627L299.79805,528.05627L299.79805,527.09617
				L299.31798,527.09617L299.31798,526.37609L299.07795,526.37609L299.07795,525.89604L298.59789,525.89604L298.59789,525.17596
				L298.35786,525.17596L298.35786,524.45589L298.11783,524.45589L298.11783,523.49578L297.63777,523.49578L297.63777,522.77571
				L297.39774,522.77571L297.39774,522.29566L297.15771,522.29566L297.15771,521.57558L296.67765,521.57558L296.67765,520.8555L
				296.43762,520.8555L296.43762,519.8954L296.19759,519.8954L296.19759,519.17532L295.71753,519.17532L295.71753,518.69527L295.4775,518.69527
				L295.4775,517.9752L294.99744,517.9752L294.99744,517.25512L294.75741,517.25512L294.75741,516.29502L294.51738,516.29502L294.51738,515.57494
				L294.03731,515.57494L294.03731,515.09489L293.79728,515.09489L293.79728,514.37481L293.55725,514.37481L293.55725,513.65474
				L293.07719,513.65474L293.07719,512.69463L292.83716,512.69463L292.83716,511.97456L292.59713,511.97456L292.59713,511.49451
				L292.11707,511.49451L292.11707,510.77443L291.87704,510.77443L291.87704,510.05435L291.39698,510.05435L291.39698,509.09425
				L291.15695,509.09425L291.15695,508.37417L290.91692,508.37417L290.91692,507.89412L290.43686,507.89412L290.43686,507.17405
				L290.19683,507.17405L290.19683,506.45397L289.9568,506.45397L289.9568,505.49387L289.47674,505.49387L289.47674,504.77379L289.23671,504.77379
				L289.23671,504.05371L288.75664,504.05371L288.75664,503.57366L288.51661,503.57366L288.51661,502.85359L288.27658,502.85359
				L288.27658,501.89348L287.79652,501.89348L287.79652,501.17341L287.55649,501.17341L287.55649,500.45333L287.31646,500.45333
				L287.31646,499.97328L286.8364,499.97328L286.8364,499.2532L286.59637,499.2532L286.59637,498.2931L286.35634,498.2931L286.35634,497.57302
				L285.87628,497.57302L285.87628,496.85295L285.63625,496.85295L285.63625,496.37289L285.15619,496.37289L285.15619,495.65282
				L284.91616,495.65282L284.91616,494.69272L284.67613,494.69272L284.67613,493.97264L284.19607,493.97264L284.19607,493.25256
				L283.95604,493.25256L283.95604,492.77251L283.716,492.77251L283.716,491.81241L283.23594,491.81241L283.23594,491.09233L282.99591,491.09233
				L282.99591,490.37225L282.75588,490.37225L282.75588,489.65218L282.27582,489.65218L282.27582,489.17213L282.03579,489.17213
				L282.03579,488.45205L281.55573,488.45205L281.55573,487.49195L281.3157,487.49195L281.3157,486.77187L281.07567,486.77187L281.07567,486.05179
				L280.59561,486.05179L280.59561,485.57174L280.35558,485.57174L280.35558,484.85167L280.11555,484.85167L280.11555,484.13159
				L279.63549,484.13159L279.63549,483.41151L279.39546,483.41151L279.39546,482.93146L279.15543,482.93146L279.15543,481.97136
				L278.67537,481.97136L278.67537,481.25128L278.43533,481.25128L278.43533,480.53121L277.95527,480.53121L277.95527,479.81113
				L277.71524,479.81113L277.71524,479.33108L277.47521,479.33108L277.47521,478.611L276.99515,478.611L276.99515,477.89092L276.75512,477.89092
				L276.75512,476.93082L276.51509,476.93082L276.51509,476.21075L276.03503,476.21075L276.03503,475.73069L275.795,475.73069L275.795,475.01062
				L275.55497,475.01062L275.55497,474.29054L275.07491,474.29054L275.07491,473.81049L274.83488,473.81049L274.83488,473.09041
				L274.35482,473.09041L274.35482,472.13031L274.11479,472.13031L274.11479,471.41023L273.87476,471.41023L273.87476,470.69016
				L273.3947,470.69016L273.3947,470.21011L273.15466,470.21011L273.15466,469.49003L272.91463,469.49003L272.91463,468.76995L272.43457,468.76995
				L272.43457,468.04988L272.19454,468.04988L272.19454,467.56983L271.95451,467.56983L271.95451,466.60972L271.47445,466.60972
				L271.47445,465.88965L271.23442,465.88965L271.23442,465.16957L270.75436,465.16957L270.75436,464.44949L270.51433,464.44949
				L270.51433,463.96944"/>
			<path clip-path="url(#SVG_CP_2)" fill="none" stroke="#999999" stroke-width="0.96012" stroke-miterlimit="10" stroke-linecap="round" stroke-linejoin="round" d="
				M395.5702,474.77059L395.5702,474.29054L396.77035,474.29054L396.77035,474.05052L397.73047,474.05052L397.73047,473.81049L398.6906,473.81049
				L398.6906,472.61036L398.93063,472.61036L398.93063,472.37034L399.17066,472.37034L399.17066,472.13031L399.65072,472.13031L
				399.65072,471.65026L399.89075,471.65026L399.89075,471.41023L400.37081,471.41023L400.37081,471.17021L400.61084,471.17021L
				400.61084,470.69016L400.85087,470.69016L400.85087,470.45013L401.33093,470.45013L401.33093,470.21011L401.57096,470.21011L
				401.57096,469.73006L401.81099,469.73006L401.81099,469.49003L402.29105,469.49003L402.29105,469.00998L402.53108,469.00998L
				402.53108,468.76995L402.77111,468.76995L402.77111,468.52993L403.25117,468.52993L403.25117,468.04988L403.4912,468.04988L403.4912,467.80985
				L403.97127,467.80985L403.97127,467.56983L404.2113,467.56983L404.2113,467.08977L404.45133,467.08977L404.45133,466.84975L404.93139,466.84975
				L404.93139,466.60972L405.17142,466.60972L405.17142,466.12967L405.41145,466.12967L405.41145,465.88965L404.93139,465.88965
				L404.93139,465.40959L404.45133,465.40959L404.45133,465.16957L403.4912,465.16957L403.4912,465.40959L403.25117,465.40959L403.25117,465.88965
				L402.77111,465.88965L402.77111,466.12967L402.53108,466.12967L402.53108,466.60972L402.29105,466.60972L402.29105,466.84975
				L401.81099,466.84975L401.81099,467.08977L401.57096,467.08977L401.57096,467.56983L401.33093,467.56983L401.33093,467.80985
				L400.85087,467.80985L400.85087,468.04988L400.61084,468.04988L400.61084,468.52993L400.37081,468.52993L400.37081,468.76995
				L399.89075,468.76995L399.89075,469.00998L399.65072,469.00998L399.65072,469.49003L399.17066,469.49003L399.17066,469.73006
				L398.93063,469.73006L398.93063,470.21011L398.6906,470.21011L398.6906,470.45013L398.21053,470.45013L398.21053,470.69016L397.9705,470.69016
				L397.9705,471.17021L397.73047,471.17021L397.73047,471.41023L397.25041,471.41023L397.25041,471.65026L397.01038,471.65026L
				397.01038,472.13031L396.77035,472.13031L396.77035,472.37034L396.29029,472.37034L396.29029,472.61036L396.05026,472.61036L
				396.05026,473.09041L395.5702,473.09041L395.5702,473.33044L395.33017,473.33044L395.33017,473.81049L395.09014,473.81049L395.09014,474.05052
				L394.61008,474.05052L394.61008,474.77059L395.5702,474.77059"/>
		</g>
</g></svg>