<?xml version="1.0" encoding="utf-8" standalone="no"?>
<!-- Creator: ESRI ArcMap 10.0.0.2414 -->
<!DOCTYPE svg PUBLIC "-//W3C//DTD SVG 1.1//EN"  "http://www.w3.org/Graphics/SVG/1.1/DTD/svg11.dtd">
<svg width="595.50236pt" height="595.50236pt" viewBox="25 148.377955 545.50236 545.50236" enable-background="new 25 148.377955 545.50236 545.50236"
	version="1.1" xmlns="http://www.w3.org/2000/svg" xmlns:xlink="http://www.w3.org/1999/xlink" >
	<g id="Couches">
		<g id="cont_2">
			<path clip-path="url(#SVG_CP_2)" fill="none" stroke="#999999" stroke-width="0.96012" stroke-miterlimit="10" stroke-linecap="round" stroke-linejoin="round" d="
				M168.98144,41.52443L167.54126,41.52443L167.54126,39.84425L168.98144,39.84425L168.98144,41.52443"/>
			<path clip-path="url(#SVG_CP_2)" fill="none" stroke="#999999" stroke-width="0.96012" stroke-miterlimit="10" stroke-linecap="round" stroke-linejoin="round" d="
				M170.66166,42.96458L168.98144,42.96458L168.98144,41.52443L170.66166,41.52443L170.66166,42.96458"/>
			<path clip-path="url(#SVG_CP_2)" fill="none" stroke="#999999" stroke-width="0.96012" stroke-miterlimit="10" stroke-linecap="round" stroke-linejoin="round" d="
				M170.66166,42.96458L173.54202,42.96458L173.54202,44.40473L176.66242,44.40473L176.66242,46.08491L178.34263,46.08491L178.34263,47.52506
				L181.223,47.52506L181.223,48.96522L184.34339,48.96522L184.34339,50.6454L187.46379,50.6454L187.46379,52.08555L193.46455,52.08555
				L193.46455,53.76573L195.14476,53.76573L195.14476,55.20588L198.02513,55.20588L198.02513,56.64604L205.70611,56.64604L205.70611,58.32622
				L213.38708,58.32622L213.38708,59.76637L217.94766,59.76637L217.94766,58.32622L225.62863,58.32622L225.62863,56.64604L227.06882,56.64604
				L227.06882,61.20652L222.50824,61.20652L222.50824,62.8867L216.50748,62.8867L216.50748,64.32686L204.26592,64.32686L204.26592,62.8867
				L195.14476,62.8867L195.14476,61.20652L192.02437,61.20652L192.02437,59.76637L190.58419,59.76637L190.58419,58.32622L187.46379,58.32622
				L187.46379,56.64604L185.78358,56.64604L185.78358,55.20588L184.34339,55.20588L184.34339,53.76573L181.223,53.76573L181.223,52.08555
				L179.78282,52.08555L179.78282,50.6454L176.66242,50.6454L176.66242,48.96522L175.22224,48.96522L175.22224,47.52506L173.54202,47.52506
				L173.54202,46.08491L172.10184,46.08491L172.10184,44.40473L170.66166,44.40473L170.66166,42.96458"/>
			<path clip-path="url(#SVG_CP_2)" fill="none" stroke="#999999" stroke-width="0.96012" stroke-miterlimit="10" stroke-linecap="round" stroke-linejoin="round" d="
				M230.18921,91.9298L228.74903,91.9298L228.74903,90.24962L230.18921,90.24962L230.18921,91.9298"/>
			<path clip-path="url(#SVG_CP_2)" fill="none" stroke="#999999" stroke-width="0.96012" stroke-miterlimit="10" stroke-linecap="round" stroke-linejoin="round" d="
				M227.06882,99.61062L225.62863,99.61062L225.62863,97.93044L227.06882,97.93044L227.06882,99.61062"/>
			<path clip-path="url(#SVG_CP_2)" fill="none" stroke="#999999" stroke-width="0.96012" stroke-miterlimit="10" stroke-linecap="round" stroke-linejoin="round" d="
				M225.62863,102.49092L224.18845,102.49092L224.18845,101.05077L225.62863,101.05077L225.62863,102.49092"/>
			<path clip-path="url(#SVG_CP_2)" fill="none" stroke="#999999" stroke-width="0.96012" stroke-miterlimit="10" stroke-linecap="round" stroke-linejoin="round" d="
				M222.50824,110.17174L221.06805,110.17174L221.06805,108.73159L222.50824,108.73159L222.50824,110.17174"/>
			<path clip-path="url(#SVG_CP_2)" fill="none" stroke="#999999" stroke-width="0.96012" stroke-miterlimit="10" stroke-linecap="round" stroke-linejoin="round" d="
				M219.38784,117.85256L217.94766,117.85256L217.94766,116.41241L219.38784,116.41241L219.38784,117.85256"/>
			<path clip-path="url(#SVG_CP_2)" fill="none" stroke="#999999" stroke-width="0.96012" stroke-miterlimit="10" stroke-linecap="round" stroke-linejoin="round" d="
				M217.94766,120.97289L216.50748,120.97289L216.50748,119.29271L217.94766,119.29271L217.94766,120.97289"/>
			<path clip-path="url(#SVG_CP_2)" fill="none" stroke="#999999" stroke-width="0.96012" stroke-miterlimit="10" stroke-linecap="round" stroke-linejoin="round" d="
				M214.82726,128.41368L213.38708,128.41368L213.38708,126.97353L214.82726,126.97353L214.82726,128.41368"/>
			<path clip-path="url(#SVG_CP_2)" fill="none" stroke="#999999" stroke-width="0.96012" stroke-miterlimit="10" stroke-linecap="round" stroke-linejoin="round" d="
				M211.9469,136.0945L210.26668,136.0945L210.26668,134.65435L211.9469,134.65435L211.9469,136.0945"/>
			<path clip-path="url(#SVG_CP_2)" fill="none" stroke="#999999" stroke-width="0.96012" stroke-miterlimit="10" stroke-linecap="round" stroke-linejoin="round" d="
				M210.26668,139.21484L208.8265,139.21484L208.8265,137.77468L210.26668,137.77468L210.26668,139.21484"/>
			<path clip-path="url(#SVG_CP_2)" fill="none" stroke="#999999" stroke-width="0.96012" stroke-miterlimit="10" stroke-linecap="round" stroke-linejoin="round" d="
				M207.38632,146.89565L205.70611,146.89565L205.70611,145.4555L207.38632,145.4555L207.38632,146.89565"/>
			<path clip-path="url(#SVG_CP_2)" fill="none" stroke="#999999" stroke-width="0.96012" stroke-miterlimit="10" stroke-linecap="round" stroke-linejoin="round" d="
				M204.26592,154.57647L202.58571,154.57647L202.58571,152.89629L204.26592,152.89629L204.26592,154.57647"/>
			<path clip-path="url(#SVG_CP_2)" fill="none" stroke="#999999" stroke-width="0.96012" stroke-miterlimit="10" stroke-linecap="round" stroke-linejoin="round" d="
				M202.58571,157.45678L201.14553,157.45678L201.14553,156.01663L202.58571,156.01663L202.58571,157.45678"/>
			<path clip-path="url(#SVG_CP_2)" fill="none" stroke="#999999" stroke-width="0.96012" stroke-miterlimit="10" stroke-linecap="round" stroke-linejoin="round" d="
				M199.70534,165.1376L198.02513,165.1376L198.02513,163.69744L199.70534,163.69744L199.70534,165.1376"/>
			<path clip-path="url(#SVG_CP_2)" fill="none" stroke="#999999" stroke-width="0.96012" stroke-miterlimit="10" stroke-linecap="round" stroke-linejoin="round" d="
				M196.58495,172.81842L195.14476,172.81842L195.14476,171.37826L196.58495,171.37826L196.58495,172.81842"/>
			<path clip-path="url(#SVG_CP_2)" fill="none" stroke="#999999" stroke-width="0.96012" stroke-miterlimit="10" stroke-linecap="round" stroke-linejoin="round" d="
				M195.14476,175.93875L193.46455,175.93875L193.46455,174.25857L195.14476,174.25857L195.14476,175.93875"/>
			<path clip-path="url(#SVG_CP_2)" fill="none" stroke="#999999" stroke-width="0.96012" stroke-miterlimit="10" stroke-linecap="round" stroke-linejoin="round" d="
				M192.02437,183.61957L190.58419,183.61957L190.58419,181.93939L192.02437,181.93939L192.02437,183.61957"/>
			<path clip-path="url(#SVG_CP_2)" fill="none" stroke="#999999" stroke-width="0.96012" stroke-miterlimit="10" stroke-linecap="round" stroke-linejoin="round" d="
				M-6.24079,99.61062L-5.04064,99.61062L-5.04064,96.49028L-3.60046,96.49028L-3.60046,93.36995L-2.16027,93.36995L-2.16027,91.9298
				L-0.48006,91.9298L-0.48006,88.80946L0.96012,88.80946L0.96012,85.68913L2.40031,85.68913L2.40031,91.9298L0.96012,91.9298L0.96012,105.61125
				L2.40031,105.61125L2.40031,110.17174L4.08052,110.17174L4.08052,114.73223L5.5207,114.73223L5.5207,117.85256L7.20091,117.85256
				L7.20091,122.41304L8.6411,122.41304L8.6411,126.97353L10.08128,126.97353L10.08128,131.53402L11.76149,131.53402L11.76149,134.65435
				L13.20168,134.65435L13.20168,139.21484L14.64186,139.21484L14.64186,143.77532L16.32207,143.77532L16.32207,148.33581L17.76225,148.33581
				L17.76225,151.45614L19.44247,151.45614L19.44247,156.01663L20.88265,156.01663L20.88265,162.25729L19.44247,162.25729L19.44247,163.69744
				L16.32207,163.69744L16.32207,165.1376L14.64186,165.1376L14.64186,166.81778L13.20168,166.81778L13.20168,168.25793L10.08128,168.25793
				L10.08128,169.69808L8.6411,169.69808L8.6411,171.37826L7.20091,171.37826L7.20091,172.81842L4.08052,172.81842L4.08052,174.25857
				L2.40031,174.25857L2.40031,175.93875L0.96012,175.93875L0.96012,177.3789L-2.16027,177.3789L-2.16027,179.05908L-3.60046,179.05908
				L-3.60046,180.49923L-6.24079,180.49923"/>
			<path clip-path="url(#SVG_CP_2)" fill="none" stroke="#999999" stroke-width="0.96012" stroke-miterlimit="10" stroke-linecap="round" stroke-linejoin="round" d="
				M188.90397,191.06036L187.46379,191.06036L187.46379,189.62021L188.90397,189.62021L188.90397,191.06036"/>
			<path clip-path="url(#SVG_CP_2)" fill="none" stroke="#999999" stroke-width="0.96012" stroke-miterlimit="10" stroke-linecap="round" stroke-linejoin="round" d="
				M184.34339,201.86151L182.90321,201.86151L182.90321,200.42136L184.34339,200.42136L184.34339,201.86151"/>
			<path clip-path="url(#SVG_CP_2)" fill="none" stroke="#999999" stroke-width="0.96012" stroke-miterlimit="10" stroke-linecap="round" stroke-linejoin="round" d="
				M181.223,209.54233L179.78282,209.54233L179.78282,208.10218L181.223,208.10218L181.223,209.54233"/>
			<path clip-path="url(#SVG_CP_2)" fill="none" stroke="#999999" stroke-width="0.96012" stroke-miterlimit="10" stroke-linecap="round" stroke-linejoin="round" d="
				M179.78282,215.54297L178.34263,215.54297L178.34263,214.10282L179.78282,214.10282L179.78282,215.54297"/>
			<path clip-path="url(#SVG_CP_2)" fill="none" stroke="#999999" stroke-width="0.96012" stroke-miterlimit="10" stroke-linecap="round" stroke-linejoin="round" d="
				M178.34263,224.90397L176.66242,224.90397L176.66242,223.22379L178.34263,223.22379L178.34263,224.90397"/>
			<path clip-path="url(#SVG_CP_2)" fill="none" stroke="#999999" stroke-width="0.96012" stroke-miterlimit="10" stroke-linecap="round" stroke-linejoin="round" d="
				M176.66242,235.46509L175.22224,235.46509L175.22224,232.34476L176.66242,232.34476L176.66242,235.46509"/>
			<path clip-path="url(#SVG_CP_2)" fill="none" stroke="#999999" stroke-width="0.96012" stroke-miterlimit="10" stroke-linecap="round" stroke-linejoin="round" d="
				M175.22224,244.58606L173.54202,244.58606L173.54202,241.70576L175.22224,241.70576L175.22224,244.58606"/>
			<path clip-path="url(#SVG_CP_2)" fill="none" stroke="#999999" stroke-width="0.96012" stroke-miterlimit="10" stroke-linecap="round" stroke-linejoin="round" d="
				M173.54202,253.70704L172.10184,253.70704L172.10184,252.26688L173.54202,252.26688L173.54202,253.70704"/>
			<path clip-path="url(#SVG_CP_2)" fill="none" stroke="#999999" stroke-width="0.96012" stroke-miterlimit="10" stroke-linecap="round" stroke-linejoin="round" d="
				M172.10184,263.06803L170.66166,263.06803L170.66166,261.38785L172.10184,261.38785L172.10184,263.06803"/>
			<path clip-path="url(#SVG_CP_2)" fill="none" stroke="#999999" stroke-width="0.96012" stroke-miterlimit="10" stroke-linecap="round" stroke-linejoin="round" d="
				M170.66166,272.18901L168.98144,272.18901L168.98144,270.74885L170.66166,270.74885L170.66166,272.18901"/>
			<path clip-path="url(#SVG_CP_2)" fill="none" stroke="#999999" stroke-width="0.96012" stroke-miterlimit="10" stroke-linecap="round" stroke-linejoin="round" d="
				M168.98144,281.30998L167.54126,281.30998L167.54126,279.86982L168.98144,279.86982L168.98144,281.30998"/>
			<path clip-path="url(#SVG_CP_2)" fill="none" stroke="#999999" stroke-width="0.96012" stroke-miterlimit="10" stroke-linecap="round" stroke-linejoin="round" d="
				M167.54126,290.43095L166.10108,290.43095L166.10108,288.9908L167.54126,288.9908L167.54126,290.43095"/>
			<path clip-path="url(#SVG_CP_2)" fill="none" stroke="#999999" stroke-width="0.96012" stroke-miterlimit="10" stroke-linecap="round" stroke-linejoin="round" d="
				M166.10108,301.2321L164.42087,301.2321L164.42087,298.11177L166.10108,298.11177L166.10108,301.2321"/>
			<path clip-path="url(#SVG_CP_2)" fill="none" stroke="#999999" stroke-width="0.96012" stroke-miterlimit="10" stroke-linecap="round" stroke-linejoin="round" d="
				M164.42087,310.35307L162.98068,310.35307L162.98068,308.91292L164.42087,308.91292L164.42087,310.35307"/>
			<path clip-path="url(#SVG_CP_2)" fill="none" stroke="#999999" stroke-width="0.96012" stroke-miterlimit="10" stroke-linecap="round" stroke-linejoin="round" d="
				M166.10108,311.79323L164.42087,311.79323L164.42087,310.35307L166.10108,310.35307L166.10108,311.79323"/>
			<path clip-path="url(#SVG_CP_2)" fill="none" stroke="#999999" stroke-width="0.96012" stroke-miterlimit="10" stroke-linecap="round" stroke-linejoin="round" d="
				M167.54126,313.4734L166.10108,313.4734L166.10108,311.79323L167.54126,311.79323L167.54126,313.4734"/>
			<path clip-path="url(#SVG_CP_2)" fill="none" stroke="#999999" stroke-width="0.96012" stroke-miterlimit="10" stroke-linecap="round" stroke-linejoin="round" d="
				M168.98144,314.91356L167.54126,314.91356L167.54126,313.4734L168.98144,313.4734L168.98144,314.91356"/>
			<path clip-path="url(#SVG_CP_2)" fill="none" stroke="#999999" stroke-width="0.96012" stroke-miterlimit="10" stroke-linecap="round" stroke-linejoin="round" d="
				M170.66166,316.35371L168.98144,316.35371L168.98144,314.91356L170.66166,314.91356L170.66166,316.35371"/>
			<path clip-path="url(#SVG_CP_2)" fill="none" stroke="#999999" stroke-width="0.96012" stroke-miterlimit="10" stroke-linecap="round" stroke-linejoin="round" d="
				M172.10184,318.03389L170.66166,318.03389L170.66166,316.35371L172.10184,316.35371L172.10184,318.03389"/>
			<path clip-path="url(#SVG_CP_2)" fill="none" stroke="#999999" stroke-width="0.96012" stroke-miterlimit="10" stroke-linecap="round" stroke-linejoin="round" d="
				M172.10184,318.03389L173.54202,318.03389L173.54202,319.47404L172.10184,319.47404L172.10184,318.03389"/>
			<path clip-path="url(#SVG_CP_2)" fill="none" stroke="#999999" stroke-width="0.96012" stroke-miterlimit="10" stroke-linecap="round" stroke-linejoin="round" d="
				M289.71677,415.7243L291.39698,415.7243L291.39698,414.28415L292.83716,414.28415L292.83716,412.84399L294.27735,412.84399L294.27735,411.16381
				L295.95756,411.16381L295.95756,409.72366L297.39774,409.72366L297.39774,408.04348L298.83792,408.04348L298.83792,406.60333
				L300.51814,406.60333L300.51814,405.16318L301.95832,405.16318L301.95832,403.483L303.63853,403.483L303.63853,402.04284L305.07872,402.04284
				L305.07872,400.60269L306.5189,400.60269L306.5189,383.8009L308.19911,383.8009L308.19911,382.12072L309.63929,382.12072L309.63929,377.56023
				L315.88009,377.56023L315.88009,379.00039L317.32027,379.00039L317.32027,376.12008L315.88009,376.12008L315.88009,372.99975
				L314.19987,372.99975L314.19987,369.87942L312.75969,369.87942L312.75969,366.99911L311.07948,366.99911L311.07948,363.87878
				L309.63929,363.87878L309.63929,360.75844L308.19911,360.75844L308.19911,359.31829L306.5189,359.31829L306.5189,356.19796L305.07872,356.19796
				L305.07872,354.7578L309.63929,354.7578L309.63929,356.19796L320.44067,356.19796L320.44067,357.63811L331.00201,357.63811L331.00201,359.31829
				L341.80338,359.31829L341.80338,360.75844L346.36396,360.75844L346.36396,368.43926L347.80414,368.43926L347.80414,394.36202
				L349.48435,394.36202L349.48435,417.40448L295.95756,417.40448L295.95756,455.56855L294.27735,455.56855L294.27735,464.68952
				L292.83716,464.68952L292.83716,466.12967L289.71677,466.12967L289.71677,415.7243"/>
			<path clip-path="url(#SVG_CP_2)" fill="none" stroke="#999999" stroke-width="0.96012" stroke-miterlimit="10" stroke-linecap="round" stroke-linejoin="round" d="
				M292.83716,473.81049L291.39698,473.81049L291.39698,470.69016L292.83716,470.69016L292.83716,473.81049"/>
			<path clip-path="url(#SVG_CP_2)" fill="none" stroke="#999999" stroke-width="0.96012" stroke-miterlimit="10" stroke-linecap="round" stroke-linejoin="round" d="
				M291.39698,481.49131L289.71677,481.49131L289.71677,480.05116L291.39698,480.05116L291.39698,481.49131"/>
			<path clip-path="url(#SVG_CP_2)" fill="none" stroke="#999999" stroke-width="0.96012" stroke-miterlimit="10" stroke-linecap="round" stroke-linejoin="round" d="
				M289.71677,490.61228L288.27658,490.61228L288.27658,489.17213L289.71677,489.17213L289.71677,490.61228"/>
			<path clip-path="url(#SVG_CP_2)" fill="none" stroke="#999999" stroke-width="0.96012" stroke-miterlimit="10" stroke-linecap="round" stroke-linejoin="round" d="
				M288.27658,499.73325L286.8364,499.73325L286.8364,498.2931L288.27658,498.2931L288.27658,499.73325"/>
			<path clip-path="url(#SVG_CP_2)" fill="none" stroke="#999999" stroke-width="0.96012" stroke-miterlimit="10" stroke-linecap="round" stroke-linejoin="round" d="
				M286.8364,509.09425L285.15619,509.09425L285.15619,507.41407L286.8364,507.41407L286.8364,509.09425"/>
			<path clip-path="url(#SVG_CP_2)" fill="none" stroke="#999999" stroke-width="0.96012" stroke-miterlimit="10" stroke-linecap="round" stroke-linejoin="round" d="
				M285.15619,518.21522L283.716,518.21522L283.716,516.53504L285.15619,516.53504L285.15619,518.21522"/>
			<path clip-path="url(#SVG_CP_2)" fill="none" stroke="#999999" stroke-width="0.96012" stroke-miterlimit="10" stroke-linecap="round" stroke-linejoin="round" d="
				M283.716,527.33619L282.03579,527.33619L282.03579,525.89604L283.716,525.89604L283.716,527.33619"/>
			<path clip-path="url(#SVG_CP_2)" fill="none" stroke="#999999" stroke-width="0.96012" stroke-miterlimit="10" stroke-linecap="round" stroke-linejoin="round" d="
				M282.03579,536.45717L280.59561,536.45717L280.59561,535.01701L282.03579,535.01701L282.03579,536.45717"/>
			<path clip-path="url(#SVG_CP_2)" fill="none" stroke="#999999" stroke-width="0.96012" stroke-miterlimit="10" stroke-linecap="round" stroke-linejoin="round" d="
				M282.03579,548.69847L280.59561,548.69847L280.59561,547.25832L282.03579,547.25832L282.03579,548.69847"/>
			<path clip-path="url(#SVG_CP_2)" fill="none" stroke="#999999" stroke-width="0.96012" stroke-miterlimit="10" stroke-linecap="round" stroke-linejoin="round" d="
				M285.15619,556.37929L283.716,556.37929L283.716,554.93914L285.15619,554.93914L285.15619,556.37929"/>
			<path clip-path="url(#SVG_CP_2)" fill="none" stroke="#999999" stroke-width="0.96012" stroke-miterlimit="10" stroke-linecap="round" stroke-linejoin="round" d="
				M288.27658,564.06011L286.8364,564.06011L286.8364,562.37993L288.27658,562.37993L288.27658,564.06011"/>
			<path clip-path="url(#SVG_CP_2)" fill="none" stroke="#999999" stroke-width="0.96012" stroke-miterlimit="10" stroke-linecap="round" stroke-linejoin="round" d="
				M291.39698,571.74093L289.71677,571.74093L289.71677,570.06075L291.39698,570.06075L291.39698,571.74093"/>
			<path clip-path="url(#SVG_CP_2)" fill="none" stroke="#999999" stroke-width="0.96012" stroke-miterlimit="10" stroke-linecap="round" stroke-linejoin="round" d="
				M292.83716,576.30141L291.39698,576.30141L291.39698,574.62123L292.83716,574.62123L292.83716,576.30141"/>
			<path clip-path="url(#SVG_CP_2)" fill="none" stroke="#999999" stroke-width="0.96012" stroke-miterlimit="10" stroke-linecap="round" stroke-linejoin="round" d="
				M294.27735,579.18172L292.83716,579.18172L292.83716,577.74157L294.27735,577.74157L294.27735,579.18172"/>
			<path clip-path="url(#SVG_CP_2)" fill="none" stroke="#999999" stroke-width="0.96012" stroke-miterlimit="10" stroke-linecap="round" stroke-linejoin="round" d="
				M295.95756,687.67328L294.27735,687.67328L294.27735,686.23313L295.95756,686.23313L295.95756,687.67328"/>
			<path clip-path="url(#SVG_CP_2)" fill="none" stroke="#999999" stroke-width="0.96012" stroke-miterlimit="10" stroke-linecap="round" stroke-linejoin="round" d="
				M301.95832,695.3541L300.51814,695.3541L300.51814,693.91394L301.95832,693.91394L301.95832,695.3541"/>
			<path clip-path="url(#SVG_CP_2)" fill="none" stroke="#999999" stroke-width="0.96012" stroke-miterlimit="10" stroke-linecap="round" stroke-linejoin="round" d="
				M344.68374,758.00077L343.24356,758.00077L343.24356,741.19898L341.80338,741.19898L341.80338,722.95704L343.24356,722.95704
				L343.24356,724.39719L346.36396,724.39719L346.36396,726.07737L349.48435,726.07737L349.48435,727.51753L352.36472,727.51753
				L352.36472,728.95768L354.04493,728.95768L354.04493,730.63786L352.36472,730.63786L352.36472,741.19898L350.92453,741.19898
				L350.92453,748.8798L349.48435,748.8798L349.48435,752.00013L347.80414,752.00013L347.80414,753.44029L346.36396,753.44029L346.36396,756.56062
				L344.68374,756.56062L344.68374,758.00077"/>
			<path clip-path="url(#SVG_CP_2)" fill="none" stroke="#999999" stroke-width="0.96012" stroke-miterlimit="10" stroke-linecap="round" stroke-linejoin="round" d="
				M306.5189,383.8009L305.07872,383.8009L305.07872,389.80154L303.63853,389.80154L303.63853,394.36202L301.95832,394.36202L301.95832,398.92251
				L300.51814,398.92251L300.51814,403.483L298.83792,403.483L298.83792,406.60333L297.39774,406.60333L297.39774,408.04348L295.95756,408.04348
				L295.95756,409.72366L294.27735,409.72366L294.27735,411.16381L292.83716,411.16381L292.83716,412.84399L291.39698,412.84399
				L291.39698,414.28415L289.71677,414.28415L289.71677,415.7243L288.27658,415.7243L288.27658,466.12967L285.15619,466.12967L285.15619,464.68952
				L271.47445,464.68952L271.47445,463.24936L259.2329,463.24936L259.2329,461.56919L246.99134,461.56919L246.99134,460.12903L234.74979,460.12903
				L234.74979,458.68888L221.06805,458.68888L221.06805,457.0087L208.8265,457.0087L208.8265,455.56855L196.58495,455.56855L196.58495,453.88837
				L190.58419,453.88837L190.58419,455.56855L188.90397,455.56855L188.90397,457.0087L185.78358,457.0087L185.78358,458.68888L184.34339,458.68888
				L184.34339,460.12903L181.223,460.12903L181.223,461.56919L179.78282,461.56919L179.78282,463.24936L176.66242,463.24936L176.66242,464.68952
				L175.22224,464.68952L175.22224,466.12967L172.10184,466.12967L172.10184,467.80985L170.66166,467.80985L170.66166,469.25L168.98144,469.25
				L168.98144,470.69016L166.10108,470.69016L166.10108,472.37034L164.42087,472.37034L164.42087,473.81049L161.5405,473.81049L
				161.5405,472.37034L139.93776,472.37034L139.93776,470.69016L120.25526,470.69016L120.25526,469.25L98.89255,469.25L98.89255,467.80985
				L78.97002,467.80985L78.97002,466.12967L57.60731,466.12967L57.60731,464.68952L40.80518,464.68952L40.80518,466.12967L42.24536,466.12967
				L42.24536,469.25L43.68554,469.25L43.68554,472.37034L45.36576,472.37034L45.36576,475.49067L46.80594,475.49067L46.80594,478.37098
				L48.24612,478.37098L48.24612,480.05116L49.92634,480.05116L49.92634,482.93146L51.36652,482.93146L51.36652,486.05179L53.04673,486.05179
				L53.04673,489.17213L54.48692,489.17213L54.48692,492.29246L55.9271,492.29246L55.9271,493.73261L57.60731,493.73261L57.60731,496.85295
				L59.04749,496.85295L59.04749,499.73325L60.48768,499.73325L60.48768,502.85359L62.16789,502.85359L62.16789,505.97392L63.60807,505.97392
				L63.60807,507.41407L65.04826,507.41407L65.04826,510.5344L66.72847,510.5344L66.72847,513.65474L68.16865,513.65474L68.16865,516.53504
				L69.84886,516.53504L69.84886,518.21522L71.28905,518.21522L71.28905,521.33555L72.72923,521.33555L72.72923,524.21586L74.40944,524.21586
				L74.40944,527.33619L75.84963,527.33619L75.84963,528.77635L77.28981,528.77635L77.28981,530.45653L78.97002,530.45653L78.97002,533.33683
				L80.4102,533.33683L80.4102,535.01701L82.09042,535.01701L82.09042,538.13734L83.5306,538.13734L83.5306,539.5775L84.97078,539.5775
				L84.97078,541.01765L86.651,541.01765L86.651,544.13798L88.09118,544.13798L88.09118,545.57814L89.53136,545.57814L89.53136,548.69847
				L91.21158,548.69847L91.21158,554.93914L92.65176,554.93914L92.65176,559.49962L94.09194,559.49962L94.09194,565.50026L95.77215,565.50026
				L95.77215,571.74093L97.21234,571.74093L97.21234,576.30141L98.89255,576.30141L98.89255,582.30205L100.33273,582.30205L100.33273,593.1032
				L101.77292,593.1032L101.77292,603.66433L103.45313,603.66433L103.45313,615.90563L104.89331,615.90563L104.89331,623.58645L
				106.33349,623.58645L106.33349,626.70678L108.01371,626.70678L108.01371,629.82712L109.45389,629.82712L109.45389,632.70742L
				110.89407,632.70742L110.89407,635.82775L112.57429,635.82775L112.57429,637.26791L114.01447,637.26791L114.01447,640.38824L
				115.69468,640.38824L115.69468,643.50857L117.13487,643.50857L117.13487,646.62891L118.57505,646.62891L118.57505,649.50921L
				120.25526,649.50921L120.25526,652.62955L121.69544,652.62955L121.69544,654.0697L123.13563,654.0697L123.13563,657.19003L124.81584,657.19003
				L124.81584,660.31036L126.25602,660.31036L126.25602,663.4307L127.69621,663.4307L127.69621,666.311L129.37642,666.311L129.37642,669.43134
				L130.8166,669.43134L130.8166,670.87149L132.49681,670.87149L132.49681,673.99182L133.937,673.99182L133.937,677.11215L135.37718,677.11215
				L135.37718,680.23249L137.05739,680.23249L137.05739,681.67264L138.49758,681.67264L138.49758,684.79297L139.93776,684.79297
				L139.93776,687.67328L141.61797,687.67328L141.61797,690.79361L143.05815,690.79361L143.05815,692.47379L144.73837,692.47379
				L144.73837,695.3541L146.17855,695.3541L146.17855,698.47443L147.61873,698.47443L147.61873,701.59476L149.29895,701.59476L149.29895,703.03492
				L150.73913,703.03492L150.73913,706.15525L152.17931,706.15525L152.17931,709.27558L153.85953,709.27558L153.85953,710.71573
				L155.29971,710.71573L155.29971,713.83607L156.73989,713.83607L156.73989,716.71637L158.4201,716.71637L158.4201,719.83671L159.86029,719.83671
				L159.86029,721.27686L161.5405,721.27686L161.5405,724.39719L162.98068,724.39719L162.98068,727.51753L164.42087,727.51753L164.42087,730.63786
				L166.10108,730.63786L166.10108,733.51816L167.54126,733.51816L167.54126,735.19834L168.98144,735.19834L168.98144,738.07865
				L170.66166,738.07865L170.66166,741.19898L172.10184,741.19898L172.10184,744.31932L173.54202,744.31932L173.54202,747.43965
				L175.22224,747.43965L175.22224,748.8798L176.66242,748.8798L176.66242,752.00013L178.34263,752.00013L178.34263,755.12047L179.78282,755.12047
				L179.78282,758.00077L181.223,758.00077L181.223,761.12111L182.90321,761.12111L182.90321,764.24144L184.34339,764.24144L184.34339,765.68159
				L185.78358,765.68159L185.78358,768.80192L192.02437,768.80192L192.02437,767.12175L196.58495,767.12175L196.58495,765.68159
				L201.14553,765.68159L201.14553,764.24144L205.70611,764.24144L205.70611,762.56126L210.26668,762.56126L210.26668,756.56062
				L211.9469,756.56062L211.9469,752.00013L213.38708,752.00013L213.38708,745.75947L214.82726,745.75947L214.82726,742.87916L216.50748,742.87916
				L216.50748,741.19898L221.06805,741.19898L221.06805,739.75883L224.18845,739.75883L224.18845,738.07865L227.06882,738.07865
				L227.06882,736.6385L231.62939,736.6385L231.62939,735.19834L234.74979,735.19834L234.74979,733.51816L239.31037,733.51816L239.31037,732.07801
				L242.43077,732.07801L242.43077,730.63786L245.55116,730.63786L245.55116,728.95768L248.43153,728.95768L248.43153,727.51753
				L250.11174,727.51753L250.11174,724.39719L251.55192,724.39719L251.55192,722.95704L253.23214,722.95704L253.23214,719.83671
				L254.67232,719.83671L254.67232,716.71637L256.1125,716.71637L256.1125,715.27622L257.79272,715.27622L257.79272,712.15589L259.2329,712.15589
				L259.2329,709.27558L260.67308,709.27558L260.67308,707.5954L262.35329,707.5954L262.35329,704.47507L263.79348,704.47507L263.79348,701.59476
				L265.23366,701.59476L265.23366,699.91458L266.91387,699.91458L266.91387,697.03428L268.35406,697.03428L268.35406,693.91394
				L270.03427,693.91394L270.03427,690.79361L271.47445,690.79361L271.47445,689.35346L272.91463,689.35346L272.91463,686.23313
				L274.59485,686.23313L274.59485,683.11279L271.47445,683.11279L271.47445,681.67264L265.23366,681.67264L265.23366,680.23249
				L259.2329,680.23249L259.2329,678.55231L254.67232,678.55231L254.67232,672.55167L256.1125,672.55167L256.1125,666.311L257.79272,666.311
				L257.79272,660.31036L259.2329,660.31036L259.2329,654.0697L289.71677,654.0697L289.71677,669.43134L288.27658,669.43134L288.27658,684.79297
				L286.8364,684.79297L286.8364,697.03428L288.27658,697.03428L288.27658,698.47443L289.71677,698.47443L289.71677,699.91458L292.83716,699.91458
				L292.83716,701.59476L294.27735,701.59476L294.27735,703.03492L297.39774,703.03492L297.39774,704.47507L298.83792,704.47507
				L298.83792,706.15525L301.95832,706.15525L301.95832,707.5954L303.63853,707.5954L303.63853,709.27558L306.5189,709.27558L306.5189,710.71573
				L308.19911,710.71573L308.19911,712.15589L311.07948,712.15589L311.07948,713.83607L312.75969,713.83607L312.75969,724.39719
				L311.07948,724.39719L311.07948,736.6385L309.63929,736.6385L309.63929,748.8798L308.19911,748.8798L308.19911,761.12111L306.5189,761.12111
				L306.5189,768.80192L303.63853,768.80192L303.63853,767.12175L301.95832,767.12175L301.95832,765.68159L300.51814,765.68159L
				300.51814,762.56126L298.83792,762.56126L298.83792,759.68095L297.39774,759.68095L297.39774,756.56062L295.95756,756.56062L
				295.95756,755.12047L294.27735,755.12047L294.27735,753.44029L292.83716,753.44029L292.83716,750.31996L291.39698,750.31996L
				291.39698,742.87916L289.71677,742.87916L289.71677,741.19898L288.27658,741.19898L288.27658,739.75883L286.8364,739.75883L286.8364,736.6385
				L285.15619,736.6385L285.15619,733.51816L283.716,733.51816L283.716,732.07801L279.15543,732.07801L279.15543,733.51816L277.47521,733.51816
				L277.47521,735.19834L274.59485,735.19834L274.59485,736.6385L272.91463,736.6385L272.91463,738.07865L271.47445,738.07865L271.47445,739.75883
				L270.03427,739.75883L270.03427,741.19898L266.91387,741.19898L266.91387,742.87916L265.23366,742.87916L265.23366,744.31932
				L262.35329,744.31932L262.35329,745.75947L259.2329,745.75947L259.2329,747.43965L254.67232,747.43965L254.67232,748.8798L246.99134,748.8798
				L246.99134,750.31996L236.18997,750.31996L236.18997,752.00013L234.74979,752.00013L234.74979,753.44029L233.30961,753.44029
				L233.30961,758.00077L231.62939,758.00077L231.62939,761.12111L230.18921,761.12111L230.18921,765.68159L228.74903,765.68159
				L228.74903,767.12175L227.06882,767.12175L227.06882,768.80192L225.62863,768.80192L225.62863,770.24208L224.18845,770.24208
				L224.18845,773.36241L222.50824,773.36241L222.50824,774.80256L221.06805,774.80256L221.06805,776.48274L217.94766,776.48274
				L217.94766,777.9229L216.50748,777.9229L216.50748,779.36305L214.82726,779.36305L214.82726,781.04323L213.38708,781.04323L213.38708,782.48338
				L210.26668,782.48338L210.26668,783.92354L207.38632,783.92354L207.38632,785.60372L204.26592,785.60372L204.26592,787.04387
				L201.14553,787.04387L201.14553,788.72405L196.58495,788.72405L196.58495,790.1642L193.46455,790.1642L193.46455,791.60435L185.78358,791.60435
				L185.78358,793.28453L184.34339,793.28453L184.34339,791.60435L181.223,791.60435L181.223,790.1642L176.66242,790.1642L176.66242,788.72405
				L175.22224,788.72405L175.22224,787.04387L172.10184,787.04387L172.10184,785.60372L170.66166,785.60372L170.66166,783.92354
				L168.98144,783.92354L168.98144,782.48338L167.54126,782.48338L167.54126,781.04323L166.10108,781.04323L166.10108,779.36305
				L164.42087,779.36305L164.42087,777.9229L161.5405,777.9229L161.5405,776.48274L159.86029,776.48274L159.86029,774.80256L158.4201,774.80256
				L158.4201,773.36241L156.73989,773.36241L156.73989,771.92226L155.29971,771.92226L155.29971,768.80192L153.85953,768.80192L
				153.85953,767.12175L152.17931,767.12175L152.17931,765.68159L150.73913,765.68159L150.73913,764.24144L149.29895,764.24144L
				149.29895,762.56126L147.61873,762.56126L147.61873,759.68095L146.17855,759.68095L146.17855,758.00077L144.73837,758.00077L
				144.73837,756.56062L143.05815,756.56062L143.05815,753.44029L141.61797,753.44029L141.61797,752.00013L139.93776,752.00013L
				139.93776,750.31996L138.49758,750.31996L138.49758,748.8798L137.05739,748.8798L137.05739,747.43965L135.37718,747.43965L135.37718,744.31932
				L133.937,744.31932L133.937,742.87916L132.49681,742.87916L132.49681,741.19898L130.8166,741.19898L130.8166,739.75883L129.37642,739.75883
				L129.37642,738.07865L127.69621,738.07865L127.69621,735.19834L126.25602,735.19834L126.25602,732.07801L124.81584,732.07801
				L124.81584,728.95768L123.13563,728.95768L123.13563,726.07737L121.69544,726.07737L121.69544,722.95704L120.25526,722.95704
				L120.25526,719.83671L118.57505,719.83671L118.57505,718.39655L117.13487,718.39655L117.13487,713.83607L115.69468,713.83607
				L115.69468,710.71573L112.57429,710.71573L112.57429,707.5954L110.89407,707.5954L110.89407,706.15525L109.45389,706.15525L109.45389,704.47507
				L108.01371,704.47507L108.01371,703.03492L106.33349,703.03492L106.33349,701.59476L104.89331,701.59476L104.89331,699.91458
				L103.45313,699.91458L103.45313,697.03428L101.77292,697.03428L101.77292,695.3541L100.33273,695.3541L100.33273,693.91394L98.89255,693.91394
				L98.89255,692.47379L97.21234,692.47379L97.21234,689.35346L95.77215,689.35346L95.77215,686.23313L94.09194,686.23313L94.09194,683.11279
				L92.65176,683.11279L92.65176,681.67264L91.21158,681.67264L91.21158,678.55231L89.53136,678.55231L89.53136,677.11215L88.09118,677.11215
				L88.09118,675.43198L86.651,675.43198L86.651,673.99182L84.97078,673.99182L84.97078,672.55167L83.5306,672.55167L83.5306,669.43134
				L80.4102,669.43134L80.4102,666.311L78.97002,666.311L78.97002,664.87085L77.28981,664.87085L77.28981,663.4307L75.84963,663.4307
				L75.84963,661.75052L74.40944,661.75052L74.40944,660.31036L72.72923,660.31036L72.72923,657.19003L71.28905,657.19003L71.28905,655.74988
				L69.84886,655.74988L69.84886,652.62955L68.16865,652.62955L68.16865,651.18939L66.72847,651.18939L66.72847,649.50921L65.04826,649.50921
				L65.04826,648.06906L63.60807,648.06906L63.60807,646.62891L62.16789,646.62891L62.16789,644.94873L60.48768,644.94873L60.48768,643.50857
				L59.04749,643.50857L59.04749,641.82839L57.60731,641.82839L57.60731,640.38824L55.9271,640.38824L55.9271,638.94809L54.48692,638.94809
				L54.48692,637.26791L53.04673,637.26791L53.04673,635.82775L51.36652,635.82775L51.36652,634.3876L49.92634,634.3876L49.92634,632.70742
				L48.24612,632.70742L48.24612,631.26727L46.80594,631.26727L46.80594,629.82712L43.68554,629.82712L43.68554,628.14694L42.24536,628.14694
				L42.24536,626.70678L40.80518,626.70678L40.80518,625.0266L39.12497,625.0266L39.12497,623.58645L37.68478,623.58645L37.68478,622.1463
				L36.2446,622.1463L36.2446,617.58581L34.56439,617.58581L34.56439,615.90563L33.1242,615.90563L33.1242,614.46548L31.44399,614.46548
				L31.44399,612.7853L30.00381,612.7853L30.00381,609.90499L28.56363,609.90499L28.56363,606.78466L26.88341,606.78466L26.88341,605.34451
				L25.44323,605.34451L25.44323,603.66433L24.00305,603.66433L24.00305,600.78402L22.32283,600.78402L22.32283,599.10384L20.88265,599.10384
				L20.88265,595.98351L17.76225,595.98351L17.76225,594.54336L16.32207,594.54336L16.32207,593.1032L14.64186,593.1032L14.64186,591.42302
				L11.76149,591.42302L11.76149,589.98287L10.08128,589.98287L10.08128,588.54272L8.6411,588.54272L8.6411,586.86254L5.5207,586.86254
				L5.5207,583.98223L4.08052,583.98223L4.08052,582.30205L2.40031,582.30205L2.40031,579.18172L0.96012,579.18172L0.96012,577.74157
				L-0.48006,577.74157L-0.48006,574.62123L-2.16027,574.62123L-2.16027,571.74093L-3.60046,571.74093L-3.60046,570.06075L-5.04064,570.06075
				L-5.04064,567.18044L-6.24079,567.18044M-6.24079,221.78363L0.96012,221.78363L0.96012,223.22379L4.08052,223.22379L4.08052,224.90397
				L5.5207,224.90397L5.5207,227.78427L7.20091,227.78427L7.20091,229.46445L8.6411,229.46445L8.6411,232.34476L10.08128,232.34476
				L10.08128,234.02494L13.20168,234.02494L13.20168,235.46509L14.64186,235.46509L14.64186,236.90525L16.32207,236.90525L16.32207,238.58542
				L17.76225,238.58542L17.76225,240.02558L19.44247,240.02558L19.44247,241.70576L20.88265,241.70576L20.88265,243.14591L24.00305,243.14591
				L24.00305,241.70576L62.16789,241.70576L62.16789,240.02558L80.4102,240.02558L80.4102,243.14591L82.09042,243.14591L82.09042,253.70704
				L83.5306,253.70704L83.5306,261.38785L84.97078,261.38785L84.97078,267.62852L86.651,267.62852L86.651,273.62916L88.09118,273.62916
				L88.09118,279.86982L89.53136,279.86982L89.53136,285.87046L91.21158,285.87046L91.21158,294.99144L92.65176,294.99144L92.65176,304.35243
				L94.09194,304.35243L94.09194,305.79259L95.77215,305.79259L95.77215,307.23274L97.21234,307.23274L97.21234,308.91292L100.33273,308.91292
				L100.33273,310.35307L101.77292,310.35307L101.77292,311.79323L103.45313,311.79323L103.45313,313.4734L104.89331,313.4734L104.89331,314.91356
				L108.01371,314.91356L108.01371,316.35371L109.45389,316.35371L109.45389,318.03389L110.89407,318.03389L110.89407,319.47404
				L112.57429,319.47404L112.57429,321.15422L115.69468,321.15422L115.69468,322.59438L117.13487,322.59438L117.13487,324.03453
				L120.25526,324.03453L120.25526,325.71471L123.13563,325.71471L123.13563,327.15486L126.25602,327.15486L126.25602,328.59502
				L127.69621,328.59502L127.69621,330.27519L130.8166,330.27519L130.8166,331.71535L133.937,331.71535L133.937,333.39553L135.37718,333.39553
				L135.37718,334.83568L138.49758,334.83568L138.49758,336.27583L141.61797,336.27583L141.61797,337.95601L144.73837,337.95601
				L144.73837,339.39617L149.29895,339.39617L149.29895,340.83632L155.29971,340.83632L155.29971,342.5165L159.86029,342.5165L159.86029,343.95665
				L164.42087,343.95665L164.42087,345.39681L176.66242,345.39681L176.66242,347.07699L187.46379,347.07699L187.46379,348.51714
				L193.46455,348.51714L193.46455,350.19732L199.70534,350.19732L199.70534,351.63747L205.70611,351.63747L205.70611,353.07762
				L213.38708,353.07762L213.38708,354.7578L219.38784,354.7578L219.38784,356.19796L225.62863,356.19796L225.62863,357.63811L231.62939,357.63811
				L231.62939,359.31829L237.87019,359.31829L237.87019,360.75844L245.55116,360.75844L245.55116,362.1986L251.55192,362.1986L251.55192,363.87878
				L257.79272,363.87878L257.79272,365.31893L263.79348,365.31893L263.79348,366.99911L270.03427,366.99911L270.03427,368.43926
				L276.03503,368.43926L276.03503,369.87942L283.716,369.87942L283.716,371.55959L289.71677,371.55959L289.71677,372.99975L295.95756,372.99975
				L295.95756,374.4399L301.95832,374.4399L301.95832,376.12008L308.19911,376.12008L308.19911,379.00039L306.5189,379.00039L306.5189,383.8009
				"/>
		</g>
</g></svg>