<?xml version="1.0" encoding="utf-8" standalone="no"?>
<!-- Creator: ESRI ArcMap 10.0.0.2414 -->
<!DOCTYPE svg PUBLIC "-//W3C//DTD SVG 1.1//EN"  "http://www.w3.org/Graphics/SVG/1.1/DTD/svg11.dtd">
<svg width="595.50236pt" height="595.50236pt" viewBox="25 148.377955 545.50236 545.50236" enable-background="new 25 148.377955 545.50236 545.50236"
	version="1.1" xmlns="http://www.w3.org/2000/svg" xmlns:xlink="http://www.w3.org/1999/xlink" >
	<g id="Couches">
		<g id="cont_2">
			<path clip-path="url(#SVG_CP_2)" fill="none" stroke="#999999" stroke-width="0.96012" stroke-miterlimit="10" stroke-linecap="round" stroke-linejoin="round" d="
				M415.49273,174.25857L414.05254,174.25857L414.05254,172.81842L410.21206,172.81842L410.21206,171.61829L404.93139,171.61829
				L404.93139,170.17813L399.65072,170.17813L399.65072,168.97801L395.81023,168.97801L395.81023,167.53785L390.52956,167.53785
				L390.52956,166.33773L386.68907,166.33773L386.68907,164.89757L381.4084,164.89757L381.4084,163.69744L377.56791,163.69744L377.56791,162.49732
				L372.28724,162.49732L372.28724,161.05716L367.00657,161.05716L367.00657,159.85704L363.16609,159.85704L363.16609,158.41688
				L357.88542,158.41688L357.88542,157.21675L354.04493,157.21675L354.04493,155.7766L348.76426,155.7766L348.76426,154.57647L344.92377,154.57647
				L344.92377,153.13632L339.6431,153.13632L339.6431,151.93619L335.80261,151.93619L335.80261,150.73606L330.52194,150.73606L330.52194,149.29591
				L325.24127,149.29591L325.24127,148.09578L321.40079,148.09578L321.40079,146.65563L316.12012,146.65563L316.12012,145.4555L
				312.27963,145.4555L312.27963,144.01535L306.99896,144.01535L306.99896,142.81522L302.91844,142.81522L302.91844,141.37507L297.8778,141.37507
				L297.8778,140.17494L293.79728,140.17494L293.79728,138.97481L288.75664,138.97481L288.75664,137.53466L283.47597,137.53466L
				283.47597,136.33453L279.39546,136.33453L279.39546,134.89437L274.35482,134.89437L274.35482,133.69425L270.2743,133.69425L270.2743,132.25409
				L265.23366,132.25409L265.23366,131.05397L261.15314,131.05397L261.15314,129.61381L255.87247,129.61381L255.87247,128.41368
				L252.03198,128.41368L252.03198,127.21356L246.75131,127.21356L246.75131,125.7734L241.71067,125.7734L241.71067,124.57328L242.91083,124.57328
				L242.91083,123.13312L291.15695,123.13312L291.15695,124.57328L297.8778,124.57328L297.8778,125.7734L302.91844,125.7734L302.91844,127.21356
				L306.99896,127.21356L306.99896,128.41368L312.27963,128.41368L312.27963,129.61381L316.12012,129.61381L316.12012,131.05397
				L319.9606,131.05397L319.9606,132.25409L324.04112,132.25409L324.04112,133.69425L327.88161,133.69425L327.88161,134.89437L331.7221,134.89437
				L331.7221,136.33453L335.80261,136.33453L335.80261,137.53466L339.6431,137.53466L339.6431,138.97481L343.48359,138.97481L343.48359,140.17494
				L347.56411,140.17494L347.56411,141.37507L351.40459,141.37507L351.40459,142.81522L355.24508,142.81522L355.24508,144.01535
				L357.88542,144.01535L357.88542,145.4555L363.16609,145.4555L363.16609,146.65563L365.80642,146.65563L365.80642,148.09578L370.84706,148.09578
				L370.84706,149.29591L373.4874,149.29591L373.4874,150.73606L377.56791,150.73606L377.56791,151.93619L381.4084,151.93619L381.4084,153.13632
				L386.68907,153.13632L386.68907,154.57647L389.32941,154.57647L389.32941,155.7766L394.37005,155.7766L394.37005,157.21675L397.01038,157.21675
				L397.01038,158.41688L401.0909,158.41688L401.0909,159.85704L406.13154,159.85704L406.13154,158.41688L408.77187,158.41688L408.77187,157.21675
				L411.41221,157.21675L411.41221,155.7766L412.85239,155.7766L412.85239,154.57647L414.05254,154.57647L414.05254,159.85704L415.49273,159.85704
				L415.49273,174.25857"/>
			<path clip-path="url(#SVG_CP_2)" fill="none" stroke="#999999" stroke-width="0.96012" stroke-miterlimit="10" stroke-linecap="round" stroke-linejoin="round" d="
				M288.75664,441.88709L289.9568,441.88709L289.9568,440.68696L291.15695,440.68696L291.15695,439.48683L292.59713,439.48683L292.59713,438.04668
				L293.79728,438.04668L293.79728,436.84655L295.23747,436.84655L295.23747,435.4064L296.43762,435.4064L296.43762,434.20627L297.8778,434.20627
				L297.8778,432.76612L299.07795,432.76612L299.07795,431.56599L300.51814,431.56599L300.51814,430.12584L301.71829,430.12584L
				301.71829,428.92571L302.91844,428.92571L302.91844,427.72558L304.35862,427.72558L304.35862,426.28543L305.55878,426.28543L
				305.55878,425.0853L306.99896,425.0853L306.99896,423.64514L308.19911,423.64514L308.19911,422.44502L309.63929,422.44502L309.63929,421.00486
				L310.83945,421.00486L310.83945,380.68057L312.27963,380.68057L312.27963,376.60013L314.67993,376.60013L314.67993,378.04028
				L317.32027,378.04028L317.32027,376.60013L318.76045,376.60013L318.76045,373.95985L319.9606,373.95985L319.9606,372.75972L321.40079,372.75972
				L321.40079,371.31957L322.60094,371.31957L322.60094,370.11944L324.04112,370.11944L324.04112,367.47916L325.24127,367.47916
				L325.24127,366.27903L326.44143,366.27903L326.44143,364.83888L327.88161,364.83888L327.88161,363.63875L329.08176,363.63875
				L329.08176,362.1986L330.52194,362.1986L330.52194,359.55832L333.16228,359.55832L333.16228,360.99847L335.80261,360.99847L335.80261,362.1986
				L337.00277,362.1986L337.00277,360.99847L338.20292,360.99847L338.20292,359.55832L339.6431,359.55832L339.6431,358.35819L340.84325,358.35819
				L340.84325,357.15806L342.28344,357.15806L342.28344,355.71791L343.48359,355.71791L343.48359,354.51778L344.92377,354.51778
				L344.92377,353.07762L346.12392,353.07762L346.12392,351.8775L347.56411,351.8775L347.56411,350.43734L348.76426,350.43734L348.76426,347.79706
				L349.96441,347.79706L349.96441,346.59693L351.40459,346.59693L351.40459,345.39681L352.60475,345.39681L352.60475,343.95665
				L354.04493,343.95665L354.04493,342.75652L355.24508,342.75652L355.24508,341.31637L356.68526,341.31637L356.68526,340.11624
				L359.3256,340.11624L359.3256,338.67609L360.52575,338.67609L360.52575,337.47596L361.7259,337.47596L361.7259,336.03581L363.16609,336.03581
				L363.16609,334.83568L365.80642,334.83568L365.80642,333.63555L367.00657,333.63555L367.00657,332.1954L368.44676,332.1954L368.44676,330.99527
				L369.64691,330.99527L369.64691,329.55512L372.28724,329.55512L372.28724,328.35499L373.4874,328.35499L373.4874,326.91484L374.92758,326.91484
				L374.92758,325.71471L377.56791,325.71471L377.56791,324.51458L378.76807,324.51458L378.76807,323.07443L380.20825,323.07443
				L380.20825,321.8743L381.4084,321.8743L381.4084,320.43415L384.04874,320.43415L384.04874,319.23402L385.24889,319.23402L385.24889,317.79386
				L386.68907,317.79386L386.68907,316.59374L387.88922,316.59374L387.88922,315.15358L390.52956,315.15358L390.52956,313.95346
				L394.37005,313.95346L394.37005,312.75333L398.45057,312.75333L398.45057,311.31317L402.29105,311.31317L402.29105,310.11305
				L406.13154,310.11305L406.13154,308.67289L410.21206,308.67289L410.21206,307.47277L414.05254,307.47277L414.05254,306.03261
				L417.89303,306.03261L417.89303,304.83248L421.97355,304.83248L421.97355,303.39233L425.81404,303.39233L425.81404,302.1922L
				429.65452,302.1922L429.65452,300.99207L433.73504,300.99207L433.73504,299.55192L437.57553,299.55192L437.57553,298.35179L441.41602,298.35179
				L441.41602,296.91164L445.49654,296.91164L445.49654,295.71151L449.33702,295.71151L449.33702,294.27136L453.17751,294.27136
				L453.17751,293.07123L457.25803,293.07123L457.25803,291.63108L461.09852,291.63108L461.09852,290.43095L464.939,290.43095L464.939,289.23082
				L467.57934,289.23082L467.57934,287.79067L471.65986,287.79067L471.65986,286.59054L475.50034,286.59054L475.50034,285.15039
				L479.34083,285.15039L479.34083,283.95026L483.42135,283.95026L483.42135,282.51011L487.26184,282.51011L487.26184,281.30998
				L491.10232,281.30998L491.10232,279.86982L495.18284,279.86982L495.18284,278.6697L499.02333,278.6697L499.02333,277.46957L502.86382,277.46957
				L502.86382,276.02941L506.94433,276.02941L506.94433,274.82929L510.78482,274.82929L510.78482,273.38913L514.62531,273.38913
				L514.62531,272.18901L518.70583,272.18901L518.70583,270.74885L522.54631,270.74885L522.54631,269.54872L526.3868,269.54872L
				526.3868,268.10857L529.02714,268.10857L529.02714,266.90844L532.86762,266.90844L532.86762,265.70831L536.94814,265.70831L536.94814,264.26816
				L540.78863,264.26816L540.78863,263.06803L544.62912,263.06803L544.62912,261.62788L548.70963,261.62788L548.70963,260.42775
				L549.90979,260.42775L549.90979,263.06803L548.70963,263.06803L548.70963,266.90844L547.26945,266.90844L547.26945,270.74885
				L546.0693,270.74885L546.0693,273.38913L544.62912,273.38913L544.62912,276.02941L543.42896,276.02941L543.42896,278.6697L542.22881,278.6697
				L542.22881,281.30998L540.78863,281.30998L540.78863,294.27136L539.58848,294.27136L539.58848,310.11305L538.14829,310.11305
				L538.14829,313.95346L536.94814,313.95346L536.94814,317.79386L535.50796,317.79386L535.50796,321.8743L534.30781,321.8743L534.30781,325.71471
				L532.86762,325.71471L532.86762,329.55512L531.66747,329.55512L531.66747,333.63555L530.46732,333.63555L530.46732,337.47596
				L529.02714,337.47596L529.02714,341.31637L527.82698,341.31637L527.82698,343.95665L526.3868,343.95665L526.3868,346.59693L525.18665,346.59693
				L525.18665,350.43734L523.74647,350.43734L523.74647,354.51778L522.54631,354.51778L522.54631,357.15806L521.10613,357.15806
				L521.10613,360.99847L519.90598,360.99847L519.90598,368.91931L518.70583,368.91931L518.70583,379.24041L517.26564,379.24041
				L517.26564,387.16126L516.06549,387.16126L516.06549,394.84208L514.62531,394.84208L514.62531,401.56279L513.42516,401.56279
				L513.42516,410.68376L511.98497,410.68376L511.98497,417.16445L510.78482,417.16445L510.78482,422.44502L509.34464,422.44502
				L509.34464,434.20627L508.14449,434.20627L508.14449,440.68696L506.94433,440.68696L506.94433,532.13671L505.50415,532.13671
				L505.50415,543.89796L504.304,543.89796L504.304,549.17852L502.86382,549.17852L502.86382,554.45908L501.66366,554.45908L501.66366,558.29949
				L502.86382,558.29949L502.86382,560.93977L504.304,560.93977L504.304,563.58006L505.50415,563.58006L505.50415,566.22034L506.94433,566.22034
				L506.94433,568.62059L508.14449,568.62059L508.14449,571.26087L509.34464,571.26087L509.34464,573.90116L510.78482,573.90116
				L510.78482,576.54144L511.98497,576.54144L511.98497,577.98159L513.42516,577.98159L513.42516,580.38185L514.62531,580.38185
				L514.62531,583.02213L516.06549,583.02213L516.06549,590.94297L517.26564,590.94297L517.26564,594.78338L518.70583,594.78338
				L518.70583,600.06394L519.90598,600.06394L519.90598,602.70423L521.10613,602.70423L521.10613,606.54463L519.90598,606.54463
				L519.90598,607.98479L518.70583,607.98479L518.70583,611.8252L516.06549,611.8252L516.06549,610.62507L513.42516,610.62507L513.42516,609.18492
				L511.98497,609.18492L511.98497,607.98479L509.34464,607.98479L509.34464,606.54463L506.94433,606.54463L506.94433,605.34451
				L505.50415,605.34451L505.50415,603.90435L502.86382,603.90435L502.86382,602.70423L501.66366,602.70423L501.66366,601.26407
				L499.02333,601.26407L499.02333,600.06394L496.38299,600.06394L496.38299,598.86382L495.18284,598.86382L495.18284,597.42366
				L492.54251,597.42366L492.54251,596.22353L491.10232,596.22353L491.10232,594.78338L488.46199,594.78338L488.46199,593.58325
				L486.06168,593.58325L486.06168,592.1431L484.6215,592.1431L484.6215,590.94297L481.98117,590.94297L481.98117,589.50282L479.34083,589.50282
				L479.34083,588.30269L478.14068,588.30269L478.14068,587.10256L475.50034,587.10256L475.50034,585.66241L474.30019,585.66241
				L474.30019,584.46228L471.65986,584.46228L471.65986,583.02213L469.01952,583.02213L469.01952,581.822L467.57934,581.822L467.57934,580.38185
				L464.939,580.38185L464.939,579.18172L463.73885,579.18172L463.73885,577.98159L461.09852,577.98159L461.09852,576.54144L458.45818,576.54144
				L458.45818,575.34131L457.25803,575.34131L457.25803,573.90116L454.61769,573.90116L454.61769,572.70103L453.17751,572.70103
				L453.17751,571.26087L450.77721,571.26087L450.77721,570.06075L448.13687,570.06075L448.13687,568.62059L446.69669,568.62059
				L446.69669,567.42047L444.05635,567.42047L444.05635,566.22034L441.41602,566.22034L441.41602,564.78018L440.21587,564.78018
				L440.21587,563.58006L437.57553,563.58006L437.57553,562.1399L436.37538,562.1399L436.37538,560.93977L433.73504,560.93977L433.73504,559.49962
				L431.09471,559.49962L431.09471,558.29949L429.65452,558.29949L429.65452,556.85934L427.25422,556.85934L427.25422,555.65921
				L425.81404,555.65921L425.81404,554.45908L423.1737,554.45908L423.1737,553.01893L420.53337,553.01893L420.53337,551.8188L419.33322,551.8188
				L419.33322,550.37865L416.69288,550.37865L416.69288,549.17852L415.49273,549.17852L415.49273,547.73837L412.85239,547.73837
				L412.85239,546.53824L410.21206,546.53824L410.21206,545.09809L408.77187,545.09809L408.77187,543.89796L406.13154,543.89796
				L406.13154,542.69783L403.73124,542.69783L403.73124,541.25768L402.29105,541.25768L402.29105,540.05755L399.65072,540.05755
				L399.65072,538.6174L398.45057,538.6174L398.45057,537.41727L395.81023,537.41727L395.81023,535.97711L393.16989,535.97711L393.16989,534.77699
				L391.96974,534.77699L391.96974,533.33683L389.32941,533.33683L389.32941,532.13671L387.88922,532.13671L387.88922,530.93658
				L385.24889,530.93658L385.24889,529.49642L382.60855,529.49642L382.60855,528.2963L381.4084,528.2963L381.4084,526.85614L378.76807,526.85614
				L378.76807,525.65601L377.56791,525.65601L377.56791,524.21586L374.92758,524.21586L374.92758,523.01573L372.28724,523.01573
				L372.28724,521.57558L370.84706,521.57558L370.84706,520.37545L368.44676,520.37545L368.44676,519.17532L365.80642,519.17532
				L365.80642,517.73517L364.36624,517.73517L364.36624,516.53504L361.7259,516.53504L361.7259,515.09489L360.52575,515.09489L360.52575,513.89476
				L357.88542,513.89476L357.88542,512.45461L355.24508,512.45461L355.24508,511.25448L354.04493,511.25448L354.04493,509.81433
				L351.40459,509.81433L351.40459,508.6142L349.96441,508.6142L349.96441,507.41407L347.56411,507.41407L347.56411,505.97392L344.92377,505.97392
				L344.92377,504.77379L343.48359,504.77379L343.48359,503.33364L340.84325,503.33364L340.84325,502.13351L339.6431,502.13351L
				339.6431,500.69335L337.00277,500.69335L337.00277,499.49323L334.36243,499.49323L334.36243,498.05307L333.16228,498.05307L333.16228,496.85295
				L330.52194,496.85295L330.52194,495.65282L327.88161,495.65282L327.88161,494.21266L326.44143,494.21266L326.44143,493.01254
				L324.04112,493.01254L324.04112,491.57238L322.60094,491.57238L322.60094,490.37225L319.9606,490.37225L319.9606,488.9321L317.32027,488.9321
				L317.32027,487.73197L316.12012,487.73197L316.12012,486.29182L313.47978,486.29182L313.47978,485.09169L312.27963,485.09169
				L312.27963,483.89156L309.63929,483.89156L309.63929,482.45141L306.99896,482.45141L306.99896,481.25128L305.55878,481.25128
				L305.55878,479.81113L302.91844,479.81113L302.91844,478.611L300.51814,478.611L300.51814,477.17085L299.07795,477.17085L299.07795,475.97072
				L296.43762,475.97072L296.43762,474.53057L295.23747,474.53057L295.23747,473.33044L292.59713,473.33044L292.59713,472.13031
				L289.9568,472.13031L289.9568,470.69016L288.75664,470.69016L288.75664,469.49003L286.11631,469.49003L286.11631,468.04988L284.67613,468.04988
				L284.67613,465.40959L286.11631,465.40959L286.11631,458.9289L287.31646,458.9289L287.31646,457.72878L288.75664,457.72878L288.75664,441.88709
				"/>
			<path clip-path="url(#SVG_CP_2)" fill="none" stroke="#999999" stroke-width="0.96012" stroke-miterlimit="10" stroke-linecap="round" stroke-linejoin="round" d="
				M312.27963,376.60013L310.83945,376.60013L310.83945,380.68057L309.63929,380.68057L309.63929,381.88069L308.19911,381.88069
				L308.19911,383.08082L306.99896,383.08082L306.99896,384.52098L305.55878,384.52098L305.55878,385.7211L304.35862,385.7211L304.35862,387.16126
				L302.91844,387.16126L302.91844,388.36138L301.71829,388.36138L301.71829,389.80154L300.51814,389.80154L300.51814,391.00167
				L299.07795,391.00167L299.07795,392.44182L297.8778,392.44182L297.8778,393.64195L296.43762,393.64195L296.43762,394.84208L295.23747,394.84208
				L295.23747,396.28223L293.79728,396.28223L293.79728,397.48236L292.59713,397.48236L292.59713,398.92251L291.15695,398.92251
				L291.15695,400.12264L289.9568,400.12264L289.9568,401.56279L288.75664,401.56279L288.75664,441.88709L287.31646,441.88709L287.31646,443.32724
				L286.11631,443.32724L286.11631,444.52737L284.67613,444.52737L284.67613,462.76931L283.47597,462.76931L283.47597,466.84975
				L278.1953,466.84975L278.1953,468.04988L274.35482,468.04988L274.35482,469.49003L270.2743,469.49003L270.2743,470.69016L269.07415,470.69016
				L269.07415,472.13031L267.63396,472.13031L267.63396,474.53057L266.43381,474.53057L266.43381,477.17085L265.23366,477.17085
				L265.23366,479.81113L263.79348,479.81113L263.79348,482.45141L262.59332,482.45141L262.59332,485.09169L261.15314,485.09169
				L261.15314,487.73197L259.95299,487.73197L259.95299,488.9321L258.51281,488.9321L258.51281,491.57238L257.31265,491.57238L257.31265,494.21266
				L255.87247,494.21266L255.87247,496.85295L254.67232,496.85295L254.67232,499.49323L253.47217,499.49323L253.47217,502.13351
				L252.03198,502.13351L252.03198,504.77379L250.83183,504.77379L250.83183,507.41407L249.39165,507.41407L249.39165,509.81433
				L248.1915,509.81433L248.1915,512.45461L246.75131,512.45461L246.75131,513.89476L245.55116,513.89476L245.55116,516.53504L244.11098,516.53504
				L244.11098,519.17532L242.91083,519.17532L242.91083,521.57558L241.71067,521.57558L241.71067,524.21586L240.27049,524.21586
				L240.27049,526.85614L239.07034,526.85614L239.07034,529.49642L237.63016,529.49642L237.63016,532.13671L236.43,532.13671L236.43,534.77699
				L234.98982,534.77699L234.98982,537.41727L233.78967,537.41727L233.78967,538.6174L232.34949,538.6174L232.34949,542.69783L231.14933,542.69783
				L231.14933,545.09809L229.94918,545.09809L229.94918,547.73837L228.509,547.73837L228.509,550.37865L227.30885,550.37865L227.30885,553.01893
				L225.86866,553.01893L225.86866,555.65921L224.66851,555.65921L224.66851,558.29949L223.22833,558.29949L223.22833,560.93977
				L222.02818,560.93977L222.02818,563.58006L220.82802,563.58006L220.82802,566.22034L219.38784,566.22034L219.38784,568.62059
				L218.18769,568.62059L218.18769,571.26087L216.74751,571.26087L216.74751,573.90116L215.54735,573.90116L215.54735,576.54144
				L214.10717,576.54144L214.10717,579.18172L212.90702,579.18172L212.90702,581.822L211.46684,581.822L211.46684,584.46228L210.26668,584.46228
				L210.26668,587.10256L209.06653,587.10256L209.06653,589.50282L207.62635,589.50282L207.62635,592.1431L206.4262,592.1431L206.4262,594.78338
				L204.98601,594.78338L204.98601,597.42366L203.78586,597.42366L203.78586,600.06394L202.34568,600.06394L202.34568,603.90435
				L201.14553,603.90435L201.14553,606.54463L199.70534,606.54463L199.70534,609.18492L198.50519,609.18492L198.50519,611.8252L
				197.30504,611.8252L197.30504,614.46548L195.86486,614.46548L195.86486,617.10576L194.6647,617.10576L194.6647,619.74604L193.22452,619.74604
				L193.22452,622.38632L192.02437,622.38632L192.02437,624.78658L190.58419,624.78658L190.58419,627.42686L189.38403,627.42686
				L189.38403,630.06714L187.94385,630.06714L187.94385,632.70742L186.7437,632.70742L186.7437,635.3477L185.54355,635.3477L185.54355,637.98799
				L184.10336,637.98799L184.10336,640.62827L182.90321,640.62827L182.90321,643.26855L181.46303,643.26855L181.46303,645.90883
				L180.26288,645.90883L180.26288,648.30908L178.82269,648.30908L178.82269,650.94937L177.62254,650.94937L177.62254,653.58965
				L176.18236,653.58965L176.18236,643.26855L177.62254,643.26855L177.62254,628.86701L178.82269,628.86701L178.82269,577.98159
				L177.62254,577.98159L177.62254,573.90116L176.18236,573.90116L176.18236,186.01982L177.62254,186.01982L177.62254,181.93939
				L178.82269,181.93939L178.82269,176.65883L180.26288,176.65883L180.26288,172.81842L181.46303,172.81842L181.46303,170.17813
				L182.90321,170.17813L182.90321,166.33773L184.10336,166.33773L184.10336,162.49732L185.54355,162.49732L185.54355,158.41688
				L186.7437,158.41688L186.7437,154.57647L187.94385,154.57647L187.94385,151.93619L189.38403,151.93619L189.38403,166.33773L190.58419,166.33773
				L190.58419,174.25857L192.02437,174.25857L192.02437,180.73926L193.22452,180.73926L193.22452,188.42008L194.6647,188.42008L
				194.6647,196.34092L195.86486,196.34092L195.86486,202.82161L197.30504,202.82161L197.30504,210.74246L198.50519,210.74246L198.50519,218.6633
				L199.70534,218.6633L199.70534,227.78427L201.14553,227.78427L201.14553,236.90525L202.34568,236.90525L202.34568,247.22635L
				203.78586,247.22635L203.78586,256.34732L204.98601,256.34732L204.98601,265.70831L206.4262,265.70831L206.4262,274.82929L207.62635,274.82929
				L207.62635,283.95026L209.06653,283.95026L209.06653,291.63108L210.26668,291.63108L210.26668,293.07123L211.46684,293.07123
				L211.46684,294.27136L212.90702,294.27136L212.90702,295.71151L215.54735,295.71151L215.54735,296.91164L216.74751,296.91164
				L216.74751,298.35179L218.18769,298.35179L218.18769,299.55192L219.38784,299.55192L219.38784,300.99207L220.82802,300.99207
				L220.82802,302.1922L222.02818,302.1922L222.02818,303.39233L223.22833,303.39233L223.22833,304.83248L225.86866,304.83248L225.86866,306.03261
				L227.30885,306.03261L227.30885,307.47277L228.509,307.47277L228.509,308.67289L229.94918,308.67289L229.94918,310.11305L231.14933,310.11305
				L231.14933,311.31317L232.34949,311.31317L232.34949,312.75333L233.78967,312.75333L233.78967,313.95346L234.98982,313.95346
				L234.98982,315.15358L237.63016,315.15358L237.63016,316.59374L239.07034,316.59374L239.07034,317.79386L240.27049,317.79386
				L240.27049,319.23402L241.71067,319.23402L241.71067,320.43415L242.91083,320.43415L242.91083,321.8743L244.11098,321.8743L244.11098,323.07443
				L245.55116,323.07443L245.55116,324.51458L248.1915,324.51458L248.1915,325.71471L249.39165,325.71471L249.39165,326.91484L250.83183,326.91484
				L250.83183,328.35499L252.03198,328.35499L252.03198,329.55512L253.47217,329.55512L253.47217,330.99527L254.67232,330.99527
				L254.67232,332.1954L255.87247,332.1954L255.87247,333.63555L257.31265,333.63555L257.31265,334.83568L259.95299,334.83568L259.95299,336.03581
				L261.15314,336.03581L261.15314,337.47596L262.59332,337.47596L262.59332,338.67609L263.79348,338.67609L263.79348,340.11624
				L265.23366,340.11624L265.23366,341.31637L266.43381,341.31637L266.43381,342.75652L267.63396,342.75652L267.63396,343.95665
				L270.2743,343.95665L270.2743,345.39681L271.71448,345.39681L271.71448,346.59693L272.91463,346.59693L272.91463,347.79706L274.35482,347.79706
				L274.35482,349.23722L275.55497,349.23722L275.55497,350.43734L276.99515,350.43734L276.99515,351.8775L278.1953,351.8775L278.1953,353.07762
				L279.39546,353.07762L279.39546,354.51778L282.03579,354.51778L282.03579,355.71791L283.47597,355.71791L283.47597,357.15806
				L284.67613,357.15806L284.67613,358.35819L286.11631,358.35819L286.11631,359.55832L287.31646,359.55832L287.31646,360.99847
				L288.75664,360.99847L288.75664,362.1986L291.15695,362.1986L291.15695,363.63875L293.79728,363.63875L293.79728,364.83888L295.23747,364.83888
				L295.23747,366.27903L297.8778,366.27903L297.8778,367.47916L300.51814,367.47916L300.51814,368.91931L301.71829,368.91931L301.71829,370.11944
				L304.35862,370.11944L304.35862,371.31957L306.99896,371.31957L306.99896,372.75972L308.19911,372.75972L308.19911,373.95985
				L310.83945,373.95985L310.83945,375.4L312.27963,375.4L312.27963,376.60013"/>
			<path clip-path="url(#SVG_CP_2)" fill="none" stroke="#999999" stroke-width="0.96012" stroke-miterlimit="10" stroke-linecap="round" stroke-linejoin="round" d="
				M177.62254,657.67008L176.18236,657.67008L176.18236,656.22993L177.62254,656.22993L177.62254,657.67008"/>
		</g>
</g></svg>