<?xml version="1.0" encoding="utf-8" standalone="no"?>
<!-- Creator: ESRI ArcMap 10.0.0.2414 -->
<!DOCTYPE svg PUBLIC "-//W3C//DTD SVG 1.1//EN"  "http://www.w3.org/Graphics/SVG/1.1/DTD/svg11.dtd">
<svg width="595.50236pt" height="595.50236pt" viewBox="25 148.377955 545.50236 545.50236" enable-background="new 25 148.377955 545.50236 545.50236"
	version="1.1" xmlns="http://www.w3.org/2000/svg" xmlns:xlink="http://www.w3.org/1999/xlink" >
	<g id="Couches">
		<g id="reservoirs">
			<clipPath id="SVG_CP_2">
				<path d="M574.39289,21.36228L21.36271,21.36228L21.36271,821.36753L574.39289,821.36753L574.39289,21.36228z"/>
			</clipPath>
			<path clip-path="url(#SVG_CP_2)" fill-opacity="0.08" fill="#2f4493" fill-rule="evenodd" stroke="#2f4493" stroke-width="1" stra="1.44018" stroke-miterlimit="10" stroke-linecap="round" stroke-linejoin="round" d="
				M207.62635,394.36202L206.66623,396.28223L206.4262,396.28223L205.70611,396.52225L204.26592,395.56215L203.06577,397.00231L
				203.78586,397.48236L204.98601,398.44246L203.78586,400.12264L203.3058,400.84271L202.58571,404.92315L201.38556,405.88325L199.22528,407.56343
				L196.10489,408.04348L194.18464,407.32341L192.2644,409.00358L194.18464,410.92379L191.54431,415.24425L188.66394,414.52417L
				187.46379,415.00422L186.02361,414.04412L185.78358,414.04412L183.38327,415.48427L180.98297,416.92443L180.74294,418.36458L
				181.46303,419.08466L181.223,419.32468L175.22224,423.64514L172.5819,425.56535L173.54202,426.52545L173.54202,426.76548L173.78205,427.48555
				L172.82193,427.9656L169.70154,430.12584L170.1816,431.08594L171.62178,433.00614L173.30199,434.68632L172.82193,434.92635L172.82193,435.16637
				L172.10184,435.16637L171.86181,435.4064L171.62178,435.4064L167.78129,436.60653L163.22071,438.2867L162.02056,438.52673L162.50062,441.64706
				L162.98068,442.36714L162.74065,443.32724L162.26059,444.28734L160.82041,445.48747L159.38023,445.7275L156.73989,448.36778L
				151.45922,451.00806L150.4991,451.24809L147.3787,448.84783L144.9784,450.52801L144.01828,451.24809L144.25831,453.88837L140.17779,458.20883
				L141.858,459.16893L141.858,460.12903L141.858,460.36906L141.858,461.32916L141.61797,462.28926L143.77825,464.20947L141.61797,467.08977
				L139.93776,466.12967L138.97764,467.08977L138.73761,467.3298L138.49758,467.56983L138.25755,468.04988L136.57733,468.76995L
				137.05739,468.2899L136.57733,468.52993L135.61721,468.76995L129.85648,471.41023L129.37642,471.41023L129.85648,471.41023L128.89636,471.89029
				L133.937,477.41087L132.25678,480.53121L132.49681,480.77123L130.8166,483.41151L129.37642,486.05179L129.37642,486.29182L129.13639,486.29182
				L129.13639,486.77187L128.89636,487.25192L128.65633,487.49195L128.4163,487.73197L127.21614,486.77187L122.1755,483.89156L122.65557,483.17149
				L113.05435,478.611L100.57276,474.05052L89.29133,466.60972L87.85115,465.64962L87.61112,465.40959L85.21081,464.44949L80.65024,461.56919
				L76.80975,458.44885L75.36957,457.24873L75.36957,457.0087L76.56972,454.36842L77.04978,451.96816L76.56972,448.84783L75.6096,442.12711
				L74.16941,434.92635L73.20929,429.16573L73.20929,425.80537L74.16941,423.40512L75.36957,421.96497L77.28981,419.80474L82.09042,416.20435
				L86.17094,413.08402L89.53136,409.96369L92.65176,406.84335L96.01218,402.28287L99.13258,397.00231L101.05282,392.68185L103.93319,388.60141
				L106.81356,385.48108L110.89407,382.36075L116.41477,379.24041L121.93547,376.36011L127.21614,374.67993L131.29666,373.4798L
				137.29742,372.75972L143.53822,372.03965L146.89864,371.07954L151.93928,370.11944L158.4201,368.91931L170.42163,366.75908L175.22224,365.79898
				L181.223,364.83888L184.10336,364.35883L186.98373,364.35883L188.90397,364.59885L191.78434,365.55895L196.10489,367.47916L199.22528,369.63939
				L204.50595,373.23977L210.98678,376.36011L214.82726,377.80026L214.10717,379.24041L214.3472,379.48044L212.66699,383.08082L
				210.50671,387.88133L207.62635,394.36202z"/>
			<path clip-path="url(#SVG_CP_2)" fill-opacity="0.08" fill="#2f4493" fill-rule="evenodd" stroke="#2f4493" stroke-width="1" stra="1.44018" stroke-miterlimit="10" stroke-linecap="round" stroke-linejoin="round" d="
				M601.9964,756.80065L566.23186,750.55998L531.9075,744.07929L499.26336,739.03875L473.10004,734.47827L458.45818,732.07801L420.7734,725.59732
				L403.73124,722.71701L391.72971,720.55678L392.4498,714.55614L392.68983,705.43517L393.40993,701.59476L391.48968,700.87469L
				391.72971,696.79425L389.08938,696.79425L386.9291,697.03428L386.20901,696.79425L385.96898,696.79425L385.48892,695.83415L385.48892,695.59412
				L385.48892,691.99374L383.56868,691.75371L381.4084,691.51369L377.80795,691.75371L377.56791,695.83415L369.16685,693.91394L
				368.68679,691.75371L368.68679,683.59284L369.40688,677.59221L372.28724,677.59221L372.28724,675.672L371.32712,667.03108L370.84706,664.63082
				L370.60703,662.71062L367.00657,662.95065L367.48664,665.59093L368.44676,667.51113L369.16685,675.19195L364.60627,675.672L363.16609,676.15205
				L353.8049,677.83223L352.12469,670.63146L347.80414,671.59157L347.32408,668.95128L342.52347,670.15141L341.08328,666.79105L
				340.12316,667.03108L337.96289,667.75116L337.2428,666.311L339.40307,665.59093L340.36319,665.3509L338.20292,662.23057L336.04265,663.19067
				L335.80261,662.23057L334.36243,658.15013L333.40231,654.78978L332.44219,650.70934L332.20216,649.98926L331.7221,643.02852L
				331.48207,637.98799L331.24204,636.06778L329.80185,632.22737L328.6017,630.30717L326.68146,625.26663L325.96137,623.34642L325.72134,621.42622
				L325.72134,618.54591L326.2014,616.38568L326.92149,614.46548L327.88161,613.02533L329.08176,611.58517L330.52194,610.38504L
				332.44219,608.70486L333.88237,607.50474L335.32255,606.30461L336.76274,604.86446L337.96289,603.90435L338.92301,602.4642L339.88313,601.26407
				L340.84325,599.34387L341.32332,597.66369L344.20368,585.90243L347.32408,573.4211L350.6845,561.65985L353.32484,551.33875L356.44523,537.89732
				L358.12545,530.69655L358.12545,530.45653L359.56563,525.17596L360.52575,523.01573L362.446,520.13543L363.88618,518.69527L365.80642,517.01509
				L367.48664,515.57494L368.44676,514.61484L369.64691,513.65474L370.60703,512.69463L371.80718,510.77443L374.68755,505.49387
				L375.8877,499.2532L379.96822,500.2133L381.64843,497.81305L382.12849,494.69272L383.08862,494.69272L383.56868,500.45333L384.04874,501.17341
				L384.5288,502.37353L384.76883,503.57366L385.00886,505.25384L385.24889,507.6541L385.24889,508.6142L391.24965,507.6541L393.40993,507.17405
				L391.72971,503.81369L390.0495,500.2133L387.16913,492.77251L385.24889,487.49195L384.28877,485.09169L383.56868,484.13159L382.36852,483.41151
				L382.36852,482.45141L383.08862,481.73133L383.80871,481.01126L384.76883,479.5711L381.16837,475.97072L384.04874,473.09041L
				384.28877,471.41023L383.08862,467.80985L381.64843,464.20947L383.08862,463.96944L387.64919,463.24936L390.52956,464.44949L
				389.56944,458.68888L394.61008,460.12903L397.73047,452.92826L399.17066,450.04796L399.65072,447.16765L400.37081,442.84719L
				400.61084,440.20691L401.0909,437.56663L401.33093,433.96624L401.81099,428.44566L412.1323,433.24617L409.49197,439.48683L406.37157,446.44757
				L405.41145,446.44757L404.93139,448.12775L403.97127,450.52801L404.2113,454.12839L405.89151,458.20883L407.33169,461.08913L
				409.25194,468.52993L411.41221,469.73006L419.33322,473.33044L426.53413,476.6908L429.89456,478.13095L436.61541,480.77123L446.45666,475.97072
				L454.61769,470.69016L458.93824,468.04988L467.09928,461.08913L474.30019,461.56919L483.90141,460.60908L484.6215,464.92954L
				487.98193,470.69016L487.98193,479.5711L490.1422,487.25192L504.06397,487.73197L507.90446,487.972L511.50491,488.21202L517.98573,488.45205
				L525.42668,482.69144L525.66671,481.73133L526.14677,477.41087L526.62683,475.01062L514.86534,464.68952L504.54403,451.00806
				L497.58315,438.2867L493.98269,431.32596L495.6629,421.00486L495.90293,419.08466L496.14296,407.56343L498.54327,401.32277L499.50339,398.68248
				L500.46351,396.28223L503.82394,387.88133L516.54555,377.32021L520.38604,376.12008L528.78711,376.12008L535.26793,376.84016
				L542.9489,377.80026L564.79167,380.68057L581.35378,382.60077L582.3139,394.36202L582.3139,396.76228L582.79396,406.12328L589.99487,405.88325
				L596.23566,406.12328L601.9964,405.4032L601.9964,756.80065z"/>
		</g>
</g></svg>