<?xml version="1.0" encoding="utf-8" standalone="no"?>
<!-- Creator: ESRI ArcMap 10.0.0.2414 -->
<!DOCTYPE svg PUBLIC "-//W3C//DTD SVG 1.1//EN"  "http://www.w3.org/Graphics/SVG/1.1/DTD/svg11.dtd">
<svg width="595.50236pt" height="595.50236pt" viewBox="25 148.377955 545.50236 545.50236" enable-background="new 25 148.377955 545.50236 545.50236"
	version="1.1" xmlns="http://www.w3.org/2000/svg" xmlns:xlink="http://www.w3.org/1999/xlink" >
	<g id="Couches">
		<g id="cont_1">
			<clipPath id="SVG_CP_2">
				<path d="M574.39289,21.36228L21.36271,21.36228L21.36271,821.36753L574.39289,821.36753L574.39289,21.36228z"/>
			</clipPath>
			<path clip-path="url(#SVG_CP_2)" fill="none" stroke="#999999" stroke-width="0.96012" stroke-miterlimit="10" stroke-linecap="round" stroke-linejoin="round" d="
				M341.56335,352.59757L341.56335,330.27519L363.88618,330.27519L363.88618,307.71279L386.44904,307.71279L386.44904,285.39041
				L408.77187,285.39041L408.77187,262.82801L453.65757,262.82801L453.65757,240.50563L476.22043,240.50563L476.22043,218.18325
				L520.8661,218.18325L520.8661,195.62085L543.42896,195.62085L543.42896,173.29847L588.31466,173.29847L588.31466,150.73606L601.9964,150.73606
				M601.9964,285.39041L565.7518,285.39041L565.7518,307.71279L543.42896,307.71279L543.42896,330.27519L498.54327,330.27519L498.54327,352.59757
				L476.22043,352.59757L476.22043,375.15998L431.33474,375.15998L431.33474,397.48236L408.77187,397.48236L408.77187,419.80474
				L386.44904,419.80474L386.44904,375.15998L363.88618,375.15998L363.88618,352.59757L341.56335,352.59757"/>
			<path clip-path="url(#SVG_CP_2)" fill="none" stroke="#999999" stroke-width="0.96012" stroke-miterlimit="10" stroke-linecap="round" stroke-linejoin="round" d="
				M341.56335,352.59757L341.56335,419.80474L363.88618,419.80474L363.88618,442.36714L341.56335,442.36714L341.56335,464.68952
				L296.67765,464.68952L296.67765,487.25192L274.35482,487.25192L274.35482,509.5743L251.79195,509.5743L251.79195,532.13671L207.14629,532.13671
				L207.14629,554.45908L184.58342,554.45908L184.58342,576.78146L162.26059,576.78146L162.26059,599.34387L117.3749,599.34387L
				117.3749,621.66625L94.81203,621.66625L94.81203,644.22865L72.4892,644.22865L72.4892,666.55103L27.6035,666.55103L27.6035,688.87341
				L5.28067,688.87341L5.28067,711.43581L-6.24079,711.43581M-6.24079,576.78146L5.28067,576.78146L5.28067,554.45908L50.16637,554.45908
				L50.16637,532.13671L72.4892,532.13671L72.4892,509.5743L94.81203,509.5743L94.81203,487.25192L139.69773,487.25192L139.69773,464.68952
				L162.26059,464.68952L162.26059,442.36714L207.14629,442.36714L207.14629,419.80474L229.46912,419.80474L229.46912,397.48236
				L251.79195,397.48236L251.79195,375.15998L296.67765,375.15998L296.67765,352.59757L341.56335,352.59757"/>
		</g>
</g></svg>