<?xml version="1.0" encoding="utf-8" standalone="no"?>
<!-- Creator: ESRI ArcMap 10.0.0.2414 -->
<!DOCTYPE svg PUBLIC "-//W3C//DTD SVG 1.1//EN"  "http://www.w3.org/Graphics/SVG/1.1/DTD/svg11.dtd">
<svg width="595.50236pt" height="595.50236pt" viewBox="25 148.377955 545.50236 545.50236" enable-background="new 25 148.377955 545.50236 545.50236"
	version="1.1" xmlns="http://www.w3.org/2000/svg" xmlns:xlink="http://www.w3.org/1999/xlink" >
	<g id="Couches">
		<g id="cont_2">
			<path clip-path="url(#SVG_CP_2)" fill="none" stroke="#999999" stroke-width="0.96012" stroke-miterlimit="10" stroke-linecap="round" stroke-linejoin="round" d="
				M307.23899,293.79131L304.83869,293.79131L304.83869,293.55128L307.23899,293.55128L307.23899,293.79131"/>
			<path clip-path="url(#SVG_CP_2)" fill="none" stroke="#999999" stroke-width="0.96012" stroke-miterlimit="10" stroke-linecap="round" stroke-linejoin="round" d="
				M300.03808,298.59182L300.03808,298.35179L300.27811,298.35179L300.27811,298.59182L300.03808,298.59182"/>
			<path clip-path="url(#SVG_CP_2)" fill="none" stroke="#999999" stroke-width="0.96012" stroke-miterlimit="10" stroke-linecap="round" stroke-linejoin="round" d="
				M299.79805,298.83184L299.79805,298.59182L300.03808,298.59182L300.03808,298.83184L299.79805,298.83184"/>
			<path clip-path="url(#SVG_CP_2)" fill="none" stroke="#999999" stroke-width="0.96012" stroke-miterlimit="10" stroke-linecap="round" stroke-linejoin="round" d="
				M299.55802,299.07187L299.55802,298.83184L299.79805,298.83184L299.79805,299.07187L299.55802,299.07187"/>
			<path clip-path="url(#SVG_CP_2)" fill="none" stroke="#999999" stroke-width="0.96012" stroke-miterlimit="10" stroke-linecap="round" stroke-linejoin="round" d="
				M299.31798,299.3119L299.31798,299.07187L299.55802,299.07187L299.55802,299.3119L299.31798,299.3119"/>
			<path clip-path="url(#SVG_CP_2)" fill="none" stroke="#999999" stroke-width="0.96012" stroke-miterlimit="10" stroke-linecap="round" stroke-linejoin="round" d="
				M299.07795,299.55192L299.07795,299.3119L299.31798,299.3119L299.31798,299.55192L299.07795,299.55192"/>
			<path clip-path="url(#SVG_CP_2)" fill="none" stroke="#999999" stroke-width="0.96012" stroke-miterlimit="10" stroke-linecap="round" stroke-linejoin="round" d="
				M298.83792,299.79195L298.83792,299.55192L299.07795,299.55192L299.07795,299.79195L298.83792,299.79195"/>
			<path clip-path="url(#SVG_CP_2)" fill="none" stroke="#999999" stroke-width="0.96012" stroke-miterlimit="10" stroke-linecap="round" stroke-linejoin="round" d="
				M298.59789,300.03197L298.59789,299.79195L298.83792,299.79195L298.83792,300.03197L298.59789,300.03197"/>
			<path clip-path="url(#SVG_CP_2)" fill="none" stroke="#999999" stroke-width="0.96012" stroke-miterlimit="10" stroke-linecap="round" stroke-linejoin="round" d="
				M298.35786,300.272L298.35786,300.03197L298.59789,300.03197L298.59789,300.272L298.35786,300.272"/>
			<path clip-path="url(#SVG_CP_2)" fill="none" stroke="#999999" stroke-width="0.96012" stroke-miterlimit="10" stroke-linecap="round" stroke-linejoin="round" d="
				M298.11783,300.51202L298.11783,300.272L298.35786,300.272L298.35786,300.51202L298.11783,300.51202"/>
			<path clip-path="url(#SVG_CP_2)" fill="none" stroke="#999999" stroke-width="0.96012" stroke-miterlimit="10" stroke-linecap="round" stroke-linejoin="round" d="
				M297.8778,300.75205L297.8778,300.51202L298.11783,300.51202L298.11783,300.75205L297.8778,300.75205"/>
			<path clip-path="url(#SVG_CP_2)" fill="none" stroke="#999999" stroke-width="0.96012" stroke-miterlimit="10" stroke-linecap="round" stroke-linejoin="round" d="
				M297.63777,300.99207L297.63777,300.75205L297.8778,300.75205L297.8778,300.99207L297.63777,300.99207"/>
			<path clip-path="url(#SVG_CP_2)" fill="none" stroke="#999999" stroke-width="0.96012" stroke-miterlimit="10" stroke-linecap="round" stroke-linejoin="round" d="
				M297.39774,301.2321L297.39774,300.99207L297.63777,300.99207L297.63777,301.2321L297.39774,301.2321"/>
			<path clip-path="url(#SVG_CP_2)" fill="none" stroke="#999999" stroke-width="0.96012" stroke-miterlimit="10" stroke-linecap="round" stroke-linejoin="round" d="
				M297.15771,301.47213L297.15771,301.2321L297.39774,301.2321L297.39774,301.47213L297.15771,301.47213"/>
			<path clip-path="url(#SVG_CP_2)" fill="none" stroke="#999999" stroke-width="0.96012" stroke-miterlimit="10" stroke-linecap="round" stroke-linejoin="round" d="
				M296.91768,301.71215L296.91768,301.47213L297.15771,301.47213L297.15771,301.71215L296.91768,301.71215"/>
			<path clip-path="url(#SVG_CP_2)" fill="none" stroke="#999999" stroke-width="0.96012" stroke-miterlimit="10" stroke-linecap="round" stroke-linejoin="round" d="
				M296.67765,301.95218L296.67765,301.71215L296.91768,301.71215L296.91768,301.95218L296.67765,301.95218"/>
			<path clip-path="url(#SVG_CP_2)" fill="none" stroke="#999999" stroke-width="0.96012" stroke-miterlimit="10" stroke-linecap="round" stroke-linejoin="round" d="
				M296.43762,302.1922L296.43762,301.95218L296.67765,301.95218L296.67765,302.1922L296.43762,302.1922"/>
			<path clip-path="url(#SVG_CP_2)" fill="none" stroke="#999999" stroke-width="0.96012" stroke-miterlimit="10" stroke-linecap="round" stroke-linejoin="round" d="
				M296.19759,302.43223L296.19759,302.1922L296.43762,302.1922L296.43762,302.43223L296.19759,302.43223"/>
			<path clip-path="url(#SVG_CP_2)" fill="none" stroke="#999999" stroke-width="0.96012" stroke-miterlimit="10" stroke-linecap="round" stroke-linejoin="round" d="
				M296.19759,302.43223L296.19759,302.67225L295.95756,302.67225L295.95756,302.43223L296.19759,302.43223"/>
			<path clip-path="url(#SVG_CP_2)" fill="none" stroke="#999999" stroke-width="0.96012" stroke-miterlimit="10" stroke-linecap="round" stroke-linejoin="round" d="
				M278.67537,303.39233L278.43533,303.39233L278.43533,303.1523L278.67537,303.1523L278.67537,303.39233"/>
			<path clip-path="url(#SVG_CP_2)" fill="none" stroke="#999999" stroke-width="0.96012" stroke-miterlimit="10" stroke-linecap="round" stroke-linejoin="round" d="
				M280.35558,303.63236L279.87552,303.63236L279.87552,303.39233L280.35558,303.39233L280.35558,303.63236"/>
			<path clip-path="url(#SVG_CP_2)" fill="none" stroke="#999999" stroke-width="0.96012" stroke-miterlimit="10" stroke-linecap="round" stroke-linejoin="round" d="
				M281.3157,303.87238L281.07567,303.87238L281.07567,303.63236L281.3157,303.63236L281.3157,303.87238"/>
			<path clip-path="url(#SVG_CP_2)" fill="none" stroke="#999999" stroke-width="0.96012" stroke-miterlimit="10" stroke-linecap="round" stroke-linejoin="round" d="
				M275.795,304.59246L275.795,304.11241L276.03503,304.11241L276.03503,303.87238L276.27506,303.87238L276.27506,303.63236L276.51509,303.63236
				L276.51509,303.1523L276.75512,303.1523L276.75512,302.91228L277.23518,302.91228L277.23518,303.39233L276.99515,303.39233L276.99515,303.63236
				L276.75512,303.63236L276.75512,303.87238L276.51509,303.87238L276.51509,304.11241L276.27506,304.11241L276.27506,304.35243
				L276.03503,304.35243L276.03503,304.59246L275.795,304.59246"/>
			<path clip-path="url(#SVG_CP_2)" fill="none" stroke="#999999" stroke-width="0.96012" stroke-miterlimit="10" stroke-linecap="round" stroke-linejoin="round" d="
				M275.55497,304.83248L275.55497,304.59246L275.795,304.59246L275.795,304.83248L275.55497,304.83248"/>
			<path clip-path="url(#SVG_CP_2)" fill="none" stroke="#999999" stroke-width="0.96012" stroke-miterlimit="10" stroke-linecap="round" stroke-linejoin="round" d="
				M275.31494,305.07251L275.31494,304.83248L275.55497,304.83248L275.55497,305.07251L275.31494,305.07251"/>
			<path clip-path="url(#SVG_CP_2)" fill="none" stroke="#999999" stroke-width="0.96012" stroke-miterlimit="10" stroke-linecap="round" stroke-linejoin="round" d="
				M275.07491,305.31253L275.07491,305.07251L275.31494,305.07251L275.31494,305.31253L275.07491,305.31253"/>
			<path clip-path="url(#SVG_CP_2)" fill="none" stroke="#999999" stroke-width="0.96012" stroke-miterlimit="10" stroke-linecap="round" stroke-linejoin="round" d="
				M284.67613,305.31253L284.4361,305.31253L284.4361,305.07251L284.67613,305.07251L284.67613,305.31253"/>
			<path clip-path="url(#SVG_CP_2)" fill="none" stroke="#999999" stroke-width="0.96012" stroke-miterlimit="10" stroke-linecap="round" stroke-linejoin="round" d="
				M275.07491,305.31253L275.07491,305.55256L274.83488,305.55256L274.83488,305.31253L275.07491,305.31253"/>
			<path clip-path="url(#SVG_CP_2)" fill="none" stroke="#999999" stroke-width="0.96012" stroke-miterlimit="10" stroke-linecap="round" stroke-linejoin="round" d="
				M284.67613,305.31253L285.15619,305.31253L285.15619,305.55256L285.63625,305.55256L285.63625,305.79259L285.87628,305.79259
				L285.87628,306.03261L285.39622,306.03261L285.39622,306.27264L285.15619,306.27264L285.15619,306.03261L284.91616,306.03261
				L284.91616,305.79259L284.67613,305.79259L284.67613,305.31253"/>
			<path clip-path="url(#SVG_CP_2)" fill="none" stroke="#999999" stroke-width="0.96012" stroke-miterlimit="10" stroke-linecap="round" stroke-linejoin="round" d="
				M288.75664,307.23274L288.51661,307.23274L288.51661,306.99271L288.75664,306.99271L288.75664,307.23274"/>
			<path clip-path="url(#SVG_CP_2)" fill="none" stroke="#999999" stroke-width="0.96012" stroke-miterlimit="10" stroke-linecap="round" stroke-linejoin="round" d="
				M291.39698,307.47277L290.67689,307.47277L290.67689,307.23274L291.39698,307.23274L291.39698,307.47277"/>
			<path clip-path="url(#SVG_CP_2)" fill="none" stroke="#999999" stroke-width="0.96012" stroke-miterlimit="10" stroke-linecap="round" stroke-linejoin="round" d="
				M272.6746,307.95282L272.6746,307.71279L272.91463,307.71279L272.91463,307.95282L272.6746,307.95282"/>
			<path clip-path="url(#SVG_CP_2)" fill="none" stroke="#999999" stroke-width="0.96012" stroke-miterlimit="10" stroke-linecap="round" stroke-linejoin="round" d="
				M272.6746,307.95282L272.6746,308.19284L272.43457,308.19284L272.43457,307.95282L272.6746,307.95282"/>
			<path clip-path="url(#SVG_CP_2)" fill="none" stroke="#999999" stroke-width="0.96012" stroke-miterlimit="10" stroke-linecap="round" stroke-linejoin="round" d="
				M270.2743,310.5931L270.2743,310.35307L270.51433,310.35307L270.51433,310.5931L270.2743,310.5931"/>
			<path clip-path="url(#SVG_CP_2)" fill="none" stroke="#999999" stroke-width="0.96012" stroke-miterlimit="10" stroke-linecap="round" stroke-linejoin="round" d="
				M270.03427,310.83312L270.03427,310.5931L270.2743,310.5931L270.2743,310.83312L270.03427,310.83312"/>
			<path clip-path="url(#SVG_CP_2)" fill="none" stroke="#999999" stroke-width="0.96012" stroke-miterlimit="10" stroke-linecap="round" stroke-linejoin="round" d="
				M270.03427,310.83312L270.03427,311.07315L269.79424,311.07315L269.79424,310.83312L270.03427,310.83312"/>
			<path clip-path="url(#SVG_CP_2)" fill="none" stroke="#999999" stroke-width="0.96012" stroke-miterlimit="10" stroke-linecap="round" stroke-linejoin="round" d="
				M267.87399,313.23338L267.87399,312.99335L268.11402,312.99335L268.11402,313.23338L267.87399,313.23338"/>
			<path clip-path="url(#SVG_CP_2)" fill="none" stroke="#999999" stroke-width="0.96012" stroke-miterlimit="10" stroke-linecap="round" stroke-linejoin="round" d="
				M267.63396,313.4734L267.63396,313.23338L267.87399,313.23338L267.87399,313.4734L267.63396,313.4734"/>
			<path clip-path="url(#SVG_CP_2)" fill="none" stroke="#999999" stroke-width="0.96012" stroke-miterlimit="10" stroke-linecap="round" stroke-linejoin="round" d="
				M267.63396,313.4734L267.63396,313.71343L267.39393,313.71343L267.39393,313.4734L267.63396,313.4734"/>
			<path clip-path="url(#SVG_CP_2)" fill="none" stroke="#999999" stroke-width="0.96012" stroke-miterlimit="10" stroke-linecap="round" stroke-linejoin="round" d="
				M265.47369,315.87366L265.47369,315.63363L265.71372,315.63363L265.71372,315.87366L265.47369,315.87366"/>
			<path clip-path="url(#SVG_CP_2)" fill="none" stroke="#999999" stroke-width="0.96012" stroke-miterlimit="10" stroke-linecap="round" stroke-linejoin="round" d="
				M265.23366,316.11369L265.23366,315.87366L265.47369,315.87366L265.47369,316.11369L265.23366,316.11369"/>
			<path clip-path="url(#SVG_CP_2)" fill="none" stroke="#999999" stroke-width="0.96012" stroke-miterlimit="10" stroke-linecap="round" stroke-linejoin="round" d="
				M265.23366,316.11369L265.23366,316.35371L264.99363,316.35371L264.99363,316.11369L265.23366,316.11369"/>
			<path clip-path="url(#SVG_CP_2)" fill="none" stroke="#999999" stroke-width="0.96012" stroke-miterlimit="10" stroke-linecap="round" stroke-linejoin="round" d="
				M263.07339,318.51394L263.07339,318.27392L263.31342,318.27392L263.31342,318.51394L263.07339,318.51394"/>
			<path clip-path="url(#SVG_CP_2)" fill="none" stroke="#999999" stroke-width="0.96012" stroke-miterlimit="10" stroke-linecap="round" stroke-linejoin="round" d="
				M262.83335,318.75397L262.83335,318.51394L263.07339,318.51394L263.07339,318.75397L262.83335,318.75397"/>
			<path clip-path="url(#SVG_CP_2)" fill="none" stroke="#999999" stroke-width="0.96012" stroke-miterlimit="10" stroke-linecap="round" stroke-linejoin="round" d="
				M262.59332,318.99399L262.59332,318.75397L262.83335,318.75397L262.83335,318.99399L262.59332,318.99399"/>
			<path clip-path="url(#SVG_CP_2)" fill="none" stroke="#999999" stroke-width="0.96012" stroke-miterlimit="10" stroke-linecap="round" stroke-linejoin="round" d="
				M262.59332,318.99399L262.59332,319.23402L262.35329,319.23402L262.35329,318.99399L262.59332,318.99399"/>
			<path clip-path="url(#SVG_CP_2)" fill="none" stroke="#999999" stroke-width="0.96012" stroke-miterlimit="10" stroke-linecap="round" stroke-linejoin="round" d="
				M315.88009,334.83568L315.64006,334.83568L315.64006,334.59566L315.88009,334.59566L315.88009,334.83568"/>
			<path clip-path="url(#SVG_CP_2)" fill="none" stroke="#999999" stroke-width="0.96012" stroke-miterlimit="10" stroke-linecap="round" stroke-linejoin="round" d="
				M315.40003,335.07571L315.16,335.07571L315.16,334.83568L315.40003,334.83568L315.40003,335.07571"/>
			<path clip-path="url(#SVG_CP_2)" fill="none" stroke="#999999" stroke-width="0.96012" stroke-miterlimit="10" stroke-linecap="round" stroke-linejoin="round" d="
				M325.48131,378.76036L325.24127,378.76036L325.24127,379.00039L325.00124,379.00039L325.00124,379.24041L324.76121,379.24041
				L324.76121,379.48044L324.52118,379.48044L324.52118,379.72046L324.28115,379.72046L324.28115,379.96049L324.04112,379.96049
				L324.04112,380.20051L323.80109,380.20051L323.80109,380.44054L323.56106,380.44054L323.56106,380.68057L323.32103,380.68057
				L323.32103,380.92059L323.081,380.92059L323.081,381.16062L322.84097,381.16062L322.84097,381.40064L322.60094,381.40064L322.60094,381.64067
				L322.36091,381.64067L322.36091,381.88069L322.12088,381.88069L322.12088,382.12072L321.88085,382.12072L321.88085,382.36075
				L321.64082,382.36075L321.64082,382.60077L321.40079,382.60077L321.40079,382.8408L321.16076,382.8408L321.16076,383.08082L320.92073,383.08082
				L320.92073,385.24105L320.6807,385.24105L320.6807,392.44182L320.44067,392.44182L320.44067,392.68185L320.20063,392.68185L320.20063,392.92187
				L319.9606,392.92187L319.9606,393.1619L319.72057,393.1619L319.72057,393.40192L319.48054,393.40192L319.48054,393.64195L319.24051,393.64195
				L319.24051,393.88197L319.00048,393.88197L319.00048,394.122L318.76045,394.122L318.76045,394.36202L318.52042,394.36202L318.52042,394.60205
				L318.28039,394.60205L318.28039,394.84208L317.80033,394.84208L317.80033,395.0821L317.5603,395.0821L317.5603,395.32213L317.32027,395.32213
				L317.32027,395.56215L317.08024,395.56215L317.08024,395.80218L316.84021,395.80218L316.84021,396.0422L316.60018,396.0422L316.60018,396.28223
				L316.36015,396.28223L316.36015,396.52225L316.12012,396.52225L316.12012,396.76228L315.88009,396.76228L315.88009,397.00231
				L315.64006,397.00231L315.64006,397.24233L315.40003,397.24233L315.40003,397.48236L315.16,397.48236L315.16,397.72238L314.91996,397.72238
				L314.91996,398.20243L314.67993,398.20243L314.67993,398.44246L314.4399,398.44246L314.4399,398.68248L314.19987,398.68248L314.19987,398.92251
				L313.95984,398.92251L313.95984,399.16254L313.71981,399.16254L313.71981,399.40256L313.47978,399.40256L313.47978,399.88261
				L313.23975,399.88261L313.23975,400.12264L312.99972,400.12264L312.99972,400.36266L312.75969,400.36266L312.75969,400.60269
				L312.51966,400.60269L312.51966,400.84271L312.27963,400.84271L312.27963,401.08274L312.0396,401.08274L312.0396,401.32277L311.79957,401.32277
				L311.79957,401.56279L311.55954,401.56279L311.55954,401.80282L311.31951,401.80282L311.31951,402.04284L311.07948,402.04284
				L311.07948,402.28287L310.83945,402.28287L310.83945,402.52289L310.59942,402.52289L310.59942,402.76292L310.35939,402.76292
				L310.35939,403.00294L310.11936,403.00294L310.11936,403.24297L309.87933,403.24297L309.87933,403.483L309.63929,403.483L309.63929,403.72302
				L309.39926,403.72302L309.39926,403.96305L309.15923,403.96305L309.15923,404.20307L308.9192,404.20307L308.9192,404.4431L308.67917,404.4431
				L308.67917,404.68312L308.43914,404.68312L308.43914,404.92315L308.19911,404.92315L308.19911,405.16318L307.95908,405.16318
				L307.95908,414.52417L307.71905,414.52417L307.71905,414.7642L307.47902,414.7642L307.47902,415.00422L307.23899,415.00422L307.23899,418.36458
				L306.99896,418.36458L306.99896,424.1252L306.75893,424.1252L306.75893,428.68568L306.5189,428.68568L306.5189,428.92571L306.27887,428.92571
				L306.27887,429.40576L306.03884,429.40576L306.03884,429.64578L305.79881,429.64578L305.79881,429.88581L305.55878,429.88581
				L305.55878,430.12584L305.31875,430.12584L305.31875,430.36586L305.07872,430.36586L305.07872,430.60589L304.83869,430.60589
				L304.83869,430.84591L304.59865,430.84591L304.59865,431.08594L304.35862,431.08594L304.35862,431.32596L304.11859,431.32596
				L304.11859,431.56599L303.87856,431.56599L303.87856,431.80601L303.63853,431.80601L303.63853,432.04604L303.3985,432.04604L
				303.3985,432.28607L303.15847,432.28607L303.15847,432.52609L302.91844,432.52609L302.91844,432.76612L302.67841,432.76612L302.67841,433.00614
				L302.43838,433.00614L302.43838,433.24617L302.19835,433.24617L302.19835,433.72622L301.95832,433.72622L301.95832,433.96624
				L301.71829,433.96624L301.71829,434.20627L301.47826,434.20627L301.47826,434.4463L301.23823,434.4463L301.23823,434.68632L300.9982,434.68632
				L300.9982,434.92635L300.75817,434.92635L300.75817,435.16637L300.51814,435.16637L300.51814,435.4064L300.27811,435.4064L300.27811,435.88645
				L300.03808,435.88645L300.03808,436.12647L299.79805,436.12647L299.79805,436.3665L299.55802,436.3665L299.55802,436.60653L299.31798,436.60653
				L299.31798,436.84655L299.07795,436.84655L299.07795,437.08658L298.83792,437.08658L298.83792,437.3266L298.59789,437.3266L298.59789,437.56663
				L298.35786,437.56663L298.35786,437.80665L298.11783,437.80665L298.11783,438.04668L297.8778,438.04668L297.8778,438.2867L297.63777,438.2867
				L297.63777,438.52673L297.39774,438.52673L297.39774,438.76676L297.15771,438.76676L297.15771,439.00678L296.91768,439.00678
				L296.91768,439.24681L296.67765,439.24681L296.67765,439.48683L296.43762,439.48683L296.43762,439.72686L296.19759,439.72686
				L296.19759,439.96688L295.95756,439.96688L295.95756,440.20691L295.71753,440.20691L295.71753,440.44693L295.4775,440.44693L
				295.4775,440.68696L295.23747,440.68696L295.23747,440.92699L294.99744,440.92699L294.99744,441.16701L294.75741,441.16701L294.75741,441.40704
				L294.51738,441.40704L294.51738,441.64706L294.27735,441.64706L294.27735,441.88709L294.03731,441.88709L294.03731,442.12711
				L293.79728,442.12711L293.79728,442.36714L293.55725,442.36714L293.55725,442.60717L293.31722,442.60717L293.31722,442.84719
				L293.07719,442.84719L293.07719,443.08722L292.83716,443.08722L292.83716,443.32724L292.59713,443.32724L292.59713,443.56727
				L292.3571,443.56727L292.3571,443.80729L292.11707,443.80729L292.11707,444.04732L291.87704,444.04732L291.87704,444.28734L291.63701,444.28734
				L291.63701,444.52737L291.39698,444.52737L291.39698,444.7674L291.15695,444.7674L291.15695,445.00742L290.91692,445.00742L290.91692,445.24745
				L290.67689,445.24745L290.67689,445.48747L290.43686,445.48747L290.43686,445.7275L290.19683,445.7275L290.19683,445.96752L289.9568,445.96752
				L289.9568,446.20755L289.71677,446.20755L289.71677,446.44757L289.47674,446.44757L289.47674,446.6876L289.23671,446.6876L289.23671,446.92763
				L288.99668,446.92763L288.99668,447.16765L288.75664,447.16765L288.75664,447.40768L288.51661,447.40768L288.51661,447.6477L
				288.27658,447.6477L288.27658,447.88773L288.03655,447.88773L288.03655,448.12775L287.79652,448.12775L287.79652,448.36778L287.55649,448.36778
				L287.55649,448.6078L287.31646,448.6078L287.31646,448.84783L287.07643,448.84783L287.07643,449.08786L286.8364,449.08786L286.8364,449.32788
				L286.59637,449.32788L286.59637,449.56791L286.35634,449.56791L286.35634,449.80793L286.11631,449.80793L286.11631,450.04796
				L285.87628,450.04796L285.87628,450.28798L285.63625,450.28798L285.63625,450.52801L285.39622,450.52801L285.39622,450.76803
				L285.15619,450.76803L285.15619,451.00806L284.91616,451.00806L284.91616,451.24809L284.67613,451.24809L284.67613,451.48811
				L284.4361,451.48811L284.4361,451.72814L284.19607,451.72814L284.19607,451.96816L283.95604,451.96816L283.95604,452.20819L283.716,452.20819
				L283.716,452.44821L283.47597,452.44821L283.47597,452.68824L283.23594,452.68824L283.23594,452.92826L282.99591,452.92826L282.99591,453.16829
				L282.75588,453.16829L282.75588,453.40832L282.27582,453.40832L282.27582,453.64834L282.03579,453.64834L282.03579,453.88837
				L281.79576,453.88837L281.79576,454.12839L281.55573,454.12839L281.55573,454.36842L281.3157,454.36842L281.3157,454.60844L281.07567,454.60844
				L281.07567,454.84847L280.83564,454.84847L280.83564,455.0885L280.59561,455.0885L280.59561,455.32852L280.35558,455.32852L280.35558,455.56855
				L280.11555,455.56855L280.11555,455.80857L279.87552,455.80857L279.87552,456.0486L279.63549,456.0486L279.63549,456.28862L279.39546,456.28862
				L279.39546,456.52865L279.15543,456.52865L279.15543,456.76867L278.9154,456.76867L278.9154,457.0087L278.67537,457.0087L278.67537,457.24873
				L278.43533,457.24873L278.43533,457.48875L278.1953,457.48875L278.1953,457.72878L277.95527,457.72878L277.95527,457.9688L277.71524,457.9688
				L277.71524,458.20883L277.47521,458.20883L277.47521,458.44885L277.23518,458.44885L277.23518,458.68888L276.99515,458.68888
				L276.99515,458.9289L276.75512,458.9289L276.75512,459.16893L276.51509,459.16893L276.51509,459.40896L276.27506,459.40896L276.27506,459.64898
				L276.03503,459.64898L276.03503,459.88901L275.795,459.88901L275.795,460.12903L275.55497,460.12903L275.55497,460.36906L275.31494,460.36906
				L275.31494,460.60908L275.07491,460.60908L275.07491,460.84911L274.83488,460.84911L274.83488,461.08913L274.59485,461.08913
				L274.59485,461.32916L274.35482,461.32916L274.35482,461.56919L274.11479,461.56919L274.11479,461.80921L273.87476,461.80921
				L273.87476,462.04924L273.63473,462.04924L273.63473,462.28926L273.3947,462.28926L273.3947,462.52929L273.15466,462.52929L273.15466,462.76931
				L272.91463,462.76931L272.91463,463.00934L272.6746,463.00934L272.6746,463.24936L272.43457,463.24936L272.43457,463.48939L272.19454,463.48939
				L272.19454,463.72942L271.95451,463.72942L271.95451,463.96944L271.71448,463.96944L271.71448,464.20947L271.47445,464.20947
				L271.47445,464.44949L271.23442,464.44949L271.23442,464.68952L270.99439,464.68952L270.99439,464.92954L270.75436,464.92954
				L270.75436,465.16957L270.51433,465.16957L270.51433,465.40959L270.2743,465.40959L270.2743,465.64962L270.03427,465.64962L270.03427,465.88965
				L269.07415,465.88965L269.07415,465.64962L268.11402,465.64962L268.11402,465.40959L267.1539,465.40959L267.1539,465.16957L266.19378,465.16957
				L266.19378,464.92954L265.47369,464.92954L265.47369,464.68952L264.7536,464.68952L264.7536,464.44949L264.27354,464.44949L264.27354,464.20947
				L263.79348,464.20947L263.79348,463.96944L261.87323,463.96944L261.87323,463.72942L259.47293,463.72942L259.47293,463.96944
				L258.27278,463.96944L258.27278,464.20947L257.07262,464.20947L257.07262,464.44949L255.63244,464.44949L255.63244,464.68952
				L254.67232,464.68952L254.67232,464.92954L253.47217,464.92954L253.47217,465.16957L252.51205,465.16957L252.51205,465.40959
				L251.55192,465.40959L251.55192,465.64962L250.35177,465.64962L250.35177,465.88965L249.39165,465.88965L249.39165,466.12967
				L248.43153,466.12967L248.43153,466.3697L247.47141,466.3697L247.47141,466.60972L246.27125,466.60972L246.27125,466.84975L245.0711,466.84975
				L245.0711,467.08977L244.11098,467.08977L244.11098,467.3298L243.15086,467.3298L243.15086,467.56983L242.43077,467.56983L242.43077,467.80985
				L241.71067,467.80985L241.71067,468.04988L240.75055,468.04988L240.75055,468.2899L240.03046,468.2899L240.03046,468.52993L239.31037,468.52993
				L239.31037,468.76995L238.59028,468.76995L238.59028,469.25L237.87019,469.25L237.87019,469.49003L237.1501,469.49003L237.1501,469.73006
				L236.18997,469.73006L236.18997,469.97008L235.46988,469.97008L235.46988,470.21011L234.74979,470.21011L234.74979,470.45013
				L234.0297,470.45013L234.0297,470.69016L233.06958,470.69016L233.06958,470.93018L232.10946,470.93018L232.10946,471.17021L231.14933,471.17021
				L231.14933,471.41023L230.18921,471.41023L230.18921,471.65026L229.22909,471.65026L229.22909,471.89029L227.78891,471.89029
				L227.78891,472.13031L226.34872,472.13031L226.34872,472.37034L224.66851,472.37034L224.66851,472.61036L215.06729,472.61036
				L215.06729,472.85039L213.86714,472.85039L213.86714,473.09041L212.66699,473.09041L212.66699,473.33044L211.9469,473.33044L
				211.9469,473.57046L210.98678,473.57046L210.98678,473.81049L210.26668,473.81049L210.26668,474.05052L209.54659,474.05052L209.54659,474.29054
				L208.8265,474.29054L208.8265,474.53057L208.10641,474.53057L208.10641,474.77059L207.38632,474.77059L207.38632,475.01062L206.66623,475.01062
				L206.66623,475.25064L205.94614,475.25064L205.94614,475.49067L205.22604,475.49067L205.22604,475.73069L204.50595,475.73069
				L204.50595,475.97072L203.78586,475.97072L203.78586,476.21075L203.06577,476.21075L203.06577,476.45077L202.34568,476.45077
				L202.34568,476.6908L201.62559,476.6908L201.62559,476.93082L201.38556,476.93082L201.38556,476.45077L201.62559,476.45077L201.62559,473.09041
				L201.86562,473.09041L201.86562,471.65026L202.10565,471.65026L202.10565,468.52993L202.34568,468.52993L202.34568,467.3298L
				202.58571,467.3298L202.58571,466.60972L202.82574,466.60972L202.82574,465.88965L203.06577,465.88965L203.06577,465.40959L203.3058,465.40959
				L203.3058,464.92954L203.54583,464.92954L203.54583,463.48939L203.78586,463.48939L203.78586,461.56919L204.02589,461.56919L
				204.02589,460.84911L204.26592,460.84911L204.26592,460.36906L204.50595,460.36906L204.50595,459.88901L204.74598,459.88901L
				204.74598,459.40896L204.98601,459.40896L204.98601,458.68888L205.22604,458.68888L205.22604,458.44885L205.46607,458.44885L
				205.46607,457.72878L205.70611,457.72878L205.70611,457.24873L205.94614,457.24873L205.94614,456.76867L206.18617,456.76867L
				206.18617,456.28862L206.4262,456.28862L206.4262,455.80857L206.66623,455.80857L206.66623,455.32852L206.90626,455.32852L206.90626,454.84847
				L207.14629,454.84847L207.14629,454.12839L207.38632,454.12839L207.38632,453.64834L207.62635,453.64834L207.62635,453.16829
				L207.86638,453.16829L207.86638,452.68824L208.10641,452.68824L208.10641,452.20819L208.34644,452.20819L208.34644,451.72814
				L208.58647,451.72814L208.58647,451.00806L208.8265,451.00806L208.8265,450.52801L209.06653,450.52801L209.06653,450.04796L209.30656,450.04796
				L209.30656,449.32788L209.54659,449.32788L209.54659,448.84783L209.78662,448.84783L209.78662,448.36778L210.02665,448.36778
				L210.02665,447.6477L210.26668,447.6477L210.26668,447.16765L210.50671,447.16765L210.50671,446.6876L210.74674,446.6876L210.74674,445.96752
				L210.98678,445.96752L210.98678,445.48747L211.46684,445.48747L211.46684,444.7674L211.70687,444.7674L211.70687,444.28734L211.9469,444.28734
				L211.9469,443.56727L212.18693,443.56727L212.18693,443.08722L212.42696,443.08722L212.42696,442.60717L212.66699,442.60717L
				212.66699,442.12711L212.90702,442.12711L212.90702,441.64706L213.14705,441.64706L213.14705,441.16701L213.38708,441.16701L
				213.38708,440.44693L213.62711,440.44693L213.62711,439.96688L213.86714,439.96688L213.86714,439.48683L214.10717,439.48683L
				214.10717,439.24681L214.3472,439.24681L214.3472,439.00678L214.58723,439.00678L214.58723,438.76676L214.82726,438.76676L214.82726,438.52673
				L215.06729,438.52673L215.06729,438.2867L215.30732,438.2867L215.30732,437.80665L215.54735,437.80665L215.54735,437.56663L215.78738,437.56663
				L215.78738,437.08658L216.02742,437.08658L216.02742,436.84655L216.26745,436.84655L216.26745,436.3665L216.50748,436.3665L216.50748,436.12647
				L216.74751,436.12647L216.74751,435.64642L216.98754,435.64642L216.98754,435.4064L217.22757,435.4064L217.22757,435.16637L217.4676,435.16637
				L217.4676,434.92635L217.70763,434.92635L217.70763,434.4463L217.94766,434.4463L217.94766,434.20627L218.18769,434.20627L218.18769,433.96624
				L218.42772,433.96624L218.42772,433.72622L218.66775,433.72622L218.66775,433.00614L218.90778,433.00614L218.90778,432.76612
				L219.14781,432.76612L219.14781,432.52609L219.38784,432.52609L219.38784,432.28607L219.62787,432.28607L219.62787,432.04604
				L220.10793,432.04604L220.10793,431.80601L220.34796,431.80601L220.34796,431.56599L220.58799,431.56599L220.58799,431.32596
				L220.82802,431.32596L220.82802,430.84591L221.06805,430.84591L221.06805,430.60589L221.30809,430.60589L221.30809,430.36586
				L221.54812,430.36586L221.54812,430.12584L221.78815,430.12584L221.78815,429.64578L222.02818,429.64578L222.02818,429.40576
				L222.26821,429.40576L222.26821,429.16573L222.50824,429.16573L222.50824,428.92571L222.74827,428.92571L222.74827,428.68568
				L222.9883,428.68568L222.9883,428.20563L223.22833,428.20563L223.22833,427.9656L223.46836,427.9656L223.46836,427.48555L223.70839,427.48555
				L223.70839,427.0055L223.94842,427.0055L223.94842,426.52545L224.18845,426.52545L224.18845,426.0454L224.42848,426.0454L224.42848,425.56535
				L224.66851,425.56535L224.66851,425.0853L224.90854,425.0853L224.90854,424.84527L225.14857,424.84527L225.14857,424.60525L225.3886,424.60525
				L225.3886,424.1252L225.62863,424.1252L225.62863,423.88517L225.86866,423.88517L225.86866,423.64514L226.10869,423.64514L226.10869,422.92507
				L226.34872,422.92507L226.34872,422.44502L226.58876,422.44502L226.58876,421.96497L226.82879,421.96497L226.82879,421.48491
				L227.06882,421.48491L227.06882,421.00486L227.30885,421.00486L227.30885,420.52481L227.54888,420.52481L227.54888,419.80474
				L227.78891,419.80474L227.78891,419.32468L228.02894,419.32468L228.02894,418.60461L228.26897,418.60461L228.26897,417.88453
				L228.509,417.88453L228.509,416.92443L228.74903,416.92443L228.74903,415.96433L228.98906,415.96433L228.98906,415.00422L229.22909,415.00422
				L229.22909,414.04412L229.46912,414.04412L229.46912,413.32404L229.70915,413.32404L229.70915,412.84399L229.94918,412.84399
				L229.94918,412.12392L230.18921,412.12392L230.18921,411.40384L230.42924,411.40384L230.42924,410.92379L230.66927,410.92379
				L230.66927,410.20371L230.9093,410.20371L230.9093,409.48364L231.14933,409.48364L231.14933,409.00358L231.38936,409.00358L231.38936,408.28351
				L231.62939,408.28351L231.62939,407.80346L231.86943,407.80346L231.86943,407.32341L232.10946,407.32341L232.10946,406.60333
				L232.34949,406.60333L232.34949,406.12328L232.58952,406.12328L232.58952,405.4032L232.82955,405.4032L232.82955,404.92315L233.06958,404.92315
				L233.06958,404.20307L233.30961,404.20307L233.30961,403.72302L233.54964,403.72302L233.54964,403.24297L233.78967,403.24297
				L233.78967,402.52289L234.0297,402.52289L234.0297,402.04284L234.26973,402.04284L234.26973,401.32277L234.50976,401.32277L234.50976,400.84271
				L234.74979,400.84271L234.74979,400.36266L234.98982,400.36266L234.98982,395.32213L235.22985,395.32213L235.22985,394.60205
				L235.46988,394.60205L235.46988,394.122L235.70991,394.122L235.70991,393.40192L235.94994,393.40192L235.94994,392.68185L236.18997,392.68185
				L236.18997,391.96177L236.43,391.96177L236.43,391.48172L236.67003,391.48172L236.67003,390.76164L236.91007,390.76164L236.91007,390.04156
				L237.1501,390.04156L237.1501,389.32149L237.39013,389.32149L237.39013,388.60141L237.63016,388.60141L237.63016,388.12136L237.87019,388.12136
				L237.87019,387.40128L238.11022,387.40128L238.11022,386.68121L238.35025,386.68121L238.35025,385.96113L238.59028,385.96113
				L238.59028,385.24105L238.83031,385.24105L238.83031,384.52098L239.07034,384.52098L239.07034,383.8009L239.31037,383.8009L239.31037,383.32085
				L239.5504,383.32085L239.5504,382.60077L239.79043,382.60077L239.79043,381.88069L240.03046,381.88069L240.03046,381.16062L240.27049,381.16062
				L240.27049,380.44054L240.51052,380.44054L240.51052,379.72046L240.75055,379.72046L240.75055,379.48044L240.99058,379.48044
				L240.99058,379.00039L241.23061,379.00039L241.23061,378.76036L241.47064,378.76036L241.47064,378.28031L241.71067,378.28031
				L241.71067,378.04028L241.9507,378.04028L241.9507,377.56023L242.19074,377.56023L242.19074,377.08018L242.43077,377.08018L242.43077,376.84016
				L242.6708,376.84016L242.6708,376.36011L242.91083,376.36011L242.91083,376.12008L243.15086,376.12008L243.15086,375.64003L243.39089,375.64003
				L243.39089,375.4L243.63092,375.4L243.63092,374.91995L243.87095,374.91995L243.87095,374.67993L244.11098,374.67993L244.11098,374.19988
				L244.35101,374.19988L244.35101,373.95985L244.59104,373.95985L244.59104,373.4798L244.83107,373.4798L244.83107,373.23977L245.0711,373.23977
				L245.0711,372.99975L245.31113,372.99975L245.31113,372.5197L245.55116,372.5197L245.55116,372.27967L245.79119,372.27967L245.79119,371.79962
				L246.03122,371.79962L246.03122,371.55959L246.27125,371.55959L246.27125,371.31957L246.51128,371.31957L246.51128,370.83952
				L246.75131,370.83952L246.75131,369.39936L247.23137,369.39936L247.23137,368.19924L247.47141,368.19924L247.47141,361.95857
				L247.23137,361.95857L247.23137,361.71855L246.75131,361.71855L246.75131,361.23849L246.51128,361.23849L246.51128,360.99847
				L246.27125,360.99847L246.27125,360.75844L246.03122,360.75844L246.03122,360.27839L245.79119,360.27839L245.79119,360.03837
				L245.55116,360.03837L245.55116,359.55832L245.31113,359.55832L245.31113,359.31829L245.0711,359.31829L245.0711,358.83824L244.83107,358.83824
				L244.83107,358.59821L244.59104,358.59821L244.59104,358.11816L244.35101,358.11816L244.35101,357.87814L244.11098,357.87814
				L244.11098,357.39809L243.87095,357.39809L243.87095,356.67801L243.63092,356.67801L243.63092,355.95793L243.39089,355.95793
				L243.39089,354.99783L243.15086,354.99783L243.15086,352.59757L243.39089,352.59757L243.39089,352.11752L243.63092,352.11752
				L243.63092,351.15742L243.87095,351.15742L243.87095,350.43734L244.11098,350.43734L244.11098,349.95729L244.35101,349.95729
				L244.35101,349.47724L244.59104,349.47724L244.59104,348.99719L244.83107,348.99719L244.83107,348.27711L245.0711,348.27711L
				245.0711,347.31701L244.83107,347.31701L244.83107,346.83696L245.0711,346.83696L245.0711,346.59693L245.31113,346.59693L245.31113,346.35691
				L245.55116,346.35691L245.55116,345.87686L245.79119,345.87686"/>
			<path clip-path="url(#SVG_CP_2)" fill="none" stroke="#999999" stroke-width="0.96012" stroke-miterlimit="10" stroke-linecap="round" stroke-linejoin="round" d="
				M245.79119,345.87686L245.79119,345.63683L246.03122,345.63683L246.03122,345.39681L246.27125,345.39681L246.27125,345.15678
				L246.51128,345.15678L246.51128,344.91676L246.75131,344.91676L246.75131,344.4367L247.23137,344.4367L247.23137,344.19668L247.47141,344.19668
				L247.47141,343.95665L247.71144,343.95665L247.71144,343.4766L247.95147,343.4766L247.95147,343.23658L248.1915,343.23658L248.1915,342.75652
				L248.43153,342.75652L248.43153,342.5165L248.67156,342.5165L248.67156,342.27647L248.91159,342.27647L248.91159,341.79642L249.15162,341.79642
				L249.15162,341.5564L249.39165,341.5564L249.39165,341.31637L249.63168,341.31637L249.63168,340.83632L249.87171,340.83632L249.87171,340.59629
				L250.11174,340.59629L250.11174,340.35627L250.35177,340.35627L250.35177,339.87622L250.5918,339.87622L250.5918,339.63619L250.83183,339.63619
				L250.83183,339.39617L251.07186,339.39617L251.07186,338.91612L251.31189,338.91612L251.31189,338.67609L251.55192,338.67609
				L251.55192,338.43606L251.79195,338.43606L251.79195,337.95601L252.03198,337.95601L252.03198,337.71599L252.27201,337.71599
				L252.27201,337.47596L252.51205,337.47596L252.51205,336.75589L252.75208,336.75589L252.75208,335.55576L252.99211,335.55576
				L252.99211,334.35563L253.23214,334.35563L253.23214,333.39553L253.47217,333.39553L253.47217,332.1954L253.7122,332.1954L253.7122,330.99527
				L253.95223,330.99527L253.95223,329.79514L254.19226,329.79514L254.19226,328.59502L254.43229,328.59502L254.43229,328.11496
				L254.67232,328.11496L254.67232,327.87494L254.91235,327.87494L254.91235,327.39489L255.15238,327.39489L255.15238,327.15486
				L255.39241,327.15486L255.39241,326.67481L255.63244,326.67481L255.63244,326.43479L255.87247,326.43479L255.87247,326.19476
				L256.1125,326.19476L256.1125,325.95473L256.35253,325.95473L256.35253,325.71471L256.59256,325.71471L256.59256,325.47468L256.83259,325.47468
				L256.83259,325.23466L257.07262,325.23466L257.07262,324.99463L257.31265,324.99463L257.31265,324.51458L257.55268,324.51458
				L257.55268,324.27456L257.79272,324.27456L257.79272,324.03453L258.03275,324.03453L258.03275,323.7945L258.27278,323.7945L258.27278,323.55448
				L258.51281,323.55448L258.51281,323.31445L258.75284,323.31445L258.75284,323.07443L258.99287,323.07443L258.99287,322.8344L
				259.2329,322.8344L259.2329,322.59438L259.47293,322.59438L259.47293,322.35435L259.71296,322.35435L259.71296,322.11433L259.95299,322.11433
				L259.95299,321.63427L260.19302,321.63427L260.19302,321.39425L260.43305,321.39425L260.43305,321.15422L260.67308,321.15422
				L260.67308,320.9142L260.91311,320.9142L260.91311,320.67417L261.15314,320.67417L261.15314,320.43415L261.39317,320.43415L261.39317,320.19412
				L261.87323,320.19412L261.87323,320.67417L262.11326,320.67417L262.11326,320.9142L262.35329,320.9142L262.35329,321.15422L262.59332,321.15422
				L262.59332,321.39425L262.83335,321.39425L262.83335,321.63427L263.07339,321.63427L263.07339,321.8743L263.31342,321.8743L263.31342,322.11433
				L263.55345,322.11433L263.55345,322.35435L263.79348,322.35435L263.79348,322.59438L264.03351,322.59438L264.03351,323.07443
				L264.27354,323.07443L264.27354,323.31445L264.51357,323.31445L264.51357,323.55448L264.7536,323.55448L264.7536,323.7945L264.99363,323.7945
				L264.99363,324.03453L265.23366,324.03453L265.23366,324.27456L265.47369,324.27456L265.47369,324.51458L265.71372,324.51458
				L265.71372,324.75461L265.95375,324.75461L265.95375,324.99463L266.19378,324.99463L266.19378,325.47468L266.43381,325.47468
				L266.43381,325.71471L266.67384,325.71471L266.67384,325.95473L266.91387,325.95473L266.91387,326.19476L267.1539,326.19476L
				267.1539,326.43479L267.39393,326.43479L267.39393,326.67481L267.63396,326.67481L267.63396,327.15486L267.87399,327.15486L267.87399,327.39489
				L268.11402,327.39489L268.11402,327.63491L268.35406,327.63491L268.35406,328.11496L268.59409,328.11496L268.59409,328.35499
				L268.83412,328.35499L268.83412,328.59502L269.07415,328.59502L269.07415,328.83504L269.31418,328.83504L269.31418,329.07507
				L269.55421,329.07507L269.55421,329.31509L269.79424,329.31509L269.79424,329.55512L270.03427,329.55512L270.03427,329.79514
				L270.2743,329.79514L270.2743,330.03517L270.51433,330.03517L270.51433,330.27519L270.75436,330.27519L270.75436,330.51522L270.99439,330.51522
				L270.99439,330.75525L271.23442,330.75525L271.23442,330.99527L271.47445,330.99527L271.47445,331.2353L271.71448,331.2353L271.71448,331.47532
				L271.95451,331.47532L271.95451,331.71535L272.19454,331.71535L272.19454,331.95537L272.43457,331.95537L272.43457,332.1954L
				272.6746,332.1954L272.6746,332.43543L272.91463,332.43543L272.91463,332.67545L273.3947,332.67545L273.3947,332.91548L273.63473,332.91548
				L273.63473,333.1555L273.87476,333.1555L273.87476,333.39553L274.11479,333.39553L274.11479,333.63555L274.35482,333.63555L274.35482,333.87558
				L274.59485,333.87558L274.59485,334.1156L274.83488,334.1156L274.83488,334.35563L275.07491,334.35563L275.07491,334.59566L275.31494,334.59566
				L275.31494,334.83568L275.55497,334.83568L275.55497,335.07571L275.795,335.07571L275.795,335.31573L276.03503,335.31573L276.03503,335.55576
				L276.27506,335.55576L276.27506,335.79578L276.51509,335.79578L276.51509,336.03581L276.75512,336.03581L276.75512,336.27583
				L276.99515,336.27583L276.99515,336.51586L277.23518,336.51586L277.23518,336.75589L277.47521,336.75589L277.47521,336.99591
				L277.95527,336.99591L277.95527,337.23594L278.1953,337.23594L278.1953,337.47596L278.43533,337.47596L278.43533,337.71599L278.67537,337.71599
				L278.67537,337.95601L278.9154,337.95601L278.9154,338.19604L279.15543,338.19604L279.15543,338.43606L279.39546,338.43606L279.39546,338.67609
				L279.63549,338.67609L279.63549,338.91612L279.87552,338.91612L279.87552,339.15614L280.11555,339.15614L280.11555,339.39617
				L280.35558,339.39617L280.35558,339.63619L280.59561,339.63619L280.59561,339.87622L280.83564,339.87622L280.83564,340.11624
				L281.07567,340.11624L281.07567,340.35627L281.3157,340.35627L281.3157,340.59629L281.55573,340.59629L281.55573,340.83632L281.79576,340.83632
				L281.79576,341.07635L282.03579,341.07635L282.03579,341.31637L282.75588,341.31637L282.75588,341.5564L282.99591,341.5564L282.99591,341.79642
				L283.23594,341.79642L283.23594,342.03645L283.47597,342.03645L283.47597,342.27647L283.716,342.27647L283.716,342.5165L283.95604,342.5165
				L283.95604,342.75652L284.19607,342.75652L284.19607,342.99655L284.4361,342.99655L284.4361,343.23658L284.67613,343.23658L284.67613,343.4766
				L284.91616,343.4766L284.91616,343.71663L285.15619,343.71663L285.15619,343.95665L285.39622,343.95665L285.39622,344.19668L
				285.63625,344.19668L285.63625,344.4367L285.87628,344.4367L285.87628,344.67673L286.11631,344.67673L286.11631,344.91676L286.35634,344.91676
				L286.35634,345.15678L286.59637,345.15678L286.59637,345.39681L286.8364,345.39681L286.8364,345.63683L287.07643,345.63683L287.07643,345.87686
				L287.31646,345.87686L287.31646,346.11688L287.55649,346.11688L287.55649,346.35691L287.79652,346.35691L287.79652,346.59693
				L288.03655,346.59693L288.03655,346.83696L288.27658,346.83696L288.27658,347.07699L288.51661,347.07699L288.51661,347.31701
				L288.75664,347.31701L288.75664,347.55704L288.99668,347.55704L288.99668,347.79706L289.23671,347.79706L289.23671,348.03709
				L289.47674,348.03709L289.47674,348.27711L289.71677,348.27711L289.71677,348.51714L289.9568,348.51714L289.9568,348.75716L290.19683,348.75716
				L290.19683,348.99719L290.43686,348.99719L290.43686,349.23722L290.91692,349.23722L290.91692,349.47724L291.15695,349.47724
				L291.15695,349.71727L291.39698,349.71727L291.39698,349.95729L291.63701,349.95729L291.63701,350.19732L291.87704,350.19732
				L291.87704,350.43734L292.11707,350.43734L292.11707,350.67737L292.3571,350.67737L292.3571,350.91739L292.59713,350.91739L292.59713,351.15742
				L292.83716,351.15742L292.83716,351.39745L293.07719,351.39745L293.07719,351.63747L293.31722,351.63747L293.31722,351.8775L
				293.55725,351.8775L293.55725,352.11752L293.79728,352.11752L293.79728,352.35755L294.03731,352.35755L294.03731,352.59757L294.27735,352.59757
				L294.27735,352.8376L294.51738,352.8376L294.51738,353.07762L294.75741,353.07762L294.75741,353.31765L294.99744,353.31765L294.99744,353.55768
				L295.23747,353.55768L295.23747,353.7977L295.4775,353.7977L295.4775,354.03773L295.71753,354.03773L295.71753,354.27775L295.95756,354.27775
				L295.95756,354.51778L296.19759,354.51778L296.19759,354.7578L296.43762,354.7578L296.43762,354.99783L296.67765,354.99783L296.67765,355.23785
				L296.91768,355.23785L296.91768,355.47788L297.15771,355.47788L297.15771,355.71791L297.39774,355.71791L297.39774,355.95793
				L297.63777,355.95793L297.63777,356.43798L297.8778,356.43798L297.8778,356.67801L298.11783,356.67801L298.11783,356.91803L298.35786,356.91803
				L298.35786,357.15806L298.59789,357.15806L298.59789,357.39809L298.83792,357.39809L298.83792,357.63811L299.07795,357.63811
				L299.07795,357.87814L299.31798,357.87814L299.31798,358.11816L299.55802,358.11816L299.55802,358.35819L299.79805,358.35819
				L299.79805,358.59821L300.03808,358.59821L300.03808,358.83824L300.27811,358.83824L300.27811,359.07826L300.51814,359.07826
				L300.51814,359.31829L300.75817,359.31829L300.75817,359.55832L300.9982,359.55832L300.9982,359.79834L301.23823,359.79834L301.23823,360.03837
				L301.47826,360.03837L301.47826,360.27839L301.71829,360.27839L301.71829,360.51842L301.95832,360.51842L301.95832,360.75844
				L302.19835,360.75844L302.19835,360.99847L302.43838,360.99847L302.43838,361.23849L302.67841,361.23849L302.67841,361.47852
				L303.15847,361.47852L303.15847,361.71855L303.63853,361.71855L303.63853,361.95857L304.11859,361.95857L304.11859,362.1986L
				304.59865,362.1986L304.59865,362.67865L305.07872,362.67865L305.07872,362.91867L305.55878,362.91867L305.55878,363.1587L306.03884,363.1587
				L306.03884,363.39872L306.27887,363.39872L306.27887,363.63875L306.5189,363.63875L306.5189,363.87878L306.75893,363.87878L306.75893,364.1188
				L307.23899,364.1188L307.23899,364.35883L307.47902,364.35883L307.47902,364.59885L307.71905,364.59885L307.71905,364.83888L
				307.95908,364.83888L307.95908,365.0789L308.19911,365.0789L308.19911,365.31893L308.67917,365.31893L308.67917,365.55895L308.9192,365.55895
				L308.9192,365.79898L309.15923,365.79898L309.15923,366.03901L309.39926,366.03901L309.39926,366.27903L309.63929,366.27903L
				309.63929,366.51906L310.11936,366.51906L310.11936,366.75908L310.35939,366.75908L310.35939,366.99911L310.59942,366.99911L
				310.59942,367.23913L310.83945,367.23913L310.83945,367.47916L311.07948,367.47916L311.07948,367.71918L311.31951,367.71918L
				311.31951,367.95921L311.79957,367.95921L311.79957,368.19924L312.0396,368.19924L312.0396,368.43926L312.27963,368.43926L312.27963,368.67929
				L312.51966,368.67929L312.51966,368.91931L312.75969,368.91931L312.75969,369.15934L312.99972,369.15934L312.99972,369.39936
				L313.23975,369.39936L313.23975,369.63939L313.71981,369.63939L313.71981,369.87942L313.95984,369.87942L313.95984,370.11944
				L314.19987,370.11944L314.19987,370.35947L314.4399,370.35947L314.4399,370.59949L314.67993,370.59949L314.67993,370.83952L314.91996,370.83952
				L314.91996,371.07954L315.16,371.07954L315.16,371.31957L315.64006,371.31957L315.64006,371.55959L315.88009,371.55959L315.88009,371.79962
				L316.12012,371.79962L316.12012,372.03965L316.36015,372.03965L316.36015,372.27967L316.60018,372.27967L316.60018,372.5197L
				316.84021,372.5197L316.84021,372.75972L317.08024,372.75972L317.08024,372.99975L317.5603,372.99975L317.5603,373.23977L317.80033,373.23977
				L317.80033,373.4798L318.28039,373.4798L318.28039,373.71982L318.52042,373.71982L318.52042,373.95985L318.76045,373.95985L318.76045,374.19988
				L319.00048,374.19988L319.00048,374.4399L319.24051,374.4399L319.24051,374.67993L319.72057,374.67993L319.72057,374.91995L319.9606,374.91995
				L319.9606,375.15998L320.20063,375.15998L320.20063,375.4L320.44067,375.4L320.44067,375.64003L320.6807,375.64003L320.6807,375.88005
				L320.92073,375.88005L320.92073,376.12008L321.16076,376.12008L321.16076,376.36011L321.64082,376.36011L321.64082,376.60013
				L321.88085,376.60013L321.88085,376.84016L322.12088,376.84016L322.12088,377.08018L322.60094,377.08018L322.60094,377.32021
				L323.32103,377.32021L323.32103,377.56023L323.80109,377.56023L323.80109,377.80026L324.28115,377.80026L324.28115,378.04028
				L324.76121,378.04028L324.76121,378.28031L325.00124,378.28031L325.00124,378.52034L325.48131,378.52034L325.48131,378.76036
				"/>
			<path clip-path="url(#SVG_CP_2)" fill="none" stroke="#999999" stroke-width="0.96012" stroke-miterlimit="10" stroke-linecap="round" stroke-linejoin="round" d="
				M270.03427,465.88965L270.2743,465.88965L270.2743,465.64962L270.51433,465.64962L270.51433,465.40959L270.75436,465.40959L270.75436,465.16957
				L270.99439,465.16957L270.99439,464.92954L271.23442,464.92954L271.23442,464.68952L271.47445,464.68952L271.47445,464.44949
				L271.71448,464.44949L271.71448,464.20947L271.95451,464.20947L271.95451,463.96944L272.19454,463.96944L272.19454,463.72942
				L272.43457,463.72942L272.43457,463.48939L272.6746,463.48939L272.6746,463.24936L272.91463,463.24936L272.91463,463.00934L273.15466,463.00934
				L273.15466,462.76931L273.3947,462.76931L273.3947,462.52929L273.63473,462.52929L273.63473,462.28926L273.87476,462.28926L273.87476,462.04924
				L274.11479,462.04924L274.11479,461.80921L274.35482,461.80921L274.35482,461.56919L274.59485,461.56919L274.59485,461.32916
				L274.83488,461.32916L274.83488,461.08913L275.07491,461.08913L275.07491,460.84911L275.31494,460.84911L275.31494,460.60908
				L275.55497,460.60908L275.55497,460.36906L275.795,460.36906L275.795,460.12903L276.03503,460.12903L276.03503,459.88901L276.27506,459.88901
				L276.27506,459.64898L276.51509,459.64898L276.51509,459.40896L276.75512,459.40896L276.75512,459.16893L276.99515,459.16893
				L276.99515,458.9289L277.23518,458.9289L277.23518,458.68888L277.47521,458.68888L277.47521,458.44885L277.71524,458.44885L277.71524,458.20883
				L277.95527,458.20883L277.95527,457.9688L278.1953,457.9688L278.1953,457.72878L278.43533,457.72878L278.43533,457.48875L278.67537,457.48875
				L278.67537,457.24873L278.9154,457.24873L278.9154,457.0087L279.15543,457.0087L279.15543,456.76867L279.39546,456.76867L279.39546,456.52865
				L279.63549,456.52865L279.63549,456.28862L279.87552,456.28862L279.87552,456.0486L280.11555,456.0486L280.11555,455.80857L280.35558,455.80857
				L280.35558,455.56855L280.59561,455.56855L280.59561,455.32852L280.83564,455.32852L280.83564,455.0885L281.07567,455.0885L281.07567,454.84847
				L281.3157,454.84847L281.3157,454.60844L281.55573,454.60844L281.55573,454.36842L281.79576,454.36842L281.79576,454.12839L282.03579,454.12839
				L282.03579,453.88837L282.27582,453.88837L282.27582,453.64834L282.75588,453.64834L282.75588,453.40832L282.99591,453.40832
				L282.99591,453.16829L283.23594,453.16829L283.23594,452.92826L283.47597,452.92826L283.47597,452.68824L283.716,452.68824L283.716,452.44821
				L283.95604,452.44821L283.95604,452.20819L284.19607,452.20819L284.19607,451.96816L284.4361,451.96816L284.4361,451.72814L284.67613,451.72814
				L284.67613,451.48811L284.91616,451.48811L284.91616,451.24809L285.15619,451.24809L285.15619,451.00806L285.39622,451.00806
				L285.39622,450.76803L285.63625,450.76803L285.63625,450.52801L285.87628,450.52801L285.87628,450.28798L286.11631,450.28798
				L286.11631,450.04796L286.35634,450.04796L286.35634,449.80793L286.59637,449.80793L286.59637,449.56791L286.8364,449.56791L
				286.8364,449.32788L287.07643,449.32788L287.07643,449.08786L287.31646,449.08786L287.31646,448.84783L287.55649,448.84783L287.55649,448.6078
				L287.79652,448.6078L287.79652,448.36778L288.03655,448.36778L288.03655,448.12775L288.27658,448.12775L288.27658,447.88773L
				288.51661,447.88773L288.51661,447.6477L288.75664,447.6477L288.75664,447.40768L288.99668,447.40768L288.99668,447.16765L289.23671,447.16765
				L289.23671,446.92763L289.47674,446.92763L289.47674,446.6876L289.71677,446.6876L289.71677,446.44757L289.9568,446.44757L289.9568,446.20755
				L290.19683,446.20755L290.19683,445.96752L290.43686,445.96752L290.43686,445.7275L290.67689,445.7275L290.67689,445.48747L290.91692,445.48747
				L290.91692,445.24745L291.15695,445.24745L291.15695,445.00742L291.39698,445.00742L291.39698,444.7674L291.63701,444.7674L291.63701,444.52737
				L291.87704,444.52737L291.87704,444.28734L292.11707,444.28734L292.11707,444.04732L292.3571,444.04732L292.3571,443.80729L292.59713,443.80729
				L292.59713,443.56727L292.83716,443.56727L292.83716,443.32724L293.07719,443.32724L293.07719,443.08722L293.31722,443.08722
				L293.31722,442.84719L293.55725,442.84719L293.55725,442.60717L293.79728,442.60717L293.79728,442.36714L294.03731,442.36714
				L294.03731,442.12711L294.27735,442.12711L294.27735,441.88709L294.51738,441.88709L294.51738,441.64706L294.75741,441.64706
				L294.75741,441.40704L294.99744,441.40704L294.99744,441.16701L295.23747,441.16701L295.23747,440.92699L295.4775,440.92699L
				295.4775,440.68696L295.71753,440.68696L295.71753,440.44693L295.95756,440.44693L295.95756,440.20691L296.19759,440.20691L296.19759,439.96688
				L296.43762,439.96688L296.43762,439.72686L296.67765,439.72686L296.67765,439.48683L296.91768,439.48683L296.91768,439.24681
				L297.15771,439.24681L297.15771,439.00678L297.39774,439.00678L297.39774,438.76676L297.63777,438.76676L297.63777,438.52673
				L297.8778,438.52673L297.8778,438.2867L298.11783,438.2867L298.11783,438.04668L298.35786,438.04668L298.35786,437.80665L298.59789,437.80665
				L298.59789,437.56663L298.83792,437.56663L298.83792,437.3266L299.07795,437.3266L299.07795,437.08658L299.31798,437.08658L299.31798,436.84655
				L299.55802,436.84655L299.55802,436.60653L299.79805,436.60653L299.79805,436.3665L300.03808,436.3665L300.03808,436.12647L300.27811,436.12647
				L300.27811,435.88645L300.51814,435.88645L300.51814,435.64642L300.75817,435.64642L300.75817,435.4064L300.9982,435.4064L300.9982,435.16637
				L301.23823,435.16637L301.23823,434.92635L301.47826,434.92635L301.47826,434.68632L301.71829,434.68632L301.71829,434.4463L
				301.95832,434.4463L301.95832,434.20627L302.19835,434.20627L302.19835,433.96624L302.43838,433.96624L302.43838,433.72622L302.67841,433.72622
				L302.67841,433.24617L302.91844,433.24617L302.91844,433.00614L303.15847,433.00614L303.15847,432.76612L303.3985,432.76612L
				303.3985,432.52609L303.63853,432.52609L303.63853,432.28607L303.87856,432.28607L303.87856,432.04604L304.11859,432.04604L304.11859,431.80601
				L304.35862,431.80601L304.35862,431.56599L304.59865,431.56599L304.59865,431.32596L304.83869,431.32596L304.83869,431.08594
				L305.07872,431.08594L305.07872,430.84591L305.31875,430.84591L305.31875,430.60589L305.55878,430.60589L305.55878,430.36586
				L305.79881,430.36586L305.79881,430.12584L306.03884,430.12584L306.03884,429.88581L306.27887,429.88581L306.27887,429.40576
				L306.5189,429.40576L306.5189,429.16573L306.75893,429.16573L306.75893,428.68568L306.99896,428.68568L306.99896,424.1252L307.23899,424.1252
				L307.23899,418.36458L307.47902,418.36458L307.47902,418.12456L307.71905,418.12456L307.71905,417.88453L307.95908,417.88453
				L307.95908,414.52417L308.19911,414.52417L308.19911,405.4032L308.43914,405.4032L308.43914,405.16318L308.67917,405.16318L308.67917,404.92315
				L308.9192,404.92315L308.9192,404.68312L309.15923,404.68312L309.15923,404.20307L309.39926,404.20307L309.39926,403.96305L309.63929,403.96305
				L309.63929,403.72302L309.87933,403.72302L309.87933,403.483L310.11936,403.483L310.11936,403.24297L310.35939,403.24297L310.35939,403.00294
				L310.59942,403.00294L310.59942,402.76292L310.83945,402.76292L310.83945,402.52289L311.07948,402.52289L311.07948,402.28287
				L311.31951,402.28287L311.31951,402.04284L311.55954,402.04284L311.55954,401.80282L311.79957,401.80282L311.79957,401.56279
				L312.0396,401.56279L312.0396,401.32277L312.27963,401.32277L312.27963,401.08274L312.51966,401.08274L312.51966,400.84271L312.75969,400.84271
				L312.75969,400.60269L312.99972,400.60269L312.99972,400.36266L313.23975,400.36266L313.23975,400.12264L313.47978,400.12264
				L313.47978,399.88261L313.71981,399.88261L313.71981,399.64259L313.95984,399.64259L313.95984,399.40256L314.19987,399.40256
				L314.19987,399.16254L314.4399,399.16254L314.4399,398.92251L314.67993,398.92251L314.67993,398.68248L314.91996,398.68248L314.91996,398.44246
				L315.16,398.44246L315.16,398.20243L315.40003,398.20243L315.40003,397.72238L315.64006,397.72238L315.64006,397.48236L315.88009,397.48236
				L315.88009,397.24233L316.12012,397.24233L316.12012,397.00231L316.36015,397.00231L316.36015,396.76228L316.60018,396.76228
				L316.60018,396.52225L316.84021,396.52225L316.84021,396.28223L317.08024,396.28223L317.08024,396.0422L317.32027,396.0422L317.32027,395.80218
				L317.5603,395.80218L317.5603,395.56215L317.80033,395.56215L317.80033,395.32213L318.28039,395.32213L318.28039,395.0821L318.52042,395.0821
				L318.52042,394.84208L318.76045,394.84208L318.76045,394.60205L319.00048,394.60205L319.00048,394.36202L319.24051,394.36202
				L319.24051,394.122L319.48054,394.122L319.48054,393.88197L319.72057,393.88197L319.72057,393.64195L319.9606,393.64195L319.9606,393.40192
				L320.20063,393.40192L320.20063,393.1619L320.44067,393.1619L320.44067,392.92187L320.6807,392.92187L320.6807,392.44182L320.92073,392.44182
				L320.92073,385.24105L321.16076,385.24105L321.16076,385.00103L321.40079,385.00103L321.40079,384.761L321.64082,384.761L321.64082,384.52098
				L321.88085,384.52098L321.88085,384.28095L322.12088,384.28095L322.12088,382.12072L322.36091,382.12072L322.36091,381.88069
				L322.60094,381.88069L322.60094,381.64067L322.84097,381.64067L322.84097,381.40064L323.081,381.40064L323.081,381.16062L323.32103,381.16062
				L323.32103,380.92059L323.56106,380.92059L323.56106,380.68057L323.80109,380.68057L323.80109,380.44054L324.04112,380.44054
				L324.04112,380.20051L324.28115,380.20051L324.28115,379.96049L324.52118,379.96049L324.52118,379.72046L324.76121,379.72046
				L324.76121,379.48044L325.00124,379.48044L325.00124,379.24041L325.24127,379.24041L325.24127,379.00039L325.48131,379.00039
				L325.48131,378.76036L325.72134,378.76036L325.72134,378.52034L325.96137,378.52034L325.96137,378.28031L326.2014,378.28031L
				326.2014,378.04028L326.44143,378.04028L326.44143,377.80026L326.68146,377.80026L326.68146,377.32021L326.92149,377.32021L326.92149,377.08018
				L327.16152,377.08018L327.16152,376.84016L327.40155,376.84016L327.40155,376.60013L327.64158,376.60013L327.64158,376.12008
				L327.88161,376.12008L327.88161,375.88005L328.12164,375.88005L328.12164,375.64003L328.36167,375.64003L328.36167,375.15998
				L328.6017,375.15998L328.6017,374.91995L328.84173,374.91995L328.84173,374.67993L329.08176,374.67993L329.08176,374.19988L329.32179,374.19988
				L329.32179,373.95985L329.56182,373.95985L329.56182,373.4798L329.80185,373.4798L329.80185,373.23977L330.04188,373.23977L330.04188,372.75972
				L330.28191,372.75972L330.28191,372.5197L330.52194,372.5197L330.52194,372.03965L330.76198,372.03965L330.76198,371.79962L331.00201,371.79962
				L331.00201,371.31957L331.24204,371.31957L331.24204,371.07954L331.48207,371.07954L331.48207,370.59949L331.7221,370.59949L
				331.7221,370.35947L331.96213,370.35947L331.96213,369.87942L332.20216,369.87942L332.20216,369.63939L332.44219,369.63939L332.44219,369.15934
				L332.68222,369.15934L332.68222,368.91931L332.92225,368.91931L332.92225,368.43926L333.16228,368.43926L333.16228,368.19924
				L333.40231,368.19924L333.40231,367.71918L333.64234,367.71918L333.64234,367.23913L333.88237,367.23913L333.88237,366.99911
				L334.1224,366.99911L334.1224,366.51906L334.36243,366.51906L334.36243,366.27903L334.60246,366.27903L334.60246,365.79898L334.84249,365.79898
				L334.84249,365.31893L334.60246,365.31893L334.60246,365.0789L334.1224,365.0789L334.1224,364.83888L333.88237,364.83888L333.88237,364.59885
				L333.40231,364.59885L333.40231,364.35883L333.16228,364.35883L333.16228,364.1188L332.92225,364.1188L332.92225,363.87878L332.44219,363.87878
				L332.44219,363.63875L332.20216,363.63875L332.20216,363.39872L331.7221,363.39872L331.7221,363.1587L331.48207,363.1587L331.48207,362.91867
				L331.24204,362.91867L331.24204,362.67865L330.76198,362.67865L330.76198,362.1986L330.52194,362.1986L330.52194,361.95857L330.28191,361.95857
				L330.28191,361.71855L329.80185,361.71855L329.80185,361.47852L329.56182,361.47852L329.56182,361.23849L329.32179,361.23849
				L329.32179,360.99847L328.84173,360.99847L328.84173,360.75844L328.6017,360.75844L328.6017,360.51842L328.36167,360.51842L328.36167,360.27839
				L327.88161,360.27839L327.88161,360.03837L327.64158,360.03837L327.64158,359.79834L327.40155,359.79834L327.40155,359.55832
				L326.92149,359.55832L326.92149,359.31829L326.68146,359.31829L326.68146,359.07826L326.44143,359.07826L326.44143,358.83824
				L326.2014,358.83824L326.2014,358.35819L325.96137,358.35819L325.96137,357.87814L325.72134,357.87814L325.72134,357.39809L325.48131,357.39809
				L325.48131,356.91803L325.24127,356.91803L325.24127,356.43798L325.00124,356.43798L325.00124,355.95793L324.76121,355.95793
				L324.76121,355.23785L324.52118,355.23785L324.52118,354.7578L324.28115,354.7578L324.28115,354.27775L324.04112,354.27775L324.04112,353.7977
				L323.80109,353.7977L323.80109,353.31765L323.56106,353.31765L323.56106,352.8376L323.32103,352.8376L323.32103,352.35755L323.081,352.35755
				L323.081,351.8775L322.84097,351.8775L322.84097,351.15742L322.60094,351.15742L322.60094,350.67737L322.36091,350.67737L322.36091,350.19732
				L322.12088,350.19732L322.12088,349.71727L321.88085,349.71727L321.88085,349.23722L321.64082,349.23722L321.64082,348.51714
				L321.40079,348.51714L321.40079,348.03709L321.16076,348.03709L321.16076,347.55704L320.92073,347.55704L320.92073,347.07699
				L320.6807,347.07699L320.6807,346.59693L320.44067,346.59693L320.44067,345.87686L320.20063,345.87686L320.20063,345.15678L319.9606,345.15678
				L319.9606,344.4367L319.72057,344.4367L319.72057,343.71663L319.48054,343.71663L319.48054,342.75652L319.24051,342.75652L319.24051,342.03645
				L319.00048,342.03645L319.00048,341.31637L318.76045,341.31637L318.76045,340.35627L318.52042,340.35627L318.52042,339.63619
				L318.28039,339.63619L318.28039,338.91612L317.80033,338.91612L317.80033,337.95601L317.5603,337.95601L317.5603,337.47596L317.32027,337.47596
				L317.32027,336.75589L317.08024,336.75589L317.08024,336.27583L316.84021,336.27583L316.84021,335.55576L316.60018,335.55576
				L316.60018,335.07571L316.36015,335.07571L316.36015,334.59566L316.12012,334.59566L316.12012,334.35563L316.84021,334.35563
				L316.84021,334.1156L317.32027,334.1156L317.32027,333.87558L317.80033,333.87558L317.80033,333.63555L318.52042,333.63555L318.52042,333.39553
				L319.00048,333.39553L319.00048,333.1555L319.72057,333.1555L319.72057,332.91548L320.20063,332.91548L320.20063,332.67545L320.6807,332.67545
				L320.6807,332.43543L321.16076,332.43543L321.16076,332.1954L321.64082,332.1954L321.64082,331.95537L322.36091,331.95537L322.36091,331.71535
				L322.84097,331.71535L322.84097,331.47532L323.32103,331.47532L323.32103,331.2353L323.80109,331.2353L323.80109,330.99527L324.28115,330.99527
				L324.28115,330.75525L325.00124,330.75525L325.00124,330.51522L325.48131,330.51522L325.48131,330.27519L325.96137,330.27519
				L325.96137,330.03517L326.44143,330.03517L326.44143,329.79514L326.92149,329.79514L326.92149,329.55512L327.40155,329.55512
				L327.40155,329.31509L328.12164,329.31509L328.12164,329.07507L328.6017,329.07507L328.6017,328.83504L329.08176,328.83504L329.08176,328.59502
				L329.56182,328.59502L329.56182,328.35499L330.04188,328.35499L330.04188,328.11496L330.76198,328.11496L330.76198,327.87494
				L331.24204,327.87494L331.24204,327.63491L331.7221,327.63491L331.7221,327.39489L332.20216,327.39489L332.20216,327.15486L332.68222,327.15486
				L332.68222,326.67481L333.40231,326.67481L333.40231,326.43479L333.88237,326.43479L333.88237,326.19476L334.36243,326.19476
				L334.36243,325.95473L334.84249,325.95473L334.84249,325.71471L335.08252,325.71471L335.08252,456.0486L334.84249,456.0486L334.84249,456.52865
				L334.60246,456.52865L334.60246,456.76867L334.36243,456.76867L334.36243,457.0087L334.1224,457.0087L334.1224,457.48875L333.88237,457.48875
				L333.88237,457.72878L333.64234,457.72878L333.64234,457.9688L333.40231,457.9688L333.40231,458.44885L333.16228,458.44885L333.16228,458.68888
				L332.92225,458.68888L332.92225,458.9289L332.68222,458.9289L332.68222,459.40896L332.44219,459.40896L332.44219,459.64898L332.20216,459.64898
				L332.20216,460.12903L331.96213,460.12903L331.96213,460.60908L331.7221,460.60908L331.7221,460.84911L331.48207,460.84911L331.48207,461.32916
				L331.24204,461.32916L331.24204,461.56919L331.00201,461.56919L331.00201,461.80921L330.76198,461.80921L330.76198,462.04924
				L330.52194,462.04924L330.52194,462.28926L330.04188,462.28926L330.04188,462.52929L329.56182,462.52929L329.56182,462.76931
				L329.32179,462.76931L329.32179,463.00934L329.08176,463.00934L329.08176,463.24936L328.6017,463.24936L328.6017,463.48939L328.36167,463.48939
				L328.36167,463.72942L327.88161,463.72942L327.88161,463.96944L327.64158,463.96944L327.64158,464.20947L327.40155,464.20947
				L327.40155,464.44949L327.16152,464.44949L327.16152,464.92954L326.92149,464.92954L326.92149,465.40959L326.68146,465.40959
				L326.68146,465.64962L326.44143,465.64962L326.44143,466.12967L326.2014,466.12967L326.2014,466.3697L325.96137,466.3697L325.96137,466.84975
				L325.72134,466.84975L325.72134,467.3298L325.48131,467.3298L325.48131,467.56983L325.24127,467.56983L325.24127,468.04988L325.00124,468.04988
				L325.00124,468.2899L324.76121,468.2899L324.76121,468.76995L324.52118,468.76995L324.52118,469.49003L324.28115,469.49003L324.28115,469.73006
				L324.04112,469.73006L324.04112,470.45013L323.80109,470.45013L323.80109,470.93018L323.56106,470.93018L323.56106,471.41023
				L323.32103,471.41023L323.32103,471.65026L323.081,471.65026L323.081,472.13031L322.84097,472.13031L322.84097,472.61036L322.60094,472.61036
				L322.60094,473.33044L322.36091,473.33044L322.36091,473.81049L322.12088,473.81049L322.12088,474.05052L321.88085,474.05052
				L321.88085,474.53057L321.64082,474.53057L321.64082,475.01062L321.40079,475.01062L321.40079,475.49067L321.16076,475.49067
				L321.16076,475.97072L320.92073,475.97072L320.92073,476.21075L320.6807,476.21075L320.6807,476.6908L320.44067,476.6908L320.44067,476.93082
				L320.20063,476.93082L320.20063,477.17085L319.9606,477.17085L319.9606,477.41087L319.72057,477.41087L319.72057,477.6509L319.48054,477.6509
				L319.48054,477.89092L319.24051,477.89092L319.24051,478.37098L319.00048,478.37098L319.00048,478.611L318.76045,478.611L318.76045,479.09105
				L318.52042,479.09105L318.52042,479.5711L318.28039,479.5711L318.28039,480.29118L317.80033,480.29118L317.80033,480.77123L317.5603,480.77123
				L317.5603,481.25128L317.32027,481.25128L317.32027,481.73133L317.08024,481.73133L317.08024,482.21139L316.84021,482.21139L
				316.84021,482.45141L316.60018,482.45141L316.60018,482.93146L316.36015,482.93146L316.36015,483.41151L316.12012,483.41151L
				316.12012,483.65154L315.88009,483.65154L315.88009,483.89156L315.64006,483.89156L315.64006,484.37162L315.40003,484.37162L
				315.40003,484.61164L315.16,484.61164L315.16,485.09169L314.91996,485.09169L314.91996,485.57174L314.67993,485.57174L314.67993,485.81177
				L314.4399,485.81177L314.4399,486.29182L314.19987,486.29182L314.19987,486.77187L313.95984,486.77187L313.95984,487.25192L313.71981,487.25192
				L313.71981,487.972L313.47978,487.972L313.47978,488.45205L313.23975,488.45205L313.23975,489.17213L312.99972,489.17213L312.99972,489.65218
				L312.75969,489.65218L312.75969,490.61228L312.51966,490.61228L312.51966,491.09233L312.27963,491.09233L312.27963,491.33236
				L312.0396,491.33236L312.0396,491.81241L311.79957,491.81241L311.79957,492.05243L311.55954,492.05243L311.55954,492.53249L311.31951,492.53249
				L311.31951,492.77251L311.07948,492.77251L311.07948,493.25256L310.83945,493.25256L310.83945,493.73261L310.59942,493.73261
				L310.59942,493.97264L310.35939,493.97264L310.35939,494.21266L310.11936,494.21266L310.11936,494.69272L309.87933,494.69272
				L309.87933,494.93274L309.63929,494.93274L309.63929,495.17277L309.39926,495.17277L309.39926,495.65282L309.15923,495.65282
				L309.15923,495.89284L308.9192,495.89284L308.9192,496.37289L308.67917,496.37289L308.67917,496.61292L308.43914,496.61292L308.43914,497.09297
				L308.19911,497.09297L308.19911,497.57302L307.95908,497.57302L307.95908,497.81305L307.71905,497.81305L307.71905,498.2931L
				307.47902,498.2931L307.47902,498.53312L307.23899,498.53312L307.23899,499.01318L306.99896,499.01318L306.99896,499.2532L306.75893,499.2532
				L306.75893,499.49323L306.5189,499.49323L306.5189,499.73325L306.27887,499.73325L306.27887,499.97328L306.03884,499.97328L306.03884,500.2133
				L305.79881,500.2133L305.79881,500.45333L305.55878,500.45333L305.55878,500.69335L305.07872,500.69335L305.07872,500.93338L
				304.83869,500.93338L304.83869,501.17341L304.59865,501.17341L304.59865,501.41343L304.35862,501.41343L304.35862,501.65346L
				304.11859,501.65346L304.11859,501.89348L303.87856,501.89348L303.87856,502.13351L303.63853,502.13351L303.63853,502.37353L
				303.3985,502.37353L303.3985,502.61356L303.15847,502.61356L303.15847,502.85359L302.67841,502.85359L302.67841,503.09361L302.43838,503.09361
				L302.43838,503.33364L302.19835,503.33364L302.19835,503.81369L301.95832,503.81369L301.95832,504.05371L301.71829,504.05371
				L301.71829,504.29374L301.47826,504.29374L301.47826,505.01382L301.23823,505.01382L301.23823,505.25384L300.9982,505.25384L
				300.9982,505.73389L300.75817,505.73389L300.75817,505.97392L300.51814,505.97392L300.51814,506.45397L300.27811,506.45397L300.27811,506.69399
				L300.03808,506.69399L300.03808,506.93402L299.79805,506.93402"/>
			<path clip-path="url(#SVG_CP_2)" fill="none" stroke="#999999" stroke-width="0.96012" stroke-miterlimit="10" stroke-linecap="round" stroke-linejoin="round" d="
				M299.79805,506.93402L299.79805,507.41407L299.55802,507.41407L299.55802,507.6541L299.31798,507.6541L299.31798,507.89412L299.07795,507.89412
				L299.07795,508.13415L298.59789,508.13415L298.59789,508.37417L298.11783,508.37417L298.11783,508.6142L297.63777,508.6142L297.63777,508.85422
				L297.15771,508.85422L297.15771,509.09425L296.91768,509.09425L296.91768,509.33428L296.43762,509.33428L296.43762,509.5743L
				296.19759,509.5743L296.19759,509.81433L295.71753,509.81433L295.71753,510.05435L295.4775,510.05435L295.4775,510.29438L294.99744,510.29438
				L294.99744,510.5344L294.75741,510.5344L294.75741,510.77443L294.27735,510.77443L294.27735,511.01445L294.03731,511.01445L294.03731,511.25448
				L293.55725,511.25448L293.55725,511.49451L293.31722,511.49451L293.31722,511.73453L292.83716,511.73453L292.83716,511.97456
				L292.3571,511.97456L292.3571,512.21458L291.63701,512.21458L291.63701,512.45461L291.15695,512.45461L291.15695,512.69463L290.91692,512.69463
				L290.91692,512.93466L290.43686,512.93466L290.43686,513.17468L289.9568,513.17468L289.9568,513.41471L289.47674,513.41471L289.47674,513.65474
				L289.23671,513.65474L289.23671,513.89476L288.75664,513.89476L288.75664,514.13479L288.27658,514.13479L288.27658,514.37481
				L287.79652,514.37481L287.79652,514.61484L287.31646,514.61484L287.31646,514.85486L286.8364,514.85486L286.8364,515.09489L286.35634,515.09489
				L286.35634,515.33492L285.87628,515.33492L285.87628,515.57494L285.39622,515.57494L285.39622,515.81497L285.15619,515.81497
				L285.15619,516.05499L284.67613,516.05499L284.67613,516.29502L284.19607,516.29502L284.19607,516.53504L283.95604,516.53504
				L283.95604,516.77507L283.23594,516.77507L283.23594,517.01509L282.75588,517.01509L282.75588,517.25512L282.27582,517.25512
				L282.27582,517.49515L282.03579,517.49515L282.03579,517.73517L281.79576,517.73517L281.79576,518.21522L281.55573,518.21522
				L281.55573,518.45525L281.3157,518.45525L281.3157,518.69527L281.07567,518.69527L281.07567,518.9353L280.83564,518.9353L280.83564,519.41535
				L280.59561,519.41535L280.59561,517.01509L280.83564,517.01509L280.83564,514.61484L281.07567,514.61484L281.07567,512.21458
				L281.3157,512.21458L281.3157,508.85422L281.55573,508.85422L281.55573,504.05371L281.79576,504.05371L281.79576,501.89348L281.55573,501.89348
				L281.55573,500.2133L281.3157,500.2133L281.3157,499.01318L281.07567,499.01318L281.07567,497.333L280.83564,497.333L280.83564,495.65282
				L280.59561,495.65282L280.59561,494.45269L280.35558,494.45269L280.35558,493.49259L280.11555,493.49259L280.11555,492.53249
				L279.87552,492.53249L279.87552,491.57238L279.63549,491.57238L279.63549,491.09233L279.39546,491.09233L279.39546,490.37225
				L279.15543,490.37225L279.15543,489.8922L278.9154,489.8922L278.9154,489.17213L278.67537,489.17213L278.67537,488.69208L278.43533,488.69208
				L278.43533,487.972L278.1953,487.972L278.1953,487.49195L277.95527,487.49195L277.95527,486.77187L277.71524,486.77187L277.71524,486.29182
				L277.47521,486.29182L277.47521,485.81177L277.23518,485.81177L277.23518,485.09169L276.99515,485.09169L276.99515,484.61164
				L276.75512,484.61164L276.75512,483.89156L276.51509,483.89156L276.51509,483.41151L276.27506,483.41151L276.27506,482.93146
				L276.03503,482.93146L276.03503,482.21139L275.795,482.21139L275.795,481.73133L275.55497,481.73133L275.55497,481.01126L275.31494,481.01126
				L275.31494,480.53121L275.07491,480.53121L275.07491,479.81113L274.83488,479.81113L274.83488,479.09105L274.59485,479.09105
				L274.59485,478.611L274.35482,478.611L274.35482,477.89092L274.11479,477.89092L274.11479,477.17085L273.87476,477.17085L273.87476,476.6908
				L273.63473,476.6908L273.63473,475.97072L273.3947,475.97072L273.3947,475.25064L273.15466,475.25064L273.15466,474.53057L272.91463,474.53057
				L272.91463,473.81049L272.6746,473.81049L272.6746,472.85039L272.43457,472.85039L272.43457,472.13031L272.19454,472.13031L272.19454,471.41023
				L271.95451,471.41023L271.95451,470.69016L271.71448,470.69016L271.71448,469.97008L271.47445,469.97008L271.47445,469.25L271.23442,469.25
				L271.23442,468.2899L270.99439,468.2899L270.99439,467.80985L270.75436,467.80985L270.75436,467.08977L270.51433,467.08977L270.51433,466.60972
				L270.2743,466.60972L270.2743,466.12967L270.03427,466.12967L270.03427,465.88965"/>
		</g>
</g></svg>