<?xml version="1.0" encoding="utf-8" standalone="no"?>
<!-- Creator: ESRI ArcMap 10.0.0.2414 -->
<!DOCTYPE svg PUBLIC "-//W3C//DTD SVG 1.1//EN"  "http://www.w3.org/Graphics/SVG/1.1/DTD/svg11.dtd">
<svg width="595.50236pt" height="595.50236pt" viewBox="25 148.377955 545.50236 545.50236" enable-background="new 25 148.377955 545.50236 545.50236"
	version="1.1" xmlns="http://www.w3.org/2000/svg" xmlns:xlink="http://www.w3.org/1999/xlink" >
	<g id="Couches">
		<g id="cont_2">
			<path clip-path="url(#SVG_CP_2)" fill="none" stroke="#999999" stroke-width="0.96012" stroke-miterlimit="10" stroke-linecap="round" stroke-linejoin="round" d="
				M300.9982,390.04156L300.9982,389.56151L301.47826,389.56151L301.47826,390.04156L300.9982,390.04156"/>
			<path clip-path="url(#SVG_CP_2)" fill="none" stroke="#999999" stroke-width="0.96012" stroke-miterlimit="10" stroke-linecap="round" stroke-linejoin="round" d="
				M323.081,416.92443L323.081,415.96433L323.56106,415.96433L323.56106,416.44438L324.04112,416.44438L324.04112,417.40448L323.56106,417.40448
				L323.56106,416.92443L323.081,416.92443"/>
			<path clip-path="url(#SVG_CP_2)" fill="none" stroke="#999999" stroke-width="0.96012" stroke-miterlimit="10" stroke-linecap="round" stroke-linejoin="round" d="
				M325.24127,423.16509L325.24127,424.1252L324.76121,424.1252L324.76121,423.16509L325.24127,423.16509"/>
			<path clip-path="url(#SVG_CP_2)" fill="none" stroke="#999999" stroke-width="0.96012" stroke-miterlimit="10" stroke-linecap="round" stroke-linejoin="round" d="
				M328.36167,499.01318L328.36167,485.09169L327.64158,485.09169L327.64158,484.61164L327.16152,484.61164L327.16152,470.69016
				L326.68146,470.69016L326.68146,456.52865L326.2014,456.52865L326.2014,430.84591L325.72134,430.84591L325.72134,423.16509L325.24127,423.16509
				L325.24127,416.92443L324.76121,416.92443L324.76121,416.44438L324.04112,416.44438L324.04112,414.7642L323.56106,414.7642L323.56106,414.28415
				L323.081,414.28415L323.081,413.8041L322.60094,413.8041L322.60094,413.32404L322.12088,413.32404L322.12088,412.84399L321.64082,412.84399
				L321.64082,412.12392L321.16076,412.12392L321.16076,411.64387L320.44067,411.64387L320.44067,411.16381L319.9606,411.16381L
				319.9606,409.72366L319.48054,409.72366L319.48054,409.24361L319.00048,409.24361L319.00048,408.52353L318.52042,408.52353L318.52042,408.04348
				L318.04036,408.04348L318.04036,407.56343L317.32027,407.56343L317.32027,407.08338L316.84021,407.08338L316.84021,406.60333
				L316.36015,406.60333L316.36015,406.12328L315.88009,406.12328L315.88009,404.4431L315.40003,404.4431L315.40003,403.96305L314.91996,403.96305
				L314.91996,403.483L314.4399,403.483L314.4399,403.00294L313.71981,403.00294L313.71981,402.52289L313.23975,402.52289L313.23975,401.80282
				L312.75969,401.80282L312.75969,401.32277L312.27963,401.32277L312.27963,400.84271L311.79957,400.84271L311.79957,400.36266
				L311.31951,400.36266L311.31951,399.88261L310.59942,399.88261L310.59942,398.92251L310.11936,398.92251L310.11936,398.20243
				L309.63929,398.20243L309.63929,397.72238L309.15923,397.72238L309.15923,397.24233L308.67917,397.24233L308.67917,396.76228
				L308.19911,396.76228L308.19911,396.28223L307.71905,396.28223L307.71905,395.80218L306.99896,395.80218L306.99896,395.32213
				L306.5189,395.32213L306.5189,394.60205L306.03884,394.60205L306.03884,393.64195L305.55878,393.64195L305.55878,393.1619L305.07872,393.1619
				L305.07872,392.68185L304.59865,392.68185L304.59865,392.20179L304.11859,392.20179L304.11859,391.48172L303.3985,391.48172L
				303.3985,391.00167L302.91844,391.00167L302.91844,390.52161L302.43838,390.52161L302.43838,390.04156L301.95832,390.04156L301.95832,389.56151
				L301.47826,389.56151L301.47826,389.08146L300.9982,389.08146L300.9982,388.60141L300.27811,388.60141L300.27811,387.88133L299.79805,387.88133
				L299.79805,387.40128L299.31798,387.40128L299.31798,386.92123L298.83792,386.92123L298.83792,386.44118L298.35786,386.44118
				L298.35786,385.96113L297.8778,385.96113L297.8778,385.48108L297.39774,385.48108L297.39774,384.761L296.67765,384.761L296.67765,384.28095
				L296.19759,384.28095L296.19759,383.8009L295.71753,383.8009L295.71753,383.32085L295.23747,383.32085L295.23747,382.8408L294.75741,382.8408
				L294.75741,382.36075L294.27735,382.36075L294.27735,381.88069L293.79728,381.88069L293.79728,381.16062L293.07719,381.16062
				L293.07719,380.68057L292.59713,380.68057L292.59713,380.20051L292.11707,380.20051L292.11707,366.75908L291.63701,366.75908
				L291.63701,366.27903L291.15695,366.27903L291.15695,365.79898L290.67689,365.79898L290.67689,365.31893L289.9568,365.31893L
				289.9568,364.83888L289.47674,364.83888L289.47674,364.1188L288.99668,364.1188L288.99668,363.63875L288.51661,363.63875L288.51661,363.1587
				L288.03655,363.1587L288.03655,362.67865L287.55649,362.67865L287.55649,362.1986L287.07643,362.1986L287.07643,361.71855L286.35634,361.71855
				L286.35634,361.23849L285.87628,361.23849L285.87628,360.51842L285.39622,360.51842L285.39622,360.03837L284.91616,360.03837
				L284.91616,359.55832L284.4361,359.55832L284.4361,359.07826L283.95604,359.07826L283.95604,358.59821L283.23594,358.59821L283.23594,358.11816
				L282.75588,358.11816L282.75588,357.39809L282.27582,357.39809L282.27582,356.91803L281.79576,356.91803L281.79576,356.43798
				L281.3157,356.43798L281.3157,355.95793L280.83564,355.95793L280.83564,355.47788L280.35558,355.47788L280.35558,354.99783L279.63549,354.99783
				L279.63549,354.51778L279.15543,354.51778L279.15543,353.7977L278.67537,353.7977L278.67537,353.31765L278.1953,353.31765L278.1953,352.8376
				L277.71524,352.8376L277.71524,352.35755L277.23518,352.35755L277.23518,351.8775L276.75512,351.8775L276.75512,351.39745L276.03503,351.39745
				L276.03503,350.91739L275.55497,350.91739L275.55497,350.19732L275.07491,350.19732L275.07491,349.71727L274.59485,349.71727
				L274.59485,349.23722L274.11479,349.23722L274.11479,348.75716L273.63473,348.75716L273.63473,348.27711L272.91463,348.27711
				L272.91463,347.79706L272.43457,347.79706L272.43457,347.07699L271.95451,347.07699L271.95451,346.59693L271.47445,346.59693
				L271.47445,346.11688L270.99439,346.11688L270.99439,345.63683L270.51433,345.63683L270.51433,345.15678L270.03427,345.15678
				L270.03427,344.67673L269.31418,344.67673L269.31418,344.19668L268.83412,344.19668L268.83412,343.4766L268.35406,343.4766L268.35406,342.99655
				L267.87399,342.99655L267.87399,342.5165L268.83412,342.5165L268.83412,342.03645L270.03427,342.03645L270.03427,341.5564L270.51433,341.5564
				L270.51433,341.07635L271.47445,341.07635L271.47445,340.35627L271.95451,340.35627L271.95451,339.87622L272.91463,339.87622
				L272.91463,339.39617L273.63473,339.39617L273.63473,338.91612L274.59485,338.91612L274.59485,338.43606L275.55497,338.43606
				L275.55497,337.95601L276.03503,337.95601L276.03503,337.47596L277.23518,337.47596L277.23518,336.75589L277.71524,336.75589
				L277.71524,336.27583L278.67537,336.27583L278.67537,335.79578L279.15543,335.79578L279.15543,335.31573L280.35558,335.31573
				L280.35558,334.83568L281.3157,334.83568L281.3157,334.35563L281.79576,334.35563L281.79576,333.87558L282.75588,333.87558L282.75588,333.1555
				L283.95604,333.1555L283.95604,332.67545L284.4361,332.67545L284.4361,332.1954L285.39622,332.1954L285.39622,331.71535L286.35634,331.71535
				L286.35634,331.2353L287.55649,331.2353L287.55649,330.75525L288.51661,330.75525L288.51661,330.03517L288.99668,330.03517L288.99668,329.55512
				L289.9568,329.55512L289.9568,329.07507L291.15695,329.07507L291.15695,328.59502L292.11707,328.59502L292.11707,328.11496L293.07719,328.11496
				L293.07719,327.63491L294.27735,327.63491L294.27735,327.15486L295.23747,327.15486L295.23747,326.43479L296.19759,326.43479
				L296.19759,325.95473L297.39774,325.95473L297.39774,325.47468L298.35786,325.47468L298.35786,324.99463L299.31798,324.99463
				L299.31798,324.51458L300.9982,324.51458L300.9982,324.03453L301.95832,324.03453L301.95832,323.55448L303.3985,323.55448L303.3985,322.8344
				L304.59865,322.8344L304.59865,322.35435L305.55878,322.35435L305.55878,321.8743L306.5189,321.8743L306.5189,321.39425L309.15923,321.39425
				L309.15923,320.9142L311.31951,320.9142L311.31951,320.43415L313.23975,320.43415L313.23975,319.71407L315.88009,319.71407L315.88009,319.23402
				L318.04036,319.23402L318.04036,318.75397L319.9606,318.75397L319.9606,318.27392L322.60094,318.27392L322.60094,317.79386L324.76121,317.79386
				L324.76121,317.31381L326.68146,317.31381L326.68146,316.83376L329.32179,316.83376L329.32179,316.11369L331.48207,316.11369
				L331.48207,315.63363L333.40231,315.63363L333.40231,315.15358L335.56258,315.15358L335.56258,314.67353L337.48283,314.67353
				L337.48283,314.19348L338.68298,314.19348L338.68298,313.71343L339.6431,313.71343L339.6431,312.99335L340.60322,312.99335L340.60322,312.5133
				L341.80338,312.5133L341.80338,312.03325L342.7635,312.03325L342.7635,311.5532L344.20368,311.5532L344.20368,311.07315L345.40383,311.07315
				L345.40383,310.5931L346.36396,310.5931L346.36396,310.11305L347.32408,310.11305L347.32408,309.39297L348.52423,309.39297L348.52423,308.91292
				L349.48435,308.91292L349.48435,308.43287L350.44447,308.43287L350.44447,307.95282L352.12469,307.95282L352.12469,307.47277
				L353.08481,307.47277L353.08481,306.99271L354.04493,306.99271L354.04493,306.51266L355.00505,306.51266L355.00505,305.79259
				L356.2052,305.79259L356.2052,305.31253L357.16533,305.31253L357.16533,304.83248L358.84554,304.83248L358.84554,304.35243L359.80566,304.35243
				L359.80566,303.87238L360.76578,303.87238L360.76578,303.39233L361.7259,303.39233L361.7259,302.67225L362.92606,302.67225L362.92606,302.1922
				L363.88618,302.1922L363.88618,301.71215L365.56639,301.71215L365.56639,301.2321L366.52651,301.2321L366.52651,300.75205L367.48664,300.75205
				L367.48664,300.272L368.44676,300.272L368.44676,299.79195L369.64691,299.79195L369.64691,299.07187L370.60703,299.07187L370.60703,298.59182
				L371.56715,298.59182L371.56715,298.11177L373.24737,298.11177L373.24737,297.63172L374.20749,297.63172L374.20749,297.15167
				L375.16761,297.15167L375.16761,296.67161L376.36776,296.67161L376.36776,296.19156L377.32788,296.19156L377.32788,295.47149
				L378.28801,295.47149L378.28801,294.99144L379.48816,294.99144L379.48816,294.51138L380.44828,294.51138L380.44828,294.03133
				L381.4084,294.03133L381.4084,293.55128L382.36852,293.55128L382.36852,293.07123L383.56868,293.07123L383.56868,292.35115L384.5288,292.35115
				L384.5288,291.8711L385.48892,291.8711L385.48892,291.39105L386.68907,291.39105L386.68907,290.911L387.64919,290.911L387.64919,290.43095
				L388.60932,290.43095L388.60932,289.9509L389.80947,289.9509L389.80947,289.47085L390.76959,289.47085L390.76959,288.75077L391.72971,288.75077
				L391.72971,288.27072L392.92986,288.27072L392.92986,287.79067L393.88999,287.79067L393.88999,287.31062L394.85011,287.31062
				L394.85011,286.83057L395.81023,286.83057L395.81023,286.35051L397.01038,286.35051L397.01038,285.63044L397.9705,285.63044L
				397.9705,285.15039L398.93063,285.15039L398.93063,284.67034L400.13078,284.67034L400.13078,284.19028L401.0909,284.19028L401.0909,283.71023
				L402.05102,283.71023L402.05102,283.23018L403.25117,283.23018L403.25117,282.75013L404.2113,282.75013L404.2113,282.03005L405.17142,282.03005
				L405.17142,281.55L406.13154,281.55L406.13154,281.06995L407.33169,281.06995L407.33169,280.5899L408.29181,280.5899L408.29181,280.10985
				L409.25194,280.10985L409.25194,279.6298L410.45209,279.6298L410.45209,279.14975L411.41221,279.14975L411.41221,278.42967L412.37233,278.42967
				L412.37233,277.94962L413.57248,277.94962L413.57248,277.46957L414.53261,277.46957L414.53261,276.98952L415.01267,276.98952
				L415.01267,276.50947L415.97279,276.50947L415.97279,276.02941L417.17294,276.02941L417.17294,275.30934L417.653,275.30934L417.653,274.82929
				L418.61312,274.82929L418.61312,274.34924L419.09318,274.34924L419.09318,273.86918L420.29334,273.86918L420.29334,273.38913
				L421.25346,273.38913L421.25346,272.90908L421.73352,272.90908L421.73352,272.42903L422.69364,272.42903L422.69364,271.70895
				L423.89379,271.70895L423.89379,271.2289L424.37385,271.2289L424.37385,270.74885L425.33398,270.74885L425.33398,270.2688L425.81404,270.2688
				L425.81404,269.78875L426.77416,269.78875L426.77416,269.3087L427.97431,269.3087L427.97431,268.58862L428.45437,268.58862L428.45437,268.10857
				L429.41449,268.10857L429.41449,267.62852L430.61465,267.62852L430.61465,267.14847L431.09471,267.14847L431.09471,266.66842
				L432.05483,266.66842L432.05483,266.18837L433.01495,266.18837L433.01495,265.70831L433.49501,265.70831L433.49501,264.98824
				L434.69516,264.98824L434.69516,264.50819L435.17523,264.50819L435.17523,264.02814L436.13535,264.02814L436.13535,263.54808
				L437.3355,263.54808L437.3355,263.06803L437.81556,263.06803L437.81556,262.58798L438.77568,262.58798L438.77568,262.10793L439.25574,262.10793
				L439.25574,261.38785L439.7358,261.38785L439.7358,260.9078L440.93596,260.9078L440.93596,260.42775L441.41602,260.42775L441.41602,259.9477
				L441.89608,259.9477L441.89608,259.46765L442.37614,259.46765L442.37614,258.9876L442.8562,258.9876L442.8562,258.26752L443.33626,258.26752
				L443.33626,257.78747L444.53641,257.78747L444.53641,257.30742L445.01647,257.30742L445.01647,256.82737L445.49654,256.82737
				L445.49654,256.34732L445.9766,256.34732L445.9766,255.86727L446.45666,255.86727L446.45666,255.38721L446.93672,255.38721L446.93672,254.66714
				L448.13687,254.66714L448.13687,254.18709L448.61693,254.18709L448.61693,253.70704L449.09699,253.70704L449.09699,253.22698
				L449.57705,253.22698L449.57705,252.74693L450.05711,252.74693L450.05711,252.26688L450.53717,252.26688L450.53717,251.78683
				L451.73733,251.78683L451.73733,251.06675L452.21739,251.06675L452.21739,250.5867L452.69745,250.5867L452.69745,250.10665L453.17751,250.10665
				L453.17751,249.6266L453.65757,249.6266L453.65757,249.14655L454.13763,249.14655L454.13763,248.6665L455.33778,248.6665L455.33778,247.94642
				L455.81785,247.94642L455.81785,247.46637L456.29791,247.46637L456.29791,246.98632L456.77797,246.98632L456.77797,246.50627
				L457.25803,246.50627L457.25803,246.02622L457.97812,246.02622L457.97812,245.54617L458.93824,245.54617L458.93824,245.06611
				L459.4183,245.06611L459.4183,244.34604L459.89836,244.34604L459.89836,243.86599L460.37842,243.86599L460.37842,243.38594L460.85848,243.38594
				L460.85848,242.90588L461.57858,242.90588L461.57858,244.34604L460.85848,244.34604L460.85848,246.02622L460.37842,246.02622
				L460.37842,246.50627L459.89836,246.50627L459.89836,247.46637L459.4183,247.46637L459.4183,247.94642L458.45818,247.94642L458.45818,249.14655
				L457.97812,249.14655L457.97812,249.6266L457.25803,249.6266L457.25803,250.10665L456.77797,250.10665L456.77797,250.5867L456.29791,250.5867
				L456.29791,251.06675L455.81785,251.06675L455.81785,252.26688L455.33778,252.26688L455.33778,252.74693L454.85772,252.74693
				L454.85772,253.22698L454.13763,253.22698L454.13763,253.70704L453.65757,253.70704L453.65757,254.18709L453.17751,254.18709
				L453.17751,254.66714L452.69745,254.66714L452.69745,255.38721L452.21739,255.38721L452.21739,255.86727L451.73733,255.86727
				L451.73733,256.82737L450.53717,256.82737L450.53717,257.78747L450.05711,257.78747L450.05711,258.9876L449.09699,258.9876L449.09699,259.46765
				L448.61693,259.46765L448.61693,259.9477L448.13687,259.9477L448.13687,260.9078L447.65681,260.9078L447.65681,261.38785L446.93672,261.38785
				L446.93672,262.10793L446.45666,262.10793L446.45666,262.58798L445.9766,262.58798L445.9766,263.06803L445.49654,263.06803L445.49654,264.02814
				L445.01647,264.02814L445.01647,264.50819L444.53641,264.50819L444.53641,264.98824L443.81632,264.98824L443.81632,265.70831
				L443.33626,265.70831L443.33626,266.18837L442.8562,266.18837L442.8562,267.14847L442.37614,267.14847L442.37614,267.62852L441.89608,267.62852
				L441.89608,268.10857L441.41602,268.10857L441.41602,268.58862L440.93596,268.58862L440.93596,269.3087L440.21587,269.3087L440.21587,269.78875
				L439.7358,269.78875L439.7358,270.2688L439.25574,270.2688L439.25574,270.74885L438.77568,270.74885L438.77568,271.2289L438.29562,271.2289
				L438.29562,272.42903L437.81556,272.42903L437.81556,272.90908L437.3355,272.90908L437.3355,273.38913L436.61541,273.38913L436.61541,273.86918
				L436.13535,273.86918L436.13535,274.34924L435.65529,274.34924L435.65529,274.82929L435.17523,274.82929L435.17523,282.03005
				L434.69516,282.03005L434.69516,283.23018L435.17523,283.23018L435.17523,286.83057L435.65529,286.83057L435.65529,288.27072
				L435.17523,288.27072L435.17523,290.43095L435.65529,290.43095L435.65529,295.47149L436.13535,295.47149L436.13535,298.59182
				L436.61541,298.59182L436.61541,301.71215L436.13535,301.71215L436.13535,304.35243L435.65529,304.35243L435.65529,318.75397
				L436.13535,318.75397L436.13535,322.8344L436.61541,322.8344L436.61541,335.31573L437.3355,335.31573L437.3355,335.79578L436.61541,335.79578
				L436.61541,340.35627L436.13535,340.35627L436.13535,344.19668L435.65529,344.19668L435.65529,348.27711L436.13535,348.27711
				L436.13535,359.07826L436.61541,359.07826L436.61541,372.5197L436.13535,372.5197L436.13535,376.60013L435.65529,376.60013L435.65529,378.76036
				L435.17523,378.76036L435.17523,379.72046L434.69516,379.72046L434.69516,381.88069L434.2151,381.88069L434.2151,383.32085L433.49501,383.32085
				L433.49501,384.761L433.01495,384.761L433.01495,386.44118L432.53489,386.44118L432.53489,388.60141L432.05483,388.60141L432.05483,390.04156
				L431.57477,390.04156L431.57477,391.48172L431.09471,391.48172L431.09471,393.1619L430.61465,393.1619L430.61465,394.122L429.89456,394.122
				L429.89456,396.28223L429.41449,396.28223L429.41449,397.24233L428.93443,397.24233L428.93443,399.40256L428.45437,399.40256
				L428.45437,400.84271L427.97431,400.84271L427.97431,402.52289L427.49425,402.52289L427.49425,403.96305L426.77416,403.96305
				L426.77416,405.64323L426.2941,405.64323L426.2941,406.60333L425.81404,406.60333L425.81404,408.04348L425.33398,408.04348L425.33398,409.24361
				L424.85392,409.24361L424.85392,410.68376L424.37385,410.68376L424.37385,411.64387L423.89379,411.64387L423.89379,413.32404
				L423.1737,413.32404L423.1737,414.7642L422.69364,414.7642L422.69364,415.96433L422.21358,415.96433L422.21358,417.40448L421.73352,417.40448
				L421.73352,418.36458L421.25346,418.36458L421.25346,419.56471L420.7734,419.56471L420.7734,420.52481L420.29334,420.52481L420.29334,421.96497
				L419.57325,421.96497L419.57325,423.16509L419.09318,423.16509L419.09318,424.1252L418.61312,424.1252L418.61312,425.0853L418.13306,425.0853
				L418.13306,426.76548L417.653,426.76548L417.653,427.72558L417.17294,427.72558L417.17294,428.68568L416.45285,428.68568L416.45285,429.88581
				L415.97279,429.88581L415.97279,430.84591L415.49273,430.84591L415.49273,431.80601L415.01267,431.80601L415.01267,433.48619
				L414.53261,433.48619L414.53261,434.4463L414.05254,434.4463L414.05254,435.4064L413.57248,435.4064L413.57248,436.60653L412.85239,436.60653
				L412.85239,437.56663L412.37233,437.56663L412.37233,438.52673L411.89227,438.52673L411.89227,440.20691L411.41221,440.20691
				L411.41221,441.16701L410.93215,441.16701L410.93215,442.12711L410.45209,442.12711L410.45209,443.32724L409.97203,443.32724
				L409.97203,444.28734L409.25194,444.28734L409.25194,445.24745L408.77187,445.24745L408.77187,446.20755L408.29181,446.20755
				L408.29181,447.40768L407.81175,447.40768L407.81175,448.36778L407.33169,448.36778L407.33169,449.32788L406.85163,449.32788
				L406.85163,450.04796L406.13154,450.04796L406.13154,451.00806L405.65148,451.00806L405.65148,451.48811L405.17142,451.48811
				L405.17142,451.96816L404.69136,451.96816L404.69136,452.92826L404.2113,452.92826L404.2113,453.64834L403.73124,453.64834L403.73124,454.12839
				L403.25117,454.12839L403.25117,454.60844L402.53108,454.60844L402.53108,455.56855L402.05102,455.56855L402.05102,456.0486L
				401.57096,456.0486L401.57096,456.52865L401.0909,456.52865L401.0909,457.24873L400.61084,457.24873L400.61084,458.20883L400.13078,458.20883
				L400.13078,458.68888L399.41069,458.68888L399.41069,459.16893L398.93063,459.16893L398.93063,460.36906L398.45057,460.36906
				L398.45057,460.84911L397.9705,460.84911L397.9705,461.32916L397.49044,461.32916L397.49044,462.28926L397.01038,462.28926L397.01038,462.76931
				L396.53032,462.76931L396.53032,463.24936L395.81023,463.24936L395.81023,464.44949L395.33017,464.44949L395.33017,464.92954
				L394.85011,464.92954L394.85011,465.40959L394.37005,465.40959L394.37005,465.88965L393.88999,465.88965L393.88999,466.84975
				L393.40993,466.84975L393.40993,467.56983L392.92986,467.56983L392.92986,468.04988L392.20977,468.04988L392.20977,469.00998
				L391.72971,469.00998L391.72971,469.49003L391.24965,469.49003L391.24965,470.69016L390.76959,470.69016L390.76959,472.13031
				L390.28953,472.13031L390.28953,473.09041L389.80947,473.09041L389.80947,474.77059L389.08938,474.77059L389.08938,475.73069
				L388.60932,475.73069L388.60932,477.41087L388.12926,477.41087L388.12926,478.37098L387.64919,478.37098L387.64919,479.33108
				L387.16913,479.33108L387.16913,481.01126L386.68907,481.01126L386.68907,481.97136L386.20901,481.97136L386.20901,483.41151
				L385.48892,483.41151L385.48892,484.61164L385.00886,484.61164L385.00886,486.05179L384.5288,486.05179L384.5288,487.0119L384.04874,487.0119
				L384.04874,488.69208L383.56868,488.69208L383.56868,489.65218L383.08862,489.65218L383.08862,491.33236L382.36852,491.33236
				L382.36852,492.29246L381.88846,492.29246L381.88846,493.73261L381.4084,493.73261L381.4084,494.93274L380.92834,494.93274L380.92834,496.37289
				L380.44828,496.37289L380.44828,497.333L379.96822,497.333L379.96822,498.53312L379.48816,498.53312L379.48816,499.97328L378.76807,499.97328
				L378.76807,500.93338L378.28801,500.93338L378.28801,502.61356L377.80795,502.61356L377.80795,503.57366L377.32788,503.57366
				L377.32788,505.25384L376.84782,505.25384L376.84782,506.21394L376.36776,506.21394L376.36776,507.17405L375.8877,507.17405L
				375.8877,508.85422L375.16761,508.85422L375.16761,509.81433L374.68755,509.81433L374.68755,511.25448L374.20749,511.25448L374.20749,512.93466
				L373.72743,512.93466L373.72743,513.89476L373.24737,513.89476L373.24737,515.09489L372.76731,515.09489L372.76731,516.53504
				L372.04721,516.53504L372.04721,517.49515L371.56715,517.49515L371.56715,518.69527L371.08709,518.69527L371.08709,520.13543
				L370.60703,520.13543L370.60703,521.09553L370.12697,521.09553L370.12697,522.77571L369.64691,522.77571L369.64691,523.73581
				L369.16685,523.73581L369.16685,527.33619L369.64691,527.33619L369.64691,529.01637L370.12697,529.01637L370.12697,531.41663
				L370.60703,531.41663L370.60703,533.09681L371.08709,533.09681L371.08709,533.57686"/>
			<path clip-path="url(#SVG_CP_2)" fill="none" stroke="#999999" stroke-width="0.96012" stroke-miterlimit="10" stroke-linecap="round" stroke-linejoin="round" d="
				M371.08709,533.57686L371.56715,533.57686L371.56715,534.05691L373.24737,534.05691L373.24737,534.53696L373.72743,534.53696
				L373.72743,535.01701L374.20749,535.01701L374.20749,535.73709L375.8877,535.73709L375.8877,536.21714L376.36776,536.21714L376.36776,536.69719
				L377.80795,536.69719L377.80795,537.17724L378.28801,537.17724L378.28801,537.65729L379.48816,537.65729L379.48816,538.13734
				L380.44828,538.13734L380.44828,538.6174L381.4084,538.6174L381.4084,539.33747L381.88846,539.33747L381.88846,539.81752L383.08862,539.81752
				L383.08862,540.29758L384.04874,540.29758L384.04874,540.77763L385.00886,540.77763L385.00886,541.25768L386.20901,541.25768
				L386.20901,541.73773L386.68907,541.73773L386.68907,541.25768L389.08938,541.25768L389.08938,540.77763L392.20977,540.77763
				L392.20977,540.29758L403.73124,540.29758L403.73124,539.81752L405.65148,539.81752L405.65148,540.29758L406.13154,540.29758
				L406.13154,539.81752L406.85163,539.81752L406.85163,540.29758L408.29181,540.29758L408.29181,540.77763L409.25194,540.77763
				L409.25194,541.25768L410.93215,541.25768L410.93215,541.73773L411.89227,541.73773L411.89227,542.45781L412.37233,542.45781
				L412.37233,542.93786L412.85239,542.93786L412.85239,543.41791L413.57248,543.41791L413.57248,543.89796L414.05254,543.89796
				L414.05254,544.37801L414.53261,544.37801L414.53261,544.85806L415.01267,544.85806L415.01267,546.05819L415.49273,546.05819
				L415.49273,546.53824L415.97279,546.53824L415.97279,547.01829L416.45285,547.01829L416.45285,547.49834L417.17294,547.49834
				L417.17294,547.97839L417.653,547.97839L417.653,548.45844L418.13306,548.45844L418.13306,549.17852L418.61312,549.17852L418.61312,549.65857
				L419.09318,549.65857L419.09318,550.13862L419.57325,550.13862L419.57325,550.61867L420.29334,550.61867L420.29334,551.09873
				L421.25346,551.09873L421.25346,551.57878L423.89379,551.57878L423.89379,552.05883L425.81404,552.05883L425.81404,552.77891
				L432.53489,552.77891L432.53489,552.05883L437.81556,552.05883L437.81556,551.57878L446.93672,551.57878L446.93672,552.05883
				L450.05711,552.05883L450.05711,552.77891L452.21739,552.77891L452.21739,553.25896L451.25727,553.25896L451.25727,553.73901
				L450.05711,553.73901L450.05711,554.21906L449.09699,554.21906L449.09699,554.69911L447.65681,554.69911L447.65681,555.17916
				L446.45666,555.17916L446.45666,555.65921L445.49654,555.65921L445.49654,556.37929L443.81632,556.37929L443.81632,556.85934
				L442.8562,556.85934L442.8562,557.33939L441.89608,557.33939L441.89608,557.81944L440.93596,557.81944L440.93596,558.29949L439.25574,558.29949
				L439.25574,558.77954L438.29562,558.77954L438.29562,559.49962L437.3355,559.49962L437.3355,559.97967L435.65529,559.97967L435.65529,560.45972
				L434.69516,560.45972L434.69516,560.93977L433.49501,560.93977L433.49501,561.41983L432.53489,561.41983L432.53489,561.89988
				L431.09471,561.89988L431.09471,562.37993L429.89456,562.37993L429.89456,563.1L428.93443,563.1L428.93443,563.58006L427.97431,563.58006
				L427.97431,564.06011L425.81404,564.06011L425.81404,564.54016L423.1737,564.54016L423.1737,564.06011L422.69364,564.06011L422.69364,563.58006
				L422.21358,563.58006L422.21358,563.1L421.73352,563.1L421.73352,562.37993L421.25346,562.37993L421.25346,561.89988L420.7734,561.89988
				L420.7734,561.41983L419.57325,561.41983L419.57325,560.93977L419.09318,560.93977L419.09318,560.45972L418.61312,560.45972L
				418.61312,559.97967L418.13306,559.97967L418.13306,559.49962L417.653,559.49962L417.653,558.77954L417.17294,558.77954L417.17294,558.29949
				L416.45285,558.29949L416.45285,557.81944L415.97279,557.81944L415.97279,557.33939L415.01267,557.33939L415.01267,556.85934
				L414.53261,556.85934L414.53261,556.37929L414.05254,556.37929L414.05254,555.65921L413.57248,555.65921L413.57248,555.17916
				L412.85239,555.17916L412.85239,554.69911L412.37233,554.69911L412.37233,554.21906L411.41221,554.21906L411.41221,553.73901
				L410.45209,553.73901L410.45209,553.25896L409.25194,553.25896L409.25194,552.77891L408.29181,552.77891L408.29181,552.05883
				L407.81175,552.05883L407.81175,551.57878L406.85163,551.57878L406.85163,551.09873L405.65148,551.09873L405.65148,550.61867
				L404.69136,550.61867L404.69136,550.13862L397.49044,550.13862L397.49044,550.61867L393.40993,550.61867L393.40993,551.09873
				L392.92986,551.09873L392.92986,551.57878L391.72971,551.57878L391.72971,552.05883L390.76959,552.05883L390.76959,552.77891
				L389.80947,552.77891L389.80947,553.25896L388.60932,553.25896L388.60932,553.73901L387.64919,553.73901L387.64919,554.21906
				L386.68907,554.21906L386.68907,554.69911L385.48892,554.69911L385.48892,555.17916L384.5288,555.17916L384.5288,555.65921L383.56868,555.65921
				L383.56868,556.37929L382.36852,556.37929L382.36852,556.85934L381.4084,556.85934L381.4084,557.33939L380.44828,557.33939L380.44828,557.81944
				L379.48816,557.81944L379.48816,558.29949L378.28801,558.29949L378.28801,558.77954L377.32788,558.77954L377.32788,559.49962
				L376.36776,559.49962L376.36776,559.97967L375.16761,559.97967L375.16761,560.45972L374.20749,560.45972L374.20749,560.93977
				L373.24737,560.93977L373.24737,561.41983L372.04721,561.41983L372.04721,561.89988L371.56715,561.89988L371.56715,562.37993
				L370.60703,562.37993L370.60703,563.1L369.64691,563.1L369.64691,563.58006L368.44676,563.58006L368.44676,564.06011L367.48664,564.06011
				L367.48664,564.54016L366.52651,564.54016L366.52651,565.02021L365.56639,565.02021L365.56639,565.50026L364.36624,565.50026
				L364.36624,565.98031L363.40612,565.98031L363.40612,566.70039L362.446,566.70039L362.446,567.18044L361.24584,567.18044L361.24584,567.66049
				L360.28572,567.66049L360.28572,568.14054L359.3256,568.14054L359.3256,568.62059L358.12545,568.62059L358.12545,567.66049L357.64539,567.66049
				L357.64539,565.98031L357.16533,565.98031L357.16533,565.02021L356.68526,565.02021L356.68526,564.06011L356.2052,564.06011L
				356.2052,562.37993L355.72514,562.37993L355.72514,561.41983L355.00505,561.41983L355.00505,560.45972L354.52499,560.45972L354.52499,558.77954
				L354.04493,558.77954L354.04493,557.81944L353.56487,557.81944L353.56487,556.85934L353.08481,556.85934L353.08481,555.17916
				L352.60475,555.17916L352.60475,554.21906L352.12469,554.21906L352.12469,553.25896L351.40459,553.25896L351.40459,551.57878
				L350.92453,551.57878L350.92453,550.61867L350.44447,550.61867L350.44447,549.65857L349.96441,549.65857L349.96441,547.97839
				L349.48435,547.97839L349.48435,547.01829L349.00429,547.01829L349.00429,546.05819L348.52423,546.05819L348.52423,544.85806
				L347.80414,544.85806L347.80414,543.41791L347.32408,543.41791L347.32408,542.45781L346.84402,542.45781L346.84402,541.25768
				L346.36396,541.25768L346.36396,539.81752L345.88389,539.81752L345.88389,538.6174L345.40383,538.6174L345.40383,537.65729L344.68374,537.65729
				L344.68374,536.21714L344.20368,536.21714L344.20368,535.01701L343.72362,535.01701L343.72362,534.05691L343.24356,534.05691
				L343.24356,532.61676L342.7635,532.61676L342.7635,531.41663L342.28344,531.41663L342.28344,530.45653L341.80338,530.45653L341.80338,529.01637
				L341.08328,529.01637L341.08328,527.81625L340.60322,527.81625L340.60322,526.85614L340.12316,526.85614L340.12316,525.41599
				L339.6431,525.41599L339.6431,524.21586L339.16304,524.21586L339.16304,523.25576L338.68298,523.25576L338.68298,521.81561L338.20292,521.81561
				L338.20292,520.61548L337.48283,520.61548L337.48283,519.65538L337.00277,519.65538L337.00277,517.9752L336.52271,517.9752L336.52271,517.01509
				L336.04265,517.01509L336.04265,516.05499L335.56258,516.05499L335.56258,514.37481L335.08252,514.37481L335.08252,513.41471
				L334.36243,513.41471L334.36243,512.45461L333.88237,512.45461L333.88237,511.25448L333.40231,511.25448L333.40231,509.81433
				L332.92225,509.81433L332.92225,508.85422L332.44219,508.85422L332.44219,507.6541L331.96213,507.6541L331.96213,506.21394L331.48207,506.21394
				L331.48207,505.25384L330.76198,505.25384L330.76198,504.05371L330.28191,504.05371L330.28191,502.61356L329.80185,502.61356
				L329.80185,501.65346L329.32179,501.65346L329.32179,500.45333L328.84173,500.45333L328.84173,499.01318L328.36167,499.01318
				"/>
			<path clip-path="url(#SVG_CP_2)" fill="none" stroke="#999999" stroke-width="0.96012" stroke-miterlimit="10" stroke-linecap="round" stroke-linejoin="round" d="
				M267.87399,342.99655L267.87399,343.4766L268.35406,343.4766L268.35406,344.19668L268.83412,344.19668L268.83412,344.67673L269.31418,344.67673
				L269.31418,345.15678L270.03427,345.15678L270.03427,345.63683L270.51433,345.63683L270.51433,346.11688L270.99439,346.11688
				L270.99439,346.59693L271.47445,346.59693L271.47445,347.07699L271.95451,347.07699L271.95451,347.79706L272.43457,347.79706
				L272.43457,348.27711L272.91463,348.27711L272.91463,348.75716L273.63473,348.75716L273.63473,349.23722L274.11479,349.23722
				L274.11479,349.71727L274.59485,349.71727L274.59485,350.19732L275.07491,350.19732L275.07491,350.91739L275.55497,350.91739
				L275.55497,351.39745L276.03503,351.39745L276.03503,351.8775L276.75512,351.8775L276.75512,352.35755L277.23518,352.35755L277.23518,352.8376
				L277.71524,352.8376L277.71524,353.31765L278.1953,353.31765L278.1953,353.7977L278.67537,353.7977L278.67537,354.51778L279.15543,354.51778
				L279.15543,354.99783L279.63549,354.99783L279.63549,355.47788L280.35558,355.47788L280.35558,355.95793L280.83564,355.95793
				L280.83564,356.43798L281.3157,356.43798L281.3157,356.91803L281.79576,356.91803L281.79576,357.39809L282.27582,357.39809L282.27582,358.11816
				L282.75588,358.11816L282.75588,358.59821L283.23594,358.59821L283.23594,359.07826L283.95604,359.07826L283.95604,359.55832
				L284.4361,359.55832L284.4361,360.03837L284.91616,360.03837L284.91616,360.51842L285.39622,360.51842L285.39622,361.23849L285.87628,361.23849
				L285.87628,361.71855L286.35634,361.71855L286.35634,362.1986L287.07643,362.1986L287.07643,362.67865L287.55649,362.67865L287.55649,363.1587
				L288.03655,363.1587L288.03655,363.63875L288.51661,363.63875L288.51661,364.1188L288.99668,364.1188L288.99668,364.83888L289.47674,364.83888
				L289.47674,365.31893L289.9568,365.31893L289.9568,365.79898L290.67689,365.79898L290.67689,366.27903L291.15695,366.27903L291.15695,366.75908
				L291.63701,366.75908L291.63701,380.20051L292.11707,380.20051L292.11707,380.68057L292.59713,380.68057L292.59713,381.16062
				L293.07719,381.16062L293.07719,381.88069L293.79728,381.88069L293.79728,382.36075L294.27735,382.36075L294.27735,382.8408L
				294.75741,382.8408L294.75741,383.32085L295.23747,383.32085L295.23747,383.8009L295.71753,383.8009L295.71753,384.28095L296.19759,384.28095
				L296.19759,384.761L296.67765,384.761L296.67765,386.44118L297.39774,386.44118L297.39774,386.92123L297.8778,386.92123L297.8778,387.40128
				L298.35786,387.40128L298.35786,387.88133L298.83792,387.88133L298.83792,388.60141L299.31798,388.60141L299.31798,389.08146
				L299.79805,389.08146L299.79805,389.56151L300.27811,389.56151L300.27811,390.04156L300.9982,390.04156L300.9982,390.52161L301.47826,390.52161
				L301.47826,391.00167L301.95832,391.00167L301.95832,391.48172L302.43838,391.48172L302.43838,392.20179L302.91844,392.20179
				L302.91844,392.68185L303.3985,392.68185L303.3985,393.1619L304.11859,393.1619L304.11859,393.64195L304.59865,393.64195L304.59865,394.122
				L305.07872,394.122L305.07872,394.60205L305.55878,394.60205L305.55878,395.32213L306.03884,395.32213L306.03884,395.80218L306.5189,395.80218
				L306.5189,396.28223L306.99896,396.28223L306.99896,396.76228L307.71905,396.76228L307.71905,397.24233L308.19911,397.24233L
				308.19911,397.72238L308.67917,397.72238L308.67917,398.20243L309.15923,398.20243L309.15923,398.92251L309.63929,398.92251L
				309.63929,399.40256L310.11936,399.40256L310.11936,399.88261L310.59942,399.88261L310.59942,401.32277L311.31951,401.32277L
				311.31951,401.80282L311.79957,401.80282L311.79957,402.52289L312.27963,402.52289L312.27963,403.00294L312.75969,403.00294L
				312.75969,403.483L313.23975,403.483L313.23975,403.96305L313.71981,403.96305L313.71981,404.4431L314.4399,404.4431L314.4399,404.92315
				L314.91996,404.92315L314.91996,405.64323L315.40003,405.64323L315.40003,406.12328L315.88009,406.12328L315.88009,407.56343
				L316.36015,407.56343L316.36015,408.04348L316.84021,408.04348L316.84021,408.52353L317.32027,408.52353L317.32027,409.24361
				L318.04036,409.24361L318.04036,409.72366L318.52042,409.72366L318.52042,410.20371L319.00048,410.20371L319.00048,410.68376
				L319.48054,410.68376L319.48054,411.16381L319.9606,411.16381L319.9606,414.28415L320.44067,414.28415L320.44067,414.7642L321.16076,414.7642
				L321.16076,415.24425L321.64082,415.24425L321.64082,415.96433L322.12088,415.96433L322.12088,416.44438L322.60094,416.44438
				L322.60094,416.92443L323.081,416.92443L323.081,423.16509L323.56106,423.16509L323.56106,423.64514L324.04112,423.64514L324.04112,429.88581
				L324.76121,429.88581L324.76121,430.36586L325.24127,430.36586L325.24127,456.0486L325.72134,456.0486L325.72134,456.52865L326.2014,456.52865
				L326.2014,470.69016L326.68146,470.69016L326.68146,484.61164L327.16152,484.61164L327.16152,498.53312L327.64158,498.53312L
				327.64158,499.01318L328.36167,499.01318L328.36167,499.97328L327.64158,499.97328L327.64158,500.45333L327.16152,500.45333L
				327.16152,500.93338L326.68146,500.93338L326.68146,501.65346L326.2014,501.65346L326.2014,502.13351L325.72134,502.13351L325.72134,502.61356
				L325.24127,502.61356L325.24127,503.09361L324.76121,503.09361L324.76121,503.57366L324.04112,503.57366L324.04112,504.05371
				L323.56106,504.05371L323.56106,504.77379L323.081,504.77379L323.081,505.25384L322.60094,505.25384L322.60094,505.73389L322.12088,505.73389
				L322.12088,506.21394L321.64082,506.21394L321.64082,506.69399L321.16076,506.69399L321.16076,507.17405L320.44067,507.17405
				L320.44067,507.6541L319.9606,507.6541L319.9606,508.37417L319.48054,508.37417L319.48054,508.85422L319.00048,508.85422L319.00048,509.33428
				L318.52042,509.33428L318.52042,509.81433L318.04036,509.81433L318.04036,510.29438L317.32027,510.29438L317.32027,510.77443
				L316.84021,510.77443L316.84021,511.25448L316.36015,511.25448L316.36015,511.97456L315.88009,511.97456L315.88009,512.45461
				L315.40003,512.45461L315.40003,512.93466L314.91996,512.93466L314.91996,513.41471L314.4399,513.41471L314.4399,513.89476L313.71981,513.89476
				L313.71981,514.37481L313.23975,514.37481L313.23975,515.09489L312.75969,515.09489L312.75969,515.57494L312.27963,515.57494
				L312.27963,516.05499L311.79957,516.05499L311.79957,516.53504L311.31951,516.53504L311.31951,517.01509L310.59942,517.01509
				L310.59942,517.49515L310.11936,517.49515L310.11936,517.9752L309.63929,517.9752L309.63929,518.69527L309.15923,518.69527L309.15923,519.65538
				L308.67917,519.65538L308.67917,520.13543L308.19911,520.13543L308.19911,520.61548L307.71905,520.61548L307.71905,521.09553
				L306.99896,521.09553L306.99896,521.81561L306.5189,521.81561L306.5189,522.29566L306.03884,522.29566L306.03884,522.77571L305.55878,522.77571
				L305.55878,523.25576L305.07872,523.25576L305.07872,523.73581L304.59865,523.73581L304.59865,524.21586L304.11859,524.21586
				L304.11859,524.69591L303.3985,524.69591L303.3985,525.41599L302.91844,525.41599L302.91844,525.89604L302.43838,525.89604L302.43838,526.37609
				L301.95832,526.37609L301.95832,526.85614L301.47826,526.85614L301.47826,527.33619L300.9982,527.33619L300.9982,528.2963L300.27811,528.2963
				L300.27811,530.45653L299.79805,530.45653L299.79805,532.13671L299.31798,532.13671L299.31798,534.05691L298.83792,534.05691
				L298.83792,536.21714L298.35786,536.21714L298.35786,537.65729L297.8778,537.65729L297.8778,539.81752L297.39774,539.81752L297.39774,541.73773
				L296.67765,541.73773L296.67765,544.85806L296.19759,544.85806L296.19759,550.61867L295.71753,550.61867L295.71753,555.65921
				L295.23747,555.65921L295.23747,556.37929L295.71753,556.37929L295.71753,567.18044L296.19759,567.18044L296.19759,576.54144
				L296.67765,576.54144L296.67765,582.06203L297.39774,582.06203L297.39774,587.82264L297.8778,587.82264L297.8778,594.0633L298.35786,594.0633
				L298.35786,599.58389L298.83792,599.58389L298.83792,605.34451L299.31798,605.34451L299.31798,611.10512L299.79805,611.10512
				L299.79805,616.62571L300.27811,616.62571L300.27811,622.38632L300.9982,622.38632L300.9982,628.14694L301.47826,628.14694L301.47826,633.66752
				L301.95832,633.66752L301.95832,639.42814L302.43838,639.42814L302.43838,645.18875L302.91844,645.18875L302.91844,650.70934
				L303.3985,650.70934L303.3985,654.78978L302.91844,654.78978L302.91844,653.82967L302.43838,653.82967L302.43838,653.34962L301.95832,653.34962
				L301.95832,652.38952L301.47826,652.38952L301.47826,651.90947L300.9982,651.90947L300.9982,650.70934L300.27811,650.70934L300.27811,650.22929
				L299.79805,650.22929L299.79805,649.26919L299.31798,649.26919L299.31798,648.30908L298.83792,648.30908L298.83792,647.58901
				L298.35786,647.58901L298.35786,646.62891L297.8778,646.62891L297.8778,646.14885L297.39774,646.14885L297.39774,645.6688L296.67765,645.6688
				L296.67765,644.46868L296.19759,644.46868L296.19759,643.98862L295.71753,643.98862L295.71753,643.02852L295.23747,643.02852
				L295.23747,642.54847L294.75741,642.54847L294.75741,641.58837L294.27735,641.58837L294.27735,640.86829L293.79728,640.86829
				L293.79728,639.90819L293.07719,639.90819L293.07719,639.42814L292.59713,639.42814L292.59713,638.46804L292.11707,638.46804
				L292.11707,637.74796L291.63701,637.74796L291.63701,636.78786L291.15695,636.78786L291.15695,635.82775L290.67689,635.82775
				L290.67689,635.3477L289.9568,635.3477L289.9568,634.86765L289.47674,634.86765L289.47674,634.14758L288.99668,634.14758L288.99668,633.18747
				L288.51661,633.18747L288.51661,632.70742L288.03655,632.70742L288.03655,631.74732L287.55649,631.74732L287.55649,630.54719
				L287.07643,630.54719L287.07643,630.06714L286.35634,630.06714L286.35634,629.58709L285.87628,629.58709L285.87628,629.10704
				L285.39622,629.10704L285.39622,628.62699L284.91616,628.62699L284.91616,627.42686L284.4361,627.42686L284.4361,626.94681L283.95604,626.94681
				L283.95604,626.46676L283.23594,626.46676L283.23594,625.98671L282.75588,625.98671L282.75588,625.50666L282.27582,625.50666
				L282.27582,625.0266L281.79576,625.0266L281.79576,624.54655L281.3157,624.54655L281.3157,623.82648L280.83564,623.82648L280.83564,623.34642
				L280.35558,623.34642L280.35558,622.86637L279.63549,622.86637L279.63549,621.90627L279.15543,621.90627L279.15543,621.42622
				L278.67537,621.42622L278.67537,620.94617L278.1953,620.94617L278.1953,620.22609L277.71524,620.22609L277.71524,619.74604L277.23518,619.74604
				L277.23518,619.26599L276.75512,619.26599L276.75512,618.78594L276.03503,618.78594L276.03503,618.30589L275.55497,618.30589
				L275.55497,617.10576L275.07491,617.10576L275.07491,616.62571L274.59485,616.62571L274.59485,616.14566L274.11479,616.14566
				L274.11479,615.66561L273.63473,615.66561L273.63473,615.18556L272.91463,615.18556L272.91463,614.7055L272.43457,614.7055L272.43457,614.22545
				L271.95451,614.22545L271.95451,613.02533L271.47445,613.02533L271.47445,612.54527L270.99439,612.54527L270.99439,612.06522
				L270.51433,612.06522L270.51433,611.58517L270.03427,611.58517L270.03427,611.10512L269.31418,611.10512L269.31418,609.90499
				L268.83412,609.90499L268.83412,609.42494L268.35406,609.42494L268.35406,608.94489L267.87399,608.94489L267.87399,607.98479
				L267.39393,607.98479L267.39393,607.50474L266.91387,607.50474L266.91387,606.78466L266.43381,606.78466L266.43381,606.30461
				L265.71372,606.30461L265.71372,605.34451L265.23366,605.34451L265.23366,604.86446L264.7536,604.86446L264.7536,604.3844L264.27354,604.3844
				L264.27354,603.90435L263.79348,603.90435L263.79348,602.70423L263.31342,602.70423L263.31342,602.22417L262.59332,602.22417
				L262.59332,601.74412L262.11326,601.74412L262.11326,601.26407L261.6332,601.26407L261.6332,600.06394L261.15314,600.06394L261.15314,599.58389
				L260.67308,599.58389L260.67308,599.10384L260.19302,599.10384L260.19302,598.62379L259.71296,598.62379L259.71296,597.66369
				L258.99287,597.66369L258.99287,597.18364L258.51281,597.18364L258.51281,596.46356L258.03275,596.46356L258.03275,595.50346
				L257.55268,595.50346L257.55268,595.02341L257.07262,595.02341L257.07262,594.54336L256.59256,594.54336L256.59256,594.0633L
				255.87247,594.0633L255.87247,592.86318L255.39241,592.86318L255.39241,592.38313L254.91235,592.38313L254.91235,591.90307L254.43229,591.90307
				L254.43229,591.42302L253.95223,591.42302L253.95223,590.46292L253.47217,590.46292L253.47217,589.74284L252.99211,589.74284
				L252.99211,588.78274L252.27201,588.78274L252.27201,587.82264L251.79195,587.82264L251.79195,587.34259L251.31189,587.34259
				L251.31189,586.86254L250.83183,586.86254L250.83183,586.14246L250.35177,586.14246L250.35177,585.18236L249.87171,585.18236
				L249.87171,584.22226L249.39165,584.22226L249.39165,583.7422L248.67156,583.7422L248.67156,582.54208L248.1915,582.54208L248.1915,582.06203
				L247.71144,582.06203L247.71144,581.10192L247.23137,581.10192L247.23137,580.62187L246.75131,580.62187L246.75131,580.14182
				L246.27125,580.14182L246.27125,578.94169L245.55116,578.94169L245.55116,578.46164L245.0711,578.46164L245.0711,577.50154L244.59104,577.50154
				L244.59104,576.54144L244.11098,576.54144L244.11098,575.82136L243.63092,575.82136L243.63092,575.34131L243.15086,575.34131
				L243.15086,574.38121L242.6708,574.38121L242.6708,573.90116L241.9507,573.90116L241.9507,572.70103L241.47064,572.70103L241.47064,572.22098
				L240.99058,572.22098L240.99058,571.26087L240.51052,571.26087L240.51052,570.30077L240.03046,570.30077L240.03046,569.82072
				L239.5504,569.82072L239.5504,569.10064L239.07034,569.10064L239.07034,568.62059L238.35025,568.62059L238.35025,568.14054L237.87019,568.14054
				L237.87019,567.66049L237.39013,567.66049L237.39013,567.18044L236.91007,567.18044L236.91007,565.98031L236.43,565.98031L236.43,565.50026
				L235.94994,565.50026L235.94994,564.54016L235.22985,564.54016L235.22985,564.06011L234.74979,564.06011L234.74979,563.1L234.26973,563.1
				L234.26973,562.37993L233.78967,562.37993L233.78967,561.41983L233.30961,561.41983L233.30961,560.93977L232.82955,560.93977
				L232.82955,559.97967L232.34949,559.97967L232.34949,559.49962L231.62939,559.49962L231.62939,558.29949L231.14933,558.29949
				L231.14933,557.81944L230.66927,557.81944L230.66927,556.85934L230.18921,556.85934L230.18921,555.65921L229.70915,555.65921
				L229.70915,555.17916L229.22909,555.17916L229.22909,554.21906L228.509,554.21906L228.509,553.25896L228.02894,553.25896L228.02894,552.05883
				L227.54888,552.05883L227.54888,551.57878L227.06882,551.57878L227.06882,550.61867L226.58876,550.61867L226.58876,549.65857
				L226.10869,549.65857L226.10869,548.45844L225.62863,548.45844L225.62863,547.97839L224.90854,547.97839L224.90854,547.01829
				L224.42848,547.01829L224.42848,546.53824L223.94842,546.53824L223.94842,545.33811L223.46836,545.33811L223.46836,544.37801
				L222.9883,544.37801L222.9883,543.41791L222.50824,543.41791L222.50824,542.93786L222.02818,542.93786L222.02818,541.73773L221.30809,541.73773
				L221.30809,541.25768L220.82802,541.25768L220.82802,540.29758L220.34796,540.29758L220.34796,539.81752L219.8679,539.81752L
				219.8679,538.6174L219.38784,538.6174L219.38784,537.65729L218.90778,537.65729L218.90778,537.17724L218.18769,537.17724L218.18769,536.21714
				L217.70763,536.21714L217.70763,535.01701L217.22757,535.01701L217.22757,533.57686L216.74751,533.57686L216.74751,531.41663
				L216.26745,531.41663L216.26745,528.2963L216.74751,528.2963L216.74751,526.85614L216.26745,526.85614L216.26745,525.89604L215.78738,525.89604
				L215.78738,524.69591L215.30732,524.69591L215.30732,523.73581L214.58723,523.73581L214.58723,522.77571L214.10717,522.77571
				L214.10717,521.81561L213.62711,521.81561L213.62711,521.09553L212.66699,521.09553L212.66699,520.61548L212.18693,520.61548
				L212.18693,519.65538L210.98678,519.65538L210.98678,519.17532L209.06653,519.17532L209.06653,518.69527L208.58647,518.69527
				L208.58647,517.9752L207.86638,517.9752L207.86638,517.49515L207.38632,517.49515L207.38632,517.01509L206.4262,517.01509L206.4262,516.53504
				L205.94614,516.53504L205.94614,516.05499L205.46607,516.05499L205.46607,515.57494L204.98601,515.57494L204.98601,515.09489
				L204.26592,515.09489L204.26592,514.37481L203.78586,514.37481L203.78586,513.89476L203.3058,513.89476L203.3058,513.41471L202.82574,513.41471
				L202.82574,512.93466L202.34568,512.93466L202.34568,512.45461L201.86562,512.45461L201.86562,511.97456L201.14553,511.97456
				L201.14553,511.25448L200.66547,511.25448L200.66547,510.77443L200.1854,510.77443L200.1854,510.29438L199.70534,510.29438L199.70534,509.33428
				L199.22528,509.33428L199.22528,508.85422L198.74522,508.85422L198.74522,507.6541L198.26516,507.6541L198.26516,507.17405L197.54507,507.17405
				L197.54507,506.21394L197.06501,506.21394L197.06501,505.73389L196.58495,505.73389L196.58495,505.25384L196.10489,505.25384
				L196.10489,504.05371L195.62483,504.05371L195.62483,503.57366L195.14476,503.57366L195.14476,502.61356L194.6647,502.61356L
				194.6647,502.13351L193.94461,502.13351L193.94461,500.93338L193.46455,500.93338L193.46455,500.45333L192.98449,500.45333L192.98449,499.97328
				L192.50443,499.97328L192.50443,499.01318L192.02437,499.01318L192.02437,498.53312L191.54431,498.53312L191.54431,498.05307
				L190.82422,498.05307L190.82422,496.85295L190.34416,496.85295L190.34416,495.89284L189.86409,495.89284L189.86409,495.41279
				L189.38403,495.41279L189.38403,494.93274L188.90397,494.93274L188.90397,493.73261L188.42391,493.73261L188.42391,492.77251
				L187.94385,492.77251L187.94385,492.29246L187.22376,492.29246L187.22376,491.33236L186.7437,491.33236L186.7437,490.13223L186.26364,490.13223
				L186.26364,489.65218L185.78358,489.65218L185.78358,488.69208L185.30352,488.69208L185.30352,488.21202L184.82346,488.21202
				L184.82346,487.0119L184.10336,487.0119L184.10336,486.05179L183.6233,486.05179L183.6233,485.57174L183.14324,485.57174L183.14324,484.61164
				L182.66318,484.61164L182.66318,483.41151L182.18312,483.41151L182.18312,482.93146L181.70306,482.93146L181.70306,481.97136
				L181.223,481.97136L181.223,481.01126L180.50291,481.01126L180.50291,479.81113L180.02285,479.81113L180.02285,478.85103L179.54278,478.85103
				L179.54278,478.37098L179.06272,478.37098L179.06272,477.41087L178.58266,477.41087L178.58266,476.21075L178.1026,476.21075L
				178.1026,475.73069L177.62254,475.73069L177.62254,474.77059L176.90245,474.77059L176.90245,473.57046L176.42239,473.57046L176.42239,473.09041
				L175.94233,473.09041L175.94233,471.65026L175.46227,471.65026L175.46227,470.69016L174.98221,470.69016L174.98221,469.49003
				L174.50215,469.49003L174.50215,468.52993L173.78205,468.52993L173.78205,467.56983L173.30199,467.56983L173.30199,466.3697L
				172.82193,466.3697L172.82193,465.40959L172.34187,465.40959L172.34187,464.44949L171.86181,464.44949L171.86181,462.76931L171.38175,462.76931
				L171.38175,461.80921L170.90169,461.80921L170.90169,460.36906L170.1816,460.36906L170.1816,459.64898L169.70154,459.64898L169.70154,457.72878
				L169.22148,457.72878L169.22148,456.52865L168.74141,456.52865L168.74141,455.0885L168.26135,455.0885L168.26135,454.12839L167.78129,454.12839
				L167.78129,452.92826L167.30123,452.92826L167.30123,451.96816L166.58114,451.96816L166.58114,450.52801L166.10108,450.52801
				L166.10108,448.84783L165.62102,448.84783L165.62102,447.88773L165.14096,447.88773L165.14096,446.20755L164.6609,446.20755L
				164.6609,445.24745L164.18084,445.24745L164.18084,443.80729L163.46074,443.80729L163.46074,441.64706L162.98068,441.64706L162.98068,439.48683
				L162.50062,439.48683L162.50062,436.60653L162.02056,436.60653L162.02056,435.4064L161.5405,435.4064L161.5405,433.96624L161.06044,433.96624
				L161.06044,432.28607L160.58038,432.28607L160.58038,431.32596L159.86029,431.32596L159.86029,429.88581L159.38023,429.88581
				L159.38023,428.68568L158.90017,428.68568L158.90017,427.72558L158.4201,427.72558L158.4201,426.28543L157.94004,426.28543L157.94004,425.0853
				L157.45998,425.0853L157.45998,424.1252L156.73989,424.1252L156.73989,421.96497L156.25983,421.96497L156.25983,420.52481L155.77977,420.52481
				L155.77977,418.84463L155.29971,418.84463L155.29971,417.40448L154.81965,417.40448L154.81965,414.7642L154.33959,414.7642L154.33959,414.28415
				L153.85953,414.28415L153.85953,411.64387L153.13943,411.64387L153.13943,408.52353L152.65937,408.52353L152.65937,407.56343
				L152.17931,407.56343L152.17931,406.12328L151.69925,406.12328L151.69925,405.64323L151.21919,405.64323L151.21919,404.92315
				L150.73913,404.92315L150.73913,403.96305L150.25907,403.96305L150.25907,403.483L149.53898,403.483L149.53898,401.80282L149.05892,401.80282
				L149.05892,400.84271L148.57886,400.84271L148.57886,399.88261L148.09879,399.88261L148.09879,397.72238L147.61873,397.72238
				L147.61873,396.28223L147.13867,396.28223L147.13867,394.122L146.41858,394.122L146.41858,392.68185L145.93852,392.68185L145.93852,392.20179
				L146.41858,392.20179L146.41858,390.52161L147.13867,390.52161L147.13867,387.88133L147.61873,387.88133L147.61873,386.92123
				L148.09879,386.92123L148.09879,384.28095L148.57886,384.28095L148.57886,381.88069L149.05892,381.88069L149.05892,379.72046
				L149.53898,379.72046L149.53898,378.28031L150.25907,378.28031L150.25907,377.08018L150.73913,377.08018L150.73913,373.95985
				L151.21919,373.95985L151.21919,372.5197L151.69925,372.5197L151.69925,370.83952L152.17931,370.83952L152.17931,369.87942L152.65937,369.87942
				L152.65937,369.39936"/>
			<path clip-path="url(#SVG_CP_2)" fill="none" stroke="#999999" stroke-width="0.96012" stroke-miterlimit="10" stroke-linecap="round" stroke-linejoin="round" d="
				M152.65937,369.39936L153.13943,369.39936L153.13943,368.43926L153.85953,368.43926L153.85953,367.71918L154.33959,367.71918
				L154.33959,367.23913L154.81965,367.23913L154.81965,366.75908L155.29971,366.75908L155.29971,366.27903L155.77977,366.27903
				L155.77977,365.79898L156.25983,365.79898L156.25983,365.31893L156.73989,365.31893L156.73989,364.83888L157.45998,364.83888
				L157.45998,364.1188L158.4201,364.1188L158.4201,363.63875L159.38023,363.63875L159.38023,363.1587L160.58038,363.1587L160.58038,362.67865
				L161.06044,362.67865L161.06044,362.1986L161.5405,362.1986L161.5405,361.71855L162.02056,361.71855L162.02056,361.23849L162.50062,361.23849
				L162.50062,360.51842L162.98068,360.51842L162.98068,360.03837L163.46074,360.03837L163.46074,359.55832L164.18084,359.55832
				L164.18084,359.07826L164.6609,359.07826L164.6609,358.59821L165.14096,358.59821L165.14096,358.11816L165.62102,358.11816L165.62102,357.39809
				L166.10108,357.39809L166.10108,356.91803L166.58114,356.91803L166.58114,355.95793L167.30123,355.95793L167.30123,354.51778
				L167.78129,354.51778L167.78129,352.8376L168.26135,352.8376L168.26135,351.39745L168.74141,351.39745L168.74141,349.71727L169.22148,349.71727
				L169.22148,348.27711L169.70154,348.27711L169.70154,347.79706L170.1816,347.79706L170.1816,347.07699L170.90169,347.07699L170.90169,345.63683
				L171.38175,345.63683L171.38175,345.15678L171.86181,345.15678L171.86181,344.19668L172.34187,344.19668L172.34187,342.99655
				L172.82193,342.99655L172.82193,342.5165L173.30199,342.5165L173.30199,341.5564L173.78205,341.5564L173.78205,340.35627L174.50215,340.35627
				L174.50215,339.87622L174.98221,339.87622L174.98221,339.39617L175.46227,339.39617L175.46227,338.43606L175.94233,338.43606
				L175.94233,337.47596L176.42239,337.47596L176.42239,336.75589L176.90245,336.75589L176.90245,335.79578L177.62254,335.79578
				L177.62254,334.83568L178.1026,334.83568L178.1026,334.35563L178.58266,334.35563L178.58266,333.1555L179.06272,333.1555L179.06272,332.1954
				L179.54278,332.1954L179.54278,331.2353L180.02285,331.2353L180.02285,330.03517L180.50291,330.03517L180.50291,329.55512L181.223,329.55512
				L181.223,329.07507L181.70306,329.07507L181.70306,328.11496L182.18312,328.11496L182.18312,327.15486L182.66318,327.15486L182.66318,326.43479
				L183.14324,326.43479L183.14324,325.95473L183.6233,325.95473L183.6233,324.51458L184.10336,324.51458L184.10336,324.03453L184.82346,324.03453
				L184.82346,323.55448L185.30352,323.55448L185.30352,322.35435L185.78358,322.35435L185.78358,321.8743L186.26364,321.8743L186.26364,321.39425
				L185.78358,321.39425L185.78358,320.43415L185.30352,320.43415L185.30352,319.71407L184.82346,319.71407L184.82346,318.75397
				L184.10336,318.75397L184.10336,318.27392L183.6233,318.27392L183.6233,317.31381L183.14324,317.31381L183.14324,316.11369L182.66318,316.11369
				L182.66318,315.63363L182.18312,315.63363L182.18312,315.15358L181.70306,315.15358L181.70306,314.19348L181.223,314.19348L181.223,312.99335
				L180.50291,312.99335L180.50291,312.03325L180.02285,312.03325L180.02285,311.5532L179.54278,311.5532L179.54278,310.5931L179.06272,310.5931
				L179.06272,310.11305L178.58266,310.11305L178.58266,308.91292L178.1026,308.91292L178.1026,308.43287L177.62254,308.43287L177.62254,306.99271
				L176.90245,306.99271L176.90245,306.51266L176.42239,306.51266L176.42239,305.31253L175.94233,305.31253L175.94233,304.35243
				L175.46227,304.35243L175.46227,303.87238L174.98221,303.87238L174.98221,302.67225L174.50215,302.67225L174.50215,301.71215
				L173.78205,301.71215L173.78205,300.75205L173.30199,300.75205L173.30199,299.79195L172.82193,299.79195L172.82193,298.59182
				L172.34187,298.59182L172.34187,297.63172L171.86181,297.63172L171.86181,296.67161L171.38175,296.67161L171.38175,295.47149
				L170.90169,295.47149L170.90169,294.51138L170.1816,294.51138L170.1816,293.55128L169.70154,293.55128L169.70154,292.35115L169.22148,292.35115
				L169.22148,291.39105L168.74141,291.39105L168.74141,290.43095L168.26135,290.43095L168.26135,289.47085L167.78129,289.47085
				L167.78129,288.27072L167.30123,288.27072L167.30123,287.31062L166.58114,287.31062L166.58114,286.35051L166.10108,286.35051
				L166.10108,285.15039L165.62102,285.15039L165.62102,284.19028L165.14096,284.19028L165.14096,283.23018L164.6609,283.23018L
				164.6609,282.03005L164.18084,282.03005L164.18084,281.06995L163.46074,281.06995L163.46074,280.10985L162.98068,280.10985L162.98068,279.14975
				L162.50062,279.14975L162.50062,277.94962L162.02056,277.94962L162.02056,276.98952L161.5405,276.98952L161.5405,275.30934L161.06044,275.30934
				L161.06044,274.34924L160.58038,274.34924L160.58038,273.38913L159.86029,273.38913L159.86029,271.70895L159.38023,271.70895
				L159.38023,270.74885L158.90017,270.74885L158.90017,269.3087L158.4201,269.3087L158.4201,268.10857L157.94004,268.10857L157.94004,267.14847
				L157.45998,267.14847L157.45998,265.70831L156.73989,265.70831L156.73989,264.02814L156.25983,264.02814L156.25983,262.58798
				L155.77977,262.58798L155.77977,260.42775L155.29971,260.42775L155.29971,258.9876L154.81965,258.9876L154.81965,256.82737L154.33959,256.82737
				L154.33959,255.38721L153.85953,255.38721L153.85953,253.22698L153.13943,253.22698L153.13943,252.74693L152.65937,252.74693
				L152.65937,251.78683L152.17931,251.78683L152.17931,250.5867L151.69925,250.5867L151.69925,249.6266L151.21919,249.6266L151.21919,248.6665
				L150.73913,248.6665L150.73913,247.94642L150.25907,247.94642L150.25907,247.46637L148.57886,247.46637L148.57886,246.98632L
				148.09879,246.98632L148.09879,246.02622L147.61873,246.02622L147.61873,245.06611L147.13867,245.06611L147.13867,243.38594L
				146.41858,243.38594L146.41858,241.94578L145.93852,241.94578L145.93852,240.2656L145.45846,240.2656L145.45846,235.22507L144.9784,235.22507
				L144.9784,234.02494L145.45846,234.02494L145.45846,233.54489L144.9784,233.54489L144.9784,232.58478L145.45846,232.58478L145.45846,232.10473
				L144.9784,232.10473L144.9784,228.9844L144.49834,228.9844L144.49834,224.42392L144.01828,224.42392L144.01828,220.58351L143.53822,220.58351
				L143.53822,216.50307L144.01828,216.50307L144.01828,218.6633L144.49834,218.6633L144.49834,220.10345L144.9784,220.10345L144.9784,221.78363
				L145.45846,221.78363L145.45846,223.70384L145.93852,223.70384L145.93852,225.38402L146.41858,225.38402L146.41858,226.82417
				L147.13867,226.82417L147.13867,228.50435L147.61873,228.50435L147.61873,229.9445L148.09879,229.9445L148.09879,231.62468L148.57886,231.62468
				L148.57886,233.06484L149.05892,233.06484L149.05892,234.74502L149.53898,234.74502L149.53898,236.18517L150.25907,236.18517
				L150.25907,237.14527L150.73913,237.14527L150.73913,238.82545L151.21919,238.82545L151.21919,239.78555L151.69925,239.78555
				L151.69925,241.22571L152.17931,241.22571L152.17931,242.90588L152.65937,242.90588L152.65937,243.86599L154.33959,243.86599
				L154.33959,243.38594L154.81965,243.38594L154.81965,242.90588L155.29971,242.90588L155.29971,242.42583L156.25983,242.42583
				L156.25983,241.94578L156.73989,241.94578L156.73989,242.42583L157.45998,242.42583L157.45998,242.90588L157.94004,242.90588
				L157.94004,243.38594L158.4201,243.38594L158.4201,243.86599L158.90017,243.86599L158.90017,245.06611L159.38023,245.06611L159.38023,245.54617
				L159.86029,245.54617L159.86029,246.02622L160.58038,246.02622L160.58038,246.98632L161.06044,246.98632L161.06044,247.46637
				L161.5405,247.46637L161.5405,247.94642L162.02056,247.94642L162.02056,248.6665L162.50062,248.6665L162.50062,249.6266L162.98068,249.6266
				L162.98068,250.10665L163.46074,250.10665L163.46074,250.5867L164.18084,250.5867L164.18084,254.18709L164.6609,254.18709L164.6609,256.82737
				L165.14096,256.82737L165.14096,258.26752L165.62102,258.26752L165.62102,259.46765L166.10108,259.46765L166.10108,260.42775
				L166.58114,260.42775L166.58114,261.38785L167.30123,261.38785L167.30123,262.58798L167.78129,262.58798L167.78129,263.06803
				L168.26135,263.06803L168.26135,264.02814L168.74141,264.02814L168.74141,264.50819L169.22148,264.50819L169.22148,265.70831
				L169.70154,265.70831L169.70154,266.18837L170.1816,266.18837L170.1816,267.14847L170.90169,267.14847L170.90169,267.62852L171.38175,267.62852
				L171.38175,268.58862L171.86181,268.58862L171.86181,269.3087L172.34187,269.3087L172.34187,270.2688L172.82193,270.2688L172.82193,270.74885
				L173.30199,270.74885L173.30199,271.70895L173.78205,271.70895L173.78205,272.42903L174.50215,272.42903L174.50215,273.38913
				L174.98221,273.38913L174.98221,273.86918L175.46227,273.86918L175.46227,274.34924L175.94233,274.34924L175.94233,275.30934
				L176.42239,275.30934L176.42239,276.02941L176.90245,276.02941L176.90245,276.98952L177.62254,276.98952L177.62254,277.46957
				L178.1026,277.46957L178.1026,278.42967L178.58266,278.42967L178.58266,279.14975L179.06272,279.14975L179.06272,280.10985L179.54278,280.10985
				L179.54278,280.5899L180.02285,280.5899L180.02285,281.55L180.50291,281.55L180.50291,282.03005L181.223,282.03005L181.223,283.23018
				L181.70306,283.23018L181.70306,283.71023L182.18312,283.71023L182.18312,284.67034L182.66318,284.67034L182.66318,285.15039
				L183.14324,285.15039L183.14324,285.63044L183.6233,285.63044L183.6233,286.83057L184.10336,286.83057L184.10336,287.31062L184.82346,287.31062
				L184.82346,288.27072L185.30352,288.27072L185.30352,288.75077L185.78358,288.75077L185.78358,289.9509L186.26364,289.9509L186.26364,290.43095
				L186.7437,290.43095L186.7437,290.911L187.22376,290.911L187.22376,291.8711L187.94385,291.8711L187.94385,292.35115L188.42391,292.35115
				L188.42391,293.55128L188.90397,293.55128L188.90397,294.03133L189.38403,294.03133L189.38403,294.51138L189.86409,294.51138
				L189.86409,295.47149L190.34416,295.47149L190.34416,296.19156L190.82422,296.19156L190.82422,296.67161L191.54431,296.67161
				L191.54431,297.15167L192.02437,297.15167L192.02437,298.11177L192.50443,298.11177L192.50443,298.59182L192.98449,298.59182
				L192.98449,299.07187L193.46455,299.07187L193.46455,299.79195L193.94461,299.79195L193.94461,300.272L194.6647,300.272L194.6647,301.2321
				L195.14476,301.2321L195.14476,301.71215L195.62483,301.71215L195.62483,302.1922L196.10489,302.1922L196.10489,303.39233L196.58495,303.39233
				L196.58495,303.87238L197.06501,303.87238L197.06501,304.35243L197.54507,304.35243L197.54507,304.83248L198.26516,304.83248
				L198.26516,305.79259L198.74522,305.79259L198.74522,306.51266L199.22528,306.51266L199.22528,306.99271L199.70534,306.99271
				L199.70534,307.47277L200.1854,307.47277L200.1854,308.43287L200.66547,308.43287L200.66547,308.91292L201.14553,308.91292L201.14553,309.39297
				L201.86562,309.39297L201.86562,310.11305L202.34568,310.11305L202.34568,310.5931L202.82574,310.5931L202.82574,311.07315L203.3058,311.07315
				L203.3058,311.5532L203.78586,311.5532L203.78586,312.5133L204.26592,312.5133L204.26592,312.99335L204.98601,312.99335L204.98601,313.71343
				L205.46607,313.71343L205.46607,314.19348L205.94614,314.19348L205.94614,314.67353L206.90626,314.67353L206.90626,315.15358
				L207.38632,315.15358L207.38632,315.63363L207.86638,315.63363L207.86638,316.11369L208.58647,316.11369L208.58647,316.83376
				L209.06653,316.83376L209.06653,317.31381L209.54659,317.31381L209.54659,317.79386L210.02665,317.79386L210.02665,318.27392
				L210.50671,318.27392L210.50671,318.75397L210.98678,318.75397L210.98678,319.23402L211.46684,319.23402L211.46684,319.71407
				L212.18693,319.71407L212.18693,320.43415L212.66699,320.43415L212.66699,320.9142L213.62711,320.9142L213.62711,321.39425L214.10717,321.39425
				L214.10717,321.8743L214.58723,321.8743L214.58723,322.35435L215.30732,322.35435L215.30732,322.8344L215.78738,322.8344L215.78738,323.55448
				L216.26745,323.55448L216.26745,324.03453L217.22757,324.03453L217.22757,324.51458L217.70763,324.51458L217.70763,324.99463
				L218.18769,324.99463L218.18769,325.47468L218.90778,325.47468L218.90778,325.95473L219.8679,325.95473L219.8679,326.43479L220.34796,326.43479
				L220.34796,327.15486L220.82802,327.15486L220.82802,327.63491L221.30809,327.63491L221.30809,328.11496L222.50824,328.11496
				L222.50824,328.59502L222.9883,328.59502L222.9883,329.07507L223.46836,329.07507L223.46836,329.55512L224.42848,329.55512L224.42848,330.03517
				L224.90854,330.03517L224.90854,330.75525L225.62863,330.75525L225.62863,331.2353L226.58876,331.2353L226.58876,331.71535L227.06882,331.71535
				L227.06882,332.1954L228.02894,332.1954L228.02894,332.67545L228.509,332.67545L228.509,333.1555L229.70915,333.1555L229.70915,333.87558
				L230.66927,333.87558L230.66927,334.35563L231.14933,334.35563L231.14933,334.83568L232.34949,334.83568L232.34949,335.31573
				L232.82955,335.31573L232.82955,335.79578L233.78967,335.79578L233.78967,336.27583L235.22985,336.27583L235.22985,336.75589
				L236.43,336.75589L236.43,337.47596L237.87019,337.47596L237.87019,337.95601L239.07034,337.95601L239.07034,338.43606L240.51052,338.43606
				L240.51052,338.91612L241.47064,338.91612L241.47064,339.39617L243.15086,339.39617L243.15086,339.87622L244.59104,339.87622
				L244.59104,340.35627L246.75131,340.35627L246.75131,341.07635L248.67156,341.07635L248.67156,341.5564L250.83183,341.5564L250.83183,342.03645
				L252.99211,342.03645L252.99211,342.5165L254.91235,342.5165L254.91235,342.99655L257.55268,342.99655L257.55268,343.4766L261.15314,343.4766
				L261.15314,344.19668L266.43381,344.19668L266.43381,343.4766L267.39393,343.4766L267.39393,342.99655L267.87399,342.99655"/>
		</g>
</g></svg>