<?xml version="1.0" encoding="utf-8" standalone="no"?>
<!-- Creator: ESRI ArcMap 10.0.0.2414 -->
<!DOCTYPE svg PUBLIC "-//W3C//DTD SVG 1.1//EN"  "http://www.w3.org/Graphics/SVG/1.1/DTD/svg11.dtd">
<svg width="595.50236pt" height="595.50236pt" viewBox="25 148.377955 545.50236 545.50236" enable-background="new 25 148.377955 545.50236 545.50236"
	version="1.1" xmlns="http://www.w3.org/2000/svg" xmlns:xlink="http://www.w3.org/1999/xlink" >
	<g id="Couches">
		<g id="cont_1">
			<clipPath id="SVG_CP_2">
				<path d="M574.39289,21.36228L21.36271,21.36228L21.36271,821.36753L574.39289,821.36753L574.39289,21.36228z"/>
			</clipPath>
			<path clip-path="url(#SVG_CP_2)" fill="none" stroke="#999999" stroke-width="0.96012" stroke-miterlimit="10" stroke-linecap="round" stroke-linejoin="round" d="
				M344.44371,455.56855L344.44371,454.36842L343.24356,454.36842L343.24356,453.40832L342.28344,453.40832L342.28344,452.20819
				L341.08328,452.20819L341.08328,451.00806L340.12316,451.00806L340.12316,450.04796L338.92301,450.04796L338.92301,448.84783
				L337.72286,448.84783L337.72286,447.88773L336.76274,447.88773L336.76274,446.6876L335.56258,446.6876L335.56258,445.48747L334.60246,445.48747
				L334.60246,444.52737L333.40231,444.52737L333.40231,443.32724L332.20216,443.32724L332.20216,442.36714L331.24204,442.36714
				L331.24204,441.16701L330.04188,441.16701L330.04188,439.96688L329.08176,439.96688L329.08176,439.00678L327.88161,439.00678
				L327.88161,437.80665L326.68146,437.80665L326.68146,436.84655L325.72134,436.84655L325.72134,435.64642L324.52118,435.64642
				L324.52118,434.4463L323.56106,434.4463L323.56106,433.48619L322.36091,433.48619L322.36091,432.28607L321.16076,432.28607L321.16076,431.32596
				L320.20063,431.32596L320.20063,430.12584L319.00048,430.12584L319.00048,428.92571L318.04036,428.92571L318.04036,427.9656L
				316.84021,427.9656L316.84021,426.76548L315.64006,426.76548L315.64006,425.80537L314.67993,425.80537L314.67993,424.60525L313.47978,424.60525
				L313.47978,423.40512L312.51966,423.40512L312.51966,422.44502L311.31951,422.44502L311.31951,421.24489L310.11936,421.24489
				L310.11936,420.28479L309.15923,420.28479L309.15923,419.08466L307.95908,419.08466L307.95908,417.88453L306.99896,417.88453
				L306.99896,416.92443L305.79881,416.92443L305.79881,415.7243L304.59865,415.7243L304.59865,414.7642L303.63853,414.7642L303.63853,413.56407
				L302.43838,413.56407L302.43838,412.36394L301.47826,412.36394L301.47826,411.40384L300.27811,411.40384L300.27811,410.20371
				L299.07795,410.20371L299.07795,409.24361L298.11783,409.24361L298.11783,408.04348L296.91768,408.04348L296.91768,406.84335
				L295.95756,406.84335L295.95756,405.88325L294.75741,405.88325L294.75741,404.68312L293.55725,404.68312L293.55725,403.72302
				L292.59713,403.72302L292.59713,402.52289L291.39698,402.52289L291.39698,401.32277L290.43686,401.32277L290.43686,400.36266
				L289.23671,400.36266L289.23671,399.16254L288.03655,399.16254L288.03655,398.20243L287.07643,398.20243L287.07643,397.00231
				L285.87628,397.00231L285.87628,395.80218L284.91616,395.80218L284.91616,394.84208L283.716,394.84208L283.716,393.64195L282.51585,393.64195
				L282.51585,392.68185L281.55573,392.68185L281.55573,391.48172L280.35558,391.48172L280.35558,390.28159L279.39546,390.28159
				L279.39546,389.32149L278.1953,389.32149L278.1953,388.12136L270.51433,388.12136L270.51433,387.16126L267.1539,387.16126L267.1539,385.96113
				L264.99363,385.96113L264.99363,384.761L262.83335,384.761L262.83335,383.8009L260.43305,383.8009L260.43305,382.60077L259.47293,382.60077
				L259.47293,381.64067L257.31265,381.64067L257.31265,380.44054L254.91235,380.44054L254.91235,379.24041L252.75208,379.24041
				L252.75208,378.28031L251.79195,378.28031L251.79195,377.08018L250.5918,377.08018L250.5918,376.12008L251.79195,376.12008L251.79195,373.71982
				L252.75208,373.71982L252.75208,371.55959L253.95223,371.55959L253.95223,369.39936L254.91235,369.39936L254.91235,367.23913
				L256.1125,367.23913L256.1125,365.0789L257.31265,365.0789L257.31265,362.67865L258.27278,362.67865L258.27278,361.71855L259.47293,361.71855
				L259.47293,360.51842L260.43305,360.51842L260.43305,358.35819L261.6332,358.35819L261.6332,357.15806L262.83335,357.15806L262.83335,356.19796
				L263.79348,356.19796L263.79348,354.03773L264.99363,354.03773L264.99363,352.8376L265.95375,352.8376L265.95375,351.63747L267.1539,351.63747
				L267.1539,349.47724L268.35406,349.47724L268.35406,348.51714L269.31418,348.51714L269.31418,347.31701L270.51433,347.31701L
				270.51433,345.15678L271.47445,345.15678L271.47445,341.79642L272.6746,341.79642L272.6746,319.71407L273.87476,319.71407L273.87476,297.63172
				L274.83488,297.63172L274.83488,275.54936L276.03503,275.54936L276.03503,258.9876L271.47445,258.9876L271.47445,257.78747L270.51433,257.78747
				L270.51433,256.82737L268.35406,256.82737L268.35406,257.78747L264.99363,257.78747L264.99363,258.9876L265.95375,258.9876L265.95375,266.66842
				L264.99363,266.66842L264.99363,271.2289L263.79348,271.2289L263.79348,276.74949L262.83335,276.74949L262.83335,281.06995L261.6332,281.06995
				L261.6332,286.59054L260.43305,286.59054L260.43305,290.911L259.47293,290.911L259.47293,296.43159L258.27278,296.43159L258.27278,300.99207
				L257.31265,300.99207L257.31265,306.51266L256.1125,306.51266L256.1125,310.83312L254.91235,310.83312L254.91235,315.39361L253.95223,315.39361
				L253.95223,319.71407L252.75208,319.71407L252.75208,325.23466L251.79195,325.23466L251.79195,329.55512L250.5918,329.55512L
				250.5918,334.1156L249.39165,334.1156L249.39165,337.47596L248.43153,337.47596L248.43153,339.63619L247.23137,339.63619L247.23137,341.79642
				L246.27125,341.79642L246.27125,342.99655L245.0711,342.99655L245.0711,345.15678L243.87095,345.15678L243.87095,346.11688L242.91083,346.11688
				L242.91083,348.51714L241.71067,348.51714L241.71067,350.67737L240.75055,350.67737L240.75055,351.63747L239.5504,351.63747L
				239.5504,354.03773L238.35025,354.03773L238.35025,356.19796L237.39013,356.19796L237.39013,357.15806L236.18997,357.15806L236.18997,359.55832
				L235.22985,359.55832L235.22985,360.51842L234.0297,360.51842L234.0297,361.71855L230.66927,361.71855L230.66927,363.87878L231.86943,363.87878
				L231.86943,368.19924L232.82955,368.19924L232.82955,373.71982L234.0297,373.71982L234.0297,377.08018L250.5918,377.08018L250.5918,378.28031
				L251.79195,378.28031L251.79195,379.24041L252.75208,379.24041L252.75208,380.44054L253.95223,380.44054L253.95223,381.64067
				L254.91235,381.64067L254.91235,382.60077L256.1125,382.60077L256.1125,383.8009L257.31265,383.8009L257.31265,384.761L258.27278,384.761
				L258.27278,385.96113L259.47293,385.96113L259.47293,387.16126L260.43305,387.16126L260.43305,388.12136L261.6332,388.12136L
				261.6332,389.32149L262.83335,389.32149L262.83335,390.28159L279.39546,390.28159L279.39546,391.48172L280.35558,391.48172L280.35558,392.68185
				L281.55573,392.68185L281.55573,393.64195L282.51585,393.64195L282.51585,394.84208L283.716,394.84208L283.716,395.80218L284.91616,395.80218
				L284.91616,397.00231L285.87628,397.00231L285.87628,398.20243L287.07643,398.20243L287.07643,399.16254L288.03655,399.16254
				L288.03655,400.36266L289.23671,400.36266L289.23671,401.32277L290.43686,401.32277L290.43686,402.52289L291.39698,402.52289
				L291.39698,403.72302L292.59713,403.72302L292.59713,404.68312L293.55725,404.68312L293.55725,405.88325L294.75741,405.88325
				L294.75741,406.84335L295.95756,406.84335L295.95756,408.04348L296.91768,408.04348L296.91768,409.24361L298.11783,409.24361
				L298.11783,410.20371L299.07795,410.20371L299.07795,411.40384L300.27811,411.40384L300.27811,412.36394L301.47826,412.36394
				L301.47826,413.56407L302.43838,413.56407L302.43838,414.7642L303.63853,414.7642L303.63853,415.7243L304.59865,415.7243L304.59865,416.92443
				L305.79881,416.92443L305.79881,417.88453L306.99896,417.88453L306.99896,419.08466L307.95908,419.08466L307.95908,420.28479
				L309.15923,420.28479L309.15923,421.24489L310.11936,421.24489L310.11936,422.44502L311.31951,422.44502L311.31951,423.40512
				L312.51966,423.40512L312.51966,424.60525L313.47978,424.60525L313.47978,425.80537L314.67993,425.80537L314.67993,426.76548
				L315.64006,426.76548L315.64006,427.9656L316.84021,427.9656L316.84021,428.92571L318.04036,428.92571L318.04036,430.12584L319.00048,430.12584
				L319.00048,431.32596L320.20063,431.32596L320.20063,432.28607L321.16076,432.28607L321.16076,433.48619L322.36091,433.48619
				L322.36091,434.4463L323.56106,434.4463L323.56106,435.64642L324.52118,435.64642L324.52118,436.84655L325.72134,436.84655L325.72134,437.80665
				L326.68146,437.80665L326.68146,439.00678L327.88161,439.00678L327.88161,439.96688L329.08176,439.96688L329.08176,441.16701
				L330.04188,441.16701L330.04188,442.36714L331.24204,442.36714L331.24204,443.32724L332.20216,443.32724L332.20216,444.52737
				L333.40231,444.52737L333.40231,445.48747L334.60246,445.48747L334.60246,446.6876L335.56258,446.6876L335.56258,447.88773L336.76274,447.88773
				L336.76274,448.84783L337.72286,448.84783L337.72286,450.04796L338.92301,450.04796L338.92301,451.00806L340.12316,451.00806
				L340.12316,452.20819L341.08328,452.20819L341.08328,453.40832L342.28344,453.40832L342.28344,454.36842L343.24356,454.36842
				L343.24356,455.56855L344.44371,455.56855L344.44371,457.72878L343.24356,457.72878L343.24356,458.9289L342.28344,458.9289L342.28344,461.08913
				L341.08328,461.08913L341.08328,462.04924L340.12316,462.04924L340.12316,463.24936L338.92301,463.24936L338.92301,464.44949
				L337.72286,464.44949L337.72286,466.60972L336.76274,466.60972L336.76274,467.56983L335.56258,467.56983L335.56258,468.76995
				L334.60246,468.76995L334.60246,469.97008L333.40231,469.97008L333.40231,472.13031L332.20216,472.13031L332.20216,473.09041
				L331.24204,473.09041L331.24204,474.29054L330.04188,474.29054L330.04188,475.49067L329.08176,475.49067L329.08176,476.45077
				L327.88161,476.45077L327.88161,478.611L326.68146,478.611L326.68146,479.81113L325.72134,479.81113L325.72134,481.01126L324.52118,481.01126
				L324.52118,481.97136L323.56106,481.97136L323.56106,483.17149L322.36091,483.17149L322.36091,485.33172L321.16076,485.33172
				L321.16076,486.53185L320.20063,486.53185L320.20063,487.49195L319.00048,487.49195L319.00048,488.69208L318.04036,488.69208
				L318.04036,489.65218L316.84021,489.65218L316.84021,492.05243L315.64006,492.05243L315.64006,493.01254L314.67993,493.01254
				L314.67993,494.21266L313.47978,494.21266L313.47978,495.17277L312.51966,495.17277L312.51966,496.37289L311.31951,496.37289
				L311.31951,497.57302L310.11936,497.57302L310.11936,499.73325L309.15923,499.73325L309.15923,500.69335L307.95908,500.69335
				L307.95908,501.89348L306.99896,501.89348L306.99896,503.09361L305.79881,503.09361L305.79881,504.05371L304.59865,504.05371
				L304.59865,506.21394L303.63853,506.21394L303.63853,507.41407L302.43838,507.41407L302.43838,508.6142L301.47826,508.6142L301.47826,509.5743
				L300.27811,509.5743L300.27811,510.77443L299.07795,510.77443L299.07795,511.73453L298.11783,511.73453L298.11783,514.13479L
				296.91768,514.13479L296.91768,515.09489L295.95756,515.09489L295.95756,516.29502L294.75741,516.29502L294.75741,517.25512L
				293.55725,517.25512L293.55725,518.45525L292.59713,518.45525L292.59713,519.65538L291.39698,519.65538L291.39698,521.81561L
				290.43686,521.81561L290.43686,522.77571L289.23671,522.77571L289.23671,523.97584L288.03655,523.97584L288.03655,525.17596L
				287.07643,525.17596L287.07643,526.13607L285.87628,526.13607L285.87628,528.2963L284.91616,528.2963L284.91616,529.49642L283.716,529.49642
				L283.716,530.69655L282.51585,530.69655L282.51585,531.65665L281.55573,531.65665L281.55573,532.85678L280.35558,532.85678L280.35558,535.01701
				L279.39546,535.01701L279.39546,536.21714L278.1953,536.21714L278.1953,537.17724L276.99515,537.17724L276.99515,538.37737L276.03503,538.37737
				L276.03503,539.33747L274.83488,539.33747L274.83488,541.73773L273.87476,541.73773L273.87476,542.69783L272.6746,542.69783L
				272.6746,543.89796L271.47445,543.89796L271.47445,544.85806L270.51433,544.85806L270.51433,546.05819L269.31418,546.05819L269.31418,547.25832
				L268.35406,547.25832L268.35406,549.41855L267.1539,549.41855L267.1539,550.37865L265.95375,550.37865L265.95375,551.57878L264.99363,551.57878
				L264.99363,552.77891L263.79348,552.77891L263.79348,553.73901L262.83335,553.73901L262.83335,555.89924L261.6332,555.89924L
				261.6332,557.09937L260.43305,557.09937L260.43305,558.29949L259.47293,558.29949L259.47293,559.2596L258.27278,559.2596L258.27278,560.45972
				L257.31265,560.45972L257.31265,562.61995L256.1125,562.61995L256.1125,563.82008L254.91235,563.82008L254.91235,564.78018L253.95223,564.78018
				L253.95223,565.98031L252.75208,565.98031L252.75208,566.94041L251.79195,566.94041L251.79195,568.14054L250.5918,568.14054L
				250.5918,570.30077L249.39165,570.30077L249.39165,571.5009L248.43153,571.5009L248.43153,572.461L247.23137,572.461L247.23137,573.66113
				L245.0711,573.66113L245.0711,574.86126L242.91083,574.86126L242.91083,575.82136L240.75055,575.82136L240.75055,577.02149L238.35025,577.02149
				L238.35025,577.98159L237.39013,577.98159L237.39013,579.18172L235.22985,579.18172L235.22985,580.38185L232.82955,580.38185
				L232.82955,581.34195L230.66927,581.34195L230.66927,582.54208L229.70915,582.54208L229.70915,583.50218L227.30885,583.50218
				L227.30885,584.70231L225.14857,584.70231L225.14857,585.90243L222.9883,585.90243L222.9883,586.86254L220.82802,586.86254L220.82802,588.06266
				L219.62787,588.06266L219.62787,589.02277L217.4676,589.02277L217.4676,590.2229L215.30732,590.2229L215.30732,591.42302L213.14705,591.42302
				L213.14705,592.38313L211.9469,592.38313L211.9469,593.58325L210.74674,593.58325L210.74674,594.54336L209.78662,594.54336L209.78662,596.94361
				L208.58647,596.94361L208.58647,597.90371L207.62635,597.90371L207.62635,599.10384L206.4262,599.10384L206.4262,600.06394L205.22604,600.06394
				L205.22604,601.26407L204.26592,601.26407L204.26592,602.4642L203.06577,602.4642L203.06577,604.62443L202.10565,604.62443L202.10565,605.58453
				L200.9055,605.58453L200.9055,606.78466L199.70534,606.78466L199.70534,607.98479L198.74522,607.98479L198.74522,610.14502L199.70534,610.14502
				L199.70534,611.10512L200.9055,611.10512L200.9055,612.30525L202.10565,612.30525L202.10565,613.50538L203.06577,613.50538L203.06577,614.46548
				L205.22604,614.46548L205.22604,615.66561L206.4262,615.66561L206.4262,616.62571L207.62635,616.62571L207.62635,617.82584L208.58647,617.82584
				L208.58647,619.02596L209.78662,619.02596L209.78662,619.98607L210.74674,619.98607L210.74674,621.18619L211.9469,621.18619L
				211.9469,622.1463L213.14705,622.1463L213.14705,624.54655L211.9469,624.54655L211.9469,625.50666L210.74674,625.50666L210.74674,627.66689
				L209.78662,627.66689L209.78662,628.86701L208.58647,628.86701L208.58647,630.06714L207.62635,630.06714L207.62635,632.22737
				L206.4262,632.22737L206.4262,633.18747L205.22604,633.18747L205.22604,635.58773L204.26592,635.58773L204.26592,636.54783L203.06577,636.54783
				L203.06577,638.70806L199.70534,638.70806L199.70534,637.74796L198.74522,637.74796L198.74522,636.54783L197.54507,636.54783
				L197.54507,635.58773L196.58495,635.58773L196.58495,634.3876L195.3848,634.3876L195.3848,633.18747L194.18464,633.18747L194.18464,632.22737
				L193.22452,632.22737L193.22452,631.02724L192.02437,631.02724L192.02437,630.06714L189.86409,630.06714L189.86409,628.86701
				L188.66394,628.86701L188.66394,627.66689L187.70382,627.66689L187.70382,626.70678L186.50367,626.70678L186.50367,625.50666
				L185.54355,625.50666L185.54355,624.54655L184.34339,624.54655L184.34339,623.34642L183.14324,623.34642L183.14324,622.1463L
				182.18312,622.1463L182.18312,621.18619L168.98144,621.18619L168.98144,619.98607L153.37946,619.98607L153.37946,621.18619L150.01904,621.18619
				L150.01904,622.1463L146.89864,622.1463L146.89864,623.34642L145.69849,623.34642L145.69849,624.54655L143.53822,624.54655L143.53822,625.50666
				L142.33806,625.50666L142.33806,626.70678L141.37794,626.70678L141.37794,627.66689L138.97764,627.66689L138.97764,628.86701
				L138.01752,628.86701L138.01752,630.06714L135.85724,630.06714L135.85724,631.02724L134.65709,631.02724L134.65709,632.22737
				L133.45694,632.22737L133.45694,633.18747L131.29666,633.18747L131.29666,634.3876L130.33654,634.3876L130.33654,635.58773L129.13639,635.58773
				L129.13639,636.54783L126.97611,636.54783L126.97611,637.74796L125.77596,637.74796L125.77596,638.70806L123.61569,638.70806
				L123.61569,639.90819L122.41554,639.90819L122.41554,641.10832L120.25526,641.10832L120.25526,642.06842L116.89483,642.06842
				L116.89483,643.26855L114.73456,643.26855L114.73456,644.22865L111.37413,644.22865L111.37413,645.42878L109.21386,645.42878
				L109.21386,646.62891L107.05359,646.62891L107.05359,647.58901L103.69316,647.58901L103.69316,648.78914L101.53289,648.78914
				L101.53289,649.74924L99.37261,649.74924L99.37261,650.94937L100.33273,650.94937L100.33273,653.1096L101.53289,653.1096L101.53289,656.46995
				L102.73304,656.46995L102.73304,658.63018L103.69316,658.63018L103.69316,661.99054L101.53289,661.99054L101.53289,663.19067
				L99.37261,663.19067L99.37261,664.15077L97.21234,664.15077L97.21234,665.3509L94.81203,665.3509L94.81203,666.311L93.85191,666.311
				L93.85191,667.51113L91.69164,667.51113L91.69164,668.71126L89.53136,668.71126L89.53136,669.67136L88.33121,669.67136L88.33121,667.51113
				L87.13106,667.51113L87.13106,664.15077L86.17094,664.15077L86.17094,661.99054L84.97078,661.99054L84.97078,659.83031L82.81051,659.83031
				L82.81051,660.79041L80.65024,660.79041L80.65024,661.99054L78.48996,661.99054L78.48996,663.19067L76.08966,663.19067L76.08966,664.15077
				L73.92938,664.15077L73.92938,665.3509L72.96926,665.3509L72.96926,666.311L71.76911,666.311L71.76911,667.51113L70.56896,667.51113
				L70.56896,668.71126L69.60883,668.71126L69.60883,669.67136L68.40868,669.67136L68.40868,671.83159L67.44856,671.83159L67.44856,673.03172
				L66.24841,673.03172L66.24841,674.23185L65.04826,674.23185L65.04826,675.19195L64.08813,675.19195L64.08813,676.39208L62.88798,676.39208
				L62.88798,677.35218L61.92786,677.35218L61.92786,678.55231L60.72771,678.55231L60.72771,679.75244L59.52755,679.75244L59.52755,680.71254
				L58.56743,680.71254L58.56743,682.87277L57.36728,682.87277L57.36728,684.0729L56.40716,684.0729L56.40716,685.27302L55.20701,685.27302
				L55.20701,686.23313L54.00685,686.23313L54.00685,688.39336L53.04673,688.39336L53.04673,689.59348L51.84658,689.59348L51.84658,690.79361
				L50.88646,690.79361L50.88646,692.95384L49.68631,692.95384L49.68631,693.91394L48.48615,693.91394L48.48615,696.3142L47.52603,696.3142
				L47.52603,697.2743L46.32588,697.2743L46.32588,699.43453L45.36576,699.43453L45.36576,700.63466L44.16561,700.63466L44.16561,701.83479
				L42.96545,701.83479L42.96545,703.99502L42.00533,703.99502L42.00533,704.95512L40.80518,704.95512L40.80518,707.35538L39.84506,707.35538
				L39.84506,708.31548L38.6449,708.31548L38.6449,709.51561L37.44475,709.51561L37.44475,711.67584L36.48463,711.67584L36.48463,712.87597
				L35.28448,712.87597L35.28448,715.0362L34.32436,715.0362L34.32436,715.9963L33.1242,715.9963L33.1242,717.19643L31.92405,717.19643
				L31.92405,719.35666L30.96393,719.35666L30.96393,720.55678L29.76378,720.55678L29.76378,721.51689L30.96393,721.51689L30.96393,722.71701
				L31.92405,722.71701L31.92405,723.91714L33.1242,723.91714L33.1242,724.87724L34.32436,724.87724L34.32436,726.07737L35.28448,726.07737
				L35.28448,727.03747L37.44475,727.03747L37.44475,728.2376L38.6449,728.2376L38.6449,729.43773L39.84506,729.43773L39.84506,730.39783
				L40.80518,730.39783L40.80518,731.59796L42.00533,731.59796L42.00533,732.55806L42.96545,732.55806L42.96545,733.75819L44.16561,733.75819
				L44.16561,734.95832L45.36576,734.95832L45.36576,735.91842L46.32588,735.91842L46.32588,737.11855L47.52603,737.11855L47.52603,738.07865
				L48.48615,738.07865L48.48615,739.27878L49.68631,739.27878L49.68631,740.47891L50.88646,740.47891L50.88646,741.43901L51.84658,741.43901
				L51.84658,743.59924L50.88646,743.59924L50.88646,744.79937L49.68631,744.79937L49.68631,745.99949L48.48615,745.99949L48.48615,748.15973
				L47.52603,748.15973L47.52603,749.11983L46.32588,749.11983L46.32588,750.31996L45.36576,750.31996L45.36576,751.52008L44.16561,751.52008
				L44.16561,752.48019L42.96545,752.48019L42.96545,753.68031L42.00533,753.68031L42.00533,754.64042L40.80518,754.64042L40.80518,755.84054
				L39.84506,755.84054L39.84506,757.04067L38.6449,757.04067L38.6449,759.2009L37.44475,759.2009L37.44475,760.161L36.48463,760.161
				L36.48463,761.36113L35.28448,761.36113L35.28448,762.56126L33.1242,762.56126L33.1242,763.52136L31.92405,763.52136L31.92405,764.72149
				L30.96393,764.72149L30.96393,765.68159L29.76378,765.68159L29.76378,766.88172L27.6035,766.88172L27.6035,768.08185L26.40335,768.08185
				L26.40335,769.04195L25.44323,769.04195L25.44323,770.24208L23.28296,770.24208L23.28296,771.20218L22.0828,771.20218L22.0828,772.40231
				L20.88265,772.40231L20.88265,773.60244L19.92253,773.60244L19.92253,774.56254L17.76225,774.56254L17.76225,775.76267L16.5621,775.76267
				L16.5621,776.72277L15.36195,776.72277L15.36195,777.9229L13.20168,777.9229L13.20168,779.12302L12.24155,779.12302L12.24155,780.08313
				L11.0414,780.08313L11.0414,781.28325L8.88113,781.28325L8.88113,782.24336L6.72085,782.24336L6.72085,783.44348L4.32055,783.44348
				L4.32055,784.64361L2.16027,784.64361L2.16027,785.60372L1.20015,785.60372L1.20015,786.80384L-1.20015,786.80384L-1.20015,787.76395
				L-3.36043,787.76395L-3.36043,788.96407L-4.32055,788.96407L-4.32055,787.76395L-5.5207,787.76395L-5.5207,786.80384L-6.24079,786.80384
				"/>
			<path clip-path="url(#SVG_CP_2)" fill="none" stroke="#999999" stroke-width="0.96012" stroke-miterlimit="10" stroke-linecap="round" stroke-linejoin="round" d="
				M-6.24079,853.0509L-5.5207,853.0509L-5.5207,854.011L-4.32055,854.011L-4.32055,855.21113L-3.36043,855.21113L-3.36043,856.17123
				L-2.16027,856.17123L-2.16027,857.37136L-1.20015,857.37136L-1.20015,858.57149L0,858.57149L0,859.53159L1.20015,859.53159L1.20015,860.73172
				L2.16027,860.73172L2.16027,861.21177"/>
			<path clip-path="url(#SVG_CP_2)" fill="none" stroke="#999999" stroke-width="0.96012" stroke-miterlimit="10" stroke-linecap="round" stroke-linejoin="round" d="
				M-6.24079,71.2876L601.9964,71.2876"/>
			<path clip-path="url(#SVG_CP_2)" fill="none" stroke="#999999" stroke-width="0.96012" stroke-miterlimit="10" stroke-linecap="round" stroke-linejoin="round" d="
				M601.9964,209.3023L601.75637,209.3023L601.75637,211.46253L600.55621,211.46253L600.55621,213.62276L599.59609,213.62276L599.59609,216.02302
				L598.39594,216.02302L598.39594,219.14335L597.19579,219.14335L597.19579,221.54361L596.23566,221.54361L596.23566,223.70384
				L595.03551,223.70384L595.03551,225.86407L594.07539,225.86407L594.07539,228.0243L592.87524,228.0243L592.87524,230.18453L591.67509,230.18453
				L591.67509,232.58478L590.71496,232.58478L590.71496,234.74502L589.51481,234.74502L589.51481,236.90525L588.55469,236.90525
				L588.55469,239.06548L583.99411,239.06548L583.99411,238.10537L580.63368,238.10537L580.63368,236.90525L576.31314,236.90525
				L576.31314,235.70512L572.95271,235.70512L572.95271,234.74502L568.63216,234.74502L568.63216,233.54489L567.43201,233.54489
				L567.43201,235.70512L566.47189,235.70512L566.47189,238.10537L565.27174,238.10537L565.27174,240.2656L564.07158,240.2656L564.07158,242.42583
				L563.11146,242.42583L563.11146,244.58606L561.91131,244.58606L561.91131,246.74629L560.95119,246.74629L560.95119,247.94642
				L559.75103,247.94642L559.75103,250.10665L558.55088,250.10665L558.55088,252.26688L557.59076,252.26688L557.59076,254.66714
				L556.39061,254.66714L556.39061,256.82737L555.43049,256.82737L555.43049,258.9876L554.23033,258.9876L554.23033,261.14783L553.03018,261.14783
				L553.03018,262.34796L556.39061,262.34796L556.39061,263.30806L559.75103,263.30806L559.75103,264.50819L563.11146,264.50819
				L563.11146,265.70831L566.47189,265.70831L566.47189,266.66842L569.59228,266.66842L569.59228,267.86854L572.95271,267.86854
				L572.95271,268.82865L576.31314,268.82865L576.31314,270.02877L577.51329,270.02877L577.51329,271.2289L576.31314,271.2289L576.31314,273.38913
				L575.11298,273.38913L575.11298,276.74949L574.15286,276.74949L574.15286,279.86982L572.95271,279.86982L572.95271,282.27008
				L571.99259,282.27008L571.99259,285.39041L570.79244,285.39041L570.79244,286.59054L569.59228,286.59054L569.59228,285.39041
				L567.43201,285.39041L567.43201,284.43031L565.27174,284.43031L565.27174,283.23018L563.11146,283.23018L563.11146,282.27008
				L560.95119,282.27008L560.95119,281.06995L558.55088,281.06995L558.55088,279.86982L555.43049,279.86982L555.43049,278.90972
				L553.03018,278.90972L553.03018,277.70959L550.86991,277.70959L550.86991,276.74949L548.70963,276.74949L548.70963,275.54936
				L546.54936,275.54936L546.54936,278.90972L545.34921,278.90972L545.34921,282.27008L544.38909,282.27008L544.38909,284.43031
				L543.18893,284.43031L543.18893,287.79067L541.98878,287.79067L541.98878,290.911L541.02866,290.911L541.02866,293.31126L539.82851,293.31126
				L539.82851,296.43159L538.86838,296.43159L538.86838,299.79195L537.66823,299.79195L537.66823,303.1523L536.46808,303.1523L536.46808,305.31253
				L535.50796,305.31253L535.50796,308.67289L534.30781,308.67289L534.30781,312.03325L533.34768,312.03325L533.34768,315.39361
				L532.14753,315.39361L532.14753,317.55384L530.94738,317.55384L530.94738,320.9142L529.98726,320.9142L529.98726,324.03453L528.78711,324.03453
				L528.78711,327.39489L527.82698,327.39489L527.82698,329.55512L526.62683,329.55512L526.62683,332.91548L525.42668,332.91548
				L525.42668,336.27583L524.46656,336.27583L524.46656,339.63619L527.82698,339.63619L527.82698,340.59629L532.14753,340.59629
				L532.14753,341.79642L535.50796,341.79642L535.50796,342.99655L539.82851,342.99655L539.82851,343.95665L543.18893,343.95665
				L543.18893,345.15678L547.50948,345.15678L547.50948,346.11688L548.70963,346.11688L548.70963,348.51714L547.50948,348.51714
				L547.50948,351.63747L546.54936,351.63747L546.54936,354.99783L545.34921,354.99783L545.34921,358.35819L544.38909,358.35819
				L544.38909,360.51842L543.18893,360.51842L543.18893,363.87878L541.98878,363.87878L541.98878,367.23913L541.02866,367.23913
				L541.02866,370.59949L539.82851,370.59949L539.82851,371.55959L536.46808,371.55959L536.46808,370.59949L532.14753,370.59949
				L532.14753,369.39936L527.82698,369.39936L527.82698,368.19924L523.2664,368.19924L523.2664,367.23913L518.94586,367.23913L518.94586,366.03901
				L514.38528,366.03901L514.38528,365.0789L510.06473,365.0789L510.06473,363.87878L508.86458,363.87878L508.86458,362.67865L510.06473,362.67865
				L510.06473,359.55832L511.26488,359.55832L511.26488,356.19796L510.06473,356.19796L510.06473,354.99783L507.90446,354.99783
				L507.90446,354.03773L504.54403,354.03773L504.54403,352.8376L502.38375,352.8376L502.38375,351.63747L501.1836,351.63747L501.1836,348.51714
				L502.38375,348.51714L502.38375,346.11688L503.34388,346.11688L503.34388,342.99655L501.1836,342.99655L501.1836,341.79642L497.82318,341.79642
				L497.82318,340.59629L495.6629,340.59629L495.6629,339.63619L492.30248,339.63619L492.30248,338.43606L490.1422,338.43606L490.1422,337.47596
				L487.98193,337.47596L487.98193,336.27583L484.6215,336.27583L484.6215,335.07571L482.46123,335.07571L482.46123,334.1156L479.1008,334.1156
				L479.1008,332.91548L476.94053,332.91548L476.94053,331.95537L474.78025,331.95537L474.78025,330.75525L471.41983,330.75525L
				471.41983,329.55512L469.25955,329.55512L469.25955,328.59502L465.89912,328.59502L465.89912,327.39489L463.73885,327.39489L
				463.73885,326.43479L460.37842,326.43479L460.37842,325.23466L458.21815,325.23466L458.21815,326.43479L457.018,326.43479L457.018,327.39489
				L456.05788,327.39489L456.05788,328.59502L453.65757,328.59502L453.65757,329.55512L452.69745,329.55512L452.69745,330.75525
				L451.4973,330.75525L451.4973,331.95537L450.53717,331.95537L450.53717,332.91548L449.33702,332.91548L449.33702,334.1156L448.13687,334.1156
				L448.13687,335.07571L447.17675,335.07571L447.17675,337.47596L445.9766,337.47596L445.9766,338.43606L445.01647,338.43606L445.01647,339.63619
				L443.81632,339.63619L443.81632,340.59629L442.61617,340.59629L442.61617,341.79642L441.65605,341.79642L441.65605,343.95665
				L440.4559,343.95665L440.4559,345.15678L439.49577,345.15678L439.49577,346.11688L438.29562,346.11688L438.29562,347.31701L437.09547,347.31701
				L437.09547,348.51714L436.13535,348.51714L436.13535,350.67737L434.9352,350.67737L434.9352,351.63747L433.97507,351.63747L433.97507,352.8376
				L432.77492,352.8376L432.77492,354.03773L431.57477,354.03773L431.57477,354.99783L430.61465,354.99783L430.61465,356.19796L
				429.41449,356.19796L429.41449,358.35819L428.45437,358.35819L428.45437,359.55832L427.25422,359.55832L427.25422,360.51842L
				426.05407,360.51842L426.05407,361.71855L425.09395,361.71855L425.09395,362.67865L423.89379,362.67865L423.89379,363.87878L
				422.93367,363.87878L422.93367,366.03901L421.73352,366.03901L421.73352,367.23913L420.53337,367.23913L420.53337,368.19924L
				419.57325,368.19924L419.57325,369.39936L418.37309,369.39936L418.37309,370.59949L417.41297,370.59949L417.41297,371.55959L
				416.21282,371.55959L416.21282,373.71982L415.01267,373.71982L415.01267,374.91995L414.05254,374.91995L414.05254,376.12008L
				412.85239,376.12008L412.85239,377.08018L411.89227,377.08018L411.89227,378.28031L410.69212,378.28031L410.69212,379.24041L
				409.49197,379.24041L409.49197,380.44054L408.53184,380.44054L408.53184,382.60077L407.33169,382.60077L407.33169,383.8009L406.37157,383.8009
				L406.37157,384.761L405.17142,384.761L405.17142,385.96113L403.97127,385.96113L403.97127,387.16126L403.01114,387.16126L403.01114,388.12136
				L401.81099,388.12136L401.81099,390.28159L400.85087,390.28159L400.85087,391.48172L399.65072,391.48172L399.65072,392.68185
				L398.45057,392.68185L398.45057,393.64195L399.65072,393.64195L399.65072,394.84208L403.01114,394.84208L403.01114,395.80218
				L405.17142,395.80218L405.17142,397.00231L407.33169,397.00231L407.33169,398.20243L409.49197,398.20243L409.49197,399.16254
				L412.85239,399.16254L412.85239,400.36266L415.01267,400.36266L415.01267,401.32277L417.41297,401.32277L417.41297,402.52289
				L419.57325,402.52289L419.57325,403.72302L422.93367,403.72302L422.93367,404.68312L425.09395,404.68312L425.09395,405.88325
				L427.25422,405.88325L427.25422,406.84335L429.41449,406.84335L429.41449,408.04348L431.57477,408.04348L431.57477,409.24361
				L434.9352,409.24361L434.9352,410.20371L436.13535,410.20371L436.13535,411.40384L434.9352,411.40384L434.9352,413.56407L433.97507,413.56407
				L433.97507,415.7243L432.77492,415.7243L432.77492,416.92443L431.57477,416.92443L431.57477,419.08466L430.61465,419.08466L430.61465,421.24489
				L429.41449,421.24489L429.41449,423.40512L428.45437,423.40512L428.45437,424.60525L427.25422,424.60525L427.25422,426.76548
				L426.05407,426.76548L426.05407,428.92571L425.09395,428.92571L425.09395,431.32596L423.89379,431.32596L423.89379,433.48619
				L422.93367,433.48619L422.93367,434.4463L421.73352,434.4463L421.73352,436.84655L420.53337,436.84655L420.53337,439.00678L417.41297,439.00678
				L417.41297,437.80665L415.01267,437.80665L415.01267,436.84655L411.89227,436.84655L411.89227,435.64642L409.49197,435.64642
				L409.49197,434.4463L406.37157,434.4463L406.37157,433.48619L403.97127,433.48619L403.97127,432.28607L401.81099,432.28607L401.81099,431.32596
				L398.45057,431.32596L398.45057,430.12584L396.29029,430.12584L396.29029,428.92571L392.92986,428.92571L392.92986,427.9656L
				390.76959,427.9656L390.76959,426.76548L388.60932,426.76548L388.60932,425.80537L385.24889,425.80537L385.24889,424.60525L383.08862,424.60525
				L383.08862,423.40512L379.72819,423.40512L379.72819,422.44502L377.56791,422.44502L377.56791,421.24489L375.40764,421.24489
				L375.40764,420.28479L374.20749,420.28479L374.20749,421.24489L373.24737,421.24489L373.24737,422.44502L372.04721,422.44502
				L372.04721,423.40512L370.84706,423.40512L370.84706,425.80537L369.88694,425.80537L369.88694,426.76548L368.68679,426.76548
				L368.68679,427.9656L367.72667,427.9656L367.72667,428.92571L366.52651,428.92571L366.52651,430.12584L365.32636,430.12584L365.32636,432.28607
				L364.36624,432.28607L364.36624,433.48619L363.16609,433.48619L363.16609,434.4463L362.20597,434.4463L362.20597,435.64642L361.00581,435.64642
				L361.00581,437.80665L359.80566,437.80665L359.80566,439.00678L358.84554,439.00678L358.84554,439.96688L357.64539,439.96688
				L357.64539,441.16701L356.68526,441.16701L356.68526,443.32724L355.48511,443.32724L355.48511,444.52737L354.28496,444.52737
				L354.28496,445.48747L353.32484,445.48747L353.32484,446.6876L352.12469,446.6876L352.12469,448.84783L351.16456,448.84783L351.16456,450.04796
				L349.96441,450.04796L349.96441,451.00806L348.76426,451.00806L348.76426,452.20819L347.80414,452.20819L347.80414,453.40832
				L346.60399,453.40832L346.60399,455.56855L344.44371,455.56855"/>
		</g>
</g></svg>