<?xml version="1.0" encoding="utf-8" standalone="no"?>
<!-- Creator: ESRI ArcMap 10.0.0.2414 -->
<!DOCTYPE svg PUBLIC "-//W3C//DTD SVG 1.1//EN"  "http://www.w3.org/Graphics/SVG/1.1/DTD/svg11.dtd">
<svg width="595.50236pt" height="595.50236pt" viewBox="25 148.377955 545.50236 545.50236" enable-background="new 25 148.377955 545.50236 545.50236"
	version="1.1" xmlns="http://www.w3.org/2000/svg" xmlns:xlink="http://www.w3.org/1999/xlink" >
	<g id="Couches">
		<g id="reservoirs">
			<clipPath id="SVG_CP_2">
				<path d="M574.39289,21.36228L21.36271,21.36228L21.36271,821.36753L574.39289,821.36753L574.39289,21.36228z"/>
			</clipPath>
			<path clip-path="url(#SVG_CP_2)" fill-opacity="0.08" fill="#2f4493" fill-rule="evenodd" stroke="#2f4493" stroke-width="1" stra="1.44018" stroke-miterlimit="10" stroke-linecap="round" stroke-linejoin="round" d="
				M-6.24079,246.02622L73.92938,271.2289L144.49834,295.23146L232.10946,326.91484L239.07034,356.19796L121.21538,304.11241L5.5207,258.74757
				L-6.24079,259.9477L-6.24079,246.02622z"/>
			<path clip-path="url(#SVG_CP_2)" fill-opacity="0.08" fill="#2f4493" fill-rule="evenodd" stroke="#2f4493" stroke-width="1" stra="1.44018" stroke-miterlimit="10" stroke-linecap="round" stroke-linejoin="round" d="
				M275.07491,861.21177L271.23442,859.53159L277.71524,853.29093L272.91463,845.37008L268.35406,841.28965L265.71372,836.96919
				L265.47369,837.68927L249.15162,810.32635L297.63777,789.68415L297.63777,790.64425L315.64006,779.36305L319.00048,776.96279
				L315.88009,770.00205L313.47978,764.48146L311.79957,760.40103L308.67917,753.68031L275.31494,771.68223L234.26973,807.68607
				L234.0297,807.68607L233.30961,807.92609L232.58952,808.8862L228.26897,806.00589L228.02894,805.76586L228.02894,805.52584L224.18845,803.12558
				L213.86714,798.80512L204.50595,795.92481L197.30504,800.00525L195.3848,805.52584L194.42467,805.52584L192.98449,808.8862L197.7851,813.68671
				L198.26516,813.92673L190.58419,821.60755L180.74294,818.48722L170.1816,847.05026L168.02132,854.011L165.86105,861.21177L-6.24079,861.21177
				L-6.24079,592.38313L-4.80061,592.38313L14.40183,592.38313L21.36271,592.62315L77.04978,555.41919L72.4892,548.69847L46.08585,511.25448
				L77.52984,510.5344L76.08966,509.81433L94.572,507.17405L101.77292,506.21394L136.81736,499.49323L151.69925,496.85295L180.26288,491.57238
				L181.94309,491.33236L183.6233,491.09233L200.66547,490.85231L225.14857,491.33236L231.38936,490.37225L240.03046,489.8922L243.87095,489.8922
				L249.63168,489.65218L261.39317,487.73197L285.39622,484.61164L285.63625,485.33172L286.35634,485.09169L298.83792,482.69144
				L303.15847,506.93402L318.76045,505.73389L322.36091,505.49387L327.64158,493.01254L333.40231,479.33108L342.04341,475.01062
				L346.12392,487.972L363.64615,483.41151L359.80566,470.93018L359.56563,469.97008L397.73047,455.0885L415.73276,446.6876L421.01343,443.08722
				L427.73428,436.84655L428.21434,436.12647L433.49501,429.40576L433.97507,429.16573L434.2151,428.68568L440.21587,423.88517L
				447.41678,419.56471L448.3769,418.84463L449.57705,417.88453L483.90141,396.76228L496.14296,390.52161L504.54403,387.64131L512.94509,384.761
				L531.66747,379.96049L535.74799,378.76036L542.22881,376.60013L542.70887,376.84016L556.87067,373.71982L561.43125,372.03965
				L565.99183,370.11944L570.07234,369.39936L575.11298,368.43926L579.1935,368.19924L601.9964,362.1986L601.9964,861.21177L275.07491,861.21177
				zM-6.24079,519.8954L5.5207,530.69655L6.00076,530.93658L8.40107,534.29694L-6.00076,540.5376L-6.24079,540.77763L-6.24079,519.8954
				z"/>
		</g>
</g></svg>