<?xml version="1.0" encoding="utf-8" standalone="no"?>
<!-- Creator: ESRI ArcMap 10.0.0.2414 -->
<!DOCTYPE svg PUBLIC "-//W3C//DTD SVG 1.1//EN"  "http://www.w3.org/Graphics/SVG/1.1/DTD/svg11.dtd">
<svg width="595.50236pt" height="595.50236pt" viewBox="25 148.377955 545.50236 545.50236" enable-background="new 25 148.377955 545.50236 545.50236"
	version="1.1" xmlns="http://www.w3.org/2000/svg" xmlns:xlink="http://www.w3.org/1999/xlink" >
	<g id="Couches">
		<g id="cont_1">
			<clipPath id="SVG_CP_2">
				<path d="M574.39289,21.36228L21.36271,21.36228L21.36271,821.36753L574.39289,821.36753L574.39289,21.36228z"/>
			</clipPath>
			<path clip-path="url(#SVG_CP_2)" fill="none" stroke="#999999" stroke-width="0.96012" stroke-miterlimit="10" stroke-linecap="round" stroke-linejoin="round" d="
				M339.16304,348.27711L335.32255,348.27711L335.32255,351.8775L331.48207,351.8775L331.48207,355.71791L327.88161,355.71791L327.88161,359.55832
				L324.04112,359.55832L324.04112,363.1587L320.20063,363.1587L320.20063,366.99911L316.36015,366.99911L316.36015,370.83952L312.75969,370.83952
				L312.75969,374.67993L308.9192,374.67993L308.9192,378.28031L305.07872,378.28031L305.07872,382.12072L301.47826,382.12072L301.47826,385.96113
				L297.63777,385.96113L297.63777,389.56151L293.79728,389.56151L293.79728,393.40192L289.9568,393.40192L289.9568,397.24233L286.35634,397.24233
				L286.35634,401.08274L282.51585,401.08274L282.51585,404.68312L278.67537,404.68312L278.67537,408.52353L275.07491,408.52353
				L275.07491,412.36394L271.23442,412.36394L271.23442,415.96433L267.39393,415.96433L267.39393,419.80474L263.55345,419.80474
				L263.55345,423.64514L259.95299,423.64514L259.95299,427.48555L252.27201,427.48555L252.27201,423.64514L248.67156,423.64514
				L248.67156,415.96433L244.83107,415.96433L244.83107,412.36394L240.99058,412.36394L240.99058,408.52353L237.1501,408.52353L
				237.1501,401.08274L233.54964,401.08274L233.54964,397.24233L229.70915,397.24233L229.70915,389.56151L225.86866,389.56151L225.86866,385.96113
				L222.02818,385.96113L222.02818,382.12072L218.42772,382.12072L218.42772,374.67993L214.58723,374.67993L214.58723,370.83952
				L210.74674,370.83952L210.74674,366.99911L207.14629,366.99911L207.14629,359.55832L203.3058,359.55832L203.3058,355.71791L199.46531,355.71791
				L199.46531,351.8775L195.62483,351.8775L195.62483,344.4367L192.02437,344.4367L192.02437,340.59629L188.18388,340.59629L188.18388,336.75589
				L184.34339,336.75589L184.34339,333.1555L180.74294,333.1555L180.74294,325.47468L176.90245,325.47468L176.90245,321.8743L173.06196,321.8743
				L173.06196,318.03389L169.22148,318.03389L169.22148,314.19348L165.62102,314.19348L165.62102,306.75269L161.78053,306.75269
				L161.78053,302.91228L157.94004,302.91228L157.94004,299.07187L154.33959,299.07187L154.33959,295.23146L150.4991,295.23146L
				150.4991,287.79067L146.65861,287.79067L146.65861,283.95026L142.81812,283.95026L142.81812,280.34987L139.21767,280.34987L139.21767,276.50947
				L135.37718,276.50947L135.37718,268.82865L131.53669,268.82865L131.53669,265.22826L127.93624,265.22826L127.93624,261.38785
				L124.09575,261.38785L124.09575,257.54744L120.25526,257.54744L120.25526,250.10665L116.41477,250.10665L116.41477,246.26624
				L112.81432,246.26624L112.81432,242.42583L108.97383,242.42583L108.97383,238.82545L105.13334,238.82545L105.13334,234.98504
				L101.53289,234.98504L101.53289,231.14463L97.6924,231.14463L97.6924,227.54425L93.85191,227.54425L93.85191,219.86343L90.01142,219.86343
				L90.01142,216.02302L86.41097,216.02302L86.41097,212.42264L82.57048,212.42264L82.57048,208.58223L78.72999,208.58223L78.72999,204.74182
				L75.12953,204.74182L75.12953,201.14143L71.28905,201.14143L71.28905,193.46062L67.44856,193.46062L67.44856,189.62021L63.60807,189.62021
				L63.60807,186.01982L60.00762,186.01982L60.00762,182.17941L56.16713,182.17941L56.16713,178.339L52.32664,178.339L52.32664,174.73862
				L48.72618,174.73862L48.72618,167.0578L44.8857,167.0578L44.8857,163.21739L41.04521,163.21739L41.04521,159.61701L37.20472,159.61701
				L37.20472,155.7766L33.60426,155.7766L33.60426,151.93619L29.76378,151.93619L29.76378,148.33581L22.0828,148.33581L22.0828,144.4954
				L18.48235,144.4954L18.48235,140.65499L14.64186,140.65499L14.64186,136.81458L10.80137,136.81458L10.80137,133.2142L7.20091,133.2142
				L7.20091,129.37379L3.36043,129.37379L3.36043,125.53338L-4.32055,125.53338L-4.32055,121.93299L-6.24079,121.93299M-6.24079,351.8775
				L-4.32055,351.8775L-4.32055,355.71791L-0.48006,355.71791L-0.48006,359.55832L3.36043,359.55832L3.36043,366.99911L7.20091,366.99911
				L7.20091,370.83952L10.80137,370.83952L10.80137,374.67993L14.64186,374.67993L14.64186,378.28031L18.48235,378.28031L18.48235,382.12072
				L22.0828,382.12072L22.0828,385.96113L25.92329,385.96113L25.92329,389.56151L29.76378,389.56151L29.76378,397.24233L33.60426,397.24233
				L33.60426,401.08274L37.20472,401.08274L37.20472,397.24233L41.04521,397.24233L41.04521,393.40192L44.8857,393.40192L44.8857,389.56151
				L52.32664,389.56151L52.32664,385.96113L56.16713,385.96113L56.16713,382.12072L60.00762,382.12072L60.00762,378.28031L63.60807,378.28031
				L63.60807,374.67993L71.28905,374.67993L71.28905,370.83952L67.44856,370.83952L67.44856,366.99911L63.60807,366.99911L63.60807,359.55832
				L60.00762,359.55832L60.00762,355.71791L56.16713,355.71791L56.16713,351.8775L52.32664,351.8775L52.32664,348.27711L48.72618,348.27711
				L48.72618,340.59629L52.32664,340.59629L52.32664,336.75589L56.16713,336.75589L56.16713,333.1555L63.60807,333.1555L63.60807,329.31509
				L67.44856,329.31509L67.44856,325.47468L71.28905,325.47468L71.28905,321.8743L75.12953,321.8743L75.12953,318.03389L82.57048,318.03389
				L82.57048,314.19348L86.41097,314.19348L86.41097,310.35307L93.85191,310.35307L93.85191,314.19348L97.6924,314.19348L97.6924,318.03389
				L101.53289,318.03389L101.53289,325.47468L105.13334,325.47468L105.13334,329.31509L108.97383,329.31509L108.97383,333.1555L
				112.81432,333.1555L112.81432,336.75589L116.41477,336.75589L116.41477,340.59629L120.25526,340.59629L120.25526,344.4367L124.09575,344.4367
				L124.09575,351.8775L127.93624,351.8775L127.93624,355.71791L131.53669,355.71791L131.53669,359.55832L135.37718,359.55832L135.37718,363.1587
				L139.21767,363.1587L139.21767,366.99911L142.81812,366.99911L142.81812,370.83952L146.65861,370.83952L146.65861,374.67993L
				150.4991,374.67993L150.4991,378.28031L154.33959,378.28031L154.33959,382.12072L157.94004,382.12072L157.94004,385.96113L161.78053,385.96113
				L161.78053,389.56151L165.62102,389.56151L165.62102,393.40192L169.22148,393.40192L169.22148,397.24233L173.06196,397.24233
				L173.06196,404.68312L176.90245,404.68312L176.90245,408.52353L180.74294,408.52353L180.74294,412.36394L184.34339,412.36394
				L184.34339,415.96433L188.18388,415.96433L188.18388,423.64514L192.02437,423.64514L192.02437,427.48555L195.62483,427.48555
				L195.62483,431.08594L199.46531,431.08594L199.46531,434.92635L203.3058,434.92635L203.3058,442.36714L207.14629,442.36714L207.14629,446.20755
				L210.74674,446.20755L210.74674,450.04796L214.58723,450.04796L214.58723,453.88837L218.42772,453.88837L218.42772,461.32916
				L222.02818,461.32916L222.02818,465.16957L225.86866,465.16957L225.86866,468.76995L229.70915,468.76995L229.70915,472.61036
				L233.54964,472.61036L233.54964,480.29118L237.1501,480.29118L237.1501,483.89156L240.99058,483.89156L240.99058,487.73197L244.83107,487.73197
				L244.83107,495.17277L248.67156,495.17277L248.67156,499.01318L252.27201,499.01318L252.27201,506.69399L256.1125,506.69399L
				256.1125,510.29438L259.95299,510.29438L259.95299,517.9752L263.55345,517.9752L263.55345,521.81561L267.39393,521.81561L267.39393,529.2564
				L271.23442,529.2564L271.23442,536.69719L275.07491,536.69719L275.07491,551.8188L278.67537,551.8188L278.67537,566.94041L282.51585,566.94041
				L282.51585,582.06203L286.35634,582.06203L286.35634,597.18364L289.9568,597.18364L289.9568,608.46484L293.79728,608.46484L293.79728,612.30525
				L256.1125,612.30525L256.1125,615.90563L210.74674,615.90563L210.74674,619.74604L195.62483,619.74604L195.62483,615.90563L184.34339,615.90563
				L184.34339,612.30525L176.90245,612.30525L176.90245,608.46484L165.62102,608.46484L165.62102,604.62443L157.94004,604.62443
				L157.94004,612.30525L154.33959,612.30525L154.33959,623.58645L150.4991,623.58645L150.4991,631.02724L146.65861,631.02724L146.65861,642.30845
				L142.81812,642.30845L142.81812,649.98926L139.21767,649.98926L139.21767,657.43006L135.37718,657.43006L135.37718,668.71126
				L131.53669,668.71126L131.53669,676.39208L127.93624,676.39208L127.93624,683.83287L124.09575,683.83287L124.09575,695.11407
				L120.25526,695.11407L120.25526,702.79489L116.41477,702.79489L116.41477,714.07609L112.81432,714.07609L112.81432,725.3573L
				108.97383,725.3573L108.97383,733.03811L105.13334,733.03811L105.13334,744.31932L101.53289,744.31932L101.53289,751.76011L97.6924,751.76011
				L97.6924,763.04131L93.85191,763.04131L93.85191,766.88172L127.93624,766.88172L127.93624,763.04131L135.37718,763.04131L135.37718,759.44093
				L139.21767,759.44093L139.21767,755.60052L146.65861,755.60052L146.65861,751.76011L150.4991,751.76011L150.4991,748.15973L157.94004,748.15973
				L157.94004,744.31932L161.78053,744.31932L161.78053,740.47891L165.62102,740.47891L165.62102,736.6385L169.22148,736.6385L169.22148,733.03811
				L176.90245,733.03811L176.90245,729.1977L180.74294,729.1977L180.74294,725.3573L184.34339,725.3573L184.34339,721.75691L192.02437,721.75691
				L192.02437,717.9165L195.62483,717.9165L195.62483,714.07609L199.46531,714.07609L199.46531,710.23568L203.3058,710.23568L203.3058,706.6353
				L210.74674,706.6353L210.74674,702.79489L214.58723,702.79489L214.58723,698.95448L218.42772,698.95448L218.42772,695.11407L
				222.02818,695.11407L222.02818,691.51369L229.70915,691.51369L229.70915,687.67328L233.54964,687.67328L233.54964,683.83287L
				237.1501,683.83287L237.1501,680.23249L244.83107,680.23249L244.83107,676.39208L252.27201,676.39208L252.27201,680.23249L256.1125,680.23249
				L256.1125,687.67328L259.95299,687.67328L259.95299,691.51369L263.55345,691.51369L263.55345,695.11407L267.39393,695.11407L
				267.39393,702.79489L271.23442,702.79489L271.23442,706.6353L275.07491,706.6353L275.07491,710.23568L278.67537,710.23568L278.67537,717.9165
				L282.51585,717.9165L282.51585,721.75691L286.35634,721.75691L286.35634,725.3573L289.9568,725.3573L289.9568,729.1977L293.79728,729.1977
				L293.79728,736.6385L297.63777,736.6385L297.63777,740.47891L301.47826,740.47891L301.47826,744.31932L305.07872,744.31932L305.07872,751.76011
				L308.9192,751.76011L308.9192,755.60052L312.75969,755.60052L312.75969,759.44093L316.36015,759.44093L316.36015,766.88172L320.20063,766.88172
				L320.20063,770.72213L324.04112,770.72213L324.04112,774.56254L327.88161,774.56254L327.88161,778.16292L331.48207,778.16292
				L331.48207,785.84374L335.32255,785.84374L335.32255,789.44412L339.16304,789.44412L339.16304,793.28453L342.7635,793.28453L
				342.7635,800.96535L346.60399,800.96535L346.60399,804.56574L350.44447,804.56574L350.44447,808.40614L354.28496,808.40614L354.28496,815.84694
				L357.88542,815.84694L357.88542,819.68735L361.7259,819.68735L361.7259,823.52776L365.56639,823.52776L365.56639,830.96855L369.16685,830.96855
				L369.16685,834.80896L373.00734,834.80896L373.00734,838.64937L376.84782,838.64937L376.84782,842.24975L380.68831,842.24975
				L380.68831,849.93057L384.28877,849.93057L384.28877,853.77098L388.12926,853.77098L388.12926,857.37136L391.96974,857.37136
				L391.96974,861.21177M135.37718,-18.722L135.37718,-6.48069L139.21767,-6.48069L139.21767,19.92212L135.37718,19.92212L135.37718,27.60294
				L131.53669,27.60294L131.53669,35.04373L127.93624,35.04373L127.93624,42.48453L124.09575,42.48453L124.09575,54.00576L120.25526,54.00576
				L120.25526,61.44655L116.41477,61.44655L116.41477,68.88734L112.81432,68.88734L112.81432,72.72775L116.41477,72.72775L116.41477,76.56816
				L124.09575,76.56816L124.09575,80.40857L131.53669,80.40857L131.53669,84.00895L139.21767,84.00895L139.21767,87.84936L146.65861,87.84936
				L146.65861,91.68977L154.33959,91.68977L154.33959,95.29015L161.78053,95.29015L161.78053,99.13056L169.22148,99.13056L169.22148,102.97097
				L180.74294,102.97097L180.74294,106.81138L188.18388,106.81138L188.18388,110.41177L195.62483,110.41177L195.62483,114.25218
				L203.3058,114.25218L203.3058,118.09258L210.74674,118.09258L210.74674,121.93299L222.02818,121.93299L222.02818,125.53338L229.70915,125.53338
				L229.70915,129.37379L237.1501,129.37379L237.1501,125.53338L263.55345,125.53338L263.55345,121.93299L289.9568,121.93299L289.9568,118.09258
				L320.20063,118.09258L320.20063,114.25218L335.32255,114.25218L335.32255,118.09258L331.48207,118.09258L331.48207,129.37379
				L327.88161,129.37379L327.88161,136.81458L324.04112,136.81458L324.04112,144.4954L320.20063,144.4954L320.20063,151.93619L316.36015,151.93619
				L316.36015,159.61701L312.75969,159.61701L312.75969,167.0578L308.9192,167.0578L308.9192,174.73862L305.07872,174.73862L305.07872,178.339
				L301.47826,178.339L301.47826,186.01982L297.63777,186.01982L297.63777,193.46062L293.79728,193.46062L293.79728,201.14143L289.9568,201.14143
				L289.9568,208.58223L286.35634,208.58223L286.35634,216.02302L282.51585,216.02302L282.51585,219.86343L278.67537,219.86343L
				278.67537,227.54425L275.07491,227.54425L275.07491,234.98504L271.23442,234.98504L271.23442,242.42583L267.39393,242.42583L
				267.39393,246.26624L271.23442,246.26624L271.23442,250.10665L275.07491,250.10665L275.07491,257.54744L278.67537,257.54744L
				278.67537,261.38785L282.51585,261.38785L282.51585,265.22826L286.35634,265.22826L286.35634,272.66906L289.9568,272.66906L289.9568,276.50947
				L293.79728,276.50947L293.79728,283.95026L297.63777,283.95026L297.63777,287.79067L301.47826,287.79067L301.47826,291.63108
				L305.07872,291.63108L305.07872,299.07187L308.9192,299.07187L308.9192,302.91228L312.75969,302.91228L312.75969,306.75269L316.36015,306.75269
				L316.36015,314.19348L320.20063,314.19348L320.20063,318.03389L324.04112,318.03389L324.04112,325.47468L327.88161,325.47468
				L327.88161,329.31509L331.48207,329.31509L331.48207,333.1555L335.32255,333.1555L335.32255,340.59629L339.16304,340.59629L339.16304,348.27711
				"/>
			<path clip-path="url(#SVG_CP_2)" fill="none" stroke="#999999" stroke-width="0.96012" stroke-miterlimit="10" stroke-linecap="round" stroke-linejoin="round" d="
				M259.95299,427.48555L263.55345,427.48555L263.55345,423.64514L267.39393,423.64514L267.39393,419.80474L271.23442,419.80474
				L271.23442,415.96433L275.07491,415.96433L275.07491,412.36394L278.67537,412.36394L278.67537,408.52353L282.51585,408.52353
				L282.51585,404.68312L286.35634,404.68312L286.35634,401.08274L289.9568,401.08274L289.9568,397.24233L293.79728,397.24233L293.79728,393.40192
				L297.63777,393.40192L297.63777,389.56151L301.47826,389.56151L301.47826,385.96113L305.07872,385.96113L305.07872,382.12072
				L308.9192,382.12072L308.9192,378.28031L312.75969,378.28031L312.75969,374.67993L316.36015,374.67993L316.36015,370.83952L320.20063,370.83952
				L320.20063,366.99911L324.04112,366.99911L324.04112,363.1587L327.88161,363.1587L327.88161,359.55832L331.48207,359.55832L331.48207,355.71791
				L335.32255,355.71791L335.32255,351.8775L339.16304,351.8775L339.16304,348.27711L342.7635,348.27711L342.7635,351.8775L346.60399,351.8775
				L346.60399,355.71791L350.44447,355.71791L350.44447,359.55832L354.28496,359.55832L354.28496,366.99911L357.88542,366.99911
				L357.88542,370.83952L361.7259,370.83952L361.7259,374.67993L365.56639,374.67993L365.56639,382.12072L369.16685,382.12072L369.16685,385.96113
				L373.00734,385.96113L373.00734,393.40192L376.84782,393.40192L376.84782,397.24233L380.68831,397.24233L380.68831,401.08274
				L384.28877,401.08274L384.28877,408.52353L388.12926,408.52353L388.12926,412.36394L391.96974,412.36394L391.96974,415.96433
				L395.5702,415.96433L395.5702,423.64514L399.41069,423.64514L399.41069,427.48555L403.25117,427.48555L403.25117,434.92635L407.09166,434.92635
				L407.09166,438.76676L410.69212,438.76676L410.69212,442.36714L414.53261,442.36714L414.53261,450.04796L601.9964,450.04796M
				505.02409,861.21177L505.02409,853.77098L501.42363,853.77098L501.42363,846.09016L497.58315,846.09016L497.58315,838.64937L
				493.74266,838.64937L493.74266,830.96855L489.90217,830.96855L489.90217,823.52776L486.30171,823.52776L486.30171,819.68735L
				482.46123,819.68735L482.46123,812.24655L478.62074,812.24655L478.62074,804.56574L475.02028,804.56574L475.02028,797.12494L
				471.17979,797.12494L471.17979,789.44412L467.33931,789.44412L467.33931,782.00333L463.49882,782.00333L463.49882,774.56254L
				459.89836,774.56254L459.89836,766.88172L456.05788,766.88172L456.05788,763.04131L452.21739,763.04131L452.21739,755.60052L
				448.61693,755.60052L448.61693,748.15973L444.77644,748.15973L444.77644,740.47891L440.93596,740.47891L440.93596,733.03811L
				437.09547,733.03811L437.09547,725.3573L433.49501,725.3573L433.49501,717.9165L429.65452,717.9165L429.65452,710.23568L425.81404,710.23568
				L425.81404,702.79489L421.97355,702.79489L421.97355,695.11407L418.37309,695.11407L418.37309,691.51369L414.53261,691.51369
				L414.53261,683.83287L410.69212,683.83287L410.69212,676.39208L407.09166,676.39208L407.09166,668.71126L403.25117,668.71126
				L403.25117,665.11088L399.41069,665.11088L399.41069,657.43006L395.5702,657.43006L395.5702,649.98926L391.96974,649.98926L391.96974,646.14885
				L388.12926,646.14885L388.12926,638.70806L384.28877,638.70806L384.28877,631.02724L380.68831,631.02724L380.68831,627.42686
				L376.84782,627.42686L376.84782,619.74604L373.00734,619.74604L373.00734,612.30525L369.16685,612.30525L369.16685,608.46484
				L365.56639,608.46484L365.56639,601.02405L361.7259,601.02405L361.7259,593.34323L357.88542,593.34323L357.88542,589.50282L354.28496,589.50282
				L354.28496,582.06203L350.44447,582.06203L350.44447,574.62123L346.60399,574.62123L346.60399,570.78082L342.7635,570.78082L
				342.7635,563.1L339.16304,563.1L339.16304,555.65921L335.32255,555.65921L335.32255,551.8188L331.48207,551.8188L331.48207,544.37801
				L327.88161,544.37801L327.88161,540.5376L324.04112,540.5376L324.04112,533.09681L320.20063,533.09681L320.20063,525.41599L316.36015,525.41599
				L316.36015,521.81561L312.75969,521.81561L312.75969,514.13479L308.9192,514.13479L308.9192,510.29438L305.07872,510.29438L305.07872,502.85359
				L301.47826,502.85359L301.47826,495.17277L297.63777,495.17277L297.63777,491.57238L293.79728,491.57238L293.79728,483.89156
				L289.9568,483.89156L289.9568,480.29118L286.35634,480.29118L286.35634,472.61036L282.51585,472.61036L282.51585,465.16957L278.67537,465.16957
				L278.67537,461.32916L275.07491,461.32916L275.07491,453.88837L271.23442,453.88837L271.23442,450.04796L267.39393,450.04796
				L267.39393,442.36714L263.55345,442.36714L263.55345,438.76676L259.95299,438.76676L259.95299,434.92635L256.1125,434.92635L
				256.1125,431.08594L259.95299,431.08594L259.95299,427.48555"/>
		</g>
</g></svg>