<?xml version="1.0" encoding="utf-8" standalone="no"?>
<!-- Creator: ESRI ArcMap 10.0.0.2414 -->
<!DOCTYPE svg PUBLIC "-//W3C//DTD SVG 1.1//EN"  "http://www.w3.org/Graphics/SVG/1.1/DTD/svg11.dtd">
<svg width="595.50236pt" height="595.50236pt" viewBox="25 148.377955 545.50236 545.50236" enable-background="new 25 148.377955 545.50236 545.50236"
	version="1.1" xmlns="http://www.w3.org/2000/svg" xmlns:xlink="http://www.w3.org/1999/xlink" >
	<g id="Couches">
		<g id="cont_2">
			<path clip-path="url(#SVG_CP_2)" fill="none" stroke="#999999" stroke-width="0.96012" stroke-miterlimit="10" stroke-linecap="round" stroke-linejoin="round" d="
				M598.876,188.18005L595.7556,188.18005L595.7556,185.05972L589.51481,185.05972L589.51481,181.93939L586.39442,181.93939L586.39442,178.81906
				L583.27402,178.81906L583.27402,175.69872L577.03323,175.69872L577.03323,172.57839L573.91283,172.57839L573.91283,169.45806
				L567.43201,169.45806L567.43201,166.0977L564.31161,166.0977L564.31161,162.97737L561.19122,162.97737L561.19122,159.85704L554.95043,159.85704
				L554.95043,156.7367L551.83003,156.7367L551.83003,153.61637L539.34845,153.61637L539.34845,150.49604L526.86686,150.49604L526.86686,147.3757
				L514.38528,147.3757L514.38528,144.25537L501.90369,144.25537L501.90369,141.13504L489.42211,141.13504L489.42211,138.01471L
				476.94053,138.01471L476.94053,134.89437L464.21891,134.89437L464.21891,131.77404L451.73733,131.77404L451.73733,128.65371L
				439.25574,128.65371L439.25574,125.53338L426.77416,125.53338L426.77416,122.41304L414.29258,122.41304L414.29258,119.29271L
				404.93139,119.29271L404.93139,116.17238L392.4498,116.17238L392.4498,113.05205L379.72819,113.05205L379.72819,109.93171L370.367,109.93171
				L370.367,106.81138L357.88542,106.81138L357.88542,103.69105L348.52423,103.69105L348.52423,100.57072L339.16304,100.57072L339.16304,97.45038
				L326.68146,97.45038L326.68146,94.33005L317.32027,94.33005L317.32027,91.20972L304.83869,91.20972L304.83869,88.08939L295.4775,88.08939
				L295.4775,84.96905L286.11631,84.96905L286.11631,81.84872L276.51509,81.84872L276.51509,78.72839L267.1539,78.72839L267.1539,75.60806
				L257.79272,75.60806L257.79272,72.2477L248.43153,72.2477L248.43153,69.12737L239.07034,69.12737L239.07034,66.00703L229.70915,66.00703
				L229.70915,62.8867L220.34796,62.8867L220.34796,59.76637L207.86638,59.76637L207.86638,56.64604L198.50519,56.64604L198.50519,53.5257
				L188.90397,53.5257L188.90397,50.40537L179.54278,50.40537L179.54278,47.28504L170.1816,47.28504L170.1816,44.16471L160.82041,44.16471
				L160.82041,41.04437L151.45922,41.04437L151.45922,37.92404L142.09803,37.92404L142.09803,34.80371L132.73685,34.80371L132.73685,31.68338
				L123.37566,31.68338L123.37566,28.56304L114.01447,28.56304L114.01447,25.44271L104.65328,25.44271L104.65328,22.32238L91.93167,22.32238
				L91.93167,19.20205L82.57048,19.20205L82.57048,16.08171L73.20929,16.08171L73.20929,12.96138L66.9685,12.96138L66.9685,9.84105
				L60.72771,9.84105L60.72771,6.72072L57.60731,6.72072L57.60731,3.60038L51.36652,3.60038L51.36652,0.48005L48.24612,0.48005L
				48.24612,-2.64028L42.00533,-2.64028L42.00533,-5.76061L38.88494,-5.76061L38.88494,-8.88095L32.64414,-8.88095L32.64414,-12.00128
				L29.52375,-12.00128L29.52375,-15.12161L23.28296,-15.12161L23.28296,-18.24194L20.16256,-18.24194L20.16256,-18.722M601.9964,147.3757
				L601.9964,172.57839L598.876,172.57839L598.876,188.18005"/>
			<path clip-path="url(#SVG_CP_2)" fill="none" stroke="#999999" stroke-width="0.96012" stroke-miterlimit="10" stroke-linecap="round" stroke-linejoin="round" d="
				M601.9964,482.21139L598.876,482.21139L598.876,479.09105L573.91283,479.09105L573.91283,475.97072L548.70963,475.97072L548.70963,472.85039
				L526.86686,472.85039L526.86686,469.73006L505.02409,469.73006L505.02409,466.60972L483.18132,466.60972L483.18132,463.48939
				L461.09852,463.48939L461.09852,460.36906L439.25574,460.36906L439.25574,457.24873L417.41297,457.24873L417.41297,454.12839
				L383.08862,454.12839L383.08862,450.76803L348.52423,450.76803L348.52423,447.6477L307.95908,447.6477L307.95908,379.00039L370.367,379.00039
				L370.367,382.12072L514.38528,382.12072L514.38528,385.24105L586.39442,385.24105L586.39442,388.36138L601.9964,388.36138"/>
			<path clip-path="url(#SVG_CP_2)" fill="none" stroke="#999999" stroke-width="0.96012" stroke-miterlimit="10" stroke-linecap="round" stroke-linejoin="round" d="
				M-6.24079,194.42072L-1.92024,194.42072L-1.92024,197.54105L10.80137,197.54105L10.80137,200.66138L7.68098,200.66138L7.68098,203.78172
				L1.44018,203.78172L1.44018,206.90205L-5.04064,206.90205L-5.04064,210.02238L-6.24079,210.02238M-6.24079,234.98504L-5.04064,234.98504
				L-5.04064,238.10537L1.44018,238.10537L1.44018,241.22571L7.68098,241.22571L7.68098,244.34604L10.80137,244.34604L10.80137,247.46637
				L17.04216,247.46637L17.04216,250.5867L23.28296,250.5867L23.28296,253.70704L29.52375,253.70704L29.52375,256.82737L32.64414,256.82737
				L32.64414,259.9477L38.88494,259.9477L38.88494,263.06803L45.12573,263.06803L45.12573,266.42839L48.24612,266.42839L48.24612,269.54872
				L54.48692,269.54872L54.48692,272.66906L60.72771,272.66906L60.72771,275.78939L63.8481,275.78939L63.8481,278.90972L70.08889,278.90972
				L70.08889,282.03005L76.32969,282.03005L76.32969,285.15039L82.57048,285.15039L82.57048,288.27072L85.69087,288.27072L85.69087,291.39105
				L91.93167,291.39105L91.93167,294.51138L98.41249,294.51138L98.41249,297.63172L101.53289,297.63172L101.53289,300.75205L107.77368,300.75205
				L107.77368,303.87238L114.01447,303.87238L114.01447,306.99271L120.25526,306.99271L120.25526,310.11305L123.37566,310.11305
				L123.37566,313.23338L129.61645,313.23338L129.61645,316.35371L135.85724,316.35371L135.85724,319.47404L138.97764,319.47404
				L138.97764,322.59438L145.21843,322.59438L145.21843,325.71471L151.45922,325.71471L151.45922,328.83504L154.57962,328.83504
				L154.57962,331.95537L160.82041,331.95537L160.82041,335.07571L167.0612,335.07571L167.0612,379.00039L298.59789,379.00039L298.59789,447.6477
				L226.58876,447.6477L226.58876,450.76803L217.22757,450.76803L217.22757,454.12839L207.86638,454.12839L207.86638,457.24873L
				201.62559,457.24873L201.62559,460.36906L192.2644,460.36906L192.2644,463.48939L185.78358,463.48939L185.78358,466.60972L182.66318,466.60972
				L182.66318,469.73006L176.42239,469.73006L176.42239,472.85039L173.30199,472.85039L173.30199,475.97072L170.1816,475.97072L
				170.1816,479.09105L167.0612,479.09105L167.0612,482.21139L160.82041,482.21139L160.82041,485.33172L157.70001,485.33172L157.70001,488.45205
				L154.57962,488.45205L154.57962,491.57238L151.45922,491.57238L151.45922,494.69272L148.33883,494.69272L148.33883,497.81305
				L142.09803,497.81305L142.09803,500.93338L138.97764,500.93338L138.97764,504.05371L135.85724,504.05371L135.85724,507.17405
				L132.73685,507.17405L132.73685,510.29438L129.61645,510.29438L129.61645,513.41471L123.37566,513.41471L123.37566,516.53504
				L120.25526,516.53504L120.25526,519.65538L117.13487,519.65538L117.13487,522.77571L114.01447,522.77571L114.01447,525.89604
				L107.77368,525.89604L107.77368,529.01637L104.65328,529.01637L104.65328,532.13671L101.53289,532.13671L101.53289,535.25704
				L98.41249,535.25704L98.41249,538.37737L95.05206,538.37737L95.05206,541.4977L88.81127,541.4977L88.81127,544.61804L85.69087,544.61804
				L85.69087,547.73837L82.57048,547.73837L82.57048,551.09873L79.45008,551.09873L79.45008,554.21906L76.32969,554.21906L76.32969,557.33939
				L70.08889,557.33939L70.08889,560.45972L66.9685,560.45972L66.9685,563.58006L63.8481,563.58006L63.8481,566.70039L60.72771,566.70039
				L60.72771,569.82072L54.48692,569.82072L54.48692,572.94105L51.36652,572.94105L51.36652,576.06139L48.24612,576.06139L48.24612,579.18172
				L45.12573,579.18172L45.12573,582.30205L42.00533,582.30205L42.00533,585.42238L35.76454,585.42238L35.76454,588.54272L32.64414,588.54272
				L32.64414,591.66305L29.52375,591.66305L29.52375,594.78338L26.40335,594.78338L26.40335,597.90371L23.28296,597.90371L23.28296,607.26471
				L20.16256,607.26471L20.16256,616.62571L17.04216,616.62571L17.04216,622.86637L13.92177,622.86637L13.92177,632.22737L10.80137,632.22737
				L10.80137,638.46804L7.68098,638.46804L7.68098,648.06906L4.56058,648.06906L4.56058,654.30972L1.44018,654.30972L1.44018,663.67072
				L-1.92024,663.67072L-1.92024,669.91139L-5.04064,669.91139L-5.04064,679.27238L-6.24079,679.27238"/>
		</g>
</g></svg>