<?xml version="1.0" encoding="utf-8" standalone="no"?>
<!-- Creator: ESRI ArcMap 10.0.0.2414 -->
<!DOCTYPE svg PUBLIC "-//W3C//DTD SVG 1.1//EN"  "http://www.w3.org/Graphics/SVG/1.1/DTD/svg11.dtd">
<svg width="595.50236pt" height="595.50236pt" viewBox="25 148.377955 545.50236 545.50236" enable-background="new 25 148.377955 545.50236 545.50236"
	version="1.1" xmlns="http://www.w3.org/2000/svg" xmlns:xlink="http://www.w3.org/1999/xlink" >
	<g id="Couches">
		<g id="reservoirs">
			<clipPath id="SVG_CP_2">
				<path d="M574.39289,21.36228L21.36271,21.36228L21.36271,821.36753L574.39289,821.36753L574.39289,21.36228z"/>
			</clipPath>
			<path clip-path="url(#SVG_CP_2)" fill-opacity="0.08" fill="#2f4493" fill-rule="evenodd" stroke="#2f4493" stroke-width="1" stra="1.44018" stroke-miterlimit="10" stroke-linecap="round" stroke-linejoin="round" d="
				M348.04417,582.30205L390.52956,669.91139L402.77111,682.15269L419.33322,698.95448L375.8877,713.11599L358.12545,699.43453L
				318.28039,668.95128L292.59713,632.22737L270.75436,601.02405L205.46607,628.62699L159.38023,648.30908L150.01904,624.30653L
				141.37794,597.66369L140.41782,595.02341L140.65785,551.57878L155.29971,541.97775L319.72057,495.17277L367.48664,567.90052L
				367.48664,568.14054L348.04417,582.30205L348.04417,582.30205z"/>
			<path clip-path="url(#SVG_CP_2)" fill-opacity="0.08" fill="#2f4493" fill-rule="evenodd" stroke="#2f4493" stroke-width="1" stra="1.44018" stroke-miterlimit="10" stroke-linecap="round" stroke-linejoin="round" d="
				M114.73456,-18.722L209.30656,185.05972L240.75055,252.26688L282.03579,347.55704L112.81432,392.92187L-6.24079,415.7243L-6.24079,-18.722
				L114.73456,-18.722z"/>
		</g>
</g></svg>