<?xml version="1.0" encoding="utf-8" standalone="no"?>
<!-- Creator: ESRI ArcMap 10.0.0.2414 -->
<!DOCTYPE svg PUBLIC "-//W3C//DTD SVG 1.1//EN"  "http://www.w3.org/Graphics/SVG/1.1/DTD/svg11.dtd">
<svg width="595.50236pt" height="595.50236pt" viewBox="25 148.377955 545.50236 545.50236" enable-background="new 25 148.377955 545.50236 545.50236"
	version="1.1" xmlns="http://www.w3.org/2000/svg" xmlns:xlink="http://www.w3.org/1999/xlink" >
	<g id="Couches">
		<g id="reservoirs">
			<path clip-path="url(#SVG_CP_2)" fill-opacity="0.2" fill="#07866D" fill-rule="evenodd" stroke="none" stroke-width="" stra="1.44018" stroke-miterlimit="10" stroke-linecap="round" stroke-linejoin="round" d="
				M-6.24079,244.34604L69.12877,268.10857L141.13791,292.59118L230.9093,324.75461L237.87019,354.99783L117.3749,301.71215L-0.48006,255.38721
				L-6.24079,255.86727L-6.24079,244.34604z"/>
			<path clip-path="url(#SVG_CP_2)" fill-opacity="0.2" fill="#07866D" fill-rule="evenodd" stroke="none" stroke-width="" stra="1.44018" stroke-miterlimit="10" stroke-linecap="round" stroke-linejoin="round" d="
				M276.51509,861.21177L272.43457,854.25103L267.63396,850.1706L264.99363,845.61011L264.7536,846.57021L248.1915,818.72724L297.63777,797.60499
				L297.63777,798.32507L315.88009,786.80384L319.48054,784.40359L316.36015,777.20282L313.95984,771.92226L312.0396,767.6018L308.9192,760.64106
				L274.83488,779.12302L232.82955,815.84694L232.58952,815.84694L232.10946,816.08696L231.86943,816.08696L231.14933,817.04707
				L226.82879,814.16676L226.34872,813.92673L226.58876,813.68671L222.50824,811.28645L212.18693,806.72597L202.58571,803.84566
				L195.14476,807.92609L193.22452,813.68671L192.2644,813.68671L190.82422,817.04707L195.62483,821.84758L196.10489,822.32763L
				188.42391,830.24847L178.34263,826.88811L167.54126,856.17123L165.86105,861.21177L-6.24079,861.21177L-6.24079,595.98351L8.40107,595.98351
				L15.36195,596.22353L72.4892,558.05947L67.68859,551.57878L40.80518,513.17468L72.96926,512.45461L71.28905,511.73453L90.25145,508.85422
				L97.6924,507.89412L133.45694,501.17341L148.57886,498.2931L177.86257,493.01254L179.54278,492.77251L181.223,492.53249L198.50519,492.29246
				L223.46836,492.77251L229.94918,491.81241L238.83031,491.33236L242.6708,491.33236L248.43153,491.09233L260.67308,489.17213L
				285.15619,486.05179L285.39622,486.53185L286.11631,486.53185L298.83792,483.89156L303.3985,508.6142L319.24051,507.6541L322.84097,507.41407
				L328.36167,494.45269L334.36243,480.53121L343.00353,476.21075L347.08405,489.41215L365.08633,484.61164L361.24584,471.89029
				L360.76578,470.93018L399.89075,455.80857L418.37309,447.40768L423.65376,443.56727L430.37462,437.3266L431.09471,436.3665L436.37538,429.64578
				L436.85544,429.16573L437.09547,428.92571L443.33626,423.88517L450.53717,419.56471L451.73733,418.84463L452.93748,417.88453
				L487.98193,396.28223L500.46351,389.80154L509.10461,386.92123L517.50567,384.04092L536.70811,379.24041L540.78863,377.80026
				L547.26945,375.64003L547.98954,375.88005L562.15134,372.75972L566.95195,370.83952L571.51253,369.15934L575.83308,368.19924
				L581.11375,367.23913L584.95423,366.99911L601.9964,362.67865L601.9964,861.21177L276.51509,861.21177zM-6.24079,527.81625L-0.72009,533.09681
				L-0.24003,533.33683L2.16027,536.69719L-6.24079,540.29758L-6.24079,527.81625z"/>
		</g>
</g></svg>