<?xml version="1.0" encoding="utf-8" standalone="no"?>
<!-- Creator: ESRI ArcMap 10.0.0.2414 -->
<!DOCTYPE svg PUBLIC "-//W3C//DTD SVG 1.1//EN"  "http://www.w3.org/Graphics/SVG/1.1/DTD/svg11.dtd">
<svg width="595.50236pt" height="595.50236pt" viewBox="25 148.377955 545.50236 545.50236" enable-background="new 25 148.377955 545.50236 545.50236"
	version="1.1" xmlns="http://www.w3.org/2000/svg" xmlns:xlink="http://www.w3.org/1999/xlink" >
	<g id="Couches">
		<g id="reservoirs">
			<path clip-path="url(#SVG_CP_2)" fill-opacity="0.2" fill="#07866D" fill-rule="evenodd" stroke="none" stroke-width="" stra="1.44018" stroke-miterlimit="10" stroke-linecap="round" stroke-linejoin="round" d="
				M273.87476,464.44949L274.59485,465.16957L278.43533,464.92954L278.9154,465.16957L279.15543,465.16957L280.35558,466.60972L
				280.83564,467.56983L281.55573,470.69016L281.3157,470.69016L277.23518,472.13031L277.23518,472.37034L276.75512,473.33044L274.35482,475.97072
				L274.11479,475.97072L273.87476,476.21075L273.15466,476.93082L270.99439,477.41087L269.07415,476.93082L265.71372,476.21075
				L263.07339,476.21075L258.51281,476.21075L255.63244,476.6908L252.03198,477.41087L246.27125,478.611L242.43077,479.5711L239.07034,479.09105
				L235.46988,478.611L235.46988,478.37098L234.98982,476.93082L237.1501,475.97072L241.9507,475.25064L244.83107,473.09041L253.7122,471.41023
				L263.31342,465.40959L267.39393,465.16957L269.31418,463.72942L271.23442,463.00934L272.43457,463.24936L272.6746,463.48939L
				273.15466,463.72942L273.87476,464.44949z"/>
			<path clip-path="url(#SVG_CP_2)" fill-opacity="0.2" fill="#07866D" fill-rule="evenodd" stroke="none" stroke-width="" stra="1.44018" stroke-miterlimit="10" stroke-linecap="round" stroke-linejoin="round" d="
				M-6.24079,183.85959L-6.00076,183.85959L-2.16027,183.85959L7.92101,189.62021L10.56134,189.62021L13.68174,189.14016L21.36271,185.53977
				L23.04292,184.8197L24.72314,185.53977L28.56363,184.33964L30.00381,183.85959L29.28372,181.45934L29.04369,181.21931L28.08356,181.45934
				L26.64338,180.25921L24.72314,179.77916L23.28296,176.4188L21.60274,172.33837L21.60274,169.21803L21.60274,168.25793L22.0828,167.29783
				L24.00305,162.97737L26.64338,158.89693L29.04369,155.7766L33.60426,149.53594L40.56515,141.85512L44.8857,138.01471L50.4064,133.69425
				L56.40716,130.33389L58.08737,129.37379L63.36804,126.73351L63.60807,126.73351L70.32893,123.61317L79.21005,116.65243L87.85115,110.65179
				L95.05206,105.61125L102.49301,100.33069L104.17322,99.85064L105.37337,99.85064L107.77368,101.05077L108.97383,101.77085L115.21462,106.33133
				L121.69544,110.17174L130.33654,115.69233L132.01675,113.5321L132.97688,113.29207L134.89712,113.05205L136.81736,112.33197L
				138.25755,111.37187L139.4577,110.17174L141.13791,108.25154L143.05815,105.37123L148.33883,98.65051L150.97916,96.01023L152.65937,94.09003
				L155.53974,91.9298L156.97992,90.72967L157.94004,90.00959L167.54126,81.6087L171.62178,78.00831L173.06196,76.56816L174.74218,74.40793
				L176.18236,71.76765L181.223,63.8468L182.90321,60.9665L185.06349,57.36611L187.46379,53.5257L188.90397,51.84553L188.90397,51.6055
				L189.144,51.6055L191.06425,49.44527L196.34492,46.08491L202.34568,42.00448L210.98678,35.28376L210.98678,35.04373L213.38708,33.60358
				L221.06805,29.0431L224.42848,27.60294L228.02894,26.16279L230.42924,24.00256L231.62939,22.32238L233.06958,23.04246L235.94994,20.16215
				L240.03046,15.60166L243.39089,12.2413L244.59104,10.3211L245.0711,9.84105L245.31113,9.60102L246.03122,10.08107L247.23137,11.52123
				L247.47141,12.2413L248.91159,15.12161L249.87171,17.52187L251.31189,20.88223L252.51205,20.40217L254.43229,25.44271L257.31265,33.60358
				L261.15314,43.44463L262.83335,48.48517L264.03351,52.80563L264.99363,57.84616L265.95375,59.28632L267.1539,60.9665L268.35406,62.16663
				L272.6746,65.04693L276.51509,67.20716L278.43533,67.68721L281.07567,69.84744L282.99591,72.00767L284.91616,73.92788L293.31722,84.00895
				L294.27735,85.68913L295.71753,88.56944L296.43762,90.72967L296.91768,92.40985L297.39774,95.29015L297.8778,98.41049L298.35786,101.53082
				L298.83792,104.1711L299.31798,105.37123L300.27811,106.57136L302.91844,106.81138L306.75893,106.57136L308.9192,106.81138L311.31951,107.05141
				L314.4399,107.77148L316.84021,108.73159L319.48054,110.17174L322.84097,111.85192L325.24127,112.81202L327.64158,113.77212L
				330.28191,114.73223L335.08252,115.93235L338.20292,116.41241L342.28344,117.13248L345.1638,117.61253L354.52499,118.81266L355.72514,118.57264
				L358.12545,117.85256L365.56639,114.25218L369.16685,112.33197L371.08709,111.37187L373.72743,110.17174L375.16761,109.21164
				L376.36776,108.25154L379.0081,105.61125L382.36852,102.01087L385.72895,98.17046L386.9291,100.81074L387.88922,102.49092L392.92986,99.61062
				L390.28953,95.53018L389.80947,94.8101L389.80947,94.57008L390.0495,94.57008L392.68983,92.40985L398.45057,89.28952L401.33093,87.84936
				L404.2113,87.36931L404.45133,87.12929L405.65148,86.88926L406.6116,87.12929L407.09166,87.84936L408.05178,89.04949L408.53184,88.08939
				L409.25194,86.64923L409.97203,85.68913L413.09242,81.36867L413.33245,81.12865L417.89303,74.64796L420.05331,72.00767L425.81404,64.08683
				L426.53413,63.12673L430.37462,57.84616L431.57477,59.04629L434.9352,62.40665L437.57553,62.8867L441.17599,63.60678L447.17675,64.32686
				L448.13687,64.32686L448.13687,64.08683L447.89684,64.08683L461.09852,45.84489L469.49958,34.08363L469.25955,34.08363L469.25955,33.36356
				L473.10004,33.36356L475.26031,33.60358L477.42059,33.60358L479.58086,33.60358L485.34159,33.36356L488.70202,32.64348L490.1422,32.40345
				L491.58238,31.68338L492.78254,30.24322L493.74266,29.0431L495.42287,25.92276L497.10308,23.04246L498.54327,21.84233L500.22348,20.16215
				L503.58391,18.00192L509.58467,15.60166L513.18513,13.92148L517.02561,12.72136L518.94586,12.2413L521.34616,12.2413L523.02637,12.2413
				L534.78787,13.92148L555.91055,17.52187L559.03094,18.00192L568.39213,18.722L576.7932,18.96202L585.43429,20.6422L590.95499,22.32238
				L594.79548,23.52251L599.11603,24.48261L601.9964,24.96266L601.9964,167.29783L599.35606,166.33773L596.71573,166.0977L601.9964,168.25793
				L601.9964,213.14271L601.51633,214.82289L601.03627,216.50307L601.9964,217.46317L601.9964,245.54617L597.43582,251.78683L592.87524,258.26752
				L591.91512,259.46765L596.23566,262.82801L596.47569,263.06803L596.71573,263.30806L594.31542,264.98824L594.07539,264.26816
				L589.51481,267.62852L586.63445,266.18837L585.67432,267.38849L583.75408,270.2688L584.7142,271.46893L585.43429,272.66906L584.23414,273.62916
				L582.79396,275.06931L581.35378,276.98952L580.87372,277.46957L583.03399,278.6697L585.19426,280.34987L591.19502,285.39041L
				591.19502,285.87046L591.43506,286.11049L589.75484,290.43095L588.79472,292.59118L589.03475,292.59118L594.31542,293.55128L
				599.83612,296.43159L601.9964,294.51138L601.9964,365.79898L599.59609,366.03901L593.59533,366.51906L591.91512,366.75908L591.67509,366.75908
				L591.43506,366.75908L590.95499,366.75908L590.71496,366.75908L590.47493,366.75908L577.51329,367.23913L575.59304,367.95921
				L572.71268,367.71918L570.07234,381.64067L569.11222,388.12136L568.63216,391.24169L568.39213,394.60205L567.91207,397.24233
				L566.95195,399.16254L566.71192,399.40256L566.71192,399.64259L565.99183,400.84271L564.55164,402.04284L563.35149,403.00294
				L560.95119,404.68312L558.55088,406.3633L556.63064,407.80346L555.19046,409.24361L554.47036,409.72366L553.75027,410.44374L
				553.27021,410.92379L552.31009,412.12392L551.10994,413.56407L550.14982,415.00422L548.70963,417.40448L547.74951,419.32468L
				547.26945,421.00486L546.78939,421.96497L546.54936,423.16509L546.54936,424.1252L546.54936,426.28543L546.78939,429.16573L547.26945,432.04604
				L548.4696,434.92635L549.42972,437.08658L550.86991,440.44693L555.67052,452.20819L557.1107,456.0486L557.59076,458.20883L558.07082,461.08913
				L559.03094,469.00998L559.75103,474.77059L559.99106,476.93082L560.2311,479.09105L559.99106,480.53121L559.99106,482.69144L
				559.511,485.09169L558.79091,488.21202L558.31085,490.13223L557.83079,493.01254L557.35073,495.17277L556.63064,498.53312L555.91055,501.41343
				L555.19046,505.49387L554.47036,508.6142L553.75027,511.73453L553.27021,513.89476L552.79015,514.61484L551.34997,517.25512L
				548.94966,520.61548L546.78939,523.49578L545.10918,526.37609L544.14905,529.49642L543.66899,531.41663L542.9489,533.81688L542.22881,536.69719
				L541.74875,540.29758L541.02866,543.17788L540.78863,545.33811L534.54784,544.13798L526.3868,542.69783L525.42668,547.97839L
				525.42668,549.17852L518.94586,547.73837L517.98573,547.49834L505.50415,544.61804L504.06397,544.61804L495.42287,543.41791L
				484.6215,541.25768L467.57934,538.13734L462.77873,534.29694L460.13839,532.13671L453.8976,526.13607L453.65757,533.09681L453.65757,535.73709
				L439.7358,538.13734L424.13382,540.29758L400.37081,543.41791L396.77035,534.77699L392.4498,523.73581L377.08785,521.09553L370.60703,518.9353
				L369.40688,514.85486L369.40688,512.93466L362.446,497.09297L361.7259,495.17277L360.04569,495.17277L357.40536,494.69272L354.28496,493.73261
				L351.16456,492.05243L345.40383,487.73197L342.04341,485.57174L341.08328,485.33172L337.72286,484.13159L332.92225,482.21139
				L331.24204,480.53121L332.68222,475.01062L334.60246,467.80985L324.76121,460.60908L323.081,459.40896L321.16076,457.9688L319.9606,457.0087
				L318.28039,456.28862L313.23975,453.40832L311.79957,452.68824L304.83869,450.52801L304.35862,447.6477L291.15695,447.16765L
				261.6332,446.92763L261.6332,424.1252L239.5504,425.0853L240.27049,427.48555L240.27049,427.72558L216.74751,427.48555L215.30732,427.24553
				L215.06729,426.28543L215.30732,415.24425L215.30732,404.68312L215.78738,382.8408L214.3472,373.4798L209.78662,374.19988L210.74674,380.44054
				L209.54659,379.96049L209.30656,379.72046L209.30656,387.40128L187.70382,382.8408L179.54278,381.40064L162.26059,378.52034L
				163.22071,370.11944L163.70077,368.43926L163.46074,368.43926L150.73913,362.91867L133.69697,355.71791L115.45465,348.03709L
				102.49301,342.5165L99.85267,341.31637L78.97002,332.91548L80.65024,329.55512L80.4102,329.55512L75.84963,327.39489L76.56972,325.95473
				L79.93014,320.9142L78.24993,319.9541L73.44932,317.07379L69.84886,323.31445L68.88874,325.23466L68.16865,326.67481L72.72923,330.03517
				L69.60883,334.59566L66.72847,337.47596L63.60807,339.15614L63.36804,339.15614L63.12801,339.39617L62.16789,339.63619L58.08737,340.35627
				L56.88722,340.59629L55.20701,340.83632L53.52679,342.03645L52.08661,343.4766L51.60655,344.19668L51.60655,344.4367L51.36652,344.67673
				L42.48539,343.23658L31.92405,341.79642L31.92405,342.03645L30.48387,353.31765L49.92634,358.83824L51.12649,359.07826L51.12649,360.27839
				L50.88646,362.67865L50.16637,366.03901L48.96621,368.67929L47.04597,372.5197L44.64567,376.60013L42.24536,381.16062L39.84506,385.24105
				L37.92481,389.80154L37.20472,389.80154L37.20472,389.56151L36.96469,389.56151L34.56439,388.12136L33.36423,389.32149L32.40411,390.52161
				L30.24384,393.40192L29.52375,394.122L32.16408,395.56215L34.32436,396.76228L34.56439,397.72238L33.36423,400.60269L33.1242,400.84271
				L32.88417,400.84271L32.16408,400.36266L30.7239,397.72238L30.24384,397.00231L30.00381,396.76228L28.32359,395.80218L25.2032,394.60205
				L23.04292,393.88197L21.84277,393.88197L19.6825,393.88197L19.44247,393.88197L19.20244,393.88197L18.24232,393.64195L16.80213,392.92187
				L16.5621,392.92187L16.5621,392.68185L14.40183,392.20179L11.0414,391.24169L9.84125,391.24169L8.6411,389.80154L6.00076,387.88133
				L-6.24079,381.40064L-6.24079,183.85959zM120.49529,247.7064L120.73532,244.34604L120.97535,242.90588L121.21538,241.46573L121.69544,239.06548
				L122.8956,235.46509L124.57581,232.34476L126.73608,229.22443L127.45618,228.26432L128.89636,226.10409L132.01675,221.30358L
				132.73685,220.10345L132.97688,219.86343L132.25678,219.38338L131.29666,218.90333L131.77672,217.7032L134.41706,209.78236L134.41706,209.54233
				L132.49681,208.82225L126.73608,212.66266L126.01599,217.22315L117.61493,216.98312L112.81432,216.98312L110.65404,216.98312
				L110.17398,218.90333L110.17398,224.66394L112.09423,227.54425L113.29438,230.66458L113.53441,236.42519L111.8542,236.42519L
				111.37413,239.06548L107.77368,238.82545L107.05359,238.58542L105.6134,238.10537L103.45313,237.14527L103.2131,237.14527L103.2131,236.90525
				L101.05282,235.22507L99.37261,232.82481L98.41249,231.86471L96.73228,229.46445L94.81203,226.34412L93.85191,226.82417L92.41173,227.54425
				L92.1717,227.78427L94.33197,234.02494L97.21234,237.3853L100.0927,237.3853L100.81279,238.10537L102.49301,237.62532L106.81356,239.54553
				L106.57352,242.42583L110.41401,246.26624L113.29438,247.22635L118.81508,247.7064L120.49529,247.7064zM94.81203,210.98248L94.572,206.66202
				L96.25222,203.54169L95.53212,202.58159L91.93167,199.22123L87.61112,197.54105L90.49148,190.58031L85.93091,188.6601L83.29057,195.38082
				L82.33045,196.58095L81.1303,195.86087L78.0099,200.42136L77.04978,201.14143L76.56972,200.66138L75.84963,199.94131L72.96926,194.66074
				L70.56896,189.86023L78.72999,191.06036L79.69011,190.82033L80.4102,188.42008L82.57048,184.33964L85.93091,176.89885L88.09118,178.09898
				L93.61188,180.73926L94.572,178.09898L89.29133,175.69872L90.73151,172.33837L86.17094,171.37826L85.93091,170.17813L83.29057,169.45806
				L81.85039,168.97801L80.65024,171.61829L76.32969,170.17813L76.80975,168.73798L75.6096,168.0179L76.08966,166.81778L76.80975,165.37762
				L78.72999,162.97737L79.21005,160.81714L76.32969,156.49668L77.76987,155.05652L78.72999,151.69617L73.68935,151.45614L71.76911,157.6968
				L73.92938,156.97673L72.4892,159.61701L69.12877,163.93747L68.40868,165.61765L67.92862,166.81778L67.68859,170.65819L67.68859,176.65883
				L67.44856,179.77916L67.92862,184.8197L68.40868,186.97993L69.60883,189.14016L70.56896,192.50051L71.76911,194.66074L72.72923,196.34092
				L69.84886,198.0211L72.00914,203.06164L74.40944,201.86151L75.6096,201.14143L77.04978,201.14143L82.33045,201.86151L87.85115,202.82161
				L92.1717,204.74182L93.61188,206.422L94.09194,208.10218L94.81203,210.98248L94.572,213.14271L94.81203,215.06292L96.01218,217.7032
				L97.21234,217.7032L102.25298,216.98312L102.01295,215.30294L101.53289,210.74246L94.81203,210.98248zM161.5405,150.49604L160.82041,153.13632
				L159.86029,153.13632L159.62026,152.89629L156.73989,159.13696L156.25983,160.33709L162.98068,161.29719L165.38099,161.77724
				L165.38099,161.53721L168.74141,151.21611L169.94157,148.57583L171.14172,146.17558L173.30199,142.57519L175.22224,139.93491
				L175.94233,138.73478L176.42239,137.05461L175.46227,136.33453L172.34187,134.89437L170.90169,134.41432L167.54126,132.97417
				L162.74065,131.53402L162.26059,131.53402L161.06044,137.05461L168.02132,139.21484L166.82117,143.05524L166.58114,143.77532
				L159.62026,144.01535L157.45998,148.33581L156.49986,149.53594L160.34035,150.25601L161.5405,150.49604zM529.5072,143.77532L
				530.70735,148.33581L534.78787,147.3757L534.06778,150.25601L533.34768,154.57647L529.26717,154.09642L529.02714,153.13632L520.14601,156.97673
				L525.90674,167.0578L527.82698,170.65819L526.3868,171.13824L526.14677,171.13824L525.66671,171.13824L523.9865,171.37826L522.54631,171.37826
				L521.10613,171.61829L519.66595,171.61829L520.14601,175.4587L526.62683,180.25921L525.90674,181.45934L527.10689,182.17941L
				531.42744,185.7798L532.86762,183.85959L534.54784,184.57967L536.70811,184.57967L541.26869,186.97993L543.66899,185.05972L544.38909,186.25985
				L545.58924,187.21995L547.02942,186.7399L544.38909,181.69936L542.22881,182.65946L541.98878,182.65946L540.06854,182.41944L
				535.74799,181.69936L536.46808,179.77916L535.26793,179.05908L535.50796,178.81906L534.30781,177.3789L534.06778,177.61893L532.86762,176.4188
				L534.06778,175.69872L532.86762,174.97865L532.62759,175.21867L532.14753,174.01854L529.5072,175.69872L529.5072,174.25857L529.5072,171.61829
				L530.46732,168.97801L531.18741,167.0578L538.62835,167.77788L538.86838,166.57775L540.06854,162.01727L540.30857,161.77724L
				537.4282,160.57711L537.4282,155.7766L533.82774,155.05652L535.98802,144.25537L540.06854,145.4555L540.30857,144.73542L541.98878,144.73542
				L543.90902,138.25473L543.18893,137.05461L542.46884,135.61445L541.98878,132.97417L541.74875,132.97417L541.26869,130.33389
				L538.38832,130.57391L538.14829,130.57391L537.4282,130.57391L536.70811,137.29463L535.74799,142.09514L529.5072,143.77532zM
				589.75484,163.69744L590.95499,163.69744L590.47493,163.21739L590.2349,162.97737L589.75484,163.69744zM145.21843,188.18005L
				142.09803,186.25985L135.85724,186.25985L129.13639,188.18005L125.53593,192.26049L124.33578,193.46062L138.97764,193.22059L
				138.97764,193.46062L138.97764,193.70064L139.21767,195.86087L138.25755,198.9812L137.29742,198.9812L136.09727,199.70128L134.17703,201.86151
				L137.53745,202.34156L139.21767,199.46126L140.89788,196.1009L143.77825,190.34028L144.9784,188.42008L144.9784,188.18005L145.21843,188.18005
				zM542.9489,193.46062L543.90902,201.86151L545.34921,201.86151L544.62912,204.26177L543.90902,206.66202L540.78863,208.3422L
				543.18893,210.02238L543.18893,213.14271L542.9489,214.82289L542.9489,216.02302L542.46884,216.98312L541.98878,221.54361L540.06854,227.0642
				L541.98878,230.66458L546.30933,229.46445L547.26945,224.66394L547.98954,221.54361L548.94966,221.30358L548.94966,221.06356
				L552.07006,221.06356L551.83003,218.42328L553.03018,218.18325L552.79015,212.66266L549.42972,212.90269L549.18969,210.98248
				L550.14982,209.3023L551.59,204.98184L548.4696,204.02174L550.14982,198.50115L548.94966,198.0211L549.66976,196.1009L551.34997,196.58095
				L553.9903,197.061L555.43049,196.82097L555.43049,193.22059L551.10994,192.74054L550.86991,192.74054L550.38985,192.74054L547.50948,191.78044
				L545.82927,188.42008L546.0693,189.86023L546.30933,192.02046L546.0693,192.74054L546.0693,192.98056L546.0693,193.22059L542.9489,193.46062
				zM246.03122,238.3454L245.0711,239.06548L244.11098,238.82545L243.63092,238.58542L241.47064,240.98568L240.99058,241.70576L
				244.59104,243.86599L245.0711,243.14591L246.75131,241.22571L245.55116,240.2656L246.03122,238.3454L249.39165,238.82545L252.03198,238.58542
				L254.67232,238.10537L259.47293,237.14527L263.79348,235.46509L264.03351,235.22507L265.23366,234.02494L266.19378,232.82481
				L266.91387,231.14463L270.2743,231.62468L271.47445,231.86471L271.95451,229.46445L272.43457,227.30422L266.91387,226.58415L
				266.67384,229.46445L264.27354,228.0243L261.87323,227.78427L262.59332,217.22315L256.1125,226.10409L249.63168,233.54489L246.75131,237.14527
				L246.03122,238.3454zM216.50748,242.90588L216.98754,239.54553L216.02742,239.78555L211.9469,240.74565L207.62635,241.94578L
				202.34568,242.90588L202.58571,245.06611L202.82574,246.74629L209.54659,244.82609L214.82726,243.38594L216.50748,242.90588z
				M163.70077,241.22571L166.58114,238.10537L166.34111,237.86535L165.14096,235.94514L164.18084,234.74502L163.70077,233.54489
				L162.50062,231.86471L161.30047,229.70448L160.34035,228.26432L158.90017,227.54425L157.70001,226.82417L155.77977,226.10409
				L151.93928,224.66394L149.77901,223.70384L147.13867,234.02494L146.65861,235.22507L152.8994,235.94514L154.33959,236.42519L
				156.25983,237.14527L156.49986,242.66586L156.49986,244.10601L162.98068,244.58606L163.70077,241.22571zM155.53974,180.73926
				L154.09956,179.05908L152.17931,180.73926L148.81889,179.29911L147.85876,180.73926L148.33883,181.93939L147.3787,182.41944L
				147.13867,182.65946L147.85876,184.33964L148.57886,185.53977L150.01904,184.57967L152.17931,182.89949L152.41934,182.89949L
				155.53974,180.73926z"/>
		</g>
</g></svg>