<?xml version="1.0" encoding="utf-8" standalone="no"?>
<!-- Creator: ESRI ArcMap 10.0.0.2414 -->
<!DOCTYPE svg PUBLIC "-//W3C//DTD SVG 1.1//EN"  "http://www.w3.org/Graphics/SVG/1.1/DTD/svg11.dtd">
<svg width="595.50236pt" height="595.50236pt" viewBox="25 148.377955 545.50236 545.50236" enable-background="new 25 148.377955 545.50236 545.50236"
	version="1.1" xmlns="http://www.w3.org/2000/svg" xmlns:xlink="http://www.w3.org/1999/xlink" >
	<g id="Couches">
		<g id="cont_1">
			<clipPath id="SVG_CP_2">
				<path d="M574.39289,21.36228L21.36271,21.36228L21.36271,821.36753L574.39289,821.36753L574.39289,21.36228z"/>
			</clipPath>
			<path clip-path="url(#SVG_CP_2)" fill="none" stroke="#999999" stroke-width="0.96012" stroke-miterlimit="10" stroke-linecap="round" stroke-linejoin="round" d="
				M127.69621,290.43095L116.89483,290.43095L116.89483,286.83057L113.29438,286.83057L113.29438,283.23018L109.69392,283.23018
				L109.69392,279.6298L106.09346,279.6298L106.09346,276.02941L102.49301,276.02941L102.49301,272.42903L95.29209,272.42903L95.29209,268.82865
				L91.69164,268.82865L91.69164,265.22826L88.09118,265.22826L88.09118,261.62788L84.49072,261.62788L84.49072,258.0275L80.89027,258.0275
				L80.89027,254.42711L77.28981,254.42711L77.28981,250.82673L70.08889,250.82673L70.08889,247.22635L66.48844,247.22635L66.48844,240.02558
				L62.88798,240.02558L62.88798,232.82481L59.28752,232.82481L59.28752,225.62404L66.48844,225.62404L66.48844,222.02366L73.68935,222.02366
				L73.68935,218.42328L80.89027,218.42328L80.89027,214.82289L88.09118,214.82289L88.09118,211.22251L95.29209,211.22251L95.29209,207.62212
				L102.49301,207.62212L102.49301,204.02174L109.69392,204.02174L109.69392,200.42136L116.89483,200.42136L116.89483,196.82097
				L124.09575,196.82097L124.09575,193.22059L131.29666,193.22059L131.29666,189.62021L134.89712,189.62021L134.89712,185.7798L
				142.09803,185.7798L142.09803,182.17941L145.69849,182.17941L145.69849,178.57903L149.29895,178.57903L149.29895,174.97865L152.8994,174.97865
				L152.8994,171.37826L160.10032,171.37826L160.10032,167.77788L163.94081,167.77788L163.94081,164.1775L167.54126,164.1775L167.54126,160.57711
				L171.14172,160.57711L171.14172,156.97673L178.34263,156.97673L178.34263,153.37634L181.94309,153.37634L181.94309,149.77596
				L185.54355,149.77596L185.54355,146.17558L189.144,146.17558L189.144,142.57519L196.34492,142.57519L196.34492,138.97481L199.94537,138.97481
				L199.94537,135.37443L203.54583,135.37443L203.54583,131.77404L207.14629,131.77404L207.14629,128.17366L210.74674,128.17366
				L210.74674,124.57328L217.94766,124.57328L217.94766,120.97289L221.54812,120.97289L221.54812,117.37251L228.74903,117.37251
				L228.74903,113.77212L235.94994,113.77212L235.94994,110.17174L243.15086,110.17174L243.15086,106.57136L246.75131,106.57136
				L246.75131,102.97097L253.95223,102.97097L253.95223,99.37059L261.15314,99.37059L261.15314,95.77021L268.35406,95.77021L268.35406,92.16982
				L275.55497,92.16982L275.55497,84.96905L279.15543,84.96905L279.15543,81.36867L282.75588,81.36867L282.75588,77.76829L286.35634,77.76829
				L286.35634,70.56752L289.9568,70.56752L289.9568,66.96714L293.55725,66.96714L293.55725,63.36675L289.9568,63.36675L289.9568,59.76637
				L282.75588,59.76637L282.75588,56.16599L279.15543,56.16599L279.15543,52.5656L275.55497,52.5656L275.55497,48.96522L271.95451,48.96522
				L271.95451,45.36483L268.35406,45.36483L268.35406,41.76445L275.55497,41.76445L275.55497,38.16407L279.15543,38.16407L279.15543,34.56368
				L286.35634,34.56368L286.35634,30.9633L289.9568,30.9633L289.9568,27.36292L297.15771,27.36292L297.15771,23.76253L300.75817,23.76253
				L300.75817,20.16215L304.35862,20.16215L304.35862,16.56177L311.55954,16.56177L311.55954,12.96138L315.16,12.96138L315.16,9.361
				L322.36091,9.361L322.36091,5.76061L325.96137,5.76061L325.96137,2.16023L333.16228,2.16023L333.16228,-1.44015L336.76274,-1.44015
				L336.76274,-5.04054L343.96365,-5.04054L343.96365,-8.64092L347.56411,-8.64092L347.56411,-1.44015L351.16456,-1.44015L351.16456,2.16023
				L354.76502,2.16023L354.76502,9.361L358.36548,9.361L358.36548,12.96138L361.96594,12.96138L361.96594,16.56177L358.36548,16.56177
				L358.36548,20.16215L351.16456,20.16215L351.16456,23.76253L347.56411,23.76253L347.56411,27.36292L340.36319,27.36292L340.36319,34.56368
				L343.96365,34.56368L343.96365,41.76445L347.56411,41.76445L347.56411,48.96522L351.16456,48.96522L351.16456,56.16599L354.76502,56.16599
				L354.76502,63.36675L361.96594,63.36675L361.96594,59.76637L373.00734,59.76637L373.00734,56.16599L383.80871,56.16599L383.80871,52.5656
				L391.00962,52.5656L391.00962,48.96522L401.81099,48.96522L401.81099,45.36483L409.01191,45.36483L409.01191,41.76445L416.21282,41.76445
				L416.21282,38.16407L427.01419,38.16407L427.01419,34.56368L434.2151,34.56368L434.2151,30.9633L441.41602,30.9633L441.41602,27.36292
				L448.61693,27.36292L448.61693,23.76253L455.81785,23.76253L455.81785,20.16215L463.01876,20.16215L463.01876,16.56177L470.21967,16.56177
				L470.21967,12.96138L481.02104,12.96138L481.02104,9.361L488.22196,9.361L488.22196,5.76061L495.42287,5.76061L495.42287,2.16023
				L502.62378,2.16023L502.62378,-1.44015L509.8247,-1.44015L509.8247,-5.04054L517.02561,-5.04054L517.02561,-8.64092L524.22653,-8.64092
				L524.22653,-12.2413L531.42744,-12.2413L531.42744,-15.84169L538.62835,-15.84169L538.62835,-8.64092L542.22881,-8.64092L542.22881,-5.04054
				L545.82927,-5.04054L545.82927,-1.44015L549.42972,-1.44015L549.42972,5.76061L553.03018,5.76061L553.03018,9.361L556.63064,9.361
				L556.63064,12.96138L560.2311,12.96138L560.2311,23.76253L556.63064,23.76253L556.63064,27.36292L553.03018,27.36292L553.03018,30.9633
				L549.42972,30.9633L549.42972,34.56368L545.82927,34.56368L545.82927,38.16407L542.22881,38.16407L542.22881,41.76445L535.0279,41.76445
				L535.0279,45.36483L531.42744,45.36483L531.42744,48.96522L527.82698,48.96522L527.82698,52.5656L524.22653,52.5656L524.22653,56.16599
				L520.62607,56.16599L520.62607,59.76637L517.02561,59.76637L517.02561,63.36675L520.62607,63.36675L520.62607,66.96714L527.82698,66.96714
				L527.82698,70.56752L535.0279,70.56752L535.0279,74.1679L542.22881,74.1679L542.22881,77.76829L538.62835,77.76829L538.62835,81.36867
				L535.0279,81.36867L535.0279,84.96905L531.42744,84.96905L531.42744,92.16982L527.82698,92.16982L527.82698,95.77021L524.22653,95.77021
				L524.22653,99.37059L520.62607,99.37059L520.62607,102.97097L517.02561,102.97097L517.02561,110.17174L513.42516,110.17174L513.42516,113.77212
				L509.8247,113.77212L509.8247,117.37251L506.22424,117.37251L506.22424,120.97289L502.62378,120.97289L502.62378,128.17366L499.02333,128.17366
				L499.02333,131.77404L495.42287,131.77404L495.42287,135.37443L484.6215,135.37443L484.6215,131.77404L481.02104,131.77404L481.02104,128.17366
				L477.42059,128.17366L477.42059,124.57328L470.21967,124.57328L470.21967,120.97289L466.61922,120.97289L466.61922,117.37251
				L463.01876,117.37251L463.01876,113.77212L455.81785,113.77212L455.81785,110.17174L452.21739,110.17174L452.21739,106.57136
				L448.61693,106.57136L448.61693,102.97097L441.41602,102.97097L441.41602,99.37059L437.81556,99.37059L437.81556,95.77021L434.2151,95.77021
				L434.2151,92.16982L427.01419,92.16982L427.01419,88.56944L423.41373,88.56944L423.41373,84.96905L419.81328,84.96905L419.81328,81.36867
				L412.61236,81.36867L412.61236,77.76829L409.01191,77.76829L409.01191,74.1679L405.41145,74.1679L405.41145,70.56752L391.00962,70.56752
				L391.00962,74.1679L383.80871,74.1679L383.80871,77.76829L373.00734,77.76829L373.00734,81.36867L365.56639,81.36867L365.56639,84.96905
				L361.96594,84.96905L361.96594,88.56944L365.56639,88.56944L365.56639,95.77021L369.16685,95.77021L369.16685,102.97097L373.00734,102.97097
				L373.00734,113.77212L376.60779,113.77212L376.60779,120.97289L380.20825,120.97289L380.20825,131.77404L383.80871,131.77404
				L383.80871,138.97481L387.40916,138.97481L387.40916,146.17558L383.80871,146.17558L383.80871,149.77596L380.20825,149.77596
				L380.20825,153.37634L376.60779,153.37634L376.60779,156.97673L373.00734,156.97673L373.00734,160.57711L369.16685,160.57711
				L369.16685,164.1775L365.56639,164.1775L365.56639,167.77788L361.96594,167.77788L361.96594,171.37826L358.36548,171.37826L358.36548,174.97865
				L354.76502,174.97865L354.76502,178.57903L351.16456,178.57903L351.16456,182.17941L347.56411,182.17941L347.56411,185.7798L
				343.96365,185.7798L343.96365,189.62021L340.36319,189.62021L340.36319,193.22059L336.76274,193.22059L336.76274,196.82097L333.16228,196.82097
				L333.16228,200.42136L329.56182,200.42136L329.56182,204.02174L325.96137,204.02174L325.96137,211.22251L322.36091,211.22251
				L322.36091,214.82289L318.76045,214.82289L318.76045,218.42328L315.16,218.42328L315.16,222.02366L311.55954,222.02366L311.55954,225.62404
				L307.95908,225.62404L307.95908,229.22443L304.35862,229.22443L304.35862,236.42519L300.75817,236.42519L300.75817,240.02558
				L297.15771,240.02558L297.15771,243.62596L293.55725,243.62596L293.55725,247.22635L289.9568,247.22635L289.9568,250.82673L286.35634,250.82673
				L286.35634,254.42711L282.75588,254.42711L282.75588,261.62788L279.15543,261.62788L279.15543,265.22826L275.55497,265.22826
				L275.55497,268.82865L271.95451,268.82865L271.95451,272.42903L268.35406,272.42903L268.35406,276.02941L261.15314,276.02941
				L261.15314,272.42903L253.95223,272.42903L253.95223,268.82865L250.35177,268.82865L250.35177,265.22826L246.75131,265.22826
				L246.75131,261.62788L239.5504,261.62788L239.5504,258.0275L235.94994,258.0275L235.94994,254.42711L232.34949,254.42711L232.34949,250.82673
				L225.14857,250.82673L225.14857,247.22635L221.54812,247.22635L221.54812,243.62596L217.94766,243.62596L217.94766,240.02558
				L207.14629,240.02558L207.14629,243.62596L203.54583,243.62596L203.54583,247.22635L196.34492,247.22635L196.34492,250.82673
				L189.144,250.82673L189.144,254.42711L181.94309,254.42711L181.94309,258.0275L178.34263,258.0275L178.34263,261.62788L171.14172,261.62788
				L171.14172,265.22826L163.94081,265.22826L163.94081,268.82865L160.10032,268.82865L160.10032,272.42903L152.8994,272.42903L
				152.8994,276.02941L145.69849,276.02941L145.69849,279.6298L138.49758,279.6298L138.49758,283.23018L134.89712,283.23018L134.89712,286.83057
				L127.69621,286.83057L127.69621,290.43095"/>
			<path clip-path="url(#SVG_CP_2)" fill="none" stroke="#999999" stroke-width="0.96012" stroke-miterlimit="10" stroke-linecap="round" stroke-linejoin="round" d="
				M300.75817,427.48555L297.15771,427.48555L297.15771,423.88517L300.75817,423.88517L300.75817,427.48555"/>
			<path clip-path="url(#SVG_CP_2)" fill="none" stroke="#999999" stroke-width="0.96012" stroke-miterlimit="10" stroke-linecap="round" stroke-linejoin="round" d="
				M225.14857,431.08594L221.54812,431.08594L221.54812,427.48555L225.14857,427.48555L225.14857,431.08594"/>
			<path clip-path="url(#SVG_CP_2)" fill="none" stroke="#999999" stroke-width="0.96012" stroke-miterlimit="10" stroke-linecap="round" stroke-linejoin="round" d="
				M279.15543,431.08594L275.55497,431.08594L275.55497,427.48555L279.15543,427.48555L279.15543,431.08594"/>
			<path clip-path="url(#SVG_CP_2)" fill="none" stroke="#999999" stroke-width="0.96012" stroke-miterlimit="10" stroke-linecap="round" stroke-linejoin="round" d="
				M-6.24079,308.43287L-5.5207,308.43287L-5.5207,312.03325L-1.92024,312.03325L-1.92024,319.23402L1.68021,319.23402L1.68021,322.8344
				L5.28067,322.8344L5.28067,326.43479L8.88113,326.43479L8.88113,330.03517L12.48158,330.03517L12.48158,337.23594L16.08204,337.23594
				L16.08204,340.83632L19.6825,340.83632L19.6825,344.4367L23.28296,344.4367L23.28296,351.63747L26.88341,351.63747L26.88341,355.23785
				L30.48387,355.23785L30.48387,358.83824L34.08433,358.83824L34.08433,362.43862L37.68478,362.43862L37.68478,369.63939L41.28524,369.63939
				L41.28524,373.23977L44.8857,373.23977L44.8857,376.84016L48.48615,376.84016L48.48615,380.44054L52.08661,380.44054L52.08661,387.64131
				L55.68707,387.64131L55.68707,391.24169L59.28752,391.24169L59.28752,394.84208L62.88798,394.84208L62.88798,398.68248L66.48844,398.68248
				L66.48844,405.88325L70.08889,405.88325L70.08889,409.48364L73.68935,409.48364L73.68935,413.08402L77.28981,413.08402L77.28981,416.6844
				L80.89027,416.6844L80.89027,420.28479L84.49072,420.28479L84.49072,423.88517L88.09118,423.88517L88.09118,427.48555L91.69164,427.48555
				L91.69164,431.08594L95.29209,431.08594L95.29209,434.68632L98.89255,434.68632L98.89255,438.2867L102.49301,438.2867L102.49301,441.88709
				L106.09346,441.88709L106.09346,445.48747L109.69392,445.48747L109.69392,449.08786L116.89483,449.08786L116.89483,452.68824
				L120.49529,452.68824L120.49529,456.28862L124.09575,456.28862L124.09575,459.88901L127.69621,459.88901L127.69621,463.48939
				L131.29666,463.48939L131.29666,467.08977L134.89712,467.08977L134.89712,470.69016L138.49758,470.69016L138.49758,474.29054
				L142.09803,474.29054L142.09803,477.89092L145.69849,477.89092L145.69849,481.49131L149.29895,481.49131L149.29895,485.09169
				L152.8994,485.09169L152.8994,488.69208L156.49986,488.69208L156.49986,492.29246L160.10032,492.29246L160.10032,495.89284L163.94081,495.89284
				L163.94081,499.49323L167.54126,499.49323L167.54126,503.09361L171.14172,503.09361L171.14172,506.69399L174.74218,506.69399
				L174.74218,510.29438L178.34263,510.29438L178.34263,513.89476L181.94309,513.89476L181.94309,517.49515L185.54355,517.49515
				L185.54355,521.09553L189.144,521.09553L189.144,524.69591L192.74446,524.69591L192.74446,528.2963L196.34492,528.2963L196.34492,531.89668
				L199.94537,531.89668L199.94537,535.49706L203.54583,535.49706L203.54583,539.09745L207.14629,539.09745L207.14629,535.49706
				L210.74674,535.49706L210.74674,531.89668L217.94766,531.89668L217.94766,528.2963L221.54812,528.2963L221.54812,524.69591L228.74903,524.69591
				L228.74903,521.09553L232.34949,521.09553L232.34949,517.49515L239.5504,517.49515L239.5504,513.89476L243.15086,513.89476L243.15086,510.29438
				L250.35177,510.29438L250.35177,506.69399L253.95223,506.69399L253.95223,503.09361L257.55268,503.09361L257.55268,499.49323
				L264.7536,499.49323L264.7536,495.89284L268.35406,495.89284L268.35406,492.29246L275.55497,492.29246L275.55497,488.69208L279.15543,488.69208
				L279.15543,485.09169L286.35634,485.09169L286.35634,481.49131L289.9568,481.49131L289.9568,477.89092L297.15771,477.89092L297.15771,474.29054
				L300.75817,474.29054L300.75817,470.69016L304.35862,470.69016L304.35862,467.08977L311.55954,467.08977L311.55954,463.48939
				L315.16,463.48939L315.16,459.88901L322.36091,459.88901L322.36091,456.28862L325.96137,456.28862L325.96137,452.68824L329.56182,452.68824
				L329.56182,449.08786L333.16228,449.08786L333.16228,445.48747L340.36319,445.48747L340.36319,441.88709L343.96365,441.88709
				L343.96365,438.2867L347.56411,438.2867L347.56411,434.68632L351.16456,434.68632L351.16456,431.08594L358.36548,431.08594L358.36548,427.48555
				L361.96594,427.48555L361.96594,423.88517L365.56639,423.88517L365.56639,420.28479L369.16685,420.28479L369.16685,416.6844L
				376.60779,416.6844L376.60779,413.08402L380.20825,413.08402L380.20825,409.48364L383.80871,409.48364L383.80871,405.88325L387.40916,405.88325
				L387.40916,402.28287L391.00962,402.28287L391.00962,398.68248L398.21053,398.68248L398.21053,394.84208L401.81099,394.84208
				L401.81099,391.24169L405.41145,391.24169L405.41145,387.64131L409.01191,387.64131L409.01191,384.04092L416.21282,384.04092
				L416.21282,380.44054L419.81328,380.44054L419.81328,376.84016L423.41373,376.84016L423.41373,373.23977L427.01419,373.23977
				L427.01419,369.63939L430.61465,369.63939L430.61465,366.03901L437.81556,366.03901L437.81556,362.43862L441.41602,362.43862
				L441.41602,358.83824L445.01647,358.83824L445.01647,355.23785L448.61693,355.23785L448.61693,351.63747L452.21739,351.63747
				L452.21739,348.03709L455.81785,348.03709L455.81785,344.4367L459.4183,344.4367L459.4183,340.83632L463.01876,340.83632L463.01876,337.23594
				L466.61922,337.23594L466.61922,333.63555L470.21967,333.63555L470.21967,330.03517L477.42059,330.03517L477.42059,326.43479
				L481.02104,326.43479L481.02104,322.8344L484.6215,322.8344L484.6215,319.23402L488.22196,319.23402L488.22196,315.63363L491.82241,315.63363
				L491.82241,312.03325L495.42287,312.03325L495.42287,308.43287L499.02333,308.43287L499.02333,304.83248L502.62378,304.83248
				L502.62378,301.2321L506.22424,301.2321L506.22424,297.63172L509.8247,297.63172L509.8247,294.03133L513.42516,294.03133L513.42516,290.43095
				L517.02561,290.43095L517.02561,286.83057L520.62607,286.83057L520.62607,283.23018L524.22653,283.23018L524.22653,279.6298L
				531.42744,279.6298L531.42744,276.02941L535.0279,276.02941L535.0279,272.42903L538.62835,272.42903L538.62835,268.82865L542.22881,268.82865
				L542.22881,265.22826L545.82927,265.22826L545.82927,261.62788L549.42972,261.62788L549.42972,258.0275L553.03018,258.0275L553.03018,254.42711
				L556.63064,254.42711L556.63064,247.22635L560.2311,247.22635L560.2311,243.62596L563.83155,243.62596L563.83155,240.02558L567.43201,240.02558
				L567.43201,236.42519L571.03247,236.42519L571.03247,232.82481L574.63292,232.82481L574.63292,229.22443L578.23338,229.22443
				L578.23338,225.62404L582.07387,225.62404L582.07387,222.02366L585.67432,222.02366L585.67432,214.82289L589.27478,214.82289
				L589.27478,211.22251L592.87524,211.22251L592.87524,207.62212L596.47569,207.62212L596.47569,204.02174L600.07615,204.02174
				L600.07615,200.42136L601.9964,200.42136M601.9964,719.35666L592.87524,719.35666L592.87524,722.95704L578.23338,722.95704L578.23338,726.55742
				L563.83155,726.55742L563.83155,730.15781L538.62835,730.15781L538.62835,733.75819L506.22424,733.75819L506.22424,737.35857
				L477.42059,737.35857L477.42059,740.95896L470.21967,740.95896L470.21967,744.55934L463.01876,744.55934L463.01876,748.15973
				L455.81785,748.15973L455.81785,751.76011L448.61693,751.76011L448.61693,755.36049L441.41602,755.36049L441.41602,758.96088
				L434.2151,758.96088L434.2151,762.56126L427.01419,762.56126L427.01419,766.16164L419.81328,766.16164L419.81328,769.76203L416.21282,769.76203
				L416.21282,773.36241L409.01191,773.36241L409.01191,776.96279L405.41145,776.96279L405.41145,780.56318L398.21053,780.56318
				L398.21053,784.16356L394.61008,784.16356L394.61008,787.76395L391.00962,787.76395L391.00962,791.36433L387.40916,791.36433
				L387.40916,794.96471L380.20825,794.96471L380.20825,798.5651L376.60779,798.5651L376.60779,802.16548L373.00734,802.16548L373.00734,805.76586
				L365.56639,805.76586L365.56639,809.36625L361.96594,809.36625L361.96594,816.80704L358.36548,816.80704L358.36548,820.40742
				L351.16456,820.40742L351.16456,824.00781L347.56411,824.00781L347.56411,827.60819L340.36319,827.60819L340.36319,831.20857
				L333.16228,831.20857L333.16228,834.80896L325.96137,834.80896L325.96137,838.40934L318.76045,838.40934L318.76045,842.00973
				L311.55954,842.00973L311.55954,845.61011L304.35862,845.61011L304.35862,849.21049L297.15771,849.21049L297.15771,852.81088
				L293.55725,852.81088L293.55725,856.41126L286.35634,856.41126L286.35634,860.01164L279.15543,860.01164L279.15543,861.21177
				"/>
		</g>
</g></svg>