<?xml version="1.0" encoding="utf-8" standalone="no"?>
<!-- Creator: ESRI ArcMap 10.0.0.2414 -->
<!DOCTYPE svg PUBLIC "-//W3C//DTD SVG 1.1//EN"  "http://www.w3.org/Graphics/SVG/1.1/DTD/svg11.dtd">
<svg width="595.50236pt" height="595.50236pt" viewBox="25 148.377955 545.50236 545.50236" enable-background="new 25 148.377955 545.50236 545.50236"
	version="1.1" xmlns="http://www.w3.org/2000/svg" xmlns:xlink="http://www.w3.org/1999/xlink" >
	<g id="Couches">
		<g id="cont_2">
			<path clip-path="url(#SVG_CP_2)" fill="none" stroke="#999999" stroke-width="0.96012" stroke-miterlimit="10" stroke-linecap="round" stroke-linejoin="round" d="
				M257.31265,380.68057L258.75284,380.68057L258.75284,381.40064L260.19302,381.40064L260.19302,382.12072L262.35329,382.12072
				L262.35329,383.08082L263.07339,383.08082L263.07339,380.68057L262.35329,380.68057L262.35329,377.80026L261.6332,377.80026L
				261.6332,374.19988L260.91311,374.19988L260.91311,371.31957L260.19302,371.31957L260.19302,368.43926L259.47293,368.43926L259.47293,365.55895
				L257.31265,365.55895L257.31265,364.83888L255.15238,364.83888L255.15238,364.1188L252.99211,364.1188L252.99211,363.39872L251.55192,363.39872
				L251.55192,362.67865L249.39165,362.67865L249.39165,361.95857L247.23137,361.95857L247.23137,361.23849L245.0711,361.23849L
				245.0711,360.51842L243.63092,360.51842L243.63092,359.79834L241.23061,359.79834L241.23061,359.07826L239.07034,359.07826L239.07034,358.11816
				L236.91007,358.11816L236.91007,357.39809L234.74979,357.39809L234.74979,356.67801L233.30961,356.67801L233.30961,355.95793
				L231.14933,355.95793L231.14933,355.23785L228.98906,355.23785L228.98906,354.51778L226.82879,354.51778L226.82879,353.7977L
				225.3886,353.7977L225.3886,353.07762L223.22833,353.07762L223.22833,352.35755L221.06805,352.35755L221.06805,351.63747L218.66775,351.63747
				L218.66775,350.91739L216.50748,350.91739L216.50748,350.19732L215.06729,350.19732L215.06729,349.47724L212.90702,349.47724
				L212.90702,348.75716L210.74674,348.75716L210.74674,348.03709L208.58647,348.03709L208.58647,347.31701L207.14629,347.31701
				L207.14629,346.59693L204.98601,346.59693L204.98601,345.87686L202.82574,345.87686L202.82574,345.15678L200.66547,345.15678
				L200.66547,344.4367L198.50519,344.4367L198.50519,343.71663L196.34492,343.71663L196.34492,342.99655L193.94461,342.99655L193.94461,342.27647
				L191.78434,342.27647L191.78434,341.5564L189.62406,341.5564L189.62406,340.83632L187.46379,340.83632L187.46379,340.11624L185.30352,340.11624
				L185.30352,339.39617L183.14324,339.39617L183.14324,338.67609L180.98297,338.67609L180.98297,337.95601L178.82269,337.95601
				L178.82269,337.23594L176.66242,337.23594L176.66242,336.51586L174.50215,336.51586L174.50215,335.79578L172.34187,335.79578
				L172.34187,334.83568L169.94157,334.83568L169.94157,334.1156L167.78129,334.1156L167.78129,333.39553L165.62102,333.39553L165.62102,332.67545
				L163.46074,332.67545L163.46074,331.95537L161.30047,331.95537L161.30047,331.2353L159.1402,331.2353L159.1402,330.51522L156.97992,330.51522
				L156.97992,329.79514L154.81965,329.79514L154.81965,329.07507L151.93928,329.07507L151.93928,328.35499L149.77901,328.35499
				L149.77901,327.63491L147.3787,327.63491L147.3787,326.91484L145.21843,326.91484L145.21843,326.19476L143.05815,326.19476L143.05815,325.47468
				L140.17779,325.47468L140.17779,324.75461L138.01752,324.75461L138.01752,324.03453L135.85724,324.03453L135.85724,323.31445
				L133.69697,323.31445L133.69697,322.59438L131.53669,322.59438L131.53669,321.8743L128.65633,321.8743L128.65633,321.15422L126.49605,321.15422
				L126.49605,320.43415L124.33578,320.43415L124.33578,319.71407L121.93547,319.71407L121.93547,318.99399L119.7752,318.99399L
				119.7752,318.27392L117.61493,318.27392L117.61493,317.55384L112.57429,317.55384L112.57429,318.27392L107.53365,318.27392L107.53365,318.99399
				L101.77292,318.99399L101.77292,319.71407L96.49225,319.71407L96.49225,320.43415L91.45161,320.43415L91.45161,321.15422L86.41097,321.15422
				L86.41097,321.8743L80.65024,321.8743L80.65024,322.59438L75.36957,322.59438L75.36957,323.31445L70.32893,323.31445L70.32893,324.03453
				L65.28829,324.03453L65.28829,324.75461L59.52755,324.75461L59.52755,325.47468L54.48692,325.47468L54.48692,326.19476L49.20624,326.19476
				L49.20624,326.91484L44.16561,326.91484L44.16561,327.63491L41.28524,327.63491L41.28524,328.35499L38.40487,328.35499L38.40487,329.07507
				L35.52451,329.07507L35.52451,329.79514L32.64414,329.79514L32.64414,330.51522L30.48387,330.51522L30.48387,331.2353L27.36347,331.2353
				L27.36347,331.95537L24.48311,331.95537L24.48311,332.67545L21.60274,332.67545L21.60274,333.39553L18.72238,333.39553L18.72238,334.1156
				L15.84201,334.1156L15.84201,334.83568L13.68174,334.83568L13.68174,335.79578L10.80137,335.79578L10.80137,336.51586L7.92101,336.51586
				L7.92101,337.23594L5.04064,337.23594L5.04064,337.95601L1.92024,337.95601L1.92024,338.67609L-0.96012,338.67609L-0.96012,339.39617
				L-3.1204,339.39617L-3.1204,340.11624L-6.00076,340.11624L-6.00076,340.83632L-6.24079,340.83632M-6.24079,307.23274L-5.28067,307.23274
				L-5.28067,306.51266L-3.1204,306.51266L-3.1204,305.79259L-0.96012,305.79259L-0.96012,305.07251L1.20015,305.07251L1.20015,304.35243
				L3.36043,304.35243L3.36043,303.63236L6.48082,303.63236L6.48082,302.91228L8.6411,302.91228L8.6411,302.1922L10.08128,302.1922
				L10.08128,301.47213L12.96165,301.47213L12.96165,300.75205L15.12192,300.75205L15.12192,300.03197L17.28219,300.03197L17.28219,299.3119
				L19.44247,299.3119L19.44247,298.59182L23.04292,298.59182L23.04292,297.87174L25.2032,297.87174L25.2032,297.15167L29.04369,297.15167
				L29.04369,296.43159L32.64414,296.43159L32.64414,295.71151L36.96469,295.71151L36.96469,294.99144L42.00533,294.99144L42.00533,294.27136
				L44.16561,294.27136L44.16561,293.55128L47.04597,293.55128L47.04597,292.8312L53.04673,292.8312L53.04673,292.11113L58.80746,292.11113
				L58.80746,291.39105L63.8481,291.39105L63.8481,290.67097L68.16865,290.67097L68.16865,289.9509L72.4892,289.9509L72.4892,289.23082
				L73.20929,289.23082L73.20929,289.9509L74.64947,289.9509L74.64947,289.23082L79.21005,289.23082L79.21005,288.51074L84.97078,288.51074
				L84.97078,287.79067L90.01142,287.79067L90.01142,286.83057L94.33197,286.83057L94.33197,286.11049L96.49225,286.11049L96.49225,285.39041
				L97.93243,285.39041L97.93243,284.67034L99.37261,284.67034L99.37261,283.95026L101.77292,283.95026L101.77292,283.23018L103.2131,283.23018
				L103.2131,282.51011L105.37337,282.51011L105.37337,281.79003L109.69392,281.79003L109.69392,282.51011L111.1341,282.51011L111.1341,281.79003
				L111.8542,281.79003L111.8542,282.51011L116.89483,282.51011L116.89483,283.23018L119.05511,283.23018L119.05511,283.95026L122.65557,283.95026
				L122.65557,284.67034L125.05587,284.67034L125.05587,285.39041L127.21614,285.39041L127.21614,286.11049L129.37642,286.11049
				L129.37642,286.83057L131.53669,286.83057L131.53669,287.79067L133.69697,287.79067L133.69697,288.51074L135.85724,288.51074
				L135.85724,289.23082L137.29742,289.23082L137.29742,289.9509L138.73761,289.9509L138.73761,290.67097L140.17779,290.67097L140.17779,291.39105
				L140.89788,291.39105L140.89788,292.11113L141.61797,292.11113L141.61797,292.8312L143.05815,292.8312L143.05815,293.55128L144.49834,293.55128
				L144.49834,294.27136L154.81965,294.27136L154.81965,294.99144L164.90093,294.99144L164.90093,295.71151L169.94157,295.71151
				L169.94157,296.43159L181.70306,296.43159L181.70306,297.15167L189.62406,297.15167L189.62406,297.87174L193.94461,297.87174
				L193.94461,297.15167L194.6647,297.15167L194.6647,297.87174L197.06501,297.87174L197.06501,298.59182L198.50519,298.59182L198.50519,299.3119
				L200.66547,299.3119L200.66547,300.03197L202.10565,300.03197L202.10565,300.75205L204.26592,300.75205L204.26592,301.47213L
				206.4262,301.47213L206.4262,302.1922L209.30656,302.1922L209.30656,302.91228L212.90702,302.91228L212.90702,302.1922L213.62711,302.1922
				L213.62711,302.91228L216.50748,302.91228L216.50748,303.63236L217.94766,303.63236L217.94766,304.35243L219.62787,304.35243
				L219.62787,305.07251L221.78815,305.07251L221.78815,305.79259L223.22833,305.79259L223.22833,306.51266L225.3886,306.51266L
				225.3886,307.23274L226.82879,307.23274L226.82879,307.95282L228.26897,307.95282L228.26897,308.67289L230.42924,308.67289L230.42924,309.39297
				L231.86943,309.39297L231.86943,310.11305L234.0297,310.11305L234.0297,310.83312L235.46988,310.83312L235.46988,311.79323L236.91007,311.79323
				L236.91007,312.5133L239.07034,312.5133L239.07034,313.23338L240.51052,313.23338L240.51052,313.95346L242.6708,313.95346L242.6708,314.67353
				L244.35101,314.67353L244.35101,315.39361L246.51128,315.39361L246.51128,317.55384L247.23137,317.55384L247.23137,318.99399
				L248.67156,318.99399L248.67156,319.71407L249.39165,319.71407L249.39165,320.43415L252.27201,320.43415L252.27201,319.71407
				L253.7122,319.71407L253.7122,318.99399L255.15238,318.99399L255.15238,318.27392L256.59256,318.27392L256.59256,317.55384L258.75284,317.55384
				L258.75284,316.83376L261.6332,316.83376L261.6332,316.11369L263.79348,316.11369L263.79348,315.39361L266.67384,315.39361L266.67384,314.67353
				L268.35406,314.67353L268.35406,313.95346L269.79424,313.95346L269.79424,313.23338L271.23442,313.23338L271.23442,312.5133L
				272.6746,312.5133L272.6746,311.79323L274.11479,311.79323L274.11479,310.83312L275.55497,310.83312L275.55497,310.11305L277.71524,310.11305
				L277.71524,309.39297L279.15543,309.39297L279.15543,308.67289L281.3157,308.67289L281.3157,307.95282L282.75588,307.95282L282.75588,307.23274
				L284.91616,307.23274L284.91616,306.51266L286.35634,306.51266L286.35634,305.79259L288.51661,305.79259L288.51661,305.07251
				L292.3571,305.07251L292.3571,304.35243L300.27811,304.35243L300.27811,303.63236L312.51966,303.63236L312.51966,302.91228L314.67993,302.91228
				L314.67993,303.63236L322.12088,303.63236L322.12088,304.35243L324.28115,304.35243L324.28115,305.07251L325.72134,305.07251
				L325.72134,305.79259L327.88161,305.79259L327.88161,306.51266L330.04188,306.51266L330.04188,307.23274L332.20216,307.23274
				L332.20216,307.95282L334.36243,307.95282L334.36243,308.67289L335.80261,308.67289L335.80261,309.39297L337.96289,309.39297
				L337.96289,310.11305L339.6431,310.11305L339.6431,310.83312L341.80338,310.83312L341.80338,311.79323L343.24356,311.79323L343.24356,312.5133
				L344.68374,312.5133L344.68374,313.23338L346.12392,313.23338L346.12392,313.95346L348.2842,313.95346L348.2842,314.67353L349.72438,314.67353
				L349.72438,315.39361L351.16456,315.39361L351.16456,316.11369L353.32484,316.11369L353.32484,316.83376L354.76502,316.83376
				L354.76502,317.55384L356.2052,317.55384L356.2052,318.27392L356.9253,318.27392L356.9253,318.99399L357.64539,318.99399L357.64539,319.71407
				L358.36548,319.71407L358.36548,320.43415L359.08557,320.43415L359.08557,321.15422L360.52575,321.15422L360.52575,321.8743L
				361.24584,321.8743L361.24584,322.59438L361.96594,322.59438L361.96594,323.31445L362.68603,323.31445L362.68603,324.03453L363.64615,324.03453
				L363.64615,324.75461L365.08633,324.75461L365.08633,325.47468L365.80642,325.47468L365.80642,326.19476L366.52651,326.19476
				L366.52651,326.91484L367.24661,326.91484L367.24661,327.63491L368.68679,327.63491L368.68679,328.35499L369.40688,328.35499
				L369.40688,329.07507L370.12697,329.07507L370.12697,329.79514L371.56715,329.79514L371.56715,330.51522L373.72743,330.51522
				L373.72743,331.2353L375.16761,331.2353L375.16761,331.95537L376.60779,331.95537L376.60779,332.67545L378.04798,332.67545L378.04798,333.39553
				L380.20825,333.39553L380.20825,334.1156L381.64843,334.1156L381.64843,334.83568L383.80871,334.83568L383.80871,335.79578L389.80947,335.79578
				L389.80947,336.51586L392.68983,336.51586L392.68983,337.23594L394.85011,337.23594L394.85011,337.95601L397.73047,337.95601
				L397.73047,338.67609L400.61084,338.67609L400.61084,339.39617L403.4912,339.39617L403.4912,340.11624L405.65148,340.11624L405.65148,340.83632
				L407.81175,340.83632L407.81175,341.5564L409.97203,341.5564L409.97203,342.27647L412.37233,342.27647L412.37233,342.99655L413.81251,342.99655
				L413.81251,343.71663L415.2527,343.71663L415.2527,344.4367L417.41297,344.4367L417.41297,345.15678L418.85315,345.15678L418.85315,345.87686
				L421.01343,345.87686L421.01343,346.59693L422.45361,346.59693L422.45361,347.31701L423.89379,347.31701L423.89379,348.03709
				L426.05407,348.03709L426.05407,348.75716L428.21434,348.75716L428.21434,349.47724L429.65452,349.47724L429.65452,350.19732
				L431.09471,350.19732L431.09471,350.91739L432.53489,350.91739L432.53489,351.63747L433.97507,351.63747L433.97507,352.35755
				L435.65529,352.35755L435.65529,353.07762L437.81556,353.07762L437.81556,353.7977L438.53565,353.7977L438.53565,354.51778L439.97583,354.51778
				L439.97583,355.23785L441.41602,355.23785L441.41602,355.95793L443.57629,355.95793L443.57629,356.67801L445.01647,356.67801
				L445.01647,357.39809L446.45666,357.39809L446.45666,358.11816L447.89684,358.11816L447.89684,359.07826L449.33702,359.07826
				L449.33702,359.79834L451.4973,359.79834L451.4973,360.51842L452.93748,360.51842L452.93748,361.23849L455.09775,361.23849L455.09775,361.95857
				L456.53794,361.95857L456.53794,361.23849L461.09852,361.23849L461.09852,360.51842L463.97888,360.51842L463.97888,359.79834
				L471.89989,359.79834L471.89989,360.51842L475.50034,360.51842L475.50034,359.79834L479.82089,359.79834L479.82089,359.07826
				L483.66138,359.07826L483.66138,358.11816L491.58238,358.11816L491.58238,359.07826L495.18284,359.07826L495.18284,359.79834
				L497.34311,359.79834L497.34311,360.51842L499.50339,360.51842L499.50339,361.23849L500.22348,361.23849L500.22348,361.95857
				L501.66366,361.95857L501.66366,362.67865L503.10385,362.67865L503.10385,363.39872L505.26412,363.39872L505.26412,364.1188L
				506.94433,364.1188L506.94433,364.83888L507.66442,364.83888L507.66442,365.55895L509.10461,365.55895L509.10461,366.27903L509.8247,366.27903
				L509.8247,366.99911L510.54479,366.99911L510.54479,367.71918L513.42516,367.71918L513.42516,368.43926L521.34616,368.43926L
				521.34616,367.71918L524.22653,367.71918L524.22653,368.43926L524.94662,368.43926L524.94662,367.71918L525.66671,367.71918L
				525.66671,368.43926L527.82698,368.43926L527.82698,369.15934L529.26717,369.15934L529.26717,370.59949L527.82698,370.59949L
				527.82698,371.31957L525.66671,371.31957L525.66671,372.03965L523.50643,372.03965L523.50643,372.75972L522.06625,372.75972L
				522.06625,373.4798L519.90598,373.4798L519.90598,374.19988L517.7457,374.19988L517.7457,374.91995L515.58543,374.91995L515.58543,375.64003
				L513.42516,375.64003L513.42516,376.36011L511.26488,376.36011L511.26488,377.08018L509.8247,377.08018L509.8247,377.80026L507.66442,377.80026
				L507.66442,378.52034L505.26412,378.52034L505.26412,379.24041L503.10385,379.24041L503.10385,379.96049L500.22348,379.96049
				L500.22348,380.68057L497.34311,380.68057L497.34311,381.40064L494.46275,381.40064L494.46275,382.12072L492.30248,382.12072
				L492.30248,383.08082L489.42211,383.08082L489.42211,383.8009L486.54174,383.8009L486.54174,384.52098L483.66138,384.52098L483.66138,385.24105
				L480.54098,385.24105L480.54098,385.96113L477.66062,385.96113L477.66062,386.68121L474.78025,386.68121L474.78025,387.40128
				L472.61998,387.40128L472.61998,388.12136L469.73961,388.12136L469.73961,388.84144L466.85925,388.84144L466.85925,389.56151
				L463.97888,389.56151L463.97888,390.28159L458.69821,390.28159L458.69821,391.00167L455.09775,391.00167L455.09775,391.72174
				L452.93748,391.72174L452.93748,392.44182L451.4973,392.44182L451.4973,393.1619L449.33702,393.1619L449.33702,393.88197L445.73657,393.88197
				L445.73657,394.60205L442.8562,394.60205L442.8562,395.32213L439.25574,395.32213L439.25574,396.0422L437.09547,396.0422L437.09547,396.76228
				L434.69516,396.76228L434.69516,397.48236L431.8148,397.48236L431.8148,398.20243L428.93443,398.20243L428.93443,398.92251L426.05407,398.92251
				L426.05407,399.64259L423.1737,399.64259L423.1737,400.36266L421.01343,400.36266L421.01343,401.08274L419.57325,401.08274L419.57325,401.80282
				L417.41297,401.80282L417.41297,402.52289L415.2527,402.52289L415.2527,403.24297L413.09242,403.24297L413.09242,403.96305L412.37233,403.96305
				L412.37233,404.68312L410.69212,404.68312L410.69212,405.4032L409.25194,405.4032L409.25194,406.12328L407.81175,406.12328L407.81175,407.08338
				L406.37157,407.08338L406.37157,407.80346L404.93139,407.80346L404.93139,408.52353L404.2113,408.52353L404.2113,409.24361L402.77111,409.24361
				L402.77111,409.96369L401.33093,409.96369L401.33093,410.68376L400.61084,410.68376L400.61084,411.40384L399.17066,411.40384
				L399.17066,412.12392L398.45057,412.12392L398.45057,412.84399L397.01038,412.84399L397.01038,413.56407L395.5702,413.56407L
				395.5702,414.28415L394.85011,414.28415L394.85011,415.00422L393.40993,415.00422L393.40993,415.7243L391.96974,415.7243L391.96974,416.44438
				L391.24965,416.44438L391.24965,417.16445L389.80947,417.16445L389.80947,417.88453L388.36929,417.88453L388.36929,418.60461
				L387.64919,418.60461L387.64919,419.32468L385.96898,419.32468L385.96898,420.04476L385.24889,420.04476L385.24889,420.76484
				L383.80871,420.76484L383.80871,421.48491L383.08862,421.48491L383.08862,422.20499L381.64843,422.20499L381.64843,422.92507
				L380.92834,422.92507L380.92834,423.64514L379.48816,423.64514L379.48816,424.36522L378.76807,424.36522L378.76807,425.0853L
				378.04798,425.0853L378.04798,425.80537L377.32788,425.80537L377.32788,426.52545L376.60779,426.52545L376.60779,427.24553L375.8877,427.24553
				L375.8877,428.68568L375.16761,428.68568L375.16761,429.40576L374.44752,429.40576L374.44752,430.12584L373.72743,430.12584L
				373.72743,431.08594L373.00734,431.08594L373.00734,431.80601L372.28724,431.80601L372.28724,432.52609L371.56715,432.52609L
				371.56715,433.24617L370.84706,433.24617L370.84706,433.96624L370.12697,433.96624L370.12697,434.68632L368.68679,434.68632L
				368.68679,435.4064L367.9667,435.4064L367.9667,436.12647L366.52651,436.12647L366.52651,436.84655L365.08633,436.84655L365.08633,437.56663
				L363.64615,437.56663L363.64615,438.2867L361.96594,438.2867L361.96594,439.00678L360.52575,439.00678L360.52575,439.72686L358.36548,439.72686
				L358.36548,440.44693L356.9253,440.44693L356.9253,441.16701L355.48511,441.16701L355.48511,441.88709L353.32484,441.88709L353.32484,442.60717
				L351.88466,442.60717L351.88466,443.32724L349.72438,443.32724L349.72438,444.04732L347.56411,444.04732L347.56411,444.7674L
				346.12392,444.7674L346.12392,445.48747L343.96365,445.48747L343.96365,446.20755L342.52347,446.20755L342.52347,446.92763L340.36319,446.92763
				L340.36319,447.6477L337.96289,447.6477L337.96289,448.36778L336.52271,448.36778L336.52271,449.08786L334.36243,449.08786L334.36243,451.96816
				L335.08252,451.96816L335.08252,455.0885L335.80261,455.0885L335.80261,457.24873L336.52271,457.24873L336.52271,457.9688L334.36243,457.9688
				L334.36243,458.68888L331.48207,458.68888L331.48207,459.40896L328.6017,459.40896L328.6017,460.12903L325.72134,460.12903L325.72134,457.9688
				L325.00124,457.9688L325.00124,455.80857L324.28115,455.80857L324.28115,452.68824L322.84097,452.68824L322.84097,453.40832L
				321.40079,453.40832L321.40079,454.12839L319.9606,454.12839L319.9606,455.0885L318.52042,455.0885L318.52042,457.24873L317.80033,457.24873
				L317.80033,458.68888L317.08024,458.68888L317.08024,460.12903L316.36015,460.12903L316.36015,462.28926L315.64006,462.28926
				L315.64006,463.72942L314.67993,463.72942L314.67993,465.16957L313.95984,465.16957L313.95984,467.3298L313.23975,467.3298L313.23975,468.76995
				L312.51966,468.76995L312.51966,470.21011L311.79957,470.21011L311.79957,470.93018L303.15847,470.93018L303.15847,471.65026
				L300.9982,471.65026L300.9982,469.49003L300.27811,469.49003L300.27811,465.16957L299.55802,465.16957L299.55802,461.56919L298.83792,461.56919
				L298.83792,457.24873L297.39774,457.24873L297.39774,457.9688L293.79728,457.9688L293.79728,458.68888L286.35634,458.68888L286.35634,459.40896
				L280.59561,459.40896L280.59561,460.12903L275.55497,460.12903L275.55497,460.84911L271.23442,460.84911L271.23442,461.56919
				L258.03275,461.56919L258.03275,451.96816L257.31265,451.96816L257.31265,380.68057"/>
			<path clip-path="url(#SVG_CP_2)" fill="none" stroke="#999999" stroke-width="0.96012" stroke-miterlimit="10" stroke-linecap="round" stroke-linejoin="round" d="
				M257.31265,380.68057L256.59256,380.68057L256.59256,457.24873L257.31265,457.24873L257.31265,462.28926L228.26897,462.28926
				L228.26897,463.00934L223.94842,463.00934L223.94842,463.72942L220.34796,463.72942L220.34796,464.44949L215.78738,464.44949
				L215.78738,465.16957L212.18693,465.16957L212.18693,465.88965L207.86638,465.88965L207.86638,466.60972L204.26592,466.60972
				L204.26592,467.3298L199.94537,467.3298L199.94537,468.04988L196.34492,468.04988L196.34492,468.76995L192.50443,468.76995L192.50443,469.49003
				L188.90397,469.49003L188.90397,470.21011L185.30352,470.21011L185.30352,470.93018L180.26288,470.93018L180.26288,471.65026
				L175.22224,471.65026L175.22224,472.37034L169.94157,472.37034L169.94157,473.09041L168.50138,473.09041L168.50138,473.81049
				L150.4991,473.81049L150.4991,474.53057L151.21919,474.53057L151.21919,475.97072L151.93928,475.97072L151.93928,476.6908L152.65937,476.6908
				L152.65937,478.13095L153.37946,478.13095L153.37946,479.09105L154.09956,479.09105L154.09956,479.81113L154.81965,479.81113
				L154.81965,481.25128L155.53974,481.25128L155.53974,481.97136L156.25983,481.97136L156.25983,483.41151L156.97992,483.41151
				L156.97992,484.13159L157.70001,484.13159L157.70001,485.57174L158.4201,485.57174L158.4201,486.29182L159.1402,486.29182L159.1402,487.0119
				L159.86029,487.0119L159.86029,488.45205L160.58038,488.45205L160.58038,489.17213L161.30047,489.17213L161.30047,490.61228L
				162.02056,490.61228L162.02056,491.33236L162.74065,491.33236L162.74065,492.77251L163.46074,492.77251L163.46074,493.49259L
				164.18084,493.49259L164.18084,494.21266L164.90093,494.21266L164.90093,495.65282L165.62102,495.65282L165.62102,496.37289L
				166.34111,496.37289L166.34111,497.81305L167.0612,497.81305L167.0612,498.53312L167.78129,498.53312L167.78129,499.2532L168.50138,499.2532
				L168.50138,499.97328L167.78129,499.97328L167.78129,500.69335L166.34111,500.69335L166.34111,501.41343L165.62102,501.41343
				L165.62102,502.13351L164.18084,502.13351L164.18084,503.09361L163.46074,503.09361L163.46074,503.81369L162.02056,503.81369
				L162.02056,504.53376L161.30047,504.53376L161.30047,505.25384L159.86029,505.25384L159.86029,505.97392L159.1402,505.97392L
				159.1402,506.69399L157.70001,506.69399L157.70001,507.41407L156.97992,507.41407L156.97992,508.13415L155.53974,508.13415L155.53974,508.85422
				L154.81965,508.85422L154.81965,509.5743L153.37946,509.5743L153.37946,510.29438L152.65937,510.29438L152.65937,511.01445L151.21919,511.01445
				L151.21919,511.73453L150.4991,511.73453L150.4991,512.45461L149.05892,512.45461L149.05892,513.17468L148.33883,513.17468L148.33883,513.89476
				L146.65861,513.89476L146.65861,514.61484L145.93852,514.61484L145.93852,515.33492L144.49834,515.33492L144.49834,516.05499
				L143.77825,516.05499L143.77825,516.77507L142.33806,516.77507L142.33806,517.49515L141.61797,517.49515L141.61797,518.21522
				L140.17779,518.21522L140.17779,518.9353L139.4577,518.9353L139.4577,519.65538L138.01752,519.65538L138.01752,520.37545L137.29742,520.37545
				L137.29742,521.09553L135.85724,521.09553L135.85724,521.81561L92.1717,521.81561L92.1717,521.09553L85.69087,521.09553L85.69087,520.37545
				L84.97078,520.37545L84.97078,519.65538L84.25069,519.65538L84.25069,518.21522L83.5306,518.21522L83.5306,516.77507L82.81051,516.77507
				L82.81051,515.33492L82.09042,515.33492L82.09042,508.85422L83.5306,508.85422L83.5306,508.13415L84.97078,508.13415L84.97078,507.41407
				L86.41097,507.41407L86.41097,506.69399L87.85115,506.69399L87.85115,507.41407L90.73151,507.41407L90.73151,508.13415L93.61188,508.13415
				L93.61188,507.41407L94.33197,507.41407L94.33197,506.69399L95.77215,506.69399L95.77215,505.97392L96.49225,505.97392L96.49225,505.25384
				L97.93243,505.25384L97.93243,504.53376L98.65252,504.53376L98.65252,503.81369L99.37261,503.81369L99.37261,503.09361L101.05282,503.09361
				L101.05282,502.13351L102.49301,502.13351L102.49301,501.41343L104.65328,501.41343L104.65328,500.69335L106.81356,500.69335
				L106.81356,499.97328L108.97383,499.97328L108.97383,499.2532L110.41401,499.2532L110.41401,498.53312L111.1341,498.53312L111.1341,497.81305
				L111.8542,497.81305L111.8542,497.09297L112.57429,497.09297L112.57429,496.37289L113.29438,496.37289L113.29438,495.65282L114.01447,495.65282
				L114.01447,494.93274L115.45465,494.93274L115.45465,494.21266L116.17474,494.21266L116.17474,493.49259L116.89483,493.49259
				L116.89483,492.77251L118.33502,492.77251L118.33502,492.05243L119.05511,492.05243L119.05511,491.33236L119.7752,491.33236L
				119.7752,490.61228L121.93547,490.61228L121.93547,489.8922L123.37566,489.8922L123.37566,489.17213L125.05587,489.17213L125.05587,488.45205
				L127.21614,488.45205L127.21614,487.73197L127.93624,487.73197L127.93624,487.0119L127.21614,487.0119L127.21614,485.57174L125.77596,485.57174
				L125.77596,484.85167L125.05587,484.85167L125.05587,484.13159L124.33578,484.13159L124.33578,483.41151L123.37566,483.41151
				L123.37566,482.69144L122.65557,482.69144L122.65557,481.97136L121.93547,481.97136L121.93547,481.25128L121.21538,481.25128
				L121.21538,480.53121L120.49529,480.53121L120.49529,479.81113L119.7752,479.81113L119.7752,479.09105L119.05511,479.09105L119.05511,478.13095
				L118.33502,478.13095L118.33502,477.41087L117.61493,477.41087L117.61493,476.6908L116.89483,476.6908L116.89483,475.97072L115.45465,475.97072
				L115.45465,475.25064L114.73456,475.25064L114.73456,474.53057L114.01447,474.53057L114.01447,473.81049L113.29438,473.81049
				L113.29438,473.09041L112.57429,473.09041L112.57429,472.37034L111.8542,472.37034L111.8542,471.65026L111.1341,471.65026L111.1341,470.93018
				L110.41401,470.93018L110.41401,470.21011L109.69392,470.21011L109.69392,469.49003L73.20929,469.49003L73.20929,470.21011L65.28829,470.21011
				L65.28829,470.93018L47.76606,470.93018L47.76606,471.65026L44.8857,471.65026L44.8857,472.37034L42.00533,472.37034L42.00533,473.09041
				L39.84506,473.09041L39.84506,473.81049L39.12497,473.81049L39.12497,474.53057L36.96469,474.53057L36.96469,473.81049L36.2446,473.81049
				L36.2446,474.53057L33.36423,474.53057L33.36423,475.25064L31.20396,475.25064L31.20396,475.97072L29.76378,475.97072L29.76378,476.6908
				L21.60274,476.6908L21.60274,477.41087L19.44247,477.41087L19.44247,478.13095L18.00229,478.13095L18.00229,479.09105L16.5621,479.09105
				L16.5621,479.81113L14.40183,479.81113L14.40183,480.53121L12.96165,480.53121L12.96165,481.25128L11.52146,481.25128L11.52146,481.97136
				L10.08128,481.97136L10.08128,482.69144L7.92101,482.69144L7.92101,483.41151L6.48082,483.41151L6.48082,484.13159L5.04064,484.13159
				L5.04064,484.85167L1.92024,484.85167L1.92024,485.57174L-1.68021,485.57174L-1.68021,486.29182L-2.40031,486.29182L-2.40031,487.0119
				L-3.84049,487.0119L-3.84049,487.73197L-5.28067,487.73197L-5.28067,488.45205L-6.00076,488.45205L-6.00076,489.17213L-6.24079,489.17213
				M-6.24079,353.7977L-4.56058,353.7977L-4.56058,353.07762L-2.40031,353.07762L-2.40031,352.35755L0.48006,352.35755L0.48006,351.63747
				L3.36043,351.63747L3.36043,350.91739L6.48082,350.91739L6.48082,350.19732L8.6411,350.19732L8.6411,349.47724L11.52146,349.47724
				L11.52146,348.75716L14.40183,348.75716L14.40183,348.03709L16.5621,348.03709L16.5621,347.31701L19.44247,347.31701L19.44247,346.59693
				L22.32283,346.59693L22.32283,345.87686L25.2032,345.87686L25.2032,345.15678L27.36347,345.15678L27.36347,344.4367L30.48387,344.4367
				L30.48387,343.71663L33.36423,343.71663L33.36423,342.99655L35.52451,342.99655L35.52451,342.27647L38.40487,342.27647L38.40487,341.5564
				L41.28524,341.5564L41.28524,340.83632L44.16561,340.83632L44.16561,340.11624L46.32588,340.11624L46.32588,339.39617L49.20624,339.39617
				L49.20624,338.67609L52.32664,338.67609L52.32664,337.95601L54.48692,337.95601L54.48692,337.23594L57.36728,337.23594L57.36728,336.51586
				L60.24765,336.51586L60.24765,335.79578L63.12801,335.79578L63.12801,334.83568L65.28829,334.83568L65.28829,334.1156L68.16865,334.1156
				L68.16865,333.39553L71.04902,333.39553L71.04902,332.67545L73.20929,332.67545L73.20929,331.95537L76.32969,331.95537L76.32969,331.2353
				L79.21005,331.2353L79.21005,330.51522L82.09042,330.51522L82.09042,329.79514L87.85115,329.79514L87.85115,329.07507L95.77215,329.07507
				L95.77215,328.35499L103.93319,328.35499L103.93319,327.63491L111.8542,327.63491L111.8542,326.91484L119.7752,326.91484L119.7752,326.19476
				L127.93624,326.19476L127.93624,326.91484L130.09651,326.91484L130.09651,327.63491L131.53669,327.63491L131.53669,328.35499
				L133.69697,328.35499L133.69697,329.07507L135.13715,329.07507L135.13715,329.79514L137.29742,329.79514L137.29742,330.51522
				L138.73761,330.51522L138.73761,331.2353L140.89788,331.2353L140.89788,331.95537L143.05815,331.95537L143.05815,332.67545L144.49834,332.67545
				L144.49834,333.39553L146.65861,333.39553L146.65861,334.1156L148.33883,334.1156L148.33883,334.83568L150.4991,334.83568L150.4991,335.79578
				L151.93928,335.79578L151.93928,336.51586L154.09956,336.51586L154.09956,337.23594L155.53974,337.23594L155.53974,337.95601
				L157.70001,337.95601L157.70001,338.67609L159.1402,338.67609L159.1402,339.39617L161.30047,339.39617L161.30047,340.11624L163.46074,340.11624
				L163.46074,340.83632L164.90093,340.83632L164.90093,341.5564L167.0612,341.5564L167.0612,342.27647L168.50138,342.27647L168.50138,342.99655
				L170.66166,342.99655L170.66166,343.71663L172.34187,343.71663L172.34187,344.4367L174.50215,344.4367L174.50215,345.15678L175.94233,345.15678
				L175.94233,345.87686L178.1026,345.87686L178.1026,346.59693L180.26288,346.59693L180.26288,347.31701L181.70306,347.31701L181.70306,348.03709
				L183.86333,348.03709L183.86333,348.75716L185.30352,348.75716L185.30352,349.47724L187.46379,349.47724L187.46379,350.19732
				L188.90397,350.19732L188.90397,350.91739L191.06425,350.91739L191.06425,351.63747L192.50443,351.63747L192.50443,352.35755
				L194.6647,352.35755L194.6647,353.07762L196.34492,353.07762L196.34492,353.7977L197.7851,353.7977L197.7851,354.51778L199.94537,354.51778
				L199.94537,355.23785L201.38556,355.23785L201.38556,355.95793L202.82574,355.95793L202.82574,356.67801L204.26592,356.67801
				L204.26592,357.39809L206.4262,357.39809L206.4262,358.11816L207.86638,358.11816L207.86638,359.07826L209.30656,359.07826L209.30656,359.79834
				L210.74674,359.79834L210.74674,360.51842L212.90702,360.51842L212.90702,361.23849L214.3472,361.23849L214.3472,361.95857L215.78738,361.95857
				L215.78738,362.67865L217.94766,362.67865L217.94766,363.39872L219.62787,363.39872L219.62787,364.1188L221.06805,364.1188L221.06805,364.83888
				L222.50824,364.83888L222.50824,365.55895L224.66851,365.55895L224.66851,366.27903L226.10869,366.27903L226.10869,366.99911
				L227.54888,366.99911L227.54888,367.71918L228.98906,367.71918L228.98906,368.43926L231.14933,368.43926L231.14933,369.15934
				L232.58952,369.15934L232.58952,369.87942L234.0297,369.87942L234.0297,370.59949L235.46988,370.59949L235.46988,371.31957L237.63016,371.31957
				L237.63016,372.03965L239.07034,372.03965L239.07034,372.75972L240.51052,372.75972L240.51052,373.4798L241.9507,373.4798L241.9507,374.19988
				L244.35101,374.19988L244.35101,374.91995L245.79119,374.91995L245.79119,375.64003L247.23137,375.64003L247.23137,376.36011
				L248.67156,376.36011L248.67156,377.08018L250.83183,377.08018L250.83183,377.80026L252.27201,377.80026L252.27201,378.52034
				L253.7122,378.52034L253.7122,379.24041L255.87247,379.24041L255.87247,379.96049L257.31265,379.96049L257.31265,380.68057"/>
			<path clip-path="url(#SVG_CP_2)" fill="none" stroke="#999999" stroke-width="0.96012" stroke-miterlimit="10" stroke-linecap="round" stroke-linejoin="round" d="
				M275.55497,635.3477L275.55497,634.62763L276.27506,634.62763L276.27506,633.90755L276.99515,633.90755L276.99515,633.18747L
				277.71524,633.18747L277.71524,632.4674L278.43533,632.4674L278.43533,631.74732L279.15543,631.74732L279.15543,631.02724L280.59561,631.02724
				L280.59561,630.30717L281.3157,630.30717L281.3157,629.58709L282.03579,629.58709L282.03579,628.86701L282.75588,628.86701L282.75588,628.14694
				L283.47597,628.14694L283.47597,627.42686L284.19607,627.42686L284.19607,626.70678L285.63625,626.70678L285.63625,625.98671
				L287.07643,625.98671L287.07643,625.26663L288.51661,625.26663L288.51661,624.54655L289.23671,624.54655L289.23671,623.82648
				L290.67689,623.82648L290.67689,623.1064L292.3571,623.1064L292.3571,622.1463L293.79728,622.1463L293.79728,621.42622L295.23747,621.42622
				L295.23747,620.70614L296.67765,620.70614L296.67765,619.98607L297.39774,619.98607L297.39774,619.26599L298.83792,619.26599
				L298.83792,618.54591L300.27811,618.54591L300.27811,617.82584L301.71829,617.82584L301.71829,617.10576L303.15847,617.10576
				L303.15847,616.38568L304.59865,616.38568L304.59865,617.82584L305.31875,617.82584L305.31875,619.26599L306.03884,619.26599
				L306.03884,620.70614L306.75893,620.70614L306.75893,622.1463L306.03884,622.1463L306.03884,621.42622L304.59865,621.42622L304.59865,620.70614
				L303.15847,620.70614L303.15847,619.98607L302.43838,619.98607L302.43838,620.70614L300.9982,620.70614L300.9982,621.42622L299.55802,621.42622
				L299.55802,622.1463L298.11783,622.1463L298.11783,623.1064L296.67765,623.1064L296.67765,623.82648L295.95756,623.82648L295.95756,624.54655
				L294.51738,624.54655L294.51738,625.26663L293.07719,625.26663L293.07719,625.98671L291.63701,625.98671L291.63701,626.70678
				L289.9568,626.70678L289.9568,627.42686L287.79652,627.42686L287.79652,628.14694L287.07643,628.14694L287.07643,628.86701L285.63625,628.86701
				L285.63625,629.58709L284.19607,629.58709L284.19607,630.30717L283.47597,630.30717L283.47597,631.02724L282.75588,631.02724
				L282.75588,631.74732L281.3157,631.74732L281.3157,632.4674L279.87552,632.4674L279.87552,633.18747L279.15543,633.18747L279.15543,633.90755
				L277.71524,633.90755L277.71524,634.62763L276.99515,634.62763L276.99515,635.3477L275.55497,635.3477"/>
			<path clip-path="url(#SVG_CP_2)" fill="none" stroke="#999999" stroke-width="0.96012" stroke-miterlimit="10" stroke-linecap="round" stroke-linejoin="round" d="
				M274.83488,636.06778L274.83488,635.3477L275.55497,635.3477L275.55497,636.06778L274.83488,636.06778"/>
			<path clip-path="url(#SVG_CP_2)" fill="none" stroke="#999999" stroke-width="0.96012" stroke-miterlimit="10" stroke-linecap="round" stroke-linejoin="round" d="
				M271.95451,638.22801L271.95451,637.50793L272.6746,637.50793L272.6746,636.78786L273.3947,636.78786L273.3947,636.06778L274.83488,636.06778
				L274.83488,636.78786L274.11479,636.78786L274.11479,637.50793L273.3947,637.50793L273.3947,638.22801L271.95451,638.22801"/>
			<path clip-path="url(#SVG_CP_2)" fill="none" stroke="#999999" stroke-width="0.96012" stroke-miterlimit="10" stroke-linecap="round" stroke-linejoin="round" d="
				M271.23442,638.94809L271.23442,638.22801L271.95451,638.22801L271.95451,638.94809L271.23442,638.94809"/>
			<path clip-path="url(#SVG_CP_2)" fill="none" stroke="#999999" stroke-width="0.96012" stroke-miterlimit="10" stroke-linecap="round" stroke-linejoin="round" d="
				M270.51433,639.66816L270.51433,638.94809L271.23442,638.94809L271.23442,639.66816L270.51433,639.66816"/>
			<path clip-path="url(#SVG_CP_2)" fill="none" stroke="#999999" stroke-width="0.96012" stroke-miterlimit="10" stroke-linecap="round" stroke-linejoin="round" d="
				M269.79424,640.38824L269.79424,639.66816L270.51433,639.66816L270.51433,640.38824L269.79424,640.38824"/>
			<path clip-path="url(#SVG_CP_2)" fill="none" stroke="#999999" stroke-width="0.96012" stroke-miterlimit="10" stroke-linecap="round" stroke-linejoin="round" d="
				M269.79424,640.38824L269.79424,641.10832L269.07415,641.10832L269.07415,640.38824L269.79424,640.38824"/>
			<path clip-path="url(#SVG_CP_2)" fill="none" stroke="#999999" stroke-width="0.96012" stroke-miterlimit="10" stroke-linecap="round" stroke-linejoin="round" d="
				M268.35406,641.82839L267.63396,641.82839L267.63396,641.10832L268.35406,641.10832L268.35406,641.82839"/>
		</g>
</g></svg>