<?xml version="1.0" encoding="utf-8" standalone="no"?>
<!-- Creator: ESRI ArcMap 10.0.0.2414 -->
<!DOCTYPE svg PUBLIC "-//W3C//DTD SVG 1.1//EN"  "http://www.w3.org/Graphics/SVG/1.1/DTD/svg11.dtd">
<svg width="595.50236pt" height="595.50236pt" viewBox="25 148.377955 545.50236 545.50236" enable-background="new 25 148.377955 545.50236 545.50236"
	version="1.1" xmlns="http://www.w3.org/2000/svg" xmlns:xlink="http://www.w3.org/1999/xlink" >
	<g id="Couches">
		<g id="reservoirs">
			<clipPath id="SVG_CP_2">
				<path d="M574.39289,21.36228L21.36271,21.36228L21.36271,821.36753L574.39289,821.36753L574.39289,21.36228z"/>
			</clipPath>
			<path clip-path="url(#SVG_CP_2)" fill-opacity="0.08" fill="#2f4493" fill-rule="evenodd" stroke="#2f4493" stroke-width="1" stra="1.44018" stroke-miterlimit="10" stroke-linecap="round" stroke-linejoin="round" d="
				M-6.24079,-4.56049L-0.24003,4.56049L8.16104,16.08171L25.44323,36.72391L47.76606,55.44591L72.4892,83.04885L84.49072,95.77021
				L98.65252,114.73223L119.05511,142.09514L143.29819,181.45934L181.46303,205.70192L221.06805,224.66394L239.5504,228.74438L274.11479,264.98824
				L288.27658,250.5867L346.84402,342.75652L439.49577,505.73389L470.21967,556.13926L510.78482,625.50666L601.9964,782.00333L601.9964,861.21177
				L-6.24079,861.21177L-6.24079,-4.56049z"/>
			<path clip-path="url(#SVG_CP_2)" fill-opacity="0.08" fill="#2f4493" fill-rule="evenodd" stroke="#2f4493" stroke-width="1" stra="1.44018" stroke-miterlimit="10" stroke-linecap="round" stroke-linejoin="round" d="
				M601.9964,300.51202L590.47493,299.55192L541.98878,301.2321L517.7457,309.87302L495.42287,320.19412L478.14068,337.47596L419.33322,398.92251
				L396.77035,417.88453L379.48816,386.68121L396.29029,376.36011L463.49882,302.1922L517.7457,280.34987L573.19274,262.34796L601.9964,264.74821
				L601.9964,300.51202z"/>
		</g>
</g></svg>