<?xml version="1.0" encoding="utf-8" standalone="no"?>
<!-- Creator: ESRI ArcMap 10.0.0.2414 -->
<!DOCTYPE svg PUBLIC "-//W3C//DTD SVG 1.1//EN"  "http://www.w3.org/Graphics/SVG/1.1/DTD/svg11.dtd">
<svg width="595.50236pt" height="595.50236pt" viewBox="25 148.377955 545.50236 545.50236" enable-background="new 25 148.377955 545.50236 545.50236"
	version="1.1" xmlns="http://www.w3.org/2000/svg" xmlns:xlink="http://www.w3.org/1999/xlink" >
	<g id="Couches">
		<g id="reservoirs">
			<path clip-path="url(#SVG_CP_2)" fill-opacity="0.2" fill="#07866D" fill-rule="evenodd" stroke="none" stroke-width="" stra="1.44018" stroke-miterlimit="10" stroke-linecap="round" stroke-linejoin="round" d="
				M-6.24079,159.13696L0.96012,164.1775L11.28143,180.97929L31.20396,202.10154L66.48844,234.50499L75.36957,222.98376L88.09118,223.94386
				L89.77139,223.94386L101.29285,232.82481L130.8166,254.66714L148.09879,270.02877L195.62483,324.99463L240.27049,380.44054L258.99287,405.64323
				L282.51585,438.52673L321.64082,500.93338L365.08633,573.90116L394.85011,630.30717L429.89456,695.83415L457.73809,716.71637
				L472.13992,730.63786L475.9804,736.87852L487.26184,758.72085L496.62302,808.8862L511.02485,845.61011L522.54631,861.21177L454.61769,861.21177
				L462.29867,845.85014L474.78025,855.93121L469.97964,848.01037L453.8976,823.76778L419.57325,815.60691L408.05178,790.40423L
				410.45209,768.80192L408.29181,751.04003L403.73124,741.43901L269.55421,566.46036L211.9469,611.8252L199.94537,619.02596L192.50443,619.98607
				L181.223,619.50602L183.6233,612.54527L197.7851,576.30141L218.90778,526.37609L240.75055,534.77699L294.51738,530.2165L282.99591,485.33172
				L265.95375,459.16893L223.70839,406.60333L192.02437,372.75972L178.82269,356.19796L153.85953,376.60013L167.30123,392.92187
				L147.3787,409.00358L85.93091,339.63619L56.16713,306.51266L40.08509,321.63427L33.1242,316.35371L8.6411,297.15167L21.36271,281.06995
				L34.08433,266.66842L48.72618,251.78683L39.365,240.98568L-1.68021,211.22251L-6.24079,217.94322L-6.24079,159.13696zM-6.24079,853.53095
				L-3.60046,855.45116L-2.88037,861.21177L-6.24079,861.21177L-6.24079,853.53095z"/>
			<path clip-path="url(#SVG_CP_2)" fill-opacity="0.2" fill="#07866D" fill-rule="evenodd" stroke="none" stroke-width="" stra="1.44018" stroke-miterlimit="10" stroke-linecap="round" stroke-linejoin="round" d="
				M601.9964,525.17596L601.2763,525.41599L590.47493,526.37609L529.5072,532.13671L489.90217,438.52673L365.56639,436.84655L280.83564,319.71407
				L314.19987,258.74757L318.76045,244.82609L288.51661,248.90652L259.47293,252.98696L215.54735,233.30486L191.78434,220.82353
				L207.86638,185.7798L203.06577,162.97737L204.98601,147.3757L222.02818,143.29527L233.30961,135.37443L254.67232,119.05269L255.63244,91.20972
				L250.83183,42.96458L243.63092,12.2413L217.70763,20.16215L219.14781,18.00192L211.22681,11.52123L209.78662,12.00128L208.58647,9.60102
				L198.26516,2.64028L189.144,-2.64028L177.38251,-9.84105L166.34111,-16.32174L162.50062,-18.722L601.9964,-18.722L601.9964,525.17596
				z"/>
		</g>
</g></svg>