<?xml version="1.0" encoding="utf-8" standalone="no"?>
<!-- Creator: ESRI ArcMap 10.0.0.2414 -->
<!DOCTYPE svg PUBLIC "-//W3C//DTD SVG 1.1//EN"  "http://www.w3.org/Graphics/SVG/1.1/DTD/svg11.dtd">
<svg width="595.50236pt" height="595.50236pt" viewBox="25 148.377955 545.50236 545.50236" enable-background="new 25 148.377955 545.50236 545.50236"
	version="1.1" xmlns="http://www.w3.org/2000/svg" xmlns:xlink="http://www.w3.org/1999/xlink" >
	<g id="Couches">
		<g id="cont_2">
			<path clip-path="url(#SVG_CP_2)" fill="none" stroke="#999999" stroke-width="0.96012" stroke-miterlimit="10" stroke-linecap="round" stroke-linejoin="round" d="
				M268.59409,502.37353L265.47369,502.37353L265.47369,502.13351L264.99363,502.13351L264.99363,502.37353L264.51357,502.37353
				L264.51357,502.13351L264.27354,502.13351L264.27354,502.37353L260.67308,502.37353L260.67308,502.13351L259.95299,502.13351
				L259.95299,501.65346L259.47293,501.65346L259.47293,501.41343L258.51281,501.41343L258.51281,501.17341L258.03275,501.17341
				L258.03275,500.93338L257.07262,500.93338L257.07262,500.69335L256.59256,500.69335L256.59256,500.2133L255.87247,500.2133L255.87247,499.97328
				L255.15238,499.97328L255.15238,499.73325L254.67232,499.73325L254.67232,499.49323L253.7122,499.49323L253.7122,499.2532L253.23214,499.2532
				L253.23214,499.01318L252.75208,499.01318L252.75208,498.53312L252.03198,498.53312L252.03198,498.2931L251.79195,498.2931L251.79195,498.05307
				L251.55192,498.05307L251.55192,497.57302L251.31189,497.57302L251.31189,497.09297L250.83183,497.09297L250.83183,496.37289
				L250.5918,496.37289L250.5918,496.13287L250.35177,496.13287L250.35177,495.41279L250.11174,495.41279L250.11174,494.93274L249.87171,494.93274
				L249.87171,494.45269L249.63168,494.45269L249.63168,493.97264L249.15162,493.97264L249.15162,493.73261L248.91159,493.73261
				L248.91159,493.25256L248.43153,493.25256L248.43153,493.01254L247.71144,493.01254L247.71144,492.77251L247.23137,492.77251
				L247.23137,492.29246L246.99134,492.29246L246.99134,492.05243L246.75131,492.05243L246.75131,491.81241L246.03122,491.81241
				L246.03122,491.57238L245.31113,491.57238L245.31113,491.33236L244.59104,491.33236L244.59104,490.85231L244.11098,490.85231
				L244.11098,490.61228L243.63092,490.61228L243.63092,490.37225L242.91083,490.37225L242.91083,490.13223L242.43077,490.13223
				L242.43077,489.8922L241.9507,489.8922L241.9507,489.65218L241.23061,489.65218L241.23061,489.17213L240.51052,489.17213L240.51052,488.9321
				L240.27049,488.9321L240.27049,488.69208L239.31037,488.69208L239.31037,488.45205L238.83031,488.45205L238.83031,488.21202L
				238.11022,488.21202L238.11022,487.73197L237.39013,487.73197L237.39013,487.49195L236.18997,487.49195L236.18997,487.25192L
				235.46988,487.25192L235.46988,487.0119L234.74979,487.0119L234.74979,486.77187L234.0297,486.77187L234.0297,486.53185L233.06958,486.53185
				L233.06958,486.05179L232.34949,486.05179L232.34949,485.81177L231.62939,485.81177L231.62939,485.57174L230.9093,485.57174L
				230.9093,485.33172L230.18921,485.33172L230.18921,485.09169L228.509,485.09169L228.509,484.61164L228.02894,484.61164L228.02894,484.37162
				L227.30885,484.37162L227.30885,484.13159L226.82879,484.13159L226.82879,483.89156L225.3886,483.89156L225.3886,483.65154L224.66851,483.65154
				L224.66851,483.41151L222.9883,483.41151L222.9883,483.65154L223.22833,483.65154L223.22833,483.89156L223.46836,483.89156L223.46836,484.37162
				L223.22833,484.37162L223.22833,484.61164L222.26821,484.61164L222.26821,485.09169L222.02818,485.09169L222.02818,484.61164
				L221.06805,484.61164L221.06805,484.37162L220.58799,484.37162L220.58799,484.13159L219.14781,484.13159L219.14781,483.89156
				L217.70763,483.89156L217.70763,483.65154L216.26745,483.65154L216.26745,483.41151L215.54735,483.41151L215.54735,482.93146
				L214.58723,482.93146L214.58723,482.69144L214.3472,482.69144L214.3472,482.45141L213.86714,482.45141L213.86714,481.97136L213.62711,481.97136
				L213.62711,481.25128L213.86714,481.25128L213.86714,481.01126L214.10717,481.01126L214.10717,480.53121L213.86714,480.53121
				L213.86714,479.33108L213.62711,479.33108L213.62711,478.611L213.14705,478.611L213.14705,477.41087L212.90702,477.41087L212.90702,475.73069
				L212.66699,475.73069L212.66699,475.01062L212.90702,475.01062L212.90702,473.57046L212.66699,473.57046L212.66699,473.09041
				L212.42696,473.09041L212.42696,472.37034L212.18693,472.37034L212.18693,466.60972L212.42696,466.60972L212.42696,464.92954
				L212.18693,464.92954L212.18693,463.96944L211.9469,463.96944L211.9469,463.00934L211.46684,463.00934L211.46684,462.04924L211.22681,462.04924
				L211.22681,461.32916L210.98678,461.32916L210.98678,445.7275L210.74674,445.7275L210.74674,444.7674L210.50671,444.7674L210.50671,443.08722
				L210.02665,443.08722L210.02665,442.60717L210.50671,442.60717L210.50671,441.88709L210.02665,441.88709L210.02665,438.52673
				L209.78662,438.52673L209.78662,435.64642L209.54659,435.64642L209.54659,432.04604L209.78662,432.04604L209.78662,430.84591
				L210.02665,430.84591L210.02665,430.12584L210.50671,430.12584L210.50671,428.92571L210.74674,428.92571L210.74674,427.9656L
				210.98678,427.9656L210.98678,427.24553L211.22681,427.24553L211.22681,426.28543L211.46684,426.28543L211.46684,425.56535L211.9469,425.56535
				L211.9469,425.32532L212.18693,425.32532L212.18693,424.60525L212.42696,424.60525L212.42696,424.1252L212.66699,424.1252L212.66699,423.40512
				L212.90702,423.40512L212.90702,422.92507L213.14705,422.92507L213.14705,422.44502L213.62711,422.44502L213.62711,421.72494
				L213.86714,421.72494L213.86714,421.24489L214.10717,421.24489L214.10717,421.00486L214.3472,421.00486L214.3472,420.28479L214.58723,420.28479
				L214.58723,420.04476L215.06729,420.04476L215.06729,419.80474L215.30732,419.80474L215.30732,425.80537L215.06729,425.80537
				L215.06729,426.28543L215.30732,426.28543L215.30732,427.24553L216.02742,427.24553L216.02742,427.48555L222.9883,427.48555L
				222.9883,427.72558L240.27049,427.72558L240.27049,427.48555L240.51052,427.48555L240.51052,427.24553L240.27049,427.24553L240.27049,426.52545
				L239.79043,426.52545L239.79043,425.80537L239.5504,425.80537L239.5504,424.84527L246.99134,424.84527L246.99134,424.60525L254.43229,424.60525
				L254.43229,424.36522L261.6332,424.36522L261.6332,446.6876L269.07415,446.6876L269.07415,446.92763L276.99515,446.92763L276.99515,464.92954
				L276.75512,464.92954L276.75512,465.16957L274.35482,465.16957L274.35482,464.92954L274.11479,464.92954L274.11479,464.68952
				L273.87476,464.68952L273.87476,464.20947L273.63473,464.20947L273.63473,463.96944L273.3947,463.96944L273.3947,463.72942L273.15466,463.72942
				L273.15466,463.48939L272.43457,463.48939L272.43457,463.24936L271.23442,463.24936L271.23442,463.00934L270.99439,463.00934
				L270.99439,463.24936L270.51433,463.24936L270.51433,463.48939L270.03427,463.48939L270.03427,463.72942L269.07415,463.72942
				L269.07415,463.96944L268.83412,463.96944L268.83412,464.20947L268.59409,464.20947L268.59409,464.68952L267.87399,464.68952
				L267.87399,464.92954L267.63396,464.92954L267.63396,465.16957L263.31342,465.16957L263.31342,465.40959L262.83335,465.40959
				L262.83335,465.64962L262.59332,465.64962L262.59332,466.12967L262.11326,466.12967L262.11326,466.3697L261.6332,466.3697L261.6332,466.60972
				L261.15314,466.60972L261.15314,466.84975L260.67308,466.84975L260.67308,467.08977L260.19302,467.08977L260.19302,467.3298L
				259.71296,467.3298L259.71296,467.80985L259.2329,467.80985L259.2329,468.04988L258.99287,468.04988L258.99287,468.2899L258.27278,468.2899
				L258.27278,468.52993L258.03275,468.52993L258.03275,468.76995L257.55268,468.76995L257.55268,469.25L256.83259,469.25L256.83259,469.49003
				L256.59256,469.49003L256.59256,469.73006L256.1125,469.73006L256.1125,469.97008L255.39241,469.97008L255.39241,470.21011L255.15238,470.21011
				L255.15238,470.45013L254.67232,470.45013L254.67232,470.93018L253.95223,470.93018L253.95223,471.17021L253.7122,471.17021L
				253.7122,471.41023L252.75208,471.41023L252.75208,471.65026L251.31189,471.65026L251.31189,471.89029L249.63168,471.89029L249.63168,472.37034
				L248.1915,472.37034L248.1915,472.61036L246.75131,472.61036L246.75131,472.85039L245.31113,472.85039L245.31113,473.09041L244.59104,473.09041
				L244.59104,473.33044L244.11098,473.33044L244.11098,473.57046L243.87095,473.57046L243.87095,474.05052L243.39089,474.05052
				L243.39089,474.29054L242.91083,474.29054L242.91083,474.53057L242.6708,474.53057L242.6708,474.77059L242.19074,474.77059L242.19074,475.01062
				L241.9507,475.01062L241.9507,475.49067L239.79043,475.49067L239.79043,475.73069L237.63016,475.73069L237.63016,475.97072L236.67003,475.97072
				L236.67003,476.21075L236.18997,476.21075L236.18997,476.45077L235.70991,476.45077L235.70991,476.6908L234.98982,476.6908L234.98982,477.41087
				L235.46988,477.41087L235.46988,478.85103L237.63016,478.85103L237.63016,479.09105L239.79043,479.09105L239.79043,479.33108
				L242.19074,479.33108L242.19074,479.5711L242.6708,479.5711L242.6708,479.33108L243.87095,479.33108L243.87095,479.09105L245.0711,479.09105
				L245.0711,478.85103L246.03122,478.85103L246.03122,478.611L247.47141,478.611L247.47141,478.13095L248.91159,478.13095L248.91159,477.89092
				L250.35177,477.89092L250.35177,477.6509L251.79195,477.6509L251.79195,477.41087L253.23214,477.41087L253.23214,477.17085L254.91235,477.17085
				L254.91235,476.6908L256.59256,476.6908L256.59256,476.45077L258.27278,476.45077L258.27278,476.21075L266.19378,476.21075L266.19378,476.45077
				L267.39393,476.45077L267.39393,476.6908L268.83412,476.6908L268.83412,477.17085L270.03427,477.17085L270.03427,477.41087L271.95451,477.41087
				L271.95451,477.17085L273.15466,477.17085L273.15466,476.6908L273.63473,476.6908L273.63473,476.45077L273.87476,476.45077L273.87476,476.21075
				L274.11479,476.21075L274.11479,475.97072L274.35482,475.97072L274.35482,475.73069L274.83488,475.73069L274.83488,475.49067
				L275.07491,475.49067L275.07491,475.01062L275.31494,475.01062L275.31494,474.53057L275.55497,474.53057L275.55497,474.29054
				L275.795,474.29054L275.795,474.05052L276.27506,474.05052L276.27506,473.57046L276.51509,473.57046L276.51509,473.33044L276.75512,473.33044
				L276.75512,472.85039L276.99515,472.85039L276.99515,472.37034L277.23518,472.37034L277.23518,471.89029L278.1953,471.89029L
				278.1953,471.65026L278.9154,471.65026L278.9154,471.41023L279.87552,471.41023L279.87552,471.17021L280.59561,471.17021L280.59561,470.93018
				L281.55573,470.93018L281.55573,470.21011L281.3157,470.21011L281.3157,468.76995L281.07567,468.76995L281.07567,467.3298L280.59561,467.3298
				L280.59561,466.84975L280.35558,466.84975L280.35558,466.60972L280.11555,466.60972L280.11555,466.3697L279.87552,466.3697L279.87552,466.12967
				L279.63549,466.12967L279.63549,465.40959L279.39546,465.40959L279.39546,465.16957L278.67537,465.16957L278.67537,464.92954
				L277.23518,464.92954L277.23518,446.92763L292.3571,446.92763L292.3571,447.40768L300.9982,447.40768L300.9982,447.6477L304.11859,447.6477
				L304.11859,447.88773L304.59865,447.88773L304.59865,449.32788L304.83869,449.32788L304.83869,450.52801L305.31875,450.52801
				L305.31875,450.76803L306.27887,450.76803L306.27887,451.00806L306.99896,451.00806L306.99896,451.24809L307.95908,451.24809
				L307.95908,451.48811L308.67917,451.48811L308.67917,451.96816L309.63929,451.96816L309.63929,452.20819L310.35939,452.20819
				L310.35939,452.44821L311.31951,452.44821L311.31951,452.68824L312.0396,452.68824L312.0396,452.92826L312.51966,452.92826L312.51966,453.16829
				L312.99972,453.16829L312.99972,453.64834L313.47978,453.64834L313.47978,453.88837L314.19987,453.88837L314.19987,454.12839
				L314.67993,454.12839L314.67993,454.36842L315.16,454.36842L315.16,454.60844L315.88009,454.60844L315.88009,455.0885L316.36015,455.0885
				L316.36015,455.32852L317.08024,455.32852L317.08024,455.56855L317.5603,455.56855L317.5603,455.80857L317.80033,455.80857L317.80033,456.0486
				L318.28039,456.0486L318.28039,456.28862L319.00048,456.28862L319.00048,456.76867L319.48054,456.76867L319.48054,457.0087L320.20063,457.0087
				L320.20063,457.24873L320.44067,457.24873L320.44067,457.48875L320.92073,457.48875L320.92073,457.72878L321.16076,457.72878
				L321.16076,458.20883L321.40079,458.20883L321.40079,458.44885L322.12088,458.44885L322.12088,458.68888L322.36091,458.68888
				L322.36091,458.9289L322.60094,458.9289L322.60094,459.16893L323.32103,459.16893L323.32103,459.40896L323.56106,459.40896L323.56106,459.88901
				L323.80109,459.88901L323.80109,460.12903L324.28115,460.12903L324.28115,460.36906L324.52118,460.36906L324.52118,460.60908
				L325.00124,460.60908L325.00124,460.84911L325.48131,460.84911L325.48131,461.32916L325.72134,461.32916L325.72134,461.56919
				L325.96137,461.56919L325.96137,461.80921L326.68146,461.80921L326.68146,462.04924L326.92149,462.04924L326.92149,462.28926
				L327.16152,462.28926L327.16152,462.52929L327.64158,462.52929L327.64158,463.00934L328.12164,463.00934L328.12164,463.24936
				L328.6017,463.24936L328.6017,463.48939L328.84173,463.48939L328.84173,463.72942L329.08176,463.72942L329.08176,463.96944L329.80185,463.96944
				L329.80185,464.20947L330.04188,464.20947L330.04188,464.68952L330.28191,464.68952L330.28191,464.92954L330.76198,464.92954
				L330.76198,465.16957L331.24204,465.16957L331.24204,465.40959L331.48207,465.40959L331.48207,465.64962L331.96213,465.64962
				L331.96213,466.12967L332.20216,466.12967L332.20216,466.3697L332.44219,466.3697L332.44219,466.60972L333.16228,466.60972L333.16228,466.84975
				L333.40231,466.84975L333.40231,467.08977L333.64234,467.08977L333.64234,467.3298L334.36243,467.3298L334.36243,467.80985L334.60246,467.80985
				L334.60246,468.76995L334.36243,468.76995L334.36243,469.73006L333.88237,469.73006L333.88237,470.93018L333.64234,470.93018
				L333.64234,471.89029L333.40231,471.89029L333.40231,472.85039L333.16228,472.85039L333.16228,474.05052L332.92225,474.05052
				L332.92225,475.01062L332.44219,475.01062L332.44219,475.97072L332.20216,475.97072L332.20216,477.17085L331.96213,477.17085
				L331.96213,478.13095L331.7221,478.13095L331.7221,479.09105L331.48207,479.09105L331.48207,480.29118L331.24204,480.29118L331.24204,480.77123
				L331.48207,480.77123L331.48207,481.01126L331.7221,481.01126L331.7221,481.25128L332.20216,481.25128L332.20216,481.73133L332.44219,481.73133
				L332.44219,481.97136L332.92225,481.97136L332.92225,482.21139L333.40231,482.21139L333.40231,482.45141L333.88237,482.45141
				L333.88237,482.69144L334.84249,482.69144L334.84249,482.93146L335.32255,482.93146L335.32255,483.41151L336.28268,483.41151
				L336.28268,483.65154L336.76274,483.65154L336.76274,483.89156L337.72286,483.89156L337.72286,484.13159L338.20292,484.13159
				L338.20292,484.37162L339.16304,484.37162L339.16304,484.61164L339.88313,484.61164L339.88313,485.09169L340.84325,485.09169
				L340.84325,485.33172L341.56335,485.33172L341.56335,485.57174L342.28344,485.57174L342.28344,485.81177L342.7635,485.81177L
				342.7635,486.05179L343.00353,486.05179L343.00353,486.53185L343.72362,486.53185L343.72362,486.77187L343.96365,486.77187L343.96365,487.0119
				L344.44371,487.0119L344.44371,487.25192L344.92377,487.25192L344.92377,487.49195L345.40383,487.49195L345.40383,487.73197L
				345.88389,487.73197L345.88389,488.21202L346.12392,488.21202L346.12392,488.45205L346.36396,488.45205L346.36396,488.69208L
				347.08405,488.69208L347.08405,488.9321L347.32408,488.9321L347.32408,489.17213L347.56411,489.17213L347.56411,489.65218L348.04417,489.65218
				L348.04417,489.8922L348.52423,489.8922L348.52423,490.13223L348.76426,490.13223L348.76426,490.37225L349.24432,490.37225L349.24432,490.61228
				L349.48435,490.61228L349.48435,490.85231L349.96441,490.85231L349.96441,491.33236L350.20444,491.33236L350.20444,491.57238
				L350.6845,491.57238L350.6845,491.81241L350.92453,491.81241L350.92453,492.05243L351.64463,492.05243L351.64463,492.29246L352.12469,492.29246
				L352.12469,492.77251L352.60475,492.77251L352.60475,493.01254L353.32484,493.01254L353.32484,493.25256L353.8049,493.25256L
				353.8049,493.49259L354.04493,493.49259L354.04493,493.73261L351.88466,493.73261L351.88466,493.49259L350.20444,493.49259L350.20444,493.73261
				L348.76426,493.73261L348.76426,493.49259L345.64386,493.49259L345.64386,493.25256L343.96365,493.25256L343.96365,493.49259
				L342.52347,493.49259L342.52347,493.73261L341.80338,493.73261L341.80338,493.97264L341.08328,493.97264L341.08328,494.45269
				L340.12316,494.45269L340.12316,494.69272L339.40307,494.69272L339.40307,494.93274L338.44295,494.93274L338.44295,495.17277
				L337.96289,495.17277L337.96289,495.41279L337.00277,495.41279L337.00277,495.89284L336.52271,495.89284L336.52271,496.13287
				L335.56258,496.13287L335.56258,496.37289L334.84249,496.37289L334.84249,496.61292L334.36243,496.61292L334.36243,496.85295
				L333.40231,496.85295L333.40231,497.09297L332.92225,497.09297L332.92225,497.57302L331.96213,497.57302L331.96213,497.81305
				L330.76198,497.81305L330.76198,498.05307L330.04188,498.05307L330.04188,498.2931L329.32179,498.2931L329.32179,498.53312L328.6017,498.53312
				L328.6017,499.01318L327.64158,499.01318L327.64158,499.2532L326.92149,499.2532L326.92149,499.49323L325.96137,499.49323L325.96137,499.73325
				L325.24127,499.73325L325.24127,499.97328L324.28115,499.97328L324.28115,500.2133L323.56106,500.2133L323.56106,500.69335L321.88085,500.69335
				L321.88085,500.2133L316.36015,500.2133L316.36015,499.97328L315.64006,499.97328L315.64006,499.73325L314.19987,499.73325L314.19987,499.49323
				L313.95984,499.49323L313.95984,499.73325L313.23975,499.73325L313.23975,499.49323L312.0396,499.49323L312.0396,499.2532L311.07948,499.2532
				L311.07948,499.01318L310.35939,499.01318L310.35939,498.53312L309.87933,498.53312L309.87933,498.2931L308.9192,498.2931L308.9192,498.05307
				L308.43914,498.05307L308.43914,497.81305L307.71905,497.81305L307.71905,497.57302L305.31875,497.57302L305.31875,497.81305
				L301.95832,497.81305L301.95832,497.57302L298.35786,497.57302L298.35786,497.09297L297.15771,497.09297L297.15771,496.85295
				L294.27735,496.85295L294.27735,496.61292L293.79728,496.61292L293.79728,496.37289L293.55725,496.37289L293.55725,496.13287
				L293.07719,496.13287L293.07719,495.89284L292.83716,495.89284L292.83716,495.41279L292.3571,495.41279L292.3571,495.17277L291.63701,495.17277
				L291.63701,494.93274L291.15695,494.93274L291.15695,494.69272L290.91692,494.69272L290.91692,494.45269L290.43686,494.45269
				L290.43686,493.97264L289.71677,493.97264L289.71677,493.73261L288.27658,493.73261L288.27658,493.49259L287.55649,493.49259
				L287.55649,493.25256L286.35634,493.25256L286.35634,493.01254L285.39622,493.01254L285.39622,493.25256L284.91616,493.25256
				L284.91616,493.49259L284.4361,493.49259L284.4361,493.73261L284.19607,493.73261L284.19607,493.97264L283.716,493.97264L283.716,494.45269
				L283.47597,494.45269L283.47597,494.93274L283.23594,494.93274L283.23594,495.41279L282.99591,495.41279L282.99591,495.89284
				L282.75588,495.89284L282.75588,496.37289L282.51585,496.37289L282.51585,496.85295L281.79576,496.85295L281.79576,497.09297
				L281.55573,497.09297L281.55573,497.57302L280.59561,497.57302L280.59561,497.81305L280.11555,497.81305L280.11555,498.05307
				L279.63549,498.05307L279.63549,498.2931L278.67537,498.2931L278.67537,498.53312L278.1953,498.53312L278.1953,499.01318L277.23518,499.01318
				L277.23518,499.2532L276.75512,499.2532L276.75512,499.49323L276.27506,499.49323L276.27506,499.73325L275.31494,499.73325L275.31494,499.97328
				L274.83488,499.97328L274.83488,500.2133L273.87476,500.2133L273.87476,500.69335L273.3947,500.69335L273.3947,500.93338L272.19454,500.93338
				L272.19454,501.17341L271.71448,501.17341L271.71448,501.41343L270.51433,501.41343L270.51433,501.65346L269.31418,501.65346
				L269.31418,502.13351L268.59409,502.13351L268.59409,502.37353"/>
		</g>
</g></svg>