<?xml version="1.0" encoding="utf-8" standalone="no"?>
<!-- Creator: ESRI ArcMap 10.0.0.2414 -->
<!DOCTYPE svg PUBLIC "-//W3C//DTD SVG 1.1//EN"  "http://www.w3.org/Graphics/SVG/1.1/DTD/svg11.dtd">
<svg width="595.50236pt" height="595.50236pt" viewBox="25 148.377955 545.50236 545.50236" enable-background="new 25 148.377955 545.50236 545.50236"
	version="1.1" xmlns="http://www.w3.org/2000/svg" xmlns:xlink="http://www.w3.org/1999/xlink" >
	<g id="Couches">
		<g id="reservoirs">
			<path clip-path="url(#SVG_CP_2)" fill-opacity="0.2" fill="#07866D" fill-rule="evenodd" stroke="none" stroke-width="" stra="1.44018" stroke-miterlimit="10" stroke-linecap="round" stroke-linejoin="round" d="
				M-6.24079,340.35627L44.16561,327.39489L115.93471,317.31381L166.58114,333.39553L207.86638,347.31701L259.2329,365.79898L263.31342,383.08082
				L194.18464,352.59757L126.49605,325.95473L82.57048,330.03517L-6.24079,353.7977L-6.24079,340.35627z"/>
			<path clip-path="url(#SVG_CP_2)" fill-opacity="0.2" fill="#07866D" fill-rule="evenodd" stroke="none" stroke-width="" stra="1.44018" stroke-miterlimit="10" stroke-linecap="round" stroke-linejoin="round" d="
				M601.9964,728.95768L596.95576,728.71765L595.27554,732.79809L601.2763,737.35857L585.91435,762.56126L590.47493,766.64169L588.55469,772.40231
				L587.11451,788.72405L566.95195,776.24272L558.55088,795.92481L557.59076,804.80576L552.31009,823.52776L546.30933,839.12942
				L536.46808,836.24911L533.82774,845.13006L529.98726,843.92993L529.74723,844.65001L518.94586,840.56957L514.86534,818.72724
				L518.94586,818.72724L519.42592,815.84694L511.74494,813.92673L508.38452,837.68927L508.14449,837.68927L511.26488,861.21177
				L332.20216,861.21177L332.44219,860.73172L317.80033,840.8096L312.27963,830.96855L312.27963,825.44796L322.84097,818.48722L
				321.16076,814.88684L312.51966,816.32699L314.91996,806.00589L325.72134,791.84438L325.72134,786.80384L321.88085,770.72213L
				310.59942,723.91714L302.67841,700.15461L298.83792,693.19387L294.75741,687.43325L285.39622,679.51241L282.27582,678.31228L
				286.11631,674.7119L283.23594,669.91139L280.59561,667.51113L278.9154,665.11088L278.9154,665.59093L269.31418,649.50921L297.8778,637.26791
				L297.8778,637.98799L308.19911,631.26727L310.35939,629.82712L308.43914,625.74668L306.99896,622.62635L306.03884,620.22609L
				304.35862,616.14566L284.67613,626.70678L260.43305,647.82903L259.95299,648.06906L259.47293,648.54911L257.07262,646.86893L
				256.83259,646.86893L256.83259,646.62891L254.67232,645.42878L248.67156,642.7885L243.15086,641.10832L238.83031,643.26855L237.87019,646.62891
				L237.1501,646.62891L236.43,648.78914L239.07034,651.42942L239.31037,651.66944L234.98982,656.22993L229.22909,654.30972L222.9883,671.11151
				L221.54812,675.19195L219.8679,680.71254L219.8679,680.95256L220.10793,681.19259L219.14781,684.31292L219.14781,685.27302L218.90778,685.9931
				L217.70763,690.79361L214.10717,703.99502L210.26668,718.63658L207.62635,718.8766L205.70611,721.51689L194.18464,716.9564L191.30428,717.43645
				L189.144,719.59668L187.46379,724.63722L187.22376,724.63722L183.14324,736.87852L180.74294,735.91842L178.1026,741.67903L175.7023,750.55998
				L172.5819,759.2009L170.42163,761.60116L169.94157,763.28134L169.70154,763.52136L169.70154,764.00141L169.94157,764.96152L171.38175,767.84182
				L171.86181,771.44221L170.90169,775.76267L169.46151,778.40295L155.77977,777.68287L155.29971,777.68287L155.05968,777.9229L
				146.41858,777.68287L142.09803,779.8431L138.73761,781.04323L138.25755,781.76331L136.09727,782.24336L135.85724,782.72341L135.13715,782.24336
				L134.65709,782.24336L134.41706,782.24336L125.53593,787.76395L119.7752,792.08441L117.61493,793.76458L114.49453,795.92481L
				111.8542,799.76522L109.45389,803.12558L107.05359,806.72597L104.41325,810.56638L104.17322,810.8064L103.93319,811.28645L101.29285,812.48658
				L100.57276,812.00653L98.17246,812.96663L93.85191,816.80704L91.93167,818.72724L88.33121,814.40678L84.01066,808.64617L81.1303,810.56638
				L76.56972,813.68671L72.96926,816.32699L72.72923,815.60691L68.40868,816.80704L67.92862,817.04707L63.12801,817.28709L59.04749,817.52712
				L59.76759,821.36753L59.76759,821.60755L51.12649,823.04771L43.68554,825.44796L43.92557,826.16804L46.56591,832.4087L46.56591,832.64873
				L47.286,834.32891L47.286,834.56893L48.24612,836.96919L47.76606,837.20921L46.56591,842.24975L51.84658,856.65129L49.44628,858.09144
				L50.88646,860.73172L50.16637,861.21177L-6.24079,861.21177L-6.24079,488.9321L-1.44018,485.81177L3.84049,484.85167L12.96165,480.77123
				L21.84277,476.93082L29.04369,476.6908L29.76378,476.45077L30.00381,476.21075L37.44475,473.81049L36.72466,474.77059L37.44475,474.77059
				L39.60503,474.05052L39.84506,473.33044L48.48615,471.17021L64.56819,470.93018L68.64871,469.97008L109.21386,469.49003L126.49605,485.57174
				L127.93624,487.49195L119.53517,491.33236L117.61493,492.77251L117.3749,492.77251L109.69392,499.49323L101.29285,502.37353L
				92.89179,508.13415L87.13106,506.69399L81.85039,509.33428L81.61036,514.13479L85.21081,520.8555L87.37109,521.33555L101.53289,521.81561
				L120.49529,521.81561L131.53669,521.57558L135.61721,521.81561L168.50138,499.97328L165.62102,496.13287L150.25907,474.05052
				L168.74141,473.57046L167.78129,473.09041L178.58266,471.65026L182.90321,470.93018L203.3058,467.08977L212.18693,465.64962L
				228.98906,462.52929L229.94918,462.28926L230.9093,462.28926L240.75055,462.04924L255.15238,462.28926L258.99287,461.80921L264.03351,461.56919
				L266.19378,461.56919L269.55421,461.32916L276.51509,460.12903L290.67689,458.44885L290.67689,458.68888L291.15695,458.68888
				L298.35786,457.24873L300.9982,471.41023L310.11936,470.93018L312.27963,470.69016L315.40003,463.24936L318.76045,455.32852L
				323.80109,452.92826L326.2014,460.36906L336.52271,457.72878L334.1224,450.28798L334.1224,449.80793L356.44523,441.16701L367.00657,436.12647
				L370.12697,433.96624L373.96746,430.36586L374.44752,429.88581L377.56791,426.0454L377.56791,425.80537L377.80795,425.56535L
				381.4084,422.68504L385.48892,420.28479L386.20901,419.80474L386.9291,419.32468L407.09166,406.84335L414.29258,403.24297L419.09318,401.56279
				L424.13382,399.88261L435.17523,397.00231L437.3355,396.28223L441.17599,395.0821L441.41602,395.0821L441.41602,395.32213L449.81708,393.40192
				L452.45742,392.44182L455.09775,391.24169L457.49806,390.76164L460.61845,390.28159L462.77873,390.04156L502.62378,379.96049
				L502.86382,379.72046L504.78406,379.24041L527.34692,371.07954L528.06701,370.83952L531.42744,369.39936L538.14829,366.75908
				L540.06854,365.55895L543.42896,363.39872L547.02942,360.99847L557.83079,358.59821L560.47113,357.87814L563.59152,356.91803
				L565.99183,355.95793L584.47417,345.63683L595.03551,343.23658L601.9964,341.07635L601.9964,728.95768zM53.76682,804.56574L57.36728,815.12686
				L66.48844,812.96663L62.40792,801.20538L57.84734,802.88556L53.76682,804.56574z"/>
		</g>
</g></svg>