<?xml version="1.0" encoding="utf-8" standalone="no"?>
<!-- Creator: ESRI ArcMap 10.0.0.2414 -->
<!DOCTYPE svg PUBLIC "-//W3C//DTD SVG 1.1//EN"  "http://www.w3.org/Graphics/SVG/1.1/DTD/svg11.dtd">
<svg width="595.50236pt" height="595.50236pt" viewBox="25 148.377955 545.50236 545.50236" enable-background="new 25 148.377955 545.50236 545.50236"
	version="1.1" xmlns="http://www.w3.org/2000/svg" xmlns:xlink="http://www.w3.org/1999/xlink" >
	<g id="Couches">
		<g id="reservoirs">
			<path clip-path="url(#SVG_CP_2)" fill-opacity="0.2" fill="#07866D" fill-rule="evenodd" stroke="none" stroke-width="" stra="1.44018" stroke-miterlimit="10" stroke-linecap="round" stroke-linejoin="round" d="
				M295.23747,466.3697L297.15771,473.81049L311.07948,468.76995L313.71981,479.33108L315.16,479.09105L315.88009,479.09105L315.40003,475.49067
				L327.40155,480.29118L329.80185,476.21075L332.92225,475.49067L332.92225,474.77059L338.44295,473.33044L337.96289,471.65026
				L340.84325,470.93018L342.52347,476.21075L344.68374,475.73069L345.1638,477.41087L346.84402,476.93082L347.80414,482.45141L
				339.6431,483.65154L340.60322,487.49195L336.76274,488.21202L337.72286,491.09233L335.80261,491.33236L335.56258,489.65218L331.24204,490.13223
				L331.24204,492.29246L334.84249,492.77251L334.84249,494.45269L335.80261,494.69272L335.08252,499.2532L339.16304,499.49323L
				339.40307,500.69335L339.16304,501.89348L341.08328,501.89348L343.48359,501.89348L341.08328,504.53376L342.28344,505.97392L
				343.72362,504.53376L343.48359,503.81369L344.92377,503.33364L345.40383,509.81433L346.36396,514.61484L338.68298,517.49515L
				333.16228,518.69527L332.20216,518.9353L329.08176,519.8954L331.00201,522.05563L328.36167,528.05627L326.68146,524.69591L323.56106,526.61612
				L326.44143,532.13671L326.92149,533.09681L327.64158,532.85678L328.84173,535.25704L331.00201,541.4977L333.16228,550.37865L
				329.80185,551.33875L324.52118,553.01893L325.24127,554.45908L325.96137,555.65921L326.92149,556.61931L327.40155,556.85934L
				327.88161,557.33939L328.36167,557.81944L329.08176,558.77954L329.80185,559.2596L330.28191,559.49962L331.00201,559.2596L331.48207,559.01957
				L332.20216,558.77954L333.64234,558.29949L335.56258,558.05947L336.28268,557.81944L337.96289,557.57942L338.44295,557.57942
				L338.92301,557.33939L339.16304,559.01957L339.16304,559.2596L341.32332,559.01957L341.56335,560.2197L343.96365,559.01957L345.88389,558.29949
				L345.40383,556.13926L345.40383,555.89924L345.40383,553.97903L347.32408,553.97903L347.80414,553.97903L348.04417,556.13926
				L348.04417,557.33939L350.6845,556.85934L351.16456,554.45908L354.04493,554.45908L354.76502,554.45908L356.2052,554.45908L358.84554,553.73901
				L359.80566,553.73901L366.76654,554.93914L373.72743,555.89924L377.32788,556.37929L377.80795,556.37929L379.24813,556.85934
				L382.12849,557.57942L382.36852,559.01957L385.96898,559.01957L385.72895,558.29949L387.88922,558.53952L391.96974,559.01957
				L392.92986,559.01957L393.16989,559.2596L389.56944,563.58006L389.08938,564.06011L385.72895,567.66049L383.56868,569.5807L381.88846,571.02085
				L378.76807,573.18108L376.84782,574.14118L377.56791,583.98223L377.32788,587.82264L381.64843,588.54272L380.44828,595.50346
				L379.48816,595.26343L378.04798,595.02341L376.84782,595.02341L377.32788,589.98287L372.28724,589.98287L371.32712,595.02341
				L368.44676,595.26343L364.8463,595.26343L362.446,595.50346L359.80566,595.74348L358.60551,595.98351L356.68526,595.98351L354.52499,595.98351
				L352.84478,596.22353L349.96441,596.46356L348.04417,596.46356L344.20368,596.70359L341.32332,596.70359L340.12316,596.70359
				L339.40307,596.46356L338.44295,596.22353L335.56258,595.02341L332.44219,593.82328L329.08176,592.86318L325.72134,592.1431L
				323.081,591.66305L322.84097,591.42302L322.36091,590.94297L321.40079,589.26279L320.20063,587.34259L319.48054,586.14246L317.5603,583.98223
				L316.36015,582.54208L314.4399,580.38185L312.27963,578.46164L311.31951,577.50154L311.07948,576.78146L309.63929,574.14118L
				308.67917,572.22098L308.19911,571.02085L307.71905,569.82072L307.23899,566.94041L306.99896,565.26024L306.5189,564.06011L308.19911,562.61995
				L309.63929,563.58006L310.35939,562.85998L311.07948,561.41983L311.07948,560.2197L310.83945,559.73965L312.0396,559.2596L311.55954,558.05947
				L313.47978,555.89924L312.27963,554.45908L310.83945,556.37929L309.63929,557.81944L307.95908,559.73965L306.99896,560.93977
				L306.5189,561.1798L306.27887,560.93977L306.03884,560.69975L305.55878,559.97967L305.55878,560.2197L304.83869,563.1L305.79881,563.34003
				L305.55878,565.02021L305.31875,566.22034L304.59865,567.42047L303.3985,569.34067L300.75817,572.70103L295.95756,567.42047L
				296.43762,567.18044L297.39774,566.46036L295.71753,564.06011L293.31722,560.69975L293.07719,560.2197L292.3571,559.2596L291.39698,557.81944
				L291.63701,557.09937L291.15695,556.37929L287.31646,549.8986L288.03655,549.41855L293.55725,545.09809L294.03731,544.85806L
				292.59713,542.21778L290.91692,539.81752L289.71677,538.13734L288.51661,536.93722L288.03655,536.21714L287.31646,535.01701L
				285.39622,532.13671L280.83564,534.77699L274.59485,539.09745L269.31418,529.73645L269.31418,529.49642L272.91463,527.33619L
				274.11479,526.61612L275.795,526.13607L274.11479,522.05563L271.23442,514.85486L270.2743,515.33492L268.59409,516.05499L266.91387,513.89476
				L256.1125,494.21266L259.95299,489.17213L261.6332,487.49195L264.51357,491.33236L268.11402,488.45205L267.63396,486.53185L269.79424,483.41151
				L270.2743,483.17149L270.75436,483.17149L271.71448,483.41151L271.71448,482.69144L271.47445,482.69144L269.55421,482.21139L
				269.55421,481.97136L269.07415,481.73133L268.59409,481.49131L267.87399,481.25128L267.39393,481.01126L267.87399,480.29118L
				269.07415,478.85103L269.31418,478.37098L274.11479,470.69016L277.23518,476.93082L281.79576,474.77059L290.19683,469.73006L
				291.63701,468.52993L295.23747,466.3697zM326.2014,483.17149L325.24127,483.41151L321.16076,490.37225L317.08024,489.41215L313.47978,488.9321
				L313.95984,494.45269L314.67993,494.45269L316.12012,494.45269L316.36015,494.45269L316.84021,497.81305L317.08024,498.77315
				L315.64006,498.53312L315.64006,500.2133L317.80033,500.45333L318.28039,500.45333L320.20063,496.61292L321.64082,496.61292L
				320.92073,494.69272L321.16076,493.01254L321.16076,490.85231L321.64082,490.85231L329.32179,492.05243L329.08176,489.8922L325.96137,489.41215
				L325.72134,488.21202L326.44143,488.21202L326.2014,486.77187L326.2014,483.17149z"/>
			<path clip-path="url(#SVG_CP_2)" fill-opacity="0.2" fill="#07866D" fill-rule="evenodd" stroke="none" stroke-width="" stra="1.44018" stroke-miterlimit="10" stroke-linecap="round" stroke-linejoin="round" d="
				M289.9568,265.70831L290.91692,266.66842L291.39698,265.70831L291.63701,265.22826L298.83792,272.90908L302.43838,276.74949L
				299.55802,279.38977L297.63777,282.51011L296.91768,283.95026L296.43762,284.91036L295.71753,286.11049L295.23747,287.07059L
				293.07719,289.71087L292.59713,290.67097L291.63701,289.9509L289.71677,291.15103L288.99668,291.8711L288.51661,292.11113L288.99668,293.07123
				L286.11631,295.23146L285.87628,295.47149L284.67613,296.67161L282.51585,298.11177L283.23594,299.07187L282.75588,299.3119L
				283.716,300.75205L284.91616,299.79195L285.63625,300.51202L285.87628,300.99207L284.67613,302.1922L285.39622,303.1523L286.35634,303.63236
				L287.55649,303.1523L288.99668,304.59246L287.79652,305.55256L288.27658,306.51266L289.71677,307.95282L290.67689,309.39297L
				291.87704,308.43287L293.07719,310.35307L292.59713,311.31317L290.19683,315.39361L289.9568,315.87366L289.23671,316.35371L288.75664,316.83376
				L287.79652,317.55384L286.35634,318.27392L284.19607,318.75397L282.75588,319.23402L283.95604,321.8743L286.59637,326.91484L
				289.47674,332.43543L290.19683,333.87558L299.79805,328.35499L302.43838,334.1156L303.63853,336.51586L306.03884,341.31637L307.47902,344.91676
				L308.19911,344.19668L308.43914,344.19668L309.15923,344.4367L309.63929,344.91676L309.87933,345.39681L310.11936,346.11688L
				310.35939,346.83696L310.83945,347.79706L311.31951,348.99719L311.55954,350.91739L312.0396,352.59757L312.51966,354.03773L313.95984,356.67801
				L314.19987,357.15806L309.39926,357.87814L316.36015,366.51906L300.51814,377.80026L300.03808,377.32021L299.79805,376.60013
				L299.31798,375.4L298.83792,374.91995L297.8778,374.19988L297.15771,373.71982L295.95756,373.23977L295.4775,372.75972L294.75741,372.03965
				L293.55725,370.59949L293.07719,369.39936L291.39698,366.75908L292.59713,366.03901L291.63701,364.1188L293.07719,363.1587L292.59713,362.67865
				L291.39698,363.63875L290.19683,364.59885L288.03655,361.47852L286.35634,358.83824L285.87628,358.11816L285.15619,357.39809
				L284.4361,356.67801L283.95604,356.19796L283.47597,355.71791L282.27582,355.23785L281.55573,354.99783L279.87552,354.51778L
				276.99515,354.03773L276.03503,353.7977L274.83488,354.03773L273.87476,351.15742L270.75436,352.59757L271.47445,354.7578L269.55421,354.7578
				L268.11402,354.51778L267.39393,354.27775L266.43381,353.55768L265.95375,353.07762L265.23366,352.59757L264.27354,352.35755
				L262.59332,351.39745L261.6332,350.43734L260.43305,349.23722L259.95299,348.51714L259.71296,347.31701L259.2329,346.11688L258.75284,344.67673
				L257.07262,342.03645L258.27278,341.31637L258.27278,340.59629L260.19302,339.39617L256.59256,334.35563L252.27201,338.43606
				L250.5918,337.71599L249.87171,336.99591L246.51128,333.63555L245.55116,332.43543L242.91083,329.55512L242.19074,328.83504L
				240.99058,328.35499L240.51052,327.87494L240.99058,326.67481L241.23061,325.95473L241.23061,325.71471L241.71067,324.99463L
				242.6708,324.03453L243.63092,323.07443L244.35101,322.35435L245.0711,321.63427L246.27125,321.15422L239.79043,312.5133L242.91083,310.83312
				L241.71067,305.07251L242.43077,303.87238L241.23061,302.91228L239.31037,301.47213L238.83031,300.75205L238.35025,299.07187
				L237.87019,297.39169L236.43,294.27136L237.39013,294.75141L238.35025,294.99144L240.51052,294.99144L241.71067,294.99144L242.43077,294.51138
				L243.39089,294.03133L244.11098,293.31126L245.79119,292.11113L247.71144,291.15103L251.55192,287.07059L253.47217,284.19028
				L254.43229,282.99016L257.07262,280.5899L259.47293,277.70959L260.91311,275.78939L262.11326,276.74949L262.35329,276.26944L
				262.83335,275.54936L261.87323,274.58926L265.47369,271.46893L269.79424,275.54936L269.79424,275.78939L278.43533,269.06867L
				275.795,265.94834L274.59485,264.50819L277.23518,262.58798L277.71524,262.10793L278.1953,261.86791L280.35558,260.42775L282.27582,258.9876
				L283.23594,258.0275L283.47597,258.0275L284.4361,259.46765L286.11631,261.38785L289.47674,265.22826L289.9568,265.70831z"/>
		</g>
</g></svg>