<?xml version="1.0" encoding="utf-8" standalone="no"?>
<!-- Creator: ESRI ArcMap 10.0.0.2414 -->
<!DOCTYPE svg PUBLIC "-//W3C//DTD SVG 1.1//EN"  "http://www.w3.org/Graphics/SVG/1.1/DTD/svg11.dtd">
<svg width="595.50236pt" height="595.50236pt" viewBox="25 148.377955 545.50236 545.50236" enable-background="new 25 148.377955 545.50236 545.50236"
	version="1.1" xmlns="http://www.w3.org/2000/svg" xmlns:xlink="http://www.w3.org/1999/xlink" >
	<g id="Couches">
		<g id="reservoirs">
			<clipPath id="SVG_CP_2">
				<path d="M574.39289,21.36228L21.36271,21.36228L21.36271,821.36753L574.39289,821.36753L574.39289,21.36228z"/>
			</clipPath>
			<path clip-path="url(#SVG_CP_2)" fill-opacity="0.08" fill="#2f4493" fill-rule="evenodd" stroke="#2f4493" stroke-width="1" stra="1.44018" stroke-miterlimit="10" stroke-linecap="round" stroke-linejoin="round" d="
				M-6.24079,659.35026L-6.00076,659.35026L-4.32055,658.15013L-2.16027,655.74988L4.56058,651.18939L6.24079,650.22929L13.44171,645.42878
				L18.00229,642.54847L20.40259,640.38824L25.68326,635.3477L31.68402,629.82712L37.20472,624.54655L42.96545,619.26599L49.68631,613.02533
				L52.08661,611.34515L55.9271,608.22481L67.20853,598.62379L73.92938,593.58325L79.45008,589.26279L85.69087,585.18236L90.01142,582.7821
				L94.572,580.14182L98.65252,586.86254L101.29285,584.94233L103.93319,589.26279L108.97383,585.66241L113.05435,591.183L104.17322,597.66369
				L108.49377,603.66433L116.41477,598.14374L115.69468,601.26407L114.01447,605.10448L113.29438,607.26471L113.53441,610.62507
				L115.69468,616.14566L116.41477,618.06586L117.3749,619.26599L118.81508,619.26599L120.97535,618.06586L127.21614,614.94553L
				130.8166,613.50538L133.69697,611.8252L137.53745,608.46484L139.93776,605.82456L141.61797,603.66433L142.09803,602.70423L144.01828,600.30397
				L146.41858,597.18364L147.85876,594.30333L150.73913,591.183L149.77901,583.7422L146.41858,579.66177L147.13867,579.18172L146.89864,577.50154
				L146.17855,575.10128L145.69849,573.90116L144.9784,571.74093L145.45846,570.06075L144.73837,568.14054L144.73837,567.42047L
				144.9784,566.22034L145.93852,564.30013L144.73837,562.1399L150.25907,559.73965L148.09879,551.33875L153.85953,548.9385L159.1402,547.25832
				L164.18084,546.05819L168.50138,544.85806L175.22224,543.17788L180.02285,541.4977L185.54355,538.37737L190.82422,535.49706L
				191.30428,528.05627L210.74674,521.81561L214.82726,520.37545L215.06729,520.61548L217.94766,519.8954L225.14857,517.49515L227.30885,516.53504
				L234.50976,511.25448L234.98982,510.5344L235.94994,508.85422L237.1501,507.89412L240.51052,501.89348L241.23061,501.41343L241.47064,500.45333
				L242.43077,499.49323L243.15086,499.01318L243.87095,497.333L245.0711,495.89284L246.27125,494.69272L247.71144,494.21266L248.67156,494.45269
				L249.63168,494.93274L250.83183,496.13287L251.79195,497.333L252.99211,498.05307L255.15238,497.09297L256.1125,497.57302L257.07262,499.01318
				L261.87323,496.61292L262.35329,498.2931L266.19378,505.97392L262.59332,507.6541L261.6332,510.05435L261.87323,511.25448L263.07339,515.57494
				L260.19302,517.01509L260.19302,520.37545L261.6332,523.25576L262.83335,523.01573L264.03351,525.89604L267.1539,525.89604L268.83412,529.73645
				L265.95375,530.45653L266.43381,532.61676L266.91387,535.25704L267.39393,537.89732L267.1539,540.29758L265.23366,540.29758L
				263.07339,540.77763L260.67308,541.25768L258.51281,541.97775L259.47293,545.33811L260.67308,546.77827L262.59332,547.01829L
				265.23366,547.73837L271.71448,544.85806L272.6746,544.37801L273.87476,544.85806L275.07491,545.09809L275.795,545.81816L275.795,546.53824
				L275.55497,547.97839L275.07491,549.8986L273.87476,552.05883L273.15466,553.73901L272.43457,554.45908L270.51433,555.41919L
				270.75436,556.37929L271.95451,558.77954L273.15466,561.89988L267.1539,564.06011L270.03427,571.02085L276.03503,568.62059L278.1953,573.90116
				L283.47597,572.70103L284.4361,572.70103L284.67613,572.70103L285.15619,572.94105L285.87628,573.90116L312.51966,562.61995L
				315.64006,560.2197L317.08024,559.49962L318.52042,559.01957L319.48054,558.77954L327.16152,555.17916L327.16152,554.93914L328.12164,554.45908
				L328.84173,554.21906L329.32179,554.45908L329.56182,554.45908L330.52194,554.69911L332.20216,553.97903L334.1224,553.01893L
				334.36243,553.25896L336.76274,552.77891L338.44295,555.65921L338.68298,555.41919L340.12316,554.69911L343.48359,557.81944L
				339.16304,561.1798L352.36472,584.94233L352.36472,585.18236L352.36472,585.42238L352.12469,585.66241L351.88466,586.14246L352.12469,588.30269
				L353.32484,590.46292L355.48511,595.02341L356.2052,596.94361L362.92606,611.34515L346.84402,624.0665L343.24356,626.70678L338.92301,629.10704
				L333.88237,631.02724L326.2014,633.66752L304.11859,638.46804L300.9982,638.46804L295.71753,636.78786L287.07643,635.10768L282.27582,634.3876
				L274.35482,633.4275L272.19454,632.94745L269.79424,632.22737L266.19378,631.02724L260.43305,629.82712L255.15238,629.10704L
				252.75208,628.86701L237.87019,631.02724L223.46836,632.4674L212.42696,637.74796L206.18617,642.7885L205.22604,646.62891L204.50595,647.82903
				L203.06577,651.18939L203.3058,652.38952L203.3058,655.26983L201.38556,660.07034L200.42544,661.27047L198.74522,664.63082L197.7851,667.27111
				L197.54507,670.15141L198.74522,678.31228L199.46531,682.15269L199.46531,685.51305L199.22528,688.63338L197.7851,694.394L196.10489,703.99502
				L194.90473,703.51497L186.26364,698.95448L177.38251,696.07417L173.30199,698.71446L165.86105,703.03492L157.21995,708.07545
				L153.13943,710.47571L144.01828,716.23632L134.17703,721.99694L124.33578,727.99758L112.33426,735.43837L97.6924,743.83926L83.29057,752.48019
				L71.04902,759.68095L69.3688,760.40103L68.16865,760.64106L66.48844,760.64106L63.60807,760.88108L58.56743,762.32123L57.12725,762.80129
				L53.04673,763.52136L49.68631,763.76139L47.286,763.76139L45.36576,763.76139L42.48539,758.48082L30.7239,762.56126L28.80366,763.52136
				L25.2032,764.48146L22.0828,765.20154L19.44247,766.16164L16.80213,767.84182L11.0414,767.6018L8.6411,766.64169L5.76073,763.76139
				L1.44018,764.96152L-0.96012,765.44157L-3.84049,765.92162L-6.24079,766.16164L-6.24079,659.35026z"/>
			<path clip-path="url(#SVG_CP_2)" fill-opacity="0.08" fill="#2f4493" fill-rule="evenodd" stroke="#2f4493" stroke-width="1" stra="1.44018" stroke-miterlimit="10" stroke-linecap="round" stroke-linejoin="round" d="
				M462.05864,216.26305L473.34007,226.82417L475.02028,228.50435L476.94053,230.42455L478.38071,232.34476L479.58086,233.78491
				L481.26107,235.70512L483.18132,237.3853L489.42211,241.94578L501.42363,250.34668L504.304,252.26688L506.46427,253.46701L507.66442,254.18709
				L510.54479,255.38721L513.42516,256.34732L517.7457,258.26752L526.14677,261.62788L529.74723,263.30806L535.74799,265.70831L
				543.66899,268.3486L548.70963,270.2688L556.39061,272.42903L564.55164,274.10921L566.95195,274.58926L569.59228,274.82929L572.95271,274.58926
				L576.55317,273.86918L579.1935,272.90908L580.39365,272.42903L582.07387,273.38913L584.23414,274.10921L585.91435,275.06931L
				589.03475,276.98952L591.19502,282.27008L580.39365,287.07059L560.95119,295.23146L548.4696,300.75205L545.58924,301.95218L528.54707,309.39297
				L496.86305,322.8344L489.66214,325.95473L487.98193,322.35435L487.26184,321.15422L485.58162,319.9541L482.94129,318.27392L480.30095,316.11369
				L478.38071,314.19348L476.46046,311.79323L474.30019,308.91292L472.13992,305.55256L469.97964,302.91228L468.29943,300.99207
				L467.09928,299.79195L466.13915,299.07187L464.939,298.83184L463.49882,299.07187L461.33855,299.79195L457.73809,300.75205L452.45742,302.67225
				L447.17675,304.35243L445.9766,304.59246L444.77644,302.91228L442.8562,301.2321L441.41602,300.272L439.25574,299.79195L437.09547,300.03197
				L434.69516,300.75205L434.45513,300.99207L433.01495,301.71215L431.33474,302.43223L428.93443,304.11241L427.25422,305.31253
				L426.2941,306.51266L423.1737,307.47277L415.49273,309.633L411.89227,310.83312L409.01191,312.27328L402.77111,314.91356L394.13002,318.75397
				L383.08862,323.7945L367.72667,330.75525L353.08481,337.23594L341.56335,342.27647L336.04265,344.67673L335.80261,344.67673L
				335.32255,344.67673L334.84249,344.4367L330.04188,337.71599L322.60094,327.63491L312.75969,314.19348L306.03884,305.55256L291.39698,285.63044
				L273.15466,260.66778L276.99515,257.06739L249.63168,221.30358L248.67156,220.82353L246.27125,222.26369L240.51052,223.70384
				L238.11022,224.18389L234.74979,223.70384L223.70839,225.86407L213.62711,204.74182L216.02742,204.02174L217.70763,203.54169
				L219.14781,202.58159L220.82802,201.86151L223.22833,200.42136L225.3886,198.9812L230.66927,194.18069L236.67003,189.62021L237.87019,188.42008
				L239.5504,186.97993L240.75055,185.7798L241.9507,185.05972L245.79119,183.37954L248.1915,182.41944L252.75208,180.49923L253.95223,179.77916
				L255.87247,178.339L257.79272,176.65883L258.75284,175.4587L259.71296,174.97865L260.67308,174.4986L261.87323,174.4986L264.7536,174.25857
				L268.35406,174.01854L274.35482,173.53849L275.795,173.53849L280.59561,172.81842L288.27658,172.09834L290.19683,172.09834L291.87704,171.85831
				L293.79728,171.61829L295.4775,171.37826L299.07795,170.89821L302.67841,170.65819L305.55878,170.17813L309.39926,169.93811L
				314.19987,169.21803L319.24051,168.97801L324.52118,168.25793L330.76198,167.53785L332.68222,167.53785L335.08252,167.0578L336.52271,166.81778
				L339.40307,166.0977L340.84325,164.65755L352.84478,164.89757L360.28572,165.1376L369.88694,165.61765L379.72819,166.0977L384.28877,166.57775
				L392.92986,167.29783L408.53184,168.49796L415.73276,169.21803L430.61465,170.41816L440.21587,171.37826L454.85772,173.05844
				L465.17903,174.4986L459.89836,192.02046L455.33778,207.62212L454.85772,208.58223L455.33778,209.54233L462.05864,216.26305z
				"/>
		</g>
</g></svg>