<?xml version="1.0" encoding="utf-8" standalone="no"?>
<!-- Creator: ESRI ArcMap 10.0.0.2414 -->
<!DOCTYPE svg PUBLIC "-//W3C//DTD SVG 1.1//EN"  "http://www.w3.org/Graphics/SVG/1.1/DTD/svg11.dtd">
<svg width="595.50236pt" height="595.50236pt" viewBox="25 148.377955 545.50236 545.50236" enable-background="new 25 148.377955 545.50236 545.50236"
	version="1.1" xmlns="http://www.w3.org/2000/svg" xmlns:xlink="http://www.w3.org/1999/xlink" >
	<g id="Couches">
		<g id="reservoirs">
			<path clip-path="url(#SVG_CP_2)" fill-opacity="0.2" fill="#07866D" fill-rule="evenodd" stroke="none" stroke-width="" stra="1.44018" stroke-miterlimit="10" stroke-linecap="round" stroke-linejoin="round" d="
				M5.28067,861.21177L4.08052,842.96983L0.48006,809.36625L-1.68021,779.12302L28.08356,744.31932L32.16408,739.75883L47.04597,723.19706
				L85.21081,680.23249L139.69773,619.26599L176.90245,578.94169L221.06805,529.49642L253.47217,492.77251L265.47369,498.05307L
				266.43381,499.01318L273.15466,498.77315L275.795,501.89348L277.23518,506.93402L278.1953,511.97456L279.15543,518.21522L279.15543,523.25576
				L291.15695,531.89668L297.8778,535.73709L303.3985,537.17724L309.39926,537.41727L314.4399,538.6174L320.92073,541.4977L326.2014,546.53824
				L330.52194,552.05883L331.7221,552.05883L337.00277,552.77891L341.56335,552.77891L347.08405,552.29885L354.76502,553.73901L
				357.88542,556.85934L358.84554,557.81944L355.00505,563.1L345.40383,577.98159L343.48359,583.02213L343.24356,588.54272L343.72362,592.86318
				L348.04417,603.18428L350.92453,611.58517L353.32484,621.42622L352.60475,627.18683L350.92453,632.4674L350.92453,632.70742L
				346.36396,639.90819L342.7635,644.22865L334.60246,654.0697L325.96137,665.3509L323.081,670.15141L321.40079,676.6321L320.44067,684.79297
				L319.72057,690.55359L316.60018,703.51497L316.36015,703.75499L314.91996,707.5954L312.75969,709.75563L309.15923,712.87597L
				302.67841,716.23632L290.91692,721.51689L285.39622,725.3573L287.79652,729.43773L290.91692,735.91842L295.23747,744.55934L308.43914,748.39975
				L312.99972,773.36241L312.0396,774.08249L311.07948,775.04259L297.8778,759.92098L297.63777,764.24144L288.75664,773.84246L287.31646,779.12302
				L290.91692,784.88364L299.79805,799.76522L300.03808,800.24528L307.23899,799.28517L323.56106,820.1674L324.52118,824.48786L
				324.28115,824.48786L330.52194,831.4486L327.16152,836.00909L321.64082,839.12942L317.08024,841.28965L309.15923,843.20985L298.11783,844.65001
				L287.55649,846.33019L274.11479,849.45052L264.51357,852.81088L253.95223,859.29157L251.31189,861.21177L5.28067,861.21177z"/>
			<path clip-path="url(#SVG_CP_2)" fill-opacity="0.2" fill="#07866D" fill-rule="evenodd" stroke="none" stroke-width="" stra="1.44018" stroke-miterlimit="10" stroke-linecap="round" stroke-linejoin="round" d="
				M601.9964,476.45077L586.39442,476.93082L523.74647,467.80985L509.34464,446.6876L503.10385,437.80665L494.22272,416.6844L517.02561,404.20307
				L514.14525,399.16254L505.02409,383.32085L495.6629,370.59949L484.38147,360.75844L474.54022,356.91803L451.4973,371.79962L445.2565,376.12008
				L441.17599,376.84016L425.81404,338.43606L406.13154,301.47213L415.97279,297.39169L442.13611,285.15039L460.61845,276.26944
				L457.25803,269.54872L448.85696,253.70704L451.73733,252.50691L462.29867,247.7064L436.61541,230.18453L404.69136,208.58223L
				407.57172,198.50115L407.33169,198.0211L406.85163,197.78108L405.65148,198.0211L406.6116,195.62085L406.37157,195.14079L385.24889,194.90077
				L369.64691,190.58031L367.24661,197.061L350.20444,183.37954L334.84249,212.42264L316.60018,230.66458L319.48054,233.78491L333.16228,250.10665
				L333.88237,250.82673L317.32027,271.2289L337.2428,288.9908L332.20216,295.95154L316.84021,318.75397L332.92225,342.27647L321.64082,345.39681
				L312.51966,344.91676L308.67917,341.79642L304.35862,336.99591L289.23671,305.07251L305.07872,296.91164L299.55802,283.23018
				L301.71829,279.6298L279.63549,242.42583L264.03351,252.02686L259.71296,258.50755L236.91007,247.94642L245.31113,228.9844L233.78967,221.54361
				L191.78434,212.66266L186.02361,232.58478L182.90321,299.79195L123.85572,250.5867L94.572,323.7945L147.3787,375.4L106.81356,445.96752
				L63.60807,521.57558L54.24688,540.5376L48.96621,554.45908L-6.24079,591.66305L-6.24079,-18.722L601.9964,-18.722L601.9964,476.45077
				z"/>
		</g>
</g></svg>