<?xml version="1.0" encoding="utf-8" standalone="no"?>
<!-- Creator: ESRI ArcMap 10.0.0.2414 -->
<!DOCTYPE svg PUBLIC "-//W3C//DTD SVG 1.1//EN"  "http://www.w3.org/Graphics/SVG/1.1/DTD/svg11.dtd">
<svg width="595.50236pt" height="595.50236pt" viewBox="25 148.377955 545.50236 545.50236" enable-background="new 25 148.377955 545.50236 545.50236"
	version="1.1" xmlns="http://www.w3.org/2000/svg" xmlns:xlink="http://www.w3.org/1999/xlink" >
	<g id="Couches">
		<g id="reservoirs">
			<path clip-path="url(#SVG_CP_2)" fill-opacity="0.2" fill="#07866D" fill-rule="evenodd" stroke="none" stroke-width="" stra="1.44018" stroke-miterlimit="10" stroke-linecap="round" stroke-linejoin="round" d="
				M412.37233,768.08185L347.56411,797.60499L295.23747,824.72788L277.95527,782.72341L247.23137,794.72469L176.18236,655.50985
				L233.06958,539.5775L269.31418,470.45013L282.27582,466.12967L558.55088,637.50793L579.67356,653.1096L599.59609,676.6321L455.09775,754.16036
				L432.77492,760.161L412.37233,768.08185z"/>
			<path clip-path="url(#SVG_CP_2)" fill-opacity="0.2" fill="#07866D" fill-rule="evenodd" stroke="none" stroke-width="" stra="1.44018" stroke-miterlimit="10" stroke-linecap="round" stroke-linejoin="round" d="
				M601.9964,243.62596L569.83231,253.94706L451.73733,294.03133L389.32941,315.15358L355.96517,341.5564L336.28268,362.1986L331.24204,359.79834
				L316.60018,378.04028L288.51661,361.23849L209.30656,291.39105L198.50519,215.06292L188.90397,160.09706L188.66394,150.97609
				L186.7437,138.49476L186.7437,114.01215L189.86409,110.41177L415.49273,173.77852L413.57248,135.37443L409.49197,108.97161L411.17218,108.73159
				L412.85239,108.49156L419.09318,112.572L428.21434,114.4922L511.98497,98.41049L520.62607,97.45038L522.30628,92.8899L511.74494,29.76317
				L516.78558,24.72263L529.26717,20.16215L552.07006,13.44143L561.43125,14.40154L583.03399,20.16215L588.07463,22.32238L597.67585,30.48325
				L601.9964,34.56368L601.9964,243.62596z"/>
		</g>
</g></svg>