<?xml version="1.0" encoding="utf-8"?>
<!-- Generator: Adobe Illustrator 17.1.0, SVG Export Plug-In . SVG Version: 6.00 Build 0)  -->
<!DOCTYPE svg PUBLIC "-//W3C//DTD SVG 1.1//EN" "http://www.w3.org/Graphics/SVG/1.1/DTD/svg11.dtd">
<svg version="1.1" id="Calque_1" xmlns="http://www.w3.org/2000/svg" xmlns:xlink="http://www.w3.org/1999/xlink" x="0px" y="0px"
	 viewBox="0 0 1190.6 813.5" enable-background="new 0 0 1190.6 813.5" xml:space="preserve">
<g id="gouttes" display="none">
	<g display="inline">
		<path fill="#BAE6F9" d="M493.6,486c0,0,0.5,1.6,0.7,3.2c0.1,0.4,0.2,0.8,0.2,1.2c0,0.4-0.1,0.7-0.2,1c-0.3,0.6-0.7,1-0.7,1h-0.2
			c0,0-0.4-0.4-0.7-1c-0.1-0.3-0.2-0.6-0.2-1c0-0.4,0.2-0.8,0.2-1.2c0.2-1.6,0.7-3.2,0.7-3.2H493.6z"/>
	</g>
	<g display="inline">
		<path fill="#BAE6F9" d="M479.6,536c0,0,0.5,1.6,0.7,3.2c0.1,0.4,0.2,0.8,0.2,1.2c0,0.4-0.1,0.7-0.2,1c-0.3,0.6-0.7,1-0.7,1h-0.2
			c0,0-0.4-0.4-0.7-1c-0.1-0.3-0.2-0.6-0.2-1c0-0.4,0.2-0.8,0.2-1.2c0.2-1.6,0.7-3.2,0.7-3.2H479.6z"/>
	</g>
	<g display="inline">
		<path fill="#BAE6F9" d="M696.7,522.7c0,0,0.1,2.2,0.3,5.4c0.2,3.3,0.3,7.6,0.4,11.9c0.1,2.2,0.2,4.3,0.2,6.4c0,2-0.1,3.9-0.2,5.6
			c-0.3,3.2-0.7,5.4-0.7,5.4h-0.2c0,0-0.4-2.2-0.7-5.4c-0.1-1.6-0.2-3.5-0.2-5.6c0-2,0.2-4.2,0.2-6.4c0.2-4.3,0.3-8.7,0.4-11.9
			c0.2-3.2,0.3-5.4,0.3-5.4H696.7z"/>
	</g>
	<g display="inline">
		<path fill="#BAE6F9" d="M733,503.6c0,0,0.1,1.5,0.3,3.9c0.2,2.3,0.3,5.4,0.4,8.5c0.1,1.5,0.2,3.1,0.2,4.5c0,1.4-0.1,2.8-0.2,4
			c-0.3,2.3-0.7,3.9-0.7,3.9h-0.2c0,0-0.4-1.5-0.7-3.9c-0.1-1.2-0.2-2.5-0.2-4c0-1.4,0.2-3,0.2-4.5c0.1-3.1,0.3-6.2,0.4-8.5
			c0.2-2.3,0.3-3.9,0.3-3.9H733z"/>
	</g>
	<g display="inline">
		<path fill="#BAE6F9" d="M703.1,539.3c0,0,0.1,2.1,0.3,5.2c0.2,3.1,0.3,7.2,0.4,11.3c0.1,2.1,0.2,4.1,0.2,6.1
			c0,1.9-0.1,3.7-0.2,5.3c-0.3,3.1-0.7,5.1-0.7,5.1h-0.2c0,0-0.4-2.1-0.7-5.1c-0.1-1.6-0.2-3.4-0.2-5.3c0-1.9,0.2-4,0.2-6.1
			c0.2-4.1,0.3-8.2,0.4-11.3c0.2-3.1,0.3-5.2,0.3-5.2H703.1z"/>
	</g>
	<g display="inline">
		<path fill="#BAE6F9" d="M508.3,521.7c0,0,0.1,4,0.3,10c0.2,6,0.3,14,0.5,22c0.1,4,0.2,8,0.2,11.7c0,1.9,0,3.7-0.1,5.4
			c0,1.7-0.1,3.3-0.2,4.8c-0.3,6-0.7,10-0.7,10h-0.2c0,0-0.4-4-0.7-10c-0.1-1.5-0.1-3.1-0.2-4.8c-0.1-1.7,0-3.5-0.1-5.4
			c0-3.7,0.2-7.7,0.2-11.7c0.2-8,0.3-16,0.5-22c0.1-6,0.3-10,0.3-10H508.3z"/>
	</g>
	<g display="inline">
		<path fill="#BAE6F9" d="M411.1,613c0,0,3.6-0.1,9-0.3c5.4-0.2,12.5-0.3,19.7-0.5c3.6-0.1,7.2-0.2,10.5-0.2c1.7,0,3.3,0,4.9,0.1
			c1.5,0,3,0.1,4.3,0.2c5.4,0.3,9,0.7,9,0.7v0.2c0,0-3.6,0.4-9,0.7c-1.3,0.1-2.8,0.1-4.3,0.2c-1.5,0.1-3.2,0-4.9,0.1
			c-3.4,0-6.9-0.2-10.5-0.2c-7.2-0.2-14.3-0.3-19.7-0.4c-5.4-0.1-9-0.3-9-0.3V613z"/>
	</g>
	<g display="inline">
		<path fill="#BAE6F9" d="M458.5,655.8c0,0,3.6-0.1,9-0.3c5.4-0.2,12.6-0.3,19.7-0.5c3.6-0.1,7.2-0.2,10.5-0.2c1.7,0,3.3,0,4.8,0.1
			c1.5,0,3,0.1,4.4,0.2c5.4,0.3,9,0.7,9,0.7v0.2c0,0-3.6,0.4-9,0.7c-1.4,0.1-2.8,0.1-4.4,0.2c-1.5,0.1-3.2,0-4.8,0.1
			c-3.4,0-6.9-0.2-10.5-0.2c-7.2-0.1-14.3-0.3-19.7-0.5c-5.4-0.1-9-0.3-9-0.3L458.5,655.8L458.5,655.8z"/>
	</g>
	<g display="inline">
		<path fill="#BAE6F9" d="M514.7,538.3c0,0,0.1,1.5,0.3,3.6c0.2,2.2,0.3,5.1,0.4,8c0.1,1.5,0.2,2.9,0.2,4.3c0,1.4-0.1,2.6-0.2,3.7
			c-0.3,2.2-0.7,3.6-0.7,3.6h-0.2c0,0-0.4-1.5-0.7-3.6c-0.1-1.1-0.2-2.4-0.2-3.7c0-1.4,0.2-2.8,0.2-4.3c0.2-2.9,0.3-5.8,0.4-8
			c0.1-2.2,0.3-3.6,0.3-3.6H514.7z"/>
	</g>
	<g display="inline">
		<path fill="#BAE6F9" d="M508.3,558.1c0,0,0.5,2.6,0.7,5.3c0.1,0.7,0.2,1.3,0.2,2c0,0.6-0.1,1.2-0.2,1.7c-0.3,1-0.7,1.7-0.7,1.7
			h-0.2c0,0-0.4-0.7-0.7-1.7c-0.1-0.5-0.2-1.1-0.2-1.7c0-0.6,0.2-1.3,0.2-2c0.2-2.7,0.7-5.3,0.7-5.3H508.3z"/>
	</g>
	<g display="inline">
		<path fill="#BAE6F9" d="M484.8,607.2c0,0-2.7,0.5-5.3,0.7c-0.7,0.1-1.3,0.2-2,0.2c-0.6,0-1.2-0.1-1.7-0.2c-1-0.3-1.7-0.7-1.7-0.7
			V607c0,0,0.7-0.4,1.7-0.7c0.5-0.1,1.1-0.2,1.7-0.2c0.6,0,1.3,0.2,2,0.2c2.6,0.2,5.3,0.7,5.3,0.7V607.2z"/>
	</g>
	<g display="inline">
		<path fill="#BAE6F9" d="M514.7,587.3c0,0,0.5,2.6,0.7,5.3c0.1,0.7,0.2,1.3,0.2,2c0,0.6-0.1,1.2-0.2,1.7c-0.3,1-0.7,1.7-0.7,1.7
			h-0.2c0,0-0.4-0.7-0.7-1.7c-0.1-0.5-0.2-1.1-0.2-1.7c0-0.6,0.2-1.3,0.2-2c0.2-2.7,0.7-5.3,0.7-5.3H514.7z"/>
	</g>
	<g display="inline">
		<path fill="#BAE6F9" d="M507.3,487c0,0,0.5,2.7,0.7,5.3c0.1,0.7,0.2,1.3,0.2,2c0,0.6-0.1,1.2-0.2,1.7c-0.3,1-0.7,1.7-0.7,1.7h-0.2
			c0,0-0.4-0.7-0.7-1.7c-0.1-0.5-0.2-1.1-0.2-1.7c0-0.6,0.2-1.3,0.2-2c0.2-2.7,0.7-5.3,0.7-5.3H507.3z"/>
	</g>
	<g display="inline">
		<path fill="#BAE6F9" d="M511.7,454.7c0,0,0.4,2.6,0.7,5.3c0.1,0.7,0.2,1.3,0.2,2c0,0.6-0.1,1.2-0.2,1.7c-0.3,1-0.7,1.7-0.7,1.7
			h-0.2c0,0-0.4-0.7-0.7-1.7c-0.1-0.5-0.2-1.1-0.2-1.7c0-0.6,0.2-1.3,0.2-2c0.2-2.7,0.7-5.3,0.7-5.3H511.7z"/>
	</g>
	<g display="inline">
		<path fill="#BAE6F9" d="M508.7,465.4c0,0,0.4,2.6,0.7,5.3c0.1,0.7,0.2,1.3,0.2,2c0,0.6-0.1,1.2-0.2,1.7c-0.3,1-0.7,1.7-0.7,1.7
			h-0.2c0,0-0.4-0.7-0.7-1.7c-0.1-0.5-0.2-1.1-0.2-1.7c0-0.6,0.2-1.3,0.2-2c0.2-2.7,0.7-5.3,0.7-5.3H508.7z"/>
	</g>
	<g display="inline">
		<path fill="#BAE6F9" d="M667,458c0,0,0.5,2.7,0.7,5.3c0.1,0.7,0.2,1.3,0.2,2c0,0.6-0.1,1.2-0.2,1.7c-0.3,1-0.7,1.7-0.7,1.7h-0.2
			c0,0-0.4-0.7-0.7-1.7c-0.1-0.5-0.2-1.1-0.2-1.7c0-0.6,0.2-1.3,0.2-2c0.2-2.7,0.7-5.3,0.7-5.3H667z"/>
	</g>
	<g display="inline">
		<path fill="#BAE6F9" d="M660.6,475.3c0,0,0.5,2.6,0.7,5.3c0.1,0.7,0.2,1.3,0.2,2c0,0.6-0.1,1.2-0.2,1.7c-0.3,1-0.7,1.7-0.7,1.7
			h-0.2c0,0-0.4-0.7-0.7-1.7c-0.1-0.5-0.2-1.1-0.2-1.7c0-0.6,0.2-1.3,0.2-2c0.2-2.7,0.7-5.3,0.7-5.3H660.6z"/>
	</g>
	<g display="inline">
		<path fill="#BAE6F9" d="M703.1,492.3c0,0,0.5,2.7,0.7,5.3c0.1,0.7,0.2,1.3,0.2,2c0,0.6-0.1,1.2-0.2,1.7c-0.3,1-0.7,1.7-0.7,1.7
			h-0.2c0,0-0.4-0.7-0.7-1.7c-0.1-0.5-0.2-1.1-0.2-1.7c0-0.6,0.2-1.3,0.2-2c0.2-2.6,0.7-5.3,0.7-5.3H703.1z"/>
	</g>
	<g display="inline">
		<path fill="#BAE6F9" d="M696.7,480.6c0,0,0.5,2.7,0.7,5.3c0.1,0.7,0.2,1.3,0.2,2c0,0.6-0.1,1.2-0.2,1.7c-0.3,1-0.7,1.7-0.7,1.7
			h-0.2c0,0-0.4-0.7-0.7-1.7c-0.1-0.5-0.2-1.1-0.2-1.7c0-0.6,0.2-1.3,0.2-2c0.2-2.7,0.7-5.3,0.7-5.3H696.7z"/>
	</g>
	<g display="inline">
		<path fill="#BAE6F9" d="M733,457c0,0,0.5,2.7,0.7,5.3c0.1,0.7,0.2,1.3,0.2,2c0,0.6-0.1,1.2-0.2,1.7c-0.3,1-0.7,1.7-0.7,1.7h-0.2
			c0,0-0.4-0.7-0.7-1.7c-0.1-0.5-0.2-1.1-0.2-1.7c0-0.6,0.2-1.3,0.2-2c0.2-2.7,0.7-5.3,0.7-5.3H733z"/>
	</g>
	<g display="inline">
		<path fill="#BAE6F9" d="M547.5,459c0,0,0.5,2.6,0.7,5.3c0.1,0.7,0.2,1.3,0.2,2c0,0.6-0.1,1.2-0.2,1.7c-0.3,1-0.7,1.7-0.7,1.7h-0.2
			c0,0-0.4-0.7-0.7-1.7c-0.1-0.5-0.2-1.1-0.2-1.7c0-0.6,0.2-1.3,0.2-2c0.2-2.7,0.7-5.3,0.7-5.3H547.5z"/>
	</g>
	<g display="inline">
		<path fill="#BAE6F9" d="M549.2,481.7c0,0,0.5,2.7,0.7,5.3c0.1,0.7,0.2,1.3,0.2,2c0,0.6-0.1,1.2-0.2,1.7c-0.3,1-0.7,1.7-0.7,1.7
			H549c0,0-0.4-0.7-0.7-1.7c-0.1-0.5-0.2-1.1-0.2-1.7c0-0.6,0.2-1.3,0.2-2c0.2-2.6,0.7-5.3,0.7-5.3H549.2z"/>
	</g>
	<g display="inline">
		<path fill="#BAE6F9" d="M542.8,492.3c0,0,0.5,2.7,0.7,5.3c0.1,0.7,0.2,1.3,0.2,2c0,0.6-0.1,1.2-0.2,1.7c-0.3,1-0.7,1.7-0.7,1.7
			h-0.2c0,0-0.4-0.7-0.7-1.7c-0.1-0.5-0.2-1.1-0.2-1.7c0-0.6,0.2-1.3,0.2-2c0.2-2.6,0.7-5.3,0.7-5.3H542.8z"/>
	</g>
	<g display="inline">
		<path fill="#BAE6F9" d="M542.8,471.7c0,0,0.5,2.6,0.7,5.3c0.1,0.7,0.2,1.3,0.2,2c0,0.6-0.1,1.2-0.2,1.7c-0.3,1-0.7,1.7-0.7,1.7
			h-0.2c0,0-0.4-0.7-0.7-1.7c-0.1-0.5-0.2-1.1-0.2-1.7c0-0.6,0.2-1.3,0.2-2c0.2-2.7,0.7-5.3,0.7-5.3H542.8z"/>
	</g>
	<g display="inline">
		<path fill="#BAE6F9" d="M543.6,584.7c0,0-0.4-1.6-0.7-3.2c-0.1-0.4-0.2-0.8-0.2-1.2c0-0.4,0.1-0.7,0.2-1c0.3-0.6,0.7-1,0.7-1h0.2
			c0,0,0.4,0.4,0.7,1c0.1,0.3,0.2,0.6,0.2,1c0,0.4-0.2,0.8-0.2,1.2c-0.2,1.6-0.7,3.2-0.7,3.2H543.6z"/>
	</g>
	<g display="inline">
		<path fill="#BAE6F9" d="M550.2,567.4c0,0,0.5,2.6,0.7,5.3c0.1,0.7,0.2,1.3,0.2,2c0,0.6-0.1,1.2-0.2,1.7c-0.3,1-0.7,1.7-0.7,1.7
			H550c0,0-0.4-0.7-0.7-1.7c-0.1-0.5-0.2-1.1-0.2-1.7c0-0.6,0.2-1.3,0.2-2c0.2-2.7,0.7-5.3,0.7-5.3H550.2z"/>
	</g>
	<g display="inline">
		<path fill="#BAE6F9" d="M658.9,663.7c0,0,2.6-0.5,5.3-0.7c0.7-0.1,1.3-0.2,2-0.2c0.6,0,1.2,0.1,1.7,0.2c1,0.3,1.7,0.7,1.7,0.7v0.2
			c0,0-0.7,0.4-1.7,0.7c-0.5,0.1-1.1,0.2-1.7,0.2c-0.6,0-1.3-0.2-2-0.2c-2.7-0.2-5.3-0.7-5.3-0.7V663.7z"/>
	</g>
	<g display="inline">
		<path fill="#BAE6F9" d="M450.9,555.9c0,0-0.1,0.5-0.2,0.7c0,0.1,0,0.2-0.1,0.2c0,0,0-0.1-0.1-0.2c0-0.3-0.1-0.7-0.1-0.7v-0.2
			c0,0,0-0.4,0.1-0.7c0-0.1,0-0.2,0.1-0.2c0,0,0,0.2,0.1,0.2c0.1,0.2,0.2,0.7,0.2,0.7V555.9z"/>
	</g>
	<g display="inline">
		<path fill="#BAE6F9" d="M388,608.9c0,0,2.7-0.4,5.3-0.7c0.7-0.1,1.3-0.2,2-0.2c0.6,0,1.2,0.1,1.7,0.2c1,0.3,1.7,0.7,1.7,0.7v0.2
			c0,0-0.7,0.4-1.7,0.7c-0.5,0.1-1.1,0.2-1.7,0.2c-0.6,0-1.3-0.2-2-0.2c-2.6-0.2-5.3-0.7-5.3-0.7V608.9z"/>
	</g>
	<g display="inline">
		<path fill="#BAE6F9" d="M710.6,626.2c0,0,2.7-0.5,5.3-0.7c0.7-0.1,1.3-0.2,2-0.2c0.6,0,1.2,0.1,1.7,0.2c1,0.3,1.7,0.7,1.7,0.7v0.2
			c0,0-0.7,0.4-1.7,0.7c-0.5,0.1-1.1,0.2-1.7,0.2c-0.6,0-1.3-0.2-2-0.2c-2.7-0.2-5.3-0.7-5.3-0.7V626.2z"/>
	</g>
	<g display="inline">
		<path fill="#BAE6F9" d="M647.6,670.8c0,0,2-0.1,5.1-0.3c3.1-0.2,7.1-0.3,11.2-0.4c2-0.1,4.1-0.2,6-0.2c1.9,0,3.7,0.1,5.2,0.2
			c3.1,0.3,5.1,0.7,5.1,0.7v0.2c0,0-2,0.4-5.1,0.7c-1.5,0.1-3.3,0.2-5.2,0.2c-1.9,0-4-0.2-6-0.2c-4.1-0.2-8.2-0.3-11.2-0.4
			c-3.1-0.2-5.1-0.3-5.1-0.3V670.8z"/>
	</g>
	<g display="inline">
		<path fill="#BAE6F9" d="M680,621.1c0,0,2-0.1,5.1-0.3c3.1-0.2,7.1-0.3,11.2-0.4c2-0.1,4.1-0.2,6-0.2c1.9,0,3.7,0.1,5.2,0.2
			c3.1,0.3,5.1,0.7,5.1,0.7v0.2c0,0-2,0.4-5.1,0.7c-1.5,0.1-3.3,0.2-5.2,0.2c-1.9,0-4-0.2-6-0.2c-4.1-0.2-8.2-0.3-11.2-0.4
			c-3.1-0.1-5.1-0.3-5.1-0.3V621.1z"/>
	</g>
	<g display="inline">
		<path fill="#BAE6F9" d="M543.8,615.2c0,0,0.1,1.3,0.3,3.2c0.2,1.9,0.3,4.5,0.4,7.1c0.1,1.3,0.2,2.6,0.2,3.8c0,1.2-0.1,2.3-0.2,3.3
			c-0.3,1.9-0.7,3.2-0.7,3.2h-0.2c0,0-0.4-1.3-0.7-3.2c-0.1-1-0.2-2.1-0.2-3.3c0-1.2,0.2-2.5,0.2-3.8c0.1-2.6,0.3-5.2,0.4-7.1
			c0.2-1.9,0.3-3.2,0.3-3.2H543.8z"/>
	</g>
	<g display="inline">
		<path fill="#BAE6F9" d="M546.4,535.3c0,0,0.1,2.2,0.3,5.5c0.2,3.3,0.3,7.7,0.5,12c0.1,2.2,0.2,4.4,0.2,6.4c0,2.1-0.1,4-0.2,5.6
			c-0.3,3.3-0.7,5.5-0.7,5.5h-0.2c0,0-0.4-2.2-0.7-5.5c-0.1-1.6-0.2-3.6-0.2-5.6c0-2.1,0.2-4.2,0.2-6.4c0.2-4.4,0.3-8.8,0.5-12
			c0.2-3.3,0.3-5.5,0.3-5.5H546.4z"/>
	</g>
	<g display="inline">
		<path fill="#BAE6F9" d="M550.2,597c0,0,0.5,1.2,0.7,2.5c0.1,0.3,0.2,0.6,0.2,0.9c0,0.3-0.1,0.6-0.2,0.8c-0.3,0.5-0.7,0.8-0.7,0.8
			H550c0,0-0.4-0.3-0.7-0.8c-0.1-0.2-0.2-0.5-0.2-0.8c0-0.3,0.2-0.6,0.2-0.9c0.2-1.2,0.7-2.5,0.7-2.5H550.2z"/>
	</g>
	<g display="inline">
		<path fill="#BAE6F9" d="M626.7,496.5c0,0,0.5,1.2,0.7,2.5c0.1,0.3,0.2,0.6,0.2,0.9c0,0.3-0.1,0.6-0.2,0.8
			c-0.3,0.5-0.7,0.8-0.7,0.8h-0.2c0,0-0.4-0.3-0.7-0.8c-0.1-0.2-0.2-0.5-0.2-0.8c0-0.3,0.2-0.6,0.2-0.9c0.2-1.2,0.7-2.5,0.7-2.5
			H626.7z"/>
	</g>
	<g display="inline">
		<path fill="#BAE6F9" d="M660.6,495.2c0,0,0.5,1.2,0.7,2.5c0.1,0.3,0.2,0.6,0.2,0.9c0,0.3-0.1,0.6-0.2,0.8
			c-0.3,0.5-0.7,0.8-0.7,0.8h-0.2c0,0-0.4-0.3-0.7-0.8c-0.1-0.2-0.2-0.5-0.2-0.8c0-0.3,0.2-0.6,0.2-0.9c0.2-1.2,0.7-2.5,0.7-2.5
			H660.6z"/>
	</g>
	<g display="inline">
		<path fill="#BAE6F9" d="M631.6,526.2c0,0,0.1,4.6,0.3,11.6c0.2,7,0.3,16.3,0.4,25.6c0.1,4.6,0.2,9.3,0.2,13.6c0,2.2,0,4.3-0.1,6.3
			c0,2-0.1,3.9-0.2,5.6c-0.1,1.7-0.2,3.3-0.2,4.8c-0.1,1.4-0.1,2.6-0.2,3.7c-0.1,2-0.3,3.2-0.3,3.2h-0.2c0,0-0.1-1.2-0.3-3.2
			c-0.1-1-0.2-2.3-0.2-3.7c-0.1-1.4-0.2-3-0.2-4.8c-0.1-1.7-0.1-3.6-0.2-5.6c-0.1-2,0-4.1-0.1-6.3c0-4.4,0.2-9,0.2-13.6
			c0.2-9.3,0.3-18.6,0.5-25.6c0.1-7,0.3-11.6,0.3-11.6H631.6z"/>
	</g>
	<g display="inline">
		<path fill="#BAE6F9" d="M625,589.5c0,0-0.1-1.5-0.3-3.7c-0.2-2.2-0.3-5.1-0.4-8c-0.1-1.5-0.2-2.9-0.2-4.3c0-1.4,0.1-2.6,0.2-3.7
			c0.3-2.2,0.7-3.6,0.7-3.6h0.2c0,0,0.4,1.5,0.7,3.6c0.1,1.1,0.2,2.4,0.2,3.7c0,1.4-0.2,2.8-0.2,4.3c-0.1,2.9-0.3,5.9-0.4,8
			c-0.2,2.2-0.3,3.7-0.3,3.7H625z"/>
	</g>
	<g display="inline">
		<path fill="#BAE6F9" d="M472.3,482.4c0,0-0.1-1.5-0.3-3.7c-0.2-2.2-0.3-5.1-0.4-8c-0.1-1.5-0.2-2.9-0.2-4.3c0-1.4,0.1-2.6,0.2-3.7
			c0.3-2.2,0.7-3.6,0.7-3.6h0.2c0,0,0.4,1.5,0.7,3.6c0.1,1.1,0.2,2.4,0.2,3.7c0,1.4-0.2,2.8-0.2,4.3c-0.2,2.9-0.3,5.9-0.4,8
			c-0.1,2.2-0.3,3.7-0.3,3.7H472.3z"/>
	</g>
	<g display="inline">
		<path fill="#BAE6F9" d="M632.2,504c0,0-0.1-1.5-0.3-3.6c-0.2-2.2-0.3-5.1-0.4-8c-0.1-1.5-0.2-2.9-0.2-4.3c0-1.4,0.1-2.6,0.2-3.7
			c0.3-2.2,0.7-3.7,0.7-3.7h0.2c0,0,0.4,1.5,0.7,3.7c0.1,1.1,0.2,2.4,0.2,3.7c0,1.4-0.2,2.8-0.2,4.3c-0.1,2.9-0.3,5.8-0.4,8
			c-0.2,2.2-0.3,3.6-0.3,3.6H632.2z"/>
	</g>
	<g display="inline">
		<path fill="#BAE6F9" d="M700.9,477.9c0,0-0.1-1.5-0.3-3.7c-0.2-2.2-0.3-5.1-0.4-8c-0.1-1.5-0.2-2.9-0.2-4.3c0-1.4,0.1-2.6,0.2-3.7
			c0.3-2.2,0.7-3.6,0.7-3.6h0.2c0,0,0.4,1.5,0.7,3.6c0.1,1.1,0.2,2.4,0.2,3.7c0,1.4-0.2,2.8-0.2,4.3c-0.2,2.9-0.3,5.8-0.4,8
			c-0.2,2.2-0.3,3.7-0.3,3.7H700.9z"/>
	</g>
	<g display="inline">
		<path fill="#BAE6F9" d="M737.5,498.7c0,0-0.1-1.5-0.3-3.7c-0.2-2.2-0.3-5.1-0.4-8c-0.1-1.5-0.2-2.9-0.2-4.3c0-1.4,0.1-2.6,0.2-3.7
			c0.3-2.2,0.7-3.6,0.7-3.6h0.2c0,0,0.4,1.5,0.7,3.6c0.1,1.1,0.2,2.4,0.2,3.7c0,1.4-0.2,2.8-0.2,4.3c-0.1,2.9-0.3,5.9-0.4,8
			c-0.2,2.2-0.3,3.7-0.3,3.7H737.5z"/>
	</g>
	<g display="inline">
		<path fill="#BAE6F9" d="M631.6,568.6c0,0,0.1,1.7,0.3,4.3c0.2,2.6,0.3,6,0.4,9.5c0.1,1.7,0.2,3.5,0.2,5.1c0,1.6-0.1,3.1-0.2,4.4
			c-0.3,2.6-0.7,4.3-0.7,4.3h-0.2c0,0-0.4-1.7-0.7-4.3c-0.1-1.3-0.2-2.8-0.2-4.4c0-1.6,0.2-3.4,0.2-5.1c0.2-3.5,0.3-6.9,0.4-9.5
			c0.1-2.6,0.3-4.3,0.3-4.3H631.6z"/>
	</g>
	<g display="inline">
		<path fill="#BAE6F9" d="M631.6,611.2c0,0,0.1,1.7,0.3,4.3c0.2,2.6,0.3,6,0.4,9.5c0.1,1.7,0.2,3.5,0.2,5.1c0,1.6-0.1,3.1-0.2,4.4
			c-0.3,2.6-0.7,4.3-0.7,4.3h-0.2c0,0-0.4-1.7-0.7-4.3c-0.1-1.3-0.2-2.8-0.2-4.4c0-1.6,0.2-3.4,0.2-5.1c0.2-3.5,0.3-6.9,0.4-9.5
			c0.1-2.6,0.3-4.3,0.3-4.3H631.6z"/>
	</g>
	<g display="inline">
		<path fill="#BAE6F9" d="M627.4,636.1c0,0,0.1,1.7,0.3,4.3c0.2,2.6,0.3,6,0.4,9.5c0.1,1.7,0.2,3.5,0.2,5.1c0,1.6-0.1,3.1-0.2,4.4
			c-0.3,2.6-0.7,4.3-0.7,4.3h-0.2c0,0-0.4-1.7-0.7-4.3c-0.1-1.3-0.2-2.8-0.2-4.4c0-1.6,0.2-3.3,0.2-5.1c0.2-3.5,0.3-6.9,0.4-9.5
			c0.1-2.6,0.3-4.3,0.3-4.3H627.4z"/>
	</g>
	<g display="inline">
		<path fill="#BAE6F9" d="M625.2,585.2c0,0,0.1,1.7,0.3,4.3c0.2,2.6,0.3,6,0.4,9.5c0.1,1.7,0.2,3.5,0.2,5.1c0,1.6-0.1,3.1-0.2,4.4
			c-0.3,2.6-0.7,4.3-0.7,4.3H625c0,0-0.4-1.7-0.7-4.3c-0.1-1.3-0.2-2.8-0.2-4.4c0-1.6,0.2-3.3,0.2-5.1c0.2-3.5,0.3-6.9,0.4-9.5
			c0.1-2.6,0.3-4.3,0.3-4.3H625.2z"/>
	</g>
	<g display="inline">
		<path fill="#BAE6F9" d="M667,526.2c0,0,0.1,4.6,0.3,11.6c0.2,7,0.3,16.3,0.5,25.6c0.1,4.6,0.2,9.3,0.2,13.6c0,2.2,0,4.3-0.1,6.3
			c0,2-0.1,3.9-0.2,5.6c-0.1,1.7-0.2,3.3-0.2,4.8c-0.1,1.4-0.1,2.6-0.2,3.7c-0.1,2-0.3,3.2-0.3,3.2h-0.2c0,0-0.1-1.2-0.3-3.2
			c-0.1-1-0.1-2.3-0.2-3.7s-0.2-3-0.2-4.8c-0.1-1.7-0.1-3.6-0.2-5.6c-0.1-2,0-4.1-0.1-6.3c0-4.4,0.1-9,0.2-13.6
			c0.2-9.3,0.3-18.6,0.5-25.6c0.1-7,0.3-11.6,0.3-11.6H667z"/>
	</g>
	<g display="inline">
		<path fill="#BAE6F9" d="M660.4,589.5c0,0-0.1-1.5-0.3-3.7c-0.2-2.2-0.3-5.1-0.4-8c-0.1-1.5-0.2-2.9-0.2-4.3c0-1.4,0.1-2.6,0.2-3.7
			c0.3-2.2,0.7-3.6,0.7-3.6h0.2c0,0,0.4,1.5,0.7,3.6c0.1,1.1,0.2,2.4,0.2,3.7c0,1.4-0.2,2.8-0.2,4.3c-0.2,2.9-0.3,5.9-0.4,8
			c-0.2,2.2-0.3,3.7-0.3,3.7H660.4z"/>
	</g>
	<g display="inline">
		<path fill="#BAE6F9" d="M667,568.6c0,0,0.1,1.7,0.3,4.3c0.2,2.6,0.3,6,0.4,9.5c0.1,1.7,0.2,3.5,0.2,5.1c0,1.6-0.1,3.1-0.2,4.4
			c-0.3,2.6-0.7,4.3-0.7,4.3h-0.2c0,0-0.4-1.7-0.7-4.3c-0.1-1.3-0.2-2.8-0.2-4.4c0-1.6,0.2-3.4,0.2-5.1c0.2-3.5,0.3-6.9,0.4-9.5
			c0.2-2.6,0.3-4.3,0.3-4.3H667z"/>
	</g>
	<g display="inline">
		<path fill="#BAE6F9" d="M660.6,585.2c0,0,0.1,1.8,0.3,4.6c0.2,2.8,0.3,6.4,0.4,10.1c0.1,1.8,0.2,3.7,0.2,5.4
			c0,1.7-0.1,3.3-0.2,4.7c-0.3,2.8-0.7,4.6-0.7,4.6h-0.2c0,0-0.4-1.8-0.7-4.6c-0.1-1.4-0.2-3-0.2-4.7c0-1.7,0.2-3.6,0.2-5.4
			c0.2-3.7,0.3-7.3,0.4-10.1c0.2-2.8,0.3-4.6,0.3-4.6H660.6z"/>
	</g>
	<g display="inline">
		<path fill="#BAE6F9" d="M671.5,596.5c0,0,0.1,1.8,0.3,4.6c0.2,2.8,0.3,6.4,0.4,10.1c0.1,1.8,0.2,3.7,0.2,5.4
			c0,1.7-0.1,3.3-0.2,4.7c-0.3,2.8-0.7,4.6-0.7,4.6h-0.2c0,0-0.4-1.8-0.7-4.6c-0.1-1.4-0.2-3-0.2-4.7c0-1.7,0.2-3.6,0.2-5.4
			c0.2-3.7,0.3-7.3,0.4-10.1c0.2-2.8,0.3-4.6,0.3-4.6H671.5z"/>
	</g>
	<g display="inline">
		<path fill="#BAE6F9" d="M468.7,520.7c0,0,0.1,1.7,0.3,4.3c0.2,2.6,0.3,6,0.4,9.5c0.1,1.7,0.2,3.5,0.2,5.1c0,1.6-0.1,3.1-0.2,4.4
			c-0.3,2.6-0.7,4.3-0.7,4.3h-0.2c0,0-0.4-1.7-0.7-4.3c-0.1-1.3-0.2-2.8-0.2-4.4c0-1.6,0.2-3.3,0.2-5.1c0.1-3.5,0.3-6.9,0.4-9.5
			c0.2-2.6,0.3-4.3,0.3-4.3H468.7z"/>
	</g>
	<g display="inline">
		<path fill="#BAE6F9" d="M656.3,616.6c0,0,0.1,0.9,0.4,2.1c0.3,1.2,0.8,2.9,1.5,4.2c0.2,0.4,0.4,0.6,0.7,0.9
			c0.3,0.3,0.5,0.6,0.7,0.8c0.2,0.3,0.4,0.5,0.6,0.7c0.2,0.2,0.5,0.4,0.7,0.6c0.2,0.2,0.4,0.3,0.7,0.4c0.2,0.2,0.4,0.2,0.6,0.3
			c0.3,0.2,0.5,0.3,0.5,0.3v0.2c0,0-0.2,0.1-0.6,0.2c-0.2,0-0.5,0.1-0.8,0.1c-0.3,0-0.6,0-1-0.1c-0.4-0.1-0.8-0.2-1.1-0.4
			c-0.4-0.2-0.8-0.5-1.1-0.8c-0.3-0.3-0.6-0.8-0.8-1.2c-0.2-0.4-0.4-0.9-0.5-1.3c-0.1-0.4-0.3-0.9-0.4-1.3c-0.1-0.4-0.2-0.9-0.2-1.3
			c0-0.4-0.1-0.8-0.1-1.2c0-0.4,0-0.7,0-1.1c0-1.3,0.1-2.2,0.1-2.2L656.3,616.6L656.3,616.6z"/>
	</g>
	<g display="inline">
		<path fill="#BAE6F9" d="M695,569.6c0,0,0.1,0.9,0.4,2.1c0.3,1.2,0.8,2.9,1.5,4.2c0.2,0.4,0.4,0.7,0.7,1c0.3,0.3,0.5,0.5,0.7,0.8
			c0.2,0.3,0.4,0.5,0.6,0.7c0.2,0.2,0.5,0.4,0.7,0.6c0.2,0.2,0.4,0.3,0.6,0.4c0.2,0.2,0.4,0.2,0.6,0.3c0.3,0.2,0.5,0.3,0.5,0.3v0.2
			c0,0-0.2,0.1-0.6,0.2c-0.2,0-0.5,0.1-0.8,0.1c-0.3,0-0.6,0-1-0.1c-0.4-0.1-0.8-0.2-1.1-0.4c-0.4-0.2-0.8-0.5-1.1-0.9
			c-0.3-0.3-0.6-0.8-0.8-1.2c-0.2-0.4-0.4-0.9-0.5-1.3c-0.2-0.4-0.3-0.9-0.4-1.3c-0.1-0.4-0.2-0.9-0.2-1.3c0-0.4-0.1-0.8-0.1-1.2
			c0-0.4,0-0.7,0-1.1c0-1.3,0.1-2.2,0.1-2.2L695,569.6z"/>
	</g>
	<g display="inline">
		<path fill="#BAE6F9" d="M619.4,660.8c0,0,0.1,0.9,0.4,2.1c0.3,1.2,0.8,2.9,1.5,4.2c0.2,0.4,0.4,0.7,0.7,1c0.3,0.3,0.5,0.5,0.7,0.8
			c0.2,0.3,0.4,0.5,0.7,0.7c0.2,0.2,0.5,0.4,0.7,0.6c0.2,0.2,0.4,0.3,0.6,0.4c0.2,0.2,0.4,0.2,0.6,0.3c0.3,0.2,0.5,0.3,0.5,0.3v0.2
			c0,0-0.2,0.1-0.6,0.2c-0.2,0-0.5,0.1-0.8,0.1c-0.3,0-0.6,0-1-0.1c-0.4-0.1-0.8-0.2-1.1-0.4c-0.4-0.2-0.8-0.5-1.1-0.9
			c-0.3-0.3-0.6-0.8-0.8-1.2c-0.2-0.4-0.4-0.9-0.5-1.3c-0.2-0.4-0.3-0.9-0.4-1.3c-0.1-0.4-0.2-0.9-0.2-1.3c0-0.4-0.1-0.8-0.1-1.2
			c0-0.4,0-0.7,0-1.1c0-1.3,0.1-2.2,0.1-2.2L619.4,660.8z"/>
	</g>
	<g display="inline">
		<path fill="#BAE6F9" d="M635.9,655.6c0,0,0.1,0.9,0.4,2.1c0.3,1.2,0.8,2.9,1.5,4.2c0.2,0.4,0.4,0.7,0.6,1c0.3,0.3,0.5,0.5,0.7,0.8
			c0.2,0.3,0.4,0.5,0.7,0.7c0.2,0.2,0.4,0.4,0.6,0.6c0.2,0.2,0.4,0.3,0.6,0.4c0.2,0.2,0.4,0.2,0.6,0.3c0.3,0.2,0.6,0.3,0.6,0.3v0.2
			c0,0-0.2,0.1-0.6,0.2c-0.2,0-0.5,0.1-0.8,0.1c-0.3,0-0.6,0-1-0.1c-0.4-0.1-0.8-0.2-1.1-0.4c-0.4-0.2-0.8-0.5-1.1-0.9
			c-0.3-0.3-0.6-0.8-0.8-1.2c-0.2-0.4-0.4-0.9-0.5-1.3c-0.2-0.4-0.3-0.9-0.4-1.3c-0.1-0.4-0.2-0.9-0.2-1.3c0-0.4-0.1-0.8-0.1-1.2
			c0-0.4,0-0.7,0-1.1c0-1.3,0.1-2.2,0.1-2.2L635.9,655.6z"/>
	</g>
	<g display="inline">
		<path fill="#BAE6F9" d="M540,645.5c0,0,0.1,0.9,0.1,2.2c0,0.3,0,0.7,0,1.1c0,0.4-0.1,0.8-0.1,1.2c-0.1,0.4-0.1,0.8-0.2,1.3
			c-0.1,0.4-0.2,0.9-0.4,1.3c-0.1,0.4-0.3,0.9-0.5,1.3c-0.2,0.4-0.4,0.8-0.8,1.2c-0.3,0.4-0.7,0.6-1.1,0.9c-0.4,0.2-0.8,0.3-1.1,0.4
			c-0.4,0.1-0.7,0.1-1,0.1c-0.3,0-0.6-0.1-0.8-0.1c-0.4-0.1-0.6-0.2-0.6-0.2v-0.2c0,0,0.2-0.1,0.5-0.3c0.2-0.1,0.4-0.1,0.6-0.3
			c0.2-0.1,0.4-0.3,0.7-0.4c0.2-0.2,0.4-0.3,0.6-0.6c0.2-0.2,0.4-0.4,0.7-0.7c0.2-0.2,0.5-0.5,0.7-0.8c0.2-0.3,0.5-0.6,0.6-1
			c0.8-1.4,1.2-3,1.5-4.2c0.3-1.2,0.4-2.1,0.4-2.1L540,645.5L540,645.5z"/>
	</g>
	<g display="inline">
		<path fill="#BAE6F9" d="M549.7,652.6c0,0,0.1,0.9,0.1,2.2c0,0.3,0,0.7,0,1.1c0,0.4-0.1,0.8-0.1,1.2c-0.1,0.4-0.1,0.9-0.2,1.3
			c-0.1,0.4-0.2,0.9-0.4,1.3c-0.1,0.4-0.3,0.9-0.5,1.3c-0.2,0.4-0.4,0.8-0.8,1.2c-0.3,0.4-0.7,0.6-1.1,0.8c-0.4,0.2-0.8,0.3-1.1,0.4
			c-0.4,0.1-0.7,0.1-1,0.1c-0.3,0-0.6-0.1-0.8-0.1c-0.4-0.1-0.6-0.2-0.6-0.2v-0.2c0,0,0.2-0.1,0.5-0.3c0.2-0.1,0.4-0.1,0.6-0.3
			c0.2-0.1,0.4-0.3,0.6-0.4c0.2-0.2,0.4-0.3,0.7-0.6c0.2-0.2,0.4-0.4,0.7-0.7c0.2-0.2,0.5-0.5,0.7-0.8c0.2-0.3,0.5-0.6,0.7-1
			c0.8-1.4,1.2-3,1.5-4.2c0.3-1.2,0.4-2.1,0.4-2.1L549.7,652.6L549.7,652.6L549.7,652.6z"/>
	</g>
	<g display="inline">
		<path fill="#BAE6F9" d="M519.2,603.8c0,0,0.1,0.9,0.1,2.2c0,0.3,0,0.7,0,1.1c0,0.4-0.1,0.8-0.1,1.2c-0.1,0.4-0.1,0.8-0.2,1.3
			c-0.1,0.4-0.2,0.9-0.4,1.3c-0.1,0.4-0.3,0.9-0.5,1.3c-0.2,0.4-0.4,0.8-0.8,1.2c-0.3,0.4-0.7,0.6-1.1,0.8c-0.4,0.2-0.8,0.3-1.1,0.4
			c-0.4,0.1-0.7,0.1-1,0.1c-0.3,0-0.6-0.1-0.8-0.1c-0.4-0.1-0.6-0.2-0.6-0.2v-0.2c0,0,0.2-0.1,0.5-0.3c0.2-0.1,0.4-0.1,0.6-0.3
			c0.2-0.1,0.4-0.3,0.7-0.4c0.2-0.2,0.4-0.3,0.6-0.6c0.2-0.2,0.4-0.4,0.7-0.7c0.2-0.2,0.5-0.5,0.7-0.8c0.2-0.3,0.5-0.6,0.7-0.9
			c0.8-1.4,1.2-3,1.5-4.2c0.3-1.2,0.4-2.1,0.4-2.1L519.2,603.8L519.2,603.8z"/>
	</g>
	<g display="inline">
		<path fill="#BAE6F9" d="M482.8,549.2c0,0,0.1,0.9,0.1,2.2c0,0.3,0,0.7,0,1.1c0,0.4-0.1,0.8-0.1,1.2c-0.1,0.4-0.1,0.8-0.2,1.3
			c-0.1,0.4-0.2,0.9-0.4,1.3c-0.1,0.4-0.3,0.9-0.5,1.3c-0.2,0.4-0.4,0.8-0.8,1.2c-0.3,0.4-0.7,0.6-1.1,0.9c-0.4,0.2-0.8,0.3-1.1,0.4
			c-0.4,0.1-0.7,0.1-1,0.1c-0.3,0-0.6-0.1-0.8-0.1c-0.4-0.1-0.6-0.2-0.6-0.2v-0.2c0,0,0.2-0.1,0.5-0.3c0.2-0.1,0.4-0.2,0.6-0.3
			c0.2-0.1,0.4-0.3,0.6-0.4c0.2-0.2,0.4-0.3,0.7-0.6c0.2-0.2,0.4-0.4,0.7-0.7c0.2-0.2,0.5-0.5,0.7-0.8c0.2-0.3,0.5-0.6,0.7-1
			c0.8-1.4,1.2-3,1.5-4.2c0.3-1.2,0.4-2.1,0.4-2.1L482.8,549.2z"/>
	</g>
	<g display="inline">
		<path fill="#BAE6F9" d="M743.6,517.8c0,0,0.1,0.9,0.4,2.1c0.3,1.2,0.8,2.9,1.5,4.2c0.2,0.4,0.4,0.7,0.7,1c0.3,0.3,0.5,0.5,0.7,0.8
			c0.2,0.3,0.4,0.5,0.7,0.7c0.2,0.2,0.5,0.4,0.7,0.6c0.2,0.2,0.4,0.3,0.6,0.4c0.2,0.2,0.4,0.2,0.6,0.3c0.3,0.2,0.5,0.3,0.5,0.3v0.2
			c0,0-0.2,0.1-0.6,0.2c-0.2,0-0.5,0.1-0.8,0.1c-0.3,0-0.6,0-1-0.1c-0.4-0.1-0.8-0.2-1.1-0.4c-0.4-0.2-0.8-0.5-1.1-0.9
			c-0.3-0.3-0.6-0.8-0.8-1.2c-0.2-0.4-0.4-0.9-0.5-1.3c-0.2-0.4-0.3-0.9-0.4-1.3c-0.1-0.4-0.2-0.9-0.2-1.3c0-0.4-0.1-0.8-0.1-1.2
			c0-0.4,0-0.7,0-1.1c0-1.3,0.1-2.2,0.1-2.2L743.6,517.8z"/>
	</g>
	<g display="inline">
		<path fill="#BAE6F9" d="M752.3,531.5c0,0,1.4-0.1,3.5-0.3c2.1-0.2,4.9-0.3,7.7-0.4c1.4-0.1,2.8-0.2,4.1-0.2c1.3,0,2.5,0.1,3.6,0.2
			c2.1,0.3,3.5,0.7,3.5,0.7v0.2c0,0-1.4,0.4-3.5,0.7c-1.1,0.1-2.3,0.2-3.6,0.2c-1.3,0-2.7-0.2-4.1-0.2c-2.8-0.1-5.6-0.3-7.7-0.4
			c-2.1-0.2-3.5-0.3-3.5-0.3L752.3,531.5L752.3,531.5z"/>
	</g>
	<g display="inline">
		<path fill="#BAE6F9" d="M713.4,573.6c0,0,1.4-0.1,3.5-0.3c2.1-0.2,4.9-0.3,7.7-0.4c1.4-0.1,2.8-0.2,4.1-0.2c1.3,0,2.5,0.1,3.6,0.2
			c2.1,0.3,3.5,0.7,3.5,0.7v0.2c0,0-1.4,0.4-3.5,0.7c-1.1,0.1-2.3,0.2-3.6,0.2c-1.3,0-2.7-0.2-4.1-0.2c-2.8-0.2-5.6-0.3-7.7-0.4
			c-2.1-0.1-3.5-0.3-3.5-0.3L713.4,573.6L713.4,573.6z"/>
	</g>
	<g display="inline">
		<path fill="#BAE6F9" d="M732.3,579c0,0,1.4-0.1,3.5-0.3c2.1-0.2,4.9-0.3,7.7-0.4c1.4-0.1,2.8-0.2,4.1-0.2c1.3,0,2.5,0.1,3.6,0.2
			c2.1,0.3,3.5,0.7,3.5,0.7v0.2c0,0-1.4,0.4-3.5,0.7c-1.1,0.1-2.3,0.2-3.6,0.2c-1.3,0-2.7-0.2-4.1-0.2c-2.8-0.1-5.6-0.3-7.7-0.4
			c-2.1-0.2-3.5-0.3-3.5-0.3L732.3,579L732.3,579z"/>
	</g>
</g>
<g id="bloc_txt_en_bas" display="none">
	<rect x="42.5" y="683.2" display="inline" fill="none" stroke="#000000" stroke-miterlimit="10" width="1105.5" height="85"/>
	<g display="inline">
		<rect x="42.5" y="683.2" fill="none" width="265.7" height="85"/>
		<text transform="matrix(1 0 0 1 42.5198 690.252)" font-family="'ArialMT'" font-size="10">regem superasset Antiochum. quam autem sit pulchrum exigua </text>
		<text transform="matrix(1 0 0 1 42.5198 702.252)" font-family="'ArialMT'" font-size="10">haec spernentem et minima ad ascensus verae gloriae tendere </text>
		<text transform="matrix(1 0 0 1 42.5198 714.252)" font-family="'ArialMT'" font-size="10">longos et arduos, ut memorat vates Ascraeus, Censorius Cato </text>
		<text transform="matrix(1 0 0 1 42.5198 726.252)" font-family="'ArialMT'" font-size="10">monstravit. qui interrogatus quam ob rem inter multos... </text>
		<text transform="matrix(1 0 0 1 42.5198 738.252)" font-family="'ArialMT'" font-size="10">statuam non haberet malo inquit ambigere bonos quam ob </text>
		<text transform="matrix(1 0 0 1 42.5198 750.252)" font-family="'ArialMT'" font-size="10">rem id non meruerim, quam quod est gravius cur inpetraverim </text>
		<text transform="matrix(1 0 0 1 42.5198 762.252)" font-family="'ArialMT'" font-size="10">mussitare.</text>
	</g>
	<rect x="322.4" y="683.2" display="inline" fill="none" width="265.7" height="85"/>
	<text transform="matrix(1 0 0 1 322.4417 690.252)" display="inline" font-family="'ArialMT'" font-size="10">Alii nullo quaerente vultus severitate adsimulata patrimonia sua </text>
	<text transform="matrix(1 0 0 1 322.4417 702.252)" display="inline" font-family="'ArialMT'" font-size="10">in inmensum extollunt, cultorum ut puta feracium multipli</text>
	<text transform="matrix(1 0 0 1 564.7258 702.252)" display="inline" font-family="'ArialMT'" font-size="10">-</text>
	<text transform="matrix(1 0 0 1 322.4417 714.252)" display="inline" font-family="'ArialMT'" font-size="10">cantes annuos fructus, quae a primo ad ultimum solem se </text>
	<text transform="matrix(1 0 0 1 322.4417 726.252)" display="inline" font-family="'ArialMT'" font-size="10">abunde iactitant possidere, ignorantes profecto maiores suos, </text>
	<text transform="matrix(1 0 0 1 322.4417 738.252)" display="inline" font-family="'ArialMT'" font-size="10">per quos ita magnitudo Romana porrigitur, non divitiis eluxisse </text>
	<text transform="matrix(1 0 0 1 322.4417 750.252)" display="inline" font-family="'ArialMT'" font-size="10">sed per bella saevissima, nec opibus nec victu nec indumento</text>
	<text transform="matrix(1 0 0 1 577.7542 750.252)" display="inline" font-family="'ArialMT'" font-size="10">-</text>
	<text transform="matrix(1 0 0 1 322.4417 762.252)" display="inline" font-family="'ArialMT'" font-size="10">rum vilitate gregariis militibus discrepantes opposita cuncta </text>
	<rect x="602.4" y="683.2" display="inline" fill="none" width="265.7" height="85"/>
	<text transform="matrix(1 0 0 1 602.3616 690.252)" display="inline" font-family="'ArialMT'" font-size="10">superasse virtute.</text>
	<text transform="matrix(1 0 0 1 602.3616 702.252)" display="inline" font-family="'ArialMT'" font-size="10">Constituendi autem sunt qui sint in amicitia fines et quasi </text>
	<text transform="matrix(1 0 0 1 602.3616 714.252)" display="inline" font-family="'ArialMT'" font-size="10">termini diligendi. De quibus tres video sententias ferri, quarum </text>
	<text transform="matrix(1 0 0 1 602.3616 726.252)" display="inline" font-family="'ArialMT'" font-size="10">nullam probo, unam, ut eodem modo erga amicum adfecti </text>
	<text transform="matrix(1 0 0 1 602.3616 738.252)" display="inline" font-family="'ArialMT'" font-size="10">simus, quo erga nosmet ipsos, alteram, ut nostra in amicos </text>
	<text transform="matrix(1 0 0 1 602.3616 750.252)" display="inline" font-family="'ArialMT'" font-size="10">benevolentia illorum erga nos benevolentiae pariter aequali</text>
	<text transform="matrix(1 0 0 1 851.5452 750.252)" display="inline" font-family="'ArialMT'" font-size="10">-</text>
	<text transform="matrix(1 0 0 1 602.3616 762.252)" display="inline" font-family="'ArialMT'" font-size="10">terque respondeat, tertiam, ut, quanti quisque se ipse facit, </text>
	<rect x="882.3" y="683.2" display="inline" fill="none" width="265.7" height="85"/>
	<text transform="matrix(1 0 0 1 882.2844 690.252)" display="inline" font-family="'ArialMT'" font-size="10">tanti fiat ab amicis.</text>
	<text transform="matrix(1 0 0 1 882.2844 714.252)" display="inline" font-family="'ArialMT'" font-size="10">Ex his quidam aeternitati se commendari posse per statuas </text>
	<text transform="matrix(1 0 0 1 882.2844 726.252)" display="inline" font-family="'ArialMT'" font-size="10">aestimantes eas ardenter adfectant quasi plus praemii de </text>
	<text transform="matrix(1 0 0 1 882.2844 738.252)" display="inline" font-family="'ArialMT'" font-size="10">figmentis aereis sensu carentibus adepturi, quam ex conscientia </text>
	<text transform="matrix(1 0 0 1 882.2844 750.252)" display="inline" font-family="'ArialMT'" font-size="10">honeste recteque factorum, easque auro curant inbracteari, </text>
	<text transform="matrix(1 0 0 1 882.2844 762.252)" display="inline" font-family="'ArialMT'" font-size="10">quod Acilio Glabrioni delatum est primo, cum consiliis armisque </text>
</g>
<g id="menages" display="none">
	<g display="inline">
		<path d="M1006.3,439.8c0.7-0.5,1.3-1.1,2-1.5c1.7-0.7,2.2-1.2,2.1-3.1c-0.1-2.7-0.4-5.3-0.5-8c-0.2-5.1-0.4-10.1-0.4-15.1
			c0-4,0.2-8.1,0.6-12.1c0.2-2.2,1-4.4,1.6-6.5c0.1-0.4,0.5-0.8,0.9-1c1.5-0.8,3.1-1.4,4.6-2.1c0.3-0.1,0.7-0.1,1,0.1
			c1.6,0.8,3.3,1.5,4.9,2.4c0.4,0.2,0.8,0.8,0.9,1.2c1.3,4.7,2,9.4,1.8,14.3c-0.2,7.1-0.5,14.2-0.8,21.3c-0.1,2-0.4,4-0.5,6
			c-0.1,1.6,0.2,2,1.6,2.8c0.6,0.3,1.3,0.6,1.7,1.1c0.4,0.4,1,1,0.1,1.6c-2.2,0-4.4,0-6.7,0c-0.4-0.1-0.8-0.2-1.1-0.3
			c-0.2-2.9-0.4-5.7-0.6-8.5c-0.2-2.9-0.4-5.9-0.6-8.8c0-0.6-0.2-0.9-0.8-0.9c-2.5,0-2.1-0.4-2.2,2.1c0,0.2,0,0.5-0.1,0.7
			c-0.4,4.9-0.9,9.7-1.3,14.6c-0.1,0.7-0.3,0.9-1,0.9c-2.5,0-4.9,0-7.4,0C1006.3,440.5,1006.3,440.2,1006.3,439.8z M1025.1,438.9
			c-1.4-1.2-1.5-1.6-1.4-3.4c0.1-0.8,0.2-1.7,0.2-2.5c0.2-3.1,0.3-6.2,0.5-9.3c0-0.8-0.2-1.1-1-1c-0.9,0-1.7,0-2.6-0.1
			c-0.9-0.1-1.1,0.3-1,1.1c0.4,4.9,0.7,9.7,1.1,14.6c0,0.2,0.3,0.6,0.4,0.6C1022.5,438.9,1023.8,438.9,1025.1,438.9z M1013.8,438.8
			c0-0.3,0.1-0.5,0.1-0.7c0.3-2.3,0.5-4.7,0.7-7c0.2-2.5,0.4-5,0.6-7.5c0.1-0.8-0.2-1.1-1-1c-0.9,0.1-1.7,0.1-2.6,0
			c-0.8-0.1-1.1,0.2-1.1,1c0.2,2.7,0.4,5.4,0.5,8.2c0,2.4,1.4,5-1.3,7C1011.2,438.8,1012.4,438.8,1013.8,438.8z"/>
		<path d="M1018.7,389.8c1.1-0.6,1.9-1,2.7-1.5c0.1,0,0-0.2,0-0.6c-0.8,0.3-1.4,0.6-2.1,0.8c-2.8,1.2-5.5,2.5-8.4,3.7
			c-2.8,1.1-4.4,0-4.4-3c0-4.2,0-8.4,0.2-12.6c0.1-2.1,1.4-3.1,3.5-3.2c1,0,2.1,0,3.1,0c1.5,0,1.9-0.6,1.5-2.1
			c-0.5-1.8-1-3.6-1.1-5.5c-0.1-1.9,0.2-3.8,1.9-5c2.4-1.7,5.4-0.6,6.3,2.3c0.6,2.3,0.4,4.5-0.4,6.7c-0.3,0.8-0.4,1.6-0.5,2.4
			c-0.1,0.8,0.4,1.3,1.3,1.2c1.1-0.1,2.2,0,3.3,0c2.2,0,3.5,1.2,3.5,3.4c0,3.9,0,7.9-0.1,11.8c0,0.6-0.1,1.2-0.3,1.7
			c-0.6,1.9-2,2.7-3.9,2C1022.9,391.8,1020.9,390.8,1018.7,389.8z M1015,362.9c-0.9,2.3-0.6,4.5,0,6.6c0.4,1.5,1.5,2.3,2.9,2.3
			c1.3,0,2.7-0.9,3-2.2c0.4-1.7,0.4-3.4,0.5-5.1c0-0.4-0.2-0.8-0.4-1.3C1018.9,364.3,1017,364.5,1015,362.9z M1010.1,388
			c3.3-1.2,6.4-2.4,9.5-3.6c0.1-0.1,0.2-0.4,0.3-0.5c-0.2,0-0.4-0.2-0.6-0.1c-0.8,0.3-1.6,0.6-2.4,0.9c-0.3,0.1-0.8,0.1-1.1,0
			c-1.6-0.8-3.2-1.3-4.8,0.2c0-1.5,0-2.8,0-4.1c0-0.2-0.3-0.4-0.4-0.6c-0.1,0.2-0.4,0.4-0.4,0.6
			C1010.1,383.1,1010.1,385.4,1010.1,388z M1025.5,388.1c0.1-0.4,0.1-0.6,0.1-0.9c0-2.1,0-4.2,0-6.2c0-0.3-0.3-0.6-0.4-0.9
			c-0.1,0.3-0.4,0.6-0.4,0.9c0,1.4,0,2.9,0,4.5c-1.5-1.5-2.9-2.2-4.9-1.2c0.5,0.9,0.7,2.2,1.4,2.5
			C1022.5,387.6,1024,387.7,1025.5,388.1z M1015.9,372c-0.6,1.8-0.4,2.1,1,2.3c0.6,0.1,1.3,0.1,2,0c1.8-0.2,2-0.6,1.2-2.4
			C1018.7,372.7,1017.3,372.7,1015.9,372z"/>
		<path fill="#FFFFFF" d="M1025.1,438.9c-1.4,0-2.6,0-3.8,0c-0.2,0-0.4-0.4-0.4-0.6c-0.4-4.9-0.7-9.7-1.1-14.6
			c-0.1-0.8,0.2-1.2,1-1.1c0.9,0.1,1.7,0.1,2.6,0.1c0.8,0,1,0.3,1,1c-0.2,3.1-0.4,6.2-0.5,9.3c0,0.8-0.2,1.7-0.2,2.5
			C1023.6,437.3,1023.7,437.7,1025.1,438.9z"/>
		<path fill="#FFFFFF" d="M1013.8,438.8c-1.3,0-2.6,0-4.1,0c2.7-2,1.3-4.7,1.3-7c0-2.7-0.3-5.4-0.5-8.2c0-0.8,0.2-1.1,1.1-1
			c0.9,0.1,1.7,0.1,2.6,0c0.8,0,1.1,0.3,1,1c-0.2,2.5-0.4,5-0.6,7.5c-0.2,2.3-0.5,4.7-0.7,7C1013.9,438.3,1013.8,438.5,1013.8,438.8
			z"/>
		<path fill="#FFFFFF" d="M1015,362.9c2,1.6,3.9,1.4,6.1,0.2c0.1,0.5,0.4,0.9,0.4,1.3c-0.1,1.7-0.1,3.4-0.5,5.1
			c-0.3,1.4-1.7,2.3-3,2.2c-1.3,0-2.4-0.8-2.9-2.3C1014.4,367.4,1014.1,365.3,1015,362.9z"/>
		<path fill="#FFFFFF" d="M1010.1,388c0-2.6,0-5,0-7.3c0-0.2,0.3-0.4,0.4-0.6c0.1,0.2,0.4,0.4,0.4,0.6c0,1.3,0,2.6,0,4.1
			c1.6-1.5,3.2-1,4.8-0.2c0.3,0.1,0.7,0.1,1.1,0c0.8-0.3,1.6-0.6,2.4-0.9c0.2-0.1,0.4,0.1,0.6,0.1c-0.1,0.2-0.2,0.5-0.3,0.5
			C1016.4,385.6,1013.3,386.8,1010.1,388z"/>
		<path fill="#FFFFFF" d="M1025.5,388.1c-1.5-0.4-3-0.6-4.3-1.2c-0.7-0.4-0.9-1.6-1.4-2.5c2-1,3.5-0.3,4.9,1.2c0-1.7,0-3.1,0-4.5
			c0-0.3,0.3-0.6,0.4-0.9c0.1,0.3,0.4,0.6,0.4,0.9c0,2.1,0,4.2,0,6.2C1025.6,387.5,1025.6,387.8,1025.5,388.1z"/>
		<path fill="#FFFFFF" d="M1015.9,372c1.4,0.8,2.8,0.7,4.2-0.1c0.7,1.8,0.6,2.2-1.2,2.4c-0.6,0.1-1.3,0.1-2,0
			C1015.4,374,1015.3,373.7,1015.9,372z"/>
	</g>
	<g display="inline">
		<g>
			<path d="M1030.4,440.4c0.4-0.4,0.7-1,1.2-1.2c0.6-0.3,0.8-0.7,0.9-1.4c0.3-4.6,0.7-9.2,1-13.8c0.5-6.5,0.9-13,1.4-19.4
				c0-0.7,0.1-1.4,0.1-2.1c0.1-1.4,0.1-1.4,1.5-1.4c4.4,0,8.7,0,13.1,0.1c0.5,0,1,0.1,1.6,0c1-0.1,1.3,0.3,1.4,1.3
				c0.3,4.4,0.6,8.7,0.9,13c0.5,6.1,1,12.2,1.4,18.3c0.1,1.2,0.2,2.5,0.2,3.7c0,0.7,0.1,1.2,0.8,1.4c0.2,0.1,0.3,0.2,0.4,0.3
				c0.3,0.5,0.6,0.9,0.9,1.4c-0.4,0.1-0.9,0.3-1.4,0.3c-2.8,0-5.6,0-8.4,0c-0.2,0-0.5,0-0.8-0.1c-0.9-8.4-1.8-16.8-2.7-25.1
				c-0.1,0-0.2,0-0.4,0c-0.1,0.8-0.2,1.5-0.3,2.3c-0.7,7.3-1.4,14.5-2.1,21.8c-0.1,0.9-0.4,1.2-1.3,1.2c-2.8-0.1-5.6,0-8.4,0
				c-0.3,0-0.5-0.1-0.8-0.1C1030.6,440.6,1030.5,440.5,1030.4,440.4z"/>
			<path d="M1043.4,364.4C1043.4,364.4,1043.4,364.4,1043.4,364.4c-0.9,0-1.7,0-2.6,0c-0.7,0-0.9,0.3-0.8,1c0.2,1.7,0.4,3.4,0.6,5.1
				c0.2,2,1.3,3.1,3.1,3.1c1.8,0.1,3.1-0.9,3.4-2.8c0.3-1.8,0.4-3.7,0.6-5.6c0.1-0.6-0.1-0.9-0.8-0.9
				C1045.6,364.4,1044.5,364.4,1043.4,364.4z M1057.1,384.6c0-2.6,0-5.2-0.1-7.8c-0.1-2.2-1.1-3.1-3.3-3.1c-1.7,0-3.4,0-5.1,0.1
				c-0.9,0-1.2-0.3-1-1.2c0.3-2.3,0.5-4.6,0.7-6.9c0.1-0.7,0.2-1.2,0.9-1.5c0.7-0.3,0.9-0.8,0.2-1.3c-0.7-0.5-1.4-1-2.1-1.4
				c-2.1-1.2-4.3-1.5-6.6-0.2c-0.7,0.4-1.4,0.8-2.1,1.2c-1,0.6-1,1.2-0.2,2c0.3,0.3,0.6,0.8,0.7,1.2c0.3,2.3,0.6,4.7,0.9,7
				c0.1,0.8-0.1,1.2-0.9,1.2c-1.7,0-3.5-0.1-5.2-0.1c-1,0-1.9,0.1-2.6,1c-0.7,1-1,2-1,3.2c0,2.7-0.1,5.4,0,8.1c0,1.9,0,3.9,0.2,5.8
				c0.2,2.1,1.6,3,3.7,2.5c0.9-0.2,1.8-0.6,2.6-0.9c3.1-1.2,6.3-2.3,9.4-3.5c0.6-0.2,0.8-0.5,0.5-1.2c-0.3-0.7-0.6-1.4-0.8-2.2h0
				c-0.1-0.3-0.2-0.6-0.3-0.9c-0.2-0.7-0.5-0.9-1.3-0.6c-2.8,1-5.6,2-8.4,3c-0.4,0.1-0.8,0.2-1.4,0.4c0-2.5,0-4.9,0-7.3
				c0-0.3,0.2-0.6,0.4-0.9c0.1,0.3,0.4,0.6,0.4,0.9c0,1.4,0,2.9,0,4.5c0.6-0.5,1-0.9,1.4-1.2c1.5-0.9,2.9-0.4,4.4,0.2
				c0.5,0.2,1.1,0.3,1.6,0.2c1.3-0.3,2.6-0.8,4-0.8c2.1,0,3.8,0.3,5,2.5c0.1-0.4,0.1-0.6,0.1-0.7c0-1.6,0-3.2,0-4.8
				c0-0.3,0.3-0.5,0.4-0.8c0.1,0.3,0.4,0.5,0.4,0.8c0,1.2,0,2.5,0,3.7v3.9c-2-0.5-3.8-1-5.7-1.5c0.3,0.8,0.4,1.3,0.7,1.8
				c0.4,0.8,0.3,1.3-0.7,1.5c-0.7,0.2-1.4,0.5-2.3,0.9c3.1,1.1,5.8,2.1,8.6,3c1.1,0.4,2.2,0,2.8-1c0.4-0.8,0.7-1.7,0.8-2.6
				C1057.2,388.6,1057.1,386.6,1057.1,384.6z"/>
			<path d="M1043.7,400.3c-2.5,0-5.1,0-7.6,0c-0.8,0-1.1-0.2-1.2-1c-0.1-1.1-0.2-2.2-0.4-3.3c-0.1-0.6,0.1-0.9,0.7-1.1
				c2.6-0.9,5.2-1.9,7.8-2.9c0.4-0.1,1-0.2,1.4,0c2.6,0.9,5.3,1.9,7.9,2.8c0.6,0.2,0.8,0.4,0.6,1.1c-0.2,1.2-0.4,2.3-0.5,3.5
				c-0.1,0.7-0.3,0.9-1,0.9C1048.9,400.3,1046.3,400.3,1043.7,400.3C1043.7,400.3,1043.7,400.3,1043.7,400.3z"/>
			<path fill="#FFFFFF" d="M1043.4,364.4c1.1,0,2.3,0,3.4,0c0.6,0,0.9,0.3,0.8,0.9c-0.2,1.9-0.3,3.7-0.6,5.6
				c-0.3,1.9-1.5,2.9-3.4,2.8c-1.8-0.1-2.9-1.1-3.1-3.1c-0.2-1.7-0.4-3.4-0.6-5.1c-0.1-0.7,0.1-1,0.8-1
				C1041.6,364.5,1042.5,364.4,1043.4,364.4C1043.4,364.4,1043.4,364.4,1043.4,364.4z"/>
		</g>
		<path fill="#FFFFFF" d="M1052.9,384.7v3.9c-2-0.5-3.8-1-5.7-1.5l-1.1-0.6h0c-0.1-0.3-0.2-0.6-0.3-0.9c-0.2-0.7-0.5-0.9-1.3-0.6
			c-2.8,1-5.6,2-8.4,3c-0.4,0.1-0.8,0.2-1.4,0.4c0-2.5,0-4.9,0-7.3c0-0.3,0.2-0.6,0.4-0.9c0.1,0.3,0.4,0.6,0.4,0.9
			c0,1.4,0,2.9,0,4.5c0.6-0.5,1-0.9,1.4-1.2c1.5-0.9,2.9-0.4,4.4,0.2c0.5,0.2,1.1,0.3,1.6,0.2c1.3-0.3,2.6-0.8,4-0.8
			c2.1,0,3.8,0.3,5,2.5c0.1-0.4,0.1-0.6,0.1-0.7c0-1.6,0-3.2,0-4.8c0-0.3,0.3-0.5,0.4-0.8c0.1,0.3,0.4,0.5,0.4,0.8
			C1052.9,382.2,1052.9,383.5,1052.9,384.7z"/>
	</g>
</g>
<path fill="#5C8394" d="M457.6,329.2c-0.4-0.3-0.6-1-0.6-1.7c0-0.5,0.1-1,0.3-1.3C457.4,327.2,457.5,328.2,457.6,329.2z"/>
<path fill="#F5F6F7" d="M764.6,418l-6-6l37.8-26.6c0.3-0.3,0.8-1.4,0.8-1.8v-16.1h-36.8c-2.7,0-5.9-1.3-7.8-3.1L739,351.5l5.8-6.2
	l13.5,12.8c0.4,0.3,1.5,0.8,2,0.8h38.2c3.9,0,7.1,3.2,7.1,7.1v17.6c0,2.7-1.3,5.9-3.2,7.8L764.6,418z"/>
<path fill="#F5F6F7" d="M183.7,395.6l-6.5-5.5l23.1-27.5c1.8-2.2,5.1-3.7,7.9-3.7H448c0.5,0,1.6-0.5,2-0.8l13.5-12.8l5.8,6.2
	l-13.5,12.8c-1.9,1.8-5.1,3.1-7.8,3.1H208.2c-0.4,0-1.1,0.4-1.4,0.7L183.7,395.6z"/>
<ellipse transform="matrix(0.7521 0.659 -0.659 0.7521 413.4255 -401.8816)" fill="#F5F6F7" cx="740.9" cy="348.6" rx="3" ry="6.6"/>
<ellipse transform="matrix(0.7521 0.659 -0.659 0.7521 413.4255 -401.8816)" fill="#F5F6F7" cx="740.9" cy="348.6" rx="3" ry="6.6"/>
<ellipse transform="matrix(0.7522 -0.659 0.659 0.7522 -114.0781 393.9061)" fill="#F5F6F7" cx="466.6" cy="348.6" rx="3" ry="6.6"/>
<ellipse transform="matrix(0.7522 -0.659 0.659 0.7522 -114.0781 393.9061)" fill="#F5F6F7" cx="466.6" cy="348.6" rx="3" ry="6.6"/>
<path fill="#6D6F71" d="M714.1,362.5V378c0,1.1-0.9,2-2,2c-1.1,0-2-0.9-2-2v-15.5H714.1z"/>
<path fill="#6D6F71" d="M506.1,362.5V378c0,1.1-0.9,2-2,2c-1.1,0-2-0.9-2-2v-15.5H506.1z"/>
<path fill="#6D6F71" d="M705.2,362.5V378c0,1.1-0.9,2-2,2c-1.1,0-2-0.9-2-2v-15.5H705.2z"/>
<path fill="#6D6F71" d="M497.3,362.5V378c0,1.1-0.9,2-2,2c-1.1,0-2-0.9-2-2v-15.5H497.3z"/>
<path fill="#6D6F71" d="M754.1,311.6v12.1c0,1.1,0,2.2-0.1,3.3c-0.1,1.2-0.2,2.3-0.4,3.5c0,0.1,0,0.3-0.1,0.4
	c-3.3,19.3-19.5,34.2-39.5,35.5c-0.9,0.1-1.8,0.1-2.7,0.1H496.1c-0.9,0-1.8,0-2.7-0.1c-20.3-1.3-36.7-16.7-39.6-36.5
	c-0.3-2-0.4-4.1-0.4-6.2v-12.1c0-1.1,0.9-2,2-2c1.1,0,2,0.9,2,2v12.1c0,0.8,0,1.6,0.1,2.5c0.1,1,0.2,2,0.3,3c0,0,0,0,0,0
	c2.6,18.6,18.5,32.9,37.7,33.3c0.2,0,0.5,0,0.7,0h215.3c0.2,0,0.5,0,0.7,0c19.1-0.3,34.8-14.5,37.6-32.8c0-0.1,0-0.2,0-0.3
	c0.2-1.2,0.3-2.4,0.4-3.6c0-0.7,0-1.4,0-2.1v-12.1c0-1.1,0.9-2,2-2h0.1C753.3,309.6,754.1,310.5,754.1,311.6z"/>
<path fill="#6D6F71" d="M450.4,312.5c0-1.6,0-2.5,0-2.5c0-1.9,1.5-3.4,3.4-3.4c1.9,0,3.4,1.5,3.4,3.4v2.5v4.5
	C457.2,314.9,450.4,314.1,450.4,312.5z"/>
<path fill="#6D6F71" d="M757,312.5c0-1.6,0-2.5,0-2.5c0-1.9-1.5-3.4-3.4-3.4c-1.9,0-3.4,1.5-3.4,3.4v2.5v4.5
	C750.2,314.9,757,314.1,757,312.5z"/>
<path fill="#808285" d="M492.4,274.4c0,0.2-0.2,0.4-0.4,0.4c-0.3,0-0.6,0-0.9,0c-0.4,0-0.9,0-1.3,0c-0.4,0-0.9,0-1.3,0
	c-0.9,0-1.6,0-2.3-0.1c-0.1,0-0.2-0.1-0.3-0.1s-0.1-0.2-0.1-0.3c0.1-1.4-0.2-2.5-0.9-3.2c-1.2-1.2-3.4-1.3-6.1-1.3
	c-0.2,0-0.4,0-0.5,0c-0.2,0-0.4,0-0.6,0h-10v3.1c0,0.2-0.1,0.3-0.3,0.4c-0.2,0.1-0.4,0.1-0.6,0.1c-0.1,0-0.2,0-0.3,0
	c-0.1,0-0.3,0-0.3,0c-0.1,0-0.2,0-0.3-0.1s-0.1-0.2-0.1-0.3V260c0-0.5,0.4-0.6,0.4-0.6c0,0,0.1,0,0.1,0c0.1,0,0.2,0,0.3,0
	c0.1,0,0.2,0,0.2,0c0.1,0,0.4,0,0.6,0.1c0.2,0.1,0.3,0.2,0.3,0.4v3.2c0.7,0,1.6,0,2.8,0c0.7,0,1.4,0,2.1,0c0.7,0,1.3,0,1.9,0
	c0.3,0,0.6,0,0.8,0c0-0.4,0-1,0-1.3c0-0.5,0-0.8,0-0.9c0-0.2,0.2-0.4,0.4-0.4h1.1c0-0.4,0-0.8,0-1.2c0-0.2,0-0.3,0-0.5
	c-0.2,0-0.4,0.1-0.7,0.1c-1.1,0.2-2.4,0.5-3.6,0.5c-0.3,0-0.6,0-0.8,0c-0.7-0.1-1.5-0.6-1.5-1.4c0-0.8,0.8-1.4,2-1.4
	c0.1,0,0.2,0,0.2,0c1.4,0,3.6,0.4,4.7,0.7c0.2-0.1,0.4-0.1,0.6-0.1c0.2,0,0.3,0,0.5,0.1c1.1-0.3,3.2-0.7,4.7-0.7c0.1,0,0.2,0,0.3,0
	c0.3,0,0.8,0.1,1.2,0.3c0.5,0.2,0.8,0.6,0.8,1.1c0,0.8-0.8,1.3-1.5,1.4c-0.2,0-0.5,0.1-0.8,0.1c-1.2,0-2.6-0.3-3.7-0.5
	c-0.2,0-0.4-0.1-0.6-0.1c0,0.3,0,0.7,0,1.1c0,0.2,0,0.4,0,0.6h1.1c0.2,0,0.4,0.1,0.4,0.3c0.1,0.2,0.1,0.8,0.1,2c0,0.1,0,0.3,0,0.4
	c0,0,0.1,0,0.1,0c3.7,0,6.8,1.1,9.1,3C490.7,267.6,492.5,270.1,492.4,274.4z"/>
<path fill="#FFFFFF" d="M483.7,265.7c-1.1-0.1,4.3-0.3,5.2,1.6c1,1.9,0.7,3.1,0.7,3.1S489.2,266.2,483.7,265.7z"/>
<path fill="#808285" d="M525.1,247c0,0.2-0.2,0.4-0.4,0.4c-0.3,0-0.6,0-0.9,0c-0.4,0-0.9,0-1.3,0c-0.4,0-0.9,0-1.3,0
	c-0.9,0-1.6,0-2.3-0.1c-0.1,0-0.2-0.1-0.3-0.1c-0.1-0.1-0.1-0.2-0.1-0.3c0.1-1.4-0.2-2.5-0.9-3.2c-1.2-1.2-3.4-1.3-6.1-1.3
	c-0.2,0-0.4,0-0.5,0c-0.2,0-0.4,0-0.6,0h-10v3.1c0,0.2-0.1,0.3-0.3,0.4c-0.2,0.1-0.4,0.1-0.6,0.1c-0.1,0-0.2,0-0.3,0
	c-0.1,0-0.3,0-0.3,0c-0.1,0-0.2,0-0.3-0.1s-0.1-0.2-0.1-0.3v-12.9c0-0.5,0.4-0.6,0.4-0.6c0,0,0.1,0,0.1,0c0.1,0,0.2,0,0.3,0
	c0.1,0,0.2,0,0.2,0c0.2,0,0.4,0,0.6,0.1c0.2,0.1,0.3,0.2,0.3,0.4v3.2c0.7,0,1.6,0,2.8,0c0.7,0,1.4,0,2.1,0c0.7,0,1.3,0,1.9,0
	c0.3,0,0.6,0,0.8,0c0-0.4,0-1,0-1.3c0-0.5,0-0.8,0-0.9c0-0.2,0.2-0.4,0.4-0.4h1.1c0-0.4,0-0.8,0-1.2c0-0.2,0-0.3,0-0.5
	c-0.2,0-0.4,0.1-0.7,0.1c-1.1,0.2-2.4,0.5-3.6,0.5c-0.3,0-0.6,0-0.8,0c-0.7-0.1-1.5-0.6-1.5-1.4c0-0.8,0.8-1.4,2-1.4
	c0.1,0,0.1,0,0.2,0c1.4,0,3.6,0.4,4.7,0.7c0.2-0.1,0.4-0.1,0.6-0.1c0.2,0,0.3,0,0.5,0.1c1.1-0.3,3.2-0.7,4.7-0.7c0.1,0,0.2,0,0.3,0
	c0.3,0,0.8,0.1,1.2,0.3c0.5,0.2,0.8,0.6,0.8,1.1c0,0.8-0.8,1.3-1.5,1.4c-0.2,0-0.5,0.1-0.8,0.1c-1.2,0-2.6-0.3-3.7-0.5
	c-0.2,0-0.4-0.1-0.6-0.1c0,0.3,0,0.7,0,1.1c0,0.2,0,0.4,0,0.6h1.1c0.2,0,0.4,0.1,0.4,0.3c0.1,0.2,0.1,0.8,0.1,2c0,0.1,0,0.3,0,0.4
	c0,0,0.1,0,0.1,0c3.7,0,6.8,1.1,9.1,3C523.4,240.2,525.3,242.7,525.1,247z"/>
<path fill="#FFFFFF" d="M516.5,238.3c-1.1-0.1,4.3-0.3,5.2,1.6c1,1.9,0.7,3.1,0.7,3.1S521.9,238.8,516.5,238.3z"/>
<path fill="#808285" d="M557.9,219.7c0,0.2-0.2,0.4-0.4,0.4c-0.3,0-0.6,0-0.9,0c-0.4,0-0.9,0-1.3,0c-0.4,0-0.9,0-1.3,0
	c-0.9,0-1.6,0-2.3-0.1c-0.1,0-0.2-0.1-0.3-0.1c-0.1-0.1-0.1-0.2-0.1-0.3c0.1-1.4-0.2-2.5-0.9-3.2c-1.2-1.2-3.4-1.3-6.1-1.3
	c-0.2,0-0.4,0-0.5,0c-0.2,0-0.4,0-0.6,0h-10v3.1c0,0.2-0.1,0.3-0.3,0.4c-0.2,0.1-0.4,0.1-0.6,0.1c-0.1,0-0.2,0-0.3,0
	c-0.1,0-0.3,0-0.3,0c-0.1,0-0.2,0-0.3-0.1c-0.1-0.1-0.1-0.2-0.1-0.3v-12.9c0-0.5,0.4-0.6,0.4-0.6c0,0,0.1,0,0.1,0c0.1,0,0.2,0,0.3,0
	c0.1,0,0.2,0,0.2,0c0.2,0,0.4,0,0.6,0.1c0.1,0.1,0.3,0.2,0.3,0.4v3.2c0.7,0,1.6,0,2.8,0c0.7,0,1.4,0,2.1,0c0.7,0,1.3,0,1.9,0
	c0.3,0,0.6,0,0.8,0c0-0.4,0-1,0-1.3c0-0.5,0-0.8,0-0.9c0-0.2,0.2-0.4,0.4-0.4h1.1c0-0.4,0-0.8,0-1.2c0-0.2,0-0.3,0-0.5
	c-0.2,0-0.4,0.1-0.7,0.1c-1.1,0.2-2.4,0.5-3.6,0.5c-0.3,0-0.6,0-0.8,0c-0.7-0.1-1.5-0.6-1.5-1.4c0-0.8,0.8-1.4,2-1.4
	c0.1,0,0.2,0,0.2,0c1.4,0,3.6,0.4,4.7,0.7c0.2-0.1,0.4-0.1,0.6-0.1c0.2,0,0.3,0,0.5,0.1c1.1-0.3,3.2-0.7,4.7-0.7c0.1,0,0.2,0,0.3,0
	c0.3,0,0.8,0.1,1.2,0.3c0.5,0.2,0.8,0.6,0.8,1.1c0,0.8-0.8,1.3-1.5,1.4c-0.2,0-0.5,0.1-0.8,0.1c-1.2,0-2.6-0.3-3.7-0.5
	c-0.2,0-0.4-0.1-0.6-0.1c0,0.3,0,0.7,0,1.1c0,0.2,0,0.4,0,0.6h1.1c0.2,0,0.4,0.1,0.4,0.3c0.1,0.2,0.1,0.8,0.1,2c0,0.1,0,0.3,0,0.4
	c0,0,0.1,0,0.1,0c3.7,0,6.8,1.1,9.1,3C556.2,212.9,558,215.4,557.9,219.7z"/>
<path fill="#FFFFFF" d="M549.2,211c-1.1-0.1,4.3-0.3,5.2,1.6s0.7,3.1,0.7,3.1S554.7,211.5,549.2,211z"/>
<path fill="#808285" d="M642.9,246.1c0,0.2,0.2,0.4,0.4,0.4c0.3,0,0.6,0,0.9,0c0.4,0,0.9,0,1.3,0c0.4,0,0.9,0,1.3,0
	c0.9,0,1.6,0,2.3-0.1c0.1,0,0.2-0.1,0.3-0.1c0.1-0.1,0.1-0.2,0.1-0.3c-0.1-1.4,0.2-2.5,0.9-3.2c1.2-1.2,3.4-1.3,6.1-1.3
	c0.2,0,0.4,0,0.5,0c0.2,0,0.4,0,0.6,0h10v3.1c0,0.2,0.1,0.3,0.3,0.4c0.2,0.1,0.4,0.1,0.6,0.1c0.1,0,0.2,0,0.3,0c0.1,0,0.3,0,0.3,0
	c0.1,0,0.2,0,0.3-0.1c0.1-0.1,0.1-0.2,0.1-0.3v-12.9c0-0.5-0.4-0.6-0.4-0.6c0,0-0.1,0-0.1,0c-0.1,0-0.2,0-0.3,0c-0.1,0-0.2,0-0.2,0
	c-0.2,0-0.4,0-0.6,0.1c-0.2,0.1-0.3,0.2-0.3,0.4v3.2c-0.7,0-1.6,0-2.8,0c-0.7,0-1.4,0-2.1,0c-0.7,0-1.3,0-1.9,0c-0.3,0-0.6,0-0.8,0
	c0-0.4,0-1,0-1.3c0-0.5,0-0.8,0-0.9c0-0.2-0.2-0.4-0.4-0.4h-1.1c0-0.4,0-0.8,0-1.2c0-0.2,0-0.3,0-0.5c0.2,0,0.4,0.1,0.7,0.1
	c1.1,0.2,2.4,0.5,3.6,0.5c0.3,0,0.6,0,0.8,0c0.7-0.1,1.5-0.6,1.5-1.4c0-0.8-0.8-1.4-2-1.4c-0.1,0-0.2,0-0.2,0
	c-1.4,0-3.6,0.4-4.7,0.7c-0.2-0.1-0.4-0.1-0.6-0.1c-0.2,0-0.3,0-0.5,0.1c-1.1-0.3-3.2-0.7-4.7-0.7c-0.1,0-0.2,0-0.3,0
	c-0.3,0-0.8,0.1-1.2,0.3c-0.5,0.2-0.8,0.6-0.8,1.1c0,0.8,0.8,1.3,1.5,1.4c0.2,0,0.5,0.1,0.8,0.1c1.2,0,2.6-0.3,3.7-0.5
	c0.2,0,0.4-0.1,0.6-0.1c0,0.3,0,0.7,0,1.1c0,0.2,0,0.4,0,0.6h-1.1c-0.2,0-0.4,0.1-0.4,0.3c-0.1,0.2-0.1,0.8-0.1,2c0,0.1,0,0.3,0,0.4
	c0,0-0.1,0-0.1,0c-3.7,0-6.8,1.1-9.1,3C644.5,239.2,642.7,241.8,642.9,246.1z"/>
<path fill="#FFFFFF" d="M651.5,237.4c1.1-0.1-4.3-0.3-5.2,1.6c-1,1.9-0.7,3.1-0.7,3.1S646.1,237.8,651.5,237.4z"/>
<path fill="#808285" d="M676,272.9c0,0.2,0.2,0.4,0.4,0.4c0.3,0,0.6,0,0.9,0c0.4,0,0.9,0,1.3,0c0.4,0,0.9,0,1.3,0
	c0.9,0,1.6,0,2.3-0.1c0.1,0,0.2-0.1,0.3-0.1c0.1-0.1,0.1-0.2,0.1-0.3c-0.1-1.4,0.2-2.5,0.9-3.2c1.2-1.2,3.4-1.3,6.1-1.3
	c0.2,0,0.4,0,0.5,0s0.4,0,0.6,0h10v3.1c0,0.2,0.1,0.3,0.3,0.4c0.2,0.1,0.4,0.1,0.6,0.1c0.1,0,0.2,0,0.3,0c0.1,0,0.3,0,0.3,0
	c0.1,0,0.2,0,0.3-0.1c0.1-0.1,0.1-0.2,0.1-0.3v-12.9c0-0.5-0.4-0.6-0.4-0.6c0,0-0.1,0-0.1,0c-0.1,0-0.2,0-0.3,0c-0.1,0-0.2,0-0.2,0
	c-0.2,0-0.4,0-0.6,0.1c-0.2,0.1-0.3,0.2-0.3,0.4v3.2c-0.7,0-1.6,0-2.8,0c-0.7,0-1.4,0-2.1,0c-0.7,0-1.3,0-1.9,0c-0.3,0-0.6,0-0.8,0
	c0-0.4,0-1,0-1.3c0-0.5,0-0.8,0-0.9c0-0.2-0.2-0.4-0.4-0.4h-1.1c0-0.4,0-0.8,0-1.2c0-0.2,0-0.3,0-0.5c0.2,0,0.4,0.1,0.7,0.1
	c1.1,0.2,2.4,0.5,3.6,0.5c0.3,0,0.6,0,0.8,0c0.7-0.1,1.5-0.6,1.5-1.4c0-0.8-0.8-1.4-2-1.4c-0.1,0-0.2,0-0.2,0
	c-1.4,0-3.6,0.4-4.7,0.7c-0.2-0.1-0.4-0.1-0.6-0.1c-0.2,0-0.3,0-0.5,0.1c-1.1-0.3-3.2-0.7-4.7-0.7c-0.1,0-0.2,0-0.3,0
	c-0.3,0-0.8,0.1-1.2,0.3c-0.5,0.2-0.8,0.6-0.8,1.1c0,0.8,0.8,1.3,1.5,1.4c0.2,0,0.5,0.1,0.8,0.1c1.2,0,2.6-0.3,3.7-0.5
	c0.2,0,0.4-0.1,0.6-0.1c0,0.3,0,0.7,0,1.1c0,0.2,0,0.4,0,0.6h-1.1c-0.2,0-0.4,0.1-0.4,0.3c-0.1,0.2-0.1,0.8-0.1,2c0,0.1,0,0.3,0,0.4
	c0,0-0.1,0-0.1,0c-3.7,0-6.8,1.1-9.1,3C677.7,266.1,675.9,268.6,676,272.9z"/>
<path fill="#FFFFFF" d="M684.7,264.2c1.1-0.1-4.3-0.3-5.2,1.6c-1,1.9-0.7,3.1-0.7,3.1S679.2,264.7,684.7,264.2z"/>
<text transform="matrix(1 0 0 1 678.0559 241.5127)" fill="#FFFFFF" font-family="'ArialMT'" font-size="8">Investissement public</text>
<text transform="matrix(1 0 0 1 711.2219 267.4912)" fill="#FFFFFF" font-family="'ArialMT'" font-size="8">Consommation FInale des ménages</text>
<text transform="matrix(1 0 0 1 711.2219 267.4912)" fill="none" stroke="#F5F6F7" stroke-miterlimit="10" font-family="'ArialMT'" font-size="8">Consommation FInale des ménages</text>
<text transform="matrix(1 0 0 1 439.1292 215.709)" fill="#FFFFFF" font-family="'ArialMT'" font-size="8">Balance commercialE</text>
<text transform="matrix(1 0 0 1 379.7581 268.8193)" fill="#FFFFFF" font-family="'ArialMT'" font-size="8">Investissement privé</text>
<text transform="matrix(1 0 0 1 379.7581 268.8193)" fill="none" stroke="#F5F6F7" stroke-miterlimit="10" font-family="'ArialMT'" font-size="8">Investissement privé</text>
<path fill="none" stroke="#F5F6F7" stroke-width="11.339" stroke-miterlimit="10" d="M677.8,687.1l451.9,0c6.2,0,11.3-5.1,11.3-11.3
	V250c0-6.2-5.1-11.3-11.3-11.3H669"/>
<path fill="none" stroke="#F5F6F7" stroke-width="11.339" stroke-miterlimit="10" d="M718.1,642.3l329.4,0c6.2,0,11.3-5.1,11.3-11.3
	V483.8"/>
<path fill="none" stroke="#F5F6F7" stroke-width="11.339" stroke-miterlimit="10" d="M765,595.5l231.1,0c6.2,0,11.3-5.1,11.3-11.3
	V483.8"/>
<path fill="none" stroke="#F5F6F7" stroke-width="11.339" stroke-miterlimit="10" d="M875.1,394.5v145.8c0,6.2-5.1,11.3-11.3,11.3
	h-60"/>
<path fill="none" stroke="#F5F6F7" stroke-width="11.339" stroke-miterlimit="10" d="M373.7,442.7v-21.9v-14.9
	c0-6.2,5.1-11.3,11.3-11.3h490"/>
<line fill="none" stroke="#F5F6F7" stroke-width="11.339" stroke-miterlimit="10" x1="875.1" y1="394.5" x2="962.7" y2="394.5"/>
<path fill="none" stroke="#F5F6F7" stroke-width="11.339" stroke-miterlimit="10" d="M1029.7,372.2v-96.6c0-6.2-5.1-11.3-11.3-11.3
	H701.8"/>
<path fill="none" stroke="#F5F6F7" stroke-width="11.339" stroke-miterlimit="10" d="M133.6,372.4V277c0-6.2,5.1-11.3,11.3-11.3
	h321.7"/>
<path fill="none" stroke="#F5F6F7" stroke-width="11.339" stroke-miterlimit="10" d="M105.3,372.4V250.6c0-6.2,5.1-11.3,11.3-11.3
	h383.4"/>
<polyline fill="none" stroke="#F5F6F7" stroke-width="11.339" stroke-miterlimit="10" points="183.5,465.5 336.5,465.5 350,465.5 
	"/>
<path fill="none" stroke="#F5F6F7" stroke-width="11.339" stroke-miterlimit="10" d="M465.5,629.9H126.6c-6.2,0-11.3-5.1-11.3-11.3
	V485.8"/>
<path fill="none" stroke="#F5F6F7" stroke-width="11.339" stroke-miterlimit="10" d="M76.1,372.4V224.1c0-6.2,5.1-11.3,11.3-11.3
	h443.7"/>
<path fill="none" stroke="#F5F6F7" stroke-width="11.339" stroke-miterlimit="10" d="M520.6,686.5H87.4c-6.2,0-11.3-5.1-11.3-11.3
	V485.8"/>
<path fill="none" stroke="#F5F6F7" stroke-width="11.339" stroke-miterlimit="10" d="M419.8,576.8h-34.8c-6.2,0-11.3-5.1-11.3-11.3
	v-65.3v-22.5"/>
<path fill="none" stroke="#F5F6F7" stroke-width="11.339" stroke-miterlimit="10" d="M485.5,539.3v26.2c0,6.2-5.1,11.3-11.3,11.3
	l-38.1,0"/>
<path fill="none" stroke="#F5F6F7" stroke-width="11.339" stroke-miterlimit="10" d="M527.9,539.3v79.3c0,6.2-5.1,11.3-11.3,11.3
	h-29.8"/>
<path fill="none" stroke="#F5F6F7" stroke-width="11.339" stroke-miterlimit="10" d="M570.4,539.3v135.9c0,6.2-5.1,11.3-11.3,11.3
	h-21.3"/>
<path fill="none" stroke="#F5F6F7" stroke-width="11.339" stroke-miterlimit="10" d="M612.8,539.6v135.9c0,6.2,5.1,11.3,11.3,11.3
	h45.7"/>
<path fill="none" stroke="#F5F6F7" stroke-width="11.339" stroke-miterlimit="10" d="M655.2,539.3v91.6c0,6.2,5.1,11.3,11.3,11.3
	h41.9"/>
<path fill="none" stroke="#F5F6F7" stroke-width="11.339" stroke-miterlimit="10" d="M697.7,539.3v44.8c0,6.2,5.1,11.3,11.3,11.3
	h31.1"/>
<path fill="none" stroke="#F5F6F7" stroke-width="11.339" stroke-miterlimit="10" d="M740.1,539.3c0,0,0,2.8,0,6.2
	c0,3.4,5.1,6.2,11.3,6.2h28"/>
<path fill="#F5F6F7" stroke="#F5F6F7" stroke-width="2.8347" stroke-miterlimit="10" d="M487.4,466.7c0-6.6-3.8-6.6-3.9,0
	c0.1,13.7-1.9,59-2.3,72.6c2.8,0.6,5.7,0.6,8.5,0C489.4,525.6,487.3,480.3,487.4,466.7z"/>
<path fill="#F5F6F7" stroke="#F5F6F7" stroke-width="2.8347" stroke-miterlimit="10" d="M529.9,466.7c0-6.6-3.8-6.6-3.9,0
	c0.1,13.7-1.9,59-2.3,72.6c2.8,0.6,5.7,0.6,8.5,0C531.8,525.6,529.7,480.3,529.9,466.7z"/>
<path fill="#F5F6F7" stroke="#F5F6F7" stroke-width="2.8347" stroke-miterlimit="10" d="M572.3,466.7c0-6.6-3.8-6.6-3.9,0
	c0.2,13.7-1.9,59-2.3,72.6c2.8,0.6,5.7,0.6,8.5,0C574.2,525.6,572.1,480.3,572.3,466.7z"/>
<path fill="#F5F6F7" stroke="#F5F6F7" stroke-width="2.8347" stroke-miterlimit="10" d="M614.7,466.7c0-6.6-3.8-6.6-3.9,0
	c0.1,13.7-1.9,59-2.3,72.6c2.8,0.6,5.7,0.6,8.5,0C616.7,525.6,614.6,480.3,614.7,466.7z"/>
<path fill="#F5F6F7" stroke="#F5F6F7" stroke-width="2.8347" stroke-miterlimit="10" d="M657.2,466.7c0-6.6-3.8-6.6-3.9,0
	c0.1,13.7-1.9,59-2.3,72.6c2.8,0.6,5.7,0.6,8.5,0C659.1,525.6,657,480.3,657.2,466.7z"/>
<path fill="#F5F6F7" stroke="#F5F6F7" stroke-width="2.8347" stroke-miterlimit="10" d="M699.6,466.7c0-6.6-3.8-6.6-3.9,0
	c0.1,13.7-1.9,59-2.3,72.6c2.8,0.6,5.7,0.6,8.5,0C701.5,525.6,699.4,480.3,699.6,466.7z"/>
<path fill="#F5F6F7" stroke="#F5F6F7" stroke-width="2.8347" stroke-miterlimit="10" d="M742,466.7c0-6.6-3.8-6.6-3.9,0
	c0.1,13.7-1.9,59-2.3,72.6c2.8,0.6,5.7,0.6,8.5,0C744,525.6,741.9,480.3,742,466.7z"/>
</svg>
